o mesh
v 0.000000 0.000000 0.076194
v 0.053877 0.000000 0.053877
v 0.076194 0.000000 0.000000
v 0.053877 0.000000 -0.053877
v 0.000000 0.000000 -0.076194
v -0.053877 0.000000 -0.053877
v -0.076194 0.000000 -0.000000
v -0.053877 0.000000 0.053877
v 0.000000 0.620521 0.064765
v 0.045796 0.620521 0.045796
v 0.064765 0.620521 0.000000
v 0.045796 0.620521 -0.045796
v 0.000000 0.620521 -0.064765
v -0.045796 0.620521 -0.045796
v -0.064765 0.620521 -0.000000
v -0.045796 0.620521 0.045796
f 1 2 10
f 1 10 9
f 2 3 11
f 2 11 10
f 3 4 12
f 3 12 11
f 4 5 13
f 4 13 12
f 5 6 14
f 5 14 13
f 6 7 15
f 6 15 14
f 7 8 16
f 7 16 15
f 8 1 9
f 8 9 16
v 0.000000 0.665857 -0.000000
v 0.000000 0.665857 -0.000000
v 0.000000 0.665857 -0.000000
v 0.000000 0.665857 -0.000000
v 0.000000 0.665857 -0.000000
v 0.000000 0.665857 -0.000000
v 0.000000 0.665857 -0.000000
v 0.000000 0.665857 -0.000000
v 0.000000 0.665857 -0.000000
v 0.000000 0.665857 -0.000000
v 0.000000 0.665857 -0.000000
v 0.000000 0.665857 -0.000000
v 0.000000 0.665857 -0.000000
v 0.000000 0.665857 -0.000000
v 0.024784 0.662406 -0.000000
v 0.022330 0.662406 -0.010754
v 0.015453 0.662406 -0.019377
v 0.005515 0.662406 -0.024163
v -0.005515 0.662406 -0.024163
v -0.015453 0.662406 -0.019377
v -0.022330 0.662406 -0.010754
v -0.024784 0.662406 -0.000000
v -0.022330 0.662406 0.010754
v -0.015453 0.662406 0.019377
v -0.005515 0.662406 0.024163
v 0.005515 0.662406 0.024163
v 0.015453 0.662406 0.019377
v 0.022330 0.662406 0.010754
v 0.045796 0.652579 -0.000000
v 0.041261 0.652579 -0.019870
v 0.028553 0.652579 -0.035805
v 0.010191 0.652579 -0.044648
v -0.010191 0.652579 -0.044648
v -0.028553 0.652579 -0.035805
v -0.041261 0.652579 -0.019870
v -0.045796 0.652579 -0.000000
v -0.041261 0.652579 0.019870
v -0.028553 0.652579 0.035805
v -0.010191 0.652579 0.044648
v 0.010191 0.652579 0.044648
v 0.028553 0.652579 0.035805
v 0.041261 0.652579 0.019870
v 0.059835 0.637871 -0.000000
v 0.053910 0.637871 -0.025961
v 0.037307 0.637871 -0.046781
v 0.013315 0.637871 -0.058335
v -0.013315 0.637871 -0.058335
v -0.037307 0.637871 -0.046781
v -0.053910 0.637871 -0.025961
v -0.059835 0.637871 -0.000000
v -0.053910 0.637871 0.025961
v -0.037307 0.637871 0.046781
v -0.013315 0.637871 0.058335
v 0.013315 0.637871 0.058335
v 0.037307 0.637871 0.046781
v 0.053910 0.637871 0.025961
v 0.064765 0.620521 -0.000000
v 0.058351 0.620521 -0.028100
v 0.040380 0.620521 -0.050635
v 0.014412 0.620521 -0.063141
v -0.014412 0.620521 -0.063141
v -0.040380 0.620521 -0.050635
v -0.058351 0.620521 -0.028100
v -0.064765 0.620521 -0.000000
v -0.058351 0.620521 0.028100
v -0.040380 0.620521 0.050635
v -0.014412 0.620521 0.063141
v 0.014412 0.620521 0.063141
v 0.040380 0.620521 0.050635
v 0.058351 0.620521 0.028100
v 0.059835 0.603172 -0.000000
v 0.053910 0.603172 -0.025961
v 0.037307 0.603172 -0.046781
v 0.013315 0.603172 -0.058335
v -0.013315 0.603172 -0.058335
v -0.037307 0.603172 -0.046781
v -0.053910 0.603172 -0.025961
v -0.059835 0.603172 -0.000000
v -0.053910 0.603172 0.025961
v -0.037307 0.603172 0.046781
v -0.013315 0.603172 0.058335
v 0.013315 0.603172 0.058335
v 0.037307 0.603172 0.046781
v 0.053910 0.603172 0.025961
v 0.045796 0.588464 -0.000000
v 0.041261 0.588464 -0.019870
v 0.028553 0.588464 -0.035805
v 0.010191 0.588464 -0.044648
v -0.010191 0.588464 -0.044648
v -0.028553 0.588464 -0.035805
v -0.041261 0.588464 -0.019870
v -0.045796 0.588464 -0.000000
v -0.041261 0.588464 0.019870
v -0.028553 0.588464 0.035805
v -0.010191 0.588464 0.044648
v 0.010191 0.588464 0.044648
v 0.028553 0.588464 0.035805
v 0.041261 0.588464 0.019870
v 0.024784 0.578637 -0.000000
v 0.022330 0.578637 -0.010754
v 0.015453 0.578637 -0.019377
v 0.005515 0.578637 -0.024163
v -0.005515 0.578637 -0.024163
v -0.015453 0.578637 -0.019377
v -0.022330 0.578637 -0.010754
v -0.024784 0.578637 -0.000000
v -0.022330 0.578637 0.010754
v -0.015453 0.578637 0.019377
v -0.005515 0.578637 0.024163
v 0.005515 0.578637 0.024163
v 0.015453 0.578637 0.019377
v 0.022330 0.578637 0.010754
v 0.000000 0.575186 -0.000000
v 0.000000 0.575186 -0.000000
v 0.000000 0.575186 -0.000000
v 0.000000 0.575186 -0.000000
v -0.000000 0.575186 -0.000000
v -0.000000 0.575186 -0.000000
v -0.000000 0.575186 -0.000000
v -0.000000 0.575186 -0.000000
v -0.000000 0.575186 0.000000
v -0.000000 0.575186 0.000000
v -0.000000 0.575186 0.000000
v 0.000000 0.575186 0.000000
v 0.000000 0.575186 0.000000
v 0.000000 0.575186 0.000000
f 17 32 18
f 17 31 32
f 18 33 19
f 18 32 33
f 19 34 20
f 19 33 34
f 20 35 21
f 20 34 35
f 21 36 22
f 21 35 36
f 22 37 23
f 22 36 37
f 23 38 24
f 23 37 38
f 24 39 25
f 24 38 39
f 25 40 26
f 25 39 40
f 26 41 27
f 26 40 41
f 27 42 28
f 27 41 42
f 28 43 29
f 28 42 43
f 29 44 30
f 29 43 44
f 30 31 17
f 30 44 31
f 31 46 32
f 31 45 46
f 32 47 33
f 32 46 47
f 33 48 34
f 33 47 48
f 34 49 35
f 34 48 49
f 35 50 36
f 35 49 50
f 36 51 37
f 36 50 51
f 37 52 38
f 37 51 52
f 38 53 39
f 38 52 53
f 39 54 40
f 39 53 54
f 40 55 41
f 40 54 55
f 41 56 42
f 41 55 56
f 42 57 43
f 42 56 57
f 43 58 44
f 43 57 58
f 44 45 31
f 44 58 45
f 45 60 46
f 45 59 60
f 46 61 47
f 46 60 61
f 47 62 48
f 47 61 62
f 48 63 49
f 48 62 63
f 49 64 50
f 49 63 64
f 50 65 51
f 50 64 65
f 51 66 52
f 51 65 66
f 52 67 53
f 52 66 67
f 53 68 54
f 53 67 68
f 54 69 55
f 54 68 69
f 55 70 56
f 55 69 70
f 56 71 57
f 56 70 71
f 57 72 58
f 57 71 72
f 58 59 45
f 58 72 59
f 59 74 60
f 59 73 74
f 60 75 61
f 60 74 75
f 61 76 62
f 61 75 76
f 62 77 63
f 62 76 77
f 63 78 64
f 63 77 78
f 64 79 65
f 64 78 79
f 65 80 66
f 65 79 80
f 66 81 67
f 66 80 81
f 67 82 68
f 67 81 82
f 68 83 69
f 68 82 83
f 69 84 70
f 69 83 84
f 70 85 71
f 70 84 85
f 71 86 72
f 71 85 86
f 72 73 59
f 72 86 73
f 73 88 74
f 73 87 88
f 74 89 75
f 74 88 89
f 75 90 76
f 75 89 90
f 76 91 77
f 76 90 91
f 77 92 78
f 77 91 92
f 78 93 79
f 78 92 93
f 79 94 80
f 79 93 94
f 80 95 81
f 80 94 95
f 81 96 82
f 81 95 96
f 82 97 83
f 82 96 97
f 83 98 84
f 83 97 98
f 84 99 85
f 84 98 99
f 85 100 86
f 85 99 100
f 86 87 73
f 86 100 87
f 87 102 88
f 87 101 102
f 88 103 89
f 88 102 103
f 89 104 90
f 89 103 104
f 90 105 91
f 90 104 105
f 91 106 92
f 91 105 106
f 92 107 93
f 92 106 107
f 93 108 94
f 93 107 108
f 94 109 95
f 94 108 109
f 95 110 96
f 95 109 110
f 96 111 97
f 96 110 111
f 97 112 98
f 97 111 112
f 98 113 99
f 98 112 113
f 99 114 100
f 99 113 114
f 100 101 87
f 100 114 101
f 101 116 102
f 101 115 116
f 102 117 103
f 102 116 117
f 103 118 104
f 103 117 118
f 104 119 105
f 104 118 119
f 105 120 106
f 105 119 120
f 106 121 107
f 106 120 121
f 107 122 108
f 107 121 122
f 108 123 109
f 108 122 123
f 109 124 110
f 109 123 124
f 110 125 111
f 110 124 125
f 111 126 112
f 111 125 126
f 112 127 113
f 112 126 127
f 113 128 114
f 113 127 128
f 114 115 101
f 114 128 115
f 115 130 116
f 115 129 130
f 116 131 117
f 116 130 131
f 117 132 118
f 117 131 132
f 118 133 119
f 118 132 133
f 119 134 120
f 119 133 134
f 120 135 121
f 120 134 135
f 121 136 122
f 121 135 136
f 122 137 123
f 122 136 137
f 123 138 124
f 123 137 138
f 124 139 125
f 124 138 139
f 125 140 126
f 125 139 140
f 126 141 127
f 126 140 141
f 127 142 128
f 127 141 142
f 128 129 115
f 128 142 129
v 0.041595 0.256584 -0.026883
v 0.029412 0.291605 -0.019009
v 0.000000 0.306111 -0.000000
v -0.029412 0.291605 0.019009
v -0.041595 0.256584 0.026883
v -0.029412 0.221564 0.019009
v -0.000000 0.207058 0.000000
v 0.029412 0.221564 -0.019009
v 0.177105 0.256584 0.182788
v 0.164922 0.291605 0.190662
v 0.135510 0.306111 0.209671
v 0.106097 0.291605 0.228680
v 0.093914 0.256584 0.236554
v 0.106097 0.221564 0.228680
v 0.135510 0.207058 0.209671
v 0.164922 0.221564 0.190662
f 143 144 152
f 143 152 151
f 144 145 153
f 144 153 152
f 145 146 154
f 145 154 153
f 146 147 155
f 146 155 154
f 147 148 156
f 147 156 155
f 148 149 157
f 148 157 156
f 149 150 158
f 149 158 157
f 150 143 151
f 150 151 158
v 0.135510 0.256584 0.259197
v 0.170530 0.256584 0.244691
v 0.185036 0.256584 0.209671
v 0.170530 0.256584 0.174651
v 0.135510 0.256584 0.160145
v 0.100489 0.256584 0.174651
v 0.085983 0.256584 0.209671
v 0.100489 0.256584 0.244691
v 0.135510 0.502686 0.251768
v 0.165277 0.502686 0.239438
v 0.177607 0.502686 0.209671
v 0.165277 0.502686 0.179904
v 0.135510 0.502686 0.167574
v 0.105742 0.502686 0.179904
v 0.093412 0.502686 0.209671
v 0.105742 0.502686 0.239438
f 159 160 168
f 159 168 167
f 160 161 169
f 160 169 168
f 161 162 170
f 161 170 169
f 162 163 171
f 162 171 170
f 163 164 172
f 163 172 171
f 164 165 173
f 164 173 172
f 165 166 174
f 165 174 173
f 166 159 167
f 166 167 174
v 0.135510 0.532154 0.209671
v 0.135510 0.532154 0.209671
v 0.135510 0.532154 0.209671
v 0.135510 0.532154 0.209671
v 0.135510 0.532154 0.209671
v 0.135510 0.532154 0.209671
v 0.135510 0.532154 0.209671
v 0.135510 0.532154 0.209671
v 0.135510 0.532154 0.209671
v 0.135510 0.532154 0.209671
v 0.135510 0.532154 0.209671
v 0.135510 0.532154 0.209671
v 0.135510 0.532154 0.209671
v 0.135510 0.532154 0.209671
v 0.151619 0.529911 0.209671
v 0.150024 0.529911 0.202681
v 0.145554 0.529911 0.197076
v 0.139094 0.529911 0.193965
v 0.131925 0.529911 0.193965
v 0.125465 0.529911 0.197076
v 0.120995 0.529911 0.202681
v 0.119400 0.529911 0.209671
v 0.120995 0.529911 0.216661
v 0.125465 0.529911 0.222266
v 0.131925 0.529911 0.225377
v 0.139094 0.529911 0.225377
v 0.145554 0.529911 0.222266
v 0.150024 0.529911 0.216661
v 0.165277 0.523523 0.209671
v 0.162329 0.523523 0.196756
v 0.154069 0.523523 0.186398
v 0.142133 0.523523 0.180650
v 0.128886 0.523523 0.180650
v 0.116950 0.523523 0.186398
v 0.108690 0.523523 0.196756
v 0.105742 0.523523 0.209671
v 0.108690 0.523523 0.222587
v 0.116950 0.523523 0.232944
v 0.128886 0.523523 0.238692
v 0.142133 0.523523 0.238692
v 0.154069 0.523523 0.232944
v 0.162329 0.523523 0.222587
v 0.174402 0.513963 0.209671
v 0.170551 0.513963 0.192796
v 0.159759 0.513963 0.179263
v 0.144164 0.513963 0.171753
v 0.126855 0.513963 0.171753
v 0.111260 0.513963 0.179263
v 0.100468 0.513963 0.192796
v 0.096617 0.513963 0.209671
v 0.100468 0.513963 0.226546
v 0.111260 0.513963 0.240079
v 0.126855 0.513963 0.247589
v 0.144164 0.513963 0.247589
v 0.159759 0.513963 0.240079
v 0.170551 0.513963 0.226546
v 0.177607 0.502686 0.209671
v 0.173438 0.502686 0.191406
v 0.161757 0.502686 0.176758
v 0.144877 0.502686 0.168629
v 0.126142 0.502686 0.168629
v 0.109262 0.502686 0.176758
v 0.097581 0.502686 0.191406
v 0.093412 0.502686 0.209671
v 0.097581 0.502686 0.227936
v 0.109262 0.502686 0.242584
v 0.126142 0.502686 0.250713
v 0.144877 0.502686 0.250713
v 0.161757 0.502686 0.242584
v 0.173438 0.502686 0.227936
v 0.174402 0.491409 0.209671
v 0.170551 0.491409 0.192796
v 0.159759 0.491409 0.179263
v 0.144164 0.491409 0.171753
v 0.126855 0.491409 0.171753
v 0.111260 0.491409 0.179263
v 0.100468 0.491409 0.192796
v 0.096617 0.491409 0.209671
v 0.100468 0.491409 0.226546
v 0.111260 0.491409 0.240079
v 0.126855 0.491409 0.247589
v 0.144164 0.491409 0.247589
v 0.159759 0.491409 0.240079
v 0.170551 0.491409 0.226546
v 0.165277 0.481849 0.209671
v 0.162329 0.481849 0.196756
v 0.154069 0.481849 0.186398
v 0.142133 0.481849 0.180650
v 0.128886 0.481849 0.180650
v 0.116950 0.481849 0.186398
v 0.108690 0.481849 0.196756
v 0.105742 0.481849 0.209671
v 0.108690 0.481849 0.222587
v 0.116950 0.481849 0.232944
v 0.128886 0.481849 0.238692
v 0.142133 0.481849 0.238692
v 0.154069 0.481849 0.232944
v 0.162329 0.481849 0.222587
v 0.151619 0.475461 0.209671
v 0.150024 0.475461 0.202681
v 0.145554 0.475461 0.197076
v 0.139094 0.475461 0.193965
v 0.131925 0.475461 0.193965
v 0.125465 0.475461 0.197076
v 0.120995 0.475461 0.202681
v 0.119400 0.475461 0.209671
v 0.120995 0.475461 0.216661
v 0.125465 0.475461 0.222266
v 0.131925 0.475461 0.225377
v 0.139094 0.475461 0.225377
v 0.145554 0.475461 0.222266
v 0.150024 0.475461 0.216661
v 0.135510 0.473218 0.209671
v 0.135510 0.473218 0.209671
v 0.135510 0.473218 0.209671
v 0.135510 0.473218 0.209671
v 0.135510 0.473218 0.209671
v 0.135510 0.473218 0.209671
v 0.135510 0.473218 0.209671
v 0.135510 0.473218 0.209671
v 0.135510 0.473218 0.209671
v 0.135510 0.473218 0.209671
v 0.135510 0.473218 0.209671
v 0.135510 0.473218 0.209671
v 0.135510 0.473218 0.209671
v 0.135510 0.473218 0.209671
f 175 190 176
f 175 189 190
f 176 191 177
f 176 190 191
f 177 192 178
f 177 191 192
f 178 193 179
f 178 192 193
f 179 194 180
f 179 193 194
f 180 195 181
f 180 194 195
f 181 196 182
f 181 195 196
f 182 197 183
f 182 196 197
f 183 198 184
f 183 197 198
f 184 199 185
f 184 198 199
f 185 200 186
f 185 199 200
f 186 201 187
f 186 200 201
f 187 202 188
f 187 201 202
f 188 189 175
f 188 202 189
f 189 204 190
f 189 203 204
f 190 205 191
f 190 204 205
f 191 206 192
f 191 205 206
f 192 207 193
f 192 206 207
f 193 208 194
f 193 207 208
f 194 209 195
f 194 208 209
f 195 210 196
f 195 209 210
f 196 211 197
f 196 210 211
f 197 212 198
f 197 211 212
f 198 213 199
f 198 212 213
f 199 214 200
f 199 213 214
f 200 215 201
f 200 214 215
f 201 216 202
f 201 215 216
f 202 203 189
f 202 216 203
f 203 218 204
f 203 217 218
f 204 219 205
f 204 218 219
f 205 220 206
f 205 219 220
f 206 221 207
f 206 220 221
f 207 222 208
f 207 221 222
f 208 223 209
f 208 222 223
f 209 224 210
f 209 223 224
f 210 225 211
f 210 224 225
f 211 226 212
f 211 225 226
f 212 227 213
f 212 226 227
f 213 228 214
f 213 227 228
f 214 229 215
f 214 228 229
f 215 230 216
f 215 229 230
f 216 217 203
f 216 230 217
f 217 232 218
f 217 231 232
f 218 233 219
f 218 232 233
f 219 234 220
f 219 233 234
f 220 235 221
f 220 234 235
f 221 236 222
f 221 235 236
f 222 237 223
f 222 236 237
f 223 238 224
f 223 237 238
f 224 239 225
f 224 238 239
f 225 240 226
f 225 239 240
f 226 241 227
f 226 240 241
f 227 242 228
f 227 241 242
f 228 243 229
f 228 242 243
f 229 244 230
f 229 243 244
f 230 231 217
f 230 244 231
f 231 246 232
f 231 245 246
f 232 247 233
f 232 246 247
f 233 248 234
f 233 247 248
f 234 249 235
f 234 248 249
f 235 250 236
f 235 249 250
f 236 251 237
f 236 250 251
f 237 252 238
f 237 251 252
f 238 253 239
f 238 252 253
f 239 254 240
f 239 253 254
f 240 255 241
f 240 254 255
f 241 256 242
f 241 255 256
f 242 257 243
f 242 256 257
f 243 258 244
f 243 257 258
f 244 245 231
f 244 258 245
f 245 260 246
f 245 259 260
f 246 261 247
f 246 260 261
f 247 262 248
f 247 261 262
f 248 263 249
f 248 262 263
f 249 264 250
f 249 263 264
f 250 265 251
f 250 264 265
f 251 266 252
f 251 265 266
f 252 267 253
f 252 266 267
f 253 268 254
f 253 267 268
f 254 269 255
f 254 268 269
f 255 270 256
f 255 269 270
f 256 271 257
f 256 270 271
f 257 272 258
f 257 271 272
f 258 259 245
f 258 272 259
f 259 274 260
f 259 273 274
f 260 275 261
f 260 274 275
f 261 276 262
f 261 275 276
f 262 277 263
f 262 276 277
f 263 278 264
f 263 277 278
f 264 279 265
f 264 278 279
f 265 280 266
f 265 279 280
f 266 281 267
f 266 280 281
f 267 282 268
f 267 281 282
f 268 283 269
f 268 282 283
f 269 284 270
f 269 283 284
f 270 285 271
f 270 284 285
f 271 286 272
f 271 285 286
f 272 273 259
f 272 286 273
f 273 288 274
f 273 287 288
f 274 289 275
f 274 288 289
f 275 290 276
f 275 289 290
f 276 291 277
f 276 290 291
f 277 292 278
f 277 291 292
f 278 293 279
f 278 292 293
f 279 294 280
f 279 293 294
f 280 295 281
f 280 294 295
f 281 296 282
f 281 295 296
f 282 297 283
f 282 296 297
f 283 298 284
f 283 297 298
f 284 299 285
f 284 298 299
f 285 300 286
f 285 299 300
f 286 287 273
f 286 300 287
v 0.024701 0.347600 -0.042927
v 0.017466 0.382620 -0.030354
v 0.000000 0.397126 -0.000000
v -0.017466 0.382620 0.030354
v -0.024701 0.347600 0.042927
v -0.017466 0.312579 0.030354
v -0.000000 0.298074 0.000000
v 0.017466 0.312579 -0.030354
v 0.187012 0.347600 0.050470
v 0.179778 0.382620 0.063042
v 0.162312 0.397126 0.093396
v 0.144845 0.382620 0.123750
v 0.137611 0.347600 0.136323
v 0.144845 0.312579 0.123750
v 0.162312 0.298074 0.093396
v 0.179778 0.312579 0.063042
f 301 302 310
f 301 310 309
f 302 303 311
f 302 311 310
f 303 304 312
f 303 312 311
f 304 305 313
f 304 313 312
f 305 306 314
f 305 314 313
f 306 307 315
f 306 315 314
f 307 308 316
f 307 316 315
f 308 301 309
f 308 309 316
v 0.162312 0.347600 0.142923
v 0.197332 0.347600 0.128417
v 0.211838 0.347600 0.093396
v 0.197332 0.347600 0.058376
v 0.162312 0.347600 0.043870
v 0.127291 0.347600 0.058376
v 0.112785 0.347600 0.093396
v 0.127291 0.347600 0.128417
v 0.162312 0.549559 0.135494
v 0.192079 0.549559 0.123164
v 0.204409 0.549559 0.093396
v 0.192079 0.549559 0.063629
v 0.162312 0.549559 0.051299
v 0.132544 0.549559 0.063629
v 0.120214 0.549559 0.093396
v 0.132544 0.549559 0.123164
f 317 318 326
f 317 326 325
f 318 319 327
f 318 327 326
f 319 320 328
f 319 328 327
f 320 321 329
f 320 329 328
f 321 322 330
f 321 330 329
f 322 323 331
f 322 331 330
f 323 324 332
f 323 332 331
f 324 317 325
f 324 325 332
v 0.162312 0.579028 0.093396
v 0.162312 0.579028 0.093396
v 0.162312 0.579028 0.093396
v 0.162312 0.579028 0.093396
v 0.162312 0.579028 0.093396
v 0.162312 0.579028 0.093396
v 0.162312 0.579028 0.093396
v 0.162312 0.579028 0.093396
v 0.162312 0.579028 0.093396
v 0.162312 0.579028 0.093396
v 0.162312 0.579028 0.093396
v 0.162312 0.579028 0.093396
v 0.162312 0.579028 0.093396
v 0.162312 0.579028 0.093396
v 0.178421 0.576784 0.093396
v 0.176826 0.576784 0.086407
v 0.172356 0.576784 0.080801
v 0.165896 0.576784 0.077690
v 0.158727 0.576784 0.077690
v 0.152267 0.576784 0.080801
v 0.147797 0.576784 0.086407
v 0.146202 0.576784 0.093396
v 0.147797 0.576784 0.100386
v 0.152267 0.576784 0.105992
v 0.158727 0.576784 0.109102
v 0.165896 0.576784 0.109102
v 0.172356 0.576784 0.105992
v 0.176826 0.576784 0.100386
v 0.192079 0.570397 0.093396
v 0.189131 0.570397 0.080481
v 0.180871 0.570397 0.070123
v 0.168935 0.570397 0.064375
v 0.155688 0.570397 0.064375
v 0.143752 0.570397 0.070123
v 0.135492 0.570397 0.080481
v 0.132544 0.570397 0.093396
v 0.135492 0.570397 0.106312
v 0.143752 0.570397 0.116669
v 0.155688 0.570397 0.122417
v 0.168935 0.570397 0.122417
v 0.180871 0.570397 0.116669
v 0.189131 0.570397 0.106312
v 0.201204 0.560836 0.093396
v 0.197353 0.560836 0.076521
v 0.186561 0.560836 0.062989
v 0.170966 0.560836 0.055479
v 0.153657 0.560836 0.055479
v 0.138062 0.560836 0.062989
v 0.127270 0.560836 0.076521
v 0.123419 0.560836 0.093396
v 0.127270 0.560836 0.110271
v 0.138062 0.560836 0.123804
v 0.153657 0.560836 0.131314
v 0.170966 0.560836 0.131314
v 0.186561 0.560836 0.123804
v 0.197353 0.560836 0.110271
v 0.204409 0.549559 0.093396
v 0.200240 0.549559 0.075131
v 0.188559 0.549559 0.060483
v 0.171679 0.549559 0.052355
v 0.152944 0.549559 0.052355
v 0.136064 0.549559 0.060483
v 0.124383 0.549559 0.075131
v 0.120214 0.549559 0.093396
v 0.124383 0.549559 0.111662
v 0.136064 0.549559 0.126309
v 0.152944 0.549559 0.134438
v 0.171679 0.549559 0.134438
v 0.188559 0.549559 0.126309
v 0.200240 0.549559 0.111662
v 0.201204 0.538283 0.093396
v 0.197353 0.538283 0.076521
v 0.186561 0.538283 0.062989
v 0.170966 0.538283 0.055479
v 0.153657 0.538283 0.055479
v 0.138062 0.538283 0.062989
v 0.127270 0.538283 0.076521
v 0.123419 0.538283 0.093396
v 0.127270 0.538283 0.110271
v 0.138062 0.538283 0.123804
v 0.153657 0.538283 0.131314
v 0.170966 0.538283 0.131314
v 0.186561 0.538283 0.123804
v 0.197353 0.538283 0.110271
v 0.192079 0.528722 0.093396
v 0.189131 0.528722 0.080481
v 0.180871 0.528722 0.070123
v 0.168935 0.528722 0.064375
v 0.155688 0.528722 0.064375
v 0.143752 0.528722 0.070123
v 0.135492 0.528722 0.080481
v 0.132544 0.528722 0.093396
v 0.135492 0.528722 0.106312
v 0.143752 0.528722 0.116669
v 0.155688 0.528722 0.122417
v 0.168935 0.528722 0.122417
v 0.180871 0.528722 0.116669
v 0.189131 0.528722 0.106312
v 0.178421 0.522335 0.093396
v 0.176826 0.522335 0.086407
v 0.172356 0.522335 0.080801
v 0.165896 0.522335 0.077690
v 0.158727 0.522335 0.077690
v 0.152267 0.522335 0.080801
v 0.147797 0.522335 0.086407
v 0.146202 0.522335 0.093396
v 0.147797 0.522335 0.100386
v 0.152267 0.522335 0.105992
v 0.158727 0.522335 0.109102
v 0.165896 0.522335 0.109102
v 0.172356 0.522335 0.105992
v 0.176826 0.522335 0.100386
v 0.162312 0.520091 0.093396
v 0.162312 0.520091 0.093396
v 0.162312 0.520091 0.093396
v 0.162312 0.520091 0.093396
v 0.162312 0.520091 0.093396
v 0.162312 0.520091 0.093396
v 0.162312 0.520091 0.093396
v 0.162312 0.520091 0.093396
v 0.162312 0.520091 0.093396
v 0.162312 0.520091 0.093396
v 0.162312 0.520091 0.093396
v 0.162312 0.520091 0.093396
v 0.162312 0.520091 0.093396
v 0.162312 0.520091 0.093396
f 333 348 334
f 333 347 348
f 334 349 335
f 334 348 349
f 335 350 336
f 335 349 350
f 336 351 337
f 336 350 351
f 337 352 338
f 337 351 352
f 338 353 339
f 338 352 353
f 339 354 340
f 339 353 354
f 340 355 341
f 340 354 355
f 341 356 342
f 341 355 356
f 342 357 343
f 342 356 357
f 343 358 344
f 343 357 358
f 344 359 345
f 344 358 359
f 345 360 346
f 345 359 360
f 346 347 333
f 346 360 347
f 347 362 348
f 347 361 362
f 348 363 349
f 348 362 363
f 349 364 350
f 349 363 364
f 350 365 351
f 350 364 365
f 351 366 352
f 351 365 366
f 352 367 353
f 352 366 367
f 353 368 354
f 353 367 368
f 354 369 355
f 354 368 369
f 355 370 356
f 355 369 370
f 356 371 357
f 356 370 371
f 357 372 358
f 357 371 372
f 358 373 359
f 358 372 373
f 359 374 360
f 359 373 374
f 360 361 347
f 360 374 361
f 361 376 362
f 361 375 376
f 362 377 363
f 362 376 377
f 363 378 364
f 363 377 378
f 364 379 365
f 364 378 379
f 365 380 366
f 365 379 380
f 366 381 367
f 366 380 381
f 367 382 368
f 367 381 382
f 368 383 369
f 368 382 383
f 369 384 370
f 369 383 384
f 370 385 371
f 370 384 385
f 371 386 372
f 371 385 386
f 372 387 373
f 372 386 387
f 373 388 374
f 373 387 388
f 374 375 361
f 374 388 375
f 375 390 376
f 375 389 390
f 376 391 377
f 376 390 391
f 377 392 378
f 377 391 392
f 378 393 379
f 378 392 393
f 379 394 380
f 379 393 394
f 380 395 381
f 380 394 395
f 381 396 382
f 381 395 396
f 382 397 383
f 382 396 397
f 383 398 384
f 383 397 398
f 384 399 385
f 384 398 399
f 385 400 386
f 385 399 400
f 386 401 387
f 386 400 401
f 387 402 388
f 387 401 402
f 388 389 375
f 388 402 389
f 389 404 390
f 389 403 404
f 390 405 391
f 390 404 405
f 391 406 392
f 391 405 406
f 392 407 393
f 392 406 407
f 393 408 394
f 393 407 408
f 394 409 395
f 394 408 409
f 395 410 396
f 395 409 410
f 396 411 397
f 396 410 411
f 397 412 398
f 397 411 412
f 398 413 399
f 398 412 413
f 399 414 400
f 399 413 414
f 400 415 401
f 400 414 415
f 401 416 402
f 401 415 416
f 402 403 389
f 402 416 403
f 403 418 404
f 403 417 418
f 404 419 405
f 404 418 419
f 405 420 406
f 405 419 420
f 406 421 407
f 406 420 421
f 407 422 408
f 407 421 422
f 408 423 409
f 408 422 423
f 409 424 410
f 409 423 424
f 410 425 411
f 410 424 425
f 411 426 412
f 411 425 426
f 412 427 413
f 412 426 427
f 413 428 414
f 413 427 428
f 414 429 415
f 414 428 429
f 415 430 416
f 415 429 430
f 416 417 403
f 416 430 417
f 417 432 418
f 417 431 432
f 418 433 419
f 418 432 433
f 419 434 420
f 419 433 434
f 420 435 421
f 420 434 435
f 421 436 422
f 421 435 436
f 422 437 423
f 422 436 437
f 423 438 424
f 423 437 438
f 424 439 425
f 424 438 439
f 425 440 426
f 425 439 440
f 426 441 427
f 426 440 441
f 427 442 428
f 427 441 442
f 428 443 429
f 428 442 443
f 429 444 430
f 429 443 444
f 430 431 417
f 430 444 431
f 431 446 432
f 431 445 446
f 432 447 433
f 432 446 447
f 433 448 434
f 433 447 448
f 434 449 435
f 434 448 449
f 435 450 436
f 435 449 450
f 436 451 437
f 436 450 451
f 437 452 438
f 437 451 452
f 438 453 439
f 438 452 453
f 439 454 440
f 439 453 454
f 440 455 441
f 440 454 455
f 441 456 442
f 441 455 456
f 442 457 443
f 442 456 457
f 443 458 444
f 443 457 458
f 444 445 431
f 444 458 445
v -0.005571 0.291079 -0.049212
v -0.003939 0.326099 -0.034798
v -0.000000 0.340605 -0.000000
v 0.003939 0.326099 0.034798
v 0.005571 0.291079 0.049212
v 0.003939 0.256058 0.034798
v 0.000000 0.241553 0.000000
v -0.003939 0.256058 -0.034798
v 0.168686 0.291079 -0.068938
v 0.170318 0.326099 -0.054525
v 0.174257 0.340605 -0.019727
v 0.178196 0.326099 0.015071
v 0.179828 0.291079 0.029485
v 0.178196 0.256058 0.015071
v 0.174257 0.241553 -0.019727
v 0.170318 0.256058 -0.054525
f 459 460 468
f 459 468 467
f 460 461 469
f 460 469 468
f 461 462 470
f 461 470 469
f 462 463 471
f 462 471 470
f 463 464 472
f 463 472 471
f 464 465 473
f 464 473 472
f 465 466 474
f 465 474 473
f 466 459 467
f 466 467 474
v 0.174257 0.291079 0.029800
v 0.209277 0.291079 0.015294
v 0.223783 0.291079 -0.019727
v 0.209277 0.291079 -0.054747
v 0.174257 0.291079 -0.069253
v 0.139237 0.291079 -0.054747
v 0.124731 0.291079 -0.019727
v 0.139237 0.291079 0.015294
v 0.174257 0.597492 0.022371
v 0.204024 0.597492 0.010041
v 0.216354 0.597492 -0.019727
v 0.204024 0.597492 -0.049494
v 0.174257 0.597492 -0.061824
v 0.144490 0.597492 -0.049494
v 0.132160 0.597492 -0.019727
v 0.144490 0.597492 0.010041
f 475 476 484
f 475 484 483
f 476 477 485
f 476 485 484
f 477 478 486
f 477 486 485
f 478 479 487
f 478 487 486
f 479 480 488
f 479 488 487
f 480 481 489
f 480 489 488
f 481 482 490
f 481 490 489
f 482 475 483
f 482 483 490
v 0.174257 0.626960 -0.019727
v 0.174257 0.626960 -0.019727
v 0.174257 0.626960 -0.019727
v 0.174257 0.626960 -0.019727
v 0.174257 0.626960 -0.019727
v 0.174257 0.626960 -0.019727
v 0.174257 0.626960 -0.019727
v 0.174257 0.626960 -0.019727
v 0.174257 0.626960 -0.019727
v 0.174257 0.626960 -0.019727
v 0.174257 0.626960 -0.019727
v 0.174257 0.626960 -0.019727
v 0.174257 0.626960 -0.019727
v 0.174257 0.626960 -0.019727
v 0.190367 0.624717 -0.019727
v 0.188772 0.624717 -0.026716
v 0.184301 0.624717 -0.032322
v 0.177842 0.624717 -0.035433
v 0.170672 0.624717 -0.035433
v 0.164213 0.624717 -0.032322
v 0.159743 0.624717 -0.026716
v 0.158147 0.624717 -0.019727
v 0.159743 0.624717 -0.012737
v 0.164213 0.624717 -0.007131
v 0.170672 0.624717 -0.004021
v 0.177842 0.624717 -0.004021
v 0.184301 0.624717 -0.007131
v 0.188772 0.624717 -0.012737
v 0.204024 0.618329 -0.019727
v 0.201076 0.618329 -0.032642
v 0.192817 0.618329 -0.043000
v 0.180881 0.618329 -0.048747
v 0.167633 0.618329 -0.048747
v 0.155698 0.618329 -0.043000
v 0.147438 0.618329 -0.032642
v 0.144490 0.618329 -0.019727
v 0.147438 0.618329 -0.006811
v 0.155698 0.618329 0.003546
v 0.167633 0.618329 0.009294
v 0.180881 0.618329 0.009294
v 0.192817 0.618329 0.003546
v 0.201076 0.618329 -0.006811
v 0.213150 0.608769 -0.019727
v 0.209298 0.608769 -0.036601
v 0.198506 0.608769 -0.050134
v 0.182912 0.608769 -0.057644
v 0.165603 0.608769 -0.057644
v 0.150008 0.608769 -0.050134
v 0.139216 0.608769 -0.036601
v 0.135364 0.608769 -0.019727
v 0.139216 0.608769 -0.002852
v 0.150008 0.608769 0.010681
v 0.165603 0.608769 0.018191
v 0.182912 0.608769 0.018191
v 0.198506 0.608769 0.010681
v 0.209298 0.608769 -0.002852
v 0.216354 0.597492 -0.019727
v 0.212185 0.597492 -0.037992
v 0.200504 0.597492 -0.052640
v 0.183625 0.597492 -0.060768
v 0.164890 0.597492 -0.060768
v 0.148010 0.597492 -0.052640
v 0.136329 0.597492 -0.037992
v 0.132160 0.597492 -0.019727
v 0.136329 0.597492 -0.001461
v 0.148010 0.597492 0.013186
v 0.164890 0.597492 0.021315
v 0.183625 0.597492 0.021315
v 0.200504 0.597492 0.013186
v 0.212185 0.597492 -0.001461
v 0.213150 0.586215 -0.019727
v 0.209298 0.586215 -0.036601
v 0.198506 0.586215 -0.050134
v 0.182912 0.586215 -0.057644
v 0.165603 0.586215 -0.057644
v 0.150008 0.586215 -0.050134
v 0.139216 0.586215 -0.036601
v 0.135364 0.586215 -0.019727
v 0.139216 0.586215 -0.002852
v 0.150008 0.586215 0.010681
v 0.165603 0.586215 0.018191
v 0.182912 0.586215 0.018191
v 0.198506 0.586215 0.010681
v 0.209298 0.586215 -0.002852
v 0.204024 0.576655 -0.019727
v 0.201076 0.576655 -0.032642
v 0.192817 0.576655 -0.043000
v 0.180881 0.576655 -0.048747
v 0.167633 0.576655 -0.048747
v 0.155698 0.576655 -0.043000
v 0.147438 0.576655 -0.032642
v 0.144490 0.576655 -0.019727
v 0.147438 0.576655 -0.006811
v 0.155698 0.576655 0.003546
v 0.167633 0.576655 0.009294
v 0.180881 0.576655 0.009294
v 0.192817 0.576655 0.003546
v 0.201076 0.576655 -0.006811
v 0.190367 0.570267 -0.019727
v 0.188772 0.570267 -0.026716
v 0.184301 0.570267 -0.032322
v 0.177842 0.570267 -0.035433
v 0.170672 0.570267 -0.035433
v 0.164213 0.570267 -0.032322
v 0.159743 0.570267 -0.026716
v 0.158147 0.570267 -0.019727
v 0.159743 0.570267 -0.012737
v 0.164213 0.570267 -0.007131
v 0.170672 0.570267 -0.004021
v 0.177842 0.570267 -0.004021
v 0.184301 0.570267 -0.007131
v 0.188772 0.570267 -0.012737
v 0.174257 0.568024 -0.019727
v 0.174257 0.568024 -0.019727
v 0.174257 0.568024 -0.019727
v 0.174257 0.568024 -0.019727
v 0.174257 0.568024 -0.019727
v 0.174257 0.568024 -0.019727
v 0.174257 0.568024 -0.019727
v 0.174257 0.568024 -0.019727
v 0.174257 0.568024 -0.019727
v 0.174257 0.568024 -0.019727
v 0.174257 0.568024 -0.019727
v 0.174257 0.568024 -0.019727
v 0.174257 0.568024 -0.019727
v 0.174257 0.568024 -0.019727
f 491 506 492
f 491 505 506
f 492 507 493
f 492 506 507
f 493 508 494
f 493 507 508
f 494 509 495
f 494 508 509
f 495 510 496
f 495 509 510
f 496 511 497
f 496 510 511
f 497 512 498
f 497 511 512
f 498 513 499
f 498 512 513
f 499 514 500
f 499 513 514
f 500 515 501
f 500 514 515
f 501 516 502
f 501 515 516
f 502 517 503
f 502 516 517
f 503 518 504
f 503 517 518
f 504 505 491
f 504 518 505
f 505 520 506
f 505 519 520
f 506 521 507
f 506 520 521
f 507 522 508
f 507 521 522
f 508 523 509
f 508 522 523
f 509 524 510
f 509 523 524
f 510 525 511
f 510 524 525
f 511 526 512
f 511 525 526
f 512 527 513
f 512 526 527
f 513 528 514
f 513 527 528
f 514 529 515
f 514 528 529
f 515 530 516
f 515 529 530
f 516 531 517
f 516 530 531
f 517 532 518
f 517 531 532
f 518 519 505
f 518 532 519
f 519 534 520
f 519 533 534
f 520 535 521
f 520 534 535
f 521 536 522
f 521 535 536
f 522 537 523
f 522 536 537
f 523 538 524
f 523 537 538
f 524 539 525
f 524 538 539
f 525 540 526
f 525 539 540
f 526 541 527
f 526 540 541
f 527 542 528
f 527 541 542
f 528 543 529
f 528 542 543
f 529 544 530
f 529 543 544
f 530 545 531
f 530 544 545
f 531 546 532
f 531 545 546
f 532 533 519
f 532 546 533
f 533 548 534
f 533 547 548
f 534 549 535
f 534 548 549
f 535 550 536
f 535 549 550
f 536 551 537
f 536 550 551
f 537 552 538
f 537 551 552
f 538 553 539
f 538 552 553
f 539 554 540
f 539 553 554
f 540 555 541
f 540 554 555
f 541 556 542
f 541 555 556
f 542 557 543
f 542 556 557
f 543 558 544
f 543 557 558
f 544 559 545
f 544 558 559
f 545 560 546
f 545 559 560
f 546 547 533
f 546 560 547
f 547 562 548
f 547 561 562
f 548 563 549
f 548 562 563
f 549 564 550
f 549 563 564
f 550 565 551
f 550 564 565
f 551 566 552
f 551 565 566
f 552 567 553
f 552 566 567
f 553 568 554
f 553 567 568
f 554 569 555
f 554 568 569
f 555 570 556
f 555 569 570
f 556 571 557
f 556 570 571
f 557 572 558
f 557 571 572
f 558 573 559
f 558 572 573
f 559 574 560
f 559 573 574
f 560 561 547
f 560 574 561
f 561 576 562
f 561 575 576
f 562 577 563
f 562 576 577
f 563 578 564
f 563 577 578
f 564 579 565
f 564 578 579
f 565 580 566
f 565 579 580
f 566 581 567
f 566 580 581
f 567 582 568
f 567 581 582
f 568 583 569
f 568 582 583
f 569 584 570
f 569 583 584
f 570 585 571
f 570 584 585
f 571 586 572
f 571 585 586
f 572 587 573
f 572 586 587
f 573 588 574
f 573 587 588
f 574 575 561
f 574 588 575
f 575 590 576
f 575 589 590
f 576 591 577
f 576 590 591
f 577 592 578
f 577 591 592
f 578 593 579
f 578 592 593
f 579 594 580
f 579 593 594
f 580 595 581
f 580 594 595
f 581 596 582
f 581 595 596
f 582 597 583
f 582 596 597
f 583 598 584
f 583 597 598
f 584 599 585
f 584 598 599
f 585 600 586
f 585 599 600
f 586 601 587
f 586 600 601
f 587 602 588
f 587 601 602
f 588 589 575
f 588 602 589
f 589 604 590
f 589 603 604
f 590 605 591
f 590 604 605
f 591 606 592
f 591 605 606
f 592 607 593
f 592 606 607
f 593 608 594
f 593 607 608
f 594 609 595
f 594 608 609
f 595 610 596
f 595 609 610
f 596 611 597
f 596 610 611
f 597 612 598
f 597 611 612
f 598 613 599
f 598 612 613
f 599 614 600
f 599 613 614
f 600 615 601
f 600 614 615
f 601 616 602
f 601 615 616
f 602 603 589
f 602 616 603
