o mesh
v 0.000000 0.300836 -0.000000
v 0.000000 0.300836 -0.000000
v 0.000000 0.300836 -0.000000
v 0.000000 0.300836 -0.000000
v 0.000000 0.300836 -0.000000
v 0.000000 0.300836 -0.000000
v 0.000000 0.300836 -0.000000
v 0.000000 0.300836 -0.000000
v 0.000000 0.300836 -0.000000
v 0.000000 0.300836 -0.000000
v 0.000000 0.300836 -0.000000
v 0.000000 0.300836 -0.000000
v 0.000000 0.300836 -0.000000
v 0.000000 0.300836 -0.000000
v 0.071337 0.289288 -0.000000
v 0.064273 0.289288 -0.030952
v 0.044478 0.289288 -0.055774
v 0.015874 0.289288 -0.069549
v -0.015874 0.289288 -0.069549
v -0.044478 0.289288 -0.055774
v -0.064273 0.289288 -0.030952
v -0.071337 0.289288 -0.000000
v -0.064273 0.289288 0.030952
v -0.044478 0.289288 0.055774
v -0.015874 0.289288 0.069549
v 0.015874 0.289288 0.069549
v 0.044478 0.289288 0.055774
v 0.064273 0.289288 0.030952
v 0.131814 0.256402 -0.000000
v 0.118760 0.256402 -0.057192
v 0.082185 0.256402 -0.103056
v 0.029331 0.256402 -0.128509
v -0.029331 0.256402 -0.128509
v -0.082185 0.256402 -0.103056
v -0.118760 0.256402 -0.057192
v -0.131814 0.256402 -0.000000
v -0.118760 0.256402 0.057192
v -0.082185 0.256402 0.103056
v -0.029331 0.256402 0.128509
v 0.029331 0.256402 0.128509
v 0.082185 0.256402 0.103056
v 0.118760 0.256402 0.057192
v 0.172223 0.207186 -0.000000
v 0.155168 0.207186 -0.074725
v 0.107379 0.207186 -0.134649
v 0.038323 0.207186 -0.167905
v -0.038323 0.207186 -0.167905
v -0.107379 0.207186 -0.134649
v -0.155168 0.207186 -0.074725
v -0.172223 0.207186 -0.000000
v -0.155168 0.207186 0.074725
v -0.107379 0.207186 0.134649
v -0.038323 0.207186 0.167905
v 0.038323 0.207186 0.167905
v 0.107379 0.207186 0.134649
v 0.155168 0.207186 0.074725
v 0.186413 0.149130 -0.000000
v 0.167952 0.149130 -0.080882
v 0.116227 0.149130 -0.145743
v 0.041481 0.149130 -0.181739
v -0.041481 0.149130 -0.181739
v -0.116227 0.149130 -0.145743
v -0.167952 0.149130 -0.080882
v -0.186413 0.149130 -0.000000
v -0.167952 0.149130 0.080882
v -0.116227 0.149130 0.145743
v -0.041481 0.149130 0.181739
v 0.041481 0.149130 0.181739
v 0.116227 0.149130 0.145743
v 0.167952 0.149130 0.080882
v 0.172223 0.091075 -0.000000
v 0.155168 0.091075 -0.074725
v 0.107379 0.091075 -0.134649
v 0.038323 0.091075 -0.167905
v -0.038323 0.091075 -0.167905
v -0.107379 0.091075 -0.134649
v -0.155168 0.091075 -0.074725
v -0.172223 0.091075 -0.000000
v -0.155168 0.091075 0.074725
v -0.107379 0.091075 0.134649
v -0.038323 0.091075 0.167905
v 0.038323 0.091075 0.167905
v 0.107379 0.091075 0.134649
v 0.155168 0.091075 0.074725
v 0.131814 0.041858 -0.000000
v 0.118760 0.041858 -0.057192
v 0.082185 0.041858 -0.103056
v 0.029331 0.041858 -0.128509
v -0.029331 0.041858 -0.128509
v -0.082185 0.041858 -0.103056
v -0.118760 0.041858 -0.057192
v -0.131814 0.041858 -0.000000
v -0.118760 0.041858 0.057192
v -0.082185 0.041858 0.103056
v -0.029331 0.041858 0.128509
v 0.029331 0.041858 0.128509
v 0.082185 0.041858 0.103056
v 0.118760 0.041858 0.057192
v 0.071337 0.008973 -0.000000
v 0.064273 0.008973 -0.030952
v 0.044478 0.008973 -0.055774
v 0.015874 0.008973 -0.069549
v -0.015874 0.008973 -0.069549
v -0.044478 0.008973 -0.055774
v -0.064273 0.008973 -0.030952
v -0.071337 0.008973 -0.000000
v -0.064273 0.008973 0.030952
v -0.044478 0.008973 0.055774
v -0.015874 0.008973 0.069549
v 0.015874 0.008973 0.069549
v 0.044478 0.008973 0.055774
v 0.064273 0.008973 0.030952
v 0.000000 -0.002575 -0.000000
v 0.000000 -0.002575 -0.000000
v 0.000000 -0.002575 -0.000000
v 0.000000 -0.002575 -0.000000
v -0.000000 -0.002575 -0.000000
v -0.000000 -0.002575 -0.000000
v -0.000000 -0.002575 -0.000000
v -0.000000 -0.002575 -0.000000
v -0.000000 -0.002575 0.000000
v -0.000000 -0.002575 0.000000
v -0.000000 -0.002575 0.000000
v 0.000000 -0.002575 0.000000
v 0.000000 -0.002575 0.000000
v 0.000000 -0.002575 0.000000
f 1 16 2
f 1 15 16
f 2 17 3
f 2 16 17
f 3 18 4
f 3 17 18
f 4 19 5
f 4 18 19
f 5 20 6
f 5 19 20
f 6 21 7
f 6 20 21
f 7 22 8
f 7 21 22
f 8 23 9
f 8 22 23
f 9 24 10
f 9 23 24
f 10 25 11
f 10 24 25
f 11 26 12
f 11 25 26
f 12 27 13
f 12 26 27
f 13 28 14
f 13 27 28
f 14 15 1
f 14 28 15
f 15 30 16
f 15 29 30
f 16 31 17
f 16 30 31
f 17 32 18
f 17 31 32
f 18 33 19
f 18 32 33
f 19 34 20
f 19 33 34
f 20 35 21
f 20 34 35
f 21 36 22
f 21 35 36
f 22 37 23
f 22 36 37
f 23 38 24
f 23 37 38
f 24 39 25
f 24 38 39
f 25 40 26
f 25 39 40
f 26 41 27
f 26 40 41
f 27 42 28
f 27 41 42
f 28 29 15
f 28 42 29
f 29 44 30
f 29 43 44
f 30 45 31
f 30 44 45
f 31 46 32
f 31 45 46
f 32 47 33
f 32 46 47
f 33 48 34
f 33 47 48
f 34 49 35
f 34 48 49
f 35 50 36
f 35 49 50
f 36 51 37
f 36 50 51
f 37 52 38
f 37 51 52
f 38 53 39
f 38 52 53
f 39 54 40
f 39 53 54
f 40 55 41
f 40 54 55
f 41 56 42
f 41 55 56
f 42 43 29
f 42 56 43
f 43 58 44
f 43 57 58
f 44 59 45
f 44 58 59
f 45 60 46
f 45 59 60
f 46 61 47
f 46 60 61
f 47 62 48
f 47 61 62
f 48 63 49
f 48 62 63
f 49 64 50
f 49 63 64
f 50 65 51
f 50 64 65
f 51 66 52
f 51 65 66
f 52 67 53
f 52 66 67
f 53 68 54
f 53 67 68
f 54 69 55
f 54 68 69
f 55 70 56
f 55 69 70
f 56 57 43
f 56 70 57
f 57 72 58
f 57 71 72
f 58 73 59
f 58 72 73
f 59 74 60
f 59 73 74
f 60 75 61
f 60 74 75
f 61 76 62
f 61 75 76
f 62 77 63
f 62 76 77
f 63 78 64
f 63 77 78
f 64 79 65
f 64 78 79
f 65 80 66
f 65 79 80
f 66 81 67
f 66 80 81
f 67 82 68
f 67 81 82
f 68 83 69
f 68 82 83
f 69 84 70
f 69 83 84
f 70 71 57
f 70 84 71
f 71 86 72
f 71 85 86
f 72 87 73
f 72 86 87
f 73 88 74
f 73 87 88
f 74 89 75
f 74 88 89
f 75 90 76
f 75 89 90
f 76 91 77
f 76 90 91
f 77 92 78
f 77 91 92
f 78 93 79
f 78 92 93
f 79 94 80
f 79 93 94
f 80 95 81
f 80 94 95
f 81 96 82
f 81 95 96
f 82 97 83
f 82 96 97
f 83 98 84
f 83 97 98
f 84 85 71
f 84 98 85
f 85 100 86
f 85 99 100
f 86 101 87
f 86 100 101
f 87 102 88
f 87 101 102
f 88 103 89
f 88 102 103
f 89 104 90
f 89 103 104
f 90 105 91
f 90 104 105
f 91 106 92
f 91 105 106
f 92 107 93
f 92 106 107
f 93 108 94
f 93 107 108
f 94 109 95
f 94 108 109
f 95 110 96
f 95 109 110
f 96 111 97
f 96 110 111
f 97 112 98
f 97 111 112
f 98 99 85
f 98 112 99
f 99 114 100
f 99 113 114
f 100 115 101
f 100 114 115
f 101 116 102
f 101 115 116
f 102 117 103
f 102 116 117
f 103 118 104
f 103 117 118
f 104 119 105
f 104 118 119
f 105 120 106
f 105 119 120
f 106 121 107
f 106 120 121
f 107 122 108
f 107 121 122
f 108 123 109
f 108 122 123
f 109 124 110
f 109 123 124
f 110 125 111
f 110 124 125
f 111 126 112
f 111 125 126
f 112 113 99
f 112 126 113
v 0.093206 0.307581 -0.000000
v 0.088027 0.307581 -0.004613
v 0.080494 0.307581 -0.008460
v 0.073603 0.307581 -0.011658
v 0.068227 0.307581 -0.014502
v 0.064589 0.307581 -0.017307
v 0.062681 0.307581 -0.020366
v 0.062426 0.307581 -0.023963
v 0.063721 0.307581 -0.028370
v 0.066398 0.307581 -0.033832
v 0.070094 0.307581 -0.040469
v 0.073927 0.307581 -0.048009
v 0.075406 0.307581 -0.054785
v 0.068504 0.307581 -0.055473
v 0.060148 0.307581 -0.054158
v 0.052694 0.307581 -0.052694
v 0.046673 0.307581 -0.051835
v 0.042081 0.307581 -0.051966
v 0.038739 0.307581 -0.053320
v 0.036419 0.307581 -0.056080
v 0.034876 0.307581 -0.060406
v 0.033832 0.307581 -0.066398
v 0.032920 0.307581 -0.073940
v 0.031589 0.307581 -0.082293
v 0.028802 0.307581 -0.088645
v 0.022814 0.307581 -0.085144
v 0.016828 0.307581 -0.079169
v 0.011658 0.307581 -0.073603
v 0.007291 0.307581 -0.069369
v 0.003500 0.307581 -0.066776
v 0.000000 0.307581 -0.065907
v -0.003500 0.307581 -0.066776
v -0.007291 0.307581 -0.069369
v -0.011658 0.307581 -0.073603
v -0.016828 0.307581 -0.079169
v -0.022814 0.307581 -0.085144
v -0.028802 0.307581 -0.088645
v -0.031589 0.307581 -0.082293
v -0.032920 0.307581 -0.073940
v -0.033832 0.307581 -0.066398
v -0.034876 0.307581 -0.060406
v -0.036419 0.307581 -0.056080
v -0.038739 0.307581 -0.053320
v -0.042081 0.307581 -0.051966
v -0.046673 0.307581 -0.051835
v -0.052694 0.307581 -0.052694
v -0.060148 0.307581 -0.054158
v -0.068504 0.307581 -0.055473
v -0.075406 0.307581 -0.054785
v -0.073927 0.307581 -0.048009
v -0.070094 0.307581 -0.040469
v -0.066398 0.307581 -0.033832
v -0.063721 0.307581 -0.028370
v -0.062426 0.307581 -0.023963
v -0.062681 0.307581 -0.020366
v -0.064589 0.307581 -0.017307
v -0.068227 0.307581 -0.014502
v -0.073603 0.307581 -0.011658
v -0.080494 0.307581 -0.008460
v -0.088027 0.307581 -0.004613
v -0.093206 0.307581 -0.000000
v -0.088027 0.307581 0.004613
v -0.080494 0.307581 0.008460
v -0.073603 0.307581 0.011658
v -0.068227 0.307581 0.014502
v -0.064589 0.307581 0.017307
v -0.062681 0.307581 0.020366
v -0.062426 0.307581 0.023963
v -0.063721 0.307581 0.028370
v -0.066398 0.307581 0.033832
v -0.070094 0.307581 0.040469
v -0.073927 0.307581 0.048009
v -0.075406 0.307581 0.054785
v -0.068504 0.307581 0.055473
v -0.060148 0.307581 0.054158
v -0.052694 0.307581 0.052694
v -0.046673 0.307581 0.051835
v -0.042081 0.307581 0.051966
v -0.038739 0.307581 0.053320
v -0.036419 0.307581 0.056080
v -0.034876 0.307581 0.060406
v -0.033832 0.307581 0.066398
v -0.032920 0.307581 0.073940
v -0.031589 0.307581 0.082293
v -0.028802 0.307581 0.088645
v -0.022814 0.307581 0.085144
v -0.016828 0.307581 0.079169
v -0.011658 0.307581 0.073603
v -0.007291 0.307581 0.069369
v -0.003500 0.307581 0.066776
v -0.000000 0.307581 0.065907
v 0.003500 0.307581 0.066776
v 0.007291 0.307581 0.069369
v 0.011658 0.307581 0.073603
v 0.016828 0.307581 0.079169
v 0.022814 0.307581 0.085144
v 0.028802 0.307581 0.088645
v 0.031589 0.307581 0.082293
v 0.032920 0.307581 0.073940
v 0.033832 0.307581 0.066398
v 0.034876 0.307581 0.060406
v 0.036419 0.307581 0.056080
v 0.038739 0.307581 0.053320
v 0.042081 0.307581 0.051966
v 0.046673 0.307581 0.051835
v 0.052694 0.307581 0.052694
v 0.060148 0.307581 0.054158
v 0.068504 0.307581 0.055473
v 0.075406 0.307581 0.054785
v 0.073927 0.307581 0.048009
v 0.070094 0.307581 0.040469
v 0.066398 0.307581 0.033832
v 0.063721 0.307581 0.028370
v 0.062426 0.307581 0.023963
v 0.062681 0.307581 0.020366
v 0.064589 0.307581 0.017307
v 0.068227 0.307581 0.014502
v 0.073603 0.307581 0.011658
v 0.080494 0.307581 0.008460
v 0.088027 0.307581 0.004613
v 0.000000 0.307581 -0.000000
f 247 127 128
f 247 128 127
f 247 128 129
f 247 129 128
f 247 129 130
f 247 130 129
f 247 130 131
f 247 131 130
f 247 131 132
f 247 132 131
f 247 132 133
f 247 133 132
f 247 133 134
f 247 134 133
f 247 134 135
f 247 135 134
f 247 135 136
f 247 136 135
f 247 136 137
f 247 137 136
f 247 137 138
f 247 138 137
f 247 138 139
f 247 139 138
f 247 139 140
f 247 140 139
f 247 140 141
f 247 141 140
f 247 141 142
f 247 142 141
f 247 142 143
f 247 143 142
f 247 143 144
f 247 144 143
f 247 144 145
f 247 145 144
f 247 145 146
f 247 146 145
f 247 146 147
f 247 147 146
f 247 147 148
f 247 148 147
f 247 148 149
f 247 149 148
f 247 149 150
f 247 150 149
f 247 150 151
f 247 151 150
f 247 151 152
f 247 152 151
f 247 152 153
f 247 153 152
f 247 153 154
f 247 154 153
f 247 154 155
f 247 155 154
f 247 155 156
f 247 156 155
f 247 156 157
f 247 157 156
f 247 157 158
f 247 158 157
f 247 158 159
f 247 159 158
f 247 159 160
f 247 160 159
f 247 160 161
f 247 161 160
f 247 161 162
f 247 162 161
f 247 162 163
f 247 163 162
f 247 163 164
f 247 164 163
f 247 164 165
f 247 165 164
f 247 165 166
f 247 166 165
f 247 166 167
f 247 167 166
f 247 167 168
f 247 168 167
f 247 168 169
f 247 169 168
f 247 169 170
f 247 170 169
f 247 170 171
f 247 171 170
f 247 171 172
f 247 172 171
f 247 172 173
f 247 173 172
f 247 173 174
f 247 174 173
f 247 174 175
f 247 175 174
f 247 175 176
f 247 176 175
f 247 176 177
f 247 177 176
f 247 177 178
f 247 178 177
f 247 178 179
f 247 179 178
f 247 179 180
f 247 180 179
f 247 180 181
f 247 181 180
f 247 181 182
f 247 182 181
f 247 182 183
f 247 183 182
f 247 183 184
f 247 184 183
f 247 184 185
f 247 185 184
f 247 185 186
f 247 186 185
f 247 186 187
f 247 187 186
f 247 187 188
f 247 188 187
f 247 188 189
f 247 189 188
f 247 189 190
f 247 190 189
f 247 190 191
f 247 191 190
f 247 191 192
f 247 192 191
f 247 192 193
f 247 193 192
f 247 193 194
f 247 194 193
f 247 194 195
f 247 195 194
f 247 195 196
f 247 196 195
f 247 196 197
f 247 197 196
f 247 197 198
f 247 198 197
f 247 198 199
f 247 199 198
f 247 199 200
f 247 200 199
f 247 200 201
f 247 201 200
f 247 201 202
f 247 202 201
f 247 202 203
f 247 203 202
f 247 203 204
f 247 204 203
f 247 204 205
f 247 205 204
f 247 205 206
f 247 206 205
f 247 206 207
f 247 207 206
f 247 207 208
f 247 208 207
f 247 208 209
f 247 209 208
f 247 209 210
f 247 210 209
f 247 210 211
f 247 211 210
f 247 211 212
f 247 212 211
f 247 212 213
f 247 213 212
f 247 213 214
f 247 214 213
f 247 214 215
f 247 215 214
f 247 215 216
f 247 216 215
f 247 216 217
f 247 217 216
f 247 217 218
f 247 218 217
f 247 218 219
f 247 219 218
f 247 219 220
f 247 220 219
f 247 220 221
f 247 221 220
f 247 221 222
f 247 222 221
f 247 222 223
f 247 223 222
f 247 223 224
f 247 224 223
f 247 224 225
f 247 225 224
f 247 225 226
f 247 226 225
f 247 226 227
f 247 227 226
f 247 227 228
f 247 228 227
f 247 228 229
f 247 229 228
f 247 229 230
f 247 230 229
f 247 230 231
f 247 231 230
f 247 231 232
f 247 232 231
f 247 232 233
f 247 233 232
f 247 233 234
f 247 234 233
f 247 234 235
f 247 235 234
f 247 235 236
f 247 236 235
f 247 236 237
f 247 237 236
f 247 237 238
f 247 238 237
f 247 238 239
f 247 239 238
f 247 239 240
f 247 240 239
f 247 240 241
f 247 241 240
f 247 241 242
f 247 242 241
f 247 242 243
f 247 243 242
f 247 243 244
f 247 244 243
f 247 244 245
f 247 245 244
f 247 245 246
f 247 246 245
f 247 246 127
f 247 127 246
