o mesh
v 0.000000 0.030000 -0.000000
v 0.007459 0.046762 -0.017361
v 0.015886 0.063525 -0.034759
v 0.024421 0.080287 -0.052161
v 0.032703 0.097050 -0.069554
v 0.040457 0.113812 -0.086926
v 0.047450 0.130575 -0.104269
v 0.053482 0.147337 -0.121574
v 0.058383 0.164100 -0.138835
v 0.062017 0.180862 -0.156047
v 0.064278 0.197625 -0.173206
v 0.065096 0.214387 -0.190308
v 0.064433 0.231150 -0.207353
v 0.062291 0.247912 -0.224341
v 0.058705 0.264674 -0.241272
v 0.053747 0.281437 -0.258150
v 0.047520 0.298199 -0.274979
v 0.040164 0.314962 -0.291764
v 0.031846 0.331724 -0.308511
v 0.022768 0.348487 -0.325229
v 0.013161 0.365249 -0.341927
v 0.003301 0.382012 -0.358614
v -0.006451 0.398774 -0.375306
v -0.015235 0.415537 -0.392036
v -0.022693 0.398774 -0.374675
v -0.031121 0.382012 -0.357277
v -0.039656 0.365249 -0.339874
v -0.047938 0.348487 -0.322482
v -0.055692 0.331724 -0.305110
v -0.062684 0.314962 -0.287767
v -0.068716 0.298199 -0.270462
v -0.073618 0.281437 -0.253201
v -0.077252 0.264674 -0.235989
v -0.079513 0.247912 -0.218830
v -0.080330 0.231150 -0.201728
v -0.079668 0.214387 -0.184683
v -0.077526 0.197625 -0.167695
v -0.073940 0.180862 -0.150764
v -0.068981 0.164100 -0.133886
v -0.062755 0.147337 -0.117057
v -0.055398 0.130575 -0.100272
v -0.047081 0.113812 -0.083524
v -0.038002 0.097050 -0.066806
v -0.028396 0.080287 -0.050109
v -0.018536 0.063525 -0.033421
v -0.008784 0.046762 -0.016729
f 1 2 3
f 1 3 2
f 1 3 4
f 1 4 3
f 1 4 5
f 1 5 4
f 1 5 6
f 1 6 5
f 1 6 7
f 1 7 6
f 1 7 8
f 1 8 7
f 1 8 9
f 1 9 8
f 1 9 10
f 1 10 9
f 1 10 11
f 1 11 10
f 1 11 12
f 1 12 11
f 1 12 13
f 1 13 12
f 1 13 14
f 1 14 13
f 1 14 15
f 1 15 14
f 1 15 16
f 1 16 15
f 1 16 17
f 1 17 16
f 1 17 18
f 1 18 17
f 1 18 19
f 1 19 18
f 1 19 20
f 1 20 19
f 1 20 21
f 1 21 20
f 1 21 22
f 1 22 21
f 1 22 23
f 1 23 22
f 1 23 24
f 1 24 23
f 1 24 25
f 1 25 24
f 1 25 26
f 1 26 25
f 1 26 27
f 1 27 26
f 1 27 28
f 1 28 27
f 1 28 29
f 1 29 28
f 1 29 30
f 1 30 29
f 1 30 31
f 1 31 30
f 1 31 32
f 1 32 31
f 1 32 33
f 1 33 32
f 1 33 34
f 1 34 33
f 1 34 35
f 1 35 34
f 1 35 36
f 1 36 35
f 1 36 37
f 1 37 36
f 1 37 38
f 1 38 37
f 1 38 39
f 1 39 38
f 1 39 40
f 1 40 39
f 1 40 41
f 1 41 40
f 1 41 42
f 1 42 41
f 1 42 43
f 1 43 42
f 1 43 44
f 1 44 43
f 1 44 45
f 1 45 44
f 1 45 46
f 1 46 45
v 0.000000 0.030000 -0.000000
v 0.020394 0.048185 -0.002655
v 0.039637 0.066370 -0.006351
v 0.058239 0.084555 -0.010626
v 0.076194 0.102740 -0.015486
v 0.093438 0.120925 -0.020988
v 0.109895 0.139110 -0.027201
v 0.125489 0.157296 -0.034195
v 0.140152 0.175481 -0.042030
v 0.153824 0.193666 -0.050761
v 0.166462 0.211851 -0.060426
v 0.178033 0.230036 -0.071055
v 0.188524 0.248221 -0.082662
v 0.197932 0.266406 -0.095246
v 0.206275 0.284591 -0.108793
v 0.213583 0.302776 -0.123276
v 0.219901 0.320961 -0.138654
v 0.225287 0.339146 -0.154873
v 0.229811 0.357331 -0.171873
v 0.233547 0.375516 -0.189583
v 0.236573 0.393702 -0.207937
v 0.238951 0.411887 -0.226875
v 0.240688 0.430072 -0.246392
v 0.241274 0.448257 -0.266950
v 0.220881 0.430072 -0.264295
v 0.201637 0.411887 -0.260600
v 0.183035 0.393702 -0.256325
v 0.165081 0.375516 -0.251465
v 0.147836 0.357331 -0.245962
v 0.131379 0.339146 -0.239749
v 0.115785 0.320961 -0.232755
v 0.101123 0.302776 -0.224920
v 0.087450 0.284591 -0.216189
v 0.074813 0.266406 -0.206524
v 0.063241 0.248221 -0.195895
v 0.052751 0.230036 -0.184288
v 0.043342 0.211851 -0.171704
v 0.034999 0.193666 -0.158157
v 0.027691 0.175481 -0.143674
v 0.021373 0.157296 -0.128297
v 0.015987 0.139110 -0.112077
v 0.011464 0.120925 -0.095078
v 0.007728 0.102740 -0.077367
v 0.004702 0.084555 -0.059014
v 0.002323 0.066370 -0.040076
v 0.000587 0.048185 -0.020558
f 47 48 49
f 47 49 48
f 47 49 50
f 47 50 49
f 47 50 51
f 47 51 50
f 47 51 52
f 47 52 51
f 47 52 53
f 47 53 52
f 47 53 54
f 47 54 53
f 47 54 55
f 47 55 54
f 47 55 56
f 47 56 55
f 47 56 57
f 47 57 56
f 47 57 58
f 47 58 57
f 47 58 59
f 47 59 58
f 47 59 60
f 47 60 59
f 47 60 61
f 47 61 60
f 47 61 62
f 47 62 61
f 47 62 63
f 47 63 62
f 47 63 64
f 47 64 63
f 47 64 65
f 47 65 64
f 47 65 66
f 47 66 65
f 47 66 67
f 47 67 66
f 47 67 68
f 47 68 67
f 47 68 69
f 47 69 68
f 47 69 70
f 47 70 69
f 47 70 71
f 47 71 70
f 47 71 72
f 47 72 71
f 47 72 73
f 47 73 72
f 47 73 74
f 47 74 73
f 47 74 75
f 47 75 74
f 47 75 76
f 47 76 75
f 47 76 77
f 47 77 76
f 47 77 78
f 47 78 77
f 47 78 79
f 47 79 78
f 47 79 80
f 47 80 79
f 47 80 81
f 47 81 80
f 47 81 82
f 47 82 81
f 47 82 83
f 47 83 82
f 47 83 84
f 47 84 83
f 47 84 85
f 47 85 84
f 47 85 86
f 47 86 85
f 47 86 87
f 47 87 86
f 47 87 88
f 47 88 87
f 47 88 89
f 47 89 88
f 47 89 90
f 47 90 89
f 47 90 91
f 47 91 90
f 47 91 92
f 47 92 91
v 0.000000 0.030000 -0.000000
v 0.009485 0.051482 0.003546
v 0.019431 0.072964 0.009449
v 0.029567 0.094445 0.016316
v 0.039772 0.115927 0.023534
v 0.049955 0.137409 0.030643
v 0.060040 0.158891 0.037253
v 0.069961 0.180373 0.043025
v 0.079662 0.201854 0.047672
v 0.089095 0.223336 0.050957
v 0.098225 0.244818 0.052696
v 0.107028 0.266300 0.052768
v 0.115492 0.287782 0.051108
v 0.123616 0.309263 0.047717
v 0.131414 0.330745 0.042658
v 0.138908 0.352227 0.036054
v 0.146135 0.373709 0.028088
v 0.153141 0.395191 0.018996
v 0.159983 0.416673 0.009067
v 0.166728 0.438154 -0.001361
v 0.173450 0.459636 -0.011899
v 0.180242 0.481118 -0.022085
v 0.187223 0.502600 -0.031308
v 0.194666 0.524082 -0.038173
v 0.185181 0.502600 -0.041719
v 0.175234 0.481118 -0.047622
v 0.165099 0.459636 -0.054489
v 0.154894 0.438154 -0.061707
v 0.144711 0.416673 -0.068816
v 0.134625 0.395191 -0.075426
v 0.124704 0.373709 -0.081198
v 0.115004 0.352227 -0.085845
v 0.105571 0.330745 -0.089130
v 0.096440 0.309263 -0.090869
v 0.087637 0.287782 -0.090941
v 0.079173 0.266300 -0.089281
v 0.071049 0.244818 -0.085890
v 0.063252 0.223336 -0.080831
v 0.055758 0.201854 -0.074227
v 0.048531 0.180373 -0.066261
v 0.041525 0.158891 -0.057169
v 0.034682 0.137409 -0.047240
v 0.027938 0.115927 -0.036812
v 0.021215 0.094445 -0.026274
v 0.014424 0.072964 -0.016088
v 0.007443 0.051482 -0.006865
f 93 94 95
f 93 95 94
f 93 95 96
f 93 96 95
f 93 96 97
f 93 97 96
f 93 97 98
f 93 98 97
f 93 98 99
f 93 99 98
f 93 99 100
f 93 100 99
f 93 100 101
f 93 101 100
f 93 101 102
f 93 102 101
f 93 102 103
f 93 103 102
f 93 103 104
f 93 104 103
f 93 104 105
f 93 105 104
f 93 105 106
f 93 106 105
f 93 106 107
f 93 107 106
f 93 107 108
f 93 108 107
f 93 108 109
f 93 109 108
f 93 109 110
f 93 110 109
f 93 110 111
f 93 111 110
f 93 111 112
f 93 112 111
f 93 112 113
f 93 113 112
f 93 113 114
f 93 114 113
f 93 114 115
f 93 115 114
f 93 115 116
f 93 116 115
f 93 116 117
f 93 117 116
f 93 117 118
f 93 118 117
f 93 118 119
f 93 119 118
f 93 119 120
f 93 120 119
f 93 120 121
f 93 121 120
f 93 121 122
f 93 122 121
f 93 122 123
f 93 123 122
f 93 123 124
f 93 124 123
f 93 124 125
f 93 125 124
f 93 125 126
f 93 126 125
f 93 126 127
f 93 127 126
f 93 127 128
f 93 128 127
f 93 128 129
f 93 129 128
f 93 129 130
f 93 130 129
f 93 130 131
f 93 131 130
f 93 131 132
f 93 132 131
f 93 132 133
f 93 133 132
f 93 133 134
f 93 134 133
f 93 134 135
f 93 135 134
f 93 135 136
f 93 136 135
f 93 136 137
f 93 137 136
f 93 137 138
f 93 138 137
v 0.000000 0.030000 -0.000000
v 0.011349 0.052180 0.011236
v 0.022527 0.074359 0.023254
v 0.033698 0.096539 0.035298
v 0.044936 0.118719 0.047040
v 0.056296 0.140899 0.058227
v 0.067827 0.163078 0.068642
v 0.079568 0.185258 0.078100
v 0.091555 0.207438 0.086442
v 0.103816 0.229618 0.093541
v 0.116373 0.251797 0.099296
v 0.129240 0.273977 0.103643
v 0.142425 0.296157 0.106548
v 0.155928 0.318337 0.108011
v 0.169741 0.340516 0.108065
v 0.183850 0.362696 0.106777
v 0.198233 0.384876 0.104245
v 0.212862 0.407056 0.100597
v 0.227701 0.429235 0.095992
v 0.242711 0.451415 0.090615
v 0.257843 0.473595 0.084683
v 0.273041 0.495774 0.078449
v 0.288234 0.517954 0.072241
v 0.303255 0.540134 0.066815
v 0.291906 0.517954 0.055578
v 0.280728 0.495774 0.043560
v 0.269557 0.473595 0.031517
v 0.258319 0.451415 0.019775
v 0.246959 0.429235 0.008588
v 0.235428 0.407056 -0.001827
v 0.223687 0.384876 -0.011285
v 0.211700 0.362696 -0.019628
v 0.199439 0.340516 -0.026726
v 0.186882 0.318337 -0.032482
v 0.174015 0.296157 -0.036829
v 0.160830 0.273977 -0.039734
v 0.147327 0.251797 -0.041197
v 0.133514 0.229618 -0.041251
v 0.119405 0.207438 -0.039962
v 0.105022 0.185258 -0.037430
v 0.090393 0.163078 -0.033782
v 0.075554 0.140899 -0.029177
v 0.060544 0.118719 -0.023800
v 0.045412 0.096539 -0.017868
v 0.030213 0.074359 -0.011634
v 0.015021 0.052180 -0.005426
f 139 140 141
f 139 141 140
f 139 141 142
f 139 142 141
f 139 142 143
f 139 143 142
f 139 143 144
f 139 144 143
f 139 144 145
f 139 145 144
f 139 145 146
f 139 146 145
f 139 146 147
f 139 147 146
f 139 147 148
f 139 148 147
f 139 148 149
f 139 149 148
f 139 149 150
f 139 150 149
f 139 150 151
f 139 151 150
f 139 151 152
f 139 152 151
f 139 152 153
f 139 153 152
f 139 153 154
f 139 154 153
f 139 154 155
f 139 155 154
f 139 155 156
f 139 156 155
f 139 156 157
f 139 157 156
f 139 157 158
f 139 158 157
f 139 158 159
f 139 159 158
f 139 159 160
f 139 160 159
f 139 160 161
f 139 161 160
f 139 161 162
f 139 162 161
f 139 162 163
f 139 163 162
f 139 163 164
f 139 164 163
f 139 164 165
f 139 165 164
f 139 165 166
f 139 166 165
f 139 166 167
f 139 167 166
f 139 167 168
f 139 168 167
f 139 168 169
f 139 169 168
f 139 169 170
f 139 170 169
f 139 170 171
f 139 171 170
f 139 171 172
f 139 172 171
f 139 172 173
f 139 173 172
f 139 173 174
f 139 174 173
f 139 174 175
f 139 175 174
f 139 175 176
f 139 176 175
f 139 176 177
f 139 177 176
f 139 177 178
f 139 178 177
f 139 178 179
f 139 179 178
f 139 179 180
f 139 180 179
f 139 180 181
f 139 181 180
f 139 181 182
f 139 182 181
f 139 182 183
f 139 183 182
f 139 183 184
f 139 184 183
v 0.000000 0.030000 -0.000000
v 0.002677 0.045025 0.019481
v 0.005024 0.060051 0.039168
v 0.007467 0.075076 0.058795
v 0.010213 0.090102 0.078233
v 0.013430 0.105127 0.097377
v 0.017263 0.120153 0.116135
v 0.021841 0.135178 0.134428
v 0.027270 0.150204 0.152189
v 0.033639 0.165229 0.169363
v 0.041017 0.180255 0.185906
v 0.049448 0.195280 0.201791
v 0.058955 0.210306 0.217003
v 0.069539 0.225331 0.231542
v 0.081177 0.240357 0.245423
v 0.093822 0.255382 0.258674
v 0.107407 0.270408 0.271337
v 0.121845 0.285433 0.283468
v 0.137026 0.300459 0.295133
v 0.152824 0.315484 0.306414
v 0.169093 0.330509 0.317400
v 0.185665 0.345535 0.328197
v 0.202333 0.360560 0.338934
v 0.218671 0.375586 0.349877
v 0.215993 0.360560 0.330396
v 0.213647 0.345535 0.310709
v 0.211204 0.330509 0.291081
v 0.208458 0.315484 0.271643
v 0.205241 0.300459 0.252500
v 0.201407 0.285433 0.233742
v 0.196830 0.270408 0.215448
v 0.191401 0.255382 0.197687
v 0.185031 0.240357 0.180514
v 0.177654 0.225331 0.163971
v 0.169223 0.210306 0.148086
v 0.159715 0.195280 0.132874
v 0.149132 0.180255 0.118335
v 0.137494 0.165229 0.104454
v 0.124849 0.150204 0.091203
v 0.111263 0.135178 0.078540
v 0.096826 0.120153 0.066409
v 0.081644 0.105127 0.054743
v 0.065846 0.090102 0.043463
v 0.049577 0.075076 0.032477
v 0.033006 0.060051 0.021680
v 0.016338 0.045025 0.010943
f 185 186 187
f 185 187 186
f 185 187 188
f 185 188 187
f 185 188 189
f 185 189 188
f 185 189 190
f 185 190 189
f 185 190 191
f 185 191 190
f 185 191 192
f 185 192 191
f 185 192 193
f 185 193 192
f 185 193 194
f 185 194 193
f 185 194 195
f 185 195 194
f 185 195 196
f 185 196 195
f 185 196 197
f 185 197 196
f 185 197 198
f 185 198 197
f 185 198 199
f 185 199 198
f 185 199 200
f 185 200 199
f 185 200 201
f 185 201 200
f 185 201 202
f 185 202 201
f 185 202 203
f 185 203 202
f 185 203 204
f 185 204 203
f 185 204 205
f 185 205 204
f 185 205 206
f 185 206 205
f 185 206 207
f 185 207 206
f 185 207 208
f 185 208 207
f 185 208 209
f 185 209 208
f 185 209 210
f 185 210 209
f 185 210 211
f 185 211 210
f 185 211 212
f 185 212 211
f 185 212 213
f 185 213 212
f 185 213 214
f 185 214 213
f 185 214 215
f 185 215 214
f 185 215 216
f 185 216 215
f 185 216 217
f 185 217 216
f 185 217 218
f 185 218 217
f 185 218 219
f 185 219 218
f 185 219 220
f 185 220 219
f 185 220 221
f 185 221 220
f 185 221 222
f 185 222 221
f 185 222 223
f 185 223 222
f 185 223 224
f 185 224 223
f 185 224 225
f 185 225 224
f 185 225 226
f 185 226 225
f 185 226 227
f 185 227 226
f 185 227 228
f 185 228 227
f 185 228 229
f 185 229 228
f 185 229 230
f 185 230 229
v 0.000000 0.030000 -0.000000
v -0.005206 0.051057 0.012386
v -0.013700 0.072115 0.025143
v -0.023611 0.093172 0.038061
v -0.034099 0.114229 0.051044
v -0.044520 0.135287 0.064019
v -0.054329 0.156344 0.076925
v -0.063050 0.177402 0.089708
v -0.070276 0.198459 0.102322
v -0.075671 0.219516 0.114729
v -0.078975 0.240574 0.126900
v -0.080013 0.261631 0.138814
v -0.078696 0.282688 0.150461
v -0.075023 0.303746 0.161842
v -0.069083 0.324803 0.172967
v -0.061053 0.345860 0.183856
v -0.051192 0.366918 0.194537
v -0.039836 0.387975 0.205049
v -0.027392 0.409033 0.215438
v -0.014335 0.430090 0.225757
v -0.001213 0.451147 0.236070
v 0.011334 0.472205 0.246447
v 0.022462 0.493262 0.256985
v 0.030304 0.514319 0.267894
v 0.035510 0.493262 0.255509
v 0.044003 0.472205 0.242752
v 0.053915 0.451147 0.229834
v 0.064402 0.430090 0.216851
v 0.074823 0.409033 0.203875
v 0.084632 0.387975 0.190969
v 0.093354 0.366918 0.178186
v 0.100580 0.345860 0.165572
v 0.105975 0.324803 0.153165
v 0.109279 0.303746 0.140995
v 0.110317 0.282688 0.129081
v 0.108999 0.261631 0.117433
v 0.105326 0.240574 0.106052
v 0.099387 0.219516 0.094927
v 0.091357 0.198459 0.084039
v 0.081496 0.177402 0.073358
v 0.070139 0.156344 0.062846
v 0.057695 0.135287 0.052457
v 0.044639 0.114229 0.042137
v 0.031516 0.093172 0.031825
v 0.018970 0.072115 0.021447
v 0.007841 0.051057 0.010910
f 231 232 233
f 231 233 232
f 231 233 234
f 231 234 233
f 231 234 235
f 231 235 234
f 231 235 236
f 231 236 235
f 231 236 237
f 231 237 236
f 231 237 238
f 231 238 237
f 231 238 239
f 231 239 238
f 231 239 240
f 231 240 239
f 231 240 241
f 231 241 240
f 231 241 242
f 231 242 241
f 231 242 243
f 231 243 242
f 231 243 244
f 231 244 243
f 231 244 245
f 231 245 244
f 231 245 246
f 231 246 245
f 231 246 247
f 231 247 246
f 231 247 248
f 231 248 247
f 231 248 249
f 231 249 248
f 231 249 250
f 231 250 249
f 231 250 251
f 231 251 250
f 231 251 252
f 231 252 251
f 231 252 253
f 231 253 252
f 231 253 254
f 231 254 253
f 231 254 255
f 231 255 254
f 231 255 256
f 231 256 255
f 231 256 257
f 231 257 256
f 231 257 258
f 231 258 257
f 231 258 259
f 231 259 258
f 231 259 260
f 231 260 259
f 231 260 261
f 231 261 260
f 231 261 262
f 231 262 261
f 231 262 263
f 231 263 262
f 231 263 264
f 231 264 263
f 231 264 265
f 231 265 264
f 231 265 266
f 231 266 265
f 231 266 267
f 231 267 266
f 231 267 268
f 231 268 267
f 231 268 269
f 231 269 268
f 231 269 270
f 231 270 269
f 231 270 271
f 231 271 270
f 231 271 272
f 231 272 271
f 231 272 273
f 231 273 272
f 231 273 274
f 231 274 273
f 231 274 275
f 231 275 274
f 231 275 276
f 231 276 275
v 0.000000 0.030000 -0.000000
v -0.011707 0.046093 0.008596
v -0.024720 0.062186 0.016368
v -0.038149 0.078280 0.023875
v -0.051633 0.094373 0.031349
v -0.064900 0.110466 0.038959
v -0.077729 0.126559 0.046846
v -0.089926 0.142652 0.055133
v -0.101330 0.158746 0.063921
v -0.111807 0.174839 0.073294
v -0.121257 0.190932 0.083317
v -0.129612 0.207025 0.094032
v -0.136836 0.223118 0.105462
v -0.142929 0.239212 0.117606
v -0.147927 0.255305 0.130443
v -0.151898 0.271398 0.143929
v -0.154942 0.287491 0.158001
v -0.157193 0.303584 0.172574
v -0.158812 0.319677 0.187546
v -0.159992 0.335771 0.202795
v -0.160957 0.351864 0.218181
v -0.161975 0.367957 0.233533
v -0.163411 0.384050 0.248622
v -0.166152 0.400143 0.262885
v -0.154445 0.384050 0.254288
v -0.141432 0.367957 0.246517
v -0.128002 0.351864 0.239010
v -0.114519 0.335771 0.231536
v -0.101251 0.319677 0.223926
v -0.088423 0.303584 0.216039
v -0.076226 0.287491 0.207752
v -0.064822 0.271398 0.198964
v -0.054344 0.255305 0.189590
v -0.044894 0.239212 0.179568
v -0.036540 0.223118 0.168852
v -0.029316 0.207025 0.157423
v -0.023222 0.190932 0.145278
v -0.018225 0.174839 0.132442
v -0.014254 0.158746 0.118956
v -0.011210 0.142652 0.104884
v -0.008959 0.126559 0.090311
v -0.007339 0.110466 0.075339
v -0.006159 0.094373 0.060089
v -0.005195 0.078280 0.044704
v -0.004176 0.062186 0.029352
v -0.002741 0.046093 0.014263
f 277 278 279
f 277 279 278
f 277 279 280
f 277 280 279
f 277 280 281
f 277 281 280
f 277 281 282
f 277 282 281
f 277 282 283
f 277 283 282
f 277 283 284
f 277 284 283
f 277 284 285
f 277 285 284
f 277 285 286
f 277 286 285
f 277 286 287
f 277 287 286
f 277 287 288
f 277 288 287
f 277 288 289
f 277 289 288
f 277 289 290
f 277 290 289
f 277 290 291
f 277 291 290
f 277 291 292
f 277 292 291
f 277 292 293
f 277 293 292
f 277 293 294
f 277 294 293
f 277 294 295
f 277 295 294
f 277 295 296
f 277 296 295
f 277 296 297
f 277 297 296
f 277 297 298
f 277 298 297
f 277 298 299
f 277 299 298
f 277 299 300
f 277 300 299
f 277 300 301
f 277 301 300
f 277 301 302
f 277 302 301
f 277 302 303
f 277 303 302
f 277 303 304
f 277 304 303
f 277 304 305
f 277 305 304
f 277 305 306
f 277 306 305
f 277 306 307
f 277 307 306
f 277 307 308
f 277 308 307
f 277 308 309
f 277 309 308
f 277 309 310
f 277 310 309
f 277 310 311
f 277 311 310
f 277 311 312
f 277 312 311
f 277 312 313
f 277 313 312
f 277 313 314
f 277 314 313
f 277 314 315
f 277 315 314
f 277 315 316
f 277 316 315
f 277 316 317
f 277 317 316
f 277 317 318
f 277 318 317
f 277 318 319
f 277 319 318
f 277 319 320
f 277 320 319
f 277 320 321
f 277 321 320
f 277 321 322
f 277 322 321
v 0.000000 0.030000 -0.000000
v -0.014306 0.056665 -0.001916
v -0.029446 0.083330 -0.006943
v -0.044972 0.109994 -0.013410
v -0.060673 0.136659 -0.020533
v -0.076387 0.163324 -0.027700
v -0.091973 0.189989 -0.034389
v -0.107306 0.216653 -0.040138
v -0.122281 0.243318 -0.044550
v -0.136810 0.269983 -0.047296
v -0.150823 0.296648 -0.048121
v -0.164275 0.323313 -0.046853
v -0.177142 0.349977 -0.043403
v -0.189425 0.376642 -0.037772
v -0.201146 0.403307 -0.030047
v -0.212352 0.429972 -0.020402
v -0.223112 0.456636 -0.009090
v -0.233513 0.483301 0.003558
v -0.243662 0.509966 0.017146
v -0.253683 0.536631 0.031214
v -0.263715 0.563296 0.045236
v -0.273924 0.589960 0.058603
v -0.284519 0.616625 0.070529
v -0.295947 0.643290 0.079344
v -0.281642 0.616625 0.081260
v -0.266502 0.589960 0.086287
v -0.250976 0.563296 0.092754
v -0.235274 0.536631 0.099877
v -0.219560 0.509966 0.107045
v -0.203975 0.483301 0.113733
v -0.188641 0.456636 0.119482
v -0.173666 0.429972 0.123894
v -0.159138 0.403307 0.126640
v -0.145124 0.376642 0.127466
v -0.131672 0.349977 0.126197
v -0.118805 0.323313 0.122748
v -0.106522 0.296648 0.117116
v -0.094801 0.269983 0.109391
v -0.083595 0.243318 0.099746
v -0.072836 0.216653 0.088434
v -0.062435 0.189989 0.075786
v -0.052285 0.163324 0.062198
v -0.042265 0.136659 0.048130
v -0.032232 0.109994 0.034109
v -0.022023 0.083330 0.020742
v -0.011429 0.056665 0.008815
f 323 324 325
f 323 325 324
f 323 325 326
f 323 326 325
f 323 326 327
f 323 327 326
f 323 327 328
f 323 328 327
f 323 328 329
f 323 329 328
f 323 329 330
f 323 330 329
f 323 330 331
f 323 331 330
f 323 331 332
f 323 332 331
f 323 332 333
f 323 333 332
f 323 333 334
f 323 334 333
f 323 334 335
f 323 335 334
f 323 335 336
f 323 336 335
f 323 336 337
f 323 337 336
f 323 337 338
f 323 338 337
f 323 338 339
f 323 339 338
f 323 339 340
f 323 340 339
f 323 340 341
f 323 341 340
f 323 341 342
f 323 342 341
f 323 342 343
f 323 343 342
f 323 343 344
f 323 344 343
f 323 344 345
f 323 345 344
f 323 345 346
f 323 346 345
f 323 346 347
f 323 347 346
f 323 347 348
f 323 348 347
f 323 348 349
f 323 349 348
f 323 349 350
f 323 350 349
f 323 350 351
f 323 351 350
f 323 351 352
f 323 352 351
f 323 352 353
f 323 353 352
f 323 353 354
f 323 354 353
f 323 354 355
f 323 355 354
f 323 355 356
f 323 356 355
f 323 356 357
f 323 357 356
f 323 357 358
f 323 358 357
f 323 358 359
f 323 359 358
f 323 359 360
f 323 360 359
f 323 360 361
f 323 361 360
f 323 361 362
f 323 362 361
f 323 362 363
f 323 363 362
f 323 363 364
f 323 364 363
f 323 364 365
f 323 365 364
f 323 365 366
f 323 366 365
f 323 366 367
f 323 367 366
f 323 367 368
f 323 368 367
v 0.000000 0.030000 -0.000000
v -0.008840 0.057973 -0.014545
v -0.017001 0.085945 -0.032009
v -0.024968 0.113918 -0.050307
v -0.032938 0.141891 -0.068595
v -0.041056 0.169863 -0.086248
v -0.049441 0.197836 -0.102745
v -0.058199 0.225809 -0.117643
v -0.067416 0.253781 -0.130564
v -0.077163 0.281754 -0.141203
v -0.087495 0.309727 -0.149325
v -0.098449 0.337699 -0.154773
v -0.110042 0.365672 -0.157467
v -0.122275 0.393645 -0.157407
v -0.135130 0.421617 -0.154672
v -0.148570 0.449590 -0.149421
v -0.162540 0.477563 -0.141888
v -0.176969 0.505535 -0.132378
v -0.191769 0.533508 -0.121269
v -0.206839 0.561481 -0.109004
v -0.222056 0.589453 -0.096104
v -0.237275 0.617426 -0.083193
v -0.252300 0.645399 -0.071118
v -0.266648 0.673371 -0.061960
v -0.257808 0.645399 -0.047415
v -0.249647 0.617426 -0.029951
v -0.241679 0.589453 -0.011653
v -0.233709 0.561481 0.006635
v -0.225592 0.533508 0.024288
v -0.217206 0.505535 0.040785
v -0.208448 0.477563 0.055682
v -0.199232 0.449590 0.068604
v -0.189484 0.421617 0.079242
v -0.179152 0.393645 0.087365
v -0.168199 0.365672 0.092813
v -0.156606 0.337699 0.095507
v -0.144372 0.309727 0.095447
v -0.131517 0.281754 0.092712
v -0.118078 0.253781 0.087461
v -0.104108 0.225809 0.079928
v -0.089679 0.197836 0.070418
v -0.074878 0.169863 0.059309
v -0.059809 0.141891 0.047044
v -0.044592 0.113918 0.034144
v -0.029373 0.085945 0.021233
v -0.014347 0.057973 0.009157
f 369 370 371
f 369 371 370
f 369 371 372
f 369 372 371
f 369 372 373
f 369 373 372
f 369 373 374
f 369 374 373
f 369 374 375
f 369 375 374
f 369 375 376
f 369 376 375
f 369 376 377
f 369 377 376
f 369 377 378
f 369 378 377
f 369 378 379
f 369 379 378
f 369 379 380
f 369 380 379
f 369 380 381
f 369 381 380
f 369 381 382
f 369 382 381
f 369 382 383
f 369 383 382
f 369 383 384
f 369 384 383
f 369 384 385
f 369 385 384
f 369 385 386
f 369 386 385
f 369 386 387
f 369 387 386
f 369 387 388
f 369 388 387
f 369 388 389
f 369 389 388
f 369 389 390
f 369 390 389
f 369 390 391
f 369 391 390
f 369 391 392
f 369 392 391
f 369 392 393
f 369 393 392
f 369 393 394
f 369 394 393
f 369 394 395
f 369 395 394
f 369 395 396
f 369 396 395
f 369 396 397
f 369 397 396
f 369 397 398
f 369 398 397
f 369 398 399
f 369 399 398
f 369 399 400
f 369 400 399
f 369 400 401
f 369 401 400
f 369 401 402
f 369 402 401
f 369 402 403
f 369 403 402
f 369 403 404
f 369 404 403
f 369 404 405
f 369 405 404
f 369 405 406
f 369 406 405
f 369 406 407
f 369 407 406
f 369 407 408
f 369 408 407
f 369 408 409
f 369 409 408
f 369 409 410
f 369 410 409
f 369 410 411
f 369 411 410
f 369 411 412
f 369 412 411
f 369 412 413
f 369 413 412
f 369 413 414
f 369 414 413
v 0.000000 0.030000 -0.000000
v -0.007154 0.050448 -0.018286
v -0.012070 0.070895 -0.038506
v -0.016071 0.091343 -0.059517
v -0.019739 0.111790 -0.080816
v -0.023512 0.132238 -0.102024
v -0.027761 0.152686 -0.122822
v -0.032805 0.173133 -0.142931
v -0.038918 0.193581 -0.162116
v -0.046327 0.214028 -0.180182
v -0.055203 0.234476 -0.196980
v -0.065664 0.254923 -0.212407
v -0.077770 0.275371 -0.226413
v -0.091520 0.295819 -0.238998
v -0.106855 0.316266 -0.250212
v -0.123659 0.336714 -0.260158
v -0.141756 0.357161 -0.268985
v -0.160924 0.377609 -0.276887
v -0.180887 0.398057 -0.284102
v -0.201326 0.418504 -0.290906
v -0.221869 0.438952 -0.297619
v -0.242079 0.459399 -0.304620
v -0.261375 0.479847 -0.312411
v -0.278432 0.500294 -0.322138
v -0.271278 0.479847 -0.303852
v -0.266362 0.459399 -0.283631
v -0.262361 0.438952 -0.262620
v -0.258693 0.418504 -0.241322
v -0.254920 0.398057 -0.220114
v -0.250671 0.377609 -0.199316
v -0.245627 0.357161 -0.179207
v -0.239514 0.336714 -0.160021
v -0.232106 0.316266 -0.141955
v -0.223230 0.295819 -0.125158
v -0.212768 0.275371 -0.109730
v -0.200663 0.254923 -0.095724
v -0.186912 0.234476 -0.083140
v -0.171577 0.214028 -0.071925
v -0.154774 0.193581 -0.061979
v -0.136676 0.173133 -0.053153
v -0.117508 0.152686 -0.045250
v -0.097545 0.132238 -0.038036
v -0.077107 0.111790 -0.031232
v -0.056563 0.091343 -0.024519
v -0.036353 0.070895 -0.017518
v -0.017057 0.050448 -0.009726
f 415 416 417
f 415 417 416
f 415 417 418
f 415 418 417
f 415 418 419
f 415 419 418
f 415 419 420
f 415 420 419
f 415 420 421
f 415 421 420
f 415 421 422
f 415 422 421
f 415 422 423
f 415 423 422
f 415 423 424
f 415 424 423
f 415 424 425
f 415 425 424
f 415 425 426
f 415 426 425
f 415 426 427
f 415 427 426
f 415 427 428
f 415 428 427
f 415 428 429
f 415 429 428
f 415 429 430
f 415 430 429
f 415 430 431
f 415 431 430
f 415 431 432
f 415 432 431
f 415 432 433
f 415 433 432
f 415 433 434
f 415 434 433
f 415 434 435
f 415 435 434
f 415 435 436
f 415 436 435
f 415 436 437
f 415 437 436
f 415 437 438
f 415 438 437
f 415 438 439
f 415 439 438
f 415 439 440
f 415 440 439
f 415 440 441
f 415 441 440
f 415 441 442
f 415 442 441
f 415 442 443
f 415 443 442
f 415 443 444
f 415 444 443
f 415 444 445
f 415 445 444
f 415 445 446
f 415 446 445
f 415 446 447
f 415 447 446
f 415 447 448
f 415 448 447
f 415 448 449
f 415 449 448
f 415 449 450
f 415 450 449
f 415 450 451
f 415 451 450
f 415 451 452
f 415 452 451
f 415 452 453
f 415 453 452
f 415 453 454
f 415 454 453
f 415 454 455
f 415 455 454
f 415 455 456
f 415 456 455
f 415 456 457
f 415 457 456
f 415 457 458
f 415 458 457
f 415 458 459
f 415 459 458
f 415 459 460
f 415 460 459
v 0.000000 0.000000 0.040000
v 0.034641 0.000000 0.020000
v 0.034641 0.000000 -0.020000
v 0.000000 0.000000 -0.040000
v -0.034641 0.000000 -0.020000
v -0.034641 0.000000 0.020000
v 0.000000 0.030000 0.040000
v 0.034641 0.030000 0.020000
v 0.034641 0.030000 -0.020000
v 0.000000 0.030000 -0.040000
v -0.034641 0.030000 -0.020000
v -0.034641 0.030000 0.020000
f 461 462 468
f 461 468 467
f 462 463 469
f 462 469 468
f 463 464 470
f 463 470 469
f 464 465 471
f 464 471 470
f 465 466 472
f 465 472 471
f 466 461 467
f 466 467 472
