o mesh
v 0.000000 0.000000 0.060000
v 0.043769 -0.001159 0.043784
v 0.059979 -0.001588 0.000000
v 0.043769 -0.001159 -0.043784
v 0.000000 -0.000000 -0.060000
v -0.043769 0.001159 -0.043784
v -0.059979 0.001588 -0.000000
v -0.043769 0.001159 0.043784
v 0.055429 2.093652 0.040000
v 0.084608 2.092879 0.029190
v 0.095415 2.092593 0.000000
v 0.084608 2.092879 -0.029190
v 0.055429 2.093652 -0.040000
v 0.026249 2.094424 -0.029190
v 0.015443 2.094711 -0.000000
v 0.026249 2.094424 0.029190
f 1 2 10
f 1 10 9
f 2 3 11
f 2 11 10
f 3 4 12
f 3 12 11
f 4 5 13
f 4 13 12
f 5 6 14
f 5 14 13
f 6 7 15
f 6 15 14
f 7 8 16
f 7 16 15
f 8 1 9
f 8 9 16
v 0.055429 2.093652 -0.000000
v 0.059662 2.118875 -0.027867
v 0.067387 2.144098 -0.055691
v 0.077129 2.169321 -0.083491
v 0.088047 2.194544 -0.111275
v 0.099426 2.219767 -0.139055
v 0.110612 2.244990 -0.166836
v 0.121010 2.270213 -0.194627
v 0.130088 2.295436 -0.222435
v 0.137399 2.320659 -0.250264
v 0.142590 2.345882 -0.278119
v 0.145419 2.371105 -0.306004
v 0.145762 2.396329 -0.333919
v 0.143620 2.421552 -0.361864
v 0.139115 2.446775 -0.389839
v 0.132491 2.471998 -0.417839
v 0.124099 2.497221 -0.445861
v 0.114388 2.522444 -0.473900
v 0.103887 2.547667 -0.501948
v 0.093195 2.572890 -0.529999
v 0.082963 2.598113 -0.558044
v 0.073907 2.623336 -0.586074
v 0.066869 2.648559 -0.614080
v 0.063322 2.673782 -0.642042
v 0.059089 2.648559 -0.614175
v 0.051364 2.623336 -0.586351
v 0.041622 2.598113 -0.558552
v 0.030704 2.572890 -0.530767
v 0.019325 2.547667 -0.502988
v 0.008139 2.522444 -0.475206
v -0.002259 2.497221 -0.447415
v -0.011337 2.471998 -0.419607
v -0.018648 2.446775 -0.391778
v -0.023839 2.421552 -0.363923
v -0.026668 2.396329 -0.336039
v -0.027011 2.371105 -0.308124
v -0.024869 2.345882 -0.280178
v -0.020364 2.320659 -0.252204
v -0.013740 2.295436 -0.224203
v -0.005348 2.270213 -0.196181
v 0.004363 2.244990 -0.168142
v 0.014864 2.219767 -0.140094
v 0.025556 2.194544 -0.112044
v 0.035788 2.169321 -0.083999
v 0.044843 2.144098 -0.055968
v 0.051882 2.118875 -0.027963
f 17 18 19
f 17 19 18
f 17 19 20
f 17 20 19
f 17 20 21
f 17 21 20
f 17 21 22
f 17 22 21
f 17 22 23
f 17 23 22
f 17 23 24
f 17 24 23
f 17 24 25
f 17 25 24
f 17 25 26
f 17 26 25
f 17 26 27
f 17 27 26
f 17 27 28
f 17 28 27
f 17 28 29
f 17 29 28
f 17 29 30
f 17 30 29
f 17 30 31
f 17 31 30
f 17 31 32
f 17 32 31
f 17 32 33
f 17 33 32
f 17 33 34
f 17 34 33
f 17 34 35
f 17 35 34
f 17 35 36
f 17 36 35
f 17 36 37
f 17 37 36
f 17 37 38
f 17 38 37
f 17 38 39
f 17 39 38
f 17 39 40
f 17 40 39
f 17 40 41
f 17 41 40
f 17 41 42
f 17 42 41
f 17 42 43
f 17 43 42
f 17 43 44
f 17 44 43
f 17 44 45
f 17 45 44
f 17 45 46
f 17 46 45
f 17 46 47
f 17 47 46
f 17 47 48
f 17 48 47
f 17 48 49
f 17 49 48
f 17 49 50
f 17 50 49
f 17 50 51
f 17 51 50
f 17 51 52
f 17 52 51
f 17 52 53
f 17 53 52
f 17 53 54
f 17 54 53
f 17 54 55
f 17 55 54
f 17 55 56
f 17 56 55
f 17 56 57
f 17 57 56
f 17 57 58
f 17 58 57
f 17 58 59
f 17 59 58
f 17 59 60
f 17 60 59
f 17 60 61
f 17 61 60
f 17 61 62
f 17 62 61
v 0.055429 2.093652 -0.000000
v 0.077906 2.068731 0.014996
v 0.102383 2.043811 0.028118
v 0.127670 2.018890 0.040480
v 0.153248 1.993970 0.052569
v 0.178726 1.969049 0.064751
v 0.203774 1.944128 0.077337
v 0.228105 1.919208 0.090595
v 0.251476 1.894287 0.104754
v 0.273685 1.869367 0.120002
v 0.294579 1.844446 0.136484
v 0.314052 1.819526 0.154298
v 0.332053 1.794605 0.173492
v 0.348580 1.769685 0.194069
v 0.363687 1.744764 0.215977
v 0.377479 1.719843 0.239119
v 0.390109 1.694923 0.263350
v 0.401779 1.670002 0.288481
v 0.412732 1.645082 0.314285
v 0.423255 1.620161 0.340492
v 0.433678 1.595241 0.366793
v 0.444392 1.570320 0.392821
v 0.455916 1.545399 0.418089
v 0.469439 1.520479 0.441483
v 0.446962 1.545399 0.426486
v 0.422485 1.570320 0.413364
v 0.397198 1.595241 0.401003
v 0.371620 1.620161 0.388914
v 0.346142 1.645082 0.376731
v 0.321094 1.670002 0.364145
v 0.296763 1.694923 0.350887
v 0.273392 1.719843 0.336728
v 0.251183 1.744764 0.321480
v 0.230289 1.769685 0.304999
v 0.210816 1.794605 0.287185
v 0.192815 1.819526 0.267990
v 0.176288 1.844446 0.247414
v 0.161181 1.869367 0.225506
v 0.147389 1.894287 0.202364
v 0.134759 1.919208 0.178133
v 0.123089 1.944128 0.153001
v 0.112136 1.969049 0.127198
v 0.101613 1.993970 0.100990
v 0.091190 2.018890 0.074689
v 0.080476 2.043811 0.048661
v 0.068952 2.068731 0.023393
f 63 64 65
f 63 65 64
f 63 65 66
f 63 66 65
f 63 66 67
f 63 67 66
f 63 67 68
f 63 68 67
f 63 68 69
f 63 69 68
f 63 69 70
f 63 70 69
f 63 70 71
f 63 71 70
f 63 71 72
f 63 72 71
f 63 72 73
f 63 73 72
f 63 73 74
f 63 74 73
f 63 74 75
f 63 75 74
f 63 75 76
f 63 76 75
f 63 76 77
f 63 77 76
f 63 77 78
f 63 78 77
f 63 78 79
f 63 79 78
f 63 79 80
f 63 80 79
f 63 80 81
f 63 81 80
f 63 81 82
f 63 82 81
f 63 82 83
f 63 83 82
f 63 83 84
f 63 84 83
f 63 84 85
f 63 85 84
f 63 85 86
f 63 86 85
f 63 86 87
f 63 87 86
f 63 87 88
f 63 88 87
f 63 88 89
f 63 89 88
f 63 89 90
f 63 90 89
f 63 90 91
f 63 91 90
f 63 91 92
f 63 92 91
f 63 92 93
f 63 93 92
f 63 93 94
f 63 94 93
f 63 94 95
f 63 95 94
f 63 95 96
f 63 96 95
f 63 96 97
f 63 97 96
f 63 97 98
f 63 98 97
f 63 98 99
f 63 99 98
f 63 99 100
f 63 100 99
f 63 100 101
f 63 101 100
f 63 101 102
f 63 102 101
f 63 102 103
f 63 103 102
f 63 103 104
f 63 104 103
f 63 104 105
f 63 105 104
f 63 105 106
f 63 106 105
f 63 106 107
f 63 107 106
f 63 107 108
f 63 108 107
v 0.055429 2.093652 -0.000000
v 0.073868 2.067782 0.006147
v 0.093757 2.041911 0.009872
v 0.114370 2.016041 0.012388
v 0.135346 1.990171 0.014300
v 0.156397 1.964300 0.016086
v 0.177272 1.938430 0.018164
v 0.197749 1.912560 0.020908
v 0.217634 1.886690 0.024640
v 0.236766 1.860819 0.029631
v 0.255019 1.834949 0.036088
v 0.272308 1.809079 0.044156
v 0.288589 1.783208 0.053906
v 0.303862 1.757338 0.065339
v 0.318172 1.731468 0.078382
v 0.331602 1.705598 0.092892
v 0.344279 1.679727 0.108661
v 0.356364 1.653857 0.125418
v 0.368051 1.627987 0.142839
v 0.379562 1.602116 0.160554
v 0.391149 1.576246 0.178143
v 0.403098 1.550376 0.195127
v 0.415771 1.524506 0.210903
v 0.429894 1.498635 0.224257
v 0.411455 1.524506 0.218110
v 0.391565 1.550376 0.214385
v 0.370952 1.576246 0.211868
v 0.349977 1.602116 0.209957
v 0.328926 1.627987 0.208171
v 0.308050 1.653857 0.206092
v 0.287573 1.679727 0.203349
v 0.267688 1.705598 0.199616
v 0.248556 1.731468 0.194626
v 0.230303 1.757338 0.188169
v 0.213014 1.783208 0.180101
v 0.196733 1.809079 0.170351
v 0.181460 1.834949 0.158918
v 0.167151 1.860819 0.145875
v 0.153720 1.886690 0.131364
v 0.141043 1.912560 0.115596
v 0.128958 1.938430 0.098839
v 0.117271 1.964300 0.081417
v 0.105760 1.990171 0.063702
v 0.094173 2.016041 0.046113
v 0.082224 2.041911 0.029129
v 0.069552 2.067782 0.013353
f 109 110 111
f 109 111 110
f 109 111 112
f 109 112 111
f 109 112 113
f 109 113 112
f 109 113 114
f 109 114 113
f 109 114 115
f 109 115 114
f 109 115 116
f 109 116 115
f 109 116 117
f 109 117 116
f 109 117 118
f 109 118 117
f 109 118 119
f 109 119 118
f 109 119 120
f 109 120 119
f 109 120 121
f 109 121 120
f 109 121 122
f 109 122 121
f 109 122 123
f 109 123 122
f 109 123 124
f 109 124 123
f 109 124 125
f 109 125 124
f 109 125 126
f 109 126 125
f 109 126 127
f 109 127 126
f 109 127 128
f 109 128 127
f 109 128 129
f 109 129 128
f 109 129 130
f 109 130 129
f 109 130 131
f 109 131 130
f 109 131 132
f 109 132 131
f 109 132 133
f 109 133 132
f 109 133 134
f 109 134 133
f 109 134 135
f 109 135 134
f 109 135 136
f 109 136 135
f 109 136 137
f 109 137 136
f 109 137 138
f 109 138 137
f 109 138 139
f 109 139 138
f 109 139 140
f 109 140 139
f 109 140 141
f 109 141 140
f 109 141 142
f 109 142 141
f 109 142 143
f 109 143 142
f 109 143 144
f 109 144 143
f 109 144 145
f 109 145 144
f 109 145 146
f 109 146 145
f 109 146 147
f 109 147 146
f 109 147 148
f 109 148 147
f 109 148 149
f 109 149 148
f 109 149 150
f 109 150 149
f 109 150 151
f 109 151 150
f 109 151 152
f 109 152 151
f 109 152 153
f 109 153 152
f 109 153 154
f 109 154 153
v 0.055429 2.093652 -0.000000
v 0.072510 2.119585 0.013044
v 0.089091 2.145519 0.027678
v 0.105537 2.171453 0.042740
v 0.121996 2.197386 0.057761
v 0.138577 2.223320 0.072394
v 0.155371 2.249253 0.086349
v 0.172457 2.275187 0.099378
v 0.189900 2.301121 0.111273
v 0.207753 2.327054 0.121863
v 0.226057 2.352988 0.131018
v 0.244841 2.378921 0.138650
v 0.264118 2.404855 0.144715
v 0.283888 2.430789 0.149213
v 0.304137 2.456722 0.152188
v 0.324837 2.482656 0.153728
v 0.345949 2.508589 0.153963
v 0.367417 2.534523 0.153064
v 0.389176 2.560457 0.151239
v 0.411148 2.586390 0.148736
v 0.433243 2.612324 0.145845
v 0.455351 2.638257 0.142913
v 0.477323 2.664191 0.140409
v 0.498796 2.690125 0.139495
v 0.481715 2.664191 0.126451
v 0.465134 2.638257 0.111817
v 0.448688 2.612324 0.096755
v 0.432229 2.586390 0.081734
v 0.415648 2.560457 0.067101
v 0.398853 2.534523 0.053146
v 0.381768 2.508589 0.040117
v 0.364325 2.482656 0.028222
v 0.346472 2.456722 0.017632
v 0.328167 2.430789 0.008477
v 0.309384 2.404855 0.000845
v 0.290107 2.378921 -0.005220
v 0.270337 2.352988 -0.009718
v 0.250088 2.327054 -0.012693
v 0.229387 2.301121 -0.014233
v 0.208276 2.275187 -0.014468
v 0.186808 2.249253 -0.013569
v 0.165049 2.223320 -0.011744
v 0.143076 2.197386 -0.009241
v 0.120982 2.171453 -0.006350
v 0.098874 2.145519 -0.003418
v 0.076901 2.119585 -0.000914
f 155 156 157
f 155 157 156
f 155 157 158
f 155 158 157
f 155 158 159
f 155 159 158
f 155 159 160
f 155 160 159
f 155 160 161
f 155 161 160
f 155 161 162
f 155 162 161
f 155 162 163
f 155 163 162
f 155 163 164
f 155 164 163
f 155 164 165
f 155 165 164
f 155 165 166
f 155 166 165
f 155 166 167
f 155 167 166
f 155 167 168
f 155 168 167
f 155 168 169
f 155 169 168
f 155 169 170
f 155 170 169
f 155 170 171
f 155 171 170
f 155 171 172
f 155 172 171
f 155 172 173
f 155 173 172
f 155 173 174
f 155 174 173
f 155 174 175
f 155 175 174
f 155 175 176
f 155 176 175
f 155 176 177
f 155 177 176
f 155 177 178
f 155 178 177
f 155 178 179
f 155 179 178
f 155 179 180
f 155 180 179
f 155 180 181
f 155 181 180
f 155 181 182
f 155 182 181
f 155 182 183
f 155 183 182
f 155 183 184
f 155 184 183
f 155 184 185
f 155 185 184
f 155 185 186
f 155 186 185
f 155 186 187
f 155 187 186
f 155 187 188
f 155 188 187
f 155 188 189
f 155 189 188
f 155 189 190
f 155 190 189
f 155 190 191
f 155 191 190
f 155 191 192
f 155 192 191
f 155 192 193
f 155 193 192
f 155 193 194
f 155 194 193
f 155 194 195
f 155 195 194
f 155 195 196
f 155 196 195
f 155 196 197
f 155 197 196
f 155 197 198
f 155 198 197
f 155 198 199
f 155 199 198
f 155 199 200
f 155 200 199
v 0.055429 2.093652 -0.000000
v 0.073610 2.072552 -0.025262
v 0.089292 2.051452 -0.052884
v 0.103586 2.030352 -0.081818
v 0.117099 2.009252 -0.111489
v 0.130338 1.988152 -0.141419
v 0.143759 1.967052 -0.171178
v 0.157775 1.945952 -0.200374
v 0.172751 1.924852 -0.228663
v 0.188996 1.903752 -0.255754
v 0.206748 1.882653 -0.281421
v 0.226174 1.861553 -0.305507
v 0.247357 1.840453 -0.327934
v 0.270298 1.819353 -0.348700
v 0.294912 1.798253 -0.367886
v 0.321034 1.777153 -0.385647
v 0.348424 1.756053 -0.402210
v 0.376774 1.734953 -0.417867
v 0.405720 1.713853 -0.432961
v 0.434847 1.692753 -0.447883
v 0.463700 1.671653 -0.463065
v 0.491773 1.650553 -0.478984
v 0.518457 1.629453 -0.496214
v 0.542642 1.608353 -0.515805
v 0.524461 1.629453 -0.490543
v 0.508778 1.650553 -0.462921
v 0.494485 1.671653 -0.433987
v 0.480971 1.692753 -0.404316
v 0.467733 1.713853 -0.374385
v 0.454312 1.734953 -0.344627
v 0.440296 1.756053 -0.315431
v 0.425319 1.777153 -0.287142
v 0.409075 1.798253 -0.260050
v 0.391323 1.819353 -0.234384
v 0.371897 1.840453 -0.210297
v 0.350714 1.861553 -0.187871
v 0.327773 1.882653 -0.167105
v 0.303159 1.903752 -0.147919
v 0.277037 1.924852 -0.130158
v 0.249647 1.945952 -0.113594
v 0.221297 1.967052 -0.097938
v 0.192351 1.988152 -0.082844
v 0.163223 2.009252 -0.067921
v 0.134370 2.030352 -0.052740
v 0.106298 2.051452 -0.036821
v 0.079614 2.072552 -0.019591
f 201 202 203
f 201 203 202
f 201 203 204
f 201 204 203
f 201 204 205
f 201 205 204
f 201 205 206
f 201 206 205
f 201 206 207
f 201 207 206
f 201 207 208
f 201 208 207
f 201 208 209
f 201 209 208
f 201 209 210
f 201 210 209
f 201 210 211
f 201 211 210
f 201 211 212
f 201 212 211
f 201 212 213
f 201 213 212
f 201 213 214
f 201 214 213
f 201 214 215
f 201 215 214
f 201 215 216
f 201 216 215
f 201 216 217
f 201 217 216
f 201 217 218
f 201 218 217
f 201 218 219
f 201 219 218
f 201 219 220
f 201 220 219
f 201 220 221
f 201 221 220
f 201 221 222
f 201 222 221
f 201 222 223
f 201 223 222
f 201 223 224
f 201 224 223
f 201 224 225
f 201 225 224
f 201 225 226
f 201 226 225
f 201 226 227
f 201 227 226
f 201 227 228
f 201 228 227
f 201 228 229
f 201 229 228
f 201 229 230
f 201 230 229
f 201 230 231
f 201 231 230
f 201 231 232
f 201 232 231
f 201 232 233
f 201 233 232
f 201 233 234
f 201 234 233
f 201 234 235
f 201 235 234
f 201 235 236
f 201 236 235
f 201 236 237
f 201 237 236
f 201 237 238
f 201 238 237
f 201 238 239
f 201 239 238
f 201 239 240
f 201 240 239
f 201 240 241
f 201 241 240
f 201 241 242
f 201 242 241
f 201 242 243
f 201 243 242
f 201 243 244
f 201 244 243
f 201 244 245
f 201 245 244
f 201 245 246
f 201 246 245
v 0.055429 2.093652 -0.000000
v 0.057079 2.074606 -0.031341
v 0.055497 2.055560 -0.063313
v 0.052211 2.036514 -0.095617
v 0.048015 2.017468 -0.128098
v 0.043556 1.998422 -0.160631
v 0.039408 1.979376 -0.193104
v 0.036085 1.960330 -0.225415
v 0.034038 1.941283 -0.257477
v 0.033643 1.922237 -0.289217
v 0.035196 1.903191 -0.320578
v 0.038896 1.884145 -0.351518
v 0.044848 1.865099 -0.382020
v 0.053050 1.846053 -0.412083
v 0.063400 1.827007 -0.441726
v 0.075698 1.807961 -0.470990
v 0.089648 1.788915 -0.499931
v 0.104873 1.769869 -0.528623
v 0.120924 1.750823 -0.557154
v 0.137285 1.731777 -0.585625
v 0.153384 1.712731 -0.614147
v 0.168573 1.693685 -0.642846
v 0.182058 1.674639 -0.671878
v 0.192310 1.655593 -0.701541
v 0.190660 1.674639 -0.670200
v 0.192242 1.693685 -0.638228
v 0.195528 1.712731 -0.605924
v 0.199724 1.731777 -0.573442
v 0.204183 1.750823 -0.540909
v 0.208331 1.769869 -0.508437
v 0.211654 1.788915 -0.476126
v 0.213701 1.807961 -0.444063
v 0.214095 1.827007 -0.412323
v 0.212543 1.846053 -0.380963
v 0.208842 1.865099 -0.350022
v 0.202891 1.884145 -0.319521
v 0.194689 1.903191 -0.289458
v 0.184339 1.922237 -0.259814
v 0.172041 1.941283 -0.230551
v 0.158091 1.960330 -0.201610
v 0.142866 1.979376 -0.172918
v 0.126815 1.998422 -0.144386
v 0.110454 2.017468 -0.115916
v 0.094355 2.036514 -0.087394
v 0.079166 2.055560 -0.058694
v 0.065681 2.074606 -0.029663
f 247 248 249
f 247 249 248
f 247 249 250
f 247 250 249
f 247 250 251
f 247 251 250
f 247 251 252
f 247 252 251
f 247 252 253
f 247 253 252
f 247 253 254
f 247 254 253
f 247 254 255
f 247 255 254
f 247 255 256
f 247 256 255
f 247 256 257
f 247 257 256
f 247 257 258
f 247 258 257
f 247 258 259
f 247 259 258
f 247 259 260
f 247 260 259
f 247 260 261
f 247 261 260
f 247 261 262
f 247 262 261
f 247 262 263
f 247 263 262
f 247 263 264
f 247 264 263
f 247 264 265
f 247 265 264
f 247 265 266
f 247 266 265
f 247 266 267
f 247 267 266
f 247 267 268
f 247 268 267
f 247 268 269
f 247 269 268
f 247 269 270
f 247 270 269
f 247 270 271
f 247 271 270
f 247 271 272
f 247 272 271
f 247 272 273
f 247 273 272
f 247 273 274
f 247 274 273
f 247 274 275
f 247 275 274
f 247 275 276
f 247 276 275
f 247 276 277
f 247 277 276
f 247 277 278
f 247 278 277
f 247 278 279
f 247 279 278
f 247 279 280
f 247 280 279
f 247 280 281
f 247 281 280
f 247 281 282
f 247 282 281
f 247 282 283
f 247 283 282
f 247 283 284
f 247 284 283
f 247 284 285
f 247 285 284
f 247 285 286
f 247 286 285
f 247 286 287
f 247 287 286
f 247 287 288
f 247 288 287
f 247 288 289
f 247 289 288
f 247 289 290
f 247 290 289
f 247 290 291
f 247 291 290
f 247 291 292
f 247 292 291
v 0.055429 2.093652 -0.000000
v 0.040115 2.127582 0.020233
v 0.022739 2.161513 0.039873
v 0.004793 2.195443 0.059348
v -0.013120 2.229374 0.078833
v -0.030552 2.263304 0.098456
v -0.047132 2.297234 0.118324
v -0.062542 2.331165 0.138530
v -0.076513 2.365095 0.159150
v -0.088825 2.399026 0.180248
v -0.099312 2.432956 0.201871
v -0.107861 2.466887 0.224053
v -0.114415 2.500817 0.246809
v -0.118973 2.534747 0.270140
v -0.121593 2.568678 0.294029
v -0.122388 2.602608 0.318443
v -0.121525 2.636539 0.343336
v -0.119222 2.670469 0.368642
v -0.115749 2.704400 0.394286
v -0.111424 2.738330 0.420175
v -0.106619 2.772260 0.446203
v -0.101780 2.806191 0.472240
v -0.097511 2.840121 0.498113
v -0.095305 2.874052 0.523392
v -0.079991 2.840121 0.503158
v -0.062615 2.806191 0.483519
v -0.044669 2.772260 0.464044
v -0.026756 2.738330 0.444559
v -0.009324 2.704400 0.424936
v 0.007256 2.670469 0.405067
v 0.022666 2.636539 0.384861
v 0.036637 2.602608 0.364241
v 0.048949 2.568678 0.343144
v 0.059436 2.534747 0.321520
v 0.067985 2.500817 0.299339
v 0.074539 2.466887 0.276583
v 0.079097 2.432956 0.253252
v 0.081717 2.399026 0.229363
v 0.082512 2.365095 0.204948
v 0.081649 2.331165 0.180056
v 0.079346 2.297234 0.154749
v 0.075873 2.263304 0.129106
v 0.071548 2.229374 0.103217
v 0.066743 2.195443 0.077189
v 0.061904 2.161513 0.051152
v 0.057635 2.127582 0.025279
f 293 294 295
f 293 295 294
f 293 295 296
f 293 296 295
f 293 296 297
f 293 297 296
f 293 297 298
f 293 298 297
f 293 298 299
f 293 299 298
f 293 299 300
f 293 300 299
f 293 300 301
f 293 301 300
f 293 301 302
f 293 302 301
f 293 302 303
f 293 303 302
f 293 303 304
f 293 304 303
f 293 304 305
f 293 305 304
f 293 305 306
f 293 306 305
f 293 306 307
f 293 307 306
f 293 307 308
f 293 308 307
f 293 308 309
f 293 309 308
f 293 309 310
f 293 310 309
f 293 310 311
f 293 311 310
f 293 311 312
f 293 312 311
f 293 312 313
f 293 313 312
f 293 313 314
f 293 314 313
f 293 314 315
f 293 315 314
f 293 315 316
f 293 316 315
f 293 316 317
f 293 317 316
f 293 317 318
f 293 318 317
f 293 318 319
f 293 319 318
f 293 319 320
f 293 320 319
f 293 320 321
f 293 321 320
f 293 321 322
f 293 322 321
f 293 322 323
f 293 323 322
f 293 323 324
f 293 324 323
f 293 324 325
f 293 325 324
f 293 325 326
f 293 326 325
f 293 326 327
f 293 327 326
f 293 327 328
f 293 328 327
f 293 328 329
f 293 329 328
f 293 329 330
f 293 330 329
f 293 330 331
f 293 331 330
f 293 331 332
f 293 332 331
f 293 332 333
f 293 333 332
f 293 333 334
f 293 334 333
f 293 334 335
f 293 335 334
f 293 335 336
f 293 336 335
f 293 336 337
f 293 337 336
f 293 337 338
f 293 338 337
v 0.055429 2.093652 -0.000000
v 0.027316 2.082543 -0.011490
v -0.002216 2.071435 -0.020532
v -0.032461 2.060326 -0.028347
v -0.063064 2.049217 -0.035543
v -0.093744 2.038109 -0.042606
v -0.124257 2.027000 -0.049959
v -0.154382 2.015891 -0.057979
v -0.183929 2.004783 -0.066995
v -0.212741 1.993674 -0.077280
v -0.240693 1.982565 -0.089047
v -0.267702 1.971457 -0.102440
v -0.293724 1.960348 -0.117533
v -0.318761 1.949239 -0.134327
v -0.342854 1.938131 -0.152748
v -0.366087 1.927022 -0.172649
v -0.388585 1.915913 -0.193820
v -0.410505 1.904805 -0.215987
v -0.432038 1.893696 -0.238821
v -0.453403 1.882587 -0.261945
v -0.474845 1.871479 -0.284936
v -0.496646 1.860370 -0.307308
v -0.519158 1.849261 -0.328453
v -0.543091 1.838153 -0.347149
v -0.514979 1.849261 -0.335659
v -0.485446 1.860370 -0.326617
v -0.455202 1.871479 -0.318802
v -0.424599 1.882587 -0.311606
v -0.393918 1.893696 -0.304544
v -0.363406 1.904805 -0.297191
v -0.333281 1.915913 -0.289170
v -0.303733 1.927022 -0.280154
v -0.274922 1.938131 -0.269869
v -0.246969 1.949239 -0.258103
v -0.219961 1.960348 -0.244709
v -0.193938 1.971457 -0.229616
v -0.168902 1.982565 -0.212822
v -0.144809 1.993674 -0.194402
v -0.121575 2.004783 -0.174500
v -0.099077 2.015891 -0.153329
v -0.077157 2.027000 -0.131163
v -0.055624 2.038109 -0.108329
v -0.034260 2.049217 -0.085204
v -0.012818 2.060326 -0.062214
v 0.008983 2.071435 -0.039841
v 0.031496 2.082543 -0.018697
f 339 340 341
f 339 341 340
f 339 341 342
f 339 342 341
f 339 342 343
f 339 343 342
f 339 343 344
f 339 344 343
f 339 344 345
f 339 345 344
f 339 345 346
f 339 346 345
f 339 346 347
f 339 347 346
f 339 347 348
f 339 348 347
f 339 348 349
f 339 349 348
f 339 349 350
f 339 350 349
f 339 350 351
f 339 351 350
f 339 351 352
f 339 352 351
f 339 352 353
f 339 353 352
f 339 353 354
f 339 354 353
f 339 354 355
f 339 355 354
f 339 355 356
f 339 356 355
f 339 356 357
f 339 357 356
f 339 357 358
f 339 358 357
f 339 358 359
f 339 359 358
f 339 359 360
f 339 360 359
f 339 360 361
f 339 361 360
f 339 361 362
f 339 362 361
f 339 362 363
f 339 363 362
f 339 363 364
f 339 364 363
f 339 364 365
f 339 365 364
f 339 365 366
f 339 366 365
f 339 366 367
f 339 367 366
f 339 367 368
f 339 368 367
f 339 368 369
f 339 369 368
f 339 369 370
f 339 370 369
f 339 370 371
f 339 371 370
f 339 371 372
f 339 372 371
f 339 372 373
f 339 373 372
f 339 373 374
f 339 374 373
f 339 374 375
f 339 375 374
f 339 375 376
f 339 376 375
f 339 376 377
f 339 377 376
f 339 377 378
f 339 378 377
f 339 378 379
f 339 379 378
f 339 379 380
f 339 380 379
f 339 380 381
f 339 381 380
f 339 381 382
f 339 382 381
f 339 382 383
f 339 383 382
f 339 383 384
f 339 384 383
v 0.055429 2.093652 -0.000000
v 0.034947 2.073705 -0.000627
v 0.013955 2.053758 0.001243
v -0.007302 2.033811 0.004412
v -0.028699 2.013864 0.008263
v -0.050134 1.993917 0.012298
v -0.071516 1.973970 0.016077
v -0.092765 1.954024 0.019206
v -0.113812 1.934077 0.021342
v -0.134596 1.914130 0.022197
v -0.155072 1.894183 0.021547
v -0.175210 1.874236 0.019238
v -0.194992 1.854289 0.015193
v -0.214419 1.834342 0.009411
v -0.233507 1.814395 0.001970
v -0.252287 1.794448 -0.006976
v -0.270805 1.774501 -0.017203
v -0.289120 1.754554 -0.028423
v -0.307302 1.734608 -0.040293
v -0.325431 1.714661 -0.052419
v -0.343599 1.694714 -0.064361
v -0.361906 1.674767 -0.075620
v -0.380478 1.654820 -0.085581
v -0.399561 1.634873 -0.093045
v -0.379080 1.654820 -0.092418
v -0.358088 1.674767 -0.094288
v -0.336831 1.694714 -0.097457
v -0.315434 1.714661 -0.101308
v -0.293999 1.734608 -0.105342
v -0.272617 1.754554 -0.109121
v -0.251367 1.774501 -0.112251
v -0.230321 1.794448 -0.114387
v -0.209537 1.814395 -0.115242
v -0.189060 1.834342 -0.114592
v -0.168923 1.854289 -0.112283
v -0.149141 1.874236 -0.108237
v -0.129714 1.894183 -0.102455
v -0.110626 1.914130 -0.095015
v -0.091846 1.934077 -0.086069
v -0.073328 1.954024 -0.075842
v -0.055013 1.973970 -0.064622
v -0.036831 1.993917 -0.052752
v -0.018701 2.013864 -0.040626
v -0.000534 2.033811 -0.028684
v 0.017773 2.053758 -0.017425
v 0.036345 2.073705 -0.007464
f 385 386 387
f 385 387 386
f 385 387 388
f 385 388 387
f 385 388 389
f 385 389 388
f 385 389 390
f 385 390 389
f 385 390 391
f 385 391 390
f 385 391 392
f 385 392 391
f 385 392 393
f 385 393 392
f 385 393 394
f 385 394 393
f 385 394 395
f 385 395 394
f 385 395 396
f 385 396 395
f 385 396 397
f 385 397 396
f 385 397 398
f 385 398 397
f 385 398 399
f 385 399 398
f 385 399 400
f 385 400 399
f 385 400 401
f 385 401 400
f 385 401 402
f 385 402 401
f 385 402 403
f 385 403 402
f 385 403 404
f 385 404 403
f 385 404 405
f 385 405 404
f 385 405 406
f 385 406 405
f 385 406 407
f 385 407 406
f 385 407 408
f 385 408 407
f 385 408 409
f 385 409 408
f 385 409 410
f 385 410 409
f 385 410 411
f 385 411 410
f 385 411 412
f 385 412 411
f 385 412 413
f 385 413 412
f 385 413 414
f 385 414 413
f 385 414 415
f 385 415 414
f 385 415 416
f 385 416 415
f 385 416 417
f 385 417 416
f 385 417 418
f 385 418 417
f 385 418 419
f 385 419 418
f 385 419 420
f 385 420 419
f 385 420 421
f 385 421 420
f 385 421 422
f 385 422 421
f 385 422 423
f 385 423 422
f 385 423 424
f 385 424 423
f 385 424 425
f 385 425 424
f 385 425 426
f 385 426 425
f 385 426 427
f 385 427 426
f 385 427 428
f 385 428 427
f 385 428 429
f 385 429 428
f 385 429 430
f 385 430 429
v 0.055429 2.093652 -0.000000
v 0.045720 2.120222 -0.011130
v 0.037616 2.146792 -0.024510
v 0.030390 2.173361 -0.039122
v 0.023651 2.199931 -0.054417
v 0.017073 2.226501 -0.069938
v 0.010368 2.253071 -0.085280
v 0.003272 2.279641 -0.100074
v -0.004446 2.306210 -0.113996
v -0.012979 2.332780 -0.126774
v -0.022481 2.359350 -0.138195
v -0.033053 2.385920 -0.148113
v -0.044751 2.412490 -0.156454
v -0.057573 2.439060 -0.163217
v -0.071467 2.465629 -0.168477
v -0.086329 2.492199 -0.172381
v -0.102006 2.518769 -0.175140
v -0.118305 2.545339 -0.177027
v -0.134994 2.571909 -0.178366
v -0.151812 2.598478 -0.179526
v -0.168468 2.625048 -0.180913
v -0.184637 2.651618 -0.182982
v -0.199928 2.678188 -0.186283
v -0.213614 2.704758 -0.191835
v -0.203905 2.678188 -0.180705
v -0.195801 2.651618 -0.167324
v -0.188576 2.625048 -0.152712
v -0.181836 2.598478 -0.137418
v -0.175259 2.571909 -0.121897
v -0.168553 2.545339 -0.106555
v -0.161457 2.518769 -0.091761
v -0.153740 2.492199 -0.077839
v -0.145206 2.465629 -0.065061
v -0.135705 2.439060 -0.053639
v -0.125132 2.412490 -0.043721
v -0.113435 2.385920 -0.035381
v -0.100612 2.359350 -0.028617
v -0.086719 2.332780 -0.023357
v -0.071857 2.306210 -0.019454
v -0.056180 2.279641 -0.016695
v -0.039881 2.253071 -0.014808
v -0.023191 2.226501 -0.013468
v -0.006374 2.199931 -0.012309
v 0.010282 2.173361 -0.010921
v 0.026451 2.146792 -0.008852
v 0.041743 2.120222 -0.005552
f 431 432 433
f 431 433 432
f 431 433 434
f 431 434 433
f 431 434 435
f 431 435 434
f 431 435 436
f 431 436 435
f 431 436 437
f 431 437 436
f 431 437 438
f 431 438 437
f 431 438 439
f 431 439 438
f 431 439 440
f 431 440 439
f 431 440 441
f 431 441 440
f 431 441 442
f 431 442 441
f 431 442 443
f 431 443 442
f 431 443 444
f 431 444 443
f 431 444 445
f 431 445 444
f 431 445 446
f 431 446 445
f 431 446 447
f 431 447 446
f 431 447 448
f 431 448 447
f 431 448 449
f 431 449 448
f 431 449 450
f 431 450 449
f 431 450 451
f 431 451 450
f 431 451 452
f 431 452 451
f 431 452 453
f 431 453 452
f 431 453 454
f 431 454 453
f 431 454 455
f 431 455 454
f 431 455 456
f 431 456 455
f 431 456 457
f 431 457 456
f 431 457 458
f 431 458 457
f 431 458 459
f 431 459 458
f 431 459 460
f 431 460 459
f 431 460 461
f 431 461 460
f 431 461 462
f 431 462 461
f 431 462 463
f 431 463 462
f 431 463 464
f 431 464 463
f 431 464 465
f 431 465 464
f 431 465 466
f 431 466 465
f 431 466 467
f 431 467 466
f 431 467 468
f 431 468 467
f 431 468 469
f 431 469 468
f 431 469 470
f 431 470 469
f 431 470 471
f 431 471 470
f 431 471 472
f 431 472 471
f 431 472 473
f 431 473 472
f 431 473 474
f 431 474 473
f 431 474 475
f 431 475 474
f 431 475 476
f 431 476 475
v 0.055429 2.093652 -0.000000
v 0.044447 2.065558 0.027202
v 0.035117 2.037465 0.055745
v 0.026260 2.009371 0.084672
v 0.017398 1.981277 0.113596
v 0.008179 1.953184 0.142228
v -0.001693 1.925090 0.170332
v -0.012468 1.896996 0.197702
v -0.024360 1.868903 0.224166
v -0.037541 1.840809 0.249584
v -0.052144 1.812715 0.273847
v -0.068259 1.784622 0.296884
v -0.085930 1.756528 0.318658
v -0.105157 1.728434 0.339168
v -0.125896 1.700341 0.358452
v -0.148057 1.672247 0.376583
v -0.171507 1.644153 0.393666
v -0.196073 1.616060 0.409844
v -0.221544 1.587966 0.425288
v -0.247666 1.559872 0.440202
v -0.274147 1.531778 0.454827
v -0.300632 1.503685 0.469447
v -0.326643 1.475591 0.484452
v -0.351003 1.447497 0.500797
v -0.340022 1.475591 0.473595
v -0.330691 1.503685 0.445052
v -0.321834 1.531778 0.416125
v -0.312973 1.559872 0.387201
v -0.303754 1.587966 0.358569
v -0.293882 1.616060 0.330465
v -0.283107 1.644153 0.303095
v -0.271215 1.672247 0.276631
v -0.258034 1.700341 0.251214
v -0.243430 1.728434 0.226950
v -0.227316 1.756528 0.203913
v -0.209645 1.784622 0.182139
v -0.190417 1.812715 0.161629
v -0.169679 1.840809 0.142345
v -0.147518 1.868903 0.124215
v -0.124068 1.896996 0.107131
v -0.099501 1.925090 0.090954
v -0.074031 1.953184 0.075509
v -0.047909 1.981277 0.060595
v -0.021428 2.009371 0.045970
v 0.005057 2.037465 0.031350
v 0.031069 2.065558 0.016345
f 477 478 479
f 477 479 478
f 477 479 480
f 477 480 479
f 477 480 481
f 477 481 480
f 477 481 482
f 477 482 481
f 477 482 483
f 477 483 482
f 477 483 484
f 477 484 483
f 477 484 485
f 477 485 484
f 477 485 486
f 477 486 485
f 477 486 487
f 477 487 486
f 477 487 488
f 477 488 487
f 477 488 489
f 477 489 488
f 477 489 490
f 477 490 489
f 477 490 491
f 477 491 490
f 477 491 492
f 477 492 491
f 477 492 493
f 477 493 492
f 477 493 494
f 477 494 493
f 477 494 495
f 477 495 494
f 477 495 496
f 477 496 495
f 477 496 497
f 477 497 496
f 477 497 498
f 477 498 497
f 477 498 499
f 477 499 498
f 477 499 500
f 477 500 499
f 477 500 501
f 477 501 500
f 477 501 502
f 477 502 501
f 477 502 503
f 477 503 502
f 477 503 504
f 477 504 503
f 477 504 505
f 477 505 504
f 477 505 506
f 477 506 505
f 477 506 507
f 477 507 506
f 477 507 508
f 477 508 507
f 477 508 509
f 477 509 508
f 477 509 510
f 477 510 509
f 477 510 511
f 477 511 510
f 477 511 512
f 477 512 511
f 477 512 513
f 477 513 512
f 477 513 514
f 477 514 513
f 477 514 515
f 477 515 514
f 477 515 516
f 477 516 515
f 477 516 517
f 477 517 516
f 477 517 518
f 477 518 517
f 477 518 519
f 477 519 518
f 477 519 520
f 477 520 519
f 477 520 521
f 477 521 520
f 477 521 522
f 477 522 521
