o mesh
v 0.000000 0.000000 0.060000
v 0.043709 -0.002575 0.043784
v 0.059896 -0.003528 0.000000
v 0.043709 -0.002575 -0.043784
v 0.000000 -0.000000 -0.060000
v -0.043709 0.002575 -0.043784
v -0.059896 0.003528 -0.000000
v -0.043709 0.002575 0.043784
v 0.098930 1.679339 0.040000
v 0.128069 1.677623 0.029190
v 0.138860 1.676987 0.000000
v 0.128069 1.677623 -0.029190
v 0.098930 1.679339 -0.040000
v 0.069791 1.681056 -0.029190
v 0.058999 1.681692 -0.000000
v 0.069791 1.681056 0.029190
f 1 2 10
f 1 10 9
f 2 3 11
f 2 11 10
f 3 4 12
f 3 12 11
f 4 5 13
f 4 13 12
f 5 6 14
f 5 14 13
f 6 7 15
f 6 15 14
f 7 8 16
f 7 16 15
f 8 1 9
f 8 9 16
v 0.098930 1.679339 -0.000000
v 0.100688 1.704240 -0.014202
v 0.104777 1.729140 -0.028814
v 0.109930 1.754041 -0.043614
v 0.115558 1.778942 -0.058497
v 0.121204 1.803842 -0.073383
v 0.126477 1.828743 -0.088204
v 0.131033 1.853643 -0.102899
v 0.134577 1.878544 -0.117415
v 0.136864 1.903444 -0.131710
v 0.137705 1.928345 -0.145750
v 0.136972 1.953245 -0.159512
v 0.134598 1.978146 -0.172986
v 0.130585 2.003046 -0.186171
v 0.124997 2.027947 -0.199079
v 0.117963 2.052848 -0.211732
v 0.109673 2.077748 -0.224163
v 0.100370 2.102649 -0.236417
v 0.090350 2.127549 -0.248544
v 0.079957 2.152450 -0.260605
v 0.069583 2.177350 -0.272669
v 0.059682 2.202251 -0.284817
v 0.050846 2.227151 -0.297153
v 0.044342 2.252052 -0.309899
v 0.042584 2.227151 -0.295698
v 0.038495 2.202251 -0.281085
v 0.033341 2.177350 -0.266286
v 0.027713 2.152450 -0.251402
v 0.022067 2.127549 -0.236516
v 0.016794 2.102649 -0.221695
v 0.012238 2.077748 -0.207001
v 0.008694 2.052848 -0.192484
v 0.006407 2.027947 -0.178190
v 0.005566 2.003046 -0.164149
v 0.006300 1.978146 -0.150387
v 0.008673 1.953245 -0.136913
v 0.012686 1.928345 -0.123728
v 0.018274 1.903444 -0.110820
v 0.025308 1.878544 -0.098167
v 0.033599 1.853643 -0.085736
v 0.042901 1.828743 -0.073482
v 0.052921 1.803842 -0.061355
v 0.063314 1.778942 -0.049294
v 0.073689 1.754041 -0.037230
v 0.083589 1.729140 -0.025082
v 0.092425 1.704240 -0.012746
f 17 18 19
f 17 19 18
f 17 19 20
f 17 20 19
f 17 20 21
f 17 21 20
f 17 21 22
f 17 22 21
f 17 22 23
f 17 23 22
f 17 23 24
f 17 24 23
f 17 24 25
f 17 25 24
f 17 25 26
f 17 26 25
f 17 26 27
f 17 27 26
f 17 27 28
f 17 28 27
f 17 28 29
f 17 29 28
f 17 29 30
f 17 30 29
f 17 30 31
f 17 31 30
f 17 31 32
f 17 32 31
f 17 32 33
f 17 33 32
f 17 33 34
f 17 34 33
f 17 34 35
f 17 35 34
f 17 35 36
f 17 36 35
f 17 36 37
f 17 37 36
f 17 37 38
f 17 38 37
f 17 38 39
f 17 39 38
f 17 39 40
f 17 40 39
f 17 40 41
f 17 41 40
f 17 41 42
f 17 42 41
f 17 42 43
f 17 43 42
f 17 43 44
f 17 44 43
f 17 44 45
f 17 45 44
f 17 45 46
f 17 46 45
f 17 46 47
f 17 47 46
f 17 47 48
f 17 48 47
f 17 48 49
f 17 49 48
f 17 49 50
f 17 50 49
f 17 50 51
f 17 51 50
f 17 51 52
f 17 52 51
f 17 52 53
f 17 53 52
f 17 53 54
f 17 54 53
f 17 54 55
f 17 55 54
f 17 55 56
f 17 56 55
f 17 56 57
f 17 57 56
f 17 57 58
f 17 58 57
f 17 58 59
f 17 59 58
f 17 59 60
f 17 60 59
f 17 60 61
f 17 61 60
f 17 61 62
f 17 62 61
v 0.098930 1.679339 -0.000000
v 0.129515 1.664825 0.025802
v 0.162856 1.650311 0.049136
v 0.197564 1.635797 0.071247
v 0.232949 1.621283 0.092752
v 0.268468 1.606770 0.114137
v 0.303645 1.592256 0.135828
v 0.338059 1.577742 0.158203
v 0.371342 1.563228 0.181589
v 0.403191 1.548714 0.206259
v 0.433368 1.534200 0.232426
v 0.461711 1.519686 0.260235
v 0.488139 1.505172 0.289758
v 0.512652 1.490658 0.320995
v 0.535331 1.476144 0.353874
v 0.556338 1.461630 0.388249
v 0.575911 1.447116 0.423909
v 0.594353 1.432602 0.460580
v 0.612032 1.418088 0.497935
v 0.629369 1.403574 0.535596
v 0.646840 1.389060 0.573137
v 0.664989 1.374546 0.610072
v 0.684503 1.360032 0.645784
v 0.706774 1.345518 0.679028
v 0.676189 1.360032 0.653226
v 0.642847 1.374546 0.629892
v 0.608140 1.389060 0.607780
v 0.572754 1.403574 0.586276
v 0.537235 1.418088 0.564891
v 0.502058 1.432602 0.543200
v 0.467645 1.447116 0.520825
v 0.434361 1.461630 0.497439
v 0.402513 1.476144 0.472768
v 0.372336 1.490658 0.446601
v 0.343992 1.505172 0.418793
v 0.317564 1.519686 0.389270
v 0.293052 1.534200 0.358033
v 0.270373 1.548714 0.325154
v 0.249365 1.563228 0.290778
v 0.229793 1.577742 0.255119
v 0.211350 1.592256 0.218447
v 0.193671 1.606770 0.181093
v 0.176334 1.621283 0.143432
v 0.158864 1.635797 0.105890
v 0.140715 1.650311 0.068956
v 0.121201 1.664825 0.033244
f 63 64 65
f 63 65 64
f 63 65 66
f 63 66 65
f 63 66 67
f 63 67 66
f 63 67 68
f 63 68 67
f 63 68 69
f 63 69 68
f 63 69 70
f 63 70 69
f 63 70 71
f 63 71 70
f 63 71 72
f 63 72 71
f 63 72 73
f 63 73 72
f 63 73 74
f 63 74 73
f 63 74 75
f 63 75 74
f 63 75 76
f 63 76 75
f 63 76 77
f 63 77 76
f 63 77 78
f 63 78 77
f 63 78 79
f 63 79 78
f 63 79 80
f 63 80 79
f 63 80 81
f 63 81 80
f 63 81 82
f 63 82 81
f 63 82 83
f 63 83 82
f 63 83 84
f 63 84 83
f 63 84 85
f 63 85 84
f 63 85 86
f 63 86 85
f 63 86 87
f 63 87 86
f 63 87 88
f 63 88 87
f 63 88 89
f 63 89 88
f 63 89 90
f 63 90 89
f 63 90 91
f 63 91 90
f 63 91 92
f 63 92 91
f 63 92 93
f 63 93 92
f 63 93 94
f 63 94 93
f 63 94 95
f 63 95 94
f 63 95 96
f 63 96 95
f 63 96 97
f 63 97 96
f 63 97 98
f 63 98 97
f 63 98 99
f 63 99 98
f 63 99 100
f 63 100 99
f 63 100 101
f 63 101 100
f 63 101 102
f 63 102 101
f 63 102 103
f 63 103 102
f 63 103 104
f 63 104 103
f 63 104 105
f 63 105 104
f 63 105 106
f 63 106 105
f 63 106 107
f 63 107 106
f 63 107 108
f 63 108 107
v 0.098930 1.679339 -0.000000
v 0.125964 1.651923 -0.005468
v 0.152990 1.624506 -0.014229
v 0.180013 1.597090 -0.024553
v 0.207034 1.569674 -0.035610
v 0.234055 1.542257 -0.046757
v 0.261077 1.514841 -0.057432
v 0.288101 1.487424 -0.067143
v 0.315128 1.460008 -0.075466
v 0.342159 1.432591 -0.082045
v 0.369195 1.405175 -0.086607
v 0.396236 1.377758 -0.088967
v 0.423282 1.350342 -0.089029
v 0.450334 1.322925 -0.086793
v 0.477390 1.295509 -0.082354
v 0.504451 1.268093 -0.075898
v 0.531516 1.240676 -0.067699
v 0.558585 1.213260 -0.058111
v 0.585655 1.185843 -0.047560
v 0.612727 1.158427 -0.036537
v 0.639798 1.131010 -0.025603
v 0.666868 1.103594 -0.015403
v 0.693934 1.076177 -0.006766
v 0.720992 1.048761 -0.001421
v 0.693958 1.076177 0.004048
v 0.666932 1.103594 0.012809
v 0.639909 1.131010 0.023132
v 0.612888 1.158427 0.034190
v 0.585867 1.185843 0.045336
v 0.558845 1.213260 0.056011
v 0.531821 1.240676 0.065723
v 0.504794 1.268093 0.074045
v 0.477763 1.295509 0.080624
v 0.450727 1.322925 0.085187
v 0.423686 1.350342 0.087546
v 0.396639 1.377758 0.087608
v 0.369588 1.405175 0.085372
v 0.342532 1.432591 0.080933
v 0.315470 1.460008 0.074477
v 0.288405 1.487424 0.066279
v 0.261337 1.514841 0.056691
v 0.234267 1.542257 0.046139
v 0.207195 1.569674 0.035116
v 0.180124 1.597090 0.024182
v 0.153054 1.624506 0.013982
v 0.125988 1.651923 0.005345
f 109 110 111
f 109 111 110
f 109 111 112
f 109 112 111
f 109 112 113
f 109 113 112
f 109 113 114
f 109 114 113
f 109 114 115
f 109 115 114
f 109 115 116
f 109 116 115
f 109 116 117
f 109 117 116
f 109 117 118
f 109 118 117
f 109 118 119
f 109 119 118
f 109 119 120
f 109 120 119
f 109 120 121
f 109 121 120
f 109 121 122
f 109 122 121
f 109 122 123
f 109 123 122
f 109 123 124
f 109 124 123
f 109 124 125
f 109 125 124
f 109 125 126
f 109 126 125
f 109 126 127
f 109 127 126
f 109 127 128
f 109 128 127
f 109 128 129
f 109 129 128
f 109 129 130
f 109 130 129
f 109 130 131
f 109 131 130
f 109 131 132
f 109 132 131
f 109 132 133
f 109 133 132
f 109 133 134
f 109 134 133
f 109 134 135
f 109 135 134
f 109 135 136
f 109 136 135
f 109 136 137
f 109 137 136
f 109 137 138
f 109 138 137
f 109 138 139
f 109 139 138
f 109 139 140
f 109 140 139
f 109 140 141
f 109 141 140
f 109 141 142
f 109 142 141
f 109 142 143
f 109 143 142
f 109 143 144
f 109 144 143
f 109 144 145
f 109 145 144
f 109 145 146
f 109 146 145
f 109 146 147
f 109 147 146
f 109 147 148
f 109 148 147
f 109 148 149
f 109 149 148
f 109 149 150
f 109 150 149
f 109 150 151
f 109 151 150
f 109 151 152
f 109 152 151
f 109 152 153
f 109 153 152
f 109 153 154
f 109 154 153
v 0.098930 1.679339 -0.000000
v 0.115932 1.708267 0.026957
v 0.131373 1.737195 0.055680
v 0.146347 1.766123 0.084932
v 0.161297 1.795051 0.114211
v 0.176552 1.823979 0.143144
v 0.192387 1.852907 0.171422
v 0.209034 1.881835 0.198780
v 0.226692 1.910763 0.224995
v 0.245521 1.939691 0.249883
v 0.265646 1.968619 0.273305
v 0.287149 1.997547 0.295168
v 0.310073 2.026475 0.315423
v 0.334417 2.055403 0.334070
v 0.360139 2.084331 0.351157
v 0.387156 2.113259 0.366779
v 0.415346 2.142187 0.381074
v 0.444546 2.171115 0.394226
v 0.474558 2.200043 0.406458
v 0.505150 2.228971 0.418034
v 0.536047 2.257899 0.429265
v 0.566920 2.286827 0.440523
v 0.597326 2.315755 0.452310
v 0.626171 2.344683 0.465863
v 0.609169 2.315755 0.438906
v 0.593728 2.286827 0.410183
v 0.578754 2.257899 0.380931
v 0.563804 2.228971 0.351652
v 0.548549 2.200043 0.322719
v 0.532714 2.171115 0.294441
v 0.516067 2.142187 0.267083
v 0.498409 2.113259 0.240868
v 0.479580 2.084331 0.215980
v 0.459455 2.055403 0.192558
v 0.437952 2.026475 0.170695
v 0.415028 1.997547 0.150440
v 0.390684 1.968619 0.131793
v 0.364962 1.939691 0.114705
v 0.337945 1.910763 0.099084
v 0.309755 1.881835 0.084789
v 0.280555 1.852907 0.071637
v 0.250542 1.823979 0.059405
v 0.219951 1.795051 0.047829
v 0.189054 1.766123 0.036598
v 0.158181 1.737195 0.025340
v 0.127775 1.708267 0.013553
f 155 156 157
f 155 157 156
f 155 157 158
f 155 158 157
f 155 158 159
f 155 159 158
f 155 159 160
f 155 160 159
f 155 160 161
f 155 161 160
f 155 161 162
f 155 162 161
f 155 162 163
f 155 163 162
f 155 163 164
f 155 164 163
f 155 164 165
f 155 165 164
f 155 165 166
f 155 166 165
f 155 166 167
f 155 167 166
f 155 167 168
f 155 168 167
f 155 168 169
f 155 169 168
f 155 169 170
f 155 170 169
f 155 170 171
f 155 171 170
f 155 171 172
f 155 172 171
f 155 172 173
f 155 173 172
f 155 173 174
f 155 174 173
f 155 174 175
f 155 175 174
f 155 175 176
f 155 176 175
f 155 176 177
f 155 177 176
f 155 177 178
f 155 178 177
f 155 178 179
f 155 179 178
f 155 179 180
f 155 180 179
f 155 180 181
f 155 181 180
f 155 181 182
f 155 182 181
f 155 182 183
f 155 183 182
f 155 183 184
f 155 184 183
f 155 184 185
f 155 185 184
f 155 185 186
f 155 186 185
f 155 186 187
f 155 187 186
f 155 187 188
f 155 188 187
f 155 188 189
f 155 189 188
f 155 189 190
f 155 190 189
f 155 190 191
f 155 191 190
f 155 191 192
f 155 192 191
f 155 192 193
f 155 193 192
f 155 193 194
f 155 194 193
f 155 194 195
f 155 195 194
f 155 195 196
f 155 196 195
f 155 196 197
f 155 197 196
f 155 197 198
f 155 198 197
f 155 198 199
f 155 199 198
f 155 199 200
f 155 200 199
v 0.098930 1.679339 -0.000000
v 0.092806 1.653944 -0.023592
v 0.083504 1.628548 -0.046904
v 0.072479 1.603153 -0.070063
v 0.060508 1.577758 -0.093139
v 0.048232 1.552362 -0.116188
v 0.036222 1.526967 -0.139260
v 0.024996 1.501571 -0.162402
v 0.015006 1.476176 -0.185653
v 0.006634 1.450780 -0.209046
v 0.000177 1.425385 -0.232609
v -0.004160 1.399990 -0.256359
v -0.006274 1.374594 -0.280305
v -0.006165 1.349199 -0.304447
v -0.003936 1.323803 -0.328777
v 0.000208 1.298408 -0.353275
v 0.005970 1.273012 -0.377916
v 0.012969 1.247617 -0.402667
v 0.020750 1.222222 -0.427487
v 0.028798 1.196826 -0.452330
v 0.036541 1.171431 -0.477146
v 0.043339 1.146035 -0.501879
v 0.048413 1.120640 -0.526459
v 0.050309 1.095244 -0.550759
v 0.056432 1.120640 -0.527167
v 0.065734 1.146035 -0.503856
v 0.076759 1.171431 -0.480696
v 0.088730 1.196826 -0.457621
v 0.101007 1.222222 -0.434572
v 0.113016 1.247617 -0.411499
v 0.124242 1.273012 -0.388358
v 0.134232 1.298408 -0.365107
v 0.142604 1.323803 -0.341713
v 0.149061 1.349199 -0.318150
v 0.153398 1.374594 -0.294401
v 0.155512 1.399990 -0.270455
v 0.155403 1.425385 -0.246312
v 0.153174 1.450780 -0.221983
v 0.149030 1.476176 -0.197484
v 0.143268 1.501571 -0.172843
v 0.136270 1.526967 -0.148092
v 0.128488 1.552362 -0.123273
v 0.120440 1.577758 -0.098430
v 0.112697 1.603153 -0.073613
v 0.105899 1.628548 -0.048881
v 0.100825 1.653944 -0.024300
f 201 202 203
f 201 203 202
f 201 203 204
f 201 204 203
f 201 204 205
f 201 205 204
f 201 205 206
f 201 206 205
f 201 206 207
f 201 207 206
f 201 207 208
f 201 208 207
f 201 208 209
f 201 209 208
f 201 209 210
f 201 210 209
f 201 210 211
f 201 211 210
f 201 211 212
f 201 212 211
f 201 212 213
f 201 213 212
f 201 213 214
f 201 214 213
f 201 214 215
f 201 215 214
f 201 215 216
f 201 216 215
f 201 216 217
f 201 217 216
f 201 217 218
f 201 218 217
f 201 218 219
f 201 219 218
f 201 219 220
f 201 220 219
f 201 220 221
f 201 221 220
f 201 221 222
f 201 222 221
f 201 222 223
f 201 223 222
f 201 223 224
f 201 224 223
f 201 224 225
f 201 225 224
f 201 225 226
f 201 226 225
f 201 226 227
f 201 227 226
f 201 227 228
f 201 228 227
f 201 228 229
f 201 229 228
f 201 229 230
f 201 230 229
f 201 230 231
f 201 231 230
f 201 231 232
f 201 232 231
f 201 232 233
f 201 233 232
f 201 233 234
f 201 234 233
f 201 234 235
f 201 235 234
f 201 235 236
f 201 236 235
f 201 236 237
f 201 237 236
f 201 237 238
f 201 238 237
f 201 238 239
f 201 239 238
f 201 239 240
f 201 240 239
f 201 240 241
f 201 241 240
f 201 241 242
f 201 242 241
f 201 242 243
f 201 243 242
f 201 243 244
f 201 244 243
f 201 244 245
f 201 245 244
f 201 245 246
f 201 246 245
v 0.098930 1.679339 -0.000000
v 0.080419 1.656767 -0.012402
v 0.059939 1.634195 -0.022695
v 0.038381 1.611623 -0.031835
v 0.016227 1.589051 -0.040335
v -0.006127 1.566479 -0.048623
v -0.028324 1.543907 -0.057078
v -0.050041 1.521335 -0.066047
v -0.070996 1.498763 -0.075831
v -0.090951 1.476191 -0.086688
v -0.109718 1.453619 -0.098815
v -0.127170 1.431047 -0.112350
v -0.143243 1.408475 -0.127362
v -0.157935 1.385903 -0.143851
v -0.171313 1.363331 -0.161749
v -0.183503 1.340759 -0.180917
v -0.194693 1.318187 -0.201157
v -0.205120 1.295615 -0.222213
v -0.215069 1.273043 -0.243782
v -0.224860 1.250471 -0.265519
v -0.234850 1.227899 -0.287043
v -0.245437 1.205327 -0.307927
v -0.257102 1.182755 -0.327659
v -0.270736 1.160183 -0.345281
v -0.252225 1.182755 -0.332880
v -0.231745 1.205327 -0.322587
v -0.210188 1.227899 -0.313447
v -0.188033 1.250471 -0.304946
v -0.165680 1.273043 -0.296659
v -0.143483 1.295615 -0.288203
v -0.121765 1.318187 -0.279235
v -0.100810 1.340759 -0.269450
v -0.080856 1.363331 -0.258594
v -0.062089 1.385903 -0.246467
v -0.044636 1.408475 -0.232932
v -0.028564 1.431047 -0.217920
v -0.013871 1.453619 -0.201430
v -0.000494 1.476191 -0.183533
v 0.011697 1.498763 -0.164364
v 0.022886 1.521335 -0.144125
v 0.033314 1.543907 -0.123069
v 0.043262 1.566479 -0.101500
v 0.053053 1.589051 -0.079763
v 0.063044 1.611623 -0.058239
v 0.073631 1.634195 -0.037354
v 0.085296 1.656767 -0.017623
f 247 248 249
f 247 249 248
f 247 249 250
f 247 250 249
f 247 250 251
f 247 251 250
f 247 251 252
f 247 252 251
f 247 252 253
f 247 253 252
f 247 253 254
f 247 254 253
f 247 254 255
f 247 255 254
f 247 255 256
f 247 256 255
f 247 256 257
f 247 257 256
f 247 257 258
f 247 258 257
f 247 258 259
f 247 259 258
f 247 259 260
f 247 260 259
f 247 260 261
f 247 261 260
f 247 261 262
f 247 262 261
f 247 262 263
f 247 263 262
f 247 263 264
f 247 264 263
f 247 264 265
f 247 265 264
f 247 265 266
f 247 266 265
f 247 266 267
f 247 267 266
f 247 267 268
f 247 268 267
f 247 268 269
f 247 269 268
f 247 269 270
f 247 270 269
f 247 270 271
f 247 271 270
f 247 271 272
f 247 272 271
f 247 272 273
f 247 273 272
f 247 273 274
f 247 274 273
f 247 274 275
f 247 275 274
f 247 275 276
f 247 276 275
f 247 276 277
f 247 277 276
f 247 277 278
f 247 278 277
f 247 278 279
f 247 279 278
f 247 279 280
f 247 280 279
f 247 280 281
f 247 281 280
f 247 281 282
f 247 282 281
f 247 282 283
f 247 283 282
f 247 283 284
f 247 284 283
f 247 284 285
f 247 285 284
f 247 285 286
f 247 286 285
f 247 286 287
f 247 287 286
f 247 287 288
f 247 288 287
f 247 288 289
f 247 289 288
f 247 289 290
f 247 290 289
f 247 290 291
f 247 291 290
f 247 291 292
f 247 292 291
v 0.098930 1.679339 -0.000000
v 0.082325 1.708192 -0.005064
v 0.065627 1.737045 -0.012613
v 0.048892 1.765898 -0.021158
v 0.032144 1.794751 -0.030053
v 0.015401 1.823603 -0.038812
v -0.001321 1.852456 -0.047023
v -0.018010 1.881309 -0.054331
v -0.034653 1.910162 -0.060434
v -0.051243 1.939015 -0.065083
v -0.067770 1.967867 -0.068086
v -0.084232 1.996720 -0.069314
v -0.100625 2.025573 -0.068702
v -0.116949 2.054426 -0.066248
v -0.133206 2.083279 -0.062020
v -0.149402 2.112132 -0.056146
v -0.165544 2.140984 -0.048818
v -0.181641 2.169837 -0.040284
v -0.197704 2.198690 -0.030848
v -0.213746 2.227543 -0.020865
v -0.229784 2.256396 -0.010745
v -0.245834 2.285248 -0.000974
v -0.261922 2.314101 0.007799
v -0.278103 2.342954 0.014089
v -0.261498 2.314101 0.019153
v -0.244800 2.285248 0.026701
v -0.228065 2.256396 0.035247
v -0.211317 2.227543 0.044142
v -0.194574 2.198690 0.052900
v -0.177852 2.169837 0.061111
v -0.161163 2.140984 0.068420
v -0.144520 2.112132 0.074523
v -0.127930 2.083279 0.079171
v -0.111402 2.054426 0.082175
v -0.094941 2.025573 0.083403
v -0.078548 1.996720 0.082790
v -0.062224 1.967867 0.080337
v -0.045967 1.939015 0.076109
v -0.029771 1.910162 0.070235
v -0.013629 1.881309 0.062907
v 0.002468 1.852456 0.054373
v 0.018531 1.823603 0.044937
v 0.034573 1.794751 0.034954
v 0.050611 1.765898 0.024833
v 0.066661 1.737045 0.015063
v 0.082749 1.708192 0.006290
f 293 294 295
f 293 295 294
f 293 295 296
f 293 296 295
f 293 296 297
f 293 297 296
f 293 297 298
f 293 298 297
f 293 298 299
f 293 299 298
f 293 299 300
f 293 300 299
f 293 300 301
f 293 301 300
f 293 301 302
f 293 302 301
f 293 302 303
f 293 303 302
f 293 303 304
f 293 304 303
f 293 304 305
f 293 305 304
f 293 305 306
f 293 306 305
f 293 306 307
f 293 307 306
f 293 307 308
f 293 308 307
f 293 308 309
f 293 309 308
f 293 309 310
f 293 310 309
f 293 310 311
f 293 311 310
f 293 311 312
f 293 312 311
f 293 312 313
f 293 313 312
f 293 313 314
f 293 314 313
f 293 314 315
f 293 315 314
f 293 315 316
f 293 316 315
f 293 316 317
f 293 317 316
f 293 317 318
f 293 318 317
f 293 318 319
f 293 319 318
f 293 319 320
f 293 320 319
f 293 320 321
f 293 321 320
f 293 321 322
f 293 322 321
f 293 322 323
f 293 323 322
f 293 323 324
f 293 324 323
f 293 324 325
f 293 325 324
f 293 325 326
f 293 326 325
f 293 326 327
f 293 327 326
f 293 327 328
f 293 328 327
f 293 328 329
f 293 329 328
f 293 329 330
f 293 330 329
f 293 330 331
f 293 331 330
f 293 331 332
f 293 332 331
f 293 332 333
f 293 333 332
f 293 333 334
f 293 334 333
f 293 334 335
f 293 335 334
f 293 335 336
f 293 336 335
f 293 336 337
f 293 337 336
f 293 337 338
f 293 338 337
v 0.098930 1.679339 -0.000000
v 0.081148 1.658665 0.025273
v 0.065760 1.637990 0.052827
v 0.051610 1.617315 0.081562
v 0.038108 1.596641 0.110914
v 0.024775 1.575966 0.140428
v 0.011192 1.555291 0.169703
v -0.003017 1.534617 0.198381
v -0.018181 1.513942 0.226149
v -0.034575 1.493267 0.252745
v -0.052411 1.472593 0.277965
v -0.071836 1.451918 0.301670
v -0.092925 1.431243 0.323789
v -0.115678 1.410569 0.344322
v -0.140019 1.389894 0.363340
v -0.165804 1.369219 0.380982
v -0.192818 1.348545 0.397452
v -0.220786 1.327870 0.413012
v -0.249381 1.307195 0.427975
v -0.278226 1.286521 0.442699
v -0.306901 1.265846 0.457585
v -0.334929 1.245171 0.473088
v -0.361718 1.224497 0.489772
v -0.386115 1.203822 0.508737
v -0.368334 1.224497 0.483465
v -0.352946 1.245171 0.455910
v -0.338796 1.265846 0.427175
v -0.325293 1.286521 0.397824
v -0.311960 1.307195 0.368310
v -0.298377 1.327870 0.339034
v -0.284168 1.348545 0.310356
v -0.269004 1.369219 0.282588
v -0.252611 1.389894 0.255992
v -0.234774 1.410569 0.230772
v -0.215349 1.431243 0.207067
v -0.194260 1.451918 0.184948
v -0.171508 1.472593 0.164415
v -0.147166 1.493267 0.145397
v -0.121382 1.513942 0.127755
v -0.094368 1.534617 0.111285
v -0.066399 1.555291 0.095725
v -0.037805 1.575966 0.080762
v -0.008959 1.596641 0.066039
v 0.019715 1.617315 0.051152
v 0.047743 1.637990 0.035649
v 0.074533 1.658665 0.018965
f 339 340 341
f 339 341 340
f 339 341 342
f 339 342 341
f 339 342 343
f 339 343 342
f 339 343 344
f 339 344 343
f 339 344 345
f 339 345 344
f 339 345 346
f 339 346 345
f 339 346 347
f 339 347 346
f 339 347 348
f 339 348 347
f 339 348 349
f 339 349 348
f 339 349 350
f 339 350 349
f 339 350 351
f 339 351 350
f 339 351 352
f 339 352 351
f 339 352 353
f 339 353 352
f 339 353 354
f 339 354 353
f 339 354 355
f 339 355 354
f 339 355 356
f 339 356 355
f 339 356 357
f 339 357 356
f 339 357 358
f 339 358 357
f 339 358 359
f 339 359 358
f 339 359 360
f 339 360 359
f 339 360 361
f 339 361 360
f 339 361 362
f 339 362 361
f 339 362 363
f 339 363 362
f 339 363 364
f 339 364 363
f 339 364 365
f 339 365 364
f 339 365 366
f 339 366 365
f 339 366 367
f 339 367 366
f 339 367 368
f 339 368 367
f 339 368 369
f 339 369 368
f 339 369 370
f 339 370 369
f 339 370 371
f 339 371 370
f 339 371 372
f 339 372 371
f 339 372 373
f 339 373 372
f 339 373 374
f 339 374 373
f 339 374 375
f 339 375 374
f 339 375 376
f 339 376 375
f 339 376 377
f 339 377 376
f 339 377 378
f 339 378 377
f 339 378 379
f 339 379 378
f 339 379 380
f 339 380 379
f 339 380 381
f 339 381 380
f 339 381 382
f 339 382 381
f 339 382 383
f 339 383 382
f 339 383 384
f 339 384 383
