o mesh
v 0.000000 -0.000349 0.011995
v 0.010265 -0.001797 0.005950
v 0.010265 -0.001448 -0.006045
v 0.000000 0.000349 -0.011995
v -0.010265 0.001797 -0.005950
v -0.010265 0.001448 0.006045
v 0.079495 0.502318 0.022616
v 0.086338 0.501353 0.018587
v 0.086338 0.501585 0.010590
v 0.079495 0.502783 0.006623
v 0.072652 0.503748 0.010653
v 0.072652 0.503516 0.018650
f 1 2 8
f 1 8 7
f 2 3 9
f 2 9 8
f 3 4 10
f 3 10 9
f 4 5 11
f 4 11 10
f 5 6 12
f 5 12 11
f 6 1 7
f 6 7 12
v 0.079495 0.502550 0.014620
v 0.049668 0.495222 0.063975
v 0.026600 0.487531 0.089054
v 0.005170 0.479752 0.108249
v -0.015213 0.471916 0.123684
v -0.034766 0.464036 0.136139
v -0.053590 0.456117 0.145973
v -0.071734 0.448162 0.153366
v -0.089225 0.440171 0.158413
v -0.106076 0.432146 0.161162
v -0.122294 0.424087 0.161637
v -0.137882 0.415994 0.159850
v -0.152842 0.407867 0.155807
v -0.167173 0.399707 0.149506
v -0.180875 0.391513 0.140944
v -0.193944 0.383285 0.130108
v -0.206373 0.375022 0.116974
v -0.218149 0.366725 0.101494
v -0.229246 0.358391 0.083573
v -0.239612 0.350017 0.063031
v -0.249149 0.341600 0.039509
v -0.257639 0.333126 0.012226
v -0.264491 0.324564 -0.020939
v -0.264584 0.315639 -0.078382
v -0.234757 0.322967 -0.127738
v -0.211689 0.330658 -0.152816
v -0.190259 0.338438 -0.172011
v -0.169876 0.346273 -0.187446
v -0.150323 0.354153 -0.199901
v -0.131499 0.362072 -0.209735
v -0.113355 0.370028 -0.217129
v -0.095864 0.378018 -0.222175
v -0.079013 0.386043 -0.224924
v -0.062795 0.394102 -0.225399
v -0.047207 0.402195 -0.223613
v -0.032247 0.410322 -0.219569
v -0.017915 0.418482 -0.213268
v -0.004213 0.426676 -0.204706
v 0.008856 0.434905 -0.193870
v 0.021285 0.443167 -0.180737
v 0.033061 0.451465 -0.165256
v 0.044157 0.459799 -0.147335
v 0.054523 0.468172 -0.126793
v 0.064060 0.476590 -0.103271
v 0.072550 0.485064 -0.075988
v 0.079402 0.493626 -0.042823
f 13 14 15
f 13 15 14
f 13 15 16
f 13 16 15
f 13 16 17
f 13 17 16
f 13 17 18
f 13 18 17
f 13 18 19
f 13 19 18
f 13 19 20
f 13 20 19
f 13 20 21
f 13 21 20
f 13 21 22
f 13 22 21
f 13 22 23
f 13 23 22
f 13 23 24
f 13 24 23
f 13 24 25
f 13 25 24
f 13 25 26
f 13 26 25
f 13 26 27
f 13 27 26
f 13 27 28
f 13 28 27
f 13 28 29
f 13 29 28
f 13 29 30
f 13 30 29
f 13 30 31
f 13 31 30
f 13 31 32
f 13 32 31
f 13 32 33
f 13 33 32
f 13 33 34
f 13 34 33
f 13 34 35
f 13 35 34
f 13 35 36
f 13 36 35
f 13 36 37
f 13 37 36
f 13 37 38
f 13 38 37
f 13 38 39
f 13 39 38
f 13 39 40
f 13 40 39
f 13 40 41
f 13 41 40
f 13 41 42
f 13 42 41
f 13 42 43
f 13 43 42
f 13 43 44
f 13 44 43
f 13 44 45
f 13 45 44
f 13 45 46
f 13 46 45
f 13 46 47
f 13 47 46
f 13 47 48
f 13 48 47
f 13 48 49
f 13 49 48
f 13 49 50
f 13 50 49
f 13 50 51
f 13 51 50
f 13 51 52
f 13 52 51
f 13 52 53
f 13 53 52
f 13 53 54
f 13 54 53
f 13 54 55
f 13 55 54
f 13 55 56
f 13 56 55
f 13 56 57
f 13 57 56
f 13 57 58
f 13 58 57
v 0.000000 0.002851 0.011656
v 0.010268 -0.000131 0.006209
v 0.010268 -0.002982 -0.005447
v 0.000000 -0.002851 -0.011656
v -0.010268 0.000131 -0.006209
v -0.010268 0.002982 0.005447
v 0.077677 0.485294 -0.110458
v 0.084522 0.483306 -0.114090
v 0.084522 0.481406 -0.121861
v 0.077677 0.481493 -0.126000
v 0.070831 0.483481 -0.122369
v 0.070831 0.485382 -0.114598
f 59 60 66
f 59 66 65
f 60 61 67
f 60 67 66
f 61 62 68
f 61 68 67
f 62 63 69
f 62 69 68
f 63 64 70
f 63 70 69
f 64 59 65
f 64 65 70
v 0.077677 0.483394 -0.118229
v 0.016448 0.490906 -0.065802
v -0.034661 0.493117 -0.028406
v -0.081997 0.493350 0.003386
v -0.126334 0.492012 0.030723
v -0.167852 0.489196 0.053874
v -0.206547 0.484902 0.072829
v -0.242345 0.479089 0.087484
v -0.275154 0.471711 0.097699
v -0.304885 0.462719 0.103342
v -0.331462 0.452076 0.104300
v -0.354832 0.439751 0.100494
v -0.374967 0.425732 0.091884
v -0.391867 0.410017 0.078468
v -0.405560 0.392623 0.060290
v -0.416099 0.373575 0.037426
v -0.423560 0.352915 0.009990
v -0.428032 0.330688 -0.021885
v -0.429608 0.306945 -0.058062
v -0.428360 0.281721 -0.098433
v -0.424293 0.255021 -0.142991
v -0.417227 0.226748 -0.192004
v -0.406388 0.196499 -0.246621
v -0.385430 0.160948 -0.316269
v -0.324201 0.153436 -0.368696
v -0.273092 0.151225 -0.406092
v -0.225756 0.150992 -0.437884
v -0.181419 0.152330 -0.465221
v -0.139901 0.155146 -0.488372
v -0.101206 0.159441 -0.507328
v -0.065408 0.165253 -0.521982
v -0.032599 0.172631 -0.532197
v -0.002868 0.181623 -0.537840
v 0.023709 0.192267 -0.538798
v 0.047079 0.204591 -0.534992
v 0.067214 0.218610 -0.526382
v 0.084114 0.234325 -0.512967
v 0.097807 0.251719 -0.494788
v 0.108347 0.270767 -0.471924
v 0.115807 0.291427 -0.444488
v 0.120279 0.313654 -0.412613
v 0.121855 0.337397 -0.376436
v 0.120607 0.362621 -0.336065
v 0.116540 0.389322 -0.291507
v 0.109474 0.417594 -0.242494
v 0.098635 0.447843 -0.187877
f 71 72 73
f 71 73 72
f 71 73 74
f 71 74 73
f 71 74 75
f 71 75 74
f 71 75 76
f 71 76 75
f 71 76 77
f 71 77 76
f 71 77 78
f 71 78 77
f 71 78 79
f 71 79 78
f 71 79 80
f 71 80 79
f 71 80 81
f 71 81 80
f 71 81 82
f 71 82 81
f 71 82 83
f 71 83 82
f 71 83 84
f 71 84 83
f 71 84 85
f 71 85 84
f 71 85 86
f 71 86 85
f 71 86 87
f 71 87 86
f 71 87 88
f 71 88 87
f 71 88 89
f 71 89 88
f 71 89 90
f 71 90 89
f 71 90 91
f 71 91 90
f 71 91 92
f 71 92 91
f 71 92 93
f 71 93 92
f 71 93 94
f 71 94 93
f 71 94 95
f 71 95 94
f 71 95 96
f 71 96 95
f 71 96 97
f 71 97 96
f 71 97 98
f 71 98 97
f 71 98 99
f 71 99 98
f 71 99 100
f 71 100 99
f 71 100 101
f 71 101 100
f 71 101 102
f 71 102 101
f 71 102 103
f 71 103 102
f 71 103 104
f 71 104 103
f 71 104 105
f 71 105 104
f 71 105 106
f 71 106 105
f 71 106 107
f 71 107 106
f 71 107 108
f 71 108 107
f 71 108 109
f 71 109 108
f 71 109 110
f 71 110 109
f 71 110 111
f 71 111 110
f 71 111 112
f 71 112 111
f 71 112 113
f 71 113 112
f 71 113 114
f 71 114 113
f 71 114 115
f 71 115 114
f 71 115 116
f 71 116 115
v 0.000000 0.004019 0.011307
v 0.010392 0.002100 0.005621
v 0.010392 -0.001919 -0.005686
v 0.000000 -0.004019 -0.011307
v -0.010392 -0.002100 -0.005621
v -0.010392 0.001919 0.005686
v -0.003540 0.365025 -0.121255
v 0.003388 0.363745 -0.125046
v 0.003388 0.361066 -0.132584
v -0.003540 0.359666 -0.136331
v -0.010468 0.360946 -0.132541
v -0.010468 0.363625 -0.125003
f 117 118 124
f 117 124 123
f 118 119 125
f 118 125 124
f 119 120 126
f 119 126 125
f 120 121 127
f 120 127 126
f 121 122 128
f 121 128 127
f 122 117 123
f 122 123 128
v -0.003540 0.362345 -0.128793
v 0.038157 0.364296 -0.096843
v 0.063210 0.363943 -0.070916
v 0.083352 0.362911 -0.046767
v 0.100061 0.361403 -0.023859
v 0.113848 0.359491 -0.002010
v 0.124913 0.357202 0.018855
v 0.133331 0.354547 0.038761
v 0.139119 0.351528 0.057716
v 0.142269 0.348144 0.075716
v 0.142766 0.344392 0.092757
v 0.140596 0.340272 0.108831
v 0.135751 0.335781 0.123938
v 0.128230 0.330920 0.138076
v 0.118042 0.325689 0.151249
v 0.105200 0.320092 0.163462
v 0.089721 0.314129 0.174720
v 0.071612 0.307802 0.185027
v 0.050856 0.301109 0.194375
v 0.027378 0.294040 0.202739
v 0.000978 0.286565 0.210045
v -0.028855 0.278616 0.216108
v -0.063599 0.269987 0.220395
v -0.114987 0.259054 0.218657
v -0.156684 0.257104 0.186707
v -0.181737 0.257456 0.160780
v -0.201878 0.258489 0.136631
v -0.218588 0.259997 0.113723
v -0.232375 0.261909 0.091874
v -0.243440 0.264197 0.071009
v -0.251858 0.266853 0.051103
v -0.257646 0.269872 0.032148
v -0.260796 0.273256 0.014148
v -0.261293 0.277008 -0.002893
v -0.259123 0.281128 -0.018967
v -0.254278 0.285619 -0.034074
v -0.246757 0.290480 -0.048212
v -0.236568 0.295711 -0.061385
v -0.223727 0.301308 -0.073598
v -0.208248 0.307271 -0.084856
v -0.190139 0.313597 -0.095163
v -0.169383 0.320291 -0.104511
v -0.145905 0.327360 -0.112875
v -0.119505 0.334835 -0.120181
v -0.089672 0.342784 -0.126244
v -0.054928 0.351413 -0.130531
f 129 130 131
f 129 131 130
f 129 131 132
f 129 132 131
f 129 132 133
f 129 133 132
f 129 133 134
f 129 134 133
f 129 134 135
f 129 135 134
f 129 135 136
f 129 136 135
f 129 136 137
f 129 137 136
f 129 137 138
f 129 138 137
f 129 138 139
f 129 139 138
f 129 139 140
f 129 140 139
f 129 140 141
f 129 141 140
f 129 141 142
f 129 142 141
f 129 142 143
f 129 143 142
f 129 143 144
f 129 144 143
f 129 144 145
f 129 145 144
f 129 145 146
f 129 146 145
f 129 146 147
f 129 147 146
f 129 147 148
f 129 148 147
f 129 148 149
f 129 149 148
f 129 149 150
f 129 150 149
f 129 150 151
f 129 151 150
f 129 151 152
f 129 152 151
f 129 152 153
f 129 153 152
f 129 153 154
f 129 154 153
f 129 154 155
f 129 155 154
f 129 155 156
f 129 156 155
f 129 156 157
f 129 157 156
f 129 157 158
f 129 158 157
f 129 158 159
f 129 159 158
f 129 159 160
f 129 160 159
f 129 160 161
f 129 161 160
f 129 161 162
f 129 162 161
f 129 162 163
f 129 163 162
f 129 163 164
f 129 164 163
f 129 164 165
f 129 165 164
f 129 165 166
f 129 166 165
f 129 166 167
f 129 167 166
f 129 167 168
f 129 168 167
f 129 168 169
f 129 169 168
f 129 169 170
f 129 170 169
f 129 170 171
f 129 171 170
f 129 171 172
f 129 172 171
f 129 172 173
f 129 173 172
f 129 173 174
f 129 174 173
v 0.000000 0.000908 0.011966
v 0.009979 0.003347 0.005763
v 0.009979 0.002439 -0.006202
v 0.000000 -0.000908 -0.011966
v -0.009979 -0.003347 -0.005763
v -0.009979 -0.002439 0.006202
v -0.126759 0.435372 -0.025029
v -0.120106 0.436998 -0.029164
v -0.120106 0.436392 -0.037141
v -0.126759 0.434161 -0.040983
v -0.133412 0.432535 -0.036848
v -0.133412 0.433141 -0.028871
f 175 176 182
f 175 182 181
f 176 177 183
f 176 183 182
f 177 178 184
f 177 184 183
f 178 179 185
f 178 185 184
f 179 180 186
f 179 186 185
f 180 175 181
f 180 181 186
v -0.126759 0.434766 -0.033006
v -0.111680 0.428247 0.033174
v -0.105964 0.417123 0.074651
v -0.102725 0.404780 0.109592
v -0.101130 0.391629 0.140196
v -0.100878 0.377817 0.167256
v -0.101836 0.363409 0.191121
v -0.103944 0.348437 0.211954
v -0.107173 0.332913 0.229830
v -0.111511 0.316843 0.244779
v -0.116954 0.300230 0.256812
v -0.123502 0.283073 0.265928
v -0.131156 0.265372 0.272129
v -0.139915 0.247128 0.275413
v -0.149779 0.228341 0.275781
v -0.160749 0.209009 0.273233
v -0.172827 0.189132 0.267758
v -0.186027 0.168704 0.259325
v -0.200376 0.147710 0.247861
v -0.215935 0.126121 0.233202
v -0.232837 0.103872 0.215000
v -0.251384 0.080813 0.192459
v -0.272408 0.056537 0.163382
v -0.302794 0.027655 0.109604
v -0.317872 0.034175 0.043425
v -0.323588 0.045299 0.001947
v -0.326828 0.057642 -0.032994
v -0.328423 0.070793 -0.063597
v -0.328675 0.084605 -0.090657
v -0.327716 0.099013 -0.114522
v -0.325608 0.113985 -0.135356
v -0.322380 0.129509 -0.153232
v -0.318042 0.145579 -0.168181
v -0.312598 0.162192 -0.180213
v -0.306050 0.179349 -0.189330
v -0.298396 0.197049 -0.195531
v -0.289637 0.215293 -0.198815
v -0.279773 0.234081 -0.199183
v -0.268804 0.253413 -0.196635
v -0.256725 0.273290 -0.191159
v -0.243525 0.293718 -0.182727
v -0.229177 0.314711 -0.171263
v -0.213617 0.336300 -0.156604
v -0.196715 0.358550 -0.138401
v -0.178168 0.381608 -0.115861
v -0.157145 0.405885 -0.086784
f 187 188 189
f 187 189 188
f 187 189 190
f 187 190 189
f 187 190 191
f 187 191 190
f 187 191 192
f 187 192 191
f 187 192 193
f 187 193 192
f 187 193 194
f 187 194 193
f 187 194 195
f 187 195 194
f 187 195 196
f 187 196 195
f 187 196 197
f 187 197 196
f 187 197 198
f 187 198 197
f 187 198 199
f 187 199 198
f 187 199 200
f 187 200 199
f 187 200 201
f 187 201 200
f 187 201 202
f 187 202 201
f 187 202 203
f 187 203 202
f 187 203 204
f 187 204 203
f 187 204 205
f 187 205 204
f 187 205 206
f 187 206 205
f 187 206 207
f 187 207 206
f 187 207 208
f 187 208 207
f 187 208 209
f 187 209 208
f 187 209 210
f 187 210 209
f 187 210 211
f 187 211 210
f 187 211 212
f 187 212 211
f 187 212 213
f 187 213 212
f 187 213 214
f 187 214 213
f 187 214 215
f 187 215 214
f 187 215 216
f 187 216 215
f 187 216 217
f 187 217 216
f 187 217 218
f 187 218 217
f 187 218 219
f 187 219 218
f 187 219 220
f 187 220 219
f 187 220 221
f 187 221 220
f 187 221 222
f 187 222 221
f 187 222 223
f 187 223 222
f 187 223 224
f 187 224 223
f 187 224 225
f 187 225 224
f 187 225 226
f 187 226 225
f 187 226 227
f 187 227 226
f 187 227 228
f 187 228 227
f 187 228 229
f 187 229 228
f 187 229 230
f 187 230 229
f 187 230 231
f 187 231 230
f 187 231 232
f 187 232 231
v 0.000000 -0.001375 0.011921
v 0.009867 0.002553 0.006334
v 0.009867 0.003927 -0.005587
v 0.000000 0.001375 -0.011921
v -0.009867 -0.002553 -0.006334
v -0.009867 -0.003927 0.005587
v -0.133253 0.399605 0.054128
v -0.126675 0.402223 0.050404
v -0.126675 0.403139 0.042456
v -0.133253 0.401438 0.038234
v -0.139831 0.398820 0.041958
v -0.139831 0.397903 0.049906
f 233 234 240
f 233 240 239
f 234 235 241
f 234 241 240
f 235 236 242
f 235 242 241
f 236 237 243
f 236 243 242
f 237 238 244
f 237 244 243
f 238 233 239
f 238 239 244
v -0.133253 0.400521 0.046181
v -0.060374 0.415098 0.020985
v -0.014774 0.418555 0.013524
v 0.024225 0.419320 0.010355
v 0.059005 0.418366 0.009927
v 0.090446 0.416050 0.011672
v 0.118948 0.412536 0.015326
v 0.144717 0.407908 0.020758
v 0.167856 0.402208 0.027900
v 0.188422 0.395459 0.036714
v 0.206442 0.387673 0.047183
v 0.221930 0.378853 0.059299
v 0.234891 0.369004 0.073058
v 0.245323 0.358124 0.088460
v 0.253224 0.346212 0.105508
v 0.258578 0.333262 0.124212
v 0.261360 0.319263 0.144589
v 0.261512 0.304192 0.166674
v 0.258930 0.288006 0.190538
v 0.253410 0.270623 0.216311
v 0.244550 0.251879 0.244256
v 0.231472 0.231414 0.274943
v 0.211793 0.208259 0.309922
v 0.164834 0.173983 0.362636
v 0.091955 0.159406 0.387832
v 0.046355 0.155949 0.395293
v 0.007357 0.155184 0.398463
v -0.027424 0.156138 0.398890
v -0.058864 0.158454 0.397145
v -0.087367 0.161968 0.393491
v -0.113135 0.166596 0.388059
v -0.136275 0.172296 0.380918
v -0.156841 0.179045 0.372103
v -0.174861 0.186832 0.361634
v -0.190349 0.195651 0.349518
v -0.203309 0.205500 0.335759
v -0.213742 0.216380 0.320357
v -0.221642 0.228292 0.303309
v -0.226997 0.241242 0.284605
v -0.229778 0.255241 0.264228
v -0.229930 0.270312 0.242143
v -0.227348 0.286498 0.218279
v -0.221829 0.303881 0.192506
v -0.212969 0.322626 0.164561
v -0.199891 0.343090 0.133874
v -0.180211 0.366245 0.098895
f 245 246 247
f 245 247 246
f 245 247 248
f 245 248 247
f 245 248 249
f 245 249 248
f 245 249 250
f 245 250 249
f 245 250 251
f 245 251 250
f 245 251 252
f 245 252 251
f 245 252 253
f 245 253 252
f 245 253 254
f 245 254 253
f 245 254 255
f 245 255 254
f 245 255 256
f 245 256 255
f 245 256 257
f 245 257 256
f 245 257 258
f 245 258 257
f 245 258 259
f 245 259 258
f 245 259 260
f 245 260 259
f 245 260 261
f 245 261 260
f 245 261 262
f 245 262 261
f 245 262 263
f 245 263 262
f 245 263 264
f 245 264 263
f 245 264 265
f 245 265 264
f 245 265 266
f 245 266 265
f 245 266 267
f 245 267 266
f 245 267 268
f 245 268 267
f 245 268 269
f 245 269 268
f 245 269 270
f 245 270 269
f 245 270 271
f 245 271 270
f 245 271 272
f 245 272 271
f 245 272 273
f 245 273 272
f 245 273 274
f 245 274 273
f 245 274 275
f 245 275 274
f 245 275 276
f 245 276 275
f 245 276 277
f 245 277 276
f 245 277 278
f 245 278 277
f 245 278 279
f 245 279 278
f 245 279 280
f 245 280 279
f 245 280 281
f 245 281 280
f 245 281 282
f 245 282 281
f 245 282 283
f 245 283 282
f 245 283 284
f 245 284 283
f 245 284 285
f 245 285 284
f 245 285 286
f 245 286 285
f 245 286 287
f 245 287 286
f 245 287 288
f 245 288 287
f 245 288 289
f 245 289 288
f 245 289 290
f 245 290 289
v 0.000000 -0.004352 0.011183
v 0.010379 -0.001682 0.005784
v 0.010379 0.002670 -0.005399
v 0.000000 0.004352 -0.011183
v -0.010379 0.001682 -0.005784
v -0.010379 -0.002670 0.005399
v -0.018335 0.331742 0.137696
v -0.011416 0.333522 0.134096
v -0.011416 0.336424 0.126641
v -0.018335 0.337545 0.122785
v -0.025254 0.335765 0.126384
v -0.025254 0.332864 0.133840
f 291 292 298
f 291 298 297
f 292 293 299
f 292 299 298
f 293 294 300
f 293 300 299
f 294 295 301
f 294 301 300
f 295 296 302
f 295 302 301
f 296 291 297
f 296 297 302
v -0.018335 0.334644 0.130240
v -0.057957 0.282240 0.221032
v -0.090391 0.247052 0.268601
v -0.121006 0.216223 0.305228
v -0.150437 0.188229 0.334734
v -0.178915 0.162517 0.358514
v -0.206546 0.138835 0.377195
v -0.233380 0.117062 0.391085
v -0.259442 0.097136 0.400336
v -0.284745 0.079030 0.405019
v -0.309294 0.062729 0.405168
v -0.333091 0.048230 0.400795
v -0.356137 0.035530 0.391905
v -0.378432 0.024630 0.378496
v -0.399974 0.015531 0.360566
v -0.420763 0.008237 0.338101
v -0.440792 0.002763 0.311070
v -0.460050 -0.000863 0.279398
v -0.478510 -0.002581 0.242936
v -0.496124 -0.002268 0.201375
v -0.512784 0.000325 0.154088
v -0.528261 0.005756 0.099679
v -0.541918 0.015543 0.034329
v -0.548388 0.042547 -0.074244
v -0.508766 0.094951 -0.165036
v -0.476332 0.130139 -0.212604
v -0.445717 0.160968 -0.249232
v -0.416286 0.188962 -0.278738
v -0.387808 0.214674 -0.302518
v -0.360177 0.238356 -0.321199
v -0.333343 0.260129 -0.335089
v -0.307281 0.280055 -0.344339
v -0.281978 0.298161 -0.349023
v -0.257429 0.314461 -0.349172
v -0.233632 0.328961 -0.344799
v -0.210586 0.341661 -0.335908
v -0.188291 0.352561 -0.322500
v -0.166749 0.361660 -0.304570
v -0.145960 0.368954 -0.282105
v -0.125931 0.374428 -0.255073
v -0.106674 0.378054 -0.223402
v -0.088213 0.379772 -0.186939
v -0.070600 0.379459 -0.145379
v -0.053939 0.376866 -0.098091
v -0.038462 0.371435 -0.043683
v -0.024805 0.361648 0.021667
f 303 304 305
f 303 305 304
f 303 305 306
f 303 306 305
f 303 306 307
f 303 307 306
f 303 307 308
f 303 308 307
f 303 308 309
f 303 309 308
f 303 309 310
f 303 310 309
f 303 310 311
f 303 311 310
f 303 311 312
f 303 312 311
f 303 312 313
f 303 313 312
f 303 313 314
f 303 314 313
f 303 314 315
f 303 315 314
f 303 315 316
f 303 316 315
f 303 316 317
f 303 317 316
f 303 317 318
f 303 318 317
f 303 318 319
f 303 319 318
f 303 319 320
f 303 320 319
f 303 320 321
f 303 321 320
f 303 321 322
f 303 322 321
f 303 322 323
f 303 323 322
f 303 323 324
f 303 324 323
f 303 324 325
f 303 325 324
f 303 325 326
f 303 326 325
f 303 326 327
f 303 327 326
f 303 327 328
f 303 328 327
f 303 328 329
f 303 329 328
f 303 329 330
f 303 330 329
f 303 330 331
f 303 331 330
f 303 331 332
f 303 332 331
f 303 332 333
f 303 333 332
f 303 333 334
f 303 334 333
f 303 334 335
f 303 335 334
f 303 335 336
f 303 336 335
f 303 336 337
f 303 337 336
f 303 337 338
f 303 338 337
f 303 338 339
f 303 339 338
f 303 339 340
f 303 340 339
f 303 340 341
f 303 341 340
f 303 341 342
f 303 342 341
f 303 342 343
f 303 343 342
f 303 343 344
f 303 344 343
f 303 344 345
f 303 345 344
f 303 345 346
f 303 346 345
f 303 346 347
f 303 347 346
f 303 347 348
f 303 348 347
v 0.000000 -0.002025 0.011828
v 0.010309 -0.002304 0.005693
v 0.010309 -0.000280 -0.006135
v 0.000000 0.002025 -0.011828
v -0.010309 0.002304 -0.005693
v -0.010309 0.000280 0.006135
v 0.053776 0.415502 0.079244
v 0.060649 0.415316 0.075154
v 0.060649 0.416666 0.067269
v 0.053776 0.418202 0.063474
v 0.046903 0.418388 0.067564
v 0.046903 0.417039 0.075449
f 349 350 356
f 349 356 355
f 350 351 357
f 350 357 356
f 351 352 358
f 351 358 357
f 352 353 359
f 352 359 358
f 353 354 360
f 353 360 359
f 354 349 355
f 354 355 360
v 0.053776 0.416852 0.071359
v 0.132938 0.400249 -0.012604
v 0.178993 0.380460 -0.053004
v 0.217486 0.359943 -0.083453
v 0.251256 0.338971 -0.107687
v 0.281355 0.317646 -0.127090
v 0.308274 0.296015 -0.142310
v 0.332268 0.274102 -0.153680
v 0.353476 0.251922 -0.161384
v 0.371974 0.229480 -0.165523
v 0.387805 0.206782 -0.166153
v 0.400991 0.183829 -0.163301
v 0.411541 0.160622 -0.156981
v 0.419455 0.137162 -0.147192
v 0.424724 0.113447 -0.133923
v 0.427325 0.089475 -0.117144
v 0.427217 0.065242 -0.096799
v 0.424323 0.040742 -0.072789
v 0.418504 0.015959 -0.044930
v 0.409505 -0.009129 -0.012886
v 0.396835 -0.034571 0.023988
v 0.379442 -0.060467 0.067077
v 0.354486 -0.087091 0.120117
v 0.296424 -0.116901 0.216721
v 0.217262 -0.100299 0.300684
v 0.171207 -0.080510 0.341084
v 0.132714 -0.059992 0.371532
v 0.098944 -0.039021 0.395767
v 0.068845 -0.017696 0.415170
v 0.041926 0.003936 0.430389
v 0.017932 0.025848 0.441760
v -0.003276 0.048029 0.449464
v -0.021775 0.070471 0.453603
v -0.037606 0.093169 0.454232
v -0.050792 0.116122 0.451381
v -0.061342 0.139329 0.445061
v -0.069256 0.162789 0.435272
v -0.074524 0.186504 0.422002
v -0.077126 0.210476 0.405223
v -0.077018 0.234708 0.384879
v -0.074123 0.259209 0.360869
v -0.068304 0.283991 0.333009
v -0.059305 0.309080 0.300966
v -0.046635 0.334521 0.264091
v -0.029242 0.360417 0.221003
v -0.004286 0.387042 0.167962
f 361 362 363
f 361 363 362
f 361 363 364
f 361 364 363
f 361 364 365
f 361 365 364
f 361 365 366
f 361 366 365
f 361 366 367
f 361 367 366
f 361 367 368
f 361 368 367
f 361 368 369
f 361 369 368
f 361 369 370
f 361 370 369
f 361 370 371
f 361 371 370
f 361 371 372
f 361 372 371
f 361 372 373
f 361 373 372
f 361 373 374
f 361 374 373
f 361 374 375
f 361 375 374
f 361 375 376
f 361 376 375
f 361 376 377
f 361 377 376
f 361 377 378
f 361 378 377
f 361 378 379
f 361 379 378
f 361 379 380
f 361 380 379
f 361 380 381
f 361 381 380
f 361 381 382
f 361 382 381
f 361 382 383
f 361 383 382
f 361 383 384
f 361 384 383
f 361 384 385
f 361 385 384
f 361 385 386
f 361 386 385
f 361 386 387
f 361 387 386
f 361 387 388
f 361 388 387
f 361 388 389
f 361 389 388
f 361 389 390
f 361 390 389
f 361 390 391
f 361 391 390
f 361 391 392
f 361 392 391
f 361 392 393
f 361 393 392
f 361 393 394
f 361 394 393
f 361 394 395
f 361 395 394
f 361 395 396
f 361 396 395
f 361 396 397
f 361 397 396
f 361 397 398
f 361 398 397
f 361 398 399
f 361 399 398
f 361 399 400
f 361 400 399
f 361 400 401
f 361 401 400
f 361 401 402
f 361 402 401
f 361 402 403
f 361 403 402
f 361 403 404
f 361 404 403
f 361 404 405
f 361 405 404
f 361 405 406
f 361 406 405
