o mesh
v 0.000000 0.001218 0.011938
v 0.009732 -0.003017 0.006339
v 0.009732 -0.004235 -0.005599
v 0.000000 -0.001218 -0.011938
v -0.009732 0.003017 -0.006339
v -0.009732 0.004235 0.005599
v 0.171304 0.455856 -0.038450
v 0.177792 0.453032 -0.042183
v 0.177792 0.452221 -0.050141
v 0.171304 0.454232 -0.054367
v 0.164816 0.457055 -0.050634
v 0.164816 0.457867 -0.042676
f 1 2 8
f 1 8 7
f 2 3 9
f 2 9 8
f 3 4 10
f 3 10 9
f 4 5 11
f 4 11 10
f 5 6 12
f 5 12 11
f 6 1 7
f 6 7 12
v 0.171304 0.455044 -0.046408
v 0.190839 0.439464 0.043249
v 0.189493 0.427880 0.095015
v 0.183436 0.417198 0.138228
v 0.174449 0.407076 0.176125
v 0.163193 0.397389 0.209905
v 0.149979 0.388076 0.240130
v 0.134966 0.379107 0.267093
v 0.118245 0.370466 0.290954
v 0.099865 0.362142 0.311804
v 0.079852 0.354130 0.329692
v 0.058222 0.346428 0.344644
v 0.034980 0.339034 0.356671
v 0.010126 0.331949 0.365773
v -0.016345 0.325174 0.371940
v -0.044448 0.318710 0.375145
v -0.074211 0.312564 0.375338
v -0.105683 0.306746 0.372430
v -0.138953 0.301271 0.366259
v -0.174181 0.296171 0.356534
v -0.211678 0.291506 0.342691
v -0.252104 0.287400 0.323532
v -0.297243 0.284197 0.295822
v -0.363261 0.284990 0.230218
v -0.382795 0.300570 0.140560
v -0.381450 0.312154 0.088795
v -0.375392 0.322836 0.045582
v -0.366405 0.332958 0.007685
v -0.355150 0.342645 -0.026095
v -0.341935 0.351958 -0.056320
v -0.326923 0.360926 -0.083283
v -0.310202 0.369568 -0.107145
v -0.291822 0.377892 -0.127994
v -0.271809 0.385903 -0.145882
v -0.250178 0.393606 -0.160834
v -0.226936 0.400999 -0.172861
v -0.202083 0.408084 -0.181964
v -0.175612 0.414860 -0.188130
v -0.147508 0.421323 -0.191335
v -0.117746 0.427469 -0.191529
v -0.086274 0.433288 -0.188620
v -0.053004 0.438763 -0.182450
v -0.017776 0.443862 -0.172724
v 0.019721 0.448528 -0.158881
v 0.060147 0.452633 -0.139723
v 0.105286 0.455836 -0.112012
f 13 14 15
f 13 15 14
f 13 15 16
f 13 16 15
f 13 16 17
f 13 17 16
f 13 17 18
f 13 18 17
f 13 18 19
f 13 19 18
f 13 19 20
f 13 20 19
f 13 20 21
f 13 21 20
f 13 21 22
f 13 22 21
f 13 22 23
f 13 23 22
f 13 23 24
f 13 24 23
f 13 24 25
f 13 25 24
f 13 25 26
f 13 26 25
f 13 26 27
f 13 27 26
f 13 27 28
f 13 28 27
f 13 28 29
f 13 29 28
f 13 29 30
f 13 30 29
f 13 30 31
f 13 31 30
f 13 31 32
f 13 32 31
f 13 32 33
f 13 33 32
f 13 33 34
f 13 34 33
f 13 34 35
f 13 35 34
f 13 35 36
f 13 36 35
f 13 36 37
f 13 37 36
f 13 37 38
f 13 38 37
f 13 38 39
f 13 39 38
f 13 39 40
f 13 40 39
f 13 40 41
f 13 41 40
f 13 41 42
f 13 42 41
f 13 42 43
f 13 43 42
f 13 43 44
f 13 44 43
f 13 44 45
f 13 45 44
f 13 45 46
f 13 46 45
f 13 46 47
f 13 47 46
f 13 47 48
f 13 48 47
f 13 48 49
f 13 49 48
f 13 49 50
f 13 50 49
f 13 50 51
f 13 51 50
f 13 51 52
f 13 52 51
f 13 52 53
f 13 53 52
f 13 53 54
f 13 54 53
f 13 54 55
f 13 55 54
f 13 55 56
f 13 56 55
f 13 56 57
f 13 57 56
f 13 57 58
f 13 58 57
v 0.000000 0.002946 0.011633
v 0.010125 -0.000797 0.006391
v 0.010125 -0.003744 -0.005241
v 0.000000 -0.002946 -0.011633
v -0.010125 0.000797 -0.006391
v -0.010125 0.003744 0.005241
v 0.085035 0.358293 -0.082491
v 0.091785 0.355797 -0.085985
v 0.091785 0.353833 -0.093740
v 0.085035 0.354365 -0.098001
v 0.078285 0.356860 -0.094507
v 0.078285 0.358824 -0.086752
f 59 60 66
f 59 66 65
f 60 61 67
f 60 67 66
f 61 62 68
f 61 68 67
f 62 63 69
f 62 69 68
f 63 64 70
f 63 70 69
f 64 59 65
f 64 65 70
v 0.085035 0.356329 -0.090246
v 0.033907 0.363765 -0.043768
v -0.006536 0.365027 -0.011599
v -0.043311 0.364170 0.015659
v -0.077309 0.361709 0.039198
v -0.108789 0.357793 0.059365
v -0.137810 0.352456 0.076240
v -0.164356 0.345689 0.089799
v -0.188381 0.337464 0.099983
v -0.209831 0.327753 0.106718
v -0.228660 0.316527 0.109945
v -0.244834 0.303767 0.109615
v -0.258335 0.289462 0.105705
v -0.269162 0.273613 0.098216
v -0.277335 0.256229 0.087171
v -0.282886 0.237331 0.072615
v -0.285863 0.216946 0.054613
v -0.286318 0.195104 0.033234
v -0.284298 0.171831 0.008540
v -0.279820 0.147138 -0.019446
v -0.272823 0.120990 -0.050804
v -0.263049 0.093237 -0.085881
v -0.249609 0.063366 -0.125869
v -0.225482 0.027320 -0.180167
v -0.174354 0.019884 -0.226645
v -0.133912 0.018622 -0.258814
v -0.097136 0.019478 -0.286072
v -0.063138 0.021940 -0.309611
v -0.031658 0.025856 -0.329778
v -0.002637 0.031193 -0.346653
v 0.023909 0.037960 -0.360213
v 0.047934 0.046184 -0.370396
v 0.069384 0.055896 -0.377132
v 0.088213 0.067122 -0.380358
v 0.104387 0.079882 -0.380028
v 0.117888 0.094187 -0.376118
v 0.128715 0.110036 -0.368629
v 0.136887 0.127419 -0.357584
v 0.142439 0.146317 -0.343028
v 0.145416 0.166703 -0.325026
v 0.145871 0.188545 -0.303647
v 0.143851 0.211818 -0.278953
v 0.139373 0.236511 -0.250967
v 0.132376 0.262659 -0.219609
v 0.122602 0.290411 -0.184532
v 0.109161 0.320283 -0.144544
f 71 72 73
f 71 73 72
f 71 73 74
f 71 74 73
f 71 74 75
f 71 75 74
f 71 75 76
f 71 76 75
f 71 76 77
f 71 77 76
f 71 77 78
f 71 78 77
f 71 78 79
f 71 79 78
f 71 79 80
f 71 80 79
f 71 80 81
f 71 81 80
f 71 81 82
f 71 82 81
f 71 82 83
f 71 83 82
f 71 83 84
f 71 84 83
f 71 84 85
f 71 85 84
f 71 85 86
f 71 86 85
f 71 86 87
f 71 87 86
f 71 87 88
f 71 88 87
f 71 88 89
f 71 89 88
f 71 89 90
f 71 90 89
f 71 90 91
f 71 91 90
f 71 91 92
f 71 92 91
f 71 92 93
f 71 93 92
f 71 93 94
f 71 94 93
f 71 94 95
f 71 95 94
f 71 95 96
f 71 96 95
f 71 96 97
f 71 97 96
f 71 97 98
f 71 98 97
f 71 98 99
f 71 99 98
f 71 99 100
f 71 100 99
f 71 100 101
f 71 101 100
f 71 101 102
f 71 102 101
f 71 102 103
f 71 103 102
f 71 103 104
f 71 104 103
f 71 104 105
f 71 105 104
f 71 105 106
f 71 106 105
f 71 106 107
f 71 107 106
f 71 107 108
f 71 108 107
f 71 108 109
f 71 109 108
f 71 109 110
f 71 110 109
f 71 110 111
f 71 111 110
f 71 111 112
f 71 112 111
f 71 112 113
f 71 113 112
f 71 113 114
f 71 114 113
f 71 114 115
f 71 115 114
f 71 115 116
f 71 116 115
v -0.011917 0.000000 0.001410
v -0.004861 0.004566 0.009976
v 0.007055 0.004566 0.008566
v 0.011917 0.000000 -0.001410
v 0.004861 -0.004566 -0.009976
v -0.007055 -0.004566 -0.008566
v -0.030592 0.393979 -0.190436
v -0.025888 0.397023 -0.184726
v -0.017943 0.397023 -0.185666
v -0.014702 0.393979 -0.192316
v -0.019406 0.390935 -0.198027
v -0.027351 0.390935 -0.197087
f 117 118 124
f 117 124 123
f 118 119 125
f 118 125 124
f 119 120 126
f 119 126 125
f 120 121 127
f 120 127 126
f 121 122 128
f 121 128 127
f 122 117 123
f 122 123 128
v -0.022647 0.393979 -0.191376
v -0.084671 0.369390 -0.204927
v -0.125620 0.346973 -0.216498
v -0.159945 0.325239 -0.227448
v -0.189489 0.303998 -0.237949
v -0.214856 0.283187 -0.248058
v -0.236257 0.262786 -0.257794
v -0.253743 0.242788 -0.267163
v -0.267299 0.223195 -0.276163
v -0.276883 0.204012 -0.284790
v -0.282451 0.185242 -0.293040
v -0.283969 0.166890 -0.300909
v -0.281417 0.148958 -0.308397
v -0.274796 0.131445 -0.315502
v -0.264125 0.114350 -0.322228
v -0.249437 0.097669 -0.328576
v -0.230778 0.081397 -0.334551
v -0.208189 0.065530 -0.340157
v -0.181685 0.050067 -0.345396
v -0.151215 0.035013 -0.350262
v -0.116568 0.020389 -0.354736
v -0.077140 0.006258 -0.358762
v -0.031087 -0.007190 -0.362165
v 0.036040 -0.018465 -0.363590
v 0.098065 0.006125 -0.350039
v 0.139014 0.028541 -0.338468
v 0.173338 0.050275 -0.327518
v 0.202882 0.071516 -0.317017
v 0.228249 0.092327 -0.306908
v 0.249650 0.112728 -0.297172
v 0.267136 0.132726 -0.287803
v 0.280692 0.152319 -0.278803
v 0.290276 0.171503 -0.270176
v 0.295844 0.190272 -0.261926
v 0.297362 0.208624 -0.254056
v 0.294811 0.226556 -0.246569
v 0.288189 0.244069 -0.239463
v 0.277518 0.261164 -0.232738
v 0.262830 0.277846 -0.226390
v 0.244171 0.294117 -0.220415
v 0.221582 0.309984 -0.214809
v 0.195078 0.325447 -0.209570
v 0.164608 0.340501 -0.204704
v 0.129961 0.355125 -0.200229
v 0.090533 0.369256 -0.196204
v 0.044481 0.382704 -0.192801
f 129 130 131
f 129 131 130
f 129 131 132
f 129 132 131
f 129 132 133
f 129 133 132
f 129 133 134
f 129 134 133
f 129 134 135
f 129 135 134
f 129 135 136
f 129 136 135
f 129 136 137
f 129 137 136
f 129 137 138
f 129 138 137
f 129 138 139
f 129 139 138
f 129 139 140
f 129 140 139
f 129 140 141
f 129 141 140
f 129 141 142
f 129 142 141
f 129 142 143
f 129 143 142
f 129 143 144
f 129 144 143
f 129 144 145
f 129 145 144
f 129 145 146
f 129 146 145
f 129 146 147
f 129 147 146
f 129 147 148
f 129 148 147
f 129 148 149
f 129 149 148
f 129 149 150
f 129 150 149
f 129 150 151
f 129 151 150
f 129 151 152
f 129 152 151
f 129 152 153
f 129 153 152
f 129 153 154
f 129 154 153
f 129 154 155
f 129 155 154
f 129 155 156
f 129 156 155
f 129 156 157
f 129 157 156
f 129 157 158
f 129 158 157
f 129 158 159
f 129 159 158
f 129 159 160
f 129 160 159
f 129 160 161
f 129 161 160
f 129 161 162
f 129 162 161
f 129 162 163
f 129 163 162
f 129 163 164
f 129 164 163
f 129 164 165
f 129 165 164
f 129 165 166
f 129 166 165
f 129 166 167
f 129 167 166
f 129 167 168
f 129 168 167
f 129 168 169
f 129 169 168
f 129 169 170
f 129 170 169
f 129 170 171
f 129 171 170
f 129 171 172
f 129 172 171
f 129 172 173
f 129 173 172
f 129 173 174
f 129 174 173
v 0.000000 0.002209 0.011795
v 0.010132 0.003378 0.005472
v 0.010132 0.001169 -0.006323
v 0.000000 -0.002209 -0.011795
v -0.010132 -0.003378 -0.005472
v -0.010132 -0.001169 0.006323
v -0.095513 0.412735 -0.069161
v -0.088758 0.413514 -0.073377
v -0.088758 0.412042 -0.081240
v -0.095513 0.409790 -0.084888
v -0.102267 0.409011 -0.080673
v -0.102267 0.410483 -0.072809
f 175 176 182
f 175 182 181
f 176 177 183
f 176 183 182
f 177 178 184
f 177 184 183
f 178 179 185
f 178 185 184
f 179 180 186
f 179 186 185
f 180 175 181
f 180 181 186
v -0.095513 0.411262 -0.077025
v -0.091174 0.409346 -0.015810
v -0.091087 0.403851 0.031572
v -0.092542 0.397060 0.073942
v -0.095200 0.389256 0.112393
v -0.098977 0.380510 0.147208
v -0.103863 0.370830 0.178411
v -0.109881 0.360198 0.205932
v -0.117062 0.348588 0.229672
v -0.125436 0.335973 0.249527
v -0.135032 0.322330 0.265411
v -0.145867 0.307645 0.277262
v -0.157951 0.291908 0.285048
v -0.171286 0.275119 0.288768
v -0.185860 0.257286 0.288454
v -0.201654 0.238427 0.284170
v -0.218643 0.218563 0.276001
v -0.236794 0.197720 0.264050
v -0.256077 0.175925 0.248418
v -0.276469 0.153196 0.229175
v -0.297980 0.129527 0.206294
v -0.320695 0.104843 0.179495
v -0.344951 0.078863 0.147684
v -0.373459 0.049305 0.102040
v -0.377798 0.051221 0.040825
v -0.377884 0.056716 -0.006557
v -0.376430 0.063507 -0.048927
v -0.373772 0.071312 -0.087378
v -0.369995 0.080057 -0.122193
v -0.365108 0.089737 -0.153395
v -0.359090 0.100369 -0.180917
v -0.351910 0.111980 -0.204657
v -0.343535 0.124595 -0.224512
v -0.333940 0.138237 -0.240396
v -0.323105 0.152923 -0.252247
v -0.311020 0.168660 -0.260033
v -0.297686 0.185449 -0.263753
v -0.283112 0.203281 -0.263439
v -0.267317 0.222140 -0.259155
v -0.250329 0.242005 -0.250986
v -0.232178 0.262847 -0.239035
v -0.212895 0.284642 -0.223403
v -0.192502 0.307371 -0.204160
v -0.170991 0.331041 -0.181279
v -0.148276 0.355724 -0.154480
v -0.124020 0.381704 -0.122669
f 187 188 189
f 187 189 188
f 187 189 190
f 187 190 189
f 187 190 191
f 187 191 190
f 187 191 192
f 187 192 191
f 187 192 193
f 187 193 192
f 187 193 194
f 187 194 193
f 187 194 195
f 187 195 194
f 187 195 196
f 187 196 195
f 187 196 197
f 187 197 196
f 187 197 198
f 187 198 197
f 187 198 199
f 187 199 198
f 187 199 200
f 187 200 199
f 187 200 201
f 187 201 200
f 187 201 202
f 187 202 201
f 187 202 203
f 187 203 202
f 187 203 204
f 187 204 203
f 187 204 205
f 187 205 204
f 187 205 206
f 187 206 205
f 187 206 207
f 187 207 206
f 187 207 208
f 187 208 207
f 187 208 209
f 187 209 208
f 187 209 210
f 187 210 209
f 187 210 211
f 187 211 210
f 187 211 212
f 187 212 211
f 187 212 213
f 187 213 212
f 187 213 214
f 187 214 213
f 187 214 215
f 187 215 214
f 187 215 216
f 187 216 215
f 187 216 217
f 187 217 216
f 187 217 218
f 187 218 217
f 187 218 219
f 187 219 218
f 187 219 220
f 187 220 219
f 187 220 221
f 187 221 220
f 187 221 222
f 187 222 221
f 187 222 223
f 187 223 222
f 187 223 224
f 187 224 223
f 187 224 225
f 187 225 224
f 187 225 226
f 187 226 225
f 187 226 227
f 187 227 226
f 187 227 228
f 187 228 227
f 187 228 229
f 187 229 228
f 187 229 230
f 187 230 229
f 187 230 231
f 187 231 230
f 187 231 232
f 187 232 231
v 0.005502 0.000000 0.010664
v 0.010804 0.005088 0.001178
v 0.005302 0.005088 -0.009487
v -0.005502 0.000000 -0.010664
v -0.010804 -0.005088 -0.001178
v -0.005302 -0.005088 0.009487
v -0.129736 0.267355 0.075933
v -0.126201 0.270747 0.069609
v -0.129869 0.270747 0.062499
v -0.137071 0.267355 0.061714
v -0.140606 0.263963 0.068039
v -0.136938 0.263963 0.075148
f 233 234 240
f 233 240 239
f 234 235 241
f 234 241 240
f 235 236 242
f 235 242 241
f 236 237 243
f 236 243 242
f 237 238 244
f 237 244 243
f 238 233 239
f 238 239 244
v -0.133403 0.267355 0.068824
v -0.093615 0.283319 0.052962
v -0.063410 0.292256 0.045827
v -0.036111 0.299060 0.041339
v -0.010872 0.304355 0.038725
v 0.012595 0.308349 0.037726
v 0.034397 0.311122 0.038243
v 0.054570 0.312700 0.040244
v 0.073116 0.313086 0.043727
v 0.090026 0.312271 0.048699
v 0.105286 0.310246 0.055174
v 0.118884 0.307003 0.063161
v 0.130816 0.302538 0.072667
v 0.141080 0.296849 0.083691
v 0.149683 0.289942 0.096228
v 0.156636 0.281825 0.110267
v 0.161953 0.272508 0.125796
v 0.165643 0.261999 0.142806
v 0.167704 0.250294 0.161301
v 0.168100 0.237368 0.181311
v 0.166723 0.223142 0.202936
v 0.163287 0.207406 0.226436
v 0.156945 0.189538 0.252582
v 0.141020 0.164642 0.287455
v 0.101231 0.148678 0.303317
v 0.071026 0.139742 0.310452
v 0.043727 0.132938 0.314940
v 0.018488 0.127643 0.317553
v -0.004979 0.123649 0.318552
v -0.026781 0.120876 0.318035
v -0.046954 0.119297 0.316034
v -0.065500 0.118912 0.312552
v -0.082410 0.119727 0.307580
v -0.097670 0.121751 0.301105
v -0.111268 0.124994 0.293118
v -0.123200 0.129460 0.283612
v -0.133464 0.135149 0.272588
v -0.142067 0.142056 0.260051
v -0.149020 0.150172 0.246012
v -0.154337 0.159489 0.230483
v -0.158027 0.169999 0.213473
v -0.160088 0.181704 0.194978
v -0.160484 0.194630 0.174968
v -0.159107 0.208856 0.153343
v -0.155671 0.224592 0.129843
v -0.149329 0.242460 0.103697
f 245 246 247
f 245 247 246
f 245 247 248
f 245 248 247
f 245 248 249
f 245 249 248
f 245 249 250
f 245 250 249
f 245 250 251
f 245 251 250
f 245 251 252
f 245 252 251
f 245 252 253
f 245 253 252
f 245 253 254
f 245 254 253
f 245 254 255
f 245 255 254
f 245 255 256
f 245 256 255
f 245 256 257
f 245 257 256
f 245 257 258
f 245 258 257
f 245 258 259
f 245 259 258
f 245 259 260
f 245 260 259
f 245 260 261
f 245 261 260
f 245 261 262
f 245 262 261
f 245 262 263
f 245 263 262
f 245 263 264
f 245 264 263
f 245 264 265
f 245 265 264
f 245 265 266
f 245 266 265
f 245 266 267
f 245 267 266
f 245 267 268
f 245 268 267
f 245 268 269
f 245 269 268
f 245 269 270
f 245 270 269
f 245 270 271
f 245 271 270
f 245 271 272
f 245 272 271
f 245 272 273
f 245 273 272
f 245 273 274
f 245 274 273
f 245 274 275
f 245 275 274
f 245 275 276
f 245 276 275
f 245 276 277
f 245 277 276
f 245 277 278
f 245 278 277
f 245 278 279
f 245 279 278
f 245 279 280
f 245 280 279
f 245 280 281
f 245 281 280
f 245 281 282
f 245 282 281
f 245 282 283
f 245 283 282
f 245 283 284
f 245 284 283
f 245 284 285
f 245 285 284
f 245 285 286
f 245 286 285
f 245 286 287
f 245 287 286
f 245 287 288
f 245 288 287
f 245 288 289
f 245 289 288
f 245 289 290
f 245 290 289
v 0.000000 -0.001962 0.011839
v 0.010359 -0.000162 0.006055
v 0.010359 0.001799 -0.005784
v 0.000000 0.001962 -0.011839
v -0.010359 0.000162 -0.006055
v -0.010359 -0.001799 0.005784
v -0.045406 0.557996 0.100573
v -0.038500 0.559196 0.096717
v -0.038500 0.560504 0.088825
v -0.045406 0.560612 0.084788
v -0.052312 0.559412 0.088644
v -0.052312 0.558105 0.096536
f 291 292 298
f 291 298 297
f 292 293 299
f 292 299 298
f 293 294 300
f 293 300 299
f 294 295 301
f 294 301 300
f 295 296 302
f 295 302 301
f 296 291 297
f 296 297 302
v -0.045406 0.559304 0.092680
v -0.045812 0.535316 0.167377
v -0.051308 0.514037 0.223228
v -0.058628 0.493729 0.272329
v -0.067364 0.474174 0.316188
v -0.077407 0.455316 0.355207
v -0.088744 0.437146 0.389435
v -0.101397 0.419676 0.418794
v -0.115399 0.402924 0.443159
v -0.130785 0.386909 0.462400
v -0.147585 0.371646 0.476408
v -0.165819 0.357147 0.485104
v -0.185500 0.343418 0.488446
v -0.206627 0.330459 0.486436
v -0.229189 0.318263 0.479112
v -0.253164 0.306819 0.466556
v -0.278523 0.296113 0.448877
v -0.305232 0.286124 0.426203
v -0.333256 0.276835 0.398659
v -0.362574 0.268236 0.366325
v -0.393200 0.260332 0.329151
v -0.425241 0.253182 0.286735
v -0.459106 0.247002 0.237568
v -0.498062 0.243532 0.169557
v -0.497656 0.267520 0.094861
v -0.492160 0.288799 0.039010
v -0.484840 0.309107 -0.010091
v -0.476105 0.328661 -0.053951
v -0.466061 0.347520 -0.092969
v -0.454724 0.365690 -0.127198
v -0.442071 0.383160 -0.156557
v -0.428069 0.399911 -0.180921
v -0.412683 0.415927 -0.200162
v -0.395884 0.431189 -0.214170
v -0.377649 0.445688 -0.222866
v -0.357968 0.459417 -0.226209
v -0.336841 0.472377 -0.224198
v -0.314280 0.484573 -0.216875
v -0.290304 0.496016 -0.204318
v -0.264945 0.506723 -0.186639
v -0.238236 0.516712 -0.163965
v -0.210212 0.526000 -0.136421
v -0.180894 0.534600 -0.104088
v -0.150268 0.542504 -0.066913
v -0.118227 0.549654 -0.024497
v -0.084362 0.555834 0.024669
f 303 304 305
f 303 305 304
f 303 305 306
f 303 306 305
f 303 306 307
f 303 307 306
f 303 307 308
f 303 308 307
f 303 308 309
f 303 309 308
f 303 309 310
f 303 310 309
f 303 310 311
f 303 311 310
f 303 311 312
f 303 312 311
f 303 312 313
f 303 313 312
f 303 313 314
f 303 314 313
f 303 314 315
f 303 315 314
f 303 315 316
f 303 316 315
f 303 316 317
f 303 317 316
f 303 317 318
f 303 318 317
f 303 318 319
f 303 319 318
f 303 319 320
f 303 320 319
f 303 320 321
f 303 321 320
f 303 321 322
f 303 322 321
f 303 322 323
f 303 323 322
f 303 323 324
f 303 324 323
f 303 324 325
f 303 325 324
f 303 325 326
f 303 326 325
f 303 326 327
f 303 327 326
f 303 327 328
f 303 328 327
f 303 328 329
f 303 329 328
f 303 329 330
f 303 330 329
f 303 330 331
f 303 331 330
f 303 331 332
f 303 332 331
f 303 332 333
f 303 333 332
f 303 333 334
f 303 334 333
f 303 334 335
f 303 335 334
f 303 335 336
f 303 336 335
f 303 336 337
f 303 337 336
f 303 337 338
f 303 338 337
f 303 338 339
f 303 339 338
f 303 339 340
f 303 340 339
f 303 340 341
f 303 341 340
f 303 341 342
f 303 342 341
f 303 342 343
f 303 343 342
f 303 343 344
f 303 344 343
f 303 344 345
f 303 345 344
f 303 345 346
f 303 346 345
f 303 346 347
f 303 347 346
f 303 347 348
f 303 348 347
v 0.000000 -0.003958 0.011329
v 0.010057 -0.004449 0.004801
v 0.010057 -0.000491 -0.006527
v 0.000000 0.003958 -0.011329
v -0.010057 0.004449 -0.004801
v -0.010057 0.000491 0.006527
v 0.099829 0.359598 0.134101
v 0.106534 0.359270 0.129750
v 0.106534 0.361909 0.122197
v 0.099829 0.364875 0.118997
v 0.093125 0.365203 0.123348
v 0.093125 0.362564 0.130901
f 349 350 356
f 349 356 355
f 350 351 357
f 350 357 356
f 351 352 358
f 351 358 357
f 352 353 359
f 352 359 358
f 353 354 360
f 353 360 359
f 354 349 355
f 354 355 360
v 0.099829 0.362236 0.126549
v 0.108102 0.328081 0.183146
v 0.107003 0.302740 0.221908
v 0.103087 0.280047 0.255308
v 0.097185 0.259224 0.284926
v 0.089578 0.240003 0.311301
v 0.080375 0.222283 0.334638
v 0.069613 0.206030 0.355007
v 0.057297 0.191239 0.372419
v 0.043420 0.177916 0.386858
v 0.027969 0.166073 0.398303
v 0.010934 0.155719 0.406734
v -0.007689 0.146860 0.412141
v -0.027902 0.139495 0.414524
v -0.049697 0.133619 0.413893
v -0.073066 0.129223 0.410267
v -0.097997 0.126296 0.403670
v -0.124482 0.124830 0.394114
v -0.152526 0.124831 0.381591
v -0.182166 0.126333 0.366030
v -0.213510 0.129437 0.347226
v -0.246841 0.134411 0.324640
v -0.282989 0.142034 0.296692
v -0.328508 0.158470 0.250909
v -0.336780 0.192625 0.194311
v -0.335682 0.217967 0.155550
v -0.331766 0.240659 0.122150
v -0.325864 0.261483 0.092531
v -0.318257 0.280703 0.066157
v -0.309054 0.298423 0.042820
v -0.298292 0.314676 0.022451
v -0.285976 0.329468 0.005039
v -0.272098 0.342790 -0.009400
v -0.256647 0.354633 -0.020845
v -0.239613 0.364987 -0.029276
v -0.220989 0.373847 -0.034683
v -0.200777 0.381212 -0.037066
v -0.178981 0.387087 -0.036435
v -0.155612 0.391484 -0.032810
v -0.130682 0.394411 -0.026212
v -0.104197 0.395876 -0.016656
v -0.076153 0.395876 -0.004134
v -0.046513 0.394374 0.011427
v -0.015169 0.391269 0.030232
v 0.018162 0.386296 0.052818
v 0.054310 0.378673 0.080766
f 361 362 363
f 361 363 362
f 361 363 364
f 361 364 363
f 361 364 365
f 361 365 364
f 361 365 366
f 361 366 365
f 361 366 367
f 361 367 366
f 361 367 368
f 361 368 367
f 361 368 369
f 361 369 368
f 361 369 370
f 361 370 369
f 361 370 371
f 361 371 370
f 361 371 372
f 361 372 371
f 361 372 373
f 361 373 372
f 361 373 374
f 361 374 373
f 361 374 375
f 361 375 374
f 361 375 376
f 361 376 375
f 361 376 377
f 361 377 376
f 361 377 378
f 361 378 377
f 361 378 379
f 361 379 378
f 361 379 380
f 361 380 379
f 361 380 381
f 361 381 380
f 361 381 382
f 361 382 381
f 361 382 383
f 361 383 382
f 361 383 384
f 361 384 383
f 361 384 385
f 361 385 384
f 361 385 386
f 361 386 385
f 361 386 387
f 361 387 386
f 361 387 388
f 361 388 387
f 361 388 389
f 361 389 388
f 361 389 390
f 361 390 389
f 361 390 391
f 361 391 390
f 361 391 392
f 361 392 391
f 361 392 393
f 361 393 392
f 361 393 394
f 361 394 393
f 361 394 395
f 361 395 394
f 361 395 396
f 361 396 395
f 361 396 397
f 361 397 396
f 361 397 398
f 361 398 397
f 361 398 399
f 361 399 398
f 361 399 400
f 361 400 399
f 361 400 401
f 361 401 400
f 361 401 402
f 361 402 401
f 361 402 403
f 361 403 402
f 361 403 404
f 361 404 403
f 361 404 405
f 361 405 404
f 361 405 406
f 361 406 405
