o mesh
v 0.000000 0.000000 0.015000
v 0.010607 0.000000 0.010607
v 0.015000 0.000000 0.000000
v 0.010607 0.000000 -0.010607
v 0.000000 0.000000 -0.015000
v -0.010607 0.000000 -0.010607
v -0.015000 0.000000 -0.000000
v -0.010607 0.000000 0.010607
v 0.000000 0.040000 0.012000
v 0.008485 0.040000 0.008485
v 0.012000 0.040000 0.000000
v 0.008485 0.040000 -0.008485
v 0.000000 0.040000 -0.012000
v -0.008485 0.040000 -0.008485
v -0.012000 0.040000 -0.000000
v -0.008485 0.040000 0.008485
f 1 2 10
f 1 10 9
f 2 3 11
f 2 11 10
f 3 4 12
f 3 12 11
f 4 5 13
f 4 13 12
f 5 6 14
f 5 14 13
f 6 7 15
f 6 15 14
f 7 8 16
f 7 16 15
f 8 1 9
f 8 9 16
v 0.000000 0.040000 -0.000000
v 0.004754 0.032015 0.008663
v 0.011063 0.024030 0.017401
v 0.017879 0.016045 0.026164
v 0.024773 0.008059 0.034930
v 0.031427 0.000074 0.043685
v 0.037573 -0.007911 0.052415
v 0.042987 -0.015896 0.061110
v 0.047474 -0.023881 0.069760
v 0.050878 -0.031866 0.078357
v 0.053080 -0.039852 0.086896
v 0.053997 -0.047837 0.095372
v 0.053588 -0.055822 0.103784
v 0.051854 -0.063807 0.112132
v 0.048836 -0.071792 0.120417
v 0.044615 -0.079777 0.128644
v 0.039311 -0.087763 0.136818
v 0.033081 -0.095748 0.144948
v 0.026117 -0.103733 0.153042
v 0.018647 -0.111718 0.161111
v 0.010936 -0.119703 0.169168
v 0.003303 -0.127688 0.177230
v -0.003823 -0.135674 0.185316
v -0.009393 -0.143659 0.193477
v -0.014147 -0.135674 0.184814
v -0.020456 -0.127688 0.176076
v -0.027273 -0.119703 0.167313
v -0.034167 -0.111718 0.158547
v -0.040820 -0.103733 0.149792
v -0.046967 -0.095748 0.141062
v -0.052380 -0.087763 0.132367
v -0.056867 -0.079777 0.123717
v -0.060272 -0.071792 0.115120
v -0.062473 -0.063807 0.106581
v -0.063390 -0.055822 0.098105
v -0.062982 -0.047837 0.089693
v -0.061248 -0.039852 0.081345
v -0.058230 -0.031866 0.073060
v -0.054009 -0.023881 0.064833
v -0.048704 -0.015896 0.056658
v -0.042474 -0.007911 0.048529
v -0.035511 0.000074 0.040435
v -0.028041 0.008059 0.032366
v -0.020330 0.016045 0.024309
v -0.012696 0.024030 0.016247
v -0.005570 0.032015 0.008161
f 17 18 19
f 17 19 18
f 17 19 20
f 17 20 19
f 17 20 21
f 17 21 20
f 17 21 22
f 17 22 21
f 17 22 23
f 17 23 22
f 17 23 24
f 17 24 23
f 17 24 25
f 17 25 24
f 17 25 26
f 17 26 25
f 17 26 27
f 17 27 26
f 17 27 28
f 17 28 27
f 17 28 29
f 17 29 28
f 17 29 30
f 17 30 29
f 17 30 31
f 17 31 30
f 17 31 32
f 17 32 31
f 17 32 33
f 17 33 32
f 17 33 34
f 17 34 33
f 17 34 35
f 17 35 34
f 17 35 36
f 17 36 35
f 17 36 37
f 17 37 36
f 17 37 38
f 17 38 37
f 17 38 39
f 17 39 38
f 17 39 40
f 17 40 39
f 17 40 41
f 17 41 40
f 17 41 42
f 17 42 41
f 17 42 43
f 17 43 42
f 17 43 44
f 17 44 43
f 17 44 45
f 17 45 44
f 17 45 46
f 17 46 45
f 17 46 47
f 17 47 46
f 17 47 48
f 17 48 47
f 17 48 49
f 17 49 48
f 17 49 50
f 17 50 49
f 17 50 51
f 17 51 50
f 17 51 52
f 17 52 51
f 17 52 53
f 17 53 52
f 17 53 54
f 17 54 53
f 17 54 55
f 17 55 54
f 17 55 56
f 17 56 55
f 17 56 57
f 17 57 56
f 17 57 58
f 17 58 57
f 17 58 59
f 17 59 58
f 17 59 60
f 17 60 59
f 17 60 61
f 17 61 60
f 17 61 62
f 17 62 61
v 0.000000 0.040000 -0.000000
v 0.010756 0.026256 -0.004577
v 0.022095 0.012512 -0.011459
v 0.033637 -0.001233 -0.019142
v 0.045224 -0.014977 -0.027002
v 0.056739 -0.028721 -0.034576
v 0.068083 -0.042465 -0.041477
v 0.079173 -0.056209 -0.047373
v 0.089937 -0.069954 -0.051983
v 0.100318 -0.083698 -0.055076
v 0.110270 -0.097442 -0.056477
v 0.119763 -0.111186 -0.056066
v 0.128782 -0.124931 -0.053783
v 0.137328 -0.138675 -0.049628
v 0.145415 -0.152419 -0.043661
v 0.153074 -0.166163 -0.036002
v 0.160349 -0.179907 -0.026826
v 0.167298 -0.193652 -0.016364
v 0.173993 -0.207396 -0.004897
v 0.180518 -0.221140 0.007243
v 0.186970 -0.234884 0.019669
v 0.193467 -0.248628 0.031918
v 0.200167 -0.262373 0.043366
v 0.207450 -0.276117 0.052509
v 0.196694 -0.262373 0.057086
v 0.185355 -0.248628 0.063968
v 0.173812 -0.234884 0.071651
v 0.162226 -0.221140 0.079511
v 0.150711 -0.207396 0.087085
v 0.139367 -0.193652 0.093986
v 0.128277 -0.179907 0.099882
v 0.117513 -0.166163 0.104492
v 0.107132 -0.152419 0.107585
v 0.097180 -0.138675 0.108986
v 0.087687 -0.124931 0.108575
v 0.078667 -0.111186 0.106292
v 0.070122 -0.097442 0.102137
v 0.062035 -0.083698 0.096170
v 0.054376 -0.069954 0.088511
v 0.047101 -0.056209 0.079335
v 0.040152 -0.042465 0.068873
v 0.033457 -0.028721 0.057406
v 0.026932 -0.014977 0.045266
v 0.020480 -0.001233 0.032840
v 0.013983 0.012512 0.020591
v 0.007283 0.026256 0.009143
f 63 64 65
f 63 65 64
f 63 65 66
f 63 66 65
f 63 66 67
f 63 67 66
f 63 67 68
f 63 68 67
f 63 68 69
f 63 69 68
f 63 69 70
f 63 70 69
f 63 70 71
f 63 71 70
f 63 71 72
f 63 72 71
f 63 72 73
f 63 73 72
f 63 73 74
f 63 74 73
f 63 74 75
f 63 75 74
f 63 75 76
f 63 76 75
f 63 76 77
f 63 77 76
f 63 77 78
f 63 78 77
f 63 78 79
f 63 79 78
f 63 79 80
f 63 80 79
f 63 80 81
f 63 81 80
f 63 81 82
f 63 82 81
f 63 82 83
f 63 83 82
f 63 83 84
f 63 84 83
f 63 84 85
f 63 85 84
f 63 85 86
f 63 86 85
f 63 86 87
f 63 87 86
f 63 87 88
f 63 88 87
f 63 88 89
f 63 89 88
f 63 89 90
f 63 90 89
f 63 90 91
f 63 91 90
f 63 91 92
f 63 92 91
f 63 92 93
f 63 93 92
f 63 93 94
f 63 94 93
f 63 94 95
f 63 95 94
f 63 95 96
f 63 96 95
f 63 96 97
f 63 97 96
f 63 97 98
f 63 98 97
f 63 98 99
f 63 99 98
f 63 99 100
f 63 100 99
f 63 100 101
f 63 101 100
f 63 101 102
f 63 102 101
f 63 102 103
f 63 103 102
f 63 103 104
f 63 104 103
f 63 104 105
f 63 105 104
f 63 105 106
f 63 106 105
f 63 106 107
f 63 107 106
f 63 107 108
f 63 108 107
v 0.000000 0.040000 -0.000000
v 0.002957 0.030336 -0.010208
v 0.003624 0.020671 -0.022036
v 0.003038 0.011007 -0.034750
v 0.001759 0.001342 -0.047954
v 0.000250 -0.008322 -0.061321
v -0.001075 -0.017986 -0.074559
v -0.001843 -0.027651 -0.087401
v -0.001723 -0.037315 -0.099616
v -0.000438 -0.046979 -0.111007
v 0.002227 -0.056644 -0.121422
v 0.006421 -0.066308 -0.130754
v 0.012220 -0.075973 -0.138952
v 0.019623 -0.085637 -0.146014
v 0.028556 -0.095301 -0.151995
v 0.038870 -0.104966 -0.156998
v 0.050348 -0.114630 -0.161178
v 0.062713 -0.124295 -0.164731
v 0.075637 -0.133959 -0.167888
v 0.088744 -0.143623 -0.170916
v 0.101620 -0.153288 -0.174107
v 0.113804 -0.162952 -0.177788
v 0.124735 -0.172616 -0.182354
v 0.133376 -0.182281 -0.188542
v 0.130419 -0.172616 -0.178334
v 0.129752 -0.162952 -0.166505
v 0.130338 -0.153288 -0.153791
v 0.131616 -0.143623 -0.140587
v 0.133126 -0.133959 -0.127220
v 0.134451 -0.124295 -0.113983
v 0.135218 -0.114630 -0.101140
v 0.135098 -0.104966 -0.088925
v 0.133814 -0.095301 -0.077534
v 0.131149 -0.085637 -0.067120
v 0.126955 -0.075973 -0.057787
v 0.121156 -0.066308 -0.049590
v 0.113752 -0.056644 -0.042527
v 0.104819 -0.046979 -0.036547
v 0.094506 -0.037315 -0.031543
v 0.083028 -0.027651 -0.027363
v 0.070662 -0.017986 -0.023811
v 0.057739 -0.008322 -0.020653
v 0.044632 0.001342 -0.017625
v 0.031756 0.011007 -0.014435
v 0.019572 0.020671 -0.010754
v 0.008641 0.030336 -0.006187
f 109 110 111
f 109 111 110
f 109 111 112
f 109 112 111
f 109 112 113
f 109 113 112
f 109 113 114
f 109 114 113
f 109 114 115
f 109 115 114
f 109 115 116
f 109 116 115
f 109 116 117
f 109 117 116
f 109 117 118
f 109 118 117
f 109 118 119
f 109 119 118
f 109 119 120
f 109 120 119
f 109 120 121
f 109 121 120
f 109 121 122
f 109 122 121
f 109 122 123
f 109 123 122
f 109 123 124
f 109 124 123
f 109 124 125
f 109 125 124
f 109 125 126
f 109 126 125
f 109 126 127
f 109 127 126
f 109 127 128
f 109 128 127
f 109 128 129
f 109 129 128
f 109 129 130
f 109 130 129
f 109 130 131
f 109 131 130
f 109 131 132
f 109 132 131
f 109 132 133
f 109 133 132
f 109 133 134
f 109 134 133
f 109 134 135
f 109 135 134
f 109 135 136
f 109 136 135
f 109 136 137
f 109 137 136
f 109 137 138
f 109 138 137
f 109 138 139
f 109 139 138
f 109 139 140
f 109 140 139
f 109 140 141
f 109 141 140
f 109 141 142
f 109 142 141
f 109 142 143
f 109 143 142
f 109 143 144
f 109 144 143
f 109 144 145
f 109 145 144
f 109 145 146
f 109 146 145
f 109 146 147
f 109 147 146
f 109 147 148
f 109 148 147
f 109 148 149
f 109 149 148
f 109 149 150
f 109 150 149
f 109 150 151
f 109 151 150
f 109 151 152
f 109 152 151
f 109 152 153
f 109 153 152
f 109 153 154
f 109 154 153
v 0.000000 0.040000 -0.000000
v -0.009157 0.026086 -0.005273
v -0.021041 0.012171 -0.008814
v -0.034269 -0.001743 -0.011499
v -0.048164 -0.015657 -0.013761
v -0.062187 -0.029571 -0.015942
v -0.075868 -0.043486 -0.018340
v -0.088790 -0.057400 -0.021220
v -0.100594 -0.071314 -0.024811
v -0.110977 -0.085228 -0.029305
v -0.119706 -0.099143 -0.034850
v -0.126623 -0.113057 -0.041547
v -0.131645 -0.126971 -0.049449
v -0.134773 -0.140885 -0.058554
v -0.136087 -0.154800 -0.068812
v -0.135748 -0.168714 -0.080121
v -0.133989 -0.182628 -0.092332
v -0.131110 -0.196542 -0.105255
v -0.127474 -0.210457 -0.118660
v -0.123495 -0.224371 -0.132282
v -0.119645 -0.238285 -0.145823
v -0.116460 -0.252199 -0.158941
v -0.114621 -0.266114 -0.171203
v -0.115508 -0.280028 -0.181733
v -0.106350 -0.266114 -0.176460
v -0.094467 -0.252199 -0.172919
v -0.081238 -0.238285 -0.170234
v -0.067343 -0.224371 -0.167972
v -0.053321 -0.210457 -0.165791
v -0.039640 -0.196542 -0.163393
v -0.026717 -0.182628 -0.160513
v -0.014914 -0.168714 -0.156922
v -0.004531 -0.154800 -0.152428
v 0.004199 -0.140885 -0.146883
v 0.011115 -0.126971 -0.140185
v 0.016137 -0.113057 -0.132284
v 0.019265 -0.099143 -0.123179
v 0.020580 -0.085228 -0.112921
v 0.020241 -0.071314 -0.101612
v 0.018481 -0.057400 -0.089400
v 0.015603 -0.043486 -0.076477
v 0.011966 -0.029571 -0.063073
v 0.007988 -0.015657 -0.049450
v 0.004137 -0.001743 -0.035910
v 0.000952 0.012171 -0.022792
v -0.000887 0.026086 -0.010530
f 155 156 157
f 155 157 156
f 155 157 158
f 155 158 157
f 155 158 159
f 155 159 158
f 155 159 160
f 155 160 159
f 155 160 161
f 155 161 160
f 155 161 162
f 155 162 161
f 155 162 163
f 155 163 162
f 155 163 164
f 155 164 163
f 155 164 165
f 155 165 164
f 155 165 166
f 155 166 165
f 155 166 167
f 155 167 166
f 155 167 168
f 155 168 167
f 155 168 169
f 155 169 168
f 155 169 170
f 155 170 169
f 155 170 171
f 155 171 170
f 155 171 172
f 155 172 171
f 155 172 173
f 155 173 172
f 155 173 174
f 155 174 173
f 155 174 175
f 155 175 174
f 155 175 176
f 155 176 175
f 155 176 177
f 155 177 176
f 155 177 178
f 155 178 177
f 155 178 179
f 155 179 178
f 155 179 180
f 155 180 179
f 155 180 181
f 155 181 180
f 155 181 182
f 155 182 181
f 155 182 183
f 155 183 182
f 155 183 184
f 155 184 183
f 155 184 185
f 155 185 184
f 155 185 186
f 155 186 185
f 155 186 187
f 155 187 186
f 155 187 188
f 155 188 187
f 155 188 189
f 155 189 188
f 155 189 190
f 155 190 189
f 155 190 191
f 155 191 190
f 155 191 192
f 155 192 191
f 155 192 193
f 155 193 192
f 155 193 194
f 155 194 193
f 155 194 195
f 155 195 194
f 155 195 196
f 155 196 195
f 155 196 197
f 155 197 196
f 155 197 198
f 155 198 197
f 155 198 199
f 155 199 198
f 155 199 200
f 155 200 199
v 0.000000 0.040000 -0.000000
v -0.004964 0.030630 0.003332
v -0.009249 0.021260 0.008771
v -0.013046 0.011890 0.015724
v -0.016506 0.002519 0.023725
v -0.019776 -0.006851 0.032312
v -0.023008 -0.016221 0.041020
v -0.026346 -0.025591 0.049397
v -0.029926 -0.034961 0.057023
v -0.033866 -0.044331 0.063532
v -0.038261 -0.053701 0.068632
v -0.043176 -0.063072 0.072115
v -0.048646 -0.072442 0.073878
v -0.054670 -0.081812 0.073921
v -0.061216 -0.091182 0.072348
v -0.068215 -0.100552 0.069365
v -0.075575 -0.109922 0.065265
v -0.083177 -0.119292 0.060414
v -0.090885 -0.128662 0.055233
v -0.098555 -0.138033 0.050172
v -0.106036 -0.147403 0.045697
v -0.113178 -0.156773 0.042271
v -0.119833 -0.166143 0.040358
v -0.125809 -0.175513 0.040552
v -0.120845 -0.166143 0.037220
v -0.116560 -0.156773 0.031781
v -0.112762 -0.147403 0.024828
v -0.109303 -0.138033 0.016827
v -0.106033 -0.128662 0.008240
v -0.102801 -0.119292 -0.000468
v -0.099463 -0.109922 -0.008845
v -0.095883 -0.100552 -0.016471
v -0.091943 -0.091182 -0.022980
v -0.087548 -0.081812 -0.028079
v -0.082633 -0.072442 -0.031563
v -0.077163 -0.063072 -0.033326
v -0.071138 -0.053701 -0.033369
v -0.064593 -0.044331 -0.031796
v -0.057593 -0.034961 -0.028813
v -0.050234 -0.025591 -0.024713
v -0.042632 -0.016221 -0.019862
v -0.034923 -0.006851 -0.014681
v -0.027254 0.002519 -0.009620
v -0.019773 0.011890 -0.005145
v -0.012631 0.021260 -0.001719
v -0.005976 0.030630 0.000194
f 201 202 203
f 201 203 202
f 201 203 204
f 201 204 203
f 201 204 205
f 201 205 204
f 201 205 206
f 201 206 205
f 201 206 207
f 201 207 206
f 201 207 208
f 201 208 207
f 201 208 209
f 201 209 208
f 201 209 210
f 201 210 209
f 201 210 211
f 201 211 210
f 201 211 212
f 201 212 211
f 201 212 213
f 201 213 212
f 201 213 214
f 201 214 213
f 201 214 215
f 201 215 214
f 201 215 216
f 201 216 215
f 201 216 217
f 201 217 216
f 201 217 218
f 201 218 217
f 201 218 219
f 201 219 218
f 201 219 220
f 201 220 219
f 201 220 221
f 201 221 220
f 201 221 222
f 201 222 221
f 201 222 223
f 201 223 222
f 201 223 224
f 201 224 223
f 201 224 225
f 201 225 224
f 201 225 226
f 201 226 225
f 201 226 227
f 201 227 226
f 201 227 228
f 201 228 227
f 201 228 229
f 201 229 228
f 201 229 230
f 201 230 229
f 201 230 231
f 201 231 230
f 201 231 232
f 201 232 231
f 201 232 233
f 201 233 232
f 201 233 234
f 201 234 233
f 201 234 235
f 201 235 234
f 201 235 236
f 201 236 235
f 201 236 237
f 201 237 236
f 201 237 238
f 201 238 237
f 201 238 239
f 201 239 238
f 201 239 240
f 201 240 239
f 201 240 241
f 201 241 240
f 201 241 242
f 201 242 241
f 201 242 243
f 201 243 242
f 201 243 244
f 201 244 243
f 201 244 245
f 201 245 244
f 201 245 246
f 201 246 245
