o mesh
v 0.000000 0.000000 0.015000
v 0.010607 0.000000 0.010607
v 0.015000 0.000000 0.000000
v 0.010607 0.000000 -0.010607
v 0.000000 0.000000 -0.015000
v -0.010607 0.000000 -0.010607
v -0.015000 0.000000 -0.000000
v -0.010607 0.000000 0.010607
v 0.000000 0.040000 0.012000
v 0.008485 0.040000 0.008485
v 0.012000 0.040000 0.000000
v 0.008485 0.040000 -0.008485
v 0.000000 0.040000 -0.012000
v -0.008485 0.040000 -0.008485
v -0.012000 0.040000 -0.000000
v -0.008485 0.040000 0.008485
f 1 2 10
f 1 10 9
f 2 3 11
f 2 11 10
f 3 4 12
f 3 12 11
f 4 5 13
f 4 13 12
f 5 6 14
f 5 14 13
f 6 7 15
f 6 15 14
f 7 8 16
f 7 16 15
f 8 1 9
f 8 9 16
v 0.000000 0.040000 -0.000000
v 0.003868 0.027518 0.007321
v 0.010711 0.015036 0.014419
v 0.019277 0.002554 0.021389
v 0.028849 -0.009928 0.028283
v 0.038818 -0.022410 0.035147
v 0.048626 -0.034892 0.042024
v 0.057764 -0.047374 0.048950
v 0.065778 -0.059856 0.055961
v 0.072286 -0.072338 0.063085
v 0.076987 -0.084820 0.070343
v 0.079673 -0.097302 0.077753
v 0.080239 -0.109784 0.085321
v 0.078686 -0.122266 0.093047
v 0.075118 -0.134748 0.100925
v 0.069743 -0.147230 0.108938
v 0.062861 -0.159711 0.117063
v 0.054856 -0.172193 0.125273
v 0.046180 -0.184675 0.133532
v 0.037344 -0.197157 0.141804
v 0.028905 -0.209639 0.150046
v 0.021471 -0.222121 0.158213
v 0.015761 -0.234603 0.166250
v 0.013026 -0.247085 0.174065
v 0.009158 -0.234603 0.166744
v 0.002315 -0.222121 0.159646
v -0.006251 -0.209639 0.152677
v -0.015823 -0.197157 0.145783
v -0.025792 -0.184675 0.138918
v -0.035600 -0.172193 0.132042
v -0.044738 -0.159711 0.125115
v -0.052752 -0.147230 0.118104
v -0.059260 -0.134748 0.110981
v -0.063961 -0.122266 0.103722
v -0.066647 -0.109784 0.096313
v -0.067213 -0.097302 0.088745
v -0.065660 -0.084820 0.081018
v -0.062092 -0.072338 0.073141
v -0.056717 -0.059856 0.065128
v -0.049835 -0.047374 0.057002
v -0.041830 -0.034892 0.048793
v -0.033155 -0.022410 0.040533
v -0.024318 -0.009928 0.032262
v -0.015879 0.002554 0.024020
v -0.008445 0.015036 0.015853
v -0.002735 0.027518 0.007815
f 17 18 19
f 17 19 18
f 17 19 20
f 17 20 19
f 17 20 21
f 17 21 20
f 17 21 22
f 17 22 21
f 17 22 23
f 17 23 22
f 17 23 24
f 17 24 23
f 17 24 25
f 17 25 24
f 17 25 26
f 17 26 25
f 17 26 27
f 17 27 26
f 17 27 28
f 17 28 27
f 17 28 29
f 17 29 28
f 17 29 30
f 17 30 29
f 17 30 31
f 17 31 30
f 17 31 32
f 17 32 31
f 17 32 33
f 17 33 32
f 17 33 34
f 17 34 33
f 17 34 35
f 17 35 34
f 17 35 36
f 17 36 35
f 17 36 37
f 17 37 36
f 17 37 38
f 17 38 37
f 17 38 39
f 17 39 38
f 17 39 40
f 17 40 39
f 17 40 41
f 17 41 40
f 17 41 42
f 17 42 41
f 17 42 43
f 17 43 42
f 17 43 44
f 17 44 43
f 17 44 45
f 17 45 44
f 17 45 46
f 17 46 45
f 17 46 47
f 17 47 46
f 17 47 48
f 17 48 47
f 17 48 49
f 17 49 48
f 17 49 50
f 17 50 49
f 17 50 51
f 17 51 50
f 17 51 52
f 17 52 51
f 17 52 53
f 17 53 52
f 17 53 54
f 17 54 53
f 17 54 55
f 17 55 54
f 17 55 56
f 17 56 55
f 17 56 57
f 17 57 56
f 17 57 58
f 17 58 57
f 17 58 59
f 17 59 58
f 17 59 60
f 17 60 59
f 17 60 61
f 17 61 60
f 17 61 62
f 17 62 61
v 0.000000 0.040000 -0.000000
v 0.007332 0.032733 0.005542
v 0.016536 0.025467 0.009679
v 0.026839 0.018200 0.012991
v 0.037790 0.010933 0.015815
v 0.049005 0.003666 0.018441
v 0.060131 -0.003600 0.021135
v 0.070841 -0.010867 0.024140
v 0.080849 -0.018134 0.027673
v 0.089909 -0.025401 0.031918
v 0.097828 -0.032667 0.037019
v 0.104474 -0.039934 0.043077
v 0.109779 -0.047201 0.050141
v 0.113744 -0.054468 0.058213
v 0.116435 -0.061734 0.067240
v 0.117986 -0.069001 0.077124
v 0.118589 -0.076268 0.087720
v 0.118489 -0.083535 0.098844
v 0.117974 -0.090801 0.110279
v 0.117370 -0.098068 0.121782
v 0.117029 -0.105335 0.133086
v 0.117337 -0.112602 0.143904
v 0.118744 -0.119868 0.153896
v 0.122022 -0.127135 0.162482
v 0.114690 -0.119868 0.156940
v 0.105486 -0.112602 0.152803
v 0.095184 -0.105335 0.149492
v 0.084232 -0.098068 0.146668
v 0.073017 -0.090801 0.144041
v 0.061892 -0.083535 0.141348
v 0.051181 -0.076268 0.138343
v 0.041173 -0.069001 0.134810
v 0.032114 -0.061734 0.130565
v 0.024195 -0.054468 0.125463
v 0.017549 -0.047201 0.119405
v 0.012243 -0.039934 0.112341
v 0.008279 -0.032667 0.104270
v 0.005587 -0.025401 0.095242
v 0.004036 -0.018134 0.085359
v 0.003433 -0.010867 0.074763
v 0.003533 -0.003600 0.063639
v 0.004048 0.003666 0.052204
v 0.004652 0.010933 0.040701
v 0.004993 0.018200 0.029396
v 0.004685 0.025467 0.018579
v 0.003279 0.032733 0.008586
f 63 64 65
f 63 65 64
f 63 65 66
f 63 66 65
f 63 66 67
f 63 67 66
f 63 67 68
f 63 68 67
f 63 68 69
f 63 69 68
f 63 69 70
f 63 70 69
f 63 70 71
f 63 71 70
f 63 71 72
f 63 72 71
f 63 72 73
f 63 73 72
f 63 73 74
f 63 74 73
f 63 74 75
f 63 75 74
f 63 75 76
f 63 76 75
f 63 76 77
f 63 77 76
f 63 77 78
f 63 78 77
f 63 78 79
f 63 79 78
f 63 79 80
f 63 80 79
f 63 80 81
f 63 81 80
f 63 81 82
f 63 82 81
f 63 82 83
f 63 83 82
f 63 83 84
f 63 84 83
f 63 84 85
f 63 85 84
f 63 85 86
f 63 86 85
f 63 86 87
f 63 87 86
f 63 87 88
f 63 88 87
f 63 88 89
f 63 89 88
f 63 89 90
f 63 90 89
f 63 90 91
f 63 91 90
f 63 91 92
f 63 92 91
f 63 92 93
f 63 93 92
f 63 93 94
f 63 94 93
f 63 94 95
f 63 95 94
f 63 95 96
f 63 96 95
f 63 96 97
f 63 97 96
f 63 97 98
f 63 98 97
f 63 98 99
f 63 99 98
f 63 99 100
f 63 100 99
f 63 100 101
f 63 101 100
f 63 101 102
f 63 102 101
f 63 102 103
f 63 103 102
f 63 103 104
f 63 104 103
f 63 104 105
f 63 105 104
f 63 105 106
f 63 106 105
f 63 106 107
f 63 107 106
f 63 107 108
f 63 108 107
v 0.000000 0.040000 -0.000000
v 0.010096 0.032906 -0.001140
v 0.020513 0.025812 -0.004759
v 0.031129 0.018718 -0.009919
v 0.041868 0.011624 -0.016034
v 0.052664 0.004530 -0.022585
v 0.063453 -0.002564 -0.029085
v 0.074177 -0.009658 -0.035080
v 0.084783 -0.016752 -0.040163
v 0.095226 -0.023846 -0.043985
v 0.105470 -0.030940 -0.046270
v 0.115491 -0.038034 -0.046829
v 0.125276 -0.045128 -0.045563
v 0.134825 -0.052222 -0.042473
v 0.144150 -0.059316 -0.037657
v 0.153277 -0.066409 -0.031304
v 0.162241 -0.073503 -0.023690
v 0.171087 -0.080597 -0.015163
v 0.179867 -0.087691 -0.006132
v 0.188641 -0.094785 0.002951
v 0.197471 -0.101879 0.011597
v 0.206425 -0.108973 0.019287
v 0.215578 -0.116067 0.025438
v 0.225051 -0.123161 0.029109
v 0.214955 -0.116067 0.030250
v 0.204539 -0.108973 0.033869
v 0.193923 -0.101879 0.039028
v 0.183183 -0.094785 0.045143
v 0.172388 -0.087691 0.051694
v 0.161598 -0.080597 0.058194
v 0.150874 -0.073503 0.064190
v 0.140268 -0.066409 0.069273
v 0.129825 -0.059316 0.073094
v 0.119581 -0.052222 0.075379
v 0.109560 -0.045128 0.075938
v 0.099776 -0.038034 0.074672
v 0.090227 -0.030940 0.071583
v 0.080901 -0.023846 0.066766
v 0.071774 -0.016752 0.060413
v 0.062811 -0.009658 0.052799
v 0.053965 -0.002564 0.044272
v 0.045185 0.004530 0.035241
v 0.036411 0.011624 0.026159
v 0.027580 0.018718 0.017512
v 0.018627 0.025812 0.009822
v 0.009474 0.032906 0.003672
f 109 110 111
f 109 111 110
f 109 111 112
f 109 112 111
f 109 112 113
f 109 113 112
f 109 113 114
f 109 114 113
f 109 114 115
f 109 115 114
f 109 115 116
f 109 116 115
f 109 116 117
f 109 117 116
f 109 117 118
f 109 118 117
f 109 118 119
f 109 119 118
f 109 119 120
f 109 120 119
f 109 120 121
f 109 121 120
f 109 121 122
f 109 122 121
f 109 122 123
f 109 123 122
f 109 123 124
f 109 124 123
f 109 124 125
f 109 125 124
f 109 125 126
f 109 126 125
f 109 126 127
f 109 127 126
f 109 127 128
f 109 128 127
f 109 128 129
f 109 129 128
f 109 129 130
f 109 130 129
f 109 130 131
f 109 131 130
f 109 131 132
f 109 132 131
f 109 132 133
f 109 133 132
f 109 133 134
f 109 134 133
f 109 134 135
f 109 135 134
f 109 135 136
f 109 136 135
f 109 136 137
f 109 137 136
f 109 137 138
f 109 138 137
f 109 138 139
f 109 139 138
f 109 139 140
f 109 140 139
f 109 140 141
f 109 141 140
f 109 141 142
f 109 142 141
f 109 142 143
f 109 143 142
f 109 143 144
f 109 144 143
f 109 144 145
f 109 145 144
f 109 145 146
f 109 146 145
f 109 146 147
f 109 147 146
f 109 147 148
f 109 148 147
f 109 148 149
f 109 149 148
f 109 149 150
f 109 150 149
f 109 150 151
f 109 151 150
f 109 151 152
f 109 152 151
f 109 152 153
f 109 153 152
f 109 153 154
f 109 154 153
v 0.000000 0.040000 -0.000000
v 0.002771 0.027381 -0.007519
v 0.003432 0.014762 -0.017134
v 0.002878 0.002142 -0.027956
v 0.001618 -0.010477 -0.039479
v 0.000083 -0.023096 -0.051275
v -0.001332 -0.035715 -0.062952
v -0.002268 -0.048335 -0.074154
v -0.002407 -0.060954 -0.084563
v -0.001477 -0.073573 -0.093911
v 0.000733 -0.086192 -0.101987
v 0.004368 -0.098811 -0.108647
v 0.009504 -0.111431 -0.113817
v 0.016140 -0.124050 -0.117497
v 0.024201 -0.136669 -0.119761
v 0.033543 -0.149288 -0.120753
v 0.043952 -0.161908 -0.120685
v 0.055160 -0.174527 -0.119823
v 0.066847 -0.187146 -0.118486
v 0.078652 -0.199765 -0.117030
v 0.090184 -0.212384 -0.115847
v 0.101009 -0.225004 -0.115366
v 0.110619 -0.237623 -0.116091
v 0.118120 -0.250242 -0.118912
v 0.115349 -0.237623 -0.111393
v 0.114688 -0.225004 -0.101778
v 0.115242 -0.212384 -0.090956
v 0.116502 -0.199765 -0.079433
v 0.118036 -0.187146 -0.067637
v 0.119452 -0.174527 -0.055960
v 0.120388 -0.161908 -0.044758
v 0.120526 -0.149288 -0.034349
v 0.119597 -0.136669 -0.025001
v 0.117387 -0.124050 -0.016925
v 0.113751 -0.111431 -0.010265
v 0.108616 -0.098811 -0.005095
v 0.101980 -0.086192 -0.001415
v 0.093918 -0.073573 0.000849
v 0.084577 -0.060954 0.001841
v 0.074167 -0.048335 0.001773
v 0.062960 -0.035715 0.000911
v 0.051273 -0.023096 -0.000426
v 0.039467 -0.010477 -0.001882
v 0.027936 0.002142 -0.003065
v 0.017111 0.014762 -0.003546
v 0.007501 0.027381 -0.002821
f 155 156 157
f 155 157 156
f 155 157 158
f 155 158 157
f 155 158 159
f 155 159 158
f 155 159 160
f 155 160 159
f 155 160 161
f 155 161 160
f 155 161 162
f 155 162 161
f 155 162 163
f 155 163 162
f 155 163 164
f 155 164 163
f 155 164 165
f 155 165 164
f 155 165 166
f 155 166 165
f 155 166 167
f 155 167 166
f 155 167 168
f 155 168 167
f 155 168 169
f 155 169 168
f 155 169 170
f 155 170 169
f 155 170 171
f 155 171 170
f 155 171 172
f 155 172 171
f 155 172 173
f 155 173 172
f 155 173 174
f 155 174 173
f 155 174 175
f 155 175 174
f 155 175 176
f 155 176 175
f 155 176 177
f 155 177 176
f 155 177 178
f 155 178 177
f 155 178 179
f 155 179 178
f 155 179 180
f 155 180 179
f 155 180 181
f 155 181 180
f 155 181 182
f 155 182 181
f 155 182 183
f 155 183 182
f 155 183 184
f 155 184 183
f 155 184 185
f 155 185 184
f 155 185 186
f 155 186 185
f 155 186 187
f 155 187 186
f 155 187 188
f 155 188 187
f 155 188 189
f 155 189 188
f 155 189 190
f 155 190 189
f 155 190 191
f 155 191 190
f 155 191 192
f 155 192 191
f 155 192 193
f 155 193 192
f 155 193 194
f 155 194 193
f 155 194 195
f 155 195 194
f 155 195 196
f 155 196 195
f 155 196 197
f 155 197 196
f 155 197 198
f 155 198 197
f 155 198 199
f 155 199 198
f 155 199 200
f 155 200 199
v 0.000000 0.040000 -0.000000
v -0.004168 0.032804 -0.010307
v -0.010365 0.025609 -0.020717
v -0.017375 0.018413 -0.031169
v -0.024666 0.011217 -0.041635
v -0.031841 0.004022 -0.052094
v -0.038565 -0.003174 -0.062531
v -0.044547 -0.010370 -0.072931
v -0.049540 -0.017565 -0.083280
v -0.053340 -0.024761 -0.093568
v -0.055792 -0.031957 -0.103788
v -0.056789 -0.039153 -0.113935
v -0.056278 -0.046348 -0.124005
v -0.054259 -0.053544 -0.133998
v -0.050786 -0.060740 -0.143917
v -0.045964 -0.067935 -0.153769
v -0.039949 -0.075131 -0.163559
v -0.032945 -0.082327 -0.173300
v -0.025200 -0.089522 -0.183003
v -0.017003 -0.096718 -0.192682
v -0.008690 -0.103914 -0.202356
v -0.000659 -0.111109 -0.212045
v 0.006561 -0.118305 -0.221774
v 0.011750 -0.125501 -0.231607
v 0.015918 -0.118305 -0.221300
v 0.022116 -0.111109 -0.210889
v 0.029125 -0.103914 -0.200438
v 0.036416 -0.096718 -0.189972
v 0.043592 -0.089522 -0.179512
v 0.050315 -0.082327 -0.169076
v 0.056297 -0.075131 -0.158676
v 0.061290 -0.067935 -0.148327
v 0.065090 -0.060740 -0.138039
v 0.067542 -0.053544 -0.127818
v 0.068539 -0.046348 -0.117672
v 0.068028 -0.039153 -0.107602
v 0.066009 -0.031957 -0.097609
v 0.062536 -0.024761 -0.087689
v 0.057714 -0.017565 -0.077838
v 0.051699 -0.010370 -0.068048
v 0.044696 -0.003174 -0.058307
v 0.036950 0.004022 -0.048604
v 0.028753 0.011217 -0.038924
v 0.020440 0.018413 -0.029250
v 0.012409 0.025609 -0.019562
v 0.005189 0.032804 -0.009833
f 201 202 203
f 201 203 202
f 201 203 204
f 201 204 203
f 201 204 205
f 201 205 204
f 201 205 206
f 201 206 205
f 201 206 207
f 201 207 206
f 201 207 208
f 201 208 207
f 201 208 209
f 201 209 208
f 201 209 210
f 201 210 209
f 201 210 211
f 201 211 210
f 201 211 212
f 201 212 211
f 201 212 213
f 201 213 212
f 201 213 214
f 201 214 213
f 201 214 215
f 201 215 214
f 201 215 216
f 201 216 215
f 201 216 217
f 201 217 216
f 201 217 218
f 201 218 217
f 201 218 219
f 201 219 218
f 201 219 220
f 201 220 219
f 201 220 221
f 201 221 220
f 201 221 222
f 201 222 221
f 201 222 223
f 201 223 222
f 201 223 224
f 201 224 223
f 201 224 225
f 201 225 224
f 201 225 226
f 201 226 225
f 201 226 227
f 201 227 226
f 201 227 228
f 201 228 227
f 201 228 229
f 201 229 228
f 201 229 230
f 201 230 229
f 201 230 231
f 201 231 230
f 201 231 232
f 201 232 231
f 201 232 233
f 201 233 232
f 201 233 234
f 201 234 233
f 201 234 235
f 201 235 234
f 201 235 236
f 201 236 235
f 201 236 237
f 201 237 236
f 201 237 238
f 201 238 237
f 201 238 239
f 201 239 238
f 201 239 240
f 201 240 239
f 201 240 241
f 201 241 240
f 201 241 242
f 201 242 241
f 201 242 243
f 201 243 242
f 201 243 244
f 201 244 243
f 201 244 245
f 201 245 244
f 201 245 246
f 201 246 245
v 0.000000 0.040000 -0.000000
v -0.008087 0.029015 -0.005839
v -0.018471 0.018031 -0.009768
v -0.030408 0.007046 -0.012402
v -0.043376 -0.003938 -0.014180
v -0.056879 -0.014923 -0.015512
v -0.070435 -0.025907 -0.016800
v -0.083584 -0.036892 -0.018427
v -0.095906 -0.047876 -0.020742
v -0.107037 -0.058861 -0.024049
v -0.116686 -0.069845 -0.028588
v -0.124652 -0.080830 -0.034528
v -0.130832 -0.091814 -0.041954
v -0.135226 -0.102799 -0.050867
v -0.137937 -0.113783 -0.061180
v -0.139166 -0.124768 -0.072726
v -0.139205 -0.135752 -0.085263
v -0.138415 -0.146737 -0.098490
v -0.137219 -0.157721 -0.112054
v -0.136076 -0.168706 -0.125574
v -0.135469 -0.179690 -0.138649
v -0.135891 -0.190675 -0.150867
v -0.137867 -0.201659 -0.161792
v -0.142140 -0.212644 -0.170805
v -0.134054 -0.201659 -0.164965
v -0.123670 -0.190675 -0.161037
v -0.111732 -0.179690 -0.158402
v -0.098764 -0.168706 -0.156625
v -0.085261 -0.157721 -0.155292
v -0.071705 -0.146737 -0.154004
v -0.058556 -0.135752 -0.152378
v -0.046234 -0.124768 -0.150063
v -0.035104 -0.113783 -0.146756
v -0.025455 -0.102799 -0.142216
v -0.017489 -0.091814 -0.136276
v -0.011309 -0.080830 -0.128850
v -0.006915 -0.069845 -0.119937
v -0.004204 -0.058861 -0.109624
v -0.002974 -0.047876 -0.098079
v -0.002936 -0.036892 -0.085541
v -0.003725 -0.025907 -0.072315
v -0.004921 -0.014923 -0.058751
v -0.006064 -0.003938 -0.045230
v -0.006672 0.007046 -0.032155
v -0.006250 0.018031 -0.019938
v -0.004273 0.029015 -0.009013
f 247 248 249
f 247 249 248
f 247 249 250
f 247 250 249
f 247 250 251
f 247 251 250
f 247 251 252
f 247 252 251
f 247 252 253
f 247 253 252
f 247 253 254
f 247 254 253
f 247 254 255
f 247 255 254
f 247 255 256
f 247 256 255
f 247 256 257
f 247 257 256
f 247 257 258
f 247 258 257
f 247 258 259
f 247 259 258
f 247 259 260
f 247 260 259
f 247 260 261
f 247 261 260
f 247 261 262
f 247 262 261
f 247 262 263
f 247 263 262
f 247 263 264
f 247 264 263
f 247 264 265
f 247 265 264
f 247 265 266
f 247 266 265
f 247 266 267
f 247 267 266
f 247 267 268
f 247 268 267
f 247 268 269
f 247 269 268
f 247 269 270
f 247 270 269
f 247 270 271
f 247 271 270
f 247 271 272
f 247 272 271
f 247 272 273
f 247 273 272
f 247 273 274
f 247 274 273
f 247 274 275
f 247 275 274
f 247 275 276
f 247 276 275
f 247 276 277
f 247 277 276
f 247 277 278
f 247 278 277
f 247 278 279
f 247 279 278
f 247 279 280
f 247 280 279
f 247 280 281
f 247 281 280
f 247 281 282
f 247 282 281
f 247 282 283
f 247 283 282
f 247 283 284
f 247 284 283
f 247 284 285
f 247 285 284
f 247 285 286
f 247 286 285
f 247 286 287
f 247 287 286
f 247 287 288
f 247 288 287
f 247 288 289
f 247 289 288
f 247 289 290
f 247 290 289
f 247 290 291
f 247 291 290
f 247 291 292
f 247 292 291
v 0.000000 0.040000 -0.000000
v -0.005582 0.028676 0.006420
v -0.010826 0.017351 0.014787
v -0.015946 0.006027 0.023868
v -0.021032 -0.005297 0.033142
v -0.026152 -0.016621 0.042222
v -0.031362 -0.027946 0.050785
v -0.036710 -0.039270 0.058551
v -0.042238 -0.050594 0.065285
v -0.047979 -0.061918 0.070792
v -0.053959 -0.073243 0.074924
v -0.060196 -0.084567 0.077580
v -0.066697 -0.095891 0.078710
v -0.073465 -0.107216 0.078314
v -0.080488 -0.118540 0.076442
v -0.087751 -0.129864 0.073195
v -0.095226 -0.141188 0.068722
v -0.102882 -0.152513 0.063216
v -0.110675 -0.163837 0.056913
v -0.118559 -0.175161 0.050093
v -0.126476 -0.186485 0.043080
v -0.134360 -0.197810 0.036259
v -0.142119 -0.209134 0.030152
v -0.149541 -0.220458 0.025992
v -0.143958 -0.209134 0.019572
v -0.138715 -0.197810 0.011205
v -0.133595 -0.186485 0.002124
v -0.128508 -0.175161 -0.007150
v -0.123388 -0.163837 -0.016230
v -0.118179 -0.152513 -0.024792
v -0.112830 -0.141188 -0.032559
v -0.107302 -0.129864 -0.039292
v -0.101561 -0.118540 -0.044799
v -0.095581 -0.107216 -0.048931
v -0.089345 -0.095891 -0.051588
v -0.082843 -0.084567 -0.052718
v -0.076076 -0.073243 -0.052322
v -0.069053 -0.061918 -0.050450
v -0.061790 -0.050594 -0.047203
v -0.054314 -0.039270 -0.042730
v -0.046659 -0.027946 -0.037223
v -0.038865 -0.016621 -0.030921
v -0.030982 -0.005297 -0.024101
v -0.023065 0.006027 -0.017087
v -0.015181 0.017351 -0.010267
v -0.007421 0.028676 -0.004160
f 293 294 295
f 293 295 294
f 293 295 296
f 293 296 295
f 293 296 297
f 293 297 296
f 293 297 298
f 293 298 297
f 293 298 299
f 293 299 298
f 293 299 300
f 293 300 299
f 293 300 301
f 293 301 300
f 293 301 302
f 293 302 301
f 293 302 303
f 293 303 302
f 293 303 304
f 293 304 303
f 293 304 305
f 293 305 304
f 293 305 306
f 293 306 305
f 293 306 307
f 293 307 306
f 293 307 308
f 293 308 307
f 293 308 309
f 293 309 308
f 293 309 310
f 293 310 309
f 293 310 311
f 293 311 310
f 293 311 312
f 293 312 311
f 293 312 313
f 293 313 312
f 293 313 314
f 293 314 313
f 293 314 315
f 293 315 314
f 293 315 316
f 293 316 315
f 293 316 317
f 293 317 316
f 293 317 318
f 293 318 317
f 293 318 319
f 293 319 318
f 293 319 320
f 293 320 319
f 293 320 321
f 293 321 320
f 293 321 322
f 293 322 321
f 293 322 323
f 293 323 322
f 293 323 324
f 293 324 323
f 293 324 325
f 293 325 324
f 293 325 326
f 293 326 325
f 293 326 327
f 293 327 326
f 293 327 328
f 293 328 327
f 293 328 329
f 293 329 328
f 293 329 330
f 293 330 329
f 293 330 331
f 293 331 330
f 293 331 332
f 293 332 331
f 293 332 333
f 293 333 332
f 293 333 334
f 293 334 333
f 293 334 335
f 293 335 334
f 293 335 336
f 293 336 335
f 293 336 337
f 293 337 336
f 293 337 338
f 293 338 337
v 0.000000 0.040000 -0.000000
v -0.000639 0.030957 0.007556
v 0.000297 0.021914 0.016249
v 0.001909 0.012871 0.025431
v 0.003792 0.003828 0.034809
v 0.005638 -0.005215 0.044160
v 0.007186 -0.014258 0.053295
v 0.008209 -0.023301 0.062051
v 0.008511 -0.032344 0.070287
v 0.007931 -0.041387 0.077886
v 0.006346 -0.050430 0.084758
v 0.003673 -0.059473 0.090844
v -0.000133 -0.068516 0.096112
v -0.005071 -0.077559 0.100563
v -0.011097 -0.086602 0.104227
v -0.018129 -0.095645 0.107164
v -0.026042 -0.104688 0.109466
v -0.034676 -0.113731 0.111246
v -0.043836 -0.122774 0.112647
v -0.053293 -0.131817 0.113832
v -0.062787 -0.140860 0.114991
v -0.072010 -0.149903 0.116346
v -0.080558 -0.158946 0.118189
v -0.087530 -0.167989 0.121170
v -0.086891 -0.158946 0.113614
v -0.087827 -0.149903 0.104920
v -0.089439 -0.140860 0.095739
v -0.091322 -0.131817 0.086361
v -0.093168 -0.122774 0.077010
v -0.094716 -0.113731 0.067874
v -0.095739 -0.104688 0.059118
v -0.096041 -0.095645 0.050883
v -0.095461 -0.086602 0.043284
v -0.093877 -0.077559 0.036411
v -0.091203 -0.068516 0.030325
v -0.087397 -0.059473 0.025057
v -0.082460 -0.050430 0.020607
v -0.076433 -0.041387 0.016943
v -0.069401 -0.032344 0.014005
v -0.061488 -0.023301 0.011704
v -0.052854 -0.014258 0.009924
v -0.043695 -0.005215 0.008523
v -0.034237 0.003828 0.007337
v -0.024743 0.012871 0.006178
v -0.015520 0.021914 0.004824
v -0.006972 0.030957 0.002981
f 339 340 341
f 339 341 340
f 339 341 342
f 339 342 341
f 339 342 343
f 339 343 342
f 339 343 344
f 339 344 343
f 339 344 345
f 339 345 344
f 339 345 346
f 339 346 345
f 339 346 347
f 339 347 346
f 339 347 348
f 339 348 347
f 339 348 349
f 339 349 348
f 339 349 350
f 339 350 349
f 339 350 351
f 339 351 350
f 339 351 352
f 339 352 351
f 339 352 353
f 339 353 352
f 339 353 354
f 339 354 353
f 339 354 355
f 339 355 354
f 339 355 356
f 339 356 355
f 339 356 357
f 339 357 356
f 339 357 358
f 339 358 357
f 339 358 359
f 339 359 358
f 339 359 360
f 339 360 359
f 339 360 361
f 339 361 360
f 339 361 362
f 339 362 361
f 339 362 363
f 339 363 362
f 339 363 364
f 339 364 363
f 339 364 365
f 339 365 364
f 339 365 366
f 339 366 365
f 339 366 367
f 339 367 366
f 339 367 368
f 339 368 367
f 339 368 369
f 339 369 368
f 339 369 370
f 339 370 369
f 339 370 371
f 339 371 370
f 339 371 372
f 339 372 371
f 339 372 373
f 339 373 372
f 339 373 374
f 339 374 373
f 339 374 375
f 339 375 374
f 339 375 376
f 339 376 375
f 339 376 377
f 339 377 376
f 339 377 378
f 339 378 377
f 339 378 379
f 339 379 378
f 339 379 380
f 339 380 379
f 339 380 381
f 339 381 380
f 339 381 382
f 339 382 381
f 339 382 383
f 339 383 382
f 339 383 384
f 339 384 383
