o mesh
v -1.146448 0.000000 -2.767771
v -2.243165 0.000000 -3.005335
v -2.243165 2.350000 -3.005335
v -1.146448 2.350000 -2.767771
f 1 2 3
f 1 3 4
v 2.995813 0.020000 -0.000000
v 2.767771 0.020000 -1.146448
v 2.118360 0.020000 -2.118360
v 1.146448 0.020000 -2.767771
v 0.000000 0.020000 -2.995813
v -1.146448 0.020000 -2.767771
v -2.118360 0.020000 -2.118360
v -2.767771 0.020000 -1.146448
v -2.995813 0.020000 -0.000000
v -2.767771 0.020000 1.146448
v -2.118360 0.020000 2.118360
v -1.146448 0.020000 2.767771
v -0.000000 0.020000 2.995813
v 1.146448 0.020000 2.767771
v 2.118360 0.020000 2.118360
v 2.767771 0.020000 1.146448
v 0.000000 0.020000 -0.000000
f 21 5 6
f 21 6 5
f 21 6 7
f 21 7 6
f 21 7 8
f 21 8 7
f 21 8 9
f 21 9 8
f 21 9 10
f 21 10 9
f 21 10 11
f 21 11 10
f 21 11 12
f 21 12 11
f 21 12 13
f 21 13 12
f 21 13 14
f 21 14 13
f 21 14 15
f 21 15 14
f 21 15 16
f 21 16 15
f 21 16 17
f 21 17 16
f 21 17 18
f 21 18 17
f 21 18 19
f 21 19 18
f 21 19 20
f 21 20 19
f 21 20 5
f 21 5 20
v 2.711551 4.400000 -1.123161
v 2.399804 4.400000 -1.589725
v 2.399804 5.700000 -1.589725
v 2.711551 5.700000 -1.123161
f 22 23 24
f 22 24 25
v 2.075331 4.400000 -2.075331
v 2.387079 4.400000 -1.608768
v 2.387079 5.700000 -1.608768
v 2.075331 5.700000 -2.075331
f 26 27 28
f 26 28 29
v -1.123161 4.400000 -2.711551
v -1.589725 4.400000 -2.399804
v -1.589725 5.700000 -2.399804
v -1.123161 5.700000 -2.711551
f 30 31 32
f 30 32 33
v -2.075331 4.400000 -2.075331
v -1.608768 4.400000 -2.387079
v -1.608768 5.700000 -2.387079
v -2.075331 5.700000 -2.075331
f 34 35 36
f 34 36 37
v -2.711551 4.400000 1.123161
v -3.128300 4.400000 1.498911
v -3.128300 5.700000 1.498911
v -2.711551 5.700000 1.123161
f 38 39 40
f 38 40 41
v -2.075331 4.400000 2.075331
v -2.601221 4.400000 2.271056
v -2.601221 5.700000 2.271056
v -2.075331 5.700000 2.075331
f 42 43 44
f 42 44 45
v 1.123161 4.400000 2.711551
v 1.545351 4.400000 3.081178
v 1.545351 5.700000 3.081178
v 1.123161 5.700000 2.711551
f 46 47 48
f 46 48 49
v 2.075331 4.400000 2.075331
v 2.163719 4.400000 2.629458
v 2.163719 5.700000 2.629458
v 2.075331 5.700000 2.075331
f 50 51 52
f 50 52 53
v 2.954844 3.400000 -0.000000
v 2.729920 3.400000 -1.130770
v 2.089390 3.400000 -2.089390
v 1.130770 3.400000 -2.729920
v 0.000000 3.400000 -2.954844
v -1.130770 3.400000 -2.729920
v -2.089390 3.400000 -2.089390
v -2.729920 3.400000 -1.130770
v -2.954844 3.400000 -0.000000
v -2.729920 3.400000 1.130770
v -2.089390 3.400000 2.089390
v -1.130770 3.400000 2.729920
v -0.000000 3.400000 2.954844
v 1.130770 3.400000 2.729920
v 2.089390 3.400000 2.089390
v 2.729920 3.400000 1.130770
v 1.300000 3.400000 -0.000000
v 1.201043 3.400000 -0.497488
v 0.919239 3.400000 -0.919239
v 0.497488 3.400000 -1.201043
v 0.000000 3.400000 -1.300000
v -0.497488 3.400000 -1.201043
v -0.919239 3.400000 -0.919239
v -1.201043 3.400000 -0.497488
v -1.300000 3.400000 -0.000000
v -1.201043 3.400000 0.497488
v -0.919239 3.400000 0.919239
v -0.497488 3.400000 1.201043
v -0.000000 3.400000 1.300000
v 0.497488 3.400000 1.201043
v 0.919239 3.400000 0.919239
v 1.201043 3.400000 0.497488
f 54 55 71
f 71 55 54
f 54 71 70
f 70 71 54
f 55 56 72
f 72 56 55
f 55 72 71
f 71 72 55
f 56 57 73
f 73 57 56
f 56 73 72
f 72 73 56
f 57 58 74
f 74 58 57
f 57 74 73
f 73 74 57
f 58 59 75
f 75 59 58
f 58 75 74
f 74 75 58
f 59 60 76
f 76 60 59
f 59 76 75
f 75 76 59
f 60 61 77
f 77 61 60
f 60 77 76
f 76 77 60
f 61 62 78
f 78 62 61
f 61 78 77
f 77 78 61
f 62 63 79
f 79 63 62
f 62 79 78
f 78 79 62
f 63 64 80
f 80 64 63
f 63 80 79
f 79 80 63
f 64 65 81
f 81 65 64
f 64 81 80
f 80 81 64
f 65 66 82
f 82 66 65
f 65 82 81
f 81 82 65
f 66 67 83
f 83 67 66
f 66 83 82
f 82 83 66
f 67 68 84
f 84 68 67
f 67 84 83
f 83 84 67
f 68 69 85
f 85 69 68
f 68 85 84
f 84 85 68
f 69 54 70
f 70 54 69
f 69 70 85
f 85 70 69
v 2.046362 7.800000 -2.046362
v 2.173515 7.800000 -2.584851
v 2.173515 9.100000 -2.584851
v 2.046362 9.100000 -2.046362
f 86 87 88
f 86 88 89
v 1.107483 7.800000 -2.673701
v 1.595586 7.800000 -2.934265
v 1.595586 9.100000 -2.934265
v 1.107483 9.100000 -2.673701
f 90 91 92
f 90 92 93
v -2.046362 7.800000 -2.046362
v -2.581720 7.800000 -2.186115
v -2.581720 9.100000 -2.186115
v -2.046362 9.100000 -2.046362
f 94 95 96
f 94 96 97
v -2.673701 7.800000 -1.107483
v -3.074924 7.800000 -1.488480
v -3.074924 9.100000 -1.488480
v -2.673701 9.100000 -1.107483
f 98 99 100
f 98 100 101
v -2.046362 7.800000 2.046362
v -2.048953 7.800000 2.599654
v -2.048953 9.100000 2.599654
v -2.046362 9.100000 2.046362
f 102 103 104
f 102 104 105
v -1.107483 7.800000 2.673701
v -1.609671 7.800000 2.905964
v -1.609671 9.100000 2.905964
v -1.107483 9.100000 2.673701
f 106 107 108
f 106 108 109
v 2.046362 7.800000 2.046362
v 2.567708 7.800000 2.231664
v 2.567708 9.100000 2.231664
v 2.046362 9.100000 2.046362
f 110 111 112
f 110 112 113
v 2.673701 7.800000 1.107483
v 3.059201 7.800000 1.504382
v 3.059201 9.100000 1.504382
v 2.673701 9.100000 1.107483
f 114 115 116
f 114 116 117
v 2.913875 6.800000 -0.000000
v 2.692069 6.800000 -1.115092
v 2.060421 6.800000 -2.060421
v 1.115092 6.800000 -2.692069
v 0.000000 6.800000 -2.913875
v -1.115092 6.800000 -2.692069
v -2.060421 6.800000 -2.060421
v -2.692069 6.800000 -1.115092
v -2.913875 6.800000 -0.000000
v -2.692069 6.800000 1.115092
v -2.060421 6.800000 2.060421
v -1.115092 6.800000 2.692069
v -0.000000 6.800000 2.913875
v 1.115092 6.800000 2.692069
v 2.060421 6.800000 2.060421
v 2.692069 6.800000 1.115092
v 1.300000 6.800000 -0.000000
v 1.201043 6.800000 -0.497488
v 0.919239 6.800000 -0.919239
v 0.497488 6.800000 -1.201043
v 0.000000 6.800000 -1.300000
v -0.497488 6.800000 -1.201043
v -0.919239 6.800000 -0.919239
v -1.201043 6.800000 -0.497488
v -1.300000 6.800000 -0.000000
v -1.201043 6.800000 0.497488
v -0.919239 6.800000 0.919239
v -0.497488 6.800000 1.201043
v -0.000000 6.800000 1.300000
v 0.497488 6.800000 1.201043
v 0.919239 6.800000 0.919239
v 1.201043 6.800000 0.497488
f 118 119 135
f 135 119 118
f 118 135 134
f 134 135 118
f 119 120 136
f 136 120 119
f 119 136 135
f 135 136 119
f 120 121 137
f 137 121 120
f 120 137 136
f 136 137 120
f 121 122 138
f 138 122 121
f 121 138 137
f 137 138 121
f 122 123 139
f 139 123 122
f 122 139 138
f 138 139 122
f 123 124 140
f 140 124 123
f 123 140 139
f 139 140 123
f 124 125 141
f 141 125 124
f 124 141 140
f 140 141 124
f 125 126 142
f 142 126 125
f 125 142 141
f 141 142 125
f 126 127 143
f 143 127 126
f 126 143 142
f 142 143 126
f 127 128 144
f 144 128 127
f 127 144 143
f 143 144 127
f 128 129 145
f 145 129 128
f 128 145 144
f 144 145 128
f 129 130 146
f 146 130 129
f 129 146 145
f 145 146 129
f 130 131 147
f 147 131 130
f 130 147 146
f 146 147 130
f 131 132 148
f 148 132 131
f 131 148 147
f 147 148 131
f 132 133 149
f 149 133 132
f 132 149 148
f 148 149 132
f 133 118 134
f 134 118 133
f 133 134 149
f 149 134 133
v 1.091805 11.200000 -2.635850
v 0.556820 11.200000 -2.742265
v 0.556820 12.500000 -2.742265
v 1.091805 12.500000 -2.635850
f 150 151 152
f 150 152 153
v 0.000000 11.200000 -2.853023
v 0.534984 11.200000 -2.746608
v 0.534984 12.500000 -2.746608
v 0.000000 12.500000 -2.853023
f 154 155 156
f 154 156 157
v -2.635850 11.200000 -1.091805
v -2.742265 11.200000 -0.556820
v -2.742265 12.500000 -0.556820
v -2.635850 12.500000 -1.091805
f 158 159 160
f 158 160 161
v -2.853023 11.200000 -0.000000
v -2.746608 11.200000 -0.534984
v -2.746608 12.500000 -0.534984
v -2.853023 12.500000 -0.000000
f 162 163 164
f 162 164 165
v -1.091805 11.200000 2.635850
v -0.556820 11.200000 2.742265
v -0.556820 12.500000 2.742265
v -1.091805 12.500000 2.635850
f 166 167 168
f 166 168 169
v -0.000000 11.200000 2.853023
v -0.534984 11.200000 2.746608
v -0.534984 12.500000 2.746608
v -0.000000 12.500000 2.853023
f 170 171 172
f 170 172 173
v 2.635850 11.200000 1.091805
v 2.742265 11.200000 0.556820
v 2.742265 12.500000 0.556820
v 2.635850 12.500000 1.091805
f 174 175 176
f 174 176 177
v 2.853023 11.200000 -0.000000
v 2.746608 11.200000 0.534984
v 2.746608 12.500000 0.534984
v 2.853023 12.500000 -0.000000
f 178 179 180
f 178 180 181
v 2.872905 10.200000 -0.000000
v 2.654219 10.200000 -1.099413
v 2.031451 10.200000 -2.031451
v 1.099413 10.200000 -2.654219
v 0.000000 10.200000 -2.872905
v -1.099413 10.200000 -2.654219
v -2.031451 10.200000 -2.031451
v -2.654219 10.200000 -1.099413
v -2.872905 10.200000 -0.000000
v -2.654219 10.200000 1.099413
v -2.031451 10.200000 2.031451
v -1.099413 10.200000 2.654219
v -0.000000 10.200000 2.872905
v 1.099413 10.200000 2.654219
v 2.031451 10.200000 2.031451
v 2.654219 10.200000 1.099413
v 1.300000 10.200000 -0.000000
v 1.201043 10.200000 -0.497488
v 0.919239 10.200000 -0.919239
v 0.497488 10.200000 -1.201043
v 0.000000 10.200000 -1.300000
v -0.497488 10.200000 -1.201043
v -0.919239 10.200000 -0.919239
v -1.201043 10.200000 -0.497488
v -1.300000 10.200000 -0.000000
v -1.201043 10.200000 0.497488
v -0.919239 10.200000 0.919239
v -0.497488 10.200000 1.201043
v -0.000000 10.200000 1.300000
v 0.497488 10.200000 1.201043
v 0.919239 10.200000 0.919239
v 1.201043 10.200000 0.497488
f 182 183 199
f 199 183 182
f 182 199 198
f 198 199 182
f 183 184 200
f 200 184 183
f 183 200 199
f 199 200 183
f 184 185 201
f 201 185 184
f 184 201 200
f 200 201 184
f 185 186 202
f 202 186 185
f 185 202 201
f 201 202 185
f 186 187 203
f 203 187 186
f 186 203 202
f 202 203 186
f 187 188 204
f 204 188 187
f 187 204 203
f 203 204 187
f 188 189 205
f 205 189 188
f 188 205 204
f 204 205 188
f 189 190 206
f 206 190 189
f 189 206 205
f 205 206 189
f 190 191 207
f 207 191 190
f 190 207 206
f 206 207 190
f 191 192 208
f 208 192 191
f 191 208 207
f 207 208 191
f 192 193 209
f 209 193 192
f 192 209 208
f 208 209 192
f 193 194 210
f 210 194 193
f 193 210 209
f 209 210 193
f 194 195 211
f 211 195 194
f 194 211 210
f 210 211 194
f 195 196 212
f 212 196 195
f 195 212 211
f 211 212 195
f 196 197 213
f 213 197 196
f 196 213 212
f 212 213 196
f 197 182 198
f 198 182 197
f 197 198 213
f 213 198 197
v 2.812054 14.600000 -0.000000
v 2.707167 14.600000 -0.527302
v 2.707167 15.900000 -0.527302
v 2.812054 15.900000 -0.000000
f 214 215 216
f 214 216 217
v 2.597999 14.600000 -1.076126
v 2.702886 14.600000 -0.548824
v 2.702886 15.900000 -0.548824
v 2.597999 15.900000 -1.076126
f 218 219 220
f 218 220 221
v 0.000000 14.600000 -2.812054
v -0.527302 14.600000 -2.707167
v -0.527302 15.900000 -2.707167
v 0.000000 15.900000 -2.812054
f 222 223 224
f 222 224 225
v -1.076126 14.600000 -2.597999
v -0.548824 14.600000 -2.702886
v -0.548824 15.900000 -2.702886
v -1.076126 15.900000 -2.597999
f 226 227 228
f 226 228 229
v -2.812054 14.600000 -0.000000
v -3.208295 14.600000 0.363375
v -3.208295 15.900000 0.363375
v -2.812054 15.900000 -0.000000
f 230 231 232
f 230 232 233
v -2.597999 14.600000 1.076126
v -3.109034 14.600000 1.243136
v -3.109034 15.900000 1.243136
v -2.597999 15.900000 1.076126
f 234 235 236
f 234 236 237
v -0.000000 14.600000 2.812054
v 0.164494 14.600000 3.323904
v 0.164494 15.900000 3.323904
v -0.000000 15.900000 2.812054
f 238 239 240
f 238 240 241
v 1.076126 14.600000 2.597999
v 1.091239 14.600000 3.135419
v 1.091239 15.900000 3.135419
v 1.076126 15.900000 2.597999
f 242 243 244
f 242 244 245
v 2.831936 13.600000 -0.000000
v 2.616368 13.600000 -1.083735
v 2.002481 13.600000 -2.002481
v 1.083735 13.600000 -2.616368
v 0.000000 13.600000 -2.831936
v -1.083735 13.600000 -2.616368
v -2.002481 13.600000 -2.002481
v -2.616368 13.600000 -1.083735
v -2.831936 13.600000 -0.000000
v -2.616368 13.600000 1.083735
v -2.002481 13.600000 2.002481
v -1.083735 13.600000 2.616368
v -0.000000 13.600000 2.831936
v 1.083735 13.600000 2.616368
v 2.002481 13.600000 2.002481
v 2.616368 13.600000 1.083735
v 1.300000 13.600000 -0.000000
v 1.201043 13.600000 -0.497488
v 0.919239 13.600000 -0.919239
v 0.497488 13.600000 -1.201043
v 0.000000 13.600000 -1.300000
v -0.497488 13.600000 -1.201043
v -0.919239 13.600000 -0.919239
v -1.201043 13.600000 -0.497488
v -1.300000 13.600000 -0.000000
v -1.201043 13.600000 0.497488
v -0.919239 13.600000 0.919239
v -0.497488 13.600000 1.201043
v -0.000000 13.600000 1.300000
v 0.497488 13.600000 1.201043
v 0.919239 13.600000 0.919239
v 1.201043 13.600000 0.497488
f 246 247 263
f 263 247 246
f 246 263 262
f 262 263 246
f 247 248 264
f 264 248 247
f 247 264 263
f 263 264 247
f 248 249 265
f 265 249 248
f 248 265 264
f 264 265 248
f 249 250 266
f 266 250 249
f 249 266 265
f 265 266 249
f 250 251 267
f 267 251 250
f 250 267 266
f 266 267 250
f 251 252 268
f 268 252 251
f 251 268 267
f 267 268 251
f 252 253 269
f 269 253 252
f 252 269 268
f 268 269 252
f 253 254 270
f 270 254 253
f 253 270 269
f 269 270 253
f 254 255 271
f 271 255 254
f 254 271 270
f 270 271 254
f 255 256 272
f 272 256 255
f 255 272 271
f 271 272 255
f 256 257 273
f 273 257 256
f 256 273 272
f 272 273 256
f 257 258 274
f 274 258 257
f 257 274 273
f 273 274 257
f 258 259 275
f 275 259 258
f 258 275 274
f 274 275 258
f 259 260 276
f 276 260 259
f 259 276 275
f 275 276 259
f 260 261 277
f 277 261 260
f 260 277 276
f 276 277 260
f 261 246 262
f 262 246 261
f 261 262 277
f 277 262 261
v 2.560148 18.000000 -1.060448
v 2.265808 18.000000 -1.500960
v 2.265808 19.300000 -1.500960
v 2.560148 19.300000 -1.060448
f 278 279 280
f 278 280 281
v 1.959453 18.000000 -1.959453
v 2.253794 18.000000 -1.518940
v 2.253794 19.300000 -1.518940
v 1.959453 19.300000 -1.959453
f 282 283 284
f 282 284 285
v -1.060448 18.000000 -2.560148
v -1.500960 18.000000 -2.265808
v -1.500960 19.300000 -2.265808
v -1.060448 19.300000 -2.560148
f 286 287 288
f 286 288 289
v -1.959453 18.000000 -1.959453
v -1.518940 18.000000 -2.253794
v -1.518940 19.300000 -2.253794
v -1.959453 19.300000 -1.959453
f 290 291 292
f 290 292 293
v -2.560148 18.000000 1.060448
v -2.917233 18.000000 1.451828
v -2.917233 19.300000 1.451828
v -2.560148 19.300000 1.060448
f 294 295 296
f 294 296 297
v -1.959453 18.000000 1.959453
v -2.480148 18.000000 2.057247
v -2.480148 19.300000 2.057247
v -1.959453 19.300000 1.959453
f 298 299 300
f 298 300 301
v 1.060448 18.000000 2.560148
v 1.463057 18.000000 2.904523
v 1.463057 19.300000 2.904523
v 1.060448 19.300000 2.560148
f 302 303 304
f 302 304 305
v 1.959453 18.000000 1.959453
v 2.091765 18.000000 2.472464
v 2.091765 19.300000 2.472464
v 1.959453 19.300000 1.959453
f 306 307 308
f 306 308 309
v 2.790967 17.000000 -0.000000
v 2.578517 17.000000 -1.068057
v 1.973512 17.000000 -1.973512
v 1.068057 17.000000 -2.578517
v 0.000000 17.000000 -2.790967
v -1.068057 17.000000 -2.578517
v -1.973512 17.000000 -1.973512
v -2.578517 17.000000 -1.068057
v -2.790967 17.000000 -0.000000
v -2.578517 17.000000 1.068057
v -1.973512 17.000000 1.973512
v -1.068057 17.000000 2.578517
v -0.000000 17.000000 2.790967
v 1.068057 17.000000 2.578517
v 1.973512 17.000000 1.973512
v 2.578517 17.000000 1.068057
v 1.300000 17.000000 -0.000000
v 1.201043 17.000000 -0.497488
v 0.919239 17.000000 -0.919239
v 0.497488 17.000000 -1.201043
v 0.000000 17.000000 -1.300000
v -0.497488 17.000000 -1.201043
v -0.919239 17.000000 -0.919239
v -1.201043 17.000000 -0.497488
v -1.300000 17.000000 -0.000000
v -1.201043 17.000000 0.497488
v -0.919239 17.000000 0.919239
v -0.497488 17.000000 1.201043
v -0.000000 17.000000 1.300000
v 0.497488 17.000000 1.201043
v 0.919239 17.000000 0.919239
v 1.201043 17.000000 0.497488
f 310 311 327
f 327 311 310
f 310 327 326
f 326 327 310
f 311 312 328
f 328 312 311
f 311 328 327
f 327 328 311
f 312 313 329
f 329 313 312
f 312 329 328
f 328 329 312
f 313 314 330
f 330 314 313
f 313 330 329
f 329 330 313
f 314 315 331
f 331 315 314
f 314 331 330
f 330 331 314
f 315 316 332
f 332 316 315
f 315 332 331
f 331 332 315
f 316 317 333
f 333 317 316
f 316 333 332
f 332 333 316
f 317 318 334
f 334 318 317
f 317 334 333
f 333 334 317
f 318 319 335
f 335 319 318
f 318 335 334
f 334 335 318
f 319 320 336
f 336 320 319
f 319 336 335
f 335 336 319
f 320 321 337
f 337 321 320
f 320 337 336
f 336 337 320
f 321 322 338
f 338 322 321
f 321 338 337
f 337 338 321
f 322 323 339
f 339 323 322
f 322 339 338
f 338 339 322
f 323 324 340
f 340 324 323
f 323 340 339
f 339 340 323
f 324 325 341
f 341 325 324
f 324 341 340
f 340 341 324
f 325 310 326
f 326 310 325
f 325 326 341
f 341 326 325
v 1.930483 21.400000 -1.930483
v 2.070470 21.400000 -2.433328
v 2.070470 22.700000 -2.433328
v 1.930483 22.700000 -1.930483
f 342 343 344
f 342 344 345
v 1.044770 21.400000 -2.522298
v 1.493489 21.400000 -2.788944
v 1.493489 22.700000 -2.788944
v 1.044770 22.700000 -2.522298
f 346 347 348
f 346 348 349
v -1.930483 21.400000 -1.930483
v -2.336729 21.400000 -2.258223
v -2.336729 22.700000 -2.258223
v -1.930483 22.700000 -1.930483
f 350 351 352
f 350 352 353
v -2.522298 21.400000 -1.044770
v -2.957364 21.400000 -1.333156
v -2.957364 22.700000 -1.333156
v -2.522298 22.700000 -1.044770
f 354 355 356
f 354 356 357
v -1.930483 21.400000 1.930483
v -2.108210 21.400000 2.421260
v -2.108210 22.700000 2.421260
v -1.930483 22.700000 1.930483
f 358 359 360
f 358 360 361
v -1.044770 21.400000 2.522298
v -1.404454 21.400000 2.900553
v -1.404454 22.700000 2.900553
v -1.044770 22.700000 2.522298
f 362 363 364
f 362 364 365
v 1.930483 21.400000 1.930483
v 2.393881 21.400000 2.170715
v 2.393881 22.700000 2.170715
v 1.930483 22.700000 1.930483
f 366 367 368
f 366 368 369
v 2.522298 21.400000 1.044770
v 2.767138 21.400000 1.505750
v 2.767138 22.700000 1.505750
v 2.522298 22.700000 1.044770
f 370 371 372
f 370 372 373
v 2.749997 20.400000 -0.000000
v 2.540666 20.400000 -1.052378
v 1.944542 20.400000 -1.944542
v 1.052378 20.400000 -2.540666
v 0.000000 20.400000 -2.749997
v -1.052378 20.400000 -2.540666
v -1.944542 20.400000 -1.944542
v -2.540666 20.400000 -1.052378
v -2.749997 20.400000 -0.000000
v -2.540666 20.400000 1.052378
v -1.944542 20.400000 1.944542
v -1.052378 20.400000 2.540666
v -0.000000 20.400000 2.749997
v 1.052378 20.400000 2.540666
v 1.944542 20.400000 1.944542
v 2.540666 20.400000 1.052378
v 1.300000 20.400000 -0.000000
v 1.201043 20.400000 -0.497488
v 0.919239 20.400000 -0.919239
v 0.497488 20.400000 -1.201043
v 0.000000 20.400000 -1.300000
v -0.497488 20.400000 -1.201043
v -0.919239 20.400000 -0.919239
v -1.201043 20.400000 -0.497488
v -1.300000 20.400000 -0.000000
v -1.201043 20.400000 0.497488
v -0.919239 20.400000 0.919239
v -0.497488 20.400000 1.201043
v -0.000000 20.400000 1.300000
v 0.497488 20.400000 1.201043
v 0.919239 20.400000 0.919239
v 1.201043 20.400000 0.497488
f 374 375 391
f 391 375 374
f 374 391 390
f 390 391 374
f 375 376 392
f 392 376 375
f 375 392 391
f 391 392 375
f 376 377 393
f 393 377 376
f 376 393 392
f 392 393 376
f 377 378 394
f 394 378 377
f 377 394 393
f 393 394 377
f 378 379 395
f 395 379 378
f 378 395 394
f 394 395 378
f 379 380 396
f 396 380 379
f 379 396 395
f 395 396 379
f 380 381 397
f 397 381 380
f 380 397 396
f 396 397 380
f 381 382 398
f 398 382 381
f 381 398 397
f 397 398 381
f 382 383 399
f 399 383 382
f 382 399 398
f 398 399 382
f 383 384 400
f 400 384 383
f 383 400 399
f 399 400 383
f 384 385 401
f 401 385 384
f 384 401 400
f 400 401 384
f 385 386 402
f 402 386 385
f 385 402 401
f 401 402 385
f 386 387 403
f 403 387 386
f 386 403 402
f 402 403 386
f 387 388 404
f 404 388 387
f 387 404 403
f 403 404 387
f 388 389 405
f 405 389 388
f 388 405 404
f 404 405 388
f 389 374 390
f 390 374 389
f 389 390 405
f 405 390 389
v 1.029092 24.800000 -2.484447
v 1.209198 24.800000 -2.966002
v 1.209198 26.100000 -2.966002
v 1.029092 26.100000 -2.484447
f 406 407 408
f 406 408 409
v 0.000000 24.800000 -2.689146
v 0.289922 24.800000 -3.113738
v 0.289922 26.100000 -3.113738
v 0.000000 26.100000 -2.689146
f 410 411 412
f 410 412 413
v -2.484447 24.800000 -1.029092
v -2.993832 24.800000 -0.959378
v -2.993832 26.100000 -0.959378
v -2.484447 26.100000 -1.029092
f 414 415 416
f 414 416 417
v -2.689146 24.800000 -0.000000
v -3.189308 24.800000 -0.119045
v -3.189308 26.100000 -0.119045
v -2.689146 26.100000 -0.000000
f 418 419 420
f 418 420 421
v -1.029092 24.800000 2.484447
v -0.524837 24.800000 2.584749
v -0.524837 26.100000 2.584749
v -1.029092 26.100000 2.484447
f 422 423 424
f 422 424 425
v -0.000000 24.800000 2.689146
v -0.504255 24.800000 2.588843
v -0.504255 26.100000 2.588843
v -0.000000 26.100000 2.689146
f 426 427 428
f 426 428 429
v 2.484447 24.800000 1.029092
v 2.584749 24.800000 0.524837
v 2.584749 26.100000 0.524837
v 2.484447 26.100000 1.029092
f 430 431 432
f 430 432 433
v 2.689146 24.800000 -0.000000
v 2.588843 24.800000 0.504255
v 2.588843 26.100000 0.504255
v 2.689146 26.100000 -0.000000
f 434 435 436
f 434 436 437
v 2.709028 23.800000 -0.000000
v 2.502816 23.800000 -1.036700
v 1.915572 23.800000 -1.915572
v 1.036700 23.800000 -2.502816
v 0.000000 23.800000 -2.709028
v -1.036700 23.800000 -2.502816
v -1.915572 23.800000 -1.915572
v -2.502816 23.800000 -1.036700
v -2.709028 23.800000 -0.000000
v -2.502816 23.800000 1.036700
v -1.915572 23.800000 1.915572
v -1.036700 23.800000 2.502816
v -0.000000 23.800000 2.709028
v 1.036700 23.800000 2.502816
v 1.915572 23.800000 1.915572
v 2.502816 23.800000 1.036700
v 1.300000 23.800000 -0.000000
v 1.201043 23.800000 -0.497488
v 0.919239 23.800000 -0.919239
v 0.497488 23.800000 -1.201043
v 0.000000 23.800000 -1.300000
v -0.497488 23.800000 -1.201043
v -0.919239 23.800000 -0.919239
v -1.201043 23.800000 -0.497488
v -1.300000 23.800000 -0.000000
v -1.201043 23.800000 0.497488
v -0.919239 23.800000 0.919239
v -0.497488 23.800000 1.201043
v -0.000000 23.800000 1.300000
v 0.497488 23.800000 1.201043
v 0.919239 23.800000 0.919239
v 1.201043 23.800000 0.497488
f 438 439 455
f 455 439 438
f 438 455 454
f 454 455 438
f 439 440 456
f 456 440 439
f 439 456 455
f 455 456 439
f 440 441 457
f 457 441 440
f 440 457 456
f 456 457 440
f 441 442 458
f 458 442 441
f 441 458 457
f 457 458 441
f 442 443 459
f 459 443 442
f 442 459 458
f 458 459 442
f 443 444 460
f 460 444 443
f 443 460 459
f 459 460 443
f 444 445 461
f 461 445 444
f 444 461 460
f 460 461 444
f 445 446 462
f 462 446 445
f 445 462 461
f 461 462 445
f 446 447 463
f 463 447 446
f 446 463 462
f 462 463 446
f 447 448 464
f 464 448 447
f 447 464 463
f 463 464 447
f 448 449 465
f 465 449 448
f 448 465 464
f 464 465 448
f 449 450 466
f 466 450 449
f 449 466 465
f 465 466 449
f 450 451 467
f 467 451 450
f 450 467 466
f 466 467 450
f 451 452 468
f 468 452 451
f 451 468 467
f 467 468 451
f 452 453 469
f 469 453 452
f 452 469 468
f 468 469 452
f 453 438 454
f 454 438 453
f 453 454 469
f 469 454 453
v 0.000000 0.000000 0.120000
v 0.084853 0.000000 0.084853
v 0.120000 0.000000 0.000000
v 0.084853 0.000000 -0.084853
v 0.000000 0.000000 -0.120000
v -0.084853 0.000000 -0.084853
v -0.120000 0.000000 -0.000000
v -0.084853 0.000000 0.084853
v 0.000000 24.800000 0.120000
v 0.084853 24.800000 0.084853
v 0.120000 24.800000 0.000000
v 0.084853 24.800000 -0.084853
v 0.000000 24.800000 -0.120000
v -0.084853 24.800000 -0.084853
v -0.120000 24.800000 -0.000000
v -0.084853 24.800000 0.084853
f 470 471 479
f 470 479 478
f 471 472 480
f 471 480 479
f 472 473 481
f 472 481 480
f 473 474 482
f 473 482 481
f 474 475 483
f 474 483 482
f 475 476 484
f 475 484 483
f 476 477 485
f 476 485 484
f 477 470 478
f 477 478 485
v -0.053454 0.242857 -0.146774
v 0.040637 0.342857 -0.112910
v 0.134729 0.242857 -0.079045
v 0.040637 0.142857 -0.112910
v 0.295350 0.242857 -1.115916
v 0.389441 0.342857 -1.082051
v 0.483533 0.242857 -1.048187
v 0.389441 0.142857 -1.082051
f 486 487 491
f 486 491 490
f 487 488 492
f 487 492 491
f 488 489 493
f 488 493 492
f 489 486 490
f 489 490 493
v -0.111843 0.485714 -0.109046
v -0.012377 0.585714 -0.119360
v 0.087090 0.485714 -0.129674
v -0.012377 0.385714 -0.119360
v -0.218077 0.485714 -1.133553
v -0.118610 0.585714 -1.143867
v -0.019143 0.485714 -1.154181
v -0.118610 0.385714 -1.143867
f 494 495 499
f 494 499 498
f 495 496 500
f 495 500 499
f 496 497 501
f 496 501 500
f 497 494 498
f 497 498 501
v -0.148081 0.728571 -0.049720
v -0.062939 0.828571 -0.102170
v 0.022202 0.728571 -0.154619
v -0.062939 0.628571 -0.102170
v -0.688310 0.728571 -0.926676
v -0.603169 0.828571 -0.979126
v -0.518028 0.728571 -1.031575
v -0.603169 0.628571 -0.979126
f 502 503 507
f 502 507 506
f 503 504 508
f 503 508 507
f 504 505 509
f 504 509 508
f 505 502 506
f 505 506 509
v -0.154989 0.971429 0.019454
v -0.101036 1.071429 -0.064743
v -0.047083 0.971429 -0.148940
v -0.101036 0.871429 -0.064743
v -1.022216 0.971429 -0.536260
v -0.968263 1.071429 -0.620456
v -0.914311 0.971429 -0.704653
v -0.968263 0.871429 -0.620456
f 510 511 515
f 510 515 514
f 511 512 516
f 511 516 515
f 512 513 517
f 512 517 516
f 513 510 514
f 513 514 517
v -0.131200 1.214286 0.084774
v -0.119121 1.314286 -0.014494
v -0.107043 1.214286 -0.113762
v -0.119121 1.114286 -0.014494
v -1.153659 1.214286 -0.039630
v -1.141581 1.314286 -0.138898
v -1.129503 1.214286 -0.238166
v -1.141581 1.114286 -0.138898
f 518 519 523
f 518 523 522
f 519 520 524
f 519 524 523
f 520 521 525
f 520 525 524
f 521 518 522
f 521 522 525
v -0.081425 1.457143 0.133304
v -0.113613 1.557143 0.038626
v -0.145802 1.457143 -0.056051
v -0.113613 1.357143 0.038626
v -1.056606 1.457143 0.464848
v -1.088795 1.557143 0.370170
v -1.120983 1.457143 0.275493
v -1.088795 1.357143 0.370170
f 526 527 531
f 526 531 530
f 527 528 532
f 527 532 531
f 528 529 533
f 528 533 532
f 529 526 530
f 529 530 533
v -0.015522 1.700000 0.155432
v -0.085603 1.800000 0.084096
v -0.155683 1.700000 0.012761
v -0.085603 1.600000 0.084096
v -0.750279 1.700000 0.877258
v -0.820359 1.800000 0.805922
v -0.890439 1.700000 0.734587
v -0.820359 1.600000 0.805922
f 534 535 539
f 534 539 538
f 535 536 540
f 535 540 539
f 536 537 541
f 536 541 540
f 537 534 538
f 537 538 541
v 0.053454 1.942857 0.146774
v -0.040637 2.042857 0.112910
v -0.134729 1.942857 0.079045
v -0.040637 1.842857 0.112910
v -0.295350 1.942857 1.115916
v -0.389441 2.042857 1.082051
v -0.483533 1.942857 1.048187
v -0.389441 1.842857 1.082051
f 542 543 547
f 542 547 546
f 543 544 548
f 543 548 547
f 544 545 549
f 544 549 548
f 545 542 546
f 545 546 549
v 0.111843 2.185714 0.109046
v 0.012377 2.285714 0.119360
v -0.087090 2.185714 0.129674
v 0.012377 2.085714 0.119360
v 0.218077 2.185714 1.133553
v 0.118610 2.285714 1.143867
v 0.019143 2.185714 1.154181
v 0.118610 2.085714 1.143867
f 550 551 555
f 550 555 554
f 551 552 556
f 551 556 555
f 552 553 557
f 552 557 556
f 553 550 554
f 553 554 557
v 0.148081 2.428571 0.049720
v 0.062939 2.528571 0.102170
v -0.022202 2.428571 0.154619
v 0.062939 2.328571 0.102170
v 0.688310 2.428571 0.926676
v 0.603169 2.528571 0.979126
v 0.518028 2.428571 1.031575
v 0.603169 2.328571 0.979126
f 558 559 563
f 558 563 562
f 559 560 564
f 559 564 563
f 560 561 565
f 560 565 564
f 561 558 562
f 561 562 565
v 0.154989 2.671429 -0.019454
v 0.101036 2.771429 0.064743
v 0.047083 2.671429 0.148940
v 0.101036 2.571429 0.064743
v 1.022216 2.671429 0.536260
v 0.968263 2.771429 0.620456
v 0.914311 2.671429 0.704653
v 0.968263 2.571429 0.620456
f 566 567 571
f 566 571 570
f 567 568 572
f 567 572 571
f 568 569 573
f 568 573 572
f 569 566 570
f 569 570 573
v 0.131200 2.914286 -0.084774
v 0.119121 3.014286 0.014494
v 0.107043 2.914286 0.113762
v 0.119121 2.814286 0.014494
v 1.153659 2.914286 0.039630
v 1.141581 3.014286 0.138898
v 1.129503 2.914286 0.238166
v 1.141581 2.814286 0.138898
f 574 575 579
f 574 579 578
f 575 576 580
f 575 580 579
f 576 577 581
f 576 581 580
f 577 574 578
f 577 578 581
v 0.081425 3.157143 -0.133304
v 0.113613 3.257143 -0.038626
v 0.145802 3.157143 0.056051
v 0.113613 3.057143 -0.038626
v 1.056606 3.157143 -0.464848
v 1.088795 3.257143 -0.370170
v 1.120983 3.157143 -0.275493
v 1.088795 3.057143 -0.370170
f 582 583 587
f 582 587 586
f 583 584 588
f 583 588 587
f 584 585 589
f 584 589 588
f 585 582 586
f 585 586 589
v 0.015522 3.400000 -0.155432
v 0.085603 3.500000 -0.084096
v 0.155683 3.400000 -0.012761
v 0.085603 3.300000 -0.084096
v 0.750279 3.400000 -0.877258
v 0.820359 3.500000 -0.805922
v 0.890439 3.400000 -0.734587
v 0.820359 3.300000 -0.805922
f 590 591 595
f 590 595 594
f 591 592 596
f 591 596 595
f 592 593 597
f 592 597 596
f 593 590 594
f 593 594 597
v -0.053454 3.642857 -0.146774
v 0.040637 3.742857 -0.112910
v 0.134729 3.642857 -0.079045
v 0.040637 3.542857 -0.112910
v 0.295350 3.642857 -1.115916
v 0.389441 3.742857 -1.082051
v 0.483533 3.642857 -1.048187
v 0.389441 3.542857 -1.082051
f 598 599 603
f 598 603 602
f 599 600 604
f 599 604 603
f 600 601 605
f 600 605 604
f 601 598 602
f 601 602 605
v -0.111843 3.885714 -0.109046
v -0.012377 3.985714 -0.119360
v 0.087090 3.885714 -0.129674
v -0.012377 3.785714 -0.119360
v -0.218077 3.885714 -1.133553
v -0.118610 3.985714 -1.143867
v -0.019143 3.885714 -1.154181
v -0.118610 3.785714 -1.143867
f 606 607 611
f 606 611 610
f 607 608 612
f 607 612 611
f 608 609 613
f 608 613 612
f 609 606 610
f 609 610 613
v -0.148081 4.128571 -0.049720
v -0.062939 4.228571 -0.102170
v 0.022202 4.128571 -0.154619
v -0.062939 4.028571 -0.102170
v -0.688310 4.128571 -0.926676
v -0.603169 4.228571 -0.979126
v -0.518028 4.128571 -1.031575
v -0.603169 4.028571 -0.979126
f 614 615 619
f 614 619 618
f 615 616 620
f 615 620 619
f 616 617 621
f 616 621 620
f 617 614 618
f 617 618 621
v -0.154989 4.371429 0.019454
v -0.101036 4.471429 -0.064743
v -0.047083 4.371429 -0.148940
v -0.101036 4.271429 -0.064743
v -1.022216 4.371429 -0.536260
v -0.968263 4.471429 -0.620456
v -0.914311 4.371429 -0.704653
v -0.968263 4.271429 -0.620456
f 622 623 627
f 622 627 626
f 623 624 628
f 623 628 627
f 624 625 629
f 624 629 628
f 625 622 626
f 625 626 629
v -0.131200 4.614286 0.084774
v -0.119121 4.714286 -0.014494
v -0.107043 4.614286 -0.113762
v -0.119121 4.514286 -0.014494
v -1.153659 4.614286 -0.039630
v -1.141581 4.714286 -0.138898
v -1.129503 4.614286 -0.238166
v -1.141581 4.514286 -0.138898
f 630 631 635
f 630 635 634
f 631 632 636
f 631 636 635
f 632 633 637
f 632 637 636
f 633 630 634
f 633 634 637
v -0.081425 4.857143 0.133304
v -0.113613 4.957143 0.038626
v -0.145802 4.857143 -0.056051
v -0.113613 4.757143 0.038626
v -1.056606 4.857143 0.464848
v -1.088795 4.957143 0.370170
v -1.120983 4.857143 0.275493
v -1.088795 4.757143 0.370170
f 638 639 643
f 638 643 642
f 639 640 644
f 639 644 643
f 640 641 645
f 640 645 644
f 641 638 642
f 641 642 645
v -0.015522 5.100000 0.155432
v -0.085603 5.200000 0.084096
v -0.155683 5.100000 0.012761
v -0.085603 5.000000 0.084096
v -0.750279 5.100000 0.877258
v -0.820359 5.200000 0.805922
v -0.890439 5.100000 0.734587
v -0.820359 5.000000 0.805922
f 646 647 651
f 646 651 650
f 647 648 652
f 647 652 651
f 648 649 653
f 648 653 652
f 649 646 650
f 649 650 653
v 0.053454 5.342857 0.146774
v -0.040637 5.442857 0.112910
v -0.134729 5.342857 0.079045
v -0.040637 5.242857 0.112910
v -0.295350 5.342857 1.115916
v -0.389441 5.442857 1.082051
v -0.483533 5.342857 1.048187
v -0.389441 5.242857 1.082051
f 654 655 659
f 654 659 658
f 655 656 660
f 655 660 659
f 656 657 661
f 656 661 660
f 657 654 658
f 657 658 661
v 0.111843 5.585714 0.109046
v 0.012377 5.685714 0.119360
v -0.087090 5.585714 0.129674
v 0.012377 5.485714 0.119360
v 0.218077 5.585714 1.133553
v 0.118610 5.685714 1.143867
v 0.019143 5.585714 1.154181
v 0.118610 5.485714 1.143867
f 662 663 667
f 662 667 666
f 663 664 668
f 663 668 667
f 664 665 669
f 664 669 668
f 665 662 666
f 665 666 669
v 0.148081 5.828571 0.049720
v 0.062939 5.928571 0.102170
v -0.022202 5.828571 0.154619
v 0.062939 5.728571 0.102170
v 0.688310 5.828571 0.926676
v 0.603169 5.928571 0.979126
v 0.518028 5.828571 1.031575
v 0.603169 5.728571 0.979126
f 670 671 675
f 670 675 674
f 671 672 676
f 671 676 675
f 672 673 677
f 672 677 676
f 673 670 674
f 673 674 677
v 0.154989 6.071429 -0.019454
v 0.101036 6.171429 0.064743
v 0.047083 6.071429 0.148940
v 0.101036 5.971429 0.064743
v 1.022216 6.071429 0.536260
v 0.968263 6.171429 0.620456
v 0.914311 6.071429 0.704653
v 0.968263 5.971429 0.620456
f 678 679 683
f 678 683 682
f 679 680 684
f 679 684 683
f 680 681 685
f 680 685 684
f 681 678 682
f 681 682 685
v 0.131200 6.314286 -0.084774
v 0.119121 6.414286 0.014494
v 0.107043 6.314286 0.113762
v 0.119121 6.214286 0.014494
v 1.153659 6.314286 0.039630
v 1.141581 6.414286 0.138898
v 1.129503 6.314286 0.238166
v 1.141581 6.214286 0.138898
f 686 687 691
f 686 691 690
f 687 688 692
f 687 692 691
f 688 689 693
f 688 693 692
f 689 686 690
f 689 690 693
v 0.081425 6.557143 -0.133304
v 0.113613 6.657143 -0.038626
v 0.145802 6.557143 0.056051
v 0.113613 6.457143 -0.038626
v 1.056606 6.557143 -0.464848
v 1.088795 6.657143 -0.370170
v 1.120983 6.557143 -0.275493
v 1.088795 6.457143 -0.370170
f 694 695 699
f 694 699 698
f 695 696 700
f 695 700 699
f 696 697 701
f 696 701 700
f 697 694 698
f 697 698 701
v 0.015522 6.800000 -0.155432
v 0.085603 6.900000 -0.084096
v 0.155683 6.800000 -0.012761
v 0.085603 6.700000 -0.084096
v 0.750279 6.800000 -0.877258
v 0.820359 6.900000 -0.805922
v 0.890439 6.800000 -0.734587
v 0.820359 6.700000 -0.805922
f 702 703 707
f 702 707 706
f 703 704 708
f 703 708 707
f 704 705 709
f 704 709 708
f 705 702 706
f 705 706 709
v -0.053454 7.042857 -0.146774
v 0.040637 7.142857 -0.112910
v 0.134729 7.042857 -0.079045
v 0.040637 6.942857 -0.112910
v 0.295350 7.042857 -1.115916
v 0.389441 7.142857 -1.082051
v 0.483533 7.042857 -1.048187
v 0.389441 6.942857 -1.082051
f 710 711 715
f 710 715 714
f 711 712 716
f 711 716 715
f 712 713 717
f 712 717 716
f 713 710 714
f 713 714 717
v -0.111843 7.285714 -0.109046
v -0.012377 7.385714 -0.119360
v 0.087090 7.285714 -0.129674
v -0.012377 7.185714 -0.119360
v -0.218077 7.285714 -1.133553
v -0.118610 7.385714 -1.143867
v -0.019143 7.285714 -1.154181
v -0.118610 7.185714 -1.143867
f 718 719 723
f 718 723 722
f 719 720 724
f 719 724 723
f 720 721 725
f 720 725 724
f 721 718 722
f 721 722 725
v -0.148081 7.528571 -0.049720
v -0.062939 7.628571 -0.102170
v 0.022202 7.528571 -0.154619
v -0.062939 7.428571 -0.102170
v -0.688310 7.528571 -0.926676
v -0.603169 7.628571 -0.979126
v -0.518028 7.528571 -1.031575
v -0.603169 7.428571 -0.979126
f 726 727 731
f 726 731 730
f 727 728 732
f 727 732 731
f 728 729 733
f 728 733 732
f 729 726 730
f 729 730 733
v -0.154989 7.771429 0.019454
v -0.101036 7.871429 -0.064743
v -0.047083 7.771429 -0.148940
v -0.101036 7.671429 -0.064743
v -1.022216 7.771429 -0.536260
v -0.968263 7.871429 -0.620456
v -0.914311 7.771429 -0.704653
v -0.968263 7.671429 -0.620456
f 734 735 739
f 734 739 738
f 735 736 740
f 735 740 739
f 736 737 741
f 736 741 740
f 737 734 738
f 737 738 741
v -0.131200 8.014286 0.084774
v -0.119121 8.114286 -0.014494
v -0.107043 8.014286 -0.113762
v -0.119121 7.914286 -0.014494
v -1.153659 8.014286 -0.039630
v -1.141581 8.114286 -0.138898
v -1.129503 8.014286 -0.238166
v -1.141581 7.914286 -0.138898
f 742 743 747
f 742 747 746
f 743 744 748
f 743 748 747
f 744 745 749
f 744 749 748
f 745 742 746
f 745 746 749
v -0.081425 8.257143 0.133304
v -0.113613 8.357143 0.038626
v -0.145802 8.257143 -0.056051
v -0.113613 8.157143 0.038626
v -1.056606 8.257143 0.464848
v -1.088795 8.357143 0.370170
v -1.120983 8.257143 0.275493
v -1.088795 8.157143 0.370170
f 750 751 755
f 750 755 754
f 751 752 756
f 751 756 755
f 752 753 757
f 752 757 756
f 753 750 754
f 753 754 757
v -0.015522 8.500000 0.155432
v -0.085603 8.600000 0.084096
v -0.155683 8.500000 0.012761
v -0.085603 8.400000 0.084096
v -0.750279 8.500000 0.877258
v -0.820359 8.600000 0.805922
v -0.890439 8.500000 0.734587
v -0.820359 8.400000 0.805922
f 758 759 763
f 758 763 762
f 759 760 764
f 759 764 763
f 760 761 765
f 760 765 764
f 761 758 762
f 761 762 765
v 0.053454 8.742857 0.146774
v -0.040637 8.842857 0.112910
v -0.134729 8.742857 0.079045
v -0.040637 8.642857 0.112910
v -0.295350 8.742857 1.115916
v -0.389441 8.842857 1.082051
v -0.483533 8.742857 1.048187
v -0.389441 8.642857 1.082051
f 766 767 771
f 766 771 770
f 767 768 772
f 767 772 771
f 768 769 773
f 768 773 772
f 769 766 770
f 769 770 773
v 0.111843 8.985714 0.109046
v 0.012377 9.085714 0.119360
v -0.087090 8.985714 0.129674
v 0.012377 8.885714 0.119360
v 0.218077 8.985714 1.133553
v 0.118610 9.085714 1.143867
v 0.019143 8.985714 1.154181
v 0.118610 8.885714 1.143867
f 774 775 779
f 774 779 778
f 775 776 780
f 775 780 779
f 776 777 781
f 776 781 780
f 777 774 778
f 777 778 781
v 0.148081 9.228571 0.049720
v 0.062939 9.328571 0.102170
v -0.022202 9.228571 0.154619
v 0.062939 9.128571 0.102170
v 0.688310 9.228571 0.926676
v 0.603169 9.328571 0.979126
v 0.518028 9.228571 1.031575
v 0.603169 9.128571 0.979126
f 782 783 787
f 782 787 786
f 783 784 788
f 783 788 787
f 784 785 789
f 784 789 788
f 785 782 786
f 785 786 789
v 0.154989 9.471429 -0.019454
v 0.101036 9.571429 0.064743
v 0.047083 9.471429 0.148940
v 0.101036 9.371429 0.064743
v 1.022216 9.471429 0.536260
v 0.968263 9.571429 0.620456
v 0.914311 9.471429 0.704653
v 0.968263 9.371429 0.620456
f 790 791 795
f 790 795 794
f 791 792 796
f 791 796 795
f 792 793 797
f 792 797 796
f 793 790 794
f 793 794 797
v 0.131200 9.714286 -0.084774
v 0.119121 9.814286 0.014494
v 0.107043 9.714286 0.113762
v 0.119121 9.614286 0.014494
v 1.153659 9.714286 0.039630
v 1.141581 9.814286 0.138898
v 1.129503 9.714286 0.238166
v 1.141581 9.614286 0.138898
f 798 799 803
f 798 803 802
f 799 800 804
f 799 804 803
f 800 801 805
f 800 805 804
f 801 798 802
f 801 802 805
v 0.081425 9.957143 -0.133304
v 0.113613 10.057143 -0.038626
v 0.145802 9.957143 0.056051
v 0.113613 9.857143 -0.038626
v 1.056606 9.957143 -0.464848
v 1.088795 10.057143 -0.370170
v 1.120983 9.957143 -0.275493
v 1.088795 9.857143 -0.370170
f 806 807 811
f 806 811 810
f 807 808 812
f 807 812 811
f 808 809 813
f 808 813 812
f 809 806 810
f 809 810 813
v 0.015522 10.200000 -0.155432
v 0.085603 10.300000 -0.084096
v 0.155683 10.200000 -0.012761
v 0.085603 10.100000 -0.084096
v 0.750279 10.200000 -0.877258
v 0.820359 10.300000 -0.805922
v 0.890439 10.200000 -0.734587
v 0.820359 10.100000 -0.805922
f 814 815 819
f 814 819 818
f 815 816 820
f 815 820 819
f 816 817 821
f 816 821 820
f 817 814 818
f 817 818 821
v -0.053454 10.442857 -0.146774
v 0.040637 10.542857 -0.112910
v 0.134729 10.442857 -0.079045
v 0.040637 10.342857 -0.112910
v 0.295350 10.442857 -1.115916
v 0.389441 10.542857 -1.082051
v 0.483533 10.442857 -1.048187
v 0.389441 10.342857 -1.082051
f 822 823 827
f 822 827 826
f 823 824 828
f 823 828 827
f 824 825 829
f 824 829 828
f 825 822 826
f 825 826 829
v -0.111843 10.685714 -0.109046
v -0.012377 10.785714 -0.119360
v 0.087090 10.685714 -0.129674
v -0.012377 10.585714 -0.119360
v -0.218077 10.685714 -1.133553
v -0.118610 10.785714 -1.143867
v -0.019143 10.685714 -1.154181
v -0.118610 10.585714 -1.143867
f 830 831 835
f 830 835 834
f 831 832 836
f 831 836 835
f 832 833 837
f 832 837 836
f 833 830 834
f 833 834 837
v -0.148081 10.928571 -0.049720
v -0.062939 11.028571 -0.102170
v 0.022202 10.928571 -0.154619
v -0.062939 10.828571 -0.102170
v -0.688310 10.928571 -0.926676
v -0.603169 11.028571 -0.979126
v -0.518028 10.928571 -1.031575
v -0.603169 10.828571 -0.979126
f 838 839 843
f 838 843 842
f 839 840 844
f 839 844 843
f 840 841 845
f 840 845 844
f 841 838 842
f 841 842 845
v -0.154989 11.171429 0.019454
v -0.101036 11.271429 -0.064743
v -0.047083 11.171429 -0.148940
v -0.101036 11.071429 -0.064743
v -1.022216 11.171429 -0.536260
v -0.968263 11.271429 -0.620456
v -0.914311 11.171429 -0.704653
v -0.968263 11.071429 -0.620456
f 846 847 851
f 846 851 850
f 847 848 852
f 847 852 851
f 848 849 853
f 848 853 852
f 849 846 850
f 849 850 853
v -0.131200 11.414286 0.084774
v -0.119121 11.514286 -0.014494
v -0.107043 11.414286 -0.113762
v -0.119121 11.314286 -0.014494
v -1.153659 11.414286 -0.039630
v -1.141581 11.514286 -0.138898
v -1.129503 11.414286 -0.238166
v -1.141581 11.314286 -0.138898
f 854 855 859
f 854 859 858
f 855 856 860
f 855 860 859
f 856 857 861
f 856 861 860
f 857 854 858
f 857 858 861
v -0.081425 11.657143 0.133304
v -0.113613 11.757143 0.038626
v -0.145802 11.657143 -0.056051
v -0.113613 11.557143 0.038626
v -1.056606 11.657143 0.464848
v -1.088795 11.757143 0.370170
v -1.120983 11.657143 0.275493
v -1.088795 11.557143 0.370170
f 862 863 867
f 862 867 866
f 863 864 868
f 863 868 867
f 864 865 869
f 864 869 868
f 865 862 866
f 865 866 869
v -0.015522 11.900000 0.155432
v -0.085603 12.000000 0.084096
v -0.155683 11.900000 0.012761
v -0.085603 11.800000 0.084096
v -0.750279 11.900000 0.877258
v -0.820359 12.000000 0.805922
v -0.890439 11.900000 0.734587
v -0.820359 11.800000 0.805922
f 870 871 875
f 870 875 874
f 871 872 876
f 871 876 875
f 872 873 877
f 872 877 876
f 873 870 874
f 873 874 877
v 0.053454 12.142857 0.146774
v -0.040637 12.242857 0.112910
v -0.134729 12.142857 0.079045
v -0.040637 12.042857 0.112910
v -0.295350 12.142857 1.115916
v -0.389441 12.242857 1.082051
v -0.483533 12.142857 1.048187
v -0.389441 12.042857 1.082051
f 878 879 883
f 878 883 882
f 879 880 884
f 879 884 883
f 880 881 885
f 880 885 884
f 881 878 882
f 881 882 885
v 0.111843 12.385714 0.109046
v 0.012377 12.485714 0.119360
v -0.087090 12.385714 0.129674
v 0.012377 12.285714 0.119360
v 0.218077 12.385714 1.133553
v 0.118610 12.485714 1.143867
v 0.019143 12.385714 1.154181
v 0.118610 12.285714 1.143867
f 886 887 891
f 886 891 890
f 887 888 892
f 887 892 891
f 888 889 893
f 888 893 892
f 889 886 890
f 889 890 893
v 0.148081 12.628571 0.049720
v 0.062939 12.728571 0.102170
v -0.022202 12.628571 0.154619
v 0.062939 12.528571 0.102170
v 0.688310 12.628571 0.926676
v 0.603169 12.728571 0.979126
v 0.518028 12.628571 1.031575
v 0.603169 12.528571 0.979126
f 894 895 899
f 894 899 898
f 895 896 900
f 895 900 899
f 896 897 901
f 896 901 900
f 897 894 898
f 897 898 901
v 0.154989 12.871429 -0.019454
v 0.101036 12.971429 0.064743
v 0.047083 12.871429 0.148940
v 0.101036 12.771429 0.064743
v 1.022216 12.871429 0.536260
v 0.968263 12.971429 0.620456
v 0.914311 12.871429 0.704653
v 0.968263 12.771429 0.620456
f 902 903 907
f 902 907 906
f 903 904 908
f 903 908 907
f 904 905 909
f 904 909 908
f 905 902 906
f 905 906 909
v 0.131200 13.114286 -0.084774
v 0.119121 13.214286 0.014494
v 0.107043 13.114286 0.113762
v 0.119121 13.014286 0.014494
v 1.153659 13.114286 0.039630
v 1.141581 13.214286 0.138898
v 1.129503 13.114286 0.238166
v 1.141581 13.014286 0.138898
f 910 911 915
f 910 915 914
f 911 912 916
f 911 916 915
f 912 913 917
f 912 917 916
f 913 910 914
f 913 914 917
v 0.081425 13.357143 -0.133304
v 0.113613 13.457143 -0.038626
v 0.145802 13.357143 0.056051
v 0.113613 13.257143 -0.038626
v 1.056606 13.357143 -0.464848
v 1.088795 13.457143 -0.370170
v 1.120983 13.357143 -0.275493
v 1.088795 13.257143 -0.370170
f 918 919 923
f 918 923 922
f 919 920 924
f 919 924 923
f 920 921 925
f 920 925 924
f 921 918 922
f 921 922 925
v 0.015522 13.600000 -0.155432
v 0.085603 13.700000 -0.084096
v 0.155683 13.600000 -0.012761
v 0.085603 13.500000 -0.084096
v 0.750279 13.600000 -0.877258
v 0.820359 13.700000 -0.805922
v 0.890439 13.600000 -0.734587
v 0.820359 13.500000 -0.805922
f 926 927 931
f 926 931 930
f 927 928 932
f 927 932 931
f 928 929 933
f 928 933 932
f 929 926 930
f 929 930 933
v -0.053454 13.842857 -0.146774
v 0.040637 13.942857 -0.112910
v 0.134729 13.842857 -0.079045
v 0.040637 13.742857 -0.112910
v 0.295350 13.842857 -1.115916
v 0.389441 13.942857 -1.082051
v 0.483533 13.842857 -1.048187
v 0.389441 13.742857 -1.082051
f 934 935 939
f 934 939 938
f 935 936 940
f 935 940 939
f 936 937 941
f 936 941 940
f 937 934 938
f 937 938 941
v -0.111843 14.085714 -0.109046
v -0.012377 14.185714 -0.119360
v 0.087090 14.085714 -0.129674
v -0.012377 13.985714 -0.119360
v -0.218077 14.085714 -1.133553
v -0.118610 14.185714 -1.143867
v -0.019143 14.085714 -1.154181
v -0.118610 13.985714 -1.143867
f 942 943 947
f 942 947 946
f 943 944 948
f 943 948 947
f 944 945 949
f 944 949 948
f 945 942 946
f 945 946 949
v -0.148081 14.328571 -0.049720
v -0.062939 14.428571 -0.102170
v 0.022202 14.328571 -0.154619
v -0.062939 14.228571 -0.102170
v -0.688310 14.328571 -0.926676
v -0.603169 14.428571 -0.979126
v -0.518028 14.328571 -1.031575
v -0.603169 14.228571 -0.979126
f 950 951 955
f 950 955 954
f 951 952 956
f 951 956 955
f 952 953 957
f 952 957 956
f 953 950 954
f 953 954 957
v -0.154989 14.571429 0.019454
v -0.101036 14.671429 -0.064743
v -0.047083 14.571429 -0.148940
v -0.101036 14.471429 -0.064743
v -1.022216 14.571429 -0.536260
v -0.968263 14.671429 -0.620456
v -0.914311 14.571429 -0.704653
v -0.968263 14.471429 -0.620456
f 958 959 963
f 958 963 962
f 959 960 964
f 959 964 963
f 960 961 965
f 960 965 964
f 961 958 962
f 961 962 965
v -0.131200 14.814286 0.084774
v -0.119121 14.914286 -0.014494
v -0.107043 14.814286 -0.113762
v -0.119121 14.714286 -0.014494
v -1.153659 14.814286 -0.039630
v -1.141581 14.914286 -0.138898
v -1.129503 14.814286 -0.238166
v -1.141581 14.714286 -0.138898
f 966 967 971
f 966 971 970
f 967 968 972
f 967 972 971
f 968 969 973
f 968 973 972
f 969 966 970
f 969 970 973
v -0.081425 15.057143 0.133304
v -0.113613 15.157143 0.038626
v -0.145802 15.057143 -0.056051
v -0.113613 14.957143 0.038626
v -1.056606 15.057143 0.464848
v -1.088795 15.157143 0.370170
v -1.120983 15.057143 0.275493
v -1.088795 14.957143 0.370170
f 974 975 979
f 974 979 978
f 975 976 980
f 975 980 979
f 976 977 981
f 976 981 980
f 977 974 978
f 977 978 981
v -0.015522 15.300000 0.155432
v -0.085603 15.400000 0.084096
v -0.155683 15.300000 0.012761
v -0.085603 15.200000 0.084096
v -0.750279 15.300000 0.877258
v -0.820359 15.400000 0.805922
v -0.890439 15.300000 0.734587
v -0.820359 15.200000 0.805922
f 982 983 987
f 982 987 986
f 983 984 988
f 983 988 987
f 984 985 989
f 984 989 988
f 985 982 986
f 985 986 989
v 0.053454 15.542857 0.146774
v -0.040637 15.642857 0.112910
v -0.134729 15.542857 0.079045
v -0.040637 15.442857 0.112910
v -0.295350 15.542857 1.115916
v -0.389441 15.642857 1.082051
v -0.483533 15.542857 1.048187
v -0.389441 15.442857 1.082051
f 990 991 995
f 990 995 994
f 991 992 996
f 991 996 995
f 992 993 997
f 992 997 996
f 993 990 994
f 993 994 997
v 0.111843 15.785714 0.109046
v 0.012377 15.885714 0.119360
v -0.087090 15.785714 0.129674
v 0.012377 15.685714 0.119360
v 0.218077 15.785714 1.133553
v 0.118610 15.885714 1.143867
v 0.019143 15.785714 1.154181
v 0.118610 15.685714 1.143867
f 998 999 1003
f 998 1003 1002
f 999 1000 1004
f 999 1004 1003
f 1000 1001 1005
f 1000 1005 1004
f 1001 998 1002
f 1001 1002 1005
v 0.148081 16.028571 0.049720
v 0.062939 16.128571 0.102170
v -0.022202 16.028571 0.154619
v 0.062939 15.928571 0.102170
v 0.688310 16.028571 0.926676
v 0.603169 16.128571 0.979126
v 0.518028 16.028571 1.031575
v 0.603169 15.928571 0.979126
f 1006 1007 1011
f 1006 1011 1010
f 1007 1008 1012
f 1007 1012 1011
f 1008 1009 1013
f 1008 1013 1012
f 1009 1006 1010
f 1009 1010 1013
v 0.154989 16.271429 -0.019454
v 0.101036 16.371429 0.064743
v 0.047083 16.271429 0.148940
v 0.101036 16.171429 0.064743
v 1.022216 16.271429 0.536260
v 0.968263 16.371429 0.620456
v 0.914311 16.271429 0.704653
v 0.968263 16.171429 0.620456
f 1014 1015 1019
f 1014 1019 1018
f 1015 1016 1020
f 1015 1020 1019
f 1016 1017 1021
f 1016 1021 1020
f 1017 1014 1018
f 1017 1018 1021
v 0.131200 16.514286 -0.084774
v 0.119121 16.614286 0.014494
v 0.107043 16.514286 0.113762
v 0.119121 16.414286 0.014494
v 1.153659 16.514286 0.039630
v 1.141581 16.614286 0.138898
v 1.129503 16.514286 0.238166
v 1.141581 16.414286 0.138898
f 1022 1023 1027
f 1022 1027 1026
f 1023 1024 1028
f 1023 1028 1027
f 1024 1025 1029
f 1024 1029 1028
f 1025 1022 1026
f 1025 1026 1029
v 0.081425 16.757143 -0.133304
v 0.113613 16.857143 -0.038626
v 0.145802 16.757143 0.056051
v 0.113613 16.657143 -0.038626
v 1.056606 16.757143 -0.464848
v 1.088795 16.857143 -0.370170
v 1.120983 16.757143 -0.275493
v 1.088795 16.657143 -0.370170
f 1030 1031 1035
f 1030 1035 1034
f 1031 1032 1036
f 1031 1036 1035
f 1032 1033 1037
f 1032 1037 1036
f 1033 1030 1034
f 1033 1034 1037
v 0.015522 17.000000 -0.155432
v 0.085603 17.100000 -0.084096
v 0.155683 17.000000 -0.012761
v 0.085603 16.900000 -0.084096
v 0.750279 17.000000 -0.877258
v 0.820359 17.100000 -0.805922
v 0.890439 17.000000 -0.734587
v 0.820359 16.900000 -0.805922
f 1038 1039 1043
f 1038 1043 1042
f 1039 1040 1044
f 1039 1044 1043
f 1040 1041 1045
f 1040 1045 1044
f 1041 1038 1042
f 1041 1042 1045
v -0.053454 17.242857 -0.146774
v 0.040637 17.342857 -0.112910
v 0.134729 17.242857 -0.079045
v 0.040637 17.142857 -0.112910
v 0.295350 17.242857 -1.115916
v 0.389441 17.342857 -1.082051
v 0.483533 17.242857 -1.048187
v 0.389441 17.142857 -1.082051
f 1046 1047 1051
f 1046 1051 1050
f 1047 1048 1052
f 1047 1052 1051
f 1048 1049 1053
f 1048 1053 1052
f 1049 1046 1050
f 1049 1050 1053
v -0.111843 17.485714 -0.109046
v -0.012377 17.585714 -0.119360
v 0.087090 17.485714 -0.129674
v -0.012377 17.385714 -0.119360
v -0.218077 17.485714 -1.133553
v -0.118610 17.585714 -1.143867
v -0.019143 17.485714 -1.154181
v -0.118610 17.385714 -1.143867
f 1054 1055 1059
f 1054 1059 1058
f 1055 1056 1060
f 1055 1060 1059
f 1056 1057 1061
f 1056 1061 1060
f 1057 1054 1058
f 1057 1058 1061
v -0.148081 17.728571 -0.049720
v -0.062939 17.828571 -0.102170
v 0.022202 17.728571 -0.154619
v -0.062939 17.628571 -0.102170
v -0.688310 17.728571 -0.926676
v -0.603169 17.828571 -0.979126
v -0.518028 17.728571 -1.031575
v -0.603169 17.628571 -0.979126
f 1062 1063 1067
f 1062 1067 1066
f 1063 1064 1068
f 1063 1068 1067
f 1064 1065 1069
f 1064 1069 1068
f 1065 1062 1066
f 1065 1066 1069
v -0.154989 17.971429 0.019454
v -0.101036 18.071429 -0.064743
v -0.047083 17.971429 -0.148940
v -0.101036 17.871429 -0.064743
v -1.022216 17.971429 -0.536260
v -0.968263 18.071429 -0.620456
v -0.914311 17.971429 -0.704653
v -0.968263 17.871429 -0.620456
f 1070 1071 1075
f 1070 1075 1074
f 1071 1072 1076
f 1071 1076 1075
f 1072 1073 1077
f 1072 1077 1076
f 1073 1070 1074
f 1073 1074 1077
v -0.131200 18.214286 0.084774
v -0.119121 18.314286 -0.014494
v -0.107043 18.214286 -0.113762
v -0.119121 18.114286 -0.014494
v -1.153659 18.214286 -0.039630
v -1.141581 18.314286 -0.138898
v -1.129503 18.214286 -0.238166
v -1.141581 18.114286 -0.138898
f 1078 1079 1083
f 1078 1083 1082
f 1079 1080 1084
f 1079 1084 1083
f 1080 1081 1085
f 1080 1085 1084
f 1081 1078 1082
f 1081 1082 1085
v -0.081425 18.457143 0.133304
v -0.113613 18.557143 0.038626
v -0.145802 18.457143 -0.056051
v -0.113613 18.357143 0.038626
v -1.056606 18.457143 0.464848
v -1.088795 18.557143 0.370170
v -1.120983 18.457143 0.275493
v -1.088795 18.357143 0.370170
f 1086 1087 1091
f 1086 1091 1090
f 1087 1088 1092
f 1087 1092 1091
f 1088 1089 1093
f 1088 1093 1092
f 1089 1086 1090
f 1089 1090 1093
v -0.015522 18.700000 0.155432
v -0.085603 18.800000 0.084096
v -0.155683 18.700000 0.012761
v -0.085603 18.600000 0.084096
v -0.750279 18.700000 0.877258
v -0.820359 18.800000 0.805922
v -0.890439 18.700000 0.734587
v -0.820359 18.600000 0.805922
f 1094 1095 1099
f 1094 1099 1098
f 1095 1096 1100
f 1095 1100 1099
f 1096 1097 1101
f 1096 1101 1100
f 1097 1094 1098
f 1097 1098 1101
v 0.053454 18.942857 0.146774
v -0.040637 19.042857 0.112910
v -0.134729 18.942857 0.079045
v -0.040637 18.842857 0.112910
v -0.295350 18.942857 1.115916
v -0.389441 19.042857 1.082051
v -0.483533 18.942857 1.048187
v -0.389441 18.842857 1.082051
f 1102 1103 1107
f 1102 1107 1106
f 1103 1104 1108
f 1103 1108 1107
f 1104 1105 1109
f 1104 1109 1108
f 1105 1102 1106
f 1105 1106 1109
v 0.111843 19.185714 0.109046
v 0.012377 19.285714 0.119360
v -0.087090 19.185714 0.129674
v 0.012377 19.085714 0.119360
v 0.218077 19.185714 1.133553
v 0.118610 19.285714 1.143867
v 0.019143 19.185714 1.154181
v 0.118610 19.085714 1.143867
f 1110 1111 1115
f 1110 1115 1114
f 1111 1112 1116
f 1111 1116 1115
f 1112 1113 1117
f 1112 1117 1116
f 1113 1110 1114
f 1113 1114 1117
v 0.148081 19.428571 0.049720
v 0.062939 19.528571 0.102170
v -0.022202 19.428571 0.154619
v 0.062939 19.328571 0.102170
v 0.688310 19.428571 0.926676
v 0.603169 19.528571 0.979126
v 0.518028 19.428571 1.031575
v 0.603169 19.328571 0.979126
f 1118 1119 1123
f 1118 1123 1122
f 1119 1120 1124
f 1119 1124 1123
f 1120 1121 1125
f 1120 1125 1124
f 1121 1118 1122
f 1121 1122 1125
v 0.154989 19.671429 -0.019454
v 0.101036 19.771429 0.064743
v 0.047083 19.671429 0.148940
v 0.101036 19.571429 0.064743
v 1.022216 19.671429 0.536260
v 0.968263 19.771429 0.620456
v 0.914311 19.671429 0.704653
v 0.968263 19.571429 0.620456
f 1126 1127 1131
f 1126 1131 1130
f 1127 1128 1132
f 1127 1132 1131
f 1128 1129 1133
f 1128 1133 1132
f 1129 1126 1130
f 1129 1130 1133
v 0.131200 19.914286 -0.084774
v 0.119121 20.014286 0.014494
v 0.107043 19.914286 0.113762
v 0.119121 19.814286 0.014494
v 1.153659 19.914286 0.039630
v 1.141581 20.014286 0.138898
v 1.129503 19.914286 0.238166
v 1.141581 19.814286 0.138898
f 1134 1135 1139
f 1134 1139 1138
f 1135 1136 1140
f 1135 1140 1139
f 1136 1137 1141
f 1136 1141 1140
f 1137 1134 1138
f 1137 1138 1141
v 0.081425 20.157143 -0.133304
v 0.113613 20.257143 -0.038626
v 0.145802 20.157143 0.056051
v 0.113613 20.057143 -0.038626
v 1.056606 20.157143 -0.464848
v 1.088795 20.257143 -0.370170
v 1.120983 20.157143 -0.275493
v 1.088795 20.057143 -0.370170
f 1142 1143 1147
f 1142 1147 1146
f 1143 1144 1148
f 1143 1148 1147
f 1144 1145 1149
f 1144 1149 1148
f 1145 1142 1146
f 1145 1146 1149
v 0.015522 20.400000 -0.155432
v 0.085603 20.500000 -0.084096
v 0.155683 20.400000 -0.012761
v 0.085603 20.300000 -0.084096
v 0.750279 20.400000 -0.877258
v 0.820359 20.500000 -0.805922
v 0.890439 20.400000 -0.734587
v 0.820359 20.300000 -0.805922
f 1150 1151 1155
f 1150 1155 1154
f 1151 1152 1156
f 1151 1156 1155
f 1152 1153 1157
f 1152 1157 1156
f 1153 1150 1154
f 1153 1154 1157
v -0.053454 20.642857 -0.146774
v 0.040637 20.742857 -0.112910
v 0.134729 20.642857 -0.079045
v 0.040637 20.542857 -0.112910
v 0.295350 20.642857 -1.115916
v 0.389441 20.742857 -1.082051
v 0.483533 20.642857 -1.048187
v 0.389441 20.542857 -1.082051
f 1158 1159 1163
f 1158 1163 1162
f 1159 1160 1164
f 1159 1164 1163
f 1160 1161 1165
f 1160 1165 1164
f 1161 1158 1162
f 1161 1162 1165
v -0.111843 20.885714 -0.109046
v -0.012377 20.985714 -0.119360
v 0.087090 20.885714 -0.129674
v -0.012377 20.785714 -0.119360
v -0.218077 20.885714 -1.133553
v -0.118610 20.985714 -1.143867
v -0.019143 20.885714 -1.154181
v -0.118610 20.785714 -1.143867
f 1166 1167 1171
f 1166 1171 1170
f 1167 1168 1172
f 1167 1172 1171
f 1168 1169 1173
f 1168 1173 1172
f 1169 1166 1170
f 1169 1170 1173
v -0.148081 21.128571 -0.049720
v -0.062939 21.228571 -0.102170
v 0.022202 21.128571 -0.154619
v -0.062939 21.028571 -0.102170
v -0.688310 21.128571 -0.926676
v -0.603169 21.228571 -0.979126
v -0.518028 21.128571 -1.031575
v -0.603169 21.028571 -0.979126
f 1174 1175 1179
f 1174 1179 1178
f 1175 1176 1180
f 1175 1180 1179
f 1176 1177 1181
f 1176 1181 1180
f 1177 1174 1178
f 1177 1178 1181
v -0.154989 21.371429 0.019454
v -0.101036 21.471429 -0.064743
v -0.047083 21.371429 -0.148940
v -0.101036 21.271429 -0.064743
v -1.022216 21.371429 -0.536260
v -0.968263 21.471429 -0.620456
v -0.914311 21.371429 -0.704653
v -0.968263 21.271429 -0.620456
f 1182 1183 1187
f 1182 1187 1186
f 1183 1184 1188
f 1183 1188 1187
f 1184 1185 1189
f 1184 1189 1188
f 1185 1182 1186
f 1185 1186 1189
v -0.131200 21.614286 0.084774
v -0.119121 21.714286 -0.014494
v -0.107043 21.614286 -0.113762
v -0.119121 21.514286 -0.014494
v -1.153659 21.614286 -0.039630
v -1.141581 21.714286 -0.138898
v -1.129503 21.614286 -0.238166
v -1.141581 21.514286 -0.138898
f 1190 1191 1195
f 1190 1195 1194
f 1191 1192 1196
f 1191 1196 1195
f 1192 1193 1197
f 1192 1197 1196
f 1193 1190 1194
f 1193 1194 1197
v -0.081425 21.857143 0.133304
v -0.113613 21.957143 0.038626
v -0.145802 21.857143 -0.056051
v -0.113613 21.757143 0.038626
v -1.056606 21.857143 0.464848
v -1.088795 21.957143 0.370170
v -1.120983 21.857143 0.275493
v -1.088795 21.757143 0.370170
f 1198 1199 1203
f 1198 1203 1202
f 1199 1200 1204
f 1199 1204 1203
f 1200 1201 1205
f 1200 1205 1204
f 1201 1198 1202
f 1201 1202 1205
v -0.015522 22.100000 0.155432
v -0.085603 22.200000 0.084096
v -0.155683 22.100000 0.012761
v -0.085603 22.000000 0.084096
v -0.750279 22.100000 0.877258
v -0.820359 22.200000 0.805922
v -0.890439 22.100000 0.734587
v -0.820359 22.000000 0.805922
f 1206 1207 1211
f 1206 1211 1210
f 1207 1208 1212
f 1207 1212 1211
f 1208 1209 1213
f 1208 1213 1212
f 1209 1206 1210
f 1209 1210 1213
v 0.053454 22.342857 0.146774
v -0.040637 22.442857 0.112910
v -0.134729 22.342857 0.079045
v -0.040637 22.242857 0.112910
v -0.295350 22.342857 1.115916
v -0.389441 22.442857 1.082051
v -0.483533 22.342857 1.048187
v -0.389441 22.242857 1.082051
f 1214 1215 1219
f 1214 1219 1218
f 1215 1216 1220
f 1215 1220 1219
f 1216 1217 1221
f 1216 1221 1220
f 1217 1214 1218
f 1217 1218 1221
v 0.111843 22.585714 0.109046
v 0.012377 22.685714 0.119360
v -0.087090 22.585714 0.129674
v 0.012377 22.485714 0.119360
v 0.218077 22.585714 1.133553
v 0.118610 22.685714 1.143867
v 0.019143 22.585714 1.154181
v 0.118610 22.485714 1.143867
f 1222 1223 1227
f 1222 1227 1226
f 1223 1224 1228
f 1223 1228 1227
f 1224 1225 1229
f 1224 1229 1228
f 1225 1222 1226
f 1225 1226 1229
v 0.148081 22.828571 0.049720
v 0.062939 22.928571 0.102170
v -0.022202 22.828571 0.154619
v 0.062939 22.728571 0.102170
v 0.688310 22.828571 0.926676
v 0.603169 22.928571 0.979126
v 0.518028 22.828571 1.031575
v 0.603169 22.728571 0.979126
f 1230 1231 1235
f 1230 1235 1234
f 1231 1232 1236
f 1231 1236 1235
f 1232 1233 1237
f 1232 1237 1236
f 1233 1230 1234
f 1233 1234 1237
v 0.154989 23.071429 -0.019454
v 0.101036 23.171429 0.064743
v 0.047083 23.071429 0.148940
v 0.101036 22.971429 0.064743
v 1.022216 23.071429 0.536260
v 0.968263 23.171429 0.620456
v 0.914311 23.071429 0.704653
v 0.968263 22.971429 0.620456
f 1238 1239 1243
f 1238 1243 1242
f 1239 1240 1244
f 1239 1244 1243
f 1240 1241 1245
f 1240 1245 1244
f 1241 1238 1242
f 1241 1242 1245
v 0.131200 23.314286 -0.084774
v 0.119121 23.414286 0.014494
v 0.107043 23.314286 0.113762
v 0.119121 23.214286 0.014494
v 1.153659 23.314286 0.039630
v 1.141581 23.414286 0.138898
v 1.129503 23.314286 0.238166
v 1.141581 23.214286 0.138898
f 1246 1247 1251
f 1246 1251 1250
f 1247 1248 1252
f 1247 1252 1251
f 1248 1249 1253
f 1248 1253 1252
f 1249 1246 1250
f 1249 1250 1253
v 0.081425 23.557143 -0.133304
v 0.113613 23.657143 -0.038626
v 0.145802 23.557143 0.056051
v 0.113613 23.457143 -0.038626
v 1.056606 23.557143 -0.464848
v 1.088795 23.657143 -0.370170
v 1.120983 23.557143 -0.275493
v 1.088795 23.457143 -0.370170
f 1254 1255 1259
f 1254 1259 1258
f 1255 1256 1260
f 1255 1260 1259
f 1256 1257 1261
f 1256 1261 1260
f 1257 1254 1258
f 1257 1258 1261
v 0.015522 23.800000 -0.155432
v 0.085603 23.900000 -0.084096
v 0.155683 23.800000 -0.012761
v 0.085603 23.700000 -0.084096
v 0.750279 23.800000 -0.877258
v 0.820359 23.900000 -0.805922
v 0.890439 23.800000 -0.734587
v 0.820359 23.700000 -0.805922
f 1262 1263 1267
f 1262 1267 1266
f 1263 1264 1268
f 1263 1268 1267
f 1264 1265 1269
f 1264 1269 1268
f 1265 1262 1266
f 1265 1266 1269
