o mesh
v 0.000000 0.000000 0.015000
v 0.008817 0.000000 0.012135
v 0.014266 0.000000 0.004635
v 0.014266 0.000000 -0.004635
v 0.008817 0.000000 -0.012135
v 0.000000 0.000000 -0.015000
v -0.008817 0.000000 -0.012135
v -0.014266 0.000000 -0.004635
v -0.014266 0.000000 0.004635
v -0.008817 0.000000 0.012135
v 0.000000 0.400000 0.010200
v 0.005995 0.400000 0.008252
v 0.009701 0.400000 0.003152
v 0.009701 0.400000 -0.003152
v 0.005995 0.400000 -0.008252
v 0.000000 0.400000 -0.010200
v -0.005995 0.400000 -0.008252
v -0.009701 0.400000 -0.003152
v -0.009701 0.400000 0.003152
v -0.005995 0.400000 0.008252
f 1 2 12
f 1 12 11
f 2 3 13
f 2 13 12
f 3 4 14
f 3 14 13
f 4 5 15
f 4 15 14
f 5 6 16
f 5 16 15
f 6 7 17
f 6 17 16
f 7 8 18
f 7 18 17
f 8 9 19
f 8 19 18
f 9 10 20
f 9 20 19
f 10 1 11
f 10 11 20
v 0.000080 0.400000 0.010200
v 0.002791 0.405340 0.008230
v 0.004436 0.408640 0.003117
v 0.004387 0.408640 -0.003186
v 0.002662 0.405340 -0.008273
v -0.000080 0.400000 -0.010200
v -0.002791 0.394660 -0.008230
v -0.004436 0.391360 -0.003117
v -0.004387 0.391360 0.003186
v -0.002662 0.394660 0.008273
v -0.287337 0.546749 0.009186
v -0.285494 0.550380 0.007847
v -0.284375 0.552624 0.004370
v -0.284409 0.552624 0.000084
v -0.285582 0.550380 -0.003375
v -0.287446 0.546749 -0.004685
v -0.289290 0.543118 -0.003346
v -0.290408 0.540874 0.000131
v -0.290375 0.540874 0.004417
v -0.289202 0.543118 0.007876
f 21 22 32
f 21 32 31
f 22 23 33
f 22 33 32
f 23 24 34
f 23 34 33
f 24 25 35
f 24 35 34
f 25 26 36
f 25 36 35
f 26 27 37
f 26 37 36
f 27 28 38
f 27 38 37
f 28 29 39
f 28 39 38
f 29 30 40
f 29 40 39
f 30 21 31
f 30 31 40
v -0.289666 0.546749 0.008803
v -0.291736 0.549846 0.006682
v -0.292147 0.551761 0.002869
v -0.290741 0.551761 -0.001181
v -0.288056 0.549846 -0.003920
v -0.285118 0.546749 -0.004302
v -0.283048 0.543651 -0.002182
v -0.282637 0.541737 0.001632
v -0.284042 0.541737 0.005682
v -0.286727 0.543651 0.008421
v -0.495536 0.359592 -0.064996
v -0.496944 0.361698 -0.066438
v -0.497223 0.363000 -0.069031
v -0.496268 0.363000 -0.071785
v -0.494442 0.361698 -0.073648
v -0.492444 0.359592 -0.073908
v -0.491036 0.357486 -0.072466
v -0.490757 0.356184 -0.069873
v -0.491713 0.356184 -0.067119
v -0.493538 0.357486 -0.065256
f 41 42 52
f 41 52 51
f 42 43 53
f 42 53 52
f 43 44 54
f 43 54 53
f 44 45 55
f 44 55 54
f 45 46 56
f 45 56 55
f 46 47 57
f 46 57 56
f 47 48 58
f 47 58 57
f 48 49 59
f 48 59 58
f 49 50 60
f 49 60 59
f 50 41 51
f 50 51 60
v -0.493990 0.357804 -0.073817
v -0.491281 0.358689 -0.073205
v -0.489606 0.359918 -0.071160
v -0.489606 0.361023 -0.068463
v -0.491281 0.361581 -0.066143
v -0.493990 0.361379 -0.065087
v -0.496700 0.360495 -0.065698
v -0.498374 0.359266 -0.067743
v -0.498374 0.358161 -0.070441
v -0.496700 0.357603 -0.072761
v -0.444858 0.148408 0.013568
v -0.443016 0.149009 0.013983
v -0.441877 0.149845 0.015374
v -0.441877 0.150596 0.017208
v -0.443016 0.150976 0.018786
v -0.444858 0.150838 0.019504
v -0.446701 0.150237 0.019088
v -0.447839 0.149401 0.017698
v -0.447839 0.148650 0.015863
v -0.446701 0.148270 0.014286
f 61 62 72
f 61 72 71
f 62 63 73
f 62 73 72
f 63 64 74
f 63 74 73
f 64 65 75
f 64 75 74
f 65 66 76
f 65 76 75
f 66 67 77
f 66 77 76
f 67 68 78
f 67 78 77
f 68 69 79
f 68 79 78
f 69 70 80
f 69 80 79
f 70 61 71
f 70 71 80
v -0.444858 0.149623 0.016536
v -0.444338 0.149251 0.014101
v -0.443604 0.148943 0.011699
v -0.442419 0.148769 0.009367
v -0.440604 0.148782 0.007133
v -0.438096 0.149001 0.005006
v -0.434975 0.149403 0.002974
v -0.431459 0.149922 0.001003
v -0.427875 0.150462 -0.000958
v -0.424604 0.150908 -0.002967
v -0.422013 0.151152 -0.005081
v -0.420393 0.151107 -0.007346
v -0.419902 0.150726 -0.009785
v -0.420541 0.150010 -0.012399
v -0.422150 0.149005 -0.015164
v -0.424440 0.147798 -0.018033
v -0.427042 0.146497 -0.020952
v -0.429576 0.145217 -0.023859
v -0.431716 0.144054 -0.026706
v -0.433242 0.143074 -0.029457
v -0.434076 0.142299 -0.032102
v -0.434280 0.141712 -0.034648
v -0.434032 0.141259 -0.037125
v -0.433571 0.140870 -0.039569
v -0.434091 0.141242 -0.037135
v -0.434825 0.141550 -0.034733
v -0.436010 0.141724 -0.032401
v -0.437825 0.141711 -0.030167
v -0.440333 0.141491 -0.028040
v -0.443454 0.141090 -0.026007
v -0.446970 0.140571 -0.024036
v -0.450554 0.140031 -0.022076
v -0.453825 0.139585 -0.020067
v -0.456416 0.139341 -0.017952
v -0.458036 0.139386 -0.015688
v -0.458527 0.139766 -0.013249
v -0.457888 0.140483 -0.010634
v -0.456279 0.141488 -0.007870
v -0.453990 0.142695 -0.005000
v -0.451387 0.143996 -0.002082
v -0.448853 0.145276 0.000825
v -0.446713 0.146439 0.003672
v -0.445187 0.147419 0.006424
v -0.444353 0.148194 0.009068
v -0.444149 0.148781 0.011615
v -0.444397 0.149234 0.014092
f 81 82 83
f 81 83 82
f 81 83 84
f 81 84 83
f 81 84 85
f 81 85 84
f 81 85 86
f 81 86 85
f 81 86 87
f 81 87 86
f 81 87 88
f 81 88 87
f 81 88 89
f 81 89 88
f 81 89 90
f 81 90 89
f 81 90 91
f 81 91 90
f 81 91 92
f 81 92 91
f 81 92 93
f 81 93 92
f 81 93 94
f 81 94 93
f 81 94 95
f 81 95 94
f 81 95 96
f 81 96 95
f 81 96 97
f 81 97 96
f 81 97 98
f 81 98 97
f 81 98 99
f 81 99 98
f 81 99 100
f 81 100 99
f 81 100 101
f 81 101 100
f 81 101 102
f 81 102 101
f 81 102 103
f 81 103 102
f 81 103 104
f 81 104 103
f 81 104 105
f 81 105 104
f 81 105 106
f 81 106 105
f 81 106 107
f 81 107 106
f 81 107 108
f 81 108 107
f 81 108 109
f 81 109 108
f 81 109 110
f 81 110 109
f 81 110 111
f 81 111 110
f 81 111 112
f 81 112 111
f 81 112 113
f 81 113 112
f 81 113 114
f 81 114 113
f 81 114 115
f 81 115 114
f 81 115 116
f 81 116 115
f 81 116 117
f 81 117 116
f 81 117 118
f 81 118 117
f 81 118 119
f 81 119 118
f 81 119 120
f 81 120 119
f 81 120 121
f 81 121 120
f 81 121 122
f 81 122 121
f 81 122 123
f 81 123 122
f 81 123 124
f 81 124 123
f 81 124 125
f 81 125 124
f 81 125 126
f 81 126 125
v -0.444858 0.149623 0.016536
v -0.443684 0.151283 0.017724
v -0.442743 0.152973 0.019117
v -0.442196 0.154713 0.020858
v -0.442124 0.156513 0.023016
v -0.442516 0.158371 0.025584
v -0.443275 0.160276 0.028473
v -0.444227 0.162205 0.031534
v -0.445152 0.164131 0.034570
v -0.445811 0.166023 0.037372
v -0.445986 0.167854 0.039748
v -0.445508 0.169603 0.041549
v -0.444288 0.171257 0.042697
v -0.442326 0.172818 0.043192
v -0.439712 0.174296 0.043113
v -0.436613 0.175713 0.042607
v -0.433248 0.177097 0.041867
v -0.429856 0.178476 0.041103
v -0.426657 0.179881 0.040509
v -0.423825 0.181331 0.040238
v -0.421458 0.182841 0.040377
v -0.419565 0.184410 0.040932
v -0.418066 0.186030 0.041834
v -0.416800 0.187678 0.042943
v -0.417975 0.186018 0.041755
v -0.418916 0.184328 0.040361
v -0.419463 0.182588 0.038620
v -0.419535 0.180789 0.036462
v -0.419143 0.178930 0.033895
v -0.418384 0.177025 0.031005
v -0.417432 0.175096 0.027945
v -0.416507 0.173170 0.024909
v -0.415847 0.171278 0.022106
v -0.415673 0.169447 0.019731
v -0.416150 0.167698 0.017929
v -0.417370 0.166044 0.016781
v -0.419333 0.164483 0.016287
v -0.421947 0.163005 0.016366
v -0.425046 0.161588 0.016872
v -0.428411 0.160205 0.017612
v -0.431803 0.158825 0.018376
v -0.435002 0.157421 0.018969
v -0.437834 0.155970 0.019240
v -0.440201 0.154461 0.019102
v -0.442094 0.152891 0.018547
v -0.443593 0.151272 0.017644
f 127 128 129
f 127 129 128
f 127 129 130
f 127 130 129
f 127 130 131
f 127 131 130
f 127 131 132
f 127 132 131
f 127 132 133
f 127 133 132
f 127 133 134
f 127 134 133
f 127 134 135
f 127 135 134
f 127 135 136
f 127 136 135
f 127 136 137
f 127 137 136
f 127 137 138
f 127 138 137
f 127 138 139
f 127 139 138
f 127 139 140
f 127 140 139
f 127 140 141
f 127 141 140
f 127 141 142
f 127 142 141
f 127 142 143
f 127 143 142
f 127 143 144
f 127 144 143
f 127 144 145
f 127 145 144
f 127 145 146
f 127 146 145
f 127 146 147
f 127 147 146
f 127 147 148
f 127 148 147
f 127 148 149
f 127 149 148
f 127 149 150
f 127 150 149
f 127 150 151
f 127 151 150
f 127 151 152
f 127 152 151
f 127 152 153
f 127 153 152
f 127 153 154
f 127 154 153
f 127 154 155
f 127 155 154
f 127 155 156
f 127 156 155
f 127 156 157
f 127 157 156
f 127 157 158
f 127 158 157
f 127 158 159
f 127 159 158
f 127 159 160
f 127 160 159
f 127 160 161
f 127 161 160
f 127 161 162
f 127 162 161
f 127 162 163
f 127 163 162
f 127 163 164
f 127 164 163
f 127 164 165
f 127 165 164
f 127 165 166
f 127 166 165
f 127 166 167
f 127 167 166
f 127 167 168
f 127 168 167
f 127 168 169
f 127 169 168
f 127 169 170
f 127 170 169
f 127 170 171
f 127 171 170
f 127 171 172
f 127 172 171
v -0.444858 0.149623 0.016536
v -0.447880 0.150403 0.018073
v -0.451049 0.151058 0.019392
v -0.454539 0.151443 0.020232
v -0.458489 0.151440 0.020388
v -0.462953 0.151003 0.019778
v -0.467881 0.150174 0.018477
v -0.473116 0.149087 0.016720
v -0.478413 0.147946 0.014869
v -0.483488 0.146994 0.013350
v -0.488060 0.146466 0.012579
v -0.491908 0.146548 0.012886
v -0.494911 0.147344 0.014451
v -0.497068 0.148853 0.017276
v -0.498502 0.150973 0.021179
v -0.499433 0.153517 0.025829
v -0.500140 0.156249 0.030812
v -0.500912 0.158928 0.035700
v -0.501989 0.161349 0.040133
v -0.503530 0.163378 0.043875
v -0.505586 0.164972 0.046850
v -0.508101 0.166179 0.049142
v -0.510938 0.167115 0.050955
v -0.513922 0.167927 0.052549
v -0.510900 0.167148 0.051012
v -0.507731 0.166492 0.049693
v -0.504241 0.166107 0.048853
v -0.500291 0.166110 0.048697
v -0.495827 0.166547 0.049307
v -0.490899 0.167376 0.050608
v -0.485664 0.168463 0.052365
v -0.480367 0.169604 0.054216
v -0.475292 0.170556 0.055735
v -0.470720 0.171084 0.056506
v -0.466871 0.171002 0.056199
v -0.463869 0.170206 0.054633
v -0.461712 0.168697 0.051808
v -0.460278 0.166577 0.047906
v -0.459347 0.164033 0.043256
v -0.458640 0.161301 0.038273
v -0.457868 0.158622 0.033384
v -0.456791 0.156202 0.028952
v -0.455250 0.154173 0.025210
v -0.453194 0.152578 0.022234
v -0.450679 0.151371 0.019943
v -0.447842 0.150435 0.018130
f 173 174 175
f 173 175 174
f 173 175 176
f 173 176 175
f 173 176 177
f 173 177 176
f 173 177 178
f 173 178 177
f 173 178 179
f 173 179 178
f 173 179 180
f 173 180 179
f 173 180 181
f 173 181 180
f 173 181 182
f 173 182 181
f 173 182 183
f 173 183 182
f 173 183 184
f 173 184 183
f 173 184 185
f 173 185 184
f 173 185 186
f 173 186 185
f 173 186 187
f 173 187 186
f 173 187 188
f 173 188 187
f 173 188 189
f 173 189 188
f 173 189 190
f 173 190 189
f 173 190 191
f 173 191 190
f 173 191 192
f 173 192 191
f 173 192 193
f 173 193 192
f 173 193 194
f 173 194 193
f 173 194 195
f 173 195 194
f 173 195 196
f 173 196 195
f 173 196 197
f 173 197 196
f 173 197 198
f 173 198 197
f 173 198 199
f 173 199 198
f 173 199 200
f 173 200 199
f 173 200 201
f 173 201 200
f 173 201 202
f 173 202 201
f 173 202 203
f 173 203 202
f 173 203 204
f 173 204 203
f 173 204 205
f 173 205 204
f 173 205 206
f 173 206 205
f 173 206 207
f 173 207 206
f 173 207 208
f 173 208 207
f 173 208 209
f 173 209 208
f 173 209 210
f 173 210 209
f 173 210 211
f 173 211 210
f 173 211 212
f 173 212 211
f 173 212 213
f 173 213 212
f 173 213 214
f 173 214 213
f 173 214 215
f 173 215 214
f 173 215 216
f 173 216 215
f 173 216 217
f 173 217 216
f 173 217 218
f 173 218 217
