o mesh
v 0.000000 -0.000126 0.005999 0.200 0.440 0.170
v 0.005694 -0.000419 0.001846 0.200 0.440 0.170
v 0.003519 -0.000133 -0.004858 0.200 0.440 0.170
v -0.003519 0.000337 -0.004848 0.200 0.440 0.170
v -0.005694 0.000341 0.001862 0.200 0.440 0.170
v 0.006568 0.098265 0.007069 0.200 0.440 0.170
v 0.011312 0.098022 0.003608 0.200 0.440 0.170
v 0.009500 0.098260 -0.001978 0.200 0.440 0.170
v 0.003635 0.098651 -0.001970 0.200 0.440 0.170
v 0.001823 0.098655 0.003621 0.200 0.440 0.170
f 1 2 7
f 1 7 6
f 2 3 8
f 2 8 7
f 3 4 9
f 3 9 8
f 4 5 10
f 4 10 9
f 5 1 6
f 5 6 10
v 0.006568 0.097993 0.008058 0.200 0.440 0.170
v 0.012163 0.097138 0.003850 0.200 0.440 0.170
v 0.010026 0.097987 -0.002818 0.200 0.440 0.170
v 0.003109 0.099366 -0.002731 0.200 0.440 0.170
v 0.000972 0.099370 0.003991 0.200 0.440 0.170
v 0.026270 0.196426 0.013269 0.200 0.440 0.170
v 0.030933 0.195714 0.009763 0.200 0.440 0.170
v 0.029152 0.196421 0.004206 0.200 0.440 0.170
v 0.023388 0.197571 0.004278 0.200 0.440 0.170
v 0.021607 0.197574 0.009880 0.200 0.440 0.170
f 11 12 17
f 11 17 16
f 12 13 18
f 12 18 17
f 13 14 19
f 13 19 18
f 14 15 20
f 14 20 19
f 15 11 16
f 15 16 20
v 0.026270 0.196114 0.014246 0.200 0.440 0.170
v 0.031686 0.194759 0.009935 0.200 0.440 0.170
v 0.029617 0.196144 0.003336 0.200 0.440 0.170
v 0.022923 0.198354 0.003568 0.200 0.440 0.170
v 0.020854 0.198335 0.010311 0.200 0.440 0.170
v 0.059108 0.294589 0.023601 0.200 0.440 0.170
v 0.063621 0.293460 0.020008 0.200 0.440 0.170
v 0.061897 0.294614 0.014509 0.200 0.440 0.170
v 0.056318 0.296456 0.014702 0.200 0.440 0.170
v 0.054594 0.296440 0.020322 0.200 0.440 0.170
f 21 22 27
f 21 27 26
f 22 23 28
f 22 28 27
f 23 24 29
f 23 29 28
f 24 25 30
f 24 30 29
f 25 21 26
f 25 26 30
v 0.060911 0.295112 0.012906 0.200 0.440 0.170
v 0.054778 0.297623 0.015320 0.200 0.440 0.170
v 0.054628 0.296664 0.022306 0.200 0.440 0.170
v 0.060669 0.293560 0.024210 0.200 0.440 0.170
v 0.064552 0.292601 0.018400 0.200 0.440 0.170
v 0.106583 0.393483 0.028348 0.200 0.440 0.170
v 0.101472 0.395575 0.030360 0.200 0.440 0.170
v 0.101347 0.394776 0.036182 0.200 0.440 0.170
v 0.106381 0.392190 0.037768 0.200 0.440 0.170
v 0.109617 0.391390 0.032927 0.200 0.440 0.170
f 31 32 37
f 31 37 36
f 32 33 38
f 32 38 37
f 33 34 39
f 33 39 38
f 34 35 40
f 34 40 39
f 35 31 36
f 35 36 40
v 0.106884 0.393483 0.027394 0.200 0.440 0.170
v 0.101033 0.396524 0.029897 0.200 0.440 0.170
v 0.100775 0.395363 0.036850 0.200 0.440 0.170
v 0.106467 0.391603 0.038643 0.200 0.440 0.170
v 0.110242 0.390441 0.032800 0.200 0.440 0.170
v 0.165691 0.491853 0.046976 0.200 0.440 0.170
v 0.160815 0.494388 0.049062 0.200 0.440 0.170
v 0.160600 0.493420 0.054856 0.200 0.440 0.170
v 0.165343 0.490287 0.056351 0.200 0.440 0.170
v 0.168489 0.489319 0.051481 0.200 0.440 0.170
f 41 42 47
f 41 47 46
f 42 43 48
f 42 48 47
f 43 44 49
f 43 49 48
f 44 45 50
f 44 50 49
f 45 41 46
f 45 46 50
v 0.006651 0.221197 -0.001212 0.616 0.329 0.805
v 0.004932 0.219508 0.002673 0.616 0.329 0.805
v 0.003694 0.216835 0.006364 0.616 0.329 0.805
v 0.002830 0.213849 0.009749 0.616 0.329 0.805
v 0.002267 0.210797 0.012820 0.616 0.329 0.805
v 0.001939 0.207799 0.015603 0.616 0.329 0.805
v 0.001796 0.204915 0.018139 0.616 0.329 0.805
v 0.001796 0.202167 0.020473 0.616 0.329 0.805
v 0.001905 0.199559 0.022649 0.616 0.329 0.805
v 0.002103 0.197079 0.024711 0.616 0.329 0.805
v 0.002373 0.194708 0.026697 0.616 0.329 0.805
v 0.002708 0.192424 0.028642 0.616 0.329 0.805
v 0.003104 0.190200 0.030578 0.616 0.329 0.805
v 0.003565 0.188005 0.032534 0.616 0.329 0.805
v 0.004099 0.185809 0.034535 0.616 0.329 0.805
v 0.004721 0.183578 0.036602 0.616 0.329 0.805
v 0.005450 0.181278 0.038751 0.616 0.329 0.805
v 0.006313 0.178871 0.040991 0.616 0.329 0.805
v 0.007341 0.176321 0.043323 0.616 0.329 0.805
v 0.008573 0.173591 0.045731 0.616 0.329 0.805
v 0.010051 0.170649 0.048180 0.616 0.329 0.805
v 0.011823 0.167473 0.050596 0.616 0.329 0.805
v 0.013927 0.164062 0.052845 0.616 0.329 0.805
v 0.016381 0.160465 0.054675 0.616 0.329 0.805
v 0.019122 0.156885 0.055431 0.616 0.329 0.805
v 0.021737 0.154183 0.052830 0.616 0.329 0.805
v 0.024128 0.152099 0.049332 0.616 0.329 0.805
v 0.026298 0.150497 0.045610 0.616 0.329 0.805
v 0.028267 0.149287 0.041906 0.616 0.329 0.805
v 0.030064 0.148386 0.038329 0.616 0.329 0.805
v 0.031722 0.147727 0.034925 0.616 0.329 0.805
v 0.033273 0.147253 0.031705 0.616 0.329 0.805
v 0.034747 0.146920 0.028660 0.616 0.329 0.805
v 0.036172 0.146693 0.025769 0.616 0.329 0.805
v 0.037576 0.146548 0.023005 0.616 0.329 0.805
v 0.038983 0.146468 0.020335 0.616 0.329 0.805
v 0.040415 0.146442 0.017727 0.616 0.329 0.805
v 0.041894 0.146468 0.015145 0.616 0.329 0.805
v 0.043439 0.146548 0.012552 0.616 0.329 0.805
v 0.045066 0.146693 0.009913 0.616 0.329 0.805
v 0.046790 0.146920 0.007190 0.616 0.329 0.805
v 0.048620 0.147253 0.004345 0.616 0.329 0.805
v 0.050559 0.147727 0.001343 0.616 0.329 0.805
v 0.052600 0.148386 -0.001847 0.616 0.329 0.805
v 0.054715 0.149287 -0.005246 0.616 0.329 0.805
v 0.056850 0.150497 -0.008857 0.616 0.329 0.805
v 0.058894 0.152099 -0.012649 0.616 0.329 0.805
v 0.060633 0.154183 -0.016513 0.616 0.329 0.805
v 0.061489 0.156885 -0.020100 0.616 0.329 0.805
v 0.059415 0.160465 -0.022046 0.616 0.329 0.805
v 0.056574 0.164062 -0.023185 0.616 0.329 0.805
v 0.053558 0.167473 -0.023808 0.616 0.329 0.805
v 0.050573 0.170649 -0.024061 0.616 0.329 0.805
v 0.047712 0.173591 -0.024046 0.616 0.329 0.805
v 0.045015 0.176321 -0.023841 0.616 0.329 0.805
v 0.042489 0.178871 -0.023503 0.616 0.329 0.805
v 0.040128 0.181278 -0.023071 0.616 0.329 0.805
v 0.037914 0.183578 -0.022573 0.616 0.329 0.805
v 0.035826 0.185809 -0.022027 0.616 0.329 0.805
v 0.033840 0.188005 -0.021439 0.616 0.329 0.805
v 0.031930 0.190200 -0.020813 0.616 0.329 0.805
v 0.030071 0.192424 -0.020141 0.616 0.329 0.805
v 0.028237 0.194708 -0.019413 0.616 0.329 0.805
v 0.026402 0.197079 -0.018608 0.616 0.329 0.805
v 0.024539 0.199559 -0.017702 0.616 0.329 0.805
v 0.022625 0.202167 -0.016661 0.616 0.329 0.805
v 0.020633 0.204915 -0.015443 0.616 0.329 0.805
v 0.018544 0.207799 -0.013999 0.616 0.329 0.805
v 0.016339 0.210797 -0.012269 0.616 0.329 0.805
v 0.014013 0.213849 -0.010187 0.616 0.329 0.805
v 0.011575 0.216835 -0.007686 0.616 0.329 0.805
v 0.009070 0.219508 -0.004705 0.616 0.329 0.805
v 0.020113 0.172149 0.006339 0.616 0.329 0.805
f 123 51 52
f 123 52 51
f 123 52 53
f 123 53 52
f 123 53 54
f 123 54 53
f 123 54 55
f 123 55 54
f 123 55 56
f 123 56 55
f 123 56 57
f 123 57 56
f 123 57 58
f 123 58 57
f 123 58 59
f 123 59 58
f 123 59 60
f 123 60 59
f 123 60 61
f 123 61 60
f 123 61 62
f 123 62 61
f 123 62 63
f 123 63 62
f 123 63 64
f 123 64 63
f 123 64 65
f 123 65 64
f 123 65 66
f 123 66 65
f 123 66 67
f 123 67 66
f 123 67 68
f 123 68 67
f 123 68 69
f 123 69 68
f 123 69 70
f 123 70 69
f 123 70 71
f 123 71 70
f 123 71 72
f 123 72 71
f 123 72 73
f 123 73 72
f 123 73 74
f 123 74 73
f 123 74 75
f 123 75 74
f 123 75 76
f 123 76 75
f 123 76 77
f 123 77 76
f 123 77 78
f 123 78 77
f 123 78 79
f 123 79 78
f 123 79 80
f 123 80 79
f 123 80 81
f 123 81 80
f 123 81 82
f 123 82 81
f 123 82 83
f 123 83 82
f 123 83 84
f 123 84 83
f 123 84 85
f 123 85 84
f 123 85 86
f 123 86 85
f 123 86 87
f 123 87 86
f 123 87 88
f 123 88 87
f 123 88 89
f 123 89 88
f 123 89 90
f 123 90 89
f 123 90 91
f 123 91 90
f 123 91 92
f 123 92 91
f 123 92 93
f 123 93 92
f 123 93 94
f 123 94 93
f 123 94 95
f 123 95 94
f 123 95 96
f 123 96 95
f 123 96 97
f 123 97 96
f 123 97 98
f 123 98 97
f 123 98 99
f 123 99 98
f 123 99 100
f 123 100 99
f 123 100 101
f 123 101 100
f 123 101 102
f 123 102 101
f 123 102 103
f 123 103 102
f 123 103 104
f 123 104 103
f 123 104 105
f 123 105 104
f 123 105 106
f 123 106 105
f 123 106 107
f 123 107 106
f 123 107 108
f 123 108 107
f 123 108 109
f 123 109 108
f 123 109 110
f 123 110 109
f 123 110 111
f 123 111 110
f 123 111 112
f 123 112 111
f 123 112 113
f 123 113 112
f 123 113 114
f 123 114 113
f 123 114 115
f 123 115 114
f 123 115 116
f 123 116 115
f 123 116 117
f 123 117 116
f 123 117 118
f 123 118 117
f 123 118 119
f 123 119 118
f 123 119 120
f 123 120 119
f 123 120 121
f 123 121 120
f 123 121 122
f 123 122 121
f 123 122 51
f 123 51 122
v 0.003042 0.197573 0.038964 0.662 0.409 0.829
v 0.004012 0.193985 0.040173 0.662 0.409 0.829
v 0.005292 0.190148 0.040505 0.662 0.409 0.829
v 0.006707 0.186458 0.040390 0.662 0.409 0.829
v 0.008182 0.183027 0.040009 0.662 0.409 0.829
v 0.009679 0.179884 0.039472 0.662 0.409 0.829
v 0.011177 0.177016 0.038852 0.662 0.409 0.829
v 0.012668 0.174397 0.038197 0.662 0.409 0.829
v 0.014152 0.171992 0.037536 0.662 0.409 0.829
v 0.015637 0.169764 0.036890 0.662 0.409 0.829
v 0.017134 0.167676 0.036270 0.662 0.409 0.829
v 0.018657 0.165696 0.035678 0.662 0.409 0.829
v 0.020226 0.163793 0.035115 0.662 0.409 0.829
v 0.021860 0.161940 0.034575 0.662 0.409 0.829
v 0.023584 0.160111 0.034048 0.662 0.409 0.829
v 0.025422 0.158288 0.033520 0.662 0.409 0.829
v 0.027402 0.156453 0.032973 0.662 0.409 0.829
v 0.029553 0.154596 0.032381 0.662 0.409 0.829
v 0.031901 0.152712 0.031714 0.662 0.409 0.829
v 0.034473 0.150807 0.030933 0.662 0.409 0.829
v 0.037281 0.148902 0.029986 0.662 0.409 0.829
v 0.040320 0.147037 0.028812 0.662 0.409 0.829
v 0.043542 0.145290 0.027331 0.662 0.409 0.829
v 0.046806 0.143799 0.025434 0.662 0.409 0.829
v 0.049654 0.142908 0.022909 0.662 0.409 0.829
v 0.050324 0.143799 0.019162 0.662 0.409 0.829
v 0.050241 0.145290 0.015388 0.662 0.409 0.829
v 0.049825 0.147037 0.011866 0.662 0.409 0.829
v 0.049243 0.148902 0.008661 0.662 0.409 0.829
v 0.048586 0.150807 0.005771 0.662 0.409 0.829
v 0.047913 0.152712 0.003169 0.662 0.409 0.829
v 0.047257 0.154596 0.000818 0.662 0.409 0.829
v 0.046641 0.156453 -0.001326 0.662 0.409 0.829
v 0.046076 0.158288 -0.003301 0.662 0.409 0.829
v 0.045568 0.160111 -0.005145 0.662 0.409 0.829
v 0.045119 0.161940 -0.006891 0.662 0.409 0.829
v 0.044728 0.163793 -0.008567 0.662 0.409 0.829
v 0.044391 0.165696 -0.010199 0.662 0.409 0.829
v 0.044101 0.167676 -0.011808 0.662 0.409 0.829
v 0.043851 0.169764 -0.013408 0.662 0.409 0.829
v 0.043628 0.171992 -0.015012 0.662 0.409 0.829
v 0.043418 0.174397 -0.016623 0.662 0.409 0.829
v 0.043200 0.177016 -0.018237 0.662 0.409 0.829
v 0.042948 0.179884 -0.019838 0.662 0.409 0.829
v 0.042625 0.183027 -0.021396 0.662 0.409 0.829
v 0.042181 0.186458 -0.022854 0.662 0.409 0.829
v 0.041542 0.190148 -0.024121 0.662 0.409 0.829
v 0.040592 0.193985 -0.025040 0.662 0.409 0.829
v 0.039054 0.197573 -0.025238 0.662 0.409 0.829
v 0.036039 0.199325 -0.023471 0.662 0.409 0.829
v 0.032872 0.200316 -0.021134 0.662 0.409 0.829
v 0.029878 0.200887 -0.018616 0.662 0.409 0.829
v 0.027143 0.201185 -0.016063 0.662 0.409 0.829
v 0.024680 0.201308 -0.013546 0.662 0.409 0.829
v 0.022476 0.201321 -0.011099 0.662 0.409 0.829
v 0.020502 0.201272 -0.008730 0.662 0.409 0.829
v 0.018726 0.201196 -0.006435 0.662 0.409 0.829
v 0.017118 0.201116 -0.004200 0.662 0.409 0.829
v 0.015646 0.201048 -0.002007 0.662 0.409 0.829
v 0.014286 0.201003 0.000170 0.662 0.409 0.829
v 0.013014 0.200987 0.002357 0.662 0.409 0.829
v 0.011811 0.201003 0.004582 0.662 0.409 0.829
v 0.010663 0.201048 0.006878 0.662 0.409 0.829
v 0.009558 0.201116 0.009277 0.662 0.409 0.829
v 0.008489 0.201196 0.011815 0.662 0.409 0.829
v 0.007457 0.201272 0.014526 0.662 0.409 0.829
v 0.006464 0.201321 0.017446 0.662 0.409 0.829
v 0.005525 0.201308 0.020603 0.662 0.409 0.829
v 0.004661 0.201185 0.024016 0.662 0.409 0.829
v 0.003909 0.200887 0.027682 0.662 0.409 0.829
v 0.003321 0.200316 0.031549 0.662 0.409 0.829
v 0.002977 0.199325 0.035470 0.662 0.409 0.829
v 0.020113 0.172149 0.006339 0.662 0.409 0.829
f 196 124 125
f 196 125 124
f 196 125 126
f 196 126 125
f 196 126 127
f 196 127 126
f 196 127 128
f 196 128 127
f 196 128 129
f 196 129 128
f 196 129 130
f 196 130 129
f 196 130 131
f 196 131 130
f 196 131 132
f 196 132 131
f 196 132 133
f 196 133 132
f 196 133 134
f 196 134 133
f 196 134 135
f 196 135 134
f 196 135 136
f 196 136 135
f 196 136 137
f 196 137 136
f 196 137 138
f 196 138 137
f 196 138 139
f 196 139 138
f 196 139 140
f 196 140 139
f 196 140 141
f 196 141 140
f 196 141 142
f 196 142 141
f 196 142 143
f 196 143 142
f 196 143 144
f 196 144 143
f 196 144 145
f 196 145 144
f 196 145 146
f 196 146 145
f 196 146 147
f 196 147 146
f 196 147 148
f 196 148 147
f 196 148 149
f 196 149 148
f 196 149 150
f 196 150 149
f 196 150 151
f 196 151 150
f 196 151 152
f 196 152 151
f 196 152 153
f 196 153 152
f 196 153 154
f 196 154 153
f 196 154 155
f 196 155 154
f 196 155 156
f 196 156 155
f 196 156 157
f 196 157 156
f 196 157 158
f 196 158 157
f 196 158 159
f 196 159 158
f 196 159 160
f 196 160 159
f 196 160 161
f 196 161 160
f 196 161 162
f 196 162 161
f 196 162 163
f 196 163 162
f 196 163 164
f 196 164 163
f 196 164 165
f 196 165 164
f 196 165 166
f 196 166 165
f 196 166 167
f 196 167 166
f 196 167 168
f 196 168 167
f 196 168 169
f 196 169 168
f 196 169 170
f 196 170 169
f 196 170 171
f 196 171 170
f 196 171 172
f 196 172 171
f 196 172 173
f 196 173 172
f 196 173 174
f 196 174 173
f 196 174 175
f 196 175 174
f 196 175 176
f 196 176 175
f 196 176 177
f 196 177 176
f 196 177 178
f 196 178 177
f 196 178 179
f 196 179 178
f 196 179 180
f 196 180 179
f 196 180 181
f 196 181 180
f 196 181 182
f 196 182 181
f 196 182 183
f 196 183 182
f 196 183 184
f 196 184 183
f 196 184 185
f 196 185 184
f 196 185 186
f 196 186 185
f 196 186 187
f 196 187 186
f 196 187 188
f 196 188 187
f 196 188 189
f 196 189 188
f 196 189 190
f 196 190 189
f 196 190 191
f 196 191 190
f 196 191 192
f 196 192 191
f 196 192 193
f 196 193 192
f 196 193 194
f 196 194 193
f 196 194 195
f 196 195 194
f 196 195 124
f 196 124 195
v 0.029536 0.178631 0.011624 0.681 0.226 0.587
v 0.029536 0.178631 0.011624 0.681 0.226 0.587
v 0.029536 0.178631 0.011624 0.681 0.226 0.587
v 0.029536 0.178631 0.011624 0.681 0.226 0.587
v 0.029536 0.178631 0.011624 0.681 0.226 0.587
v 0.029536 0.178631 0.011624 0.681 0.226 0.587
v 0.029536 0.178631 0.011624 0.681 0.226 0.587
v 0.029536 0.178631 0.011624 0.681 0.226 0.587
v 0.029536 0.178631 0.011624 0.681 0.226 0.587
v 0.029536 0.178631 0.011624 0.681 0.226 0.587
v 0.032362 0.177806 0.003774 0.681 0.226 0.587
v 0.029423 0.181954 0.003928 0.681 0.226 0.587
v 0.026069 0.184517 0.006764 0.681 0.226 0.587
v 0.023581 0.184517 0.011199 0.681 0.226 0.587
v 0.022909 0.181954 0.015540 0.681 0.226 0.587
v 0.024311 0.177806 0.018129 0.681 0.226 0.587
v 0.027250 0.173658 0.017975 0.681 0.226 0.587
v 0.030604 0.171095 0.015139 0.681 0.226 0.587
v 0.033092 0.171095 0.010704 0.681 0.226 0.587
v 0.033764 0.173658 0.006363 0.681 0.226 0.587
v 0.031709 0.175645 -0.002423 0.681 0.226 0.587
v 0.026953 0.182356 -0.002175 0.681 0.226 0.587
v 0.021526 0.186504 0.002414 0.681 0.226 0.587
v 0.017500 0.186504 0.009591 0.681 0.226 0.587
v 0.016414 0.182356 0.016615 0.681 0.226 0.587
v 0.018682 0.175645 0.020802 0.681 0.226 0.587
v 0.023437 0.168934 0.020554 0.681 0.226 0.587
v 0.028865 0.164787 0.015965 0.681 0.226 0.587
v 0.032890 0.164787 0.008788 0.681 0.226 0.587
v 0.033977 0.168934 0.001765 0.681 0.226 0.587
v 0.027827 0.172974 -0.004601 0.681 0.226 0.587
v 0.023071 0.179685 -0.004353 0.681 0.226 0.587
v 0.017643 0.183833 0.000236 0.681 0.226 0.587
v 0.013618 0.183833 0.007413 0.681 0.226 0.587
v 0.012531 0.179685 0.014437 0.681 0.226 0.587
v 0.014799 0.172974 0.018624 0.681 0.226 0.587
v 0.019555 0.166263 0.018376 0.681 0.226 0.587
v 0.024982 0.162116 0.013788 0.681 0.226 0.587
v 0.029008 0.162116 0.006611 0.681 0.226 0.587
v 0.030094 0.166263 -0.000413 0.681 0.226 0.587
v 0.022197 0.170813 -0.001927 0.681 0.226 0.587
v 0.019258 0.174961 -0.001774 0.681 0.226 0.587
v 0.015904 0.177524 0.001062 0.681 0.226 0.587
v 0.013416 0.177524 0.005498 0.681 0.226 0.587
v 0.012744 0.174961 0.009839 0.681 0.226 0.587
v 0.014146 0.170813 0.012427 0.681 0.226 0.587
v 0.017085 0.166666 0.012274 0.681 0.226 0.587
v 0.020439 0.164102 0.009438 0.681 0.226 0.587
v 0.022928 0.164102 0.005002 0.681 0.226 0.587
v 0.023599 0.166666 0.000661 0.681 0.226 0.587
v 0.016972 0.169988 0.004577 0.681 0.226 0.587
v 0.016972 0.169988 0.004577 0.681 0.226 0.587
v 0.016972 0.169988 0.004577 0.681 0.226 0.587
v 0.016972 0.169988 0.004577 0.681 0.226 0.587
v 0.016972 0.169988 0.004577 0.681 0.226 0.587
v 0.016972 0.169988 0.004577 0.681 0.226 0.587
v 0.016972 0.169988 0.004577 0.681 0.226 0.587
v 0.016972 0.169988 0.004577 0.681 0.226 0.587
v 0.016972 0.169988 0.004577 0.681 0.226 0.587
v 0.016972 0.169988 0.004577 0.681 0.226 0.587
f 197 208 198
f 197 207 208
f 198 209 199
f 198 208 209
f 199 210 200
f 199 209 210
f 200 211 201
f 200 210 211
f 201 212 202
f 201 211 212
f 202 213 203
f 202 212 213
f 203 214 204
f 203 213 214
f 204 215 205
f 204 214 215
f 205 216 206
f 205 215 216
f 206 207 197
f 206 216 207
f 207 218 208
f 207 217 218
f 208 219 209
f 208 218 219
f 209 220 210
f 209 219 220
f 210 221 211
f 210 220 221
f 211 222 212
f 211 221 222
f 212 223 213
f 212 222 223
f 213 224 214
f 213 223 224
f 214 225 215
f 214 224 225
f 215 226 216
f 215 225 226
f 216 217 207
f 216 226 217
f 217 228 218
f 217 227 228
f 218 229 219
f 218 228 229
f 219 230 220
f 219 229 230
f 220 231 221
f 220 230 231
f 221 232 222
f 221 231 232
f 222 233 223
f 222 232 233
f 223 234 224
f 223 233 234
f 224 235 225
f 224 234 235
f 225 236 226
f 225 235 236
f 226 227 217
f 226 236 227
f 227 238 228
f 227 237 238
f 228 239 229
f 228 238 239
f 229 240 230
f 229 239 240
f 230 241 231
f 230 240 241
f 231 242 232
f 231 241 242
f 232 243 233
f 232 242 243
f 233 244 234
f 233 243 244
f 234 245 235
f 234 244 245
f 235 246 236
f 235 245 246
f 236 237 227
f 236 246 237
f 237 248 238
f 237 247 248
f 238 249 239
f 238 248 249
f 239 250 240
f 239 249 250
f 240 251 241
f 240 250 251
f 241 252 242
f 241 251 252
f 242 253 243
f 242 252 253
f 243 254 244
f 243 253 254
f 244 255 245
f 244 254 255
f 245 256 246
f 245 255 256
f 246 247 237
f 246 256 247
v 0.030145 0.297265 0.015501 0.616 0.329 0.805
v 0.031026 0.295704 0.019262 0.616 0.329 0.805
v 0.032129 0.293236 0.022618 0.616 0.329 0.805
v 0.033331 0.290484 0.025545 0.616 0.329 0.805
v 0.034578 0.287673 0.028079 0.616 0.329 0.805
v 0.035843 0.284916 0.030272 0.616 0.329 0.805
v 0.037109 0.282267 0.032185 0.616 0.329 0.805
v 0.038373 0.279747 0.033871 0.616 0.329 0.805
v 0.039636 0.277357 0.035382 0.616 0.329 0.805
v 0.040905 0.275088 0.036761 0.616 0.329 0.805
v 0.042190 0.272923 0.038043 0.616 0.329 0.805
v 0.043504 0.270839 0.039259 0.616 0.329 0.805
v 0.044863 0.268813 0.040435 0.616 0.329 0.805
v 0.046285 0.266817 0.041587 0.616 0.329 0.805
v 0.047791 0.264824 0.042730 0.616 0.329 0.805
v 0.049402 0.262803 0.043871 0.616 0.329 0.805
v 0.051142 0.260721 0.045011 0.616 0.329 0.805
v 0.053036 0.258547 0.046141 0.616 0.329 0.805
v 0.055106 0.256247 0.047244 0.616 0.329 0.805
v 0.057373 0.253787 0.048289 0.616 0.329 0.805
v 0.059847 0.251139 0.049224 0.616 0.329 0.805
v 0.062520 0.248281 0.049971 0.616 0.329 0.805
v 0.065344 0.245212 0.050413 0.616 0.329 0.805
v 0.068187 0.241974 0.050359 0.616 0.329 0.805
v 0.070622 0.238741 0.049373 0.616 0.329 0.805
v 0.071020 0.236258 0.046052 0.616 0.329 0.805
v 0.070739 0.234326 0.042210 0.616 0.329 0.805
v 0.070175 0.232833 0.038332 0.616 0.329 0.805
v 0.069481 0.231699 0.034576 0.616 0.329 0.805
v 0.068740 0.230851 0.031007 0.616 0.329 0.805
v 0.068001 0.230227 0.027639 0.616 0.329 0.805
v 0.067295 0.229775 0.024462 0.616 0.329 0.805
v 0.066637 0.229456 0.021453 0.616 0.329 0.805
v 0.066036 0.229238 0.018581 0.616 0.329 0.805
v 0.065497 0.229097 0.015811 0.616 0.329 0.805
v 0.065017 0.229019 0.013106 0.616 0.329 0.805
v 0.064596 0.228994 0.010431 0.616 0.329 0.805
v 0.064229 0.229019 0.007749 0.616 0.329 0.805
v 0.063909 0.229097 0.005021 0.616 0.329 0.805
v 0.063628 0.229238 0.002213 0.616 0.329 0.805
v 0.063375 0.229456 -0.000710 0.616 0.329 0.805
v 0.063138 0.229775 -0.003781 0.616 0.329 0.805
v 0.062900 0.230227 -0.007027 0.616 0.329 0.805
v 0.062637 0.230851 -0.010465 0.616 0.329 0.805
v 0.062318 0.231699 -0.014097 0.616 0.329 0.805
v 0.061901 0.232833 -0.017893 0.616 0.329 0.805
v 0.061324 0.234326 -0.021770 0.616 0.329 0.805
v 0.060486 0.236258 -0.025529 0.616 0.329 0.805
v 0.059148 0.238741 -0.028595 0.616 0.329 0.805
v 0.056533 0.241974 -0.028838 0.616 0.329 0.805
v 0.053795 0.245212 -0.028071 0.616 0.329 0.805
v 0.051217 0.248281 -0.026834 0.616 0.329 0.805
v 0.048873 0.251139 -0.025348 0.616 0.329 0.805
v 0.046773 0.253787 -0.023740 0.616 0.329 0.805
v 0.044903 0.256247 -0.022087 0.616 0.329 0.805
v 0.043239 0.258547 -0.020434 0.616 0.329 0.805
v 0.041751 0.260721 -0.018806 0.616 0.329 0.805
v 0.040413 0.262803 -0.017213 0.616 0.329 0.805
v 0.039199 0.264824 -0.015657 0.616 0.329 0.805
v 0.038086 0.266817 -0.014128 0.616 0.329 0.805
v 0.037056 0.268813 -0.012615 0.616 0.329 0.805
v 0.036093 0.270839 -0.011098 0.616 0.329 0.805
v 0.035185 0.272923 -0.009554 0.616 0.329 0.805
v 0.034324 0.275088 -0.007956 0.616 0.329 0.805
v 0.033507 0.277357 -0.006271 0.616 0.329 0.805
v 0.032733 0.279747 -0.004460 0.616 0.329 0.805
v 0.032008 0.282267 -0.002481 0.616 0.329 0.805
v 0.031346 0.284916 -0.000285 0.616 0.329 0.805
v 0.030767 0.287673 0.002180 0.616 0.329 0.805
v 0.030303 0.290484 0.004965 0.616 0.329 0.805
v 0.029995 0.293236 0.008115 0.616 0.329 0.805
v 0.029905 0.295704 0.011646 0.616 0.329 0.805
v 0.043125 0.252075 0.013591 0.616 0.329 0.805
f 329 257 258
f 329 258 257
f 329 258 259
f 329 259 258
f 329 259 260
f 329 260 259
f 329 260 261
f 329 261 260
f 329 261 262
f 329 262 261
f 329 262 263
f 329 263 262
f 329 263 264
f 329 264 263
f 329 264 265
f 329 265 264
f 329 265 266
f 329 266 265
f 329 266 267
f 329 267 266
f 329 267 268
f 329 268 267
f 329 268 269
f 329 269 268
f 329 269 270
f 329 270 269
f 329 270 271
f 329 271 270
f 329 271 272
f 329 272 271
f 329 272 273
f 329 273 272
f 329 273 274
f 329 274 273
f 329 274 275
f 329 275 274
f 329 275 276
f 329 276 275
f 329 276 277
f 329 277 276
f 329 277 278
f 329 278 277
f 329 278 279
f 329 279 278
f 329 279 280
f 329 280 279
f 329 280 281
f 329 281 280
f 329 281 282
f 329 282 281
f 329 282 283
f 329 283 282
f 329 283 284
f 329 284 283
f 329 284 285
f 329 285 284
f 329 285 286
f 329 286 285
f 329 286 287
f 329 287 286
f 329 287 288
f 329 288 287
f 329 288 289
f 329 289 288
f 329 289 290
f 329 290 289
f 329 290 291
f 329 291 290
f 329 291 292
f 329 292 291
f 329 292 293
f 329 293 292
f 329 293 294
f 329 294 293
f 329 294 295
f 329 295 294
f 329 295 296
f 329 296 295
f 329 296 297
f 329 297 296
f 329 297 298
f 329 298 297
f 329 298 299
f 329 299 298
f 329 299 300
f 329 300 299
f 329 300 301
f 329 301 300
f 329 301 302
f 329 302 301
f 329 302 303
f 329 303 302
f 329 303 304
f 329 304 303
f 329 304 305
f 329 305 304
f 329 305 306
f 329 306 305
f 329 306 307
f 329 307 306
f 329 307 308
f 329 308 307
f 329 308 309
f 329 309 308
f 329 309 310
f 329 310 309
f 329 310 311
f 329 311 310
f 329 311 312
f 329 312 311
f 329 312 313
f 329 313 312
f 329 313 314
f 329 314 313
f 329 314 315
f 329 315 314
f 329 315 316
f 329 316 315
f 329 316 317
f 329 317 316
f 329 317 318
f 329 318 317
f 329 318 319
f 329 319 318
f 329 319 320
f 329 320 319
f 329 320 321
f 329 321 320
f 329 321 322
f 329 322 321
f 329 322 323
f 329 323 322
f 329 323 324
f 329 324 323
f 329 324 325
f 329 325 324
f 329 325 326
f 329 326 325
f 329 326 327
f 329 327 326
f 329 327 328
f 329 328 327
f 329 328 257
f 329 257 328
v 0.050035 0.275860 0.046429 0.662 0.409 0.829
v 0.051360 0.272566 0.046767 0.662 0.409 0.829
v 0.052400 0.269033 0.046304 0.662 0.409 0.829
v 0.053287 0.265634 0.045445 0.662 0.409 0.829
v 0.054075 0.262474 0.044359 0.662 0.409 0.829
v 0.054800 0.259580 0.043148 0.662 0.409 0.829
v 0.055487 0.256942 0.041876 0.662 0.409 0.829
v 0.056158 0.254536 0.040580 0.662 0.409 0.829
v 0.056829 0.252328 0.039284 0.662 0.409 0.829
v 0.057516 0.250286 0.037997 0.662 0.409 0.829
v 0.058233 0.248377 0.036720 0.662 0.409 0.829
v 0.058992 0.246569 0.035448 0.662 0.409 0.829
v 0.059806 0.244835 0.034171 0.662 0.409 0.829
v 0.060686 0.243150 0.032872 0.662 0.409 0.829
v 0.061644 0.241493 0.031533 0.662 0.409 0.829
v 0.062692 0.239843 0.030128 0.662 0.409 0.829
v 0.063837 0.238188 0.028629 0.662 0.409 0.829
v 0.065088 0.236516 0.027003 0.662 0.409 0.829
v 0.066448 0.234825 0.025211 0.662 0.409 0.829
v 0.067913 0.233120 0.023211 0.662 0.409 0.829
v 0.069465 0.231420 0.020960 0.662 0.409 0.829
v 0.071064 0.229762 0.018415 0.662 0.409 0.829
v 0.072630 0.228213 0.015547 0.662 0.409 0.829
v 0.073993 0.226896 0.012356 0.662 0.409 0.829
v 0.074688 0.226114 0.008946 0.662 0.409 0.829
v 0.073041 0.226896 0.005882 0.662 0.409 0.829
v 0.070815 0.228213 0.003219 0.662 0.409 0.829
v 0.068490 0.229762 0.000923 0.662 0.409 0.829
v 0.066225 0.231420 -0.001053 0.662 0.409 0.829
v 0.064091 0.233120 -0.002762 0.662 0.409 0.829
v 0.062112 0.234825 -0.004255 0.662 0.409 0.829
v 0.060293 0.236516 -0.005579 0.662 0.409 0.829
v 0.058627 0.238188 -0.006776 0.662 0.409 0.829
v 0.057098 0.239843 -0.007881 0.662 0.409 0.829
v 0.055691 0.241493 -0.008925 0.662 0.409 0.829
v 0.054387 0.243150 -0.009932 0.662 0.409 0.829
v 0.053170 0.244835 -0.010921 0.662 0.409 0.829
v 0.052023 0.246569 -0.011910 0.662 0.409 0.829
v 0.050930 0.248377 -0.012909 0.662 0.409 0.829
v 0.049876 0.250286 -0.013925 0.662 0.409 0.829
v 0.048847 0.252328 -0.014960 0.662 0.409 0.829
v 0.047831 0.254536 -0.016008 0.662 0.409 0.829
v 0.046815 0.256942 -0.017056 0.662 0.409 0.829
v 0.045790 0.259580 -0.018076 0.662 0.409 0.829
v 0.044747 0.262474 -0.019027 0.662 0.409 0.829
v 0.043679 0.265634 -0.019839 0.662 0.409 0.829
v 0.042583 0.269033 -0.020407 0.662 0.409 0.829
v 0.041454 0.272566 -0.020550 0.662 0.409 0.829
v 0.040282 0.275860 -0.019845 0.662 0.409 0.829
v 0.039046 0.277425 -0.016889 0.662 0.409 0.829
v 0.037997 0.278287 -0.013435 0.662 0.409 0.829
v 0.037172 0.278764 -0.009946 0.662 0.409 0.829
v 0.036558 0.278998 -0.006577 0.662 0.409 0.829
v 0.036128 0.279076 -0.003386 0.662 0.409 0.829
v 0.035854 0.279060 -0.000391 0.662 0.409 0.829
v 0.035710 0.278992 0.002419 0.662 0.409 0.829
v 0.035676 0.278904 0.005064 0.662 0.409 0.829
v 0.035737 0.278816 0.007572 0.662 0.409 0.829
v 0.035880 0.278744 0.009973 0.662 0.409 0.829
v 0.036100 0.278698 0.012299 0.662 0.409 0.829
v 0.036396 0.278682 0.014581 0.662 0.409 0.829
v 0.036770 0.278698 0.016853 0.662 0.409 0.829
v 0.037229 0.278744 0.019144 0.662 0.409 0.829
v 0.037784 0.278816 0.021484 0.662 0.409 0.829
v 0.038449 0.278904 0.023903 0.662 0.409 0.829
v 0.039243 0.278992 0.026426 0.662 0.409 0.829
v 0.040190 0.279060 0.029075 0.662 0.409 0.829
v 0.041316 0.279076 0.031865 0.662 0.409 0.829
v 0.042647 0.278998 0.034796 0.662 0.409 0.829
v 0.044205 0.278764 0.037845 0.662 0.409 0.829
v 0.046000 0.278287 0.040949 0.662 0.409 0.829
v 0.047999 0.277425 0.043955 0.662 0.409 0.829
v 0.043125 0.252075 0.013591 0.662 0.409 0.829
f 402 330 331
f 402 331 330
f 402 331 332
f 402 332 331
f 402 332 333
f 402 333 332
f 402 333 334
f 402 334 333
f 402 334 335
f 402 335 334
f 402 335 336
f 402 336 335
f 402 336 337
f 402 337 336
f 402 337 338
f 402 338 337
f 402 338 339
f 402 339 338
f 402 339 340
f 402 340 339
f 402 340 341
f 402 341 340
f 402 341 342
f 402 342 341
f 402 342 343
f 402 343 342
f 402 343 344
f 402 344 343
f 402 344 345
f 402 345 344
f 402 345 346
f 402 346 345
f 402 346 347
f 402 347 346
f 402 347 348
f 402 348 347
f 402 348 349
f 402 349 348
f 402 349 350
f 402 350 349
f 402 350 351
f 402 351 350
f 402 351 352
f 402 352 351
f 402 352 353
f 402 353 352
f 402 353 354
f 402 354 353
f 402 354 355
f 402 355 354
f 402 355 356
f 402 356 355
f 402 356 357
f 402 357 356
f 402 357 358
f 402 358 357
f 402 358 359
f 402 359 358
f 402 359 360
f 402 360 359
f 402 360 361
f 402 361 360
f 402 361 362
f 402 362 361
f 402 362 363
f 402 363 362
f 402 363 364
f 402 364 363
f 402 364 365
f 402 365 364
f 402 365 366
f 402 366 365
f 402 366 367
f 402 367 366
f 402 367 368
f 402 368 367
f 402 368 369
f 402 369 368
f 402 369 370
f 402 370 369
f 402 370 371
f 402 371 370
f 402 371 372
f 402 372 371
f 402 372 373
f 402 373 372
f 402 373 374
f 402 374 373
f 402 374 375
f 402 375 374
f 402 375 376
f 402 376 375
f 402 376 377
f 402 377 376
f 402 377 378
f 402 378 377
f 402 378 379
f 402 379 378
f 402 379 380
f 402 380 379
f 402 380 381
f 402 381 380
f 402 381 382
f 402 382 381
f 402 382 383
f 402 383 382
f 402 383 384
f 402 384 383
f 402 384 385
f 402 385 384
f 402 385 386
f 402 386 385
f 402 386 387
f 402 387 386
f 402 387 388
f 402 388 387
f 402 388 389
f 402 389 388
f 402 389 390
f 402 390 389
f 402 390 391
f 402 391 390
f 402 391 392
f 402 392 391
f 402 392 393
f 402 393 392
f 402 393 394
f 402 394 393
f 402 394 395
f 402 395 394
f 402 395 396
f 402 396 395
f 402 396 397
f 402 397 396
f 402 397 398
f 402 398 397
f 402 398 399
f 402 399 398
f 402 399 400
f 402 400 399
f 402 400 401
f 402 401 400
f 402 401 330
f 402 330 401
v 0.052852 0.257974 0.012160 0.681 0.226 0.587
v 0.052852 0.257974 0.012160 0.681 0.226 0.587
v 0.052852 0.257974 0.012160 0.681 0.226 0.587
v 0.052852 0.257974 0.012160 0.681 0.226 0.587
v 0.052852 0.257974 0.012160 0.681 0.226 0.587
v 0.052852 0.257974 0.012160 0.681 0.226 0.587
v 0.052852 0.257974 0.012160 0.681 0.226 0.587
v 0.052852 0.257974 0.012160 0.681 0.226 0.587
v 0.052852 0.257974 0.012160 0.681 0.226 0.587
v 0.052852 0.257974 0.012160 0.681 0.226 0.587
v 0.050523 0.257223 0.004933 0.681 0.226 0.587
v 0.048491 0.260997 0.006678 0.681 0.226 0.587
v 0.047652 0.263330 0.010586 0.681 0.226 0.587
v 0.048325 0.263330 0.015165 0.681 0.226 0.587
v 0.050255 0.260997 0.018665 0.681 0.226 0.587
v 0.052704 0.257223 0.019751 0.681 0.226 0.587
v 0.054736 0.253449 0.018006 0.681 0.226 0.587
v 0.055576 0.251116 0.014098 0.681 0.226 0.587
v 0.054902 0.251116 0.009519 0.681 0.226 0.587
v 0.052972 0.253449 0.006019 0.681 0.226 0.587
v 0.046607 0.255257 0.000832 0.681 0.226 0.587
v 0.043319 0.261364 0.003655 0.681 0.226 0.587
v 0.041961 0.265138 0.009978 0.681 0.226 0.587
v 0.043051 0.265138 0.017387 0.681 0.226 0.587
v 0.046173 0.261364 0.023051 0.681 0.226 0.587
v 0.050135 0.255257 0.024807 0.681 0.226 0.587
v 0.053424 0.249150 0.021984 0.681 0.226 0.587
v 0.054782 0.245375 0.015660 0.681 0.226 0.587
v 0.053692 0.245375 0.008252 0.681 0.226 0.587
v 0.050569 0.249150 0.002588 0.681 0.226 0.587
v 0.042599 0.252826 0.001422 0.681 0.226 0.587
v 0.039311 0.258933 0.004244 0.681 0.226 0.587
v 0.037953 0.262707 0.010568 0.681 0.226 0.587
v 0.039043 0.262707 0.017976 0.681 0.226 0.587
v 0.042165 0.258933 0.023640 0.681 0.226 0.587
v 0.046127 0.252826 0.025396 0.681 0.226 0.587
v 0.049416 0.246719 0.022573 0.681 0.226 0.587
v 0.050774 0.242945 0.016250 0.681 0.226 0.587
v 0.049684 0.242945 0.008841 0.681 0.226 0.587
v 0.046561 0.246719 0.003178 0.681 0.226 0.587
v 0.040031 0.250860 0.006478 0.681 0.226 0.587
v 0.037999 0.254634 0.008222 0.681 0.226 0.587
v 0.037159 0.256967 0.012130 0.681 0.226 0.587
v 0.037833 0.256967 0.016709 0.681 0.226 0.587
v 0.039763 0.254634 0.020209 0.681 0.226 0.587
v 0.042211 0.250860 0.021295 0.681 0.226 0.587
v 0.044243 0.247085 0.019550 0.681 0.226 0.587
v 0.045083 0.244753 0.015642 0.681 0.226 0.587
v 0.044409 0.244753 0.011063 0.681 0.226 0.587
v 0.042479 0.247085 0.007563 0.681 0.226 0.587
v 0.039883 0.250108 0.014068 0.681 0.226 0.587
v 0.039883 0.250108 0.014068 0.681 0.226 0.587
v 0.039883 0.250108 0.014068 0.681 0.226 0.587
v 0.039883 0.250108 0.014068 0.681 0.226 0.587
v 0.039883 0.250108 0.014068 0.681 0.226 0.587
v 0.039883 0.250108 0.014068 0.681 0.226 0.587
v 0.039883 0.250108 0.014068 0.681 0.226 0.587
v 0.039883 0.250108 0.014068 0.681 0.226 0.587
v 0.039883 0.250108 0.014068 0.681 0.226 0.587
v 0.039883 0.250108 0.014068 0.681 0.226 0.587
f 403 414 404
f 403 413 414
f 404 415 405
f 404 414 415
f 405 416 406
f 405 415 416
f 406 417 407
f 406 416 417
f 407 418 408
f 407 417 418
f 408 419 409
f 408 418 419
f 409 420 410
f 409 419 420
f 410 421 411
f 410 420 421
f 411 422 412
f 411 421 422
f 412 413 403
f 412 422 413
f 413 424 414
f 413 423 424
f 414 425 415
f 414 424 425
f 415 426 416
f 415 425 426
f 416 427 417
f 416 426 427
f 417 428 418
f 417 427 428
f 418 429 419
f 418 428 429
f 419 430 420
f 419 429 430
f 420 431 421
f 420 430 431
f 421 432 422
f 421 431 432
f 422 423 413
f 422 432 423
f 423 434 424
f 423 433 434
f 424 435 425
f 424 434 435
f 425 436 426
f 425 435 436
f 426 437 427
f 426 436 437
f 427 438 428
f 427 437 438
f 428 439 429
f 428 438 439
f 429 440 430
f 429 439 440
f 430 441 431
f 430 440 441
f 431 442 432
f 431 441 442
f 432 433 423
f 432 442 433
f 433 444 434
f 433 443 444
f 434 445 435
f 434 444 445
f 435 446 436
f 435 445 446
f 436 447 437
f 436 446 447
f 437 448 438
f 437 447 448
f 438 449 439
f 438 448 449
f 439 450 440
f 439 449 450
f 440 451 441
f 440 450 451
f 441 452 442
f 441 451 452
f 442 443 433
f 442 452 443
f 443 454 444
f 443 453 454
f 444 455 445
f 444 454 455
f 445 456 446
f 445 455 456
f 446 457 447
f 446 456 457
f 447 458 448
f 447 457 458
f 448 459 449
f 448 458 459
f 449 460 450
f 449 459 460
f 450 461 451
f 450 460 461
f 451 462 452
f 451 461 462
f 452 453 443
f 452 462 453
v 0.064728 0.373332 0.019688 0.616 0.329 0.805
v 0.063710 0.371899 0.023013 0.616 0.329 0.805
v 0.063029 0.369637 0.026111 0.616 0.329 0.805
v 0.062614 0.367118 0.028917 0.616 0.329 0.805
v 0.062414 0.364550 0.031436 0.616 0.329 0.805
v 0.062384 0.362034 0.033699 0.616 0.329 0.805
v 0.062488 0.359620 0.035744 0.616 0.329 0.805
v 0.062698 0.357327 0.037615 0.616 0.329 0.805
v 0.062992 0.355156 0.039349 0.616 0.329 0.805
v 0.063355 0.353098 0.040985 0.616 0.329 0.805
v 0.063780 0.351137 0.042555 0.616 0.329 0.805
v 0.064263 0.349254 0.044088 0.616 0.329 0.805
v 0.064805 0.347426 0.045612 0.616 0.329 0.805
v 0.065413 0.345630 0.047148 0.616 0.329 0.805
v 0.066096 0.343839 0.048715 0.616 0.329 0.805
v 0.066869 0.342027 0.050330 0.616 0.329 0.805
v 0.067750 0.340165 0.052003 0.616 0.329 0.805
v 0.068762 0.338224 0.053740 0.616 0.329 0.805
v 0.069932 0.336173 0.055537 0.616 0.329 0.805
v 0.071289 0.333984 0.057377 0.616 0.329 0.805
v 0.072864 0.331629 0.059226 0.616 0.329 0.805
v 0.074686 0.329089 0.061019 0.616 0.329 0.805
v 0.076766 0.326363 0.062641 0.616 0.329 0.805
v 0.079080 0.323483 0.063882 0.616 0.329 0.805
v 0.081469 0.320596 0.064204 0.616 0.329 0.805
v 0.083212 0.318332 0.061758 0.616 0.329 0.805
v 0.084635 0.316553 0.058597 0.616 0.329 0.805
v 0.085851 0.315169 0.055281 0.616 0.329 0.805
v 0.086915 0.314112 0.052005 0.616 0.329 0.805
v 0.087867 0.313316 0.048857 0.616 0.329 0.805
v 0.088739 0.312726 0.045872 0.616 0.329 0.805
v 0.089558 0.312298 0.043053 0.616 0.329 0.805
v 0.090349 0.311992 0.040390 0.616 0.329 0.805
v 0.091130 0.311782 0.037862 0.616 0.329 0.805
v 0.091920 0.311646 0.035444 0.616 0.329 0.805
v 0.092734 0.311570 0.033107 0.616 0.329 0.805
v 0.093587 0.311545 0.030821 0.616 0.329 0.805
v 0.094490 0.311570 0.028554 0.616 0.329 0.805
v 0.095457 0.311646 0.026276 0.616 0.329 0.805
v 0.096496 0.311782 0.023954 0.616 0.329 0.805
v 0.097614 0.311992 0.021557 0.616 0.329 0.805
v 0.098817 0.312298 0.019053 0.616 0.329 0.805
v 0.100103 0.312726 0.016414 0.616 0.329 0.805
v 0.101462 0.313316 0.013616 0.616 0.329 0.805
v 0.102871 0.314112 0.010645 0.616 0.329 0.805
v 0.104283 0.315169 0.007503 0.616 0.329 0.805
v 0.105609 0.316553 0.004229 0.616 0.329 0.805
v 0.106678 0.318332 0.000931 0.616 0.329 0.805
v 0.107029 0.320596 -0.002051 0.616 0.329 0.805
v 0.105042 0.323483 -0.003417 0.616 0.329 0.805
v 0.102495 0.326363 -0.004051 0.616 0.329 0.805
v 0.099864 0.329089 -0.004247 0.616 0.329 0.805
v 0.097311 0.331629 -0.004142 0.616 0.329 0.805
v 0.094901 0.333984 -0.003830 0.616 0.329 0.805
v 0.092660 0.336173 -0.003378 0.616 0.329 0.805
v 0.090587 0.338224 -0.002833 0.616 0.329 0.805
v 0.088671 0.340165 -0.002225 0.616 0.329 0.805
v 0.086894 0.342027 -0.001577 0.616 0.329 0.805
v 0.085237 0.343839 -0.000900 0.616 0.329 0.805
v 0.083678 0.345630 -0.000197 0.616 0.329 0.805
v 0.082196 0.347426 0.000532 0.616 0.329 0.805
v 0.080771 0.349254 0.001297 0.616 0.329 0.805
v 0.079383 0.351137 0.002109 0.616 0.329 0.805
v 0.078014 0.353098 0.002986 0.616 0.329 0.805
v 0.076646 0.355156 0.003954 0.616 0.329 0.805
v 0.075264 0.357327 0.005042 0.616 0.329 0.805
v 0.073853 0.359620 0.006287 0.616 0.329 0.805
v 0.072401 0.362034 0.007733 0.616 0.329 0.805
v 0.070904 0.364550 0.009429 0.616 0.329 0.805
v 0.069360 0.367118 0.011429 0.616 0.329 0.805
v 0.067783 0.369637 0.013787 0.616 0.329 0.805
v 0.066207 0.371899 0.016541 0.616 0.329 0.805
v 0.074808 0.332001 0.023576 0.616 0.329 0.805
f 535 463 464
f 535 464 463
f 535 464 465
f 535 465 464
f 535 465 466
f 535 466 465
f 535 466 467
f 535 467 466
f 535 467 468
f 535 468 467
f 535 468 469
f 535 469 468
f 535 469 470
f 535 470 469
f 535 470 471
f 535 471 470
f 535 471 472
f 535 472 471
f 535 472 473
f 535 473 472
f 535 473 474
f 535 474 473
f 535 474 475
f 535 475 474
f 535 475 476
f 535 476 475
f 535 476 477
f 535 477 476
f 535 477 478
f 535 478 477
f 535 478 479
f 535 479 478
f 535 479 480
f 535 480 479
f 535 480 481
f 535 481 480
f 535 481 482
f 535 482 481
f 535 482 483
f 535 483 482
f 535 483 484
f 535 484 483
f 535 484 485
f 535 485 484
f 535 485 486
f 535 486 485
f 535 486 487
f 535 487 486
f 535 487 488
f 535 488 487
f 535 488 489
f 535 489 488
f 535 489 490
f 535 490 489
f 535 490 491
f 535 491 490
f 535 491 492
f 535 492 491
f 535 492 493
f 535 493 492
f 535 493 494
f 535 494 493
f 535 494 495
f 535 495 494
f 535 495 496
f 535 496 495
f 535 496 497
f 535 497 496
f 535 497 498
f 535 498 497
f 535 498 499
f 535 499 498
f 535 499 500
f 535 500 499
f 535 500 501
f 535 501 500
f 535 501 502
f 535 502 501
f 535 502 503
f 535 503 502
f 535 503 504
f 535 504 503
f 535 504 505
f 535 505 504
f 535 505 506
f 535 506 505
f 535 506 507
f 535 507 506
f 535 507 508
f 535 508 507
f 535 508 509
f 535 509 508
f 535 509 510
f 535 510 509
f 535 510 511
f 535 511 510
f 535 511 512
f 535 512 511
f 535 512 513
f 535 513 512
f 535 513 514
f 535 514 513
f 535 514 515
f 535 515 514
f 535 515 516
f 535 516 515
f 535 516 517
f 535 517 516
f 535 517 518
f 535 518 517
f 535 518 519
f 535 519 518
f 535 519 520
f 535 520 519
f 535 520 521
f 535 521 520
f 535 521 522
f 535 522 521
f 535 522 523
f 535 523 522
f 535 523 524
f 535 524 523
f 535 524 525
f 535 525 524
f 535 525 526
f 535 526 525
f 535 526 527
f 535 527 526
f 535 527 528
f 535 528 527
f 535 528 529
f 535 529 528
f 535 529 530
f 535 530 529
f 535 530 531
f 535 531 530
f 535 531 532
f 535 532 531
f 535 532 533
f 535 533 532
f 535 533 534
f 535 534 533
f 535 534 463
f 535 463 534
v 0.066781 0.354146 0.052829 0.662 0.409 0.829
v 0.067622 0.351147 0.053663 0.662 0.409 0.829
v 0.068573 0.347919 0.053734 0.662 0.409 0.829
v 0.069580 0.344811 0.053426 0.662 0.409 0.829
v 0.070614 0.341921 0.052898 0.662 0.409 0.829
v 0.071663 0.339277 0.052248 0.662 0.409 0.829
v 0.072717 0.336869 0.051535 0.662 0.409 0.829
v 0.073778 0.334674 0.050801 0.662 0.409 0.829
v 0.074847 0.332664 0.050069 0.662 0.409 0.829
v 0.075932 0.330809 0.049354 0.662 0.409 0.829
v 0.077043 0.329077 0.048663 0.662 0.409 0.829
v 0.078193 0.327442 0.047998 0.662 0.409 0.829
v 0.079394 0.325877 0.047356 0.662 0.409 0.829
v 0.080663 0.324361 0.046729 0.662 0.409 0.829
v 0.082019 0.322874 0.046106 0.662 0.409 0.829
v 0.083480 0.321399 0.045475 0.662 0.409 0.829
v 0.085068 0.319922 0.044816 0.662 0.409 0.829
v 0.086802 0.318437 0.044107 0.662 0.409 0.829
v 0.088704 0.316939 0.043320 0.662 0.409 0.829
v 0.090788 0.315434 0.042419 0.662 0.409 0.829
v 0.093060 0.313938 0.041363 0.662 0.409 0.829
v 0.095508 0.312486 0.040101 0.662 0.409 0.829
v 0.098078 0.311135 0.038571 0.662 0.409 0.829
v 0.100632 0.309994 0.036699 0.662 0.409 0.829
v 0.102737 0.309320 0.034351 0.662 0.409 0.829
v 0.102754 0.309994 0.031198 0.662 0.409 0.829
v 0.102120 0.311135 0.028095 0.662 0.409 0.829
v 0.101243 0.312486 0.025236 0.662 0.409 0.829
v 0.100277 0.313938 0.022657 0.662 0.409 0.829
v 0.099302 0.315434 0.020348 0.662 0.409 0.829
v 0.098363 0.316939 0.018281 0.662 0.409 0.829
v 0.097483 0.318437 0.016421 0.662 0.409 0.829
v 0.096674 0.319922 0.014730 0.662 0.409 0.829
v 0.095941 0.321399 0.013176 0.662 0.409 0.829
v 0.095282 0.322874 0.011727 0.662 0.409 0.829
v 0.094696 0.324361 0.010355 0.662 0.409 0.829
v 0.094176 0.325877 0.009038 0.662 0.409 0.829
v 0.093718 0.327442 0.007755 0.662 0.409 0.829
v 0.093313 0.329077 0.006491 0.662 0.409 0.829
v 0.092954 0.330809 0.005233 0.662 0.409 0.829
v 0.092629 0.332664 0.003974 0.662 0.409 0.829
v 0.092329 0.334674 0.002714 0.662 0.409 0.829
v 0.092037 0.336869 0.001458 0.662 0.409 0.829
v 0.091734 0.339277 0.000221 0.662 0.409 0.829
v 0.091394 0.341921 -0.000965 0.662 0.409 0.829
v 0.090981 0.344811 -0.002050 0.662 0.409 0.829
v 0.090443 0.347919 -0.002955 0.662 0.409 0.829
v 0.089690 0.351147 -0.003541 0.662 0.409 0.829
v 0.088507 0.354146 -0.003488 0.662 0.409 0.829
v 0.086178 0.355525 -0.001736 0.662 0.409 0.829
v 0.083754 0.356257 0.000482 0.662 0.409 0.829
v 0.081491 0.356642 0.002827 0.662 0.409 0.829
v 0.079451 0.356811 0.005173 0.662 0.409 0.829
v 0.077642 0.356844 0.007463 0.662 0.409 0.829
v 0.076050 0.356798 0.009673 0.662 0.409 0.829
v 0.074652 0.356712 0.011798 0.662 0.409 0.829
v 0.073421 0.356612 0.013846 0.662 0.409 0.829
v 0.072332 0.356517 0.015830 0.662 0.409 0.829
v 0.071363 0.356441 0.017771 0.662 0.409 0.829
v 0.070495 0.356393 0.019690 0.662 0.409 0.829
v 0.069712 0.356376 0.021610 0.662 0.409 0.829
v 0.069002 0.356393 0.023560 0.662 0.409 0.829
v 0.068357 0.356441 0.025564 0.662 0.409 0.829
v 0.067771 0.356517 0.027653 0.662 0.409 0.829
v 0.067245 0.356612 0.029854 0.662 0.409 0.829
v 0.066782 0.356712 0.032198 0.662 0.409 0.829
v 0.066391 0.356798 0.034712 0.662 0.409 0.829
v 0.066086 0.356844 0.037418 0.662 0.409 0.829
v 0.065888 0.356811 0.040330 0.662 0.409 0.829
v 0.065824 0.356642 0.043438 0.662 0.409 0.829
v 0.065926 0.356257 0.046695 0.662 0.409 0.829
v 0.066232 0.355525 0.049967 0.662 0.409 0.829
v 0.074808 0.332001 0.023576 0.662 0.409 0.829
f 608 536 537
f 608 537 536
f 608 537 538
f 608 538 537
f 608 538 539
f 608 539 538
f 608 539 540
f 608 540 539
f 608 540 541
f 608 541 540
f 608 541 542
f 608 542 541
f 608 542 543
f 608 543 542
f 608 543 544
f 608 544 543
f 608 544 545
f 608 545 544
f 608 545 546
f 608 546 545
f 608 546 547
f 608 547 546
f 608 547 548
f 608 548 547
f 608 548 549
f 608 549 548
f 608 549 550
f 608 550 549
f 608 550 551
f 608 551 550
f 608 551 552
f 608 552 551
f 608 552 553
f 608 553 552
f 608 553 554
f 608 554 553
f 608 554 555
f 608 555 554
f 608 555 556
f 608 556 555
f 608 556 557
f 608 557 556
f 608 557 558
f 608 558 557
f 608 558 559
f 608 559 558
f 608 559 560
f 608 560 559
f 608 560 561
f 608 561 560
f 608 561 562
f 608 562 561
f 608 562 563
f 608 563 562
f 608 563 564
f 608 564 563
f 608 564 565
f 608 565 564
f 608 565 566
f 608 566 565
f 608 566 567
f 608 567 566
f 608 567 568
f 608 568 567
f 608 568 569
f 608 569 568
f 608 569 570
f 608 570 569
f 608 570 571
f 608 571 570
f 608 571 572
f 608 572 571
f 608 572 573
f 608 573 572
f 608 573 574
f 608 574 573
f 608 574 575
f 608 575 574
f 608 575 576
f 608 576 575
f 608 576 577
f 608 577 576
f 608 577 578
f 608 578 577
f 608 578 579
f 608 579 578
f 608 579 580
f 608 580 579
f 608 580 581
f 608 581 580
f 608 581 582
f 608 582 581
f 608 582 583
f 608 583 582
f 608 583 584
f 608 584 583
f 608 584 585
f 608 585 584
f 608 585 586
f 608 586 585
f 608 586 587
f 608 587 586
f 608 587 588
f 608 588 587
f 608 588 589
f 608 589 588
f 608 589 590
f 608 590 589
f 608 590 591
f 608 591 590
f 608 591 592
f 608 592 591
f 608 592 593
f 608 593 592
f 608 593 594
f 608 594 593
f 608 594 595
f 608 595 594
f 608 595 596
f 608 596 595
f 608 596 597
f 608 597 596
f 608 597 598
f 608 598 597
f 608 598 599
f 608 599 598
f 608 599 600
f 608 600 599
f 608 600 601
f 608 601 600
f 608 601 602
f 608 602 601
f 608 602 603
f 608 603 602
f 608 603 604
f 608 604 603
f 608 604 605
f 608 605 604
f 608 605 606
f 608 606 605
f 608 606 607
f 608 607 606
f 608 607 536
f 608 536 607
v 0.083074 0.337317 0.026765 0.681 0.226 0.587
v 0.083074 0.337317 0.026765 0.681 0.226 0.587
v 0.083074 0.337317 0.026765 0.681 0.226 0.587
v 0.083074 0.337317 0.026765 0.681 0.226 0.587
v 0.083074 0.337317 0.026765 0.681 0.226 0.587
v 0.083074 0.337317 0.026765 0.681 0.226 0.587
v 0.083074 0.337317 0.026765 0.681 0.226 0.587
v 0.083074 0.337317 0.026765 0.681 0.226 0.587
v 0.083074 0.337317 0.026765 0.681 0.226 0.587
v 0.083074 0.337317 0.026765 0.681 0.226 0.587
v 0.084450 0.336640 0.020064 0.681 0.226 0.587
v 0.082082 0.340041 0.020532 0.681 0.226 0.587
v 0.079691 0.342143 0.023225 0.681 0.226 0.587
v 0.078190 0.342143 0.027116 0.681 0.226 0.587
v 0.078153 0.340041 0.030718 0.681 0.226 0.587
v 0.079593 0.336640 0.032655 0.681 0.226 0.587
v 0.081960 0.333239 0.032187 0.681 0.226 0.587
v 0.084351 0.331137 0.029493 0.681 0.226 0.587
v 0.085852 0.331137 0.025602 0.681 0.226 0.587
v 0.085890 0.333239 0.022001 0.681 0.226 0.587
v 0.083196 0.334868 0.015110 0.681 0.226 0.587
v 0.079365 0.340371 0.015867 0.681 0.226 0.587
v 0.075496 0.343772 0.020226 0.681 0.226 0.587
v 0.073067 0.343772 0.026521 0.681 0.226 0.587
v 0.073006 0.340371 0.032349 0.681 0.226 0.587
v 0.075336 0.334868 0.035483 0.681 0.226 0.587
v 0.079167 0.329365 0.034726 0.681 0.226 0.587
v 0.083036 0.325964 0.030367 0.681 0.226 0.587
v 0.085465 0.325964 0.024071 0.681 0.226 0.587
v 0.085526 0.329365 0.018244 0.681 0.226 0.587
v 0.079790 0.332678 0.013796 0.681 0.226 0.587
v 0.075959 0.338181 0.014553 0.681 0.226 0.587
v 0.072090 0.341582 0.018912 0.681 0.226 0.587
v 0.069662 0.341582 0.025207 0.681 0.226 0.587
v 0.069601 0.338181 0.031035 0.681 0.226 0.587
v 0.071931 0.332678 0.034169 0.681 0.226 0.587
v 0.075762 0.327175 0.033412 0.681 0.226 0.587
v 0.079630 0.323774 0.029053 0.681 0.226 0.587
v 0.082059 0.323774 0.022758 0.681 0.226 0.587
v 0.082120 0.327175 0.016930 0.681 0.226 0.587
v 0.075534 0.330906 0.016624 0.681 0.226 0.587
v 0.073166 0.334307 0.017092 0.681 0.226 0.587
v 0.070775 0.336409 0.019786 0.681 0.226 0.587
v 0.069274 0.336409 0.023677 0.681 0.226 0.587
v 0.069236 0.334307 0.027278 0.681 0.226 0.587
v 0.070676 0.330906 0.029215 0.681 0.226 0.587
v 0.073044 0.327505 0.028747 0.681 0.226 0.587
v 0.075435 0.325403 0.026053 0.681 0.226 0.587
v 0.076936 0.325403 0.022162 0.681 0.226 0.587
v 0.076974 0.327505 0.018561 0.681 0.226 0.587
v 0.072053 0.330229 0.022513 0.681 0.226 0.587
v 0.072053 0.330229 0.022513 0.681 0.226 0.587
v 0.072053 0.330229 0.022513 0.681 0.226 0.587
v 0.072053 0.330229 0.022513 0.681 0.226 0.587
v 0.072053 0.330229 0.022513 0.681 0.226 0.587
v 0.072053 0.330229 0.022513 0.681 0.226 0.587
v 0.072053 0.330229 0.022513 0.681 0.226 0.587
v 0.072053 0.330229 0.022513 0.681 0.226 0.587
v 0.072053 0.330229 0.022513 0.681 0.226 0.587
v 0.072053 0.330229 0.022513 0.681 0.226 0.587
f 609 620 610
f 609 619 620
f 610 621 611
f 610 620 621
f 611 622 612
f 611 621 622
f 612 623 613
f 612 622 623
f 613 624 614
f 613 623 624
f 614 625 615
f 614 624 625
f 615 626 616
f 615 625 626
f 616 627 617
f 616 626 627
f 617 628 618
f 617 627 628
f 618 619 609
f 618 628 619
f 619 630 620
f 619 629 630
f 620 631 621
f 620 630 631
f 621 632 622
f 621 631 632
f 622 633 623
f 622 632 633
f 623 634 624
f 623 633 634
f 624 635 625
f 624 634 635
f 625 636 626
f 625 635 636
f 626 637 627
f 626 636 637
f 627 638 628
f 627 637 638
f 628 629 619
f 628 638 629
f 629 640 630
f 629 639 640
f 630 641 631
f 630 640 641
f 631 642 632
f 631 641 642
f 632 643 633
f 632 642 643
f 633 644 634
f 633 643 644
f 634 645 635
f 634 644 645
f 635 646 636
f 635 645 646
f 636 647 637
f 636 646 647
f 637 648 638
f 637 647 648
f 638 639 629
f 638 648 639
f 639 650 640
f 639 649 650
f 640 651 641
f 640 650 651
f 641 652 642
f 641 651 652
f 642 653 643
f 642 652 653
f 643 654 644
f 643 653 654
f 644 655 645
f 644 654 655
f 645 656 646
f 645 655 656
f 646 657 647
f 646 656 657
f 647 658 648
f 647 657 658
f 648 649 639
f 648 658 649
f 649 660 650
f 649 659 660
f 650 661 651
f 650 660 661
f 651 662 652
f 651 661 662
f 652 663 653
f 652 662 663
f 653 664 654
f 653 663 664
f 654 665 655
f 654 664 665
f 655 666 656
f 655 665 666
f 656 667 657
f 656 666 667
f 657 668 658
f 657 667 668
f 658 659 649
f 658 668 659
v 0.106673 0.449400 0.036302 0.616 0.329 0.805
v 0.106847 0.448094 0.039389 0.616 0.329 0.805
v 0.107205 0.446038 0.042181 0.616 0.329 0.805
v 0.107690 0.443752 0.044644 0.616 0.329 0.805
v 0.108267 0.441426 0.046800 0.616 0.329 0.805
v 0.108910 0.439152 0.048688 0.616 0.329 0.805
v 0.109604 0.436973 0.050353 0.616 0.329 0.805
v 0.110338 0.434907 0.051839 0.616 0.329 0.805
v 0.111106 0.432954 0.053185 0.616 0.329 0.805
v 0.111908 0.431107 0.054426 0.616 0.329 0.805
v 0.112748 0.429351 0.055593 0.616 0.329 0.805
v 0.113631 0.427669 0.056712 0.616 0.329 0.805
v 0.114567 0.426040 0.057802 0.616 0.329 0.805
v 0.115569 0.424443 0.058882 0.616 0.329 0.805
v 0.116650 0.422855 0.059964 0.616 0.329 0.805
v 0.117828 0.421252 0.061057 0.616 0.329 0.805
v 0.119121 0.419609 0.062163 0.616 0.329 0.805
v 0.120552 0.417901 0.063280 0.616 0.329 0.805
v 0.122141 0.416099 0.064396 0.616 0.329 0.805
v 0.123908 0.414180 0.065489 0.616 0.329 0.805
v 0.125868 0.412118 0.066518 0.616 0.329 0.805
v 0.128023 0.409897 0.067421 0.616 0.329 0.805
v 0.130343 0.407513 0.068100 0.616 0.329 0.805
v 0.132733 0.404992 0.068387 0.616 0.329 0.805
v 0.134869 0.402452 0.067887 0.616 0.329 0.805
v 0.135482 0.400407 0.065297 0.616 0.329 0.805
v 0.135577 0.398780 0.062215 0.616 0.329 0.805
v 0.135451 0.397505 0.059071 0.616 0.329 0.805
v 0.135216 0.396524 0.056010 0.616 0.329 0.805
v 0.134937 0.395780 0.053091 0.616 0.329 0.805
v 0.134652 0.395226 0.050331 0.616 0.329 0.805
v 0.134387 0.394820 0.047728 0.616 0.329 0.805
v 0.134155 0.394528 0.045263 0.616 0.329 0.805
v 0.133967 0.394326 0.042914 0.616 0.329 0.805
v 0.133829 0.394195 0.040652 0.616 0.329 0.805
v 0.133744 0.394121 0.038450 0.616 0.329 0.805
v 0.133714 0.394097 0.036278 0.616 0.329 0.805
v 0.133740 0.394121 0.034106 0.616 0.329 0.805
v 0.133821 0.394195 0.031904 0.616 0.329 0.805
v 0.133956 0.394326 0.029642 0.616 0.329 0.805
v 0.134139 0.394528 0.027292 0.616 0.329 0.805
v 0.134367 0.394820 0.024827 0.616 0.329 0.805
v 0.134628 0.395226 0.022223 0.616 0.329 0.805
v 0.134907 0.395780 0.019464 0.616 0.329 0.805
v 0.135181 0.396524 0.016544 0.616 0.329 0.805
v 0.135411 0.397505 0.013482 0.616 0.329 0.805
v 0.135532 0.398780 0.010338 0.616 0.329 0.805
v 0.135431 0.400407 0.007257 0.616 0.329 0.805
v 0.134814 0.402452 0.004667 0.616 0.329 0.805
v 0.132677 0.404992 0.004171 0.616 0.329 0.805
v 0.130287 0.407513 0.004462 0.616 0.329 0.805
v 0.127968 0.409897 0.005145 0.616 0.329 0.805
v 0.125816 0.412118 0.006052 0.616 0.329 0.805
v 0.123857 0.414180 0.007085 0.616 0.329 0.805
v 0.122091 0.416099 0.008180 0.616 0.329 0.805
v 0.120505 0.417901 0.009299 0.616 0.329 0.805
v 0.119076 0.419609 0.010419 0.616 0.329 0.805
v 0.117784 0.421252 0.011527 0.616 0.329 0.805
v 0.116609 0.422855 0.012622 0.616 0.329 0.805
v 0.115529 0.424443 0.013706 0.616 0.329 0.805
v 0.114530 0.426040 0.014788 0.616 0.329 0.805
v 0.113596 0.427669 0.015880 0.616 0.329 0.805
v 0.112714 0.429351 0.017000 0.616 0.329 0.805
v 0.111877 0.431107 0.018168 0.616 0.329 0.805
v 0.111077 0.432954 0.019411 0.616 0.329 0.805
v 0.110311 0.434907 0.020758 0.616 0.329 0.805
v 0.109580 0.436973 0.022245 0.616 0.329 0.805
v 0.108889 0.439152 0.023912 0.616 0.329 0.805
v 0.108248 0.441426 0.025801 0.616 0.329 0.805
v 0.107675 0.443752 0.027958 0.616 0.329 0.805
v 0.107195 0.446038 0.030422 0.616 0.329 0.805
v 0.106841 0.448094 0.033214 0.616 0.329 0.805
v 0.115162 0.411927 0.036294 0.616 0.329 0.805
f 741 669 670
f 741 670 669
f 741 670 671
f 741 671 670
f 741 671 672
f 741 672 671
f 741 672 673
f 741 673 672
f 741 673 674
f 741 674 673
f 741 674 675
f 741 675 674
f 741 675 676
f 741 676 675
f 741 676 677
f 741 677 676
f 741 677 678
f 741 678 677
f 741 678 679
f 741 679 678
f 741 679 680
f 741 680 679
f 741 680 681
f 741 681 680
f 741 681 682
f 741 682 681
f 741 682 683
f 741 683 682
f 741 683 684
f 741 684 683
f 741 684 685
f 741 685 684
f 741 685 686
f 741 686 685
f 741 686 687
f 741 687 686
f 741 687 688
f 741 688 687
f 741 688 689
f 741 689 688
f 741 689 690
f 741 690 689
f 741 690 691
f 741 691 690
f 741 691 692
f 741 692 691
f 741 692 693
f 741 693 692
f 741 693 694
f 741 694 693
f 741 694 695
f 741 695 694
f 741 695 696
f 741 696 695
f 741 696 697
f 741 697 696
f 741 697 698
f 741 698 697
f 741 698 699
f 741 699 698
f 741 699 700
f 741 700 699
f 741 700 701
f 741 701 700
f 741 701 702
f 741 702 701
f 741 702 703
f 741 703 702
f 741 703 704
f 741 704 703
f 741 704 705
f 741 705 704
f 741 705 706
f 741 706 705
f 741 706 707
f 741 707 706
f 741 707 708
f 741 708 707
f 741 708 709
f 741 709 708
f 741 709 710
f 741 710 709
f 741 710 711
f 741 711 710
f 741 711 712
f 741 712 711
f 741 712 713
f 741 713 712
f 741 713 714
f 741 714 713
f 741 714 715
f 741 715 714
f 741 715 716
f 741 716 715
f 741 716 717
f 741 717 716
f 741 717 718
f 741 718 717
f 741 718 719
f 741 719 718
f 741 719 720
f 741 720 719
f 741 720 721
f 741 721 720
f 741 721 722
f 741 722 721
f 741 722 723
f 741 723 722
f 741 723 724
f 741 724 723
f 741 724 725
f 741 725 724
f 741 725 726
f 741 726 725
f 741 726 727
f 741 727 726
f 741 727 728
f 741 728 727
f 741 728 729
f 741 729 728
f 741 729 730
f 741 730 729
f 741 730 731
f 741 731 730
f 741 731 732
f 741 732 731
f 741 732 733
f 741 733 732
f 741 733 734
f 741 734 733
f 741 734 735
f 741 735 734
f 741 735 736
f 741 736 735
f 741 736 737
f 741 737 736
f 741 737 738
f 741 738 737
f 741 738 739
f 741 739 738
f 741 739 740
f 741 740 739
f 741 740 669
f 741 669 740
v 0.119210 0.432432 0.063159 0.662 0.409 0.829
v 0.120118 0.429728 0.063582 0.662 0.409 0.829
v 0.120848 0.426804 0.063335 0.662 0.409 0.829
v 0.121501 0.423987 0.062756 0.662 0.409 0.829
v 0.122113 0.421369 0.061986 0.662 0.409 0.829
v 0.122707 0.418973 0.061109 0.662 0.409 0.829
v 0.123296 0.416795 0.060179 0.662 0.409 0.829
v 0.123893 0.414813 0.059229 0.662 0.409 0.829
v 0.124507 0.413001 0.058278 0.662 0.409 0.829
v 0.125150 0.411331 0.057336 0.662 0.409 0.829
v 0.125830 0.409777 0.056406 0.662 0.409 0.829
v 0.126559 0.408314 0.055484 0.662 0.409 0.829
v 0.127346 0.406919 0.054565 0.662 0.409 0.829
v 0.128203 0.405572 0.053637 0.662 0.409 0.829
v 0.129141 0.404255 0.052685 0.662 0.409 0.829
v 0.130171 0.402954 0.051691 0.662 0.409 0.829
v 0.131307 0.401657 0.050634 0.662 0.409 0.829
v 0.132557 0.400357 0.049489 0.662 0.409 0.829
v 0.133931 0.399052 0.048224 0.662 0.409 0.829
v 0.135430 0.397747 0.046807 0.662 0.409 0.829
v 0.137046 0.396457 0.045200 0.662 0.409 0.829
v 0.138750 0.395210 0.043366 0.662 0.409 0.829
v 0.140476 0.394058 0.041270 0.662 0.409 0.829
v 0.142078 0.393091 0.038895 0.662 0.409 0.829
v 0.143129 0.392526 0.036270 0.662 0.409 0.829
v 0.142074 0.393091 0.033646 0.662 0.409 0.829
v 0.140468 0.394058 0.031274 0.662 0.409 0.829
v 0.138738 0.395210 0.029182 0.662 0.409 0.829
v 0.137030 0.396457 0.027351 0.662 0.409 0.829
v 0.135411 0.397747 0.025747 0.662 0.409 0.829
v 0.133910 0.399052 0.024332 0.662 0.409 0.829
v 0.132534 0.400357 0.023070 0.662 0.409 0.829
v 0.131282 0.401657 0.021926 0.662 0.409 0.829
v 0.130144 0.402954 0.020872 0.662 0.409 0.829
v 0.129112 0.404255 0.019880 0.662 0.409 0.829
v 0.128172 0.405572 0.018930 0.662 0.409 0.829
v 0.127314 0.406919 0.018003 0.662 0.409 0.829
v 0.126525 0.408314 0.017085 0.662 0.409 0.829
v 0.125795 0.409777 0.016165 0.662 0.409 0.829
v 0.125113 0.411331 0.015236 0.662 0.409 0.829
v 0.124469 0.413001 0.014295 0.662 0.409 0.829
v 0.123852 0.414813 0.013345 0.662 0.409 0.829
v 0.123254 0.416795 0.012395 0.662 0.409 0.829
v 0.122663 0.418973 0.011466 0.662 0.409 0.829
v 0.122068 0.421369 0.010591 0.662 0.409 0.829
v 0.121455 0.423987 0.009821 0.662 0.409 0.829
v 0.120801 0.426804 0.009244 0.662 0.409 0.829
v 0.120070 0.429728 0.008998 0.662 0.409 0.829
v 0.119163 0.432432 0.009422 0.662 0.409 0.829
v 0.117734 0.433626 0.011625 0.662 0.409 0.829
v 0.116351 0.434227 0.014245 0.662 0.409 0.829
v 0.115141 0.434520 0.016919 0.662 0.409 0.829
v 0.114123 0.434624 0.019522 0.662 0.409 0.829
v 0.113289 0.434613 0.022005 0.662 0.409 0.829
v 0.112619 0.434537 0.024351 0.662 0.409 0.829
v 0.112093 0.434431 0.026564 0.662 0.409 0.829
v 0.111690 0.434319 0.028660 0.662 0.409 0.829
v 0.111395 0.434218 0.030657 0.662 0.409 0.829
v 0.111193 0.434138 0.032580 0.662 0.409 0.829
v 0.111076 0.434088 0.034452 0.662 0.409 0.829
v 0.111039 0.434071 0.036298 0.662 0.409 0.829
v 0.111080 0.434088 0.038144 0.662 0.409 0.829
v 0.111199 0.434138 0.040016 0.662 0.409 0.829
v 0.111404 0.434218 0.041938 0.662 0.409 0.829
v 0.111703 0.434319 0.043935 0.662 0.409 0.829
v 0.112110 0.434431 0.046030 0.662 0.409 0.829
v 0.112640 0.434537 0.048243 0.662 0.409 0.829
v 0.113314 0.434613 0.050587 0.662 0.409 0.829
v 0.114152 0.434624 0.053068 0.662 0.409 0.829
v 0.115175 0.434520 0.055670 0.662 0.409 0.829
v 0.116390 0.434227 0.058341 0.662 0.409 0.829
v 0.117777 0.433626 0.060959 0.662 0.409 0.829
v 0.115162 0.411927 0.036294 0.662 0.409 0.829
f 814 742 743
f 814 743 742
f 814 743 744
f 814 744 743
f 814 744 745
f 814 745 744
f 814 745 746
f 814 746 745
f 814 746 747
f 814 747 746
f 814 747 748
f 814 748 747
f 814 748 749
f 814 749 748
f 814 749 750
f 814 750 749
f 814 750 751
f 814 751 750
f 814 751 752
f 814 752 751
f 814 752 753
f 814 753 752
f 814 753 754
f 814 754 753
f 814 754 755
f 814 755 754
f 814 755 756
f 814 756 755
f 814 756 757
f 814 757 756
f 814 757 758
f 814 758 757
f 814 758 759
f 814 759 758
f 814 759 760
f 814 760 759
f 814 760 761
f 814 761 760
f 814 761 762
f 814 762 761
f 814 762 763
f 814 763 762
f 814 763 764
f 814 764 763
f 814 764 765
f 814 765 764
f 814 765 766
f 814 766 765
f 814 766 767
f 814 767 766
f 814 767 768
f 814 768 767
f 814 768 769
f 814 769 768
f 814 769 770
f 814 770 769
f 814 770 771
f 814 771 770
f 814 771 772
f 814 772 771
f 814 772 773
f 814 773 772
f 814 773 774
f 814 774 773
f 814 774 775
f 814 775 774
f 814 775 776
f 814 776 775
f 814 776 777
f 814 777 776
f 814 777 778
f 814 778 777
f 814 778 779
f 814 779 778
f 814 779 780
f 814 780 779
f 814 780 781
f 814 781 780
f 814 781 782
f 814 782 781
f 814 782 783
f 814 783 782
f 814 783 784
f 814 784 783
f 814 784 785
f 814 785 784
f 814 785 786
f 814 786 785
f 814 786 787
f 814 787 786
f 814 787 788
f 814 788 787
f 814 788 789
f 814 789 788
f 814 789 790
f 814 790 789
f 814 790 791
f 814 791 790
f 814 791 792
f 814 792 791
f 814 792 793
f 814 793 792
f 814 793 794
f 814 794 793
f 814 794 795
f 814 795 794
f 814 795 796
f 814 796 795
f 814 796 797
f 814 797 796
f 814 797 798
f 814 798 797
f 814 798 799
f 814 799 798
f 814 799 800
f 814 800 799
f 814 800 801
f 814 801 800
f 814 801 802
f 814 802 801
f 814 802 803
f 814 803 802
f 814 803 804
f 814 804 803
f 814 804 805
f 814 805 804
f 814 805 806
f 814 806 805
f 814 806 807
f 814 807 806
f 814 807 808
f 814 808 807
f 814 808 809
f 814 809 808
f 814 809 810
f 814 810 809
f 814 810 811
f 814 811 810
f 814 811 812
f 814 812 811
f 814 812 813
f 814 813 812
f 814 813 742
f 814 742 813
v 0.123049 0.416660 0.036288 0.681 0.226 0.587
v 0.123049 0.416660 0.036288 0.681 0.226 0.587
v 0.123049 0.416660 0.036288 0.681 0.226 0.587
v 0.123049 0.416660 0.036288 0.681 0.226 0.587
v 0.123049 0.416660 0.036288 0.681 0.226 0.587
v 0.123049 0.416660 0.036288 0.681 0.226 0.587
v 0.123049 0.416660 0.036288 0.681 0.226 0.587
v 0.123049 0.416660 0.036288 0.681 0.226 0.587
v 0.123049 0.416660 0.036288 0.681 0.226 0.587
v 0.123049 0.416660 0.036288 0.681 0.226 0.587
v 0.122040 0.416057 0.030281 0.681 0.226 0.587
v 0.120224 0.419085 0.031430 0.681 0.226 0.587
v 0.119104 0.420956 0.034435 0.681 0.226 0.587
v 0.119108 0.420956 0.038147 0.681 0.226 0.587
v 0.120233 0.419085 0.041150 0.681 0.226 0.587
v 0.122051 0.416057 0.042296 0.681 0.226 0.587
v 0.123866 0.413029 0.041147 0.681 0.226 0.587
v 0.124986 0.411158 0.038142 0.681 0.226 0.587
v 0.124983 0.411158 0.034430 0.681 0.226 0.587
v 0.123858 0.413029 0.031427 0.681 0.226 0.587
v 0.119408 0.414480 0.026571 0.681 0.226 0.587
v 0.116470 0.419379 0.028430 0.681 0.226 0.587
v 0.114658 0.422406 0.033291 0.681 0.226 0.587
v 0.114663 0.422406 0.039298 0.681 0.226 0.587
v 0.116484 0.419379 0.044157 0.681 0.226 0.587
v 0.119425 0.414480 0.046011 0.681 0.226 0.587
v 0.122362 0.409581 0.044152 0.681 0.226 0.587
v 0.124175 0.406553 0.039290 0.681 0.226 0.587
v 0.124170 0.406553 0.033283 0.681 0.226 0.587
v 0.122349 0.409581 0.028425 0.681 0.226 0.587
v 0.116158 0.412530 0.026574 0.681 0.226 0.587
v 0.113220 0.417429 0.028433 0.681 0.226 0.587
v 0.111408 0.420456 0.033294 0.681 0.226 0.587
v 0.111413 0.420456 0.039301 0.681 0.226 0.587
v 0.113234 0.417429 0.044160 0.681 0.226 0.587
v 0.116175 0.412530 0.046013 0.681 0.226 0.587
v 0.119113 0.407631 0.044154 0.681 0.226 0.587
v 0.120925 0.404603 0.039293 0.681 0.226 0.587
v 0.120920 0.404603 0.033286 0.681 0.226 0.587
v 0.119099 0.407631 0.028428 0.681 0.226 0.587
v 0.113532 0.410952 0.030289 0.681 0.226 0.587
v 0.111717 0.413980 0.031438 0.681 0.226 0.587
v 0.110596 0.415851 0.034442 0.681 0.226 0.587
v 0.110600 0.415851 0.038155 0.681 0.226 0.587
v 0.111725 0.413980 0.041157 0.681 0.226 0.587
v 0.113543 0.410952 0.042303 0.681 0.226 0.587
v 0.115358 0.407925 0.041154 0.681 0.226 0.587
v 0.116478 0.406053 0.038150 0.681 0.226 0.587
v 0.116475 0.406053 0.034437 0.681 0.226 0.587
v 0.115350 0.407925 0.031434 0.681 0.226 0.587
v 0.112533 0.410350 0.036297 0.681 0.226 0.587
v 0.112533 0.410350 0.036297 0.681 0.226 0.587
v 0.112533 0.410350 0.036297 0.681 0.226 0.587
v 0.112533 0.410350 0.036297 0.681 0.226 0.587
v 0.112533 0.410350 0.036297 0.681 0.226 0.587
v 0.112533 0.410350 0.036297 0.681 0.226 0.587
v 0.112533 0.410350 0.036297 0.681 0.226 0.587
v 0.112533 0.410350 0.036297 0.681 0.226 0.587
v 0.112533 0.410350 0.036297 0.681 0.226 0.587
v 0.112533 0.410350 0.036297 0.681 0.226 0.587
f 815 826 816
f 815 825 826
f 816 827 817
f 816 826 827
f 817 828 818
f 817 827 828
f 818 829 819
f 818 828 829
f 819 830 820
f 819 829 830
f 820 831 821
f 820 830 831
f 821 832 822
f 821 831 832
f 822 833 823
f 822 832 833
f 823 834 824
f 823 833 834
f 824 825 815
f 824 834 825
f 825 836 826
f 825 835 836
f 826 837 827
f 826 836 837
f 827 838 828
f 827 837 838
f 828 839 829
f 828 838 839
f 829 840 830
f 829 839 840
f 830 841 831
f 830 840 841
f 831 842 832
f 831 841 842
f 832 843 833
f 832 842 843
f 833 844 834
f 833 843 844
f 834 835 825
f 834 844 835
f 835 846 836
f 835 845 846
f 836 847 837
f 836 846 847
f 837 848 838
f 837 847 848
f 838 849 839
f 838 848 849
f 839 850 840
f 839 849 850
f 840 851 841
f 840 850 851
f 841 852 842
f 841 851 852
f 842 853 843
f 842 852 853
f 843 854 844
f 843 853 854
f 844 845 835
f 844 854 845
f 845 856 846
f 845 855 856
f 846 857 847
f 846 856 857
f 847 858 848
f 847 857 858
f 848 859 849
f 848 858 859
f 849 860 850
f 849 859 860
f 850 861 851
f 850 860 861
f 851 862 852
f 851 861 862
f 852 863 853
f 852 862 863
f 853 864 854
f 853 863 864
f 854 855 845
f 854 864 855
f 855 866 856
f 855 865 866
f 856 867 857
f 856 866 867
f 857 868 858
f 857 867 868
f 858 869 859
f 858 868 869
f 859 870 860
f 859 869 870
f 860 871 861
f 860 870 871
f 861 872 862
f 861 871 872
f 862 873 863
f 862 872 873
f 863 874 864
f 863 873 874
f 864 865 855
f 864 874 865
v 0.160075 0.525467 0.047140 0.616 0.329 0.805
v 0.158119 0.524289 0.049014 0.616 0.329 0.805
v 0.156448 0.522439 0.050818 0.616 0.329 0.805
v 0.155065 0.520387 0.052512 0.616 0.329 0.805
v 0.153941 0.518303 0.054091 0.616 0.329 0.805
v 0.153038 0.516269 0.055565 0.616 0.329 0.805
v 0.152316 0.514326 0.056949 0.616 0.329 0.805
v 0.151741 0.512487 0.058262 0.616 0.329 0.805
v 0.151284 0.510753 0.059522 0.616 0.329 0.805
v 0.150921 0.509117 0.060751 0.616 0.329 0.805
v 0.150634 0.507566 0.061967 0.616 0.329 0.805
v 0.150410 0.506084 0.063188 0.616 0.329 0.805
v 0.150240 0.504653 0.064435 0.616 0.329 0.805
v 0.150120 0.503255 0.065723 0.616 0.329 0.805
v 0.150050 0.501870 0.067070 0.616 0.329 0.805
v 0.150035 0.500477 0.068493 0.616 0.329 0.805
v 0.150084 0.499053 0.070006 0.616 0.329 0.805
v 0.150212 0.497577 0.071621 0.616 0.329 0.805
v 0.150439 0.496026 0.073346 0.616 0.329 0.805
v 0.150793 0.494376 0.075181 0.616 0.329 0.805
v 0.151306 0.492608 0.077114 0.616 0.329 0.805
v 0.152022 0.490705 0.079106 0.616 0.329 0.805
v 0.152985 0.488664 0.081080 0.616 0.329 0.805
v 0.154244 0.486501 0.082871 0.616 0.329 0.805
v 0.155854 0.484307 0.084019 0.616 0.329 0.805
v 0.157870 0.482481 0.082868 0.616 0.329 0.805
v 0.159889 0.481007 0.081073 0.616 0.329 0.805
v 0.161819 0.479841 0.079096 0.616 0.329 0.805
v 0.163636 0.478936 0.077101 0.616 0.329 0.805
v 0.165340 0.478245 0.075166 0.616 0.329 0.805
v 0.166943 0.477726 0.073329 0.616 0.329 0.805
v 0.168461 0.477342 0.071602 0.616 0.329 0.805
v 0.169914 0.477064 0.069985 0.616 0.329 0.805
v 0.171324 0.476870 0.068470 0.616 0.329 0.805
v 0.172710 0.476743 0.067046 0.616 0.329 0.805
v 0.174094 0.476672 0.065697 0.616 0.329 0.805
v 0.175496 0.476648 0.064408 0.616 0.329 0.805
v 0.176935 0.476672 0.063160 0.616 0.329 0.805
v 0.178431 0.476743 0.061937 0.616 0.329 0.805
v 0.180002 0.476870 0.060720 0.616 0.329 0.805
v 0.181666 0.477064 0.059490 0.616 0.329 0.805
v 0.183436 0.477342 0.058228 0.616 0.329 0.805
v 0.185323 0.477726 0.056914 0.616 0.329 0.805
v 0.187330 0.478245 0.055529 0.616 0.329 0.805
v 0.189444 0.478936 0.054054 0.616 0.329 0.805
v 0.191631 0.479841 0.052473 0.616 0.329 0.805
v 0.193813 0.481007 0.050778 0.616 0.329 0.805
v 0.195824 0.482481 0.048974 0.616 0.329 0.805
v 0.197195 0.484307 0.047101 0.616 0.329 0.805
v 0.196236 0.486501 0.045372 0.616 0.329 0.805
v 0.194598 0.488664 0.043918 0.616 0.329 0.805
v 0.192745 0.490705 0.042739 0.616 0.329 0.805
v 0.190846 0.492608 0.041804 0.616 0.329 0.805
v 0.188984 0.494376 0.041076 0.616 0.329 0.805
v 0.187200 0.496026 0.040518 0.616 0.329 0.805
v 0.185511 0.497577 0.040098 0.616 0.329 0.805
v 0.183921 0.499053 0.039789 0.616 0.329 0.805
v 0.182423 0.500477 0.039569 0.616 0.329 0.805
v 0.181008 0.501870 0.039424 0.616 0.329 0.805
v 0.179661 0.503255 0.039341 0.616 0.329 0.805
v 0.178368 0.504653 0.039316 0.616 0.329 0.805
v 0.177110 0.506084 0.039344 0.616 0.329 0.805
v 0.175871 0.507566 0.039429 0.616 0.329 0.805
v 0.174631 0.509117 0.039577 0.616 0.329 0.805
v 0.173369 0.510753 0.039800 0.616 0.329 0.805
v 0.172065 0.512487 0.040112 0.616 0.329 0.805
v 0.170696 0.514326 0.040535 0.616 0.329 0.805
v 0.169240 0.516269 0.041097 0.616 0.329 0.805
v 0.167673 0.518303 0.041828 0.616 0.329 0.805
v 0.165977 0.520387 0.042767 0.616 0.329 0.805
v 0.164138 0.522439 0.043950 0.616 0.329 0.805
v 0.162157 0.524289 0.045408 0.616 0.329 0.805
v 0.164188 0.491853 0.051745 0.616 0.329 0.805
f 947 875 876
f 947 876 875
f 947 876 877
f 947 877 876
f 947 877 878
f 947 878 877
f 947 878 879
f 947 879 878
f 947 879 880
f 947 880 879
f 947 880 881
f 947 881 880
f 947 881 882
f 947 882 881
f 947 882 883
f 947 883 882
f 947 883 884
f 947 884 883
f 947 884 885
f 947 885 884
f 947 885 886
f 947 886 885
f 947 886 887
f 947 887 886
f 947 887 888
f 947 888 887
f 947 888 889
f 947 889 888
f 947 889 890
f 947 890 889
f 947 890 891
f 947 891 890
f 947 891 892
f 947 892 891
f 947 892 893
f 947 893 892
f 947 893 894
f 947 894 893
f 947 894 895
f 947 895 894
f 947 895 896
f 947 896 895
f 947 896 897
f 947 897 896
f 947 897 898
f 947 898 897
f 947 898 899
f 947 899 898
f 947 899 900
f 947 900 899
f 947 900 901
f 947 901 900
f 947 901 902
f 947 902 901
f 947 902 903
f 947 903 902
f 947 903 904
f 947 904 903
f 947 904 905
f 947 905 904
f 947 905 906
f 947 906 905
f 947 906 907
f 947 907 906
f 947 907 908
f 947 908 907
f 947 908 909
f 947 909 908
f 947 909 910
f 947 910 909
f 947 910 911
f 947 911 910
f 947 911 912
f 947 912 911
f 947 912 913
f 947 913 912
f 947 913 914
f 947 914 913
f 947 914 915
f 947 915 914
f 947 915 916
f 947 916 915
f 947 916 917
f 947 917 916
f 947 917 918
f 947 918 917
f 947 918 919
f 947 919 918
f 947 919 920
f 947 920 919
f 947 920 921
f 947 921 920
f 947 921 922
f 947 922 921
f 947 922 923
f 947 923 922
f 947 923 924
f 947 924 923
f 947 924 925
f 947 925 924
f 947 925 926
f 947 926 925
f 947 926 927
f 947 927 926
f 947 927 928
f 947 928 927
f 947 928 929
f 947 929 928
f 947 929 930
f 947 930 929
f 947 930 931
f 947 931 930
f 947 931 932
f 947 932 931
f 947 932 933
f 947 933 932
f 947 933 934
f 947 934 933
f 947 934 935
f 947 935 934
f 947 935 936
f 947 936 935
f 947 936 937
f 947 937 936
f 947 937 938
f 947 938 937
f 947 938 939
f 947 939 938
f 947 939 940
f 947 940 939
f 947 940 941
f 947 941 940
f 947 941 942
f 947 942 941
f 947 942 943
f 947 943 942
f 947 943 944
f 947 944 943
f 947 944 945
f 947 945 944
f 947 945 946
f 947 946 945
f 947 946 875
f 947 875 946
v 0.149954 0.510718 0.071171 0.662 0.409 0.829
v 0.150164 0.508308 0.071963 0.662 0.409 0.829
v 0.150689 0.505690 0.072228 0.662 0.409 0.829
v 0.151386 0.503163 0.072247 0.662 0.409 0.829
v 0.152190 0.500816 0.072134 0.662 0.409 0.829
v 0.153059 0.498670 0.071954 0.662 0.409 0.829
v 0.153968 0.496721 0.071748 0.662 0.409 0.829
v 0.154902 0.494951 0.071544 0.662 0.409 0.829
v 0.155855 0.493337 0.071360 0.662 0.409 0.829
v 0.156825 0.491853 0.071207 0.662 0.409 0.829
v 0.157815 0.490478 0.071092 0.662 0.409 0.829
v 0.158834 0.489187 0.071022 0.662 0.409 0.829
v 0.159892 0.487961 0.070997 0.662 0.409 0.829
v 0.161003 0.486783 0.071019 0.662 0.409 0.829
v 0.162182 0.485636 0.071088 0.662 0.409 0.829
v 0.163448 0.484509 0.071200 0.662 0.409 0.829
v 0.164824 0.483392 0.071350 0.662 0.409 0.829
v 0.166332 0.482278 0.071532 0.662 0.409 0.829
v 0.167996 0.481166 0.071734 0.662 0.409 0.829
v 0.169842 0.480061 0.071936 0.662 0.409 0.829
v 0.171887 0.478975 0.072113 0.662 0.409 0.829
v 0.174139 0.477934 0.072223 0.662 0.409 0.829
v 0.176580 0.476981 0.072201 0.662 0.409 0.829
v 0.179131 0.476189 0.071933 0.662 0.409 0.829
v 0.181505 0.475732 0.071137 0.662 0.409 0.829
v 0.182563 0.476189 0.068868 0.662 0.409 0.829
v 0.183117 0.476981 0.066364 0.662 0.409 0.829
v 0.183414 0.477934 0.063941 0.662 0.409 0.829
v 0.183559 0.478975 0.061690 0.662 0.409 0.829
v 0.183613 0.480061 0.059638 0.662 0.409 0.829
v 0.183620 0.481166 0.057782 0.662 0.409 0.829
v 0.183607 0.482278 0.056105 0.662 0.409 0.829
v 0.183596 0.483392 0.054586 0.662 0.409 0.829
v 0.183602 0.484509 0.053202 0.662 0.409 0.829
v 0.183633 0.485636 0.051931 0.662 0.409 0.829
v 0.183698 0.486783 0.050752 0.662 0.409 0.829
v 0.183801 0.487961 0.049646 0.662 0.409 0.829
v 0.183945 0.489187 0.048598 0.662 0.409 0.829
v 0.184130 0.490478 0.047593 0.662 0.409 0.829
v 0.184355 0.491853 0.046622 0.662 0.409 0.829
v 0.184616 0.493337 0.045675 0.662 0.409 0.829
v 0.184907 0.494951 0.044750 0.662 0.409 0.829
v 0.185215 0.496721 0.043844 0.662 0.409 0.829
v 0.185522 0.498670 0.042964 0.662 0.409 0.829
v 0.185798 0.500816 0.042121 0.662 0.409 0.829
v 0.186001 0.503163 0.041335 0.662 0.409 0.829
v 0.186061 0.505690 0.040640 0.662 0.409 0.829
v 0.185857 0.508308 0.040089 0.662 0.409 0.829
v 0.185093 0.510718 0.039790 0.662 0.409 0.829
v 0.182775 0.511726 0.040092 0.662 0.409 0.829
v 0.180192 0.512198 0.040646 0.662 0.409 0.829
v 0.177673 0.512398 0.041344 0.662 0.409 0.829
v 0.175318 0.512437 0.042132 0.662 0.409 0.829
v 0.173156 0.512381 0.042977 0.662 0.409 0.829
v 0.171187 0.512276 0.043859 0.662 0.409 0.829
v 0.169395 0.512151 0.044766 0.662 0.409 0.829
v 0.167760 0.512027 0.045693 0.662 0.409 0.829
v 0.166259 0.511919 0.046641 0.662 0.409 0.829
v 0.164868 0.511835 0.047613 0.662 0.409 0.829
v 0.163566 0.511783 0.048619 0.662 0.409 0.829
v 0.162333 0.511765 0.049669 0.662 0.409 0.829
v 0.161151 0.511783 0.050776 0.662 0.409 0.829
v 0.160006 0.511835 0.051956 0.662 0.409 0.829
v 0.158882 0.511919 0.053228 0.662 0.409 0.829
v 0.157772 0.512027 0.054613 0.662 0.409 0.829
v 0.156666 0.512151 0.056133 0.662 0.409 0.829
v 0.155563 0.512276 0.057811 0.662 0.409 0.829
v 0.154465 0.512381 0.059669 0.662 0.409 0.829
v 0.153382 0.512437 0.061722 0.662 0.409 0.829
v 0.152333 0.512398 0.063973 0.662 0.409 0.829
v 0.151357 0.512198 0.066397 0.662 0.409 0.829
v 0.150514 0.511726 0.068901 0.662 0.409 0.829
v 0.164188 0.491853 0.051745 0.662 0.409 0.829
f 1020 948 949
f 1020 949 948
f 1020 949 950
f 1020 950 949
f 1020 950 951
f 1020 951 950
f 1020 951 952
f 1020 952 951
f 1020 952 953
f 1020 953 952
f 1020 953 954
f 1020 954 953
f 1020 954 955
f 1020 955 954
f 1020 955 956
f 1020 956 955
f 1020 956 957
f 1020 957 956
f 1020 957 958
f 1020 958 957
f 1020 958 959
f 1020 959 958
f 1020 959 960
f 1020 960 959
f 1020 960 961
f 1020 961 960
f 1020 961 962
f 1020 962 961
f 1020 962 963
f 1020 963 962
f 1020 963 964
f 1020 964 963
f 1020 964 965
f 1020 965 964
f 1020 965 966
f 1020 966 965
f 1020 966 967
f 1020 967 966
f 1020 967 968
f 1020 968 967
f 1020 968 969
f 1020 969 968
f 1020 969 970
f 1020 970 969
f 1020 970 971
f 1020 971 970
f 1020 971 972
f 1020 972 971
f 1020 972 973
f 1020 973 972
f 1020 973 974
f 1020 974 973
f 1020 974 975
f 1020 975 974
f 1020 975 976
f 1020 976 975
f 1020 976 977
f 1020 977 976
f 1020 977 978
f 1020 978 977
f 1020 978 979
f 1020 979 978
f 1020 979 980
f 1020 980 979
f 1020 980 981
f 1020 981 980
f 1020 981 982
f 1020 982 981
f 1020 982 983
f 1020 983 982
f 1020 983 984
f 1020 984 983
f 1020 984 985
f 1020 985 984
f 1020 985 986
f 1020 986 985
f 1020 986 987
f 1020 987 986
f 1020 987 988
f 1020 988 987
f 1020 988 989
f 1020 989 988
f 1020 989 990
f 1020 990 989
f 1020 990 991
f 1020 991 990
f 1020 991 992
f 1020 992 991
f 1020 992 993
f 1020 993 992
f 1020 993 994
f 1020 994 993
f 1020 994 995
f 1020 995 994
f 1020 995 996
f 1020 996 995
f 1020 996 997
f 1020 997 996
f 1020 997 998
f 1020 998 997
f 1020 998 999
f 1020 999 998
f 1020 999 1000
f 1020 1000 999
f 1020 1000 1001
f 1020 1001 1000
f 1020 1001 1002
f 1020 1002 1001
f 1020 1002 1003
f 1020 1003 1002
f 1020 1003 1004
f 1020 1004 1003
f 1020 1004 1005
f 1020 1005 1004
f 1020 1005 1006
f 1020 1006 1005
f 1020 1006 1007
f 1020 1007 1006
f 1020 1007 1008
f 1020 1008 1007
f 1020 1008 1009
f 1020 1009 1008
f 1020 1009 1010
f 1020 1010 1009
f 1020 1010 1011
f 1020 1011 1010
f 1020 1011 1012
f 1020 1012 1011
f 1020 1012 1013
f 1020 1013 1012
f 1020 1013 1014
f 1020 1014 1013
f 1020 1014 1015
f 1020 1015 1014
f 1020 1015 1016
f 1020 1016 1015
f 1020 1016 1017
f 1020 1017 1016
f 1020 1017 1018
f 1020 1018 1017
f 1020 1018 1019
f 1020 1019 1018
f 1020 1019 948
f 1020 948 1019
v 0.168794 0.496002 0.056903 0.681 0.226 0.587
v 0.168794 0.496002 0.056903 0.681 0.226 0.587
v 0.168794 0.496002 0.056903 0.681 0.226 0.587
v 0.168794 0.496002 0.056903 0.681 0.226 0.587
v 0.168794 0.496002 0.056903 0.681 0.226 0.587
v 0.168794 0.496002 0.056903 0.681 0.226 0.587
v 0.168794 0.496002 0.056903 0.681 0.226 0.587
v 0.168794 0.496002 0.056903 0.681 0.226 0.587
v 0.168794 0.496002 0.056903 0.681 0.226 0.587
v 0.168794 0.496002 0.056903 0.681 0.226 0.587
v 0.172135 0.495474 0.052738 0.681 0.226 0.587
v 0.170324 0.498128 0.052220 0.681 0.226 0.587
v 0.167704 0.499769 0.053240 0.681 0.226 0.587
v 0.165277 0.499769 0.055408 0.681 0.226 0.587
v 0.163968 0.498128 0.057896 0.681 0.226 0.587
v 0.164279 0.495474 0.059754 0.681 0.226 0.587
v 0.166090 0.492820 0.060272 0.681 0.226 0.587
v 0.168710 0.491179 0.059252 0.681 0.226 0.587
v 0.171138 0.491179 0.057084 0.681 0.226 0.587
v 0.172446 0.492820 0.054596 0.681 0.226 0.587
v 0.173028 0.494091 0.048851 0.681 0.226 0.587
v 0.170097 0.498386 0.048013 0.681 0.226 0.587
v 0.165859 0.501041 0.049663 0.681 0.226 0.587
v 0.161930 0.501041 0.053171 0.681 0.226 0.587
v 0.159813 0.498386 0.057197 0.681 0.226 0.587
v 0.160316 0.494091 0.060203 0.681 0.226 0.587
v 0.163246 0.489796 0.061041 0.681 0.226 0.587
v 0.167485 0.487142 0.059391 0.681 0.226 0.587
v 0.171413 0.487142 0.055883 0.681 0.226 0.587
v 0.173530 0.489796 0.051857 0.681 0.226 0.587
v 0.171130 0.492382 0.046726 0.681 0.226 0.587
v 0.168200 0.496677 0.045888 0.681 0.226 0.587
v 0.163961 0.499331 0.047538 0.681 0.226 0.587
v 0.160033 0.499331 0.051046 0.681 0.226 0.587
v 0.157916 0.496677 0.055072 0.681 0.226 0.587
v 0.158418 0.492382 0.058078 0.681 0.226 0.587
v 0.161349 0.488087 0.058916 0.681 0.226 0.587
v 0.165587 0.485432 0.057266 0.681 0.226 0.587
v 0.169516 0.485432 0.053758 0.681 0.226 0.587
v 0.171633 0.488087 0.049732 0.681 0.226 0.587
v 0.167167 0.490999 0.047175 0.681 0.226 0.587
v 0.165356 0.493653 0.046657 0.681 0.226 0.587
v 0.162736 0.495294 0.047677 0.681 0.226 0.587
v 0.160308 0.495294 0.049845 0.681 0.226 0.587
v 0.159000 0.493653 0.052333 0.681 0.226 0.587
v 0.159311 0.490999 0.054191 0.681 0.226 0.587
v 0.161122 0.488344 0.054709 0.681 0.226 0.587
v 0.163741 0.486704 0.053689 0.681 0.226 0.587
v 0.166169 0.486704 0.051521 0.681 0.226 0.587
v 0.167478 0.488344 0.049033 0.681 0.226 0.587
v 0.162652 0.490470 0.050026 0.681 0.226 0.587
v 0.162652 0.490470 0.050026 0.681 0.226 0.587
v 0.162652 0.490470 0.050026 0.681 0.226 0.587
v 0.162652 0.490470 0.050026 0.681 0.226 0.587
v 0.162652 0.490470 0.050026 0.681 0.226 0.587
v 0.162652 0.490470 0.050026 0.681 0.226 0.587
v 0.162652 0.490470 0.050026 0.681 0.226 0.587
v 0.162652 0.490470 0.050026 0.681 0.226 0.587
v 0.162652 0.490470 0.050026 0.681 0.226 0.587
v 0.162652 0.490470 0.050026 0.681 0.226 0.587
f 1021 1032 1022
f 1021 1031 1032
f 1022 1033 1023
f 1022 1032 1033
f 1023 1034 1024
f 1023 1033 1034
f 1024 1035 1025
f 1024 1034 1035
f 1025 1036 1026
f 1025 1035 1036
f 1026 1037 1027
f 1026 1036 1037
f 1027 1038 1028
f 1027 1037 1038
f 1028 1039 1029
f 1028 1038 1039
f 1029 1040 1030
f 1029 1039 1040
f 1030 1031 1021
f 1030 1040 1031
f 1031 1042 1032
f 1031 1041 1042
f 1032 1043 1033
f 1032 1042 1043
f 1033 1044 1034
f 1033 1043 1044
f 1034 1045 1035
f 1034 1044 1045
f 1035 1046 1036
f 1035 1045 1046
f 1036 1047 1037
f 1036 1046 1047
f 1037 1048 1038
f 1037 1047 1048
f 1038 1049 1039
f 1038 1048 1049
f 1039 1050 1040
f 1039 1049 1050
f 1040 1041 1031
f 1040 1050 1041
f 1041 1052 1042
f 1041 1051 1052
f 1042 1053 1043
f 1042 1052 1053
f 1043 1054 1044
f 1043 1053 1054
f 1044 1055 1045
f 1044 1054 1055
f 1045 1056 1046
f 1045 1055 1056
f 1046 1057 1047
f 1046 1056 1057
f 1047 1058 1048
f 1047 1057 1058
f 1048 1059 1049
f 1048 1058 1059
f 1049 1060 1050
f 1049 1059 1060
f 1050 1051 1041
f 1050 1060 1051
f 1051 1062 1052
f 1051 1061 1062
f 1052 1063 1053
f 1052 1062 1063
f 1053 1064 1054
f 1053 1063 1064
f 1054 1065 1055
f 1054 1064 1065
f 1055 1066 1056
f 1055 1065 1066
f 1056 1067 1057
f 1056 1066 1067
f 1057 1068 1058
f 1057 1067 1068
f 1058 1069 1059
f 1058 1068 1069
f 1059 1070 1060
f 1059 1069 1070
f 1060 1061 1051
f 1060 1070 1061
f 1061 1072 1062
f 1061 1071 1072
f 1062 1073 1063
f 1062 1072 1073
f 1063 1074 1064
f 1063 1073 1074
f 1064 1075 1065
f 1064 1074 1075
f 1065 1076 1066
f 1065 1075 1076
f 1066 1077 1067
f 1066 1076 1077
f 1067 1078 1068
f 1067 1077 1078
f 1068 1079 1069
f 1068 1078 1079
f 1069 1080 1070
f 1069 1079 1080
f 1070 1071 1061
f 1070 1080 1071
v 0.000000 0.010000 -0.000000 0.180 0.500 0.200
v 0.010818 0.001977 0.009477 0.180 0.500 0.200
v 0.021427 -0.006045 0.018944 0.180 0.500 0.200
v 0.031620 -0.014068 0.028389 0.180 0.500 0.200
v 0.041199 -0.022091 0.037805 0.180 0.500 0.200
v 0.049978 -0.030114 0.047180 0.180 0.500 0.200
v 0.057784 -0.038136 0.056507 0.180 0.500 0.200
v 0.064464 -0.046159 0.065778 0.180 0.500 0.200
v 0.069885 -0.054182 0.074986 0.180 0.500 0.200
v 0.073938 -0.062205 0.084126 0.180 0.500 0.200
v 0.076540 -0.070227 0.093193 0.180 0.500 0.200
v 0.077633 -0.078250 0.102186 0.180 0.500 0.200
v 0.077188 -0.086273 0.111101 0.180 0.500 0.200
v 0.075207 -0.094296 0.119941 0.180 0.500 0.200
v 0.071717 -0.102318 0.128705 0.180 0.500 0.200
v 0.066775 -0.110341 0.137396 0.180 0.500 0.200
v 0.060465 -0.118364 0.146020 0.180 0.500 0.200
v 0.052897 -0.126387 0.154581 0.180 0.500 0.200
v 0.044202 -0.134409 0.163085 0.180 0.500 0.200
v 0.034535 -0.142432 0.171541 0.180 0.500 0.200
v 0.024067 -0.150455 0.179958 0.180 0.500 0.200
v 0.012986 -0.158478 0.188343 0.180 0.500 0.200
v 0.001488 -0.166500 0.196709 0.180 0.500 0.200
v -0.010219 -0.174523 0.205063 0.180 0.500 0.200
v -0.021037 -0.166500 0.195586 0.180 0.500 0.200
v -0.031646 -0.158478 0.186119 0.180 0.500 0.200
v -0.041838 -0.150455 0.176674 0.180 0.500 0.200
v -0.051418 -0.142432 0.167258 0.180 0.500 0.200
v -0.060196 -0.134409 0.157883 0.180 0.500 0.200
v -0.068002 -0.126387 0.148556 0.180 0.500 0.200
v -0.074682 -0.118364 0.139285 0.180 0.500 0.200
v -0.080104 -0.110341 0.130077 0.180 0.500 0.200
v -0.084157 -0.102318 0.120937 0.180 0.500 0.200
v -0.086758 -0.094296 0.111870 0.180 0.500 0.200
v -0.087851 -0.086273 0.102877 0.180 0.500 0.200
v -0.087407 -0.078250 0.093962 0.180 0.500 0.200
v -0.085425 -0.070227 0.085122 0.180 0.500 0.200
v -0.081935 -0.062205 0.076358 0.180 0.500 0.200
v -0.076994 -0.054182 0.067667 0.180 0.500 0.200
v -0.070684 -0.046159 0.059043 0.180 0.500 0.200
v -0.063115 -0.038136 0.050482 0.180 0.500 0.200
v -0.054420 -0.030114 0.041978 0.180 0.500 0.200
v -0.044753 -0.022091 0.033522 0.180 0.500 0.200
v -0.034286 -0.014068 0.025105 0.180 0.500 0.200
v -0.023204 -0.006045 0.016720 0.180 0.500 0.200
v -0.011707 0.001977 0.008355 0.180 0.500 0.200
f 1081 1082 1083
f 1081 1083 1082
f 1081 1083 1084
f 1081 1084 1083
f 1081 1084 1085
f 1081 1085 1084
f 1081 1085 1086
f 1081 1086 1085
f 1081 1086 1087
f 1081 1087 1086
f 1081 1087 1088
f 1081 1088 1087
f 1081 1088 1089
f 1081 1089 1088
f 1081 1089 1090
f 1081 1090 1089
f 1081 1090 1091
f 1081 1091 1090
f 1081 1091 1092
f 1081 1092 1091
f 1081 1092 1093
f 1081 1093 1092
f 1081 1093 1094
f 1081 1094 1093
f 1081 1094 1095
f 1081 1095 1094
f 1081 1095 1096
f 1081 1096 1095
f 1081 1096 1097
f 1081 1097 1096
f 1081 1097 1098
f 1081 1098 1097
f 1081 1098 1099
f 1081 1099 1098
f 1081 1099 1100
f 1081 1100 1099
f 1081 1100 1101
f 1081 1101 1100
f 1081 1101 1102
f 1081 1102 1101
f 1081 1102 1103
f 1081 1103 1102
f 1081 1103 1104
f 1081 1104 1103
f 1081 1104 1105
f 1081 1105 1104
f 1081 1105 1106
f 1081 1106 1105
f 1081 1106 1107
f 1081 1107 1106
f 1081 1107 1108
f 1081 1108 1107
f 1081 1108 1109
f 1081 1109 1108
f 1081 1109 1110
f 1081 1110 1109
f 1081 1110 1111
f 1081 1111 1110
f 1081 1111 1112
f 1081 1112 1111
f 1081 1112 1113
f 1081 1113 1112
f 1081 1113 1114
f 1081 1114 1113
f 1081 1114 1115
f 1081 1115 1114
f 1081 1115 1116
f 1081 1116 1115
f 1081 1116 1117
f 1081 1117 1116
f 1081 1117 1118
f 1081 1118 1117
f 1081 1118 1119
f 1081 1119 1118
f 1081 1119 1120
f 1081 1120 1119
f 1081 1120 1121
f 1081 1121 1120
f 1081 1121 1122
f 1081 1122 1121
f 1081 1122 1123
f 1081 1123 1122
f 1081 1123 1124
f 1081 1124 1123
f 1081 1124 1125
f 1081 1125 1124
f 1081 1125 1126
f 1081 1126 1125
v 0.000000 0.010000 -0.000000 0.180 0.500 0.200
v 0.005294 0.003338 -0.013540 0.180 0.500 0.200
v 0.010656 -0.003323 -0.026888 0.180 0.500 0.200
v 0.016155 -0.009985 -0.039856 0.180 0.500 0.200
v 0.021857 -0.016647 -0.052262 0.180 0.500 0.200
v 0.027821 -0.023308 -0.063936 0.180 0.500 0.200
v 0.034106 -0.029970 -0.074720 0.180 0.500 0.200
v 0.040761 -0.036632 -0.084474 0.180 0.500 0.200
v 0.047830 -0.043294 -0.093076 0.180 0.500 0.200
v 0.055349 -0.049955 -0.100427 0.180 0.500 0.200
v 0.063346 -0.056617 -0.106449 0.180 0.500 0.200
v 0.071839 -0.063279 -0.111091 0.180 0.500 0.200
v 0.080838 -0.069940 -0.114327 0.180 0.500 0.200
v 0.090342 -0.076602 -0.116157 0.180 0.500 0.200
v 0.100343 -0.083264 -0.116606 0.180 0.500 0.200
v 0.110822 -0.089925 -0.115727 0.180 0.500 0.200
v 0.121750 -0.096587 -0.113597 0.180 0.500 0.200
v 0.133093 -0.103249 -0.110315 0.180 0.500 0.200
v 0.144806 -0.109911 -0.106003 0.180 0.500 0.200
v 0.156839 -0.116572 -0.100801 0.180 0.500 0.200
v 0.169135 -0.123234 -0.094867 0.180 0.500 0.200
v 0.181634 -0.129896 -0.088371 0.180 0.500 0.200
v 0.194269 -0.136557 -0.081495 0.180 0.500 0.200
v 0.206973 -0.143219 -0.074426 0.180 0.500 0.200
v 0.201679 -0.136557 -0.060886 0.180 0.500 0.200
v 0.196317 -0.129896 -0.047538 0.180 0.500 0.200
v 0.190817 -0.123234 -0.034571 0.180 0.500 0.200
v 0.185116 -0.116572 -0.022164 0.180 0.500 0.200
v 0.179152 -0.109911 -0.010491 0.180 0.500 0.200
v 0.172867 -0.103249 0.000293 0.180 0.500 0.200
v 0.166212 -0.096587 0.010047 0.180 0.500 0.200
v 0.159143 -0.089925 0.018650 0.180 0.500 0.200
v 0.151624 -0.083264 0.026000 0.180 0.500 0.200
v 0.143627 -0.076602 0.032023 0.180 0.500 0.200
v 0.135134 -0.069940 0.036665 0.180 0.500 0.200
v 0.126135 -0.063279 0.039901 0.180 0.500 0.200
v 0.116630 -0.056617 0.041730 0.180 0.500 0.200
v 0.106630 -0.049955 0.042180 0.180 0.500 0.200
v 0.096151 -0.043294 0.041301 0.180 0.500 0.200
v 0.085223 -0.036632 0.039171 0.180 0.500 0.200
v 0.073880 -0.029970 0.035889 0.180 0.500 0.200
v 0.062167 -0.023308 0.031576 0.180 0.500 0.200
v 0.050134 -0.016647 0.026374 0.180 0.500 0.200
v 0.037838 -0.009985 0.020440 0.180 0.500 0.200
v 0.025339 -0.003323 0.013944 0.180 0.500 0.200
v 0.012704 0.003338 0.007068 0.180 0.500 0.200
f 1127 1128 1129
f 1127 1129 1128
f 1127 1129 1130
f 1127 1130 1129
f 1127 1130 1131
f 1127 1131 1130
f 1127 1131 1132
f 1127 1132 1131
f 1127 1132 1133
f 1127 1133 1132
f 1127 1133 1134
f 1127 1134 1133
f 1127 1134 1135
f 1127 1135 1134
f 1127 1135 1136
f 1127 1136 1135
f 1127 1136 1137
f 1127 1137 1136
f 1127 1137 1138
f 1127 1138 1137
f 1127 1138 1139
f 1127 1139 1138
f 1127 1139 1140
f 1127 1140 1139
f 1127 1140 1141
f 1127 1141 1140
f 1127 1141 1142
f 1127 1142 1141
f 1127 1142 1143
f 1127 1143 1142
f 1127 1143 1144
f 1127 1144 1143
f 1127 1144 1145
f 1127 1145 1144
f 1127 1145 1146
f 1127 1146 1145
f 1127 1146 1147
f 1127 1147 1146
f 1127 1147 1148
f 1127 1148 1147
f 1127 1148 1149
f 1127 1149 1148
f 1127 1149 1150
f 1127 1150 1149
f 1127 1150 1151
f 1127 1151 1150
f 1127 1151 1152
f 1127 1152 1151
f 1127 1152 1153
f 1127 1153 1152
f 1127 1153 1154
f 1127 1154 1153
f 1127 1154 1155
f 1127 1155 1154
f 1127 1155 1156
f 1127 1156 1155
f 1127 1156 1157
f 1127 1157 1156
f 1127 1157 1158
f 1127 1158 1157
f 1127 1158 1159
f 1127 1159 1158
f 1127 1159 1160
f 1127 1160 1159
f 1127 1160 1161
f 1127 1161 1160
f 1127 1161 1162
f 1127 1162 1161
f 1127 1162 1163
f 1127 1163 1162
f 1127 1163 1164
f 1127 1164 1163
f 1127 1164 1165
f 1127 1165 1164
f 1127 1165 1166
f 1127 1166 1165
f 1127 1166 1167
f 1127 1167 1166
f 1127 1167 1168
f 1127 1168 1167
f 1127 1168 1169
f 1127 1169 1168
f 1127 1169 1170
f 1127 1170 1169
f 1127 1170 1171
f 1127 1171 1170
f 1127 1171 1172
f 1127 1172 1171
v 0.000000 0.010000 -0.000000 0.180 0.500 0.200
v -0.013737 0.001299 0.005959 0.180 0.500 0.200
v -0.027366 -0.007403 0.011725 0.180 0.500 0.200
v -0.040784 -0.016104 0.017108 0.180 0.500 0.200
v -0.053890 -0.024805 0.021925 0.180 0.500 0.200
v -0.066588 -0.033506 0.026004 0.180 0.500 0.200
v -0.078791 -0.042208 0.029187 0.180 0.500 0.200
v -0.090421 -0.050909 0.031332 0.180 0.500 0.200
v -0.101409 -0.059610 0.032317 0.180 0.500 0.200
v -0.111702 -0.068312 0.032041 0.180 0.500 0.200
v -0.121255 -0.077013 0.030428 0.180 0.500 0.200
v -0.130040 -0.085714 0.027424 0.180 0.500 0.200
v -0.138043 -0.094415 0.023003 0.180 0.500 0.200
v -0.145263 -0.103117 0.017165 0.180 0.500 0.200
v -0.151715 -0.111818 0.009938 0.180 0.500 0.200
v -0.157428 -0.120519 0.001372 0.180 0.500 0.200
v -0.162444 -0.129221 -0.008455 0.180 0.500 0.200
v -0.166820 -0.137922 -0.019441 0.180 0.500 0.200
v -0.170622 -0.146623 -0.031466 0.180 0.500 0.200
v -0.173929 -0.155325 -0.044386 0.180 0.500 0.200
v -0.176829 -0.164026 -0.058045 0.180 0.500 0.200
v -0.179416 -0.172727 -0.072269 0.180 0.500 0.200
v -0.181791 -0.181428 -0.086876 0.180 0.500 0.200
v -0.184060 -0.190130 -0.101677 0.180 0.500 0.200
v -0.170323 -0.181428 -0.107636 0.180 0.500 0.200
v -0.156694 -0.172727 -0.113401 0.180 0.500 0.200
v -0.143276 -0.164026 -0.118784 0.180 0.500 0.200
v -0.130170 -0.155325 -0.123601 0.180 0.500 0.200
v -0.117472 -0.146623 -0.127680 0.180 0.500 0.200
v -0.105269 -0.137922 -0.130863 0.180 0.500 0.200
v -0.093639 -0.129221 -0.133008 0.180 0.500 0.200
v -0.082650 -0.120519 -0.133994 0.180 0.500 0.200
v -0.072358 -0.111818 -0.133718 0.180 0.500 0.200
v -0.062805 -0.103117 -0.132104 0.180 0.500 0.200
v -0.054020 -0.094415 -0.129100 0.180 0.500 0.200
v -0.046017 -0.085714 -0.124679 0.180 0.500 0.200
v -0.038797 -0.077013 -0.118842 0.180 0.500 0.200
v -0.032345 -0.068312 -0.111614 0.180 0.500 0.200
v -0.026632 -0.059610 -0.103049 0.180 0.500 0.200
v -0.021616 -0.050909 -0.093222 0.180 0.500 0.200
v -0.017240 -0.042208 -0.082235 0.180 0.500 0.200
v -0.013438 -0.033506 -0.070211 0.180 0.500 0.200
v -0.010131 -0.024805 -0.057290 0.180 0.500 0.200
v -0.007231 -0.016104 -0.043632 0.180 0.500 0.200
v -0.004644 -0.007403 -0.029408 0.180 0.500 0.200
v -0.002269 0.001299 -0.014801 0.180 0.500 0.200
f 1173 1174 1175
f 1173 1175 1174
f 1173 1175 1176
f 1173 1176 1175
f 1173 1176 1177
f 1173 1177 1176
f 1173 1177 1178
f 1173 1178 1177
f 1173 1178 1179
f 1173 1179 1178
f 1173 1179 1180
f 1173 1180 1179
f 1173 1180 1181
f 1173 1181 1180
f 1173 1181 1182
f 1173 1182 1181
f 1173 1182 1183
f 1173 1183 1182
f 1173 1183 1184
f 1173 1184 1183
f 1173 1184 1185
f 1173 1185 1184
f 1173 1185 1186
f 1173 1186 1185
f 1173 1186 1187
f 1173 1187 1186
f 1173 1187 1188
f 1173 1188 1187
f 1173 1188 1189
f 1173 1189 1188
f 1173 1189 1190
f 1173 1190 1189
f 1173 1190 1191
f 1173 1191 1190
f 1173 1191 1192
f 1173 1192 1191
f 1173 1192 1193
f 1173 1193 1192
f 1173 1193 1194
f 1173 1194 1193
f 1173 1194 1195
f 1173 1195 1194
f 1173 1195 1196
f 1173 1196 1195
f 1173 1196 1197
f 1173 1197 1196
f 1173 1197 1198
f 1173 1198 1197
f 1173 1198 1199
f 1173 1199 1198
f 1173 1199 1200
f 1173 1200 1199
f 1173 1200 1201
f 1173 1201 1200
f 1173 1201 1202
f 1173 1202 1201
f 1173 1202 1203
f 1173 1203 1202
f 1173 1203 1204
f 1173 1204 1203
f 1173 1204 1205
f 1173 1205 1204
f 1173 1205 1206
f 1173 1206 1205
f 1173 1206 1207
f 1173 1207 1206
f 1173 1207 1208
f 1173 1208 1207
f 1173 1208 1209
f 1173 1209 1208
f 1173 1209 1210
f 1173 1210 1209
f 1173 1210 1211
f 1173 1211 1210
f 1173 1211 1212
f 1173 1212 1211
f 1173 1212 1213
f 1173 1213 1212
f 1173 1213 1214
f 1173 1214 1213
f 1173 1214 1215
f 1173 1215 1214
f 1173 1215 1216
f 1173 1216 1215
f 1173 1216 1217
f 1173 1217 1216
f 1173 1217 1218
f 1173 1218 1217
