o mesh
v 0.180216 9.874833 -2.559784
v 0.199268 9.873799 -2.526800
v 0.161165 9.874245 -2.526789
v 0.175137 9.440971 -2.570453
v 0.194188 9.439937 -2.537468
v 0.156086 9.440383 -2.537457
f 1 2 5
f 1 5 4
f 2 3 6
f 2 6 5
f 3 1 4
f 3 4 6
v 0.167752 9.440430 -2.539001
v 0.178204 9.450792 -2.553677
v 0.179455 9.430068 -2.552700
v -0.253065 9.399538 -2.867565
v -0.242613 9.409900 -2.882241
v -0.241362 9.389176 -2.881264
f 7 8 11
f 7 11 10
f 8 9 12
f 8 12 11
f 9 7 10
f 9 10 12
v 0.175137 9.435251 -2.569841
v 0.193162 9.449019 -2.539222
v 0.157112 9.437021 -2.536315
v 0.337320 8.974932 -2.458331
v 0.355345 8.988700 -2.427711
v 0.319295 8.976702 -2.424805
f 13 14 17
f 13 17 16
f 14 15 18
f 14 18 17
f 15 13 16
f 15 16 18
v 0.337320 8.980833 -2.458937
v 0.356198 8.982324 -2.425870
v 0.318442 8.977176 -2.426039
v 0.401144 8.513262 -2.474289
v 0.420021 8.514754 -2.441222
v 0.382266 8.509606 -2.441391
f 19 20 23
f 19 23 22
f 20 21 24
f 20 24 23
f 21 19 22
f 21 22 24
v 0.389189 8.512541 -2.453344
v 0.407251 8.522825 -2.453269
v 0.406991 8.502256 -2.450288
v 0.417553 8.465083 -2.778334
v 0.435615 8.475367 -2.778259
v 0.435354 8.454799 -2.775279
f 25 26 29
f 25 29 28
f 26 27 30
f 26 30 29
f 27 25 28
f 27 28 30
v 0.401144 8.511975 -2.474293
v 0.420007 8.510147 -2.441235
v 0.382280 8.515499 -2.441373
v 0.327515 7.993286 -2.460959
v 0.346378 7.991458 -2.427901
v 0.308651 7.996810 -2.428039
f 31 32 35
f 31 35 34
f 32 33 36
f 32 36 35
f 33 31 34
f 33 34 36
v 0.327515 7.999057 -2.460341
v 0.346128 7.995199 -2.427317
v 0.308901 7.987299 -2.429240
v 0.439000 7.503127 -2.581112
v 0.457613 7.499269 -2.548087
v 0.420386 7.491369 -2.550011
f 37 38 41
f 37 41 40
f 38 39 42
f 38 42 41
f 39 37 40
f 39 40 42
v 0.419764 7.497921 -2.549060
v 0.440778 7.508025 -2.579199
v 0.456456 7.487818 -2.550951
v 0.316688 7.158337 -2.734771
v 0.337703 7.168440 -2.764910
v 0.353381 7.148234 -2.736662
f 43 44 47
f 43 47 46
f 44 45 48
f 44 48 47
f 45 43 46
f 45 46 48
v 0.335924 7.166695 -2.765798
v 0.354962 7.153469 -2.735555
v 0.316886 7.154847 -2.734990
v 0.320670 6.805940 -2.913965
v 0.339708 6.792714 -2.883723
v 0.301632 6.794092 -2.883157
f 49 50 53
f 49 53 52
f 50 51 54
f 50 54 53
f 51 49 52
f 51 52 54
v 0.320670 6.788875 -2.913819
v 0.339716 6.801486 -2.883320
v 0.301624 6.802385 -2.883707
v 0.311703 6.468391 -2.775702
v 0.330749 6.481002 -2.745203
v 0.292657 6.481901 -2.745590
f 55 56 59
f 55 59 58
f 56 57 60
f 56 60 59
f 57 55 58
f 57 58 60
v 0.311703 6.473467 -2.777197
v 0.330746 6.478305 -2.744547
v 0.292661 6.479522 -2.744751
v 0.296866 6.021771 -2.701622
v 0.315909 6.026608 -2.668972
v 0.277823 6.027825 -2.669176
f 61 62 65
f 61 65 64
f 62 63 66
f 62 66 65
f 63 61 64
f 63 64 66
v 0.296866 6.023732 -2.701860
v 0.315241 6.031256 -2.669337
v 0.278491 6.021216 -2.668573
v 0.425127 5.556927 -2.666347
v 0.443502 5.564450 -2.633824
v 0.406752 5.554411 -2.633060
f 67 68 71
f 67 71 70
f 68 69 72
f 68 72 71
f 69 67 70
f 69 70 72
v -1.707681 9.869180 2.743527
v -1.688649 9.877698 2.775420
v -1.726714 9.875999 2.775826
v -1.684293 9.373335 2.861993
v -1.665260 9.381852 2.893887
v -1.703325 9.380154 2.894293
f 73 74 77
f 73 77 76
f 74 75 78
f 74 78 77
f 75 73 76
f 75 76 78
v -1.684293 9.376642 2.861465
v -1.665581 9.375774 2.894648
v -1.703004 9.382925 2.894060
v -1.789018 8.832281 2.906271
v -1.770306 8.831412 2.939454
v -1.807729 8.838563 2.938865
f 79 80 83
f 79 83 82
f 80 81 84
f 80 84 83
f 81 79 82
f 81 82 84
v -1.789018 8.828636 2.906882
v -1.769965 8.836755 2.938868
v -1.808070 8.836866 2.938839
v -1.790127 8.472584 2.997917
v -1.771074 8.480703 3.029903
v -1.809179 8.480814 3.029875
f 85 86 89
f 85 89 88
f 86 87 90
f 86 90 89
f 87 85 88
f 87 88 90
v -1.790127 8.479176 2.997261
v -1.772247 8.470891 3.029875
v -1.808006 8.484035 3.030558
v -1.947675 8.051710 2.975045
v -1.929795 8.043425 3.007659
v -1.965555 8.056569 3.008342
f 91 92 95
f 91 95 94
f 92 93 96
f 92 96 95
f 93 91 94
f 93 94 96
v -1.947675 8.048422 2.975120
v -1.929113 8.055917 3.007544
v -1.966237 8.047365 3.008382
v -1.830795 7.545865 3.024376
v -1.812233 7.553360 3.056799
v -1.849357 7.544808 3.057638
f 97 98 101
f 97 101 100
f 98 99 102
f 98 102 101
f 99 97 100
f 99 100 102
v -1.829226 7.548011 3.034374
v -1.827201 7.557419 3.052797
v -1.835957 7.538604 3.051642
v -1.555573 7.418444 3.070464
v -1.553549 7.427851 3.088887
v -1.562305 7.409037 3.087732
f 103 104 107
f 103 107 106
f 104 105 108
f 104 108 107
f 105 103 106
f 105 106 108
v -1.914277 9.870491 -0.895936
v -1.895256 9.875107 -0.863242
v -1.933298 9.877279 -0.863623
v -1.939555 9.441073 -0.820608
v -1.920535 9.445688 -0.787913
v -1.958576 9.447861 -0.788294
f 109 110 113
f 109 113 112
f 110 111 114
f 110 114 113
f 111 109 112
f 111 112 114
v -1.933672 9.444874 -0.809397
v -1.939761 9.454781 -0.792170
v -1.945233 9.434967 -0.795248
v -1.499106 9.286881 -0.564929
v -1.505195 9.296787 -0.547702
v -1.510667 9.276974 -0.550780
f 115 116 119
f 115 119 118
f 116 117 120
f 116 120 119
f 117 115 118
f 117 118 120
v -1.939555 9.444729 -0.820938
v -1.920529 9.445951 -0.787945
v -1.958581 9.443942 -0.787932
v -1.920150 9.077191 -0.818518
v -1.901124 9.078413 -0.785525
v -1.939176 9.076404 -0.785512
f 121 122 125
f 121 125 124
f 122 123 126
f 122 126 125
f 123 121 124
f 123 124 126
v -1.920150 9.083764 -0.817558
v -1.901139 9.072924 -0.786364
v -1.939162 9.075319 -0.785633
v -1.952167 8.618781 -0.959629
v -1.933156 8.607941 -0.928435
v -1.971179 8.610336 -0.927703
f 127 128 131
f 127 131 130
f 128 129 132
f 128 132 131
f 129 127 130
f 129 130 132
v -1.962736 8.612353 -0.957884
v -1.932135 8.621311 -0.937020
v -1.961631 8.603395 -0.920863
v -1.763497 8.185915 -1.067020
v -1.732896 8.194873 -1.046156
v -1.762391 8.176957 -1.029999
f 133 134 137
f 133 137 136
f 134 135 138
f 134 138 137
f 135 133 136
f 135 136 138
v -1.741161 8.185915 -1.045374
v -1.759054 8.196234 -1.047688
v -1.758570 8.175597 -1.050113
v -1.804508 8.147163 -0.728278
v -1.822401 8.157481 -0.730592
v -1.821917 8.136844 -0.733017
f 139 140 143
f 139 143 142
f 140 141 144
f 140 144 143
f 141 139 142
f 141 142 144
v -1.752928 8.179303 -1.068707
v -1.733969 8.191018 -1.037800
v -1.771887 8.187426 -1.036667
v -1.704736 7.716564 -0.922874
v -1.685777 7.728280 -0.891966
v -1.723695 7.724687 -0.890834
f 145 146 149
f 145 149 148
f 146 147 150
f 146 150 149
f 147 145 148
f 147 148 150
v -1.712215 7.723177 -0.892507
v -1.703799 7.732932 -0.908816
v -1.698194 7.713422 -0.904350
v -2.194528 7.496621 -1.276895
v -2.186112 7.506376 -1.293204
v -2.180507 7.486866 -1.288738
f 151 152 155
f 151 155 154
f 152 153 156
f 152 156 155
f 153 151 154
f 153 154 156
v -1.704736 7.726243 -0.923676
v -1.685865 7.724247 -0.890632
v -1.723606 7.719041 -0.891365
v -1.636743 7.242861 -0.991705
v -1.617873 7.240865 -0.958660
v -1.655614 7.235660 -0.959393
f 157 158 161
f 157 161 160
f 158 159 162
f 158 162 161
f 159 157 160
f 159 160 162
v -1.636743 7.243649 -0.991579
v -1.617753 7.239385 -0.958820
v -1.655733 7.236352 -0.959359
v -1.599035 6.785973 -1.072998
v -1.580044 6.781710 -1.040239
v -1.618025 6.778677 -1.040778
f 163 164 167
f 163 167 166
f 164 165 168
f 164 168 167
f 165 163 166
f 165 166 168
v -1.605659 6.782120 -1.061344
v -1.593417 6.792138 -1.047862
v -1.598028 6.772102 -1.044809
v -1.193837 6.645802 -1.333990
v -1.181595 6.655820 -1.320507
v -1.186206 6.635785 -1.317454
f 169 170 173
f 169 173 172
f 170 171 174
f 170 174 173
f 171 169 172
f 171 172 174
v -1.599035 6.780224 -1.073257
v -1.580969 6.777039 -1.039858
v -1.617101 6.789096 -1.040901
v -1.729689 6.391617 -1.039650
v -1.711623 6.388432 -1.006251
v -1.747755 6.400489 -1.007294
f 175 176 179
f 175 179 178
f 176 177 180
f 176 180 179
f 177 175 178
f 177 178 180
v -1.733801 6.393513 -0.996119
v -1.743944 6.402858 -1.031641
v -1.711323 6.384168 -1.025435
v -1.915760 6.064437 -1.030734
v -1.925904 6.073782 -1.066255
v -1.893282 6.055092 -1.060049
f 181 182 185
f 181 185 184
f 182 183 186
f 182 186 185
f 183 181 184
f 183 184 186
v -2.661522 9.873063 3.077948
v -2.643256 9.869496 3.111199
v -2.679788 9.880317 3.110594
v -2.788010 9.447344 3.101762
v -2.769744 9.443777 3.135014
v -2.806275 9.454597 3.134408
f 187 188 191
f 187 191 190
f 188 189 192
f 188 192 191
f 189 187 190
f 189 190 192
v -2.788010 9.449008 3.101732
v -2.769081 9.446183 3.134683
v -2.806938 9.450526 3.134769
v -2.832720 9.059370 3.094013
v -2.813792 9.056546 3.126964
v -2.851649 9.060888 3.127050
f 193 194 197
f 193 197 196
f 194 195 198
f 194 198 197
f 195 193 196
f 195 196 198
v -2.832720 9.056434 3.094151
v -2.814773 9.053833 3.127664
v -2.850668 9.066538 3.126211
v -3.008397 8.566493 3.150214
v -2.990449 8.563892 3.183726
v -3.026345 8.576597 3.182273
f 199 200 203
f 199 203 202
f 200 201 204
f 200 204 203
f 201 199 202
f 201 202 204
v -3.008397 8.577223 3.151668
v -2.989562 8.562216 3.181198
v -3.027232 8.567542 3.183346
v -3.063084 8.244531 3.017486
v -3.044249 8.229525 3.047017
v -3.081919 8.234850 3.049165
f 205 206 209
f 205 209 208
f 206 207 210
f 206 210 209
f 207 205 208
f 207 208 210
v -3.063084 8.241311 3.016467
v -3.044561 8.238141 3.049616
v -3.081607 8.229454 3.047585
v -2.929515 7.701207 2.890164
v -2.910992 7.698036 2.923313
v -2.948038 7.689349 2.921282
f 211 212 215
f 211 215 214
f 212 213 216
f 212 216 215
f 213 211 214
f 213 214 216
v -2.929515 7.690360 2.890375
v -2.911149 7.704005 2.920847
v -2.947880 7.694227 2.923538
v -2.794474 7.218816 3.020143
v -2.776109 7.232461 3.050615
v -2.812839 7.222682 3.053306
f 217 218 221
f 217 221 220
f 218 219 222
f 218 222 221
f 219 217 220
f 219 220 222
v -2.794474 7.227690 3.019565
v -2.775728 7.226509 3.052719
v -2.813219 7.219760 3.051779
v -2.698476 6.704550 2.946655
v -2.679731 6.703370 2.979809
v -2.717222 6.696621 2.978869
f 223 224 227
f 223 227 226
f 224 225 228
f 224 228 227
f 225 223 226
f 225 226 228
v -2.706798 6.701514 2.959798
v -2.693099 6.711768 2.971596
v -2.695533 6.691260 2.973939
v -2.246806 6.596367 2.517096
v -2.233107 6.606621 2.528895
v -2.235541 6.586113 2.531237
f 229 230 233
f 229 233 232
f 230 231 234
f 230 234 233
f 231 229 232
f 231 232 234
v -2.698476 6.704127 2.946600
v -2.679628 6.697446 2.979036
v -2.717325 6.702968 2.979697
v -2.762337 6.274374 2.895187
v -2.743489 6.267693 2.927623
v -2.781186 6.273215 2.928284
f 235 236 239
f 235 239 238
f 236 237 240
f 236 240 239
f 237 235 238
f 237 238 240
v -2.757855 6.271761 2.905900
v -2.760195 6.281016 2.924362
v -2.768962 6.262505 2.920832
v -2.419452 6.085507 3.042162
v -2.421791 6.094762 3.060625
v -2.430558 6.076251 3.057094
f 241 242 245
f 241 245 244
f 242 243 246
f 242 246 245
f 243 241 244
f 243 244 246
v 4.015365 9.879441 0.733600
v 4.034418 9.871643 0.765665
v 3.996313 9.871793 0.765702
v 4.013749 9.492401 0.640432
v 4.032802 9.484603 0.672497
v 3.994697 9.484753 0.672534
f 247 248 251
f 247 251 250
f 248 249 252
f 248 252 251
f 249 247 250
f 249 250 252
v 4.013749 9.487039 0.639822
v 4.032797 9.487781 0.672816
v 3.994701 9.486936 0.672824
v 4.020992 9.160431 0.642980
v 4.040040 9.161172 0.675974
v 4.001944 9.160327 0.675983
f 253 254 257
f 253 257 256
f 254 255 258
f 254 258 257
f 255 253 256
f 255 256 258
v 4.029157 9.160643 0.673773
v 4.016188 9.170989 0.661252
v 4.017630 9.150298 0.659913
v 3.777871 9.128031 0.907098
v 3.764902 9.138377 0.894577
v 3.766344 9.117685 0.893238
f 259 260 263
f 259 263 262
f 260 261 264
f 260 264 263
f 261 259 262
f 261 262 264
v 4.041349 9.160643 0.673320
v 4.004404 9.169432 0.676451
v 4.017223 9.151855 0.645166
v 3.975183 8.824959 0.834803
v 3.938238 8.833747 0.837933
v 3.951056 8.816171 0.806648
f 265 266 269
f 265 269 268
f 266 267 270
f 266 270 269
f 267 265 268
f 267 268 270
v 3.948048 8.824959 0.836364
v 3.955051 8.834618 0.819345
v 3.961378 8.815300 0.823675
v 3.503738 8.611250 0.532274
v 3.510740 8.620910 0.515255
v 3.517068 8.601591 0.519586
f 271 272 275
f 271 275 274
f 272 273 276
f 272 276 275
f 273 271 274
f 273 274 276
v 3.954826 8.816954 0.805970
v 3.973749 8.826898 0.837514
v 3.935902 8.831026 0.835901
v 3.893317 8.327700 0.997101
v 3.912240 8.337644 1.028645
v 3.874394 8.341772 1.027032
f 277 278 281
f 277 281 280
f 278 279 282
f 278 282 281
f 279 277 280
f 279 280 282
v 3.903463 8.335705 1.037114
v 3.873857 8.345709 1.015310
v 3.902632 8.325701 1.000354
v 3.706787 7.976418 1.139335
v 3.677180 7.986422 1.117531
v 3.705956 7.966414 1.102575
f 283 284 287
f 283 287 286
f 284 285 288
f 284 288 287
f 285 283 286
f 285 286 288
v 3.703140 7.976418 1.140832
v 3.677121 7.984960 1.114336
v 3.709662 7.967876 1.104274
v 3.503273 7.559297 1.202632
v 3.477254 7.567838 1.176136
v 3.509795 7.550755 1.166074
f 289 290 293
f 289 293 292
f 290 291 294
f 290 294 293
f 291 289 292
f 291 292 294
v 3.496774 7.551223 1.161149
v 3.515752 7.561762 1.192467
v 3.477797 7.564906 1.191226
v 3.454904 7.113842 1.333716
v 3.473881 7.124381 1.365034
v 3.435926 7.127525 1.363793
f 295 296 299
f 295 299 298
f 296 297 300
f 296 300 299
f 297 295 298
f 297 298 300
v 3.451094 7.121916 1.365560
v 3.450880 7.130217 1.346507
v 3.462737 7.113614 1.350476
v 3.148339 6.881475 1.264210
v 3.148125 6.889776 1.245156
v 3.159982 6.873173 1.249126
f 301 302 305
f 301 305 304
f 302 303 306
f 302 306 305
f 303 301 304
f 303 304 306
v 3.454904 7.127058 1.332790
v 3.473881 7.120985 1.365271
v 3.435926 7.117704 1.364482
v 3.497036 6.666301 1.222029
v 3.516013 6.660228 1.254510
v 3.478058 6.656947 1.253721
f 307 308 311
f 307 311 310
f 308 309 312
f 308 312 311
f 309 307 310
f 309 310 312
v 3.497036 6.666072 1.221976
v 3.515709 6.662390 1.254987
v 3.478363 6.655014 1.253297
v 3.591067 6.213703 1.118326
v 3.609740 6.210021 1.151338
v 3.572394 6.202645 1.149648
f 313 314 317
f 313 317 316
f 314 315 318
f 314 318 317
f 315 313 316
f 315 316 318
v -1.707681 9.876918 2.743082
v -1.689435 9.878426 2.776501
v -1.725927 9.867533 2.775191
v -1.551282 9.360445 2.680996
v -1.533036 9.361953 2.714415
v -1.569528 9.351060 2.713105
f 319 320 323
f 319 323 322
f 320 321 324
f 320 324 323
f 321 319 322
f 321 322 324
v -1.551282 9.366674 2.682699
v -1.532231 9.353173 2.712812
v -1.570333 9.353611 2.713005
v -1.557480 8.914992 2.484113
v -1.538429 8.901491 2.514225
v -1.576531 8.901929 2.514418
f 325 326 329
f 325 329 328
f 326 327 330
f 326 330 329
f 327 325 328
f 327 328 330
v -1.557480 8.898128 2.483762
v -1.538576 8.907930 2.515362
v -1.576384 8.912354 2.513632
v -1.616178 8.462985 2.653857
v -1.597274 8.472787 2.685457
v -1.635081 8.477211 2.683728
f 331 332 335
f 331 335 334
f 332 333 336
f 332 336 335
f 333 331 334
f 333 334 336
v -1.616178 8.470400 2.662362
v -1.605813 8.472056 2.680302
v -1.626542 8.470528 2.680378
v -1.603910 8.304412 2.670601
v -1.593546 8.306069 2.688541
v -1.614274 8.304541 2.688617
f 337 338 341
f 337 341 340
f 338 339 342
f 338 342 341
f 339 337 340
f 339 340 342
v -1.616178 8.462982 2.653858
v -1.597610 8.478981 2.683035
v -1.634745 8.471021 2.686148
v -1.536341 8.139947 2.780191
v -1.517774 8.155946 2.809368
v -1.554908 8.147986 2.812481
f 343 344 347
f 343 347 346
f 344 345 348
f 344 348 347
f 345 343 346
f 345 346 348
v 0.947246 9.865364 -1.899342
v 0.966240 9.880119 -1.869787
v 0.928252 9.877393 -1.868576
v 0.985114 9.424661 -1.703660
v 1.004108 9.439417 -1.674105
v 0.966120 9.436690 -1.672895
f 349 350 353
f 349 353 352
f 350 351 354
f 350 354 353
f 351 349 352
f 351 352 354
v 0.985114 9.426300 -1.704311
v 1.003877 9.440356 -1.674271
v 0.966351 9.434112 -1.672079
v 1.076983 8.934758 -1.531700
v 1.095746 8.948814 -1.501660
v 1.058220 8.942570 -1.499467
f 355 356 359
f 355 359 358
f 356 357 360
f 356 360 359
f 357 355 358
f 357 358 360
v 1.091777 8.942048 -1.494659
v 1.057190 8.951128 -1.507822
v 1.081984 8.932967 -1.530347
v 0.907838 8.483688 -1.327557
v 0.873251 8.492769 -1.340720
v 0.898046 8.474607 -1.363245
f 361 362 365
f 361 365 364
f 362 363 366
f 362 366 365
f 363 361 364
f 363 364 366
v 0.890713 8.483688 -1.355612
v 0.898590 8.493073 -1.338822
v 0.889832 8.474304 -1.337087
v 1.319985 8.275527 -1.440656
v 1.327862 8.284912 -1.423867
v 1.319104 8.266142 -1.422132
f 367 368 371
f 367 371 370
f 368 369 372
f 368 372 371
f 369 367 370
f 369 370 372
v 0.893045 8.485909 -1.365728
v 0.911304 8.477165 -1.333446
v 0.874786 8.487990 -1.332347
v 0.744147 7.988711 -1.416183
v 0.762406 7.979967 -1.383901
v 0.725888 7.990792 -1.382803
f 373 374 377
f 373 377 376
f 374 375 378
f 374 378 377
f 375 373 376
f 375 376 378
v 0.735450 7.986490 -1.402564
v 0.752049 7.995512 -1.393900
v 0.744942 7.977468 -1.386424
v 1.041810 7.732311 -1.724797
v 1.058409 7.741334 -1.716132
v 1.051301 7.723289 -1.708656
f 379 380 383
f 379 383 382
f 380 381 384
f 380 384 383
f 381 379 382
f 381 382 384
v 0.744147 7.984312 -1.416188
v 0.763114 7.989377 -1.383529
v 0.725180 7.985782 -1.383171
v 0.796383 7.438660 -1.361895
v 0.815349 7.443725 -1.329237
v 0.777416 7.440130 -1.328879
f 385 386 389
f 385 389 388
f 386 387 390
f 386 390 389
f 387 385 388
f 387 388 390
v 0.796383 7.433416 -1.360714
v 0.815359 7.442953 -1.329076
v 0.777406 7.446146 -1.330221
v 0.756918 7.017773 -1.211742
v 0.775895 7.027310 -1.180105
v 0.737941 7.030503 -1.181249
f 391 392 395
f 391 395 394
f 392 393 396
f 392 396 395
f 393 391 394
f 393 394 396
v 0.756918 7.029789 -1.212547
v 0.775957 7.022210 -1.180422
v 0.737878 7.023588 -1.180127
v 0.744768 6.708566 -1.281123
v 0.763807 6.700987 -1.248997
v 0.725728 6.702365 -1.248703
f 397 398 401
f 397 401 400
f 398 399 402
f 398 402 401
f 399 397 400
f 399 400 402
v 0.744768 6.702473 -1.281556
v 0.762567 6.711503 -1.249096
v 0.726969 6.697942 -1.248170
v 0.910741 6.268821 -1.251933
v 0.928540 6.277851 -1.219473
v 0.892942 6.264289 -1.218547
f 403 404 407
f 403 407 406
f 404 405 408
f 404 408 407
f 405 403 406
f 405 406 408
v 0.906877 6.270320 -1.241345
v 0.915855 6.280154 -1.225386
v 0.909490 6.260487 -1.223222
v 1.395257 6.093989 -1.407442
v 1.404235 6.103823 -1.391483
v 1.397870 6.084155 -1.389318
f 409 410 413
f 409 413 412
f 410 411 414
f 410 414 413
f 411 409 412
f 411 412 414
v 0.867848 2.595515 2.449553
v 0.886439 2.606322 2.481011
v 0.849257 2.598163 2.482710
v 0.982556 2.094463 2.553879
v 1.001147 2.105269 2.585337
v 0.963964 2.097110 2.587035
f 415 416 419
f 415 419 418
f 416 417 420
f 416 420 419
f 417 415 418
f 417 418 420
v 0.994860 2.098947 2.557180
v 0.989909 2.108824 2.593648
v 0.962897 2.089071 2.575423
v 1.194403 1.701860 2.691813
v 1.189452 1.711737 2.728281
v 1.162440 1.691984 2.710056
f 421 422 425
f 421 425 424
f 422 423 426
f 422 426 425
f 423 421 424
f 423 424 426
v 1.178585 1.701860 2.721524
v 1.181098 1.711844 2.703469
v 1.186612 1.691876 2.705157
v 0.762026 1.576047 2.593955
v 0.764540 1.586031 2.575900
v 0.770054 1.566062 2.577589
f 427 428 431
f 427 431 430
f 428 429 432
f 428 432 431
f 429 427 430
f 429 430 432
v 1.168816 1.701860 2.692512
v 1.201219 1.712721 2.709368
v 1.176261 1.690999 2.728270
v 1.336392 1.398875 2.565597
v 1.368794 1.409735 2.582453
v 1.343837 1.388014 2.601355
f 433 434 437
f 433 437 436
f 434 435 438
f 434 438 437
f 435 433 436
f 435 436 438
v 1.349674 1.392262 2.562152
v 1.368390 1.405583 2.592554
v 1.330959 1.398779 2.594698
v 1.444054 0.919961 2.710992
v 1.462769 0.933282 2.741394
v 1.425338 0.926478 2.743538
f 439 440 443
f 439 443 442
f 440 441 444
f 440 444 443
f 441 439 442
f 441 442 444
v 1.444054 0.928788 2.710086
v 1.462429 0.930475 2.743425
v 1.425678 0.920458 2.742412
v 1.526763 0.628419 2.679699
v 1.545138 0.630106 2.713038
v 1.508387 0.620089 2.712025
f 445 446 449
f 445 449 448
f 446 447 450
f 446 450 449
f 447 445 448
f 447 448 450
v 1.510595 0.626204 2.716507
v 1.523371 0.634962 2.681692
v 1.546322 0.617447 2.706562
v 1.360993 0.200000 2.554401
v 1.373769 0.208758 2.519586
v 1.396720 0.191242 2.544455
f 451 452 455
f 451 455 454
f 452 453 456
f 452 456 455
f 453 451 454
f 453 454 456
v 1.382867 0.200000 2.550037
v 1.371289 0.209810 2.535834
v 1.377325 0.190190 2.532571
v 0.913972 0.013586 2.803490
v 0.902395 0.023396 2.789287
v 0.908431 0.003776 2.786024
f 457 458 461
f 457 461 460
f 458 459 462
f 458 462 461
f 459 457 460
f 459 460 462
v 1.721934 5.200000 -1.971847
v 1.687859 5.211906 -1.984059
v 1.708518 5.188094 -2.005466
v 1.547602 4.886343 -1.791202
v 1.513527 4.898248 -1.803415
v 1.534186 4.874437 -1.824822
f 463 464 467
f 463 467 466
f 464 465 468
f 464 468 467
f 465 463 466
f 465 466 468
v 1.535128 4.886343 -1.794959
v 1.528780 4.896644 -1.811858
v 1.531408 4.876041 -1.812623
v 1.059351 4.820508 -1.656365
v 1.053002 4.830810 -1.673264
v 1.055630 4.810206 -1.674030
f 469 470 473
f 469 473 472
f 470 471 474
f 470 474 473
f 471 469 472
f 471 472 474
v 1.531772 4.890763 -1.828031
v 1.550102 4.879043 -1.796748
v 1.513441 4.889222 -1.794660
v 1.382763 4.375773 -1.933672
v 1.401094 4.364052 -1.902389
v 1.364433 4.374231 -1.900301
f 475 476 479
f 475 479 478
f 476 477 480
f 476 480 479
f 477 475 478
f 477 478 480
v 1.382763 4.372965 -1.934061
v 1.401801 4.371300 -1.901095
v 1.363726 4.369791 -1.901206
v 1.397623 3.999960 -1.961489
v 1.416661 3.998295 -1.928522
v 1.378586 3.996786 -1.928633
f 481 482 485
f 481 485 484
f 482 483 486
f 482 486 485
f 483 481 484
f 483 484 486
v 1.398620 3.998347 -1.951507
v 1.400592 4.008139 -1.933280
v 1.393657 3.988554 -1.933858
v 1.804970 3.853460 -1.917629
v 1.806942 3.863252 -1.899403
v 1.800007 3.843667 -1.899981
f 487 488 491
f 487 491 490
f 488 489 492
f 488 492 491
f 489 487 490
f 489 490 492
v 1.397623 4.002889 -1.961074
v 1.415198 3.988877 -1.930304
v 1.380049 4.003275 -1.927266
v 1.244988 3.646122 -2.036349
v 1.262563 3.632110 -2.005579
v 1.227413 3.646508 -2.002541
f 493 494 497
f 493 497 496
f 494 495 498
f 494 498 497
f 495 493 496
f 495 496 498
v 1.244988 3.640594 -2.036801
v 1.263559 3.637820 -2.003644
v 1.226417 3.646326 -2.004025
v 1.135887 3.165189 -2.015464
v 1.154458 3.162415 -1.982306
v 1.117316 3.170921 -1.982688
f 499 500 503
f 499 503 502
f 500 501 504
f 500 504 503
f 501 499 502
f 501 502 504
v 1.126803 3.166175 -2.001327
v 1.144553 3.174431 -1.994344
v 1.136305 3.157919 -1.984788
v 1.334648 2.922996 -2.242119
v 1.352398 2.931252 -2.235135
v 1.344150 2.914740 -2.225579
f 505 506 509
f 505 509 508
f 506 507 510
f 506 510 509
f 507 505 508
f 507 508 510
v 1.121702 3.166175 -1.976670
v 1.130132 3.175147 -2.012732
v 1.155827 3.157203 -1.991057
v 0.923199 2.679661 -2.144114
v 0.931629 2.688633 -2.180176
v 0.957324 2.670689 -2.158501
f 511 512 515
f 511 515 514
f 512 513 516
f 512 516 515
f 513 511 514
f 513 514 516
v 0.937384 2.676357 -2.182681
v 0.955591 2.675766 -2.149212
v 0.919176 2.686861 -2.150898
v 0.793683 2.215333 -2.112644
v 0.811891 2.214742 -2.079176
v 0.775475 2.225837 -2.080861
f 517 518 521
f 517 521 520
f 518 519 522
f 518 522 521
f 519 517 520
f 519 520 522
v 0.793683 2.218545 -2.112893
v 0.812732 2.218302 -2.079892
v 0.774634 2.219064 -2.079895
v 0.787076 1.888416 -2.111514
v 0.806125 1.888173 -2.078512
v 0.768028 1.888935 -2.078516
f 523 524 527
f 523 527 526
f 524 525 528
f 524 528 527
f 525 523 526
f 525 526 528
v 0.787076 1.887057 -2.111466
v 0.804878 1.882457 -2.078090
v 0.769275 1.896009 -2.078986
v 0.633645 1.485738 -2.084944
v 0.651446 1.481138 -2.051568
v 0.615844 1.494690 -2.052464
f 529 530 533
f 529 533 532
f 530 531 534
f 530 534 533
f 531 529 532
f 531 532 534
v 0.642103 1.487189 -2.071505
v 0.629925 1.497557 -2.058230
v 0.628908 1.476821 -2.059240
v 1.102588 1.442347 -1.614043
v 1.090411 1.452714 -1.600769
v 1.089394 1.431979 -1.601778
f 535 536 539
f 535 539 538
f 536 537 540
f 536 540 539
f 537 535 538
f 537 538 540
v 0.633645 1.480296 -2.083884
v 0.652640 1.492046 -2.053011
v 0.614651 1.489226 -2.052081
v 0.678609 0.934051 -1.903650
v 0.697604 0.945801 -1.872777
v 0.659614 0.942981 -1.871847
f 541 542 545
f 541 545 544
f 542 543 546
f 542 546 545
f 543 541 544
f 543 544 546
v 0.678609 0.938872 -1.904660
v 0.697107 0.937439 -1.871377
v 0.660110 0.946522 -1.872236
v 0.551496 0.425693 -1.856110
v 0.569995 0.424260 -1.822827
v 0.532998 0.433343 -1.823687
f 547 548 551
f 547 551 550
f 548 549 552
f 548 552 551
f 549 547 550
f 549 550 552
v -1.720466 9.874292 2.782828
v -1.714570 9.884125 2.746489
v -1.688008 9.864460 2.765456
v -1.879668 9.549609 2.669145
v -1.873771 9.559442 2.632806
v -1.847210 9.539776 2.651773
f 553 554 557
f 553 557 556
f 554 555 558
f 554 558 557
f 555 553 556
f 555 556 558
v -1.866883 9.553516 2.629591
v -1.849259 9.540531 2.660781
v -1.884506 9.554780 2.663352
v -2.018336 9.190690 2.564108
v -2.000713 9.177705 2.595298
v -2.035960 9.191954 2.597869
f 559 560 563
f 559 563 562
f 560 561 564
f 560 564 563
f 561 559 562
f 561 562 564
v -2.034204 9.186783 2.600996
v -2.021562 9.196950 2.566517
v -1.999242 9.176615 2.589761
v -2.198218 8.811518 2.430199
v -2.185576 8.821685 2.395720
v -2.163255 8.801351 2.418964
f 565 566 569
f 565 569 568
f 566 567 570
f 566 570 569
f 567 565 568
f 567 568 570
v -2.182350 8.809888 2.393021
v -2.164258 8.818290 2.425488
v -2.200442 8.806376 2.426373
v -2.006854 8.279814 2.432410
v -1.988762 8.288217 2.464877
v -2.024946 8.276303 2.465762
f 571 572 575
f 571 575 574
f 572 573 576
f 572 576 575
f 573 571 574
f 573 574 576
v -2.006854 8.284233 2.432527
v -1.987808 8.280545 2.465324
v -2.025900 8.279555 2.465198
v -1.993820 7.791004 2.369498
v -1.974774 7.787317 2.402295
v -2.012866 7.786326 2.402168
f 577 578 581
f 577 581 580
f 578 579 582
f 578 582 581
f 579 577 580
f 579 580 582
v -1.993820 7.781369 2.370412
v -1.974818 7.790327 2.402203
v -2.012823 7.792951 2.401344
v -2.023043 7.399084 2.495595
v -2.004041 7.408041 2.527386
v -2.042046 7.410665 2.526527
f 583 584 587
f 583 587 586
f 584 585 588
f 584 588 587
f 585 583 586
f 585 586 588
v -2.005140 7.405930 2.503718
v -2.022604 7.416023 2.536046
v -2.041386 7.395837 2.509745
v -1.871948 7.038984 2.690231
v -1.889412 7.049077 2.722559
v -1.908194 7.028891 2.696258
f 589 590 593
f 589 593 592
f 590 591 594
f 590 594 593
f 591 589 592
f 591 592 594
v 4.015365 9.881213 0.734106
v 4.034146 9.873878 0.766440
v 3.996585 9.867786 0.764421
v 4.111705 9.345993 0.556732
v 4.130485 9.338658 0.589066
v 4.092925 9.332566 0.587048
f 595 596 599
f 595 599 598
f 596 597 600
f 596 600 599
f 597 595 598
f 597 598 600
v 4.119654 9.339072 0.586605
v 4.103439 9.347743 0.576915
v 4.112022 9.330402 0.569326
v 3.865354 9.114795 0.811462
v 3.849139 9.123466 0.801772
v 3.857723 9.106125 0.794182
f 601 602 605
f 601 605 604
f 602 603 606
f 602 606 605
f 603 601 604
f 603 604 606
v 4.111705 9.344223 0.556227
v 4.129465 9.329791 0.586695
v 4.093945 9.343204 0.589925
v 3.953950 8.949358 0.461146
v 3.971710 8.934926 0.491614
v 3.936190 8.948339 0.494844
f 607 608 611
f 607 611 610
f 608 609 612
f 608 612 611
f 609 607 610
f 609 610 612
v 3.953950 8.946130 0.460619
v 3.972718 8.939975 0.493205
v 3.935183 8.946517 0.493779
v 3.870377 8.470248 0.418867
v 3.889144 8.464093 0.451454
v 3.851609 8.470635 0.452028
f 613 614 617
f 613 617 616
f 614 615 618
f 614 618 617
f 615 613 616
f 615 616 618
v 3.870377 8.465699 0.418940
v 3.889111 8.466195 0.452118
v 3.851642 8.473081 0.451291
v 3.801159 8.094403 0.463576
v 3.819893 8.094899 0.496754
v 3.782425 8.101785 0.495926
f 619 620 623
f 619 623 622
f 620 621 624
f 620 624 623
f 621 619 622
f 621 622 624
v 3.801159 8.091433 0.464142
v 3.820005 8.102532 0.495345
v 3.782313 8.097121 0.496768
v 3.874756 7.611923 0.590255
v 3.893602 7.623022 0.621458
v 3.855910 7.617612 0.622881
f 625 626 629
f 625 629 628
f 626 627 630
f 626 630 629
f 627 625 628
f 627 628 630
v 3.869208 7.617519 0.622172
v 3.877413 7.627911 0.606150
v 3.877646 7.607128 0.606271
v 3.451976 7.611580 0.404625
v 3.460182 7.621972 0.388603
v 3.460415 7.601189 0.388724
f 631 632 635
f 631 635 634
f 632 633 636
f 632 636 635
f 633 631 634
f 633 634 636
v 3.874756 7.624906 0.590808
v 3.893267 7.618072 0.623406
v 3.856244 7.609580 0.620379
v 4.008287 7.108349 0.406686
v 4.026799 7.101515 0.439284
v 3.989776 7.093023 0.436257
f 637 638 641
f 637 641 640
f 638 639 642
f 638 642 641
f 639 637 640
f 639 640 642
v 4.008287 7.104642 0.405719
v 4.026965 7.102830 0.438883
v 3.989610 7.095415 0.437625
v 4.100342 6.653865 0.329250
v 4.119020 6.652054 0.362414
v 4.081664 6.644638 0.361156
f 643 644 647
f 643 647 646
f 644 645 648
f 644 648 647
f 645 643 646
f 645 646 648
v 4.100342 6.649643 0.328947
v 4.117687 6.642576 0.362131
v 4.082997 6.658338 0.361743
v 3.901531 6.212329 0.339732
v 3.918876 6.205262 0.372916
v 3.884186 6.221024 0.372528
f 649 650 653
f 649 653 652
f 650 651 654
f 650 654 653
f 651 649 652
f 651 652 654
v 3.895268 6.212872 0.351489
v 3.904818 6.223263 0.366748
v 3.904506 6.202481 0.366939
v 4.293624 6.204666 0.107780
v 4.303173 6.215057 0.123039
v 4.302861 6.194275 0.123229
f 655 656 659
f 655 659 658
f 656 657 660
f 656 660 659
f 657 655 658
f 657 658 660
v 3.901531 6.207781 0.340323
v 3.920566 6.216204 0.372240
v 3.882496 6.214631 0.372614
v 3.925424 5.660500 0.470506
v 3.944460 5.668923 0.502423
v 3.906389 5.667350 0.502797
f 661 662 665
f 661 665 664
f 662 663 666
f 662 666 665
f 663 661 664
f 663 664 666
v 3.925424 5.666156 0.479922
v 3.935591 5.663159 0.497800
v 3.915257 5.667459 0.498003
v 3.874961 5.428075 0.468701
v 3.885128 5.425078 0.486579
v 3.864794 5.429378 0.486782
f 667 668 671
f 667 671 670
f 668 669 672
f 668 672 671
f 669 667 670
f 669 670 672
v -2.573952 5.199564 -0.505963
v -2.554940 5.201468 -0.472994
v -2.592964 5.198968 -0.472945
v -2.550326 4.840289 -0.498847
v -2.531315 4.842192 -0.465878
v -2.569338 4.839693 -0.465828
f 673 674 677
f 673 677 676
f 674 675 678
f 674 678 677
f 675 673 676
f 675 676 678
v -2.565651 4.840724 -0.461066
v -2.554865 4.849318 -0.496588
v -2.530464 4.832131 -0.472899
v -2.739813 4.360412 -0.630149
v -2.729027 4.369006 -0.665671
v -2.704626 4.351819 -0.641981
f 679 680 683
f 679 683 682
f 680 681 684
f 680 684 683
f 681 679 682
f 681 682 684
v -2.725280 4.360412 -0.657908
v -2.719294 4.369625 -0.640264
v -2.728891 4.351200 -0.639630
v -2.281139 4.128054 -0.687262
v -2.275153 4.137267 -0.669619
v -2.284751 4.118842 -0.668984
f 685 686 689
f 685 689 688
f 686 687 690
f 686 690 689
f 687 685 688
f 687 688 690
v -2.708947 4.360412 -0.630363
v -2.744013 4.369752 -0.641988
v -2.720506 4.351073 -0.665451
v -2.832841 4.049161 -0.506703
v -2.867907 4.058501 -0.518328
v -2.844399 4.039822 -0.541791
f 691 692 695
f 691 695 694
f 692 693 696
f 692 696 695
f 693 691 694
f 693 694 696
v -2.848382 4.041935 -0.543053
v -2.829736 4.056471 -0.513169
v -2.867028 4.049078 -0.510598
v -2.768145 3.680874 -0.417493
v -2.749499 3.695410 -0.387610
v -2.786792 3.688016 -0.385039
f 697 698 701
f 697 701 700
f 698 699 702
f 698 702 701
f 699 697 700
f 699 700 702
v -2.768145 3.688699 -0.418706
v -2.749169 3.686099 -0.385765
v -2.787122 3.689501 -0.385672
v -2.815815 3.157261 -0.433189
v -2.796839 3.154662 -0.400247
v -2.834792 3.158063 -0.400154
f 703 704 707
f 703 707 706
f 704 705 708
f 704 708 707
f 705 703 706
f 705 706 708
v -2.820766 3.156662 -0.400266
v -2.816558 3.166436 -0.418120
v -2.810121 3.146889 -0.415205
v -3.261187 2.981891 -0.599743
v -3.256979 2.991664 -0.617597
v -3.250543 2.972118 -0.614682
f 709 710 713
f 709 713 712
f 710 711 714
f 710 714 713
f 711 709 712
f 711 712 714
v -2.815815 3.156550 -0.433196
v -2.797500 3.151470 -0.400170
v -2.834130 3.161967 -0.400224
v -2.945329 2.704623 -0.430887
v -2.927014 2.699542 -0.397861
v -2.963645 2.710040 -0.397914
f 715 716 719
f 715 719 718
f 716 717 720
f 716 720 719
f 717 715 718
f 717 718 720
v -2.966624 2.704735 -0.403360
v -2.938812 2.714368 -0.427562
v -2.930552 2.695102 -0.395741
v -3.012905 2.390432 -0.581651
v -2.985094 2.400066 -0.605853
v -2.976833 2.380799 -0.574032
f 721 722 725
f 721 725 724
f 722 723 726
f 722 726 725
f 723 721 724
f 723 724 726
v -2.991611 2.383920 -0.608193
v -2.973055 2.397819 -0.577952
v -3.010166 2.389558 -0.575391
v -2.867849 1.876714 -0.451006
v -2.849294 1.890614 -0.420765
v -2.886405 1.882352 -0.418205
f 727 728 731
f 727 731 730
f 728 729 732
f 728 732 731
f 729 727 730
f 729 730 732
v -2.867849 1.877079 -0.451115
v -2.849371 1.881842 -0.418132
v -2.886327 1.890760 -0.420728
v -2.996527 1.385511 -0.308039
v -2.978050 1.390274 -0.275056
v -3.015005 1.399192 -0.277652
f 733 734 737
f 733 737 736
f 734 735 738
f 734 738 737
f 735 733 736
f 735 736 738
v -3.004163 1.391659 -0.296173
v -2.989194 1.400998 -0.285187
v -2.996226 1.382319 -0.279387
v -2.648444 1.166626 -0.589594
v -2.633474 1.175966 -0.578608
v -2.640506 1.157287 -0.572808
f 739 740 743
f 739 743 742
f 740 741 744
f 740 744 743
f 741 739 742
f 741 742 744
