o mesh
v -3.150881 0.000000 3.019147
v 3.150881 0.000000 3.019147
v 3.150881 0.000000 -3.019147
v -3.150881 0.000000 -3.019147
v -3.150881 0.200000 3.019147
v 3.150881 0.200000 3.019147
v 3.150881 0.200000 -3.019147
v -3.150881 0.200000 -3.019147
f 1 3 2
f 1 4 3
f 5 6 7
f 5 7 8
f 1 2 6
f 1 6 5
f 2 3 7
f 2 7 6
f 3 4 8
f 3 8 7
f 4 1 5
f 4 5 8
v -2.750881 0.200000 2.619147
v 2.750881 0.200000 2.619147
v 2.750881 0.200000 -2.619147
v -2.750881 0.200000 -2.619147
v -2.750881 0.400000 2.619147
v 2.750881 0.400000 2.619147
v 2.750881 0.400000 -2.619147
v -2.750881 0.400000 -2.619147
f 9 11 10
f 9 12 11
f 13 14 15
f 13 15 16
f 9 10 14
f 9 14 13
f 10 11 15
f 10 15 14
f 11 12 16
f 11 16 15
f 12 9 13
f 12 13 16
v -2.350881 0.400000 1.819147
v 2.350881 0.400000 1.819147
v 2.350881 0.400000 -1.819147
v -2.350881 0.400000 -1.819147
v -2.350881 3.699827 1.819147
v 2.350881 3.699827 1.819147
v 2.350881 3.699827 -1.819147
v -2.350881 3.699827 -1.819147
f 17 19 18
f 17 20 19
f 21 22 23
f 21 23 24
f 17 18 22
f 17 22 21
f 18 19 23
f 18 23 22
f 19 20 24
f 19 24 23
f 20 17 21
f 20 21 24
v -2.600881 3.699827 2.069147
v 2.600881 3.699827 2.069147
v 0.000000 4.799827 2.069147
v -2.600881 3.699827 -2.069147
v 2.600881 3.699827 -2.069147
v 0.000000 4.799827 -2.069147
f 25 27 26
f 28 29 30
f 25 26 29
f 25 29 28
f 25 28 30
f 25 30 27
f 26 27 30
f 26 30 29
v -1.850881 0.400000 2.319147
v -1.889077 0.400000 2.201590
v -1.989077 0.400000 2.128936
v -2.112684 0.400000 2.128936
v -2.212684 0.400000 2.201590
v -2.250881 0.400000 2.319147
v -2.212684 0.400000 2.436704
v -2.112684 0.400000 2.509358
v -1.989077 0.400000 2.509358
v -1.889077 0.400000 2.436704
v -1.880881 3.699827 2.319147
v -1.913348 3.699827 2.219224
v -1.998348 3.699827 2.157468
v -2.103414 3.699827 2.157468
v -2.188414 3.699827 2.219224
v -2.220881 3.699827 2.319147
v -2.188414 3.699827 2.419071
v -2.103414 3.699827 2.480827
v -1.998348 3.699827 2.480827
v -1.913348 3.699827 2.419071
v -2.050881 3.699827 2.319147
f 31 32 42
f 31 42 41
f 32 33 43
f 32 43 42
f 33 34 44
f 33 44 43
f 34 35 45
f 34 45 44
f 35 36 46
f 35 46 45
f 36 37 47
f 36 47 46
f 37 38 48
f 37 48 47
f 38 39 49
f 38 49 48
f 39 40 50
f 39 50 49
f 40 31 41
f 40 41 50
f 41 42 51
f 42 43 51
f 43 44 51
f 44 45 51
f 45 46 51
f 46 47 51
f 47 48 51
f 48 49 51
f 49 50 51
f 50 41 51
v -0.583627 0.400000 2.319147
v -0.621823 0.400000 2.201590
v -0.721823 0.400000 2.128936
v -0.845430 0.400000 2.128936
v -0.945430 0.400000 2.201590
v -0.983627 0.400000 2.319147
v -0.945430 0.400000 2.436704
v -0.845430 0.400000 2.509358
v -0.721823 0.400000 2.509358
v -0.621823 0.400000 2.436704
v -0.613627 3.699827 2.319147
v -0.646094 3.699827 2.219224
v -0.731094 3.699827 2.157468
v -0.836160 3.699827 2.157468
v -0.921160 3.699827 2.219224
v -0.953627 3.699827 2.319147
v -0.921160 3.699827 2.419071
v -0.836160 3.699827 2.480827
v -0.731094 3.699827 2.480827
v -0.646094 3.699827 2.419071
v -0.783627 3.699827 2.319147
f 52 53 63
f 52 63 62
f 53 54 64
f 53 64 63
f 54 55 65
f 54 65 64
f 55 56 66
f 55 66 65
f 56 57 67
f 56 67 66
f 57 58 68
f 57 68 67
f 58 59 69
f 58 69 68
f 59 60 70
f 59 70 69
f 60 61 71
f 60 71 70
f 61 52 62
f 61 62 71
f 62 63 72
f 63 64 72
f 64 65 72
f 65 66 72
f 66 67 72
f 67 68 72
f 68 69 72
f 69 70 72
f 70 71 72
f 71 62 72
v 0.981028 0.200000 3.251283
v 0.923211 0.341421 3.241871
v 0.783627 0.400000 3.219147
v 0.644043 0.341421 3.196424
v 0.586226 0.200000 3.187011
v 0.644043 0.058579 3.196424
v 0.783627 -0.000000 3.219147
v 0.923211 0.058579 3.241871
v 0.756064 0.200000 4.446463
v 0.706920 0.320208 4.438462
v 0.588273 0.370000 4.419147
v 0.469627 0.320208 4.399832
v 0.420482 0.200000 4.391832
v 0.469627 0.079792 4.399832
v 0.588273 0.030000 4.419147
v 0.706920 0.079792 4.438462
f 73 74 82
f 73 82 81
f 74 75 83
f 74 83 82
f 75 76 84
f 75 84 83
f 76 77 85
f 76 85 84
f 77 78 86
f 77 86 85
f 78 79 87
f 78 87 86
f 79 80 88
f 79 88 87
f 80 73 81
f 80 81 88
v 2.250881 0.400000 2.319147
v 2.212684 0.400000 2.201590
v 2.112684 0.400000 2.128936
v 1.989077 0.400000 2.128936
v 1.889077 0.400000 2.201590
v 1.850881 0.400000 2.319147
v 1.889077 0.400000 2.436704
v 1.989077 0.400000 2.509358
v 2.112684 0.400000 2.509358
v 2.212684 0.400000 2.436704
v 2.220881 3.699827 2.319147
v 2.188414 3.699827 2.219224
v 2.103414 3.699827 2.157468
v 1.998348 3.699827 2.157468
v 1.913348 3.699827 2.219224
v 1.880881 3.699827 2.319147
v 1.913348 3.699827 2.419071
v 1.998348 3.699827 2.480827
v 2.103414 3.699827 2.480827
v 2.188414 3.699827 2.419071
v 2.050881 3.699827 2.319147
f 89 90 100
f 89 100 99
f 90 91 101
f 90 101 100
f 91 92 102
f 91 102 101
f 92 93 103
f 92 103 102
f 93 94 104
f 93 104 103
f 94 95 105
f 94 105 104
f 95 96 106
f 95 106 105
f 96 97 107
f 96 107 106
f 97 98 108
f 97 108 107
f 98 89 99
f 98 99 108
f 99 100 109
f 100 101 109
f 101 102 109
f 102 103 109
f 103 104 109
f 104 105 109
f 105 106 109
f 106 107 109
f 107 108 109
f 108 99 109
v -2.500881 3.699827 2.544147
v 2.500881 3.699827 2.544147
v 2.500881 3.699827 2.094147
v -2.500881 3.699827 2.094147
v -2.500881 3.879827 2.544147
v 2.500881 3.879827 2.544147
v 2.500881 3.879827 2.094147
v -2.500881 3.879827 2.094147
f 110 112 111
f 110 113 112
f 114 115 116
f 114 116 117
f 110 111 115
f 110 115 114
f 111 112 116
f 111 116 115
f 112 113 117
f 112 117 116
f 113 110 114
f 113 114 117
