o part_0
v 0.000000 0.000000 0.035000
v 0.016490 0.000000 0.022697
v 0.028878 0.000000 0.009383
v 0.028878 0.000000 -0.009383
v 0.016490 0.000000 -0.022697
v 0.000000 0.000000 -0.035000
v -0.016490 0.000000 -0.022697
v -0.028878 0.000000 -0.009383
v -0.028878 0.000000 0.009383
v -0.016490 0.000000 0.022697
v 0.000000 0.600000 0.031500
v 0.014841 0.600000 0.020427
v 0.025990 0.600000 0.008445
v 0.025990 0.600000 -0.008445
v 0.014841 0.600000 -0.020427
v 0.000000 0.600000 -0.031500
v -0.014841 0.600000 -0.020427
v -0.025990 0.600000 -0.008445
v -0.025990 0.600000 0.008445
v -0.014841 0.600000 0.020427
f 1 2 12
f 1 12 11
f 2 3 13
f 2 13 12
f 3 4 14
f 3 14 13
f 4 5 15
f 4 15 14
f 5 6 16
f 5 16 15
f 6 7 17
f 6 17 16
f 7 8 18
f 7 18 17
f 8 9 19
f 8 19 18
f 9 10 20
f 9 20 19
f 10 1 11
f 10 11 20
o part_1
v 0.000000 0.599142 0.031488
v 0.014774 0.600852 0.020458
v 0.025873 0.602236 0.008509
v 0.025873 0.602697 -0.008374
v 0.014774 0.601965 -0.020381
v 0.000000 0.600858 -0.031488
v -0.014774 0.599148 -0.020458
v -0.025873 0.597764 -0.008509
v -0.025873 0.597303 0.008374
v -0.014774 0.598035 0.020381
v -0.041347 1.032630 0.040152
v -0.028050 1.034169 0.030225
v -0.018061 1.035415 0.019470
v -0.018061 1.035830 0.004275
v -0.028050 1.035171 -0.006531
v -0.041347 1.034175 -0.016527
v -0.054644 1.032636 -0.006600
v -0.064633 1.031390 0.004154
v -0.064633 1.030976 0.019349
v -0.054644 1.031634 0.030155
f 21 22 32
f 21 32 31
f 22 23 33
f 22 33 32
f 23 24 34
f 23 34 33
f 24 25 35
f 24 35 34
f 25 26 36
f 25 36 35
f 26 27 37
f 26 37 36
f 27 28 38
f 27 38 37
f 28 29 39
f 28 39 38
f 29 30 40
f 29 40 39
f 30 21 31
f 30 31 40
o part_2
v -0.041347 1.033403 0.011812
v -0.039356 1.031105 0.016159
v -0.036386 1.028909 0.020181
v -0.032149 1.026846 0.023785
v -0.026623 1.024917 0.026962
v -0.020001 1.023103 0.029777
v -0.012643 1.021366 0.032349
v -0.005032 1.019655 0.034836
v 0.002290 1.017913 0.037420
v 0.008782 1.016086 0.040278
v 0.013974 1.014122 0.043566
v 0.017518 1.011986 0.047398
v 0.019229 1.009659 0.051837
v 0.019107 1.007141 0.056883
v 0.017336 1.004450 0.062473
v 0.014266 1.001624 0.068493
v 0.010366 0.998711 0.074787
v 0.006177 0.995768 0.081177
v 0.002240 0.992851 0.087484
v -0.000960 0.990011 0.093547
v -0.003064 0.987286 0.099247
v -0.003879 0.984695 0.104522
v -0.003428 0.982237 0.109377
v -0.001997 0.979881 0.113909
v -0.003988 0.982178 0.109562
v -0.006958 0.984374 0.105540
v -0.011195 0.986437 0.101936
v -0.016720 0.988366 0.098758
v -0.023343 0.990180 0.095944
v -0.030701 0.991918 0.093372
v -0.038312 0.993629 0.090884
v -0.045633 0.995370 0.088301
v -0.052125 0.997198 0.085443
v -0.057318 0.999161 0.082155
v -0.060862 1.001297 0.078322
v -0.062573 1.003624 0.073883
v -0.062450 1.006142 0.068838
v -0.060680 1.008833 0.063248
v -0.057609 1.011659 0.057228
v -0.053710 1.014572 0.050933
v -0.049520 1.017515 0.044543
v -0.045584 1.020432 0.038237
v -0.042383 1.023272 0.032174
v -0.040280 1.025997 0.026473
v -0.039464 1.028588 0.021199
v -0.039916 1.031046 0.016344
f 41 42 43
f 41 43 42
f 41 43 44
f 41 44 43
f 41 44 45
f 41 45 44
f 41 45 46
f 41 46 45
f 41 46 47
f 41 47 46
f 41 47 48
f 41 48 47
f 41 48 49
f 41 49 48
f 41 49 50
f 41 50 49
f 41 50 51
f 41 51 50
f 41 51 52
f 41 52 51
f 41 52 53
f 41 53 52
f 41 53 54
f 41 54 53
f 41 54 55
f 41 55 54
f 41 55 56
f 41 56 55
f 41 56 57
f 41 57 56
f 41 57 58
f 41 58 57
f 41 58 59
f 41 59 58
f 41 59 60
f 41 60 59
f 41 60 61
f 41 61 60
f 41 61 62
f 41 62 61
f 41 62 63
f 41 63 62
f 41 63 64
f 41 64 63
f 41 64 65
f 41 65 64
f 41 65 66
f 41 66 65
f 41 66 67
f 41 67 66
f 41 67 68
f 41 68 67
f 41 68 69
f 41 69 68
f 41 69 70
f 41 70 69
f 41 70 71
f 41 71 70
f 41 71 72
f 41 72 71
f 41 72 73
f 41 73 72
f 41 73 74
f 41 74 73
f 41 74 75
f 41 75 74
f 41 75 76
f 41 76 75
f 41 76 77
f 41 77 76
f 41 77 78
f 41 78 77
f 41 78 79
f 41 79 78
f 41 79 80
f 41 80 79
f 41 80 81
f 41 81 80
f 41 81 82
f 41 82 81
f 41 82 83
f 41 83 82
f 41 83 84
f 41 84 83
f 41 84 85
f 41 85 84
f 41 85 86
f 41 86 85
o part_3
v -0.041347 1.033403 0.011812
v -0.035298 1.032549 0.010553
v -0.029339 1.031700 0.008834
v -0.023591 1.030860 0.006052
v -0.018154 1.030032 0.001691
v -0.013077 1.029221 -0.004489
v -0.008332 1.028423 -0.012354
v -0.003815 1.027635 -0.021370
v 0.000644 1.026849 -0.030681
v 0.005249 1.026058 -0.039253
v 0.010202 1.025251 -0.046063
v 0.015664 1.024423 -0.050296
v 0.021724 1.023569 -0.051500
v 0.028382 1.022690 -0.049675
v 0.035549 1.021789 -0.045272
v 0.043064 1.020873 -0.039107
v 0.050725 1.019951 -0.032204
v 0.058328 1.019032 -0.025596
v 0.065703 1.018122 -0.020139
v 0.072746 1.017226 -0.016366
v 0.079429 1.016346 -0.014413
v 0.085801 1.015479 -0.014038
v 0.091963 1.014621 -0.014727
v 0.098034 1.013767 -0.015876
v 0.091985 1.014620 -0.014616
v 0.086026 1.015470 -0.012898
v 0.080278 1.016310 -0.010115
v 0.074841 1.017137 -0.005755
v 0.069764 1.017949 0.000426
v 0.065019 1.018747 0.008290
v 0.060502 1.019535 0.017306
v 0.056043 1.020320 0.026617
v 0.051437 1.021112 0.035189
v 0.046485 1.021918 0.042000
v 0.041023 1.022747 0.046233
v 0.034963 1.023600 0.047437
v 0.028304 1.024480 0.045611
v 0.021137 1.025381 0.041208
v 0.013622 1.026296 0.035044
v 0.005962 1.027218 0.028141
v -0.001641 1.028138 0.021532
v -0.009016 1.029048 0.016075
v -0.016059 1.029943 0.012302
v -0.022742 1.030823 0.010350
v -0.029114 1.031690 0.009975
v -0.035276 1.032548 0.010664
f 87 88 89
f 87 89 88
f 87 89 90
f 87 90 89
f 87 90 91
f 87 91 90
f 87 91 92
f 87 92 91
f 87 92 93
f 87 93 92
f 87 93 94
f 87 94 93
f 87 94 95
f 87 95 94
f 87 95 96
f 87 96 95
f 87 96 97
f 87 97 96
f 87 97 98
f 87 98 97
f 87 98 99
f 87 99 98
f 87 99 100
f 87 100 99
f 87 100 101
f 87 101 100
f 87 101 102
f 87 102 101
f 87 102 103
f 87 103 102
f 87 103 104
f 87 104 103
f 87 104 105
f 87 105 104
f 87 105 106
f 87 106 105
f 87 106 107
f 87 107 106
f 87 107 108
f 87 108 107
f 87 108 109
f 87 109 108
f 87 109 110
f 87 110 109
f 87 110 111
f 87 111 110
f 87 111 112
f 87 112 111
f 87 112 113
f 87 113 112
f 87 113 114
f 87 114 113
f 87 114 115
f 87 115 114
f 87 115 116
f 87 116 115
f 87 116 117
f 87 117 116
f 87 117 118
f 87 118 117
f 87 118 119
f 87 119 118
f 87 119 120
f 87 120 119
f 87 120 121
f 87 121 120
f 87 121 122
f 87 122 121
f 87 122 123
f 87 123 122
f 87 123 124
f 87 124 123
f 87 124 125
f 87 125 124
f 87 125 126
f 87 126 125
f 87 126 127
f 87 127 126
f 87 127 128
f 87 128 127
f 87 128 129
f 87 129 128
f 87 129 130
f 87 130 129
f 87 130 131
f 87 131 130
f 87 131 132
f 87 132 131
o part_4
v -0.041347 1.033403 0.011812
v -0.045361 1.030478 0.007193
v -0.049932 1.027485 0.003080
v -0.055546 1.024368 -0.000086
v -0.062503 1.021089 -0.002032
v -0.070848 1.017644 -0.002717
v -0.080351 1.014059 -0.002350
v -0.090532 1.010393 -0.001368
v -0.100732 1.006724 -0.000369
v -0.110218 1.003141 -0.000017
v -0.118303 0.999727 -0.000939
v -0.124451 0.996546 -0.003619
v -0.128373 0.993631 -0.008322
v -0.130068 0.990985 -0.015048
v -0.129827 0.988571 -0.023532
v -0.128184 0.986326 -0.033290
v -0.125827 0.984166 -0.043695
v -0.123490 0.982004 -0.054083
v -0.121830 0.979760 -0.063856
v -0.121328 0.977378 -0.072577
v -0.122214 0.974828 -0.080037
v -0.124444 0.972118 -0.086277
v -0.127716 0.969282 -0.091570
v -0.131545 0.966379 -0.096357
v -0.127531 0.969304 -0.091738
v -0.122960 0.972296 -0.087625
v -0.117346 0.975413 -0.084459
v -0.110389 0.978692 -0.082513
v -0.102044 0.982138 -0.081828
v -0.092541 0.985723 -0.082195
v -0.082360 0.989389 -0.083177
v -0.072160 0.993057 -0.084176
v -0.062674 0.996640 -0.084528
v -0.054589 1.000054 -0.083606
v -0.048441 1.003236 -0.080926
v -0.044519 1.006150 -0.076223
v -0.042824 1.008796 -0.069497
v -0.043065 1.011210 -0.061013
v -0.044708 1.013456 -0.051255
v -0.047065 1.015615 -0.040850
v -0.049402 1.017778 -0.030462
v -0.051062 1.020021 -0.020689
v -0.051564 1.022403 -0.011968
v -0.050678 1.024953 -0.004508
v -0.048448 1.027664 0.001732
v -0.045176 1.030500 0.007025
f 133 134 135
f 133 135 134
f 133 135 136
f 133 136 135
f 133 136 137
f 133 137 136
f 133 137 138
f 133 138 137
f 133 138 139
f 133 139 138
f 133 139 140
f 133 140 139
f 133 140 141
f 133 141 140
f 133 141 142
f 133 142 141
f 133 142 143
f 133 143 142
f 133 143 144
f 133 144 143
f 133 144 145
f 133 145 144
f 133 145 146
f 133 146 145
f 133 146 147
f 133 147 146
f 133 147 148
f 133 148 147
f 133 148 149
f 133 149 148
f 133 149 150
f 133 150 149
f 133 150 151
f 133 151 150
f 133 151 152
f 133 152 151
f 133 152 153
f 133 153 152
f 133 153 154
f 133 154 153
f 133 154 155
f 133 155 154
f 133 155 156
f 133 156 155
f 133 156 157
f 133 157 156
f 133 157 158
f 133 158 157
f 133 158 159
f 133 159 158
f 133 159 160
f 133 160 159
f 133 160 161
f 133 161 160
f 133 161 162
f 133 162 161
f 133 162 163
f 133 163 162
f 133 163 164
f 133 164 163
f 133 164 165
f 133 165 164
f 133 165 166
f 133 166 165
f 133 166 167
f 133 167 166
f 133 167 168
f 133 168 167
f 133 168 169
f 133 169 168
f 133 169 170
f 133 170 169
f 133 170 171
f 133 171 170
f 133 171 172
f 133 172 171
f 133 172 173
f 133 173 172
f 133 173 174
f 133 174 173
f 133 174 175
f 133 175 174
f 133 175 176
f 133 176 175
f 133 176 177
f 133 177 176
f 133 177 178
f 133 178 177
o part_5
v -0.041347 1.032208 0.040137
v -0.028168 1.034802 0.030272
v -0.018268 1.036890 0.019566
v -0.018268 1.037531 0.004379
v -0.028168 1.036352 -0.006464
v -0.041347 1.034598 -0.016513
v -0.054526 1.032003 -0.006648
v -0.064426 1.029915 0.004058
v -0.064426 1.029274 0.019245
v -0.054526 1.030453 0.030089
v -0.099879 1.386425 0.052244
v -0.088018 1.388760 0.043366
v -0.079108 1.390639 0.033730
v -0.079108 1.391216 0.020062
v -0.088018 1.390155 0.010303
v -0.099879 1.388576 0.001259
v -0.111740 1.386241 0.010137
v -0.120650 1.384361 0.019773
v -0.120650 1.383785 0.033441
v -0.111740 1.384846 0.043200
f 179 180 190
f 179 190 189
f 180 181 191
f 180 191 190
f 181 182 192
f 181 192 191
f 182 183 193
f 182 193 192
f 183 184 194
f 183 194 193
f 184 185 195
f 184 195 194
f 185 186 196
f 185 196 195
f 186 187 197
f 186 197 196
f 187 188 198
f 187 198 197
f 188 179 189
f 188 189 198
o part_6
v -0.099879 1.387500 0.026752
v -0.097930 1.384961 0.030599
v -0.095626 1.382486 0.034314
v -0.092509 1.380159 0.037725
v -0.088196 1.378048 0.040688
v -0.082513 1.376185 0.043140
v -0.075567 1.374550 0.045119
v -0.067765 1.373071 0.046778
v -0.059752 1.371630 0.048358
v -0.052304 1.370087 0.050149
v -0.046184 1.368303 0.052438
v -0.042003 1.366168 0.055450
v -0.040097 1.363621 0.059314
v -0.040467 1.360662 0.064029
v -0.042774 1.357352 0.069468
v -0.046411 1.353801 0.075404
v -0.050613 1.350148 0.081551
v -0.054603 1.346534 0.087619
v -0.057737 1.343074 0.093367
v -0.059609 1.339843 0.098644
v -0.060110 1.336860 0.103407
v -0.059415 1.334094 0.107724
v -0.057907 1.331475 0.111736
v -0.056045 1.328920 0.115616
v -0.057995 1.331459 0.111769
v -0.060299 1.333934 0.108054
v -0.063416 1.336262 0.104643
v -0.067728 1.338373 0.101679
v -0.073412 1.340236 0.099228
v -0.080357 1.341870 0.097249
v -0.088159 1.343350 0.095590
v -0.096173 1.344791 0.094010
v -0.103621 1.346334 0.092218
v -0.109741 1.348118 0.089930
v -0.113922 1.350253 0.086917
v -0.115828 1.352800 0.083054
v -0.115458 1.355759 0.078339
v -0.113150 1.359069 0.072900
v -0.109513 1.362619 0.066964
v -0.105312 1.366272 0.060817
v -0.101321 1.369887 0.054748
v -0.098188 1.373346 0.049000
v -0.096316 1.376577 0.043724
v -0.095815 1.379560 0.038961
v -0.096510 1.382326 0.034644
v -0.098017 1.384945 0.030632
f 199 200 201
f 199 201 200
f 199 201 202
f 199 202 201
f 199 202 203
f 199 203 202
f 199 203 204
f 199 204 203
f 199 204 205
f 199 205 204
f 199 205 206
f 199 206 205
f 199 206 207
f 199 207 206
f 199 207 208
f 199 208 207
f 199 208 209
f 199 209 208
f 199 209 210
f 199 210 209
f 199 210 211
f 199 211 210
f 199 211 212
f 199 212 211
f 199 212 213
f 199 213 212
f 199 213 214
f 199 214 213
f 199 214 215
f 199 215 214
f 199 215 216
f 199 216 215
f 199 216 217
f 199 217 216
f 199 217 218
f 199 218 217
f 199 218 219
f 199 219 218
f 199 219 220
f 199 220 219
f 199 220 221
f 199 221 220
f 199 221 222
f 199 222 221
f 199 222 223
f 199 223 222
f 199 223 224
f 199 224 223
f 199 224 225
f 199 225 224
f 199 225 226
f 199 226 225
f 199 226 227
f 199 227 226
f 199 227 228
f 199 228 227
f 199 228 229
f 199 229 228
f 199 229 230
f 199 230 229
f 199 230 231
f 199 231 230
f 199 231 232
f 199 232 231
f 199 232 233
f 199 233 232
f 199 233 234
f 199 234 233
f 199 234 235
f 199 235 234
f 199 235 236
f 199 236 235
f 199 236 237
f 199 237 236
f 199 237 238
f 199 238 237
f 199 238 239
f 199 239 238
f 199 239 240
f 199 240 239
f 199 240 241
f 199 241 240
f 199 241 242
f 199 242 241
f 199 242 243
f 199 243 242
f 199 243 244
f 199 244 243
o part_7
v -0.099879 1.387500 0.026752
v -0.093847 1.386357 0.028949
v -0.086903 1.385431 0.029556
v -0.079146 1.384700 0.028742
v -0.070736 1.384125 0.026788
v -0.061885 1.383655 0.024061
v -0.052835 1.383233 0.020989
v -0.043847 1.382796 0.018025
v -0.035175 1.382283 0.015613
v -0.027052 1.381639 0.014159
v -0.019667 1.380819 0.013995
v -0.013157 1.379790 0.015359
v -0.007592 1.378535 0.018373
v -0.002972 1.377054 0.023039
v 0.000773 1.375364 0.029231
v 0.003780 1.373497 0.036715
v 0.006238 1.371499 0.045155
v 0.008380 1.369426 0.054148
v 0.010460 1.367338 0.063249
v 0.012738 1.365297 0.072004
v 0.015459 1.363362 0.079987
v 0.018831 1.361583 0.086830
v 0.023018 1.359999 0.092252
v 0.028115 1.358632 0.096084
v 0.022082 1.359775 0.093886
v 0.015139 1.360701 0.093280
v 0.007382 1.361432 0.094094
v -0.001028 1.362008 0.096048
v -0.009880 1.362477 0.098774
v -0.018929 1.362900 0.101846
v -0.027917 1.363337 0.104810
v -0.036589 1.363849 0.107222
v -0.044713 1.364493 0.108676
v -0.052097 1.365313 0.108840
v -0.058607 1.366342 0.107476
v -0.064172 1.367598 0.104462
v -0.068792 1.369079 0.099797
v -0.072537 1.370769 0.093604
v -0.075544 1.372635 0.086121
v -0.078002 1.374633 0.077680
v -0.080144 1.376706 0.068687
v -0.082224 1.378794 0.059586
v -0.084502 1.380835 0.050831
v -0.087223 1.382770 0.042848
v -0.090596 1.384549 0.036005
v -0.094782 1.386133 0.030583
f 245 246 247
f 245 247 246
f 245 247 248
f 245 248 247
f 245 248 249
f 245 249 248
f 245 249 250
f 245 250 249
f 245 250 251
f 245 251 250
f 245 251 252
f 245 252 251
f 245 252 253
f 245 253 252
f 245 253 254
f 245 254 253
f 245 254 255
f 245 255 254
f 245 255 256
f 245 256 255
f 245 256 257
f 245 257 256
f 245 257 258
f 245 258 257
f 245 258 259
f 245 259 258
f 245 259 260
f 245 260 259
f 245 260 261
f 245 261 260
f 245 261 262
f 245 262 261
f 245 262 263
f 245 263 262
f 245 263 264
f 245 264 263
f 245 264 265
f 245 265 264
f 245 265 266
f 245 266 265
f 245 266 267
f 245 267 266
f 245 267 268
f 245 268 267
f 245 268 269
f 245 269 268
f 245 269 270
f 245 270 269
f 245 270 271
f 245 271 270
f 245 271 272
f 245 272 271
f 245 272 273
f 245 273 272
f 245 273 274
f 245 274 273
f 245 274 275
f 245 275 274
f 245 275 276
f 245 276 275
f 245 276 277
f 245 277 276
f 245 277 278
f 245 278 277
f 245 278 279
f 245 279 278
f 245 279 280
f 245 280 279
f 245 280 281
f 245 281 280
f 245 281 282
f 245 282 281
f 245 282 283
f 245 283 282
f 245 283 284
f 245 284 283
f 245 284 285
f 245 285 284
f 245 285 286
f 245 286 285
f 245 286 287
f 245 287 286
f 245 287 288
f 245 288 287
f 245 288 289
f 245 289 288
f 245 289 290
f 245 290 289
o part_8
v -0.099879 1.387500 0.026752
v -0.096730 1.386497 0.021375
v -0.094639 1.385347 0.015318
v -0.093889 1.384013 0.008399
v -0.094483 1.382492 0.000615
v -0.096211 1.380815 -0.007897
v -0.098687 1.379034 -0.016891
v -0.101406 1.377220 -0.026041
v -0.103805 1.375450 -0.034986
v -0.105329 1.373801 -0.043367
v -0.105491 1.372340 -0.050873
v -0.103937 1.371116 -0.057275
v -0.100476 1.370156 -0.062451
v -0.095108 1.369459 -0.066401
v -0.088023 1.369000 -0.069246
v -0.079578 1.368728 -0.071217
v -0.070257 1.368578 -0.072625
v -0.060615 1.368471 -0.073826
v -0.051217 1.368331 -0.075185
v -0.042567 1.368088 -0.077024
v -0.035050 1.367688 -0.079592
v -0.028879 1.367103 -0.083025
v -0.024048 1.366332 -0.087320
v -0.020275 1.365414 -0.092295
v -0.023424 1.366418 -0.086918
v -0.025515 1.367567 -0.080862
v -0.026266 1.368902 -0.073943
v -0.025671 1.370423 -0.066159
v -0.023943 1.372100 -0.057646
v -0.021467 1.373881 -0.048652
v -0.018748 1.375695 -0.039502
v -0.016349 1.377465 -0.030558
v -0.014826 1.379114 -0.022177
v -0.014663 1.380575 -0.014670
v -0.016217 1.381798 -0.008268
v -0.019678 1.382758 -0.003093
v -0.025046 1.383455 0.000857
v -0.032131 1.383915 0.003703
v -0.040576 1.384186 0.005674
v -0.049897 1.384337 0.007081
v -0.059539 1.384443 0.008283
v -0.068937 1.384583 0.009641
v -0.077587 1.384827 0.011480
v -0.085104 1.385226 0.014048
v -0.091275 1.385812 0.017481
v -0.096106 1.386583 0.021776
f 291 292 293
f 291 293 292
f 291 293 294
f 291 294 293
f 291 294 295
f 291 295 294
f 291 295 296
f 291 296 295
f 291 296 297
f 291 297 296
f 291 297 298
f 291 298 297
f 291 298 299
f 291 299 298
f 291 299 300
f 291 300 299
f 291 300 301
f 291 301 300
f 291 301 302
f 291 302 301
f 291 302 303
f 291 303 302
f 291 303 304
f 291 304 303
f 291 304 305
f 291 305 304
f 291 305 306
f 291 306 305
f 291 306 307
f 291 307 306
f 291 307 308
f 291 308 307
f 291 308 309
f 291 309 308
f 291 309 310
f 291 310 309
f 291 310 311
f 291 311 310
f 291 311 312
f 291 312 311
f 291 312 313
f 291 313 312
f 291 313 314
f 291 314 313
f 291 314 315
f 291 315 314
f 291 315 316
f 291 316 315
f 291 316 317
f 291 317 316
f 291 317 318
f 291 318 317
f 291 318 319
f 291 319 318
f 291 319 320
f 291 320 319
f 291 320 321
f 291 321 320
f 291 321 322
f 291 322 321
f 291 322 323
f 291 323 322
f 291 323 324
f 291 324 323
f 291 324 325
f 291 325 324
f 291 325 326
f 291 326 325
f 291 326 327
f 291 327 326
f 291 327 328
f 291 328 327
f 291 328 329
f 291 329 328
f 291 329 330
f 291 330 329
f 291 330 331
f 291 331 330
f 291 331 332
f 291 332 331
f 291 332 333
f 291 333 332
f 291 333 334
f 291 334 333
f 291 334 335
f 291 335 334
f 291 335 336
f 291 336 335
o part_9
v -0.099879 1.387500 0.026752
v -0.102088 1.384524 0.023624
v -0.105414 1.381333 0.021209
v -0.109770 1.377944 0.019450
v -0.114969 1.374393 0.018229
v -0.120752 1.370730 0.017380
v -0.126811 1.367014 0.016706
v -0.132813 1.363309 0.015996
v -0.138428 1.359678 0.015040
v -0.143354 1.356179 0.013645
v -0.147342 1.352861 0.011651
v -0.150214 1.349757 0.008947
v -0.151877 1.346886 0.005472
v -0.152331 1.344247 0.001226
v -0.151668 1.341823 -0.003731
v -0.150068 1.339578 -0.009286
v -0.147778 1.337467 -0.015280
v -0.145102 1.335429 -0.021520
v -0.142368 1.333403 -0.027797
v -0.139911 1.331324 -0.033898
v -0.138037 1.329132 -0.039626
v -0.137007 1.326778 -0.044818
v -0.137006 1.324226 -0.049353
v -0.138124 1.321460 -0.053176
v -0.135915 1.324436 -0.050048
v -0.132589 1.327627 -0.047633
v -0.128233 1.331016 -0.045874
v -0.123034 1.334567 -0.044653
v -0.117251 1.338230 -0.043804
v -0.111192 1.341946 -0.043130
v -0.105190 1.345652 -0.042420
v -0.099575 1.349283 -0.041464
v -0.094648 1.352781 -0.040069
v -0.090660 1.356099 -0.038076
v -0.087789 1.359203 -0.035371
v -0.086126 1.362074 -0.031896
v -0.085672 1.364713 -0.027650
v -0.086334 1.367138 -0.022693
v -0.087935 1.369382 -0.017138
v -0.090225 1.371494 -0.011145
v -0.092901 1.373531 -0.004904
v -0.095634 1.375557 0.001372
v -0.098092 1.377637 0.007473
v -0.099966 1.379828 0.013202
v -0.100996 1.382182 0.018394
v -0.100997 1.384734 0.022929
f 337 338 339
f 337 339 338
f 337 339 340
f 337 340 339
f 337 340 341
f 337 341 340
f 337 341 342
f 337 342 341
f 337 342 343
f 337 343 342
f 337 343 344
f 337 344 343
f 337 344 345
f 337 345 344
f 337 345 346
f 337 346 345
f 337 346 347
f 337 347 346
f 337 347 348
f 337 348 347
f 337 348 349
f 337 349 348
f 337 349 350
f 337 350 349
f 337 350 351
f 337 351 350
f 337 351 352
f 337 352 351
f 337 352 353
f 337 353 352
f 337 353 354
f 337 354 353
f 337 354 355
f 337 355 354
f 337 355 356
f 337 356 355
f 337 356 357
f 337 357 356
f 337 357 358
f 337 358 357
f 337 358 359
f 337 359 358
f 337 359 360
f 337 360 359
f 337 360 361
f 337 361 360
f 337 361 362
f 337 362 361
f 337 362 363
f 337 363 362
f 337 363 364
f 337 364 363
f 337 364 365
f 337 365 364
f 337 365 366
f 337 366 365
f 337 366 367
f 337 367 366
f 337 367 368
f 337 368 367
f 337 368 369
f 337 369 368
f 337 369 370
f 337 370 369
f 337 370 371
f 337 371 370
f 337 371 372
f 337 372 371
f 337 372 373
f 337 373 372
f 337 373 374
f 337 374 373
f 337 374 375
f 337 375 374
f 337 375 376
f 337 376 375
f 337 376 377
f 337 377 376
f 337 377 378
f 337 378 377
f 337 378 379
f 337 379 378
f 337 379 380
f 337 380 379
f 337 380 381
f 337 381 380
f 337 381 382
f 337 382 381
o part_10
v -0.099879 1.387500 0.026752
v -0.104558 1.384388 0.028586
v -0.108865 1.381278 0.031809
v -0.112773 1.378172 0.036518
v -0.116322 1.375069 0.042564
v -0.119597 1.371967 0.049631
v -0.122717 1.368868 0.057279
v -0.125817 1.365768 0.064996
v -0.129043 1.362667 0.072247
v -0.132530 1.359564 0.078527
v -0.136392 1.356458 0.083407
v -0.140712 1.353349 0.086579
v -0.145534 1.350235 0.087880
v -0.150858 1.347117 0.087309
v -0.156641 1.343996 0.085029
v -0.162799 1.340872 0.081350
v -0.169218 1.337745 0.076700
v -0.175762 1.334618 0.071583
v -0.182287 1.331490 0.066536
v -0.188656 1.328364 0.062070
v -0.194752 1.325240 0.058625
v -0.200488 1.322119 0.056517
v -0.205827 1.319002 0.055895
v -0.210792 1.315887 0.056661
v -0.206113 1.318999 0.054827
v -0.201807 1.322109 0.051603
v -0.197899 1.325215 0.046895
v -0.194350 1.328318 0.040849
v -0.191074 1.331420 0.033782
v -0.187955 1.334520 0.026134
v -0.184854 1.337619 0.018417
v -0.181628 1.340720 0.011166
v -0.178142 1.343823 0.004886
v -0.174280 1.346929 0.000005
v -0.169960 1.350039 -0.003166
v -0.165137 1.353152 -0.004467
v -0.159813 1.356270 -0.003896
v -0.154030 1.359391 -0.001616
v -0.147872 1.362516 0.002063
v -0.141453 1.365642 0.006713
v -0.134910 1.368770 0.011829
v -0.128384 1.371897 0.016877
v -0.122015 1.375023 0.021342
v -0.115920 1.378147 0.024788
v -0.110183 1.381268 0.026895
v -0.104845 1.384386 0.027518
f 383 384 385
f 383 385 384
f 383 385 386
f 383 386 385
f 383 386 387
f 383 387 386
f 383 387 388
f 383 388 387
f 383 388 389
f 383 389 388
f 383 389 390
f 383 390 389
f 383 390 391
f 383 391 390
f 383 391 392
f 383 392 391
f 383 392 393
f 383 393 392
f 383 393 394
f 383 394 393
f 383 394 395
f 383 395 394
f 383 395 396
f 383 396 395
f 383 396 397
f 383 397 396
f 383 397 398
f 383 398 397
f 383 398 399
f 383 399 398
f 383 399 400
f 383 400 399
f 383 400 401
f 383 401 400
f 383 401 402
f 383 402 401
f 383 402 403
f 383 403 402
f 383 403 404
f 383 404 403
f 383 404 405
f 383 405 404
f 383 405 406
f 383 406 405
f 383 406 407
f 383 407 406
f 383 407 408
f 383 408 407
f 383 408 409
f 383 409 408
f 383 409 410
f 383 410 409
f 383 410 411
f 383 411 410
f 383 411 412
f 383 412 411
f 383 412 413
f 383 413 412
f 383 413 414
f 383 414 413
f 383 414 415
f 383 415 414
f 383 415 416
f 383 416 415
f 383 416 417
f 383 417 416
f 383 417 418
f 383 418 417
f 383 418 419
f 383 419 418
f 383 419 420
f 383 420 419
f 383 420 421
f 383 421 420
f 383 421 422
f 383 422 421
f 383 422 423
f 383 423 422
f 383 423 424
f 383 424 423
f 383 424 425
f 383 425 424
f 383 425 426
f 383 426 425
f 383 426 427
f 383 427 426
f 383 427 428
f 383 428 427
