o mesh
v 0.000000 0.020000 -0.000000 0.180 0.500 0.200
v 0.004571 0.029557 -0.012779 0.180 0.500 0.200
v 0.010578 0.039114 -0.025640 0.180 0.500 0.200
v 0.017023 0.048671 -0.038526 0.180 0.500 0.200
v 0.023502 0.058228 -0.051414 0.180 0.500 0.200
v 0.029714 0.067785 -0.064287 0.180 0.500 0.200
v 0.035408 0.077342 -0.077130 0.180 0.500 0.200
v 0.040373 0.086899 -0.089932 0.180 0.500 0.200
v 0.044425 0.096455 -0.102681 0.180 0.500 0.200
v 0.047419 0.106012 -0.115370 0.180 0.500 0.200
v 0.049241 0.115569 -0.127993 0.180 0.500 0.200
v 0.049816 0.125126 -0.140544 0.180 0.500 0.200
v 0.049104 0.134683 -0.153022 0.180 0.500 0.200
v 0.047107 0.144240 -0.165427 0.180 0.500 0.200
v 0.043861 0.153797 -0.177760 0.180 0.500 0.200
v 0.039444 0.163354 -0.190027 0.180 0.500 0.200
v 0.033969 0.172911 -0.202233 0.180 0.500 0.200
v 0.027581 0.182468 -0.214387 0.180 0.500 0.200
v 0.020463 0.192025 -0.226500 0.180 0.500 0.200
v 0.012828 0.201582 -0.238583 0.180 0.500 0.200
v 0.004927 0.211139 -0.250651 0.180 0.500 0.200
v -0.002942 0.220696 -0.262720 0.180 0.500 0.200
v -0.010372 0.230253 -0.274815 0.180 0.500 0.200
v -0.016366 0.239809 -0.286992 0.180 0.500 0.200
v -0.020937 0.230253 -0.274213 0.180 0.500 0.200
v -0.026944 0.220696 -0.261352 0.180 0.500 0.200
v -0.033389 0.211139 -0.248466 0.180 0.500 0.200
v -0.039868 0.201582 -0.235578 0.180 0.500 0.200
v -0.046080 0.192025 -0.222705 0.180 0.500 0.200
v -0.051775 0.182468 -0.209862 0.180 0.500 0.200
v -0.056739 0.172911 -0.197060 0.180 0.500 0.200
v -0.060791 0.163354 -0.184311 0.180 0.500 0.200
v -0.063785 0.153797 -0.171621 0.180 0.500 0.200
v -0.065608 0.144240 -0.158999 0.180 0.500 0.200
v -0.066182 0.134683 -0.146448 0.180 0.500 0.200
v -0.065471 0.125126 -0.133970 0.180 0.500 0.200
v -0.063473 0.115569 -0.121565 0.180 0.500 0.200
v -0.060227 0.106012 -0.109232 0.180 0.500 0.200
v -0.055810 0.096455 -0.096965 0.180 0.500 0.200
v -0.050335 0.086899 -0.084759 0.180 0.500 0.200
v -0.043947 0.077342 -0.072605 0.180 0.500 0.200
v -0.036829 0.067785 -0.060492 0.180 0.500 0.200
v -0.029195 0.058228 -0.048409 0.180 0.500 0.200
v -0.021293 0.048671 -0.036341 0.180 0.500 0.200
v -0.013424 0.039114 -0.024271 0.180 0.500 0.200
v -0.005994 0.029557 -0.012177 0.180 0.500 0.200
f 1 2 3
f 1 3 2
f 1 3 4
f 1 4 3
f 1 4 5
f 1 5 4
f 1 5 6
f 1 6 5
f 1 6 7
f 1 7 6
f 1 7 8
f 1 8 7
f 1 8 9
f 1 9 8
f 1 9 10
f 1 10 9
f 1 10 11
f 1 11 10
f 1 11 12
f 1 12 11
f 1 12 13
f 1 13 12
f 1 13 14
f 1 14 13
f 1 14 15
f 1 15 14
f 1 15 16
f 1 16 15
f 1 16 17
f 1 17 16
f 1 17 18
f 1 18 17
f 1 18 19
f 1 19 18
f 1 19 20
f 1 20 19
f 1 20 21
f 1 21 20
f 1 21 22
f 1 22 21
f 1 22 23
f 1 23 22
f 1 23 24
f 1 24 23
f 1 24 25
f 1 25 24
f 1 25 26
f 1 26 25
f 1 26 27
f 1 27 26
f 1 27 28
f 1 28 27
f 1 28 29
f 1 29 28
f 1 29 30
f 1 30 29
f 1 30 31
f 1 31 30
f 1 31 32
f 1 32 31
f 1 32 33
f 1 33 32
f 1 33 34
f 1 34 33
f 1 34 35
f 1 35 34
f 1 35 36
f 1 36 35
f 1 36 37
f 1 37 36
f 1 37 38
f 1 38 37
f 1 38 39
f 1 39 38
f 1 39 40
f 1 40 39
f 1 40 41
f 1 41 40
f 1 41 42
f 1 42 41
f 1 42 43
f 1 43 42
f 1 43 44
f 1 44 43
f 1 44 45
f 1 45 44
f 1 45 46
f 1 46 45
v 0.000000 0.020000 -0.000000 0.180 0.500 0.200
v 0.012127 0.022967 -0.007735 0.180 0.500 0.200
v 0.025249 0.025934 -0.014679 0.180 0.500 0.200
v 0.038676 0.028901 -0.021380 0.180 0.500 0.200
v 0.052126 0.031867 -0.028063 0.180 0.500 0.200
v 0.065391 0.034834 -0.034894 0.180 0.500 0.200
v 0.078297 0.037801 -0.042009 0.180 0.500 0.200
v 0.090696 0.040768 -0.049528 0.180 0.500 0.200
v 0.102463 0.043735 -0.057549 0.180 0.500 0.200
v 0.113496 0.046702 -0.066153 0.180 0.500 0.200
v 0.123715 0.049668 -0.075404 0.180 0.500 0.200
v 0.133069 0.052635 -0.085342 0.180 0.500 0.200
v 0.141530 0.055602 -0.095990 0.180 0.500 0.200
v 0.149100 0.058569 -0.107347 0.180 0.500 0.200
v 0.155803 0.061536 -0.119391 0.180 0.500 0.200
v 0.161694 0.064503 -0.132082 0.180 0.500 0.200
v 0.166850 0.067469 -0.145356 0.180 0.500 0.200
v 0.171374 0.070436 -0.159133 0.180 0.500 0.200
v 0.175390 0.073403 -0.173313 0.180 0.500 0.200
v 0.179049 0.076370 -0.187778 0.180 0.500 0.200
v 0.182521 0.079337 -0.202390 0.180 0.500 0.200
v 0.186017 0.082304 -0.216983 0.180 0.500 0.200
v 0.189818 0.085270 -0.231335 0.180 0.500 0.200
v 0.194614 0.088237 -0.244895 0.180 0.500 0.200
v 0.182488 0.085270 -0.237160 0.180 0.500 0.200
v 0.169365 0.082304 -0.230217 0.180 0.500 0.200
v 0.155938 0.079337 -0.223515 0.180 0.500 0.200
v 0.142488 0.076370 -0.216832 0.180 0.500 0.200
v 0.129223 0.073403 -0.210001 0.180 0.500 0.200
v 0.116317 0.070436 -0.202886 0.180 0.500 0.200
v 0.103918 0.067469 -0.195367 0.180 0.500 0.200
v 0.092151 0.064503 -0.187347 0.180 0.500 0.200
v 0.081119 0.061536 -0.178742 0.180 0.500 0.200
v 0.070899 0.058569 -0.169491 0.180 0.500 0.200
v 0.061545 0.055602 -0.159553 0.180 0.500 0.200
v 0.053084 0.052635 -0.148905 0.180 0.500 0.200
v 0.045515 0.049668 -0.137549 0.180 0.500 0.200
v 0.038811 0.046702 -0.125504 0.180 0.500 0.200
v 0.032920 0.043735 -0.112813 0.180 0.500 0.200
v 0.027764 0.040768 -0.099539 0.180 0.500 0.200
v 0.023241 0.037801 -0.085762 0.180 0.500 0.200
v 0.019224 0.034834 -0.071582 0.180 0.500 0.200
v 0.015566 0.031867 -0.057117 0.180 0.500 0.200
v 0.012093 0.028901 -0.042506 0.180 0.500 0.200
v 0.008597 0.025934 -0.027912 0.180 0.500 0.200
v 0.004796 0.022967 -0.013560 0.180 0.500 0.200
f 47 48 49
f 47 49 48
f 47 49 50
f 47 50 49
f 47 50 51
f 47 51 50
f 47 51 52
f 47 52 51
f 47 52 53
f 47 53 52
f 47 53 54
f 47 54 53
f 47 54 55
f 47 55 54
f 47 55 56
f 47 56 55
f 47 56 57
f 47 57 56
f 47 57 58
f 47 58 57
f 47 58 59
f 47 59 58
f 47 59 60
f 47 60 59
f 47 60 61
f 47 61 60
f 47 61 62
f 47 62 61
f 47 62 63
f 47 63 62
f 47 63 64
f 47 64 63
f 47 64 65
f 47 65 64
f 47 65 66
f 47 66 65
f 47 66 67
f 47 67 66
f 47 67 68
f 47 68 67
f 47 68 69
f 47 69 68
f 47 69 70
f 47 70 69
f 47 70 71
f 47 71 70
f 47 71 72
f 47 72 71
f 47 72 73
f 47 73 72
f 47 73 74
f 47 74 73
f 47 74 75
f 47 75 74
f 47 75 76
f 47 76 75
f 47 76 77
f 47 77 76
f 47 77 78
f 47 78 77
f 47 78 79
f 47 79 78
f 47 79 80
f 47 80 79
f 47 80 81
f 47 81 80
f 47 81 82
f 47 82 81
f 47 82 83
f 47 83 82
f 47 83 84
f 47 84 83
f 47 84 85
f 47 85 84
f 47 85 86
f 47 86 85
f 47 86 87
f 47 87 86
f 47 87 88
f 47 88 87
f 47 88 89
f 47 89 88
f 47 89 90
f 47 90 89
f 47 90 91
f 47 91 90
f 47 91 92
f 47 92 91
v 0.000000 0.020000 -0.000000 0.180 0.500 0.200
v 0.016487 0.021977 -0.000950 0.180 0.500 0.200
v 0.033514 0.023954 -0.000564 0.180 0.500 0.200
v 0.050706 0.025932 0.000231 0.180 0.500 0.200
v 0.067910 0.027909 0.001056 0.180 0.500 0.200
v 0.085015 0.029886 0.001633 0.180 0.500 0.200
v 0.101924 0.031863 0.001728 0.180 0.500 0.200
v 0.118559 0.033841 0.001144 0.180 0.500 0.200
v 0.134850 0.035818 -0.000287 0.180 0.500 0.200
v 0.150744 0.037795 -0.002705 0.180 0.500 0.200
v 0.166196 0.039772 -0.006212 0.180 0.500 0.200
v 0.181179 0.041749 -0.010880 0.180 0.500 0.200
v 0.195677 0.043727 -0.016744 0.180 0.500 0.200
v 0.209692 0.045704 -0.023805 0.180 0.500 0.200
v 0.223237 0.047681 -0.032027 0.180 0.500 0.200
v 0.236342 0.049658 -0.041339 0.180 0.500 0.200
v 0.249048 0.051635 -0.051636 0.180 0.500 0.200
v 0.261411 0.053613 -0.062781 0.180 0.500 0.200
v 0.273499 0.055590 -0.074606 0.180 0.500 0.200
v 0.285392 0.057567 -0.086911 0.180 0.500 0.200
v 0.297185 0.059544 -0.099466 0.180 0.500 0.200
v 0.308990 0.061522 -0.111989 0.180 0.500 0.200
v 0.320961 0.063499 -0.124104 0.180 0.500 0.200
v 0.333472 0.065476 -0.134883 0.180 0.500 0.200
v 0.316985 0.063499 -0.133933 0.180 0.500 0.200
v 0.299958 0.061522 -0.134319 0.180 0.500 0.200
v 0.282766 0.059544 -0.135114 0.180 0.500 0.200
v 0.265561 0.057567 -0.135939 0.180 0.500 0.200
v 0.248457 0.055590 -0.136516 0.180 0.500 0.200
v 0.231548 0.053613 -0.136611 0.180 0.500 0.200
v 0.214913 0.051635 -0.136028 0.180 0.500 0.200
v 0.198621 0.049658 -0.134596 0.180 0.500 0.200
v 0.182728 0.047681 -0.132178 0.180 0.500 0.200
v 0.167276 0.045704 -0.128671 0.180 0.500 0.200
v 0.152293 0.043727 -0.124004 0.180 0.500 0.200
v 0.137794 0.041749 -0.118139 0.180 0.500 0.200
v 0.123779 0.039772 -0.111078 0.180 0.500 0.200
v 0.110234 0.037795 -0.102856 0.180 0.500 0.200
v 0.097130 0.035818 -0.093544 0.180 0.500 0.200
v 0.084424 0.033841 -0.083247 0.180 0.500 0.200
v 0.072061 0.031863 -0.072102 0.180 0.500 0.200
v 0.059973 0.029886 -0.060277 0.180 0.500 0.200
v 0.048080 0.027909 -0.047972 0.180 0.500 0.200
v 0.036287 0.025932 -0.035418 0.180 0.500 0.200
v 0.024481 0.023954 -0.022894 0.180 0.500 0.200
v 0.012511 0.021977 -0.010779 0.180 0.500 0.200
f 93 94 95
f 93 95 94
f 93 95 96
f 93 96 95
f 93 96 97
f 93 97 96
f 93 97 98
f 93 98 97
f 93 98 99
f 93 99 98
f 93 99 100
f 93 100 99
f 93 100 101
f 93 101 100
f 93 101 102
f 93 102 101
f 93 102 103
f 93 103 102
f 93 103 104
f 93 104 103
f 93 104 105
f 93 105 104
f 93 105 106
f 93 106 105
f 93 106 107
f 93 107 106
f 93 107 108
f 93 108 107
f 93 108 109
f 93 109 108
f 93 109 110
f 93 110 109
f 93 110 111
f 93 111 110
f 93 111 112
f 93 112 111
f 93 112 113
f 93 113 112
f 93 113 114
f 93 114 113
f 93 114 115
f 93 115 114
f 93 115 116
f 93 116 115
f 93 116 117
f 93 117 116
f 93 117 118
f 93 118 117
f 93 118 119
f 93 119 118
f 93 119 120
f 93 120 119
f 93 120 121
f 93 121 120
f 93 121 122
f 93 122 121
f 93 122 123
f 93 123 122
f 93 123 124
f 93 124 123
f 93 124 125
f 93 125 124
f 93 125 126
f 93 126 125
f 93 126 127
f 93 127 126
f 93 127 128
f 93 128 127
f 93 128 129
f 93 129 128
f 93 129 130
f 93 130 129
f 93 130 131
f 93 131 130
f 93 131 132
f 93 132 131
f 93 132 133
f 93 133 132
f 93 133 134
f 93 134 133
f 93 134 135
f 93 135 134
f 93 135 136
f 93 136 135
f 93 136 137
f 93 137 136
f 93 137 138
f 93 138 137
v 0.000000 0.020000 -0.000000 0.180 0.500 0.200
v 0.012871 0.023624 0.007459 0.180 0.500 0.200
v 0.025489 0.027248 0.016219 0.180 0.500 0.200
v 0.038031 0.030872 0.025379 0.180 0.500 0.200
v 0.050567 0.034496 0.034568 0.180 0.500 0.200
v 0.063150 0.038120 0.043515 0.180 0.500 0.200
v 0.075824 0.041744 0.051993 0.180 0.500 0.200
v 0.088625 0.045367 0.059808 0.180 0.500 0.200
v 0.101587 0.048991 0.066796 0.180 0.500 0.200
v 0.114734 0.052615 0.072824 0.180 0.500 0.200
v 0.128086 0.056239 0.077790 0.180 0.500 0.200
v 0.141658 0.059863 0.081623 0.180 0.500 0.200
v 0.155455 0.063487 0.084290 0.180 0.500 0.200
v 0.169477 0.067111 0.085790 0.180 0.500 0.200
v 0.183718 0.070735 0.086159 0.180 0.500 0.200
v 0.198164 0.074359 0.085465 0.180 0.500 0.200
v 0.212797 0.077983 0.083810 0.180 0.500 0.200
v 0.227589 0.081607 0.081329 0.180 0.500 0.200
v 0.242509 0.085231 0.078185 0.180 0.500 0.200
v 0.257519 0.088855 0.074572 0.180 0.500 0.200
v 0.272577 0.092479 0.070717 0.180 0.500 0.200
v 0.287629 0.096102 0.066891 0.180 0.500 0.200
v 0.302603 0.099726 0.063465 0.180 0.500 0.200
v 0.317327 0.103350 0.061340 0.180 0.500 0.200
v 0.304456 0.099726 0.053881 0.180 0.500 0.200
v 0.291837 0.096102 0.045120 0.180 0.500 0.200
v 0.279295 0.092479 0.035961 0.180 0.500 0.200
v 0.266759 0.088855 0.026772 0.180 0.500 0.200
v 0.254176 0.085231 0.017825 0.180 0.500 0.200
v 0.241503 0.081607 0.009347 0.180 0.500 0.200
v 0.228701 0.077983 0.001532 0.180 0.500 0.200
v 0.215740 0.074359 -0.005457 0.180 0.500 0.200
v 0.202593 0.070735 -0.011485 0.180 0.500 0.200
v 0.189240 0.067111 -0.016450 0.180 0.500 0.200
v 0.175669 0.063487 -0.020283 0.180 0.500 0.200
v 0.161872 0.059863 -0.022950 0.180 0.500 0.200
v 0.147850 0.056239 -0.024451 0.180 0.500 0.200
v 0.133609 0.052615 -0.024819 0.180 0.500 0.200
v 0.119162 0.048991 -0.024125 0.180 0.500 0.200
v 0.104530 0.045367 -0.022471 0.180 0.500 0.200
v 0.089738 0.041744 -0.019989 0.180 0.500 0.200
v 0.074818 0.038120 -0.016845 0.180 0.500 0.200
v 0.059807 0.034496 -0.013232 0.180 0.500 0.200
v 0.044750 0.030872 -0.009377 0.180 0.500 0.200
v 0.029698 0.027248 -0.005552 0.180 0.500 0.200
v 0.014723 0.023624 -0.002125 0.180 0.500 0.200
f 139 140 141
f 139 141 140
f 139 141 142
f 139 142 141
f 139 142 143
f 139 143 142
f 139 143 144
f 139 144 143
f 139 144 145
f 139 145 144
f 139 145 146
f 139 146 145
f 139 146 147
f 139 147 146
f 139 147 148
f 139 148 147
f 139 148 149
f 139 149 148
f 139 149 150
f 139 150 149
f 139 150 151
f 139 151 150
f 139 151 152
f 139 152 151
f 139 152 153
f 139 153 152
f 139 153 154
f 139 154 153
f 139 154 155
f 139 155 154
f 139 155 156
f 139 156 155
f 139 156 157
f 139 157 156
f 139 157 158
f 139 158 157
f 139 158 159
f 139 159 158
f 139 159 160
f 139 160 159
f 139 160 161
f 139 161 160
f 139 161 162
f 139 162 161
f 139 162 163
f 139 163 162
f 139 163 164
f 139 164 163
f 139 164 165
f 139 165 164
f 139 165 166
f 139 166 165
f 139 166 167
f 139 167 166
f 139 167 168
f 139 168 167
f 139 168 169
f 139 169 168
f 139 169 170
f 139 170 169
f 139 170 171
f 139 171 170
f 139 171 172
f 139 172 171
f 139 172 173
f 139 173 172
f 139 173 174
f 139 174 173
f 139 174 175
f 139 175 174
f 139 175 176
f 139 176 175
f 139 176 177
f 139 177 176
f 139 177 178
f 139 178 177
f 139 178 179
f 139 179 178
f 139 179 180
f 139 180 179
f 139 180 181
f 139 181 180
f 139 181 182
f 139 182 181
f 139 182 183
f 139 183 182
f 139 183 184
f 139 184 183
v 0.000000 0.020000 -0.000000 0.180 0.500 0.200
v 0.001469 0.024916 0.013124 0.180 0.500 0.200
v 0.001844 0.029831 0.026789 0.180 0.500 0.200
v 0.001884 0.034747 0.040619 0.180 0.500 0.200
v 0.001898 0.039663 0.054461 0.180 0.500 0.200
v 0.002117 0.044579 0.068203 0.180 0.500 0.200
v 0.002729 0.049494 0.081750 0.180 0.500 0.200
v 0.003899 0.054410 0.095022 0.180 0.500 0.200
v 0.005763 0.059326 0.107951 0.180 0.500 0.200
v 0.008435 0.064242 0.120482 0.180 0.500 0.200
v 0.012000 0.069157 0.132571 0.180 0.500 0.200
v 0.016516 0.074073 0.144192 0.180 0.500 0.200
v 0.022013 0.078989 0.155328 0.180 0.500 0.200
v 0.028491 0.083905 0.165980 0.180 0.500 0.200
v 0.035920 0.088820 0.176162 0.180 0.500 0.200
v 0.044242 0.093736 0.185903 0.180 0.500 0.200
v 0.053372 0.098652 0.195246 0.180 0.500 0.200
v 0.063196 0.103567 0.204246 0.180 0.500 0.200
v 0.073578 0.108483 0.212971 0.180 0.500 0.200
v 0.084354 0.113399 0.221501 0.180 0.500 0.200
v 0.095333 0.118315 0.229931 0.180 0.500 0.200
v 0.106287 0.123230 0.238373 0.180 0.500 0.200
v 0.116907 0.128146 0.246981 0.180 0.500 0.200
v 0.126431 0.133062 0.256129 0.180 0.500 0.200
v 0.124962 0.128146 0.243004 0.180 0.500 0.200
v 0.124588 0.123230 0.229340 0.180 0.500 0.200
v 0.124548 0.118315 0.215510 0.180 0.500 0.200
v 0.124533 0.113399 0.201668 0.180 0.500 0.200
v 0.124315 0.108483 0.187926 0.180 0.500 0.200
v 0.123702 0.103567 0.174379 0.180 0.500 0.200
v 0.122533 0.098652 0.161107 0.180 0.500 0.200
v 0.120668 0.093736 0.148177 0.180 0.500 0.200
v 0.117997 0.088820 0.135647 0.180 0.500 0.200
v 0.114432 0.083905 0.123557 0.180 0.500 0.200
v 0.109915 0.078989 0.111937 0.180 0.500 0.200
v 0.104418 0.074073 0.100801 0.180 0.500 0.200
v 0.097941 0.069157 0.090149 0.180 0.500 0.200
v 0.090512 0.064242 0.079967 0.180 0.500 0.200
v 0.082189 0.059326 0.070225 0.180 0.500 0.200
v 0.073060 0.054410 0.060882 0.180 0.500 0.200
v 0.063235 0.049494 0.051882 0.180 0.500 0.200
v 0.052853 0.044579 0.043158 0.180 0.500 0.200
v 0.042078 0.039663 0.034627 0.180 0.500 0.200
v 0.031098 0.034747 0.026198 0.180 0.500 0.200
v 0.020144 0.029831 0.017755 0.180 0.500 0.200
v 0.009525 0.024916 0.009148 0.180 0.500 0.200
f 185 186 187
f 185 187 186
f 185 187 188
f 185 188 187
f 185 188 189
f 185 189 188
f 185 189 190
f 185 190 189
f 185 190 191
f 185 191 190
f 185 191 192
f 185 192 191
f 185 192 193
f 185 193 192
f 185 193 194
f 185 194 193
f 185 194 195
f 185 195 194
f 185 195 196
f 185 196 195
f 185 196 197
f 185 197 196
f 185 197 198
f 185 198 197
f 185 198 199
f 185 199 198
f 185 199 200
f 185 200 199
f 185 200 201
f 185 201 200
f 185 201 202
f 185 202 201
f 185 202 203
f 185 203 202
f 185 203 204
f 185 204 203
f 185 204 205
f 185 205 204
f 185 205 206
f 185 206 205
f 185 206 207
f 185 207 206
f 185 207 208
f 185 208 207
f 185 208 209
f 185 209 208
f 185 209 210
f 185 210 209
f 185 210 211
f 185 211 210
f 185 211 212
f 185 212 211
f 185 212 213
f 185 213 212
f 185 213 214
f 185 214 213
f 185 214 215
f 185 215 214
f 185 215 216
f 185 216 215
f 185 216 217
f 185 217 216
f 185 217 218
f 185 218 217
f 185 218 219
f 185 219 218
f 185 219 220
f 185 220 219
f 185 220 221
f 185 221 220
f 185 221 222
f 185 222 221
f 185 222 223
f 185 223 222
f 185 223 224
f 185 224 223
f 185 224 225
f 185 225 224
f 185 225 226
f 185 226 225
f 185 226 227
f 185 227 226
f 185 227 228
f 185 228 227
f 185 228 229
f 185 229 228
f 185 229 230
f 185 230 229
v 0.000000 0.020000 -0.000000 0.180 0.500 0.200
v -0.004294 0.024189 0.012851 0.180 0.500 0.200
v -0.009816 0.028377 0.025723 0.180 0.500 0.200
v -0.015714 0.032566 0.038603 0.180 0.500 0.200
v -0.021641 0.036754 0.051482 0.180 0.500 0.200
v -0.027339 0.040943 0.064358 0.180 0.500 0.200
v -0.032594 0.045132 0.077226 0.180 0.500 0.200
v -0.037225 0.049320 0.090083 0.180 0.500 0.200
v -0.041075 0.053509 0.102926 0.180 0.500 0.200
v -0.044020 0.057697 0.115753 0.180 0.500 0.200
v -0.045962 0.061886 0.128562 0.180 0.500 0.200
v -0.046836 0.066074 0.141352 0.180 0.500 0.200
v -0.046611 0.070263 0.154123 0.180 0.500 0.200
v -0.045284 0.074452 0.166875 0.180 0.500 0.200
v -0.042890 0.078640 0.179607 0.180 0.500 0.200
v -0.039494 0.082829 0.192322 0.180 0.500 0.200
v -0.035192 0.087017 0.205021 0.180 0.500 0.200
v -0.030109 0.091206 0.217706 0.180 0.500 0.200
v -0.024402 0.095395 0.230380 0.180 0.500 0.200
v -0.018253 0.099583 0.243046 0.180 0.500 0.200
v -0.011874 0.103772 0.255708 0.180 0.500 0.200
v -0.005525 0.107960 0.268371 0.180 0.500 0.200
v 0.000449 0.112149 0.281040 0.180 0.500 0.200
v 0.005195 0.116337 0.293731 0.180 0.500 0.200
v 0.009489 0.112149 0.280880 0.180 0.500 0.200
v 0.015012 0.107960 0.268008 0.180 0.500 0.200
v 0.020910 0.103772 0.255128 0.180 0.500 0.200
v 0.026836 0.099583 0.242249 0.180 0.500 0.200
v 0.032534 0.095395 0.229373 0.180 0.500 0.200
v 0.037789 0.091206 0.216505 0.180 0.500 0.200
v 0.042420 0.087017 0.203648 0.180 0.500 0.200
v 0.046270 0.082829 0.190805 0.180 0.500 0.200
v 0.049215 0.078640 0.177978 0.180 0.500 0.200
v 0.051157 0.074452 0.165169 0.180 0.500 0.200
v 0.052032 0.070263 0.152379 0.180 0.500 0.200
v 0.051806 0.066074 0.139608 0.180 0.500 0.200
v 0.050479 0.061886 0.126856 0.180 0.500 0.200
v 0.048086 0.057697 0.114124 0.180 0.500 0.200
v 0.044689 0.053509 0.101409 0.180 0.500 0.200
v 0.040387 0.049320 0.088710 0.180 0.500 0.200
v 0.035305 0.045132 0.076025 0.180 0.500 0.200
v 0.029597 0.040943 0.063351 0.180 0.500 0.200
v 0.023448 0.036754 0.050685 0.180 0.500 0.200
v 0.017070 0.032566 0.038023 0.180 0.500 0.200
v 0.010720 0.028377 0.025360 0.180 0.500 0.200
v 0.004746 0.024189 0.012691 0.180 0.500 0.200
f 231 232 233
f 231 233 232
f 231 233 234
f 231 234 233
f 231 234 235
f 231 235 234
f 231 235 236
f 231 236 235
f 231 236 237
f 231 237 236
f 231 237 238
f 231 238 237
f 231 238 239
f 231 239 238
f 231 239 240
f 231 240 239
f 231 240 241
f 231 241 240
f 231 241 242
f 231 242 241
f 231 242 243
f 231 243 242
f 231 243 244
f 231 244 243
f 231 244 245
f 231 245 244
f 231 245 246
f 231 246 245
f 231 246 247
f 231 247 246
f 231 247 248
f 231 248 247
f 231 248 249
f 231 249 248
f 231 249 250
f 231 250 249
f 231 250 251
f 231 251 250
f 231 251 252
f 231 252 251
f 231 252 253
f 231 253 252
f 231 253 254
f 231 254 253
f 231 254 255
f 231 255 254
f 231 255 256
f 231 256 255
f 231 256 257
f 231 257 256
f 231 257 258
f 231 258 257
f 231 258 259
f 231 259 258
f 231 259 260
f 231 260 259
f 231 260 261
f 231 261 260
f 231 261 262
f 231 262 261
f 231 262 263
f 231 263 262
f 231 263 264
f 231 264 263
f 231 264 265
f 231 265 264
f 231 265 266
f 231 266 265
f 231 266 267
f 231 267 266
f 231 267 268
f 231 268 267
f 231 268 269
f 231 269 268
f 231 269 270
f 231 270 269
f 231 270 271
f 231 271 270
f 231 271 272
f 231 272 271
f 231 272 273
f 231 273 272
f 231 273 274
f 231 274 273
f 231 274 275
f 231 275 274
f 231 275 276
f 231 276 275
v 0.000000 0.020000 -0.000000 0.180 0.500 0.200
v -0.011300 0.028022 0.008942 0.180 0.500 0.200
v -0.023835 0.036044 0.017164 0.180 0.500 0.200
v -0.036747 0.044065 0.025166 0.180 0.500 0.200
v -0.049687 0.052087 0.033151 0.180 0.500 0.200
v -0.062398 0.060109 0.041271 0.180 0.500 0.200
v -0.074664 0.068131 0.049649 0.180 0.500 0.200
v -0.086303 0.076152 0.058394 0.180 0.500 0.200
v -0.097157 0.084174 0.067596 0.180 0.500 0.200
v -0.107102 0.092196 0.077328 0.180 0.500 0.200
v -0.116039 0.100218 0.087648 0.180 0.500 0.200
v -0.123904 0.108240 0.098593 0.180 0.500 0.200
v -0.130663 0.116261 0.110184 0.180 0.500 0.200
v -0.136316 0.124283 0.122419 0.180 0.500 0.200
v -0.140897 0.132305 0.135279 0.180 0.500 0.200
v -0.144470 0.140327 0.148727 0.180 0.500 0.200
v -0.147134 0.148349 0.162706 0.180 0.500 0.200
v -0.149013 0.156370 0.177141 0.180 0.500 0.200
v -0.150265 0.164392 0.191943 0.180 0.500 0.200
v -0.151072 0.172414 0.207004 0.180 0.500 0.200
v -0.151650 0.180436 0.222199 0.180 0.500 0.200
v -0.152256 0.188457 0.237377 0.180 0.500 0.200
v -0.153239 0.196479 0.252336 0.180 0.500 0.200
v -0.155457 0.204501 0.266574 0.180 0.500 0.200
v -0.144157 0.196479 0.257632 0.180 0.500 0.200
v -0.131622 0.188457 0.249410 0.180 0.500 0.200
v -0.118710 0.180436 0.241408 0.180 0.500 0.200
v -0.105770 0.172414 0.233423 0.180 0.500 0.200
v -0.093059 0.164392 0.225304 0.180 0.500 0.200
v -0.080793 0.156370 0.216925 0.180 0.500 0.200
v -0.069154 0.148349 0.208180 0.180 0.500 0.200
v -0.058300 0.140327 0.198979 0.180 0.500 0.200
v -0.048355 0.132305 0.189246 0.180 0.500 0.200
v -0.039418 0.124283 0.178926 0.180 0.500 0.200
v -0.031553 0.116261 0.167981 0.180 0.500 0.200
v -0.024794 0.108240 0.156391 0.180 0.500 0.200
v -0.019141 0.100218 0.144156 0.180 0.500 0.200
v -0.014560 0.092196 0.131295 0.180 0.500 0.200
v -0.010987 0.084174 0.117847 0.180 0.500 0.200
v -0.008323 0.076152 0.103869 0.180 0.500 0.200
v -0.006444 0.068131 0.089433 0.180 0.500 0.200
v -0.005192 0.060109 0.074631 0.180 0.500 0.200
v -0.004385 0.052087 0.059570 0.180 0.500 0.200
v -0.003807 0.044065 0.044375 0.180 0.500 0.200
v -0.003201 0.036044 0.029197 0.180 0.500 0.200
v -0.002218 0.028022 0.014239 0.180 0.500 0.200
f 277 278 279
f 277 279 278
f 277 279 280
f 277 280 279
f 277 280 281
f 277 281 280
f 277 281 282
f 277 282 281
f 277 282 283
f 277 283 282
f 277 283 284
f 277 284 283
f 277 284 285
f 277 285 284
f 277 285 286
f 277 286 285
f 277 286 287
f 277 287 286
f 277 287 288
f 277 288 287
f 277 288 289
f 277 289 288
f 277 289 290
f 277 290 289
f 277 290 291
f 277 291 290
f 277 291 292
f 277 292 291
f 277 292 293
f 277 293 292
f 277 293 294
f 277 294 293
f 277 294 295
f 277 295 294
f 277 295 296
f 277 296 295
f 277 296 297
f 277 297 296
f 277 297 298
f 277 298 297
f 277 298 299
f 277 299 298
f 277 299 300
f 277 300 299
f 277 300 301
f 277 301 300
f 277 301 302
f 277 302 301
f 277 302 303
f 277 303 302
f 277 303 304
f 277 304 303
f 277 304 305
f 277 305 304
f 277 305 306
f 277 306 305
f 277 306 307
f 277 307 306
f 277 307 308
f 277 308 307
f 277 308 309
f 277 309 308
f 277 309 310
f 277 310 309
f 277 310 311
f 277 311 310
f 277 311 312
f 277 312 311
f 277 312 313
f 277 313 312
f 277 313 314
f 277 314 313
f 277 314 315
f 277 315 314
f 277 315 316
f 277 316 315
f 277 316 317
f 277 317 316
f 277 317 318
f 277 318 317
f 277 318 319
f 277 319 318
f 277 319 320
f 277 320 319
f 277 320 321
f 277 321 320
f 277 321 322
f 277 322 321
v 0.000000 0.020000 -0.000000 0.180 0.500 0.200
v -0.011445 0.028954 -0.003161 0.180 0.500 0.200
v -0.023072 0.037908 -0.007597 0.180 0.500 0.200
v -0.034754 0.046861 -0.012423 0.180 0.500 0.200
v -0.046440 0.055815 -0.017279 0.180 0.500 0.200
v -0.058092 0.064769 -0.021897 0.180 0.500 0.200
v -0.069680 0.073723 -0.026056 0.180 0.500 0.200
v -0.081174 0.082677 -0.029566 0.180 0.500 0.200
v -0.092554 0.091631 -0.032266 0.180 0.500 0.200
v -0.103800 0.100584 -0.034026 0.180 0.500 0.200
v -0.114898 0.109538 -0.034744 0.180 0.500 0.200
v -0.125839 0.118492 -0.034355 0.180 0.500 0.200
v -0.136616 0.127446 -0.032822 0.180 0.500 0.200
v -0.147232 0.136400 -0.030147 0.180 0.500 0.200
v -0.157690 0.145353 -0.026364 0.180 0.500 0.200
v -0.168000 0.154307 -0.021539 0.180 0.500 0.200
v -0.178176 0.163261 -0.015774 0.180 0.500 0.200
v -0.188237 0.172215 -0.009199 0.180 0.500 0.200
v -0.198205 0.181169 -0.001975 0.180 0.500 0.200
v -0.208109 0.190123 0.005708 0.180 0.500 0.200
v -0.217979 0.199076 0.013628 0.180 0.500 0.200
v -0.227852 0.208030 0.021519 0.180 0.500 0.200
v -0.237782 0.216984 0.029020 0.180 0.500 0.200
v -0.247892 0.225938 0.035246 0.180 0.500 0.200
v -0.236447 0.216984 0.038406 0.180 0.500 0.200
v -0.224821 0.208030 0.042843 0.180 0.500 0.200
v -0.213139 0.199076 0.047669 0.180 0.500 0.200
v -0.201452 0.190123 0.052524 0.180 0.500 0.200
v -0.189800 0.181169 0.057143 0.180 0.500 0.200
v -0.178213 0.172215 0.061302 0.180 0.500 0.200
v -0.166718 0.163261 0.064812 0.180 0.500 0.200
v -0.155338 0.154307 0.067512 0.180 0.500 0.200
v -0.144092 0.145353 0.069271 0.180 0.500 0.200
v -0.132994 0.136400 0.069990 0.180 0.500 0.200
v -0.122054 0.127446 0.069600 0.180 0.500 0.200
v -0.111276 0.118492 0.068068 0.180 0.500 0.200
v -0.100660 0.109538 0.065393 0.180 0.500 0.200
v -0.090203 0.100584 0.061609 0.180 0.500 0.200
v -0.079893 0.091631 0.056785 0.180 0.500 0.200
v -0.069717 0.082677 0.051020 0.180 0.500 0.200
v -0.059656 0.073723 0.044445 0.180 0.500 0.200
v -0.049687 0.064769 0.037221 0.180 0.500 0.200
v -0.039783 0.055815 0.029538 0.180 0.500 0.200
v -0.029914 0.046861 0.021618 0.180 0.500 0.200
v -0.020040 0.037908 0.013727 0.180 0.500 0.200
v -0.010111 0.028954 0.006226 0.180 0.500 0.200
f 323 324 325
f 323 325 324
f 323 325 326
f 323 326 325
f 323 326 327
f 323 327 326
f 323 327 328
f 323 328 327
f 323 328 329
f 323 329 328
f 323 329 330
f 323 330 329
f 323 330 331
f 323 331 330
f 323 331 332
f 323 332 331
f 323 332 333
f 323 333 332
f 323 333 334
f 323 334 333
f 323 334 335
f 323 335 334
f 323 335 336
f 323 336 335
f 323 336 337
f 323 337 336
f 323 337 338
f 323 338 337
f 323 338 339
f 323 339 338
f 323 339 340
f 323 340 339
f 323 340 341
f 323 341 340
f 323 341 342
f 323 342 341
f 323 342 343
f 323 343 342
f 323 343 344
f 323 344 343
f 323 344 345
f 323 345 344
f 323 345 346
f 323 346 345
f 323 346 347
f 323 347 346
f 323 347 348
f 323 348 347
f 323 348 349
f 323 349 348
f 323 349 350
f 323 350 349
f 323 350 351
f 323 351 350
f 323 351 352
f 323 352 351
f 323 352 353
f 323 353 352
f 323 353 354
f 323 354 353
f 323 354 355
f 323 355 354
f 323 355 356
f 323 356 355
f 323 356 357
f 323 357 356
f 323 357 358
f 323 358 357
f 323 358 359
f 323 359 358
f 323 359 360
f 323 360 359
f 323 360 361
f 323 361 360
f 323 361 362
f 323 362 361
f 323 362 363
f 323 363 362
f 323 363 364
f 323 364 363
f 323 364 365
f 323 365 364
f 323 365 366
f 323 366 365
f 323 366 367
f 323 367 366
f 323 367 368
f 323 368 367
v 0.000000 0.020000 -0.000000 0.180 0.500 0.200
v -0.014420 0.023979 -0.010138 0.180 0.500 0.200
v -0.028408 0.027959 -0.021780 0.180 0.500 0.200
v -0.042263 0.031938 -0.033882 0.180 0.500 0.200
v -0.056109 0.035918 -0.046019 0.180 0.500 0.200
v -0.070035 0.039897 -0.057876 0.180 0.500 0.200
v -0.084117 0.043877 -0.069192 0.180 0.500 0.200
v -0.098418 0.047856 -0.079741 0.180 0.500 0.200
v -0.112995 0.051835 -0.089336 0.180 0.500 0.200
v -0.127890 0.055815 -0.097821 0.180 0.500 0.200
v -0.143138 0.059794 -0.105078 0.180 0.500 0.200
v -0.158762 0.063774 -0.111027 0.180 0.500 0.200
v -0.174773 0.067753 -0.115629 0.180 0.500 0.200
v -0.191172 0.071733 -0.118883 0.180 0.500 0.200
v -0.207946 0.075712 -0.120829 0.180 0.500 0.200
v -0.225073 0.079691 -0.121547 0.180 0.500 0.200
v -0.242520 0.083671 -0.121156 0.180 0.500 0.200
v -0.260240 0.087650 -0.119809 0.180 0.500 0.200
v -0.278181 0.091630 -0.117697 0.180 0.500 0.200
v -0.296278 0.095609 -0.115043 0.180 0.500 0.200
v -0.314454 0.099588 -0.112109 0.180 0.500 0.200
v -0.332621 0.103568 -0.109210 0.180 0.500 0.200
v -0.350656 0.107547 -0.106771 0.180 0.500 0.200
v -0.368258 0.111527 -0.105837 0.180 0.500 0.200
v -0.353838 0.107547 -0.095699 0.180 0.500 0.200
v -0.339850 0.103568 -0.084057 0.180 0.500 0.200
v -0.325995 0.099588 -0.071955 0.180 0.500 0.200
v -0.312149 0.095609 -0.059818 0.180 0.500 0.200
v -0.298223 0.091630 -0.047961 0.180 0.500 0.200
v -0.284142 0.087650 -0.036645 0.180 0.500 0.200
v -0.269840 0.083671 -0.026096 0.180 0.500 0.200
v -0.255264 0.079691 -0.016501 0.180 0.500 0.200
v -0.240368 0.075712 -0.008016 0.180 0.500 0.200
v -0.225120 0.071733 -0.000759 0.180 0.500 0.200
v -0.209496 0.067753 0.005190 0.180 0.500 0.200
v -0.193485 0.063774 0.009792 0.180 0.500 0.200
v -0.177087 0.059794 0.013046 0.180 0.500 0.200
v -0.160312 0.055815 0.014992 0.180 0.500 0.200
v -0.143185 0.051835 0.015710 0.180 0.500 0.200
v -0.125739 0.047856 0.015319 0.180 0.500 0.200
v -0.108018 0.043877 0.013972 0.180 0.500 0.200
v -0.090077 0.039897 0.011860 0.180 0.500 0.200
v -0.071981 0.035918 0.009206 0.180 0.500 0.200
v -0.053804 0.031938 0.006273 0.180 0.500 0.200
v -0.035637 0.027959 0.003373 0.180 0.500 0.200
v -0.017602 0.023979 0.000935 0.180 0.500 0.200
f 369 370 371
f 369 371 370
f 369 371 372
f 369 372 371
f 369 372 373
f 369 373 372
f 369 373 374
f 369 374 373
f 369 374 375
f 369 375 374
f 369 375 376
f 369 376 375
f 369 376 377
f 369 377 376
f 369 377 378
f 369 378 377
f 369 378 379
f 369 379 378
f 369 379 380
f 369 380 379
f 369 380 381
f 369 381 380
f 369 381 382
f 369 382 381
f 369 382 383
f 369 383 382
f 369 383 384
f 369 384 383
f 369 384 385
f 369 385 384
f 369 385 386
f 369 386 385
f 369 386 387
f 369 387 386
f 369 387 388
f 369 388 387
f 369 388 389
f 369 389 388
f 369 389 390
f 369 390 389
f 369 390 391
f 369 391 390
f 369 391 392
f 369 392 391
f 369 392 393
f 369 393 392
f 369 393 394
f 369 394 393
f 369 394 395
f 369 395 394
f 369 395 396
f 369 396 395
f 369 396 397
f 369 397 396
f 369 397 398
f 369 398 397
f 369 398 399
f 369 399 398
f 369 399 400
f 369 400 399
f 369 400 401
f 369 401 400
f 369 401 402
f 369 402 401
f 369 402 403
f 369 403 402
f 369 403 404
f 369 404 403
f 369 404 405
f 369 405 404
f 369 405 406
f 369 406 405
f 369 406 407
f 369 407 406
f 369 407 408
f 369 408 407
f 369 408 409
f 369 409 408
f 369 409 410
f 369 410 409
f 369 410 411
f 369 411 410
f 369 411 412
f 369 412 411
f 369 412 413
f 369 413 412
f 369 413 414
f 369 414 413
v 0.000000 0.020000 -0.000000 0.180 0.500 0.200
v -0.001432 0.029236 -0.013250 0.180 0.500 0.200
v -0.001636 0.038472 -0.027180 0.180 0.500 0.200
v -0.001464 0.047707 -0.041319 0.180 0.500 0.200
v -0.001263 0.056943 -0.055473 0.180 0.500 0.200
v -0.001291 0.066179 -0.069501 0.180 0.500 0.200
v -0.001762 0.075415 -0.083283 0.180 0.500 0.200
v -0.002858 0.084651 -0.096720 0.180 0.500 0.200
v -0.004734 0.093886 -0.109724 0.180 0.500 0.200
v -0.007516 0.103122 -0.122225 0.180 0.500 0.200
v -0.011300 0.112358 -0.134172 0.180 0.500 0.200
v -0.016153 0.121594 -0.145527 0.180 0.500 0.200
v -0.022106 0.130829 -0.156272 0.180 0.500 0.200
v -0.029160 0.140065 -0.166407 0.180 0.500 0.200
v -0.037282 0.149301 -0.175950 0.180 0.500 0.200
v -0.046406 0.158537 -0.184938 0.180 0.500 0.200
v -0.056437 0.167773 -0.193424 0.180 0.500 0.200
v -0.067247 0.177008 -0.201477 0.180 0.500 0.200
v -0.078683 0.186244 -0.209185 0.180 0.500 0.200
v -0.090562 0.195480 -0.216647 0.180 0.500 0.200
v -0.102668 0.204716 -0.223982 0.180 0.500 0.200
v -0.114747 0.213952 -0.231333 0.180 0.500 0.200
v -0.126450 0.223187 -0.238893 0.180 0.500 0.200
v -0.136924 0.232423 -0.247133 0.180 0.500 0.200
v -0.135492 0.223187 -0.233883 0.180 0.500 0.200
v -0.135288 0.213952 -0.219953 0.180 0.500 0.200
v -0.135460 0.204716 -0.205814 0.180 0.500 0.200
v -0.135660 0.195480 -0.191660 0.180 0.500 0.200
v -0.135632 0.186244 -0.177632 0.180 0.500 0.200
v -0.135162 0.177008 -0.163849 0.180 0.500 0.200
v -0.134066 0.167773 -0.150413 0.180 0.500 0.200
v -0.132190 0.158537 -0.137409 0.180 0.500 0.200
v -0.129408 0.149301 -0.124907 0.180 0.500 0.200
v -0.125623 0.140065 -0.112961 0.180 0.500 0.200
v -0.120771 0.130829 -0.101606 0.180 0.500 0.200
v -0.114818 0.121594 -0.090861 0.180 0.500 0.200
v -0.107764 0.112358 -0.080726 0.180 0.500 0.200
v -0.099642 0.103122 -0.071183 0.180 0.500 0.200
v -0.090518 0.093886 -0.062195 0.180 0.500 0.200
v -0.080487 0.084651 -0.053709 0.180 0.500 0.200
v -0.069677 0.075415 -0.045655 0.180 0.500 0.200
v -0.058241 0.066179 -0.037948 0.180 0.500 0.200
v -0.046362 0.056943 -0.030486 0.180 0.500 0.200
v -0.034255 0.047707 -0.023151 0.180 0.500 0.200
v -0.022177 0.038472 -0.015799 0.180 0.500 0.200
v -0.010474 0.029236 -0.008240 0.180 0.500 0.200
f 415 416 417
f 415 417 416
f 415 417 418
f 415 418 417
f 415 418 419
f 415 419 418
f 415 419 420
f 415 420 419
f 415 420 421
f 415 421 420
f 415 421 422
f 415 422 421
f 415 422 423
f 415 423 422
f 415 423 424
f 415 424 423
f 415 424 425
f 415 425 424
f 415 425 426
f 415 426 425
f 415 426 427
f 415 427 426
f 415 427 428
f 415 428 427
f 415 428 429
f 415 429 428
f 415 429 430
f 415 430 429
f 415 430 431
f 415 431 430
f 415 431 432
f 415 432 431
f 415 432 433
f 415 433 432
f 415 433 434
f 415 434 433
f 415 434 435
f 415 435 434
f 415 435 436
f 415 436 435
f 415 436 437
f 415 437 436
f 415 437 438
f 415 438 437
f 415 438 439
f 415 439 438
f 415 439 440
f 415 440 439
f 415 440 441
f 415 441 440
f 415 441 442
f 415 442 441
f 415 442 443
f 415 443 442
f 415 443 444
f 415 444 443
f 415 444 445
f 415 445 444
f 415 445 446
f 415 446 445
f 415 446 447
f 415 447 446
f 415 447 448
f 415 448 447
f 415 448 449
f 415 449 448
f 415 449 450
f 415 450 449
f 415 450 451
f 415 451 450
f 415 451 452
f 415 452 451
f 415 452 453
f 415 453 452
f 415 453 454
f 415 454 453
f 415 454 455
f 415 455 454
f 415 455 456
f 415 456 455
f 415 456 457
f 415 457 456
f 415 457 458
f 415 458 457
f 415 458 459
f 415 459 458
f 415 459 460
f 415 460 459
v 0.000000 -0.000519 0.011989 0.200 0.440 0.170
v 0.011403 -0.000633 0.003684 0.200 0.440 0.170
v 0.007047 0.000128 -0.009712 0.200 0.440 0.170
v -0.007047 0.000712 -0.009686 0.200 0.440 0.170
v -0.011403 0.000312 0.003725 0.200 0.440 0.170
v 0.009721 0.233596 0.019121 0.200 0.440 0.170
v 0.018273 0.233511 0.012893 0.200 0.440 0.170
v 0.015006 0.234081 0.002846 0.200 0.440 0.170
v 0.004435 0.234520 0.002865 0.200 0.440 0.170
v 0.001168 0.234220 0.012923 0.200 0.440 0.170
f 461 462 467
f 461 467 466
f 462 463 468
f 462 468 467
f 463 464 469
f 463 469 468
f 464 465 470
f 464 470 469
f 465 461 466
f 465 466 470
v 0.009721 0.232440 0.022030 0.200 0.440 0.170
v 0.021047 0.232120 0.013627 0.200 0.440 0.170
v 0.016721 0.234378 0.000391 0.200 0.440 0.170
v 0.002720 0.236094 0.000614 0.200 0.440 0.170
v -0.001606 0.234896 0.013987 0.200 0.440 0.170
v 0.038882 0.466812 0.049443 0.200 0.440 0.170
v 0.047377 0.466572 0.043141 0.200 0.440 0.170
v 0.044132 0.468265 0.033214 0.200 0.440 0.170
v 0.033632 0.469552 0.033381 0.200 0.440 0.170
v 0.030387 0.468654 0.043411 0.200 0.440 0.170
f 471 472 477
f 471 477 476
f 472 473 478
f 472 478 477
f 473 474 479
f 473 479 478
f 474 475 480
f 474 480 479
f 475 471 476
f 475 476 480
v 0.038882 0.465432 0.052247 0.200 0.440 0.170
v 0.050067 0.464967 0.043662 0.200 0.440 0.170
v 0.045795 0.468653 0.030733 0.200 0.440 0.170
v 0.031970 0.471396 0.031327 0.200 0.440 0.170
v 0.027698 0.469406 0.044623 0.200 0.440 0.170
v 0.087485 0.700053 0.099962 0.200 0.440 0.170
v 0.095874 0.699704 0.093524 0.200 0.440 0.170
v 0.092670 0.702468 0.083827 0.200 0.440 0.170
v 0.082301 0.704526 0.084272 0.200 0.440 0.170
v 0.079097 0.703033 0.094244 0.200 0.440 0.170
f 481 482 487
f 481 487 486
f 482 483 488
f 482 488 487
f 483 484 489
f 483 489 488
f 484 485 490
f 484 490 489
f 485 481 486
f 485 486 490
v 0.087485 0.698476 0.102650 0.200 0.440 0.170
v 0.098480 0.697953 0.093827 0.200 0.440 0.170
v 0.094280 0.702962 0.081326 0.200 0.440 0.170
v 0.080690 0.706582 0.082423 0.200 0.440 0.170
v 0.076490 0.703810 0.095602 0.200 0.440 0.170
v 0.155529 0.933332 0.170686 0.200 0.440 0.170
v 0.163775 0.932939 0.164069 0.200 0.440 0.170
v 0.160626 0.936696 0.154693 0.200 0.440 0.170
v 0.150433 0.939411 0.155516 0.200 0.440 0.170
v 0.147283 0.937332 0.165400 0.200 0.440 0.170
f 491 492 497
f 491 497 496
f 492 493 498
f 492 498 497
f 493 494 499
f 493 499 498
f 494 495 500
f 494 500 499
f 495 491 496
f 495 496 500
v 0.164188 0.935942 0.153764 0.200 0.440 0.170
v 0.151252 0.941365 0.152259 0.200 0.440 0.170
v 0.144227 0.939293 0.164316 0.200 0.440 0.170
v 0.152822 0.932591 0.173272 0.200 0.440 0.170
v 0.165158 0.930519 0.166751 0.200 0.440 0.170
v 0.249508 1.169928 0.247007 0.200 0.440 0.170
v 0.239806 1.173995 0.245879 0.200 0.440 0.170
v 0.234538 1.172441 0.254921 0.200 0.440 0.170
v 0.240984 1.167414 0.261638 0.200 0.440 0.170
v 0.250236 1.165860 0.256747 0.200 0.440 0.170
f 501 502 507
f 501 507 506
f 502 503 508
f 502 508 507
f 503 504 509
f 503 509 508
f 504 505 510
f 504 510 509
f 505 501 506
f 505 506 510
v 0.033501 0.409475 0.029583 0.200 0.440 0.170
v 0.030676 0.412581 0.033373 0.200 0.440 0.170
v 0.026037 0.409475 0.032461 0.200 0.440 0.170
v 0.028863 0.406368 0.028671 0.200 0.440 0.170
v 0.089180 0.281856 0.176756 0.200 0.440 0.170
v 0.087061 0.284186 0.179599 0.200 0.440 0.170
v 0.083582 0.281856 0.178915 0.200 0.440 0.170
v 0.085701 0.279526 0.176072 0.200 0.440 0.170
f 511 512 516
f 511 516 515
f 512 513 517
f 512 517 516
f 513 514 518
f 513 518 517
f 514 511 515
f 514 515 518
v 0.086381 0.289332 0.177835 0.550 0.750 0.300
v 0.086381 0.289332 0.177835 0.550 0.750 0.300
v 0.086381 0.289332 0.177835 0.550 0.750 0.300
v 0.086381 0.289332 0.177835 0.550 0.750 0.300
v 0.086381 0.289332 0.177835 0.550 0.750 0.300
v 0.086381 0.289332 0.177835 0.550 0.750 0.300
v 0.086381 0.289332 0.177835 0.550 0.750 0.300
v 0.086381 0.289332 0.177835 0.550 0.750 0.300
v 0.086381 0.289332 0.177835 0.550 0.750 0.300
v 0.130323 0.265060 0.177835 0.550 0.750 0.300
v 0.120043 0.265060 0.149590 0.550 0.750 0.300
v 0.094011 0.265060 0.134561 0.550 0.750 0.300
v 0.064410 0.265060 0.139780 0.550 0.750 0.300
v 0.045089 0.265060 0.162806 0.550 0.750 0.300
v 0.045089 0.265060 0.192865 0.550 0.750 0.300
v 0.064410 0.265060 0.215891 0.550 0.750 0.300
v 0.094011 0.265060 0.221110 0.550 0.750 0.300
v 0.120043 0.265060 0.206081 0.550 0.750 0.300
v 0.157481 0.201515 0.177835 0.550 0.750 0.300
v 0.140847 0.201515 0.132133 0.550 0.750 0.300
v 0.098727 0.201515 0.107815 0.550 0.750 0.300
v 0.050831 0.201515 0.116261 0.550 0.750 0.300
v 0.019568 0.201515 0.153518 0.550 0.750 0.300
v 0.019568 0.201515 0.202153 0.550 0.750 0.300
v 0.050831 0.201515 0.239410 0.550 0.750 0.300
v 0.098727 0.201515 0.247855 0.550 0.750 0.300
v 0.140847 0.201515 0.223538 0.550 0.750 0.300
v 0.157481 0.122968 0.177835 0.550 0.750 0.300
v 0.140847 0.122968 0.132133 0.550 0.750 0.300
v 0.098727 0.122968 0.107815 0.550 0.750 0.300
v 0.050831 0.122968 0.116261 0.550 0.750 0.300
v 0.019568 0.122968 0.153518 0.550 0.750 0.300
v 0.019568 0.122968 0.202153 0.550 0.750 0.300
v 0.050831 0.122968 0.239410 0.550 0.750 0.300
v 0.098727 0.122968 0.247855 0.550 0.750 0.300
v 0.140847 0.122968 0.223538 0.550 0.750 0.300
v 0.130323 0.059423 0.177835 0.550 0.750 0.300
v 0.120043 0.059423 0.149590 0.550 0.750 0.300
v 0.094011 0.059423 0.134561 0.550 0.750 0.300
v 0.064410 0.059423 0.139780 0.550 0.750 0.300
v 0.045089 0.059423 0.162806 0.550 0.750 0.300
v 0.045089 0.059423 0.192865 0.550 0.750 0.300
v 0.064410 0.059423 0.215891 0.550 0.750 0.300
v 0.094011 0.059423 0.221110 0.550 0.750 0.300
v 0.120043 0.059423 0.206081 0.550 0.750 0.300
v 0.086381 0.035151 0.177835 0.550 0.750 0.300
v 0.086381 0.035151 0.177835 0.550 0.750 0.300
v 0.086381 0.035151 0.177835 0.550 0.750 0.300
v 0.086381 0.035151 0.177835 0.550 0.750 0.300
v 0.086381 0.035151 0.177835 0.550 0.750 0.300
v 0.086381 0.035151 0.177835 0.550 0.750 0.300
v 0.086381 0.035151 0.177835 0.550 0.750 0.300
v 0.086381 0.035151 0.177835 0.550 0.750 0.300
v 0.086381 0.035151 0.177835 0.550 0.750 0.300
f 519 529 520
f 519 528 529
f 520 530 521
f 520 529 530
f 521 531 522
f 521 530 531
f 522 532 523
f 522 531 532
f 523 533 524
f 523 532 533
f 524 534 525
f 524 533 534
f 525 535 526
f 525 534 535
f 526 536 527
f 526 535 536
f 527 528 519
f 527 536 528
f 528 538 529
f 528 537 538
f 529 539 530
f 529 538 539
f 530 540 531
f 530 539 540
f 531 541 532
f 531 540 541
f 532 542 533
f 532 541 542
f 533 543 534
f 533 542 543
f 534 544 535
f 534 543 544
f 535 545 536
f 535 544 545
f 536 537 528
f 536 545 537
f 537 547 538
f 537 546 547
f 538 548 539
f 538 547 548
f 539 549 540
f 539 548 549
f 540 550 541
f 540 549 550
f 541 551 542
f 541 550 551
f 542 552 543
f 542 551 552
f 543 553 544
f 543 552 553
f 544 554 545
f 544 553 554
f 545 546 537
f 545 554 546
f 546 556 547
f 546 555 556
f 547 557 548
f 547 556 557
f 548 558 549
f 548 557 558
f 549 559 550
f 549 558 559
f 550 560 551
f 550 559 560
f 551 561 552
f 551 560 561
f 552 562 553
f 552 561 562
f 553 563 554
f 553 562 563
f 554 555 546
f 554 563 555
f 555 565 556
f 555 564 565
f 556 566 557
f 556 565 566
f 557 567 558
f 557 566 567
f 558 568 559
f 558 567 568
f 559 569 560
f 559 568 569
f 560 570 561
f 560 569 570
f 561 571 562
f 561 570 571
f 562 572 563
f 562 571 572
f 563 564 555
f 563 572 564
v 0.150824 0.274380 0.180230 0.753 0.863 0.615
v 0.157402 0.281380 0.177835 0.753 0.863 0.615
v 0.163980 0.274380 0.175441 0.753 0.863 0.615
v 0.157402 0.267380 0.177835 0.753 0.863 0.615
v 0.134208 0.274380 0.134578 0.753 0.863 0.615
v 0.140786 0.281380 0.132184 0.753 0.863 0.615
v 0.147364 0.274380 0.129790 0.753 0.863 0.615
v 0.140786 0.267380 0.132184 0.753 0.863 0.615
f 573 574 578
f 573 578 577
f 574 575 579
f 574 579 578
f 575 576 580
f 575 580 579
f 576 573 577
f 576 577 580
v 0.137286 0.274380 0.138246 0.753 0.863 0.615
v 0.140786 0.281380 0.132184 0.753 0.863 0.615
v 0.144286 0.274380 0.126122 0.753 0.863 0.615
v 0.140786 0.267380 0.132184 0.753 0.863 0.615
v 0.095213 0.274380 0.113955 0.753 0.863 0.615
v 0.098713 0.281380 0.107893 0.753 0.863 0.615
v 0.102213 0.274380 0.101831 0.753 0.863 0.615
v 0.098713 0.267380 0.107893 0.753 0.863 0.615
f 581 582 586
f 581 586 585
f 582 583 587
f 582 587 586
f 583 584 588
f 583 588 587
f 584 581 585
f 584 585 588
v 0.099929 0.274380 0.114787 0.753 0.863 0.615
v 0.098713 0.281380 0.107893 0.753 0.863 0.615
v 0.097498 0.274380 0.101000 0.753 0.863 0.615
v 0.098713 0.267380 0.107893 0.753 0.863 0.615
v 0.052086 0.274380 0.123223 0.753 0.863 0.615
v 0.050870 0.281380 0.116329 0.753 0.863 0.615
v 0.049655 0.274380 0.109436 0.753 0.863 0.615
v 0.050870 0.267380 0.116329 0.753 0.863 0.615
f 589 590 594
f 589 594 593
f 590 591 595
f 590 595 594
f 591 592 596
f 591 596 595
f 592 589 593
f 592 593 596
v 0.056232 0.274380 0.120829 0.753 0.863 0.615
v 0.050870 0.281380 0.116329 0.753 0.863 0.615
v 0.045508 0.274380 0.111830 0.753 0.863 0.615
v 0.050870 0.267380 0.116329 0.753 0.863 0.615
v 0.025005 0.274380 0.158044 0.753 0.863 0.615
v 0.019643 0.281380 0.153545 0.753 0.863 0.615
v 0.014280 0.274380 0.149045 0.753 0.863 0.615
v 0.019643 0.267380 0.153545 0.753 0.863 0.615
f 597 598 602
f 597 602 601
f 598 599 603
f 598 603 602
f 599 600 604
f 599 604 603
f 600 597 601
f 600 601 604
v 0.026643 0.274380 0.153545 0.753 0.863 0.615
v 0.019643 0.281380 0.153545 0.753 0.863 0.615
v 0.012643 0.274380 0.153545 0.753 0.863 0.615
v 0.019643 0.267380 0.153545 0.753 0.863 0.615
v 0.026643 0.274380 0.202126 0.753 0.863 0.615
v 0.019643 0.281380 0.202126 0.753 0.863 0.615
v 0.012643 0.274380 0.202126 0.753 0.863 0.615
v 0.019643 0.267380 0.202126 0.753 0.863 0.615
f 605 606 610
f 605 610 609
f 606 607 611
f 606 611 610
f 607 608 612
f 607 612 611
f 608 605 609
f 608 609 612
v 0.025005 0.274380 0.197627 0.753 0.863 0.615
v 0.019643 0.281380 0.202126 0.753 0.863 0.615
v 0.014280 0.274380 0.206626 0.753 0.863 0.615
v 0.019643 0.267380 0.202126 0.753 0.863 0.615
v 0.056232 0.274380 0.234842 0.753 0.863 0.615
v 0.050870 0.281380 0.239342 0.753 0.863 0.615
v 0.045508 0.274380 0.243841 0.753 0.863 0.615
v 0.050870 0.267380 0.239342 0.753 0.863 0.615
f 613 614 618
f 613 618 617
f 614 615 619
f 614 619 618
f 615 616 620
f 615 620 619
f 616 613 617
f 616 617 620
v 0.052086 0.274380 0.232448 0.753 0.863 0.615
v 0.050870 0.281380 0.239342 0.753 0.863 0.615
v 0.049655 0.274380 0.246235 0.753 0.863 0.615
v 0.050870 0.267380 0.239342 0.753 0.863 0.615
v 0.099929 0.274380 0.240884 0.753 0.863 0.615
v 0.098713 0.281380 0.247778 0.753 0.863 0.615
v 0.097498 0.274380 0.254671 0.753 0.863 0.615
v 0.098713 0.267380 0.247778 0.753 0.863 0.615
f 621 622 626
f 621 626 625
f 622 623 627
f 622 627 626
f 623 624 628
f 623 628 627
f 624 621 625
f 624 625 628
v 0.095213 0.274380 0.241715 0.753 0.863 0.615
v 0.098713 0.281380 0.247778 0.753 0.863 0.615
v 0.102213 0.274380 0.253840 0.753 0.863 0.615
v 0.098713 0.267380 0.247778 0.753 0.863 0.615
v 0.137286 0.274380 0.217425 0.753 0.863 0.615
v 0.140786 0.281380 0.223487 0.753 0.863 0.615
v 0.144286 0.274380 0.229549 0.753 0.863 0.615
v 0.140786 0.267380 0.223487 0.753 0.863 0.615
f 629 630 634
f 629 634 633
f 630 631 635
f 630 635 634
f 631 632 636
f 631 636 635
f 632 629 633
f 632 633 636
v 0.134208 0.274380 0.221093 0.753 0.863 0.615
v 0.140786 0.281380 0.223487 0.753 0.863 0.615
v 0.147364 0.274380 0.225881 0.753 0.863 0.615
v 0.140786 0.267380 0.223487 0.753 0.863 0.615
v 0.150824 0.274380 0.175441 0.753 0.863 0.615
v 0.157402 0.281380 0.177835 0.753 0.863 0.615
v 0.163980 0.274380 0.180230 0.753 0.863 0.615
v 0.157402 0.267380 0.177835 0.753 0.863 0.615
f 637 638 642
f 637 642 641
f 638 639 643
f 638 643 642
f 639 640 644
f 639 644 643
f 640 637 641
f 640 641 644
v 0.102519 0.274380 0.219687 0.413 0.562 0.225
v 0.108441 0.268957 0.237992 0.413 0.562 0.225
v 0.110957 0.263534 0.247465 0.413 0.562 0.225
v 0.112713 0.258111 0.254965 0.413 0.562 0.225
v 0.113997 0.252688 0.261242 0.413 0.562 0.225
v 0.114918 0.247265 0.266576 0.413 0.562 0.225
v 0.115525 0.241842 0.271098 0.413 0.562 0.225
v 0.115845 0.236419 0.274875 0.413 0.562 0.225
v 0.115893 0.230996 0.277946 0.413 0.562 0.225
v 0.115677 0.225573 0.280332 0.413 0.562 0.225
v 0.115201 0.220150 0.282045 0.413 0.562 0.225
v 0.114468 0.214727 0.283090 0.413 0.562 0.225
v 0.113478 0.209304 0.283472 0.413 0.562 0.225
v 0.112233 0.203881 0.283189 0.413 0.562 0.225
v 0.110731 0.198458 0.282239 0.413 0.562 0.225
v 0.108968 0.193035 0.280616 0.413 0.562 0.225
v 0.106942 0.187612 0.278308 0.413 0.562 0.225
v 0.104643 0.182189 0.275294 0.413 0.562 0.225
v 0.102058 0.176766 0.271535 0.413 0.562 0.225
v 0.099159 0.171343 0.266964 0.413 0.562 0.225
v 0.095896 0.165920 0.261449 0.413 0.562 0.225
v 0.092162 0.160497 0.254713 0.413 0.562 0.225
v 0.087667 0.155074 0.246003 0.413 0.562 0.225
v 0.079767 0.149651 0.228460 0.413 0.562 0.225
v 0.073845 0.155074 0.210155 0.413 0.562 0.225
v 0.071328 0.160497 0.200683 0.413 0.562 0.225
v 0.069573 0.165920 0.193183 0.413 0.562 0.225
v 0.068288 0.171343 0.186906 0.413 0.562 0.225
v 0.067368 0.176766 0.181572 0.413 0.562 0.225
v 0.066761 0.182189 0.177050 0.413 0.562 0.225
v 0.066440 0.187612 0.173273 0.413 0.562 0.225
v 0.066392 0.193035 0.170202 0.413 0.562 0.225
v 0.066609 0.198458 0.167816 0.413 0.562 0.225
v 0.067085 0.203881 0.166103 0.413 0.562 0.225
v 0.067818 0.209304 0.165057 0.413 0.562 0.225
v 0.068807 0.214727 0.164676 0.413 0.562 0.225
v 0.070052 0.220150 0.164959 0.413 0.562 0.225
v 0.071555 0.225573 0.165909 0.413 0.562 0.225
v 0.073317 0.230996 0.167532 0.413 0.562 0.225
v 0.075343 0.236419 0.169840 0.413 0.562 0.225
v 0.077642 0.241842 0.172854 0.413 0.562 0.225
v 0.080228 0.247265 0.176613 0.413 0.562 0.225
v 0.083127 0.252688 0.181184 0.413 0.562 0.225
v 0.086389 0.258111 0.186699 0.413 0.562 0.225
v 0.090123 0.263534 0.193435 0.413 0.562 0.225
v 0.094618 0.268957 0.202145 0.413 0.562 0.225
f 645 646 647
f 645 647 646
f 645 647 648
f 645 648 647
f 645 648 649
f 645 649 648
f 645 649 650
f 645 650 649
f 645 650 651
f 645 651 650
f 645 651 652
f 645 652 651
f 645 652 653
f 645 653 652
f 645 653 654
f 645 654 653
f 645 654 655
f 645 655 654
f 645 655 656
f 645 656 655
f 645 656 657
f 645 657 656
f 645 657 658
f 645 658 657
f 645 658 659
f 645 659 658
f 645 659 660
f 645 660 659
f 645 660 661
f 645 661 660
f 645 661 662
f 645 662 661
f 645 662 663
f 645 663 662
f 645 663 664
f 645 664 663
f 645 664 665
f 645 665 664
f 645 665 666
f 645 666 665
f 645 666 667
f 645 667 666
f 645 667 668
f 645 668 667
f 645 668 669
f 645 669 668
f 645 669 670
f 645 670 669
f 645 670 671
f 645 671 670
f 645 671 672
f 645 672 671
f 645 672 673
f 645 673 672
f 645 673 674
f 645 674 673
f 645 674 675
f 645 675 674
f 645 675 676
f 645 676 675
f 645 676 677
f 645 677 676
f 645 677 678
f 645 678 677
f 645 678 679
f 645 679 678
f 645 679 680
f 645 680 679
f 645 680 681
f 645 681 680
f 645 681 682
f 645 682 681
f 645 682 683
f 645 683 682
f 645 683 684
f 645 684 683
f 645 684 685
f 645 685 684
f 645 685 686
f 645 686 685
f 645 686 687
f 645 687 686
f 645 687 688
f 645 688 687
f 645 688 689
f 645 689 688
f 645 689 690
f 645 690 689
v 0.056510 0.561565 0.054380 0.200 0.440 0.170
v 0.059536 0.563357 0.058810 0.200 0.440 0.170
v 0.055471 0.561565 0.062312 0.200 0.440 0.170
v 0.052445 0.559773 0.057882 0.200 0.440 0.170
v 0.180231 0.312287 0.071591 0.200 0.440 0.170
v 0.182501 0.313631 0.074914 0.200 0.440 0.170
v 0.179452 0.312287 0.077540 0.200 0.440 0.170
v 0.177182 0.310943 0.074217 0.200 0.440 0.170
f 691 692 696
f 691 696 695
f 692 693 697
f 692 697 696
f 693 694 698
f 693 698 697
f 694 691 695
f 694 695 698
v 0.179842 0.319572 0.074566 0.550 0.750 0.300
v 0.179842 0.319572 0.074566 0.550 0.750 0.300
v 0.179842 0.319572 0.074566 0.550 0.750 0.300
v 0.179842 0.319572 0.074566 0.550 0.750 0.300
v 0.179842 0.319572 0.074566 0.550 0.750 0.300
v 0.179842 0.319572 0.074566 0.550 0.750 0.300
v 0.179842 0.319572 0.074566 0.550 0.750 0.300
v 0.179842 0.319572 0.074566 0.550 0.750 0.300
v 0.179842 0.319572 0.074566 0.550 0.750 0.300
v 0.222661 0.295920 0.074566 0.550 0.750 0.300
v 0.212643 0.295920 0.047042 0.550 0.750 0.300
v 0.187277 0.295920 0.032397 0.550 0.750 0.300
v 0.158432 0.295920 0.037483 0.550 0.750 0.300
v 0.139605 0.295920 0.059921 0.550 0.750 0.300
v 0.139605 0.295920 0.089211 0.550 0.750 0.300
v 0.158432 0.295920 0.111648 0.550 0.750 0.300
v 0.187277 0.295920 0.116734 0.550 0.750 0.300
v 0.212643 0.295920 0.102089 0.550 0.750 0.300
v 0.249124 0.233999 0.074566 0.550 0.750 0.300
v 0.232915 0.233999 0.030032 0.550 0.750 0.300
v 0.191873 0.233999 0.006336 0.550 0.750 0.300
v 0.145201 0.233999 0.014565 0.550 0.750 0.300
v 0.114738 0.233999 0.050870 0.550 0.750 0.300
v 0.114738 0.233999 0.098262 0.550 0.750 0.300
v 0.145201 0.233999 0.134566 0.550 0.750 0.300
v 0.191873 0.233999 0.142796 0.550 0.750 0.300
v 0.232915 0.233999 0.119100 0.550 0.750 0.300
v 0.249124 0.157461 0.074566 0.550 0.750 0.300
v 0.232915 0.157461 0.030032 0.550 0.750 0.300
v 0.191873 0.157461 0.006336 0.550 0.750 0.300
v 0.145201 0.157461 0.014565 0.550 0.750 0.300
v 0.114738 0.157461 0.050870 0.550 0.750 0.300
v 0.114738 0.157461 0.098262 0.550 0.750 0.300
v 0.145201 0.157461 0.134566 0.550 0.750 0.300
v 0.191873 0.157461 0.142796 0.550 0.750 0.300
v 0.232915 0.157461 0.119100 0.550 0.750 0.300
v 0.222661 0.095540 0.074566 0.550 0.750 0.300
v 0.212643 0.095540 0.047042 0.550 0.750 0.300
v 0.187277 0.095540 0.032397 0.550 0.750 0.300
v 0.158432 0.095540 0.037483 0.550 0.750 0.300
v 0.139605 0.095540 0.059921 0.550 0.750 0.300
v 0.139605 0.095540 0.089211 0.550 0.750 0.300
v 0.158432 0.095540 0.111648 0.550 0.750 0.300
v 0.187277 0.095540 0.116734 0.550 0.750 0.300
v 0.212643 0.095540 0.102089 0.550 0.750 0.300
v 0.179842 0.071889 0.074566 0.550 0.750 0.300
v 0.179842 0.071889 0.074566 0.550 0.750 0.300
v 0.179842 0.071889 0.074566 0.550 0.750 0.300
v 0.179842 0.071889 0.074566 0.550 0.750 0.300
v 0.179842 0.071889 0.074566 0.550 0.750 0.300
v 0.179842 0.071889 0.074566 0.550 0.750 0.300
v 0.179842 0.071889 0.074566 0.550 0.750 0.300
v 0.179842 0.071889 0.074566 0.550 0.750 0.300
v 0.179842 0.071889 0.074566 0.550 0.750 0.300
f 699 709 700
f 699 708 709
f 700 710 701
f 700 709 710
f 701 711 702
f 701 710 711
f 702 712 703
f 702 711 712
f 703 713 704
f 703 712 713
f 704 714 705
f 704 713 714
f 705 715 706
f 705 714 715
f 706 716 707
f 706 715 716
f 707 708 699
f 707 716 708
f 708 718 709
f 708 717 718
f 709 719 710
f 709 718 719
f 710 720 711
f 710 719 720
f 711 721 712
f 711 720 721
f 712 722 713
f 712 721 722
f 713 723 714
f 713 722 723
f 714 724 715
f 714 723 724
f 715 725 716
f 715 724 725
f 716 717 708
f 716 725 717
f 717 727 718
f 717 726 727
f 718 728 719
f 718 727 728
f 719 729 720
f 719 728 729
f 720 730 721
f 720 729 730
f 721 731 722
f 721 730 731
f 722 732 723
f 722 731 732
f 723 733 724
f 723 732 733
f 724 734 725
f 724 733 734
f 725 726 717
f 725 734 726
f 726 736 727
f 726 735 736
f 727 737 728
f 727 736 737
f 728 738 729
f 728 737 738
f 729 739 730
f 729 738 739
f 730 740 731
f 730 739 740
f 731 741 732
f 731 740 741
f 732 742 733
f 732 741 742
f 733 743 734
f 733 742 743
f 734 735 726
f 734 743 735
f 735 745 736
f 735 744 745
f 736 746 737
f 736 745 746
f 737 747 738
f 737 746 747
f 738 748 739
f 738 747 748
f 739 749 740
f 739 748 749
f 740 750 741
f 740 749 750
f 741 751 742
f 741 750 751
f 742 752 743
f 742 751 752
f 743 744 735
f 743 752 744
v 0.242469 0.305002 0.076960 0.753 0.863 0.615
v 0.249047 0.312002 0.074566 0.753 0.863 0.615
v 0.255625 0.305002 0.072172 0.753 0.863 0.615
v 0.249047 0.298002 0.074566 0.753 0.863 0.615
v 0.226278 0.305002 0.032475 0.753 0.863 0.615
v 0.232856 0.312002 0.030081 0.753 0.863 0.615
v 0.239434 0.305002 0.027687 0.753 0.863 0.615
v 0.232856 0.298002 0.030081 0.753 0.863 0.615
f 753 754 758
f 753 758 757
f 754 755 759
f 754 759 758
f 755 756 760
f 755 760 759
f 756 753 757
f 756 757 760
v 0.229356 0.305002 0.036143 0.753 0.863 0.615
v 0.232856 0.312002 0.030081 0.753 0.863 0.615
v 0.236356 0.305002 0.024019 0.753 0.863 0.615
v 0.232856 0.298002 0.030081 0.753 0.863 0.615
v 0.188359 0.305002 0.012474 0.753 0.863 0.615
v 0.191859 0.312002 0.006412 0.753 0.863 0.615
v 0.195359 0.305002 0.000349 0.753 0.863 0.615
v 0.191859 0.298002 0.006412 0.753 0.863 0.615
f 761 762 766
f 761 766 765
f 762 763 767
f 762 767 766
f 763 764 768
f 763 768 767
f 764 761 765
f 764 765 768
v 0.193075 0.305002 0.013305 0.753 0.863 0.615
v 0.191859 0.312002 0.006412 0.753 0.863 0.615
v 0.190644 0.305002 -0.000482 0.753 0.863 0.615
v 0.191859 0.298002 0.006412 0.753 0.863 0.615
v 0.146455 0.305002 0.021526 0.753 0.863 0.615
v 0.145239 0.312002 0.014632 0.753 0.863 0.615
v 0.144023 0.305002 0.007738 0.753 0.863 0.615
v 0.145239 0.298002 0.014632 0.753 0.863 0.615
f 769 770 774
f 769 774 773
f 770 771 775
f 770 775 774
f 771 772 776
f 771 776 775
f 772 769 773
f 772 773 776
v 0.150601 0.305002 0.019132 0.753 0.863 0.615
v 0.145239 0.312002 0.014632 0.753 0.863 0.615
v 0.139877 0.305002 0.010133 0.753 0.863 0.615
v 0.145239 0.298002 0.014632 0.753 0.863 0.615
v 0.120172 0.305002 0.055396 0.753 0.863 0.615
v 0.114810 0.312002 0.050896 0.753 0.863 0.615
v 0.109448 0.305002 0.046397 0.753 0.863 0.615
v 0.114810 0.298002 0.050896 0.753 0.863 0.615
f 777 778 782
f 777 782 781
f 778 779 783
f 778 783 782
f 779 780 784
f 779 784 783
f 780 777 781
f 780 781 784
v 0.121810 0.305002 0.050896 0.753 0.863 0.615
v 0.114810 0.312002 0.050896 0.753 0.863 0.615
v 0.107810 0.305002 0.050896 0.753 0.863 0.615
v 0.114810 0.298002 0.050896 0.753 0.863 0.615
v 0.121810 0.305002 0.098235 0.753 0.863 0.615
v 0.114810 0.312002 0.098235 0.753 0.863 0.615
v 0.107810 0.305002 0.098235 0.753 0.863 0.615
v 0.114810 0.298002 0.098235 0.753 0.863 0.615
f 785 786 790
f 785 790 789
f 786 787 791
f 786 791 790
f 787 788 792
f 787 792 791
f 788 785 789
f 788 789 792
v 0.120172 0.305002 0.093736 0.753 0.863 0.615
v 0.114810 0.312002 0.098235 0.753 0.863 0.615
v 0.109448 0.305002 0.102735 0.753 0.863 0.615
v 0.114810 0.298002 0.098235 0.753 0.863 0.615
v 0.150601 0.305002 0.130000 0.753 0.863 0.615
v 0.145239 0.312002 0.134499 0.753 0.863 0.615
v 0.139877 0.305002 0.138999 0.753 0.863 0.615
v 0.145239 0.298002 0.134499 0.753 0.863 0.615
f 793 794 798
f 793 798 797
f 794 795 799
f 794 799 798
f 795 796 800
f 795 800 799
f 796 793 797
f 796 797 800
v 0.146455 0.305002 0.127606 0.753 0.863 0.615
v 0.145239 0.312002 0.134499 0.753 0.863 0.615
v 0.144023 0.305002 0.141393 0.753 0.863 0.615
v 0.145239 0.298002 0.134499 0.753 0.863 0.615
v 0.193075 0.305002 0.135826 0.753 0.863 0.615
v 0.191859 0.312002 0.142720 0.753 0.863 0.615
v 0.190644 0.305002 0.149613 0.753 0.863 0.615
v 0.191859 0.298002 0.142720 0.753 0.863 0.615
f 801 802 806
f 801 806 805
f 802 803 807
f 802 807 806
f 803 804 808
f 803 808 807
f 804 801 805
f 804 805 808
v 0.188359 0.305002 0.136658 0.753 0.863 0.615
v 0.191859 0.312002 0.142720 0.753 0.863 0.615
v 0.195359 0.305002 0.148782 0.753 0.863 0.615
v 0.191859 0.298002 0.142720 0.753 0.863 0.615
v 0.229356 0.305002 0.112988 0.753 0.863 0.615
v 0.232856 0.312002 0.119050 0.753 0.863 0.615
v 0.236356 0.305002 0.125112 0.753 0.863 0.615
v 0.232856 0.298002 0.119050 0.753 0.863 0.615
f 809 810 814
f 809 814 813
f 810 811 815
f 810 815 814
f 811 812 816
f 811 816 815
f 812 809 813
f 812 813 816
v 0.226278 0.305002 0.116656 0.753 0.863 0.615
v 0.232856 0.312002 0.119050 0.753 0.863 0.615
v 0.239434 0.305002 0.121444 0.753 0.863 0.615
v 0.232856 0.298002 0.119050 0.753 0.863 0.615
v 0.242469 0.305002 0.072172 0.753 0.863 0.615
v 0.249047 0.312002 0.074566 0.753 0.863 0.615
v 0.255625 0.305002 0.076960 0.753 0.863 0.615
v 0.249047 0.298002 0.074566 0.753 0.863 0.615
f 817 818 822
f 817 822 821
f 818 819 823
f 818 823 822
f 819 820 824
f 819 824 823
f 820 817 821
f 820 821 824
v 0.223180 0.305002 0.080241 0.413 0.562 0.225
v 0.241478 0.300013 0.084679 0.413 0.562 0.225
v 0.250629 0.295023 0.087919 0.413 0.562 0.225
v 0.257737 0.290034 0.090892 0.413 0.562 0.225
v 0.263580 0.285044 0.093699 0.413 0.562 0.225
v 0.268446 0.280055 0.096378 0.413 0.562 0.225
v 0.272470 0.275066 0.098946 0.413 0.562 0.225
v 0.275724 0.270076 0.101414 0.413 0.562 0.225
v 0.278246 0.265087 0.103786 0.413 0.562 0.225
v 0.280059 0.260098 0.106065 0.413 0.562 0.225
v 0.281174 0.255108 0.108253 0.413 0.562 0.225
v 0.281599 0.250119 0.110350 0.413 0.562 0.225
v 0.281337 0.245130 0.112357 0.413 0.562 0.225
v 0.280386 0.240140 0.114275 0.413 0.562 0.225
v 0.278744 0.235151 0.116101 0.413 0.562 0.225
v 0.276406 0.230161 0.117837 0.413 0.562 0.225
v 0.273358 0.225172 0.119479 0.413 0.562 0.225
v 0.269579 0.220183 0.121026 0.413 0.562 0.225
v 0.265029 0.215193 0.122472 0.413 0.562 0.225
v 0.259637 0.210204 0.123807 0.413 0.562 0.225
v 0.253269 0.205215 0.125015 0.413 0.562 0.225
v 0.245635 0.200225 0.126057 0.413 0.562 0.225
v 0.235958 0.195236 0.126831 0.413 0.562 0.225
v 0.217134 0.190246 0.126408 0.413 0.562 0.225
v 0.198837 0.195236 0.121970 0.413 0.562 0.225
v 0.189686 0.200225 0.118730 0.413 0.562 0.225
v 0.182577 0.205215 0.115757 0.413 0.562 0.225
v 0.176735 0.210204 0.112950 0.413 0.562 0.225
v 0.171869 0.215193 0.110271 0.413 0.562 0.225
v 0.167845 0.220183 0.107703 0.413 0.562 0.225
v 0.164591 0.225172 0.105235 0.413 0.562 0.225
v 0.162069 0.230161 0.102863 0.413 0.562 0.225
v 0.160256 0.235151 0.100584 0.413 0.562 0.225
v 0.159140 0.240140 0.098396 0.413 0.562 0.225
v 0.158716 0.245130 0.096299 0.413 0.562 0.225
v 0.158978 0.250119 0.094292 0.413 0.562 0.225
v 0.159929 0.255108 0.092374 0.413 0.562 0.225
v 0.161570 0.260098 0.090548 0.413 0.562 0.225
v 0.163909 0.265087 0.088812 0.413 0.562 0.225
v 0.166957 0.270076 0.087170 0.413 0.562 0.225
v 0.170736 0.275066 0.085623 0.413 0.562 0.225
v 0.175286 0.280055 0.084177 0.413 0.562 0.225
v 0.180678 0.285044 0.082842 0.413 0.562 0.225
v 0.187046 0.290034 0.081634 0.413 0.562 0.225
v 0.194680 0.295023 0.080592 0.413 0.562 0.225
v 0.204357 0.300013 0.079818 0.413 0.562 0.225
f 825 826 827
f 825 827 826
f 825 827 828
f 825 828 827
f 825 828 829
f 825 829 828
f 825 829 830
f 825 830 829
f 825 830 831
f 825 831 830
f 825 831 832
f 825 832 831
f 825 832 833
f 825 833 832
f 825 833 834
f 825 834 833
f 825 834 835
f 825 835 834
f 825 835 836
f 825 836 835
f 825 836 837
f 825 837 836
f 825 837 838
f 825 838 837
f 825 838 839
f 825 839 838
f 825 839 840
f 825 840 839
f 825 840 841
f 825 841 840
f 825 841 842
f 825 842 841
f 825 842 843
f 825 843 842
f 825 843 844
f 825 844 843
f 825 844 845
f 825 845 844
f 825 845 846
f 825 846 845
f 825 846 847
f 825 847 846
f 825 847 848
f 825 848 847
f 825 848 849
f 825 849 848
f 825 849 850
f 825 850 849
f 825 850 851
f 825 851 850
f 825 851 852
f 825 852 851
f 825 852 853
f 825 853 852
f 825 853 854
f 825 854 853
f 825 854 855
f 825 855 854
f 825 855 856
f 825 856 855
f 825 856 857
f 825 857 856
f 825 857 858
f 825 858 857
f 825 858 859
f 825 859 858
f 825 859 860
f 825 860 859
f 825 860 861
f 825 861 860
f 825 861 862
f 825 862 861
f 825 862 863
f 825 863 862
f 825 863 864
f 825 864 863
f 825 864 865
f 825 865 864
f 825 865 866
f 825 866 865
f 825 866 867
f 825 867 866
f 825 867 868
f 825 868 867
f 825 868 869
f 825 869 868
f 825 869 870
f 825 870 869
v 0.094098 0.713656 0.095815 0.200 0.440 0.170
v 0.089038 0.715588 0.097446 0.200 0.440 0.170
v 0.086753 0.713656 0.092645 0.200 0.440 0.170
v 0.091813 0.711723 0.091015 0.200 0.440 0.170
v 0.041394 0.476812 0.215424 0.200 0.440 0.170
v 0.037599 0.478261 0.216647 0.200 0.440 0.170
v 0.035885 0.476812 0.213047 0.200 0.440 0.170
v 0.039680 0.475362 0.211824 0.200 0.440 0.170
f 871 872 876
f 871 876 875
f 872 873 877
f 872 877 876
f 873 874 878
f 873 878 877
f 874 871 875
f 874 875 878
v 0.038639 0.482978 0.214235 0.550 0.750 0.300
v 0.038639 0.482978 0.214235 0.550 0.750 0.300
v 0.038639 0.482978 0.214235 0.550 0.750 0.300
v 0.038639 0.482978 0.214235 0.550 0.750 0.300
v 0.038639 0.482978 0.214235 0.550 0.750 0.300
v 0.038639 0.482978 0.214235 0.550 0.750 0.300
v 0.038639 0.482978 0.214235 0.550 0.750 0.300
v 0.038639 0.482978 0.214235 0.550 0.750 0.300
v 0.038639 0.482978 0.214235 0.550 0.750 0.300
v 0.074884 0.462958 0.214235 0.550 0.750 0.300
v 0.066405 0.462958 0.190938 0.550 0.750 0.300
v 0.044933 0.462958 0.178541 0.550 0.750 0.300
v 0.020517 0.462958 0.182846 0.550 0.750 0.300
v 0.004580 0.462958 0.201839 0.550 0.750 0.300
v 0.004580 0.462958 0.226632 0.550 0.750 0.300
v 0.020517 0.462958 0.245625 0.550 0.750 0.300
v 0.044933 0.462958 0.249930 0.550 0.750 0.300
v 0.066405 0.462958 0.237533 0.550 0.750 0.300
v 0.097285 0.410544 0.214235 0.550 0.750 0.300
v 0.083565 0.410544 0.176539 0.550 0.750 0.300
v 0.048823 0.410544 0.156481 0.550 0.750 0.300
v 0.009317 0.410544 0.163447 0.550 0.750 0.300
v -0.016469 0.410544 0.194178 0.550 0.750 0.300
v -0.016469 0.410544 0.234293 0.550 0.750 0.300
v 0.009317 0.410544 0.265024 0.550 0.750 0.300
v 0.048823 0.410544 0.271990 0.550 0.750 0.300
v 0.083565 0.410544 0.251932 0.550 0.750 0.300
v 0.097285 0.345756 0.214235 0.550 0.750 0.300
v 0.083565 0.345756 0.176539 0.550 0.750 0.300
v 0.048823 0.345756 0.156481 0.550 0.750 0.300
v 0.009317 0.345756 0.163447 0.550 0.750 0.300
v -0.016469 0.345756 0.194178 0.550 0.750 0.300
v -0.016469 0.345756 0.234293 0.550 0.750 0.300
v 0.009317 0.345756 0.265024 0.550 0.750 0.300
v 0.048823 0.345756 0.271990 0.550 0.750 0.300
v 0.083565 0.345756 0.251932 0.550 0.750 0.300
v 0.074884 0.293342 0.214235 0.550 0.750 0.300
v 0.066405 0.293342 0.190938 0.550 0.750 0.300
v 0.044933 0.293342 0.178541 0.550 0.750 0.300
v 0.020517 0.293342 0.182846 0.550 0.750 0.300
v 0.004580 0.293342 0.201839 0.550 0.750 0.300
v 0.004580 0.293342 0.226632 0.550 0.750 0.300
v 0.020517 0.293342 0.245625 0.550 0.750 0.300
v 0.044933 0.293342 0.249930 0.550 0.750 0.300
v 0.066405 0.293342 0.237533 0.550 0.750 0.300
v 0.038639 0.273322 0.214235 0.550 0.750 0.300
v 0.038639 0.273322 0.214235 0.550 0.750 0.300
v 0.038639 0.273322 0.214235 0.550 0.750 0.300
v 0.038639 0.273322 0.214235 0.550 0.750 0.300
v 0.038639 0.273322 0.214235 0.550 0.750 0.300
v 0.038639 0.273322 0.214235 0.550 0.750 0.300
v 0.038639 0.273322 0.214235 0.550 0.750 0.300
v 0.038639 0.273322 0.214235 0.550 0.750 0.300
v 0.038639 0.273322 0.214235 0.550 0.750 0.300
f 879 889 880
f 879 888 889
f 880 890 881
f 880 889 890
f 881 891 882
f 881 890 891
f 882 892 883
f 882 891 892
f 883 893 884
f 883 892 893
f 884 894 885
f 884 893 894
f 885 895 886
f 885 894 895
f 886 896 887
f 886 895 896
f 887 888 879
f 887 896 888
f 888 898 889
f 888 897 898
f 889 899 890
f 889 898 899
f 890 900 891
f 890 899 900
f 891 901 892
f 891 900 901
f 892 902 893
f 892 901 902
f 893 903 894
f 893 902 903
f 894 904 895
f 894 903 904
f 895 905 896
f 895 904 905
f 896 897 888
f 896 905 897
f 897 907 898
f 897 906 907
f 898 908 899
f 898 907 908
f 899 909 900
f 899 908 909
f 900 910 901
f 900 909 910
f 901 911 902
f 901 910 911
f 902 912 903
f 902 911 912
f 903 913 904
f 903 912 913
f 904 914 905
f 904 913 914
f 905 906 897
f 905 914 906
f 906 916 907
f 906 915 916
f 907 917 908
f 907 916 917
f 908 918 909
f 908 917 918
f 909 919 910
f 909 918 919
f 910 920 911
f 910 919 920
f 911 921 912
f 911 920 921
f 912 922 913
f 912 921 922
f 913 923 914
f 913 922 923
f 914 915 906
f 914 923 915
f 915 925 916
f 915 924 925
f 916 926 917
f 916 925 926
f 917 927 918
f 917 926 927
f 918 928 919
f 918 927 928
f 919 929 920
f 919 928 929
f 920 930 921
f 920 929 930
f 921 931 922
f 921 930 931
f 922 932 923
f 922 931 932
f 923 924 915
f 923 932 924
v 0.090642 0.470645 0.216630 0.753 0.863 0.615
v 0.097220 0.477645 0.214235 0.753 0.863 0.615
v 0.103798 0.470645 0.211841 0.753 0.863 0.615
v 0.097220 0.463645 0.214235 0.753 0.863 0.615
v 0.076937 0.470645 0.178975 0.753 0.863 0.615
v 0.083515 0.477645 0.176581 0.753 0.863 0.615
v 0.090092 0.470645 0.174187 0.753 0.863 0.615
v 0.083515 0.463645 0.176581 0.753 0.863 0.615
f 933 934 938
f 933 938 937
f 934 935 939
f 934 939 938
f 935 936 940
f 935 940 939
f 936 933 937
f 936 937 940
v 0.080015 0.470645 0.182643 0.753 0.863 0.615
v 0.083515 0.477645 0.176581 0.753 0.863 0.615
v 0.087015 0.470645 0.170519 0.753 0.863 0.615
v 0.083515 0.463645 0.176581 0.753 0.863 0.615
v 0.045312 0.470645 0.162607 0.753 0.863 0.615
v 0.048812 0.477645 0.156545 0.753 0.863 0.615
v 0.052312 0.470645 0.150483 0.753 0.863 0.615
v 0.048812 0.463645 0.156545 0.753 0.863 0.615
f 941 942 946
f 941 946 945
f 942 943 947
f 942 947 946
f 943 944 948
f 943 948 947
f 944 941 945
f 944 945 948
v 0.050027 0.470645 0.163439 0.753 0.863 0.615
v 0.048812 0.477645 0.156545 0.753 0.863 0.615
v 0.047596 0.470645 0.149651 0.753 0.863 0.615
v 0.048812 0.463645 0.156545 0.753 0.863 0.615
v 0.010565 0.470645 0.170397 0.753 0.863 0.615
v 0.009349 0.477645 0.163503 0.753 0.863 0.615
v 0.008134 0.470645 0.156610 0.753 0.863 0.615
v 0.009349 0.463645 0.163503 0.753 0.863 0.615
f 949 950 954
f 949 954 953
f 950 951 955
f 950 955 954
f 951 952 956
f 951 956 955
f 952 949 953
f 952 953 956
v 0.014711 0.470645 0.168003 0.753 0.863 0.615
v 0.009349 0.477645 0.163503 0.753 0.863 0.615
v 0.003987 0.470645 0.159004 0.753 0.863 0.615
v 0.009349 0.463645 0.163503 0.753 0.863 0.615
v -0.011046 0.470645 0.198699 0.753 0.863 0.615
v -0.016408 0.477645 0.194200 0.753 0.863 0.615
v -0.021771 0.470645 0.189700 0.753 0.863 0.615
v -0.016408 0.463645 0.194200 0.753 0.863 0.615
f 957 958 962
f 957 962 961
f 958 959 963
f 958 963 962
f 959 960 964
f 959 964 963
f 960 957 961
f 960 961 964
v -0.009408 0.470645 0.194200 0.753 0.863 0.615
v -0.016408 0.477645 0.194200 0.753 0.863 0.615
v -0.023408 0.470645 0.194200 0.753 0.863 0.615
v -0.016408 0.463645 0.194200 0.753 0.863 0.615
v -0.009408 0.470645 0.234271 0.753 0.863 0.615
v -0.016408 0.477645 0.234271 0.753 0.863 0.615
v -0.023408 0.470645 0.234271 0.753 0.863 0.615
v -0.016408 0.463645 0.234271 0.753 0.863 0.615
f 965 966 970
f 965 970 969
f 966 967 971
f 966 971 970
f 967 968 972
f 967 972 971
f 968 965 969
f 968 969 972
v -0.011046 0.470645 0.229772 0.753 0.863 0.615
v -0.016408 0.477645 0.234271 0.753 0.863 0.615
v -0.021771 0.470645 0.238771 0.753 0.863 0.615
v -0.016408 0.463645 0.234271 0.753 0.863 0.615
v 0.014711 0.470645 0.260468 0.753 0.863 0.615
v 0.009349 0.477645 0.264968 0.753 0.863 0.615
v 0.003987 0.470645 0.269467 0.753 0.863 0.615
v 0.009349 0.463645 0.264968 0.753 0.863 0.615
f 973 974 978
f 973 978 977
f 974 975 979
f 974 979 978
f 975 976 980
f 975 980 979
f 976 973 977
f 976 977 980
v 0.010565 0.470645 0.258074 0.753 0.863 0.615
v 0.009349 0.477645 0.264968 0.753 0.863 0.615
v 0.008134 0.470645 0.271861 0.753 0.863 0.615
v 0.009349 0.463645 0.264968 0.753 0.863 0.615
v 0.050027 0.470645 0.265032 0.753 0.863 0.615
v 0.048812 0.477645 0.271926 0.753 0.863 0.615
v 0.047596 0.470645 0.278820 0.753 0.863 0.615
v 0.048812 0.463645 0.271926 0.753 0.863 0.615
f 981 982 986
f 981 986 985
f 982 983 987
f 982 987 986
f 983 984 988
f 983 988 987
f 984 981 985
f 984 985 988
v 0.045312 0.470645 0.265864 0.753 0.863 0.615
v 0.048812 0.477645 0.271926 0.753 0.863 0.615
v 0.052312 0.470645 0.277988 0.753 0.863 0.615
v 0.048812 0.463645 0.271926 0.753 0.863 0.615
v 0.080015 0.470645 0.245828 0.753 0.863 0.615
v 0.083515 0.477645 0.251890 0.753 0.863 0.615
v 0.087015 0.470645 0.257952 0.753 0.863 0.615
v 0.083515 0.463645 0.251890 0.753 0.863 0.615
f 989 990 994
f 989 994 993
f 990 991 995
f 990 995 994
f 991 992 996
f 991 996 995
f 992 989 993
f 992 993 996
v 0.076937 0.470645 0.249496 0.753 0.863 0.615
v 0.083515 0.477645 0.251890 0.753 0.863 0.615
v 0.090092 0.470645 0.254284 0.753 0.863 0.615
v 0.083515 0.463645 0.251890 0.753 0.863 0.615
v 0.090642 0.470645 0.211841 0.753 0.863 0.615
v 0.097220 0.477645 0.214235 0.753 0.863 0.615
v 0.103798 0.470645 0.216630 0.753 0.863 0.615
v 0.097220 0.463645 0.214235 0.753 0.863 0.615
f 997 998 1002
f 997 1002 1001
f 998 999 1003
f 998 1003 1002
f 999 1000 1004
f 999 1004 1003
f 1000 997 1001
f 1000 1001 1004
v 0.023980 0.470645 0.248206 0.413 0.562 0.225
v 0.015374 0.466858 0.261749 0.413 0.562 0.225
v 0.009861 0.463071 0.268124 0.413 0.562 0.225
v 0.005040 0.459284 0.272896 0.413 0.562 0.225
v 0.000646 0.455497 0.276677 0.413 0.562 0.225
v -0.003417 0.451710 0.279693 0.413 0.562 0.225
v -0.007195 0.447923 0.282048 0.413 0.562 0.225
v -0.010713 0.444135 0.283800 0.413 0.562 0.225
v -0.013984 0.440348 0.284978 0.413 0.562 0.225
v -0.017014 0.436561 0.285600 0.413 0.562 0.225
v -0.019808 0.432774 0.285676 0.413 0.562 0.225
v -0.022369 0.428987 0.285211 0.413 0.562 0.225
v -0.024698 0.425200 0.284206 0.413 0.562 0.225
v -0.026793 0.421412 0.282662 0.413 0.562 0.225
v -0.028655 0.417625 0.280577 0.413 0.562 0.225
v -0.030282 0.413838 0.277945 0.413 0.562 0.225
v -0.031668 0.410051 0.274757 0.413 0.562 0.225
v -0.032807 0.406264 0.270996 0.413 0.562 0.225
v -0.033685 0.402477 0.266631 0.413 0.562 0.225
v -0.034278 0.398689 0.261606 0.413 0.562 0.225
v -0.034542 0.394902 0.255816 0.413 0.562 0.225
v -0.034377 0.391115 0.249034 0.413 0.562 0.225
v -0.033521 0.387328 0.240650 0.413 0.562 0.225
v -0.029571 0.383541 0.225097 0.413 0.562 0.225
v -0.020965 0.387328 0.211553 0.413 0.562 0.225
v -0.015452 0.391115 0.205179 0.413 0.562 0.225
v -0.010630 0.394902 0.200406 0.413 0.562 0.225
v -0.006237 0.398689 0.196625 0.413 0.562 0.225
v -0.002174 0.402477 0.193610 0.413 0.562 0.225
v 0.001605 0.406264 0.191254 0.413 0.562 0.225
v 0.005122 0.410051 0.189502 0.413 0.562 0.225
v 0.008393 0.413838 0.188324 0.413 0.562 0.225
v 0.011423 0.417625 0.187702 0.413 0.562 0.225
v 0.014218 0.421412 0.187626 0.413 0.562 0.225
v 0.016779 0.425200 0.188092 0.413 0.562 0.225
v 0.019107 0.428987 0.189096 0.413 0.562 0.225
v 0.021203 0.432774 0.190640 0.413 0.562 0.225
v 0.023065 0.436561 0.192726 0.413 0.562 0.225
v 0.024691 0.440348 0.195357 0.413 0.562 0.225
v 0.026077 0.444135 0.198545 0.413 0.562 0.225
v 0.027216 0.447923 0.202306 0.413 0.562 0.225
v 0.028094 0.451710 0.206671 0.413 0.562 0.225
v 0.028688 0.455497 0.211696 0.413 0.562 0.225
v 0.028951 0.459284 0.217486 0.413 0.562 0.225
v 0.028786 0.463071 0.224269 0.413 0.562 0.225
v 0.027930 0.466858 0.232653 0.413 0.562 0.225
f 1005 1006 1007
f 1005 1007 1006
f 1005 1007 1008
f 1005 1008 1007
f 1005 1008 1009
f 1005 1009 1008
f 1005 1009 1010
f 1005 1010 1009
f 1005 1010 1011
f 1005 1011 1010
f 1005 1011 1012
f 1005 1012 1011
f 1005 1012 1013
f 1005 1013 1012
f 1005 1013 1014
f 1005 1014 1013
f 1005 1014 1015
f 1005 1015 1014
f 1005 1015 1016
f 1005 1016 1015
f 1005 1016 1017
f 1005 1017 1016
f 1005 1017 1018
f 1005 1018 1017
f 1005 1018 1019
f 1005 1019 1018
f 1005 1019 1020
f 1005 1020 1019
f 1005 1020 1021
f 1005 1021 1020
f 1005 1021 1022
f 1005 1022 1021
f 1005 1022 1023
f 1005 1023 1022
f 1005 1023 1024
f 1005 1024 1023
f 1005 1024 1025
f 1005 1025 1024
f 1005 1025 1026
f 1005 1026 1025
f 1005 1026 1027
f 1005 1027 1026
f 1005 1027 1028
f 1005 1028 1027
f 1005 1028 1029
f 1005 1029 1028
f 1005 1029 1030
f 1005 1030 1029
f 1005 1030 1031
f 1005 1031 1030
f 1005 1031 1032
f 1005 1032 1031
f 1005 1032 1033
f 1005 1033 1032
f 1005 1033 1034
f 1005 1034 1033
f 1005 1034 1035
f 1005 1035 1034
f 1005 1035 1036
f 1005 1036 1035
f 1005 1036 1037
f 1005 1037 1036
f 1005 1037 1038
f 1005 1038 1037
f 1005 1038 1039
f 1005 1039 1038
f 1005 1039 1040
f 1005 1040 1039
f 1005 1040 1041
f 1005 1041 1040
f 1005 1041 1042
f 1005 1042 1041
f 1005 1042 1043
f 1005 1043 1042
f 1005 1043 1044
f 1005 1044 1043
f 1005 1044 1045
f 1005 1045 1044
f 1005 1045 1046
f 1005 1046 1045
f 1005 1046 1047
f 1005 1047 1046
f 1005 1047 1048
f 1005 1048 1047
f 1005 1048 1049
f 1005 1049 1048
f 1005 1049 1050
f 1005 1050 1049
v 0.133385 0.865746 0.134685 0.200 0.440 0.170
v 0.136581 0.867653 0.138946 0.200 0.440 0.170
v 0.132764 0.865746 0.142661 0.200 0.440 0.170
v 0.129569 0.863840 0.138400 0.200 0.440 0.170
v 0.252726 0.644804 0.144980 0.200 0.440 0.170
v 0.255122 0.646234 0.148175 0.200 0.440 0.170
v 0.252260 0.644804 0.150961 0.200 0.440 0.170
v 0.249864 0.643375 0.147766 0.200 0.440 0.170
f 1051 1052 1056
f 1051 1056 1055
f 1052 1053 1057
f 1052 1057 1056
f 1053 1054 1058
f 1053 1058 1057
f 1054 1051 1055
f 1054 1055 1058
v 0.252493 0.650664 0.147971 0.550 0.750 0.300
v 0.252493 0.650664 0.147971 0.550 0.750 0.300
v 0.252493 0.650664 0.147971 0.550 0.750 0.300
v 0.252493 0.650664 0.147971 0.550 0.750 0.300
v 0.252493 0.650664 0.147971 0.550 0.750 0.300
v 0.252493 0.650664 0.147971 0.550 0.750 0.300
v 0.252493 0.650664 0.147971 0.550 0.750 0.300
v 0.252493 0.650664 0.147971 0.550 0.750 0.300
v 0.252493 0.650664 0.147971 0.550 0.750 0.300
v 0.286938 0.631638 0.147971 0.550 0.750 0.300
v 0.278880 0.631638 0.125830 0.550 0.750 0.300
v 0.258474 0.631638 0.114049 0.550 0.750 0.300
v 0.235270 0.631638 0.118140 0.550 0.750 0.300
v 0.220125 0.631638 0.136190 0.550 0.750 0.300
v 0.220125 0.631638 0.159752 0.550 0.750 0.300
v 0.235270 0.631638 0.177801 0.550 0.750 0.300
v 0.258474 0.631638 0.181893 0.550 0.750 0.300
v 0.278880 0.631638 0.170112 0.550 0.750 0.300
v 0.308227 0.581827 0.147971 0.550 0.750 0.300
v 0.295188 0.581827 0.112146 0.550 0.750 0.300
v 0.262171 0.581827 0.093084 0.550 0.750 0.300
v 0.224626 0.581827 0.099704 0.550 0.750 0.300
v 0.200121 0.581827 0.128908 0.550 0.750 0.300
v 0.200121 0.581827 0.167033 0.550 0.750 0.300
v 0.224626 0.581827 0.196237 0.550 0.750 0.300
v 0.262171 0.581827 0.202858 0.550 0.750 0.300
v 0.295188 0.581827 0.183795 0.550 0.750 0.300
v 0.308227 0.520256 0.147971 0.550 0.750 0.300
v 0.295188 0.520256 0.112146 0.550 0.750 0.300
v 0.262171 0.520256 0.093084 0.550 0.750 0.300
v 0.224626 0.520256 0.099704 0.550 0.750 0.300
v 0.200121 0.520256 0.128908 0.550 0.750 0.300
v 0.200121 0.520256 0.167033 0.550 0.750 0.300
v 0.224626 0.520256 0.196237 0.550 0.750 0.300
v 0.262171 0.520256 0.202858 0.550 0.750 0.300
v 0.295188 0.520256 0.183795 0.550 0.750 0.300
v 0.286938 0.470444 0.147971 0.550 0.750 0.300
v 0.278880 0.470444 0.125830 0.550 0.750 0.300
v 0.258474 0.470444 0.114049 0.550 0.750 0.300
v 0.235270 0.470444 0.118140 0.550 0.750 0.300
v 0.220125 0.470444 0.136190 0.550 0.750 0.300
v 0.220125 0.470444 0.159752 0.550 0.750 0.300
v 0.235270 0.470444 0.177801 0.550 0.750 0.300
v 0.258474 0.470444 0.181893 0.550 0.750 0.300
v 0.278880 0.470444 0.170112 0.550 0.750 0.300
v 0.252493 0.451418 0.147971 0.550 0.750 0.300
v 0.252493 0.451418 0.147971 0.550 0.750 0.300
v 0.252493 0.451418 0.147971 0.550 0.750 0.300
v 0.252493 0.451418 0.147971 0.550 0.750 0.300
v 0.252493 0.451418 0.147971 0.550 0.750 0.300
v 0.252493 0.451418 0.147971 0.550 0.750 0.300
v 0.252493 0.451418 0.147971 0.550 0.750 0.300
v 0.252493 0.451418 0.147971 0.550 0.750 0.300
v 0.252493 0.451418 0.147971 0.550 0.750 0.300
f 1059 1069 1060
f 1059 1068 1069
f 1060 1070 1061
f 1060 1069 1070
f 1061 1071 1062
f 1061 1070 1071
f 1062 1072 1063
f 1062 1071 1072
f 1063 1073 1064
f 1063 1072 1073
f 1064 1074 1065
f 1064 1073 1074
f 1065 1075 1066
f 1065 1074 1075
f 1066 1076 1067
f 1066 1075 1076
f 1067 1068 1059
f 1067 1076 1068
f 1068 1078 1069
f 1068 1077 1078
f 1069 1079 1070
f 1069 1078 1079
f 1070 1080 1071
f 1070 1079 1080
f 1071 1081 1072
f 1071 1080 1081
f 1072 1082 1073
f 1072 1081 1082
f 1073 1083 1074
f 1073 1082 1083
f 1074 1084 1075
f 1074 1083 1084
f 1075 1085 1076
f 1075 1084 1085
f 1076 1077 1068
f 1076 1085 1077
f 1077 1087 1078
f 1077 1086 1087
f 1078 1088 1079
f 1078 1087 1088
f 1079 1089 1080
f 1079 1088 1089
f 1080 1090 1081
f 1080 1089 1090
f 1081 1091 1082
f 1081 1090 1091
f 1082 1092 1083
f 1082 1091 1092
f 1083 1093 1084
f 1083 1092 1093
f 1084 1094 1085
f 1084 1093 1094
f 1085 1086 1077
f 1085 1094 1086
f 1086 1096 1087
f 1086 1095 1096
f 1087 1097 1088
f 1087 1096 1097
f 1088 1098 1089
f 1088 1097 1098
f 1089 1099 1090
f 1089 1098 1099
f 1090 1100 1091
f 1090 1099 1100
f 1091 1101 1092
f 1091 1100 1101
f 1092 1102 1093
f 1092 1101 1102
f 1093 1103 1094
f 1093 1102 1103
f 1094 1095 1086
f 1094 1103 1095
f 1095 1105 1096
f 1095 1104 1105
f 1096 1106 1097
f 1096 1105 1106
f 1097 1107 1098
f 1097 1106 1107
f 1098 1108 1099
f 1098 1107 1108
f 1099 1109 1100
f 1099 1108 1109
f 1100 1110 1101
f 1100 1109 1110
f 1101 1111 1102
f 1101 1110 1111
f 1102 1112 1103
f 1102 1111 1112
f 1103 1104 1095
f 1103 1112 1104
v 0.301587 0.638944 0.150365 0.753 0.863 0.615
v 0.308165 0.645944 0.147971 0.753 0.863 0.615
v 0.314743 0.638944 0.145576 0.753 0.863 0.615
v 0.308165 0.631944 0.147971 0.753 0.863 0.615
v 0.288562 0.638944 0.114580 0.753 0.863 0.615
v 0.295140 0.645944 0.112185 0.753 0.863 0.615
v 0.301718 0.638944 0.109791 0.753 0.863 0.615
v 0.295140 0.631944 0.112185 0.753 0.863 0.615
f 1113 1114 1118
f 1113 1118 1117
f 1114 1115 1119
f 1114 1119 1118
f 1115 1116 1120
f 1115 1120 1119
f 1116 1113 1117
f 1116 1117 1120
v 0.291640 0.638944 0.118248 0.753 0.863 0.615
v 0.295140 0.645944 0.112185 0.753 0.863 0.615
v 0.298640 0.638944 0.106123 0.753 0.863 0.615
v 0.295140 0.631944 0.112185 0.753 0.863 0.615
v 0.258660 0.638944 0.099207 0.753 0.863 0.615
v 0.262160 0.645944 0.093145 0.753 0.863 0.615
v 0.265660 0.638944 0.087082 0.753 0.863 0.615
v 0.262160 0.631944 0.093145 0.753 0.863 0.615
f 1121 1122 1126
f 1121 1126 1125
f 1122 1123 1127
f 1122 1127 1126
f 1123 1124 1128
f 1123 1128 1127
f 1124 1121 1125
f 1124 1125 1128
v 0.263376 0.638944 0.100038 0.753 0.863 0.615
v 0.262160 0.645944 0.093145 0.753 0.863 0.615
v 0.260945 0.638944 0.086251 0.753 0.863 0.615
v 0.262160 0.631944 0.093145 0.753 0.863 0.615
v 0.225873 0.638944 0.106651 0.753 0.863 0.615
v 0.224657 0.645944 0.099757 0.753 0.863 0.615
v 0.223442 0.638944 0.092864 0.753 0.863 0.615
v 0.224657 0.631944 0.099757 0.753 0.863 0.615
f 1129 1130 1134
f 1129 1134 1133
f 1130 1131 1135
f 1130 1135 1134
f 1131 1132 1136
f 1131 1136 1135
f 1132 1129 1133
f 1132 1133 1136
v 0.230019 0.638944 0.104257 0.753 0.863 0.615
v 0.224657 0.645944 0.099757 0.753 0.863 0.615
v 0.219295 0.638944 0.095258 0.753 0.863 0.615
v 0.224657 0.631944 0.099757 0.753 0.863 0.615
v 0.205541 0.638944 0.133429 0.753 0.863 0.615
v 0.200179 0.645944 0.128930 0.753 0.863 0.615
v 0.194816 0.638944 0.124430 0.753 0.863 0.615
v 0.200179 0.631944 0.128930 0.753 0.863 0.615
f 1137 1138 1142
f 1137 1142 1141
f 1138 1139 1143
f 1138 1143 1142
f 1139 1140 1144
f 1139 1144 1143
f 1140 1137 1141
f 1140 1141 1144
v 0.207179 0.638944 0.128930 0.753 0.863 0.615
v 0.200179 0.645944 0.128930 0.753 0.863 0.615
v 0.193179 0.638944 0.128930 0.753 0.863 0.615
v 0.200179 0.631944 0.128930 0.753 0.863 0.615
v 0.207179 0.638944 0.167011 0.753 0.863 0.615
v 0.200179 0.645944 0.167011 0.753 0.863 0.615
v 0.193179 0.638944 0.167011 0.753 0.863 0.615
v 0.200179 0.631944 0.167011 0.753 0.863 0.615
f 1145 1146 1150
f 1145 1150 1149
f 1146 1147 1151
f 1146 1151 1150
f 1147 1148 1152
f 1147 1152 1151
f 1148 1145 1149
f 1148 1149 1152
v 0.205541 0.638944 0.162512 0.753 0.863 0.615
v 0.200179 0.645944 0.167011 0.753 0.863 0.615
v 0.194816 0.638944 0.171511 0.753 0.863 0.615
v 0.200179 0.631944 0.167011 0.753 0.863 0.615
v 0.230019 0.638944 0.191684 0.753 0.863 0.615
v 0.224657 0.645944 0.196184 0.753 0.863 0.615
v 0.219295 0.638944 0.200683 0.753 0.863 0.615
v 0.224657 0.631944 0.196184 0.753 0.863 0.615
f 1153 1154 1158
f 1153 1158 1157
f 1154 1155 1159
f 1154 1159 1158
f 1155 1156 1160
f 1155 1160 1159
f 1156 1153 1157
f 1156 1157 1160
v 0.225873 0.638944 0.189290 0.753 0.863 0.615
v 0.224657 0.645944 0.196184 0.753 0.863 0.615
v 0.223442 0.638944 0.203077 0.753 0.863 0.615
v 0.224657 0.631944 0.196184 0.753 0.863 0.615
v 0.263376 0.638944 0.195903 0.753 0.863 0.615
v 0.262160 0.645944 0.202797 0.753 0.863 0.615
v 0.260945 0.638944 0.209690 0.753 0.863 0.615
v 0.262160 0.631944 0.202797 0.753 0.863 0.615
f 1161 1162 1166
f 1161 1166 1165
f 1162 1163 1167
f 1162 1167 1166
f 1163 1164 1168
f 1163 1168 1167
f 1164 1161 1165
f 1164 1165 1168
v 0.258660 0.638944 0.196734 0.753 0.863 0.615
v 0.262160 0.645944 0.202797 0.753 0.863 0.615
v 0.265660 0.638944 0.208859 0.753 0.863 0.615
v 0.262160 0.631944 0.202797 0.753 0.863 0.615
v 0.291640 0.638944 0.177693 0.753 0.863 0.615
v 0.295140 0.645944 0.183756 0.753 0.863 0.615
v 0.298640 0.638944 0.189818 0.753 0.863 0.615
v 0.295140 0.631944 0.183756 0.753 0.863 0.615
f 1169 1170 1174
f 1169 1174 1173
f 1170 1171 1175
f 1170 1175 1174
f 1171 1172 1176
f 1171 1176 1175
f 1172 1169 1173
f 1172 1173 1176
v 0.288562 0.638944 0.181362 0.753 0.863 0.615
v 0.295140 0.645944 0.183756 0.753 0.863 0.615
v 0.301718 0.638944 0.186150 0.753 0.863 0.615
v 0.295140 0.631944 0.183756 0.753 0.863 0.615
v 0.301587 0.638944 0.145576 0.753 0.863 0.615
v 0.308165 0.645944 0.147971 0.753 0.863 0.615
v 0.314743 0.638944 0.150365 0.753 0.863 0.615
v 0.308165 0.631944 0.147971 0.753 0.863 0.615
f 1177 1178 1182
f 1177 1182 1181
f 1178 1179 1183
f 1178 1183 1182
f 1179 1180 1184
f 1179 1184 1183
f 1180 1177 1181
f 1180 1181 1184
v 0.287548 0.638944 0.150700 0.413 0.562 0.225
v 0.302462 0.634804 0.153137 0.413 0.562 0.225
v 0.309978 0.630663 0.154998 0.413 0.562 0.225
v 0.315842 0.626523 0.156730 0.413 0.562 0.225
v 0.320682 0.622382 0.158382 0.413 0.562 0.225
v 0.324731 0.618242 0.159973 0.413 0.562 0.225
v 0.328100 0.614101 0.161512 0.413 0.562 0.225
v 0.330846 0.609961 0.163001 0.413 0.562 0.225
v 0.333000 0.605820 0.164445 0.413 0.562 0.225
v 0.334580 0.601680 0.165843 0.413 0.562 0.225
v 0.335596 0.597539 0.167198 0.413 0.562 0.225
v 0.336054 0.593399 0.168510 0.413 0.562 0.225
v 0.335955 0.589258 0.169778 0.413 0.562 0.225
v 0.335300 0.585118 0.171003 0.413 0.562 0.225
v 0.334086 0.580977 0.172184 0.413 0.562 0.225
v 0.332309 0.576837 0.173321 0.413 0.562 0.225
v 0.329957 0.572696 0.174414 0.413 0.562 0.225
v 0.327014 0.568556 0.175461 0.413 0.562 0.225
v 0.323448 0.564415 0.176459 0.413 0.562 0.225
v 0.319201 0.560275 0.177404 0.413 0.562 0.225
v 0.314163 0.556134 0.178287 0.413 0.562 0.225
v 0.308103 0.551994 0.179091 0.413 0.562 0.225
v 0.300389 0.547853 0.179767 0.413 0.562 0.225
v 0.285277 0.543713 0.179866 0.413 0.562 0.225
v 0.270363 0.547853 0.177429 0.413 0.562 0.225
v 0.262847 0.551994 0.175568 0.413 0.562 0.225
v 0.256984 0.556134 0.173836 0.413 0.562 0.225
v 0.252144 0.560275 0.172183 0.413 0.562 0.225
v 0.248094 0.564415 0.170592 0.413 0.562 0.225
v 0.244725 0.568556 0.169054 0.413 0.562 0.225
v 0.241980 0.572696 0.167564 0.413 0.562 0.225
v 0.239826 0.576837 0.166121 0.413 0.562 0.225
v 0.238245 0.580977 0.164722 0.413 0.562 0.225
v 0.237229 0.585118 0.163367 0.413 0.562 0.225
v 0.236772 0.589258 0.162056 0.413 0.562 0.225
v 0.236870 0.593399 0.160788 0.413 0.562 0.225
v 0.237525 0.597539 0.159563 0.413 0.562 0.225
v 0.238739 0.601680 0.158382 0.413 0.562 0.225
v 0.240517 0.605820 0.157244 0.413 0.562 0.225
v 0.242868 0.609961 0.156152 0.413 0.562 0.225
v 0.245811 0.614101 0.155105 0.413 0.562 0.225
v 0.249378 0.618242 0.154107 0.413 0.562 0.225
v 0.253625 0.622382 0.153162 0.413 0.562 0.225
v 0.258662 0.626523 0.152278 0.413 0.562 0.225
v 0.264723 0.630663 0.151474 0.413 0.562 0.225
v 0.272437 0.634804 0.150799 0.413 0.562 0.225
f 1185 1186 1187
f 1185 1187 1186
f 1185 1187 1188
f 1185 1188 1187
f 1185 1188 1189
f 1185 1189 1188
f 1185 1189 1190
f 1185 1190 1189
f 1185 1190 1191
f 1185 1191 1190
f 1185 1191 1192
f 1185 1192 1191
f 1185 1192 1193
f 1185 1193 1192
f 1185 1193 1194
f 1185 1194 1193
f 1185 1194 1195
f 1185 1195 1194
f 1185 1195 1196
f 1185 1196 1195
f 1185 1196 1197
f 1185 1197 1196
f 1185 1197 1198
f 1185 1198 1197
f 1185 1198 1199
f 1185 1199 1198
f 1185 1199 1200
f 1185 1200 1199
f 1185 1200 1201
f 1185 1201 1200
f 1185 1201 1202
f 1185 1202 1201
f 1185 1202 1203
f 1185 1203 1202
f 1185 1203 1204
f 1185 1204 1203
f 1185 1204 1205
f 1185 1205 1204
f 1185 1205 1206
f 1185 1206 1205
f 1185 1206 1207
f 1185 1207 1206
f 1185 1207 1208
f 1185 1208 1207
f 1185 1208 1209
f 1185 1209 1208
f 1185 1209 1210
f 1185 1210 1209
f 1185 1210 1211
f 1185 1211 1210
f 1185 1211 1212
f 1185 1212 1211
f 1185 1212 1213
f 1185 1213 1212
f 1185 1213 1214
f 1185 1214 1213
f 1185 1214 1215
f 1185 1215 1214
f 1185 1215 1216
f 1185 1216 1215
f 1185 1216 1217
f 1185 1217 1216
f 1185 1217 1218
f 1185 1218 1217
f 1185 1218 1219
f 1185 1219 1218
f 1185 1219 1220
f 1185 1220 1219
f 1185 1220 1221
f 1185 1221 1220
f 1185 1221 1222
f 1185 1222 1221
f 1185 1222 1223
f 1185 1223 1222
f 1185 1223 1224
f 1185 1224 1223
f 1185 1224 1225
f 1185 1225 1224
f 1185 1225 1226
f 1185 1226 1225
f 1185 1226 1227
f 1185 1227 1226
f 1185 1227 1228
f 1185 1228 1227
f 1185 1228 1229
f 1185 1229 1228
f 1185 1229 1230
f 1185 1230 1229
v 0.187927 1.017837 0.191966 0.200 0.440 0.170
v 0.183727 1.020591 0.194569 0.200 0.440 0.170
v 0.179948 1.017837 0.191386 0.200 0.440 0.170
v 0.184148 1.015083 0.188783 0.200 0.440 0.170
v 0.178530 0.895801 0.307446 0.200 0.440 0.170
v 0.175381 0.897866 0.309398 0.200 0.440 0.170
v 0.172546 0.895801 0.307011 0.200 0.440 0.170
v 0.175696 0.893735 0.305058 0.200 0.440 0.170
f 1231 1232 1236
f 1231 1236 1235
f 1232 1233 1237
f 1232 1237 1236
f 1233 1234 1238
f 1233 1238 1237
f 1234 1231 1235
f 1234 1235 1238
v 0.175538 0.901851 0.307228 0.550 0.750 0.300
v 0.175538 0.901851 0.307228 0.550 0.750 0.300
v 0.175538 0.901851 0.307228 0.550 0.750 0.300
v 0.175538 0.901851 0.307228 0.550 0.750 0.300
v 0.175538 0.901851 0.307228 0.550 0.750 0.300
v 0.175538 0.901851 0.307228 0.550 0.750 0.300
v 0.175538 0.901851 0.307228 0.550 0.750 0.300
v 0.175538 0.901851 0.307228 0.550 0.750 0.300
v 0.175538 0.901851 0.307228 0.550 0.750 0.300
v 0.211102 0.882207 0.307228 0.550 0.750 0.300
v 0.202782 0.882207 0.284368 0.550 0.750 0.300
v 0.181714 0.882207 0.272205 0.550 0.750 0.300
v 0.157756 0.882207 0.276429 0.550 0.750 0.300
v 0.142119 0.882207 0.295065 0.550 0.750 0.300
v 0.142119 0.882207 0.319392 0.550 0.750 0.300
v 0.157756 0.882207 0.338027 0.550 0.750 0.300
v 0.181714 0.882207 0.342252 0.550 0.750 0.300
v 0.202782 0.882207 0.330088 0.550 0.750 0.300
v 0.233082 0.830778 0.307228 0.550 0.750 0.300
v 0.219619 0.830778 0.270240 0.550 0.750 0.300
v 0.185531 0.830778 0.250559 0.550 0.750 0.300
v 0.146767 0.830778 0.257394 0.550 0.750 0.300
v 0.121465 0.830778 0.287547 0.550 0.750 0.300
v 0.121465 0.830778 0.326909 0.550 0.750 0.300
v 0.146767 0.830778 0.357062 0.550 0.750 0.300
v 0.185531 0.830778 0.363897 0.550 0.750 0.300
v 0.219619 0.830778 0.344216 0.550 0.750 0.300
v 0.233082 0.767208 0.307228 0.550 0.750 0.300
v 0.219619 0.767208 0.270240 0.550 0.750 0.300
v 0.185531 0.767208 0.250559 0.550 0.750 0.300
v 0.146767 0.767208 0.257394 0.550 0.750 0.300
v 0.121465 0.767208 0.287547 0.550 0.750 0.300
v 0.121465 0.767208 0.326909 0.550 0.750 0.300
v 0.146767 0.767208 0.357062 0.550 0.750 0.300
v 0.185531 0.767208 0.363897 0.550 0.750 0.300
v 0.219619 0.767208 0.344216 0.550 0.750 0.300
v 0.211102 0.715779 0.307228 0.550 0.750 0.300
v 0.202782 0.715779 0.284368 0.550 0.750 0.300
v 0.181714 0.715779 0.272205 0.550 0.750 0.300
v 0.157756 0.715779 0.276429 0.550 0.750 0.300
v 0.142119 0.715779 0.295065 0.550 0.750 0.300
v 0.142119 0.715779 0.319392 0.550 0.750 0.300
v 0.157756 0.715779 0.338027 0.550 0.750 0.300
v 0.181714 0.715779 0.342252 0.550 0.750 0.300
v 0.202782 0.715779 0.330088 0.550 0.750 0.300
v 0.175538 0.696135 0.307228 0.550 0.750 0.300
v 0.175538 0.696135 0.307228 0.550 0.750 0.300
v 0.175538 0.696135 0.307228 0.550 0.750 0.300
v 0.175538 0.696135 0.307228 0.550 0.750 0.300
v 0.175538 0.696135 0.307228 0.550 0.750 0.300
v 0.175538 0.696135 0.307228 0.550 0.750 0.300
v 0.175538 0.696135 0.307228 0.550 0.750 0.300
v 0.175538 0.696135 0.307228 0.550 0.750 0.300
v 0.175538 0.696135 0.307228 0.550 0.750 0.300
f 1239 1249 1240
f 1239 1248 1249
f 1240 1250 1241
f 1240 1249 1250
f 1241 1251 1242
f 1241 1250 1251
f 1242 1252 1243
f 1242 1251 1252
f 1243 1253 1244
f 1243 1252 1253
f 1244 1254 1245
f 1244 1253 1254
f 1245 1255 1246
f 1245 1254 1255
f 1246 1256 1247
f 1246 1255 1256
f 1247 1248 1239
f 1247 1256 1248
f 1248 1258 1249
f 1248 1257 1258
f 1249 1259 1250
f 1249 1258 1259
f 1250 1260 1251
f 1250 1259 1260
f 1251 1261 1252
f 1251 1260 1261
f 1252 1262 1253
f 1252 1261 1262
f 1253 1263 1254
f 1253 1262 1263
f 1254 1264 1255
f 1254 1263 1264
f 1255 1265 1256
f 1255 1264 1265
f 1256 1257 1248
f 1256 1265 1257
f 1257 1267 1258
f 1257 1266 1267
f 1258 1268 1259
f 1258 1267 1268
f 1259 1269 1260
f 1259 1268 1269
f 1260 1270 1261
f 1260 1269 1270
f 1261 1271 1262
f 1261 1270 1271
f 1262 1272 1263
f 1262 1271 1272
f 1263 1273 1264
f 1263 1272 1273
f 1264 1274 1265
f 1264 1273 1274
f 1265 1266 1257
f 1265 1274 1266
f 1266 1276 1267
f 1266 1275 1276
f 1267 1277 1268
f 1267 1276 1277
f 1268 1278 1269
f 1268 1277 1278
f 1269 1279 1270
f 1269 1278 1279
f 1270 1280 1271
f 1270 1279 1280
f 1271 1281 1272
f 1271 1280 1281
f 1272 1282 1273
f 1272 1281 1282
f 1273 1283 1274
f 1273 1282 1283
f 1274 1275 1266
f 1274 1283 1275
f 1275 1285 1276
f 1275 1284 1285
f 1276 1286 1277
f 1276 1285 1286
f 1277 1287 1278
f 1277 1286 1287
f 1278 1288 1279
f 1278 1287 1288
f 1279 1289 1280
f 1279 1288 1289
f 1280 1290 1281
f 1280 1289 1290
f 1281 1291 1282
f 1281 1290 1291
f 1282 1292 1283
f 1282 1291 1292
f 1283 1284 1275
f 1283 1292 1284
v 0.226440 0.889750 0.309622 0.753 0.863 0.615
v 0.233018 0.896750 0.307228 0.753 0.863 0.615
v 0.239596 0.889750 0.304834 0.753 0.863 0.615
v 0.233018 0.882750 0.307228 0.753 0.863 0.615
v 0.212992 0.889750 0.272675 0.753 0.863 0.615
v 0.219570 0.896750 0.270281 0.753 0.863 0.615
v 0.226148 0.889750 0.267887 0.753 0.863 0.615
v 0.219570 0.882750 0.270281 0.753 0.863 0.615
f 1293 1294 1298
f 1293 1298 1297
f 1294 1295 1299
f 1294 1299 1298
f 1295 1296 1300
f 1295 1300 1299
f 1296 1293 1297
f 1296 1297 1300
v 0.216070 0.889750 0.276343 0.753 0.863 0.615
v 0.219570 0.896750 0.270281 0.753 0.863 0.615
v 0.223070 0.889750 0.264219 0.753 0.863 0.615
v 0.219570 0.882750 0.270281 0.753 0.863 0.615
v 0.182019 0.889750 0.256684 0.753 0.863 0.615
v 0.185519 0.896750 0.250622 0.753 0.863 0.615
v 0.189019 0.889750 0.244560 0.753 0.863 0.615
v 0.185519 0.882750 0.250622 0.753 0.863 0.615
f 1301 1302 1306
f 1301 1306 1305
f 1302 1303 1307
f 1302 1307 1306
f 1303 1304 1308
f 1303 1308 1307
f 1304 1301 1305
f 1304 1305 1308
v 0.186735 0.889750 0.257516 0.753 0.863 0.615
v 0.185519 0.896750 0.250622 0.753 0.863 0.615
v 0.184304 0.889750 0.243728 0.753 0.863 0.615
v 0.185519 0.882750 0.250622 0.753 0.863 0.615
v 0.148014 0.889750 0.264343 0.753 0.863 0.615
v 0.146798 0.896750 0.257449 0.753 0.863 0.615
v 0.145583 0.889750 0.250556 0.753 0.863 0.615
v 0.146798 0.882750 0.257449 0.753 0.863 0.615
f 1309 1310 1314
f 1309 1314 1313
f 1310 1311 1315
f 1310 1315 1314
f 1311 1312 1316
f 1311 1316 1315
f 1312 1309 1313
f 1312 1313 1316
v 0.152161 0.889750 0.261949 0.753 0.863 0.615
v 0.146798 0.896750 0.257449 0.753 0.863 0.615
v 0.141436 0.889750 0.252950 0.753 0.863 0.615
v 0.146798 0.882750 0.257449 0.753 0.863 0.615
v 0.126887 0.889750 0.292068 0.753 0.863 0.615
v 0.121525 0.896750 0.287569 0.753 0.863 0.615
v 0.116163 0.889750 0.283069 0.753 0.863 0.615
v 0.121525 0.882750 0.287569 0.753 0.863 0.615
f 1317 1318 1322
f 1317 1322 1321
f 1318 1319 1323
f 1318 1323 1322
f 1319 1320 1324
f 1319 1324 1323
f 1320 1317 1321
f 1320 1321 1324
v 0.128525 0.889750 0.287569 0.753 0.863 0.615
v 0.121525 0.896750 0.287569 0.753 0.863 0.615
v 0.114525 0.889750 0.287569 0.753 0.863 0.615
v 0.121525 0.882750 0.287569 0.753 0.863 0.615
v 0.128525 0.889750 0.326887 0.753 0.863 0.615
v 0.121525 0.896750 0.326887 0.753 0.863 0.615
v 0.114525 0.889750 0.326887 0.753 0.863 0.615
v 0.121525 0.882750 0.326887 0.753 0.863 0.615
f 1325 1326 1330
f 1325 1330 1329
f 1326 1327 1331
f 1326 1331 1330
f 1327 1328 1332
f 1327 1332 1331
f 1328 1325 1329
f 1328 1329 1332
v 0.126887 0.889750 0.322388 0.753 0.863 0.615
v 0.121525 0.896750 0.326887 0.753 0.863 0.615
v 0.116163 0.889750 0.331387 0.753 0.863 0.615
v 0.121525 0.882750 0.326887 0.753 0.863 0.615
v 0.152161 0.889750 0.352507 0.753 0.863 0.615
v 0.146798 0.896750 0.357007 0.753 0.863 0.615
v 0.141436 0.889750 0.361506 0.753 0.863 0.615
v 0.146798 0.882750 0.357007 0.753 0.863 0.615
f 1333 1334 1338
f 1333 1338 1337
f 1334 1335 1339
f 1334 1339 1338
f 1335 1336 1340
f 1335 1340 1339
f 1336 1333 1337
f 1336 1337 1340
v 0.148014 0.889750 0.350113 0.753 0.863 0.615
v 0.146798 0.896750 0.357007 0.753 0.863 0.615
v 0.145583 0.889750 0.363900 0.753 0.863 0.615
v 0.146798 0.882750 0.357007 0.753 0.863 0.615
v 0.186735 0.889750 0.356941 0.753 0.863 0.615
v 0.185519 0.896750 0.363834 0.753 0.863 0.615
v 0.184304 0.889750 0.370728 0.753 0.863 0.615
v 0.185519 0.882750 0.363834 0.753 0.863 0.615
f 1341 1342 1346
f 1341 1346 1345
f 1342 1343 1347
f 1342 1347 1346
f 1343 1344 1348
f 1343 1348 1347
f 1344 1341 1345
f 1344 1345 1348
v 0.182019 0.889750 0.357772 0.753 0.863 0.615
v 0.185519 0.896750 0.363834 0.753 0.863 0.615
v 0.189019 0.889750 0.369897 0.753 0.863 0.615
v 0.185519 0.882750 0.363834 0.753 0.863 0.615
v 0.216070 0.889750 0.338113 0.753 0.863 0.615
v 0.219570 0.896750 0.344175 0.753 0.863 0.615
v 0.223070 0.889750 0.350237 0.753 0.863 0.615
v 0.219570 0.882750 0.344175 0.753 0.863 0.615
f 1349 1350 1354
f 1349 1354 1353
f 1350 1351 1355
f 1350 1355 1354
f 1351 1352 1356
f 1351 1356 1355
f 1352 1349 1353
f 1352 1353 1356
v 0.212992 0.889750 0.341781 0.753 0.863 0.615
v 0.219570 0.896750 0.344175 0.753 0.863 0.615
v 0.226148 0.889750 0.346569 0.753 0.863 0.615
v 0.219570 0.882750 0.344175 0.753 0.863 0.615
v 0.226440 0.889750 0.304834 0.753 0.863 0.615
v 0.233018 0.896750 0.307228 0.753 0.863 0.615
v 0.239596 0.889750 0.309622 0.753 0.863 0.615
v 0.233018 0.882750 0.307228 0.753 0.863 0.615
f 1357 1358 1362
f 1357 1362 1361
f 1358 1359 1363
f 1358 1363 1362
f 1359 1360 1364
f 1359 1364 1363
f 1360 1357 1361
f 1360 1361 1364
v 0.172906 0.889750 0.343435 0.413 0.562 0.225
v 0.170978 0.885351 0.358883 0.413 0.562 0.225
v 0.169606 0.880951 0.366690 0.413 0.562 0.225
v 0.168358 0.876552 0.372790 0.413 0.562 0.225
v 0.167186 0.872153 0.377833 0.413 0.562 0.225
v 0.166074 0.867753 0.382059 0.413 0.562 0.225
v 0.165013 0.863354 0.385583 0.413 0.562 0.225
v 0.163999 0.858954 0.388463 0.413 0.562 0.225
v 0.163029 0.854555 0.390731 0.413 0.562 0.225
v 0.162102 0.850155 0.392407 0.413 0.562 0.225
v 0.161217 0.845756 0.393501 0.413 0.562 0.225
v 0.160375 0.841357 0.394017 0.413 0.562 0.225
v 0.159574 0.836957 0.393959 0.413 0.562 0.225
v 0.158815 0.832558 0.393326 0.413 0.562 0.225
v 0.158098 0.828158 0.392116 0.413 0.562 0.225
v 0.157423 0.823759 0.390324 0.413 0.562 0.225
v 0.156792 0.819359 0.387939 0.413 0.562 0.225
v 0.156205 0.814960 0.384943 0.413 0.562 0.225
v 0.155664 0.810561 0.381303 0.413 0.562 0.225
v 0.155175 0.806161 0.376960 0.413 0.562 0.225
v 0.154745 0.801762 0.371801 0.413 0.562 0.225
v 0.154392 0.797362 0.365585 0.413 0.562 0.225
v 0.154163 0.792963 0.357661 0.413 0.562 0.225
v 0.154489 0.788563 0.342097 0.413 0.562 0.225
v 0.156417 0.792963 0.326649 0.413 0.562 0.225
v 0.157790 0.797362 0.318842 0.413 0.562 0.225
v 0.159038 0.801762 0.312742 0.413 0.562 0.225
v 0.160210 0.806161 0.307699 0.413 0.562 0.225
v 0.161322 0.810561 0.303473 0.413 0.562 0.225
v 0.162383 0.814960 0.299949 0.413 0.562 0.225
v 0.163397 0.819359 0.297069 0.413 0.562 0.225
v 0.164367 0.823759 0.294801 0.413 0.562 0.225
v 0.165294 0.828158 0.293125 0.413 0.562 0.225
v 0.166178 0.832558 0.292031 0.413 0.562 0.225
v 0.167021 0.836957 0.291515 0.413 0.562 0.225
v 0.167821 0.841357 0.291573 0.413 0.562 0.225
v 0.168580 0.845756 0.292206 0.413 0.562 0.225
v 0.169297 0.850155 0.293416 0.413 0.562 0.225
v 0.169972 0.854555 0.295208 0.413 0.562 0.225
v 0.170604 0.858954 0.297593 0.413 0.562 0.225
v 0.171191 0.863354 0.300589 0.413 0.562 0.225
v 0.171731 0.867753 0.304229 0.413 0.562 0.225
v 0.172221 0.872153 0.308572 0.413 0.562 0.225
v 0.172651 0.876552 0.313731 0.413 0.562 0.225
v 0.173004 0.880951 0.319948 0.413 0.562 0.225
v 0.173233 0.885351 0.327871 0.413 0.562 0.225
f 1365 1366 1367
f 1365 1367 1366
f 1365 1367 1368
f 1365 1368 1367
f 1365 1368 1369
f 1365 1369 1368
f 1365 1369 1370
f 1365 1370 1369
f 1365 1370 1371
f 1365 1371 1370
f 1365 1371 1372
f 1365 1372 1371
f 1365 1372 1373
f 1365 1373 1372
f 1365 1373 1374
f 1365 1374 1373
f 1365 1374 1375
f 1365 1375 1374
f 1365 1375 1376
f 1365 1376 1375
f 1365 1376 1377
f 1365 1377 1376
f 1365 1377 1378
f 1365 1378 1377
f 1365 1378 1379
f 1365 1379 1378
f 1365 1379 1380
f 1365 1380 1379
f 1365 1380 1381
f 1365 1381 1380
f 1365 1381 1382
f 1365 1382 1381
f 1365 1382 1383
f 1365 1383 1382
f 1365 1383 1384
f 1365 1384 1383
f 1365 1384 1385
f 1365 1385 1384
f 1365 1385 1386
f 1365 1386 1385
f 1365 1386 1387
f 1365 1387 1386
f 1365 1387 1388
f 1365 1388 1387
f 1365 1388 1389
f 1365 1389 1388
f 1365 1389 1390
f 1365 1390 1389
f 1365 1390 1391
f 1365 1391 1390
f 1365 1391 1392
f 1365 1392 1391
f 1365 1392 1393
f 1365 1393 1392
f 1365 1393 1394
f 1365 1394 1393
f 1365 1394 1395
f 1365 1395 1394
f 1365 1395 1396
f 1365 1396 1395
f 1365 1396 1397
f 1365 1397 1396
f 1365 1397 1398
f 1365 1398 1397
f 1365 1398 1399
f 1365 1399 1398
f 1365 1399 1400
f 1365 1400 1399
f 1365 1400 1401
f 1365 1401 1400
f 1365 1401 1402
f 1365 1402 1401
f 1365 1402 1403
f 1365 1403 1402
f 1365 1403 1404
f 1365 1404 1403
f 1365 1404 1405
f 1365 1405 1404
f 1365 1405 1406
f 1365 1406 1405
f 1365 1406 1407
f 1365 1407 1406
f 1365 1407 1408
f 1365 1408 1407
f 1365 1408 1409
f 1365 1409 1408
f 1365 1409 1410
f 1365 1410 1409
