o mesh
v -0.402969 1.750000 1.350261
v -0.398202 1.770000 1.369685
v -0.393434 1.750000 1.389108
v -0.398202 1.730000 1.369685
v 0.982314 1.750000 1.010271
v 0.987081 1.770000 1.029695
v 0.991848 1.750000 1.049119
v 0.987081 1.730000 1.029695
f 1 2 6
f 1 6 5
f 2 3 7
f 2 7 6
f 3 4 8
f 3 8 7
f 4 1 5
f 4 5 8
v 0.982314 1.750000 1.010271
v 0.987081 1.770000 1.029695
v 0.991848 1.750000 1.049119
v 0.987081 1.730000 1.029695
v 2.367596 1.750000 0.670282
v 2.372363 1.770000 0.689705
v 2.377131 1.750000 0.709129
v 2.372363 1.730000 0.689705
f 9 10 14
f 9 14 13
f 10 11 15
f 10 15 14
f 11 12 16
f 11 16 15
f 12 9 13
f 12 13 16
v -1.783484 0.000000 1.769674
v -1.723484 0.000000 1.709674
v -1.783484 0.000000 1.649674
v -1.843484 0.000000 1.709674
v -1.783484 2.600000 1.769674
v -1.723484 2.600000 1.709674
v -1.783484 2.600000 1.649674
v -1.843484 2.600000 1.709674
f 17 18 22
f 17 22 21
f 18 19 23
f 18 23 22
f 19 20 24
f 19 24 23
f 20 17 21
f 20 21 24
v -0.398202 0.000000 1.409685
v -0.358202 0.000000 1.369685
v -0.398202 0.000000 1.329685
v -0.438202 0.000000 1.369685
v -0.398202 2.600000 1.409685
v -0.358202 2.600000 1.369685
v -0.398202 2.600000 1.329685
v -0.438202 2.600000 1.369685
f 25 26 30
f 25 30 29
f 26 27 31
f 26 31 30
f 27 28 32
f 27 32 31
f 28 25 29
f 28 29 32
v 0.987081 0.000000 1.069695
v 1.027081 0.000000 1.029695
v 0.987081 0.000000 0.989695
v 0.947081 0.000000 1.029695
v 0.987081 2.600000 1.069695
v 1.027081 2.600000 1.029695
v 0.987081 2.600000 0.989695
v 0.947081 2.600000 1.029695
f 33 34 38
f 33 38 37
f 34 35 39
f 34 39 38
f 35 36 40
f 35 40 39
f 36 33 37
f 36 37 40
v 2.372363 0.000000 0.749705
v 2.432363 0.000000 0.689705
v 2.372363 0.000000 0.629705
v 2.312363 0.000000 0.689705
v 2.372363 2.600000 0.749705
v 2.432363 2.600000 0.689705
v 2.372363 2.600000 0.629705
v 2.312363 2.600000 0.689705
f 41 42 46
f 41 46 45
f 42 43 47
f 42 47 46
f 43 44 48
f 43 48 47
f 44 41 45
f 44 45 48
v -1.797785 2.600000 1.651404
v -1.783484 2.660000 1.709674
v -1.769183 2.600000 1.767945
v -1.783484 2.540000 1.709674
v 2.358062 2.600000 0.631435
v 2.372363 2.660000 0.689705
v 2.386665 2.600000 0.747976
v 2.372363 2.540000 0.689705
f 49 50 54
f 49 54 53
f 50 51 55
f 50 55 54
f 51 52 56
f 51 56 55
f 52 49 53
f 52 53 56
v -1.795402 0.900000 1.661116
v -1.783484 0.950000 1.709674
v -1.771566 0.900000 1.758233
v -1.783484 0.850000 1.709674
v 2.360446 0.900000 0.641146
v 2.372363 0.950000 0.689705
v 2.384281 0.900000 0.738264
v 2.372363 0.850000 0.689705
f 57 58 62
f 57 62 61
f 58 59 63
f 58 63 62
f 59 60 64
f 59 64 63
f 60 57 61
f 60 61 64
v 2.357926 1.750000 0.703546
v 2.372363 1.770000 0.689705
v 2.386801 1.750000 0.675865
v 2.372363 1.730000 0.689705
v 1.370845 1.750000 -0.326149
v 1.385283 1.770000 -0.339990
v 1.399720 1.750000 -0.353830
v 1.385283 1.730000 -0.339990
f 65 66 70
f 65 70 69
f 66 67 71
f 66 71 70
f 67 68 72
f 67 72 71
f 68 65 69
f 68 69 72
v 1.370845 1.750000 -0.326149
v 1.385283 1.770000 -0.339990
v 1.399720 1.750000 -0.353830
v 1.385283 1.730000 -0.339990
v 0.383764 1.750000 -1.355844
v 0.398202 1.770000 -1.369685
v 0.412639 1.750000 -1.383525
v 0.398202 1.730000 -1.369685
f 73 74 78
f 73 78 77
f 74 75 79
f 74 79 78
f 75 76 80
f 75 80 79
f 76 73 77
f 76 77 80
v 0.383764 1.750000 -1.355844
v 0.398202 1.770000 -1.369685
v 0.412639 1.750000 -1.383525
v 0.398202 1.730000 -1.369685
v -0.603317 1.750000 -2.385539
v -0.588879 1.770000 -2.399380
v -0.574442 1.750000 -2.413220
v -0.588879 1.730000 -2.399380
f 81 82 86
f 81 86 85
f 82 83 87
f 82 87 86
f 83 84 88
f 83 88 87
f 84 81 85
f 84 85 88
v 2.372363 0.000000 0.749705
v 2.432363 0.000000 0.689705
v 2.372363 0.000000 0.629705
v 2.312363 0.000000 0.689705
v 2.372363 2.600000 0.749705
v 2.432363 2.600000 0.689705
v 2.372363 2.600000 0.629705
v 2.312363 2.600000 0.689705
f 89 90 94
f 89 94 93
f 90 91 95
f 90 95 94
f 91 92 96
f 91 96 95
f 92 89 93
f 92 93 96
v 1.385283 0.000000 -0.299990
v 1.425283 0.000000 -0.339990
v 1.385283 0.000000 -0.379990
v 1.345283 0.000000 -0.339990
v 1.385283 2.600000 -0.299990
v 1.425283 2.600000 -0.339990
v 1.385283 2.600000 -0.379990
v 1.345283 2.600000 -0.339990
f 97 98 102
f 97 102 101
f 98 99 103
f 98 103 102
f 99 100 104
f 99 104 103
f 100 97 101
f 100 101 104
v 0.398202 0.000000 -1.329685
v 0.438202 0.000000 -1.369685
v 0.398202 0.000000 -1.409685
v 0.358202 0.000000 -1.369685
v 0.398202 2.600000 -1.329685
v 0.438202 2.600000 -1.369685
v 0.398202 2.600000 -1.409685
v 0.358202 2.600000 -1.369685
f 105 106 110
f 105 110 109
f 106 107 111
f 106 111 110
f 107 108 112
f 107 112 111
f 108 105 109
f 108 109 112
v -0.588879 0.000000 -2.339380
v -0.528879 0.000000 -2.399380
v -0.588879 0.000000 -2.459380
v -0.648879 0.000000 -2.399380
v -0.588879 2.600000 -2.339380
v -0.528879 2.600000 -2.399380
v -0.588879 2.600000 -2.459380
v -0.648879 2.600000 -2.399380
f 113 114 118
f 113 118 117
f 114 115 119
f 114 119 118
f 115 116 120
f 115 120 119
f 116 113 117
f 116 117 120
v 2.329050 2.600000 0.731226
v 2.372363 2.660000 0.689705
v 2.415677 2.600000 0.648185
v 2.372363 2.540000 0.689705
v -0.632193 2.600000 -2.357859
v -0.588879 2.660000 -2.399380
v -0.545566 2.600000 -2.440900
v -0.588879 2.540000 -2.399380
f 121 122 126
f 121 126 125
f 122 123 127
f 122 127 126
f 123 124 128
f 123 128 127
f 124 121 125
f 124 125 128
v 2.336269 0.900000 0.724306
v 2.372363 0.950000 0.689705
v 2.408458 0.900000 0.655105
v 2.372363 0.850000 0.689705
v -0.624974 0.900000 -2.364779
v -0.588879 0.950000 -2.399380
v -0.552785 0.900000 -2.433980
v -0.588879 0.850000 -2.399380
f 129 130 134
f 129 134 133
f 130 131 135
f 130 135 134
f 131 132 136
f 131 136 135
f 132 129 133
f 132 133 136
v -0.569675 1.750000 -2.393796
v -0.588879 1.770000 -2.399380
v -0.608084 1.750000 -2.404963
v -0.588879 1.730000 -2.399380
v -0.967876 1.750000 -1.024112
v -0.987081 1.770000 -1.029695
v -1.006286 1.750000 -1.035278
v -0.987081 1.730000 -1.029695
f 137 138 142
f 137 142 141
f 138 139 143
f 138 143 142
f 139 140 144
f 139 144 143
f 140 137 141
f 140 141 144
v -0.987081 2.493434 -0.995317
v -0.952133 2.501872 -1.029337
v -0.987081 2.506566 -1.064074
v -1.022029 2.498128 -1.030053
v -1.002237 2.766362 -0.943186
v -0.967289 2.774801 -0.977207
v -1.002237 2.779495 -1.011943
v -1.037185 2.771056 -0.977922
f 145 146 150
f 145 150 149
f 146 147 151
f 146 151 150
f 147 148 152
f 147 152 151
f 148 145 149
f 148 149 152
v -0.968628 2.772929 -0.967794
v -0.994112 2.792374 -1.005509
v -1.035845 2.772929 -0.987335
v -1.010361 2.753484 -0.949620
v -1.011788 3.004307 -0.819339
v -1.037272 3.023751 -0.857054
v -1.079005 3.004307 -0.838880
v -1.053520 2.984862 -0.801165
f 153 154 158
f 153 158 157
f 154 155 159
f 154 159 158
f 155 156 160
f 155 160 159
f 156 153 157
f 156 157 160
v -1.011788 3.004307 -0.819339
v -1.039968 3.033408 -0.847781
v -1.079005 3.004307 -0.838880
v -1.050825 2.975205 -0.810437
v -1.076381 3.158908 -0.597160
v -1.104561 3.188010 -0.625602
v -1.143598 3.158908 -0.616701
v -1.115418 3.129807 -0.588259
f 161 162 166
f 161 166 165
f 162 163 167
f 162 167 166
f 163 164 168
f 163 168 167
f 164 161 165
f 164 165 168
v -1.076381 3.158908 -0.597160
v -1.108083 3.193236 -0.613487
v -1.143598 3.158908 -0.616701
v -1.111895 3.124581 -0.600374
v -1.152573 3.213197 -0.335082
v -1.184276 3.247525 -0.351409
v -1.219790 3.213197 -0.354623
v -1.188088 3.178870 -0.338296
f 169 170 174
f 169 174 173
f 170 171 175
f 170 175 174
f 171 172 176
f 171 176 175
f 172 169 173
f 172 173 176
v -1.152573 3.213197 -0.335082
v -1.188088 3.247525 -0.338296
v -1.219790 3.213197 -0.354623
v -1.184276 3.178870 -0.351409
v -1.228766 3.158908 -0.073004
v -1.264281 3.193236 -0.076218
v -1.295983 3.158908 -0.092546
v -1.260468 3.124581 -0.089332
f 177 178 182
f 177 182 181
f 178 179 183
f 178 183 182
f 179 180 184
f 179 184 183
f 180 177 181
f 180 181 184
v -1.228766 3.158908 -0.073004
v -1.267803 3.188010 -0.064103
v -1.295983 3.158908 -0.092546
v -1.256946 3.129807 -0.101447
v -1.293359 3.004307 0.149175
v -1.332396 3.033408 0.158076
v -1.360576 3.004307 0.129633
v -1.321539 2.975205 0.120732
f 185 186 190
f 185 190 189
f 186 187 191
f 186 191 190
f 187 188 192
f 187 192 191
f 188 185 189
f 188 189 192
v -1.293359 3.004307 0.149175
v -1.335091 3.023751 0.167348
v -1.360576 3.004307 0.129633
v -1.318843 2.984862 0.111460
v -1.336518 2.772929 0.297630
v -1.378251 2.792374 0.315804
v -1.403735 2.772929 0.278088
v -1.362003 2.753484 0.259915
f 193 194 198
f 193 198 197
f 194 195 199
f 194 199 198
f 195 196 200
f 195 200 199
f 196 193 197
f 196 197 200
v -1.370127 2.766362 0.253481
v -1.335179 2.771056 0.288217
v -1.370127 2.779495 0.322238
v -1.405075 2.774801 0.287502
v -1.385283 2.493434 0.305611
v -1.350334 2.498128 0.340347
v -1.385283 2.506566 0.374368
v -1.420231 2.501872 0.339632
f 201 202 206
f 201 206 205
f 202 203 207
f 202 207 206
f 203 204 208
f 203 208 207
f 204 201 205
f 204 205 208
v -1.186182 2.500000 -0.324853
v -1.166182 2.500000 -0.344853
v -1.186182 2.500000 -0.364853
v -1.206182 2.500000 -0.344853
v -1.186182 3.213197 -0.324853
v -1.166182 3.213197 -0.344853
v -1.186182 3.213197 -0.364853
v -1.206182 3.213197 -0.344853
f 209 210 214
f 209 214 213
f 210 211 215
f 210 215 214
f 211 212 216
f 211 216 215
f 212 209 213
f 212 213 216
v -1.366078 1.750000 0.345573
v -1.385283 1.770000 0.339990
v -1.404487 1.750000 0.334406
v -1.385283 1.730000 0.339990
v -1.764279 1.750000 1.715258
v -1.783484 1.770000 1.709674
v -1.802689 1.750000 1.704091
v -1.783484 1.730000 1.709674
f 217 218 222
f 217 222 221
f 218 219 223
f 218 223 222
f 219 220 224
f 219 224 223
f 220 217 221
f 220 221 224
v -0.588879 0.000000 -2.339380
v -0.528879 0.000000 -2.399380
v -0.588879 0.000000 -2.459380
v -0.648879 0.000000 -2.399380
v -0.588879 2.600000 -2.339380
v -0.528879 2.600000 -2.399380
v -0.588879 2.600000 -2.459380
v -0.648879 2.600000 -2.399380
f 225 226 230
f 225 230 229
f 226 227 231
f 226 231 230
f 227 228 232
f 227 232 231
f 228 225 229
f 228 229 232
v -1.385283 0.000000 0.379990
v -1.345283 0.000000 0.339990
v -1.385283 0.000000 0.299990
v -1.425283 0.000000 0.339990
v -1.385283 2.600000 0.379990
v -1.345283 2.600000 0.339990
v -1.385283 2.600000 0.299990
v -1.425283 2.600000 0.339990
f 233 234 238
f 233 238 237
f 234 235 239
f 234 239 238
f 235 236 240
f 235 240 239
f 236 233 237
f 236 237 240
v -1.783484 0.000000 1.769674
v -1.723484 0.000000 1.709674
v -1.783484 0.000000 1.649674
v -1.843484 0.000000 1.709674
v -1.783484 2.600000 1.769674
v -1.723484 2.600000 1.709674
v -1.783484 2.600000 1.649674
v -1.843484 2.600000 1.709674
f 241 242 246
f 241 246 245
f 242 243 247
f 242 247 246
f 243 244 248
f 243 248 247
f 244 241 245
f 244 245 248
v -0.531265 2.600000 -2.382630
v -0.588879 2.660000 -2.399380
v -0.646494 2.600000 -2.416130
v -0.588879 2.540000 -2.399380
v -1.725870 2.600000 1.726424
v -1.783484 2.660000 1.709674
v -1.841099 2.600000 1.692924
v -1.783484 2.540000 1.709674
f 249 250 254
f 249 254 253
f 250 251 255
f 250 255 254
f 251 252 256
f 251 256 255
f 252 249 253
f 252 253 256
v -0.540867 0.900000 -2.385421
v -0.588879 0.950000 -2.399380
v -0.636892 0.900000 -2.413338
v -0.588879 0.850000 -2.399380
v -1.735472 0.900000 1.723633
v -1.783484 0.950000 1.709674
v -1.831496 0.900000 1.695716
v -1.783484 0.850000 1.709674
f 257 258 262
f 257 262 261
f 258 259 263
f 258 263 262
f 259 260 264
f 259 264 263
f 260 257 261
f 260 261 264
v -1.793018 2.600000 1.670827
v -1.783484 2.640000 1.709674
v -1.773950 2.600000 1.748522
v -1.783484 2.560000 1.709674
v -0.407736 2.600000 1.330838
v -0.398202 2.640000 1.369685
v -0.388667 2.600000 1.408532
v -0.398202 2.560000 1.369685
f 265 266 270
f 265 270 269
f 266 267 271
f 266 271 270
f 267 268 272
f 267 272 271
f 268 265 269
f 268 269 272
v -0.407736 2.600000 1.330838
v -0.398202 2.640000 1.369685
v -0.388667 2.600000 1.408532
v -0.398202 2.560000 1.369685
v 0.977547 2.600000 0.990848
v 0.987081 2.640000 1.029695
v 0.996615 2.600000 1.068542
v 0.987081 2.560000 1.029695
f 273 274 278
f 273 278 277
f 274 275 279
f 274 279 278
f 275 276 280
f 275 280 279
f 276 273 277
f 276 277 280
v 0.977547 2.600000 0.990848
v 0.987081 2.640000 1.029695
v 0.996615 2.600000 1.068542
v 0.987081 2.560000 1.029695
v 2.362829 2.600000 0.650858
v 2.372363 2.640000 0.689705
v 2.381898 2.600000 0.728552
v 2.372363 2.560000 0.689705
f 281 282 286
f 281 286 285
f 282 283 287
f 282 287 286
f 283 284 288
f 283 288 287
f 284 281 285
f 284 285 288
v 2.343488 2.600000 0.717386
v 2.372363 2.640000 0.689705
v 2.401239 2.600000 0.662025
v 2.372363 2.560000 0.689705
v 1.356407 2.600000 -0.312309
v 1.385283 2.640000 -0.339990
v 1.414158 2.600000 -0.367670
v 1.385283 2.560000 -0.339990
f 289 290 294
f 289 294 293
f 290 291 295
f 290 295 294
f 291 292 296
f 291 296 295
f 292 289 293
f 292 293 296
v 1.356407 2.600000 -0.312309
v 1.385283 2.640000 -0.339990
v 1.414158 2.600000 -0.367670
v 1.385283 2.560000 -0.339990
v 0.369326 2.600000 -1.342004
v 0.398202 2.640000 -1.369685
v 0.427077 2.600000 -1.397365
v 0.398202 2.560000 -1.369685
f 297 298 302
f 297 302 301
f 298 299 303
f 298 303 302
f 299 300 304
f 299 304 303
f 300 297 301
f 300 301 304
v 0.369326 2.600000 -1.342004
v 0.398202 2.640000 -1.369685
v 0.427077 2.600000 -1.397365
v 0.398202 2.560000 -1.369685
v -0.617755 2.600000 -2.371699
v -0.588879 2.640000 -2.399380
v -0.560004 2.600000 -2.427060
v -0.588879 2.560000 -2.399380
f 305 306 310
f 305 310 309
f 306 307 311
f 306 311 310
f 307 308 312
f 307 312 311
f 308 305 309
f 308 309 312
v -0.948671 2.600000 -1.018528
v -0.987081 2.640000 -1.029695
v -1.025491 2.600000 -1.040862
v -0.987081 2.560000 -1.029695
v -1.346873 2.600000 0.351156
v -1.385283 2.640000 0.339990
v -1.423692 2.600000 0.328823
v -1.385283 2.560000 0.339990
f 313 314 318
f 313 318 317
f 314 315 319
f 314 319 318
f 315 316 320
f 315 320 319
f 316 313 317
f 316 317 320
v -1.346873 2.600000 0.351156
v -1.385283 2.640000 0.339990
v -1.423692 2.600000 0.328823
v -1.385283 2.560000 0.339990
v -1.745074 2.600000 1.720841
v -1.783484 2.640000 1.709674
v -1.821894 2.600000 1.698508
v -1.783484 2.560000 1.709674
f 321 322 326
f 321 326 325
f 322 323 327
f 322 327 326
f 323 324 328
f 323 328 327
f 324 321 325
f 324 325 328
v -1.668174 3.116353 1.551150
v -1.658640 3.156353 1.589997
v -1.649106 3.116353 1.628844
v -1.658640 3.076353 1.589997
v -0.379862 3.116353 1.234960
v -0.370327 3.156353 1.273807
v -0.360793 3.116353 1.312654
v -0.370327 3.076353 1.273807
f 329 330 334
f 329 334 333
f 330 331 335
f 330 335 334
f 331 332 336
f 331 336 335
f 332 329 333
f 332 333 336
v -0.379862 3.116353 1.234960
v -0.370327 3.156353 1.273807
v -0.360793 3.116353 1.312654
v -0.370327 3.076353 1.273807
v 0.908451 3.116353 0.918769
v 0.917985 3.156353 0.957616
v 0.927520 3.116353 0.996463
v 0.917985 3.076353 0.957616
f 337 338 342
f 337 342 341
f 338 339 343
f 338 343 342
f 339 340 344
f 339 344 343
f 340 337 341
f 340 341 344
v 0.908451 3.116353 0.918769
v 0.917985 3.156353 0.957616
v 0.927520 3.116353 0.996463
v 0.917985 3.076353 0.957616
v 2.196764 3.116353 0.602579
v 2.206298 3.156353 0.641426
v 2.215832 3.116353 0.680273
v 2.206298 3.076353 0.641426
f 345 346 350
f 345 350 349
f 346 347 351
f 346 351 350
f 347 348 352
f 347 352 351
f 348 345 349
f 348 349 352
v 2.177423 3.116353 0.669106
v 2.206298 3.156353 0.641426
v 2.235174 3.116353 0.613746
v 2.206298 3.076353 0.641426
v 1.259437 3.116353 -0.288510
v 1.288313 3.156353 -0.316190
v 1.317188 3.116353 -0.343871
v 1.288313 3.076353 -0.316190
f 353 354 358
f 353 358 357
f 354 355 359
f 354 359 358
f 355 356 360
f 355 360 359
f 356 353 357
f 356 357 360
v 1.259437 3.116353 -0.288510
v 1.288313 3.156353 -0.316190
v 1.317188 3.116353 -0.343871
v 1.288313 3.076353 -0.316190
v 0.341452 3.116353 -1.246126
v 0.370327 3.156353 -1.273807
v 0.399203 3.116353 -1.301487
v 0.370327 3.076353 -1.273807
f 361 362 366
f 361 366 365
f 362 363 367
f 362 367 366
f 363 364 368
f 363 368 367
f 364 361 365
f 364 365 368
v 0.341452 3.116353 -1.246126
v 0.370327 3.156353 -1.273807
v 0.399203 3.116353 -1.301487
v 0.370327 3.076353 -1.273807
v -0.576533 3.116353 -2.203743
v -0.547658 3.156353 -2.231423
v -0.518782 3.116353 -2.259104
v -0.547658 3.076353 -2.231423
f 369 370 374
f 369 374 373
f 370 371 375
f 370 375 374
f 371 372 376
f 371 376 375
f 372 369 373
f 372 373 376
v -0.509248 3.116353 -2.220256
v -0.547658 3.156353 -2.231423
v -0.586068 3.116353 -2.242590
v -0.547658 3.076353 -2.231423
v -0.879576 3.116353 -0.946450
v -0.917985 3.156353 -0.957616
v -0.956395 3.116353 -0.968783
v -0.917985 3.076353 -0.957616
f 377 378 382
f 377 382 381
f 378 379 383
f 378 383 382
f 379 380 384
f 379 384 383
f 380 377 381
f 380 381 384
v -0.879576 3.116353 -0.946450
v -0.917985 3.156353 -0.957616
v -0.956395 3.116353 -0.968783
v -0.917985 3.076353 -0.957616
v -1.249903 3.116353 0.327357
v -1.288313 3.156353 0.316190
v -1.326722 3.116353 0.305024
v -1.288313 3.076353 0.316190
f 385 386 390
f 385 390 389
f 386 387 391
f 386 391 390
f 387 388 392
f 387 392 391
f 388 385 389
f 388 389 392
v -1.249903 3.116353 0.327357
v -1.288313 3.156353 0.316190
v -1.326722 3.116353 0.305024
v -1.288313 3.076353 0.316190
v -1.620230 3.116353 1.601164
v -1.658640 3.156353 1.589997
v -1.697050 3.116353 1.578831
v -1.658640 3.076353 1.589997
f 393 394 398
f 393 398 397
f 394 395 399
f 394 399 398
f 395 396 400
f 395 400 399
f 396 393 397
f 396 397 400
v -1.400652 3.578353 1.294699
v -1.391118 3.618353 1.333546
v -1.381583 3.578353 1.372393
v -1.391118 3.538353 1.333546
v -0.320131 3.578353 1.029507
v -0.310597 3.618353 1.068354
v -0.301063 3.578353 1.107201
v -0.310597 3.538353 1.068354
f 401 402 406
f 401 406 405
f 402 403 407
f 402 407 406
f 403 404 408
f 403 408 407
f 404 401 405
f 404 405 408
v -0.320131 3.578353 1.029507
v -0.310597 3.618353 1.068354
v -0.301063 3.578353 1.107201
v -0.310597 3.538353 1.068354
v 0.760389 3.578353 0.764315
v 0.769923 3.618353 0.803162
v 0.779457 3.578353 0.842009
v 0.769923 3.538353 0.803162
f 409 410 414
f 409 414 413
f 410 411 415
f 410 415 414
f 411 412 416
f 411 416 415
f 412 409 413
f 412 413 416
v 0.760389 3.578353 0.764315
v 0.769923 3.618353 0.803162
v 0.779457 3.578353 0.842009
v 0.769923 3.538353 0.803162
v 1.840909 3.578353 0.499123
v 1.850444 3.618353 0.537970
v 1.859978 3.578353 0.576817
v 1.850444 3.538353 0.537970
f 417 418 422
f 417 422 421
f 418 419 423
f 418 423 422
f 419 420 424
f 419 424 423
f 420 417 421
f 420 421 424
v 1.821568 3.578353 0.565651
v 1.850444 3.618353 0.537970
v 1.879319 3.578353 0.510290
v 1.850444 3.538353 0.537970
v 1.051645 3.578353 -0.237512
v 1.080520 3.618353 -0.265192
v 1.109396 3.578353 -0.292872
v 1.080520 3.538353 -0.265192
f 425 426 430
f 425 430 429
f 426 427 431
f 426 431 430
f 427 428 432
f 427 432 431
f 428 425 429
f 428 429 432
v 1.051645 3.578353 -0.237512
v 1.080520 3.618353 -0.265192
v 1.109396 3.578353 -0.292872
v 1.080520 3.538353 -0.265192
v 0.281722 3.578353 -1.040674
v 0.310597 3.618353 -1.068354
v 0.339473 3.578353 -1.096035
v 0.310597 3.538353 -1.068354
f 433 434 438
f 433 438 437
f 434 435 439
f 434 439 438
f 435 436 440
f 435 440 439
f 436 433 437
f 436 437 440
v 0.281722 3.578353 -1.040674
v 0.310597 3.618353 -1.068354
v 0.339473 3.578353 -1.096035
v 0.310597 3.538353 -1.068354
v -0.488201 3.578353 -1.843836
v -0.459326 3.618353 -1.871516
v -0.430450 3.578353 -1.899197
v -0.459326 3.538353 -1.871516
f 441 442 446
f 441 446 445
f 442 443 447
f 442 447 446
f 443 444 448
f 443 448 447
f 444 441 445
f 444 445 448
v -0.420916 3.578353 -1.860350
v -0.459326 3.618353 -1.871516
v -0.497736 3.578353 -1.882683
v -0.459326 3.538353 -1.871516
v -0.731513 3.578353 -0.791995
v -0.769923 3.618353 -0.803162
v -0.808333 3.578353 -0.814329
v -0.769923 3.538353 -0.803162
f 449 450 454
f 449 454 453
f 450 451 455
f 450 455 454
f 451 452 456
f 451 456 455
f 452 449 453
f 452 453 456
v -0.731513 3.578353 -0.791995
v -0.769923 3.618353 -0.803162
v -0.808333 3.578353 -0.814329
v -0.769923 3.538353 -0.803162
v -1.042111 3.578353 0.276359
v -1.080520 3.618353 0.265192
v -1.118930 3.578353 0.254025
v -1.080520 3.538353 0.265192
f 457 458 462
f 457 462 461
f 458 459 463
f 458 463 462
f 459 460 464
f 459 464 463
f 460 457 461
f 460 461 464
v -1.042111 3.578353 0.276359
v -1.080520 3.618353 0.265192
v -1.118930 3.578353 0.254025
v -1.080520 3.538353 0.265192
v -1.352708 3.578353 1.344713
v -1.391118 3.618353 1.333546
v -1.429527 3.578353 1.322379
v -1.391118 3.538353 1.333546
f 465 466 470
f 465 470 469
f 466 467 471
f 466 471 470
f 467 468 472
f 467 472 471
f 468 465 469
f 468 469 472
v -1.043955 3.958823 0.952764
v -1.034421 3.998823 0.991611
v -1.024887 3.958823 1.030458
v -1.034421 3.918823 0.991611
v -0.240491 3.958823 0.755570
v -0.230957 3.998823 0.794417
v -0.221423 3.958823 0.833264
v -0.230957 3.918823 0.794417
f 473 474 478
f 473 478 477
f 474 475 479
f 474 479 478
f 475 476 480
f 475 480 479
f 476 473 477
f 476 477 480
v -0.240491 3.958823 0.755570
v -0.230957 3.998823 0.794417
v -0.221423 3.958823 0.833264
v -0.230957 3.918823 0.794417
v 0.562973 3.958823 0.558376
v 0.572507 3.998823 0.597223
v 0.582041 3.958823 0.636070
v 0.572507 3.918823 0.597223
f 481 482 486
f 481 486 485
f 482 483 487
f 482 487 486
f 483 484 488
f 483 488 487
f 484 481 485
f 484 485 488
v 0.562973 3.958823 0.558376
v 0.572507 3.998823 0.597223
v 0.582041 3.958823 0.636070
v 0.572507 3.918823 0.597223
v 1.366437 3.958823 0.361182
v 1.375971 3.998823 0.400029
v 1.385505 3.958823 0.438876
v 1.375971 3.918823 0.400029
f 489 490 494
f 489 494 493
f 490 491 495
f 490 495 494
f 491 492 496
f 491 496 495
f 492 489 493
f 492 493 496
v 1.347095 3.958823 0.427710
v 1.375971 3.998823 0.400029
v 1.404846 3.958823 0.372349
v 1.375971 3.918823 0.400029
v 0.774588 3.958823 -0.169514
v 0.803464 3.998823 -0.197194
v 0.832339 3.958823 -0.224874
v 0.803464 3.918823 -0.197194
f 497 498 502
f 497 502 501
f 498 499 503
f 498 503 502
f 499 500 504
f 499 504 503
f 500 497 501
f 500 501 504
v 0.774588 3.958823 -0.169514
v 0.803464 3.998823 -0.197194
v 0.832339 3.958823 -0.224874
v 0.803464 3.918823 -0.197194
v 0.202081 3.958823 -0.766737
v 0.230957 3.998823 -0.794417
v 0.259832 3.958823 -0.822098
v 0.230957 3.918823 -0.794417
f 505 506 510
f 505 510 509
f 506 507 511
f 506 511 510
f 507 508 512
f 507 512 511
f 508 505 509
f 508 509 512
v 0.202081 3.958823 -0.766737
v 0.230957 3.998823 -0.794417
v 0.259832 3.958823 -0.822098
v 0.230957 3.918823 -0.794417
v -0.370426 3.958823 -1.363960
v -0.341550 3.998823 -1.391640
v -0.312675 3.958823 -1.419321
v -0.341550 3.918823 -1.391640
f 513 514 518
f 513 518 517
f 514 515 519
f 514 519 518
f 515 516 520
f 515 520 519
f 516 513 517
f 516 517 520
v -0.303140 3.958823 -1.380474
v -0.341550 3.998823 -1.391640
v -0.379960 3.958823 -1.402807
v -0.341550 3.918823 -1.391640
v -0.534097 3.958823 -0.586056
v -0.572507 3.998823 -0.597223
v -0.610917 3.958823 -0.608390
v -0.572507 3.918823 -0.597223
f 521 522 526
f 521 526 525
f 522 523 527
f 522 527 526
f 523 524 528
f 523 528 527
f 524 521 525
f 524 525 528
v -0.534097 3.958823 -0.586056
v -0.572507 3.998823 -0.597223
v -0.610917 3.958823 -0.608390
v -0.572507 3.918823 -0.597223
v -0.765054 3.958823 0.208361
v -0.803464 3.998823 0.197194
v -0.841874 3.958823 0.186027
v -0.803464 3.918823 0.197194
f 529 530 534
f 529 534 533
f 530 531 535
f 530 535 534
f 531 532 536
f 531 536 535
f 532 529 533
f 532 533 536
v -0.765054 3.958823 0.208361
v -0.803464 3.998823 0.197194
v -0.841874 3.958823 0.186027
v -0.803464 3.918823 0.197194
v -0.996011 3.958823 1.002778
v -1.034421 3.998823 0.991611
v -1.072830 3.958823 0.980444
v -1.034421 3.918823 0.991611
f 537 538 542
f 537 542 541
f 538 539 543
f 538 543 542
f 539 540 544
f 539 544 543
f 540 537 541
f 540 541 544
v -0.544579 4.121882 0.474055
v -0.535045 4.161882 0.512902
v -0.525511 4.121882 0.551749
v -0.535045 4.081882 0.512902
v -0.128995 4.121882 0.372058
v -0.119460 4.161882 0.410905
v -0.109926 4.121882 0.449753
v -0.119460 4.081882 0.410905
f 545 546 550
f 545 550 549
f 546 547 551
f 546 551 550
f 547 548 552
f 547 552 551
f 548 545 549
f 548 549 552
v -0.128995 4.121882 0.372058
v -0.119460 4.161882 0.410905
v -0.109926 4.121882 0.449753
v -0.119460 4.081882 0.410905
v 0.286590 4.121882 0.270061
v 0.296124 4.161882 0.308909
v 0.305659 4.121882 0.347756
v 0.296124 4.081882 0.308909
f 553 554 558
f 553 558 557
f 554 555 559
f 554 559 558
f 555 556 560
f 555 560 559
f 556 553 557
f 556 557 560
v 0.286590 4.121882 0.270061
v 0.296124 4.161882 0.308909
v 0.305659 4.121882 0.347756
v 0.296124 4.081882 0.308909
v 0.702175 4.121882 0.168064
v 0.711709 4.161882 0.206912
v 0.721243 4.121882 0.245759
v 0.711709 4.081882 0.206912
f 561 562 566
f 561 566 565
f 562 563 567
f 562 567 566
f 563 564 568
f 563 568 567
f 564 561 565
f 564 565 568
v 0.682834 4.121882 0.234592
v 0.711709 4.161882 0.206912
v 0.740585 4.121882 0.179231
v 0.711709 4.081882 0.206912
v 0.386709 4.121882 -0.074316
v 0.415585 4.161882 -0.101997
v 0.444460 4.121882 -0.129677
v 0.415585 4.081882 -0.101997
f 569 570 574
f 569 574 573
f 570 571 575
f 570 575 574
f 571 572 576
f 571 576 575
f 572 569 573
f 572 573 576
v 0.386709 4.121882 -0.074316
v 0.415585 4.161882 -0.101997
v 0.444460 4.121882 -0.129677
v 0.415585 4.081882 -0.101997
v 0.090585 4.121882 -0.383225
v 0.119460 4.161882 -0.410905
v 0.148336 4.121882 -0.438586
v 0.119460 4.081882 -0.410905
f 577 578 582
f 577 582 581
f 578 579 583
f 578 583 582
f 579 580 584
f 579 584 583
f 580 577 581
f 580 581 584
v 0.090585 4.121882 -0.383225
v 0.119460 4.161882 -0.410905
v 0.148336 4.121882 -0.438586
v 0.119460 4.081882 -0.410905
v -0.205539 4.121882 -0.692133
v -0.176664 4.161882 -0.719814
v -0.147788 4.121882 -0.747494
v -0.176664 4.081882 -0.719814
f 585 586 590
f 585 590 589
f 586 587 591
f 586 591 590
f 587 588 592
f 587 592 591
f 588 585 589
f 588 589 592
v -0.257715 4.121882 -0.297742
v -0.296124 4.161882 -0.308909
v -0.334534 4.121882 -0.320075
v -0.296124 4.081882 -0.308909
v -0.377175 4.121882 0.113164
v -0.415585 4.161882 0.101997
v -0.453994 4.121882 0.090830
v -0.415585 4.081882 0.101997
f 593 594 598
f 593 598 597
f 594 595 599
f 594 599 598
f 595 596 600
f 595 600 599
f 596 593 597
f 596 597 600
v -0.377175 4.121882 0.113164
v -0.415585 4.161882 0.101997
v -0.453994 4.121882 0.090830
v -0.415585 4.081882 0.101997
v -0.496636 4.121882 0.524069
v -0.535045 4.161882 0.512902
v -0.573455 4.121882 0.501736
v -0.535045 4.081882 0.512902
f 601 602 606
f 601 606 605
f 602 603 607
f 602 607 606
f 603 604 608
f 603 608 607
f 604 601 605
f 604 605 608
v -0.398202 2.606390 1.404097
v -0.363251 2.598176 1.370023
v -0.398202 2.593610 1.335273
v -0.433152 2.601824 1.369346
v -0.370327 3.122742 1.308219
v -0.335377 3.114529 1.274145
v -0.370327 3.109963 1.239395
v -0.405278 3.118177 1.273468
f 609 610 614
f 609 614 613
f 610 611 615
f 610 615 614
f 611 612 616
f 611 616 615
f 612 609 613
f 612 613 616
v 0.987081 2.604839 1.064359
v 1.021778 2.604554 1.029059
v 0.987081 2.595161 0.995031
v 0.952384 2.595446 1.030331
v 0.917985 3.121192 0.992280
v 0.952682 3.120907 0.956981
v 0.917985 3.111514 0.922952
v 0.883289 3.111799 0.958252
f 617 618 622
f 617 622 621
f 618 619 623
f 618 623 622
f 619 620 624
f 619 624 623
f 620 617 621
f 620 621 624
v 2.372363 2.603258 0.724553
v 2.405696 2.610627 0.688712
v 2.372363 2.596742 0.654857
v 2.339031 2.589373 0.690699
v 2.206298 3.119611 0.676274
v 2.239631 3.126980 0.640432
v 2.206298 3.113094 0.606578
v 2.172965 3.105725 0.642420
f 625 626 630
f 625 630 629
f 626 627 631
f 626 631 630
f 627 628 632
f 627 632 631
f 628 625 629
f 628 629 632
v 1.385283 2.598389 -0.305027
v 1.419682 2.606447 -0.339693
v 1.385283 2.601611 -0.374953
v 1.350883 2.593553 -0.340287
v 1.288313 3.114741 -0.281228
v 1.322713 3.122799 -0.315893
v 1.288313 3.117964 -0.351153
v 1.253913 3.109906 -0.316488
f 633 634 638
f 633 638 637
f 634 635 639
f 634 639 638
f 635 636 640
f 635 640 639
f 636 633 637
f 636 637 640
v 0.398202 2.593610 -1.335273
v 0.433152 2.601824 -1.369346
v 0.398202 2.606390 -1.404097
v 0.363251 2.598176 -1.370023
v 0.370327 3.109963 -1.239395
v 0.405278 3.118177 -1.273468
v 0.370327 3.122742 -1.308219
v 0.335377 3.114529 -1.274145
f 641 642 646
f 641 646 645
f 642 643 647
f 642 647 646
f 643 644 648
f 643 648 647
f 644 641 645
f 644 645 648
v -0.588879 2.589174 -2.366096
v -0.553980 2.597480 -2.400199
v -0.588879 2.610826 -2.432663
v -0.623779 2.602520 -2.398560
v -0.547658 3.105526 -2.198140
v -0.512758 3.113833 -2.232243
v -0.547658 3.127179 -2.264707
v -0.582557 3.118872 -2.230604
f 649 650 654
f 649 654 653
f 650 651 655
f 650 655 654
f 651 652 656
f 651 656 655
f 652 649 653
f 652 653 656
v -0.987081 2.595161 -0.995031
v -0.952384 2.595446 -1.030331
v -0.987081 2.604839 -1.064359
v -1.021778 2.604554 -1.029059
v -0.917985 3.111514 -0.922952
v -0.883289 3.111799 -0.958252
v -0.917985 3.121192 -0.992280
v -0.952682 3.120907 -0.956981
f 657 658 662
f 657 662 661
f 658 659 663
f 658 663 662
f 659 660 664
f 659 664 663
f 660 657 661
f 660 661 664
v -1.385283 2.601611 0.374953
v -1.350883 2.593553 0.340287
v -1.385283 2.598389 0.305027
v -1.419682 2.606447 0.339693
v -1.288313 3.117964 0.351153
v -1.253913 3.109906 0.316488
v -1.288313 3.114741 0.281228
v -1.322713 3.122799 0.315893
f 665 666 670
f 665 670 669
f 666 667 671
f 666 671 670
f 667 668 672
f 667 672 671
f 668 665 669
f 668 669 672
v -1.682861 3.116353 1.564731
v -1.678349 3.138253 1.608890
v -1.634420 3.116353 1.615263
v -1.638931 3.094453 1.571104
v -1.415338 3.578353 1.308280
v -1.410826 3.600253 1.352439
v -1.366897 3.578353 1.358812
v -1.371409 3.556453 1.314653
f 673 674 678
f 673 678 677
f 674 675 679
f 674 679 678
f 675 676 680
f 675 680 679
f 676 673 677
f 676 677 680
v -0.370327 3.130575 1.305787
v -0.335569 3.112601 1.275475
v -0.370327 3.102131 1.241826
v -0.405086 3.120105 1.272138
v -0.310597 3.592574 1.100334
v -0.275839 3.574601 1.070023
v -0.310597 3.564131 1.036374
v -0.345356 3.582104 1.066686
f 681 682 686
f 681 686 685
f 682 683 687
f 682 687 686
f 683 684 688
f 683 688 687
f 684 681 685
f 684 685 688
v 0.917985 3.127450 0.990810
v 0.951473 3.126006 0.954389
v 0.917985 3.105255 0.924422
v 0.884498 3.106700 0.960844
v 0.769923 3.589450 0.836356
v 0.803410 3.588006 0.799935
v 0.769923 3.567255 0.769968
v 0.736436 3.568699 0.806389
f 689 690 694
f 689 694 693
f 690 691 695
f 690 695 694
f 691 692 696
f 691 696 695
f 692 689 693
f 692 693 696
v 1.288313 3.112513 -0.281402
v 1.320265 3.130551 -0.314623
v 1.288313 3.120193 -0.350979
v 1.256360 3.102155 -0.317758
v 1.080520 3.574512 -0.230403
v 1.112473 3.592551 -0.263625
v 1.080520 3.582193 -0.299981
v 1.048568 3.564154 -0.266759
f 697 698 702
f 697 702 701
f 698 699 703
f 698 703 702
f 699 700 704
f 699 704 703
f 700 697 701
f 700 701 704
v 0.370327 3.102131 -1.241826
v 0.405086 3.120105 -1.272138
v 0.370327 3.130575 -1.305787
v 0.335569 3.112601 -1.275475
v 0.310597 3.564131 -1.036374
v 0.345356 3.582104 -1.066686
v 0.310597 3.592574 -1.100334
v 0.275839 3.574601 -1.070023
f 705 706 710
f 705 710 709
f 706 707 711
f 706 711 710
f 707 708 712
f 707 712 711
f 708 705 709
f 708 709 712
v -0.513667 3.116353 -2.239766
v -0.554165 3.138253 -2.257938
v -0.581649 3.116353 -2.223081
v -0.541150 3.094453 -2.204908
v -0.425335 3.578353 -1.879859
v -0.465834 3.600253 -1.898031
v -0.493317 3.578353 -1.863174
v -0.452818 3.556453 -1.845001
f 713 714 718
f 713 718 717
f 714 715 719
f 714 719 718
f 715 716 720
f 715 720 719
f 716 713 717
f 716 717 720
v -0.917985 3.105255 -0.924422
v -0.884498 3.106700 -0.960844
v -0.917985 3.127450 -0.990810
v -0.951473 3.126006 -0.954389
v -0.769923 3.567255 -0.769968
v -0.736436 3.568699 -0.806389
v -0.769923 3.589450 -0.836356
v -0.803410 3.588006 -0.799935
f 721 722 726
f 721 726 725
f 722 723 727
f 722 727 726
f 723 724 728
f 723 728 727
f 724 721 725
f 724 725 728
v -1.288313 3.120193 0.350979
v -1.256360 3.102155 0.317758
v -1.288313 3.112513 0.281402
v -1.320265 3.130551 0.314623
v -1.080520 3.582193 0.299981
v -1.048568 3.564154 0.266759
v -1.080520 3.574512 0.230403
v -1.112473 3.592551 0.263625
f 729 730 734
f 729 734 733
f 730 731 735
f 730 735 734
f 731 732 736
f 731 736 735
f 732 729 733
f 732 733 736
v -1.415338 3.578353 1.308280
v -1.406532 3.606084 1.348323
v -1.366897 3.578353 1.358812
v -1.375703 3.550621 1.318769
v -1.058641 3.958823 0.966345
v -1.049835 3.986555 1.006388
v -1.010200 3.958823 1.016877
v -1.019006 3.931092 0.976834
f 737 738 742
f 737 742 741
f 738 739 743
f 738 743 742
f 739 740 744
f 739 744 743
f 740 737 741
f 740 741 744
v -0.344206 3.578353 1.058583
v -0.318415 3.599349 1.095243
v -0.276989 3.578353 1.078125
v -0.302780 3.557356 1.041465
v -0.264565 3.958823 0.784646
v -0.238774 3.979820 0.821306
v -0.197348 3.958823 0.804188
v -0.223140 3.937827 0.767528
f 745 746 750
f 745 750 749
f 746 747 751
f 746 751 750
f 747 748 752
f 747 752 751
f 748 745 749
f 748 749 752
v 0.744657 3.578353 0.827383
v 0.789301 3.599349 0.823377
v 0.795189 3.578353 0.778942
v 0.750545 3.557356 0.782947
v 0.547241 3.958823 0.621444
v 0.591885 3.979820 0.617438
v 0.597773 3.958823 0.573003
v 0.553129 3.937827 0.577008
f 753 754 758
f 753 758 757
f 754 755 759
f 754 759 758
f 755 756 760
f 755 760 759
f 756 753 757
f 756 757 760
v 1.840673 3.578353 0.571579
v 1.870948 3.606084 0.543931
v 1.860214 3.578353 0.504362
v 1.829939 3.550621 0.532009
v 1.366200 3.958823 0.433638
v 1.396475 3.986555 0.405990
v 1.385742 3.958823 0.366421
v 1.355467 3.931092 0.394068
f 761 762 766
f 761 766 765
f 762 763 767
f 762 767 766
f 763 764 768
f 763 768 767
f 764 761 765
f 764 765 768
v 1.088863 3.578353 -0.231201
v 1.107716 3.599349 -0.271867
v 1.072178 3.578353 -0.299183
v 1.053325 3.557356 -0.258517
v 0.811806 3.958823 -0.163203
v 0.830659 3.979820 -0.203869
v 0.795121 3.958823 -0.231185
v 0.776268 3.937827 -0.190519
f 769 770 774
f 769 774 773
f 770 771 775
f 770 775 774
f 771 772 776
f 771 776 775
f 772 769 773
f 772 773 776
v 0.344206 3.578353 -1.058583
v 0.318415 3.599349 -1.095243
v 0.276989 3.578353 -1.078125
v 0.302780 3.557356 -1.041465
v 0.264565 3.958823 -0.784646
v 0.238774 3.979820 -0.821306
v 0.197348 3.958823 -0.804188
v 0.223140 3.937827 -0.767528
f 777 778 782
f 777 782 781
f 778 779 783
f 778 783 782
f 779 780 784
f 779 784 783
f 780 777 781
f 780 781 784
v -0.425335 3.578353 -1.879859
v -0.464416 3.606084 -1.892254
v -0.493317 3.578353 -1.863174
v -0.454236 3.550621 -1.850778
v -0.307559 3.958823 -1.399983
v -0.346640 3.986555 -1.412378
v -0.375541 3.958823 -1.383298
v -0.336460 3.931092 -1.370902
f 785 786 790
f 785 790 789
f 786 787 791
f 786 791 790
f 787 788 792
f 787 792 791
f 788 785 789
f 788 789 792
v -0.744657 3.578353 -0.827383
v -0.789301 3.599349 -0.823377
v -0.795189 3.578353 -0.778942
v -0.750545 3.557356 -0.782947
v -0.547241 3.958823 -0.621444
v -0.591885 3.979820 -0.617438
v -0.597773 3.958823 -0.573003
v -0.553129 3.937827 -0.577008
f 793 794 798
f 793 798 797
f 794 795 799
f 794 799 798
f 795 796 800
f 795 800 799
f 796 793 797
f 796 797 800
v -1.088863 3.578353 0.231201
v -1.107716 3.599349 0.271867
v -1.072178 3.578353 0.299183
v -1.053325 3.557356 0.258517
v -0.811806 3.958823 0.163203
v -0.830659 3.979820 0.203869
v -0.795121 3.958823 0.231185
v -0.776268 3.937827 0.190519
f 801 802 806
f 801 806 805
f 802 803 807
f 802 807 806
f 803 804 808
f 803 808 807
f 804 801 805
f 804 805 808
v -1.058641 3.958823 0.966345
v -1.040217 3.992889 0.997168
v -1.010200 3.958823 1.016877
v -1.028624 3.924757 0.986054
v -0.559266 4.121882 0.487636
v -0.540842 4.155948 0.518459
v -0.510825 4.121882 0.538168
v -0.529249 4.087815 0.507346
f 809 810 814
f 809 814 813
f 810 811 815
f 810 815 814
f 811 812 816
f 811 816 815
f 812 809 813
f 812 813 816
v -0.264565 3.958823 0.784646
v -0.234650 3.991227 0.807121
v -0.197348 3.958823 0.804188
v -0.227264 3.926420 0.781714
v -0.153069 4.121882 0.401135
v -0.123154 4.154285 0.423609
v -0.085852 4.121882 0.420676
v -0.115767 4.089478 0.398202
f 817 818 822
f 817 822 821
f 818 819 823
f 818 823 822
f 819 820 824
f 819 824 823
f 820 817 821
f 820 821 824
v 1.366200 3.958823 0.433638
v 1.383682 3.992889 0.402271
v 1.385742 3.958823 0.366421
v 1.368260 3.924757 0.397787
v 0.701938 4.121882 0.240520
v 0.719420 4.155948 0.209153
v 0.721480 4.121882 0.173303
v 0.703998 4.087815 0.204670
f 825 826 830
f 825 830 829
f 826 827 831
f 826 831 830
f 827 828 832
f 827 832 831
f 828 825 829
f 828 829 832
v 0.811806 3.958823 -0.163203
v 0.816312 3.991227 -0.200347
v 0.795121 3.958823 -0.231185
v 0.790616 3.926420 -0.194041
v 0.423927 4.121882 -0.068006
v 0.428433 4.154285 -0.105150
v 0.407242 4.121882 -0.135988
v 0.402737 4.089478 -0.098844
f 833 834 838
f 833 838 837
f 834 835 839
f 834 839 838
f 835 836 840
f 835 840 839
f 836 833 837
f 836 837 840
v 0.264565 3.958823 -0.784646
v 0.234650 3.991227 -0.807121
v 0.197348 3.958823 -0.804188
v 0.227264 3.926420 -0.781714
v 0.153069 4.121882 -0.401135
v 0.123154 4.154285 -0.423609
v 0.085852 4.121882 -0.420676
v 0.115767 4.089478 -0.398202
f 841 842 846
f 841 846 845
f 842 843 847
f 842 847 846
f 843 844 848
f 843 848 847
f 844 841 845
f 844 845 848
v -0.547241 3.958823 -0.621444
v -0.581662 3.991227 -0.606773
v -0.597773 3.958823 -0.573003
v -0.563352 3.926420 -0.587673
v -0.270858 4.121882 -0.333129
v -0.305279 4.154285 -0.318459
v -0.321390 4.121882 -0.284688
v -0.286969 4.089478 -0.299358
f 849 850 854
f 849 854 853
f 850 851 855
f 850 855 854
f 851 852 856
f 851 856 855
f 852 849 853
f 852 853 856
v -0.811806 3.958823 0.163203
v -0.816312 3.991227 0.200347
v -0.795121 3.958823 0.231185
v -0.790616 3.926420 0.194041
v -0.423927 4.121882 0.068006
v -0.428433 4.154285 0.105150
v -0.407242 4.121882 0.135988
v -0.402737 4.089478 0.098844
f 857 858 862
f 857 862 861
f 858 859 863
f 858 863 862
f 859 860 864
f 859 864 863
f 860 857 861
f 860 861 864
v -0.559266 4.121882 0.487636
v -0.538712 4.156511 0.516417
v -0.510825 4.121882 0.538168
v -0.531379 4.087252 0.509388
v -0.024220 4.230588 -0.025266
v -0.003666 4.265217 0.003515
v 0.024220 4.230588 0.025266
v 0.003666 4.195958 -0.003515
f 865 866 870
f 865 870 869
f 866 867 871
f 866 871 870
f 867 868 872
f 867 872 871
f 868 865 869
f 868 869 872
v -0.153069 4.121882 0.401135
v -0.121866 4.155804 0.419180
v -0.085852 4.121882 0.420676
v -0.117055 4.087959 0.402631
v -0.033608 4.230588 -0.009771
v -0.002406 4.264510 0.008275
v 0.033608 4.230588 0.009771
v 0.002406 4.196665 -0.008275
f 873 874 878
f 873 878 877
f 874 875 879
f 874 879 878
f 875 876 880
f 875 880 879
f 876 873 877
f 876 877 880
v 0.270858 4.121882 0.333129
v 0.302088 4.155804 0.315129
v 0.321390 4.121882 0.284688
v 0.290161 4.087959 0.302688
v -0.025266 4.230588 0.024220
v 0.005963 4.264510 0.006221
v 0.025266 4.230588 -0.024220
v -0.005963 4.196665 -0.006221
f 881 882 886
f 881 886 885
f 882 883 887
f 882 887 886
f 883 884 888
f 883 888 887
f 884 881 885
f 884 885 888
v 0.701938 4.121882 0.240520
v 0.716586 4.156511 0.208329
v 0.721480 4.121882 0.173303
v 0.706832 4.087252 0.205494
v -0.009771 4.230588 0.033608
v 0.004877 4.265217 0.001418
v 0.009771 4.230588 -0.033608
v -0.004877 4.195958 -0.001418
f 889 890 894
f 889 894 893
f 890 891 895
f 890 895 894
f 891 892 896
f 891 896 895
f 892 889 893
f 892 893 896
v 0.423927 4.121882 -0.068006
v 0.423954 4.155804 -0.104051
v 0.407242 4.121882 -0.135988
v 0.407216 4.087959 -0.099943
v 0.008342 4.230588 0.033991
v 0.008369 4.264510 -0.002054
v -0.008342 4.230588 -0.033991
v -0.008369 4.196665 0.002054
f 897 898 902
f 897 902 901
f 898 899 903
f 898 903 902
f 899 900 904
f 899 904 903
f 900 897 901
f 900 901 904
v -0.142673 4.121882 -0.728156
v -0.177874 4.156511 -0.724747
v -0.210655 4.121882 -0.711471
v -0.175453 4.087252 -0.714881
v 0.033991 4.230588 -0.008342
v -0.001211 4.265217 -0.004933
v -0.033991 4.230588 0.008342
v 0.001211 4.195958 0.004933
f 905 906 910
f 905 910 909
f 906 907 911
f 906 911 910
f 907 908 912
f 907 912 911
f 908 905 909
f 908 909 912
v -0.270858 4.121882 -0.333129
v -0.302088 4.155804 -0.315129
v -0.321390 4.121882 -0.284688
v -0.290161 4.087959 -0.302688
v 0.025266 4.230588 -0.024220
v -0.005963 4.264510 -0.006221
v -0.025266 4.230588 0.024220
v 0.005963 4.196665 0.006221
f 913 914 918
f 913 918 917
f 914 915 919
f 914 919 918
f 915 916 920
f 915 920 919
f 916 913 917
f 916 917 920
v -0.423927 4.121882 0.068006
v -0.423954 4.155804 0.104051
v -0.407242 4.121882 0.135988
v -0.407216 4.087959 0.099943
v -0.008342 4.230588 -0.033991
v -0.008369 4.264510 0.002054
v 0.008342 4.230588 0.033991
v 0.008369 4.196665 -0.002054
f 921 922 926
f 921 926 925
f 922 923 927
f 922 927 926
f 923 924 928
f 923 928 927
f 924 921 925
f 924 925 928
v 0.000000 4.230588 0.030000
v 0.030000 4.230588 0.000000
v 0.000000 4.230588 -0.030000
v -0.030000 4.230588 -0.000000
v 0.000000 5.277646 0.030000
v 0.030000 5.277646 0.000000
v 0.000000 5.277646 -0.030000
v -0.030000 5.277646 -0.000000
f 929 930 934
f 929 934 933
f 930 931 935
f 930 935 934
f 931 932 936
f 931 936 935
f 932 929 933
f 932 933 936
