o mesh
v 0.000000 0.000000 0.060000
v 0.043775 0.000928 0.043784
v 0.059987 0.001272 0.000000
v 0.043775 0.000928 -0.043784
v 0.000000 0.000000 -0.060000
v -0.043775 -0.000928 -0.043784
v -0.059987 -0.001272 -0.000000
v -0.043775 -0.000928 0.043784
v -0.043687 2.060208 0.040000
v -0.014504 2.060826 0.029190
v -0.003696 2.061056 0.000000
v -0.014504 2.060826 -0.029190
v -0.043687 2.060208 -0.040000
v -0.072870 2.059589 -0.029190
v -0.083678 2.059360 -0.000000
v -0.072870 2.059589 0.029190
f 1 2 10
f 1 10 9
f 2 3 11
f 2 11 10
f 3 4 12
f 3 12 11
f 4 5 13
f 4 13 12
f 5 6 14
f 5 14 13
f 6 7 15
f 6 15 14
f 7 8 16
f 7 16 15
f 8 1 9
f 8 9 16
v -0.043687 2.060208 -0.000000
v -0.039785 2.083908 -0.027743
v -0.032520 2.107608 -0.055495
v -0.023368 2.131309 -0.083251
v -0.013148 2.155009 -0.111010
v -0.002540 2.178709 -0.138770
v 0.007836 2.202409 -0.166529
v 0.017421 2.226110 -0.194286
v 0.025719 2.249810 -0.222040
v 0.032311 2.273510 -0.249790
v 0.036872 2.297211 -0.277535
v 0.039175 2.320911 -0.305274
v 0.039107 2.344611 -0.333008
v 0.036668 2.368311 -0.360736
v 0.031972 2.392012 -0.388458
v 0.025244 2.415712 -0.416176
v 0.016811 2.439412 -0.443889
v 0.007091 2.463113 -0.471599
v -0.003420 2.486813 -0.499307
v -0.014163 2.510513 -0.527015
v -0.024520 2.534214 -0.554723
v -0.033806 2.557914 -0.582434
v -0.041207 2.581614 -0.610150
v -0.045244 2.605314 -0.637874
v -0.049146 2.581614 -0.610131
v -0.056411 2.557914 -0.582379
v -0.065563 2.534214 -0.554623
v -0.075784 2.510513 -0.526864
v -0.086391 2.486813 -0.499104
v -0.096767 2.463113 -0.471345
v -0.106352 2.439412 -0.443588
v -0.114650 2.415712 -0.415834
v -0.121242 2.392012 -0.388084
v -0.125803 2.368311 -0.360339
v -0.128106 2.344611 -0.332600
v -0.128039 2.320911 -0.304866
v -0.125600 2.297211 -0.277138
v -0.120904 2.273510 -0.249416
v -0.114176 2.249810 -0.221698
v -0.105743 2.226110 -0.193985
v -0.096023 2.202409 -0.166275
v -0.085511 2.178709 -0.138567
v -0.074768 2.155009 -0.110859
v -0.064412 2.131309 -0.083151
v -0.055125 2.107608 -0.055440
v -0.047724 2.083908 -0.027724
f 17 18 19
f 17 19 18
f 17 19 20
f 17 20 19
f 17 20 21
f 17 21 20
f 17 21 22
f 17 22 21
f 17 22 23
f 17 23 22
f 17 23 24
f 17 24 23
f 17 24 25
f 17 25 24
f 17 25 26
f 17 26 25
f 17 26 27
f 17 27 26
f 17 27 28
f 17 28 27
f 17 28 29
f 17 29 28
f 17 29 30
f 17 30 29
f 17 30 31
f 17 31 30
f 17 31 32
f 17 32 31
f 17 32 33
f 17 33 32
f 17 33 34
f 17 34 33
f 17 34 35
f 17 35 34
f 17 35 36
f 17 36 35
f 17 36 37
f 17 37 36
f 17 37 38
f 17 38 37
f 17 38 39
f 17 39 38
f 17 39 40
f 17 40 39
f 17 40 41
f 17 41 40
f 17 41 42
f 17 42 41
f 17 42 43
f 17 43 42
f 17 43 44
f 17 44 43
f 17 44 45
f 17 45 44
f 17 45 46
f 17 46 45
f 17 46 47
f 17 47 46
f 17 47 48
f 17 48 47
f 17 48 49
f 17 49 48
f 17 49 50
f 17 50 49
f 17 50 51
f 17 51 50
f 17 51 52
f 17 52 51
f 17 52 53
f 17 53 52
f 17 53 54
f 17 54 53
f 17 54 55
f 17 55 54
f 17 55 56
f 17 56 55
f 17 56 57
f 17 57 56
f 17 57 58
f 17 58 57
f 17 58 59
f 17 59 58
f 17 59 60
f 17 60 59
f 17 60 61
f 17 61 60
f 17 61 62
f 17 62 61
v -0.043687 2.060208 -0.000000
v -0.016428 2.043578 0.023701
v 0.013460 2.026948 0.045132
v 0.044662 2.010318 0.065429
v 0.076523 1.993688 0.085157
v 0.108523 1.977058 0.104765
v 0.140207 1.960428 0.124645
v 0.171172 1.943798 0.145148
v 0.201064 1.927168 0.166575
v 0.229592 1.910538 0.189180
v 0.256527 1.893909 0.213160
v 0.281716 1.877279 0.238648
v 0.305078 1.860649 0.265712
v 0.326613 1.844019 0.294353
v 0.346401 1.827389 0.324503
v 0.364597 1.810759 0.356027
v 0.381428 1.794129 0.388728
v 0.397187 1.777499 0.422355
v 0.412227 1.760869 0.456603
v 0.426950 1.744239 0.491124
v 0.441813 1.727609 0.525526
v 0.457335 1.710980 0.559357
v 0.474170 1.694350 0.592055
v 0.493635 1.677720 0.622483
v 0.466377 1.694350 0.598783
v 0.436488 1.710980 0.577352
v 0.405287 1.727609 0.557054
v 0.373426 1.744239 0.537327
v 0.341425 1.760869 0.517719
v 0.309741 1.777499 0.497838
v 0.278777 1.794129 0.477336
v 0.248884 1.810759 0.455908
v 0.220357 1.827389 0.433303
v 0.193421 1.844019 0.409324
v 0.168233 1.860649 0.383836
v 0.144871 1.877279 0.356771
v 0.123335 1.893909 0.328130
v 0.103547 1.910538 0.297981
v 0.085352 1.927168 0.266457
v 0.068520 1.943798 0.233755
v 0.052761 1.960428 0.200129
v 0.037721 1.977058 0.165880
v 0.022998 1.993688 0.131359
v 0.008136 2.010318 0.096958
v -0.007386 2.026948 0.063126
v -0.024222 2.043578 0.030428
f 63 64 65
f 63 65 64
f 63 65 66
f 63 66 65
f 63 66 67
f 63 67 66
f 63 67 68
f 63 68 67
f 63 68 69
f 63 69 68
f 63 69 70
f 63 70 69
f 63 70 71
f 63 71 70
f 63 71 72
f 63 72 71
f 63 72 73
f 63 73 72
f 63 73 74
f 63 74 73
f 63 74 75
f 63 75 74
f 63 75 76
f 63 76 75
f 63 76 77
f 63 77 76
f 63 77 78
f 63 78 77
f 63 78 79
f 63 79 78
f 63 79 80
f 63 80 79
f 63 80 81
f 63 81 80
f 63 81 82
f 63 82 81
f 63 82 83
f 63 83 82
f 63 83 84
f 63 84 83
f 63 84 85
f 63 85 84
f 63 85 86
f 63 86 85
f 63 86 87
f 63 87 86
f 63 87 88
f 63 88 87
f 63 88 89
f 63 89 88
f 63 89 90
f 63 90 89
f 63 90 91
f 63 91 90
f 63 91 92
f 63 92 91
f 63 92 93
f 63 93 92
f 63 93 94
f 63 94 93
f 63 94 95
f 63 95 94
f 63 95 96
f 63 96 95
f 63 96 97
f 63 97 96
f 63 97 98
f 63 98 97
f 63 98 99
f 63 99 98
f 63 99 100
f 63 100 99
f 63 100 101
f 63 101 100
f 63 101 102
f 63 102 101
f 63 102 103
f 63 103 102
f 63 103 104
f 63 104 103
f 63 104 105
f 63 105 104
f 63 105 106
f 63 106 105
f 63 106 107
f 63 107 106
f 63 107 108
f 63 108 107
v -0.043687 2.060208 -0.000000
v -0.022620 2.041977 -0.008536
v -0.002169 2.023746 -0.019632
v 0.017952 2.005515 -0.032104
v 0.037892 1.987284 -0.045325
v 0.057777 1.969053 -0.058781
v 0.077715 1.950822 -0.072011
v 0.097807 1.932591 -0.084604
v 0.118139 1.914360 -0.096197
v 0.138784 1.896130 -0.106485
v 0.159800 1.877899 -0.115230
v 0.181226 1.859668 -0.122270
v 0.203082 1.841437 -0.127522
v 0.225367 1.823206 -0.130986
v 0.248062 1.804975 -0.132745
v 0.271128 1.786744 -0.132961
v 0.294508 1.768513 -0.131873
v 0.318127 1.750282 -0.129784
v 0.341900 1.732052 -0.127057
v 0.365727 1.713821 -0.124106
v 0.389498 1.695590 -0.121389
v 0.413089 1.677359 -0.119420
v 0.436349 1.659128 -0.118828
v 0.458993 1.640897 -0.120797
v 0.437927 1.659128 -0.112261
v 0.417476 1.677359 -0.101165
v 0.397355 1.695590 -0.088692
v 0.377414 1.713821 -0.075471
v 0.357530 1.732052 -0.062016
v 0.337592 1.750282 -0.048785
v 0.317500 1.768513 -0.036192
v 0.297168 1.786744 -0.024600
v 0.276522 1.804975 -0.014312
v 0.255506 1.823206 -0.005567
v 0.234080 1.841437 0.001473
v 0.212225 1.859668 0.006725
v 0.189939 1.877899 0.010189
v 0.167244 1.896130 0.011948
v 0.144178 1.914360 0.012164
v 0.120799 1.932591 0.011076
v 0.097179 1.950822 0.008987
v 0.073406 1.969053 0.006260
v 0.049579 1.987284 0.003309
v 0.025809 2.005515 0.000592
v 0.002218 2.023746 -0.001376
v -0.021042 2.041977 -0.001969
f 109 110 111
f 109 111 110
f 109 111 112
f 109 112 111
f 109 112 113
f 109 113 112
f 109 113 114
f 109 114 113
f 109 114 115
f 109 115 114
f 109 115 116
f 109 116 115
f 109 116 117
f 109 117 116
f 109 117 118
f 109 118 117
f 109 118 119
f 109 119 118
f 109 119 120
f 109 120 119
f 109 120 121
f 109 121 120
f 109 121 122
f 109 122 121
f 109 122 123
f 109 123 122
f 109 123 124
f 109 124 123
f 109 124 125
f 109 125 124
f 109 125 126
f 109 126 125
f 109 126 127
f 109 127 126
f 109 127 128
f 109 128 127
f 109 128 129
f 109 129 128
f 109 129 130
f 109 130 129
f 109 130 131
f 109 131 130
f 109 131 132
f 109 132 131
f 109 132 133
f 109 133 132
f 109 133 134
f 109 134 133
f 109 134 135
f 109 135 134
f 109 135 136
f 109 136 135
f 109 136 137
f 109 137 136
f 109 137 138
f 109 138 137
f 109 138 139
f 109 139 138
f 109 139 140
f 109 140 139
f 109 140 141
f 109 141 140
f 109 141 142
f 109 142 141
f 109 142 143
f 109 143 142
f 109 143 144
f 109 144 143
f 109 144 145
f 109 145 144
f 109 145 146
f 109 146 145
f 109 146 147
f 109 147 146
f 109 147 148
f 109 148 147
f 109 148 149
f 109 149 148
f 109 149 150
f 109 150 149
f 109 150 151
f 109 151 150
f 109 151 152
f 109 152 151
f 109 152 153
f 109 153 152
f 109 153 154
f 109 154 153
v -0.043687 2.060208 -0.000000
v -0.042991 2.087684 0.018324
v -0.043990 2.115161 0.037399
v -0.045509 2.142637 0.056704
v -0.047070 2.170114 0.076027
v -0.048318 2.197591 0.095213
v -0.048959 2.225067 0.114129
v -0.048742 2.252544 0.132665
v -0.047452 2.280020 0.150726
v -0.044916 2.307497 0.168236
v -0.041001 2.334974 0.185135
v -0.035618 2.362450 0.201384
v -0.028720 2.389927 0.216963
v -0.020309 2.417403 0.231871
v -0.010429 2.444880 0.246129
v 0.000830 2.472357 0.259776
v 0.013335 2.499833 0.272872
v 0.026913 2.527310 0.285493
v 0.041349 2.554786 0.297734
v 0.056392 2.582263 0.309706
v 0.071747 2.609740 0.321540
v 0.087061 2.637216 0.333392
v 0.101855 2.664693 0.345474
v 0.114954 2.692169 0.358307
v 0.114259 2.664693 0.339983
v 0.115258 2.637216 0.320908
v 0.116777 2.609740 0.301603
v 0.118337 2.582263 0.282280
v 0.119585 2.554786 0.263095
v 0.120227 2.527310 0.244178
v 0.120009 2.499833 0.225642
v 0.118719 2.472357 0.207581
v 0.116183 2.444880 0.190071
v 0.112268 2.417403 0.173172
v 0.106885 2.389927 0.156923
v 0.099987 2.362450 0.141345
v 0.091576 2.334974 0.126436
v 0.081696 2.307497 0.112178
v 0.070437 2.280020 0.098531
v 0.057932 2.252544 0.085435
v 0.044355 2.225067 0.072814
v 0.029919 2.197591 0.060573
v 0.014876 2.170114 0.048601
v -0.000480 2.142637 0.036767
v -0.015794 2.115161 0.024915
v -0.030588 2.087684 0.012833
f 155 156 157
f 155 157 156
f 155 157 158
f 155 158 157
f 155 158 159
f 155 159 158
f 155 159 160
f 155 160 159
f 155 160 161
f 155 161 160
f 155 161 162
f 155 162 161
f 155 162 163
f 155 163 162
f 155 163 164
f 155 164 163
f 155 164 165
f 155 165 164
f 155 165 166
f 155 166 165
f 155 166 167
f 155 167 166
f 155 167 168
f 155 168 167
f 155 168 169
f 155 169 168
f 155 169 170
f 155 170 169
f 155 170 171
f 155 171 170
f 155 171 172
f 155 172 171
f 155 172 173
f 155 173 172
f 155 173 174
f 155 174 173
f 155 174 175
f 155 175 174
f 155 175 176
f 155 176 175
f 155 176 177
f 155 177 176
f 155 177 178
f 155 178 177
f 155 178 179
f 155 179 178
f 155 179 180
f 155 180 179
f 155 180 181
f 155 181 180
f 155 181 182
f 155 182 181
f 155 182 183
f 155 183 182
f 155 183 184
f 155 184 183
f 155 184 185
f 155 185 184
f 155 185 186
f 155 186 185
f 155 186 187
f 155 187 186
f 155 187 188
f 155 188 187
f 155 188 189
f 155 189 188
f 155 189 190
f 155 190 189
f 155 190 191
f 155 191 190
f 155 191 192
f 155 192 191
f 155 192 193
f 155 193 192
f 155 193 194
f 155 194 193
f 155 194 195
f 155 195 194
f 155 195 196
f 155 196 195
f 155 196 197
f 155 197 196
f 155 197 198
f 155 198 197
f 155 198 199
f 155 199 198
f 155 199 200
f 155 200 199
v -0.043687 2.060208 -0.000000
v -0.063233 2.028554 -0.017086
v -0.084487 1.996900 -0.033245
v -0.106181 1.965245 -0.049165
v -0.127803 1.933591 -0.065125
v -0.148972 1.901937 -0.081330
v -0.169373 1.870283 -0.097952
v -0.188733 1.838629 -0.115138
v -0.206825 1.806975 -0.133013
v -0.223462 1.775321 -0.151677
v -0.238502 1.743667 -0.171207
v -0.251848 1.712013 -0.191655
v -0.263453 1.680359 -0.213049
v -0.273317 1.648705 -0.235387
v -0.281487 1.617051 -0.258643
v -0.288060 1.585397 -0.282766
v -0.293179 1.553743 -0.307678
v -0.297028 1.522089 -0.333279
v -0.299838 1.490435 -0.359443
v -0.301879 1.458781 -0.386025
v -0.303467 1.427126 -0.412852
v -0.304983 1.395472 -0.439718
v -0.306939 1.363818 -0.466346
v -0.310603 1.332164 -0.492047
v -0.291057 1.363818 -0.474961
v -0.269803 1.395472 -0.458802
v -0.248109 1.427126 -0.442881
v -0.226487 1.458781 -0.426922
v -0.205318 1.490435 -0.410717
v -0.184917 1.522089 -0.394095
v -0.165557 1.553743 -0.376908
v -0.147465 1.585397 -0.359034
v -0.130828 1.617051 -0.340370
v -0.115788 1.648705 -0.320840
v -0.102442 1.680359 -0.300391
v -0.090837 1.712013 -0.278998
v -0.080973 1.743667 -0.256660
v -0.072803 1.775321 -0.233403
v -0.066230 1.806975 -0.209280
v -0.061111 1.838629 -0.184368
v -0.057262 1.870283 -0.158768
v -0.054452 1.901937 -0.132603
v -0.052411 1.933591 -0.106022
v -0.050823 1.965245 -0.079195
v -0.049307 1.996900 -0.052328
v -0.047351 2.028554 -0.025701
f 201 202 203
f 201 203 202
f 201 203 204
f 201 204 203
f 201 204 205
f 201 205 204
f 201 205 206
f 201 206 205
f 201 206 207
f 201 207 206
f 201 207 208
f 201 208 207
f 201 208 209
f 201 209 208
f 201 209 210
f 201 210 209
f 201 210 211
f 201 211 210
f 201 211 212
f 201 212 211
f 201 212 213
f 201 213 212
f 201 213 214
f 201 214 213
f 201 214 215
f 201 215 214
f 201 215 216
f 201 216 215
f 201 216 217
f 201 217 216
f 201 217 218
f 201 218 217
f 201 218 219
f 201 219 218
f 201 219 220
f 201 220 219
f 201 220 221
f 201 221 220
f 201 221 222
f 201 222 221
f 201 222 223
f 201 223 222
f 201 223 224
f 201 224 223
f 201 224 225
f 201 225 224
f 201 225 226
f 201 226 225
f 201 226 227
f 201 227 226
f 201 227 228
f 201 228 227
f 201 228 229
f 201 229 228
f 201 229 230
f 201 230 229
f 201 230 231
f 201 231 230
f 201 231 232
f 201 232 231
f 201 232 233
f 201 233 232
f 201 233 234
f 201 234 233
f 201 234 235
f 201 235 234
f 201 235 236
f 201 236 235
f 201 236 237
f 201 237 236
f 201 237 238
f 201 238 237
f 201 238 239
f 201 239 238
f 201 239 240
f 201 240 239
f 201 240 241
f 201 241 240
f 201 241 242
f 201 242 241
f 201 242 243
f 201 243 242
f 201 243 244
f 201 244 243
f 201 244 245
f 201 245 244
f 201 245 246
f 201 246 245
v -0.043687 2.060208 -0.000000
v -0.074818 2.048832 0.001822
v -0.106098 2.037457 0.006714
v -0.137465 2.026082 0.013408
v -0.168883 2.014706 0.021168
v -0.200322 2.003331 0.029361
v -0.231754 1.991956 0.037409
v -0.263153 1.980580 0.044778
v -0.294497 1.969205 0.050994
v -0.325766 1.957830 0.055656
v -0.356944 1.946454 0.058448
v -0.388021 1.935079 0.059151
v -0.418993 1.923704 0.057656
v -0.449858 1.912328 0.053962
v -0.480622 1.900953 0.048180
v -0.511296 1.889578 0.040528
v -0.541896 1.878202 0.031321
v -0.572439 1.866827 0.020961
v -0.602950 1.855452 0.009923
v -0.633453 1.844077 -0.001261
v -0.663978 1.832701 -0.012011
v -0.694554 1.821326 -0.021696
v -0.725217 1.809951 -0.029578
v -0.756028 1.798575 -0.034390
v -0.724896 1.809951 -0.036212
v -0.693617 1.821326 -0.041104
v -0.662250 1.832701 -0.047798
v -0.630832 1.844077 -0.055558
v -0.599393 1.855452 -0.063751
v -0.567961 1.866827 -0.071799
v -0.536561 1.878202 -0.079168
v -0.505218 1.889578 -0.085384
v -0.473949 1.900953 -0.090046
v -0.442771 1.912328 -0.092838
v -0.411693 1.923704 -0.093541
v -0.380722 1.935079 -0.092046
v -0.349857 1.946454 -0.088352
v -0.319092 1.957830 -0.082570
v -0.288418 1.969205 -0.074918
v -0.257819 1.980580 -0.065711
v -0.227276 1.991956 -0.055351
v -0.196765 2.003331 -0.044313
v -0.166262 2.014706 -0.033129
v -0.135737 2.026082 -0.022379
v -0.105161 2.037457 -0.012694
v -0.074498 2.048832 -0.004812
f 247 248 249
f 247 249 248
f 247 249 250
f 247 250 249
f 247 250 251
f 247 251 250
f 247 251 252
f 247 252 251
f 247 252 253
f 247 253 252
f 247 253 254
f 247 254 253
f 247 254 255
f 247 255 254
f 247 255 256
f 247 256 255
f 247 256 257
f 247 257 256
f 247 257 258
f 247 258 257
f 247 258 259
f 247 259 258
f 247 259 260
f 247 260 259
f 247 260 261
f 247 261 260
f 247 261 262
f 247 262 261
f 247 262 263
f 247 263 262
f 247 263 264
f 247 264 263
f 247 264 265
f 247 265 264
f 247 265 266
f 247 266 265
f 247 266 267
f 247 267 266
f 247 267 268
f 247 268 267
f 247 268 269
f 247 269 268
f 247 269 270
f 247 270 269
f 247 270 271
f 247 271 270
f 247 271 272
f 247 272 271
f 247 272 273
f 247 273 272
f 247 273 274
f 247 274 273
f 247 274 275
f 247 275 274
f 247 275 276
f 247 276 275
f 247 276 277
f 247 277 276
f 247 277 278
f 247 278 277
f 247 278 279
f 247 279 278
f 247 279 280
f 247 280 279
f 247 280 281
f 247 281 280
f 247 281 282
f 247 282 281
f 247 282 283
f 247 283 282
f 247 283 284
f 247 284 283
f 247 284 285
f 247 285 284
f 247 285 286
f 247 286 285
f 247 286 287
f 247 287 286
f 247 287 288
f 247 288 287
f 247 288 289
f 247 289 288
f 247 289 290
f 247 290 289
f 247 290 291
f 247 291 290
f 247 291 292
f 247 292 291
v -0.043687 2.060208 -0.000000
v -0.051944 2.081115 -0.019890
v -0.059282 2.102021 -0.040590
v -0.066423 2.122928 -0.061464
v -0.073662 2.143835 -0.082251
v -0.081218 2.164742 -0.102759
v -0.089273 2.185649 -0.122826
v -0.097986 2.206556 -0.142315
v -0.107487 2.227462 -0.161108
v -0.117886 2.248369 -0.179111
v -0.129264 2.269276 -0.196250
v -0.141678 2.290183 -0.212477
v -0.155154 2.311090 -0.227767
v -0.169693 2.331997 -0.242120
v -0.185267 2.352904 -0.255562
v -0.201820 2.373810 -0.268140
v -0.219271 2.394717 -0.279927
v -0.237510 2.415624 -0.291019
v -0.256407 2.436531 -0.301532
v -0.275803 2.457438 -0.311604
v -0.295516 2.478345 -0.321397
v -0.315327 2.499251 -0.331104
v -0.334941 2.520158 -0.340984
v -0.353637 2.541065 -0.351675
v -0.345380 2.520158 -0.331785
v -0.338042 2.499251 -0.311084
v -0.330900 2.478345 -0.290211
v -0.323661 2.457438 -0.269424
v -0.316106 2.436531 -0.248916
v -0.308050 2.415624 -0.228848
v -0.299338 2.394717 -0.209360
v -0.289836 2.373810 -0.190566
v -0.279437 2.352904 -0.172564
v -0.268059 2.331997 -0.155425
v -0.255646 2.311090 -0.139198
v -0.242170 2.290183 -0.123908
v -0.227631 2.269276 -0.109554
v -0.212057 2.248369 -0.096113
v -0.195503 2.227462 -0.083535
v -0.178053 2.206556 -0.071748
v -0.159813 2.185649 -0.060656
v -0.140917 2.164742 -0.050143
v -0.121520 2.143835 -0.040071
v -0.101807 2.122928 -0.030278
v -0.081997 2.102021 -0.020570
v -0.062382 2.081115 -0.010690
f 293 294 295
f 293 295 294
f 293 295 296
f 293 296 295
f 293 296 297
f 293 297 296
f 293 297 298
f 293 298 297
f 293 298 299
f 293 299 298
f 293 299 300
f 293 300 299
f 293 300 301
f 293 301 300
f 293 301 302
f 293 302 301
f 293 302 303
f 293 303 302
f 293 303 304
f 293 304 303
f 293 304 305
f 293 305 304
f 293 305 306
f 293 306 305
f 293 306 307
f 293 307 306
f 293 307 308
f 293 308 307
f 293 308 309
f 293 309 308
f 293 309 310
f 293 310 309
f 293 310 311
f 293 311 310
f 293 311 312
f 293 312 311
f 293 312 313
f 293 313 312
f 293 313 314
f 293 314 313
f 293 314 315
f 293 315 314
f 293 315 316
f 293 316 315
f 293 316 317
f 293 317 316
f 293 317 318
f 293 318 317
f 293 318 319
f 293 319 318
f 293 319 320
f 293 320 319
f 293 320 321
f 293 321 320
f 293 321 322
f 293 322 321
f 293 322 323
f 293 323 322
f 293 323 324
f 293 324 323
f 293 324 325
f 293 325 324
f 293 325 326
f 293 326 325
f 293 326 327
f 293 327 326
f 293 327 328
f 293 328 327
f 293 328 329
f 293 329 328
f 293 329 330
f 293 330 329
f 293 330 331
f 293 331 330
f 293 331 332
f 293 332 331
f 293 332 333
f 293 333 332
f 293 333 334
f 293 334 333
f 293 334 335
f 293 335 334
f 293 335 336
f 293 336 335
f 293 336 337
f 293 337 336
f 293 337 338
f 293 338 337
