o mesh
v 0.000000 0.000000 0.008000 0.200 0.440 0.170
v 0.006928 0.000000 0.004000 0.200 0.440 0.170
v 0.006928 0.000000 -0.004000 0.200 0.440 0.170
v 0.000000 0.000000 -0.008000 0.200 0.440 0.170
v -0.006928 0.000000 -0.004000 0.200 0.440 0.170
v -0.006928 0.000000 0.004000 0.200 0.440 0.170
v 0.000000 0.414174 0.006000 0.200 0.440 0.170
v 0.005196 0.414174 0.003000 0.200 0.440 0.170
v 0.005196 0.414174 -0.003000 0.200 0.440 0.170
v 0.000000 0.414174 -0.006000 0.200 0.440 0.170
v -0.005196 0.414174 -0.003000 0.200 0.440 0.170
v -0.005196 0.414174 0.003000 0.200 0.440 0.170
f 1 2 8
f 1 8 7
f 2 3 9
f 2 9 8
f 3 4 10
f 3 10 9
f 4 5 11
f 4 11 10
f 5 6 12
f 5 12 11
f 6 1 7
f 6 7 12
v 0.000000 0.416295 0.023222 0.980 0.893 0.543
v 0.000512 0.416398 0.023960 0.980 0.893 0.543
v 0.001126 0.416740 0.026338 0.980 0.893 0.543
v 0.001983 0.417438 0.030885 0.980 0.893 0.543
v 0.003305 0.418740 0.038572 0.980 0.893 0.543
v 0.005414 0.421031 0.050477 0.980 0.893 0.543
v 0.008400 0.424266 0.065150 0.980 0.893 0.543
v 0.010988 0.426174 0.072902 0.980 0.893 0.543
v 0.011176 0.424266 0.064731 0.980 0.893 0.543
v 0.009704 0.421031 0.049830 0.980 0.893 0.543
v 0.008211 0.418740 0.037833 0.980 0.893 0.543
v 0.007209 0.417438 0.030098 0.980 0.893 0.543
v 0.006687 0.416740 0.025500 0.980 0.893 0.543
v 0.006573 0.416398 0.023047 0.980 0.893 0.543
v 0.006845 0.416295 0.022190 0.980 0.893 0.543
v 0.007552 0.416398 0.022745 0.980 0.893 0.543
v 0.008840 0.416740 0.024836 0.980 0.893 0.543
v 0.010998 0.417438 0.028929 0.980 0.893 0.543
v 0.014528 0.418740 0.035884 0.980 0.893 0.543
v 0.020052 0.421031 0.046638 0.980 0.893 0.543
v 0.027230 0.424266 0.059779 0.980 0.893 0.543
v 0.031988 0.426174 0.066424 0.980 0.893 0.543
v 0.029760 0.424266 0.058561 0.980 0.893 0.543
v 0.023961 0.421031 0.044756 0.980 0.893 0.543
v 0.018997 0.418740 0.033732 0.980 0.893 0.543
v 0.015760 0.417438 0.026636 0.980 0.893 0.543
v 0.013906 0.416740 0.022396 0.980 0.893 0.543
v 0.013074 0.416398 0.020086 0.980 0.893 0.543
v 0.013081 0.416295 0.019187 0.980 0.893 0.543
v 0.013921 0.416398 0.019509 0.980 0.893 0.543
v 0.015768 0.416740 0.021127 0.980 0.893 0.543
v 0.019037 0.417438 0.024402 0.980 0.893 0.543
v 0.024460 0.418740 0.030008 0.980 0.893 0.543
v 0.032908 0.421031 0.038656 0.980 0.893 0.543
v 0.043641 0.424266 0.049097 0.980 0.893 0.543
v 0.050146 0.426174 0.054044 0.980 0.893 0.543
v 0.045699 0.424266 0.047188 0.980 0.893 0.543
v 0.036088 0.421031 0.035705 0.980 0.893 0.543
v 0.028096 0.418740 0.026634 0.980 0.893 0.543
v 0.022911 0.417438 0.020807 0.980 0.893 0.543
v 0.019890 0.416740 0.017302 0.980 0.893 0.543
v 0.018414 0.416398 0.015340 0.980 0.893 0.543
v 0.018156 0.416295 0.014479 0.980 0.893 0.543
v 0.019052 0.416398 0.014539 0.980 0.893 0.543
v 0.021294 0.416740 0.015541 0.980 0.893 0.543
v 0.025383 0.417438 0.017706 0.980 0.893 0.543
v 0.032218 0.418740 0.021465 0.980 0.893 0.543
v 0.042840 0.421031 0.027239 0.980 0.893 0.543
v 0.056173 0.424266 0.034053 0.980 0.893 0.543
v 0.063848 0.426174 0.036863 0.980 0.893 0.543
v 0.057577 0.424266 0.031621 0.980 0.893 0.543
v 0.045009 0.421031 0.023481 0.980 0.893 0.543
v 0.034698 0.418740 0.017169 0.980 0.893 0.543
v 0.028026 0.417438 0.013129 0.980 0.893 0.543
v 0.024106 0.416740 0.010671 0.980 0.893 0.543
v 0.022117 0.416398 0.009230 0.980 0.893 0.543
v 0.021617 0.416295 0.008484 0.980 0.893 0.543
v 0.022491 0.416398 0.008277 0.980 0.893 0.543
v 0.024929 0.416740 0.008574 0.980 0.893 0.543
v 0.029475 0.417438 0.009438 0.980 0.893 0.543
v 0.037113 0.418740 0.011015 0.980 0.893 0.543
v 0.048965 0.421031 0.013401 0.980 0.893 0.543
v 0.063715 0.424266 0.015982 0.980 0.893 0.543
v 0.071877 0.426174 0.016405 0.980 0.893 0.543
v 0.064340 0.424266 0.013245 0.980 0.893 0.543
v 0.049931 0.421031 0.009171 0.980 0.893 0.543
v 0.038217 0.418740 0.006179 0.980 0.893 0.543
v 0.030651 0.417438 0.004285 0.980 0.893 0.543
v 0.026181 0.416740 0.003092 0.980 0.893 0.543
v 0.023855 0.416398 0.002301 0.980 0.893 0.543
v 0.023157 0.416295 0.001735 0.980 0.893 0.543
v 0.023932 0.416398 0.001280 0.980 0.893 0.543
v 0.026349 0.416740 0.000845 0.980 0.893 0.543
v 0.030947 0.417438 0.000331 0.980 0.893 0.543
v 0.038711 0.418740 -0.000414 0.980 0.893 0.543
v 0.050740 0.421031 -0.001627 0.980 0.893 0.543
v 0.065595 0.424266 -0.003508 0.980 0.893 0.543
v 0.073519 0.426174 -0.005509 0.980 0.893 0.543
v 0.065385 0.424266 -0.006308 0.980 0.893 0.543
v 0.050416 0.421031 -0.005953 0.980 0.893 0.543
v 0.038341 0.418740 -0.005361 0.980 0.893 0.543
v 0.030552 0.417438 -0.004939 0.980 0.893 0.543
v 0.025929 0.416740 -0.004763 0.980 0.893 0.543
v 0.023474 0.416398 -0.004832 0.980 0.893 0.543
v 0.022640 0.416295 -0.005167 0.980 0.893 0.543
v 0.023246 0.416398 -0.005831 0.980 0.893 0.543
v 0.025427 0.416740 -0.006959 0.980 0.893 0.543
v 0.029670 0.417438 -0.008806 0.980 0.893 0.543
v 0.036870 0.418740 -0.011806 0.980 0.893 0.543
v 0.048006 0.421031 -0.016511 0.980 0.893 0.543
v 0.061647 0.424266 -0.022687 0.980 0.893 0.543
v 0.068629 0.426174 -0.026935 0.980 0.893 0.543
v 0.060621 0.424266 -0.025300 0.980 0.893 0.543
v 0.046421 0.421031 -0.020549 0.980 0.893 0.543
v 0.035057 0.418740 -0.016424 0.980 0.893 0.543
v 0.027739 0.417438 -0.013725 0.980 0.893 0.543
v 0.023373 0.416740 -0.012194 0.980 0.893 0.543
v 0.021006 0.416398 -0.011537 0.980 0.893 0.543
v 0.020111 0.416295 -0.011611 0.980 0.893 0.543
v 0.020494 0.416398 -0.012424 0.980 0.893 0.543
v 0.022246 0.416740 -0.014145 0.980 0.893 0.543
v 0.025756 0.417438 -0.017160 0.980 0.893 0.543
v 0.031752 0.418740 -0.022149 0.980 0.893 0.543
v 0.041007 0.421031 -0.029927 0.980 0.893 0.543
v 0.052221 0.424266 -0.039849 0.980 0.893 0.543
v 0.057641 0.426174 -0.045967 0.980 0.893 0.543
v 0.050471 0.424266 -0.042044 0.980 0.893 0.543
v 0.038302 0.421031 -0.033319 0.980 0.893 0.543
v 0.028659 0.418740 -0.026027 0.980 0.893 0.543
v 0.022461 0.417438 -0.021292 0.980 0.893 0.543
v 0.018740 0.416740 -0.018541 0.980 0.893 0.543
v 0.016673 0.416398 -0.017216 0.980 0.893 0.543
v 0.015795 0.416295 -0.017023 0.980 0.893 0.543
v 0.015922 0.416398 -0.017913 0.980 0.893 0.543
v 0.017089 0.416740 -0.020074 0.980 0.893 0.543
v 0.019554 0.417438 -0.023989 0.980 0.893 0.543
v 0.023813 0.418740 -0.030524 0.980 0.893 0.543
v 0.030364 0.421031 -0.040685 0.980 0.893 0.543
v 0.038155 0.424266 -0.053471 0.980 0.893 0.543
v 0.041531 0.426174 -0.060915 0.980 0.893 0.543
v 0.035836 0.424266 -0.055053 0.980 0.893 0.543
v 0.026779 0.421031 -0.043129 0.980 0.893 0.543
v 0.019714 0.418740 -0.033318 0.980 0.893 0.543
v 0.015187 0.417438 -0.026966 0.980 0.893 0.543
v 0.012443 0.416740 -0.023241 0.980 0.893 0.543
v 0.010857 0.416398 -0.021365 0.980 0.893 0.543
v 0.010076 0.416295 -0.020922 0.980 0.893 0.543
v 0.009935 0.416398 -0.021810 0.980 0.893 0.543
v 0.010413 0.416740 -0.024219 0.980 0.893 0.543
v 0.011614 0.417438 -0.028687 0.980 0.893 0.543
v 0.013758 0.418740 -0.036187 0.980 0.893 0.543
v 0.017023 0.421031 -0.047827 0.980 0.893 0.543
v 0.020699 0.424266 -0.062342 0.980 0.893 0.543
v 0.021731 0.426174 -0.070450 0.980 0.893 0.543
v 0.018016 0.424266 -0.063170 0.980 0.893 0.543
v 0.012877 0.421031 -0.049106 0.980 0.893 0.543
v 0.009017 0.418740 -0.037649 0.980 0.893 0.543
v 0.006564 0.417438 -0.030245 0.980 0.893 0.543
v 0.005039 0.416740 -0.025876 0.980 0.893 0.543
v 0.004078 0.416398 -0.023617 0.980 0.893 0.543
v 0.003461 0.416295 -0.022963 0.980 0.893 0.543
v 0.003065 0.416398 -0.023769 0.980 0.893 0.543
v 0.002812 0.416740 -0.026212 0.980 0.893 0.543
v 0.002642 0.417438 -0.030836 0.980 0.893 0.543
v 0.002480 0.418740 -0.038634 0.980 0.893 0.543
v 0.002169 0.421031 -0.050720 0.980 0.893 0.543
v 0.001404 0.424266 -0.065674 0.980 0.893 0.543
v 0.000000 0.426174 -0.073725 0.980 0.893 0.543
v -0.001404 0.424266 -0.065674 0.980 0.893 0.543
v -0.002169 0.421031 -0.050720 0.980 0.893 0.543
v -0.002480 0.418740 -0.038634 0.980 0.893 0.543
v -0.002642 0.417438 -0.030836 0.980 0.893 0.543
v -0.002812 0.416740 -0.026212 0.980 0.893 0.543
v -0.003065 0.416398 -0.023769 0.980 0.893 0.543
v -0.003461 0.416295 -0.022963 0.980 0.893 0.543
v -0.004078 0.416398 -0.023617 0.980 0.893 0.543
v -0.005039 0.416740 -0.025876 0.980 0.893 0.543
v -0.006564 0.417438 -0.030245 0.980 0.893 0.543
v -0.009017 0.418740 -0.037649 0.980 0.893 0.543
v -0.012877 0.421031 -0.049106 0.980 0.893 0.543
v -0.018016 0.424266 -0.063170 0.980 0.893 0.543
v -0.021731 0.426174 -0.070450 0.980 0.893 0.543
v -0.020699 0.424266 -0.062342 0.980 0.893 0.543
v -0.017023 0.421031 -0.047827 0.980 0.893 0.543
v -0.013758 0.418740 -0.036187 0.980 0.893 0.543
v -0.011614 0.417438 -0.028687 0.980 0.893 0.543
v -0.010413 0.416740 -0.024219 0.980 0.893 0.543
v -0.009935 0.416398 -0.021810 0.980 0.893 0.543
v -0.010076 0.416295 -0.020922 0.980 0.893 0.543
v -0.010857 0.416398 -0.021365 0.980 0.893 0.543
v -0.012443 0.416740 -0.023241 0.980 0.893 0.543
v -0.015187 0.417438 -0.026966 0.980 0.893 0.543
v -0.019714 0.418740 -0.033318 0.980 0.893 0.543
v -0.026779 0.421031 -0.043129 0.980 0.893 0.543
v -0.035836 0.424266 -0.055053 0.980 0.893 0.543
v -0.041531 0.426174 -0.060915 0.980 0.893 0.543
v -0.038155 0.424266 -0.053471 0.980 0.893 0.543
v -0.030364 0.421031 -0.040685 0.980 0.893 0.543
v -0.023813 0.418740 -0.030524 0.980 0.893 0.543
v -0.019554 0.417438 -0.023989 0.980 0.893 0.543
v -0.017089 0.416740 -0.020074 0.980 0.893 0.543
v -0.015922 0.416398 -0.017913 0.980 0.893 0.543
v -0.015795 0.416295 -0.017023 0.980 0.893 0.543
v -0.016673 0.416398 -0.017216 0.980 0.893 0.543
v -0.018740 0.416740 -0.018541 0.980 0.893 0.543
v -0.022461 0.417438 -0.021292 0.980 0.893 0.543
v -0.028659 0.418740 -0.026027 0.980 0.893 0.543
v -0.038302 0.421031 -0.033319 0.980 0.893 0.543
v -0.050471 0.424266 -0.042044 0.980 0.893 0.543
v -0.057641 0.426174 -0.045967 0.980 0.893 0.543
v -0.052221 0.424266 -0.039849 0.980 0.893 0.543
v -0.041007 0.421031 -0.029927 0.980 0.893 0.543
v -0.031752 0.418740 -0.022149 0.980 0.893 0.543
v -0.025756 0.417438 -0.017160 0.980 0.893 0.543
v -0.022246 0.416740 -0.014145 0.980 0.893 0.543
v -0.020494 0.416398 -0.012424 0.980 0.893 0.543
v -0.020111 0.416295 -0.011611 0.980 0.893 0.543
v -0.021006 0.416398 -0.011537 0.980 0.893 0.543
v -0.023373 0.416740 -0.012194 0.980 0.893 0.543
v -0.027739 0.417438 -0.013725 0.980 0.893 0.543
v -0.035057 0.418740 -0.016424 0.980 0.893 0.543
v -0.046421 0.421031 -0.020549 0.980 0.893 0.543
v -0.060621 0.424266 -0.025300 0.980 0.893 0.543
v -0.068629 0.426174 -0.026935 0.980 0.893 0.543
v -0.061647 0.424266 -0.022687 0.980 0.893 0.543
v -0.048006 0.421031 -0.016511 0.980 0.893 0.543
v -0.036870 0.418740 -0.011806 0.980 0.893 0.543
v -0.029670 0.417438 -0.008806 0.980 0.893 0.543
v -0.025427 0.416740 -0.006959 0.980 0.893 0.543
v -0.023246 0.416398 -0.005831 0.980 0.893 0.543
v -0.022640 0.416295 -0.005167 0.980 0.893 0.543
v -0.023474 0.416398 -0.004832 0.980 0.893 0.543
v -0.025929 0.416740 -0.004763 0.980 0.893 0.543
v -0.030552 0.417438 -0.004939 0.980 0.893 0.543
v -0.038341 0.418740 -0.005361 0.980 0.893 0.543
v -0.050416 0.421031 -0.005953 0.980 0.893 0.543
v -0.065385 0.424266 -0.006308 0.980 0.893 0.543
v -0.073519 0.426174 -0.005509 0.980 0.893 0.543
v -0.065595 0.424266 -0.003508 0.980 0.893 0.543
v -0.050740 0.421031 -0.001627 0.980 0.893 0.543
v -0.038711 0.418740 -0.000414 0.980 0.893 0.543
v -0.030947 0.417438 0.000331 0.980 0.893 0.543
v -0.026349 0.416740 0.000845 0.980 0.893 0.543
v -0.023932 0.416398 0.001280 0.980 0.893 0.543
v -0.023157 0.416295 0.001735 0.980 0.893 0.543
v -0.023855 0.416398 0.002301 0.980 0.893 0.543
v -0.026181 0.416740 0.003092 0.980 0.893 0.543
v -0.030651 0.417438 0.004285 0.980 0.893 0.543
v -0.038217 0.418740 0.006179 0.980 0.893 0.543
v -0.049931 0.421031 0.009171 0.980 0.893 0.543
v -0.064340 0.424266 0.013245 0.980 0.893 0.543
v -0.071877 0.426174 0.016405 0.980 0.893 0.543
v -0.063715 0.424266 0.015982 0.980 0.893 0.543
v -0.048965 0.421031 0.013401 0.980 0.893 0.543
v -0.037113 0.418740 0.011015 0.980 0.893 0.543
v -0.029475 0.417438 0.009438 0.980 0.893 0.543
v -0.024929 0.416740 0.008574 0.980 0.893 0.543
v -0.022491 0.416398 0.008277 0.980 0.893 0.543
v -0.021617 0.416295 0.008484 0.980 0.893 0.543
v -0.022117 0.416398 0.009230 0.980 0.893 0.543
v -0.024106 0.416740 0.010671 0.980 0.893 0.543
v -0.028026 0.417438 0.013129 0.980 0.893 0.543
v -0.034698 0.418740 0.017169 0.980 0.893 0.543
v -0.045009 0.421031 0.023481 0.980 0.893 0.543
v -0.057577 0.424266 0.031621 0.980 0.893 0.543
v -0.063848 0.426174 0.036863 0.980 0.893 0.543
v -0.056173 0.424266 0.034053 0.980 0.893 0.543
v -0.042840 0.421031 0.027239 0.980 0.893 0.543
v -0.032218 0.418740 0.021465 0.980 0.893 0.543
v -0.025383 0.417438 0.017706 0.980 0.893 0.543
v -0.021294 0.416740 0.015541 0.980 0.893 0.543
v -0.019052 0.416398 0.014539 0.980 0.893 0.543
v -0.018156 0.416295 0.014479 0.980 0.893 0.543
v -0.018414 0.416398 0.015340 0.980 0.893 0.543
v -0.019890 0.416740 0.017302 0.980 0.893 0.543
v -0.022911 0.417438 0.020807 0.980 0.893 0.543
v -0.028096 0.418740 0.026634 0.980 0.893 0.543
v -0.036088 0.421031 0.035705 0.980 0.893 0.543
v -0.045699 0.424266 0.047188 0.980 0.893 0.543
v -0.050146 0.426174 0.054044 0.980 0.893 0.543
v -0.043641 0.424266 0.049097 0.980 0.893 0.543
v -0.032908 0.421031 0.038656 0.980 0.893 0.543
v -0.024460 0.418740 0.030008 0.980 0.893 0.543
v -0.019037 0.417438 0.024402 0.980 0.893 0.543
v -0.015768 0.416740 0.021127 0.980 0.893 0.543
v -0.013921 0.416398 0.019509 0.980 0.893 0.543
v -0.013081 0.416295 0.019187 0.980 0.893 0.543
v -0.013074 0.416398 0.020086 0.980 0.893 0.543
v -0.013906 0.416740 0.022396 0.980 0.893 0.543
v -0.015760 0.417438 0.026636 0.980 0.893 0.543
v -0.018997 0.418740 0.033732 0.980 0.893 0.543
v -0.023961 0.421031 0.044756 0.980 0.893 0.543
v -0.029760 0.424266 0.058561 0.980 0.893 0.543
v -0.031988 0.426174 0.066424 0.980 0.893 0.543
v -0.027230 0.424266 0.059779 0.980 0.893 0.543
v -0.020052 0.421031 0.046638 0.980 0.893 0.543
v -0.014528 0.418740 0.035884 0.980 0.893 0.543
v -0.010998 0.417438 0.028929 0.980 0.893 0.543
v -0.008840 0.416740 0.024836 0.980 0.893 0.543
v -0.007552 0.416398 0.022745 0.980 0.893 0.543
v -0.006845 0.416295 0.022190 0.980 0.893 0.543
v -0.006573 0.416398 0.023047 0.980 0.893 0.543
v -0.006687 0.416740 0.025500 0.980 0.893 0.543
v -0.007209 0.417438 0.030098 0.980 0.893 0.543
v -0.008211 0.418740 0.037833 0.980 0.893 0.543
v -0.009704 0.421031 0.049830 0.980 0.893 0.543
v -0.011176 0.424266 0.064731 0.980 0.893 0.543
v -0.010988 0.426174 0.072902 0.980 0.893 0.543
v -0.008400 0.424266 0.065150 0.980 0.893 0.543
v -0.005414 0.421031 0.050477 0.980 0.893 0.543
v -0.003305 0.418740 0.038572 0.980 0.893 0.543
v -0.001983 0.417438 0.030885 0.980 0.893 0.543
v -0.001126 0.416740 0.026338 0.980 0.893 0.543
v -0.000512 0.416398 0.023960 0.980 0.893 0.543
v 0.000000 0.414174 -0.000000 0.980 0.893 0.543
f 307 13 14
f 307 14 13
f 307 14 15
f 307 15 14
f 307 15 16
f 307 16 15
f 307 16 17
f 307 17 16
f 307 17 18
f 307 18 17
f 307 18 19
f 307 19 18
f 307 19 20
f 307 20 19
f 307 20 21
f 307 21 20
f 307 21 22
f 307 22 21
f 307 22 23
f 307 23 22
f 307 23 24
f 307 24 23
f 307 24 25
f 307 25 24
f 307 25 26
f 307 26 25
f 307 26 27
f 307 27 26
f 307 27 28
f 307 28 27
f 307 28 29
f 307 29 28
f 307 29 30
f 307 30 29
f 307 30 31
f 307 31 30
f 307 31 32
f 307 32 31
f 307 32 33
f 307 33 32
f 307 33 34
f 307 34 33
f 307 34 35
f 307 35 34
f 307 35 36
f 307 36 35
f 307 36 37
f 307 37 36
f 307 37 38
f 307 38 37
f 307 38 39
f 307 39 38
f 307 39 40
f 307 40 39
f 307 40 41
f 307 41 40
f 307 41 42
f 307 42 41
f 307 42 43
f 307 43 42
f 307 43 44
f 307 44 43
f 307 44 45
f 307 45 44
f 307 45 46
f 307 46 45
f 307 46 47
f 307 47 46
f 307 47 48
f 307 48 47
f 307 48 49
f 307 49 48
f 307 49 50
f 307 50 49
f 307 50 51
f 307 51 50
f 307 51 52
f 307 52 51
f 307 52 53
f 307 53 52
f 307 53 54
f 307 54 53
f 307 54 55
f 307 55 54
f 307 55 56
f 307 56 55
f 307 56 57
f 307 57 56
f 307 57 58
f 307 58 57
f 307 58 59
f 307 59 58
f 307 59 60
f 307 60 59
f 307 60 61
f 307 61 60
f 307 61 62
f 307 62 61
f 307 62 63
f 307 63 62
f 307 63 64
f 307 64 63
f 307 64 65
f 307 65 64
f 307 65 66
f 307 66 65
f 307 66 67
f 307 67 66
f 307 67 68
f 307 68 67
f 307 68 69
f 307 69 68
f 307 69 70
f 307 70 69
f 307 70 71
f 307 71 70
f 307 71 72
f 307 72 71
f 307 72 73
f 307 73 72
f 307 73 74
f 307 74 73
f 307 74 75
f 307 75 74
f 307 75 76
f 307 76 75
f 307 76 77
f 307 77 76
f 307 77 78
f 307 78 77
f 307 78 79
f 307 79 78
f 307 79 80
f 307 80 79
f 307 80 81
f 307 81 80
f 307 81 82
f 307 82 81
f 307 82 83
f 307 83 82
f 307 83 84
f 307 84 83
f 307 84 85
f 307 85 84
f 307 85 86
f 307 86 85
f 307 86 87
f 307 87 86
f 307 87 88
f 307 88 87
f 307 88 89
f 307 89 88
f 307 89 90
f 307 90 89
f 307 90 91
f 307 91 90
f 307 91 92
f 307 92 91
f 307 92 93
f 307 93 92
f 307 93 94
f 307 94 93
f 307 94 95
f 307 95 94
f 307 95 96
f 307 96 95
f 307 96 97
f 307 97 96
f 307 97 98
f 307 98 97
f 307 98 99
f 307 99 98
f 307 99 100
f 307 100 99
f 307 100 101
f 307 101 100
f 307 101 102
f 307 102 101
f 307 102 103
f 307 103 102
f 307 103 104
f 307 104 103
f 307 104 105
f 307 105 104
f 307 105 106
f 307 106 105
f 307 106 107
f 307 107 106
f 307 107 108
f 307 108 107
f 307 108 109
f 307 109 108
f 307 109 110
f 307 110 109
f 307 110 111
f 307 111 110
f 307 111 112
f 307 112 111
f 307 112 113
f 307 113 112
f 307 113 114
f 307 114 113
f 307 114 115
f 307 115 114
f 307 115 116
f 307 116 115
f 307 116 117
f 307 117 116
f 307 117 118
f 307 118 117
f 307 118 119
f 307 119 118
f 307 119 120
f 307 120 119
f 307 120 121
f 307 121 120
f 307 121 122
f 307 122 121
f 307 122 123
f 307 123 122
f 307 123 124
f 307 124 123
f 307 124 125
f 307 125 124
f 307 125 126
f 307 126 125
f 307 126 127
f 307 127 126
f 307 127 128
f 307 128 127
f 307 128 129
f 307 129 128
f 307 129 130
f 307 130 129
f 307 130 131
f 307 131 130
f 307 131 132
f 307 132 131
f 307 132 133
f 307 133 132
f 307 133 134
f 307 134 133
f 307 134 135
f 307 135 134
f 307 135 136
f 307 136 135
f 307 136 137
f 307 137 136
f 307 137 138
f 307 138 137
f 307 138 139
f 307 139 138
f 307 139 140
f 307 140 139
f 307 140 141
f 307 141 140
f 307 141 142
f 307 142 141
f 307 142 143
f 307 143 142
f 307 143 144
f 307 144 143
f 307 144 145
f 307 145 144
f 307 145 146
f 307 146 145
f 307 146 147
f 307 147 146
f 307 147 148
f 307 148 147
f 307 148 149
f 307 149 148
f 307 149 150
f 307 150 149
f 307 150 151
f 307 151 150
f 307 151 152
f 307 152 151
f 307 152 153
f 307 153 152
f 307 153 154
f 307 154 153
f 307 154 155
f 307 155 154
f 307 155 156
f 307 156 155
f 307 156 157
f 307 157 156
f 307 157 158
f 307 158 157
f 307 158 159
f 307 159 158
f 307 159 160
f 307 160 159
f 307 160 161
f 307 161 160
f 307 161 162
f 307 162 161
f 307 162 163
f 307 163 162
f 307 163 164
f 307 164 163
f 307 164 165
f 307 165 164
f 307 165 166
f 307 166 165
f 307 166 167
f 307 167 166
f 307 167 168
f 307 168 167
f 307 168 169
f 307 169 168
f 307 169 170
f 307 170 169
f 307 170 171
f 307 171 170
f 307 171 172
f 307 172 171
f 307 172 173
f 307 173 172
f 307 173 174
f 307 174 173
f 307 174 175
f 307 175 174
f 307 175 176
f 307 176 175
f 307 176 177
f 307 177 176
f 307 177 178
f 307 178 177
f 307 178 179
f 307 179 178
f 307 179 180
f 307 180 179
f 307 180 181
f 307 181 180
f 307 181 182
f 307 182 181
f 307 182 183
f 307 183 182
f 307 183 184
f 307 184 183
f 307 184 185
f 307 185 184
f 307 185 186
f 307 186 185
f 307 186 187
f 307 187 186
f 307 187 188
f 307 188 187
f 307 188 189
f 307 189 188
f 307 189 190
f 307 190 189
f 307 190 191
f 307 191 190
f 307 191 192
f 307 192 191
f 307 192 193
f 307 193 192
f 307 193 194
f 307 194 193
f 307 194 195
f 307 195 194
f 307 195 196
f 307 196 195
f 307 196 197
f 307 197 196
f 307 197 198
f 307 198 197
f 307 198 199
f 307 199 198
f 307 199 200
f 307 200 199
f 307 200 201
f 307 201 200
f 307 201 202
f 307 202 201
f 307 202 203
f 307 203 202
f 307 203 204
f 307 204 203
f 307 204 205
f 307 205 204
f 307 205 206
f 307 206 205
f 307 206 207
f 307 207 206
f 307 207 208
f 307 208 207
f 307 208 209
f 307 209 208
f 307 209 210
f 307 210 209
f 307 210 211
f 307 211 210
f 307 211 212
f 307 212 211
f 307 212 213
f 307 213 212
f 307 213 214
f 307 214 213
f 307 214 215
f 307 215 214
f 307 215 216
f 307 216 215
f 307 216 217
f 307 217 216
f 307 217 218
f 307 218 217
f 307 218 219
f 307 219 218
f 307 219 220
f 307 220 219
f 307 220 221
f 307 221 220
f 307 221 222
f 307 222 221
f 307 222 223
f 307 223 222
f 307 223 224
f 307 224 223
f 307 224 225
f 307 225 224
f 307 225 226
f 307 226 225
f 307 226 227
f 307 227 226
f 307 227 228
f 307 228 227
f 307 228 229
f 307 229 228
f 307 229 230
f 307 230 229
f 307 230 231
f 307 231 230
f 307 231 232
f 307 232 231
f 307 232 233
f 307 233 232
f 307 233 234
f 307 234 233
f 307 234 235
f 307 235 234
f 307 235 236
f 307 236 235
f 307 236 237
f 307 237 236
f 307 237 238
f 307 238 237
f 307 238 239
f 307 239 238
f 307 239 240
f 307 240 239
f 307 240 241
f 307 241 240
f 307 241 242
f 307 242 241
f 307 242 243
f 307 243 242
f 307 243 244
f 307 244 243
f 307 244 245
f 307 245 244
f 307 245 246
f 307 246 245
f 307 246 247
f 307 247 246
f 307 247 248
f 307 248 247
f 307 248 249
f 307 249 248
f 307 249 250
f 307 250 249
f 307 250 251
f 307 251 250
f 307 251 252
f 307 252 251
f 307 252 253
f 307 253 252
f 307 253 254
f 307 254 253
f 307 254 255
f 307 255 254
f 307 255 256
f 307 256 255
f 307 256 257
f 307 257 256
f 307 257 258
f 307 258 257
f 307 258 259
f 307 259 258
f 307 259 260
f 307 260 259
f 307 260 261
f 307 261 260
f 307 261 262
f 307 262 261
f 307 262 263
f 307 263 262
f 307 263 264
f 307 264 263
f 307 264 265
f 307 265 264
f 307 265 266
f 307 266 265
f 307 266 267
f 307 267 266
f 307 267 268
f 307 268 267
f 307 268 269
f 307 269 268
f 307 269 270
f 307 270 269
f 307 270 271
f 307 271 270
f 307 271 272
f 307 272 271
f 307 272 273
f 307 273 272
f 307 273 274
f 307 274 273
f 307 274 275
f 307 275 274
f 307 275 276
f 307 276 275
f 307 276 277
f 307 277 276
f 307 277 278
f 307 278 277
f 307 278 279
f 307 279 278
f 307 279 280
f 307 280 279
f 307 280 281
f 307 281 280
f 307 281 282
f 307 282 281
f 307 282 283
f 307 283 282
f 307 283 284
f 307 284 283
f 307 284 285
f 307 285 284
f 307 285 286
f 307 286 285
f 307 286 287
f 307 287 286
f 307 287 288
f 307 288 287
f 307 288 289
f 307 289 288
f 307 289 290
f 307 290 289
f 307 290 291
f 307 291 290
f 307 291 292
f 307 292 291
f 307 292 293
f 307 293 292
f 307 293 294
f 307 294 293
f 307 294 295
f 307 295 294
f 307 295 296
f 307 296 295
f 307 296 297
f 307 297 296
f 307 297 298
f 307 298 297
f 307 298 299
f 307 299 298
f 307 299 300
f 307 300 299
f 307 300 301
f 307 301 300
f 307 301 302
f 307 302 301
f 307 302 303
f 307 303 302
f 307 303 304
f 307 304 303
f 307 304 305
f 307 305 304
f 307 305 306
f 307 306 305
f 307 306 13
f 307 13 306
v 0.003046 0.416295 0.020207 0.983 0.906 0.597
v 0.003588 0.416398 0.020783 0.983 0.906 0.597
v 0.004435 0.416740 0.022771 0.983 0.906 0.597
v 0.005776 0.417438 0.026615 0.983 0.906 0.597
v 0.007935 0.418740 0.033131 0.983 0.906 0.597
v 0.011332 0.421031 0.043213 0.983 0.906 0.597
v 0.015854 0.424266 0.055589 0.983 0.906 0.597
v 0.019123 0.426174 0.061996 0.983 0.906 0.597
v 0.018215 0.424266 0.054861 0.983 0.906 0.597
v 0.014980 0.421031 0.042088 0.983 0.906 0.597
v 0.012107 0.418740 0.031844 0.983 0.906 0.597
v 0.010220 0.417438 0.025245 0.983 0.906 0.597
v 0.009163 0.416740 0.021313 0.983 0.906 0.597
v 0.008742 0.416398 0.019193 0.983 0.906 0.597
v 0.008867 0.416295 0.018412 0.983 0.906 0.597
v 0.009555 0.416398 0.018802 0.983 0.906 0.597
v 0.010950 0.416740 0.020452 0.983 0.906 0.597
v 0.013365 0.417438 0.023730 0.983 0.906 0.597
v 0.017348 0.418740 0.029320 0.983 0.906 0.597
v 0.023566 0.421031 0.037953 0.983 0.906 0.597
v 0.031535 0.424266 0.048447 0.983 0.906 0.597
v 0.036547 0.426174 0.053605 0.983 0.906 0.597
v 0.033577 0.424266 0.047055 0.983 0.906 0.597
v 0.026720 0.421031 0.035803 0.983 0.906 0.597
v 0.020955 0.418740 0.026861 0.983 0.906 0.597
v 0.017207 0.417438 0.021110 0.983 0.906 0.597
v 0.015038 0.416740 0.017665 0.983 0.906 0.597
v 0.014011 0.416398 0.015763 0.983 0.906 0.597
v 0.013900 0.416295 0.014980 0.983 0.906 0.597
v 0.014672 0.416398 0.015150 0.983 0.906 0.597
v 0.016492 0.416740 0.016316 0.983 0.906 0.597
v 0.019766 0.417438 0.018737 0.983 0.906 0.597
v 0.025220 0.418740 0.022904 0.983 0.906 0.597
v 0.033706 0.421031 0.029321 0.983 0.906 0.597
v 0.044414 0.424266 0.036999 0.983 0.906 0.597
v 0.050724 0.426174 0.040451 0.983 0.906 0.597
v 0.045955 0.424266 0.035068 0.983 0.906 0.597
v 0.036086 0.421031 0.026336 0.983 0.906 0.597
v 0.027942 0.418740 0.019491 0.983 0.906 0.597
v 0.022665 0.417438 0.015101 0.983 0.906 0.597
v 0.019577 0.416740 0.012447 0.983 0.906 0.597
v 0.018035 0.416398 0.010933 0.983 0.906 0.597
v 0.017698 0.416295 0.010218 0.983 0.906 0.597
v 0.018486 0.416398 0.010152 0.983 0.906 0.597
v 0.020568 0.416740 0.010730 0.983 0.906 0.597
v 0.024410 0.417438 0.012078 0.983 0.906 0.597
v 0.030850 0.418740 0.014453 0.983 0.906 0.597
v 0.040851 0.421031 0.018083 0.983 0.906 0.597
v 0.053347 0.424266 0.022264 0.983 0.906 0.597
v 0.060393 0.426174 0.023703 0.983 0.906 0.597
v 0.054249 0.424266 0.019964 0.983 0.906 0.597
v 0.042245 0.421031 0.014529 0.983 0.906 0.597
v 0.032445 0.418740 0.010389 0.983 0.906 0.597
v 0.026109 0.417438 0.007749 0.983 0.906 0.597
v 0.022376 0.416740 0.006124 0.983 0.906 0.597
v 0.020456 0.416398 0.005131 0.983 0.906 0.597
v 0.019923 0.416295 0.004547 0.983 0.906 0.597
v 0.020657 0.416398 0.004253 0.983 0.906 0.597
v 0.022817 0.416740 0.004191 0.983 0.906 0.597
v 0.026886 0.417438 0.004347 0.983 0.906 0.597
v 0.033740 0.418740 0.004717 0.983 0.906 0.597
v 0.044366 0.421031 0.005239 0.983 0.906 0.597
v 0.057539 0.424266 0.005551 0.983 0.906 0.597
v 0.064697 0.426174 0.004848 0.983 0.906 0.597
v 0.057724 0.424266 0.003087 0.983 0.906 0.597
v 0.044651 0.421031 0.001432 0.983 0.906 0.597
v 0.034066 0.418740 0.000364 0.983 0.906 0.597
v 0.027233 0.417438 -0.000291 0.983 0.906 0.597
v 0.023187 0.416740 -0.000744 0.983 0.906 0.597
v 0.021060 0.416398 -0.001126 0.983 0.906 0.597
v 0.020378 0.416295 -0.001527 0.983 0.906 0.597
v 0.020993 0.416398 -0.002025 0.983 0.906 0.597
v 0.023039 0.416740 -0.002721 0.983 0.906 0.597
v 0.026973 0.417438 -0.003771 0.983 0.906 0.597
v 0.033631 0.418740 -0.005437 0.983 0.906 0.597
v 0.043939 0.421031 -0.008071 0.983 0.906 0.597
v 0.056619 0.424266 -0.011656 0.983 0.906 0.597
v 0.063251 0.426174 -0.014437 0.983 0.906 0.597
v 0.056069 0.424266 -0.014064 0.983 0.906 0.597
v 0.043090 0.421031 -0.011793 0.983 0.906 0.597
v 0.032660 0.418740 -0.009693 0.983 0.906 0.597
v 0.025938 0.417438 -0.008305 0.983 0.906 0.597
v 0.021938 0.416740 -0.007545 0.983 0.906 0.597
v 0.019792 0.416398 -0.007284 0.983 0.906 0.597
v 0.019023 0.416295 -0.007466 0.983 0.906 0.597
v 0.019463 0.416398 -0.008123 0.983 0.906 0.597
v 0.021213 0.416740 -0.009391 0.983 0.906 0.597
v 0.024663 0.417438 -0.011554 0.983 0.906 0.597
v 0.030534 0.418740 -0.015109 0.983 0.906 0.597
v 0.039608 0.421031 -0.020664 0.983 0.906 0.597
v 0.050668 0.424266 -0.027827 0.983 0.906 0.597
v 0.056186 0.426174 -0.032439 0.983 0.906 0.597
v 0.049433 0.424266 -0.029966 0.983 0.906 0.597
v 0.037699 0.421031 -0.023970 0.983 0.906 0.597
v 0.028352 0.418740 -0.018889 0.983 0.906 0.597
v 0.022337 0.417438 -0.015582 0.983 0.906 0.597
v 0.018739 0.416740 -0.013676 0.983 0.906 0.597
v 0.016766 0.416398 -0.012794 0.983 0.906 0.597
v 0.015977 0.416295 -0.012741 0.983 0.906 0.597
v 0.016204 0.416398 -0.013499 0.983 0.906 0.597
v 0.017503 0.416740 -0.015226 0.983 0.906 0.597
v 0.020161 0.417438 -0.018310 0.983 0.906 0.597
v 0.024725 0.418740 -0.023438 0.983 0.906 0.597
v 0.031758 0.421031 -0.031420 0.983 0.906 0.597
v 0.040215 0.424266 -0.041525 0.983 0.906 0.597
v 0.044128 0.426174 -0.047559 0.983 0.906 0.597
v 0.038404 0.424266 -0.043205 0.983 0.906 0.597
v 0.028959 0.421031 -0.034017 0.983 0.906 0.597
v 0.021524 0.418740 -0.026407 0.983 0.906 0.597
v 0.016752 0.417438 -0.021473 0.983 0.906 0.597
v 0.013876 0.416740 -0.018592 0.983 0.906 0.597
v 0.012250 0.416398 -0.017168 0.983 0.906 0.597
v 0.011512 0.416295 -0.016884 0.983 0.906 0.597
v 0.011505 0.416398 -0.017675 0.983 0.906 0.597
v 0.012237 0.416740 -0.019709 0.983 0.906 0.597
v 0.013869 0.417438 -0.023439 0.983 0.906 0.597
v 0.016718 0.418740 -0.029684 0.983 0.906 0.597
v 0.021086 0.421031 -0.039385 0.983 0.906 0.597
v 0.026188 0.424266 -0.051534 0.983 0.906 0.597
v 0.028150 0.426174 -0.058453 0.983 0.906 0.597
v 0.023962 0.424266 -0.052606 0.983 0.906 0.597
v 0.017646 0.421031 -0.041042 0.983 0.906 0.597
v 0.012785 0.418740 -0.031578 0.983 0.906 0.597
v 0.009679 0.417438 -0.025457 0.983 0.906 0.597
v 0.007779 0.416740 -0.021856 0.983 0.906 0.597
v 0.006646 0.416398 -0.020016 0.983 0.906 0.597
v 0.006023 0.416295 -0.019527 0.983 0.906 0.597
v 0.005784 0.416398 -0.020281 0.983 0.906 0.597
v 0.005885 0.416740 -0.022440 0.983 0.906 0.597
v 0.006344 0.417438 -0.026486 0.983 0.906 0.597
v 0.007225 0.418740 -0.033293 0.983 0.906 0.597
v 0.008540 0.421031 -0.043850 0.983 0.906 0.597
v 0.009835 0.424266 -0.056963 0.983 0.906 0.597
v 0.009670 0.426174 -0.064153 0.983 0.906 0.597
v 0.007392 0.424266 -0.057332 0.983 0.906 0.597
v 0.004765 0.421031 -0.044419 0.983 0.906 0.597
v 0.002909 0.418740 -0.033944 0.983 0.906 0.597
v 0.001745 0.417438 -0.027179 0.983 0.906 0.597
v 0.000991 0.416740 -0.023178 0.983 0.906 0.597
v 0.000451 0.416398 -0.021085 0.983 0.906 0.597
v 0.000000 0.416295 -0.020435 0.983 0.906 0.597
v -0.000451 0.416398 -0.021085 0.983 0.906 0.597
v -0.000991 0.416740 -0.023178 0.983 0.906 0.597
v -0.001745 0.417438 -0.027179 0.983 0.906 0.597
v -0.002909 0.418740 -0.033944 0.983 0.906 0.597
v -0.004765 0.421031 -0.044419 0.983 0.906 0.597
v -0.007392 0.424266 -0.057332 0.983 0.906 0.597
v -0.009670 0.426174 -0.064153 0.983 0.906 0.597
v -0.009835 0.424266 -0.056963 0.983 0.906 0.597
v -0.008540 0.421031 -0.043850 0.983 0.906 0.597
v -0.007225 0.418740 -0.033293 0.983 0.906 0.597
v -0.006344 0.417438 -0.026486 0.983 0.906 0.597
v -0.005885 0.416740 -0.022440 0.983 0.906 0.597
v -0.005784 0.416398 -0.020281 0.983 0.906 0.597
v -0.006023 0.416295 -0.019527 0.983 0.906 0.597
v -0.006646 0.416398 -0.020016 0.983 0.906 0.597
v -0.007779 0.416740 -0.021856 0.983 0.906 0.597
v -0.009679 0.417438 -0.025457 0.983 0.906 0.597
v -0.012785 0.418740 -0.031578 0.983 0.906 0.597
v -0.017646 0.421031 -0.041042 0.983 0.906 0.597
v -0.023962 0.424266 -0.052606 0.983 0.906 0.597
v -0.028150 0.426174 -0.058453 0.983 0.906 0.597
v -0.026188 0.424266 -0.051534 0.983 0.906 0.597
v -0.021086 0.421031 -0.039385 0.983 0.906 0.597
v -0.016718 0.418740 -0.029684 0.983 0.906 0.597
v -0.013869 0.417438 -0.023439 0.983 0.906 0.597
v -0.012237 0.416740 -0.019709 0.983 0.906 0.597
v -0.011505 0.416398 -0.017675 0.983 0.906 0.597
v -0.011512 0.416295 -0.016884 0.983 0.906 0.597
v -0.012250 0.416398 -0.017168 0.983 0.906 0.597
v -0.013876 0.416740 -0.018592 0.983 0.906 0.597
v -0.016752 0.417438 -0.021473 0.983 0.906 0.597
v -0.021524 0.418740 -0.026407 0.983 0.906 0.597
v -0.028959 0.421031 -0.034017 0.983 0.906 0.597
v -0.038404 0.424266 -0.043205 0.983 0.906 0.597
v -0.044128 0.426174 -0.047559 0.983 0.906 0.597
v -0.040215 0.424266 -0.041525 0.983 0.906 0.597
v -0.031758 0.421031 -0.031420 0.983 0.906 0.597
v -0.024725 0.418740 -0.023438 0.983 0.906 0.597
v -0.020161 0.417438 -0.018310 0.983 0.906 0.597
v -0.017503 0.416740 -0.015226 0.983 0.906 0.597
v -0.016204 0.416398 -0.013499 0.983 0.906 0.597
v -0.015977 0.416295 -0.012741 0.983 0.906 0.597
v -0.016766 0.416398 -0.012794 0.983 0.906 0.597
v -0.018739 0.416740 -0.013676 0.983 0.906 0.597
v -0.022337 0.417438 -0.015582 0.983 0.906 0.597
v -0.028352 0.418740 -0.018889 0.983 0.906 0.597
v -0.037699 0.421031 -0.023970 0.983 0.906 0.597
v -0.049433 0.424266 -0.029966 0.983 0.906 0.597
v -0.056186 0.426174 -0.032439 0.983 0.906 0.597
v -0.050668 0.424266 -0.027827 0.983 0.906 0.597
v -0.039608 0.421031 -0.020664 0.983 0.906 0.597
v -0.030534 0.418740 -0.015109 0.983 0.906 0.597
v -0.024663 0.417438 -0.011554 0.983 0.906 0.597
v -0.021213 0.416740 -0.009391 0.983 0.906 0.597
v -0.019463 0.416398 -0.008123 0.983 0.906 0.597
v -0.019023 0.416295 -0.007466 0.983 0.906 0.597
v -0.019792 0.416398 -0.007284 0.983 0.906 0.597
v -0.021938 0.416740 -0.007545 0.983 0.906 0.597
v -0.025938 0.417438 -0.008305 0.983 0.906 0.597
v -0.032660 0.418740 -0.009693 0.983 0.906 0.597
v -0.043090 0.421031 -0.011793 0.983 0.906 0.597
v -0.056069 0.424266 -0.014064 0.983 0.906 0.597
v -0.063251 0.426174 -0.014437 0.983 0.906 0.597
v -0.056619 0.424266 -0.011656 0.983 0.906 0.597
v -0.043939 0.421031 -0.008071 0.983 0.906 0.597
v -0.033631 0.418740 -0.005437 0.983 0.906 0.597
v -0.026973 0.417438 -0.003771 0.983 0.906 0.597
v -0.023039 0.416740 -0.002721 0.983 0.906 0.597
v -0.020993 0.416398 -0.002025 0.983 0.906 0.597
v -0.020378 0.416295 -0.001527 0.983 0.906 0.597
v -0.021060 0.416398 -0.001126 0.983 0.906 0.597
v -0.023187 0.416740 -0.000744 0.983 0.906 0.597
v -0.027233 0.417438 -0.000291 0.983 0.906 0.597
v -0.034066 0.418740 0.000364 0.983 0.906 0.597
v -0.044651 0.421031 0.001432 0.983 0.906 0.597
v -0.057724 0.424266 0.003087 0.983 0.906 0.597
v -0.064697 0.426174 0.004848 0.983 0.906 0.597
v -0.057539 0.424266 0.005551 0.983 0.906 0.597
v -0.044366 0.421031 0.005239 0.983 0.906 0.597
v -0.033740 0.418740 0.004717 0.983 0.906 0.597
v -0.026886 0.417438 0.004347 0.983 0.906 0.597
v -0.022817 0.416740 0.004191 0.983 0.906 0.597
v -0.020657 0.416398 0.004253 0.983 0.906 0.597
v -0.019923 0.416295 0.004547 0.983 0.906 0.597
v -0.020456 0.416398 0.005131 0.983 0.906 0.597
v -0.022376 0.416740 0.006124 0.983 0.906 0.597
v -0.026109 0.417438 0.007749 0.983 0.906 0.597
v -0.032445 0.418740 0.010389 0.983 0.906 0.597
v -0.042245 0.421031 0.014529 0.983 0.906 0.597
v -0.054249 0.424266 0.019964 0.983 0.906 0.597
v -0.060393 0.426174 0.023703 0.983 0.906 0.597
v -0.053347 0.424266 0.022264 0.983 0.906 0.597
v -0.040851 0.421031 0.018083 0.983 0.906 0.597
v -0.030850 0.418740 0.014453 0.983 0.906 0.597
v -0.024410 0.417438 0.012078 0.983 0.906 0.597
v -0.020568 0.416740 0.010730 0.983 0.906 0.597
v -0.018486 0.416398 0.010152 0.983 0.906 0.597
v -0.017698 0.416295 0.010218 0.983 0.906 0.597
v -0.018035 0.416398 0.010933 0.983 0.906 0.597
v -0.019577 0.416740 0.012447 0.983 0.906 0.597
v -0.022665 0.417438 0.015101 0.983 0.906 0.597
v -0.027942 0.418740 0.019491 0.983 0.906 0.597
v -0.036086 0.421031 0.026336 0.983 0.906 0.597
v -0.045955 0.424266 0.035068 0.983 0.906 0.597
v -0.050724 0.426174 0.040451 0.983 0.906 0.597
v -0.044414 0.424266 0.036999 0.983 0.906 0.597
v -0.033706 0.421031 0.029321 0.983 0.906 0.597
v -0.025220 0.418740 0.022904 0.983 0.906 0.597
v -0.019766 0.417438 0.018737 0.983 0.906 0.597
v -0.016492 0.416740 0.016316 0.983 0.906 0.597
v -0.014672 0.416398 0.015150 0.983 0.906 0.597
v -0.013900 0.416295 0.014980 0.983 0.906 0.597
v -0.014011 0.416398 0.015763 0.983 0.906 0.597
v -0.015038 0.416740 0.017665 0.983 0.906 0.597
v -0.017207 0.417438 0.021110 0.983 0.906 0.597
v -0.020955 0.418740 0.026861 0.983 0.906 0.597
v -0.026720 0.421031 0.035803 0.983 0.906 0.597
v -0.033577 0.424266 0.047055 0.983 0.906 0.597
v -0.036547 0.426174 0.053605 0.983 0.906 0.597
v -0.031535 0.424266 0.048447 0.983 0.906 0.597
v -0.023566 0.421031 0.037953 0.983 0.906 0.597
v -0.017348 0.418740 0.029320 0.983 0.906 0.597
v -0.013365 0.417438 0.023730 0.983 0.906 0.597
v -0.010950 0.416740 0.020452 0.983 0.906 0.597
v -0.009555 0.416398 0.018802 0.983 0.906 0.597
v -0.008867 0.416295 0.018412 0.983 0.906 0.597
v -0.008742 0.416398 0.019193 0.983 0.906 0.597
v -0.009163 0.416740 0.021313 0.983 0.906 0.597
v -0.010220 0.417438 0.025245 0.983 0.906 0.597
v -0.012107 0.418740 0.031844 0.983 0.906 0.597
v -0.014980 0.421031 0.042088 0.983 0.906 0.597
v -0.018215 0.424266 0.054861 0.983 0.906 0.597
v -0.019123 0.426174 0.061996 0.983 0.906 0.597
v -0.015854 0.424266 0.055589 0.983 0.906 0.597
v -0.011332 0.421031 0.043213 0.983 0.906 0.597
v -0.007935 0.418740 0.033131 0.983 0.906 0.597
v -0.005776 0.417438 0.026615 0.983 0.906 0.597
v -0.004435 0.416740 0.022771 0.983 0.906 0.597
v -0.003588 0.416398 0.020783 0.983 0.906 0.597
v -0.003046 0.416295 0.020207 0.983 0.906 0.597
v -0.002697 0.416398 0.020917 0.983 0.906 0.597
v -0.002474 0.416740 0.023067 0.983 0.906 0.597
v -0.002325 0.417438 0.027135 0.983 0.906 0.597
v -0.002183 0.418740 0.033998 0.983 0.906 0.597
v -0.001909 0.421031 0.044633 0.983 0.906 0.597
v -0.001235 0.424266 0.057793 0.983 0.906 0.597
v 0.000000 0.426174 0.064878 0.983 0.906 0.597
v 0.001235 0.424266 0.057793 0.983 0.906 0.597
v 0.001909 0.421031 0.044633 0.983 0.906 0.597
v 0.002183 0.418740 0.033998 0.983 0.906 0.597
v 0.002325 0.417438 0.027135 0.983 0.906 0.597
v 0.002474 0.416740 0.023067 0.983 0.906 0.597
v 0.002697 0.416398 0.020917 0.983 0.906 0.597
v 0.000000 0.414174 -0.000000 0.983 0.906 0.597
f 602 308 309
f 602 309 308
f 602 309 310
f 602 310 309
f 602 310 311
f 602 311 310
f 602 311 312
f 602 312 311
f 602 312 313
f 602 313 312
f 602 313 314
f 602 314 313
f 602 314 315
f 602 315 314
f 602 315 316
f 602 316 315
f 602 316 317
f 602 317 316
f 602 317 318
f 602 318 317
f 602 318 319
f 602 319 318
f 602 319 320
f 602 320 319
f 602 320 321
f 602 321 320
f 602 321 322
f 602 322 321
f 602 322 323
f 602 323 322
f 602 323 324
f 602 324 323
f 602 324 325
f 602 325 324
f 602 325 326
f 602 326 325
f 602 326 327
f 602 327 326
f 602 327 328
f 602 328 327
f 602 328 329
f 602 329 328
f 602 329 330
f 602 330 329
f 602 330 331
f 602 331 330
f 602 331 332
f 602 332 331
f 602 332 333
f 602 333 332
f 602 333 334
f 602 334 333
f 602 334 335
f 602 335 334
f 602 335 336
f 602 336 335
f 602 336 337
f 602 337 336
f 602 337 338
f 602 338 337
f 602 338 339
f 602 339 338
f 602 339 340
f 602 340 339
f 602 340 341
f 602 341 340
f 602 341 342
f 602 342 341
f 602 342 343
f 602 343 342
f 602 343 344
f 602 344 343
f 602 344 345
f 602 345 344
f 602 345 346
f 602 346 345
f 602 346 347
f 602 347 346
f 602 347 348
f 602 348 347
f 602 348 349
f 602 349 348
f 602 349 350
f 602 350 349
f 602 350 351
f 602 351 350
f 602 351 352
f 602 352 351
f 602 352 353
f 602 353 352
f 602 353 354
f 602 354 353
f 602 354 355
f 602 355 354
f 602 355 356
f 602 356 355
f 602 356 357
f 602 357 356
f 602 357 358
f 602 358 357
f 602 358 359
f 602 359 358
f 602 359 360
f 602 360 359
f 602 360 361
f 602 361 360
f 602 361 362
f 602 362 361
f 602 362 363
f 602 363 362
f 602 363 364
f 602 364 363
f 602 364 365
f 602 365 364
f 602 365 366
f 602 366 365
f 602 366 367
f 602 367 366
f 602 367 368
f 602 368 367
f 602 368 369
f 602 369 368
f 602 369 370
f 602 370 369
f 602 370 371
f 602 371 370
f 602 371 372
f 602 372 371
f 602 372 373
f 602 373 372
f 602 373 374
f 602 374 373
f 602 374 375
f 602 375 374
f 602 375 376
f 602 376 375
f 602 376 377
f 602 377 376
f 602 377 378
f 602 378 377
f 602 378 379
f 602 379 378
f 602 379 380
f 602 380 379
f 602 380 381
f 602 381 380
f 602 381 382
f 602 382 381
f 602 382 383
f 602 383 382
f 602 383 384
f 602 384 383
f 602 384 385
f 602 385 384
f 602 385 386
f 602 386 385
f 602 386 387
f 602 387 386
f 602 387 388
f 602 388 387
f 602 388 389
f 602 389 388
f 602 389 390
f 602 390 389
f 602 390 391
f 602 391 390
f 602 391 392
f 602 392 391
f 602 392 393
f 602 393 392
f 602 393 394
f 602 394 393
f 602 394 395
f 602 395 394
f 602 395 396
f 602 396 395
f 602 396 397
f 602 397 396
f 602 397 398
f 602 398 397
f 602 398 399
f 602 399 398
f 602 399 400
f 602 400 399
f 602 400 401
f 602 401 400
f 602 401 402
f 602 402 401
f 602 402 403
f 602 403 402
f 602 403 404
f 602 404 403
f 602 404 405
f 602 405 404
f 602 405 406
f 602 406 405
f 602 406 407
f 602 407 406
f 602 407 408
f 602 408 407
f 602 408 409
f 602 409 408
f 602 409 410
f 602 410 409
f 602 410 411
f 602 411 410
f 602 411 412
f 602 412 411
f 602 412 413
f 602 413 412
f 602 413 414
f 602 414 413
f 602 414 415
f 602 415 414
f 602 415 416
f 602 416 415
f 602 416 417
f 602 417 416
f 602 417 418
f 602 418 417
f 602 418 419
f 602 419 418
f 602 419 420
f 602 420 419
f 602 420 421
f 602 421 420
f 602 421 422
f 602 422 421
f 602 422 423
f 602 423 422
f 602 423 424
f 602 424 423
f 602 424 425
f 602 425 424
f 602 425 426
f 602 426 425
f 602 426 427
f 602 427 426
f 602 427 428
f 602 428 427
f 602 428 429
f 602 429 428
f 602 429 430
f 602 430 429
f 602 430 431
f 602 431 430
f 602 431 432
f 602 432 431
f 602 432 433
f 602 433 432
f 602 433 434
f 602 434 433
f 602 434 435
f 602 435 434
f 602 435 436
f 602 436 435
f 602 436 437
f 602 437 436
f 602 437 438
f 602 438 437
f 602 438 439
f 602 439 438
f 602 439 440
f 602 440 439
f 602 440 441
f 602 441 440
f 602 441 442
f 602 442 441
f 602 442 443
f 602 443 442
f 602 443 444
f 602 444 443
f 602 444 445
f 602 445 444
f 602 445 446
f 602 446 445
f 602 446 447
f 602 447 446
f 602 447 448
f 602 448 447
f 602 448 449
f 602 449 448
f 602 449 450
f 602 450 449
f 602 450 451
f 602 451 450
f 602 451 452
f 602 452 451
f 602 452 453
f 602 453 452
f 602 453 454
f 602 454 453
f 602 454 455
f 602 455 454
f 602 455 456
f 602 456 455
f 602 456 457
f 602 457 456
f 602 457 458
f 602 458 457
f 602 458 459
f 602 459 458
f 602 459 460
f 602 460 459
f 602 460 461
f 602 461 460
f 602 461 462
f 602 462 461
f 602 462 463
f 602 463 462
f 602 463 464
f 602 464 463
f 602 464 465
f 602 465 464
f 602 465 466
f 602 466 465
f 602 466 467
f 602 467 466
f 602 467 468
f 602 468 467
f 602 468 469
f 602 469 468
f 602 469 470
f 602 470 469
f 602 470 471
f 602 471 470
f 602 471 472
f 602 472 471
f 602 472 473
f 602 473 472
f 602 473 474
f 602 474 473
f 602 474 475
f 602 475 474
f 602 475 476
f 602 476 475
f 602 476 477
f 602 477 476
f 602 477 478
f 602 478 477
f 602 478 479
f 602 479 478
f 602 479 480
f 602 480 479
f 602 480 481
f 602 481 480
f 602 481 482
f 602 482 481
f 602 482 483
f 602 483 482
f 602 483 484
f 602 484 483
f 602 484 485
f 602 485 484
f 602 485 486
f 602 486 485
f 602 486 487
f 602 487 486
f 602 487 488
f 602 488 487
f 602 488 489
f 602 489 488
f 602 489 490
f 602 490 489
f 602 490 491
f 602 491 490
f 602 491 492
f 602 492 491
f 602 492 493
f 602 493 492
f 602 493 494
f 602 494 493
f 602 494 495
f 602 495 494
f 602 495 496
f 602 496 495
f 602 496 497
f 602 497 496
f 602 497 498
f 602 498 497
f 602 498 499
f 602 499 498
f 602 499 500
f 602 500 499
f 602 500 501
f 602 501 500
f 602 501 502
f 602 502 501
f 602 502 503
f 602 503 502
f 602 503 504
f 602 504 503
f 602 504 505
f 602 505 504
f 602 505 506
f 602 506 505
f 602 506 507
f 602 507 506
f 602 507 508
f 602 508 507
f 602 508 509
f 602 509 508
f 602 509 510
f 602 510 509
f 602 510 511
f 602 511 510
f 602 511 512
f 602 512 511
f 602 512 513
f 602 513 512
f 602 513 514
f 602 514 513
f 602 514 515
f 602 515 514
f 602 515 516
f 602 516 515
f 602 516 517
f 602 517 516
f 602 517 518
f 602 518 517
f 602 518 519
f 602 519 518
f 602 519 520
f 602 520 519
f 602 520 521
f 602 521 520
f 602 521 522
f 602 522 521
f 602 522 523
f 602 523 522
f 602 523 524
f 602 524 523
f 602 524 525
f 602 525 524
f 602 525 526
f 602 526 525
f 602 526 527
f 602 527 526
f 602 527 528
f 602 528 527
f 602 528 529
f 602 529 528
f 602 529 530
f 602 530 529
f 602 530 531
f 602 531 530
f 602 531 532
f 602 532 531
f 602 532 533
f 602 533 532
f 602 533 534
f 602 534 533
f 602 534 535
f 602 535 534
f 602 535 536
f 602 536 535
f 602 536 537
f 602 537 536
f 602 537 538
f 602 538 537
f 602 538 539
f 602 539 538
f 602 539 540
f 602 540 539
f 602 540 541
f 602 541 540
f 602 541 542
f 602 542 541
f 602 542 543
f 602 543 542
f 602 543 544
f 602 544 543
f 602 544 545
f 602 545 544
f 602 545 546
f 602 546 545
f 602 546 547
f 602 547 546
f 602 547 548
f 602 548 547
f 602 548 549
f 602 549 548
f 602 549 550
f 602 550 549
f 602 550 551
f 602 551 550
f 602 551 552
f 602 552 551
f 602 552 553
f 602 553 552
f 602 553 554
f 602 554 553
f 602 554 555
f 602 555 554
f 602 555 556
f 602 556 555
f 602 556 557
f 602 557 556
f 602 557 558
f 602 558 557
f 602 558 559
f 602 559 558
f 602 559 560
f 602 560 559
f 602 560 561
f 602 561 560
f 602 561 562
f 602 562 561
f 602 562 563
f 602 563 562
f 602 563 564
f 602 564 563
f 602 564 565
f 602 565 564
f 602 565 566
f 602 566 565
f 602 566 567
f 602 567 566
f 602 567 568
f 602 568 567
f 602 568 569
f 602 569 568
f 602 569 570
f 602 570 569
f 602 570 571
f 602 571 570
f 602 571 572
f 602 572 571
f 602 572 573
f 602 573 572
f 602 573 574
f 602 574 573
f 602 574 575
f 602 575 574
f 602 575 576
f 602 576 575
f 602 576 577
f 602 577 576
f 602 577 578
f 602 578 577
f 602 578 579
f 602 579 578
f 602 579 580
f 602 580 579
f 602 580 581
f 602 581 580
f 602 581 582
f 602 582 581
f 602 582 583
f 602 583 582
f 602 583 584
f 602 584 583
f 602 584 585
f 602 585 584
f 602 585 586
f 602 586 585
f 602 586 587
f 602 587 586
f 602 587 588
f 602 588 587
f 602 588 589
f 602 589 588
f 602 589 590
f 602 590 589
f 602 590 591
f 602 591 590
f 602 591 592
f 602 592 591
f 602 592 593
f 602 593 592
f 602 593 594
f 602 594 593
f 602 594 595
f 602 595 594
f 602 595 596
f 602 596 595
f 602 596 597
f 602 597 596
f 602 597 598
f 602 598 597
f 602 598 599
f 602 599 598
f 602 599 600
f 602 600 599
f 602 600 601
f 602 601 600
f 602 601 308
f 602 308 601
v 0.000000 0.434080 -0.000000 0.950 0.780 0.150
v 0.000000 0.434080 -0.000000 0.950 0.780 0.150
v 0.000000 0.434080 -0.000000 0.950 0.780 0.150
v 0.000000 0.434080 -0.000000 0.950 0.780 0.150
v 0.000000 0.434080 -0.000000 0.950 0.780 0.150
v 0.000000 0.434080 -0.000000 0.950 0.780 0.150
v 0.000000 0.434080 -0.000000 0.950 0.780 0.150
v 0.000000 0.434080 -0.000000 0.950 0.780 0.150
v 0.000000 0.434080 -0.000000 0.950 0.780 0.150
v 0.000000 0.434080 -0.000000 0.950 0.780 0.150
v 0.000000 0.431545 0.013000 0.950 0.780 0.150
v 0.007641 0.431545 0.010518 0.950 0.780 0.150
v 0.012364 0.431545 0.004017 0.950 0.780 0.150
v 0.012364 0.431545 -0.004017 0.950 0.780 0.150
v 0.007641 0.431545 -0.010518 0.950 0.780 0.150
v 0.000000 0.431545 -0.013000 0.950 0.780 0.150
v -0.007641 0.431545 -0.010518 0.950 0.780 0.150
v -0.012364 0.431545 -0.004017 0.950 0.780 0.150
v -0.012364 0.431545 0.004017 0.950 0.780 0.150
v -0.007641 0.431545 0.010518 0.950 0.780 0.150
v 0.000000 0.424910 0.021035 0.950 0.780 0.150
v 0.012364 0.424910 0.017018 0.950 0.780 0.150
v 0.020005 0.424910 0.006500 0.950 0.780 0.150
v 0.020005 0.424910 -0.006500 0.950 0.780 0.150
v 0.012364 0.424910 -0.017018 0.950 0.780 0.150
v 0.000000 0.424910 -0.021035 0.950 0.780 0.150
v -0.012364 0.424910 -0.017018 0.950 0.780 0.150
v -0.020005 0.424910 -0.006500 0.950 0.780 0.150
v -0.020005 0.424910 0.006500 0.950 0.780 0.150
v -0.012364 0.424910 0.017018 0.950 0.780 0.150
v 0.000000 0.416708 0.021035 0.950 0.780 0.150
v 0.012364 0.416708 0.017018 0.950 0.780 0.150
v 0.020005 0.416708 0.006500 0.950 0.780 0.150
v 0.020005 0.416708 -0.006500 0.950 0.780 0.150
v 0.012364 0.416708 -0.017018 0.950 0.780 0.150
v 0.000000 0.416708 -0.021035 0.950 0.780 0.150
v -0.012364 0.416708 -0.017018 0.950 0.780 0.150
v -0.020005 0.416708 -0.006500 0.950 0.780 0.150
v -0.020005 0.416708 0.006500 0.950 0.780 0.150
v -0.012364 0.416708 0.017018 0.950 0.780 0.150
v 0.000000 0.410073 0.013000 0.950 0.780 0.150
v 0.007641 0.410073 0.010518 0.950 0.780 0.150
v 0.012364 0.410073 0.004017 0.950 0.780 0.150
v 0.012364 0.410073 -0.004017 0.950 0.780 0.150
v 0.007641 0.410073 -0.010518 0.950 0.780 0.150
v 0.000000 0.410073 -0.013000 0.950 0.780 0.150
v -0.007641 0.410073 -0.010518 0.950 0.780 0.150
v -0.012364 0.410073 -0.004017 0.950 0.780 0.150
v -0.012364 0.410073 0.004017 0.950 0.780 0.150
v -0.007641 0.410073 0.010518 0.950 0.780 0.150
v 0.000000 0.407539 0.000000 0.950 0.780 0.150
v 0.000000 0.407539 0.000000 0.950 0.780 0.150
v 0.000000 0.407539 0.000000 0.950 0.780 0.150
v 0.000000 0.407539 -0.000000 0.950 0.780 0.150
v 0.000000 0.407539 -0.000000 0.950 0.780 0.150
v 0.000000 0.407539 -0.000000 0.950 0.780 0.150
v -0.000000 0.407539 -0.000000 0.950 0.780 0.150
v -0.000000 0.407539 -0.000000 0.950 0.780 0.150
v -0.000000 0.407539 0.000000 0.950 0.780 0.150
v -0.000000 0.407539 0.000000 0.950 0.780 0.150
f 603 614 604
f 603 613 614
f 604 615 605
f 604 614 615
f 605 616 606
f 605 615 616
f 606 617 607
f 606 616 617
f 607 618 608
f 607 617 618
f 608 619 609
f 608 618 619
f 609 620 610
f 609 619 620
f 610 621 611
f 610 620 621
f 611 622 612
f 611 621 622
f 612 613 603
f 612 622 613
f 613 624 614
f 613 623 624
f 614 625 615
f 614 624 625
f 615 626 616
f 615 625 626
f 616 627 617
f 616 626 627
f 617 628 618
f 617 627 628
f 618 629 619
f 618 628 629
f 619 630 620
f 619 629 630
f 620 631 621
f 620 630 631
f 621 632 622
f 621 631 632
f 622 623 613
f 622 632 623
f 623 634 624
f 623 633 634
f 624 635 625
f 624 634 635
f 625 636 626
f 625 635 636
f 626 637 627
f 626 636 637
f 627 638 628
f 627 637 638
f 628 639 629
f 628 638 639
f 629 640 630
f 629 639 640
f 630 641 631
f 630 640 641
f 631 642 632
f 631 641 642
f 632 633 623
f 632 642 633
f 633 644 634
f 633 643 644
f 634 645 635
f 634 644 645
f 635 646 636
f 635 645 646
f 636 647 637
f 636 646 647
f 637 648 638
f 637 647 648
f 638 649 639
f 638 648 649
f 639 650 640
f 639 649 650
f 640 651 641
f 640 650 651
f 641 652 642
f 641 651 652
f 642 643 633
f 642 652 643
f 643 654 644
f 643 653 654
f 644 655 645
f 644 654 655
f 645 656 646
f 645 655 656
f 646 657 647
f 646 656 657
f 647 658 648
f 647 657 658
f 648 659 649
f 648 658 659
f 649 660 650
f 649 659 660
f 650 661 651
f 650 660 661
f 651 662 652
f 651 661 662
f 652 653 643
f 652 662 653
v 0.000000 0.082835 -0.000000 0.180 0.500 0.200
v 0.000864 0.079835 -0.003222 0.180 0.500 0.200
v 0.001176 0.076836 -0.006820 0.180 0.500 0.200
v 0.001228 0.073837 -0.010597 0.180 0.500 0.200
v 0.001158 0.070838 -0.014457 0.180 0.500 0.200
v 0.001074 0.067838 -0.018326 0.180 0.500 0.200
v 0.001070 0.064839 -0.022140 0.180 0.500 0.200
v 0.001227 0.061840 -0.025844 0.180 0.500 0.200
v 0.001618 0.058840 -0.029389 0.180 0.500 0.200
v 0.002302 0.055841 -0.032734 0.180 0.500 0.200
v 0.003323 0.052842 -0.035849 0.180 0.500 0.200
v 0.004713 0.049842 -0.038711 0.180 0.500 0.200
v 0.006489 0.046843 -0.041310 0.180 0.500 0.200
v 0.008649 0.043844 -0.043646 0.180 0.500 0.200
v 0.011178 0.040845 -0.045730 0.180 0.500 0.200
v 0.014046 0.037845 -0.047584 0.180 0.500 0.200
v 0.017205 0.034846 -0.049237 0.180 0.500 0.200
v 0.020598 0.031847 -0.050732 0.180 0.500 0.200
v 0.024153 0.028847 -0.052116 0.180 0.500 0.200
v 0.027788 0.025848 -0.053445 0.180 0.500 0.200
v 0.031409 0.022849 -0.054784 0.180 0.500 0.200
v 0.034907 0.019850 -0.056206 0.180 0.500 0.200
v 0.038146 0.016850 -0.057806 0.180 0.500 0.200
v 0.040833 0.013851 -0.059782 0.180 0.500 0.200
v 0.039969 0.016850 -0.056560 0.180 0.500 0.200
v 0.039657 0.019850 -0.052962 0.180 0.500 0.200
v 0.039605 0.022849 -0.049186 0.180 0.500 0.200
v 0.039675 0.025848 -0.045326 0.180 0.500 0.200
v 0.039759 0.028847 -0.041457 0.180 0.500 0.200
v 0.039763 0.031847 -0.037642 0.180 0.500 0.200
v 0.039605 0.034846 -0.033938 0.180 0.500 0.200
v 0.039214 0.037845 -0.030393 0.180 0.500 0.200
v 0.038531 0.040845 -0.027048 0.180 0.500 0.200
v 0.037510 0.043844 -0.023934 0.180 0.500 0.200
v 0.036119 0.046843 -0.021072 0.180 0.500 0.200
v 0.034344 0.049842 -0.018472 0.180 0.500 0.200
v 0.032184 0.052842 -0.016136 0.180 0.500 0.200
v 0.029654 0.055841 -0.014052 0.180 0.500 0.200
v 0.026787 0.058840 -0.012198 0.180 0.500 0.200
v 0.023627 0.061840 -0.010545 0.180 0.500 0.200
v 0.020234 0.064839 -0.009050 0.180 0.500 0.200
v 0.016680 0.067838 -0.007667 0.180 0.500 0.200
v 0.013045 0.070838 -0.006337 0.180 0.500 0.200
v 0.009424 0.073837 -0.004999 0.180 0.500 0.200
v 0.005925 0.076836 -0.003577 0.180 0.500 0.200
v 0.002687 0.079835 -0.001977 0.180 0.500 0.200
f 663 664 665
f 663 665 664
f 663 665 666
f 663 666 665
f 663 666 667
f 663 667 666
f 663 667 668
f 663 668 667
f 663 668 669
f 663 669 668
f 663 669 670
f 663 670 669
f 663 670 671
f 663 671 670
f 663 671 672
f 663 672 671
f 663 672 673
f 663 673 672
f 663 673 674
f 663 674 673
f 663 674 675
f 663 675 674
f 663 675 676
f 663 676 675
f 663 676 677
f 663 677 676
f 663 677 678
f 663 678 677
f 663 678 679
f 663 679 678
f 663 679 680
f 663 680 679
f 663 680 681
f 663 681 680
f 663 681 682
f 663 682 681
f 663 682 683
f 663 683 682
f 663 683 684
f 663 684 683
f 663 684 685
f 663 685 684
f 663 685 686
f 663 686 685
f 663 686 687
f 663 687 686
f 663 687 688
f 663 688 687
f 663 688 689
f 663 689 688
f 663 689 690
f 663 690 689
f 663 690 691
f 663 691 690
f 663 691 692
f 663 692 691
f 663 692 693
f 663 693 692
f 663 693 694
f 663 694 693
f 663 694 695
f 663 695 694
f 663 695 696
f 663 696 695
f 663 696 697
f 663 697 696
f 663 697 698
f 663 698 697
f 663 698 699
f 663 699 698
f 663 699 700
f 663 700 699
f 663 700 701
f 663 701 700
f 663 701 702
f 663 702 701
f 663 702 703
f 663 703 702
f 663 703 704
f 663 704 703
f 663 704 705
f 663 705 704
f 663 705 706
f 663 706 705
f 663 706 707
f 663 707 706
f 663 707 708
f 663 708 707
