o mesh
v 0.000000 -0.001092 0.011950
v 0.009820 -0.003934 0.005666
v 0.009820 -0.002842 -0.006285
v 0.000000 0.001092 -0.011950
v -0.009820 0.003934 -0.005666
v -0.009820 0.002842 0.006285
v 0.155015 0.444886 0.048680
v 0.161562 0.442991 0.044490
v 0.161562 0.443719 0.036523
v 0.155015 0.446342 0.032746
v 0.148469 0.448236 0.036936
v 0.148469 0.447508 0.044903
f 1 2 8
f 1 8 7
f 2 3 9
f 2 9 8
f 3 4 10
f 3 10 9
f 4 5 11
f 4 11 10
f 5 6 12
f 5 12 11
f 6 1 7
f 6 7 12
v 0.155015 0.445614 0.040713
v 0.049250 0.464608 0.046832
v -0.010599 0.468870 0.039374
v -0.059920 0.469754 0.028804
v -0.102660 0.468526 0.016287
v -0.140276 0.465654 0.002255
v -0.173452 0.461358 -0.013090
v -0.202539 0.455750 -0.029644
v -0.227730 0.448891 -0.047349
v -0.249130 0.440817 -0.066176
v -0.266798 0.431545 -0.086106
v -0.280763 0.421085 -0.107131
v -0.291039 0.409441 -0.129247
v -0.297624 0.396613 -0.152454
v -0.300507 0.382597 -0.176756
v -0.299658 0.367384 -0.202162
v -0.295018 0.350954 -0.228688
v -0.286482 0.333274 -0.256367
v -0.273857 0.314283 -0.285254
v -0.256792 0.293866 -0.315455
v -0.234603 0.271806 -0.347170
v -0.205832 0.247634 -0.380831
v -0.166535 0.220084 -0.417605
v -0.081320 0.177802 -0.467957
v 0.024445 0.158808 -0.474076
v 0.084293 0.154546 -0.466618
v 0.133615 0.153662 -0.456047
v 0.176354 0.154890 -0.443530
v 0.213971 0.157761 -0.429499
v 0.247146 0.162058 -0.414154
v 0.276233 0.167666 -0.397600
v 0.301424 0.174524 -0.379894
v 0.322825 0.182599 -0.361068
v 0.340493 0.191871 -0.341137
v 0.354458 0.202331 -0.320112
v 0.364734 0.213975 -0.297996
v 0.371319 0.226803 -0.274789
v 0.374202 0.240819 -0.250487
v 0.373352 0.256032 -0.225082
v 0.368712 0.272462 -0.198555
v 0.360176 0.290142 -0.170877
v 0.347552 0.309133 -0.141989
v 0.330486 0.329550 -0.111789
v 0.308298 0.351610 -0.080074
v 0.279527 0.375782 -0.046412
v 0.240230 0.403331 -0.009638
f 13 14 15
f 13 15 14
f 13 15 16
f 13 16 15
f 13 16 17
f 13 17 16
f 13 17 18
f 13 18 17
f 13 18 19
f 13 19 18
f 13 19 20
f 13 20 19
f 13 20 21
f 13 21 20
f 13 21 22
f 13 22 21
f 13 22 23
f 13 23 22
f 13 23 24
f 13 24 23
f 13 24 25
f 13 25 24
f 13 25 26
f 13 26 25
f 13 26 27
f 13 27 26
f 13 27 28
f 13 28 27
f 13 28 29
f 13 29 28
f 13 29 30
f 13 30 29
f 13 30 31
f 13 31 30
f 13 31 32
f 13 32 31
f 13 32 33
f 13 33 32
f 13 33 34
f 13 34 33
f 13 34 35
f 13 35 34
f 13 35 36
f 13 36 35
f 13 36 37
f 13 37 36
f 13 37 38
f 13 38 37
f 13 38 39
f 13 39 38
f 13 39 40
f 13 40 39
f 13 40 41
f 13 41 40
f 13 41 42
f 13 42 41
f 13 42 43
f 13 43 42
f 13 43 44
f 13 44 43
f 13 44 45
f 13 45 44
f 13 45 46
f 13 46 45
f 13 46 47
f 13 47 46
f 13 47 48
f 13 48 47
f 13 48 49
f 13 49 48
f 13 49 50
f 13 50 49
f 13 50 51
f 13 51 50
f 13 51 52
f 13 52 51
f 13 52 53
f 13 53 52
f 13 53 54
f 13 54 53
f 13 54 55
f 13 55 54
f 13 55 56
f 13 56 55
f 13 56 57
f 13 57 56
f 13 57 58
f 13 58 57
v 0.000000 0.004322 0.011195
v 0.010179 0.000209 0.006351
v 0.010179 -0.004114 -0.004843
v 0.000000 -0.004322 -0.011195
v -0.010179 -0.000209 -0.006351
v -0.010179 0.004114 0.004843
v 0.059528 0.272970 -0.096816
v 0.066314 0.270228 -0.100045
v 0.066314 0.267346 -0.107508
v 0.059528 0.267207 -0.111742
v 0.052742 0.269949 -0.108513
v 0.052742 0.272831 -0.101050
f 59 60 66
f 59 66 65
f 60 61 67
f 60 67 66
f 61 62 68
f 61 68 67
f 62 63 69
f 62 69 68
f 63 64 70
f 63 70 69
f 64 59 65
f 64 65 70
v 0.059528 0.270088 -0.104279
v 0.043705 0.217547 -0.189624
v 0.038468 0.176047 -0.240328
v 0.036175 0.137618 -0.281398
v 0.035882 0.101274 -0.315926
v 0.037252 0.066666 -0.345010
v 0.040143 0.033644 -0.369114
v 0.044496 0.002146 -0.388440
v 0.050284 -0.027854 -0.403065
v 0.057503 -0.056362 -0.413010
v 0.066153 -0.083378 -0.418271
v 0.076237 -0.108897 -0.418837
v 0.087759 -0.132917 -0.414702
v 0.100717 -0.155439 -0.405864
v 0.115110 -0.176464 -0.392333
v 0.130934 -0.195997 -0.374117
v 0.148189 -0.214037 -0.351221
v 0.166880 -0.230580 -0.323625
v 0.187031 -0.245599 -0.291250
v 0.208704 -0.259031 -0.253895
v 0.232040 -0.270728 -0.211096
v 0.257376 -0.280340 -0.161756
v 0.285656 -0.286881 -0.102781
v 0.324522 -0.282380 -0.009165
v 0.340345 -0.229839 0.076181
v 0.345582 -0.188339 0.126885
v 0.347874 -0.149910 0.167954
v 0.348168 -0.113566 0.202482
v 0.346798 -0.078957 0.231566
v 0.343906 -0.045936 0.255670
v 0.339554 -0.014438 0.274996
v 0.333766 0.015562 0.289621
v 0.326547 0.044071 0.299566
v 0.317897 0.071086 0.304827
v 0.307812 0.096605 0.305393
v 0.296291 0.120625 0.301258
v 0.283332 0.143147 0.292421
v 0.268940 0.164173 0.278889
v 0.253115 0.183705 0.260673
v 0.235861 0.201746 0.237777
v 0.217170 0.218288 0.210181
v 0.197019 0.233307 0.177806
v 0.175346 0.246740 0.140451
v 0.152009 0.258437 0.097653
v 0.126674 0.268048 0.048312
v 0.098394 0.274589 -0.010663
f 71 72 73
f 71 73 72
f 71 73 74
f 71 74 73
f 71 74 75
f 71 75 74
f 71 75 76
f 71 76 75
f 71 76 77
f 71 77 76
f 71 77 78
f 71 78 77
f 71 78 79
f 71 79 78
f 71 79 80
f 71 80 79
f 71 80 81
f 71 81 80
f 71 81 82
f 71 82 81
f 71 82 83
f 71 83 82
f 71 83 84
f 71 84 83
f 71 84 85
f 71 85 84
f 71 85 86
f 71 86 85
f 71 86 87
f 71 87 86
f 71 87 88
f 71 88 87
f 71 88 89
f 71 89 88
f 71 89 90
f 71 90 89
f 71 90 91
f 71 91 90
f 71 91 92
f 71 92 91
f 71 92 93
f 71 93 92
f 71 93 94
f 71 94 93
f 71 94 95
f 71 95 94
f 71 95 96
f 71 96 95
f 71 96 97
f 71 97 96
f 71 97 98
f 71 98 97
f 71 98 99
f 71 99 98
f 71 99 100
f 71 100 99
f 71 100 101
f 71 101 100
f 71 101 102
f 71 102 101
f 71 102 103
f 71 103 102
f 71 103 104
f 71 104 103
f 71 104 105
f 71 105 104
f 71 105 106
f 71 106 105
f 71 106 107
f 71 107 106
f 71 107 108
f 71 108 107
f 71 108 109
f 71 109 108
f 71 109 110
f 71 110 109
f 71 110 111
f 71 111 110
f 71 111 112
f 71 112 111
f 71 112 113
f 71 113 112
f 71 113 114
f 71 114 113
f 71 114 115
f 71 115 114
f 71 115 116
f 71 116 115
v 0.000000 0.004416 0.011158
v 0.010392 0.002138 0.005607
v 0.010392 -0.002278 -0.005551
v 0.000000 -0.004416 -0.011158
v -0.010392 -0.002138 -0.005607
v -0.010392 0.002278 0.005551
v 0.003537 0.454800 -0.171396
v 0.010465 0.453281 -0.175097
v 0.010465 0.450337 -0.182536
v 0.003537 0.448912 -0.186273
v -0.003391 0.450431 -0.182573
v -0.003391 0.453375 -0.175134
f 117 118 124
f 117 124 123
f 118 119 125
f 118 125 124
f 119 120 126
f 119 126 125
f 120 121 127
f 120 127 126
f 121 122 128
f 121 128 127
f 122 117 123
f 122 123 128
v 0.003537 0.451856 -0.178835
v -0.038422 0.467001 -0.104957
v -0.072708 0.469547 -0.062762
v -0.105030 0.468867 -0.028677
v -0.136067 0.466078 0.000101
v -0.166067 0.461585 0.024596
v -0.195140 0.455570 0.045266
v -0.223340 0.448123 0.062331
v -0.250694 0.439284 0.075899
v -0.277213 0.429075 0.086021
v -0.302902 0.417504 0.092717
v -0.327764 0.404573 0.095995
v -0.351798 0.390284 0.095857
v -0.375005 0.374637 0.092303
v -0.397384 0.357630 0.085331
v -0.418934 0.339261 0.074933
v -0.439649 0.319521 0.061088
v -0.459517 0.298391 0.043747
v -0.478512 0.275827 0.022802
v -0.496581 0.251742 -0.001969
v -0.513612 0.225954 -0.031024
v -0.529359 0.198056 -0.065385
v -0.543141 0.166932 -0.107856
v -0.549251 0.123209 -0.182010
v -0.507292 0.108064 -0.255887
v -0.473006 0.105518 -0.298083
v -0.440684 0.106197 -0.332167
v -0.409647 0.108987 -0.360946
v -0.379647 0.113480 -0.385441
v -0.350574 0.119494 -0.406110
v -0.322374 0.126942 -0.423175
v -0.295020 0.135781 -0.436744
v -0.268501 0.145990 -0.446865
v -0.242812 0.157561 -0.453561
v -0.217951 0.170491 -0.456839
v -0.193916 0.184780 -0.456701
v -0.170709 0.200428 -0.453147
v -0.148330 0.217435 -0.446175
v -0.126781 0.235804 -0.435777
v -0.106066 0.255543 -0.421933
v -0.086197 0.276674 -0.404592
v -0.067202 0.299237 -0.383646
v -0.049133 0.323322 -0.358875
v -0.032102 0.349111 -0.329821
v -0.016355 0.377009 -0.295460
v -0.002573 0.408133 -0.252988
f 129 130 131
f 129 131 130
f 129 131 132
f 129 132 131
f 129 132 133
f 129 133 132
f 129 133 134
f 129 134 133
f 129 134 135
f 129 135 134
f 129 135 136
f 129 136 135
f 129 136 137
f 129 137 136
f 129 137 138
f 129 138 137
f 129 138 139
f 129 139 138
f 129 139 140
f 129 140 139
f 129 140 141
f 129 141 140
f 129 141 142
f 129 142 141
f 129 142 143
f 129 143 142
f 129 143 144
f 129 144 143
f 129 144 145
f 129 145 144
f 129 145 146
f 129 146 145
f 129 146 147
f 129 147 146
f 129 147 148
f 129 148 147
f 129 148 149
f 129 149 148
f 129 149 150
f 129 150 149
f 129 150 151
f 129 151 150
f 129 151 152
f 129 152 151
f 129 152 153
f 129 153 152
f 129 153 154
f 129 154 153
f 129 154 155
f 129 155 154
f 129 155 156
f 129 156 155
f 129 156 157
f 129 157 156
f 129 157 158
f 129 158 157
f 129 158 159
f 129 159 158
f 129 159 160
f 129 160 159
f 129 160 161
f 129 161 160
f 129 161 162
f 129 162 161
f 129 162 163
f 129 163 162
f 129 163 164
f 129 164 163
f 129 164 165
f 129 165 164
f 129 165 166
f 129 166 165
f 129 166 167
f 129 167 166
f 129 167 168
f 129 168 167
f 129 168 169
f 129 169 168
f 129 169 170
f 129 170 169
f 129 170 171
f 129 171 170
f 129 171 172
f 129 172 171
f 129 172 173
f 129 173 172
f 129 173 174
f 129 174 173
v -0.008490 0.000000 0.008481
v 0.002298 0.004720 0.010791
v 0.010788 0.004720 0.002310
v 0.008490 0.000000 -0.008481
v -0.002298 -0.004720 -0.010791
v -0.010788 -0.004720 -0.002310
v -0.108991 0.286838 -0.097789
v -0.101798 0.289984 -0.096249
v -0.096139 0.289984 -0.101903
v -0.097671 0.286838 -0.109097
v -0.104863 0.283691 -0.110637
v -0.110523 0.283691 -0.104983
f 175 176 182
f 175 182 181
f 176 177 183
f 176 183 182
f 177 178 184
f 177 184 183
f 178 179 185
f 178 185 184
f 179 180 186
f 179 186 185
f 180 175 181
f 180 181 186
v -0.103331 0.286838 -0.103443
v -0.130577 0.239589 -0.173174
v -0.137787 0.208830 -0.217195
v -0.139868 0.182293 -0.254633
v -0.138593 0.158518 -0.287764
v -0.134608 0.136973 -0.317418
v -0.128203 0.117420 -0.343967
v -0.119518 0.099743 -0.367589
v -0.108621 0.083888 -0.388373
v -0.095543 0.069826 -0.406359
v -0.080299 0.057549 -0.421563
v -0.062892 0.047050 -0.433993
v -0.043323 0.038331 -0.443650
v -0.021594 0.031390 -0.450533
v 0.002298 0.026229 -0.454641
v 0.028356 0.022852 -0.455968
v 0.056596 0.021269 -0.454498
v 0.087047 0.021507 -0.450188
v 0.119778 0.023621 -0.442953
v 0.154930 0.027728 -0.432612
v 0.192791 0.034064 -0.418794
v 0.234008 0.043162 -0.400669
v 0.280355 0.056482 -0.375961
v 0.346737 0.086292 -0.325543
v 0.373983 0.133541 -0.255812
v 0.381193 0.164300 -0.211791
v 0.383274 0.190837 -0.174353
v 0.381999 0.214612 -0.141222
v 0.378014 0.236157 -0.111568
v 0.371609 0.255710 -0.085019
v 0.362924 0.273387 -0.061397
v 0.352027 0.289242 -0.040613
v 0.338949 0.303304 -0.022627
v 0.323705 0.315582 -0.007423
v 0.306298 0.326080 0.005007
v 0.286730 0.334799 0.014664
v 0.265000 0.341740 0.021547
v 0.241109 0.346901 0.025655
v 0.215050 0.350278 0.026983
v 0.186811 0.351861 0.025512
v 0.156359 0.351623 0.021202
v 0.123628 0.349509 0.013967
v 0.088476 0.345402 0.003626
v 0.050615 0.339066 -0.010192
v 0.009398 0.329968 -0.028317
v -0.036949 0.316648 -0.053025
f 187 188 189
f 187 189 188
f 187 189 190
f 187 190 189
f 187 190 191
f 187 191 190
f 187 191 192
f 187 192 191
f 187 192 193
f 187 193 192
f 187 193 194
f 187 194 193
f 187 194 195
f 187 195 194
f 187 195 196
f 187 196 195
f 187 196 197
f 187 197 196
f 187 197 198
f 187 198 197
f 187 198 199
f 187 199 198
f 187 199 200
f 187 200 199
f 187 200 201
f 187 201 200
f 187 201 202
f 187 202 201
f 187 202 203
f 187 203 202
f 187 203 204
f 187 204 203
f 187 204 205
f 187 205 204
f 187 205 206
f 187 206 205
f 187 206 207
f 187 207 206
f 187 207 208
f 187 208 207
f 187 208 209
f 187 209 208
f 187 209 210
f 187 210 209
f 187 210 211
f 187 211 210
f 187 211 212
f 187 212 211
f 187 212 213
f 187 213 212
f 187 213 214
f 187 214 213
f 187 214 215
f 187 215 214
f 187 215 216
f 187 216 215
f 187 216 217
f 187 217 216
f 187 217 218
f 187 218 217
f 187 218 219
f 187 219 218
f 187 219 220
f 187 220 219
f 187 220 221
f 187 221 220
f 187 221 222
f 187 222 221
f 187 222 223
f 187 223 222
f 187 223 224
f 187 224 223
f 187 224 225
f 187 225 224
f 187 225 226
f 187 226 225
f 187 226 227
f 187 227 226
f 187 227 228
f 187 228 227
f 187 228 229
f 187 229 228
f 187 229 230
f 187 230 229
f 187 230 231
f 187 231 230
f 187 231 232
f 187 232 231
v 0.000000 -0.001429 0.011915
v 0.009656 0.003100 0.006415
v 0.009656 0.004530 -0.005500
v 0.000000 0.001429 -0.011915
v -0.009656 -0.003100 -0.006415
v -0.009656 -0.004530 0.005500
v -0.138137 0.343723 0.049292
v -0.131700 0.346743 0.045626
v -0.131700 0.347696 0.037683
v -0.138137 0.345629 0.033406
v -0.144574 0.342609 0.037072
v -0.144574 0.341656 0.045016
f 233 234 240
f 233 240 239
f 234 235 241
f 234 241 240
f 235 236 242
f 235 242 241
f 236 237 243
f 236 243 242
f 237 238 244
f 237 244 243
f 238 233 239
f 238 239 244
v -0.138137 0.344676 0.041349
v -0.151045 0.324636 0.090665
v -0.163097 0.306890 0.123711
v -0.174874 0.289882 0.151524
v -0.186450 0.273413 0.175512
v -0.197849 0.257421 0.196126
v -0.209078 0.241883 0.213513
v -0.220138 0.226797 0.227698
v -0.231030 0.212167 0.238656
v -0.241749 0.197997 0.246343
v -0.252294 0.184295 0.250717
v -0.262663 0.171065 0.251745
v -0.272855 0.158309 0.249410
v -0.282871 0.146027 0.243712
v -0.292710 0.134217 0.234669
v -0.302376 0.122874 0.222312
v -0.311870 0.111993 0.206685
v -0.321194 0.101567 0.187831
v -0.330349 0.091592 0.165774
v -0.339335 0.082072 0.140490
v -0.348144 0.073029 0.111833
v -0.356752 0.064524 0.079350
v -0.365084 0.056758 0.041634
v -0.372561 0.051287 -0.012351
v -0.359654 0.071327 -0.061667
v -0.347602 0.089073 -0.094713
v -0.335824 0.106081 -0.122526
v -0.324248 0.122549 -0.146514
v -0.312850 0.138542 -0.167129
v -0.301621 0.154079 -0.184516
v -0.290560 0.169165 -0.198700
v -0.279669 0.183796 -0.209658
v -0.268950 0.197965 -0.217345
v -0.258405 0.211668 -0.221719
v -0.248035 0.224898 -0.222747
v -0.237843 0.237654 -0.220412
v -0.227828 0.249936 -0.214714
v -0.217988 0.261746 -0.205671
v -0.208322 0.273088 -0.193314
v -0.198829 0.283970 -0.177687
v -0.189505 0.294396 -0.158833
v -0.180349 0.304371 -0.136776
v -0.171363 0.313890 -0.111492
v -0.162554 0.322934 -0.082835
v -0.153947 0.331438 -0.050352
v -0.145614 0.339204 -0.012636
f 245 246 247
f 245 247 246
f 245 247 248
f 245 248 247
f 245 248 249
f 245 249 248
f 245 249 250
f 245 250 249
f 245 250 251
f 245 251 250
f 245 251 252
f 245 252 251
f 245 252 253
f 245 253 252
f 245 253 254
f 245 254 253
f 245 254 255
f 245 255 254
f 245 255 256
f 245 256 255
f 245 256 257
f 245 257 256
f 245 257 258
f 245 258 257
f 245 258 259
f 245 259 258
f 245 259 260
f 245 260 259
f 245 260 261
f 245 261 260
f 245 261 262
f 245 262 261
f 245 262 263
f 245 263 262
f 245 263 264
f 245 264 263
f 245 264 265
f 245 265 264
f 245 265 266
f 245 266 265
f 245 266 267
f 245 267 266
f 245 267 268
f 245 268 267
f 245 268 269
f 245 269 268
f 245 269 270
f 245 270 269
f 245 270 271
f 245 271 270
f 245 271 272
f 245 272 271
f 245 272 273
f 245 273 272
f 245 273 274
f 245 274 273
f 245 274 275
f 245 275 274
f 245 275 276
f 245 276 275
f 245 276 277
f 245 277 276
f 245 277 278
f 245 278 277
f 245 278 279
f 245 279 278
f 245 279 280
f 245 280 279
f 245 280 281
f 245 281 280
f 245 281 282
f 245 282 281
f 245 282 283
f 245 283 282
f 245 283 284
f 245 284 283
f 245 284 285
f 245 285 284
f 245 285 286
f 245 286 285
f 245 286 287
f 245 287 286
f 245 287 288
f 245 288 287
f 245 288 289
f 245 289 288
f 245 289 290
f 245 290 289
v 0.000000 -0.002077 0.011819
v 0.010271 0.000520 0.006183
v 0.010271 0.002598 -0.005635
v 0.000000 0.002077 -0.011819
v -0.010271 -0.000520 -0.006183
v -0.010271 -0.002598 0.005635
v -0.066741 0.425144 0.082853
v -0.059893 0.426876 0.079096
v -0.059893 0.428261 0.071217
v -0.066741 0.427914 0.067095
v -0.073588 0.426182 0.070852
v -0.073588 0.424797 0.078731
f 291 292 298
f 291 298 297
f 292 293 299
f 292 299 298
f 293 294 300
f 293 300 299
f 294 295 301
f 294 301 300
f 295 296 302
f 295 302 301
f 296 291 297
f 296 297 302
v -0.066741 0.426529 0.074974
v -0.131558 0.399314 0.076597
v -0.166575 0.378120 0.070500
v -0.194552 0.358347 0.062579
v -0.218074 0.339474 0.053505
v -0.238097 0.321309 0.043524
v -0.255062 0.303761 0.032751
v -0.269194 0.286785 0.021244
v -0.280614 0.270357 0.009034
v -0.289387 0.254464 -0.003861
v -0.295546 0.239098 -0.017433
v -0.299107 0.224258 -0.031678
v -0.300079 0.209941 -0.046594
v -0.298461 0.196147 -0.062182
v -0.294246 0.182877 -0.078441
v -0.287416 0.170136 -0.095378
v -0.277940 0.157929 -0.113001
v -0.265751 0.146270 -0.131326
v -0.250729 0.135184 -0.150385
v -0.232650 0.124715 -0.170236
v -0.211071 0.114953 -0.190994
v -0.185038 0.106091 -0.212905
v -0.151964 0.098651 -0.236641
v -0.089090 0.097231 -0.268096
v -0.024272 0.124446 -0.269719
v 0.010745 0.145641 -0.263622
v 0.038721 0.165413 -0.255701
v 0.062244 0.184286 -0.246627
v 0.082266 0.202451 -0.236646
v 0.099231 0.219999 -0.225872
v 0.113364 0.236975 -0.214366
v 0.124784 0.253403 -0.202156
v 0.133556 0.269296 -0.189261
v 0.139715 0.284662 -0.175688
v 0.143277 0.299502 -0.161443
v 0.144249 0.313819 -0.146527
v 0.142630 0.327613 -0.130940
v 0.138415 0.340883 -0.114680
v 0.131586 0.353624 -0.097744
v 0.122109 0.365831 -0.080121
v 0.109920 0.377490 -0.061796
v 0.094899 0.388576 -0.042737
v 0.076820 0.399045 -0.022885
v 0.055240 0.408807 -0.002128
v 0.029207 0.417669 0.019784
v -0.003866 0.425109 0.043519
f 303 304 305
f 303 305 304
f 303 305 306
f 303 306 305
f 303 306 307
f 303 307 306
f 303 307 308
f 303 308 307
f 303 308 309
f 303 309 308
f 303 309 310
f 303 310 309
f 303 310 311
f 303 311 310
f 303 311 312
f 303 312 311
f 303 312 313
f 303 313 312
f 303 313 314
f 303 314 313
f 303 314 315
f 303 315 314
f 303 315 316
f 303 316 315
f 303 316 317
f 303 317 316
f 303 317 318
f 303 318 317
f 303 318 319
f 303 319 318
f 303 319 320
f 303 320 319
f 303 320 321
f 303 321 320
f 303 321 322
f 303 322 321
f 303 322 323
f 303 323 322
f 303 323 324
f 303 324 323
f 303 324 325
f 303 325 324
f 303 325 326
f 303 326 325
f 303 326 327
f 303 327 326
f 303 327 328
f 303 328 327
f 303 328 329
f 303 329 328
f 303 329 330
f 303 330 329
f 303 330 331
f 303 331 330
f 303 331 332
f 303 332 331
f 303 332 333
f 303 333 332
f 303 333 334
f 303 334 333
f 303 334 335
f 303 335 334
f 303 335 336
f 303 336 335
f 303 336 337
f 303 337 336
f 303 337 338
f 303 338 337
f 303 338 339
f 303 339 338
f 303 339 340
f 303 340 339
f 303 340 341
f 303 341 340
f 303 341 342
f 303 342 341
f 303 342 343
f 303 343 342
f 303 343 344
f 303 344 343
f 303 344 345
f 303 345 344
f 303 345 346
f 303 346 345
f 303 346 347
f 303 347 346
f 303 347 348
f 303 348 347
v 0.000000 -0.003872 0.011358
v 0.010350 -0.002822 0.005377
v 0.010350 0.001049 -0.005981
v 0.000000 0.003872 -0.011358
v -0.010350 0.002822 -0.005377
v -0.010350 -0.001049 0.005981
v 0.042330 0.440166 0.158503
v 0.049230 0.440866 0.154516
v 0.049230 0.443447 0.146944
v 0.042330 0.445329 0.143359
v 0.035430 0.444629 0.147347
v 0.035430 0.442048 0.154919
f 349 350 356
f 349 356 355
f 350 351 357
f 350 357 356
f 351 352 358
f 351 358 357
f 352 353 359
f 352 359 358
f 353 354 360
f 353 360 359
f 354 349 355
f 354 355 360
v 0.042330 0.442748 0.150931
v 0.052196 0.451190 0.094683
v 0.062734 0.453898 0.055068
v 0.073487 0.454770 0.020779
v 0.084397 0.454303 -0.009626
v 0.095445 0.452658 -0.036612
v 0.106625 0.449886 -0.060331
v 0.117935 0.445998 -0.080814
v 0.129378 0.440986 -0.098036
v 0.140953 0.434836 -0.111956
v 0.152664 0.427532 -0.122532
v 0.164510 0.419065 -0.129731
v 0.176494 0.409428 -0.133538
v 0.188615 0.398621 -0.133951
v 0.200872 0.386650 -0.130987
v 0.213264 0.373526 -0.124680
v 0.225789 0.359264 -0.115071
v 0.238446 0.343878 -0.102200
v 0.251234 0.327375 -0.086093
v 0.264154 0.309747 -0.066720
v 0.277211 0.290940 -0.043927
v 0.290426 0.270794 -0.017251
v 0.303855 0.248811 0.014751
v 0.317956 0.221095 0.063387
v 0.308090 0.212652 0.119635
v 0.297552 0.209944 0.159250
v 0.286799 0.209072 0.193539
v 0.275889 0.209539 0.223944
v 0.264841 0.211185 0.250930
v 0.253661 0.213956 0.274649
v 0.242351 0.217844 0.295132
v 0.230909 0.222856 0.312354
v 0.219333 0.229006 0.326274
v 0.207623 0.236310 0.336850
v 0.195776 0.244777 0.344049
v 0.183792 0.254414 0.347856
v 0.171672 0.265221 0.348269
v 0.159414 0.277192 0.345305
v 0.147022 0.290316 0.338998
v 0.134497 0.304578 0.329389
v 0.121840 0.319964 0.316518
v 0.109052 0.336467 0.300411
v 0.096133 0.354095 0.281038
v 0.083075 0.372902 0.258245
v 0.069860 0.393048 0.231569
v 0.056431 0.415031 0.199567
f 361 362 363
f 361 363 362
f 361 363 364
f 361 364 363
f 361 364 365
f 361 365 364
f 361 365 366
f 361 366 365
f 361 366 367
f 361 367 366
f 361 367 368
f 361 368 367
f 361 368 369
f 361 369 368
f 361 369 370
f 361 370 369
f 361 370 371
f 361 371 370
f 361 371 372
f 361 372 371
f 361 372 373
f 361 373 372
f 361 373 374
f 361 374 373
f 361 374 375
f 361 375 374
f 361 375 376
f 361 376 375
f 361 376 377
f 361 377 376
f 361 377 378
f 361 378 377
f 361 378 379
f 361 379 378
f 361 379 380
f 361 380 379
f 361 380 381
f 361 381 380
f 361 381 382
f 361 382 381
f 361 382 383
f 361 383 382
f 361 383 384
f 361 384 383
f 361 384 385
f 361 385 384
f 361 385 386
f 361 386 385
f 361 386 387
f 361 387 386
f 361 387 388
f 361 388 387
f 361 388 389
f 361 389 388
f 361 389 390
f 361 390 389
f 361 390 391
f 361 391 390
f 361 391 392
f 361 392 391
f 361 392 393
f 361 393 392
f 361 393 394
f 361 394 393
f 361 394 395
f 361 395 394
f 361 395 396
f 361 396 395
f 361 396 397
f 361 397 396
f 361 397 398
f 361 398 397
f 361 398 399
f 361 399 398
f 361 399 400
f 361 400 399
f 361 400 401
f 361 401 400
f 361 401 402
f 361 402 401
f 361 402 403
f 361 403 402
f 361 403 404
f 361 404 403
f 361 404 405
f 361 405 404
f 361 405 406
f 361 406 405
v 0.000000 -0.002482 0.011741
v 0.010312 -0.002506 0.005603
v 0.010312 -0.000024 -0.006138
v 0.000000 0.002482 -0.011741
v -0.010312 0.002506 -0.005603
v -0.010312 0.000024 0.006138
v 0.073101 0.568716 0.128394
v 0.079975 0.568700 0.124302
v 0.079975 0.570354 0.116475
v 0.073101 0.572025 0.112739
v 0.066226 0.572041 0.116831
v 0.066226 0.570386 0.124658
f 407 408 414
f 407 414 413
f 408 409 415
f 408 415 414
f 409 410 416
f 409 416 415
f 410 411 417
f 410 417 416
f 411 412 418
f 411 418 417
f 412 407 413
f 412 413 418
v 0.073101 0.570370 0.120567
v -0.008037 0.564606 0.127968
v -0.054463 0.556646 0.124709
v -0.092556 0.548159 0.118892
v -0.125341 0.539336 0.111444
v -0.153935 0.530248 0.102709
v -0.178849 0.520928 0.092844
v -0.200345 0.511391 0.081929
v -0.218559 0.501647 0.070007
v -0.233562 0.491700 0.057098
v -0.245392 0.481551 0.043215
v -0.254066 0.471204 0.028363
v -0.259591 0.460657 0.012543
v -0.261967 0.449911 -0.004243
v -0.261188 0.438965 -0.021998
v -0.257235 0.427819 -0.040728
v -0.250072 0.416470 -0.060444
v -0.239626 0.404913 -0.081168
v -0.225762 0.393140 -0.102942
v -0.208219 0.381134 -0.125845
v -0.186484 0.368863 -0.150036
v -0.159442 0.356256 -0.175857
v -0.124066 0.343122 -0.204237
v -0.053978 0.327793 -0.243277
v 0.027159 0.333558 -0.250678
v 0.073586 0.341518 -0.247420
v 0.111679 0.350005 -0.241602
v 0.144464 0.358827 -0.234155
v 0.173057 0.367915 -0.225419
v 0.197972 0.377236 -0.215555
v 0.219468 0.386772 -0.204640
v 0.237681 0.396517 -0.192717
v 0.252684 0.406464 -0.179809
v 0.264514 0.416612 -0.165926
v 0.273188 0.426960 -0.151073
v 0.278713 0.437507 -0.135254
v 0.281090 0.448253 -0.118468
v 0.280310 0.459198 -0.100712
v 0.276358 0.470344 -0.081982
v 0.269194 0.481694 -0.062266
v 0.258749 0.493251 -0.041543
v 0.244885 0.505024 -0.019769
v 0.227342 0.517030 0.003135
v 0.205607 0.529301 0.027326
v 0.178564 0.541907 0.053146
v 0.143188 0.555041 0.081527
f 419 420 421
f 419 421 420
f 419 421 422
f 419 422 421
f 419 422 423
f 419 423 422
f 419 423 424
f 419 424 423
f 419 424 425
f 419 425 424
f 419 425 426
f 419 426 425
f 419 426 427
f 419 427 426
f 419 427 428
f 419 428 427
f 419 428 429
f 419 429 428
f 419 429 430
f 419 430 429
f 419 430 431
f 419 431 430
f 419 431 432
f 419 432 431
f 419 432 433
f 419 433 432
f 419 433 434
f 419 434 433
f 419 434 435
f 419 435 434
f 419 435 436
f 419 436 435
f 419 436 437
f 419 437 436
f 419 437 438
f 419 438 437
f 419 438 439
f 419 439 438
f 419 439 440
f 419 440 439
f 419 440 441
f 419 441 440
f 419 441 442
f 419 442 441
f 419 442 443
f 419 443 442
f 419 443 444
f 419 444 443
f 419 444 445
f 419 445 444
f 419 445 446
f 419 446 445
f 419 446 447
f 419 447 446
f 419 447 448
f 419 448 447
f 419 448 449
f 419 449 448
f 419 449 450
f 419 450 449
f 419 450 451
f 419 451 450
f 419 451 452
f 419 452 451
f 419 452 453
f 419 453 452
f 419 453 454
f 419 454 453
f 419 454 455
f 419 455 454
f 419 455 456
f 419 456 455
f 419 456 457
f 419 457 456
f 419 457 458
f 419 458 457
f 419 458 459
f 419 459 458
f 419 459 460
f 419 460 459
f 419 460 461
f 419 461 460
f 419 461 462
f 419 462 461
f 419 462 463
f 419 463 462
f 419 463 464
f 419 464 463
