o mesh
v 0.000000 0.000000 0.012000
v 0.008485 0.000000 0.008485
v 0.012000 0.000000 0.000000
v 0.008485 0.000000 -0.008485
v 0.000000 0.000000 -0.012000
v -0.008485 0.000000 -0.008485
v -0.012000 0.000000 -0.000000
v -0.008485 0.000000 0.008485
v 0.000000 0.397601 0.008000
v 0.005657 0.397601 0.005657
v 0.008000 0.397601 0.000000
v 0.005657 0.397601 -0.005657
v 0.000000 0.397601 -0.008000
v -0.005657 0.397601 -0.005657
v -0.008000 0.397601 -0.000000
v -0.005657 0.397601 0.005657
f 1 2 10
f 1 10 9
f 2 3 11
f 2 11 10
f 3 4 12
f 3 12 11
f 4 5 13
f 4 13 12
f 5 6 14
f 5 14 13
f 6 7 15
f 6 15 14
f 7 8 16
f 7 16 15
f 8 1 9
f 8 9 16
v 0.097139 0.397601 -0.000000
v 0.087604 0.397601 -0.004591
v 0.087501 0.397601 -0.009197
v 0.094344 0.397601 -0.014943
v 0.096390 0.397601 -0.020488
v 0.094684 0.397601 -0.025371
v 0.092254 0.397601 -0.029975
v 0.083532 0.397601 -0.032065
v 0.079189 0.397601 -0.035257
v 0.084962 0.397601 -0.043290
v 0.077478 0.397601 -0.044732
v 0.072891 0.397601 -0.047336
v 0.075849 0.397601 -0.055107
v 0.076686 0.397601 -0.062099
v 0.072366 0.397601 -0.065159
v 0.069339 0.397601 -0.069339
v 0.061055 0.397601 -0.067808
v 0.054340 0.397601 -0.067105
v 0.054479 0.397601 -0.074984
v 0.050002 0.397601 -0.076997
v 0.043193 0.397601 -0.074813
v 0.041708 0.397601 -0.081856
v 0.039983 0.397601 -0.089804
v 0.034839 0.397601 -0.090758
v 0.030472 0.397601 -0.093784
v 0.024104 0.397601 -0.089957
v 0.018020 0.397601 -0.084778
v 0.014108 0.397601 -0.089077
v 0.009876 0.397601 -0.093967
v 0.004527 0.397601 -0.086376
v 0.000000 0.397601 -0.090042
v -0.005098 0.397601 -0.097274
v -0.010223 0.397601 -0.097269
v -0.015431 0.397601 -0.097424
v -0.019742 0.397601 -0.092880
v -0.022665 0.397601 -0.084589
v -0.027264 0.397601 -0.083911
v -0.034689 0.397601 -0.090368
v -0.035507 0.397601 -0.079750
v -0.040151 0.397601 -0.078800
v -0.048027 0.397601 -0.083185
v -0.053595 0.397601 -0.082529
v -0.057737 0.397601 -0.079468
v -0.060760 0.397601 -0.075033
v -0.059512 0.397601 -0.066094
v -0.061483 0.397601 -0.061483
v -0.071453 0.397601 -0.064336
v -0.069018 0.397601 -0.055890
v -0.070558 0.397601 -0.051263
v -0.079141 0.397601 -0.051395
v -0.085463 0.397601 -0.049342
v -0.086947 0.397601 -0.044302
v -0.089309 0.397601 -0.039763
v -0.084614 0.397601 -0.032480
v -0.082155 0.397601 -0.026694
v -0.090396 0.397601 -0.024221
v -0.088984 0.397601 -0.018914
v -0.085430 0.397601 -0.013531
v -0.091993 0.397601 -0.009669
v -0.098351 0.397601 -0.005154
v -0.097139 0.397601 -0.000000
v -0.098351 0.397601 0.005154
v -0.091993 0.397601 0.009669
v -0.085430 0.397601 0.013531
v -0.088984 0.397601 0.018914
v -0.090396 0.397601 0.024221
v -0.082155 0.397601 0.026694
v -0.084614 0.397601 0.032480
v -0.089309 0.397601 0.039763
v -0.086947 0.397601 0.044302
v -0.085463 0.397601 0.049342
v -0.079141 0.397601 0.051395
v -0.070558 0.397601 0.051263
v -0.069018 0.397601 0.055890
v -0.071453 0.397601 0.064336
v -0.061483 0.397601 0.061483
v -0.059512 0.397601 0.066094
v -0.060760 0.397601 0.075033
v -0.057737 0.397601 0.079468
v -0.053595 0.397601 0.082529
v -0.048027 0.397601 0.083185
v -0.040151 0.397601 0.078800
v -0.035507 0.397601 0.079750
v -0.034689 0.397601 0.090368
v -0.027264 0.397601 0.083911
v -0.022665 0.397601 0.084589
v -0.019742 0.397601 0.092880
v -0.015431 0.397601 0.097424
v -0.010223 0.397601 0.097269
v -0.005098 0.397601 0.097274
v -0.000000 0.397601 0.090042
v 0.004527 0.397601 0.086376
v 0.009876 0.397601 0.093967
v 0.014108 0.397601 0.089077
v 0.018020 0.397601 0.084778
v 0.024104 0.397601 0.089957
v 0.030472 0.397601 0.093784
v 0.034839 0.397601 0.090758
v 0.039983 0.397601 0.089804
v 0.041708 0.397601 0.081856
v 0.043193 0.397601 0.074813
v 0.050002 0.397601 0.076997
v 0.054479 0.397601 0.074984
v 0.054340 0.397601 0.067105
v 0.061055 0.397601 0.067808
v 0.069339 0.397601 0.069339
v 0.072366 0.397601 0.065159
v 0.076686 0.397601 0.062099
v 0.075849 0.397601 0.055107
v 0.072891 0.397601 0.047336
v 0.077478 0.397601 0.044732
v 0.084962 0.397601 0.043290
v 0.079189 0.397601 0.035257
v 0.083532 0.397601 0.032065
v 0.092254 0.397601 0.029975
v 0.094684 0.397601 0.025371
v 0.096390 0.397601 0.020488
v 0.094344 0.397601 0.014943
v 0.087501 0.397601 0.009197
v 0.087604 0.397601 0.004591
v 0.000000 0.397601 -0.000000
f 137 17 18
f 137 18 17
f 137 18 19
f 137 19 18
f 137 19 20
f 137 20 19
f 137 20 21
f 137 21 20
f 137 21 22
f 137 22 21
f 137 22 23
f 137 23 22
f 137 23 24
f 137 24 23
f 137 24 25
f 137 25 24
f 137 25 26
f 137 26 25
f 137 26 27
f 137 27 26
f 137 27 28
f 137 28 27
f 137 28 29
f 137 29 28
f 137 29 30
f 137 30 29
f 137 30 31
f 137 31 30
f 137 31 32
f 137 32 31
f 137 32 33
f 137 33 32
f 137 33 34
f 137 34 33
f 137 34 35
f 137 35 34
f 137 35 36
f 137 36 35
f 137 36 37
f 137 37 36
f 137 37 38
f 137 38 37
f 137 38 39
f 137 39 38
f 137 39 40
f 137 40 39
f 137 40 41
f 137 41 40
f 137 41 42
f 137 42 41
f 137 42 43
f 137 43 42
f 137 43 44
f 137 44 43
f 137 44 45
f 137 45 44
f 137 45 46
f 137 46 45
f 137 46 47
f 137 47 46
f 137 47 48
f 137 48 47
f 137 48 49
f 137 49 48
f 137 49 50
f 137 50 49
f 137 50 51
f 137 51 50
f 137 51 52
f 137 52 51
f 137 52 53
f 137 53 52
f 137 53 54
f 137 54 53
f 137 54 55
f 137 55 54
f 137 55 56
f 137 56 55
f 137 56 57
f 137 57 56
f 137 57 58
f 137 58 57
f 137 58 59
f 137 59 58
f 137 59 60
f 137 60 59
f 137 60 61
f 137 61 60
f 137 61 62
f 137 62 61
f 137 62 63
f 137 63 62
f 137 63 64
f 137 64 63
f 137 64 65
f 137 65 64
f 137 65 66
f 137 66 65
f 137 66 67
f 137 67 66
f 137 67 68
f 137 68 67
f 137 68 69
f 137 69 68
f 137 69 70
f 137 70 69
f 137 70 71
f 137 71 70
f 137 71 72
f 137 72 71
f 137 72 73
f 137 73 72
f 137 73 74
f 137 74 73
f 137 74 75
f 137 75 74
f 137 75 76
f 137 76 75
f 137 76 77
f 137 77 76
f 137 77 78
f 137 78 77
f 137 78 79
f 137 79 78
f 137 79 80
f 137 80 79
f 137 80 81
f 137 81 80
f 137 81 82
f 137 82 81
f 137 82 83
f 137 83 82
f 137 83 84
f 137 84 83
f 137 84 85
f 137 85 84
f 137 85 86
f 137 86 85
f 137 86 87
f 137 87 86
f 137 87 88
f 137 88 87
f 137 88 89
f 137 89 88
f 137 89 90
f 137 90 89
f 137 90 91
f 137 91 90
f 137 91 92
f 137 92 91
f 137 92 93
f 137 93 92
f 137 93 94
f 137 94 93
f 137 94 95
f 137 95 94
f 137 95 96
f 137 96 95
f 137 96 97
f 137 97 96
f 137 97 98
f 137 98 97
f 137 98 99
f 137 99 98
f 137 99 100
f 137 100 99
f 137 100 101
f 137 101 100
f 137 101 102
f 137 102 101
f 137 102 103
f 137 103 102
f 137 103 104
f 137 104 103
f 137 104 105
f 137 105 104
f 137 105 106
f 137 106 105
f 137 106 107
f 137 107 106
f 137 107 108
f 137 108 107
f 137 108 109
f 137 109 108
f 137 109 110
f 137 110 109
f 137 110 111
f 137 111 110
f 137 111 112
f 137 112 111
f 137 112 113
f 137 113 112
f 137 113 114
f 137 114 113
f 137 114 115
f 137 115 114
f 137 115 116
f 137 116 115
f 137 116 117
f 137 117 116
f 137 117 118
f 137 118 117
f 137 118 119
f 137 119 118
f 137 119 120
f 137 120 119
f 137 120 121
f 137 121 120
f 137 121 122
f 137 122 121
f 137 122 123
f 137 123 122
f 137 123 124
f 137 124 123
f 137 124 125
f 137 125 124
f 137 125 126
f 137 126 125
f 137 126 127
f 137 127 126
f 137 127 128
f 137 128 127
f 137 128 129
f 137 129 128
f 137 129 130
f 137 130 129
f 137 130 131
f 137 131 130
f 137 131 132
f 137 132 131
f 137 132 133
f 137 133 132
f 137 133 134
f 137 134 133
f 137 134 135
f 137 135 134
f 137 135 136
f 137 136 135
f 137 136 17
f 137 17 136
