o mesh
v 0.000000 0.000000 0.009000 0.200 0.440 0.170
v 0.007794 0.000000 0.004500 0.200 0.440 0.170
v 0.007794 0.000000 -0.004500 0.200 0.440 0.170
v 0.000000 0.000000 -0.009000 0.200 0.440 0.170
v -0.007794 0.000000 -0.004500 0.200 0.440 0.170
v -0.007794 0.000000 0.004500 0.200 0.440 0.170
v 0.000000 0.313527 0.008000 0.200 0.440 0.170
v 0.006928 0.313527 0.004000 0.200 0.440 0.170
v 0.006928 0.313527 -0.004000 0.200 0.440 0.170
v 0.000000 0.313527 -0.008000 0.200 0.440 0.170
v -0.006928 0.313527 -0.004000 0.200 0.440 0.170
v -0.006928 0.313527 0.004000 0.200 0.440 0.170
f 1 2 8
f 1 8 7
f 2 3 9
f 2 9 8
f 3 4 10
f 3 10 9
f 4 5 11
f 4 11 10
f 5 6 12
f 5 12 11
f 6 1 7
f 6 7 12
v 0.000000 0.408527 0.050000 0.964 0.544 0.124
v 0.004278 0.405922 0.048895 0.964 0.544 0.124
v 0.008267 0.401791 0.046885 0.964 0.544 0.124
v 0.011905 0.397349 0.044429 0.964 0.544 0.124
v 0.015189 0.393050 0.041732 0.964 0.544 0.124
v 0.018145 0.389122 0.038913 0.964 0.544 0.124
v 0.020810 0.385672 0.036043 0.964 0.544 0.124
v 0.023223 0.382751 0.033166 0.964 0.544 0.124
v 0.025426 0.380374 0.030301 0.964 0.544 0.124
v 0.027456 0.378539 0.027456 0.964 0.544 0.124
v 0.029346 0.377238 0.024624 0.964 0.544 0.124
v 0.031125 0.376462 0.021794 0.964 0.544 0.124
v 0.032816 0.376204 0.018946 0.964 0.544 0.124
v 0.034437 0.376462 0.016058 0.964 0.544 0.124
v 0.035998 0.377238 0.013102 0.964 0.544 0.124
v 0.037505 0.378539 0.010050 0.964 0.544 0.124
v 0.038955 0.380374 0.006869 0.964 0.544 0.124
v 0.040334 0.382751 0.003529 0.964 0.544 0.124
v 0.041619 0.385672 0.000000 0.964 0.544 0.124
v 0.042772 0.389122 -0.003742 0.964 0.544 0.124
v 0.043736 0.393050 -0.007712 0.964 0.544 0.124
v 0.044429 0.397349 -0.011905 0.964 0.544 0.124
v 0.044737 0.401791 -0.016283 0.964 0.544 0.124
v 0.044483 0.405922 -0.020743 0.964 0.544 0.124
v 0.043301 0.408527 -0.025000 0.964 0.544 0.124
v 0.040205 0.405922 -0.028152 0.964 0.544 0.124
v 0.036470 0.401791 -0.030602 0.964 0.544 0.124
v 0.032524 0.397349 -0.032524 0.964 0.544 0.124
v 0.028546 0.393050 -0.034020 0.964 0.544 0.124
v 0.024627 0.389122 -0.035171 0.964 0.544 0.124
v 0.020810 0.385672 -0.036043 0.964 0.544 0.124
v 0.017111 0.382751 -0.036695 0.964 0.544 0.124
v 0.013529 0.380374 -0.037170 0.964 0.544 0.124
v 0.010050 0.378539 -0.037505 0.964 0.544 0.124
v 0.006652 0.377238 -0.037727 0.964 0.544 0.124
v 0.003312 0.376462 -0.037852 0.964 0.544 0.124
v 0.000000 0.376204 -0.037893 0.964 0.544 0.124
v -0.003312 0.376462 -0.037852 0.964 0.544 0.124
v -0.006652 0.377238 -0.037727 0.964 0.544 0.124
v -0.010050 0.378539 -0.037505 0.964 0.544 0.124
v -0.013529 0.380374 -0.037170 0.964 0.544 0.124
v -0.017111 0.382751 -0.036695 0.964 0.544 0.124
v -0.020810 0.385672 -0.036043 0.964 0.544 0.124
v -0.024627 0.389122 -0.035171 0.964 0.544 0.124
v -0.028546 0.393050 -0.034020 0.964 0.544 0.124
v -0.032524 0.397349 -0.032524 0.964 0.544 0.124
v -0.036470 0.401791 -0.030602 0.964 0.544 0.124
v -0.040205 0.405922 -0.028152 0.964 0.544 0.124
v -0.043301 0.408527 -0.025000 0.964 0.544 0.124
v -0.044483 0.405922 -0.020743 0.964 0.544 0.124
v -0.044737 0.401791 -0.016283 0.964 0.544 0.124
v -0.044429 0.397349 -0.011905 0.964 0.544 0.124
v -0.043736 0.393050 -0.007712 0.964 0.544 0.124
v -0.042772 0.389122 -0.003742 0.964 0.544 0.124
v -0.041619 0.385672 -0.000000 0.964 0.544 0.124
v -0.040334 0.382751 0.003529 0.964 0.544 0.124
v -0.038955 0.380374 0.006869 0.964 0.544 0.124
v -0.037505 0.378539 0.010050 0.964 0.544 0.124
v -0.035998 0.377238 0.013102 0.964 0.544 0.124
v -0.034437 0.376462 0.016058 0.964 0.544 0.124
v -0.032816 0.376204 0.018946 0.964 0.544 0.124
v -0.031125 0.376462 0.021794 0.964 0.544 0.124
v -0.029346 0.377238 0.024624 0.964 0.544 0.124
v -0.027456 0.378539 0.027456 0.964 0.544 0.124
v -0.025426 0.380374 0.030301 0.964 0.544 0.124
v -0.023223 0.382751 0.033166 0.964 0.544 0.124
v -0.020810 0.385672 0.036043 0.964 0.544 0.124
v -0.018145 0.389122 0.038913 0.964 0.544 0.124
v -0.015189 0.393050 0.041732 0.964 0.544 0.124
v -0.011905 0.397349 0.044429 0.964 0.544 0.124
v -0.008267 0.401791 0.046885 0.964 0.544 0.124
v -0.004278 0.405922 0.048895 0.964 0.544 0.124
v 0.000000 0.313527 -0.000000 0.964 0.544 0.124
f 85 13 14
f 85 14 13
f 85 14 15
f 85 15 14
f 85 15 16
f 85 16 15
f 85 16 17
f 85 17 16
f 85 17 18
f 85 18 17
f 85 18 19
f 85 19 18
f 85 19 20
f 85 20 19
f 85 20 21
f 85 21 20
f 85 21 22
f 85 22 21
f 85 22 23
f 85 23 22
f 85 23 24
f 85 24 23
f 85 24 25
f 85 25 24
f 85 25 26
f 85 26 25
f 85 26 27
f 85 27 26
f 85 27 28
f 85 28 27
f 85 28 29
f 85 29 28
f 85 29 30
f 85 30 29
f 85 30 31
f 85 31 30
f 85 31 32
f 85 32 31
f 85 32 33
f 85 33 32
f 85 33 34
f 85 34 33
f 85 34 35
f 85 35 34
f 85 35 36
f 85 36 35
f 85 36 37
f 85 37 36
f 85 37 38
f 85 38 37
f 85 38 39
f 85 39 38
f 85 39 40
f 85 40 39
f 85 40 41
f 85 41 40
f 85 41 42
f 85 42 41
f 85 42 43
f 85 43 42
f 85 43 44
f 85 44 43
f 85 44 45
f 85 45 44
f 85 45 46
f 85 46 45
f 85 46 47
f 85 47 46
f 85 47 48
f 85 48 47
f 85 48 49
f 85 49 48
f 85 49 50
f 85 50 49
f 85 50 51
f 85 51 50
f 85 51 52
f 85 52 51
f 85 52 53
f 85 53 52
f 85 53 54
f 85 54 53
f 85 54 55
f 85 55 54
f 85 55 56
f 85 56 55
f 85 56 57
f 85 57 56
f 85 57 58
f 85 58 57
f 85 58 59
f 85 59 58
f 85 59 60
f 85 60 59
f 85 60 61
f 85 61 60
f 85 61 62
f 85 62 61
f 85 62 63
f 85 63 62
f 85 63 64
f 85 64 63
f 85 64 65
f 85 65 64
f 85 65 66
f 85 66 65
f 85 66 67
f 85 67 66
f 85 67 68
f 85 68 67
f 85 68 69
f 85 69 68
f 85 69 70
f 85 70 69
f 85 70 71
f 85 71 70
f 85 71 72
f 85 72 71
f 85 72 73
f 85 73 72
f 85 73 74
f 85 74 73
f 85 74 75
f 85 75 74
f 85 75 76
f 85 76 75
f 85 76 77
f 85 77 76
f 85 77 78
f 85 78 77
f 85 78 79
f 85 79 78
f 85 79 80
f 85 80 79
f 85 80 81
f 85 81 80
f 85 81 82
f 85 82 81
f 85 82 83
f 85 83 82
f 85 83 84
f 85 84 83
f 85 84 13
f 85 13 84
v 0.038105 0.403527 0.022000 0.968 0.598 0.229
v 0.039145 0.401059 0.018254 0.968 0.598 0.229
v 0.039368 0.397146 0.014329 0.968 0.598 0.229
v 0.039098 0.392937 0.010476 0.968 0.598 0.229
v 0.038487 0.388865 0.006786 0.968 0.598 0.229
v 0.037639 0.385143 0.003293 0.968 0.598 0.229
v 0.036625 0.381875 0.000000 0.968 0.598 0.229
v 0.035494 0.379108 -0.003105 0.968 0.598 0.229
v 0.034280 0.376856 -0.006045 0.968 0.598 0.229
v 0.033005 0.375117 -0.008844 0.968 0.598 0.229
v 0.031679 0.373885 -0.011530 0.968 0.598 0.229
v 0.030304 0.373149 -0.014131 0.968 0.598 0.229
v 0.028878 0.372905 -0.016673 0.968 0.598 0.229
v 0.027390 0.373149 -0.019179 0.968 0.598 0.229
v 0.025825 0.373885 -0.021669 0.968 0.598 0.229
v 0.024161 0.375117 -0.024161 0.968 0.598 0.229
v 0.022375 0.376856 -0.026665 0.968 0.598 0.229
v 0.020436 0.379108 -0.029186 0.968 0.598 0.229
v 0.018312 0.381875 -0.031718 0.968 0.598 0.229
v 0.015968 0.385143 -0.034243 0.968 0.598 0.229
v 0.013367 0.388865 -0.036724 0.968 0.598 0.229
v 0.010476 0.392937 -0.039098 0.968 0.598 0.229
v 0.007275 0.397146 -0.041258 0.968 0.598 0.229
v 0.003764 0.401059 -0.043028 0.968 0.598 0.229
v 0.000000 0.403527 -0.044000 0.968 0.598 0.229
v -0.003764 0.401059 -0.043028 0.968 0.598 0.229
v -0.007275 0.397146 -0.041258 0.968 0.598 0.229
v -0.010476 0.392937 -0.039098 0.968 0.598 0.229
v -0.013367 0.388865 -0.036724 0.968 0.598 0.229
v -0.015968 0.385143 -0.034243 0.968 0.598 0.229
v -0.018312 0.381875 -0.031718 0.968 0.598 0.229
v -0.020436 0.379108 -0.029186 0.968 0.598 0.229
v -0.022375 0.376856 -0.026665 0.968 0.598 0.229
v -0.024161 0.375117 -0.024161 0.968 0.598 0.229
v -0.025825 0.373885 -0.021669 0.968 0.598 0.229
v -0.027390 0.373149 -0.019179 0.968 0.598 0.229
v -0.028878 0.372905 -0.016673 0.968 0.598 0.229
v -0.030304 0.373149 -0.014131 0.968 0.598 0.229
v -0.031679 0.373885 -0.011530 0.968 0.598 0.229
v -0.033005 0.375117 -0.008844 0.968 0.598 0.229
v -0.034280 0.376856 -0.006045 0.968 0.598 0.229
v -0.035494 0.379108 -0.003105 0.968 0.598 0.229
v -0.036625 0.381875 -0.000000 0.968 0.598 0.229
v -0.037639 0.385143 0.003293 0.968 0.598 0.229
v -0.038487 0.388865 0.006786 0.968 0.598 0.229
v -0.039098 0.392937 0.010476 0.968 0.598 0.229
v -0.039368 0.397146 0.014329 0.968 0.598 0.229
v -0.039145 0.401059 0.018254 0.968 0.598 0.229
v -0.038105 0.403527 0.022000 0.968 0.598 0.229
v -0.035381 0.401059 0.024774 0.968 0.598 0.229
v -0.032093 0.397146 0.026929 0.968 0.598 0.229
v -0.028622 0.392937 0.028622 0.968 0.598 0.229
v -0.025121 0.388865 0.029938 0.968 0.598 0.229
v -0.021672 0.385143 0.030950 0.968 0.598 0.229
v -0.018312 0.381875 0.031718 0.968 0.598 0.229
v -0.015058 0.379108 0.032291 0.968 0.598 0.229
v -0.011905 0.376856 0.032710 0.968 0.598 0.229
v -0.008844 0.375117 0.033005 0.968 0.598 0.229
v -0.005854 0.373885 0.033199 0.968 0.598 0.229
v -0.002914 0.373149 0.033310 0.968 0.598 0.229
v 0.000000 0.372905 0.033346 0.968 0.598 0.229
v 0.002914 0.373149 0.033310 0.968 0.598 0.229
v 0.005854 0.373885 0.033199 0.968 0.598 0.229
v 0.008844 0.375117 0.033005 0.968 0.598 0.229
v 0.011905 0.376856 0.032710 0.968 0.598 0.229
v 0.015058 0.379108 0.032291 0.968 0.598 0.229
v 0.018312 0.381875 0.031718 0.968 0.598 0.229
v 0.021672 0.385143 0.030950 0.968 0.598 0.229
v 0.025121 0.388865 0.029938 0.968 0.598 0.229
v 0.028622 0.392937 0.028622 0.968 0.598 0.229
v 0.032093 0.397146 0.026929 0.968 0.598 0.229
v 0.035381 0.401059 0.024774 0.968 0.598 0.229
v 0.000000 0.313527 -0.000000 0.968 0.598 0.229
f 158 86 87
f 158 87 86
f 158 87 88
f 158 88 87
f 158 88 89
f 158 89 88
f 158 89 90
f 158 90 89
f 158 90 91
f 158 91 90
f 158 91 92
f 158 92 91
f 158 92 93
f 158 93 92
f 158 93 94
f 158 94 93
f 158 94 95
f 158 95 94
f 158 95 96
f 158 96 95
f 158 96 97
f 158 97 96
f 158 97 98
f 158 98 97
f 158 98 99
f 158 99 98
f 158 99 100
f 158 100 99
f 158 100 101
f 158 101 100
f 158 101 102
f 158 102 101
f 158 102 103
f 158 103 102
f 158 103 104
f 158 104 103
f 158 104 105
f 158 105 104
f 158 105 106
f 158 106 105
f 158 106 107
f 158 107 106
f 158 107 108
f 158 108 107
f 158 108 109
f 158 109 108
f 158 109 110
f 158 110 109
f 158 110 111
f 158 111 110
f 158 111 112
f 158 112 111
f 158 112 113
f 158 113 112
f 158 113 114
f 158 114 113
f 158 114 115
f 158 115 114
f 158 115 116
f 158 116 115
f 158 116 117
f 158 117 116
f 158 117 118
f 158 118 117
f 158 118 119
f 158 119 118
f 158 119 120
f 158 120 119
f 158 120 121
f 158 121 120
f 158 121 122
f 158 122 121
f 158 122 123
f 158 123 122
f 158 123 124
f 158 124 123
f 158 124 125
f 158 125 124
f 158 125 126
f 158 126 125
f 158 126 127
f 158 127 126
f 158 127 128
f 158 128 127
f 158 128 129
f 158 129 128
f 158 129 130
f 158 130 129
f 158 130 131
f 158 131 130
f 158 131 132
f 158 132 131
f 158 132 133
f 158 133 132
f 158 133 134
f 158 134 133
f 158 134 135
f 158 135 134
f 158 135 136
f 158 136 135
f 158 136 137
f 158 137 136
f 158 137 138
f 158 138 137
f 158 138 139
f 158 139 138
f 158 139 140
f 158 140 139
f 158 140 141
f 158 141 140
f 158 141 142
f 158 142 141
f 158 142 143
f 158 143 142
f 158 143 144
f 158 144 143
f 158 144 145
f 158 145 144
f 158 145 146
f 158 146 145
f 158 146 147
f 158 147 146
f 158 147 148
f 158 148 147
f 158 148 149
f 158 149 148
f 158 149 150
f 158 150 149
f 158 150 151
f 158 151 150
f 158 151 152
f 158 152 151
f 158 152 153
f 158 153 152
f 158 153 154
f 158 154 153
f 158 154 155
f 158 155 154
f 158 155 156
f 158 156 155
f 158 156 157
f 158 157 156
f 158 157 86
f 158 86 157
v 0.000000 0.010000 -0.000000 0.180 0.500 0.200
v 0.007626 0.004379 0.014175 0.180 0.500 0.200
v 0.015948 -0.001241 0.028261 0.180 0.500 0.200
v 0.024351 -0.006862 0.042337 0.180 0.500 0.200
v 0.032579 -0.012483 0.056435 0.180 0.500 0.200
v 0.040435 -0.018103 0.070581 0.180 0.500 0.200
v 0.047756 -0.023724 0.084796 0.180 0.500 0.200
v 0.054398 -0.029345 0.099097 0.180 0.500 0.200
v 0.060242 -0.034965 0.113500 0.180 0.500 0.200
v 0.065190 -0.040586 0.128019 0.180 0.500 0.200
v 0.069167 -0.046206 0.142661 0.180 0.500 0.200
v 0.072123 -0.051827 0.157435 0.180 0.500 0.200
v 0.074032 -0.057448 0.172342 0.180 0.500 0.200
v 0.074895 -0.063068 0.187384 0.180 0.500 0.200
v 0.074737 -0.068689 0.202556 0.180 0.500 0.200
v 0.073609 -0.074310 0.217853 0.180 0.500 0.200
v 0.071584 -0.079930 0.233264 0.180 0.500 0.200
v 0.068761 -0.085551 0.248778 0.180 0.500 0.200
v 0.065259 -0.091172 0.264379 0.180 0.500 0.200
v 0.061222 -0.096792 0.280048 0.180 0.500 0.200
v 0.056813 -0.102413 0.295765 0.180 0.500 0.200
v 0.052229 -0.108034 0.311504 0.180 0.500 0.200
v 0.047727 -0.113654 0.327233 0.180 0.500 0.200
v 0.043919 -0.119275 0.342873 0.180 0.500 0.200
v 0.036293 -0.113654 0.328698 0.180 0.500 0.200
v 0.027971 -0.108034 0.314611 0.180 0.500 0.200
v 0.019568 -0.102413 0.300536 0.180 0.500 0.200
v 0.011341 -0.096792 0.286437 0.180 0.500 0.200
v 0.003484 -0.091172 0.272292 0.180 0.500 0.200
v -0.003836 -0.085551 0.258077 0.180 0.500 0.200
v -0.010478 -0.079930 0.243776 0.180 0.500 0.200
v -0.016322 -0.074310 0.229372 0.180 0.500 0.200
v -0.021270 -0.068689 0.214854 0.180 0.500 0.200
v -0.025247 -0.063068 0.200211 0.180 0.500 0.200
v -0.028203 -0.057448 0.185438 0.180 0.500 0.200
v -0.030113 -0.051827 0.170530 0.180 0.500 0.200
v -0.030976 -0.046206 0.155489 0.180 0.500 0.200
v -0.030818 -0.040586 0.140317 0.180 0.500 0.200
v -0.029689 -0.034965 0.125020 0.180 0.500 0.200
v -0.027664 -0.029345 0.109608 0.180 0.500 0.200
v -0.024841 -0.023724 0.094095 0.180 0.500 0.200
v -0.021340 -0.018103 0.078494 0.180 0.500 0.200
v -0.017303 -0.012483 0.062825 0.180 0.500 0.200
v -0.012894 -0.006862 0.047108 0.180 0.500 0.200
v -0.008310 -0.001241 0.031369 0.180 0.500 0.200
v -0.003807 0.004379 0.015640 0.180 0.500 0.200
f 159 160 161
f 159 161 160
f 159 161 162
f 159 162 161
f 159 162 163
f 159 163 162
f 159 163 164
f 159 164 163
f 159 164 165
f 159 165 164
f 159 165 166
f 159 166 165
f 159 166 167
f 159 167 166
f 159 167 168
f 159 168 167
f 159 168 169
f 159 169 168
f 159 169 170
f 159 170 169
f 159 170 171
f 159 171 170
f 159 171 172
f 159 172 171
f 159 172 173
f 159 173 172
f 159 173 174
f 159 174 173
f 159 174 175
f 159 175 174
f 159 175 176
f 159 176 175
f 159 176 177
f 159 177 176
f 159 177 178
f 159 178 177
f 159 178 179
f 159 179 178
f 159 179 180
f 159 180 179
f 159 180 181
f 159 181 180
f 159 181 182
f 159 182 181
f 159 182 183
f 159 183 182
f 159 183 184
f 159 184 183
f 159 184 185
f 159 185 184
f 159 185 186
f 159 186 185
f 159 186 187
f 159 187 186
f 159 187 188
f 159 188 187
f 159 188 189
f 159 189 188
f 159 189 190
f 159 190 189
f 159 190 191
f 159 191 190
f 159 191 192
f 159 192 191
f 159 192 193
f 159 193 192
f 159 193 194
f 159 194 193
f 159 194 195
f 159 195 194
f 159 195 196
f 159 196 195
f 159 196 197
f 159 197 196
f 159 197 198
f 159 198 197
f 159 198 199
f 159 199 198
f 159 199 200
f 159 200 199
f 159 200 201
f 159 201 200
f 159 201 202
f 159 202 201
f 159 202 203
f 159 203 202
f 159 203 204
f 159 204 203
v 0.000000 0.010000 -0.000000 0.180 0.500 0.200
v -0.008595 0.001896 -0.012716 0.180 0.500 0.200
v -0.017890 -0.006208 -0.025289 0.180 0.500 0.200
v -0.027266 -0.014313 -0.037846 0.180 0.500 0.200
v -0.036465 -0.022417 -0.050438 0.180 0.500 0.200
v -0.045292 -0.030521 -0.063107 0.180 0.500 0.200
v -0.053580 -0.038625 -0.075886 0.180 0.500 0.200
v -0.061185 -0.046729 -0.088805 0.180 0.500 0.200
v -0.067988 -0.054834 -0.101889 0.180 0.500 0.200
v -0.073890 -0.062938 -0.115157 0.180 0.500 0.200
v -0.078816 -0.071042 -0.128625 0.180 0.500 0.200
v -0.082716 -0.079146 -0.142304 0.180 0.500 0.200
v -0.085563 -0.087251 -0.156198 0.180 0.500 0.200
v -0.087358 -0.095355 -0.170307 0.180 0.500 0.200
v -0.088127 -0.103459 -0.184628 0.180 0.500 0.200
v -0.087919 -0.111563 -0.199148 0.180 0.500 0.200
v -0.086811 -0.119667 -0.213853 0.180 0.500 0.200
v -0.084899 -0.127772 -0.228722 0.180 0.500 0.200
v -0.082306 -0.135876 -0.243731 0.180 0.500 0.200
v -0.079174 -0.143980 -0.258850 0.180 0.500 0.200
v -0.075669 -0.152084 -0.274046 0.180 0.500 0.200
v -0.071988 -0.160188 -0.289278 0.180 0.500 0.200
v -0.068388 -0.168293 -0.304494 0.180 0.500 0.200
v -0.065487 -0.176397 -0.319566 0.180 0.500 0.200
v -0.056892 -0.168293 -0.306850 0.180 0.500 0.200
v -0.047597 -0.160188 -0.294277 0.180 0.500 0.200
v -0.038221 -0.152084 -0.281720 0.180 0.500 0.200
v -0.029022 -0.143980 -0.269128 0.180 0.500 0.200
v -0.020195 -0.135876 -0.256459 0.180 0.500 0.200
v -0.011907 -0.127772 -0.243680 0.180 0.500 0.200
v -0.004302 -0.119667 -0.230761 0.180 0.500 0.200
v 0.002501 -0.111563 -0.217677 0.180 0.500 0.200
v 0.008403 -0.103459 -0.204409 0.180 0.500 0.200
v 0.013329 -0.095355 -0.190941 0.180 0.500 0.200
v 0.017229 -0.087251 -0.177262 0.180 0.500 0.200
v 0.020076 -0.079146 -0.163368 0.180 0.500 0.200
v 0.021871 -0.071042 -0.149258 0.180 0.500 0.200
v 0.022640 -0.062938 -0.134938 0.180 0.500 0.200
v 0.022432 -0.054834 -0.120418 0.180 0.500 0.200
v 0.021324 -0.046729 -0.105713 0.180 0.500 0.200
v 0.019412 -0.038625 -0.090844 0.180 0.500 0.200
v 0.016819 -0.030521 -0.075835 0.180 0.500 0.200
v 0.013687 -0.022417 -0.060715 0.180 0.500 0.200
v 0.010182 -0.014313 -0.045519 0.180 0.500 0.200
v 0.006501 -0.006208 -0.030287 0.180 0.500 0.200
v 0.002901 0.001896 -0.015072 0.180 0.500 0.200
f 205 206 207
f 205 207 206
f 205 207 208
f 205 208 207
f 205 208 209
f 205 209 208
f 205 209 210
f 205 210 209
f 205 210 211
f 205 211 210
f 205 211 212
f 205 212 211
f 205 212 213
f 205 213 212
f 205 213 214
f 205 214 213
f 205 214 215
f 205 215 214
f 205 215 216
f 205 216 215
f 205 216 217
f 205 217 216
f 205 217 218
f 205 218 217
f 205 218 219
f 205 219 218
f 205 219 220
f 205 220 219
f 205 220 221
f 205 221 220
f 205 221 222
f 205 222 221
f 205 222 223
f 205 223 222
f 205 223 224
f 205 224 223
f 205 224 225
f 205 225 224
f 205 225 226
f 205 226 225
f 205 226 227
f 205 227 226
f 205 227 228
f 205 228 227
f 205 228 229
f 205 229 228
f 205 229 230
f 205 230 229
f 205 230 231
f 205 231 230
f 205 231 232
f 205 232 231
f 205 232 233
f 205 233 232
f 205 233 234
f 205 234 233
f 205 234 235
f 205 235 234
f 205 235 236
f 205 236 235
f 205 236 237
f 205 237 236
f 205 237 238
f 205 238 237
f 205 238 239
f 205 239 238
f 205 239 240
f 205 240 239
f 205 240 241
f 205 241 240
f 205 241 242
f 205 242 241
f 205 242 243
f 205 243 242
f 205 243 244
f 205 244 243
f 205 244 245
f 205 245 244
f 205 245 246
f 205 246 245
f 205 246 247
f 205 247 246
f 205 247 248
f 205 248 247
f 205 248 249
f 205 249 248
f 205 249 250
f 205 250 249
