o mesh
v 0.000000 0.000000 0.015000
v 0.008817 0.000000 0.012135
v 0.014266 0.000000 0.004635
v 0.014266 0.000000 -0.004635
v 0.008817 0.000000 -0.012135
v 0.000000 0.000000 -0.015000
v -0.008817 0.000000 -0.012135
v -0.014266 0.000000 -0.004635
v -0.014266 0.000000 0.004635
v -0.008817 0.000000 0.012135
v 0.000000 0.400000 0.010200
v 0.005995 0.400000 0.008252
v 0.009701 0.400000 0.003152
v 0.009701 0.400000 -0.003152
v 0.005995 0.400000 -0.008252
v 0.000000 0.400000 -0.010200
v -0.005995 0.400000 -0.008252
v -0.009701 0.400000 -0.003152
v -0.009701 0.400000 0.003152
v -0.005995 0.400000 0.008252
f 1 2 12
f 1 12 11
f 2 3 13
f 2 13 12
f 3 4 14
f 3 14 13
f 4 5 15
f 4 15 14
f 5 6 16
f 5 16 15
f 6 7 17
f 6 17 16
f 7 8 18
f 7 18 17
f 8 9 19
f 8 19 18
f 9 10 20
f 9 20 19
f 10 1 11
f 10 11 20
v -0.002348 0.400000 0.009926
v 0.001276 0.405029 0.008782
v 0.004413 0.408137 0.004283
v 0.005865 0.408137 -0.001851
v 0.005076 0.405029 -0.007279
v 0.002348 0.400000 -0.009926
v -0.001276 0.394971 -0.008782
v -0.004413 0.391863 -0.004283
v -0.005865 0.391863 0.001851
v -0.005076 0.394971 0.007279
v -0.272100 0.580394 -0.057251
v -0.269635 0.583814 -0.058029
v -0.267502 0.585928 -0.061088
v -0.266515 0.585928 -0.065260
v -0.267051 0.583814 -0.068950
v -0.268906 0.580394 -0.070750
v -0.271370 0.576975 -0.069972
v -0.273504 0.574861 -0.066913
v -0.274491 0.574861 -0.062742
v -0.273954 0.576975 -0.059051
f 21 22 32
f 21 32 31
f 22 23 33
f 22 33 32
f 23 24 34
f 23 34 33
f 24 25 35
f 24 35 34
f 25 26 36
f 25 36 35
f 26 27 37
f 26 37 36
f 27 28 38
f 27 38 37
f 28 29 39
f 28 39 38
f 29 30 40
f 29 40 39
f 30 21 31
f 30 31 40
v -0.270983 0.580394 -0.057081
v -0.272336 0.584205 -0.058503
v -0.272989 0.586561 -0.062025
v -0.272692 0.586561 -0.066301
v -0.271559 0.584205 -0.069699
v -0.270022 0.580394 -0.070920
v -0.268669 0.576583 -0.069498
v -0.268017 0.574228 -0.065977
v -0.268314 0.574228 -0.061700
v -0.269447 0.576583 -0.058302
v -0.533721 0.480255 -0.077545
v -0.534641 0.482847 -0.078512
v -0.535085 0.484448 -0.080907
v -0.534883 0.484448 -0.083815
v -0.534113 0.482847 -0.086125
v -0.533068 0.480255 -0.086956
v -0.532148 0.477664 -0.085989
v -0.531704 0.476062 -0.083594
v -0.531906 0.476062 -0.080686
v -0.532677 0.477664 -0.078376
f 41 42 52
f 41 52 51
f 42 43 53
f 42 53 52
f 43 44 54
f 43 54 53
f 44 45 55
f 44 55 54
f 45 46 56
f 45 56 55
f 46 47 57
f 46 57 56
f 47 48 58
f 47 58 57
f 48 49 59
f 48 59 58
f 49 50 60
f 49 60 59
f 50 41 51
f 50 51 60
v -0.533395 0.480426 -0.086964
v -0.530850 0.479294 -0.086104
v -0.529278 0.478529 -0.083772
v -0.529278 0.478423 -0.080859
v -0.530850 0.479017 -0.078477
v -0.533395 0.480084 -0.077537
v -0.535939 0.481217 -0.078397
v -0.537512 0.481982 -0.080729
v -0.537512 0.482087 -0.083642
v -0.535939 0.481493 -0.086024
v -0.616376 0.288628 -0.092412
v -0.614646 0.287858 -0.091827
v -0.613577 0.287338 -0.090241
v -0.613577 0.287266 -0.088260
v -0.614646 0.287670 -0.086641
v -0.616376 0.288396 -0.086002
v -0.618107 0.289166 -0.086587
v -0.619176 0.289686 -0.088172
v -0.619176 0.289758 -0.090153
v -0.618107 0.289354 -0.091773
f 61 62 72
f 61 72 71
f 62 63 73
f 62 73 72
f 63 64 74
f 63 74 73
f 64 65 75
f 64 75 74
f 65 66 76
f 65 76 75
f 66 67 77
f 66 77 76
f 67 68 78
f 67 78 77
f 68 69 79
f 68 79 78
f 69 70 80
f 69 80 79
f 70 61 71
f 70 71 80
v -0.616376 0.288512 -0.089207
v -0.616114 0.289622 -0.091188
v -0.615680 0.290659 -0.093190
v -0.614868 0.291533 -0.095237
v -0.613511 0.292174 -0.097351
v -0.611539 0.292552 -0.099538
v -0.609010 0.292691 -0.101793
v -0.606112 0.292672 -0.104092
v -0.603133 0.292618 -0.106401
v -0.600417 0.292677 -0.108679
v -0.598300 0.292992 -0.110884
v -0.597047 0.293678 -0.112985
v -0.596806 0.294797 -0.114963
v -0.597578 0.296350 -0.116820
v -0.599214 0.298273 -0.118572
v -0.601448 0.300453 -0.120252
v -0.603946 0.302745 -0.121900
v -0.606363 0.305003 -0.123557
v -0.608410 0.307102 -0.125260
v -0.609900 0.308963 -0.127030
v -0.610776 0.310561 -0.128873
v -0.611107 0.311925 -0.130783
v -0.611059 0.313126 -0.132738
v -0.610841 0.314255 -0.134714
v -0.611103 0.313145 -0.132733
v -0.611537 0.312109 -0.130731
v -0.612349 0.311234 -0.128684
v -0.613706 0.310593 -0.126570
v -0.615678 0.310216 -0.124383
v -0.618207 0.310077 -0.122128
v -0.621105 0.310096 -0.119829
v -0.624084 0.310150 -0.117520
v -0.626800 0.310091 -0.115242
v -0.628917 0.309776 -0.113037
v -0.630170 0.309090 -0.110936
v -0.630411 0.307970 -0.108958
v -0.629639 0.306418 -0.107101
v -0.628003 0.304495 -0.105349
v -0.625769 0.302315 -0.103669
v -0.623271 0.300023 -0.102021
v -0.620854 0.297765 -0.100364
v -0.618807 0.295665 -0.098661
v -0.617317 0.293804 -0.096891
v -0.616441 0.292207 -0.095048
v -0.616110 0.290843 -0.093138
v -0.616158 0.289641 -0.091183
f 81 82 83
f 81 83 82
f 81 83 84
f 81 84 83
f 81 84 85
f 81 85 84
f 81 85 86
f 81 86 85
f 81 86 87
f 81 87 86
f 81 87 88
f 81 88 87
f 81 88 89
f 81 89 88
f 81 89 90
f 81 90 89
f 81 90 91
f 81 91 90
f 81 91 92
f 81 92 91
f 81 92 93
f 81 93 92
f 81 93 94
f 81 94 93
f 81 94 95
f 81 95 94
f 81 95 96
f 81 96 95
f 81 96 97
f 81 97 96
f 81 97 98
f 81 98 97
f 81 98 99
f 81 99 98
f 81 99 100
f 81 100 99
f 81 100 101
f 81 101 100
f 81 101 102
f 81 102 101
f 81 102 103
f 81 103 102
f 81 103 104
f 81 104 103
f 81 104 105
f 81 105 104
f 81 105 106
f 81 106 105
f 81 106 107
f 81 107 106
f 81 107 108
f 81 108 107
f 81 108 109
f 81 109 108
f 81 109 110
f 81 110 109
f 81 110 111
f 81 111 110
f 81 111 112
f 81 112 111
f 81 112 113
f 81 113 112
f 81 113 114
f 81 114 113
f 81 114 115
f 81 115 114
f 81 115 116
f 81 116 115
f 81 116 117
f 81 117 116
f 81 117 118
f 81 118 117
f 81 118 119
f 81 119 118
f 81 119 120
f 81 120 119
f 81 120 121
f 81 121 120
f 81 121 122
f 81 122 121
f 81 122 123
f 81 123 122
f 81 123 124
f 81 124 123
f 81 124 125
f 81 125 124
f 81 125 126
f 81 126 125
v -0.616376 0.288512 -0.089207
v -0.616533 0.289330 -0.086135
v -0.617336 0.290430 -0.083116
v -0.618893 0.291858 -0.080159
v -0.621164 0.293598 -0.077261
v -0.624007 0.295587 -0.074409
v -0.627205 0.297730 -0.071586
v -0.630484 0.299909 -0.068770
v -0.633555 0.301997 -0.065937
v -0.636134 0.303871 -0.063063
v -0.637982 0.305426 -0.060130
v -0.638921 0.306585 -0.057122
v -0.638859 0.307308 -0.054033
v -0.637795 0.307594 -0.050861
v -0.635824 0.307485 -0.047615
v -0.633120 0.307057 -0.044310
v -0.629925 0.306414 -0.040964
v -0.626522 0.305681 -0.037601
v -0.623200 0.304984 -0.034244
v -0.620232 0.304440 -0.030917
v -0.617837 0.304147 -0.027636
v -0.616156 0.304164 -0.024414
v -0.615228 0.304510 -0.021254
v -0.614948 0.305137 -0.018147
v -0.614792 0.304319 -0.021218
v -0.613988 0.303219 -0.024237
v -0.612432 0.301791 -0.027194
v -0.610161 0.300052 -0.030093
v -0.607317 0.298063 -0.032944
v -0.604120 0.295920 -0.035767
v -0.600840 0.293741 -0.038583
v -0.597770 0.291653 -0.041417
v -0.595190 0.289779 -0.044290
v -0.593343 0.288224 -0.047223
v -0.592403 0.287065 -0.050231
v -0.592466 0.286342 -0.053320
v -0.593529 0.286056 -0.056492
v -0.595501 0.286165 -0.059738
v -0.598205 0.286593 -0.063044
v -0.601399 0.287235 -0.066390
v -0.604803 0.287968 -0.069753
v -0.608124 0.288666 -0.073109
v -0.611092 0.289209 -0.076436
v -0.613488 0.289503 -0.079717
v -0.615168 0.289485 -0.082939
v -0.616096 0.289140 -0.086099
f 127 128 129
f 127 129 128
f 127 129 130
f 127 130 129
f 127 130 131
f 127 131 130
f 127 131 132
f 127 132 131
f 127 132 133
f 127 133 132
f 127 133 134
f 127 134 133
f 127 134 135
f 127 135 134
f 127 135 136
f 127 136 135
f 127 136 137
f 127 137 136
f 127 137 138
f 127 138 137
f 127 138 139
f 127 139 138
f 127 139 140
f 127 140 139
f 127 140 141
f 127 141 140
f 127 141 142
f 127 142 141
f 127 142 143
f 127 143 142
f 127 143 144
f 127 144 143
f 127 144 145
f 127 145 144
f 127 145 146
f 127 146 145
f 127 146 147
f 127 147 146
f 127 147 148
f 127 148 147
f 127 148 149
f 127 149 148
f 127 149 150
f 127 150 149
f 127 150 151
f 127 151 150
f 127 151 152
f 127 152 151
f 127 152 153
f 127 153 152
f 127 153 154
f 127 154 153
f 127 154 155
f 127 155 154
f 127 155 156
f 127 156 155
f 127 156 157
f 127 157 156
f 127 157 158
f 127 158 157
f 127 158 159
f 127 159 158
f 127 159 160
f 127 160 159
f 127 160 161
f 127 161 160
f 127 161 162
f 127 162 161
f 127 162 163
f 127 163 162
f 127 163 164
f 127 164 163
f 127 164 165
f 127 165 164
f 127 165 166
f 127 166 165
f 127 166 167
f 127 167 166
f 127 167 168
f 127 168 167
f 127 168 169
f 127 169 168
f 127 169 170
f 127 170 169
f 127 170 171
f 127 171 170
f 127 171 172
f 127 172 171
