o mesh
v 0.000000 0.000000 0.015000
v 0.010607 0.000000 0.010607
v 0.015000 0.000000 0.000000
v 0.010607 0.000000 -0.010607
v 0.000000 0.000000 -0.015000
v -0.010607 0.000000 -0.010607
v -0.015000 0.000000 -0.000000
v -0.010607 0.000000 0.010607
v 0.000000 0.040000 0.012000
v 0.008485 0.040000 0.008485
v 0.012000 0.040000 0.000000
v 0.008485 0.040000 -0.008485
v 0.000000 0.040000 -0.012000
v -0.008485 0.040000 -0.008485
v -0.012000 0.040000 -0.000000
v -0.008485 0.040000 0.008485
f 1 2 10
f 1 10 9
f 2 3 11
f 2 11 10
f 3 4 12
f 3 12 11
f 4 5 13
f 4 13 12
f 5 6 14
f 5 14 13
f 6 7 15
f 6 15 14
f 7 8 16
f 7 16 15
f 8 1 9
f 8 9 16
v 0.000000 0.040000 -0.000000
v 0.004299 0.030282 0.007610
v 0.010804 0.020565 0.015195
v 0.018278 0.010847 0.022768
v 0.026160 0.001130 0.030337
v 0.034019 -0.008588 0.037905
v 0.041486 -0.018305 0.045479
v 0.048243 -0.028023 0.053060
v 0.054013 -0.037740 0.060653
v 0.058568 -0.047458 0.068261
v 0.061735 -0.057175 0.075884
v 0.063393 -0.066893 0.083526
v 0.063483 -0.076611 0.091185
v 0.062003 -0.086328 0.098863
v 0.059016 -0.096046 0.106558
v 0.054639 -0.105763 0.114270
v 0.049048 -0.115481 0.121996
v 0.042471 -0.125198 0.129733
v 0.035182 -0.134916 0.137479
v 0.027502 -0.144633 0.145229
v 0.019799 -0.154351 0.152980
v 0.012504 -0.164068 0.160726
v 0.006178 -0.173786 0.168460
v 0.002058 -0.183503 0.176169
v -0.002241 -0.173786 0.168558
v -0.008746 -0.164068 0.160974
v -0.016220 -0.154351 0.153401
v -0.024102 -0.144633 0.145832
v -0.031961 -0.134916 0.138263
v -0.039428 -0.125198 0.130690
v -0.046185 -0.115481 0.123108
v -0.051954 -0.105763 0.115515
v -0.056510 -0.096046 0.107908
v -0.059677 -0.086328 0.100284
v -0.061335 -0.076611 0.092643
v -0.061425 -0.066893 0.084984
v -0.059945 -0.057175 0.077306
v -0.056958 -0.047458 0.069610
v -0.052581 -0.037740 0.061899
v -0.046990 -0.028023 0.054173
v -0.040413 -0.018305 0.046435
v -0.033124 -0.008588 0.038690
v -0.025444 0.001130 0.030939
v -0.017741 0.010847 0.023189
v -0.010446 0.020565 0.015443
v -0.004120 0.030282 0.007709
f 17 18 19
f 17 19 18
f 17 19 20
f 17 20 19
f 17 20 21
f 17 21 20
f 17 21 22
f 17 22 21
f 17 22 23
f 17 23 22
f 17 23 24
f 17 24 23
f 17 24 25
f 17 25 24
f 17 25 26
f 17 26 25
f 17 26 27
f 17 27 26
f 17 27 28
f 17 28 27
f 17 28 29
f 17 29 28
f 17 29 30
f 17 30 29
f 17 30 31
f 17 31 30
f 17 31 32
f 17 32 31
f 17 32 33
f 17 33 32
f 17 33 34
f 17 34 33
f 17 34 35
f 17 35 34
f 17 35 36
f 17 36 35
f 17 36 37
f 17 37 36
f 17 37 38
f 17 38 37
f 17 38 39
f 17 39 38
f 17 39 40
f 17 40 39
f 17 40 41
f 17 41 40
f 17 41 42
f 17 42 41
f 17 42 43
f 17 43 42
f 17 43 44
f 17 44 43
f 17 44 45
f 17 45 44
f 17 45 46
f 17 46 45
f 17 46 47
f 17 47 46
f 17 47 48
f 17 48 47
f 17 48 49
f 17 49 48
f 17 49 50
f 17 50 49
f 17 50 51
f 17 51 50
f 17 51 52
f 17 52 51
f 17 52 53
f 17 53 52
f 17 53 54
f 17 54 53
f 17 54 55
f 17 55 54
f 17 55 56
f 17 56 55
f 17 56 57
f 17 57 56
f 17 57 58
f 17 58 57
f 17 58 59
f 17 59 58
f 17 59 60
f 17 60 59
f 17 60 61
f 17 61 60
f 17 61 62
f 17 62 61
v 0.000000 0.040000 -0.000000
v 0.006988 0.029910 0.002048
v 0.015383 0.019820 0.002016
v 0.024700 0.009729 0.000622
v 0.034611 -0.000361 -0.001650
v 0.044817 -0.010451 -0.004358
v 0.055031 -0.020541 -0.007076
v 0.064979 -0.030631 -0.009404
v 0.074417 -0.040721 -0.010976
v 0.083130 -0.050812 -0.011478
v 0.090952 -0.060902 -0.010662
v 0.097764 -0.070992 -0.008355
v 0.103507 -0.081082 -0.004468
v 0.108182 -0.091172 0.000998
v 0.111847 -0.101263 0.007956
v 0.114621 -0.111353 0.016231
v 0.116670 -0.121443 0.025577
v 0.118208 -0.131533 0.035677
v 0.119482 -0.141623 0.046169
v 0.120763 -0.151714 0.056650
v 0.122338 -0.161804 0.066696
v 0.124508 -0.171894 0.075863
v 0.127599 -0.181984 0.083669
v 0.132099 -0.192074 0.089394
v 0.125111 -0.181984 0.087346
v 0.116715 -0.171894 0.087379
v 0.107399 -0.161804 0.088772
v 0.097487 -0.151714 0.091044
v 0.087281 -0.141623 0.093752
v 0.077068 -0.131533 0.096471
v 0.067119 -0.121443 0.098798
v 0.057682 -0.111353 0.100370
v 0.048968 -0.101263 0.100872
v 0.041147 -0.091172 0.100056
v 0.034335 -0.081082 0.097749
v 0.028591 -0.070992 0.093862
v 0.023917 -0.060902 0.088396
v 0.020251 -0.050812 0.081439
v 0.017478 -0.040721 0.073163
v 0.015429 -0.030631 0.063818
v 0.013890 -0.020541 0.053717
v 0.012617 -0.010451 0.043225
v 0.011336 -0.000361 0.032744
v 0.009761 0.009729 0.022698
v 0.007590 0.019820 0.013531
v 0.004499 0.029910 0.005725
f 63 64 65
f 63 65 64
f 63 65 66
f 63 66 65
f 63 66 67
f 63 67 66
f 63 67 68
f 63 68 67
f 63 68 69
f 63 69 68
f 63 69 70
f 63 70 69
f 63 70 71
f 63 71 70
f 63 71 72
f 63 72 71
f 63 72 73
f 63 73 72
f 63 73 74
f 63 74 73
f 63 74 75
f 63 75 74
f 63 75 76
f 63 76 75
f 63 76 77
f 63 77 76
f 63 77 78
f 63 78 77
f 63 78 79
f 63 79 78
f 63 79 80
f 63 80 79
f 63 80 81
f 63 81 80
f 63 81 82
f 63 82 81
f 63 82 83
f 63 83 82
f 63 83 84
f 63 84 83
f 63 84 85
f 63 85 84
f 63 85 86
f 63 86 85
f 63 86 87
f 63 87 86
f 63 87 88
f 63 88 87
f 63 88 89
f 63 89 88
f 63 89 90
f 63 90 89
f 63 90 91
f 63 91 90
f 63 91 92
f 63 92 91
f 63 92 93
f 63 93 92
f 63 93 94
f 63 94 93
f 63 94 95
f 63 95 94
f 63 95 96
f 63 96 95
f 63 96 97
f 63 97 96
f 63 97 98
f 63 98 97
f 63 98 99
f 63 99 98
f 63 99 100
f 63 100 99
f 63 100 101
f 63 101 100
f 63 101 102
f 63 102 101
f 63 102 103
f 63 103 102
f 63 103 104
f 63 104 103
f 63 104 105
f 63 105 104
f 63 105 106
f 63 106 105
f 63 106 107
f 63 107 106
f 63 107 108
f 63 108 107
v 0.000000 0.040000 -0.000000
v 0.010573 0.027544 -0.003476
v 0.021274 0.015088 -0.010245
v 0.032048 0.002632 -0.018862
v 0.042862 -0.009824 -0.028527
v 0.053691 -0.022279 -0.038573
v 0.064511 -0.034735 -0.048393
v 0.075301 -0.047191 -0.057439
v 0.086042 -0.059647 -0.065225
v 0.096718 -0.072103 -0.071342
v 0.107317 -0.084559 -0.075469
v 0.117829 -0.097015 -0.077385
v 0.128251 -0.109471 -0.076979
v 0.138583 -0.121926 -0.074251
v 0.148828 -0.134382 -0.069313
v 0.158996 -0.146838 -0.062384
v 0.169099 -0.159294 -0.053787
v 0.179153 -0.171750 -0.043929
v 0.189177 -0.184206 -0.033297
v 0.199192 -0.196662 -0.022440
v 0.209221 -0.209118 -0.011962
v 0.219292 -0.221573 -0.002534
v 0.229435 -0.234029 0.005047
v 0.239705 -0.246485 0.009334
v 0.229132 -0.234029 0.012810
v 0.218431 -0.221573 0.019579
v 0.207658 -0.209118 0.028196
v 0.196843 -0.196662 0.037862
v 0.186014 -0.184206 0.047907
v 0.175194 -0.171750 0.057727
v 0.164404 -0.159294 0.066773
v 0.153663 -0.146838 0.074559
v 0.142987 -0.134382 0.080676
v 0.132389 -0.121926 0.084803
v 0.121876 -0.109471 0.086719
v 0.111454 -0.097015 0.086314
v 0.101123 -0.084559 0.083585
v 0.090877 -0.072103 0.078647
v 0.080709 -0.059647 0.071719
v 0.070606 -0.047191 0.063121
v 0.060553 -0.034735 0.053263
v 0.050529 -0.022279 0.042631
v 0.040514 -0.009824 0.031774
v 0.030484 0.002632 0.021297
v 0.020413 0.015088 0.011868
v 0.010271 0.027544 0.004287
f 109 110 111
f 109 111 110
f 109 111 112
f 109 112 111
f 109 112 113
f 109 113 112
f 109 113 114
f 109 114 113
f 109 114 115
f 109 115 114
f 109 115 116
f 109 116 115
f 109 116 117
f 109 117 116
f 109 117 118
f 109 118 117
f 109 118 119
f 109 119 118
f 109 119 120
f 109 120 119
f 109 120 121
f 109 121 120
f 109 121 122
f 109 122 121
f 109 122 123
f 109 123 122
f 109 123 124
f 109 124 123
f 109 124 125
f 109 125 124
f 109 125 126
f 109 126 125
f 109 126 127
f 109 127 126
f 109 127 128
f 109 128 127
f 109 128 129
f 109 129 128
f 109 129 130
f 109 130 129
f 109 130 131
f 109 131 130
f 109 131 132
f 109 132 131
f 109 132 133
f 109 133 132
f 109 133 134
f 109 134 133
f 109 134 135
f 109 135 134
f 109 135 136
f 109 136 135
f 109 136 137
f 109 137 136
f 109 137 138
f 109 138 137
f 109 138 139
f 109 139 138
f 109 139 140
f 109 140 139
f 109 140 141
f 109 141 140
f 109 141 142
f 109 142 141
f 109 142 143
f 109 143 142
f 109 143 144
f 109 144 143
f 109 144 145
f 109 145 144
f 109 145 146
f 109 146 145
f 109 146 147
f 109 147 146
f 109 147 148
f 109 148 147
f 109 148 149
f 109 149 148
f 109 149 150
f 109 150 149
f 109 150 151
f 109 151 150
f 109 151 152
f 109 152 151
f 109 152 153
f 109 153 152
f 109 153 154
f 109 154 153
v 0.000000 0.040000 -0.000000
v 0.004124 0.030364 -0.007893
v 0.006666 0.020728 -0.017709
v 0.008393 0.011092 -0.028514
v 0.009695 0.001456 -0.039834
v 0.010889 -0.008180 -0.051286
v 0.012252 -0.017816 -0.062534
v 0.014031 -0.027452 -0.073275
v 0.016443 -0.037089 -0.083248
v 0.019669 -0.046725 -0.092232
v 0.023850 -0.056361 -0.100057
v 0.029081 -0.065997 -0.106606
v 0.035412 -0.075633 -0.111820
v 0.042843 -0.085269 -0.115698
v 0.051325 -0.094905 -0.118299
v 0.060761 -0.104541 -0.119742
v 0.071012 -0.114177 -0.120196
v 0.081895 -0.123813 -0.119881
v 0.093195 -0.133449 -0.119061
v 0.104663 -0.143085 -0.118036
v 0.116023 -0.152721 -0.117142
v 0.126959 -0.162357 -0.116764
v 0.137079 -0.171993 -0.117375
v 0.145618 -0.181630 -0.119909
v 0.141493 -0.171993 -0.112015
v 0.138951 -0.162357 -0.102200
v 0.137225 -0.152721 -0.091395
v 0.135922 -0.143085 -0.080075
v 0.134728 -0.133449 -0.068622
v 0.133366 -0.123813 -0.057375
v 0.131587 -0.114177 -0.046634
v 0.129175 -0.104541 -0.036661
v 0.125948 -0.094905 -0.027676
v 0.121768 -0.085269 -0.019851
v 0.116536 -0.075633 -0.013302
v 0.110205 -0.065997 -0.008089
v 0.102774 -0.056361 -0.004211
v 0.094293 -0.046725 -0.001609
v 0.084856 -0.037089 -0.000167
v 0.074606 -0.027452 0.000287
v 0.063723 -0.017816 -0.000027
v 0.052423 -0.008180 -0.000848
v 0.040954 0.001456 -0.001873
v 0.029595 0.011092 -0.002766
v 0.018659 0.020728 -0.003145
v 0.008538 0.030364 -0.002533
f 155 156 157
f 155 157 156
f 155 157 158
f 155 158 157
f 155 158 159
f 155 159 158
f 155 159 160
f 155 160 159
f 155 160 161
f 155 161 160
f 155 161 162
f 155 162 161
f 155 162 163
f 155 163 162
f 155 163 164
f 155 164 163
f 155 164 165
f 155 165 164
f 155 165 166
f 155 166 165
f 155 166 167
f 155 167 166
f 155 167 168
f 155 168 167
f 155 168 169
f 155 169 168
f 155 169 170
f 155 170 169
f 155 170 171
f 155 171 170
f 155 171 172
f 155 172 171
f 155 172 173
f 155 173 172
f 155 173 174
f 155 174 173
f 155 174 175
f 155 175 174
f 155 175 176
f 155 176 175
f 155 176 177
f 155 177 176
f 155 177 178
f 155 178 177
f 155 178 179
f 155 179 178
f 155 179 180
f 155 180 179
f 155 180 181
f 155 181 180
f 155 181 182
f 155 182 181
f 155 182 183
f 155 183 182
f 155 183 184
f 155 184 183
f 155 184 185
f 155 185 184
f 155 185 186
f 155 186 185
f 155 186 187
f 155 187 186
f 155 187 188
f 155 188 187
f 155 188 189
f 155 189 188
f 155 189 190
f 155 190 189
f 155 190 191
f 155 191 190
f 155 191 192
f 155 192 191
f 155 192 193
f 155 193 192
f 155 193 194
f 155 194 193
f 155 194 195
f 155 195 194
f 155 195 196
f 155 196 195
f 155 196 197
f 155 197 196
f 155 197 198
f 155 198 197
f 155 198 199
f 155 199 198
f 155 199 200
f 155 200 199
v 0.000000 0.040000 -0.000000
v -0.006622 0.029095 -0.012438
v -0.016629 0.018190 -0.024326
v -0.028424 0.007285 -0.035923
v -0.041177 -0.003620 -0.047363
v -0.054210 -0.014525 -0.058759
v -0.066922 -0.025430 -0.070206
v -0.078773 -0.036335 -0.081794
v -0.089290 -0.047240 -0.093598
v -0.098078 -0.058145 -0.105684
v -0.104828 -0.069050 -0.118102
v -0.109328 -0.079955 -0.130886
v -0.111471 -0.090860 -0.144053
v -0.111256 -0.101766 -0.157604
v -0.108792 -0.112671 -0.171521
v -0.104290 -0.123576 -0.185770
v -0.098058 -0.134481 -0.200300
v -0.090492 -0.145386 -0.215048
v -0.082066 -0.156291 -0.229935
v -0.073319 -0.167196 -0.244875
v -0.064851 -0.178101 -0.259769
v -0.057341 -0.189006 -0.274507
v -0.051621 -0.199911 -0.288954
v -0.049284 -0.210816 -0.302850
v -0.042661 -0.199911 -0.290412
v -0.032655 -0.189006 -0.278524
v -0.020859 -0.178101 -0.266928
v -0.008106 -0.167196 -0.255487
v 0.004927 -0.156291 -0.244092
v 0.017638 -0.145386 -0.232644
v 0.029489 -0.134481 -0.221056
v 0.040007 -0.123576 -0.209252
v 0.048794 -0.112671 -0.197166
v 0.055544 -0.101766 -0.184748
v 0.060044 -0.090860 -0.171964
v 0.062187 -0.079955 -0.158797
v 0.061972 -0.069050 -0.145246
v 0.059508 -0.058145 -0.131329
v 0.055006 -0.047240 -0.117080
v 0.048774 -0.036335 -0.102550
v 0.041209 -0.025430 -0.087803
v 0.032783 -0.014525 -0.072915
v 0.024035 -0.003620 -0.057976
v 0.015568 0.007285 -0.043082
v 0.008058 0.018190 -0.028343
v 0.002337 0.029095 -0.013896
f 201 202 203
f 201 203 202
f 201 203 204
f 201 204 203
f 201 204 205
f 201 205 204
f 201 205 206
f 201 206 205
f 201 206 207
f 201 207 206
f 201 207 208
f 201 208 207
f 201 208 209
f 201 209 208
f 201 209 210
f 201 210 209
f 201 210 211
f 201 211 210
f 201 211 212
f 201 212 211
f 201 212 213
f 201 213 212
f 201 213 214
f 201 214 213
f 201 214 215
f 201 215 214
f 201 215 216
f 201 216 215
f 201 216 217
f 201 217 216
f 201 217 218
f 201 218 217
f 201 218 219
f 201 219 218
f 201 219 220
f 201 220 219
f 201 220 221
f 201 221 220
f 201 221 222
f 201 222 221
f 201 222 223
f 201 223 222
f 201 223 224
f 201 224 223
f 201 224 225
f 201 225 224
f 201 225 226
f 201 226 225
f 201 226 227
f 201 227 226
f 201 227 228
f 201 228 227
f 201 228 229
f 201 229 228
f 201 229 230
f 201 230 229
f 201 230 231
f 201 231 230
f 201 231 232
f 201 232 231
f 201 232 233
f 201 233 232
f 201 233 234
f 201 234 233
f 201 234 235
f 201 235 234
f 201 235 236
f 201 236 235
f 201 236 237
f 201 237 236
f 201 237 238
f 201 238 237
f 201 238 239
f 201 239 238
f 201 239 240
f 201 240 239
f 201 240 241
f 201 241 240
f 201 241 242
f 201 242 241
f 201 242 243
f 201 243 242
f 201 243 244
f 201 244 243
f 201 244 245
f 201 245 244
f 201 245 246
f 201 246 245
v 0.000000 0.040000 -0.000000
v -0.010027 0.032775 -0.001468
v -0.021046 0.025551 -0.001620
v -0.032412 0.018326 -0.001312
v -0.043856 0.011102 -0.000900
v -0.055180 0.003877 -0.000649
v -0.066215 -0.003348 -0.000779
v -0.076821 -0.010572 -0.001479
v -0.086875 -0.017797 -0.002910
v -0.096278 -0.025022 -0.005204
v -0.104955 -0.032246 -0.008461
v -0.112854 -0.039471 -0.012749
v -0.119950 -0.046695 -0.018101
v -0.126242 -0.053920 -0.024520
v -0.131756 -0.061145 -0.031969
v -0.136543 -0.068369 -0.040381
v -0.140680 -0.075594 -0.049655
v -0.144266 -0.082818 -0.059661
v -0.147421 -0.090043 -0.070237
v -0.150289 -0.097268 -0.081194
v -0.153035 -0.104492 -0.092312
v -0.155860 -0.111717 -0.103326
v -0.159032 -0.118942 -0.113879
v -0.163196 -0.126166 -0.123118
v -0.153170 -0.118942 -0.121650
v -0.142151 -0.111717 -0.121498
v -0.130785 -0.104492 -0.121806
v -0.119340 -0.097268 -0.122217
v -0.108017 -0.090043 -0.122469
v -0.096981 -0.082818 -0.122339
v -0.086375 -0.075594 -0.121638
v -0.076321 -0.068369 -0.120207
v -0.066918 -0.061145 -0.117913
v -0.058241 -0.053920 -0.114657
v -0.050342 -0.046695 -0.110369
v -0.043246 -0.039471 -0.105016
v -0.036955 -0.032246 -0.098598
v -0.031441 -0.025022 -0.091149
v -0.026653 -0.017797 -0.082737
v -0.022516 -0.010572 -0.073462
v -0.018930 -0.003348 -0.063456
v -0.015775 0.003877 -0.052880
v -0.012908 0.011102 -0.041923
v -0.010161 0.018326 -0.030806
v -0.007336 0.025551 -0.019792
v -0.004164 0.032775 -0.009238
f 247 248 249
f 247 249 248
f 247 249 250
f 247 250 249
f 247 250 251
f 247 251 250
f 247 251 252
f 247 252 251
f 247 252 253
f 247 253 252
f 247 253 254
f 247 254 253
f 247 254 255
f 247 255 254
f 247 255 256
f 247 256 255
f 247 256 257
f 247 257 256
f 247 257 258
f 247 258 257
f 247 258 259
f 247 259 258
f 247 259 260
f 247 260 259
f 247 260 261
f 247 261 260
f 247 261 262
f 247 262 261
f 247 262 263
f 247 263 262
f 247 263 264
f 247 264 263
f 247 264 265
f 247 265 264
f 247 265 266
f 247 266 265
f 247 266 267
f 247 267 266
f 247 267 268
f 247 268 267
f 247 268 269
f 247 269 268
f 247 269 270
f 247 270 269
f 247 270 271
f 247 271 270
f 247 271 272
f 247 272 271
f 247 272 273
f 247 273 272
f 247 273 274
f 247 274 273
f 247 274 275
f 247 275 274
f 247 275 276
f 247 276 275
f 247 276 277
f 247 277 276
f 247 277 278
f 247 278 277
f 247 278 279
f 247 279 278
f 247 279 280
f 247 280 279
f 247 280 281
f 247 281 280
f 247 281 282
f 247 282 281
f 247 282 283
f 247 283 282
f 247 283 284
f 247 284 283
f 247 284 285
f 247 285 284
f 247 285 286
f 247 286 285
f 247 286 287
f 247 287 286
f 247 287 288
f 247 288 287
f 247 288 289
f 247 289 288
f 247 289 290
f 247 290 289
f 247 290 291
f 247 291 290
f 247 291 292
f 247 292 291
v 0.000000 0.040000 -0.000000
v -0.007942 0.029000 0.003225
v -0.015870 0.017999 0.009212
v -0.023791 0.006999 0.016766
v -0.031707 -0.004001 0.025218
v -0.039621 -0.015002 0.034006
v -0.047537 -0.026002 0.042618
v -0.055455 -0.037002 0.050591
v -0.063379 -0.048002 0.057513
v -0.071309 -0.059003 0.063036
v -0.079248 -0.070003 0.066887
v -0.087196 -0.081003 0.068880
v -0.095153 -0.092004 0.068919
v -0.103120 -0.103004 0.067004
v -0.111096 -0.114004 0.063231
v -0.119080 -0.125005 0.057786
v -0.127072 -0.136005 0.050943
v -0.135068 -0.147005 0.043048
v -0.143067 -0.158005 0.034513
v -0.151068 -0.169006 0.025803
v -0.159066 -0.180006 0.017429
v -0.167061 -0.191006 0.009953
v -0.175047 -0.202007 0.004045
v -0.183020 -0.213007 0.000897
v -0.175078 -0.202007 -0.002328
v -0.167150 -0.191006 -0.008315
v -0.159230 -0.180006 -0.015868
v -0.151313 -0.169006 -0.024320
v -0.143399 -0.158005 -0.033108
v -0.135484 -0.147005 -0.041721
v -0.127565 -0.136005 -0.049694
v -0.119641 -0.125005 -0.056616
v -0.111711 -0.114004 -0.062138
v -0.103772 -0.103004 -0.065990
v -0.095824 -0.092004 -0.067983
v -0.087867 -0.081003 -0.068022
v -0.079900 -0.070003 -0.066107
v -0.071924 -0.059003 -0.062333
v -0.063940 -0.048002 -0.056889
v -0.055949 -0.037002 -0.050045
v -0.047952 -0.026002 -0.042150
v -0.039953 -0.015002 -0.033615
v -0.031952 -0.004001 -0.024906
v -0.023954 0.006999 -0.016532
v -0.015960 0.017999 -0.009056
v -0.007973 0.029000 -0.003147
f 293 294 295
f 293 295 294
f 293 295 296
f 293 296 295
f 293 296 297
f 293 297 296
f 293 297 298
f 293 298 297
f 293 298 299
f 293 299 298
f 293 299 300
f 293 300 299
f 293 300 301
f 293 301 300
f 293 301 302
f 293 302 301
f 293 302 303
f 293 303 302
f 293 303 304
f 293 304 303
f 293 304 305
f 293 305 304
f 293 305 306
f 293 306 305
f 293 306 307
f 293 307 306
f 293 307 308
f 293 308 307
f 293 308 309
f 293 309 308
f 293 309 310
f 293 310 309
f 293 310 311
f 293 311 310
f 293 311 312
f 293 312 311
f 293 312 313
f 293 313 312
f 293 313 314
f 293 314 313
f 293 314 315
f 293 315 314
f 293 315 316
f 293 316 315
f 293 316 317
f 293 317 316
f 293 317 318
f 293 318 317
f 293 318 319
f 293 319 318
f 293 319 320
f 293 320 319
f 293 320 321
f 293 321 320
f 293 321 322
f 293 322 321
f 293 322 323
f 293 323 322
f 293 323 324
f 293 324 323
f 293 324 325
f 293 325 324
f 293 325 326
f 293 326 325
f 293 326 327
f 293 327 326
f 293 327 328
f 293 328 327
f 293 328 329
f 293 329 328
f 293 329 330
f 293 330 329
f 293 330 331
f 293 331 330
f 293 331 332
f 293 332 331
f 293 332 333
f 293 333 332
f 293 333 334
f 293 334 333
f 293 334 335
f 293 335 334
f 293 335 336
f 293 336 335
f 293 336 337
f 293 337 336
f 293 337 338
f 293 338 337
v 0.000000 0.040000 -0.000000
v -0.002928 0.030280 0.005370
v -0.004229 0.020561 0.012341
v -0.004354 0.010841 0.020471
v -0.003660 0.001122 0.029406
v -0.002506 -0.008598 0.038795
v -0.001253 -0.018317 0.048282
v -0.000252 -0.028037 0.057521
v 0.000170 -0.037756 0.066189
v -0.000272 -0.047476 0.074006
v -0.001808 -0.057195 0.080746
v -0.004598 -0.066915 0.086251
v -0.008724 -0.076634 0.090441
v -0.014186 -0.086354 0.093315
v -0.020901 -0.096073 0.094954
v -0.028710 -0.105793 0.095517
v -0.037384 -0.115512 0.095227
v -0.046637 -0.125232 0.094368
v -0.056142 -0.134951 0.093260
v -0.065548 -0.144671 0.092251
v -0.074493 -0.154390 0.091694
v -0.082620 -0.164110 0.091944
v -0.089570 -0.173829 0.093352
v -0.094894 -0.183549 0.096362
v -0.091967 -0.173829 0.090992
v -0.090666 -0.164110 0.084021
v -0.090541 -0.154390 0.075891
v -0.091234 -0.144671 0.066956
v -0.092388 -0.134951 0.057567
v -0.093641 -0.125232 0.048080
v -0.094643 -0.115512 0.038841
v -0.095065 -0.105793 0.030173
v -0.094622 -0.096073 0.022356
v -0.093086 -0.086354 0.015616
v -0.090297 -0.076634 0.010110
v -0.086171 -0.066915 0.005921
v -0.080709 -0.057195 0.003047
v -0.073993 -0.047476 0.001407
v -0.066184 -0.037756 0.000845
v -0.057510 -0.028037 0.001134
v -0.048257 -0.018317 0.001994
v -0.038752 -0.008598 0.003101
v -0.029346 0.001122 0.004111
v -0.020401 0.010841 0.004667
v -0.012275 0.020561 0.004418
v -0.005324 0.030280 0.003010
f 339 340 341
f 339 341 340
f 339 341 342
f 339 342 341
f 339 342 343
f 339 343 342
f 339 343 344
f 339 344 343
f 339 344 345
f 339 345 344
f 339 345 346
f 339 346 345
f 339 346 347
f 339 347 346
f 339 347 348
f 339 348 347
f 339 348 349
f 339 349 348
f 339 349 350
f 339 350 349
f 339 350 351
f 339 351 350
f 339 351 352
f 339 352 351
f 339 352 353
f 339 353 352
f 339 353 354
f 339 354 353
f 339 354 355
f 339 355 354
f 339 355 356
f 339 356 355
f 339 356 357
f 339 357 356
f 339 357 358
f 339 358 357
f 339 358 359
f 339 359 358
f 339 359 360
f 339 360 359
f 339 360 361
f 339 361 360
f 339 361 362
f 339 362 361
f 339 362 363
f 339 363 362
f 339 363 364
f 339 364 363
f 339 364 365
f 339 365 364
f 339 365 366
f 339 366 365
f 339 366 367
f 339 367 366
f 339 367 368
f 339 368 367
f 339 368 369
f 339 369 368
f 339 369 370
f 339 370 369
f 339 370 371
f 339 371 370
f 339 371 372
f 339 372 371
f 339 372 373
f 339 373 372
f 339 373 374
f 339 374 373
f 339 374 375
f 339 375 374
f 339 375 376
f 339 376 375
f 339 376 377
f 339 377 376
f 339 377 378
f 339 378 377
f 339 378 379
f 339 379 378
f 339 379 380
f 339 380 379
f 339 380 381
f 339 381 380
f 339 381 382
f 339 382 381
f 339 382 383
f 339 383 382
f 339 383 384
f 339 384 383
