o mesh
v 0.000000 0.000000 0.015000
v 0.008817 0.000000 0.012135
v 0.014266 0.000000 0.004635
v 0.014266 0.000000 -0.004635
v 0.008817 0.000000 -0.012135
v 0.000000 0.000000 -0.015000
v -0.008817 0.000000 -0.012135
v -0.014266 0.000000 -0.004635
v -0.014266 0.000000 0.004635
v -0.008817 0.000000 0.012135
v 0.000000 0.400000 0.010200
v 0.005995 0.400000 0.008252
v 0.009701 0.400000 0.003152
v 0.009701 0.400000 -0.003152
v 0.005995 0.400000 -0.008252
v 0.000000 0.400000 -0.010200
v -0.005995 0.400000 -0.008252
v -0.009701 0.400000 -0.003152
v -0.009701 0.400000 0.003152
v -0.005995 0.400000 0.008252
f 1 2 12
f 1 12 11
f 2 3 13
f 2 13 12
f 3 4 14
f 3 14 13
f 4 5 15
f 4 15 14
f 5 6 16
f 5 16 15
f 6 7 17
f 6 17 16
f 7 8 18
f 7 18 17
f 8 9 19
f 8 19 18
f 9 10 20
f 9 20 19
f 10 1 11
f 10 11 20
v -0.001586 0.400000 0.010076
v 0.002049 0.404957 0.008676
v 0.004901 0.408020 0.003962
v 0.005881 0.408020 -0.002265
v 0.004614 0.404957 -0.007627
v 0.001586 0.400000 -0.010076
v -0.002049 0.395043 -0.008676
v -0.004901 0.391980 -0.003962
v -0.005881 0.391980 0.002265
v -0.004614 0.395043 0.007627
v -0.245803 0.568562 -0.031658
v -0.243332 0.571933 -0.032611
v -0.241393 0.574016 -0.035816
v -0.240726 0.574016 -0.040051
v -0.241587 0.571933 -0.043697
v -0.243647 0.568562 -0.045362
v -0.246118 0.565192 -0.044410
v -0.248058 0.563108 -0.041204
v -0.248724 0.563108 -0.036970
v -0.247863 0.565192 -0.033324
f 21 22 32
f 21 32 31
f 22 23 33
f 22 33 32
f 23 24 34
f 23 34 33
f 24 25 35
f 24 35 34
f 25 26 36
f 25 36 35
f 26 27 37
f 26 37 36
f 27 28 38
f 27 38 37
f 28 29 39
f 28 39 38
f 29 30 40
f 29 40 39
f 30 21 31
f 30 31 40
v -0.246172 0.568562 -0.031727
v -0.247638 0.572229 -0.033394
v -0.247992 0.574495 -0.037015
v -0.247098 0.574495 -0.041208
v -0.245298 0.572229 -0.044370
v -0.243279 0.568562 -0.045294
v -0.241812 0.564895 -0.043627
v -0.241459 0.562629 -0.040005
v -0.242352 0.562629 -0.035813
v -0.244153 0.564895 -0.032651
v -0.457205 0.463479 -0.078990
v -0.458202 0.465973 -0.080124
v -0.458443 0.467514 -0.082587
v -0.457835 0.467514 -0.085437
v -0.456611 0.465973 -0.087588
v -0.455238 0.463479 -0.088216
v -0.454241 0.460986 -0.087082
v -0.454000 0.459445 -0.084620
v -0.454608 0.459445 -0.081769
v -0.455832 0.460986 -0.079619
f 41 42 52
f 41 52 51
f 42 43 53
f 42 53 52
f 43 44 54
f 43 54 53
f 44 45 55
f 44 55 54
f 45 46 56
f 45 56 55
f 46 47 57
f 46 57 56
f 47 48 58
f 47 58 57
f 48 49 59
f 48 59 58
f 49 50 60
f 49 60 59
f 50 41 51
f 50 51 60
v -0.456222 0.464776 -0.088138
v -0.453534 0.463875 -0.087459
v -0.451873 0.462824 -0.085307
v -0.451873 0.462022 -0.082504
v -0.453534 0.461777 -0.080121
v -0.456222 0.462183 -0.079068
v -0.458910 0.463083 -0.079748
v -0.460571 0.464135 -0.081900
v -0.460571 0.464936 -0.084703
v -0.458910 0.465181 -0.087085
v -0.501596 0.291658 -0.136067
v -0.499768 0.291045 -0.135605
v -0.498639 0.290330 -0.134142
v -0.498639 0.289785 -0.132236
v -0.499768 0.289619 -0.130616
v -0.501596 0.289894 -0.129900
v -0.503424 0.290507 -0.130362
v -0.504553 0.291222 -0.131825
v -0.504553 0.291767 -0.133731
v -0.503424 0.291933 -0.135351
f 61 62 72
f 61 72 71
f 62 63 73
f 62 73 72
f 63 64 74
f 63 74 73
f 64 65 75
f 64 75 74
f 65 66 76
f 65 76 75
f 66 67 77
f 66 77 76
f 67 68 78
f 67 78 77
f 68 69 79
f 68 79 78
f 69 70 80
f 69 80 79
f 70 61 71
f 70 71 80
v -0.501596 0.290776 -0.132983
v -0.501779 0.292734 -0.134756
v -0.501357 0.294607 -0.136784
v -0.500308 0.296390 -0.139078
v -0.498702 0.298095 -0.141608
v -0.496679 0.299741 -0.144314
v -0.494425 0.301354 -0.147119
v -0.492154 0.302965 -0.149931
v -0.490088 0.304605 -0.152656
v -0.488433 0.306303 -0.155206
v -0.487366 0.308084 -0.157508
v -0.487011 0.309966 -0.159508
v -0.487437 0.311959 -0.161177
v -0.488641 0.314061 -0.162516
v -0.490559 0.316265 -0.163554
v -0.493064 0.318552 -0.164342
v -0.495981 0.320898 -0.164956
v -0.499102 0.323272 -0.165483
v -0.502206 0.325644 -0.166018
v -0.505079 0.327983 -0.166650
v -0.507535 0.330263 -0.167459
v -0.509435 0.332464 -0.168504
v -0.510707 0.334577 -0.169815
v -0.511374 0.336603 -0.171382
v -0.511192 0.334645 -0.169609
v -0.511613 0.332773 -0.167581
v -0.512663 0.330989 -0.165287
v -0.514268 0.329284 -0.162757
v -0.516291 0.327638 -0.160051
v -0.518545 0.326025 -0.157246
v -0.520816 0.324414 -0.154434
v -0.522882 0.322775 -0.151709
v -0.524537 0.321077 -0.149159
v -0.525604 0.319295 -0.146857
v -0.525959 0.317413 -0.144857
v -0.525534 0.315421 -0.143188
v -0.524329 0.313318 -0.141849
v -0.522411 0.311114 -0.140811
v -0.519906 0.308827 -0.140023
v -0.516990 0.306482 -0.139409
v -0.513869 0.304108 -0.138882
v -0.510764 0.301736 -0.138347
v -0.507891 0.299397 -0.137715
v -0.505435 0.297116 -0.136906
v -0.503535 0.294915 -0.135861
v -0.502264 0.292803 -0.134550
f 81 82 83
f 81 83 82
f 81 83 84
f 81 84 83
f 81 84 85
f 81 85 84
f 81 85 86
f 81 86 85
f 81 86 87
f 81 87 86
f 81 87 88
f 81 88 87
f 81 88 89
f 81 89 88
f 81 89 90
f 81 90 89
f 81 90 91
f 81 91 90
f 81 91 92
f 81 92 91
f 81 92 93
f 81 93 92
f 81 93 94
f 81 94 93
f 81 94 95
f 81 95 94
f 81 95 96
f 81 96 95
f 81 96 97
f 81 97 96
f 81 97 98
f 81 98 97
f 81 98 99
f 81 99 98
f 81 99 100
f 81 100 99
f 81 100 101
f 81 101 100
f 81 101 102
f 81 102 101
f 81 102 103
f 81 103 102
f 81 103 104
f 81 104 103
f 81 104 105
f 81 105 104
f 81 105 106
f 81 106 105
f 81 106 107
f 81 107 106
f 81 107 108
f 81 108 107
f 81 108 109
f 81 109 108
f 81 109 110
f 81 110 109
f 81 110 111
f 81 111 110
f 81 111 112
f 81 112 111
f 81 112 113
f 81 113 112
f 81 113 114
f 81 114 113
f 81 114 115
f 81 115 114
f 81 115 116
f 81 116 115
f 81 116 117
f 81 117 116
f 81 117 118
f 81 118 117
f 81 118 119
f 81 119 118
f 81 119 120
f 81 120 119
f 81 120 121
f 81 121 120
f 81 121 122
f 81 122 121
f 81 122 123
f 81 123 122
f 81 123 124
f 81 124 123
f 81 124 125
f 81 125 124
f 81 125 126
f 81 126 125
v -0.501596 0.290776 -0.132983
v -0.499508 0.290438 -0.131616
v -0.497555 0.290077 -0.130044
v -0.495871 0.289668 -0.128058
v -0.494551 0.289195 -0.125512
v -0.493623 0.288654 -0.122367
v -0.493033 0.288053 -0.118704
v -0.492653 0.287415 -0.114719
v -0.492298 0.286773 -0.110695
v -0.491757 0.286164 -0.106957
v -0.490827 0.285623 -0.103814
v -0.489352 0.285177 -0.101508
v -0.487244 0.284843 -0.100171
v -0.484504 0.284620 -0.099805
v -0.481218 0.284493 -0.100275
v -0.477544 0.284434 -0.101341
v -0.473684 0.284407 -0.102692
v -0.469848 0.284377 -0.104004
v -0.466223 0.284309 -0.104995
v -0.462936 0.284182 -0.105467
v -0.460039 0.283986 -0.105339
v -0.457508 0.283726 -0.104653
v -0.455246 0.283419 -0.103553
v -0.453118 0.283088 -0.102247
v -0.455206 0.283426 -0.103614
v -0.457160 0.283787 -0.105187
v -0.458844 0.284196 -0.107173
v -0.460163 0.284669 -0.109718
v -0.461091 0.285210 -0.112863
v -0.461681 0.285811 -0.116526
v -0.462061 0.286449 -0.120512
v -0.462416 0.287091 -0.124535
v -0.462958 0.287700 -0.128273
v -0.463887 0.288242 -0.131417
v -0.465362 0.288687 -0.133723
v -0.467470 0.289021 -0.135059
v -0.470210 0.289244 -0.135426
v -0.473496 0.289372 -0.134955
v -0.477171 0.289431 -0.133890
v -0.481031 0.289457 -0.132539
v -0.484866 0.289488 -0.131226
v -0.488492 0.289555 -0.130236
v -0.491779 0.289683 -0.129763
v -0.494675 0.289878 -0.129891
v -0.497207 0.290138 -0.130577
v -0.499468 0.290445 -0.131678
f 127 128 129
f 127 129 128
f 127 129 130
f 127 130 129
f 127 130 131
f 127 131 130
f 127 131 132
f 127 132 131
f 127 132 133
f 127 133 132
f 127 133 134
f 127 134 133
f 127 134 135
f 127 135 134
f 127 135 136
f 127 136 135
f 127 136 137
f 127 137 136
f 127 137 138
f 127 138 137
f 127 138 139
f 127 139 138
f 127 139 140
f 127 140 139
f 127 140 141
f 127 141 140
f 127 141 142
f 127 142 141
f 127 142 143
f 127 143 142
f 127 143 144
f 127 144 143
f 127 144 145
f 127 145 144
f 127 145 146
f 127 146 145
f 127 146 147
f 127 147 146
f 127 147 148
f 127 148 147
f 127 148 149
f 127 149 148
f 127 149 150
f 127 150 149
f 127 150 151
f 127 151 150
f 127 151 152
f 127 152 151
f 127 152 153
f 127 153 152
f 127 153 154
f 127 154 153
f 127 154 155
f 127 155 154
f 127 155 156
f 127 156 155
f 127 156 157
f 127 157 156
f 127 157 158
f 127 158 157
f 127 158 159
f 127 159 158
f 127 159 160
f 127 160 159
f 127 160 161
f 127 161 160
f 127 161 162
f 127 162 161
f 127 162 163
f 127 163 162
f 127 163 164
f 127 164 163
f 127 164 165
f 127 165 164
f 127 165 166
f 127 166 165
f 127 166 167
f 127 167 166
f 127 167 168
f 127 168 167
f 127 168 169
f 127 169 168
f 127 169 170
f 127 170 169
f 127 170 171
f 127 171 170
f 127 171 172
f 127 172 171
v -0.501596 0.290776 -0.132983
v -0.503505 0.291447 -0.131258
v -0.505896 0.292383 -0.130017
v -0.508732 0.293565 -0.129227
v -0.511936 0.294949 -0.128807
v -0.515394 0.296474 -0.128644
v -0.518975 0.298066 -0.128603
v -0.522532 0.299646 -0.128540
v -0.525924 0.301133 -0.128309
v -0.529017 0.302457 -0.127778
v -0.531704 0.303556 -0.126836
v -0.533906 0.304389 -0.125406
v -0.535583 0.304932 -0.123446
v -0.536735 0.305185 -0.120957
v -0.537402 0.305172 -0.117979
v -0.537663 0.304935 -0.114591
v -0.537626 0.304533 -0.110903
v -0.537422 0.304040 -0.107047
v -0.537196 0.303534 -0.103167
v -0.537091 0.303095 -0.099411
v -0.537242 0.302797 -0.095912
v -0.537759 0.302701 -0.092783
v -0.538723 0.302851 -0.090104
v -0.540168 0.303266 -0.087910
v -0.538259 0.302595 -0.089635
v -0.535868 0.301659 -0.090876
v -0.533032 0.300477 -0.091666
v -0.529828 0.299093 -0.092087
v -0.526370 0.297568 -0.092250
v -0.522789 0.295976 -0.092290
v -0.519232 0.294397 -0.092353
v -0.515840 0.292909 -0.092584
v -0.512747 0.291585 -0.093115
v -0.510060 0.290486 -0.094057
v -0.507858 0.289654 -0.095487
v -0.506181 0.289110 -0.097447
v -0.505029 0.288857 -0.099936
v -0.504362 0.288870 -0.102914
v -0.504101 0.289107 -0.106302
v -0.504138 0.289509 -0.109990
v -0.504342 0.290002 -0.113847
v -0.504568 0.290508 -0.117726
v -0.504673 0.290947 -0.121482
v -0.504522 0.291245 -0.124981
v -0.504005 0.291341 -0.128110
v -0.503041 0.291191 -0.130789
f 173 174 175
f 173 175 174
f 173 175 176
f 173 176 175
f 173 176 177
f 173 177 176
f 173 177 178
f 173 178 177
f 173 178 179
f 173 179 178
f 173 179 180
f 173 180 179
f 173 180 181
f 173 181 180
f 173 181 182
f 173 182 181
f 173 182 183
f 173 183 182
f 173 183 184
f 173 184 183
f 173 184 185
f 173 185 184
f 173 185 186
f 173 186 185
f 173 186 187
f 173 187 186
f 173 187 188
f 173 188 187
f 173 188 189
f 173 189 188
f 173 189 190
f 173 190 189
f 173 190 191
f 173 191 190
f 173 191 192
f 173 192 191
f 173 192 193
f 173 193 192
f 173 193 194
f 173 194 193
f 173 194 195
f 173 195 194
f 173 195 196
f 173 196 195
f 173 196 197
f 173 197 196
f 173 197 198
f 173 198 197
f 173 198 199
f 173 199 198
f 173 199 200
f 173 200 199
f 173 200 201
f 173 201 200
f 173 201 202
f 173 202 201
f 173 202 203
f 173 203 202
f 173 203 204
f 173 204 203
f 173 204 205
f 173 205 204
f 173 205 206
f 173 206 205
f 173 206 207
f 173 207 206
f 173 207 208
f 173 208 207
f 173 208 209
f 173 209 208
f 173 209 210
f 173 210 209
f 173 210 211
f 173 211 210
f 173 211 212
f 173 212 211
f 173 212 213
f 173 213 212
f 173 213 214
f 173 214 213
f 173 214 215
f 173 215 214
f 173 215 216
f 173 216 215
f 173 216 217
f 173 217 216
f 173 217 218
f 173 218 217
