o mesh
v 3.283221 2.600000 -4.423049
v 2.188808 2.600000 -3.949146
v 2.188808 5.200000 -3.949146
v 3.283221 5.200000 -4.423049
f 1 2 3
f 1 3 4
v 3.283221 5.200000 -4.423049
v 2.188808 5.200000 -3.949146
v 2.188808 7.800000 -3.949146
v 3.283221 7.800000 -4.423049
f 5 6 7
f 5 7 8
v 2.188808 2.600000 -3.949146
v 1.094395 2.600000 -3.475244
v 1.094395 5.200000 -3.475244
v 2.188808 5.200000 -3.949146
f 9 10 11
f 9 11 12
v 1.094395 0.900000 -3.475244
v -0.000018 0.900000 -3.001341
v -0.000018 2.600000 -3.001341
v 1.094395 2.600000 -3.475244
f 13 14 15
f 13 15 16
v 1.094395 2.600000 -3.475244
v -0.000018 2.600000 -3.001341
v -0.000018 5.200000 -3.001341
v 1.094395 5.200000 -3.475244
f 17 18 19
f 17 19 20
v 1.094395 5.200000 -3.475244
v -0.000018 5.200000 -3.001341
v -0.000018 7.800000 -3.001341
v 1.094395 7.800000 -3.475244
f 21 22 23
f 21 23 24
v -0.000018 2.600000 -3.001341
v -1.094431 2.600000 -2.527439
v -1.094431 5.200000 -2.527439
v -0.000018 5.200000 -3.001341
f 25 26 27
f 25 27 28
v -1.094431 0.900000 -2.527439
v -2.188844 0.900000 -2.053536
v -2.188844 2.600000 -2.053536
v -1.094431 2.600000 -2.527439
f 29 30 31
f 29 31 32
v -2.188844 5.200000 -2.053536
v -3.283257 5.200000 -1.579634
v -3.283257 7.800000 -1.579634
v -2.188844 7.800000 -2.053536
f 33 34 35
f 33 35 36
v -3.283257 2.600000 -1.579634
v -4.377670 2.600000 -1.105731
v -4.377670 5.200000 -1.105731
v -3.283257 5.200000 -1.579634
f 37 38 39
f 37 39 40
v -4.377670 5.200000 -1.105731
v -5.472084 5.200000 -0.631829
v -5.472084 7.800000 -0.631829
v -4.377670 7.800000 -1.105731
f 41 42 43
f 41 43 44
v -4.514465 0.900000 0.079010
v -3.556847 0.900000 0.789848
v -3.556847 2.600000 0.789848
v -4.514465 2.600000 0.079010
f 45 46 47
f 45 47 48
v -1.641611 3.096306 2.211525
v -0.683992 3.096306 2.922363
v -0.683992 2.600000 2.922363
v -1.641611 2.600000 2.211525
f 49 50 51
f 49 51 52
v -1.162802 2.500000 2.566944
v -1.501371 2.921652 2.315624
v -1.346034 3.050915 2.430931
f 53 54 55
v -1.162802 2.500000 2.566944
v -1.162802 3.096306 2.566944
v -0.979569 3.050915 2.702957
f 56 57 58
v -1.162802 2.500000 2.566944
v -0.979569 3.050915 2.702957
v -0.824232 2.921652 2.818263
f 59 60 61
v 0.273626 2.600000 3.633201
v 1.231244 2.600000 4.344039
v 1.231244 5.200000 4.344039
v 0.273626 5.200000 3.633201
f 62 63 64
f 62 64 65
v 2.325657 5.200000 3.870137
v 2.462452 5.200000 2.685396
v 2.462452 7.800000 2.685396
v 2.325657 7.800000 3.870137
f 66 67 68
f 66 68 69
v 3.009632 0.900000 -2.053567
v 3.146426 0.900000 -3.238308
v 3.146426 2.600000 -3.238308
v 3.009632 2.600000 -2.053567
f 70 71 72
f 70 72 73
v 3.146426 5.200000 -3.238308
v 3.283221 5.200000 -4.423049
v 3.283221 7.800000 -4.423049
v 3.146426 7.800000 -3.238308
f 74 75 76
f 74 76 77
v 2.188808 7.800000 -3.949146
v 1.094395 7.800000 -3.475244
v 1.017788 8.951264 -3.231977
v 2.035592 8.951264 -3.672706
f 78 79 80
f 78 80 81
v -0.000018 7.800000 -3.001341
v -1.094431 7.800000 -2.527439
v -1.017821 8.951264 -2.350518
v -0.000017 8.951264 -2.791247
f 82 83 84
f 82 84 85
v -1.641611 7.800000 2.211525
v -0.683992 7.800000 2.922363
v -0.636113 8.951264 2.717797
v -1.526698 8.951264 2.056718
f 86 87 88
f 86 88 89
v -0.683992 7.800000 2.922363
v 0.273626 7.800000 3.633201
v 0.254472 8.951264 3.378877
v -0.636113 8.951264 2.717797
f 90 91 92
f 90 92 93
v 2.325657 7.800000 3.870137
v 2.462452 7.800000 2.685396
v 2.290080 8.951264 2.497418
v 2.162861 8.951264 3.599227
f 94 95 96
f 94 96 97
v 2.872837 7.800000 -0.868827
v 3.009632 7.800000 -2.053567
v 2.798957 8.951264 -1.909818
v 2.671738 8.951264 -0.808009
f 98 99 100
f 98 100 101
v 3.053396 8.951264 -4.113436
v 2.035592 8.951264 -3.672706
v 1.707270 9.981342 -3.080334
v 2.560913 9.981342 -3.449978
f 102 103 104
f 102 104 105
v 2.035592 8.951264 -3.672706
v 1.017788 8.951264 -3.231977
v 0.853628 9.981342 -2.710690
v 1.707270 9.981342 -3.080334
f 106 107 108
f 106 108 109
v -2.035625 8.951264 -1.909789
v -3.053429 8.951264 -1.469059
v -2.560941 9.981342 -1.232114
v -1.707298 9.981342 -1.601758
f 110 111 112
f 110 112 113
v -4.071233 8.951264 -1.028330
v -5.089038 8.951264 -0.587601
v -4.268225 9.981342 -0.492826
v -3.414583 9.981342 -0.862470
f 114 115 116
f 114 116 117
v -5.089038 8.951264 -0.587601
v -4.198453 8.951264 0.073479
v -3.521283 9.981342 0.061628
v -4.268225 9.981342 -0.492826
f 118 119 120
f 118 120 121
v 2.035642 8.951264 4.701036
v 2.162861 8.951264 3.599227
v 1.814012 9.981342 3.018707
v 1.707312 9.981342 3.942805
f 122 123 124
f 122 124 125
v 2.162861 8.951264 3.599227
v 2.290080 8.951264 2.497418
v 1.920713 9.981342 2.094609
v 1.814012 9.981342 3.018707
f 126 127 128
f 126 128 129
v 2.417300 8.951264 1.395609
v 2.544519 8.951264 0.293800
v 2.134113 9.981342 0.246413
v 2.027413 9.981342 1.170511
f 130 131 132
f 130 132 133
v 2.544519 8.951264 0.293800
v 2.671738 8.951264 -0.808009
v 2.240813 9.981342 -0.677685
v 2.134113 9.981342 0.246413
f 134 135 136
f 134 136 137
v 2.671738 8.951264 -0.808009
v 2.798957 8.951264 -1.909818
v 2.347513 9.981342 -1.601783
v 2.240813 9.981342 -0.677685
f 138 139 140
f 138 140 141
v -0.000014 9.981342 -2.341046
v -0.853656 9.981342 -1.971402
v -0.634770 10.829642 -1.465915
v -0.000010 10.829642 -1.740778
f 142 143 144
f 142 144 145
v -2.560941 9.981342 -1.232114
v -3.414583 9.981342 -0.862470
v -2.539049 10.829642 -0.641324
v -1.904289 10.829642 -0.916188
f 146 147 148
f 146 148 149
v -3.414583 9.981342 -0.862470
v -4.268225 9.981342 -0.492826
v -3.173808 10.829642 -0.366461
v -2.539049 10.829642 -0.641324
f 150 151 152
f 150 152 153
v -1.280456 9.981342 1.724989
v -0.533514 9.981342 2.279443
v -0.396716 10.829642 1.694970
v -0.952134 10.829642 1.282684
f 154 155 156
f 154 156 157
v 0.960370 9.981342 3.388351
v 1.707312 9.981342 3.942805
v 1.269540 10.829642 2.931829
v 0.714121 10.829642 2.519543
f 158 159 160
f 158 160 161
v 1.707312 9.981342 3.942805
v 1.814012 9.981342 3.018707
v 1.348881 10.829642 2.244679
v 1.269540 10.829642 2.931829
f 162 163 164
f 162 164 165
v 2.240813 9.981342 -0.677685
v 2.347513 9.981342 -1.601783
v 1.745586 10.829642 -1.191069
v 1.666245 10.829642 -0.503919
f 166 167 168
f 166 168 169
v 1.904268 10.829642 -2.565368
v 1.269509 10.829642 -2.290505
v 1.269509 11.696163 -2.290505
v 1.904268 11.696163 -2.565368
f 170 171 172
f 170 172 173
v -1.269530 10.829642 -1.191051
v -1.904289 10.829642 -0.916188
v -1.904289 11.696163 -0.916188
v -1.269530 11.696163 -1.191051
f 174 175 176
f 174 176 177
v -2.062971 10.829642 0.458112
v -1.507553 10.829642 0.870398
v -1.507553 11.696163 0.870398
v -2.062971 11.696163 0.458112
f 178 179 180
f 178 180 181
v -1.507553 10.829642 0.870398
v -0.952134 10.829642 1.282684
v -0.952134 11.696163 1.282684
v -1.507553 11.696163 0.870398
f 182 183 184
f 182 184 185
v -0.396716 10.829642 1.694970
v 0.158703 10.829642 2.107257
v 0.158703 11.696163 2.107257
v -0.396716 11.696163 1.694970
f 186 187 188
f 186 188 189
v 1.269540 10.829642 2.931829
v 1.348881 10.829642 2.244679
v 1.348881 11.696163 2.244679
v 1.269540 11.696163 2.931829
f 190 191 192
f 190 192 193
v 1.348881 10.829642 2.244679
v 1.428222 10.829642 1.557530
v 1.428222 11.696163 1.557530
v 1.348881 11.696163 2.244679
f 194 195 196
f 194 196 197
v 1.507563 10.829642 0.870380
v 1.586904 10.829642 0.183230
v 1.586904 11.696163 0.183230
v 1.507563 11.696163 0.870380
f 198 199 200
f 198 200 201
v 1.586904 10.829642 0.183230
v 1.666245 10.829642 -0.503919
v 1.666245 11.696163 -0.503919
v 1.586904 11.696163 0.183230
f 202 203 204
f 202 204 205
v 1.269509 11.696163 -2.290505
v 0.634749 11.696163 -2.015641
v 0.481534 12.605055 -1.529107
v 0.963076 12.605055 -1.737624
f 206 207 208
f 206 208 209
v 0.634749 11.696163 -2.015641
v -0.000010 11.696163 -1.740778
v -0.000008 12.605055 -1.320590
v 0.481534 12.605055 -1.529107
f 210 211 212
f 210 212 213
v -2.618390 11.696163 0.045826
v -2.062971 11.696163 0.458112
v -1.565013 12.605055 0.347533
v -1.986365 12.605055 0.034764
f 214 215 216
f 214 216 217
v -0.952134 11.696163 1.282684
v -0.396716 11.696163 1.694970
v -0.300957 12.605055 1.285840
v -0.722309 12.605055 0.973071
f 218 219 220
f 218 220 221
v -0.396716 11.696163 1.694970
v 0.158703 11.696163 2.107257
v 0.120395 12.605055 1.598608
v -0.300957 12.605055 1.285840
f 222 223 224
f 222 224 225
v 0.158703 11.696163 2.107257
v 0.714121 11.696163 2.519543
v 0.541747 12.605055 1.911377
v 0.120395 12.605055 1.598608
f 226 227 228
f 226 228 229
v 1.824927 11.696163 -1.878219
v 1.904268 11.696163 -2.565368
v 1.444617 12.605055 -1.946142
v 1.384428 12.605055 -1.424856
f 230 231 232
f 230 232 233
v 1.444617 12.605055 -1.946142
v 0.963076 12.605055 -1.737624
v 0.481538 13.271577 -0.868812
v 0.722309 13.271577 -0.973071
f 234 235 236
f 234 236 237
v -1.444633 12.605055 -0.695039
v -1.926175 12.605055 -0.486522
v -0.963087 13.271577 -0.243261
v -0.722317 13.271577 -0.347519
f 238 239 240
f 238 240 241
v -0.722309 12.605055 0.973071
v -0.300957 12.605055 1.285840
v -0.150478 13.271577 0.642920
v -0.361154 13.271577 0.486535
f 242 243 244
f 242 244 245
v 0.541747 12.605055 1.911377
v 0.963099 12.605055 2.224146
v 0.481550 13.271577 1.112073
v 0.270874 13.271577 0.955689
f 246 247 248
f 246 248 249
v 1.023289 12.605055 1.702860
v 1.083479 12.605055 1.181574
v 0.541739 13.271577 0.590787
v 0.511645 13.271577 0.851430
f 250 251 252
f 250 252 253
v 0.722309 13.271577 -0.973071
v 0.481538 13.271577 -0.868812
v 0.000000 13.574541 -0.000000
v 0.000000 13.574541 -0.000000
f 254 255 256
v -0.240775 13.271577 -0.556037
v -0.481546 13.271577 -0.451778
v -0.000000 13.574541 -0.000000
v -0.000000 13.574541 -0.000000
f 258 259 260
v -0.481546 13.271577 -0.451778
v -0.722317 13.271577 -0.347519
v -0.000000 13.574541 -0.000000
v -0.000000 13.574541 -0.000000
f 262 263 264
v -0.722317 13.271577 -0.347519
v -0.963087 13.271577 -0.243261
v -0.000000 13.574541 -0.000000
v -0.000000 13.574541 -0.000000
f 266 267 268
v 0.511645 13.271577 0.851430
v 0.541739 13.271577 0.590787
v 0.000000 13.574541 0.000000
v 0.000000 13.574541 0.000000
f 270 271 272
