o part_0
v 0.000000 0.000000 0.015000
v 0.008817 0.000000 0.012135
v 0.014266 0.000000 0.004635
v 0.014266 0.000000 -0.004635
v 0.008817 0.000000 -0.012135
v 0.000000 0.000000 -0.015000
v -0.008817 0.000000 -0.012135
v -0.014266 0.000000 -0.004635
v -0.014266 0.000000 0.004635
v -0.008817 0.000000 0.012135
v 0.000000 0.400000 0.010200
v 0.005995 0.400000 0.008252
v 0.009701 0.400000 0.003152
v 0.009701 0.400000 -0.003152
v 0.005995 0.400000 -0.008252
v 0.000000 0.400000 -0.010200
v -0.005995 0.400000 -0.008252
v -0.009701 0.400000 -0.003152
v -0.009701 0.400000 0.003152
v -0.005995 0.400000 0.008252
f 1 2 12
f 1 12 11
f 2 3 13
f 2 13 12
f 3 4 14
f 3 14 13
f 4 5 15
f 4 15 14
f 5 6 16
f 5 16 15
f 6 7 17
f 6 17 16
f 7 8 18
f 7 18 17
f 8 9 19
f 8 19 18
f 9 10 20
f 9 20 19
f 10 1 11
f 10 11 20
o part_1
v 0.000605 0.400000 0.010182
v 0.004033 0.404832 0.008027
v 0.005920 0.407818 0.002806
v 0.005546 0.407818 -0.003487
v 0.003053 0.404832 -0.008448
v -0.000605 0.400000 -0.010182
v -0.004033 0.395168 -0.008027
v -0.005920 0.392182 -0.002806
v -0.005546 0.392182 0.003487
v -0.003053 0.395168 0.008448
v -0.238213 0.575594 0.021107
v -0.235882 0.578879 0.019641
v -0.234599 0.580910 0.016091
v -0.234853 0.580910 0.011812
v -0.236548 0.578879 0.008438
v -0.239036 0.575594 0.007259
v -0.241366 0.572308 0.008725
v -0.242650 0.570277 0.012275
v -0.242395 0.570277 0.016554
v -0.240700 0.572308 0.019928
f 21 22 32
f 21 32 31
f 22 23 33
f 22 33 32
f 23 24 34
f 23 34 33
f 24 25 35
f 24 35 34
f 25 26 36
f 25 36 35
f 26 27 37
f 26 37 36
f 27 28 38
f 27 38 37
f 28 29 39
f 28 39 38
f 29 30 40
f 29 40 39
f 30 21 31
f 30 31 40
o part_2
v -0.238867 0.575594 0.021115
v -0.241074 0.578990 0.019712
v -0.242346 0.581089 0.016197
v -0.242196 0.581089 0.011913
v -0.240681 0.578990 0.008496
v -0.238381 0.575594 0.007251
v -0.236174 0.572197 0.008654
v -0.234903 0.570098 0.012169
v -0.235053 0.570098 0.016453
v -0.236567 0.572197 0.019870
v -0.451080 0.434557 0.011455
v -0.452581 0.436866 0.010501
v -0.453446 0.438294 0.008111
v -0.453344 0.438294 0.005198
v -0.452314 0.436866 0.002874
v -0.450750 0.434557 0.002028
v -0.449249 0.432247 0.002982
v -0.448384 0.430820 0.005372
v -0.448486 0.430820 0.008285
v -0.449516 0.432247 0.010609
f 41 42 52
f 41 52 51
f 42 43 53
f 42 53 52
f 43 44 54
f 43 54 53
f 44 45 55
f 44 55 54
f 45 46 56
f 45 56 55
f 46 47 57
f 46 57 56
f 47 48 58
f 47 58 57
f 48 49 59
f 48 59 58
f 49 50 60
f 49 60 59
f 50 41 51
f 50 51 60
o part_3
v -0.450915 0.435138 0.002061
v -0.448187 0.434539 0.002894
v -0.446501 0.433947 0.005197
v -0.446501 0.433587 0.008090
v -0.448187 0.433598 0.010467
v -0.450915 0.433975 0.011422
v -0.453643 0.434574 0.010589
v -0.455329 0.435167 0.008286
v -0.455329 0.435526 0.005393
v -0.453643 0.435515 0.003016
v -0.487961 0.231019 -0.021787
v -0.486106 0.230611 -0.021220
v -0.484959 0.230208 -0.019654
v -0.484959 0.229964 -0.017687
v -0.486106 0.229971 -0.016070
v -0.487961 0.230228 -0.015421
v -0.489816 0.230635 -0.015988
v -0.490963 0.231038 -0.017554
v -0.490963 0.231282 -0.019521
v -0.489816 0.231275 -0.021138
f 61 62 72
f 61 72 71
f 62 63 73
f 62 73 72
f 63 64 74
f 63 74 73
f 64 65 75
f 64 75 74
f 65 66 76
f 65 76 75
f 66 67 77
f 66 77 76
f 67 68 78
f 67 78 77
f 68 69 79
f 68 79 78
f 69 70 80
f 69 80 79
f 70 61 71
f 70 71 80
o part_4
v -0.487961 0.230623 -0.018604
v -0.488315 0.232047 -0.020371
v -0.488301 0.233420 -0.022274
v -0.487763 0.234722 -0.024370
v -0.486662 0.235948 -0.026674
v -0.485056 0.237105 -0.029165
v -0.483089 0.238214 -0.031789
v -0.480970 0.239301 -0.034469
v -0.478946 0.240402 -0.037115
v -0.477266 0.241549 -0.039632
v -0.476154 0.242773 -0.041941
v -0.475776 0.244097 -0.043978
v -0.476221 0.245533 -0.045711
v -0.477490 0.247081 -0.047141
v -0.479492 0.248728 -0.048299
v -0.482062 0.250452 -0.049247
v -0.484977 0.252223 -0.050069
v -0.487986 0.254007 -0.050855
v -0.490843 0.255770 -0.051698
v -0.493340 0.257484 -0.052673
v -0.495331 0.259130 -0.053836
v -0.496759 0.260699 -0.055206
v -0.497663 0.262197 -0.056770
v -0.498200 0.263645 -0.058469
v -0.497846 0.262222 -0.056702
v -0.497860 0.260848 -0.054799
v -0.498397 0.259546 -0.052703
v -0.499498 0.258320 -0.050399
v -0.501105 0.257163 -0.047908
v -0.503072 0.256055 -0.045284
v -0.505191 0.254967 -0.042604
v -0.507215 0.253867 -0.039959
v -0.508895 0.252719 -0.037441
v -0.510007 0.251495 -0.035132
v -0.510384 0.250171 -0.033095
v -0.509939 0.248735 -0.031362
v -0.508671 0.247188 -0.029933
v -0.506669 0.245541 -0.028774
v -0.504099 0.243817 -0.027826
v -0.501184 0.242046 -0.027005
v -0.498175 0.240262 -0.026218
v -0.495318 0.238498 -0.025376
v -0.492821 0.236784 -0.024400
v -0.490830 0.235139 -0.023238
v -0.489402 0.233569 -0.021867
v -0.488498 0.232071 -0.020304
f 81 82 83
f 81 83 82
f 81 83 84
f 81 84 83
f 81 84 85
f 81 85 84
f 81 85 86
f 81 86 85
f 81 86 87
f 81 87 86
f 81 87 88
f 81 88 87
f 81 88 89
f 81 89 88
f 81 89 90
f 81 90 89
f 81 90 91
f 81 91 90
f 81 91 92
f 81 92 91
f 81 92 93
f 81 93 92
f 81 93 94
f 81 94 93
f 81 94 95
f 81 95 94
f 81 95 96
f 81 96 95
f 81 96 97
f 81 97 96
f 81 97 98
f 81 98 97
f 81 98 99
f 81 99 98
f 81 99 100
f 81 100 99
f 81 100 101
f 81 101 100
f 81 101 102
f 81 102 101
f 81 102 103
f 81 103 102
f 81 103 104
f 81 104 103
f 81 104 105
f 81 105 104
f 81 105 106
f 81 106 105
f 81 106 107
f 81 107 106
f 81 107 108
f 81 108 107
f 81 108 109
f 81 109 108
f 81 109 110
f 81 110 109
f 81 110 111
f 81 111 110
f 81 111 112
f 81 112 111
f 81 112 113
f 81 113 112
f 81 113 114
f 81 114 113
f 81 114 115
f 81 115 114
f 81 115 116
f 81 116 115
f 81 116 117
f 81 117 116
f 81 117 118
f 81 118 117
f 81 118 119
f 81 119 118
f 81 119 120
f 81 120 119
f 81 120 121
f 81 121 120
f 81 121 122
f 81 122 121
f 81 122 123
f 81 123 122
f 81 123 124
f 81 124 123
f 81 124 125
f 81 125 124
f 81 125 126
f 81 126 125
o part_5
v -0.487961 0.230623 -0.018604
v -0.488733 0.231660 -0.015862
v -0.490325 0.232865 -0.013280
v -0.492656 0.234223 -0.010843
v -0.495584 0.235703 -0.008522
v -0.498918 0.237268 -0.006281
v -0.502438 0.238870 -0.004076
v -0.505905 0.240462 -0.001861
v -0.509088 0.241995 0.000410
v -0.511774 0.243426 0.002778
v -0.513787 0.244718 0.005278
v -0.515005 0.245846 0.007933
v -0.515361 0.246797 0.010756
v -0.514856 0.247571 0.013748
v -0.513554 0.248180 0.016895
v -0.511581 0.248651 0.020174
v -0.509110 0.249020 0.023550
v -0.506355 0.249330 0.026982
v -0.503548 0.249630 0.030424
v -0.500926 0.249967 0.033830
v -0.498711 0.250388 0.037156
v -0.497092 0.250932 0.040366
v -0.496212 0.251629 0.043431
v -0.496153 0.252494 0.046335
v -0.495381 0.251458 0.043593
v -0.493789 0.250252 0.041011
v -0.491458 0.248895 0.038574
v -0.488530 0.247414 0.036253
v -0.485195 0.245850 0.034012
v -0.481676 0.244247 0.031807
v -0.478209 0.242656 0.029592
v -0.475026 0.241123 0.027321
v -0.472340 0.239692 0.024953
v -0.470326 0.238400 0.022454
v -0.469109 0.237271 0.019799
v -0.468753 0.236320 0.016975
v -0.469258 0.235547 0.013983
v -0.470559 0.234937 0.010836
v -0.472533 0.234466 0.007557
v -0.475003 0.234097 0.004181
v -0.477758 0.233787 0.000749
v -0.480565 0.233488 -0.002693
v -0.483187 0.233150 -0.006098
v -0.485403 0.232729 -0.009425
v -0.487022 0.232185 -0.012634
v -0.487902 0.231489 -0.015699
f 127 128 129
f 127 129 128
f 127 129 130
f 127 130 129
f 127 130 131
f 127 131 130
f 127 131 132
f 127 132 131
f 127 132 133
f 127 133 132
f 127 133 134
f 127 134 133
f 127 134 135
f 127 135 134
f 127 135 136
f 127 136 135
f 127 136 137
f 127 137 136
f 127 137 138
f 127 138 137
f 127 138 139
f 127 139 138
f 127 139 140
f 127 140 139
f 127 140 141
f 127 141 140
f 127 141 142
f 127 142 141
f 127 142 143
f 127 143 142
f 127 143 144
f 127 144 143
f 127 144 145
f 127 145 144
f 127 145 146
f 127 146 145
f 127 146 147
f 127 147 146
f 127 147 148
f 127 148 147
f 127 148 149
f 127 149 148
f 127 149 150
f 127 150 149
f 127 150 151
f 127 151 150
f 127 151 152
f 127 152 151
f 127 152 153
f 127 153 152
f 127 153 154
f 127 154 153
f 127 154 155
f 127 155 154
f 127 155 156
f 127 156 155
f 127 156 157
f 127 157 156
f 127 157 158
f 127 158 157
f 127 158 159
f 127 159 158
f 127 159 160
f 127 160 159
f 127 160 161
f 127 161 160
f 127 161 162
f 127 162 161
f 127 162 163
f 127 163 162
f 127 163 164
f 127 164 163
f 127 164 165
f 127 165 164
f 127 165 166
f 127 166 165
f 127 166 167
f 127 167 166
f 127 167 168
f 127 168 167
f 127 168 169
f 127 169 168
f 127 169 170
f 127 170 169
f 127 170 171
f 127 171 170
f 127 171 172
f 127 172 171
