o mesh
v -0.942658 0.900000 1.228816
v -0.942658 0.900000 -0.000000
v -0.942658 2.600000 -0.000000
v -0.942658 2.600000 1.228816
f 1 2 3
f 1 3 4
v 0.942658 0.900000 -0.000000
v 0.942658 0.900000 -1.228816
v 0.942658 2.600000 -1.228816
v 0.942658 2.600000 -0.000000
f 5 6 7
f 5 7 8
v 0.942658 0.900000 -1.228816
v 0.000000 0.900000 -1.228816
v 0.000000 2.600000 -1.228816
v 0.942658 2.600000 -1.228816
f 9 10 11
f 9 11 12
v 0.000000 0.900000 -1.228816
v -0.942658 0.900000 -1.228816
v -0.942658 2.600000 -1.228816
v 0.000000 2.600000 -1.228816
f 13 14 15
f 13 15 16
v 0.942658 0.900000 1.228816
v 0.000000 0.900000 1.228816
v 0.000000 2.600000 1.228816
v 0.942658 2.600000 1.228816
f 17 18 19
f 17 19 20
v -0.942658 2.600000 -0.000000
v -0.942658 2.600000 -1.228816
v 0.000000 3.600000 -1.228816
v 0.000000 3.600000 -0.000000
f 21 22 23
f 21 23 24
v 0.942658 2.600000 -0.000000
v 0.942658 2.600000 -1.228816
v 0.000000 3.600000 -1.228816
v 0.000000 3.600000 -0.000000
f 25 26 27
f 25 27 28
v -0.942658 2.600000 1.228816
v 0.942658 2.600000 1.228816
v 0.000000 3.600000 1.228816
f 29 30 31
