o mesh
v 0.000000 0.000000 0.020000
v 0.017321 0.000000 0.010000
v 0.017321 0.000000 -0.010000
v 0.000000 0.000000 -0.020000
v -0.017321 0.000000 -0.010000
v -0.017321 0.000000 0.010000
v 0.000000 0.438147 0.018000
v 0.015588 0.438147 0.009000
v 0.015588 0.438147 -0.009000
v 0.000000 0.438147 -0.018000
v -0.015588 0.438147 -0.009000
v -0.015588 0.438147 0.009000
f 1 2 8
f 1 8 7
f 2 3 9
f 2 9 8
f 3 4 10
f 3 10 9
f 4 5 11
f 4 11 10
f 5 6 12
f 5 12 11
f 6 1 7
f 6 7 12
v 0.000000 0.793542 -0.000000
v 0.000000 0.793542 -0.000000
v 0.000000 0.793542 -0.000000
v 0.000000 0.793542 -0.000000
v 0.000000 0.793542 -0.000000
v 0.000000 0.793542 -0.000000
v 0.000000 0.793542 -0.000000
v 0.000000 0.793542 -0.000000
v 0.000000 0.793542 -0.000000
v 0.000000 0.793542 -0.000000
v 0.000000 0.793542 -0.000000
v 0.000000 0.793542 -0.000000
v 0.000000 0.793542 -0.000000
v 0.000000 0.793542 -0.000000
v 0.075558 0.778513 -0.000000
v 0.068075 0.778513 -0.032783
v 0.047109 0.778513 -0.059073
v 0.016813 0.778513 -0.073663
v -0.016813 0.778513 -0.073663
v -0.047109 0.778513 -0.059073
v -0.068075 0.778513 -0.032783
v -0.075558 0.778513 -0.000000
v -0.068075 0.778513 0.032783
v -0.047109 0.778513 0.059073
v -0.016813 0.778513 0.073663
v 0.016813 0.778513 0.073663
v 0.047109 0.778513 0.059073
v 0.068075 0.778513 0.032783
v 0.139612 0.735713 -0.000000
v 0.125787 0.735713 -0.060576
v 0.087047 0.735713 -0.109153
v 0.031067 0.735713 -0.136112
v -0.031067 0.735713 -0.136112
v -0.087047 0.735713 -0.109153
v -0.125787 0.735713 -0.060576
v -0.139612 0.735713 -0.000000
v -0.125787 0.735713 0.060576
v -0.087047 0.735713 0.109153
v -0.031067 0.735713 0.136112
v 0.031067 0.735713 0.136112
v 0.087047 0.735713 0.109153
v 0.125787 0.735713 0.060576
v 0.182413 0.671658 -0.000000
v 0.164348 0.671658 -0.079146
v 0.113732 0.671658 -0.142616
v 0.040591 0.671658 -0.177839
v -0.040591 0.671658 -0.177839
v -0.113732 0.671658 -0.142616
v -0.164348 0.671658 -0.079146
v -0.182413 0.671658 -0.000000
v -0.164348 0.671658 0.079146
v -0.113732 0.671658 0.142616
v -0.040591 0.671658 0.177839
v 0.040591 0.671658 0.177839
v 0.113732 0.671658 0.142616
v 0.164348 0.671658 0.079146
v 0.197442 0.596101 -0.000000
v 0.177889 0.596101 -0.085667
v 0.123103 0.596101 -0.154366
v 0.043935 0.596101 -0.192492
v -0.043935 0.596101 -0.192492
v -0.123103 0.596101 -0.154366
v -0.177889 0.596101 -0.085667
v -0.197442 0.596101 -0.000000
v -0.177889 0.596101 0.085667
v -0.123103 0.596101 0.154366
v -0.043935 0.596101 0.192492
v 0.043935 0.596101 0.192492
v 0.123103 0.596101 0.154366
v 0.177889 0.596101 0.085667
v 0.182413 0.520543 -0.000000
v 0.164348 0.520543 -0.079146
v 0.113732 0.520543 -0.142616
v 0.040591 0.520543 -0.177839
v -0.040591 0.520543 -0.177839
v -0.113732 0.520543 -0.142616
v -0.164348 0.520543 -0.079146
v -0.182413 0.520543 -0.000000
v -0.164348 0.520543 0.079146
v -0.113732 0.520543 0.142616
v -0.040591 0.520543 0.177839
v 0.040591 0.520543 0.177839
v 0.113732 0.520543 0.142616
v 0.164348 0.520543 0.079146
v 0.139612 0.456488 -0.000000
v 0.125787 0.456488 -0.060576
v 0.087047 0.456488 -0.109153
v 0.031067 0.456488 -0.136112
v -0.031067 0.456488 -0.136112
v -0.087047 0.456488 -0.109153
v -0.125787 0.456488 -0.060576
v -0.139612 0.456488 -0.000000
v -0.125787 0.456488 0.060576
v -0.087047 0.456488 0.109153
v -0.031067 0.456488 0.136112
v 0.031067 0.456488 0.136112
v 0.087047 0.456488 0.109153
v 0.125787 0.456488 0.060576
v 0.075558 0.413688 -0.000000
v 0.068075 0.413688 -0.032783
v 0.047109 0.413688 -0.059073
v 0.016813 0.413688 -0.073663
v -0.016813 0.413688 -0.073663
v -0.047109 0.413688 -0.059073
v -0.068075 0.413688 -0.032783
v -0.075558 0.413688 -0.000000
v -0.068075 0.413688 0.032783
v -0.047109 0.413688 0.059073
v -0.016813 0.413688 0.073663
v 0.016813 0.413688 0.073663
v 0.047109 0.413688 0.059073
v 0.068075 0.413688 0.032783
v 0.000000 0.398659 -0.000000
v 0.000000 0.398659 -0.000000
v 0.000000 0.398659 -0.000000
v 0.000000 0.398659 -0.000000
v -0.000000 0.398659 -0.000000
v -0.000000 0.398659 -0.000000
v -0.000000 0.398659 -0.000000
v -0.000000 0.398659 -0.000000
v -0.000000 0.398659 0.000000
v -0.000000 0.398659 0.000000
v -0.000000 0.398659 0.000000
v 0.000000 0.398659 0.000000
v 0.000000 0.398659 0.000000
v 0.000000 0.398659 0.000000
f 13 28 14
f 13 27 28
f 14 29 15
f 14 28 29
f 15 30 16
f 15 29 30
f 16 31 17
f 16 30 31
f 17 32 18
f 17 31 32
f 18 33 19
f 18 32 33
f 19 34 20
f 19 33 34
f 20 35 21
f 20 34 35
f 21 36 22
f 21 35 36
f 22 37 23
f 22 36 37
f 23 38 24
f 23 37 38
f 24 39 25
f 24 38 39
f 25 40 26
f 25 39 40
f 26 27 13
f 26 40 27
f 27 42 28
f 27 41 42
f 28 43 29
f 28 42 43
f 29 44 30
f 29 43 44
f 30 45 31
f 30 44 45
f 31 46 32
f 31 45 46
f 32 47 33
f 32 46 47
f 33 48 34
f 33 47 48
f 34 49 35
f 34 48 49
f 35 50 36
f 35 49 50
f 36 51 37
f 36 50 51
f 37 52 38
f 37 51 52
f 38 53 39
f 38 52 53
f 39 54 40
f 39 53 54
f 40 41 27
f 40 54 41
f 41 56 42
f 41 55 56
f 42 57 43
f 42 56 57
f 43 58 44
f 43 57 58
f 44 59 45
f 44 58 59
f 45 60 46
f 45 59 60
f 46 61 47
f 46 60 61
f 47 62 48
f 47 61 62
f 48 63 49
f 48 62 63
f 49 64 50
f 49 63 64
f 50 65 51
f 50 64 65
f 51 66 52
f 51 65 66
f 52 67 53
f 52 66 67
f 53 68 54
f 53 67 68
f 54 55 41
f 54 68 55
f 55 70 56
f 55 69 70
f 56 71 57
f 56 70 71
f 57 72 58
f 57 71 72
f 58 73 59
f 58 72 73
f 59 74 60
f 59 73 74
f 60 75 61
f 60 74 75
f 61 76 62
f 61 75 76
f 62 77 63
f 62 76 77
f 63 78 64
f 63 77 78
f 64 79 65
f 64 78 79
f 65 80 66
f 65 79 80
f 66 81 67
f 66 80 81
f 67 82 68
f 67 81 82
f 68 69 55
f 68 82 69
f 69 84 70
f 69 83 84
f 70 85 71
f 70 84 85
f 71 86 72
f 71 85 86
f 72 87 73
f 72 86 87
f 73 88 74
f 73 87 88
f 74 89 75
f 74 88 89
f 75 90 76
f 75 89 90
f 76 91 77
f 76 90 91
f 77 92 78
f 77 91 92
f 78 93 79
f 78 92 93
f 79 94 80
f 79 93 94
f 80 95 81
f 80 94 95
f 81 96 82
f 81 95 96
f 82 83 69
f 82 96 83
f 83 98 84
f 83 97 98
f 84 99 85
f 84 98 99
f 85 100 86
f 85 99 100
f 86 101 87
f 86 100 101
f 87 102 88
f 87 101 102
f 88 103 89
f 88 102 103
f 89 104 90
f 89 103 104
f 90 105 91
f 90 104 105
f 91 106 92
f 91 105 106
f 92 107 93
f 92 106 107
f 93 108 94
f 93 107 108
f 94 109 95
f 94 108 109
f 95 110 96
f 95 109 110
f 96 97 83
f 96 110 97
f 97 112 98
f 97 111 112
f 98 113 99
f 98 112 113
f 99 114 100
f 99 113 114
f 100 115 101
f 100 114 115
f 101 116 102
f 101 115 116
f 102 117 103
f 102 116 117
f 103 118 104
f 103 117 118
f 104 119 105
f 104 118 119
f 105 120 106
f 105 119 120
f 106 121 107
f 106 120 121
f 107 122 108
f 107 121 122
f 108 123 109
f 108 122 123
f 109 124 110
f 109 123 124
f 110 111 97
f 110 124 111
f 111 126 112
f 111 125 126
f 112 127 113
f 112 126 127
f 113 128 114
f 113 127 128
f 114 129 115
f 114 128 129
f 115 130 116
f 115 129 130
f 116 131 117
f 116 130 131
f 117 132 118
f 117 131 132
f 118 133 119
f 118 132 133
f 119 134 120
f 119 133 134
f 120 135 121
f 120 134 135
f 121 136 122
f 121 135 136
f 122 137 123
f 122 136 137
f 123 138 124
f 123 137 138
f 124 125 111
f 124 138 125
v 0.000000 0.931752 -0.000000
v 0.000000 0.931752 -0.000000
v 0.000000 0.931752 -0.000000
v 0.000000 0.931752 -0.000000
v 0.000000 0.931752 -0.000000
v 0.000000 0.931752 -0.000000
v 0.000000 0.931752 -0.000000
v 0.000000 0.931752 -0.000000
v 0.000000 0.931752 -0.000000
v 0.000000 0.931752 -0.000000
v 0.000000 0.931752 -0.000000
v 0.000000 0.931752 -0.000000
v 0.000000 0.931752 -0.000000
v 0.000000 0.931752 -0.000000
v 0.045335 0.922734 -0.000000
v 0.040845 0.922734 -0.019670
v 0.028266 0.922734 -0.035444
v 0.010088 0.922734 -0.044198
v -0.010088 0.922734 -0.044198
v -0.028266 0.922734 -0.035444
v -0.040845 0.922734 -0.019670
v -0.045335 0.922734 -0.000000
v -0.040845 0.922734 0.019670
v -0.028266 0.922734 0.035444
v -0.010088 0.922734 0.044198
v 0.010088 0.922734 0.044198
v 0.028266 0.922734 0.035444
v 0.040845 0.922734 0.019670
v 0.083767 0.897054 -0.000000
v 0.075472 0.897054 -0.036345
v 0.052228 0.897054 -0.065492
v 0.018640 0.897054 -0.081667
v -0.018640 0.897054 -0.081667
v -0.052228 0.897054 -0.065492
v -0.075472 0.897054 -0.036345
v -0.083767 0.897054 -0.000000
v -0.075472 0.897054 0.036345
v -0.052228 0.897054 0.065492
v -0.018640 0.897054 0.081667
v 0.018640 0.897054 0.081667
v 0.052228 0.897054 0.065492
v 0.075472 0.897054 0.036345
v 0.109448 0.858621 -0.000000
v 0.098609 0.858621 -0.047487
v 0.068239 0.858621 -0.085570
v 0.024354 0.858621 -0.106703
v -0.024354 0.858621 -0.106703
v -0.068239 0.858621 -0.085570
v -0.098609 0.858621 -0.047487
v -0.109448 0.858621 -0.000000
v -0.098609 0.858621 0.047487
v -0.068239 0.858621 0.085570
v -0.024354 0.858621 0.106703
v 0.024354 0.858621 0.106703
v 0.068239 0.858621 0.085570
v 0.098609 0.858621 0.047487
v 0.118465 0.813287 -0.000000
v 0.106733 0.813287 -0.051400
v 0.073862 0.813287 -0.092620
v 0.026361 0.813287 -0.115495
v -0.026361 0.813287 -0.115495
v -0.073862 0.813287 -0.092620
v -0.106733 0.813287 -0.051400
v -0.118465 0.813287 -0.000000
v -0.106733 0.813287 0.051400
v -0.073862 0.813287 0.092620
v -0.026361 0.813287 0.115495
v 0.026361 0.813287 0.115495
v 0.073862 0.813287 0.092620
v 0.106733 0.813287 0.051400
v 0.109448 0.767952 -0.000000
v 0.098609 0.767952 -0.047487
v 0.068239 0.767952 -0.085570
v 0.024354 0.767952 -0.106703
v -0.024354 0.767952 -0.106703
v -0.068239 0.767952 -0.085570
v -0.098609 0.767952 -0.047487
v -0.109448 0.767952 -0.000000
v -0.098609 0.767952 0.047487
v -0.068239 0.767952 0.085570
v -0.024354 0.767952 0.106703
v 0.024354 0.767952 0.106703
v 0.068239 0.767952 0.085570
v 0.098609 0.767952 0.047487
v 0.083767 0.729519 -0.000000
v 0.075472 0.729519 -0.036345
v 0.052228 0.729519 -0.065492
v 0.018640 0.729519 -0.081667
v -0.018640 0.729519 -0.081667
v -0.052228 0.729519 -0.065492
v -0.075472 0.729519 -0.036345
v -0.083767 0.729519 -0.000000
v -0.075472 0.729519 0.036345
v -0.052228 0.729519 0.065492
v -0.018640 0.729519 0.081667
v 0.018640 0.729519 0.081667
v 0.052228 0.729519 0.065492
v 0.075472 0.729519 0.036345
v 0.045335 0.703839 -0.000000
v 0.040845 0.703839 -0.019670
v 0.028266 0.703839 -0.035444
v 0.010088 0.703839 -0.044198
v -0.010088 0.703839 -0.044198
v -0.028266 0.703839 -0.035444
v -0.040845 0.703839 -0.019670
v -0.045335 0.703839 -0.000000
v -0.040845 0.703839 0.019670
v -0.028266 0.703839 0.035444
v -0.010088 0.703839 0.044198
v 0.010088 0.703839 0.044198
v 0.028266 0.703839 0.035444
v 0.040845 0.703839 0.019670
v 0.000000 0.694821 -0.000000
v 0.000000 0.694821 -0.000000
v 0.000000 0.694821 -0.000000
v 0.000000 0.694821 -0.000000
v -0.000000 0.694821 -0.000000
v -0.000000 0.694821 -0.000000
v -0.000000 0.694821 -0.000000
v -0.000000 0.694821 -0.000000
v -0.000000 0.694821 0.000000
v -0.000000 0.694821 0.000000
v -0.000000 0.694821 0.000000
v 0.000000 0.694821 0.000000
v 0.000000 0.694821 0.000000
v 0.000000 0.694821 0.000000
f 139 154 140
f 139 153 154
f 140 155 141
f 140 154 155
f 141 156 142
f 141 155 156
f 142 157 143
f 142 156 157
f 143 158 144
f 143 157 158
f 144 159 145
f 144 158 159
f 145 160 146
f 145 159 160
f 146 161 147
f 146 160 161
f 147 162 148
f 147 161 162
f 148 163 149
f 148 162 163
f 149 164 150
f 149 163 164
f 150 165 151
f 150 164 165
f 151 166 152
f 151 165 166
f 152 153 139
f 152 166 153
f 153 168 154
f 153 167 168
f 154 169 155
f 154 168 169
f 155 170 156
f 155 169 170
f 156 171 157
f 156 170 171
f 157 172 158
f 157 171 172
f 158 173 159
f 158 172 173
f 159 174 160
f 159 173 174
f 160 175 161
f 160 174 175
f 161 176 162
f 161 175 176
f 162 177 163
f 162 176 177
f 163 178 164
f 163 177 178
f 164 179 165
f 164 178 179
f 165 180 166
f 165 179 180
f 166 167 153
f 166 180 167
f 167 182 168
f 167 181 182
f 168 183 169
f 168 182 183
f 169 184 170
f 169 183 184
f 170 185 171
f 170 184 185
f 171 186 172
f 171 185 186
f 172 187 173
f 172 186 187
f 173 188 174
f 173 187 188
f 174 189 175
f 174 188 189
f 175 190 176
f 175 189 190
f 176 191 177
f 176 190 191
f 177 192 178
f 177 191 192
f 178 193 179
f 178 192 193
f 179 194 180
f 179 193 194
f 180 181 167
f 180 194 181
f 181 196 182
f 181 195 196
f 182 197 183
f 182 196 197
f 183 198 184
f 183 197 198
f 184 199 185
f 184 198 199
f 185 200 186
f 185 199 200
f 186 201 187
f 186 200 201
f 187 202 188
f 187 201 202
f 188 203 189
f 188 202 203
f 189 204 190
f 189 203 204
f 190 205 191
f 190 204 205
f 191 206 192
f 191 205 206
f 192 207 193
f 192 206 207
f 193 208 194
f 193 207 208
f 194 195 181
f 194 208 195
f 195 210 196
f 195 209 210
f 196 211 197
f 196 210 211
f 197 212 198
f 197 211 212
f 198 213 199
f 198 212 213
f 199 214 200
f 199 213 214
f 200 215 201
f 200 214 215
f 201 216 202
f 201 215 216
f 202 217 203
f 202 216 217
f 203 218 204
f 203 217 218
f 204 219 205
f 204 218 219
f 205 220 206
f 205 219 220
f 206 221 207
f 206 220 221
f 207 222 208
f 207 221 222
f 208 209 195
f 208 222 209
f 209 224 210
f 209 223 224
f 210 225 211
f 210 224 225
f 211 226 212
f 211 225 226
f 212 227 213
f 212 226 227
f 213 228 214
f 213 227 228
f 214 229 215
f 214 228 229
f 215 230 216
f 215 229 230
f 216 231 217
f 216 230 231
f 217 232 218
f 217 231 232
f 218 233 219
f 218 232 233
f 219 234 220
f 219 233 234
f 220 235 221
f 220 234 235
f 221 236 222
f 221 235 236
f 222 223 209
f 222 236 223
f 223 238 224
f 223 237 238
f 224 239 225
f 224 238 239
f 225 240 226
f 225 239 240
f 226 241 227
f 226 240 241
f 227 242 228
f 227 241 242
f 228 243 229
f 228 242 243
f 229 244 230
f 229 243 244
f 230 245 231
f 230 244 245
f 231 246 232
f 231 245 246
f 232 247 233
f 232 246 247
f 233 248 234
f 233 247 248
f 234 249 235
f 234 248 249
f 235 250 236
f 235 249 250
f 236 237 223
f 236 250 237
f 237 252 238
f 237 251 252
f 238 253 239
f 238 252 253
f 239 254 240
f 239 253 254
f 240 255 241
f 240 254 255
f 241 256 242
f 241 255 256
f 242 257 243
f 242 256 257
f 243 258 244
f 243 257 258
f 244 259 245
f 244 258 259
f 245 260 246
f 245 259 260
f 246 261 247
f 246 260 261
f 247 262 248
f 247 261 262
f 248 263 249
f 248 262 263
f 249 264 250
f 249 263 264
f 250 251 237
f 250 264 251
