o mesh
v 0.000000 0.000000 0.077502
v 0.054802 0.000000 0.054802
v 0.077502 0.000000 0.000000
v 0.054802 0.000000 -0.054802
v 0.000000 0.000000 -0.077502
v -0.054802 0.000000 -0.054802
v -0.077502 0.000000 -0.000000
v -0.054802 0.000000 0.054802
v 0.000000 1.172858 0.065876
v 0.046582 1.172858 0.046582
v 0.065876 1.172858 0.000000
v 0.046582 1.172858 -0.046582
v 0.000000 1.172858 -0.065876
v -0.046582 1.172858 -0.046582
v -0.065876 1.172858 -0.000000
v -0.046582 1.172858 0.046582
f 1 2 10
f 1 10 9
f 2 3 11
f 2 11 10
f 3 4 12
f 3 12 11
f 4 5 13
f 4 13 12
f 5 6 14
f 5 14 13
f 6 7 15
f 6 15 14
f 7 8 16
f 7 16 15
f 8 1 9
f 8 9 16
v 0.000000 1.218972 -0.000000
v 0.000000 1.218972 -0.000000
v 0.000000 1.218972 -0.000000
v 0.000000 1.218972 -0.000000
v 0.000000 1.218972 -0.000000
v 0.000000 1.218972 -0.000000
v 0.000000 1.218972 -0.000000
v 0.000000 1.218972 -0.000000
v 0.000000 1.218972 -0.000000
v 0.000000 1.218972 -0.000000
v 0.000000 1.218972 -0.000000
v 0.000000 1.218972 -0.000000
v 0.000000 1.218972 -0.000000
v 0.000000 1.218972 -0.000000
v 0.025210 1.215462 -0.000000
v 0.022713 1.215462 -0.010938
v 0.015718 1.215462 -0.019710
v 0.005610 1.215462 -0.024578
v -0.005610 1.215462 -0.024578
v -0.015718 1.215462 -0.019710
v -0.022713 1.215462 -0.010938
v -0.025210 1.215462 -0.000000
v -0.022713 1.215462 0.010938
v -0.015718 1.215462 0.019710
v -0.005610 1.215462 0.024578
v 0.005610 1.215462 0.024578
v 0.015718 1.215462 0.019710
v 0.022713 1.215462 0.010938
v 0.046582 1.205465 -0.000000
v 0.041969 1.205465 -0.020211
v 0.029043 1.205465 -0.036419
v 0.010365 1.205465 -0.045414
v -0.010365 1.205465 -0.045414
v -0.029043 1.205465 -0.036419
v -0.041969 1.205465 -0.020211
v -0.046582 1.205465 -0.000000
v -0.041969 1.205465 0.020211
v -0.029043 1.205465 0.036419
v -0.010365 1.205465 0.045414
v 0.010365 1.205465 0.045414
v 0.029043 1.205465 0.036419
v 0.041969 1.205465 0.020211
v 0.060862 1.190505 -0.000000
v 0.054835 1.190505 -0.026407
v 0.037947 1.190505 -0.047584
v 0.013543 1.190505 -0.059336
v -0.013543 1.190505 -0.059336
v -0.037947 1.190505 -0.047584
v -0.054835 1.190505 -0.026407
v -0.060862 1.190505 -0.000000
v -0.054835 1.190505 0.026407
v -0.037947 1.190505 0.047584
v -0.013543 1.190505 0.059336
v 0.013543 1.190505 0.059336
v 0.037947 1.190505 0.047584
v 0.054835 1.190505 0.026407
v 0.065876 1.172858 -0.000000
v 0.059352 1.172858 -0.028583
v 0.041073 1.172858 -0.051504
v 0.014659 1.172858 -0.064225
v -0.014659 1.172858 -0.064225
v -0.041073 1.172858 -0.051504
v -0.059352 1.172858 -0.028583
v -0.065876 1.172858 -0.000000
v -0.059352 1.172858 0.028583
v -0.041073 1.172858 0.051504
v -0.014659 1.172858 0.064225
v 0.014659 1.172858 0.064225
v 0.041073 1.172858 0.051504
v 0.059352 1.172858 0.028583
v 0.060862 1.155211 -0.000000
v 0.054835 1.155211 -0.026407
v 0.037947 1.155211 -0.047584
v 0.013543 1.155211 -0.059336
v -0.013543 1.155211 -0.059336
v -0.037947 1.155211 -0.047584
v -0.054835 1.155211 -0.026407
v -0.060862 1.155211 -0.000000
v -0.054835 1.155211 0.026407
v -0.037947 1.155211 0.047584
v -0.013543 1.155211 0.059336
v 0.013543 1.155211 0.059336
v 0.037947 1.155211 0.047584
v 0.054835 1.155211 0.026407
v 0.046582 1.140251 -0.000000
v 0.041969 1.140251 -0.020211
v 0.029043 1.140251 -0.036419
v 0.010365 1.140251 -0.045414
v -0.010365 1.140251 -0.045414
v -0.029043 1.140251 -0.036419
v -0.041969 1.140251 -0.020211
v -0.046582 1.140251 -0.000000
v -0.041969 1.140251 0.020211
v -0.029043 1.140251 0.036419
v -0.010365 1.140251 0.045414
v 0.010365 1.140251 0.045414
v 0.029043 1.140251 0.036419
v 0.041969 1.140251 0.020211
v 0.025210 1.130255 -0.000000
v 0.022713 1.130255 -0.010938
v 0.015718 1.130255 -0.019710
v 0.005610 1.130255 -0.024578
v -0.005610 1.130255 -0.024578
v -0.015718 1.130255 -0.019710
v -0.022713 1.130255 -0.010938
v -0.025210 1.130255 -0.000000
v -0.022713 1.130255 0.010938
v -0.015718 1.130255 0.019710
v -0.005610 1.130255 0.024578
v 0.005610 1.130255 0.024578
v 0.015718 1.130255 0.019710
v 0.022713 1.130255 0.010938
v 0.000000 1.126745 -0.000000
v 0.000000 1.126745 -0.000000
v 0.000000 1.126745 -0.000000
v 0.000000 1.126745 -0.000000
v -0.000000 1.126745 -0.000000
v -0.000000 1.126745 -0.000000
v -0.000000 1.126745 -0.000000
v -0.000000 1.126745 -0.000000
v -0.000000 1.126745 0.000000
v -0.000000 1.126745 0.000000
v -0.000000 1.126745 0.000000
v 0.000000 1.126745 0.000000
v 0.000000 1.126745 0.000000
v 0.000000 1.126745 0.000000
f 17 32 18
f 17 31 32
f 18 33 19
f 18 32 33
f 19 34 20
f 19 33 34
f 20 35 21
f 20 34 35
f 21 36 22
f 21 35 36
f 22 37 23
f 22 36 37
f 23 38 24
f 23 37 38
f 24 39 25
f 24 38 39
f 25 40 26
f 25 39 40
f 26 41 27
f 26 40 41
f 27 42 28
f 27 41 42
f 28 43 29
f 28 42 43
f 29 44 30
f 29 43 44
f 30 31 17
f 30 44 31
f 31 46 32
f 31 45 46
f 32 47 33
f 32 46 47
f 33 48 34
f 33 47 48
f 34 49 35
f 34 48 49
f 35 50 36
f 35 49 50
f 36 51 37
f 36 50 51
f 37 52 38
f 37 51 52
f 38 53 39
f 38 52 53
f 39 54 40
f 39 53 54
f 40 55 41
f 40 54 55
f 41 56 42
f 41 55 56
f 42 57 43
f 42 56 57
f 43 58 44
f 43 57 58
f 44 45 31
f 44 58 45
f 45 60 46
f 45 59 60
f 46 61 47
f 46 60 61
f 47 62 48
f 47 61 62
f 48 63 49
f 48 62 63
f 49 64 50
f 49 63 64
f 50 65 51
f 50 64 65
f 51 66 52
f 51 65 66
f 52 67 53
f 52 66 67
f 53 68 54
f 53 67 68
f 54 69 55
f 54 68 69
f 55 70 56
f 55 69 70
f 56 71 57
f 56 70 71
f 57 72 58
f 57 71 72
f 58 59 45
f 58 72 59
f 59 74 60
f 59 73 74
f 60 75 61
f 60 74 75
f 61 76 62
f 61 75 76
f 62 77 63
f 62 76 77
f 63 78 64
f 63 77 78
f 64 79 65
f 64 78 79
f 65 80 66
f 65 79 80
f 66 81 67
f 66 80 81
f 67 82 68
f 67 81 82
f 68 83 69
f 68 82 83
f 69 84 70
f 69 83 84
f 70 85 71
f 70 84 85
f 71 86 72
f 71 85 86
f 72 73 59
f 72 86 73
f 73 88 74
f 73 87 88
f 74 89 75
f 74 88 89
f 75 90 76
f 75 89 90
f 76 91 77
f 76 90 91
f 77 92 78
f 77 91 92
f 78 93 79
f 78 92 93
f 79 94 80
f 79 93 94
f 80 95 81
f 80 94 95
f 81 96 82
f 81 95 96
f 82 97 83
f 82 96 97
f 83 98 84
f 83 97 98
f 84 99 85
f 84 98 99
f 85 100 86
f 85 99 100
f 86 87 73
f 86 100 87
f 87 102 88
f 87 101 102
f 88 103 89
f 88 102 103
f 89 104 90
f 89 103 104
f 90 105 91
f 90 104 105
f 91 106 92
f 91 105 106
f 92 107 93
f 92 106 107
f 93 108 94
f 93 107 108
f 94 109 95
f 94 108 109
f 95 110 96
f 95 109 110
f 96 111 97
f 96 110 111
f 97 112 98
f 97 111 112
f 98 113 99
f 98 112 113
f 99 114 100
f 99 113 114
f 100 101 87
f 100 114 101
f 101 116 102
f 101 115 116
f 102 117 103
f 102 116 117
f 103 118 104
f 103 117 118
f 104 119 105
f 104 118 119
f 105 120 106
f 105 119 120
f 106 121 107
f 106 120 121
f 107 122 108
f 107 121 122
f 108 123 109
f 108 122 123
f 109 124 110
f 109 123 124
f 110 125 111
f 110 124 125
f 111 126 112
f 111 125 126
f 112 127 113
f 112 126 127
f 113 128 114
f 113 127 128
f 114 115 101
f 114 128 115
f 115 130 116
f 115 129 130
f 116 131 117
f 116 130 131
f 117 132 118
f 117 131 132
f 118 133 119
f 118 132 133
f 119 134 120
f 119 133 134
f 120 135 121
f 120 134 135
f 121 136 122
f 121 135 136
f 122 137 123
f 122 136 137
f 123 138 124
f 123 137 138
f 124 139 125
f 124 138 139
f 125 140 126
f 125 139 140
f 126 141 127
f 126 140 141
f 127 142 128
f 127 141 142
f 128 129 115
f 128 142 129
v -0.007364 0.365201 0.049835
v -0.005207 0.400823 0.035239
v -0.000000 0.415577 0.000000
v 0.005207 0.400823 -0.035239
v 0.007364 0.365201 -0.049835
v 0.005207 0.329580 -0.035239
v 0.000000 0.314825 -0.000000
v -0.005207 0.329580 0.035239
v -0.236178 0.365201 0.016022
v -0.234021 0.400823 0.001425
v -0.228813 0.415577 -0.033813
v -0.223606 0.400823 -0.069052
v -0.221449 0.365201 -0.083648
v -0.223606 0.329580 -0.069052
v -0.228813 0.314825 -0.033813
v -0.234021 0.329580 0.001425
f 143 144 152
f 143 152 151
f 144 145 153
f 144 153 152
f 145 146 154
f 145 154 153
f 146 147 155
f 146 155 154
f 147 148 156
f 147 156 155
f 148 149 157
f 148 157 156
f 149 150 158
f 149 158 157
f 150 143 151
f 150 151 158
v -0.228813 0.365201 0.016563
v -0.193192 0.365201 0.001808
v -0.178437 0.365201 -0.033813
v -0.193192 0.365201 -0.069434
v -0.228813 0.365201 -0.084189
v -0.264434 0.365201 -0.069434
v -0.279189 0.365201 -0.033813
v -0.264434 0.365201 0.001808
v -0.228813 0.724310 0.009007
v -0.198535 0.724310 -0.003535
v -0.185994 0.724310 -0.033813
v -0.198535 0.724310 -0.064091
v -0.228813 0.724310 -0.076633
v -0.259091 0.724310 -0.064091
v -0.271633 0.724310 -0.033813
v -0.259091 0.724310 -0.003535
f 159 160 168
f 159 168 167
f 160 161 169
f 160 169 168
f 161 162 170
f 161 170 169
f 162 163 171
f 162 171 170
f 163 164 172
f 163 172 171
f 164 165 173
f 164 173 172
f 165 166 174
f 165 174 173
f 166 159 167
f 166 167 174
v -0.228813 0.754284 -0.033813
v -0.228813 0.754284 -0.033813
v -0.228813 0.754284 -0.033813
v -0.228813 0.754284 -0.033813
v -0.228813 0.754284 -0.033813
v -0.228813 0.754284 -0.033813
v -0.228813 0.754284 -0.033813
v -0.228813 0.754284 -0.033813
v -0.228813 0.754284 -0.033813
v -0.228813 0.754284 -0.033813
v -0.228813 0.754284 -0.033813
v -0.228813 0.754284 -0.033813
v -0.228813 0.754284 -0.033813
v -0.228813 0.754284 -0.033813
v -0.212427 0.752002 -0.033813
v -0.214050 0.752002 -0.040923
v -0.218597 0.752002 -0.046624
v -0.225167 0.752002 -0.049789
v -0.232460 0.752002 -0.049789
v -0.239030 0.752002 -0.046624
v -0.243577 0.752002 -0.040923
v -0.245200 0.752002 -0.033813
v -0.243577 0.752002 -0.026703
v -0.239030 0.752002 -0.021002
v -0.232460 0.752002 -0.017838
v -0.225167 0.752002 -0.017838
v -0.218597 0.752002 -0.021002
v -0.214050 0.752002 -0.026703
v -0.198535 0.745504 -0.033813
v -0.201534 0.745504 -0.046950
v -0.209935 0.745504 -0.057485
v -0.222076 0.745504 -0.063332
v -0.235551 0.745504 -0.063332
v -0.247691 0.745504 -0.057485
v -0.256093 0.745504 -0.046950
v -0.259091 0.745504 -0.033813
v -0.256093 0.745504 -0.020676
v -0.247691 0.745504 -0.010141
v -0.235551 0.745504 -0.004294
v -0.222076 0.745504 -0.004294
v -0.209935 0.745504 -0.010141
v -0.201534 0.745504 -0.020676
v -0.189253 0.735780 -0.033813
v -0.193171 0.735780 -0.050978
v -0.204148 0.735780 -0.064742
v -0.220010 0.735780 -0.072381
v -0.237616 0.735780 -0.072381
v -0.253479 0.735780 -0.064742
v -0.264456 0.735780 -0.050978
v -0.268373 0.735780 -0.033813
v -0.264456 0.735780 -0.016649
v -0.253479 0.735780 -0.002884
v -0.237616 0.735780 0.004755
v -0.220010 0.735780 0.004755
v -0.204148 0.735780 -0.002884
v -0.193171 0.735780 -0.016649
v -0.185994 0.724310 -0.033813
v -0.190234 0.724310 -0.052392
v -0.202116 0.724310 -0.067291
v -0.219285 0.724310 -0.075559
v -0.238341 0.724310 -0.075559
v -0.255511 0.724310 -0.067291
v -0.267392 0.724310 -0.052392
v -0.271633 0.724310 -0.033813
v -0.267392 0.724310 -0.015234
v -0.255511 0.724310 -0.000335
v -0.238341 0.724310 0.007933
v -0.219285 0.724310 0.007933
v -0.202116 0.724310 -0.000335
v -0.190234 0.724310 -0.015234
v -0.189253 0.712839 -0.033813
v -0.193171 0.712839 -0.050978
v -0.204148 0.712839 -0.064742
v -0.220010 0.712839 -0.072381
v -0.237616 0.712839 -0.072381
v -0.253479 0.712839 -0.064742
v -0.264456 0.712839 -0.050978
v -0.268373 0.712839 -0.033813
v -0.264456 0.712839 -0.016649
v -0.253479 0.712839 -0.002884
v -0.237616 0.712839 0.004755
v -0.220010 0.712839 0.004755
v -0.204148 0.712839 -0.002884
v -0.193171 0.712839 -0.016649
v -0.198535 0.703115 -0.033813
v -0.201534 0.703115 -0.046950
v -0.209935 0.703115 -0.057485
v -0.222076 0.703115 -0.063332
v -0.235551 0.703115 -0.063332
v -0.247691 0.703115 -0.057485
v -0.256093 0.703115 -0.046950
v -0.259091 0.703115 -0.033813
v -0.256093 0.703115 -0.020676
v -0.247691 0.703115 -0.010141
v -0.235551 0.703115 -0.004294
v -0.222076 0.703115 -0.004294
v -0.209935 0.703115 -0.010141
v -0.201534 0.703115 -0.020676
v -0.212427 0.696618 -0.033813
v -0.214050 0.696618 -0.040923
v -0.218597 0.696618 -0.046624
v -0.225167 0.696618 -0.049789
v -0.232460 0.696618 -0.049789
v -0.239030 0.696618 -0.046624
v -0.243577 0.696618 -0.040923
v -0.245200 0.696618 -0.033813
v -0.243577 0.696618 -0.026703
v -0.239030 0.696618 -0.021002
v -0.232460 0.696618 -0.017838
v -0.225167 0.696618 -0.017838
v -0.218597 0.696618 -0.021002
v -0.214050 0.696618 -0.026703
v -0.228813 0.694336 -0.033813
v -0.228813 0.694336 -0.033813
v -0.228813 0.694336 -0.033813
v -0.228813 0.694336 -0.033813
v -0.228813 0.694336 -0.033813
v -0.228813 0.694336 -0.033813
v -0.228813 0.694336 -0.033813
v -0.228813 0.694336 -0.033813
v -0.228813 0.694336 -0.033813
v -0.228813 0.694336 -0.033813
v -0.228813 0.694336 -0.033813
v -0.228813 0.694336 -0.033813
v -0.228813 0.694336 -0.033813
v -0.228813 0.694336 -0.033813
f 175 190 176
f 175 189 190
f 176 191 177
f 176 190 191
f 177 192 178
f 177 191 192
f 178 193 179
f 178 192 193
f 179 194 180
f 179 193 194
f 180 195 181
f 180 194 195
f 181 196 182
f 181 195 196
f 182 197 183
f 182 196 197
f 183 198 184
f 183 197 198
f 184 199 185
f 184 198 199
f 185 200 186
f 185 199 200
f 186 201 187
f 186 200 201
f 187 202 188
f 187 201 202
f 188 189 175
f 188 202 189
f 189 204 190
f 189 203 204
f 190 205 191
f 190 204 205
f 191 206 192
f 191 205 206
f 192 207 193
f 192 206 207
f 193 208 194
f 193 207 208
f 194 209 195
f 194 208 209
f 195 210 196
f 195 209 210
f 196 211 197
f 196 210 211
f 197 212 198
f 197 211 212
f 198 213 199
f 198 212 213
f 199 214 200
f 199 213 214
f 200 215 201
f 200 214 215
f 201 216 202
f 201 215 216
f 202 203 189
f 202 216 203
f 203 218 204
f 203 217 218
f 204 219 205
f 204 218 219
f 205 220 206
f 205 219 220
f 206 221 207
f 206 220 221
f 207 222 208
f 207 221 222
f 208 223 209
f 208 222 223
f 209 224 210
f 209 223 224
f 210 225 211
f 210 224 225
f 211 226 212
f 211 225 226
f 212 227 213
f 212 226 227
f 213 228 214
f 213 227 228
f 214 229 215
f 214 228 229
f 215 230 216
f 215 229 230
f 216 217 203
f 216 230 217
f 217 232 218
f 217 231 232
f 218 233 219
f 218 232 233
f 219 234 220
f 219 233 234
f 220 235 221
f 220 234 235
f 221 236 222
f 221 235 236
f 222 237 223
f 222 236 237
f 223 238 224
f 223 237 238
f 224 239 225
f 224 238 239
f 225 240 226
f 225 239 240
f 226 241 227
f 226 240 241
f 227 242 228
f 227 241 242
f 228 243 229
f 228 242 243
f 229 244 230
f 229 243 244
f 230 231 217
f 230 244 231
f 231 246 232
f 231 245 246
f 232 247 233
f 232 246 247
f 233 248 234
f 233 247 248
f 234 249 235
f 234 248 249
f 235 250 236
f 235 249 250
f 236 251 237
f 236 250 251
f 237 252 238
f 237 251 252
f 238 253 239
f 238 252 253
f 239 254 240
f 239 253 254
f 240 255 241
f 240 254 255
f 241 256 242
f 241 255 256
f 242 257 243
f 242 256 257
f 243 258 244
f 243 257 258
f 244 245 231
f 244 258 245
f 245 260 246
f 245 259 260
f 246 261 247
f 246 260 261
f 247 262 248
f 247 261 262
f 248 263 249
f 248 262 263
f 249 264 250
f 249 263 264
f 250 265 251
f 250 264 265
f 251 266 252
f 251 265 266
f 252 267 253
f 252 266 267
f 253 268 254
f 253 267 268
f 254 269 255
f 254 268 269
f 255 270 256
f 255 269 270
f 256 271 257
f 256 270 271
f 257 272 258
f 257 271 272
f 258 259 245
f 258 272 259
f 259 274 260
f 259 273 274
f 260 275 261
f 260 274 275
f 261 276 262
f 261 275 276
f 262 277 263
f 262 276 277
f 263 278 264
f 263 277 278
f 264 279 265
f 264 278 279
f 265 280 266
f 265 279 280
f 266 281 267
f 266 280 281
f 267 282 268
f 267 281 282
f 268 283 269
f 268 282 283
f 269 284 270
f 269 283 284
f 270 285 271
f 270 284 285
f 271 286 272
f 271 285 286
f 272 273 259
f 272 286 273
f 273 288 274
f 273 287 288
f 274 289 275
f 274 288 289
f 275 290 276
f 275 289 290
f 276 291 277
f 276 290 291
f 277 292 278
f 277 291 292
f 278 293 279
f 278 292 293
f 279 294 280
f 279 293 294
f 280 295 281
f 280 294 295
f 281 296 282
f 281 295 296
f 282 297 283
f 282 296 297
f 283 298 284
f 283 297 298
f 284 299 285
f 284 298 299
f 285 300 286
f 285 299 300
f 286 287 273
f 286 300 287
