o mesh
v 2.075197 0.300000 -0.000000
v 1.037598 0.300000 -1.797173
v -1.037598 0.300000 -1.797173
v -2.075197 0.300000 -0.000000
v -1.037598 0.300000 1.797173
v 1.037598 0.300000 1.797173
v 0.000000 0.300000 -0.000000
f 7 1 2
f 7 2 1
f 7 2 3
f 7 3 2
f 7 3 4
f 7 4 3
f 7 4 5
f 7 5 4
f 7 5 6
f 7 6 5
f 7 6 1
f 7 1 6
v -0.636588 0.300000 -1.705894
v -0.575966 0.300000 -1.740894
v -0.575966 0.300000 -1.810894
v -0.636588 0.300000 -1.845894
v -0.697210 0.300000 -1.810894
v -0.697210 0.300000 -1.740894
v -0.636588 2.831196 -1.705894
v -0.575966 2.831196 -1.740894
v -0.575966 2.831196 -1.810894
v -0.636588 2.831196 -1.845894
v -0.697210 2.831196 -1.810894
v -0.697210 2.831196 -1.740894
f 8 9 15
f 8 15 14
f 9 10 16
f 9 16 15
f 10 11 17
f 10 17 16
f 11 12 18
f 11 18 17
f 12 13 19
f 12 19 18
f 13 8 14
f 13 14 19
v -1.856263 0.300000 -0.266646
v -1.795641 0.300000 -0.301646
v -1.795641 0.300000 -0.371646
v -1.856263 0.300000 -0.406646
v -1.916885 0.300000 -0.371646
v -1.916885 0.300000 -0.301646
v -1.856263 2.831196 -0.266646
v -1.795641 2.831196 -0.301646
v -1.795641 2.831196 -0.371646
v -1.856263 2.831196 -0.406646
v -1.916885 2.831196 -0.371646
v -1.916885 2.831196 -0.301646
f 20 21 27
f 20 27 26
f 21 22 28
f 21 28 27
f 22 23 29
f 22 29 28
f 23 24 30
f 23 30 29
f 24 25 31
f 24 31 30
f 25 20 26
f 25 26 31
v -1.219675 0.300000 1.509248
v -1.159053 0.300000 1.474248
v -1.159053 0.300000 1.404248
v -1.219675 0.300000 1.369248
v -1.280297 0.300000 1.404248
v -1.280297 0.300000 1.474248
v -1.219675 1.633522 1.509248
v -1.159053 1.633522 1.474248
v -1.159053 1.633522 1.404248
v -1.219675 1.633522 1.369248
v -1.280297 1.633522 1.404248
v -1.280297 1.633522 1.474248
f 32 33 39
f 32 39 38
f 33 34 40
f 33 40 39
f 34 35 41
f 34 41 40
f 35 36 42
f 35 42 41
f 36 37 43
f 36 43 42
f 37 32 38
f 37 38 43
v 0.636588 0.300000 1.845894
v 0.697210 0.300000 1.810894
v 0.697210 0.300000 1.740894
v 0.636588 0.300000 1.705894
v 0.575966 0.300000 1.740894
v 0.575966 0.300000 1.810894
v 0.636588 2.831196 1.845894
v 0.697210 2.831196 1.810894
v 0.697210 2.831196 1.740894
v 0.636588 2.831196 1.705894
v 0.575966 2.831196 1.740894
v 0.575966 2.831196 1.810894
f 44 45 51
f 44 51 50
f 45 46 52
f 45 52 51
f 46 47 53
f 46 53 52
f 47 48 54
f 47 54 53
f 48 49 55
f 48 55 54
f 49 44 50
f 49 50 55
v 1.856263 0.300000 0.406646
v 1.916885 0.300000 0.371646
v 1.916885 0.300000 0.301646
v 1.856263 0.300000 0.266646
v 1.795641 0.300000 0.301646
v 1.795641 0.300000 0.371646
v 1.856263 2.831196 0.406646
v 1.916885 2.831196 0.371646
v 1.916885 2.831196 0.301646
v 1.856263 2.831196 0.266646
v 1.795641 2.831196 0.301646
v 1.795641 2.831196 0.371646
f 56 57 63
f 56 63 62
f 57 58 64
f 57 64 63
f 58 59 65
f 58 65 64
f 59 60 66
f 59 66 65
f 60 61 67
f 60 67 66
f 61 56 62
f 61 62 67
v 1.219675 0.300000 -1.369248
v 1.280297 0.300000 -1.404248
v 1.280297 0.300000 -1.474248
v 1.219675 0.300000 -1.509248
v 1.159053 0.300000 -1.474248
v 1.159053 0.300000 -1.404248
v 1.219675 2.095158 -1.369248
v 1.280297 2.095158 -1.404248
v 1.280297 2.095158 -1.474248
v 1.219675 2.095158 -1.509248
v 1.159053 2.095158 -1.474248
v 1.159053 2.095158 -1.404248
f 68 69 75
f 68 75 74
f 69 70 76
f 69 76 75
f 70 71 77
f 70 77 76
f 71 72 78
f 71 78 77
f 72 73 79
f 72 79 78
f 73 68 74
f 73 74 79
v -0.583185 2.831196 -1.730638
v -0.609886 2.891818 -1.753266
v -0.663290 2.891818 -1.798522
v -0.689991 2.831196 -1.821150
v -0.663290 2.770574 -1.798522
v -0.609886 2.770574 -1.753266
v -1.802860 2.831196 -0.291390
v -1.829562 2.891818 -0.314018
v -1.882965 2.891818 -0.359274
v -1.909666 2.831196 -0.381901
v -1.882965 2.770574 -0.359274
v -1.829562 2.770574 -0.314018
f 80 81 87
f 80 87 86
f 81 82 88
f 81 88 87
f 82 83 89
f 82 89 88
f 83 84 90
f 83 90 89
f 84 85 91
f 84 91 90
f 85 80 86
f 85 86 91
v -1.800575 0.300000 -0.236546
v -1.710575 0.300000 -0.326546
v -1.800575 0.300000 -0.416546
v -1.890575 0.300000 -0.326546
v -1.800575 1.200000 -0.236546
v -1.710575 1.200000 -0.326546
v -1.800575 1.200000 -0.416546
v -1.890575 1.200000 -0.326546
f 92 93 97
f 92 97 96
f 93 94 98
f 93 98 97
f 94 95 99
f 94 99 98
f 95 92 96
f 95 96 99
v -1.183085 0.300000 1.486071
v -1.093085 0.300000 1.396071
v -1.183085 0.300000 1.306071
v -1.273085 0.300000 1.396071
v -1.183085 1.200000 1.486071
v -1.093085 1.200000 1.396071
v -1.183085 1.200000 1.306071
v -1.273085 1.200000 1.396071
f 100 101 105
f 100 105 104
f 101 102 106
f 101 106 105
f 102 103 107
f 102 107 106
f 103 100 104
f 103 104 107
v -1.338864 1.200000 0.828135
v -1.381225 1.245000 0.843319
v -1.423585 1.200000 0.858504
v -1.381225 1.155000 0.843319
v -1.140724 1.200000 1.380886
v -1.183085 1.245000 1.396071
v -1.225446 1.200000 1.411255
v -1.183085 1.155000 1.396071
f 108 109 113
f 108 113 112
f 109 110 114
f 109 114 113
f 110 111 115
f 110 115 114
f 111 108 112
f 111 112 115
v -1.758215 0.408000 -0.341731
v -1.800575 0.453000 -0.326546
v -1.842936 0.408000 -0.311362
v -1.800575 0.363000 -0.326546
v -1.140724 0.408000 1.380886
v -1.183085 0.453000 1.396071
v -1.225446 0.408000 1.411255
v -1.183085 0.363000 1.396071
f 116 117 121
f 116 121 120
f 117 118 122
f 117 122 121
f 118 119 123
f 118 123 122
f 119 116 120
f 119 120 123
v -1.731842 0.390000 -0.223707
v -1.764345 0.417212 -0.225474
v -1.788323 0.390000 -0.203461
v -1.755821 0.362788 -0.201695
v -1.195337 1.128000 1.272986
v -1.227839 1.155212 1.271219
v -1.251818 1.128000 1.293232
v -1.219315 1.100788 1.294999
f 124 125 129
f 124 129 128
f 125 126 130
f 125 130 129
f 126 127 131
f 126 131 130
f 127 124 128
f 127 128 131
v -1.731842 1.128000 -0.223707
v -1.755821 1.155212 -0.201695
v -1.788323 1.128000 -0.203461
v -1.764345 1.100788 -0.225474
v -1.195337 0.390000 1.272986
v -1.219315 0.417212 1.294999
v -1.251818 0.390000 1.293232
v -1.227839 0.362788 1.271219
f 132 133 137
f 132 137 136
f 133 134 138
f 133 138 137
f 134 135 139
f 134 139 138
f 135 132 136
f 135 136 139
v -1.183085 0.300000 1.486071
v -1.093085 0.300000 1.396071
v -1.183085 0.300000 1.306071
v -1.273085 0.300000 1.396071
v -1.183085 1.200000 1.486071
v -1.093085 1.200000 1.396071
v -1.183085 1.200000 1.306071
v -1.273085 1.200000 1.396071
f 140 141 145
f 140 145 144
f 141 142 146
f 141 146 145
f 142 143 147
f 142 147 146
f 143 140 144
f 143 144 147
v 0.617490 0.300000 1.812617
v 0.707490 0.300000 1.722617
v 0.617490 0.300000 1.632617
v 0.527490 0.300000 1.722617
v 0.617490 0.878561 1.812617
v 0.707490 0.878561 1.722617
v 0.617490 0.878561 1.632617
v 0.527490 0.878561 1.722617
f 148 149 153
f 148 153 152
f 149 150 154
f 149 154 153
f 150 151 155
f 150 155 154
f 151 148 152
f 151 152 155
v -1.175055 1.200000 1.351793
v -1.183085 1.245000 1.396071
v -1.191115 1.200000 1.440349
v -1.183085 1.155000 1.396071
v 0.625520 1.200000 1.678339
v 0.617490 1.245000 1.722617
v 0.609460 1.200000 1.766895
v 0.617490 1.155000 1.722617
f 156 157 161
f 156 161 160
f 157 158 162
f 157 162 161
f 158 159 163
f 158 163 162
f 159 156 160
f 159 160 163
v -1.175055 0.408000 1.351793
v -1.183085 0.453000 1.396071
v -1.191115 0.408000 1.440349
v -1.183085 0.363000 1.396071
v -0.477116 0.408000 1.478369
v -0.485147 0.453000 1.522647
v -0.493177 0.408000 1.566924
v -0.485147 0.363000 1.522647
f 164 165 169
f 164 169 168
f 165 166 170
f 165 170 169
f 166 167 171
f 166 171 170
f 167 164 168
f 167 168 171
v 0.271082 0.408000 1.614060
v 0.263052 0.453000 1.658337
v 0.255022 0.408000 1.702615
v 0.263052 0.363000 1.658337
v 0.625520 0.408000 1.678339
v 0.617490 0.453000 1.722617
v 0.609460 0.408000 1.766895
v 0.617490 0.363000 1.722617
f 172 173 177
f 172 177 176
f 173 174 178
f 173 178 177
f 174 175 179
f 174 179 178
f 175 172 176
f 175 176 179
v 0.583185 2.831196 1.730638
v 0.609886 2.891818 1.753266
v 0.663290 2.891818 1.798522
v 0.689991 2.831196 1.821150
v 0.663290 2.770574 1.798522
v 0.609886 2.770574 1.753266
v 1.802860 2.831196 0.291390
v 1.829562 2.891818 0.314018
v 1.882965 2.891818 0.359274
v 1.909666 2.831196 0.381901
v 1.882965 2.770574 0.359274
v 1.829562 2.770574 0.314018
f 180 181 187
f 180 187 186
f 181 182 188
f 181 188 187
f 182 183 189
f 182 189 188
f 183 184 190
f 183 190 189
f 184 185 191
f 184 191 190
f 185 180 186
f 185 186 191
v 0.617490 0.300000 1.812617
v 0.707490 0.300000 1.722617
v 0.617490 0.300000 1.632617
v 0.527490 0.300000 1.722617
v 0.617490 1.200000 1.812617
v 0.707490 1.200000 1.722617
v 0.617490 1.200000 1.632617
v 0.527490 1.200000 1.722617
f 192 193 197
f 192 197 196
f 193 194 198
f 193 198 197
f 194 195 199
f 194 199 198
f 195 192 196
f 195 196 199
v 1.800575 0.300000 0.416546
v 1.890575 0.300000 0.326546
v 1.800575 0.300000 0.236546
v 1.710575 0.300000 0.326546
v 1.800575 0.838942 0.416546
v 1.890575 0.838942 0.326546
v 1.800575 0.838942 0.236546
v 1.710575 0.838942 0.326546
f 200 201 205
f 200 205 204
f 201 202 206
f 201 206 205
f 202 203 207
f 202 207 206
f 203 200 204
f 203 204 207
v 0.672185 0.390000 1.611673
v 0.686906 0.417212 1.640705
v 0.717959 0.390000 1.650464
v 0.703238 0.362788 1.621433
v 1.700107 1.128000 0.398699
v 1.714828 1.155212 0.427730
v 1.745881 1.128000 0.437490
v 1.731160 1.100788 0.408459
f 208 209 213
f 208 213 212
f 209 210 214
f 209 214 213
f 210 211 215
f 210 215 214
f 211 208 212
f 211 212 215
v 0.672185 1.128000 1.611673
v 0.703238 1.155212 1.621433
v 0.717959 1.128000 1.650464
v 0.686906 1.100788 1.640705
v 1.700107 0.390000 0.398699
v 1.731160 0.417212 0.408459
v 1.745881 0.390000 0.437490
v 1.714828 0.362788 0.427730
f 216 217 221
f 216 221 220
f 217 218 222
f 217 222 221
f 218 219 223
f 218 223 222
f 219 216 220
f 219 220 223
v 1.800575 0.300000 0.416546
v 1.890575 0.300000 0.326546
v 1.800575 0.300000 0.236546
v 1.710575 0.300000 0.326546
v 1.800575 1.200000 0.416546
v 1.890575 1.200000 0.326546
v 1.800575 1.200000 0.236546
v 1.710575 1.200000 0.326546
f 224 225 229
f 224 229 228
f 225 226 230
f 225 230 229
f 226 227 231
f 226 231 230
f 227 224 228
f 227 228 231
v 1.183085 0.300000 -1.306071
v 1.273085 0.300000 -1.396071
v 1.183085 0.300000 -1.486071
v 1.093085 0.300000 -1.396071
v 1.183085 0.996942 -1.306071
v 1.273085 0.996942 -1.396071
v 1.183085 0.996942 -1.486071
v 1.093085 0.996942 -1.396071
f 232 233 237
f 232 237 236
f 233 234 238
f 233 238 237
f 234 235 239
f 234 239 238
f 235 232 236
f 235 236 239
v 1.758215 1.200000 0.341731
v 1.800575 1.245000 0.326546
v 1.842936 1.200000 0.311362
v 1.800575 1.155000 0.326546
v 1.527569 1.200000 -0.301704
v 1.569929 1.245000 -0.316888
v 1.612290 1.200000 -0.332073
v 1.569929 1.155000 -0.316888
f 240 241 245
f 240 245 244
f 241 242 246
f 241 246 245
f 242 243 247
f 242 247 246
f 243 240 244
f 243 244 247
v 1.527569 1.200000 -0.301704
v 1.569929 1.245000 -0.316888
v 1.612290 1.200000 -0.332073
v 1.569929 1.155000 -0.316888
v 1.140724 1.200000 -1.380886
v 1.183085 1.245000 -1.396071
v 1.225446 1.200000 -1.411255
v 1.183085 1.155000 -1.396071
f 248 249 253
f 248 253 252
f 249 250 254
f 249 254 253
f 250 251 255
f 250 255 254
f 251 248 252
f 251 252 255
v 1.758215 0.408000 0.341731
v 1.800575 0.453000 0.326546
v 1.842936 0.408000 0.311362
v 1.800575 0.363000 0.326546
v 1.442068 0.408000 -0.540225
v 1.484429 0.453000 -0.555409
v 1.526790 0.408000 -0.570594
v 1.484429 0.363000 -0.555409
f 256 257 261
f 256 261 260
f 257 258 262
f 257 262 261
f 258 259 263
f 258 263 262
f 259 256 260
f 259 260 263
v 1.183085 0.300000 -1.306071
v 1.273085 0.300000 -1.396071
v 1.183085 0.300000 -1.486071
v 1.093085 0.300000 -1.396071
v 1.183085 1.200000 -1.306071
v 1.273085 1.200000 -1.396071
v 1.183085 1.200000 -1.486071
v 1.093085 1.200000 -1.396071
f 264 265 269
f 264 269 268
f 265 266 270
f 265 270 269
f 266 267 271
f 266 271 270
f 267 264 268
f 267 268 271
v -0.617490 0.300000 -1.632617
v -0.527490 0.300000 -1.722617
v -0.617490 0.300000 -1.812617
v -0.707490 0.300000 -1.722617
v -0.617490 1.200000 -1.632617
v -0.527490 1.200000 -1.722617
v -0.617490 1.200000 -1.812617
v -0.707490 1.200000 -1.722617
f 272 273 277
f 272 277 276
f 273 274 278
f 273 278 277
f 274 275 279
f 274 279 278
f 275 272 276
f 275 276 279
v 1.175055 1.200000 -1.351793
v 1.183085 1.245000 -1.396071
v 1.191115 1.200000 -1.440349
v 1.183085 1.155000 -1.396071
v -0.478085 1.200000 -1.651601
v -0.470055 1.245000 -1.695879
v -0.462025 1.200000 -1.740156
v -0.470055 1.155000 -1.695879
f 280 281 285
f 280 285 284
f 281 282 286
f 281 286 285
f 282 283 287
f 282 287 286
f 283 280 284
f 283 284 287
v -0.478085 1.200000 -1.651601
v -0.470055 1.245000 -1.695879
v -0.462025 1.200000 -1.740156
v -0.470055 1.155000 -1.695879
v -0.625520 1.200000 -1.678339
v -0.617490 1.245000 -1.722617
v -0.609460 1.200000 -1.766895
v -0.617490 1.155000 -1.722617
f 288 289 293
f 288 293 292
f 289 290 294
f 289 294 293
f 290 291 295
f 290 295 294
f 291 288 292
f 291 292 295
v 1.175055 0.408000 -1.351793
v 1.183085 0.453000 -1.396071
v 1.191115 0.408000 -1.440349
v 1.183085 0.363000 -1.396071
v -0.625520 0.408000 -1.678339
v -0.617490 0.453000 -1.722617
v -0.609460 0.408000 -1.766895
v -0.617490 0.363000 -1.722617
f 296 297 301
f 296 301 300
f 297 298 302
f 297 302 301
f 298 299 303
f 298 303 302
f 299 296 300
f 299 300 303
v 1.059658 0.390000 -1.387966
v 1.077439 0.417212 -1.415230
v 1.070364 0.390000 -1.447003
v 1.052583 0.362788 -1.419738
v -0.504770 1.128000 -1.671685
v -0.486988 1.155212 -1.698950
v -0.494063 1.128000 -1.730722
v -0.511844 1.100788 -1.703457
f 304 305 309
f 304 309 308
f 305 306 310
f 305 310 309
f 306 307 311
f 306 311 310
f 307 304 308
f 307 308 311
