o mesh
v 0.000000 0.000000 0.015000
v 0.008817 0.000000 0.012135
v 0.014266 0.000000 0.004635
v 0.014266 0.000000 -0.004635
v 0.008817 0.000000 -0.012135
v 0.000000 0.000000 -0.015000
v -0.008817 0.000000 -0.012135
v -0.014266 0.000000 -0.004635
v -0.014266 0.000000 0.004635
v -0.008817 0.000000 0.012135
v 0.000000 0.400000 0.010200
v 0.005995 0.400000 0.008252
v 0.009701 0.400000 0.003152
v 0.009701 0.400000 -0.003152
v 0.005995 0.400000 -0.008252
v 0.000000 0.400000 -0.010200
v -0.005995 0.400000 -0.008252
v -0.009701 0.400000 -0.003152
v -0.009701 0.400000 0.003152
v -0.005995 0.400000 0.008252
f 1 2 12
f 1 12 11
f 2 3 13
f 2 13 12
f 3 4 14
f 3 14 13
f 4 5 15
f 4 15 14
f 5 6 16
f 5 16 15
f 6 7 17
f 6 17 16
f 7 8 18
f 7 18 17
f 8 9 19
f 8 19 18
f 9 10 20
f 9 20 19
f 10 1 11
f 10 11 20
v -0.000164 0.400000 0.010199
v 0.003299 0.404916 0.008306
v 0.005502 0.407954 0.003241
v 0.005603 0.407954 -0.003062
v 0.003564 0.404916 -0.008196
v 0.000164 0.400000 -0.010199
v -0.003299 0.395084 -0.008306
v -0.005502 0.392046 -0.003241
v -0.005603 0.392046 0.003062
v -0.003564 0.395084 0.008196
v -0.260771 0.581992 0.002753
v -0.258416 0.585335 0.001466
v -0.256919 0.587401 -0.001979
v -0.256850 0.587401 -0.006265
v -0.258236 0.585335 -0.009755
v -0.260549 0.581992 -0.011117
v -0.262903 0.578649 -0.009830
v -0.264401 0.576583 -0.006386
v -0.264470 0.576583 -0.002100
v -0.263083 0.578649 0.001391
f 21 22 32
f 21 32 31
f 22 23 33
f 22 33 32
f 23 24 34
f 23 34 33
f 24 25 35
f 24 35 34
f 25 26 36
f 25 36 35
f 26 27 37
f 26 37 36
f 27 28 38
f 27 38 37
f 28 29 39
f 28 39 38
f 29 30 40
f 29 40 39
f 30 21 31
f 30 31 40
v -0.259972 0.581992 0.002719
v -0.261014 0.585965 0.001492
v -0.261922 0.588420 -0.001903
v -0.262347 0.588420 -0.006168
v -0.262127 0.585965 -0.009675
v -0.261348 0.581992 -0.011084
v -0.260305 0.578020 -0.009857
v -0.259398 0.575564 -0.006462
v -0.258973 0.575564 -0.002196
v -0.259192 0.578020 0.001311
v -0.519762 0.521865 0.026381
v -0.520471 0.524566 0.025547
v -0.521088 0.526236 0.023238
v -0.521377 0.526236 0.020338
v -0.521228 0.524566 0.017953
v -0.520697 0.521865 0.016995
v -0.519988 0.519163 0.017830
v -0.519372 0.517494 0.020138
v -0.519083 0.517494 0.023039
v -0.519232 0.519163 0.025423
f 41 42 52
f 41 52 51
f 42 43 53
f 42 53 52
f 43 44 54
f 43 54 53
f 44 45 55
f 44 55 54
f 45 46 56
f 45 56 55
f 46 47 57
f 46 57 56
f 47 48 58
f 47 58 57
f 48 49 59
f 48 59 58
f 49 50 60
f 49 60 59
f 50 41 51
f 50 51 60
v -0.520681 0.521865 0.026383
v -0.522946 0.523316 0.025260
v -0.524173 0.524214 0.022773
v -0.523894 0.524214 0.019871
v -0.522215 0.523316 0.017664
v -0.519778 0.521865 0.016993
v -0.517513 0.520413 0.018116
v -0.516286 0.519516 0.020604
v -0.516565 0.519516 0.023505
v -0.518244 0.520413 0.025713
v -0.624213 0.352415 0.014903
v -0.625753 0.353402 0.014139
v -0.626588 0.354012 0.012448
v -0.626398 0.354012 0.010475
v -0.625256 0.353402 0.008974
v -0.623599 0.352415 0.008518
v -0.622059 0.351427 0.009281
v -0.621225 0.350817 0.010973
v -0.621414 0.350817 0.012946
v -0.622556 0.351427 0.014447
f 61 62 72
f 61 72 71
f 62 63 73
f 62 73 72
f 63 64 74
f 63 74 73
f 64 65 75
f 64 75 74
f 65 66 76
f 65 76 75
f 66 67 77
f 66 77 76
f 67 68 78
f 67 78 77
f 68 69 79
f 68 79 78
f 69 70 80
f 69 80 79
f 70 61 71
f 70 71 80
v -0.623906 0.352415 0.011710
v -0.624510 0.353678 0.014006
v -0.625301 0.355062 0.016191
v -0.626481 0.356697 0.018143
v -0.628194 0.358678 0.019775
v -0.630490 0.361036 0.021059
v -0.633296 0.363724 0.022037
v -0.636426 0.366622 0.022821
v -0.639605 0.369551 0.023576
v -0.642516 0.372307 0.024492
v -0.644853 0.374692 0.025751
v -0.646376 0.376550 0.027497
v -0.646953 0.377796 0.029809
v -0.646585 0.378430 0.032687
v -0.645403 0.378537 0.036052
v -0.643647 0.378273 0.039761
v -0.641622 0.377835 0.043630
v -0.639647 0.377430 0.047470
v -0.637996 0.377233 0.051116
v -0.636855 0.377367 0.054456
v -0.636296 0.377878 0.057448
v -0.636272 0.378735 0.060120
v -0.636636 0.379842 0.062560
v -0.637186 0.381071 0.064888
v -0.636582 0.379808 0.062592
v -0.635791 0.378424 0.060408
v -0.634612 0.376788 0.058456
v -0.632898 0.374807 0.056823
v -0.630603 0.372450 0.055540
v -0.627797 0.369761 0.054561
v -0.624667 0.366864 0.053777
v -0.621487 0.363934 0.053022
v -0.618577 0.361178 0.052106
v -0.616240 0.358794 0.050847
v -0.614716 0.356936 0.049101
v -0.614139 0.355690 0.046789
v -0.614507 0.355056 0.043911
v -0.615690 0.354949 0.040546
v -0.617446 0.355213 0.036837
v -0.619470 0.355650 0.032968
v -0.621445 0.356056 0.029129
v -0.623097 0.356252 0.025483
v -0.624238 0.356118 0.022142
v -0.624796 0.355607 0.019151
v -0.624820 0.354751 0.016478
v -0.624457 0.353643 0.014038
f 81 82 83
f 81 83 82
f 81 83 84
f 81 84 83
f 81 84 85
f 81 85 84
f 81 85 86
f 81 86 85
f 81 86 87
f 81 87 86
f 81 87 88
f 81 88 87
f 81 88 89
f 81 89 88
f 81 89 90
f 81 90 89
f 81 90 91
f 81 91 90
f 81 91 92
f 81 92 91
f 81 92 93
f 81 93 92
f 81 93 94
f 81 94 93
f 81 94 95
f 81 95 94
f 81 95 96
f 81 96 95
f 81 96 97
f 81 97 96
f 81 97 98
f 81 98 97
f 81 98 99
f 81 99 98
f 81 99 100
f 81 100 99
f 81 100 101
f 81 101 100
f 81 101 102
f 81 102 101
f 81 102 103
f 81 103 102
f 81 103 104
f 81 104 103
f 81 104 105
f 81 105 104
f 81 105 106
f 81 106 105
f 81 106 107
f 81 107 106
f 81 107 108
f 81 108 107
f 81 108 109
f 81 109 108
f 81 109 110
f 81 110 109
f 81 110 111
f 81 111 110
f 81 111 112
f 81 112 111
f 81 112 113
f 81 113 112
f 81 113 114
f 81 114 113
f 81 114 115
f 81 115 114
f 81 115 116
f 81 116 115
f 81 116 117
f 81 117 116
f 81 117 118
f 81 118 117
f 81 118 119
f 81 119 118
f 81 119 120
f 81 120 119
f 81 120 121
f 81 121 120
f 81 121 122
f 81 122 121
f 81 122 123
f 81 123 122
f 81 123 124
f 81 124 123
f 81 124 125
f 81 125 124
f 81 125 126
f 81 126 125
v -0.623906 0.352415 0.011710
v -0.625426 0.353948 0.010676
v -0.626836 0.355430 0.009388
v -0.628046 0.356816 0.007643
v -0.629004 0.358081 0.005316
v -0.629703 0.359224 0.002399
v -0.630191 0.360265 -0.001005
v -0.630557 0.361249 -0.004685
v -0.630926 0.362234 -0.008363
v -0.631430 0.363284 -0.011728
v -0.632197 0.364458 -0.014491
v -0.633323 0.365805 -0.016428
v -0.634862 0.367347 -0.017420
v -0.636814 0.369087 -0.017465
v -0.639125 0.370998 -0.016684
v -0.641698 0.373034 -0.015302
v -0.644408 0.375135 -0.013608
v -0.647119 0.377236 -0.011910
v -0.649710 0.379280 -0.010489
v -0.652088 0.381224 -0.009554
v -0.654209 0.383044 -0.009211
v -0.656077 0.384743 -0.009447
v -0.657745 0.386348 -0.010143
v -0.659302 0.387899 -0.011091
v -0.657782 0.386366 -0.010056
v -0.656372 0.384884 -0.008769
v -0.655162 0.383498 -0.007023
v -0.654205 0.382233 -0.004697
v -0.653506 0.381090 -0.001779
v -0.653018 0.380049 0.001624
v -0.652651 0.379065 0.005305
v -0.652283 0.378080 0.008982
v -0.651779 0.377030 0.012347
v -0.651012 0.375856 0.015110
v -0.649885 0.374509 0.017048
v -0.648346 0.372967 0.018039
v -0.646395 0.371227 0.018084
v -0.644084 0.369316 0.017304
v -0.641510 0.367280 0.015922
v -0.638801 0.365179 0.014227
v -0.636089 0.363078 0.012529
v -0.633499 0.361034 0.011108
v -0.631121 0.359091 0.010174
v -0.629000 0.357270 0.009830
v -0.627132 0.355571 0.010067
v -0.625464 0.353966 0.010763
f 127 128 129
f 127 129 128
f 127 129 130
f 127 130 129
f 127 130 131
f 127 131 130
f 127 131 132
f 127 132 131
f 127 132 133
f 127 133 132
f 127 133 134
f 127 134 133
f 127 134 135
f 127 135 134
f 127 135 136
f 127 136 135
f 127 136 137
f 127 137 136
f 127 137 138
f 127 138 137
f 127 138 139
f 127 139 138
f 127 139 140
f 127 140 139
f 127 140 141
f 127 141 140
f 127 141 142
f 127 142 141
f 127 142 143
f 127 143 142
f 127 143 144
f 127 144 143
f 127 144 145
f 127 145 144
f 127 145 146
f 127 146 145
f 127 146 147
f 127 147 146
f 127 147 148
f 127 148 147
f 127 148 149
f 127 149 148
f 127 149 150
f 127 150 149
f 127 150 151
f 127 151 150
f 127 151 152
f 127 152 151
f 127 152 153
f 127 153 152
f 127 153 154
f 127 154 153
f 127 154 155
f 127 155 154
f 127 155 156
f 127 156 155
f 127 156 157
f 127 157 156
f 127 157 158
f 127 158 157
f 127 158 159
f 127 159 158
f 127 159 160
f 127 160 159
f 127 160 161
f 127 161 160
f 127 161 162
f 127 162 161
f 127 162 163
f 127 163 162
f 127 163 164
f 127 164 163
f 127 164 165
f 127 165 164
f 127 165 166
f 127 166 165
f 127 166 167
f 127 167 166
f 127 167 168
f 127 168 167
f 127 168 169
f 127 169 168
f 127 169 170
f 127 170 169
f 127 170 171
f 127 171 170
f 127 171 172
f 127 172 171
v -0.623906 0.352415 0.011710
v -0.620742 0.352565 0.009560
v -0.617053 0.352358 0.008027
v -0.612775 0.351749 0.007187
v -0.607950 0.350769 0.006990
v -0.602695 0.349495 0.007300
v -0.597183 0.348046 0.007911
v -0.591622 0.346564 0.008580
v -0.586234 0.345200 0.009046
v -0.581231 0.344098 0.009059
v -0.576792 0.343380 0.008408
v -0.573049 0.343136 0.006938
v -0.570072 0.343414 0.004568
v -0.567859 0.344212 0.001298
v -0.566343 0.345485 -0.002792
v -0.565392 0.347143 -0.007545
v -0.564824 0.349062 -0.012751
v -0.564430 0.351099 -0.018160
v -0.563987 0.353102 -0.023512
v -0.563286 0.354931 -0.028562
v -0.562157 0.356467 -0.033106
v -0.560480 0.357630 -0.037006
v -0.558213 0.358393 -0.040213
v -0.555423 0.358797 -0.042803
v -0.558587 0.358647 -0.040653
v -0.562276 0.358854 -0.039120
v -0.566554 0.359462 -0.038280
v -0.571379 0.360443 -0.038083
v -0.576634 0.361717 -0.038393
v -0.582146 0.363166 -0.039004
v -0.587707 0.364648 -0.039673
v -0.593095 0.366012 -0.040139
v -0.598098 0.367114 -0.040152
v -0.602537 0.367832 -0.039501
v -0.606280 0.368076 -0.038031
v -0.609257 0.367798 -0.035661
v -0.611470 0.366999 -0.032391
v -0.612986 0.365727 -0.028301
v -0.613937 0.364069 -0.023547
v -0.614505 0.362150 -0.018342
v -0.614899 0.360113 -0.012932
v -0.615342 0.358109 -0.007581
v -0.616042 0.356281 -0.002531
v -0.617172 0.354745 0.002013
v -0.618849 0.353581 0.005913
v -0.621115 0.352819 0.009120
f 173 174 175
f 173 175 174
f 173 175 176
f 173 176 175
f 173 176 177
f 173 177 176
f 173 177 178
f 173 178 177
f 173 178 179
f 173 179 178
f 173 179 180
f 173 180 179
f 173 180 181
f 173 181 180
f 173 181 182
f 173 182 181
f 173 182 183
f 173 183 182
f 173 183 184
f 173 184 183
f 173 184 185
f 173 185 184
f 173 185 186
f 173 186 185
f 173 186 187
f 173 187 186
f 173 187 188
f 173 188 187
f 173 188 189
f 173 189 188
f 173 189 190
f 173 190 189
f 173 190 191
f 173 191 190
f 173 191 192
f 173 192 191
f 173 192 193
f 173 193 192
f 173 193 194
f 173 194 193
f 173 194 195
f 173 195 194
f 173 195 196
f 173 196 195
f 173 196 197
f 173 197 196
f 173 197 198
f 173 198 197
f 173 198 199
f 173 199 198
f 173 199 200
f 173 200 199
f 173 200 201
f 173 201 200
f 173 201 202
f 173 202 201
f 173 202 203
f 173 203 202
f 173 203 204
f 173 204 203
f 173 204 205
f 173 205 204
f 173 205 206
f 173 206 205
f 173 206 207
f 173 207 206
f 173 207 208
f 173 208 207
f 173 208 209
f 173 209 208
f 173 209 210
f 173 210 209
f 173 210 211
f 173 211 210
f 173 211 212
f 173 212 211
f 173 212 213
f 173 213 212
f 173 213 214
f 173 214 213
f 173 214 215
f 173 215 214
f 173 215 216
f 173 216 215
f 173 216 217
f 173 217 216
f 173 217 218
f 173 218 217
v 0.001871 0.400000 -0.010027
v -0.002888 0.403987 -0.008933
v -0.006544 0.406451 -0.004427
v -0.007700 0.406451 0.001770
v -0.005915 0.403987 0.007291
v -0.001871 0.400000 0.010027
v 0.002888 0.396013 0.008933
v 0.006544 0.393549 0.004427
v 0.007700 0.393549 -0.001770
v 0.005915 0.396013 -0.007291
v 0.214022 0.643048 0.032874
v 0.210786 0.645759 0.033618
v 0.208300 0.647435 0.036682
v 0.207514 0.647435 0.040896
v 0.208727 0.645759 0.044650
v 0.211477 0.643048 0.046511
v 0.214714 0.640337 0.045767
v 0.217199 0.638662 0.042703
v 0.217986 0.638662 0.038489
v 0.216772 0.640337 0.034735
f 219 220 230
f 219 230 229
f 220 221 231
f 220 231 230
f 221 222 232
f 221 232 231
f 222 223 233
f 222 233 232
f 223 224 234
f 223 234 233
f 224 225 235
f 224 235 234
f 225 226 236
f 225 236 235
f 226 227 237
f 226 237 236
f 227 228 238
f 227 238 237
f 228 219 229
f 228 229 238
v 0.213262 0.643048 0.032776
v 0.212797 0.647109 0.034069
v 0.212314 0.649618 0.037511
v 0.211997 0.649618 0.041786
v 0.211968 0.647109 0.045262
v 0.212237 0.643048 0.046610
v 0.212702 0.638988 0.045316
v 0.213185 0.636479 0.041874
v 0.213502 0.636479 0.037599
v 0.213531 0.638988 0.034124
v 0.458518 0.665355 0.053166
v 0.458202 0.668116 0.054045
v 0.457873 0.669822 0.056386
v 0.457658 0.669822 0.059293
v 0.457638 0.668116 0.061656
v 0.457821 0.665355 0.062573
v 0.458137 0.662594 0.061693
v 0.458466 0.660888 0.059353
v 0.458681 0.660888 0.056446
v 0.458701 0.662594 0.054082
f 239 240 250
f 239 250 249
f 240 241 251
f 240 251 250
f 241 242 252
f 241 252 251
f 242 243 253
f 242 253 252
f 243 244 254
f 243 254 253
f 244 245 255
f 244 255 254
f 245 246 256
f 245 256 255
f 246 247 257
f 246 257 256
f 247 248 258
f 247 258 257
f 248 239 249
f 248 249 258
v 0.458591 0.665355 0.053172
v 0.460815 0.666881 0.054276
v 0.462029 0.667824 0.056752
v 0.461769 0.667824 0.059655
v 0.460134 0.666881 0.061876
v 0.457748 0.665355 0.062567
v 0.455523 0.663829 0.061463
v 0.454309 0.662885 0.058986
v 0.454570 0.662885 0.056083
v 0.456205 0.663829 0.053862
v 0.578843 0.482066 0.065473
v 0.580356 0.483104 0.066223
v 0.581181 0.483746 0.067907
v 0.581004 0.483746 0.069882
v 0.579892 0.483104 0.071392
v 0.578270 0.482066 0.071861
v 0.576757 0.481029 0.071111
v 0.575932 0.480387 0.069427
v 0.576109 0.480387 0.067452
v 0.577221 0.481029 0.065942
f 259 260 270
f 259 270 269
f 260 261 271
f 260 271 270
f 261 262 272
f 261 272 271
f 262 263 273
f 262 273 272
f 263 264 274
f 263 274 273
f 264 265 275
f 264 275 274
f 265 266 276
f 265 276 275
f 266 267 277
f 266 277 276
f 267 268 278
f 267 278 277
f 268 259 269
f 268 269 278
v 0.578557 0.482066 0.068667
v 0.578042 0.482772 0.066082
v 0.578212 0.483915 0.063295
v 0.578903 0.485391 0.060356
v 0.579967 0.487106 0.057306
v 0.581251 0.488962 0.054192
v 0.582597 0.490858 0.051060
v 0.583849 0.492692 0.047955
v 0.584858 0.494372 0.044922
v 0.585494 0.495814 0.041998
v 0.585653 0.496950 0.039215
v 0.585261 0.497734 0.036594
v 0.584281 0.498141 0.034146
v 0.582712 0.498172 0.031871
v 0.580591 0.497851 0.029758
v 0.577994 0.497224 0.027786
v 0.575024 0.496360 0.025923
v 0.571811 0.495340 0.024131
v 0.568504 0.494259 0.022368
v 0.565258 0.493218 0.020586
v 0.562233 0.492318 0.018739
v 0.559581 0.491657 0.016783
v 0.557449 0.491328 0.014673
v 0.556003 0.491438 0.012362
v 0.556518 0.490733 0.014947
v 0.556348 0.489589 0.017734
v 0.555657 0.488113 0.020673
v 0.554593 0.486398 0.023723
v 0.553309 0.484542 0.026837
v 0.551963 0.482647 0.029969
v 0.550711 0.480812 0.033074
v 0.549702 0.479132 0.036107
v 0.549066 0.477691 0.039031
v 0.548907 0.476554 0.041814
v 0.549299 0.475770 0.044435
v 0.550279 0.475363 0.046883
v 0.551849 0.475332 0.049158
v 0.553969 0.475653 0.051271
v 0.556566 0.476280 0.053243
v 0.559536 0.477145 0.055106
v 0.562749 0.478165 0.056898
v 0.566057 0.479245 0.058661
v 0.569302 0.480286 0.060443
v 0.572327 0.481186 0.062290
v 0.574979 0.481847 0.064246
v 0.577111 0.482176 0.066356
f 279 280 281
f 279 281 280
f 279 281 282
f 279 282 281
f 279 282 283
f 279 283 282
f 279 283 284
f 279 284 283
f 279 284 285
f 279 285 284
f 279 285 286
f 279 286 285
f 279 286 287
f 279 287 286
f 279 287 288
f 279 288 287
f 279 288 289
f 279 289 288
f 279 289 290
f 279 290 289
f 279 290 291
f 279 291 290
f 279 291 292
f 279 292 291
f 279 292 293
f 279 293 292
f 279 293 294
f 279 294 293
f 279 294 295
f 279 295 294
f 279 295 296
f 279 296 295
f 279 296 297
f 279 297 296
f 279 297 298
f 279 298 297
f 279 298 299
f 279 299 298
f 279 299 300
f 279 300 299
f 279 300 301
f 279 301 300
f 279 301 302
f 279 302 301
f 279 302 303
f 279 303 302
f 279 303 304
f 279 304 303
f 279 304 305
f 279 305 304
f 279 305 306
f 279 306 305
f 279 306 307
f 279 307 306
f 279 307 308
f 279 308 307
f 279 308 309
f 279 309 308
f 279 309 310
f 279 310 309
f 279 310 311
f 279 311 310
f 279 311 312
f 279 312 311
f 279 312 313
f 279 313 312
f 279 313 314
f 279 314 313
f 279 314 315
f 279 315 314
f 279 315 316
f 279 316 315
f 279 316 317
f 279 317 316
f 279 317 318
f 279 318 317
f 279 318 319
f 279 319 318
f 279 319 320
f 279 320 319
f 279 320 321
f 279 321 320
f 279 321 322
f 279 322 321
f 279 322 323
f 279 323 322
f 279 323 324
f 279 324 323
v 0.578557 0.482066 0.068667
v 0.579430 0.484334 0.069628
v 0.580227 0.486562 0.070757
v 0.580845 0.488695 0.072281
v 0.581193 0.490686 0.074402
v 0.581226 0.492511 0.077217
v 0.580965 0.494181 0.080682
v 0.580500 0.495743 0.084598
v 0.579978 0.497276 0.088637
v 0.579581 0.498875 0.092401
v 0.579488 0.500633 0.095495
v 0.579843 0.502628 0.097600
v 0.580725 0.504900 0.098542
v 0.582134 0.507450 0.098320
v 0.583991 0.510236 0.097111
v 0.586152 0.513181 0.095230
v 0.588437 0.516193 0.093075
v 0.590666 0.519175 0.091043
v 0.592691 0.522049 0.089461
v 0.594422 0.524769 0.088530
v 0.595838 0.527322 0.088293
v 0.596984 0.529733 0.088653
v 0.597950 0.532050 0.089408
v 0.598841 0.534327 0.090330
v 0.597968 0.532059 0.089369
v 0.597171 0.529832 0.088240
v 0.596553 0.527699 0.086716
v 0.596205 0.525708 0.084596
v 0.596171 0.523883 0.081780
v 0.596433 0.522213 0.078315
v 0.596898 0.520650 0.074399
v 0.597419 0.519117 0.070360
v 0.597816 0.517519 0.066596
v 0.597909 0.515760 0.063502
v 0.597555 0.513766 0.061397
v 0.596673 0.511493 0.060455
v 0.595263 0.508943 0.060677
v 0.593407 0.506158 0.061886
v 0.591246 0.503212 0.063767
v 0.588961 0.500200 0.065922
v 0.586732 0.497218 0.067954
v 0.584706 0.494344 0.069536
v 0.582976 0.491625 0.070467
v 0.581560 0.489071 0.070704
v 0.580414 0.486660 0.070344
v 0.579447 0.484343 0.069589
f 325 326 327
f 325 327 326
f 325 327 328
f 325 328 327
f 325 328 329
f 325 329 328
f 325 329 330
f 325 330 329
f 325 330 331
f 325 331 330
f 325 331 332
f 325 332 331
f 325 332 333
f 325 333 332
f 325 333 334
f 325 334 333
f 325 334 335
f 325 335 334
f 325 335 336
f 325 336 335
f 325 336 337
f 325 337 336
f 325 337 338
f 325 338 337
f 325 338 339
f 325 339 338
f 325 339 340
f 325 340 339
f 325 340 341
f 325 341 340
f 325 341 342
f 325 342 341
f 325 342 343
f 325 343 342
f 325 343 344
f 325 344 343
f 325 344 345
f 325 345 344
f 325 345 346
f 325 346 345
f 325 346 347
f 325 347 346
f 325 347 348
f 325 348 347
f 325 348 349
f 325 349 348
f 325 349 350
f 325 350 349
f 325 350 351
f 325 351 350
f 325 351 352
f 325 352 351
f 325 352 353
f 325 353 352
f 325 353 354
f 325 354 353
f 325 354 355
f 325 355 354
f 325 355 356
f 325 356 355
f 325 356 357
f 325 357 356
f 325 357 358
f 325 358 357
f 325 358 359
f 325 359 358
f 325 359 360
f 325 360 359
f 325 360 361
f 325 361 360
f 325 361 362
f 325 362 361
f 325 362 363
f 325 363 362
f 325 363 364
f 325 364 363
f 325 364 365
f 325 365 364
f 325 365 366
f 325 366 365
f 325 366 367
f 325 367 366
f 325 367 368
f 325 368 367
f 325 368 369
f 325 369 368
f 325 369 370
f 325 370 369
v 0.578557 0.482066 0.068667
v 0.575844 0.481870 0.070107
v 0.572625 0.481302 0.070883
v 0.568988 0.480427 0.071113
v 0.565035 0.479320 0.070929
v 0.560880 0.478065 0.070482
v 0.556651 0.476756 0.069937
v 0.552475 0.475485 0.069463
v 0.548478 0.474346 0.069221
v 0.544768 0.473418 0.069356
v 0.541438 0.472768 0.069987
v 0.538550 0.472443 0.071197
v 0.536137 0.472466 0.073028
v 0.534200 0.472839 0.075481
v 0.532705 0.473536 0.078513
v 0.531588 0.474511 0.082040
v 0.530761 0.475698 0.085945
v 0.530111 0.477015 0.090082
v 0.529515 0.478372 0.094290
v 0.528844 0.479674 0.098399
v 0.527972 0.480828 0.102246
v 0.526783 0.481750 0.105678
v 0.525177 0.482365 0.108565
v 0.523064 0.482609 0.110788
v 0.525776 0.482805 0.109348
v 0.528996 0.483373 0.108572
v 0.532632 0.484248 0.108342
v 0.536586 0.485355 0.108526
v 0.540740 0.486610 0.108972
v 0.544970 0.487920 0.109518
v 0.549145 0.489190 0.109992
v 0.553143 0.490329 0.110234
v 0.556852 0.491257 0.110098
v 0.560183 0.491907 0.109468
v 0.563071 0.492232 0.108258
v 0.565484 0.492209 0.106427
v 0.567421 0.491836 0.103974
v 0.568916 0.491139 0.100942
v 0.570032 0.490164 0.097415
v 0.570860 0.488977 0.093510
v 0.571510 0.487660 0.089373
v 0.572106 0.486303 0.085165
v 0.572777 0.485001 0.081055
v 0.573649 0.483847 0.077209
v 0.574838 0.482925 0.073777
v 0.576443 0.482310 0.070890
f 371 372 373
f 371 373 372
f 371 373 374
f 371 374 373
f 371 374 375
f 371 375 374
f 371 375 376
f 371 376 375
f 371 376 377
f 371 377 376
f 371 377 378
f 371 378 377
f 371 378 379
f 371 379 378
f 371 379 380
f 371 380 379
f 371 380 381
f 371 381 380
f 371 381 382
f 371 382 381
f 371 382 383
f 371 383 382
f 371 383 384
f 371 384 383
f 371 384 385
f 371 385 384
f 371 385 386
f 371 386 385
f 371 386 387
f 371 387 386
f 371 387 388
f 371 388 387
f 371 388 389
f 371 389 388
f 371 389 390
f 371 390 389
f 371 390 391
f 371 391 390
f 371 391 392
f 371 392 391
f 371 392 393
f 371 393 392
f 371 393 394
f 371 394 393
f 371 394 395
f 371 395 394
f 371 395 396
f 371 396 395
f 371 396 397
f 371 397 396
f 371 397 398
f 371 398 397
f 371 398 399
f 371 399 398
f 371 399 400
f 371 400 399
f 371 400 401
f 371 401 400
f 371 401 402
f 371 402 401
f 371 402 403
f 371 403 402
f 371 403 404
f 371 404 403
f 371 404 405
f 371 405 404
f 371 405 406
f 371 406 405
f 371 406 407
f 371 407 406
f 371 407 408
f 371 408 407
f 371 408 409
f 371 409 408
f 371 409 410
f 371 410 409
f 371 410 411
f 371 411 410
f 371 411 412
f 371 412 411
f 371 412 413
f 371 413 412
f 371 413 414
f 371 414 413
f 371 414 415
f 371 415 414
f 371 415 416
f 371 416 415
