o mesh
v 0.000000 0.000000 0.015000
v 0.008817 0.000000 0.012135
v 0.014266 0.000000 0.004635
v 0.014266 0.000000 -0.004635
v 0.008817 0.000000 -0.012135
v 0.000000 0.000000 -0.015000
v -0.008817 0.000000 -0.012135
v -0.014266 0.000000 -0.004635
v -0.014266 0.000000 0.004635
v -0.008817 0.000000 0.012135
v 0.000000 0.400000 0.010200
v 0.005995 0.400000 0.008252
v 0.009701 0.400000 0.003152
v 0.009701 0.400000 -0.003152
v 0.005995 0.400000 -0.008252
v 0.000000 0.400000 -0.010200
v -0.005995 0.400000 -0.008252
v -0.009701 0.400000 -0.003152
v -0.009701 0.400000 0.003152
v -0.005995 0.400000 0.008252
f 1 2 12
f 1 12 11
f 2 3 13
f 2 13 12
f 3 4 14
f 3 14 13
f 4 5 15
f 4 15 14
f 5 6 16
f 5 16 15
f 6 7 17
f 6 17 16
f 7 8 18
f 7 18 17
f 8 9 19
f 8 19 18
f 9 10 20
f 9 20 19
f 10 1 11
f 10 11 20
v 0.002036 0.400000 0.009995
v 0.005174 0.404795 0.007367
v 0.006336 0.407758 0.001926
v 0.005078 0.407758 -0.004251
v 0.001880 0.404795 -0.008804
v -0.002036 0.400000 -0.009995
v -0.005174 0.395205 -0.007367
v -0.006336 0.392242 -0.001926
v -0.005078 0.392242 0.004251
v -0.001880 0.395205 0.008804
v -0.264998 0.604086 0.061057
v -0.262864 0.607346 0.059271
v -0.262074 0.609361 0.055571
v -0.262930 0.609361 0.051370
v -0.265104 0.607346 0.048274
v -0.267767 0.604086 0.047465
v -0.269901 0.600825 0.049251
v -0.270691 0.598810 0.052951
v -0.269835 0.598810 0.057152
v -0.267661 0.600825 0.060248
f 21 22 32
f 21 32 31
f 22 23 33
f 22 33 32
f 23 24 34
f 23 34 33
f 24 25 35
f 24 35 34
f 25 26 36
f 25 36 35
f 26 27 37
f 26 37 36
f 27 28 38
f 27 38 37
f 28 29 39
f 28 39 38
f 29 30 40
f 29 40 39
f 30 21 31
f 30 31 40
v -0.267040 0.604086 0.061166
v -0.268956 0.607609 0.059653
v -0.269889 0.609787 0.056080
v -0.269483 0.609787 0.051813
v -0.267893 0.607609 0.048481
v -0.265726 0.604086 0.047356
v -0.263809 0.600562 0.048869
v -0.262876 0.598385 0.052442
v -0.263282 0.598385 0.056709
v -0.264872 0.600562 0.060041
v -0.489284 0.474014 0.037788
v -0.490587 0.476410 0.036760
v -0.491222 0.477890 0.034330
v -0.490946 0.477890 0.031428
v -0.489865 0.476410 0.029162
v -0.488391 0.474014 0.028398
v -0.487088 0.471618 0.029427
v -0.486453 0.470137 0.031856
v -0.486729 0.470137 0.034758
v -0.487811 0.471618 0.037024
f 41 42 52
f 41 52 51
f 42 43 53
f 42 53 52
f 43 44 54
f 43 54 53
f 44 45 55
f 44 55 54
f 45 46 56
f 45 56 55
f 46 47 57
f 46 57 56
f 47 48 58
f 47 58 57
f 48 49 59
f 48 59 58
f 49 50 60
f 49 60 59
f 50 41 51
f 50 51 60
v -0.488838 0.475111 0.028506
v -0.486115 0.475410 0.029504
v -0.484433 0.475176 0.031872
v -0.484433 0.474497 0.034707
v -0.486115 0.473634 0.036926
v -0.488838 0.472916 0.037680
v -0.491560 0.472617 0.036682
v -0.493243 0.472852 0.034314
v -0.493243 0.473530 0.031479
v -0.491560 0.474393 0.029260
v -0.453271 0.294648 -0.013117
v -0.451420 0.294852 -0.012439
v -0.450276 0.294692 -0.010828
v -0.450276 0.294231 -0.008900
v -0.451420 0.293644 -0.007392
v -0.453271 0.293156 -0.006879
v -0.455123 0.292953 -0.007557
v -0.456267 0.293112 -0.009168
v -0.456267 0.293573 -0.011096
v -0.455123 0.294160 -0.012604
f 61 62 72
f 61 72 71
f 62 63 73
f 62 73 72
f 63 64 74
f 63 74 73
f 64 65 75
f 64 75 74
f 65 66 76
f 65 76 75
f 66 67 77
f 66 77 76
f 67 68 78
f 67 78 77
f 68 69 79
f 68 79 78
f 69 70 80
f 69 80 79
f 70 61 71
f 70 71 80
v -0.453271 0.293902 -0.009998
v -0.452584 0.296191 -0.012209
v -0.451053 0.298594 -0.014201
v -0.448718 0.301105 -0.015984
v -0.445712 0.303708 -0.017594
v -0.442230 0.306375 -0.019079
v -0.438511 0.309074 -0.020504
v -0.434820 0.311769 -0.021936
v -0.431420 0.314425 -0.023443
v -0.428553 0.317009 -0.025088
v -0.426422 0.319493 -0.026925
v -0.425170 0.321858 -0.028989
v -0.424873 0.324094 -0.031301
v -0.425531 0.326200 -0.033861
v -0.427068 0.328188 -0.036649
v -0.429341 0.330076 -0.039628
v -0.432147 0.331891 -0.042745
v -0.435244 0.333667 -0.045938
v -0.438368 0.335440 -0.049137
v -0.441256 0.337244 -0.052276
v -0.443668 0.339113 -0.055290
v -0.445408 0.341073 -0.058131
v -0.446346 0.343142 -0.060763
v -0.446439 0.345325 -0.063177
v -0.447126 0.343036 -0.060966
v -0.448658 0.340633 -0.058974
v -0.450992 0.338122 -0.057190
v -0.453998 0.335519 -0.055581
v -0.457481 0.332852 -0.054095
v -0.461199 0.330153 -0.052671
v -0.464890 0.327458 -0.051239
v -0.468290 0.324802 -0.049732
v -0.471157 0.322218 -0.048086
v -0.473288 0.319734 -0.046250
v -0.474540 0.317369 -0.044186
v -0.474837 0.315133 -0.041873
v -0.474180 0.313026 -0.039314
v -0.472642 0.311039 -0.036526
v -0.470369 0.309151 -0.033547
v -0.467563 0.307336 -0.030430
v -0.464466 0.305559 -0.027237
v -0.461342 0.303787 -0.024038
v -0.458454 0.301982 -0.020899
v -0.456042 0.300113 -0.017884
v -0.454302 0.298154 -0.015044
v -0.453365 0.296085 -0.012411
f 81 82 83
f 81 83 82
f 81 83 84
f 81 84 83
f 81 84 85
f 81 85 84
f 81 85 86
f 81 86 85
f 81 86 87
f 81 87 86
f 81 87 88
f 81 88 87
f 81 88 89
f 81 89 88
f 81 89 90
f 81 90 89
f 81 90 91
f 81 91 90
f 81 91 92
f 81 92 91
f 81 92 93
f 81 93 92
f 81 93 94
f 81 94 93
f 81 94 95
f 81 95 94
f 81 95 96
f 81 96 95
f 81 96 97
f 81 97 96
f 81 97 98
f 81 98 97
f 81 98 99
f 81 99 98
f 81 99 100
f 81 100 99
f 81 100 101
f 81 101 100
f 81 101 102
f 81 102 101
f 81 102 103
f 81 103 102
f 81 103 104
f 81 104 103
f 81 104 105
f 81 105 104
f 81 105 106
f 81 106 105
f 81 106 107
f 81 107 106
f 81 107 108
f 81 108 107
f 81 108 109
f 81 109 108
f 81 109 110
f 81 110 109
f 81 110 111
f 81 111 110
f 81 111 112
f 81 112 111
f 81 112 113
f 81 113 112
f 81 113 114
f 81 114 113
f 81 114 115
f 81 115 114
f 81 115 116
f 81 116 115
f 81 116 117
f 81 117 116
f 81 117 118
f 81 118 117
f 81 118 119
f 81 119 118
f 81 119 120
f 81 120 119
f 81 120 121
f 81 121 120
f 81 121 122
f 81 122 121
f 81 122 123
f 81 123 122
f 81 123 124
f 81 124 123
f 81 124 125
f 81 125 124
f 81 125 126
f 81 126 125
v -0.453271 0.293902 -0.009998
v -0.449837 0.295183 -0.008813
v -0.446480 0.296367 -0.007283
v -0.443280 0.297351 -0.005048
v -0.440295 0.298062 -0.001851
v -0.437541 0.298479 0.002386
v -0.434990 0.298639 0.007531
v -0.432566 0.298637 0.013245
v -0.430159 0.298614 0.019037
v -0.427644 0.298728 0.024342
v -0.424899 0.299134 0.028618
v -0.421830 0.299951 0.031440
v -0.418385 0.301247 0.032575
v -0.414563 0.303020 0.032023
v -0.410418 0.305205 0.030017
v -0.406043 0.307682 0.026982
v -0.401560 0.310297 0.023460
v -0.397094 0.312889 0.020016
v -0.392755 0.315321 0.017142
v -0.388618 0.317495 0.015174
v -0.384713 0.319375 0.014248
v -0.381023 0.320982 0.014283
v -0.377490 0.322389 0.015023
v -0.374034 0.323699 0.016108
v -0.377467 0.322417 0.014923
v -0.380825 0.321234 0.013393
v -0.384025 0.320250 0.011159
v -0.387010 0.319538 0.007962
v -0.389763 0.319121 0.003724
v -0.392315 0.318962 -0.001420
v -0.394739 0.318963 -0.007134
v -0.397146 0.318987 -0.012926
v -0.399661 0.318873 -0.018231
v -0.402406 0.318467 -0.022507
v -0.405475 0.317649 -0.025329
v -0.408920 0.316354 -0.026464
v -0.412741 0.314580 -0.025912
v -0.416887 0.312395 -0.023906
v -0.421262 0.309918 -0.020871
v -0.425745 0.307304 -0.017350
v -0.430211 0.304711 -0.013906
v -0.434550 0.302280 -0.011031
v -0.438687 0.300106 -0.009064
v -0.442592 0.298226 -0.008137
v -0.446282 0.296619 -0.008173
v -0.449815 0.295212 -0.008913
f 127 128 129
f 127 129 128
f 127 129 130
f 127 130 129
f 127 130 131
f 127 131 130
f 127 131 132
f 127 132 131
f 127 132 133
f 127 133 132
f 127 133 134
f 127 134 133
f 127 134 135
f 127 135 134
f 127 135 136
f 127 136 135
f 127 136 137
f 127 137 136
f 127 137 138
f 127 138 137
f 127 138 139
f 127 139 138
f 127 139 140
f 127 140 139
f 127 140 141
f 127 141 140
f 127 141 142
f 127 142 141
f 127 142 143
f 127 143 142
f 127 143 144
f 127 144 143
f 127 144 145
f 127 145 144
f 127 145 146
f 127 146 145
f 127 146 147
f 127 147 146
f 127 147 148
f 127 148 147
f 127 148 149
f 127 149 148
f 127 149 150
f 127 150 149
f 127 150 151
f 127 151 150
f 127 151 152
f 127 152 151
f 127 152 153
f 127 153 152
f 127 153 154
f 127 154 153
f 127 154 155
f 127 155 154
f 127 155 156
f 127 156 155
f 127 156 157
f 127 157 156
f 127 157 158
f 127 158 157
f 127 158 159
f 127 159 158
f 127 159 160
f 127 160 159
f 127 160 161
f 127 161 160
f 127 161 162
f 127 162 161
f 127 162 163
f 127 163 162
f 127 163 164
f 127 164 163
f 127 164 165
f 127 165 164
f 127 165 166
f 127 166 165
f 127 166 167
f 127 167 166
f 127 167 168
f 127 168 167
f 127 168 169
f 127 169 168
f 127 169 170
f 127 170 169
f 127 170 171
f 127 171 170
f 127 171 172
f 127 172 171
v -0.453271 0.293902 -0.009998
v -0.455515 0.294866 -0.007687
v -0.458341 0.295831 -0.005858
v -0.461840 0.296795 -0.004583
v -0.465971 0.297760 -0.003832
v -0.470608 0.298724 -0.003497
v -0.475554 0.299689 -0.003418
v -0.480569 0.300653 -0.003395
v -0.485393 0.301617 -0.003215
v -0.489780 0.302582 -0.002674
v -0.493517 0.303546 -0.001596
v -0.496448 0.304511 0.000147
v -0.498492 0.305475 0.002622
v -0.499648 0.306439 0.005830
v -0.499999 0.307404 0.009703
v -0.499700 0.308368 0.014113
v -0.498963 0.309332 0.018885
v -0.498036 0.310296 0.023813
v -0.497178 0.311260 0.028685
v -0.496629 0.312224 0.033301
v -0.496585 0.313188 0.037500
v -0.497174 0.314153 0.041177
v -0.498435 0.315117 0.044299
v -0.500279 0.316081 0.046939
v -0.498036 0.315117 0.044628
v -0.495209 0.314153 0.042799
v -0.491711 0.313188 0.041524
v -0.487579 0.312224 0.040773
v -0.482942 0.311259 0.040438
v -0.477996 0.310295 0.040359
v -0.472982 0.309330 0.040336
v -0.468157 0.308366 0.040156
v -0.463770 0.307401 0.039615
v -0.460034 0.306437 0.038538
v -0.457103 0.305472 0.036795
v -0.455059 0.304508 0.034319
v -0.453902 0.303544 0.031111
v -0.453551 0.302580 0.027238
v -0.453850 0.301616 0.022828
v -0.454587 0.300651 0.018056
v -0.455514 0.299687 0.013128
v -0.456372 0.298723 0.008257
v -0.456922 0.297759 0.003640
v -0.456966 0.296795 -0.000559
v -0.456376 0.295831 -0.004236
v -0.455115 0.294866 -0.007357
f 173 174 175
f 173 175 174
f 173 175 176
f 173 176 175
f 173 176 177
f 173 177 176
f 173 177 178
f 173 178 177
f 173 178 179
f 173 179 178
f 173 179 180
f 173 180 179
f 173 180 181
f 173 181 180
f 173 181 182
f 173 182 181
f 173 182 183
f 173 183 182
f 173 183 184
f 173 184 183
f 173 184 185
f 173 185 184
f 173 185 186
f 173 186 185
f 173 186 187
f 173 187 186
f 173 187 188
f 173 188 187
f 173 188 189
f 173 189 188
f 173 189 190
f 173 190 189
f 173 190 191
f 173 191 190
f 173 191 192
f 173 192 191
f 173 192 193
f 173 193 192
f 173 193 194
f 173 194 193
f 173 194 195
f 173 195 194
f 173 195 196
f 173 196 195
f 173 196 197
f 173 197 196
f 173 197 198
f 173 198 197
f 173 198 199
f 173 199 198
f 173 199 200
f 173 200 199
f 173 200 201
f 173 201 200
f 173 201 202
f 173 202 201
f 173 202 203
f 173 203 202
f 173 203 204
f 173 204 203
f 173 204 205
f 173 205 204
f 173 205 206
f 173 206 205
f 173 206 207
f 173 207 206
f 173 207 208
f 173 208 207
f 173 208 209
f 173 209 208
f 173 209 210
f 173 210 209
f 173 210 211
f 173 211 210
f 173 211 212
f 173 212 211
f 173 212 213
f 173 213 212
f 173 213 214
f 173 214 213
f 173 214 215
f 173 215 214
f 173 215 216
f 173 216 215
f 173 216 217
f 173 217 216
f 173 217 218
f 173 218 217
v 0.002832 0.400000 -0.009799
v -0.001721 0.404301 -0.009087
v -0.005617 0.406959 -0.004905
v -0.007368 0.406959 0.001151
v -0.006304 0.404301 0.006768
v -0.002832 0.400000 0.009799
v 0.001721 0.395699 0.009087
v 0.005617 0.393041 0.004905
v 0.007368 0.393041 -0.001151
v 0.006304 0.395699 -0.006768
v 0.240423 0.641100 0.062275
v 0.237327 0.644025 0.062759
v 0.234677 0.645833 0.065603
v 0.233487 0.645833 0.069721
v 0.234210 0.644025 0.073540
v 0.236571 0.641100 0.075601
v 0.239668 0.638176 0.075117
v 0.242317 0.636368 0.072273
v 0.243507 0.636368 0.068155
v 0.242784 0.638176 0.064336
f 219 220 230
f 219 230 229
f 220 221 231
f 220 231 230
f 221 222 232
f 221 232 231
f 222 223 233
f 222 233 232
f 223 224 234
f 223 234 233
f 224 225 235
f 224 235 234
f 225 226 236
f 225 236 235
f 226 227 237
f 226 237 236
f 227 228 238
f 227 238 237
f 228 219 229
f 228 229 238
v 0.240069 0.641100 0.062182
v 0.239837 0.645177 0.063489
v 0.239094 0.647696 0.066876
v 0.238122 0.647696 0.071051
v 0.237293 0.645177 0.074419
v 0.236925 0.641100 0.075693
v 0.237157 0.637024 0.074387
v 0.237901 0.634505 0.071000
v 0.238873 0.634505 0.066825
v 0.239701 0.637024 0.063457
v 0.510186 0.636321 0.127329
v 0.510029 0.639092 0.128217
v 0.509523 0.640806 0.130521
v 0.508862 0.640806 0.133360
v 0.508299 0.639092 0.135650
v 0.508048 0.636321 0.136516
v 0.508206 0.633549 0.135628
v 0.508712 0.631836 0.133325
v 0.509372 0.631836 0.130486
v 0.509936 0.633549 0.128195
f 239 240 250
f 239 250 249
f 240 241 251
f 240 251 250
f 241 242 252
f 241 252 251
f 242 243 253
f 242 253 252
f 243 244 254
f 243 254 253
f 244 245 255
f 244 255 254
f 245 246 256
f 245 256 255
f 246 247 257
f 246 257 256
f 247 248 258
f 247 258 257
f 248 239 249
f 248 249 258
v 0.509117 0.634898 0.127426
v 0.511780 0.635904 0.128052
v 0.513426 0.637069 0.130157
v 0.513426 0.637948 0.132937
v 0.511780 0.638205 0.135329
v 0.509117 0.637743 0.136420
v 0.506454 0.636737 0.135793
v 0.504808 0.635572 0.133688
v 0.504808 0.634694 0.130909
v 0.506454 0.634436 0.128517
v 0.570966 0.431324 0.193389
v 0.572777 0.432008 0.193815
v 0.573896 0.432800 0.195247
v 0.573896 0.433398 0.197137
v 0.572777 0.433573 0.198763
v 0.570966 0.433259 0.199505
v 0.569155 0.432575 0.199079
v 0.568035 0.431783 0.197647
v 0.568035 0.431185 0.195758
v 0.569155 0.431010 0.194131
f 259 260 270
f 259 270 269
f 260 261 271
f 260 271 270
f 261 262 272
f 261 272 271
f 262 263 273
f 262 273 272
f 263 264 274
f 263 274 273
f 264 265 275
f 264 275 274
f 265 266 276
f 265 276 275
f 266 267 277
f 266 277 276
f 267 268 278
f 267 278 277
f 268 259 269
f 268 269 278
v 0.570966 0.432291 0.196447
v 0.571753 0.433394 0.193521
v 0.573299 0.434793 0.190807
v 0.575597 0.436487 0.188302
v 0.578541 0.438433 0.185978
v 0.581956 0.440563 0.183784
v 0.585617 0.442790 0.181659
v 0.589275 0.445016 0.179533
v 0.592673 0.447140 0.177335
v 0.595575 0.449070 0.174999
v 0.597782 0.450728 0.172469
v 0.599153 0.452058 0.169706
v 0.599613 0.453033 0.166689
v 0.599161 0.453650 0.163417
v 0.597873 0.453941 0.159913
v 0.595891 0.453959 0.156215
v 0.593412 0.453784 0.152379
v 0.590674 0.453507 0.148471
v 0.587932 0.453228 0.144562
v 0.585437 0.453046 0.140721
v 0.583412 0.453048 0.137011
v 0.582033 0.453303 0.133482
v 0.581407 0.453853 0.130162
v 0.581539 0.454699 0.127054
v 0.580751 0.453596 0.129979
v 0.579206 0.452197 0.132694
v 0.576908 0.450503 0.135199
v 0.573963 0.448557 0.137523
v 0.570549 0.446427 0.139717
v 0.566887 0.444200 0.141841
v 0.563230 0.441974 0.143967
v 0.559832 0.439850 0.146166
v 0.556930 0.437920 0.148502
v 0.554722 0.436262 0.151032
v 0.553352 0.434932 0.153795
v 0.552892 0.433957 0.156812
v 0.553343 0.433340 0.160083
v 0.554631 0.433049 0.163588
v 0.556614 0.433031 0.167285
v 0.559093 0.433206 0.171121
v 0.561830 0.433483 0.175030
v 0.564572 0.433762 0.178939
v 0.567068 0.433944 0.182780
v 0.569093 0.433942 0.186489
v 0.570471 0.433687 0.190019
v 0.571097 0.433137 0.193339
f 279 280 281
f 279 281 280
f 279 281 282
f 279 282 281
f 279 282 283
f 279 283 282
f 279 283 284
f 279 284 283
f 279 284 285
f 279 285 284
f 279 285 286
f 279 286 285
f 279 286 287
f 279 287 286
f 279 287 288
f 279 288 287
f 279 288 289
f 279 289 288
f 279 289 290
f 279 290 289
f 279 290 291
f 279 291 290
f 279 291 292
f 279 292 291
f 279 292 293
f 279 293 292
f 279 293 294
f 279 294 293
f 279 294 295
f 279 295 294
f 279 295 296
f 279 296 295
f 279 296 297
f 279 297 296
f 279 297 298
f 279 298 297
f 279 298 299
f 279 299 298
f 279 299 300
f 279 300 299
f 279 300 301
f 279 301 300
f 279 301 302
f 279 302 301
f 279 302 303
f 279 303 302
f 279 303 304
f 279 304 303
f 279 304 305
f 279 305 304
f 279 305 306
f 279 306 305
f 279 306 307
f 279 307 306
f 279 307 308
f 279 308 307
f 279 308 309
f 279 309 308
f 279 309 310
f 279 310 309
f 279 310 311
f 279 311 310
f 279 311 312
f 279 312 311
f 279 312 313
f 279 313 312
f 279 313 314
f 279 314 313
f 279 314 315
f 279 315 314
f 279 315 316
f 279 316 315
f 279 316 317
f 279 317 316
f 279 317 318
f 279 318 317
f 279 318 319
f 279 319 318
f 279 319 320
f 279 320 319
f 279 320 321
f 279 321 320
f 279 321 322
f 279 322 321
f 279 322 323
f 279 323 322
f 279 323 324
f 279 324 323
v 0.570966 0.432291 0.196447
v 0.572799 0.434260 0.196668
v 0.574536 0.436293 0.197190
v 0.576099 0.438445 0.198250
v 0.577444 0.440745 0.199989
v 0.578568 0.443194 0.202413
v 0.579511 0.445766 0.205397
v 0.580353 0.448408 0.208698
v 0.581197 0.451047 0.211989
v 0.582159 0.453606 0.214914
v 0.583348 0.456011 0.217137
v 0.584845 0.458208 0.218403
v 0.586695 0.460165 0.218572
v 0.588900 0.461881 0.217643
v 0.591412 0.463389 0.215757
v 0.594151 0.464743 0.213170
v 0.597008 0.466017 0.210216
v 0.599867 0.467289 0.207252
v 0.602625 0.468630 0.204605
v 0.605203 0.470094 0.202518
v 0.607559 0.471707 0.201117
v 0.609697 0.473469 0.200393
v 0.611661 0.475349 0.200209
v 0.613529 0.477294 0.200325
v 0.611695 0.475326 0.200104
v 0.609958 0.473292 0.199583
v 0.608395 0.471140 0.198522
v 0.607050 0.468841 0.196784
v 0.605926 0.466391 0.194360
v 0.604983 0.463819 0.191375
v 0.604142 0.461178 0.188075
v 0.603298 0.458538 0.184783
v 0.602335 0.455979 0.181859
v 0.601147 0.453574 0.179635
v 0.599650 0.451377 0.178369
v 0.597799 0.449421 0.178201
v 0.595595 0.447704 0.179129
v 0.593082 0.446196 0.181016
v 0.590344 0.444842 0.183603
v 0.587487 0.443568 0.186557
v 0.584627 0.442296 0.189521
v 0.581869 0.440955 0.192168
v 0.579292 0.439491 0.194255
v 0.576935 0.437878 0.195655
v 0.574797 0.436116 0.196379
v 0.572833 0.434237 0.196563
f 325 326 327
f 325 327 326
f 325 327 328
f 325 328 327
f 325 328 329
f 325 329 328
f 325 329 330
f 325 330 329
f 325 330 331
f 325 331 330
f 325 331 332
f 325 332 331
f 325 332 333
f 325 333 332
f 325 333 334
f 325 334 333
f 325 334 335
f 325 335 334
f 325 335 336
f 325 336 335
f 325 336 337
f 325 337 336
f 325 337 338
f 325 338 337
f 325 338 339
f 325 339 338
f 325 339 340
f 325 340 339
f 325 340 341
f 325 341 340
f 325 341 342
f 325 342 341
f 325 342 343
f 325 343 342
f 325 343 344
f 325 344 343
f 325 344 345
f 325 345 344
f 325 345 346
f 325 346 345
f 325 346 347
f 325 347 346
f 325 347 348
f 325 348 347
f 325 348 349
f 325 349 348
f 325 349 350
f 325 350 349
f 325 350 351
f 325 351 350
f 325 351 352
f 325 352 351
f 325 352 353
f 325 353 352
f 325 353 354
f 325 354 353
f 325 354 355
f 325 355 354
f 325 355 356
f 325 356 355
f 325 356 357
f 325 357 356
f 325 357 358
f 325 358 357
f 325 358 359
f 325 359 358
f 325 359 360
f 325 360 359
f 325 360 361
f 325 361 360
f 325 361 362
f 325 362 361
f 325 362 363
f 325 363 362
f 325 363 364
f 325 364 363
f 325 364 365
f 325 365 364
f 325 365 366
f 325 366 365
f 325 366 367
f 325 367 366
f 325 367 368
f 325 368 367
f 325 368 369
f 325 369 368
f 325 369 370
f 325 370 369
v 0.570966 0.432291 0.196447
v 0.567923 0.432296 0.197294
v 0.564797 0.432187 0.197860
v 0.561505 0.431851 0.197867
v 0.557990 0.431209 0.197122
v 0.554238 0.430241 0.195572
v 0.550280 0.428992 0.193331
v 0.546195 0.427570 0.190663
v 0.542097 0.426128 0.187947
v 0.538113 0.424843 0.185617
v 0.534366 0.423882 0.184087
v 0.530951 0.423377 0.183677
v 0.527920 0.423399 0.184566
v 0.525275 0.423948 0.186754
v 0.522961 0.424953 0.190062
v 0.520885 0.426282 0.194170
v 0.518922 0.427767 0.198663
v 0.516946 0.429234 0.203109
v 0.514843 0.430527 0.207129
v 0.512535 0.431539 0.210456
v 0.509989 0.432225 0.212979
v 0.507220 0.432605 0.214750
v 0.504285 0.432758 0.215962
v 0.501267 0.432797 0.216893
v 0.504310 0.432792 0.216046
v 0.507436 0.432901 0.215480
v 0.510728 0.433238 0.215473
v 0.514242 0.433879 0.216219
v 0.517995 0.434847 0.217768
v 0.521953 0.436096 0.220009
v 0.526037 0.437519 0.222678
v 0.530136 0.438961 0.225393
v 0.534120 0.440246 0.227723
v 0.537867 0.441206 0.229253
v 0.541282 0.441711 0.229663
v 0.544312 0.441689 0.228774
v 0.546958 0.441140 0.226587
v 0.549272 0.440136 0.223278
v 0.551348 0.438807 0.219170
v 0.553311 0.437321 0.214677
v 0.555287 0.435855 0.210231
v 0.557390 0.434561 0.206211
v 0.559698 0.433549 0.202884
v 0.562244 0.432864 0.200361
v 0.565013 0.432484 0.198590
v 0.567948 0.432331 0.197378
f 371 372 373
f 371 373 372
f 371 373 374
f 371 374 373
f 371 374 375
f 371 375 374
f 371 375 376
f 371 376 375
f 371 376 377
f 371 377 376
f 371 377 378
f 371 378 377
f 371 378 379
f 371 379 378
f 371 379 380
f 371 380 379
f 371 380 381
f 371 381 380
f 371 381 382
f 371 382 381
f 371 382 383
f 371 383 382
f 371 383 384
f 371 384 383
f 371 384 385
f 371 385 384
f 371 385 386
f 371 386 385
f 371 386 387
f 371 387 386
f 371 387 388
f 371 388 387
f 371 388 389
f 371 389 388
f 371 389 390
f 371 390 389
f 371 390 391
f 371 391 390
f 371 391 392
f 371 392 391
f 371 392 393
f 371 393 392
f 371 393 394
f 371 394 393
f 371 394 395
f 371 395 394
f 371 395 396
f 371 396 395
f 371 396 397
f 371 397 396
f 371 397 398
f 371 398 397
f 371 398 399
f 371 399 398
f 371 399 400
f 371 400 399
f 371 400 401
f 371 401 400
f 371 401 402
f 371 402 401
f 371 402 403
f 371 403 402
f 371 403 404
f 371 404 403
f 371 404 405
f 371 405 404
f 371 405 406
f 371 406 405
f 371 406 407
f 371 407 406
f 371 407 408
f 371 408 407
f 371 408 409
f 371 409 408
f 371 409 410
f 371 410 409
f 371 410 411
f 371 411 410
f 371 411 412
f 371 412 411
f 371 412 413
f 371 413 412
f 371 413 414
f 371 414 413
f 371 414 415
f 371 415 414
f 371 415 416
f 371 416 415
