o mesh
v 0.000000 0.020000 -0.000000 0.180 0.500 0.200
v 0.004960 0.030113 -0.014314 0.180 0.500 0.200
v 0.011494 0.040226 -0.028723 0.180 0.500 0.200
v 0.018510 0.050339 -0.043160 0.180 0.500 0.200
v 0.025563 0.060452 -0.057599 0.180 0.500 0.200
v 0.032323 0.070564 -0.072021 0.180 0.500 0.200
v 0.038515 0.080677 -0.086409 0.180 0.500 0.200
v 0.043906 0.090790 -0.100749 0.180 0.500 0.200
v 0.048297 0.100903 -0.115029 0.180 0.500 0.200
v 0.051526 0.111016 -0.129240 0.180 0.500 0.200
v 0.053470 0.121129 -0.143373 0.180 0.500 0.200
v 0.054045 0.131242 -0.157425 0.180 0.500 0.200
v 0.053209 0.141355 -0.171392 0.180 0.500 0.200
v 0.050962 0.151468 -0.185275 0.180 0.500 0.200
v 0.047346 0.161580 -0.199076 0.180 0.500 0.200
v 0.042445 0.171693 -0.212800 0.180 0.500 0.200
v 0.036382 0.181806 -0.226454 0.180 0.500 0.200
v 0.029319 0.191919 -0.240048 0.180 0.500 0.200
v 0.021454 0.202032 -0.253595 0.180 0.500 0.200
v 0.013022 0.212145 -0.267108 0.180 0.500 0.200
v 0.004298 0.222258 -0.280603 0.180 0.500 0.200
v -0.004391 0.232371 -0.294100 0.180 0.500 0.200
v -0.012597 0.242484 -0.307626 0.180 0.500 0.200
v -0.019229 0.252596 -0.321246 0.180 0.500 0.200
v -0.024189 0.242484 -0.306932 0.180 0.500 0.200
v -0.030723 0.232371 -0.292524 0.180 0.500 0.200
v -0.037739 0.222258 -0.278086 0.180 0.500 0.200
v -0.044792 0.212145 -0.263647 0.180 0.500 0.200
v -0.051551 0.202032 -0.249225 0.180 0.500 0.200
v -0.057744 0.191919 -0.234837 0.180 0.500 0.200
v -0.063135 0.181806 -0.220497 0.180 0.500 0.200
v -0.067526 0.171693 -0.206217 0.180 0.500 0.200
v -0.070755 0.161580 -0.192007 0.180 0.500 0.200
v -0.072699 0.151468 -0.177873 0.180 0.500 0.200
v -0.073274 0.141355 -0.163821 0.180 0.500 0.200
v -0.072438 0.131242 -0.149854 0.180 0.500 0.200
v -0.070191 0.121129 -0.135971 0.180 0.500 0.200
v -0.066575 0.111016 -0.122170 0.180 0.500 0.200
v -0.061674 0.100903 -0.108447 0.180 0.500 0.200
v -0.055611 0.090790 -0.094792 0.180 0.500 0.200
v -0.048548 0.080677 -0.081198 0.180 0.500 0.200
v -0.040683 0.070564 -0.067651 0.180 0.500 0.200
v -0.032251 0.060452 -0.054139 0.180 0.500 0.200
v -0.023527 0.050339 -0.040644 0.180 0.500 0.200
v -0.014838 0.040226 -0.027146 0.180 0.500 0.200
v -0.006632 0.030113 -0.013620 0.180 0.500 0.200
f 1 2 3
f 1 3 2
f 1 3 4
f 1 4 3
f 1 4 5
f 1 5 4
f 1 5 6
f 1 6 5
f 1 6 7
f 1 7 6
f 1 7 8
f 1 8 7
f 1 8 9
f 1 9 8
f 1 9 10
f 1 10 9
f 1 10 11
f 1 11 10
f 1 11 12
f 1 12 11
f 1 12 13
f 1 13 12
f 1 13 14
f 1 14 13
f 1 14 15
f 1 15 14
f 1 15 16
f 1 16 15
f 1 16 17
f 1 17 16
f 1 17 18
f 1 18 17
f 1 18 19
f 1 19 18
f 1 19 20
f 1 20 19
f 1 20 21
f 1 21 20
f 1 21 22
f 1 22 21
f 1 22 23
f 1 23 22
f 1 23 24
f 1 24 23
f 1 24 25
f 1 25 24
f 1 25 26
f 1 26 25
f 1 26 27
f 1 27 26
f 1 27 28
f 1 28 27
f 1 28 29
f 1 29 28
f 1 29 30
f 1 30 29
f 1 30 31
f 1 31 30
f 1 31 32
f 1 32 31
f 1 32 33
f 1 33 32
f 1 33 34
f 1 34 33
f 1 34 35
f 1 35 34
f 1 35 36
f 1 36 35
f 1 36 37
f 1 37 36
f 1 37 38
f 1 38 37
f 1 38 39
f 1 39 38
f 1 39 40
f 1 40 39
f 1 40 41
f 1 41 40
f 1 41 42
f 1 42 41
f 1 42 43
f 1 43 42
f 1 43 44
f 1 44 43
f 1 44 45
f 1 45 44
f 1 45 46
f 1 46 45
v 0.000000 0.020000 -0.000000 0.180 0.500 0.200
v 0.018137 0.024832 -0.007561 0.180 0.500 0.200
v 0.037442 0.029664 -0.013815 0.180 0.500 0.200
v 0.057104 0.034497 -0.019670 0.180 0.500 0.200
v 0.076793 0.039329 -0.025494 0.180 0.500 0.200
v 0.096265 0.044161 -0.031562 0.180 0.500 0.200
v 0.115317 0.048993 -0.038100 0.180 0.500 0.200
v 0.133773 0.053826 -0.045303 0.180 0.500 0.200
v 0.151488 0.058658 -0.053336 0.180 0.500 0.200
v 0.168342 0.063490 -0.062332 0.180 0.500 0.200
v 0.184242 0.068322 -0.072396 0.180 0.500 0.200
v 0.199127 0.073154 -0.083595 0.180 0.500 0.200
v 0.212965 0.077987 -0.095965 0.180 0.500 0.200
v 0.225756 0.082819 -0.109506 0.180 0.500 0.200
v 0.237532 0.087651 -0.124182 0.180 0.500 0.200
v 0.248355 0.092483 -0.139925 0.180 0.500 0.200
v 0.258316 0.097316 -0.156632 0.180 0.500 0.200
v 0.267536 0.102148 -0.174169 0.180 0.500 0.200
v 0.276161 0.106980 -0.192371 0.180 0.500 0.200
v 0.284365 0.111812 -0.211044 0.180 0.500 0.200
v 0.292352 0.116644 -0.229959 0.180 0.500 0.200
v 0.300366 0.121477 -0.248844 0.180 0.500 0.200
v 0.308737 0.126309 -0.267330 0.180 0.500 0.200
v 0.318277 0.131141 -0.284509 0.180 0.500 0.200
v 0.300140 0.126309 -0.276948 0.180 0.500 0.200
v 0.280835 0.121477 -0.270694 0.180 0.500 0.200
v 0.261172 0.116644 -0.264839 0.180 0.500 0.200
v 0.241483 0.111812 -0.259015 0.180 0.500 0.200
v 0.222011 0.106980 -0.252947 0.180 0.500 0.200
v 0.202960 0.102148 -0.246409 0.180 0.500 0.200
v 0.184503 0.097316 -0.239206 0.180 0.500 0.200
v 0.166788 0.092483 -0.231173 0.180 0.500 0.200
v 0.149935 0.087651 -0.222177 0.180 0.500 0.200
v 0.134035 0.082819 -0.212113 0.180 0.500 0.200
v 0.119150 0.077987 -0.200914 0.180 0.500 0.200
v 0.105312 0.073154 -0.188544 0.180 0.500 0.200
v 0.092520 0.068322 -0.175003 0.180 0.500 0.200
v 0.080744 0.063490 -0.160327 0.180 0.500 0.200
v 0.069921 0.058658 -0.144584 0.180 0.500 0.200
v 0.059960 0.053826 -0.127877 0.180 0.500 0.200
v 0.050741 0.048993 -0.110340 0.180 0.500 0.200
v 0.042116 0.044161 -0.092138 0.180 0.500 0.200
v 0.033912 0.039329 -0.073466 0.180 0.500 0.200
v 0.025925 0.034497 -0.054550 0.180 0.500 0.200
v 0.017911 0.029664 -0.035665 0.180 0.500 0.200
v 0.009539 0.024832 -0.017179 0.180 0.500 0.200
f 47 48 49
f 47 49 48
f 47 49 50
f 47 50 49
f 47 50 51
f 47 51 50
f 47 51 52
f 47 52 51
f 47 52 53
f 47 53 52
f 47 53 54
f 47 54 53
f 47 54 55
f 47 55 54
f 47 55 56
f 47 56 55
f 47 56 57
f 47 57 56
f 47 57 58
f 47 58 57
f 47 58 59
f 47 59 58
f 47 59 60
f 47 60 59
f 47 60 61
f 47 61 60
f 47 61 62
f 47 62 61
f 47 62 63
f 47 63 62
f 47 63 64
f 47 64 63
f 47 64 65
f 47 65 64
f 47 65 66
f 47 66 65
f 47 66 67
f 47 67 66
f 47 67 68
f 47 68 67
f 47 68 69
f 47 69 68
f 47 69 70
f 47 70 69
f 47 70 71
f 47 71 70
f 47 71 72
f 47 72 71
f 47 72 73
f 47 73 72
f 47 73 74
f 47 74 73
f 47 74 75
f 47 75 74
f 47 75 76
f 47 76 75
f 47 76 77
f 47 77 76
f 47 77 78
f 47 78 77
f 47 78 79
f 47 79 78
f 47 79 80
f 47 80 79
f 47 80 81
f 47 81 80
f 47 81 82
f 47 82 81
f 47 82 83
f 47 83 82
f 47 83 84
f 47 84 83
f 47 84 85
f 47 85 84
f 47 85 86
f 47 86 85
f 47 86 87
f 47 87 86
f 47 87 88
f 47 88 87
f 47 88 89
f 47 89 88
f 47 89 90
f 47 90 89
f 47 90 91
f 47 91 90
f 47 91 92
f 47 92 91
v 0.000000 0.020000 -0.000000 0.180 0.500 0.200
v 0.012568 0.028020 0.003679 0.180 0.500 0.200
v 0.025267 0.036041 0.008682 0.180 0.500 0.200
v 0.038006 0.044061 0.014089 0.180 0.500 0.200
v 0.050747 0.052081 0.019527 0.180 0.500 0.200
v 0.063465 0.060102 0.024719 0.180 0.500 0.200
v 0.076135 0.068122 0.029434 0.180 0.500 0.200
v 0.088739 0.076142 0.033476 0.180 0.500 0.200
v 0.101260 0.084163 0.036677 0.180 0.500 0.200
v 0.113685 0.092183 0.038901 0.180 0.500 0.200
v 0.126003 0.100203 0.040045 0.180 0.500 0.200
v 0.138208 0.108224 0.040039 0.180 0.500 0.200
v 0.150295 0.116244 0.038846 0.180 0.500 0.200
v 0.162266 0.124264 0.036468 0.180 0.500 0.200
v 0.174123 0.132285 0.032939 0.180 0.500 0.200
v 0.185874 0.140305 0.028329 0.180 0.500 0.200
v 0.197528 0.148325 0.022744 0.180 0.500 0.200
v 0.209099 0.156345 0.016317 0.180 0.500 0.200
v 0.220604 0.164366 0.009217 0.180 0.500 0.200
v 0.232062 0.172386 0.001640 0.180 0.500 0.200
v 0.243495 0.180406 -0.006183 0.180 0.500 0.200
v 0.254932 0.188427 -0.013975 0.180 0.500 0.200
v 0.266408 0.196447 -0.021363 0.180 0.500 0.200
v 0.278015 0.204467 -0.027427 0.180 0.500 0.200
v 0.265447 0.196447 -0.031106 0.180 0.500 0.200
v 0.252748 0.188427 -0.036108 0.180 0.500 0.200
v 0.240010 0.180406 -0.041516 0.180 0.500 0.200
v 0.227268 0.172386 -0.046954 0.180 0.500 0.200
v 0.214550 0.164366 -0.052146 0.180 0.500 0.200
v 0.201880 0.156345 -0.056861 0.180 0.500 0.200
v 0.189276 0.148325 -0.060902 0.180 0.500 0.200
v 0.176755 0.140305 -0.064103 0.180 0.500 0.200
v 0.164330 0.132285 -0.066328 0.180 0.500 0.200
v 0.152012 0.124264 -0.067472 0.180 0.500 0.200
v 0.139808 0.116244 -0.067465 0.180 0.500 0.200
v 0.127720 0.108224 -0.066273 0.180 0.500 0.200
v 0.115749 0.100203 -0.063894 0.180 0.500 0.200
v 0.103892 0.092183 -0.060365 0.180 0.500 0.200
v 0.092142 0.084163 -0.055756 0.180 0.500 0.200
v 0.080487 0.076142 -0.050170 0.180 0.500 0.200
v 0.068916 0.068122 -0.043744 0.180 0.500 0.200
v 0.057411 0.060102 -0.036644 0.180 0.500 0.200
v 0.045954 0.052081 -0.029067 0.180 0.500 0.200
v 0.034520 0.044061 -0.021244 0.180 0.500 0.200
v 0.023084 0.036041 -0.013451 0.180 0.500 0.200
v 0.011607 0.028020 -0.006064 0.180 0.500 0.200
f 93 94 95
f 93 95 94
f 93 95 96
f 93 96 95
f 93 96 97
f 93 97 96
f 93 97 98
f 93 98 97
f 93 98 99
f 93 99 98
f 93 99 100
f 93 100 99
f 93 100 101
f 93 101 100
f 93 101 102
f 93 102 101
f 93 102 103
f 93 103 102
f 93 103 104
f 93 104 103
f 93 104 105
f 93 105 104
f 93 105 106
f 93 106 105
f 93 106 107
f 93 107 106
f 93 107 108
f 93 108 107
f 93 108 109
f 93 109 108
f 93 109 110
f 93 110 109
f 93 110 111
f 93 111 110
f 93 111 112
f 93 112 111
f 93 112 113
f 93 113 112
f 93 113 114
f 93 114 113
f 93 114 115
f 93 115 114
f 93 115 116
f 93 116 115
f 93 116 117
f 93 117 116
f 93 117 118
f 93 118 117
f 93 118 119
f 93 119 118
f 93 119 120
f 93 120 119
f 93 120 121
f 93 121 120
f 93 121 122
f 93 122 121
f 93 122 123
f 93 123 122
f 93 123 124
f 93 124 123
f 93 124 125
f 93 125 124
f 93 125 126
f 93 126 125
f 93 126 127
f 93 127 126
f 93 127 128
f 93 128 127
f 93 128 129
f 93 129 128
f 93 129 130
f 93 130 129
f 93 130 131
f 93 131 130
f 93 131 132
f 93 132 131
f 93 132 133
f 93 133 132
f 93 133 134
f 93 134 133
f 93 134 135
f 93 135 134
f 93 135 136
f 93 136 135
f 93 136 137
f 93 137 136
f 93 137 138
f 93 138 137
v 0.000000 0.020000 -0.000000 0.180 0.500 0.200
v 0.008836 0.028523 0.013536 0.180 0.500 0.200
v 0.016747 0.037045 0.028357 0.180 0.500 0.200
v 0.024376 0.045568 0.043570 0.180 0.500 0.200
v 0.031983 0.054090 0.058814 0.180 0.500 0.200
v 0.039762 0.062613 0.073818 0.180 0.500 0.200
v 0.047874 0.071136 0.088360 0.180 0.500 0.200
v 0.056457 0.079658 0.102248 0.180 0.500 0.200
v 0.065627 0.088181 0.115320 0.180 0.500 0.200
v 0.075479 0.096703 0.127444 0.180 0.500 0.200
v 0.086085 0.105226 0.138520 0.180 0.500 0.200
v 0.097495 0.113749 0.148479 0.180 0.500 0.200
v 0.109734 0.122271 0.157287 0.180 0.500 0.200
v 0.122801 0.130794 0.164944 0.180 0.500 0.200
v 0.136671 0.139317 0.171485 0.180 0.500 0.200
v 0.151297 0.147839 0.176977 0.180 0.500 0.200
v 0.166604 0.156362 0.181521 0.180 0.500 0.200
v 0.182499 0.164884 0.185250 0.180 0.500 0.200
v 0.198864 0.173407 0.188324 0.180 0.500 0.200
v 0.215562 0.181930 0.190936 0.180 0.500 0.200
v 0.232432 0.190452 0.193309 0.180 0.500 0.200
v 0.249280 0.198975 0.195712 0.180 0.500 0.200
v 0.265846 0.207497 0.198507 0.180 0.500 0.200
v 0.281487 0.216020 0.202588 0.180 0.500 0.200
v 0.272651 0.207497 0.189052 0.180 0.500 0.200
v 0.264740 0.198975 0.174231 0.180 0.500 0.200
v 0.257112 0.190452 0.159017 0.180 0.500 0.200
v 0.249504 0.181930 0.143774 0.180 0.500 0.200
v 0.241725 0.173407 0.128770 0.180 0.500 0.200
v 0.233613 0.164884 0.114228 0.180 0.500 0.200
v 0.225030 0.156362 0.100340 0.180 0.500 0.200
v 0.215861 0.147839 0.087268 0.180 0.500 0.200
v 0.206009 0.139317 0.075144 0.180 0.500 0.200
v 0.195402 0.130794 0.064068 0.180 0.500 0.200
v 0.183992 0.122271 0.054108 0.180 0.500 0.200
v 0.171754 0.113749 0.045300 0.180 0.500 0.200
v 0.158687 0.105226 0.037643 0.180 0.500 0.200
v 0.144816 0.096703 0.031103 0.180 0.500 0.200
v 0.130191 0.088181 0.025611 0.180 0.500 0.200
v 0.114883 0.079658 0.021067 0.180 0.500 0.200
v 0.098989 0.071136 0.017338 0.180 0.500 0.200
v 0.082624 0.062613 0.014263 0.180 0.500 0.200
v 0.065926 0.054090 0.011652 0.180 0.500 0.200
v 0.049056 0.045568 0.009279 0.180 0.500 0.200
v 0.032207 0.037045 0.006876 0.180 0.500 0.200
v 0.015641 0.028523 0.004080 0.180 0.500 0.200
f 139 140 141
f 139 141 140
f 139 141 142
f 139 142 141
f 139 142 143
f 139 143 142
f 139 143 144
f 139 144 143
f 139 144 145
f 139 145 144
f 139 145 146
f 139 146 145
f 139 146 147
f 139 147 146
f 139 147 148
f 139 148 147
f 139 148 149
f 139 149 148
f 139 149 150
f 139 150 149
f 139 150 151
f 139 151 150
f 139 151 152
f 139 152 151
f 139 152 153
f 139 153 152
f 139 153 154
f 139 154 153
f 139 154 155
f 139 155 154
f 139 155 156
f 139 156 155
f 139 156 157
f 139 157 156
f 139 157 158
f 139 158 157
f 139 158 159
f 139 159 158
f 139 159 160
f 139 160 159
f 139 160 161
f 139 161 160
f 139 161 162
f 139 162 161
f 139 162 163
f 139 163 162
f 139 163 164
f 139 164 163
f 139 164 165
f 139 165 164
f 139 165 166
f 139 166 165
f 139 166 167
f 139 167 166
f 139 167 168
f 139 168 167
f 139 168 169
f 139 169 168
f 139 169 170
f 139 170 169
f 139 170 171
f 139 171 170
f 139 171 172
f 139 172 171
f 139 172 173
f 139 173 172
f 139 173 174
f 139 174 173
f 139 174 175
f 139 175 174
f 139 175 176
f 139 176 175
f 139 176 177
f 139 177 176
f 139 177 178
f 139 178 177
f 139 178 179
f 139 179 178
f 139 179 180
f 139 180 179
f 139 180 181
f 139 181 180
f 139 181 182
f 139 182 181
f 139 182 183
f 139 183 182
f 139 183 184
f 139 184 183
v 0.000000 0.020000 -0.000000 0.180 0.500 0.200
v -0.003998 0.030419 0.015220 0.180 0.500 0.200
v -0.009616 0.040838 0.030661 0.180 0.500 0.200
v -0.015730 0.051256 0.046170 0.180 0.500 0.200
v -0.021881 0.061675 0.061683 0.180 0.500 0.200
v -0.027730 0.072094 0.077156 0.180 0.500 0.200
v -0.032996 0.082513 0.092549 0.180 0.500 0.200
v -0.037438 0.092932 0.107829 0.180 0.500 0.200
v -0.040851 0.103351 0.122970 0.180 0.500 0.200
v -0.043070 0.113769 0.137948 0.180 0.500 0.200
v -0.043966 0.124188 0.152745 0.180 0.500 0.200
v -0.043455 0.134607 0.167351 0.180 0.500 0.200
v -0.041492 0.145026 0.181759 0.180 0.500 0.200
v -0.038078 0.155445 0.195970 0.180 0.500 0.200
v -0.033256 0.165863 0.209989 0.180 0.500 0.200
v -0.027112 0.176282 0.223827 0.180 0.500 0.200
v -0.019773 0.186701 0.237503 0.180 0.500 0.200
v -0.011406 0.197120 0.251039 0.180 0.500 0.200
v -0.002214 0.207539 0.264463 0.180 0.500 0.200
v 0.007561 0.217958 0.277807 0.180 0.500 0.200
v 0.017637 0.228376 0.291110 0.180 0.500 0.200
v 0.027676 0.238795 0.304418 0.180 0.500 0.200
v 0.037219 0.249214 0.317793 0.180 0.500 0.200
v 0.045143 0.259633 0.331389 0.180 0.500 0.200
v 0.049141 0.249214 0.316169 0.180 0.500 0.200
v 0.054759 0.238795 0.300728 0.180 0.500 0.200
v 0.060873 0.228376 0.285220 0.180 0.500 0.200
v 0.067024 0.217958 0.269706 0.180 0.500 0.200
v 0.072873 0.207539 0.254234 0.180 0.500 0.200
v 0.078140 0.197120 0.238841 0.180 0.500 0.200
v 0.082581 0.186701 0.223560 0.180 0.500 0.200
v 0.085995 0.176282 0.208420 0.180 0.500 0.200
v 0.088213 0.165863 0.193442 0.180 0.500 0.200
v 0.089110 0.155445 0.178644 0.180 0.500 0.200
v 0.088598 0.145026 0.164038 0.180 0.500 0.200
v 0.086635 0.134607 0.149630 0.180 0.500 0.200
v 0.083221 0.124188 0.135419 0.180 0.500 0.200
v 0.078399 0.113769 0.121401 0.180 0.500 0.200
v 0.072255 0.103351 0.107562 0.180 0.500 0.200
v 0.064917 0.092932 0.093886 0.180 0.500 0.200
v 0.056549 0.082513 0.080350 0.180 0.500 0.200
v 0.047358 0.072094 0.066927 0.180 0.500 0.200
v 0.037583 0.061675 0.053583 0.180 0.500 0.200
v 0.027506 0.051256 0.040280 0.180 0.500 0.200
v 0.017467 0.040838 0.026972 0.180 0.500 0.200
v 0.007924 0.030419 0.013596 0.180 0.500 0.200
f 185 186 187
f 185 187 186
f 185 187 188
f 185 188 187
f 185 188 189
f 185 189 188
f 185 189 190
f 185 190 189
f 185 190 191
f 185 191 190
f 185 191 192
f 185 192 191
f 185 192 193
f 185 193 192
f 185 193 194
f 185 194 193
f 185 194 195
f 185 195 194
f 185 195 196
f 185 196 195
f 185 196 197
f 185 197 196
f 185 197 198
f 185 198 197
f 185 198 199
f 185 199 198
f 185 199 200
f 185 200 199
f 185 200 201
f 185 201 200
f 185 201 202
f 185 202 201
f 185 202 203
f 185 203 202
f 185 203 204
f 185 204 203
f 185 204 205
f 185 205 204
f 185 205 206
f 185 206 205
f 185 206 207
f 185 207 206
f 185 207 208
f 185 208 207
f 185 208 209
f 185 209 208
f 185 209 210
f 185 210 209
f 185 210 211
f 185 211 210
f 185 211 212
f 185 212 211
f 185 212 213
f 185 213 212
f 185 213 214
f 185 214 213
f 185 214 215
f 185 215 214
f 185 215 216
f 185 216 215
f 185 216 217
f 185 217 216
f 185 217 218
f 185 218 217
f 185 218 219
f 185 219 218
f 185 219 220
f 185 220 219
f 185 220 221
f 185 221 220
f 185 221 222
f 185 222 221
f 185 222 223
f 185 223 222
f 185 223 224
f 185 224 223
f 185 224 225
f 185 225 224
f 185 225 226
f 185 226 225
f 185 226 227
f 185 227 226
f 185 227 228
f 185 228 227
f 185 228 229
f 185 229 228
f 185 229 230
f 185 230 229
v 0.000000 0.020000 -0.000000 0.180 0.500 0.200
v -0.015629 0.022527 0.008246 0.180 0.500 0.200
v -0.032381 0.025054 0.015430 0.180 0.500 0.200
v -0.049477 0.027581 0.022288 0.180 0.500 0.200
v -0.066598 0.030108 0.029123 0.180 0.500 0.200
v -0.083511 0.032635 0.036154 0.180 0.500 0.200
v -0.100019 0.035162 0.043569 0.180 0.500 0.200
v -0.115956 0.037689 0.051524 0.180 0.500 0.200
v -0.131179 0.040216 0.060154 0.180 0.500 0.200
v -0.145573 0.042743 0.069567 0.180 0.500 0.200
v -0.159050 0.045270 0.079847 0.180 0.500 0.200
v -0.171551 0.047797 0.091051 0.180 0.500 0.200
v -0.183046 0.050324 0.103206 0.180 0.500 0.200
v -0.193534 0.052851 0.116314 0.180 0.500 0.200
v -0.203045 0.055378 0.130344 0.180 0.500 0.200
v -0.211639 0.057905 0.145242 0.180 0.500 0.200
v -0.219405 0.060432 0.160923 0.180 0.500 0.200
v -0.226458 0.062959 0.177279 0.180 0.500 0.200
v -0.232938 0.065486 0.194176 0.180 0.500 0.200
v -0.239014 0.068013 0.211455 0.180 0.500 0.200
v -0.244881 0.070540 0.228932 0.180 0.500 0.200
v -0.250774 0.073067 0.246384 0.180 0.500 0.200
v -0.257011 0.075594 0.263511 0.180 0.500 0.200
v -0.264371 0.078121 0.279576 0.180 0.500 0.200
v -0.248742 0.075594 0.271330 0.180 0.500 0.200
v -0.231990 0.073067 0.264146 0.180 0.500 0.200
v -0.214894 0.070540 0.257288 0.180 0.500 0.200
v -0.197773 0.068013 0.250453 0.180 0.500 0.200
v -0.180860 0.065486 0.243422 0.180 0.500 0.200
v -0.164352 0.062959 0.236007 0.180 0.500 0.200
v -0.148415 0.060432 0.228052 0.180 0.500 0.200
v -0.133192 0.057905 0.219423 0.180 0.500 0.200
v -0.118798 0.055378 0.210009 0.180 0.500 0.200
v -0.105321 0.052851 0.199729 0.180 0.500 0.200
v -0.092820 0.050324 0.188525 0.180 0.500 0.200
v -0.081325 0.047797 0.176370 0.180 0.500 0.200
v -0.070837 0.045270 0.163263 0.180 0.500 0.200
v -0.061326 0.042743 0.149232 0.180 0.500 0.200
v -0.052732 0.040216 0.134334 0.180 0.500 0.200
v -0.044966 0.037689 0.118653 0.180 0.500 0.200
v -0.037913 0.035162 0.102297 0.180 0.500 0.200
v -0.031433 0.032635 0.085400 0.180 0.500 0.200
v -0.025357 0.030108 0.068121 0.180 0.500 0.200
v -0.019490 0.027581 0.050645 0.180 0.500 0.200
v -0.013597 0.025054 0.033192 0.180 0.500 0.200
v -0.007360 0.022527 0.016065 0.180 0.500 0.200
f 231 232 233
f 231 233 232
f 231 233 234
f 231 234 233
f 231 234 235
f 231 235 234
f 231 235 236
f 231 236 235
f 231 236 237
f 231 237 236
f 231 237 238
f 231 238 237
f 231 238 239
f 231 239 238
f 231 239 240
f 231 240 239
f 231 240 241
f 231 241 240
f 231 241 242
f 231 242 241
f 231 242 243
f 231 243 242
f 231 243 244
f 231 244 243
f 231 244 245
f 231 245 244
f 231 245 246
f 231 246 245
f 231 246 247
f 231 247 246
f 231 247 248
f 231 248 247
f 231 248 249
f 231 249 248
f 231 249 250
f 231 250 249
f 231 250 251
f 231 251 250
f 231 251 252
f 231 252 251
f 231 252 253
f 231 253 252
f 231 253 254
f 231 254 253
f 231 254 255
f 231 255 254
f 231 255 256
f 231 256 255
f 231 256 257
f 231 257 256
f 231 257 258
f 231 258 257
f 231 258 259
f 231 259 258
f 231 259 260
f 231 260 259
f 231 260 261
f 231 261 260
f 231 261 262
f 231 262 261
f 231 262 263
f 231 263 262
f 231 263 264
f 231 264 263
f 231 264 265
f 231 265 264
f 231 265 266
f 231 266 265
f 231 266 267
f 231 267 266
f 231 267 268
f 231 268 267
f 231 268 269
f 231 269 268
f 231 269 270
f 231 270 269
f 231 270 271
f 231 271 270
f 231 271 272
f 231 272 271
f 231 272 273
f 231 273 272
f 231 273 274
f 231 274 273
f 231 274 275
f 231 275 274
f 231 275 276
f 231 276 275
v 0.000000 0.020000 -0.000000 0.180 0.500 0.200
v -0.016696 0.022020 -0.008558 0.180 0.500 0.200
v -0.033151 0.024039 -0.018733 0.180 0.500 0.200
v -0.049534 0.026059 -0.029402 0.180 0.500 0.200
v -0.065910 0.028079 -0.040108 0.180 0.500 0.200
v -0.082332 0.030099 -0.050514 0.180 0.500 0.200
v -0.098839 0.032118 -0.060338 0.180 0.500 0.200
v -0.115469 0.034138 -0.069338 0.180 0.500 0.200
v -0.132252 0.036158 -0.077313 0.180 0.500 0.200
v -0.149211 0.038178 -0.084094 0.180 0.500 0.200
v -0.166366 0.040197 -0.089556 0.180 0.500 0.200
v -0.183729 0.042217 -0.093613 0.180 0.500 0.200
v -0.201307 0.044237 -0.096221 0.180 0.500 0.200
v -0.219101 0.046256 -0.097381 0.180 0.500 0.200
v -0.237102 0.048276 -0.097135 0.180 0.500 0.200
v -0.255300 0.050296 -0.095570 0.180 0.500 0.200
v -0.273675 0.052316 -0.092812 0.180 0.500 0.200
v -0.292201 0.054335 -0.089028 0.180 0.500 0.200
v -0.310850 0.056355 -0.084421 0.180 0.500 0.200
v -0.329586 0.058375 -0.079231 0.180 0.500 0.200
v -0.348366 0.060394 -0.073741 0.180 0.500 0.200
v -0.367140 0.062414 -0.068288 0.180 0.500 0.200
v -0.385841 0.064434 -0.063330 0.180 0.500 0.200
v -0.404302 0.066454 -0.059988 0.180 0.500 0.200
v -0.387607 0.064434 -0.051430 0.180 0.500 0.200
v -0.371151 0.062414 -0.041256 0.180 0.500 0.200
v -0.354769 0.060394 -0.030586 0.180 0.500 0.200
v -0.338392 0.058375 -0.019880 0.180 0.500 0.200
v -0.321971 0.056355 -0.009474 0.180 0.500 0.200
v -0.305463 0.054335 0.000349 0.180 0.500 0.200
v -0.288833 0.052316 0.009350 0.180 0.500 0.200
v -0.272051 0.050296 0.017324 0.180 0.500 0.200
v -0.255092 0.048276 0.024106 0.180 0.500 0.200
v -0.237937 0.046256 0.029568 0.180 0.500 0.200
v -0.220573 0.044237 0.033624 0.180 0.500 0.200
v -0.202995 0.042217 0.036233 0.180 0.500 0.200
v -0.185202 0.040197 0.037392 0.180 0.500 0.200
v -0.167200 0.038178 0.037147 0.180 0.500 0.200
v -0.149002 0.036158 0.035582 0.180 0.500 0.200
v -0.130628 0.034138 0.032824 0.180 0.500 0.200
v -0.112101 0.032118 0.029039 0.180 0.500 0.200
v -0.093452 0.030099 0.024432 0.180 0.500 0.200
v -0.074717 0.028079 0.019243 0.180 0.500 0.200
v -0.055937 0.026059 0.013753 0.180 0.500 0.200
v -0.037162 0.024039 0.008300 0.180 0.500 0.200
v -0.018461 0.022020 0.003342 0.180 0.500 0.200
f 277 278 279
f 277 279 278
f 277 279 280
f 277 280 279
f 277 280 281
f 277 281 280
f 277 281 282
f 277 282 281
f 277 282 283
f 277 283 282
f 277 283 284
f 277 284 283
f 277 284 285
f 277 285 284
f 277 285 286
f 277 286 285
f 277 286 287
f 277 287 286
f 277 287 288
f 277 288 287
f 277 288 289
f 277 289 288
f 277 289 290
f 277 290 289
f 277 290 291
f 277 291 290
f 277 291 292
f 277 292 291
f 277 292 293
f 277 293 292
f 277 293 294
f 277 294 293
f 277 294 295
f 277 295 294
f 277 295 296
f 277 296 295
f 277 296 297
f 277 297 296
f 277 297 298
f 277 298 297
f 277 298 299
f 277 299 298
f 277 299 300
f 277 300 299
f 277 300 301
f 277 301 300
f 277 301 302
f 277 302 301
f 277 302 303
f 277 303 302
f 277 303 304
f 277 304 303
f 277 304 305
f 277 305 304
f 277 305 306
f 277 306 305
f 277 306 307
f 277 307 306
f 277 307 308
f 277 308 307
f 277 308 309
f 277 309 308
f 277 309 310
f 277 310 309
f 277 310 311
f 277 311 310
f 277 311 312
f 277 312 311
f 277 312 313
f 277 313 312
f 277 313 314
f 277 314 313
f 277 314 315
f 277 315 314
f 277 315 316
f 277 316 315
f 277 316 317
f 277 317 316
f 277 317 318
f 277 318 317
f 277 318 319
f 277 319 318
f 277 319 320
f 277 320 319
f 277 320 321
f 277 321 320
f 277 321 322
f 277 322 321
v 0.000000 0.020000 -0.000000 0.180 0.500 0.200
v -0.007527 0.023787 -0.015073 0.180 0.500 0.200
v -0.014008 0.027573 -0.031215 0.180 0.500 0.200
v -0.020168 0.031360 -0.047683 0.180 0.500 0.200
v -0.026305 0.035146 -0.064176 0.180 0.500 0.200
v -0.032636 0.038933 -0.080471 0.180 0.500 0.200
v -0.039344 0.042719 -0.096381 0.180 0.500 0.200
v -0.046584 0.046506 -0.111746 0.180 0.500 0.200
v -0.054489 0.050293 -0.126433 0.180 0.500 0.200
v -0.063166 0.054079 -0.140332 0.180 0.500 0.200
v -0.072697 0.057866 -0.153358 0.180 0.500 0.200
v -0.083137 0.061652 -0.165455 0.180 0.500 0.200
v -0.094515 0.065439 -0.176595 0.180 0.500 0.200
v -0.106830 0.069225 -0.186777 0.180 0.500 0.200
v -0.120055 0.073012 -0.196031 0.180 0.500 0.200
v -0.134134 0.076798 -0.204412 0.180 0.500 0.200
v -0.148985 0.080585 -0.212004 0.180 0.500 0.200
v -0.164500 0.084372 -0.218918 0.180 0.500 0.200
v -0.180548 0.088158 -0.225288 0.180 0.500 0.200
v -0.196973 0.091945 -0.231273 0.180 0.500 0.200
v -0.213592 0.095731 -0.237060 0.180 0.500 0.200
v -0.230187 0.099518 -0.242871 0.180 0.500 0.200
v -0.246462 0.103304 -0.249008 0.180 0.500 0.200
v -0.261691 0.107091 -0.256215 0.180 0.500 0.200
v -0.254164 0.103304 -0.241142 0.180 0.500 0.200
v -0.247683 0.099518 -0.225000 0.180 0.500 0.200
v -0.241523 0.095731 -0.208532 0.180 0.500 0.200
v -0.235386 0.091945 -0.192039 0.180 0.500 0.200
v -0.229055 0.088158 -0.175744 0.180 0.500 0.200
v -0.222348 0.084372 -0.159834 0.180 0.500 0.200
v -0.215107 0.080585 -0.144469 0.180 0.500 0.200
v -0.207202 0.076798 -0.129782 0.180 0.500 0.200
v -0.198525 0.073012 -0.115883 0.180 0.500 0.200
v -0.188995 0.069225 -0.102857 0.180 0.500 0.200
v -0.178554 0.065439 -0.090760 0.180 0.500 0.200
v -0.167176 0.061652 -0.079620 0.180 0.500 0.200
v -0.154861 0.057866 -0.069438 0.180 0.500 0.200
v -0.141636 0.054079 -0.060184 0.180 0.500 0.200
v -0.127557 0.050293 -0.051803 0.180 0.500 0.200
v -0.112706 0.046506 -0.044211 0.180 0.500 0.200
v -0.097191 0.042719 -0.037297 0.180 0.500 0.200
v -0.081143 0.038933 -0.030927 0.180 0.500 0.200
v -0.064718 0.035146 -0.024942 0.180 0.500 0.200
v -0.048099 0.031360 -0.019155 0.180 0.500 0.200
v -0.031504 0.027573 -0.013344 0.180 0.500 0.200
v -0.015229 0.023787 -0.007207 0.180 0.500 0.200
f 323 324 325
f 323 325 324
f 323 325 326
f 323 326 325
f 323 326 327
f 323 327 326
f 323 327 328
f 323 328 327
f 323 328 329
f 323 329 328
f 323 329 330
f 323 330 329
f 323 330 331
f 323 331 330
f 323 331 332
f 323 332 331
f 323 332 333
f 323 333 332
f 323 333 334
f 323 334 333
f 323 334 335
f 323 335 334
f 323 335 336
f 323 336 335
f 323 336 337
f 323 337 336
f 323 337 338
f 323 338 337
f 323 338 339
f 323 339 338
f 323 339 340
f 323 340 339
f 323 340 341
f 323 341 340
f 323 341 342
f 323 342 341
f 323 342 343
f 323 343 342
f 323 343 344
f 323 344 343
f 323 344 345
f 323 345 344
f 323 345 346
f 323 346 345
f 323 346 347
f 323 347 346
f 323 347 348
f 323 348 347
f 323 348 349
f 323 349 348
f 323 349 350
f 323 350 349
f 323 350 351
f 323 351 350
f 323 351 352
f 323 352 351
f 323 352 353
f 323 353 352
f 323 353 354
f 323 354 353
f 323 354 355
f 323 355 354
f 323 355 356
f 323 356 355
f 323 356 357
f 323 357 356
f 323 357 358
f 323 358 357
f 323 358 359
f 323 359 358
f 323 359 360
f 323 360 359
f 323 360 361
f 323 361 360
f 323 361 362
f 323 362 361
f 323 362 363
f 323 363 362
f 323 363 364
f 323 364 363
f 323 364 365
f 323 365 364
f 323 365 366
f 323 366 365
f 323 366 367
f 323 367 366
f 323 367 368
f 323 368 367
v 0.000000 0.000635 0.011983 0.200 0.440 0.170
v 0.011408 0.000516 0.003686 0.200 0.440 0.170
v 0.007051 -0.000316 -0.009705 0.200 0.440 0.170
v -0.007051 -0.000712 -0.009684 0.200 0.440 0.170
v -0.011408 -0.000123 0.003720 0.200 0.440 0.170
v -0.005046 0.180044 -0.000532 0.200 0.440 0.170
v 0.003510 0.179955 -0.006755 0.200 0.440 0.170
v 0.000242 0.179330 -0.016798 0.200 0.440 0.170
v -0.010334 0.179034 -0.016783 0.200 0.440 0.170
v -0.013602 0.179475 -0.006730 0.200 0.440 0.170
f 369 370 375
f 369 375 374
f 370 371 376
f 370 376 375
f 371 372 377
f 371 377 376
f 372 373 378
f 372 378 377
f 373 369 374
f 373 374 378
v -0.005046 0.181452 0.002332 0.200 0.440 0.170
v 0.006328 0.181085 -0.006006 0.200 0.440 0.170
v 0.001983 0.178621 -0.019199 0.200 0.440 0.170
v -0.012075 0.177465 -0.019015 0.200 0.440 0.170
v -0.016419 0.179215 -0.005709 0.200 0.440 0.170
v -0.020183 0.360549 -0.029190 0.200 0.440 0.170
v -0.011653 0.360273 -0.035443 0.200 0.440 0.170
v -0.014911 0.358425 -0.045338 0.200 0.440 0.170
v -0.025455 0.357558 -0.045200 0.200 0.440 0.170
v -0.028713 0.358871 -0.035220 0.200 0.440 0.170
f 379 380 385
f 379 385 384
f 380 381 386
f 380 386 385
f 381 382 387
f 381 387 386
f 382 383 388
f 382 388 387
f 383 379 384
f 383 384 388
v -0.020183 0.362210 -0.026479 0.200 0.440 0.170
v -0.008874 0.361570 -0.034887 0.200 0.440 0.170
v -0.013194 0.357565 -0.047705 0.200 0.440 0.170
v -0.027172 0.355730 -0.047219 0.200 0.440 0.170
v -0.031492 0.358601 -0.034100 0.200 0.440 0.170
v -0.045412 0.541009 -0.076976 0.200 0.440 0.170
v -0.036930 0.540529 -0.083282 0.200 0.440 0.170
v -0.040170 0.537526 -0.092896 0.200 0.440 0.170
v -0.050654 0.536149 -0.092531 0.200 0.440 0.170
v -0.053893 0.538302 -0.082692 0.200 0.440 0.170
f 389 390 395
f 389 395 394
f 390 391 396
f 390 396 395
f 391 392 397
f 391 397 396
f 392 393 398
f 392 398 397
f 393 389 394
f 393 394 398
v -0.045412 0.542878 -0.074425 0.200 0.440 0.170
v -0.034188 0.541934 -0.082919 0.200 0.440 0.170
v -0.038475 0.536525 -0.095222 0.200 0.440 0.170
v -0.052348 0.534126 -0.094332 0.200 0.440 0.170
v -0.056635 0.538053 -0.081479 0.200 0.440 0.170
v -0.080732 0.721402 -0.143874 0.200 0.440 0.170
v -0.072314 0.720694 -0.150245 0.200 0.440 0.170
v -0.075529 0.716637 -0.159472 0.200 0.440 0.170
v -0.085934 0.714838 -0.158805 0.200 0.440 0.170
v -0.089149 0.717783 -0.149165 0.200 0.440 0.170
f 399 400 405
f 399 405 404
f 400 401 406
f 400 406 405
f 401 402 407
f 401 407 406
f 402 403 408
f 402 408 407
f 403 399 404
f 403 404 408
v -0.091334 0.718271 -0.146692 0.200 0.440 0.170
v -0.079305 0.723693 -0.141703 0.200 0.440 0.170
v -0.069247 0.721622 -0.151375 0.200 0.440 0.170
v -0.075060 0.714919 -0.162342 0.200 0.440 0.170
v -0.088711 0.712848 -0.159448 0.200 0.440 0.170
v -0.134095 0.897838 -0.233773 0.200 0.440 0.170
v -0.125073 0.901905 -0.230031 0.200 0.440 0.170
v -0.117530 0.900352 -0.237285 0.200 0.440 0.170
v -0.121890 0.895325 -0.245510 0.200 0.440 0.170
v -0.132128 0.893771 -0.243340 0.200 0.440 0.170
f 409 410 415
f 409 415 414
f 410 411 416
f 410 416 415
f 411 412 417
f 411 417 416
f 412 413 418
f 412 418 417
f 413 409 414
f 413 414 418
v -0.019441 0.314243 -0.028853 0.200 0.440 0.170
v -0.015717 0.316129 -0.032671 0.200 0.440 0.170
v -0.011464 0.314243 -0.029454 0.200 0.440 0.170
v -0.015188 0.312358 -0.025636 0.200 0.440 0.170
v -0.025239 0.144731 -0.119259 0.200 0.440 0.170
v -0.022445 0.146145 -0.122122 0.200 0.440 0.170
v -0.019255 0.144731 -0.119709 0.200 0.440 0.170
v -0.022049 0.143317 -0.116846 0.200 0.440 0.170
f 419 420 424
f 419 424 423
f 420 421 425
f 420 425 424
f 421 422 426
f 421 426 425
f 422 419 423
f 422 423 426
v -0.022247 0.151763 -0.119484 0.450 0.200 0.450
v -0.022247 0.151763 -0.119484 0.450 0.200 0.450
v -0.022247 0.151763 -0.119484 0.450 0.200 0.450
v -0.022247 0.151763 -0.119484 0.450 0.200 0.450
v -0.022247 0.151763 -0.119484 0.450 0.200 0.450
v -0.022247 0.151763 -0.119484 0.450 0.200 0.450
v -0.022247 0.151763 -0.119484 0.450 0.200 0.450
v -0.022247 0.151763 -0.119484 0.450 0.200 0.450
v -0.022247 0.151763 -0.119484 0.450 0.200 0.450
v 0.019085 0.128932 -0.119484 0.450 0.200 0.450
v 0.009416 0.128932 -0.146052 0.450 0.200 0.450
v -0.015070 0.128932 -0.160189 0.450 0.200 0.450
v -0.042913 0.128932 -0.155279 0.450 0.200 0.450
v -0.061087 0.128932 -0.133621 0.450 0.200 0.450
v -0.061087 0.128932 -0.105347 0.450 0.200 0.450
v -0.042913 0.128932 -0.083689 0.450 0.200 0.450
v -0.015070 0.128932 -0.078779 0.450 0.200 0.450
v 0.009416 0.128932 -0.092916 0.450 0.200 0.450
v 0.044630 0.069161 -0.119484 0.450 0.200 0.450
v 0.028984 0.069161 -0.162472 0.450 0.200 0.450
v -0.010634 0.069161 -0.185345 0.450 0.200 0.450
v -0.055686 0.069161 -0.177402 0.450 0.200 0.450
v -0.085091 0.069161 -0.142357 0.450 0.200 0.450
v -0.085091 0.069161 -0.096611 0.450 0.200 0.450
v -0.055686 0.069161 -0.061566 0.450 0.200 0.450
v -0.010634 0.069161 -0.053623 0.450 0.200 0.450
v 0.028984 0.069161 -0.076496 0.450 0.200 0.450
v 0.044630 -0.004720 -0.119484 0.450 0.200 0.450
v 0.028984 -0.004720 -0.162472 0.450 0.200 0.450
v -0.010634 -0.004720 -0.185345 0.450 0.200 0.450
v -0.055686 -0.004720 -0.177402 0.450 0.200 0.450
v -0.085091 -0.004720 -0.142357 0.450 0.200 0.450
v -0.085091 -0.004720 -0.096611 0.450 0.200 0.450
v -0.055686 -0.004720 -0.061566 0.450 0.200 0.450
v -0.010634 -0.004720 -0.053623 0.450 0.200 0.450
v 0.028984 -0.004720 -0.076496 0.450 0.200 0.450
v 0.019085 -0.064492 -0.119484 0.450 0.200 0.450
v 0.009416 -0.064492 -0.146052 0.450 0.200 0.450
v -0.015070 -0.064492 -0.160189 0.450 0.200 0.450
v -0.042913 -0.064492 -0.155279 0.450 0.200 0.450
v -0.061087 -0.064492 -0.133621 0.450 0.200 0.450
v -0.061087 -0.064492 -0.105347 0.450 0.200 0.450
v -0.042913 -0.064492 -0.083689 0.450 0.200 0.450
v -0.015070 -0.064492 -0.078779 0.450 0.200 0.450
v 0.009416 -0.064492 -0.092916 0.450 0.200 0.450
v -0.022247 -0.087322 -0.119484 0.450 0.200 0.450
v -0.022247 -0.087322 -0.119484 0.450 0.200 0.450
v -0.022247 -0.087322 -0.119484 0.450 0.200 0.450
v -0.022247 -0.087322 -0.119484 0.450 0.200 0.450
v -0.022247 -0.087322 -0.119484 0.450 0.200 0.450
v -0.022247 -0.087322 -0.119484 0.450 0.200 0.450
v -0.022247 -0.087322 -0.119484 0.450 0.200 0.450
v -0.022247 -0.087322 -0.119484 0.450 0.200 0.450
v -0.022247 -0.087322 -0.119484 0.450 0.200 0.450
f 427 437 428
f 427 436 437
f 428 438 429
f 428 437 438
f 429 439 430
f 429 438 439
f 430 440 431
f 430 439 440
f 431 441 432
f 431 440 441
f 432 442 433
f 432 441 442
f 433 443 434
f 433 442 443
f 434 444 435
f 434 443 444
f 435 436 427
f 435 444 436
f 436 446 437
f 436 445 446
f 437 447 438
f 437 446 447
f 438 448 439
f 438 447 448
f 439 449 440
f 439 448 449
f 440 450 441
f 440 449 450
f 441 451 442
f 441 450 451
f 442 452 443
f 442 451 452
f 443 453 444
f 443 452 453
f 444 445 436
f 444 453 445
f 445 455 446
f 445 454 455
f 446 456 447
f 446 455 456
f 447 457 448
f 447 456 457
f 448 458 449
f 448 457 458
f 449 459 450
f 449 458 459
f 450 460 451
f 450 459 460
f 451 461 452
f 451 460 461
f 452 462 453
f 452 461 462
f 453 454 445
f 453 462 454
f 454 464 455
f 454 463 464
f 455 465 456
f 455 464 465
f 456 466 457
f 456 465 466
f 457 467 458
f 457 466 467
f 458 468 459
f 458 467 468
f 459 469 460
f 459 468 469
f 460 470 461
f 460 469 470
f 461 471 462
f 461 470 471
f 462 463 454
f 462 471 463
f 463 473 464
f 463 472 473
f 464 474 465
f 464 473 474
f 465 475 466
f 465 474 475
f 466 476 467
f 466 475 476
f 467 477 468
f 467 476 477
f 468 478 469
f 468 477 478
f 469 479 470
f 469 478 479
f 470 480 471
f 470 479 480
f 471 472 463
f 471 480 472
v 0.037978 0.137699 -0.117090 0.698 0.560 0.698
v 0.044556 0.144699 -0.119484 0.698 0.560 0.698
v 0.051134 0.137699 -0.121878 0.698 0.560 0.698
v 0.044556 0.130699 -0.119484 0.698 0.560 0.698
v 0.022349 0.137699 -0.160030 0.698 0.560 0.698
v 0.028927 0.144699 -0.162424 0.698 0.560 0.698
v 0.035505 0.137699 -0.164818 0.698 0.560 0.698
v 0.028927 0.130699 -0.162424 0.698 0.560 0.698
f 481 482 486
f 481 486 485
f 482 483 487
f 482 487 486
f 483 484 488
f 483 488 487
f 484 481 485
f 484 485 488
v 0.025427 0.137699 -0.156362 0.698 0.560 0.698
v 0.028927 0.144699 -0.162424 0.698 0.560 0.698
v 0.032427 0.137699 -0.168486 0.698 0.560 0.698
v 0.028927 0.130699 -0.162424 0.698 0.560 0.698
v -0.014147 0.137699 -0.179210 0.698 0.560 0.698
v -0.010647 0.144699 -0.185272 0.698 0.560 0.698
v -0.007147 0.137699 -0.191334 0.698 0.560 0.698
v -0.010647 0.130699 -0.185272 0.698 0.560 0.698
f 489 490 494
f 489 494 493
f 490 491 495
f 490 495 494
f 491 492 496
f 491 496 495
f 492 489 493
f 492 493 496
v -0.009431 0.137699 -0.178379 0.698 0.560 0.698
v -0.010647 0.144699 -0.185272 0.698 0.560 0.698
v -0.011862 0.137699 -0.192166 0.698 0.560 0.698
v -0.010647 0.130699 -0.185272 0.698 0.560 0.698
v -0.054433 0.137699 -0.170444 0.698 0.560 0.698
v -0.055649 0.144699 -0.177337 0.698 0.560 0.698
v -0.056864 0.137699 -0.184231 0.698 0.560 0.698
v -0.055649 0.130699 -0.177337 0.698 0.560 0.698
f 497 498 502
f 497 502 501
f 498 499 503
f 498 503 502
f 499 500 504
f 499 504 503
f 500 497 501
f 500 501 504
v -0.050286 0.137699 -0.172838 0.698 0.560 0.698
v -0.055649 0.144699 -0.177337 0.698 0.560 0.698
v -0.061011 0.137699 -0.181837 0.698 0.560 0.698
v -0.055649 0.130699 -0.177337 0.698 0.560 0.698
v -0.079659 0.137699 -0.137832 0.698 0.560 0.698
v -0.085021 0.144699 -0.142332 0.698 0.560 0.698
v -0.090384 0.137699 -0.146831 0.698 0.560 0.698
v -0.085021 0.130699 -0.142332 0.698 0.560 0.698
f 505 506 510
f 505 510 509
f 506 507 511
f 506 511 510
f 507 508 512
f 507 512 511
f 508 505 509
f 508 509 512
v -0.078021 0.137699 -0.142332 0.698 0.560 0.698
v -0.085021 0.144699 -0.142332 0.698 0.560 0.698
v -0.092021 0.137699 -0.142332 0.698 0.560 0.698
v -0.085021 0.130699 -0.142332 0.698 0.560 0.698
v -0.078021 0.137699 -0.096636 0.698 0.560 0.698
v -0.085021 0.144699 -0.096636 0.698 0.560 0.698
v -0.092021 0.137699 -0.096636 0.698 0.560 0.698
v -0.085021 0.130699 -0.096636 0.698 0.560 0.698
f 513 514 518
f 513 518 517
f 514 515 519
f 514 519 518
f 515 516 520
f 515 520 519
f 516 513 517
f 516 517 520
v -0.079659 0.137699 -0.101135 0.698 0.560 0.698
v -0.085021 0.144699 -0.096636 0.698 0.560 0.698
v -0.090384 0.137699 -0.092136 0.698 0.560 0.698
v -0.085021 0.130699 -0.096636 0.698 0.560 0.698
v -0.050286 0.137699 -0.066130 0.698 0.560 0.698
v -0.055649 0.144699 -0.061631 0.698 0.560 0.698
v -0.061011 0.137699 -0.057131 0.698 0.560 0.698
v -0.055649 0.130699 -0.061631 0.698 0.560 0.698
f 521 522 526
f 521 526 525
f 522 523 527
f 522 527 526
f 523 524 528
f 523 528 527
f 524 521 525
f 524 525 528
v -0.054433 0.137699 -0.068524 0.698 0.560 0.698
v -0.055649 0.144699 -0.061631 0.698 0.560 0.698
v -0.056864 0.137699 -0.054737 0.698 0.560 0.698
v -0.055649 0.130699 -0.061631 0.698 0.560 0.698
v -0.009431 0.137699 -0.060589 0.698 0.560 0.698
v -0.010647 0.144699 -0.053696 0.698 0.560 0.698
v -0.011862 0.137699 -0.046802 0.698 0.560 0.698
v -0.010647 0.130699 -0.053696 0.698 0.560 0.698
f 529 530 534
f 529 534 533
f 530 531 535
f 530 535 534
f 531 532 536
f 531 536 535
f 532 529 533
f 532 533 536
v -0.014147 0.137699 -0.059758 0.698 0.560 0.698
v -0.010647 0.144699 -0.053696 0.698 0.560 0.698
v -0.007147 0.137699 -0.047634 0.698 0.560 0.698
v -0.010647 0.130699 -0.053696 0.698 0.560 0.698
v 0.025427 0.137699 -0.082606 0.698 0.560 0.698
v 0.028927 0.144699 -0.076544 0.698 0.560 0.698
v 0.032427 0.137699 -0.070482 0.698 0.560 0.698
v 0.028927 0.130699 -0.076544 0.698 0.560 0.698
f 537 538 542
f 537 542 541
f 538 539 543
f 538 543 542
f 539 540 544
f 539 544 543
f 540 537 541
f 540 541 544
v 0.022349 0.137699 -0.078938 0.698 0.560 0.698
v 0.028927 0.144699 -0.076544 0.698 0.560 0.698
v 0.035505 0.137699 -0.074150 0.698 0.560 0.698
v 0.028927 0.130699 -0.076544 0.698 0.560 0.698
v 0.037978 0.137699 -0.121878 0.698 0.560 0.698
v 0.044556 0.144699 -0.119484 0.698 0.560 0.698
v 0.051134 0.137699 -0.117090 0.698 0.560 0.698
v 0.044556 0.130699 -0.119484 0.698 0.560 0.698
f 545 546 550
f 545 550 549
f 546 547 551
f 546 551 550
f 547 548 552
f 547 552 551
f 548 545 549
f 548 549 552
v -0.025412 0.137699 -0.161557 0.338 0.150 0.338
v -0.025710 0.132611 -0.179654 0.338 0.150 0.338
v -0.025341 0.127522 -0.188873 0.338 0.150 0.338
v -0.024823 0.122434 -0.196108 0.338 0.150 0.338
v -0.024212 0.117346 -0.202115 0.338 0.150 0.338
v -0.023530 0.112257 -0.207173 0.338 0.150 0.338
v -0.022786 0.107169 -0.211414 0.338 0.150 0.338
v -0.021986 0.102081 -0.214908 0.338 0.150 0.338
v -0.021133 0.096992 -0.217691 0.338 0.150 0.338
v -0.020228 0.091904 -0.219785 0.338 0.150 0.338
v -0.019272 0.086816 -0.221203 0.338 0.150 0.338
v -0.018265 0.081727 -0.221950 0.338 0.150 0.338
v -0.017209 0.076639 -0.222030 0.338 0.150 0.338
v -0.016102 0.071551 -0.221442 0.338 0.150 0.338
v -0.014944 0.066462 -0.220183 0.338 0.150 0.338
v -0.013736 0.061374 -0.218247 0.338 0.150 0.338
v -0.012476 0.056286 -0.215623 0.338 0.150 0.338
v -0.011163 0.051197 -0.212289 0.338 0.150 0.338
v -0.009793 0.046109 -0.208206 0.338 0.150 0.338
v -0.008362 0.041021 -0.203307 0.338 0.150 0.338
v -0.006859 0.035932 -0.197459 0.338 0.150 0.338
v -0.005264 0.030844 -0.190383 0.338 0.150 0.338
v -0.003520 0.025756 -0.181323 0.338 0.150 0.338
v -0.001108 0.020667 -0.163385 0.338 0.150 0.338
v -0.000810 0.025756 -0.145287 0.338 0.150 0.338
v -0.001179 0.030844 -0.136068 0.338 0.150 0.338
v -0.001697 0.035932 -0.128833 0.338 0.150 0.338
v -0.002308 0.041021 -0.122826 0.338 0.150 0.338
v -0.002990 0.046109 -0.117768 0.338 0.150 0.338
v -0.003734 0.051197 -0.113527 0.338 0.150 0.338
v -0.004534 0.056286 -0.110034 0.338 0.150 0.338
v -0.005387 0.061374 -0.107250 0.338 0.150 0.338
v -0.006292 0.066462 -0.105156 0.338 0.150 0.338
v -0.007248 0.071551 -0.103738 0.338 0.150 0.338
v -0.008255 0.076639 -0.102991 0.338 0.150 0.338
v -0.009311 0.081727 -0.102911 0.338 0.150 0.338
v -0.010418 0.086816 -0.103500 0.338 0.150 0.338
v -0.011576 0.091904 -0.104758 0.338 0.150 0.338
v -0.012784 0.096992 -0.106694 0.338 0.150 0.338
v -0.014044 0.102081 -0.109318 0.338 0.150 0.338
v -0.015357 0.107169 -0.112653 0.338 0.150 0.338
v -0.016727 0.112257 -0.116735 0.338 0.150 0.338
v -0.018158 0.117346 -0.121634 0.338 0.150 0.338
v -0.019661 0.122434 -0.127482 0.338 0.150 0.338
v -0.021256 0.127522 -0.134558 0.338 0.150 0.338
v -0.023000 0.132611 -0.143618 0.338 0.150 0.338
f 553 554 555
f 553 555 554
f 553 555 556
f 553 556 555
f 553 556 557
f 553 557 556
f 553 557 558
f 553 558 557
f 553 558 559
f 553 559 558
f 553 559 560
f 553 560 559
f 553 560 561
f 553 561 560
f 553 561 562
f 553 562 561
f 553 562 563
f 553 563 562
f 553 563 564
f 553 564 563
f 553 564 565
f 553 565 564
f 553 565 566
f 553 566 565
f 553 566 567
f 553 567 566
f 553 567 568
f 553 568 567
f 553 568 569
f 553 569 568
f 553 569 570
f 553 570 569
f 553 570 571
f 553 571 570
f 553 571 572
f 553 572 571
f 553 572 573
f 553 573 572
f 553 573 574
f 553 574 573
f 553 574 575
f 553 575 574
f 553 575 576
f 553 576 575
f 553 576 577
f 553 577 576
f 553 577 578
f 553 578 577
f 553 578 579
f 553 579 578
f 553 579 580
f 553 580 579
f 553 580 581
f 553 581 580
f 553 581 582
f 553 582 581
f 553 582 583
f 553 583 582
f 553 583 584
f 553 584 583
f 553 584 585
f 553 585 584
f 553 585 586
f 553 586 585
f 553 586 587
f 553 587 586
f 553 587 588
f 553 588 587
f 553 588 589
f 553 589 588
f 553 589 590
f 553 590 589
f 553 590 591
f 553 591 590
f 553 591 592
f 553 592 591
f 553 592 593
f 553 593 592
f 553 593 594
f 553 594 593
f 553 594 595
f 553 595 594
f 553 595 596
f 553 596 595
f 553 596 597
f 553 597 596
f 553 597 598
f 553 598 597
v -0.029063 0.431709 -0.058762 0.200 0.440 0.170
v -0.025392 0.429403 -0.055129 0.200 0.440 0.170
v -0.029063 0.430215 -0.050903 0.200 0.440 0.170
v -0.032735 0.432522 -0.054536 0.200 0.440 0.170
v -0.126016 0.211258 -0.099652 0.200 0.440 0.170
v -0.123262 0.209528 -0.096927 0.200 0.440 0.170
v -0.126016 0.210137 -0.093757 0.200 0.440 0.170
v -0.128769 0.211867 -0.096482 0.200 0.440 0.170
f 599 600 604
f 599 604 603
f 600 601 605
f 600 605 604
f 601 602 606
f 601 606 605
f 602 599 603
f 602 603 606
v -0.126016 0.216480 -0.096705 0.450 0.200 0.450
v -0.126016 0.216480 -0.096705 0.450 0.200 0.450
v -0.126016 0.216480 -0.096705 0.450 0.200 0.450
v -0.126016 0.216480 -0.096705 0.450 0.200 0.450
v -0.126016 0.216480 -0.096705 0.450 0.200 0.450
v -0.126016 0.216480 -0.096705 0.450 0.200 0.450
v -0.126016 0.216480 -0.096705 0.450 0.200 0.450
v -0.126016 0.216480 -0.096705 0.450 0.200 0.450
v -0.126016 0.216480 -0.096705 0.450 0.200 0.450
v -0.092028 0.197706 -0.096705 0.450 0.200 0.450
v -0.099979 0.197706 -0.118551 0.450 0.200 0.450
v -0.120114 0.197706 -0.130176 0.450 0.200 0.450
v -0.143009 0.197706 -0.126139 0.450 0.200 0.450
v -0.157953 0.197706 -0.108329 0.450 0.200 0.450
v -0.157953 0.197706 -0.085080 0.450 0.200 0.450
v -0.143009 0.197706 -0.067270 0.450 0.200 0.450
v -0.120114 0.197706 -0.063233 0.450 0.200 0.450
v -0.099979 0.197706 -0.074858 0.450 0.200 0.450
v -0.071022 0.148557 -0.096705 0.450 0.200 0.450
v -0.083888 0.148557 -0.132053 0.450 0.200 0.450
v -0.116466 0.148557 -0.150862 0.450 0.200 0.450
v -0.153512 0.148557 -0.144330 0.450 0.200 0.450
v -0.177692 0.148557 -0.115513 0.450 0.200 0.450
v -0.177692 0.148557 -0.077896 0.450 0.200 0.450
v -0.153512 0.148557 -0.049079 0.450 0.200 0.450
v -0.116466 0.148557 -0.042547 0.450 0.200 0.450
v -0.083888 0.148557 -0.061356 0.450 0.200 0.450
v -0.071022 0.087804 -0.096705 0.450 0.200 0.450
v -0.083888 0.087804 -0.132053 0.450 0.200 0.450
v -0.116466 0.087804 -0.150862 0.450 0.200 0.450
v -0.153512 0.087804 -0.144330 0.450 0.200 0.450
v -0.177692 0.087804 -0.115513 0.450 0.200 0.450
v -0.177692 0.087804 -0.077896 0.450 0.200 0.450
v -0.153512 0.087804 -0.049079 0.450 0.200 0.450
v -0.116466 0.087804 -0.042547 0.450 0.200 0.450
v -0.083888 0.087804 -0.061356 0.450 0.200 0.450
v -0.092028 0.038654 -0.096705 0.450 0.200 0.450
v -0.099979 0.038654 -0.118551 0.450 0.200 0.450
v -0.120114 0.038654 -0.130176 0.450 0.200 0.450
v -0.143009 0.038654 -0.126139 0.450 0.200 0.450
v -0.157953 0.038654 -0.108329 0.450 0.200 0.450
v -0.157953 0.038654 -0.085080 0.450 0.200 0.450
v -0.143009 0.038654 -0.067270 0.450 0.200 0.450
v -0.120114 0.038654 -0.063233 0.450 0.200 0.450
v -0.099979 0.038654 -0.074858 0.450 0.200 0.450
v -0.126016 0.019881 -0.096705 0.450 0.200 0.450
v -0.126016 0.019881 -0.096705 0.450 0.200 0.450
v -0.126016 0.019881 -0.096705 0.450 0.200 0.450
v -0.126016 0.019881 -0.096705 0.450 0.200 0.450
v -0.126016 0.019881 -0.096705 0.450 0.200 0.450
v -0.126016 0.019881 -0.096705 0.450 0.200 0.450
v -0.126016 0.019881 -0.096705 0.450 0.200 0.450
v -0.126016 0.019881 -0.096705 0.450 0.200 0.450
v -0.126016 0.019881 -0.096705 0.450 0.200 0.450
f 607 617 608
f 607 616 617
f 608 618 609
f 608 617 618
f 609 619 610
f 609 618 619
f 610 620 611
f 610 619 620
f 611 621 612
f 611 620 621
f 612 622 613
f 612 621 622
f 613 623 614
f 613 622 623
f 614 624 615
f 614 623 624
f 615 616 607
f 615 624 616
f 616 626 617
f 616 625 626
f 617 627 618
f 617 626 627
f 618 628 619
f 618 627 628
f 619 629 620
f 619 628 629
f 620 630 621
f 620 629 630
f 621 631 622
f 621 630 631
f 622 632 623
f 622 631 632
f 623 633 624
f 623 632 633
f 624 625 616
f 624 633 625
f 625 635 626
f 625 634 635
f 626 636 627
f 626 635 636
f 627 637 628
f 627 636 637
f 628 638 629
f 628 637 638
f 629 639 630
f 629 638 639
f 630 640 631
f 630 639 640
f 631 641 632
f 631 640 641
f 632 642 633
f 632 641 642
f 633 634 625
f 633 642 634
f 634 644 635
f 634 643 644
f 635 645 636
f 635 644 645
f 636 646 637
f 636 645 646
f 637 647 638
f 637 646 647
f 638 648 639
f 638 647 648
f 639 649 640
f 639 648 649
f 640 650 641
f 640 649 650
f 641 651 642
f 641 650 651
f 642 643 634
f 642 651 643
f 643 653 644
f 643 652 653
f 644 654 645
f 644 653 654
f 645 655 646
f 645 654 655
f 646 656 647
f 646 655 656
f 647 657 648
f 647 656 657
f 648 658 649
f 648 657 658
f 649 659 650
f 649 658 659
f 650 660 651
f 650 659 660
f 651 652 643
f 651 660 652
v -0.077661 0.204915 -0.094310 0.698 0.560 0.698
v -0.071083 0.211915 -0.096705 0.698 0.560 0.698
v -0.064506 0.204915 -0.099099 0.698 0.560 0.698
v -0.071083 0.197915 -0.096705 0.698 0.560 0.698
v -0.090513 0.204915 -0.129620 0.698 0.560 0.698
v -0.083935 0.211915 -0.132014 0.698 0.560 0.698
v -0.077357 0.204915 -0.134408 0.698 0.560 0.698
v -0.083935 0.197915 -0.132014 0.698 0.560 0.698
f 661 662 666
f 661 666 665
f 662 663 667
f 662 667 666
f 663 664 668
f 663 668 667
f 664 661 665
f 664 665 668
v -0.087435 0.204915 -0.125952 0.698 0.560 0.698
v -0.083935 0.211915 -0.132014 0.698 0.560 0.698
v -0.080435 0.204915 -0.138076 0.698 0.560 0.698
v -0.083935 0.197915 -0.132014 0.698 0.560 0.698
v -0.119977 0.204915 -0.144740 0.698 0.560 0.698
v -0.116477 0.211915 -0.150802 0.698 0.560 0.698
v -0.112977 0.204915 -0.156864 0.698 0.560 0.698
v -0.116477 0.197915 -0.150802 0.698 0.560 0.698
f 669 670 674
f 669 674 673
f 670 671 675
f 670 675 674
f 671 672 676
f 671 676 675
f 672 669 673
f 672 673 676
v -0.115261 0.204915 -0.143908 0.698 0.560 0.698
v -0.116477 0.211915 -0.150802 0.698 0.560 0.698
v -0.117692 0.204915 -0.157696 0.698 0.560 0.698
v -0.116477 0.197915 -0.150802 0.698 0.560 0.698
v -0.152266 0.204915 -0.137383 0.698 0.560 0.698
v -0.153482 0.211915 -0.144277 0.698 0.560 0.698
v -0.154697 0.204915 -0.151171 0.698 0.560 0.698
v -0.153482 0.197915 -0.144277 0.698 0.560 0.698
f 677 678 682
f 677 682 681
f 678 679 683
f 678 683 682
f 679 680 684
f 679 684 683
f 680 677 681
f 680 681 684
v -0.148119 0.204915 -0.139778 0.698 0.560 0.698
v -0.153482 0.211915 -0.144277 0.698 0.560 0.698
v -0.158844 0.204915 -0.148777 0.698 0.560 0.698
v -0.153482 0.197915 -0.144277 0.698 0.560 0.698
v -0.172272 0.204915 -0.110993 0.698 0.560 0.698
v -0.177635 0.211915 -0.115492 0.698 0.560 0.698
v -0.182997 0.204915 -0.119992 0.698 0.560 0.698
v -0.177635 0.197915 -0.115492 0.698 0.560 0.698
f 685 686 690
f 685 690 689
f 686 687 691
f 686 691 690
f 687 688 692
f 687 692 691
f 688 685 689
f 688 689 692
v -0.170635 0.204915 -0.115492 0.698 0.560 0.698
v -0.177635 0.211915 -0.115492 0.698 0.560 0.698
v -0.184635 0.204915 -0.115492 0.698 0.560 0.698
v -0.177635 0.197915 -0.115492 0.698 0.560 0.698
v -0.170635 0.204915 -0.077917 0.698 0.560 0.698
v -0.177635 0.211915 -0.077917 0.698 0.560 0.698
v -0.184635 0.204915 -0.077917 0.698 0.560 0.698
v -0.177635 0.197915 -0.077917 0.698 0.560 0.698
f 693 694 698
f 693 698 697
f 694 695 699
f 694 699 698
f 695 696 700
f 695 700 699
f 696 693 697
f 696 697 700
v -0.172272 0.204915 -0.082416 0.698 0.560 0.698
v -0.177635 0.211915 -0.077917 0.698 0.560 0.698
v -0.182997 0.204915 -0.073417 0.698 0.560 0.698
v -0.177635 0.197915 -0.077917 0.698 0.560 0.698
v -0.148119 0.204915 -0.053632 0.698 0.560 0.698
v -0.153482 0.211915 -0.049132 0.698 0.560 0.698
v -0.158844 0.204915 -0.044632 0.698 0.560 0.698
v -0.153482 0.197915 -0.049132 0.698 0.560 0.698
f 701 702 706
f 701 706 705
f 702 703 707
f 702 707 706
f 703 704 708
f 703 708 707
f 704 701 705
f 704 705 708
v -0.152266 0.204915 -0.056026 0.698 0.560 0.698
v -0.153482 0.211915 -0.049132 0.698 0.560 0.698
v -0.154697 0.204915 -0.042238 0.698 0.560 0.698
v -0.153482 0.197915 -0.049132 0.698 0.560 0.698
v -0.115261 0.204915 -0.049501 0.698 0.560 0.698
v -0.116477 0.211915 -0.042607 0.698 0.560 0.698
v -0.117692 0.204915 -0.035713 0.698 0.560 0.698
v -0.116477 0.197915 -0.042607 0.698 0.560 0.698
f 709 710 714
f 709 714 713
f 710 711 715
f 710 715 714
f 711 712 716
f 711 716 715
f 712 709 713
f 712 713 716
v -0.119977 0.204915 -0.048669 0.698 0.560 0.698
v -0.116477 0.211915 -0.042607 0.698 0.560 0.698
v -0.112977 0.204915 -0.036545 0.698 0.560 0.698
v -0.116477 0.197915 -0.042607 0.698 0.560 0.698
v -0.087435 0.204915 -0.067457 0.698 0.560 0.698
v -0.083935 0.211915 -0.061395 0.698 0.560 0.698
v -0.080435 0.204915 -0.055333 0.698 0.560 0.698
v -0.083935 0.197915 -0.061395 0.698 0.560 0.698
f 717 718 722
f 717 722 721
f 718 719 723
f 718 723 722
f 719 720 724
f 719 724 723
f 720 717 721
f 720 721 724
v -0.090513 0.204915 -0.063789 0.698 0.560 0.698
v -0.083935 0.211915 -0.061395 0.698 0.560 0.698
v -0.077357 0.204915 -0.059001 0.698 0.560 0.698
v -0.083935 0.197915 -0.061395 0.698 0.560 0.698
v -0.077661 0.204915 -0.099099 0.698 0.560 0.698
v -0.071083 0.211915 -0.096705 0.698 0.560 0.698
v -0.064506 0.204915 -0.094310 0.698 0.560 0.698
v -0.071083 0.197915 -0.096705 0.698 0.560 0.698
f 725 726 730
f 725 730 729
f 726 727 731
f 726 731 730
f 727 728 732
f 727 732 731
f 728 725 729
f 728 729 732
v -0.157866 0.204915 -0.110460 0.338 0.150 0.338
v -0.170637 0.201247 -0.118364 0.338 0.150 0.338
v -0.176687 0.197578 -0.123365 0.338 0.150 0.338
v -0.181234 0.193909 -0.127717 0.338 0.150 0.338
v -0.184852 0.190241 -0.131668 0.338 0.150 0.338
v -0.187752 0.186572 -0.135309 0.338 0.150 0.338
v -0.190033 0.182903 -0.138682 0.338 0.150 0.338
v -0.191748 0.179235 -0.141811 0.338 0.150 0.338
v -0.192926 0.175566 -0.144708 0.338 0.150 0.338
v -0.193582 0.171897 -0.147380 0.338 0.150 0.338
v -0.193726 0.168229 -0.149830 0.338 0.150 0.338
v -0.193362 0.164560 -0.152061 0.338 0.150 0.338
v -0.192493 0.160891 -0.154074 0.338 0.150 0.338
v -0.191118 0.157223 -0.155868 0.338 0.150 0.338
v -0.189236 0.153554 -0.157444 0.338 0.150 0.338
v -0.186841 0.149885 -0.158798 0.338 0.150 0.338
v -0.183925 0.146217 -0.159926 0.338 0.150 0.338
v -0.180471 0.142548 -0.160823 0.338 0.150 0.338
v -0.176451 0.138879 -0.161475 0.338 0.150 0.338
v -0.171813 0.135210 -0.161860 0.338 0.150 0.338
v -0.166456 0.131542 -0.161935 0.338 0.150 0.338
v -0.160170 0.127873 -0.161608 0.338 0.150 0.338
v -0.152382 0.124204 -0.160633 0.338 0.150 0.338
v -0.137872 0.120536 -0.156754 0.338 0.150 0.338
v -0.125101 0.124204 -0.148851 0.338 0.150 0.338
v -0.119052 0.127873 -0.143850 0.338 0.150 0.338
v -0.114504 0.131542 -0.139497 0.338 0.150 0.338
v -0.110886 0.135210 -0.135547 0.338 0.150 0.338
v -0.107986 0.138879 -0.131906 0.338 0.150 0.338
v -0.105705 0.142548 -0.128533 0.338 0.150 0.338
v -0.103990 0.146217 -0.125404 0.338 0.150 0.338
v -0.102812 0.149885 -0.122507 0.338 0.150 0.338
v -0.102156 0.153554 -0.119835 0.338 0.150 0.338
v -0.102012 0.157223 -0.117385 0.338 0.150 0.338
v -0.102376 0.160891 -0.115154 0.338 0.150 0.338
v -0.103245 0.164560 -0.113141 0.338 0.150 0.338
v -0.104620 0.168229 -0.111347 0.338 0.150 0.338
v -0.106503 0.171897 -0.109771 0.338 0.150 0.338
v -0.108897 0.175566 -0.108417 0.338 0.150 0.338
v -0.111813 0.179235 -0.107288 0.338 0.150 0.338
v -0.115267 0.182903 -0.106392 0.338 0.150 0.338
v -0.119287 0.186572 -0.105740 0.338 0.150 0.338
v -0.123926 0.190241 -0.105355 0.338 0.150 0.338
v -0.129282 0.193909 -0.105280 0.338 0.150 0.338
v -0.135568 0.197578 -0.105607 0.338 0.150 0.338
v -0.143356 0.201247 -0.106582 0.338 0.150 0.338
f 733 734 735
f 733 735 734
f 733 735 736
f 733 736 735
f 733 736 737
f 733 737 736
f 733 737 738
f 733 738 737
f 733 738 739
f 733 739 738
f 733 739 740
f 733 740 739
f 733 740 741
f 733 741 740
f 733 741 742
f 733 742 741
f 733 742 743
f 733 743 742
f 733 743 744
f 733 744 743
f 733 744 745
f 733 745 744
f 733 745 746
f 733 746 745
f 733 746 747
f 733 747 746
f 733 747 748
f 733 748 747
f 733 748 749
f 733 749 748
f 733 749 750
f 733 750 749
f 733 750 751
f 733 751 750
f 733 751 752
f 733 752 751
f 733 752 753
f 733 753 752
f 733 753 754
f 733 754 753
f 733 754 755
f 733 755 754
f 733 755 756
f 733 756 755
f 733 756 757
f 733 757 756
f 733 757 758
f 733 758 757
f 733 758 759
f 733 759 758
f 733 759 760
f 733 760 759
f 733 760 761
f 733 761 760
f 733 761 762
f 733 762 761
f 733 762 763
f 733 763 762
f 733 763 764
f 733 764 763
f 733 764 765
f 733 765 764
f 733 765 766
f 733 766 765
f 733 766 767
f 733 767 766
f 733 767 768
f 733 768 767
f 733 768 769
f 733 769 768
f 733 769 770
f 733 770 769
f 733 770 771
f 733 771 770
f 733 771 772
f 733 772 771
f 733 772 773
f 733 773 772
f 733 773 774
f 733 774 773
f 733 774 775
f 733 775 774
f 733 775 776
f 733 776 775
f 733 776 777
f 733 777 776
f 733 777 778
f 733 778 777
v -0.050515 0.547681 -0.086766 0.200 0.440 0.170
v -0.048321 0.550220 -0.091320 0.200 0.440 0.170
v -0.043360 0.547681 -0.090344 0.200 0.440 0.170
v -0.045555 0.545143 -0.085790 0.200 0.440 0.170
v -0.098038 0.415853 -0.184022 0.200 0.440 0.170
v -0.096392 0.417756 -0.187438 0.200 0.440 0.170
v -0.092672 0.415853 -0.186706 0.200 0.440 0.170
v -0.094318 0.413949 -0.183290 0.200 0.440 0.170
f 779 780 784
f 779 784 783
f 780 781 785
f 780 785 784
f 781 782 786
f 781 786 785
f 782 779 783
f 782 783 786
v -0.095355 0.423659 -0.185364 0.450 0.200 0.450
v -0.095355 0.423659 -0.185364 0.450 0.200 0.450
v -0.095355 0.423659 -0.185364 0.450 0.200 0.450
v -0.095355 0.423659 -0.185364 0.450 0.200 0.450
v -0.095355 0.423659 -0.185364 0.450 0.200 0.450
v -0.095355 0.423659 -0.185364 0.450 0.200 0.450
v -0.095355 0.423659 -0.185364 0.450 0.200 0.450
v -0.095355 0.423659 -0.185364 0.450 0.200 0.450
v -0.095355 0.423659 -0.185364 0.450 0.200 0.450
v -0.049473 0.398315 -0.185364 0.450 0.200 0.450
v -0.060207 0.398315 -0.214856 0.450 0.200 0.450
v -0.087387 0.398315 -0.230549 0.450 0.200 0.450
v -0.118296 0.398315 -0.225099 0.450 0.200 0.450
v -0.138470 0.398315 -0.201057 0.450 0.200 0.450
v -0.138470 0.398315 -0.169671 0.450 0.200 0.450
v -0.118296 0.398315 -0.145629 0.450 0.200 0.450
v -0.087387 0.398315 -0.140179 0.450 0.200 0.450
v -0.060207 0.398315 -0.155872 0.450 0.200 0.450
v -0.021116 0.331965 -0.185364 0.450 0.200 0.450
v -0.038485 0.331965 -0.233084 0.450 0.200 0.450
v -0.082463 0.331965 -0.258475 0.450 0.200 0.450
v -0.132474 0.331965 -0.249657 0.450 0.200 0.450
v -0.165116 0.331965 -0.210755 0.450 0.200 0.450
v -0.165116 0.331965 -0.159973 0.450 0.200 0.450
v -0.132474 0.331965 -0.121071 0.450 0.200 0.450
v -0.082463 0.331965 -0.112253 0.450 0.200 0.450
v -0.038485 0.331965 -0.137644 0.450 0.200 0.450
v -0.021116 0.249951 -0.185364 0.450 0.200 0.450
v -0.038485 0.249951 -0.233084 0.450 0.200 0.450
v -0.082463 0.249951 -0.258475 0.450 0.200 0.450
v -0.132474 0.249951 -0.249657 0.450 0.200 0.450
v -0.165116 0.249951 -0.210755 0.450 0.200 0.450
v -0.165116 0.249951 -0.159973 0.450 0.200 0.450
v -0.132474 0.249951 -0.121071 0.450 0.200 0.450
v -0.082463 0.249951 -0.112253 0.450 0.200 0.450
v -0.038485 0.249951 -0.137644 0.450 0.200 0.450
v -0.049473 0.183601 -0.185364 0.450 0.200 0.450
v -0.060207 0.183601 -0.214856 0.450 0.200 0.450
v -0.087387 0.183601 -0.230549 0.450 0.200 0.450
v -0.118296 0.183601 -0.225099 0.450 0.200 0.450
v -0.138470 0.183601 -0.201057 0.450 0.200 0.450
v -0.138470 0.183601 -0.169671 0.450 0.200 0.450
v -0.118296 0.183601 -0.145629 0.450 0.200 0.450
v -0.087387 0.183601 -0.140179 0.450 0.200 0.450
v -0.060207 0.183601 -0.155872 0.450 0.200 0.450
v -0.095355 0.158257 -0.185364 0.450 0.200 0.450
v -0.095355 0.158257 -0.185364 0.450 0.200 0.450
v -0.095355 0.158257 -0.185364 0.450 0.200 0.450
v -0.095355 0.158257 -0.185364 0.450 0.200 0.450
v -0.095355 0.158257 -0.185364 0.450 0.200 0.450
v -0.095355 0.158257 -0.185364 0.450 0.200 0.450
v -0.095355 0.158257 -0.185364 0.450 0.200 0.450
v -0.095355 0.158257 -0.185364 0.450 0.200 0.450
v -0.095355 0.158257 -0.185364 0.450 0.200 0.450
f 787 797 788
f 787 796 797
f 788 798 789
f 788 797 798
f 789 799 790
f 789 798 799
f 790 800 791
f 790 799 800
f 791 801 792
f 791 800 801
f 792 802 793
f 792 801 802
f 793 803 794
f 793 802 803
f 794 804 795
f 794 803 804
f 795 796 787
f 795 804 796
f 796 806 797
f 796 805 806
f 797 807 798
f 797 806 807
f 798 808 799
f 798 807 808
f 799 809 800
f 799 808 809
f 800 810 801
f 800 809 810
f 801 811 802
f 801 810 811
f 802 812 803
f 802 811 812
f 803 813 804
f 803 812 813
f 804 805 796
f 804 813 805
f 805 815 806
f 805 814 815
f 806 816 807
f 806 815 816
f 807 817 808
f 807 816 817
f 808 818 809
f 808 817 818
f 809 819 810
f 809 818 819
f 810 820 811
f 810 819 820
f 811 821 812
f 811 820 821
f 812 822 813
f 812 821 822
f 813 814 805
f 813 822 814
f 814 824 815
f 814 823 824
f 815 825 816
f 815 824 825
f 816 826 817
f 816 825 826
f 817 827 818
f 817 826 827
f 818 828 819
f 818 827 828
f 819 829 820
f 819 828 829
f 820 830 821
f 820 829 830
f 821 831 822
f 821 830 831
f 822 823 814
f 822 831 823
f 823 833 824
f 823 832 833
f 824 834 825
f 824 833 834
f 825 835 826
f 825 834 835
f 826 836 827
f 826 835 836
f 827 837 828
f 827 836 837
f 828 838 829
f 828 837 838
f 829 839 830
f 829 838 839
f 830 840 831
f 830 839 840
f 831 832 823
f 831 840 832
v -0.027776 0.408047 -0.182970 0.698 0.560 0.698
v -0.021198 0.415047 -0.185364 0.698 0.560 0.698
v -0.014621 0.408047 -0.187758 0.698 0.560 0.698
v -0.021198 0.401047 -0.185364 0.698 0.560 0.698
v -0.045126 0.408047 -0.230637 0.698 0.560 0.698
v -0.038548 0.415047 -0.233031 0.698 0.560 0.698
v -0.031970 0.408047 -0.235425 0.698 0.560 0.698
v -0.038548 0.401047 -0.233031 0.698 0.560 0.698
f 841 842 846
f 841 846 845
f 842 843 847
f 842 847 846
f 843 844 848
f 843 848 847
f 844 841 845
f 844 845 848
v -0.042048 0.408047 -0.226969 0.698 0.560 0.698
v -0.038548 0.415047 -0.233031 0.698 0.560 0.698
v -0.035048 0.408047 -0.239093 0.698 0.560 0.698
v -0.038548 0.401047 -0.233031 0.698 0.560 0.698
v -0.085978 0.408047 -0.252331 0.698 0.560 0.698
v -0.082478 0.415047 -0.258394 0.698 0.560 0.698
v -0.078978 0.408047 -0.264456 0.698 0.560 0.698
v -0.082478 0.401047 -0.258394 0.698 0.560 0.698
f 849 850 854
f 849 854 853
f 850 851 855
f 850 855 854
f 851 852 856
f 851 856 855
f 852 849 853
f 852 853 856
v -0.081262 0.408047 -0.251500 0.698 0.560 0.698
v -0.082478 0.415047 -0.258394 0.698 0.560 0.698
v -0.083693 0.408047 -0.265287 0.698 0.560 0.698
v -0.082478 0.401047 -0.258394 0.698 0.560 0.698
v -0.131217 0.408047 -0.242692 0.698 0.560 0.698
v -0.132433 0.415047 -0.249585 0.698 0.560 0.698
v -0.133648 0.408047 -0.256479 0.698 0.560 0.698
v -0.132433 0.401047 -0.249585 0.698 0.560 0.698
f 857 858 862
f 857 862 861
f 858 859 863
f 858 863 862
f 859 860 864
f 859 864 863
f 860 857 861
f 860 861 864
v -0.127071 0.408047 -0.245086 0.698 0.560 0.698
v -0.132433 0.415047 -0.249585 0.698 0.560 0.698
v -0.137795 0.408047 -0.254085 0.698 0.560 0.698
v -0.132433 0.401047 -0.249585 0.698 0.560 0.698
v -0.159677 0.408047 -0.206227 0.698 0.560 0.698
v -0.165039 0.415047 -0.210727 0.698 0.560 0.698
v -0.170401 0.408047 -0.215226 0.698 0.560 0.698
v -0.165039 0.401047 -0.210727 0.698 0.560 0.698
f 865 866 870
f 865 870 869
f 866 867 871
f 866 871 870
f 867 868 872
f 867 872 871
f 868 865 869
f 868 869 872
v -0.158039 0.408047 -0.210727 0.698 0.560 0.698
v -0.165039 0.415047 -0.210727 0.698 0.560 0.698
v -0.172039 0.408047 -0.210727 0.698 0.560 0.698
v -0.165039 0.401047 -0.210727 0.698 0.560 0.698
v -0.158039 0.408047 -0.160001 0.698 0.560 0.698
v -0.165039 0.415047 -0.160001 0.698 0.560 0.698
v -0.172039 0.408047 -0.160001 0.698 0.560 0.698
v -0.165039 0.401047 -0.160001 0.698 0.560 0.698
f 873 874 878
f 873 878 877
f 874 875 879
f 874 879 878
f 875 876 880
f 875 880 879
f 876 873 877
f 876 877 880
v -0.159677 0.408047 -0.164501 0.698 0.560 0.698
v -0.165039 0.415047 -0.160001 0.698 0.560 0.698
v -0.170401 0.408047 -0.155502 0.698 0.560 0.698
v -0.165039 0.401047 -0.160001 0.698 0.560 0.698
v -0.127071 0.408047 -0.125642 0.698 0.560 0.698
v -0.132433 0.415047 -0.121143 0.698 0.560 0.698
v -0.137795 0.408047 -0.116643 0.698 0.560 0.698
v -0.132433 0.401047 -0.121143 0.698 0.560 0.698
f 881 882 886
f 881 886 885
f 882 883 887
f 882 887 886
f 883 884 888
f 883 888 887
f 884 881 885
f 884 885 888
v -0.131217 0.408047 -0.128036 0.698 0.560 0.698
v -0.132433 0.415047 -0.121143 0.698 0.560 0.698
v -0.133648 0.408047 -0.114249 0.698 0.560 0.698
v -0.132433 0.401047 -0.121143 0.698 0.560 0.698
v -0.081262 0.408047 -0.119228 0.698 0.560 0.698
v -0.082478 0.415047 -0.112334 0.698 0.560 0.698
v -0.083693 0.408047 -0.105441 0.698 0.560 0.698
v -0.082478 0.401047 -0.112334 0.698 0.560 0.698
f 889 890 894
f 889 894 893
f 890 891 895
f 890 895 894
f 891 892 896
f 891 896 895
f 892 889 893
f 892 893 896
v -0.085978 0.408047 -0.118396 0.698 0.560 0.698
v -0.082478 0.415047 -0.112334 0.698 0.560 0.698
v -0.078978 0.408047 -0.106272 0.698 0.560 0.698
v -0.082478 0.401047 -0.112334 0.698 0.560 0.698
v -0.042048 0.408047 -0.143759 0.698 0.560 0.698
v -0.038548 0.415047 -0.137697 0.698 0.560 0.698
v -0.035048 0.408047 -0.131635 0.698 0.560 0.698
v -0.038548 0.401047 -0.137697 0.698 0.560 0.698
f 897 898 902
f 897 902 901
f 898 899 903
f 898 903 902
f 899 900 904
f 899 904 903
f 900 897 901
f 900 901 904
v -0.045126 0.408047 -0.140091 0.698 0.560 0.698
v -0.038548 0.415047 -0.137697 0.698 0.560 0.698
v -0.031970 0.408047 -0.135303 0.698 0.560 0.698
v -0.038548 0.401047 -0.137697 0.698 0.560 0.698
v -0.027776 0.408047 -0.187758 0.698 0.560 0.698
v -0.021198 0.415047 -0.185364 0.698 0.560 0.698
v -0.014621 0.408047 -0.182970 0.698 0.560 0.698
v -0.021198 0.401047 -0.185364 0.698 0.560 0.698
f 905 906 910
f 905 910 909
f 906 907 911
f 906 911 910
f 907 908 912
f 907 912 911
f 908 905 909
f 908 909 912
v -0.116305 0.408047 -0.227253 0.338 0.150 0.338
v -0.124088 0.402432 -0.245787 0.338 0.150 0.338
v -0.127451 0.396818 -0.255480 0.338 0.150 0.338
v -0.129825 0.391203 -0.263199 0.338 0.150 0.338
v -0.131588 0.385589 -0.269695 0.338 0.150 0.338
v -0.132879 0.379974 -0.275246 0.338 0.150 0.338
v -0.133763 0.374360 -0.279984 0.338 0.150 0.338
v -0.134274 0.368745 -0.283978 0.338 0.150 0.338
v -0.134432 0.363131 -0.287264 0.338 0.150 0.338
v -0.134247 0.357516 -0.289864 0.338 0.150 0.338
v -0.133725 0.351902 -0.291791 0.338 0.150 0.338
v -0.132869 0.346287 -0.293050 0.338 0.150 0.338
v -0.131681 0.340673 -0.293645 0.338 0.150 0.338
v -0.130160 0.335058 -0.293574 0.338 0.150 0.338
v -0.128305 0.329444 -0.292836 0.338 0.150 0.338
v -0.126113 0.323829 -0.291425 0.338 0.150 0.338
v -0.123578 0.318215 -0.289327 0.338 0.150 0.338
v -0.120690 0.312600 -0.286522 0.338 0.150 0.338
v -0.117429 0.306986 -0.282973 0.338 0.150 0.338
v -0.113761 0.301371 -0.278610 0.338 0.150 0.338
v -0.109622 0.295757 -0.273304 0.338 0.150 0.338
v -0.104870 0.290142 -0.266774 0.338 0.150 0.338
v -0.099131 0.284528 -0.258269 0.338 0.150 0.338
v -0.088970 0.278913 -0.240924 0.338 0.150 0.338
v -0.081187 0.284528 -0.222390 0.338 0.150 0.338
v -0.077824 0.290142 -0.212696 0.338 0.150 0.338
v -0.075450 0.295757 -0.204977 0.338 0.150 0.338
v -0.073687 0.301371 -0.198482 0.338 0.150 0.338
v -0.072396 0.306986 -0.192930 0.338 0.150 0.338
v -0.071512 0.312600 -0.188192 0.338 0.150 0.338
v -0.071000 0.318215 -0.184199 0.338 0.150 0.338
v -0.070843 0.323829 -0.180912 0.338 0.150 0.338
v -0.071028 0.329444 -0.178312 0.338 0.150 0.338
v -0.071550 0.335058 -0.176385 0.338 0.150 0.338
v -0.072406 0.340673 -0.175126 0.338 0.150 0.338
v -0.073594 0.346287 -0.174532 0.338 0.150 0.338
v -0.075115 0.351902 -0.174602 0.338 0.150 0.338
v -0.076970 0.357516 -0.175340 0.338 0.150 0.338
v -0.079162 0.363131 -0.176752 0.338 0.150 0.338
v -0.081697 0.368745 -0.178849 0.338 0.150 0.338
v -0.084585 0.374360 -0.181654 0.338 0.150 0.338
v -0.087846 0.379974 -0.185203 0.338 0.150 0.338
v -0.091513 0.385589 -0.189566 0.338 0.150 0.338
v -0.095653 0.391203 -0.194873 0.338 0.150 0.338
v -0.100405 0.396818 -0.201403 0.338 0.150 0.338
v -0.106144 0.402432 -0.209908 0.338 0.150 0.338
f 913 914 915
f 913 915 914
f 913 915 916
f 913 916 915
f 913 916 917
f 913 917 916
f 913 917 918
f 913 918 917
f 913 918 919
f 913 919 918
f 913 919 920
f 913 920 919
f 913 920 921
f 913 921 920
f 913 921 922
f 913 922 921
f 913 922 923
f 913 923 922
f 913 923 924
f 913 924 923
f 913 924 925
f 913 925 924
f 913 925 926
f 913 926 925
f 913 926 927
f 913 927 926
f 913 927 928
f 913 928 927
f 913 928 929
f 913 929 928
f 913 929 930
f 913 930 929
f 913 930 931
f 913 931 930
f 913 931 932
f 913 932 931
f 913 932 933
f 913 933 932
f 913 933 934
f 913 934 933
f 913 934 935
f 913 935 934
f 913 935 936
f 913 936 935
f 913 936 937
f 913 937 936
f 913 937 938
f 913 938 937
f 913 938 939
f 913 939 938
f 913 939 940
f 913 940 939
f 913 940 941
f 913 941 940
f 913 941 942
f 913 942 941
f 913 942 943
f 913 943 942
f 913 943 944
f 913 944 943
f 913 944 945
f 913 945 944
f 913 945 946
f 913 946 945
f 913 946 947
f 913 947 946
f 913 947 948
f 913 948 947
f 913 948 949
f 913 949 948
f 913 949 950
f 913 950 949
f 913 950 951
f 913 951 950
f 913 951 952
f 913 952 951
f 913 952 953
f 913 953 952
f 913 953 954
f 913 954 953
f 913 954 955
f 913 955 954
f 913 955 956
f 913 956 955
f 913 956 957
f 913 957 956
f 913 957 958
f 913 958 957
v -0.069923 0.664400 -0.126413 0.200 0.440 0.170
v -0.072223 0.666773 -0.131004 0.200 0.440 0.170
v -0.068229 0.664400 -0.134231 0.200 0.440 0.170
v -0.065929 0.662028 -0.129640 0.200 0.440 0.170
v -0.215119 0.462474 -0.158892 0.200 0.440 0.170
v -0.216844 0.464254 -0.162335 0.200 0.440 0.170
v -0.213848 0.462474 -0.164756 0.200 0.440 0.170
v -0.212123 0.460695 -0.161312 0.200 0.440 0.170
f 959 960 964
f 959 964 963
f 960 961 965
f 960 965 964
f 961 962 966
f 961 966 965
f 962 959 963
f 962 963 966
v -0.214484 0.469627 -0.161824 0.450 0.200 0.450
v -0.214484 0.469627 -0.161824 0.450 0.200 0.450
v -0.214484 0.469627 -0.161824 0.450 0.200 0.450
v -0.214484 0.469627 -0.161824 0.450 0.200 0.450
v -0.214484 0.469627 -0.161824 0.450 0.200 0.450
v -0.214484 0.469627 -0.161824 0.450 0.200 0.450
v -0.214484 0.469627 -0.161824 0.450 0.200 0.450
v -0.214484 0.469627 -0.161824 0.450 0.200 0.450
v -0.214484 0.469627 -0.161824 0.450 0.200 0.450
v -0.172439 0.446403 -0.161824 0.450 0.200 0.450
v -0.182276 0.446403 -0.188849 0.450 0.200 0.450
v -0.207183 0.446403 -0.203229 0.450 0.200 0.450
v -0.235506 0.446403 -0.198235 0.450 0.200 0.450
v -0.253992 0.446403 -0.176204 0.450 0.200 0.450
v -0.253992 0.446403 -0.147444 0.450 0.200 0.450
v -0.235506 0.446403 -0.125412 0.450 0.200 0.450
v -0.207183 0.446403 -0.120418 0.450 0.200 0.450
v -0.182276 0.446403 -0.134798 0.450 0.200 0.450
v -0.146454 0.385603 -0.161824 0.450 0.200 0.450
v -0.162370 0.385603 -0.205552 0.450 0.200 0.450
v -0.202670 0.385603 -0.228819 0.450 0.200 0.450
v -0.248498 0.385603 -0.220739 0.450 0.200 0.450
v -0.278410 0.385603 -0.185091 0.450 0.200 0.450
v -0.278410 0.385603 -0.138557 0.450 0.200 0.450
v -0.248498 0.385603 -0.102909 0.450 0.200 0.450
v -0.202670 0.385603 -0.094828 0.450 0.200 0.450
v -0.162370 0.385603 -0.118096 0.450 0.200 0.450
v -0.146454 0.310449 -0.161824 0.450 0.200 0.450
v -0.162370 0.310449 -0.205552 0.450 0.200 0.450
v -0.202670 0.310449 -0.228819 0.450 0.200 0.450
v -0.248498 0.310449 -0.220739 0.450 0.200 0.450
v -0.278410 0.310449 -0.185091 0.450 0.200 0.450
v -0.278410 0.310449 -0.138557 0.450 0.200 0.450
v -0.248498 0.310449 -0.102909 0.450 0.200 0.450
v -0.202670 0.310449 -0.094828 0.450 0.200 0.450
v -0.162370 0.310449 -0.118096 0.450 0.200 0.450
v -0.172439 0.249649 -0.161824 0.450 0.200 0.450
v -0.182276 0.249649 -0.188849 0.450 0.200 0.450
v -0.207183 0.249649 -0.203229 0.450 0.200 0.450
v -0.235506 0.249649 -0.198235 0.450 0.200 0.450
v -0.253992 0.249649 -0.176204 0.450 0.200 0.450
v -0.253992 0.249649 -0.147444 0.450 0.200 0.450
v -0.235506 0.249649 -0.125412 0.450 0.200 0.450
v -0.207183 0.249649 -0.120418 0.450 0.200 0.450
v -0.182276 0.249649 -0.134798 0.450 0.200 0.450
v -0.214484 0.226425 -0.161824 0.450 0.200 0.450
v -0.214484 0.226425 -0.161824 0.450 0.200 0.450
v -0.214484 0.226425 -0.161824 0.450 0.200 0.450
v -0.214484 0.226425 -0.161824 0.450 0.200 0.450
v -0.214484 0.226425 -0.161824 0.450 0.200 0.450
v -0.214484 0.226425 -0.161824 0.450 0.200 0.450
v -0.214484 0.226425 -0.161824 0.450 0.200 0.450
v -0.214484 0.226425 -0.161824 0.450 0.200 0.450
v -0.214484 0.226425 -0.161824 0.450 0.200 0.450
f 967 977 968
f 967 976 977
f 968 978 969
f 968 977 978
f 969 979 970
f 969 978 979
f 970 980 971
f 970 979 980
f 971 981 972
f 971 980 981
f 972 982 973
f 972 981 982
f 973 983 974
f 973 982 983
f 974 984 975
f 974 983 984
f 975 976 967
f 975 984 976
f 976 986 977
f 976 985 986
f 977 987 978
f 977 986 987
f 978 988 979
f 978 987 988
f 979 989 980
f 979 988 989
f 980 990 981
f 980 989 990
f 981 991 982
f 981 990 991
f 982 992 983
f 982 991 992
f 983 993 984
f 983 992 993
f 984 985 976
f 984 993 985
f 985 995 986
f 985 994 995
f 986 996 987
f 986 995 996
f 987 997 988
f 987 996 997
f 988 998 989
f 988 997 998
f 989 999 990
f 989 998 999
f 990 1000 991
f 990 999 1000
f 991 1001 992
f 991 1000 1001
f 992 1002 993
f 992 1001 1002
f 993 994 985
f 993 1002 994
f 994 1004 995
f 994 1003 1004
f 995 1005 996
f 995 1004 1005
f 996 1006 997
f 996 1005 1006
f 997 1007 998
f 997 1006 1007
f 998 1008 999
f 998 1007 1008
f 999 1009 1000
f 999 1008 1009
f 1000 1010 1001
f 1000 1009 1010
f 1001 1011 1002
f 1001 1010 1011
f 1002 1003 994
f 1002 1011 1003
f 1003 1013 1004
f 1003 1012 1013
f 1004 1014 1005
f 1004 1013 1014
f 1005 1015 1006
f 1005 1014 1015
f 1006 1016 1007
f 1006 1015 1016
f 1007 1017 1008
f 1007 1016 1017
f 1008 1018 1009
f 1008 1017 1018
f 1009 1019 1010
f 1009 1018 1019
f 1010 1020 1011
f 1010 1019 1020
f 1011 1012 1003
f 1011 1020 1012
v -0.153108 0.455321 -0.159430 0.698 0.560 0.698
v -0.146530 0.462321 -0.161824 0.698 0.560 0.698
v -0.139952 0.455321 -0.164218 0.698 0.560 0.698
v -0.146530 0.448321 -0.161824 0.698 0.560 0.698
v -0.169006 0.455321 -0.203109 0.698 0.560 0.698
v -0.162428 0.462321 -0.205503 0.698 0.560 0.698
v -0.155850 0.455321 -0.207898 0.698 0.560 0.698
v -0.162428 0.448321 -0.205503 0.698 0.560 0.698
f 1021 1022 1026
f 1021 1026 1025
f 1022 1023 1027
f 1022 1027 1026
f 1023 1024 1028
f 1023 1028 1027
f 1024 1021 1025
f 1024 1025 1028
v -0.165928 0.455321 -0.199441 0.698 0.560 0.698
v -0.162428 0.462321 -0.205503 0.698 0.560 0.698
v -0.158928 0.455321 -0.211566 0.698 0.560 0.698
v -0.162428 0.448321 -0.205503 0.698 0.560 0.698
v -0.206184 0.455321 -0.222683 0.698 0.560 0.698
v -0.202684 0.462321 -0.228745 0.698 0.560 0.698
v -0.199184 0.455321 -0.234807 0.698 0.560 0.698
v -0.202684 0.448321 -0.228745 0.698 0.560 0.698
f 1029 1030 1034
f 1029 1034 1033
f 1030 1031 1035
f 1030 1035 1034
f 1031 1032 1036
f 1031 1036 1035
f 1032 1029 1033
f 1032 1033 1036
v -0.201468 0.455321 -0.221851 0.698 0.560 0.698
v -0.202684 0.462321 -0.228745 0.698 0.560 0.698
v -0.203899 0.455321 -0.235639 0.698 0.560 0.698
v -0.202684 0.448321 -0.228745 0.698 0.560 0.698
v -0.247245 0.455321 -0.213780 0.698 0.560 0.698
v -0.248460 0.462321 -0.220673 0.698 0.560 0.698
v -0.249676 0.455321 -0.227567 0.698 0.560 0.698
v -0.248460 0.448321 -0.220673 0.698 0.560 0.698
f 1037 1038 1042
f 1037 1042 1041
f 1038 1039 1043
f 1038 1043 1042
f 1039 1040 1044
f 1039 1044 1043
f 1040 1037 1041
f 1040 1041 1044
v -0.243098 0.455321 -0.216174 0.698 0.560 0.698
v -0.248460 0.462321 -0.220673 0.698 0.560 0.698
v -0.253823 0.455321 -0.225173 0.698 0.560 0.698
v -0.248460 0.448321 -0.220673 0.698 0.560 0.698
v -0.272977 0.455321 -0.180566 0.698 0.560 0.698
v -0.278339 0.462321 -0.185065 0.698 0.560 0.698
v -0.283701 0.455321 -0.189565 0.698 0.560 0.698
v -0.278339 0.448321 -0.185065 0.698 0.560 0.698
f 1045 1046 1050
f 1045 1050 1049
f 1046 1047 1051
f 1046 1051 1050
f 1047 1048 1052
f 1047 1052 1051
f 1048 1045 1049
f 1048 1049 1052
v -0.271339 0.455321 -0.185065 0.698 0.560 0.698
v -0.278339 0.462321 -0.185065 0.698 0.560 0.698
v -0.285339 0.455321 -0.185065 0.698 0.560 0.698
v -0.278339 0.448321 -0.185065 0.698 0.560 0.698
v -0.271339 0.455321 -0.138582 0.698 0.560 0.698
v -0.278339 0.462321 -0.138582 0.698 0.560 0.698
v -0.285339 0.455321 -0.138582 0.698 0.560 0.698
v -0.278339 0.448321 -0.138582 0.698 0.560 0.698
f 1053 1054 1058
f 1053 1058 1057
f 1054 1055 1059
f 1054 1059 1058
f 1055 1056 1060
f 1055 1060 1059
f 1056 1053 1057
f 1056 1057 1060
v -0.272977 0.455321 -0.143082 0.698 0.560 0.698
v -0.278339 0.462321 -0.138582 0.698 0.560 0.698
v -0.283701 0.455321 -0.134083 0.698 0.560 0.698
v -0.278339 0.448321 -0.138582 0.698 0.560 0.698
v -0.243098 0.455321 -0.107474 0.698 0.560 0.698
v -0.248460 0.462321 -0.102974 0.698 0.560 0.698
v -0.253823 0.455321 -0.098475 0.698 0.560 0.698
v -0.248460 0.448321 -0.102974 0.698 0.560 0.698
f 1061 1062 1066
f 1061 1066 1065
f 1062 1063 1067
f 1062 1067 1066
f 1063 1064 1068
f 1063 1068 1067
f 1064 1061 1065
f 1064 1065 1068
v -0.247245 0.455321 -0.109868 0.698 0.560 0.698
v -0.248460 0.462321 -0.102974 0.698 0.560 0.698
v -0.249676 0.455321 -0.096081 0.698 0.560 0.698
v -0.248460 0.448321 -0.102974 0.698 0.560 0.698
v -0.201468 0.455321 -0.101796 0.698 0.560 0.698
v -0.202684 0.462321 -0.094903 0.698 0.560 0.698
v -0.203899 0.455321 -0.088009 0.698 0.560 0.698
v -0.202684 0.448321 -0.094903 0.698 0.560 0.698
f 1069 1070 1074
f 1069 1074 1073
f 1070 1071 1075
f 1070 1075 1074
f 1071 1072 1076
f 1071 1076 1075
f 1072 1069 1073
f 1072 1073 1076
v -0.206184 0.455321 -0.100965 0.698 0.560 0.698
v -0.202684 0.462321 -0.094903 0.698 0.560 0.698
v -0.199184 0.455321 -0.088841 0.698 0.560 0.698
v -0.202684 0.448321 -0.094903 0.698 0.560 0.698
v -0.165928 0.455321 -0.124206 0.698 0.560 0.698
v -0.162428 0.462321 -0.118144 0.698 0.560 0.698
v -0.158928 0.455321 -0.112082 0.698 0.560 0.698
v -0.162428 0.448321 -0.118144 0.698 0.560 0.698
f 1077 1078 1082
f 1077 1082 1081
f 1078 1079 1083
f 1078 1083 1082
f 1079 1080 1084
f 1079 1084 1083
f 1080 1077 1081
f 1080 1081 1084
v -0.169006 0.455321 -0.120538 0.698 0.560 0.698
v -0.162428 0.462321 -0.118144 0.698 0.560 0.698
v -0.155850 0.455321 -0.115750 0.698 0.560 0.698
v -0.162428 0.448321 -0.118144 0.698 0.560 0.698
v -0.153108 0.455321 -0.164218 0.698 0.560 0.698
v -0.146530 0.462321 -0.161824 0.698 0.560 0.698
v -0.139952 0.455321 -0.159430 0.698 0.560 0.698
v -0.146530 0.448321 -0.161824 0.698 0.560 0.698
f 1085 1086 1090
f 1085 1090 1089
f 1086 1087 1091
f 1086 1091 1090
f 1087 1088 1092
f 1087 1092 1091
f 1088 1085 1089
f 1088 1089 1092
v -0.256428 0.455321 -0.170911 0.338 0.150 0.338
v -0.274025 0.450325 -0.176494 0.338 0.150 0.338
v -0.282770 0.445330 -0.180160 0.338 0.150 0.338
v -0.289538 0.440334 -0.183397 0.338 0.150 0.338
v -0.295081 0.435339 -0.186369 0.338 0.150 0.338
v -0.299678 0.430343 -0.189136 0.338 0.150 0.338
v -0.303461 0.425347 -0.191726 0.338 0.150 0.338
v -0.306498 0.420352 -0.194155 0.338 0.150 0.338
v -0.308827 0.415356 -0.196431 0.338 0.150 0.338
v -0.310469 0.410360 -0.198558 0.338 0.150 0.338
v -0.311437 0.405365 -0.200538 0.338 0.150 0.338
v -0.311736 0.400369 -0.202374 0.338 0.150 0.338
v -0.311369 0.395373 -0.204066 0.338 0.150 0.338
v -0.310337 0.390378 -0.205613 0.338 0.150 0.338
v -0.308637 0.385382 -0.207016 0.338 0.150 0.338
v -0.306261 0.380386 -0.208272 0.338 0.150 0.338
v -0.303199 0.375391 -0.209380 0.338 0.150 0.338
v -0.299429 0.370395 -0.210334 0.338 0.150 0.338
v -0.294914 0.365400 -0.211127 0.338 0.150 0.338
v -0.289583 0.360404 -0.211743 0.338 0.150 0.338
v -0.283308 0.355408 -0.212154 0.338 0.150 0.338
v -0.275807 0.350413 -0.212301 0.338 0.150 0.338
v -0.266329 0.345417 -0.212018 0.338 0.150 0.338
v -0.247999 0.340421 -0.209818 0.338 0.150 0.338
v -0.230402 0.345417 -0.204235 0.338 0.150 0.338
v -0.221657 0.350413 -0.200569 0.338 0.150 0.338
v -0.214890 0.355408 -0.197332 0.338 0.150 0.338
v -0.209347 0.360404 -0.194360 0.338 0.150 0.338
v -0.204750 0.365400 -0.191593 0.338 0.150 0.338
v -0.200967 0.370395 -0.189003 0.338 0.150 0.338
v -0.197930 0.375391 -0.186574 0.338 0.150 0.338
v -0.195601 0.380386 -0.184298 0.338 0.150 0.338
v -0.193959 0.385382 -0.182171 0.338 0.150 0.338
v -0.192991 0.390378 -0.180191 0.338 0.150 0.338
v -0.192692 0.395373 -0.178355 0.338 0.150 0.338
v -0.193058 0.400369 -0.176663 0.338 0.150 0.338
v -0.194091 0.405365 -0.175116 0.338 0.150 0.338
v -0.195791 0.410360 -0.173713 0.338 0.150 0.338
v -0.198167 0.415356 -0.172457 0.338 0.150 0.338
v -0.201229 0.420352 -0.171349 0.338 0.150 0.338
v -0.204999 0.425347 -0.170395 0.338 0.150 0.338
v -0.209514 0.430343 -0.169602 0.338 0.150 0.338
v -0.214844 0.435339 -0.168986 0.338 0.150 0.338
v -0.221120 0.440334 -0.168575 0.338 0.150 0.338
v -0.228620 0.445330 -0.168429 0.338 0.150 0.338
v -0.238098 0.450325 -0.168711 0.338 0.150 0.338
f 1093 1094 1095
f 1093 1095 1094
f 1093 1095 1096
f 1093 1096 1095
f 1093 1096 1097
f 1093 1097 1096
f 1093 1097 1098
f 1093 1098 1097
f 1093 1098 1099
f 1093 1099 1098
f 1093 1099 1100
f 1093 1100 1099
f 1093 1100 1101
f 1093 1101 1100
f 1093 1101 1102
f 1093 1102 1101
f 1093 1102 1103
f 1093 1103 1102
f 1093 1103 1104
f 1093 1104 1103
f 1093 1104 1105
f 1093 1105 1104
f 1093 1105 1106
f 1093 1106 1105
f 1093 1106 1107
f 1093 1107 1106
f 1093 1107 1108
f 1093 1108 1107
f 1093 1108 1109
f 1093 1109 1108
f 1093 1109 1110
f 1093 1110 1109
f 1093 1110 1111
f 1093 1111 1110
f 1093 1111 1112
f 1093 1112 1111
f 1093 1112 1113
f 1093 1113 1112
f 1093 1113 1114
f 1093 1114 1113
f 1093 1114 1115
f 1093 1115 1114
f 1093 1115 1116
f 1093 1116 1115
f 1093 1116 1117
f 1093 1117 1116
f 1093 1117 1118
f 1093 1118 1117
f 1093 1118 1119
f 1093 1119 1118
f 1093 1119 1120
f 1093 1120 1119
f 1093 1120 1121
f 1093 1121 1120
f 1093 1121 1122
f 1093 1122 1121
f 1093 1122 1123
f 1093 1123 1122
f 1093 1123 1124
f 1093 1124 1123
f 1093 1124 1125
f 1093 1125 1124
f 1093 1125 1126
f 1093 1126 1125
f 1093 1126 1127
f 1093 1127 1126
f 1093 1127 1128
f 1093 1128 1127
f 1093 1128 1129
f 1093 1129 1128
f 1093 1129 1130
f 1093 1130 1129
f 1093 1130 1131
f 1093 1131 1130
f 1093 1131 1132
f 1093 1132 1131
f 1093 1132 1133
f 1093 1133 1132
f 1093 1133 1134
f 1093 1134 1133
f 1093 1134 1135
f 1093 1135 1134
f 1093 1135 1136
f 1093 1136 1135
f 1093 1136 1137
f 1093 1137 1136
f 1093 1137 1138
f 1093 1138 1137
v -0.099022 0.781119 -0.181987 0.200 0.440 0.170
v -0.093820 0.782909 -0.183303 0.200 0.440 0.170
v -0.091933 0.781119 -0.178279 0.200 0.440 0.170
v -0.097136 0.779330 -0.176963 0.200 0.440 0.170
v -0.051070 0.578142 -0.271512 0.200 0.440 0.170
v -0.047168 0.579485 -0.272499 0.200 0.440 0.170
v -0.045753 0.578142 -0.268732 0.200 0.440 0.170
v -0.049655 0.576800 -0.267745 0.200 0.440 0.170
f 1139 1140 1144
f 1139 1144 1143
f 1140 1141 1145
f 1140 1145 1144
f 1141 1142 1146
f 1141 1146 1145
f 1142 1139 1143
f 1142 1143 1146
v -0.048412 0.583667 -0.270122 0.450 0.200 0.450
v -0.048412 0.583667 -0.270122 0.450 0.200 0.450
v -0.048412 0.583667 -0.270122 0.450 0.200 0.450
v -0.048412 0.583667 -0.270122 0.450 0.200 0.450
v -0.048412 0.583667 -0.270122 0.450 0.200 0.450
v -0.048412 0.583667 -0.270122 0.450 0.200 0.450
v -0.048412 0.583667 -0.270122 0.450 0.200 0.450
v -0.048412 0.583667 -0.270122 0.450 0.200 0.450
v -0.048412 0.583667 -0.270122 0.450 0.200 0.450
v -0.015937 0.565729 -0.270122 0.450 0.200 0.450
v -0.023534 0.565729 -0.290996 0.450 0.200 0.450
v -0.042772 0.565729 -0.302104 0.450 0.200 0.450
v -0.064649 0.565729 -0.298246 0.450 0.200 0.450
v -0.078928 0.565729 -0.281229 0.450 0.200 0.450
v -0.078928 0.565729 -0.259015 0.450 0.200 0.450
v -0.064649 0.565729 -0.241998 0.450 0.200 0.450
v -0.042772 0.565729 -0.238141 0.450 0.200 0.450
v -0.023534 0.565729 -0.249248 0.450 0.200 0.450
v 0.004134 0.518767 -0.270122 0.450 0.200 0.450
v -0.008160 0.518767 -0.303898 0.450 0.200 0.450
v -0.039287 0.518767 -0.321869 0.450 0.200 0.450
v -0.074684 0.518767 -0.315628 0.450 0.200 0.450
v -0.097788 0.518767 -0.288094 0.450 0.200 0.450
v -0.097788 0.518767 -0.252151 0.450 0.200 0.450
v -0.074684 0.518767 -0.224617 0.450 0.200 0.450
v -0.039287 0.518767 -0.218375 0.450 0.200 0.450
v -0.008160 0.518767 -0.236347 0.450 0.200 0.450
v 0.004134 0.460719 -0.270122 0.450 0.200 0.450
v -0.008160 0.460719 -0.303898 0.450 0.200 0.450
v -0.039287 0.460719 -0.321869 0.450 0.200 0.450
v -0.074684 0.460719 -0.315628 0.450 0.200 0.450
v -0.097788 0.460719 -0.288094 0.450 0.200 0.450
v -0.097788 0.460719 -0.252151 0.450 0.200 0.450
v -0.074684 0.460719 -0.224617 0.450 0.200 0.450
v -0.039287 0.460719 -0.218375 0.450 0.200 0.450
v -0.008160 0.460719 -0.236347 0.450 0.200 0.450
v -0.015937 0.413757 -0.270122 0.450 0.200 0.450
v -0.023534 0.413757 -0.290996 0.450 0.200 0.450
v -0.042772 0.413757 -0.302104 0.450 0.200 0.450
v -0.064649 0.413757 -0.298246 0.450 0.200 0.450
v -0.078928 0.413757 -0.281229 0.450 0.200 0.450
v -0.078928 0.413757 -0.259015 0.450 0.200 0.450
v -0.064649 0.413757 -0.241998 0.450 0.200 0.450
v -0.042772 0.413757 -0.238141 0.450 0.200 0.450
v -0.023534 0.413757 -0.249248 0.450 0.200 0.450
v -0.048412 0.395819 -0.270122 0.450 0.200 0.450
v -0.048412 0.395819 -0.270122 0.450 0.200 0.450
v -0.048412 0.395819 -0.270122 0.450 0.200 0.450
v -0.048412 0.395819 -0.270122 0.450 0.200 0.450
v -0.048412 0.395819 -0.270122 0.450 0.200 0.450
v -0.048412 0.395819 -0.270122 0.450 0.200 0.450
v -0.048412 0.395819 -0.270122 0.450 0.200 0.450
v -0.048412 0.395819 -0.270122 0.450 0.200 0.450
v -0.048412 0.395819 -0.270122 0.450 0.200 0.450
f 1147 1157 1148
f 1147 1156 1157
f 1148 1158 1149
f 1148 1157 1158
f 1149 1159 1150
f 1149 1158 1159
f 1150 1160 1151
f 1150 1159 1160
f 1151 1161 1152
f 1151 1160 1161
f 1152 1162 1153
f 1152 1161 1162
f 1153 1163 1154
f 1153 1162 1163
f 1154 1164 1155
f 1154 1163 1164
f 1155 1156 1147
f 1155 1164 1156
f 1156 1166 1157
f 1156 1165 1166
f 1157 1167 1158
f 1157 1166 1167
f 1158 1168 1159
f 1158 1167 1168
f 1159 1169 1160
f 1159 1168 1169
f 1160 1170 1161
f 1160 1169 1170
f 1161 1171 1162
f 1161 1170 1171
f 1162 1172 1163
f 1162 1171 1172
f 1163 1173 1164
f 1163 1172 1173
f 1164 1165 1156
f 1164 1173 1165
f 1165 1175 1166
f 1165 1174 1175
f 1166 1176 1167
f 1166 1175 1176
f 1167 1177 1168
f 1167 1176 1177
f 1168 1178 1169
f 1168 1177 1178
f 1169 1179 1170
f 1169 1178 1179
f 1170 1180 1171
f 1170 1179 1180
f 1171 1181 1172
f 1171 1180 1181
f 1172 1182 1173
f 1172 1181 1182
f 1173 1174 1165
f 1173 1182 1174
f 1174 1184 1175
f 1174 1183 1184
f 1175 1185 1176
f 1175 1184 1185
f 1176 1186 1177
f 1176 1185 1186
f 1177 1187 1178
f 1177 1186 1187
f 1178 1188 1179
f 1178 1187 1188
f 1179 1189 1180
f 1179 1188 1189
f 1180 1190 1181
f 1180 1189 1190
f 1181 1191 1182
f 1181 1190 1191
f 1182 1183 1174
f 1182 1191 1183
f 1183 1193 1184
f 1183 1192 1193
f 1184 1194 1185
f 1184 1193 1194
f 1185 1195 1186
f 1185 1194 1195
f 1186 1196 1187
f 1186 1195 1196
f 1187 1197 1188
f 1187 1196 1197
f 1188 1198 1189
f 1188 1197 1198
f 1189 1199 1190
f 1189 1198 1199
f 1190 1200 1191
f 1190 1199 1200
f 1191 1192 1183
f 1191 1200 1192
v -0.002502 0.572617 -0.267728 0.698 0.560 0.698
v 0.004075 0.579617 -0.270122 0.698 0.560 0.698
v 0.010653 0.572617 -0.272516 0.698 0.560 0.698
v 0.004075 0.565617 -0.270122 0.698 0.560 0.698
v -0.014782 0.572617 -0.301466 0.698 0.560 0.698
v -0.008204 0.579617 -0.303860 0.698 0.560 0.698
v -0.001626 0.572617 -0.306254 0.698 0.560 0.698
v -0.008204 0.565617 -0.303860 0.698 0.560 0.698
f 1201 1202 1206
f 1201 1206 1205
f 1202 1203 1207
f 1202 1207 1206
f 1203 1204 1208
f 1203 1208 1207
f 1204 1201 1205
f 1204 1205 1208
v -0.011704 0.572617 -0.297798 0.698 0.560 0.698
v -0.008204 0.579617 -0.303860 0.698 0.560 0.698
v -0.004704 0.572617 -0.309922 0.698 0.560 0.698
v -0.008204 0.565617 -0.303860 0.698 0.560 0.698
v -0.042797 0.572617 -0.315749 0.698 0.560 0.698
v -0.039297 0.579617 -0.321812 0.698 0.560 0.698
v -0.035797 0.572617 -0.327874 0.698 0.560 0.698
v -0.039297 0.565617 -0.321812 0.698 0.560 0.698
f 1209 1210 1214
f 1209 1214 1213
f 1210 1211 1215
f 1210 1215 1214
f 1211 1212 1216
f 1211 1216 1215
f 1212 1209 1213
f 1212 1213 1216
v -0.038082 0.572617 -0.314918 0.698 0.560 0.698
v -0.039297 0.579617 -0.321812 0.698 0.560 0.698
v -0.040513 0.572617 -0.328705 0.698 0.560 0.698
v -0.039297 0.565617 -0.321812 0.698 0.560 0.698
v -0.073440 0.572617 -0.308683 0.698 0.560 0.698
v -0.074655 0.579617 -0.315577 0.698 0.560 0.698
v -0.075871 0.572617 -0.322471 0.698 0.560 0.698
v -0.074655 0.565617 -0.315577 0.698 0.560 0.698
f 1217 1218 1222
f 1217 1222 1221
f 1218 1219 1223
f 1218 1223 1222
f 1219 1220 1224
f 1219 1224 1223
f 1220 1217 1221
f 1220 1221 1224
v -0.069293 0.572617 -0.311078 0.698 0.560 0.698
v -0.074655 0.579617 -0.315577 0.698 0.560 0.698
v -0.080017 0.572617 -0.320077 0.698 0.560 0.698
v -0.074655 0.565617 -0.315577 0.698 0.560 0.698
v -0.092371 0.572617 -0.283574 0.698 0.560 0.698
v -0.097733 0.579617 -0.288074 0.698 0.560 0.698
v -0.103095 0.572617 -0.292573 0.698 0.560 0.698
v -0.097733 0.565617 -0.288074 0.698 0.560 0.698
f 1225 1226 1230
f 1225 1230 1229
f 1226 1227 1231
f 1226 1231 1230
f 1227 1228 1232
f 1227 1232 1231
f 1228 1225 1229
f 1228 1229 1232
v -0.090733 0.572617 -0.288074 0.698 0.560 0.698
v -0.097733 0.579617 -0.288074 0.698 0.560 0.698
v -0.104733 0.572617 -0.288074 0.698 0.560 0.698
v -0.097733 0.565617 -0.288074 0.698 0.560 0.698
v -0.090733 0.572617 -0.252170 0.698 0.560 0.698
v -0.097733 0.579617 -0.252170 0.698 0.560 0.698
v -0.104733 0.572617 -0.252170 0.698 0.560 0.698
v -0.097733 0.565617 -0.252170 0.698 0.560 0.698
f 1233 1234 1238
f 1233 1238 1237
f 1234 1235 1239
f 1234 1239 1238
f 1235 1236 1240
f 1235 1240 1239
f 1236 1233 1237
f 1236 1237 1240
v -0.092371 0.572617 -0.256670 0.698 0.560 0.698
v -0.097733 0.579617 -0.252170 0.698 0.560 0.698
v -0.103095 0.572617 -0.247671 0.698 0.560 0.698
v -0.097733 0.565617 -0.252170 0.698 0.560 0.698
v -0.069293 0.572617 -0.229167 0.698 0.560 0.698
v -0.074655 0.579617 -0.224667 0.698 0.560 0.698
v -0.080017 0.572617 -0.220168 0.698 0.560 0.698
v -0.074655 0.565617 -0.224667 0.698 0.560 0.698
f 1241 1242 1246
f 1241 1246 1245
f 1242 1243 1247
f 1242 1247 1246
f 1243 1244 1248
f 1243 1248 1247
f 1244 1241 1245
f 1244 1245 1248
v -0.073440 0.572617 -0.231561 0.698 0.560 0.698
v -0.074655 0.579617 -0.224667 0.698 0.560 0.698
v -0.075871 0.572617 -0.217773 0.698 0.560 0.698
v -0.074655 0.565617 -0.224667 0.698 0.560 0.698
v -0.038082 0.572617 -0.225326 0.698 0.560 0.698
v -0.039297 0.579617 -0.218433 0.698 0.560 0.698
v -0.040513 0.572617 -0.211539 0.698 0.560 0.698
v -0.039297 0.565617 -0.218433 0.698 0.560 0.698
f 1249 1250 1254
f 1249 1254 1253
f 1250 1251 1255
f 1250 1255 1254
f 1251 1252 1256
f 1251 1256 1255
f 1252 1249 1253
f 1252 1253 1256
v -0.042797 0.572617 -0.224495 0.698 0.560 0.698
v -0.039297 0.579617 -0.218433 0.698 0.560 0.698
v -0.035797 0.572617 -0.212370 0.698 0.560 0.698
v -0.039297 0.565617 -0.218433 0.698 0.560 0.698
v -0.011704 0.572617 -0.242446 0.698 0.560 0.698
v -0.008204 0.579617 -0.236384 0.698 0.560 0.698
v -0.004704 0.572617 -0.230322 0.698 0.560 0.698
v -0.008204 0.565617 -0.236384 0.698 0.560 0.698
f 1257 1258 1262
f 1257 1262 1261
f 1258 1259 1263
f 1258 1263 1262
f 1259 1260 1264
f 1259 1264 1263
f 1260 1257 1261
f 1260 1261 1264
v -0.014782 0.572617 -0.238778 0.698 0.560 0.698
v -0.008204 0.579617 -0.236384 0.698 0.560 0.698
v -0.001626 0.572617 -0.233990 0.698 0.560 0.698
v -0.008204 0.565617 -0.236384 0.698 0.560 0.698
v -0.002502 0.572617 -0.272516 0.698 0.560 0.698
v 0.004075 0.579617 -0.270122 0.698 0.560 0.698
v 0.010653 0.572617 -0.267728 0.698 0.560 0.698
v 0.004075 0.565617 -0.270122 0.698 0.560 0.698
f 1265 1266 1270
f 1265 1270 1269
f 1266 1267 1271
f 1266 1271 1270
f 1267 1268 1272
f 1267 1272 1271
f 1268 1265 1269
f 1268 1269 1272
v -0.033048 0.572617 -0.299497 0.338 0.150 0.338
v -0.024975 0.568898 -0.311295 0.338 0.150 0.338
v -0.020143 0.565179 -0.316895 0.338 0.150 0.338
v -0.016036 0.561459 -0.321109 0.338 0.150 0.338
v -0.012378 0.557740 -0.324466 0.338 0.150 0.338
v -0.009066 0.554021 -0.327161 0.338 0.150 0.338
v -0.006052 0.550301 -0.329285 0.338 0.150 0.338
v -0.003311 0.546582 -0.330888 0.338 0.150 0.338
v -0.000830 0.542863 -0.331994 0.338 0.150 0.338
v 0.001400 0.539143 -0.332619 0.338 0.150 0.338
v 0.003382 0.535424 -0.332772 0.338 0.150 0.338
v 0.005120 0.531704 -0.332457 0.338 0.150 0.338
v 0.006614 0.527985 -0.331676 0.338 0.150 0.338
v 0.007864 0.524266 -0.330428 0.338 0.150 0.338
v 0.008869 0.520546 -0.328712 0.338 0.150 0.338
v 0.009628 0.516827 -0.326524 0.338 0.150 0.338
v 0.010134 0.513108 -0.323855 0.338 0.150 0.338
v 0.010382 0.509388 -0.320690 0.338 0.150 0.338
v 0.010356 0.505669 -0.317003 0.338 0.150 0.338
v 0.010032 0.501949 -0.312746 0.338 0.150 0.338
v 0.009361 0.498230 -0.307826 0.338 0.150 0.338
v 0.008242 0.494511 -0.302049 0.338 0.150 0.338
v 0.006399 0.490791 -0.294886 0.338 0.150 0.338
v 0.001313 0.487072 -0.281525 0.338 0.150 0.338
v -0.006760 0.490791 -0.269726 0.338 0.150 0.338
v -0.011592 0.494511 -0.264127 0.338 0.150 0.338
v -0.015699 0.498230 -0.259912 0.338 0.150 0.338
v -0.019357 0.501949 -0.256555 0.338 0.150 0.338
v -0.022669 0.505669 -0.253861 0.338 0.150 0.338
v -0.025683 0.509388 -0.251736 0.338 0.150 0.338
v -0.028423 0.513108 -0.250134 0.338 0.150 0.338
v -0.030905 0.516827 -0.249028 0.338 0.150 0.338
v -0.033134 0.520546 -0.248402 0.338 0.150 0.338
v -0.035117 0.524266 -0.248249 0.338 0.150 0.338
v -0.036855 0.527985 -0.248564 0.338 0.150 0.338
v -0.038349 0.531704 -0.249346 0.338 0.150 0.338
v -0.039599 0.535424 -0.250593 0.338 0.150 0.338
v -0.040604 0.539143 -0.252309 0.338 0.150 0.338
v -0.041362 0.542863 -0.254497 0.338 0.150 0.338
v -0.041869 0.546582 -0.257166 0.338 0.150 0.338
v -0.042116 0.550301 -0.260331 0.338 0.150 0.338
v -0.042091 0.554021 -0.264018 0.338 0.150 0.338
v -0.041767 0.557740 -0.268276 0.338 0.150 0.338
v -0.041096 0.561459 -0.273196 0.338 0.150 0.338
v -0.039977 0.565179 -0.278973 0.338 0.150 0.338
v -0.038134 0.568898 -0.286135 0.338 0.150 0.338
f 1273 1274 1275
f 1273 1275 1274
f 1273 1275 1276
f 1273 1276 1275
f 1273 1276 1277
f 1273 1277 1276
f 1273 1277 1278
f 1273 1278 1277
f 1273 1278 1279
f 1273 1279 1278
f 1273 1279 1280
f 1273 1280 1279
f 1273 1280 1281
f 1273 1281 1280
f 1273 1281 1282
f 1273 1282 1281
f 1273 1282 1283
f 1273 1283 1282
f 1273 1283 1284
f 1273 1284 1283
f 1273 1284 1285
f 1273 1285 1284
f 1273 1285 1286
f 1273 1286 1285
f 1273 1286 1287
f 1273 1287 1286
f 1273 1287 1288
f 1273 1288 1287
f 1273 1288 1289
f 1273 1289 1288
f 1273 1289 1290
f 1273 1290 1289
f 1273 1290 1291
f 1273 1291 1290
f 1273 1291 1292
f 1273 1292 1291
f 1273 1292 1293
f 1273 1293 1292
f 1273 1293 1294
f 1273 1294 1293
f 1273 1294 1295
f 1273 1295 1294
f 1273 1295 1296
f 1273 1296 1295
f 1273 1296 1297
f 1273 1297 1296
f 1273 1297 1298
f 1273 1298 1297
f 1273 1298 1299
f 1273 1299 1298
f 1273 1299 1300
f 1273 1300 1299
f 1273 1300 1301
f 1273 1301 1300
f 1273 1301 1302
f 1273 1302 1301
f 1273 1302 1303
f 1273 1303 1302
f 1273 1303 1304
f 1273 1304 1303
f 1273 1304 1305
f 1273 1305 1304
f 1273 1305 1306
f 1273 1306 1305
f 1273 1306 1307
f 1273 1307 1306
f 1273 1307 1308
f 1273 1308 1307
f 1273 1308 1309
f 1273 1309 1308
f 1273 1309 1310
f 1273 1310 1309
f 1273 1310 1311
f 1273 1311 1310
f 1273 1311 1312
f 1273 1312 1311
f 1273 1312 1313
f 1273 1313 1312
f 1273 1313 1314
f 1273 1314 1313
f 1273 1314 1315
f 1273 1315 1314
f 1273 1315 1316
f 1273 1316 1315
f 1273 1316 1317
f 1273 1317 1316
f 1273 1317 1318
f 1273 1318 1317
