o mesh
v 0.000000 0.000000 0.012000 0.200 0.440 0.170
v 0.010392 0.000000 0.006000 0.200 0.440 0.170
v 0.010392 0.000000 -0.006000 0.200 0.440 0.170
v 0.000000 0.000000 -0.012000 0.200 0.440 0.170
v -0.010392 0.000000 -0.006000 0.200 0.440 0.170
v -0.010392 0.000000 0.006000 0.200 0.440 0.170
v 0.000000 0.579744 0.010000 0.200 0.440 0.170
v 0.008660 0.579744 0.005000 0.200 0.440 0.170
v 0.008660 0.579744 -0.005000 0.200 0.440 0.170
v 0.000000 0.579744 -0.010000 0.200 0.440 0.170
v -0.008660 0.579744 -0.005000 0.200 0.440 0.170
v -0.008660 0.579744 0.005000 0.200 0.440 0.170
f 1 2 8
f 1 8 7
f 2 3 9
f 2 9 8
f 3 4 10
f 3 10 9
f 4 5 11
f 4 11 10
f 5 6 12
f 5 12 11
f 6 1 7
f 6 7 12
v 0.000000 0.582762 0.066794 0.514 0.161 0.712
v 0.002566 0.582887 0.068574 0.514 0.161 0.712
v 0.005539 0.583272 0.073908 0.514 0.161 0.712
v 0.009332 0.583951 0.082822 0.514 0.161 0.712
v 0.014311 0.584946 0.094947 0.514 0.161 0.712
v 0.020546 0.586168 0.108586 0.514 0.161 0.712
v 0.027349 0.587278 0.119825 0.514 0.161 0.712
v 0.033109 0.587744 0.123566 0.514 0.161 0.712
v 0.036227 0.587278 0.117446 0.514 0.161 0.712
v 0.036500 0.586168 0.104311 0.514 0.161 0.712
v 0.035080 0.584946 0.089382 0.514 0.161 0.712
v 0.033329 0.583951 0.076392 0.514 0.161 0.712
v 0.032158 0.583272 0.066776 0.514 0.161 0.712
v 0.032065 0.582887 0.060670 0.514 0.161 0.712
v 0.033397 0.582762 0.057846 0.514 0.161 0.712
v 0.036509 0.582887 0.058104 0.514 0.161 0.712
v 0.041751 0.583272 0.061237 0.514 0.161 0.712
v 0.049493 0.583951 0.067060 0.514 0.161 0.712
v 0.059867 0.584946 0.075071 0.514 0.161 0.712
v 0.072086 0.586168 0.083765 0.514 0.161 0.712
v 0.083597 0.587278 0.090097 0.514 0.161 0.712
v 0.090457 0.587744 0.090457 0.514 0.161 0.712
v 0.090097 0.587278 0.083597 0.514 0.161 0.712
v 0.083765 0.586168 0.072086 0.514 0.161 0.712
v 0.075071 0.584946 0.059867 0.514 0.161 0.712
v 0.067060 0.583951 0.049493 0.514 0.161 0.712
v 0.061237 0.583272 0.041751 0.514 0.161 0.712
v 0.058104 0.582887 0.036509 0.514 0.161 0.712
v 0.057846 0.582762 0.033397 0.514 0.161 0.712
v 0.060670 0.582887 0.032065 0.514 0.161 0.712
v 0.066776 0.583272 0.032158 0.514 0.161 0.712
v 0.076392 0.583951 0.033329 0.514 0.161 0.712
v 0.089382 0.584946 0.035080 0.514 0.161 0.712
v 0.104311 0.586168 0.036500 0.514 0.161 0.712
v 0.117446 0.587278 0.036227 0.514 0.161 0.712
v 0.123566 0.587744 0.033109 0.514 0.161 0.712
v 0.119825 0.587278 0.027349 0.514 0.161 0.712
v 0.108586 0.586168 0.020546 0.514 0.161 0.712
v 0.094947 0.584946 0.014311 0.514 0.161 0.712
v 0.082822 0.583951 0.009332 0.514 0.161 0.712
v 0.073908 0.583272 0.005539 0.514 0.161 0.712
v 0.068574 0.582887 0.002566 0.514 0.161 0.712
v 0.066794 0.582762 0.000000 0.514 0.161 0.712
v 0.068574 0.582887 -0.002566 0.514 0.161 0.712
v 0.073908 0.583272 -0.005539 0.514 0.161 0.712
v 0.082822 0.583951 -0.009332 0.514 0.161 0.712
v 0.094947 0.584946 -0.014311 0.514 0.161 0.712
v 0.108586 0.586168 -0.020546 0.514 0.161 0.712
v 0.119825 0.587278 -0.027349 0.514 0.161 0.712
v 0.123566 0.587744 -0.033109 0.514 0.161 0.712
v 0.117446 0.587278 -0.036227 0.514 0.161 0.712
v 0.104311 0.586168 -0.036500 0.514 0.161 0.712
v 0.089382 0.584946 -0.035080 0.514 0.161 0.712
v 0.076392 0.583951 -0.033329 0.514 0.161 0.712
v 0.066776 0.583272 -0.032158 0.514 0.161 0.712
v 0.060670 0.582887 -0.032065 0.514 0.161 0.712
v 0.057846 0.582762 -0.033397 0.514 0.161 0.712
v 0.058104 0.582887 -0.036509 0.514 0.161 0.712
v 0.061237 0.583272 -0.041751 0.514 0.161 0.712
v 0.067060 0.583951 -0.049493 0.514 0.161 0.712
v 0.075071 0.584946 -0.059867 0.514 0.161 0.712
v 0.083765 0.586168 -0.072086 0.514 0.161 0.712
v 0.090097 0.587278 -0.083597 0.514 0.161 0.712
v 0.090457 0.587744 -0.090457 0.514 0.161 0.712
v 0.083597 0.587278 -0.090097 0.514 0.161 0.712
v 0.072086 0.586168 -0.083765 0.514 0.161 0.712
v 0.059867 0.584946 -0.075071 0.514 0.161 0.712
v 0.049493 0.583951 -0.067060 0.514 0.161 0.712
v 0.041751 0.583272 -0.061237 0.514 0.161 0.712
v 0.036509 0.582887 -0.058104 0.514 0.161 0.712
v 0.033397 0.582762 -0.057846 0.514 0.161 0.712
v 0.032065 0.582887 -0.060670 0.514 0.161 0.712
v 0.032158 0.583272 -0.066776 0.514 0.161 0.712
v 0.033329 0.583951 -0.076392 0.514 0.161 0.712
v 0.035080 0.584946 -0.089382 0.514 0.161 0.712
v 0.036500 0.586168 -0.104311 0.514 0.161 0.712
v 0.036227 0.587278 -0.117446 0.514 0.161 0.712
v 0.033109 0.587744 -0.123566 0.514 0.161 0.712
v 0.027349 0.587278 -0.119825 0.514 0.161 0.712
v 0.020546 0.586168 -0.108586 0.514 0.161 0.712
v 0.014311 0.584946 -0.094947 0.514 0.161 0.712
v 0.009332 0.583951 -0.082822 0.514 0.161 0.712
v 0.005539 0.583272 -0.073908 0.514 0.161 0.712
v 0.002566 0.582887 -0.068574 0.514 0.161 0.712
v 0.000000 0.582762 -0.066794 0.514 0.161 0.712
v -0.002566 0.582887 -0.068574 0.514 0.161 0.712
v -0.005539 0.583272 -0.073908 0.514 0.161 0.712
v -0.009332 0.583951 -0.082822 0.514 0.161 0.712
v -0.014311 0.584946 -0.094947 0.514 0.161 0.712
v -0.020546 0.586168 -0.108586 0.514 0.161 0.712
v -0.027349 0.587278 -0.119825 0.514 0.161 0.712
v -0.033109 0.587744 -0.123566 0.514 0.161 0.712
v -0.036227 0.587278 -0.117446 0.514 0.161 0.712
v -0.036500 0.586168 -0.104311 0.514 0.161 0.712
v -0.035080 0.584946 -0.089382 0.514 0.161 0.712
v -0.033329 0.583951 -0.076392 0.514 0.161 0.712
v -0.032158 0.583272 -0.066776 0.514 0.161 0.712
v -0.032065 0.582887 -0.060670 0.514 0.161 0.712
v -0.033397 0.582762 -0.057846 0.514 0.161 0.712
v -0.036509 0.582887 -0.058104 0.514 0.161 0.712
v -0.041751 0.583272 -0.061237 0.514 0.161 0.712
v -0.049493 0.583951 -0.067060 0.514 0.161 0.712
v -0.059867 0.584946 -0.075071 0.514 0.161 0.712
v -0.072086 0.586168 -0.083765 0.514 0.161 0.712
v -0.083597 0.587278 -0.090097 0.514 0.161 0.712
v -0.090457 0.587744 -0.090457 0.514 0.161 0.712
v -0.090097 0.587278 -0.083597 0.514 0.161 0.712
v -0.083765 0.586168 -0.072086 0.514 0.161 0.712
v -0.075071 0.584946 -0.059867 0.514 0.161 0.712
v -0.067060 0.583951 -0.049493 0.514 0.161 0.712
v -0.061237 0.583272 -0.041751 0.514 0.161 0.712
v -0.058104 0.582887 -0.036509 0.514 0.161 0.712
v -0.057846 0.582762 -0.033397 0.514 0.161 0.712
v -0.060670 0.582887 -0.032065 0.514 0.161 0.712
v -0.066776 0.583272 -0.032158 0.514 0.161 0.712
v -0.076392 0.583951 -0.033329 0.514 0.161 0.712
v -0.089382 0.584946 -0.035080 0.514 0.161 0.712
v -0.104311 0.586168 -0.036500 0.514 0.161 0.712
v -0.117446 0.587278 -0.036227 0.514 0.161 0.712
v -0.123566 0.587744 -0.033109 0.514 0.161 0.712
v -0.119825 0.587278 -0.027349 0.514 0.161 0.712
v -0.108586 0.586168 -0.020546 0.514 0.161 0.712
v -0.094947 0.584946 -0.014311 0.514 0.161 0.712
v -0.082822 0.583951 -0.009332 0.514 0.161 0.712
v -0.073908 0.583272 -0.005539 0.514 0.161 0.712
v -0.068574 0.582887 -0.002566 0.514 0.161 0.712
v -0.066794 0.582762 -0.000000 0.514 0.161 0.712
v -0.068574 0.582887 0.002566 0.514 0.161 0.712
v -0.073908 0.583272 0.005539 0.514 0.161 0.712
v -0.082822 0.583951 0.009332 0.514 0.161 0.712
v -0.094947 0.584946 0.014311 0.514 0.161 0.712
v -0.108586 0.586168 0.020546 0.514 0.161 0.712
v -0.119825 0.587278 0.027349 0.514 0.161 0.712
v -0.123566 0.587744 0.033109 0.514 0.161 0.712
v -0.117446 0.587278 0.036227 0.514 0.161 0.712
v -0.104311 0.586168 0.036500 0.514 0.161 0.712
v -0.089382 0.584946 0.035080 0.514 0.161 0.712
v -0.076392 0.583951 0.033329 0.514 0.161 0.712
v -0.066776 0.583272 0.032158 0.514 0.161 0.712
v -0.060670 0.582887 0.032065 0.514 0.161 0.712
v -0.057846 0.582762 0.033397 0.514 0.161 0.712
v -0.058104 0.582887 0.036509 0.514 0.161 0.712
v -0.061237 0.583272 0.041751 0.514 0.161 0.712
v -0.067060 0.583951 0.049493 0.514 0.161 0.712
v -0.075071 0.584946 0.059867 0.514 0.161 0.712
v -0.083765 0.586168 0.072086 0.514 0.161 0.712
v -0.090097 0.587278 0.083597 0.514 0.161 0.712
v -0.090457 0.587744 0.090457 0.514 0.161 0.712
v -0.083597 0.587278 0.090097 0.514 0.161 0.712
v -0.072086 0.586168 0.083765 0.514 0.161 0.712
v -0.059867 0.584946 0.075071 0.514 0.161 0.712
v -0.049493 0.583951 0.067060 0.514 0.161 0.712
v -0.041751 0.583272 0.061237 0.514 0.161 0.712
v -0.036509 0.582887 0.058104 0.514 0.161 0.712
v -0.033397 0.582762 0.057846 0.514 0.161 0.712
v -0.032065 0.582887 0.060670 0.514 0.161 0.712
v -0.032158 0.583272 0.066776 0.514 0.161 0.712
v -0.033329 0.583951 0.076392 0.514 0.161 0.712
v -0.035080 0.584946 0.089382 0.514 0.161 0.712
v -0.036500 0.586168 0.104311 0.514 0.161 0.712
v -0.036227 0.587278 0.117446 0.514 0.161 0.712
v -0.033109 0.587744 0.123566 0.514 0.161 0.712
v -0.027349 0.587278 0.119825 0.514 0.161 0.712
v -0.020546 0.586168 0.108586 0.514 0.161 0.712
v -0.014311 0.584946 0.094947 0.514 0.161 0.712
v -0.009332 0.583951 0.082822 0.514 0.161 0.712
v -0.005539 0.583272 0.073908 0.514 0.161 0.712
v -0.002566 0.582887 0.068574 0.514 0.161 0.712
v 0.000000 0.579744 -0.000000 0.514 0.161 0.712
f 181 13 14
f 181 14 13
f 181 14 15
f 181 15 14
f 181 15 16
f 181 16 15
f 181 16 17
f 181 17 16
f 181 17 18
f 181 18 17
f 181 18 19
f 181 19 18
f 181 19 20
f 181 20 19
f 181 20 21
f 181 21 20
f 181 21 22
f 181 22 21
f 181 22 23
f 181 23 22
f 181 23 24
f 181 24 23
f 181 24 25
f 181 25 24
f 181 25 26
f 181 26 25
f 181 26 27
f 181 27 26
f 181 27 28
f 181 28 27
f 181 28 29
f 181 29 28
f 181 29 30
f 181 30 29
f 181 30 31
f 181 31 30
f 181 31 32
f 181 32 31
f 181 32 33
f 181 33 32
f 181 33 34
f 181 34 33
f 181 34 35
f 181 35 34
f 181 35 36
f 181 36 35
f 181 36 37
f 181 37 36
f 181 37 38
f 181 38 37
f 181 38 39
f 181 39 38
f 181 39 40
f 181 40 39
f 181 40 41
f 181 41 40
f 181 41 42
f 181 42 41
f 181 42 43
f 181 43 42
f 181 43 44
f 181 44 43
f 181 44 45
f 181 45 44
f 181 45 46
f 181 46 45
f 181 46 47
f 181 47 46
f 181 47 48
f 181 48 47
f 181 48 49
f 181 49 48
f 181 49 50
f 181 50 49
f 181 50 51
f 181 51 50
f 181 51 52
f 181 52 51
f 181 52 53
f 181 53 52
f 181 53 54
f 181 54 53
f 181 54 55
f 181 55 54
f 181 55 56
f 181 56 55
f 181 56 57
f 181 57 56
f 181 57 58
f 181 58 57
f 181 58 59
f 181 59 58
f 181 59 60
f 181 60 59
f 181 60 61
f 181 61 60
f 181 61 62
f 181 62 61
f 181 62 63
f 181 63 62
f 181 63 64
f 181 64 63
f 181 64 65
f 181 65 64
f 181 65 66
f 181 66 65
f 181 66 67
f 181 67 66
f 181 67 68
f 181 68 67
f 181 68 69
f 181 69 68
f 181 69 70
f 181 70 69
f 181 70 71
f 181 71 70
f 181 71 72
f 181 72 71
f 181 72 73
f 181 73 72
f 181 73 74
f 181 74 73
f 181 74 75
f 181 75 74
f 181 75 76
f 181 76 75
f 181 76 77
f 181 77 76
f 181 77 78
f 181 78 77
f 181 78 79
f 181 79 78
f 181 79 80
f 181 80 79
f 181 80 81
f 181 81 80
f 181 81 82
f 181 82 81
f 181 82 83
f 181 83 82
f 181 83 84
f 181 84 83
f 181 84 85
f 181 85 84
f 181 85 86
f 181 86 85
f 181 86 87
f 181 87 86
f 181 87 88
f 181 88 87
f 181 88 89
f 181 89 88
f 181 89 90
f 181 90 89
f 181 90 91
f 181 91 90
f 181 91 92
f 181 92 91
f 181 92 93
f 181 93 92
f 181 93 94
f 181 94 93
f 181 94 95
f 181 95 94
f 181 95 96
f 181 96 95
f 181 96 97
f 181 97 96
f 181 97 98
f 181 98 97
f 181 98 99
f 181 99 98
f 181 99 100
f 181 100 99
f 181 100 101
f 181 101 100
f 181 101 102
f 181 102 101
f 181 102 103
f 181 103 102
f 181 103 104
f 181 104 103
f 181 104 105
f 181 105 104
f 181 105 106
f 181 106 105
f 181 106 107
f 181 107 106
f 181 107 108
f 181 108 107
f 181 108 109
f 181 109 108
f 181 109 110
f 181 110 109
f 181 110 111
f 181 111 110
f 181 111 112
f 181 112 111
f 181 112 113
f 181 113 112
f 181 113 114
f 181 114 113
f 181 114 115
f 181 115 114
f 181 115 116
f 181 116 115
f 181 116 117
f 181 117 116
f 181 117 118
f 181 118 117
f 181 118 119
f 181 119 118
f 181 119 120
f 181 120 119
f 181 120 121
f 181 121 120
f 181 121 122
f 181 122 121
f 181 122 123
f 181 123 122
f 181 123 124
f 181 124 123
f 181 124 125
f 181 125 124
f 181 125 126
f 181 126 125
f 181 126 127
f 181 127 126
f 181 127 128
f 181 128 127
f 181 128 129
f 181 129 128
f 181 129 130
f 181 130 129
f 181 130 131
f 181 131 130
f 181 131 132
f 181 132 131
f 181 132 133
f 181 133 132
f 181 133 134
f 181 134 133
f 181 134 135
f 181 135 134
f 181 135 136
f 181 136 135
f 181 136 137
f 181 137 136
f 181 137 138
f 181 138 137
f 181 138 139
f 181 139 138
f 181 139 140
f 181 140 139
f 181 140 141
f 181 141 140
f 181 141 142
f 181 142 141
f 181 142 143
f 181 143 142
f 181 143 144
f 181 144 143
f 181 144 145
f 181 145 144
f 181 145 146
f 181 146 145
f 181 146 147
f 181 147 146
f 181 147 148
f 181 148 147
f 181 148 149
f 181 149 148
f 181 149 150
f 181 150 149
f 181 150 151
f 181 151 150
f 181 151 152
f 181 152 151
f 181 152 153
f 181 153 152
f 181 153 154
f 181 154 153
f 181 154 155
f 181 155 154
f 181 155 156
f 181 156 155
f 181 156 157
f 181 157 156
f 181 157 158
f 181 158 157
f 181 158 159
f 181 159 158
f 181 159 160
f 181 160 159
f 181 160 161
f 181 161 160
f 181 161 162
f 181 162 161
f 181 162 163
f 181 163 162
f 181 163 164
f 181 164 163
f 181 164 165
f 181 165 164
f 181 165 166
f 181 166 165
f 181 166 167
f 181 167 166
f 181 167 168
f 181 168 167
f 181 168 169
f 181 169 168
f 181 169 170
f 181 170 169
f 181 170 171
f 181 171 170
f 181 171 172
f 181 172 171
f 181 172 173
f 181 173 172
f 181 173 174
f 181 174 173
f 181 174 175
f 181 175 174
f 181 175 176
f 181 176 175
f 181 176 177
f 181 177 176
f 181 177 178
f 181 178 177
f 181 178 179
f 181 179 178
f 181 179 180
f 181 180 179
f 181 180 13
f 181 13 180
v 0.014176 0.583517 0.052905 0.573 0.261 0.746
v 0.016586 0.583673 0.053770 0.573 0.261 0.746
v 0.020073 0.584154 0.057364 0.573 0.261 0.746
v 0.024969 0.585003 0.063620 0.573 0.261 0.746
v 0.031486 0.586247 0.072167 0.573 0.261 0.746
v 0.039319 0.587774 0.081646 0.573 0.261 0.746
v 0.047093 0.589161 0.089104 0.573 0.261 0.746
v 0.052449 0.589744 0.090845 0.573 0.261 0.746
v 0.053620 0.589161 0.085335 0.573 0.261 0.746
v 0.051048 0.587774 0.074874 0.573 0.261 0.746
v 0.046755 0.586247 0.063351 0.573 0.261 0.746
v 0.042612 0.585003 0.053433 0.573 0.261 0.746
v 0.039643 0.584154 0.046066 0.573 0.261 0.746
v 0.038273 0.583673 0.041249 0.573 0.261 0.746
v 0.038729 0.583517 0.038729 0.573 0.261 0.746
v 0.041249 0.583673 0.038273 0.573 0.261 0.746
v 0.046066 0.584154 0.039643 0.573 0.261 0.746
v 0.053433 0.585003 0.042612 0.573 0.261 0.746
v 0.063351 0.586247 0.046755 0.573 0.261 0.746
v 0.074874 0.587774 0.051048 0.573 0.261 0.746
v 0.085335 0.589161 0.053620 0.573 0.261 0.746
v 0.090845 0.589744 0.052449 0.573 0.261 0.746
v 0.089104 0.589161 0.047093 0.573 0.261 0.746
v 0.081646 0.587774 0.039319 0.573 0.261 0.746
v 0.072167 0.586247 0.031486 0.573 0.261 0.746
v 0.063620 0.585003 0.024969 0.573 0.261 0.746
v 0.057364 0.584154 0.020073 0.573 0.261 0.746
v 0.053770 0.583673 0.016586 0.573 0.261 0.746
v 0.052905 0.583517 0.014176 0.573 0.261 0.746
v 0.054859 0.583673 0.012521 0.573 0.261 0.746
v 0.059715 0.584154 0.011299 0.573 0.261 0.746
v 0.067581 0.585003 0.010186 0.573 0.261 0.746
v 0.078241 0.586247 0.008816 0.573 0.261 0.746
v 0.090367 0.587774 0.006772 0.573 0.261 0.746
v 0.100713 0.589161 0.003768 0.573 0.261 0.746
v 0.104899 0.589744 -0.000000 0.573 0.261 0.746
v 0.100713 0.589161 -0.003768 0.573 0.261 0.746
v 0.090367 0.587774 -0.006772 0.573 0.261 0.746
v 0.078241 0.586247 -0.008816 0.573 0.261 0.746
v 0.067581 0.585003 -0.010186 0.573 0.261 0.746
v 0.059715 0.584154 -0.011299 0.573 0.261 0.746
v 0.054859 0.583673 -0.012521 0.573 0.261 0.746
v 0.052905 0.583517 -0.014176 0.573 0.261 0.746
v 0.053770 0.583673 -0.016586 0.573 0.261 0.746
v 0.057364 0.584154 -0.020073 0.573 0.261 0.746
v 0.063620 0.585003 -0.024969 0.573 0.261 0.746
v 0.072167 0.586247 -0.031486 0.573 0.261 0.746
v 0.081646 0.587774 -0.039319 0.573 0.261 0.746
v 0.089104 0.589161 -0.047093 0.573 0.261 0.746
v 0.090845 0.589744 -0.052449 0.573 0.261 0.746
v 0.085335 0.589161 -0.053620 0.573 0.261 0.746
v 0.074874 0.587774 -0.051048 0.573 0.261 0.746
v 0.063351 0.586247 -0.046755 0.573 0.261 0.746
v 0.053433 0.585003 -0.042612 0.573 0.261 0.746
v 0.046066 0.584154 -0.039643 0.573 0.261 0.746
v 0.041249 0.583673 -0.038273 0.573 0.261 0.746
v 0.038729 0.583517 -0.038729 0.573 0.261 0.746
v 0.038273 0.583673 -0.041249 0.573 0.261 0.746
v 0.039643 0.584154 -0.046066 0.573 0.261 0.746
v 0.042612 0.585003 -0.053433 0.573 0.261 0.746
v 0.046755 0.586247 -0.063351 0.573 0.261 0.746
v 0.051048 0.587774 -0.074874 0.573 0.261 0.746
v 0.053620 0.589161 -0.085335 0.573 0.261 0.746
v 0.052449 0.589744 -0.090845 0.573 0.261 0.746
v 0.047093 0.589161 -0.089104 0.573 0.261 0.746
v 0.039319 0.587774 -0.081646 0.573 0.261 0.746
v 0.031486 0.586247 -0.072167 0.573 0.261 0.746
v 0.024969 0.585003 -0.063620 0.573 0.261 0.746
v 0.020073 0.584154 -0.057364 0.573 0.261 0.746
v 0.016586 0.583673 -0.053770 0.573 0.261 0.746
v 0.014176 0.583517 -0.052905 0.573 0.261 0.746
v 0.012521 0.583673 -0.054859 0.573 0.261 0.746
v 0.011299 0.584154 -0.059715 0.573 0.261 0.746
v 0.010186 0.585003 -0.067581 0.573 0.261 0.746
v 0.008816 0.586247 -0.078241 0.573 0.261 0.746
v 0.006772 0.587774 -0.090367 0.573 0.261 0.746
v 0.003768 0.589161 -0.100713 0.573 0.261 0.746
v -0.000000 0.589744 -0.104899 0.573 0.261 0.746
v -0.003768 0.589161 -0.100713 0.573 0.261 0.746
v -0.006772 0.587774 -0.090367 0.573 0.261 0.746
v -0.008816 0.586247 -0.078241 0.573 0.261 0.746
v -0.010186 0.585003 -0.067581 0.573 0.261 0.746
v -0.011299 0.584154 -0.059715 0.573 0.261 0.746
v -0.012521 0.583673 -0.054859 0.573 0.261 0.746
v -0.014176 0.583517 -0.052905 0.573 0.261 0.746
v -0.016586 0.583673 -0.053770 0.573 0.261 0.746
v -0.020073 0.584154 -0.057364 0.573 0.261 0.746
v -0.024969 0.585003 -0.063620 0.573 0.261 0.746
v -0.031486 0.586247 -0.072167 0.573 0.261 0.746
v -0.039319 0.587774 -0.081646 0.573 0.261 0.746
v -0.047093 0.589161 -0.089104 0.573 0.261 0.746
v -0.052449 0.589744 -0.090845 0.573 0.261 0.746
v -0.053620 0.589161 -0.085335 0.573 0.261 0.746
v -0.051048 0.587774 -0.074874 0.573 0.261 0.746
v -0.046755 0.586247 -0.063351 0.573 0.261 0.746
v -0.042612 0.585003 -0.053433 0.573 0.261 0.746
v -0.039643 0.584154 -0.046066 0.573 0.261 0.746
v -0.038273 0.583673 -0.041249 0.573 0.261 0.746
v -0.038729 0.583517 -0.038729 0.573 0.261 0.746
v -0.041249 0.583673 -0.038273 0.573 0.261 0.746
v -0.046066 0.584154 -0.039643 0.573 0.261 0.746
v -0.053433 0.585003 -0.042612 0.573 0.261 0.746
v -0.063351 0.586247 -0.046755 0.573 0.261 0.746
v -0.074874 0.587774 -0.051048 0.573 0.261 0.746
v -0.085335 0.589161 -0.053620 0.573 0.261 0.746
v -0.090845 0.589744 -0.052449 0.573 0.261 0.746
v -0.089104 0.589161 -0.047093 0.573 0.261 0.746
v -0.081646 0.587774 -0.039319 0.573 0.261 0.746
v -0.072167 0.586247 -0.031486 0.573 0.261 0.746
v -0.063620 0.585003 -0.024969 0.573 0.261 0.746
v -0.057364 0.584154 -0.020073 0.573 0.261 0.746
v -0.053770 0.583673 -0.016586 0.573 0.261 0.746
v -0.052905 0.583517 -0.014176 0.573 0.261 0.746
v -0.054859 0.583673 -0.012521 0.573 0.261 0.746
v -0.059715 0.584154 -0.011299 0.573 0.261 0.746
v -0.067581 0.585003 -0.010186 0.573 0.261 0.746
v -0.078241 0.586247 -0.008816 0.573 0.261 0.746
v -0.090367 0.587774 -0.006772 0.573 0.261 0.746
v -0.100713 0.589161 -0.003768 0.573 0.261 0.746
v -0.104899 0.589744 0.000000 0.573 0.261 0.746
v -0.100713 0.589161 0.003768 0.573 0.261 0.746
v -0.090367 0.587774 0.006772 0.573 0.261 0.746
v -0.078241 0.586247 0.008816 0.573 0.261 0.746
v -0.067581 0.585003 0.010186 0.573 0.261 0.746
v -0.059715 0.584154 0.011299 0.573 0.261 0.746
v -0.054859 0.583673 0.012521 0.573 0.261 0.746
v -0.052905 0.583517 0.014176 0.573 0.261 0.746
v -0.053770 0.583673 0.016586 0.573 0.261 0.746
v -0.057364 0.584154 0.020073 0.573 0.261 0.746
v -0.063620 0.585003 0.024969 0.573 0.261 0.746
v -0.072167 0.586247 0.031486 0.573 0.261 0.746
v -0.081646 0.587774 0.039319 0.573 0.261 0.746
v -0.089104 0.589161 0.047093 0.573 0.261 0.746
v -0.090845 0.589744 0.052449 0.573 0.261 0.746
v -0.085335 0.589161 0.053620 0.573 0.261 0.746
v -0.074874 0.587774 0.051048 0.573 0.261 0.746
v -0.063351 0.586247 0.046755 0.573 0.261 0.746
v -0.053433 0.585003 0.042612 0.573 0.261 0.746
v -0.046066 0.584154 0.039643 0.573 0.261 0.746
v -0.041249 0.583673 0.038273 0.573 0.261 0.746
v -0.038729 0.583517 0.038729 0.573 0.261 0.746
v -0.038273 0.583673 0.041249 0.573 0.261 0.746
v -0.039643 0.584154 0.046066 0.573 0.261 0.746
v -0.042612 0.585003 0.053433 0.573 0.261 0.746
v -0.046755 0.586247 0.063351 0.573 0.261 0.746
v -0.051048 0.587774 0.074874 0.573 0.261 0.746
v -0.053620 0.589161 0.085335 0.573 0.261 0.746
v -0.052449 0.589744 0.090845 0.573 0.261 0.746
v -0.047093 0.589161 0.089104 0.573 0.261 0.746
v -0.039319 0.587774 0.081646 0.573 0.261 0.746
v -0.031486 0.586247 0.072167 0.573 0.261 0.746
v -0.024969 0.585003 0.063620 0.573 0.261 0.746
v -0.020073 0.584154 0.057364 0.573 0.261 0.746
v -0.016586 0.583673 0.053770 0.573 0.261 0.746
v -0.014176 0.583517 0.052905 0.573 0.261 0.746
v -0.012521 0.583673 0.054859 0.573 0.261 0.746
v -0.011299 0.584154 0.059715 0.573 0.261 0.746
v -0.010186 0.585003 0.067581 0.573 0.261 0.746
v -0.008816 0.586247 0.078241 0.573 0.261 0.746
v -0.006772 0.587774 0.090367 0.573 0.261 0.746
v -0.003768 0.589161 0.100713 0.573 0.261 0.746
v 0.000000 0.589744 0.104899 0.573 0.261 0.746
v 0.003768 0.589161 0.100713 0.573 0.261 0.746
v 0.006772 0.587774 0.090367 0.573 0.261 0.746
v 0.008816 0.586247 0.078241 0.573 0.261 0.746
v 0.010186 0.585003 0.067581 0.573 0.261 0.746
v 0.011299 0.584154 0.059715 0.573 0.261 0.746
v 0.012521 0.583673 0.054859 0.573 0.261 0.746
v 0.000000 0.579744 -0.000000 0.573 0.261 0.746
f 350 182 183
f 350 183 182
f 350 183 184
f 350 184 183
f 350 184 185
f 350 185 184
f 350 185 186
f 350 186 185
f 350 186 187
f 350 187 186
f 350 187 188
f 350 188 187
f 350 188 189
f 350 189 188
f 350 189 190
f 350 190 189
f 350 190 191
f 350 191 190
f 350 191 192
f 350 192 191
f 350 192 193
f 350 193 192
f 350 193 194
f 350 194 193
f 350 194 195
f 350 195 194
f 350 195 196
f 350 196 195
f 350 196 197
f 350 197 196
f 350 197 198
f 350 198 197
f 350 198 199
f 350 199 198
f 350 199 200
f 350 200 199
f 350 200 201
f 350 201 200
f 350 201 202
f 350 202 201
f 350 202 203
f 350 203 202
f 350 203 204
f 350 204 203
f 350 204 205
f 350 205 204
f 350 205 206
f 350 206 205
f 350 206 207
f 350 207 206
f 350 207 208
f 350 208 207
f 350 208 209
f 350 209 208
f 350 209 210
f 350 210 209
f 350 210 211
f 350 211 210
f 350 211 212
f 350 212 211
f 350 212 213
f 350 213 212
f 350 213 214
f 350 214 213
f 350 214 215
f 350 215 214
f 350 215 216
f 350 216 215
f 350 216 217
f 350 217 216
f 350 217 218
f 350 218 217
f 350 218 219
f 350 219 218
f 350 219 220
f 350 220 219
f 350 220 221
f 350 221 220
f 350 221 222
f 350 222 221
f 350 222 223
f 350 223 222
f 350 223 224
f 350 224 223
f 350 224 225
f 350 225 224
f 350 225 226
f 350 226 225
f 350 226 227
f 350 227 226
f 350 227 228
f 350 228 227
f 350 228 229
f 350 229 228
f 350 229 230
f 350 230 229
f 350 230 231
f 350 231 230
f 350 231 232
f 350 232 231
f 350 232 233
f 350 233 232
f 350 233 234
f 350 234 233
f 350 234 235
f 350 235 234
f 350 235 236
f 350 236 235
f 350 236 237
f 350 237 236
f 350 237 238
f 350 238 237
f 350 238 239
f 350 239 238
f 350 239 240
f 350 240 239
f 350 240 241
f 350 241 240
f 350 241 242
f 350 242 241
f 350 242 243
f 350 243 242
f 350 243 244
f 350 244 243
f 350 244 245
f 350 245 244
f 350 245 246
f 350 246 245
f 350 246 247
f 350 247 246
f 350 247 248
f 350 248 247
f 350 248 249
f 350 249 248
f 350 249 250
f 350 250 249
f 350 250 251
f 350 251 250
f 350 251 252
f 350 252 251
f 350 252 253
f 350 253 252
f 350 253 254
f 350 254 253
f 350 254 255
f 350 255 254
f 350 255 256
f 350 256 255
f 350 256 257
f 350 257 256
f 350 257 258
f 350 258 257
f 350 258 259
f 350 259 258
f 350 259 260
f 350 260 259
f 350 260 261
f 350 261 260
f 350 261 262
f 350 262 261
f 350 262 263
f 350 263 262
f 350 263 264
f 350 264 263
f 350 264 265
f 350 265 264
f 350 265 266
f 350 266 265
f 350 266 267
f 350 267 266
f 350 267 268
f 350 268 267
f 350 268 269
f 350 269 268
f 350 269 270
f 350 270 269
f 350 270 271
f 350 271 270
f 350 271 272
f 350 272 271
f 350 272 273
f 350 273 272
f 350 273 274
f 350 274 273
f 350 274 275
f 350 275 274
f 350 275 276
f 350 276 275
f 350 276 277
f 350 277 276
f 350 277 278
f 350 278 277
f 350 278 279
f 350 279 278
f 350 279 280
f 350 280 279
f 350 280 281
f 350 281 280
f 350 281 282
f 350 282 281
f 350 282 283
f 350 283 282
f 350 283 284
f 350 284 283
f 350 284 285
f 350 285 284
f 350 285 286
f 350 286 285
f 350 286 287
f 350 287 286
f 350 287 288
f 350 288 287
f 350 288 289
f 350 289 288
f 350 289 290
f 350 290 289
f 350 290 291
f 350 291 290
f 350 291 292
f 350 292 291
f 350 292 293
f 350 293 292
f 350 293 294
f 350 294 293
f 350 294 295
f 350 295 294
f 350 295 296
f 350 296 295
f 350 296 297
f 350 297 296
f 350 297 298
f 350 298 297
f 350 298 299
f 350 299 298
f 350 299 300
f 350 300 299
f 350 300 301
f 350 301 300
f 350 301 302
f 350 302 301
f 350 302 303
f 350 303 302
f 350 303 304
f 350 304 303
f 350 304 305
f 350 305 304
f 350 305 306
f 350 306 305
f 350 306 307
f 350 307 306
f 350 307 308
f 350 308 307
f 350 308 309
f 350 309 308
f 350 309 310
f 350 310 309
f 350 310 311
f 350 311 310
f 350 311 312
f 350 312 311
f 350 312 313
f 350 313 312
f 350 313 314
f 350 314 313
f 350 314 315
f 350 315 314
f 350 315 316
f 350 316 315
f 350 316 317
f 350 317 316
f 350 317 318
f 350 318 317
f 350 318 319
f 350 319 318
f 350 319 320
f 350 320 319
f 350 320 321
f 350 321 320
f 350 321 322
f 350 322 321
f 350 322 323
f 350 323 322
f 350 323 324
f 350 324 323
f 350 324 325
f 350 325 324
f 350 325 326
f 350 326 325
f 350 326 327
f 350 327 326
f 350 327 328
f 350 328 327
f 350 328 329
f 350 329 328
f 350 329 330
f 350 330 329
f 350 330 331
f 350 331 330
f 350 331 332
f 350 332 331
f 350 332 333
f 350 333 332
f 350 333 334
f 350 334 333
f 350 334 335
f 350 335 334
f 350 335 336
f 350 336 335
f 350 336 337
f 350 337 336
f 350 337 338
f 350 338 337
f 350 338 339
f 350 339 338
f 350 339 340
f 350 340 339
f 350 340 341
f 350 341 340
f 350 341 342
f 350 342 341
f 350 342 343
f 350 343 342
f 350 343 344
f 350 344 343
f 350 344 345
f 350 345 344
f 350 345 346
f 350 346 345
f 350 346 347
f 350 347 346
f 350 347 348
f 350 348 347
f 350 348 349
f 350 349 348
f 350 349 182
f 350 182 349
v 0.022456 0.584272 0.038895 0.631 0.362 0.781
v 0.024549 0.584459 0.039069 0.631 0.362 0.781
v 0.028073 0.585036 0.041176 0.631 0.362 0.781
v 0.033279 0.586055 0.045091 0.631 0.362 0.781
v 0.040255 0.587548 0.050478 0.631 0.362 0.781
v 0.048471 0.589379 0.056324 0.631 0.362 0.781
v 0.056211 0.591045 0.060581 0.631 0.362 0.781
v 0.060823 0.591744 0.060823 0.631 0.362 0.781
v 0.060581 0.591045 0.056211 0.631 0.362 0.781
v 0.056324 0.589379 0.048471 0.631 0.362 0.781
v 0.050478 0.587548 0.040255 0.631 0.362 0.781
v 0.045091 0.586055 0.033279 0.631 0.362 0.781
v 0.041176 0.585036 0.028073 0.631 0.362 0.781
v 0.039069 0.584459 0.024549 0.631 0.362 0.781
v 0.038895 0.584272 0.022456 0.631 0.362 0.781
v 0.040794 0.584459 0.021560 0.631 0.362 0.781
v 0.044900 0.585036 0.021623 0.631 0.362 0.781
v 0.051366 0.586055 0.022411 0.631 0.362 0.781
v 0.060101 0.587548 0.023588 0.631 0.362 0.781
v 0.070139 0.589379 0.024543 0.631 0.362 0.781
v 0.078971 0.591045 0.024359 0.631 0.362 0.781
v 0.083086 0.591744 0.022263 0.631 0.362 0.781
v 0.080570 0.591045 0.018390 0.631 0.362 0.781
v 0.073013 0.589379 0.013815 0.631 0.362 0.781
v 0.063843 0.587548 0.009623 0.631 0.362 0.781
v 0.055690 0.586055 0.006275 0.631 0.362 0.781
v 0.049696 0.585036 0.003724 0.631 0.362 0.781
v 0.046109 0.584459 0.001725 0.631 0.362 0.781
v 0.044913 0.584272 0.000000 0.631 0.362 0.781
v 0.046109 0.584459 -0.001725 0.631 0.362 0.781
v 0.049696 0.585036 -0.003724 0.631 0.362 0.781
v 0.055690 0.586055 -0.006275 0.631 0.362 0.781
v 0.063843 0.587548 -0.009623 0.631 0.362 0.781
v 0.073013 0.589379 -0.013815 0.631 0.362 0.781
v 0.080570 0.591045 -0.018390 0.631 0.362 0.781
v 0.083086 0.591744 -0.022263 0.631 0.362 0.781
v 0.078971 0.591045 -0.024359 0.631 0.362 0.781
v 0.070139 0.589379 -0.024543 0.631 0.362 0.781
v 0.060101 0.587548 -0.023588 0.631 0.362 0.781
v 0.051366 0.586055 -0.022411 0.631 0.362 0.781
v 0.044900 0.585036 -0.021623 0.631 0.362 0.781
v 0.040794 0.584459 -0.021560 0.631 0.362 0.781
v 0.038895 0.584272 -0.022456 0.631 0.362 0.781
v 0.039069 0.584459 -0.024549 0.631 0.362 0.781
v 0.041176 0.585036 -0.028073 0.631 0.362 0.781
v 0.045091 0.586055 -0.033279 0.631 0.362 0.781
v 0.050478 0.587548 -0.040255 0.631 0.362 0.781
v 0.056324 0.589379 -0.048471 0.631 0.362 0.781
v 0.060581 0.591045 -0.056211 0.631 0.362 0.781
v 0.060823 0.591744 -0.060823 0.631 0.362 0.781
v 0.056211 0.591045 -0.060581 0.631 0.362 0.781
v 0.048471 0.589379 -0.056324 0.631 0.362 0.781
v 0.040255 0.587548 -0.050478 0.631 0.362 0.781
v 0.033279 0.586055 -0.045091 0.631 0.362 0.781
v 0.028073 0.585036 -0.041176 0.631 0.362 0.781
v 0.024549 0.584459 -0.039069 0.631 0.362 0.781
v 0.022456 0.584272 -0.038895 0.631 0.362 0.781
v 0.021560 0.584459 -0.040794 0.631 0.362 0.781
v 0.021623 0.585036 -0.044900 0.631 0.362 0.781
v 0.022411 0.586055 -0.051366 0.631 0.362 0.781
v 0.023588 0.587548 -0.060101 0.631 0.362 0.781
v 0.024543 0.589379 -0.070139 0.631 0.362 0.781
v 0.024359 0.591045 -0.078971 0.631 0.362 0.781
v 0.022263 0.591744 -0.083086 0.631 0.362 0.781
v 0.018390 0.591045 -0.080570 0.631 0.362 0.781
v 0.013815 0.589379 -0.073013 0.631 0.362 0.781
v 0.009623 0.587548 -0.063843 0.631 0.362 0.781
v 0.006275 0.586055 -0.055690 0.631 0.362 0.781
v 0.003724 0.585036 -0.049696 0.631 0.362 0.781
v 0.001725 0.584459 -0.046109 0.631 0.362 0.781
v 0.000000 0.584272 -0.044913 0.631 0.362 0.781
v -0.001725 0.584459 -0.046109 0.631 0.362 0.781
v -0.003724 0.585036 -0.049696 0.631 0.362 0.781
v -0.006275 0.586055 -0.055690 0.631 0.362 0.781
v -0.009623 0.587548 -0.063843 0.631 0.362 0.781
v -0.013815 0.589379 -0.073013 0.631 0.362 0.781
v -0.018390 0.591045 -0.080570 0.631 0.362 0.781
v -0.022263 0.591744 -0.083086 0.631 0.362 0.781
v -0.024359 0.591045 -0.078971 0.631 0.362 0.781
v -0.024543 0.589379 -0.070139 0.631 0.362 0.781
v -0.023588 0.587548 -0.060101 0.631 0.362 0.781
v -0.022411 0.586055 -0.051366 0.631 0.362 0.781
v -0.021623 0.585036 -0.044900 0.631 0.362 0.781
v -0.021560 0.584459 -0.040794 0.631 0.362 0.781
v -0.022456 0.584272 -0.038895 0.631 0.362 0.781
v -0.024549 0.584459 -0.039069 0.631 0.362 0.781
v -0.028073 0.585036 -0.041176 0.631 0.362 0.781
v -0.033279 0.586055 -0.045091 0.631 0.362 0.781
v -0.040255 0.587548 -0.050478 0.631 0.362 0.781
v -0.048471 0.589379 -0.056324 0.631 0.362 0.781
v -0.056211 0.591045 -0.060581 0.631 0.362 0.781
v -0.060823 0.591744 -0.060823 0.631 0.362 0.781
v -0.060581 0.591045 -0.056211 0.631 0.362 0.781
v -0.056324 0.589379 -0.048471 0.631 0.362 0.781
v -0.050478 0.587548 -0.040255 0.631 0.362 0.781
v -0.045091 0.586055 -0.033279 0.631 0.362 0.781
v -0.041176 0.585036 -0.028073 0.631 0.362 0.781
v -0.039069 0.584459 -0.024549 0.631 0.362 0.781
v -0.038895 0.584272 -0.022456 0.631 0.362 0.781
v -0.040794 0.584459 -0.021560 0.631 0.362 0.781
v -0.044900 0.585036 -0.021623 0.631 0.362 0.781
v -0.051366 0.586055 -0.022411 0.631 0.362 0.781
v -0.060101 0.587548 -0.023588 0.631 0.362 0.781
v -0.070139 0.589379 -0.024543 0.631 0.362 0.781
v -0.078971 0.591045 -0.024359 0.631 0.362 0.781
v -0.083086 0.591744 -0.022263 0.631 0.362 0.781
v -0.080570 0.591045 -0.018390 0.631 0.362 0.781
v -0.073013 0.589379 -0.013815 0.631 0.362 0.781
v -0.063843 0.587548 -0.009623 0.631 0.362 0.781
v -0.055690 0.586055 -0.006275 0.631 0.362 0.781
v -0.049696 0.585036 -0.003724 0.631 0.362 0.781
v -0.046109 0.584459 -0.001725 0.631 0.362 0.781
v -0.044913 0.584272 0.000000 0.631 0.362 0.781
v -0.046109 0.584459 0.001725 0.631 0.362 0.781
v -0.049696 0.585036 0.003724 0.631 0.362 0.781
v -0.055690 0.586055 0.006275 0.631 0.362 0.781
v -0.063843 0.587548 0.009623 0.631 0.362 0.781
v -0.073013 0.589379 0.013815 0.631 0.362 0.781
v -0.080570 0.591045 0.018390 0.631 0.362 0.781
v -0.083086 0.591744 0.022263 0.631 0.362 0.781
v -0.078971 0.591045 0.024359 0.631 0.362 0.781
v -0.070139 0.589379 0.024543 0.631 0.362 0.781
v -0.060101 0.587548 0.023588 0.631 0.362 0.781
v -0.051366 0.586055 0.022411 0.631 0.362 0.781
v -0.044900 0.585036 0.021623 0.631 0.362 0.781
v -0.040794 0.584459 0.021560 0.631 0.362 0.781
v -0.038895 0.584272 0.022456 0.631 0.362 0.781
v -0.039069 0.584459 0.024549 0.631 0.362 0.781
v -0.041176 0.585036 0.028073 0.631 0.362 0.781
v -0.045091 0.586055 0.033279 0.631 0.362 0.781
v -0.050478 0.587548 0.040255 0.631 0.362 0.781
v -0.056324 0.589379 0.048471 0.631 0.362 0.781
v -0.060581 0.591045 0.056211 0.631 0.362 0.781
v -0.060823 0.591744 0.060823 0.631 0.362 0.781
v -0.056211 0.591045 0.060581 0.631 0.362 0.781
v -0.048471 0.589379 0.056324 0.631 0.362 0.781
v -0.040255 0.587548 0.050478 0.631 0.362 0.781
v -0.033279 0.586055 0.045091 0.631 0.362 0.781
v -0.028073 0.585036 0.041176 0.631 0.362 0.781
v -0.024549 0.584459 0.039069 0.631 0.362 0.781
v -0.022456 0.584272 0.038895 0.631 0.362 0.781
v -0.021560 0.584459 0.040794 0.631 0.362 0.781
v -0.021623 0.585036 0.044900 0.631 0.362 0.781
v -0.022411 0.586055 0.051366 0.631 0.362 0.781
v -0.023588 0.587548 0.060101 0.631 0.362 0.781
v -0.024543 0.589379 0.070139 0.631 0.362 0.781
v -0.024359 0.591045 0.078971 0.631 0.362 0.781
v -0.022263 0.591744 0.083086 0.631 0.362 0.781
v -0.018390 0.591045 0.080570 0.631 0.362 0.781
v -0.013815 0.589379 0.073013 0.631 0.362 0.781
v -0.009623 0.587548 0.063843 0.631 0.362 0.781
v -0.006275 0.586055 0.055690 0.631 0.362 0.781
v -0.003724 0.585036 0.049696 0.631 0.362 0.781
v -0.001725 0.584459 0.046109 0.631 0.362 0.781
v 0.000000 0.584272 0.044913 0.631 0.362 0.781
v 0.001725 0.584459 0.046109 0.631 0.362 0.781
v 0.003724 0.585036 0.049696 0.631 0.362 0.781
v 0.006275 0.586055 0.055690 0.631 0.362 0.781
v 0.009623 0.587548 0.063843 0.631 0.362 0.781
v 0.013815 0.589379 0.073013 0.631 0.362 0.781
v 0.018390 0.591045 0.080570 0.631 0.362 0.781
v 0.022263 0.591744 0.083086 0.631 0.362 0.781
v 0.024359 0.591045 0.078971 0.631 0.362 0.781
v 0.024543 0.589379 0.070139 0.631 0.362 0.781
v 0.023588 0.587548 0.060101 0.631 0.362 0.781
v 0.022411 0.586055 0.051366 0.631 0.362 0.781
v 0.021623 0.585036 0.044900 0.631 0.362 0.781
v 0.021560 0.584459 0.040794 0.631 0.362 0.781
v 0.000000 0.579744 -0.000000 0.631 0.362 0.781
f 519 351 352
f 519 352 351
f 519 352 353
f 519 353 352
f 519 353 354
f 519 354 353
f 519 354 355
f 519 355 354
f 519 355 356
f 519 356 355
f 519 356 357
f 519 357 356
f 519 357 358
f 519 358 357
f 519 358 359
f 519 359 358
f 519 359 360
f 519 360 359
f 519 360 361
f 519 361 360
f 519 361 362
f 519 362 361
f 519 362 363
f 519 363 362
f 519 363 364
f 519 364 363
f 519 364 365
f 519 365 364
f 519 365 366
f 519 366 365
f 519 366 367
f 519 367 366
f 519 367 368
f 519 368 367
f 519 368 369
f 519 369 368
f 519 369 370
f 519 370 369
f 519 370 371
f 519 371 370
f 519 371 372
f 519 372 371
f 519 372 373
f 519 373 372
f 519 373 374
f 519 374 373
f 519 374 375
f 519 375 374
f 519 375 376
f 519 376 375
f 519 376 377
f 519 377 376
f 519 377 378
f 519 378 377
f 519 378 379
f 519 379 378
f 519 379 380
f 519 380 379
f 519 380 381
f 519 381 380
f 519 381 382
f 519 382 381
f 519 382 383
f 519 383 382
f 519 383 384
f 519 384 383
f 519 384 385
f 519 385 384
f 519 385 386
f 519 386 385
f 519 386 387
f 519 387 386
f 519 387 388
f 519 388 387
f 519 388 389
f 519 389 388
f 519 389 390
f 519 390 389
f 519 390 391
f 519 391 390
f 519 391 392
f 519 392 391
f 519 392 393
f 519 393 392
f 519 393 394
f 519 394 393
f 519 394 395
f 519 395 394
f 519 395 396
f 519 396 395
f 519 396 397
f 519 397 396
f 519 397 398
f 519 398 397
f 519 398 399
f 519 399 398
f 519 399 400
f 519 400 399
f 519 400 401
f 519 401 400
f 519 401 402
f 519 402 401
f 519 402 403
f 519 403 402
f 519 403 404
f 519 404 403
f 519 404 405
f 519 405 404
f 519 405 406
f 519 406 405
f 519 406 407
f 519 407 406
f 519 407 408
f 519 408 407
f 519 408 409
f 519 409 408
f 519 409 410
f 519 410 409
f 519 410 411
f 519 411 410
f 519 411 412
f 519 412 411
f 519 412 413
f 519 413 412
f 519 413 414
f 519 414 413
f 519 414 415
f 519 415 414
f 519 415 416
f 519 416 415
f 519 416 417
f 519 417 416
f 519 417 418
f 519 418 417
f 519 418 419
f 519 419 418
f 519 419 420
f 519 420 419
f 519 420 421
f 519 421 420
f 519 421 422
f 519 422 421
f 519 422 423
f 519 423 422
f 519 423 424
f 519 424 423
f 519 424 425
f 519 425 424
f 519 425 426
f 519 426 425
f 519 426 427
f 519 427 426
f 519 427 428
f 519 428 427
f 519 428 429
f 519 429 428
f 519 429 430
f 519 430 429
f 519 430 431
f 519 431 430
f 519 431 432
f 519 432 431
f 519 432 433
f 519 433 432
f 519 433 434
f 519 434 433
f 519 434 435
f 519 435 434
f 519 435 436
f 519 436 435
f 519 436 437
f 519 437 436
f 519 437 438
f 519 438 437
f 519 438 439
f 519 439 438
f 519 439 440
f 519 440 439
f 519 440 441
f 519 441 440
f 519 441 442
f 519 442 441
f 519 442 443
f 519 443 442
f 519 443 444
f 519 444 443
f 519 444 445
f 519 445 444
f 519 445 446
f 519 446 445
f 519 446 447
f 519 447 446
f 519 447 448
f 519 448 447
f 519 448 449
f 519 449 448
f 519 449 450
f 519 450 449
f 519 450 451
f 519 451 450
f 519 451 452
f 519 452 451
f 519 452 453
f 519 453 452
f 519 453 454
f 519 454 453
f 519 454 455
f 519 455 454
f 519 455 456
f 519 456 455
f 519 456 457
f 519 457 456
f 519 457 458
f 519 458 457
f 519 458 459
f 519 459 458
f 519 459 460
f 519 460 459
f 519 460 461
f 519 461 460
f 519 461 462
f 519 462 461
f 519 462 463
f 519 463 462
f 519 463 464
f 519 464 463
f 519 464 465
f 519 465 464
f 519 465 466
f 519 466 465
f 519 466 467
f 519 467 466
f 519 467 468
f 519 468 467
f 519 468 469
f 519 469 468
f 519 469 470
f 519 470 469
f 519 470 471
f 519 471 470
f 519 471 472
f 519 472 471
f 519 472 473
f 519 473 472
f 519 473 474
f 519 474 473
f 519 474 475
f 519 475 474
f 519 475 476
f 519 476 475
f 519 476 477
f 519 477 476
f 519 477 478
f 519 478 477
f 519 478 479
f 519 479 478
f 519 479 480
f 519 480 479
f 519 480 481
f 519 481 480
f 519 481 482
f 519 482 481
f 519 482 483
f 519 483 482
f 519 483 484
f 519 484 483
f 519 484 485
f 519 485 484
f 519 485 486
f 519 486 485
f 519 486 487
f 519 487 486
f 519 487 488
f 519 488 487
f 519 488 489
f 519 489 488
f 519 489 490
f 519 490 489
f 519 490 491
f 519 491 490
f 519 491 492
f 519 492 491
f 519 492 493
f 519 493 492
f 519 493 494
f 519 494 493
f 519 494 495
f 519 495 494
f 519 495 496
f 519 496 495
f 519 496 497
f 519 497 496
f 519 497 498
f 519 498 497
f 519 498 499
f 519 499 498
f 519 499 500
f 519 500 499
f 519 500 501
f 519 501 500
f 519 501 502
f 519 502 501
f 519 502 503
f 519 503 502
f 519 503 504
f 519 504 503
f 519 504 505
f 519 505 504
f 519 505 506
f 519 506 505
f 519 506 507
f 519 507 506
f 519 507 508
f 519 508 507
f 519 508 509
f 519 509 508
f 519 509 510
f 519 510 509
f 519 510 511
f 519 511 510
f 519 511 512
f 519 512 511
f 519 512 513
f 519 513 512
f 519 513 514
f 519 514 513
f 519 514 515
f 519 515 514
f 519 515 516
f 519 516 515
f 519 516 517
f 519 517 516
f 519 517 518
f 519 518 517
f 519 518 351
f 519 351 518
v 0.026042 0.585026 0.026042 0.689 0.463 0.816
v 0.027736 0.585244 0.025735 0.689 0.463 0.816
v 0.030975 0.585918 0.026656 0.689 0.463 0.816
v 0.035929 0.587107 0.028652 0.689 0.463 0.816
v 0.042597 0.588848 0.031438 0.689 0.463 0.816
v 0.050345 0.590985 0.034325 0.689 0.463 0.816
v 0.057380 0.592928 0.036054 0.689 0.463 0.816
v 0.061084 0.593744 0.035267 0.689 0.463 0.816
v 0.059913 0.592928 0.031665 0.689 0.463 0.816
v 0.054899 0.590985 0.026438 0.689 0.463 0.816
v 0.048525 0.588848 0.021171 0.689 0.463 0.816
v 0.042778 0.587107 0.016789 0.689 0.463 0.816
v 0.038572 0.585918 0.013497 0.689 0.463 0.816
v 0.036155 0.585244 0.011152 0.689 0.463 0.816
v 0.035573 0.585026 0.009532 0.689 0.463 0.816
v 0.036887 0.585244 0.008419 0.689 0.463 0.816
v 0.040153 0.585918 0.007597 0.689 0.463 0.816
v 0.045441 0.587107 0.006849 0.689 0.463 0.816
v 0.052609 0.588848 0.005928 0.689 0.463 0.816
v 0.060763 0.590985 0.004554 0.689 0.463 0.816
v 0.067719 0.592928 0.002534 0.689 0.463 0.816
v 0.070534 0.593744 -0.000000 0.689 0.463 0.816
v 0.067719 0.592928 -0.002534 0.689 0.463 0.816
v 0.060763 0.590985 -0.004554 0.689 0.463 0.816
v 0.052609 0.588848 -0.005928 0.689 0.463 0.816
v 0.045441 0.587107 -0.006849 0.689 0.463 0.816
v 0.040153 0.585918 -0.007597 0.689 0.463 0.816
v 0.036887 0.585244 -0.008419 0.689 0.463 0.816
v 0.035573 0.585026 -0.009532 0.689 0.463 0.816
v 0.036155 0.585244 -0.011152 0.689 0.463 0.816
v 0.038572 0.585918 -0.013497 0.689 0.463 0.816
v 0.042778 0.587107 -0.016789 0.689 0.463 0.816
v 0.048525 0.588848 -0.021171 0.689 0.463 0.816
v 0.054899 0.590985 -0.026438 0.689 0.463 0.816
v 0.059913 0.592928 -0.031665 0.689 0.463 0.816
v 0.061084 0.593744 -0.035267 0.689 0.463 0.816
v 0.057380 0.592928 -0.036054 0.689 0.463 0.816
v 0.050345 0.590985 -0.034325 0.689 0.463 0.816
v 0.042597 0.588848 -0.031438 0.689 0.463 0.816
v 0.035929 0.587107 -0.028652 0.689 0.463 0.816
v 0.030975 0.585918 -0.026656 0.689 0.463 0.816
v 0.027736 0.585244 -0.025735 0.689 0.463 0.816
v 0.026042 0.585026 -0.026042 0.689 0.463 0.816
v 0.025735 0.585244 -0.027736 0.689 0.463 0.816
v 0.026656 0.585918 -0.030975 0.689 0.463 0.816
v 0.028652 0.587107 -0.035929 0.689 0.463 0.816
v 0.031438 0.588848 -0.042597 0.689 0.463 0.816
v 0.034325 0.590985 -0.050345 0.689 0.463 0.816
v 0.036054 0.592928 -0.057380 0.689 0.463 0.816
v 0.035267 0.593744 -0.061084 0.689 0.463 0.816
v 0.031665 0.592928 -0.059913 0.689 0.463 0.816
v 0.026438 0.590985 -0.054899 0.689 0.463 0.816
v 0.021171 0.588848 -0.048525 0.689 0.463 0.816
v 0.016789 0.587107 -0.042778 0.689 0.463 0.816
v 0.013497 0.585918 -0.038572 0.689 0.463 0.816
v 0.011152 0.585244 -0.036155 0.689 0.463 0.816
v 0.009532 0.585026 -0.035573 0.689 0.463 0.816
v 0.008419 0.585244 -0.036887 0.689 0.463 0.816
v 0.007597 0.585918 -0.040153 0.689 0.463 0.816
v 0.006849 0.587107 -0.045441 0.689 0.463 0.816
v 0.005928 0.588848 -0.052609 0.689 0.463 0.816
v 0.004554 0.590985 -0.060763 0.689 0.463 0.816
v 0.002534 0.592928 -0.067719 0.689 0.463 0.816
v 0.000000 0.593744 -0.070534 0.689 0.463 0.816
v -0.002534 0.592928 -0.067719 0.689 0.463 0.816
v -0.004554 0.590985 -0.060763 0.689 0.463 0.816
v -0.005928 0.588848 -0.052609 0.689 0.463 0.816
v -0.006849 0.587107 -0.045441 0.689 0.463 0.816
v -0.007597 0.585918 -0.040153 0.689 0.463 0.816
v -0.008419 0.585244 -0.036887 0.689 0.463 0.816
v -0.009532 0.585026 -0.035573 0.689 0.463 0.816
v -0.011152 0.585244 -0.036155 0.689 0.463 0.816
v -0.013497 0.585918 -0.038572 0.689 0.463 0.816
v -0.016789 0.587107 -0.042778 0.689 0.463 0.816
v -0.021171 0.588848 -0.048525 0.689 0.463 0.816
v -0.026438 0.590985 -0.054899 0.689 0.463 0.816
v -0.031665 0.592928 -0.059913 0.689 0.463 0.816
v -0.035267 0.593744 -0.061084 0.689 0.463 0.816
v -0.036054 0.592928 -0.057380 0.689 0.463 0.816
v -0.034325 0.590985 -0.050345 0.689 0.463 0.816
v -0.031438 0.588848 -0.042597 0.689 0.463 0.816
v -0.028652 0.587107 -0.035929 0.689 0.463 0.816
v -0.026656 0.585918 -0.030975 0.689 0.463 0.816
v -0.025735 0.585244 -0.027736 0.689 0.463 0.816
v -0.026042 0.585026 -0.026042 0.689 0.463 0.816
v -0.027736 0.585244 -0.025735 0.689 0.463 0.816
v -0.030975 0.585918 -0.026656 0.689 0.463 0.816
v -0.035929 0.587107 -0.028652 0.689 0.463 0.816
v -0.042597 0.588848 -0.031438 0.689 0.463 0.816
v -0.050345 0.590985 -0.034325 0.689 0.463 0.816
v -0.057380 0.592928 -0.036054 0.689 0.463 0.816
v -0.061084 0.593744 -0.035267 0.689 0.463 0.816
v -0.059913 0.592928 -0.031665 0.689 0.463 0.816
v -0.054899 0.590985 -0.026438 0.689 0.463 0.816
v -0.048525 0.588848 -0.021171 0.689 0.463 0.816
v -0.042778 0.587107 -0.016789 0.689 0.463 0.816
v -0.038572 0.585918 -0.013497 0.689 0.463 0.816
v -0.036155 0.585244 -0.011152 0.689 0.463 0.816
v -0.035573 0.585026 -0.009532 0.689 0.463 0.816
v -0.036887 0.585244 -0.008419 0.689 0.463 0.816
v -0.040153 0.585918 -0.007597 0.689 0.463 0.816
v -0.045441 0.587107 -0.006849 0.689 0.463 0.816
v -0.052609 0.588848 -0.005928 0.689 0.463 0.816
v -0.060763 0.590985 -0.004554 0.689 0.463 0.816
v -0.067719 0.592928 -0.002534 0.689 0.463 0.816
v -0.070534 0.593744 0.000000 0.689 0.463 0.816
v -0.067719 0.592928 0.002534 0.689 0.463 0.816
v -0.060763 0.590985 0.004554 0.689 0.463 0.816
v -0.052609 0.588848 0.005928 0.689 0.463 0.816
v -0.045441 0.587107 0.006849 0.689 0.463 0.816
v -0.040153 0.585918 0.007597 0.689 0.463 0.816
v -0.036887 0.585244 0.008419 0.689 0.463 0.816
v -0.035573 0.585026 0.009532 0.689 0.463 0.816
v -0.036155 0.585244 0.011152 0.689 0.463 0.816
v -0.038572 0.585918 0.013497 0.689 0.463 0.816
v -0.042778 0.587107 0.016789 0.689 0.463 0.816
v -0.048525 0.588848 0.021171 0.689 0.463 0.816
v -0.054899 0.590985 0.026438 0.689 0.463 0.816
v -0.059913 0.592928 0.031665 0.689 0.463 0.816
v -0.061084 0.593744 0.035267 0.689 0.463 0.816
v -0.057380 0.592928 0.036054 0.689 0.463 0.816
v -0.050345 0.590985 0.034325 0.689 0.463 0.816
v -0.042597 0.588848 0.031438 0.689 0.463 0.816
v -0.035929 0.587107 0.028652 0.689 0.463 0.816
v -0.030975 0.585918 0.026656 0.689 0.463 0.816
v -0.027736 0.585244 0.025735 0.689 0.463 0.816
v -0.026042 0.585026 0.026042 0.689 0.463 0.816
v -0.025735 0.585244 0.027736 0.689 0.463 0.816
v -0.026656 0.585918 0.030975 0.689 0.463 0.816
v -0.028652 0.587107 0.035929 0.689 0.463 0.816
v -0.031438 0.588848 0.042597 0.689 0.463 0.816
v -0.034325 0.590985 0.050345 0.689 0.463 0.816
v -0.036054 0.592928 0.057380 0.689 0.463 0.816
v -0.035267 0.593744 0.061084 0.689 0.463 0.816
v -0.031665 0.592928 0.059913 0.689 0.463 0.816
v -0.026438 0.590985 0.054899 0.689 0.463 0.816
v -0.021171 0.588848 0.048525 0.689 0.463 0.816
v -0.016789 0.587107 0.042778 0.689 0.463 0.816
v -0.013497 0.585918 0.038572 0.689 0.463 0.816
v -0.011152 0.585244 0.036155 0.689 0.463 0.816
v -0.009532 0.585026 0.035573 0.689 0.463 0.816
v -0.008419 0.585244 0.036887 0.689 0.463 0.816
v -0.007597 0.585918 0.040153 0.689 0.463 0.816
v -0.006849 0.587107 0.045441 0.689 0.463 0.816
v -0.005928 0.588848 0.052609 0.689 0.463 0.816
v -0.004554 0.590985 0.060763 0.689 0.463 0.816
v -0.002534 0.592928 0.067719 0.689 0.463 0.816
v -0.000000 0.593744 0.070534 0.689 0.463 0.816
v 0.002534 0.592928 0.067719 0.689 0.463 0.816
v 0.004554 0.590985 0.060763 0.689 0.463 0.816
v 0.005928 0.588848 0.052609 0.689 0.463 0.816
v 0.006849 0.587107 0.045441 0.689 0.463 0.816
v 0.007597 0.585918 0.040153 0.689 0.463 0.816
v 0.008419 0.585244 0.036887 0.689 0.463 0.816
v 0.009532 0.585026 0.035573 0.689 0.463 0.816
v 0.011152 0.585244 0.036155 0.689 0.463 0.816
v 0.013497 0.585918 0.038572 0.689 0.463 0.816
v 0.016789 0.587107 0.042778 0.689 0.463 0.816
v 0.021171 0.588848 0.048525 0.689 0.463 0.816
v 0.026438 0.590985 0.054899 0.689 0.463 0.816
v 0.031665 0.592928 0.059913 0.689 0.463 0.816
v 0.035267 0.593744 0.061084 0.689 0.463 0.816
v 0.036054 0.592928 0.057380 0.689 0.463 0.816
v 0.034325 0.590985 0.050345 0.689 0.463 0.816
v 0.031438 0.588848 0.042597 0.689 0.463 0.816
v 0.028652 0.587107 0.035929 0.689 0.463 0.816
v 0.026656 0.585918 0.030975 0.689 0.463 0.816
v 0.025735 0.585244 0.027736 0.689 0.463 0.816
v 0.000000 0.579744 -0.000000 0.689 0.463 0.816
f 688 520 521
f 688 521 520
f 688 521 522
f 688 522 521
f 688 522 523
f 688 523 522
f 688 523 524
f 688 524 523
f 688 524 525
f 688 525 524
f 688 525 526
f 688 526 525
f 688 526 527
f 688 527 526
f 688 527 528
f 688 528 527
f 688 528 529
f 688 529 528
f 688 529 530
f 688 530 529
f 688 530 531
f 688 531 530
f 688 531 532
f 688 532 531
f 688 532 533
f 688 533 532
f 688 533 534
f 688 534 533
f 688 534 535
f 688 535 534
f 688 535 536
f 688 536 535
f 688 536 537
f 688 537 536
f 688 537 538
f 688 538 537
f 688 538 539
f 688 539 538
f 688 539 540
f 688 540 539
f 688 540 541
f 688 541 540
f 688 541 542
f 688 542 541
f 688 542 543
f 688 543 542
f 688 543 544
f 688 544 543
f 688 544 545
f 688 545 544
f 688 545 546
f 688 546 545
f 688 546 547
f 688 547 546
f 688 547 548
f 688 548 547
f 688 548 549
f 688 549 548
f 688 549 550
f 688 550 549
f 688 550 551
f 688 551 550
f 688 551 552
f 688 552 551
f 688 552 553
f 688 553 552
f 688 553 554
f 688 554 553
f 688 554 555
f 688 555 554
f 688 555 556
f 688 556 555
f 688 556 557
f 688 557 556
f 688 557 558
f 688 558 557
f 688 558 559
f 688 559 558
f 688 559 560
f 688 560 559
f 688 560 561
f 688 561 560
f 688 561 562
f 688 562 561
f 688 562 563
f 688 563 562
f 688 563 564
f 688 564 563
f 688 564 565
f 688 565 564
f 688 565 566
f 688 566 565
f 688 566 567
f 688 567 566
f 688 567 568
f 688 568 567
f 688 568 569
f 688 569 568
f 688 569 570
f 688 570 569
f 688 570 571
f 688 571 570
f 688 571 572
f 688 572 571
f 688 572 573
f 688 573 572
f 688 573 574
f 688 574 573
f 688 574 575
f 688 575 574
f 688 575 576
f 688 576 575
f 688 576 577
f 688 577 576
f 688 577 578
f 688 578 577
f 688 578 579
f 688 579 578
f 688 579 580
f 688 580 579
f 688 580 581
f 688 581 580
f 688 581 582
f 688 582 581
f 688 582 583
f 688 583 582
f 688 583 584
f 688 584 583
f 688 584 585
f 688 585 584
f 688 585 586
f 688 586 585
f 688 586 587
f 688 587 586
f 688 587 588
f 688 588 587
f 688 588 589
f 688 589 588
f 688 589 590
f 688 590 589
f 688 590 591
f 688 591 590
f 688 591 592
f 688 592 591
f 688 592 593
f 688 593 592
f 688 593 594
f 688 594 593
f 688 594 595
f 688 595 594
f 688 595 596
f 688 596 595
f 688 596 597
f 688 597 596
f 688 597 598
f 688 598 597
f 688 598 599
f 688 599 598
f 688 599 600
f 688 600 599
f 688 600 601
f 688 601 600
f 688 601 602
f 688 602 601
f 688 602 603
f 688 603 602
f 688 603 604
f 688 604 603
f 688 604 605
f 688 605 604
f 688 605 606
f 688 606 605
f 688 606 607
f 688 607 606
f 688 607 608
f 688 608 607
f 688 608 609
f 688 609 608
f 688 609 610
f 688 610 609
f 688 610 611
f 688 611 610
f 688 611 612
f 688 612 611
f 688 612 613
f 688 613 612
f 688 613 614
f 688 614 613
f 688 614 615
f 688 615 614
f 688 615 616
f 688 616 615
f 688 616 617
f 688 617 616
f 688 617 618
f 688 618 617
f 688 618 619
f 688 619 618
f 688 619 620
f 688 620 619
f 688 620 621
f 688 621 620
f 688 621 622
f 688 622 621
f 688 622 623
f 688 623 622
f 688 623 624
f 688 624 623
f 688 624 625
f 688 625 624
f 688 625 626
f 688 626 625
f 688 626 627
f 688 627 626
f 688 627 628
f 688 628 627
f 688 628 629
f 688 629 628
f 688 629 630
f 688 630 629
f 688 630 631
f 688 631 630
f 688 631 632
f 688 632 631
f 688 632 633
f 688 633 632
f 688 633 634
f 688 634 633
f 688 634 635
f 688 635 634
f 688 635 636
f 688 636 635
f 688 636 637
f 688 637 636
f 688 637 638
f 688 638 637
f 688 638 639
f 688 639 638
f 688 639 640
f 688 640 639
f 688 640 641
f 688 641 640
f 688 641 642
f 688 642 641
f 688 642 643
f 688 643 642
f 688 643 644
f 688 644 643
f 688 644 645
f 688 645 644
f 688 645 646
f 688 646 645
f 688 646 647
f 688 647 646
f 688 647 648
f 688 648 647
f 688 648 649
f 688 649 648
f 688 649 650
f 688 650 649
f 688 650 651
f 688 651 650
f 688 651 652
f 688 652 651
f 688 652 653
f 688 653 652
f 688 653 654
f 688 654 653
f 688 654 655
f 688 655 654
f 688 655 656
f 688 656 655
f 688 656 657
f 688 657 656
f 688 657 658
f 688 658 657
f 688 658 659
f 688 659 658
f 688 659 660
f 688 660 659
f 688 660 661
f 688 661 660
f 688 661 662
f 688 662 661
f 688 662 663
f 688 663 662
f 688 663 664
f 688 664 663
f 688 664 665
f 688 665 664
f 688 665 666
f 688 666 665
f 688 666 667
f 688 667 666
f 688 667 668
f 688 668 667
f 688 668 669
f 688 669 668
f 688 669 670
f 688 670 669
f 688 670 671
f 688 671 670
f 688 671 672
f 688 672 671
f 688 672 673
f 688 673 672
f 688 673 674
f 688 674 673
f 688 674 675
f 688 675 674
f 688 675 676
f 688 676 675
f 688 676 677
f 688 677 676
f 688 677 678
f 688 678 677
f 688 678 679
f 688 679 678
f 688 679 680
f 688 680 679
f 688 680 681
f 688 681 680
f 688 681 682
f 688 682 681
f 688 682 683
f 688 683 682
f 688 683 684
f 688 684 683
f 688 684 685
f 688 685 684
f 688 685 686
f 688 686 685
f 688 686 687
f 688 687 686
f 688 687 520
f 688 520 687
v 0.026153 0.585781 0.015100 0.747 0.564 0.850
v 0.027430 0.586030 0.014497 0.747 0.564 0.850
v 0.030191 0.586800 0.014539 0.747 0.564 0.850
v 0.034538 0.588158 0.015069 0.747 0.564 0.850
v 0.040412 0.590149 0.015860 0.747 0.564 0.850
v 0.047161 0.592591 0.016502 0.747 0.564 0.850
v 0.053100 0.594812 0.016379 0.747 0.564 0.850
v 0.055867 0.595744 0.014970 0.747 0.564 0.850
v 0.054175 0.594812 0.012365 0.747 0.564 0.850
v 0.049094 0.592591 0.009289 0.747 0.564 0.850
v 0.042928 0.590149 0.006470 0.747 0.564 0.850
v 0.037446 0.588158 0.004219 0.747 0.564 0.850
v 0.033416 0.586800 0.002504 0.747 0.564 0.850
v 0.031004 0.586030 0.001160 0.747 0.564 0.850
v 0.030199 0.585781 0.000000 0.747 0.564 0.850
v 0.031004 0.586030 -0.001160 0.747 0.564 0.850
v 0.033416 0.586800 -0.002504 0.747 0.564 0.850
v 0.037446 0.588158 -0.004219 0.747 0.564 0.850
v 0.042928 0.590149 -0.006470 0.747 0.564 0.850
v 0.049094 0.592591 -0.009289 0.747 0.564 0.850
v 0.054175 0.594812 -0.012365 0.747 0.564 0.850
v 0.055867 0.595744 -0.014970 0.747 0.564 0.850
v 0.053100 0.594812 -0.016379 0.747 0.564 0.850
v 0.047161 0.592591 -0.016502 0.747 0.564 0.850
v 0.040412 0.590149 -0.015860 0.747 0.564 0.850
v 0.034538 0.588158 -0.015069 0.747 0.564 0.850
v 0.030191 0.586800 -0.014539 0.747 0.564 0.850
v 0.027430 0.586030 -0.014497 0.747 0.564 0.850
v 0.026153 0.585781 -0.015100 0.747 0.564 0.850
v 0.026270 0.586030 -0.016507 0.747 0.564 0.850
v 0.027687 0.586800 -0.018876 0.747 0.564 0.850
v 0.030319 0.588158 -0.022377 0.747 0.564 0.850
v 0.033941 0.590149 -0.027067 0.747 0.564 0.850
v 0.037872 0.592591 -0.032592 0.747 0.564 0.850
v 0.040735 0.594812 -0.037796 0.747 0.564 0.850
v 0.040897 0.595744 -0.040897 0.747 0.564 0.850
v 0.037796 0.594812 -0.040735 0.747 0.564 0.850
v 0.032592 0.592591 -0.037872 0.747 0.564 0.850
v 0.027067 0.590149 -0.033941 0.747 0.564 0.850
v 0.022377 0.588158 -0.030319 0.747 0.564 0.850
v 0.018876 0.586800 -0.027687 0.747 0.564 0.850
v 0.016507 0.586030 -0.026270 0.747 0.564 0.850
v 0.015100 0.585781 -0.026153 0.747 0.564 0.850
v 0.014497 0.586030 -0.027430 0.747 0.564 0.850
v 0.014539 0.586800 -0.030191 0.747 0.564 0.850
v 0.015069 0.588158 -0.034538 0.747 0.564 0.850
v 0.015860 0.590149 -0.040412 0.747 0.564 0.850
v 0.016502 0.592591 -0.047161 0.747 0.564 0.850
v 0.016379 0.594812 -0.053100 0.747 0.564 0.850
v 0.014970 0.595744 -0.055867 0.747 0.564 0.850
v 0.012365 0.594812 -0.054175 0.747 0.564 0.850
v 0.009289 0.592591 -0.049094 0.747 0.564 0.850
v 0.006470 0.590149 -0.042928 0.747 0.564 0.850
v 0.004219 0.588158 -0.037446 0.747 0.564 0.850
v 0.002504 0.586800 -0.033416 0.747 0.564 0.850
v 0.001160 0.586030 -0.031004 0.747 0.564 0.850
v -0.000000 0.585781 -0.030199 0.747 0.564 0.850
v -0.001160 0.586030 -0.031004 0.747 0.564 0.850
v -0.002504 0.586800 -0.033416 0.747 0.564 0.850
v -0.004219 0.588158 -0.037446 0.747 0.564 0.850
v -0.006470 0.590149 -0.042928 0.747 0.564 0.850
v -0.009289 0.592591 -0.049094 0.747 0.564 0.850
v -0.012365 0.594812 -0.054175 0.747 0.564 0.850
v -0.014970 0.595744 -0.055867 0.747 0.564 0.850
v -0.016379 0.594812 -0.053100 0.747 0.564 0.850
v -0.016502 0.592591 -0.047161 0.747 0.564 0.850
v -0.015860 0.590149 -0.040412 0.747 0.564 0.850
v -0.015069 0.588158 -0.034538 0.747 0.564 0.850
v -0.014539 0.586800 -0.030191 0.747 0.564 0.850
v -0.014497 0.586030 -0.027430 0.747 0.564 0.850
v -0.015100 0.585781 -0.026153 0.747 0.564 0.850
v -0.016507 0.586030 -0.026270 0.747 0.564 0.850
v -0.018876 0.586800 -0.027687 0.747 0.564 0.850
v -0.022377 0.588158 -0.030319 0.747 0.564 0.850
v -0.027067 0.590149 -0.033941 0.747 0.564 0.850
v -0.032592 0.592591 -0.037872 0.747 0.564 0.850
v -0.037796 0.594812 -0.040735 0.747 0.564 0.850
v -0.040897 0.595744 -0.040897 0.747 0.564 0.850
v -0.040735 0.594812 -0.037796 0.747 0.564 0.850
v -0.037872 0.592591 -0.032592 0.747 0.564 0.850
v -0.033941 0.590149 -0.027067 0.747 0.564 0.850
v -0.030319 0.588158 -0.022377 0.747 0.564 0.850
v -0.027687 0.586800 -0.018876 0.747 0.564 0.850
v -0.026270 0.586030 -0.016507 0.747 0.564 0.850
v -0.026153 0.585781 -0.015100 0.747 0.564 0.850
v -0.027430 0.586030 -0.014497 0.747 0.564 0.850
v -0.030191 0.586800 -0.014539 0.747 0.564 0.850
v -0.034538 0.588158 -0.015069 0.747 0.564 0.850
v -0.040412 0.590149 -0.015860 0.747 0.564 0.850
v -0.047161 0.592591 -0.016502 0.747 0.564 0.850
v -0.053100 0.594812 -0.016379 0.747 0.564 0.850
v -0.055867 0.595744 -0.014970 0.747 0.564 0.850
v -0.054175 0.594812 -0.012365 0.747 0.564 0.850
v -0.049094 0.592591 -0.009289 0.747 0.564 0.850
v -0.042928 0.590149 -0.006470 0.747 0.564 0.850
v -0.037446 0.588158 -0.004219 0.747 0.564 0.850
v -0.033416 0.586800 -0.002504 0.747 0.564 0.850
v -0.031004 0.586030 -0.001160 0.747 0.564 0.850
v -0.030199 0.585781 -0.000000 0.747 0.564 0.850
v -0.031004 0.586030 0.001160 0.747 0.564 0.850
v -0.033416 0.586800 0.002504 0.747 0.564 0.850
v -0.037446 0.588158 0.004219 0.747 0.564 0.850
v -0.042928 0.590149 0.006470 0.747 0.564 0.850
v -0.049094 0.592591 0.009289 0.747 0.564 0.850
v -0.054175 0.594812 0.012365 0.747 0.564 0.850
v -0.055867 0.595744 0.014970 0.747 0.564 0.850
v -0.053100 0.594812 0.016379 0.747 0.564 0.850
v -0.047161 0.592591 0.016502 0.747 0.564 0.850
v -0.040412 0.590149 0.015860 0.747 0.564 0.850
v -0.034538 0.588158 0.015069 0.747 0.564 0.850
v -0.030191 0.586800 0.014539 0.747 0.564 0.850
v -0.027430 0.586030 0.014497 0.747 0.564 0.850
v -0.026153 0.585781 0.015100 0.747 0.564 0.850
v -0.026270 0.586030 0.016507 0.747 0.564 0.850
v -0.027687 0.586800 0.018876 0.747 0.564 0.850
v -0.030319 0.588158 0.022377 0.747 0.564 0.850
v -0.033941 0.590149 0.027067 0.747 0.564 0.850
v -0.037872 0.592591 0.032592 0.747 0.564 0.850
v -0.040735 0.594812 0.037796 0.747 0.564 0.850
v -0.040897 0.595744 0.040897 0.747 0.564 0.850
v -0.037796 0.594812 0.040735 0.747 0.564 0.850
v -0.032592 0.592591 0.037872 0.747 0.564 0.850
v -0.027067 0.590149 0.033941 0.747 0.564 0.850
v -0.022377 0.588158 0.030319 0.747 0.564 0.850
v -0.018876 0.586800 0.027687 0.747 0.564 0.850
v -0.016507 0.586030 0.026270 0.747 0.564 0.850
v -0.015100 0.585781 0.026153 0.747 0.564 0.850
v -0.014497 0.586030 0.027430 0.747 0.564 0.850
v -0.014539 0.586800 0.030191 0.747 0.564 0.850
v -0.015069 0.588158 0.034538 0.747 0.564 0.850
v -0.015860 0.590149 0.040412 0.747 0.564 0.850
v -0.016502 0.592591 0.047161 0.747 0.564 0.850
v -0.016379 0.594812 0.053100 0.747 0.564 0.850
v -0.014970 0.595744 0.055867 0.747 0.564 0.850
v -0.012365 0.594812 0.054175 0.747 0.564 0.850
v -0.009289 0.592591 0.049094 0.747 0.564 0.850
v -0.006470 0.590149 0.042928 0.747 0.564 0.850
v -0.004219 0.588158 0.037446 0.747 0.564 0.850
v -0.002504 0.586800 0.033416 0.747 0.564 0.850
v -0.001160 0.586030 0.031004 0.747 0.564 0.850
v 0.000000 0.585781 0.030199 0.747 0.564 0.850
v 0.001160 0.586030 0.031004 0.747 0.564 0.850
v 0.002504 0.586800 0.033416 0.747 0.564 0.850
v 0.004219 0.588158 0.037446 0.747 0.564 0.850
v 0.006470 0.590149 0.042928 0.747 0.564 0.850
v 0.009289 0.592591 0.049094 0.747 0.564 0.850
v 0.012365 0.594812 0.054175 0.747 0.564 0.850
v 0.014970 0.595744 0.055867 0.747 0.564 0.850
v 0.016379 0.594812 0.053100 0.747 0.564 0.850
v 0.016502 0.592591 0.047161 0.747 0.564 0.850
v 0.015860 0.590149 0.040412 0.747 0.564 0.850
v 0.015069 0.588158 0.034538 0.747 0.564 0.850
v 0.014539 0.586800 0.030191 0.747 0.564 0.850
v 0.014497 0.586030 0.027430 0.747 0.564 0.850
v 0.015100 0.585781 0.026153 0.747 0.564 0.850
v 0.016507 0.586030 0.026270 0.747 0.564 0.850
v 0.018876 0.586800 0.027687 0.747 0.564 0.850
v 0.022377 0.588158 0.030319 0.747 0.564 0.850
v 0.027067 0.590149 0.033941 0.747 0.564 0.850
v 0.032592 0.592591 0.037872 0.747 0.564 0.850
v 0.037796 0.594812 0.040735 0.747 0.564 0.850
v 0.040897 0.595744 0.040897 0.747 0.564 0.850
v 0.040735 0.594812 0.037796 0.747 0.564 0.850
v 0.037872 0.592591 0.032592 0.747 0.564 0.850
v 0.033941 0.590149 0.027067 0.747 0.564 0.850
v 0.030319 0.588158 0.022377 0.747 0.564 0.850
v 0.027687 0.586800 0.018876 0.747 0.564 0.850
v 0.026270 0.586030 0.016507 0.747 0.564 0.850
v 0.000000 0.579744 -0.000000 0.747 0.564 0.850
f 857 689 690
f 857 690 689
f 857 690 691
f 857 691 690
f 857 691 692
f 857 692 691
f 857 692 693
f 857 693 692
f 857 693 694
f 857 694 693
f 857 694 695
f 857 695 694
f 857 695 696
f 857 696 695
f 857 696 697
f 857 697 696
f 857 697 698
f 857 698 697
f 857 698 699
f 857 699 698
f 857 699 700
f 857 700 699
f 857 700 701
f 857 701 700
f 857 701 702
f 857 702 701
f 857 702 703
f 857 703 702
f 857 703 704
f 857 704 703
f 857 704 705
f 857 705 704
f 857 705 706
f 857 706 705
f 857 706 707
f 857 707 706
f 857 707 708
f 857 708 707
f 857 708 709
f 857 709 708
f 857 709 710
f 857 710 709
f 857 710 711
f 857 711 710
f 857 711 712
f 857 712 711
f 857 712 713
f 857 713 712
f 857 713 714
f 857 714 713
f 857 714 715
f 857 715 714
f 857 715 716
f 857 716 715
f 857 716 717
f 857 717 716
f 857 717 718
f 857 718 717
f 857 718 719
f 857 719 718
f 857 719 720
f 857 720 719
f 857 720 721
f 857 721 720
f 857 721 722
f 857 722 721
f 857 722 723
f 857 723 722
f 857 723 724
f 857 724 723
f 857 724 725
f 857 725 724
f 857 725 726
f 857 726 725
f 857 726 727
f 857 727 726
f 857 727 728
f 857 728 727
f 857 728 729
f 857 729 728
f 857 729 730
f 857 730 729
f 857 730 731
f 857 731 730
f 857 731 732
f 857 732 731
f 857 732 733
f 857 733 732
f 857 733 734
f 857 734 733
f 857 734 735
f 857 735 734
f 857 735 736
f 857 736 735
f 857 736 737
f 857 737 736
f 857 737 738
f 857 738 737
f 857 738 739
f 857 739 738
f 857 739 740
f 857 740 739
f 857 740 741
f 857 741 740
f 857 741 742
f 857 742 741
f 857 742 743
f 857 743 742
f 857 743 744
f 857 744 743
f 857 744 745
f 857 745 744
f 857 745 746
f 857 746 745
f 857 746 747
f 857 747 746
f 857 747 748
f 857 748 747
f 857 748 749
f 857 749 748
f 857 749 750
f 857 750 749
f 857 750 751
f 857 751 750
f 857 751 752
f 857 752 751
f 857 752 753
f 857 753 752
f 857 753 754
f 857 754 753
f 857 754 755
f 857 755 754
f 857 755 756
f 857 756 755
f 857 756 757
f 857 757 756
f 857 757 758
f 857 758 757
f 857 758 759
f 857 759 758
f 857 759 760
f 857 760 759
f 857 760 761
f 857 761 760
f 857 761 762
f 857 762 761
f 857 762 763
f 857 763 762
f 857 763 764
f 857 764 763
f 857 764 765
f 857 765 764
f 857 765 766
f 857 766 765
f 857 766 767
f 857 767 766
f 857 767 768
f 857 768 767
f 857 768 769
f 857 769 768
f 857 769 770
f 857 770 769
f 857 770 771
f 857 771 770
f 857 771 772
f 857 772 771
f 857 772 773
f 857 773 772
f 857 773 774
f 857 774 773
f 857 774 775
f 857 775 774
f 857 775 776
f 857 776 775
f 857 776 777
f 857 777 776
f 857 777 778
f 857 778 777
f 857 778 779
f 857 779 778
f 857 779 780
f 857 780 779
f 857 780 781
f 857 781 780
f 857 781 782
f 857 782 781
f 857 782 783
f 857 783 782
f 857 783 784
f 857 784 783
f 857 784 785
f 857 785 784
f 857 785 786
f 857 786 785
f 857 786 787
f 857 787 786
f 857 787 788
f 857 788 787
f 857 788 789
f 857 789 788
f 857 789 790
f 857 790 789
f 857 790 791
f 857 791 790
f 857 791 792
f 857 792 791
f 857 792 793
f 857 793 792
f 857 793 794
f 857 794 793
f 857 794 795
f 857 795 794
f 857 795 796
f 857 796 795
f 857 796 797
f 857 797 796
f 857 797 798
f 857 798 797
f 857 798 799
f 857 799 798
f 857 799 800
f 857 800 799
f 857 800 801
f 857 801 800
f 857 801 802
f 857 802 801
f 857 802 803
f 857 803 802
f 857 803 804
f 857 804 803
f 857 804 805
f 857 805 804
f 857 805 806
f 857 806 805
f 857 806 807
f 857 807 806
f 857 807 808
f 857 808 807
f 857 808 809
f 857 809 808
f 857 809 810
f 857 810 809
f 857 810 811
f 857 811 810
f 857 811 812
f 857 812 811
f 857 812 813
f 857 813 812
f 857 813 814
f 857 814 813
f 857 814 815
f 857 815 814
f 857 815 816
f 857 816 815
f 857 816 817
f 857 817 816
f 857 817 818
f 857 818 817
f 857 818 819
f 857 819 818
f 857 819 820
f 857 820 819
f 857 820 821
f 857 821 820
f 857 821 822
f 857 822 821
f 857 822 823
f 857 823 822
f 857 823 824
f 857 824 823
f 857 824 825
f 857 825 824
f 857 825 826
f 857 826 825
f 857 826 827
f 857 827 826
f 857 827 828
f 857 828 827
f 857 828 829
f 857 829 828
f 857 829 830
f 857 830 829
f 857 830 831
f 857 831 830
f 857 831 832
f 857 832 831
f 857 832 833
f 857 833 832
f 857 833 834
f 857 834 833
f 857 834 835
f 857 835 834
f 857 835 836
f 857 836 835
f 857 836 837
f 857 837 836
f 857 837 838
f 857 838 837
f 857 838 839
f 857 839 838
f 857 839 840
f 857 840 839
f 857 840 841
f 857 841 840
f 857 841 842
f 857 842 841
f 857 842 843
f 857 843 842
f 857 843 844
f 857 844 843
f 857 844 845
f 857 845 844
f 857 845 846
f 857 846 845
f 857 846 847
f 857 847 846
f 857 847 848
f 857 848 847
f 857 848 849
f 857 849 848
f 857 849 850
f 857 850 849
f 857 850 851
f 857 851 850
f 857 851 852
f 857 852 851
f 857 852 853
f 857 853 852
f 857 853 854
f 857 854 853
f 857 854 855
f 857 855 854
f 857 855 856
f 857 856 855
f 857 856 689
f 857 689 856
v 0.023920 0.586535 0.006409 0.806 0.664 0.885
v 0.024803 0.586816 0.005661 0.806 0.664 0.885
v 0.026999 0.587682 0.005108 0.806 0.664 0.885
v 0.030555 0.589210 0.004605 0.806 0.664 0.885
v 0.035375 0.591449 0.003986 0.806 0.664 0.885
v 0.040857 0.594197 0.003062 0.806 0.664 0.885
v 0.045534 0.596695 0.001704 0.806 0.664 0.885
v 0.047427 0.597744 0.000000 0.806 0.664 0.885
v 0.045534 0.596695 -0.001704 0.806 0.664 0.885
v 0.040857 0.594197 -0.003062 0.806 0.664 0.885
v 0.035375 0.591449 -0.003986 0.806 0.664 0.885
v 0.030555 0.589210 -0.004605 0.806 0.664 0.885
v 0.026999 0.587682 -0.005108 0.806 0.664 0.885
v 0.024803 0.586816 -0.005661 0.806 0.664 0.885
v 0.023920 0.586535 -0.006409 0.806 0.664 0.885
v 0.024311 0.586816 -0.007499 0.806 0.664 0.885
v 0.025936 0.587682 -0.009075 0.806 0.664 0.885
v 0.028764 0.589210 -0.011289 0.806 0.664 0.885
v 0.032628 0.591449 -0.014236 0.806 0.664 0.885
v 0.036914 0.594197 -0.017777 0.806 0.664 0.885
v 0.040286 0.596695 -0.021292 0.806 0.664 0.885
v 0.041073 0.597744 -0.023713 0.806 0.664 0.885
v 0.038582 0.596695 -0.024243 0.806 0.664 0.885
v 0.033852 0.594197 -0.023080 0.806 0.664 0.885
v 0.028642 0.591449 -0.021139 0.806 0.664 0.885
v 0.024158 0.589210 -0.019266 0.806 0.664 0.885
v 0.020827 0.587682 -0.017923 0.806 0.664 0.885
v 0.018650 0.586816 -0.017304 0.806 0.664 0.885
v 0.017510 0.586535 -0.017510 0.806 0.664 0.885
v 0.017304 0.586816 -0.018650 0.806 0.664 0.885
v 0.017923 0.587682 -0.020827 0.806 0.664 0.885
v 0.019266 0.589210 -0.024158 0.806 0.664 0.885
v 0.021139 0.591449 -0.028642 0.806 0.664 0.885
v 0.023080 0.594197 -0.033852 0.806 0.664 0.885
v 0.024243 0.596695 -0.038582 0.806 0.664 0.885
v 0.023713 0.597744 -0.041073 0.806 0.664 0.885
v 0.021292 0.596695 -0.040286 0.806 0.664 0.885
v 0.017777 0.594197 -0.036914 0.806 0.664 0.885
v 0.014236 0.591449 -0.032628 0.806 0.664 0.885
v 0.011289 0.589210 -0.028764 0.806 0.664 0.885
v 0.009075 0.587682 -0.025936 0.806 0.664 0.885
v 0.007499 0.586816 -0.024311 0.806 0.664 0.885
v 0.006409 0.586535 -0.023920 0.806 0.664 0.885
v 0.005661 0.586816 -0.024803 0.806 0.664 0.885
v 0.005108 0.587682 -0.026999 0.806 0.664 0.885
v 0.004605 0.589210 -0.030555 0.806 0.664 0.885
v 0.003986 0.591449 -0.035375 0.806 0.664 0.885
v 0.003062 0.594197 -0.040857 0.806 0.664 0.885
v 0.001704 0.596695 -0.045534 0.806 0.664 0.885
v 0.000000 0.597744 -0.047427 0.806 0.664 0.885
v -0.001704 0.596695 -0.045534 0.806 0.664 0.885
v -0.003062 0.594197 -0.040857 0.806 0.664 0.885
v -0.003986 0.591449 -0.035375 0.806 0.664 0.885
v -0.004605 0.589210 -0.030555 0.806 0.664 0.885
v -0.005108 0.587682 -0.026999 0.806 0.664 0.885
v -0.005661 0.586816 -0.024803 0.806 0.664 0.885
v -0.006409 0.586535 -0.023920 0.806 0.664 0.885
v -0.007499 0.586816 -0.024311 0.806 0.664 0.885
v -0.009075 0.587682 -0.025936 0.806 0.664 0.885
v -0.011289 0.589210 -0.028764 0.806 0.664 0.885
v -0.014236 0.591449 -0.032628 0.806 0.664 0.885
v -0.017777 0.594197 -0.036914 0.806 0.664 0.885
v -0.021292 0.596695 -0.040286 0.806 0.664 0.885
v -0.023713 0.597744 -0.041073 0.806 0.664 0.885
v -0.024243 0.596695 -0.038582 0.806 0.664 0.885
v -0.023080 0.594197 -0.033852 0.806 0.664 0.885
v -0.021139 0.591449 -0.028642 0.806 0.664 0.885
v -0.019266 0.589210 -0.024158 0.806 0.664 0.885
v -0.017923 0.587682 -0.020827 0.806 0.664 0.885
v -0.017304 0.586816 -0.018650 0.806 0.664 0.885
v -0.017510 0.586535 -0.017510 0.806 0.664 0.885
v -0.018650 0.586816 -0.017304 0.806 0.664 0.885
v -0.020827 0.587682 -0.017923 0.806 0.664 0.885
v -0.024158 0.589210 -0.019266 0.806 0.664 0.885
v -0.028642 0.591449 -0.021139 0.806 0.664 0.885
v -0.033852 0.594197 -0.023080 0.806 0.664 0.885
v -0.038582 0.596695 -0.024243 0.806 0.664 0.885
v -0.041073 0.597744 -0.023713 0.806 0.664 0.885
v -0.040286 0.596695 -0.021292 0.806 0.664 0.885
v -0.036914 0.594197 -0.017777 0.806 0.664 0.885
v -0.032628 0.591449 -0.014236 0.806 0.664 0.885
v -0.028764 0.589210 -0.011289 0.806 0.664 0.885
v -0.025936 0.587682 -0.009075 0.806 0.664 0.885
v -0.024311 0.586816 -0.007499 0.806 0.664 0.885
v -0.023920 0.586535 -0.006409 0.806 0.664 0.885
v -0.024803 0.586816 -0.005661 0.806 0.664 0.885
v -0.026999 0.587682 -0.005108 0.806 0.664 0.885
v -0.030555 0.589210 -0.004605 0.806 0.664 0.885
v -0.035375 0.591449 -0.003986 0.806 0.664 0.885
v -0.040857 0.594197 -0.003062 0.806 0.664 0.885
v -0.045534 0.596695 -0.001704 0.806 0.664 0.885
v -0.047427 0.597744 -0.000000 0.806 0.664 0.885
v -0.045534 0.596695 0.001704 0.806 0.664 0.885
v -0.040857 0.594197 0.003062 0.806 0.664 0.885
v -0.035375 0.591449 0.003986 0.806 0.664 0.885
v -0.030555 0.589210 0.004605 0.806 0.664 0.885
v -0.026999 0.587682 0.005108 0.806 0.664 0.885
v -0.024803 0.586816 0.005661 0.806 0.664 0.885
v -0.023920 0.586535 0.006409 0.806 0.664 0.885
v -0.024311 0.586816 0.007499 0.806 0.664 0.885
v -0.025936 0.587682 0.009075 0.806 0.664 0.885
v -0.028764 0.589210 0.011289 0.806 0.664 0.885
v -0.032628 0.591449 0.014236 0.806 0.664 0.885
v -0.036914 0.594197 0.017777 0.806 0.664 0.885
v -0.040286 0.596695 0.021292 0.806 0.664 0.885
v -0.041073 0.597744 0.023713 0.806 0.664 0.885
v -0.038582 0.596695 0.024243 0.806 0.664 0.885
v -0.033852 0.594197 0.023080 0.806 0.664 0.885
v -0.028642 0.591449 0.021139 0.806 0.664 0.885
v -0.024158 0.589210 0.019266 0.806 0.664 0.885
v -0.020827 0.587682 0.017923 0.806 0.664 0.885
v -0.018650 0.586816 0.017304 0.806 0.664 0.885
v -0.017510 0.586535 0.017510 0.806 0.664 0.885
v -0.017304 0.586816 0.018650 0.806 0.664 0.885
v -0.017923 0.587682 0.020827 0.806 0.664 0.885
v -0.019266 0.589210 0.024158 0.806 0.664 0.885
v -0.021139 0.591449 0.028642 0.806 0.664 0.885
v -0.023080 0.594197 0.033852 0.806 0.664 0.885
v -0.024243 0.596695 0.038582 0.806 0.664 0.885
v -0.023713 0.597744 0.041073 0.806 0.664 0.885
v -0.021292 0.596695 0.040286 0.806 0.664 0.885
v -0.017777 0.594197 0.036914 0.806 0.664 0.885
v -0.014236 0.591449 0.032628 0.806 0.664 0.885
v -0.011289 0.589210 0.028764 0.806 0.664 0.885
v -0.009075 0.587682 0.025936 0.806 0.664 0.885
v -0.007499 0.586816 0.024311 0.806 0.664 0.885
v -0.006409 0.586535 0.023920 0.806 0.664 0.885
v -0.005661 0.586816 0.024803 0.806 0.664 0.885
v -0.005108 0.587682 0.026999 0.806 0.664 0.885
v -0.004605 0.589210 0.030555 0.806 0.664 0.885
v -0.003986 0.591449 0.035375 0.806 0.664 0.885
v -0.003062 0.594197 0.040857 0.806 0.664 0.885
v -0.001704 0.596695 0.045534 0.806 0.664 0.885
v 0.000000 0.597744 0.047427 0.806 0.664 0.885
v 0.001704 0.596695 0.045534 0.806 0.664 0.885
v 0.003062 0.594197 0.040857 0.806 0.664 0.885
v 0.003986 0.591449 0.035375 0.806 0.664 0.885
v 0.004605 0.589210 0.030555 0.806 0.664 0.885
v 0.005108 0.587682 0.026999 0.806 0.664 0.885
v 0.005661 0.586816 0.024803 0.806 0.664 0.885
v 0.006409 0.586535 0.023920 0.806 0.664 0.885
v 0.007499 0.586816 0.024311 0.806 0.664 0.885
v 0.009075 0.587682 0.025936 0.806 0.664 0.885
v 0.011289 0.589210 0.028764 0.806 0.664 0.885
v 0.014236 0.591449 0.032628 0.806 0.664 0.885
v 0.017777 0.594197 0.036914 0.806 0.664 0.885
v 0.021292 0.596695 0.040286 0.806 0.664 0.885
v 0.023713 0.597744 0.041073 0.806 0.664 0.885
v 0.024243 0.596695 0.038582 0.806 0.664 0.885
v 0.023080 0.594197 0.033852 0.806 0.664 0.885
v 0.021139 0.591449 0.028642 0.806 0.664 0.885
v 0.019266 0.589210 0.024158 0.806 0.664 0.885
v 0.017923 0.587682 0.020827 0.806 0.664 0.885
v 0.017304 0.586816 0.018650 0.806 0.664 0.885
v 0.017510 0.586535 0.017510 0.806 0.664 0.885
v 0.018650 0.586816 0.017304 0.806 0.664 0.885
v 0.020827 0.587682 0.017923 0.806 0.664 0.885
v 0.024158 0.589210 0.019266 0.806 0.664 0.885
v 0.028642 0.591449 0.021139 0.806 0.664 0.885
v 0.033852 0.594197 0.023080 0.806 0.664 0.885
v 0.038582 0.596695 0.024243 0.806 0.664 0.885
v 0.041073 0.597744 0.023713 0.806 0.664 0.885
v 0.040286 0.596695 0.021292 0.806 0.664 0.885
v 0.036914 0.594197 0.017777 0.806 0.664 0.885
v 0.032628 0.591449 0.014236 0.806 0.664 0.885
v 0.028764 0.589210 0.011289 0.806 0.664 0.885
v 0.025936 0.587682 0.009075 0.806 0.664 0.885
v 0.024311 0.586816 0.007499 0.806 0.664 0.885
v 0.000000 0.579744 -0.000000 0.806 0.664 0.885
f 1026 858 859
f 1026 859 858
f 1026 859 860
f 1026 860 859
f 1026 860 861
f 1026 861 860
f 1026 861 862
f 1026 862 861
f 1026 862 863
f 1026 863 862
f 1026 863 864
f 1026 864 863
f 1026 864 865
f 1026 865 864
f 1026 865 866
f 1026 866 865
f 1026 866 867
f 1026 867 866
f 1026 867 868
f 1026 868 867
f 1026 868 869
f 1026 869 868
f 1026 869 870
f 1026 870 869
f 1026 870 871
f 1026 871 870
f 1026 871 872
f 1026 872 871
f 1026 872 873
f 1026 873 872
f 1026 873 874
f 1026 874 873
f 1026 874 875
f 1026 875 874
f 1026 875 876
f 1026 876 875
f 1026 876 877
f 1026 877 876
f 1026 877 878
f 1026 878 877
f 1026 878 879
f 1026 879 878
f 1026 879 880
f 1026 880 879
f 1026 880 881
f 1026 881 880
f 1026 881 882
f 1026 882 881
f 1026 882 883
f 1026 883 882
f 1026 883 884
f 1026 884 883
f 1026 884 885
f 1026 885 884
f 1026 885 886
f 1026 886 885
f 1026 886 887
f 1026 887 886
f 1026 887 888
f 1026 888 887
f 1026 888 889
f 1026 889 888
f 1026 889 890
f 1026 890 889
f 1026 890 891
f 1026 891 890
f 1026 891 892
f 1026 892 891
f 1026 892 893
f 1026 893 892
f 1026 893 894
f 1026 894 893
f 1026 894 895
f 1026 895 894
f 1026 895 896
f 1026 896 895
f 1026 896 897
f 1026 897 896
f 1026 897 898
f 1026 898 897
f 1026 898 899
f 1026 899 898
f 1026 899 900
f 1026 900 899
f 1026 900 901
f 1026 901 900
f 1026 901 902
f 1026 902 901
f 1026 902 903
f 1026 903 902
f 1026 903 904
f 1026 904 903
f 1026 904 905
f 1026 905 904
f 1026 905 906
f 1026 906 905
f 1026 906 907
f 1026 907 906
f 1026 907 908
f 1026 908 907
f 1026 908 909
f 1026 909 908
f 1026 909 910
f 1026 910 909
f 1026 910 911
f 1026 911 910
f 1026 911 912
f 1026 912 911
f 1026 912 913
f 1026 913 912
f 1026 913 914
f 1026 914 913
f 1026 914 915
f 1026 915 914
f 1026 915 916
f 1026 916 915
f 1026 916 917
f 1026 917 916
f 1026 917 918
f 1026 918 917
f 1026 918 919
f 1026 919 918
f 1026 919 920
f 1026 920 919
f 1026 920 921
f 1026 921 920
f 1026 921 922
f 1026 922 921
f 1026 922 923
f 1026 923 922
f 1026 923 924
f 1026 924 923
f 1026 924 925
f 1026 925 924
f 1026 925 926
f 1026 926 925
f 1026 926 927
f 1026 927 926
f 1026 927 928
f 1026 928 927
f 1026 928 929
f 1026 929 928
f 1026 929 930
f 1026 930 929
f 1026 930 931
f 1026 931 930
f 1026 931 932
f 1026 932 931
f 1026 932 933
f 1026 933 932
f 1026 933 934
f 1026 934 933
f 1026 934 935
f 1026 935 934
f 1026 935 936
f 1026 936 935
f 1026 936 937
f 1026 937 936
f 1026 937 938
f 1026 938 937
f 1026 938 939
f 1026 939 938
f 1026 939 940
f 1026 940 939
f 1026 940 941
f 1026 941 940
f 1026 941 942
f 1026 942 941
f 1026 942 943
f 1026 943 942
f 1026 943 944
f 1026 944 943
f 1026 944 945
f 1026 945 944
f 1026 945 946
f 1026 946 945
f 1026 946 947
f 1026 947 946
f 1026 947 948
f 1026 948 947
f 1026 948 949
f 1026 949 948
f 1026 949 950
f 1026 950 949
f 1026 950 951
f 1026 951 950
f 1026 951 952
f 1026 952 951
f 1026 952 953
f 1026 953 952
f 1026 953 954
f 1026 954 953
f 1026 954 955
f 1026 955 954
f 1026 955 956
f 1026 956 955
f 1026 956 957
f 1026 957 956
f 1026 957 958
f 1026 958 957
f 1026 958 959
f 1026 959 958
f 1026 959 960
f 1026 960 959
f 1026 960 961
f 1026 961 960
f 1026 961 962
f 1026 962 961
f 1026 962 963
f 1026 963 962
f 1026 963 964
f 1026 964 963
f 1026 964 965
f 1026 965 964
f 1026 965 966
f 1026 966 965
f 1026 966 967
f 1026 967 966
f 1026 967 968
f 1026 968 967
f 1026 968 969
f 1026 969 968
f 1026 969 970
f 1026 970 969
f 1026 970 971
f 1026 971 970
f 1026 971 972
f 1026 972 971
f 1026 972 973
f 1026 973 972
f 1026 973 974
f 1026 974 973
f 1026 974 975
f 1026 975 974
f 1026 975 976
f 1026 976 975
f 1026 976 977
f 1026 977 976
f 1026 977 978
f 1026 978 977
f 1026 978 979
f 1026 979 978
f 1026 979 980
f 1026 980 979
f 1026 980 981
f 1026 981 980
f 1026 981 982
f 1026 982 981
f 1026 982 983
f 1026 983 982
f 1026 983 984
f 1026 984 983
f 1026 984 985
f 1026 985 984
f 1026 985 986
f 1026 986 985
f 1026 986 987
f 1026 987 986
f 1026 987 988
f 1026 988 987
f 1026 988 989
f 1026 989 988
f 1026 989 990
f 1026 990 989
f 1026 990 991
f 1026 991 990
f 1026 991 992
f 1026 992 991
f 1026 992 993
f 1026 993 992
f 1026 993 994
f 1026 994 993
f 1026 994 995
f 1026 995 994
f 1026 995 996
f 1026 996 995
f 1026 996 997
f 1026 997 996
f 1026 997 998
f 1026 998 997
f 1026 998 999
f 1026 999 998
f 1026 999 1000
f 1026 1000 999
f 1026 1000 1001
f 1026 1001 1000
f 1026 1001 1002
f 1026 1002 1001
f 1026 1002 1003
f 1026 1003 1002
f 1026 1003 1004
f 1026 1004 1003
f 1026 1004 1005
f 1026 1005 1004
f 1026 1005 1006
f 1026 1006 1005
f 1026 1006 1007
f 1026 1007 1006
f 1026 1007 1008
f 1026 1008 1007
f 1026 1008 1009
f 1026 1009 1008
f 1026 1009 1010
f 1026 1010 1009
f 1026 1010 1011
f 1026 1011 1010
f 1026 1011 1012
f 1026 1012 1011
f 1026 1012 1013
f 1026 1013 1012
f 1026 1013 1014
f 1026 1014 1013
f 1026 1014 1015
f 1026 1015 1014
f 1026 1015 1016
f 1026 1016 1015
f 1026 1016 1017
f 1026 1017 1016
f 1026 1017 1018
f 1026 1018 1017
f 1026 1018 1019
f 1026 1019 1018
f 1026 1019 1020
f 1026 1020 1019
f 1026 1020 1021
f 1026 1021 1020
f 1026 1021 1022
f 1026 1022 1021
f 1026 1022 1023
f 1026 1023 1022
f 1026 1023 1024
f 1026 1024 1023
f 1026 1024 1025
f 1026 1025 1024
f 1026 1025 858
f 1026 858 1025
v 0.020306 0.587290 0.000000 0.864 0.765 0.919
v 0.020847 0.587602 -0.000780 0.864 0.765 0.919
v 0.022469 0.588564 -0.001684 0.864 0.765 0.919
v 0.025178 0.590262 -0.002837 0.864 0.765 0.919
v 0.028865 0.592750 -0.004351 0.864 0.765 0.919
v 0.033011 0.595803 -0.006246 0.864 0.765 0.919
v 0.036428 0.598579 -0.008314 0.864 0.765 0.919
v 0.037565 0.599744 -0.010065 0.864 0.765 0.919
v 0.035704 0.598579 -0.011013 0.864 0.765 0.919
v 0.031711 0.595803 -0.011096 0.864 0.765 0.919
v 0.027173 0.592750 -0.010665 0.864 0.765 0.919
v 0.023224 0.590262 -0.010132 0.864 0.765 0.919
v 0.020300 0.588564 -0.009776 0.864 0.765 0.919
v 0.018444 0.587602 -0.009748 0.864 0.765 0.919
v 0.017585 0.587290 -0.010153 0.864 0.765 0.919
v 0.017664 0.587602 -0.011099 0.864 0.765 0.919
v 0.018617 0.588564 -0.012693 0.864 0.765 0.919
v 0.020387 0.590262 -0.015046 0.864 0.765 0.919
v 0.022822 0.592750 -0.018200 0.864 0.765 0.919
v 0.025465 0.595803 -0.021915 0.864 0.765 0.919
v 0.027390 0.598579 -0.025414 0.864 0.765 0.919
v 0.027499 0.599744 -0.027499 0.864 0.765 0.919
v 0.025414 0.598579 -0.027390 0.864 0.765 0.919
v 0.021915 0.595803 -0.025465 0.864 0.765 0.919
v 0.018200 0.592750 -0.022822 0.864 0.765 0.919
v 0.015046 0.590262 -0.020387 0.864 0.765 0.919
v 0.012693 0.588564 -0.018617 0.864 0.765 0.919
v 0.011099 0.587602 -0.017664 0.864 0.765 0.919
v 0.010153 0.587290 -0.017585 0.864 0.765 0.919
v 0.009748 0.587602 -0.018444 0.864 0.765 0.919
v 0.009776 0.588564 -0.020300 0.864 0.765 0.919
v 0.010132 0.590262 -0.023224 0.864 0.765 0.919
v 0.010665 0.592750 -0.027173 0.864 0.765 0.919
v 0.011096 0.595803 -0.031711 0.864 0.765 0.919
v 0.011013 0.598579 -0.035704 0.864 0.765 0.919
v 0.010065 0.599744 -0.037565 0.864 0.765 0.919
v 0.008314 0.598579 -0.036428 0.864 0.765 0.919
v 0.006246 0.595803 -0.033011 0.864 0.765 0.919
v 0.004351 0.592750 -0.028865 0.864 0.765 0.919
v 0.002837 0.590262 -0.025178 0.864 0.765 0.919
v 0.001684 0.588564 -0.022469 0.864 0.765 0.919
v 0.000780 0.587602 -0.020847 0.864 0.765 0.919
v 0.000000 0.587290 -0.020306 0.864 0.765 0.919
v -0.000780 0.587602 -0.020847 0.864 0.765 0.919
v -0.001684 0.588564 -0.022469 0.864 0.765 0.919
v -0.002837 0.590262 -0.025178 0.864 0.765 0.919
v -0.004351 0.592750 -0.028865 0.864 0.765 0.919
v -0.006246 0.595803 -0.033011 0.864 0.765 0.919
v -0.008314 0.598579 -0.036428 0.864 0.765 0.919
v -0.010065 0.599744 -0.037565 0.864 0.765 0.919
v -0.011013 0.598579 -0.035704 0.864 0.765 0.919
v -0.011096 0.595803 -0.031711 0.864 0.765 0.919
v -0.010665 0.592750 -0.027173 0.864 0.765 0.919
v -0.010132 0.590262 -0.023224 0.864 0.765 0.919
v -0.009776 0.588564 -0.020300 0.864 0.765 0.919
v -0.009748 0.587602 -0.018444 0.864 0.765 0.919
v -0.010153 0.587290 -0.017585 0.864 0.765 0.919
v -0.011099 0.587602 -0.017664 0.864 0.765 0.919
v -0.012693 0.588564 -0.018617 0.864 0.765 0.919
v -0.015046 0.590262 -0.020387 0.864 0.765 0.919
v -0.018200 0.592750 -0.022822 0.864 0.765 0.919
v -0.021915 0.595803 -0.025465 0.864 0.765 0.919
v -0.025414 0.598579 -0.027390 0.864 0.765 0.919
v -0.027499 0.599744 -0.027499 0.864 0.765 0.919
v -0.027390 0.598579 -0.025414 0.864 0.765 0.919
v -0.025465 0.595803 -0.021915 0.864 0.765 0.919
v -0.022822 0.592750 -0.018200 0.864 0.765 0.919
v -0.020387 0.590262 -0.015046 0.864 0.765 0.919
v -0.018617 0.588564 -0.012693 0.864 0.765 0.919
v -0.017664 0.587602 -0.011099 0.864 0.765 0.919
v -0.017585 0.587290 -0.010153 0.864 0.765 0.919
v -0.018444 0.587602 -0.009748 0.864 0.765 0.919
v -0.020300 0.588564 -0.009776 0.864 0.765 0.919
v -0.023224 0.590262 -0.010132 0.864 0.765 0.919
v -0.027173 0.592750 -0.010665 0.864 0.765 0.919
v -0.031711 0.595803 -0.011096 0.864 0.765 0.919
v -0.035704 0.598579 -0.011013 0.864 0.765 0.919
v -0.037565 0.599744 -0.010065 0.864 0.765 0.919
v -0.036428 0.598579 -0.008314 0.864 0.765 0.919
v -0.033011 0.595803 -0.006246 0.864 0.765 0.919
v -0.028865 0.592750 -0.004351 0.864 0.765 0.919
v -0.025178 0.590262 -0.002837 0.864 0.765 0.919
v -0.022469 0.588564 -0.001684 0.864 0.765 0.919
v -0.020847 0.587602 -0.000780 0.864 0.765 0.919
v -0.020306 0.587290 -0.000000 0.864 0.765 0.919
v -0.020847 0.587602 0.000780 0.864 0.765 0.919
v -0.022469 0.588564 0.001684 0.864 0.765 0.919
v -0.025178 0.590262 0.002837 0.864 0.765 0.919
v -0.028865 0.592750 0.004351 0.864 0.765 0.919
v -0.033011 0.595803 0.006246 0.864 0.765 0.919
v -0.036428 0.598579 0.008314 0.864 0.765 0.919
v -0.037565 0.599744 0.010065 0.864 0.765 0.919
v -0.035704 0.598579 0.011013 0.864 0.765 0.919
v -0.031711 0.595803 0.011096 0.864 0.765 0.919
v -0.027173 0.592750 0.010665 0.864 0.765 0.919
v -0.023224 0.590262 0.010132 0.864 0.765 0.919
v -0.020300 0.588564 0.009776 0.864 0.765 0.919
v -0.018444 0.587602 0.009748 0.864 0.765 0.919
v -0.017585 0.587290 0.010153 0.864 0.765 0.919
v -0.017664 0.587602 0.011099 0.864 0.765 0.919
v -0.018617 0.588564 0.012693 0.864 0.765 0.919
v -0.020387 0.590262 0.015046 0.864 0.765 0.919
v -0.022822 0.592750 0.018200 0.864 0.765 0.919
v -0.025465 0.595803 0.021915 0.864 0.765 0.919
v -0.027390 0.598579 0.025414 0.864 0.765 0.919
v -0.027499 0.599744 0.027499 0.864 0.765 0.919
v -0.025414 0.598579 0.027390 0.864 0.765 0.919
v -0.021915 0.595803 0.025465 0.864 0.765 0.919
v -0.018200 0.592750 0.022822 0.864 0.765 0.919
v -0.015046 0.590262 0.020387 0.864 0.765 0.919
v -0.012693 0.588564 0.018617 0.864 0.765 0.919
v -0.011099 0.587602 0.017664 0.864 0.765 0.919
v -0.010153 0.587290 0.017585 0.864 0.765 0.919
v -0.009748 0.587602 0.018444 0.864 0.765 0.919
v -0.009776 0.588564 0.020300 0.864 0.765 0.919
v -0.010132 0.590262 0.023224 0.864 0.765 0.919
v -0.010665 0.592750 0.027173 0.864 0.765 0.919
v -0.011096 0.595803 0.031711 0.864 0.765 0.919
v -0.011013 0.598579 0.035704 0.864 0.765 0.919
v -0.010065 0.599744 0.037565 0.864 0.765 0.919
v -0.008314 0.598579 0.036428 0.864 0.765 0.919
v -0.006246 0.595803 0.033011 0.864 0.765 0.919
v -0.004351 0.592750 0.028865 0.864 0.765 0.919
v -0.002837 0.590262 0.025178 0.864 0.765 0.919
v -0.001684 0.588564 0.022469 0.864 0.765 0.919
v -0.000780 0.587602 0.020847 0.864 0.765 0.919
v -0.000000 0.587290 0.020306 0.864 0.765 0.919
v 0.000780 0.587602 0.020847 0.864 0.765 0.919
v 0.001684 0.588564 0.022469 0.864 0.765 0.919
v 0.002837 0.590262 0.025178 0.864 0.765 0.919
v 0.004351 0.592750 0.028865 0.864 0.765 0.919
v 0.006246 0.595803 0.033011 0.864 0.765 0.919
v 0.008314 0.598579 0.036428 0.864 0.765 0.919
v 0.010065 0.599744 0.037565 0.864 0.765 0.919
v 0.011013 0.598579 0.035704 0.864 0.765 0.919
v 0.011096 0.595803 0.031711 0.864 0.765 0.919
v 0.010665 0.592750 0.027173 0.864 0.765 0.919
v 0.010132 0.590262 0.023224 0.864 0.765 0.919
v 0.009776 0.588564 0.020300 0.864 0.765 0.919
v 0.009748 0.587602 0.018444 0.864 0.765 0.919
v 0.010153 0.587290 0.017585 0.864 0.765 0.919
v 0.011099 0.587602 0.017664 0.864 0.765 0.919
v 0.012693 0.588564 0.018617 0.864 0.765 0.919
v 0.015046 0.590262 0.020387 0.864 0.765 0.919
v 0.018200 0.592750 0.022822 0.864 0.765 0.919
v 0.021915 0.595803 0.025465 0.864 0.765 0.919
v 0.025414 0.598579 0.027390 0.864 0.765 0.919
v 0.027499 0.599744 0.027499 0.864 0.765 0.919
v 0.027390 0.598579 0.025414 0.864 0.765 0.919
v 0.025465 0.595803 0.021915 0.864 0.765 0.919
v 0.022822 0.592750 0.018200 0.864 0.765 0.919
v 0.020387 0.590262 0.015046 0.864 0.765 0.919
v 0.018617 0.588564 0.012693 0.864 0.765 0.919
v 0.017664 0.587602 0.011099 0.864 0.765 0.919
v 0.017585 0.587290 0.010153 0.864 0.765 0.919
v 0.018444 0.587602 0.009748 0.864 0.765 0.919
v 0.020300 0.588564 0.009776 0.864 0.765 0.919
v 0.023224 0.590262 0.010132 0.864 0.765 0.919
v 0.027173 0.592750 0.010665 0.864 0.765 0.919
v 0.031711 0.595803 0.011096 0.864 0.765 0.919
v 0.035704 0.598579 0.011013 0.864 0.765 0.919
v 0.037565 0.599744 0.010065 0.864 0.765 0.919
v 0.036428 0.598579 0.008314 0.864 0.765 0.919
v 0.033011 0.595803 0.006246 0.864 0.765 0.919
v 0.028865 0.592750 0.004351 0.864 0.765 0.919
v 0.025178 0.590262 0.002837 0.864 0.765 0.919
v 0.022469 0.588564 0.001684 0.864 0.765 0.919
v 0.020847 0.587602 0.000780 0.864 0.765 0.919
v 0.000000 0.579744 -0.000000 0.864 0.765 0.919
f 1195 1027 1028
f 1195 1028 1027
f 1195 1028 1029
f 1195 1029 1028
f 1195 1029 1030
f 1195 1030 1029
f 1195 1030 1031
f 1195 1031 1030
f 1195 1031 1032
f 1195 1032 1031
f 1195 1032 1033
f 1195 1033 1032
f 1195 1033 1034
f 1195 1034 1033
f 1195 1034 1035
f 1195 1035 1034
f 1195 1035 1036
f 1195 1036 1035
f 1195 1036 1037
f 1195 1037 1036
f 1195 1037 1038
f 1195 1038 1037
f 1195 1038 1039
f 1195 1039 1038
f 1195 1039 1040
f 1195 1040 1039
f 1195 1040 1041
f 1195 1041 1040
f 1195 1041 1042
f 1195 1042 1041
f 1195 1042 1043
f 1195 1043 1042
f 1195 1043 1044
f 1195 1044 1043
f 1195 1044 1045
f 1195 1045 1044
f 1195 1045 1046
f 1195 1046 1045
f 1195 1046 1047
f 1195 1047 1046
f 1195 1047 1048
f 1195 1048 1047
f 1195 1048 1049
f 1195 1049 1048
f 1195 1049 1050
f 1195 1050 1049
f 1195 1050 1051
f 1195 1051 1050
f 1195 1051 1052
f 1195 1052 1051
f 1195 1052 1053
f 1195 1053 1052
f 1195 1053 1054
f 1195 1054 1053
f 1195 1054 1055
f 1195 1055 1054
f 1195 1055 1056
f 1195 1056 1055
f 1195 1056 1057
f 1195 1057 1056
f 1195 1057 1058
f 1195 1058 1057
f 1195 1058 1059
f 1195 1059 1058
f 1195 1059 1060
f 1195 1060 1059
f 1195 1060 1061
f 1195 1061 1060
f 1195 1061 1062
f 1195 1062 1061
f 1195 1062 1063
f 1195 1063 1062
f 1195 1063 1064
f 1195 1064 1063
f 1195 1064 1065
f 1195 1065 1064
f 1195 1065 1066
f 1195 1066 1065
f 1195 1066 1067
f 1195 1067 1066
f 1195 1067 1068
f 1195 1068 1067
f 1195 1068 1069
f 1195 1069 1068
f 1195 1069 1070
f 1195 1070 1069
f 1195 1070 1071
f 1195 1071 1070
f 1195 1071 1072
f 1195 1072 1071
f 1195 1072 1073
f 1195 1073 1072
f 1195 1073 1074
f 1195 1074 1073
f 1195 1074 1075
f 1195 1075 1074
f 1195 1075 1076
f 1195 1076 1075
f 1195 1076 1077
f 1195 1077 1076
f 1195 1077 1078
f 1195 1078 1077
f 1195 1078 1079
f 1195 1079 1078
f 1195 1079 1080
f 1195 1080 1079
f 1195 1080 1081
f 1195 1081 1080
f 1195 1081 1082
f 1195 1082 1081
f 1195 1082 1083
f 1195 1083 1082
f 1195 1083 1084
f 1195 1084 1083
f 1195 1084 1085
f 1195 1085 1084
f 1195 1085 1086
f 1195 1086 1085
f 1195 1086 1087
f 1195 1087 1086
f 1195 1087 1088
f 1195 1088 1087
f 1195 1088 1089
f 1195 1089 1088
f 1195 1089 1090
f 1195 1090 1089
f 1195 1090 1091
f 1195 1091 1090
f 1195 1091 1092
f 1195 1092 1091
f 1195 1092 1093
f 1195 1093 1092
f 1195 1093 1094
f 1195 1094 1093
f 1195 1094 1095
f 1195 1095 1094
f 1195 1095 1096
f 1195 1096 1095
f 1195 1096 1097
f 1195 1097 1096
f 1195 1097 1098
f 1195 1098 1097
f 1195 1098 1099
f 1195 1099 1098
f 1195 1099 1100
f 1195 1100 1099
f 1195 1100 1101
f 1195 1101 1100
f 1195 1101 1102
f 1195 1102 1101
f 1195 1102 1103
f 1195 1103 1102
f 1195 1103 1104
f 1195 1104 1103
f 1195 1104 1105
f 1195 1105 1104
f 1195 1105 1106
f 1195 1106 1105
f 1195 1106 1107
f 1195 1107 1106
f 1195 1107 1108
f 1195 1108 1107
f 1195 1108 1109
f 1195 1109 1108
f 1195 1109 1110
f 1195 1110 1109
f 1195 1110 1111
f 1195 1111 1110
f 1195 1111 1112
f 1195 1112 1111
f 1195 1112 1113
f 1195 1113 1112
f 1195 1113 1114
f 1195 1114 1113
f 1195 1114 1115
f 1195 1115 1114
f 1195 1115 1116
f 1195 1116 1115
f 1195 1116 1117
f 1195 1117 1116
f 1195 1117 1118
f 1195 1118 1117
f 1195 1118 1119
f 1195 1119 1118
f 1195 1119 1120
f 1195 1120 1119
f 1195 1120 1121
f 1195 1121 1120
f 1195 1121 1122
f 1195 1122 1121
f 1195 1122 1123
f 1195 1123 1122
f 1195 1123 1124
f 1195 1124 1123
f 1195 1124 1125
f 1195 1125 1124
f 1195 1125 1126
f 1195 1126 1125
f 1195 1126 1127
f 1195 1127 1126
f 1195 1127 1128
f 1195 1128 1127
f 1195 1128 1129
f 1195 1129 1128
f 1195 1129 1130
f 1195 1130 1129
f 1195 1130 1131
f 1195 1131 1130
f 1195 1131 1132
f 1195 1132 1131
f 1195 1132 1133
f 1195 1133 1132
f 1195 1133 1134
f 1195 1134 1133
f 1195 1134 1135
f 1195 1135 1134
f 1195 1135 1136
f 1195 1136 1135
f 1195 1136 1137
f 1195 1137 1136
f 1195 1137 1138
f 1195 1138 1137
f 1195 1138 1139
f 1195 1139 1138
f 1195 1139 1140
f 1195 1140 1139
f 1195 1140 1141
f 1195 1141 1140
f 1195 1141 1142
f 1195 1142 1141
f 1195 1142 1143
f 1195 1143 1142
f 1195 1143 1144
f 1195 1144 1143
f 1195 1144 1145
f 1195 1145 1144
f 1195 1145 1146
f 1195 1146 1145
f 1195 1146 1147
f 1195 1147 1146
f 1195 1147 1148
f 1195 1148 1147
f 1195 1148 1149
f 1195 1149 1148
f 1195 1149 1150
f 1195 1150 1149
f 1195 1150 1151
f 1195 1151 1150
f 1195 1151 1152
f 1195 1152 1151
f 1195 1152 1153
f 1195 1153 1152
f 1195 1153 1154
f 1195 1154 1153
f 1195 1154 1155
f 1195 1155 1154
f 1195 1155 1156
f 1195 1156 1155
f 1195 1156 1157
f 1195 1157 1156
f 1195 1157 1158
f 1195 1158 1157
f 1195 1158 1159
f 1195 1159 1158
f 1195 1159 1160
f 1195 1160 1159
f 1195 1160 1161
f 1195 1161 1160
f 1195 1161 1162
f 1195 1162 1161
f 1195 1162 1163
f 1195 1163 1162
f 1195 1163 1164
f 1195 1164 1163
f 1195 1164 1165
f 1195 1165 1164
f 1195 1165 1166
f 1195 1166 1165
f 1195 1166 1167
f 1195 1167 1166
f 1195 1167 1168
f 1195 1168 1167
f 1195 1168 1169
f 1195 1169 1168
f 1195 1169 1170
f 1195 1170 1169
f 1195 1170 1171
f 1195 1171 1170
f 1195 1171 1172
f 1195 1172 1171
f 1195 1172 1173
f 1195 1173 1172
f 1195 1173 1174
f 1195 1174 1173
f 1195 1174 1175
f 1195 1175 1174
f 1195 1175 1176
f 1195 1176 1175
f 1195 1176 1177
f 1195 1177 1176
f 1195 1177 1178
f 1195 1178 1177
f 1195 1178 1179
f 1195 1179 1178
f 1195 1179 1180
f 1195 1180 1179
f 1195 1180 1181
f 1195 1181 1180
f 1195 1181 1182
f 1195 1182 1181
f 1195 1182 1183
f 1195 1183 1182
f 1195 1183 1184
f 1195 1184 1183
f 1195 1184 1185
f 1195 1185 1184
f 1195 1185 1186
f 1195 1186 1185
f 1195 1186 1187
f 1195 1187 1186
f 1195 1187 1188
f 1195 1188 1187
f 1195 1188 1189
f 1195 1189 1188
f 1195 1189 1190
f 1195 1190 1189
f 1195 1190 1191
f 1195 1191 1190
f 1195 1191 1192
f 1195 1192 1191
f 1195 1192 1193
f 1195 1193 1192
f 1195 1193 1194
f 1195 1194 1193
f 1195 1194 1027
f 1195 1027 1194
v 0.000000 0.173923 -0.000000 0.180 0.500 0.200
v 0.004459 0.172272 0.004158 0.180 0.500 0.200
v 0.010868 0.170621 0.007559 0.180 0.500 0.200
v 0.018331 0.168971 0.010551 0.180 0.500 0.200
v 0.026371 0.167320 0.013318 0.180 0.500 0.200
v 0.034595 0.165669 0.016013 0.180 0.500 0.200
v 0.042653 0.164018 0.018773 0.180 0.500 0.200
v 0.050230 0.162367 0.021720 0.180 0.500 0.200
v 0.057048 0.160716 0.024963 0.180 0.500 0.200
v 0.062873 0.159065 0.028590 0.180 0.500 0.200
v 0.067523 0.157414 0.032674 0.180 0.500 0.200
v 0.070875 0.155763 0.037263 0.180 0.500 0.200
v 0.072863 0.154112 0.042381 0.180 0.500 0.200
v 0.073489 0.152462 0.048029 0.180 0.500 0.200
v 0.072816 0.150811 0.054182 0.180 0.500 0.200
v 0.070969 0.149160 0.060791 0.180 0.500 0.200
v 0.068129 0.147509 0.067785 0.180 0.500 0.200
v 0.064529 0.145858 0.075075 0.180 0.500 0.200
v 0.060448 0.144207 0.082552 0.180 0.500 0.200
v 0.056201 0.142556 0.090093 0.180 0.500 0.200
v 0.052139 0.140905 0.097562 0.180 0.500 0.200
v 0.048654 0.139254 0.104807 0.180 0.500 0.200
v 0.046222 0.137604 0.111643 0.180 0.500 0.200
v 0.045740 0.135953 0.117721 0.180 0.500 0.200
v 0.041281 0.137604 0.113563 0.180 0.500 0.200
v 0.034872 0.139254 0.110162 0.180 0.500 0.200
v 0.027409 0.140905 0.107171 0.180 0.500 0.200
v 0.019370 0.142556 0.104404 0.180 0.500 0.200
v 0.011145 0.144207 0.101708 0.180 0.500 0.200
v 0.003087 0.145858 0.098948 0.180 0.500 0.200
v -0.004490 0.147509 0.096001 0.180 0.500 0.200
v -0.011307 0.149160 0.092759 0.180 0.500 0.200
v -0.017132 0.150811 0.089131 0.180 0.500 0.200
v -0.021783 0.152462 0.085047 0.180 0.500 0.200
v -0.025134 0.154112 0.080458 0.180 0.500 0.200
v -0.027123 0.155763 0.075340 0.180 0.500 0.200
v -0.027749 0.157414 0.069692 0.180 0.500 0.200
v -0.027076 0.159065 0.063540 0.180 0.500 0.200
v -0.025228 0.160716 0.056931 0.180 0.500 0.200
v -0.022388 0.162367 0.049936 0.180 0.500 0.200
v -0.018789 0.164018 0.042647 0.180 0.500 0.200
v -0.014708 0.165669 0.035170 0.180 0.500 0.200
v -0.010461 0.167320 0.027629 0.180 0.500 0.200
v -0.006399 0.168971 0.020159 0.180 0.500 0.200
v -0.002913 0.170621 0.012914 0.180 0.500 0.200
v -0.000482 0.172272 0.006078 0.180 0.500 0.200
f 1196 1197 1198
f 1196 1198 1197
f 1196 1198 1199
f 1196 1199 1198
f 1196 1199 1200
f 1196 1200 1199
f 1196 1200 1201
f 1196 1201 1200
f 1196 1201 1202
f 1196 1202 1201
f 1196 1202 1203
f 1196 1203 1202
f 1196 1203 1204
f 1196 1204 1203
f 1196 1204 1205
f 1196 1205 1204
f 1196 1205 1206
f 1196 1206 1205
f 1196 1206 1207
f 1196 1207 1206
f 1196 1207 1208
f 1196 1208 1207
f 1196 1208 1209
f 1196 1209 1208
f 1196 1209 1210
f 1196 1210 1209
f 1196 1210 1211
f 1196 1211 1210
f 1196 1211 1212
f 1196 1212 1211
f 1196 1212 1213
f 1196 1213 1212
f 1196 1213 1214
f 1196 1214 1213
f 1196 1214 1215
f 1196 1215 1214
f 1196 1215 1216
f 1196 1216 1215
f 1196 1216 1217
f 1196 1217 1216
f 1196 1217 1218
f 1196 1218 1217
f 1196 1218 1219
f 1196 1219 1218
f 1196 1219 1220
f 1196 1220 1219
f 1196 1220 1221
f 1196 1221 1220
f 1196 1221 1222
f 1196 1222 1221
f 1196 1222 1223
f 1196 1223 1222
f 1196 1223 1224
f 1196 1224 1223
f 1196 1224 1225
f 1196 1225 1224
f 1196 1225 1226
f 1196 1226 1225
f 1196 1226 1227
f 1196 1227 1226
f 1196 1227 1228
f 1196 1228 1227
f 1196 1228 1229
f 1196 1229 1228
f 1196 1229 1230
f 1196 1230 1229
f 1196 1230 1231
f 1196 1231 1230
f 1196 1231 1232
f 1196 1232 1231
f 1196 1232 1233
f 1196 1233 1232
f 1196 1233 1234
f 1196 1234 1233
f 1196 1234 1235
f 1196 1235 1234
f 1196 1235 1236
f 1196 1236 1235
f 1196 1236 1237
f 1196 1237 1236
f 1196 1237 1238
f 1196 1238 1237
f 1196 1238 1239
f 1196 1239 1238
f 1196 1239 1240
f 1196 1240 1239
f 1196 1240 1241
f 1196 1241 1240
v 0.000000 0.318859 -0.000000 0.180 0.500 0.200
v -0.003859 0.315331 -0.003271 0.180 0.500 0.200
v -0.009649 0.311802 -0.005880 0.180 0.500 0.200
v -0.016483 0.308273 -0.008130 0.180 0.500 0.200
v -0.023889 0.304745 -0.010183 0.180 0.500 0.200
v -0.031478 0.301216 -0.012175 0.180 0.500 0.200
v -0.038903 0.297687 -0.014222 0.180 0.500 0.200
v -0.045850 0.294158 -0.016433 0.180 0.500 0.200
v -0.052045 0.290630 -0.018903 0.180 0.500 0.200
v -0.057257 0.287101 -0.021710 0.180 0.500 0.200
v -0.061305 0.283572 -0.024916 0.180 0.500 0.200
v -0.064066 0.280044 -0.028564 0.180 0.500 0.200
v -0.065477 0.276515 -0.032675 0.180 0.500 0.200
v -0.065537 0.272986 -0.037249 0.180 0.500 0.200
v -0.064311 0.269458 -0.042265 0.180 0.500 0.200
v -0.061920 0.265929 -0.047681 0.180 0.500 0.200
v -0.058547 0.262400 -0.053434 0.180 0.500 0.200
v -0.054421 0.258872 -0.059445 0.180 0.500 0.200
v -0.049818 0.255343 -0.065620 0.180 0.500 0.200
v -0.045051 0.251814 -0.071851 0.180 0.500 0.200
v -0.040466 0.248285 -0.078019 0.180 0.500 0.200
v -0.036453 0.244757 -0.083992 0.180 0.500 0.200
v -0.033484 0.241228 -0.089606 0.180 0.500 0.200
v -0.032447 0.237699 -0.094557 0.180 0.500 0.200
v -0.028589 0.241228 -0.091286 0.180 0.500 0.200
v -0.022799 0.244757 -0.088677 0.180 0.500 0.200
v -0.015964 0.248285 -0.086427 0.180 0.500 0.200
v -0.008558 0.251814 -0.084373 0.180 0.500 0.200
v -0.000969 0.255343 -0.082382 0.180 0.500 0.200
v 0.006455 0.258872 -0.080335 0.180 0.500 0.200
v 0.013403 0.262400 -0.078123 0.180 0.500 0.200
v 0.019598 0.265929 -0.075654 0.180 0.500 0.200
v 0.024810 0.269458 -0.072847 0.180 0.500 0.200
v 0.028858 0.272986 -0.069641 0.180 0.500 0.200
v 0.031619 0.276515 -0.065993 0.180 0.500 0.200
v 0.033029 0.280044 -0.061882 0.180 0.500 0.200
v 0.033090 0.283572 -0.057308 0.180 0.500 0.200
v 0.031863 0.287101 -0.052291 0.180 0.500 0.200
v 0.029473 0.290630 -0.046876 0.180 0.500 0.200
v 0.026100 0.294158 -0.041123 0.180 0.500 0.200
v 0.021974 0.297687 -0.035112 0.180 0.500 0.200
v 0.017371 0.301216 -0.028937 0.180 0.500 0.200
v 0.012603 0.304745 -0.022706 0.180 0.500 0.200
v 0.008019 0.308273 -0.016537 0.180 0.500 0.200
v 0.004006 0.311802 -0.010565 0.180 0.500 0.200
v 0.001037 0.315331 -0.004951 0.180 0.500 0.200
f 1242 1243 1244
f 1242 1244 1243
f 1242 1244 1245
f 1242 1245 1244
f 1242 1245 1246
f 1242 1246 1245
f 1242 1246 1247
f 1242 1247 1246
f 1242 1247 1248
f 1242 1248 1247
f 1242 1248 1249
f 1242 1249 1248
f 1242 1249 1250
f 1242 1250 1249
f 1242 1250 1251
f 1242 1251 1250
f 1242 1251 1252
f 1242 1252 1251
f 1242 1252 1253
f 1242 1253 1252
f 1242 1253 1254
f 1242 1254 1253
f 1242 1254 1255
f 1242 1255 1254
f 1242 1255 1256
f 1242 1256 1255
f 1242 1256 1257
f 1242 1257 1256
f 1242 1257 1258
f 1242 1258 1257
f 1242 1258 1259
f 1242 1259 1258
f 1242 1259 1260
f 1242 1260 1259
f 1242 1260 1261
f 1242 1261 1260
f 1242 1261 1262
f 1242 1262 1261
f 1242 1262 1263
f 1242 1263 1262
f 1242 1263 1264
f 1242 1264 1263
f 1242 1264 1265
f 1242 1265 1264
f 1242 1265 1266
f 1242 1266 1265
f 1242 1266 1267
f 1242 1267 1266
f 1242 1267 1268
f 1242 1268 1267
f 1242 1268 1269
f 1242 1269 1268
f 1242 1269 1270
f 1242 1270 1269
f 1242 1270 1271
f 1242 1271 1270
f 1242 1271 1272
f 1242 1272 1271
f 1242 1272 1273
f 1242 1273 1272
f 1242 1273 1274
f 1242 1274 1273
f 1242 1274 1275
f 1242 1275 1274
f 1242 1275 1276
f 1242 1276 1275
f 1242 1276 1277
f 1242 1277 1276
f 1242 1277 1278
f 1242 1278 1277
f 1242 1278 1279
f 1242 1279 1278
f 1242 1279 1280
f 1242 1280 1279
f 1242 1280 1281
f 1242 1281 1280
f 1242 1281 1282
f 1242 1282 1281
f 1242 1282 1283
f 1242 1283 1282
f 1242 1283 1284
f 1242 1284 1283
f 1242 1284 1285
f 1242 1285 1284
f 1242 1285 1286
f 1242 1286 1285
f 1242 1286 1287
f 1242 1287 1286
