o part_0
v 0.000000 -0.015000 0.000000
v 0.008817 -0.012135 0.000000
v 0.014266 -0.004635 0.000000
v 0.014266 0.004635 0.000000
v 0.008817 0.012135 0.000000
v 0.000000 0.015000 0.000000
v -0.008817 0.012135 0.000000
v -0.014266 0.004635 0.000000
v -0.014266 -0.004635 0.000000
v -0.008817 -0.012135 0.000000
v 0.000000 -0.010200 0.400000
v 0.005995 -0.008252 0.400000
v 0.009701 -0.003152 0.400000
v 0.009701 0.003152 0.400000
v 0.005995 0.008252 0.400000
v 0.000000 0.010200 0.400000
v -0.005995 0.008252 0.400000
v -0.009701 0.003152 0.400000
v -0.009701 -0.003152 0.400000
v -0.005995 -0.008252 0.400000
f 1 2 12
f 1 12 11
f 2 3 13
f 2 13 12
f 3 4 14
f 3 14 13
f 4 5 15
f 4 15 14
f 5 6 16
f 5 16 15
f 6 7 17
f 6 17 16
f 7 8 18
f 7 18 17
f 8 9 19
f 8 19 18
f 9 10 20
f 9 20 19
f 10 1 11
f 10 11 20
o part_1
v -0.002169 -0.009967 0.400000
v 0.002576 -0.009006 0.404038
v 0.006337 -0.004605 0.406533
v 0.007677 0.001555 0.406533
v 0.006085 0.007121 0.404038
v 0.002169 0.009967 0.400000
v -0.002576 0.009006 0.395962
v -0.006337 0.004605 0.393467
v -0.007677 -0.001555 0.393467
v -0.006085 -0.007121 0.395962
v -0.224996 0.041865 0.651079
v -0.221770 0.042518 0.653824
v -0.219212 0.045511 0.655521
v -0.218301 0.049700 0.655521
v -0.219383 0.053484 0.653824
v -0.222046 0.055420 0.651079
v -0.225273 0.054766 0.648333
v -0.227830 0.051773 0.646636
v -0.228742 0.047585 0.646636
v -0.227659 0.043800 0.648333
f 21 22 32
f 21 32 31
f 22 23 33
f 22 33 32
f 23 24 34
f 23 34 33
f 24 25 35
f 24 35 34
f 25 26 36
f 25 36 35
f 26 27 37
f 26 37 36
f 27 28 38
f 27 38 37
f 28 29 39
f 28 39 38
f 29 30 40
f 29 40 39
f 30 21 31
f 30 31 40
o part_2
v -0.224849 0.041835 0.651079
v -0.225589 0.043328 0.655028
v -0.225538 0.046852 0.657469
v -0.224718 0.051059 0.657469
v -0.223440 0.054343 0.655028
v -0.222194 0.055450 0.651079
v -0.221454 0.053956 0.647129
v -0.221504 0.050433 0.644689
v -0.222325 0.046225 0.644689
v -0.223603 0.042941 0.647129
v -0.481278 0.094111 0.584045
v -0.481780 0.095127 0.586731
v -0.481746 0.097523 0.588391
v -0.481188 0.100384 0.588391
v -0.480319 0.102617 0.586731
v -0.479472 0.103369 0.584045
v -0.478969 0.102354 0.581360
v -0.479003 0.099958 0.579700
v -0.479561 0.097097 0.579700
v -0.480430 0.094863 0.581360
f 41 42 52
f 41 52 51
f 42 43 53
f 42 53 52
f 43 44 54
f 43 54 53
f 44 45 55
f 44 55 54
f 45 46 56
f 45 56 55
f 46 47 57
f 46 57 56
f 47 48 58
f 47 58 57
f 48 49 59
f 48 59 58
f 49 50 60
f 49 60 59
f 50 41 51
f 50 51 60
o part_3
v -0.480375 0.103451 0.584278
v -0.477876 0.102610 0.583034
v -0.476332 0.100292 0.582176
v -0.476332 0.097380 0.582033
v -0.477876 0.094988 0.582658
v -0.480375 0.094029 0.583813
v -0.482873 0.094870 0.585057
v -0.484418 0.097189 0.585914
v -0.484418 0.100100 0.586058
v -0.482873 0.102492 0.585432
v -0.584753 0.112644 0.367266
v -0.583054 0.112072 0.366420
v -0.582004 0.110496 0.365837
v -0.582004 0.108516 0.365740
v -0.583054 0.106889 0.366165
v -0.584753 0.106237 0.366950
v -0.586452 0.106809 0.367796
v -0.587502 0.108386 0.368379
v -0.587502 0.110365 0.368476
v -0.586452 0.111992 0.368051
f 61 62 72
f 61 72 71
f 62 63 73
f 62 73 72
f 63 64 74
f 63 74 73
f 64 65 75
f 64 75 74
f 65 66 76
f 65 76 75
f 66 67 77
f 66 77 76
f 67 68 78
f 67 78 77
f 68 69 79
f 68 79 78
f 69 70 80
f 69 80 79
f 70 61 71
f 70 71 80
o part_4
v -0.584753 0.109441 0.367108
v -0.584366 0.113020 0.367826
v -0.583744 0.116598 0.368432
v -0.582562 0.120176 0.368768
v -0.580533 0.123752 0.368696
v -0.577516 0.127325 0.368149
v -0.573570 0.130897 0.367155
v -0.568980 0.134467 0.365851
v -0.564209 0.138037 0.364460
v -0.559828 0.141607 0.363256
v -0.556401 0.145180 0.362511
v -0.554381 0.148756 0.362444
v -0.554021 0.152335 0.363176
v -0.555321 0.155918 0.364706
v -0.558029 0.159504 0.366914
v -0.561691 0.163091 0.369581
v -0.565742 0.166680 0.372435
v -0.569613 0.170268 0.375203
v -0.572839 0.173855 0.377660
v -0.575137 0.177440 0.379671
v -0.576446 0.181023 0.381206
v -0.576908 0.184604 0.382333
v -0.576811 0.188184 0.383191
v -0.576478 0.191763 0.383936
v -0.576865 0.188184 0.383217
v -0.577487 0.184605 0.382612
v -0.578670 0.181028 0.382276
v -0.580698 0.177452 0.382347
v -0.583716 0.173879 0.382895
v -0.587661 0.170307 0.383889
v -0.592251 0.166737 0.385193
v -0.597022 0.163167 0.386584
v -0.601403 0.159596 0.387788
v -0.604831 0.156024 0.388533
v -0.606850 0.152448 0.388600
v -0.607210 0.148869 0.387868
v -0.605910 0.145286 0.386338
v -0.603202 0.141700 0.384130
v -0.599540 0.138112 0.381463
v -0.595489 0.134524 0.378608
v -0.591618 0.130935 0.375841
v -0.588392 0.127348 0.373383
v -0.586094 0.123764 0.371373
v -0.584786 0.120181 0.369838
v -0.584323 0.116600 0.368711
v -0.584420 0.113020 0.367853
f 81 82 83
f 81 83 82
f 81 83 84
f 81 84 83
f 81 84 85
f 81 85 84
f 81 85 86
f 81 86 85
f 81 86 87
f 81 87 86
f 81 87 88
f 81 88 87
f 81 88 89
f 81 89 88
f 81 89 90
f 81 90 89
f 81 90 91
f 81 91 90
f 81 91 92
f 81 92 91
f 81 92 93
f 81 93 92
f 81 93 94
f 81 94 93
f 81 94 95
f 81 95 94
f 81 95 96
f 81 96 95
f 81 96 97
f 81 97 96
f 81 97 98
f 81 98 97
f 81 98 99
f 81 99 98
f 81 99 100
f 81 100 99
f 81 100 101
f 81 101 100
f 81 101 102
f 81 102 101
f 81 102 103
f 81 103 102
f 81 103 104
f 81 104 103
f 81 104 105
f 81 105 104
f 81 105 106
f 81 106 105
f 81 106 107
f 81 107 106
f 81 107 108
f 81 108 107
f 81 108 109
f 81 109 108
f 81 109 110
f 81 110 109
f 81 110 111
f 81 111 110
f 81 111 112
f 81 112 111
f 81 112 113
f 81 113 112
f 81 113 114
f 81 114 113
f 81 114 115
f 81 115 114
f 81 115 116
f 81 116 115
f 81 116 117
f 81 117 116
f 81 117 118
f 81 118 117
f 81 118 119
f 81 119 118
f 81 119 120
f 81 120 119
f 81 120 121
f 81 121 120
f 81 121 122
f 81 122 121
f 81 122 123
f 81 123 122
f 81 123 124
f 81 124 123
f 81 124 125
f 81 125 124
f 81 125 126
f 81 126 125
o part_5
v -0.584753 0.109441 0.367108
v -0.582354 0.107480 0.366848
v -0.580178 0.105223 0.366679
v -0.578392 0.102442 0.366673
v -0.577094 0.099010 0.366870
v -0.576283 0.094923 0.367268
v -0.575869 0.090307 0.367832
v -0.575674 0.085396 0.368486
v -0.575467 0.080502 0.369135
v -0.574994 0.075964 0.369674
v -0.574019 0.072097 0.370005
v -0.572362 0.069145 0.370052
v -0.569924 0.067238 0.369775
v -0.566705 0.066376 0.369174
v -0.562803 0.066429 0.368290
v -0.558399 0.067153 0.367197
v -0.553730 0.068233 0.365994
v -0.549048 0.069330 0.364786
v -0.544587 0.070132 0.363669
v -0.540520 0.070404 0.362717
v -0.536943 0.070023 0.361967
v -0.533851 0.068990 0.361419
v -0.531152 0.067433 0.361033
v -0.528674 0.065579 0.360740
v -0.531072 0.067540 0.361000
v -0.533249 0.069797 0.361169
v -0.535034 0.072578 0.361174
v -0.536333 0.076010 0.360978
v -0.537143 0.080097 0.360579
v -0.537558 0.084713 0.360016
v -0.537753 0.089624 0.359362
v -0.537960 0.094518 0.358713
v -0.538433 0.099056 0.358174
v -0.539407 0.102923 0.357843
v -0.541065 0.105875 0.357796
v -0.543503 0.107782 0.358073
v -0.546722 0.108644 0.358674
v -0.550624 0.108591 0.359558
v -0.555027 0.107867 0.360651
v -0.559697 0.106787 0.361854
v -0.564378 0.105690 0.363062
v -0.568840 0.104888 0.364179
v -0.572906 0.104616 0.365131
v -0.576484 0.104997 0.365881
v -0.579575 0.106030 0.366429
v -0.582275 0.107587 0.366815
f 127 128 129
f 127 129 128
f 127 129 130
f 127 130 129
f 127 130 131
f 127 131 130
f 127 131 132
f 127 132 131
f 127 132 133
f 127 133 132
f 127 133 134
f 127 134 133
f 127 134 135
f 127 135 134
f 127 135 136
f 127 136 135
f 127 136 137
f 127 137 136
f 127 137 138
f 127 138 137
f 127 138 139
f 127 139 138
f 127 139 140
f 127 140 139
f 127 140 141
f 127 141 140
f 127 141 142
f 127 142 141
f 127 142 143
f 127 143 142
f 127 143 144
f 127 144 143
f 127 144 145
f 127 145 144
f 127 145 146
f 127 146 145
f 127 146 147
f 127 147 146
f 127 147 148
f 127 148 147
f 127 148 149
f 127 149 148
f 127 149 150
f 127 150 149
f 127 150 151
f 127 151 150
f 127 151 152
f 127 152 151
f 127 152 153
f 127 153 152
f 127 153 154
f 127 154 153
f 127 154 155
f 127 155 154
f 127 155 156
f 127 156 155
f 127 156 157
f 127 157 156
f 127 157 158
f 127 158 157
f 127 158 159
f 127 159 158
f 127 159 160
f 127 160 159
f 127 160 161
f 127 161 160
f 127 161 162
f 127 162 161
f 127 162 163
f 127 163 162
f 127 163 164
f 127 164 163
f 127 164 165
f 127 165 164
f 127 165 166
f 127 166 165
f 127 166 167
f 127 167 166
f 127 167 168
f 127 168 167
f 127 168 169
f 127 169 168
f 127 169 170
f 127 170 169
f 127 170 171
f 127 171 170
f 127 171 172
f 127 172 171
o part_6
v -0.584753 0.109441 0.367108
v -0.586707 0.108656 0.369194
v -0.588966 0.108641 0.371465
v -0.591493 0.109301 0.373898
v -0.594233 0.110499 0.376460
v -0.597117 0.112056 0.379109
v -0.600062 0.113770 0.381795
v -0.602984 0.115426 0.384467
v -0.605800 0.116815 0.387075
v -0.608435 0.117746 0.389573
v -0.610826 0.118063 0.391924
v -0.612929 0.117656 0.394100
v -0.614722 0.116466 0.396089
v -0.616205 0.114495 0.397890
v -0.617401 0.111799 0.399517
v -0.618353 0.108489 0.400996
v -0.619123 0.104722 0.402365
v -0.619787 0.100688 0.403670
v -0.620428 0.096595 0.404962
v -0.621132 0.092659 0.406291
v -0.621978 0.089083 0.407706
v -0.623037 0.086043 0.409250
v -0.624364 0.083680 0.410957
v -0.625997 0.082086 0.412848
v -0.624043 0.082870 0.410762
v -0.621784 0.082886 0.408491
v -0.619257 0.082225 0.406058
v -0.616516 0.081028 0.403496
v -0.613633 0.079470 0.400848
v -0.610688 0.077756 0.398161
v -0.607766 0.076100 0.395489
v -0.604950 0.074712 0.392881
v -0.602315 0.073781 0.390383
v -0.599924 0.073464 0.388032
v -0.597820 0.073871 0.385856
v -0.596027 0.075060 0.383867
v -0.594544 0.077032 0.382066
v -0.593349 0.079728 0.380439
v -0.592397 0.083037 0.378960
v -0.591627 0.086804 0.377591
v -0.590962 0.090839 0.376286
v -0.590321 0.094932 0.374994
v -0.589618 0.098868 0.373666
v -0.588772 0.102444 0.372250
v -0.587713 0.105483 0.370706
v -0.586385 0.107846 0.368999
f 173 174 175
f 173 175 174
f 173 175 176
f 173 176 175
f 173 176 177
f 173 177 176
f 173 177 178
f 173 178 177
f 173 178 179
f 173 179 178
f 173 179 180
f 173 180 179
f 173 180 181
f 173 181 180
f 173 181 182
f 173 182 181
f 173 182 183
f 173 183 182
f 173 183 184
f 173 184 183
f 173 184 185
f 173 185 184
f 173 185 186
f 173 186 185
f 173 186 187
f 173 187 186
f 173 187 188
f 173 188 187
f 173 188 189
f 173 189 188
f 173 189 190
f 173 190 189
f 173 190 191
f 173 191 190
f 173 191 192
f 173 192 191
f 173 192 193
f 173 193 192
f 173 193 194
f 173 194 193
f 173 194 195
f 173 195 194
f 173 195 196
f 173 196 195
f 173 196 197
f 173 197 196
f 173 197 198
f 173 198 197
f 173 198 199
f 173 199 198
f 173 199 200
f 173 200 199
f 173 200 201
f 173 201 200
f 173 201 202
f 173 202 201
f 173 202 203
f 173 203 202
f 173 203 204
f 173 204 203
f 173 204 205
f 173 205 204
f 173 205 206
f 173 206 205
f 173 206 207
f 173 207 206
f 173 207 208
f 173 208 207
f 173 208 209
f 173 209 208
f 173 209 210
f 173 210 209
f 173 210 211
f 173 211 210
f 173 211 212
f 173 212 211
f 173 212 213
f 173 213 212
f 173 213 214
f 173 214 213
f 173 214 215
f 173 215 214
f 173 215 216
f 173 216 215
f 173 216 217
f 173 217 216
f 173 217 218
f 173 218 217
o part_7
v 0.002196 0.009961 0.400000
v -0.001676 0.008820 0.404842
v -0.004908 0.004310 0.407834
v -0.006266 -0.001846 0.407834
v -0.005230 -0.007297 0.404842
v -0.002196 -0.009961 0.400000
v 0.001676 -0.008820 0.395158
v 0.004908 -0.004310 0.392166
v 0.006266 0.001846 0.392166
v 0.005230 0.007297 0.395158
v 0.269942 -0.052412 0.600748
v 0.267309 -0.053188 0.604040
v 0.265112 -0.056255 0.606075
v 0.264189 -0.060441 0.606075
v 0.264893 -0.064148 0.604040
v 0.266956 -0.065959 0.600748
v 0.269589 -0.065183 0.597455
v 0.271787 -0.062116 0.595420
v 0.272710 -0.057930 0.595420
v 0.272005 -0.054224 0.597455
f 219 220 230
f 219 230 229
f 220 221 231
f 220 231 230
f 221 222 232
f 221 232 231
f 222 223 233
f 222 233 232
f 223 224 234
f 223 234 233
f 224 225 235
f 224 235 234
f 225 226 236
f 225 236 235
f 226 227 237
f 226 237 236
f 227 228 238
f 227 238 237
f 228 219 229
f 228 229 238
o part_8
v 0.268916 -0.052265 0.600748
v 0.269218 -0.053613 0.604806
v 0.269226 -0.057090 0.607314
v 0.268937 -0.061367 0.607314
v 0.268462 -0.064811 0.604806
v 0.267982 -0.066106 0.600748
v 0.267681 -0.064758 0.596690
v 0.267673 -0.061281 0.594182
v 0.267961 -0.057005 0.594182
v 0.268436 -0.053561 0.596690
v 0.522202 -0.071573 0.576232
v 0.522407 -0.072490 0.578992
v 0.522413 -0.074854 0.580697
v 0.522217 -0.077762 0.580697
v 0.521894 -0.080104 0.578992
v 0.521567 -0.080985 0.576232
v 0.521362 -0.080068 0.573473
v 0.521357 -0.077704 0.571767
v 0.521553 -0.074796 0.571767
v 0.521876 -0.072454 0.573473
f 239 240 250
f 239 250 249
f 240 241 251
f 240 251 250
f 241 242 252
f 241 252 251
f 242 243 253
f 242 253 252
f 243 244 254
f 243 254 253
f 244 245 255
f 244 255 254
f 245 246 256
f 245 256 255
f 246 247 257
f 246 257 256
f 247 248 258
f 247 258 257
f 248 239 249
f 248 249 258
o part_9
v 0.521242 -0.071606 0.576232
v 0.523801 -0.072163 0.577511
v 0.525629 -0.074292 0.578301
v 0.526026 -0.077180 0.578301
v 0.524842 -0.079723 0.577511
v 0.522528 -0.080951 0.576232
v 0.519968 -0.080394 0.574954
v 0.518141 -0.078265 0.574163
v 0.517743 -0.075378 0.574163
v 0.518928 -0.072834 0.574954
v 0.613324 -0.060456 0.397830
v 0.615065 -0.060835 0.398700
v 0.616307 -0.062282 0.399237
v 0.616578 -0.064246 0.399237
v 0.615772 -0.065976 0.398700
v 0.614199 -0.066810 0.397830
v 0.612458 -0.066432 0.396961
v 0.611215 -0.064984 0.396423
v 0.610945 -0.063020 0.396423
v 0.611751 -0.061291 0.396961
f 259 260 270
f 259 270 269
f 260 261 271
f 260 271 270
f 261 262 272
f 261 272 271
f 262 263 273
f 262 273 272
f 263 264 274
f 263 274 273
f 264 265 275
f 264 275 274
f 265 266 276
f 265 276 275
f 266 267 277
f 266 277 276
f 267 268 278
f 267 278 277
f 268 259 269
f 268 269 278
o part_10
v 0.613761 -0.063633 0.397830
v 0.614088 -0.060809 0.398954
v 0.614696 -0.058066 0.400216
v 0.615844 -0.055481 0.401746
v 0.617703 -0.053103 0.403627
v 0.620306 -0.050942 0.405876
v 0.623540 -0.048964 0.408437
v 0.627152 -0.047097 0.411185
v 0.630790 -0.045237 0.413945
v 0.634056 -0.043269 0.416521
v 0.636575 -0.041083 0.418728
v 0.638055 -0.038595 0.420422
v 0.638337 -0.035757 0.421524
v 0.637421 -0.032570 0.422033
v 0.635466 -0.029081 0.422029
v 0.632765 -0.025375 0.421655
v 0.629692 -0.021560 0.421098
v 0.626644 -0.017752 0.420554
v 0.623974 -0.014054 0.420196
v 0.621935 -0.010541 0.420150
v 0.620641 -0.007244 0.420472
v 0.620057 -0.004154 0.421145
v 0.620013 -0.001222 0.422086
v 0.620251 0.001629 0.423166
v 0.619924 -0.001196 0.422042
v 0.619317 -0.003938 0.420780
v 0.618168 -0.006523 0.419250
v 0.616310 -0.008902 0.417369
v 0.613706 -0.011063 0.415120
v 0.610472 -0.013040 0.412559
v 0.606860 -0.014907 0.409811
v 0.603223 -0.016767 0.407051
v 0.599957 -0.018736 0.404475
v 0.597438 -0.020921 0.402267
v 0.595958 -0.023410 0.400574
v 0.595675 -0.026247 0.399472
v 0.596591 -0.029434 0.398963
v 0.598546 -0.032923 0.398967
v 0.601248 -0.036630 0.399341
v 0.604321 -0.040445 0.399898
v 0.607368 -0.044252 0.400442
v 0.610038 -0.047950 0.400800
v 0.612077 -0.051464 0.400846
v 0.613372 -0.054761 0.400524
v 0.613956 -0.057850 0.399851
v 0.613999 -0.060783 0.398910
f 279 280 281
f 279 281 280
f 279 281 282
f 279 282 281
f 279 282 283
f 279 283 282
f 279 283 284
f 279 284 283
f 279 284 285
f 279 285 284
f 279 285 286
f 279 286 285
f 279 286 287
f 279 287 286
f 279 287 288
f 279 288 287
f 279 288 289
f 279 289 288
f 279 289 290
f 279 290 289
f 279 290 291
f 279 291 290
f 279 291 292
f 279 292 291
f 279 292 293
f 279 293 292
f 279 293 294
f 279 294 293
f 279 294 295
f 279 295 294
f 279 295 296
f 279 296 295
f 279 296 297
f 279 297 296
f 279 297 298
f 279 298 297
f 279 298 299
f 279 299 298
f 279 299 300
f 279 300 299
f 279 300 301
f 279 301 300
f 279 301 302
f 279 302 301
f 279 302 303
f 279 303 302
f 279 303 304
f 279 304 303
f 279 304 305
f 279 305 304
f 279 305 306
f 279 306 305
f 279 306 307
f 279 307 306
f 279 307 308
f 279 308 307
f 279 308 309
f 279 309 308
f 279 309 310
f 279 310 309
f 279 310 311
f 279 311 310
f 279 311 312
f 279 312 311
f 279 312 313
f 279 313 312
f 279 313 314
f 279 314 313
f 279 314 315
f 279 315 314
f 279 315 316
f 279 316 315
f 279 316 317
f 279 317 316
f 279 317 318
f 279 318 317
f 279 318 319
f 279 319 318
f 279 319 320
f 279 320 319
f 279 320 321
f 279 321 320
f 279 321 322
f 279 322 321
f 279 322 323
f 279 323 322
f 279 323 324
f 279 324 323
o part_11
v 0.613761 -0.063633 0.397830
v 0.615727 -0.065136 0.399626
v 0.617580 -0.066883 0.401347
v 0.619198 -0.069140 0.402910
v 0.620490 -0.072103 0.404256
v 0.621427 -0.075841 0.405363
v 0.622049 -0.080260 0.406260
v 0.622471 -0.085115 0.407024
v 0.622860 -0.090041 0.407765
v 0.623412 -0.094613 0.408615
v 0.624315 -0.098423 0.409700
v 0.625716 -0.101151 0.411119
v 0.627697 -0.102620 0.412925
v 0.630258 -0.102829 0.415119
v 0.633318 -0.101956 0.417647
v 0.636728 -0.100321 0.420409
v 0.640300 -0.098333 0.423280
v 0.643841 -0.096415 0.426129
v 0.647181 -0.094933 0.428844
v 0.650207 -0.094133 0.431350
v 0.652876 -0.094106 0.433616
v 0.655220 -0.094786 0.435665
v 0.657329 -0.095977 0.437557
v 0.659326 -0.097411 0.439374
v 0.657361 -0.095908 0.437578
v 0.655508 -0.094162 0.435858
v 0.653890 -0.091905 0.434294
v 0.652597 -0.088941 0.432949
v 0.651661 -0.085203 0.431841
v 0.651039 -0.080784 0.430944
v 0.650617 -0.075929 0.430181
v 0.650227 -0.071004 0.429439
v 0.649675 -0.066432 0.428589
v 0.648773 -0.062621 0.427504
v 0.647372 -0.059893 0.426086
v 0.645390 -0.058425 0.424280
v 0.642830 -0.058215 0.422085
v 0.639770 -0.059089 0.419558
v 0.636360 -0.060724 0.416796
v 0.632787 -0.062712 0.413925
v 0.629247 -0.064629 0.411075
v 0.625907 -0.066111 0.408360
v 0.622881 -0.066912 0.405855
v 0.620211 -0.066938 0.403588
v 0.617867 -0.066258 0.401539
v 0.615758 -0.065067 0.399647
f 325 326 327
f 325 327 326
f 325 327 328
f 325 328 327
f 325 328 329
f 325 329 328
f 325 329 330
f 325 330 329
f 325 330 331
f 325 331 330
f 325 331 332
f 325 332 331
f 325 332 333
f 325 333 332
f 325 333 334
f 325 334 333
f 325 334 335
f 325 335 334
f 325 335 336
f 325 336 335
f 325 336 337
f 325 337 336
f 325 337 338
f 325 338 337
f 325 338 339
f 325 339 338
f 325 339 340
f 325 340 339
f 325 340 341
f 325 341 340
f 325 341 342
f 325 342 341
f 325 342 343
f 325 343 342
f 325 343 344
f 325 344 343
f 325 344 345
f 325 345 344
f 325 345 346
f 325 346 345
f 325 346 347
f 325 347 346
f 325 347 348
f 325 348 347
f 325 348 349
f 325 349 348
f 325 349 350
f 325 350 349
f 325 350 351
f 325 351 350
f 325 351 352
f 325 352 351
f 325 352 353
f 325 353 352
f 325 353 354
f 325 354 353
f 325 354 355
f 325 355 354
f 325 355 356
f 325 356 355
f 325 356 357
f 325 357 356
f 325 357 358
f 325 358 357
f 325 358 359
f 325 359 358
f 325 359 360
f 325 360 359
f 325 360 361
f 325 361 360
f 325 361 362
f 325 362 361
f 325 362 363
f 325 363 362
f 325 363 364
f 325 364 363
f 325 364 365
f 325 365 364
f 325 365 366
f 325 366 365
f 325 366 367
f 325 367 366
f 325 367 368
f 325 368 367
f 325 368 369
f 325 369 368
f 325 369 370
f 325 370 369
o part_12
v 0.613761 -0.063633 0.397830
v 0.610464 -0.065579 0.398351
v 0.606511 -0.066754 0.398587
v 0.601938 -0.067203 0.398557
v 0.596850 -0.067048 0.398304
v 0.591400 -0.066467 0.397894
v 0.585772 -0.065677 0.397408
v 0.580168 -0.064916 0.396932
v 0.574791 -0.064421 0.396554
v 0.569826 -0.064409 0.396354
v 0.565427 -0.065062 0.396399
v 0.561704 -0.066508 0.396735
v 0.558714 -0.068815 0.397388
v 0.556458 -0.071982 0.398358
v 0.554879 -0.075944 0.399620
v 0.553865 -0.080570 0.401126
v 0.553263 -0.085679 0.402810
v 0.552888 -0.091053 0.404592
v 0.552536 -0.096457 0.406384
v 0.552008 -0.101652 0.408100
v 0.551117 -0.106421 0.409659
v 0.549710 -0.110586 0.410996
v 0.547685 -0.114025 0.412065
v 0.545003 -0.116693 0.412851
v 0.548300 -0.114747 0.412331
v 0.552254 -0.113572 0.412094
v 0.556827 -0.113123 0.412125
v 0.561914 -0.113278 0.412378
v 0.567365 -0.113859 0.412787
v 0.572992 -0.114649 0.413273
v 0.578596 -0.115410 0.413749
v 0.583973 -0.115905 0.414127
v 0.588938 -0.115917 0.414327
v 0.593337 -0.115264 0.414283
v 0.597061 -0.113818 0.413946
v 0.600050 -0.111512 0.413293
v 0.602306 -0.108344 0.412323
v 0.603886 -0.104382 0.411062
v 0.604899 -0.099757 0.409555
v 0.605501 -0.094647 0.407871
v 0.605877 -0.089273 0.406090
v 0.606228 -0.083869 0.404297
v 0.606757 -0.078674 0.402581
v 0.607648 -0.073905 0.401022
v 0.609054 -0.069740 0.399686
v 0.611080 -0.066301 0.398616
f 371 372 373
f 371 373 372
f 371 373 374
f 371 374 373
f 371 374 375
f 371 375 374
f 371 375 376
f 371 376 375
f 371 376 377
f 371 377 376
f 371 377 378
f 371 378 377
f 371 378 379
f 371 379 378
f 371 379 380
f 371 380 379
f 371 380 381
f 371 381 380
f 371 381 382
f 371 382 381
f 371 382 383
f 371 383 382
f 371 383 384
f 371 384 383
f 371 384 385
f 371 385 384
f 371 385 386
f 371 386 385
f 371 386 387
f 371 387 386
f 371 387 388
f 371 388 387
f 371 388 389
f 371 389 388
f 371 389 390
f 371 390 389
f 371 390 391
f 371 391 390
f 371 391 392
f 371 392 391
f 371 392 393
f 371 393 392
f 371 393 394
f 371 394 393
f 371 394 395
f 371 395 394
f 371 395 396
f 371 396 395
f 371 396 397
f 371 397 396
f 371 397 398
f 371 398 397
f 371 398 399
f 371 399 398
f 371 399 400
f 371 400 399
f 371 400 401
f 371 401 400
f 371 401 402
f 371 402 401
f 371 402 403
f 371 403 402
f 371 403 404
f 371 404 403
f 371 404 405
f 371 405 404
f 371 405 406
f 371 406 405
f 371 406 407
f 371 407 406
f 371 407 408
f 371 408 407
f 371 408 409
f 371 409 408
f 371 409 410
f 371 410 409
f 371 410 411
f 371 411 410
f 371 411 412
f 371 412 411
f 371 412 413
f 371 413 412
f 371 413 414
f 371 414 413
f 371 414 415
f 371 415 414
f 371 415 416
f 371 416 415
