o part_0
v 2.797536 0.300000 -0.000000
v 1.978157 0.300000 -1.978157
v 0.000000 0.300000 -2.797536
v -1.978157 0.300000 -1.978157
v -2.797536 0.300000 -0.000000
v -1.978157 0.300000 1.978157
v -0.000000 0.300000 2.797536
v 1.978157 0.300000 1.978157
v 0.000000 0.300000 -0.000000
f 9 1 2
f 9 2 1
f 9 2 3
f 9 3 2
f 9 3 4
f 9 4 3
f 9 4 5
f 9 5 4
f 9 5 6
f 9 6 5
f 9 6 7
f 9 7 6
f 9 7 8
f 9 8 7
f 9 8 1
f 9 1 8
o part_1
v 2.538860 0.300000 -0.078771
v 2.599481 0.300000 -0.113771
v 2.599481 0.300000 -0.183771
v 2.538860 0.300000 -0.218771
v 2.478238 0.300000 -0.183771
v 2.478238 0.300000 -0.113771
v 2.538860 3.074294 -0.078771
v 2.599481 3.074294 -0.113771
v 2.599481 3.074294 -0.183771
v 2.538860 3.074294 -0.218771
v 2.478238 3.074294 -0.183771
v 2.478238 3.074294 -0.113771
f 10 11 17
f 10 17 16
f 11 12 18
f 11 18 17
f 12 13 19
f 12 19 18
f 13 14 20
f 13 20 19
f 14 15 21
f 14 21 20
f 15 10 16
f 15 16 21
o part_2
v 1.690048 0.300000 -1.830442
v 1.750669 0.300000 -1.865442
v 1.750669 0.300000 -1.935442
v 1.690048 0.300000 -1.970442
v 1.629426 0.300000 -1.935442
v 1.629426 0.300000 -1.865442
v 1.690048 3.074294 -1.830442
v 1.750669 3.074294 -1.865442
v 1.750669 3.074294 -1.935442
v 1.690048 3.074294 -1.970442
v 1.629426 3.074294 -1.935442
v 1.629426 3.074294 -1.865442
f 22 23 29
f 22 29 28
f 23 24 30
f 23 30 29
f 24 25 31
f 24 31 30
f 25 26 32
f 25 32 31
f 26 27 33
f 26 33 32
f 27 22 28
f 27 28 33
o part_3
v -0.148771 0.300000 -2.468860
v -0.088149 0.300000 -2.503860
v -0.088149 0.300000 -2.573860
v -0.148771 0.300000 -2.608860
v -0.209393 0.300000 -2.573860
v -0.209393 0.300000 -2.503860
v -0.148771 3.074294 -2.468860
v -0.088149 3.074294 -2.503860
v -0.088149 3.074294 -2.573860
v -0.148771 3.074294 -2.608860
v -0.209393 3.074294 -2.573860
v -0.209393 3.074294 -2.503860
f 34 35 41
f 34 41 40
f 35 36 42
f 35 42 41
f 36 37 43
f 36 43 42
f 37 38 44
f 37 44 43
f 38 39 45
f 38 45 44
f 39 34 40
f 39 40 45
o part_4
v -1.900442 0.300000 -1.620048
v -1.839820 0.300000 -1.655048
v -1.839820 0.300000 -1.725048
v -1.900442 0.300000 -1.760048
v -1.961064 0.300000 -1.725048
v -1.961064 0.300000 -1.655048
v -1.900442 3.074294 -1.620048
v -1.839820 3.074294 -1.655048
v -1.839820 3.074294 -1.725048
v -1.900442 3.074294 -1.760048
v -1.961064 3.074294 -1.725048
v -1.961064 3.074294 -1.655048
f 46 47 53
f 46 53 52
f 47 48 54
f 47 54 53
f 48 49 55
f 48 55 54
f 49 50 56
f 49 56 55
f 50 51 57
f 50 57 56
f 51 46 52
f 51 52 57
o part_5
v -2.538860 0.300000 0.218771
v -2.478238 0.300000 0.183771
v -2.478238 0.300000 0.113771
v -2.538860 0.300000 0.078771
v -2.599481 0.300000 0.113771
v -2.599481 0.300000 0.183771
v -2.538860 3.074294 0.218771
v -2.478238 3.074294 0.183771
v -2.478238 3.074294 0.113771
v -2.538860 3.074294 0.078771
v -2.599481 3.074294 0.113771
v -2.599481 3.074294 0.183771
f 58 59 65
f 58 65 64
f 59 60 66
f 59 66 65
f 60 61 67
f 60 67 66
f 61 62 68
f 61 68 67
f 62 63 69
f 62 69 68
f 63 58 64
f 63 64 69
o part_6
v -1.690048 0.300000 1.970442
v -1.629426 0.300000 1.935442
v -1.629426 0.300000 1.865442
v -1.690048 0.300000 1.830442
v -1.750669 0.300000 1.865442
v -1.750669 0.300000 1.935442
v -1.690048 3.074294 1.970442
v -1.629426 3.074294 1.935442
v -1.629426 3.074294 1.865442
v -1.690048 3.074294 1.830442
v -1.750669 3.074294 1.865442
v -1.750669 3.074294 1.935442
f 70 71 77
f 70 77 76
f 71 72 78
f 71 78 77
f 72 73 79
f 72 79 78
f 73 74 80
f 73 80 79
f 74 75 81
f 74 81 80
f 75 70 76
f 75 76 81
o part_7
v 0.148771 0.300000 2.608860
v 0.209393 0.300000 2.573860
v 0.209393 0.300000 2.503860
v 0.148771 0.300000 2.468860
v 0.088149 0.300000 2.503860
v 0.088149 0.300000 2.573860
v 0.148771 3.074294 2.608860
v 0.209393 3.074294 2.573860
v 0.209393 3.074294 2.503860
v 0.148771 3.074294 2.468860
v 0.088149 3.074294 2.503860
v 0.088149 3.074294 2.573860
f 82 83 89
f 82 89 88
f 83 84 90
f 83 90 89
f 84 85 91
f 84 91 90
f 85 86 92
f 85 92 91
f 86 87 93
f 86 93 92
f 87 82 88
f 87 88 93
o part_8
v 1.900442 0.300000 1.760048
v 1.961064 0.300000 1.725048
v 1.961064 0.300000 1.655048
v 1.900442 0.300000 1.620048
v 1.839820 0.300000 1.655048
v 1.839820 0.300000 1.725048
v 1.900442 3.074294 1.760048
v 1.961064 3.074294 1.725048
v 1.961064 3.074294 1.655048
v 1.900442 3.074294 1.620048
v 1.839820 3.074294 1.655048
v 1.839820 3.074294 1.725048
f 94 95 101
f 94 101 100
f 95 96 102
f 95 102 101
f 96 97 103
f 96 103 102
f 97 98 104
f 97 104 103
f 98 99 105
f 98 105 104
f 99 94 100
f 99 100 105
o part_9
v 2.475866 3.074294 -0.118246
v 2.507363 3.134915 -0.133509
v 2.570356 3.134915 -0.164034
v 2.601853 3.074294 -0.179296
v 2.570356 3.013672 -0.164034
v 2.507363 3.013672 -0.133509
v 1.627054 3.074294 -1.869917
v 1.658551 3.134915 -1.885179
v 1.721545 3.134915 -1.915705
v 1.753041 3.074294 -1.930967
v 1.721545 3.013672 -1.915705
v 1.658551 3.013672 -1.885179
f 106 107 113
f 106 113 112
f 107 108 114
f 107 114 113
f 108 109 115
f 108 115 114
f 109 110 116
f 109 116 115
f 110 111 117
f 110 117 116
f 111 106 112
f 111 112 117
o part_10
v 2.488465 1.200000 -0.124351
v 2.513662 1.248497 -0.136561
v 2.564057 1.248497 -0.160981
v 2.589255 1.200000 -0.173191
v 2.564057 1.151503 -0.160981
v 2.513662 1.151503 -0.136561
v 1.639653 1.200000 -1.876022
v 1.664850 1.248497 -1.888232
v 1.715245 1.248497 -1.912652
v 1.740443 1.200000 -1.924862
v 1.715245 1.151503 -1.912652
v 1.664850 1.151503 -1.888232
f 118 119 125
f 118 125 124
f 119 120 126
f 119 126 125
f 120 121 127
f 120 127 126
f 121 122 128
f 121 128 127
f 122 123 129
f 122 129 128
f 123 118 124
f 123 124 129
o part_11
v 1.667089 3.074294 -1.834314
v 1.678568 3.134915 -1.867378
v 1.701527 3.134915 -1.933506
v 1.713007 3.074294 -1.966570
v 1.701527 3.013672 -1.933506
v 1.678568 3.013672 -1.867378
v -0.171730 3.074294 -2.472732
v -0.160251 3.134915 -2.505796
v -0.137292 3.134915 -2.571923
v -0.125812 3.074294 -2.604987
v -0.137292 3.013672 -2.571923
v -0.160251 3.013672 -2.505796
f 130 131 137
f 130 137 136
f 131 132 138
f 131 138 137
f 132 133 139
f 132 139 138
f 133 134 140
f 133 140 139
f 134 135 141
f 134 141 140
f 135 130 136
f 135 136 141
o part_12
v -0.118246 3.074294 -2.475866
v -0.133509 3.134915 -2.507363
v -0.164034 3.134915 -2.570356
v -0.179296 3.074294 -2.601853
v -0.164034 3.013672 -2.570356
v -0.133509 3.013672 -2.507363
v -1.869917 3.074294 -1.627054
v -1.885179 3.134915 -1.658551
v -1.915705 3.134915 -1.721545
v -1.930967 3.074294 -1.753041
v -1.915705 3.013672 -1.721545
v -1.885179 3.013672 -1.658551
f 142 143 149
f 142 149 148
f 143 144 150
f 143 150 149
f 144 145 151
f 144 151 150
f 145 146 152
f 145 152 151
f 146 147 153
f 146 153 152
f 147 142 148
f 147 148 153
o part_13
v -0.124351 1.200000 -2.488465
v -0.136561 1.248497 -2.513662
v -0.160981 1.248497 -2.564057
v -0.173191 1.200000 -2.589255
v -0.160981 1.151503 -2.564057
v -0.136561 1.151503 -2.513662
v -1.876022 1.200000 -1.639653
v -1.888232 1.248497 -1.664850
v -1.912652 1.248497 -1.715245
v -1.924862 1.200000 -1.740443
v -1.912652 1.151503 -1.715245
v -1.888232 1.151503 -1.664850
f 154 155 161
f 154 161 160
f 155 156 162
f 155 162 161
f 156 157 163
f 156 163 162
f 157 158 164
f 157 164 163
f 158 159 165
f 158 165 164
f 159 154 160
f 159 160 165
o part_14
v -1.834314 3.074294 -1.667089
v -1.867378 3.134915 -1.678568
v -1.933506 3.134915 -1.701527
v -1.966570 3.074294 -1.713007
v -1.933506 3.013672 -1.701527
v -1.867378 3.013672 -1.678568
v -2.472732 3.074294 0.171730
v -2.505796 3.134915 0.160251
v -2.571923 3.134915 0.137292
v -2.604987 3.074294 0.125812
v -2.571923 3.013672 0.137292
v -2.505796 3.013672 0.160251
f 166 167 173
f 166 173 172
f 167 168 174
f 167 174 173
f 168 169 175
f 168 175 174
f 169 170 176
f 169 176 175
f 170 171 177
f 170 177 176
f 171 166 172
f 171 172 177
o part_15
v -1.847540 1.200000 -1.671681
v -1.873991 1.248497 -1.680864
v -1.926893 1.248497 -1.699231
v -1.953344 1.200000 -1.708415
v -1.926893 1.151503 -1.699231
v -1.873991 1.151503 -1.680864
v -2.485957 1.200000 0.167138
v -2.512408 1.248497 0.157955
v -2.565311 1.248497 0.139588
v -2.591762 1.200000 0.130404
v -2.565311 1.151503 0.139588
v -2.512408 1.151503 0.157955
f 178 179 185
f 178 185 184
f 179 180 186
f 179 186 185
f 180 181 187
f 180 187 186
f 181 182 188
f 181 188 187
f 182 183 189
f 182 189 188
f 183 178 184
f 183 184 189
o part_16
v -2.475866 3.074294 0.118246
v -2.507363 3.134915 0.133509
v -2.570356 3.134915 0.164034
v -2.601853 3.074294 0.179296
v -2.570356 3.013672 0.164034
v -2.507363 3.013672 0.133509
v -1.627054 3.074294 1.869917
v -1.658551 3.134915 1.885179
v -1.721545 3.134915 1.915705
v -1.753041 3.074294 1.930967
v -1.721545 3.013672 1.915705
v -1.658551 3.013672 1.885179
f 190 191 197
f 190 197 196
f 191 192 198
f 191 198 197
f 192 193 199
f 192 199 198
f 193 194 200
f 193 200 199
f 194 195 201
f 194 201 200
f 195 190 196
f 195 196 201
o part_17
v -2.488465 1.200000 0.124351
v -2.513662 1.248497 0.136561
v -2.564057 1.248497 0.160981
v -2.589255 1.200000 0.173191
v -2.564057 1.151503 0.160981
v -2.513662 1.151503 0.136561
v -1.639653 1.200000 1.876022
v -1.664850 1.248497 1.888232
v -1.715245 1.248497 1.912652
v -1.740443 1.200000 1.924862
v -1.715245 1.151503 1.912652
v -1.664850 1.151503 1.888232
f 202 203 209
f 202 209 208
f 203 204 210
f 203 210 209
f 204 205 211
f 204 211 210
f 205 206 212
f 205 212 211
f 206 207 213
f 206 213 212
f 207 202 208
f 207 208 213
o part_18
v -1.667089 3.074294 1.834314
v -1.678568 3.134915 1.867378
v -1.701527 3.134915 1.933506
v -1.713007 3.074294 1.966570
v -1.701527 3.013672 1.933506
v -1.678568 3.013672 1.867378
v 0.171730 3.074294 2.472732
v 0.160251 3.134915 2.505796
v 0.137292 3.134915 2.571923
v 0.125812 3.074294 2.604987
v 0.137292 3.013672 2.571923
v 0.160251 3.013672 2.505796
f 214 215 221
f 214 221 220
f 215 216 222
f 215 222 221
f 216 217 223
f 216 223 222
f 217 218 224
f 217 224 223
f 218 219 225
f 218 225 224
f 219 214 220
f 219 220 225
o part_19
v -1.671681 1.200000 1.847540
v -1.680864 1.248497 1.873991
v -1.699231 1.248497 1.926893
v -1.708415 1.200000 1.953344
v -1.699231 1.151503 1.926893
v -1.680864 1.151503 1.873991
v 0.167138 1.200000 2.485957
v 0.157955 1.248497 2.512408
v 0.139588 1.248497 2.565311
v 0.130404 1.200000 2.591762
v 0.139588 1.151503 2.565311
v 0.157955 1.151503 2.512408
f 226 227 233
f 226 233 232
f 227 228 234
f 227 234 233
f 228 229 235
f 228 235 234
f 229 230 236
f 229 236 235
f 230 231 237
f 230 237 236
f 231 226 232
f 231 232 237
o part_20
v 0.118246 3.074294 2.475866
v 0.133509 3.134915 2.507363
v 0.164034 3.134915 2.570356
v 0.179296 3.074294 2.601853
v 0.164034 3.013672 2.570356
v 0.133509 3.013672 2.507363
v 1.869917 3.074294 1.627054
v 1.885179 3.134915 1.658551
v 1.915705 3.134915 1.721545
v 1.930967 3.074294 1.753041
v 1.915705 3.013672 1.721545
v 1.885179 3.013672 1.658551
f 238 239 245
f 238 245 244
f 239 240 246
f 239 246 245
f 240 241 247
f 240 247 246
f 241 242 248
f 241 248 247
f 242 243 249
f 242 249 248
f 243 238 244
f 243 244 249
o part_21
v 0.124351 1.200000 2.488465
v 0.136561 1.248497 2.513662
v 0.160981 1.248497 2.564057
v 0.173191 1.200000 2.589255
v 0.160981 1.151503 2.564057
v 0.136561 1.151503 2.513662
v 1.876022 1.200000 1.639653
v 1.888232 1.248497 1.664850
v 1.912652 1.248497 1.715245
v 1.924862 1.200000 1.740443
v 1.912652 1.151503 1.715245
v 1.888232 1.151503 1.664850
f 250 251 257
f 250 257 256
f 251 252 258
f 251 258 257
f 252 253 259
f 252 259 258
f 253 254 260
f 253 260 259
f 254 255 261
f 254 261 260
f 255 250 256
f 255 256 261
o part_22
v 1.834314 3.074294 1.667089
v 1.867378 3.134915 1.678568
v 1.933506 3.134915 1.701527
v 1.966570 3.074294 1.713007
v 1.933506 3.013672 1.701527
v 1.867378 3.013672 1.678568
v 2.472732 3.074294 -0.171730
v 2.505796 3.134915 -0.160251
v 2.571923 3.134915 -0.137292
v 2.604987 3.074294 -0.125812
v 2.571923 3.013672 -0.137292
v 2.505796 3.013672 -0.160251
f 262 263 269
f 262 269 268
f 263 264 270
f 263 270 269
f 264 265 271
f 264 271 270
f 265 266 272
f 265 272 271
f 266 267 273
f 266 273 272
f 267 262 268
f 267 268 273
o part_23
v 1.847540 1.200000 1.671681
v 1.873991 1.248497 1.680864
v 1.926893 1.248497 1.699231
v 1.953344 1.200000 1.708415
v 1.926893 1.151503 1.699231
v 1.873991 1.151503 1.680864
v 2.485957 1.200000 -0.167138
v 2.512408 1.248497 -0.157955
v 2.565311 1.248497 -0.139588
v 2.591762 1.200000 -0.130404
v 2.565311 1.151503 -0.139588
v 2.512408 1.151503 -0.157955
f 274 275 281
f 274 281 280
f 275 276 282
f 275 282 281
f 276 277 283
f 276 283 282
f 277 278 284
f 277 284 283
f 278 279 285
f 278 285 284
f 279 274 280
f 279 280 285
o part_24
v 3.179018 3.074294 -0.000000
v 2.247905 3.074294 -2.247905
v 0.000000 3.074294 -3.179018
v -2.247905 3.074294 -2.247905
v -3.179018 3.074294 -0.000000
v -2.247905 3.074294 2.247905
v -0.000000 3.074294 3.179018
v 2.247905 3.074294 2.247905
v 0.000000 4.332902 -0.000000
f 286 287 294
f 287 288 294
f 288 289 294
f 289 290 294
f 290 291 294
f 291 292 294
f 292 293 294
f 293 286 294
o part_25
v 0.000000 4.332902 0.040000
v 0.034641 4.332902 0.020000
v 0.034641 4.332902 -0.020000
v 0.000000 4.332902 -0.040000
v -0.034641 4.332902 -0.020000
v -0.034641 4.332902 0.020000
v 0.000000 4.732902 0.040000
v 0.034641 4.732902 0.020000
v 0.034641 4.732902 -0.020000
v 0.000000 4.732902 -0.040000
v -0.034641 4.732902 -0.020000
v -0.034641 4.732902 0.020000
f 295 296 302
f 295 302 301
f 296 297 303
f 296 303 302
f 297 298 304
f 297 304 303
f 298 299 305
f 298 305 304
f 299 300 306
f 299 306 305
f 300 295 301
f 300 301 306
