o mesh
v 2.166003 0.300000 -0.000000
v 1.083001 0.300000 -1.875813
v -1.083001 0.300000 -1.875813
v -2.166003 0.300000 -0.000000
v -1.083001 0.300000 1.875813
v 1.083001 0.300000 1.875813
v 0.000000 0.300000 -0.000000
f 7 1 2
f 7 2 1
f 7 2 3
f 7 3 2
f 7 3 4
f 7 4 3
f 7 4 5
f 7 5 4
f 7 5 6
f 7 6 5
f 7 6 1
f 7 1 6
v -1.220083 0.300000 1.615550
v -1.159461 0.300000 1.580550
v -1.159461 0.300000 1.510550
v -1.220083 0.300000 1.475550
v -1.280705 0.300000 1.510550
v -1.280705 0.300000 1.580550
v -1.220083 2.719473 1.615550
v -1.159461 2.719473 1.580550
v -1.159461 2.719473 1.510550
v -1.220083 2.719473 1.475550
v -1.280705 2.719473 1.510550
v -1.280705 2.719473 1.580550
f 8 9 15
f 8 15 14
f 9 10 16
f 9 16 15
f 10 11 17
f 10 17 16
f 11 12 18
f 11 18 17
f 12 13 19
f 12 19 18
f 13 8 14
f 13 14 19
v 0.728444 0.300000 1.899398
v 0.789066 0.300000 1.864398
v 0.789066 0.300000 1.794398
v 0.728444 0.300000 1.759398
v 0.667823 0.300000 1.794398
v 0.667823 0.300000 1.864398
v 0.728444 2.719473 1.899398
v 0.789066 2.719473 1.864398
v 0.789066 2.719473 1.794398
v 0.728444 2.719473 1.759398
v 0.667823 2.719473 1.794398
v 0.667823 2.719473 1.864398
f 20 21 27
f 20 27 26
f 21 22 28
f 21 28 27
f 22 23 29
f 22 29 28
f 23 24 30
f 23 30 29
f 24 25 31
f 24 31 30
f 25 20 26
f 25 26 31
v 1.948528 0.300000 0.353848
v 2.009149 0.300000 0.318848
v 2.009149 0.300000 0.248848
v 1.948528 0.300000 0.213848
v 1.887906 0.300000 0.248848
v 1.887906 0.300000 0.318848
v 1.948528 2.719473 0.353848
v 2.009149 2.719473 0.318848
v 2.009149 2.719473 0.248848
v 1.948528 2.719473 0.213848
v 1.887906 2.719473 0.248848
v 1.887906 2.719473 0.318848
f 32 33 39
f 32 39 38
f 33 34 40
f 33 40 39
f 34 35 41
f 34 41 40
f 35 36 42
f 35 42 41
f 36 37 43
f 36 43 42
f 37 32 38
f 37 38 43
v 1.220083 0.300000 -1.475550
v 1.280705 0.300000 -1.510550
v 1.280705 0.300000 -1.580550
v 1.220083 0.300000 -1.615550
v 1.159461 0.300000 -1.580550
v 1.159461 0.300000 -1.510550
v 1.220083 2.719473 -1.475550
v 1.280705 2.719473 -1.510550
v 1.280705 2.719473 -1.580550
v 1.220083 2.719473 -1.615550
v 1.159461 2.719473 -1.580550
v 1.159461 2.719473 -1.510550
f 44 45 51
f 44 51 50
f 45 46 52
f 45 52 51
f 46 47 53
f 46 53 52
f 47 48 54
f 47 54 53
f 48 49 55
f 48 55 54
f 49 44 50
f 49 50 55
v -0.728444 0.300000 -1.759398
v -0.667823 0.300000 -1.794398
v -0.667823 0.300000 -1.864398
v -0.728444 0.300000 -1.899398
v -0.789066 0.300000 -1.864398
v -0.789066 0.300000 -1.794398
v -0.728444 2.719473 -1.759398
v -0.667823 2.719473 -1.794398
v -0.667823 2.719473 -1.864398
v -0.728444 2.719473 -1.899398
v -0.789066 2.719473 -1.864398
v -0.789066 2.719473 -1.794398
f 56 57 63
f 56 63 62
f 57 58 64
f 57 64 63
f 58 59 65
f 58 65 64
f 59 60 66
f 59 66 65
f 60 61 67
f 60 67 66
f 61 56 62
f 61 62 67
v -1.948528 0.300000 -0.213848
v -1.887906 0.300000 -0.248848
v -1.887906 0.300000 -0.318848
v -1.948528 0.300000 -0.353848
v -2.009149 0.300000 -0.318848
v -2.009149 0.300000 -0.248848
v -1.948528 2.719473 -0.213848
v -1.887906 2.719473 -0.248848
v -1.887906 2.719473 -0.318848
v -1.948528 2.719473 -0.353848
v -2.009149 2.719473 -0.318848
v -2.009149 2.719473 -0.248848
f 68 69 75
f 68 75 74
f 69 70 76
f 69 76 75
f 70 71 77
f 70 77 76
f 71 72 78
f 71 78 77
f 72 73 79
f 72 79 78
f 73 68 74
f 73 74 79
v -1.209993 2.719473 1.476282
v -1.215038 2.780095 1.510916
v -1.225129 2.780095 1.580185
v -1.230174 2.719473 1.614819
v -1.225129 2.658851 1.580185
v -1.215038 2.658851 1.510916
v 0.738535 2.719473 1.760129
v 0.733490 2.780095 1.794764
v 0.723399 2.780095 1.864033
v 0.718354 2.719473 1.898667
v 0.723399 2.658851 1.864033
v 0.733490 2.658851 1.794764
f 80 81 87
f 80 87 86
f 81 82 88
f 81 88 87
f 82 83 89
f 82 89 88
f 83 84 90
f 83 90 89
f 84 85 91
f 84 91 90
f 85 80 86
f 85 86 91
v -1.212011 1.200000 1.490135
v -1.216047 1.248497 1.517843
v -1.224119 1.248497 1.573258
v -1.228156 1.200000 1.600966
v -1.224119 1.151503 1.573258
v -1.216047 1.151503 1.517843
v 0.736517 1.200000 1.773983
v 0.732481 1.248497 1.801691
v 0.724408 1.248497 1.857106
v 0.720372 1.200000 1.884813
v 0.724408 1.151503 1.857106
v 0.732481 1.151503 1.801691
f 92 93 99
f 92 99 98
f 93 94 100
f 93 100 99
f 94 95 101
f 94 101 100
f 95 96 102
f 95 102 101
f 96 97 103
f 96 103 102
f 97 92 98
f 97 98 103
v 0.673501 2.719473 1.786025
v 0.700973 2.780095 1.807712
v 0.755916 2.780095 1.851085
v 0.783388 2.719473 1.872771
v 0.755916 2.658851 1.851085
v 0.700973 2.658851 1.807712
v 1.893584 2.719473 0.240475
v 1.921056 2.780095 0.262161
v 1.975999 2.780095 0.305534
v 2.003471 2.719473 0.327221
v 1.975999 2.658851 0.305534
v 1.921056 2.658851 0.262161
f 104 105 111
f 104 111 110
f 105 106 112
f 105 112 111
f 106 107 113
f 106 113 112
f 107 108 114
f 107 114 113
f 108 109 115
f 108 115 114
f 109 104 110
f 109 110 115
v 0.684490 1.200000 1.794700
v 0.706467 1.248497 1.812049
v 0.750422 1.248497 1.846748
v 0.772399 1.200000 1.864097
v 0.750422 1.151503 1.846748
v 0.706467 1.151503 1.812049
v 1.904573 1.200000 0.249149
v 1.926550 1.248497 0.266499
v 1.970505 1.248497 0.301197
v 1.992482 1.200000 0.318546
v 1.970505 1.151503 0.301197
v 1.926550 1.151503 0.266499
f 116 117 123
f 116 123 122
f 117 118 124
f 117 124 123
f 118 119 125
f 118 125 124
f 119 120 126
f 119 126 125
f 120 121 127
f 120 127 126
f 121 116 122
f 121 122 127
v 1.883494 2.719473 0.309744
v 1.916011 2.780095 0.296796
v 1.981045 2.780095 0.270900
v 2.013561 2.719473 0.257952
v 1.981045 2.658851 0.270900
v 1.916011 2.658851 0.296796
v 1.155049 2.719473 -1.519655
v 1.187566 2.780095 -1.532603
v 1.252600 2.780095 -1.558498
v 1.285117 2.719473 -1.571446
v 1.252600 2.658851 -1.558498
v 1.187566 2.658851 -1.532603
f 128 129 135
f 128 135 134
f 129 130 136
f 129 136 135
f 130 131 137
f 130 137 136
f 131 132 138
f 131 138 137
f 132 133 139
f 132 139 138
f 133 128 134
f 133 134 139
v 1.209993 2.719473 -1.476282
v 1.215038 2.780095 -1.510916
v 1.225129 2.780095 -1.580185
v 1.230174 2.719473 -1.614819
v 1.225129 2.658851 -1.580185
v 1.215038 2.658851 -1.510916
v -0.738535 2.719473 -1.760129
v -0.733490 2.780095 -1.794764
v -0.723399 2.780095 -1.864033
v -0.718354 2.719473 -1.898667
v -0.723399 2.658851 -1.864033
v -0.733490 2.658851 -1.794764
f 140 141 147
f 140 147 146
f 141 142 148
f 141 148 147
f 142 143 149
f 142 149 148
f 143 144 150
f 143 150 149
f 144 145 151
f 144 151 150
f 145 140 146
f 145 146 151
v 1.212011 1.200000 -1.490135
v 1.216047 1.248497 -1.517843
v 1.224119 1.248497 -1.573258
v 1.228156 1.200000 -1.600966
v 1.224119 1.151503 -1.573258
v 1.216047 1.151503 -1.517843
v -0.736517 1.200000 -1.773983
v -0.732481 1.248497 -1.801691
v -0.724408 1.248497 -1.857106
v -0.720372 1.200000 -1.884813
v -0.724408 1.151503 -1.857106
v -0.732481 1.151503 -1.801691
f 152 153 159
f 152 159 158
f 153 154 160
f 153 160 159
f 154 155 161
f 154 161 160
f 155 156 162
f 155 162 161
f 156 157 163
f 156 163 162
f 157 152 158
f 157 158 163
v -0.673501 2.719473 -1.786025
v -0.700973 2.780095 -1.807712
v -0.755916 2.780095 -1.851085
v -0.783388 2.719473 -1.872771
v -0.755916 2.658851 -1.851085
v -0.700973 2.658851 -1.807712
v -1.893584 2.719473 -0.240475
v -1.921056 2.780095 -0.262161
v -1.975999 2.780095 -0.305534
v -2.003471 2.719473 -0.327221
v -1.975999 2.658851 -0.305534
v -1.921056 2.658851 -0.262161
f 164 165 171
f 164 171 170
f 165 166 172
f 165 172 171
f 166 167 173
f 166 173 172
f 167 168 174
f 167 174 173
f 168 169 175
f 168 175 174
f 169 164 170
f 169 170 175
v -0.684490 1.200000 -1.794700
v -0.706467 1.248497 -1.812049
v -0.750422 1.248497 -1.846748
v -0.772399 1.200000 -1.864097
v -0.750422 1.151503 -1.846748
v -0.706467 1.151503 -1.812049
v -1.904573 1.200000 -0.249149
v -1.926550 1.248497 -0.266499
v -1.970505 1.248497 -0.301197
v -1.992482 1.200000 -0.318546
v -1.970505 1.151503 -0.301197
v -1.926550 1.151503 -0.266499
f 176 177 183
f 176 183 182
f 177 178 184
f 177 184 183
f 178 179 185
f 178 185 184
f 179 180 186
f 179 186 185
f 180 181 187
f 180 187 186
f 181 176 182
f 181 182 187
v -1.883494 2.719473 -0.309744
v -1.916011 2.780095 -0.296796
v -1.981045 2.780095 -0.270900
v -2.013561 2.719473 -0.257952
v -1.981045 2.658851 -0.270900
v -1.916011 2.658851 -0.296796
v -1.155049 2.719473 1.519655
v -1.187566 2.780095 1.532603
v -1.252600 2.780095 1.558498
v -1.285117 2.719473 1.571446
v -1.252600 2.658851 1.558498
v -1.187566 2.658851 1.532603
f 188 189 195
f 188 195 194
f 189 190 196
f 189 196 195
f 190 191 197
f 190 197 196
f 191 192 198
f 191 198 197
f 192 193 199
f 192 199 198
f 193 188 194
f 193 194 199
v -1.896500 1.200000 -0.304564
v -1.922514 1.248497 -0.294206
v -1.974541 1.248497 -0.273490
v -2.000555 1.200000 -0.263131
v -1.974541 1.151503 -0.273490
v -1.922514 1.151503 -0.294206
v -1.168056 1.200000 1.524834
v -1.194070 1.248497 1.535192
v -1.246097 1.248497 1.555909
v -1.272110 1.200000 1.566267
v -1.246097 1.151503 1.555909
v -1.194070 1.151503 1.535192
f 200 201 207
f 200 207 206
f 201 202 208
f 201 208 207
f 202 203 209
f 202 209 208
f 203 204 210
f 203 210 209
f 204 205 211
f 204 211 210
f 205 200 206
f 205 206 211
v 2.461367 2.719473 -0.000000
v 1.230683 2.719473 -2.131606
v -1.230683 2.719473 -2.131606
v -2.461367 2.719473 -0.000000
v -1.230683 2.719473 2.131606
v 1.230683 2.719473 2.131606
v 0.000000 4.557990 -0.000000
f 212 213 218
f 213 214 218
f 214 215 218
f 215 216 218
f 216 217 218
f 217 212 218
v 0.000000 4.557990 0.040000
v 0.034641 4.557990 0.020000
v 0.034641 4.557990 -0.020000
v 0.000000 4.557990 -0.040000
v -0.034641 4.557990 -0.020000
v -0.034641 4.557990 0.020000
v 0.000000 4.957990 0.040000
v 0.034641 4.957990 0.020000
v 0.034641 4.957990 -0.020000
v 0.000000 4.957990 -0.040000
v -0.034641 4.957990 -0.020000
v -0.034641 4.957990 0.020000
f 219 220 226
f 219 226 225
f 220 221 227
f 220 227 226
f 221 222 228
f 221 228 227
f 222 223 229
f 222 229 228
f 223 224 230
f 223 230 229
f 224 219 225
f 224 225 230
