o mesh
v 0.000000 0.000000 0.060000
v 0.043767 0.001235 0.043784
v 0.059976 0.001692 0.000000
v 0.043767 0.001235 -0.043784
v 0.000000 0.000000 -0.060000
v -0.043767 -0.001235 -0.043784
v -0.059976 -0.001692 -0.000000
v -0.043767 -0.001235 0.043784
v -0.066278 2.349242 0.040000
v -0.037100 2.350065 0.029190
v -0.026294 2.350370 0.000000
v -0.037100 2.350065 -0.029190
v -0.066278 2.349242 -0.040000
v -0.095456 2.348419 -0.029190
v -0.106262 2.348114 -0.000000
v -0.095456 2.348419 0.029190
f 1 2 10
f 1 10 9
f 2 3 11
f 2 11 10
f 3 4 12
f 3 12 11
f 4 5 13
f 4 13 12
f 5 6 14
f 5 14 13
f 6 7 15
f 6 15 14
f 7 8 16
f 7 16 15
f 8 1 9
f 8 9 16
v -0.066278 2.349242 -0.000000
v -0.057578 2.376382 -0.017207
v -0.047201 2.403521 -0.034266
v -0.036361 2.430661 -0.051286
v -0.025549 2.457800 -0.068308
v -0.015130 2.484939 -0.085364
v -0.005404 2.512079 -0.102481
v 0.003367 2.539218 -0.119681
v 0.010967 2.566358 -0.136984
v 0.017216 2.593497 -0.154405
v 0.021978 2.620637 -0.171956
v 0.025163 2.647776 -0.189645
v 0.026722 2.674915 -0.207476
v 0.026657 2.702055 -0.225449
v 0.025014 2.729194 -0.243560
v 0.021884 2.756334 -0.261802
v 0.017403 2.783473 -0.280161
v 0.011751 2.810612 -0.298623
v 0.005145 2.837752 -0.317168
v -0.002156 2.864891 -0.335774
v -0.009849 2.892031 -0.354414
v -0.017570 2.919170 -0.373057
v -0.024827 2.946310 -0.391659
v -0.030408 2.973449 -0.410115
v -0.039108 2.946310 -0.392909
v -0.049485 2.919170 -0.375849
v -0.060325 2.892031 -0.358829
v -0.071137 2.864891 -0.341807
v -0.081556 2.837752 -0.324751
v -0.091282 2.810612 -0.307634
v -0.100053 2.783473 -0.290434
v -0.107653 2.756334 -0.273131
v -0.113902 2.729194 -0.255710
v -0.118664 2.702055 -0.238159
v -0.121849 2.674915 -0.220470
v -0.123408 2.647776 -0.202639
v -0.123343 2.620637 -0.184666
v -0.121699 2.593497 -0.166555
v -0.118570 2.566358 -0.148313
v -0.114089 2.539218 -0.129954
v -0.108437 2.512079 -0.111492
v -0.101830 2.484939 -0.092947
v -0.094530 2.457800 -0.074341
v -0.086837 2.430661 -0.055701
v -0.079116 2.403521 -0.037058
v -0.071859 2.376382 -0.018456
f 17 18 19
f 17 19 18
f 17 19 20
f 17 20 19
f 17 20 21
f 17 21 20
f 17 21 22
f 17 22 21
f 17 22 23
f 17 23 22
f 17 23 24
f 17 24 23
f 17 24 25
f 17 25 24
f 17 25 26
f 17 26 25
f 17 26 27
f 17 27 26
f 17 27 28
f 17 28 27
f 17 28 29
f 17 29 28
f 17 29 30
f 17 30 29
f 17 30 31
f 17 31 30
f 17 31 32
f 17 32 31
f 17 32 33
f 17 33 32
f 17 33 34
f 17 34 33
f 17 34 35
f 17 35 34
f 17 35 36
f 17 36 35
f 17 36 37
f 17 37 36
f 17 37 38
f 17 38 37
f 17 38 39
f 17 39 38
f 17 39 40
f 17 40 39
f 17 40 41
f 17 41 40
f 17 41 42
f 17 42 41
f 17 42 43
f 17 43 42
f 17 43 44
f 17 44 43
f 17 44 45
f 17 45 44
f 17 45 46
f 17 46 45
f 17 46 47
f 17 47 46
f 17 47 48
f 17 48 47
f 17 48 49
f 17 49 48
f 17 49 50
f 17 50 49
f 17 50 51
f 17 51 50
f 17 51 52
f 17 52 51
f 17 52 53
f 17 53 52
f 17 53 54
f 17 54 53
f 17 54 55
f 17 55 54
f 17 55 56
f 17 56 55
f 17 56 57
f 17 57 56
f 17 57 58
f 17 58 57
f 17 58 59
f 17 59 58
f 17 59 60
f 17 60 59
f 17 60 61
f 17 61 60
f 17 61 62
f 17 62 61
v -0.066278 2.349242 -0.000000
v -0.048318 2.321583 0.022149
v -0.027208 2.293923 0.042386
v -0.004215 2.266263 0.061480
v 0.019905 2.238604 0.079890
v 0.044502 2.210944 0.098011
v 0.068972 2.183284 0.116209
v 0.092762 2.155625 0.134819
v 0.115376 2.127965 0.154144
v 0.136393 2.100305 0.174438
v 0.155481 2.072646 0.195902
v 0.172412 2.044986 0.218675
v 0.187070 2.017326 0.242827
v 0.199454 1.989667 0.268360
v 0.209681 1.962007 0.295201
v 0.217980 1.934347 0.323213
v 0.224682 1.906688 0.352194
v 0.230207 1.879028 0.381889
v 0.235052 1.851368 0.411997
v 0.239771 1.823709 0.442181
v 0.244966 1.796049 0.472077
v 0.251289 1.768389 0.501288
v 0.259494 1.740730 0.529357
v 0.270850 1.713070 0.555513
v 0.252891 1.740730 0.533364
v 0.231780 1.768389 0.513127
v 0.208788 1.796049 0.494033
v 0.184667 1.823709 0.475623
v 0.160071 1.851368 0.457502
v 0.135600 1.879028 0.439304
v 0.111810 1.906688 0.420693
v 0.089196 1.934347 0.401369
v 0.068180 1.962007 0.381075
v 0.049092 1.989667 0.359611
v 0.032160 2.017326 0.336838
v 0.017503 2.044986 0.312685
v 0.005118 2.072646 0.287153
v -0.005109 2.100305 0.260312
v -0.013408 2.127965 0.232300
v -0.020110 2.155625 0.203319
v -0.025635 2.183284 0.173624
v -0.030480 2.210944 0.143516
v -0.035199 2.238604 0.113332
v -0.040394 2.266263 0.083436
v -0.046717 2.293923 0.054225
v -0.054922 2.321583 0.026156
f 63 64 65
f 63 65 64
f 63 65 66
f 63 66 65
f 63 66 67
f 63 67 66
f 63 67 68
f 63 68 67
f 63 68 69
f 63 69 68
f 63 69 70
f 63 70 69
f 63 70 71
f 63 71 70
f 63 71 72
f 63 72 71
f 63 72 73
f 63 73 72
f 63 73 74
f 63 74 73
f 63 74 75
f 63 75 74
f 63 75 76
f 63 76 75
f 63 76 77
f 63 77 76
f 63 77 78
f 63 78 77
f 63 78 79
f 63 79 78
f 63 79 80
f 63 80 79
f 63 80 81
f 63 81 80
f 63 81 82
f 63 82 81
f 63 82 83
f 63 83 82
f 63 83 84
f 63 84 83
f 63 84 85
f 63 85 84
f 63 85 86
f 63 86 85
f 63 86 87
f 63 87 86
f 63 87 88
f 63 88 87
f 63 88 89
f 63 89 88
f 63 89 90
f 63 90 89
f 63 90 91
f 63 91 90
f 63 91 92
f 63 92 91
f 63 92 93
f 63 93 92
f 63 93 94
f 63 94 93
f 63 94 95
f 63 95 94
f 63 95 96
f 63 96 95
f 63 96 97
f 63 97 96
f 63 97 98
f 63 98 97
f 63 98 99
f 63 99 98
f 63 99 100
f 63 100 99
f 63 100 101
f 63 101 100
f 63 101 102
f 63 102 101
f 63 102 103
f 63 103 102
f 63 103 104
f 63 104 103
f 63 104 105
f 63 105 104
f 63 105 106
f 63 106 105
f 63 106 107
f 63 107 106
f 63 107 108
f 63 108 107
v -0.066278 2.349242 -0.000000
v -0.033820 2.319650 0.001562
v -0.000498 2.290058 0.000344
v 0.033136 2.260465 -0.001875
v 0.066850 2.230873 -0.004351
v 0.100471 2.201280 -0.006527
v 0.133854 2.171688 -0.007941
v 0.166876 2.142096 -0.008194
v 0.199432 2.112503 -0.006948
v 0.231435 2.082911 -0.003926
v 0.262820 2.053318 0.001083
v 0.293542 2.023726 0.008224
v 0.323578 1.994134 0.017569
v 0.352928 1.964541 0.029118
v 0.381616 1.934949 0.042798
v 0.409684 1.905356 0.058467
v 0.437201 1.875764 0.075911
v 0.464250 1.846172 0.094854
v 0.490939 1.816579 0.114958
v 0.517390 1.786987 0.135824
v 0.543749 1.757394 0.156989
v 0.570187 1.727802 0.177899
v 0.596936 1.698210 0.197807
v 0.624551 1.668617 0.214935
v 0.592094 1.698210 0.213373
v 0.558771 1.727802 0.214591
v 0.525137 1.757394 0.216810
v 0.491423 1.786987 0.219285
v 0.457803 1.816579 0.221462
v 0.424419 1.846172 0.222876
v 0.391397 1.875764 0.223129
v 0.358841 1.905356 0.221883
v 0.326838 1.934949 0.218861
v 0.295453 1.964541 0.213852
v 0.264731 1.994134 0.206710
v 0.234695 2.023726 0.197365
v 0.205345 2.053318 0.185817
v 0.176658 2.082911 0.172136
v 0.148589 2.112503 0.156468
v 0.121073 2.142096 0.139024
v 0.094023 2.171688 0.120081
v 0.067334 2.201280 0.099977
v 0.040883 2.230873 0.079111
v 0.014524 2.260465 0.057945
v -0.011913 2.290058 0.037036
v -0.038663 2.319650 0.017128
f 109 110 111
f 109 111 110
f 109 111 112
f 109 112 111
f 109 112 113
f 109 113 112
f 109 113 114
f 109 114 113
f 109 114 115
f 109 115 114
f 109 115 116
f 109 116 115
f 109 116 117
f 109 117 116
f 109 117 118
f 109 118 117
f 109 118 119
f 109 119 118
f 109 119 120
f 109 120 119
f 109 120 121
f 109 121 120
f 109 121 122
f 109 122 121
f 109 122 123
f 109 123 122
f 109 123 124
f 109 124 123
f 109 124 125
f 109 125 124
f 109 125 126
f 109 126 125
f 109 126 127
f 109 127 126
f 109 127 128
f 109 128 127
f 109 128 129
f 109 129 128
f 109 129 130
f 109 130 129
f 109 130 131
f 109 131 130
f 109 131 132
f 109 132 131
f 109 132 133
f 109 133 132
f 109 133 134
f 109 134 133
f 109 134 135
f 109 135 134
f 109 135 136
f 109 136 135
f 109 136 137
f 109 137 136
f 109 137 138
f 109 138 137
f 109 138 139
f 109 139 138
f 109 139 140
f 109 140 139
f 109 140 141
f 109 141 140
f 109 141 142
f 109 142 141
f 109 142 143
f 109 143 142
f 109 143 144
f 109 144 143
f 109 144 145
f 109 145 144
f 109 145 146
f 109 146 145
f 109 146 147
f 109 147 146
f 109 147 148
f 109 148 147
f 109 148 149
f 109 149 148
f 109 149 150
f 109 150 149
f 109 150 151
f 109 151 150
f 109 151 152
f 109 152 151
f 109 152 153
f 109 153 152
f 109 153 154
f 109 154 153
v -0.066278 2.349242 -0.000000
v -0.040477 2.372213 0.006609
v -0.014882 2.395184 0.016211
v 0.010612 2.418155 0.027250
v 0.036060 2.441126 0.038975
v 0.061500 2.464097 0.050799
v 0.086970 2.487068 0.062209
v 0.112498 2.510039 0.072757
v 0.138114 2.533010 0.082052
v 0.163838 2.555981 0.089771
v 0.189689 2.578952 0.095661
v 0.215678 2.601923 0.099554
v 0.241811 2.624894 0.101360
v 0.268088 2.647864 0.101081
v 0.294504 2.670835 0.098804
v 0.321045 2.693806 0.094699
v 0.347696 2.716777 0.089017
v 0.374434 2.739748 0.082083
v 0.401231 2.762719 0.074286
v 0.428056 2.785690 0.066076
v 0.454875 2.808661 0.057964
v 0.481647 2.831632 0.050538
v 0.508319 2.854603 0.044549
v 0.534784 2.877574 0.041554
v 0.508983 2.854603 0.034946
v 0.483388 2.831632 0.025343
v 0.457894 2.808661 0.014304
v 0.432446 2.785690 0.002579
v 0.407006 2.762719 -0.009244
v 0.381536 2.739748 -0.020655
v 0.356008 2.716777 -0.031203
v 0.330392 2.693806 -0.040498
v 0.304668 2.670835 -0.048216
v 0.278817 2.647864 -0.054107
v 0.252828 2.624894 -0.057999
v 0.226695 2.601923 -0.059806
v 0.200418 2.578952 -0.059527
v 0.174002 2.555981 -0.057250
v 0.147461 2.533010 -0.053145
v 0.120810 2.510039 -0.047463
v 0.094072 2.487068 -0.040529
v 0.067275 2.464097 -0.032732
v 0.040450 2.441126 -0.024522
v 0.013631 2.418155 -0.016410
v -0.013141 2.395184 -0.008984
v -0.039813 2.372213 -0.002995
f 155 156 157
f 155 157 156
f 155 157 158
f 155 158 157
f 155 158 159
f 155 159 158
f 155 159 160
f 155 160 159
f 155 160 161
f 155 161 160
f 155 161 162
f 155 162 161
f 155 162 163
f 155 163 162
f 155 163 164
f 155 164 163
f 155 164 165
f 155 165 164
f 155 165 166
f 155 166 165
f 155 166 167
f 155 167 166
f 155 167 168
f 155 168 167
f 155 168 169
f 155 169 168
f 155 169 170
f 155 170 169
f 155 170 171
f 155 171 170
f 155 171 172
f 155 172 171
f 155 172 173
f 155 173 172
f 155 173 174
f 155 174 173
f 155 174 175
f 155 175 174
f 155 175 176
f 155 176 175
f 155 176 177
f 155 177 176
f 155 177 178
f 155 178 177
f 155 178 179
f 155 179 178
f 155 179 180
f 155 180 179
f 155 180 181
f 155 181 180
f 155 181 182
f 155 182 181
f 155 182 183
f 155 183 182
f 155 183 184
f 155 184 183
f 155 184 185
f 155 185 184
f 155 185 186
f 155 186 185
f 155 186 187
f 155 187 186
f 155 187 188
f 155 188 187
f 155 188 189
f 155 189 188
f 155 189 190
f 155 190 189
f 155 190 191
f 155 191 190
f 155 191 192
f 155 192 191
f 155 192 193
f 155 193 192
f 155 193 194
f 155 194 193
f 155 194 195
f 155 195 194
f 155 195 196
f 155 196 195
f 155 196 197
f 155 197 196
f 155 197 198
f 155 198 197
f 155 198 199
f 155 199 198
f 155 199 200
f 155 200 199
v -0.066278 2.349242 -0.000000
v -0.052514 2.327771 -0.018876
v -0.039301 2.306299 -0.038560
v -0.026156 2.284828 -0.058344
v -0.012877 2.263356 -0.077933
v 0.000687 2.241884 -0.097102
v 0.014667 2.220413 -0.115660
v 0.029173 2.198941 -0.133446
v 0.044299 2.177470 -0.150321
v 0.060121 2.155998 -0.166173
v 0.076698 2.134527 -0.180917
v 0.094069 2.113055 -0.194494
v 0.112255 2.091583 -0.206876
v 0.131254 2.070112 -0.218063
v 0.151047 2.048640 -0.228082
v 0.171595 2.027169 -0.236994
v 0.192840 2.005697 -0.244882
v 0.214705 1.984226 -0.251860
v 0.237096 1.962754 -0.258065
v 0.259902 1.941282 -0.263660
v 0.282994 1.919811 -0.268835
v 0.306220 1.898339 -0.273814
v 0.329377 1.876868 -0.278894
v 0.351984 1.855396 -0.284782
v 0.338220 1.876868 -0.265906
v 0.325007 1.898339 -0.246222
v 0.311861 1.919811 -0.226437
v 0.298583 1.941282 -0.206849
v 0.285019 1.962754 -0.187680
v 0.271039 1.984226 -0.169121
v 0.256533 2.005697 -0.151336
v 0.241407 2.027169 -0.134460
v 0.225585 2.048640 -0.118608
v 0.209008 2.070112 -0.103865
v 0.191637 2.091583 -0.090287
v 0.173451 2.113055 -0.077905
v 0.154452 2.134527 -0.066719
v 0.134659 2.155998 -0.056699
v 0.114110 2.177470 -0.047788
v 0.092866 2.198941 -0.039899
v 0.071001 2.220413 -0.032922
v 0.048610 2.241884 -0.026717
v 0.025804 2.263356 -0.021121
v 0.002712 2.284828 -0.015947
v -0.020514 2.306299 -0.010967
v -0.043671 2.327771 -0.005888
f 201 202 203
f 201 203 202
f 201 203 204
f 201 204 203
f 201 204 205
f 201 205 204
f 201 205 206
f 201 206 205
f 201 206 207
f 201 207 206
f 201 207 208
f 201 208 207
f 201 208 209
f 201 209 208
f 201 209 210
f 201 210 209
f 201 210 211
f 201 211 210
f 201 211 212
f 201 212 211
f 201 212 213
f 201 213 212
f 201 213 214
f 201 214 213
f 201 214 215
f 201 215 214
f 201 215 216
f 201 216 215
f 201 216 217
f 201 217 216
f 201 217 218
f 201 218 217
f 201 218 219
f 201 219 218
f 201 219 220
f 201 220 219
f 201 220 221
f 201 221 220
f 201 221 222
f 201 222 221
f 201 222 223
f 201 223 222
f 201 223 224
f 201 224 223
f 201 224 225
f 201 225 224
f 201 225 226
f 201 226 225
f 201 226 227
f 201 227 226
f 201 227 228
f 201 228 227
f 201 228 229
f 201 229 228
f 201 229 230
f 201 230 229
f 201 230 231
f 201 231 230
f 201 231 232
f 201 232 231
f 201 232 233
f 201 233 232
f 201 233 234
f 201 234 233
f 201 234 235
f 201 235 234
f 201 235 236
f 201 236 235
f 201 236 237
f 201 237 236
f 201 237 238
f 201 238 237
f 201 238 239
f 201 239 238
f 201 239 240
f 201 240 239
f 201 240 241
f 201 241 240
f 201 241 242
f 201 242 241
f 201 242 243
f 201 243 242
f 201 243 244
f 201 244 243
f 201 244 245
f 201 245 244
f 201 245 246
f 201 246 245
v -0.066278 2.349242 -0.000000
v -0.063377 2.336062 -0.034725
v -0.063790 2.322883 -0.070139
v -0.066006 2.309703 -0.105928
v -0.069217 2.296523 -0.141924
v -0.072755 2.283343 -0.177987
v -0.076021 2.270163 -0.213994
v -0.078477 2.256983 -0.249833
v -0.079647 2.243803 -0.285405
v -0.079132 2.230623 -0.320626
v -0.076622 2.217443 -0.355432
v -0.071901 2.204263 -0.389779
v -0.064861 2.191084 -0.423644
v -0.055503 2.177904 -0.457026
v -0.043934 2.164724 -0.489950
v -0.030369 2.151544 -0.522458
v -0.015120 2.138364 -0.554616
v 0.001415 2.125184 -0.586507
v 0.018761 2.112004 -0.618230
v 0.036378 2.098824 -0.649896
v 0.053668 2.085644 -0.681630
v 0.069964 2.072465 -0.713570
v 0.084455 2.059285 -0.745886
v 0.095635 2.046105 -0.778891
v 0.092734 2.059285 -0.744165
v 0.093147 2.072465 -0.708751
v 0.095363 2.085644 -0.672962
v 0.098574 2.098824 -0.636967
v 0.102112 2.112004 -0.600903
v 0.105378 2.125184 -0.564896
v 0.107834 2.138364 -0.529057
v 0.109004 2.151544 -0.493486
v 0.108489 2.164724 -0.458265
v 0.105979 2.177904 -0.423458
v 0.101258 2.191084 -0.389112
v 0.094218 2.204263 -0.355247
v 0.084860 2.217443 -0.321864
v 0.073291 2.230623 -0.288941
v 0.059726 2.243803 -0.256432
v 0.044477 2.256983 -0.224274
v 0.027942 2.270163 -0.192383
v 0.010596 2.283343 -0.160661
v -0.007021 2.296523 -0.128995
v -0.024311 2.309703 -0.097261
v -0.040607 2.322883 -0.065320
v -0.055099 2.336062 -0.033004
f 247 248 249
f 247 249 248
f 247 249 250
f 247 250 249
f 247 250 251
f 247 251 250
f 247 251 252
f 247 252 251
f 247 252 253
f 247 253 252
f 247 253 254
f 247 254 253
f 247 254 255
f 247 255 254
f 247 255 256
f 247 256 255
f 247 256 257
f 247 257 256
f 247 257 258
f 247 258 257
f 247 258 259
f 247 259 258
f 247 259 260
f 247 260 259
f 247 260 261
f 247 261 260
f 247 261 262
f 247 262 261
f 247 262 263
f 247 263 262
f 247 263 264
f 247 264 263
f 247 264 265
f 247 265 264
f 247 265 266
f 247 266 265
f 247 266 267
f 247 267 266
f 247 267 268
f 247 268 267
f 247 268 269
f 247 269 268
f 247 269 270
f 247 270 269
f 247 270 271
f 247 271 270
f 247 271 272
f 247 272 271
f 247 272 273
f 247 273 272
f 247 273 274
f 247 274 273
f 247 274 275
f 247 275 274
f 247 275 276
f 247 276 275
f 247 276 277
f 247 277 276
f 247 277 278
f 247 278 277
f 247 278 279
f 247 279 278
f 247 279 280
f 247 280 279
f 247 280 281
f 247 281 280
f 247 281 282
f 247 282 281
f 247 282 283
f 247 283 282
f 247 283 284
f 247 284 283
f 247 284 285
f 247 285 284
f 247 285 286
f 247 286 285
f 247 286 287
f 247 287 286
f 247 287 288
f 247 288 287
f 247 288 289
f 247 289 288
f 247 289 290
f 247 290 289
f 247 290 291
f 247 291 290
f 247 291 292
f 247 292 291
v -0.066278 2.349242 -0.000000
v -0.078066 2.378730 0.017878
v -0.091399 2.408218 0.035469
v -0.105085 2.437706 0.052993
v -0.118645 2.467194 0.070542
v -0.131718 2.496681 0.088181
v -0.144005 2.526169 0.105966
v -0.155250 2.555657 0.123946
v -0.165237 2.585145 0.142160
v -0.173790 2.614633 0.160642
v -0.180773 2.644121 0.179417
v -0.186097 2.673608 0.198501
v -0.189716 2.703096 0.217903
v -0.191629 2.732584 0.237624
v -0.191883 2.762072 0.257653
v -0.190568 2.791560 0.277976
v -0.187818 2.821047 0.298566
v -0.183810 2.850535 0.319390
v -0.178760 2.880023 0.340409
v -0.172925 2.909511 0.361575
v -0.166603 2.938999 0.382831
v -0.160154 2.968487 0.404111
v -0.154059 2.997974 0.425325
v -0.149507 3.027462 0.446251
v -0.137719 2.997974 0.428372
v -0.124386 2.968487 0.410782
v -0.110700 2.938999 0.393258
v -0.097140 2.909511 0.375709
v -0.084067 2.880023 0.358070
v -0.071780 2.850535 0.340285
v -0.060535 2.821047 0.322305
v -0.050548 2.791560 0.304091
v -0.041995 2.762072 0.285609
v -0.035012 2.732584 0.266834
v -0.029688 2.703096 0.247750
v -0.026069 2.673608 0.228348
v -0.024156 2.644121 0.208627
v -0.023902 2.614633 0.188598
v -0.025217 2.585145 0.168275
v -0.027967 2.555657 0.147685
v -0.031975 2.526169 0.126861
v -0.037025 2.496681 0.105842
v -0.042860 2.467194 0.084676
v -0.049182 2.437706 0.063420
v -0.055631 2.408218 0.042140
v -0.061726 2.378730 0.020926
f 293 294 295
f 293 295 294
f 293 295 296
f 293 296 295
f 293 296 297
f 293 297 296
f 293 297 298
f 293 298 297
f 293 298 299
f 293 299 298
f 293 299 300
f 293 300 299
f 293 300 301
f 293 301 300
f 293 301 302
f 293 302 301
f 293 302 303
f 293 303 302
f 293 303 304
f 293 304 303
f 293 304 305
f 293 305 304
f 293 305 306
f 293 306 305
f 293 306 307
f 293 307 306
f 293 307 308
f 293 308 307
f 293 308 309
f 293 309 308
f 293 309 310
f 293 310 309
f 293 310 311
f 293 311 310
f 293 311 312
f 293 312 311
f 293 312 313
f 293 313 312
f 293 313 314
f 293 314 313
f 293 314 315
f 293 315 314
f 293 315 316
f 293 316 315
f 293 316 317
f 293 317 316
f 293 317 318
f 293 318 317
f 293 318 319
f 293 319 318
f 293 319 320
f 293 320 319
f 293 320 321
f 293 321 320
f 293 321 322
f 293 322 321
f 293 322 323
f 293 323 322
f 293 323 324
f 293 324 323
f 293 324 325
f 293 325 324
f 293 325 326
f 293 326 325
f 293 326 327
f 293 327 326
f 293 327 328
f 293 328 327
f 293 328 329
f 293 329 328
f 293 329 330
f 293 330 329
f 293 330 331
f 293 331 330
f 293 331 332
f 293 332 331
f 293 332 333
f 293 333 332
f 293 333 334
f 293 334 333
f 293 334 335
f 293 335 334
f 293 335 336
f 293 336 335
f 293 336 337
f 293 337 336
f 293 337 338
f 293 338 337
v -0.066278 2.349242 -0.000000
v -0.081762 2.325331 -0.009700
v -0.099103 2.301420 -0.017424
v -0.117435 2.277509 -0.024092
v -0.136301 2.253598 -0.030192
v -0.155330 2.229687 -0.036118
v -0.174189 2.205776 -0.042224
v -0.192582 2.181865 -0.048828
v -0.210247 2.157954 -0.056207
v -0.226964 2.134043 -0.064595
v -0.242563 2.110132 -0.074173
v -0.256927 2.086221 -0.085067
v -0.269995 2.062310 -0.097340
v -0.281769 2.038399 -0.110992
v -0.292308 2.014488 -0.125959
v -0.301729 1.990577 -0.142116
v -0.310202 1.966666 -0.159283
v -0.317947 1.942755 -0.177224
v -0.325226 1.918844 -0.195663
v -0.332335 1.894933 -0.214283
v -0.339606 1.871022 -0.232729
v -0.347413 1.847111 -0.250606
v -0.356209 1.823200 -0.267428
v -0.366862 1.799289 -0.282273
v -0.351378 1.823200 -0.272573
v -0.334037 1.847111 -0.264849
v -0.315705 1.871022 -0.258181
v -0.296839 1.894933 -0.252081
v -0.277810 1.918844 -0.246155
v -0.258951 1.942755 -0.240049
v -0.240558 1.966666 -0.233445
v -0.222894 1.990577 -0.226066
v -0.206176 2.014488 -0.217678
v -0.190577 2.038399 -0.208100
v -0.176214 2.062310 -0.197206
v -0.163145 2.086221 -0.184933
v -0.151371 2.110132 -0.171281
v -0.140832 2.134043 -0.156314
v -0.131411 2.157954 -0.140157
v -0.122938 2.181865 -0.122990
v -0.115193 2.205776 -0.105048
v -0.107914 2.229687 -0.086609
v -0.100805 2.253598 -0.067990
v -0.093534 2.277509 -0.049544
v -0.085728 2.301420 -0.031667
v -0.076931 2.325331 -0.014845
f 339 340 341
f 339 341 340
f 339 341 342
f 339 342 341
f 339 342 343
f 339 343 342
f 339 343 344
f 339 344 343
f 339 344 345
f 339 345 344
f 339 345 346
f 339 346 345
f 339 346 347
f 339 347 346
f 339 347 348
f 339 348 347
f 339 348 349
f 339 349 348
f 339 349 350
f 339 350 349
f 339 350 351
f 339 351 350
f 339 351 352
f 339 352 351
f 339 352 353
f 339 353 352
f 339 353 354
f 339 354 353
f 339 354 355
f 339 355 354
f 339 355 356
f 339 356 355
f 339 356 357
f 339 357 356
f 339 357 358
f 339 358 357
f 339 358 359
f 339 359 358
f 339 359 360
f 339 360 359
f 339 360 361
f 339 361 360
f 339 361 362
f 339 362 361
f 339 362 363
f 339 363 362
f 339 363 364
f 339 364 363
f 339 364 365
f 339 365 364
f 339 365 366
f 339 366 365
f 339 366 367
f 339 367 366
f 339 367 368
f 339 368 367
f 339 368 369
f 339 369 368
f 339 369 370
f 339 370 369
f 339 370 371
f 339 371 370
f 339 371 372
f 339 372 371
f 339 372 373
f 339 373 372
f 339 373 374
f 339 374 373
f 339 374 375
f 339 375 374
f 339 375 376
f 339 376 375
f 339 376 377
f 339 377 376
f 339 377 378
f 339 378 377
f 339 378 379
f 339 379 378
f 339 379 380
f 339 380 379
f 339 380 381
f 339 381 380
f 339 381 382
f 339 382 381
f 339 382 383
f 339 383 382
f 339 383 384
f 339 384 383
v -0.066278 2.349242 -0.000000
v -0.100231 2.330094 0.002291
v -0.134352 2.310945 0.008197
v -0.168572 2.291796 0.016239
v -0.202852 2.272647 0.025549
v -0.237156 2.253498 0.035383
v -0.271452 2.234350 0.045055
v -0.305712 2.215201 0.053935
v -0.339908 2.196052 0.061460
v -0.374019 2.176903 0.067155
v -0.408028 2.157755 0.070644
v -0.441922 2.138606 0.071669
v -0.475696 2.119457 0.070099
v -0.509349 2.100308 0.065933
v -0.542887 2.081160 0.059303
v -0.576323 2.062011 0.050467
v -0.609673 2.042862 0.039800
v -0.642961 2.023713 0.027780
v -0.676212 2.004564 0.014967
v -0.709455 1.985416 0.001992
v -0.742722 1.966267 -0.010460
v -0.776049 1.947118 -0.021642
v -0.809475 1.927969 -0.030689
v -0.843069 1.908821 -0.036121
v -0.809116 1.927969 -0.038413
v -0.774994 1.947118 -0.044319
v -0.740774 1.966267 -0.052360
v -0.706494 1.985416 -0.061670
v -0.672191 2.004564 -0.071504
v -0.637894 2.023713 -0.081176
v -0.603635 2.042862 -0.090056
v -0.569438 2.062011 -0.097582
v -0.535327 2.081160 -0.103276
v -0.501318 2.100308 -0.106766
v -0.467424 2.119457 -0.107791
v -0.433650 2.138606 -0.106220
v -0.399998 2.157755 -0.102054
v -0.366459 2.176903 -0.095424
v -0.333024 2.196052 -0.086588
v -0.299673 2.215201 -0.075922
v -0.266386 2.234350 -0.063901
v -0.233135 2.253498 -0.051088
v -0.199892 2.272647 -0.038113
v -0.166624 2.291796 -0.025662
v -0.133297 2.310945 -0.014479
v -0.099872 2.330094 -0.005432
f 385 386 387
f 385 387 386
f 385 387 388
f 385 388 387
f 385 388 389
f 385 389 388
f 385 389 390
f 385 390 389
f 385 390 391
f 385 391 390
f 385 391 392
f 385 392 391
f 385 392 393
f 385 393 392
f 385 393 394
f 385 394 393
f 385 394 395
f 385 395 394
f 385 395 396
f 385 396 395
f 385 396 397
f 385 397 396
f 385 397 398
f 385 398 397
f 385 398 399
f 385 399 398
f 385 399 400
f 385 400 399
f 385 400 401
f 385 401 400
f 385 401 402
f 385 402 401
f 385 402 403
f 385 403 402
f 385 403 404
f 385 404 403
f 385 404 405
f 385 405 404
f 385 405 406
f 385 406 405
f 385 406 407
f 385 407 406
f 385 407 408
f 385 408 407
f 385 408 409
f 385 409 408
f 385 409 410
f 385 410 409
f 385 410 411
f 385 411 410
f 385 411 412
f 385 412 411
f 385 412 413
f 385 413 412
f 385 413 414
f 385 414 413
f 385 414 415
f 385 415 414
f 385 415 416
f 385 416 415
f 385 416 417
f 385 417 416
f 385 417 418
f 385 418 417
f 385 418 419
f 385 419 418
f 385 419 420
f 385 420 419
f 385 420 421
f 385 421 420
f 385 421 422
f 385 422 421
f 385 422 423
f 385 423 422
f 385 423 424
f 385 424 423
f 385 424 425
f 385 425 424
f 385 425 426
f 385 426 425
f 385 426 427
f 385 427 426
f 385 427 428
f 385 428 427
f 385 428 429
f 385 429 428
f 385 429 430
f 385 430 429
v -0.066278 2.349242 -0.000000
v -0.081145 2.377855 -0.015398
v -0.094823 2.406468 -0.032974
v -0.108051 2.435080 -0.051371
v -0.121145 2.463693 -0.070014
v -0.134341 2.492306 -0.088471
v -0.147835 2.520918 -0.106382
v -0.161798 2.549531 -0.123436
v -0.176374 2.578144 -0.139368
v -0.191681 2.606756 -0.153961
v -0.207811 2.635369 -0.167050
v -0.224824 2.663982 -0.178522
v -0.242752 2.692594 -0.188320
v -0.261595 2.721207 -0.196443
v -0.281322 2.749820 -0.202949
v -0.301871 2.778432 -0.207951
v -0.323151 2.807045 -0.211614
v -0.345045 2.835658 -0.214156
v -0.367407 2.864270 -0.215840
v -0.390068 2.892883 -0.216978
v -0.412830 2.921496 -0.217931
v -0.435457 2.950108 -0.219128
v -0.457636 2.978721 -0.221148
v -0.478625 3.007334 -0.225345
v -0.463757 2.978721 -0.209947
v -0.450080 2.950108 -0.192371
v -0.436852 2.921496 -0.173974
v -0.423757 2.892883 -0.155331
v -0.410562 2.864270 -0.136874
v -0.397067 2.835658 -0.118963
v -0.383105 2.807045 -0.101909
v -0.368529 2.778432 -0.085977
v -0.353222 2.749820 -0.071384
v -0.337092 2.721207 -0.058295
v -0.320079 2.692594 -0.046823
v -0.302151 2.663982 -0.037025
v -0.283308 2.635369 -0.028902
v -0.263581 2.606756 -0.022396
v -0.243032 2.578144 -0.017394
v -0.221751 2.549531 -0.013731
v -0.199858 2.520918 -0.011189
v -0.177496 2.492306 -0.009505
v -0.154835 2.463693 -0.008367
v -0.132073 2.435080 -0.007414
v -0.109445 2.406468 -0.006217
v -0.087266 2.377855 -0.004197
f 431 432 433
f 431 433 432
f 431 433 434
f 431 434 433
f 431 434 435
f 431 435 434
f 431 435 436
f 431 436 435
f 431 436 437
f 431 437 436
f 431 437 438
f 431 438 437
f 431 438 439
f 431 439 438
f 431 439 440
f 431 440 439
f 431 440 441
f 431 441 440
f 431 441 442
f 431 442 441
f 431 442 443
f 431 443 442
f 431 443 444
f 431 444 443
f 431 444 445
f 431 445 444
f 431 445 446
f 431 446 445
f 431 446 447
f 431 447 446
f 431 447 448
f 431 448 447
f 431 448 449
f 431 449 448
f 431 449 450
f 431 450 449
f 431 450 451
f 431 451 450
f 431 451 452
f 431 452 451
f 431 452 453
f 431 453 452
f 431 453 454
f 431 454 453
f 431 454 455
f 431 455 454
f 431 455 456
f 431 456 455
f 431 456 457
f 431 457 456
f 431 457 458
f 431 458 457
f 431 458 459
f 431 459 458
f 431 459 460
f 431 460 459
f 431 460 461
f 431 461 460
f 431 461 462
f 431 462 461
f 431 462 463
f 431 463 462
f 431 463 464
f 431 464 463
f 431 464 465
f 431 465 464
f 431 465 466
f 431 466 465
f 431 466 467
f 431 467 466
f 431 467 468
f 431 468 467
f 431 468 469
f 431 469 468
f 431 469 470
f 431 470 469
f 431 470 471
f 431 471 470
f 431 471 472
f 431 472 471
f 431 472 473
f 431 473 472
f 431 473 474
f 431 474 473
f 431 474 475
f 431 475 474
f 431 475 476
f 431 476 475
v -0.066278 2.349242 -0.000000
v -0.074077 2.322568 0.025064
v -0.079603 2.295894 0.051531
v -0.084247 2.269221 0.078542
v -0.088607 2.242547 0.105729
v -0.093131 2.215873 0.132814
v -0.098193 2.189199 0.159567
v -0.104120 2.162525 0.185787
v -0.111187 2.135851 0.211303
v -0.119621 2.109177 0.235976
v -0.129595 2.082503 0.259698
v -0.141228 2.055829 0.282397
v -0.154580 2.029155 0.304035
v -0.169649 2.002481 0.324613
v -0.186378 1.975807 0.344168
v -0.204647 1.949133 0.362772
v -0.224283 1.922459 0.380533
v -0.245059 1.895785 0.397591
v -0.266699 1.869112 0.414115
v -0.288878 1.842438 0.430306
v -0.311221 1.815764 0.446397
v -0.333280 1.789090 0.462663
v -0.354457 1.762416 0.479473
v -0.373360 1.735742 0.497686
v -0.365561 1.762416 0.472622
v -0.360035 1.789090 0.446155
v -0.355391 1.815764 0.419144
v -0.351030 1.842438 0.391957
v -0.346507 1.869112 0.364872
v -0.341444 1.895785 0.338119
v -0.335518 1.922459 0.311899
v -0.328451 1.949133 0.286383
v -0.320017 1.975807 0.261710
v -0.310043 2.002481 0.237988
v -0.298410 2.029155 0.215289
v -0.285058 2.055829 0.193651
v -0.269988 2.082503 0.173072
v -0.253260 2.109177 0.153517
v -0.234991 2.135851 0.134913
v -0.215355 2.162525 0.117153
v -0.194579 2.189199 0.100095
v -0.172939 2.215873 0.083571
v -0.150759 2.242547 0.067379
v -0.128417 2.269221 0.051289
v -0.106358 2.295894 0.035023
v -0.085181 2.322568 0.018213
f 477 478 479
f 477 479 478
f 477 479 480
f 477 480 479
f 477 480 481
f 477 481 480
f 477 481 482
f 477 482 481
f 477 482 483
f 477 483 482
f 477 483 484
f 477 484 483
f 477 484 485
f 477 485 484
f 477 485 486
f 477 486 485
f 477 486 487
f 477 487 486
f 477 487 488
f 477 488 487
f 477 488 489
f 477 489 488
f 477 489 490
f 477 490 489
f 477 490 491
f 477 491 490
f 477 491 492
f 477 492 491
f 477 492 493
f 477 493 492
f 477 493 494
f 477 494 493
f 477 494 495
f 477 495 494
f 477 495 496
f 477 496 495
f 477 496 497
f 477 497 496
f 477 497 498
f 477 498 497
f 477 498 499
f 477 499 498
f 477 499 500
f 477 500 499
f 477 500 501
f 477 501 500
f 477 501 502
f 477 502 501
f 477 502 503
f 477 503 502
f 477 503 504
f 477 504 503
f 477 504 505
f 477 505 504
f 477 505 506
f 477 506 505
f 477 506 507
f 477 507 506
f 477 507 508
f 477 508 507
f 477 508 509
f 477 509 508
f 477 509 510
f 477 510 509
f 477 510 511
f 477 511 510
f 477 511 512
f 477 512 511
f 477 512 513
f 477 513 512
f 477 513 514
f 477 514 513
f 477 514 515
f 477 515 514
f 477 515 516
f 477 516 515
f 477 516 517
f 477 517 516
f 477 517 518
f 477 518 517
f 477 518 519
f 477 519 518
f 477 519 520
f 477 520 519
f 477 520 521
f 477 521 520
f 477 521 522
f 477 522 521
