o mesh
v -2.237233 0.450000 0.245246
v -2.262233 0.461829 0.223222
v -2.287233 0.450000 0.245246
v -2.262233 0.438171 0.267271
v -2.244233 0.882964 0.477788
v -2.262233 0.891481 0.461931
v -2.280233 0.882964 0.477788
v -2.262233 0.874447 0.493646
f 1 2 6
f 1 6 5
f 2 3 7
f 2 7 6
f 3 4 8
f 3 8 7
f 4 1 5
f 4 5 8
v -2.262233 0.875578 0.501672
v -2.237233 0.882964 0.477788
v -2.262233 0.890350 0.453904
v -2.287233 0.882964 0.477788
v -2.262233 1.544583 0.701239
v -2.244233 1.549901 0.684043
v -2.262233 1.555219 0.666846
v -2.280233 1.549901 0.684043
f 9 10 14
f 9 14 13
f 10 11 15
f 10 15 14
f 11 12 16
f 11 16 15
f 12 9 13
f 12 13 16
v -2.262233 1.584901 0.684043
v -2.262233 1.584901 0.684043
v -2.262233 1.584901 0.684043
v -2.262233 1.584901 0.684043
v -2.262233 1.584901 0.684043
v -2.262233 1.584901 0.684043
v -2.201611 1.567401 0.684043
v -2.231922 1.567401 0.631543
v -2.292544 1.567401 0.631543
v -2.322855 1.567401 0.684043
v -2.292544 1.567401 0.736543
v -2.231922 1.567401 0.736543
v -2.201611 1.532401 0.684043
v -2.231922 1.532401 0.631543
v -2.292544 1.532401 0.631543
v -2.322855 1.532401 0.684043
v -2.292544 1.532401 0.736543
v -2.231922 1.532401 0.736543
v -2.262233 1.514901 0.684043
v -2.262233 1.514901 0.684043
v -2.262233 1.514901 0.684043
v -2.262233 1.514901 0.684043
v -2.262233 1.514901 0.684043
v -2.262233 1.514901 0.684043
f 17 24 18
f 17 23 24
f 18 25 19
f 18 24 25
f 19 26 20
f 19 25 26
f 20 27 21
f 20 26 27
f 21 28 22
f 21 27 28
f 22 23 17
f 22 28 23
f 23 30 24
f 23 29 30
f 24 31 25
f 24 30 31
f 25 32 26
f 25 31 32
f 26 33 27
f 26 32 33
f 27 34 28
f 27 33 34
f 28 29 23
f 28 34 29
f 29 36 30
f 29 35 36
f 30 37 31
f 30 36 37
f 31 38 32
f 31 37 38
f 32 39 33
f 32 38 39
f 33 40 34
f 33 39 40
f 34 35 29
f 34 40 35
v -2.237233 1.549901 0.684043
v -2.262233 1.562363 0.662370
v -2.287233 1.549901 0.684043
v -2.262233 1.537440 0.705716
v -2.244233 1.922199 0.898101
v -2.262233 1.931171 0.882496
v -2.280233 1.922199 0.898101
v -2.262233 1.913227 0.913705
f 41 42 46
f 41 46 45
f 42 43 47
f 42 47 46
f 43 44 48
f 43 48 47
f 44 41 45
f 44 45 48
v -2.262233 1.957199 0.898101
v -2.262233 1.957199 0.898101
v -2.262233 1.957199 0.898101
v -2.262233 1.957199 0.898101
v -2.262233 1.957199 0.898101
v -2.262233 1.957199 0.898101
v -2.201611 1.939699 0.898101
v -2.231922 1.939699 0.845601
v -2.292544 1.939699 0.845601
v -2.322855 1.939699 0.898101
v -2.292544 1.939699 0.950601
v -2.231922 1.939699 0.950601
v -2.201611 1.904699 0.898101
v -2.231922 1.904699 0.845601
v -2.292544 1.904699 0.845601
v -2.322855 1.904699 0.898101
v -2.292544 1.904699 0.950601
v -2.231922 1.904699 0.950601
v -2.262233 1.887199 0.898101
v -2.262233 1.887199 0.898101
v -2.262233 1.887199 0.898101
v -2.262233 1.887199 0.898101
v -2.262233 1.887199 0.898101
v -2.262233 1.887199 0.898101
f 49 56 50
f 49 55 56
f 50 57 51
f 50 56 57
f 51 58 52
f 51 57 58
f 52 59 53
f 52 58 59
f 53 60 54
f 53 59 60
f 54 55 49
f 54 60 55
f 55 62 56
f 55 61 62
f 56 63 57
f 56 62 63
f 57 64 58
f 57 63 64
f 58 65 59
f 58 64 65
f 59 66 60
f 59 65 66
f 60 61 55
f 60 66 61
f 61 68 62
f 61 67 68
f 62 69 63
f 62 68 69
f 63 70 64
f 63 69 70
f 64 71 65
f 64 70 71
f 65 72 66
f 65 71 72
f 66 67 61
f 66 72 67
v -2.262233 1.930370 0.921728
v -2.237233 1.922199 0.898101
v -2.262233 1.914029 0.874473
v -2.287233 1.922199 0.898101
v -2.262233 2.545058 0.701755
v -2.244233 2.539175 0.684743
v -2.262233 2.533293 0.667732
v -2.280233 2.539175 0.684743
f 73 74 78
f 73 78 77
f 74 75 79
f 74 79 78
f 75 76 80
f 75 80 79
f 76 73 77
f 76 77 80
v -2.262233 2.535373 0.709452
v -2.237233 2.539175 0.684743
v -2.262233 2.542978 0.660034
v -2.287233 2.539175 0.684743
v -2.262233 3.056563 0.782579
v -2.244233 3.059301 0.764788
v -2.262233 3.062039 0.746998
v -2.280233 3.059301 0.764788
f 81 82 86
f 81 86 85
f 82 83 87
f 82 87 86
f 83 84 88
f 83 88 87
f 84 81 85
f 84 85 88
v -2.262233 3.094301 0.764788
v -2.262233 3.094301 0.764788
v -2.262233 3.094301 0.764788
v -2.262233 3.094301 0.764788
v -2.262233 3.094301 0.764788
v -2.262233 3.094301 0.764788
v -2.201611 3.076801 0.764788
v -2.231922 3.076801 0.712288
v -2.292544 3.076801 0.712288
v -2.322855 3.076801 0.764788
v -2.292544 3.076801 0.817288
v -2.231922 3.076801 0.817288
v -2.201611 3.041801 0.764788
v -2.231922 3.041801 0.712288
v -2.292544 3.041801 0.712288
v -2.322855 3.041801 0.764788
v -2.292544 3.041801 0.817288
v -2.231922 3.041801 0.817288
v -2.262233 3.024301 0.764788
v -2.262233 3.024301 0.764788
v -2.262233 3.024301 0.764788
v -2.262233 3.024301 0.764788
v -2.262233 3.024301 0.764788
v -2.262233 3.024301 0.764788
f 89 96 90
f 89 95 96
f 90 97 91
f 90 96 97
f 91 98 92
f 91 97 98
f 92 99 93
f 92 98 99
f 93 100 94
f 93 99 100
f 94 95 89
f 94 100 95
f 95 102 96
f 95 101 102
f 96 103 97
f 96 102 103
f 97 104 98
f 97 103 104
f 98 105 99
f 98 104 105
f 99 106 100
f 99 105 106
f 100 101 95
f 100 106 101
f 101 108 102
f 101 107 108
f 102 109 103
f 102 108 109
f 103 110 104
f 103 109 110
f 104 111 105
f 104 110 111
f 105 112 106
f 105 111 112
f 106 107 101
f 106 112 107
v -2.262233 3.057433 0.789719
v -2.237233 3.059301 0.764788
v -2.262233 3.061169 0.739858
v -2.287233 3.059301 0.764788
v -2.262233 3.414028 0.809415
v -2.244233 3.415373 0.791465
v -2.262233 3.416718 0.773515
v -2.280233 3.415373 0.791465
f 113 114 118
f 113 118 117
f 114 115 119
f 114 119 118
f 115 116 120
f 115 120 119
f 116 113 117
f 116 117 120
v -2.262233 3.450373 0.791465
v -2.262233 3.450373 0.791465
v -2.262233 3.450373 0.791465
v -2.262233 3.450373 0.791465
v -2.262233 3.450373 0.791465
v -2.262233 3.450373 0.791465
v -2.201611 3.432873 0.791465
v -2.231922 3.432873 0.738965
v -2.292544 3.432873 0.738965
v -2.322855 3.432873 0.791465
v -2.292544 3.432873 0.843965
v -2.231922 3.432873 0.843965
v -2.201611 3.397873 0.791465
v -2.231922 3.397873 0.738965
v -2.292544 3.397873 0.738965
v -2.322855 3.397873 0.791465
v -2.292544 3.397873 0.843965
v -2.231922 3.397873 0.843965
v -2.262233 3.380373 0.791465
v -2.262233 3.380373 0.791465
v -2.262233 3.380373 0.791465
v -2.262233 3.380373 0.791465
v -2.262233 3.380373 0.791465
v -2.262233 3.380373 0.791465
f 121 128 122
f 121 127 128
f 122 129 123
f 122 128 129
f 123 130 124
f 123 129 130
f 124 131 125
f 124 130 131
f 125 132 126
f 125 131 132
f 126 127 121
f 126 132 127
f 127 134 128
f 127 133 134
f 128 135 129
f 128 134 135
f 129 136 130
f 129 135 136
f 130 137 131
f 130 136 137
f 131 138 132
f 131 137 138
f 132 133 127
f 132 138 133
f 133 140 134
f 133 139 140
f 134 141 135
f 134 140 141
f 135 142 136
f 135 141 142
f 136 143 137
f 136 142 143
f 137 144 138
f 137 143 144
f 138 139 133
f 138 144 139
v 2.287233 0.450000 1.022063
v 2.262233 0.462048 1.000158
v 2.237233 0.450000 1.022063
v 2.262233 0.437952 1.043968
v 2.280233 0.865289 1.250480
v 2.262233 0.873964 1.234709
v 2.244233 0.865289 1.250480
v 2.262233 0.856614 1.266252
f 145 146 150
f 145 150 149
f 146 147 151
f 146 151 150
f 147 148 152
f 147 152 151
f 148 145 149
f 148 149 152
v 2.262233 0.900289 1.250480
v 2.262233 0.900289 1.250480
v 2.262233 0.900289 1.250480
v 2.262233 0.900289 1.250480
v 2.262233 0.900289 1.250480
v 2.262233 0.900289 1.250480
v 2.322855 0.882789 1.250480
v 2.292544 0.882789 1.197980
v 2.231922 0.882789 1.197980
v 2.201611 0.882789 1.250480
v 2.231922 0.882789 1.302980
v 2.292544 0.882789 1.302980
v 2.322855 0.847789 1.250480
v 2.292544 0.847789 1.197980
v 2.231922 0.847789 1.197980
v 2.201611 0.847789 1.250480
v 2.231922 0.847789 1.302980
v 2.292544 0.847789 1.302980
v 2.262233 0.830289 1.250480
v 2.262233 0.830289 1.250480
v 2.262233 0.830289 1.250480
v 2.262233 0.830289 1.250480
v 2.262233 0.830289 1.250480
v 2.262233 0.830289 1.250480
f 153 160 154
f 153 159 160
f 154 161 155
f 154 160 161
f 155 162 156
f 155 161 162
f 156 163 157
f 156 162 163
f 157 164 158
f 157 163 164
f 158 159 153
f 158 164 159
f 159 166 160
f 159 165 166
f 160 167 161
f 160 166 167
f 161 168 162
f 161 167 168
f 162 169 163
f 162 168 169
f 163 170 164
f 163 169 170
f 164 165 159
f 164 170 165
f 165 172 166
f 165 171 172
f 166 173 167
f 166 172 173
f 167 174 168
f 167 173 174
f 168 175 169
f 168 174 175
f 169 176 170
f 169 175 176
f 170 171 165
f 170 176 171
v 2.262233 0.867097 1.275415
v 2.287233 0.865289 1.250480
v 2.262233 0.863481 1.225546
v 2.237233 0.865289 1.250480
v 2.262233 1.367321 1.232122
v 2.280233 1.366020 1.214169
v 2.262233 1.364718 1.196216
v 2.244233 1.366020 1.214169
f 177 178 182
f 177 182 181
f 178 179 183
f 178 183 182
f 179 180 184
f 179 184 183
f 180 177 181
f 180 181 184
v 2.262233 1.401020 1.214169
v 2.262233 1.401020 1.214169
v 2.262233 1.401020 1.214169
v 2.262233 1.401020 1.214169
v 2.262233 1.401020 1.214169
v 2.262233 1.401020 1.214169
v 2.322855 1.383520 1.214169
v 2.292544 1.383520 1.161669
v 2.231922 1.383520 1.161669
v 2.201611 1.383520 1.214169
v 2.231922 1.383520 1.266669
v 2.292544 1.383520 1.266669
v 2.322855 1.348520 1.214169
v 2.292544 1.348520 1.161669
v 2.231922 1.348520 1.161669
v 2.201611 1.348520 1.214169
v 2.231922 1.348520 1.266669
v 2.292544 1.348520 1.266669
v 2.262233 1.331020 1.214169
v 2.262233 1.331020 1.214169
v 2.262233 1.331020 1.214169
v 2.262233 1.331020 1.214169
v 2.262233 1.331020 1.214169
v 2.262233 1.331020 1.214169
f 185 192 186
f 185 191 192
f 186 193 187
f 186 192 193
f 187 194 188
f 187 193 194
f 188 195 189
f 188 194 195
f 189 196 190
f 189 195 196
f 190 191 185
f 190 196 191
f 191 198 192
f 191 197 198
f 192 199 193
f 192 198 199
f 193 200 194
f 193 199 200
f 194 201 195
f 194 200 201
f 195 202 196
f 195 201 202
f 196 197 191
f 196 202 197
f 197 204 198
f 197 203 204
f 198 205 199
f 198 204 205
f 199 206 200
f 199 205 206
f 200 207 201
f 200 206 207
f 201 208 202
f 201 207 208
f 202 203 197
f 202 208 203
v 2.262233 1.367960 1.239094
v 2.287233 1.366020 1.214169
v 2.262233 1.364079 1.189245
v 2.237233 1.366020 1.214169
v 2.262233 2.056655 1.178452
v 2.280233 2.055258 1.160506
v 2.262233 2.053861 1.142560
v 2.244233 2.055258 1.160506
f 209 210 214
f 209 214 213
f 210 211 215
f 210 215 214
f 211 212 216
f 211 216 215
f 212 209 213
f 212 213 216
v 2.262233 2.056157 1.185490
v 2.287233 2.055258 1.160506
v 2.262233 2.054359 1.135522
v 2.237233 2.055258 1.160506
v 2.262233 2.632005 1.157770
v 2.280233 2.631358 1.139782
v 2.262233 2.630711 1.121794
v 2.244233 2.631358 1.139782
f 217 218 222
f 217 222 221
f 218 219 223
f 218 223 222
f 219 220 224
f 219 224 223
f 220 217 221
f 220 221 224
v 2.262233 2.666358 1.139782
v 2.262233 2.666358 1.139782
v 2.262233 2.666358 1.139782
v 2.262233 2.666358 1.139782
v 2.262233 2.666358 1.139782
v 2.262233 2.666358 1.139782
v 2.322855 2.648858 1.139782
v 2.292544 2.648858 1.087282
v 2.231922 2.648858 1.087282
v 2.201611 2.648858 1.139782
v 2.231922 2.648858 1.192282
v 2.292544 2.648858 1.192282
v 2.322855 2.613858 1.139782
v 2.292544 2.613858 1.087282
v 2.231922 2.613858 1.087282
v 2.201611 2.613858 1.139782
v 2.231922 2.613858 1.192282
v 2.292544 2.613858 1.192282
v 2.262233 2.596358 1.139782
v 2.262233 2.596358 1.139782
v 2.262233 2.596358 1.139782
v 2.262233 2.596358 1.139782
v 2.262233 2.596358 1.139782
v 2.262233 2.596358 1.139782
f 225 232 226
f 225 231 232
f 226 233 227
f 226 232 233
f 227 234 228
f 227 233 234
f 228 235 229
f 228 234 235
f 229 236 230
f 229 235 236
f 230 231 225
f 230 236 231
f 231 238 232
f 231 237 238
f 232 239 233
f 232 238 239
f 233 240 234
f 233 239 240
f 234 241 235
f 234 240 241
f 235 242 236
f 235 241 242
f 236 237 231
f 236 242 237
f 237 244 238
f 237 243 244
f 238 245 239
f 238 244 245
f 239 246 240
f 239 245 246
f 240 247 241
f 240 246 247
f 241 248 242
f 241 247 248
f 242 243 237
f 242 248 243
v 2.262233 2.628823 1.164653
v 2.287233 2.631358 1.139782
v 2.262233 2.633893 1.114911
v 2.237233 2.631358 1.139782
v 2.262233 3.191490 1.214964
v 2.280233 3.193315 1.197057
v 2.262233 3.195141 1.179150
v 2.244233 3.193315 1.197057
f 249 250 254
f 249 254 253
f 250 251 255
f 250 255 254
f 251 252 256
f 251 256 255
f 252 249 253
f 252 253 256
v 2.262233 3.228315 1.197057
v 2.262233 3.228315 1.197057
v 2.262233 3.228315 1.197057
v 2.262233 3.228315 1.197057
v 2.262233 3.228315 1.197057
v 2.262233 3.228315 1.197057
v 2.322855 3.210815 1.197057
v 2.292544 3.210815 1.144557
v 2.231922 3.210815 1.144557
v 2.201611 3.210815 1.197057
v 2.231922 3.210815 1.249557
v 2.292544 3.210815 1.249557
v 2.322855 3.175815 1.197057
v 2.292544 3.175815 1.144557
v 2.231922 3.175815 1.144557
v 2.201611 3.175815 1.197057
v 2.231922 3.175815 1.249557
v 2.292544 3.175815 1.249557
v 2.262233 3.158315 1.197057
v 2.262233 3.158315 1.197057
v 2.262233 3.158315 1.197057
v 2.262233 3.158315 1.197057
v 2.262233 3.158315 1.197057
v 2.262233 3.158315 1.197057
f 257 264 258
f 257 263 264
f 258 265 259
f 258 264 265
f 259 266 260
f 259 265 266
f 260 267 261
f 260 266 267
f 261 268 262
f 261 267 268
f 262 263 257
f 262 268 263
f 263 270 264
f 263 269 270
f 264 271 265
f 264 270 271
f 265 272 266
f 265 271 272
f 266 273 267
f 266 272 273
f 267 274 268
f 267 273 274
f 268 269 263
f 268 274 269
f 269 276 270
f 269 275 276
f 270 277 271
f 270 276 277
f 271 278 272
f 271 277 278
f 272 279 273
f 272 278 279
f 273 280 274
f 273 279 280
f 274 275 269
f 274 280 275
v 2.262233 3.188739 1.221635
v 2.287233 3.193315 1.197057
v 2.262233 3.197892 1.172480
v 2.237233 3.193315 1.197057
v 2.262233 3.802533 1.328814
v 2.280233 3.805828 1.311118
v 2.262233 3.809123 1.293422
v 2.244233 3.805828 1.311118
f 281 282 286
f 281 286 285
f 282 283 287
f 282 287 286
f 283 284 288
f 283 288 287
f 284 281 285
f 284 285 288
v -1.232749 0.450000 -1.816786
v -1.208044 0.446171 -1.841786
v -1.232749 0.450000 -1.866786
v -1.257454 0.453829 -1.841786
v -1.175068 0.822201 -1.823786
v -1.157280 0.819445 -1.841786
v -1.175068 0.822201 -1.859786
v -1.192856 0.824958 -1.841786
f 289 290 294
f 289 294 293
f 290 291 295
f 290 295 294
f 291 292 296
f 291 296 295
f 292 289 293
f 292 293 296
v -1.175068 0.857201 -1.841786
v -1.175068 0.857201 -1.841786
v -1.175068 0.857201 -1.841786
v -1.175068 0.857201 -1.841786
v -1.175068 0.857201 -1.841786
v -1.175068 0.857201 -1.841786
v -1.114446 0.839701 -1.841786
v -1.144757 0.839701 -1.894286
v -1.205379 0.839701 -1.894286
v -1.235690 0.839701 -1.841786
v -1.205379 0.839701 -1.789286
v -1.144757 0.839701 -1.789286
v -1.114446 0.804701 -1.841786
v -1.144757 0.804701 -1.894286
v -1.205379 0.804701 -1.894286
v -1.235690 0.804701 -1.841786
v -1.205379 0.804701 -1.789286
v -1.144757 0.804701 -1.789286
v -1.175068 0.787201 -1.841786
v -1.175068 0.787201 -1.841786
v -1.175068 0.787201 -1.841786
v -1.175068 0.787201 -1.841786
v -1.175068 0.787201 -1.841786
v -1.175068 0.787201 -1.841786
f 297 304 298
f 297 303 304
f 298 305 299
f 298 304 305
f 299 306 300
f 299 305 306
f 300 307 301
f 300 306 307
f 301 308 302
f 301 307 308
f 302 303 297
f 302 308 303
f 303 310 304
f 303 309 310
f 304 311 305
f 304 310 311
f 305 312 306
f 305 311 312
f 306 313 307
f 306 312 313
f 307 314 308
f 307 313 314
f 308 309 303
f 308 314 309
f 309 316 310
f 309 315 316
f 310 317 311
f 310 316 317
f 311 318 312
f 311 317 318
f 312 319 313
f 312 318 319
f 313 320 314
f 313 319 320
f 314 315 309
f 314 320 315
v -1.175068 0.822201 -1.866786
v -1.196565 0.834965 -1.841786
v -1.175068 0.822201 -1.816786
v -1.153572 0.809438 -1.841786
v -0.942204 1.214403 -1.859786
v -0.957681 1.223592 -1.841786
v -0.942204 1.214403 -1.823786
v -0.926726 1.205213 -1.841786
f 321 322 326
f 321 326 325
f 322 323 327
f 322 327 326
f 323 324 328
f 323 328 327
f 324 321 325
f 324 325 328
v -0.942204 1.214403 -1.816786
v -0.918746 1.205759 -1.841786
v -0.942204 1.214403 -1.866786
v -0.965662 1.223046 -1.841786
v -0.746603 1.745261 -1.823786
v -0.729713 1.739038 -1.841786
v -0.746603 1.745261 -1.859786
v -0.763493 1.751485 -1.841786
f 329 330 334
f 329 334 333
f 330 331 335
f 330 335 334
f 331 332 336
f 331 336 335
f 332 329 333
f 332 333 336
v -0.746603 1.745261 -1.816786
v -0.721607 1.745685 -1.841786
v -0.746603 1.745261 -1.866786
v -0.771600 1.744838 -1.841786
v -0.757680 2.399149 -1.823786
v -0.739683 2.399454 -1.841786
v -0.757680 2.399149 -1.859786
v -0.775678 2.398844 -1.841786
f 337 338 342
f 337 342 341
f 338 339 343
f 338 343 342
f 339 340 344
f 339 344 343
f 340 337 341
f 340 341 344
v -0.757680 2.434149 -1.841786
v -0.757680 2.434149 -1.841786
v -0.757680 2.434149 -1.841786
v -0.757680 2.434149 -1.841786
v -0.757680 2.434149 -1.841786
v -0.757680 2.434149 -1.841786
v -0.697058 2.416649 -1.841786
v -0.727369 2.416649 -1.894286
v -0.787991 2.416649 -1.894286
v -0.818302 2.416649 -1.841786
v -0.787991 2.416649 -1.789286
v -0.727369 2.416649 -1.789286
v -0.697058 2.381649 -1.841786
v -0.727369 2.381649 -1.894286
v -0.787991 2.381649 -1.894286
v -0.818302 2.381649 -1.841786
v -0.787991 2.381649 -1.789286
v -0.727369 2.381649 -1.789286
v -0.757680 2.364149 -1.841786
v -0.757680 2.364149 -1.841786
v -0.757680 2.364149 -1.841786
v -0.757680 2.364149 -1.841786
v -0.757680 2.364149 -1.841786
v -0.757680 2.364149 -1.841786
f 345 352 346
f 345 351 352
f 346 353 347
f 346 352 353
f 347 354 348
f 347 353 354
f 348 355 349
f 348 354 355
f 349 356 350
f 349 355 356
f 350 351 345
f 350 356 351
f 351 358 352
f 351 357 358
f 352 359 353
f 352 358 359
f 353 360 354
f 353 359 360
f 354 361 355
f 354 360 361
f 355 362 356
f 355 361 362
f 356 357 351
f 356 362 357
f 357 364 358
f 357 363 364
f 358 365 359
f 358 364 365
f 359 366 360
f 359 365 366
f 360 367 361
f 360 366 367
f 361 368 362
f 361 367 368
f 362 363 357
f 362 368 363
v 2.262233 0.448020 0.116067
v 2.287233 0.450000 0.091146
v 2.262233 0.451980 0.066224
v 2.237233 0.450000 0.091146
v 2.262233 1.059809 0.157655
v 2.280233 1.061235 0.139711
v 2.262233 1.062660 0.121768
v 2.244233 1.061235 0.139711
f 369 370 374
f 369 374 373
f 370 371 375
f 370 375 374
f 371 372 376
f 371 376 375
f 372 369 373
f 372 373 376
v 2.262233 1.071155 0.162659
v 2.287233 1.061235 0.139711
v 2.262233 1.051314 0.116764
v 2.237233 1.061235 0.139711
v 2.262233 1.563548 -0.057841
v 2.280233 1.556405 -0.074364
v 2.262233 1.549262 -0.090886
v 2.244233 1.556405 -0.074364
f 377 378 382
f 377 382 381
f 378 379 383
f 378 383 382
f 379 380 384
f 379 384 383
f 380 377 381
f 380 381 384
v 2.262233 1.591405 -0.074364
v 2.262233 1.591405 -0.074364
v 2.262233 1.591405 -0.074364
v 2.262233 1.591405 -0.074364
v 2.262233 1.591405 -0.074364
v 2.262233 1.591405 -0.074364
v 2.322855 1.573905 -0.074364
v 2.292544 1.573905 -0.126864
v 2.231922 1.573905 -0.126864
v 2.201611 1.573905 -0.074364
v 2.231922 1.573905 -0.021864
v 2.292544 1.573905 -0.021864
v 2.322855 1.538905 -0.074364
v 2.292544 1.538905 -0.126864
v 2.231922 1.538905 -0.126864
v 2.201611 1.538905 -0.074364
v 2.231922 1.538905 -0.021864
v 2.292544 1.538905 -0.021864
v 2.262233 1.521405 -0.074364
v 2.262233 1.521405 -0.074364
v 2.262233 1.521405 -0.074364
v 2.262233 1.521405 -0.074364
v 2.262233 1.521405 -0.074364
v 2.262233 1.521405 -0.074364
f 385 392 386
f 385 391 392
f 386 393 387
f 386 392 393
f 387 394 388
f 387 393 394
f 388 395 389
f 388 394 395
f 389 396 390
f 389 395 396
f 390 391 385
f 390 396 391
f 391 398 392
f 391 397 398
f 392 399 393
f 392 398 399
f 393 400 394
f 393 399 400
f 394 401 395
f 394 400 401
f 395 402 396
f 395 401 402
f 396 397 391
f 396 402 397
f 397 404 398
f 397 403 404
f 398 405 399
f 398 404 405
f 399 406 400
f 399 405 406
f 400 407 401
f 400 406 407
f 401 408 402
f 401 407 408
f 402 403 397
f 402 408 403
v 2.262233 1.559756 -0.049589
v 2.287233 1.556405 -0.074364
v 2.262233 1.553054 -0.099138
v 2.237233 1.556405 -0.074364
v 2.262233 1.959157 -0.110680
v 2.280233 1.956744 -0.128517
v 2.262233 1.954332 -0.146355
v 2.244233 1.956744 -0.128517
f 409 410 414
f 409 414 413
f 410 411 415
f 410 415 414
f 411 412 416
f 411 416 415
f 412 409 413
f 412 413 416
v 2.262233 1.991744 -0.128517
v 2.262233 1.991744 -0.128517
v 2.262233 1.991744 -0.128517
v 2.262233 1.991744 -0.128517
v 2.262233 1.991744 -0.128517
v 2.262233 1.991744 -0.128517
v 2.322855 1.974244 -0.128517
v 2.292544 1.974244 -0.181017
v 2.231922 1.974244 -0.181017
v 2.201611 1.974244 -0.128517
v 2.231922 1.974244 -0.076017
v 2.292544 1.974244 -0.076017
v 2.322855 1.939244 -0.128517
v 2.292544 1.939244 -0.181017
v 2.231922 1.939244 -0.181017
v 2.201611 1.939244 -0.128517
v 2.231922 1.939244 -0.076017
v 2.292544 1.939244 -0.076017
v 2.262233 1.921744 -0.128517
v 2.262233 1.921744 -0.128517
v 2.262233 1.921744 -0.128517
v 2.262233 1.921744 -0.128517
v 2.262233 1.921744 -0.128517
v 2.262233 1.921744 -0.128517
f 417 424 418
f 417 423 424
f 418 425 419
f 418 424 425
f 419 426 420
f 419 425 426
f 420 427 421
f 420 426 427
f 421 428 422
f 421 427 428
f 422 423 417
f 422 428 423
f 423 430 424
f 423 429 430
f 424 431 425
f 424 430 431
f 425 432 426
f 425 431 432
f 426 433 427
f 426 432 433
f 427 434 428
f 427 433 434
f 428 429 423
f 428 434 429
f 429 436 430
f 429 435 436
f 430 437 431
f 430 436 437
f 431 438 432
f 431 437 438
f 432 439 433
f 432 438 439
f 433 440 434
f 433 439 440
f 434 435 429
f 434 440 435
v 2.262233 1.957647 -0.103534
v 2.287233 1.956744 -0.128517
v 2.262233 1.955842 -0.153501
v 2.237233 1.956744 -0.128517
v 2.262233 2.555278 -0.132122
v 2.280233 2.554629 -0.150111
v 2.262233 2.553979 -0.168099
v 2.244233 2.554629 -0.150111
f 441 442 446
f 441 446 445
f 442 443 447
f 442 447 446
f 443 444 448
f 443 448 447
f 444 441 445
f 444 445 448
v 2.262233 2.589629 -0.150111
v 2.262233 2.589629 -0.150111
v 2.262233 2.589629 -0.150111
v 2.262233 2.589629 -0.150111
v 2.262233 2.589629 -0.150111
v 2.262233 2.589629 -0.150111
v 2.322855 2.572129 -0.150111
v 2.292544 2.572129 -0.202611
v 2.231922 2.572129 -0.202611
v 2.201611 2.572129 -0.150111
v 2.231922 2.572129 -0.097611
v 2.292544 2.572129 -0.097611
v 2.322855 2.537129 -0.150111
v 2.292544 2.537129 -0.202611
v 2.231922 2.537129 -0.202611
v 2.201611 2.537129 -0.150111
v 2.231922 2.537129 -0.097611
v 2.292544 2.537129 -0.097611
v 2.262233 2.519629 -0.150111
v 2.262233 2.519629 -0.150111
v 2.262233 2.519629 -0.150111
v 2.262233 2.519629 -0.150111
v 2.262233 2.519629 -0.150111
v 2.262233 2.519629 -0.150111
f 449 456 450
f 449 455 456
f 450 457 451
f 450 456 457
f 451 458 452
f 451 457 458
f 452 459 453
f 452 458 459
f 453 460 454
f 453 459 460
f 454 455 449
f 454 460 455
f 455 462 456
f 455 461 462
f 456 463 457
f 456 462 463
f 457 464 458
f 457 463 464
f 458 465 459
f 458 464 465
f 459 466 460
f 459 465 466
f 460 461 455
f 460 466 461
f 461 468 462
f 461 467 468
f 462 469 463
f 462 468 469
f 463 470 464
f 463 469 470
f 464 471 465
f 464 470 471
f 465 472 466
f 465 471 472
f 466 467 461
f 466 472 467
v 2.262233 0.446101 -0.992570
v 2.287233 0.450000 -1.017265
v 2.262233 0.453899 -1.041959
v 2.237233 0.450000 -1.017265
v 2.262233 1.020029 -0.909046
v 2.280233 1.022836 -0.926826
v 2.262233 1.025643 -0.944606
v 2.244233 1.022836 -0.926826
f 473 474 478
f 473 478 477
f 474 475 479
f 474 479 478
f 475 476 480
f 475 480 479
f 476 473 477
f 476 477 480
v 2.262233 1.057836 -0.926826
v 2.262233 1.057836 -0.926826
v 2.262233 1.057836 -0.926826
v 2.262233 1.057836 -0.926826
v 2.262233 1.057836 -0.926826
v 2.262233 1.057836 -0.926826
v 2.322855 1.040336 -0.926826
v 2.292544 1.040336 -0.979326
v 2.231922 1.040336 -0.979326
v 2.201611 1.040336 -0.926826
v 2.231922 1.040336 -0.874326
v 2.292544 1.040336 -0.874326
v 2.322855 1.005336 -0.926826
v 2.292544 1.005336 -0.979326
v 2.231922 1.005336 -0.979326
v 2.201611 1.005336 -0.926826
v 2.231922 1.005336 -0.874326
v 2.292544 1.005336 -0.874326
v 2.262233 0.987836 -0.926826
v 2.262233 0.987836 -0.926826
v 2.262233 0.987836 -0.926826
v 2.262233 0.987836 -0.926826
v 2.262233 0.987836 -0.926826
v 2.262233 0.987836 -0.926826
f 481 488 482
f 481 487 488
f 482 489 483
f 482 488 489
f 483 490 484
f 483 489 490
f 484 491 485
f 484 490 491
f 485 492 486
f 485 491 492
f 486 487 481
f 486 492 487
f 487 494 488
f 487 493 494
f 488 495 489
f 488 494 495
f 489 496 490
f 489 495 496
f 490 497 491
f 490 496 497
f 491 498 492
f 491 497 498
f 492 493 487
f 492 498 493
f 493 500 494
f 493 499 500
f 494 501 495
f 494 500 501
f 495 502 496
f 495 501 502
f 496 503 497
f 496 502 503
f 497 504 498
f 497 503 504
f 498 499 493
f 498 504 499
v 2.262233 1.031252 -0.903285
v 2.287233 1.022836 -0.926826
v 2.262233 1.014421 -0.950367
v 2.237233 1.022836 -0.926826
v 2.262233 1.728157 -1.159851
v 2.280233 1.722098 -1.176800
v 2.262233 1.716038 -1.193750
v 2.244233 1.722098 -1.176800
f 505 506 510
f 505 510 509
f 506 507 511
f 506 511 510
f 507 508 512
f 507 512 511
f 508 505 509
f 508 509 512
v 2.262233 1.727396 -1.152368
v 2.287233 1.722098 -1.176800
v 2.262233 1.716799 -1.201232
v 2.237233 1.722098 -1.176800
v 2.262233 2.281834 -1.279765
v 2.280233 2.278019 -1.297356
v 2.262233 2.274205 -1.314947
v 2.244233 2.278019 -1.297356
f 513 514 518
f 513 518 517
f 514 515 519
f 514 519 518
f 515 516 520
f 515 520 519
f 516 513 517
f 516 517 520
v 2.262233 2.271832 -1.273134
v 2.287233 2.278019 -1.297356
v 2.262233 2.284207 -1.321578
v 2.237233 2.278019 -1.297356
v 2.262233 2.838153 -1.135698
v 2.280233 2.842608 -1.153138
v 2.262233 2.847062 -1.170578
v 2.244233 2.842608 -1.153138
f 521 522 526
f 521 526 525
f 522 523 527
f 522 527 526
f 523 524 528
f 523 528 527
f 524 521 525
f 524 525 528
v 2.262233 2.849006 -1.128971
v 2.287233 2.842608 -1.153138
v 2.262233 2.836209 -1.177305
v 2.237233 2.842608 -1.153138
v 2.262233 3.393266 -1.280311
v 2.280233 3.388659 -1.297712
v 2.262233 3.384052 -1.315112
v 2.244233 3.388659 -1.297712
f 529 530 534
f 529 534 533
f 530 531 535
f 530 535 534
f 531 532 536
f 531 536 535
f 532 529 533
f 532 533 536
v 2.262233 3.378788 -1.274743
v 2.287233 3.388659 -1.297712
v 2.262233 3.398530 -1.320680
v 2.237233 3.388659 -1.297712
v 2.262233 3.732199 -1.130477
v 2.280233 3.739306 -1.147014
v 2.262233 3.746414 -1.163552
v 2.244233 3.739306 -1.147014
f 537 538 542
f 537 542 541
f 538 539 543
f 538 543 542
f 539 540 544
f 539 544 543
f 540 537 541
f 540 541 544
v -1.002724 0.450000 -1.816786
v -0.977734 0.450697 -1.841786
v -1.002724 0.450000 -1.866786
v -1.027714 0.449303 -1.841786
v -1.015551 0.909811 -1.823786
v -0.997558 0.910313 -1.841786
v -1.015551 0.909811 -1.859786
v -1.033544 0.909309 -1.841786
f 545 546 550
f 545 550 549
f 546 547 551
f 546 551 550
f 547 548 552
f 547 552 551
f 548 545 549
f 548 549 552
v -1.015551 0.944811 -1.841786
v -1.015551 0.944811 -1.841786
v -1.015551 0.944811 -1.841786
v -1.015551 0.944811 -1.841786
v -1.015551 0.944811 -1.841786
v -1.015551 0.944811 -1.841786
v -0.954929 0.927311 -1.841786
v -0.985240 0.927311 -1.894286
v -1.045861 0.927311 -1.894286
v -1.076172 0.927311 -1.841786
v -1.045861 0.927311 -1.789286
v -0.985240 0.927311 -1.789286
v -0.954929 0.892311 -1.841786
v -0.985240 0.892311 -1.894286
v -1.045861 0.892311 -1.894286
v -1.076172 0.892311 -1.841786
v -1.045861 0.892311 -1.789286
v -0.985240 0.892311 -1.789286
v -1.015551 0.874811 -1.841786
v -1.015551 0.874811 -1.841786
v -1.015551 0.874811 -1.841786
v -1.015551 0.874811 -1.841786
v -1.015551 0.874811 -1.841786
v -1.015551 0.874811 -1.841786
f 553 560 554
f 553 559 560
f 554 561 555
f 554 560 561
f 555 562 556
f 555 561 562
f 556 563 557
f 556 562 563
f 557 564 558
f 557 563 564
f 558 559 553
f 558 564 559
f 559 566 560
f 559 565 566
f 560 567 561
f 560 566 567
f 561 568 562
f 561 567 568
f 562 569 563
f 562 568 569
f 563 570 564
f 563 569 570
f 564 565 559
f 564 570 565
f 565 572 566
f 565 571 572
f 566 573 567
f 566 572 573
f 567 574 568
f 567 573 574
f 568 575 569
f 568 574 575
f 569 576 570
f 569 575 576
f 570 571 565
f 570 576 571
v -1.015551 0.909811 -1.816786
v -0.991679 0.917237 -1.841786
v -1.015551 0.909811 -1.866786
v -1.039422 0.902385 -1.841786
v -1.163787 1.386317 -1.823786
v -1.146599 1.391664 -1.841786
v -1.163787 1.386317 -1.859786
v -1.180974 1.380970 -1.841786
f 577 578 582
f 577 582 581
f 578 579 583
f 578 583 582
f 579 580 584
f 579 584 583
f 580 577 581
f 580 581 584
v -1.163787 1.421317 -1.841786
v -1.163787 1.421317 -1.841786
v -1.163787 1.421317 -1.841786
v -1.163787 1.421317 -1.841786
v -1.163787 1.421317 -1.841786
v -1.163787 1.421317 -1.841786
v -1.103165 1.403817 -1.841786
v -1.133476 1.403817 -1.894286
v -1.194098 1.403817 -1.894286
v -1.224409 1.403817 -1.841786
v -1.194098 1.403817 -1.789286
v -1.133476 1.403817 -1.789286
v -1.103165 1.368817 -1.841786
v -1.133476 1.368817 -1.894286
v -1.194098 1.368817 -1.894286
v -1.224409 1.368817 -1.841786
v -1.194098 1.368817 -1.789286
v -1.133476 1.368817 -1.789286
v -1.163787 1.351317 -1.841786
v -1.163787 1.351317 -1.841786
v -1.163787 1.351317 -1.841786
v -1.163787 1.351317 -1.841786
v -1.163787 1.351317 -1.841786
v -1.163787 1.351317 -1.841786
f 585 592 586
f 585 591 592
f 586 593 587
f 586 592 593
f 587 594 588
f 587 593 594
f 588 595 589
f 588 594 595
f 589 596 590
f 589 595 596
f 590 591 585
f 590 596 591
f 591 598 592
f 591 597 598
f 592 599 593
f 592 598 599
f 593 600 594
f 593 599 600
f 594 601 595
f 594 600 601
f 595 602 596
f 595 601 602
f 596 597 591
f 596 602 597
f 597 604 598
f 597 603 604
f 598 605 599
f 598 604 605
f 599 606 600
f 599 605 606
f 600 607 601
f 600 606 607
f 601 608 602
f 601 607 608
f 602 603 597
f 602 608 603
v -1.163787 1.386317 -1.816786
v -1.139001 1.383053 -1.841786
v -1.163787 1.386317 -1.866786
v -1.188573 1.389581 -1.841786
v -1.112872 1.772937 -1.823786
v -1.095026 1.770587 -1.841786
v -1.112872 1.772937 -1.859786
v -1.130718 1.775288 -1.841786
f 609 610 614
f 609 614 613
f 610 611 615
f 610 615 614
f 611 612 616
f 611 616 615
f 612 609 613
f 612 613 616
v -1.112872 1.807937 -1.841786
v -1.112872 1.807937 -1.841786
v -1.112872 1.807937 -1.841786
v -1.112872 1.807937 -1.841786
v -1.112872 1.807937 -1.841786
v -1.112872 1.807937 -1.841786
v -1.052250 1.790437 -1.841786
v -1.082561 1.790437 -1.894286
v -1.143183 1.790437 -1.894286
v -1.173494 1.790437 -1.841786
v -1.143183 1.790437 -1.789286
v -1.082561 1.790437 -1.789286
v -1.052250 1.755437 -1.841786
v -1.082561 1.755437 -1.894286
v -1.143183 1.755437 -1.894286
v -1.173494 1.755437 -1.841786
v -1.143183 1.755437 -1.789286
v -1.082561 1.755437 -1.789286
v -1.112872 1.737937 -1.841786
v -1.112872 1.737937 -1.841786
v -1.112872 1.737937 -1.841786
v -1.112872 1.737937 -1.841786
v -1.112872 1.737937 -1.841786
v -1.112872 1.737937 -1.841786
f 617 624 618
f 617 623 624
f 618 625 619
f 618 624 625
f 619 626 620
f 619 625 626
f 620 627 621
f 620 626 627
f 621 628 622
f 621 627 628
f 622 623 617
f 622 628 623
f 623 630 624
f 623 629 630
f 624 631 625
f 624 630 631
f 625 632 626
f 625 631 632
f 626 633 627
f 626 632 633
f 627 634 628
f 627 633 634
f 628 629 623
f 628 634 629
f 629 636 630
f 629 635 636
f 630 637 631
f 630 636 637
f 631 638 632
f 631 637 638
f 632 639 633
f 632 638 639
f 633 640 634
f 633 639 640
f 634 635 629
f 634 640 635
v -1.112872 1.772937 -1.816786
v -1.088628 1.766836 -1.841786
v -1.112872 1.772937 -1.866786
v -1.137116 1.779039 -1.841786
v -0.939528 2.461702 -1.823786
v -0.922072 2.457309 -1.841786
v -0.939528 2.461702 -1.859786
v -0.956984 2.466095 -1.841786
f 641 642 646
f 641 646 645
f 642 643 647
f 642 647 646
f 643 644 648
f 643 648 647
f 644 641 645
f 644 645 648
v -0.939528 2.496702 -1.841786
v -0.939528 2.496702 -1.841786
v -0.939528 2.496702 -1.841786
v -0.939528 2.496702 -1.841786
v -0.939528 2.496702 -1.841786
v -0.939528 2.496702 -1.841786
v -0.878906 2.479202 -1.841786
v -0.909217 2.479202 -1.894286
v -0.969839 2.479202 -1.894286
v -1.000150 2.479202 -1.841786
v -0.969839 2.479202 -1.789286
v -0.909217 2.479202 -1.789286
v -0.878906 2.444202 -1.841786
v -0.909217 2.444202 -1.894286
v -0.969839 2.444202 -1.894286
v -1.000150 2.444202 -1.841786
v -0.969839 2.444202 -1.789286
v -0.909217 2.444202 -1.789286
v -0.939528 2.426702 -1.841786
v -0.939528 2.426702 -1.841786
v -0.939528 2.426702 -1.841786
v -0.939528 2.426702 -1.841786
v -0.939528 2.426702 -1.841786
v -0.939528 2.426702 -1.841786
f 649 656 650
f 649 655 656
f 650 657 651
f 650 656 657
f 651 658 652
f 651 657 658
f 652 659 653
f 652 658 659
f 653 660 654
f 653 659 660
f 654 655 649
f 654 660 655
f 655 662 656
f 655 661 662
f 656 663 657
f 656 662 663
f 657 664 658
f 657 663 664
f 658 665 659
f 658 664 665
f 659 666 660
f 659 665 666
f 660 661 655
f 660 666 661
f 661 668 662
f 661 667 668
f 662 669 663
f 662 668 669
f 663 670 664
f 663 669 670
f 664 671 665
f 664 670 671
f 665 672 666
f 665 671 672
f 666 667 661
f 666 672 667
v -0.939528 2.461702 -1.816786
v -0.916054 2.453101 -1.841786
v -0.939528 2.461702 -1.866786
v -0.963002 2.470303 -1.841786
v -0.694748 3.129758 -1.823786
v -0.677847 3.123566 -1.841786
v -0.694748 3.129758 -1.859786
v -0.711649 3.135951 -1.841786
f 673 674 678
f 673 678 677
f 674 675 679
f 674 679 678
f 675 676 680
f 675 680 679
f 676 673 677
f 676 677 680
v -0.694748 3.164758 -1.841786
v -0.694748 3.164758 -1.841786
v -0.694748 3.164758 -1.841786
v -0.694748 3.164758 -1.841786
v -0.694748 3.164758 -1.841786
v -0.694748 3.164758 -1.841786
v -0.634126 3.147258 -1.841786
v -0.664437 3.147258 -1.894286
v -0.725059 3.147258 -1.894286
v -0.755370 3.147258 -1.841786
v -0.725059 3.147258 -1.789286
v -0.664437 3.147258 -1.789286
v -0.634126 3.112258 -1.841786
v -0.664437 3.112258 -1.894286
v -0.725059 3.112258 -1.894286
v -0.755370 3.112258 -1.841786
v -0.725059 3.112258 -1.789286
v -0.664437 3.112258 -1.789286
v -0.694748 3.094758 -1.841786
v -0.694748 3.094758 -1.841786
v -0.694748 3.094758 -1.841786
v -0.694748 3.094758 -1.841786
v -0.694748 3.094758 -1.841786
v -0.694748 3.094758 -1.841786
f 681 688 682
f 681 687 688
f 682 689 683
f 682 688 689
f 683 690 684
f 683 689 690
f 684 691 685
f 684 690 691
f 685 692 686
f 685 691 692
f 686 687 681
f 686 692 687
f 687 694 688
f 687 693 694
f 688 695 689
f 688 694 695
f 689 696 690
f 689 695 696
f 690 697 691
f 690 696 697
f 691 698 692
f 691 697 698
f 692 693 687
f 692 698 693
f 693 700 694
f 693 699 700
f 694 701 695
f 694 700 701
f 695 702 696
f 695 701 702
f 696 703 697
f 696 702 703
f 697 704 698
f 697 703 704
f 698 699 693
f 698 704 699
v 2.262233 0.450766 -0.809470
v 2.287233 0.450000 -0.834459
v 2.262233 0.449234 -0.859447
v 2.237233 0.450000 -0.834459
v 2.262233 1.081212 -0.835789
v 2.280233 1.080661 -0.853781
v 2.262233 1.080110 -0.871772
v 2.244233 1.080661 -0.853781
f 705 706 710
f 705 710 709
f 706 707 711
f 706 711 710
f 707 708 712
f 707 712 711
f 708 705 709
f 708 709 712
v 2.262233 1.115661 -0.853781
v 2.262233 1.115661 -0.853781
v 2.262233 1.115661 -0.853781
v 2.262233 1.115661 -0.853781
v 2.262233 1.115661 -0.853781
v 2.262233 1.115661 -0.853781
v 2.322855 1.098161 -0.853781
v 2.292544 1.098161 -0.906281
v 2.231922 1.098161 -0.906281
v 2.201611 1.098161 -0.853781
v 2.231922 1.098161 -0.801281
v 2.292544 1.098161 -0.801281
v 2.322855 1.063161 -0.853781
v 2.292544 1.063161 -0.906281
v 2.231922 1.063161 -0.906281
v 2.201611 1.063161 -0.853781
v 2.231922 1.063161 -0.801281
v 2.292544 1.063161 -0.801281
v 2.262233 1.045661 -0.853781
v 2.262233 1.045661 -0.853781
v 2.262233 1.045661 -0.853781
v 2.262233 1.045661 -0.853781
v 2.262233 1.045661 -0.853781
v 2.262233 1.045661 -0.853781
f 713 720 714
f 713 719 720
f 714 721 715
f 714 720 721
f 715 722 716
f 715 721 722
f 716 723 717
f 716 722 723
f 717 724 718
f 717 723 724
f 718 719 713
f 718 724 719
f 719 726 720
f 719 725 726
f 720 727 721
f 720 726 727
f 721 728 722
f 721 727 728
f 722 729 723
f 722 728 729
f 723 730 724
f 723 729 730
f 724 725 719
f 724 730 725
f 725 732 726
f 725 731 732
f 726 733 727
f 726 732 733
f 727 734 728
f 727 733 734
f 728 735 729
f 728 734 735
f 729 736 730
f 729 735 736
f 730 731 725
f 730 736 731
v 2.262233 1.087618 -0.829768
v 2.287233 1.080661 -0.853781
v 2.262233 1.073704 -0.877794
v 2.237233 1.080661 -0.853781
v 2.262233 1.770363 -1.034852
v 2.280233 1.765354 -1.052141
v 2.262233 1.760345 -1.069430
v 2.244233 1.765354 -1.052141
f 737 738 742
f 737 742 741
f 738 739 743
f 738 743 742
f 739 740 744
f 739 744 743
f 740 737 741
f 740 741 744
v 2.262233 1.800354 -1.052141
v 2.262233 1.800354 -1.052141
v 2.262233 1.800354 -1.052141
v 2.262233 1.800354 -1.052141
v 2.262233 1.800354 -1.052141
v 2.262233 1.800354 -1.052141
v 2.322855 1.782854 -1.052141
v 2.292544 1.782854 -1.104641
v 2.231922 1.782854 -1.104641
v 2.201611 1.782854 -1.052141
v 2.231922 1.782854 -0.999641
v 2.292544 1.782854 -0.999641
v 2.322855 1.747854 -1.052141
v 2.292544 1.747854 -1.104641
v 2.231922 1.747854 -1.104641
v 2.201611 1.747854 -1.052141
v 2.231922 1.747854 -0.999641
v 2.292544 1.747854 -0.999641
v 2.262233 1.730354 -1.052141
v 2.262233 1.730354 -1.052141
v 2.262233 1.730354 -1.052141
v 2.262233 1.730354 -1.052141
v 2.262233 1.730354 -1.052141
v 2.262233 1.730354 -1.052141
f 745 752 746
f 745 751 752
f 746 753 747
f 746 752 753
f 747 754 748
f 747 753 754
f 748 755 749
f 748 754 755
f 749 756 750
f 749 755 756
f 750 751 745
f 750 756 751
f 751 758 752
f 751 757 758
f 752 759 753
f 752 758 759
f 753 760 754
f 753 759 760
f 754 761 755
f 754 760 761
f 755 762 756
f 755 761 762
f 756 757 751
f 756 762 757
f 757 764 758
f 757 763 764
f 758 765 759
f 758 764 765
f 759 766 760
f 759 765 766
f 760 767 761
f 760 766 767
f 761 768 762
f 761 767 768
f 762 763 757
f 762 768 763
v 2.262233 1.772721 -1.028251
v 2.287233 1.765354 -1.052141
v 2.262233 1.757987 -1.076031
v 2.237233 1.765354 -1.052141
v 2.262233 2.354128 -1.214864
v 2.280233 2.348824 -1.232065
v 2.262233 2.343519 -1.249265
v 2.244233 2.348824 -1.232065
f 769 770 774
f 769 774 773
f 770 771 775
f 770 775 774
f 771 772 776
f 771 776 775
f 772 769 773
f 772 773 776
v 2.262233 2.383824 -1.232065
v 2.262233 2.383824 -1.232065
v 2.262233 2.383824 -1.232065
v 2.262233 2.383824 -1.232065
v 2.262233 2.383824 -1.232065
v 2.262233 2.383824 -1.232065
v 2.322855 2.366324 -1.232065
v 2.292544 2.366324 -1.284565
v 2.231922 2.366324 -1.284565
v 2.201611 2.366324 -1.232065
v 2.231922 2.366324 -1.179565
v 2.292544 2.366324 -1.179565
v 2.322855 2.331324 -1.232065
v 2.292544 2.331324 -1.284565
v 2.231922 2.331324 -1.284565
v 2.201611 2.331324 -1.232065
v 2.231922 2.331324 -1.179565
v 2.292544 2.331324 -1.179565
v 2.262233 2.313824 -1.232065
v 2.262233 2.313824 -1.232065
v 2.262233 2.313824 -1.232065
v 2.262233 2.313824 -1.232065
v 2.262233 2.313824 -1.232065
v 2.262233 2.313824 -1.232065
f 777 784 778
f 777 783 784
f 778 785 779
f 778 784 785
f 779 786 780
f 779 785 786
f 780 787 781
f 780 786 787
f 781 788 782
f 781 787 788
f 782 783 777
f 782 788 783
f 783 790 784
f 783 789 790
f 784 791 785
f 784 790 791
f 785 792 786
f 785 791 792
f 786 793 787
f 786 792 793
f 787 794 788
f 787 793 794
f 788 789 783
f 788 794 789
f 789 796 790
f 789 795 796
f 790 797 791
f 790 796 797
f 791 798 792
f 791 797 798
f 792 799 793
f 792 798 799
f 793 800 794
f 793 799 800
f 794 795 789
f 794 800 795
v 2.262233 2.346662 -1.207158
v 2.287233 2.348824 -1.232065
v 2.262233 2.350985 -1.256971
v 2.237233 2.348824 -1.232065
v 2.262233 2.820417 -1.173066
v 2.280233 2.821973 -1.190999
v 2.262233 2.823529 -1.208931
v 2.244233 2.821973 -1.190999
f 801 802 806
f 801 806 805
f 802 803 807
f 802 807 806
f 803 804 808
f 803 808 807
f 804 801 805
f 804 805 808
v 2.262233 2.856973 -1.190999
v 2.262233 2.856973 -1.190999
v 2.262233 2.856973 -1.190999
v 2.262233 2.856973 -1.190999
v 2.262233 2.856973 -1.190999
v 2.262233 2.856973 -1.190999
v 2.322855 2.839473 -1.190999
v 2.292544 2.839473 -1.243499
v 2.231922 2.839473 -1.243499
v 2.201611 2.839473 -1.190999
v 2.231922 2.839473 -1.138499
v 2.292544 2.839473 -1.138499
v 2.322855 2.804473 -1.190999
v 2.292544 2.804473 -1.243499
v 2.231922 2.804473 -1.243499
v 2.201611 2.804473 -1.190999
v 2.231922 2.804473 -1.138499
v 2.292544 2.804473 -1.138499
v 2.262233 2.786973 -1.190999
v 2.262233 2.786973 -1.190999
v 2.262233 2.786973 -1.190999
v 2.262233 2.786973 -1.190999
v 2.262233 2.786973 -1.190999
v 2.262233 2.786973 -1.190999
f 809 816 810
f 809 815 816
f 810 817 811
f 810 816 817
f 811 818 812
f 811 817 818
f 812 819 813
f 812 818 819
f 813 820 814
f 813 819 820
f 814 815 809
f 814 820 815
f 815 822 816
f 815 821 822
f 816 823 817
f 816 822 823
f 817 824 818
f 817 823 824
f 818 825 819
f 818 824 825
f 819 826 820
f 819 825 826
f 820 821 815
f 820 826 821
f 821 828 822
f 821 827 828
f 822 829 823
f 822 828 829
f 823 830 824
f 823 829 830
f 824 831 825
f 824 830 831
f 825 832 826
f 825 831 832
f 826 827 821
f 826 832 827
v 0.793326 0.450000 -1.816786
v 0.816725 0.441198 -1.841786
v 0.793326 0.450000 -1.866786
v 0.769926 0.458802 -1.841786
v 0.962754 0.900434 -1.823786
v 0.979602 0.894097 -1.841786
v 0.962754 0.900434 -1.859786
v 0.945907 0.906771 -1.841786
f 833 834 838
f 833 838 837
f 834 835 839
f 834 839 838
f 835 836 840
f 835 840 839
f 836 833 837
f 836 837 840
v 0.962754 0.900434 -1.816786
v 0.987741 0.899606 -1.841786
v 0.962754 0.900434 -1.866786
v 0.937768 0.901262 -1.841786
v 0.975746 1.292325 -1.823786
v 0.993736 1.291728 -1.841786
v 0.975746 1.292325 -1.859786
v 0.957756 1.292921 -1.841786
f 841 842 846
f 841 846 845
f 842 843 847
f 842 847 846
f 843 844 848
f 843 848 847
f 844 841 845
f 844 845 848
v 0.975746 1.327325 -1.841786
v 0.975746 1.327325 -1.841786
v 0.975746 1.327325 -1.841786
v 0.975746 1.327325 -1.841786
v 0.975746 1.327325 -1.841786
v 0.975746 1.327325 -1.841786
v 1.036368 1.309825 -1.841786
v 1.006057 1.309825 -1.894286
v 0.945435 1.309825 -1.894286
v 0.915124 1.309825 -1.841786
v 0.945435 1.309825 -1.789286
v 1.006057 1.309825 -1.789286
v 1.036368 1.274825 -1.841786
v 1.006057 1.274825 -1.894286
v 0.945435 1.274825 -1.894286
v 0.915124 1.274825 -1.841786
v 0.945435 1.274825 -1.789286
v 1.006057 1.274825 -1.789286
v 0.975746 1.257325 -1.841786
v 0.975746 1.257325 -1.841786
v 0.975746 1.257325 -1.841786
v 0.975746 1.257325 -1.841786
v 0.975746 1.257325 -1.841786
v 0.975746 1.257325 -1.841786
f 849 856 850
f 849 855 856
f 850 857 851
f 850 856 857
f 851 858 852
f 851 857 858
f 852 859 853
f 852 858 859
f 853 860 854
f 853 859 860
f 854 855 849
f 854 860 855
f 855 862 856
f 855 861 862
f 856 863 857
f 856 862 863
f 857 864 858
f 857 863 864
f 858 865 859
f 858 864 865
f 859 866 860
f 859 865 866
f 860 861 855
f 860 866 861
f 861 868 862
f 861 867 868
f 862 869 863
f 862 868 869
f 863 870 864
f 863 869 870
f 864 871 865
f 864 870 871
f 865 872 866
f 865 871 872
f 866 867 861
f 866 872 867
v 0.975746 1.292325 -1.816786
v 0.999057 1.301359 -1.841786
v 0.975746 1.292325 -1.866786
v 0.952435 1.283291 -1.841786
v 0.753452 1.865904 -1.823786
v 0.770235 1.872409 -1.841786
v 0.753452 1.865904 -1.859786
v 0.736668 1.859400 -1.841786
f 873 874 878
f 873 878 877
f 874 875 879
f 874 879 878
f 875 876 880
f 875 880 879
f 876 873 877
f 876 877 880
v 0.796621 0.450000 -1.816786
v 0.819531 0.439993 -1.841786
v 0.796621 0.450000 -1.866786
v 0.773711 0.460007 -1.841786
v 1.020339 0.962181 -1.823786
v 1.036834 0.954976 -1.841786
v 1.020339 0.962181 -1.859786
v 1.003844 0.969386 -1.841786
f 881 882 886
f 881 886 885
f 882 883 887
f 882 887 886
f 883 884 888
f 883 888 887
f 884 881 885
f 884 885 888
v 1.020339 0.997181 -1.841786
v 1.020339 0.997181 -1.841786
v 1.020339 0.997181 -1.841786
v 1.020339 0.997181 -1.841786
v 1.020339 0.997181 -1.841786
v 1.020339 0.997181 -1.841786
v 1.080961 0.979681 -1.841786
v 1.050650 0.979681 -1.894286
v 0.990028 0.979681 -1.894286
v 0.959718 0.979681 -1.841786
v 0.990028 0.979681 -1.789286
v 1.050650 0.979681 -1.789286
v 1.080961 0.944681 -1.841786
v 1.050650 0.944681 -1.894286
v 0.990028 0.944681 -1.894286
v 0.959718 0.944681 -1.841786
v 0.990028 0.944681 -1.789286
v 1.050650 0.944681 -1.789286
v 1.020339 0.927181 -1.841786
v 1.020339 0.927181 -1.841786
v 1.020339 0.927181 -1.841786
v 1.020339 0.927181 -1.841786
v 1.020339 0.927181 -1.841786
v 1.020339 0.927181 -1.841786
f 889 896 890
f 889 895 896
f 890 897 891
f 890 896 897
f 891 898 892
f 891 897 898
f 892 899 893
f 892 898 899
f 893 900 894
f 893 899 900
f 894 895 889
f 894 900 895
f 895 902 896
f 895 901 902
f 896 903 897
f 896 902 903
f 897 904 898
f 897 903 904
f 898 905 899
f 898 904 905
f 899 906 900
f 899 905 906
f 900 901 895
f 900 906 901
f 901 908 902
f 901 907 908
f 902 909 903
f 902 908 909
f 903 910 904
f 903 909 910
f 904 911 905
f 904 910 911
f 905 912 906
f 905 911 912
f 906 907 901
f 906 912 907
v 1.020339 0.962181 -1.816786
v 1.044979 0.966411 -1.841786
v 1.020339 0.962181 -1.866786
v 0.995700 0.957951 -1.841786
v 0.922683 1.531025 -1.823786
v 0.940423 1.534071 -1.841786
v 0.922683 1.531025 -1.859786
v 0.904942 1.527980 -1.841786
f 913 914 918
f 913 918 917
f 914 915 919
f 914 919 918
f 915 916 920
f 915 920 919
f 916 913 917
f 916 917 920
v 0.922683 1.566025 -1.841786
v 0.922683 1.566025 -1.841786
v 0.922683 1.566025 -1.841786
v 0.922683 1.566025 -1.841786
v 0.922683 1.566025 -1.841786
v 0.922683 1.566025 -1.841786
v 0.983305 1.548525 -1.841786
v 0.952994 1.548525 -1.894286
v 0.892372 1.548525 -1.894286
v 0.862061 1.548525 -1.841786
v 0.892372 1.548525 -1.789286
v 0.952994 1.548525 -1.789286
v 0.983305 1.513525 -1.841786
v 0.952994 1.513525 -1.894286
v 0.892372 1.513525 -1.894286
v 0.862061 1.513525 -1.841786
v 0.892372 1.513525 -1.789286
v 0.952994 1.513525 -1.789286
v 0.922683 1.496025 -1.841786
v 0.922683 1.496025 -1.841786
v 0.922683 1.496025 -1.841786
v 0.922683 1.496025 -1.841786
v 0.922683 1.496025 -1.841786
v 0.922683 1.496025 -1.841786
f 921 928 922
f 921 927 928
f 922 929 923
f 922 928 929
f 923 930 924
f 923 929 930
f 924 931 925
f 924 930 931
f 925 932 926
f 925 931 932
f 926 927 921
f 926 932 927
f 927 934 928
f 927 933 934
f 928 935 929
f 928 934 935
f 929 936 930
f 929 935 936
f 930 937 931
f 930 936 937
f 931 938 932
f 931 937 938
f 932 933 927
f 932 938 933
f 933 940 934
f 933 939 940
f 934 941 935
f 934 940 941
f 935 942 936
f 935 941 942
f 936 943 937
f 936 942 943
f 937 944 938
f 937 943 944
f 938 939 933
f 938 944 939
v 0.922683 1.531025 -1.816786
v 0.946020 1.522060 -1.841786
v 0.922683 1.531025 -1.866786
v 0.899345 1.539990 -1.841786
v 1.170890 2.177176 -1.823786
v 1.187693 2.170721 -1.841786
v 1.170890 2.177176 -1.859786
v 1.154088 2.183630 -1.841786
f 945 946 950
f 945 950 949
f 946 947 951
f 946 951 950
f 947 948 952
f 947 952 951
f 948 945 949
f 948 949 952
v 1.170890 2.212176 -1.841786
v 1.170890 2.212176 -1.841786
v 1.170890 2.212176 -1.841786
v 1.170890 2.212176 -1.841786
v 1.170890 2.212176 -1.841786
v 1.170890 2.212176 -1.841786
v 1.231512 2.194676 -1.841786
v 1.201201 2.194676 -1.894286
v 1.140580 2.194676 -1.894286
v 1.110269 2.194676 -1.841786
v 1.140580 2.194676 -1.789286
v 1.201201 2.194676 -1.789286
v 1.231512 2.159676 -1.841786
v 1.201201 2.159676 -1.894286
v 1.140580 2.159676 -1.894286
v 1.110269 2.159676 -1.841786
v 1.140580 2.159676 -1.789286
v 1.201201 2.159676 -1.789286
v 1.170890 2.142176 -1.841786
v 1.170890 2.142176 -1.841786
v 1.170890 2.142176 -1.841786
v 1.170890 2.142176 -1.841786
v 1.170890 2.142176 -1.841786
v 1.170890 2.142176 -1.841786
f 953 960 954
f 953 959 960
f 954 961 955
f 954 960 961
f 955 962 956
f 955 961 962
f 956 963 957
f 956 962 963
f 957 964 958
f 957 963 964
f 958 959 953
f 958 964 959
f 959 966 960
f 959 965 966
f 960 967 961
f 960 966 967
f 961 968 962
f 961 967 968
f 962 969 963
f 962 968 969
f 963 970 964
f 963 969 970
f 964 965 959
f 964 970 965
f 965 972 966
f 965 971 972
f 966 973 967
f 966 972 973
f 967 974 968
f 967 973 974
f 968 975 969
f 968 974 975
f 969 976 970
f 969 975 976
f 970 971 965
f 970 976 971
v 1.170890 2.177176 -1.816786
v 1.195285 2.171708 -1.841786
v 1.170890 2.177176 -1.866786
v 1.146496 2.182644 -1.841786
v 1.293253 2.723052 -1.823786
v 1.310818 2.719114 -1.841786
v 1.293253 2.723052 -1.859786
v 1.275689 2.726989 -1.841786
f 977 978 982
f 977 982 981
f 978 979 983
f 978 983 982
f 979 980 984
f 979 984 983
f 980 977 981
f 980 981 984
v 1.293253 2.758052 -1.841786
v 1.293253 2.758052 -1.841786
v 1.293253 2.758052 -1.841786
v 1.293253 2.758052 -1.841786
v 1.293253 2.758052 -1.841786
v 1.293253 2.758052 -1.841786
v 1.353875 2.740552 -1.841786
v 1.323564 2.740552 -1.894286
v 1.262943 2.740552 -1.894286
v 1.232632 2.740552 -1.841786
v 1.262943 2.740552 -1.789286
v 1.323564 2.740552 -1.789286
v 1.353875 2.705552 -1.841786
v 1.323564 2.705552 -1.894286
v 1.262943 2.705552 -1.894286
v 1.232632 2.705552 -1.841786
v 1.262943 2.705552 -1.789286
v 1.323564 2.705552 -1.789286
v 1.293253 2.688052 -1.841786
v 1.293253 2.688052 -1.841786
v 1.293253 2.688052 -1.841786
v 1.293253 2.688052 -1.841786
v 1.293253 2.688052 -1.841786
v 1.293253 2.688052 -1.841786
f 985 992 986
f 985 991 992
f 986 993 987
f 986 992 993
f 987 994 988
f 987 993 994
f 988 995 989
f 988 994 995
f 989 996 990
f 989 995 996
f 990 991 985
f 990 996 991
f 991 998 992
f 991 997 998
f 992 999 993
f 992 998 999
f 993 1000 994
f 993 999 1000
f 994 1001 995
f 994 1000 1001
f 995 1002 996
f 995 1001 1002
f 996 997 991
f 996 1002 997
f 997 1004 998
f 997 1003 1004
f 998 1005 999
f 998 1004 1005
f 999 1006 1000
f 999 1005 1006
f 1000 1007 1001
f 1000 1006 1007
f 1001 1008 1002
f 1001 1007 1008
f 1002 1003 997
f 1002 1008 1003
v 2.262233 0.443605 -0.335404
v 2.287233 0.450000 -0.359572
v 2.262233 0.456395 -0.383740
v 2.237233 0.450000 -0.359572
v 2.262233 1.141186 -0.158074
v 2.280233 1.145790 -0.175475
v 2.262233 1.150394 -0.192876
v 2.244233 1.145790 -0.175475
f 1009 1010 1014
f 1009 1014 1013
f 1010 1011 1015
f 1010 1015 1014
f 1011 1012 1016
f 1011 1016 1015
f 1012 1009 1013
f 1012 1013 1016
v 2.262233 1.180790 -0.175475
v 2.262233 1.180790 -0.175475
v 2.262233 1.180790 -0.175475
v 2.262233 1.180790 -0.175475
v 2.262233 1.180790 -0.175475
v 2.262233 1.180790 -0.175475
v 2.322855 1.163290 -0.175475
v 2.292544 1.163290 -0.227975
v 2.231922 1.163290 -0.227975
v 2.201611 1.163290 -0.175475
v 2.231922 1.163290 -0.122975
v 2.292544 1.163290 -0.122975
v 2.322855 1.128290 -0.175475
v 2.292544 1.128290 -0.227975
v 2.231922 1.128290 -0.227975
v 2.201611 1.128290 -0.175475
v 2.231922 1.128290 -0.122975
v 2.292544 1.128290 -0.122975
v 2.262233 1.110790 -0.175475
v 2.262233 1.110790 -0.175475
v 2.262233 1.110790 -0.175475
v 2.262233 1.110790 -0.175475
v 2.262233 1.110790 -0.175475
v 2.262233 1.110790 -0.175475
f 1017 1024 1018
f 1017 1023 1024
f 1018 1025 1019
f 1018 1024 1025
f 1019 1026 1020
f 1019 1025 1026
f 1020 1027 1021
f 1020 1026 1027
f 1021 1028 1022
f 1021 1027 1028
f 1022 1023 1017
f 1022 1028 1023
f 1023 1030 1024
f 1023 1029 1030
f 1024 1031 1025
f 1024 1030 1031
f 1025 1032 1026
f 1025 1031 1032
f 1026 1033 1027
f 1026 1032 1033
f 1027 1034 1028
f 1027 1033 1034
f 1028 1029 1023
f 1028 1034 1029
f 1029 1036 1030
f 1029 1035 1036
f 1030 1037 1031
f 1030 1036 1037
f 1031 1038 1032
f 1031 1037 1038
f 1032 1039 1033
f 1032 1038 1039
f 1033 1040 1034
f 1033 1039 1040
f 1034 1035 1029
f 1034 1040 1035
v 2.262233 1.147254 -0.150518
v 2.287233 1.145790 -0.175475
v 2.262233 1.144327 -0.200432
v 2.237233 1.145790 -0.175475
v 2.262233 1.702199 -0.190074
v 2.280233 1.701145 -0.208043
v 2.262233 1.700092 -0.226012
v 2.244233 1.701145 -0.208043
f 1041 1042 1046
f 1041 1046 1045
f 1042 1043 1047
f 1042 1047 1046
f 1043 1044 1048
f 1043 1048 1047
f 1044 1041 1045
f 1044 1045 1048
v 2.262233 1.736145 -0.208043
v 2.262233 1.736145 -0.208043
v 2.262233 1.736145 -0.208043
v 2.262233 1.736145 -0.208043
v 2.262233 1.736145 -0.208043
v 2.262233 1.736145 -0.208043
v 2.322855 1.718645 -0.208043
v 2.292544 1.718645 -0.260543
v 2.231922 1.718645 -0.260543
v 2.201611 1.718645 -0.208043
v 2.231922 1.718645 -0.155543
v 2.292544 1.718645 -0.155543
v 2.322855 1.683645 -0.208043
v 2.292544 1.683645 -0.260543
v 2.231922 1.683645 -0.260543
v 2.201611 1.683645 -0.208043
v 2.231922 1.683645 -0.155543
v 2.292544 1.683645 -0.155543
v 2.262233 1.666145 -0.208043
v 2.262233 1.666145 -0.208043
v 2.262233 1.666145 -0.208043
v 2.262233 1.666145 -0.208043
v 2.262233 1.666145 -0.208043
v 2.262233 1.666145 -0.208043
f 1049 1056 1050
f 1049 1055 1056
f 1050 1057 1051
f 1050 1056 1057
f 1051 1058 1052
f 1051 1057 1058
f 1052 1059 1053
f 1052 1058 1059
f 1053 1060 1054
f 1053 1059 1060
f 1054 1055 1049
f 1054 1060 1055
f 1055 1062 1056
f 1055 1061 1062
f 1056 1063 1057
f 1056 1062 1063
f 1057 1064 1058
f 1057 1063 1064
f 1058 1065 1059
f 1058 1064 1065
f 1059 1066 1060
f 1059 1065 1066
f 1060 1061 1055
f 1060 1066 1061
f 1061 1068 1062
f 1061 1067 1068
f 1062 1069 1063
f 1062 1068 1069
f 1063 1070 1064
f 1063 1069 1070
f 1064 1071 1065
f 1064 1070 1071
f 1065 1072 1066
f 1065 1071 1072
f 1066 1067 1061
f 1066 1072 1067
v 2.262233 1.705180 -0.183370
v 2.287233 1.701145 -0.208043
v 2.262233 1.697110 -0.232715
v 2.237233 1.701145 -0.208043
v 2.262233 2.297024 -0.287254
v 2.280233 2.294119 -0.305018
v 2.262233 2.291214 -0.322782
v 2.244233 2.294119 -0.305018
f 1073 1074 1078
f 1073 1078 1077
f 1074 1075 1079
f 1074 1079 1078
f 1075 1076 1080
f 1075 1080 1079
f 1076 1073 1077
f 1076 1077 1080
v 2.262233 2.329119 -0.305018
v 2.262233 2.329119 -0.305018
v 2.262233 2.329119 -0.305018
v 2.262233 2.329119 -0.305018
v 2.262233 2.329119 -0.305018
v 2.262233 2.329119 -0.305018
v 2.322855 2.311619 -0.305018
v 2.292544 2.311619 -0.357518
v 2.231922 2.311619 -0.357518
v 2.201611 2.311619 -0.305018
v 2.231922 2.311619 -0.252518
v 2.292544 2.311619 -0.252518
v 2.322855 2.276619 -0.305018
v 2.292544 2.276619 -0.357518
v 2.231922 2.276619 -0.357518
v 2.201611 2.276619 -0.305018
v 2.231922 2.276619 -0.252518
v 2.292544 2.276619 -0.252518
v 2.262233 2.259119 -0.305018
v 2.262233 2.259119 -0.305018
v 2.262233 2.259119 -0.305018
v 2.262233 2.259119 -0.305018
v 2.262233 2.259119 -0.305018
v 2.262233 2.259119 -0.305018
f 1081 1088 1082
f 1081 1087 1088
f 1082 1089 1083
f 1082 1088 1089
f 1083 1090 1084
f 1083 1089 1090
f 1084 1091 1085
f 1084 1090 1091
f 1085 1092 1086
f 1085 1091 1092
f 1086 1087 1081
f 1086 1092 1087
f 1087 1094 1088
f 1087 1093 1094
f 1088 1095 1089
f 1088 1094 1095
f 1089 1096 1090
f 1089 1095 1096
f 1090 1097 1091
f 1090 1096 1097
f 1091 1098 1092
f 1091 1097 1098
f 1092 1093 1087
f 1092 1098 1093
f 1093 1100 1094
f 1093 1099 1100
f 1094 1101 1095
f 1094 1100 1101
f 1095 1102 1096
f 1095 1101 1102
f 1096 1103 1097
f 1096 1102 1103
f 1097 1104 1098
f 1097 1103 1104
f 1098 1099 1093
f 1098 1104 1099
v -0.859047 0.450000 -1.816786
v -0.835810 0.459223 -1.841786
v -0.859047 0.450000 -1.866786
v -0.882283 0.440777 -1.841786
v -1.094515 1.043224 -1.823786
v -1.077785 1.049865 -1.841786
v -1.094515 1.043224 -1.859786
v -1.111246 1.036584 -1.841786
f 1105 1106 1110
f 1105 1110 1109
f 1106 1107 1111
f 1106 1111 1110
f 1107 1108 1112
f 1107 1112 1111
f 1108 1105 1109
f 1108 1109 1112
v -1.094515 1.078224 -1.841786
v -1.094515 1.078224 -1.841786
v -1.094515 1.078224 -1.841786
v -1.094515 1.078224 -1.841786
v -1.094515 1.078224 -1.841786
v -1.094515 1.078224 -1.841786
v -1.033894 1.060724 -1.841786
v -1.064205 1.060724 -1.894286
v -1.124826 1.060724 -1.894286
v -1.155137 1.060724 -1.841786
v -1.124826 1.060724 -1.789286
v -1.064205 1.060724 -1.789286
v -1.033894 1.025724 -1.841786
v -1.064205 1.025724 -1.894286
v -1.124826 1.025724 -1.894286
v -1.155137 1.025724 -1.841786
v -1.124826 1.025724 -1.789286
v -1.064205 1.025724 -1.789286
v -1.094515 1.008224 -1.841786
v -1.094515 1.008224 -1.841786
v -1.094515 1.008224 -1.841786
v -1.094515 1.008224 -1.841786
v -1.094515 1.008224 -1.841786
v -1.094515 1.008224 -1.841786
f 1113 1120 1114
f 1113 1119 1120
f 1114 1121 1115
f 1114 1120 1121
f 1115 1122 1116
f 1115 1121 1122
f 1116 1123 1117
f 1116 1122 1123
f 1117 1124 1118
f 1117 1123 1124
f 1118 1119 1113
f 1118 1124 1119
f 1119 1126 1120
f 1119 1125 1126
f 1120 1127 1121
f 1120 1126 1127
f 1121 1128 1122
f 1121 1127 1128
f 1122 1129 1123
f 1122 1128 1129
f 1123 1130 1124
f 1123 1129 1130
f 1124 1125 1119
f 1124 1130 1125
f 1125 1132 1126
f 1125 1131 1132
f 1126 1133 1127
f 1126 1132 1133
f 1127 1134 1128
f 1127 1133 1134
f 1128 1135 1129
f 1128 1134 1135
f 1129 1136 1130
f 1129 1135 1136
f 1130 1131 1125
f 1130 1136 1131
v -1.094515 1.043224 -1.816786
v -1.070271 1.037123 -1.841786
v -1.094515 1.043224 -1.866786
v -1.118759 1.049326 -1.841786
v -1.001935 1.411087 -1.823786
v -0.984479 1.406694 -1.841786
v -1.001935 1.411087 -1.859786
v -1.019391 1.415480 -1.841786
f 1137 1138 1142
f 1137 1142 1141
f 1138 1139 1143
f 1138 1143 1142
f 1139 1140 1144
f 1139 1144 1143
f 1140 1137 1141
f 1140 1141 1144
v -1.001935 1.446087 -1.841786
v -1.001935 1.446087 -1.841786
v -1.001935 1.446087 -1.841786
v -1.001935 1.446087 -1.841786
v -1.001935 1.446087 -1.841786
v -1.001935 1.446087 -1.841786
v -0.941313 1.428587 -1.841786
v -0.971624 1.428587 -1.894286
v -1.032246 1.428587 -1.894286
v -1.062557 1.428587 -1.841786
v -1.032246 1.428587 -1.789286
v -0.971624 1.428587 -1.789286
v -0.941313 1.393587 -1.841786
v -0.971624 1.393587 -1.894286
v -1.032246 1.393587 -1.894286
v -1.062557 1.393587 -1.841786
v -1.032246 1.393587 -1.789286
v -0.971624 1.393587 -1.789286
v -1.001935 1.376087 -1.841786
v -1.001935 1.376087 -1.841786
v -1.001935 1.376087 -1.841786
v -1.001935 1.376087 -1.841786
v -1.001935 1.376087 -1.841786
v -1.001935 1.376087 -1.841786
f 1145 1152 1146
f 1145 1151 1152
f 1146 1153 1147
f 1146 1152 1153
f 1147 1154 1148
f 1147 1153 1154
f 1148 1155 1149
f 1148 1154 1155
f 1149 1156 1150
f 1149 1155 1156
f 1150 1151 1145
f 1150 1156 1151
f 1151 1158 1152
f 1151 1157 1158
f 1152 1159 1153
f 1152 1158 1159
f 1153 1160 1154
f 1153 1159 1160
f 1154 1161 1155
f 1154 1160 1161
f 1155 1162 1156
f 1155 1161 1162
f 1156 1157 1151
f 1156 1162 1157
f 1157 1164 1158
f 1157 1163 1164
f 1158 1165 1159
f 1158 1164 1165
f 1159 1166 1160
f 1159 1165 1166
f 1160 1167 1161
f 1160 1166 1167
f 1161 1168 1162
f 1161 1167 1168
f 1162 1163 1157
f 1162 1168 1163
v -1.001935 1.411087 -1.816786
v -0.978871 1.401441 -1.841786
v -1.001935 1.411087 -1.866786
v -1.024999 1.420733 -1.841786
v -0.827555 1.828033 -1.823786
v -0.810949 1.821088 -1.841786
v -0.827555 1.828033 -1.859786
v -0.844161 1.834978 -1.841786
f 1169 1170 1174
f 1169 1174 1173
f 1170 1171 1175
f 1170 1175 1174
f 1171 1172 1176
f 1171 1176 1175
f 1172 1169 1173
f 1172 1173 1176
v -0.827555 1.863033 -1.841786
v -0.827555 1.863033 -1.841786
v -0.827555 1.863033 -1.841786
v -0.827555 1.863033 -1.841786
v -0.827555 1.863033 -1.841786
v -0.827555 1.863033 -1.841786
v -0.766933 1.845533 -1.841786
v -0.797244 1.845533 -1.894286
v -0.857866 1.845533 -1.894286
v -0.888177 1.845533 -1.841786
v -0.857866 1.845533 -1.789286
v -0.797244 1.845533 -1.789286
v -0.766933 1.810533 -1.841786
v -0.797244 1.810533 -1.894286
v -0.857866 1.810533 -1.894286
v -0.888177 1.810533 -1.841786
v -0.857866 1.810533 -1.789286
v -0.797244 1.810533 -1.789286
v -0.827555 1.793033 -1.841786
v -0.827555 1.793033 -1.841786
v -0.827555 1.793033 -1.841786
v -0.827555 1.793033 -1.841786
v -0.827555 1.793033 -1.841786
v -0.827555 1.793033 -1.841786
f 1177 1184 1178
f 1177 1183 1184
f 1178 1185 1179
f 1178 1184 1185
f 1179 1186 1180
f 1179 1185 1186
f 1180 1187 1181
f 1180 1186 1187
f 1181 1188 1182
f 1181 1187 1188
f 1182 1183 1177
f 1182 1188 1183
f 1183 1190 1184
f 1183 1189 1190
f 1184 1191 1185
f 1184 1190 1191
f 1185 1192 1186
f 1185 1191 1192
f 1186 1193 1187
f 1186 1192 1193
f 1187 1194 1188
f 1187 1193 1194
f 1188 1189 1183
f 1188 1194 1189
f 1189 1196 1190
f 1189 1195 1196
f 1190 1197 1191
f 1190 1196 1197
f 1191 1198 1192
f 1191 1197 1198
f 1192 1199 1193
f 1192 1198 1199
f 1193 1200 1194
f 1193 1199 1200
f 1194 1195 1189
f 1194 1200 1195
v -0.827555 1.828033 -1.816786
v -0.802886 1.823980 -1.841786
v -0.827555 1.828033 -1.866786
v -0.852224 1.832086 -1.841786
v -0.758928 2.245710 -1.823786
v -0.741166 2.242792 -1.841786
v -0.758928 2.245710 -1.859786
v -0.776690 2.248629 -1.841786
f 1201 1202 1206
f 1201 1206 1205
f 1202 1203 1207
f 1202 1207 1206
f 1203 1204 1208
f 1203 1208 1207
f 1204 1201 1205
f 1204 1205 1208
v -0.758928 2.280710 -1.841786
v -0.758928 2.280710 -1.841786
v -0.758928 2.280710 -1.841786
v -0.758928 2.280710 -1.841786
v -0.758928 2.280710 -1.841786
v -0.758928 2.280710 -1.841786
v -0.698306 2.263210 -1.841786
v -0.728617 2.263210 -1.894286
v -0.789239 2.263210 -1.894286
v -0.819550 2.263210 -1.841786
v -0.789239 2.263210 -1.789286
v -0.728617 2.263210 -1.789286
v -0.698306 2.228210 -1.841786
v -0.728617 2.228210 -1.894286
v -0.789239 2.228210 -1.894286
v -0.819550 2.228210 -1.841786
v -0.789239 2.228210 -1.789286
v -0.728617 2.228210 -1.789286
v -0.758928 2.210710 -1.841786
v -0.758928 2.210710 -1.841786
v -0.758928 2.210710 -1.841786
v -0.758928 2.210710 -1.841786
v -0.758928 2.210710 -1.841786
v -0.758928 2.210710 -1.841786
f 1209 1216 1210
f 1209 1215 1216
f 1210 1217 1211
f 1210 1216 1217
f 1211 1218 1212
f 1211 1217 1218
f 1212 1219 1213
f 1212 1218 1219
f 1213 1220 1214
f 1213 1219 1220
f 1214 1215 1209
f 1214 1220 1215
f 1215 1222 1216
f 1215 1221 1222
f 1216 1223 1217
f 1216 1222 1223
f 1217 1224 1218
f 1217 1223 1224
f 1218 1225 1219
f 1218 1224 1225
f 1219 1226 1220
f 1219 1225 1226
f 1220 1221 1215
f 1220 1226 1221
f 1221 1228 1222
f 1221 1227 1228
f 1222 1229 1223
f 1222 1228 1229
f 1223 1230 1224
f 1223 1229 1230
f 1224 1231 1225
f 1224 1230 1231
f 1225 1232 1226
f 1225 1231 1232
f 1226 1227 1221
f 1226 1232 1227
v -0.758928 2.245710 -1.816786
v -0.734984 2.238521 -1.841786
v -0.758928 2.245710 -1.866786
v -0.782872 2.252900 -1.841786
v -0.586427 2.820220 -1.823786
v -0.569188 2.815043 -1.841786
v -0.586427 2.820220 -1.859786
v -0.603667 2.825396 -1.841786
f 1233 1234 1238
f 1233 1238 1237
f 1234 1235 1239
f 1234 1239 1238
f 1235 1236 1240
f 1235 1240 1239
f 1236 1233 1237
f 1236 1237 1240
v 2.262233 0.446651 -0.368650
v 2.287233 0.450000 -0.393424
v 2.262233 0.453349 -0.418199
v 2.237233 0.450000 -0.393424
v 2.262233 1.064638 -0.292168
v 2.280233 1.067049 -0.310006
v 2.262233 1.069461 -0.327844
v 2.244233 1.067049 -0.310006
f 1241 1242 1246
f 1241 1246 1245
f 1242 1243 1247
f 1242 1247 1246
f 1243 1244 1248
f 1243 1248 1247
f 1244 1241 1245
f 1244 1245 1248
v 2.262233 1.102049 -0.310006
v 2.262233 1.102049 -0.310006
v 2.262233 1.102049 -0.310006
v 2.262233 1.102049 -0.310006
v 2.262233 1.102049 -0.310006
v 2.262233 1.102049 -0.310006
v 2.322855 1.084549 -0.310006
v 2.292544 1.084549 -0.362506
v 2.231922 1.084549 -0.362506
v 2.201611 1.084549 -0.310006
v 2.231922 1.084549 -0.257506
v 2.292544 1.084549 -0.257506
v 2.322855 1.049549 -0.310006
v 2.292544 1.049549 -0.362506
v 2.231922 1.049549 -0.362506
v 2.201611 1.049549 -0.310006
v 2.231922 1.049549 -0.257506
v 2.292544 1.049549 -0.257506
v 2.262233 1.032049 -0.310006
v 2.262233 1.032049 -0.310006
v 2.262233 1.032049 -0.310006
v 2.262233 1.032049 -0.310006
v 2.262233 1.032049 -0.310006
v 2.262233 1.032049 -0.310006
f 1249 1256 1250
f 1249 1255 1256
f 1250 1257 1251
f 1250 1256 1257
f 1251 1258 1252
f 1251 1257 1258
f 1252 1259 1253
f 1252 1258 1259
f 1253 1260 1254
f 1253 1259 1260
f 1254 1255 1249
f 1254 1260 1255
f 1255 1262 1256
f 1255 1261 1262
f 1256 1263 1257
f 1256 1262 1263
f 1257 1264 1258
f 1257 1263 1264
f 1258 1265 1259
f 1258 1264 1265
f 1259 1266 1260
f 1259 1265 1266
f 1260 1261 1255
f 1260 1266 1261
f 1261 1268 1262
f 1261 1267 1268
f 1262 1269 1263
f 1262 1268 1269
f 1263 1270 1264
f 1263 1269 1270
f 1264 1271 1265
f 1264 1270 1271
f 1265 1272 1266
f 1265 1271 1272
f 1266 1267 1261
f 1266 1272 1267
v 2.262233 1.071311 -0.285372
v 2.287233 1.067049 -0.310006
v 2.262233 1.062788 -0.334640
v 2.237233 1.067049 -0.310006
v 2.262233 1.620069 -0.387402
v 2.280233 1.617001 -0.405138
v 2.262233 1.613933 -0.422875
v 2.244233 1.617001 -0.405138
f 1273 1274 1278
f 1273 1278 1277
f 1274 1275 1279
f 1274 1279 1278
f 1275 1276 1280
f 1275 1280 1279
f 1276 1273 1277
f 1276 1277 1280
v 2.262233 1.622279 -0.380702
v 2.287233 1.617001 -0.405138
v 2.262233 1.611724 -0.429575
v 2.237233 1.617001 -0.405138
v 2.262233 2.148253 -0.501453
v 2.280233 2.144453 -0.519047
v 2.262233 2.140653 -0.536642
v 2.244233 2.144453 -0.519047
f 1281 1282 1286
f 1281 1286 1285
f 1282 1283 1287
f 1282 1287 1286
f 1283 1284 1288
f 1283 1288 1287
f 1284 1281 1285
f 1284 1285 1288
v 2.262233 2.137816 -0.494944
v 2.287233 2.144453 -0.519047
v 2.262233 2.151090 -0.543150
v 2.237233 2.144453 -0.519047
v 2.262233 2.815815 -0.315513
v 2.280233 2.820594 -0.332867
v 2.262233 2.825373 -0.350222
v 2.244233 2.820594 -0.332867
f 1289 1290 1294
f 1289 1294 1293
f 1290 1291 1295
f 1290 1295 1294
f 1291 1292 1296
f 1291 1296 1295
f 1292 1289 1293
f 1292 1293 1296
v 2.262233 2.828748 -0.309234
v 2.287233 2.820594 -0.332867
v 2.262233 2.812441 -0.356501
v 2.237233 2.820594 -0.332867
v 2.262233 3.445033 -0.529259
v 2.280233 3.439163 -0.546275
v 2.262233 3.433292 -0.563291
v 2.244233 3.439163 -0.546275
f 1297 1298 1302
f 1297 1302 1301
f 1298 1299 1303
f 1298 1303 1302
f 1299 1300 1304
f 1299 1304 1303
f 1300 1297 1301
f 1300 1301 1304
v 2.262233 3.432828 -0.522091
v 2.287233 3.439163 -0.546275
v 2.262233 3.445498 -0.570459
v 2.237233 3.439163 -0.546275
v 2.262233 3.832046 -0.424752
v 2.280233 3.836607 -0.442165
v 2.262233 3.841168 -0.459577
v 2.244233 3.836607 -0.442165
f 1305 1306 1310
f 1305 1310 1309
f 1306 1307 1311
f 1306 1311 1310
f 1307 1308 1312
f 1307 1312 1311
f 1308 1305 1309
f 1308 1309 1312
v 2.262233 3.871607 -0.442165
v 2.262233 3.871607 -0.442165
v 2.262233 3.871607 -0.442165
v 2.262233 3.871607 -0.442165
v 2.262233 3.871607 -0.442165
v 2.262233 3.871607 -0.442165
v 2.322855 3.854107 -0.442165
v 2.292544 3.854107 -0.494665
v 2.231922 3.854107 -0.494665
v 2.201611 3.854107 -0.442165
v 2.231922 3.854107 -0.389665
v 2.292544 3.854107 -0.389665
v 2.322855 3.819107 -0.442165
v 2.292544 3.819107 -0.494665
v 2.231922 3.819107 -0.494665
v 2.201611 3.819107 -0.442165
v 2.231922 3.819107 -0.389665
v 2.292544 3.819107 -0.389665
v 2.262233 3.801607 -0.442165
v 2.262233 3.801607 -0.442165
v 2.262233 3.801607 -0.442165
v 2.262233 3.801607 -0.442165
v 2.262233 3.801607 -0.442165
v 2.262233 3.801607 -0.442165
f 1313 1320 1314
f 1313 1319 1320
f 1314 1321 1315
f 1314 1320 1321
f 1315 1322 1316
f 1315 1321 1322
f 1316 1323 1317
f 1316 1322 1323
f 1317 1324 1318
f 1317 1323 1324
f 1318 1319 1313
f 1318 1324 1319
f 1319 1326 1320
f 1319 1325 1326
f 1320 1327 1321
f 1320 1326 1327
f 1321 1328 1322
f 1321 1327 1328
f 1322 1329 1323
f 1322 1328 1329
f 1323 1330 1324
f 1323 1329 1330
f 1324 1325 1319
f 1324 1330 1325
f 1325 1332 1326
f 1325 1331 1332
f 1326 1333 1327
f 1326 1332 1333
f 1327 1334 1328
f 1327 1333 1334
f 1328 1335 1329
f 1328 1334 1335
f 1329 1336 1330
f 1329 1335 1336
f 1330 1331 1325
f 1330 1336 1331
v 2.262233 0.447020 -0.950029
v 2.287233 0.450000 -0.974850
v 2.262233 0.452980 -0.999672
v 2.237233 0.450000 -0.974850
v 2.262233 0.834557 -0.910555
v 2.280233 0.836703 -0.928427
v 2.262233 0.838848 -0.946299
v 2.244233 0.836703 -0.928427
f 1337 1338 1342
f 1337 1342 1341
f 1338 1339 1343
f 1338 1343 1342
f 1339 1340 1344
f 1339 1344 1343
f 1340 1337 1341
f 1340 1341 1344
v 2.262233 0.871703 -0.928427
v 2.262233 0.871703 -0.928427
v 2.262233 0.871703 -0.928427
v 2.262233 0.871703 -0.928427
v 2.262233 0.871703 -0.928427
v 2.262233 0.871703 -0.928427
v 2.322855 0.854203 -0.928427
v 2.292544 0.854203 -0.980927
v 2.231922 0.854203 -0.980927
v 2.201611 0.854203 -0.928427
v 2.231922 0.854203 -0.875927
v 2.292544 0.854203 -0.875927
v 2.322855 0.819203 -0.928427
v 2.292544 0.819203 -0.980927
v 2.231922 0.819203 -0.980927
v 2.201611 0.819203 -0.928427
v 2.231922 0.819203 -0.875927
v 2.292544 0.819203 -0.875927
v 2.262233 0.801703 -0.928427
v 2.262233 0.801703 -0.928427
v 2.262233 0.801703 -0.928427
v 2.262233 0.801703 -0.928427
v 2.262233 0.801703 -0.928427
v 2.262233 0.801703 -0.928427
f 1345 1352 1346
f 1345 1351 1352
f 1346 1353 1347
f 1346 1352 1353
f 1347 1354 1348
f 1347 1353 1354
f 1348 1355 1349
f 1348 1354 1355
f 1349 1356 1350
f 1349 1355 1356
f 1350 1351 1345
f 1350 1356 1351
f 1351 1358 1352
f 1351 1357 1358
f 1352 1359 1353
f 1352 1358 1359
f 1353 1360 1354
f 1353 1359 1360
f 1354 1361 1355
f 1354 1360 1361
f 1355 1362 1356
f 1355 1361 1362
f 1356 1357 1351
f 1356 1362 1357
f 1357 1364 1358
f 1357 1363 1364
f 1358 1365 1359
f 1358 1364 1365
f 1359 1366 1360
f 1359 1365 1366
f 1360 1367 1361
f 1360 1366 1367
f 1361 1368 1362
f 1361 1367 1368
f 1362 1363 1357
f 1362 1368 1363
v 2.262233 0.833969 -0.903577
v 2.287233 0.836703 -0.928427
v 2.262233 0.839436 -0.953277
v 2.237233 0.836703 -0.928427
v 2.262233 1.426116 -0.845485
v 2.280233 1.428084 -0.863377
v 2.262233 1.430052 -0.881269
v 2.244233 1.428084 -0.863377
f 1369 1370 1374
f 1369 1374 1373
f 1370 1371 1375
f 1370 1375 1374
f 1371 1372 1376
f 1371 1376 1375
f 1372 1369 1373
f 1372 1373 1376
v 2.262233 1.435441 -0.839484
v 2.287233 1.428084 -0.863377
v 2.262233 1.420726 -0.887270
v 2.237233 1.428084 -0.863377
v 2.262233 1.942142 -1.002844
v 2.280233 1.936844 -1.020047
v 2.262233 1.931547 -1.037250
v 2.244233 1.936844 -1.020047
f 1377 1378 1382
f 1377 1382 1381
f 1378 1379 1383
f 1378 1383 1382
f 1379 1380 1384
f 1379 1384 1383
f 1380 1377 1381
f 1380 1381 1384
v 2.262233 1.971844 -1.020047
v 2.262233 1.971844 -1.020047
v 2.262233 1.971844 -1.020047
v 2.262233 1.971844 -1.020047
v 2.262233 1.971844 -1.020047
v 2.262233 1.971844 -1.020047
v 2.322855 1.954344 -1.020047
v 2.292544 1.954344 -1.072547
v 2.231922 1.954344 -1.072547
v 2.201611 1.954344 -1.020047
v 2.231922 1.954344 -0.967547
v 2.292544 1.954344 -0.967547
v 2.322855 1.919344 -1.020047
v 2.292544 1.919344 -1.072547
v 2.231922 1.919344 -1.072547
v 2.201611 1.919344 -1.020047
v 2.231922 1.919344 -0.967547
v 2.292544 1.919344 -0.967547
v 2.262233 1.901844 -1.020047
v 2.262233 1.901844 -1.020047
v 2.262233 1.901844 -1.020047
v 2.262233 1.901844 -1.020047
v 2.262233 1.901844 -1.020047
v 2.262233 1.901844 -1.020047
f 1385 1392 1386
f 1385 1391 1392
f 1386 1393 1387
f 1386 1392 1393
f 1387 1394 1388
f 1387 1393 1394
f 1388 1395 1389
f 1388 1394 1395
f 1389 1396 1390
f 1389 1395 1396
f 1390 1391 1385
f 1390 1396 1391
f 1391 1398 1392
f 1391 1397 1398
f 1392 1399 1393
f 1392 1398 1399
f 1393 1400 1394
f 1393 1399 1400
f 1394 1401 1395
f 1394 1400 1401
f 1395 1402 1396
f 1395 1401 1402
f 1396 1397 1391
f 1396 1402 1397
f 1397 1404 1398
f 1397 1403 1404
f 1398 1405 1399
f 1398 1404 1405
f 1399 1406 1400
f 1399 1405 1406
f 1400 1407 1401
f 1400 1406 1407
f 1401 1408 1402
f 1401 1407 1408
f 1402 1403 1397
f 1402 1408 1403
v 2.262233 1.941187 -0.995427
v 2.287233 1.936844 -1.020047
v 2.262233 1.932502 -1.044667
v 2.237233 1.936844 -1.020047
v 2.262233 2.406594 -1.084625
v 2.280233 2.403468 -1.102351
v 2.262233 2.400341 -1.120078
v 2.244233 2.403468 -1.102351
f 1409 1410 1414
f 1409 1414 1413
f 1410 1411 1415
f 1410 1415 1414
f 1411 1412 1416
f 1411 1416 1415
f 1412 1409 1413
f 1412 1413 1416
v 2.262233 2.438468 -1.102351
v 2.262233 2.438468 -1.102351
v 2.262233 2.438468 -1.102351
v 2.262233 2.438468 -1.102351
v 2.262233 2.438468 -1.102351
v 2.262233 2.438468 -1.102351
v 2.322855 2.420968 -1.102351
v 2.292544 2.420968 -1.154851
v 2.231922 2.420968 -1.154851
v 2.201611 2.420968 -1.102351
v 2.231922 2.420968 -1.049851
v 2.292544 2.420968 -1.049851
v 2.322855 2.385968 -1.102351
v 2.292544 2.385968 -1.154851
v 2.231922 2.385968 -1.154851
v 2.201611 2.385968 -1.102351
v 2.231922 2.385968 -1.049851
v 2.292544 2.385968 -1.049851
v 2.262233 2.368468 -1.102351
v 2.262233 2.368468 -1.102351
v 2.262233 2.368468 -1.102351
v 2.262233 2.368468 -1.102351
v 2.262233 2.368468 -1.102351
v 2.262233 2.368468 -1.102351
f 1417 1424 1418
f 1417 1423 1424
f 1418 1425 1419
f 1418 1424 1425
f 1419 1426 1420
f 1419 1425 1426
f 1420 1427 1421
f 1420 1426 1427
f 1421 1428 1422
f 1421 1427 1428
f 1422 1423 1417
f 1422 1428 1423
f 1423 1430 1424
f 1423 1429 1430
f 1424 1431 1425
f 1424 1430 1431
f 1425 1432 1426
f 1425 1431 1432
f 1426 1433 1427
f 1426 1432 1433
f 1427 1434 1428
f 1427 1433 1434
f 1428 1429 1423
f 1428 1434 1429
f 1429 1436 1430
f 1429 1435 1436
f 1430 1437 1431
f 1430 1436 1437
f 1431 1438 1432
f 1431 1437 1438
f 1432 1439 1433
f 1432 1438 1439
f 1433 1440 1434
f 1433 1439 1440
f 1434 1435 1429
f 1434 1440 1435
v 2.262233 2.393122 -1.079592
v 2.287233 2.403468 -1.102351
v 2.262233 2.413813 -1.125110
v 2.237233 2.403468 -1.102351
v 2.262233 2.788571 -0.907523
v 2.280233 2.796020 -0.923909
v 2.262233 2.803468 -0.940296
v 2.244233 2.796020 -0.923909
f 1441 1442 1446
f 1441 1446 1445
f 1442 1443 1447
f 1442 1447 1446
f 1443 1444 1448
f 1443 1448 1447
f 1444 1441 1445
f 1444 1445 1448
v -2.262233 0.453856 0.514957
v -2.237233 0.450000 0.490256
v -2.262233 0.446144 0.465555
v -2.287233 0.450000 0.490256
v -2.262233 0.948300 0.430683
v -2.244233 0.945524 0.412899
v -2.262233 0.942747 0.395114
v -2.280233 0.945524 0.412899
f 1449 1450 1454
f 1449 1454 1453
f 1450 1451 1455
f 1450 1455 1454
f 1451 1452 1456
f 1451 1456 1455
f 1452 1449 1453
f 1452 1453 1456
v -2.262233 0.945722 0.437898
v -2.237233 0.945524 0.412899
v -2.262233 0.945325 0.387899
v -2.287233 0.945524 0.412899
v -2.262233 1.594469 0.425746
v -2.244233 1.594326 0.407747
v -2.262233 1.594183 0.389747
v -2.280233 1.594326 0.407747
f 1457 1458 1462
f 1457 1462 1461
f 1458 1459 1463
f 1458 1463 1462
f 1459 1460 1464
f 1459 1464 1463
f 1460 1457 1461
f 1460 1461 1464
v -2.237233 1.594326 0.407747
v -2.262233 1.605233 0.385251
v -2.287233 1.594326 0.407747
v -2.262233 1.583419 0.430242
v -2.244233 1.947026 0.578755
v -2.262233 1.954879 0.562558
v -2.280233 1.947026 0.578755
v -2.262233 1.939173 0.594951
f 1465 1466 1470
f 1465 1470 1469
f 1466 1467 1471
f 1466 1471 1470
f 1467 1468 1472
f 1467 1472 1471
f 1468 1465 1469
f 1468 1469 1472
