o mesh
v 0.000000 0.000000 0.035000
v 0.016490 0.000000 0.022697
v 0.028878 0.000000 0.009383
v 0.028878 0.000000 -0.009383
v 0.016490 0.000000 -0.022697
v 0.000000 0.000000 -0.035000
v -0.016490 0.000000 -0.022697
v -0.028878 0.000000 -0.009383
v -0.028878 0.000000 0.009383
v -0.016490 0.000000 0.022697
v 0.000000 0.600000 0.031500
v 0.014841 0.600000 0.020427
v 0.025990 0.600000 0.008445
v 0.025990 0.600000 -0.008445
v 0.014841 0.600000 -0.020427
v 0.000000 0.600000 -0.031500
v -0.014841 0.600000 -0.020427
v -0.025990 0.600000 -0.008445
v -0.025990 0.600000 0.008445
v -0.014841 0.600000 0.020427
f 1 2 12
f 1 12 11
f 2 3 13
f 2 13 12
f 3 4 14
f 3 14 13
f 4 5 15
f 4 15 14
f 5 6 16
f 5 16 15
f 6 7 17
f 6 17 16
f 7 8 18
f 7 18 17
f 8 9 19
f 8 19 18
f 9 10 20
f 9 20 19
f 10 1 11
f 10 11 20
v 0.000000 0.599298 0.031492
v 0.014791 0.600766 0.020450
v 0.025902 0.601950 0.008490
v 0.025902 0.602327 -0.008395
v 0.014791 0.601676 -0.020395
v 0.000000 0.600702 -0.031492
v -0.014791 0.599234 -0.020450
v -0.025902 0.598050 -0.008490
v -0.025902 0.597673 0.008395
v -0.014791 0.598324 0.020395
v -0.040764 1.092895 0.039341
v -0.027452 1.094216 0.029403
v -0.017452 1.095282 0.018639
v -0.017452 1.095621 0.003442
v -0.027452 1.095035 -0.007358
v -0.040764 1.094158 -0.017345
v -0.054076 1.092837 -0.007407
v -0.064076 1.091771 0.003357
v -0.064076 1.091433 0.018553
v -0.054076 1.092018 0.029354
f 21 22 32
f 21 32 31
f 22 23 33
f 22 33 32
f 23 24 34
f 23 34 33
f 24 25 35
f 24 35 34
f 25 26 36
f 25 36 35
f 26 27 37
f 26 37 36
f 27 28 38
f 27 38 37
f 28 29 39
f 28 39 38
f 29 30 40
f 29 40 39
f 30 21 31
f 30 31 40
v -0.040764 1.093527 0.010998
v -0.042026 1.092113 0.017025
v -0.042726 1.090742 0.023187
v -0.042256 1.089462 0.029632
v -0.040165 1.088307 0.036468
v -0.036304 1.087289 0.043732
v -0.030886 1.086391 0.051372
v -0.024474 1.085569 0.059252
v -0.017906 1.084760 0.067170
v -0.012148 1.083888 0.074892
v -0.008133 1.082881 0.082193
v -0.006595 1.081684 0.088896
v -0.007936 1.080264 0.094903
v -0.012157 1.078621 0.100215
v -0.018854 1.076788 0.104929
v -0.027295 1.074820 0.109222
v -0.036546 1.072789 0.113319
v -0.045639 1.070770 0.117454
v -0.053741 1.068828 0.121829
v -0.060284 1.067006 0.126580
v -0.065057 1.065321 0.131759
v -0.068210 1.063761 0.137328
v -0.070192 1.062292 0.143181
v -0.071612 1.060866 0.149169
v -0.070350 1.062280 0.143143
v -0.069650 1.063650 0.136981
v -0.070120 1.064930 0.130536
v -0.072211 1.066085 0.123699
v -0.076072 1.067104 0.116435
v -0.081490 1.068002 0.108795
v -0.087902 1.068823 0.100916
v -0.094470 1.069633 0.092998
v -0.100228 1.070504 0.085276
v -0.104243 1.071511 0.077975
v -0.105781 1.072709 0.071272
v -0.104440 1.074129 0.065264
v -0.100219 1.075771 0.059952
v -0.093522 1.077605 0.055238
v -0.085081 1.079573 0.050946
v -0.075830 1.081604 0.046849
v -0.066737 1.083622 0.042713
v -0.058635 1.085564 0.038339
v -0.052092 1.087386 0.033587
v -0.047319 1.089071 0.028409
v -0.044166 1.090631 0.022839
v -0.042184 1.092100 0.016986
f 41 42 43
f 41 43 42
f 41 43 44
f 41 44 43
f 41 44 45
f 41 45 44
f 41 45 46
f 41 46 45
f 41 46 47
f 41 47 46
f 41 47 48
f 41 48 47
f 41 48 49
f 41 49 48
f 41 49 50
f 41 50 49
f 41 50 51
f 41 51 50
f 41 51 52
f 41 52 51
f 41 52 53
f 41 53 52
f 41 53 54
f 41 54 53
f 41 54 55
f 41 55 54
f 41 55 56
f 41 56 55
f 41 56 57
f 41 57 56
f 41 57 58
f 41 58 57
f 41 58 59
f 41 59 58
f 41 59 60
f 41 60 59
f 41 60 61
f 41 61 60
f 41 61 62
f 41 62 61
f 41 62 63
f 41 63 62
f 41 63 64
f 41 64 63
f 41 64 65
f 41 65 64
f 41 65 66
f 41 66 65
f 41 66 67
f 41 67 66
f 41 67 68
f 41 68 67
f 41 68 69
f 41 69 68
f 41 69 70
f 41 70 69
f 41 70 71
f 41 71 70
f 41 71 72
f 41 72 71
f 41 72 73
f 41 73 72
f 41 73 74
f 41 74 73
f 41 74 75
f 41 75 74
f 41 75 76
f 41 76 75
f 41 76 77
f 41 77 76
f 41 77 78
f 41 78 77
f 41 78 79
f 41 79 78
f 41 79 80
f 41 80 79
f 41 80 81
f 41 81 80
f 41 81 82
f 41 82 81
f 41 82 83
f 41 83 82
f 41 83 84
f 41 84 83
f 41 84 85
f 41 85 84
f 41 85 86
f 41 86 85
v -0.040764 1.093527 0.010998
v -0.037268 1.091014 0.007177
v -0.034084 1.088482 0.003078
v -0.031635 1.085904 -0.001676
v -0.030287 1.083257 -0.007411
v -0.030222 1.080529 -0.014288
v -0.031351 1.077726 -0.022230
v -0.033305 1.074872 -0.030907
v -0.035483 1.072004 -0.039782
v -0.037150 1.069167 -0.048203
v -0.037580 1.066408 -0.055521
v -0.036190 1.063764 -0.061219
v -0.032657 1.061254 -0.065007
v -0.026982 1.058878 -0.066887
v -0.019487 1.056616 -0.067145
v -0.010755 1.054433 -0.066301
v -0.001512 1.052281 -0.065003
v 0.007508 1.050115 -0.063903
v 0.015702 1.047897 -0.063538
v 0.022701 1.045605 -0.064238
v 0.028419 1.043232 -0.066080
v 0.033035 1.040789 -0.068903
v 0.036916 1.038301 -0.072381
v 0.040486 1.035793 -0.076137
v 0.036990 1.038306 -0.072316
v 0.033806 1.040838 -0.068216
v 0.031357 1.043416 -0.063463
v 0.030009 1.046063 -0.057728
v 0.029944 1.048791 -0.050851
v 0.031073 1.051593 -0.042909
v 0.033027 1.054448 -0.034232
v 0.035205 1.057316 -0.025357
v 0.036872 1.060153 -0.016936
v 0.037302 1.062911 -0.009618
v 0.035912 1.065556 -0.003920
v 0.032379 1.068066 -0.000132
v 0.026704 1.070442 0.001748
v 0.019209 1.072703 0.002007
v 0.010477 1.074887 0.001163
v 0.001234 1.077039 -0.000136
v -0.007786 1.079205 -0.001236
v -0.015980 1.081423 -0.001601
v -0.022979 1.083715 -0.000901
v -0.028697 1.086088 0.000941
v -0.033313 1.088531 0.003764
v -0.037194 1.091019 0.007242
f 87 88 89
f 87 89 88
f 87 89 90
f 87 90 89
f 87 90 91
f 87 91 90
f 87 91 92
f 87 92 91
f 87 92 93
f 87 93 92
f 87 93 94
f 87 94 93
f 87 94 95
f 87 95 94
f 87 95 96
f 87 96 95
f 87 96 97
f 87 97 96
f 87 97 98
f 87 98 97
f 87 98 99
f 87 99 98
f 87 99 100
f 87 100 99
f 87 100 101
f 87 101 100
f 87 101 102
f 87 102 101
f 87 102 103
f 87 103 102
f 87 103 104
f 87 104 103
f 87 104 105
f 87 105 104
f 87 105 106
f 87 106 105
f 87 106 107
f 87 107 106
f 87 107 108
f 87 108 107
f 87 108 109
f 87 109 108
f 87 109 110
f 87 110 109
f 87 110 111
f 87 111 110
f 87 111 112
f 87 112 111
f 87 112 113
f 87 113 112
f 87 113 114
f 87 114 113
f 87 114 115
f 87 115 114
f 87 115 116
f 87 116 115
f 87 116 117
f 87 117 116
f 87 117 118
f 87 118 117
f 87 118 119
f 87 119 118
f 87 119 120
f 87 120 119
f 87 120 121
f 87 121 120
f 87 121 122
f 87 122 121
f 87 122 123
f 87 123 122
f 87 123 124
f 87 124 123
f 87 124 125
f 87 125 124
f 87 125 126
f 87 126 125
f 87 126 127
f 87 127 126
f 87 127 128
f 87 128 127
f 87 128 129
f 87 129 128
f 87 129 130
f 87 130 129
f 87 130 131
f 87 131 130
f 87 131 132
f 87 132 131
v -0.040764 1.093527 0.010998
v -0.043295 1.092240 0.007617
v -0.046151 1.090921 0.004484
v -0.049679 1.089536 0.001865
v -0.054133 1.088057 -0.000046
v -0.059596 1.086479 -0.001186
v -0.065944 1.084812 -0.001648
v -0.072853 1.083090 -0.001682
v -0.079847 1.081358 -0.001650
v -0.086376 1.079674 -0.001974
v -0.091910 1.078088 -0.003059
v -0.096034 1.076643 -0.005222
v -0.098520 1.075361 -0.008639
v -0.099366 1.074242 -0.013309
v -0.098802 1.073264 -0.019057
v -0.097243 1.072385 -0.025567
v -0.095220 1.071553 -0.032431
v -0.093281 1.070712 -0.039231
v -0.091904 1.069815 -0.045602
v -0.091412 1.068829 -0.051296
v -0.091928 1.067744 -0.056218
v -0.093370 1.066566 -0.060432
v -0.095485 1.065321 -0.064132
v -0.097924 1.064043 -0.067584
v -0.095392 1.065330 -0.064203
v -0.092536 1.066649 -0.061070
v -0.089008 1.068035 -0.058451
v -0.084554 1.069513 -0.056540
v -0.079091 1.071091 -0.055401
v -0.072744 1.072758 -0.054938
v -0.065835 1.074481 -0.054905
v -0.058841 1.076212 -0.054936
v -0.052312 1.077896 -0.054612
v -0.046777 1.079482 -0.053527
v -0.042653 1.080927 -0.051364
v -0.040168 1.082209 -0.047948
v -0.039322 1.083328 -0.043278
v -0.039886 1.084306 -0.037529
v -0.041444 1.085185 -0.031020
v -0.043468 1.086017 -0.024155
v -0.045406 1.086859 -0.017355
v -0.046783 1.087756 -0.010985
v -0.047276 1.088741 -0.005291
v -0.046760 1.089826 -0.000368
v -0.045317 1.091004 0.003846
v -0.043203 1.092249 0.007546
f 133 134 135
f 133 135 134
f 133 135 136
f 133 136 135
f 133 136 137
f 133 137 136
f 133 137 138
f 133 138 137
f 133 138 139
f 133 139 138
f 133 139 140
f 133 140 139
f 133 140 141
f 133 141 140
f 133 141 142
f 133 142 141
f 133 142 143
f 133 143 142
f 133 143 144
f 133 144 143
f 133 144 145
f 133 145 144
f 133 145 146
f 133 146 145
f 133 146 147
f 133 147 146
f 133 147 148
f 133 148 147
f 133 148 149
f 133 149 148
f 133 149 150
f 133 150 149
f 133 150 151
f 133 151 150
f 133 151 152
f 133 152 151
f 133 152 153
f 133 153 152
f 133 153 154
f 133 154 153
f 133 154 155
f 133 155 154
f 133 155 156
f 133 156 155
f 133 156 157
f 133 157 156
f 133 157 158
f 133 158 157
f 133 158 159
f 133 159 158
f 133 159 160
f 133 160 159
f 133 160 161
f 133 161 160
f 133 161 162
f 133 162 161
f 133 162 163
f 133 163 162
f 133 163 164
f 133 164 163
f 133 164 165
f 133 165 164
f 133 165 166
f 133 166 165
f 133 166 167
f 133 167 166
f 133 167 168
f 133 168 167
f 133 168 169
f 133 169 168
f 133 169 170
f 133 170 169
f 133 170 171
f 133 171 170
f 133 171 172
f 133 172 171
f 133 172 173
f 133 173 172
f 133 173 174
f 133 174 173
f 133 174 175
f 133 175 174
f 133 175 176
f 133 176 175
f 133 176 177
f 133 177 176
f 133 177 178
f 133 178 177
v -0.040764 1.093488 0.039348
v -0.027577 1.095627 0.029386
v -0.017670 1.097239 0.018603
v -0.017670 1.097260 0.003403
v -0.027577 1.095678 -0.007384
v -0.040764 1.093566 -0.017352
v -0.053951 1.091426 -0.007390
v -0.063857 1.089814 0.003393
v -0.063857 1.089794 0.018593
v -0.053951 1.091376 0.029380
v -0.101452 1.469969 0.037030
v -0.089584 1.471894 0.028063
v -0.080668 1.473345 0.018359
v -0.080668 1.473364 0.004679
v -0.089584 1.471940 -0.005029
v -0.101452 1.470039 -0.014000
v -0.113321 1.468113 -0.005034
v -0.122236 1.466663 0.004670
v -0.122236 1.466644 0.018350
v -0.113321 1.468068 0.028058
f 179 180 190
f 179 190 189
f 180 181 191
f 180 191 190
f 181 182 192
f 181 192 191
f 182 183 193
f 182 193 192
f 183 184 194
f 183 194 193
f 184 185 195
f 184 195 194
f 185 186 196
f 185 196 195
f 186 187 197
f 186 197 196
f 187 188 198
f 187 198 197
f 188 179 189
f 188 189 198
v -0.101452 1.470004 0.011515
v -0.101207 1.468313 0.015874
v -0.100113 1.466759 0.020285
v -0.097868 1.465390 0.024765
v -0.094420 1.464215 0.029316
v -0.089921 1.463210 0.033930
v -0.084696 1.462321 0.038588
v -0.079193 1.461478 0.043263
v -0.073927 1.460596 0.047923
v -0.069416 1.459592 0.052538
v -0.066116 1.458393 0.057081
v -0.064367 1.456945 0.061531
v -0.064349 1.455217 0.065877
v -0.066062 1.453211 0.070120
v -0.069325 1.450955 0.074269
v -0.073799 1.448504 0.078347
v -0.079029 1.445931 0.082379
v -0.084496 1.443319 0.086397
v -0.089684 1.440753 0.090432
v -0.094146 1.438304 0.094510
v -0.097558 1.436024 0.098651
v -0.099767 1.433937 0.102864
v -0.100825 1.432037 0.107145
v -0.101033 1.430273 0.111478
v -0.101279 1.431963 0.107118
v -0.102373 1.433517 0.102708
v -0.104618 1.434886 0.098228
v -0.108066 1.436061 0.093677
v -0.112565 1.437067 0.089062
v -0.117790 1.437955 0.084404
v -0.123293 1.438799 0.079730
v -0.128559 1.439681 0.075070
v -0.133070 1.440684 0.070454
v -0.136370 1.441883 0.065912
v -0.138119 1.443332 0.061462
v -0.138137 1.445059 0.057116
v -0.136424 1.447065 0.052873
v -0.133161 1.449321 0.048723
v -0.128686 1.451773 0.044646
v -0.123457 1.454346 0.040614
v -0.117990 1.456957 0.036596
v -0.112801 1.459523 0.032561
v -0.108339 1.461973 0.028483
v -0.104928 1.464253 0.024342
v -0.102719 1.466339 0.020129
v -0.101661 1.468240 0.015847
f 199 200 201
f 199 201 200
f 199 201 202
f 199 202 201
f 199 202 203
f 199 203 202
f 199 203 204
f 199 204 203
f 199 204 205
f 199 205 204
f 199 205 206
f 199 206 205
f 199 206 207
f 199 207 206
f 199 207 208
f 199 208 207
f 199 208 209
f 199 209 208
f 199 209 210
f 199 210 209
f 199 210 211
f 199 211 210
f 199 211 212
f 199 212 211
f 199 212 213
f 199 213 212
f 199 213 214
f 199 214 213
f 199 214 215
f 199 215 214
f 199 215 216
f 199 216 215
f 199 216 217
f 199 217 216
f 199 217 218
f 199 218 217
f 199 218 219
f 199 219 218
f 199 219 220
f 199 220 219
f 199 220 221
f 199 221 220
f 199 221 222
f 199 222 221
f 199 222 223
f 199 223 222
f 199 223 224
f 199 224 223
f 199 224 225
f 199 225 224
f 199 225 226
f 199 226 225
f 199 226 227
f 199 227 226
f 199 227 228
f 199 228 227
f 199 228 229
f 199 229 228
f 199 229 230
f 199 230 229
f 199 230 231
f 199 231 230
f 199 231 232
f 199 232 231
f 199 232 233
f 199 233 232
f 199 233 234
f 199 234 233
f 199 234 235
f 199 235 234
f 199 235 236
f 199 236 235
f 199 236 237
f 199 237 236
f 199 237 238
f 199 238 237
f 199 238 239
f 199 239 238
f 199 239 240
f 199 240 239
f 199 240 241
f 199 241 240
f 199 241 242
f 199 242 241
f 199 242 243
f 199 243 242
f 199 243 244
f 199 244 243
v -0.101452 1.470004 0.011515
v -0.094726 1.469552 0.011249
v -0.088015 1.469098 0.010205
v -0.081332 1.468642 0.007736
v -0.074686 1.468182 0.003452
v -0.068077 1.467719 -0.002689
v -0.061498 1.467253 -0.010363
v -0.054937 1.466786 -0.018920
v -0.048376 1.466318 -0.027477
v -0.041796 1.465853 -0.035061
v -0.035178 1.465390 -0.040759
v -0.028508 1.464933 -0.043866
v -0.021779 1.464481 -0.044000
v -0.014990 1.464035 -0.041160
v -0.008150 1.463593 -0.035729
v -0.001272 1.463155 -0.028412
v 0.005626 1.462718 -0.020122
v 0.012523 1.462282 -0.011833
v 0.019403 1.461844 -0.004426
v 0.026252 1.461403 0.001448
v 0.033064 1.460959 0.005464
v 0.039840 1.460511 0.007667
v 0.046588 1.460061 0.008442
v 0.053320 1.459609 0.008441
v 0.046593 1.460062 0.008707
v 0.039882 1.460515 0.009750
v 0.033199 1.460971 0.012220
v 0.026553 1.461431 0.016504
v 0.019944 1.461894 0.022645
v 0.013365 1.462360 0.030319
v 0.006804 1.462827 0.038875
v 0.000244 1.463295 0.047433
v -0.006337 1.463761 0.055016
v -0.012955 1.464223 0.060714
v -0.019625 1.464680 0.063822
v -0.026354 1.465132 0.063956
v -0.033142 1.465579 0.061115
v -0.039983 1.466020 0.055685
v -0.046861 1.466458 0.048368
v -0.053758 1.466895 0.040078
v -0.060656 1.467331 0.031789
v -0.067536 1.467769 0.024382
v -0.074385 1.468210 0.018508
v -0.081197 1.468654 0.014492
v -0.087973 1.469102 0.012289
v -0.094721 1.469552 0.011513
f 245 246 247
f 245 247 246
f 245 247 248
f 245 248 247
f 245 248 249
f 245 249 248
f 245 249 250
f 245 250 249
f 245 250 251
f 245 251 250
f 245 251 252
f 245 252 251
f 245 252 253
f 245 253 252
f 245 253 254
f 245 254 253
f 245 254 255
f 245 255 254
f 245 255 256
f 245 256 255
f 245 256 257
f 245 257 256
f 245 257 258
f 245 258 257
f 245 258 259
f 245 259 258
f 245 259 260
f 245 260 259
f 245 260 261
f 245 261 260
f 245 261 262
f 245 262 261
f 245 262 263
f 245 263 262
f 245 263 264
f 245 264 263
f 245 264 265
f 245 265 264
f 245 265 266
f 245 266 265
f 245 266 267
f 245 267 266
f 245 267 268
f 245 268 267
f 245 268 269
f 245 269 268
f 245 269 270
f 245 270 269
f 245 270 271
f 245 271 270
f 245 271 272
f 245 272 271
f 245 272 273
f 245 273 272
f 245 273 274
f 245 274 273
f 245 274 275
f 245 275 274
f 245 275 276
f 245 276 275
f 245 276 277
f 245 277 276
f 245 277 278
f 245 278 277
f 245 278 279
f 245 279 278
f 245 279 280
f 245 280 279
f 245 280 281
f 245 281 280
f 245 281 282
f 245 282 281
f 245 282 283
f 245 283 282
f 245 283 284
f 245 284 283
f 245 284 285
f 245 285 284
f 245 285 286
f 245 286 285
f 245 286 287
f 245 287 286
f 245 287 288
f 245 288 287
f 245 288 289
f 245 289 288
f 245 289 290
f 245 290 289
v -0.101452 1.470004 0.011515
v -0.100092 1.469153 0.007226
v -0.099463 1.468186 0.002695
v -0.099881 1.467050 -0.002185
v -0.101434 1.465731 -0.007443
v -0.104010 1.464248 -0.013041
v -0.107319 1.462647 -0.018882
v -0.110940 1.460996 -0.024828
v -0.114378 1.459375 -0.030713
v -0.117124 1.457864 -0.036368
v -0.118728 1.456538 -0.041642
v -0.118850 1.455449 -0.046424
v -0.117311 1.454628 -0.050653
v -0.114110 1.454073 -0.054328
v -0.109429 1.453757 -0.057511
v -0.103604 1.453624 -0.060314
v -0.097088 1.453603 -0.062886
v -0.090388 1.453611 -0.065398
v -0.084001 1.453569 -0.068013
v -0.078347 1.453409 -0.070873
v -0.073715 1.453084 -0.074072
v -0.070219 1.452577 -0.077650
v -0.067770 1.451902 -0.081575
v -0.066051 1.451110 -0.085744
v -0.067411 1.451960 -0.081456
v -0.068040 1.452928 -0.076925
v -0.067623 1.454064 -0.072045
v -0.066069 1.455382 -0.066787
v -0.063494 1.456865 -0.061189
v -0.060185 1.458466 -0.055347
v -0.056563 1.460117 -0.049401
v -0.053126 1.461738 -0.043517
v -0.050379 1.463249 -0.037862
v -0.048776 1.464576 -0.032587
v -0.048653 1.465664 -0.027806
v -0.050192 1.466486 -0.023577
v -0.053393 1.467040 -0.019902
v -0.058075 1.467356 -0.016719
v -0.063900 1.467489 -0.013916
v -0.070416 1.467510 -0.011344
v -0.077116 1.467502 -0.008832
v -0.083503 1.467544 -0.006217
v -0.089157 1.467705 -0.003357
v -0.093789 1.468029 -0.000158
v -0.097285 1.468536 0.003420
v -0.099734 1.469211 0.007346
f 291 292 293
f 291 293 292
f 291 293 294
f 291 294 293
f 291 294 295
f 291 295 294
f 291 295 296
f 291 296 295
f 291 296 297
f 291 297 296
f 291 297 298
f 291 298 297
f 291 298 299
f 291 299 298
f 291 299 300
f 291 300 299
f 291 300 301
f 291 301 300
f 291 301 302
f 291 302 301
f 291 302 303
f 291 303 302
f 291 303 304
f 291 304 303
f 291 304 305
f 291 305 304
f 291 305 306
f 291 306 305
f 291 306 307
f 291 307 306
f 291 307 308
f 291 308 307
f 291 308 309
f 291 309 308
f 291 309 310
f 291 310 309
f 291 310 311
f 291 311 310
f 291 311 312
f 291 312 311
f 291 312 313
f 291 313 312
f 291 313 314
f 291 314 313
f 291 314 315
f 291 315 314
f 291 315 316
f 291 316 315
f 291 316 317
f 291 317 316
f 291 317 318
f 291 318 317
f 291 318 319
f 291 319 318
f 291 319 320
f 291 320 319
f 291 320 321
f 291 321 320
f 291 321 322
f 291 322 321
f 291 322 323
f 291 323 322
f 291 323 324
f 291 324 323
f 291 324 325
f 291 325 324
f 291 325 326
f 291 326 325
f 291 326 327
f 291 327 326
f 291 327 328
f 291 328 327
f 291 328 329
f 291 329 328
f 291 329 330
f 291 330 329
f 291 330 331
f 291 331 330
f 291 331 332
f 291 332 331
f 291 332 333
f 291 333 332
f 291 333 334
f 291 334 333
f 291 334 335
f 291 335 334
f 291 335 336
f 291 336 335
v -0.101452 1.470004 0.011515
v -0.103604 1.466173 0.006226
v -0.106524 1.462218 0.001313
v -0.110782 1.458047 -0.002944
v -0.116686 1.453609 -0.006393
v -0.124232 1.448905 -0.009036
v -0.133097 1.443987 -0.011033
v -0.142686 1.438953 -0.012675
v -0.152217 1.433927 -0.014345
v -0.160842 1.429049 -0.016460
v -0.167773 1.424445 -0.019405
v -0.172408 1.420212 -0.023476
v -0.174420 1.416404 -0.028834
v -0.173807 1.413021 -0.035479
v -0.170899 1.410009 -0.043250
v -0.166297 1.407272 -0.051851
v -0.160788 1.404681 -0.060897
v -0.155221 1.402100 -0.069972
v -0.150379 1.399402 -0.078691
v -0.146855 1.396490 -0.086764
v -0.144974 1.393312 -0.094031
v -0.144739 1.389868 -0.100490
v -0.145842 1.386207 -0.106294
v -0.147712 1.382422 -0.111721
v -0.145560 1.386252 -0.106432
v -0.142641 1.390207 -0.101519
v -0.138383 1.394379 -0.097263
v -0.132479 1.398817 -0.093814
v -0.124933 1.403521 -0.091170
v -0.116068 1.408438 -0.089173
v -0.106479 1.413473 -0.087532
v -0.096947 1.418498 -0.085862
v -0.088323 1.423376 -0.083747
v -0.081391 1.427981 -0.080802
v -0.076756 1.432213 -0.076730
v -0.074745 1.436021 -0.071372
v -0.075357 1.439405 -0.064728
v -0.078266 1.442416 -0.056957
v -0.082868 1.445153 -0.048355
v -0.088377 1.447744 -0.039309
v -0.093943 1.450325 -0.030235
v -0.098786 1.453024 -0.021515
v -0.102310 1.455936 -0.013443
v -0.104191 1.459113 -0.006176
v -0.104426 1.462558 0.000284
v -0.103323 1.466219 0.006087
f 337 338 339
f 337 339 338
f 337 339 340
f 337 340 339
f 337 340 341
f 337 341 340
f 337 341 342
f 337 342 341
f 337 342 343
f 337 343 342
f 337 343 344
f 337 344 343
f 337 344 345
f 337 345 344
f 337 345 346
f 337 346 345
f 337 346 347
f 337 347 346
f 337 347 348
f 337 348 347
f 337 348 349
f 337 349 348
f 337 349 350
f 337 350 349
f 337 350 351
f 337 351 350
f 337 351 352
f 337 352 351
f 337 352 353
f 337 353 352
f 337 353 354
f 337 354 353
f 337 354 355
f 337 355 354
f 337 355 356
f 337 356 355
f 337 356 357
f 337 357 356
f 337 357 358
f 337 358 357
f 337 358 359
f 337 359 358
f 337 359 360
f 337 360 359
f 337 360 361
f 337 361 360
f 337 361 362
f 337 362 361
f 337 362 363
f 337 363 362
f 337 363 364
f 337 364 363
f 337 364 365
f 337 365 364
f 337 365 366
f 337 366 365
f 337 366 367
f 337 367 366
f 337 367 368
f 337 368 367
f 337 368 369
f 337 369 368
f 337 369 370
f 337 370 369
f 337 370 371
f 337 371 370
f 337 371 372
f 337 372 371
f 337 372 373
f 337 373 372
f 337 373 374
f 337 374 373
f 337 374 375
f 337 375 374
f 337 375 376
f 337 376 375
f 337 376 377
f 337 377 376
f 337 377 378
f 337 378 377
f 337 378 379
f 337 379 378
f 337 379 380
f 337 380 379
f 337 380 381
f 337 381 380
f 337 381 382
f 337 382 381
v -0.101452 1.470004 0.011515
v -0.104849 1.468346 0.014078
v -0.107688 1.466777 0.017651
v -0.109957 1.465298 0.022259
v -0.111724 1.463899 0.027776
v -0.113119 1.462559 0.033967
v -0.114311 1.461252 0.040526
v -0.115494 1.459945 0.047103
v -0.116866 1.458609 0.053336
v -0.118613 1.457213 0.058890
v -0.120891 1.455733 0.063480
v -0.123814 1.454151 0.066903
v -0.127439 1.452457 0.069051
v -0.131768 1.450651 0.069924
v -0.136740 1.448744 0.069631
v -0.142244 1.446752 0.068373
v -0.148123 1.444700 0.066436
v -0.154191 1.442618 0.064156
v -0.160250 1.440538 0.061893
v -0.166105 1.438490 0.059998
v -0.171589 1.436501 0.058778
v -0.176572 1.434592 0.058466
v -0.180983 1.432773 0.059189
v -0.184837 1.431043 0.060922
v -0.181441 1.432701 0.058359
v -0.178601 1.434270 0.054786
v -0.176333 1.435748 0.050178
v -0.174566 1.437148 0.044661
v -0.173171 1.438487 0.038470
v -0.171978 1.439795 0.031910
v -0.170796 1.441101 0.025334
v -0.169424 1.442438 0.019101
v -0.167677 1.443834 0.013547
v -0.165398 1.445314 0.008957
v -0.162476 1.446896 0.005534
v -0.158851 1.448590 0.003386
v -0.154522 1.450396 0.002512
v -0.149550 1.452303 0.002806
v -0.144046 1.454295 0.004064
v -0.138167 1.456347 0.006001
v -0.132099 1.458429 0.008281
v -0.126040 1.460509 0.010543
v -0.120184 1.462557 0.012439
v -0.114701 1.464545 0.013659
v -0.109718 1.466455 0.013971
v -0.105307 1.468274 0.013248
f 383 384 385
f 383 385 384
f 383 385 386
f 383 386 385
f 383 386 387
f 383 387 386
f 383 387 388
f 383 388 387
f 383 388 389
f 383 389 388
f 383 389 390
f 383 390 389
f 383 390 391
f 383 391 390
f 383 391 392
f 383 392 391
f 383 392 393
f 383 393 392
f 383 393 394
f 383 394 393
f 383 394 395
f 383 395 394
f 383 395 396
f 383 396 395
f 383 396 397
f 383 397 396
f 383 397 398
f 383 398 397
f 383 398 399
f 383 399 398
f 383 399 400
f 383 400 399
f 383 400 401
f 383 401 400
f 383 401 402
f 383 402 401
f 383 402 403
f 383 403 402
f 383 403 404
f 383 404 403
f 383 404 405
f 383 405 404
f 383 405 406
f 383 406 405
f 383 406 407
f 383 407 406
f 383 407 408
f 383 408 407
f 383 408 409
f 383 409 408
f 383 409 410
f 383 410 409
f 383 410 411
f 383 411 410
f 383 411 412
f 383 412 411
f 383 412 413
f 383 413 412
f 383 413 414
f 383 414 413
f 383 414 415
f 383 415 414
f 383 415 416
f 383 416 415
f 383 416 417
f 383 417 416
f 383 417 418
f 383 418 417
f 383 418 419
f 383 419 418
f 383 419 420
f 383 420 419
f 383 420 421
f 383 421 420
f 383 421 422
f 383 422 421
f 383 422 423
f 383 423 422
f 383 423 424
f 383 424 423
f 383 424 425
f 383 425 424
f 383 425 426
f 383 426 425
f 383 426 427
f 383 427 426
f 383 427 428
f 383 428 427
