o mesh
v 2.995813 0.000000 -0.000000
v 2.767771 0.000000 -1.146448
v 2.729920 3.400000 -1.130770
v 2.954844 3.400000 -0.000000
f 1 2 3
f 1 3 4
v 2.767771 0.000000 -1.146448
v 2.118360 0.000000 -2.118360
v 2.089390 3.400000 -2.089390
v 2.729920 3.400000 -1.130770
f 5 6 7
f 5 7 8
v 2.118360 0.000000 -2.118360
v 1.146448 0.000000 -2.767771
v 1.130770 3.400000 -2.729920
v 2.089390 3.400000 -2.089390
f 9 10 11
f 9 11 12
v 1.146448 0.000000 -2.767771
v 0.000000 0.000000 -2.995813
v 0.000000 3.400000 -2.954844
v 1.130770 3.400000 -2.729920
f 13 14 15
f 13 15 16
v 0.000000 0.000000 -2.995813
v -1.146448 0.000000 -2.767771
v -1.130770 3.400000 -2.729920
v 0.000000 3.400000 -2.954844
f 17 18 19
f 17 19 20
v -1.135381 2.400000 -2.741053
v -2.097911 2.400000 -2.097911
v -2.089390 3.400000 -2.089390
v -1.130770 3.400000 -2.729920
f 21 22 23
f 21 23 24
v -2.118360 0.000000 -2.118360
v -2.767771 0.000000 -1.146448
v -2.729920 3.400000 -1.130770
v -2.089390 3.400000 -2.089390
f 25 26 27
f 25 27 28
v -2.767771 0.000000 -1.146448
v -2.995813 0.000000 -0.000000
v -2.954844 3.400000 -0.000000
v -2.729920 3.400000 -1.130770
f 29 30 31
f 29 31 32
v -2.995813 0.000000 -0.000000
v -2.767771 0.000000 1.146448
v -2.729920 3.400000 1.130770
v -2.954844 3.400000 -0.000000
f 33 34 35
f 33 35 36
v -2.767771 0.000000 1.146448
v -2.118360 0.000000 2.118360
v -2.089390 3.400000 2.089390
v -2.729920 3.400000 1.130770
f 37 38 39
f 37 39 40
v -2.118360 0.000000 2.118360
v -1.146448 0.000000 2.767771
v -1.130770 3.400000 2.729920
v -2.089390 3.400000 2.089390
f 41 42 43
f 41 43 44
v -1.146448 0.000000 2.767771
v -0.000000 0.000000 2.995813
v -0.000000 3.400000 2.954844
v -1.130770 3.400000 2.729920
f 45 46 47
f 45 47 48
v -0.000000 0.000000 2.995813
v 1.146448 0.000000 2.767771
v 1.130770 3.400000 2.729920
v -0.000000 3.400000 2.954844
f 49 50 51
f 49 51 52
v 1.146448 0.000000 2.767771
v 2.118360 0.000000 2.118360
v 2.089390 3.400000 2.089390
v 1.130770 3.400000 2.729920
f 53 54 55
f 53 55 56
v 2.118360 0.000000 2.118360
v 2.767771 0.000000 1.146448
v 2.729920 3.400000 1.130770
v 2.089390 3.400000 2.089390
f 57 58 59
f 57 59 60
v 2.767771 0.000000 1.146448
v 2.995813 0.000000 -0.000000
v 2.954844 3.400000 -0.000000
v 2.729920 3.400000 1.130770
f 61 62 63
f 61 63 64
v 2.954844 3.400000 -0.000000
v 2.729920 3.400000 -1.130770
v 2.692069 6.800000 -1.115092
v 2.913875 6.800000 -0.000000
f 65 66 67
f 65 67 68
v 2.729920 3.400000 -1.130770
v 2.089390 3.400000 -2.089390
v 2.080870 4.400000 -2.080870
v 2.718787 4.400000 -1.126159
f 69 70 71
f 69 71 72
v 2.704315 5.700000 -1.120164
v 2.069793 5.700000 -2.069793
v 2.060421 6.800000 -2.060421
v 2.692069 6.800000 -1.115092
f 73 74 75
f 73 75 76
v 2.089390 3.400000 -2.089390
v 1.130770 3.400000 -2.729920
v 1.115092 6.800000 -2.692069
v 2.060421 6.800000 -2.060421
f 77 78 79
f 77 79 80
v 1.130770 3.400000 -2.729920
v 0.000000 3.400000 -2.954844
v 0.000000 6.800000 -2.913875
v 1.115092 6.800000 -2.692069
f 81 82 83
f 81 83 84
v 0.000000 3.400000 -2.954844
v -1.130770 3.400000 -2.729920
v -1.115092 6.800000 -2.692069
v 0.000000 6.800000 -2.913875
f 85 86 87
f 85 87 88
v -1.130770 3.400000 -2.729920
v -2.089390 3.400000 -2.089390
v -2.080870 4.400000 -2.080870
v -1.126159 4.400000 -2.718787
f 89 90 91
f 89 91 92
v -1.120164 5.700000 -2.704315
v -2.069793 5.700000 -2.069793
v -2.060421 6.800000 -2.060421
v -1.115092 6.800000 -2.692069
f 93 94 95
f 93 95 96
v -2.089390 3.400000 -2.089390
v -2.729920 3.400000 -1.130770
v -2.692069 6.800000 -1.115092
v -2.060421 6.800000 -2.060421
f 97 98 99
f 97 99 100
v -2.729920 3.400000 -1.130770
v -2.954844 3.400000 -0.000000
v -2.913875 6.800000 -0.000000
v -2.692069 6.800000 -1.115092
f 101 102 103
f 101 103 104
v -2.954844 3.400000 -0.000000
v -2.729920 3.400000 1.130770
v -2.692069 6.800000 1.115092
v -2.913875 6.800000 -0.000000
f 105 106 107
f 105 107 108
v -2.729920 3.400000 1.130770
v -2.089390 3.400000 2.089390
v -2.080870 4.400000 2.080870
v -2.718787 4.400000 1.126159
f 109 110 111
f 109 111 112
v -2.704315 5.700000 1.120164
v -2.069793 5.700000 2.069793
v -2.060421 6.800000 2.060421
v -2.692069 6.800000 1.115092
f 113 114 115
f 113 115 116
v -2.089390 3.400000 2.089390
v -1.130770 3.400000 2.729920
v -1.115092 6.800000 2.692069
v -2.060421 6.800000 2.060421
f 117 118 119
f 117 119 120
v -1.130770 3.400000 2.729920
v -0.000000 3.400000 2.954844
v -0.000000 6.800000 2.913875
v -1.115092 6.800000 2.692069
f 121 122 123
f 121 123 124
v -0.000000 3.400000 2.954844
v 1.130770 3.400000 2.729920
v 1.115092 6.800000 2.692069
v -0.000000 6.800000 2.913875
f 125 126 127
f 125 127 128
v 1.130770 3.400000 2.729920
v 2.089390 3.400000 2.089390
v 2.080870 4.400000 2.080870
v 1.126159 4.400000 2.718787
f 129 130 131
f 129 131 132
v 1.120164 5.700000 2.704315
v 2.069793 5.700000 2.069793
v 2.060421 6.800000 2.060421
v 1.115092 6.800000 2.692069
f 133 134 135
f 133 135 136
v 2.089390 3.400000 2.089390
v 2.729920 3.400000 1.130770
v 2.692069 6.800000 1.115092
v 2.060421 6.800000 2.060421
f 137 138 139
f 137 139 140
v 2.729920 3.400000 1.130770
v 2.954844 3.400000 -0.000000
v 2.913875 6.800000 -0.000000
v 2.692069 6.800000 1.115092
f 141 142 143
f 141 143 144
v 2.913875 6.800000 -0.000000
v 2.692069 6.800000 -1.115092
v 2.654219 10.200000 -1.099413
v 2.872905 10.200000 -0.000000
f 145 146 147
f 145 147 148
v 2.692069 6.800000 -1.115092
v 2.060421 6.800000 -2.060421
v 2.031451 10.200000 -2.031451
v 2.654219 10.200000 -1.099413
f 149 150 151
f 149 151 152
v 2.060421 6.800000 -2.060421
v 1.115092 6.800000 -2.692069
v 1.110480 7.800000 -2.680937
v 2.051900 7.800000 -2.051900
f 153 154 155
f 153 155 156
v 2.040823 9.100000 -2.040823
v 1.104486 9.100000 -2.666464
v 1.099413 10.200000 -2.654219
v 2.031451 10.200000 -2.031451
f 157 158 159
f 157 159 160
v 1.115092 6.800000 -2.692069
v 0.000000 6.800000 -2.913875
v 0.000000 10.200000 -2.872905
v 1.099413 10.200000 -2.654219
f 161 162 163
f 161 163 164
v 0.000000 6.800000 -2.913875
v -1.115092 6.800000 -2.692069
v -1.099413 10.200000 -2.654219
v 0.000000 10.200000 -2.872905
f 165 166 167
f 165 167 168
v -1.115092 6.800000 -2.692069
v -2.060421 6.800000 -2.060421
v -2.031451 10.200000 -2.031451
v -1.099413 10.200000 -2.654219
f 169 170 171
f 169 171 172
v -2.060421 6.800000 -2.060421
v -2.692069 6.800000 -1.115092
v -2.680937 7.800000 -1.110480
v -2.051900 7.800000 -2.051900
f 173 174 175
f 173 175 176
v -2.040823 9.100000 -2.040823
v -2.666464 9.100000 -1.104486
v -2.654219 10.200000 -1.099413
v -2.031451 10.200000 -2.031451
f 177 178 179
f 177 179 180
v -2.692069 6.800000 -1.115092
v -2.913875 6.800000 -0.000000
v -2.872905 10.200000 -0.000000
v -2.654219 10.200000 -1.099413
f 181 182 183
f 181 183 184
v -2.913875 6.800000 -0.000000
v -2.692069 6.800000 1.115092
v -2.654219 10.200000 1.099413
v -2.872905 10.200000 -0.000000
f 185 186 187
f 185 187 188
v -2.692069 6.800000 1.115092
v -2.060421 6.800000 2.060421
v -2.031451 10.200000 2.031451
v -2.654219 10.200000 1.099413
f 189 190 191
f 189 191 192
v -2.060421 6.800000 2.060421
v -1.115092 6.800000 2.692069
v -1.110480 7.800000 2.680937
v -2.051900 7.800000 2.051900
f 193 194 195
f 193 195 196
v -2.040823 9.100000 2.040823
v -1.104486 9.100000 2.666464
v -1.099413 10.200000 2.654219
v -2.031451 10.200000 2.031451
f 197 198 199
f 197 199 200
v -1.115092 6.800000 2.692069
v -0.000000 6.800000 2.913875
v -0.000000 10.200000 2.872905
v -1.099413 10.200000 2.654219
f 201 202 203
f 201 203 204
v -0.000000 6.800000 2.913875
v 1.115092 6.800000 2.692069
v 1.099413 10.200000 2.654219
v -0.000000 10.200000 2.872905
f 205 206 207
f 205 207 208
v 1.115092 6.800000 2.692069
v 2.060421 6.800000 2.060421
v 2.031451 10.200000 2.031451
v 1.099413 10.200000 2.654219
f 209 210 211
f 209 211 212
v 2.060421 6.800000 2.060421
v 2.692069 6.800000 1.115092
v 2.680937 7.800000 1.110480
v 2.051900 7.800000 2.051900
f 213 214 215
f 213 215 216
v 2.040823 9.100000 2.040823
v 2.666464 9.100000 1.104486
v 2.654219 10.200000 1.099413
v 2.031451 10.200000 2.031451
f 217 218 219
f 217 219 220
v 2.692069 6.800000 1.115092
v 2.913875 6.800000 -0.000000
v 2.872905 10.200000 -0.000000
v 2.654219 10.200000 1.099413
f 221 222 223
f 221 223 224
v 2.872905 10.200000 -0.000000
v 2.654219 10.200000 -1.099413
v 2.616368 13.600000 -1.083735
v 2.831936 13.600000 -0.000000
f 225 226 227
f 225 227 228
v 2.654219 10.200000 -1.099413
v 2.031451 10.200000 -2.031451
v 2.002481 13.600000 -2.002481
v 2.616368 13.600000 -1.083735
f 229 230 231
f 229 231 232
v 2.031451 10.200000 -2.031451
v 1.099413 10.200000 -2.654219
v 1.083735 13.600000 -2.616368
v 2.002481 13.600000 -2.002481
f 233 234 235
f 233 235 236
v 1.099413 10.200000 -2.654219
v 0.000000 10.200000 -2.872905
v 0.000000 11.200000 -2.860856
v 1.094802 11.200000 -2.643086
f 237 238 239
f 237 239 240
v 1.088807 12.500000 -2.628614
v 0.000000 12.500000 -2.845191
v 0.000000 13.600000 -2.831936
v 1.083735 13.600000 -2.616368
f 241 242 243
f 241 243 244
v 0.000000 10.200000 -2.872905
v -1.099413 10.200000 -2.654219
v -1.083735 13.600000 -2.616368
v 0.000000 13.600000 -2.831936
f 245 246 247
f 245 247 248
v -1.099413 10.200000 -2.654219
v -2.031451 10.200000 -2.031451
v -2.002481 13.600000 -2.002481
v -1.083735 13.600000 -2.616368
f 249 250 251
f 249 251 252
v -2.031451 10.200000 -2.031451
v -2.654219 10.200000 -1.099413
v -2.616368 13.600000 -1.083735
v -2.002481 13.600000 -2.002481
f 253 254 255
f 253 255 256
v -2.654219 10.200000 -1.099413
v -2.872905 10.200000 -0.000000
v -2.860856 11.200000 -0.000000
v -2.643086 11.200000 -1.094802
f 257 258 259
f 257 259 260
v -2.628614 12.500000 -1.088807
v -2.845191 12.500000 -0.000000
v -2.831936 13.600000 -0.000000
v -2.616368 13.600000 -1.083735
f 261 262 263
f 261 263 264
v -2.872905 10.200000 -0.000000
v -2.654219 10.200000 1.099413
v -2.616368 13.600000 1.083735
v -2.831936 13.600000 -0.000000
f 265 266 267
f 265 267 268
v -2.654219 10.200000 1.099413
v -2.031451 10.200000 2.031451
v -2.002481 13.600000 2.002481
v -2.616368 13.600000 1.083735
f 269 270 271
f 269 271 272
v -2.031451 10.200000 2.031451
v -1.099413 10.200000 2.654219
v -1.083735 13.600000 2.616368
v -2.002481 13.600000 2.002481
f 273 274 275
f 273 275 276
v -1.099413 10.200000 2.654219
v -0.000000 10.200000 2.872905
v -0.000000 11.200000 2.860856
v -1.094802 11.200000 2.643086
f 277 278 279
f 277 279 280
v -1.088807 12.500000 2.628614
v -0.000000 12.500000 2.845191
v -0.000000 13.600000 2.831936
v -1.083735 13.600000 2.616368
f 281 282 283
f 281 283 284
v -0.000000 10.200000 2.872905
v 1.099413 10.200000 2.654219
v 1.083735 13.600000 2.616368
v -0.000000 13.600000 2.831936
f 285 286 287
f 285 287 288
v 1.099413 10.200000 2.654219
v 2.031451 10.200000 2.031451
v 2.002481 13.600000 2.002481
v 1.083735 13.600000 2.616368
f 289 290 291
f 289 291 292
v 2.031451 10.200000 2.031451
v 2.654219 10.200000 1.099413
v 2.616368 13.600000 1.083735
v 2.002481 13.600000 2.002481
f 293 294 295
f 293 295 296
v 2.654219 10.200000 1.099413
v 2.872905 10.200000 -0.000000
v 2.860856 11.200000 -0.000000
v 2.643086 11.200000 1.094802
f 297 298 299
f 297 299 300
v 2.628614 12.500000 1.088807
v 2.845191 12.500000 -0.000000
v 2.831936 13.600000 -0.000000
v 2.616368 13.600000 1.083735
f 301 302 303
f 301 303 304
v 2.831936 13.600000 -0.000000
v 2.616368 13.600000 -1.083735
v 2.605235 14.600000 -1.079124
v 2.819886 14.600000 -0.000000
f 305 306 307
f 305 307 308
v 2.804222 15.900000 -0.000000
v 2.590763 15.900000 -1.073129
v 2.578517 17.000000 -1.068057
v 2.790967 17.000000 -0.000000
f 309 310 311
f 309 311 312
v 2.616368 13.600000 -1.083735
v 2.002481 13.600000 -2.002481
v 1.973512 17.000000 -1.973512
v 2.578517 17.000000 -1.068057
f 313 314 315
f 313 315 316
v 2.002481 13.600000 -2.002481
v 1.083735 13.600000 -2.616368
v 1.068057 17.000000 -2.578517
v 1.973512 17.000000 -1.973512
f 317 318 319
f 317 319 320
v 1.083735 13.600000 -2.616368
v 0.000000 13.600000 -2.831936
v 0.000000 17.000000 -2.790967
v 1.068057 17.000000 -2.578517
f 321 322 323
f 321 323 324
v 0.000000 13.600000 -2.831936
v -1.083735 13.600000 -2.616368
v -1.079124 14.600000 -2.605235
v 0.000000 14.600000 -2.819886
f 325 326 327
f 325 327 328
v 0.000000 15.900000 -2.804222
v -1.073129 15.900000 -2.590763
v -1.068057 17.000000 -2.578517
v 0.000000 17.000000 -2.790967
f 329 330 331
f 329 331 332
v -1.083735 13.600000 -2.616368
v -2.002481 13.600000 -2.002481
v -1.973512 17.000000 -1.973512
v -1.068057 17.000000 -2.578517
f 333 334 335
f 333 335 336
v -2.002481 13.600000 -2.002481
v -2.616368 13.600000 -1.083735
v -2.578517 17.000000 -1.068057
v -1.973512 17.000000 -1.973512
f 337 338 339
f 337 339 340
v -2.616368 13.600000 -1.083735
v -2.831936 13.600000 -0.000000
v -2.790967 17.000000 -0.000000
v -2.578517 17.000000 -1.068057
f 341 342 343
f 341 343 344
v -2.831936 13.600000 -0.000000
v -2.616368 13.600000 1.083735
v -2.605235 14.600000 1.079124
v -2.819886 14.600000 -0.000000
f 345 346 347
f 345 347 348
v -2.804222 15.900000 -0.000000
v -2.590763 15.900000 1.073129
v -2.578517 17.000000 1.068057
v -2.790967 17.000000 -0.000000
f 349 350 351
f 349 351 352
v -2.616368 13.600000 1.083735
v -2.002481 13.600000 2.002481
v -1.973512 17.000000 1.973512
v -2.578517 17.000000 1.068057
f 353 354 355
f 353 355 356
v -2.002481 13.600000 2.002481
v -1.083735 13.600000 2.616368
v -1.068057 17.000000 2.578517
v -1.973512 17.000000 1.973512
f 357 358 359
f 357 359 360
v -1.083735 13.600000 2.616368
v -0.000000 13.600000 2.831936
v -0.000000 17.000000 2.790967
v -1.068057 17.000000 2.578517
f 361 362 363
f 361 363 364
v -0.000000 13.600000 2.831936
v 1.083735 13.600000 2.616368
v 1.079124 14.600000 2.605235
v -0.000000 14.600000 2.819886
f 365 366 367
f 365 367 368
v -0.000000 15.900000 2.804222
v 1.073129 15.900000 2.590763
v 1.068057 17.000000 2.578517
v -0.000000 17.000000 2.790967
f 369 370 371
f 369 371 372
v 1.083735 13.600000 2.616368
v 2.002481 13.600000 2.002481
v 1.973512 17.000000 1.973512
v 1.068057 17.000000 2.578517
f 373 374 375
f 373 375 376
v 2.002481 13.600000 2.002481
v 2.616368 13.600000 1.083735
v 2.578517 17.000000 1.068057
v 1.973512 17.000000 1.973512
f 377 378 379
f 377 379 380
v 2.616368 13.600000 1.083735
v 2.831936 13.600000 -0.000000
v 2.790967 17.000000 -0.000000
v 2.578517 17.000000 1.068057
f 381 382 383
f 381 383 384
v 2.790967 17.000000 -0.000000
v 2.578517 17.000000 -1.068057
v 2.540666 20.400000 -1.052378
v 2.749997 20.400000 -0.000000
f 385 386 387
f 385 387 388
v 2.578517 17.000000 -1.068057
v 1.973512 17.000000 -1.973512
v 1.964991 18.000000 -1.964991
v 2.567385 18.000000 -1.063445
f 389 390 391
f 389 391 392
v 2.552912 19.300000 -1.057451
v 1.953914 19.300000 -1.953914
v 1.944542 20.400000 -1.944542
v 2.540666 20.400000 -1.052378
f 393 394 395
f 393 395 396
v 1.973512 17.000000 -1.973512
v 1.068057 17.000000 -2.578517
v 1.052378 20.400000 -2.540666
v 1.944542 20.400000 -1.944542
f 397 398 399
f 397 399 400
v 1.068057 17.000000 -2.578517
v 0.000000 17.000000 -2.790967
v 0.000000 20.400000 -2.749997
v 1.052378 20.400000 -2.540666
f 401 402 403
f 401 403 404
v 0.000000 17.000000 -2.790967
v -1.068057 17.000000 -2.578517
v -1.052378 20.400000 -2.540666
v 0.000000 20.400000 -2.749997
f 405 406 407
f 405 407 408
v -1.068057 17.000000 -2.578517
v -1.973512 17.000000 -1.973512
v -1.964991 18.000000 -1.964991
v -1.063445 18.000000 -2.567385
f 409 410 411
f 409 411 412
v -1.057451 19.300000 -2.552912
v -1.953914 19.300000 -1.953914
v -1.944542 20.400000 -1.944542
v -1.052378 20.400000 -2.540666
f 413 414 415
f 413 415 416
v -1.973512 17.000000 -1.973512
v -2.578517 17.000000 -1.068057
v -2.540666 20.400000 -1.052378
v -1.944542 20.400000 -1.944542
f 417 418 419
f 417 419 420
v -2.578517 17.000000 -1.068057
v -2.790967 17.000000 -0.000000
v -2.749997 20.400000 -0.000000
v -2.540666 20.400000 -1.052378
f 421 422 423
f 421 423 424
v -2.790967 17.000000 -0.000000
v -2.578517 17.000000 1.068057
v -2.540666 20.400000 1.052378
v -2.749997 20.400000 -0.000000
f 425 426 427
f 425 427 428
v -2.578517 17.000000 1.068057
v -1.973512 17.000000 1.973512
v -1.964991 18.000000 1.964991
v -2.567385 18.000000 1.063445
f 429 430 431
f 429 431 432
v -2.552912 19.300000 1.057451
v -1.953914 19.300000 1.953914
v -1.944542 20.400000 1.944542
v -2.540666 20.400000 1.052378
f 433 434 435
f 433 435 436
v -1.973512 17.000000 1.973512
v -1.068057 17.000000 2.578517
v -1.052378 20.400000 2.540666
v -1.944542 20.400000 1.944542
f 437 438 439
f 437 439 440
v -1.068057 17.000000 2.578517
v -0.000000 17.000000 2.790967
v -0.000000 20.400000 2.749997
v -1.052378 20.400000 2.540666
f 441 442 443
f 441 443 444
v -0.000000 17.000000 2.790967
v 1.068057 17.000000 2.578517
v 1.052378 20.400000 2.540666
v -0.000000 20.400000 2.749997
f 445 446 447
f 445 447 448
v 1.068057 17.000000 2.578517
v 1.973512 17.000000 1.973512
v 1.964991 18.000000 1.964991
v 1.063445 18.000000 2.567385
f 449 450 451
f 449 451 452
v 1.057451 19.300000 2.552912
v 1.953914 19.300000 1.953914
v 1.944542 20.400000 1.944542
v 1.052378 20.400000 2.540666
f 453 454 455
f 453 455 456
v 1.973512 17.000000 1.973512
v 2.578517 17.000000 1.068057
v 2.540666 20.400000 1.052378
v 1.944542 20.400000 1.944542
f 457 458 459
f 457 459 460
v 2.578517 17.000000 1.068057
v 2.790967 17.000000 -0.000000
v 2.749997 20.400000 -0.000000
v 2.540666 20.400000 1.052378
f 461 462 463
f 461 463 464
v 2.749997 20.400000 -0.000000
v 2.540666 20.400000 -1.052378
v 2.502816 23.800000 -1.036700
v 2.709028 23.800000 -0.000000
f 465 466 467
f 465 467 468
v 2.540666 20.400000 -1.052378
v 1.944542 20.400000 -1.944542
v 1.915572 23.800000 -1.915572
v 2.502816 23.800000 -1.036700
f 469 470 471
f 469 471 472
v 1.944542 20.400000 -1.944542
v 1.052378 20.400000 -2.540666
v 1.047767 21.400000 -2.529534
v 1.936021 21.400000 -1.936021
f 473 474 475
f 473 475 476
v 1.924945 22.700000 -1.924945
v 1.041773 22.700000 -2.515061
v 1.036700 23.800000 -2.502816
v 1.915572 23.800000 -1.915572
f 477 478 479
f 477 479 480
v 1.052378 20.400000 -2.540666
v 0.000000 20.400000 -2.749997
v 0.000000 23.800000 -2.709028
v 1.036700 23.800000 -2.502816
f 481 482 483
f 481 483 484
v 0.000000 20.400000 -2.749997
v -1.052378 20.400000 -2.540666
v -1.036700 23.800000 -2.502816
v 0.000000 23.800000 -2.709028
f 485 486 487
f 485 487 488
v -1.052378 20.400000 -2.540666
v -1.944542 20.400000 -1.944542
v -1.915572 23.800000 -1.915572
v -1.036700 23.800000 -2.502816
f 489 490 491
f 489 491 492
v -1.944542 20.400000 -1.944542
v -2.540666 20.400000 -1.052378
v -2.529534 21.400000 -1.047767
v -1.936021 21.400000 -1.936021
f 493 494 495
f 493 495 496
v -1.924945 22.700000 -1.924945
v -2.515061 22.700000 -1.041773
v -2.502816 23.800000 -1.036700
v -1.915572 23.800000 -1.915572
f 497 498 499
f 497 499 500
v -2.540666 20.400000 -1.052378
v -2.749997 20.400000 -0.000000
v -2.709028 23.800000 -0.000000
v -2.502816 23.800000 -1.036700
f 501 502 503
f 501 503 504
v -2.749997 20.400000 -0.000000
v -2.540666 20.400000 1.052378
v -2.502816 23.800000 1.036700
v -2.709028 23.800000 -0.000000
f 505 506 507
f 505 507 508
v -2.540666 20.400000 1.052378
v -1.944542 20.400000 1.944542
v -1.915572 23.800000 1.915572
v -2.502816 23.800000 1.036700
f 509 510 511
f 509 511 512
v -1.944542 20.400000 1.944542
v -1.052378 20.400000 2.540666
v -1.047767 21.400000 2.529534
v -1.936021 21.400000 1.936021
f 513 514 515
f 513 515 516
v -1.924945 22.700000 1.924945
v -1.041773 22.700000 2.515061
v -1.036700 23.800000 2.502816
v -1.915572 23.800000 1.915572
f 517 518 519
f 517 519 520
v -1.052378 20.400000 2.540666
v -0.000000 20.400000 2.749997
v -0.000000 23.800000 2.709028
v -1.036700 23.800000 2.502816
f 521 522 523
f 521 523 524
v -0.000000 20.400000 2.749997
v 1.052378 20.400000 2.540666
v 1.036700 23.800000 2.502816
v -0.000000 23.800000 2.709028
f 525 526 527
f 525 527 528
v 1.052378 20.400000 2.540666
v 1.944542 20.400000 1.944542
v 1.915572 23.800000 1.915572
v 1.036700 23.800000 2.502816
f 529 530 531
f 529 531 532
v 1.944542 20.400000 1.944542
v 2.540666 20.400000 1.052378
v 2.529534 21.400000 1.047767
v 1.936021 21.400000 1.936021
f 533 534 535
f 533 535 536
v 1.924945 22.700000 1.924945
v 2.515061 22.700000 1.041773
v 2.502816 23.800000 1.036700
v 1.915572 23.800000 1.915572
f 537 538 539
f 537 539 540
v 2.540666 20.400000 1.052378
v 2.749997 20.400000 -0.000000
v 2.709028 23.800000 -0.000000
v 2.502816 23.800000 1.036700
f 541 542 543
f 541 543 544
v 2.709028 23.800000 -0.000000
v 2.502816 23.800000 -1.036700
v 2.464965 27.200000 -1.021022
v 2.668059 27.200000 -0.000000
f 545 546 547
f 545 547 548
v 2.502816 23.800000 -1.036700
v 1.915572 23.800000 -1.915572
v 1.886602 27.200000 -1.886602
v 2.464965 27.200000 -1.021022
f 549 550 551
f 549 551 552
v 1.915572 23.800000 -1.915572
v 1.036700 23.800000 -2.502816
v 1.021022 27.200000 -2.464965
v 1.886602 27.200000 -1.886602
f 553 554 555
f 553 555 556
v 1.036700 23.800000 -2.502816
v 0.000000 23.800000 -2.709028
v 0.000000 24.800000 -2.696978
v 1.032089 24.800000 -2.491683
f 557 558 559
f 557 559 560
v 1.026094 26.100000 -2.477211
v 0.000000 26.100000 -2.681314
v 0.000000 27.200000 -2.668059
v 1.021022 27.200000 -2.464965
f 561 562 563
f 561 563 564
v 0.000000 23.800000 -2.709028
v -1.036700 23.800000 -2.502816
v -1.021022 27.200000 -2.464965
v 0.000000 27.200000 -2.668059
f 565 566 567
f 565 567 568
v -1.036700 23.800000 -2.502816
v -1.915572 23.800000 -1.915572
v -1.886602 27.200000 -1.886602
v -1.021022 27.200000 -2.464965
f 569 570 571
f 569 571 572
v -1.915572 23.800000 -1.915572
v -2.502816 23.800000 -1.036700
v -2.464965 27.200000 -1.021022
v -1.886602 27.200000 -1.886602
f 573 574 575
f 573 575 576
v -2.502816 23.800000 -1.036700
v -2.709028 23.800000 -0.000000
v -2.696978 24.800000 -0.000000
v -2.491683 24.800000 -1.032089
f 577 578 579
f 577 579 580
v -2.477211 26.100000 -1.026094
v -2.681314 26.100000 -0.000000
v -2.668059 27.200000 -0.000000
v -2.464965 27.200000 -1.021022
f 581 582 583
f 581 583 584
v -2.709028 23.800000 -0.000000
v -2.502816 23.800000 1.036700
v -2.464965 27.200000 1.021022
v -2.668059 27.200000 -0.000000
f 585 586 587
f 585 587 588
v -2.502816 23.800000 1.036700
v -1.915572 23.800000 1.915572
v -1.886602 27.200000 1.886602
v -2.464965 27.200000 1.021022
f 589 590 591
f 589 591 592
v -1.915572 23.800000 1.915572
v -1.036700 23.800000 2.502816
v -1.021022 27.200000 2.464965
v -1.886602 27.200000 1.886602
f 593 594 595
f 593 595 596
v -1.036700 23.800000 2.502816
v -0.000000 23.800000 2.709028
v -0.000000 24.800000 2.696978
v -1.032089 24.800000 2.491683
f 597 598 599
f 597 599 600
v -1.026094 26.100000 2.477211
v -0.000000 26.100000 2.681314
v -0.000000 27.200000 2.668059
v -1.021022 27.200000 2.464965
f 601 602 603
f 601 603 604
v -0.000000 23.800000 2.709028
v 1.036700 23.800000 2.502816
v 1.021022 27.200000 2.464965
v -0.000000 27.200000 2.668059
f 605 606 607
f 605 607 608
v 1.036700 23.800000 2.502816
v 1.915572 23.800000 1.915572
v 1.886602 27.200000 1.886602
v 1.021022 27.200000 2.464965
f 609 610 611
f 609 611 612
v 1.915572 23.800000 1.915572
v 2.502816 23.800000 1.036700
v 2.464965 27.200000 1.021022
v 1.886602 27.200000 1.886602
f 613 614 615
f 613 615 616
v 2.502816 23.800000 1.036700
v 2.709028 23.800000 -0.000000
v 2.696978 24.800000 -0.000000
v 2.491683 24.800000 1.032089
f 617 618 619
f 617 619 620
v 2.477211 26.100000 1.026094
v 2.681314 26.100000 -0.000000
v 2.668059 27.200000 -0.000000
v 2.464965 27.200000 1.021022
f 621 622 623
f 621 623 624
