o mesh
v 0.000000 0.000000 0.015000
v 0.008817 0.000000 0.012135
v 0.014266 0.000000 0.004635
v 0.014266 0.000000 -0.004635
v 0.008817 0.000000 -0.012135
v 0.000000 0.000000 -0.015000
v -0.008817 0.000000 -0.012135
v -0.014266 0.000000 -0.004635
v -0.014266 0.000000 0.004635
v -0.008817 0.000000 0.012135
v 0.000000 0.400000 0.010200
v 0.005995 0.400000 0.008252
v 0.009701 0.400000 0.003152
v 0.009701 0.400000 -0.003152
v 0.005995 0.400000 -0.008252
v 0.000000 0.400000 -0.010200
v -0.005995 0.400000 -0.008252
v -0.009701 0.400000 -0.003152
v -0.009701 0.400000 0.003152
v -0.005995 0.400000 0.008252
f 1 2 12
f 1 12 11
f 2 3 13
f 2 13 12
f 3 4 14
f 3 14 13
f 4 5 15
f 4 15 14
f 5 6 16
f 5 16 15
f 6 7 17
f 6 17 16
f 7 8 18
f 7 18 17
f 8 9 19
f 8 19 18
f 9 10 20
f 9 20 19
f 10 1 11
f 10 11 20
v -0.001210 0.400000 0.010128
v 0.001394 0.405499 0.008477
v 0.003465 0.408897 0.003588
v 0.004213 0.408897 -0.002671
v 0.003351 0.405499 -0.007910
v 0.001210 0.400000 -0.010128
v -0.001394 0.394501 -0.008477
v -0.003465 0.391103 -0.003588
v -0.004213 0.391103 0.002671
v -0.003351 0.394501 0.007910
v -0.284878 0.524313 -0.027043
v -0.283108 0.528052 -0.028165
v -0.281699 0.530363 -0.031490
v -0.281191 0.530363 -0.035746
v -0.281776 0.528052 -0.039309
v -0.283233 0.524313 -0.040817
v -0.285003 0.520573 -0.039694
v -0.286412 0.518263 -0.036370
v -0.286920 0.518263 -0.032113
v -0.286334 0.520573 -0.028551
f 21 22 32
f 21 32 31
f 22 23 33
f 22 33 32
f 23 24 34
f 23 34 33
f 24 25 35
f 24 35 34
f 25 26 36
f 25 36 35
f 26 27 37
f 26 37 36
f 27 28 38
f 27 38 37
f 28 29 39
f 28 39 38
f 29 30 40
f 29 40 39
f 30 21 31
f 30 31 40
v -0.285042 0.524313 -0.027064
v -0.285857 0.528261 -0.028519
v -0.285984 0.530702 -0.032041
v -0.285375 0.530702 -0.036284
v -0.284261 0.528261 -0.039628
v -0.283069 0.524313 -0.040795
v -0.282253 0.520364 -0.039340
v -0.282126 0.517923 -0.035818
v -0.282736 0.517923 -0.031575
v -0.283849 0.520364 -0.028231
v -0.504001 0.467416 -0.060763
v -0.504556 0.470102 -0.061753
v -0.504642 0.471761 -0.064148
v -0.504228 0.471761 -0.067033
v -0.503470 0.470102 -0.069307
v -0.502660 0.467416 -0.070101
v -0.502105 0.464731 -0.069111
v -0.502019 0.463072 -0.066716
v -0.502433 0.463072 -0.063831
v -0.503190 0.464731 -0.061557
f 41 42 52
f 41 52 51
f 42 43 53
f 42 53 52
f 43 44 54
f 43 54 53
f 44 45 55
f 44 55 54
f 45 46 56
f 45 56 55
f 46 47 57
f 46 57 56
f 47 48 58
f 47 58 57
f 48 49 59
f 48 59 58
f 49 50 60
f 49 60 59
f 50 41 51
f 50 51 60
v -0.503330 0.467568 -0.070146
v -0.500595 0.467089 -0.069260
v -0.498904 0.466735 -0.066912
v -0.498904 0.466642 -0.063999
v -0.500595 0.466844 -0.061633
v -0.503330 0.467265 -0.060718
v -0.506066 0.467744 -0.061604
v -0.507757 0.468098 -0.063952
v -0.507757 0.468191 -0.066865
v -0.506066 0.467989 -0.069231
v -0.530541 0.302227 -0.073947
v -0.528681 0.301901 -0.073345
v -0.527532 0.301661 -0.071748
v -0.527532 0.301597 -0.069767
v -0.528681 0.301735 -0.068158
v -0.530541 0.302021 -0.067536
v -0.532401 0.302347 -0.068138
v -0.533551 0.302587 -0.069735
v -0.533551 0.302651 -0.071716
v -0.532401 0.302513 -0.073325
f 61 62 72
f 61 72 71
f 62 63 73
f 62 73 72
f 63 64 74
f 63 74 73
f 64 65 75
f 64 75 74
f 65 66 76
f 65 76 75
f 66 67 77
f 66 77 76
f 67 68 78
f 67 78 77
f 68 69 79
f 68 79 78
f 69 70 80
f 69 80 79
f 70 61 71
f 70 71 80
v -0.530541 0.302124 -0.070742
v -0.530704 0.302691 -0.073241
v -0.530348 0.303176 -0.075827
v -0.529353 0.303559 -0.078521
v -0.527725 0.303841 -0.081322
v -0.525573 0.304040 -0.084211
v -0.523081 0.304184 -0.087156
v -0.520488 0.304313 -0.090119
v -0.518055 0.304467 -0.093055
v -0.516040 0.304687 -0.095921
v -0.514666 0.305010 -0.098679
v -0.514096 0.305460 -0.101301
v -0.514418 0.306053 -0.103774
v -0.515631 0.306788 -0.106096
v -0.517649 0.307650 -0.108283
v -0.520307 0.308615 -0.110362
v -0.523383 0.309646 -0.112371
v -0.526620 0.310703 -0.114353
v -0.529755 0.311743 -0.116352
v -0.532551 0.312730 -0.118408
v -0.534822 0.313632 -0.120553
v -0.536461 0.314435 -0.122804
v -0.537460 0.315135 -0.125162
v -0.537941 0.315753 -0.127608
v -0.537778 0.315186 -0.125108
v -0.538134 0.314701 -0.122522
v -0.539129 0.314318 -0.119828
v -0.540757 0.314036 -0.117027
v -0.542909 0.313837 -0.114139
v -0.545400 0.313693 -0.111193
v -0.547994 0.313564 -0.108230
v -0.550427 0.313410 -0.105294
v -0.552442 0.313190 -0.102428
v -0.553816 0.312867 -0.099670
v -0.554386 0.312417 -0.097048
v -0.554064 0.311824 -0.094576
v -0.552851 0.311090 -0.092253
v -0.550833 0.310227 -0.090066
v -0.548175 0.309262 -0.087987
v -0.545099 0.308231 -0.085978
v -0.541862 0.307175 -0.083996
v -0.538727 0.306134 -0.081997
v -0.535931 0.305148 -0.079941
v -0.533660 0.304245 -0.077796
v -0.532021 0.303442 -0.075546
v -0.531022 0.302742 -0.073187
f 81 82 83
f 81 83 82
f 81 83 84
f 81 84 83
f 81 84 85
f 81 85 84
f 81 85 86
f 81 86 85
f 81 86 87
f 81 87 86
f 81 87 88
f 81 88 87
f 81 88 89
f 81 89 88
f 81 89 90
f 81 90 89
f 81 90 91
f 81 91 90
f 81 91 92
f 81 92 91
f 81 92 93
f 81 93 92
f 81 93 94
f 81 94 93
f 81 94 95
f 81 95 94
f 81 95 96
f 81 96 95
f 81 96 97
f 81 97 96
f 81 97 98
f 81 98 97
f 81 98 99
f 81 99 98
f 81 99 100
f 81 100 99
f 81 100 101
f 81 101 100
f 81 101 102
f 81 102 101
f 81 102 103
f 81 103 102
f 81 103 104
f 81 104 103
f 81 104 105
f 81 105 104
f 81 105 106
f 81 106 105
f 81 106 107
f 81 107 106
f 81 107 108
f 81 108 107
f 81 108 109
f 81 109 108
f 81 109 110
f 81 110 109
f 81 110 111
f 81 111 110
f 81 111 112
f 81 112 111
f 81 112 113
f 81 113 112
f 81 113 114
f 81 114 113
f 81 114 115
f 81 115 114
f 81 115 116
f 81 116 115
f 81 116 117
f 81 117 116
f 81 117 118
f 81 118 117
f 81 118 119
f 81 119 118
f 81 119 120
f 81 120 119
f 81 120 121
f 81 121 120
f 81 121 122
f 81 122 121
f 81 122 123
f 81 123 122
f 81 123 124
f 81 124 123
f 81 124 125
f 81 125 124
f 81 125 126
f 81 126 125
v -0.530541 0.302124 -0.070742
v -0.529777 0.302803 -0.068428
v -0.529179 0.303507 -0.066066
v -0.528984 0.304274 -0.063585
v -0.529400 0.305136 -0.060925
v -0.530536 0.306110 -0.058052
v -0.532349 0.307189 -0.054981
v -0.534636 0.308341 -0.051769
v -0.537059 0.309514 -0.048518
v -0.539203 0.310644 -0.045349
v -0.540655 0.311667 -0.042384
v -0.541080 0.312530 -0.039721
v -0.540297 0.313206 -0.037413
v -0.538303 0.313694 -0.035462
v -0.535284 0.314023 -0.033812
v -0.531572 0.314244 -0.032366
v -0.527582 0.314422 -0.031002
v -0.523727 0.314622 -0.029598
v -0.520346 0.314894 -0.028055
v -0.517642 0.315272 -0.026312
v -0.515658 0.315762 -0.024358
v -0.514286 0.316346 -0.022224
v -0.513316 0.316993 -0.019971
v -0.512513 0.317666 -0.017669
v -0.513277 0.316987 -0.019982
v -0.513875 0.316282 -0.022344
v -0.514070 0.315515 -0.024825
v -0.513654 0.314653 -0.027486
v -0.512518 0.313680 -0.030358
v -0.510705 0.312601 -0.033430
v -0.508418 0.311449 -0.036641
v -0.505994 0.310275 -0.039892
v -0.503850 0.309145 -0.043061
v -0.502399 0.308123 -0.046027
v -0.501974 0.307259 -0.048690
v -0.502757 0.306584 -0.050998
v -0.504751 0.306096 -0.052949
v -0.507770 0.305767 -0.054599
v -0.511481 0.305545 -0.056045
v -0.515472 0.305367 -0.057409
v -0.519327 0.305168 -0.058812
v -0.522708 0.304895 -0.060356
v -0.525412 0.304517 -0.062098
v -0.527396 0.304028 -0.064053
v -0.528768 0.303444 -0.066187
v -0.529738 0.302797 -0.068440
f 127 128 129
f 127 129 128
f 127 129 130
f 127 130 129
f 127 130 131
f 127 131 130
f 127 131 132
f 127 132 131
f 127 132 133
f 127 133 132
f 127 133 134
f 127 134 133
f 127 134 135
f 127 135 134
f 127 135 136
f 127 136 135
f 127 136 137
f 127 137 136
f 127 137 138
f 127 138 137
f 127 138 139
f 127 139 138
f 127 139 140
f 127 140 139
f 127 140 141
f 127 141 140
f 127 141 142
f 127 142 141
f 127 142 143
f 127 143 142
f 127 143 144
f 127 144 143
f 127 144 145
f 127 145 144
f 127 145 146
f 127 146 145
f 127 146 147
f 127 147 146
f 127 147 148
f 127 148 147
f 127 148 149
f 127 149 148
f 127 149 150
f 127 150 149
f 127 150 151
f 127 151 150
f 127 151 152
f 127 152 151
f 127 152 153
f 127 153 152
f 127 153 154
f 127 154 153
f 127 154 155
f 127 155 154
f 127 155 156
f 127 156 155
f 127 156 157
f 127 157 156
f 127 157 158
f 127 158 157
f 127 158 159
f 127 159 158
f 127 159 160
f 127 160 159
f 127 160 161
f 127 161 160
f 127 161 162
f 127 162 161
f 127 162 163
f 127 163 162
f 127 163 164
f 127 164 163
f 127 164 165
f 127 165 164
f 127 165 166
f 127 166 165
f 127 166 167
f 127 167 166
f 127 167 168
f 127 168 167
f 127 168 169
f 127 169 168
f 127 169 170
f 127 170 169
f 127 170 171
f 127 171 170
f 127 171 172
f 127 172 171
v -0.001241 0.400000 -0.010124
v -0.003844 0.405269 -0.007843
v -0.004978 0.408525 -0.002565
v -0.004210 0.408525 0.003692
v -0.001835 0.405269 0.008539
v 0.001241 0.400000 0.010124
v 0.003844 0.394731 0.007843
v 0.004978 0.391475 0.002565
v 0.004210 0.391475 -0.003692
v 0.001835 0.394731 -0.008539
v 0.257502 0.541308 -0.038561
v 0.255732 0.544890 -0.037009
v 0.254961 0.547105 -0.033421
v 0.255483 0.547105 -0.029166
v 0.257098 0.544890 -0.025870
v 0.259190 0.541308 -0.024792
v 0.260959 0.537725 -0.026343
v 0.261731 0.535510 -0.029932
v 0.261209 0.535510 -0.034187
v 0.259594 0.537725 -0.037483
f 173 174 184
f 173 184 183
f 174 175 185
f 174 185 184
f 175 176 186
f 175 186 185
f 176 177 187
f 176 187 186
f 177 178 188
f 177 188 187
f 178 179 189
f 178 189 188
f 179 180 190
f 179 190 189
f 180 181 191
f 180 191 190
f 181 182 192
f 181 192 191
f 182 173 183
f 182 183 192
v 0.258338 0.541308 -0.038612
v 0.260548 0.544734 -0.037290
v 0.261917 0.546852 -0.033824
v 0.261922 0.546852 -0.029537
v 0.260561 0.544734 -0.026068
v 0.258354 0.541308 -0.024740
v 0.256144 0.537881 -0.026062
v 0.254775 0.535763 -0.029529
v 0.254770 0.535763 -0.033815
v 0.256131 0.537881 -0.037285
v 0.447659 0.419299 -0.036619
v 0.449161 0.421629 -0.035720
v 0.450092 0.423070 -0.033362
v 0.450096 0.423070 -0.030447
v 0.449171 0.421629 -0.028088
v 0.447670 0.419299 -0.027186
v 0.446167 0.416969 -0.028085
v 0.445236 0.415529 -0.030442
v 0.445233 0.415529 -0.033357
v 0.446158 0.416969 -0.035716
f 193 194 204
f 193 204 203
f 194 195 205
f 194 205 204
f 195 196 206
f 195 206 205
f 196 197 207
f 196 207 206
f 197 198 208
f 197 208 207
f 198 199 209
f 198 209 208
f 199 200 210
f 199 210 209
f 200 201 211
f 200 211 210
f 201 202 212
f 201 212 211
f 202 193 203
f 202 203 212
v 0.447664 0.419865 -0.036584
v 0.450431 0.419928 -0.035669
v 0.452141 0.419752 -0.033315
v 0.452141 0.419402 -0.030422
v 0.450431 0.419013 -0.028093
v 0.447664 0.418734 -0.027220
v 0.444897 0.418670 -0.028135
v 0.443187 0.418847 -0.030489
v 0.443187 0.419196 -0.033383
v 0.444897 0.419585 -0.035711
v 0.459507 0.231542 -0.057804
v 0.461389 0.231585 -0.057182
v 0.462551 0.231465 -0.055581
v 0.462551 0.231228 -0.053613
v 0.461389 0.230963 -0.052030
v 0.459507 0.230773 -0.051436
v 0.457626 0.230730 -0.052058
v 0.456463 0.230850 -0.053659
v 0.456463 0.231087 -0.055627
v 0.457626 0.231352 -0.057210
f 213 214 224
f 213 224 223
f 214 215 225
f 214 225 224
f 215 216 226
f 215 226 225
f 216 217 227
f 216 227 226
f 217 218 228
f 217 228 227
f 218 219 229
f 218 229 228
f 219 220 230
f 219 230 229
f 220 221 231
f 220 231 230
f 221 222 232
f 221 232 231
f 222 213 223
f 222 223 232
v 0.459507 0.231158 -0.054620
v 0.459699 0.232737 -0.056928
v 0.460367 0.234342 -0.059204
v 0.461718 0.235984 -0.061432
v 0.463806 0.237667 -0.063609
v 0.466557 0.239386 -0.065740
v 0.469784 0.241131 -0.067839
v 0.473212 0.242887 -0.069923
v 0.476520 0.244636 -0.072016
v 0.479378 0.246361 -0.074140
v 0.481493 0.248045 -0.076315
v 0.482646 0.249677 -0.078557
v 0.482720 0.251250 -0.080873
v 0.481716 0.252764 -0.083264
v 0.479749 0.254225 -0.085721
v 0.477040 0.255646 -0.088230
v 0.473881 0.257042 -0.090770
v 0.470601 0.258432 -0.093318
v 0.467523 0.259832 -0.095853
v 0.464920 0.261259 -0.098354
v 0.462980 0.262722 -0.100810
v 0.461779 0.264225 -0.103214
v 0.461259 0.265765 -0.105572
v 0.461216 0.267332 -0.107896
v 0.461024 0.265752 -0.105588
v 0.460355 0.264147 -0.103313
v 0.459005 0.262505 -0.101084
v 0.456917 0.260822 -0.098907
v 0.454166 0.259103 -0.096776
v 0.450939 0.257358 -0.094678
v 0.447511 0.255602 -0.092593
v 0.444203 0.253853 -0.090500
v 0.441345 0.252128 -0.088377
v 0.439230 0.250444 -0.086201
v 0.438077 0.248812 -0.083960
v 0.438002 0.247239 -0.081643
v 0.439007 0.245726 -0.079252
v 0.440974 0.244264 -0.076795
v 0.443683 0.242843 -0.074286
v 0.446842 0.241447 -0.071746
v 0.450122 0.240057 -0.069198
v 0.453200 0.238657 -0.066664
v 0.455803 0.237230 -0.064162
v 0.457742 0.235767 -0.061707
v 0.458944 0.234264 -0.059302
v 0.459464 0.232724 -0.056945
f 233 234 235
f 233 235 234
f 233 235 236
f 233 236 235
f 233 236 237
f 233 237 236
f 233 237 238
f 233 238 237
f 233 238 239
f 233 239 238
f 233 239 240
f 233 240 239
f 233 240 241
f 233 241 240
f 233 241 242
f 233 242 241
f 233 242 243
f 233 243 242
f 233 243 244
f 233 244 243
f 233 244 245
f 233 245 244
f 233 245 246
f 233 246 245
f 233 246 247
f 233 247 246
f 233 247 248
f 233 248 247
f 233 248 249
f 233 249 248
f 233 249 250
f 233 250 249
f 233 250 251
f 233 251 250
f 233 251 252
f 233 252 251
f 233 252 253
f 233 253 252
f 233 253 254
f 233 254 253
f 233 254 255
f 233 255 254
f 233 255 256
f 233 256 255
f 233 256 257
f 233 257 256
f 233 257 258
f 233 258 257
f 233 258 259
f 233 259 258
f 233 259 260
f 233 260 259
f 233 260 261
f 233 261 260
f 233 261 262
f 233 262 261
f 233 262 263
f 233 263 262
f 233 263 264
f 233 264 263
f 233 264 265
f 233 265 264
f 233 265 266
f 233 266 265
f 233 266 267
f 233 267 266
f 233 267 268
f 233 268 267
f 233 268 269
f 233 269 268
f 233 269 270
f 233 270 269
f 233 270 271
f 233 271 270
f 233 271 272
f 233 272 271
f 233 272 273
f 233 273 272
f 233 273 274
f 233 274 273
f 233 274 275
f 233 275 274
f 233 275 276
f 233 276 275
f 233 276 277
f 233 277 276
f 233 277 278
f 233 278 277
v 0.459507 0.231158 -0.054620
v 0.458541 0.231348 -0.051779
v 0.457309 0.231533 -0.049025
v 0.455526 0.231704 -0.046448
v 0.452985 0.231857 -0.044117
v 0.449620 0.231991 -0.042053
v 0.445532 0.232107 -0.040222
v 0.440986 0.232212 -0.038540
v 0.436371 0.232316 -0.036880
v 0.432138 0.232429 -0.035097
v 0.428718 0.232561 -0.033050
v 0.426450 0.232721 -0.030631
v 0.425522 0.232913 -0.027777
v 0.425933 0.233136 -0.024491
v 0.427497 0.233387 -0.020831
v 0.429875 0.233658 -0.016908
v 0.432633 0.233938 -0.012861
v 0.435323 0.234216 -0.008837
v 0.437554 0.234483 -0.004961
v 0.439064 0.234733 -0.001319
v 0.439748 0.234963 0.002056
v 0.439675 0.235175 0.005186
v 0.439051 0.235374 0.008138
v 0.438161 0.235567 0.011003
v 0.439127 0.235376 0.008162
v 0.440359 0.235191 0.005407
v 0.442142 0.235020 0.002831
v 0.444683 0.234867 0.000500
v 0.448048 0.234733 -0.001565
v 0.452136 0.234617 -0.003395
v 0.456682 0.234512 -0.005077
v 0.461297 0.234408 -0.006737
v 0.465530 0.234295 -0.008520
v 0.468950 0.234163 -0.010567
v 0.471218 0.234003 -0.012987
v 0.472146 0.233811 -0.015840
v 0.471735 0.233588 -0.019126
v 0.470171 0.233337 -0.022786
v 0.467793 0.233066 -0.026709
v 0.465035 0.232786 -0.030756
v 0.462345 0.232508 -0.034780
v 0.460114 0.232241 -0.038656
v 0.458604 0.231991 -0.042298
v 0.457920 0.231761 -0.045673
v 0.457993 0.231549 -0.048803
v 0.458617 0.231350 -0.051755
f 279 280 281
f 279 281 280
f 279 281 282
f 279 282 281
f 279 282 283
f 279 283 282
f 279 283 284
f 279 284 283
f 279 284 285
f 279 285 284
f 279 285 286
f 279 286 285
f 279 286 287
f 279 287 286
f 279 287 288
f 279 288 287
f 279 288 289
f 279 289 288
f 279 289 290
f 279 290 289
f 279 290 291
f 279 291 290
f 279 291 292
f 279 292 291
f 279 292 293
f 279 293 292
f 279 293 294
f 279 294 293
f 279 294 295
f 279 295 294
f 279 295 296
f 279 296 295
f 279 296 297
f 279 297 296
f 279 297 298
f 279 298 297
f 279 298 299
f 279 299 298
f 279 299 300
f 279 300 299
f 279 300 301
f 279 301 300
f 279 301 302
f 279 302 301
f 279 302 303
f 279 303 302
f 279 303 304
f 279 304 303
f 279 304 305
f 279 305 304
f 279 305 306
f 279 306 305
f 279 306 307
f 279 307 306
f 279 307 308
f 279 308 307
f 279 308 309
f 279 309 308
f 279 309 310
f 279 310 309
f 279 310 311
f 279 311 310
f 279 311 312
f 279 312 311
f 279 312 313
f 279 313 312
f 279 313 314
f 279 314 313
f 279 314 315
f 279 315 314
f 279 315 316
f 279 316 315
f 279 316 317
f 279 317 316
f 279 317 318
f 279 318 317
f 279 318 319
f 279 319 318
f 279 319 320
f 279 320 319
f 279 320 321
f 279 321 320
f 279 321 322
f 279 322 321
f 279 322 323
f 279 323 322
f 279 323 324
f 279 324 323
