o mesh
v 0.000000 0.000000 0.015000
v 0.008817 0.000000 0.012135
v 0.014266 0.000000 0.004635
v 0.014266 0.000000 -0.004635
v 0.008817 0.000000 -0.012135
v 0.000000 0.000000 -0.015000
v -0.008817 0.000000 -0.012135
v -0.014266 0.000000 -0.004635
v -0.014266 0.000000 0.004635
v -0.008817 0.000000 0.012135
v 0.000000 0.400000 0.010200
v 0.005995 0.400000 0.008252
v 0.009701 0.400000 0.003152
v 0.009701 0.400000 -0.003152
v 0.005995 0.400000 -0.008252
v 0.000000 0.400000 -0.010200
v -0.005995 0.400000 -0.008252
v -0.009701 0.400000 -0.003152
v -0.009701 0.400000 0.003152
v -0.005995 0.400000 0.008252
f 1 2 12
f 1 12 11
f 2 3 13
f 2 13 12
f 3 4 14
f 3 14 13
f 4 5 15
f 4 15 14
f 5 6 16
f 5 16 15
f 6 7 17
f 6 17 16
f 7 8 18
f 7 18 17
f 8 9 19
f 8 19 18
f 9 10 20
f 9 20 19
f 10 1 11
f 10 11 20
v 0.001753 0.400000 0.010048
v 0.005024 0.404748 0.007500
v 0.006377 0.407682 0.002087
v 0.005294 0.407682 -0.004123
v 0.002188 0.404748 -0.008758
v -0.001753 0.400000 -0.010048
v -0.005024 0.395252 -0.007500
v -0.006377 0.392318 -0.002087
v -0.005294 0.392318 0.004123
v -0.002188 0.395252 0.008758
v -0.261027 0.605235 0.052572
v -0.258802 0.608464 0.050839
v -0.257882 0.610459 0.047159
v -0.258619 0.610459 0.042936
v -0.260730 0.608464 0.039784
v -0.263410 0.605235 0.038906
v -0.265635 0.602007 0.040639
v -0.266555 0.600011 0.044320
v -0.265818 0.600011 0.048543
v -0.263707 0.602007 0.051695
f 21 22 32
f 21 32 31
f 22 23 33
f 22 33 32
f 23 24 34
f 23 34 33
f 24 25 35
f 24 35 34
f 25 26 36
f 25 36 35
f 26 27 37
f 26 37 36
f 27 28 38
f 27 38 37
f 28 29 39
f 28 39 38
f 29 30 40
f 29 40 39
f 30 21 31
f 30 31 40
v -0.261251 0.605235 0.052608
v -0.263380 0.608809 0.051570
v -0.265065 0.611017 0.048305
v -0.265663 0.611017 0.044060
v -0.264945 0.608809 0.040457
v -0.263186 0.605235 0.038871
v -0.261058 0.601662 0.039909
v -0.259373 0.599454 0.043174
v -0.258775 0.599454 0.047419
v -0.259492 0.601662 0.051022
v -0.483966 0.481854 0.081739
v -0.485413 0.484284 0.081033
v -0.486559 0.485786 0.078813
v -0.486966 0.485786 0.075926
v -0.486478 0.484284 0.073476
v -0.485282 0.481854 0.072398
v -0.483834 0.479425 0.073104
v -0.482689 0.477923 0.075324
v -0.482282 0.477923 0.078210
v -0.482770 0.479425 0.080660
f 41 42 52
f 41 52 51
f 42 43 53
f 42 53 52
f 43 44 54
f 43 54 53
f 44 45 55
f 44 55 54
f 45 46 56
f 45 56 55
f 46 47 57
f 46 57 56
f 47 48 58
f 47 58 57
f 48 49 59
f 48 59 58
f 49 50 60
f 49 60 59
f 50 41 51
f 50 51 60
v -0.484624 0.481072 0.072417
v -0.481852 0.481257 0.073299
v -0.480139 0.481671 0.075621
v -0.480139 0.482155 0.078496
v -0.481852 0.482524 0.080825
v -0.484624 0.482637 0.081719
v -0.487396 0.482452 0.080837
v -0.489109 0.482038 0.078515
v -0.489109 0.481554 0.075641
v -0.487396 0.481185 0.073311
v -0.482167 0.298511 0.104677
v -0.480282 0.298638 0.105277
v -0.479117 0.298919 0.106856
v -0.479117 0.299248 0.108810
v -0.480282 0.299499 0.110394
v -0.482167 0.299576 0.111002
v -0.484052 0.299450 0.110402
v -0.485217 0.299168 0.108824
v -0.485217 0.298839 0.106869
v -0.484052 0.298588 0.105285
f 61 62 72
f 61 72 71
f 62 63 73
f 62 73 72
f 63 64 74
f 63 74 73
f 64 65 75
f 64 75 74
f 65 66 76
f 65 76 75
f 66 67 77
f 66 77 76
f 67 68 78
f 67 78 77
f 68 69 79
f 68 79 78
f 69 70 80
f 69 80 79
f 70 61 71
f 70 71 80
v -0.482167 0.299044 0.107840
v -0.481870 0.299723 0.105643
v -0.480898 0.300407 0.103424
v -0.479350 0.301095 0.101185
v -0.477355 0.301788 0.098932
v -0.475066 0.302482 0.096669
v -0.472658 0.303177 0.094401
v -0.470311 0.303872 0.092136
v -0.468201 0.304565 0.089879
v -0.466483 0.305255 0.087635
v -0.465287 0.305941 0.085408
v -0.464705 0.306622 0.083202
v -0.464783 0.307298 0.081018
v -0.465522 0.307969 0.078856
v -0.466874 0.308635 0.076714
v -0.468748 0.309297 0.074590
v -0.471015 0.309956 0.072478
v -0.473518 0.310613 0.070375
v -0.476082 0.311269 0.068274
v -0.478527 0.311927 0.066168
v -0.480679 0.312586 0.064053
v -0.482383 0.313249 0.061923
v -0.483511 0.313917 0.059774
v -0.483965 0.314590 0.057603
v -0.484261 0.313911 0.059799
v -0.485233 0.313227 0.062019
v -0.486781 0.312539 0.064257
v -0.488777 0.311846 0.066510
v -0.491065 0.311152 0.068774
v -0.493473 0.310457 0.071041
v -0.495820 0.309762 0.073306
v -0.497931 0.309069 0.075563
v -0.499649 0.308379 0.077807
v -0.500844 0.307693 0.080034
v -0.501427 0.307012 0.082240
v -0.501348 0.306336 0.084425
v -0.500610 0.305665 0.086587
v -0.499258 0.304999 0.088728
v -0.497384 0.304337 0.090853
v -0.495116 0.303678 0.092964
v -0.492613 0.303021 0.095067
v -0.490049 0.302365 0.097168
v -0.487604 0.301707 0.099274
v -0.485452 0.301048 0.101389
v -0.483748 0.300384 0.103519
v -0.482620 0.299717 0.105668
f 81 82 83
f 81 83 82
f 81 83 84
f 81 84 83
f 81 84 85
f 81 85 84
f 81 85 86
f 81 86 85
f 81 86 87
f 81 87 86
f 81 87 88
f 81 88 87
f 81 88 89
f 81 89 88
f 81 89 90
f 81 90 89
f 81 90 91
f 81 91 90
f 81 91 92
f 81 92 91
f 81 92 93
f 81 93 92
f 81 93 94
f 81 94 93
f 81 94 95
f 81 95 94
f 81 95 96
f 81 96 95
f 81 96 97
f 81 97 96
f 81 97 98
f 81 98 97
f 81 98 99
f 81 99 98
f 81 99 100
f 81 100 99
f 81 100 101
f 81 101 100
f 81 101 102
f 81 102 101
f 81 102 103
f 81 103 102
f 81 103 104
f 81 104 103
f 81 104 105
f 81 105 104
f 81 105 106
f 81 106 105
f 81 106 107
f 81 107 106
f 81 107 108
f 81 108 107
f 81 108 109
f 81 109 108
f 81 109 110
f 81 110 109
f 81 110 111
f 81 111 110
f 81 111 112
f 81 112 111
f 81 112 113
f 81 113 112
f 81 113 114
f 81 114 113
f 81 114 115
f 81 115 114
f 81 115 116
f 81 116 115
f 81 116 117
f 81 117 116
f 81 117 118
f 81 118 117
f 81 118 119
f 81 119 118
f 81 119 120
f 81 120 119
f 81 120 121
f 81 121 120
f 81 121 122
f 81 122 121
f 81 122 123
f 81 123 122
f 81 123 124
f 81 124 123
f 81 124 125
f 81 125 124
f 81 125 126
f 81 126 125
v -0.482167 0.299044 0.107840
v -0.481341 0.300358 0.110606
v -0.480841 0.301684 0.113471
v -0.480963 0.303033 0.116524
v -0.481900 0.304413 0.119821
v -0.483686 0.305824 0.123376
v -0.486189 0.307262 0.127146
v -0.489119 0.308716 0.131044
v -0.492074 0.310171 0.134951
v -0.494601 0.311610 0.138728
v -0.496274 0.313017 0.142248
v -0.496762 0.314380 0.145411
v -0.495884 0.315692 0.148162
v -0.493640 0.316953 0.150501
v -0.490210 0.318170 0.152482
v -0.485926 0.319355 0.154207
v -0.481216 0.320524 0.155802
v -0.476529 0.321694 0.157405
v -0.472270 0.322880 0.159137
v -0.468727 0.324092 0.161085
v -0.466035 0.325337 0.163289
v -0.464156 0.326611 0.165738
v -0.462900 0.327909 0.168375
v -0.461969 0.329219 0.171110
v -0.462795 0.327905 0.168343
v -0.463295 0.326579 0.165478
v -0.463172 0.325230 0.162426
v -0.462236 0.323850 0.159128
v -0.460450 0.322439 0.155574
v -0.457947 0.321001 0.151804
v -0.455017 0.319547 0.147905
v -0.452062 0.318092 0.143999
v -0.449535 0.316653 0.140221
v -0.447862 0.315246 0.136701
v -0.447374 0.313883 0.133539
v -0.448252 0.312571 0.130788
v -0.450496 0.311310 0.128449
v -0.453926 0.310093 0.126467
v -0.458210 0.308908 0.124743
v -0.462920 0.307739 0.123147
v -0.467607 0.306569 0.121544
v -0.471866 0.305383 0.119812
v -0.475409 0.304171 0.117865
v -0.478101 0.302926 0.115661
v -0.479980 0.301652 0.113212
v -0.481236 0.300354 0.110575
f 127 128 129
f 127 129 128
f 127 129 130
f 127 130 129
f 127 130 131
f 127 131 130
f 127 131 132
f 127 132 131
f 127 132 133
f 127 133 132
f 127 133 134
f 127 134 133
f 127 134 135
f 127 135 134
f 127 135 136
f 127 136 135
f 127 136 137
f 127 137 136
f 127 137 138
f 127 138 137
f 127 138 139
f 127 139 138
f 127 139 140
f 127 140 139
f 127 140 141
f 127 141 140
f 127 141 142
f 127 142 141
f 127 142 143
f 127 143 142
f 127 143 144
f 127 144 143
f 127 144 145
f 127 145 144
f 127 145 146
f 127 146 145
f 127 146 147
f 127 147 146
f 127 147 148
f 127 148 147
f 127 148 149
f 127 149 148
f 127 149 150
f 127 150 149
f 127 150 151
f 127 151 150
f 127 151 152
f 127 152 151
f 127 152 153
f 127 153 152
f 127 153 154
f 127 154 153
f 127 154 155
f 127 155 154
f 127 155 156
f 127 156 155
f 127 156 157
f 127 157 156
f 127 157 158
f 127 158 157
f 127 158 159
f 127 159 158
f 127 159 160
f 127 160 159
f 127 160 161
f 127 161 160
f 127 161 162
f 127 162 161
f 127 162 163
f 127 163 162
f 127 163 164
f 127 164 163
f 127 164 165
f 127 165 164
f 127 165 166
f 127 166 165
f 127 166 167
f 127 167 166
f 127 167 168
f 127 168 167
f 127 168 169
f 127 169 168
f 127 169 170
f 127 170 169
f 127 170 171
f 127 171 170
f 127 171 172
f 127 172 171
