o mesh
v -3.245564 0.000000 2.892149
v 3.245564 0.000000 2.892149
v 3.245564 0.000000 -2.892149
v -3.245564 0.000000 -2.892149
v -3.245564 0.200000 2.892149
v 3.245564 0.200000 2.892149
v 3.245564 0.200000 -2.892149
v -3.245564 0.200000 -2.892149
f 1 3 2
f 1 4 3
f 5 6 7
f 5 7 8
f 1 2 6
f 1 6 5
f 2 3 7
f 2 7 6
f 3 4 8
f 3 8 7
f 4 1 5
f 4 5 8
v -2.845564 0.200000 2.492149
v 2.845564 0.200000 2.492149
v 2.845564 0.200000 -2.492149
v -2.845564 0.200000 -2.492149
v -2.845564 0.400000 2.492149
v 2.845564 0.400000 2.492149
v 2.845564 0.400000 -2.492149
v -2.845564 0.400000 -2.492149
f 9 11 10
f 9 12 11
f 13 14 15
f 13 15 16
f 9 10 14
f 9 14 13
f 10 11 15
f 10 15 14
f 11 12 16
f 11 16 15
f 12 9 13
f 12 13 16
v -2.445564 0.400000 1.692149
v 2.445564 0.400000 1.692149
v 2.445564 0.400000 -1.692149
v -2.445564 0.400000 -1.692149
v -2.445564 3.220894 1.692149
v 2.445564 3.220894 1.692149
v 2.445564 3.220894 -1.692149
v -2.445564 3.220894 -1.692149
f 17 19 18
f 17 20 19
f 21 22 23
f 21 23 24
f 17 18 22
f 17 22 21
f 18 19 23
f 18 23 22
f 19 20 24
f 19 24 23
f 20 17 21
f 20 21 24
v -2.695564 3.220894 1.942149
v 2.695564 3.220894 1.942149
v 0.000000 4.320894 1.942149
v -2.695564 3.220894 -1.942149
v 2.695564 3.220894 -1.942149
v 0.000000 4.320894 -1.942149
f 25 27 26
f 28 29 30
f 25 26 29
f 25 29 28
f 25 28 30
f 25 30 27
f 26 27 30
f 26 30 29
v -1.945564 0.400000 2.192149
v -1.983761 0.400000 2.074592
v -2.083761 0.400000 2.001938
v -2.207367 0.400000 2.001938
v -2.307367 0.400000 2.074592
v -2.345564 0.400000 2.192149
v -2.307367 0.400000 2.309706
v -2.207367 0.400000 2.382360
v -2.083761 0.400000 2.382360
v -1.983761 0.400000 2.309706
v -1.975564 3.220894 2.192149
v -2.008031 3.220894 2.092226
v -2.093031 3.220894 2.030469
v -2.198097 3.220894 2.030469
v -2.283097 3.220894 2.092226
v -2.315564 3.220894 2.192149
v -2.283097 3.220894 2.292073
v -2.198097 3.220894 2.353829
v -2.093031 3.220894 2.353829
v -2.008031 3.220894 2.292073
v -2.145564 3.220894 2.192149
f 31 32 42
f 31 42 41
f 32 33 43
f 32 43 42
f 33 34 44
f 33 44 43
f 34 35 45
f 34 45 44
f 35 36 46
f 35 46 45
f 36 37 47
f 36 47 46
f 37 38 48
f 37 48 47
f 38 39 49
f 38 49 48
f 39 40 50
f 39 50 49
f 40 31 41
f 40 41 50
f 41 42 51
f 42 43 51
f 43 44 51
f 44 45 51
f 45 46 51
f 46 47 51
f 47 48 51
f 48 49 51
f 49 50 51
f 50 41 51
v -0.615188 0.400000 2.192149
v -0.653385 0.400000 2.074592
v -0.753385 0.400000 2.001938
v -0.876991 0.400000 2.001938
v -0.976991 0.400000 2.074592
v -1.015188 0.400000 2.192149
v -0.976991 0.400000 2.309706
v -0.876991 0.400000 2.382360
v -0.753385 0.400000 2.382360
v -0.653385 0.400000 2.309706
v -0.645188 3.220894 2.192149
v -0.677655 3.220894 2.092226
v -0.762655 3.220894 2.030469
v -0.867721 3.220894 2.030469
v -0.952721 3.220894 2.092226
v -0.985188 3.220894 2.192149
v -0.952721 3.220894 2.292073
v -0.867721 3.220894 2.353829
v -0.762655 3.220894 2.353829
v -0.677655 3.220894 2.292073
v -0.815188 3.220894 2.192149
f 52 53 63
f 52 63 62
f 53 54 64
f 53 64 63
f 54 55 65
f 54 65 64
f 55 56 66
f 55 66 65
f 56 57 67
f 56 67 66
f 57 58 68
f 57 68 67
f 58 59 69
f 58 69 68
f 59 60 70
f 59 70 69
f 60 61 71
f 60 71 70
f 61 52 62
f 61 62 71
f 62 63 72
f 63 64 72
f 64 65 72
f 65 66 72
f 66 67 72
f 67 68 72
f 68 69 72
f 69 70 72
f 70 71 72
f 71 62 72
v 1.015188 0.400000 2.192149
v 0.976991 0.400000 2.074592
v 0.876991 0.400000 2.001938
v 0.753385 0.400000 2.001938
v 0.653385 0.400000 2.074592
v 0.615188 0.400000 2.192149
v 0.653385 0.400000 2.309706
v 0.753385 0.400000 2.382360
v 0.876991 0.400000 2.382360
v 0.976991 0.400000 2.309706
v 0.985188 3.220894 2.192149
v 0.952721 3.220894 2.092226
v 0.867721 3.220894 2.030469
v 0.762655 3.220894 2.030469
v 0.677655 3.220894 2.092226
v 0.645188 3.220894 2.192149
v 0.677655 3.220894 2.292073
v 0.762655 3.220894 2.353829
v 0.867721 3.220894 2.353829
v 0.952721 3.220894 2.292073
v 0.815188 3.220894 2.192149
f 73 74 84
f 73 84 83
f 74 75 85
f 74 85 84
f 75 76 86
f 75 86 85
f 76 77 87
f 76 87 86
f 77 78 88
f 77 88 87
f 78 79 89
f 78 89 88
f 79 80 90
f 79 90 89
f 80 81 91
f 80 91 90
f 81 82 92
f 81 92 91
f 82 73 83
f 82 83 92
f 83 84 93
f 84 85 93
f 85 86 93
f 86 87 93
f 87 88 93
f 88 89 93
f 89 90 93
f 90 91 93
f 91 92 93
f 92 83 93
v 2.345564 0.400000 2.192149
v 2.307367 0.400000 2.074592
v 2.207367 0.400000 2.001938
v 2.083761 0.400000 2.001938
v 1.983761 0.400000 2.074592
v 1.945564 0.400000 2.192149
v 1.983761 0.400000 2.309706
v 2.083761 0.400000 2.382360
v 2.207367 0.400000 2.382360
v 2.307367 0.400000 2.309706
v 2.315564 3.220894 2.192149
v 2.283097 3.220894 2.092226
v 2.198097 3.220894 2.030469
v 2.093031 3.220894 2.030469
v 2.008031 3.220894 2.092226
v 1.975564 3.220894 2.192149
v 2.008031 3.220894 2.292073
v 2.093031 3.220894 2.353829
v 2.198097 3.220894 2.353829
v 2.283097 3.220894 2.292073
v 2.145564 3.220894 2.192149
f 94 95 105
f 94 105 104
f 95 96 106
f 95 106 105
f 96 97 107
f 96 107 106
f 97 98 108
f 97 108 107
f 98 99 109
f 98 109 108
f 99 100 110
f 99 110 109
f 100 101 111
f 100 111 110
f 101 102 112
f 101 112 111
f 102 103 113
f 102 113 112
f 103 94 104
f 103 104 113
f 104 105 114
f 105 106 114
f 106 107 114
f 107 108 114
f 108 109 114
f 109 110 114
f 110 111 114
f 111 112 114
f 112 113 114
f 113 104 114
v -2.595564 3.220894 2.417149
v 2.595564 3.220894 2.417149
v 2.595564 3.220894 1.967149
v -2.595564 3.220894 1.967149
v -2.595564 3.400894 2.417149
v 2.595564 3.400894 2.417149
v 2.595564 3.400894 1.967149
v -2.595564 3.400894 1.967149
f 115 117 116
f 115 118 117
f 119 120 121
f 119 121 122
f 115 116 120
f 115 120 119
f 116 117 121
f 116 121 120
f 117 118 122
f 117 122 121
f 118 115 119
f 118 119 122
