o mesh
v 0.000000 0.000000 0.035000
v 0.016490 0.000000 0.022697
v 0.028878 0.000000 0.009383
v 0.028878 0.000000 -0.009383
v 0.016490 0.000000 -0.022697
v 0.000000 0.000000 -0.035000
v -0.016490 0.000000 -0.022697
v -0.028878 0.000000 -0.009383
v -0.028878 0.000000 0.009383
v -0.016490 0.000000 0.022697
v 0.000000 0.600000 0.031500
v 0.014841 0.600000 0.020427
v 0.025990 0.600000 0.008445
v 0.025990 0.600000 -0.008445
v 0.014841 0.600000 -0.020427
v 0.000000 0.600000 -0.031500
v -0.014841 0.600000 -0.020427
v -0.025990 0.600000 -0.008445
v -0.025990 0.600000 0.008445
v -0.014841 0.600000 0.020427
f 1 2 12
f 1 12 11
f 2 3 13
f 2 13 12
f 3 4 14
f 3 14 13
f 4 5 15
f 4 15 14
f 5 6 16
f 5 16 15
f 6 7 17
f 6 17 16
f 7 8 18
f 7 18 17
f 8 9 19
f 8 19 18
f 9 10 20
f 9 20 19
f 10 1 11
f 10 11 20
v 0.000000 0.599864 0.031500
v 0.014789 0.601153 0.020433
v 0.025899 0.602137 0.008454
v 0.025899 0.602210 -0.008435
v 0.014789 0.601329 -0.020422
v 0.000000 0.600136 -0.031500
v -0.014789 0.598847 -0.020433
v -0.025899 0.597863 -0.008454
v -0.025899 0.597790 0.008435
v -0.014789 0.598671 0.020422
v -0.040343 1.080549 0.030421
v -0.027033 1.081709 0.020460
v -0.017034 1.082594 0.009680
v -0.017034 1.082660 -0.005521
v -0.027033 1.081867 -0.016309
v -0.040343 1.080793 -0.026279
v -0.053653 1.079633 -0.016318
v -0.063652 1.078747 -0.005538
v -0.063652 1.078682 0.009663
v -0.053653 1.079475 0.020451
f 21 22 32
f 21 32 31
f 22 23 33
f 22 33 32
f 23 24 34
f 23 34 33
f 24 25 35
f 24 35 34
f 25 26 36
f 25 36 35
f 26 27 37
f 26 37 36
f 27 28 38
f 27 38 37
f 28 29 39
f 28 39 38
f 29 30 40
f 29 40 39
f 30 21 31
f 30 31 40
v -0.040343 1.080671 0.002071
v -0.039582 1.079122 0.007303
v -0.037704 1.077667 0.012473
v -0.034429 1.076329 0.017565
v -0.029761 1.075109 0.022579
v -0.023929 1.073987 0.027528
v -0.017335 1.072929 0.032435
v -0.010502 1.071891 0.037328
v -0.004011 1.070824 0.042241
v 0.001568 1.069680 0.047204
v 0.005736 1.068418 0.052246
v 0.008130 1.067006 0.057387
v 0.008556 1.065429 0.062638
v 0.007013 1.063686 0.067998
v 0.003695 1.061794 0.073458
v -0.001032 1.059782 0.078996
v -0.006672 1.057695 0.084585
v -0.012654 1.055578 0.090193
v -0.018397 1.053481 0.095787
v -0.023378 1.051449 0.101340
v -0.027194 1.049515 0.106827
v -0.029619 1.047697 0.112237
v -0.030645 1.045998 0.117568
v -0.030555 1.044392 0.122838
v -0.031317 1.045941 0.117606
v -0.033194 1.047396 0.112436
v -0.036470 1.048734 0.107344
v -0.041137 1.049954 0.102330
v -0.046969 1.051076 0.097381
v -0.053564 1.052135 0.092474
v -0.060397 1.053173 0.087580
v -0.066888 1.054239 0.082668
v -0.072466 1.055383 0.077705
v -0.076635 1.056645 0.072663
v -0.079029 1.058057 0.067522
v -0.079454 1.059634 0.062271
v -0.077912 1.061377 0.056910
v -0.074594 1.063270 0.051451
v -0.069867 1.065281 0.045913
v -0.064227 1.067369 0.040324
v -0.058245 1.069485 0.034716
v -0.052502 1.071582 0.029121
v -0.047521 1.073614 0.023569
v -0.043704 1.075549 0.018082
v -0.041279 1.077366 0.012672
v -0.040253 1.079065 0.007340
f 41 42 43
f 41 43 42
f 41 43 44
f 41 44 43
f 41 44 45
f 41 45 44
f 41 45 46
f 41 46 45
f 41 46 47
f 41 47 46
f 41 47 48
f 41 48 47
f 41 48 49
f 41 49 48
f 41 49 50
f 41 50 49
f 41 50 51
f 41 51 50
f 41 51 52
f 41 52 51
f 41 52 53
f 41 53 52
f 41 53 54
f 41 54 53
f 41 54 55
f 41 55 54
f 41 55 56
f 41 56 55
f 41 56 57
f 41 57 56
f 41 57 58
f 41 58 57
f 41 58 59
f 41 59 58
f 41 59 60
f 41 60 59
f 41 60 61
f 41 61 60
f 41 61 62
f 41 62 61
f 41 62 63
f 41 63 62
f 41 63 64
f 41 64 63
f 41 64 65
f 41 65 64
f 41 65 66
f 41 66 65
f 41 66 67
f 41 67 66
f 41 67 68
f 41 68 67
f 41 68 69
f 41 69 68
f 41 69 70
f 41 70 69
f 41 70 71
f 41 71 70
f 41 71 72
f 41 72 71
f 41 72 73
f 41 73 72
f 41 73 74
f 41 74 73
f 41 74 75
f 41 75 74
f 41 75 76
f 41 76 75
f 41 76 77
f 41 77 76
f 41 77 78
f 41 78 77
f 41 78 79
f 41 79 78
f 41 79 80
f 41 80 79
f 41 80 81
f 41 81 80
f 41 81 82
f 41 82 81
f 41 82 83
f 41 83 82
f 41 83 84
f 41 84 83
f 41 84 85
f 41 85 84
f 41 85 86
f 41 86 85
v -0.040343 1.080671 0.002071
v -0.034550 1.078734 0.003232
v -0.028447 1.076827 0.003239
v -0.021936 1.074962 0.001734
v -0.015008 1.073138 -0.001320
v -0.007722 1.071350 -0.005703
v -0.000194 1.069586 -0.010984
v 0.007420 1.067830 -0.016585
v 0.014943 1.066066 -0.021848
v 0.022199 1.064275 -0.026122
v 0.029035 1.062442 -0.028834
v 0.035336 1.060555 -0.029561
v 0.041042 1.058609 -0.028076
v 0.046152 1.056604 -0.024381
v 0.050727 1.054545 -0.018700
v 0.054882 1.052444 -0.011458
v 0.058770 1.050316 -0.003225
v 0.062567 1.048179 0.005344
v 0.066451 1.046051 0.013594
v 0.070576 1.043947 0.020946
v 0.075059 1.041879 0.026968
v 0.079960 1.039853 0.031442
v 0.085267 1.037867 0.034404
v 0.090886 1.035912 0.036212
v 0.085093 1.037849 0.035051
v 0.078990 1.039756 0.035044
v 0.072479 1.041621 0.036549
v 0.065551 1.043445 0.039603
v 0.058265 1.045233 0.043986
v 0.050737 1.046997 0.049267
v 0.043123 1.048753 0.054868
v 0.035600 1.050517 0.060131
v 0.028343 1.052308 0.064405
v 0.021508 1.054141 0.067117
v 0.015207 1.056028 0.067844
v 0.009501 1.057974 0.066359
v 0.004391 1.059979 0.062664
v -0.000185 1.062038 0.056983
v -0.004339 1.064139 0.049741
v -0.008227 1.066267 0.041508
v -0.012025 1.068404 0.032939
v -0.015908 1.070532 0.024689
v -0.020033 1.072636 0.017337
v -0.024516 1.074704 0.011315
v -0.029417 1.076730 0.006841
v -0.034725 1.078716 0.003879
f 87 88 89
f 87 89 88
f 87 89 90
f 87 90 89
f 87 90 91
f 87 91 90
f 87 91 92
f 87 92 91
f 87 92 93
f 87 93 92
f 87 93 94
f 87 94 93
f 87 94 95
f 87 95 94
f 87 95 96
f 87 96 95
f 87 96 97
f 87 97 96
f 87 97 98
f 87 98 97
f 87 98 99
f 87 99 98
f 87 99 100
f 87 100 99
f 87 100 101
f 87 101 100
f 87 101 102
f 87 102 101
f 87 102 103
f 87 103 102
f 87 103 104
f 87 104 103
f 87 104 105
f 87 105 104
f 87 105 106
f 87 106 105
f 87 106 107
f 87 107 106
f 87 107 108
f 87 108 107
f 87 108 109
f 87 109 108
f 87 109 110
f 87 110 109
f 87 110 111
f 87 111 110
f 87 111 112
f 87 112 111
f 87 112 113
f 87 113 112
f 87 113 114
f 87 114 113
f 87 114 115
f 87 115 114
f 87 115 116
f 87 116 115
f 87 116 117
f 87 117 116
f 87 117 118
f 87 118 117
f 87 118 119
f 87 119 118
f 87 119 120
f 87 120 119
f 87 120 121
f 87 121 120
f 87 121 122
f 87 122 121
f 87 122 123
f 87 123 122
f 87 123 124
f 87 124 123
f 87 124 125
f 87 125 124
f 87 125 126
f 87 126 125
f 87 126 127
f 87 127 126
f 87 127 128
f 87 128 127
f 87 128 129
f 87 129 128
f 87 129 130
f 87 130 129
f 87 130 131
f 87 131 130
f 87 131 132
f 87 132 131
v -0.040343 1.080671 0.002071
v -0.035632 1.077221 -0.001344
v -0.031350 1.073738 -0.005344
v -0.027892 1.070190 -0.010461
v -0.025507 1.066559 -0.017037
v -0.024244 1.062840 -0.025137
v -0.023927 1.059047 -0.034521
v -0.024172 1.055210 -0.044669
v -0.024450 1.051371 -0.054861
v -0.024163 1.047576 -0.064287
v -0.022750 1.043868 -0.072182
v -0.019772 1.040283 -0.077953
v -0.014992 1.036839 -0.081274
v -0.008408 1.033535 -0.082147
v -0.000260 1.030354 -0.080895
v 0.009014 1.027260 -0.078112
v 0.018853 1.024211 -0.074563
v 0.028660 1.021159 -0.071057
v 0.037904 1.018063 -0.068316
v 0.046202 1.014893 -0.066859
v 0.053378 1.011636 -0.066927
v 0.059481 1.008295 -0.068453
v 0.064761 1.004890 -0.071096
v 0.069610 1.001451 -0.074324
v 0.064899 1.004900 -0.070908
v 0.060618 1.008384 -0.066908
v 0.057159 1.011931 -0.061791
v 0.054774 1.015563 -0.055216
v 0.053511 1.019282 -0.047116
v 0.053194 1.023075 -0.037732
v 0.053440 1.026911 -0.027583
v 0.053717 1.030751 -0.017391
v 0.053431 1.034546 -0.007965
v 0.052017 1.038253 -0.000070
v 0.049039 1.041838 0.005700
v 0.044259 1.045283 0.009021
v 0.037675 1.048586 0.009894
v 0.029528 1.051768 0.008642
v 0.020253 1.054861 0.005859
v 0.010414 1.057911 0.002310
v 0.000607 1.060963 -0.001196
v -0.008636 1.064058 -0.003937
v -0.016935 1.067228 -0.005393
v -0.024111 1.070485 -0.005326
v -0.030213 1.073827 -0.003800
v -0.035493 1.077232 -0.001157
f 133 134 135
f 133 135 134
f 133 135 136
f 133 136 135
f 133 136 137
f 133 137 136
f 133 137 138
f 133 138 137
f 133 138 139
f 133 139 138
f 133 139 140
f 133 140 139
f 133 140 141
f 133 141 140
f 133 141 142
f 133 142 141
f 133 142 143
f 133 143 142
f 133 143 144
f 133 144 143
f 133 144 145
f 133 145 144
f 133 145 146
f 133 146 145
f 133 146 147
f 133 147 146
f 133 147 148
f 133 148 147
f 133 148 149
f 133 149 148
f 133 149 150
f 133 150 149
f 133 150 151
f 133 151 150
f 133 151 152
f 133 152 151
f 133 152 153
f 133 153 152
f 133 153 154
f 133 154 153
f 133 154 155
f 133 155 154
f 133 155 156
f 133 156 155
f 133 156 157
f 133 157 156
f 133 157 158
f 133 158 157
f 133 158 159
f 133 159 158
f 133 159 160
f 133 160 159
f 133 160 161
f 133 161 160
f 133 161 162
f 133 162 161
f 133 162 163
f 133 163 162
f 133 163 164
f 133 164 163
f 133 164 165
f 133 165 164
f 133 165 166
f 133 166 165
f 133 166 167
f 133 167 166
f 133 167 168
f 133 168 167
f 133 168 169
f 133 169 168
f 133 169 170
f 133 170 169
f 133 170 171
f 133 171 170
f 133 171 172
f 133 172 171
f 133 172 173
f 133 173 172
f 133 173 174
f 133 174 173
f 133 174 175
f 133 175 174
f 133 175 176
f 133 176 175
f 133 176 177
f 133 177 176
f 133 177 178
f 133 178 177
v -0.040343 1.080671 0.002071
v -0.042489 1.078992 -0.002876
v -0.045855 1.077209 -0.007380
v -0.050593 1.075308 -0.011384
v -0.056610 1.073298 -0.014924
v -0.063634 1.071202 -0.018099
v -0.071260 1.069055 -0.021054
v -0.079004 1.066898 -0.023966
v -0.086347 1.064774 -0.027025
v -0.092794 1.062728 -0.030408
v -0.097922 1.060794 -0.034271
v -0.101425 1.058999 -0.038725
v -0.103139 1.057357 -0.043829
v -0.103066 1.055868 -0.049582
v -0.101366 1.054518 -0.055927
v -0.098348 1.053280 -0.062751
v -0.094434 1.052119 -0.069900
v -0.090119 1.050993 -0.077195
v -0.085922 1.049856 -0.084447
v -0.082327 1.048668 -0.091480
v -0.079739 1.047394 -0.098148
v -0.078429 1.046011 -0.104351
v -0.078493 1.044510 -0.110054
v -0.079776 1.042905 -0.115315
v -0.077629 1.044584 -0.110368
v -0.074264 1.046367 -0.105864
v -0.069525 1.048267 -0.101860
v -0.063508 1.050277 -0.098320
v -0.056485 1.052373 -0.095145
v -0.048858 1.054521 -0.092190
v -0.041115 1.056678 -0.089278
v -0.033772 1.058801 -0.086219
v -0.027325 1.060848 -0.082836
v -0.022196 1.062782 -0.078973
v -0.018694 1.064577 -0.074519
v -0.016979 1.066219 -0.069415
v -0.017053 1.067708 -0.063662
v -0.018753 1.069058 -0.057317
v -0.021771 1.070295 -0.050493
v -0.025685 1.071456 -0.043344
v -0.029999 1.072583 -0.036049
v -0.034197 1.073719 -0.028797
v -0.037791 1.074907 -0.021764
v -0.040379 1.076181 -0.015096
v -0.041689 1.077565 -0.008893
v -0.041626 1.079066 -0.003190
f 179 180 181
f 179 181 180
f 179 181 182
f 179 182 181
f 179 182 183
f 179 183 182
f 179 183 184
f 179 184 183
f 179 184 185
f 179 185 184
f 179 185 186
f 179 186 185
f 179 186 187
f 179 187 186
f 179 187 188
f 179 188 187
f 179 188 189
f 179 189 188
f 179 189 190
f 179 190 189
f 179 190 191
f 179 191 190
f 179 191 192
f 179 192 191
f 179 192 193
f 179 193 192
f 179 193 194
f 179 194 193
f 179 194 195
f 179 195 194
f 179 195 196
f 179 196 195
f 179 196 197
f 179 197 196
f 179 197 198
f 179 198 197
f 179 198 199
f 179 199 198
f 179 199 200
f 179 200 199
f 179 200 201
f 179 201 200
f 179 201 202
f 179 202 201
f 179 202 203
f 179 203 202
f 179 203 204
f 179 204 203
f 179 204 205
f 179 205 204
f 179 205 206
f 179 206 205
f 179 206 207
f 179 207 206
f 179 207 208
f 179 208 207
f 179 208 209
f 179 209 208
f 179 209 210
f 179 210 209
f 179 210 211
f 179 211 210
f 179 211 212
f 179 212 211
f 179 212 213
f 179 213 212
f 179 213 214
f 179 214 213
f 179 214 215
f 179 215 214
f 179 215 216
f 179 216 215
f 179 216 217
f 179 217 216
f 179 217 218
f 179 218 217
f 179 218 219
f 179 219 218
f 179 219 220
f 179 220 219
f 179 220 221
f 179 221 220
f 179 221 222
f 179 222 221
f 179 222 223
f 179 223 222
f 179 223 224
f 179 224 223
v -0.040343 1.080671 0.002071
v -0.044998 1.076992 0.002305
v -0.049707 1.073303 0.003867
v -0.054479 1.069602 0.006963
v -0.059309 1.065890 0.011514
v -0.064186 1.062169 0.017229
v -0.069092 1.058442 0.023657
v -0.074005 1.054714 0.030248
v -0.078900 1.050990 0.036409
v -0.083755 1.047273 0.041569
v -0.088549 1.043568 0.045238
v -0.093269 1.039877 0.047059
v -0.097906 1.036201 0.046843
v -0.102460 1.032542 0.044590
v -0.106940 1.028896 0.040489
v -0.111360 1.025262 0.034897
v -0.115739 1.021636 0.028303
v -0.120100 1.018013 0.021280
v -0.124468 1.014389 0.014420
v -0.128865 1.010759 0.008274
v -0.133309 1.007121 0.003291
v -0.137812 1.003471 -0.000239
v -0.142377 0.999809 -0.002232
v -0.146996 0.996137 -0.002898
v -0.142341 0.999816 -0.003133
v -0.137632 1.003505 -0.004694
v -0.132861 1.007206 -0.007791
v -0.128031 1.010918 -0.012342
v -0.123153 1.014639 -0.018056
v -0.118247 1.018366 -0.024484
v -0.113335 1.022094 -0.031075
v -0.108439 1.025818 -0.037236
v -0.103585 1.029535 -0.042396
v -0.098790 1.033240 -0.046065
v -0.094071 1.036931 -0.047886
v -0.089434 1.040607 -0.047670
v -0.084879 1.044266 -0.045417
v -0.080399 1.047912 -0.041316
v -0.075980 1.051546 -0.035724
v -0.071601 1.055172 -0.029131
v -0.067239 1.058795 -0.022108
v -0.062871 1.062419 -0.015247
v -0.058474 1.066049 -0.009101
v -0.054030 1.069687 -0.004118
v -0.049527 1.073337 -0.000589
v -0.044962 1.076999 0.001404
f 225 226 227
f 225 227 226
f 225 227 228
f 225 228 227
f 225 228 229
f 225 229 228
f 225 229 230
f 225 230 229
f 225 230 231
f 225 231 230
f 225 231 232
f 225 232 231
f 225 232 233
f 225 233 232
f 225 233 234
f 225 234 233
f 225 234 235
f 225 235 234
f 225 235 236
f 225 236 235
f 225 236 237
f 225 237 236
f 225 237 238
f 225 238 237
f 225 238 239
f 225 239 238
f 225 239 240
f 225 240 239
f 225 240 241
f 225 241 240
f 225 241 242
f 225 242 241
f 225 242 243
f 225 243 242
f 225 243 244
f 225 244 243
f 225 244 245
f 225 245 244
f 225 245 246
f 225 246 245
f 225 246 247
f 225 247 246
f 225 247 248
f 225 248 247
f 225 248 249
f 225 249 248
f 225 249 250
f 225 250 249
f 225 250 251
f 225 251 250
f 225 251 252
f 225 252 251
f 225 252 253
f 225 253 252
f 225 253 254
f 225 254 253
f 225 254 255
f 225 255 254
f 225 255 256
f 225 256 255
f 225 256 257
f 225 257 256
f 225 257 258
f 225 258 257
f 225 258 259
f 225 259 258
f 225 259 260
f 225 260 259
f 225 260 261
f 225 261 260
f 225 261 262
f 225 262 261
f 225 262 263
f 225 263 262
f 225 263 264
f 225 264 263
f 225 264 265
f 225 265 264
f 225 265 266
f 225 266 265
f 225 266 267
f 225 267 266
f 225 267 268
f 225 268 267
f 225 268 269
f 225 269 268
f 225 269 270
f 225 270 269
v -0.040343 1.080973 0.030419
v -0.027154 1.082981 0.020432
v -0.017247 1.084455 0.009631
v -0.017247 1.084292 -0.005568
v -0.027154 1.082589 -0.016335
v -0.040343 1.080368 -0.026277
v -0.053532 1.078360 -0.016290
v -0.063439 1.076887 -0.005489
v -0.063439 1.077050 0.009710
v -0.053532 1.078753 0.020477
v -0.106080 1.490967 0.023208
v -0.094210 1.492774 0.014219
v -0.085293 1.494100 0.004499
v -0.085293 1.493954 -0.009181
v -0.094210 1.492421 -0.018871
v -0.106080 1.490423 -0.027819
v -0.117949 1.488616 -0.018831
v -0.126866 1.487290 -0.009110
v -0.126866 1.487436 0.004570
v -0.117949 1.488969 0.014260
f 271 272 282
f 271 282 281
f 272 273 283
f 272 283 282
f 273 274 284
f 273 284 283
f 274 275 285
f 274 285 284
f 275 276 286
f 275 286 285
f 276 277 287
f 276 287 286
f 277 278 288
f 277 288 287
f 278 279 289
f 278 289 288
f 279 280 290
f 279 290 289
f 280 271 281
f 280 281 290
v -0.106080 1.490695 -0.002306
v -0.104936 1.488379 0.001871
v -0.103254 1.486150 0.005960
v -0.100568 1.484079 0.009885
v -0.096595 1.482212 0.013601
v -0.091297 1.480555 0.017100
v -0.084897 1.479074 0.020420
v -0.077856 1.477693 0.023635
v -0.070803 1.476315 0.026848
v -0.064435 1.474828 0.030173
v -0.059409 1.473129 0.033716
v -0.056231 1.471136 0.037561
v -0.055178 1.468806 0.041753
v -0.056250 1.466139 0.046291
v -0.059171 1.463179 0.051130
v -0.063433 1.460007 0.056188
v -0.068380 1.456725 0.061358
v -0.073315 1.453446 0.066526
v -0.077609 1.450268 0.071589
v -0.080802 1.447265 0.076473
v -0.082668 1.444472 0.081140
v -0.083249 1.441884 0.085598
v -0.082825 1.439454 0.089892
v -0.081863 1.437110 0.094099
v -0.083006 1.439425 0.089922
v -0.084688 1.441655 0.085833
v -0.087374 1.443726 0.081908
v -0.091347 1.445593 0.078192
v -0.096645 1.447249 0.074693
v -0.103045 1.448731 0.071373
v -0.110086 1.450111 0.068158
v -0.117139 1.451490 0.064945
v -0.123507 1.452977 0.061620
v -0.128533 1.454676 0.058077
v -0.131711 1.456669 0.054232
v -0.132764 1.458999 0.050040
v -0.131692 1.461666 0.045502
v -0.128771 1.464626 0.040663
v -0.124510 1.467798 0.035605
v -0.119562 1.471080 0.030435
v -0.114627 1.474359 0.025267
v -0.110333 1.477537 0.020204
v -0.107140 1.480540 0.015320
v -0.105274 1.483332 0.010652
v -0.104694 1.485921 0.006195
v -0.105117 1.488351 0.001901
f 291 292 293
f 291 293 292
f 291 293 294
f 291 294 293
f 291 294 295
f 291 295 294
f 291 295 296
f 291 296 295
f 291 296 297
f 291 297 296
f 291 297 298
f 291 298 297
f 291 298 299
f 291 299 298
f 291 299 300
f 291 300 299
f 291 300 301
f 291 301 300
f 291 301 302
f 291 302 301
f 291 302 303
f 291 303 302
f 291 303 304
f 291 304 303
f 291 304 305
f 291 305 304
f 291 305 306
f 291 306 305
f 291 306 307
f 291 307 306
f 291 307 308
f 291 308 307
f 291 308 309
f 291 309 308
f 291 309 310
f 291 310 309
f 291 310 311
f 291 311 310
f 291 311 312
f 291 312 311
f 291 312 313
f 291 313 312
f 291 313 314
f 291 314 313
f 291 314 315
f 291 315 314
f 291 315 316
f 291 316 315
f 291 316 317
f 291 317 316
f 291 317 318
f 291 318 317
f 291 318 319
f 291 319 318
f 291 319 320
f 291 320 319
f 291 320 321
f 291 321 320
f 291 321 322
f 291 322 321
f 291 322 323
f 291 323 322
f 291 323 324
f 291 324 323
f 291 324 325
f 291 325 324
f 291 325 326
f 291 326 325
f 291 326 327
f 291 327 326
f 291 327 328
f 291 328 327
f 291 328 329
f 291 329 328
f 291 329 330
f 291 330 329
f 291 330 331
f 291 331 330
f 291 331 332
f 291 332 331
f 291 332 333
f 291 333 332
f 291 333 334
f 291 334 333
f 291 334 335
f 291 335 334
f 291 335 336
f 291 336 335
v -0.106080 1.490695 -0.002306
v -0.101504 1.488289 -0.000409
v -0.096551 1.485936 0.000728
v -0.091019 1.483663 0.000701
v -0.084834 1.481481 -0.000641
v -0.078039 1.479383 -0.003211
v -0.070789 1.477349 -0.006699
v -0.063323 1.475345 -0.010619
v -0.055936 1.473329 -0.014381
v -0.048933 1.471261 -0.017369
v -0.042591 1.469100 -0.019027
v -0.037119 1.466819 -0.018936
v -0.032627 1.464402 -0.016871
v -0.029115 1.461848 -0.012832
v -0.026473 1.459174 -0.007044
v -0.024492 1.456408 0.000074
v -0.022895 1.453589 0.007966
v -0.021377 1.450759 0.016017
v -0.019643 1.447958 0.023634
v -0.017454 1.445221 0.030334
v -0.014656 1.442569 0.035807
v -0.011203 1.440008 0.039964
v -0.007172 1.437526 0.042957
v -0.002764 1.435097 0.045191
v -0.007339 1.437503 0.043294
v -0.012293 1.439856 0.042157
v -0.017824 1.442129 0.042184
v -0.024009 1.444311 0.043527
v -0.030804 1.446409 0.046097
v -0.038054 1.448443 0.049584
v -0.045520 1.450448 0.053504
v -0.052907 1.452463 0.057266
v -0.059910 1.454532 0.060254
v -0.066252 1.456692 0.061912
v -0.071725 1.458973 0.061822
v -0.076216 1.461391 0.059757
v -0.079728 1.463944 0.055717
v -0.082370 1.466618 0.049929
v -0.084351 1.469384 0.042811
v -0.085948 1.472203 0.034919
v -0.087466 1.475033 0.026868
v -0.089200 1.477834 0.019251
v -0.091389 1.480571 0.012551
v -0.094188 1.483223 0.007078
v -0.097640 1.485785 0.002921
v -0.101671 1.488266 -0.000072
f 337 338 339
f 337 339 338
f 337 339 340
f 337 340 339
f 337 340 341
f 337 341 340
f 337 341 342
f 337 342 341
f 337 342 343
f 337 343 342
f 337 343 344
f 337 344 343
f 337 344 345
f 337 345 344
f 337 345 346
f 337 346 345
f 337 346 347
f 337 347 346
f 337 347 348
f 337 348 347
f 337 348 349
f 337 349 348
f 337 349 350
f 337 350 349
f 337 350 351
f 337 351 350
f 337 351 352
f 337 352 351
f 337 352 353
f 337 353 352
f 337 353 354
f 337 354 353
f 337 354 355
f 337 355 354
f 337 355 356
f 337 356 355
f 337 356 357
f 337 357 356
f 337 357 358
f 337 358 357
f 337 358 359
f 337 359 358
f 337 359 360
f 337 360 359
f 337 360 361
f 337 361 360
f 337 361 362
f 337 362 361
f 337 362 363
f 337 363 362
f 337 363 364
f 337 364 363
f 337 364 365
f 337 365 364
f 337 365 366
f 337 366 365
f 337 366 367
f 337 367 366
f 337 367 368
f 337 368 367
f 337 368 369
f 337 369 368
f 337 369 370
f 337 370 369
f 337 370 371
f 337 371 370
f 337 371 372
f 337 372 371
f 337 372 373
f 337 373 372
f 337 373 374
f 337 374 373
f 337 374 375
f 337 375 374
f 337 375 376
f 337 376 375
f 337 376 377
f 337 377 376
f 337 377 378
f 337 378 377
f 337 378 379
f 337 379 378
f 337 379 380
f 337 380 379
f 337 380 381
f 337 381 380
f 337 381 382
f 337 382 381
v -0.106080 1.490695 -0.002306
v -0.102975 1.490165 -0.005956
v -0.100701 1.489494 -0.010445
v -0.099304 1.488672 -0.015817
v -0.098689 1.487717 -0.021979
v -0.098668 1.486660 -0.028738
v -0.098979 1.485546 -0.035833
v -0.099323 1.484427 -0.042961
v -0.099387 1.483355 -0.049807
v -0.098877 1.482382 -0.056074
v -0.097545 1.481549 -0.061512
v -0.095210 1.480888 -0.065939
v -0.091780 1.480414 -0.069261
v -0.087253 1.480128 -0.071478
v -0.081724 1.480013 -0.072684
v -0.075372 1.480039 -0.073061
v -0.068447 1.480163 -0.072859
v -0.061242 1.480335 -0.072375
v -0.054069 1.480502 -0.071924
v -0.047229 1.480612 -0.071808
v -0.040982 1.480620 -0.072291
v -0.035518 1.480494 -0.073562
v -0.030931 1.480218 -0.075718
v -0.027174 1.479800 -0.078711
v -0.030279 1.480330 -0.075061
v -0.032553 1.481001 -0.070572
v -0.033950 1.481823 -0.065200
v -0.034564 1.482778 -0.059038
v -0.034586 1.483835 -0.052279
v -0.034275 1.484949 -0.045183
v -0.033931 1.486069 -0.038055
v -0.033866 1.487140 -0.031210
v -0.034376 1.488114 -0.024943
v -0.035709 1.488946 -0.019505
v -0.038043 1.489608 -0.015077
v -0.041474 1.490081 -0.011755
v -0.046001 1.490367 -0.009539
v -0.051530 1.490482 -0.008333
v -0.057881 1.490456 -0.007956
v -0.064807 1.490332 -0.008158
v -0.072012 1.490160 -0.008642
v -0.079185 1.489993 -0.009093
v -0.086024 1.489884 -0.009208
v -0.092271 1.489875 -0.008726
v -0.097735 1.490001 -0.007455
v -0.102323 1.490277 -0.005299
f 383 384 385
f 383 385 384
f 383 385 386
f 383 386 385
f 383 386 387
f 383 387 386
f 383 387 388
f 383 388 387
f 383 388 389
f 383 389 388
f 383 389 390
f 383 390 389
f 383 390 391
f 383 391 390
f 383 391 392
f 383 392 391
f 383 392 393
f 383 393 392
f 383 393 394
f 383 394 393
f 383 394 395
f 383 395 394
f 383 395 396
f 383 396 395
f 383 396 397
f 383 397 396
f 383 397 398
f 383 398 397
f 383 398 399
f 383 399 398
f 383 399 400
f 383 400 399
f 383 400 401
f 383 401 400
f 383 401 402
f 383 402 401
f 383 402 403
f 383 403 402
f 383 403 404
f 383 404 403
f 383 404 405
f 383 405 404
f 383 405 406
f 383 406 405
f 383 406 407
f 383 407 406
f 383 407 408
f 383 408 407
f 383 408 409
f 383 409 408
f 383 409 410
f 383 410 409
f 383 410 411
f 383 411 410
f 383 411 412
f 383 412 411
f 383 412 413
f 383 413 412
f 383 413 414
f 383 414 413
f 383 414 415
f 383 415 414
f 383 415 416
f 383 416 415
f 383 416 417
f 383 417 416
f 383 417 418
f 383 418 417
f 383 418 419
f 383 419 418
f 383 419 420
f 383 420 419
f 383 420 421
f 383 421 420
f 383 421 422
f 383 422 421
f 383 422 423
f 383 423 422
f 383 423 424
f 383 424 423
f 383 424 425
f 383 425 424
f 383 425 426
f 383 426 425
f 383 426 427
f 383 427 426
f 383 427 428
f 383 428 427
v -0.106080 1.490695 -0.002306
v -0.108602 1.486952 -0.006392
v -0.112429 1.483009 -0.009719
v -0.117610 1.478857 -0.012254
v -0.123990 1.474520 -0.014090
v -0.131269 1.470045 -0.015402
v -0.139045 1.465493 -0.016424
v -0.146856 1.460936 -0.017424
v -0.154227 1.456446 -0.018683
v -0.160709 1.452094 -0.020459
v -0.165925 1.447936 -0.022974
v -0.169604 1.444015 -0.026387
v -0.171603 1.440354 -0.030779
v -0.171922 1.436951 -0.036152
v -0.170703 1.433785 -0.042422
v -0.168218 1.430814 -0.049431
v -0.164845 1.427980 -0.056957
v -0.161031 1.425214 -0.064742
v -0.157253 1.422443 -0.072505
v -0.153972 1.419595 -0.079979
v -0.151589 1.416608 -0.086927
v -0.150405 1.413437 -0.093177
v -0.150576 1.410057 -0.098636
v -0.152051 1.406476 -0.103334
v -0.149528 1.410218 -0.099248
v -0.145702 1.414162 -0.095922
v -0.140520 1.418314 -0.093386
v -0.134140 1.422651 -0.091550
v -0.126861 1.427126 -0.090238
v -0.119085 1.431678 -0.089217
v -0.111274 1.436235 -0.088216
v -0.103903 1.440725 -0.086957
v -0.097422 1.445077 -0.085181
v -0.092205 1.449235 -0.082666
v -0.088526 1.453155 -0.079253
v -0.086527 1.456817 -0.074861
v -0.086209 1.460220 -0.069488
v -0.087428 1.463386 -0.063218
v -0.089912 1.466357 -0.056209
v -0.093285 1.469191 -0.048683
v -0.097099 1.471957 -0.040898
v -0.100878 1.474728 -0.033135
v -0.104159 1.477576 -0.025662
v -0.106541 1.480563 -0.018713
v -0.107725 1.483734 -0.012463
v -0.107554 1.487114 -0.007004
f 429 430 431
f 429 431 430
f 429 431 432
f 429 432 431
f 429 432 433
f 429 433 432
f 429 433 434
f 429 434 433
f 429 434 435
f 429 435 434
f 429 435 436
f 429 436 435
f 429 436 437
f 429 437 436
f 429 437 438
f 429 438 437
f 429 438 439
f 429 439 438
f 429 439 440
f 429 440 439
f 429 440 441
f 429 441 440
f 429 441 442
f 429 442 441
f 429 442 443
f 429 443 442
f 429 443 444
f 429 444 443
f 429 444 445
f 429 445 444
f 429 445 446
f 429 446 445
f 429 446 447
f 429 447 446
f 429 447 448
f 429 448 447
f 429 448 449
f 429 449 448
f 429 449 450
f 429 450 449
f 429 450 451
f 429 451 450
f 429 451 452
f 429 452 451
f 429 452 453
f 429 453 452
f 429 453 454
f 429 454 453
f 429 454 455
f 429 455 454
f 429 455 456
f 429 456 455
f 429 456 457
f 429 457 456
f 429 457 458
f 429 458 457
f 429 458 459
f 429 459 458
f 429 459 460
f 429 460 459
f 429 460 461
f 429 461 460
f 429 461 462
f 429 462 461
f 429 462 463
f 429 463 462
f 429 463 464
f 429 464 463
f 429 464 465
f 429 465 464
f 429 465 466
f 429 466 465
f 429 466 467
f 429 467 466
f 429 467 468
f 429 468 467
f 429 468 469
f 429 469 468
f 429 469 470
f 429 470 469
f 429 470 471
f 429 471 470
f 429 471 472
f 429 472 471
f 429 472 473
f 429 473 472
f 429 473 474
f 429 474 473
v -0.106080 1.490695 -0.002306
v -0.111385 1.488144 -0.001684
v -0.116642 1.485606 -0.000529
v -0.121796 1.483097 0.001746
v -0.126810 1.480627 0.005578
v -0.131668 1.478201 0.011117
v -0.136389 1.475812 0.018165
v -0.141022 1.473448 0.026178
v -0.145641 1.471087 0.034351
v -0.150330 1.468707 0.041749
v -0.155171 1.466285 0.047468
v -0.160231 1.463803 0.050797
v -0.165543 1.461250 0.051344
v -0.171107 1.458627 0.049110
v -0.176890 1.455943 0.044487
v -0.182825 1.453217 0.038184
v -0.188830 1.450472 0.031105
v -0.194821 1.447731 0.024187
v -0.200724 1.445014 0.018235
v -0.206490 1.442335 0.013790
v -0.212101 1.439699 0.011054
v -0.217570 1.437103 0.009874
v -0.222937 1.434534 0.009814
v -0.228256 1.431980 0.010287
v -0.222950 1.434531 0.009665
v -0.217694 1.437068 0.008510
v -0.212539 1.439577 0.006235
v -0.207525 1.442047 0.002403
v -0.202667 1.444474 -0.003136
v -0.197946 1.446863 -0.010184
v -0.193313 1.449227 -0.018197
v -0.188695 1.451587 -0.026370
v -0.184006 1.453967 -0.033768
v -0.179164 1.456389 -0.039487
v -0.174105 1.458872 -0.042815
v -0.168793 1.461425 -0.043363
v -0.163228 1.464048 -0.041129
v -0.157445 1.466731 -0.036506
v -0.151511 1.469457 -0.030203
v -0.145505 1.472203 -0.023124
v -0.139514 1.474944 -0.016206
v -0.133611 1.477661 -0.010254
v -0.127845 1.480340 -0.005809
v -0.122235 1.482976 -0.003073
v -0.116766 1.485572 -0.001893
v -0.111398 1.488140 -0.001833
f 475 476 477
f 475 477 476
f 475 477 478
f 475 478 477
f 475 478 479
f 475 479 478
f 475 479 480
f 475 480 479
f 475 480 481
f 475 481 480
f 475 481 482
f 475 482 481
f 475 482 483
f 475 483 482
f 475 483 484
f 475 484 483
f 475 484 485
f 475 485 484
f 475 485 486
f 475 486 485
f 475 486 487
f 475 487 486
f 475 487 488
f 475 488 487
f 475 488 489
f 475 489 488
f 475 489 490
f 475 490 489
f 475 490 491
f 475 491 490
f 475 491 492
f 475 492 491
f 475 492 493
f 475 493 492
f 475 493 494
f 475 494 493
f 475 494 495
f 475 495 494
f 475 495 496
f 475 496 495
f 475 496 497
f 475 497 496
f 475 497 498
f 475 498 497
f 475 498 499
f 475 499 498
f 475 499 500
f 475 500 499
f 475 500 501
f 475 501 500
f 475 501 502
f 475 502 501
f 475 502 503
f 475 503 502
f 475 503 504
f 475 504 503
f 475 504 505
f 475 505 504
f 475 505 506
f 475 506 505
f 475 506 507
f 475 507 506
f 475 507 508
f 475 508 507
f 475 508 509
f 475 509 508
f 475 509 510
f 475 510 509
f 475 510 511
f 475 511 510
f 475 511 512
f 475 512 511
f 475 512 513
f 475 513 512
f 475 513 514
f 475 514 513
f 475 514 515
f 475 515 514
f 475 515 516
f 475 516 515
f 475 516 517
f 475 517 516
f 475 517 518
f 475 518 517
f 475 518 519
f 475 519 518
f 475 519 520
f 475 520 519
