o mesh
v 4.687657 0.000000 -0.850000
v 4.644316 0.000000 -1.039892
v 4.522875 0.000000 -1.192174
v 4.347388 0.000000 -1.276684
v 4.152612 0.000000 -1.276684
v 3.977125 0.000000 -1.192174
v 3.855684 0.000000 -1.039892
v 3.812343 0.000000 -0.850000
v 3.855684 0.000000 -0.660108
v 3.977125 0.000000 -0.507826
v 4.152612 0.000000 -0.423316
v 4.347388 0.000000 -0.423316
v 4.522875 0.000000 -0.507826
v 4.644316 0.000000 -0.660108
v 4.651186 0.182357 -0.850000
v 4.611456 0.182357 -1.024068
v 4.500135 0.182357 -1.163660
v 4.339272 0.182357 -1.241127
v 4.160728 0.182357 -1.241127
v 3.999865 0.182357 -1.163660
v 3.888544 0.182357 -1.024068
v 3.848814 0.182357 -0.850000
v 3.888544 0.182357 -0.675932
v 3.999865 0.182357 -0.536340
v 4.160728 0.182357 -0.458873
v 4.339272 0.182357 -0.458873
v 4.500135 0.182357 -0.536340
v 4.611456 0.182357 -0.675932
v 4.250000 0.182357 -0.850000
f 1 2 16
f 1 16 15
f 2 3 17
f 2 17 16
f 3 4 18
f 3 18 17
f 4 5 19
f 4 19 18
f 5 6 20
f 5 20 19
f 6 7 21
f 6 21 20
f 7 8 22
f 7 22 21
f 8 9 23
f 8 23 22
f 9 10 24
f 9 24 23
f 10 11 25
f 10 25 24
f 11 12 26
f 11 26 25
f 12 13 27
f 12 27 26
f 13 14 28
f 13 28 27
f 14 1 15
f 14 15 28
f 15 16 29
f 16 17 29
f 17 18 29
f 18 19 29
f 19 20 29
f 20 21 29
f 21 22 29
f 22 23 29
f 23 24 29
f 24 25 29
f 25 26 29
f 26 27 29
f 27 28 29
f 28 15 29
v 4.556360 0.182357 -0.850000
v 4.526021 0.182357 -0.982925
v 4.441012 0.182357 -1.089522
v 4.318172 0.182357 -1.148679
v 4.181828 0.182357 -1.148679
v 4.058988 0.182357 -1.089522
v 3.973979 0.182357 -0.982925
v 3.943640 0.182357 -0.850000
v 3.973979 0.182357 -0.717075
v 4.058988 0.182357 -0.610478
v 4.181828 0.182357 -0.551321
v 4.318172 0.182357 -0.551321
v 4.441012 0.182357 -0.610478
v 4.526021 0.182357 -0.717075
v 4.352120 1.823572 -0.850000
v 4.342007 1.823572 -0.894308
v 4.313671 1.823572 -0.929841
v 4.272724 1.823572 -0.949560
v 4.227276 1.823572 -0.949560
v 4.186329 1.823572 -0.929841
v 4.157993 1.823572 -0.894308
v 4.147880 1.823572 -0.850000
v 4.157993 1.823572 -0.805692
v 4.186329 1.823572 -0.770159
v 4.227276 1.823572 -0.750440
v 4.272724 1.823572 -0.750440
v 4.313671 1.823572 -0.770159
v 4.342007 1.823572 -0.805692
v 4.250000 1.823572 -0.850000
f 30 31 45
f 30 45 44
f 31 32 46
f 31 46 45
f 32 33 47
f 32 47 46
f 33 34 48
f 33 48 47
f 34 35 49
f 34 49 48
f 35 36 50
f 35 50 49
f 36 37 51
f 36 51 50
f 37 38 52
f 37 52 51
f 38 39 53
f 38 53 52
f 39 40 54
f 39 54 53
f 40 41 55
f 40 55 54
f 41 42 56
f 41 56 55
f 42 43 57
f 42 57 56
f 43 30 44
f 43 44 57
f 44 45 58
f 45 46 58
f 46 47 58
f 47 48 58
f 48 49 58
f 49 50 58
f 50 51 58
f 51 52 58
f 52 53 58
f 53 54 58
f 54 55 58
f 55 56 58
f 56 57 58
f 57 44 58
v 4.578243 1.823572 -0.850000
v 4.545737 1.823572 -0.992419
v 4.454656 1.823572 -1.106631
v 4.323041 1.823572 -1.170013
v 4.176959 1.823572 -1.170013
v 4.045344 1.823572 -1.106631
v 3.954263 1.823572 -0.992419
v 3.921757 1.823572 -0.850000
v 3.954263 1.823572 -0.707581
v 4.045344 1.823572 -0.593369
v 4.176959 1.823572 -0.529987
v 4.323041 1.823572 -0.529987
v 4.454656 1.823572 -0.593369
v 4.545737 1.823572 -0.707581
v 4.468829 2.042401 -0.850000
v 4.447158 2.042401 -0.944946
v 4.386437 2.042401 -1.021087
v 4.298694 2.042401 -1.063342
v 4.201306 2.042401 -1.063342
v 4.113563 2.042401 -1.021087
v 4.052842 2.042401 -0.944946
v 4.031171 2.042401 -0.850000
v 4.052842 2.042401 -0.755054
v 4.113563 2.042401 -0.678913
v 4.201306 2.042401 -0.636658
v 4.298694 2.042401 -0.636658
v 4.386437 2.042401 -0.678913
v 4.447158 2.042401 -0.755054
v 4.250000 2.042401 -0.850000
f 59 60 74
f 59 74 73
f 60 61 75
f 60 75 74
f 61 62 76
f 61 76 75
f 62 63 77
f 62 77 76
f 63 64 78
f 63 78 77
f 64 65 79
f 64 79 78
f 65 66 80
f 65 80 79
f 66 67 81
f 66 81 80
f 67 68 82
f 67 82 81
f 68 69 83
f 68 83 82
f 69 70 84
f 69 84 83
f 70 71 85
f 70 85 84
f 71 72 86
f 71 86 85
f 72 59 73
f 72 73 86
f 73 74 87
f 74 75 87
f 75 76 87
f 76 77 87
f 77 78 87
f 78 79 87
f 79 80 87
f 80 81 87
f 81 82 87
f 82 83 87
f 83 84 87
f 84 85 87
f 85 86 87
f 86 73 87
v 4.527183 2.224758 -0.850000
v 4.527183 2.224758 -0.850000
v 4.527183 2.224758 -0.850000
v 4.527183 2.224758 -0.850000
v 4.527183 2.224758 -0.850000
v 4.527183 2.224758 -0.850000
v 4.590353 2.188287 -0.850000
v 4.558768 2.188287 -0.904707
v 4.495598 2.188287 -0.904707
v 4.464013 2.188287 -0.850000
v 4.495598 2.188287 -0.795293
v 4.558768 2.188287 -0.795293
v 4.590353 2.115344 -0.850000
v 4.558768 2.115344 -0.904707
v 4.495598 2.115344 -0.904707
v 4.464013 2.115344 -0.850000
v 4.495598 2.115344 -0.795293
v 4.558768 2.115344 -0.795293
v 4.527183 2.078873 -0.850000
v 4.527183 2.078873 -0.850000
v 4.527183 2.078873 -0.850000
v 4.527183 2.078873 -0.850000
v 4.527183 2.078873 -0.850000
v 4.527183 2.078873 -0.850000
f 88 95 89
f 88 94 95
f 89 96 90
f 89 95 96
f 90 97 91
f 90 96 97
f 91 98 92
f 91 97 98
f 92 99 93
f 92 98 99
f 93 94 88
f 93 99 94
f 94 101 95
f 94 100 101
f 95 102 96
f 95 101 102
f 96 103 97
f 96 102 103
f 97 104 98
f 97 103 104
f 98 105 99
f 98 104 105
f 99 100 94
f 99 105 100
f 100 107 101
f 100 106 107
f 101 108 102
f 101 107 108
f 102 109 103
f 102 108 109
f 103 110 104
f 103 109 110
f 104 111 105
f 104 110 111
f 105 106 100
f 105 111 106
v 4.422821 2.224758 -1.066710
v 4.422821 2.224758 -1.066710
v 4.422821 2.224758 -1.066710
v 4.422821 2.224758 -1.066710
v 4.422821 2.224758 -1.066710
v 4.422821 2.224758 -1.066710
v 4.485991 2.188287 -1.066710
v 4.454406 2.188287 -1.121418
v 4.391236 2.188287 -1.121418
v 4.359650 2.188287 -1.066710
v 4.391236 2.188287 -1.012003
v 4.454406 2.188287 -1.012003
v 4.485991 2.115344 -1.066710
v 4.454406 2.115344 -1.121418
v 4.391236 2.115344 -1.121418
v 4.359650 2.115344 -1.066710
v 4.391236 2.115344 -1.012003
v 4.454406 2.115344 -1.012003
v 4.422821 2.078873 -1.066710
v 4.422821 2.078873 -1.066710
v 4.422821 2.078873 -1.066710
v 4.422821 2.078873 -1.066710
v 4.422821 2.078873 -1.066710
v 4.422821 2.078873 -1.066710
f 112 119 113
f 112 118 119
f 113 120 114
f 113 119 120
f 114 121 115
f 114 120 121
f 115 122 116
f 115 121 122
f 116 123 117
f 116 122 123
f 117 118 112
f 117 123 118
f 118 125 119
f 118 124 125
f 119 126 120
f 119 125 126
f 120 127 121
f 120 126 127
f 121 128 122
f 121 127 128
f 122 129 123
f 122 128 129
f 123 124 118
f 123 129 124
f 124 131 125
f 124 130 131
f 125 132 126
f 125 131 132
f 126 133 127
f 126 132 133
f 127 134 128
f 127 133 134
f 128 135 129
f 128 134 135
f 129 130 124
f 129 135 130
v 4.188321 2.224758 -1.120233
v 4.188321 2.224758 -1.120233
v 4.188321 2.224758 -1.120233
v 4.188321 2.224758 -1.120233
v 4.188321 2.224758 -1.120233
v 4.188321 2.224758 -1.120233
v 4.251491 2.188287 -1.120233
v 4.219906 2.188287 -1.174941
v 4.156736 2.188287 -1.174941
v 4.125151 2.188287 -1.120233
v 4.156736 2.188287 -1.065526
v 4.219906 2.188287 -1.065526
v 4.251491 2.115344 -1.120233
v 4.219906 2.115344 -1.174941
v 4.156736 2.115344 -1.174941
v 4.125151 2.115344 -1.120233
v 4.156736 2.115344 -1.065526
v 4.219906 2.115344 -1.065526
v 4.188321 2.078873 -1.120233
v 4.188321 2.078873 -1.120233
v 4.188321 2.078873 -1.120233
v 4.188321 2.078873 -1.120233
v 4.188321 2.078873 -1.120233
v 4.188321 2.078873 -1.120233
f 136 143 137
f 136 142 143
f 137 144 138
f 137 143 144
f 138 145 139
f 138 144 145
f 139 146 140
f 139 145 146
f 140 147 141
f 140 146 147
f 141 142 136
f 141 147 142
f 142 149 143
f 142 148 149
f 143 150 144
f 143 149 150
f 144 151 145
f 144 150 151
f 145 152 146
f 145 151 152
f 146 153 147
f 146 152 153
f 147 148 142
f 147 153 148
f 148 155 149
f 148 154 155
f 149 156 150
f 149 155 156
f 150 157 151
f 150 156 157
f 151 158 152
f 151 157 158
f 152 159 153
f 152 158 159
f 153 154 148
f 153 159 154
v 4.000267 2.224758 -0.970265
v 4.000267 2.224758 -0.970265
v 4.000267 2.224758 -0.970265
v 4.000267 2.224758 -0.970265
v 4.000267 2.224758 -0.970265
v 4.000267 2.224758 -0.970265
v 4.063437 2.188287 -0.970265
v 4.031852 2.188287 -1.024972
v 3.968682 2.188287 -1.024972
v 3.937096 2.188287 -0.970265
v 3.968682 2.188287 -0.915558
v 4.031852 2.188287 -0.915558
v 4.063437 2.115344 -0.970265
v 4.031852 2.115344 -1.024972
v 3.968682 2.115344 -1.024972
v 3.937096 2.115344 -0.970265
v 3.968682 2.115344 -0.915558
v 4.031852 2.115344 -0.915558
v 4.000267 2.078873 -0.970265
v 4.000267 2.078873 -0.970265
v 4.000267 2.078873 -0.970265
v 4.000267 2.078873 -0.970265
v 4.000267 2.078873 -0.970265
v 4.000267 2.078873 -0.970265
f 160 167 161
f 160 166 167
f 161 168 162
f 161 167 168
f 162 169 163
f 162 168 169
f 163 170 164
f 163 169 170
f 164 171 165
f 164 170 171
f 165 166 160
f 165 171 166
f 166 173 167
f 166 172 173
f 167 174 168
f 167 173 174
f 168 175 169
f 168 174 175
f 169 176 170
f 169 175 176
f 170 177 171
f 170 176 177
f 171 172 166
f 171 177 172
f 172 179 173
f 172 178 179
f 173 180 174
f 173 179 180
f 174 181 175
f 174 180 181
f 175 182 176
f 175 181 182
f 176 183 177
f 176 182 183
f 177 178 172
f 177 183 178
v 4.000267 2.224758 -0.729735
v 4.000267 2.224758 -0.729735
v 4.000267 2.224758 -0.729735
v 4.000267 2.224758 -0.729735
v 4.000267 2.224758 -0.729735
v 4.000267 2.224758 -0.729735
v 4.063437 2.188287 -0.729735
v 4.031852 2.188287 -0.784442
v 3.968682 2.188287 -0.784442
v 3.937096 2.188287 -0.729735
v 3.968682 2.188287 -0.675028
v 4.031852 2.188287 -0.675028
v 4.063437 2.115344 -0.729735
v 4.031852 2.115344 -0.784442
v 3.968682 2.115344 -0.784442
v 3.937096 2.115344 -0.729735
v 3.968682 2.115344 -0.675028
v 4.031852 2.115344 -0.675028
v 4.000267 2.078873 -0.729735
v 4.000267 2.078873 -0.729735
v 4.000267 2.078873 -0.729735
v 4.000267 2.078873 -0.729735
v 4.000267 2.078873 -0.729735
v 4.000267 2.078873 -0.729735
f 184 191 185
f 184 190 191
f 185 192 186
f 185 191 192
f 186 193 187
f 186 192 193
f 187 194 188
f 187 193 194
f 188 195 189
f 188 194 195
f 189 190 184
f 189 195 190
f 190 197 191
f 190 196 197
f 191 198 192
f 191 197 198
f 192 199 193
f 192 198 199
f 193 200 194
f 193 199 200
f 194 201 195
f 194 200 201
f 195 196 190
f 195 201 196
f 196 203 197
f 196 202 203
f 197 204 198
f 197 203 204
f 198 205 199
f 198 204 205
f 199 206 200
f 199 205 206
f 200 207 201
f 200 206 207
f 201 202 196
f 201 207 202
v 4.188321 2.224758 -0.579767
v 4.188321 2.224758 -0.579767
v 4.188321 2.224758 -0.579767
v 4.188321 2.224758 -0.579767
v 4.188321 2.224758 -0.579767
v 4.188321 2.224758 -0.579767
v 4.251491 2.188287 -0.579767
v 4.219906 2.188287 -0.634474
v 4.156736 2.188287 -0.634474
v 4.125151 2.188287 -0.579767
v 4.156736 2.188287 -0.525059
v 4.219906 2.188287 -0.525059
v 4.251491 2.115344 -0.579767
v 4.219906 2.115344 -0.634474
v 4.156736 2.115344 -0.634474
v 4.125151 2.115344 -0.579767
v 4.156736 2.115344 -0.525059
v 4.219906 2.115344 -0.525059
v 4.188321 2.078873 -0.579767
v 4.188321 2.078873 -0.579767
v 4.188321 2.078873 -0.579767
v 4.188321 2.078873 -0.579767
v 4.188321 2.078873 -0.579767
v 4.188321 2.078873 -0.579767
f 208 215 209
f 208 214 215
f 209 216 210
f 209 215 216
f 210 217 211
f 210 216 217
f 211 218 212
f 211 217 218
f 212 219 213
f 212 218 219
f 213 214 208
f 213 219 214
f 214 221 215
f 214 220 221
f 215 222 216
f 215 221 222
f 216 223 217
f 216 222 223
f 217 224 218
f 217 223 224
f 218 225 219
f 218 224 225
f 219 220 214
f 219 225 220
f 220 227 221
f 220 226 227
f 221 228 222
f 221 227 228
f 222 229 223
f 222 228 229
f 223 230 224
f 223 229 230
f 224 231 225
f 224 230 231
f 225 226 220
f 225 231 226
v 4.422821 2.224758 -0.633290
v 4.422821 2.224758 -0.633290
v 4.422821 2.224758 -0.633290
v 4.422821 2.224758 -0.633290
v 4.422821 2.224758 -0.633290
v 4.422821 2.224758 -0.633290
v 4.485991 2.188287 -0.633290
v 4.454406 2.188287 -0.687997
v 4.391236 2.188287 -0.687997
v 4.359650 2.188287 -0.633290
v 4.391236 2.188287 -0.578582
v 4.454406 2.188287 -0.578582
v 4.485991 2.115344 -0.633290
v 4.454406 2.115344 -0.687997
v 4.391236 2.115344 -0.687997
v 4.359650 2.115344 -0.633290
v 4.391236 2.115344 -0.578582
v 4.454406 2.115344 -0.578582
v 4.422821 2.078873 -0.633290
v 4.422821 2.078873 -0.633290
v 4.422821 2.078873 -0.633290
v 4.422821 2.078873 -0.633290
v 4.422821 2.078873 -0.633290
v 4.422821 2.078873 -0.633290
f 232 239 233
f 232 238 239
f 233 240 234
f 233 239 240
f 234 241 235
f 234 240 241
f 235 242 236
f 235 241 242
f 236 243 237
f 236 242 243
f 237 238 232
f 237 243 238
f 238 245 239
f 238 244 245
f 239 246 240
f 239 245 246
f 240 247 241
f 240 246 247
f 241 248 242
f 241 247 248
f 242 249 243
f 242 248 249
f 243 244 238
f 243 249 244
f 244 251 245
f 244 250 251
f 245 252 246
f 245 251 252
f 246 253 247
f 246 252 253
f 247 254 248
f 247 253 254
f 248 255 249
f 248 254 255
f 249 250 244
f 249 255 250
v 4.250000 2.363350 -0.850000
v 4.250000 2.363350 -0.850000
v 4.250000 2.363350 -0.850000
v 4.250000 2.363350 -0.850000
v 4.250000 2.363350 -0.850000
v 4.250000 2.363350 -0.850000
v 4.250000 2.363350 -0.850000
v 4.250000 2.363350 -0.850000
v 4.250000 2.363350 -0.850000
v 4.250000 2.363350 -0.850000
v 4.250000 2.363350 -0.850000
v 4.250000 2.363350 -0.850000
v 4.301060 2.349668 -0.850000
v 4.294219 2.349668 -0.875530
v 4.275530 2.349668 -0.894219
v 4.250000 2.349668 -0.901060
v 4.224470 2.349668 -0.894219
v 4.205781 2.349668 -0.875530
v 4.198940 2.349668 -0.850000
v 4.205781 2.349668 -0.824470
v 4.224470 2.349668 -0.805781
v 4.250000 2.349668 -0.798940
v 4.275530 2.349668 -0.805781
v 4.294219 2.349668 -0.824470
v 4.338439 2.312290 -0.850000
v 4.326590 2.312290 -0.894219
v 4.294219 2.312290 -0.926590
v 4.250000 2.312290 -0.938439
v 4.205781 2.312290 -0.926590
v 4.173410 2.312290 -0.894219
v 4.161561 2.312290 -0.850000
v 4.173410 2.312290 -0.805781
v 4.205781 2.312290 -0.773410
v 4.250000 2.312290 -0.761561
v 4.294219 2.312290 -0.773410
v 4.326590 2.312290 -0.805781
v 4.352120 2.261230 -0.850000
v 4.338439 2.261230 -0.901060
v 4.301060 2.261230 -0.938439
v 4.250000 2.261230 -0.952120
v 4.198940 2.261230 -0.938439
v 4.161561 2.261230 -0.901060
v 4.147880 2.261230 -0.850000
v 4.161561 2.261230 -0.798940
v 4.198940 2.261230 -0.761561
v 4.250000 2.261230 -0.747880
v 4.301060 2.261230 -0.761561
v 4.338439 2.261230 -0.798940
v 4.338439 2.210170 -0.850000
v 4.326590 2.210170 -0.894219
v 4.294219 2.210170 -0.926590
v 4.250000 2.210170 -0.938439
v 4.205781 2.210170 -0.926590
v 4.173410 2.210170 -0.894219
v 4.161561 2.210170 -0.850000
v 4.173410 2.210170 -0.805781
v 4.205781 2.210170 -0.773410
v 4.250000 2.210170 -0.761561
v 4.294219 2.210170 -0.773410
v 4.326590 2.210170 -0.805781
v 4.301060 2.172791 -0.850000
v 4.294219 2.172791 -0.875530
v 4.275530 2.172791 -0.894219
v 4.250000 2.172791 -0.901060
v 4.224470 2.172791 -0.894219
v 4.205781 2.172791 -0.875530
v 4.198940 2.172791 -0.850000
v 4.205781 2.172791 -0.824470
v 4.224470 2.172791 -0.805781
v 4.250000 2.172791 -0.798940
v 4.275530 2.172791 -0.805781
v 4.294219 2.172791 -0.824470
v 4.250000 2.159110 -0.850000
v 4.250000 2.159110 -0.850000
v 4.250000 2.159110 -0.850000
v 4.250000 2.159110 -0.850000
v 4.250000 2.159110 -0.850000
v 4.250000 2.159110 -0.850000
v 4.250000 2.159110 -0.850000
v 4.250000 2.159110 -0.850000
v 4.250000 2.159110 -0.850000
v 4.250000 2.159110 -0.850000
v 4.250000 2.159110 -0.850000
v 4.250000 2.159110 -0.850000
f 256 269 257
f 256 268 269
f 257 270 258
f 257 269 270
f 258 271 259
f 258 270 271
f 259 272 260
f 259 271 272
f 260 273 261
f 260 272 273
f 261 274 262
f 261 273 274
f 262 275 263
f 262 274 275
f 263 276 264
f 263 275 276
f 264 277 265
f 264 276 277
f 265 278 266
f 265 277 278
f 266 279 267
f 266 278 279
f 267 268 256
f 267 279 268
f 268 281 269
f 268 280 281
f 269 282 270
f 269 281 282
f 270 283 271
f 270 282 283
f 271 284 272
f 271 283 284
f 272 285 273
f 272 284 285
f 273 286 274
f 273 285 286
f 274 287 275
f 274 286 287
f 275 288 276
f 275 287 288
f 276 289 277
f 276 288 289
f 277 290 278
f 277 289 290
f 278 291 279
f 278 290 291
f 279 280 268
f 279 291 280
f 280 293 281
f 280 292 293
f 281 294 282
f 281 293 294
f 282 295 283
f 282 294 295
f 283 296 284
f 283 295 296
f 284 297 285
f 284 296 297
f 285 298 286
f 285 297 298
f 286 299 287
f 286 298 299
f 287 300 288
f 287 299 300
f 288 301 289
f 288 300 301
f 289 302 290
f 289 301 302
f 290 303 291
f 290 302 303
f 291 292 280
f 291 303 292
f 292 305 293
f 292 304 305
f 293 306 294
f 293 305 306
f 294 307 295
f 294 306 307
f 295 308 296
f 295 307 308
f 296 309 297
f 296 308 309
f 297 310 298
f 297 309 310
f 298 311 299
f 298 310 311
f 299 312 300
f 299 311 312
f 300 313 301
f 300 312 313
f 301 314 302
f 301 313 314
f 302 315 303
f 302 314 315
f 303 304 292
f 303 315 304
f 304 317 305
f 304 316 317
f 305 318 306
f 305 317 318
f 306 319 307
f 306 318 319
f 307 320 308
f 307 319 320
f 308 321 309
f 308 320 321
f 309 322 310
f 309 321 322
f 310 323 311
f 310 322 323
f 311 324 312
f 311 323 324
f 312 325 313
f 312 324 325
f 313 326 314
f 313 325 326
f 314 327 315
f 314 326 327
f 315 316 304
f 315 327 316
f 316 329 317
f 316 328 329
f 317 330 318
f 317 329 330
f 318 331 319
f 318 330 331
f 319 332 320
f 319 331 332
f 320 333 321
f 320 332 333
f 321 334 322
f 321 333 334
f 322 335 323
f 322 334 335
f 323 336 324
f 323 335 336
f 324 337 325
f 324 336 337
f 325 338 326
f 325 337 338
f 326 339 327
f 326 338 339
f 327 328 316
f 327 339 328
v 4.698827 0.000000 -4.250000
v 4.654379 0.000000 -4.444739
v 4.529839 0.000000 -4.600907
v 4.349873 0.000000 -4.687574
v 4.150127 0.000000 -4.687574
v 3.970161 0.000000 -4.600907
v 3.845621 0.000000 -4.444739
v 3.801173 0.000000 -4.250000
v 3.845621 0.000000 -4.055261
v 3.970161 0.000000 -3.899093
v 4.150127 0.000000 -3.812426
v 4.349873 0.000000 -3.812426
v 4.529839 0.000000 -3.899093
v 4.654379 0.000000 -4.055261
v 4.661425 0.187011 -4.250000
v 4.620681 0.187011 -4.428511
v 4.506519 0.187011 -4.571665
v 4.341551 0.187011 -4.651110
v 4.158449 0.187011 -4.651110
v 3.993481 0.187011 -4.571665
v 3.879319 0.187011 -4.428511
v 3.838575 0.187011 -4.250000
v 3.879319 0.187011 -4.071489
v 3.993481 0.187011 -3.928335
v 4.158449 0.187011 -3.848890
v 4.341551 0.187011 -3.848890
v 4.506519 0.187011 -3.928335
v 4.620681 0.187011 -4.071489
v 4.250000 0.187011 -4.250000
f 340 341 355
f 340 355 354
f 341 342 356
f 341 356 355
f 342 343 357
f 342 357 356
f 343 344 358
f 343 358 357
f 344 345 359
f 344 359 358
f 345 346 360
f 345 360 359
f 346 347 361
f 346 361 360
f 347 348 362
f 347 362 361
f 348 349 363
f 348 363 362
f 349 350 364
f 349 364 363
f 350 351 365
f 350 365 364
f 351 352 366
f 351 366 365
f 352 353 367
f 352 367 366
f 353 340 354
f 353 354 367
f 354 355 368
f 355 356 368
f 356 357 368
f 357 358 368
f 358 359 368
f 359 360 368
f 360 361 368
f 361 362 368
f 362 363 368
f 363 364 368
f 364 365 368
f 365 366 368
f 366 367 368
f 367 354 368
v 4.579140 0.187011 -4.250000
v 4.546545 0.187011 -4.392808
v 4.455215 0.187011 -4.507332
v 4.323241 0.187011 -4.570888
v 4.176759 0.187011 -4.570888
v 4.044785 0.187011 -4.507332
v 3.953455 0.187011 -4.392808
v 3.920860 0.187011 -4.250000
v 3.953455 0.187011 -4.107192
v 4.044785 0.187011 -3.992668
v 4.176759 0.187011 -3.929112
v 4.323241 0.187011 -3.929112
v 4.455215 0.187011 -3.992668
v 4.546545 0.187011 -4.107192
v 4.384648 1.870113 -4.250000
v 4.371314 1.870113 -4.308422
v 4.333952 1.870113 -4.355272
v 4.279962 1.870113 -4.381272
v 4.220038 1.870113 -4.381272
v 4.166048 1.870113 -4.355272
v 4.128686 1.870113 -4.308422
v 4.115352 1.870113 -4.250000
v 4.128686 1.870113 -4.191578
v 4.166048 1.870113 -4.144728
v 4.220038 1.870113 -4.118728
v 4.279962 1.870113 -4.118728
v 4.333952 1.870113 -4.144728
v 4.371314 1.870113 -4.191578
v 4.250000 1.870113 -4.250000
f 369 370 384
f 369 384 383
f 370 371 385
f 370 385 384
f 371 372 386
f 371 386 385
f 372 373 387
f 372 387 386
f 373 374 388
f 373 388 387
f 374 375 389
f 374 389 388
f 375 376 390
f 375 390 389
f 376 377 391
f 376 391 390
f 377 378 392
f 377 392 391
f 378 379 393
f 378 393 392
f 379 380 394
f 379 394 393
f 380 381 395
f 380 395 394
f 381 382 396
f 381 396 395
f 382 369 383
f 382 383 396
f 383 384 397
f 384 385 397
f 385 386 397
f 386 387 397
f 387 388 397
f 388 389 397
f 389 390 397
f 390 391 397
f 391 392 397
f 392 393 397
f 393 394 397
f 394 395 397
f 395 396 397
f 396 383 397
v 4.534257 1.870113 -4.250000
v 4.506107 1.870113 -4.373335
v 4.427231 1.870113 -4.472241
v 4.313253 1.870113 -4.527130
v 4.186747 1.870113 -4.527130
v 4.072769 1.870113 -4.472241
v 3.993893 1.870113 -4.373335
v 3.965743 1.870113 -4.250000
v 3.993893 1.870113 -4.126665
v 4.072769 1.870113 -4.027759
v 4.186747 1.870113 -3.972870
v 4.313253 1.870113 -3.972870
v 4.427231 1.870113 -4.027759
v 4.506107 1.870113 -4.126665
v 4.474414 2.094527 -4.250000
v 4.452190 2.094527 -4.347369
v 4.389920 2.094527 -4.425454
v 4.299937 2.094527 -4.468787
v 4.200063 2.094527 -4.468787
v 4.110080 2.094527 -4.425454
v 4.047810 2.094527 -4.347369
v 4.025586 2.094527 -4.250000
v 4.047810 2.094527 -4.152631
v 4.110080 2.094527 -4.074546
v 4.200063 2.094527 -4.031213
v 4.299937 2.094527 -4.031213
v 4.389920 2.094527 -4.074546
v 4.452190 2.094527 -4.152631
v 4.250000 2.094527 -4.250000
f 398 399 413
f 398 413 412
f 399 400 414
f 399 414 413
f 400 401 415
f 400 415 414
f 401 402 416
f 401 416 415
f 402 403 417
f 402 417 416
f 403 404 418
f 403 418 417
f 404 405 419
f 404 419 418
f 405 406 420
f 405 420 419
f 406 407 421
f 406 421 420
f 407 408 422
f 407 422 421
f 408 409 423
f 408 423 422
f 409 410 424
f 409 424 423
f 410 411 425
f 410 425 424
f 411 398 412
f 411 412 425
f 412 413 426
f 413 414 426
f 414 415 426
f 415 416 426
f 416 417 426
f 417 418 426
f 418 419 426
f 419 420 426
f 420 421 426
f 421 422 426
f 422 423 426
f 423 424 426
f 424 425 426
f 425 412 426
v 4.197637 2.094527 -4.197637
v 4.302363 2.094527 -4.197637
v 4.302363 2.094527 -4.302363
v 4.197637 2.094527 -4.302363
v 4.197637 2.618158 -4.197637
v 4.302363 2.618158 -4.197637
v 4.302363 2.618158 -4.302363
v 4.197637 2.618158 -4.302363
f 427 429 428
f 427 430 429
f 431 432 433
f 431 433 434
f 427 428 432
f 427 432 431
f 428 429 433
f 428 433 432
f 429 430 434
f 429 434 433
f 430 427 431
f 430 431 434
v 4.062989 2.468549 -4.197637
v 4.437011 2.468549 -4.197637
v 4.437011 2.468549 -4.302363
v 4.062989 2.468549 -4.302363
v 4.062989 2.573276 -4.197637
v 4.437011 2.573276 -4.197637
v 4.437011 2.573276 -4.302363
v 4.062989 2.573276 -4.302363
f 435 437 436
f 435 438 437
f 439 440 441
f 439 441 442
f 435 436 440
f 435 440 439
f 436 437 441
f 436 441 440
f 437 438 442
f 437 442 441
f 438 435 439
f 438 439 442
v 3.013891 0.000000 2.550000
v 2.967952 0.000000 2.348725
v 2.839231 0.000000 2.187315
v 2.653226 0.000000 2.097739
v 2.446774 0.000000 2.097739
v 2.260769 0.000000 2.187315
v 2.132048 0.000000 2.348725
v 2.086109 0.000000 2.550000
v 2.132048 0.000000 2.751275
v 2.260769 0.000000 2.912685
v 2.446774 0.000000 3.002261
v 2.653226 0.000000 3.002261
v 2.839231 0.000000 2.912685
v 2.967952 0.000000 2.751275
v 2.975234 0.193288 2.550000
v 2.933122 0.193288 2.365498
v 2.815129 0.193288 2.217539
v 2.644623 0.193288 2.135428
v 2.455377 0.193288 2.135428
v 2.284871 0.193288 2.217539
v 2.166878 0.193288 2.365498
v 2.124766 0.193288 2.550000
v 2.166878 0.193288 2.734502
v 2.284871 0.193288 2.882461
v 2.455377 0.193288 2.964572
v 2.644623 0.193288 2.964572
v 2.815129 0.193288 2.882461
v 2.933122 0.193288 2.734502
v 2.550000 0.193288 2.550000
f 443 444 458
f 443 458 457
f 444 445 459
f 444 459 458
f 445 446 460
f 445 460 459
f 446 447 461
f 446 461 460
f 447 448 462
f 447 462 461
f 448 449 463
f 448 463 462
f 449 450 464
f 449 464 463
f 450 451 465
f 450 465 464
f 451 452 466
f 451 466 465
f 452 453 467
f 452 467 466
f 453 454 468
f 453 468 467
f 454 455 469
f 454 469 468
f 455 456 470
f 455 470 469
f 456 443 457
f 456 457 470
f 457 458 471
f 458 459 471
f 459 460 471
f 460 461 471
f 461 462 471
f 462 463 471
f 463 464 471
f 464 465 471
f 465 466 471
f 466 467 471
f 467 468 471
f 468 469 471
f 469 470 471
f 470 457 471
v 2.843798 0.193288 2.550000
v 2.814703 0.193288 2.422526
v 2.733180 0.193288 2.320300
v 2.615376 0.193288 2.263568
v 2.484624 0.193288 2.263568
v 2.366820 0.193288 2.320300
v 2.285297 0.193288 2.422526
v 2.256202 0.193288 2.550000
v 2.285297 0.193288 2.677474
v 2.366820 0.193288 2.779700
v 2.484624 0.193288 2.836432
v 2.615376 0.193288 2.836432
v 2.733180 0.193288 2.779700
v 2.814703 0.193288 2.677474
v 2.658241 1.159728 2.550000
v 2.647522 1.159728 2.503036
v 2.617487 1.159728 2.465374
v 2.574086 1.159728 2.444473
v 2.525914 1.159728 2.444473
v 2.482513 1.159728 2.465374
v 2.452478 1.159728 2.503036
v 2.441759 1.159728 2.550000
v 2.452478 1.159728 2.596964
v 2.482513 1.159728 2.634626
v 2.525914 1.159728 2.655527
v 2.574086 1.159728 2.655527
v 2.617487 1.159728 2.634626
v 2.647522 1.159728 2.596964
f 472 473 487
f 472 487 486
f 473 474 488
f 473 488 487
f 474 475 489
f 474 489 488
f 475 476 490
f 475 490 489
f 476 477 491
f 476 491 490
f 477 478 492
f 477 492 491
f 478 479 493
f 478 493 492
f 479 480 494
f 479 494 493
f 480 481 495
f 480 495 494
f 481 482 496
f 481 496 495
f 482 483 497
f 482 497 496
f 483 484 498
f 483 498 497
f 484 485 499
f 484 499 498
f 485 472 486
f 485 486 499
v 2.550000 1.600425 2.550000
v 2.550000 1.600425 2.550000
v 2.550000 1.600425 2.550000
v 2.550000 1.600425 2.550000
v 2.550000 1.600425 2.550000
v 2.550000 1.600425 2.550000
v 2.550000 1.600425 2.550000
v 2.550000 1.600425 2.550000
v 2.550000 1.600425 2.550000
v 2.550000 1.600425 2.550000
v 2.550000 1.600425 2.550000
v 2.550000 1.600425 2.550000
v 2.673704 1.567278 2.550000
v 2.657131 1.567278 2.488148
v 2.611852 1.567278 2.442869
v 2.550000 1.567278 2.426296
v 2.488148 1.567278 2.442869
v 2.442869 1.567278 2.488148
v 2.426296 1.567278 2.550000
v 2.442869 1.567278 2.611852
v 2.488148 1.567278 2.657131
v 2.550000 1.567278 2.673704
v 2.611852 1.567278 2.657131
v 2.657131 1.567278 2.611852
v 2.764262 1.476720 2.550000
v 2.735556 1.476720 2.442869
v 2.657131 1.476720 2.364444
v 2.550000 1.476720 2.335738
v 2.442869 1.476720 2.364444
v 2.364444 1.476720 2.442869
v 2.335738 1.476720 2.550000
v 2.364444 1.476720 2.657131
v 2.442869 1.476720 2.735556
v 2.550000 1.476720 2.764262
v 2.657131 1.476720 2.735556
v 2.735556 1.476720 2.657131
v 2.797409 1.353016 2.550000
v 2.764262 1.353016 2.426296
v 2.673704 1.353016 2.335738
v 2.550000 1.353016 2.302591
v 2.426296 1.353016 2.335738
v 2.335738 1.353016 2.426296
v 2.302591 1.353016 2.550000
v 2.335738 1.353016 2.673704
v 2.426296 1.353016 2.764262
v 2.550000 1.353016 2.797409
v 2.673704 1.353016 2.764262
v 2.764262 1.353016 2.673704
v 2.764262 1.229312 2.550000
v 2.735556 1.229312 2.442869
v 2.657131 1.229312 2.364444
v 2.550000 1.229312 2.335738
v 2.442869 1.229312 2.364444
v 2.364444 1.229312 2.442869
v 2.335738 1.229312 2.550000
v 2.364444 1.229312 2.657131
v 2.442869 1.229312 2.735556
v 2.550000 1.229312 2.764262
v 2.657131 1.229312 2.735556
v 2.735556 1.229312 2.657131
v 2.673704 1.138754 2.550000
v 2.657131 1.138754 2.488148
v 2.611852 1.138754 2.442869
v 2.550000 1.138754 2.426296
v 2.488148 1.138754 2.442869
v 2.442869 1.138754 2.488148
v 2.426296 1.138754 2.550000
v 2.442869 1.138754 2.611852
v 2.488148 1.138754 2.657131
v 2.550000 1.138754 2.673704
v 2.611852 1.138754 2.657131
v 2.657131 1.138754 2.611852
v 2.550000 1.105607 2.550000
v 2.550000 1.105607 2.550000
v 2.550000 1.105607 2.550000
v 2.550000 1.105607 2.550000
v 2.550000 1.105607 2.550000
v 2.550000 1.105607 2.550000
v 2.550000 1.105607 2.550000
v 2.550000 1.105607 2.550000
v 2.550000 1.105607 2.550000
v 2.550000 1.105607 2.550000
v 2.550000 1.105607 2.550000
v 2.550000 1.105607 2.550000
f 500 513 501
f 500 512 513
f 501 514 502
f 501 513 514
f 502 515 503
f 502 514 515
f 503 516 504
f 503 515 516
f 504 517 505
f 504 516 517
f 505 518 506
f 505 517 518
f 506 519 507
f 506 518 519
f 507 520 508
f 507 519 520
f 508 521 509
f 508 520 521
f 509 522 510
f 509 521 522
f 510 523 511
f 510 522 523
f 511 512 500
f 511 523 512
f 512 525 513
f 512 524 525
f 513 526 514
f 513 525 526
f 514 527 515
f 514 526 527
f 515 528 516
f 515 527 528
f 516 529 517
f 516 528 529
f 517 530 518
f 517 529 530
f 518 531 519
f 518 530 531
f 519 532 520
f 519 531 532
f 520 533 521
f 520 532 533
f 521 534 522
f 521 533 534
f 522 535 523
f 522 534 535
f 523 524 512
f 523 535 524
f 524 537 525
f 524 536 537
f 525 538 526
f 525 537 538
f 526 539 527
f 526 538 539
f 527 540 528
f 527 539 540
f 528 541 529
f 528 540 541
f 529 542 530
f 529 541 542
f 530 543 531
f 530 542 543
f 531 544 532
f 531 543 544
f 532 545 533
f 532 544 545
f 533 546 534
f 533 545 546
f 534 547 535
f 534 546 547
f 535 536 524
f 535 547 536
f 536 549 537
f 536 548 549
f 537 550 538
f 537 549 550
f 538 551 539
f 538 550 551
f 539 552 540
f 539 551 552
f 540 553 541
f 540 552 553
f 541 554 542
f 541 553 554
f 542 555 543
f 542 554 555
f 543 556 544
f 543 555 556
f 544 557 545
f 544 556 557
f 545 558 546
f 545 557 558
f 546 559 547
f 546 558 559
f 547 548 536
f 547 559 548
f 548 561 549
f 548 560 561
f 549 562 550
f 549 561 562
f 550 563 551
f 550 562 563
f 551 564 552
f 551 563 564
f 552 565 553
f 552 564 565
f 553 566 554
f 553 565 566
f 554 567 555
f 554 566 567
f 555 568 556
f 555 567 568
f 556 569 557
f 556 568 569
f 557 570 558
f 557 569 570
f 558 571 559
f 558 570 571
f 559 560 548
f 559 571 560
f 560 573 561
f 560 572 573
f 561 574 562
f 561 573 574
f 562 575 563
f 562 574 575
f 563 576 564
f 563 575 576
f 564 577 565
f 564 576 577
f 565 578 566
f 565 577 578
f 566 579 567
f 566 578 579
f 567 580 568
f 567 579 580
f 568 581 569
f 568 580 581
f 569 582 570
f 569 581 582
f 570 583 571
f 570 582 583
f 571 572 560
f 571 583 572
