o mesh
v -2.540000 1.750000 3.073588
v -2.520000 1.770000 3.073588
v -2.500000 1.750000 3.073588
v -2.520000 1.730000 3.073588
v -2.540000 1.750000 1.844153
v -2.520000 1.770000 1.844153
v -2.500000 1.750000 1.844153
v -2.520000 1.730000 1.844153
f 1 2 6
f 1 6 5
f 2 3 7
f 2 7 6
f 3 4 8
f 3 8 7
f 4 1 5
f 4 5 8
v -2.540000 1.750000 1.844153
v -2.520000 1.770000 1.844153
v -2.500000 1.750000 1.844153
v -2.520000 1.730000 1.844153
v -2.540000 1.750000 0.614718
v -2.520000 1.770000 0.614718
v -2.500000 1.750000 0.614718
v -2.520000 1.730000 0.614718
f 9 10 14
f 9 14 13
f 10 11 15
f 10 15 14
f 11 12 16
f 11 16 15
f 12 9 13
f 12 13 16
v -2.540000 1.750000 0.614718
v -2.520000 1.770000 0.614718
v -2.500000 1.750000 0.614718
v -2.520000 1.730000 0.614718
v -2.540000 1.750000 -0.614718
v -2.520000 1.770000 -0.614718
v -2.500000 1.750000 -0.614718
v -2.520000 1.730000 -0.614718
f 17 18 22
f 17 22 21
f 18 19 23
f 18 23 22
f 19 20 24
f 19 24 23
f 20 17 21
f 20 21 24
v -2.540000 1.750000 -0.614718
v -2.520000 1.770000 -0.614718
v -2.500000 1.750000 -0.614718
v -2.520000 1.730000 -0.614718
v -2.540000 1.750000 -1.844153
v -2.520000 1.770000 -1.844153
v -2.500000 1.750000 -1.844153
v -2.520000 1.730000 -1.844153
f 25 26 30
f 25 30 29
f 26 27 31
f 26 31 30
f 27 28 32
f 27 32 31
f 28 25 29
f 28 29 32
v -2.540000 1.750000 -1.844153
v -2.520000 1.770000 -1.844153
v -2.500000 1.750000 -1.844153
v -2.520000 1.730000 -1.844153
v -2.540000 1.750000 -3.073588
v -2.520000 1.770000 -3.073588
v -2.500000 1.750000 -3.073588
v -2.520000 1.730000 -3.073588
f 33 34 38
f 33 38 37
f 34 35 39
f 34 39 38
f 35 36 40
f 35 40 39
f 36 33 37
f 36 37 40
v -2.520000 0.000000 3.133588
v -2.460000 0.000000 3.073588
v -2.520000 0.000000 3.013588
v -2.580000 0.000000 3.073588
v -2.520000 2.600000 3.133588
v -2.460000 2.600000 3.073588
v -2.520000 2.600000 3.013588
v -2.580000 2.600000 3.073588
f 41 42 46
f 41 46 45
f 42 43 47
f 42 47 46
f 43 44 48
f 43 48 47
f 44 41 45
f 44 45 48
v -2.520000 0.000000 1.884153
v -2.480000 0.000000 1.844153
v -2.520000 0.000000 1.804153
v -2.560000 0.000000 1.844153
v -2.520000 2.600000 1.884153
v -2.480000 2.600000 1.844153
v -2.520000 2.600000 1.804153
v -2.560000 2.600000 1.844153
f 49 50 54
f 49 54 53
f 50 51 55
f 50 55 54
f 51 52 56
f 51 56 55
f 52 49 53
f 52 53 56
v -2.520000 0.000000 0.654718
v -2.480000 0.000000 0.614718
v -2.520000 0.000000 0.574718
v -2.560000 0.000000 0.614718
v -2.520000 2.600000 0.654718
v -2.480000 2.600000 0.614718
v -2.520000 2.600000 0.574718
v -2.560000 2.600000 0.614718
f 57 58 62
f 57 62 61
f 58 59 63
f 58 63 62
f 59 60 64
f 59 64 63
f 60 57 61
f 60 61 64
v -2.520000 0.000000 -0.574718
v -2.480000 0.000000 -0.614718
v -2.520000 0.000000 -0.654718
v -2.560000 0.000000 -0.614718
v -2.520000 2.600000 -0.574718
v -2.480000 2.600000 -0.614718
v -2.520000 2.600000 -0.654718
v -2.560000 2.600000 -0.614718
f 65 66 70
f 65 70 69
f 66 67 71
f 66 71 70
f 67 68 72
f 67 72 71
f 68 65 69
f 68 69 72
v -2.520000 0.000000 -1.804153
v -2.480000 0.000000 -1.844153
v -2.520000 0.000000 -1.884153
v -2.560000 0.000000 -1.844153
v -2.520000 2.600000 -1.804153
v -2.480000 2.600000 -1.844153
v -2.520000 2.600000 -1.884153
v -2.560000 2.600000 -1.844153
f 73 74 78
f 73 78 77
f 74 75 79
f 74 79 78
f 75 76 80
f 75 80 79
f 76 73 77
f 76 77 80
v -2.520000 0.000000 -3.013588
v -2.460000 0.000000 -3.073588
v -2.520000 0.000000 -3.133588
v -2.580000 0.000000 -3.073588
v -2.520000 2.600000 -3.013588
v -2.460000 2.600000 -3.073588
v -2.520000 2.600000 -3.133588
v -2.580000 2.600000 -3.073588
f 81 82 86
f 81 86 85
f 82 83 87
f 82 87 86
f 83 84 88
f 83 88 87
f 84 81 85
f 84 85 88
v -2.580000 2.600000 3.073588
v -2.520000 2.660000 3.073588
v -2.460000 2.600000 3.073588
v -2.520000 2.540000 3.073588
v -2.580000 2.600000 -3.073588
v -2.520000 2.660000 -3.073588
v -2.460000 2.600000 -3.073588
v -2.520000 2.540000 -3.073588
f 89 90 94
f 89 94 93
f 90 91 95
f 90 95 94
f 91 92 96
f 91 96 95
f 92 89 93
f 92 93 96
v -2.570000 0.900000 3.073588
v -2.520000 0.950000 3.073588
v -2.470000 0.900000 3.073588
v -2.520000 0.850000 3.073588
v -2.570000 0.900000 -3.073588
v -2.520000 0.950000 -3.073588
v -2.470000 0.900000 -3.073588
v -2.520000 0.850000 -3.073588
f 97 98 102
f 97 102 101
f 98 99 103
f 98 103 102
f 99 100 104
f 99 104 103
f 100 97 101
f 100 101 104
v 2.500000 1.750000 3.073588
v 2.520000 1.770000 3.073588
v 2.540000 1.750000 3.073588
v 2.520000 1.730000 3.073588
v 2.500000 1.750000 1.844153
v 2.520000 1.770000 1.844153
v 2.540000 1.750000 1.844153
v 2.520000 1.730000 1.844153
f 105 106 110
f 105 110 109
f 106 107 111
f 106 111 110
f 107 108 112
f 107 112 111
f 108 105 109
f 108 109 112
v 2.500000 1.750000 1.844153
v 2.520000 1.770000 1.844153
v 2.540000 1.750000 1.844153
v 2.520000 1.730000 1.844153
v 2.500000 1.750000 0.614718
v 2.520000 1.770000 0.614718
v 2.540000 1.750000 0.614718
v 2.520000 1.730000 0.614718
f 113 114 118
f 113 118 117
f 114 115 119
f 114 119 118
f 115 116 120
f 115 120 119
f 116 113 117
f 116 117 120
v 2.500000 1.750000 0.614718
v 2.520000 1.770000 0.614718
v 2.540000 1.750000 0.614718
v 2.520000 1.730000 0.614718
v 2.500000 1.750000 -0.614718
v 2.520000 1.770000 -0.614718
v 2.540000 1.750000 -0.614718
v 2.520000 1.730000 -0.614718
f 121 122 126
f 121 126 125
f 122 123 127
f 122 127 126
f 123 124 128
f 123 128 127
f 124 121 125
f 124 125 128
v 2.500000 1.750000 -0.614718
v 2.520000 1.770000 -0.614718
v 2.540000 1.750000 -0.614718
v 2.520000 1.730000 -0.614718
v 2.500000 1.750000 -1.844153
v 2.520000 1.770000 -1.844153
v 2.540000 1.750000 -1.844153
v 2.520000 1.730000 -1.844153
f 129 130 134
f 129 134 133
f 130 131 135
f 130 135 134
f 131 132 136
f 131 136 135
f 132 129 133
f 132 133 136
v 2.500000 1.750000 -1.844153
v 2.520000 1.770000 -1.844153
v 2.540000 1.750000 -1.844153
v 2.520000 1.730000 -1.844153
v 2.500000 1.750000 -3.073588
v 2.520000 1.770000 -3.073588
v 2.540000 1.750000 -3.073588
v 2.520000 1.730000 -3.073588
f 137 138 142
f 137 142 141
f 138 139 143
f 138 143 142
f 139 140 144
f 139 144 143
f 140 137 141
f 140 141 144
v 2.520000 0.000000 3.133588
v 2.580000 0.000000 3.073588
v 2.520000 0.000000 3.013588
v 2.460000 0.000000 3.073588
v 2.520000 2.600000 3.133588
v 2.580000 2.600000 3.073588
v 2.520000 2.600000 3.013588
v 2.460000 2.600000 3.073588
f 145 146 150
f 145 150 149
f 146 147 151
f 146 151 150
f 147 148 152
f 147 152 151
f 148 145 149
f 148 149 152
v 2.520000 0.000000 1.884153
v 2.560000 0.000000 1.844153
v 2.520000 0.000000 1.804153
v 2.480000 0.000000 1.844153
v 2.520000 2.600000 1.884153
v 2.560000 2.600000 1.844153
v 2.520000 2.600000 1.804153
v 2.480000 2.600000 1.844153
f 153 154 158
f 153 158 157
f 154 155 159
f 154 159 158
f 155 156 160
f 155 160 159
f 156 153 157
f 156 157 160
v 2.520000 0.000000 0.654718
v 2.560000 0.000000 0.614718
v 2.520000 0.000000 0.574718
v 2.480000 0.000000 0.614718
v 2.520000 2.600000 0.654718
v 2.560000 2.600000 0.614718
v 2.520000 2.600000 0.574718
v 2.480000 2.600000 0.614718
f 161 162 166
f 161 166 165
f 162 163 167
f 162 167 166
f 163 164 168
f 163 168 167
f 164 161 165
f 164 165 168
v 2.520000 0.000000 -0.574718
v 2.560000 0.000000 -0.614718
v 2.520000 0.000000 -0.654718
v 2.480000 0.000000 -0.614718
v 2.520000 2.600000 -0.574718
v 2.560000 2.600000 -0.614718
v 2.520000 2.600000 -0.654718
v 2.480000 2.600000 -0.614718
f 169 170 174
f 169 174 173
f 170 171 175
f 170 175 174
f 171 172 176
f 171 176 175
f 172 169 173
f 172 173 176
v 2.520000 0.000000 -1.804153
v 2.560000 0.000000 -1.844153
v 2.520000 0.000000 -1.884153
v 2.480000 0.000000 -1.844153
v 2.520000 2.600000 -1.804153
v 2.560000 2.600000 -1.844153
v 2.520000 2.600000 -1.884153
v 2.480000 2.600000 -1.844153
f 177 178 182
f 177 182 181
f 178 179 183
f 178 183 182
f 179 180 184
f 179 184 183
f 180 177 181
f 180 181 184
v 2.520000 0.000000 -3.013588
v 2.580000 0.000000 -3.073588
v 2.520000 0.000000 -3.133588
v 2.460000 0.000000 -3.073588
v 2.520000 2.600000 -3.013588
v 2.580000 2.600000 -3.073588
v 2.520000 2.600000 -3.133588
v 2.460000 2.600000 -3.073588
f 185 186 190
f 185 190 189
f 186 187 191
f 186 191 190
f 187 188 192
f 187 192 191
f 188 185 189
f 188 189 192
v 2.460000 2.600000 3.073588
v 2.520000 2.660000 3.073588
v 2.580000 2.600000 3.073588
v 2.520000 2.540000 3.073588
v 2.460000 2.600000 -3.073588
v 2.520000 2.660000 -3.073588
v 2.580000 2.600000 -3.073588
v 2.520000 2.540000 -3.073588
f 193 194 198
f 193 198 197
f 194 195 199
f 194 199 198
f 195 196 200
f 195 200 199
f 196 193 197
f 196 197 200
v 2.470000 0.900000 3.073588
v 2.520000 0.950000 3.073588
v 2.570000 0.900000 3.073588
v 2.520000 0.850000 3.073588
v 2.470000 0.900000 -3.073588
v 2.520000 0.950000 -3.073588
v 2.570000 0.900000 -3.073588
v 2.520000 0.850000 -3.073588
f 201 202 206
f 201 206 205
f 202 203 207
f 202 207 206
f 203 204 208
f 203 208 207
f 204 201 205
f 204 205 208
v 2.520000 1.750000 -3.053588
v 2.520000 1.770000 -3.073588
v 2.520000 1.750000 -3.093588
v 2.520000 1.730000 -3.073588
v 1.260000 1.750000 -3.053588
v 1.260000 1.770000 -3.073588
v 1.260000 1.750000 -3.093588
v 1.260000 1.730000 -3.073588
f 209 210 214
f 209 214 213
f 210 211 215
f 210 215 214
f 211 212 216
f 211 216 215
f 212 209 213
f 212 213 216
v 1.260000 1.750000 -3.053588
v 1.260000 1.770000 -3.073588
v 1.260000 1.750000 -3.093588
v 1.260000 1.730000 -3.073588
v 0.000000 1.750000 -3.053588
v 0.000000 1.770000 -3.073588
v 0.000000 1.750000 -3.093588
v 0.000000 1.730000 -3.073588
f 217 218 222
f 217 222 221
f 218 219 223
f 218 223 222
f 219 220 224
f 219 224 223
f 220 217 221
f 220 221 224
v 0.000000 2.500000 -3.038588
v 0.034327 2.506828 -3.073588
v 0.000000 2.500000 -3.108588
v -0.034327 2.493172 -3.073588
v -0.047956 2.741091 -3.038588
v -0.013628 2.747919 -3.073588
v -0.047956 2.741091 -3.108588
v -0.082283 2.734262 -3.073588
f 225 226 230
f 225 230 229
f 226 227 231
f 226 231 230
f 227 228 232
f 227 232 231
f 228 225 229
f 228 229 232
v -0.047956 2.741091 -3.038588
v -0.018854 2.760536 -3.073588
v -0.047956 2.741091 -3.108588
v -0.077057 2.721646 -3.073588
v -0.184523 2.945477 -3.038588
v -0.155421 2.964922 -3.073588
v -0.184523 2.945477 -3.108588
v -0.213624 2.926032 -3.073588
f 233 234 238
f 233 238 237
f 234 235 239
f 234 239 238
f 235 236 240
f 235 240 239
f 236 233 237
f 236 237 240
v -0.184523 2.945477 -3.038588
v -0.165078 2.974579 -3.073588
v -0.184523 2.945477 -3.108588
v -0.203968 2.916376 -3.073588
v -0.388909 3.082044 -3.038588
v -0.369464 3.111146 -3.073588
v -0.388909 3.082044 -3.108588
v -0.408354 3.052943 -3.073588
f 241 242 246
f 241 246 245
f 242 243 247
f 242 247 246
f 243 244 248
f 243 248 247
f 244 241 245
f 244 245 248
v -0.388909 3.082044 -3.038588
v -0.382081 3.116372 -3.073588
v -0.388909 3.082044 -3.108588
v -0.395738 3.047717 -3.073588
v -0.630000 3.130000 -3.038588
v -0.623172 3.164327 -3.073588
v -0.630000 3.130000 -3.108588
v -0.636828 3.095673 -3.073588
f 249 250 254
f 249 254 253
f 250 251 255
f 250 255 254
f 251 252 256
f 251 256 255
f 252 249 253
f 252 253 256
v -0.630000 3.130000 -3.038588
v -0.636828 3.164327 -3.073588
v -0.630000 3.130000 -3.108588
v -0.623172 3.095673 -3.073588
v -0.871091 3.082044 -3.038588
v -0.877919 3.116372 -3.073588
v -0.871091 3.082044 -3.108588
v -0.864262 3.047717 -3.073588
f 257 258 262
f 257 262 261
f 258 259 263
f 258 263 262
f 259 260 264
f 259 264 263
f 260 257 261
f 260 261 264
v -0.871091 3.082044 -3.038588
v -0.890536 3.111146 -3.073588
v -0.871091 3.082044 -3.108588
v -0.851646 3.052943 -3.073588
v -1.075477 2.945477 -3.038588
v -1.094922 2.974579 -3.073588
v -1.075477 2.945477 -3.108588
v -1.056032 2.916376 -3.073588
f 265 266 270
f 265 270 269
f 266 267 271
f 266 271 270
f 267 268 272
f 267 272 271
f 268 265 269
f 268 269 272
v -1.075477 2.945477 -3.038588
v -1.104579 2.964922 -3.073588
v -1.075477 2.945477 -3.108588
v -1.046376 2.926032 -3.073588
v -1.212044 2.741091 -3.038588
v -1.241146 2.760536 -3.073588
v -1.212044 2.741091 -3.108588
v -1.182943 2.721646 -3.073588
f 273 274 278
f 273 278 277
f 274 275 279
f 274 279 278
f 275 276 280
f 275 280 279
f 276 273 277
f 276 277 280
v -1.212044 2.741091 -3.108588
v -1.177717 2.734262 -3.073588
v -1.212044 2.741091 -3.038588
v -1.246372 2.747919 -3.073588
v -1.260000 2.500000 -3.108588
v -1.225673 2.493172 -3.073588
v -1.260000 2.500000 -3.038588
v -1.294327 2.506828 -3.073588
f 281 282 286
f 281 286 285
f 282 283 287
f 282 287 286
f 283 284 288
f 283 288 287
f 284 281 285
f 284 285 288
v -0.630000 2.500000 -3.053588
v -0.610000 2.500000 -3.073588
v -0.630000 2.500000 -3.093588
v -0.650000 2.500000 -3.073588
v -0.630000 3.130000 -3.053588
v -0.610000 3.130000 -3.073588
v -0.630000 3.130000 -3.093588
v -0.650000 3.130000 -3.073588
f 289 290 294
f 289 294 293
f 290 291 295
f 290 295 294
f 291 292 296
f 291 296 295
f 292 289 293
f 292 293 296
v -1.260000 1.750000 -3.053588
v -1.260000 1.770000 -3.073588
v -1.260000 1.750000 -3.093588
v -1.260000 1.730000 -3.073588
v -2.520000 1.750000 -3.053588
v -2.520000 1.770000 -3.073588
v -2.520000 1.750000 -3.093588
v -2.520000 1.730000 -3.073588
f 297 298 302
f 297 302 301
f 298 299 303
f 298 303 302
f 299 300 304
f 299 304 303
f 300 297 301
f 300 301 304
v 2.520000 0.000000 -3.013588
v 2.580000 0.000000 -3.073588
v 2.520000 0.000000 -3.133588
v 2.460000 0.000000 -3.073588
v 2.520000 2.600000 -3.013588
v 2.580000 2.600000 -3.073588
v 2.520000 2.600000 -3.133588
v 2.460000 2.600000 -3.073588
f 305 306 310
f 305 310 309
f 306 307 311
f 306 311 310
f 307 308 312
f 307 312 311
f 308 305 309
f 308 309 312
v 1.260000 0.000000 -3.033588
v 1.300000 0.000000 -3.073588
v 1.260000 0.000000 -3.113588
v 1.220000 0.000000 -3.073588
v 1.260000 2.600000 -3.033588
v 1.300000 2.600000 -3.073588
v 1.260000 2.600000 -3.113588
v 1.220000 2.600000 -3.073588
f 313 314 318
f 313 318 317
f 314 315 319
f 314 319 318
f 315 316 320
f 315 320 319
f 316 313 317
f 316 317 320
v 0.000000 0.000000 -3.033588
v 0.040000 0.000000 -3.073588
v 0.000000 0.000000 -3.113588
v -0.040000 0.000000 -3.073588
v 0.000000 2.600000 -3.033588
v 0.040000 2.600000 -3.073588
v 0.000000 2.600000 -3.113588
v -0.040000 2.600000 -3.073588
f 321 322 326
f 321 326 325
f 322 323 327
f 322 327 326
f 323 324 328
f 323 328 327
f 324 321 325
f 324 325 328
v -1.260000 0.000000 -3.033588
v -1.220000 0.000000 -3.073588
v -1.260000 0.000000 -3.113588
v -1.300000 0.000000 -3.073588
v -1.260000 2.600000 -3.033588
v -1.220000 2.600000 -3.073588
v -1.260000 2.600000 -3.113588
v -1.300000 2.600000 -3.073588
f 329 330 334
f 329 334 333
f 330 331 335
f 330 335 334
f 331 332 336
f 331 336 335
f 332 329 333
f 332 333 336
v -2.520000 0.000000 -3.013588
v -2.460000 0.000000 -3.073588
v -2.520000 0.000000 -3.133588
v -2.580000 0.000000 -3.073588
v -2.520000 2.600000 -3.013588
v -2.460000 2.600000 -3.073588
v -2.520000 2.600000 -3.133588
v -2.580000 2.600000 -3.073588
f 337 338 342
f 337 342 341
f 338 339 343
f 338 343 342
f 339 340 344
f 339 344 343
f 340 337 341
f 340 341 344
v 2.520000 2.600000 -3.013588
v 2.520000 2.660000 -3.073588
v 2.520000 2.600000 -3.133588
v 2.520000 2.540000 -3.073588
v -2.520000 2.600000 -3.013588
v -2.520000 2.660000 -3.073588
v -2.520000 2.600000 -3.133588
v -2.520000 2.540000 -3.073588
f 345 346 350
f 345 350 349
f 346 347 351
f 346 351 350
f 347 348 352
f 347 352 351
f 348 345 349
f 348 349 352
v 2.520000 0.900000 -3.023588
v 2.520000 0.950000 -3.073588
v 2.520000 0.900000 -3.123588
v 2.520000 0.850000 -3.073588
v -2.520000 0.900000 -3.023588
v -2.520000 0.950000 -3.073588
v -2.520000 0.900000 -3.123588
v -2.520000 0.850000 -3.073588
f 353 354 358
f 353 358 357
f 354 355 359
f 354 359 358
f 355 356 360
f 355 360 359
f 356 353 357
f 356 357 360
v 2.520000 1.750000 3.093588
v 2.520000 1.770000 3.073588
v 2.520000 1.750000 3.053588
v 2.520000 1.730000 3.073588
v 1.260000 1.750000 3.093588
v 1.260000 1.770000 3.073588
v 1.260000 1.750000 3.053588
v 1.260000 1.730000 3.073588
f 361 362 366
f 361 366 365
f 362 363 367
f 362 367 366
f 363 364 368
f 363 368 367
f 364 361 365
f 364 365 368
v 1.260000 1.750000 3.093588
v 1.260000 1.770000 3.073588
v 1.260000 1.750000 3.053588
v 1.260000 1.730000 3.073588
v 0.000000 1.750000 3.093588
v 0.000000 1.770000 3.073588
v 0.000000 1.750000 3.053588
v 0.000000 1.730000 3.073588
f 369 370 374
f 369 374 373
f 370 371 375
f 370 375 374
f 371 372 376
f 371 376 375
f 372 369 373
f 372 373 376
v 0.000000 1.750000 3.093588
v 0.000000 1.770000 3.073588
v 0.000000 1.750000 3.053588
v 0.000000 1.730000 3.073588
v -1.260000 1.750000 3.093588
v -1.260000 1.770000 3.073588
v -1.260000 1.750000 3.053588
v -1.260000 1.730000 3.073588
f 377 378 382
f 377 382 381
f 378 379 383
f 378 383 382
f 379 380 384
f 379 384 383
f 380 377 381
f 380 381 384
v -1.260000 1.750000 3.093588
v -1.260000 1.770000 3.073588
v -1.260000 1.750000 3.053588
v -1.260000 1.730000 3.073588
v -2.520000 1.750000 3.093588
v -2.520000 1.770000 3.073588
v -2.520000 1.750000 3.053588
v -2.520000 1.730000 3.073588
f 385 386 390
f 385 390 389
f 386 387 391
f 386 391 390
f 387 388 392
f 387 392 391
f 388 385 389
f 388 389 392
v 2.520000 0.000000 3.133588
v 2.580000 0.000000 3.073588
v 2.520000 0.000000 3.013588
v 2.460000 0.000000 3.073588
v 2.520000 2.600000 3.133588
v 2.580000 2.600000 3.073588
v 2.520000 2.600000 3.013588
v 2.460000 2.600000 3.073588
f 393 394 398
f 393 398 397
f 394 395 399
f 394 399 398
f 395 396 400
f 395 400 399
f 396 393 397
f 396 397 400
v 1.260000 0.000000 3.113588
v 1.300000 0.000000 3.073588
v 1.260000 0.000000 3.033588
v 1.220000 0.000000 3.073588
v 1.260000 2.600000 3.113588
v 1.300000 2.600000 3.073588
v 1.260000 2.600000 3.033588
v 1.220000 2.600000 3.073588
f 401 402 406
f 401 406 405
f 402 403 407
f 402 407 406
f 403 404 408
f 403 408 407
f 404 401 405
f 404 405 408
v 0.000000 0.000000 3.113588
v 0.040000 0.000000 3.073588
v 0.000000 0.000000 3.033588
v -0.040000 0.000000 3.073588
v 0.000000 2.600000 3.113588
v 0.040000 2.600000 3.073588
v 0.000000 2.600000 3.033588
v -0.040000 2.600000 3.073588
f 409 410 414
f 409 414 413
f 410 411 415
f 410 415 414
f 411 412 416
f 411 416 415
f 412 409 413
f 412 413 416
v -1.260000 0.000000 3.113588
v -1.220000 0.000000 3.073588
v -1.260000 0.000000 3.033588
v -1.300000 0.000000 3.073588
v -1.260000 2.600000 3.113588
v -1.220000 2.600000 3.073588
v -1.260000 2.600000 3.033588
v -1.300000 2.600000 3.073588
f 417 418 422
f 417 422 421
f 418 419 423
f 418 423 422
f 419 420 424
f 419 424 423
f 420 417 421
f 420 421 424
v -2.520000 0.000000 3.133588
v -2.460000 0.000000 3.073588
v -2.520000 0.000000 3.013588
v -2.580000 0.000000 3.073588
v -2.520000 2.600000 3.133588
v -2.460000 2.600000 3.073588
v -2.520000 2.600000 3.013588
v -2.580000 2.600000 3.073588
f 425 426 430
f 425 430 429
f 426 427 431
f 426 431 430
f 427 428 432
f 427 432 431
f 428 425 429
f 428 429 432
v 2.520000 2.600000 3.133588
v 2.520000 2.660000 3.073588
v 2.520000 2.600000 3.013588
v 2.520000 2.540000 3.073588
v -2.520000 2.600000 3.133588
v -2.520000 2.660000 3.073588
v -2.520000 2.600000 3.013588
v -2.520000 2.540000 3.073588
f 433 434 438
f 433 438 437
f 434 435 439
f 434 439 438
f 435 436 440
f 435 440 439
f 436 433 437
f 436 437 440
v 2.520000 0.900000 3.123588
v 2.520000 0.950000 3.073588
v 2.520000 0.900000 3.023588
v 2.520000 0.850000 3.073588
v -2.520000 0.900000 3.123588
v -2.520000 0.950000 3.073588
v -2.520000 0.900000 3.023588
v -2.520000 0.850000 3.073588
f 441 442 446
f 441 446 445
f 442 443 447
f 442 447 446
f 443 444 448
f 443 448 447
f 444 441 445
f 444 445 448
v -2.520000 2.600000 3.033588
v -2.541562 2.633691 3.073588
v -2.520000 2.600000 3.113588
v -2.498438 2.566309 3.073588
v 0.000000 4.212800 3.033588
v -0.021562 4.246491 3.073588
v -0.000000 4.212800 3.113588
v 0.021562 4.179109 3.073588
f 449 450 454
f 449 454 453
f 450 451 455
f 450 455 454
f 451 452 456
f 451 456 455
f 452 449 453
f 452 453 456
v 2.520000 2.600000 3.113588
v 2.541562 2.633691 3.073588
v 2.520000 2.600000 3.033588
v 2.498438 2.566309 3.073588
v 0.000000 4.212800 3.113588
v 0.021562 4.246491 3.073588
v 0.000000 4.212800 3.033588
v -0.021562 4.179109 3.073588
f 457 458 462
f 457 462 461
f 458 459 463
f 458 463 462
f 459 460 464
f 459 464 463
f 460 457 461
f 460 461 464
v -2.520000 2.600000 1.804153
v -2.541562 2.633691 1.844153
v -2.520000 2.600000 1.884153
v -2.498438 2.566309 1.844153
v 0.000000 4.212800 1.804153
v -0.021562 4.246491 1.844153
v -0.000000 4.212800 1.884153
v 0.021562 4.179109 1.844153
f 465 466 470
f 465 470 469
f 466 467 471
f 466 471 470
f 467 468 472
f 467 472 471
f 468 465 469
f 468 469 472
v 2.520000 2.600000 1.884153
v 2.541562 2.633691 1.844153
v 2.520000 2.600000 1.804153
v 2.498438 2.566309 1.844153
v 0.000000 4.212800 1.884153
v 0.021562 4.246491 1.844153
v 0.000000 4.212800 1.804153
v -0.021562 4.179109 1.844153
f 473 474 478
f 473 478 477
f 474 475 479
f 474 479 478
f 475 476 480
f 475 480 479
f 476 473 477
f 476 477 480
v -2.520000 2.600000 0.574718
v -2.541562 2.633691 0.614718
v -2.520000 2.600000 0.654718
v -2.498438 2.566309 0.614718
v 0.000000 4.212800 0.574718
v -0.021562 4.246491 0.614718
v -0.000000 4.212800 0.654718
v 0.021562 4.179109 0.614718
f 481 482 486
f 481 486 485
f 482 483 487
f 482 487 486
f 483 484 488
f 483 488 487
f 484 481 485
f 484 485 488
v 2.520000 2.600000 0.654718
v 2.541562 2.633691 0.614718
v 2.520000 2.600000 0.574718
v 2.498438 2.566309 0.614718
v 0.000000 4.212800 0.654718
v 0.021562 4.246491 0.614718
v 0.000000 4.212800 0.574718
v -0.021562 4.179109 0.614718
f 489 490 494
f 489 494 493
f 490 491 495
f 490 495 494
f 491 492 496
f 491 496 495
f 492 489 493
f 492 493 496
v -2.520000 2.600000 -0.654718
v -2.541562 2.633691 -0.614718
v -2.520000 2.600000 -0.574718
v -2.498438 2.566309 -0.614718
v 0.000000 4.212800 -0.654718
v -0.021562 4.246491 -0.614718
v -0.000000 4.212800 -0.574718
v 0.021562 4.179109 -0.614718
f 497 498 502
f 497 502 501
f 498 499 503
f 498 503 502
f 499 500 504
f 499 504 503
f 500 497 501
f 500 501 504
v 2.520000 2.600000 -0.574718
v 2.541562 2.633691 -0.614718
v 2.520000 2.600000 -0.654718
v 2.498438 2.566309 -0.614718
v 0.000000 4.212800 -0.574718
v 0.021562 4.246491 -0.614718
v 0.000000 4.212800 -0.654718
v -0.021562 4.179109 -0.614718
f 505 506 510
f 505 510 509
f 506 507 511
f 506 511 510
f 507 508 512
f 507 512 511
f 508 505 509
f 508 509 512
v -2.520000 2.600000 -1.884153
v -2.541562 2.633691 -1.844153
v -2.520000 2.600000 -1.804153
v -2.498438 2.566309 -1.844153
v 0.000000 4.212800 -1.884153
v -0.021562 4.246491 -1.844153
v -0.000000 4.212800 -1.804153
v 0.021562 4.179109 -1.844153
f 513 514 518
f 513 518 517
f 514 515 519
f 514 519 518
f 515 516 520
f 515 520 519
f 516 513 517
f 516 517 520
v 2.520000 2.600000 -1.804153
v 2.541562 2.633691 -1.844153
v 2.520000 2.600000 -1.884153
v 2.498438 2.566309 -1.844153
v 0.000000 4.212800 -1.804153
v 0.021562 4.246491 -1.844153
v 0.000000 4.212800 -1.884153
v -0.021562 4.179109 -1.844153
f 521 522 526
f 521 526 525
f 522 523 527
f 522 527 526
f 523 524 528
f 523 528 527
f 524 521 525
f 524 525 528
v -2.520000 2.600000 -3.113588
v -2.541562 2.633691 -3.073588
v -2.520000 2.600000 -3.033588
v -2.498438 2.566309 -3.073588
v 0.000000 4.212800 -3.113588
v -0.021562 4.246491 -3.073588
v -0.000000 4.212800 -3.033588
v 0.021562 4.179109 -3.073588
f 529 530 534
f 529 534 533
f 530 531 535
f 530 535 534
f 531 532 536
f 531 536 535
f 532 529 533
f 532 533 536
v 2.520000 2.600000 -3.033588
v 2.541562 2.633691 -3.073588
v 2.520000 2.600000 -3.113588
v 2.498438 2.566309 -3.073588
v 0.000000 4.212800 -3.033588
v 0.021562 4.246491 -3.073588
v 0.000000 4.212800 -3.113588
v -0.021562 4.179109 -3.073588
f 537 538 542
f 537 542 541
f 538 539 543
f 538 543 542
f 539 540 544
f 539 544 543
f 540 537 541
f 540 541 544
v -0.050000 4.212800 3.073588
v -0.000000 4.262800 3.073588
v 0.050000 4.212800 3.073588
v 0.000000 4.162800 3.073588
v -0.050000 4.212800 -3.073588
v -0.000000 4.262800 -3.073588
v 0.050000 4.212800 -3.073588
v 0.000000 4.162800 -3.073588
f 545 546 550
f 545 550 549
f 546 547 551
f 546 551 550
f 547 548 552
f 547 552 551
f 548 545 549
f 548 549 552
