o mesh
v -0.040620 0.000000 -0.008746
v -0.026222 0.027046 -0.006822
v 0.000371 0.041513 -0.001725
v 0.026706 0.027046 0.004574
v 0.040620 0.000000 0.008746
v 0.026222 -0.027046 0.006822
v -0.000371 -0.041513 0.001725
v -0.026706 -0.027046 -0.004574
v 0.188535 -0.044205 -1.023245
v 0.199298 -0.023986 -1.021807
v 0.219178 -0.013172 -1.017997
v 0.238865 -0.023986 -1.013288
v 0.249266 -0.044205 -1.010169
v 0.238503 -0.064424 -1.011608
v 0.218623 -0.075239 -1.015418
v 0.198936 -0.064424 -1.020127
f 1 2 10
f 1 10 9
f 2 3 11
f 2 11 10
f 3 4 12
f 3 12 11
f 4 5 13
f 4 13 12
f 5 6 14
f 5 14 13
f 6 7 15
f 6 15 14
f 7 8 16
f 7 16 15
f 8 1 9
f 8 9 16
v 0.117272 -0.025271 -0.569189
v 0.125094 -0.013711 -0.572669
v 0.132963 -0.013711 -0.584711
v 0.133010 -0.025271 -0.593273
v 0.125188 -0.036831 -0.589792
v 0.117319 -0.036831 -0.577750
v -0.127759 0.093831 -0.736176
v -0.123066 0.100766 -0.738265
v -0.118344 0.100766 -0.745490
v -0.118316 0.093831 -0.750627
v -0.123010 0.086895 -0.748538
v -0.127731 0.086895 -0.741313
f 17 18 24
f 17 24 23
f 18 19 25
f 18 25 24
f 19 20 26
f 19 26 25
f 20 21 27
f 20 27 26
f 21 22 28
f 21 28 27
f 22 17 23
f 22 23 28
v 0.105292 -0.018019 -0.502984
v 0.117687 -0.019947 -0.496083
v 0.117687 -0.023190 -0.482138
v 0.105292 -0.024506 -0.475095
v 0.092897 -0.022579 -0.481996
v 0.092897 -0.019335 -0.495940
v 0.101002 -0.184282 -0.535780
v 0.108439 -0.185438 -0.531639
v 0.108439 -0.187385 -0.523272
v 0.101002 -0.188174 -0.519046
v 0.093565 -0.187018 -0.523187
v 0.093565 -0.185071 -0.531554
f 29 30 36
f 29 36 35
f 30 31 37
f 30 37 36
f 31 32 38
f 31 38 37
f 32 33 39
f 32 39 38
f 33 34 40
f 33 40 39
f 34 29 35
f 34 35 40
