o mesh
v -2.037745 0.000000 1.284378
v -0.648104 0.000000 1.230435
v -0.648104 0.900000 1.230435
v -2.037745 0.900000 1.284378
f 1 2 3
f 1 3 4
v 0.741536 0.000000 1.176492
v 2.131176 0.000000 1.122550
v 2.131176 0.900000 1.122550
v 0.741536 0.900000 1.176492
f 5 6 7
f 5 7 8
v 2.131176 0.000000 1.122550
v 1.389640 0.000000 -0.053943
v 1.389640 0.900000 -0.053943
v 2.131176 0.900000 1.122550
f 9 10 11
f 9 11 12
v 1.389640 0.000000 -0.053943
v 0.648104 0.000000 -1.230435
v 0.648104 0.900000 -1.230435
v 1.389640 0.900000 -0.053943
f 13 14 15
f 13 15 16
v 0.648104 0.000000 -1.230435
v -0.093432 0.000000 -2.406928
v -0.093432 0.900000 -2.406928
v 0.648104 0.900000 -1.230435
f 17 18 19
f 17 19 20
v -0.093432 0.000000 -2.406928
v -0.741536 0.000000 -1.176492
v -0.741536 0.900000 -1.176492
v -0.093432 0.900000 -2.406928
f 21 22 23
f 21 23 24
v -0.741536 0.000000 -1.176492
v -1.389640 0.000000 0.053943
v -1.389640 0.900000 0.053943
v -0.741536 0.900000 -1.176492
f 25 26 27
f 25 27 28
v -1.389640 0.000000 0.053943
v -2.037745 0.000000 1.284378
v -2.037745 0.900000 1.284378
v -1.389640 0.900000 0.053943
f 29 30 31
f 29 31 32
