o mesh
v 0.000000 0.000000 0.015000
v 0.008817 0.000000 0.012135
v 0.014266 0.000000 0.004635
v 0.014266 0.000000 -0.004635
v 0.008817 0.000000 -0.012135
v 0.000000 0.000000 -0.015000
v -0.008817 0.000000 -0.012135
v -0.014266 0.000000 -0.004635
v -0.014266 0.000000 0.004635
v -0.008817 0.000000 0.012135
v 0.000000 0.400000 0.010200
v 0.005995 0.400000 0.008252
v 0.009701 0.400000 0.003152
v 0.009701 0.400000 -0.003152
v 0.005995 0.400000 -0.008252
v 0.000000 0.400000 -0.010200
v -0.005995 0.400000 -0.008252
v -0.009701 0.400000 -0.003152
v -0.009701 0.400000 0.003152
v -0.005995 0.400000 0.008252
f 1 2 12
f 1 12 11
f 2 3 13
f 2 13 12
f 3 4 14
f 3 14 13
f 4 5 15
f 4 15 14
f 5 6 16
f 5 16 15
f 6 7 17
f 6 17 16
f 7 8 18
f 7 18 17
f 8 9 19
f 8 19 18
f 9 10 20
f 9 20 19
f 10 1 11
f 10 11 20
v 0.000930 0.400000 0.010158
v 0.004902 0.404310 0.007838
v 0.007002 0.406974 0.002524
v 0.006427 0.406974 -0.003754
v 0.003397 0.404310 -0.008598
v -0.000930 0.400000 -0.010158
v -0.004902 0.395690 -0.007838
v -0.007002 0.393026 -0.002524
v -0.006427 0.393026 0.003754
v -0.003397 0.395690 0.008598
v -0.238741 0.632385 0.028826
v -0.236040 0.635316 0.027248
v -0.234612 0.637128 0.023635
v -0.235003 0.637128 0.019366
v -0.237063 0.635316 0.016072
v -0.240006 0.632385 0.015012
v -0.242707 0.629454 0.016589
v -0.244134 0.627642 0.020202
v -0.243743 0.627642 0.024471
v -0.241683 0.629454 0.027765
f 21 22 32
f 21 32 31
f 22 23 33
f 22 33 32
f 23 24 34
f 23 34 33
f 24 25 35
f 24 35 34
f 25 26 36
f 25 36 35
f 26 27 37
f 26 37 36
f 27 28 38
f 27 38 37
f 28 29 39
f 28 39 38
f 29 30 40
f 29 40 39
f 30 21 31
f 30 31 40
v -0.237693 0.632385 0.028648
v -0.239044 0.636321 0.027620
v -0.240520 0.638754 0.024414
v -0.241558 0.638754 0.020255
v -0.241762 0.636321 0.016732
v -0.241053 0.632385 0.015189
v -0.239702 0.628449 0.016217
v -0.238226 0.626016 0.019423
v -0.237188 0.626016 0.023582
v -0.236984 0.628449 0.027106
v -0.498083 0.560178 0.091361
v -0.499001 0.562855 0.090662
v -0.500005 0.564509 0.088482
v -0.500711 0.564509 0.085653
v -0.500849 0.562855 0.083257
v -0.500367 0.560178 0.082209
v -0.499449 0.557501 0.082908
v -0.498445 0.555847 0.085088
v -0.497739 0.555847 0.087916
v -0.497601 0.557501 0.090312
f 41 42 52
f 41 52 51
f 42 43 53
f 42 53 52
f 43 44 54
f 43 54 53
f 44 45 55
f 44 55 54
f 45 46 56
f 45 56 55
f 46 47 57
f 46 57 56
f 47 48 58
f 47 58 57
f 48 49 59
f 48 59 58
f 49 50 60
f 49 60 59
f 50 41 51
f 50 51 60
v -0.498068 0.560178 0.091357
v -0.500649 0.561504 0.091081
v -0.502686 0.562324 0.089164
v -0.503401 0.562324 0.086338
v -0.502521 0.561504 0.083683
v -0.500382 0.560178 0.082212
v -0.497801 0.558851 0.082489
v -0.495764 0.558032 0.084406
v -0.495049 0.558032 0.087232
v -0.495929 0.558851 0.089887
v -0.610174 0.348674 0.118160
v -0.611929 0.349576 0.117972
v -0.613314 0.350133 0.116668
v -0.613800 0.350133 0.114747
v -0.613202 0.349576 0.112941
v -0.611747 0.348674 0.111941
v -0.609992 0.347772 0.112129
v -0.608607 0.347214 0.113433
v -0.608121 0.347214 0.115355
v -0.608720 0.347772 0.117160
f 61 62 72
f 61 72 71
f 62 63 73
f 62 73 72
f 63 64 74
f 63 74 73
f 64 65 75
f 64 75 74
f 65 66 76
f 65 76 75
f 66 67 77
f 66 77 76
f 67 68 78
f 67 78 77
f 68 69 79
f 68 79 78
f 69 70 80
f 69 80 79
f 70 61 71
f 70 71 80
v -0.610961 0.348674 0.115051
v -0.610654 0.350534 0.117473
v -0.611007 0.352732 0.119809
v -0.612067 0.355290 0.122052
v -0.613763 0.358174 0.124211
v -0.615945 0.361305 0.126306
v -0.618403 0.364578 0.128365
v -0.620896 0.367868 0.130419
v -0.623166 0.371044 0.132502
v -0.624975 0.373985 0.134647
v -0.626118 0.376586 0.136879
v -0.626448 0.378772 0.139218
v -0.625887 0.380503 0.141674
v -0.624436 0.381779 0.144247
v -0.622173 0.382640 0.146928
v -0.619243 0.383161 0.149696
v -0.615852 0.383446 0.152525
v -0.612239 0.383618 0.155384
v -0.608659 0.383807 0.158238
v -0.605356 0.384138 0.161055
v -0.602539 0.384716 0.163809
v -0.600359 0.385620 0.166478
v -0.598884 0.386884 0.169055
v -0.598071 0.388486 0.171545
v -0.598377 0.386625 0.169122
v -0.598024 0.384428 0.166786
v -0.596964 0.381869 0.164543
v -0.595268 0.378986 0.162384
v -0.593087 0.375855 0.160289
v -0.590628 0.372582 0.158230
v -0.588136 0.369292 0.156176
v -0.585865 0.366115 0.154093
v -0.584056 0.363175 0.151949
v -0.582913 0.360574 0.149717
v -0.582583 0.358388 0.147378
v -0.583144 0.356657 0.144921
v -0.584595 0.355381 0.142348
v -0.586859 0.354520 0.139667
v -0.589788 0.353999 0.136899
v -0.593180 0.353714 0.134070
v -0.596793 0.353541 0.131211
v -0.600372 0.353352 0.128358
v -0.603675 0.353022 0.125540
v -0.606492 0.352443 0.122787
v -0.608673 0.351540 0.120117
v -0.610147 0.350275 0.117540
f 81 82 83
f 81 83 82
f 81 83 84
f 81 84 83
f 81 84 85
f 81 85 84
f 81 85 86
f 81 86 85
f 81 86 87
f 81 87 86
f 81 87 88
f 81 88 87
f 81 88 89
f 81 89 88
f 81 89 90
f 81 90 89
f 81 90 91
f 81 91 90
f 81 91 92
f 81 92 91
f 81 92 93
f 81 93 92
f 81 93 94
f 81 94 93
f 81 94 95
f 81 95 94
f 81 95 96
f 81 96 95
f 81 96 97
f 81 97 96
f 81 97 98
f 81 98 97
f 81 98 99
f 81 99 98
f 81 99 100
f 81 100 99
f 81 100 101
f 81 101 100
f 81 101 102
f 81 102 101
f 81 102 103
f 81 103 102
f 81 103 104
f 81 104 103
f 81 104 105
f 81 105 104
f 81 105 106
f 81 106 105
f 81 106 107
f 81 107 106
f 81 107 108
f 81 108 107
f 81 108 109
f 81 109 108
f 81 109 110
f 81 110 109
f 81 110 111
f 81 111 110
f 81 111 112
f 81 112 111
f 81 112 113
f 81 113 112
f 81 113 114
f 81 114 113
f 81 114 115
f 81 115 114
f 81 115 116
f 81 116 115
f 81 116 117
f 81 117 116
f 81 117 118
f 81 118 117
f 81 118 119
f 81 119 118
f 81 119 120
f 81 120 119
f 81 120 121
f 81 121 120
f 81 121 122
f 81 122 121
f 81 122 123
f 81 123 122
f 81 123 124
f 81 124 123
f 81 124 125
f 81 125 124
f 81 125 126
f 81 126 125
v -0.610961 0.348674 0.115051
v -0.612869 0.351648 0.114446
v -0.614765 0.354578 0.113568
v -0.616629 0.357408 0.112065
v -0.618448 0.360092 0.109645
v -0.620215 0.362609 0.106178
v -0.621935 0.364972 0.101749
v -0.623622 0.367231 0.096670
v -0.625302 0.369465 0.091433
v -0.627003 0.371768 0.086629
v -0.628754 0.374233 0.082842
v -0.630579 0.376935 0.080536
v -0.632489 0.379915 0.079965
v -0.634485 0.383172 0.081131
v -0.636555 0.386665 0.083777
v -0.638674 0.390320 0.087439
v -0.640815 0.394045 0.091536
v -0.642949 0.397745 0.095474
v -0.645050 0.401341 0.098762
v -0.647104 0.404783 0.101088
v -0.649105 0.408058 0.102367
v -0.651062 0.411186 0.102729
v -0.652988 0.414215 0.102467
v -0.654900 0.417200 0.101930
v -0.652991 0.414226 0.102535
v -0.651096 0.411296 0.103413
v -0.649231 0.408465 0.104916
v -0.647412 0.405781 0.107335
v -0.645645 0.403265 0.110803
v -0.643926 0.400902 0.115231
v -0.642238 0.398643 0.120311
v -0.640559 0.396409 0.125548
v -0.638858 0.394106 0.130351
v -0.637106 0.391640 0.134138
v -0.635282 0.388938 0.136445
v -0.633371 0.385959 0.137016
v -0.631375 0.382702 0.135850
v -0.629306 0.379209 0.133204
v -0.627186 0.375553 0.129541
v -0.625045 0.371828 0.125445
v -0.622911 0.368128 0.121506
v -0.620810 0.364533 0.118218
v -0.618757 0.361090 0.115892
v -0.616755 0.357816 0.114614
v -0.614798 0.354687 0.114252
v -0.612873 0.351659 0.114514
f 127 128 129
f 127 129 128
f 127 129 130
f 127 130 129
f 127 130 131
f 127 131 130
f 127 131 132
f 127 132 131
f 127 132 133
f 127 133 132
f 127 133 134
f 127 134 133
f 127 134 135
f 127 135 134
f 127 135 136
f 127 136 135
f 127 136 137
f 127 137 136
f 127 137 138
f 127 138 137
f 127 138 139
f 127 139 138
f 127 139 140
f 127 140 139
f 127 140 141
f 127 141 140
f 127 141 142
f 127 142 141
f 127 142 143
f 127 143 142
f 127 143 144
f 127 144 143
f 127 144 145
f 127 145 144
f 127 145 146
f 127 146 145
f 127 146 147
f 127 147 146
f 127 147 148
f 127 148 147
f 127 148 149
f 127 149 148
f 127 149 150
f 127 150 149
f 127 150 151
f 127 151 150
f 127 151 152
f 127 152 151
f 127 152 153
f 127 153 152
f 127 153 154
f 127 154 153
f 127 154 155
f 127 155 154
f 127 155 156
f 127 156 155
f 127 156 157
f 127 157 156
f 127 157 158
f 127 158 157
f 127 158 159
f 127 159 158
f 127 159 160
f 127 160 159
f 127 160 161
f 127 161 160
f 127 161 162
f 127 162 161
f 127 162 163
f 127 163 162
f 127 163 164
f 127 164 163
f 127 164 165
f 127 165 164
f 127 165 166
f 127 166 165
f 127 166 167
f 127 167 166
f 127 167 168
f 127 168 167
f 127 168 169
f 127 169 168
f 127 169 170
f 127 170 169
f 127 170 171
f 127 171 170
f 127 171 172
f 127 172 171
v -0.610961 0.348674 0.115051
v -0.608313 0.347754 0.114037
v -0.605361 0.346761 0.113682
v -0.602085 0.345690 0.114028
v -0.598518 0.344550 0.115001
v -0.594731 0.343357 0.116452
v -0.590818 0.342134 0.118173
v -0.586892 0.340908 0.119924
v -0.583068 0.339706 0.121454
v -0.579456 0.338555 0.122525
v -0.576148 0.337477 0.122939
v -0.573212 0.336488 0.122549
v -0.570683 0.335596 0.121280
v -0.568560 0.334802 0.119132
v -0.566809 0.334097 0.116181
v -0.565363 0.333464 0.112571
v -0.564128 0.332882 0.108504
v -0.562996 0.332325 0.104215
v -0.561850 0.331765 0.099956
v -0.560579 0.331174 0.095967
v -0.559087 0.330531 0.092456
v -0.557305 0.329818 0.089573
v -0.555198 0.329027 0.087390
v -0.552787 0.328164 0.085866
v -0.555434 0.329084 0.086879
v -0.558387 0.330077 0.087234
v -0.561663 0.331147 0.086889
v -0.565229 0.332287 0.085916
v -0.569017 0.333480 0.084465
v -0.572930 0.334703 0.082743
v -0.576856 0.335930 0.080992
v -0.580680 0.337131 0.079463
v -0.584292 0.338282 0.078391
v -0.587599 0.339360 0.077978
v -0.590535 0.340349 0.078368
v -0.593065 0.341241 0.079637
v -0.595187 0.342036 0.081785
v -0.596938 0.342741 0.084736
v -0.598385 0.343374 0.088345
v -0.599620 0.343955 0.092413
v -0.600752 0.344513 0.096701
v -0.601898 0.345073 0.100961
v -0.603169 0.345664 0.104949
v -0.604661 0.346307 0.108460
v -0.606443 0.347020 0.111343
v -0.608550 0.347810 0.113526
f 173 174 175
f 173 175 174
f 173 175 176
f 173 176 175
f 173 176 177
f 173 177 176
f 173 177 178
f 173 178 177
f 173 178 179
f 173 179 178
f 173 179 180
f 173 180 179
f 173 180 181
f 173 181 180
f 173 181 182
f 173 182 181
f 173 182 183
f 173 183 182
f 173 183 184
f 173 184 183
f 173 184 185
f 173 185 184
f 173 185 186
f 173 186 185
f 173 186 187
f 173 187 186
f 173 187 188
f 173 188 187
f 173 188 189
f 173 189 188
f 173 189 190
f 173 190 189
f 173 190 191
f 173 191 190
f 173 191 192
f 173 192 191
f 173 192 193
f 173 193 192
f 173 193 194
f 173 194 193
f 173 194 195
f 173 195 194
f 173 195 196
f 173 196 195
f 173 196 197
f 173 197 196
f 173 197 198
f 173 198 197
f 173 198 199
f 173 199 198
f 173 199 200
f 173 200 199
f 173 200 201
f 173 201 200
f 173 201 202
f 173 202 201
f 173 202 203
f 173 203 202
f 173 203 204
f 173 204 203
f 173 204 205
f 173 205 204
f 173 205 206
f 173 206 205
f 173 206 207
f 173 207 206
f 173 207 208
f 173 208 207
f 173 208 209
f 173 209 208
f 173 209 210
f 173 210 209
f 173 210 211
f 173 211 210
f 173 211 212
f 173 212 211
f 173 212 213
f 173 213 212
f 173 213 214
f 173 214 213
f 173 214 215
f 173 215 214
f 173 215 216
f 173 216 215
f 173 216 217
f 173 217 216
f 173 217 218
f 173 218 217
v -0.000577 0.400000 -0.010184
v -0.004981 0.403937 -0.007983
v -0.007482 0.406371 -0.002733
v -0.007126 0.406371 0.003560
v -0.004048 0.403937 0.008494
v 0.000577 0.400000 0.010184
v 0.004981 0.396063 0.007983
v 0.007482 0.393629 0.002733
v 0.007126 0.393629 -0.003560
v 0.004048 0.396063 -0.008494
v 0.232974 0.668411 -0.020137
v 0.229979 0.671088 -0.018641
v 0.228278 0.672743 -0.015071
v 0.228520 0.672743 -0.010791
v 0.230614 0.671088 -0.007436
v 0.233758 0.668411 -0.006287
v 0.236753 0.665733 -0.007784
v 0.238454 0.664078 -0.011354
v 0.238212 0.664078 -0.015633
v 0.236118 0.665733 -0.018988
f 219 220 230
f 219 230 229
f 220 221 231
f 220 231 230
f 221 222 232
f 221 232 231
f 222 223 233
f 222 233 232
f 223 224 234
f 223 234 233
f 224 225 235
f 224 235 234
f 225 226 236
f 225 236 235
f 226 227 237
f 226 237 236
f 227 228 238
f 227 238 237
f 228 219 229
f 228 229 238
v 0.232278 0.668411 -0.020062
v 0.233572 0.672336 -0.018927
v 0.234787 0.674763 -0.015608
v 0.235459 0.674763 -0.011374
v 0.235332 0.672336 -0.007843
v 0.234454 0.668411 -0.006362
v 0.233160 0.664485 -0.007498
v 0.231945 0.662058 -0.010816
v 0.231273 0.662058 -0.015050
v 0.231400 0.664485 -0.018582
v 0.493772 0.594352 -0.059341
v 0.494652 0.597021 -0.058569
v 0.495478 0.598671 -0.056312
v 0.495935 0.598671 -0.053433
v 0.495849 0.597021 -0.051032
v 0.495251 0.594352 -0.050025
v 0.494372 0.591682 -0.050797
v 0.493545 0.590032 -0.053054
v 0.493088 0.590032 -0.055933
v 0.493175 0.591682 -0.058334
f 239 240 250
f 239 250 249
f 240 241 251
f 240 251 250
f 241 242 252
f 241 252 251
f 242 243 253
f 242 253 252
f 243 244 254
f 243 254 253
f 244 245 255
f 244 255 254
f 245 246 256
f 245 256 255
f 246 247 257
f 246 257 256
f 247 248 258
f 247 258 257
f 248 239 249
f 248 249 258
v 0.494512 0.594782 -0.059380
v 0.497202 0.595367 -0.058422
v 0.498865 0.595563 -0.056036
v 0.498865 0.595297 -0.053133
v 0.497202 0.594670 -0.050822
v 0.494512 0.593921 -0.049986
v 0.491821 0.593337 -0.050944
v 0.490159 0.593140 -0.053331
v 0.490159 0.593406 -0.056233
v 0.491821 0.594034 -0.058544
v 0.547546 0.382337 -0.077344
v 0.549375 0.382735 -0.076692
v 0.550506 0.382868 -0.075069
v 0.550506 0.382687 -0.073096
v 0.549375 0.382261 -0.071524
v 0.547546 0.381752 -0.070956
v 0.545716 0.381355 -0.071607
v 0.544586 0.381221 -0.073230
v 0.544586 0.381402 -0.075204
v 0.545716 0.381828 -0.076775
f 259 260 270
f 259 270 269
f 260 261 271
f 260 271 270
f 261 262 272
f 261 272 271
f 262 263 273
f 262 273 272
f 263 264 274
f 263 274 273
f 264 265 275
f 264 275 274
f 265 266 276
f 265 276 275
f 266 267 277
f 266 277 276
f 267 268 278
f 267 278 277
f 268 259 269
f 268 269 278
v 0.547546 0.382045 -0.074150
v 0.547102 0.382992 -0.077441
v 0.547012 0.384030 -0.080760
v 0.547601 0.385242 -0.084132
v 0.549083 0.386684 -0.087575
v 0.551502 0.388368 -0.091092
v 0.554715 0.390255 -0.094672
v 0.558404 0.392264 -0.098289
v 0.562126 0.394282 -0.101909
v 0.565381 0.396180 -0.105491
v 0.567697 0.397836 -0.109000
v 0.568705 0.399156 -0.112406
v 0.568206 0.400089 -0.115693
v 0.566200 0.400635 -0.118861
v 0.562886 0.400844 -0.121925
v 0.558633 0.400812 -0.124916
v 0.553913 0.400660 -0.127870
v 0.549226 0.400517 -0.130826
v 0.545015 0.400496 -0.133820
v 0.541598 0.400679 -0.136877
v 0.539118 0.401102 -0.140007
v 0.537531 0.401756 -0.143208
v 0.536623 0.402584 -0.146463
v 0.536068 0.403502 -0.149745
v 0.536512 0.402555 -0.146454
v 0.536602 0.401517 -0.143135
v 0.536013 0.400304 -0.139763
v 0.534531 0.398862 -0.136320
v 0.532112 0.397179 -0.132803
v 0.528899 0.395292 -0.129223
v 0.525210 0.393283 -0.125606
v 0.521488 0.391265 -0.121986
v 0.518233 0.389367 -0.118404
v 0.515917 0.387711 -0.114895
v 0.514909 0.386390 -0.111489
v 0.515408 0.385457 -0.108202
v 0.517414 0.384912 -0.105035
v 0.520728 0.384702 -0.101970
v 0.524981 0.384734 -0.098979
v 0.529701 0.384886 -0.096025
v 0.534388 0.385030 -0.093069
v 0.538599 0.385051 -0.090075
v 0.542016 0.384868 -0.087018
v 0.544496 0.384444 -0.083888
v 0.546083 0.383791 -0.080687
v 0.546991 0.382963 -0.077432
f 279 280 281
f 279 281 280
f 279 281 282
f 279 282 281
f 279 282 283
f 279 283 282
f 279 283 284
f 279 284 283
f 279 284 285
f 279 285 284
f 279 285 286
f 279 286 285
f 279 286 287
f 279 287 286
f 279 287 288
f 279 288 287
f 279 288 289
f 279 289 288
f 279 289 290
f 279 290 289
f 279 290 291
f 279 291 290
f 279 291 292
f 279 292 291
f 279 292 293
f 279 293 292
f 279 293 294
f 279 294 293
f 279 294 295
f 279 295 294
f 279 295 296
f 279 296 295
f 279 296 297
f 279 297 296
f 279 297 298
f 279 298 297
f 279 298 299
f 279 299 298
f 279 299 300
f 279 300 299
f 279 300 301
f 279 301 300
f 279 301 302
f 279 302 301
f 279 302 303
f 279 303 302
f 279 303 304
f 279 304 303
f 279 304 305
f 279 305 304
f 279 305 306
f 279 306 305
f 279 306 307
f 279 307 306
f 279 307 308
f 279 308 307
f 279 308 309
f 279 309 308
f 279 309 310
f 279 310 309
f 279 310 311
f 279 311 310
f 279 311 312
f 279 312 311
f 279 312 313
f 279 313 312
f 279 313 314
f 279 314 313
f 279 314 315
f 279 315 314
f 279 315 316
f 279 316 315
f 279 316 317
f 279 317 316
f 279 317 318
f 279 318 317
f 279 318 319
f 279 319 318
f 279 319 320
f 279 320 319
f 279 320 321
f 279 321 320
f 279 321 322
f 279 322 321
f 279 322 323
f 279 323 322
f 279 323 324
f 279 324 323
v 0.547546 0.382045 -0.074150
v 0.547479 0.382451 -0.071280
v 0.546576 0.382631 -0.068214
v 0.545034 0.382638 -0.064997
v 0.543030 0.382519 -0.061671
v 0.540750 0.382325 -0.058281
v 0.538391 0.382110 -0.054872
v 0.536144 0.381925 -0.051489
v 0.534193 0.381821 -0.048176
v 0.532698 0.381840 -0.044970
v 0.531790 0.382019 -0.041903
v 0.531558 0.382381 -0.038994
v 0.532051 0.382939 -0.036256
v 0.533268 0.383695 -0.033688
v 0.535162 0.384634 -0.031280
v 0.537642 0.385732 -0.029010
v 0.540578 0.386953 -0.026846
v 0.543810 0.388255 -0.024753
v 0.547155 0.389588 -0.022686
v 0.550419 0.390899 -0.020600
v 0.553409 0.392135 -0.018449
v 0.555936 0.393246 -0.016190
v 0.557824 0.394183 -0.013780
v 0.558876 0.394894 -0.011174
v 0.558943 0.394487 -0.014043
v 0.559846 0.394307 -0.017110
v 0.561388 0.394300 -0.020327
v 0.563392 0.394419 -0.023652
v 0.565671 0.394613 -0.027043
v 0.568031 0.394828 -0.030452
v 0.570278 0.395013 -0.033834
v 0.572229 0.395117 -0.037147
v 0.573723 0.395098 -0.040353
v 0.574632 0.394920 -0.043421
v 0.574864 0.394558 -0.046329
v 0.574371 0.393999 -0.049067
v 0.573154 0.393244 -0.051635
v 0.571260 0.392305 -0.054044
v 0.568780 0.391207 -0.056314
v 0.565844 0.389985 -0.058477
v 0.562612 0.388683 -0.060571
v 0.559267 0.387350 -0.062638
v 0.556003 0.386040 -0.064724
v 0.553013 0.384803 -0.066874
v 0.550486 0.383692 -0.069134
v 0.548598 0.382755 -0.071543
f 325 326 327
f 325 327 326
f 325 327 328
f 325 328 327
f 325 328 329
f 325 329 328
f 325 329 330
f 325 330 329
f 325 330 331
f 325 331 330
f 325 331 332
f 325 332 331
f 325 332 333
f 325 333 332
f 325 333 334
f 325 334 333
f 325 334 335
f 325 335 334
f 325 335 336
f 325 336 335
f 325 336 337
f 325 337 336
f 325 337 338
f 325 338 337
f 325 338 339
f 325 339 338
f 325 339 340
f 325 340 339
f 325 340 341
f 325 341 340
f 325 341 342
f 325 342 341
f 325 342 343
f 325 343 342
f 325 343 344
f 325 344 343
f 325 344 345
f 325 345 344
f 325 345 346
f 325 346 345
f 325 346 347
f 325 347 346
f 325 347 348
f 325 348 347
f 325 348 349
f 325 349 348
f 325 349 350
f 325 350 349
f 325 350 351
f 325 351 350
f 325 351 352
f 325 352 351
f 325 352 353
f 325 353 352
f 325 353 354
f 325 354 353
f 325 354 355
f 325 355 354
f 325 355 356
f 325 356 355
f 325 356 357
f 325 357 356
f 325 357 358
f 325 358 357
f 325 358 359
f 325 359 358
f 325 359 360
f 325 360 359
f 325 360 361
f 325 361 360
f 325 361 362
f 325 362 361
f 325 362 363
f 325 363 362
f 325 363 364
f 325 364 363
f 325 364 365
f 325 365 364
f 325 365 366
f 325 366 365
f 325 366 367
f 325 367 366
f 325 367 368
f 325 368 367
f 325 368 369
f 325 369 368
f 325 369 370
f 325 370 369
