o mesh
v 0.000000 0.020000 -0.000000 0.180 0.500 0.200
v 0.002209 0.022796 -0.014454 0.180 0.500 0.200
v 0.005687 0.025592 -0.029137 0.180 0.500 0.200
v 0.009553 0.028388 -0.043891 0.180 0.500 0.200
v 0.013448 0.031184 -0.058650 0.180 0.500 0.200
v 0.017107 0.033980 -0.073366 0.180 0.500 0.200
v 0.020309 0.036776 -0.087999 0.180 0.500 0.200
v 0.022866 0.039572 -0.102516 0.180 0.500 0.200
v 0.024616 0.042367 -0.116887 0.180 0.500 0.200
v 0.025431 0.045163 -0.131089 0.180 0.500 0.200
v 0.025210 0.047959 -0.145104 0.180 0.500 0.200
v 0.023886 0.050755 -0.158919 0.180 0.500 0.200
v 0.021426 0.053551 -0.172529 0.180 0.500 0.200
v 0.017828 0.056347 -0.185933 0.180 0.500 0.200
v 0.013128 0.059143 -0.199137 0.180 0.500 0.200
v 0.007392 0.061939 -0.212155 0.180 0.500 0.200
v 0.000720 0.064735 -0.225003 0.180 0.500 0.200
v -0.006758 0.067531 -0.237706 0.180 0.500 0.200
v -0.014882 0.070327 -0.250291 0.180 0.500 0.200
v -0.023462 0.073123 -0.262795 0.180 0.500 0.200
v -0.032279 0.075919 -0.275255 0.180 0.500 0.200
v -0.041066 0.078715 -0.287721 0.180 0.500 0.200
v -0.049465 0.081511 -0.300257 0.180 0.500 0.200
v -0.056595 0.084307 -0.313022 0.180 0.500 0.200
v -0.058804 0.081511 -0.298568 0.180 0.500 0.200
v -0.062282 0.078715 -0.283885 0.180 0.500 0.200
v -0.066148 0.075919 -0.269131 0.180 0.500 0.200
v -0.070043 0.073123 -0.254372 0.180 0.500 0.200
v -0.073702 0.070327 -0.239656 0.180 0.500 0.200
v -0.076905 0.067531 -0.225023 0.180 0.500 0.200
v -0.079461 0.064735 -0.210506 0.180 0.500 0.200
v -0.081212 0.061939 -0.196135 0.180 0.500 0.200
v -0.082027 0.059143 -0.181933 0.180 0.500 0.200
v -0.081806 0.056347 -0.167918 0.180 0.500 0.200
v -0.080482 0.053551 -0.154103 0.180 0.500 0.200
v -0.078021 0.050755 -0.140494 0.180 0.500 0.200
v -0.074424 0.047959 -0.127090 0.180 0.500 0.200
v -0.069723 0.045163 -0.113885 0.180 0.500 0.200
v -0.063987 0.042367 -0.100867 0.180 0.500 0.200
v -0.057315 0.039572 -0.088019 0.180 0.500 0.200
v -0.049837 0.036776 -0.075317 0.180 0.500 0.200
v -0.041714 0.033980 -0.062731 0.180 0.500 0.200
v -0.033133 0.031184 -0.050228 0.180 0.500 0.200
v -0.024317 0.028388 -0.037767 0.180 0.500 0.200
v -0.015529 0.025592 -0.025301 0.180 0.500 0.200
v -0.007130 0.022796 -0.012765 0.180 0.500 0.200
f 1 2 3
f 1 3 2
f 1 3 4
f 1 4 3
f 1 4 5
f 1 5 4
f 1 5 6
f 1 6 5
f 1 6 7
f 1 7 6
f 1 7 8
f 1 8 7
f 1 8 9
f 1 9 8
f 1 9 10
f 1 10 9
f 1 10 11
f 1 11 10
f 1 11 12
f 1 12 11
f 1 12 13
f 1 13 12
f 1 13 14
f 1 14 13
f 1 14 15
f 1 15 14
f 1 15 16
f 1 16 15
f 1 16 17
f 1 17 16
f 1 17 18
f 1 18 17
f 1 18 19
f 1 19 18
f 1 19 20
f 1 20 19
f 1 20 21
f 1 21 20
f 1 21 22
f 1 22 21
f 1 22 23
f 1 23 22
f 1 23 24
f 1 24 23
f 1 24 25
f 1 25 24
f 1 25 26
f 1 26 25
f 1 26 27
f 1 27 26
f 1 27 28
f 1 28 27
f 1 28 29
f 1 29 28
f 1 29 30
f 1 30 29
f 1 30 31
f 1 31 30
f 1 31 32
f 1 32 31
f 1 32 33
f 1 33 32
f 1 33 34
f 1 34 33
f 1 34 35
f 1 35 34
f 1 35 36
f 1 36 35
f 1 36 37
f 1 37 36
f 1 37 38
f 1 38 37
f 1 38 39
f 1 39 38
f 1 39 40
f 1 40 39
f 1 40 41
f 1 41 40
f 1 41 42
f 1 42 41
f 1 42 43
f 1 43 42
f 1 43 44
f 1 44 43
f 1 44 45
f 1 45 44
f 1 45 46
f 1 46 45
v 0.000000 0.020000 -0.000000 0.180 0.500 0.200
v 0.011892 0.022935 -0.004504 0.180 0.500 0.200
v 0.024508 0.025871 -0.008140 0.180 0.500 0.200
v 0.037345 0.028806 -0.011510 0.180 0.500 0.200
v 0.050200 0.031741 -0.014861 0.180 0.500 0.200
v 0.062919 0.034676 -0.018373 0.180 0.500 0.200
v 0.075378 0.037612 -0.022197 0.180 0.500 0.200
v 0.087468 0.040547 -0.026464 0.180 0.500 0.200
v 0.099098 0.043482 -0.031281 0.180 0.500 0.200
v 0.110194 0.046417 -0.036739 0.180 0.500 0.200
v 0.120699 0.049353 -0.042905 0.180 0.500 0.200
v 0.130575 0.052288 -0.049825 0.180 0.500 0.200
v 0.139802 0.055223 -0.057523 0.180 0.500 0.200
v 0.148380 0.058158 -0.065999 0.180 0.500 0.200
v 0.156328 0.061094 -0.075230 0.180 0.500 0.200
v 0.163686 0.064029 -0.085168 0.180 0.500 0.200
v 0.170509 0.066964 -0.095747 0.180 0.500 0.200
v 0.176872 0.069900 -0.106877 0.180 0.500 0.200
v 0.182867 0.072835 -0.118449 0.180 0.500 0.200
v 0.188601 0.075770 -0.130334 0.180 0.500 0.200
v 0.194200 0.078705 -0.142380 0.180 0.500 0.200
v 0.199816 0.081641 -0.154406 0.180 0.500 0.200
v 0.205654 0.084576 -0.166166 0.180 0.500 0.200
v 0.212215 0.087511 -0.177059 0.180 0.500 0.200
v 0.200323 0.084576 -0.172555 0.180 0.500 0.200
v 0.187707 0.081641 -0.168919 0.180 0.500 0.200
v 0.174870 0.078705 -0.165548 0.180 0.500 0.200
v 0.162016 0.075770 -0.162198 0.180 0.500 0.200
v 0.149296 0.072835 -0.158686 0.180 0.500 0.200
v 0.136837 0.069900 -0.154861 0.180 0.500 0.200
v 0.124747 0.066964 -0.150595 0.180 0.500 0.200
v 0.113117 0.064029 -0.145778 0.180 0.500 0.200
v 0.102021 0.061094 -0.140320 0.180 0.500 0.200
v 0.091516 0.058158 -0.134154 0.180 0.500 0.200
v 0.081640 0.055223 -0.127233 0.180 0.500 0.200
v 0.072414 0.052288 -0.119535 0.180 0.500 0.200
v 0.063836 0.049353 -0.111059 0.180 0.500 0.200
v 0.055887 0.046417 -0.101829 0.180 0.500 0.200
v 0.048530 0.043482 -0.091890 0.180 0.500 0.200
v 0.041707 0.040547 -0.081311 0.180 0.500 0.200
v 0.035343 0.037612 -0.070181 0.180 0.500 0.200
v 0.029348 0.034676 -0.058609 0.180 0.500 0.200
v 0.023614 0.031741 -0.046725 0.180 0.500 0.200
v 0.018015 0.028806 -0.034679 0.180 0.500 0.200
v 0.012399 0.025871 -0.022653 0.180 0.500 0.200
v 0.006562 0.022935 -0.010892 0.180 0.500 0.200
f 47 48 49
f 47 49 48
f 47 49 50
f 47 50 49
f 47 50 51
f 47 51 50
f 47 51 52
f 47 52 51
f 47 52 53
f 47 53 52
f 47 53 54
f 47 54 53
f 47 54 55
f 47 55 54
f 47 55 56
f 47 56 55
f 47 56 57
f 47 57 56
f 47 57 58
f 47 58 57
f 47 58 59
f 47 59 58
f 47 59 60
f 47 60 59
f 47 60 61
f 47 61 60
f 47 61 62
f 47 62 61
f 47 62 63
f 47 63 62
f 47 63 64
f 47 64 63
f 47 64 65
f 47 65 64
f 47 65 66
f 47 66 65
f 47 66 67
f 47 67 66
f 47 67 68
f 47 68 67
f 47 68 69
f 47 69 68
f 47 69 70
f 47 70 69
f 47 70 71
f 47 71 70
f 47 71 72
f 47 72 71
f 47 72 73
f 47 73 72
f 47 73 74
f 47 74 73
f 47 74 75
f 47 75 74
f 47 75 76
f 47 76 75
f 47 76 77
f 47 77 76
f 47 77 78
f 47 78 77
f 47 78 79
f 47 79 78
f 47 79 80
f 47 80 79
f 47 80 81
f 47 81 80
f 47 81 82
f 47 82 81
f 47 82 83
f 47 83 82
f 47 83 84
f 47 84 83
f 47 84 85
f 47 85 84
f 47 85 86
f 47 86 85
f 47 86 87
f 47 87 86
f 47 87 88
f 47 88 87
f 47 88 89
f 47 89 88
f 47 89 90
f 47 90 89
f 47 90 91
f 47 91 90
f 47 91 92
f 47 92 91
v 0.000000 0.020000 -0.000000 0.180 0.500 0.200
v 0.009425 0.027802 0.007261 0.180 0.500 0.200
v 0.018526 0.035604 0.015711 0.180 0.500 0.200
v 0.027529 0.043406 0.024525 0.180 0.500 0.200
v 0.036524 0.051208 0.033367 0.180 0.500 0.200
v 0.045579 0.059010 0.041987 0.180 0.500 0.200
v 0.054751 0.066812 0.050179 0.180 0.500 0.200
v 0.064087 0.074614 0.057765 0.180 0.500 0.200
v 0.073628 0.082416 0.064597 0.180 0.500 0.200
v 0.083408 0.090217 0.070551 0.180 0.500 0.200
v 0.093451 0.098019 0.075535 0.180 0.500 0.200
v 0.103776 0.105821 0.079485 0.180 0.500 0.200
v 0.114390 0.113623 0.082370 0.180 0.500 0.200
v 0.125293 0.121425 0.084189 0.180 0.500 0.200
v 0.136478 0.129227 0.084974 0.180 0.500 0.200
v 0.147926 0.137029 0.084789 0.180 0.500 0.200
v 0.159613 0.144831 0.083727 0.180 0.500 0.200
v 0.171505 0.152633 0.081909 0.180 0.500 0.200
v 0.183561 0.160435 0.079487 0.180 0.500 0.200
v 0.195734 0.168237 0.076636 0.180 0.500 0.200
v 0.207967 0.176039 0.073564 0.180 0.500 0.200
v 0.220192 0.183841 0.070519 0.180 0.500 0.200
v 0.232319 0.191643 0.067838 0.180 0.500 0.200
v 0.244122 0.199445 0.066346 0.180 0.500 0.200
v 0.234697 0.191643 0.059085 0.180 0.500 0.200
v 0.225596 0.183841 0.050635 0.180 0.500 0.200
v 0.216593 0.176039 0.041821 0.180 0.500 0.200
v 0.207598 0.168237 0.032980 0.180 0.500 0.200
v 0.198543 0.160435 0.024359 0.180 0.500 0.200
v 0.189372 0.152633 0.016167 0.180 0.500 0.200
v 0.180035 0.144831 0.008581 0.180 0.500 0.200
v 0.170494 0.137029 0.001749 0.180 0.500 0.200
v 0.160714 0.129227 -0.004205 0.180 0.500 0.200
v 0.150671 0.121425 -0.009189 0.180 0.500 0.200
v 0.140346 0.113623 -0.013139 0.180 0.500 0.200
v 0.129732 0.105821 -0.016024 0.180 0.500 0.200
v 0.118829 0.098019 -0.017843 0.180 0.500 0.200
v 0.107644 0.090217 -0.018628 0.180 0.500 0.200
v 0.096196 0.082416 -0.018443 0.180 0.500 0.200
v 0.084509 0.074614 -0.017381 0.180 0.500 0.200
v 0.072617 0.066812 -0.015563 0.180 0.500 0.200
v 0.060561 0.059010 -0.013141 0.180 0.500 0.200
v 0.048388 0.051208 -0.010290 0.180 0.500 0.200
v 0.036155 0.043406 -0.007217 0.180 0.500 0.200
v 0.023930 0.035604 -0.004173 0.180 0.500 0.200
v 0.011803 0.027802 -0.001492 0.180 0.500 0.200
f 93 94 95
f 93 95 94
f 93 95 96
f 93 96 95
f 93 96 97
f 93 97 96
f 93 97 98
f 93 98 97
f 93 98 99
f 93 99 98
f 93 99 100
f 93 100 99
f 93 100 101
f 93 101 100
f 93 101 102
f 93 102 101
f 93 102 103
f 93 103 102
f 93 103 104
f 93 104 103
f 93 104 105
f 93 105 104
f 93 105 106
f 93 106 105
f 93 106 107
f 93 107 106
f 93 107 108
f 93 108 107
f 93 108 109
f 93 109 108
f 93 109 110
f 93 110 109
f 93 110 111
f 93 111 110
f 93 111 112
f 93 112 111
f 93 112 113
f 93 113 112
f 93 113 114
f 93 114 113
f 93 114 115
f 93 115 114
f 93 115 116
f 93 116 115
f 93 116 117
f 93 117 116
f 93 117 118
f 93 118 117
f 93 118 119
f 93 119 118
f 93 119 120
f 93 120 119
f 93 120 121
f 93 121 120
f 93 121 122
f 93 122 121
f 93 122 123
f 93 123 122
f 93 123 124
f 93 124 123
f 93 124 125
f 93 125 124
f 93 125 126
f 93 126 125
f 93 126 127
f 93 127 126
f 93 127 128
f 93 128 127
f 93 128 129
f 93 129 128
f 93 129 130
f 93 130 129
f 93 130 131
f 93 131 130
f 93 131 132
f 93 132 131
f 93 132 133
f 93 133 132
f 93 133 134
f 93 134 133
f 93 134 135
f 93 135 134
f 93 135 136
f 93 136 135
f 93 136 137
f 93 137 136
f 93 137 138
f 93 138 137
v 0.000000 0.020000 -0.000000 0.180 0.500 0.200
v 0.003253 0.026231 0.011927 0.180 0.500 0.200
v 0.005538 0.032461 0.024561 0.180 0.500 0.200
v 0.007526 0.038692 0.037412 0.180 0.500 0.200
v 0.009493 0.044922 0.050280 0.180 0.500 0.200
v 0.011639 0.051153 0.063015 0.180 0.500 0.200
v 0.014134 0.057383 0.075496 0.180 0.500 0.200
v 0.017122 0.063614 0.087617 0.180 0.500 0.200
v 0.020724 0.069844 0.099288 0.180 0.500 0.200
v 0.025041 0.076075 0.110437 0.180 0.500 0.200
v 0.030147 0.082306 0.121009 0.180 0.500 0.200
v 0.036095 0.088536 0.130966 0.180 0.500 0.200
v 0.042910 0.094767 0.140288 0.180 0.500 0.200
v 0.050593 0.100997 0.148976 0.180 0.500 0.200
v 0.059117 0.107228 0.157050 0.180 0.500 0.200
v 0.068431 0.113458 0.164546 0.180 0.500 0.200
v 0.078459 0.119689 0.171519 0.180 0.500 0.200
v 0.089102 0.125919 0.178044 0.180 0.500 0.200
v 0.100237 0.132150 0.184208 0.180 0.500 0.200
v 0.111722 0.138380 0.190117 0.180 0.500 0.200
v 0.123386 0.144611 0.195895 0.180 0.500 0.200
v 0.135027 0.150842 0.201689 0.180 0.500 0.200
v 0.146373 0.157072 0.207699 0.180 0.500 0.200
v 0.156751 0.163303 0.214418 0.180 0.500 0.200
v 0.153498 0.157072 0.202491 0.180 0.500 0.200
v 0.151213 0.150842 0.189856 0.180 0.500 0.200
v 0.149225 0.144611 0.177005 0.180 0.500 0.200
v 0.147258 0.138380 0.164138 0.180 0.500 0.200
v 0.145112 0.132150 0.151402 0.180 0.500 0.200
v 0.142617 0.125919 0.138921 0.180 0.500 0.200
v 0.139629 0.119689 0.126801 0.180 0.500 0.200
v 0.136027 0.113458 0.115130 0.180 0.500 0.200
v 0.131710 0.107228 0.103980 0.180 0.500 0.200
v 0.126604 0.100997 0.093409 0.180 0.500 0.200
v 0.120656 0.094767 0.083452 0.180 0.500 0.200
v 0.113840 0.088536 0.074130 0.180 0.500 0.200
v 0.106158 0.082306 0.065441 0.180 0.500 0.200
v 0.097634 0.076075 0.057368 0.180 0.500 0.200
v 0.088320 0.069844 0.049872 0.180 0.500 0.200
v 0.078292 0.063614 0.042898 0.180 0.500 0.200
v 0.067649 0.057383 0.036374 0.180 0.500 0.200
v 0.056513 0.051153 0.030210 0.180 0.500 0.200
v 0.045029 0.044922 0.024300 0.180 0.500 0.200
v 0.033365 0.038692 0.018523 0.180 0.500 0.200
v 0.021723 0.032461 0.012729 0.180 0.500 0.200
v 0.010378 0.026231 0.006718 0.180 0.500 0.200
f 139 140 141
f 139 141 140
f 139 141 142
f 139 142 141
f 139 142 143
f 139 143 142
f 139 143 144
f 139 144 143
f 139 144 145
f 139 145 144
f 139 145 146
f 139 146 145
f 139 146 147
f 139 147 146
f 139 147 148
f 139 148 147
f 139 148 149
f 139 149 148
f 139 149 150
f 139 150 149
f 139 150 151
f 139 151 150
f 139 151 152
f 139 152 151
f 139 152 153
f 139 153 152
f 139 153 154
f 139 154 153
f 139 154 155
f 139 155 154
f 139 155 156
f 139 156 155
f 139 156 157
f 139 157 156
f 139 157 158
f 139 158 157
f 139 158 159
f 139 159 158
f 139 159 160
f 139 160 159
f 139 160 161
f 139 161 160
f 139 161 162
f 139 162 161
f 139 162 163
f 139 163 162
f 139 163 164
f 139 164 163
f 139 164 165
f 139 165 164
f 139 165 166
f 139 166 165
f 139 166 167
f 139 167 166
f 139 167 168
f 139 168 167
f 139 168 169
f 139 169 168
f 139 169 170
f 139 170 169
f 139 170 171
f 139 171 170
f 139 171 172
f 139 172 171
f 139 172 173
f 139 173 172
f 139 173 174
f 139 174 173
f 139 174 175
f 139 175 174
f 139 175 176
f 139 176 175
f 139 176 177
f 139 177 176
f 139 177 178
f 139 178 177
f 139 178 179
f 139 179 178
f 139 179 180
f 139 180 179
f 139 180 181
f 139 181 180
f 139 181 182
f 139 182 181
f 139 182 183
f 139 183 182
f 139 183 184
f 139 184 183
v 0.000000 0.020000 -0.000000 0.180 0.500 0.200
v -0.009196 0.024439 0.010657 0.180 0.500 0.200
v -0.019583 0.028879 0.020851 0.180 0.500 0.200
v -0.030334 0.033318 0.030903 0.180 0.500 0.200
v -0.041113 0.037757 0.040944 0.180 0.500 0.200
v -0.051671 0.042197 0.051072 0.180 0.500 0.200
v -0.061799 0.046636 0.061366 0.180 0.500 0.200
v -0.071321 0.051076 0.071897 0.180 0.500 0.200
v -0.080086 0.055515 0.082721 0.180 0.500 0.200
v -0.087973 0.059954 0.093888 0.180 0.500 0.200
v -0.094887 0.064394 0.105433 0.180 0.500 0.200
v -0.100766 0.068833 0.117381 0.180 0.500 0.200
v -0.105577 0.073272 0.129745 0.180 0.500 0.200
v -0.109320 0.077712 0.142524 0.180 0.500 0.200
v -0.112028 0.082151 0.155706 0.180 0.500 0.200
v -0.113764 0.086591 0.169266 0.180 0.500 0.200
v -0.114621 0.091030 0.183169 0.180 0.500 0.200
v -0.114721 0.095469 0.197365 0.180 0.500 0.200
v -0.114215 0.099909 0.211798 0.180 0.500 0.200
v -0.113280 0.104348 0.226398 0.180 0.500 0.200
v -0.112123 0.108787 0.241083 0.180 0.500 0.200
v -0.110994 0.113227 0.255759 0.180 0.500 0.200
v -0.110229 0.117666 0.270292 0.180 0.500 0.200
v -0.110655 0.122106 0.284362 0.180 0.500 0.200
v -0.101460 0.117666 0.273704 0.180 0.500 0.200
v -0.091073 0.113227 0.263511 0.180 0.500 0.200
v -0.080321 0.108787 0.253459 0.180 0.500 0.200
v -0.069542 0.104348 0.243417 0.180 0.500 0.200
v -0.058985 0.099909 0.233290 0.180 0.500 0.200
v -0.048856 0.095469 0.222996 0.180 0.500 0.200
v -0.039335 0.091030 0.212465 0.180 0.500 0.200
v -0.030569 0.086591 0.201640 0.180 0.500 0.200
v -0.022683 0.082151 0.190474 0.180 0.500 0.200
v -0.015768 0.077712 0.178928 0.180 0.500 0.200
v -0.009890 0.073272 0.166980 0.180 0.500 0.200
v -0.005079 0.068833 0.154617 0.180 0.500 0.200
v -0.001335 0.064394 0.141838 0.180 0.500 0.200
v 0.001373 0.059954 0.128656 0.180 0.500 0.200
v 0.003109 0.055515 0.115095 0.180 0.500 0.200
v 0.003965 0.051076 0.101193 0.180 0.500 0.200
v 0.004066 0.046636 0.086996 0.180 0.500 0.200
v 0.003560 0.042197 0.072564 0.180 0.500 0.200
v 0.002624 0.037757 0.057964 0.180 0.500 0.200
v 0.001468 0.033318 0.043278 0.180 0.500 0.200
v 0.000338 0.028879 0.028603 0.180 0.500 0.200
v -0.000427 0.024439 0.014070 0.180 0.500 0.200
f 185 186 187
f 185 187 186
f 185 187 188
f 185 188 187
f 185 188 189
f 185 189 188
f 185 189 190
f 185 190 189
f 185 190 191
f 185 191 190
f 185 191 192
f 185 192 191
f 185 192 193
f 185 193 192
f 185 193 194
f 185 194 193
f 185 194 195
f 185 195 194
f 185 195 196
f 185 196 195
f 185 196 197
f 185 197 196
f 185 197 198
f 185 198 197
f 185 198 199
f 185 199 198
f 185 199 200
f 185 200 199
f 185 200 201
f 185 201 200
f 185 201 202
f 185 202 201
f 185 202 203
f 185 203 202
f 185 203 204
f 185 204 203
f 185 204 205
f 185 205 204
f 185 205 206
f 185 206 205
f 185 206 207
f 185 207 206
f 185 207 208
f 185 208 207
f 185 208 209
f 185 209 208
f 185 209 210
f 185 210 209
f 185 210 211
f 185 211 210
f 185 211 212
f 185 212 211
f 185 212 213
f 185 213 212
f 185 213 214
f 185 214 213
f 185 214 215
f 185 215 214
f 185 215 216
f 185 216 215
f 185 216 217
f 185 217 216
f 185 217 218
f 185 218 217
f 185 218 219
f 185 219 218
f 185 219 220
f 185 220 219
f 185 220 221
f 185 221 220
f 185 221 222
f 185 222 221
f 185 222 223
f 185 223 222
f 185 223 224
f 185 224 223
f 185 224 225
f 185 225 224
f 185 225 226
f 185 226 225
f 185 226 227
f 185 227 226
f 185 227 228
f 185 228 227
f 185 228 229
f 185 229 228
f 185 229 230
f 185 230 229
v 0.000000 0.020000 -0.000000 0.180 0.500 0.200
v -0.014310 0.028768 -0.000666 0.180 0.500 0.200
v -0.029100 0.037536 -0.002704 0.180 0.500 0.200
v -0.044037 0.046304 -0.005163 0.180 0.500 0.200
v -0.058985 0.055071 -0.007654 0.180 0.500 0.200
v -0.073843 0.063839 -0.009889 0.180 0.500 0.200
v -0.088529 0.072607 -0.011629 0.180 0.500 0.200
v -0.102970 0.081375 -0.012671 0.180 0.500 0.200
v -0.117106 0.090143 -0.012840 0.180 0.500 0.200
v -0.130888 0.098911 -0.011997 0.180 0.500 0.200
v -0.144277 0.107679 -0.010033 0.180 0.500 0.200
v -0.157249 0.116447 -0.006876 0.180 0.500 0.200
v -0.169791 0.125214 -0.002488 0.180 0.500 0.200
v -0.181902 0.133982 0.003130 0.180 0.500 0.200
v -0.193596 0.142750 0.009942 0.180 0.500 0.200
v -0.204897 0.151518 0.017874 0.180 0.500 0.200
v -0.215845 0.160286 0.026819 0.180 0.500 0.200
v -0.226487 0.169054 0.036636 0.180 0.500 0.200
v -0.236884 0.177822 0.047153 0.180 0.500 0.200
v -0.247109 0.186590 0.058163 0.180 0.500 0.200
v -0.257244 0.195357 0.069429 0.180 0.500 0.200
v -0.267390 0.204125 0.080663 0.180 0.500 0.200
v -0.277684 0.212893 0.091478 0.180 0.500 0.200
v -0.288457 0.221661 0.100919 0.180 0.500 0.200
v -0.274148 0.212893 0.101585 0.180 0.500 0.200
v -0.259358 0.204125 0.103623 0.180 0.500 0.200
v -0.244421 0.195357 0.106082 0.180 0.500 0.200
v -0.229473 0.186590 0.108573 0.180 0.500 0.200
v -0.214614 0.177822 0.110808 0.180 0.500 0.200
v -0.199928 0.169054 0.112548 0.180 0.500 0.200
v -0.185487 0.160286 0.113590 0.180 0.500 0.200
v -0.171351 0.151518 0.113759 0.180 0.500 0.200
v -0.157569 0.142750 0.112916 0.180 0.500 0.200
v -0.144180 0.133982 0.110952 0.180 0.500 0.200
v -0.131208 0.125214 0.107795 0.180 0.500 0.200
v -0.118666 0.116447 0.103407 0.180 0.500 0.200
v -0.106555 0.107679 0.097789 0.180 0.500 0.200
v -0.094861 0.098911 0.090977 0.180 0.500 0.200
v -0.083560 0.090143 0.083045 0.180 0.500 0.200
v -0.072613 0.081375 0.074100 0.180 0.500 0.200
v -0.061971 0.072607 0.064283 0.180 0.500 0.200
v -0.051573 0.063839 0.053766 0.180 0.500 0.200
v -0.041348 0.055071 0.042756 0.180 0.500 0.200
v -0.031213 0.046304 0.031490 0.180 0.500 0.200
v -0.021067 0.037536 0.020255 0.180 0.500 0.200
v -0.010774 0.028768 0.009441 0.180 0.500 0.200
f 231 232 233
f 231 233 232
f 231 233 234
f 231 234 233
f 231 234 235
f 231 235 234
f 231 235 236
f 231 236 235
f 231 236 237
f 231 237 236
f 231 237 238
f 231 238 237
f 231 238 239
f 231 239 238
f 231 239 240
f 231 240 239
f 231 240 241
f 231 241 240
f 231 241 242
f 231 242 241
f 231 242 243
f 231 243 242
f 231 243 244
f 231 244 243
f 231 244 245
f 231 245 244
f 231 245 246
f 231 246 245
f 231 246 247
f 231 247 246
f 231 247 248
f 231 248 247
f 231 248 249
f 231 249 248
f 231 249 250
f 231 250 249
f 231 250 251
f 231 251 250
f 231 251 252
f 231 252 251
f 231 252 253
f 231 253 252
f 231 253 254
f 231 254 253
f 231 254 255
f 231 255 254
f 231 255 256
f 231 256 255
f 231 256 257
f 231 257 256
f 231 257 258
f 231 258 257
f 231 258 259
f 231 259 258
f 231 259 260
f 231 260 259
f 231 260 261
f 231 261 260
f 231 261 262
f 231 262 261
f 231 262 263
f 231 263 262
f 231 263 264
f 231 264 263
f 231 264 265
f 231 265 264
f 231 265 266
f 231 266 265
f 231 266 267
f 231 267 266
f 231 267 268
f 231 268 267
f 231 268 269
f 231 269 268
f 231 269 270
f 231 270 269
f 231 270 271
f 231 271 270
f 231 271 272
f 231 272 271
f 231 272 273
f 231 273 272
f 231 273 274
f 231 274 273
f 231 274 275
f 231 275 274
f 231 275 276
f 231 276 275
v 0.000000 0.020000 -0.000000 0.180 0.500 0.200
v -0.007262 0.025620 -0.014545 0.180 0.500 0.200
v -0.013494 0.031240 -0.030167 0.180 0.500 0.200
v -0.019410 0.036859 -0.046118 0.180 0.500 0.200
v -0.025303 0.042479 -0.062093 0.180 0.500 0.200
v -0.031387 0.048099 -0.077869 0.180 0.500 0.200
v -0.037842 0.053719 -0.093257 0.180 0.500 0.200
v -0.044822 0.059338 -0.108097 0.180 0.500 0.200
v -0.052456 0.064958 -0.122254 0.180 0.500 0.200
v -0.060851 0.070578 -0.135617 0.180 0.500 0.200
v -0.070086 0.076198 -0.148102 0.180 0.500 0.200
v -0.080217 0.081817 -0.159651 0.180 0.500 0.200
v -0.091271 0.087437 -0.170236 0.180 0.500 0.200
v -0.103249 0.093057 -0.179857 0.180 0.500 0.200
v -0.116122 0.098677 -0.188543 0.180 0.500 0.200
v -0.129836 0.104296 -0.196350 0.180 0.500 0.200
v -0.144311 0.109916 -0.203363 0.180 0.500 0.200
v -0.159440 0.115536 -0.209693 0.180 0.500 0.200
v -0.175093 0.121156 -0.215476 0.180 0.500 0.200
v -0.191117 0.126776 -0.220871 0.180 0.500 0.200
v -0.207333 0.132395 -0.226065 0.180 0.500 0.200
v -0.223525 0.138015 -0.231285 0.180 0.500 0.200
v -0.239402 0.143635 -0.236834 0.180 0.500 0.200
v -0.254249 0.149255 -0.243458 0.180 0.500 0.200
v -0.246987 0.143635 -0.228913 0.180 0.500 0.200
v -0.240755 0.138015 -0.213291 0.180 0.500 0.200
v -0.234839 0.132395 -0.197341 0.180 0.500 0.200
v -0.228946 0.126776 -0.181365 0.180 0.500 0.200
v -0.222862 0.121156 -0.165590 0.180 0.500 0.200
v -0.216407 0.115536 -0.150202 0.180 0.500 0.200
v -0.209427 0.109916 -0.135361 0.180 0.500 0.200
v -0.201793 0.104296 -0.121205 0.180 0.500 0.200
v -0.193398 0.098677 -0.107842 0.180 0.500 0.200
v -0.184163 0.093057 -0.095357 0.180 0.500 0.200
v -0.174032 0.087437 -0.083808 0.180 0.500 0.200
v -0.162978 0.081817 -0.073222 0.180 0.500 0.200
v -0.151000 0.076198 -0.063601 0.180 0.500 0.200
v -0.138127 0.070578 -0.054916 0.180 0.500 0.200
v -0.124412 0.064958 -0.047109 0.180 0.500 0.200
v -0.109938 0.059338 -0.040095 0.180 0.500 0.200
v -0.094809 0.053719 -0.033765 0.180 0.500 0.200
v -0.079156 0.048099 -0.027983 0.180 0.500 0.200
v -0.063132 0.042479 -0.022588 0.180 0.500 0.200
v -0.046916 0.036859 -0.017393 0.180 0.500 0.200
v -0.030724 0.031240 -0.012174 0.180 0.500 0.200
v -0.014847 0.025620 -0.006625 0.180 0.500 0.200
f 277 278 279
f 277 279 278
f 277 279 280
f 277 280 279
f 277 280 281
f 277 281 280
f 277 281 282
f 277 282 281
f 277 282 283
f 277 283 282
f 277 283 284
f 277 284 283
f 277 284 285
f 277 285 284
f 277 285 286
f 277 286 285
f 277 286 287
f 277 287 286
f 277 287 288
f 277 288 287
f 277 288 289
f 277 289 288
f 277 289 290
f 277 290 289
f 277 290 291
f 277 291 290
f 277 291 292
f 277 292 291
f 277 292 293
f 277 293 292
f 277 293 294
f 277 294 293
f 277 294 295
f 277 295 294
f 277 295 296
f 277 296 295
f 277 296 297
f 277 297 296
f 277 297 298
f 277 298 297
f 277 298 299
f 277 299 298
f 277 299 300
f 277 300 299
f 277 300 301
f 277 301 300
f 277 301 302
f 277 302 301
f 277 302 303
f 277 303 302
f 277 303 304
f 277 304 303
f 277 304 305
f 277 305 304
f 277 305 306
f 277 306 305
f 277 306 307
f 277 307 306
f 277 307 308
f 277 308 307
f 277 308 309
f 277 309 308
f 277 309 310
f 277 310 309
f 277 310 311
f 277 311 310
f 277 311 312
f 277 312 311
f 277 312 313
f 277 313 312
f 277 313 314
f 277 314 313
f 277 314 315
f 277 315 314
f 277 315 316
f 277 316 315
f 277 316 317
f 277 317 316
f 277 317 318
f 277 318 317
f 277 318 319
f 277 319 318
f 277 319 320
f 277 320 319
f 277 320 321
f 277 321 320
f 277 321 322
f 277 322 321
v 0.000000 -0.000301 0.011996 0.200 0.440 0.170
v 0.011396 0.000528 0.003723 0.200 0.440 0.170
v 0.007043 0.000627 -0.009696 0.200 0.440 0.170
v -0.007043 -0.000140 -0.009715 0.200 0.440 0.170
v -0.011396 -0.000714 0.003691 0.200 0.440 0.170
v -0.011126 0.203890 0.014115 0.200 0.440 0.170
v -0.002579 0.204512 0.007910 0.200 0.440 0.170
v -0.005844 0.204586 -0.002154 0.200 0.440 0.170
v -0.016408 0.204011 -0.002168 0.200 0.440 0.170
v -0.019673 0.203581 0.007887 0.200 0.440 0.170
f 323 324 329
f 323 329 328
f 324 325 330
f 324 330 329
f 325 326 331
f 325 331 330
f 326 327 332
f 326 332 331
f 327 323 328
f 327 328 332
v -0.011126 0.203216 0.017084 0.200 0.440 0.170
v 0.000138 0.205669 0.008954 0.200 0.440 0.170
v -0.004165 0.205976 -0.004478 0.200 0.440 0.170
v -0.018088 0.203712 -0.004648 0.200 0.440 0.170
v -0.022390 0.202006 0.008678 0.200 0.440 0.170
v -0.044505 0.407557 0.029447 0.200 0.440 0.170
v -0.036057 0.409397 0.023349 0.200 0.440 0.170
v -0.039284 0.409627 0.013276 0.200 0.440 0.170
v -0.049726 0.407929 0.013148 0.200 0.440 0.170
v -0.052953 0.406650 0.023142 0.200 0.440 0.170
f 333 334 339
f 333 339 338
f 334 335 340
f 334 340 339
f 335 336 341
f 335 341 340
f 336 337 342
f 336 342 341
f 337 333 338
f 337 338 342
v -0.044505 0.406739 0.032379 0.200 0.440 0.170
v -0.033488 0.410727 0.024522 0.200 0.440 0.170
v -0.037696 0.411267 0.011069 0.200 0.440 0.170
v -0.051314 0.407613 0.010610 0.200 0.440 0.170
v -0.055522 0.404814 0.023781 0.200 0.440 0.170
v -0.100136 0.611228 0.054993 0.200 0.440 0.170
v -0.091873 0.614219 0.049100 0.200 0.440 0.170
v -0.095030 0.614624 0.039010 0.200 0.440 0.170
v -0.105243 0.611883 0.038666 0.200 0.440 0.170
v -0.108399 0.609785 0.048544 0.200 0.440 0.170
f 343 344 349
f 343 349 348
f 344 345 350
f 344 350 349
f 345 346 351
f 345 351 350
f 346 347 352
f 346 352 351
f 347 343 348
f 347 348 352
v -0.100136 0.610273 0.057882 0.200 0.440 0.170
v -0.089453 0.615661 0.050409 0.200 0.440 0.170
v -0.093534 0.616470 0.036930 0.200 0.440 0.170
v -0.106739 0.611582 0.036072 0.200 0.440 0.170
v -0.110819 0.607752 0.049021 0.200 0.440 0.170
v -0.178020 0.814908 0.090754 0.200 0.440 0.170
v -0.170007 0.818949 0.085149 0.200 0.440 0.170
v -0.173068 0.819556 0.075040 0.200 0.440 0.170
v -0.182972 0.815890 0.074396 0.200 0.440 0.170
v -0.186032 0.813017 0.084108 0.200 0.440 0.170
f 353 354 359
f 353 359 358
f 354 355 360
f 354 360 359
f 355 356 361
f 355 361 360
f 356 357 362
f 356 362 361
f 357 353 358
f 357 358 362
v -0.173005 0.816464 0.092791 0.200 0.440 0.170
v -0.167347 0.821887 0.081062 0.200 0.440 0.170
v -0.176439 0.819815 0.070476 0.200 0.440 0.170
v -0.187715 0.813112 0.075663 0.200 0.440 0.170
v -0.185593 0.811041 0.089455 0.200 0.440 0.170
v -0.274395 1.020580 0.136128 0.200 0.440 0.170
v -0.270151 1.024647 0.127331 0.200 0.440 0.170
v -0.276970 1.023093 0.119392 0.200 0.440 0.170
v -0.285428 1.018066 0.123282 0.200 0.440 0.170
v -0.283836 1.016513 0.133626 0.200 0.440 0.170
f 363 364 369
f 363 369 368
f 364 365 370
f 364 370 369
f 365 366 371
f 365 371 370
f 366 367 372
f 366 372 371
f 367 363 368
f 367 368 372
v -0.031604 0.357203 0.018821 0.200 0.440 0.170
v -0.036652 0.359496 0.017698 0.200 0.440 0.170
v -0.036544 0.357203 0.012528 0.200 0.440 0.170
v -0.031496 0.354910 0.013650 0.200 0.440 0.170
v -0.157942 0.128787 0.116722 0.200 0.440 0.170
v -0.161728 0.130507 0.115880 0.200 0.440 0.170
v -0.161647 0.128787 0.112002 0.200 0.440 0.170
v -0.157861 0.127068 0.112844 0.200 0.440 0.170
f 373 374 378
f 373 378 377
f 374 375 379
f 374 379 378
f 375 376 380
f 375 380 379
f 376 373 377
f 376 377 380
v -0.159795 0.134670 0.114362 0.600 0.150 0.200
v -0.159795 0.134670 0.114362 0.600 0.150 0.200
v -0.159795 0.134670 0.114362 0.600 0.150 0.200
v -0.159795 0.134670 0.114362 0.600 0.150 0.200
v -0.159795 0.134670 0.114362 0.600 0.150 0.200
v -0.159795 0.134670 0.114362 0.600 0.150 0.200
v -0.159795 0.134670 0.114362 0.600 0.150 0.200
v -0.159795 0.134670 0.114362 0.600 0.150 0.200
v -0.159795 0.134670 0.114362 0.600 0.150 0.200
v -0.125217 0.115571 0.114362 0.600 0.150 0.200
v -0.133306 0.115571 0.092136 0.600 0.150 0.200
v -0.153790 0.115571 0.080310 0.600 0.150 0.200
v -0.177084 0.115571 0.084417 0.600 0.150 0.200
v -0.192287 0.115571 0.102536 0.600 0.150 0.200
v -0.192287 0.115571 0.126189 0.600 0.150 0.200
v -0.177084 0.115571 0.144308 0.600 0.150 0.200
v -0.153790 0.115571 0.148415 0.600 0.150 0.200
v -0.133306 0.115571 0.136589 0.600 0.150 0.200
v -0.103846 0.065567 0.114362 0.600 0.150 0.200
v -0.116936 0.065567 0.078399 0.600 0.150 0.200
v -0.150079 0.065567 0.059264 0.600 0.150 0.200
v -0.187769 0.065567 0.065909 0.600 0.150 0.200
v -0.212369 0.065567 0.095227 0.600 0.150 0.200
v -0.212369 0.065567 0.133498 0.600 0.150 0.200
v -0.187769 0.065567 0.162815 0.600 0.150 0.200
v -0.150079 0.065567 0.169461 0.600 0.150 0.200
v -0.116936 0.065567 0.150325 0.600 0.150 0.200
v -0.103846 0.003759 0.114362 0.600 0.150 0.200
v -0.116936 0.003759 0.078399 0.600 0.150 0.200
v -0.150079 0.003759 0.059264 0.600 0.150 0.200
v -0.187769 0.003759 0.065909 0.600 0.150 0.200
v -0.212369 0.003759 0.095227 0.600 0.150 0.200
v -0.212369 0.003759 0.133498 0.600 0.150 0.200
v -0.187769 0.003759 0.162815 0.600 0.150 0.200
v -0.150079 0.003759 0.169461 0.600 0.150 0.200
v -0.116936 0.003759 0.150325 0.600 0.150 0.200
v -0.125217 -0.046244 0.114362 0.600 0.150 0.200
v -0.133306 -0.046244 0.092136 0.600 0.150 0.200
v -0.153790 -0.046244 0.080310 0.600 0.150 0.200
v -0.177084 -0.046244 0.084417 0.600 0.150 0.200
v -0.192287 -0.046244 0.102536 0.600 0.150 0.200
v -0.192287 -0.046244 0.126189 0.600 0.150 0.200
v -0.177084 -0.046244 0.144308 0.600 0.150 0.200
v -0.153790 -0.046244 0.148415 0.600 0.150 0.200
v -0.133306 -0.046244 0.136589 0.600 0.150 0.200
v -0.159795 -0.065344 0.114362 0.600 0.150 0.200
v -0.159795 -0.065344 0.114362 0.600 0.150 0.200
v -0.159795 -0.065344 0.114362 0.600 0.150 0.200
v -0.159795 -0.065344 0.114362 0.600 0.150 0.200
v -0.159795 -0.065344 0.114362 0.600 0.150 0.200
v -0.159795 -0.065344 0.114362 0.600 0.150 0.200
v -0.159795 -0.065344 0.114362 0.600 0.150 0.200
v -0.159795 -0.065344 0.114362 0.600 0.150 0.200
v -0.159795 -0.065344 0.114362 0.600 0.150 0.200
f 381 391 382
f 381 390 391
f 382 392 383
f 382 391 392
f 383 393 384
f 383 392 393
f 384 394 385
f 384 393 394
f 385 395 386
f 385 394 395
f 386 396 387
f 386 395 396
f 387 397 388
f 387 396 397
f 388 398 389
f 388 397 398
f 389 390 381
f 389 398 390
f 390 400 391
f 390 399 400
f 391 401 392
f 391 400 401
f 392 402 393
f 392 401 402
f 393 403 394
f 393 402 403
f 394 404 395
f 394 403 404
f 395 405 396
f 395 404 405
f 396 406 397
f 396 405 406
f 397 407 398
f 397 406 407
f 398 399 390
f 398 407 399
f 399 409 400
f 399 408 409
f 400 410 401
f 400 409 410
f 401 411 402
f 401 410 411
f 402 412 403
f 402 411 412
f 403 413 404
f 403 412 413
f 404 414 405
f 404 413 414
f 405 415 406
f 405 414 415
f 406 416 407
f 406 415 416
f 407 408 399
f 407 416 408
f 408 418 409
f 408 417 418
f 409 419 410
f 409 418 419
f 410 420 411
f 410 419 420
f 411 421 412
f 411 420 421
f 412 422 413
f 412 421 422
f 413 423 414
f 413 422 423
f 414 424 415
f 414 423 424
f 415 425 416
f 415 424 425
f 416 417 408
f 416 425 417
f 417 427 418
f 417 426 427
f 418 428 419
f 418 427 428
f 419 429 420
f 419 428 429
f 420 430 421
f 420 429 430
f 421 431 422
f 421 430 431
f 422 432 423
f 422 431 432
f 423 433 424
f 423 432 433
f 424 434 425
f 424 433 434
f 425 426 417
f 425 434 426
v -0.110486 0.122905 0.116756 0.780 0.532 0.560
v -0.103908 0.129905 0.114362 0.780 0.532 0.560
v -0.097331 0.122905 0.111968 0.780 0.532 0.560
v -0.103908 0.115905 0.114362 0.780 0.532 0.560
v -0.123561 0.122905 0.080833 0.780 0.532 0.560
v -0.116983 0.129905 0.078439 0.780 0.532 0.560
v -0.110405 0.122905 0.076045 0.780 0.532 0.560
v -0.116983 0.115905 0.078439 0.780 0.532 0.560
f 435 436 440
f 435 440 439
f 436 437 441
f 436 441 440
f 437 438 442
f 437 442 441
f 438 435 439
f 438 439 442
v -0.120483 0.122905 0.084501 0.780 0.532 0.560
v -0.116983 0.129905 0.078439 0.780 0.532 0.560
v -0.113483 0.122905 0.072377 0.780 0.532 0.560
v -0.116983 0.115905 0.078439 0.780 0.532 0.560
v -0.153590 0.122905 0.065387 0.780 0.532 0.560
v -0.150090 0.129905 0.059325 0.780 0.532 0.560
v -0.146590 0.122905 0.053263 0.780 0.532 0.560
v -0.150090 0.115905 0.059325 0.780 0.532 0.560
f 443 444 448
f 443 448 447
f 444 445 449
f 444 449 448
f 445 446 450
f 445 450 449
f 446 443 447
f 446 447 450
v -0.148875 0.122905 0.066219 0.780 0.532 0.560
v -0.150090 0.129905 0.059325 0.780 0.532 0.560
v -0.151306 0.122905 0.052431 0.780 0.532 0.560
v -0.150090 0.115905 0.059325 0.780 0.532 0.560
v -0.186522 0.122905 0.072857 0.780 0.532 0.560
v -0.187738 0.129905 0.065963 0.780 0.532 0.560
v -0.188953 0.122905 0.059070 0.780 0.532 0.560
v -0.187738 0.115905 0.065963 0.780 0.532 0.560
f 451 452 456
f 451 456 455
f 452 453 457
f 452 457 456
f 453 454 458
f 453 458 457
f 454 451 455
f 454 455 458
v -0.182375 0.122905 0.070463 0.780 0.532 0.560
v -0.187738 0.129905 0.065963 0.780 0.532 0.560
v -0.193100 0.122905 0.061464 0.780 0.532 0.560
v -0.187738 0.115905 0.065963 0.780 0.532 0.560
v -0.206948 0.122905 0.099747 0.780 0.532 0.560
v -0.212311 0.129905 0.095248 0.780 0.532 0.560
v -0.217673 0.122905 0.090748 0.780 0.532 0.560
v -0.212311 0.115905 0.095248 0.780 0.532 0.560
f 459 460 464
f 459 464 463
f 460 461 465
f 460 465 464
f 461 462 466
f 461 466 465
f 462 459 463
f 462 463 466
v -0.205311 0.122905 0.095248 0.780 0.532 0.560
v -0.212311 0.129905 0.095248 0.780 0.532 0.560
v -0.219311 0.122905 0.095248 0.780 0.532 0.560
v -0.212311 0.115905 0.095248 0.780 0.532 0.560
v -0.205311 0.122905 0.133476 0.780 0.532 0.560
v -0.212311 0.129905 0.133476 0.780 0.532 0.560
v -0.219311 0.122905 0.133476 0.780 0.532 0.560
v -0.212311 0.115905 0.133476 0.780 0.532 0.560
f 467 468 472
f 467 472 471
f 468 469 473
f 468 473 472
f 469 470 474
f 469 474 473
f 470 467 471
f 470 471 474
v -0.206948 0.122905 0.128977 0.780 0.532 0.560
v -0.212311 0.129905 0.133476 0.780 0.532 0.560
v -0.217673 0.122905 0.137976 0.780 0.532 0.560
v -0.212311 0.115905 0.133476 0.780 0.532 0.560
v -0.182375 0.122905 0.158262 0.780 0.532 0.560
v -0.187738 0.129905 0.162761 0.780 0.532 0.560
v -0.193100 0.122905 0.167261 0.780 0.532 0.560
v -0.187738 0.115905 0.162761 0.780 0.532 0.560
f 475 476 480
f 475 480 479
f 476 477 481
f 476 481 480
f 477 478 482
f 477 482 481
f 478 475 479
f 478 479 482
v -0.186522 0.122905 0.155867 0.780 0.532 0.560
v -0.187738 0.129905 0.162761 0.780 0.532 0.560
v -0.188953 0.122905 0.169655 0.780 0.532 0.560
v -0.187738 0.115905 0.162761 0.780 0.532 0.560
v -0.148875 0.122905 0.162506 0.780 0.532 0.560
v -0.150090 0.129905 0.169399 0.780 0.532 0.560
v -0.151306 0.122905 0.176293 0.780 0.532 0.560
v -0.150090 0.115905 0.169399 0.780 0.532 0.560
f 483 484 488
f 483 488 487
f 484 485 489
f 484 489 488
f 485 486 490
f 485 490 489
f 486 483 487
f 486 487 490
v -0.153590 0.122905 0.163337 0.780 0.532 0.560
v -0.150090 0.129905 0.169399 0.780 0.532 0.560
v -0.146590 0.122905 0.175462 0.780 0.532 0.560
v -0.150090 0.115905 0.169399 0.780 0.532 0.560
v -0.120483 0.122905 0.144223 0.780 0.532 0.560
v -0.116983 0.129905 0.150285 0.780 0.532 0.560
v -0.113483 0.122905 0.156347 0.780 0.532 0.560
v -0.116983 0.115905 0.150285 0.780 0.532 0.560
f 491 492 496
f 491 496 495
f 492 493 497
f 492 497 496
f 493 494 498
f 493 498 497
f 494 491 495
f 494 495 498
v -0.123561 0.122905 0.147891 0.780 0.532 0.560
v -0.116983 0.129905 0.150285 0.780 0.532 0.560
v -0.110405 0.122905 0.152679 0.780 0.532 0.560
v -0.116983 0.115905 0.150285 0.780 0.532 0.560
v -0.110486 0.122905 0.111968 0.780 0.532 0.560
v -0.103908 0.129905 0.114362 0.780 0.532 0.560
v -0.097331 0.122905 0.116756 0.780 0.532 0.560
v -0.103908 0.115905 0.114362 0.780 0.532 0.560
f 499 500 504
f 499 504 503
f 500 501 505
f 500 505 504
f 501 502 506
f 501 506 505
f 502 499 503
f 502 503 506
v -0.187559 0.122905 0.136157 0.450 0.112 0.150
v -0.200134 0.118701 0.144617 0.450 0.112 0.150
v -0.206851 0.114496 0.148479 0.450 0.112 0.150
v -0.212258 0.110292 0.151313 0.450 0.112 0.150
v -0.216855 0.106088 0.153510 0.450 0.112 0.150
v -0.220825 0.101884 0.155217 0.450 0.112 0.150
v -0.224257 0.097680 0.156500 0.450 0.112 0.150
v -0.227195 0.093476 0.157395 0.450 0.112 0.150
v -0.229664 0.089271 0.157923 0.450 0.112 0.150
v -0.231679 0.085067 0.158094 0.450 0.112 0.150
v -0.233247 0.080863 0.157915 0.450 0.112 0.150
v -0.234373 0.076659 0.157388 0.450 0.112 0.150
v -0.235058 0.072455 0.156515 0.450 0.112 0.150
v -0.235303 0.068251 0.155296 0.450 0.112 0.150
v -0.235105 0.064046 0.153730 0.450 0.112 0.150
v -0.234460 0.059842 0.151814 0.450 0.112 0.150
v -0.233361 0.055638 0.149540 0.450 0.112 0.150
v -0.231793 0.051434 0.146899 0.450 0.112 0.150
v -0.229732 0.047230 0.143870 0.450 0.112 0.150
v -0.227132 0.043026 0.140418 0.450 0.112 0.150
v -0.223905 0.038821 0.136475 0.450 0.112 0.150
v -0.219869 0.034617 0.131895 0.450 0.112 0.150
v -0.214523 0.030413 0.126288 0.450 0.112 0.150
v -0.203317 0.026209 0.116082 0.450 0.112 0.150
v -0.190742 0.030413 0.107621 0.450 0.112 0.150
v -0.184025 0.034617 0.103759 0.450 0.112 0.150
v -0.178618 0.038821 0.100925 0.450 0.112 0.150
v -0.174022 0.043026 0.098728 0.450 0.112 0.150
v -0.170051 0.047230 0.097022 0.450 0.112 0.150
v -0.166619 0.051434 0.095738 0.450 0.112 0.150
v -0.163681 0.055638 0.094843 0.450 0.112 0.150
v -0.161212 0.059842 0.094315 0.450 0.112 0.150
v -0.159197 0.064046 0.094144 0.450 0.112 0.150
v -0.157629 0.068251 0.094324 0.450 0.112 0.150
v -0.156503 0.072455 0.094851 0.450 0.112 0.150
v -0.155818 0.076659 0.095723 0.450 0.112 0.150
v -0.155573 0.080863 0.096942 0.450 0.112 0.150
v -0.155771 0.085067 0.098508 0.450 0.112 0.150
v -0.156416 0.089271 0.100425 0.450 0.112 0.150
v -0.157515 0.093476 0.102698 0.450 0.112 0.150
v -0.159083 0.097680 0.105339 0.450 0.112 0.150
v -0.161144 0.101884 0.108368 0.450 0.112 0.150
v -0.163744 0.106088 0.111820 0.450 0.112 0.150
v -0.166971 0.110292 0.115763 0.450 0.112 0.150
v -0.171008 0.114496 0.120343 0.450 0.112 0.150
v -0.176354 0.118701 0.125950 0.450 0.112 0.150
f 507 508 509
f 507 509 508
f 507 509 510
f 507 510 509
f 507 510 511
f 507 511 510
f 507 511 512
f 507 512 511
f 507 512 513
f 507 513 512
f 507 513 514
f 507 514 513
f 507 514 515
f 507 515 514
f 507 515 516
f 507 516 515
f 507 516 517
f 507 517 516
f 507 517 518
f 507 518 517
f 507 518 519
f 507 519 518
f 507 519 520
f 507 520 519
f 507 520 521
f 507 521 520
f 507 521 522
f 507 522 521
f 507 522 523
f 507 523 522
f 507 523 524
f 507 524 523
f 507 524 525
f 507 525 524
f 507 525 526
f 507 526 525
f 507 526 527
f 507 527 526
f 507 527 528
f 507 528 527
f 507 528 529
f 507 529 528
f 507 529 530
f 507 530 529
f 507 530 531
f 507 531 530
f 507 531 532
f 507 532 531
f 507 532 533
f 507 533 532
f 507 533 534
f 507 534 533
f 507 534 535
f 507 535 534
f 507 535 536
f 507 536 535
f 507 536 537
f 507 537 536
f 507 537 538
f 507 538 537
f 507 538 539
f 507 539 538
f 507 539 540
f 507 540 539
f 507 540 541
f 507 541 540
f 507 541 542
f 507 542 541
f 507 542 543
f 507 543 542
f 507 543 544
f 507 544 543
f 507 544 545
f 507 545 544
f 507 545 546
f 507 546 545
f 507 546 547
f 507 547 546
f 507 547 548
f 507 548 547
f 507 548 549
f 507 549 548
f 507 549 550
f 507 550 549
f 507 550 551
f 507 551 550
f 507 551 552
f 507 552 551
v -0.064481 0.489878 0.033461 0.200 0.440 0.170
v -0.067590 0.491779 0.029134 0.200 0.440 0.170
v -0.063693 0.489878 0.025500 0.200 0.440 0.170
v -0.060585 0.487978 0.029827 0.200 0.440 0.170
v -0.190142 0.255884 0.020019 0.200 0.440 0.170
v -0.192474 0.257309 0.016774 0.200 0.440 0.170
v -0.189551 0.255884 0.014049 0.200 0.440 0.170
v -0.187220 0.254458 0.017294 0.200 0.440 0.170
f 553 554 558
f 553 558 557
f 554 555 559
f 554 559 558
f 555 556 560
f 555 560 559
f 556 553 557
f 556 557 560
v -0.189847 0.262103 0.017034 0.600 0.150 0.200
v -0.189847 0.262103 0.017034 0.600 0.150 0.200
v -0.189847 0.262103 0.017034 0.600 0.150 0.200
v -0.189847 0.262103 0.017034 0.600 0.150 0.200
v -0.189847 0.262103 0.017034 0.600 0.150 0.200
v -0.189847 0.262103 0.017034 0.600 0.150 0.200
v -0.189847 0.262103 0.017034 0.600 0.150 0.200
v -0.189847 0.262103 0.017034 0.600 0.150 0.200
v -0.189847 0.262103 0.017034 0.600 0.150 0.200
v -0.153292 0.241911 0.017034 0.600 0.150 0.200
v -0.161844 0.241911 -0.006463 0.600 0.150 0.200
v -0.183499 0.241911 -0.018965 0.600 0.150 0.200
v -0.208124 0.241911 -0.014623 0.600 0.150 0.200
v -0.224197 0.241911 0.004532 0.600 0.150 0.200
v -0.224197 0.241911 0.029536 0.600 0.150 0.200
v -0.208124 0.241911 0.048691 0.600 0.150 0.200
v -0.183499 0.241911 0.053033 0.600 0.150 0.200
v -0.161844 0.241911 0.040531 0.600 0.150 0.200
v -0.130700 0.189050 0.017034 0.600 0.150 0.200
v -0.144538 0.189050 -0.020984 0.600 0.150 0.200
v -0.179576 0.189050 -0.041214 0.600 0.150 0.200
v -0.219420 0.189050 -0.034188 0.600 0.150 0.200
v -0.245426 0.189050 -0.003195 0.600 0.150 0.200
v -0.245426 0.189050 0.037263 0.600 0.150 0.200
v -0.219420 0.189050 0.068256 0.600 0.150 0.200
v -0.179576 0.189050 0.075282 0.600 0.150 0.200
v -0.144538 0.189050 0.055053 0.600 0.150 0.200
v -0.130700 0.123709 0.017034 0.600 0.150 0.200
v -0.144538 0.123709 -0.020984 0.600 0.150 0.200
v -0.179576 0.123709 -0.041214 0.600 0.150 0.200
v -0.219420 0.123709 -0.034188 0.600 0.150 0.200
v -0.245426 0.123709 -0.003195 0.600 0.150 0.200
v -0.245426 0.123709 0.037263 0.600 0.150 0.200
v -0.219420 0.123709 0.068256 0.600 0.150 0.200
v -0.179576 0.123709 0.075282 0.600 0.150 0.200
v -0.144538 0.123709 0.055053 0.600 0.150 0.200
v -0.153292 0.070848 0.017034 0.600 0.150 0.200
v -0.161844 0.070848 -0.006463 0.600 0.150 0.200
v -0.183499 0.070848 -0.018965 0.600 0.150 0.200
v -0.208124 0.070848 -0.014623 0.600 0.150 0.200
v -0.224197 0.070848 0.004532 0.600 0.150 0.200
v -0.224197 0.070848 0.029536 0.600 0.150 0.200
v -0.208124 0.070848 0.048691 0.600 0.150 0.200
v -0.183499 0.070848 0.053033 0.600 0.150 0.200
v -0.161844 0.070848 0.040531 0.600 0.150 0.200
v -0.189847 0.050656 0.017034 0.600 0.150 0.200
v -0.189847 0.050656 0.017034 0.600 0.150 0.200
v -0.189847 0.050656 0.017034 0.600 0.150 0.200
v -0.189847 0.050656 0.017034 0.600 0.150 0.200
v -0.189847 0.050656 0.017034 0.600 0.150 0.200
v -0.189847 0.050656 0.017034 0.600 0.150 0.200
v -0.189847 0.050656 0.017034 0.600 0.150 0.200
v -0.189847 0.050656 0.017034 0.600 0.150 0.200
v -0.189847 0.050656 0.017034 0.600 0.150 0.200
f 561 571 562
f 561 570 571
f 562 572 563
f 562 571 572
f 563 573 564
f 563 572 573
f 564 574 565
f 564 573 574
f 565 575 566
f 565 574 575
f 566 576 567
f 566 575 576
f 567 577 568
f 567 576 577
f 568 578 569
f 568 577 578
f 569 570 561
f 569 578 570
f 570 580 571
f 570 579 580
f 571 581 572
f 571 580 581
f 572 582 573
f 572 581 582
f 573 583 574
f 573 582 583
f 574 584 575
f 574 583 584
f 575 585 576
f 575 584 585
f 576 586 577
f 576 585 586
f 577 587 578
f 577 586 587
f 578 579 570
f 578 587 579
f 579 589 580
f 579 588 589
f 580 590 581
f 580 589 590
f 581 591 582
f 581 590 591
f 582 592 583
f 582 591 592
f 583 593 584
f 583 592 593
f 584 594 585
f 584 593 594
f 585 595 586
f 585 594 595
f 586 596 587
f 586 595 596
f 587 588 579
f 587 596 588
f 588 598 589
f 588 597 598
f 589 599 590
f 589 598 599
f 590 600 591
f 590 599 600
f 591 601 592
f 591 600 601
f 592 602 593
f 592 601 602
f 593 603 594
f 593 602 603
f 594 604 595
f 594 603 604
f 595 605 596
f 595 604 605
f 596 597 588
f 596 605 597
f 597 607 598
f 597 606 607
f 598 608 599
f 598 607 608
f 599 609 600
f 599 608 609
f 600 610 601
f 600 609 610
f 601 611 602
f 601 610 611
f 602 612 603
f 602 611 612
f 603 613 604
f 603 612 613
f 604 614 605
f 604 613 614
f 605 606 597
f 605 614 606
v -0.137344 0.249665 0.019428 0.780 0.532 0.560
v -0.130766 0.256665 0.017034 0.780 0.532 0.560
v -0.124188 0.249665 0.014640 0.780 0.532 0.560
v -0.130766 0.242665 0.017034 0.780 0.532 0.560
v -0.151166 0.249665 -0.018548 0.780 0.532 0.560
v -0.144588 0.256665 -0.020942 0.780 0.532 0.560
v -0.138011 0.249665 -0.023336 0.780 0.532 0.560
v -0.144588 0.242665 -0.020942 0.780 0.532 0.560
f 615 616 620
f 615 620 619
f 616 617 621
f 616 621 620
f 617 618 622
f 617 622 621
f 618 615 619
f 618 619 622
v -0.148088 0.249665 -0.014880 0.780 0.532 0.560
v -0.144588 0.256665 -0.020942 0.780 0.532 0.560
v -0.141088 0.249665 -0.027004 0.780 0.532 0.560
v -0.144588 0.242665 -0.020942 0.780 0.532 0.560
v -0.183088 0.249665 -0.035087 0.780 0.532 0.560
v -0.179588 0.256665 -0.041149 0.780 0.532 0.560
v -0.176088 0.249665 -0.047211 0.780 0.532 0.560
v -0.179588 0.242665 -0.041149 0.780 0.532 0.560
f 623 624 628
f 623 628 627
f 624 625 629
f 624 629 628
f 625 626 630
f 625 630 629
f 626 623 627
f 626 627 630
v -0.178372 0.249665 -0.034255 0.780 0.532 0.560
v -0.179588 0.256665 -0.041149 0.780 0.532 0.560
v -0.180803 0.249665 -0.048043 0.780 0.532 0.560
v -0.179588 0.242665 -0.041149 0.780 0.532 0.560
v -0.218172 0.249665 -0.027238 0.780 0.532 0.560
v -0.219387 0.256665 -0.034131 0.780 0.532 0.560
v -0.220603 0.249665 -0.041025 0.780 0.532 0.560
v -0.219387 0.242665 -0.034131 0.780 0.532 0.560
f 631 632 636
f 631 636 635
f 632 633 637
f 632 637 636
f 633 634 638
f 633 638 637
f 634 631 635
f 634 635 638
v -0.214025 0.249665 -0.029632 0.780 0.532 0.560
v -0.219387 0.256665 -0.034131 0.780 0.532 0.560
v -0.224749 0.249665 -0.038631 0.780 0.532 0.560
v -0.219387 0.242665 -0.034131 0.780 0.532 0.560
v -0.240002 0.249665 0.001327 0.780 0.532 0.560
v -0.245364 0.256665 -0.003173 0.780 0.532 0.560
v -0.250727 0.249665 -0.007672 0.780 0.532 0.560
v -0.245364 0.242665 -0.003173 0.780 0.532 0.560
f 639 640 644
f 639 644 643
f 640 641 645
f 640 645 644
f 641 642 646
f 641 646 645
f 642 639 643
f 642 643 646
v -0.238364 0.249665 -0.003173 0.780 0.532 0.560
v -0.245364 0.256665 -0.003173 0.780 0.532 0.560
v -0.252364 0.249665 -0.003173 0.780 0.532 0.560
v -0.245364 0.242665 -0.003173 0.780 0.532 0.560
v -0.238364 0.249665 0.037241 0.780 0.532 0.560
v -0.245364 0.256665 0.037241 0.780 0.532 0.560
v -0.252364 0.249665 0.037241 0.780 0.532 0.560
v -0.245364 0.242665 0.037241 0.780 0.532 0.560
f 647 648 652
f 647 652 651
f 648 649 653
f 648 653 652
f 649 650 654
f 649 654 653
f 650 647 651
f 650 651 654
v -0.240002 0.249665 0.032741 0.780 0.532 0.560
v -0.245364 0.256665 0.037241 0.780 0.532 0.560
v -0.250727 0.249665 0.041740 0.780 0.532 0.560
v -0.245364 0.242665 0.037241 0.780 0.532 0.560
v -0.214025 0.249665 0.063700 0.780 0.532 0.560
v -0.219387 0.256665 0.068199 0.780 0.532 0.560
v -0.224749 0.249665 0.072699 0.780 0.532 0.560
v -0.219387 0.242665 0.068199 0.780 0.532 0.560
f 655 656 660
f 655 660 659
f 656 657 661
f 656 661 660
f 657 658 662
f 657 662 661
f 658 655 659
f 658 659 662
v -0.218172 0.249665 0.061306 0.780 0.532 0.560
v -0.219387 0.256665 0.068199 0.780 0.532 0.560
v -0.220603 0.249665 0.075093 0.780 0.532 0.560
v -0.219387 0.242665 0.068199 0.780 0.532 0.560
v -0.178372 0.249665 0.068323 0.780 0.532 0.560
v -0.179588 0.256665 0.075217 0.780 0.532 0.560
v -0.180803 0.249665 0.082111 0.780 0.532 0.560
v -0.179588 0.242665 0.075217 0.780 0.532 0.560
f 663 664 668
f 663 668 667
f 664 665 669
f 664 669 668
f 665 666 670
f 665 670 669
f 666 663 667
f 666 667 670
v -0.183088 0.249665 0.069155 0.780 0.532 0.560
v -0.179588 0.256665 0.075217 0.780 0.532 0.560
v -0.176088 0.249665 0.081279 0.780 0.532 0.560
v -0.179588 0.242665 0.075217 0.780 0.532 0.560
v -0.148088 0.249665 0.048948 0.780 0.532 0.560
v -0.144588 0.256665 0.055010 0.780 0.532 0.560
v -0.141088 0.249665 0.061073 0.780 0.532 0.560
v -0.144588 0.242665 0.055010 0.780 0.532 0.560
f 671 672 676
f 671 676 675
f 672 673 677
f 672 677 676
f 673 674 678
f 673 678 677
f 674 671 675
f 674 675 678
v -0.151166 0.249665 0.052616 0.780 0.532 0.560
v -0.144588 0.256665 0.055010 0.780 0.532 0.560
v -0.138011 0.249665 0.057404 0.780 0.532 0.560
v -0.144588 0.242665 0.055010 0.780 0.532 0.560
v -0.137344 0.249665 0.014640 0.780 0.532 0.560
v -0.130766 0.256665 0.017034 0.780 0.532 0.560
v -0.124188 0.249665 0.019428 0.780 0.532 0.560
v -0.130766 0.242665 0.017034 0.780 0.532 0.560
f 679 680 684
f 679 684 683
f 680 681 685
f 680 685 684
f 681 682 686
f 681 686 685
f 682 679 683
f 682 683 686
v -0.226979 0.249665 0.013359 0.450 0.112 0.150
v -0.242681 0.245543 0.009760 0.450 0.112 0.150
v -0.250547 0.241422 0.006936 0.450 0.112 0.150
v -0.256662 0.237301 0.004285 0.450 0.112 0.150
v -0.261693 0.233179 0.001741 0.450 0.112 0.150
v -0.265887 0.229058 -0.000719 0.450 0.112 0.150
v -0.269359 0.224937 -0.003109 0.450 0.112 0.150
v -0.272172 0.220815 -0.005433 0.450 0.112 0.150
v -0.274358 0.216694 -0.007695 0.450 0.112 0.150
v -0.275936 0.212573 -0.009896 0.450 0.112 0.150
v -0.276916 0.208451 -0.012039 0.450 0.112 0.150
v -0.277305 0.204330 -0.014123 0.450 0.112 0.150
v -0.277105 0.200209 -0.016149 0.450 0.112 0.150
v -0.276315 0.196087 -0.018116 0.450 0.112 0.150
v -0.274933 0.191966 -0.020025 0.450 0.112 0.150
v -0.272954 0.187845 -0.021875 0.450 0.112 0.150
v -0.270368 0.183723 -0.023664 0.450 0.112 0.150
v -0.267154 0.179602 -0.025392 0.450 0.112 0.150
v -0.263280 0.175481 -0.027054 0.450 0.112 0.150
v -0.258686 0.171359 -0.028645 0.450 0.112 0.150
v -0.253254 0.167238 -0.030153 0.450 0.112 0.150
v -0.246738 0.163117 -0.031554 0.450 0.112 0.150
v -0.238471 0.158995 -0.032781 0.450 0.112 0.150
v -0.222368 0.154874 -0.033233 0.450 0.112 0.150
v -0.206666 0.158995 -0.029634 0.450 0.112 0.150
v -0.198801 0.163117 -0.026809 0.450 0.112 0.150
v -0.192686 0.167238 -0.024159 0.450 0.112 0.150
v -0.187655 0.171359 -0.021615 0.450 0.112 0.150
v -0.183461 0.175481 -0.019155 0.450 0.112 0.150
v -0.179988 0.179602 -0.016765 0.450 0.112 0.150
v -0.177176 0.183723 -0.014441 0.450 0.112 0.150
v -0.174990 0.187845 -0.012179 0.450 0.112 0.150
v -0.173412 0.191966 -0.009978 0.450 0.112 0.150
v -0.172432 0.196087 -0.007835 0.450 0.112 0.150
v -0.172043 0.200209 -0.005751 0.450 0.112 0.150
v -0.172243 0.204330 -0.003725 0.450 0.112 0.150
v -0.173033 0.208451 -0.001758 0.450 0.112 0.150
v -0.174415 0.212573 0.000151 0.450 0.112 0.150
v -0.176393 0.216694 0.002001 0.450 0.112 0.150
v -0.178980 0.220815 0.003790 0.450 0.112 0.150
v -0.182194 0.224937 0.005518 0.450 0.112 0.150
v -0.186067 0.229058 0.007180 0.450 0.112 0.150
v -0.190662 0.233179 0.008771 0.450 0.112 0.150
v -0.196094 0.237301 0.010279 0.450 0.112 0.150
v -0.202610 0.241422 0.011680 0.450 0.112 0.150
v -0.210876 0.245543 0.012907 0.450 0.112 0.150
f 687 688 689
f 687 689 688
f 687 689 690
f 687 690 689
f 687 690 691
f 687 691 690
f 687 691 692
f 687 692 691
f 687 692 693
f 687 693 692
f 687 693 694
f 687 694 693
f 687 694 695
f 687 695 694
f 687 695 696
f 687 696 695
f 687 696 697
f 687 697 696
f 687 697 698
f 687 698 697
f 687 698 699
f 687 699 698
f 687 699 700
f 687 700 699
f 687 700 701
f 687 701 700
f 687 701 702
f 687 702 701
f 687 702 703
f 687 703 702
f 687 703 704
f 687 704 703
f 687 704 705
f 687 705 704
f 687 705 706
f 687 706 705
f 687 706 707
f 687 707 706
f 687 707 708
f 687 708 707
f 687 708 709
f 687 709 708
f 687 709 710
f 687 710 709
f 687 710 711
f 687 711 710
f 687 711 712
f 687 712 711
f 687 712 713
f 687 713 712
f 687 713 714
f 687 714 713
f 687 714 715
f 687 715 714
f 687 715 716
f 687 716 715
f 687 716 717
f 687 717 716
f 687 717 718
f 687 718 717
f 687 718 719
f 687 719 718
f 687 719 720
f 687 720 719
f 687 720 721
f 687 721 720
f 687 721 722
f 687 722 721
f 687 722 723
f 687 723 722
f 687 723 724
f 687 724 723
f 687 724 725
f 687 725 724
f 687 725 726
f 687 726 725
f 687 726 727
f 687 727 726
f 687 727 728
f 687 728 727
f 687 728 729
f 687 729 728
f 687 729 730
f 687 730 729
f 687 730 731
f 687 731 730
f 687 731 732
f 687 732 731
v -0.099682 0.622554 0.048798 0.200 0.440 0.170
v -0.104567 0.624320 0.051038 0.200 0.440 0.170
v -0.107322 0.622554 0.046424 0.200 0.440 0.170
v -0.102437 0.620788 0.044184 0.200 0.440 0.170
v -0.132940 0.401315 0.152464 0.200 0.440 0.170
v -0.136603 0.402639 0.154144 0.200 0.440 0.170
v -0.138670 0.401315 0.150683 0.200 0.440 0.170
v -0.135006 0.399990 0.149003 0.200 0.440 0.170
f 733 734 738
f 733 738 737
f 734 735 739
f 734 739 738
f 735 736 740
f 735 740 739
f 736 733 737
f 736 737 740
v -0.135805 0.407518 0.151574 0.600 0.150 0.200
v -0.135805 0.407518 0.151574 0.600 0.150 0.200
v -0.135805 0.407518 0.151574 0.600 0.150 0.200
v -0.135805 0.407518 0.151574 0.600 0.150 0.200
v -0.135805 0.407518 0.151574 0.600 0.150 0.200
v -0.135805 0.407518 0.151574 0.600 0.150 0.200
v -0.135805 0.407518 0.151574 0.600 0.150 0.200
v -0.135805 0.407518 0.151574 0.600 0.150 0.200
v -0.135805 0.407518 0.151574 0.600 0.150 0.200
v -0.099344 0.387379 0.151574 0.600 0.150 0.200
v -0.107874 0.387379 0.128137 0.600 0.150 0.200
v -0.129473 0.387379 0.115667 0.600 0.150 0.200
v -0.154035 0.387379 0.119998 0.600 0.150 0.200
v -0.170066 0.387379 0.139103 0.600 0.150 0.200
v -0.170066 0.387379 0.164044 0.600 0.150 0.200
v -0.154035 0.387379 0.183149 0.600 0.150 0.200
v -0.129473 0.387379 0.187480 0.600 0.150 0.200
v -0.107874 0.387379 0.175010 0.600 0.150 0.200
v -0.076811 0.334653 0.151574 0.600 0.150 0.200
v -0.090613 0.334653 0.113653 0.600 0.150 0.200
v -0.125560 0.334653 0.093476 0.600 0.150 0.200
v -0.165302 0.334653 0.100483 0.600 0.150 0.200
v -0.191241 0.334653 0.131396 0.600 0.150 0.200
v -0.191241 0.334653 0.171751 0.600 0.150 0.200
v -0.165302 0.334653 0.202664 0.600 0.150 0.200
v -0.125560 0.334653 0.209671 0.600 0.150 0.200
v -0.090613 0.334653 0.189494 0.600 0.150 0.200
v -0.076811 0.269481 0.151574 0.600 0.150 0.200
v -0.090613 0.269481 0.113653 0.600 0.150 0.200
v -0.125560 0.269481 0.093476 0.600 0.150 0.200
v -0.165302 0.269481 0.100483 0.600 0.150 0.200
v -0.191241 0.269481 0.131396 0.600 0.150 0.200
v -0.191241 0.269481 0.171751 0.600 0.150 0.200
v -0.165302 0.269481 0.202664 0.600 0.150 0.200
v -0.125560 0.269481 0.209671 0.600 0.150 0.200
v -0.090613 0.269481 0.189494 0.600 0.150 0.200
v -0.099344 0.216755 0.151574 0.600 0.150 0.200
v -0.107874 0.216755 0.128137 0.600 0.150 0.200
v -0.129473 0.216755 0.115667 0.600 0.150 0.200
v -0.154035 0.216755 0.119998 0.600 0.150 0.200
v -0.170066 0.216755 0.139103 0.600 0.150 0.200
v -0.170066 0.216755 0.164044 0.600 0.150 0.200
v -0.154035 0.216755 0.183149 0.600 0.150 0.200
v -0.129473 0.216755 0.187480 0.600 0.150 0.200
v -0.107874 0.216755 0.175010 0.600 0.150 0.200
v -0.135805 0.196616 0.151574 0.600 0.150 0.200
v -0.135805 0.196616 0.151574 0.600 0.150 0.200
v -0.135805 0.196616 0.151574 0.600 0.150 0.200
v -0.135805 0.196616 0.151574 0.600 0.150 0.200
v -0.135805 0.196616 0.151574 0.600 0.150 0.200
v -0.135805 0.196616 0.151574 0.600 0.150 0.200
v -0.135805 0.196616 0.151574 0.600 0.150 0.200
v -0.135805 0.196616 0.151574 0.600 0.150 0.200
v -0.135805 0.196616 0.151574 0.600 0.150 0.200
f 741 751 742
f 741 750 751
f 742 752 743
f 742 751 752
f 743 753 744
f 743 752 753
f 744 754 745
f 744 753 754
f 745 755 746
f 745 754 755
f 746 756 747
f 746 755 756
f 747 757 748
f 747 756 757
f 748 758 749
f 748 757 758
f 749 750 741
f 749 758 750
f 750 760 751
f 750 759 760
f 751 761 752
f 751 760 761
f 752 762 753
f 752 761 762
f 753 763 754
f 753 762 763
f 754 764 755
f 754 763 764
f 755 765 756
f 755 764 765
f 756 766 757
f 756 765 766
f 757 767 758
f 757 766 767
f 758 759 750
f 758 767 759
f 759 769 760
f 759 768 769
f 760 770 761
f 760 769 770
f 761 771 762
f 761 770 771
f 762 772 763
f 762 771 772
f 763 773 764
f 763 772 773
f 764 774 765
f 764 773 774
f 765 775 766
f 765 774 775
f 766 776 767
f 766 775 776
f 767 768 759
f 767 776 768
f 768 778 769
f 768 777 778
f 769 779 770
f 769 778 779
f 770 780 771
f 770 779 780
f 771 781 772
f 771 780 781
f 772 782 773
f 772 781 782
f 773 783 774
f 773 782 783
f 774 784 775
f 774 783 784
f 775 785 776
f 775 784 785
f 776 777 768
f 776 785 777
f 777 787 778
f 777 786 787
f 778 788 779
f 778 787 788
f 779 789 780
f 779 788 789
f 780 790 781
f 780 789 790
f 781 791 782
f 781 790 791
f 782 792 783
f 782 791 792
f 783 793 784
f 783 792 793
f 784 794 785
f 784 793 794
f 785 786 777
f 785 794 786
v -0.083454 0.395112 0.153968 0.780 0.532 0.560
v -0.076876 0.402112 0.151574 0.780 0.532 0.560
v -0.070298 0.395112 0.149179 0.780 0.532 0.560
v -0.076876 0.388112 0.151574 0.780 0.532 0.560
v -0.097241 0.395112 0.116089 0.780 0.532 0.560
v -0.090663 0.402112 0.113695 0.780 0.532 0.560
v -0.084085 0.395112 0.111301 0.780 0.532 0.560
v -0.090663 0.388112 0.113695 0.780 0.532 0.560
f 795 796 800
f 795 800 799
f 796 797 801
f 796 801 800
f 797 798 802
f 797 802 801
f 798 795 799
f 798 799 802
v -0.094163 0.395112 0.119757 0.780 0.532 0.560
v -0.090663 0.402112 0.113695 0.780 0.532 0.560
v -0.087163 0.395112 0.107633 0.780 0.532 0.560
v -0.090663 0.388112 0.113695 0.780 0.532 0.560
v -0.129072 0.395112 0.099603 0.780 0.532 0.560
v -0.125572 0.402112 0.093540 0.780 0.532 0.560
v -0.122072 0.395112 0.087478 0.780 0.532 0.560
v -0.125572 0.388112 0.093540 0.780 0.532 0.560
f 803 804 808
f 803 808 807
f 804 805 809
f 804 809 808
f 805 806 810
f 805 810 809
f 806 803 807
f 806 807 810
v -0.124356 0.395112 0.100434 0.780 0.532 0.560
v -0.125572 0.402112 0.093540 0.780 0.532 0.560
v -0.126787 0.395112 0.086647 0.780 0.532 0.560
v -0.125572 0.388112 0.093540 0.780 0.532 0.560
v -0.164053 0.395112 0.107434 0.780 0.532 0.560
v -0.165269 0.402112 0.100540 0.780 0.532 0.560
v -0.166484 0.395112 0.093646 0.780 0.532 0.560
v -0.165269 0.388112 0.100540 0.780 0.532 0.560
f 811 812 816
f 811 816 815
f 812 813 817
f 812 817 816
f 813 814 818
f 813 818 817
f 814 811 815
f 814 815 818
v -0.159907 0.395112 0.105040 0.780 0.532 0.560
v -0.165269 0.402112 0.100540 0.780 0.532 0.560
v -0.170631 0.395112 0.096041 0.780 0.532 0.560
v -0.165269 0.388112 0.100540 0.780 0.532 0.560
v -0.185817 0.395112 0.135918 0.780 0.532 0.560
v -0.191179 0.402112 0.131419 0.780 0.532 0.560
v -0.196542 0.395112 0.126919 0.780 0.532 0.560
v -0.191179 0.388112 0.131419 0.780 0.532 0.560
f 819 820 824
f 819 824 823
f 820 821 825
f 820 825 824
f 821 822 826
f 821 826 825
f 822 819 823
f 822 823 826
v -0.184179 0.395112 0.131419 0.780 0.532 0.560
v -0.191179 0.402112 0.131419 0.780 0.532 0.560
v -0.198179 0.395112 0.131419 0.780 0.532 0.560
v -0.191179 0.388112 0.131419 0.780 0.532 0.560
v -0.184179 0.395112 0.171728 0.780 0.532 0.560
v -0.191179 0.402112 0.171728 0.780 0.532 0.560
v -0.198179 0.395112 0.171728 0.780 0.532 0.560
v -0.191179 0.388112 0.171728 0.780 0.532 0.560
f 827 828 832
f 827 832 831
f 828 829 833
f 828 833 832
f 829 830 834
f 829 834 833
f 830 827 831
f 830 831 834
v -0.185817 0.395112 0.167229 0.780 0.532 0.560
v -0.191179 0.402112 0.171728 0.780 0.532 0.560
v -0.196542 0.395112 0.176228 0.780 0.532 0.560
v -0.191179 0.388112 0.171728 0.780 0.532 0.560
v -0.159907 0.395112 0.198108 0.780 0.532 0.560
v -0.165269 0.402112 0.202607 0.780 0.532 0.560
v -0.170631 0.395112 0.207107 0.780 0.532 0.560
v -0.165269 0.388112 0.202607 0.780 0.532 0.560
f 835 836 840
f 835 840 839
f 836 837 841
f 836 841 840
f 837 838 842
f 837 842 841
f 838 835 839
f 838 839 842
v -0.164053 0.395112 0.195714 0.780 0.532 0.560
v -0.165269 0.402112 0.202607 0.780 0.532 0.560
v -0.166484 0.395112 0.209501 0.780 0.532 0.560
v -0.165269 0.388112 0.202607 0.780 0.532 0.560
v -0.124356 0.395112 0.202713 0.780 0.532 0.560
v -0.125572 0.402112 0.209607 0.780 0.532 0.560
v -0.126787 0.395112 0.216501 0.780 0.532 0.560
v -0.125572 0.388112 0.209607 0.780 0.532 0.560
f 843 844 848
f 843 848 847
f 844 845 849
f 844 849 848
f 845 846 850
f 845 850 849
f 846 843 847
f 846 847 850
v -0.129072 0.395112 0.203545 0.780 0.532 0.560
v -0.125572 0.402112 0.209607 0.780 0.532 0.560
v -0.122072 0.395112 0.215669 0.780 0.532 0.560
v -0.125572 0.388112 0.209607 0.780 0.532 0.560
v -0.094163 0.395112 0.183390 0.780 0.532 0.560
v -0.090663 0.402112 0.189452 0.780 0.532 0.560
v -0.087163 0.395112 0.195514 0.780 0.532 0.560
v -0.090663 0.388112 0.189452 0.780 0.532 0.560
f 851 852 856
f 851 856 855
f 852 853 857
f 852 857 856
f 853 854 858
f 853 858 857
f 854 851 855
f 854 855 858
v -0.097241 0.395112 0.187058 0.780 0.532 0.560
v -0.090663 0.402112 0.189452 0.780 0.532 0.560
v -0.084085 0.395112 0.191846 0.780 0.532 0.560
v -0.090663 0.388112 0.189452 0.780 0.532 0.560
v -0.083454 0.395112 0.149179 0.780 0.532 0.560
v -0.076876 0.402112 0.151574 0.780 0.532 0.560
v -0.070298 0.395112 0.153968 0.780 0.532 0.560
v -0.076876 0.388112 0.151574 0.780 0.532 0.560
f 859 860 864
f 859 864 863
f 860 861 865
f 860 865 864
f 861 862 866
f 861 866 865
f 862 859 863
f 862 863 866
v -0.146848 0.395112 0.187115 0.450 0.112 0.150
v -0.153628 0.391061 0.201700 0.450 0.112 0.150
v -0.158078 0.387010 0.208783 0.450 0.112 0.150
v -0.162006 0.382959 0.214191 0.450 0.112 0.150
v -0.165613 0.378908 0.218561 0.450 0.112 0.150
v -0.168970 0.374857 0.222130 0.450 0.112 0.150
v -0.172113 0.370806 0.225008 0.450 0.112 0.150
v -0.175060 0.366755 0.227255 0.450 0.112 0.150
v -0.177820 0.362705 0.228902 0.450 0.112 0.150
v -0.180399 0.358654 0.229967 0.450 0.112 0.150
v -0.182801 0.354603 0.230461 0.450 0.112 0.150
v -0.185027 0.350552 0.230387 0.450 0.112 0.150
v -0.187077 0.346501 0.229750 0.450 0.112 0.150
v -0.188953 0.342450 0.228549 0.450 0.112 0.150
v -0.190652 0.338399 0.226781 0.450 0.112 0.150
v -0.192174 0.334348 0.224442 0.450 0.112 0.150
v -0.193514 0.330297 0.221521 0.450 0.112 0.150
v -0.194669 0.326246 0.218000 0.450 0.112 0.150
v -0.195627 0.322195 0.213847 0.450 0.112 0.150
v -0.196371 0.318144 0.209004 0.450 0.112 0.150
v -0.196865 0.314093 0.203360 0.450 0.112 0.150
v -0.197038 0.310043 0.196678 0.450 0.112 0.150
v -0.196689 0.305992 0.188320 0.450 0.112 0.150
v -0.194010 0.301941 0.172461 0.450 0.112 0.150
v -0.187230 0.305992 0.157877 0.450 0.112 0.150
v -0.182781 0.310043 0.150794 0.450 0.112 0.150
v -0.178852 0.314093 0.145386 0.450 0.112 0.150
v -0.175246 0.318144 0.141016 0.450 0.112 0.150
v -0.171888 0.322195 0.137447 0.450 0.112 0.150
v -0.168746 0.326246 0.134568 0.450 0.112 0.150
v -0.165799 0.330297 0.132322 0.450 0.112 0.150
v -0.163039 0.334348 0.130675 0.450 0.112 0.150
v -0.160459 0.338399 0.129610 0.450 0.112 0.150
v -0.158057 0.342450 0.129116 0.450 0.112 0.150
v -0.155832 0.346501 0.129189 0.450 0.112 0.150
v -0.153781 0.350552 0.129826 0.450 0.112 0.150
v -0.151906 0.354603 0.131028 0.450 0.112 0.150
v -0.150207 0.358654 0.132795 0.450 0.112 0.150
v -0.148685 0.362705 0.135135 0.450 0.112 0.150
v -0.147344 0.366755 0.138056 0.450 0.112 0.150
v -0.146190 0.370806 0.141577 0.450 0.112 0.150
v -0.145231 0.374857 0.145730 0.450 0.112 0.150
v -0.144488 0.378908 0.150573 0.450 0.112 0.150
v -0.143993 0.382959 0.156217 0.450 0.112 0.150
v -0.143821 0.387010 0.162899 0.450 0.112 0.150
v -0.144169 0.391061 0.171257 0.450 0.112 0.150
f 867 868 869
f 867 869 868
f 867 869 870
f 867 870 869
f 867 870 871
f 867 871 870
f 867 871 872
f 867 872 871
f 867 872 873
f 867 873 872
f 867 873 874
f 867 874 873
f 867 874 875
f 867 875 874
f 867 875 876
f 867 876 875
f 867 876 877
f 867 877 876
f 867 877 878
f 867 878 877
f 867 878 879
f 867 879 878
f 867 879 880
f 867 880 879
f 867 880 881
f 867 881 880
f 867 881 882
f 867 882 881
f 867 882 883
f 867 883 882
f 867 883 884
f 867 884 883
f 867 884 885
f 867 885 884
f 867 885 886
f 867 886 885
f 867 886 887
f 867 887 886
f 867 887 888
f 867 888 887
f 867 888 889
f 867 889 888
f 867 889 890
f 867 890 889
f 867 890 891
f 867 891 890
f 867 891 892
f 867 892 891
f 867 892 893
f 867 893 892
f 867 893 894
f 867 894 893
f 867 894 895
f 867 895 894
f 867 895 896
f 867 896 895
f 867 896 897
f 867 897 896
f 867 897 898
f 867 898 897
f 867 898 899
f 867 899 898
f 867 899 900
f 867 900 899
f 867 900 901
f 867 901 900
f 867 901 902
f 867 902 901
f 867 902 903
f 867 903 902
f 867 903 904
f 867 904 903
f 867 904 905
f 867 905 904
f 867 905 906
f 867 906 905
f 867 906 907
f 867 907 906
f 867 907 908
f 867 908 907
f 867 908 909
f 867 909 908
f 867 909 910
f 867 910 909
f 867 910 911
f 867 911 910
f 867 911 912
f 867 912 911
