o mesh
v -3.376090 1.750000 -1.251152
v -3.391424 1.770000 -1.238312
v -3.406758 1.750000 -1.225472
v -3.391424 1.730000 -1.238312
v -2.573145 1.750000 -0.292247
v -2.588479 1.770000 -0.279406
v -2.603813 1.750000 -0.266566
v -2.588479 1.730000 -0.279406
f 1 2 6
f 1 6 5
f 2 3 7
f 2 7 6
f 3 4 8
f 3 8 7
f 4 1 5
f 4 5 8
v -2.573145 1.750000 -0.292247
v -2.588479 1.770000 -0.279406
v -2.603813 1.750000 -0.266566
v -2.588479 1.730000 -0.279406
v -1.770199 1.750000 0.666659
v -1.785533 1.770000 0.679499
v -1.800868 1.750000 0.692339
v -1.785533 1.730000 0.679499
f 9 10 14
f 9 14 13
f 10 11 15
f 10 15 14
f 11 12 16
f 11 16 15
f 12 9 13
f 12 13 16
v -1.785533 2.494723 0.714099
v -1.750809 2.495666 0.678838
v -1.785533 2.505277 0.644899
v -1.820258 2.504334 0.680160
v -1.754973 2.734032 0.750595
v -1.720249 2.734975 0.715334
v -1.754973 2.744586 0.681395
v -1.789698 2.743642 0.716656
f 17 18 22
f 17 22 21
f 18 19 23
f 18 23 22
f 19 20 24
f 19 24 23
f 20 17 21
f 20 21 24
v -1.728139 2.739309 0.693525
v -1.773656 2.758754 0.693683
v -1.781808 2.739309 0.738465
v -1.736290 2.719864 0.738307
v -1.641110 2.942185 0.797457
v -1.686628 2.961630 0.797615
v -1.694779 2.942185 0.842398
v -1.649262 2.922740 0.842240
f 25 26 30
f 25 30 29
f 26 27 31
f 26 31 30
f 27 28 32
f 27 32 31
f 28 25 29
f 28 29 32
v -1.641110 2.942185 0.797457
v -1.680429 2.971286 0.805019
v -1.694779 2.942185 0.842398
v -1.655461 2.913084 0.834836
v -1.510863 3.077743 0.953003
v -1.550181 3.106844 0.960565
v -1.564532 3.077743 0.997943
v -1.525214 3.048641 0.990382
f 33 34 38
f 33 38 37
f 34 35 39
f 34 39 38
f 35 36 40
f 35 40 39
f 36 33 37
f 36 37 40
v -1.510863 3.077743 0.953003
v -1.542081 3.112070 0.970238
v -1.564532 3.077743 0.997943
v -1.533314 3.043415 0.980708
v -1.357226 3.125344 1.136482
v -1.388445 3.159672 1.153717
v -1.410895 3.125344 1.181422
v -1.379677 3.091017 1.164187
f 41 42 46
f 41 46 45
f 42 43 47
f 42 47 46
f 43 44 48
f 43 48 47
f 44 41 45
f 44 45 48
v -1.357226 3.125344 1.136482
v -1.379677 3.159672 1.164187
v -1.410895 3.125344 1.181422
v -1.388445 3.091017 1.153717
v -1.203589 3.077743 1.319960
v -1.226040 3.112070 1.347665
v -1.257258 3.077743 1.364900
v -1.234808 3.043415 1.337195
f 49 50 54
f 49 54 53
f 50 51 55
f 50 55 54
f 51 52 56
f 51 56 55
f 52 49 53
f 52 53 56
v -1.203589 3.077743 1.319960
v -1.217940 3.106844 1.357339
v -1.257258 3.077743 1.364900
v -1.242908 3.048641 1.327522
v -1.073342 2.942185 1.475506
v -1.087693 2.971286 1.512884
v -1.127011 2.942185 1.520446
v -1.112661 2.913084 1.483067
f 57 58 62
f 57 62 61
f 58 59 63
f 58 63 62
f 59 60 64
f 59 64 63
f 60 57 61
f 60 61 64
v -1.073342 2.942185 1.475506
v -1.081494 2.961630 1.520288
v -1.127011 2.942185 1.520446
v -1.118860 2.922740 1.475664
v -0.986314 2.739309 1.579438
v -0.994465 2.758754 1.624220
v -1.039983 2.739309 1.624378
v -1.031832 2.719864 1.579596
f 65 66 70
f 65 70 69
f 66 67 71
f 66 71 70
f 67 68 72
f 67 72 71
f 68 65 69
f 68 69 72
v -1.013148 2.734032 1.567308
v -0.978424 2.743642 1.601247
v -1.013148 2.744586 1.636508
v -1.047873 2.734975 1.602569
v -0.982588 2.494723 1.603804
v -0.947864 2.504334 1.637744
v -0.982588 2.505277 1.673004
v -1.017313 2.495666 1.639065
f 73 74 78
f 73 78 77
f 74 75 79
f 74 79 78
f 75 76 80
f 75 80 79
f 76 73 77
f 76 77 80
v -1.384061 2.500000 1.178952
v -1.364061 2.500000 1.158952
v -1.384061 2.500000 1.138952
v -1.404061 2.500000 1.158952
v -1.384061 3.125344 1.178952
v -1.364061 3.125344 1.158952
v -1.384061 3.125344 1.138952
v -1.404061 3.125344 1.158952
f 81 82 86
f 81 86 85
f 82 83 87
f 82 87 86
f 83 84 88
f 83 88 87
f 84 81 85
f 84 85 88
v -0.967254 1.750000 1.625564
v -0.982588 1.770000 1.638404
v -0.997922 1.750000 1.651244
v -0.982588 1.730000 1.638404
v -0.164309 1.750000 2.584470
v -0.179643 1.770000 2.597310
v -0.194977 1.750000 2.610150
v -0.179643 1.730000 2.597310
f 89 90 94
f 89 94 93
f 90 91 95
f 90 95 94
f 91 92 96
f 91 96 95
f 92 89 93
f 92 93 96
v -0.164309 1.750000 2.584470
v -0.179643 1.770000 2.597310
v -0.194977 1.750000 2.610150
v -0.179643 1.730000 2.597310
v 0.638636 1.750000 3.543375
v 0.623302 1.770000 3.556215
v 0.607968 1.750000 3.569055
v 0.623302 1.730000 3.556215
f 97 98 102
f 97 102 101
f 98 99 103
f 98 103 102
f 99 100 104
f 99 104 103
f 100 97 101
f 100 101 104
v -3.391424 0.000000 -1.178312
v -3.331424 0.000000 -1.238312
v -3.391424 0.000000 -1.298312
v -3.451424 0.000000 -1.238312
v -3.391424 2.600000 -1.178312
v -3.331424 2.600000 -1.238312
v -3.391424 2.600000 -1.298312
v -3.451424 2.600000 -1.238312
f 105 106 110
f 105 110 109
f 106 107 111
f 106 111 110
f 107 108 112
f 107 112 111
f 108 105 109
f 108 109 112
v -2.588479 0.000000 -0.239406
v -2.548479 0.000000 -0.279406
v -2.588479 0.000000 -0.319406
v -2.628479 0.000000 -0.279406
v -2.588479 2.600000 -0.239406
v -2.548479 2.600000 -0.279406
v -2.588479 2.600000 -0.319406
v -2.628479 2.600000 -0.279406
f 113 114 118
f 113 118 117
f 114 115 119
f 114 119 118
f 115 116 120
f 115 120 119
f 116 113 117
f 116 117 120
v -1.785533 0.000000 0.719499
v -1.745533 0.000000 0.679499
v -1.785533 0.000000 0.639499
v -1.825533 0.000000 0.679499
v -1.785533 2.600000 0.719499
v -1.745533 2.600000 0.679499
v -1.785533 2.600000 0.639499
v -1.825533 2.600000 0.679499
f 121 122 126
f 121 126 125
f 122 123 127
f 122 127 126
f 123 124 128
f 123 128 127
f 124 121 125
f 124 125 128
v -0.982588 0.000000 1.678404
v -0.942588 0.000000 1.638404
v -0.982588 0.000000 1.598404
v -1.022588 0.000000 1.638404
v -0.982588 2.600000 1.678404
v -0.942588 2.600000 1.638404
v -0.982588 2.600000 1.598404
v -1.022588 2.600000 1.638404
f 129 130 134
f 129 134 133
f 130 131 135
f 130 135 134
f 131 132 136
f 131 136 135
f 132 129 133
f 132 133 136
v -0.179643 0.000000 2.637310
v -0.139643 0.000000 2.597310
v -0.179643 0.000000 2.557310
v -0.219643 0.000000 2.597310
v -0.179643 2.600000 2.637310
v -0.139643 2.600000 2.597310
v -0.179643 2.600000 2.557310
v -0.219643 2.600000 2.597310
f 137 138 142
f 137 142 141
f 138 139 143
f 138 143 142
f 139 140 144
f 139 144 143
f 140 137 141
f 140 141 144
v 0.623302 0.000000 3.616215
v 0.683302 0.000000 3.556215
v 0.623302 0.000000 3.496215
v 0.563302 0.000000 3.556215
v 0.623302 2.600000 3.616215
v 0.683302 2.600000 3.556215
v 0.623302 2.600000 3.496215
v 0.563302 2.600000 3.556215
f 145 146 150
f 145 150 149
f 146 147 151
f 146 151 150
f 147 148 152
f 147 152 151
f 148 145 149
f 148 149 152
v -3.345422 2.600000 -1.276832
v -3.391424 2.660000 -1.238312
v -3.437426 2.600000 -1.199792
v -3.391424 2.540000 -1.238312
v 0.669305 2.600000 3.517695
v 0.623302 2.660000 3.556215
v 0.577300 2.600000 3.594736
v 0.623302 2.540000 3.556215
f 153 154 158
f 153 158 157
f 154 155 159
f 154 159 158
f 155 156 160
f 155 160 159
f 156 153 157
f 156 157 160
v -3.353089 0.900000 -1.270412
v -3.391424 0.950000 -1.238312
v -3.429759 0.900000 -1.206212
v -3.391424 0.850000 -1.238312
v 0.661638 0.900000 3.524115
v 0.623302 0.950000 3.556215
v 0.584967 0.900000 3.588316
v 0.623302 0.850000 3.556215
f 161 162 166
f 161 166 165
f 162 163 167
f 162 167 166
f 163 164 168
f 163 168 167
f 164 161 165
f 164 165 168
v 0.604516 1.750000 3.549356
v 0.623302 1.770000 3.556215
v 0.642089 1.750000 3.563075
v 0.623302 1.730000 3.556215
v 1.033479 1.750000 2.374532
v 1.052266 1.770000 2.381392
v 1.071053 1.750000 2.388251
v 1.052266 1.730000 2.381392
f 169 170 174
f 169 174 173
f 170 171 175
f 170 175 174
f 171 172 176
f 171 176 175
f 172 169 173
f 172 173 176
v 1.033479 1.750000 2.374532
v 1.052266 1.770000 2.381392
v 1.071053 1.750000 2.388251
v 1.052266 1.730000 2.381392
v 1.462443 1.750000 1.199708
v 1.481230 1.770000 1.206568
v 1.500017 1.750000 1.213428
v 1.481230 1.730000 1.206568
f 177 178 182
f 177 182 181
f 178 179 183
f 178 183 182
f 179 180 184
f 179 184 183
f 180 177 181
f 180 181 184
v 1.462443 1.750000 1.199708
v 1.481230 1.770000 1.206568
v 1.500017 1.750000 1.213428
v 1.481230 1.730000 1.206568
v 1.891407 1.750000 0.024884
v 1.910194 1.770000 0.031744
v 1.928981 1.750000 0.038604
v 1.910194 1.730000 0.031744
f 185 186 190
f 185 190 189
f 186 187 191
f 186 191 190
f 187 188 192
f 187 192 191
f 188 185 189
f 188 189 192
v 1.891407 1.750000 0.024884
v 1.910194 1.770000 0.031744
v 1.928981 1.750000 0.038604
v 1.910194 1.730000 0.031744
v 2.320371 1.750000 -1.149939
v 2.339158 1.770000 -1.143080
v 2.357945 1.750000 -1.136220
v 2.339158 1.730000 -1.143080
f 193 194 198
f 193 198 197
f 194 195 199
f 194 199 198
f 195 196 200
f 195 200 199
f 196 193 197
f 196 197 200
v 2.320371 1.750000 -1.149939
v 2.339158 1.770000 -1.143080
v 2.357945 1.750000 -1.136220
v 2.339158 1.730000 -1.143080
v 2.749335 1.750000 -2.324763
v 2.768122 1.770000 -2.317903
v 2.786908 1.750000 -2.311044
v 2.768122 1.730000 -2.317903
f 201 202 206
f 201 206 205
f 202 203 207
f 202 207 206
f 203 204 208
f 203 208 207
f 204 201 205
f 204 205 208
v 0.623302 0.000000 3.616215
v 0.683302 0.000000 3.556215
v 0.623302 0.000000 3.496215
v 0.563302 0.000000 3.556215
v 0.623302 2.600000 3.616215
v 0.683302 2.600000 3.556215
v 0.623302 2.600000 3.496215
v 0.563302 2.600000 3.556215
f 209 210 214
f 209 214 213
f 210 211 215
f 210 215 214
f 211 212 216
f 211 216 215
f 212 209 213
f 212 213 216
v 1.052266 0.000000 2.421392
v 1.092266 0.000000 2.381392
v 1.052266 0.000000 2.341392
v 1.012266 0.000000 2.381392
v 1.052266 2.600000 2.421392
v 1.092266 2.600000 2.381392
v 1.052266 2.600000 2.341392
v 1.012266 2.600000 2.381392
f 217 218 222
f 217 222 221
f 218 219 223
f 218 223 222
f 219 220 224
f 219 224 223
f 220 217 221
f 220 221 224
v 1.481230 0.000000 1.246568
v 1.521230 0.000000 1.206568
v 1.481230 0.000000 1.166568
v 1.441230 0.000000 1.206568
v 1.481230 2.600000 1.246568
v 1.521230 2.600000 1.206568
v 1.481230 2.600000 1.166568
v 1.441230 2.600000 1.206568
f 225 226 230
f 225 230 229
f 226 227 231
f 226 231 230
f 227 228 232
f 227 232 231
f 228 225 229
f 228 229 232
v 2.339158 0.000000 -1.103080
v 2.379158 0.000000 -1.143080
v 2.339158 0.000000 -1.183080
v 2.299158 0.000000 -1.143080
v 2.339158 2.600000 -1.103080
v 2.379158 2.600000 -1.143080
v 2.339158 2.600000 -1.183080
v 2.299158 2.600000 -1.143080
f 233 234 238
f 233 238 237
f 234 235 239
f 234 239 238
f 235 236 240
f 235 240 239
f 236 233 237
f 236 237 240
v 2.768122 0.000000 -2.257903
v 2.828122 0.000000 -2.317903
v 2.768122 0.000000 -2.377903
v 2.708122 0.000000 -2.317903
v 2.768122 2.600000 -2.257903
v 2.828122 2.600000 -2.317903
v 2.768122 2.600000 -2.377903
v 2.708122 2.600000 -2.317903
f 241 242 246
f 241 246 245
f 242 243 247
f 242 247 246
f 243 244 248
f 243 248 247
f 244 241 245
f 244 245 248
v 0.566942 2.600000 3.535636
v 0.623302 2.660000 3.556215
v 0.679663 2.600000 3.576794
v 0.623302 2.540000 3.556215
v 2.711761 2.600000 -2.338482
v 2.768122 2.660000 -2.317903
v 2.824482 2.600000 -2.297324
v 2.768122 2.540000 -2.317903
f 249 250 254
f 249 254 253
f 250 251 255
f 250 255 254
f 251 252 256
f 251 256 255
f 252 249 253
f 252 253 256
v 0.576335 0.900000 3.539066
v 0.623302 0.950000 3.556215
v 0.670270 0.900000 3.573364
v 0.623302 0.850000 3.556215
v 2.721155 0.900000 -2.335053
v 2.768122 0.950000 -2.317903
v 2.815089 0.900000 -2.300754
v 2.768122 0.850000 -2.317903
f 257 258 262
f 257 262 261
f 258 259 263
f 258 263 262
f 259 260 264
f 259 264 263
f 260 257 261
f 260 261 264
v 2.771574 1.750000 -2.298204
v 2.768122 1.770000 -2.317903
v 2.764669 1.750000 -2.337603
v 2.768122 1.730000 -2.317903
v 1.539665 1.750000 -2.082285
v 1.536213 1.770000 -2.101985
v 1.532760 1.750000 -2.121685
v 1.536213 1.730000 -2.101985
f 265 266 270
f 265 270 269
f 266 267 271
f 266 271 270
f 267 268 272
f 267 272 271
f 268 265 269
f 268 269 272
v 1.539665 1.750000 -2.082285
v 1.536213 1.770000 -2.101985
v 1.532760 1.750000 -2.121685
v 1.536213 1.730000 -2.101985
v 0.307756 1.750000 -1.866367
v 0.304303 1.770000 -1.886067
v 0.300851 1.750000 -1.905767
v 0.304303 1.730000 -1.886067
f 273 274 278
f 273 278 277
f 274 275 279
f 274 279 278
f 275 276 280
f 275 280 279
f 276 273 277
f 276 277 280
v 0.307756 1.750000 -1.866367
v 0.304303 1.770000 -1.886067
v 0.300851 1.750000 -1.905767
v 0.304303 1.730000 -1.886067
v -0.924153 1.750000 -1.650449
v -0.927606 1.770000 -1.670149
v -0.931059 1.750000 -1.689848
v -0.927606 1.730000 -1.670149
f 281 282 286
f 281 286 285
f 282 283 287
f 282 287 286
f 283 284 288
f 283 288 287
f 284 281 285
f 284 285 288
v -0.924153 1.750000 -1.650449
v -0.927606 1.770000 -1.670149
v -0.931059 1.750000 -1.689848
v -0.927606 1.730000 -1.670149
v -2.156062 1.750000 -1.434531
v -2.159515 1.770000 -1.454230
v -2.162968 1.750000 -1.473930
v -2.159515 1.730000 -1.454230
f 289 290 294
f 289 294 293
f 290 291 295
f 290 295 294
f 291 292 296
f 291 296 295
f 292 289 293
f 292 293 296
v -2.156062 1.750000 -1.434531
v -2.159515 1.770000 -1.454230
v -2.162968 1.750000 -1.473930
v -2.159515 1.730000 -1.454230
v -3.387971 1.750000 -1.218612
v -3.391424 1.770000 -1.238312
v -3.394877 1.750000 -1.258012
v -3.391424 1.730000 -1.238312
f 297 298 302
f 297 302 301
f 298 299 303
f 298 303 302
f 299 300 304
f 299 304 303
f 300 297 301
f 300 301 304
v 2.768122 0.000000 -2.257903
v 2.828122 0.000000 -2.317903
v 2.768122 0.000000 -2.377903
v 2.708122 0.000000 -2.317903
v 2.768122 2.600000 -2.257903
v 2.828122 2.600000 -2.317903
v 2.768122 2.600000 -2.377903
v 2.708122 2.600000 -2.317903
f 305 306 310
f 305 310 309
f 306 307 311
f 306 311 310
f 307 308 312
f 307 312 311
f 308 305 309
f 308 309 312
v 1.536213 0.000000 -2.061985
v 1.576213 0.000000 -2.101985
v 1.536213 0.000000 -2.141985
v 1.496213 0.000000 -2.101985
v 1.536213 2.600000 -2.061985
v 1.576213 2.600000 -2.101985
v 1.536213 2.600000 -2.141985
v 1.496213 2.600000 -2.101985
f 313 314 318
f 313 318 317
f 314 315 319
f 314 319 318
f 315 316 320
f 315 320 319
f 316 313 317
f 316 317 320
v 0.304303 0.000000 -1.846067
v 0.344303 0.000000 -1.886067
v 0.304303 0.000000 -1.926067
v 0.264303 0.000000 -1.886067
v 0.304303 2.600000 -1.846067
v 0.344303 2.600000 -1.886067
v 0.304303 2.600000 -1.926067
v 0.264303 2.600000 -1.886067
f 321 322 326
f 321 326 325
f 322 323 327
f 322 327 326
f 323 324 328
f 323 328 327
f 324 321 325
f 324 325 328
v -0.927606 0.000000 -1.630149
v -0.887606 0.000000 -1.670149
v -0.927606 0.000000 -1.710149
v -0.967606 0.000000 -1.670149
v -0.927606 2.600000 -1.630149
v -0.887606 2.600000 -1.670149
v -0.927606 2.600000 -1.710149
v -0.967606 2.600000 -1.670149
f 329 330 334
f 329 334 333
f 330 331 335
f 330 335 334
f 331 332 336
f 331 336 335
f 332 329 333
f 332 333 336
v -2.159515 0.000000 -1.414230
v -2.119515 0.000000 -1.454230
v -2.159515 0.000000 -1.494230
v -2.199515 0.000000 -1.454230
v -2.159515 2.600000 -1.414230
v -2.119515 2.600000 -1.454230
v -2.159515 2.600000 -1.494230
v -2.199515 2.600000 -1.454230
f 337 338 342
f 337 342 341
f 338 339 343
f 338 343 342
f 339 340 344
f 339 344 343
f 340 337 341
f 340 341 344
v -3.391424 0.000000 -1.178312
v -3.331424 0.000000 -1.238312
v -3.391424 0.000000 -1.298312
v -3.451424 0.000000 -1.238312
v -3.391424 2.600000 -1.178312
v -3.331424 2.600000 -1.238312
v -3.391424 2.600000 -1.298312
v -3.451424 2.600000 -1.238312
f 345 346 350
f 345 350 349
f 346 347 351
f 346 351 350
f 347 348 352
f 347 352 351
f 348 345 349
f 348 349 352
v 2.778480 2.600000 -2.258804
v 2.768122 2.660000 -2.317903
v 2.757763 2.600000 -2.377003
v 2.768122 2.540000 -2.317903
v -3.381066 2.600000 -1.179213
v -3.391424 2.660000 -1.238312
v -3.401782 2.600000 -1.297411
v -3.391424 2.540000 -1.238312
f 353 354 358
f 353 358 357
f 354 355 359
f 354 359 358
f 355 356 360
f 355 360 359
f 356 353 357
f 356 357 360
v 2.776754 0.900000 -2.268654
v 2.768122 0.950000 -2.317903
v 2.759490 0.900000 -2.367153
v 2.768122 0.850000 -2.317903
v -3.382792 0.900000 -1.189063
v -3.391424 0.950000 -1.238312
v -3.400056 0.900000 -1.287561
v -3.391424 0.850000 -1.238312
f 361 362 366
f 361 366 365
f 362 363 367
f 362 367 366
f 363 364 368
f 363 368 367
f 364 361 365
f 364 365 368
v -3.360756 2.600000 -1.263992
v -3.391424 2.640000 -1.238312
v -3.422092 2.600000 -1.212632
v -3.391424 2.560000 -1.238312
v -2.557811 2.600000 -0.305087
v -2.588479 2.640000 -0.279406
v -2.619147 2.600000 -0.253726
v -2.588479 2.560000 -0.279406
f 369 370 374
f 369 374 373
f 370 371 375
f 370 375 374
f 371 372 376
f 371 376 375
f 372 369 373
f 372 373 376
v -2.557811 2.600000 -0.305087
v -2.588479 2.640000 -0.279406
v -2.619147 2.600000 -0.253726
v -2.588479 2.560000 -0.279406
v -1.754865 2.600000 0.653819
v -1.785533 2.640000 0.679499
v -1.816202 2.600000 0.705179
v -1.785533 2.560000 0.679499
f 377 378 382
f 377 382 381
f 378 379 383
f 378 383 382
f 379 380 384
f 379 384 383
f 380 377 381
f 380 381 384
v -1.754865 2.600000 0.653819
v -1.785533 2.640000 0.679499
v -1.816202 2.600000 0.705179
v -1.785533 2.560000 0.679499
v -0.951920 2.600000 1.612724
v -0.982588 2.640000 1.638404
v -1.013256 2.600000 1.664085
v -0.982588 2.560000 1.638404
f 385 386 390
f 385 390 389
f 386 387 391
f 386 391 390
f 387 388 392
f 387 392 391
f 388 385 389
f 388 389 392
v -0.951920 2.600000 1.612724
v -0.982588 2.640000 1.638404
v -1.013256 2.600000 1.664085
v -0.982588 2.560000 1.638404
v -0.148975 2.600000 2.571630
v -0.179643 2.640000 2.597310
v -0.210311 2.600000 2.622990
v -0.179643 2.560000 2.597310
f 393 394 398
f 393 398 397
f 394 395 399
f 394 399 398
f 395 396 400
f 395 400 399
f 396 393 397
f 396 397 400
v -0.148975 2.600000 2.571630
v -0.179643 2.640000 2.597310
v -0.210311 2.600000 2.622990
v -0.179643 2.560000 2.597310
v 0.653971 2.600000 3.530535
v 0.623302 2.640000 3.556215
v 0.592634 2.600000 3.581895
v 0.623302 2.560000 3.556215
f 401 402 406
f 401 406 405
f 402 403 407
f 402 407 406
f 403 404 408
f 403 408 407
f 404 401 405
f 404 405 408
v 0.585729 2.600000 3.542496
v 0.623302 2.640000 3.556215
v 0.660876 2.600000 3.569935
v 0.623302 2.560000 3.556215
v 1.014693 2.600000 2.367672
v 1.052266 2.640000 2.381392
v 1.089840 2.600000 2.395111
v 1.052266 2.560000 2.381392
f 409 410 414
f 409 414 413
f 410 411 415
f 410 415 414
f 411 412 416
f 411 416 415
f 412 409 413
f 412 413 416
v 1.014693 2.600000 2.367672
v 1.052266 2.640000 2.381392
v 1.089840 2.600000 2.395111
v 1.052266 2.560000 2.381392
v 1.443656 2.600000 1.192849
v 1.481230 2.640000 1.206568
v 1.518804 2.600000 1.220287
v 1.481230 2.560000 1.206568
f 417 418 422
f 417 422 421
f 418 419 423
f 418 423 422
f 419 420 424
f 419 424 423
f 420 417 421
f 420 421 424
v 1.443656 2.600000 1.192849
v 1.481230 2.640000 1.206568
v 1.518804 2.600000 1.220287
v 1.481230 2.560000 1.206568
v 1.872620 2.600000 0.018025
v 1.910194 2.640000 0.031744
v 1.947768 2.600000 0.045463
v 1.910194 2.560000 0.031744
f 425 426 430
f 425 430 429
f 426 427 431
f 426 431 430
f 427 428 432
f 427 432 431
f 428 425 429
f 428 429 432
v 1.872620 2.600000 0.018025
v 1.910194 2.640000 0.031744
v 1.947768 2.600000 0.045463
v 1.910194 2.560000 0.031744
v 2.301584 2.600000 -1.156799
v 2.339158 2.640000 -1.143080
v 2.376731 2.600000 -1.129360
v 2.339158 2.560000 -1.143080
f 433 434 438
f 433 438 437
f 434 435 439
f 434 439 438
f 435 436 440
f 435 440 439
f 436 433 437
f 436 437 440
v 2.301584 2.600000 -1.156799
v 2.339158 2.640000 -1.143080
v 2.376731 2.600000 -1.129360
v 2.339158 2.560000 -1.143080
v 2.730548 2.600000 -2.331623
v 2.768122 2.640000 -2.317903
v 2.805695 2.600000 -2.304184
v 2.768122 2.560000 -2.317903
f 441 442 446
f 441 446 445
f 442 443 447
f 442 447 446
f 443 444 448
f 443 448 447
f 444 441 445
f 444 445 448
v 1.543118 2.600000 -2.062586
v 1.536213 2.640000 -2.101985
v 1.529307 2.600000 -2.141385
v 1.536213 2.560000 -2.101985
v 0.311209 2.600000 -1.846667
v 0.304303 2.640000 -1.886067
v 0.297398 2.600000 -1.925466
v 0.304303 2.560000 -1.886067
f 449 450 454
f 449 454 453
f 450 451 455
f 450 455 454
f 451 452 456
f 451 456 455
f 452 449 453
f 452 453 456
v 0.311209 2.600000 -1.846667
v 0.304303 2.640000 -1.886067
v 0.297398 2.600000 -1.925466
v 0.304303 2.560000 -1.886067
v -0.920700 2.600000 -1.630749
v -0.927606 2.640000 -1.670149
v -0.934511 2.600000 -1.709548
v -0.927606 2.560000 -1.670149
f 457 458 462
f 457 462 461
f 458 459 463
f 458 463 462
f 459 460 464
f 459 464 463
f 460 457 461
f 460 461 464
v -0.920700 2.600000 -1.630749
v -0.927606 2.640000 -1.670149
v -0.934511 2.600000 -1.709548
v -0.927606 2.560000 -1.670149
v -2.152609 2.600000 -1.414831
v -2.159515 2.640000 -1.454230
v -2.166421 2.600000 -1.493630
v -2.159515 2.560000 -1.454230
f 465 466 470
f 465 470 469
f 466 467 471
f 466 471 470
f 467 468 472
f 467 472 471
f 468 465 469
f 468 469 472
v -2.152609 2.600000 -1.414831
v -2.159515 2.640000 -1.454230
v -2.166421 2.600000 -1.493630
v -2.159515 2.560000 -1.454230
v -3.384518 2.600000 -1.198913
v -3.391424 2.640000 -1.238312
v -3.398330 2.600000 -1.277711
v -3.391424 2.560000 -1.238312
f 473 474 478
f 473 478 477
f 474 475 479
f 474 479 478
f 475 476 480
f 475 480 479
f 476 473 477
f 476 477 480
v -3.123356 3.354579 -1.177310
v -3.154024 3.394579 -1.151630
v -3.184692 3.354579 -1.125950
v -3.154024 3.314579 -1.151630
v -2.376617 3.354579 -0.285528
v -2.407285 3.394579 -0.259848
v -2.437953 3.354579 -0.234168
v -2.407285 3.314579 -0.259848
f 481 482 486
f 481 486 485
f 482 483 487
f 482 487 486
f 483 484 488
f 483 488 487
f 484 481 485
f 484 485 488
v -2.376617 3.354579 -0.285528
v -2.407285 3.394579 -0.259848
v -2.437953 3.354579 -0.234168
v -2.407285 3.314579 -0.259848
v -1.629878 3.354579 0.606254
v -1.660546 3.394579 0.631934
v -1.691214 3.354579 0.657614
v -1.660546 3.314579 0.631934
f 489 490 494
f 489 494 493
f 490 491 495
f 490 495 494
f 491 492 496
f 491 496 495
f 492 489 493
f 492 493 496
v -0.883139 3.354579 1.498036
v -0.913807 3.394579 1.523716
v -0.944475 3.354579 1.549396
v -0.913807 3.314579 1.523716
v -0.136400 3.354579 2.389818
v -0.167068 3.394579 2.415498
v -0.197736 3.354579 2.441178
v -0.167068 3.314579 2.415498
f 497 498 502
f 497 502 501
f 498 499 503
f 498 503 502
f 499 500 504
f 499 504 503
f 500 497 501
f 500 501 504
v -0.136400 3.354579 2.389818
v -0.167068 3.394579 2.415498
v -0.197736 3.354579 2.441178
v -0.167068 3.314579 2.415498
v 0.610339 3.354579 3.281600
v 0.579671 3.394579 3.307280
v 0.549003 3.354579 3.332960
v 0.579671 3.314579 3.307280
f 505 506 510
f 505 510 509
f 506 507 511
f 506 511 510
f 507 508 512
f 507 512 511
f 508 505 509
f 508 509 512
v 0.542098 3.354579 3.293561
v 0.579671 3.394579 3.307280
v 0.617245 3.354579 3.321000
v 0.579671 3.314579 3.307280
v 0.941034 3.354579 2.200975
v 0.978608 3.394579 2.214694
v 1.016181 3.354579 2.228413
v 0.978608 3.314579 2.214694
f 513 514 518
f 513 518 517
f 514 515 519
f 514 519 518
f 515 516 520
f 515 520 519
f 516 513 517
f 516 517 520
v 0.941034 3.354579 2.200975
v 0.978608 3.394579 2.214694
v 1.016181 3.354579 2.228413
v 0.978608 3.314579 2.214694
v 1.339970 3.354579 1.108389
v 1.377544 3.394579 1.122108
v 1.415118 3.354579 1.135827
v 1.377544 3.314579 1.122108
f 521 522 526
f 521 526 525
f 522 523 527
f 522 527 526
f 523 524 528
f 523 528 527
f 524 521 525
f 524 525 528
v 1.339970 3.354579 1.108389
v 1.377544 3.394579 1.122108
v 1.415118 3.354579 1.135827
v 1.377544 3.314579 1.122108
v 1.738907 3.354579 0.015803
v 1.776480 3.394579 0.029522
v 1.814054 3.354579 0.043241
v 1.776480 3.314579 0.029522
f 529 530 534
f 529 534 533
f 530 531 535
f 530 535 534
f 531 532 536
f 531 536 535
f 532 529 533
f 532 533 536
v 1.738907 3.354579 0.015803
v 1.776480 3.394579 0.029522
v 1.814054 3.354579 0.043241
v 1.776480 3.314579 0.029522
v 2.137843 3.354579 -1.076783
v 2.175417 3.394579 -1.063064
v 2.212990 3.354579 -1.049345
v 2.175417 3.314579 -1.063064
f 537 538 542
f 537 542 541
f 538 539 543
f 538 543 542
f 539 540 544
f 539 544 543
f 540 537 541
f 540 541 544
v 2.137843 3.354579 -1.076783
v 2.175417 3.394579 -1.063064
v 2.212990 3.354579 -1.049345
v 2.175417 3.314579 -1.063064
v 2.536779 3.354579 -2.169369
v 2.574353 3.394579 -2.155650
v 2.611927 3.354579 -2.141931
v 2.574353 3.314579 -2.155650
f 545 546 550
f 545 550 549
f 546 547 551
f 546 551 550
f 547 548 552
f 547 552 551
f 548 545 549
f 548 549 552
v 2.581259 3.354579 -2.116251
v 2.574353 3.394579 -2.155650
v 2.567448 3.354579 -2.195050
v 2.574353 3.314579 -2.155650
v 1.435583 3.354579 -1.915447
v 1.428678 3.394579 -1.954846
v 1.421772 3.354579 -1.994246
v 1.428678 3.314579 -1.954846
f 553 554 558
f 553 558 557
f 554 555 559
f 554 559 558
f 555 556 560
f 555 560 559
f 556 553 557
f 556 557 560
v 0.289908 3.354579 -1.714643
v 0.283002 3.394579 -1.754042
v 0.276097 3.354579 -1.793442
v 0.283002 3.314579 -1.754042
v -0.855768 3.354579 -1.513839
v -0.862673 3.394579 -1.553238
v -0.869579 3.354579 -1.592638
v -0.862673 3.314579 -1.553238
f 561 562 566
f 561 566 565
f 562 563 567
f 562 567 566
f 563 564 568
f 563 568 567
f 564 561 565
f 564 565 568
v -0.855768 3.354579 -1.513839
v -0.862673 3.394579 -1.553238
v -0.869579 3.354579 -1.592638
v -0.862673 3.314579 -1.553238
v -2.001443 3.354579 -1.313035
v -2.008349 3.394579 -1.352434
v -2.015254 3.354579 -1.391834
v -2.008349 3.314579 -1.352434
f 569 570 574
f 569 574 573
f 570 571 575
f 570 575 574
f 571 572 576
f 571 576 575
f 572 569 573
f 572 573 576
v -2.001443 3.354579 -1.313035
v -2.008349 3.394579 -1.352434
v -2.015254 3.354579 -1.391834
v -2.008349 3.314579 -1.352434
v -3.147119 3.354579 -1.112231
v -3.154024 3.394579 -1.151630
v -3.160930 3.354579 -1.191030
v -3.154024 3.314579 -1.151630
f 577 578 582
f 577 582 581
f 578 579 583
f 578 583 582
f 579 580 584
f 579 584 583
f 580 577 581
f 580 581 584
v -2.614643 4.029729 -0.991563
v -2.645311 4.069729 -0.965883
v -2.675979 4.029729 -0.940203
v -2.645311 3.989729 -0.965883
v -1.988345 4.029729 -0.243617
v -2.019013 4.069729 -0.217937
v -2.049682 4.029729 -0.192257
v -2.019013 3.989729 -0.217937
f 585 586 590
f 585 590 589
f 586 587 591
f 586 591 590
f 587 588 592
f 587 592 591
f 588 585 589
f 588 589 592
v -1.988345 4.029729 -0.243617
v -2.019013 4.069729 -0.217937
v -2.049682 4.029729 -0.192257
v -2.019013 3.989729 -0.217937
v -1.362048 4.029729 0.504329
v -1.392716 4.069729 0.530009
v -1.423384 4.029729 0.555689
v -1.392716 3.989729 0.530009
f 593 594 598
f 593 598 597
f 594 595 599
f 594 599 598
f 595 596 600
f 595 600 599
f 596 593 597
f 596 597 600
v -1.362048 4.029729 0.504329
v -1.392716 4.069729 0.530009
v -1.423384 4.029729 0.555689
v -1.392716 3.989729 0.530009
v -0.735751 4.029729 1.252275
v -0.766419 4.069729 1.277955
v -0.797087 4.029729 1.303636
v -0.766419 3.989729 1.277955
f 601 602 606
f 601 606 605
f 602 603 607
f 602 607 606
f 603 604 608
f 603 608 607
f 604 601 605
f 604 605 608
v -0.109453 4.029729 2.000222
v -0.140121 4.069729 2.025902
v -0.170790 4.029729 2.051582
v -0.140121 3.989729 2.025902
v 0.516844 4.029729 2.748168
v 0.486176 4.069729 2.773848
v 0.455508 4.029729 2.799528
v 0.486176 3.989729 2.773848
f 609 610 614
f 609 614 613
f 610 611 615
f 610 615 614
f 611 612 616
f 611 616 615
f 612 609 613
f 612 613 616
v 0.448602 4.029729 2.760129
v 0.486176 4.069729 2.773848
v 0.523750 4.029729 2.787567
v 0.486176 3.989729 2.773848
v 0.783194 4.029729 1.843766
v 0.820768 4.069729 1.857485
v 0.858341 4.029729 1.871205
v 0.820768 3.989729 1.857485
f 617 618 622
f 617 622 621
f 618 619 623
f 618 623 622
f 619 620 624
f 619 624 623
f 620 617 621
f 620 621 624
v 0.783194 4.029729 1.843766
v 0.820768 4.069729 1.857485
v 0.858341 4.029729 1.871205
v 0.820768 3.989729 1.857485
v 1.117786 4.029729 0.927404
v 1.155359 4.069729 0.941123
v 1.192933 4.029729 0.954842
v 1.155359 3.989729 0.941123
f 625 626 630
f 625 630 629
f 626 627 631
f 626 631 630
f 627 628 632
f 627 632 631
f 628 625 629
f 628 629 632
v 1.117786 4.029729 0.927404
v 1.155359 4.069729 0.941123
v 1.192933 4.029729 0.954842
v 1.155359 3.989729 0.941123
v 1.452378 4.029729 0.011041
v 1.489951 4.069729 0.024760
v 1.527525 4.029729 0.038480
v 1.489951 3.989729 0.024760
f 633 634 638
f 633 638 637
f 634 635 639
f 634 639 638
f 635 636 640
f 635 640 639
f 636 633 637
f 636 637 640
v 1.452378 4.029729 0.011041
v 1.489951 4.069729 0.024760
v 1.527525 4.029729 0.038480
v 1.489951 3.989729 0.024760
v 1.786969 4.029729 -0.905321
v 1.824543 4.069729 -0.891602
v 1.862117 4.029729 -0.877883
v 1.824543 3.989729 -0.891602
f 641 642 646
f 641 646 645
f 642 643 647
f 642 647 646
f 643 644 648
f 643 648 647
f 644 641 645
f 644 645 648
v 1.786969 4.029729 -0.905321
v 1.824543 4.069729 -0.891602
v 1.862117 4.029729 -0.877883
v 1.824543 3.989729 -0.891602
v 2.121561 4.029729 -1.821684
v 2.159135 4.069729 -1.807965
v 2.196709 4.029729 -1.794245
v 2.159135 3.989729 -1.807965
f 649 650 654
f 649 654 653
f 650 651 655
f 650 655 654
f 651 652 656
f 651 656 655
f 652 649 653
f 652 653 656
v 2.166040 4.029729 -1.768565
v 2.159135 4.069729 -1.807965
v 2.152229 4.029729 -1.847364
v 2.159135 3.989729 -1.807965
v 1.205151 4.029729 -1.600149
v 1.198246 4.069729 -1.639548
v 1.191340 4.029729 -1.678948
v 1.198246 3.989729 -1.639548
f 657 658 662
f 657 662 661
f 658 659 663
f 658 663 662
f 659 660 664
f 659 664 663
f 660 657 661
f 660 661 664
v 1.205151 4.029729 -1.600149
v 1.198246 4.069729 -1.639548
v 1.191340 4.029729 -1.678948
v 1.198246 3.989729 -1.639548
v 0.244262 4.029729 -1.431733
v 0.237357 4.069729 -1.471132
v 0.230451 4.029729 -1.510532
v 0.237357 3.989729 -1.471132
f 665 666 670
f 665 670 669
f 666 667 671
f 666 671 670
f 667 668 672
f 667 672 671
f 668 665 669
f 668 669 672
v 0.244262 4.029729 -1.431733
v 0.237357 4.069729 -1.471132
v 0.230451 4.029729 -1.510532
v 0.237357 3.989729 -1.471132
v -0.716627 4.029729 -1.263316
v -0.723533 4.069729 -1.302716
v -0.730438 4.029729 -1.342115
v -0.723533 3.989729 -1.302716
f 673 674 678
f 673 678 677
f 674 675 679
f 674 679 678
f 675 676 680
f 675 680 679
f 676 673 677
f 676 677 680
v -0.716627 4.029729 -1.263316
v -0.723533 4.069729 -1.302716
v -0.730438 4.029729 -1.342115
v -0.723533 3.989729 -1.302716
v -1.677516 4.029729 -1.094900
v -1.684422 4.069729 -1.134300
v -1.691327 4.029729 -1.173699
v -1.684422 3.989729 -1.134300
f 681 682 686
f 681 686 685
f 682 683 687
f 682 687 686
f 683 684 688
f 683 688 687
f 684 681 685
f 684 685 688
v -1.677516 4.029729 -1.094900
v -1.684422 4.069729 -1.134300
v -1.691327 4.029729 -1.173699
v -1.684422 3.989729 -1.134300
v -2.638405 4.029729 -0.926484
v -2.645311 4.069729 -0.965883
v -2.652216 4.029729 -1.005283
v -2.645311 3.989729 -0.965883
f 689 690 694
f 689 694 693
f 690 691 695
f 690 695 694
f 691 692 696
f 691 696 695
f 692 689 693
f 692 693 696
v -1.936358 4.585734 -0.743901
v -1.967026 4.625734 -0.718221
v -1.997694 4.585734 -0.692541
v -1.967026 4.545734 -0.718221
v -1.470650 4.585734 -0.187736
v -1.501318 4.625734 -0.162056
v -1.531986 4.585734 -0.136376
v -1.501318 4.545734 -0.162056
f 697 698 702
f 697 702 701
f 698 699 703
f 698 703 702
f 699 700 704
f 699 704 703
f 700 697 701
f 700 701 704
v -1.470650 4.585734 -0.187736
v -1.501318 4.625734 -0.162056
v -1.531986 4.585734 -0.136376
v -1.501318 4.545734 -0.162056
v -1.004941 4.585734 0.368429
v -1.035609 4.625734 0.394109
v -1.066278 4.585734 0.419790
v -1.035609 4.545734 0.394109
f 705 706 710
f 705 710 709
f 706 707 711
f 706 711 710
f 707 708 712
f 707 712 711
f 708 705 709
f 708 709 712
v -1.004941 4.585734 0.368429
v -1.035609 4.625734 0.394109
v -1.066278 4.585734 0.419790
v -1.035609 4.545734 0.394109
v -0.539233 4.585734 0.924594
v -0.569901 4.625734 0.950275
v -0.600569 4.585734 0.975955
v -0.569901 4.545734 0.950275
f 713 714 718
f 713 718 717
f 714 715 719
f 714 719 718
f 715 716 720
f 715 720 719
f 716 713 717
f 716 717 720
v -0.539233 4.585734 0.924594
v -0.569901 4.625734 0.950275
v -0.600569 4.585734 0.975955
v -0.569901 4.545734 0.950275
v -0.073525 4.585734 1.480760
v -0.104193 4.625734 1.506440
v -0.134861 4.585734 1.532120
v -0.104193 4.545734 1.506440
f 721 722 726
f 721 726 725
f 722 723 727
f 722 727 726
f 723 724 728
f 723 728 727
f 724 721 725
f 724 725 728
v -0.073525 4.585734 1.480760
v -0.104193 4.625734 1.506440
v -0.134861 4.585734 1.532120
v -0.104193 4.545734 1.506440
v 0.392183 4.585734 2.036925
v 0.361515 4.625734 2.062605
v 0.330847 4.585734 2.088285
v 0.361515 4.545734 2.062605
f 729 730 734
f 729 734 733
f 730 731 735
f 730 735 734
f 731 732 736
f 731 736 735
f 732 729 733
f 732 733 736
v 0.323942 4.585734 2.048886
v 0.361515 4.625734 2.062605
v 0.399089 4.585734 2.076324
v 0.361515 4.545734 2.062605
v 0.572741 4.585734 1.367488
v 0.610314 4.625734 1.381207
v 0.647888 4.585734 1.394926
v 0.610314 4.545734 1.381207
f 737 738 742
f 737 742 741
f 738 739 743
f 738 743 742
f 739 740 744
f 739 744 743
f 740 737 741
f 740 741 744
v 0.572741 4.585734 1.367488
v 0.610314 4.625734 1.381207
v 0.647888 4.585734 1.394926
v 0.610314 4.545734 1.381207
v 0.821540 4.585734 0.686090
v 0.859113 4.625734 0.699809
v 0.896687 4.585734 0.713529
v 0.859113 4.545734 0.699809
f 745 746 750
f 745 750 749
f 746 747 751
f 746 751 750
f 747 748 752
f 747 752 751
f 748 745 749
f 748 749 752
v 0.821540 4.585734 0.686090
v 0.859113 4.625734 0.699809
v 0.896687 4.585734 0.713529
v 0.859113 4.545734 0.699809
v 1.070339 4.585734 0.004692
v 1.107912 4.625734 0.018412
v 1.145486 4.585734 0.032131
v 1.107912 4.545734 0.018412
f 753 754 758
f 753 758 757
f 754 755 759
f 754 759 758
f 755 756 760
f 755 760 759
f 756 753 757
f 756 757 760
v 1.070339 4.585734 0.004692
v 1.107912 4.625734 0.018412
v 1.145486 4.585734 0.032131
v 1.107912 4.545734 0.018412
v 1.319138 4.585734 -0.676705
v 1.356712 4.625734 -0.662986
v 1.394285 4.585734 -0.649267
v 1.356712 4.545734 -0.662986
f 761 762 766
f 761 766 765
f 762 763 767
f 762 767 766
f 763 764 768
f 763 768 767
f 764 761 765
f 764 765 768
v 1.319138 4.585734 -0.676705
v 1.356712 4.625734 -0.662986
v 1.394285 4.585734 -0.649267
v 1.356712 4.545734 -0.662986
v 1.567937 4.585734 -1.358103
v 1.605511 4.625734 -1.344384
v 1.643084 4.585734 -1.330665
v 1.605511 4.545734 -1.344384
f 769 770 774
f 769 774 773
f 770 771 775
f 770 775 774
f 771 772 776
f 771 776 775
f 772 769 773
f 772 773 776
v 0.897909 4.585734 -1.179752
v 0.891003 4.625734 -1.219151
v 0.884098 4.585734 -1.258551
v 0.891003 4.545734 -1.219151
v 0.183402 4.585734 -1.054519
v 0.176496 4.625734 -1.093919
v 0.169590 4.585734 -1.133318
v 0.176496 4.545734 -1.093919
f 777 778 782
f 777 782 781
f 778 779 783
f 778 783 782
f 779 780 784
f 779 784 783
f 780 777 781
f 780 781 784
v 0.183402 4.585734 -1.054519
v 0.176496 4.625734 -1.093919
v 0.169590 4.585734 -1.133318
v 0.176496 4.545734 -1.093919
v -0.531106 4.585734 -0.929287
v -0.538011 4.625734 -0.968686
v -0.544917 4.585734 -1.008086
v -0.538011 4.545734 -0.968686
f 785 786 790
f 785 790 789
f 786 787 791
f 786 791 790
f 787 788 792
f 787 792 791
f 788 785 789
f 788 789 792
v -0.531106 4.585734 -0.929287
v -0.538011 4.625734 -0.968686
v -0.544917 4.585734 -1.008086
v -0.538011 4.545734 -0.968686
v -1.245613 4.585734 -0.804054
v -1.252519 4.625734 -0.843454
v -1.259424 4.585734 -0.882853
v -1.252519 4.545734 -0.843454
f 793 794 798
f 793 798 797
f 794 795 799
f 794 799 798
f 795 796 800
f 795 800 799
f 796 793 797
f 796 797 800
v -1.245613 4.585734 -0.804054
v -1.252519 4.625734 -0.843454
v -1.259424 4.585734 -0.882853
v -1.252519 4.545734 -0.843454
v -1.960120 4.585734 -0.678822
v -1.967026 4.625734 -0.718221
v -1.973932 4.585734 -0.757620
v -1.967026 4.545734 -0.718221
f 801 802 806
f 801 806 805
f 802 803 807
f 802 807 806
f 803 804 808
f 803 808 807
f 804 801 805
f 804 805 808
v -1.936358 5.222596 -0.743901
v -1.967026 5.262596 -0.718221
v -1.997694 5.222596 -0.692541
v -1.967026 5.182596 -0.718221
v -1.470650 5.222596 -0.187736
v -1.501318 5.262596 -0.162056
v -1.531986 5.222596 -0.136376
v -1.501318 5.182596 -0.162056
f 809 810 814
f 809 814 813
f 810 811 815
f 810 815 814
f 811 812 816
f 811 816 815
f 812 809 813
f 812 813 816
v -1.470650 5.222596 -0.187736
v -1.501318 5.262596 -0.162056
v -1.531986 5.222596 -0.136376
v -1.501318 5.182596 -0.162056
v -1.004941 5.222596 0.368429
v -1.035609 5.262596 0.394109
v -1.066278 5.222596 0.419790
v -1.035609 5.182596 0.394109
f 817 818 822
f 817 822 821
f 818 819 823
f 818 823 822
f 819 820 824
f 819 824 823
f 820 817 821
f 820 821 824
v -1.004941 5.222596 0.368429
v -1.035609 5.262596 0.394109
v -1.066278 5.222596 0.419790
v -1.035609 5.182596 0.394109
v -0.539233 5.222596 0.924594
v -0.569901 5.262596 0.950275
v -0.600569 5.222596 0.975955
v -0.569901 5.182596 0.950275
f 825 826 830
f 825 830 829
f 826 827 831
f 826 831 830
f 827 828 832
f 827 832 831
f 828 825 829
f 828 829 832
v -0.539233 5.222596 0.924594
v -0.569901 5.262596 0.950275
v -0.600569 5.222596 0.975955
v -0.569901 5.182596 0.950275
v -0.073525 5.222596 1.480760
v -0.104193 5.262596 1.506440
v -0.134861 5.222596 1.532120
v -0.104193 5.182596 1.506440
f 833 834 838
f 833 838 837
f 834 835 839
f 834 839 838
f 835 836 840
f 835 840 839
f 836 833 837
f 836 837 840
v -0.073525 5.222596 1.480760
v -0.104193 5.262596 1.506440
v -0.134861 5.222596 1.532120
v -0.104193 5.182596 1.506440
v 0.392183 5.222596 2.036925
v 0.361515 5.262596 2.062605
v 0.330847 5.222596 2.088285
v 0.361515 5.182596 2.062605
f 841 842 846
f 841 846 845
f 842 843 847
f 842 847 846
f 843 844 848
f 843 848 847
f 844 841 845
f 844 845 848
v 0.323942 5.222596 2.048886
v 0.361515 5.262596 2.062605
v 0.399089 5.222596 2.076324
v 0.361515 5.182596 2.062605
v 0.572741 5.222596 1.367488
v 0.610314 5.262596 1.381207
v 0.647888 5.222596 1.394926
v 0.610314 5.182596 1.381207
f 849 850 854
f 849 854 853
f 850 851 855
f 850 855 854
f 851 852 856
f 851 856 855
f 852 849 853
f 852 853 856
v 0.572741 5.222596 1.367488
v 0.610314 5.262596 1.381207
v 0.647888 5.222596 1.394926
v 0.610314 5.182596 1.381207
v 0.821540 5.222596 0.686090
v 0.859113 5.262596 0.699809
v 0.896687 5.222596 0.713529
v 0.859113 5.182596 0.699809
f 857 858 862
f 857 862 861
f 858 859 863
f 858 863 862
f 859 860 864
f 859 864 863
f 860 857 861
f 860 861 864
v 0.821540 5.222596 0.686090
v 0.859113 5.262596 0.699809
v 0.896687 5.222596 0.713529
v 0.859113 5.182596 0.699809
v 1.070339 5.222596 0.004692
v 1.107912 5.262596 0.018412
v 1.145486 5.222596 0.032131
v 1.107912 5.182596 0.018412
f 865 866 870
f 865 870 869
f 866 867 871
f 866 871 870
f 867 868 872
f 867 872 871
f 868 865 869
f 868 869 872
v 1.070339 5.222596 0.004692
v 1.107912 5.262596 0.018412
v 1.145486 5.222596 0.032131
v 1.107912 5.182596 0.018412
v 1.319138 5.222596 -0.676705
v 1.356712 5.262596 -0.662986
v 1.394285 5.222596 -0.649267
v 1.356712 5.182596 -0.662986
f 873 874 878
f 873 878 877
f 874 875 879
f 874 879 878
f 875 876 880
f 875 880 879
f 876 873 877
f 876 877 880
v 1.319138 5.222596 -0.676705
v 1.356712 5.262596 -0.662986
v 1.394285 5.222596 -0.649267
v 1.356712 5.182596 -0.662986
v 1.567937 5.222596 -1.358103
v 1.605511 5.262596 -1.344384
v 1.643084 5.222596 -1.330665
v 1.605511 5.182596 -1.344384
f 881 882 886
f 881 886 885
f 882 883 887
f 882 887 886
f 883 884 888
f 883 888 887
f 884 881 885
f 884 885 888
v 1.612416 5.222596 -1.304985
v 1.605511 5.262596 -1.344384
v 1.598605 5.222596 -1.383783
v 1.605511 5.182596 -1.344384
v 0.897909 5.222596 -1.179752
v 0.891003 5.262596 -1.219151
v 0.884098 5.222596 -1.258551
v 0.891003 5.182596 -1.219151
f 889 890 894
f 889 894 893
f 890 891 895
f 890 895 894
f 891 892 896
f 891 896 895
f 892 889 893
f 892 893 896
v 0.183402 5.222596 -1.054519
v 0.176496 5.262596 -1.093919
v 0.169590 5.222596 -1.133318
v 0.176496 5.182596 -1.093919
v -0.531106 5.222596 -0.929287
v -0.538011 5.262596 -0.968686
v -0.544917 5.222596 -1.008086
v -0.538011 5.182596 -0.968686
f 897 898 902
f 897 902 901
f 898 899 903
f 898 903 902
f 899 900 904
f 899 904 903
f 900 897 901
f 900 901 904
v -0.531106 5.222596 -0.929287
v -0.538011 5.262596 -0.968686
v -0.544917 5.222596 -1.008086
v -0.538011 5.182596 -0.968686
v -1.245613 5.222596 -0.804054
v -1.252519 5.262596 -0.843454
v -1.259424 5.222596 -0.882853
v -1.252519 5.182596 -0.843454
f 905 906 910
f 905 910 909
f 906 907 911
f 906 911 910
f 907 908 912
f 907 912 911
f 908 905 909
f 908 909 912
v -1.245613 5.222596 -0.804054
v -1.252519 5.262596 -0.843454
v -1.259424 5.222596 -0.882853
v -1.252519 5.182596 -0.843454
v -1.960120 5.222596 -0.678822
v -1.967026 5.262596 -0.718221
v -1.973932 5.222596 -0.757620
v -1.967026 5.182596 -0.718221
f 913 914 918
f 913 918 917
f 914 915 919
f 914 919 918
f 915 916 920
f 915 920 919
f 916 913 917
f 916 917 920
v -1.461558 5.818316 -0.570537
v -1.492227 5.858316 -0.544857
v -1.522895 5.818316 -0.519177
v -1.492227 5.778316 -0.544857
v -1.108263 5.818316 -0.148619
v -1.138931 5.858316 -0.122939
v -1.169599 5.818316 -0.097259
v -1.138931 5.778316 -0.122939
f 921 922 926
f 921 926 925
f 922 923 927
f 922 927 926
f 923 924 928
f 923 928 927
f 924 921 925
f 924 925 928
v -1.108263 5.818316 -0.148619
v -1.138931 5.858316 -0.122939
v -1.169599 5.818316 -0.097259
v -1.138931 5.778316 -0.122939
v -0.754967 5.818316 0.273299
v -0.785635 5.858316 0.298980
v -0.816303 5.818316 0.324660
v -0.785635 5.778316 0.298980
f 929 930 934
f 929 934 933
f 930 931 935
f 930 935 934
f 931 932 936
f 931 936 935
f 932 929 933
f 932 933 936
v -0.754967 5.818316 0.273299
v -0.785635 5.858316 0.298980
v -0.816303 5.818316 0.324660
v -0.785635 5.778316 0.298980
v -0.401671 5.818316 0.695218
v -0.432339 5.858316 0.720898
v -0.463007 5.818316 0.746578
v -0.432339 5.778316 0.720898
f 937 938 942
f 937 942 941
f 938 939 943
f 938 943 942
f 939 940 944
f 939 944 943
f 940 937 941
f 940 941 944
v -0.401671 5.818316 0.695218
v -0.432339 5.858316 0.720898
v -0.463007 5.818316 0.746578
v -0.432339 5.778316 0.720898
v -0.048375 5.818316 1.117136
v -0.079043 5.858316 1.142816
v -0.109711 5.818316 1.168496
v -0.079043 5.778316 1.142816
f 945 946 950
f 945 950 949
f 946 947 951
f 946 951 950
f 947 948 952
f 947 952 951
f 948 945 949
f 948 949 952
v -0.048375 5.818316 1.117136
v -0.079043 5.858316 1.142816
v -0.109711 5.818316 1.168496
v -0.079043 5.778316 1.142816
v 0.304921 5.818316 1.539055
v 0.274253 5.858316 1.564735
v 0.243585 5.818316 1.590415
v 0.274253 5.778316 1.564735
f 953 954 958
f 953 958 957
f 954 955 959
f 954 959 958
f 955 956 960
f 955 960 959
f 956 953 957
f 956 957 960
v 0.236679 5.818316 1.551015
v 0.274253 5.858316 1.564735
v 0.311827 5.818316 1.578454
v 0.274253 5.778316 1.564735
v 0.425423 5.818316 1.034093
v 0.462997 5.858316 1.047812
v 0.500571 5.818316 1.061532
v 0.462997 5.778316 1.047812
f 961 962 966
f 961 966 965
f 962 963 967
f 962 967 966
f 963 964 968
f 963 968 967
f 964 961 965
f 964 965 968
v 0.425423 5.818316 1.034093
v 0.462997 5.858316 1.047812
v 0.500571 5.818316 1.061532
v 0.462997 5.778316 1.047812
v 0.614168 5.818316 0.517171
v 0.651741 5.858316 0.530890
v 0.689315 5.818316 0.544609
v 0.651741 5.778316 0.530890
f 969 970 974
f 969 974 973
f 970 971 975
f 970 975 974
f 971 972 976
f 971 976 975
f 972 969 973
f 972 973 976
v 0.614168 5.818316 0.517171
v 0.651741 5.858316 0.530890
v 0.689315 5.818316 0.544609
v 0.651741 5.778316 0.530890
v 0.802912 5.818316 0.000248
v 0.840485 5.858316 0.013967
v 0.878059 5.818316 0.027687
v 0.840485 5.778316 0.013967
f 977 978 982
f 977 982 981
f 978 979 983
f 978 983 982
f 979 980 984
f 979 984 983
f 980 977 981
f 980 981 984
v 0.802912 5.818316 0.000248
v 0.840485 5.858316 0.013967
v 0.878059 5.818316 0.027687
v 0.840485 5.778316 0.013967
v 0.991656 5.818316 -0.516674
v 1.029229 5.858316 -0.502955
v 1.066803 5.818316 -0.489236
v 1.029229 5.778316 -0.502955
f 985 986 990
f 985 990 989
f 986 987 991
f 986 991 990
f 987 988 992
f 987 992 991
f 988 985 989
f 988 989 992
v 1.224879 5.818316 -0.980478
v 1.217974 5.858316 -1.019878
v 1.211068 5.818316 -1.059277
v 1.217974 5.778316 -1.019878
v 0.682839 5.818316 -0.885474
v 0.675934 5.858316 -0.924873
v 0.669028 5.818316 -0.964273
v 0.675934 5.778316 -0.924873
f 993 994 998
f 993 998 997
f 994 995 999
f 994 999 998
f 995 996 1000
f 995 1000 999
f 996 993 997
f 996 997 1000
v 0.682839 5.818316 -0.885474
v 0.675934 5.858316 -0.924873
v 0.669028 5.818316 -0.964273
v 0.675934 5.778316 -0.924873
v 0.140799 5.818316 -0.790470
v 0.133893 5.858316 -0.829869
v 0.126988 5.818316 -0.869269
v 0.133893 5.778316 -0.829869
f 1001 1002 1006
f 1001 1006 1005
f 1002 1003 1007
f 1002 1007 1006
f 1003 1004 1008
f 1003 1008 1007
f 1004 1001 1005
f 1004 1005 1008
v 0.140799 5.818316 -0.790470
v 0.133893 5.858316 -0.829869
v 0.126988 5.818316 -0.869269
v 0.133893 5.778316 -0.829869
v -0.401241 5.818316 -0.695466
v -0.408147 5.858316 -0.734865
v -0.415052 5.818316 -0.774265
v -0.408147 5.778316 -0.734865
f 1009 1010 1014
f 1009 1014 1013
f 1010 1011 1015
f 1010 1015 1014
f 1011 1012 1016
f 1011 1016 1015
f 1012 1009 1013
f 1012 1013 1016
v -0.401241 5.818316 -0.695466
v -0.408147 5.858316 -0.734865
v -0.415052 5.818316 -0.774265
v -0.408147 5.778316 -0.734865
v -0.943281 5.818316 -0.600462
v -0.950187 5.858316 -0.639861
v -0.957092 5.818316 -0.679261
v -0.950187 5.778316 -0.639861
f 1017 1018 1022
f 1017 1022 1021
f 1018 1019 1023
f 1018 1023 1022
f 1019 1020 1024
f 1019 1024 1023
f 1020 1017 1021
f 1020 1021 1024
v -0.943281 5.818316 -0.600462
v -0.950187 5.858316 -0.639861
v -0.957092 5.818316 -0.679261
v -0.950187 5.778316 -0.639861
v -1.485321 5.818316 -0.505458
v -1.492227 5.858316 -0.544857
v -1.499132 5.818316 -0.584257
v -1.492227 5.778316 -0.544857
f 1025 1026 1030
f 1025 1030 1029
f 1026 1027 1031
f 1026 1031 1030
f 1027 1028 1032
f 1027 1032 1031
f 1028 1025 1029
f 1028 1029 1032
v -0.715445 6.255177 -0.298109
v -0.746113 6.295177 -0.272429
v -0.776781 6.255177 -0.246749
v -0.746113 6.215177 -0.272429
v -0.538797 6.255177 -0.087150
v -0.569465 6.295177 -0.061469
v -0.600133 6.255177 -0.035789
v -0.569465 6.215177 -0.061469
f 1033 1034 1038
f 1033 1038 1037
f 1034 1035 1039
f 1034 1039 1038
f 1035 1036 1040
f 1035 1040 1039
f 1036 1033 1037
f 1036 1037 1040
v -0.538797 6.255177 -0.087150
v -0.569465 6.295177 -0.061469
v -0.600133 6.255177 -0.035789
v -0.569465 6.215177 -0.061469
v -0.362149 6.255177 0.123810
v -0.392817 6.295177 0.149490
v -0.423485 6.255177 0.175170
v -0.392817 6.215177 0.149490
f 1041 1042 1046
f 1041 1046 1045
f 1042 1043 1047
f 1042 1047 1046
f 1043 1044 1048
f 1043 1048 1047
f 1044 1041 1045
f 1044 1045 1048
v -0.362149 6.255177 0.123810
v -0.392817 6.295177 0.149490
v -0.423485 6.255177 0.175170
v -0.392817 6.215177 0.149490
v -0.185501 6.255177 0.334769
v -0.216169 6.295177 0.360449
v -0.246837 6.255177 0.386129
v -0.216169 6.215177 0.360449
f 1049 1050 1054
f 1049 1054 1053
f 1050 1051 1055
f 1050 1055 1054
f 1051 1052 1056
f 1051 1056 1055
f 1052 1049 1053
f 1052 1053 1056
v -0.185501 6.255177 0.334769
v -0.216169 6.295177 0.360449
v -0.246837 6.255177 0.386129
v -0.216169 6.215177 0.360449
v -0.008853 6.255177 0.545728
v -0.039521 6.295177 0.571408
v -0.070190 6.255177 0.597088
v -0.039521 6.215177 0.571408
f 1057 1058 1062
f 1057 1062 1061
f 1058 1059 1063
f 1058 1063 1062
f 1059 1060 1064
f 1059 1064 1063
f 1060 1057 1061
f 1060 1061 1064
v -0.008853 6.255177 0.545728
v -0.039521 6.295177 0.571408
v -0.070190 6.255177 0.597088
v -0.039521 6.215177 0.571408
v 0.167795 6.255177 0.756687
v 0.137127 6.295177 0.782367
v 0.106458 6.255177 0.808047
v 0.137127 6.215177 0.782367
f 1065 1066 1070
f 1065 1070 1069
f 1066 1067 1071
f 1066 1071 1070
f 1067 1068 1072
f 1067 1072 1071
f 1068 1065 1069
f 1068 1069 1072
v 0.099553 6.255177 0.768648
v 0.137127 6.295177 0.782367
v 0.174700 6.255177 0.796087
v 0.137127 6.215177 0.782367
v 0.193925 6.255177 0.510187
v 0.231499 6.295177 0.523906
v 0.269072 6.255177 0.537625
v 0.231499 6.215177 0.523906
f 1073 1074 1078
f 1073 1078 1077
f 1074 1075 1079
f 1074 1079 1078
f 1075 1076 1080
f 1075 1080 1079
f 1076 1073 1077
f 1076 1077 1080
v 0.193925 6.255177 0.510187
v 0.231499 6.295177 0.523906
v 0.269072 6.255177 0.537625
v 0.231499 6.215177 0.523906
v 0.288297 6.255177 0.251726
v 0.325871 6.295177 0.265445
v 0.363444 6.255177 0.279164
v 0.325871 6.215177 0.265445
f 1081 1082 1086
f 1081 1086 1085
f 1082 1083 1087
f 1082 1087 1086
f 1083 1084 1088
f 1083 1088 1087
f 1084 1081 1085
f 1084 1085 1088
v 0.288297 6.255177 0.251726
v 0.325871 6.295177 0.265445
v 0.363444 6.255177 0.279164
v 0.325871 6.215177 0.265445
v 0.382669 6.255177 -0.006736
v 0.420243 6.295177 0.006984
v 0.457816 6.255177 0.020703
v 0.420243 6.215177 0.006984
f 1089 1090 1094
f 1089 1094 1093
f 1090 1091 1095
f 1090 1095 1094
f 1091 1092 1096
f 1091 1096 1095
f 1092 1089 1093
f 1092 1093 1096
v 0.382669 6.255177 -0.006736
v 0.420243 6.295177 0.006984
v 0.457816 6.255177 0.020703
v 0.420243 6.215177 0.006984
v 0.477041 6.255177 -0.265197
v 0.514615 6.295177 -0.251478
v 0.552188 6.255177 -0.237758
v 0.514615 6.215177 -0.251478
f 1097 1098 1102
f 1097 1102 1101
f 1098 1099 1103
f 1098 1103 1102
f 1099 1100 1104
f 1099 1104 1103
f 1100 1097 1101
f 1100 1101 1104
v 0.477041 6.255177 -0.265197
v 0.514615 6.295177 -0.251478
v 0.552188 6.255177 -0.237758
v 0.514615 6.215177 -0.251478
v 0.571413 6.255177 -0.523658
v 0.608987 6.295177 -0.509939
v 0.646560 6.255177 -0.496219
v 0.608987 6.215177 -0.509939
f 1105 1106 1110
f 1105 1110 1109
f 1106 1107 1111
f 1106 1111 1110
f 1107 1108 1112
f 1107 1112 1111
f 1108 1105 1109
f 1108 1109 1112
v 0.615892 6.255177 -0.470539
v 0.608987 6.295177 -0.509939
v 0.602081 6.255177 -0.549338
v 0.608987 6.215177 -0.509939
v 0.344872 6.255177 -0.423037
v 0.337967 6.295177 -0.462437
v 0.331061 6.255177 -0.501836
v 0.337967 6.215177 -0.462437
f 1113 1114 1118
f 1113 1118 1117
f 1114 1115 1119
f 1114 1119 1118
f 1115 1116 1120
f 1115 1120 1119
f 1116 1113 1117
f 1116 1117 1120
v 0.344872 6.255177 -0.423037
v 0.337967 6.295177 -0.462437
v 0.331061 6.255177 -0.501836
v 0.337967 6.215177 -0.462437
v 0.073852 6.255177 -0.375535
v 0.066947 6.295177 -0.414935
v 0.060041 6.255177 -0.454334
v 0.066947 6.215177 -0.414935
f 1121 1122 1126
f 1121 1126 1125
f 1122 1123 1127
f 1122 1127 1126
f 1123 1124 1128
f 1123 1128 1127
f 1124 1121 1125
f 1124 1125 1128
v 0.073852 6.255177 -0.375535
v 0.066947 6.295177 -0.414935
v 0.060041 6.255177 -0.454334
v 0.066947 6.215177 -0.414935
v -0.197168 6.255177 -0.328033
v -0.204073 6.295177 -0.367433
v -0.210979 6.255177 -0.406832
v -0.204073 6.215177 -0.367433
f 1129 1130 1134
f 1129 1134 1133
f 1130 1131 1135
f 1130 1135 1134
f 1131 1132 1136
f 1131 1136 1135
f 1132 1129 1133
f 1132 1133 1136
v -0.468188 6.255177 -0.280531
v -0.475093 6.295177 -0.319931
v -0.481999 6.255177 -0.359330
v -0.475093 6.215177 -0.319931
v -0.739208 6.255177 -0.233029
v -0.746113 6.295177 -0.272429
v -0.753019 6.255177 -0.311828
v -0.746113 6.215177 -0.272429
f 1137 1138 1142
f 1137 1142 1141
f 1138 1139 1143
f 1138 1143 1142
f 1139 1140 1144
f 1139 1144 1143
f 1140 1137 1141
f 1140 1141 1144
v -3.391424 2.596006 -1.203541
v -3.358018 2.589627 -1.239504
v -3.391424 2.603994 -1.273083
v -3.424830 2.610373 -1.237120
v -3.154024 3.350585 -1.116859
v -3.120618 3.344206 -1.152822
v -3.154024 3.358573 -1.186401
v -3.187431 3.364952 -1.150439
f 1145 1146 1150
f 1145 1150 1149
f 1146 1147 1151
f 1146 1151 1150
f 1147 1148 1152
f 1147 1152 1151
f 1148 1145 1149
f 1148 1149 1152
v -2.588479 2.599093 -0.244418
v -2.554446 2.591833 -0.279618
v -2.588479 2.600907 -0.314395
v -2.622512 2.608167 -0.279195
v -2.407285 3.353672 -0.224860
v -2.373252 3.346412 -0.260060
v -2.407285 3.355486 -0.294836
v -2.441318 3.362746 -0.259636
f 1153 1154 1158
f 1153 1158 1157
f 1154 1155 1159
f 1154 1159 1158
f 1155 1156 1160
f 1155 1160 1159
f 1156 1153 1157
f 1156 1157 1160
v -1.785533 2.602202 0.714430
v -1.751002 2.594303 0.679858
v -1.785533 2.597798 0.644568
v -1.820065 2.605697 0.679140
v -1.660546 3.356781 0.666865
v -1.626015 3.348882 0.632293
v -1.660546 3.352377 0.597003
v -1.695077 3.360276 0.631575
f 1161 1162 1166
f 1161 1166 1165
f 1162 1163 1167
f 1162 1167 1166
f 1163 1164 1168
f 1163 1168 1167
f 1164 1161 1165
f 1164 1165 1168
v -0.982588 2.605259 1.673007
v -0.947729 2.596894 1.638876
v -0.982588 2.594741 1.603802
v -1.017447 2.603106 1.637932
v -0.913807 3.359838 1.558319
v -0.878948 3.351473 1.524188
v -0.913807 3.349320 1.489114
v -0.948666 3.357685 1.523244
f 1169 1170 1174
f 1169 1174 1173
f 1170 1171 1175
f 1170 1175 1174
f 1171 1172 1176
f 1171 1176 1175
f 1172 1169 1173
f 1172 1173 1176
v -0.179643 2.608198 2.631336
v -0.144647 2.599449 2.597443
v -0.179643 2.591802 2.563284
v -0.214638 2.600551 2.597177
v -0.167068 3.362777 2.449524
v -0.132072 3.354028 2.415631
v -0.167068 3.346381 2.381472
v -0.202063 3.355130 2.415365
f 1177 1178 1182
f 1177 1182 1181
f 1178 1179 1183
f 1178 1183 1182
f 1179 1180 1184
f 1179 1184 1183
f 1180 1177 1181
f 1180 1181 1184
v 0.623302 2.610965 3.589453
v 0.658250 2.601822 3.555614
v 0.623302 2.589035 3.522977
v 0.588355 2.598178 3.556817
v 0.579671 3.365544 3.340518
v 0.614619 3.356401 3.306679
v 0.579671 3.343614 3.274042
v 0.544724 3.352757 3.307881
f 1185 1186 1190
f 1185 1190 1189
f 1186 1187 1191
f 1186 1191 1190
f 1187 1188 1192
f 1187 1192 1191
f 1188 1185 1189
f 1188 1189 1192
v 1.052266 2.607550 2.415568
v 1.087108 2.603243 2.380675
v 1.052266 2.592450 2.347216
v 1.017424 2.596757 2.382108
v 0.978608 3.362129 2.248870
v 1.013450 3.357822 2.213978
v 0.978608 3.347029 2.180518
v 0.943766 3.351336 2.215411
f 1193 1194 1198
f 1193 1198 1197
f 1194 1195 1199
f 1194 1199 1198
f 1195 1196 1200
f 1195 1200 1199
f 1196 1193 1197
f 1196 1197 1200
v 1.481230 2.603893 1.241351
v 1.515908 2.604706 1.206041
v 1.481230 2.596107 1.171785
v 1.446552 2.595294 1.207095
v 1.377544 3.358472 1.156891
v 1.412222 3.359285 1.121581
v 1.377544 3.350686 1.087325
v 1.342866 3.349873 1.122635
f 1201 1202 1206
f 1201 1206 1205
f 1202 1203 1207
f 1202 1207 1206
f 1203 1204 1208
f 1203 1208 1207
f 1204 1201 1205
f 1204 1205 1208
v 1.910194 2.600103 0.066744
v 1.944657 2.606107 0.031726
v 1.910194 2.599897 -0.003256
v 1.875731 2.593893 0.031762
v 1.776480 3.354682 0.064522
v 1.810943 3.360686 0.029504
v 1.776480 3.354476 -0.005478
v 1.742017 3.348472 0.029540
f 1209 1210 1214
f 1209 1214 1213
f 1210 1211 1215
f 1210 1215 1214
f 1211 1212 1216
f 1211 1216 1215
f 1212 1209 1213
f 1212 1213 1216
v 2.339158 2.596309 -1.108275
v 2.373370 2.607341 -1.142301
v 2.339158 2.603691 -1.177885
v 2.304945 2.592659 -1.143858
v 2.175417 3.350888 -1.028259
v 2.209629 3.361920 -1.062286
v 2.175417 3.358270 -1.097869
v 2.141204 3.347238 -1.063843
f 1217 1218 1222
f 1217 1222 1221
f 1218 1219 1223
f 1218 1223 1222
f 1219 1220 1224
f 1219 1224 1223
f 1220 1217 1221
f 1220 1221 1224
v 2.768122 2.592642 -2.283686
v 2.802068 2.608332 -2.316112
v 2.768122 2.607358 -2.352121
v 2.734175 2.591668 -2.319695
v 2.574353 3.347221 -2.121432
v 2.608300 3.362911 -2.153859
v 2.574353 3.361937 -2.189868
v 2.540407 3.346247 -2.157442
f 1225 1226 1230
f 1225 1230 1229
f 1226 1227 1231
f 1226 1231 1230
f 1227 1228 1232
f 1227 1232 1231
f 1228 1225 1229
f 1228 1229 1232
v 1.536213 2.593301 -2.067632
v 1.570875 2.604759 -2.101057
v 1.536213 2.606699 -2.136338
v 1.501550 2.595241 -2.102913
v 1.428678 3.347880 -1.920493
v 1.463340 3.359338 -1.953918
v 1.428678 3.361278 -1.989199
v 1.394015 3.349820 -1.955774
f 1233 1234 1238
f 1233 1238 1237
f 1234 1235 1239
f 1234 1239 1238
f 1235 1236 1240
f 1235 1240 1239
f 1236 1233 1237
f 1236 1237 1240
v 0.304303 2.593968 -1.851591
v 0.339290 2.600958 -1.885899
v 0.304303 2.606032 -1.920543
v 0.269317 2.599042 -1.886235
v 0.283002 3.348547 -1.719566
v 0.317989 3.355537 -1.753874
v 0.283002 3.360611 -1.788518
v 0.248016 3.353621 -1.754210
f 1241 1242 1246
f 1241 1246 1245
f 1242 1243 1247
f 1242 1247 1246
f 1243 1244 1248
f 1243 1248 1247
f 1244 1241 1245
f 1244 1245 1248
v -0.927606 2.594641 -1.635561
v -0.892732 2.597069 -1.670603
v -0.927606 2.605359 -1.704736
v -0.962480 2.602931 -1.669694
v -0.862673 3.349220 -1.518651
v -0.827799 3.351648 -1.553692
v -0.862673 3.359938 -1.587825
v -0.897548 3.357510 -1.552784
f 1249 1250 1254
f 1249 1254 1253
f 1250 1251 1255
f 1250 1255 1254
f 1251 1252 1256
f 1251 1256 1255
f 1252 1249 1253
f 1252 1253 1256
v -2.159515 2.595321 -1.419544
v -2.125185 2.593246 -1.455141
v -2.159515 2.604679 -1.488916
v -2.193845 2.606754 -1.453319
v -2.008349 3.349900 -1.317748
v -1.974019 3.347825 -1.353345
v -2.008349 3.359258 -1.387120
v -2.042679 3.361333 -1.351523
f 1257 1258 1262
f 1257 1262 1261
f 1258 1259 1263
f 1258 1263 1262
f 1259 1260 1264
f 1259 1264 1263
f 1260 1257 1261
f 1260 1261 1264
v -3.142020 3.354579 -1.184507
v -3.179670 3.376479 -1.160994
v -3.166029 3.354579 -1.118753
v -3.128379 3.332679 -1.142266
v -2.633306 4.029729 -0.998760
v -2.670957 4.051628 -0.975247
v -2.657315 4.029729 -0.933006
v -2.619665 4.007829 -0.956519
f 1265 1266 1270
f 1265 1270 1269
f 1266 1267 1271
f 1266 1271 1270
f 1267 1268 1272
f 1267 1272 1271
f 1268 1265 1269
f 1268 1269 1272
v -2.403529 3.354579 -0.294646
v -2.437407 3.372104 -0.263099
v -2.411041 3.354579 -0.225050
v -2.377164 3.337054 -0.256597
v -2.015257 4.029729 -0.252735
v -2.049135 4.047253 -0.221188
v -2.022770 4.029729 -0.183139
v -1.988892 4.012204 -0.214686
f 1273 1274 1278
f 1273 1278 1277
f 1274 1275 1279
f 1274 1279 1278
f 1275 1276 1280
f 1275 1280 1279
f 1276 1273 1277
f 1276 1277 1280
v -0.913807 3.366551 1.556605
v -0.879521 3.347970 1.526122
v -0.913807 3.342607 1.490827
v -0.948093 3.361188 1.521310
v -0.766419 4.041700 1.310844
v -0.732133 4.023119 1.280361
v -0.766419 4.017757 1.245067
v -0.800705 4.036338 1.275550
f 1281 1282 1286
f 1281 1286 1285
f 1282 1283 1287
f 1282 1287 1286
f 1283 1284 1288
f 1283 1288 1287
f 1284 1281 1285
f 1284 1285 1288
v -0.201984 3.354579 2.413083
v -0.169158 3.372104 2.445723
v -0.132151 3.354579 2.417913
v -0.164977 3.337054 2.385274
v -0.175038 4.029729 2.023487
v -0.142212 4.047253 2.056126
v -0.105205 4.029729 2.028317
v -0.138031 4.012204 1.995677
f 1289 1290 1294
f 1289 1294 1293
f 1290 1291 1295
f 1290 1295 1294
f 1291 1292 1296
f 1291 1296 1295
f 1292 1289 1293
f 1292 1293 1296
v 0.545197 3.354579 3.313323
v 0.584385 3.376479 3.334172
v 0.614146 3.354579 3.301238
v 0.574958 3.332679 3.280388
v 0.451701 4.029729 2.779890
v 0.490889 4.051628 2.800740
v 0.520650 4.029729 2.767806
v 0.481463 4.007829 2.746956
f 1297 1298 1302
f 1297 1302 1301
f 1298 1299 1303
f 1298 1303 1302
f 1299 1300 1304
f 1299 1304 1303
f 1300 1297 1301
f 1300 1301 1304
v 0.946594 3.354579 2.228840
v 0.990853 3.372104 2.242406
v 1.010622 3.354579 2.200548
v 0.966363 3.337054 2.186982
v 0.788754 4.029729 1.871631
v 0.833013 4.047253 1.885197
v 0.852782 4.029729 1.843339
v 0.808523 4.012204 1.829774
f 1305 1306 1310
f 1305 1310 1309
f 1306 1307 1311
f 1306 1311 1310
f 1307 1308 1312
f 1307 1312 1311
f 1308 1305 1309
f 1308 1309 1312
v 1.377544 3.363641 1.155915
v 1.410899 3.364820 1.119363
v 1.377544 3.345517 1.088302
v 1.344189 3.344338 1.124853
v 1.155359 4.038791 0.974929
v 1.188715 4.039970 0.938378
v 1.155359 4.020666 0.907317
v 1.122004 4.019488 0.943868
f 1313 1314 1318
f 1313 1318 1317
f 1314 1315 1319
f 1314 1319 1318
f 1315 1316 1320
f 1315 1320 1319
f 1316 1313 1317
f 1316 1317 1320
v 1.776480 3.354826 0.064521
v 1.808699 3.368252 0.029426
v 1.776480 3.354332 -0.005477
v 1.744262 3.340906 0.029618
v 1.489951 4.029975 0.059760
v 1.522170 4.043401 0.024664
v 1.489951 4.029482 -0.010239
v 1.457733 4.016056 0.024857
f 1321 1322 1326
f 1321 1326 1325
f 1322 1323 1327
f 1322 1327 1326
f 1323 1324 1328
f 1323 1328 1327
f 1324 1321 1325
f 1324 1325 1328
v 2.190784 3.354579 -1.031618
v 2.202637 3.372104 -1.076366
v 2.160050 3.354579 -1.094510
v 2.148196 3.337054 -1.049762
v 1.839910 4.029729 -0.860156
v 1.851764 4.047253 -0.904904
v 1.809176 4.029729 -0.923048
v 1.797323 4.012204 -0.878300
f 1329 1330 1334
f 1329 1334 1333
f 1330 1331 1335
f 1330 1335 1334
f 1331 1332 1336
f 1331 1336 1335
f 1332 1329 1333
f 1332 1333 1336
v 1.456935 3.354579 -1.934194
v 1.446554 3.372104 -1.979307
v 1.400420 3.354579 -1.975498
v 1.410801 3.337054 -1.930386
v 1.226504 4.029729 -1.618897
v 1.216122 4.047253 -1.664009
v 1.169988 4.029729 -1.660200
v 1.180369 4.012204 -1.615088
f 1337 1338 1342
f 1337 1342 1341
f 1338 1339 1343
f 1338 1343 1342
f 1339 1340 1344
f 1339 1344 1343
f 1340 1337 1341
f 1340 1341 1344
v 0.283002 3.341052 -1.721762
v 0.317934 3.356588 -1.753200
v 0.283002 3.368106 -1.786323
v 0.248070 3.352570 -1.754884
v 0.237357 4.016202 -1.438852
v 0.272289 4.031738 -1.470290
v 0.237357 4.043255 -1.503413
v 0.202424 4.027720 -1.471974
f 1345 1346 1350
f 1345 1350 1349
f 1346 1347 1351
f 1346 1351 1350
f 1347 1348 1352
f 1347 1352 1351
f 1348 1345 1349
f 1348 1349 1352
v -0.862673 3.342403 -1.520424
v -0.828309 3.348354 -1.555548
v -0.862673 3.366755 -1.586052
v -0.897038 3.360804 -1.550928
v -0.723533 4.017553 -1.269902
v -0.689168 4.023504 -1.305026
v -0.723533 4.041905 -1.335530
v -0.757897 4.035954 -1.300406
f 1353 1354 1358
f 1353 1358 1357
f 1354 1355 1359
f 1354 1359 1358
f 1355 1356 1360
f 1355 1360 1359
f 1356 1353 1357
f 1356 1357 1360
v -1.988799 3.354579 -1.381465
v -2.033479 3.372104 -1.369357
v -2.027899 3.354579 -1.323403
v -1.983219 3.337054 -1.335511
v -1.664872 4.029729 -1.163331
v -1.709552 4.047253 -1.151222
v -1.703971 4.029729 -1.105268
v -1.659292 4.012204 -1.117377
f 1361 1362 1366
f 1361 1366 1365
f 1362 1363 1367
f 1362 1367 1366
f 1363 1364 1368
f 1363 1368 1367
f 1364 1361 1365
f 1364 1365 1368
v -2.633306 4.029729 -0.998760
v -2.665369 4.057460 -0.973207
v -2.657315 4.029729 -0.933006
v -2.625253 4.001997 -0.958560
v -1.955022 4.585734 -0.751098
v -1.987084 4.613466 -0.725545
v -1.979030 4.585734 -0.685344
v -1.946968 4.558003 -0.710897
f 1369 1370 1374
f 1369 1374 1373
f 1370 1371 1375
f 1370 1375 1374
f 1371 1372 1376
f 1371 1376 1375
f 1372 1369 1373
f 1372 1373 1376
v -1.405165 4.029729 0.497298
v -1.419675 4.049551 0.540269
v -1.380268 4.029729 0.562721
v -1.365757 4.009906 0.519750
v -1.048058 4.585734 0.361398
v -1.062569 4.605557 0.404369
v -1.023161 4.585734 0.426821
v -1.008650 4.565911 0.383850
f 1377 1378 1382
f 1377 1382 1381
f 1378 1379 1383
f 1378 1383 1382
f 1379 1380 1384
f 1379 1384 1383
f 1380 1377 1381
f 1380 1381 1384
v -0.796435 4.029729 1.259954
v -0.781255 4.049551 1.302693
v -0.736403 4.029729 1.295957
v -0.751583 4.009906 1.253218
v -0.599917 4.585734 0.932273
v -0.584737 4.605557 0.975012
v -0.539885 4.585734 0.968276
v -0.555065 4.565911 0.925537
f 1385 1386 1390
f 1385 1390 1389
f 1386 1387 1391
f 1386 1391 1390
f 1387 1388 1392
f 1387 1392 1391
f 1388 1385 1389
f 1388 1389 1392
v -0.175038 4.029729 2.023487
v -0.141884 4.053653 2.051387
v -0.105205 4.029729 2.028317
v -0.138359 4.005804 2.000416
v -0.139109 4.585734 1.504025
v -0.105956 4.609659 1.531925
v -0.069276 4.585734 1.508855
v -0.102430 4.561810 1.480954
f 1393 1394 1398
f 1393 1398 1397
f 1394 1395 1399
f 1394 1399 1398
f 1395 1396 1400
f 1395 1400 1399
f 1396 1393 1397
f 1396 1397 1400
v 0.451701 4.029729 2.779890
v 0.489862 4.057460 2.794881
v 0.520650 4.029729 2.767806
v 0.482489 4.001997 2.752815
v 0.327041 4.585734 2.068647
v 0.365202 4.613466 2.083638
v 0.395990 4.585734 2.056563
v 0.357829 4.558003 2.041572
f 1401 1402 1406
f 1401 1406 1405
f 1402 1403 1407
f 1402 1407 1406
f 1403 1404 1408
f 1403 1408 1407
f 1404 1401 1405
f 1404 1405 1408
v 0.788754 4.029729 1.871631
v 0.831093 4.053653 1.880852
v 0.852782 4.029729 1.843339
v 0.810443 4.005804 1.834119
v 0.578301 4.585734 1.395353
v 0.620640 4.609659 1.404574
v 0.642328 4.585734 1.367061
v 0.599989 4.561810 1.357840
f 1409 1410 1414
f 1409 1414 1413
f 1410 1411 1415
f 1410 1415 1414
f 1411 1412 1416
f 1411 1416 1415
f 1412 1409 1413
f 1412 1413 1416
v 1.133255 4.029729 0.968259
v 1.177724 4.049551 0.959341
v 1.177464 4.029729 0.913986
v 1.132995 4.009906 0.922905
v 0.837009 4.585734 0.726946
v 0.881478 4.605557 0.718027
v 0.881218 4.585734 0.672673
v 0.836749 4.565911 0.681592
f 1417 1418 1422
f 1417 1422 1421
f 1418 1419 1423
f 1418 1423 1422
f 1419 1420 1424
f 1419 1424 1423
f 1420 1417 1421
f 1420 1421 1424
v 1.489370 4.029729 0.059756
v 1.518793 4.049551 0.025240
v 1.490533 4.029729 -0.010235
v 1.461110 4.009906 0.024281
v 1.107331 4.585734 0.053407
v 1.136754 4.605557 0.018891
v 1.108494 4.585734 -0.016584
v 1.079071 4.565911 0.017932
f 1425 1426 1430
f 1425 1430 1429
f 1426 1427 1431
f 1426 1431 1430
f 1427 1428 1432
f 1427 1432 1431
f 1428 1425 1429
f 1428 1429 1432
v 1.839910 4.029729 -0.860156
v 1.847496 4.053653 -0.902818
v 1.809176 4.029729 -0.923048
v 1.801591 4.005804 -0.880386
v 1.372078 4.585734 -0.631540
v 1.379664 4.609659 -0.674202
v 1.341345 4.585734 -0.694432
v 1.333759 4.561810 -0.651770
f 1433 1434 1438
f 1433 1438 1437
f 1434 1435 1439
f 1434 1439 1438
f 1435 1436 1440
f 1435 1440 1439
f 1436 1433 1437
f 1436 1437 1440
v 2.181605 4.029729 -1.781130
v 2.175506 4.057460 -1.821674
v 2.136665 4.029729 -1.834799
v 2.142763 4.001997 -1.794256
v 1.627981 4.585734 -1.317549
v 1.621882 4.613466 -1.358093
v 1.583040 4.585734 -1.371219
v 1.589139 4.558003 -1.330675
f 1441 1442 1446
f 1441 1446 1445
f 1442 1443 1447
f 1442 1447 1446
f 1443 1444 1448
f 1443 1448 1447
f 1444 1441 1445
f 1444 1445 1448
v 1.226504 4.029729 -1.618897
v 1.213320 4.053653 -1.660174
v 1.169988 4.029729 -1.660200
v 1.183172 4.005804 -1.618923
v 0.919261 4.585734 -1.198500
v 0.906077 4.609659 -1.239777
v 0.862745 4.585734 -1.239803
v 0.875929 4.561810 -1.198526
f 1449 1450 1454
f 1449 1454 1453
f 1450 1451 1455
f 1450 1455 1454
f 1451 1452 1456
f 1451 1456 1455
f 1452 1449 1453
f 1452 1453 1456
v 0.271910 4.029729 -1.465557
v 0.241951 4.049551 -1.499609
v 0.202803 4.029729 -1.476707
v 0.232762 4.009906 -1.442655
v 0.211049 4.585734 -1.088344
v 0.181091 4.605557 -1.122396
v 0.141943 4.585734 -1.099494
v 0.171901 4.565911 -1.065442
f 1457 1458 1462
f 1457 1462 1461
f 1458 1459 1463
f 1458 1463 1462
f 1459 1460 1464
f 1459 1464 1463
f 1460 1457 1461
f 1460 1461 1464
v -0.692935 4.029729 -1.319710
v -0.737538 4.049551 -1.327933
v -0.754130 4.029729 -1.285722
v -0.709527 4.009906 -1.277499
v -0.507414 4.585734 -0.985680
v -0.552017 4.605557 -0.993903
v -0.568609 4.585734 -0.951692
v -0.524006 4.565911 -0.943469
f 1465 1466 1470
f 1465 1470 1469
f 1466 1467 1471
f 1466 1471 1470
f 1467 1468 1472
f 1467 1472 1471
f 1468 1465 1469
f 1468 1469 1472
v -1.664872 4.029729 -1.163331
v -1.705611 4.053653 -1.148569
v -1.703971 4.029729 -1.105268
v -1.663232 4.005804 -1.120030
v -1.232969 4.585734 -0.872485
v -1.273708 4.609659 -0.857723
v -1.272068 4.585734 -0.814422
v -1.231329 4.561810 -0.829184
f 1473 1474 1478
f 1473 1478 1477
f 1474 1475 1479
f 1474 1479 1478
f 1475 1476 1480
f 1475 1480 1479
f 1476 1473 1477
f 1476 1477 1480
v -1.967026 4.585734 -0.683221
v -1.932026 4.585734 -0.718221
v -1.967026 4.585734 -0.753221
v -2.002026 4.585734 -0.718221
v -1.967026 5.222596 -0.683221
v -1.932026 5.222596 -0.718221
v -1.967026 5.222596 -0.753221
v -2.002026 5.222596 -0.718221
f 1481 1482 1486
f 1481 1486 1485
f 1482 1483 1487
f 1482 1487 1486
f 1483 1484 1488
f 1483 1488 1487
f 1484 1481 1485
f 1484 1485 1488
v -1.501318 4.585734 -0.127056
v -1.466318 4.585734 -0.162056
v -1.501318 4.585734 -0.197056
v -1.536318 4.585734 -0.162056
v -1.501318 5.222596 -0.127056
v -1.466318 5.222596 -0.162056
v -1.501318 5.222596 -0.197056
v -1.536318 5.222596 -0.162056
f 1489 1490 1494
f 1489 1494 1493
f 1490 1491 1495
f 1490 1495 1494
f 1491 1492 1496
f 1491 1496 1495
f 1492 1489 1493
f 1492 1493 1496
v -1.035609 4.585734 0.429109
v -1.000609 4.585734 0.394109
v -1.035609 4.585734 0.359109
v -1.070609 4.585734 0.394109
v -1.035609 5.222596 0.429109
v -1.000609 5.222596 0.394109
v -1.035609 5.222596 0.359109
v -1.070609 5.222596 0.394109
f 1497 1498 1502
f 1497 1502 1501
f 1498 1499 1503
f 1498 1503 1502
f 1499 1500 1504
f 1499 1504 1503
f 1500 1497 1501
f 1500 1501 1504
v -0.569901 4.585734 0.985275
v -0.534901 4.585734 0.950275
v -0.569901 4.585734 0.915275
v -0.604901 4.585734 0.950275
v -0.569901 5.222596 0.985275
v -0.534901 5.222596 0.950275
v -0.569901 5.222596 0.915275
v -0.604901 5.222596 0.950275
f 1505 1506 1510
f 1505 1510 1509
f 1506 1507 1511
f 1506 1511 1510
f 1507 1508 1512
f 1507 1512 1511
f 1508 1505 1509
f 1508 1509 1512
v -0.104193 4.585734 1.541440
v -0.069193 4.585734 1.506440
v -0.104193 4.585734 1.471440
v -0.139193 4.585734 1.506440
v -0.104193 5.222596 1.541440
v -0.069193 5.222596 1.506440
v -0.104193 5.222596 1.471440
v -0.139193 5.222596 1.506440
f 1513 1514 1518
f 1513 1518 1517
f 1514 1515 1519
f 1514 1519 1518
f 1515 1516 1520
f 1515 1520 1519
f 1516 1513 1517
f 1516 1517 1520
v 0.361515 4.585734 2.097605
v 0.396515 4.585734 2.062605
v 0.361515 4.585734 2.027605
v 0.326515 4.585734 2.062605
v 0.361515 5.222596 2.097605
v 0.396515 5.222596 2.062605
v 0.361515 5.222596 2.027605
v 0.326515 5.222596 2.062605
f 1521 1522 1526
f 1521 1526 1525
f 1522 1523 1527
f 1522 1527 1526
f 1523 1524 1528
f 1523 1528 1527
f 1524 1521 1525
f 1524 1525 1528
v 0.859113 4.585734 0.734809
v 0.894113 4.585734 0.699809
v 0.859113 4.585734 0.664809
v 0.824113 4.585734 0.699809
v 0.859113 5.222596 0.734809
v 0.894113 5.222596 0.699809
v 0.859113 5.222596 0.664809
v 0.824113 5.222596 0.699809
f 1529 1530 1534
f 1529 1534 1533
f 1530 1531 1535
f 1530 1535 1534
f 1531 1532 1536
f 1531 1536 1535
f 1532 1529 1533
f 1532 1533 1536
v 1.107912 4.585734 0.053412
v 1.142912 4.585734 0.018412
v 1.107912 4.585734 -0.016588
v 1.072912 4.585734 0.018412
v 1.107912 5.222596 0.053412
v 1.142912 5.222596 0.018412
v 1.107912 5.222596 -0.016588
v 1.072912 5.222596 0.018412
f 1537 1538 1542
f 1537 1542 1541
f 1538 1539 1543
f 1538 1543 1542
f 1539 1540 1544
f 1539 1544 1543
f 1540 1537 1541
f 1540 1541 1544
v 1.356712 4.585734 -0.627986
v 1.391712 4.585734 -0.662986
v 1.356712 4.585734 -0.697986
v 1.321712 4.585734 -0.662986
v 1.356712 5.222596 -0.627986
v 1.391712 5.222596 -0.662986
v 1.356712 5.222596 -0.697986
v 1.321712 5.222596 -0.662986
f 1545 1546 1550
f 1545 1550 1549
f 1546 1547 1551
f 1546 1551 1550
f 1547 1548 1552
f 1547 1552 1551
f 1548 1545 1549
f 1548 1549 1552
v 1.605511 4.585734 -1.309384
v 1.640511 4.585734 -1.344384
v 1.605511 4.585734 -1.379384
v 1.570511 4.585734 -1.344384
v 1.605511 5.222596 -1.309384
v 1.640511 5.222596 -1.344384
v 1.605511 5.222596 -1.379384
v 1.570511 5.222596 -1.344384
f 1553 1554 1558
f 1553 1558 1557
f 1554 1555 1559
f 1554 1559 1558
f 1555 1556 1560
f 1555 1560 1559
f 1556 1553 1557
f 1556 1557 1560
v 0.891003 4.585734 -1.184151
v 0.926003 4.585734 -1.219151
v 0.891003 4.585734 -1.254151
v 0.856003 4.585734 -1.219151
v 0.891003 5.222596 -1.184151
v 0.926003 5.222596 -1.219151
v 0.891003 5.222596 -1.254151
v 0.856003 5.222596 -1.219151
f 1561 1562 1566
f 1561 1566 1565
f 1562 1563 1567
f 1562 1567 1566
f 1563 1564 1568
f 1563 1568 1567
f 1564 1561 1565
f 1564 1565 1568
v -0.538011 4.585734 -0.933686
v -0.503011 4.585734 -0.968686
v -0.538011 4.585734 -1.003686
v -0.573011 4.585734 -0.968686
v -0.538011 5.222596 -0.933686
v -0.503011 5.222596 -0.968686
v -0.538011 5.222596 -1.003686
v -0.573011 5.222596 -0.968686
f 1569 1570 1574
f 1569 1574 1573
f 1570 1571 1575
f 1570 1575 1574
f 1571 1572 1576
f 1571 1576 1575
f 1572 1569 1573
f 1572 1573 1576
v -1.252519 4.585734 -0.808454
v -1.217519 4.585734 -0.843454
v -1.252519 4.585734 -0.878454
v -1.287519 4.585734 -0.843454
v -1.252519 5.222596 -0.808454
v -1.217519 5.222596 -0.843454
v -1.252519 5.222596 -0.878454
v -1.287519 5.222596 -0.843454
f 1577 1578 1582
f 1577 1582 1581
f 1578 1579 1583
f 1578 1583 1582
f 1579 1580 1584
f 1579 1584 1583
f 1580 1577 1581
f 1580 1581 1584
v -1.955022 5.222596 -0.751098
v -1.992095 5.245240 -0.727374
v -1.979030 5.222596 -0.685344
v -1.941957 5.199951 -0.709067
v -1.480222 5.818316 -0.577734
v -1.517296 5.840960 -0.554011
v -1.504231 5.818316 -0.511980
v -1.467158 5.795672 -0.535704
f 1585 1586 1590
f 1585 1590 1589
f 1586 1587 1591
f 1586 1591 1590
f 1587 1588 1592
f 1587 1592 1591
f 1588 1585 1589
f 1588 1589 1592
v -1.497562 5.222596 -0.196854
v -1.531000 5.240862 -0.165260
v -1.505074 5.222596 -0.127258
v -1.471635 5.204329 -0.158852
v -1.135174 5.818316 -0.157737
v -1.168613 5.836583 -0.126143
v -1.142687 5.818316 -0.088141
v -1.109248 5.800049 -0.119735
f 1593 1594 1598
f 1593 1598 1597
f 1594 1595 1599
f 1594 1599 1598
f 1595 1596 1600
f 1595 1600 1599
f 1596 1593 1597
f 1596 1597 1600
v -1.035609 5.228115 0.428672
v -1.003275 5.209365 0.396222
v -1.035609 5.217076 0.359547
v -1.067943 5.235826 0.391997
v -0.785635 5.823835 0.333542
v -0.753301 5.805085 0.301092
v -0.785635 5.812797 0.264417
v -0.817969 5.831546 0.296867
f 1601 1602 1606
f 1601 1606 1605
f 1602 1603 1607
f 1602 1607 1606
f 1603 1604 1608
f 1603 1608 1607
f 1604 1601 1605
f 1604 1605 1608
v -0.569901 5.235172 0.982937
v -0.535687 5.215715 0.952924
v -0.569901 5.210019 0.917612
v -0.604116 5.229476 0.947625
v -0.432339 5.830892 0.753560
v -0.398124 5.811435 0.723547
v -0.432339 5.805740 0.688236
v -0.466553 5.825197 0.718249
f 1609 1610 1614
f 1609 1614 1613
f 1610 1611 1615
f 1610 1615 1614
f 1611 1612 1616
f 1611 1616 1615
f 1612 1609 1613
f 1612 1613 1616
v -0.139109 5.222596 1.504025
v -0.106253 5.240862 1.536224
v -0.069276 5.222596 1.508855
v -0.102133 5.204329 1.476656
v -0.113959 5.818316 1.140401
v -0.081103 5.836583 1.172600
v -0.044126 5.818316 1.145231
v -0.076983 5.800049 1.113032
f 1617 1618 1622
f 1617 1622 1621
f 1618 1619 1623
f 1618 1623 1622
f 1619 1620 1624
f 1619 1624 1623
f 1620 1617 1621
f 1620 1621 1624
v 0.859113 5.232144 0.733482
v 0.892302 5.233289 0.696777
v 0.859113 5.213048 0.666137
v 0.825925 5.211902 0.702841
v 0.651741 5.827864 0.564562
v 0.684930 5.829009 0.527858
v 0.651741 5.808768 0.497217
v 0.618553 5.807623 0.533922
f 1625 1626 1630
f 1625 1630 1629
f 1626 1627 1631
f 1626 1631 1630
f 1627 1628 1632
f 1627 1632 1631
f 1628 1625 1629
f 1628 1629 1632
v 1.107912 5.222857 0.053411
v 1.139843 5.236929 0.018305
v 1.107912 5.222335 -0.016587
v 1.075982 5.208262 0.018519
v 0.840485 5.818577 0.048966
v 0.872416 5.832649 0.013860
v 0.840485 5.818055 -0.021032
v 0.808555 5.803983 0.014074
f 1633 1634 1638
f 1633 1638 1637
f 1634 1635 1639
f 1634 1639 1638
f 1635 1636 1640
f 1635 1640 1639
f 1636 1633 1637
f 1636 1637 1640
v 1.372078 5.222596 -0.631540
v 1.383535 5.240862 -0.676094
v 1.341345 5.222596 -0.694432
v 1.329888 5.204329 -0.649878
v 1.044596 5.818316 -0.471509
v 1.056053 5.836583 -0.516063
v 1.013863 5.818316 -0.534401
v 1.002406 5.800049 -0.489847
f 1641 1642 1646
f 1641 1646 1645
f 1642 1643 1647
f 1642 1647 1646
f 1643 1644 1648
f 1643 1648 1647
f 1644 1641 1645
f 1644 1645 1648
v 1.627981 5.222596 -1.317549
v 1.625972 5.245240 -1.361518
v 1.583040 5.222596 -1.371219
v 1.585049 5.199951 -1.327250
v 1.240444 5.818316 -0.993043
v 1.238435 5.840960 -1.037011
v 1.195503 5.818316 -1.046712
v 1.197512 5.795672 -1.002744
f 1649 1650 1654
f 1649 1654 1653
f 1650 1651 1655
f 1650 1655 1654
f 1651 1652 1656
f 1651 1656 1655
f 1652 1649 1653
f 1652 1653 1656
v 0.919261 5.222596 -1.198500
v 0.908619 5.240862 -1.243255
v 0.862745 5.222596 -1.239803
v 0.873387 5.204329 -1.195047
v 0.704191 5.818316 -0.904222
v 0.693550 5.836583 -0.948977
v 0.647676 5.818316 -0.945525
v 0.658317 5.800049 -0.900770
f 1657 1658 1662
f 1657 1662 1661
f 1658 1659 1663
f 1658 1663 1662
f 1659 1660 1664
f 1659 1664 1663
f 1660 1657 1661
f 1660 1661 1664
v -1.232969 5.222596 -0.872485
v -1.277282 5.240862 -0.860129
v -1.272068 5.222596 -0.814422
v -1.227755 5.204329 -0.826778
v -0.930637 5.818316 -0.668892
v -0.974950 5.836583 -0.656537
v -0.969736 5.818316 -0.610830
v -0.925423 5.800049 -0.623185
f 1665 1666 1670
f 1665 1670 1669
f 1666 1667 1671
f 1666 1671 1670
f 1667 1668 1672
f 1667 1672 1671
f 1668 1665 1669
f 1668 1669 1672
v -1.480222 5.818316 -0.577734
v -1.508071 5.848983 -0.550642
v -1.504231 5.818316 -0.511980
v -1.476383 5.787648 -0.539072
v -0.734109 6.255177 -0.305306
v -0.761957 6.285845 -0.278214
v -0.758118 6.255177 -0.239552
v -0.730269 6.224510 -0.266643
f 1673 1674 1678
f 1673 1678 1677
f 1674 1675 1679
f 1674 1679 1678
f 1675 1676 1680
f 1675 1680 1679
f 1676 1673 1677
f 1676 1677 1680
v -1.135174 5.818316 -0.157737
v -1.160034 5.846145 -0.125217
v -1.142687 5.818316 -0.088141
v -1.117828 5.790487 -0.120661
v -0.565709 6.255177 -0.096267
v -0.590568 6.283007 -0.063747
v -0.573221 6.255177 -0.026672
v -0.548362 6.227348 -0.059192
f 1681 1682 1686
f 1681 1686 1685
f 1682 1683 1687
f 1682 1687 1686
f 1683 1684 1688
f 1683 1688 1687
f 1684 1681 1685
f 1684 1685 1688
v -0.798083 5.818316 0.266268
v -0.809208 5.842582 0.307950
v -0.773186 5.818316 0.331691
v -0.762062 5.794050 0.290009
v -0.405266 6.255177 0.116778
v -0.416390 6.279443 0.158461
v -0.380369 6.255177 0.182201
v -0.369244 6.230911 0.140519
f 1689 1690 1694
f 1689 1694 1693
f 1690 1691 1695
f 1690 1695 1694
f 1691 1692 1696
f 1691 1696 1695
f 1692 1689 1693
f 1692 1693 1696
v -0.462355 5.818316 0.702897
v -0.445311 5.842582 0.742528
v -0.402323 5.818316 0.738899
v -0.419366 5.794050 0.699267
v -0.246185 6.255177 0.342448
v -0.229142 6.279443 0.382079
v -0.186153 6.255177 0.378450
v -0.203197 6.230911 0.338818
f 1697 1698 1702
f 1697 1702 1701
f 1698 1699 1703
f 1698 1703 1702
f 1699 1700 1704
f 1699 1704 1703
f 1700 1697 1701
f 1700 1701 1704
v -0.113959 5.818316 1.140401
v -0.080507 5.846145 1.163992
v -0.044126 5.818316 1.145231
v -0.077578 5.790487 1.121641
v -0.074438 6.255177 0.568993
v -0.040986 6.283007 0.592583
v -0.004605 6.255177 0.573823
v -0.038057 6.227348 0.550233
f 1705 1706 1710
f 1705 1710 1709
f 1706 1707 1711
f 1706 1711 1710
f 1707 1708 1712
f 1707 1712 1711
f 1708 1705 1709
f 1708 1709 1712
v 0.239779 5.818316 1.570777
v 0.277165 5.848983 1.581349
v 0.308728 5.818316 1.558692
v 0.271341 5.787648 1.548121
v 0.102652 6.255177 0.788410
v 0.140038 6.285845 0.798981
v 0.171601 6.255177 0.776325
v 0.134215 6.224510 0.765753
f 1713 1714 1718
f 1713 1718 1717
f 1714 1715 1719
f 1714 1719 1718
f 1715 1716 1720
f 1715 1720 1719
f 1716 1713 1717
f 1716 1717 1720
v 0.430983 5.818316 1.061958
v 0.471576 5.846145 1.067227
v 0.495011 5.818316 1.033666
v 0.454418 5.790487 1.028397
v 0.199485 6.255177 0.538052
v 0.240077 6.283007 0.543321
v 0.263512 6.255177 0.509760
v 0.222920 6.227348 0.504491
f 1721 1722 1726
f 1721 1726 1725
f 1722 1723 1727
f 1722 1727 1726
f 1723 1724 1728
f 1723 1728 1727
f 1724 1721 1725
f 1724 1725 1728
v 0.629637 5.818316 0.558026
v 0.671297 5.842582 0.546819
v 0.673846 5.818316 0.503753
v 0.632186 5.794050 0.514961
v 0.303766 6.255177 0.292581
v 0.345426 6.279443 0.281374
v 0.347975 6.255177 0.238308
v 0.306315 6.230911 0.249516
f 1729 1730 1734
f 1729 1734 1733
f 1730 1731 1735
f 1730 1735 1734
f 1731 1732 1736
f 1731 1736 1735
f 1732 1729 1733
f 1732 1733 1736
v 0.839904 5.818316 0.048963
v 0.865704 5.842582 0.014386
v 0.841067 5.818316 -0.021028
v 0.815267 5.794050 0.013548
v 0.419661 6.255177 0.041979
v 0.445461 6.279443 0.007403
v 0.420824 6.255177 -0.028011
v 0.395024 6.230911 0.006565
f 1737 1738 1742
f 1737 1742 1741
f 1738 1739 1743
f 1738 1743 1742
f 1739 1740 1744
f 1739 1744 1743
f 1740 1737 1741
f 1740 1741 1744
v 1.044596 5.818316 -0.471509
v 1.048300 5.846145 -0.512274
v 1.013863 5.818316 -0.534401
v 1.010159 5.790487 -0.493636
v 0.529982 6.255177 -0.220031
v 0.533685 6.283007 -0.260797
v 0.499248 6.255177 -0.282924
v 0.495544 6.227348 -0.242158
f 1745 1746 1750
f 1745 1750 1749
f 1746 1747 1751
f 1746 1751 1750
f 1747 1748 1752
f 1747 1752 1751
f 1748 1745 1749
f 1748 1749 1752
v 1.240444 5.818316 -0.993043
v 1.230906 5.848983 -1.030706
v 1.195503 5.818316 -1.046712
v 1.205041 5.787648 -1.009049
v 0.631457 6.255177 -0.483104
v 0.621919 6.285845 -0.520768
v 0.586517 6.255177 -0.536773
v 0.596055 6.224510 -0.499110
f 1753 1754 1758
f 1753 1758 1757
f 1754 1755 1759
f 1754 1759 1758
f 1755 1756 1760
f 1755 1760 1759
f 1756 1753 1757
f 1756 1757 1760
v 0.168447 5.818316 -0.824295
v 0.137911 5.842582 -0.854770
v 0.099340 5.818316 -0.835444
v 0.129876 5.794050 -0.804969
v 0.101500 6.255177 -0.409360
v 0.070964 6.279443 -0.439835
v 0.032394 6.255177 -0.420510
v 0.062929 6.230911 -0.390035
f 1761 1762 1766
f 1761 1766 1765
f 1762 1763 1767
f 1762 1767 1766
f 1763 1764 1768
f 1763 1768 1767
f 1764 1761 1765
f 1764 1765 1768
v -0.377549 5.818316 -0.751859
v -0.420393 5.842582 -0.756915
v -0.438744 5.818316 -0.717871
v -0.395900 5.794050 -0.712816
v -0.173476 6.255177 -0.384427
v -0.216320 6.279443 -0.389482
v -0.234671 6.255177 -0.350439
v -0.191827 6.230911 -0.345383
f 1769 1770 1774
f 1769 1774 1773
f 1770 1771 1775
f 1770 1775 1774
f 1771 1772 1776
f 1771 1776 1775
f 1772 1769 1773
f 1772 1773 1776
v -0.930637 5.818316 -0.668892
v -0.967792 5.846145 -0.651717
v -0.969736 5.818316 -0.610830
v -0.932581 5.790487 -0.628005
v -0.455544 6.255177 -0.348962
v -0.492699 6.283007 -0.331787
v -0.494643 6.255177 -0.290900
v -0.457487 6.227348 -0.308075
f 1777 1778 1782
f 1777 1782 1781
f 1778 1779 1783
f 1778 1783 1782
f 1779 1780 1784
f 1779 1784 1783
f 1780 1777 1781
f 1780 1781 1784
v -0.734109 6.255177 -0.305306
v -0.754087 6.289132 -0.275340
v -0.758118 6.255177 -0.239552
v -0.738139 6.221222 -0.269517
v 0.012004 6.453751 -0.032877
v -0.007974 6.487706 -0.002911
v -0.012004 6.453751 0.032877
v 0.007974 6.419796 0.002911
f 1785 1786 1790
f 1785 1790 1789
f 1786 1787 1791
f 1786 1791 1790
f 1787 1788 1792
f 1787 1792 1791
f 1788 1785 1789
f 1788 1789 1792
v -0.565709 6.255177 -0.096267
v -0.580864 6.288246 -0.062700
v -0.573221 6.255177 -0.026672
v -0.558067 6.222108 -0.060239
v 0.003756 6.453751 -0.034798
v -0.011398 6.486820 -0.001230
v -0.003756 6.453751 0.034798
v 0.011398 6.420682 0.001230
f 1793 1794 1798
f 1793 1798 1797
f 1794 1795 1799
f 1794 1799 1798
f 1795 1796 1800
f 1795 1800 1799
f 1796 1793 1797
f 1796 1797 1800
v -0.405266 6.255177 0.116778
v -0.406791 6.286823 0.154808
v -0.380369 6.255177 0.182201
v -0.378844 6.223532 0.144172
v -0.012449 6.453751 -0.032711
v -0.013974 6.485397 0.005318
v 0.012449 6.453751 0.032711
v 0.013974 6.422105 -0.005318
f 1801 1802 1806
f 1801 1806 1805
f 1802 1803 1807
f 1802 1807 1806
f 1803 1804 1808
f 1803 1808 1807
f 1804 1801 1805
f 1804 1805 1808
v -0.246185 6.255177 0.342448
v -0.223859 6.286823 0.373271
v -0.186153 6.255177 0.378450
v -0.208480 6.223532 0.347627
v -0.030016 6.453751 -0.018001
v -0.007690 6.485397 0.012822
v 0.030016 6.453751 0.018001
v 0.007690 6.422105 -0.012822
f 1809 1810 1814
f 1809 1814 1813
f 1810 1811 1815
f 1810 1815 1814
f 1811 1812 1816
f 1811 1816 1815
f 1812 1809 1813
f 1812 1813 1816
v -0.074438 6.255177 0.568993
v -0.040312 6.288246 0.582845
v -0.004605 6.255177 0.573823
v -0.038730 6.222108 0.559971
v -0.034917 6.453751 -0.002415
v -0.000791 6.486820 0.011437
v 0.034917 6.453751 0.002415
v 0.000791 6.420682 -0.011437
f 1817 1818 1822
f 1817 1822 1821
f 1818 1819 1823
f 1818 1823 1822
f 1819 1820 1824
f 1819 1824 1823
f 1820 1817 1821
f 1820 1821 1824
v 0.102652 6.255177 0.788410
v 0.138592 6.289132 0.790729
v 0.171601 6.255177 0.776325
v 0.135661 6.221222 0.774006
v -0.034474 6.453751 0.006042
v 0.001465 6.487706 0.008361
v 0.034474 6.453751 -0.006042
v -0.001465 6.419796 -0.008361
f 1825 1826 1830
f 1825 1830 1829
f 1826 1827 1831
f 1826 1831 1830
f 1827 1828 1832
f 1827 1832 1831
f 1828 1825 1829
f 1828 1829 1832
v 0.199485 6.255177 0.538052
v 0.236132 6.288246 0.534393
v 0.263512 6.255177 0.509760
v 0.226865 6.222108 0.513420
v -0.032014 6.453751 0.014146
v 0.004634 6.486820 0.010487
v 0.032014 6.453751 -0.014146
v -0.004634 6.420682 -0.010487
f 1833 1834 1838
f 1833 1838 1837
f 1834 1835 1839
f 1834 1839 1838
f 1835 1836 1840
f 1835 1840 1839
f 1836 1833 1837
f 1836 1837 1840
v 0.303766 6.255177 0.292581
v 0.337463 6.286823 0.274888
v 0.347975 6.255177 0.238308
v 0.314279 6.223532 0.256002
v -0.022105 6.453751 0.027136
v 0.011592 6.485397 0.009443
v 0.022105 6.453751 -0.027136
v -0.011592 6.422105 -0.009443
f 1841 1842 1846
f 1841 1846 1845
f 1842 1843 1847
f 1842 1847 1846
f 1843 1844 1848
f 1843 1848 1847
f 1844 1841 1845
f 1844 1845 1848
v 0.419661 6.255177 0.041979
v 0.435192 6.286823 0.007232
v 0.420824 6.255177 -0.028011
v 0.405293 6.223532 0.006735
v -0.000582 6.453751 0.034995
v 0.014949 6.485397 0.000248
v 0.000582 6.453751 -0.034995
v -0.014949 6.422105 -0.000248
f 1849 1850 1854
f 1849 1854 1853
f 1850 1851 1855
f 1850 1855 1854
f 1851 1852 1856
f 1851 1856 1855
f 1852 1849 1853
f 1852 1853 1856
v 0.529982 6.255177 -0.220031
v 0.524915 6.288246 -0.256511
v 0.499248 6.255177 -0.282924
v 0.504314 6.222108 -0.246444
v 0.015367 6.453751 0.031446
v 0.010301 6.486820 -0.005034
v -0.015367 6.453751 -0.031446
v -0.010301 6.420682 0.005034
f 1857 1858 1862
f 1857 1862 1861
f 1858 1859 1863
f 1858 1863 1862
f 1859 1860 1864
f 1859 1864 1863
f 1860 1857 1861
f 1860 1861 1864
v 0.366225 6.255177 -0.441785
v 0.344731 6.288246 -0.471693
v 0.309709 6.255177 -0.483089
v 0.331202 6.222108 -0.453181
v 0.028258 6.453751 0.020652
v 0.006765 6.486820 -0.009256
v -0.028258 6.453751 -0.020652
v -0.006765 6.420682 0.009256
f 1865 1866 1870
f 1865 1870 1869
f 1866 1867 1871
f 1866 1871 1870
f 1867 1868 1872
f 1867 1872 1871
f 1868 1865 1869
f 1868 1869 1872
v 0.101500 6.255177 -0.409360
v 0.069328 6.286823 -0.429695
v 0.032394 6.255177 -0.420510
v 0.064565 6.223532 -0.400174
v 0.034553 6.453751 0.005575
v 0.002381 6.485397 -0.014760
v -0.034553 6.453751 -0.005575
v -0.002381 6.422105 0.014760
f 1873 1874 1878
f 1873 1878 1877
f 1874 1875 1879
f 1874 1879 1878
f 1875 1876 1880
f 1875 1880 1879
f 1876 1873 1877
f 1876 1877 1880
v -0.173476 6.255177 -0.384427
v -0.211333 6.286823 -0.380503
v -0.234671 6.255177 -0.350439
v -0.196814 6.223532 -0.354362
v 0.030597 6.453751 -0.016994
v -0.007259 6.485397 -0.013071
v -0.030597 6.453751 0.016994
v 0.007259 6.422105 0.013071
f 1881 1882 1886
f 1881 1886 1885
f 1882 1883 1887
f 1882 1887 1886
f 1883 1884 1888
f 1883 1888 1887
f 1884 1881 1885
f 1884 1885 1888
v -0.455544 6.255177 -0.348962
v -0.484603 6.288246 -0.326334
v -0.494643 6.255177 -0.290900
v -0.465584 6.222108 -0.313527
v 0.019550 6.453751 -0.029031
v -0.009509 6.486820 -0.006404
v -0.019550 6.453751 0.029031
v 0.009509 6.420682 0.006404
f 1889 1890 1894
f 1889 1894 1893
f 1890 1891 1895
f 1890 1895 1894
f 1891 1892 1896
f 1891 1896 1895
f 1892 1889 1893
f 1892 1893 1896
v 0.000000 6.453751 0.030000
v 0.030000 6.453751 0.000000
v 0.000000 6.453751 -0.030000
v -0.030000 6.453751 -0.000000
v 0.000000 7.614793 0.030000
v 0.030000 7.614793 0.000000
v 0.000000 7.614793 -0.030000
v -0.030000 7.614793 -0.000000
f 1897 1898 1902
f 1897 1902 1901
f 1898 1899 1903
f 1898 1903 1902
f 1899 1900 1904
f 1899 1904 1903
f 1900 1897 1901
f 1900 1901 1904
