o mesh
v 0.783910 3.150000 -2.671421
v 0.298070 3.150000 -2.768060
v 0.235641 1.809181 -2.454209
v 0.721481 1.809181 -2.357569
f 1 2 3
f 1 3 4
v -0.795972 3.150000 2.669021
v -0.286008 3.150000 2.770460
v -0.223579 1.825029 2.456608
v -0.733543 1.825029 2.355170
f 5 6 7
f 5 7 8
v -0.809408 6.550000 2.633885
v -0.260149 6.550000 2.743139
v -0.197720 5.468285 2.429288
v -0.746979 5.468285 2.320034
f 9 10 11
f 9 11 12
v 1.714130 6.550000 -2.151448
v 1.331709 6.550000 -2.406973
v 1.153927 5.358171 -2.140903
v 1.536348 5.358171 -1.885377
f 13 14 15
f 13 15 16
v 2.601115 9.950000 0.810948
v 2.713453 9.950000 0.246186
v 2.399601 8.786153 0.183757
v 2.287263 8.786153 0.748519
f 17 18 19
f 17 19 20
v 1.298078 9.950000 2.391151
v 1.712383 9.950000 2.114322
v 1.534600 9.003940 1.848251
v 1.120296 9.003940 2.125081
f 21 22 23
f 21 23 24
v -2.352951 9.950000 1.355248
v -2.152521 9.950000 1.655213
v -1.886451 8.924127 1.477430
v -2.086881 8.924127 1.177465
f 25 26 27
f 25 27 28
v 2.612852 9.950000 0.751937
v 2.701715 9.950000 0.305196
v 2.387864 8.590543 0.242767
v 2.299001 8.590543 0.689508
f 29 30 31
f 29 31 32
v -2.119698 13.350000 -1.647026
v -2.332827 13.350000 -1.328056
v -2.066756 12.111306 -1.150273
v -1.853627 12.111306 -1.469243
f 33 34 35
f 33 35 36
v -1.247144 13.350000 -2.386890
v -1.727938 13.350000 -2.065634
v -1.550155 12.020172 -1.799564
v -1.069361 12.020172 -2.120820
f 37 38 39
f 37 39 40
v -2.054497 16.750000 -1.687295
v -2.345080 16.750000 -1.252407
v -2.079009 15.674296 -1.074625
v -1.788426 15.674296 -1.509513
f 41 42 43
f 41 43 44
v 2.342806 16.750000 -1.255809
v 2.056770 16.750000 -1.683893
v 1.790700 15.433140 -1.506111
v 2.076736 15.433140 -1.078027
f 45 46 47
f 45 47 48
v 0.696031 16.750000 -2.559045
v 0.336255 16.750000 -2.630609
v 0.273826 15.630924 -2.316758
v 0.633602 15.630924 -2.245194
f 49 50 51
f 49 51 52
