o mesh
v 0.000000 0.000000 0.012284
v 0.008686 0.000000 0.008686
v 0.012284 0.000000 0.000000
v 0.008686 0.000000 -0.008686
v 0.000000 0.000000 -0.012284
v -0.008686 0.000000 -0.008686
v -0.012284 0.000000 -0.000000
v -0.008686 0.000000 0.008686
v 0.000000 0.107461 0.011056
v 0.007818 0.107461 0.007818
v 0.011056 0.107461 0.000000
v 0.007818 0.107461 -0.007818
v 0.000000 0.107461 -0.011056
v -0.007818 0.107461 -0.007818
v -0.011056 0.107461 -0.000000
v -0.007818 0.107461 0.007818
f 1 2 10
f 1 10 9
f 2 3 11
f 2 11 10
f 3 4 12
f 3 12 11
f 4 5 13
f 4 13 12
f 5 6 14
f 5 14 13
f 6 7 15
f 6 15 14
f 7 8 16
f 7 16 15
f 8 1 9
f 8 9 16
v 0.065417 0.107461 -0.000000
v 0.063375 0.107461 -0.026251
v 0.050737 0.107461 -0.050737
v 0.026251 0.107461 -0.063375
v 0.000000 0.107461 -0.065417
v -0.026251 0.107461 -0.063375
v -0.050737 0.107461 -0.050737
v -0.063375 0.107461 -0.026251
v -0.065417 0.107461 -0.000000
v -0.063375 0.107461 0.026251
v -0.050737 0.107461 0.050737
v -0.026251 0.107461 0.063375
v -0.000000 0.107461 0.065417
v 0.026251 0.107461 0.063375
v 0.050737 0.107461 0.050737
v 0.063375 0.107461 0.026251
v 0.000000 0.149759 -0.000000
f 17 18 33
f 18 19 33
f 19 20 33
f 20 21 33
f 21 22 33
f 22 23 33
f 23 24 33
f 24 25 33
f 25 26 33
f 26 27 33
f 27 28 33
f 28 29 33
f 29 30 33
f 30 31 33
f 31 32 33
f 32 17 33
