o mesh
v 0.000000 0.000000 0.015000
v 0.010607 0.000000 0.010607
v 0.015000 0.000000 0.000000
v 0.010607 0.000000 -0.010607
v 0.000000 0.000000 -0.015000
v -0.010607 0.000000 -0.010607
v -0.015000 0.000000 -0.000000
v -0.010607 0.000000 0.010607
v 0.000000 0.040000 0.012000
v 0.008485 0.040000 0.008485
v 0.012000 0.040000 0.000000
v 0.008485 0.040000 -0.008485
v 0.000000 0.040000 -0.012000
v -0.008485 0.040000 -0.008485
v -0.012000 0.040000 -0.000000
v -0.008485 0.040000 0.008485
f 1 2 10
f 1 10 9
f 2 3 11
f 2 11 10
f 3 4 12
f 3 12 11
f 4 5 13
f 4 13 12
f 5 6 14
f 5 14 13
f 6 7 15
f 6 15 14
f 7 8 16
f 7 16 15
f 8 1 9
f 8 9 16
v 0.000000 0.040000 -0.000000
v 0.004602 0.029310 0.007222
v 0.011840 0.018621 0.013994
v 0.020519 0.007931 0.020521
v 0.029994 -0.002758 0.026911
v 0.039735 -0.013448 0.033257
v 0.049263 -0.024138 0.039639
v 0.058148 -0.034827 0.046130
v 0.066012 -0.045517 0.052795
v 0.072536 -0.056207 0.059690
v 0.077470 -0.066896 0.066855
v 0.080644 -0.077586 0.074320
v 0.081971 -0.088275 0.082101
v 0.081451 -0.098965 0.090196
v 0.079171 -0.109655 0.098592
v 0.075302 -0.120344 0.107259
v 0.070092 -0.131034 0.116154
v 0.063861 -0.141724 0.125224
v 0.056987 -0.152413 0.134404
v 0.049901 -0.163103 0.143619
v 0.043080 -0.173792 0.152790
v 0.037055 -0.184482 0.161824
v 0.032471 -0.195172 0.170613
v 0.030524 -0.205861 0.178952
v 0.025922 -0.195172 0.171730
v 0.018684 -0.184482 0.164958
v 0.010005 -0.173792 0.158431
v 0.000529 -0.163103 0.152040
v -0.009211 -0.152413 0.145695
v -0.018739 -0.141724 0.139313
v -0.027625 -0.131034 0.132822
v -0.035489 -0.120344 0.126156
v -0.042012 -0.109655 0.119262
v -0.046947 -0.098965 0.112097
v -0.050121 -0.088275 0.104632
v -0.051448 -0.077586 0.096851
v -0.050928 -0.066896 0.088755
v -0.048648 -0.056207 0.080360
v -0.044778 -0.045517 0.071693
v -0.039569 -0.034827 0.062797
v -0.033337 -0.024138 0.053728
v -0.026463 -0.013448 0.044548
v -0.019377 -0.002758 0.035333
v -0.012556 0.007931 0.026162
v -0.006531 0.018621 0.017128
v -0.001947 0.029310 0.008339
f 17 18 19
f 17 19 18
f 17 19 20
f 17 20 19
f 17 20 21
f 17 21 20
f 17 21 22
f 17 22 21
f 17 22 23
f 17 23 22
f 17 23 24
f 17 24 23
f 17 24 25
f 17 25 24
f 17 25 26
f 17 26 25
f 17 26 27
f 17 27 26
f 17 27 28
f 17 28 27
f 17 28 29
f 17 29 28
f 17 29 30
f 17 30 29
f 17 30 31
f 17 31 30
f 17 31 32
f 17 32 31
f 17 32 33
f 17 33 32
f 17 33 34
f 17 34 33
f 17 34 35
f 17 35 34
f 17 35 36
f 17 36 35
f 17 36 37
f 17 37 36
f 17 37 38
f 17 38 37
f 17 38 39
f 17 39 38
f 17 39 40
f 17 40 39
f 17 40 41
f 17 41 40
f 17 41 42
f 17 42 41
f 17 42 43
f 17 43 42
f 17 43 44
f 17 44 43
f 17 44 45
f 17 45 44
f 17 45 46
f 17 46 45
f 17 46 47
f 17 47 46
f 17 47 48
f 17 48 47
f 17 48 49
f 17 49 48
f 17 49 50
f 17 50 49
f 17 50 51
f 17 51 50
f 17 51 52
f 17 52 51
f 17 52 53
f 17 53 52
f 17 53 54
f 17 54 53
f 17 54 55
f 17 55 54
f 17 55 56
f 17 56 55
f 17 56 57
f 17 57 56
f 17 57 58
f 17 58 57
f 17 58 59
f 17 59 58
f 17 59 60
f 17 60 59
f 17 60 61
f 17 61 60
f 17 61 62
f 17 62 61
v 0.000000 0.040000 -0.000000
v 0.008158 0.028590 0.000060
v 0.017423 0.017180 -0.002430
v 0.027316 0.005770 -0.006371
v 0.037572 -0.005640 -0.011146
v 0.047963 -0.017050 -0.016234
v 0.058286 -0.028460 -0.021163
v 0.068353 -0.039870 -0.025504
v 0.078000 -0.051280 -0.028875
v 0.087086 -0.062690 -0.030954
v 0.095502 -0.074100 -0.031489
v 0.103174 -0.085510 -0.030307
v 0.110062 -0.096920 -0.027319
v 0.116166 -0.108330 -0.022525
v 0.121526 -0.119740 -0.016014
v 0.126215 -0.131150 -0.007958
v 0.130344 -0.142560 0.001389
v 0.134053 -0.153970 0.011706
v 0.137506 -0.165380 0.022611
v 0.140890 -0.176790 0.033676
v 0.144411 -0.188200 0.044426
v 0.148293 -0.199610 0.054344
v 0.152804 -0.211020 0.062810
v 0.158422 -0.222430 0.068726
v 0.150263 -0.211020 0.068666
v 0.140999 -0.199610 0.071156
v 0.131105 -0.188200 0.075097
v 0.120850 -0.176790 0.079872
v 0.110458 -0.165380 0.084960
v 0.100135 -0.153970 0.089889
v 0.090068 -0.142560 0.094230
v 0.080422 -0.131150 0.097601
v 0.071335 -0.119740 0.099680
v 0.062919 -0.108330 0.100215
v 0.055248 -0.096920 0.099033
v 0.048360 -0.085510 0.096045
v 0.042255 -0.074100 0.091251
v 0.036896 -0.062690 0.084740
v 0.032206 -0.051280 0.076684
v 0.028077 -0.039870 0.067337
v 0.024369 -0.028460 0.057020
v 0.020916 -0.017050 0.046115
v 0.017531 -0.005640 0.035050
v 0.014011 0.005770 0.024300
v 0.010129 0.017180 0.014383
v 0.005618 0.028590 0.005916
f 63 64 65
f 63 65 64
f 63 65 66
f 63 66 65
f 63 66 67
f 63 67 66
f 63 67 68
f 63 68 67
f 63 68 69
f 63 69 68
f 63 69 70
f 63 70 69
f 63 70 71
f 63 71 70
f 63 71 72
f 63 72 71
f 63 72 73
f 63 73 72
f 63 73 74
f 63 74 73
f 63 74 75
f 63 75 74
f 63 75 76
f 63 76 75
f 63 76 77
f 63 77 76
f 63 77 78
f 63 78 77
f 63 78 79
f 63 79 78
f 63 79 80
f 63 80 79
f 63 80 81
f 63 81 80
f 63 81 82
f 63 82 81
f 63 82 83
f 63 83 82
f 63 83 84
f 63 84 83
f 63 84 85
f 63 85 84
f 63 85 86
f 63 86 85
f 63 86 87
f 63 87 86
f 63 87 88
f 63 88 87
f 63 88 89
f 63 89 88
f 63 89 90
f 63 90 89
f 63 90 91
f 63 91 90
f 63 91 92
f 63 92 91
f 63 92 93
f 63 93 92
f 63 93 94
f 63 94 93
f 63 94 95
f 63 95 94
f 63 95 96
f 63 96 95
f 63 96 97
f 63 97 96
f 63 97 98
f 63 98 97
f 63 98 99
f 63 99 98
f 63 99 100
f 63 100 99
f 63 100 101
f 63 101 100
f 63 101 102
f 63 102 101
f 63 102 103
f 63 103 102
f 63 103 104
f 63 104 103
f 63 104 105
f 63 105 104
f 63 105 106
f 63 106 105
f 63 106 107
f 63 107 106
f 63 107 108
f 63 108 107
v 0.000000 0.040000 -0.000000
v 0.001451 0.030699 -0.008060
v 0.000999 0.021398 -0.017439
v -0.000409 0.012097 -0.027480
v -0.002300 0.002795 -0.037856
v -0.004296 -0.006506 -0.048304
v -0.006068 -0.015807 -0.058598
v -0.007322 -0.025108 -0.068532
v -0.007802 -0.034409 -0.077930
v -0.007296 -0.043710 -0.086646
v -0.005639 -0.053011 -0.094563
v -0.002717 -0.062312 -0.101604
v 0.001527 -0.071614 -0.107728
v 0.007093 -0.080915 -0.112937
v 0.013923 -0.090216 -0.117270
v 0.021906 -0.099517 -0.120804
v 0.030874 -0.108818 -0.123655
v 0.040616 -0.118119 -0.125970
v 0.050876 -0.127420 -0.127927
v 0.061360 -0.136722 -0.129727
v 0.071739 -0.146023 -0.131601
v 0.081635 -0.155324 -0.133810
v 0.090575 -0.164625 -0.136680
v 0.097612 -0.173926 -0.140870
v 0.096160 -0.164625 -0.132810
v 0.096613 -0.155324 -0.123431
v 0.098021 -0.146023 -0.113390
v 0.099911 -0.136722 -0.103015
v 0.101908 -0.127420 -0.092566
v 0.103679 -0.118119 -0.082273
v 0.104933 -0.108818 -0.072338
v 0.105414 -0.099517 -0.062940
v 0.104908 -0.090216 -0.054225
v 0.103251 -0.080915 -0.046307
v 0.100329 -0.071614 -0.039267
v 0.096085 -0.062312 -0.033142
v 0.090519 -0.053011 -0.027933
v 0.083688 -0.043710 -0.023601
v 0.075706 -0.034409 -0.020066
v 0.066737 -0.025108 -0.017215
v 0.056995 -0.015807 -0.014900
v 0.046736 -0.006506 -0.012944
v 0.036251 0.002795 -0.011143
v 0.025873 0.012097 -0.009269
v 0.015977 0.021398 -0.007060
v 0.007037 0.030699 -0.004190
f 109 110 111
f 109 111 110
f 109 111 112
f 109 112 111
f 109 112 113
f 109 113 112
f 109 113 114
f 109 114 113
f 109 114 115
f 109 115 114
f 109 115 116
f 109 116 115
f 109 116 117
f 109 117 116
f 109 117 118
f 109 118 117
f 109 118 119
f 109 119 118
f 109 119 120
f 109 120 119
f 109 120 121
f 109 121 120
f 109 121 122
f 109 122 121
f 109 122 123
f 109 123 122
f 109 123 124
f 109 124 123
f 109 124 125
f 109 125 124
f 109 125 126
f 109 126 125
f 109 126 127
f 109 127 126
f 109 127 128
f 109 128 127
f 109 128 129
f 109 129 128
f 109 129 130
f 109 130 129
f 109 130 131
f 109 131 130
f 109 131 132
f 109 132 131
f 109 132 133
f 109 133 132
f 109 133 134
f 109 134 133
f 109 134 135
f 109 135 134
f 109 135 136
f 109 136 135
f 109 136 137
f 109 137 136
f 109 137 138
f 109 138 137
f 109 138 139
f 109 139 138
f 109 139 140
f 109 140 139
f 109 140 141
f 109 141 140
f 109 141 142
f 109 142 141
f 109 142 143
f 109 143 142
f 109 143 144
f 109 144 143
f 109 144 145
f 109 145 144
f 109 145 146
f 109 146 145
f 109 146 147
f 109 147 146
f 109 147 148
f 109 148 147
f 109 148 149
f 109 149 148
f 109 149 150
f 109 150 149
f 109 150 151
f 109 151 150
f 109 151 152
f 109 152 151
f 109 152 153
f 109 153 152
f 109 153 154
f 109 154 153
v 0.000000 0.040000 -0.000000
v -0.010765 0.026919 -0.002039
v -0.023260 0.013837 -0.002475
v -0.036382 0.000756 -0.002330
v -0.049668 -0.012326 -0.002031
v -0.062776 -0.025407 -0.001899
v -0.075416 -0.038489 -0.002200
v -0.087341 -0.051570 -0.003164
v -0.098340 -0.064652 -0.004986
v -0.108243 -0.077733 -0.007824
v -0.116916 -0.090815 -0.011802
v -0.124271 -0.103896 -0.017002
v -0.130263 -0.116978 -0.023466
v -0.134891 -0.130059 -0.031194
v -0.138201 -0.143141 -0.040144
v -0.140282 -0.156222 -0.050233
v -0.141266 -0.169303 -0.061339
v -0.141324 -0.182385 -0.073302
v -0.140667 -0.195466 -0.085929
v -0.139543 -0.208548 -0.098989
v -0.138240 -0.221629 -0.112215
v -0.137101 -0.234711 -0.125288
v -0.136590 -0.247792 -0.137779
v -0.137808 -0.260874 -0.148668
v -0.127043 -0.247792 -0.146629
v -0.114549 -0.234711 -0.146193
v -0.101427 -0.221629 -0.146339
v -0.088140 -0.208548 -0.146637
v -0.075032 -0.195466 -0.146769
v -0.062392 -0.182385 -0.146468
v -0.050468 -0.169303 -0.145504
v -0.039468 -0.156222 -0.143682
v -0.029565 -0.143141 -0.140844
v -0.020892 -0.130059 -0.136866
v -0.013537 -0.116978 -0.131666
v -0.007545 -0.103896 -0.125202
v -0.002917 -0.090815 -0.117474
v 0.000393 -0.077733 -0.108525
v 0.002474 -0.064652 -0.098436
v 0.003457 -0.051570 -0.087330
v 0.003516 -0.038489 -0.075366
v 0.002859 -0.025407 -0.062739
v 0.001735 -0.012326 -0.049680
v 0.000432 0.000756 -0.036453
v -0.000707 0.013837 -0.023380
v -0.001218 0.026919 -0.010889
f 155 156 157
f 155 157 156
f 155 157 158
f 155 158 157
f 155 158 159
f 155 159 158
f 155 159 160
f 155 160 159
f 155 160 161
f 155 161 160
f 155 161 162
f 155 162 161
f 155 162 163
f 155 163 162
f 155 163 164
f 155 164 163
f 155 164 165
f 155 165 164
f 155 165 166
f 155 166 165
f 155 166 167
f 155 167 166
f 155 167 168
f 155 168 167
f 155 168 169
f 155 169 168
f 155 169 170
f 155 170 169
f 155 170 171
f 155 171 170
f 155 171 172
f 155 172 171
f 155 172 173
f 155 173 172
f 155 173 174
f 155 174 173
f 155 174 175
f 155 175 174
f 155 175 176
f 155 176 175
f 155 176 177
f 155 177 176
f 155 177 178
f 155 178 177
f 155 178 179
f 155 179 178
f 155 179 180
f 155 180 179
f 155 180 181
f 155 181 180
f 155 181 182
f 155 182 181
f 155 182 183
f 155 183 182
f 155 183 184
f 155 184 183
f 155 184 185
f 155 185 184
f 155 185 186
f 155 186 185
f 155 186 187
f 155 187 186
f 155 187 188
f 155 188 187
f 155 188 189
f 155 189 188
f 155 189 190
f 155 190 189
f 155 190 191
f 155 191 190
f 155 191 192
f 155 192 191
f 155 192 193
f 155 193 192
f 155 193 194
f 155 194 193
f 155 194 195
f 155 195 194
f 155 195 196
f 155 196 195
f 155 196 197
f 155 197 196
f 155 197 198
f 155 198 197
f 155 198 199
f 155 199 198
f 155 199 200
f 155 200 199
v 0.000000 0.040000 -0.000000
v -0.007068 0.028505 0.005301
v -0.013015 0.017009 0.013259
v -0.018154 0.005514 0.023134
v -0.022732 -0.005981 0.034338
v -0.026995 -0.017476 0.046288
v -0.031191 -0.028972 0.058397
v -0.035562 -0.040467 0.070090
v -0.040333 -0.051962 0.080837
v -0.045698 -0.063457 0.090174
v -0.051816 -0.074953 0.097727
v -0.058797 -0.086448 0.103236
v -0.066695 -0.097943 0.106569
v -0.075513 -0.109439 0.107724
v -0.085192 -0.120934 0.106836
v -0.095624 -0.132429 0.104165
v -0.106651 -0.143924 0.100083
v -0.118077 -0.155420 0.095054
v -0.129678 -0.166915 0.089611
v -0.141213 -0.178410 0.084325
v -0.152433 -0.189905 0.079786
v -0.163092 -0.201401 0.076576
v -0.172942 -0.212896 0.075283
v -0.181671 -0.224391 0.076647
v -0.174603 -0.212896 0.071346
v -0.168656 -0.201401 0.063388
v -0.163517 -0.189905 0.053514
v -0.158940 -0.178410 0.042309
v -0.154677 -0.166915 0.030359
v -0.150481 -0.155420 0.018250
v -0.146109 -0.143924 0.006557
v -0.141339 -0.132429 -0.004190
v -0.135973 -0.120934 -0.013526
v -0.129855 -0.109439 -0.021079
v -0.122875 -0.097943 -0.026589
v -0.114976 -0.086448 -0.029922
v -0.106159 -0.074953 -0.031077
v -0.096479 -0.063457 -0.030189
v -0.086048 -0.051962 -0.027518
v -0.075021 -0.040467 -0.023436
v -0.063594 -0.028972 -0.018407
v -0.051993 -0.017476 -0.012964
v -0.040458 -0.005981 -0.007678
v -0.029238 0.005514 -0.003139
v -0.018580 0.017009 0.000071
v -0.008729 0.028505 0.001364
f 201 202 203
f 201 203 202
f 201 203 204
f 201 204 203
f 201 204 205
f 201 205 204
f 201 205 206
f 201 206 205
f 201 206 207
f 201 207 206
f 201 207 208
f 201 208 207
f 201 208 209
f 201 209 208
f 201 209 210
f 201 210 209
f 201 210 211
f 201 211 210
f 201 211 212
f 201 212 211
f 201 212 213
f 201 213 212
f 201 213 214
f 201 214 213
f 201 214 215
f 201 215 214
f 201 215 216
f 201 216 215
f 201 216 217
f 201 217 216
f 201 217 218
f 201 218 217
f 201 218 219
f 201 219 218
f 201 219 220
f 201 220 219
f 201 220 221
f 201 221 220
f 201 221 222
f 201 222 221
f 201 222 223
f 201 223 222
f 201 223 224
f 201 224 223
f 201 224 225
f 201 225 224
f 201 225 226
f 201 226 225
f 201 226 227
f 201 227 226
f 201 227 228
f 201 228 227
f 201 228 229
f 201 229 228
f 201 229 230
f 201 230 229
f 201 230 231
f 201 231 230
f 201 231 232
f 201 232 231
f 201 232 233
f 201 233 232
f 201 233 234
f 201 234 233
f 201 234 235
f 201 235 234
f 201 235 236
f 201 236 235
f 201 236 237
f 201 237 236
f 201 237 238
f 201 238 237
f 201 238 239
f 201 239 238
f 201 239 240
f 201 240 239
f 201 240 241
f 201 241 240
f 201 241 242
f 201 242 241
f 201 242 243
f 201 243 242
f 201 243 244
f 201 244 243
f 201 244 245
f 201 245 244
f 201 245 246
f 201 246 245
