o mesh
v -1.094431 7.799972 -2.549439
v -1.076756 7.792901 -2.516430
v -1.112106 7.807127 -2.516448
v -1.261184 7.385606 -2.548907
v -1.243509 7.378535 -2.515898
v -1.278859 7.392761 -2.515916
f 1 2 5
f 1 5 4
f 2 3 6
f 2 6 5
f 3 1 4
f 3 4 6
v -1.261184 7.388874 -2.548667
v -1.243404 7.390785 -2.515019
v -1.278964 7.377242 -2.517035
v -1.064044 6.882457 -2.624068
v -1.046264 6.884369 -2.590420
v -1.081824 6.870826 -2.592437
f 7 8 11
f 7 11 10
f 8 9 12
f 8 12 11
f 9 7 10
f 9 10 12
v -1.064044 6.872609 -2.623292
v -1.045688 6.887389 -2.593349
v -1.082401 6.877655 -2.590284
v -0.965444 6.534271 -2.516743
v -0.947087 6.549050 -2.486799
v -0.983801 6.539316 -2.483734
f 13 14 17
f 13 17 16
f 14 15 18
f 14 18 17
f 15 13 16
f 15 16 18
v -0.965444 6.537667 -2.517523
v -0.946780 6.546271 -2.485435
v -0.984108 6.538698 -2.484318
v -0.863645 6.046588 -2.445047
v -0.844981 6.055193 -2.412960
v -0.882309 6.047620 -2.411842
f 19 20 23
f 19 23 22
f 20 21 24
f 20 24 23
f 21 19 22
f 21 22 24
v -0.863645 6.052631 -2.445100
v -0.845774 6.054935 -2.411524
v -0.881516 6.041835 -2.413224
v -0.667068 5.525187 -2.513539
v -0.649197 5.527491 -2.479964
v -0.684939 5.514390 -2.481664
f 25 26 29
f 25 29 28
f 26 27 30
f 26 30 29
f 27 25 28
f 27 28 30
v -0.667068 5.517670 -2.513218
v -0.648850 5.519250 -2.479787
v -0.685286 5.530148 -2.482163
v -0.811312 5.057270 -2.412850
v -0.793094 5.058851 -2.379419
v -0.829530 5.069748 -2.381795
f 31 32 35
f 31 35 34
f 32 33 36
f 32 36 35
f 33 31 34
f 33 34 36
v -0.811312 5.059726 -2.413241
v -0.792804 5.058572 -2.379953
v -0.829820 5.067570 -2.380870
v -0.939679 4.537059 -2.359989
v -0.921171 4.535905 -2.326701
v -0.958187 4.544903 -2.327618
f 37 38 41
f 37 41 40
f 38 39 42
f 38 42 41
f 39 37 40
f 39 40 42
v -0.939679 4.540048 -2.360089
v -0.922343 4.531010 -2.327382
v -0.957015 4.546808 -2.326836
v -1.082171 4.227706 -2.370881
v -1.064835 4.218667 -2.338173
v -1.099507 4.234466 -2.337627
f 43 44 47
f 43 47 46
f 44 45 48
f 44 48 47
f 45 43 46
f 45 46 48
v 2.716133 2.600000 0.306553
v 2.753266 2.608432 0.305134
v 2.738726 2.591568 0.336056
v 2.809450 2.155620 0.108098
v 2.846584 2.164052 0.106679
v 2.832043 2.147189 0.137602
f 49 50 53
f 49 53 52
f 50 51 54
f 50 54 53
f 51 49 52
f 51 52 54
v 2.829359 2.160578 0.096026
v 2.847831 2.148593 0.127125
v 2.810887 2.157690 0.129229
v 2.730057 1.777764 0.007477
v 2.748529 1.765779 0.038576
v 2.711585 1.774876 0.040680
f 55 56 59
f 55 59 58
f 56 57 60
f 56 60 59
f 57 55 58
f 57 58 60
v 2.738949 1.772806 0.036969
v 2.722741 1.782279 0.028048
v 2.728481 1.763334 0.021715
v 2.298801 1.477112 0.522625
v 2.282594 1.486585 0.513704
v 2.288334 1.467639 0.507370
f 61 62 65
f 61 65 64
f 62 63 66
f 62 66 65
f 63 61 64
f 63 64 66
v 2.750212 1.772806 0.020091
v 2.726777 1.781496 0.048854
v 2.713183 1.764117 0.017787
v 2.825703 1.405364 0.192613
v 2.802268 1.414054 0.221375
v 2.788674 1.396674 0.190308
f 67 68 71
f 67 71 70
f 68 69 72
f 68 72 71
f 69 67 70
f 69 70 72
v 2.805549 1.405990 0.179441
v 2.824202 1.401172 0.212317
v 2.786895 1.408930 0.212538
v 2.720106 0.995461 0.167750
v 2.738759 0.990643 0.200626
v 2.701452 0.998401 0.200847
f 73 74 77
f 73 77 76
f 74 75 78
f 74 78 77
f 75 73 76
f 75 76 78
v 2.720106 0.988607 0.168640
v 2.738166 0.992129 0.202008
v 2.702045 1.003768 0.198573
v 2.554723 0.516483 0.307987
v 2.572783 0.520005 0.341354
v 2.536662 0.531644 0.337919
f 79 80 83
f 79 83 82
f 80 81 84
f 80 84 83
f 81 79 82
f 81 82 84
v 2.535553 0.522710 0.318291
v 2.571951 0.533682 0.320912
v 2.556664 0.511739 0.348056
v 2.639364 0.222364 0.133953
v 2.675761 0.233335 0.136574
v 2.660475 0.211392 0.163718
f 85 86 89
f 85 89 88
f 86 87 90
f 86 90 89
f 87 85 88
f 87 88 90
v 2.669060 0.222364 0.138989
v 2.653543 0.232740 0.148127
v 2.652996 0.211987 0.147129
v 2.940769 0.191305 0.635616
v 2.925252 0.201682 0.644755
v 2.924705 0.180928 0.643756
f 91 92 95
f 91 95 94
f 92 93 96
f 92 96 95
f 93 91 94
f 93 94 96
v -3.521283 9.983744 0.039759
v -3.502836 9.984879 0.073082
v -3.539730 9.975403 0.072041
v -3.383746 9.454675 -0.018353
v -3.365300 9.455810 0.014971
v -3.402193 9.446334 0.013930
f 97 98 101
f 97 101 100
f 98 99 102
f 98 102 101
f 99 97 100
f 99 100 102
v -3.383746 9.448747 -0.018200
v -3.365389 9.449002 0.015191
v -3.402103 9.459070 0.013556
v -3.475375 9.123210 0.034658
v -3.457018 9.123465 0.068049
v -3.493732 9.133533 0.066414
f 103 104 107
f 103 107 106
f 104 105 108
f 104 108 107
f 105 103 106
f 105 106 108
v -3.475375 9.127264 0.034380
v -3.457497 9.133058 0.067528
v -3.493252 9.119887 0.067213
v -3.302204 8.657433 0.023110
v -3.284327 8.663227 0.056258
v -3.320082 8.650056 0.055942
f 109 110 113
f 109 113 112
f 110 111 114
f 110 114 113
f 111 109 112
f 111 112 114
v -3.308215 8.656906 0.023941
v -3.283110 8.666031 0.051116
v -3.315288 8.647781 0.060254
v -3.112758 8.284494 -0.031571
v -3.087654 8.293619 -0.004396
v -3.119831 8.275368 0.004742
f 115 116 119
f 115 119 118
f 116 117 120
f 116 120 119
f 117 115 118
f 117 118 120
v -3.106748 8.284587 -0.032408
v -3.088171 8.288678 0.000609
v -3.125325 8.280216 0.000574
v -2.992174 7.781566 -0.034539
v -2.973598 7.785657 -0.001521
v -3.010751 7.777195 -0.001557
f 121 122 125
f 121 125 124
f 122 123 126
f 122 126 125
f 123 121 124
f 123 124 126
v -2.992174 7.776833 -0.034044
v -2.973134 7.784459 -0.001930
v -3.011215 7.783125 -0.001643
v -2.978482 7.403260 0.046547
v -2.959442 7.410886 0.078661
v -2.997522 7.409552 0.078948
f 127 128 131
f 127 131 130
f 128 129 132
f 128 132 131
f 129 127 130
f 129 130 132
v -2.560941 9.984457 -1.253893
v -2.542872 9.973802 -1.222081
v -2.579009 9.985767 -1.220370
v -2.717920 9.519834 -1.320341
v -2.699852 9.509179 -1.288529
v -2.735989 9.521144 -1.286818
f 133 134 137
f 133 137 136
f 134 135 138
f 134 138 137
f 135 133 136
f 135 136 138
v -2.717920 9.522917 -1.319671
v -2.700014 9.507375 -1.289842
v -2.735827 9.519865 -1.286174
v -2.868562 9.125260 -1.436435
v -2.850656 9.109718 -1.406605
v -2.886469 9.122208 -1.402938
f 139 140 143
f 139 143 142
f 140 141 144
f 140 144 143
f 141 139 142
f 141 142 144
v -2.874842 9.119062 -1.405100
v -2.872945 9.124545 -1.425058
v -2.857900 9.113578 -1.415819
v -3.030299 8.825380 -1.500568
v -3.028402 8.830864 -1.520526
v -3.013357 8.819896 -1.511287
f 145 146 149
f 145 149 148
f 146 147 150
f 146 150 149
f 147 145 148
f 147 148 150
v -2.876925 9.119062 -1.394977
v -2.879396 9.129035 -1.431671
v -2.849366 9.109089 -1.419329
v -3.055212 8.805306 -1.468251
v -3.057682 8.815279 -1.504945
v -3.027652 8.795332 -1.492603
f 151 152 155
f 151 155 154
f 152 153 156
f 152 156 155
f 153 151 154
f 153 154 156
v -3.026779 8.805306 -1.497610
v -3.050138 8.814883 -1.469069
v -3.063630 8.795728 -1.499120
v -2.942297 8.450584 -1.309438
v -2.965656 8.460161 -1.280896
v -2.979148 8.441006 -1.310947
f 157 158 161
f 157 161 160
f 158 159 162
f 158 162 161
f 159 157 160
f 159 160 162
v -2.962367 8.458752 -1.320855
v -2.943321 8.446010 -1.290409
v -2.981412 8.446989 -1.290018
v -2.973819 8.074375 -1.474554
v -2.954774 8.061633 -1.444108
v -2.992864 8.062611 -1.443717
f 163 164 167
f 163 167 166
f 164 165 168
f 164 168 167
f 165 163 166
f 165 166 168
v -2.973819 8.067951 -1.476057
v -2.955831 8.071595 -1.442663
v -2.991807 8.059073 -1.443659
v -2.804199 7.583669 -1.514583
v -2.786212 7.587312 -1.481188
v -2.822187 7.574791 -1.482185
f 169 170 173
f 169 173 172
f 170 171 174
f 170 174 173
f 171 169 172
f 171 172 174
v -1.266369 9.981342 1.741887
v -1.299781 9.991703 1.726779
v -1.275219 9.970981 1.706302
v -1.450514 9.611361 1.895405
v -1.483926 9.621722 1.880297
v -1.459364 9.601000 1.859819
f 175 176 179
f 175 179 178
f 176 177 180
f 176 180 179
f 177 175 178
f 177 178 180
v -1.464602 9.605373 1.857338
v -1.445804 9.617343 1.888246
v -1.483399 9.611368 1.889937
v -1.412704 9.303026 1.942871
v -1.393906 9.314996 1.973780
v -1.431501 9.309021 1.975470
f 181 182 185
f 181 185 184
f 182 183 186
f 182 186 185
f 183 181 184
f 183 184 186
v -1.412704 9.311268 1.942156
v -1.394188 9.312354 1.975442
v -1.431219 9.303421 1.974523
v -1.290121 8.808425 1.890381
v -1.271605 8.809512 1.923667
v -1.308637 8.800579 1.922748
f 187 188 191
f 187 191 190
f 188 189 192
f 188 192 191
f 189 187 190
f 189 190 192
v -1.307467 8.806172 1.925798
v -1.291888 8.814828 1.892117
v -1.271008 8.797516 1.918881
v -1.410177 8.478758 1.794141
v -1.394598 8.487414 1.760461
v -1.373719 8.470102 1.787225
f 193 194 197
f 193 197 196
f 194 195 198
f 194 198 197
f 195 193 196
f 195 196 198
v -1.392831 8.473551 1.759234
v -1.374484 8.476370 1.792512
v -1.411178 8.486353 1.790080
v -1.537884 7.970226 1.881850
v -1.519537 7.973045 1.915128
v -1.556230 7.983028 1.912696
f 199 200 203
f 199 203 202
f 200 201 204
f 200 204 203
f 201 199 202
f 201 202 204
v -1.537884 7.978908 1.881501
v -1.520229 7.980770 1.915218
v -1.555538 7.966622 1.912955
v -1.390099 7.619286 1.823978
v -1.372445 7.621148 1.857695
v -1.407754 7.607000 1.855432
f 205 206 209
f 205 209 208
f 206 207 210
f 206 210 209
f 207 205 208
f 207 208 210
v -1.390099 7.617276 1.823750
v -1.371487 7.619142 1.856948
v -1.408712 7.611015 1.856406
v -1.302297 7.216867 1.797028
v -1.283684 7.218733 1.830226
v -1.320909 7.210606 1.829684
f 211 212 215
f 211 215 214
f 212 213 216
f 212 216 215
f 213 211 214
f 213 214 216
v 2.560913 9.984811 -3.471703
v 2.579506 9.983713 -3.438460
v 2.542319 9.975502 -3.439772
v 2.670268 9.501891 -3.548822
v 2.688862 9.500793 -3.515579
v 2.651675 9.492582 -3.516890
f 217 218 221
f 217 221 220
f 218 219 222
f 218 222 221
f 219 217 220
f 219 220 222
v 2.671599 9.498422 -3.539023
v 2.671076 9.508708 -3.520970
v 2.668130 9.488136 -3.521298
v 3.135322 9.431201 -3.487287
v 3.134799 9.441487 -3.469234
v 3.131854 9.420915 -3.469563
f 223 224 227
f 223 227 226
f 224 225 228
f 224 228 227
f 225 223 226
f 225 226 228
v 2.691781 9.498422 -3.522493
v 2.655950 9.506983 -3.512755
v 2.663074 9.489861 -3.546043
v 2.659469 9.191426 -3.371500
v 2.623638 9.199987 -3.361762
v 2.630762 9.182865 -3.395050
f 229 230 233
f 229 233 232
f 230 231 234
f 230 234 233
f 231 229 232
f 231 232 234
v 2.649949 9.191426 -3.376519
v 2.632055 9.201453 -3.373167
v 2.631866 9.181399 -3.378626
v 2.664438 9.077358 -2.957968
v 2.646543 9.087385 -2.954616
v 2.646354 9.067331 -2.960074
f 235 236 239
f 235 239 238
f 236 237 240
f 236 240 239
f 237 235 238
f 237 238 240
v 2.637957 9.197373 -3.397285
v 2.656989 9.187605 -3.365751
v 2.618924 9.189299 -3.365276
v 2.611789 8.652213 -3.550369
v 2.630821 8.642445 -3.518835
v 2.592757 8.644138 -3.518360
f 241 242 245
f 241 245 244
f 242 243 246
f 242 246 245
f 243 241 244
f 243 244 246
v 2.617209 8.646265 -3.507866
v 2.592480 8.654613 -3.535629
v 2.625677 8.637918 -3.544068
v 2.441450 8.274189 -3.463185
v 2.416721 8.282536 -3.490948
v 2.449918 8.265841 -3.499388
f 247 248 251
f 247 251 250
f 248 249 252
f 248 252 251
f 249 247 250
f 249 250 252
v 2.436029 8.273799 -3.506504
v 2.455067 8.273619 -3.473495
v 2.416992 8.275148 -3.473522
v 2.417346 7.808890 -3.498263
v 2.436383 7.808710 -3.465254
v 2.398309 7.810239 -3.465281
f 253 254 257
f 253 257 256
f 254 255 258
f 254 258 257
f 255 253 256
f 255 256 258
v 2.417346 7.810619 -3.498225
v 2.435547 7.814233 -3.464943
v 2.399146 7.802986 -3.465630
v 2.572457 7.310471 -3.528743
v 2.590657 7.314084 -3.495461
v 2.554256 7.302837 -3.496147
f 259 260 263
f 259 263 262
f 260 261 264
f 260 264 263
f 261 259 262
f 261 262 264
v -1.108510 2.600000 -2.544344
v -1.074497 2.609022 -2.529725
v -1.100287 2.590978 -2.508247
v -0.929154 2.165865 -2.693709
v -0.895141 2.174887 -2.679089
v -0.920931 2.156843 -2.657612
f 265 266 269
f 265 269 268
f 266 267 270
f 266 270 269
f 267 265 268
f 267 268 270
v -0.915076 2.158186 -2.697420
v -0.896741 2.164848 -2.664687
v -0.933410 2.174560 -2.668304
v -1.059120 1.680557 -2.519532
v -1.040786 1.687219 -2.486799
v -1.077455 1.696931 -2.490416
f 271 272 275
f 271 275 274
f 272 273 276
f 272 276 275
f 273 271 274
f 273 274 276
v -1.059120 1.686349 -2.520834
v -1.040091 1.690112 -2.488036
v -1.078150 1.688245 -2.487876
v -1.033359 1.165066 -2.475977
v -1.014330 1.168829 -2.443179
v -1.052389 1.166962 -2.443018
f 277 278 281
f 277 281 280
f 278 279 282
f 278 282 281
f 279 277 280
f 279 280 282
v -1.052011 1.166952 -2.465724
v -1.015787 1.177961 -2.461409
v -1.032279 1.155944 -2.435041
v -0.938834 0.865462 -2.646676
v -0.902610 0.876470 -2.642361
v -0.919102 0.854453 -2.615993
f 283 284 287
f 283 287 286
f 284 285 288
f 284 288 287
f 285 283 286
f 285 286 288
v -0.915139 0.865462 -2.645899
v -0.919109 0.875069 -2.627901
v -0.926298 0.855854 -2.631230
v -0.490225 0.672385 -2.449104
v -0.494195 0.681993 -2.431106
v -0.501385 0.662778 -2.434435
f 289 290 293
f 289 293 292
f 290 291 294
f 290 294 293
f 291 289 292
f 291 292 294
v -0.920182 0.861542 -2.656658
v -0.901331 0.870138 -2.624678
v -0.939034 0.864705 -2.623694
v -0.852202 0.404721 -2.573939
v -0.833351 0.413317 -2.541959
v -0.871054 0.407884 -2.540975
f 295 296 299
f 295 299 298
f 296 297 300
f 296 300 299
f 297 295 298
f 297 298 300
v -1.280456 9.973595 1.704398
v -1.261835 9.988989 1.733865
v -1.299077 9.981442 1.736704
v -1.161771 9.460602 1.897406
v -1.143150 9.475996 1.926872
v -1.180392 9.468448 1.929712
f 301 302 305
f 301 305 304
f 302 303 306
f 302 306 305
f 303 301 304
f 303 304 306
v -1.161771 9.469615 1.896033
v -1.142877 9.465266 1.928837
v -1.180665 9.470166 1.929119
v -1.228597 8.955962 1.866417
v -1.209704 8.951613 1.899221
v -1.247491 8.956513 1.899504
f 307 308 311
f 307 311 310
f 308 309 312
f 308 312 311
f 309 307 310
f 309 310 312
v -1.228597 8.955733 1.866405
v -1.211218 8.961975 1.899736
v -1.245977 8.946379 1.899000
v -1.064415 8.590625 1.849168
v -1.047035 8.596866 1.882499
v -1.081795 8.581270 1.881763
f 313 314 317
f 313 317 316
f 314 315 318
f 314 318 317
f 315 313 316
f 315 316 318
v -1.064415 8.594196 1.849632
v -1.045899 8.582891 1.880958
v -1.082930 8.591674 1.882840
v -1.192421 8.078210 1.739080
v -1.173905 8.066904 1.770407
v -1.210936 8.075688 1.772289
f 319 320 323
f 319 323 322
f 320 321 324
f 320 324 323
f 321 319 322
f 321 322 324
v -1.192421 8.081386 1.740016
v -1.173648 8.072752 1.772032
v -1.211193 8.066665 1.769729
v -1.099283 7.578865 1.549894
v -1.080510 7.570231 1.581910
v -1.118056 7.564144 1.579607
f 325 326 329
f 325 329 328
f 326 327 330
f 326 330 329
f 327 325 328
f 327 328 330
v -1.099283 7.577641 1.549472
v -1.081040 7.573046 1.582609
v -1.117526 7.562554 1.579331
v -0.970465 7.169520 1.421962
v -0.952222 7.164924 1.455099
v -0.988707 7.154432 1.451821
f 331 332 335
f 331 335 334
f 332 333 336
f 332 336 335
f 333 331 334
f 333 334 336
v -0.970465 7.160474 1.421101
v -0.951447 7.163048 1.454021
v -0.989482 7.165354 1.453759
v -1.002537 6.638296 1.480451
v -0.983520 6.640869 1.513371
v -1.021555 6.643176 1.513109
f 337 338 341
f 337 341 340
f 338 339 342
f 338 342 341
f 339 337 340
f 339 340 342
v -1.002537 6.648823 1.481833
v -0.983628 6.638926 1.513400
v -1.021447 6.634592 1.511697
v -0.946268 6.223456 1.314754
v -0.927359 6.213558 1.346321
v -0.965178 6.209224 1.344619
f 343 344 347
f 343 347 346
f 344 345 348
f 344 348 347
f 345 343 346
f 345 346 348
v -1.094431 2.595001 -2.548863
v -1.075383 2.602888 -2.516817
v -1.113479 2.602111 -2.516636
v -1.082734 2.050675 -2.421858
v -1.063686 2.058561 -2.389811
v -1.101782 2.057785 -2.389630
f 349 350 353
f 349 353 352
f 350 351 354
f 350 354 353
f 351 349 352
f 351 352 354
v -1.082734 2.056123 -2.422428
v -1.063823 2.053131 -2.389483
v -1.101645 2.057767 -2.389388
v -1.145757 1.542124 -2.432931
v -1.126846 1.539132 -2.399986
v -1.164668 1.543768 -2.399891
f 355 356 359
f 355 359 358
f 356 357 360
f 356 360 359
f 357 355 358
f 357 358 360
v -1.145757 1.536279 -2.432264
v -1.127291 1.548922 -2.401423
v -1.164223 1.539824 -2.399121
v -1.031218 1.099340 -2.321710
v -1.012752 1.111984 -2.290869
v -1.049683 1.102885 -2.288567
f 361 362 365
f 361 365 364
f 362 363 366
f 362 366 365
f 363 361 364
f 363 364 366
v -1.031218 1.102503 -2.322268
v -1.012418 1.108927 -2.289752
v -1.050018 1.102777 -2.289125
v -0.948267 0.600580 -2.271067
v -0.929467 0.607004 -2.238551
v -0.967067 0.600854 -2.237924
f 367 368 371
f 367 371 370
f 368 369 372
f 368 372 371
f 369 367 370
f 369 370 372
v -0.948267 0.594384 -2.269502
v -0.929612 0.610601 -2.240502
v -0.966923 0.603453 -2.237538
v -0.857819 0.191571 -2.102432
v -0.839164 0.207788 -2.073432
v -0.876475 0.200640 -2.070467
f 373 374 377
f 373 377 376
f 374 375 378
f 374 378 377
f 375 373 376
f 375 376 378
v -0.866565 0.200000 -2.073893
v -0.854820 0.210197 -2.087680
v -0.852073 0.189803 -2.084757
v -1.237284 0.093515 -2.468450
v -1.225539 0.103712 -2.482237
v -1.222793 0.083318 -2.479314
f 379 380 383
f 379 383 382
f 380 381 384
f 380 384 383
f 381 379 382
f 381 382 384
