o mesh
v 0.000000 0.000000 0.015000
v 0.010607 0.000000 0.010607
v 0.015000 0.000000 0.000000
v 0.010607 0.000000 -0.010607
v 0.000000 0.000000 -0.015000
v -0.010607 0.000000 -0.010607
v -0.015000 0.000000 -0.000000
v -0.010607 0.000000 0.010607
v 0.000000 0.040000 0.012000
v 0.008485 0.040000 0.008485
v 0.012000 0.040000 0.000000
v 0.008485 0.040000 -0.008485
v 0.000000 0.040000 -0.012000
v -0.008485 0.040000 -0.008485
v -0.012000 0.040000 -0.000000
v -0.008485 0.040000 0.008485
f 1 2 10
f 1 10 9
f 2 3 11
f 2 11 10
f 3 4 12
f 3 12 11
f 4 5 13
f 4 13 12
f 5 6 14
f 5 14 13
f 6 7 15
f 6 15 14
f 7 8 16
f 7 16 15
f 8 1 9
f 8 9 16
v 0.000000 0.040000 -0.000000
v 0.006215 0.029433 0.011417
v 0.014941 0.018867 0.022796
v 0.024647 0.008300 0.034160
v 0.034677 -0.002266 0.045520
v 0.044535 -0.012833 0.056882
v 0.053808 -0.023400 0.068252
v 0.062136 -0.033966 0.079637
v 0.069215 -0.044533 0.091042
v 0.074794 -0.055099 0.102469
v 0.078680 -0.065666 0.113921
v 0.080744 -0.076233 0.125402
v 0.080919 -0.086799 0.136911
v 0.079206 -0.097366 0.148449
v 0.075670 -0.107932 0.160015
v 0.070442 -0.118499 0.171606
v 0.063713 -0.129066 0.183221
v 0.055735 -0.139632 0.194854
v 0.046813 -0.150199 0.206502
v 0.037305 -0.160766 0.218158
v 0.027626 -0.171332 0.229818
v 0.018270 -0.181899 0.241472
v 0.009895 -0.192465 0.253111
v 0.004030 -0.203032 0.264713
v -0.002185 -0.192465 0.253295
v -0.010910 -0.181899 0.241916
v -0.020617 -0.171332 0.230552
v -0.030647 -0.160766 0.219193
v -0.040505 -0.150199 0.207831
v -0.049778 -0.139632 0.196460
v -0.058106 -0.129066 0.185075
v -0.065185 -0.118499 0.173671
v -0.070764 -0.107932 0.162244
v -0.074650 -0.097366 0.150791
v -0.076714 -0.086799 0.139311
v -0.076889 -0.076233 0.127802
v -0.075176 -0.065666 0.116264
v -0.071640 -0.055099 0.104698
v -0.066411 -0.044533 0.093106
v -0.059683 -0.033966 0.081492
v -0.051705 -0.023400 0.069859
v -0.042783 -0.012833 0.058211
v -0.033275 -0.002266 0.046554
v -0.023596 0.008300 0.034895
v -0.014240 0.018867 0.023241
v -0.005865 0.029433 0.011601
f 17 18 19
f 17 19 18
f 17 19 20
f 17 20 19
f 17 20 21
f 17 21 20
f 17 21 22
f 17 22 21
f 17 22 23
f 17 23 22
f 17 23 24
f 17 24 23
f 17 24 25
f 17 25 24
f 17 25 26
f 17 26 25
f 17 26 27
f 17 27 26
f 17 27 28
f 17 28 27
f 17 28 29
f 17 29 28
f 17 29 30
f 17 30 29
f 17 30 31
f 17 31 30
f 17 31 32
f 17 32 31
f 17 32 33
f 17 33 32
f 17 33 34
f 17 34 33
f 17 34 35
f 17 35 34
f 17 35 36
f 17 36 35
f 17 36 37
f 17 37 36
f 17 37 38
f 17 38 37
f 17 38 39
f 17 39 38
f 17 39 40
f 17 40 39
f 17 40 41
f 17 41 40
f 17 41 42
f 17 42 41
f 17 42 43
f 17 43 42
f 17 43 44
f 17 44 43
f 17 44 45
f 17 45 44
f 17 45 46
f 17 46 45
f 17 46 47
f 17 47 46
f 17 47 48
f 17 48 47
f 17 48 49
f 17 49 48
f 17 49 50
f 17 50 49
f 17 50 51
f 17 51 50
f 17 51 52
f 17 52 51
f 17 52 53
f 17 53 52
f 17 53 54
f 17 54 53
f 17 54 55
f 17 55 54
f 17 55 56
f 17 56 55
f 17 56 57
f 17 57 56
f 17 57 58
f 17 58 57
f 17 58 59
f 17 59 58
f 17 59 60
f 17 60 59
f 17 60 61
f 17 61 60
f 17 61 62
f 17 62 61
v 0.000000 0.040000 -0.000000
v 0.006365 0.029880 0.002013
v 0.014162 0.019760 0.002043
v 0.022912 0.009639 0.000757
v 0.032284 -0.000481 -0.001391
v 0.041973 -0.010601 -0.003976
v 0.051681 -0.020721 -0.006588
v 0.061127 -0.030841 -0.008838
v 0.070054 -0.040962 -0.010371
v 0.078243 -0.051082 -0.010881
v 0.085516 -0.061202 -0.010125
v 0.091751 -0.071322 -0.007933
v 0.096887 -0.081442 -0.004221
v 0.100923 -0.091562 0.001013
v 0.103921 -0.101683 0.007682
v 0.106005 -0.111803 0.015618
v 0.107348 -0.121923 0.024576
v 0.108174 -0.132043 0.034251
v 0.108737 -0.142163 0.044288
v 0.109320 -0.152284 0.054298
v 0.110219 -0.162404 0.063872
v 0.111741 -0.172524 0.072584
v 0.114215 -0.182644 0.079979
v 0.118122 -0.192764 0.085391
v 0.111757 -0.182644 0.083378
v 0.103960 -0.172524 0.083348
v 0.095210 -0.162404 0.084634
v 0.085838 -0.152284 0.086782
v 0.076149 -0.142163 0.089368
v 0.066441 -0.132043 0.091979
v 0.056995 -0.121923 0.094229
v 0.048068 -0.111803 0.095762
v 0.039879 -0.101683 0.096272
v 0.032607 -0.091562 0.095516
v 0.026371 -0.081442 0.093325
v 0.021235 -0.071322 0.089612
v 0.017199 -0.061202 0.084378
v 0.014201 -0.051082 0.077709
v 0.012118 -0.040962 0.069773
v 0.010774 -0.030841 0.060815
v 0.009948 -0.020721 0.051140
v 0.009385 -0.010601 0.041103
v 0.008802 -0.000481 0.031093
v 0.007903 0.009639 0.021519
v 0.006381 0.019760 0.012807
v 0.003907 0.029880 0.005413
f 63 64 65
f 63 65 64
f 63 65 66
f 63 66 65
f 63 66 67
f 63 67 66
f 63 67 68
f 63 68 67
f 63 68 69
f 63 69 68
f 63 69 70
f 63 70 69
f 63 70 71
f 63 71 70
f 63 71 72
f 63 72 71
f 63 72 73
f 63 73 72
f 63 73 74
f 63 74 73
f 63 74 75
f 63 75 74
f 63 75 76
f 63 76 75
f 63 76 77
f 63 77 76
f 63 77 78
f 63 78 77
f 63 78 79
f 63 79 78
f 63 79 80
f 63 80 79
f 63 80 81
f 63 81 80
f 63 81 82
f 63 82 81
f 63 82 83
f 63 83 82
f 63 83 84
f 63 84 83
f 63 84 85
f 63 85 84
f 63 85 86
f 63 86 85
f 63 86 87
f 63 87 86
f 63 87 88
f 63 88 87
f 63 88 89
f 63 89 88
f 63 89 90
f 63 90 89
f 63 90 91
f 63 91 90
f 63 91 92
f 63 92 91
f 63 92 93
f 63 93 92
f 63 93 94
f 63 94 93
f 63 94 95
f 63 95 94
f 63 95 96
f 63 96 95
f 63 96 97
f 63 97 96
f 63 97 98
f 63 98 97
f 63 98 99
f 63 99 98
f 63 99 100
f 63 100 99
f 63 100 101
f 63 101 100
f 63 101 102
f 63 102 101
f 63 102 103
f 63 103 102
f 63 103 104
f 63 104 103
f 63 104 105
f 63 105 104
f 63 105 106
f 63 106 105
f 63 106 107
f 63 107 106
f 63 107 108
f 63 108 107
v 0.000000 0.040000 -0.000000
v 0.003326 0.027796 -0.007649
v 0.004776 0.015593 -0.017479
v 0.005209 0.003389 -0.028491
v 0.005084 -0.008815 -0.040151
v 0.004779 -0.021018 -0.052021
v 0.004631 -0.033222 -0.063708
v 0.004945 -0.045426 -0.074857
v 0.005990 -0.057629 -0.085159
v 0.007989 -0.069833 -0.094350
v 0.011118 -0.082037 -0.102227
v 0.015499 -0.094240 -0.108651
v 0.021192 -0.106444 -0.113549
v 0.028197 -0.118648 -0.116922
v 0.036454 -0.130851 -0.118841
v 0.045841 -0.143055 -0.119446
v 0.056182 -0.155259 -0.118941
v 0.067254 -0.167462 -0.117588
v 0.078788 -0.179666 -0.115697
v 0.090479 -0.191870 -0.113624
v 0.101990 -0.204073 -0.111760
v 0.112943 -0.216277 -0.110544
v 0.122880 -0.228481 -0.110511
v 0.130939 -0.240684 -0.112658
v 0.127613 -0.228481 -0.105009
v 0.126163 -0.216277 -0.095179
v 0.125730 -0.204073 -0.084168
v 0.125855 -0.191870 -0.072507
v 0.126161 -0.179666 -0.060637
v 0.126308 -0.167462 -0.048950
v 0.125994 -0.155259 -0.037801
v 0.124950 -0.143055 -0.027500
v 0.122950 -0.130851 -0.018308
v 0.119821 -0.118648 -0.010431
v 0.115440 -0.106444 -0.004007
v 0.109747 -0.094240 0.000891
v 0.102742 -0.082037 0.004264
v 0.094485 -0.069833 0.006183
v 0.085099 -0.057629 0.006788
v 0.074757 -0.045426 0.006283
v 0.063685 -0.033222 0.004930
v 0.052152 -0.021018 0.003039
v 0.040460 -0.008815 0.000966
v 0.028949 0.003389 -0.000898
v 0.017996 0.015593 -0.002114
v 0.008060 0.027796 -0.002147
f 109 110 111
f 109 111 110
f 109 111 112
f 109 112 111
f 109 112 113
f 109 113 112
f 109 113 114
f 109 114 113
f 109 114 115
f 109 115 114
f 109 115 116
f 109 116 115
f 109 116 117
f 109 117 116
f 109 117 118
f 109 118 117
f 109 118 119
f 109 119 118
f 109 119 120
f 109 120 119
f 109 120 121
f 109 121 120
f 109 121 122
f 109 122 121
f 109 122 123
f 109 123 122
f 109 123 124
f 109 124 123
f 109 124 125
f 109 125 124
f 109 125 126
f 109 126 125
f 109 126 127
f 109 127 126
f 109 127 128
f 109 128 127
f 109 128 129
f 109 129 128
f 109 129 130
f 109 130 129
f 109 130 131
f 109 131 130
f 109 131 132
f 109 132 131
f 109 132 133
f 109 133 132
f 109 133 134
f 109 134 133
f 109 134 135
f 109 135 134
f 109 135 136
f 109 136 135
f 109 136 137
f 109 137 136
f 109 137 138
f 109 138 137
f 109 138 139
f 109 139 138
f 109 139 140
f 109 140 139
f 109 140 141
f 109 141 140
f 109 141 142
f 109 142 141
f 109 142 143
f 109 143 142
f 109 143 144
f 109 144 143
f 109 144 145
f 109 145 144
f 109 145 146
f 109 146 145
f 109 146 147
f 109 147 146
f 109 147 148
f 109 148 147
f 109 148 149
f 109 149 148
f 109 149 150
f 109 150 149
f 109 150 151
f 109 151 150
f 109 151 152
f 109 152 151
f 109 152 153
f 109 153 152
f 109 153 154
f 109 154 153
v 0.000000 0.040000 -0.000000
v -0.001376 0.027019 -0.011046
v -0.006164 0.014038 -0.022551
v -0.013270 0.001057 -0.034368
v -0.021916 -0.011923 -0.046391
v -0.031368 -0.024904 -0.058523
v -0.040907 -0.037885 -0.070666
v -0.049846 -0.050866 -0.082729
v -0.057558 -0.063847 -0.094627
v -0.063497 -0.076828 -0.106287
v -0.067231 -0.089808 -0.117650
v -0.068458 -0.102789 -0.128676
v -0.067024 -0.115770 -0.139345
v -0.062929 -0.128751 -0.149656
v -0.056327 -0.141732 -0.159630
v -0.047520 -0.154713 -0.169307
v -0.036940 -0.167693 -0.178747
v -0.025133 -0.180674 -0.188021
v -0.012726 -0.193655 -0.197215
v -0.000406 -0.206636 -0.206420
v 0.011108 -0.219617 -0.215733
v 0.021082 -0.232598 -0.225254
v 0.028738 -0.245578 -0.235086
v 0.032982 -0.258559 -0.245377
v 0.034359 -0.245578 -0.234331
v 0.039146 -0.232598 -0.222826
v 0.046252 -0.219617 -0.211010
v 0.054899 -0.206636 -0.198986
v 0.064351 -0.193655 -0.186854
v 0.073889 -0.180674 -0.174711
v 0.082829 -0.167693 -0.162648
v 0.090540 -0.154713 -0.150750
v 0.096479 -0.141732 -0.139090
v 0.100213 -0.128751 -0.127727
v 0.101441 -0.115770 -0.116701
v 0.100007 -0.102789 -0.106032
v 0.095911 -0.089808 -0.095721
v 0.089309 -0.076828 -0.085748
v 0.080502 -0.063847 -0.076070
v 0.069923 -0.050866 -0.066631
v 0.058115 -0.037885 -0.057356
v 0.045708 -0.024904 -0.048163
v 0.033389 -0.011923 -0.038957
v 0.021874 0.001057 -0.029644
v 0.011900 0.014038 -0.020123
v 0.004244 0.027019 -0.010291
f 155 156 157
f 155 157 156
f 155 157 158
f 155 158 157
f 155 158 159
f 155 159 158
f 155 159 160
f 155 160 159
f 155 160 161
f 155 161 160
f 155 161 162
f 155 162 161
f 155 162 163
f 155 163 162
f 155 163 164
f 155 164 163
f 155 164 165
f 155 165 164
f 155 165 166
f 155 166 165
f 155 166 167
f 155 167 166
f 155 167 168
f 155 168 167
f 155 168 169
f 155 169 168
f 155 169 170
f 155 170 169
f 155 170 171
f 155 171 170
f 155 171 172
f 155 172 171
f 155 172 173
f 155 173 172
f 155 173 174
f 155 174 173
f 155 174 175
f 155 175 174
f 155 175 176
f 155 176 175
f 155 176 177
f 155 177 176
f 155 177 178
f 155 178 177
f 155 178 179
f 155 179 178
f 155 179 180
f 155 180 179
f 155 180 181
f 155 181 180
f 155 181 182
f 155 182 181
f 155 182 183
f 155 183 182
f 155 183 184
f 155 184 183
f 155 184 185
f 155 185 184
f 155 185 186
f 155 186 185
f 155 186 187
f 155 187 186
f 155 187 188
f 155 188 187
f 155 188 189
f 155 189 188
f 155 189 190
f 155 190 189
f 155 190 191
f 155 191 190
f 155 191 192
f 155 192 191
f 155 192 193
f 155 193 192
f 155 193 194
f 155 194 193
f 155 194 195
f 155 195 194
f 155 195 196
f 155 196 195
f 155 196 197
f 155 197 196
f 155 197 198
f 155 198 197
f 155 198 199
f 155 199 198
f 155 199 200
f 155 200 199
v 0.000000 0.040000 -0.000000
v -0.015590 0.029381 0.001839
v -0.032075 0.018763 0.005818
v -0.048852 0.008144 0.010493
v -0.065673 -0.002474 0.015274
v -0.082354 -0.013093 0.019721
v -0.098744 -0.023711 0.023471
v -0.114710 -0.034330 0.026210
v -0.130142 -0.044948 0.027673
v -0.144950 -0.055567 0.027645
v -0.159065 -0.066185 0.025960
v -0.172440 -0.076804 0.022506
v -0.185050 -0.087422 0.017228
v -0.196897 -0.098041 0.010125
v -0.208004 -0.108659 0.001253
v -0.218417 -0.119278 -0.009275
v -0.228206 -0.129896 -0.021295
v -0.237461 -0.140515 -0.034591
v -0.246293 -0.151134 -0.048897
v -0.254832 -0.161752 -0.063901
v -0.263233 -0.172371 -0.079238
v -0.271677 -0.182989 -0.094470
v -0.280413 -0.193608 -0.109005
v -0.290045 -0.204226 -0.121401
v -0.274455 -0.193608 -0.123241
v -0.257970 -0.182989 -0.127219
v -0.241193 -0.172371 -0.131894
v -0.224372 -0.161752 -0.136675
v -0.207690 -0.151134 -0.141123
v -0.191301 -0.140515 -0.144872
v -0.175335 -0.129896 -0.147611
v -0.159902 -0.119278 -0.149074
v -0.145094 -0.108659 -0.149046
v -0.130980 -0.098041 -0.147361
v -0.117605 -0.087422 -0.143908
v -0.104994 -0.076804 -0.138629
v -0.093148 -0.066185 -0.131526
v -0.082041 -0.055567 -0.122654
v -0.071628 -0.044948 -0.112126
v -0.061839 -0.034330 -0.100106
v -0.052584 -0.023711 -0.086811
v -0.043752 -0.013093 -0.072505
v -0.035212 -0.002474 -0.057500
v -0.026812 0.008144 -0.042163
v -0.018368 0.018763 -0.026931
v -0.009632 0.029381 -0.012396
f 201 202 203
f 201 203 202
f 201 203 204
f 201 204 203
f 201 204 205
f 201 205 204
f 201 205 206
f 201 206 205
f 201 206 207
f 201 207 206
f 201 207 208
f 201 208 207
f 201 208 209
f 201 209 208
f 201 209 210
f 201 210 209
f 201 210 211
f 201 211 210
f 201 211 212
f 201 212 211
f 201 212 213
f 201 213 212
f 201 213 214
f 201 214 213
f 201 214 215
f 201 215 214
f 201 215 216
f 201 216 215
f 201 216 217
f 201 217 216
f 201 217 218
f 201 218 217
f 201 218 219
f 201 219 218
f 201 219 220
f 201 220 219
f 201 220 221
f 201 221 220
f 201 221 222
f 201 222 221
f 201 222 223
f 201 223 222
f 201 223 224
f 201 224 223
f 201 224 225
f 201 225 224
f 201 225 226
f 201 226 225
f 201 226 227
f 201 227 226
f 201 227 228
f 201 228 227
f 201 228 229
f 201 229 228
f 201 229 230
f 201 230 229
f 201 230 231
f 201 231 230
f 201 231 232
f 201 232 231
f 201 232 233
f 201 233 232
f 201 233 234
f 201 234 233
f 201 234 235
f 201 235 234
f 201 235 236
f 201 236 235
f 201 236 237
f 201 237 236
f 201 237 238
f 201 238 237
f 201 238 239
f 201 239 238
f 201 239 240
f 201 240 239
f 201 240 241
f 201 241 240
f 201 241 242
f 201 242 241
f 201 242 243
f 201 243 242
f 201 243 244
f 201 244 243
f 201 244 245
f 201 245 244
f 201 245 246
f 201 246 245
v 0.000000 0.040000 -0.000000
v -0.002040 0.029628 0.007511
v -0.002903 0.019255 0.016550
v -0.003310 0.008883 0.026182
v -0.003568 -0.001490 0.036005
v -0.003911 -0.011862 0.045719
v -0.004533 -0.022235 0.055071
v -0.005602 -0.032607 0.063843
v -0.007260 -0.042980 0.071849
v -0.009627 -0.053352 0.078938
v -0.012790 -0.063725 0.084991
v -0.016813 -0.074097 0.089931
v -0.021725 -0.084470 0.093717
v -0.027526 -0.094842 0.096349
v -0.034186 -0.105214 0.097866
v -0.041643 -0.115587 0.098349
v -0.049808 -0.125959 0.097914
v -0.058563 -0.136332 0.096714
v -0.067765 -0.146704 0.094933
v -0.077246 -0.157077 0.092791
v -0.086811 -0.167449 0.090539
v -0.096228 -0.177822 0.088479
v -0.105189 -0.188194 0.087011
v -0.112972 -0.198567 0.087072
v -0.110932 -0.188194 0.079560
v -0.110069 -0.177822 0.070521
v -0.109663 -0.167449 0.060890
v -0.109404 -0.157077 0.051067
v -0.109061 -0.146704 0.041353
v -0.108439 -0.136332 0.032001
v -0.107371 -0.125959 0.023229
v -0.105712 -0.115587 0.015222
v -0.103346 -0.105214 0.008134
v -0.100182 -0.094842 0.002080
v -0.096160 -0.084470 -0.002860
v -0.091248 -0.074097 -0.006645
v -0.085446 -0.063725 -0.009277
v -0.078786 -0.053352 -0.010795
v -0.071329 -0.042980 -0.011278
v -0.063164 -0.032607 -0.010843
v -0.054409 -0.022235 -0.009642
v -0.045207 -0.011862 -0.007862
v -0.035726 -0.001490 -0.005719
v -0.026161 0.008883 -0.003468
v -0.016744 0.019255 -0.001407
v -0.007783 0.029628 0.000060
f 247 248 249
f 247 249 248
f 247 249 250
f 247 250 249
f 247 250 251
f 247 251 250
f 247 251 252
f 247 252 251
f 247 252 253
f 247 253 252
f 247 253 254
f 247 254 253
f 247 254 255
f 247 255 254
f 247 255 256
f 247 256 255
f 247 256 257
f 247 257 256
f 247 257 258
f 247 258 257
f 247 258 259
f 247 259 258
f 247 259 260
f 247 260 259
f 247 260 261
f 247 261 260
f 247 261 262
f 247 262 261
f 247 262 263
f 247 263 262
f 247 263 264
f 247 264 263
f 247 264 265
f 247 265 264
f 247 265 266
f 247 266 265
f 247 266 267
f 247 267 266
f 247 267 268
f 247 268 267
f 247 268 269
f 247 269 268
f 247 269 270
f 247 270 269
f 247 270 271
f 247 271 270
f 247 271 272
f 247 272 271
f 247 272 273
f 247 273 272
f 247 273 274
f 247 274 273
f 247 274 275
f 247 275 274
f 247 275 276
f 247 276 275
f 247 276 277
f 247 277 276
f 247 277 278
f 247 278 277
f 247 278 279
f 247 279 278
f 247 279 280
f 247 280 279
f 247 280 281
f 247 281 280
f 247 281 282
f 247 282 281
f 247 282 283
f 247 283 282
f 247 283 284
f 247 284 283
f 247 284 285
f 247 285 284
f 247 285 286
f 247 286 285
f 247 286 287
f 247 287 286
f 247 287 288
f 247 288 287
f 247 288 289
f 247 289 288
f 247 289 290
f 247 290 289
f 247 290 291
f 247 291 290
f 247 291 292
f 247 292 291
