o mesh
v 3.291058 0.000000 -0.632180
v 2.493025 0.000000 -0.576119
v 2.549086 0.000000 0.221914
v 3.347119 0.000000 0.165853
v 3.291058 0.715770 -0.632180
v 2.493025 0.715770 -0.576119
v 2.549086 0.715770 0.221914
v 3.347119 0.715770 0.165853
f 1 3 2
f 1 4 3
f 5 6 7
f 5 7 8
f 1 2 6
f 1 6 5
f 2 3 7
f 2 7 6
f 3 4 8
f 3 8 7
f 4 1 5
f 4 5 8
v 3.170072 0.715770 -0.205133
v 3.122326 0.715770 -0.352079
v 2.997326 0.715770 -0.442897
v 2.842818 0.715770 -0.442897
v 2.717818 0.715770 -0.352079
v 2.670072 0.715770 -0.205133
v 2.717818 0.715770 -0.058187
v 2.842818 0.715770 0.032631
v 2.997326 0.715770 0.032631
v 3.122326 0.715770 -0.058187
v 3.070072 1.865770 -0.205133
v 3.041424 1.865770 -0.293301
v 2.966424 1.865770 -0.347792
v 2.873719 1.865770 -0.347792
v 2.798719 1.865770 -0.293301
v 2.770072 1.865770 -0.205133
v 2.798719 1.865770 -0.116965
v 2.873719 1.865770 -0.062475
v 2.966424 1.865770 -0.062475
v 3.041424 1.865770 -0.116965
v 2.920072 1.865770 -0.205133
f 9 10 20
f 9 20 19
f 10 11 21
f 10 21 20
f 11 12 22
f 11 22 21
f 12 13 23
f 12 23 22
f 13 14 24
f 13 24 23
f 14 15 25
f 14 25 24
f 15 16 26
f 15 26 25
f 16 17 27
f 16 27 26
f 17 18 28
f 17 28 27
f 18 9 19
f 18 19 28
f 19 20 29
f 20 21 29
f 21 22 29
f 22 23 29
f 23 24 29
f 24 25 29
f 25 26 29
f 26 27 29
f 27 28 29
f 28 19 29
v 2.920072 2.145770 -0.205133
v 2.920072 2.145770 -0.205133
v 2.920072 2.145770 -0.205133
v 2.920072 2.145770 -0.205133
v 2.920072 2.145770 -0.205133
v 2.920072 2.145770 -0.205133
v 2.920072 2.145770 -0.205133
v 2.920072 2.145770 -0.205133
v 2.996484 2.120942 -0.205133
v 2.974103 2.120942 -0.259165
v 2.920072 2.120942 -0.281545
v 2.866040 2.120942 -0.259165
v 2.843660 2.120942 -0.205133
v 2.866040 2.120942 -0.151102
v 2.920072 2.120942 -0.128721
v 2.974103 2.120942 -0.151102
v 3.043709 2.055942 -0.205133
v 3.007497 2.055942 -0.292558
v 2.920072 2.055942 -0.328770
v 2.832647 2.055942 -0.292558
v 2.796435 2.055942 -0.205133
v 2.832647 2.055942 -0.117708
v 2.920072 2.055942 -0.081496
v 3.007497 2.055942 -0.117708
v 3.043709 1.975597 -0.205133
v 3.007497 1.975597 -0.292558
v 2.920072 1.975597 -0.328770
v 2.832647 1.975597 -0.292558
v 2.796435 1.975597 -0.205133
v 2.832647 1.975597 -0.117708
v 2.920072 1.975597 -0.081496
v 3.007497 1.975597 -0.117708
v 2.996484 1.910597 -0.205133
v 2.974103 1.910597 -0.259165
v 2.920072 1.910597 -0.281545
v 2.866040 1.910597 -0.259165
v 2.843660 1.910597 -0.205133
v 2.866040 1.910597 -0.151102
v 2.920072 1.910597 -0.128721
v 2.974103 1.910597 -0.151102
v 2.920072 1.885770 -0.205133
v 2.920072 1.885770 -0.205133
v 2.920072 1.885770 -0.205133
v 2.920072 1.885770 -0.205133
v 2.920072 1.885770 -0.205133
v 2.920072 1.885770 -0.205133
v 2.920072 1.885770 -0.205133
v 2.920072 1.885770 -0.205133
f 30 39 31
f 30 38 39
f 31 40 32
f 31 39 40
f 32 41 33
f 32 40 41
f 33 42 34
f 33 41 42
f 34 43 35
f 34 42 43
f 35 44 36
f 35 43 44
f 36 45 37
f 36 44 45
f 37 38 30
f 37 45 38
f 38 47 39
f 38 46 47
f 39 48 40
f 39 47 48
f 40 49 41
f 40 48 49
f 41 50 42
f 41 49 50
f 42 51 43
f 42 50 51
f 43 52 44
f 43 51 52
f 44 53 45
f 44 52 53
f 45 46 38
f 45 53 46
f 46 55 47
f 46 54 55
f 47 56 48
f 47 55 56
f 48 57 49
f 48 56 57
f 49 58 50
f 49 57 58
f 50 59 51
f 50 58 59
f 51 60 52
f 51 59 60
f 52 61 53
f 52 60 61
f 53 54 46
f 53 61 54
f 54 63 55
f 54 62 63
f 55 64 56
f 55 63 64
f 56 65 57
f 56 64 65
f 57 66 58
f 57 65 66
f 58 67 59
f 58 66 67
f 59 68 60
f 59 67 68
f 60 69 61
f 60 68 69
f 61 62 54
f 61 69 62
f 62 71 63
f 62 70 71
f 63 72 64
f 63 71 72
f 64 73 65
f 64 72 73
f 65 74 66
f 65 73 74
f 66 75 67
f 66 74 75
f 67 76 68
f 67 75 76
f 68 77 69
f 68 76 77
f 69 70 62
f 69 77 70
v 2.910261 1.726052 -0.383445
v 2.948297 1.718283 -0.356911
v 2.933769 1.707040 -0.313625
v 2.886754 1.707861 -0.313407
v 2.872225 1.719611 -0.356558
v 2.901852 1.276052 -0.503150
v 2.939888 1.268283 -0.476616
v 2.925360 1.257040 -0.433330
v 2.878344 1.257861 -0.433112
v 2.863816 1.269611 -0.476263
f 78 79 84
f 78 84 83
f 79 80 85
f 79 85 84
f 80 81 86
f 80 86 85
f 81 82 87
f 81 87 86
f 82 78 83
f 82 83 87
v 2.929883 1.705487 -0.104133
v 2.967919 1.713256 -0.077599
v 2.953390 1.724499 -0.034313
v 2.906375 1.723678 -0.034095
v 2.891847 1.711928 -0.077246
v 2.938292 1.255487 0.015572
v 2.976328 1.263256 0.042106
v 2.961799 1.274499 0.085392
v 2.914784 1.273678 0.085610
v 2.900256 1.261928 0.042459
f 88 89 94
f 88 94 93
f 89 90 95
f 89 95 94
f 90 91 96
f 90 96 95
f 91 92 97
f 91 97 96
f 92 88 93
f 92 93 97
v 2.782168 2.015770 -0.170384
v 2.780416 2.040770 -0.195322
v 2.778664 2.015770 -0.220261
v 2.780416 1.990770 -0.195322
v 2.710939 2.015770 -0.185429
v 2.710588 2.020770 -0.190417
v 2.710238 2.015770 -0.195405
v 2.710588 2.010770 -0.190417
f 98 99 103
f 98 103 102
f 99 100 104
f 99 104 103
f 100 101 105
f 100 105 104
f 101 98 102
f 101 102 105
v 1.433515 0.000000 -3.029150
v 1.007444 0.000000 -2.352050
v 1.684544 0.000000 -1.925980
v 2.110614 0.000000 -2.603079
v 1.433515 0.877718 -3.029150
v 1.007444 0.877718 -2.352050
v 1.684544 0.877718 -1.925980
v 2.110614 0.877718 -2.603079
f 106 108 107
f 106 109 108
f 110 111 112
f 110 112 113
f 106 107 111
f 106 111 110
f 107 108 112
f 107 112 111
f 108 109 113
f 108 113 112
f 109 106 110
f 109 110 113
v 1.809029 0.877718 -2.477565
v 1.761284 0.877718 -2.624511
v 1.636284 0.877718 -2.715329
v 1.481775 0.877718 -2.715329
v 1.356775 0.877718 -2.624511
v 1.309029 0.877718 -2.477565
v 1.356775 0.877718 -2.330618
v 1.481775 0.877718 -2.239801
v 1.636284 0.877718 -2.239801
v 1.761284 0.877718 -2.330618
v 1.709029 2.027718 -2.477565
v 1.680382 2.027718 -2.565733
v 1.605382 2.027718 -2.620223
v 1.512677 2.027718 -2.620223
v 1.437677 2.027718 -2.565733
v 1.409029 2.027718 -2.477565
v 1.437677 2.027718 -2.389397
v 1.512677 2.027718 -2.334906
v 1.605382 2.027718 -2.334906
v 1.680382 2.027718 -2.389397
v 1.559029 2.027718 -2.477565
f 114 115 125
f 114 125 124
f 115 116 126
f 115 126 125
f 116 117 127
f 116 127 126
f 117 118 128
f 117 128 127
f 118 119 129
f 118 129 128
f 119 120 130
f 119 130 129
f 120 121 131
f 120 131 130
f 121 122 132
f 121 132 131
f 122 123 133
f 122 133 132
f 123 114 124
f 123 124 133
f 124 125 134
f 125 126 134
f 126 127 134
f 127 128 134
f 128 129 134
f 129 130 134
f 130 131 134
f 131 132 134
f 132 133 134
f 133 124 134
v 1.559029 2.307718 -2.477565
v 1.559029 2.307718 -2.477565
v 1.559029 2.307718 -2.477565
v 1.559029 2.307718 -2.477565
v 1.559029 2.307718 -2.477565
v 1.559029 2.307718 -2.477565
v 1.559029 2.307718 -2.477565
v 1.559029 2.307718 -2.477565
v 1.635441 2.282890 -2.477565
v 1.613061 2.282890 -2.531596
v 1.559029 2.282890 -2.553977
v 1.504998 2.282890 -2.531596
v 1.482617 2.282890 -2.477565
v 1.504998 2.282890 -2.423533
v 1.559029 2.282890 -2.401153
v 1.613061 2.282890 -2.423533
v 1.682667 2.217890 -2.477565
v 1.646454 2.217890 -2.564990
v 1.559029 2.217890 -2.601202
v 1.471604 2.217890 -2.564990
v 1.435392 2.217890 -2.477565
v 1.471604 2.217890 -2.390140
v 1.559029 2.217890 -2.353927
v 1.646454 2.217890 -2.390140
v 1.682667 2.137546 -2.477565
v 1.646454 2.137546 -2.564990
v 1.559029 2.137546 -2.601202
v 1.471604 2.137546 -2.564990
v 1.435392 2.137546 -2.477565
v 1.471604 2.137546 -2.390140
v 1.559029 2.137546 -2.353927
v 1.646454 2.137546 -2.390140
v 1.635441 2.072546 -2.477565
v 1.613061 2.072546 -2.531596
v 1.559029 2.072546 -2.553977
v 1.504998 2.072546 -2.531596
v 1.482617 2.072546 -2.477565
v 1.504998 2.072546 -2.423533
v 1.559029 2.072546 -2.401153
v 1.613061 2.072546 -2.423533
v 1.559029 2.047718 -2.477565
v 1.559029 2.047718 -2.477565
v 1.559029 2.047718 -2.477565
v 1.559029 2.047718 -2.477565
v 1.559029 2.047718 -2.477565
v 1.559029 2.047718 -2.477565
v 1.559029 2.047718 -2.477565
v 1.559029 2.047718 -2.477565
f 135 144 136
f 135 143 144
f 136 145 137
f 136 144 145
f 137 146 138
f 137 145 146
f 138 147 139
f 138 146 147
f 139 148 140
f 139 147 148
f 140 149 141
f 140 148 149
f 141 150 142
f 141 149 150
f 142 143 135
f 142 150 143
f 143 152 144
f 143 151 152
f 144 153 145
f 144 152 153
f 145 154 146
f 145 153 154
f 146 155 147
f 146 154 155
f 147 156 148
f 147 155 156
f 148 157 149
f 148 156 157
f 149 158 150
f 149 157 158
f 150 151 143
f 150 158 151
f 151 160 152
f 151 159 160
f 152 161 153
f 152 160 161
f 153 162 154
f 153 161 162
f 154 163 155
f 154 162 163
f 155 164 156
f 155 163 164
f 156 165 157
f 156 164 165
f 157 166 158
f 157 165 166
f 158 159 151
f 158 166 159
f 159 168 160
f 159 167 168
f 160 169 161
f 160 168 169
f 161 170 162
f 161 169 170
f 162 171 163
f 162 170 171
f 163 172 164
f 163 171 172
f 164 173 165
f 164 172 173
f 165 174 166
f 165 173 174
f 166 167 159
f 166 174 167
f 167 176 168
f 167 175 176
f 168 177 169
f 168 176 177
f 169 178 170
f 169 177 178
f 170 179 171
f 170 178 179
f 171 180 172
f 171 179 180
f 172 181 173
f 172 180 181
f 173 182 174
f 173 181 182
f 174 175 167
f 174 182 175
v 1.440537 1.883342 -2.591730
v 1.477663 1.871242 -2.565532
v 1.463482 1.868091 -2.520809
v 1.417591 1.878244 -2.519367
v 1.403410 1.887670 -2.563198
v 1.338972 1.433342 -2.655640
v 1.376099 1.421242 -2.629442
v 1.361917 1.418091 -2.584720
v 1.316026 1.428244 -2.583278
v 1.301845 1.437670 -2.627109
f 183 184 189
f 183 189 188
f 184 185 190
f 184 190 189
f 185 186 191
f 185 191 190
f 186 187 192
f 186 192 191
f 187 183 188
f 187 188 192
v 1.677522 1.875590 -2.363059
v 1.715429 1.873861 -2.390830
v 1.700950 1.877462 -2.435423
v 1.654094 1.881416 -2.435212
v 1.639615 1.880260 -2.390489
v 1.719840 2.375590 -2.336430
v 1.757748 2.373861 -2.364200
v 1.743268 2.377462 -2.408793
v 1.696413 2.381416 -2.408582
v 1.681933 2.380260 -2.363859
f 193 194 199
f 193 199 198
f 194 195 200
f 194 200 199
f 195 196 201
f 195 201 200
f 196 197 202
f 196 202 201
f 197 193 198
f 197 198 202
v 1.505626 2.177718 -2.345758
v 1.484467 2.202718 -2.359072
v 1.463308 2.177718 -2.372387
v 1.484467 2.152718 -2.359072
v 1.451418 2.177718 -2.297163
v 1.447186 2.182718 -2.299826
v 1.442954 2.177718 -2.302489
v 1.447186 2.172718 -2.299826
f 203 204 208
f 203 208 207
f 204 205 209
f 204 209 208
f 205 206 210
f 205 210 209
f 206 203 207
f 206 207 210
v -2.079166 0.000000 -2.628266
v -1.661267 0.000000 -1.946093
v -0.979094 0.000000 -2.363992
v -1.396993 0.000000 -3.046165
v -2.079166 0.763953 -2.628266
v -1.661267 0.763953 -1.946093
v -0.979094 0.763953 -2.363992
v -1.396993 0.763953 -3.046165
f 211 213 212
f 211 214 213
f 215 216 217
f 215 217 218
f 211 212 216
f 211 216 215
f 212 213 217
f 212 217 216
f 213 214 218
f 213 218 217
f 214 211 215
f 214 215 218
v -1.279130 0.763953 -2.496129
v -1.326876 0.763953 -2.643075
v -1.451876 0.763953 -2.733893
v -1.606384 0.763953 -2.733893
v -1.731384 0.763953 -2.643075
v -1.779130 0.763953 -2.496129
v -1.731384 0.763953 -2.349183
v -1.606384 0.763953 -2.258365
v -1.451876 0.763953 -2.258365
v -1.326876 0.763953 -2.349183
v -1.379130 1.913953 -2.496129
v -1.407777 1.913953 -2.584297
v -1.482777 1.913953 -2.638788
v -1.575482 1.913953 -2.638788
v -1.650482 1.913953 -2.584297
v -1.679130 1.913953 -2.496129
v -1.650482 1.913953 -2.407961
v -1.575482 1.913953 -2.353471
v -1.482777 1.913953 -2.353471
v -1.407777 1.913953 -2.407961
v -1.529130 1.913953 -2.496129
f 219 220 230
f 219 230 229
f 220 221 231
f 220 231 230
f 221 222 232
f 221 232 231
f 222 223 233
f 222 233 232
f 223 224 234
f 223 234 233
f 224 225 235
f 224 235 234
f 225 226 236
f 225 236 235
f 226 227 237
f 226 237 236
f 227 228 238
f 227 238 237
f 228 219 229
f 228 229 238
f 229 230 239
f 230 231 239
f 231 232 239
f 232 233 239
f 233 234 239
f 234 235 239
f 235 236 239
f 236 237 239
f 237 238 239
f 238 229 239
v -1.529130 2.193953 -2.496129
v -1.529130 2.193953 -2.496129
v -1.529130 2.193953 -2.496129
v -1.529130 2.193953 -2.496129
v -1.529130 2.193953 -2.496129
v -1.529130 2.193953 -2.496129
v -1.529130 2.193953 -2.496129
v -1.529130 2.193953 -2.496129
v -1.452718 2.169125 -2.496129
v -1.475098 2.169125 -2.550161
v -1.529130 2.169125 -2.572541
v -1.583161 2.169125 -2.550161
v -1.605542 2.169125 -2.496129
v -1.583161 2.169125 -2.442098
v -1.529130 2.169125 -2.419717
v -1.475098 2.169125 -2.442098
v -1.405493 2.104125 -2.496129
v -1.441705 2.104125 -2.583554
v -1.529130 2.104125 -2.619767
v -1.616555 2.104125 -2.583554
v -1.652767 2.104125 -2.496129
v -1.616555 2.104125 -2.408704
v -1.529130 2.104125 -2.372492
v -1.441705 2.104125 -2.408704
v -1.405493 2.023781 -2.496129
v -1.441705 2.023781 -2.583554
v -1.529130 2.023781 -2.619767
v -1.616555 2.023781 -2.583554
v -1.652767 2.023781 -2.496129
v -1.616555 2.023781 -2.408704
v -1.529130 2.023781 -2.372492
v -1.441705 2.023781 -2.408704
v -1.452718 1.958781 -2.496129
v -1.475098 1.958781 -2.550161
v -1.529130 1.958781 -2.572541
v -1.583161 1.958781 -2.550161
v -1.605542 1.958781 -2.496129
v -1.583161 1.958781 -2.442098
v -1.529130 1.958781 -2.419717
v -1.475098 1.958781 -2.442098
v -1.529130 1.933953 -2.496129
v -1.529130 1.933953 -2.496129
v -1.529130 1.933953 -2.496129
v -1.529130 1.933953 -2.496129
v -1.529130 1.933953 -2.496129
v -1.529130 1.933953 -2.496129
v -1.529130 1.933953 -2.496129
v -1.529130 1.933953 -2.496129
f 240 249 241
f 240 248 249
f 241 250 242
f 241 249 250
f 242 251 243
f 242 250 251
f 243 252 244
f 243 251 252
f 244 253 245
f 244 252 253
f 245 254 246
f 245 253 254
f 246 255 247
f 246 254 255
f 247 248 240
f 247 255 248
f 248 257 249
f 248 256 257
f 249 258 250
f 249 257 258
f 250 259 251
f 250 258 259
f 251 260 252
f 251 259 260
f 252 261 253
f 252 260 261
f 253 262 254
f 253 261 262
f 254 263 255
f 254 262 263
f 255 256 248
f 255 263 256
f 256 265 257
f 256 264 265
f 257 266 258
f 257 265 266
f 258 267 259
f 258 266 267
f 259 268 260
f 259 267 268
f 260 269 261
f 260 268 269
f 261 270 262
f 261 269 270
f 262 271 263
f 262 270 271
f 263 264 256
f 263 271 264
f 264 273 265
f 264 272 273
f 265 274 266
f 265 273 274
f 266 275 267
f 266 274 275
f 267 276 268
f 267 275 276
f 268 277 269
f 268 276 277
f 269 278 270
f 269 277 278
f 270 279 271
f 270 278 279
f 271 272 264
f 271 279 272
f 272 281 273
f 272 280 281
f 273 282 274
f 273 281 282
f 274 283 275
f 274 282 283
f 275 284 276
f 275 283 284
f 276 285 277
f 276 284 285
f 277 286 278
f 277 285 286
f 278 287 279
f 278 286 287
f 279 280 272
f 279 287 280
v -1.648510 1.758434 -2.462614
v -1.611398 1.753969 -2.434086
v -1.625573 1.763302 -2.390233
v -1.671447 1.773534 -2.391658
v -1.685623 1.770526 -2.436392
v -1.750836 1.308434 -2.399929
v -1.713723 1.303969 -2.371401
v -1.727899 1.313302 -2.327548
v -1.773773 1.323534 -2.328973
v -1.787949 1.320526 -2.373707
f 288 289 294
f 288 294 293
f 289 290 295
f 289 295 294
f 290 291 296
f 290 296 295
f 291 292 297
f 291 297 296
f 292 288 293
f 292 293 297
v -1.409750 1.769472 -2.608879
v -1.372637 1.773937 -2.580351
v -1.386813 1.764605 -2.536498
v -1.432687 1.754372 -2.537923
v -1.446862 1.757380 -2.582657
v -1.307424 1.319472 -2.671564
v -1.270311 1.323937 -2.643036
v -1.284487 1.314605 -2.599183
v -1.330361 1.304372 -2.600608
v -1.344536 1.307380 -2.645342
f 298 299 304
f 298 304 303
f 299 300 305
f 299 305 304
f 300 301 306
f 300 306 305
f 301 302 307
f 301 307 306
f 302 298 303
f 302 303 307
v -1.434680 2.063953 -2.389808
v -1.455998 2.088953 -2.376749
v -1.477315 2.063953 -2.363690
v -1.455998 2.038953 -2.376749
v -1.415168 2.063953 -2.319671
v -1.419431 2.068953 -2.317059
v -1.423695 2.063953 -2.314447
v -1.419431 2.058953 -2.317059
f 308 309 313
f 308 313 312
f 309 310 314
f 309 314 313
f 310 311 315
f 310 315 314
f 311 308 312
f 311 312 315
v -3.344270 0.000000 0.215800
v -2.545489 0.000000 0.259942
v -2.501347 0.000000 -0.538839
v -3.300128 0.000000 -0.582981
v -3.344270 0.757476 0.215800
v -2.545489 0.757476 0.259942
v -2.501347 0.757476 -0.538839
v -3.300128 0.757476 -0.582981
f 316 318 317
f 316 319 318
f 320 321 322
f 320 322 323
f 316 317 321
f 316 321 320
f 317 318 322
f 317 322 321
f 318 319 323
f 318 323 322
f 319 316 320
f 319 320 323
v -2.672809 0.757476 -0.161520
v -2.720554 0.757476 -0.308466
v -2.845554 0.757476 -0.399284
v -3.000063 0.757476 -0.399284
v -3.125063 0.757476 -0.308466
v -3.172809 0.757476 -0.161520
v -3.125063 0.757476 -0.014573
v -3.000063 0.757476 0.076244
v -2.845554 0.757476 0.076244
v -2.720554 0.757476 -0.014573
v -2.772809 1.907476 -0.161520
v -2.801456 1.907476 -0.249687
v -2.876456 1.907476 -0.304178
v -2.969161 1.907476 -0.304178
v -3.044161 1.907476 -0.249687
v -3.072809 1.907476 -0.161520
v -3.044161 1.907476 -0.073352
v -2.969161 1.907476 -0.018861
v -2.876456 1.907476 -0.018861
v -2.801456 1.907476 -0.073352
v -2.922809 1.907476 -0.161520
f 324 325 335
f 324 335 334
f 325 326 336
f 325 336 335
f 326 327 337
f 326 337 336
f 327 328 338
f 327 338 337
f 328 329 339
f 328 339 338
f 329 330 340
f 329 340 339
f 330 331 341
f 330 341 340
f 331 332 342
f 331 342 341
f 332 333 343
f 332 343 342
f 333 324 334
f 333 334 343
f 334 335 344
f 335 336 344
f 336 337 344
f 337 338 344
f 338 339 344
f 339 340 344
f 340 341 344
f 341 342 344
f 342 343 344
f 343 334 344
v -2.922809 2.187476 -0.161520
v -2.922809 2.187476 -0.161520
v -2.922809 2.187476 -0.161520
v -2.922809 2.187476 -0.161520
v -2.922809 2.187476 -0.161520
v -2.922809 2.187476 -0.161520
v -2.922809 2.187476 -0.161520
v -2.922809 2.187476 -0.161520
v -2.846397 2.162648 -0.161520
v -2.868777 2.162648 -0.215551
v -2.922809 2.162648 -0.237932
v -2.976840 2.162648 -0.215551
v -2.999221 2.162648 -0.161520
v -2.976840 2.162648 -0.107488
v -2.922809 2.162648 -0.085108
v -2.868777 2.162648 -0.107488
v -2.799171 2.097648 -0.161520
v -2.835384 2.097648 -0.248944
v -2.922809 2.097648 -0.285157
v -3.010233 2.097648 -0.248944
v -3.046446 2.097648 -0.161520
v -3.010233 2.097648 -0.074095
v -2.922809 2.097648 -0.037882
v -2.835384 2.097648 -0.074095
v -2.799171 2.017304 -0.161520
v -2.835384 2.017304 -0.248944
v -2.922809 2.017304 -0.285157
v -3.010233 2.017304 -0.248944
v -3.046446 2.017304 -0.161520
v -3.010233 2.017304 -0.074095
v -2.922809 2.017304 -0.037882
v -2.835384 2.017304 -0.074095
v -2.846397 1.952304 -0.161520
v -2.868777 1.952304 -0.215551
v -2.922809 1.952304 -0.237932
v -2.976840 1.952304 -0.215551
v -2.999221 1.952304 -0.161520
v -2.976840 1.952304 -0.107488
v -2.922809 1.952304 -0.085108
v -2.868777 1.952304 -0.107488
v -2.922809 1.927476 -0.161520
v -2.922809 1.927476 -0.161520
v -2.922809 1.927476 -0.161520
v -2.922809 1.927476 -0.161520
v -2.922809 1.927476 -0.161520
v -2.922809 1.927476 -0.161520
v -2.922809 1.927476 -0.161520
v -2.922809 1.927476 -0.161520
f 345 354 346
f 345 353 354
f 346 355 347
f 346 354 355
f 347 356 348
f 347 355 356
f 348 357 349
f 348 356 357
f 349 358 350
f 349 357 358
f 350 359 351
f 350 358 359
f 351 360 352
f 351 359 360
f 352 353 345
f 352 360 353
f 353 362 354
f 353 361 362
f 354 363 355
f 354 362 363
f 355 364 356
f 355 363 364
f 356 365 357
f 356 364 365
f 357 366 358
f 357 365 366
f 358 367 359
f 358 366 367
f 359 368 360
f 359 367 368
f 360 361 353
f 360 368 361
f 361 370 362
f 361 369 370
f 362 371 363
f 362 370 371
f 363 372 364
f 363 371 372
f 364 373 365
f 364 372 373
f 365 374 366
f 365 373 374
f 366 375 367
f 366 374 375
f 367 376 368
f 367 375 376
f 368 369 361
f 368 376 369
f 369 378 370
f 369 377 378
f 370 379 371
f 370 378 379
f 371 380 372
f 371 379 380
f 372 381 373
f 372 380 381
f 373 382 374
f 373 381 382
f 374 383 375
f 374 382 383
f 375 384 376
f 375 383 384
f 376 377 369
f 376 384 377
f 377 386 378
f 377 385 386
f 378 387 379
f 378 386 387
f 379 388 380
f 379 387 388
f 380 389 381
f 380 388 389
f 381 390 382
f 381 389 390
f 382 391 383
f 382 390 391
f 383 392 384
f 383 391 392
f 384 385 377
f 384 392 385
v -2.930534 1.747184 -0.060386
v -2.892495 1.753773 -0.033538
v -2.907025 1.765479 0.009624
v -2.954043 1.766125 0.009452
v -2.968572 1.754818 -0.033817
v -2.937155 1.297184 0.059431
v -2.899116 1.303773 0.086279
v -2.913646 1.315479 0.129441
v -2.960664 1.316125 0.129269
v -2.975193 1.304818 0.086001
f 393 394 399
f 393 399 398
f 394 395 400
f 394 400 399
f 395 396 401
f 395 401 400
f 396 397 402
f 396 402 401
f 397 393 398
f 397 398 402
v -2.915084 1.761450 -0.261504
v -2.877042 1.758496 -0.288986
v -2.891573 1.754132 -0.333494
v -2.938595 1.754389 -0.333520
v -2.953126 1.758912 -0.289028
v -2.912325 2.261450 -0.311428
v -2.874283 2.258496 -0.338910
v -2.888814 2.254132 -0.383418
v -2.935836 2.254389 -0.383444
v -2.950367 2.258912 -0.338951
f 403 404 409
f 403 409 408
f 404 405 410
f 404 410 409
f 405 406 411
f 405 411 410
f 406 407 412
f 406 412 411
f 407 403 408
f 407 408 412
v -2.781643 2.057476 -0.178757
v -2.783022 2.082476 -0.153795
v -2.784401 2.057476 -0.128833
v -2.783022 2.032476 -0.153795
v -2.712853 2.057476 -0.154925
v -2.713129 2.062476 -0.149932
v -2.713404 2.057476 -0.144940
v -2.713129 2.052476 -0.149932
f 413 414 418
f 413 418 417
f 414 415 419
f 414 419 418
f 415 416 420
f 415 420 419
f 416 413 417
f 416 417 420
v -1.127165 0.000000 3.155981
v -0.770089 0.000000 2.440092
v -1.485978 0.000000 2.083016
v -1.843053 0.000000 2.798905
v -1.127165 0.738914 3.155981
v -0.770089 0.738914 2.440092
v -1.485978 0.738914 2.083016
v -1.843053 0.738914 2.798905
f 421 423 422
f 421 424 423
f 425 426 427
f 425 427 428
f 421 422 426
f 421 426 425
f 422 423 427
f 422 427 426
f 423 424 428
f 423 428 427
f 424 421 425
f 424 425 428
v -1.056571 0.738914 2.619498
v -1.104317 0.738914 2.472552
v -1.229317 0.738914 2.381734
v -1.383825 0.738914 2.381734
v -1.508825 0.738914 2.472552
v -1.556571 0.738914 2.619498
v -1.508825 0.738914 2.766445
v -1.383825 0.738914 2.857262
v -1.229317 0.738914 2.857262
v -1.104317 0.738914 2.766445
v -1.156571 1.888914 2.619498
v -1.185219 1.888914 2.531330
v -1.260219 1.888914 2.476840
v -1.352924 1.888914 2.476840
v -1.427924 1.888914 2.531330
v -1.456571 1.888914 2.619498
v -1.427924 1.888914 2.707666
v -1.352924 1.888914 2.762157
v -1.260219 1.888914 2.762157
v -1.185219 1.888914 2.707666
v -1.306571 1.888914 2.619498
f 429 430 440
f 429 440 439
f 430 431 441
f 430 441 440
f 431 432 442
f 431 442 441
f 432 433 443
f 432 443 442
f 433 434 444
f 433 444 443
f 434 435 445
f 434 445 444
f 435 436 446
f 435 446 445
f 436 437 447
f 436 447 446
f 437 438 448
f 437 448 447
f 438 429 439
f 438 439 448
f 439 440 449
f 440 441 449
f 441 442 449
f 442 443 449
f 443 444 449
f 444 445 449
f 445 446 449
f 446 447 449
f 447 448 449
f 448 439 449
v -1.306571 2.168914 2.619498
v -1.306571 2.168914 2.619498
v -1.306571 2.168914 2.619498
v -1.306571 2.168914 2.619498
v -1.306571 2.168914 2.619498
v -1.306571 2.168914 2.619498
v -1.306571 2.168914 2.619498
v -1.306571 2.168914 2.619498
v -1.230159 2.144086 2.619498
v -1.252540 2.144086 2.565467
v -1.306571 2.144086 2.543086
v -1.360603 2.144086 2.565467
v -1.382983 2.144086 2.619498
v -1.360603 2.144086 2.673530
v -1.306571 2.144086 2.695910
v -1.252540 2.144086 2.673530
v -1.182934 2.079086 2.619498
v -1.219146 2.079086 2.532073
v -1.306571 2.079086 2.495861
v -1.393996 2.079086 2.532073
v -1.430208 2.079086 2.619498
v -1.393996 2.079086 2.706923
v -1.306571 2.079086 2.743136
v -1.219146 2.079086 2.706923
v -1.182934 1.998742 2.619498
v -1.219146 1.998742 2.532073
v -1.306571 1.998742 2.495861
v -1.393996 1.998742 2.532073
v -1.430208 1.998742 2.619498
v -1.393996 1.998742 2.706923
v -1.306571 1.998742 2.743136
v -1.219146 1.998742 2.706923
v -1.230159 1.933742 2.619498
v -1.252540 1.933742 2.565467
v -1.306571 1.933742 2.543086
v -1.360603 1.933742 2.565467
v -1.382983 1.933742 2.619498
v -1.360603 1.933742 2.673530
v -1.306571 1.933742 2.695910
v -1.252540 1.933742 2.673530
v -1.306571 1.908914 2.619498
v -1.306571 1.908914 2.619498
v -1.306571 1.908914 2.619498
v -1.306571 1.908914 2.619498
v -1.306571 1.908914 2.619498
v -1.306571 1.908914 2.619498
v -1.306571 1.908914 2.619498
v -1.306571 1.908914 2.619498
f 450 459 451
f 450 458 459
f 451 460 452
f 451 459 460
f 452 461 453
f 452 460 461
f 453 462 454
f 453 461 462
f 454 463 455
f 454 462 463
f 455 464 456
f 455 463 464
f 456 465 457
f 456 464 465
f 457 458 450
f 457 465 458
f 458 467 459
f 458 466 467
f 459 468 460
f 459 467 468
f 460 469 461
f 460 468 469
f 461 470 462
f 461 469 470
f 462 471 463
f 462 470 471
f 463 472 464
f 463 471 472
f 464 473 465
f 464 472 473
f 465 466 458
f 465 473 466
f 466 475 467
f 466 474 475
f 467 476 468
f 467 475 476
f 468 477 469
f 468 476 477
f 469 478 470
f 469 477 478
f 470 479 471
f 470 478 479
f 471 480 472
f 471 479 480
f 472 481 473
f 472 480 481
f 473 474 466
f 473 481 474
f 474 483 475
f 474 482 483
f 475 484 476
f 475 483 484
f 476 485 477
f 476 484 485
f 477 486 478
f 477 485 486
f 478 487 479
f 478 486 487
f 479 488 480
f 479 487 488
f 480 489 481
f 480 488 489
f 481 482 474
f 481 489 482
f 482 491 483
f 482 490 491
f 483 492 484
f 483 491 492
f 484 493 485
f 484 492 493
f 485 494 486
f 485 493 494
f 486 495 487
f 486 494 495
f 487 496 488
f 487 495 496
f 488 497 489
f 488 496 497
f 489 490 482
f 489 497 490
v -1.181291 1.734186 2.642267
v -1.144273 1.746163 2.668676
v -1.158413 1.748122 2.713480
v -1.204168 1.737355 2.714761
v -1.218308 1.728743 2.670749
v -1.073907 1.284186 2.695828
v -1.036890 1.296163 2.722237
v -1.051029 1.298122 2.767041
v -1.096785 1.287355 2.768323
v -1.110924 1.278743 2.724311
f 498 499 504
f 498 504 503
f 499 500 505
f 499 505 504
f 500 501 506
f 500 506 505
f 501 502 507
f 501 507 506
f 502 498 503
f 502 503 507
v -1.431852 1.740697 2.596970
v -1.393961 1.742849 2.569207
v -1.408434 1.739562 2.524588
v -1.455270 1.735379 2.524775
v -1.469743 1.736081 2.569509
v -1.476595 2.240697 2.574653
v -1.438704 2.242849 2.546890
v -1.453177 2.239562 2.502271
v -1.500013 2.235379 2.502458
v -1.514486 2.236081 2.547192
f 508 509 514
f 508 514 513
f 509 510 515
f 509 515 514
f 510 511 516
f 510 516 515
f 511 512 517
f 511 517 516
f 512 508 513
f 512 513 517
v -1.266454 2.038914 2.483059
v -1.244083 2.063914 2.494218
v -1.221711 2.038914 2.505376
v -1.244083 2.013914 2.494218
v -1.217313 2.038914 2.429346
v -1.212839 2.043914 2.431577
v -1.208364 2.038914 2.433809
v -1.212839 2.033914 2.431577
f 518 519 523
f 518 523 522
f 519 520 524
f 519 524 523
f 520 521 525
f 520 525 524
f 521 518 522
f 521 522 525
v 2.050833 0.000000 2.650433
v 1.640281 0.000000 1.963814
v 0.953661 0.000000 2.374366
v 1.364214 0.000000 3.060986
v 2.050833 0.865841 2.650433
v 1.640281 0.865841 1.963814
v 0.953661 0.865841 2.374366
v 1.364214 0.865841 3.060986
f 526 528 527
f 526 529 528
f 530 531 532
f 530 532 533
f 526 527 531
f 526 531 530
f 527 528 532
f 527 532 531
f 528 529 533
f 528 533 532
f 529 526 530
f 529 530 533
v 1.752247 0.865841 2.512400
v 1.704501 0.865841 2.365453
v 1.579501 0.865841 2.274636
v 1.424993 0.865841 2.274636
v 1.299993 0.865841 2.365453
v 1.252247 0.865841 2.512400
v 1.299993 0.865841 2.659346
v 1.424993 0.865841 2.750164
v 1.579501 0.865841 2.750164
v 1.704501 0.865841 2.659346
v 1.652247 2.015841 2.512400
v 1.623600 2.015841 2.424232
v 1.548600 2.015841 2.369741
v 1.455895 2.015841 2.369741
v 1.380895 2.015841 2.424232
v 1.352247 2.015841 2.512400
v 1.380895 2.015841 2.600568
v 1.455895 2.015841 2.655058
v 1.548600 2.015841 2.655058
v 1.623600 2.015841 2.600568
v 1.502247 2.015841 2.512400
f 534 535 545
f 534 545 544
f 535 536 546
f 535 546 545
f 536 537 547
f 536 547 546
f 537 538 548
f 537 548 547
f 538 539 549
f 538 549 548
f 539 540 550
f 539 550 549
f 540 541 551
f 540 551 550
f 541 542 552
f 541 552 551
f 542 543 553
f 542 553 552
f 543 534 544
f 543 544 553
f 544 545 554
f 545 546 554
f 546 547 554
f 547 548 554
f 548 549 554
f 549 550 554
f 550 551 554
f 551 552 554
f 552 553 554
f 553 544 554
v 1.502247 2.295841 2.512400
v 1.502247 2.295841 2.512400
v 1.502247 2.295841 2.512400
v 1.502247 2.295841 2.512400
v 1.502247 2.295841 2.512400
v 1.502247 2.295841 2.512400
v 1.502247 2.295841 2.512400
v 1.502247 2.295841 2.512400
v 1.578659 2.271013 2.512400
v 1.556279 2.271013 2.458368
v 1.502247 2.271013 2.435988
v 1.448216 2.271013 2.458368
v 1.425835 2.271013 2.512400
v 1.448216 2.271013 2.566431
v 1.502247 2.271013 2.588812
v 1.556279 2.271013 2.566431
v 1.625885 2.206013 2.512400
v 1.589672 2.206013 2.424975
v 1.502247 2.206013 2.388762
v 1.414822 2.206013 2.424975
v 1.378610 2.206013 2.512400
v 1.414822 2.206013 2.599825
v 1.502247 2.206013 2.636037
v 1.589672 2.206013 2.599825
v 1.625885 2.125668 2.512400
v 1.589672 2.125668 2.424975
v 1.502247 2.125668 2.388762
v 1.414822 2.125668 2.424975
v 1.378610 2.125668 2.512400
v 1.414822 2.125668 2.599825
v 1.502247 2.125668 2.636037
v 1.589672 2.125668 2.599825
v 1.578659 2.060668 2.512400
v 1.556279 2.060668 2.458368
v 1.502247 2.060668 2.435988
v 1.448216 2.060668 2.458368
v 1.425835 2.060668 2.512400
v 1.448216 2.060668 2.566431
v 1.502247 2.060668 2.588812
v 1.556279 2.060668 2.566431
v 1.502247 2.035841 2.512400
v 1.502247 2.035841 2.512400
v 1.502247 2.035841 2.512400
v 1.502247 2.035841 2.512400
v 1.502247 2.035841 2.512400
v 1.502247 2.035841 2.512400
v 1.502247 2.035841 2.512400
v 1.502247 2.035841 2.512400
f 555 564 556
f 555 563 564
f 556 565 557
f 556 564 565
f 557 566 558
f 557 565 566
f 558 567 559
f 558 566 567
f 559 568 560
f 559 567 568
f 560 569 561
f 560 568 569
f 561 570 562
f 561 569 570
f 562 563 555
f 562 570 563
f 563 572 564
f 563 571 572
f 564 573 565
f 564 572 573
f 565 574 566
f 565 573 574
f 566 575 567
f 566 574 575
f 567 576 568
f 567 575 576
f 568 577 569
f 568 576 577
f 569 578 570
f 569 577 578
f 570 571 563
f 570 578 571
f 571 580 572
f 571 579 580
f 572 581 573
f 572 580 581
f 573 582 574
f 573 581 582
f 574 583 575
f 574 582 583
f 575 584 576
f 575 583 584
f 576 585 577
f 576 584 585
f 577 586 578
f 577 585 586
f 578 579 571
f 578 586 579
f 579 588 580
f 579 587 588
f 580 589 581
f 580 588 589
f 581 590 582
f 581 589 590
f 582 591 583
f 582 590 591
f 583 592 584
f 583 591 592
f 584 593 585
f 584 592 593
f 585 594 586
f 585 593 594
f 586 587 579
f 586 594 587
f 587 596 588
f 587 595 596
f 588 597 589
f 588 596 597
f 589 598 590
f 589 597 598
f 590 599 591
f 590 598 599
f 591 600 592
f 591 599 600
f 592 601 593
f 592 600 601
f 593 602 594
f 593 601 602
f 594 595 587
f 594 602 595
v 1.622406 1.871264 2.400922
v 1.659506 1.875852 2.429447
v 1.645335 1.866604 2.473320
v 1.599476 1.856302 2.471910
v 1.585305 1.859181 2.427166
v 1.725399 1.421264 2.339340
v 1.762499 1.425852 2.367864
v 1.748328 1.416604 2.411737
v 1.702469 1.406302 2.410327
v 1.688298 1.409181 2.365583
f 603 604 609
f 603 609 608
f 604 605 610
f 604 610 609
f 605 606 611
f 605 611 610
f 606 607 612
f 606 612 611
f 607 603 608
f 607 608 612
v 1.382089 1.860417 2.544616
v 1.419189 1.855830 2.573141
v 1.405018 1.865077 2.617013
v 1.359160 1.875380 2.615603
v 1.344988 1.872500 2.570859
v 1.279096 1.410417 2.606199
v 1.316196 1.405830 2.634724
v 1.302025 1.415077 2.678596
v 1.256167 1.425380 2.677186
v 1.241995 1.422500 2.632442
f 613 614 619
f 613 619 618
f 614 615 620
f 614 620 619
f 615 616 621
f 615 621 620
f 616 617 622
f 616 622 621
f 617 613 618
f 617 618 622
v 1.408944 2.165841 2.405071
v 1.430401 2.190841 2.392241
v 1.451857 2.165841 2.379412
v 1.430401 2.140841 2.392241
v 1.390186 2.165841 2.334728
v 1.394477 2.170841 2.332162
v 1.398769 2.165841 2.329596
v 1.394477 2.160841 2.332162
f 623 624 628
f 623 628 627
f 624 625 629
f 624 629 628
f 625 626 630
f 625 630 629
f 626 623 627
f 626 627 630
