o mesh
v 0.400000 0.050000 -0.000000
v 0.282843 0.050000 -0.282843
v 0.000000 0.050000 -0.400000
v -0.282843 0.050000 -0.282843
v -0.400000 0.050000 -0.000000
v -0.282843 0.050000 0.282843
v -0.000000 0.050000 0.400000
v 0.282843 0.050000 0.282843
v 0.300000 0.900000 -0.000000
v 0.212132 0.900000 -0.212132
v 0.000000 0.900000 -0.300000
v -0.212132 0.900000 -0.212132
v -0.300000 0.900000 -0.000000
v -0.212132 0.900000 0.212132
v -0.000000 0.900000 0.300000
v 0.212132 0.900000 0.212132
v 0.000000 0.900000 -0.000000
f 1 2 10
f 1 10 9
f 2 3 11
f 2 11 10
f 3 4 12
f 3 12 11
f 4 5 13
f 4 13 12
f 5 6 14
f 5 14 13
f 6 7 15
f 6 15 14
f 7 8 16
f 7 16 15
f 8 1 9
f 8 9 16
f 9 10 17
f 10 11 17
f 11 12 17
f 12 13 17
f 13 14 17
f 14 15 17
f 15 16 17
f 16 9 17
v 0.000000 1.430000 -0.000000
v 0.000000 1.430000 -0.000000
v 0.000000 1.430000 -0.000000
v 0.000000 1.430000 -0.000000
v 0.000000 1.430000 -0.000000
v 0.000000 1.430000 -0.000000
v 0.000000 1.430000 -0.000000
v 0.000000 1.430000 -0.000000
v 0.000000 1.430000 -0.000000
v 0.000000 1.430000 -0.000000
v 0.000000 1.430000 -0.000000
v 0.000000 1.430000 -0.000000
v 0.140000 1.392487 -0.000000
v 0.121244 1.392487 -0.070000
v 0.070000 1.392487 -0.121244
v 0.000000 1.392487 -0.140000
v -0.070000 1.392487 -0.121244
v -0.121244 1.392487 -0.070000
v -0.140000 1.392487 -0.000000
v -0.121244 1.392487 0.070000
v -0.070000 1.392487 0.121244
v -0.000000 1.392487 0.140000
v 0.070000 1.392487 0.121244
v 0.121244 1.392487 0.070000
v 0.242487 1.290000 -0.000000
v 0.210000 1.290000 -0.121244
v 0.121244 1.290000 -0.210000
v 0.000000 1.290000 -0.242487
v -0.121244 1.290000 -0.210000
v -0.210000 1.290000 -0.121244
v -0.242487 1.290000 -0.000000
v -0.210000 1.290000 0.121244
v -0.121244 1.290000 0.210000
v -0.000000 1.290000 0.242487
v 0.121244 1.290000 0.210000
v 0.210000 1.290000 0.121244
v 0.280000 1.150000 -0.000000
v 0.242487 1.150000 -0.140000
v 0.140000 1.150000 -0.242487
v 0.000000 1.150000 -0.280000
v -0.140000 1.150000 -0.242487
v -0.242487 1.150000 -0.140000
v -0.280000 1.150000 -0.000000
v -0.242487 1.150000 0.140000
v -0.140000 1.150000 0.242487
v -0.000000 1.150000 0.280000
v 0.140000 1.150000 0.242487
v 0.242487 1.150000 0.140000
v 0.242487 1.010000 -0.000000
v 0.210000 1.010000 -0.121244
v 0.121244 1.010000 -0.210000
v 0.000000 1.010000 -0.242487
v -0.121244 1.010000 -0.210000
v -0.210000 1.010000 -0.121244
v -0.242487 1.010000 -0.000000
v -0.210000 1.010000 0.121244
v -0.121244 1.010000 0.210000
v -0.000000 1.010000 0.242487
v 0.121244 1.010000 0.210000
v 0.210000 1.010000 0.121244
v 0.140000 0.907513 -0.000000
v 0.121244 0.907513 -0.070000
v 0.070000 0.907513 -0.121244
v 0.000000 0.907513 -0.140000
v -0.070000 0.907513 -0.121244
v -0.121244 0.907513 -0.070000
v -0.140000 0.907513 -0.000000
v -0.121244 0.907513 0.070000
v -0.070000 0.907513 0.121244
v -0.000000 0.907513 0.140000
v 0.070000 0.907513 0.121244
v 0.121244 0.907513 0.070000
v 0.000000 0.870000 -0.000000
v 0.000000 0.870000 -0.000000
v 0.000000 0.870000 -0.000000
v 0.000000 0.870000 -0.000000
v -0.000000 0.870000 -0.000000
v -0.000000 0.870000 -0.000000
v -0.000000 0.870000 -0.000000
v -0.000000 0.870000 0.000000
v -0.000000 0.870000 0.000000
v -0.000000 0.870000 0.000000
v 0.000000 0.870000 0.000000
v 0.000000 0.870000 0.000000
f 18 31 19
f 18 30 31
f 19 32 20
f 19 31 32
f 20 33 21
f 20 32 33
f 21 34 22
f 21 33 34
f 22 35 23
f 22 34 35
f 23 36 24
f 23 35 36
f 24 37 25
f 24 36 37
f 25 38 26
f 25 37 38
f 26 39 27
f 26 38 39
f 27 40 28
f 27 39 40
f 28 41 29
f 28 40 41
f 29 30 18
f 29 41 30
f 30 43 31
f 30 42 43
f 31 44 32
f 31 43 44
f 32 45 33
f 32 44 45
f 33 46 34
f 33 45 46
f 34 47 35
f 34 46 47
f 35 48 36
f 35 47 48
f 36 49 37
f 36 48 49
f 37 50 38
f 37 49 50
f 38 51 39
f 38 50 51
f 39 52 40
f 39 51 52
f 40 53 41
f 40 52 53
f 41 42 30
f 41 53 42
f 42 55 43
f 42 54 55
f 43 56 44
f 43 55 56
f 44 57 45
f 44 56 57
f 45 58 46
f 45 57 58
f 46 59 47
f 46 58 59
f 47 60 48
f 47 59 60
f 48 61 49
f 48 60 61
f 49 62 50
f 49 61 62
f 50 63 51
f 50 62 63
f 51 64 52
f 51 63 64
f 52 65 53
f 52 64 65
f 53 54 42
f 53 65 54
f 54 67 55
f 54 66 67
f 55 68 56
f 55 67 68
f 56 69 57
f 56 68 69
f 57 70 58
f 57 69 70
f 58 71 59
f 58 70 71
f 59 72 60
f 59 71 72
f 60 73 61
f 60 72 73
f 61 74 62
f 61 73 74
f 62 75 63
f 62 74 75
f 63 76 64
f 63 75 76
f 64 77 65
f 64 76 77
f 65 66 54
f 65 77 66
f 66 79 67
f 66 78 79
f 67 80 68
f 67 79 80
f 68 81 69
f 68 80 81
f 69 82 70
f 69 81 82
f 70 83 71
f 70 82 83
f 71 84 72
f 71 83 84
f 72 85 73
f 72 84 85
f 73 86 74
f 73 85 86
f 74 87 75
f 74 86 87
f 75 88 76
f 75 87 88
f 76 89 77
f 76 88 89
f 77 78 66
f 77 89 78
f 78 91 79
f 78 90 91
f 79 92 80
f 79 91 92
f 80 93 81
f 80 92 93
f 81 94 82
f 81 93 94
f 82 95 83
f 82 94 95
f 83 96 84
f 83 95 96
f 84 97 85
f 84 96 97
f 85 98 86
f 85 97 98
f 86 99 87
f 86 98 99
f 87 100 88
f 87 99 100
f 88 101 89
f 88 100 101
f 89 90 78
f 89 101 90
