o mesh
v 0.000000 3.598614 -1.250772
v 0.017839 3.594015 -1.217416
v -0.017839 3.607371 -1.218259
v -0.155379 3.185183 -1.224678
v -0.137540 3.180584 -1.191322
v -0.173218 3.193940 -1.192165
f 1 2 5
f 1 5 4
f 2 3 6
f 2 6 5
f 3 1 4
f 3 4 6
v -0.155379 3.181789 -1.224196
v -0.137369 3.195027 -1.193336
v -0.173389 3.182891 -1.190634
v -0.005038 2.756642 -1.129552
v 0.012972 2.769881 -1.098691
v -0.023048 2.757745 -1.095990
f 7 8 11
f 7 11 10
f 8 9 12
f 8 12 11
f 9 7 10
f 9 10 12
v -0.013055 2.761423 -1.117006
v 0.000203 2.771682 -1.104720
v -0.002262 2.751163 -1.102507
v 0.399572 2.671889 -1.487525
v 0.412831 2.682149 -1.475239
v 0.410366 2.661630 -1.473025
f 13 14 17
f 13 17 16
f 14 15 18
f 14 18 17
f 15 13 16
f 15 16 18
v -0.005038 2.764235 -1.129897
v 0.013766 2.763056 -1.096776
v -0.023842 2.756977 -1.097560
v 0.050542 2.426025 -1.173485
v 0.069346 2.424846 -1.140364
v 0.031737 2.418767 -1.141148
f 19 20 23
f 19 23 22
f 20 21 24
f 20 24 23
f 21 19 22
f 21 22 24
v 0.050542 2.428701 -1.172970
v 0.069583 2.421119 -1.140846
v 0.031501 2.419818 -1.141181
v 0.066293 1.996113 -1.284421
v 0.085334 1.988530 -1.252297
v 0.047253 1.987230 -1.252632
f 25 26 29
f 25 29 28
f 26 27 30
f 26 30 29
f 27 25 28
f 27 28 30
v 0.077563 1.990624 -1.258992
v 0.058950 1.999750 -1.260510
v 0.062367 1.981498 -1.269847
v -0.098281 1.711895 -0.778469
v -0.116893 1.721021 -0.779987
v -0.113477 1.702769 -0.789324
f 31 32 35
f 31 35 34
f 32 33 36
f 32 36 35
f 33 31 34
f 33 34 36
v 0.051799 1.990624 -1.279667
v 0.086182 1.999603 -1.265912
v 0.060899 1.981646 -1.243770
v 0.203288 1.613746 -1.412333
v 0.237671 1.622724 -1.398578
v 0.212387 1.604767 -1.376436
f 37 38 41
f 37 41 40
f 38 39 42
f 38 42 41
f 39 37 40
f 39 40 42
v 0.208620 1.613746 -1.403532
v 0.222658 1.624128 -1.392256
v 0.222069 1.603363 -1.391560
v 0.586629 1.588050 -1.850481
v 0.600667 1.598432 -1.839205
v 0.600079 1.577667 -1.838509
f 43 44 47
f 43 47 46
f 44 45 48
f 44 48 47
f 45 43 46
f 45 46 48
v 0.217782 1.606449 -1.416537
v 0.236834 1.617200 -1.385337
v 0.198731 1.617588 -1.385473
v 0.212178 1.116299 -1.244222
v 0.231230 1.127050 -1.213022
v 0.193127 1.127437 -1.213158
f 49 50 53
f 49 53 52
f 50 51 54
f 50 54 53
f 51 49 52
f 51 52 54
v 0.212178 1.123098 -1.245462
v 0.230218 1.117717 -1.212332
v 0.194138 1.129971 -1.212609
v 0.063535 0.685647 -1.235575
v 0.081575 0.680266 -1.202445
v 0.045495 0.692520 -1.202722
f 55 56 59
f 55 59 58
f 56 57 60
f 56 60 59
f 57 55 58
f 57 58 60
v 0.063535 0.684235 -1.235498
v 0.081098 0.694456 -1.203263
v 0.045972 0.679742 -1.201981
v 0.212508 0.331286 -1.204753
v 0.230071 0.341507 -1.172518
v 0.194945 0.326792 -1.171236
f 61 62 65
f 61 65 64
f 62 63 66
f 62 66 65
f 63 61 64
f 63 64 66
v 0.229945 0.333195 -1.196251
v 0.211480 0.347476 -1.166133
v 0.196100 0.318914 -1.186123
v 0.321917 0.200000 -1.076711
v 0.303453 0.214281 -1.046593
v 0.288072 0.185719 -1.066584
f 67 68 71
f 67 71 70
f 68 69 72
f 68 72 71
f 69 67 70
f 69 70 72
v 0.000000 3.598822 -0.021968
v 0.017433 3.608265 0.010573
v -0.017433 3.592913 0.011396
v 0.159846 3.236846 -0.002563
v 0.177279 3.246289 0.029978
v 0.142413 3.230936 0.030801
f 73 74 77
f 73 77 76
f 74 75 78
f 74 78 77
f 75 73 76
f 75 76 78
v 0.158503 3.238024 0.031330
v 0.156965 3.247782 0.013043
v 0.164068 3.228265 0.013843
v -0.320463 3.061492 -0.022591
v -0.322000 3.071250 -0.040878
v -0.314897 3.051733 -0.040078
f 79 80 83
f 79 83 82
f 80 81 84
f 80 84 83
f 81 79 82
f 81 82 84
v 0.151296 3.238024 0.039676
v 0.149602 3.248735 0.003147
v 0.178639 3.227313 0.015393
v -0.045827 2.923305 -0.043460
v -0.047522 2.934016 -0.079989
v -0.018485 2.912594 -0.067743
f 85 86 89
f 85 89 88
f 86 87 90
f 86 90 89
f 87 85 88
f 87 88 90
v -0.033195 2.923305 -0.052447
v -0.042209 2.933233 -0.068327
v -0.036430 2.913378 -0.070418
v -0.501782 2.769058 0.117125
v -0.510796 2.778986 0.101244
v -0.505017 2.759131 0.099153
f 91 92 95
f 91 95 94
f 92 93 96
f 92 96 95
f 93 91 94
f 93 94 96
v -0.037278 2.923010 -0.085729
v -0.018609 2.919649 -0.052681
v -0.055947 2.927257 -0.052783
v -0.125887 2.488202 -0.079895
v -0.107218 2.484840 -0.046847
v -0.144556 2.492448 -0.046949
f 97 98 101
f 97 101 100
f 98 99 102
f 98 102 101
f 99 97 100
f 99 100 102
v -0.125887 2.490349 -0.079819
v -0.108337 2.494959 -0.046311
v -0.143438 2.480182 -0.047560
v 0.027066 2.129600 -0.110303
v 0.044617 2.134210 -0.076796
v 0.009516 2.119433 -0.078045
f 103 104 107
f 103 107 106
f 104 105 108
f 104 108 107
f 105 103 106
f 105 106 108
v 0.027066 2.120495 -0.109152
v 0.046065 2.130019 -0.077523
v 0.008068 2.132728 -0.078469
v -0.010110 1.655750 0.053118
v 0.008889 1.665273 0.084747
v -0.029108 1.667982 0.083801
f 109 110 113
f 109 113 112
f 110 111 114
f 110 114 113
f 111 109 112
f 111 112 114
v -0.010110 1.672264 0.053933
v 0.008843 1.656602 0.083045
v -0.029062 1.660139 0.084687
v -0.045669 1.358721 -0.091601
v -0.026716 1.343059 -0.062490
v -0.064622 1.346596 -0.060848
f 115 116 119
f 115 119 118
f 116 117 120
f 116 120 119
f 117 115 118
f 117 118 120
v -0.045669 1.341923 -0.092315
v -0.026739 1.355254 -0.062051
v -0.064599 1.351200 -0.060573
v 0.012803 0.859870 0.083440
v 0.031733 0.873200 0.113704
v -0.006127 0.869147 0.115182
f 121 122 125
f 121 125 124
f 122 123 126
f 122 126 125
f 123 121 124
f 123 124 126
v -0.942658 2.598886 -0.021972
v -0.924436 2.595002 0.011267
v -0.960881 2.606112 0.010704
v -1.066575 2.193416 -0.001417
v -1.048352 2.189532 0.031822
v -1.084798 2.200641 0.031259
f 127 128 131
f 127 131 130
f 128 129 132
f 128 132 131
f 129 127 130
f 129 130 132
v -1.066575 2.202913 0.000214
v -1.047988 2.186467 0.029129
v -1.085162 2.194209 0.032320
v -1.166652 1.792130 -0.169092
v -1.148065 1.775685 -0.140177
v -1.185239 1.783426 -0.136986
f 133 134 137
f 133 137 136
f 134 135 138
f 134 138 137
f 135 133 136
f 135 136 138
v -1.166652 1.776910 -0.169662
v -1.147611 1.787795 -0.138502
v -1.185693 1.786535 -0.138090
v -1.146522 1.227089 0.010102
v -1.127481 1.237974 0.041262
v -1.165563 1.236715 0.041674
f 139 140 143
f 139 143 142
f 140 141 144
f 140 144 143
f 141 139 142
f 141 142 144
v -1.161321 1.233926 0.014734
v -1.126488 1.242379 0.027666
v -1.151757 1.225474 0.050638
v -0.973723 0.721752 -0.155812
v -0.938890 0.730205 -0.142881
v -0.964159 0.713300 -0.119908
f 145 146 149
f 145 149 148
f 146 147 150
f 146 150 149
f 147 145 148
f 147 148 150
v -0.946939 0.721752 -0.138933
v -0.965118 0.731335 -0.135817
v -0.964715 0.712170 -0.143852
v -0.961298 0.601440 0.147320
v -0.979477 0.611023 0.150436
v -0.979073 0.591858 0.142401
f 151 152 155
f 151 155 154
f 152 153 156
f 152 156 155
f 153 151 154
f 153 154 156
v -0.958924 0.719720 -0.161440
v -0.940868 0.716711 -0.128019
v -0.976979 0.728826 -0.129143
v -1.135470 0.197967 -0.113029
v -1.117414 0.194959 -0.079608
v -1.153525 0.207074 -0.080732
f 157 158 161
f 157 161 160
f 158 159 162
f 158 162 161
f 159 157 160
f 159 160 162
v 0.000000 3.603538 -1.250530
v 0.018765 3.594977 -1.218489
v -0.018765 3.601485 -1.217429
v -0.085900 3.120912 -1.329166
v -0.067135 3.112351 -1.297126
v -0.104666 3.118858 -1.296066
f 163 164 167
f 163 167 166
f 164 165 168
f 164 168 167
f 165 163 166
f 165 166 168
v -0.085900 3.117036 -1.329450
v -0.067170 3.121032 -1.296507
v -0.104631 3.114053 -1.296400
v -0.021152 2.769562 -1.324119
v -0.002422 2.773557 -1.291176
v -0.039882 2.766579 -1.291069
f 169 170 173
f 169 173 172
f 170 171 174
f 170 174 173
f 171 169 172
f 171 172 174
v -0.026804 2.769899 -1.291535
v -0.018661 2.780285 -1.307593
v -0.017991 2.759514 -1.307235
v -0.468320 2.751612 -1.527273
v -0.460177 2.761997 -1.543330
v -0.459508 2.741227 -1.542972
f 175 176 179
f 175 179 178
f 176 177 180
f 176 180 179
f 177 175 178
f 177 178 180
v -0.021152 2.761221 -1.322337
v -0.002349 2.771414 -1.290801
v -0.039955 2.777062 -1.293225
v -0.095710 2.342024 -1.142394
v -0.076907 2.352217 -1.110858
v -0.114513 2.357865 -1.113282
f 181 182 185
f 181 185 184
f 182 183 186
f 182 186 185
f 183 181 184
f 183 184 186
v -0.095710 2.342267 -1.142497
v -0.076664 2.355393 -1.112215
v -0.114756 2.354446 -1.111822
v -0.083259 1.915310 -0.965249
v -0.064214 1.928436 -0.934967
v -0.102305 1.927489 -0.934574
f 187 188 191
f 187 191 190
f 188 189 192
f 188 192 191
f 189 187 190
f 189 190 192
v -0.083259 1.916752 -0.965789
v -0.065100 1.921776 -0.932668
v -0.101419 1.932708 -0.936333
v -0.255851 1.401297 -0.792973
v -0.237691 1.406321 -0.759852
v -0.274010 1.417253 -0.763517
f 193 194 197
f 193 197 196
f 194 195 198
f 194 198 197
f 195 193 196
f 195 196 198
v -0.255851 1.409666 -0.794071
v -0.238139 1.414609 -0.760697
v -0.273563 1.400595 -0.761575
v -0.079212 0.964936 -0.821941
v -0.061501 0.969880 -0.788567
v -0.096924 0.955865 -0.789445
f 199 200 203
f 199 203 202
f 200 201 204
f 200 204 203
f 201 199 202
f 201 202 204
v -0.083440 0.963560 -0.788754
v -0.080550 0.973276 -0.806899
v -0.073646 0.953845 -0.804300
v -0.501457 0.793992 -0.946127
v -0.498567 0.803708 -0.964272
v -0.491663 0.784277 -0.961673
f 205 206 209
f 205 209 208
f 206 207 210
f 206 210 209
f 207 205 208
f 207 208 210
v -0.079212 0.959148 -0.821537
v -0.060382 0.962927 -0.788626
v -0.098043 0.968607 -0.789789
v -0.152664 0.491717 -0.725844
v -0.133834 0.495495 -0.692933
v -0.171495 0.501175 -0.694096
f 211 212 215
f 211 215 214
f 212 213 216
f 212 216 215
f 213 211 214
f 213 214 216
v -0.134092 0.496129 -0.692498
v -0.170744 0.505818 -0.696338
v -0.153157 0.486440 -0.724036
v -0.227847 0.200000 -0.544849
v -0.264499 0.209689 -0.548690
v -0.246911 0.190311 -0.576387
f 217 218 221
f 217 221 220
f 218 219 222
f 218 222 221
f 219 217 220
f 219 220 222
v 0.000000 3.602405 -1.250684
v 0.017422 3.591132 -1.218725
v -0.017422 3.606463 -1.217039
v -0.196274 3.161656 -1.299148
v -0.178852 3.150384 -1.267188
v -0.213696 3.165715 -1.265503
f 223 224 227
f 223 227 226
f 224 225 228
f 224 228 227
f 225 223 226
f 225 226 228
v -0.198128 3.159252 -1.289136
v -0.187935 3.166443 -1.272511
v -0.202759 3.152060 -1.270193
v -0.160493 3.119515 -1.295020
v -0.150300 3.126706 -1.278395
v -0.165125 3.112323 -1.276077
f 229 230 233
f 229 233 232
f 230 231 234
f 230 234 233
f 231 229 232
f 231 232 234
v -0.175510 3.159252 -1.270009
v -0.212274 3.167856 -1.264871
v -0.201038 3.150648 -1.296959
v -0.235906 2.798180 -1.097526
v -0.272670 2.806784 -1.092387
v -0.261434 2.789577 -1.124476
f 235 236 239
f 235 239 238
f 236 237 240
f 236 240 239
f 237 235 238
f 237 238 240
v -0.256670 2.799192 -1.126773
v -0.237659 2.796426 -1.093865
v -0.275682 2.798924 -1.093750
v -0.281396 2.423563 -1.144060
v -0.262385 2.420797 -1.111152
v -0.300408 2.423294 -1.111038
f 241 242 245
f 241 245 244
f 242 243 246
f 242 246 245
f 243 241 244
f 243 244 246
v -0.281396 2.423096 -1.144077
v -0.262970 2.427123 -1.110967
v -0.299823 2.417434 -1.111207
v -0.158556 1.956131 -1.155653
v -0.140130 1.960157 -1.122543
v -0.176983 1.950469 -1.122783
f 247 248 251
f 247 251 250
f 248 249 252
f 248 252 251
f 249 247 250
f 249 250 252
v -0.158556 1.949163 -1.154701
v -0.140400 1.964318 -1.124824
v -0.176713 1.953275 -1.121454
v 0.014146 1.429632 -0.996136
v 0.032303 1.444786 -0.966259
v -0.004011 1.433743 -0.962888
f 253 254 257
f 253 257 256
f 254 255 258
f 254 258 257
f 255 253 256
f 255 256 258
v 0.002526 1.436054 -0.993775
v 0.034181 1.445129 -0.974602
v 0.005731 1.426978 -0.956906
v 0.158411 1.097192 -1.090742
v 0.190066 1.106267 -1.071569
v 0.161616 1.088116 -1.053872
f 259 260 263
f 259 263 262
f 260 261 264
f 260 264 263
f 261 259 262
f 261 262 264
v 0.170031 1.094287 -1.093868
v 0.188544 1.094182 -1.060563
v 0.151518 1.103106 -1.061751
v 0.054283 0.622413 -1.031020
v 0.072796 0.622308 -0.997715
v 0.035770 0.631232 -0.998904
f 265 266 269
f 265 269 268
f 266 267 270
f 266 270 269
f 267 265 268
f 267 268 270
v 0.054283 0.620304 -1.030634
v 0.073335 0.627916 -0.998524
v 0.035231 0.627732 -0.998481
v 0.056447 0.194986 -0.931083
v 0.075499 0.202599 -0.898973
v 0.037394 0.202415 -0.898930
f 271 272 275
f 271 275 274
f 272 273 276
f 272 276 275
f 273 271 274
f 273 274 276
v 0.045335 0.200000 -0.914192
v 0.062148 0.210385 -0.907754
v 0.061857 0.189615 -0.907039
v 0.179619 0.186774 -1.243540
v 0.196433 0.197159 -1.237102
v 0.196141 0.176389 -1.236387
f 277 278 281
f 277 281 280
f 278 279 282
f 278 282 281
f 279 277 280
f 279 280 282
v 0.000000 2.595764 -1.250404
v 0.018936 2.604179 -1.218426
v -0.018936 2.600057 -1.217617
v 0.054845 2.110457 -1.155186
v 0.073782 2.118871 -1.123208
v 0.035909 2.114749 -1.122400
f 283 284 287
f 283 287 286
f 284 285 288
f 284 288 287
f 285 283 286
f 285 286 288
v 0.076610 2.114692 -1.130388
v 0.041602 2.124753 -1.119197
v 0.046324 2.104631 -1.151209
v 0.047685 1.795881 -0.934256
v 0.012677 1.805943 -0.923065
v 0.017398 1.785820 -0.955077
f 289 290 293
f 289 293 292
f 290 291 294
f 290 294 293
f 291 289 292
f 291 292 294
v 0.025920 1.796670 -0.959452
v 0.044080 1.801248 -0.926266
v 0.007761 1.789726 -0.926680
v 0.187492 1.288021 -0.977688
v 0.205651 1.292599 -0.944503
v 0.169332 1.281077 -0.944916
f 295 296 299
f 295 299 298
f 296 297 300
f 296 300 299
f 297 295 298
f 297 298 300
v 0.203485 1.287233 -0.940595
v 0.168001 1.296333 -0.951087
v 0.190989 1.278132 -0.975424
v 0.062722 0.910168 -0.791573
v 0.027238 0.919268 -0.802065
v 0.050227 0.901068 -0.826402
f 301 302 305
f 301 305 304
f 302 303 306
f 302 306 305
f 303 301 304
f 303 304 306
v 0.046729 0.916001 -0.827893
v 0.065346 0.911159 -0.795000
v 0.028112 0.903345 -0.797148
v 0.165178 0.391269 -0.972174
v 0.183795 0.386427 -0.939281
v 0.146561 0.378613 -0.941429
f 307 308 311
f 307 311 310
f 308 309 312
f 308 312 311
f 309 307 310
f 309 310 312
v 0.175328 0.385437 -0.944561
v 0.157630 0.394738 -0.950241
v 0.162575 0.376136 -0.958083
v -0.075142 0.151402 -0.547354
v -0.092840 0.160703 -0.553034
v -0.087895 0.142101 -0.560876
f 313 314 317
f 313 317 316
f 314 315 318
f 314 318 317
f 315 313 316
f 315 316 318
v 0.170387 0.385437 -0.972336
v 0.176657 0.397800 -0.936841
v 0.148489 0.373073 -0.943707
v 0.324041 0.200000 -0.934887
v 0.330311 0.212363 -0.899392
v 0.302143 0.187637 -0.906258
f 319 320 323
f 319 323 322
f 320 321 324
f 320 324 323
f 321 319 322
f 321 322 324
v 0.311070 0.200000 -0.922664
v 0.326367 0.209222 -0.912036
v 0.319059 0.190778 -0.905837
v 0.740951 -0.092862 -1.287270
v 0.756248 -0.083640 -1.276641
v 0.748940 -0.102084 -1.270443
f 325 326 329
f 325 329 328
f 326 327 330
f 326 330 329
f 327 325 328
f 327 328 330
v 0.000000 3.594836 -1.250201
v 0.019013 3.601395 -1.217837
v -0.019013 3.603769 -1.218410
v -0.035082 3.063714 -1.121946
v -0.016069 3.070274 -1.089581
v -0.054096 3.072647 -1.090154
f 331 332 335
f 331 335 334
f 332 333 336
f 332 336 335
f 333 331 334
f 333 334 336
v -0.035082 3.071939 -1.122346
v -0.016079 3.065987 -1.089858
v -0.054085 3.068708 -1.089476
v -0.070397 2.588174 -1.190309
v -0.051394 2.582223 -1.157821
v -0.089400 2.584944 -1.157439
f 337 338 341
f 337 341 340
f 338 339 342
f 338 342 341
f 339 337 340
f 339 340 342
v -0.076499 2.585114 -1.158191
v -0.069838 2.595095 -1.175161
v -0.064854 2.575133 -1.172218
v -0.417302 2.470351 -1.359469
v -0.410640 2.480332 -1.376439
v -0.405656 2.460370 -1.373496
f 343 344 347
f 343 347 346
f 344 345 348
f 344 348 347
f 345 343 346
f 345 346 348
v -0.069002 2.585114 -1.146567
v -0.087906 2.594015 -1.178433
v -0.054283 2.576213 -1.180569
v -0.253512 2.235221 -1.134843
v -0.272416 2.244122 -1.166709
v -0.238793 2.226319 -1.168845
f 349 350 353
f 349 353 352
f 350 351 354
f 350 354 353
f 351 349 352
f 351 352 354
v -0.254907 2.240508 -1.178154
v -0.235974 2.230505 -1.146634
v -0.273840 2.234649 -1.145609
v -0.315044 1.722677 -1.306369
v -0.296111 1.712674 -1.274849
v -0.333976 1.716818 -1.273823
f 355 356 359
f 355 359 358
f 356 357 360
f 356 360 359
f 357 355 358
f 357 358 360
v -0.308615 1.717390 -1.295146
v -0.314717 1.726899 -1.277701
v -0.321799 1.707881 -1.282194
v -0.148582 1.633809 -1.193612
v -0.154684 1.643318 -1.176167
v -0.161766 1.624300 -1.180660
f 361 362 365
f 361 365 364
f 362 363 366
f 362 366 365
f 363 361 364
f 363 364 366
v -0.326834 1.717390 -1.266440
v -0.323384 1.726260 -1.303337
v -0.294913 1.708519 -1.285264
v -0.499066 1.329603 -1.375770
v -0.495616 1.338474 -1.412668
v -0.467145 1.320733 -1.394595
f 367 368 371
f 367 371 370
f 368 369 372
f 368 372 371
f 369 367 370
f 369 370 372
v -0.021926 3.600000 -0.001808
v 0.012343 3.609002 -0.015831
v 0.009583 3.590998 0.017639
v -0.007439 3.271165 -0.177503
v 0.026829 3.280167 -0.191526
v 0.024069 3.262162 -0.158056
f 373 374 377
f 373 377 376
f 374 375 378
f 374 378 377
f 375 373 376
f 375 376 378
v -0.003580 3.271165 -0.163140
v 0.014258 3.281145 -0.195299
v 0.032781 3.261184 -0.168645
v -0.132153 2.904798 -0.348154
v -0.114315 2.914778 -0.380313
v -0.095792 2.894818 -0.353659
f 379 380 383
f 379 383 382
f 380 381 384
f 380 384 383
f 381 379 382
f 381 382 384
v -0.125623 2.904798 -0.357406
v -0.109371 2.914461 -0.366037
v -0.107266 2.895135 -0.358683
v -0.191059 2.810695 -0.585951
v -0.174807 2.820358 -0.594582
v -0.172702 2.801032 -0.587228
f 385 386 389
f 385 389 388
f 386 387 390
f 386 390 389
f 387 385 388
f 387 388 390
v -0.114087 2.905052 -0.382707
v -0.095143 2.906702 -0.349686
v -0.133031 2.902641 -0.349733
v -0.071603 2.508753 -0.387276
v -0.052659 2.510403 -0.354255
v -0.090547 2.506342 -0.354302
f 391 392 395
f 391 395 394
f 392 393 396
f 392 396 395
f 393 391 394
f 393 394 396
v -0.071603 2.514391 -0.386474
v -0.053429 2.500043 -0.356211
v -0.089777 2.511062 -0.353148
v -0.169714 2.213969 -0.469988
v -0.151540 2.199621 -0.439725
v -0.187888 2.210640 -0.436662
f 397 398 401
f 397 401 400
f 398 399 402
f 398 402 401
f 399 397 400
f 399 400 402
v -0.169714 2.211990 -0.470441
v -0.150671 2.206704 -0.437862
v -0.188757 2.205535 -0.438073
v -0.154333 1.726503 -0.558213
v -0.135290 1.721216 -0.525634
v -0.173377 1.720048 -0.525845
f 403 404 407
f 403 407 406
f 404 405 408
f 404 408 407
f 405 403 406
f 405 406 408
v -0.154333 1.714971 -0.557203
v -0.135394 1.724455 -0.525527
v -0.173273 1.728340 -0.526961
v -0.208645 1.248912 -0.385193
v -0.189705 1.258396 -0.353517
v -0.227584 1.262281 -0.354951
f 409 410 413
f 409 413 412
f 410 411 414
f 410 414 413
f 411 409 412
f 411 412 414
v -0.208645 1.262658 -0.385683
v -0.189800 1.250769 -0.354771
v -0.227489 1.256161 -0.353207
v -0.283078 0.782719 -0.524889
v -0.264234 0.770831 -0.493977
v -0.301923 0.776222 -0.492413
f 415 416 419
f 415 419 418
f 416 417 420
f 416 420 419
f 417 415 418
f 417 418 420
v -0.283078 0.774587 -0.525668
v -0.264359 0.774058 -0.492482
v -0.301797 0.781128 -0.493129
v -0.359365 0.373987 -0.489025
v -0.340646 0.373458 -0.455839
v -0.378083 0.380528 -0.456486
f 421 422 425
f 421 425 424
f 422 423 426
f 422 426 425
f 423 421 424
f 423 424 426
v -0.354772 0.375991 -0.445601
v -0.375745 0.388465 -0.474868
v -0.347577 0.363516 -0.480881
v -0.503857 0.200000 -0.413780
v -0.524829 0.212474 -0.443047
v -0.496662 0.187526 -0.449059
f 427 428 431
f 427 431 430
f 428 429 432
f 428 432 431
f 429 427 430
f 429 430 432
v 0.942658 2.601403 -0.021955
v 0.961076 2.594432 0.010667
v 0.924241 2.604165 0.011289
v 0.863038 2.301301 -0.041130
v 0.881456 2.294331 -0.008508
v 0.844620 2.304064 -0.007886
f 433 434 437
f 433 437 436
f 434 435 438
f 434 438 437
f 435 433 436
f 435 436 438
v 0.863038 2.301413 -0.041123
v 0.882056 2.297996 -0.008280
v 0.844020 2.300286 -0.008122
v 0.834994 1.837737 -0.073117
v 0.854012 1.834320 -0.040274
v 0.815976 1.836610 -0.040116
f 439 440 443
f 439 443 442
f 440 441 444
f 440 444 443
f 441 439 442
f 441 442 444
v 0.834994 1.830413 -0.072388
v 0.854019 1.838148 -0.040291
v 0.815968 1.840106 -0.040827
v 0.811858 1.412116 0.042131
v 0.830883 1.419851 0.074228
v 0.792832 1.421809 0.073692
f 445 446 449
f 445 449 448
f 446 447 450
f 446 450 449
f 447 445 448
f 447 448 450
v 0.828241 1.417926 0.048668
v 0.814796 1.427138 0.083112
v 0.792535 1.408714 0.058272
v 0.946651 1.096727 0.180791
v 0.933206 1.105939 0.215235
v 0.910945 1.087515 0.190396
f 451 452 455
f 451 455 454
f 452 453 456
f 452 456 455
f 453 451 454
f 453 454 456
v 0.930267 1.093877 0.173659
v 0.949217 1.100115 0.206125
v 0.911318 1.096188 0.206638
v 0.983444 0.589271 0.239584
v 1.002393 0.595509 0.272050
v 0.964494 0.591582 0.272563
f 457 458 461
f 457 461 460
f 458 459 462
f 458 462 461
f 459 457 460
f 459 460 462
v 0.983444 0.585513 0.240415
v 1.002167 0.598791 0.270831
v 0.964721 0.592059 0.272951
v 1.052562 0.235731 0.350558
v 1.071285 0.249008 0.380975
v 1.033839 0.242276 0.383095
f 463 464 467
f 463 467 466
f 464 465 468
f 464 468 467
f 465 463 466
f 465 466 468
v 1.053726 0.242338 0.383486
v 1.044687 0.249708 0.366281
v 1.059273 0.234969 0.364860
v 0.798568 -0.012583 0.408350
v 0.789530 -0.005214 0.391145
v 0.804116 -0.019952 0.389724
f 469 470 473
f 469 473 472
f 470 471 474
f 470 474 473
f 471 469 472
f 471 472 474
v -0.942658 2.601386 -0.021956
v -0.924520 2.605126 0.011345
v -0.960797 2.593489 0.010611
v -0.788204 2.121799 -0.052225
v -0.770065 2.125539 -0.018923
v -0.806342 2.113902 -0.019657
f 475 476 479
f 475 479 478
f 476 477 480
f 476 480 479
f 477 475 478
f 477 478 480
v -0.788204 2.114116 -0.051348
v -0.769214 2.122079 -0.019286
v -0.807193 2.125045 -0.020172
v -0.828343 1.642211 0.089624
v -0.809353 1.650174 0.121686
v -0.847332 1.653139 0.120800
f 481 482 485
f 481 485 484
f 482 483 486
f 482 486 485
f 483 481 484
f 483 484 486
v -0.828343 1.655055 0.089700
v -0.809987 1.650111 0.122725
v -0.846698 1.640358 0.119684
v -0.684166 1.160450 -0.064486
v -0.665811 1.155506 -0.031461
v -0.702521 1.145753 -0.034502
f 487 488 491
f 487 491 490
f 488 489 492
f 488 492 491
f 489 487 490
f 489 490 492
v -0.690665 1.153903 -0.053571
v -0.677776 1.163600 -0.040462
v -0.684058 1.144205 -0.036416
v -0.386555 1.014538 -0.249483
v -0.373666 1.024235 -0.236374
v -0.379948 1.004840 -0.232328
f 493 494 497
f 493 497 496
f 494 495 498
f 494 498 497
f 495 493 496
f 495 496 498
v -0.705961 1.153903 -0.046480
v -0.670957 1.162562 -0.058797
v -0.675581 1.145243 -0.025172
v -0.682999 0.823563 -0.213468
v -0.647995 0.832223 -0.225785
v -0.652618 0.814904 -0.192160
f 499 500 503
f 499 503 502
f 500 501 504
f 500 504 503
f 501 499 502
f 501 502 504
v -0.661204 0.825754 -0.222269
v -0.651028 0.820394 -0.204957
v -0.671380 0.824542 -0.204187
v -0.696561 0.658076 -0.253401
v -0.686385 0.652716 -0.236089
v -0.706737 0.656865 -0.235319
f 505 506 509
f 505 509 508
f 506 507 510
f 506 510 509
f 507 505 508
f 507 508 510
v -0.661204 0.828872 -0.231821
v -0.642429 0.817762 -0.200578
v -0.679979 0.824056 -0.199014
v -0.734285 0.418228 -0.333921
v -0.715510 0.407119 -0.302678
v -0.753059 0.413412 -0.301114
f 511 512 515
f 511 515 514
f 512 513 516
f 512 516 515
f 513 511 514
f 513 514 516
v -0.730243 0.412920 -0.334197
v -0.721317 0.424344 -0.298957
v -0.751294 0.401496 -0.304559
v -0.573435 0.200000 -0.304893
v -0.564509 0.211424 -0.269654
v -0.594486 0.188576 -0.275255
f 517 518 521
f 517 521 520
f 518 519 522
f 518 522 521
f 519 517 520
f 519 520 522
