o mesh
v 0.000000 0.000000 0.035000
v 0.016490 0.000000 0.022697
v 0.028878 0.000000 0.009383
v 0.028878 0.000000 -0.009383
v 0.016490 0.000000 -0.022697
v 0.000000 0.000000 -0.035000
v -0.016490 0.000000 -0.022697
v -0.028878 0.000000 -0.009383
v -0.028878 0.000000 0.009383
v -0.016490 0.000000 0.022697
v 0.000000 0.600000 0.031500
v 0.014841 0.600000 0.020427
v 0.025990 0.600000 0.008445
v 0.025990 0.600000 -0.008445
v 0.014841 0.600000 -0.020427
v 0.000000 0.600000 -0.031500
v -0.014841 0.600000 -0.020427
v -0.025990 0.600000 -0.008445
v -0.025990 0.600000 0.008445
v -0.014841 0.600000 0.020427
f 1 2 12
f 1 12 11
f 2 3 13
f 2 13 12
f 3 4 14
f 3 14 13
f 4 5 15
f 4 15 14
f 5 6 16
f 5 16 15
f 6 7 17
f 6 17 16
f 7 8 18
f 7 18 17
f 8 9 19
f 8 19 18
f 9 10 20
f 9 20 19
f 10 1 11
f 10 11 20
v 0.000000 0.600322 0.031498
v 0.014792 0.601423 0.020414
v 0.025903 0.602213 0.008423
v 0.025903 0.602041 -0.008466
v 0.014792 0.601006 -0.020439
v 0.000000 0.599678 -0.031498
v -0.014792 0.598577 -0.020414
v -0.025903 0.597787 -0.008423
v -0.025903 0.597959 0.008466
v -0.014792 0.598994 0.020439
v -0.041639 1.107335 0.023164
v -0.028327 1.108326 0.013188
v -0.018326 1.109037 0.002396
v -0.018326 1.108882 -0.012804
v -0.028327 1.107950 -0.023579
v -0.041639 1.106755 -0.033533
v -0.054952 1.105764 -0.023557
v -0.064952 1.105053 -0.012765
v -0.064952 1.105209 0.002435
v -0.054952 1.106140 0.013210
f 21 22 32
f 21 32 31
f 22 23 33
f 22 33 32
f 23 24 34
f 23 34 33
f 24 25 35
f 24 35 34
f 25 26 36
f 25 36 35
f 26 27 37
f 26 37 36
f 27 28 38
f 27 38 37
f 28 29 39
f 28 39 38
f 29 30 40
f 29 40 39
f 30 21 31
f 30 31 40
v -0.041639 1.107045 -0.005185
v -0.041199 1.103500 0.000588
v -0.040199 1.100000 0.006352
v -0.037967 1.096601 0.012100
v -0.033968 1.093347 0.017825
v -0.027980 1.090256 0.023524
v -0.020196 1.087313 0.029198
v -0.011223 1.084467 0.034856
v -0.001996 1.081641 0.040512
v 0.006374 1.078746 0.046178
v 0.012807 1.075692 0.051871
v 0.016445 1.072408 0.057600
v 0.016813 1.068856 0.063373
v 0.013911 1.065037 0.069190
v 0.008214 1.060988 0.075044
v 0.000579 1.056780 0.080923
v -0.007911 1.052502 0.086814
v -0.016149 1.048245 0.092702
v -0.023196 1.044086 0.098573
v -0.028448 1.040073 0.104421
v -0.031712 1.036224 0.110242
v -0.033207 1.032520 0.116040
v -0.033471 1.028916 0.121822
v -0.033176 1.025359 0.127596
v -0.033616 1.028904 0.121824
v -0.034616 1.032404 0.116059
v -0.036848 1.035803 0.110311
v -0.040847 1.039057 0.104586
v -0.046835 1.042148 0.098888
v -0.054618 1.045091 0.093213
v -0.063592 1.047937 0.087555
v -0.072818 1.050763 0.081900
v -0.081189 1.053658 0.076233
v -0.087622 1.056712 0.070541
v -0.091259 1.059996 0.064811
v -0.091627 1.063548 0.059038
v -0.088726 1.067367 0.053221
v -0.083029 1.071416 0.047368
v -0.075394 1.075624 0.041488
v -0.066904 1.079902 0.035597
v -0.058666 1.084159 0.029710
v -0.051618 1.088318 0.023838
v -0.046367 1.092331 0.017990
v -0.043103 1.096180 0.012169
v -0.041608 1.099884 0.006371
v -0.041344 1.103488 0.000589
f 41 42 43
f 41 43 42
f 41 43 44
f 41 44 43
f 41 44 45
f 41 45 44
f 41 45 46
f 41 46 45
f 41 46 47
f 41 47 46
f 41 47 48
f 41 48 47
f 41 48 49
f 41 49 48
f 41 49 50
f 41 50 49
f 41 50 51
f 41 51 50
f 41 51 52
f 41 52 51
f 41 52 53
f 41 53 52
f 41 53 54
f 41 54 53
f 41 54 55
f 41 55 54
f 41 55 56
f 41 56 55
f 41 56 57
f 41 57 56
f 41 57 58
f 41 58 57
f 41 58 59
f 41 59 58
f 41 59 60
f 41 60 59
f 41 60 61
f 41 61 60
f 41 61 62
f 41 62 61
f 41 62 63
f 41 63 62
f 41 63 64
f 41 64 63
f 41 64 65
f 41 65 64
f 41 65 66
f 41 66 65
f 41 66 67
f 41 67 66
f 41 67 68
f 41 68 67
f 41 68 69
f 41 69 68
f 41 69 70
f 41 70 69
f 41 70 71
f 41 71 70
f 41 71 72
f 41 72 71
f 41 72 73
f 41 73 72
f 41 73 74
f 41 74 73
f 41 74 75
f 41 75 74
f 41 75 76
f 41 76 75
f 41 76 77
f 41 77 76
f 41 77 78
f 41 78 77
f 41 78 79
f 41 79 78
f 41 79 80
f 41 80 79
f 41 80 81
f 41 81 80
f 41 81 82
f 41 82 81
f 41 82 83
f 41 83 82
f 41 83 84
f 41 84 83
f 41 84 85
f 41 85 84
f 41 85 86
f 41 86 85
v -0.041639 1.107045 -0.005185
v -0.037437 1.105779 -0.005826
v -0.033188 1.104502 -0.007792
v -0.028900 1.103218 -0.010835
v -0.024584 1.101928 -0.014689
v -0.020250 1.100634 -0.019054
v -0.015910 1.099339 -0.023602
v -0.011575 1.098045 -0.028003
v -0.007256 1.096754 -0.031939
v -0.002963 1.095468 -0.035127
v 0.001295 1.094190 -0.037336
v 0.005512 1.092920 -0.038404
v 0.009686 1.091660 -0.038248
v 0.013817 1.090408 -0.036866
v 0.017907 1.089164 -0.034343
v 0.021963 1.087928 -0.030841
v 0.025992 1.086697 -0.026591
v 0.030005 1.085470 -0.021876
v 0.034013 1.084243 -0.017014
v 0.038027 1.083016 -0.012336
v 0.042059 1.081784 -0.008168
v 0.046120 1.080547 -0.004811
v 0.050219 1.079301 -0.002531
v 0.054365 1.078046 -0.001576
v 0.050163 1.079313 -0.000935
v 0.045914 1.080589 0.001031
v 0.041626 1.081874 0.004074
v 0.037310 1.083164 0.007929
v 0.032976 1.084458 0.012293
v 0.028636 1.085753 0.016842
v 0.024300 1.087047 0.021243
v 0.019981 1.088338 0.025179
v 0.015689 1.089623 0.028366
v 0.011431 1.090901 0.030576
v 0.007214 1.092171 0.031644
v 0.003040 1.093432 0.031487
v -0.001091 1.094684 0.030105
v -0.005182 1.095927 0.027582
v -0.009237 1.097164 0.024080
v -0.013267 1.098395 0.019831
v -0.017279 1.099622 0.015116
v -0.021287 1.100848 0.010253
v -0.025301 1.102076 0.005575
v -0.029334 1.103308 0.001407
v -0.033394 1.104545 -0.001949
v -0.037493 1.105790 -0.004230
f 87 88 89
f 87 89 88
f 87 89 90
f 87 90 89
f 87 90 91
f 87 91 90
f 87 91 92
f 87 92 91
f 87 92 93
f 87 93 92
f 87 93 94
f 87 94 93
f 87 94 95
f 87 95 94
f 87 95 96
f 87 96 95
f 87 96 97
f 87 97 96
f 87 97 98
f 87 98 97
f 87 98 99
f 87 99 98
f 87 99 100
f 87 100 99
f 87 100 101
f 87 101 100
f 87 101 102
f 87 102 101
f 87 102 103
f 87 103 102
f 87 103 104
f 87 104 103
f 87 104 105
f 87 105 104
f 87 105 106
f 87 106 105
f 87 106 107
f 87 107 106
f 87 107 108
f 87 108 107
f 87 108 109
f 87 109 108
f 87 109 110
f 87 110 109
f 87 110 111
f 87 111 110
f 87 111 112
f 87 112 111
f 87 112 113
f 87 113 112
f 87 113 114
f 87 114 113
f 87 114 115
f 87 115 114
f 87 115 116
f 87 116 115
f 87 116 117
f 87 117 116
f 87 117 118
f 87 118 117
f 87 118 119
f 87 119 118
f 87 119 120
f 87 120 119
f 87 120 121
f 87 121 120
f 87 121 122
f 87 122 121
f 87 122 123
f 87 123 122
f 87 123 124
f 87 124 123
f 87 124 125
f 87 125 124
f 87 125 126
f 87 126 125
f 87 126 127
f 87 127 126
f 87 127 128
f 87 128 127
f 87 128 129
f 87 129 128
f 87 129 130
f 87 130 129
f 87 130 131
f 87 131 130
f 87 131 132
f 87 132 131
v -0.041639 1.107045 -0.005185
v -0.038723 1.104763 -0.009007
v -0.036878 1.102381 -0.013914
v -0.035971 1.099913 -0.019769
v -0.035805 1.097376 -0.026373
v -0.036133 1.094794 -0.033476
v -0.036674 1.092192 -0.040795
v -0.037130 1.089597 -0.048028
v -0.037213 1.087038 -0.054884
v -0.036661 1.084537 -0.061097
v -0.035259 1.082114 -0.066451
v -0.032853 1.079784 -0.070790
v -0.029366 1.077555 -0.074036
v -0.024796 1.075425 -0.076188
v -0.019223 1.073388 -0.077325
v -0.012800 1.071430 -0.077603
v -0.005742 1.069530 -0.077239
v 0.001690 1.067666 -0.076497
v 0.009205 1.065808 -0.075670
v 0.016509 1.063931 -0.075058
v 0.023318 1.062009 -0.074945
v 0.029386 1.060018 -0.075582
v 0.034517 1.057940 -0.077167
v 0.038575 1.055763 -0.079835
v 0.035659 1.058046 -0.076012
v 0.033814 1.060427 -0.071105
v 0.032907 1.062895 -0.065251
v 0.032741 1.065432 -0.058647
v 0.033069 1.068015 -0.051543
v 0.033610 1.070617 -0.044225
v 0.034066 1.073211 -0.036992
v 0.034149 1.075771 -0.030136
v 0.033597 1.078272 -0.023923
v 0.032195 1.080694 -0.018569
v 0.029789 1.083024 -0.014229
v 0.026302 1.085254 -0.010984
v 0.021732 1.087383 -0.008832
v 0.016159 1.089420 -0.007694
v 0.009736 1.091379 -0.007416
v 0.002678 1.093278 -0.007781
v -0.004754 1.095143 -0.008523
v -0.012269 1.097000 -0.009349
v -0.019573 1.098877 -0.009962
v -0.026382 1.100800 -0.010074
v -0.032450 1.102791 -0.009437
v -0.037581 1.104868 -0.007853
f 133 134 135
f 133 135 134
f 133 135 136
f 133 136 135
f 133 136 137
f 133 137 136
f 133 137 138
f 133 138 137
f 133 138 139
f 133 139 138
f 133 139 140
f 133 140 139
f 133 140 141
f 133 141 140
f 133 141 142
f 133 142 141
f 133 142 143
f 133 143 142
f 133 143 144
f 133 144 143
f 133 144 145
f 133 145 144
f 133 145 146
f 133 146 145
f 133 146 147
f 133 147 146
f 133 147 148
f 133 148 147
f 133 148 149
f 133 149 148
f 133 149 150
f 133 150 149
f 133 150 151
f 133 151 150
f 133 151 152
f 133 152 151
f 133 152 153
f 133 153 152
f 133 153 154
f 133 154 153
f 133 154 155
f 133 155 154
f 133 155 156
f 133 156 155
f 133 156 157
f 133 157 156
f 133 157 158
f 133 158 157
f 133 158 159
f 133 159 158
f 133 159 160
f 133 160 159
f 133 160 161
f 133 161 160
f 133 161 162
f 133 162 161
f 133 162 163
f 133 163 162
f 133 163 164
f 133 164 163
f 133 164 165
f 133 165 164
f 133 165 166
f 133 166 165
f 133 166 167
f 133 167 166
f 133 167 168
f 133 168 167
f 133 168 169
f 133 169 168
f 133 169 170
f 133 170 169
f 133 170 171
f 133 171 170
f 133 171 172
f 133 172 171
f 133 172 173
f 133 173 172
f 133 173 174
f 133 174 173
f 133 174 175
f 133 175 174
f 133 175 176
f 133 176 175
f 133 176 177
f 133 177 176
f 133 177 178
f 133 178 177
v -0.041639 1.107045 -0.005185
v -0.045281 1.105291 -0.009057
v -0.050387 1.103426 -0.012027
v -0.056597 1.101478 -0.014317
v -0.063597 1.099469 -0.016121
v -0.071062 1.097425 -0.017639
v -0.078653 1.095372 -0.019078
v -0.086040 1.093334 -0.020644
v -0.092907 1.091335 -0.022529
v -0.098982 1.089397 -0.024903
v -0.104041 1.087535 -0.027902
v -0.107930 1.085763 -0.031622
v -0.110569 1.084085 -0.036113
v -0.111957 1.082501 -0.041373
v -0.112174 1.081007 -0.047355
v -0.111377 1.079590 -0.053961
v -0.109786 1.078232 -0.061056
v -0.107677 1.076915 -0.068471
v -0.105362 1.075612 -0.076012
v -0.103175 1.074300 -0.083474
v -0.101451 1.072953 -0.090651
v -0.100518 1.071546 -0.097341
v -0.100689 1.070055 -0.103351
v -0.102324 1.068453 -0.108460
v -0.098683 1.070207 -0.104587
v -0.093576 1.072072 -0.101617
v -0.087366 1.074021 -0.099327
v -0.080366 1.076030 -0.097523
v -0.072902 1.078073 -0.096005
v -0.065310 1.080127 -0.094566
v -0.057924 1.082165 -0.093000
v -0.051056 1.084163 -0.091115
v -0.044982 1.086102 -0.088741
v -0.039923 1.087963 -0.085742
v -0.036034 1.089736 -0.082022
v -0.033395 1.091414 -0.077531
v -0.032007 1.092997 -0.072271
v -0.031790 1.094491 -0.066290
v -0.032587 1.095909 -0.059683
v -0.034178 1.097266 -0.052588
v -0.036287 1.098584 -0.045174
v -0.038602 1.099886 -0.037632
v -0.040789 1.101198 -0.030170
v -0.042512 1.102546 -0.022993
v -0.043445 1.103953 -0.016303
v -0.043274 1.105443 -0.010293
f 179 180 181
f 179 181 180
f 179 181 182
f 179 182 181
f 179 182 183
f 179 183 182
f 179 183 184
f 179 184 183
f 179 184 185
f 179 185 184
f 179 185 186
f 179 186 185
f 179 186 187
f 179 187 186
f 179 187 188
f 179 188 187
f 179 188 189
f 179 189 188
f 179 189 190
f 179 190 189
f 179 190 191
f 179 191 190
f 179 191 192
f 179 192 191
f 179 192 193
f 179 193 192
f 179 193 194
f 179 194 193
f 179 194 195
f 179 195 194
f 179 195 196
f 179 196 195
f 179 196 197
f 179 197 196
f 179 197 198
f 179 198 197
f 179 198 199
f 179 199 198
f 179 199 200
f 179 200 199
f 179 200 201
f 179 201 200
f 179 201 202
f 179 202 201
f 179 202 203
f 179 203 202
f 179 203 204
f 179 204 203
f 179 204 205
f 179 205 204
f 179 205 206
f 179 206 205
f 179 206 207
f 179 207 206
f 179 207 208
f 179 208 207
f 179 208 209
f 179 209 208
f 179 209 210
f 179 210 209
f 179 210 211
f 179 211 210
f 179 211 212
f 179 212 211
f 179 212 213
f 179 213 212
f 179 213 214
f 179 214 213
f 179 214 215
f 179 215 214
f 179 215 216
f 179 216 215
f 179 216 217
f 179 217 216
f 179 217 218
f 179 218 217
f 179 218 219
f 179 219 218
f 179 219 220
f 179 220 219
f 179 220 221
f 179 221 220
f 179 221 222
f 179 222 221
f 179 222 223
f 179 223 222
f 179 223 224
f 179 224 223
v -0.041639 1.107045 -0.005185
v -0.045663 1.103783 -0.003589
v -0.049540 1.100538 -0.001576
v -0.053092 1.097328 0.001364
v -0.056179 1.094170 0.005638
v -0.058738 1.091071 0.011417
v -0.060822 1.088025 0.018558
v -0.062588 1.085015 0.026604
v -0.064286 1.082012 0.034848
v -0.066209 1.078984 0.042448
v -0.068644 1.075898 0.048582
v -0.071820 1.072731 0.052600
v -0.075862 1.069467 0.054141
v -0.080771 1.066106 0.053205
v -0.086420 1.062663 0.050153
v -0.092581 1.059163 0.045635
v -0.098968 1.055638 0.040474
v -0.105286 1.052120 0.035510
v -0.111287 1.048638 0.031451
v -0.116811 1.045209 0.028754
v -0.121809 1.041838 0.027562
v -0.126341 1.038520 0.027705
v -0.130548 1.035237 0.028773
v -0.134609 1.031971 0.030261
v -0.130586 1.035233 0.028665
v -0.126709 1.038479 0.026652
v -0.123156 1.041688 0.023712
v -0.120070 1.044846 0.019438
v -0.117510 1.047945 0.013659
v -0.115427 1.050991 0.006518
v -0.113660 1.054002 -0.001528
v -0.111963 1.057005 -0.009772
v -0.110040 1.060033 -0.017372
v -0.107604 1.063118 -0.023506
v -0.104429 1.066286 -0.027524
v -0.100386 1.069550 -0.029065
v -0.095478 1.072910 -0.028129
v -0.089829 1.076353 -0.025077
v -0.083667 1.079853 -0.020559
v -0.077281 1.083379 -0.015398
v -0.070963 1.086896 -0.010434
v -0.064962 1.090378 -0.006375
v -0.059437 1.093807 -0.003679
v -0.054439 1.097178 -0.002486
v -0.049908 1.100497 -0.002629
v -0.045700 1.103779 -0.003698
f 225 226 227
f 225 227 226
f 225 227 228
f 225 228 227
f 225 228 229
f 225 229 228
f 225 229 230
f 225 230 229
f 225 230 231
f 225 231 230
f 225 231 232
f 225 232 231
f 225 232 233
f 225 233 232
f 225 233 234
f 225 234 233
f 225 234 235
f 225 235 234
f 225 235 236
f 225 236 235
f 225 236 237
f 225 237 236
f 225 237 238
f 225 238 237
f 225 238 239
f 225 239 238
f 225 239 240
f 225 240 239
f 225 240 241
f 225 241 240
f 225 241 242
f 225 242 241
f 225 242 243
f 225 243 242
f 225 243 244
f 225 244 243
f 225 244 245
f 225 245 244
f 225 245 246
f 225 246 245
f 225 246 247
f 225 247 246
f 225 247 248
f 225 248 247
f 225 248 249
f 225 249 248
f 225 249 250
f 225 250 249
f 225 250 251
f 225 251 250
f 225 251 252
f 225 252 251
f 225 252 253
f 225 253 252
f 225 253 254
f 225 254 253
f 225 254 255
f 225 255 254
f 225 255 256
f 225 256 255
f 225 256 257
f 225 257 256
f 225 257 258
f 225 258 257
f 225 258 259
f 225 259 258
f 225 259 260
f 225 260 259
f 225 260 261
f 225 261 260
f 225 261 262
f 225 262 261
f 225 262 263
f 225 263 262
f 225 263 264
f 225 264 263
f 225 264 265
f 225 265 264
f 225 265 266
f 225 266 265
f 225 266 267
f 225 267 266
f 225 267 268
f 225 268 267
f 225 268 269
f 225 269 268
f 225 269 270
f 225 270 269
v -0.041639 1.107223 0.023165
v -0.028454 1.109299 0.013186
v -0.018550 1.110839 0.002392
v -0.018550 1.110743 -0.012808
v -0.028454 1.109069 -0.023582
v -0.041639 1.106868 -0.033534
v -0.054824 1.104791 -0.023555
v -0.064729 1.103252 -0.012761
v -0.064729 1.103347 0.002439
v -0.054824 1.105022 0.013213
v -0.104723 1.496071 0.017892
v -0.092856 1.497940 0.008912
v -0.083942 1.499325 -0.000803
v -0.083942 1.499239 -0.014483
v -0.092856 1.497733 -0.024180
v -0.104723 1.495751 -0.033137
v -0.116589 1.493883 -0.024156
v -0.125503 1.492498 -0.014441
v -0.125503 1.492583 -0.000761
v -0.116589 1.494090 0.008936
f 271 272 282
f 271 282 281
f 272 273 283
f 272 283 282
f 273 274 284
f 273 284 283
f 274 275 285
f 274 285 284
f 275 276 286
f 275 286 285
f 276 277 287
f 276 287 286
f 277 278 288
f 277 288 287
f 278 279 289
f 278 289 288
f 279 280 290
f 279 290 289
f 280 271 281
f 280 281 290
v -0.104723 1.495911 -0.007622
v -0.105588 1.494098 -0.003110
v -0.105851 1.492383 0.001574
v -0.105078 1.490839 0.006553
v -0.103040 1.489501 0.011893
v -0.099749 1.488369 0.017591
v -0.095460 1.487401 0.023574
v -0.090629 1.486522 0.029711
v -0.085854 1.485634 0.035833
v -0.081780 1.484631 0.041754
v -0.079003 1.483414 0.047305
v -0.077980 1.481911 0.052356
v -0.078958 1.480079 0.056836
v -0.081936 1.477919 0.060744
v -0.086669 1.475471 0.064153
v -0.092699 1.472810 0.067191
v -0.099430 1.470035 0.070029
v -0.106216 1.467250 0.072851
v -0.112462 1.464555 0.075828
v -0.117708 1.462023 0.079090
v -0.121701 1.459696 0.082709
v -0.124430 1.457577 0.086689
v -0.126123 1.455628 0.090965
v -0.127214 1.453777 0.095412
v -0.126348 1.455591 0.090900
v -0.126085 1.457305 0.086217
v -0.126859 1.458850 0.081237
v -0.128897 1.460187 0.075897
v -0.132187 1.461319 0.070199
v -0.136477 1.462287 0.064216
v -0.141307 1.463167 0.058079
v -0.146082 1.464055 0.051958
v -0.150156 1.465058 0.046036
v -0.152933 1.466274 0.040485
v -0.153957 1.467778 0.035434
v -0.152979 1.469610 0.030954
v -0.150000 1.471770 0.027046
v -0.145267 1.474218 0.023637
v -0.139237 1.476878 0.020599
v -0.132506 1.479654 0.017761
v -0.125720 1.482438 0.014939
v -0.119474 1.485134 0.011962
v -0.114229 1.487666 0.008701
v -0.110235 1.489993 0.005081
v -0.107506 1.492112 0.001101
v -0.105813 1.494061 -0.003174
f 291 292 293
f 291 293 292
f 291 293 294
f 291 294 293
f 291 294 295
f 291 295 294
f 291 295 296
f 291 296 295
f 291 296 297
f 291 297 296
f 291 297 298
f 291 298 297
f 291 298 299
f 291 299 298
f 291 299 300
f 291 300 299
f 291 300 301
f 291 301 300
f 291 301 302
f 291 302 301
f 291 302 303
f 291 303 302
f 291 303 304
f 291 304 303
f 291 304 305
f 291 305 304
f 291 305 306
f 291 306 305
f 291 306 307
f 291 307 306
f 291 307 308
f 291 308 307
f 291 308 309
f 291 309 308
f 291 309 310
f 291 310 309
f 291 310 311
f 291 311 310
f 291 311 312
f 291 312 311
f 291 312 313
f 291 313 312
f 291 313 314
f 291 314 313
f 291 314 315
f 291 315 314
f 291 315 316
f 291 316 315
f 291 316 317
f 291 317 316
f 291 317 318
f 291 318 317
f 291 318 319
f 291 319 318
f 291 319 320
f 291 320 319
f 291 320 321
f 291 321 320
f 291 321 322
f 291 322 321
f 291 322 323
f 291 323 322
f 291 323 324
f 291 324 323
f 291 324 325
f 291 325 324
f 291 325 326
f 291 326 325
f 291 326 327
f 291 327 326
f 291 327 328
f 291 328 327
f 291 328 329
f 291 329 328
f 291 329 330
f 291 330 329
f 291 330 331
f 291 331 330
f 291 331 332
f 291 332 331
f 291 332 333
f 291 333 332
f 291 333 334
f 291 334 333
f 291 334 335
f 291 335 334
f 291 335 336
f 291 336 335
v -0.104723 1.495911 -0.007622
v -0.100578 1.494109 -0.009325
v -0.096753 1.492249 -0.011880
v -0.093353 1.490313 -0.015567
v -0.090392 1.488298 -0.020424
v -0.087810 1.486216 -0.026292
v -0.085487 1.484087 -0.032849
v -0.083258 1.481942 -0.039659
v -0.080938 1.479813 -0.046225
v -0.078339 1.477733 -0.052048
v -0.075298 1.475733 -0.056692
v -0.071694 1.473834 -0.059835
v -0.067461 1.472047 -0.061302
v -0.062600 1.470372 -0.061096
v -0.057176 1.468798 -0.059386
v -0.051310 1.467304 -0.056499
v -0.045165 1.465859 -0.052869
v -0.038929 1.464431 -0.048994
v -0.032787 1.462985 -0.045372
v -0.026904 1.461494 -0.042440
v -0.021400 1.459934 -0.040519
v -0.016335 1.458296 -0.039767
v -0.011694 1.456582 -0.040147
v -0.007374 1.454811 -0.041380
v -0.011518 1.456614 -0.039678
v -0.015343 1.458474 -0.037123
v -0.018743 1.460410 -0.033435
v -0.021704 1.462424 -0.028578
v -0.024286 1.464506 -0.022710
v -0.026609 1.466635 -0.016153
v -0.028838 1.468780 -0.009343
v -0.031158 1.470910 -0.002778
v -0.033757 1.472989 0.003046
v -0.036798 1.474989 0.007690
v -0.040403 1.476889 0.010832
v -0.044635 1.478675 0.012300
v -0.049496 1.480350 0.012093
v -0.054920 1.481924 0.010384
v -0.060786 1.483418 0.007496
v -0.066931 1.484863 0.003867
v -0.073168 1.486292 -0.000008
v -0.079309 1.487737 -0.003630
v -0.085192 1.489229 -0.006562
v -0.090696 1.490788 -0.008484
v -0.095762 1.492426 -0.009236
v -0.100402 1.494140 -0.008855
f 337 338 339
f 337 339 338
f 337 339 340
f 337 340 339
f 337 340 341
f 337 341 340
f 337 341 342
f 337 342 341
f 337 342 343
f 337 343 342
f 337 343 344
f 337 344 343
f 337 344 345
f 337 345 344
f 337 345 346
f 337 346 345
f 337 346 347
f 337 347 346
f 337 347 348
f 337 348 347
f 337 348 349
f 337 349 348
f 337 349 350
f 337 350 349
f 337 350 351
f 337 351 350
f 337 351 352
f 337 352 351
f 337 352 353
f 337 353 352
f 337 353 354
f 337 354 353
f 337 354 355
f 337 355 354
f 337 355 356
f 337 356 355
f 337 356 357
f 337 357 356
f 337 357 358
f 337 358 357
f 337 358 359
f 337 359 358
f 337 359 360
f 337 360 359
f 337 360 361
f 337 361 360
f 337 361 362
f 337 362 361
f 337 362 363
f 337 363 362
f 337 363 364
f 337 364 363
f 337 364 365
f 337 365 364
f 337 365 366
f 337 366 365
f 337 366 367
f 337 367 366
f 337 367 368
f 337 368 367
f 337 368 369
f 337 369 368
f 337 369 370
f 337 370 369
f 337 370 371
f 337 371 370
f 337 371 372
f 337 372 371
f 337 372 373
f 337 373 372
f 337 373 374
f 337 374 373
f 337 374 375
f 337 375 374
f 337 375 376
f 337 376 375
f 337 376 377
f 337 377 376
f 337 377 378
f 337 378 377
f 337 378 379
f 337 379 378
f 337 379 380
f 337 380 379
f 337 380 381
f 337 381 380
f 337 381 382
f 337 382 381
v -0.104723 1.495911 -0.007622
v -0.108904 1.493598 -0.012096
v -0.113976 1.491144 -0.015753
v -0.120248 1.488504 -0.018314
v -0.127767 1.485668 -0.019732
v -0.136371 1.482662 -0.020157
v -0.145722 1.479539 -0.019899
v -0.155355 1.476372 -0.019383
v -0.164736 1.473245 -0.019098
v -0.173330 1.470240 -0.019532
v -0.180668 1.467433 -0.021116
v -0.186400 1.464876 -0.024170
v -0.190340 1.462600 -0.028864
v -0.192488 1.460605 -0.035198
v -0.193030 1.458860 -0.043002
v -0.192316 1.457313 -0.051956
v -0.190815 1.455888 -0.061630
v -0.189062 1.454503 -0.071534
v -0.187591 1.453074 -0.081181
v -0.186867 1.451528 -0.090144
v -0.187227 1.449812 -0.098113
v -0.188836 1.447901 -0.104941
v -0.191643 1.445802 -0.110672
v -0.195342 1.443564 -0.115587
v -0.191161 1.445877 -0.111113
v -0.186089 1.448331 -0.107456
v -0.179817 1.450971 -0.104895
v -0.172298 1.453808 -0.103477
v -0.163694 1.456813 -0.103052
v -0.154343 1.459936 -0.103310
v -0.144710 1.463103 -0.103826
v -0.135329 1.466230 -0.104111
v -0.126735 1.469235 -0.103677
v -0.119397 1.472042 -0.102093
v -0.113665 1.474599 -0.099038
v -0.109725 1.476875 -0.094344
v -0.107577 1.478870 -0.088010
v -0.107035 1.480615 -0.080206
v -0.107749 1.482162 -0.071252
v -0.109250 1.483587 -0.061579
v -0.111003 1.484972 -0.051675
v -0.112474 1.486401 -0.042028
v -0.113198 1.487947 -0.033065
v -0.112838 1.489663 -0.025095
v -0.111229 1.491574 -0.018267
v -0.108422 1.493673 -0.012537
f 383 384 385
f 383 385 384
f 383 385 386
f 383 386 385
f 383 386 387
f 383 387 386
f 383 387 388
f 383 388 387
f 383 388 389
f 383 389 388
f 383 389 390
f 383 390 389
f 383 390 391
f 383 391 390
f 383 391 392
f 383 392 391
f 383 392 393
f 383 393 392
f 383 393 394
f 383 394 393
f 383 394 395
f 383 395 394
f 383 395 396
f 383 396 395
f 383 396 397
f 383 397 396
f 383 397 398
f 383 398 397
f 383 398 399
f 383 399 398
f 383 399 400
f 383 400 399
f 383 400 401
f 383 401 400
f 383 401 402
f 383 402 401
f 383 402 403
f 383 403 402
f 383 403 404
f 383 404 403
f 383 404 405
f 383 405 404
f 383 405 406
f 383 406 405
f 383 406 407
f 383 407 406
f 383 407 408
f 383 408 407
f 383 408 409
f 383 409 408
f 383 409 410
f 383 410 409
f 383 410 411
f 383 411 410
f 383 411 412
f 383 412 411
f 383 412 413
f 383 413 412
f 383 413 414
f 383 414 413
f 383 414 415
f 383 415 414
f 383 415 416
f 383 416 415
f 383 416 417
f 383 417 416
f 383 417 418
f 383 418 417
f 383 418 419
f 383 419 418
f 383 419 420
f 383 420 419
f 383 420 421
f 383 421 420
f 383 421 422
f 383 422 421
f 383 422 423
f 383 423 422
f 383 423 424
f 383 424 423
f 383 424 425
f 383 425 424
f 383 425 426
f 383 426 425
f 383 426 427
f 383 427 426
f 383 427 428
f 383 428 427
