o mesh
v -5.497537 0.000000 -2.550000
v -5.542345 0.000000 -2.746316
v -5.667894 0.000000 -2.903750
v -5.849317 0.000000 -2.991119
v -6.050683 0.000000 -2.991119
v -6.232106 0.000000 -2.903750
v -6.357655 0.000000 -2.746316
v -6.402463 0.000000 -2.550000
v -6.357655 0.000000 -2.353684
v -6.232106 0.000000 -2.196250
v -6.050683 0.000000 -2.108881
v -5.849317 0.000000 -2.108881
v -5.667894 0.000000 -2.196250
v -5.542345 0.000000 -2.353684
v -5.535242 0.188526 -2.550000
v -5.576316 0.188526 -2.729957
v -5.691403 0.188526 -2.874271
v -5.857708 0.188526 -2.954359
v -6.042292 0.188526 -2.954359
v -6.208597 0.188526 -2.874271
v -6.323684 0.188526 -2.729957
v -6.364758 0.188526 -2.550000
v -6.323684 0.188526 -2.370043
v -6.208597 0.188526 -2.225729
v -6.042292 0.188526 -2.145641
v -5.857708 0.188526 -2.145641
v -5.691403 0.188526 -2.225729
v -5.576316 0.188526 -2.370043
v -5.950000 0.188526 -2.550000
f 1 2 16
f 1 16 15
f 2 3 17
f 2 17 16
f 3 4 18
f 3 18 17
f 4 5 19
f 4 19 18
f 5 6 20
f 5 20 19
f 6 7 21
f 6 21 20
f 7 8 22
f 7 22 21
f 8 9 23
f 8 23 22
f 9 10 24
f 9 24 23
f 10 11 25
f 10 25 24
f 11 12 26
f 11 26 25
f 12 13 27
f 12 27 26
f 13 14 28
f 13 28 27
f 14 1 15
f 14 15 28
f 15 16 29
f 16 17 29
f 17 18 29
f 18 19 29
f 19 20 29
f 20 21 29
f 21 22 29
f 22 23 29
f 23 24 29
f 24 25 29
f 25 26 29
f 26 27 29
f 27 28 29
f 28 15 29
v -5.663440 0.188526 -2.550000
v -5.691818 0.188526 -2.674334
v -5.771333 0.188526 -2.774042
v -5.886234 0.188526 -2.829375
v -6.013766 0.188526 -2.829375
v -6.128667 0.188526 -2.774042
v -6.208182 0.188526 -2.674334
v -6.236560 0.188526 -2.550000
v -6.208182 0.188526 -2.425666
v -6.128667 0.188526 -2.325958
v -6.013766 0.188526 -2.270625
v -5.886234 0.188526 -2.270625
v -5.771333 0.188526 -2.325958
v -5.691818 0.188526 -2.425666
v -5.844425 1.131158 -2.550000
v -5.854880 1.131158 -2.595807
v -5.884175 1.131158 -2.632542
v -5.926507 1.131158 -2.652928
v -5.973493 1.131158 -2.652928
v -6.015825 1.131158 -2.632542
v -6.045120 1.131158 -2.595807
v -6.055575 1.131158 -2.550000
v -6.045120 1.131158 -2.504193
v -6.015825 1.131158 -2.467458
v -5.973493 1.131158 -2.447072
v -5.926507 1.131158 -2.447072
v -5.884175 1.131158 -2.467458
v -5.854880 1.131158 -2.504193
f 30 31 45
f 30 45 44
f 31 32 46
f 31 46 45
f 32 33 47
f 32 47 46
f 33 34 48
f 33 48 47
f 34 35 49
f 34 49 48
f 35 36 50
f 35 50 49
f 36 37 51
f 36 51 50
f 37 38 52
f 37 52 51
f 38 39 53
f 38 53 52
f 39 40 54
f 39 54 53
f 40 41 55
f 40 55 54
f 41 42 56
f 41 56 55
f 42 43 57
f 42 57 56
f 43 30 44
f 43 44 57
v -5.950000 1.560998 -2.550000
v -5.950000 1.560998 -2.550000
v -5.950000 1.560998 -2.550000
v -5.950000 1.560998 -2.550000
v -5.950000 1.560998 -2.550000
v -5.950000 1.560998 -2.550000
v -5.950000 1.560998 -2.550000
v -5.950000 1.560998 -2.550000
v -5.950000 1.560998 -2.550000
v -5.950000 1.560998 -2.550000
v -5.950000 1.560998 -2.550000
v -5.950000 1.560998 -2.550000
v -5.829343 1.528668 -2.550000
v -5.845508 1.528668 -2.610328
v -5.889672 1.528668 -2.654492
v -5.950000 1.528668 -2.670657
v -6.010328 1.528668 -2.654492
v -6.054492 1.528668 -2.610328
v -6.070657 1.528668 -2.550000
v -6.054492 1.528668 -2.489672
v -6.010328 1.528668 -2.445508
v -5.950000 1.528668 -2.429343
v -5.889672 1.528668 -2.445508
v -5.845508 1.528668 -2.489672
v -5.741016 1.440341 -2.550000
v -5.769015 1.440341 -2.654492
v -5.845508 1.440341 -2.730985
v -5.950000 1.440341 -2.758984
v -6.054492 1.440341 -2.730985
v -6.130985 1.440341 -2.654492
v -6.158984 1.440341 -2.550000
v -6.130985 1.440341 -2.445508
v -6.054492 1.440341 -2.369015
v -5.950000 1.440341 -2.341016
v -5.845508 1.440341 -2.369015
v -5.769015 1.440341 -2.445508
v -5.708686 1.319684 -2.550000
v -5.741016 1.319684 -2.670657
v -5.829343 1.319684 -2.758984
v -5.950000 1.319684 -2.791314
v -6.070657 1.319684 -2.758984
v -6.158984 1.319684 -2.670657
v -6.191314 1.319684 -2.550000
v -6.158984 1.319684 -2.429343
v -6.070657 1.319684 -2.341016
v -5.950000 1.319684 -2.308686
v -5.829343 1.319684 -2.341016
v -5.741016 1.319684 -2.429343
v -5.741016 1.199027 -2.550000
v -5.769015 1.199027 -2.654492
v -5.845508 1.199027 -2.730985
v -5.950000 1.199027 -2.758984
v -6.054492 1.199027 -2.730985
v -6.130985 1.199027 -2.654492
v -6.158984 1.199027 -2.550000
v -6.130985 1.199027 -2.445508
v -6.054492 1.199027 -2.369015
v -5.950000 1.199027 -2.341016
v -5.845508 1.199027 -2.369015
v -5.769015 1.199027 -2.445508
v -5.829343 1.110700 -2.550000
v -5.845508 1.110700 -2.610328
v -5.889672 1.110700 -2.654492
v -5.950000 1.110700 -2.670657
v -6.010328 1.110700 -2.654492
v -6.054492 1.110700 -2.610328
v -6.070657 1.110700 -2.550000
v -6.054492 1.110700 -2.489672
v -6.010328 1.110700 -2.445508
v -5.950000 1.110700 -2.429343
v -5.889672 1.110700 -2.445508
v -5.845508 1.110700 -2.489672
v -5.950000 1.078370 -2.550000
v -5.950000 1.078370 -2.550000
v -5.950000 1.078370 -2.550000
v -5.950000 1.078370 -2.550000
v -5.950000 1.078370 -2.550000
v -5.950000 1.078370 -2.550000
v -5.950000 1.078370 -2.550000
v -5.950000 1.078370 -2.550000
v -5.950000 1.078370 -2.550000
v -5.950000 1.078370 -2.550000
v -5.950000 1.078370 -2.550000
v -5.950000 1.078370 -2.550000
f 58 71 59
f 58 70 71
f 59 72 60
f 59 71 72
f 60 73 61
f 60 72 73
f 61 74 62
f 61 73 74
f 62 75 63
f 62 74 75
f 63 76 64
f 63 75 76
f 64 77 65
f 64 76 77
f 65 78 66
f 65 77 78
f 66 79 67
f 66 78 79
f 67 80 68
f 67 79 80
f 68 81 69
f 68 80 81
f 69 70 58
f 69 81 70
f 70 83 71
f 70 82 83
f 71 84 72
f 71 83 84
f 72 85 73
f 72 84 85
f 73 86 74
f 73 85 86
f 74 87 75
f 74 86 87
f 75 88 76
f 75 87 88
f 76 89 77
f 76 88 89
f 77 90 78
f 77 89 90
f 78 91 79
f 78 90 91
f 79 92 80
f 79 91 92
f 80 93 81
f 80 92 93
f 81 82 70
f 81 93 82
f 82 95 83
f 82 94 95
f 83 96 84
f 83 95 96
f 84 97 85
f 84 96 97
f 85 98 86
f 85 97 98
f 86 99 87
f 86 98 99
f 87 100 88
f 87 99 100
f 88 101 89
f 88 100 101
f 89 102 90
f 89 101 102
f 90 103 91
f 90 102 103
f 91 104 92
f 91 103 104
f 92 105 93
f 92 104 105
f 93 94 82
f 93 105 94
f 94 107 95
f 94 106 107
f 95 108 96
f 95 107 108
f 96 109 97
f 96 108 109
f 97 110 98
f 97 109 110
f 98 111 99
f 98 110 111
f 99 112 100
f 99 111 112
f 100 113 101
f 100 112 113
f 101 114 102
f 101 113 114
f 102 115 103
f 102 114 115
f 103 116 104
f 103 115 116
f 104 117 105
f 104 116 117
f 105 106 94
f 105 117 106
f 106 119 107
f 106 118 119
f 107 120 108
f 107 119 120
f 108 121 109
f 108 120 121
f 109 122 110
f 109 121 122
f 110 123 111
f 110 122 123
f 111 124 112
f 111 123 124
f 112 125 113
f 112 124 125
f 113 126 114
f 113 125 126
f 114 127 115
f 114 126 127
f 115 128 116
f 115 127 128
f 116 129 117
f 116 128 129
f 117 118 106
f 117 129 118
f 118 131 119
f 118 130 131
f 119 132 120
f 119 131 132
f 120 133 121
f 120 132 133
f 121 134 122
f 121 133 134
f 122 135 123
f 122 134 135
f 123 136 124
f 123 135 136
f 124 137 125
f 124 136 137
f 125 138 126
f 125 137 138
f 126 139 127
f 126 138 139
f 127 140 128
f 127 139 140
f 128 141 129
f 128 140 141
f 129 130 118
f 129 141 130
v 4.752191 0.000000 -5.950000
v 4.702459 0.000000 -6.167893
v 4.563111 0.000000 -6.342629
v 4.361748 0.000000 -6.439600
v 4.138252 0.000000 -6.439600
v 3.936889 0.000000 -6.342629
v 3.797541 0.000000 -6.167893
v 3.747809 0.000000 -5.950000
v 3.797541 0.000000 -5.732107
v 3.936889 0.000000 -5.557371
v 4.138252 0.000000 -5.460400
v 4.361748 0.000000 -5.460400
v 4.563111 0.000000 -5.557371
v 4.702459 0.000000 -5.732107
v 4.710342 0.209246 -5.950000
v 4.664754 0.209246 -6.149735
v 4.537019 0.209246 -6.309910
v 4.352436 0.209246 -6.398800
v 4.147564 0.209246 -6.398800
v 3.962981 0.209246 -6.309910
v 3.835246 0.209246 -6.149735
v 3.789658 0.209246 -5.950000
v 3.835246 0.209246 -5.750265
v 3.962981 0.209246 -5.590090
v 4.147564 0.209246 -5.501200
v 4.352436 0.209246 -5.501200
v 4.537019 0.209246 -5.590090
v 4.664754 0.209246 -5.750265
v 4.250000 0.209246 -5.950000
f 142 143 157
f 142 157 156
f 143 144 158
f 143 158 157
f 144 145 159
f 144 159 158
f 145 146 160
f 145 160 159
f 146 147 161
f 146 161 160
f 147 148 162
f 147 162 161
f 148 149 163
f 148 163 162
f 149 150 164
f 149 164 163
f 150 151 165
f 150 165 164
f 151 152 166
f 151 166 165
f 152 153 167
f 152 167 166
f 153 154 168
f 153 168 167
f 154 155 169
f 154 169 168
f 155 142 156
f 155 156 169
f 156 157 170
f 157 158 170
f 158 159 170
f 159 160 170
f 160 161 170
f 161 162 170
f 162 163 170
f 163 164 170
f 164 165 170
f 165 166 170
f 166 167 170
f 167 168 170
f 168 169 170
f 169 156 170
v 4.568054 0.209246 -5.950000
v 4.536557 0.209246 -6.087999
v 4.448304 0.209246 -6.198665
v 4.320774 0.209246 -6.260080
v 4.179226 0.209246 -6.260080
v 4.051696 0.209246 -6.198665
v 3.963443 0.209246 -6.087999
v 3.931946 0.209246 -5.950000
v 3.963443 0.209246 -5.812001
v 4.051696 0.209246 -5.701335
v 4.179226 0.209246 -5.639920
v 4.320774 0.209246 -5.639920
v 4.448304 0.209246 -5.701335
v 4.536557 0.209246 -5.812001
v 4.367178 1.255478 -5.950000
v 4.355574 1.255478 -6.000842
v 4.323059 1.255478 -6.041613
v 4.276075 1.255478 -6.064240
v 4.223925 1.255478 -6.064240
v 4.176941 1.255478 -6.041613
v 4.144426 1.255478 -6.000842
v 4.132822 1.255478 -5.950000
v 4.144426 1.255478 -5.899158
v 4.176941 1.255478 -5.858387
v 4.223925 1.255478 -5.835760
v 4.276075 1.255478 -5.835760
v 4.323059 1.255478 -5.858387
v 4.355574 1.255478 -5.899158
f 171 172 186
f 171 186 185
f 172 173 187
f 172 187 186
f 173 174 188
f 173 188 187
f 174 175 189
f 174 189 188
f 175 176 190
f 175 190 189
f 176 177 191
f 176 191 190
f 177 178 192
f 177 192 191
f 178 179 193
f 178 193 192
f 179 180 194
f 179 194 193
f 180 181 195
f 180 195 194
f 181 182 196
f 181 196 195
f 182 183 197
f 182 197 196
f 183 184 198
f 183 198 197
f 184 171 185
f 184 185 198
v 4.250000 1.732560 -5.950000
v 4.250000 1.732560 -5.950000
v 4.250000 1.732560 -5.950000
v 4.250000 1.732560 -5.950000
v 4.250000 1.732560 -5.950000
v 4.250000 1.732560 -5.950000
v 4.250000 1.732560 -5.950000
v 4.250000 1.732560 -5.950000
v 4.250000 1.732560 -5.950000
v 4.250000 1.732560 -5.950000
v 4.250000 1.732560 -5.950000
v 4.250000 1.732560 -5.950000
v 4.383918 1.696677 -5.950000
v 4.365976 1.696677 -6.016959
v 4.316959 1.696677 -6.065976
v 4.250000 1.696677 -6.083918
v 4.183041 1.696677 -6.065976
v 4.134024 1.696677 -6.016959
v 4.116082 1.696677 -5.950000
v 4.134024 1.696677 -5.883041
v 4.183041 1.696677 -5.834024
v 4.250000 1.696677 -5.816082
v 4.316959 1.696677 -5.834024
v 4.365976 1.696677 -5.883041
v 4.481952 1.598642 -5.950000
v 4.450877 1.598642 -6.065976
v 4.365976 1.598642 -6.150877
v 4.250000 1.598642 -6.181952
v 4.134024 1.598642 -6.150877
v 4.049123 1.598642 -6.065976
v 4.018048 1.598642 -5.950000
v 4.049123 1.598642 -5.834024
v 4.134024 1.598642 -5.749123
v 4.250000 1.598642 -5.718048
v 4.365976 1.598642 -5.749123
v 4.450877 1.598642 -5.834024
v 4.517835 1.464725 -5.950000
v 4.481952 1.464725 -6.083918
v 4.383918 1.464725 -6.181952
v 4.250000 1.464725 -6.217835
v 4.116082 1.464725 -6.181952
v 4.018048 1.464725 -6.083918
v 3.982165 1.464725 -5.950000
v 4.018048 1.464725 -5.816082
v 4.116082 1.464725 -5.718048
v 4.250000 1.464725 -5.682165
v 4.383918 1.464725 -5.718048
v 4.481952 1.464725 -5.816082
v 4.481952 1.330807 -5.950000
v 4.450877 1.330807 -6.065976
v 4.365976 1.330807 -6.150877
v 4.250000 1.330807 -6.181952
v 4.134024 1.330807 -6.150877
v 4.049123 1.330807 -6.065976
v 4.018048 1.330807 -5.950000
v 4.049123 1.330807 -5.834024
v 4.134024 1.330807 -5.749123
v 4.250000 1.330807 -5.718048
v 4.365976 1.330807 -5.749123
v 4.450877 1.330807 -5.834024
v 4.383918 1.232772 -5.950000
v 4.365976 1.232772 -6.016959
v 4.316959 1.232772 -6.065976
v 4.250000 1.232772 -6.083918
v 4.183041 1.232772 -6.065976
v 4.134024 1.232772 -6.016959
v 4.116082 1.232772 -5.950000
v 4.134024 1.232772 -5.883041
v 4.183041 1.232772 -5.834024
v 4.250000 1.232772 -5.816082
v 4.316959 1.232772 -5.834024
v 4.365976 1.232772 -5.883041
v 4.250000 1.196889 -5.950000
v 4.250000 1.196889 -5.950000
v 4.250000 1.196889 -5.950000
v 4.250000 1.196889 -5.950000
v 4.250000 1.196889 -5.950000
v 4.250000 1.196889 -5.950000
v 4.250000 1.196889 -5.950000
v 4.250000 1.196889 -5.950000
v 4.250000 1.196889 -5.950000
v 4.250000 1.196889 -5.950000
v 4.250000 1.196889 -5.950000
v 4.250000 1.196889 -5.950000
f 199 212 200
f 199 211 212
f 200 213 201
f 200 212 213
f 201 214 202
f 201 213 214
f 202 215 203
f 202 214 215
f 203 216 204
f 203 215 216
f 204 217 205
f 204 216 217
f 205 218 206
f 205 217 218
f 206 219 207
f 206 218 219
f 207 220 208
f 207 219 220
f 208 221 209
f 208 220 221
f 209 222 210
f 209 221 222
f 210 211 199
f 210 222 211
f 211 224 212
f 211 223 224
f 212 225 213
f 212 224 225
f 213 226 214
f 213 225 226
f 214 227 215
f 214 226 227
f 215 228 216
f 215 227 228
f 216 229 217
f 216 228 229
f 217 230 218
f 217 229 230
f 218 231 219
f 218 230 231
f 219 232 220
f 219 231 232
f 220 233 221
f 220 232 233
f 221 234 222
f 221 233 234
f 222 223 211
f 222 234 223
f 223 236 224
f 223 235 236
f 224 237 225
f 224 236 237
f 225 238 226
f 225 237 238
f 226 239 227
f 226 238 239
f 227 240 228
f 227 239 240
f 228 241 229
f 228 240 241
f 229 242 230
f 229 241 242
f 230 243 231
f 230 242 243
f 231 244 232
f 231 243 244
f 232 245 233
f 232 244 245
f 233 246 234
f 233 245 246
f 234 235 223
f 234 246 235
f 235 248 236
f 235 247 248
f 236 249 237
f 236 248 249
f 237 250 238
f 237 249 250
f 238 251 239
f 238 250 251
f 239 252 240
f 239 251 252
f 240 253 241
f 240 252 253
f 241 254 242
f 241 253 254
f 242 255 243
f 242 254 255
f 243 256 244
f 243 255 256
f 244 257 245
f 244 256 257
f 245 258 246
f 245 257 258
f 246 247 235
f 246 258 247
f 247 260 248
f 247 259 260
f 248 261 249
f 248 260 261
f 249 262 250
f 249 261 262
f 250 263 251
f 250 262 263
f 251 264 252
f 251 263 264
f 252 265 253
f 252 264 265
f 253 266 254
f 253 265 266
f 254 267 255
f 254 266 267
f 255 268 256
f 255 267 268
f 256 269 257
f 256 268 269
f 257 270 258
f 257 269 270
f 258 259 247
f 258 270 259
f 259 272 260
f 259 271 272
f 260 273 261
f 260 272 273
f 261 274 262
f 261 273 274
f 262 275 263
f 262 274 275
f 263 276 264
f 263 275 276
f 264 277 265
f 264 276 277
f 265 278 266
f 265 277 278
f 266 279 267
f 266 278 279
f 267 280 268
f 267 279 280
f 268 281 269
f 268 280 281
f 269 282 270
f 269 281 282
f 270 271 259
f 270 282 271
v -2.058733 0.000000 4.250000
v -2.107384 0.000000 4.036847
v -2.243700 0.000000 3.865912
v -2.440683 0.000000 3.771050
v -2.659317 0.000000 3.771050
v -2.856300 0.000000 3.865912
v -2.992616 0.000000 4.036847
v -3.041267 0.000000 4.250000
v -2.992616 0.000000 4.463153
v -2.856300 0.000000 4.634088
v -2.659317 0.000000 4.728950
v -2.440683 0.000000 4.728950
v -2.243700 0.000000 4.634088
v -2.107384 0.000000 4.463153
v -2.099672 0.204695 4.250000
v -2.144269 0.204695 4.054610
v -2.269225 0.204695 3.897919
v -2.449793 0.204695 3.810963
v -2.650207 0.204695 3.810963
v -2.830775 0.204695 3.897919
v -2.955731 0.204695 4.054610
v -3.000328 0.204695 4.250000
v -2.955731 0.204695 4.445390
v -2.830775 0.204695 4.602081
v -2.650207 0.204695 4.689037
v -2.449793 0.204695 4.689037
v -2.269225 0.204695 4.602081
v -2.144269 0.204695 4.445390
v -2.550000 0.204695 4.250000
f 283 284 298
f 283 298 297
f 284 285 299
f 284 299 298
f 285 286 300
f 285 300 299
f 286 287 301
f 286 301 300
f 287 288 302
f 287 302 301
f 288 289 303
f 288 303 302
f 289 290 304
f 289 304 303
f 290 291 305
f 290 305 304
f 291 292 306
f 291 306 305
f 292 293 307
f 292 307 306
f 293 294 308
f 293 308 307
f 294 295 309
f 294 309 308
f 295 296 310
f 295 310 309
f 296 283 297
f 296 297 310
f 297 298 311
f 298 299 311
f 299 300 311
f 300 301 311
f 301 302 311
f 302 303 311
f 303 304 311
f 304 305 311
f 305 306 311
f 306 307 311
f 307 308 311
f 308 309 311
f 309 310 311
f 310 297 311
v -2.222489 0.204695 4.250000
v -2.266367 0.204695 4.086244
v -2.386244 0.204695 3.966367
v -2.550000 0.204695 3.922489
v -2.713756 0.204695 3.966367
v -2.833633 0.204695 4.086244
v -2.877511 0.204695 4.250000
v -2.833633 0.204695 4.413756
v -2.713756 0.204695 4.533633
v -2.550000 0.204695 4.577511
v -2.386244 0.204695 4.533633
v -2.266367 0.204695 4.413756
v -2.345305 1.228167 4.250000
v -2.372729 1.228167 4.147653
v -2.447653 1.228167 4.072729
v -2.550000 1.228167 4.045305
v -2.652347 1.228167 4.072729
v -2.727271 1.228167 4.147653
v -2.754695 1.228167 4.250000
v -2.727271 1.228167 4.352347
v -2.652347 1.228167 4.427271
v -2.550000 1.228167 4.454695
v -2.447653 1.228167 4.427271
v -2.372729 1.228167 4.352347
v -2.550000 1.228167 4.250000
f 312 313 325
f 312 325 324
f 313 314 326
f 313 326 325
f 314 315 327
f 314 327 326
f 315 316 328
f 315 328 327
f 316 317 329
f 316 329 328
f 317 318 330
f 317 330 329
f 318 319 331
f 318 331 330
f 319 320 332
f 319 332 331
f 320 321 333
f 320 333 332
f 321 322 334
f 321 334 333
f 322 323 335
f 322 335 334
f 323 312 324
f 323 324 335
f 324 325 336
f 325 326 336
f 326 327 336
f 327 328 336
f 328 329 336
f 329 330 336
f 330 331 336
f 331 332 336
f 332 333 336
f 333 334 336
f 334 335 336
f 335 324 336
v -2.771070 1.187228 4.393286
v -2.034170 1.187228 4.393286
v -2.034170 1.187228 4.106714
v -2.771070 1.187228 4.106714
v -2.771070 1.514739 4.393286
v -2.034170 1.514739 4.393286
v -2.034170 1.514739 4.106714
v -2.771070 1.514739 4.106714
f 337 339 338
f 337 340 339
f 341 342 343
f 341 343 344
f 337 338 342
f 337 342 341
f 338 339 343
f 338 343 342
f 339 340 344
f 339 344 343
f 340 337 341
f 340 341 344
v -2.242958 0.818778 4.372817
v -1.956386 0.818778 4.372817
v -1.956386 0.818778 4.127183
v -2.242958 0.818778 4.127183
v -2.242958 1.391923 4.372817
v -1.956386 1.391923 4.372817
v -1.956386 1.391923 4.127183
v -2.242958 1.391923 4.127183
f 345 347 346
f 345 348 347
f 349 350 351
f 349 351 352
f 345 346 350
f 345 350 349
f 346 347 351
f 346 351 350
f 347 348 352
f 347 352 351
f 348 345 349
f 348 349 352
v -2.607314 1.514739 4.372817
v -2.525437 1.514739 4.372817
v -2.525437 1.514739 4.127183
v -2.607314 1.514739 4.127183
v -2.607314 1.842251 4.372817
v -2.525437 1.842251 4.372817
v -2.525437 1.842251 4.127183
v -2.607314 1.842251 4.127183
f 353 355 354
f 353 356 355
f 357 358 359
f 357 359 360
f 353 354 358
f 353 358 357
f 354 355 359
f 354 359 358
f 355 356 360
f 355 360 359
f 356 353 357
f 356 357 360
v 1.311005 0.000000 -2.550000
v 1.265351 0.000000 -2.750023
v 1.137432 0.000000 -2.910428
v 0.952583 0.000000 -2.999447
v 0.747417 0.000000 -2.999447
v 0.562568 0.000000 -2.910428
v 0.434649 0.000000 -2.750023
v 0.388995 0.000000 -2.550000
v 0.434649 0.000000 -2.349977
v 0.562568 0.000000 -2.189572
v 0.747417 0.000000 -2.100553
v 0.952583 0.000000 -2.100553
v 1.137432 0.000000 -2.189572
v 1.265351 0.000000 -2.349977
v 1.272588 0.192085 -2.550000
v 1.230739 0.192085 -2.733354
v 1.113479 0.192085 -2.880393
v 0.944035 0.192085 -2.961993
v 0.755965 0.192085 -2.961993
v 0.586521 0.192085 -2.880393
v 0.469261 0.192085 -2.733354
v 0.427412 0.192085 -2.550000
v 0.469261 0.192085 -2.366646
v 0.586521 0.192085 -2.219607
v 0.755965 0.192085 -2.138007
v 0.944035 0.192085 -2.138007
v 1.113479 0.192085 -2.219607
v 1.230739 0.192085 -2.366646
v 0.850000 0.192085 -2.550000
f 361 362 376
f 361 376 375
f 362 363 377
f 362 377 376
f 363 364 378
f 363 378 377
f 364 365 379
f 364 379 378
f 365 366 380
f 365 380 379
f 366 367 381
f 366 381 380
f 367 368 382
f 367 382 381
f 368 369 383
f 368 383 382
f 369 370 384
f 369 384 383
f 370 371 385
f 370 385 384
f 371 372 386
f 371 386 385
f 372 373 387
f 372 387 386
f 373 374 388
f 373 388 387
f 374 361 375
f 374 375 388
f 375 376 389
f 376 377 389
f 377 378 389
f 378 379 389
f 379 380 389
f 380 381 389
f 381 382 389
f 382 383 389
f 383 384 389
f 384 385 389
f 385 386 389
f 386 387 389
f 387 388 389
f 388 375 389
v 1.157337 0.192085 -2.550000
v 1.116161 0.192085 -2.703668
v 1.003668 0.192085 -2.816161
v 0.850000 0.192085 -2.857337
v 0.696332 0.192085 -2.816161
v 0.583839 0.192085 -2.703668
v 0.542663 0.192085 -2.550000
v 0.583839 0.192085 -2.396332
v 0.696332 0.192085 -2.283839
v 0.850000 0.192085 -2.242663
v 1.003668 0.192085 -2.283839
v 1.116161 0.192085 -2.396332
v 1.042085 1.152513 -2.550000
v 1.016351 1.152513 -2.646043
v 0.946043 1.152513 -2.716351
v 0.850000 1.152513 -2.742085
v 0.753957 1.152513 -2.716351
v 0.683649 1.152513 -2.646043
v 0.657915 1.152513 -2.550000
v 0.683649 1.152513 -2.453957
v 0.753957 1.152513 -2.383649
v 0.850000 1.152513 -2.357915
v 0.946043 1.152513 -2.383649
v 1.016351 1.152513 -2.453957
v 0.850000 1.152513 -2.550000
f 390 391 403
f 390 403 402
f 391 392 404
f 391 404 403
f 392 393 405
f 392 405 404
f 393 394 406
f 393 406 405
f 394 395 407
f 394 407 406
f 395 396 408
f 395 408 407
f 396 397 409
f 396 409 408
f 397 398 410
f 397 410 409
f 398 399 411
f 398 411 410
f 399 400 412
f 399 412 411
f 400 401 413
f 400 413 412
f 401 390 402
f 401 402 413
f 402 403 414
f 403 404 414
f 404 405 414
f 405 406 414
f 406 407 414
f 407 408 414
f 408 409 414
f 409 410 414
f 410 411 414
f 411 412 414
f 412 413 414
f 413 402 414
v 0.642548 1.114096 -2.415540
v 1.334055 1.114096 -2.415540
v 1.334055 1.114096 -2.684460
v 0.642548 1.114096 -2.684460
v 0.642548 1.421432 -2.415540
v 1.334055 1.421432 -2.415540
v 1.334055 1.421432 -2.684460
v 0.642548 1.421432 -2.684460
f 415 417 416
f 415 418 417
f 419 420 421
f 419 421 422
f 415 416 420
f 415 420 419
f 416 417 421
f 416 421 420
f 417 418 422
f 417 422 421
f 418 415 419
f 418 419 422
v 1.138128 0.768342 -2.434749
v 1.407048 0.768342 -2.434749
v 1.407048 0.768342 -2.665251
v 1.138128 0.768342 -2.665251
v 1.138128 1.306181 -2.434749
v 1.407048 1.306181 -2.434749
v 1.407048 1.306181 -2.665251
v 1.138128 1.306181 -2.665251
f 423 425 424
f 423 426 425
f 427 428 429
f 427 429 430
f 423 424 428
f 423 428 427
f 424 425 429
f 424 429 428
f 425 426 430
f 425 430 429
f 426 423 427
f 426 427 430
v 0.796216 1.421432 -2.434749
v 0.873050 1.421432 -2.434749
v 0.873050 1.421432 -2.665251
v 0.796216 1.421432 -2.665251
v 0.796216 1.728769 -2.434749
v 0.873050 1.728769 -2.434749
v 0.873050 1.728769 -2.665251
v 0.796216 1.728769 -2.665251
f 431 433 432
f 431 434 433
f 435 436 437
f 435 437 438
f 431 432 436
f 431 436 435
f 432 433 437
f 432 437 436
f 433 434 438
f 433 438 437
f 434 431 435
f 434 435 438
v -0.415104 0.000000 4.250000
v -0.458172 0.000000 4.061306
v -0.578846 0.000000 3.909984
v -0.753226 0.000000 3.826007
v -0.946774 0.000000 3.826007
v -1.121154 0.000000 3.909984
v -1.241828 0.000000 4.061306
v -1.284896 0.000000 4.250000
v -1.241828 0.000000 4.438694
v -1.121154 0.000000 4.590016
v -0.946774 0.000000 4.673993
v -0.753226 0.000000 4.673993
v -0.578846 0.000000 4.590016
v -0.458172 0.000000 4.438694
v -0.451345 0.181207 4.250000
v -0.490824 0.181207 4.077030
v -0.601443 0.181207 3.938319
v -0.761291 0.181207 3.861340
v -0.938709 0.181207 3.861340
v -1.098557 0.181207 3.938319
v -1.209176 0.181207 4.077030
v -1.248655 0.181207 4.250000
v -1.209176 0.181207 4.422970
v -1.098557 0.181207 4.561681
v -0.938709 0.181207 4.638660
v -0.761291 0.181207 4.638660
v -0.601443 0.181207 4.561681
v -0.490824 0.181207 4.422970
v -0.850000 0.181207 4.250000
f 439 440 454
f 439 454 453
f 440 441 455
f 440 455 454
f 441 442 456
f 441 456 455
f 442 443 457
f 442 457 456
f 443 444 458
f 443 458 457
f 444 445 459
f 444 459 458
f 445 446 460
f 445 460 459
f 446 447 461
f 446 461 460
f 447 448 462
f 447 462 461
f 448 449 463
f 448 463 462
f 449 450 464
f 449 464 463
f 450 451 465
f 450 465 464
f 451 452 466
f 451 466 465
f 452 439 453
f 452 453 466
f 453 454 467
f 454 455 467
f 455 456 467
f 456 457 467
f 457 458 467
f 458 459 467
f 459 460 467
f 460 461 467
f 461 462 467
f 462 463 467
f 463 464 467
f 464 465 467
f 465 466 467
f 466 453 467
v -0.545572 0.181207 4.250000
v -0.586358 0.181207 4.097786
v -0.697786 0.181207 3.986358
v -0.850000 0.181207 3.945572
v -1.002214 0.181207 3.986358
v -1.113642 0.181207 4.097786
v -1.154428 0.181207 4.250000
v -1.113642 0.181207 4.402214
v -1.002214 0.181207 4.513642
v -0.850000 0.181207 4.554428
v -0.697786 0.181207 4.513642
v -0.586358 0.181207 4.402214
v -0.603559 1.594620 4.250000
v -0.636576 1.594620 4.126779
v -0.726779 1.594620 4.036576
v -0.850000 1.594620 4.003559
v -0.973221 1.594620 4.036576
v -1.063424 1.594620 4.126779
v -1.096441 1.594620 4.250000
v -1.063424 1.594620 4.373221
v -0.973221 1.594620 4.463424
v -0.850000 1.594620 4.496441
v -0.726779 1.594620 4.463424
v -0.636576 1.594620 4.373221
v -0.850000 1.594620 4.250000
f 468 469 481
f 468 481 480
f 469 470 482
f 469 482 481
f 470 471 483
f 470 483 482
f 471 472 484
f 471 484 483
f 472 473 485
f 472 485 484
f 473 474 486
f 473 486 485
f 474 475 487
f 474 487 486
f 475 476 488
f 475 488 487
f 476 477 489
f 476 489 488
f 477 478 490
f 477 490 489
f 478 479 491
f 478 491 490
f 479 468 480
f 479 480 491
f 480 481 492
f 481 482 492
f 482 483 492
f 483 484 492
f 484 485 492
f 485 486 492
f 486 487 492
f 487 488 492
f 488 489 492
f 489 490 492
f 490 491 492
f 491 480 492
v -0.487586 1.594620 4.250000
v -0.536141 1.594620 4.068793
v -0.668793 1.594620 3.936141
v -0.850000 1.594620 3.887586
v -1.031207 1.594620 3.936141
v -1.163859 1.594620 4.068793
v -1.212414 1.594620 4.250000
v -1.163859 1.594620 4.431207
v -1.031207 1.594620 4.563859
v -0.850000 1.594620 4.612414
v -0.668793 1.594620 4.563859
v -0.536141 1.594620 4.431207
v -0.487586 1.812069 4.250000
v -0.536141 1.812069 4.068793
v -0.668793 1.812069 3.936141
v -0.850000 1.812069 3.887586
v -1.031207 1.812069 3.936141
v -1.163859 1.812069 4.068793
v -1.212414 1.812069 4.250000
v -1.163859 1.812069 4.431207
v -1.031207 1.812069 4.563859
v -0.850000 1.812069 4.612414
v -0.668793 1.812069 4.563859
v -0.536141 1.812069 4.431207
v -0.850000 1.812069 4.250000
f 493 494 506
f 493 506 505
f 494 495 507
f 494 507 506
f 495 496 508
f 495 508 507
f 496 497 509
f 496 509 508
f 497 498 510
f 497 510 509
f 498 499 511
f 498 511 510
f 499 500 512
f 499 512 511
f 500 501 513
f 500 513 512
f 501 502 514
f 501 514 513
f 502 503 515
f 502 515 514
f 503 504 516
f 503 516 515
f 504 493 505
f 504 505 516
f 505 506 517
f 506 507 517
f 507 508 517
f 508 509 517
f 509 510 517
f 510 511 517
f 511 512 517
f 512 513 517
f 513 514 517
f 514 515 517
f 515 516 517
f 516 505 517
v -0.639800 1.812069 4.329731
v -0.480338 1.812069 4.329731
v -0.480338 1.812069 4.170269
v -0.639800 1.812069 4.170269
v -0.639800 1.993275 4.329731
v -0.480338 1.993275 4.329731
v -0.480338 1.993275 4.170269
v -0.639800 1.993275 4.170269
f 518 520 519
f 518 521 520
f 522 523 524
f 522 524 525
f 518 519 523
f 518 523 522
f 519 520 524
f 519 524 523
f 520 521 525
f 520 525 524
f 521 518 522
f 521 522 525
v -0.770269 1.812069 4.039800
v -0.770269 1.812069 3.880338
v -0.929731 1.812069 3.880338
v -0.929731 1.812069 4.039800
v -0.770269 1.993275 4.039800
v -0.770269 1.993275 3.880338
v -0.929731 1.993275 3.880338
v -0.929731 1.993275 4.039800
f 526 528 527
f 526 529 528
f 530 531 532
f 530 532 533
f 526 527 531
f 526 531 530
f 527 528 532
f 527 532 531
f 528 529 533
f 528 533 532
f 529 526 530
f 529 530 533
v -1.060200 1.812069 4.170269
v -1.219662 1.812069 4.170269
v -1.219662 1.812069 4.329731
v -1.060200 1.812069 4.329731
v -1.060200 1.993275 4.170269
v -1.219662 1.993275 4.170269
v -1.219662 1.993275 4.329731
v -1.060200 1.993275 4.329731
f 534 536 535
f 534 537 536
f 538 539 540
f 538 540 541
f 534 535 539
f 534 539 538
f 535 536 540
f 535 540 539
f 536 537 541
f 536 541 540
f 537 534 538
f 537 538 541
v -0.929731 1.812069 4.460200
v -0.929731 1.812069 4.619662
v -0.770269 1.812069 4.619662
v -0.770269 1.812069 4.460200
v -0.929731 1.993275 4.460200
v -0.929731 1.993275 4.619662
v -0.770269 1.993275 4.619662
v -0.770269 1.993275 4.460200
f 542 544 543
f 542 545 544
f 546 547 548
f 546 548 549
f 542 543 547
f 542 547 546
f 543 544 548
f 543 548 547
f 544 545 549
f 544 549 548
f 545 542 546
f 545 546 549
v 4.677622 0.000000 -4.250000
v 4.635274 0.000000 -4.435538
v 4.516618 0.000000 -4.584329
v 4.345155 0.000000 -4.666901
v 4.154845 0.000000 -4.666901
v 3.983382 0.000000 -4.584329
v 3.864726 0.000000 -4.435538
v 3.822378 0.000000 -4.250000
v 3.864726 0.000000 -4.064462
v 3.983382 0.000000 -3.915671
v 4.154845 0.000000 -3.833099
v 4.345155 0.000000 -3.833099
v 4.516618 0.000000 -3.915671
v 4.635274 0.000000 -4.064462
v 4.641987 0.178176 -4.250000
v 4.603168 0.178176 -4.420077
v 4.494400 0.178176 -4.556468
v 4.337225 0.178176 -4.632159
v 4.162775 0.178176 -4.632159
v 4.005600 0.178176 -4.556468
v 3.896832 0.178176 -4.420077
v 3.858013 0.178176 -4.250000
v 3.896832 0.178176 -4.079923
v 4.005600 0.178176 -3.943532
v 4.162775 0.178176 -3.867841
v 4.337225 0.178176 -3.867841
v 4.494400 0.178176 -3.943532
v 4.603168 0.178176 -4.079923
v 4.250000 0.178176 -4.250000
f 550 551 565
f 550 565 564
f 551 552 566
f 551 566 565
f 552 553 567
f 552 567 566
f 553 554 568
f 553 568 567
f 554 555 569
f 554 569 568
f 555 556 570
f 555 570 569
f 556 557 571
f 556 571 570
f 557 558 572
f 557 572 571
f 558 559 573
f 558 573 572
f 559 560 574
f 559 574 573
f 560 561 575
f 560 575 574
f 561 562 576
f 561 576 575
f 562 563 577
f 562 577 576
f 563 550 564
f 563 564 577
f 564 565 578
f 565 566 578
f 566 567 578
f 567 568 578
f 568 569 578
f 569 570 578
f 570 571 578
f 571 572 578
f 572 573 578
f 573 574 578
f 574 575 578
f 575 576 578
f 576 577 578
f 577 564 578
v 4.563590 0.178176 -4.250000
v 4.532534 0.178176 -4.386061
v 4.445520 0.178176 -4.495174
v 4.319780 0.178176 -4.555727
v 4.180220 0.178176 -4.555727
v 4.054480 0.178176 -4.495174
v 3.967466 0.178176 -4.386061
v 3.936410 0.178176 -4.250000
v 3.967466 0.178176 -4.113939
v 4.054480 0.178176 -4.004826
v 4.180220 0.178176 -3.944273
v 4.319780 0.178176 -3.944273
v 4.445520 0.178176 -4.004826
v 4.532534 0.178176 -4.113939
v 4.378287 1.781759 -4.250000
v 4.365582 1.781759 -4.305661
v 4.329985 1.781759 -4.350299
v 4.278546 1.781759 -4.375070
v 4.221454 1.781759 -4.375070
v 4.170015 1.781759 -4.350299
v 4.134418 1.781759 -4.305661
v 4.121713 1.781759 -4.250000
v 4.134418 1.781759 -4.194339
v 4.170015 1.781759 -4.149701
v 4.221454 1.781759 -4.124930
v 4.278546 1.781759 -4.124930
v 4.329985 1.781759 -4.149701
v 4.365582 1.781759 -4.194339
v 4.250000 1.781759 -4.250000
f 579 580 594
f 579 594 593
f 580 581 595
f 580 595 594
f 581 582 596
f 581 596 595
f 582 583 597
f 582 597 596
f 583 584 598
f 583 598 597
f 584 585 599
f 584 599 598
f 585 586 600
f 585 600 599
f 586 587 601
f 586 601 600
f 587 588 602
f 587 602 601
f 588 589 603
f 588 603 602
f 589 590 604
f 589 604 603
f 590 591 605
f 590 605 604
f 591 592 606
f 591 606 605
f 592 579 593
f 592 593 606
f 593 594 607
f 594 595 607
f 595 596 607
f 596 597 607
f 597 598 607
f 598 599 607
f 599 600 607
f 600 601 607
f 601 602 607
f 602 603 607
f 603 604 607
f 604 605 607
f 605 606 607
f 606 593 607
v 4.520827 1.781759 -4.250000
v 4.494007 1.781759 -4.367508
v 4.418858 1.781759 -4.461741
v 4.310265 1.781759 -4.514037
v 4.189735 1.781759 -4.514037
v 4.081142 1.781759 -4.461741
v 4.005993 1.781759 -4.367508
v 3.979173 1.781759 -4.250000
v 4.005993 1.781759 -4.132492
v 4.081142 1.781759 -4.038259
v 4.189735 1.781759 -3.985963
v 4.310265 1.781759 -3.985963
v 4.418858 1.781759 -4.038259
v 4.494007 1.781759 -4.132492
v 4.463811 1.995570 -4.250000
v 4.442637 1.995570 -4.342769
v 4.383309 1.995570 -4.417164
v 4.297577 1.995570 -4.458450
v 4.202423 1.995570 -4.458450
v 4.116691 1.995570 -4.417164
v 4.057363 1.995570 -4.342769
v 4.036189 1.995570 -4.250000
v 4.057363 1.995570 -4.157231
v 4.116691 1.995570 -4.082836
v 4.202423 1.995570 -4.041550
v 4.297577 1.995570 -4.041550
v 4.383309 1.995570 -4.082836
v 4.442637 1.995570 -4.157231
v 4.250000 1.995570 -4.250000
f 608 609 623
f 608 623 622
f 609 610 624
f 609 624 623
f 610 611 625
f 610 625 624
f 611 612 626
f 611 626 625
f 612 613 627
f 612 627 626
f 613 614 628
f 613 628 627
f 614 615 629
f 614 629 628
f 615 616 630
f 615 630 629
f 616 617 631
f 616 631 630
f 617 618 632
f 617 632 631
f 618 619 633
f 618 633 632
f 619 620 634
f 619 634 633
f 620 621 635
f 620 635 634
f 621 608 622
f 621 622 635
f 622 623 636
f 623 624 636
f 624 625 636
f 625 626 636
f 626 627 636
f 627 628 636
f 628 629 636
f 629 630 636
f 630 631 636
f 631 632 636
f 632 633 636
f 633 634 636
f 634 635 636
f 635 622 636
v 4.200111 1.995570 -4.200111
v 4.299889 1.995570 -4.200111
v 4.299889 1.995570 -4.299889
v 4.200111 1.995570 -4.299889
v 4.200111 2.494463 -4.200111
v 4.299889 2.494463 -4.200111
v 4.299889 2.494463 -4.299889
v 4.200111 2.494463 -4.299889
f 637 639 638
f 637 640 639
f 641 642 643
f 641 643 644
f 637 638 642
f 637 642 641
f 638 639 643
f 638 643 642
f 639 640 644
f 639 644 643
f 640 637 641
f 640 641 644
v 4.071824 2.351922 -4.200111
v 4.428176 2.351922 -4.200111
v 4.428176 2.351922 -4.299889
v 4.071824 2.351922 -4.299889
v 4.071824 2.451701 -4.200111
v 4.428176 2.451701 -4.200111
v 4.428176 2.451701 -4.299889
v 4.071824 2.451701 -4.299889
f 645 647 646
f 645 648 647
f 649 650 651
f 649 651 652
f 645 646 650
f 645 650 649
f 646 647 651
f 646 651 650
f 647 648 652
f 647 652 651
f 648 645 649
f 648 649 652
