o mesh
v 0.000000 0.000000 0.015000
v 0.008817 0.000000 0.012135
v 0.014266 0.000000 0.004635
v 0.014266 0.000000 -0.004635
v 0.008817 0.000000 -0.012135
v 0.000000 0.000000 -0.015000
v -0.008817 0.000000 -0.012135
v -0.014266 0.000000 -0.004635
v -0.014266 0.000000 0.004635
v -0.008817 0.000000 0.012135
v 0.000000 0.400000 0.010200
v 0.005995 0.400000 0.008252
v 0.009701 0.400000 0.003152
v 0.009701 0.400000 -0.003152
v 0.005995 0.400000 -0.008252
v 0.000000 0.400000 -0.010200
v -0.005995 0.400000 -0.008252
v -0.009701 0.400000 -0.003152
v -0.009701 0.400000 0.003152
v -0.005995 0.400000 0.008252
f 1 2 12
f 1 12 11
f 2 3 13
f 2 13 12
f 3 4 14
f 3 14 13
f 4 5 15
f 4 15 14
f 5 6 16
f 5 16 15
f 6 7 17
f 6 17 16
f 7 8 18
f 7 18 17
f 8 9 19
f 8 19 18
f 9 10 20
f 9 20 19
f 10 1 11
f 10 11 20
v 0.002381 0.400000 0.009918
v 0.005747 0.404528 0.007107
v 0.006919 0.407326 0.001581
v 0.005448 0.407326 -0.004549
v 0.001895 0.404528 -0.008941
v -0.002381 0.400000 -0.009918
v -0.005747 0.395472 -0.007107
v -0.006919 0.392674 -0.001581
v -0.005448 0.392674 0.004549
v -0.001895 0.395472 0.008941
v -0.227694 0.604694 0.061785
v -0.225405 0.607773 0.059873
v -0.224608 0.609676 0.056115
v -0.225609 0.609676 0.051947
v -0.228024 0.607773 0.048960
v -0.230932 0.604694 0.048296
v -0.233221 0.601615 0.050208
v -0.234018 0.599712 0.053965
v -0.233017 0.599712 0.058134
v -0.230602 0.601615 0.061120
f 21 22 32
f 21 32 31
f 22 23 33
f 22 33 32
f 23 24 34
f 23 34 33
f 24 25 35
f 24 35 34
f 25 26 36
f 25 36 35
f 26 27 37
f 26 37 36
f 27 28 38
f 27 38 37
f 28 29 39
f 28 39 38
f 29 30 40
f 29 40 39
f 30 21 31
f 30 31 40
v -0.229068 0.604694 0.061972
v -0.229988 0.608676 0.060679
v -0.230651 0.611137 0.057232
v -0.230803 0.611137 0.052948
v -0.230386 0.608676 0.049463
v -0.229559 0.604694 0.048109
v -0.228638 0.600712 0.049401
v -0.227975 0.598251 0.052848
v -0.227823 0.598251 0.057132
v -0.228241 0.600712 0.060617
v -0.498743 0.545453 0.069301
v -0.499369 0.548160 0.068422
v -0.499820 0.549834 0.066078
v -0.499923 0.549834 0.063165
v -0.499640 0.548160 0.060796
v -0.499077 0.545453 0.059874
v -0.498451 0.542745 0.060753
v -0.498000 0.541071 0.063097
v -0.497897 0.541071 0.066010
v -0.498181 0.542745 0.068380
f 41 42 52
f 41 52 51
f 42 43 53
f 42 53 52
f 43 44 54
f 43 54 53
f 44 45 55
f 44 55 54
f 45 46 56
f 45 56 55
f 46 47 57
f 46 57 56
f 47 48 58
f 47 58 57
f 48 49 59
f 48 59 58
f 49 50 60
f 49 60 59
f 50 41 51
f 50 51 60
v -0.497753 0.545453 0.069160
v -0.500239 0.546945 0.068860
v -0.502217 0.547868 0.066928
v -0.502932 0.547868 0.064102
v -0.502111 0.546945 0.061462
v -0.500067 0.545453 0.060015
v -0.497582 0.543960 0.060316
v -0.495604 0.543037 0.062248
v -0.494888 0.543037 0.065073
v -0.495709 0.543960 0.067714
v -0.619617 0.349334 0.098444
v -0.621307 0.350349 0.098240
v -0.622652 0.350976 0.096926
v -0.623139 0.350976 0.095005
v -0.622580 0.350349 0.093209
v -0.621191 0.349334 0.092226
v -0.619500 0.348319 0.092430
v -0.618155 0.347691 0.093743
v -0.617669 0.347691 0.095665
v -0.618227 0.348319 0.097460
f 61 62 72
f 61 72 71
f 62 63 73
f 62 73 72
f 63 64 74
f 63 74 73
f 64 65 75
f 64 75 74
f 65 66 76
f 65 76 75
f 66 67 77
f 66 77 76
f 67 68 78
f 67 78 77
f 68 69 79
f 68 79 78
f 69 70 80
f 69 80 79
f 70 61 71
f 70 71 80
v -0.620404 0.349334 0.095335
v -0.619812 0.351173 0.098302
v -0.619510 0.353185 0.101226
v -0.619799 0.355548 0.104061
v -0.620889 0.358390 0.106776
v -0.622844 0.361746 0.109361
v -0.625549 0.365551 0.111834
v -0.628724 0.369634 0.114236
v -0.631960 0.373754 0.116629
v -0.634788 0.377632 0.119083
v -0.636761 0.380999 0.121666
v -0.637526 0.383647 0.124429
v -0.636892 0.385460 0.127403
v -0.634858 0.386440 0.130587
v -0.631616 0.386699 0.133952
v -0.627518 0.386449 0.137445
v -0.623014 0.385956 0.141000
v -0.618570 0.385499 0.144546
v -0.614595 0.385322 0.148021
v -0.611372 0.385593 0.151383
v -0.609012 0.386379 0.154616
v -0.607455 0.387642 0.157728
v -0.606487 0.389257 0.160752
v -0.605810 0.391045 0.163732
v -0.606402 0.389206 0.160764
v -0.606704 0.387194 0.157841
v -0.606415 0.384831 0.155005
v -0.605325 0.381989 0.152290
v -0.603370 0.378633 0.149705
v -0.600665 0.374829 0.147233
v -0.597490 0.370745 0.144831
v -0.594254 0.366625 0.142438
v -0.591426 0.362747 0.139984
v -0.589453 0.359380 0.137401
v -0.588688 0.356732 0.134637
v -0.589322 0.354919 0.131664
v -0.591356 0.353940 0.128480
v -0.594598 0.353680 0.125115
v -0.598696 0.353930 0.121621
v -0.603200 0.354423 0.118067
v -0.607644 0.354880 0.114521
v -0.611619 0.355057 0.111046
v -0.614842 0.354786 0.107684
v -0.617202 0.354001 0.104451
v -0.618759 0.352737 0.101339
v -0.619727 0.351122 0.098315
f 81 82 83
f 81 83 82
f 81 83 84
f 81 84 83
f 81 84 85
f 81 85 84
f 81 85 86
f 81 86 85
f 81 86 87
f 81 87 86
f 81 87 88
f 81 88 87
f 81 88 89
f 81 89 88
f 81 89 90
f 81 90 89
f 81 90 91
f 81 91 90
f 81 91 92
f 81 92 91
f 81 92 93
f 81 93 92
f 81 93 94
f 81 94 93
f 81 94 95
f 81 95 94
f 81 95 96
f 81 96 95
f 81 96 97
f 81 97 96
f 81 97 98
f 81 98 97
f 81 98 99
f 81 99 98
f 81 99 100
f 81 100 99
f 81 100 101
f 81 101 100
f 81 101 102
f 81 102 101
f 81 102 103
f 81 103 102
f 81 103 104
f 81 104 103
f 81 104 105
f 81 105 104
f 81 105 106
f 81 106 105
f 81 106 107
f 81 107 106
f 81 107 108
f 81 108 107
f 81 108 109
f 81 109 108
f 81 109 110
f 81 110 109
f 81 110 111
f 81 111 110
f 81 111 112
f 81 112 111
f 81 112 113
f 81 113 112
f 81 113 114
f 81 114 113
f 81 114 115
f 81 115 114
f 81 115 116
f 81 116 115
f 81 116 117
f 81 117 116
f 81 117 118
f 81 118 117
f 81 118 119
f 81 119 118
f 81 119 120
f 81 120 119
f 81 120 121
f 81 121 120
f 81 121 122
f 81 122 121
f 81 122 123
f 81 123 122
f 81 123 124
f 81 124 123
f 81 124 125
f 81 125 124
f 81 125 126
f 81 126 125
v -0.620404 0.349334 0.095335
v -0.621493 0.351734 0.094521
v -0.622545 0.354074 0.093469
v -0.623519 0.356286 0.091914
v -0.624384 0.358322 0.089660
v -0.625130 0.360163 0.086641
v -0.625771 0.361834 0.082944
v -0.626344 0.363394 0.078815
v -0.626907 0.364937 0.074614
v -0.627523 0.366568 0.070760
v -0.628257 0.368389 0.067661
v -0.629157 0.370482 0.065633
v -0.630251 0.372890 0.064853
v -0.631540 0.375615 0.065321
v -0.632995 0.378611 0.066861
v -0.634567 0.381797 0.069155
v -0.636194 0.385072 0.071796
v -0.637809 0.388328 0.074366
v -0.639357 0.391475 0.076502
v -0.640800 0.394451 0.077962
v -0.642123 0.397232 0.078656
v -0.643338 0.399837 0.078652
v -0.644475 0.402315 0.078144
v -0.645575 0.404732 0.077398
v -0.644486 0.402332 0.078211
v -0.643434 0.399992 0.079264
v -0.642460 0.397780 0.080819
v -0.641595 0.395744 0.083073
v -0.640849 0.393902 0.086092
v -0.640208 0.392232 0.089789
v -0.639634 0.390671 0.093918
v -0.639072 0.389129 0.098119
v -0.638455 0.387498 0.101972
v -0.637722 0.385677 0.105072
v -0.636822 0.383584 0.107100
v -0.635727 0.381175 0.107880
v -0.634439 0.378451 0.107412
v -0.632984 0.375455 0.105872
v -0.631411 0.372268 0.103578
v -0.629785 0.368994 0.100937
v -0.628169 0.365737 0.098367
v -0.626621 0.362591 0.096230
v -0.625179 0.359615 0.094770
v -0.623855 0.356833 0.094077
v -0.622640 0.354229 0.094081
v -0.621503 0.351751 0.094588
f 127 128 129
f 127 129 128
f 127 129 130
f 127 130 129
f 127 130 131
f 127 131 130
f 127 131 132
f 127 132 131
f 127 132 133
f 127 133 132
f 127 133 134
f 127 134 133
f 127 134 135
f 127 135 134
f 127 135 136
f 127 136 135
f 127 136 137
f 127 137 136
f 127 137 138
f 127 138 137
f 127 138 139
f 127 139 138
f 127 139 140
f 127 140 139
f 127 140 141
f 127 141 140
f 127 141 142
f 127 142 141
f 127 142 143
f 127 143 142
f 127 143 144
f 127 144 143
f 127 144 145
f 127 145 144
f 127 145 146
f 127 146 145
f 127 146 147
f 127 147 146
f 127 147 148
f 127 148 147
f 127 148 149
f 127 149 148
f 127 149 150
f 127 150 149
f 127 150 151
f 127 151 150
f 127 151 152
f 127 152 151
f 127 152 153
f 127 153 152
f 127 153 154
f 127 154 153
f 127 154 155
f 127 155 154
f 127 155 156
f 127 156 155
f 127 156 157
f 127 157 156
f 127 157 158
f 127 158 157
f 127 158 159
f 127 159 158
f 127 159 160
f 127 160 159
f 127 160 161
f 127 161 160
f 127 161 162
f 127 162 161
f 127 162 163
f 127 163 162
f 127 163 164
f 127 164 163
f 127 164 165
f 127 165 164
f 127 165 166
f 127 166 165
f 127 166 167
f 127 167 166
f 127 167 168
f 127 168 167
f 127 168 169
f 127 169 168
f 127 169 170
f 127 170 169
f 127 170 171
f 127 171 170
f 127 171 172
f 127 172 171
v -0.620404 0.349334 0.095335
v -0.618687 0.348866 0.093451
v -0.616427 0.348126 0.091981
v -0.613683 0.347145 0.090880
v -0.610553 0.345970 0.090073
v -0.607161 0.344665 0.089465
v -0.603654 0.343302 0.088945
v -0.600185 0.341958 0.088396
v -0.596905 0.340708 0.087703
v -0.593951 0.339621 0.086762
v -0.591436 0.338754 0.085486
v -0.589441 0.338147 0.083815
v -0.588006 0.337820 0.081716
v -0.587132 0.337774 0.079191
v -0.586777 0.337987 0.076269
v -0.586861 0.338420 0.073014
v -0.587271 0.339015 0.069510
v -0.587871 0.339706 0.065862
v -0.588508 0.340415 0.062185
v -0.589030 0.341067 0.058597
v -0.589290 0.341588 0.055207
v -0.589164 0.341915 0.052111
v -0.588555 0.342001 0.049384
v -0.587402 0.341815 0.047071
v -0.589118 0.342283 0.048955
v -0.591379 0.343023 0.050425
v -0.594122 0.344004 0.051526
v -0.597253 0.345179 0.052333
v -0.600644 0.346484 0.052941
v -0.604151 0.347847 0.053461
v -0.607620 0.349192 0.054010
v -0.610901 0.350441 0.054703
v -0.613854 0.351528 0.055645
v -0.616369 0.352395 0.056920
v -0.618365 0.353002 0.058592
v -0.619800 0.353329 0.060690
v -0.620674 0.353375 0.063216
v -0.621029 0.353162 0.066137
v -0.620945 0.352729 0.069392
v -0.620534 0.352134 0.072896
v -0.619935 0.351443 0.076544
v -0.619298 0.350734 0.080221
v -0.618776 0.350082 0.083809
v -0.618515 0.349561 0.087199
v -0.618641 0.349234 0.090295
v -0.619251 0.349148 0.093022
f 173 174 175
f 173 175 174
f 173 175 176
f 173 176 175
f 173 176 177
f 173 177 176
f 173 177 178
f 173 178 177
f 173 178 179
f 173 179 178
f 173 179 180
f 173 180 179
f 173 180 181
f 173 181 180
f 173 181 182
f 173 182 181
f 173 182 183
f 173 183 182
f 173 183 184
f 173 184 183
f 173 184 185
f 173 185 184
f 173 185 186
f 173 186 185
f 173 186 187
f 173 187 186
f 173 187 188
f 173 188 187
f 173 188 189
f 173 189 188
f 173 189 190
f 173 190 189
f 173 190 191
f 173 191 190
f 173 191 192
f 173 192 191
f 173 192 193
f 173 193 192
f 173 193 194
f 173 194 193
f 173 194 195
f 173 195 194
f 173 195 196
f 173 196 195
f 173 196 197
f 173 197 196
f 173 197 198
f 173 198 197
f 173 198 199
f 173 199 198
f 173 199 200
f 173 200 199
f 173 200 201
f 173 201 200
f 173 201 202
f 173 202 201
f 173 202 203
f 173 203 202
f 173 203 204
f 173 204 203
f 173 204 205
f 173 205 204
f 173 205 206
f 173 206 205
f 173 206 207
f 173 207 206
f 173 207 208
f 173 208 207
f 173 208 209
f 173 209 208
f 173 209 210
f 173 210 209
f 173 210 211
f 173 211 210
f 173 211 212
f 173 212 211
f 173 212 213
f 173 213 212
f 173 213 214
f 173 214 213
f 173 214 215
f 173 215 214
f 173 215 216
f 173 216 215
f 173 216 217
f 173 217 216
f 173 217 218
f 173 218 217
