o mesh
v 0.000000 0.000000 0.060000
v 0.043776 0.000850 0.043784
v 0.059989 0.001164 0.000000
v 0.043776 0.000850 -0.043784
v 0.000000 0.000000 -0.060000
v -0.043776 -0.000850 -0.043784
v -0.059989 -0.001164 -0.000000
v -0.043776 -0.000850 0.043784
v -0.042299 2.179205 0.040000
v -0.013115 2.179771 0.029190
v -0.002306 2.179981 0.000000
v -0.013115 2.179771 -0.029190
v -0.042299 2.179205 -0.040000
v -0.071483 2.178638 -0.029190
v -0.082291 2.178428 -0.000000
v -0.071483 2.178638 0.029190
f 1 2 10
f 1 10 9
f 2 3 11
f 2 11 10
f 3 4 12
f 3 12 11
f 4 5 13
f 4 13 12
f 5 6 14
f 5 14 13
f 6 7 15
f 6 15 14
f 7 8 16
f 7 16 15
f 8 1 9
f 8 9 16
v -0.042299 2.179205 -0.000000
v -0.033557 2.207441 -0.016013
v -0.023253 2.235677 -0.031903
v -0.012555 2.263914 -0.047763
v -0.001935 2.292150 -0.063629
v 0.008257 2.320386 -0.079528
v 0.017729 2.348623 -0.095483
v 0.026231 2.376859 -0.111515
v 0.033552 2.405095 -0.127638
v 0.039521 2.433332 -0.143868
v 0.044006 2.461568 -0.160213
v 0.046919 2.489804 -0.176681
v 0.048216 2.518041 -0.193275
v 0.047896 2.546277 -0.209996
v 0.046004 2.574513 -0.226839
v 0.042628 2.602750 -0.243799
v 0.037900 2.630986 -0.260864
v 0.031991 2.659222 -0.278021
v 0.025113 2.687459 -0.295254
v 0.017514 2.715695 -0.312543
v 0.009487 2.743931 -0.329866
v 0.001382 2.772168 -0.347195
v -0.006328 2.800404 -0.364493
v -0.012477 2.828640 -0.381669
v -0.021218 2.800404 -0.365657
v -0.031522 2.772168 -0.349766
v -0.042220 2.743931 -0.333906
v -0.052840 2.715695 -0.318041
v -0.063032 2.687459 -0.302141
v -0.072504 2.659222 -0.286186
v -0.081006 2.630986 -0.270154
v -0.088327 2.602750 -0.254031
v -0.094296 2.574513 -0.237802
v -0.098781 2.546277 -0.221456
v -0.101695 2.518041 -0.204988
v -0.102991 2.489804 -0.188394
v -0.102671 2.461568 -0.171674
v -0.100779 2.433332 -0.154830
v -0.097404 2.405095 -0.137871
v -0.092676 2.376859 -0.120806
v -0.086767 2.348623 -0.103648
v -0.079888 2.320386 -0.086415
v -0.072289 2.292150 -0.069126
v -0.064262 2.263914 -0.051803
v -0.056158 2.235677 -0.034474
v -0.048447 2.207441 -0.017176
f 17 18 19
f 17 19 18
f 17 19 20
f 17 20 19
f 17 20 21
f 17 21 20
f 17 21 22
f 17 22 21
f 17 22 23
f 17 23 22
f 17 23 24
f 17 24 23
f 17 24 25
f 17 25 24
f 17 25 26
f 17 26 25
f 17 26 27
f 17 27 26
f 17 27 28
f 17 28 27
f 17 28 29
f 17 29 28
f 17 29 30
f 17 30 29
f 17 30 31
f 17 31 30
f 17 31 32
f 17 32 31
f 17 32 33
f 17 33 32
f 17 33 34
f 17 34 33
f 17 34 35
f 17 35 34
f 17 35 36
f 17 36 35
f 17 36 37
f 17 37 36
f 17 37 38
f 17 38 37
f 17 38 39
f 17 39 38
f 17 39 40
f 17 40 39
f 17 40 41
f 17 41 40
f 17 41 42
f 17 42 41
f 17 42 43
f 17 43 42
f 17 43 44
f 17 44 43
f 17 44 45
f 17 45 44
f 17 45 46
f 17 46 45
f 17 46 47
f 17 47 46
f 17 47 48
f 17 48 47
f 17 48 49
f 17 49 48
f 17 49 50
f 17 50 49
f 17 50 51
f 17 51 50
f 17 51 52
f 17 52 51
f 17 52 53
f 17 53 52
f 17 53 54
f 17 54 53
f 17 54 55
f 17 55 54
f 17 55 56
f 17 56 55
f 17 56 57
f 17 57 56
f 17 57 58
f 17 58 57
f 17 58 59
f 17 59 58
f 17 59 60
f 17 60 59
f 17 60 61
f 17 61 60
f 17 61 62
f 17 62 61
v -0.042299 2.179205 -0.000000
v -0.013834 2.156441 0.013590
v 0.016166 2.133676 0.025306
v 0.046688 2.110912 0.036385
v 0.077312 2.088148 0.047339
v 0.107728 2.065384 0.058548
v 0.137676 2.042620 0.070328
v 0.166933 2.019856 0.082951
v 0.195312 1.997092 0.096646
v 0.222658 1.974328 0.111602
v 0.248854 1.951563 0.127961
v 0.273820 1.928799 0.145823
v 0.297515 1.906035 0.165234
v 0.319941 1.883271 0.186197
v 0.341136 1.860507 0.208660
v 0.361181 1.837743 0.232528
v 0.380194 1.814979 0.257657
v 0.398328 1.792215 0.283857
v 0.415771 1.769450 0.310901
v 0.432747 1.746686 0.338516
v 0.449514 1.723922 0.366385
v 0.466383 1.701158 0.394130
v 0.483774 1.678394 0.421237
v 0.502701 1.655630 0.446470
v 0.474236 1.678394 0.432880
v 0.444236 1.701158 0.421164
v 0.413714 1.723922 0.410086
v 0.383090 1.746686 0.399131
v 0.352674 1.769450 0.387923
v 0.322727 1.792215 0.376142
v 0.293469 1.814979 0.363520
v 0.265090 1.837743 0.349825
v 0.237744 1.860507 0.334869
v 0.211548 1.883271 0.318509
v 0.186583 1.906035 0.300648
v 0.162887 1.928799 0.281236
v 0.140462 1.951563 0.260274
v 0.119266 1.974328 0.237810
v 0.099221 1.997092 0.213942
v 0.080208 2.019856 0.188814
v 0.062075 2.042620 0.162613
v 0.044631 2.065384 0.135570
v 0.027655 2.088148 0.107955
v 0.010888 2.110912 0.080086
v -0.005981 2.133676 0.052341
v -0.023372 2.156441 0.025233
f 63 64 65
f 63 65 64
f 63 65 66
f 63 66 65
f 63 66 67
f 63 67 66
f 63 67 68
f 63 68 67
f 63 68 69
f 63 69 68
f 63 69 70
f 63 70 69
f 63 70 71
f 63 71 70
f 63 71 72
f 63 72 71
f 63 72 73
f 63 73 72
f 63 73 74
f 63 74 73
f 63 74 75
f 63 75 74
f 63 75 76
f 63 76 75
f 63 76 77
f 63 77 76
f 63 77 78
f 63 78 77
f 63 78 79
f 63 79 78
f 63 79 80
f 63 80 79
f 63 80 81
f 63 81 80
f 63 81 82
f 63 82 81
f 63 82 83
f 63 83 82
f 63 83 84
f 63 84 83
f 63 84 85
f 63 85 84
f 63 85 86
f 63 86 85
f 63 86 87
f 63 87 86
f 63 87 88
f 63 88 87
f 63 88 89
f 63 89 88
f 63 89 90
f 63 90 89
f 63 90 91
f 63 91 90
f 63 91 92
f 63 92 91
f 63 92 93
f 63 93 92
f 63 93 94
f 63 94 93
f 63 94 95
f 63 95 94
f 63 95 96
f 63 96 95
f 63 96 97
f 63 97 96
f 63 97 98
f 63 98 97
f 63 98 99
f 63 99 98
f 63 99 100
f 63 100 99
f 63 100 101
f 63 101 100
f 63 101 102
f 63 102 101
f 63 102 103
f 63 103 102
f 63 103 104
f 63 104 103
f 63 104 105
f 63 105 104
f 63 105 106
f 63 106 105
f 63 106 107
f 63 107 106
f 63 107 108
f 63 108 107
v -0.042299 2.179205 -0.000000
v -0.011153 2.166197 -0.001809
v 0.020259 2.153189 -0.004948
v 0.051726 2.140181 -0.008365
v 0.083163 2.127173 -0.011631
v 0.114505 2.114165 -0.014426
v 0.145701 2.101157 -0.016483
v 0.176703 2.088149 -0.017572
v 0.207473 2.075141 -0.017500
v 0.237980 2.062133 -0.016109
v 0.268200 2.049125 -0.013279
v 0.298117 2.036117 -0.008929
v 0.327721 2.023109 -0.003019
v 0.357014 2.010101 0.004453
v 0.386004 1.997093 0.013445
v 0.414706 1.984085 0.023875
v 0.443145 1.971077 0.035624
v 0.471352 1.958069 0.048535
v 0.499366 1.945061 0.062413
v 0.527233 1.932053 0.077029
v 0.555005 1.919045 0.092116
v 0.582748 1.906037 0.107355
v 0.610546 1.893029 0.122315
v 0.638609 1.880021 0.135945
v 0.607463 1.893029 0.137754
v 0.576052 1.906037 0.140893
v 0.544585 1.919045 0.144310
v 0.513148 1.932053 0.147576
v 0.481805 1.945061 0.150371
v 0.450610 1.958069 0.152428
v 0.419608 1.971077 0.153517
v 0.388837 1.984085 0.153445
v 0.358330 1.997093 0.152054
v 0.328110 2.010101 0.149224
v 0.298194 2.023109 0.144875
v 0.268589 2.036117 0.138964
v 0.239296 2.049125 0.131492
v 0.210307 2.062133 0.122501
v 0.181604 2.075141 0.112070
v 0.153165 2.088149 0.100321
v 0.124958 2.101157 0.087411
v 0.096944 2.114165 0.073533
v 0.069078 2.127173 0.058916
v 0.041305 2.140181 0.043829
v 0.013563 2.153189 0.028591
v -0.014235 2.166197 0.013630
f 109 110 111
f 109 111 110
f 109 111 112
f 109 112 111
f 109 112 113
f 109 113 112
f 109 113 114
f 109 114 113
f 109 114 115
f 109 115 114
f 109 115 116
f 109 116 115
f 109 116 117
f 109 117 116
f 109 117 118
f 109 118 117
f 109 118 119
f 109 119 118
f 109 119 120
f 109 120 119
f 109 120 121
f 109 121 120
f 109 121 122
f 109 122 121
f 109 122 123
f 109 123 122
f 109 123 124
f 109 124 123
f 109 124 125
f 109 125 124
f 109 125 126
f 109 126 125
f 109 126 127
f 109 127 126
f 109 127 128
f 109 128 127
f 109 128 129
f 109 129 128
f 109 129 130
f 109 130 129
f 109 130 131
f 109 131 130
f 109 131 132
f 109 132 131
f 109 132 133
f 109 133 132
f 109 133 134
f 109 134 133
f 109 134 135
f 109 135 134
f 109 135 136
f 109 136 135
f 109 136 137
f 109 137 136
f 109 137 138
f 109 138 137
f 109 138 139
f 109 139 138
f 109 139 140
f 109 140 139
f 109 140 141
f 109 141 140
f 109 141 142
f 109 142 141
f 109 142 143
f 109 143 142
f 109 143 144
f 109 144 143
f 109 144 145
f 109 145 144
f 109 145 146
f 109 146 145
f 109 146 147
f 109 147 146
f 109 147 148
f 109 148 147
f 109 148 149
f 109 149 148
f 109 149 150
f 109 150 149
f 109 150 151
f 109 151 150
f 109 151 152
f 109 152 151
f 109 152 153
f 109 153 152
f 109 153 154
f 109 154 153
v -0.042299 2.179205 -0.000000
v -0.024842 2.206793 0.014251
v -0.008889 2.234380 0.031306
v 0.006278 2.261968 0.049828
v 0.021031 2.289556 0.069123
v 0.035668 2.317144 0.088633
v 0.050456 2.344732 0.107861
v 0.065633 2.372319 0.126365
v 0.081406 2.399907 0.143756
v 0.097950 2.427495 0.159710
v 0.115399 2.455083 0.173973
v 0.133848 2.482671 0.186374
v 0.153342 2.510259 0.196823
v 0.173882 2.537846 0.205321
v 0.195421 2.565434 0.211955
v 0.217865 2.593022 0.216900
v 0.241080 2.620610 0.220407
v 0.264892 2.648198 0.222802
v 0.289092 2.675786 0.224472
v 0.313442 2.703373 0.225860
v 0.337678 2.730961 0.227463
v 0.361499 2.758549 0.229840
v 0.384534 2.786137 0.233683
v 0.406066 2.813725 0.240331
v 0.388610 2.786137 0.226080
v 0.372657 2.758549 0.209024
v 0.357490 2.730961 0.190503
v 0.342737 2.703373 0.171208
v 0.328100 2.675786 0.151698
v 0.313311 2.648198 0.132470
v 0.298134 2.620610 0.113966
v 0.282361 2.593022 0.096575
v 0.265818 2.565434 0.080621
v 0.248368 2.537846 0.066357
v 0.229920 2.510259 0.053957
v 0.210426 2.482671 0.043508
v 0.189886 2.455083 0.035010
v 0.168347 2.427495 0.028375
v 0.145902 2.399907 0.023431
v 0.122687 2.372319 0.019923
v 0.098876 2.344732 0.017529
v 0.074676 2.317144 0.015859
v 0.050325 2.289556 0.014470
v 0.026089 2.261968 0.012867
v 0.002268 2.234380 0.010490
v -0.020767 2.206793 0.006648
f 155 156 157
f 155 157 156
f 155 157 158
f 155 158 157
f 155 158 159
f 155 159 158
f 155 159 160
f 155 160 159
f 155 160 161
f 155 161 160
f 155 161 162
f 155 162 161
f 155 162 163
f 155 163 162
f 155 163 164
f 155 164 163
f 155 164 165
f 155 165 164
f 155 165 166
f 155 166 165
f 155 166 167
f 155 167 166
f 155 167 168
f 155 168 167
f 155 168 169
f 155 169 168
f 155 169 170
f 155 170 169
f 155 170 171
f 155 171 170
f 155 171 172
f 155 172 171
f 155 172 173
f 155 173 172
f 155 173 174
f 155 174 173
f 155 174 175
f 155 175 174
f 155 175 176
f 155 176 175
f 155 176 177
f 155 177 176
f 155 177 178
f 155 178 177
f 155 178 179
f 155 179 178
f 155 179 180
f 155 180 179
f 155 180 181
f 155 181 180
f 155 181 182
f 155 182 181
f 155 182 183
f 155 183 182
f 155 183 184
f 155 184 183
f 155 184 185
f 155 185 184
f 155 185 186
f 155 186 185
f 155 186 187
f 155 187 186
f 155 187 188
f 155 188 187
f 155 188 189
f 155 189 188
f 155 189 190
f 155 190 189
f 155 190 191
f 155 191 190
f 155 191 192
f 155 192 191
f 155 192 193
f 155 193 192
f 155 193 194
f 155 194 193
f 155 194 195
f 155 195 194
f 155 195 196
f 155 196 195
f 155 196 197
f 155 197 196
f 155 197 198
f 155 198 197
f 155 198 199
f 155 199 198
f 155 199 200
f 155 200 199
v -0.042299 2.179205 -0.000000
v -0.038271 2.166542 -0.027733
v -0.036872 2.153878 -0.056221
v -0.036832 2.141215 -0.085100
v -0.037502 2.128552 -0.114182
v -0.038359 2.115889 -0.143317
v -0.038940 2.103226 -0.172374
v -0.038833 2.090563 -0.201233
v -0.037677 2.077900 -0.229791
v -0.035171 2.065237 -0.257961
v -0.031081 2.052574 -0.285676
v -0.025245 2.039910 -0.312890
v -0.017582 2.027247 -0.339580
v -0.008092 2.014584 -0.365745
v 0.003143 2.001921 -0.391409
v 0.015963 1.989258 -0.416618
v 0.030133 1.976595 -0.441439
v 0.045352 1.963932 -0.465959
v 0.061258 1.951269 -0.490282
v 0.077441 1.938606 -0.514526
v 0.093437 1.925943 -0.538823
v 0.108723 1.913279 -0.563324
v 0.122649 1.900616 -0.588215
v 0.133947 1.887953 -0.613861
v 0.129920 1.900616 -0.586127
v 0.128521 1.913279 -0.557639
v 0.128481 1.925943 -0.528761
v 0.129151 1.938606 -0.499679
v 0.130008 1.951269 -0.470543
v 0.130589 1.963932 -0.441487
v 0.130482 1.976595 -0.412628
v 0.129326 1.989258 -0.384070
v 0.126820 2.001921 -0.355900
v 0.122729 2.014584 -0.328185
v 0.116893 2.027247 -0.300970
v 0.109231 2.039910 -0.274281
v 0.099741 2.052574 -0.248116
v 0.088506 2.065237 -0.222452
v 0.075686 2.077900 -0.197243
v 0.061516 2.090563 -0.172422
v 0.046297 2.103226 -0.147901
v 0.030390 2.115889 -0.123579
v 0.014208 2.128552 -0.099335
v -0.001788 2.141215 -0.075038
v -0.017074 2.153878 -0.050537
v -0.031000 2.166542 -0.025646
f 201 202 203
f 201 203 202
f 201 203 204
f 201 204 203
f 201 204 205
f 201 205 204
f 201 205 206
f 201 206 205
f 201 206 207
f 201 207 206
f 201 207 208
f 201 208 207
f 201 208 209
f 201 209 208
f 201 209 210
f 201 210 209
f 201 210 211
f 201 211 210
f 201 211 212
f 201 212 211
f 201 212 213
f 201 213 212
f 201 213 214
f 201 214 213
f 201 214 215
f 201 215 214
f 201 215 216
f 201 216 215
f 201 216 217
f 201 217 216
f 201 217 218
f 201 218 217
f 201 218 219
f 201 219 218
f 201 219 220
f 201 220 219
f 201 220 221
f 201 221 220
f 201 221 222
f 201 222 221
f 201 222 223
f 201 223 222
f 201 223 224
f 201 224 223
f 201 224 225
f 201 225 224
f 201 225 226
f 201 226 225
f 201 226 227
f 201 227 226
f 201 227 228
f 201 228 227
f 201 228 229
f 201 229 228
f 201 229 230
f 201 230 229
f 201 230 231
f 201 231 230
f 201 231 232
f 201 232 231
f 201 232 233
f 201 233 232
f 201 233 234
f 201 234 233
f 201 234 235
f 201 235 234
f 201 235 236
f 201 236 235
f 201 236 237
f 201 237 236
f 201 237 238
f 201 238 237
f 201 238 239
f 201 239 238
f 201 239 240
f 201 240 239
f 201 240 241
f 201 241 240
f 201 241 242
f 201 242 241
f 201 242 243
f 201 243 242
f 201 243 244
f 201 244 243
f 201 244 245
f 201 245 244
f 201 245 246
f 201 246 245
v -0.042299 2.179205 -0.000000
v -0.052544 2.154512 -0.025941
v -0.065665 2.129820 -0.051407
v -0.080016 2.105127 -0.076669
v -0.094859 2.080435 -0.101850
v -0.109632 2.055742 -0.127042
v -0.123860 2.031050 -0.152325
v -0.137126 2.006357 -0.177767
v -0.149075 1.981665 -0.203426
v -0.159414 1.956972 -0.229352
v -0.167917 1.932280 -0.255581
v -0.174432 1.907587 -0.282139
v -0.178879 1.882895 -0.309039
v -0.181260 1.858202 -0.336280
v -0.181651 1.833510 -0.363850
v -0.180207 1.808817 -0.391724
v -0.177153 1.784125 -0.419864
v -0.172782 1.759432 -0.448222
v -0.167450 1.734740 -0.476738
v -0.161571 1.710047 -0.505345
v -0.155623 1.685355 -0.533964
v -0.150167 1.660662 -0.562501
v -0.145941 1.635970 -0.590834
v -0.144591 1.611277 -0.618693
v -0.134345 1.635970 -0.592752
v -0.121225 1.660662 -0.567286
v -0.106874 1.685355 -0.542024
v -0.092031 1.710047 -0.516843
v -0.077257 1.734740 -0.491650
v -0.063030 1.759432 -0.466368
v -0.049763 1.784125 -0.440926
v -0.037814 1.808817 -0.415267
v -0.027475 1.833510 -0.389341
v -0.018972 1.858202 -0.363112
v -0.012458 1.882895 -0.336554
v -0.008010 1.907587 -0.309654
v -0.005629 1.932280 -0.282413
v -0.005238 1.956972 -0.254843
v -0.006682 1.981665 -0.226969
v -0.009736 2.006357 -0.198829
v -0.014107 2.031050 -0.170471
v -0.019440 2.055742 -0.141954
v -0.025319 2.080435 -0.113347
v -0.031267 2.105127 -0.084729
v -0.036722 2.129820 -0.056192
v -0.040948 2.154512 -0.027858
f 247 248 249
f 247 249 248
f 247 249 250
f 247 250 249
f 247 250 251
f 247 251 250
f 247 251 252
f 247 252 251
f 247 252 253
f 247 253 252
f 247 253 254
f 247 254 253
f 247 254 255
f 247 255 254
f 247 255 256
f 247 256 255
f 247 256 257
f 247 257 256
f 247 257 258
f 247 258 257
f 247 258 259
f 247 259 258
f 247 259 260
f 247 260 259
f 247 260 261
f 247 261 260
f 247 261 262
f 247 262 261
f 247 262 263
f 247 263 262
f 247 263 264
f 247 264 263
f 247 264 265
f 247 265 264
f 247 265 266
f 247 266 265
f 247 266 267
f 247 267 266
f 247 267 268
f 247 268 267
f 247 268 269
f 247 269 268
f 247 269 270
f 247 270 269
f 247 270 271
f 247 271 270
f 247 271 272
f 247 272 271
f 247 272 273
f 247 273 272
f 247 273 274
f 247 274 273
f 247 274 275
f 247 275 274
f 247 275 276
f 247 276 275
f 247 276 277
f 247 277 276
f 247 277 278
f 247 278 277
f 247 278 279
f 247 279 278
f 247 279 280
f 247 280 279
f 247 280 281
f 247 281 280
f 247 281 282
f 247 282 281
f 247 282 283
f 247 283 282
f 247 283 284
f 247 284 283
f 247 284 285
f 247 285 284
f 247 285 286
f 247 286 285
f 247 286 287
f 247 287 286
f 247 287 288
f 247 288 287
f 247 288 289
f 247 289 288
f 247 289 290
f 247 290 289
f 247 290 291
f 247 291 290
f 247 291 292
f 247 292 291
v -0.042299 2.179205 -0.000000
v -0.060091 2.202790 0.002237
v -0.078536 2.226375 0.003291
v -0.097141 2.249960 0.004054
v -0.115708 2.273545 0.004888
v -0.134088 2.297131 0.006059
v -0.152159 2.320716 0.007791
v -0.169816 2.344301 0.010274
v -0.186969 2.367886 0.013672
v -0.203545 2.391471 0.018113
v -0.219491 2.415056 0.023700
v -0.234768 2.438641 0.030499
v -0.249357 2.462227 0.038544
v -0.263259 2.485812 0.047836
v -0.276492 2.509397 0.058341
v -0.289094 2.532982 0.069990
v -0.301120 2.556567 0.082684
v -0.312642 2.580152 0.096291
v -0.323750 2.603738 0.110650
v -0.334549 2.627323 0.125570
v -0.345161 2.650908 0.140827
v -0.355734 2.674493 0.156155
v -0.366468 2.698078 0.171192
v -0.377854 2.721663 0.185046
v -0.360062 2.698078 0.182810
v -0.341617 2.674493 0.181755
v -0.323012 2.650908 0.180992
v -0.304445 2.627323 0.180159
v -0.286065 2.603738 0.178988
v -0.267994 2.580152 0.177256
v -0.250337 2.556567 0.174772
v -0.233184 2.532982 0.171375
v -0.216608 2.509397 0.166933
v -0.200662 2.485812 0.161346
v -0.185385 2.462227 0.154547
v -0.170796 2.438641 0.146502
v -0.156894 2.415056 0.137210
v -0.143661 2.391471 0.126705
v -0.131059 2.367886 0.115056
v -0.119033 2.344301 0.102362
v -0.107510 2.320716 0.088755
v -0.096403 2.297131 0.074396
v -0.085604 2.273545 0.059476
v -0.074992 2.249960 0.044219
v -0.064419 2.226375 0.028891
v -0.053685 2.202790 0.013854
f 293 294 295
f 293 295 294
f 293 295 296
f 293 296 295
f 293 296 297
f 293 297 296
f 293 297 298
f 293 298 297
f 293 298 299
f 293 299 298
f 293 299 300
f 293 300 299
f 293 300 301
f 293 301 300
f 293 301 302
f 293 302 301
f 293 302 303
f 293 303 302
f 293 303 304
f 293 304 303
f 293 304 305
f 293 305 304
f 293 305 306
f 293 306 305
f 293 306 307
f 293 307 306
f 293 307 308
f 293 308 307
f 293 308 309
f 293 309 308
f 293 309 310
f 293 310 309
f 293 310 311
f 293 311 310
f 293 311 312
f 293 312 311
f 293 312 313
f 293 313 312
f 293 313 314
f 293 314 313
f 293 314 315
f 293 315 314
f 293 315 316
f 293 316 315
f 293 316 317
f 293 317 316
f 293 317 318
f 293 318 317
f 293 318 319
f 293 319 318
f 293 319 320
f 293 320 319
f 293 320 321
f 293 321 320
f 293 321 322
f 293 322 321
f 293 322 323
f 293 323 322
f 293 323 324
f 293 324 323
f 293 324 325
f 293 325 324
f 293 325 326
f 293 326 325
f 293 326 327
f 293 327 326
f 293 327 328
f 293 328 327
f 293 328 329
f 293 329 328
f 293 329 330
f 293 330 329
f 293 330 331
f 293 331 330
f 293 331 332
f 293 332 331
f 293 332 333
f 293 333 332
f 293 333 334
f 293 334 333
f 293 334 335
f 293 335 334
f 293 335 336
f 293 336 335
f 293 336 337
f 293 337 336
f 293 337 338
f 293 338 337
v -0.042299 2.179205 -0.000000
v -0.066604 2.150153 0.012087
v -0.089934 2.121100 0.027569
v -0.112759 2.092048 0.044805
v -0.135322 2.062996 0.062955
v -0.157815 2.033944 0.081345
v -0.180412 2.004892 0.099376
v -0.203265 1.975839 0.116516
v -0.226507 1.946787 0.132301
v -0.250252 1.917735 0.146341
v -0.274585 1.888683 0.158333
v -0.299566 1.859631 0.168070
v -0.325226 1.830579 0.175447
v -0.351564 1.801526 0.180464
v -0.378550 1.772474 0.183226
v -0.406125 1.743422 0.183941
v -0.434202 1.714370 0.182911
v -0.462669 1.685318 0.180524
v -0.491392 1.656266 0.177247
v -0.520217 1.627213 0.173613
v -0.548974 1.598161 0.170216
v -0.577469 1.569109 0.167734
v -0.605458 1.540057 0.167007
v -0.632472 1.511005 0.169674
v -0.608166 1.540057 0.157588
v -0.584837 1.569109 0.142106
v -0.562012 1.598161 0.124870
v -0.539449 1.627213 0.106719
v -0.516955 1.656266 0.088330
v -0.494359 1.685318 0.070299
v -0.471506 1.714370 0.053158
v -0.448263 1.743422 0.037373
v -0.424519 1.772474 0.023334
v -0.400186 1.801526 0.011342
v -0.375205 1.830579 0.001605
v -0.349545 1.859631 -0.005772
v -0.323207 1.888683 -0.010790
v -0.296221 1.917735 -0.013552
v -0.268645 1.946787 -0.014267
v -0.240569 1.975839 -0.013236
v -0.212102 2.004892 -0.010850
v -0.183379 2.033944 -0.007573
v -0.154553 2.062996 -0.003938
v -0.125796 2.092048 -0.000542
v -0.097302 2.121100 0.001940
v -0.069312 2.150153 0.002668
f 339 340 341
f 339 341 340
f 339 341 342
f 339 342 341
f 339 342 343
f 339 343 342
f 339 343 344
f 339 344 343
f 339 344 345
f 339 345 344
f 339 345 346
f 339 346 345
f 339 346 347
f 339 347 346
f 339 347 348
f 339 348 347
f 339 348 349
f 339 349 348
f 339 349 350
f 339 350 349
f 339 350 351
f 339 351 350
f 339 351 352
f 339 352 351
f 339 352 353
f 339 353 352
f 339 353 354
f 339 354 353
f 339 354 355
f 339 355 354
f 339 355 356
f 339 356 355
f 339 356 357
f 339 357 356
f 339 357 358
f 339 358 357
f 339 358 359
f 339 359 358
f 339 359 360
f 339 360 359
f 339 360 361
f 339 361 360
f 339 361 362
f 339 362 361
f 339 362 363
f 339 363 362
f 339 363 364
f 339 364 363
f 339 364 365
f 339 365 364
f 339 365 366
f 339 366 365
f 339 366 367
f 339 367 366
f 339 367 368
f 339 368 367
f 339 368 369
f 339 369 368
f 339 369 370
f 339 370 369
f 339 370 371
f 339 371 370
f 339 371 372
f 339 372 371
f 339 372 373
f 339 373 372
f 339 373 374
f 339 374 373
f 339 374 375
f 339 375 374
f 339 375 376
f 339 376 375
f 339 376 377
f 339 377 376
f 339 377 378
f 339 378 377
f 339 378 379
f 339 379 378
f 339 379 380
f 339 380 379
f 339 380 381
f 339 381 380
f 339 381 382
f 339 382 381
f 339 382 383
f 339 383 382
f 339 383 384
f 339 384 383
v -0.042299 2.179205 -0.000000
v -0.053301 2.155717 0.017932
v -0.062150 2.132230 0.037754
v -0.069821 2.108742 0.058610
v -0.076841 2.085255 0.080037
v -0.083646 2.061767 0.101654
v -0.090624 2.038280 0.123119
v -0.098127 2.014792 0.144122
v -0.106465 1.991305 0.164393
v -0.115898 1.967817 0.183702
v -0.126629 1.944330 0.201872
v -0.138798 1.920842 0.218779
v -0.152477 1.897355 0.234362
v -0.167665 1.873867 0.248620
v -0.184290 1.850380 0.261615
v -0.202215 1.826892 0.273471
v -0.221234 1.803405 0.284366
v -0.241088 1.779917 0.294527
v -0.261467 1.756430 0.304228
v -0.282020 1.732942 0.313776
v -0.302357 1.709455 0.323515
v -0.322042 1.685967 0.333824
v -0.340551 1.662480 0.345167
v -0.356906 1.638992 0.358400
v -0.345903 1.662480 0.340468
v -0.337055 1.685967 0.320646
v -0.329384 1.709455 0.299790
v -0.322363 1.732942 0.278363
v -0.315559 1.756430 0.256746
v -0.308581 1.779917 0.235282
v -0.301078 1.803405 0.214278
v -0.292740 1.826892 0.194007
v -0.283307 1.850380 0.174698
v -0.272576 1.873867 0.156528
v -0.260406 1.897355 0.139621
v -0.246727 1.920842 0.124038
v -0.231540 1.944330 0.109780
v -0.214914 1.967817 0.096785
v -0.196990 1.991305 0.084929
v -0.177971 2.014792 0.074034
v -0.158116 2.038280 0.063873
v -0.137737 2.061767 0.054172
v -0.117184 2.085255 0.044624
v -0.096848 2.108742 0.034886
v -0.077162 2.132230 0.024576
v -0.058653 2.155717 0.013234
f 385 386 387
f 385 387 386
f 385 387 388
f 385 388 387
f 385 388 389
f 385 389 388
f 385 389 390
f 385 390 389
f 385 390 391
f 385 391 390
f 385 391 392
f 385 392 391
f 385 392 393
f 385 393 392
f 385 393 394
f 385 394 393
f 385 394 395
f 385 395 394
f 385 395 396
f 385 396 395
f 385 396 397
f 385 397 396
f 385 397 398
f 385 398 397
f 385 398 399
f 385 399 398
f 385 399 400
f 385 400 399
f 385 400 401
f 385 401 400
f 385 401 402
f 385 402 401
f 385 402 403
f 385 403 402
f 385 403 404
f 385 404 403
f 385 404 405
f 385 405 404
f 385 405 406
f 385 406 405
f 385 406 407
f 385 407 406
f 385 407 408
f 385 408 407
f 385 408 409
f 385 409 408
f 385 409 410
f 385 410 409
f 385 410 411
f 385 411 410
f 385 411 412
f 385 412 411
f 385 412 413
f 385 413 412
f 385 413 414
f 385 414 413
f 385 414 415
f 385 415 414
f 385 415 416
f 385 416 415
f 385 416 417
f 385 417 416
f 385 417 418
f 385 418 417
f 385 418 419
f 385 419 418
f 385 419 420
f 385 420 419
f 385 420 421
f 385 421 420
f 385 421 422
f 385 422 421
f 385 422 423
f 385 423 422
f 385 423 424
f 385 424 423
f 385 424 425
f 385 425 424
f 385 425 426
f 385 426 425
f 385 426 427
f 385 427 426
f 385 427 428
f 385 428 427
f 385 428 429
f 385 429 428
f 385 429 430
f 385 430 429
