o mesh
v 2.410998 0.030000 -0.000000
v 2.227472 0.030000 -0.922649
v 1.704833 0.030000 -1.704833
v 0.922649 0.030000 -2.227472
v 0.000000 0.030000 -2.410998
v -0.922649 0.030000 -2.227472
v -1.704833 0.030000 -1.704833
v -2.227472 0.030000 -0.922649
v -2.410998 0.030000 -0.000000
v -2.227472 0.030000 0.922649
v -1.704833 0.030000 1.704833
v -0.922649 0.030000 2.227472
v -0.000000 0.030000 2.410998
v 0.922649 0.030000 2.227472
v 1.704833 0.030000 1.704833
v 2.227472 0.030000 0.922649
v 1.420000 0.030000 -0.000000
v 1.311909 0.030000 -0.543410
v 1.004092 0.030000 -1.004092
v 0.543410 0.030000 -1.311909
v 0.000000 0.030000 -1.420000
v -0.543410 0.030000 -1.311909
v -1.004092 0.030000 -1.004092
v -1.311909 0.030000 -0.543410
v -1.420000 0.030000 -0.000000
v -1.311909 0.030000 0.543410
v -1.004092 0.030000 1.004092
v -0.543410 0.030000 1.311909
v -0.000000 0.030000 1.420000
v 0.543410 0.030000 1.311909
v 1.004092 0.030000 1.004092
v 1.311909 0.030000 0.543410
f 1 2 18
f 18 2 1
f 1 18 17
f 17 18 1
f 2 3 19
f 19 3 2
f 2 19 18
f 18 19 2
f 3 4 20
f 20 4 3
f 3 20 19
f 19 20 3
f 4 5 21
f 21 5 4
f 4 21 20
f 20 21 4
f 5 6 22
f 22 6 5
f 5 22 21
f 21 22 5
f 6 7 23
f 23 7 6
f 6 23 22
f 22 23 6
f 7 8 24
f 24 8 7
f 7 24 23
f 23 24 7
f 8 9 25
f 25 9 8
f 8 25 24
f 24 25 8
f 9 10 26
f 26 10 9
f 9 26 25
f 25 26 9
f 10 11 27
f 27 11 10
f 10 27 26
f 26 27 10
f 11 12 28
f 28 12 11
f 11 28 27
f 27 28 11
f 12 13 29
f 29 13 12
f 12 29 28
f 28 29 12
f 13 14 30
f 30 14 13
f 13 30 29
f 29 30 13
f 14 15 31
f 31 15 14
f 14 31 30
f 30 31 14
f 15 16 32
f 32 16 15
f 15 32 31
f 31 32 15
f 16 1 17
f 17 1 16
f 16 17 32
f 32 17 16
v 2.373909 3.430000 -0.000000
v 2.193206 3.430000 -0.908456
v 1.678607 3.430000 -1.678607
v 0.908456 3.430000 -2.193206
v 0.000000 3.430000 -2.373909
v -0.908456 3.430000 -2.193206
v -1.678607 3.430000 -1.678607
v -2.193206 3.430000 -0.908456
v -2.373909 3.430000 -0.000000
v -2.193206 3.430000 0.908456
v -1.678607 3.430000 1.678607
v -0.908456 3.430000 2.193206
v -0.000000 3.430000 2.373909
v 0.908456 3.430000 2.193206
v 1.678607 3.430000 1.678607
v 2.193206 3.430000 0.908456
v 1.420000 3.430000 -0.000000
v 1.311909 3.430000 -0.543410
v 1.004092 3.430000 -1.004092
v 0.543410 3.430000 -1.311909
v 0.000000 3.430000 -1.420000
v -0.543410 3.430000 -1.311909
v -1.004092 3.430000 -1.004092
v -1.311909 3.430000 -0.543410
v -1.420000 3.430000 -0.000000
v -1.311909 3.430000 0.543410
v -1.004092 3.430000 1.004092
v -0.543410 3.430000 1.311909
v -0.000000 3.430000 1.420000
v 0.543410 3.430000 1.311909
v 1.004092 3.430000 1.004092
v 1.311909 3.430000 0.543410
f 33 34 50
f 50 34 33
f 33 50 49
f 49 50 33
f 34 35 51
f 51 35 34
f 34 51 50
f 50 51 34
f 35 36 52
f 52 36 35
f 35 52 51
f 51 52 35
f 36 37 53
f 53 37 36
f 36 53 52
f 52 53 36
f 37 38 54
f 54 38 37
f 37 54 53
f 53 54 37
f 38 39 55
f 55 39 38
f 38 55 54
f 54 55 38
f 39 40 56
f 56 40 39
f 39 56 55
f 55 56 39
f 40 41 57
f 57 41 40
f 40 57 56
f 56 57 40
f 41 42 58
f 58 42 41
f 41 58 57
f 57 58 41
f 42 43 59
f 59 43 42
f 42 59 58
f 58 59 42
f 43 44 60
f 60 44 43
f 43 60 59
f 59 60 43
f 44 45 61
f 61 45 44
f 44 61 60
f 60 61 44
f 45 46 62
f 62 46 45
f 45 62 61
f 61 62 45
f 46 47 63
f 63 47 46
f 46 63 62
f 62 63 46
f 47 48 64
f 64 48 47
f 47 64 63
f 63 64 47
f 48 33 49
f 49 33 48
f 48 49 64
f 64 49 48
v 2.336820 6.830000 -0.000000
v 2.158940 6.830000 -0.894262
v 1.652381 6.830000 -1.652381
v 0.894262 6.830000 -2.158940
v 0.000000 6.830000 -2.336820
v -0.894262 6.830000 -2.158940
v -1.652381 6.830000 -1.652381
v -2.158940 6.830000 -0.894262
v -2.336820 6.830000 -0.000000
v -2.158940 6.830000 0.894262
v -1.652381 6.830000 1.652381
v -0.894262 6.830000 2.158940
v -0.000000 6.830000 2.336820
v 0.894262 6.830000 2.158940
v 1.652381 6.830000 1.652381
v 2.158940 6.830000 0.894262
v 1.420000 6.830000 -0.000000
v 1.311909 6.830000 -0.543410
v 1.004092 6.830000 -1.004092
v 0.543410 6.830000 -1.311909
v 0.000000 6.830000 -1.420000
v -0.543410 6.830000 -1.311909
v -1.004092 6.830000 -1.004092
v -1.311909 6.830000 -0.543410
v -1.420000 6.830000 -0.000000
v -1.311909 6.830000 0.543410
v -1.004092 6.830000 1.004092
v -0.543410 6.830000 1.311909
v -0.000000 6.830000 1.420000
v 0.543410 6.830000 1.311909
v 1.004092 6.830000 1.004092
v 1.311909 6.830000 0.543410
f 65 66 82
f 82 66 65
f 65 82 81
f 81 82 65
f 66 67 83
f 83 67 66
f 66 83 82
f 82 83 66
f 67 68 84
f 84 68 67
f 67 84 83
f 83 84 67
f 68 69 85
f 85 69 68
f 68 85 84
f 84 85 68
f 69 70 86
f 86 70 69
f 69 86 85
f 85 86 69
f 70 71 87
f 87 71 70
f 70 87 86
f 86 87 70
f 71 72 88
f 88 72 71
f 71 88 87
f 87 88 71
f 72 73 89
f 89 73 72
f 72 89 88
f 88 89 72
f 73 74 90
f 90 74 73
f 73 90 89
f 89 90 73
f 74 75 91
f 91 75 74
f 74 91 90
f 90 91 74
f 75 76 92
f 92 76 75
f 75 92 91
f 91 92 75
f 76 77 93
f 93 77 76
f 76 93 92
f 92 93 76
f 77 78 94
f 94 78 77
f 77 94 93
f 93 94 77
f 78 79 95
f 95 79 78
f 78 95 94
f 94 95 78
f 79 80 96
f 96 80 79
f 79 96 95
f 95 96 79
f 80 65 81
f 81 65 80
f 80 81 96
f 96 81 80
