o part_0
v 0.000000 0.000000 1.593714
v 0.796857 0.000000 1.380197
v 1.380197 0.000000 0.796857
v 1.593714 0.000000 0.000000
v 1.380197 0.000000 -0.796857
v 0.796857 0.000000 -1.380197
v 0.000000 0.000000 -1.593714
v -0.796857 0.000000 -1.380197
v -1.380197 0.000000 -0.796857
v -1.593714 0.000000 -0.000000
v -1.380197 0.000000 0.796857
v -0.796857 0.000000 1.380197
v 0.000000 3.503564 1.489166
v 0.744583 3.503564 1.289656
v 1.289656 3.503564 0.744583
v 1.489166 3.503564 0.000000
v 1.289656 3.503564 -0.744583
v 0.744583 3.503564 -1.289656
v 0.000000 3.503564 -1.489166
v -0.744583 3.503564 -1.289656
v -1.289656 3.503564 -0.744583
v -1.489166 3.503564 -0.000000
v -1.289656 3.503564 0.744583
v -0.744583 3.503564 1.289656
f 1 2 14
f 1 14 13
f 2 3 15
f 2 15 14
f 3 4 16
f 3 16 15
f 4 5 17
f 4 17 16
f 5 6 18
f 5 18 17
f 6 7 19
f 6 19 18
f 7 8 20
f 7 20 19
f 8 9 21
f 8 21 20
f 9 10 22
f 9 22 21
f 10 11 23
f 10 23 22
f 11 12 24
f 11 24 23
f 12 1 13
f 12 13 24
o part_1
v 0.000000 3.503564 1.489166
v 0.744583 3.503564 1.289656
v 1.289656 3.503564 0.744583
v 1.489166 3.503564 0.000000
v 1.289656 3.503564 -0.744583
v 0.744583 3.503564 -1.289656
v 0.000000 3.503564 -1.489166
v -0.744583 3.503564 -1.289656
v -1.289656 3.503564 -0.744583
v -1.489166 3.503564 -0.000000
v -1.289656 3.503564 0.744583
v -0.744583 3.503564 1.289656
v 0.000000 7.007129 1.391477
v 0.695739 7.007129 1.205055
v 1.205055 7.007129 0.695739
v 1.391477 7.007129 0.000000
v 1.205055 7.007129 -0.695739
v 0.695739 7.007129 -1.205055
v 0.000000 7.007129 -1.391477
v -0.695739 7.007129 -1.205055
v -1.205055 7.007129 -0.695739
v -1.391477 7.007129 -0.000000
v -1.205055 7.007129 0.695739
v -0.695739 7.007129 1.205055
f 25 26 38
f 25 38 37
f 26 27 39
f 26 39 38
f 27 28 40
f 27 40 39
f 28 29 41
f 28 41 40
f 29 30 42
f 29 42 41
f 30 31 43
f 30 43 42
f 31 32 44
f 31 44 43
f 32 33 45
f 32 45 44
f 33 34 46
f 33 46 45
f 34 35 47
f 34 47 46
f 35 36 48
f 35 48 47
f 36 25 37
f 36 37 48
o part_2
v 0.000000 7.007129 1.391477
v 0.695739 7.007129 1.205055
v 1.205055 7.007129 0.695739
v 1.391477 7.007129 0.000000
v 1.205055 7.007129 -0.695739
v 0.695739 7.007129 -1.205055
v 0.000000 7.007129 -1.391477
v -0.695739 7.007129 -1.205055
v -1.205055 7.007129 -0.695739
v -1.391477 7.007129 -0.000000
v -1.205055 7.007129 0.695739
v -0.695739 7.007129 1.205055
v 0.000000 10.510693 1.300196
v 0.650098 10.510693 1.126003
v 1.126003 10.510693 0.650098
v 1.300196 10.510693 0.000000
v 1.126003 10.510693 -0.650098
v 0.650098 10.510693 -1.126003
v 0.000000 10.510693 -1.300196
v -0.650098 10.510693 -1.126003
v -1.126003 10.510693 -0.650098
v -1.300196 10.510693 -0.000000
v -1.126003 10.510693 0.650098
v -0.650098 10.510693 1.126003
f 49 50 62
f 49 62 61
f 50 51 63
f 50 63 62
f 51 52 64
f 51 64 63
f 52 53 65
f 52 65 64
f 53 54 66
f 53 66 65
f 54 55 67
f 54 67 66
f 55 56 68
f 55 68 67
f 56 57 69
f 56 69 68
f 57 58 70
f 57 70 69
f 58 59 71
f 58 71 70
f 59 60 72
f 59 72 71
f 60 49 61
f 60 61 72
o part_3
v 0.000000 10.510693 1.300196
v 0.650098 10.510693 1.126003
v 1.126003 10.510693 0.650098
v 1.300196 10.510693 0.000000
v 1.126003 10.510693 -0.650098
v 0.650098 10.510693 -1.126003
v 0.000000 10.510693 -1.300196
v -0.650098 10.510693 -1.126003
v -1.126003 10.510693 -0.650098
v -1.300196 10.510693 -0.000000
v -1.126003 10.510693 0.650098
v -0.650098 10.510693 1.126003
v 0.000000 14.014257 1.214903
v 0.607452 14.014257 1.052137
v 1.052137 14.014257 0.607452
v 1.214903 14.014257 0.000000
v 1.052137 14.014257 -0.607452
v 0.607452 14.014257 -1.052137
v 0.000000 14.014257 -1.214903
v -0.607452 14.014257 -1.052137
v -1.052137 14.014257 -0.607452
v -1.214903 14.014257 -0.000000
v -1.052137 14.014257 0.607452
v -0.607452 14.014257 1.052137
f 73 74 86
f 73 86 85
f 74 75 87
f 74 87 86
f 75 76 88
f 75 88 87
f 76 77 89
f 76 89 88
f 77 78 90
f 77 90 89
f 78 79 91
f 78 91 90
f 79 80 92
f 79 92 91
f 80 81 93
f 80 93 92
f 81 82 94
f 81 94 93
f 82 83 95
f 82 95 94
f 83 84 96
f 83 96 95
f 84 73 85
f 84 85 96
o part_4
v 1.457884 14.014257 -0.000000
v 1.264465 14.014257 -0.730039
v 0.730039 14.014257 -1.264465
v 0.000000 14.014257 -1.457884
v -0.730039 14.014257 -1.264465
v -1.264465 14.014257 -0.730039
v -1.457884 14.014257 -0.000000
v -1.264465 14.014257 0.730039
v -0.730039 14.014257 1.264465
v -0.000000 14.014257 1.457884
v 0.730039 14.014257 1.264465
v 1.264465 14.014257 0.730039
v 0.000000 17.349682 -0.000000
f 97 98 109
f 98 99 109
f 99 100 109
f 100 101 109
f 101 102 109
f 102 103 109
f 103 104 109
f 104 105 109
f 105 106 109
f 106 107 109
f 107 108 109
f 108 97 109
