o mesh
v 0.000000 -0.000135 0.010999 0.200 0.440 0.170
v 0.009525 -0.000220 0.005498 0.200 0.440 0.170
v 0.009525 -0.000085 -0.005501 0.200 0.440 0.170
v 0.000000 0.000135 -0.010999 0.200 0.440 0.170
v -0.009525 0.000220 -0.005498 0.200 0.440 0.170
v -0.009525 0.000085 0.005501 0.200 0.440 0.170
v 0.008825 0.551561 0.014787 0.200 0.440 0.170
v 0.015753 0.551499 0.010786 0.200 0.440 0.170
v 0.015753 0.551597 0.002786 0.200 0.440 0.170
v 0.008825 0.551757 -0.001212 0.200 0.440 0.170
v 0.001898 0.551819 0.002789 0.200 0.440 0.170
v 0.001898 0.551721 0.010788 0.200 0.440 0.170
f 1 2 8
f 1 8 7
f 2 3 9
f 2 9 8
f 3 4 10
f 3 10 9
f 4 5 11
f 4 11 10
f 5 6 12
f 5 12 11
f 6 1 7
f 6 7 12
v 0.008825 0.563659 0.077698 0.955 0.876 0.392
v 0.014734 0.562878 0.074330 0.955 0.876 0.392
v 0.019954 0.561969 0.069900 0.955 0.876 0.392
v 0.024567 0.561191 0.065536 0.955 0.876 0.392
v 0.028740 0.560588 0.061501 0.955 0.876 0.392
v 0.032638 0.560158 0.057853 0.955 0.876 0.392
v 0.036412 0.559895 0.054568 0.955 0.876 0.392
v 0.040196 0.559788 0.051589 0.955 0.876 0.392
v 0.044113 0.559833 0.048842 0.955 0.876 0.392
v 0.048276 0.560034 0.046238 0.955 0.876 0.392
v 0.052786 0.560395 0.043675 0.955 0.876 0.392
v 0.057727 0.560928 0.041029 0.955 0.876 0.392
v 0.063131 0.561638 0.038141 0.955 0.876 0.392
v 0.068905 0.562506 0.034803 0.955 0.876 0.392
v 0.074544 0.563413 0.030707 0.955 0.876 0.392
v 0.075729 0.563243 0.024714 0.955 0.876 0.392
v 0.073372 0.562322 0.018169 0.955 0.876 0.392
v 0.070642 0.561482 0.012196 0.955 0.876 0.392
v 0.068004 0.560808 0.006787 0.955 0.876 0.392
v 0.065620 0.560310 0.001818 0.955 0.876 0.392
v 0.063539 0.559981 -0.002860 0.955 0.876 0.392
v 0.061761 0.559812 -0.007397 0.955 0.876 0.392
v 0.060259 0.559797 -0.011933 0.955 0.876 0.392
v 0.058990 0.559935 -0.016605 0.955 0.876 0.392
v 0.057898 0.560231 -0.021545 0.955 0.876 0.392
v 0.056899 0.560694 -0.026875 0.955 0.876 0.392
v 0.055879 0.561333 -0.032695 0.955 0.876 0.392
v 0.054650 0.562143 -0.039038 0.955 0.876 0.392
v 0.052885 0.563063 -0.045721 0.955 0.876 0.392
v 0.049276 0.563561 -0.050982 0.955 0.876 0.392
v 0.042348 0.562692 -0.051277 0.955 0.876 0.392
v 0.035613 0.561800 -0.050660 0.955 0.876 0.392
v 0.029430 0.561056 -0.049825 0.955 0.876 0.392
v 0.023783 0.560488 -0.049036 0.955 0.876 0.392
v 0.018559 0.560093 -0.048415 0.955 0.876 0.392
v 0.013621 0.559861 -0.048025 0.955 0.876 0.392
v 0.008825 0.559784 -0.047892 0.955 0.876 0.392
v 0.004030 0.559861 -0.048025 0.955 0.876 0.392
v -0.000909 0.560093 -0.048415 0.955 0.876 0.392
v -0.006132 0.560488 -0.049036 0.955 0.876 0.392
v -0.011780 0.561056 -0.049825 0.955 0.876 0.392
v -0.017963 0.561800 -0.050660 0.955 0.876 0.392
v -0.024698 0.562692 -0.051277 0.955 0.876 0.392
v -0.031625 0.563561 -0.050982 0.955 0.876 0.392
v -0.035235 0.563063 -0.045721 0.955 0.876 0.392
v -0.037000 0.562143 -0.039038 0.955 0.876 0.392
v -0.038228 0.561333 -0.032695 0.955 0.876 0.392
v -0.039249 0.560694 -0.026875 0.955 0.876 0.392
v -0.040247 0.560231 -0.021545 0.955 0.876 0.392
v -0.041340 0.559935 -0.016605 0.955 0.876 0.392
v -0.042608 0.559797 -0.011933 0.955 0.876 0.392
v -0.044110 0.559812 -0.007397 0.955 0.876 0.392
v -0.045888 0.559981 -0.002860 0.955 0.876 0.392
v -0.047969 0.560310 0.001818 0.955 0.876 0.392
v -0.050353 0.560808 0.006787 0.955 0.876 0.392
v -0.052992 0.561482 0.012196 0.955 0.876 0.392
v -0.055722 0.562322 0.018169 0.955 0.876 0.392
v -0.058079 0.563243 0.024714 0.955 0.876 0.392
v -0.056894 0.563413 0.030707 0.955 0.876 0.392
v -0.051255 0.562506 0.034803 0.955 0.876 0.392
v -0.045481 0.561638 0.038141 0.955 0.876 0.392
v -0.040077 0.560928 0.041029 0.955 0.876 0.392
v -0.035136 0.560395 0.043675 0.955 0.876 0.392
v -0.030626 0.560034 0.046238 0.955 0.876 0.392
v -0.026463 0.559833 0.048842 0.955 0.876 0.392
v -0.022546 0.559788 0.051589 0.955 0.876 0.392
v -0.018761 0.559895 0.054568 0.955 0.876 0.392
v -0.014987 0.560158 0.057853 0.955 0.876 0.392
v -0.011089 0.560588 0.061501 0.955 0.876 0.392
v -0.006916 0.561191 0.065536 0.955 0.876 0.392
v -0.002303 0.561969 0.069900 0.955 0.876 0.392
v 0.002916 0.562878 0.074330 0.955 0.876 0.392
v 0.008825 0.551659 0.006787 0.955 0.876 0.392
f 85 13 14
f 85 14 13
f 85 14 15
f 85 15 14
f 85 15 16
f 85 16 15
f 85 16 17
f 85 17 16
f 85 17 18
f 85 18 17
f 85 18 19
f 85 19 18
f 85 19 20
f 85 20 19
f 85 20 21
f 85 21 20
f 85 21 22
f 85 22 21
f 85 22 23
f 85 23 22
f 85 23 24
f 85 24 23
f 85 24 25
f 85 25 24
f 85 25 26
f 85 26 25
f 85 26 27
f 85 27 26
f 85 27 28
f 85 28 27
f 85 28 29
f 85 29 28
f 85 29 30
f 85 30 29
f 85 30 31
f 85 31 30
f 85 31 32
f 85 32 31
f 85 32 33
f 85 33 32
f 85 33 34
f 85 34 33
f 85 34 35
f 85 35 34
f 85 35 36
f 85 36 35
f 85 36 37
f 85 37 36
f 85 37 38
f 85 38 37
f 85 38 39
f 85 39 38
f 85 39 40
f 85 40 39
f 85 40 41
f 85 41 40
f 85 41 42
f 85 42 41
f 85 42 43
f 85 43 42
f 85 43 44
f 85 44 43
f 85 44 45
f 85 45 44
f 85 45 46
f 85 46 45
f 85 46 47
f 85 47 46
f 85 47 48
f 85 48 47
f 85 48 49
f 85 49 48
f 85 49 50
f 85 50 49
f 85 50 51
f 85 51 50
f 85 51 52
f 85 52 51
f 85 52 53
f 85 53 52
f 85 53 54
f 85 54 53
f 85 54 55
f 85 55 54
f 85 55 56
f 85 56 55
f 85 56 57
f 85 57 56
f 85 57 58
f 85 58 57
f 85 58 59
f 85 59 58
f 85 59 60
f 85 60 59
f 85 60 61
f 85 61 60
f 85 61 62
f 85 62 61
f 85 62 63
f 85 63 62
f 85 63 64
f 85 64 63
f 85 64 65
f 85 65 64
f 85 65 66
f 85 66 65
f 85 66 67
f 85 67 66
f 85 67 68
f 85 68 67
f 85 68 69
f 85 69 68
f 85 69 70
f 85 70 69
f 85 70 71
f 85 71 70
f 85 71 72
f 85 72 71
f 85 72 73
f 85 73 72
f 85 73 74
f 85 74 73
f 85 74 75
f 85 75 74
f 85 75 76
f 85 76 75
f 85 76 77
f 85 77 76
f 85 77 78
f 85 78 77
f 85 78 79
f 85 79 78
f 85 79 80
f 85 80 79
f 85 80 81
f 85 81 80
f 85 81 82
f 85 82 81
f 85 82 83
f 85 83 82
f 85 83 84
f 85 84 83
f 85 84 13
f 85 13 84
v 0.045371 0.578059 0.050176 0.960 0.891 0.465
v 0.047251 0.576341 0.045070 0.960 0.891 0.465
v 0.048161 0.574341 0.039669 0.960 0.891 0.465
v 0.048735 0.572630 0.034621 0.960 0.891 0.465
v 0.049209 0.571302 0.030002 0.960 0.891 0.465
v 0.049713 0.570358 0.025761 0.960 0.891 0.465
v 0.050330 0.569777 0.021806 0.960 0.891 0.465
v 0.051110 0.569542 0.018033 0.960 0.891 0.465
v 0.052091 0.569643 0.014333 0.960 0.891 0.465
v 0.053296 0.570083 0.010594 0.960 0.891 0.465
v 0.054735 0.570879 0.006701 0.960 0.891 0.465
v 0.056394 0.572052 0.002536 0.960 0.891 0.465
v 0.058213 0.573613 -0.002016 0.960 0.891 0.465
v 0.060025 0.575522 -0.007034 0.960 0.891 0.465
v 0.061364 0.577517 -0.012447 0.960 0.891 0.465
v 0.059001 0.577145 -0.016724 0.960 0.891 0.465
v 0.054185 0.575119 -0.019515 0.960 0.891 0.465
v 0.049437 0.573270 -0.021762 0.960 0.891 0.465
v 0.045035 0.571786 -0.023712 0.960 0.891 0.465
v 0.041015 0.570691 -0.025523 0.960 0.891 0.465
v 0.037331 0.569967 -0.027314 0.960 0.891 0.465
v 0.033905 0.569596 -0.029173 0.960 0.891 0.465
v 0.030648 0.569562 -0.031175 0.960 0.891 0.465
v 0.027464 0.569865 -0.033380 0.960 0.891 0.465
v 0.024250 0.570517 -0.035839 0.960 0.891 0.465
v 0.020892 0.571536 -0.038586 0.960 0.891 0.465
v 0.017268 0.572942 -0.041621 0.960 0.891 0.465
v 0.013247 0.574724 -0.044869 0.960 0.891 0.465
v 0.008723 0.576749 -0.048049 0.960 0.891 0.465
v 0.003803 0.577843 -0.049408 0.960 0.891 0.465
v -0.000587 0.575931 -0.046017 0.960 0.891 0.465
v -0.004391 0.573970 -0.042169 0.960 0.891 0.465
v -0.007744 0.572333 -0.038472 0.960 0.891 0.465
v -0.010792 0.571083 -0.035078 0.960 0.891 0.465
v -0.013669 0.570213 -0.032006 0.960 0.891 0.465
v -0.016489 0.569703 -0.029222 0.960 0.891 0.465
v -0.019355 0.569535 -0.026670 0.960 0.891 0.465
v -0.022358 0.569703 -0.024280 0.960 0.891 0.465
v -0.025581 0.570213 -0.021973 0.960 0.891 0.465
v -0.029097 0.571083 -0.019660 0.960 0.891 0.465
v -0.032959 0.572333 -0.017233 0.960 0.891 0.465
v -0.037172 0.573970 -0.014557 0.960 0.891 0.465
v -0.041611 0.575931 -0.011464 0.960 0.891 0.465
v -0.045698 0.577843 -0.007713 0.960 0.891 0.465
v -0.045195 0.576749 -0.002634 0.960 0.891 0.465
v -0.042831 0.574724 0.002365 0.960 0.891 0.465
v -0.040314 0.572942 0.006879 0.960 0.891 0.465
v -0.037939 0.571536 0.010967 0.960 0.891 0.465
v -0.035802 0.570517 0.014742 0.960 0.891 0.465
v -0.033925 0.569865 0.018328 0.960 0.891 0.465
v -0.032293 0.569562 0.021840 0.960 0.891 0.465
v -0.030875 0.569596 0.025390 0.960 0.891 0.465
v -0.029625 0.569967 0.029082 0.960 0.891 0.465
v -0.028487 0.570691 0.033017 0.960 0.891 0.465
v -0.027385 0.571786 0.037286 0.960 0.891 0.465
v -0.026212 0.573270 0.041955 0.960 0.891 0.465
v -0.024804 0.575119 0.047017 0.960 0.891 0.465
v -0.022873 0.577145 0.052237 0.960 0.891 0.465
v -0.019059 0.577517 0.055293 0.960 0.891 0.465
v -0.013498 0.575522 0.054893 0.960 0.891 0.465
v -0.008244 0.573613 0.053960 0.960 0.891 0.465
v -0.003449 0.572052 0.052941 0.960 0.891 0.465
v 0.000938 0.570879 0.052014 0.960 0.891 0.465
v 0.005018 0.570083 0.051258 0.960 0.891 0.465
v 0.008907 0.569643 0.050706 0.960 0.891 0.465
v 0.012720 0.569542 0.050368 0.960 0.891 0.465
v 0.016571 0.569777 0.050240 0.960 0.891 0.465
v 0.020573 0.570358 0.050305 0.960 0.891 0.465
v 0.024838 0.571302 0.050529 0.960 0.891 0.465
v 0.029471 0.572630 0.050847 0.960 0.891 0.465
v 0.034543 0.574341 0.051140 0.960 0.891 0.465
v 0.040019 0.576341 0.051160 0.960 0.891 0.465
v 0.008825 0.551659 0.006787 0.960 0.891 0.465
f 158 86 87
f 158 87 86
f 158 87 88
f 158 88 87
f 158 88 89
f 158 89 88
f 158 89 90
f 158 90 89
f 158 90 91
f 158 91 90
f 158 91 92
f 158 92 91
f 158 92 93
f 158 93 92
f 158 93 94
f 158 94 93
f 158 94 95
f 158 95 94
f 158 95 96
f 158 96 95
f 158 96 97
f 158 97 96
f 158 97 98
f 158 98 97
f 158 98 99
f 158 99 98
f 158 99 100
f 158 100 99
f 158 100 101
f 158 101 100
f 158 101 102
f 158 102 101
f 158 102 103
f 158 103 102
f 158 103 104
f 158 104 103
f 158 104 105
f 158 105 104
f 158 105 106
f 158 106 105
f 158 106 107
f 158 107 106
f 158 107 108
f 158 108 107
f 158 108 109
f 158 109 108
f 158 109 110
f 158 110 109
f 158 110 111
f 158 111 110
f 158 111 112
f 158 112 111
f 158 112 113
f 158 113 112
f 158 113 114
f 158 114 113
f 158 114 115
f 158 115 114
f 158 115 116
f 158 116 115
f 158 116 117
f 158 117 116
f 158 117 118
f 158 118 117
f 158 118 119
f 158 119 118
f 158 119 120
f 158 120 119
f 158 120 121
f 158 121 120
f 158 121 122
f 158 122 121
f 158 122 123
f 158 123 122
f 158 123 124
f 158 124 123
f 158 124 125
f 158 125 124
f 158 125 126
f 158 126 125
f 158 126 127
f 158 127 126
f 158 127 128
f 158 128 127
f 158 128 129
f 158 129 128
f 158 129 130
f 158 130 129
f 158 130 131
f 158 131 130
f 158 131 132
f 158 132 131
f 158 132 133
f 158 133 132
f 158 133 134
f 158 134 133
f 158 134 135
f 158 135 134
f 158 135 136
f 158 136 135
f 158 136 137
f 158 137 136
f 158 137 138
f 158 138 137
f 158 138 139
f 158 139 138
f 158 139 140
f 158 140 139
f 158 140 141
f 158 141 140
f 158 141 142
f 158 142 141
f 158 142 143
f 158 143 142
f 158 143 144
f 158 144 143
f 158 144 145
f 158 145 144
f 158 145 146
f 158 146 145
f 158 146 147
f 158 147 146
f 158 147 148
f 158 148 147
f 158 148 149
f 158 149 148
f 158 149 150
f 158 150 149
f 158 150 151
f 158 151 150
f 158 151 152
f 158 152 151
f 158 152 153
f 158 153 152
f 158 153 154
f 158 154 153
f 158 154 155
f 158 155 154
f 158 155 156
f 158 156 155
f 158 156 157
f 158 157 156
f 158 157 86
f 158 86 157
v 0.053548 0.592459 0.014501 0.966 0.906 0.538
v 0.052067 0.589805 0.010408 0.966 0.906 0.538
v 0.049840 0.586713 0.006634 0.966 0.906 0.538
v 0.047590 0.584069 0.003250 0.966 0.906 0.538
v 0.045499 0.582016 0.000179 0.966 0.906 0.538
v 0.043622 0.580557 -0.002676 0.966 0.906 0.538
v 0.041961 0.579660 -0.005414 0.966 0.906 0.538
v 0.040494 0.579296 -0.008124 0.966 0.906 0.538
v 0.039187 0.579452 -0.010894 0.966 0.906 0.538
v 0.037998 0.580133 -0.013802 0.966 0.906 0.538
v 0.036872 0.581363 -0.016926 0.966 0.906 0.538
v 0.035740 0.583175 -0.020330 0.966 0.906 0.538
v 0.034507 0.585588 -0.024052 0.966 0.906 0.538
v 0.033030 0.588538 -0.028057 0.966 0.906 0.538
v 0.031060 0.591621 -0.032059 0.966 0.906 0.538
v 0.027409 0.591046 -0.033458 0.966 0.906 0.538
v 0.023025 0.587915 -0.032684 0.966 0.906 0.538
v 0.018961 0.585058 -0.031612 0.966 0.906 0.538
v 0.015263 0.582765 -0.030536 0.966 0.906 0.538
v 0.011869 0.581072 -0.029573 0.966 0.906 0.538
v 0.008692 0.579954 -0.028769 0.966 0.906 0.538
v 0.005638 0.579379 -0.028141 0.966 0.906 0.538
v 0.002613 0.579327 -0.027688 0.966 0.906 0.538
v -0.000471 0.579796 -0.027396 0.966 0.906 0.538
v -0.003705 0.580803 -0.027244 0.966 0.906 0.538
v -0.007175 0.582378 -0.027194 0.966 0.906 0.538
v -0.010957 0.584552 -0.027184 0.966 0.906 0.538
v -0.015091 0.587306 -0.027099 0.966 0.906 0.538
v -0.019498 0.590434 -0.026713 0.966 0.906 0.538
v -0.023209 0.592125 -0.025009 0.966 0.906 0.538
v -0.024148 0.589170 -0.020672 0.966 0.906 0.538
v -0.024492 0.586140 -0.016357 0.966 0.906 0.538
v -0.024638 0.583610 -0.012366 0.966 0.906 0.538
v -0.024755 0.581678 -0.008719 0.966 0.906 0.538
v -0.024932 0.580334 -0.005357 0.966 0.906 0.538
v -0.025223 0.579545 -0.002200 0.966 0.906 0.538
v -0.025661 0.579286 0.000839 0.966 0.906 0.538
v -0.026266 0.579545 0.003849 0.966 0.906 0.538
v -0.027049 0.580334 0.006921 0.966 0.906 0.538
v -0.028009 0.581678 0.010149 0.966 0.906 0.538
v -0.029121 0.583610 0.013624 0.966 0.906 0.538
v -0.030320 0.586140 0.017433 0.966 0.906 0.538
v -0.031442 0.589170 0.021614 0.966 0.906 0.538
v -0.032009 0.592125 0.026015 0.966 0.906 0.538
v -0.029084 0.590434 0.028863 0.966 0.906 0.538
v -0.025061 0.587306 0.030704 0.966 0.906 0.538
v -0.021194 0.584552 0.032168 0.966 0.906 0.538
v -0.017634 0.582378 0.033445 0.966 0.906 0.538
v -0.014381 0.580803 0.034655 0.966 0.906 0.538
v -0.011385 0.579796 0.035881 0.966 0.906 0.538
v -0.008576 0.579327 0.037189 0.966 0.906 0.538
v -0.005879 0.579379 0.038630 0.966 0.906 0.538
v -0.003211 0.579954 0.040245 0.966 0.906 0.538
v -0.000487 0.581072 0.042066 0.966 0.906 0.538
v 0.002388 0.582765 0.044111 0.966 0.906 0.538
v 0.005512 0.585058 0.046363 0.966 0.906 0.538
v 0.008982 0.587915 0.048734 0.966 0.906 0.538
v 0.012854 0.591046 0.050933 0.966 0.906 0.538
v 0.016762 0.591621 0.050837 0.966 0.906 0.538
v 0.019959 0.588538 0.047727 0.966 0.906 0.538
v 0.022692 0.585588 0.044448 0.966 0.906 0.538
v 0.025101 0.583175 0.041354 0.966 0.906 0.538
v 0.027308 0.581363 0.038526 0.966 0.906 0.538
v 0.029415 0.580133 0.035960 0.966 0.906 0.538
v 0.031510 0.579452 0.033618 0.966 0.906 0.538
v 0.033669 0.579296 0.031446 0.966 0.906 0.538
v 0.035959 0.579660 0.029383 0.966 0.906 0.538
v 0.038442 0.580557 0.027360 0.966 0.906 0.538
v 0.041166 0.582016 0.025299 0.966 0.906 0.538
v 0.044165 0.584069 0.023106 0.966 0.906 0.538
v 0.047419 0.586713 0.020671 0.966 0.906 0.538
v 0.050781 0.589805 0.017861 0.966 0.906 0.538
v 0.008825 0.551659 0.006787 0.966 0.906 0.538
f 231 159 160
f 231 160 159
f 231 160 161
f 231 161 160
f 231 161 162
f 231 162 161
f 231 162 163
f 231 163 162
f 231 163 164
f 231 164 163
f 231 164 165
f 231 165 164
f 231 165 166
f 231 166 165
f 231 166 167
f 231 167 166
f 231 167 168
f 231 168 167
f 231 168 169
f 231 169 168
f 231 169 170
f 231 170 169
f 231 170 171
f 231 171 170
f 231 171 172
f 231 172 171
f 231 172 173
f 231 173 172
f 231 173 174
f 231 174 173
f 231 174 175
f 231 175 174
f 231 175 176
f 231 176 175
f 231 176 177
f 231 177 176
f 231 177 178
f 231 178 177
f 231 178 179
f 231 179 178
f 231 179 180
f 231 180 179
f 231 180 181
f 231 181 180
f 231 181 182
f 231 182 181
f 231 182 183
f 231 183 182
f 231 183 184
f 231 184 183
f 231 184 185
f 231 185 184
f 231 185 186
f 231 186 185
f 231 186 187
f 231 187 186
f 231 187 188
f 231 188 187
f 231 188 189
f 231 189 188
f 231 189 190
f 231 190 189
f 231 190 191
f 231 191 190
f 231 191 192
f 231 192 191
f 231 192 193
f 231 193 192
f 231 193 194
f 231 194 193
f 231 194 195
f 231 195 194
f 231 195 196
f 231 196 195
f 231 196 197
f 231 197 196
f 231 197 198
f 231 198 197
f 231 198 199
f 231 199 198
f 231 199 200
f 231 200 199
f 231 200 201
f 231 201 200
f 231 201 202
f 231 202 201
f 231 202 203
f 231 203 202
f 231 203 204
f 231 204 203
f 231 204 205
f 231 205 204
f 231 205 206
f 231 206 205
f 231 206 207
f 231 207 206
f 231 207 208
f 231 208 207
f 231 208 209
f 231 209 208
f 231 209 210
f 231 210 209
f 231 210 211
f 231 211 210
f 231 211 212
f 231 212 211
f 231 212 213
f 231 213 212
f 231 213 214
f 231 214 213
f 231 214 215
f 231 215 214
f 231 215 216
f 231 216 215
f 231 216 217
f 231 217 216
f 231 217 218
f 231 218 217
f 231 218 219
f 231 219 218
f 231 219 220
f 231 220 219
f 231 220 221
f 231 221 220
f 231 221 222
f 231 222 221
f 231 222 223
f 231 223 222
f 231 223 224
f 231 224 223
f 231 224 225
f 231 225 224
f 231 225 226
f 231 226 225
f 231 226 227
f 231 227 226
f 231 227 228
f 231 228 227
f 231 228 229
f 231 229 228
f 231 229 230
f 231 230 229
f 231 230 159
f 231 159 230
v 0.040165 0.606859 -0.011542 0.971 0.921 0.611
v 0.037149 0.603268 -0.013283 0.971 0.921 0.611
v 0.033842 0.599085 -0.014445 0.971 0.921 0.611
v 0.030721 0.595507 -0.015355 0.971 0.921 0.611
v 0.027859 0.592731 -0.016157 0.971 0.921 0.611
v 0.025239 0.590757 -0.016936 0.971 0.921 0.611
v 0.022812 0.589543 -0.017755 0.971 0.921 0.611
v 0.020517 0.589050 -0.018658 0.971 0.921 0.611
v 0.018291 0.589261 -0.019679 0.971 0.921 0.611
v 0.016064 0.590183 -0.020846 0.971 0.921 0.611
v 0.013765 0.591847 -0.022177 0.971 0.921 0.611
v 0.011318 0.594298 -0.023676 0.971 0.921 0.611
v 0.008645 0.597563 -0.025318 0.971 0.921 0.611
v 0.005678 0.601554 -0.027008 0.971 0.921 0.611
v 0.002410 0.605725 -0.028441 0.971 0.921 0.611
v -0.000545 0.604947 -0.027416 0.971 0.921 0.611
v -0.002829 0.600711 -0.024682 0.971 0.921 0.611
v -0.004763 0.596846 -0.021931 0.971 0.921 0.611
v -0.006471 0.593743 -0.019368 0.971 0.921 0.611
v -0.008051 0.591453 -0.017029 0.971 0.921 0.611
v -0.009581 0.589940 -0.014900 0.971 0.921 0.611
v -0.011126 0.589163 -0.012942 0.971 0.921 0.611
v -0.012743 0.589092 -0.011106 0.971 0.921 0.611
v -0.014480 0.589727 -0.009337 0.971 0.921 0.611
v -0.016381 0.591089 -0.007578 0.971 0.921 0.611
v -0.018478 0.593221 -0.005759 0.971 0.921 0.611
v -0.020787 0.596161 -0.003803 0.971 0.921 0.611
v -0.023273 0.599887 -0.001621 0.971 0.921 0.611
v -0.025770 0.604120 0.000887 0.971 0.921 0.611
v -0.027162 0.606407 0.003842 0.971 0.921 0.611
v -0.025502 0.602409 0.006980 0.971 0.921 0.611
v -0.023489 0.598310 0.009797 0.971 0.921 0.611
v -0.021521 0.594886 0.012314 0.971 0.921 0.611
v -0.019713 0.592273 0.014606 0.971 0.921 0.611
v -0.018088 0.590455 0.016754 0.971 0.921 0.611
v -0.016639 0.589388 0.018836 0.971 0.921 0.611
v -0.015341 0.589036 0.020921 0.971 0.921 0.611
v -0.014160 0.589388 0.023075 0.971 0.921 0.611
v -0.013056 0.590455 0.025358 0.971 0.921 0.611
v -0.011980 0.592273 0.027827 0.971 0.921 0.611
v -0.010869 0.594886 0.030527 0.971 0.921 0.611
v -0.009640 0.598310 0.033476 0.971 0.921 0.611
v -0.008172 0.602409 0.036612 0.971 0.921 0.611
v -0.006251 0.606407 0.039597 0.971 0.921 0.611
v -0.002993 0.604120 0.039833 0.971 0.921 0.611
v 0.000417 0.599887 0.038885 0.971 0.921 0.611
v 0.003538 0.596161 0.037789 0.971 0.921 0.611
v 0.006374 0.593221 0.036735 0.971 0.921 0.611
v 0.008988 0.591089 0.035799 0.971 0.921 0.611
v 0.011453 0.589727 0.035005 0.971 0.921 0.611
v 0.013846 0.589092 0.034358 0.971 0.921 0.611
v 0.016239 0.589163 0.033849 0.971 0.921 0.611
v 0.018704 0.589940 0.033462 0.971 0.921 0.611
v 0.021309 0.591453 0.033173 0.971 0.921 0.611
v 0.024122 0.593743 0.032942 0.971 0.921 0.611
v 0.027194 0.596846 0.032710 0.971 0.921 0.611
v 0.030540 0.600711 0.032373 0.971 0.921 0.611
v 0.034042 0.604947 0.031723 0.971 0.921 0.611
v 0.036384 0.605725 0.029650 0.971 0.921 0.611
v 0.036737 0.601554 0.026099 0.971 0.921 0.611
v 0.036720 0.597563 0.022684 0.971 0.921 0.611
v 0.036599 0.594298 0.019549 0.971 0.921 0.611
v 0.036491 0.591847 0.016682 0.971 0.921 0.611
v 0.036458 0.590183 0.014026 0.971 0.921 0.611
v 0.036533 0.589261 0.011513 0.971 0.921 0.611
v 0.036735 0.589050 0.009071 0.971 0.921 0.611
v 0.037073 0.589543 0.006629 0.971 0.921 0.611
v 0.037549 0.590757 0.004112 0.971 0.921 0.611
v 0.038154 0.592731 0.001446 0.971 0.921 0.611
v 0.038859 0.595507 -0.001441 0.971 0.921 0.611
v 0.039595 0.599085 -0.004608 0.971 0.921 0.611
v 0.040204 0.603268 -0.008060 0.971 0.921 0.611
v 0.008825 0.551659 0.006787 0.971 0.921 0.611
f 304 232 233
f 304 233 232
f 304 233 234
f 304 234 233
f 304 234 235
f 304 235 234
f 304 235 236
f 304 236 235
f 304 236 237
f 304 237 236
f 304 237 238
f 304 238 237
f 304 238 239
f 304 239 238
f 304 239 240
f 304 240 239
f 304 240 241
f 304 241 240
f 304 241 242
f 304 242 241
f 304 242 243
f 304 243 242
f 304 243 244
f 304 244 243
f 304 244 245
f 304 245 244
f 304 245 246
f 304 246 245
f 304 246 247
f 304 247 246
f 304 247 248
f 304 248 247
f 304 248 249
f 304 249 248
f 304 249 250
f 304 250 249
f 304 250 251
f 304 251 250
f 304 251 252
f 304 252 251
f 304 252 253
f 304 253 252
f 304 253 254
f 304 254 253
f 304 254 255
f 304 255 254
f 304 255 256
f 304 256 255
f 304 256 257
f 304 257 256
f 304 257 258
f 304 258 257
f 304 258 259
f 304 259 258
f 304 259 260
f 304 260 259
f 304 260 261
f 304 261 260
f 304 261 262
f 304 262 261
f 304 262 263
f 304 263 262
f 304 263 264
f 304 264 263
f 304 264 265
f 304 265 264
f 304 265 266
f 304 266 265
f 304 266 267
f 304 267 266
f 304 267 268
f 304 268 267
f 304 268 269
f 304 269 268
f 304 269 270
f 304 270 269
f 304 270 271
f 304 271 270
f 304 271 272
f 304 272 271
f 304 272 273
f 304 273 272
f 304 273 274
f 304 274 273
f 304 274 275
f 304 275 274
f 304 275 276
f 304 276 275
f 304 276 277
f 304 277 276
f 304 277 278
f 304 278 277
f 304 278 279
f 304 279 278
f 304 279 280
f 304 280 279
f 304 280 281
f 304 281 280
f 304 281 282
f 304 282 281
f 304 282 283
f 304 283 282
f 304 283 284
f 304 284 283
f 304 284 285
f 304 285 284
f 304 285 286
f 304 286 285
f 304 286 287
f 304 287 286
f 304 287 288
f 304 288 287
f 304 288 289
f 304 289 288
f 304 289 290
f 304 290 289
f 304 290 291
f 304 291 290
f 304 291 292
f 304 292 291
f 304 292 293
f 304 293 292
f 304 293 294
f 304 294 293
f 304 294 295
f 304 295 294
f 304 295 296
f 304 296 295
f 304 296 297
f 304 297 296
f 304 297 298
f 304 298 297
f 304 298 299
f 304 299 298
f 304 299 300
f 304 300 299
f 304 300 301
f 304 301 300
f 304 301 302
f 304 302 301
f 304 302 303
f 304 303 302
f 304 303 232
f 304 232 303
v 0.018555 0.621259 -0.020580 0.977 0.936 0.684
v 0.015812 0.616731 -0.020091 0.977 0.936 0.684
v 0.013190 0.611457 -0.019097 0.977 0.936 0.684
v 0.010811 0.606946 -0.018046 0.977 0.936 0.684
v 0.008647 0.603445 -0.017061 0.977 0.936 0.684
v 0.006642 0.600956 -0.016188 0.977 0.936 0.684
v 0.004735 0.599426 -0.015438 0.977 0.936 0.684
v 0.002866 0.598805 -0.014808 0.977 0.936 0.684
v 0.000977 0.599070 -0.014285 0.977 0.936 0.684
v -0.000987 0.600232 -0.013851 0.977 0.936 0.684
v -0.003080 0.602331 -0.013481 0.977 0.936 0.684
v -0.005349 0.605422 -0.013138 0.977 0.936 0.684
v -0.007831 0.609538 -0.012765 0.977 0.936 0.684
v -0.010518 0.614570 -0.012269 0.977 0.936 0.684
v -0.013256 0.619830 -0.011462 0.977 0.936 0.684
v -0.014536 0.618849 -0.009311 0.977 0.936 0.684
v -0.014524 0.613507 -0.006462 0.977 0.936 0.684
v -0.014290 0.608634 -0.003782 0.977 0.936 0.684
v -0.014014 0.604722 -0.001333 0.977 0.936 0.684
v -0.013775 0.601833 0.000912 0.977 0.936 0.684
v -0.013614 0.599927 0.003003 0.977 0.936 0.684
v -0.013551 0.598946 0.004998 0.977 0.936 0.684
v -0.013593 0.598858 0.006955 0.977 0.936 0.684
v -0.013745 0.599658 0.008932 0.977 0.936 0.684
v -0.014001 0.601375 0.010988 0.977 0.936 0.684
v -0.014347 0.604063 0.013182 0.977 0.936 0.684
v -0.014752 0.607770 0.015569 0.977 0.936 0.684
v -0.015148 0.612468 0.018185 0.977 0.936 0.684
v -0.015384 0.617805 0.021007 0.977 0.936 0.684
v -0.014713 0.620690 0.023532 0.977 0.936 0.684
v -0.012080 0.615648 0.024596 0.977 0.936 0.684
v -0.009396 0.610480 0.025282 0.977 0.936 0.684
v -0.006895 0.606163 0.025809 0.977 0.936 0.684
v -0.004607 0.602868 0.026279 0.977 0.936 0.684
v -0.002506 0.600575 0.026756 0.977 0.936 0.684
v -0.000546 0.599230 0.027283 0.977 0.936 0.684
v 0.001323 0.598787 0.027890 0.977 0.936 0.684
v 0.003155 0.599230 0.028599 0.977 0.936 0.684
v 0.005007 0.600575 0.029427 0.977 0.936 0.684
v 0.006938 0.602868 0.030384 0.977 0.936 0.684
v 0.009010 0.606163 0.031463 0.977 0.936 0.684
v 0.011281 0.610480 0.032634 0.977 0.936 0.684
v 0.013796 0.615648 0.033796 0.977 0.936 0.684
v 0.016510 0.620690 0.034633 0.977 0.936 0.684
v 0.018625 0.617805 0.033098 0.977 0.936 0.684
v 0.020223 0.612468 0.030760 0.977 0.936 0.684
v 0.021567 0.607770 0.028481 0.977 0.936 0.684
v 0.022760 0.604063 0.026375 0.977 0.936 0.684
v 0.023876 0.601375 0.024455 0.977 0.936 0.684
v 0.024976 0.599658 0.022698 0.977 0.936 0.684
v 0.026107 0.598858 0.021069 0.977 0.936 0.684
v 0.027309 0.598946 0.019525 0.977 0.936 0.684
v 0.028617 0.599927 0.018018 0.977 0.936 0.684
v 0.030062 0.601833 0.016498 0.977 0.936 0.684
v 0.031664 0.604722 0.014907 0.977 0.936 0.684
v 0.033425 0.608634 0.013182 0.977 0.936 0.684
v 0.035298 0.613507 0.011251 0.977 0.936 0.684
v 0.037106 0.618849 0.009049 0.977 0.936 0.684
v 0.037470 0.619830 0.006573 0.977 0.936 0.684
v 0.035856 0.614570 0.004219 0.977 0.936 0.684
v 0.034086 0.609538 0.002138 0.977 0.936 0.684
v 0.032396 0.605422 0.000282 0.977 0.936 0.684
v 0.030853 0.602331 -0.001417 0.977 0.936 0.684
v 0.029464 0.600232 -0.003025 0.977 0.936 0.684
v 0.028214 0.599070 -0.004601 0.977 0.936 0.684
v 0.027080 0.598805 -0.006199 0.977 0.936 0.684
v 0.026028 0.599426 -0.007868 0.977 0.936 0.684
v 0.025022 0.600956 -0.009653 0.977 0.936 0.684
v 0.024018 0.603445 -0.011596 0.977 0.936 0.684
v 0.022961 0.606946 -0.013726 0.977 0.936 0.684
v 0.021780 0.611457 -0.016043 0.977 0.936 0.684
v 0.020373 0.616731 -0.018469 0.977 0.936 0.684
v 0.008825 0.551659 0.006787 0.977 0.936 0.684
f 377 305 306
f 377 306 305
f 377 306 307
f 377 307 306
f 377 307 308
f 377 308 307
f 377 308 309
f 377 309 308
f 377 309 310
f 377 310 309
f 377 310 311
f 377 311 310
f 377 311 312
f 377 312 311
f 377 312 313
f 377 313 312
f 377 313 314
f 377 314 313
f 377 314 315
f 377 315 314
f 377 315 316
f 377 316 315
f 377 316 317
f 377 317 316
f 377 317 318
f 377 318 317
f 377 318 319
f 377 319 318
f 377 319 320
f 377 320 319
f 377 320 321
f 377 321 320
f 377 321 322
f 377 322 321
f 377 322 323
f 377 323 322
f 377 323 324
f 377 324 323
f 377 324 325
f 377 325 324
f 377 325 326
f 377 326 325
f 377 326 327
f 377 327 326
f 377 327 328
f 377 328 327
f 377 328 329
f 377 329 328
f 377 329 330
f 377 330 329
f 377 330 331
f 377 331 330
f 377 331 332
f 377 332 331
f 377 332 333
f 377 333 332
f 377 333 334
f 377 334 333
f 377 334 335
f 377 335 334
f 377 335 336
f 377 336 335
f 377 336 337
f 377 337 336
f 377 337 338
f 377 338 337
f 377 338 339
f 377 339 338
f 377 339 340
f 377 340 339
f 377 340 341
f 377 341 340
f 377 341 342
f 377 342 341
f 377 342 343
f 377 343 342
f 377 343 344
f 377 344 343
f 377 344 345
f 377 345 344
f 377 345 346
f 377 346 345
f 377 346 347
f 377 347 346
f 377 347 348
f 377 348 347
f 377 348 349
f 377 349 348
f 377 349 350
f 377 350 349
f 377 350 351
f 377 351 350
f 377 351 352
f 377 352 351
f 377 352 353
f 377 353 352
f 377 353 354
f 377 354 353
f 377 354 355
f 377 355 354
f 377 355 356
f 377 356 355
f 377 356 357
f 377 357 356
f 377 357 358
f 377 358 357
f 377 358 359
f 377 359 358
f 377 359 360
f 377 360 359
f 377 360 361
f 377 361 360
f 377 361 362
f 377 362 361
f 377 362 363
f 377 363 362
f 377 363 364
f 377 364 363
f 377 364 365
f 377 365 364
f 377 365 366
f 377 366 365
f 377 366 367
f 377 367 366
f 377 367 368
f 377 368 367
f 377 368 369
f 377 369 368
f 377 369 370
f 377 370 369
f 377 370 371
f 377 371 370
f 377 371 372
f 377 372 371
f 377 372 373
f 377 373 372
f 377 373 374
f 377 374 373
f 377 374 375
f 377 375 374
f 377 375 376
f 377 376 375
f 377 376 305
f 377 305 376
v 0.000674 0.635659 -0.014972 0.982 0.951 0.757
v -0.000752 0.630194 -0.013260 0.982 0.951 0.757
v -0.001844 0.623829 -0.011300 0.982 0.951 0.757
v -0.002758 0.618385 -0.009431 0.982 0.951 0.757
v -0.003575 0.614159 -0.007713 0.982 0.951 0.757
v -0.004352 0.611156 -0.006146 0.982 0.951 0.757
v -0.005132 0.609309 -0.004704 0.982 0.951 0.757
v -0.005951 0.608559 -0.003355 0.982 0.951 0.757
v -0.006837 0.608879 -0.002061 0.982 0.951 0.757
v -0.007815 0.610282 -0.000784 0.982 0.951 0.757
v -0.008905 0.612814 0.000521 0.982 0.951 0.757
v -0.010117 0.616545 0.001901 0.982 0.951 0.757
v -0.011443 0.621513 0.003408 0.982 0.951 0.757
v -0.012831 0.627586 0.005096 0.982 0.951 0.757
v -0.014091 0.633934 0.007001 0.982 0.951 0.757
v -0.013765 0.632750 0.008976 0.982 0.951 0.757
v -0.012290 0.626303 0.010714 0.982 0.951 0.757
v -0.010765 0.620422 0.012233 0.982 0.951 0.757
v -0.009334 0.615700 0.013590 0.982 0.951 0.757
v -0.008031 0.612214 0.014840 0.982 0.951 0.757
v -0.006855 0.609913 0.016037 0.982 0.951 0.757
v -0.005788 0.608730 0.017224 0.982 0.951 0.757
v -0.004806 0.608623 0.018444 0.982 0.951 0.757
v -0.003880 0.609589 0.019732 0.982 0.951 0.757
v -0.002976 0.611662 0.021122 0.982 0.951 0.757
v -0.002057 0.614905 0.022643 0.982 0.951 0.757
v -0.001075 0.619379 0.024311 0.982 0.951 0.757
v 0.000031 0.625049 0.026116 0.982 0.951 0.757
v 0.001341 0.631490 0.027964 0.982 0.951 0.757
v 0.003053 0.634972 0.029164 0.982 0.951 0.757
v 0.005212 0.628887 0.028458 0.982 0.951 0.757
v 0.007208 0.622649 0.027495 0.982 0.951 0.757
v 0.009010 0.617440 0.026528 0.982 0.951 0.757
v 0.010652 0.613463 0.025636 0.982 0.951 0.757
v 0.012184 0.610696 0.024845 0.982 0.951 0.757
v 0.013654 0.609072 0.024158 0.982 0.951 0.757
v 0.015110 0.608538 0.023566 0.982 0.951 0.757
v 0.016597 0.609072 0.023056 0.982 0.951 0.757
v 0.018157 0.610696 0.022608 0.982 0.951 0.757
v 0.019832 0.613463 0.022198 0.982 0.951 0.757
v 0.021655 0.617440 0.021791 0.982 0.951 0.757
v 0.023649 0.622649 0.021336 0.982 0.951 0.757
v 0.025786 0.628887 0.020751 0.982 0.951 0.757
v 0.027878 0.634972 0.019865 0.982 0.951 0.757
v 0.028381 0.631490 0.017835 0.982 0.951 0.757
v 0.028154 0.625049 0.015582 0.982 0.951 0.757
v 0.027802 0.619379 0.013494 0.982 0.951 0.757
v 0.027446 0.614905 0.011591 0.982 0.951 0.757
v 0.027140 0.611662 0.009841 0.982 0.951 0.757
v 0.026908 0.609589 0.008199 0.982 0.951 0.757
v 0.026760 0.608623 0.006620 0.982 0.951 0.757
v 0.026699 0.608730 0.005055 0.982 0.951 0.757
v 0.026723 0.609913 0.003459 0.982 0.951 0.757
v 0.026824 0.612214 0.001784 0.982 0.951 0.757
v 0.026985 0.615700 -0.000015 0.982 0.951 0.757
v 0.027173 0.620422 -0.001978 0.982 0.951 0.757
v 0.027324 0.626303 -0.004125 0.982 0.951 0.757
v 0.027295 0.632750 -0.006404 0.982 0.951 0.757
v 0.026242 0.633934 -0.008107 0.982 0.951 0.757
v 0.024041 0.627586 -0.008716 0.982 0.951 0.757
v 0.021886 0.621513 -0.009076 0.982 0.951 0.757
v 0.019895 0.616545 -0.009341 0.982 0.951 0.757
v 0.018075 0.612814 -0.009585 0.982 0.951 0.757
v 0.016396 0.610282 -0.009853 0.982 0.951 0.757
v 0.014820 0.608879 -0.010174 0.982 0.951 0.757
v 0.013302 0.608559 -0.010567 0.982 0.951 0.757
v 0.011798 0.609309 -0.011046 0.982 0.951 0.757
v 0.010262 0.611156 -0.011620 0.982 0.951 0.757
v 0.008647 0.614159 -0.012291 0.982 0.951 0.757
v 0.006903 0.618385 -0.013050 0.982 0.951 0.757
v 0.004986 0.623829 -0.013859 0.982 0.951 0.757
v 0.002875 0.630194 -0.014618 0.982 0.951 0.757
v 0.008825 0.551659 0.006787 0.982 0.951 0.757
f 450 378 379
f 450 379 378
f 450 379 380
f 450 380 379
f 450 380 381
f 450 381 380
f 450 381 382
f 450 382 381
f 450 382 383
f 450 383 382
f 450 383 384
f 450 384 383
f 450 384 385
f 450 385 384
f 450 385 386
f 450 386 385
f 450 386 387
f 450 387 386
f 450 387 388
f 450 388 387
f 450 388 389
f 450 389 388
f 450 389 390
f 450 390 389
f 450 390 391
f 450 391 390
f 450 391 392
f 450 392 391
f 450 392 393
f 450 393 392
f 450 393 394
f 450 394 393
f 450 394 395
f 450 395 394
f 450 395 396
f 450 396 395
f 450 396 397
f 450 397 396
f 450 397 398
f 450 398 397
f 450 398 399
f 450 399 398
f 450 399 400
f 450 400 399
f 450 400 401
f 450 401 400
f 450 401 402
f 450 402 401
f 450 402 403
f 450 403 402
f 450 403 404
f 450 404 403
f 450 404 405
f 450 405 404
f 450 405 406
f 450 406 405
f 450 406 407
f 450 407 406
f 450 407 408
f 450 408 407
f 450 408 409
f 450 409 408
f 450 409 410
f 450 410 409
f 450 410 411
f 450 411 410
f 450 411 412
f 450 412 411
f 450 412 413
f 450 413 412
f 450 413 414
f 450 414 413
f 450 414 415
f 450 415 414
f 450 415 416
f 450 416 415
f 450 416 417
f 450 417 416
f 450 417 418
f 450 418 417
f 450 418 419
f 450 419 418
f 450 419 420
f 450 420 419
f 450 420 421
f 450 421 420
f 450 421 422
f 450 422 421
f 450 422 423
f 450 423 422
f 450 423 424
f 450 424 423
f 450 424 425
f 450 425 424
f 450 425 426
f 450 426 425
f 450 426 427
f 450 427 426
f 450 427 428
f 450 428 427
f 450 428 429
f 450 429 428
f 450 429 430
f 450 430 429
f 450 430 431
f 450 431 430
f 450 431 432
f 450 432 431
f 450 432 433
f 450 433 432
f 450 433 434
f 450 434 433
f 450 434 435
f 450 435 434
f 450 435 436
f 450 436 435
f 450 436 437
f 450 437 436
f 450 437 438
f 450 438 437
f 450 438 439
f 450 439 438
f 450 439 440
f 450 440 439
f 450 440 441
f 450 441 440
f 450 441 442
f 450 442 441
f 450 442 443
f 450 443 442
f 450 443 444
f 450 444 443
f 450 444 445
f 450 445 444
f 450 445 446
f 450 446 445
f 450 446 447
f 450 447 446
f 450 447 448
f 450 448 447
f 450 448 449
f 450 449 448
f 450 449 378
f 450 378 449
v -0.001037 0.487911 -0.005910 0.160 0.352 0.136
v 0.001624 0.493680 -0.000285 0.160 0.352 0.136
v 0.001037 0.487911 0.005910 0.160 0.352 0.136
v -0.001624 0.482141 0.000285 0.160 0.352 0.136
v 0.034300 0.477911 -0.007037 0.160 0.352 0.136
v 0.034743 0.478872 -0.006099 0.160 0.352 0.136
v 0.034646 0.477911 -0.005067 0.160 0.352 0.136
v 0.034202 0.476949 -0.006004 0.160 0.352 0.136
f 451 452 456
f 451 456 455
f 452 453 457
f 452 457 456
f 453 454 458
f 453 458 457
f 454 451 455
f 454 455 458
v 0.005373 0.331055 0.002670 0.160 0.352 0.136
v -0.000733 0.336824 0.001476 0.160 0.352 0.136
v -0.005373 0.331055 -0.002670 0.160 0.352 0.136
v 0.000733 0.325285 -0.001476 0.160 0.352 0.136
v -0.014677 0.321055 0.031790 0.160 0.352 0.136
v -0.015695 0.322016 0.031591 0.160 0.352 0.136
v -0.016468 0.321055 0.030900 0.160 0.352 0.136
v -0.015451 0.320093 0.031099 0.160 0.352 0.136
f 459 460 464
f 459 464 463
f 460 461 465
f 460 465 464
f 461 462 466
f 461 466 465
f 462 459 463
f 462 463 466
v -0.005988 0.365524 -0.000379 0.160 0.352 0.136
v 0.000104 0.371294 -0.001645 0.160 0.352 0.136
v 0.005988 0.365524 0.000379 0.160 0.352 0.136
v -0.000104 0.359755 0.001645 0.160 0.352 0.136
v 0.001215 0.355524 -0.034993 0.160 0.352 0.136
v 0.002230 0.356486 -0.035204 0.160 0.352 0.136
v 0.003211 0.355524 -0.034867 0.160 0.352 0.136
v 0.002196 0.354563 -0.034656 0.160 0.352 0.136
f 467 468 472
f 467 472 471
f 468 469 473
f 468 473 472
f 469 470 474
f 469 474 473
f 470 467 471
f 470 471 474
v 0.001117 0.301073 -0.005895 0.160 0.352 0.136
v 0.001620 0.306842 0.000307 0.160 0.352 0.136
v -0.001117 0.301073 0.005895 0.160 0.352 0.136
v -0.001620 0.295304 -0.000307 0.160 0.352 0.136
v 0.034575 0.291073 0.005531 0.160 0.352 0.136
v 0.034658 0.292035 0.006565 0.160 0.352 0.136
v 0.034202 0.291073 0.007496 0.160 0.352 0.136
v 0.034119 0.290112 0.006463 0.160 0.352 0.136
f 475 476 480
f 475 480 479
f 476 477 481
f 476 481 480
f 477 478 482
f 477 482 481
f 478 475 479
f 478 479 482
v 0.005883 0.198135 0.001181 0.160 0.352 0.136
v -0.000324 0.203904 0.001616 0.160 0.352 0.136
v -0.005883 0.198135 -0.001181 0.160 0.352 0.136
v 0.000324 0.192365 -0.001616 0.160 0.352 0.136
v -0.005908 0.188135 0.034512 0.160 0.352 0.136
v -0.006943 0.189096 0.034585 0.160 0.352 0.136
v -0.007869 0.188135 0.034119 0.160 0.352 0.136
v -0.006835 0.187173 0.034046 0.160 0.352 0.136
f 483 484 488
f 483 488 487
f 484 485 489
f 484 489 488
f 485 486 490
f 485 490 489
f 486 483 487
f 486 487 490
v 0.001178 0.431686 0.005883 0.160 0.352 0.136
v -0.001616 0.437455 0.000324 0.160 0.352 0.136
v -0.001178 0.431686 -0.005883 0.160 0.352 0.136
v 0.001616 0.425917 -0.000324 0.160 0.352 0.136
v -0.034123 0.421686 0.007851 0.160 0.352 0.136
v -0.034588 0.422647 0.006924 0.160 0.352 0.136
v -0.034515 0.421686 0.005890 0.160 0.352 0.136
v -0.034050 0.420724 0.006816 0.160 0.352 0.136
f 491 492 496
f 491 496 495
f 492 493 497
f 492 497 496
f 493 494 498
f 493 498 497
f 494 491 495
f 494 495 498
v -0.005729 0.123177 0.001783 0.160 0.352 0.136
v -0.000490 0.128946 -0.001574 0.160 0.352 0.136
v 0.005729 0.123177 -0.001783 0.160 0.352 0.136
v 0.000490 0.117408 0.001574 0.160 0.352 0.136
v -0.011354 0.113177 -0.033122 0.160 0.352 0.136
v -0.010481 0.114138 -0.033682 0.160 0.352 0.136
v -0.009444 0.113177 -0.033717 0.160 0.352 0.136
v -0.010317 0.112215 -0.033157 0.160 0.352 0.136
f 499 500 504
f 499 504 503
f 500 501 505
f 500 505 504
f 501 502 506
f 501 506 505
f 502 499 503
f 502 503 506
v 0.000000 0.165498 -0.000000 0.180 0.500 0.200
v -0.001965 0.163844 -0.003156 0.180 0.500 0.200
v -0.005334 0.162190 -0.006086 0.180 0.500 0.200
v -0.009555 0.160536 -0.008880 0.180 0.500 0.200
v -0.014295 0.158882 -0.011591 0.180 0.500 0.200
v -0.019261 0.157228 -0.014265 0.180 0.500 0.200
v -0.024183 0.155574 -0.016947 0.180 0.500 0.200
v -0.028810 0.153920 -0.019676 0.180 0.500 0.200
v -0.032916 0.152266 -0.022488 0.180 0.500 0.200
v -0.036309 0.150612 -0.025415 0.180 0.500 0.200
v -0.038839 0.148958 -0.028480 0.180 0.500 0.200
v -0.040402 0.147304 -0.031700 0.180 0.500 0.200
v -0.040945 0.145650 -0.035084 0.180 0.500 0.200
v -0.040466 0.143997 -0.038631 0.180 0.500 0.200
v -0.039021 0.142343 -0.042333 0.180 0.500 0.200
v -0.036712 0.140689 -0.046174 0.180 0.500 0.200
v -0.033691 0.139035 -0.050128 0.180 0.500 0.200
v -0.030149 0.137381 -0.054167 0.180 0.500 0.200
v -0.026312 0.135727 -0.058252 0.180 0.500 0.200
v -0.022430 0.134073 -0.062345 0.180 0.500 0.200
v -0.018775 0.132419 -0.066402 0.180 0.500 0.200
v -0.015639 0.130765 -0.070375 0.180 0.500 0.200
v -0.013355 0.129111 -0.074211 0.180 0.500 0.200
v -0.012474 0.127457 -0.077823 0.180 0.500 0.200
v -0.010509 0.129111 -0.074668 0.180 0.500 0.200
v -0.007140 0.130765 -0.071737 0.180 0.500 0.200
v -0.002919 0.132419 -0.068943 0.180 0.500 0.200
v 0.001821 0.134073 -0.066232 0.180 0.500 0.200
v 0.006787 0.135727 -0.063558 0.180 0.500 0.200
v 0.011709 0.137381 -0.060876 0.180 0.500 0.200
v 0.016336 0.139035 -0.058147 0.180 0.500 0.200
v 0.020441 0.140689 -0.055335 0.180 0.500 0.200
v 0.023835 0.142343 -0.052408 0.180 0.500 0.200
v 0.026365 0.143997 -0.049343 0.180 0.500 0.200
v 0.027928 0.145650 -0.046123 0.180 0.500 0.200
v 0.028471 0.147304 -0.042740 0.180 0.500 0.200
v 0.027992 0.148958 -0.039192 0.180 0.500 0.200
v 0.026547 0.150612 -0.035490 0.180 0.500 0.200
v 0.024238 0.152266 -0.031649 0.180 0.500 0.200
v 0.021217 0.153920 -0.027695 0.180 0.500 0.200
v 0.017675 0.155574 -0.023656 0.180 0.500 0.200
v 0.013838 0.157228 -0.019571 0.180 0.500 0.200
v 0.009956 0.158882 -0.015478 0.180 0.500 0.200
v 0.006301 0.160536 -0.011422 0.180 0.500 0.200
v 0.003164 0.162190 -0.007448 0.180 0.500 0.200
v 0.000880 0.163844 -0.003612 0.180 0.500 0.200
f 507 508 509
f 507 509 508
f 507 509 510
f 507 510 509
f 507 510 511
f 507 511 510
f 507 511 512
f 507 512 511
f 507 512 513
f 507 513 512
f 507 513 514
f 507 514 513
f 507 514 515
f 507 515 514
f 507 515 516
f 507 516 515
f 507 516 517
f 507 517 516
f 507 517 518
f 507 518 517
f 507 518 519
f 507 519 518
f 507 519 520
f 507 520 519
f 507 520 521
f 507 521 520
f 507 521 522
f 507 522 521
f 507 522 523
f 507 523 522
f 507 523 524
f 507 524 523
f 507 524 525
f 507 525 524
f 507 525 526
f 507 526 525
f 507 526 527
f 507 527 526
f 507 527 528
f 507 528 527
f 507 528 529
f 507 529 528
f 507 529 530
f 507 530 529
f 507 530 531
f 507 531 530
f 507 531 532
f 507 532 531
f 507 532 533
f 507 533 532
f 507 533 534
f 507 534 533
f 507 534 535
f 507 535 534
f 507 535 536
f 507 536 535
f 507 536 537
f 507 537 536
f 507 537 538
f 507 538 537
f 507 538 539
f 507 539 538
f 507 539 540
f 507 540 539
f 507 540 541
f 507 541 540
f 507 541 542
f 507 542 541
f 507 542 543
f 507 543 542
f 507 543 544
f 507 544 543
f 507 544 545
f 507 545 544
f 507 545 546
f 507 546 545
f 507 546 547
f 507 547 546
f 507 547 548
f 507 548 547
f 507 548 549
f 507 549 548
f 507 549 550
f 507 550 549
f 507 550 551
f 507 551 550
f 507 551 552
f 507 552 551
v 0.000000 0.165498 -0.000000 0.180 0.500 0.200
v -0.003099 0.164183 -0.001795 0.180 0.500 0.200
v -0.007251 0.162869 -0.002774 0.180 0.500 0.200
v -0.012044 0.161554 -0.003258 0.180 0.500 0.200
v -0.017226 0.160240 -0.003440 0.180 0.500 0.200
v -0.022578 0.158926 -0.003490 0.180 0.500 0.200
v -0.027897 0.157611 -0.003566 0.180 0.500 0.200
v -0.032994 0.156297 -0.003813 0.180 0.500 0.200
v -0.037700 0.154983 -0.004364 0.180 0.500 0.200
v -0.041871 0.153668 -0.005329 0.180 0.500 0.200
v -0.045394 0.152354 -0.006795 0.180 0.500 0.200
v -0.048191 0.151039 -0.008824 0.180 0.500 0.200
v -0.050222 0.149725 -0.011446 0.180 0.500 0.200
v -0.051486 0.148411 -0.014662 0.180 0.500 0.200
v -0.052024 0.147096 -0.018440 0.180 0.500 0.200
v -0.051915 0.145782 -0.022720 0.180 0.500 0.200
v -0.051270 0.144467 -0.027414 0.180 0.500 0.200
v -0.050235 0.143153 -0.032411 0.180 0.500 0.200
v -0.048977 0.141839 -0.037579 0.180 0.500 0.200
v -0.047686 0.140524 -0.042774 0.180 0.500 0.200
v -0.046566 0.139210 -0.047836 0.180 0.500 0.200
v -0.045835 0.137895 -0.052597 0.180 0.500 0.200
v -0.045743 0.136581 -0.056863 0.180 0.500 0.200
v -0.046706 0.135267 -0.060312 0.180 0.500 0.200
v -0.043607 0.136581 -0.058517 0.180 0.500 0.200
v -0.039454 0.137895 -0.057538 0.180 0.500 0.200
v -0.034662 0.139210 -0.057055 0.180 0.500 0.200
v -0.029480 0.140524 -0.056873 0.180 0.500 0.200
v -0.024128 0.141839 -0.056823 0.180 0.500 0.200
v -0.018809 0.143153 -0.056747 0.180 0.500 0.200
v -0.013712 0.144467 -0.056499 0.180 0.500 0.200
v -0.009006 0.145782 -0.055948 0.180 0.500 0.200
v -0.004835 0.147096 -0.054984 0.180 0.500 0.200
v -0.001312 0.148411 -0.053517 0.180 0.500 0.200
v 0.001485 0.149725 -0.051488 0.180 0.500 0.200
v 0.003516 0.151039 -0.048866 0.180 0.500 0.200
v 0.004780 0.152354 -0.045650 0.180 0.500 0.200
v 0.005319 0.153668 -0.041872 0.180 0.500 0.200
v 0.005209 0.154983 -0.037592 0.180 0.500 0.200
v 0.004564 0.156297 -0.032898 0.180 0.500 0.200
v 0.003529 0.157611 -0.027902 0.180 0.500 0.200
v 0.002271 0.158926 -0.022733 0.180 0.500 0.200
v 0.000980 0.160240 -0.017539 0.180 0.500 0.200
v -0.000140 0.161554 -0.012476 0.180 0.500 0.200
v -0.000871 0.162869 -0.007715 0.180 0.500 0.200
v -0.000962 0.164183 -0.003449 0.180 0.500 0.200
f 553 554 555
f 553 555 554
f 553 555 556
f 553 556 555
f 553 556 557
f 553 557 556
f 553 557 558
f 553 558 557
f 553 558 559
f 553 559 558
f 553 559 560
f 553 560 559
f 553 560 561
f 553 561 560
f 553 561 562
f 553 562 561
f 553 562 563
f 553 563 562
f 553 563 564
f 553 564 563
f 553 564 565
f 553 565 564
f 553 565 566
f 553 566 565
f 553 566 567
f 553 567 566
f 553 567 568
f 553 568 567
f 553 568 569
f 553 569 568
f 553 569 570
f 553 570 569
f 553 570 571
f 553 571 570
f 553 571 572
f 553 572 571
f 553 572 573
f 553 573 572
f 553 573 574
f 553 574 573
f 553 574 575
f 553 575 574
f 553 575 576
f 553 576 575
f 553 576 577
f 553 577 576
f 553 577 578
f 553 578 577
f 553 578 579
f 553 579 578
f 553 579 580
f 553 580 579
f 553 580 581
f 553 581 580
f 553 581 582
f 553 582 581
f 553 582 583
f 553 583 582
f 553 583 584
f 553 584 583
f 553 584 585
f 553 585 584
f 553 585 586
f 553 586 585
f 553 586 587
f 553 587 586
f 553 587 588
f 553 588 587
f 553 588 589
f 553 589 588
f 553 589 590
f 553 590 589
f 553 590 591
f 553 591 590
f 553 591 592
f 553 592 591
f 553 592 593
f 553 593 592
f 553 593 594
f 553 594 593
f 553 594 595
f 553 595 594
f 553 595 596
f 553 596 595
f 553 596 597
f 553 597 596
f 553 597 598
f 553 598 597
v 0.000000 0.165498 -0.000000 0.180 0.500 0.200
v -0.003012 0.163341 0.000116 0.180 0.500 0.200
v -0.006543 0.161185 0.001419 0.180 0.500 0.200
v -0.010389 0.159029 0.003443 0.180 0.500 0.200
v -0.014426 0.156873 0.005905 0.180 0.500 0.200
v -0.018547 0.154717 0.008559 0.180 0.500 0.200
v -0.022651 0.152561 0.011176 0.180 0.500 0.200
v -0.026647 0.150404 0.013542 0.180 0.500 0.200
v -0.030450 0.148248 0.015468 0.180 0.500 0.200
v -0.033990 0.146092 0.016792 0.180 0.500 0.200
v -0.037211 0.143936 0.017386 0.180 0.500 0.200
v -0.040075 0.141780 0.017163 0.180 0.500 0.200
v -0.042562 0.139623 0.016076 0.180 0.500 0.200
v -0.044672 0.137467 0.014127 0.180 0.500 0.200
v -0.046425 0.135311 0.011360 0.180 0.500 0.200
v -0.047859 0.133155 0.007863 0.180 0.500 0.200
v -0.049030 0.130999 0.003764 0.180 0.500 0.200
v -0.050008 0.128842 -0.000775 0.180 0.500 0.200
v -0.050878 0.126686 -0.005564 0.180 0.500 0.200
v -0.051731 0.124530 -0.010391 0.180 0.500 0.200
v -0.052668 0.122374 -0.015026 0.180 0.500 0.200
v -0.053796 0.120218 -0.019223 0.180 0.500 0.200
v -0.055239 0.118062 -0.022698 0.180 0.500 0.200
v -0.057201 0.115905 -0.024988 0.180 0.500 0.200
v -0.054188 0.118062 -0.025104 0.180 0.500 0.200
v -0.050657 0.120218 -0.026407 0.180 0.500 0.200
v -0.046812 0.122374 -0.028431 0.180 0.500 0.200
v -0.042775 0.124530 -0.030893 0.180 0.500 0.200
v -0.038654 0.126686 -0.033547 0.180 0.500 0.200
v -0.034549 0.128842 -0.036163 0.180 0.500 0.200
v -0.030554 0.130999 -0.038530 0.180 0.500 0.200
v -0.026751 0.133155 -0.040456 0.180 0.500 0.200
v -0.023211 0.135311 -0.041780 0.180 0.500 0.200
v -0.019990 0.137467 -0.042374 0.180 0.500 0.200
v -0.017126 0.139623 -0.042151 0.180 0.500 0.200
v -0.014639 0.141780 -0.041064 0.180 0.500 0.200
v -0.012529 0.143936 -0.039115 0.180 0.500 0.200
v -0.010776 0.146092 -0.036348 0.180 0.500 0.200
v -0.009342 0.148248 -0.032851 0.180 0.500 0.200
v -0.008171 0.150404 -0.028752 0.180 0.500 0.200
v -0.007192 0.152561 -0.024213 0.180 0.500 0.200
v -0.006323 0.154717 -0.019424 0.180 0.500 0.200
v -0.005470 0.156873 -0.014597 0.180 0.500 0.200
v -0.004533 0.159029 -0.009962 0.180 0.500 0.200
v -0.003405 0.161185 -0.005765 0.180 0.500 0.200
v -0.001962 0.163341 -0.002289 0.180 0.500 0.200
f 599 600 601
f 599 601 600
f 599 601 602
f 599 602 601
f 599 602 603
f 599 603 602
f 599 603 604
f 599 604 603
f 599 604 605
f 599 605 604
f 599 605 606
f 599 606 605
f 599 606 607
f 599 607 606
f 599 607 608
f 599 608 607
f 599 608 609
f 599 609 608
f 599 609 610
f 599 610 609
f 599 610 611
f 599 611 610
f 599 611 612
f 599 612 611
f 599 612 613
f 599 613 612
f 599 613 614
f 599 614 613
f 599 614 615
f 599 615 614
f 599 615 616
f 599 616 615
f 599 616 617
f 599 617 616
f 599 617 618
f 599 618 617
f 599 618 619
f 599 619 618
f 599 619 620
f 599 620 619
f 599 620 621
f 599 621 620
f 599 621 622
f 599 622 621
f 599 622 623
f 599 623 622
f 599 623 624
f 599 624 623
f 599 624 625
f 599 625 624
f 599 625 626
f 599 626 625
f 599 626 627
f 599 627 626
f 599 627 628
f 599 628 627
f 599 628 629
f 599 629 628
f 599 629 630
f 599 630 629
f 599 630 631
f 599 631 630
f 599 631 632
f 599 632 631
f 599 632 633
f 599 633 632
f 599 633 634
f 599 634 633
f 599 634 635
f 599 635 634
f 599 635 636
f 599 636 635
f 599 636 637
f 599 637 636
f 599 637 638
f 599 638 637
f 599 638 639
f 599 639 638
f 599 639 640
f 599 640 639
f 599 640 641
f 599 641 640
f 599 641 642
f 599 642 641
f 599 642 643
f 599 643 642
f 599 643 644
f 599 644 643
v 0.000000 0.303412 -0.000000 0.180 0.500 0.200
v -0.001432 0.301602 -0.003184 0.180 0.500 0.200
v -0.004237 0.299792 -0.006350 0.180 0.500 0.200
v -0.007877 0.297982 -0.009506 0.180 0.500 0.200
v -0.012024 0.296172 -0.012657 0.180 0.500 0.200
v -0.016394 0.294362 -0.015804 0.180 0.500 0.200
v -0.020719 0.292551 -0.018952 0.180 0.500 0.200
v -0.024756 0.290741 -0.022103 0.180 0.500 0.200
v -0.028283 0.288931 -0.025261 0.180 0.500 0.200
v -0.031113 0.287121 -0.028427 0.180 0.500 0.200
v -0.033098 0.285311 -0.031604 0.180 0.500 0.200
v -0.034136 0.283501 -0.034792 0.180 0.500 0.200
v -0.034175 0.281690 -0.037993 0.180 0.500 0.200
v -0.033216 0.279880 -0.041206 0.180 0.500 0.200
v -0.031310 0.278070 -0.044431 0.180 0.500 0.200
v -0.028559 0.276260 -0.047666 0.180 0.500 0.200
v -0.025111 0.274450 -0.050909 0.180 0.500 0.200
v -0.021153 0.272640 -0.054159 0.180 0.500 0.200
v -0.016906 0.270829 -0.057412 0.180 0.500 0.200
v -0.012615 0.269019 -0.060666 0.180 0.500 0.200
v -0.008547 0.267209 -0.063918 0.180 0.500 0.200
v -0.004986 0.265399 -0.067163 0.180 0.500 0.200
v -0.002259 0.263589 -0.070397 0.180 0.500 0.200
v -0.000906 0.261779 -0.073615 0.180 0.500 0.200
v 0.000526 0.263589 -0.070432 0.180 0.500 0.200
v 0.003331 0.265399 -0.067265 0.180 0.500 0.200
v 0.006971 0.267209 -0.064109 0.180 0.500 0.200
v 0.011118 0.269019 -0.060959 0.180 0.500 0.200
v 0.015487 0.270829 -0.057811 0.180 0.500 0.200
v 0.019813 0.272640 -0.054663 0.180 0.500 0.200
v 0.023850 0.274450 -0.051512 0.180 0.500 0.200
v 0.027376 0.276260 -0.048354 0.180 0.500 0.200
v 0.030206 0.278070 -0.045188 0.180 0.500 0.200
v 0.032191 0.279880 -0.042011 0.180 0.500 0.200
v 0.033230 0.281690 -0.038823 0.180 0.500 0.200
v 0.033269 0.283501 -0.035622 0.180 0.500 0.200
v 0.032309 0.285311 -0.032409 0.180 0.500 0.200
v 0.030403 0.287121 -0.029185 0.180 0.500 0.200
v 0.027652 0.288931 -0.025950 0.180 0.500 0.200
v 0.024204 0.290741 -0.022706 0.180 0.500 0.200
v 0.020247 0.292551 -0.019456 0.180 0.500 0.200
v 0.016000 0.294362 -0.016203 0.180 0.500 0.200
v 0.011709 0.296172 -0.012949 0.180 0.500 0.200
v 0.007641 0.297982 -0.009697 0.180 0.500 0.200
v 0.004080 0.299792 -0.006453 0.180 0.500 0.200
v 0.001353 0.301602 -0.003218 0.180 0.500 0.200
f 645 646 647
f 645 647 646
f 645 647 648
f 645 648 647
f 645 648 649
f 645 649 648
f 645 649 650
f 645 650 649
f 645 650 651
f 645 651 650
f 645 651 652
f 645 652 651
f 645 652 653
f 645 653 652
f 645 653 654
f 645 654 653
f 645 654 655
f 645 655 654
f 645 655 656
f 645 656 655
f 645 656 657
f 645 657 656
f 645 657 658
f 645 658 657
f 645 658 659
f 645 659 658
f 645 659 660
f 645 660 659
f 645 660 661
f 645 661 660
f 645 661 662
f 645 662 661
f 645 662 663
f 645 663 662
f 645 663 664
f 645 664 663
f 645 664 665
f 645 665 664
f 645 665 666
f 645 666 665
f 645 666 667
f 645 667 666
f 645 667 668
f 645 668 667
f 645 668 669
f 645 669 668
f 645 669 670
f 645 670 669
f 645 670 671
f 645 671 670
f 645 671 672
f 645 672 671
f 645 672 673
f 645 673 672
f 645 673 674
f 645 674 673
f 645 674 675
f 645 675 674
f 645 675 676
f 645 676 675
f 645 676 677
f 645 677 676
f 645 677 678
f 645 678 677
f 645 678 679
f 645 679 678
f 645 679 680
f 645 680 679
f 645 680 681
f 645 681 680
f 645 681 682
f 645 682 681
f 645 682 683
f 645 683 682
f 645 683 684
f 645 684 683
f 645 684 685
f 645 685 684
f 645 685 686
f 645 686 685
f 645 686 687
f 645 687 686
f 645 687 688
f 645 688 687
f 645 688 689
f 645 689 688
f 645 689 690
f 645 690 689
v 0.000000 0.303412 -0.000000 0.180 0.500 0.200
v -0.002893 0.301501 -0.002184 0.180 0.500 0.200
v -0.007034 0.299590 -0.003666 0.180 0.500 0.200
v -0.011933 0.297678 -0.004722 0.180 0.500 0.200
v -0.017293 0.295767 -0.005518 0.180 0.500 0.200
v -0.022855 0.293855 -0.006201 0.180 0.500 0.200
v -0.028377 0.291944 -0.006906 0.180 0.500 0.200
v -0.033636 0.290032 -0.007759 0.180 0.500 0.200
v -0.038432 0.288121 -0.008873 0.180 0.500 0.200
v -0.042595 0.286210 -0.010342 0.180 0.500 0.200
v -0.045991 0.284298 -0.012243 0.180 0.500 0.200
v -0.048527 0.282387 -0.014628 0.180 0.500 0.200
v -0.050155 0.280475 -0.017523 0.180 0.500 0.200
v -0.050876 0.278564 -0.020929 0.180 0.500 0.200
v -0.050737 0.276652 -0.024818 0.180 0.500 0.200
v -0.049830 0.274741 -0.029139 0.180 0.500 0.200
v -0.048290 0.272830 -0.033816 0.180 0.500 0.200
v -0.046287 0.270918 -0.038753 0.180 0.500 0.200
v -0.044022 0.269007 -0.043838 0.180 0.500 0.200
v -0.041716 0.267095 -0.048945 0.180 0.500 0.200
v -0.039613 0.265184 -0.053939 0.180 0.500 0.200
v -0.037971 0.263272 -0.058674 0.180 0.500 0.200
v -0.037086 0.261361 -0.062982 0.180 0.500 0.200
v -0.037449 0.259449 -0.066589 0.180 0.500 0.200
v -0.034556 0.261361 -0.064405 0.180 0.500 0.200
v -0.030415 0.263272 -0.062923 0.180 0.500 0.200
v -0.025516 0.265184 -0.061867 0.180 0.500 0.200
v -0.020156 0.267095 -0.061071 0.180 0.500 0.200
v -0.014595 0.269007 -0.060388 0.180 0.500 0.200
v -0.009072 0.270918 -0.059682 0.180 0.500 0.200
v -0.003813 0.272830 -0.058829 0.180 0.500 0.200
v 0.000983 0.274741 -0.057716 0.180 0.500 0.200
v 0.005146 0.276652 -0.056246 0.180 0.500 0.200
v 0.008542 0.278564 -0.054345 0.180 0.500 0.200
v 0.011077 0.280475 -0.051960 0.180 0.500 0.200
v 0.012706 0.282387 -0.049065 0.180 0.500 0.200
v 0.013427 0.284298 -0.045660 0.180 0.500 0.200
v 0.013287 0.286210 -0.041771 0.180 0.500 0.200
v 0.012381 0.288121 -0.037450 0.180 0.500 0.200
v 0.010841 0.290032 -0.032773 0.180 0.500 0.200
v 0.008838 0.291944 -0.027836 0.180 0.500 0.200
v 0.006572 0.293855 -0.022751 0.180 0.500 0.200
v 0.004267 0.295767 -0.017643 0.180 0.500 0.200
v 0.002164 0.297678 -0.012649 0.180 0.500 0.200
v 0.000521 0.299590 -0.007915 0.180 0.500 0.200
v -0.000363 0.301501 -0.003607 0.180 0.500 0.200
f 691 692 693
f 691 693 692
f 691 693 694
f 691 694 693
f 691 694 695
f 691 695 694
f 691 695 696
f 691 696 695
f 691 696 697
f 691 697 696
f 691 697 698
f 691 698 697
f 691 698 699
f 691 699 698
f 691 699 700
f 691 700 699
f 691 700 701
f 691 701 700
f 691 701 702
f 691 702 701
f 691 702 703
f 691 703 702
f 691 703 704
f 691 704 703
f 691 704 705
f 691 705 704
f 691 705 706
f 691 706 705
f 691 706 707
f 691 707 706
f 691 707 708
f 691 708 707
f 691 708 709
f 691 709 708
f 691 709 710
f 691 710 709
f 691 710 711
f 691 711 710
f 691 711 712
f 691 712 711
f 691 712 713
f 691 713 712
f 691 713 714
f 691 714 713
f 691 714 715
f 691 715 714
f 691 715 716
f 691 716 715
f 691 716 717
f 691 717 716
f 691 717 718
f 691 718 717
f 691 718 719
f 691 719 718
f 691 719 720
f 691 720 719
f 691 720 721
f 691 721 720
f 691 721 722
f 691 722 721
f 691 722 723
f 691 723 722
f 691 723 724
f 691 724 723
f 691 724 725
f 691 725 724
f 691 725 726
f 691 726 725
f 691 726 727
f 691 727 726
f 691 727 728
f 691 728 727
f 691 728 729
f 691 729 728
f 691 729 730
f 691 730 729
f 691 730 731
f 691 731 730
f 691 731 732
f 691 732 731
f 691 732 733
f 691 733 732
f 691 733 734
f 691 734 733
f 691 734 735
f 691 735 734
f 691 735 736
f 691 736 735
v 0.000000 0.303412 -0.000000 0.180 0.500 0.200
v -0.002558 0.302348 -0.000428 0.180 0.500 0.200
v -0.005636 0.301283 -0.000025 0.180 0.500 0.200
v -0.009029 0.300219 0.000883 0.180 0.500 0.200
v -0.012613 0.299154 0.002097 0.180 0.500 0.200
v -0.016282 0.298089 0.003446 0.180 0.500 0.200
v -0.019934 0.297025 0.004769 0.180 0.500 0.200
v -0.023477 0.295960 0.005916 0.180 0.500 0.200
v -0.026827 0.294896 0.006755 0.180 0.500 0.200
v -0.029914 0.293831 0.007173 0.180 0.500 0.200
v -0.032681 0.292766 0.007080 0.180 0.500 0.200
v -0.035091 0.291702 0.006414 0.180 0.500 0.200
v -0.037123 0.290637 0.005144 0.180 0.500 0.200
v -0.038778 0.289573 0.003271 0.180 0.500 0.200
v -0.040075 0.288508 0.000824 0.180 0.500 0.200
v -0.041053 0.287443 -0.002133 0.180 0.500 0.200
v -0.041767 0.286379 -0.005512 0.180 0.500 0.200
v -0.042289 0.285314 -0.009200 0.180 0.500 0.200
v -0.042701 0.284249 -0.013062 0.180 0.500 0.200
v -0.043097 0.283185 -0.016950 0.180 0.500 0.200
v -0.043577 0.282120 -0.020704 0.180 0.500 0.200
v -0.044249 0.281056 -0.024152 0.180 0.500 0.200
v -0.045236 0.279991 -0.027094 0.180 0.500 0.200
v -0.046742 0.278926 -0.029206 0.180 0.500 0.200
v -0.044184 0.279991 -0.028779 0.180 0.500 0.200
v -0.041106 0.281056 -0.029182 0.180 0.500 0.200
v -0.037713 0.282120 -0.030089 0.180 0.500 0.200
v -0.034129 0.283185 -0.031304 0.180 0.500 0.200
v -0.030460 0.284249 -0.032653 0.180 0.500 0.200
v -0.026808 0.285314 -0.033975 0.180 0.500 0.200
v -0.023265 0.286379 -0.035123 0.180 0.500 0.200
v -0.019915 0.287443 -0.035962 0.180 0.500 0.200
v -0.016829 0.288508 -0.036380 0.180 0.500 0.200
v -0.014061 0.289573 -0.036286 0.180 0.500 0.200
v -0.011651 0.290637 -0.035621 0.180 0.500 0.200
v -0.009619 0.291702 -0.034351 0.180 0.500 0.200
v -0.007964 0.292766 -0.032477 0.180 0.500 0.200
v -0.006667 0.293831 -0.030030 0.180 0.500 0.200
v -0.005689 0.294896 -0.027073 0.180 0.500 0.200
v -0.004975 0.295960 -0.023694 0.180 0.500 0.200
v -0.004453 0.297025 -0.020007 0.180 0.500 0.200
v -0.004041 0.298089 -0.016145 0.180 0.500 0.200
v -0.003645 0.299154 -0.012256 0.180 0.500 0.200
v -0.003165 0.300219 -0.008502 0.180 0.500 0.200
v -0.002493 0.301283 -0.005055 0.180 0.500 0.200
v -0.001506 0.302348 -0.002112 0.180 0.500 0.200
f 737 738 739
f 737 739 738
f 737 739 740
f 737 740 739
f 737 740 741
f 737 741 740
f 737 741 742
f 737 742 741
f 737 742 743
f 737 743 742
f 737 743 744
f 737 744 743
f 737 744 745
f 737 745 744
f 737 745 746
f 737 746 745
f 737 746 747
f 737 747 746
f 737 747 748
f 737 748 747
f 737 748 749
f 737 749 748
f 737 749 750
f 737 750 749
f 737 750 751
f 737 751 750
f 737 751 752
f 737 752 751
f 737 752 753
f 737 753 752
f 737 753 754
f 737 754 753
f 737 754 755
f 737 755 754
f 737 755 756
f 737 756 755
f 737 756 757
f 737 757 756
f 737 757 758
f 737 758 757
f 737 758 759
f 737 759 758
f 737 759 760
f 737 760 759
f 737 760 761
f 737 761 760
f 737 761 762
f 737 762 761
f 737 762 763
f 737 763 762
f 737 763 764
f 737 764 763
f 737 764 765
f 737 765 764
f 737 765 766
f 737 766 765
f 737 766 767
f 737 767 766
f 737 767 768
f 737 768 767
f 737 768 769
f 737 769 768
f 737 769 770
f 737 770 769
f 737 770 771
f 737 771 770
f 737 771 772
f 737 772 771
f 737 772 773
f 737 773 772
f 737 773 774
f 737 774 773
f 737 774 775
f 737 775 774
f 737 775 776
f 737 776 775
f 737 776 777
f 737 777 776
f 737 777 778
f 737 778 777
f 737 778 779
f 737 779 778
f 737 779 780
f 737 780 779
f 737 780 781
f 737 781 780
f 737 781 782
f 737 782 781
v 0.000000 0.430294 -0.000000 0.180 0.500 0.200
v 0.000215 0.428637 -0.002238 0.180 0.500 0.200
v -0.000402 0.426980 -0.004986 0.180 0.500 0.200
v -0.001523 0.425323 -0.008045 0.180 0.500 0.200
v -0.002951 0.423666 -0.011293 0.180 0.500 0.200
v -0.004513 0.422009 -0.014623 0.180 0.500 0.200
v -0.006049 0.420352 -0.017937 0.180 0.500 0.200
v -0.007410 0.418695 -0.021143 0.180 0.500 0.200
v -0.008463 0.417038 -0.024160 0.180 0.500 0.200
v -0.009094 0.415381 -0.026918 0.180 0.500 0.200
v -0.009214 0.413724 -0.029361 0.180 0.500 0.200
v -0.008761 0.412068 -0.031452 0.180 0.500 0.200
v -0.007704 0.410411 -0.033172 0.180 0.500 0.200
v -0.006042 0.408754 -0.034520 0.180 0.500 0.200
v -0.003808 0.407097 -0.035516 0.180 0.500 0.200
v -0.001062 0.405440 -0.036197 0.180 0.500 0.200
v 0.002105 0.403783 -0.036620 0.180 0.500 0.200
v 0.005580 0.402126 -0.036852 0.180 0.500 0.200
v 0.009231 0.400469 -0.036978 0.180 0.500 0.200
v 0.012908 0.398812 -0.037086 0.180 0.500 0.200
v 0.016451 0.397155 -0.037278 0.180 0.500 0.200
v 0.019686 0.395498 -0.037658 0.180 0.500 0.200
v 0.022417 0.393841 -0.038349 0.180 0.500 0.200
v 0.024317 0.392184 -0.039550 0.180 0.500 0.200
v 0.024102 0.393841 -0.037313 0.180 0.500 0.200
v 0.024718 0.395498 -0.034564 0.180 0.500 0.200
v 0.025839 0.397155 -0.031505 0.180 0.500 0.200
v 0.027268 0.398812 -0.028258 0.180 0.500 0.200
v 0.028830 0.400469 -0.024927 0.180 0.500 0.200
v 0.030366 0.402126 -0.021613 0.180 0.500 0.200
v 0.031727 0.403783 -0.018407 0.180 0.500 0.200
v 0.032780 0.405440 -0.015390 0.180 0.500 0.200
v 0.033411 0.407097 -0.012632 0.180 0.500 0.200
v 0.033531 0.408754 -0.010189 0.180 0.500 0.200
v 0.033078 0.410411 -0.008098 0.180 0.500 0.200
v 0.032021 0.412068 -0.006378 0.180 0.500 0.200
v 0.030359 0.413724 -0.005030 0.180 0.500 0.200
v 0.028125 0.415381 -0.004035 0.180 0.500 0.200
v 0.025379 0.417038 -0.003353 0.180 0.500 0.200
v 0.022212 0.418695 -0.002931 0.180 0.500 0.200
v 0.018736 0.420352 -0.002698 0.180 0.500 0.200
v 0.015086 0.422009 -0.002573 0.180 0.500 0.200
v 0.011409 0.423666 -0.002464 0.180 0.500 0.200
v 0.007866 0.425323 -0.002273 0.180 0.500 0.200
v 0.004631 0.426980 -0.001892 0.180 0.500 0.200
v 0.001900 0.428637 -0.001202 0.180 0.500 0.200
f 783 784 785
f 783 785 784
f 783 785 786
f 783 786 785
f 783 786 787
f 783 787 786
f 783 787 788
f 783 788 787
f 783 788 789
f 783 789 788
f 783 789 790
f 783 790 789
f 783 790 791
f 783 791 790
f 783 791 792
f 783 792 791
f 783 792 793
f 783 793 792
f 783 793 794
f 783 794 793
f 783 794 795
f 783 795 794
f 783 795 796
f 783 796 795
f 783 796 797
f 783 797 796
f 783 797 798
f 783 798 797
f 783 798 799
f 783 799 798
f 783 799 800
f 783 800 799
f 783 800 801
f 783 801 800
f 783 801 802
f 783 802 801
f 783 802 803
f 783 803 802
f 783 803 804
f 783 804 803
f 783 804 805
f 783 805 804
f 783 805 806
f 783 806 805
f 783 806 807
f 783 807 806
f 783 807 808
f 783 808 807
f 783 808 809
f 783 809 808
f 783 809 810
f 783 810 809
f 783 810 811
f 783 811 810
f 783 811 812
f 783 812 811
f 783 812 813
f 783 813 812
f 783 813 814
f 783 814 813
f 783 814 815
f 783 815 814
f 783 815 816
f 783 816 815
f 783 816 817
f 783 817 816
f 783 817 818
f 783 818 817
f 783 818 819
f 783 819 818
f 783 819 820
f 783 820 819
f 783 820 821
f 783 821 820
f 783 821 822
f 783 822 821
f 783 822 823
f 783 823 822
f 783 823 824
f 783 824 823
f 783 824 825
f 783 825 824
f 783 825 826
f 783 826 825
f 783 826 827
f 783 827 826
f 783 827 828
f 783 828 827
v 0.000000 0.430294 -0.000000 0.180 0.500 0.200
v -0.001275 0.428030 -0.003098 0.180 0.500 0.200
v -0.003960 0.425767 -0.006268 0.180 0.500 0.200
v -0.007502 0.423503 -0.009482 0.180 0.500 0.200
v -0.011566 0.421240 -0.012723 0.180 0.500 0.200
v -0.015857 0.418976 -0.015976 0.180 0.500 0.200
v -0.020104 0.416712 -0.019226 0.180 0.500 0.200
v -0.024053 0.414449 -0.022461 0.180 0.500 0.200
v -0.027479 0.412185 -0.025670 0.180 0.500 0.200
v -0.030190 0.409922 -0.028841 0.180 0.500 0.200
v -0.032032 0.407658 -0.031968 0.180 0.500 0.200
v -0.032903 0.405395 -0.035045 0.180 0.500 0.200
v -0.032748 0.403131 -0.038070 0.180 0.500 0.200
v -0.031567 0.400867 -0.041042 0.180 0.500 0.200
v -0.029414 0.398604 -0.043964 0.180 0.500 0.200
v -0.026393 0.396340 -0.046841 0.180 0.500 0.200
v -0.022657 0.394077 -0.049682 0.180 0.500 0.200
v -0.018397 0.391813 -0.052496 0.180 0.500 0.200
v -0.013840 0.389550 -0.055295 0.180 0.500 0.200
v -0.009238 0.387286 -0.058091 0.180 0.500 0.200
v -0.004865 0.385022 -0.060900 0.180 0.500 0.200
v -0.001012 0.382759 -0.063735 0.180 0.500 0.200
v 0.001983 0.380495 -0.066613 0.180 0.500 0.200
v 0.003569 0.378232 -0.069565 0.180 0.500 0.200
v 0.004843 0.380495 -0.066467 0.180 0.500 0.200
v 0.007529 0.382759 -0.063296 0.180 0.500 0.200
v 0.011071 0.385022 -0.060082 0.180 0.500 0.200
v 0.015134 0.387286 -0.056841 0.180 0.500 0.200
v 0.019426 0.389550 -0.053589 0.180 0.500 0.200
v 0.023672 0.391813 -0.050338 0.180 0.500 0.200
v 0.027622 0.394077 -0.047103 0.180 0.500 0.200
v 0.031048 0.396340 -0.043895 0.180 0.500 0.200
v 0.033758 0.398604 -0.040723 0.180 0.500 0.200
v 0.035601 0.400867 -0.037596 0.180 0.500 0.200
v 0.036472 0.403131 -0.034519 0.180 0.500 0.200
v 0.036316 0.405395 -0.031495 0.180 0.500 0.200
v 0.035136 0.407658 -0.028523 0.180 0.500 0.200
v 0.032982 0.409922 -0.025601 0.180 0.500 0.200
v 0.029962 0.412185 -0.022723 0.180 0.500 0.200
v 0.026225 0.414449 -0.019882 0.180 0.500 0.200
v 0.021965 0.416712 -0.017068 0.180 0.500 0.200
v 0.017409 0.418976 -0.014269 0.180 0.500 0.200
v 0.012807 0.421240 -0.011473 0.180 0.500 0.200
v 0.008433 0.423503 -0.008665 0.180 0.500 0.200
v 0.004581 0.425767 -0.005830 0.180 0.500 0.200
v 0.001585 0.428030 -0.002951 0.180 0.500 0.200
f 829 830 831
f 829 831 830
f 829 831 832
f 829 832 831
f 829 832 833
f 829 833 832
f 829 833 834
f 829 834 833
f 829 834 835
f 829 835 834
f 829 835 836
f 829 836 835
f 829 836 837
f 829 837 836
f 829 837 838
f 829 838 837
f 829 838 839
f 829 839 838
f 829 839 840
f 829 840 839
f 829 840 841
f 829 841 840
f 829 841 842
f 829 842 841
f 829 842 843
f 829 843 842
f 829 843 844
f 829 844 843
f 829 844 845
f 829 845 844
f 829 845 846
f 829 846 845
f 829 846 847
f 829 847 846
f 829 847 848
f 829 848 847
f 829 848 849
f 829 849 848
f 829 849 850
f 829 850 849
f 829 850 851
f 829 851 850
f 829 851 852
f 829 852 851
f 829 852 853
f 829 853 852
f 829 853 854
f 829 854 853
f 829 854 855
f 829 855 854
f 829 855 856
f 829 856 855
f 829 856 857
f 829 857 856
f 829 857 858
f 829 858 857
f 829 858 859
f 829 859 858
f 829 859 860
f 829 860 859
f 829 860 861
f 829 861 860
f 829 861 862
f 829 862 861
f 829 862 863
f 829 863 862
f 829 863 864
f 829 864 863
f 829 864 865
f 829 865 864
f 829 865 866
f 829 866 865
f 829 866 867
f 829 867 866
f 829 867 868
f 829 868 867
f 829 868 869
f 829 869 868
f 829 869 870
f 829 870 869
f 829 870 871
f 829 871 870
f 829 871 872
f 829 872 871
f 829 872 873
f 829 873 872
f 829 873 874
f 829 874 873
v 0.000000 0.430294 -0.000000 0.180 0.500 0.200
v -0.002769 0.428709 -0.002461 0.180 0.500 0.200
v -0.006807 0.427123 -0.004312 0.180 0.500 0.200
v -0.011615 0.425538 -0.005792 0.180 0.500 0.200
v -0.016892 0.423953 -0.007046 0.180 0.500 0.200
v -0.022374 0.422368 -0.008201 0.180 0.500 0.200
v -0.027815 0.420782 -0.009376 0.180 0.500 0.200
v -0.032990 0.419197 -0.010679 0.180 0.500 0.200
v -0.037694 0.417612 -0.012209 0.180 0.500 0.200
v -0.041754 0.416027 -0.014048 0.180 0.500 0.200
v -0.045034 0.414441 -0.016264 0.180 0.500 0.200
v -0.047440 0.412856 -0.018900 0.180 0.500 0.200
v -0.048923 0.411271 -0.021981 0.180 0.500 0.200
v -0.049484 0.409686 -0.025506 0.180 0.500 0.200
v -0.049170 0.408100 -0.029451 0.180 0.500 0.200
v -0.048077 0.406515 -0.033773 0.180 0.500 0.200
v -0.046340 0.404930 -0.038404 0.180 0.500 0.200
v -0.044132 0.403345 -0.043262 0.180 0.500 0.200
v -0.041657 0.401759 -0.048248 0.180 0.500 0.200
v -0.039142 0.400174 -0.053254 0.180 0.500 0.200
v -0.036832 0.398589 -0.058162 0.180 0.500 0.200
v -0.034990 0.397004 -0.062843 0.180 0.500 0.200
v -0.033919 0.395418 -0.067154 0.180 0.500 0.200
v -0.034117 0.393833 -0.070853 0.180 0.500 0.200
v -0.031347 0.395418 -0.068392 0.180 0.500 0.200
v -0.027310 0.397004 -0.066541 0.180 0.500 0.200
v -0.022502 0.398589 -0.065062 0.180 0.500 0.200
v -0.017225 0.400174 -0.063808 0.180 0.500 0.200
v -0.011743 0.401759 -0.062652 0.180 0.500 0.200
v -0.006301 0.403345 -0.061478 0.180 0.500 0.200
v -0.001127 0.404930 -0.060175 0.180 0.500 0.200
v 0.003577 0.406515 -0.058645 0.180 0.500 0.200
v 0.007637 0.408100 -0.056805 0.180 0.500 0.200
v 0.010917 0.409686 -0.054589 0.180 0.500 0.200
v 0.013323 0.411271 -0.051953 0.180 0.500 0.200
v 0.014806 0.412856 -0.048872 0.180 0.500 0.200
v 0.015367 0.414441 -0.045348 0.180 0.500 0.200
v 0.015054 0.416027 -0.041402 0.180 0.500 0.200
v 0.013960 0.417612 -0.037081 0.180 0.500 0.200
v 0.012223 0.419197 -0.032449 0.180 0.500 0.200
v 0.010015 0.420782 -0.027591 0.180 0.500 0.200
v 0.007540 0.422368 -0.022605 0.180 0.500 0.200
v 0.005025 0.423953 -0.017599 0.180 0.500 0.200
v 0.002715 0.425538 -0.012692 0.180 0.500 0.200
v 0.000874 0.427123 -0.008010 0.180 0.500 0.200
v -0.000197 0.428709 -0.003700 0.180 0.500 0.200
f 875 876 877
f 875 877 876
f 875 877 878
f 875 878 877
f 875 878 879
f 875 879 878
f 875 879 880
f 875 880 879
f 875 880 881
f 875 881 880
f 875 881 882
f 875 882 881
f 875 882 883
f 875 883 882
f 875 883 884
f 875 884 883
f 875 884 885
f 875 885 884
f 875 885 886
f 875 886 885
f 875 886 887
f 875 887 886
f 875 887 888
f 875 888 887
f 875 888 889
f 875 889 888
f 875 889 890
f 875 890 889
f 875 890 891
f 875 891 890
f 875 891 892
f 875 892 891
f 875 892 893
f 875 893 892
f 875 893 894
f 875 894 893
f 875 894 895
f 875 895 894
f 875 895 896
f 875 896 895
f 875 896 897
f 875 897 896
f 875 897 898
f 875 898 897
f 875 898 899
f 875 899 898
f 875 899 900
f 875 900 899
f 875 900 901
f 875 901 900
f 875 901 902
f 875 902 901
f 875 902 903
f 875 903 902
f 875 903 904
f 875 904 903
f 875 904 905
f 875 905 904
f 875 905 906
f 875 906 905
f 875 906 907
f 875 907 906
f 875 907 908
f 875 908 907
f 875 908 909
f 875 909 908
f 875 909 910
f 875 910 909
f 875 910 911
f 875 911 910
f 875 911 912
f 875 912 911
f 875 912 913
f 875 913 912
f 875 913 914
f 875 914 913
f 875 914 915
f 875 915 914
f 875 915 916
f 875 916 915
f 875 916 917
f 875 917 916
f 875 917 918
f 875 918 917
f 875 918 919
f 875 919 918
f 875 919 920
f 875 920 919
