o mesh
v 1.448614 3.984633 -0.000516
v 1.467487 3.990172 0.032121
v 1.429742 3.995237 0.030843
v 1.381303 3.513066 0.118431
v 1.400176 3.518604 0.151067
v 1.362431 3.523669 0.149790
f 1 2 5
f 1 5 4
f 2 3 6
f 2 6 5
f 3 1 4
f 3 4 6
v 1.377943 3.518446 0.128243
v 1.386848 3.528027 0.144395
v 1.379119 3.508865 0.146650
v 1.688934 3.382345 0.037532
v 1.697838 3.391926 0.053685
v 1.690110 3.372764 0.055939
f 7 8 11
f 7 11 10
f 8 9 12
f 8 12 11
f 9 7 10
f 9 10 12
v 1.381303 3.518530 0.117763
v 1.399994 3.522101 0.150777
v 1.362613 3.514708 0.150749
v 1.483426 3.002146 0.115807
v 1.502117 3.005717 0.148821
v 1.464736 2.998325 0.148793
f 13 14 17
f 13 17 16
f 14 15 18
f 14 18 17
f 15 13 16
f 15 16 18
v 1.471747 3.002063 0.140564
v 1.488630 3.012080 0.133736
v 1.489901 2.992045 0.139120
v 1.378484 2.889991 -0.254482
v 1.395367 2.900009 -0.261310
v 1.396638 2.879974 -0.255926
f 19 20 23
f 19 23 22
f 20 21 24
f 20 24 23
f 21 19 22
f 21 22 24
v 1.500865 3.002063 0.151220
v 1.464459 3.011032 0.144425
v 1.484955 2.993094 0.117776
v 1.363439 2.579598 0.329893
v 1.327033 2.588566 0.323098
v 1.347530 2.570629 0.296449
f 25 26 29
f 25 29 28
f 26 27 30
f 26 30 29
f 27 25 28
f 27 28 30
v 1.352567 2.579598 0.306435
v 1.344454 2.589781 0.322637
v 1.340982 2.569414 0.320367
v 1.836473 2.461842 0.622751
v 1.828360 2.472025 0.638953
v 1.824888 2.451659 0.636683
f 31 32 35
f 31 35 34
f 32 33 36
f 32 36 35
f 33 31 34
f 33 34 36
v 1.346001 2.574576 0.295061
v 1.364016 2.588146 0.325774
v 1.327986 2.576070 0.328605
v 1.525652 2.066487 0.414170
v 1.543667 2.080057 0.444883
v 1.507637 2.067981 0.447714
f 37 38 41
f 37 41 40
f 38 39 42
f 38 42 41
f 39 37 40
f 39 40 42
v 1.536587 2.071508 0.440530
v 1.517765 2.080081 0.438472
v 1.522602 2.062936 0.427765
v 1.415959 1.870741 0.707532
v 1.397137 1.879313 0.705475
v 1.401974 1.862168 0.694768
f 43 44 47
f 43 47 46
f 44 45 48
f 44 48 47
f 45 43 46
f 45 46 48
v 1.510872 2.071508 0.451886
v 1.521995 2.083366 0.417423
v 1.544088 2.059650 0.437459
v 1.317152 1.742616 0.276203
v 1.328274 1.754474 0.241740
v 1.350368 1.730758 0.261776
f 49 50 53
f 49 53 52
f 50 51 54
f 50 54 53
f 51 49 52
f 51 52 54
v 1.331931 1.741724 0.237924
v 1.350898 1.744867 0.270824
v 1.312965 1.741257 0.270970
v 1.379133 1.246624 0.258023
v 1.398099 1.249768 0.290922
v 1.360166 1.246157 0.291069
f 55 56 59
f 55 59 58
f 56 57 60
f 56 60 59
f 57 55 58
f 57 58 60
v 1.379133 1.255214 0.259395
v 1.398032 1.245927 0.291153
v 1.360233 1.241408 0.289465
v 1.443549 0.782425 0.082801
v 1.462448 0.773137 0.114559
v 1.424650 0.768618 0.112871
f 61 62 65
f 61 65 64
f 62 63 66
f 62 66 65
f 63 61 64
f 63 64 66
v 1.443549 0.775219 0.081416
v 1.461395 0.767810 0.114258
v 1.425703 0.781151 0.114557
v 1.268863 0.308093 0.070960
v 1.286709 0.300684 0.103803
v 1.251017 0.314025 0.104101
f 67 68 71
f 67 71 70
f 68 69 72
f 68 72 71
f 69 67 70
f 69 70 72
v 1.258379 0.307601 0.112296
v 1.264281 0.323032 0.077959
v 1.283929 0.292170 0.088609
v 1.127747 0.200000 0.041489
v 1.133648 0.215431 0.007152
v 1.153296 0.184569 0.017802
f 73 74 77
f 73 77 76
f 74 75 78
f 74 78 77
f 75 73 76
f 75 76 78
v 0.853533 3.983726 -1.801383
v 0.872448 3.995349 -1.770413
v 0.834618 3.990966 -1.769106
v 0.891796 3.680455 -1.710929
v 0.910711 3.692078 -1.679959
v 0.872882 3.687695 -1.678652
f 79 80 83
f 79 83 82
f 80 81 84
f 80 84 83
f 81 79 82
f 81 82 84
v 0.891796 3.686648 -1.711847
v 0.910503 3.690406 -1.678862
v 0.873090 3.683173 -1.678831
v 0.994087 3.157607 -1.709582
v 1.012793 3.161365 -1.676598
v 0.975381 3.154132 -1.676567
f 85 86 89
f 85 89 88
f 86 87 90
f 86 90 89
f 87 85 88
f 87 88 90
v 0.984105 3.157701 -1.707187
v 1.013872 3.167049 -1.685312
v 0.984283 3.148354 -1.670247
v 1.153992 2.819118 -1.793680
v 1.183759 2.828465 -1.771804
v 1.154169 2.809770 -1.756740
f 91 92 95
f 91 95 94
f 92 93 96
f 92 96 95
f 93 91 94
f 93 94 96
v 1.163973 2.825177 -1.795224
v 1.182922 2.814174 -1.764048
v 1.145025 2.818001 -1.762952
v 1.112732 2.356305 -1.929566
v 1.131681 2.345302 -1.898391
v 1.093784 2.349129 -1.897294
f 97 98 101
f 97 101 100
f 98 99 102
f 98 102 101
f 99 97 100
f 99 100 102
v 1.112732 2.353734 -1.930139
v 1.131199 2.353129 -1.896813
v 1.094265 2.343873 -1.898299
v 1.205387 1.993308 -1.988016
v 1.223854 1.992704 -1.954690
v 1.186920 1.983448 -1.956176
f 103 104 107
f 103 107 106
f 104 105 108
f 104 108 107
f 105 103 106
f 105 106 108
v 1.205387 1.981554 -1.986682
v 1.224315 1.991940 -1.955284
v 1.186459 1.995967 -1.956917
v 1.163128 1.640349 -1.848333
v 1.182056 1.650736 -1.816935
v 1.144200 1.654762 -1.818567
f 109 110 113
f 109 113 112
f 110 111 114
f 110 114 113
f 111 109 112
f 111 112 114
v 1.170968 1.648616 -1.818860
v 1.157843 1.658850 -1.831310
v 1.160573 1.638381 -1.833665
v 0.973982 1.602783 -1.648876
v 0.960857 1.613018 -1.661326
v 0.963587 1.592548 -1.663682
f 115 116 119
f 115 119 118
f 116 117 120
f 116 120 119
f 117 115 118
f 117 118 120
v 1.448614 3.994755 -0.000667
v 1.466329 3.994493 0.033070
v 1.430900 3.980794 0.030046
v 1.589852 3.646434 -0.077544
v 1.607566 3.646171 -0.043808
v 1.572137 3.632472 -0.046831
f 121 122 125
f 121 125 124
f 122 123 126
f 122 126 125
f 123 121 124
f 123 124 126
v 1.589852 3.637490 -0.077656
v 1.608158 3.648977 -0.046272
v 1.571546 3.638610 -0.044255
v 1.710788 3.225973 0.002434
v 1.729094 3.237460 0.033817
v 1.692482 3.227093 0.035835
f 127 128 131
f 127 131 130
f 128 129 132
f 128 132 131
f 129 127 130
f 129 130 132
v 1.710788 3.230314 0.002029
v 1.729597 3.233140 0.035048
v 1.691978 3.227072 0.035010
v 1.774740 2.833814 -0.000475
v 1.793549 2.836639 0.032544
v 1.755931 2.830572 0.032506
f 133 134 137
f 133 137 136
f 134 135 138
f 134 138 137
f 135 133 136
f 135 136 138
v 1.774740 2.836386 -0.000307
v 1.792399 2.825222 0.031560
v 1.757081 2.839417 0.033323
v 1.574950 2.346848 -0.061096
v 1.592609 2.335683 -0.029229
v 1.557291 2.349879 -0.027467
f 139 140 143
f 139 143 142
f 140 141 144
f 140 144 143
f 141 139 142
f 141 142 144
v 1.567739 2.344136 -0.029672
v 1.578010 2.354506 -0.044470
v 1.579101 2.333767 -0.043649
v 1.159068 2.310460 -0.336918
v 1.169338 2.320829 -0.351716
v 1.170430 2.300090 -0.350895
f 145 146 149
f 145 149 148
f 146 147 150
f 146 150 149
f 147 145 148
f 147 148 150
v 1.574950 2.336830 -0.060015
v 1.593691 2.351025 -0.030027
v 1.556209 2.344555 -0.027749
v 1.652848 1.935316 0.081356
v 1.671589 1.949510 0.111343
v 1.634107 1.943040 0.113622
f 151 152 155
f 151 155 154
f 152 153 156
f 152 156 155
f 153 151 154
f 153 154 156
v 1.652848 1.951370 0.081921
v 1.671613 1.941273 0.113511
v 1.634083 1.935223 0.110889
v 1.737887 1.507223 -0.110567
v 1.756653 1.497126 -0.078977
v 1.719122 1.491076 -0.081599
f 157 158 161
f 157 161 160
f 158 159 162
f 158 162 161
f 159 157 160
f 159 160 162
v 1.724378 1.498475 -0.073017
v 1.732199 1.509173 -0.108744
v 1.757085 1.487778 -0.089382
v 1.525013 1.126201 -0.228127
v 1.532833 1.136899 -0.263854
v 1.557720 1.115504 -0.244491
f 163 164 167
f 163 167 166
f 164 165 168
f 164 168 167
f 165 163 166
f 165 166 168
v 1.528422 1.126201 -0.251971
v 1.544641 1.136403 -0.243917
v 1.542502 1.115999 -0.240584
v 1.699484 1.064715 -0.518566
v 1.715703 1.074917 -0.510512
v 1.713564 1.054513 -0.507179
f 169 170 173
f 169 173 172
f 170 171 174
f 170 174 173
f 171 169 172
f 171 172 174
v 1.115019 3.994650 1.607826
v 1.133684 3.991431 1.640890
v 1.096353 3.983961 1.639279
v 1.220337 3.491695 1.499404
v 1.239003 3.488476 1.532469
v 1.201672 3.481006 1.530858
f 175 176 179
f 175 179 178
f 176 177 180
f 176 180 179
f 177 175 178
f 177 178 180
v 1.231440 3.487059 1.525463
v 1.214054 3.497271 1.520419
v 1.215518 3.476848 1.516849
v 1.115997 3.429565 1.806972
v 1.098611 3.439777 1.801928
v 1.100075 3.419353 1.798357
f 181 182 185
f 181 185 184
f 182 183 186
f 182 186 185
f 183 181 184
f 183 184 186
v 1.220337 3.482008 1.499498
v 1.239352 3.490744 1.531343
v 1.201322 3.488426 1.531890
v 1.247118 3.065856 1.597679
v 1.266134 3.074592 1.629524
v 1.228103 3.072274 1.630071
f 187 188 191
f 187 191 190
f 188 189 192
f 188 192 191
f 189 187 190
f 189 190 192
v 1.247118 3.070925 1.597091
v 1.264794 3.078009 1.630097
v 1.229443 3.063787 1.630085
v 1.390754 2.713885 1.596799
v 1.408430 2.720969 1.629805
v 1.373078 2.706747 1.629793
f 193 194 197
f 193 197 196
f 194 195 198
f 194 198 197
f 195 193 196
f 195 196 198
v 1.390754 2.707154 1.597848
v 1.408819 2.711458 1.631122
v 1.372689 2.722989 1.627427
v 1.211826 2.198718 1.760760
v 1.229891 2.203022 1.794034
v 1.193761 2.214553 1.790339
f 199 200 203
f 199 203 202
f 200 201 204
f 200 204 203
f 201 199 202
f 201 202 204
v 1.211826 2.214108 1.761494
v 1.230678 2.203626 1.792906
v 1.192974 2.198560 1.790732
v 1.263889 1.886838 1.621033
v 1.282741 1.876355 1.652445
v 1.245037 1.871290 1.650271
f 205 206 209
f 205 209 208
f 206 207 210
f 206 210 209
f 207 205 208
f 207 208 210
v 1.256958 1.878161 1.651046
v 1.263789 1.887591 1.633829
v 1.270919 1.868731 1.638874
v 0.846543 1.645338 1.360676
v 0.853375 1.654768 1.343459
v 0.860505 1.635908 1.348504
f 211 212 215
f 211 215 214
f 212 213 216
f 212 216 215
f 213 211 214
f 213 214 216
v 1.263889 1.874110 1.619626
v 1.282114 1.874726 1.653085
v 1.245664 1.885647 1.651039
v 1.113242 1.388361 1.710626
v 1.131467 1.388978 1.744084
v 1.095017 1.399898 1.742039
f 217 218 221
f 217 221 220
f 218 219 222
f 218 222 221
f 219 217 220
f 219 220 222
v 1.113242 1.398641 1.711150
v 1.131529 1.384171 1.741286
v 1.094955 1.394425 1.744313
v 0.975553 0.946916 1.577798
v 0.993840 0.932445 1.607935
v 0.957266 0.942700 1.610962
f 223 224 227
f 223 227 226
f 224 225 228
f 224 228 227
f 225 223 226
f 225 226 228
v 0.981542 0.940687 1.577729
v 0.988517 0.950066 1.613997
v 0.956601 0.931309 1.604969
v 1.146770 0.637043 1.624467
v 1.153746 0.646422 1.660735
v 1.121829 0.627665 1.651707
f 229 230 233
f 229 233 232
f 230 231 234
f 230 234 233
f 231 229 232
f 231 232 234
v 1.140782 0.628899 1.625200
v 1.159703 0.639046 1.656680
v 1.121860 0.643185 1.655030
v 1.090295 0.230625 1.783912
v 1.109217 0.240771 1.815392
v 1.071373 0.244911 1.813743
f 235 236 239
f 235 239 238
f 236 237 240
f 236 240 239
f 237 235 238
f 237 238 240
v 1.095123 0.238769 1.793363
v 1.093469 0.247180 1.812297
v 1.082294 0.230358 1.807387
v 1.268508 0.101347 1.869549
v 1.266855 0.109758 1.888484
v 1.255679 0.092936 1.883573
f 241 242 245
f 241 245 244
f 242 243 246
f 242 246 245
f 243 241 244
f 243 244 246
v -2.604688 3.990014 0.880350
v -2.613860 3.998375 0.844322
v -2.580516 3.981653 0.852105
v -2.798384 3.582755 0.835142
v -2.807555 3.591116 0.799115
v -2.774212 3.574394 0.806897
f 247 248 251
f 247 251 250
f 248 249 252
f 248 252 251
f 249 247 250
f 249 250 252
v -2.784428 3.582755 0.833813
v -2.812200 3.593552 0.810061
v -2.783523 3.571958 0.797280
v -2.984145 3.264839 0.922820
v -3.011917 3.275636 0.899068
v -2.983240 3.254043 0.886288
f 253 254 257
f 253 257 256
f 254 255 258
f 254 258 257
f 255 253 256
f 255 256 258
v -2.993101 3.264121 0.880737
v -2.974068 3.266076 0.913691
v -3.012133 3.264322 0.913748
v -2.978268 2.942505 0.891252
v -2.959235 2.944460 0.924206
v -2.997300 2.942707 0.924263
f 259 260 263
f 259 263 262
f 260 261 264
f 260 264 263
f 261 259 262
f 261 262 264
v -2.983283 2.943224 0.902338
v -2.973900 2.953413 0.917835
v -2.977620 2.933035 0.919547
v -2.519062 2.840534 0.688776
v -2.509679 2.850723 0.704273
v -2.513399 2.830346 0.705985
f 265 266 269
f 265 269 268
f 266 267 270
f 266 270 269
f 267 265 268
f 267 268 270
v -2.978268 2.939159 0.891619
v -2.959298 2.943509 0.924379
v -2.997237 2.947003 0.923722
v -3.028768 2.409538 0.991186
v -3.009798 2.413888 1.023947
v -3.047737 2.417382 1.023290
f 271 272 275
f 271 275 274
f 272 273 276
f 272 276 275
f 273 271 274
f 273 274 276
v -3.028768 2.413898 0.990810
v -3.010990 2.420306 1.023899
v -3.046545 2.406602 1.023714
v -2.893883 2.064005 0.986101
v -2.876105 2.070413 1.019190
v -2.911660 2.056709 1.019006
f 277 278 281
f 277 281 280
f 278 279 282
f 278 282 281
f 279 277 280
f 279 280 282
v -2.875490 2.063709 0.996028
v -2.894060 2.073341 1.027877
v -2.912098 2.054076 1.000391
v -2.758991 1.701355 1.173547
v -2.777562 1.710988 1.205395
v -2.795600 1.691723 1.177909
f 283 284 287
f 283 287 286
f 284 285 288
f 284 288 287
f 285 283 286
f 285 286 288
v -2.789302 1.701355 1.187016
v -2.772352 1.708049 1.177022
v -2.770498 1.694662 1.192813
v -2.803854 1.553108 1.063049
v -2.786904 1.559802 1.053055
v -2.785050 1.546415 1.068846
f 289 290 293
f 289 293 292
f 290 291 294
f 290 294 293
f 291 289 292
f 291 292 294
v 0.186342 3.988322 1.414795
v 0.204136 3.997650 1.447174
v 0.168548 3.984070 1.448221
v 0.370195 3.509361 1.451749
v 0.387989 3.518689 1.484127
v 0.352401 3.505109 1.485175
f 295 296 299
f 295 299 298
f 296 297 300
f 296 300 299
f 297 295 298
f 297 298 300
v 0.370195 3.505834 1.452311
v 0.389218 3.512642 1.484619
v 0.351171 3.514682 1.484120
v 0.342924 3.025944 1.569492
v 0.361948 3.032752 1.601799
v 0.323901 3.034792 1.601301
f 301 302 305
f 301 305 304
f 302 303 306
f 302 306 305
f 303 301 304
f 303 304 306
v 0.342924 3.030566 1.568872
v 0.361878 3.029528 1.601913
v 0.323970 3.033393 1.601808
v 0.290798 2.519654 1.582727
v 0.309752 2.518617 1.615768
v 0.271844 2.522481 1.615663
f 307 308 311
f 307 311 310
f 308 309 312
f 308 312 311
f 309 307 310
f 309 310 312
v 0.299898 2.520251 1.596897
v 0.289531 2.529341 1.612449
v 0.282965 2.511160 1.604812
v 0.562702 2.296933 1.902598
v 0.552336 2.306024 1.918151
v 0.545770 2.287842 1.910513
f 313 314 317
f 313 317 316
f 314 315 318
f 314 318 317
f 315 313 316
f 315 316 318
v 0.276172 2.520251 1.588285
v 0.310113 2.530492 1.602255
v 0.286110 2.510010 1.623618
v 0.464566 2.124593 1.420615
v 0.498507 2.134834 1.434585
v 0.474504 2.114352 1.455948
f 319 320 323
f 319 323 322
f 320 321 324
f 320 324 323
f 321 319 322
f 321 322 324
v 0.462019 2.124593 1.423299
v 0.497830 2.134810 1.431371
v 0.477728 2.114376 1.456478
v 0.588960 1.804931 1.264755
v 0.624771 1.815148 1.272828
v 0.604669 1.794714 1.297934
f 325 326 329
f 325 329 328
f 326 327 330
f 326 330 329
f 327 325 328
f 327 328 330
v 0.606134 1.801233 1.256819
v 0.625171 1.806037 1.289476
v 0.587096 1.807522 1.289223
v 0.585242 1.280808 1.345546
v 0.604280 1.285612 1.378203
v 0.566205 1.287097 1.377950
f 331 332 335
f 331 335 334
f 332 333 336
f 332 336 335
f 333 331 334
f 333 334 336
v 0.585242 1.280418 1.345616
v 0.604181 1.288591 1.377656
v 0.566303 1.284508 1.378428
v 0.639001 0.798925 1.436674
v 0.657940 0.807098 1.468713
v 0.620062 0.803015 1.469485
f 337 338 341
f 337 341 340
f 338 339 342
f 338 342 341
f 339 337 340
f 339 340 342
v 0.639001 0.807781 1.436813
v 0.658038 0.801388 1.469198
v 0.619965 0.799868 1.468860
v 0.661917 0.260800 1.315363
v 0.680953 0.254407 1.347747
v 0.642880 0.252887 1.347410
f 343 344 347
f 343 347 346
f 344 345 348
f 344 348 347
f 345 343 346
f 345 346 348
v 1.666467 2.601849 -0.572516
v 1.684049 2.606389 -0.539015
v 1.648885 2.591762 -0.540249
v 1.826202 2.220564 -0.604671
v 1.843785 2.225104 -0.571171
v 1.808620 2.210477 -0.572404
f 349 350 353
f 349 353 352
f 350 351 354
f 350 354 353
f 351 349 352
f 351 352 354
v 1.812584 2.218715 -0.565470
v 1.820342 2.228853 -0.601373
v 1.845681 2.208577 -0.581402
v 1.657781 1.905083 -0.687479
v 1.665539 1.915221 -0.723382
v 1.690878 1.894945 -0.703411
f 355 356 359
f 355 359 358
f 356 357 360
f 356 360 359
f 357 355 358
f 357 358 360
v 1.671399 1.901174 -0.726408
v 1.690291 1.909472 -0.694372
v 1.652508 1.904603 -0.693493
v 1.717557 1.554260 -0.663772
v 1.736448 1.562558 -0.631737
v 1.698666 1.557689 -0.630858
f 361 362 365
f 361 365 364
f 362 363 366
f 362 366 365
f 363 361 364
f 363 364 366
v 1.705795 1.558169 -0.644502
v 1.725055 1.564612 -0.648925
v 1.721821 1.551726 -0.632941
v 1.737040 1.358755 -0.798945
v 1.756299 1.365198 -0.803368
v 1.753065 1.352312 -0.787384
f 367 368 371
f 367 371 370
f 368 369 372
f 368 372 371
f 369 367 370
f 369 370 372
v 1.717557 1.552586 -0.663402
v 1.736584 1.560008 -0.631233
v 1.698530 1.561913 -0.631732
v 1.691696 1.069354 -0.536627
v 1.710723 1.076776 -0.504457
v 1.672669 1.078681 -0.504957
f 373 374 377
f 373 377 376
f 374 375 378
f 374 378 377
f 375 373 376
f 375 376 378
v 1.691696 1.070413 -0.536877
v 1.710677 1.078817 -0.504922
v 1.672715 1.075580 -0.504242
v 1.730432 0.635341 -0.445460
v 1.749412 0.643745 -0.413505
v 1.711451 0.640508 -0.412825
f 379 380 383
f 379 383 382
f 380 381 384
f 380 384 383
f 381 379 382
f 381 382 384
v 1.730432 0.641877 -0.445838
v 1.749205 0.635624 -0.413273
v 1.711658 0.642094 -0.412679
v 1.656511 0.216471 -0.484916
v 1.675284 0.210217 -0.452351
v 1.637737 0.216687 -0.451757
f 385 386 389
f 385 389 388
f 386 387 390
f 386 390 389
f 387 385 388
f 387 388 390
v -0.721097 3.990014 1.249870
v -0.757287 3.999358 1.257286
v -0.748620 3.980670 1.225229
v -0.767148 3.676461 1.420211
v -0.803338 3.685805 1.427627
v -0.794671 3.667117 1.395570
f 391 392 395
f 391 395 394
f 392 393 396
f 392 396 395
f 393 391 394
f 393 394 396
v -0.783345 3.676461 1.403579
v -0.785026 3.684586 1.422636
v -0.796786 3.668335 1.417192
v -0.637975 3.548721 1.470865
v -0.639656 3.556847 1.489922
v -0.651416 3.540596 1.484478
f 397 398 401
f 397 401 400
f 398 399 402
f 398 402 401
f 399 397 400
f 399 400 402
v -0.788386 3.682431 1.393295
v -0.769370 3.672332 1.424734
v -0.807401 3.674619 1.425379
v -0.811267 3.330026 1.293937
v -0.792252 3.319928 1.325376
v -0.830283 3.322215 1.326021
f 403 404 407
f 403 407 406
f 404 405 408
f 404 408 407
f 405 403 406
f 405 406 408
v -0.804389 3.324056 1.294214
v -0.799080 3.333667 1.330703
v -0.830333 3.314446 1.320416
v -0.620588 2.992826 1.354711
v -0.615279 3.002436 1.391200
v -0.646532 2.983215 1.380914
f 409 410 413
f 409 413 412
f 410 411 414
f 410 414 413
f 411 409 412
f 411 412 414
v -0.627466 2.994832 1.353700
v -0.609727 2.998746 1.387196
v -0.645205 2.984900 1.385929
v -0.482642 2.626828 1.320010
v -0.464903 2.630743 1.353506
v -0.500381 2.616897 1.352239
f 415 416 419
f 415 419 418
f 416 417 420
f 416 420 419
f 417 415 418
f 417 418 420
v -0.494642 2.624822 1.341880
v -0.476625 2.633698 1.336531
v -0.476659 2.615947 1.347344
v -0.493352 2.379610 0.939339
v -0.475335 2.388485 0.933991
v -0.475369 2.370735 0.944803
f 421 422 425
f 421 425 424
f 422 423 426
f 422 426 425
f 423 421 424
f 423 424 426
v -0.468415 2.624822 1.358699
v -0.502626 2.633670 1.344439
v -0.476884 2.615975 1.322616
v -0.604391 2.284834 1.473977
v -0.638602 2.293681 1.459717
v -0.612860 2.275986 1.437893
f 427 428 431
f 427 431 430
f 428 429 432
f 428 432 431
f 429 427 430
f 429 430 432
v -0.618618 2.281332 1.435476
v -0.600122 2.291097 1.467328
v -0.637114 2.282072 1.468783
v -0.538783 1.962382 1.486897
v -0.520287 1.972147 1.518749
v -0.557279 1.963122 1.520204
f 433 434 437
f 433 437 436
f 434 435 438
f 434 438 437
f 435 433 436
f 435 436 438
v -0.532441 1.965884 1.498430
v -0.538532 1.975463 1.515841
v -0.545375 1.956305 1.511580
v -0.035760 1.719717 1.807639
v -0.041852 1.729296 1.825049
v -0.048695 1.710138 1.820789
f 439 440 443
f 439 443 442
f 440 441 444
f 440 444 443
f 441 439 442
f 441 442 444
v -0.538783 1.963819 1.486714
v -0.520071 1.963345 1.519905
v -0.557494 1.970488 1.519232
v -0.634389 1.467367 1.533519
v -0.615678 1.466892 1.566710
v -0.653101 1.474036 1.566037
f 445 446 449
f 445 449 448
f 446 447 450
f 446 450 449
f 447 445 448
f 447 448 450
v -0.623132 1.469432 1.551266
v -0.638785 1.479196 1.560839
v -0.641251 1.459668 1.554162
v -0.447169 1.284259 2.027869
v -0.462822 1.294022 2.037442
v -0.465288 1.274495 2.030765
f 451 452 455
f 451 455 454
f 452 453 456
f 452 456 455
f 453 451 454
f 453 454 456
v -0.634389 1.460261 1.535424
v -0.615372 1.475072 1.564937
v -0.653406 1.472961 1.565905
v -0.606375 1.043204 1.726678
v -0.587358 1.058015 1.756191
v -0.625392 1.055904 1.757159
f 457 458 461
f 457 461 460
f 458 459 462
f 458 462 461
f 459 457 460
f 459 460 462
v -1.310061 2.593825 -1.189021
v -1.291072 2.601597 -1.156912
v -1.329050 2.604578 -1.157784
v -1.339549 2.247743 -1.087811
v -1.320560 2.255515 -1.055702
v -1.358539 2.258496 -1.056574
f 463 464 467
f 463 467 466
f 464 465 468
f 464 468 467
f 465 463 466
f 465 466 468
v -1.339549 2.261252 -1.087438
v -1.320623 2.252311 -1.055597
v -1.358476 2.248192 -1.057053
v -1.286313 1.826380 -1.241191
v -1.267386 1.817439 -1.209350
v -1.305240 1.813320 -1.210807
f 469 470 473
f 469 473 472
f 470 471 474
f 470 474 473
f 471 469 472
f 471 472 474
v -1.286313 1.810628 -1.240775
v -1.267652 1.826804 -1.211756
v -1.304975 1.819706 -1.208817
v -1.202231 1.433198 -1.084467
v -1.183569 1.449373 -1.055448
v -1.220892 1.442276 -1.052508
f 475 476 479
f 475 479 478
f 476 477 480
f 476 480 479
f 477 475 478
f 477 478 480
v -1.218116 1.441616 -1.048920
v -1.205950 1.450496 -1.083922
v -1.182626 1.432735 -1.059580
v -1.388846 0.973192 -1.227102
v -1.376681 0.982073 -1.262104
v -1.353357 0.964312 -1.237762
f 481 482 485
f 481 485 484
f 482 483 486
f 482 486 485
f 483 481 484
f 483 484 486
v -1.361013 0.973192 -1.243433
v -1.378929 0.983584 -1.241697
v -1.378942 0.962800 -1.241837
v -1.317855 0.970028 -0.779200
v -1.335771 0.980420 -0.777464
v -1.335785 0.959636 -0.777604
f 487 488 491
f 487 491 490
f 488 489 492
f 488 492 491
f 489 487 490
f 489 490 492
v -1.352683 0.973192 -1.250853
v -1.376573 0.982114 -1.222540
v -1.389628 0.964271 -1.253575
v -1.273887 0.589727 -1.063532
v -1.297778 0.598649 -1.035219
v -1.310833 0.580806 -1.066254
f 493 494 497
f 493 497 496
f 494 495 498
f 494 498 497
f 495 493 496
f 495 496 498
v -1.294166 0.580518 -1.074981
v -1.275126 0.593689 -1.044715
v -1.313205 0.594975 -1.045308
v -1.310120 0.190791 -0.895339
v -1.291080 0.203962 -0.865074
v -1.329159 0.205248 -0.865666
f 499 500 503
f 499 503 502
f 500 501 504
f 500 504 503
f 501 499 502
f 501 502 504
v 1.757307 3.990014 0.940339
v 1.725872 3.998494 0.920541
v 1.755286 3.981534 0.903244
v 1.580738 3.577925 1.044170
v 1.549304 3.586405 1.024373
v 1.578717 3.569444 1.007076
f 505 506 509
f 505 509 508
f 506 507 510
f 506 510 509
f 507 505 508
f 507 508 510
v 1.569586 3.574228 1.003519
v 1.587251 3.572736 1.037249
v 1.551922 3.586811 1.034850
v 1.432967 3.240983 1.060319
v 1.450631 3.239490 1.094050
v 1.415302 3.253565 1.091651
f 511 512 515
f 511 515 514
f 512 513 516
f 512 516 515
f 513 511 514
f 513 514 516
v 1.445896 3.244679 1.064207
v 1.440271 3.253247 1.100908
v 1.412734 3.236111 1.080905
v 1.631373 2.789343 1.198932
v 1.625748 2.797910 1.235633
v 1.598211 2.780775 1.215630
f 517 518 521
f 517 521 520
f 518 519 522
f 518 522 521
f 519 517 520
f 519 520 522
v 1.618444 2.784292 1.195319
v 1.637266 2.794748 1.226759
v 1.599623 2.788988 1.228117
v 1.706268 2.240541 1.323578
v 1.725090 2.250996 1.355018
v 1.687447 2.245237 1.356376
f 523 524 527
f 523 527 526
f 524 525 528
f 524 528 527
f 525 523 526
f 525 526 528
v 1.706268 2.240916 1.323493
v 1.724431 2.253553 1.354516
v 1.688106 2.242305 1.356963
v 1.815084 1.905388 1.396460
v 1.833247 1.918024 1.427483
v 1.796922 1.906776 1.429930
f 529 530 533
f 529 533 532
f 530 531 534
f 530 534 533
f 531 529 532
f 531 532 534
v 1.815084 1.917248 1.397164
v 1.833335 1.901302 1.426569
v 1.796833 1.911638 1.430140
v 1.649172 1.393817 1.216290
v 1.667423 1.377871 1.245694
v 1.630921 1.388207 1.249266
f 535 536 539
f 535 539 538
f 536 537 540
f 536 540 539
f 537 535 538
f 537 538 540
v 1.649172 1.380207 1.216042
v 1.667337 1.384347 1.249282
v 1.631007 1.395340 1.245926
v 1.501585 0.934057 1.352260
v 1.519750 0.938196 1.385500
v 1.483419 0.949190 1.382144
f 541 542 545
f 541 545 544
f 542 543 546
f 542 546 545
f 543 541 544
f 543 544 546
v 1.494330 0.940481 1.382860
v 1.502325 0.950221 1.366331
v 1.508099 0.930741 1.370713
v 1.010447 0.714435 1.015609
v 1.018442 0.724175 0.999080
v 1.024216 0.704695 1.003462
f 547 548 551
f 547 551 550
f 548 549 552
f 548 552 551
f 549 547 550
f 549 550 552
v 1.501585 0.944607 1.351692
v 1.519336 0.931620 1.382808
v 1.483833 0.945215 1.385404
v 1.351008 0.565233 1.279252
v 1.368759 0.552246 1.310369
v 1.333257 0.565841 1.312965
f 553 554 557
f 553 557 556
f 554 555 558
f 554 558 557
f 555 553 556
f 555 556 558
v -1.956407 3.990014 0.169313
v -1.987821 4.000622 0.150534
v -1.961428 3.979406 0.133060
v -2.153588 3.637180 0.299864
v -2.185002 3.647788 0.281085
v -2.158609 3.626572 0.263611
f 559 560 563
f 559 563 562
f 560 561 564
f 560 564 563
f 561 559 562
f 561 562 564
v -2.175166 3.637180 0.274102
v -2.158615 3.646819 0.282175
v -2.163418 3.627541 0.288283
v -1.841352 3.419501 -0.150398
v -1.824801 3.429140 -0.142325
v -1.829604 3.409863 -0.136217
f 565 566 569
f 565 569 568
f 566 567 570
f 566 570 569
f 567 565 568
f 567 568 570
v -2.176389 3.637180 0.300767
v -2.174304 3.647697 0.264201
v -2.146506 3.626663 0.279592
v -2.376199 3.292152 0.190137
v -2.374114 3.302668 0.153572
v -2.346316 3.281635 0.168963
f 571 572 575
f 571 575 574
f 572 573 576
f 572 576 575
f 573 571 574
f 573 574 576
v -2.344822 3.292152 0.178283
v -2.381434 3.301747 0.182697
v -2.370372 3.282557 0.151691
v -2.407475 2.972303 0.353885
v -2.444087 2.981898 0.358299
v -2.433024 2.962708 0.327293
f 577 578 581
f 577 581 580
f 578 579 582
f 578 582 581
f 579 577 580
f 579 580 582
v -2.428195 2.978739 0.325455
v -2.409229 2.967353 0.356482
v -2.447162 2.970817 0.357541
v -2.476060 2.499360 0.178802
v -2.457093 2.487974 0.209828
v -2.495026 2.491438 0.210888
f 583 584 587
f 583 587 586
f 584 585 588
f 584 588 587
f 585 583 586
f 585 586 588
v -2.476060 2.489549 0.178100
v -2.457202 2.491927 0.211126
v -2.494918 2.497296 0.210292
v -2.531180 2.111408 0.236807
v -2.512322 2.113786 0.269833
v -2.550038 2.119155 0.268999
f 589 590 593
f 589 593 592
f 590 591 594
f 590 594 593
f 591 589 592
f 591 592 594
v -0.691699 3.990014 -1.248470
v -0.725736 3.999966 -1.262415
v -0.701404 3.980062 -1.283950
v -0.886874 3.564552 -1.075737
v -0.920911 3.574504 -1.089682
v -0.896578 3.554600 -1.111216
f 595 596 599
f 595 599 598
f 596 597 600
f 596 600 599
f 597 595 598
f 597 598 600
v -0.891821 3.564552 -1.099367
v -0.902643 3.572978 -1.083751
v -0.909898 3.556126 -1.093517
v -0.786305 3.436806 -0.957319
v -0.797127 3.445232 -0.941703
v -0.804382 3.428380 -0.951469
f 601 602 605
f 601 605 604
f 602 603 606
f 602 606 605
f 603 601 604
f 603 604 606
v -0.901454 3.559929 -1.113720
v -0.882416 3.566140 -1.081302
v -0.920492 3.567588 -1.081613
v -0.918123 3.140871 -1.023641
v -0.899084 3.147083 -0.991222
v -0.937161 3.148530 -0.991534
f 607 608 611
f 607 611 610
f 608 609 612
f 608 612 611
f 609 607 610
f 609 610 612
v -0.918123 3.142014 -1.023855
v -0.900085 3.153294 -0.992242
v -0.936160 3.141175 -0.990300
v -0.773857 2.723328 -0.956775
v -0.755820 2.734608 -0.925162
v -0.791895 2.722489 -0.923220
f 613 614 617
f 613 617 616
f 614 615 618
f 614 618 617
f 615 613 616
f 615 616 618
v -0.773857 2.718984 -0.955614
v -0.755456 2.735336 -0.926528
v -0.792259 2.726105 -0.923015
v -0.639651 2.251613 -0.777765
v -0.621250 2.267965 -0.748679
v -0.658052 2.258734 -0.745166
f 619 620 623
f 619 623 622
f 620 621 624
f 620 624 623
f 621 619 622
f 621 622 624
v -0.658223 2.259438 -0.745410
v -0.639483 2.268022 -0.777459
v -0.621247 2.250853 -0.748741
v -0.761786 1.876651 -0.908502
v -0.743046 1.885236 -0.940551
v -0.724811 1.868067 -0.911833
f 625 626 629
f 625 629 628
f 626 627 630
f 626 630 629
f 627 625 628
f 627 628 630
v -0.748857 1.876651 -0.909705
v -0.745529 1.885262 -0.928327
v -0.735258 1.868041 -0.922854
v -0.939216 1.730887 -1.011129
v -0.935887 1.739497 -1.029751
v -0.925617 1.722276 -1.024279
f 631 632 635
f 631 635 634
f 632 633 636
f 632 636 635
f 633 631 634
f 633 634 636
v -0.743214 1.872336 -0.941868
v -0.724163 1.878986 -0.909544
v -0.762266 1.878633 -0.909474
v -0.739455 1.481943 -0.863770
v -0.720403 1.488593 -0.831446
v -0.758507 1.488240 -0.831375
f 637 638 641
f 637 641 640
f 638 639 642
f 638 642 641
f 639 637 640
f 639 640 642
v -0.719465 1.486258 -0.833010
v -0.756287 1.496002 -0.831913
v -0.742613 1.476515 -0.861667
v -0.803534 1.147950 -0.650081
v -0.840356 1.157693 -0.648984
v -0.826682 1.138207 -0.678738
f 643 644 647
f 643 647 646
f 644 645 648
f 644 648 647
f 645 643 646
f 645 646 648
v -0.823524 1.148379 -0.681264
v -0.805582 1.141325 -0.648395
v -0.841465 1.154146 -0.648145
v -1.005768 0.638555 -0.691210
v -0.987827 0.631500 -0.658341
v -1.023710 0.644322 -0.658091
f 649 650 653
f 649 653 652
f 650 651 654
f 650 654 653
f 651 649 652
f 651 652 654
v -0.996459 0.638126 -0.649280
v -1.025786 0.646816 -0.672006
v -0.995060 0.629436 -0.686355
v -1.185508 0.231008 -0.560993
v -1.214835 0.239698 -0.583719
v -1.184109 0.222319 -0.598068
f 655 656 659
f 655 659 658
f 656 657 660
f 656 660 659
f 657 655 658
f 657 658 660
v -0.742335 3.986725 1.222376
v -0.723311 3.992693 1.254849
v -0.761358 3.990624 1.255161
v -0.713046 3.460112 1.301990
v -0.694022 3.466079 1.334463
v -0.732070 3.464010 1.334776
f 661 662 665
f 661 665 664
f 662 663 666
f 662 666 665
f 663 661 664
f 663 664 666
v -0.704414 3.463400 1.332079
v -0.717649 3.473784 1.319873
v -0.717075 3.453016 1.319278
v -1.064745 3.442757 1.705224
v -1.077980 3.453141 1.693017
v -1.077406 3.432373 1.692423
f 667 668 671
f 667 671 670
f 668 669 672
f 668 672 671
f 669 667 670
f 669 670 672
v -0.713046 3.462373 1.301767
v -0.695389 3.456765 1.335065
v -0.730704 3.471063 1.334397
v -0.899304 3.003333 1.323232
v -0.881646 2.997726 1.356530
v -0.916961 3.012024 1.355861
f 673 674 677
f 673 677 676
f 674 675 678
f 674 678 677
f 675 673 676
f 675 676 678
v -0.899304 2.999601 1.323729
v -0.880335 3.005003 1.356332
v -0.918273 3.008479 1.355562
v -0.948564 2.487172 1.437293
v -0.929595 2.492574 1.469896
v -0.967533 2.496050 1.469126
f 679 680 683
f 679 683 682
f 680 681 684
f 680 684 683
f 681 679 682
f 681 682 684
v -0.948564 2.499062 1.437959
v -0.930312 2.493537 1.470949
v -0.966816 2.483198 1.467407
v -0.813894 2.073505 1.292187
v -0.795642 2.067980 1.325177
v -0.832146 2.057642 1.321635
f 685 686 689
f 685 689 688
f 686 687 690
f 686 690 689
f 687 685 688
f 687 688 690
v -0.806183 2.066376 1.303805
v -0.812553 2.074249 1.321955
v -0.822947 2.058502 1.313238
v -0.568637 1.799308 1.503032
v -0.575007 1.807182 1.521182
v -0.585401 1.791434 1.512465
f 691 692 695
f 691 695 694
f 692 693 696
f 692 696 695
f 693 691 694
f 693 694 696
v -0.813894 2.060989 1.291669
v -0.795126 2.072251 1.322861
v -0.832662 2.065888 1.324468
v -0.734219 1.619141 1.403261
v -0.715451 1.630403 1.434453
v -0.752987 1.624040 1.436060
f 697 698 701
f 697 701 700
f 698 699 702
f 698 702 701
f 699 697 700
f 699 700 702
v -0.734219 1.617679 1.403685
v -0.715314 1.625704 1.435781
v -0.753124 1.630200 1.434308
v -0.795923 1.149084 1.557191
v -0.777018 1.157109 1.589288
v -0.814828 1.161605 1.587815
f 703 704 707
f 703 707 706
f 704 705 708
f 704 708 707
f 705 703 706
f 705 706 708
v -0.795923 1.150456 1.556791
v -0.776912 1.157444 1.589067
v -0.814933 1.159897 1.588437
v -0.831580 0.632091 1.690021
v -0.812569 0.639079 1.722297
v -0.850590 0.641532 1.721667
f 709 710 713
f 709 713 712
f 710 711 714
f 710 714 713
f 711 709 712
f 711 712 714
v -0.831580 0.641224 1.689634
v -0.813953 0.628608 1.720974
v -0.849207 0.642871 1.723377
v -1.000105 0.236166 1.621369
v -0.982478 0.223551 1.652708
v -1.017732 0.237813 1.655112
f 715 716 719
f 715 719 718
f 716 717 720
f 716 720 719
f 717 715 718
f 717 718 720
v -0.993153 0.232510 1.652844
v -1.004531 0.242837 1.638847
v -1.002631 0.222183 1.637497
v -1.483819 0.164559 2.001555
v -1.495197 0.174886 1.987558
v -1.493296 0.154232 1.986208
f 721 722 725
f 721 725 724
f 722 723 726
f 722 726 725
f 723 721 724
f 723 724 726
v -1.337416 3.988047 -0.578900
v -1.318707 3.994583 -0.546354
v -1.356125 3.987412 -0.545710
v -1.245204 3.510782 -0.536059
v -1.226495 3.517319 -0.503513
v -1.263914 3.510147 -0.502869
f 727 728 731
f 727 731 730
f 728 729 732
f 728 732 731
f 729 727 730
f 729 730 732
v -1.245204 3.517779 -0.535564
v -1.226233 3.508525 -0.503840
v -1.264176 3.511943 -0.503037
v -1.295480 2.988818 -0.659800
v -1.276508 2.979564 -0.628076
v -1.314451 2.982982 -0.627273
f 733 734 737
f 733 737 736
f 734 735 738
f 734 738 737
f 735 733 736
f 735 736 738
v -1.295480 2.982436 -0.660341
v -1.276817 2.980636 -0.627168
v -1.314143 2.988292 -0.627639
v -1.404948 2.450701 -0.627610
v -1.386285 2.448901 -0.594437
v -1.423610 2.456556 -0.594908
f 739 740 743
f 739 743 742
f 740 741 744
f 740 744 743
f 741 739 742
f 741 742 744
v -1.404948 2.458908 -0.626556
v -1.386509 2.453185 -0.593704
v -1.423386 2.444066 -0.596694
v -1.262088 1.937246 -0.797620
v -1.243649 1.931523 -0.764768
v -1.280526 1.922404 -0.767758
f 745 746 749
f 745 749 748
f 746 747 750
f 746 750 749
f 747 745 748
f 747 748 750
v -1.262088 1.938682 -0.797093
v -1.243286 1.929099 -0.765366
v -1.280889 1.923392 -0.767688
v -1.190598 1.534528 -0.961534
v -1.171796 1.524945 -0.929806
v -1.209400 1.519238 -0.932128
f 751 752 755
f 751 755 754
f 752 753 756
f 752 756 755
f 753 751 754
f 753 754 756
v -1.190598 1.520617 -0.962426
v -1.171551 1.529495 -0.930639
v -1.209645 1.528600 -0.930403
v -1.180863 1.133021 -0.860002
v -1.161816 1.141899 -0.828215
v -1.199910 1.141005 -0.827979
f 757 758 761
f 757 761 760
f 758 759 762
f 758 762 761
f 759 757 760
f 759 760 762
