o mesh
v 0.000000 -0.000712 0.011979
v 0.009980 -0.003249 0.005818
v 0.009980 -0.002538 -0.006161
v 0.000000 0.000712 -0.011979
v -0.009980 0.003249 -0.005818
v -0.009980 0.002538 0.006161
v 0.152813 0.524715 0.039188
v 0.159466 0.523023 0.035080
v 0.159466 0.523497 0.027094
v 0.152813 0.525663 0.023216
v 0.146160 0.527355 0.027323
v 0.146160 0.526881 0.035309
f 1 2 8
f 1 8 7
f 2 3 9
f 2 9 8
f 3 4 10
f 3 10 9
f 4 5 11
f 4 11 10
f 5 6 12
f 5 12 11
f 6 1 7
f 6 7 12
v 0.152813 0.525189 0.031202
v 0.163647 0.498954 0.109513
v 0.164882 0.476669 0.168367
v 0.162801 0.455748 0.220499
v 0.158199 0.435863 0.267523
v 0.151304 0.416922 0.309899
v 0.142168 0.398903 0.347731
v 0.130770 0.381815 0.380980
v 0.117066 0.365675 0.409555
v 0.101007 0.350504 0.433355
v 0.082548 0.336320 0.452292
v 0.061657 0.323137 0.466299
v 0.038317 0.310961 0.475342
v 0.012529 0.299793 0.479423
v -0.015692 0.289625 0.478574
v -0.046312 0.280444 0.472861
v -0.079287 0.272232 0.462373
v -0.114569 0.264969 0.447212
v -0.152112 0.258636 0.427467
v -0.191897 0.253226 0.403178
v -0.233974 0.248759 0.374242
v -0.278572 0.245328 0.340197
v -0.326486 0.243262 0.299430
v -0.384000 0.245145 0.239207
v -0.394835 0.271380 0.160895
v -0.396069 0.293665 0.102041
v -0.393988 0.314586 0.049909
v -0.389386 0.334470 0.002886
v -0.382492 0.353412 -0.039491
v -0.373355 0.371430 -0.077323
v -0.361957 0.388519 -0.110572
v -0.348253 0.404659 -0.139147
v -0.332194 0.419830 -0.162947
v -0.313735 0.434013 -0.181883
v -0.292844 0.447197 -0.195890
v -0.269504 0.459372 -0.204934
v -0.243716 0.470541 -0.209015
v -0.215496 0.480709 -0.208166
v -0.184876 0.489890 -0.202453
v -0.151900 0.498101 -0.191965
v -0.116618 0.505365 -0.176804
v -0.079076 0.511697 -0.157059
v -0.039290 0.517108 -0.132770
v 0.002787 0.521575 -0.103834
v 0.047385 0.525006 -0.069789
v 0.095299 0.527072 -0.029022
f 13 14 15
f 13 15 14
f 13 15 16
f 13 16 15
f 13 16 17
f 13 17 16
f 13 17 18
f 13 18 17
f 13 18 19
f 13 19 18
f 13 19 20
f 13 20 19
f 13 20 21
f 13 21 20
f 13 21 22
f 13 22 21
f 13 22 23
f 13 23 22
f 13 23 24
f 13 24 23
f 13 24 25
f 13 25 24
f 13 25 26
f 13 26 25
f 13 26 27
f 13 27 26
f 13 27 28
f 13 28 27
f 13 28 29
f 13 29 28
f 13 29 30
f 13 30 29
f 13 30 31
f 13 31 30
f 13 31 32
f 13 32 31
f 13 32 33
f 13 33 32
f 13 33 34
f 13 34 33
f 13 34 35
f 13 35 34
f 13 35 36
f 13 36 35
f 13 36 37
f 13 37 36
f 13 37 38
f 13 38 37
f 13 38 39
f 13 39 38
f 13 39 40
f 13 40 39
f 13 40 41
f 13 41 40
f 13 41 42
f 13 42 41
f 13 42 43
f 13 43 42
f 13 43 44
f 13 44 43
f 13 44 45
f 13 45 44
f 13 45 46
f 13 46 45
f 13 46 47
f 13 47 46
f 13 47 48
f 13 48 47
f 13 48 49
f 13 49 48
f 13 49 50
f 13 50 49
f 13 50 51
f 13 51 50
f 13 51 52
f 13 52 51
f 13 52 53
f 13 53 52
f 13 53 54
f 13 54 53
f 13 54 55
f 13 55 54
f 13 55 56
f 13 56 55
f 13 56 57
f 13 57 56
f 13 57 58
f 13 58 57
v 0.000000 0.001995 0.011833
v 0.010063 -0.001563 0.006348
v 0.010063 -0.003557 -0.005485
v 0.000000 -0.001995 -0.011833
v -0.010063 0.001563 -0.006348
v -0.010063 0.003557 0.005485
v 0.118686 0.454948 -0.068576
v 0.125394 0.452576 -0.072233
v 0.125394 0.451246 -0.080121
v 0.118686 0.452288 -0.084353
v 0.111977 0.454660 -0.080697
v 0.111977 0.455990 -0.072808
f 59 60 66
f 59 66 65
f 60 61 67
f 60 67 66
f 61 62 68
f 61 68 67
f 62 63 69
f 62 69 68
f 63 64 70
f 63 70 69
f 64 59 65
f 64 65 70
v 0.118686 0.453618 -0.076465
v 0.077302 0.458350 -0.021366
v 0.039584 0.460188 0.022258
v 0.003429 0.460792 0.060990
v -0.031378 0.460333 0.095503
v -0.064844 0.458815 0.125816
v -0.096912 0.456194 0.151755
v -0.127508 0.452411 0.173085
v -0.156557 0.447406 0.189569
v -0.183990 0.441126 0.200998
v -0.209754 0.433529 0.207203
v -0.233812 0.424586 0.208067
v -0.256145 0.414280 0.203531
v -0.276753 0.402613 0.193595
v -0.295654 0.389600 0.178319
v -0.312887 0.375269 0.157818
v -0.328505 0.359663 0.132261
v -0.342575 0.342836 0.101860
v -0.355173 0.324847 0.066849
v -0.366373 0.305754 0.027464
v -0.376231 0.285603 -0.016121
v -0.384742 0.264387 -0.063925
v -0.391690 0.241939 -0.116621
v -0.394973 0.216597 -0.180791
v -0.353589 0.211865 -0.235890
v -0.315871 0.210027 -0.279514
v -0.279716 0.209422 -0.318245
v -0.244909 0.209881 -0.352758
v -0.211443 0.211399 -0.383072
v -0.179374 0.214020 -0.409011
v -0.148778 0.217804 -0.430341
v -0.119730 0.222809 -0.446825
v -0.092297 0.229088 -0.458254
v -0.066533 0.236685 -0.464459
v -0.042475 0.245629 -0.465323
v -0.020142 0.255934 -0.460787
v 0.000466 0.267601 -0.450851
v 0.019368 0.280615 -0.435574
v 0.036600 0.294946 -0.415074
v 0.052218 0.310551 -0.389517
v 0.066288 0.327378 -0.359116
v 0.078886 0.345368 -0.324105
v 0.090086 0.364461 -0.284719
v 0.099944 0.384612 -0.241135
v 0.108455 0.405827 -0.193331
v 0.115403 0.428276 -0.140635
f 71 72 73
f 71 73 72
f 71 73 74
f 71 74 73
f 71 74 75
f 71 75 74
f 71 75 76
f 71 76 75
f 71 76 77
f 71 77 76
f 71 77 78
f 71 78 77
f 71 78 79
f 71 79 78
f 71 79 80
f 71 80 79
f 71 80 81
f 71 81 80
f 71 81 82
f 71 82 81
f 71 82 83
f 71 83 82
f 71 83 84
f 71 84 83
f 71 84 85
f 71 85 84
f 71 85 86
f 71 86 85
f 71 86 87
f 71 87 86
f 71 87 88
f 71 88 87
f 71 88 89
f 71 89 88
f 71 89 90
f 71 90 89
f 71 90 91
f 71 91 90
f 71 91 92
f 71 92 91
f 71 92 93
f 71 93 92
f 71 93 94
f 71 94 93
f 71 94 95
f 71 95 94
f 71 95 96
f 71 96 95
f 71 96 97
f 71 97 96
f 71 97 98
f 71 98 97
f 71 98 99
f 71 99 98
f 71 99 100
f 71 100 99
f 71 100 101
f 71 101 100
f 71 101 102
f 71 102 101
f 71 102 103
f 71 103 102
f 71 103 104
f 71 104 103
f 71 104 105
f 71 105 104
f 71 105 106
f 71 106 105
f 71 106 107
f 71 107 106
f 71 107 108
f 71 108 107
f 71 108 109
f 71 109 108
f 71 109 110
f 71 110 109
f 71 110 111
f 71 111 110
f 71 111 112
f 71 112 111
f 71 112 113
f 71 113 112
f 71 113 114
f 71 114 113
f 71 114 115
f 71 115 114
f 71 115 116
f 71 116 115
v 0.000000 0.004718 0.011034
v 0.010391 0.002212 0.005580
v 0.010391 -0.002506 -0.005454
v 0.000000 -0.004718 -0.011034
v -0.010391 -0.002212 -0.005580
v -0.010391 0.002506 0.005454
v 0.004338 0.262642 -0.103594
v 0.011266 0.260971 -0.107230
v 0.011266 0.257826 -0.114586
v 0.004338 0.256352 -0.118305
v -0.002589 0.258022 -0.114669
v -0.002589 0.261167 -0.107313
f 117 118 124
f 117 124 123
f 118 119 125
f 118 125 124
f 119 120 126
f 119 126 125
f 120 121 127
f 120 127 126
f 121 122 128
f 121 128 127
f 122 117 123
f 122 123 128
v 0.004338 0.259497 -0.110950
v 0.038149 0.265201 -0.069923
v 0.063666 0.269218 -0.033167
v 0.085654 0.272517 0.001773
v 0.104603 0.275199 0.035149
v 0.120529 0.277265 0.066968
v 0.133308 0.278692 0.097167
v 0.142773 0.279444 0.125660
v 0.148754 0.279488 0.152360
v 0.151102 0.278793 0.177189
v 0.149695 0.277334 0.200085
v 0.144451 0.275094 0.221005
v 0.135325 0.272065 0.239927
v 0.122319 0.268247 0.256852
v 0.105475 0.263649 0.271801
v 0.084876 0.258286 0.284817
v 0.060644 0.252185 0.295962
v 0.032928 0.245375 0.305314
v 0.001898 0.237891 0.312960
v -0.032279 0.229767 0.318985
v -0.069479 0.221028 0.323455
v -0.109717 0.211671 0.326360
v -0.153485 0.201597 0.327448
v -0.205546 0.189835 0.324267
v -0.239357 0.184131 0.283241
v -0.264874 0.180114 0.246484
v -0.286862 0.176815 0.211544
v -0.305811 0.174133 0.178169
v -0.321737 0.172067 0.146350
v -0.334516 0.170640 0.116150
v -0.343981 0.169888 0.087657
v -0.349962 0.169844 0.060958
v -0.352310 0.170539 0.036129
v -0.350903 0.171998 0.013233
v -0.345659 0.174238 -0.007687
v -0.336533 0.177266 -0.026610
v -0.323527 0.181084 -0.043535
v -0.306683 0.185683 -0.058483
v -0.286084 0.191045 -0.071499
v -0.261852 0.197147 -0.082645
v -0.234136 0.203957 -0.091997
v -0.203106 0.211441 -0.099642
v -0.168929 0.219565 -0.105668
v -0.131729 0.228304 -0.110138
v -0.091491 0.237660 -0.113043
v -0.047723 0.247735 -0.114131
f 129 130 131
f 129 131 130
f 129 131 132
f 129 132 131
f 129 132 133
f 129 133 132
f 129 133 134
f 129 134 133
f 129 134 135
f 129 135 134
f 129 135 136
f 129 136 135
f 129 136 137
f 129 137 136
f 129 137 138
f 129 138 137
f 129 138 139
f 129 139 138
f 129 139 140
f 129 140 139
f 129 140 141
f 129 141 140
f 129 141 142
f 129 142 141
f 129 142 143
f 129 143 142
f 129 143 144
f 129 144 143
f 129 144 145
f 129 145 144
f 129 145 146
f 129 146 145
f 129 146 147
f 129 147 146
f 129 147 148
f 129 148 147
f 129 148 149
f 129 149 148
f 129 149 150
f 129 150 149
f 129 150 151
f 129 151 150
f 129 151 152
f 129 152 151
f 129 152 153
f 129 153 152
f 129 153 154
f 129 154 153
f 129 154 155
f 129 155 154
f 129 155 156
f 129 156 155
f 129 156 157
f 129 157 156
f 129 157 158
f 129 158 157
f 129 158 159
f 129 159 158
f 129 159 160
f 129 160 159
f 129 160 161
f 129 161 160
f 129 161 162
f 129 162 161
f 129 162 163
f 129 163 162
f 129 163 164
f 129 164 163
f 129 164 165
f 129 165 164
f 129 165 166
f 129 166 165
f 129 166 167
f 129 167 166
f 129 167 168
f 129 168 167
f 129 168 169
f 129 169 168
f 129 169 170
f 129 170 169
f 129 170 171
f 129 171 170
f 129 171 172
f 129 172 171
f 129 172 173
f 129 173 172
f 129 173 174
f 129 174 173
v 0.000000 0.002045 0.011825
v 0.010336 0.002084 0.005729
v 0.010336 0.000040 -0.006096
v 0.000000 -0.002045 -0.011825
v -0.010336 -0.002084 -0.005729
v -0.010336 -0.000040 0.006096
v -0.048142 0.456370 -0.070796
v -0.041251 0.456397 -0.074860
v -0.041251 0.455034 -0.082743
v -0.048142 0.453644 -0.086562
v -0.055033 0.453618 -0.082498
v -0.055033 0.454981 -0.074615
f 175 176 182
f 175 182 181
f 176 177 183
f 176 183 182
f 177 178 184
f 177 184 183
f 178 179 185
f 178 185 184
f 179 180 186
f 179 186 185
f 180 175 181
f 180 181 186
v -0.048142 0.455007 -0.078679
v 0.024212 0.451955 -0.057897
v 0.080017 0.447233 -0.036643
v 0.129475 0.441871 -0.015208
v 0.173803 0.435991 0.006372
v 0.213249 0.429619 0.028092
v 0.247763 0.422750 0.049953
v 0.277189 0.415367 0.071958
v 0.301342 0.407452 0.094114
v 0.320048 0.398988 0.116425
v 0.333163 0.389959 0.138895
v 0.340585 0.380357 0.161527
v 0.342261 0.370175 0.184323
v 0.338193 0.359413 0.207283
v 0.328432 0.348077 0.230406
v 0.313080 0.336177 0.253687
v 0.292280 0.323728 0.277124
v 0.266208 0.310746 0.300711
v 0.235047 0.297252 0.324443
v 0.198955 0.283260 0.348315
v 0.157980 0.268775 0.372327
v 0.111876 0.253773 0.396485
v 0.059425 0.238130 0.420823
v -0.009576 0.220819 0.445634
v -0.081930 0.223871 0.424852
v -0.137735 0.228593 0.403598
v -0.187193 0.233955 0.382163
v -0.231521 0.239835 0.360583
v -0.270967 0.246207 0.338863
v -0.305481 0.253076 0.317002
v -0.334907 0.260459 0.294997
v -0.359060 0.268374 0.272841
v -0.377766 0.276838 0.250530
v -0.390881 0.285867 0.228060
v -0.398302 0.295469 0.205428
v -0.399979 0.305651 0.182631
v -0.395911 0.316413 0.159671
v -0.386150 0.327749 0.136549
v -0.370797 0.339649 0.113268
v -0.349998 0.352098 0.089831
v -0.323926 0.365080 0.066244
v -0.292765 0.378574 0.042512
v -0.256672 0.392566 0.018640
v -0.215698 0.407051 -0.005372
v -0.169594 0.422053 -0.029530
v -0.117142 0.437695 -0.053868
f 187 188 189
f 187 189 188
f 187 189 190
f 187 190 189
f 187 190 191
f 187 191 190
f 187 191 192
f 187 192 191
f 187 192 193
f 187 193 192
f 187 193 194
f 187 194 193
f 187 194 195
f 187 195 194
f 187 195 196
f 187 196 195
f 187 196 197
f 187 197 196
f 187 197 198
f 187 198 197
f 187 198 199
f 187 199 198
f 187 199 200
f 187 200 199
f 187 200 201
f 187 201 200
f 187 201 202
f 187 202 201
f 187 202 203
f 187 203 202
f 187 203 204
f 187 204 203
f 187 204 205
f 187 205 204
f 187 205 206
f 187 206 205
f 187 206 207
f 187 207 206
f 187 207 208
f 187 208 207
f 187 208 209
f 187 209 208
f 187 209 210
f 187 210 209
f 187 210 211
f 187 211 210
f 187 211 212
f 187 212 211
f 187 212 213
f 187 213 212
f 187 213 214
f 187 214 213
f 187 214 215
f 187 215 214
f 187 215 216
f 187 216 215
f 187 216 217
f 187 217 216
f 187 217 218
f 187 218 217
f 187 218 219
f 187 219 218
f 187 219 220
f 187 220 219
f 187 220 221
f 187 221 220
f 187 221 222
f 187 222 221
f 187 222 223
f 187 223 222
f 187 223 224
f 187 224 223
f 187 224 225
f 187 225 224
f 187 225 226
f 187 226 225
f 187 226 227
f 187 227 226
f 187 227 228
f 187 228 227
f 187 228 229
f 187 229 228
f 187 229 230
f 187 230 229
f 187 230 231
f 187 231 230
f 187 231 232
f 187 232 231
v 0.000000 0.000889 0.011967
v 0.009687 0.004197 0.005705
v 0.009687 0.003309 -0.006262
v 0.000000 -0.000889 -0.011967
v -0.009687 -0.004197 -0.005705
v -0.009687 -0.003309 0.006262
v -0.191663 0.492598 -0.028563
v -0.185205 0.494804 -0.032738
v -0.185205 0.494211 -0.040716
v -0.191663 0.491413 -0.044519
v -0.198121 0.489207 -0.040344
v -0.198121 0.489800 -0.032366
f 233 234 240
f 233 240 239
f 234 235 241
f 234 241 240
f 235 236 242
f 235 242 241
f 236 237 243
f 236 243 242
f 237 238 244
f 237 244 243
f 238 233 239
f 238 239 244
v -0.191663 0.492006 -0.036541
v -0.253570 0.452180 -0.033989
v -0.292952 0.420605 -0.038502
v -0.325709 0.391456 -0.045092
v -0.353843 0.364001 -0.053133
v -0.378045 0.337985 -0.062407
v -0.398589 0.313309 -0.072827
v -0.415578 0.289936 -0.084363
v -0.429037 0.267855 -0.097006
v -0.438956 0.247071 -0.110759
v -0.445316 0.227590 -0.125629
v -0.448099 0.209420 -0.141620
v -0.447294 0.192564 -0.158736
v -0.442900 0.177022 -0.176978
v -0.434929 0.162790 -0.196343
v -0.423398 0.149862 -0.216823
v -0.408329 0.138230 -0.238413
v -0.389729 0.127891 -0.261110
v -0.367574 0.118855 -0.284923
v -0.341761 0.111158 -0.309883
v -0.312016 0.104901 -0.336076
v -0.277648 0.100337 -0.363718
v -0.236654 0.098201 -0.393439
v -0.173136 0.104313 -0.430224
v -0.111230 0.144139 -0.432776
v -0.071847 0.175714 -0.428264
v -0.039090 0.204863 -0.421673
v -0.010956 0.232318 -0.413633
v 0.013246 0.258334 -0.404359
v 0.033790 0.283010 -0.393938
v 0.050779 0.306383 -0.382402
v 0.064238 0.328464 -0.369759
v 0.074157 0.349248 -0.356006
v 0.080517 0.368729 -0.341137
v 0.083300 0.386899 -0.325146
v 0.082495 0.403755 -0.308029
v 0.078101 0.419297 -0.289787
v 0.070130 0.433529 -0.270423
v 0.058599 0.446457 -0.249943
v 0.043530 0.458089 -0.228352
v 0.024930 0.468428 -0.205655
v 0.002775 0.477464 -0.181842
v -0.023038 0.485161 -0.156883
v -0.052783 0.491418 -0.130690
v -0.087151 0.495982 -0.103047
v -0.128145 0.498119 -0.073326
f 245 246 247
f 245 247 246
f 245 247 248
f 245 248 247
f 245 248 249
f 245 249 248
f 245 249 250
f 245 250 249
f 245 250 251
f 245 251 250
f 245 251 252
f 245 252 251
f 245 252 253
f 245 253 252
f 245 253 254
f 245 254 253
f 245 254 255
f 245 255 254
f 245 255 256
f 245 256 255
f 245 256 257
f 245 257 256
f 245 257 258
f 245 258 257
f 245 258 259
f 245 259 258
f 245 259 260
f 245 260 259
f 245 260 261
f 245 261 260
f 245 261 262
f 245 262 261
f 245 262 263
f 245 263 262
f 245 263 264
f 245 264 263
f 245 264 265
f 245 265 264
f 245 265 266
f 245 266 265
f 245 266 267
f 245 267 266
f 245 267 268
f 245 268 267
f 245 268 269
f 245 269 268
f 245 269 270
f 245 270 269
f 245 270 271
f 245 271 270
f 245 271 272
f 245 272 271
f 245 272 273
f 245 273 272
f 245 273 274
f 245 274 273
f 245 274 275
f 245 275 274
f 245 275 276
f 245 276 275
f 245 276 277
f 245 277 276
f 245 277 278
f 245 278 277
f 245 278 279
f 245 279 278
f 245 279 280
f 245 280 279
f 245 280 281
f 245 281 280
f 245 281 282
f 245 282 281
f 245 282 283
f 245 283 282
f 245 283 284
f 245 284 283
f 245 284 285
f 245 285 284
f 245 285 286
f 245 286 285
f 245 286 287
f 245 287 286
f 245 287 288
f 245 288 287
f 245 288 289
f 245 289 288
f 245 289 290
f 245 290 289
v 0.000000 -0.003047 0.011607
v 0.010154 0.000619 0.006366
v 0.010154 0.003666 -0.005241
v 0.000000 0.003047 -0.011607
v -0.010154 -0.000619 -0.006366
v -0.010154 -0.003666 0.005241
v -0.112716 0.497745 0.138953
v -0.105947 0.500189 0.135459
v -0.105947 0.502221 0.127722
v -0.112716 0.501808 0.123478
v -0.119485 0.499364 0.126972
v -0.119485 0.497333 0.134710
f 291 292 298
f 291 298 297
f 292 293 299
f 292 299 298
f 293 294 300
f 293 300 299
f 294 295 301
f 294 301 300
f 295 296 302
f 295 302 301
f 296 291 297
f 296 297 302
v -0.112716 0.499777 0.131216
v -0.142945 0.458781 0.190678
v -0.169842 0.422289 0.235850
v -0.195375 0.387642 0.275169
v -0.219759 0.354546 0.309565
v -0.243021 0.322968 0.339143
v -0.265125 0.292954 0.363759
v -0.286019 0.264575 0.383187
v -0.305648 0.237906 0.397189
v -0.323963 0.213014 0.405550
v -0.340921 0.189955 0.408097
v -0.356495 0.168766 0.404708
v -0.370671 0.149468 0.395321
v -0.383448 0.132059 0.379936
v -0.394842 0.116521 0.358616
v -0.404880 0.102816 0.331481
v -0.413602 0.090888 0.298705
v -0.421059 0.080670 0.260503
v -0.427307 0.072087 0.217113
v -0.432397 0.065068 0.168761
v -0.436364 0.059567 0.115590
v -0.439184 0.055618 0.057498
v -0.440639 0.053512 -0.006448
v -0.438761 0.055911 -0.084684
v -0.408532 0.096906 -0.144147
v -0.381635 0.133398 -0.189318
v -0.356103 0.168045 -0.228637
v -0.331718 0.201141 -0.263034
v -0.308457 0.232719 -0.292612
v -0.286353 0.262733 -0.317228
v -0.265458 0.291112 -0.336656
v -0.245829 0.317782 -0.350658
v -0.227515 0.342673 -0.359019
v -0.210557 0.365732 -0.361565
v -0.194982 0.386921 -0.358176
v -0.180806 0.406219 -0.348789
v -0.168029 0.423628 -0.333405
v -0.156636 0.439166 -0.312084
v -0.146598 0.452871 -0.284949
v -0.137876 0.464799 -0.252173
v -0.130418 0.475017 -0.213972
v -0.124171 0.483600 -0.170582
v -0.119080 0.490619 -0.122229
v -0.115113 0.496120 -0.069059
v -0.112294 0.500070 -0.010966
v -0.110839 0.502175 0.052979
f 303 304 305
f 303 305 304
f 303 305 306
f 303 306 305
f 303 306 307
f 303 307 306
f 303 307 308
f 303 308 307
f 303 308 309
f 303 309 308
f 303 309 310
f 303 310 309
f 303 310 311
f 303 311 310
f 303 311 312
f 303 312 311
f 303 312 313
f 303 313 312
f 303 313 314
f 303 314 313
f 303 314 315
f 303 315 314
f 303 315 316
f 303 316 315
f 303 316 317
f 303 317 316
f 303 317 318
f 303 318 317
f 303 318 319
f 303 319 318
f 303 319 320
f 303 320 319
f 303 320 321
f 303 321 320
f 303 321 322
f 303 322 321
f 303 322 323
f 303 323 322
f 303 323 324
f 303 324 323
f 303 324 325
f 303 325 324
f 303 325 326
f 303 326 325
f 303 326 327
f 303 327 326
f 303 327 328
f 303 328 327
f 303 328 329
f 303 329 328
f 303 329 330
f 303 330 329
f 303 330 331
f 303 331 330
f 303 331 332
f 303 332 331
f 303 332 333
f 303 333 332
f 303 333 334
f 303 334 333
f 303 334 335
f 303 335 334
f 303 335 336
f 303 336 335
f 303 336 337
f 303 337 336
f 303 337 338
f 303 338 337
f 303 338 339
f 303 339 338
f 303 339 340
f 303 340 339
f 303 340 341
f 303 341 340
f 303 341 342
f 303 342 341
f 303 342 343
f 303 343 342
f 303 343 344
f 303 344 343
f 303 344 345
f 303 345 344
f 303 345 346
f 303 346 345
f 303 346 347
f 303 347 346
f 303 347 348
f 303 348 347
v 0.000000 -0.003213 0.011562
v 0.010373 -0.002219 0.005611
v 0.010373 0.000994 -0.005951
v 0.000000 0.003213 -0.011562
v -0.010373 0.002219 -0.005611
v -0.010373 -0.000994 0.005951
v 0.022752 0.355440 0.107086
v 0.029668 0.356102 0.103119
v 0.029668 0.358244 0.095411
v 0.022752 0.359724 0.091670
v 0.015837 0.359061 0.095638
v 0.015837 0.356919 0.103346
f 349 350 356
f 349 356 355
f 350 351 357
f 350 357 356
f 351 352 358
f 351 358 357
f 352 353 359
f 352 359 358
f 353 354 360
f 353 360 359
f 354 349 355
f 354 355 360
v 0.022752 0.357582 0.099378
v 0.064916 0.337531 0.107608
v 0.096462 0.318083 0.116104
v 0.124058 0.298857 0.124698
v 0.148520 0.279810 0.133372
v 0.170039 0.260929 0.142119
v 0.188611 0.242215 0.150940
v 0.204165 0.223673 0.159837
v 0.216604 0.205306 0.168812
v 0.225835 0.187122 0.177868
v 0.231780 0.169124 0.187006
v 0.234385 0.151314 0.196227
v 0.233620 0.133696 0.205533
v 0.229486 0.116269 0.214924
v 0.222011 0.099031 0.224399
v 0.211250 0.081979 0.233955
v 0.197282 0.065109 0.243593
v 0.180199 0.048415 0.253308
v 0.160096 0.031893 0.263099
v 0.137048 0.015537 0.272964
v 0.111056 -0.000652 0.282903
v 0.081930 -0.016663 0.292921
v 0.048855 -0.032451 0.303037
v 0.005162 -0.047636 0.313420
v -0.037002 -0.027586 0.305190
v -0.068548 -0.008137 0.296695
v -0.096144 0.011088 0.288100
v -0.120606 0.030135 0.279426
v -0.142125 0.049016 0.270679
v -0.160697 0.067730 0.261858
v -0.176251 0.086273 0.252961
v -0.188690 0.104639 0.243986
v -0.197921 0.122823 0.234931
v -0.203866 0.140822 0.225793
v -0.206471 0.158631 0.216571
v -0.205706 0.176249 0.207265
v -0.201572 0.193676 0.197874
v -0.194097 0.210914 0.188400
v -0.183336 0.227966 0.178843
v -0.169368 0.244836 0.169206
v -0.152285 0.261530 0.159490
v -0.132182 0.278052 0.149699
v -0.109134 0.294408 0.139834
v -0.083142 0.310597 0.129895
v -0.054016 0.326608 0.119878
v -0.020941 0.342396 0.109761
f 361 362 363
f 361 363 362
f 361 363 364
f 361 364 363
f 361 364 365
f 361 365 364
f 361 365 366
f 361 366 365
f 361 366 367
f 361 367 366
f 361 367 368
f 361 368 367
f 361 368 369
f 361 369 368
f 361 369 370
f 361 370 369
f 361 370 371
f 361 371 370
f 361 371 372
f 361 372 371
f 361 372 373
f 361 373 372
f 361 373 374
f 361 374 373
f 361 374 375
f 361 375 374
f 361 375 376
f 361 376 375
f 361 376 377
f 361 377 376
f 361 377 378
f 361 378 377
f 361 378 379
f 361 379 378
f 361 379 380
f 361 380 379
f 361 380 381
f 361 381 380
f 361 381 382
f 361 382 381
f 361 382 383
f 361 383 382
f 361 383 384
f 361 384 383
f 361 384 385
f 361 385 384
f 361 385 386
f 361 386 385
f 361 386 387
f 361 387 386
f 361 387 388
f 361 388 387
f 361 388 389
f 361 389 388
f 361 389 390
f 361 390 389
f 361 390 391
f 361 391 390
f 361 391 392
f 361 392 391
f 361 392 393
f 361 393 392
f 361 393 394
f 361 394 393
f 361 394 395
f 361 395 394
f 361 395 396
f 361 396 395
f 361 396 397
f 361 397 396
f 361 397 398
f 361 398 397
f 361 398 399
f 361 399 398
f 361 399 400
f 361 400 399
f 361 400 401
f 361 401 400
f 361 401 402
f 361 402 401
f 361 402 403
f 361 403 402
f 361 403 404
f 361 404 403
f 361 404 405
f 361 405 404
f 361 405 406
f 361 406 405
v 0.000000 -0.002094 0.011816
v 0.010326 -0.002203 0.005703
v 0.010326 -0.000109 -0.006113
v 0.000000 0.002094 -0.011816
v -0.010326 0.002203 -0.005703
v -0.010326 0.000109 0.006113
v 0.064487 0.557081 0.106860
v 0.071371 0.557008 0.102785
v 0.071371 0.558405 0.094908
v 0.064487 0.559873 0.091106
v 0.057603 0.559946 0.095181
v 0.057603 0.558550 0.103058
f 407 408 414
f 407 414 413
f 408 409 415
f 408 415 414
f 409 410 416
f 409 416 415
f 410 411 417
f 410 417 416
f 411 412 418
f 411 418 417
f 412 407 413
f 412 413 418
v 0.064487 0.558477 0.098983
v 0.100743 0.534526 0.136162
v 0.124641 0.513366 0.165639
v 0.144210 0.493185 0.192419
v 0.160461 0.473753 0.217131
v 0.173677 0.455007 0.239952
v 0.183910 0.436934 0.260914
v 0.191127 0.419543 0.279996
v 0.195260 0.402849 0.297157
v 0.196239 0.386868 0.312352
v 0.194000 0.371613 0.325541
v 0.188498 0.357096 0.336698
v 0.179710 0.343320 0.345806
v 0.167635 0.330288 0.352867
v 0.152298 0.317992 0.357894
v 0.133743 0.306424 0.360917
v 0.112034 0.295568 0.361973
v 0.087241 0.285408 0.361108
v 0.059431 0.275931 0.358362
v 0.028639 0.267127 0.353759
v -0.005189 0.259009 0.347263
v -0.042334 0.251640 0.338700
v -0.083809 0.245249 0.327440
v -0.137641 0.241650 0.308478
v -0.173897 0.265602 0.271299
v -0.197795 0.286761 0.241822
v -0.217364 0.306943 0.215042
v -0.233615 0.326375 0.190330
v -0.246831 0.345121 0.167509
v -0.257065 0.363193 0.146547
v -0.264281 0.380584 0.127465
v -0.268415 0.397278 0.110304
v -0.269393 0.413260 0.095109
v -0.267154 0.428515 0.081920
v -0.261652 0.443032 0.070763
v -0.252864 0.456807 0.061655
v -0.240789 0.469840 0.054594
v -0.225452 0.482135 0.049567
v -0.206897 0.493704 0.046544
v -0.185188 0.504560 0.045488
v -0.160395 0.514719 0.046353
v -0.132585 0.524197 0.049099
v -0.101793 0.533001 0.053702
v -0.067965 0.541119 0.060198
v -0.030820 0.548488 0.068761
v 0.010654 0.554878 0.080021
f 419 420 421
f 419 421 420
f 419 421 422
f 419 422 421
f 419 422 423
f 419 423 422
f 419 423 424
f 419 424 423
f 419 424 425
f 419 425 424
f 419 425 426
f 419 426 425
f 419 426 427
f 419 427 426
f 419 427 428
f 419 428 427
f 419 428 429
f 419 429 428
f 419 429 430
f 419 430 429
f 419 430 431
f 419 431 430
f 419 431 432
f 419 432 431
f 419 432 433
f 419 433 432
f 419 433 434
f 419 434 433
f 419 434 435
f 419 435 434
f 419 435 436
f 419 436 435
f 419 436 437
f 419 437 436
f 419 437 438
f 419 438 437
f 419 438 439
f 419 439 438
f 419 439 440
f 419 440 439
f 419 440 441
f 419 441 440
f 419 441 442
f 419 442 441
f 419 442 443
f 419 443 442
f 419 443 444
f 419 444 443
f 419 444 445
f 419 445 444
f 419 445 446
f 419 446 445
f 419 446 447
f 419 447 446
f 419 447 448
f 419 448 447
f 419 448 449
f 419 449 448
f 419 449 450
f 419 450 449
f 419 450 451
f 419 451 450
f 419 451 452
f 419 452 451
f 419 452 453
f 419 453 452
f 419 453 454
f 419 454 453
f 419 454 455
f 419 455 454
f 419 455 456
f 419 456 455
f 419 456 457
f 419 457 456
f 419 457 458
f 419 458 457
f 419 458 459
f 419 459 458
f 419 459 460
f 419 460 459
f 419 460 461
f 419 461 460
f 419 461 462
f 419 462 461
f 419 462 463
f 419 463 462
f 419 463 464
f 419 464 463
