o mesh
v 0.000000 0.000000 0.015000
v 0.008817 0.000000 0.012135
v 0.014266 0.000000 0.004635
v 0.014266 0.000000 -0.004635
v 0.008817 0.000000 -0.012135
v 0.000000 0.000000 -0.015000
v -0.008817 0.000000 -0.012135
v -0.014266 0.000000 -0.004635
v -0.014266 0.000000 0.004635
v -0.008817 0.000000 0.012135
v 0.000000 0.400000 0.010200
v 0.005995 0.400000 0.008252
v 0.009701 0.400000 0.003152
v 0.009701 0.400000 -0.003152
v 0.005995 0.400000 -0.008252
v 0.000000 0.400000 -0.010200
v -0.005995 0.400000 -0.008252
v -0.009701 0.400000 -0.003152
v -0.009701 0.400000 0.003152
v -0.005995 0.400000 0.008252
f 1 2 12
f 1 12 11
f 2 3 13
f 2 13 12
f 3 4 14
f 3 14 13
f 4 5 15
f 4 15 14
f 5 6 16
f 5 16 15
f 6 7 17
f 6 17 16
f 7 8 18
f 7 18 17
f 8 9 19
f 8 19 18
f 9 10 20
f 9 20 19
f 10 1 11
f 10 11 20
v -0.000879 0.400000 0.010162
v 0.003694 0.404049 0.008602
v 0.006855 0.406552 0.003757
v 0.007399 0.406552 -0.002524
v 0.005116 0.404049 -0.007840
v 0.000879 0.400000 -0.010162
v -0.003694 0.395951 -0.008602
v -0.006855 0.393448 -0.003757
v -0.007399 0.393448 0.002524
v -0.005116 0.395951 0.007840
v -0.239116 0.661381 -0.013714
v -0.236006 0.664134 -0.014775
v -0.233856 0.665836 -0.018070
v -0.233487 0.665836 -0.022341
v -0.235039 0.664134 -0.025956
v -0.237921 0.661381 -0.027535
v -0.241030 0.658627 -0.026474
v -0.243180 0.656925 -0.023179
v -0.243549 0.656925 -0.018908
v -0.241997 0.658627 -0.015293
f 21 22 32
f 21 32 31
f 22 23 33
f 22 33 32
f 23 24 34
f 23 34 33
f 24 25 35
f 24 35 34
f 25 26 36
f 25 36 35
f 26 27 37
f 26 37 36
f 27 28 38
f 27 38 37
f 28 29 39
f 28 39 38
f 29 30 40
f 29 40 39
f 30 21 31
f 30 31 40
v -0.239314 0.661381 -0.013734
v -0.238850 0.665445 -0.015014
v -0.238259 0.667957 -0.018437
v -0.237767 0.667957 -0.022695
v -0.237561 0.665445 -0.026163
v -0.237722 0.661381 -0.027515
v -0.238186 0.657316 -0.026235
v -0.238777 0.654804 -0.022812
v -0.239269 0.654804 -0.018554
v -0.239475 0.657316 -0.015086
v -0.493021 0.681157 -0.045289
v -0.492706 0.683921 -0.046159
v -0.492303 0.685629 -0.048487
v -0.491969 0.685629 -0.051382
v -0.491829 0.683921 -0.053740
v -0.491938 0.681157 -0.054660
v -0.492254 0.678393 -0.053789
v -0.492656 0.676684 -0.051462
v -0.492991 0.676684 -0.048566
v -0.493130 0.678393 -0.046208
f 41 42 52
f 41 52 51
f 42 43 53
f 42 53 52
f 43 44 54
f 43 54 53
f 44 45 55
f 44 55 54
f 45 46 56
f 45 56 55
f 46 47 57
f 46 57 56
f 47 48 58
f 47 58 57
f 48 49 59
f 48 59 58
f 49 50 60
f 49 60 59
f 50 41 51
f 50 51 60
v -0.491578 0.681157 -0.045345
v -0.494198 0.682369 -0.045752
v -0.496161 0.683118 -0.047772
v -0.496718 0.683118 -0.050634
v -0.495657 0.682369 -0.053243
v -0.493382 0.681157 -0.054604
v -0.490762 0.679945 -0.054196
v -0.488799 0.679196 -0.052176
v -0.488241 0.679196 -0.049315
v -0.489303 0.679945 -0.046706
v -0.579159 0.498198 -0.029821
v -0.580940 0.499022 -0.030098
v -0.582276 0.499531 -0.031472
v -0.582655 0.499531 -0.033418
v -0.581933 0.499022 -0.035192
v -0.580386 0.498198 -0.036117
v -0.578604 0.497374 -0.035840
v -0.577269 0.496864 -0.034467
v -0.576890 0.496864 -0.032521
v -0.577612 0.497374 -0.030747
f 61 62 72
f 61 72 71
f 62 63 73
f 62 73 72
f 63 64 74
f 63 74 73
f 64 65 75
f 64 75 74
f 65 66 76
f 65 76 75
f 66 67 77
f 66 77 76
f 67 68 78
f 67 78 77
f 68 69 79
f 68 79 78
f 69 70 80
f 69 80 79
f 70 61 71
f 70 71 80
v -0.579772 0.498198 -0.032969
v -0.578164 0.498955 -0.031094
v -0.576908 0.499903 -0.028963
v -0.576127 0.501110 -0.026484
v -0.575845 0.502589 -0.023643
v -0.575998 0.504305 -0.020484
v -0.576453 0.506186 -0.017106
v -0.577023 0.508129 -0.013643
v -0.577496 0.510020 -0.010251
v -0.577656 0.511740 -0.007088
v -0.577314 0.513186 -0.004289
v -0.576330 0.514283 -0.001959
v -0.574629 0.514989 -0.000152
v -0.572210 0.515303 0.001132
v -0.569149 0.515268 0.001949
v -0.565586 0.514960 0.002400
v -0.561710 0.514481 0.002623
v -0.557737 0.513949 0.002775
v -0.553879 0.513480 0.003011
v -0.550323 0.513175 0.003467
v -0.547203 0.513108 0.004240
v -0.544580 0.513312 0.005376
v -0.542434 0.513775 0.006859
v -0.540639 0.514430 0.008598
v -0.542247 0.513673 0.006723
v -0.543504 0.512725 0.004591
v -0.544284 0.511518 0.002113
v -0.544566 0.510039 -0.000728
v -0.544413 0.508322 -0.003887
v -0.543958 0.506442 -0.007266
v -0.543388 0.504498 -0.010728
v -0.542915 0.502608 -0.014120
v -0.542755 0.500888 -0.017284
v -0.543097 0.499441 -0.020082
v -0.544081 0.498345 -0.022412
v -0.545782 0.497639 -0.024219
v -0.548201 0.497324 -0.025504
v -0.551262 0.497359 -0.026320
v -0.554825 0.497668 -0.026771
v -0.558701 0.498147 -0.026994
v -0.562674 0.498679 -0.027146
v -0.566532 0.499148 -0.027382
v -0.570088 0.499453 -0.027838
v -0.573209 0.499520 -0.028611
v -0.575831 0.499316 -0.029747
v -0.577977 0.498853 -0.031230
f 81 82 83
f 81 83 82
f 81 83 84
f 81 84 83
f 81 84 85
f 81 85 84
f 81 85 86
f 81 86 85
f 81 86 87
f 81 87 86
f 81 87 88
f 81 88 87
f 81 88 89
f 81 89 88
f 81 89 90
f 81 90 89
f 81 90 91
f 81 91 90
f 81 91 92
f 81 92 91
f 81 92 93
f 81 93 92
f 81 93 94
f 81 94 93
f 81 94 95
f 81 95 94
f 81 95 96
f 81 96 95
f 81 96 97
f 81 97 96
f 81 97 98
f 81 98 97
f 81 98 99
f 81 99 98
f 81 99 100
f 81 100 99
f 81 100 101
f 81 101 100
f 81 101 102
f 81 102 101
f 81 102 103
f 81 103 102
f 81 103 104
f 81 104 103
f 81 104 105
f 81 105 104
f 81 105 106
f 81 106 105
f 81 106 107
f 81 107 106
f 81 107 108
f 81 108 107
f 81 108 109
f 81 109 108
f 81 109 110
f 81 110 109
f 81 110 111
f 81 111 110
f 81 111 112
f 81 112 111
f 81 112 113
f 81 113 112
f 81 113 114
f 81 114 113
f 81 114 115
f 81 115 114
f 81 115 116
f 81 116 115
f 81 116 117
f 81 117 116
f 81 117 118
f 81 118 117
f 81 118 119
f 81 119 118
f 81 119 120
f 81 120 119
f 81 120 121
f 81 121 120
f 81 121 122
f 81 122 121
f 81 122 123
f 81 123 122
f 81 123 124
f 81 124 123
f 81 124 125
f 81 125 124
f 81 125 126
f 81 126 125
v -0.579772 0.498198 -0.032969
v -0.582082 0.501261 -0.033347
v -0.584389 0.504287 -0.034100
v -0.586688 0.507240 -0.035609
v -0.588978 0.510093 -0.038139
v -0.591257 0.512839 -0.041765
v -0.593527 0.515493 -0.046339
v -0.595791 0.518089 -0.051500
v -0.598055 0.520679 -0.056731
v -0.600323 0.523320 -0.061441
v -0.602602 0.526066 -0.065064
v -0.604896 0.528962 -0.067157
v -0.607207 0.532030 -0.067478
v -0.609534 0.535272 -0.066028
v -0.611876 0.538662 -0.063048
v -0.614229 0.542158 -0.058980
v -0.616586 0.545706 -0.054391
v -0.618943 0.549246 -0.049872
v -0.621295 0.552729 -0.045941
v -0.623637 0.556120 -0.042958
v -0.625968 0.559403 -0.041070
v -0.628290 0.562588 -0.040204
v -0.630605 0.565698 -0.040093
v -0.632916 0.568772 -0.040358
v -0.630606 0.565709 -0.039981
v -0.628300 0.562683 -0.039228
v -0.626000 0.559730 -0.037719
v -0.623711 0.556877 -0.035189
v -0.621432 0.554131 -0.031563
v -0.619162 0.551477 -0.026989
v -0.616898 0.548881 -0.021828
v -0.614634 0.546291 -0.016597
v -0.612365 0.543650 -0.011887
v -0.610086 0.540904 -0.008264
v -0.607793 0.538008 -0.006171
v -0.605482 0.534940 -0.005850
v -0.603154 0.531698 -0.007300
v -0.600812 0.528308 -0.010280
v -0.598460 0.524812 -0.014348
v -0.596102 0.521265 -0.018937
v -0.593745 0.517724 -0.023455
v -0.591394 0.514241 -0.027386
v -0.589052 0.510850 -0.030370
v -0.586720 0.507567 -0.032258
v -0.584398 0.504382 -0.033124
v -0.582083 0.501272 -0.033235
f 127 128 129
f 127 129 128
f 127 129 130
f 127 130 129
f 127 130 131
f 127 131 130
f 127 131 132
f 127 132 131
f 127 132 133
f 127 133 132
f 127 133 134
f 127 134 133
f 127 134 135
f 127 135 134
f 127 135 136
f 127 136 135
f 127 136 137
f 127 137 136
f 127 137 138
f 127 138 137
f 127 138 139
f 127 139 138
f 127 139 140
f 127 140 139
f 127 140 141
f 127 141 140
f 127 141 142
f 127 142 141
f 127 142 143
f 127 143 142
f 127 143 144
f 127 144 143
f 127 144 145
f 127 145 144
f 127 145 146
f 127 146 145
f 127 146 147
f 127 147 146
f 127 147 148
f 127 148 147
f 127 148 149
f 127 149 148
f 127 149 150
f 127 150 149
f 127 150 151
f 127 151 150
f 127 151 152
f 127 152 151
f 127 152 153
f 127 153 152
f 127 153 154
f 127 154 153
f 127 154 155
f 127 155 154
f 127 155 156
f 127 156 155
f 127 156 157
f 127 157 156
f 127 157 158
f 127 158 157
f 127 158 159
f 127 159 158
f 127 159 160
f 127 160 159
f 127 160 161
f 127 161 160
f 127 161 162
f 127 162 161
f 127 162 163
f 127 163 162
f 127 163 164
f 127 164 163
f 127 164 165
f 127 165 164
f 127 165 166
f 127 166 165
f 127 166 167
f 127 167 166
f 127 167 168
f 127 168 167
f 127 168 169
f 127 169 168
f 127 169 170
f 127 170 169
f 127 170 171
f 127 171 170
f 127 171 172
f 127 172 171
v -0.579772 0.498198 -0.032969
v -0.576778 0.497848 -0.034101
v -0.573599 0.497452 -0.034779
v -0.570137 0.496986 -0.034757
v -0.566353 0.496439 -0.033939
v -0.562267 0.495819 -0.032378
v -0.557954 0.495142 -0.030258
v -0.553534 0.494438 -0.027871
v -0.549151 0.493744 -0.025578
v -0.544957 0.493096 -0.023750
v -0.541089 0.492529 -0.022726
v -0.537650 0.492069 -0.022761
v -0.534696 0.491729 -0.023993
v -0.532227 0.491509 -0.026421
v -0.530187 0.491395 -0.029907
v -0.528473 0.491362 -0.034198
v -0.526948 0.491376 -0.038955
v -0.525460 0.491399 -0.043804
v -0.523865 0.491395 -0.048388
v -0.522043 0.491336 -0.052412
v -0.519920 0.491201 -0.055693
v -0.517474 0.490987 -0.058178
v -0.514744 0.490702 -0.059963
v -0.511831 0.490372 -0.061295
v -0.514825 0.490723 -0.060163
v -0.518004 0.491118 -0.059485
v -0.521466 0.491585 -0.059507
v -0.525250 0.492131 -0.060325
v -0.529336 0.492751 -0.061887
v -0.533649 0.493428 -0.064007
v -0.538069 0.494132 -0.066393
v -0.542452 0.494826 -0.068687
v -0.546646 0.495474 -0.070514
v -0.550514 0.496041 -0.071538
v -0.553953 0.496501 -0.071503
v -0.556907 0.496841 -0.070271
v -0.559376 0.497061 -0.067844
v -0.561416 0.497175 -0.064357
v -0.563130 0.497208 -0.060066
v -0.564655 0.497194 -0.055309
v -0.566143 0.497171 -0.050460
v -0.567738 0.497175 -0.045877
v -0.569560 0.497234 -0.041852
v -0.571683 0.497369 -0.038571
v -0.574129 0.497583 -0.036086
v -0.576859 0.497868 -0.034301
f 173 174 175
f 173 175 174
f 173 175 176
f 173 176 175
f 173 176 177
f 173 177 176
f 173 177 178
f 173 178 177
f 173 178 179
f 173 179 178
f 173 179 180
f 173 180 179
f 173 180 181
f 173 181 180
f 173 181 182
f 173 182 181
f 173 182 183
f 173 183 182
f 173 183 184
f 173 184 183
f 173 184 185
f 173 185 184
f 173 185 186
f 173 186 185
f 173 186 187
f 173 187 186
f 173 187 188
f 173 188 187
f 173 188 189
f 173 189 188
f 173 189 190
f 173 190 189
f 173 190 191
f 173 191 190
f 173 191 192
f 173 192 191
f 173 192 193
f 173 193 192
f 173 193 194
f 173 194 193
f 173 194 195
f 173 195 194
f 173 195 196
f 173 196 195
f 173 196 197
f 173 197 196
f 173 197 198
f 173 198 197
f 173 198 199
f 173 199 198
f 173 199 200
f 173 200 199
f 173 200 201
f 173 201 200
f 173 201 202
f 173 202 201
f 173 202 203
f 173 203 202
f 173 203 204
f 173 204 203
f 173 204 205
f 173 205 204
f 173 205 206
f 173 206 205
f 173 206 207
f 173 207 206
f 173 207 208
f 173 208 207
f 173 208 209
f 173 209 208
f 173 209 210
f 173 210 209
f 173 210 211
f 173 211 210
f 173 211 212
f 173 212 211
f 173 212 213
f 173 213 212
f 173 213 214
f 173 214 213
f 173 214 215
f 173 215 214
f 173 215 216
f 173 216 215
f 173 216 217
f 173 217 216
f 173 217 218
f 173 218 217
v 0.002470 0.400000 -0.009896
v -0.002444 0.403871 -0.009115
v -0.006424 0.406263 -0.004852
v -0.007951 0.406263 0.001264
v -0.006441 0.403871 0.006897
v -0.002470 0.400000 0.009896
v 0.002444 0.396129 0.009115
v 0.006424 0.393737 0.004852
v 0.007951 0.393737 -0.001264
v 0.006441 0.396129 -0.006897
v 0.192306 0.632412 0.040854
v 0.188965 0.635044 0.041385
v 0.186258 0.636671 0.044284
v 0.185220 0.636671 0.048443
v 0.186247 0.635044 0.052274
v 0.188947 0.632412 0.054313
v 0.192288 0.629780 0.053782
v 0.194995 0.628153 0.050883
v 0.196033 0.628153 0.046724
v 0.195006 0.629780 0.042893
f 219 220 230
f 219 230 229
f 220 221 231
f 220 231 230
f 221 222 232
f 221 232 231
f 222 223 233
f 222 233 232
f 223 224 234
f 223 234 233
f 224 225 235
f 224 235 234
f 225 226 236
f 225 236 235
f 226 227 237
f 226 237 236
f 227 228 238
f 227 238 237
f 228 219 229
f 228 229 238
v 0.192440 0.632412 0.040889
v 0.191280 0.636401 0.041947
v 0.189870 0.638866 0.045158
v 0.188749 0.638866 0.049296
v 0.188345 0.636401 0.052779
v 0.188813 0.632412 0.054278
v 0.189973 0.628423 0.053220
v 0.191383 0.625958 0.050009
v 0.192503 0.625958 0.045872
v 0.192907 0.628423 0.042388
v 0.426416 0.683775 0.106576
v 0.425627 0.686488 0.107296
v 0.424668 0.688164 0.109480
v 0.423906 0.688164 0.112293
v 0.423631 0.686488 0.114662
v 0.423949 0.683775 0.115681
v 0.424738 0.681063 0.114962
v 0.425697 0.679387 0.112778
v 0.426459 0.679387 0.109965
v 0.426734 0.681063 0.107596
f 239 240 250
f 239 250 249
f 240 241 251
f 240 251 250
f 241 242 252
f 241 252 251
f 242 243 253
f 242 253 252
f 243 244 254
f 243 254 253
f 244 245 255
f 244 255 254
f 245 246 256
f 245 256 255
f 246 247 257
f 246 257 256
f 247 248 258
f 247 258 257
f 248 239 249
f 248 249 258
v 0.426863 0.683775 0.106722
v 0.428739 0.685244 0.108402
v 0.429256 0.686152 0.111123
v 0.428217 0.686152 0.113846
v 0.426019 0.685244 0.115532
v 0.423502 0.683775 0.115536
v 0.421626 0.682306 0.113856
v 0.421109 0.681398 0.111135
v 0.422148 0.681398 0.108411
v 0.424346 0.682306 0.106726
v 0.521597 0.520579 0.144473
v 0.522873 0.521578 0.145615
v 0.523224 0.522195 0.147466
v 0.522518 0.522195 0.149318
v 0.521023 0.521578 0.150464
v 0.519311 0.520579 0.150466
v 0.518036 0.519580 0.149324
v 0.517684 0.518962 0.147474
v 0.518390 0.518962 0.145622
v 0.519885 0.519580 0.144476
f 259 260 270
f 259 270 269
f 260 261 271
f 260 271 270
f 261 262 272
f 261 272 271
f 262 263 273
f 262 273 272
f 263 264 274
f 263 274 273
f 264 265 275
f 264 275 274
f 265 266 276
f 265 276 275
f 266 267 277
f 266 277 276
f 267 268 278
f 267 278 277
f 268 259 269
f 268 269 278
v 0.520454 0.520579 0.147470
v 0.521759 0.521671 0.145213
v 0.523254 0.522913 0.143133
v 0.525114 0.524445 0.141392
v 0.527454 0.526355 0.140096
v 0.530298 0.528664 0.139268
v 0.533568 0.531310 0.138835
v 0.537094 0.534158 0.138639
v 0.540637 0.537019 0.138460
v 0.543929 0.539682 0.138047
v 0.546717 0.541946 0.137166
v 0.548802 0.543655 0.135633
v 0.550076 0.544723 0.133349
v 0.550541 0.545152 0.130313
v 0.550303 0.545025 0.126626
v 0.549561 0.544499 0.122470
v 0.548567 0.543775 0.118081
v 0.547591 0.543064 0.113708
v 0.546871 0.542555 0.109572
v 0.546576 0.542384 0.105832
v 0.546786 0.542610 0.102559
v 0.547475 0.543216 0.099732
v 0.548530 0.544111 0.097244
v 0.549775 0.545156 0.094932
v 0.548470 0.544064 0.097188
v 0.546976 0.542821 0.099268
v 0.545115 0.541290 0.101010
v 0.542775 0.539379 0.102305
v 0.539931 0.537071 0.103134
v 0.536661 0.534425 0.103567
v 0.533135 0.531577 0.103762
v 0.529592 0.528716 0.103942
v 0.526300 0.526053 0.104354
v 0.523513 0.523789 0.105235
v 0.521428 0.522080 0.106768
v 0.520153 0.521011 0.109052
v 0.519688 0.520583 0.112088
v 0.519926 0.520710 0.115776
v 0.520668 0.521236 0.119932
v 0.521662 0.521960 0.124321
v 0.522638 0.522671 0.128694
v 0.523359 0.523179 0.132829
v 0.523653 0.523351 0.136569
v 0.523443 0.523124 0.139842
v 0.522754 0.522518 0.142669
v 0.521699 0.521623 0.145158
f 279 280 281
f 279 281 280
f 279 281 282
f 279 282 281
f 279 282 283
f 279 283 282
f 279 283 284
f 279 284 283
f 279 284 285
f 279 285 284
f 279 285 286
f 279 286 285
f 279 286 287
f 279 287 286
f 279 287 288
f 279 288 287
f 279 288 289
f 279 289 288
f 279 289 290
f 279 290 289
f 279 290 291
f 279 291 290
f 279 291 292
f 279 292 291
f 279 292 293
f 279 293 292
f 279 293 294
f 279 294 293
f 279 294 295
f 279 295 294
f 279 295 296
f 279 296 295
f 279 296 297
f 279 297 296
f 279 297 298
f 279 298 297
f 279 298 299
f 279 299 298
f 279 299 300
f 279 300 299
f 279 300 301
f 279 301 300
f 279 301 302
f 279 302 301
f 279 302 303
f 279 303 302
f 279 303 304
f 279 304 303
f 279 304 305
f 279 305 304
f 279 305 306
f 279 306 305
f 279 306 307
f 279 307 306
f 279 307 308
f 279 308 307
f 279 308 309
f 279 309 308
f 279 309 310
f 279 310 309
f 279 310 311
f 279 311 310
f 279 311 312
f 279 312 311
f 279 312 313
f 279 313 312
f 279 313 314
f 279 314 313
f 279 314 315
f 279 315 314
f 279 315 316
f 279 316 315
f 279 316 317
f 279 317 316
f 279 317 318
f 279 318 317
f 279 318 319
f 279 319 318
f 279 319 320
f 279 320 319
f 279 320 321
f 279 321 320
f 279 321 322
f 279 322 321
f 279 322 323
f 279 323 322
f 279 323 324
f 279 324 323
v 0.520454 0.520579 0.147470
v 0.522322 0.522823 0.149353
v 0.523951 0.525001 0.151568
v 0.525149 0.527061 0.154379
v 0.525807 0.528972 0.157939
v 0.525918 0.530733 0.162259
v 0.525581 0.532371 0.167198
v 0.524991 0.533939 0.172489
v 0.524408 0.535508 0.177769
v 0.524118 0.537159 0.182644
v 0.524388 0.538963 0.186743
v 0.525421 0.540978 0.189783
v 0.527331 0.543233 0.191608
v 0.530117 0.545730 0.192219
v 0.533667 0.548437 0.191770
v 0.537776 0.551298 0.190546
v 0.542179 0.554239 0.188916
v 0.546588 0.557182 0.187277
v 0.550744 0.560056 0.185988
v 0.554453 0.562807 0.185319
v 0.557615 0.565407 0.185409
v 0.560236 0.567858 0.186249
v 0.562426 0.570191 0.187684
v 0.564378 0.572458 0.189452
v 0.562510 0.570214 0.187568
v 0.560881 0.568035 0.185354
v 0.559683 0.565975 0.182542
v 0.559025 0.564064 0.178982
v 0.558914 0.562303 0.174663
v 0.559251 0.560666 0.169723
v 0.559841 0.559098 0.164433
v 0.560424 0.557528 0.159152
v 0.560714 0.555878 0.154278
v 0.560444 0.554073 0.150178
v 0.559411 0.552059 0.147139
v 0.557501 0.549803 0.145314
v 0.554715 0.547306 0.144702
v 0.551165 0.544599 0.145151
v 0.547056 0.541739 0.146375
v 0.542653 0.538797 0.148005
v 0.538244 0.535854 0.149645
v 0.534088 0.532980 0.150934
v 0.530379 0.530230 0.151603
v 0.527217 0.527630 0.151512
v 0.524596 0.525179 0.150673
v 0.522406 0.522846 0.149237
f 325 326 327
f 325 327 326
f 325 327 328
f 325 328 327
f 325 328 329
f 325 329 328
f 325 329 330
f 325 330 329
f 325 330 331
f 325 331 330
f 325 331 332
f 325 332 331
f 325 332 333
f 325 333 332
f 325 333 334
f 325 334 333
f 325 334 335
f 325 335 334
f 325 335 336
f 325 336 335
f 325 336 337
f 325 337 336
f 325 337 338
f 325 338 337
f 325 338 339
f 325 339 338
f 325 339 340
f 325 340 339
f 325 340 341
f 325 341 340
f 325 341 342
f 325 342 341
f 325 342 343
f 325 343 342
f 325 343 344
f 325 344 343
f 325 344 345
f 325 345 344
f 325 345 346
f 325 346 345
f 325 346 347
f 325 347 346
f 325 347 348
f 325 348 347
f 325 348 349
f 325 349 348
f 325 349 350
f 325 350 349
f 325 350 351
f 325 351 350
f 325 351 352
f 325 352 351
f 325 352 353
f 325 353 352
f 325 353 354
f 325 354 353
f 325 354 355
f 325 355 354
f 325 355 356
f 325 356 355
f 325 356 357
f 325 357 356
f 325 357 358
f 325 358 357
f 325 358 359
f 325 359 358
f 325 359 360
f 325 360 359
f 325 360 361
f 325 361 360
f 325 361 362
f 325 362 361
f 325 362 363
f 325 363 362
f 325 363 364
f 325 364 363
f 325 364 365
f 325 365 364
f 325 365 366
f 325 366 365
f 325 366 367
f 325 367 366
f 325 367 368
f 325 368 367
f 325 368 369
f 325 369 368
f 325 369 370
f 325 370 369
v 0.520454 0.520579 0.147470
v 0.517829 0.520086 0.147657
v 0.515159 0.519448 0.147315
v 0.512431 0.518630 0.146314
v 0.509646 0.517635 0.144663
v 0.506815 0.516491 0.142470
v 0.503953 0.515251 0.139924
v 0.501082 0.513981 0.137271
v 0.498225 0.512757 0.134782
v 0.495405 0.511650 0.132722
v 0.492643 0.510723 0.131323
v 0.489952 0.510023 0.130752
v 0.487341 0.509574 0.131102
v 0.484810 0.509377 0.132370
v 0.482351 0.509406 0.134468
v 0.479950 0.509616 0.137227
v 0.477585 0.509943 0.140414
v 0.475235 0.510314 0.143765
v 0.472875 0.510657 0.147009
v 0.470485 0.510903 0.149901
v 0.468048 0.511001 0.152251
v 0.465555 0.510921 0.153950
v 0.463004 0.510662 0.154991
v 0.460407 0.510257 0.155502
v 0.463032 0.510750 0.155314
v 0.465703 0.511388 0.155657
v 0.468431 0.512206 0.156657
v 0.471215 0.513201 0.158308
v 0.474046 0.514345 0.160502
v 0.476908 0.515585 0.163047
v 0.479779 0.516854 0.165700
v 0.482636 0.518079 0.168189
v 0.485456 0.519186 0.170249
v 0.488219 0.520113 0.171649
v 0.490909 0.520813 0.172219
v 0.493520 0.521262 0.171870
v 0.496051 0.521459 0.170601
v 0.498510 0.521430 0.168503
v 0.500912 0.521220 0.165745
v 0.503276 0.520893 0.162557
v 0.505626 0.520521 0.159206
v 0.507986 0.520179 0.155962
v 0.510376 0.519933 0.153070
v 0.512813 0.519835 0.150720
v 0.515307 0.519914 0.149022
v 0.517857 0.520174 0.147981
f 371 372 373
f 371 373 372
f 371 373 374
f 371 374 373
f 371 374 375
f 371 375 374
f 371 375 376
f 371 376 375
f 371 376 377
f 371 377 376
f 371 377 378
f 371 378 377
f 371 378 379
f 371 379 378
f 371 379 380
f 371 380 379
f 371 380 381
f 371 381 380
f 371 381 382
f 371 382 381
f 371 382 383
f 371 383 382
f 371 383 384
f 371 384 383
f 371 384 385
f 371 385 384
f 371 385 386
f 371 386 385
f 371 386 387
f 371 387 386
f 371 387 388
f 371 388 387
f 371 388 389
f 371 389 388
f 371 389 390
f 371 390 389
f 371 390 391
f 371 391 390
f 371 391 392
f 371 392 391
f 371 392 393
f 371 393 392
f 371 393 394
f 371 394 393
f 371 394 395
f 371 395 394
f 371 395 396
f 371 396 395
f 371 396 397
f 371 397 396
f 371 397 398
f 371 398 397
f 371 398 399
f 371 399 398
f 371 399 400
f 371 400 399
f 371 400 401
f 371 401 400
f 371 401 402
f 371 402 401
f 371 402 403
f 371 403 402
f 371 403 404
f 371 404 403
f 371 404 405
f 371 405 404
f 371 405 406
f 371 406 405
f 371 406 407
f 371 407 406
f 371 407 408
f 371 408 407
f 371 408 409
f 371 409 408
f 371 409 410
f 371 410 409
f 371 410 411
f 371 411 410
f 371 411 412
f 371 412 411
f 371 412 413
f 371 413 412
f 371 413 414
f 371 414 413
f 371 414 415
f 371 415 414
f 371 415 416
f 371 416 415
