o mesh
v 0.000000 0.000000 0.060000
v 0.043725 -0.002275 0.043784
v 0.059919 -0.003117 0.000000
v 0.043725 -0.002275 -0.043784
v 0.000000 -0.000000 -0.060000
v -0.043725 0.002275 -0.043784
v -0.059919 0.003117 -0.000000
v -0.043725 0.002275 0.043784
v 0.112222 2.157004 0.040000
v 0.141372 2.155487 0.029190
v 0.152168 2.154926 0.000000
v 0.141372 2.155487 -0.029190
v 0.112222 2.157004 -0.040000
v 0.083072 2.158521 -0.029190
v 0.072276 2.159082 -0.000000
v 0.083072 2.158521 0.029190
f 1 2 10
f 1 10 9
f 2 3 11
f 2 11 10
f 3 4 12
f 3 12 11
f 4 5 13
f 4 13 12
f 5 6 14
f 5 14 13
f 6 7 15
f 6 15 14
f 7 8 16
f 7 16 15
f 8 1 9
f 8 9 16
v 0.112222 2.157004 -0.000000
v 0.115922 2.183968 -0.013777
v 0.122229 2.210932 -0.027639
v 0.129794 2.237896 -0.041543
v 0.137963 2.264860 -0.055466
v 0.146222 2.291824 -0.069393
v 0.154126 2.318788 -0.083308
v 0.161283 2.345752 -0.097198
v 0.167352 2.372716 -0.111053
v 0.172049 2.399680 -0.124862
v 0.175156 2.426643 -0.138619
v 0.176523 2.453607 -0.152319
v 0.176074 2.480571 -0.165959
v 0.173809 2.507535 -0.179539
v 0.169804 2.534499 -0.193062
v 0.164208 2.561463 -0.206532
v 0.157241 2.588427 -0.219958
v 0.149186 2.615391 -0.233347
v 0.140383 2.642355 -0.246712
v 0.131226 2.669319 -0.260065
v 0.122159 2.696283 -0.273421
v 0.113696 2.723247 -0.286797
v 0.106490 2.750211 -0.300215
v 0.101892 2.777175 -0.313718
v 0.098192 2.750211 -0.299942
v 0.091885 2.723247 -0.286079
v 0.084320 2.696283 -0.272175
v 0.076151 2.669319 -0.258252
v 0.067892 2.642355 -0.244325
v 0.059987 2.615391 -0.230410
v 0.052830 2.588427 -0.216520
v 0.046762 2.561463 -0.202665
v 0.042064 2.534499 -0.188856
v 0.038958 2.507535 -0.175099
v 0.037591 2.480571 -0.161399
v 0.038040 2.453607 -0.147759
v 0.040305 2.426643 -0.134179
v 0.044310 2.399680 -0.120656
v 0.049906 2.372716 -0.107186
v 0.056873 2.345752 -0.093760
v 0.064928 2.318788 -0.080371
v 0.073731 2.291824 -0.067006
v 0.082888 2.264860 -0.053653
v 0.091955 2.237896 -0.040297
v 0.100418 2.210932 -0.026921
v 0.107624 2.183968 -0.013503
f 17 18 19
f 17 19 18
f 17 19 20
f 17 20 19
f 17 20 21
f 17 21 20
f 17 21 22
f 17 22 21
f 17 22 23
f 17 23 22
f 17 23 24
f 17 24 23
f 17 24 25
f 17 25 24
f 17 25 26
f 17 26 25
f 17 26 27
f 17 27 26
f 17 27 28
f 17 28 27
f 17 28 29
f 17 29 28
f 17 29 30
f 17 30 29
f 17 30 31
f 17 31 30
f 17 31 32
f 17 32 31
f 17 32 33
f 17 33 32
f 17 33 34
f 17 34 33
f 17 34 35
f 17 35 34
f 17 35 36
f 17 36 35
f 17 36 37
f 17 37 36
f 17 37 38
f 17 38 37
f 17 38 39
f 17 39 38
f 17 39 40
f 17 40 39
f 17 40 41
f 17 41 40
f 17 41 42
f 17 42 41
f 17 42 43
f 17 43 42
f 17 43 44
f 17 44 43
f 17 44 45
f 17 45 44
f 17 45 46
f 17 46 45
f 17 46 47
f 17 47 46
f 17 47 48
f 17 48 47
f 17 48 49
f 17 49 48
f 17 49 50
f 17 50 49
f 17 50 51
f 17 51 50
f 17 51 52
f 17 52 51
f 17 52 53
f 17 53 52
f 17 53 54
f 17 54 53
f 17 54 55
f 17 55 54
f 17 55 56
f 17 56 55
f 17 56 57
f 17 57 56
f 17 57 58
f 17 58 57
f 17 58 59
f 17 59 58
f 17 59 60
f 17 60 59
f 17 60 61
f 17 61 60
f 17 61 62
f 17 62 61
v 0.112222 2.157004 -0.000000
v 0.150188 2.142187 0.013445
v 0.189280 2.127371 0.025155
v 0.228668 2.112554 0.036411
v 0.268016 2.097737 0.047730
v 0.307073 2.082920 0.059495
v 0.345633 2.068104 0.072025
v 0.383518 2.053287 0.085594
v 0.420578 2.038470 0.100433
v 0.456691 2.023653 0.116728
v 0.491763 2.008837 0.134625
v 0.525732 1.994020 0.154218
v 0.558566 1.979203 0.175559
v 0.590265 1.964386 0.198645
v 0.620861 1.949570 0.223429
v 0.650416 1.934753 0.249814
v 0.679024 1.919936 0.277656
v 0.706808 1.905119 0.306768
v 0.733916 1.890303 0.336918
v 0.760526 1.875486 0.367833
v 0.786847 1.860669 0.399195
v 0.813127 1.845853 0.430619
v 0.839702 1.831036 0.461589
v 0.867405 1.816219 0.490825
v 0.829439 1.831036 0.477380
v 0.790346 1.845853 0.465669
v 0.750958 1.860669 0.454413
v 0.711611 1.875486 0.443094
v 0.672553 1.890303 0.431330
v 0.633994 1.905119 0.418799
v 0.596109 1.919936 0.405230
v 0.559049 1.934753 0.390392
v 0.522936 1.949570 0.374096
v 0.487864 1.964386 0.356200
v 0.453895 1.979203 0.336606
v 0.421061 1.994020 0.315266
v 0.389362 2.008837 0.292179
v 0.358766 2.023653 0.267395
v 0.329211 2.038470 0.241010
v 0.300602 2.053287 0.213168
v 0.272819 2.068104 0.184057
v 0.245711 2.082920 0.153907
v 0.219100 2.097737 0.122991
v 0.192780 2.112554 0.091630
v 0.166500 2.127371 0.060205
v 0.139924 2.142187 0.029236
f 63 64 65
f 63 65 64
f 63 65 66
f 63 66 65
f 63 66 67
f 63 67 66
f 63 67 68
f 63 68 67
f 63 68 69
f 63 69 68
f 63 69 70
f 63 70 69
f 63 70 71
f 63 71 70
f 63 71 72
f 63 72 71
f 63 72 73
f 63 73 72
f 63 73 74
f 63 74 73
f 63 74 75
f 63 75 74
f 63 75 76
f 63 76 75
f 63 76 77
f 63 77 76
f 63 77 78
f 63 78 77
f 63 78 79
f 63 79 78
f 63 79 80
f 63 80 79
f 63 80 81
f 63 81 80
f 63 81 82
f 63 82 81
f 63 82 83
f 63 83 82
f 63 83 84
f 63 84 83
f 63 84 85
f 63 85 84
f 63 85 86
f 63 86 85
f 63 86 87
f 63 87 86
f 63 87 88
f 63 88 87
f 63 88 89
f 63 89 88
f 63 89 90
f 63 90 89
f 63 90 91
f 63 91 90
f 63 91 92
f 63 92 91
f 63 92 93
f 63 93 92
f 63 93 94
f 63 94 93
f 63 94 95
f 63 95 94
f 63 95 96
f 63 96 95
f 63 96 97
f 63 97 96
f 63 97 98
f 63 98 97
f 63 98 99
f 63 99 98
f 63 99 100
f 63 100 99
f 63 100 101
f 63 101 100
f 63 101 102
f 63 102 101
f 63 102 103
f 63 103 102
f 63 103 104
f 63 104 103
f 63 104 105
f 63 105 104
f 63 105 106
f 63 106 105
f 63 106 107
f 63 107 106
f 63 107 108
f 63 108 107
v 0.112222 2.157004 -0.000000
v 0.130750 2.132623 -0.012677
v 0.148390 2.108241 -0.027728
v 0.165660 2.083860 -0.043769
v 0.182788 2.059478 -0.060188
v 0.199948 2.035097 -0.076520
v 0.217288 2.010715 -0.092372
v 0.234935 1.986334 -0.107403
v 0.252999 1.961952 -0.121323
v 0.271568 1.937571 -0.133890
v 0.290713 1.913189 -0.144920
v 0.310481 1.888808 -0.154287
v 0.330894 1.864426 -0.161929
v 0.351954 1.840045 -0.167845
v 0.373636 1.815664 -0.172098
v 0.395893 1.791282 -0.174815
v 0.418657 1.766901 -0.176179
v 0.441836 1.742519 -0.176431
v 0.465324 1.718138 -0.175862
v 0.488990 1.693756 -0.174813
v 0.512689 1.669375 -0.173678
v 0.536247 1.644993 -0.172921
v 0.559434 1.620612 -0.173153
v 0.581733 1.596230 -0.175759
v 0.563204 1.620612 -0.163083
v 0.545564 1.644993 -0.148032
v 0.528295 1.669375 -0.131990
v 0.511167 1.693756 -0.115572
v 0.494007 1.718138 -0.099240
v 0.476667 1.742519 -0.083388
v 0.459020 1.766901 -0.068356
v 0.440956 1.791282 -0.054437
v 0.422386 1.815664 -0.041870
v 0.403241 1.840045 -0.030840
v 0.383474 1.864426 -0.021472
v 0.363060 1.888808 -0.013831
v 0.342001 1.913189 -0.007915
v 0.320319 1.937571 -0.003661
v 0.298061 1.961952 -0.000945
v 0.275298 1.986334 0.000419
v 0.252118 2.010715 0.000671
v 0.228631 2.035097 0.000102
v 0.204964 2.059478 -0.000946
v 0.181265 2.083860 -0.002081
v 0.157707 2.108241 -0.002839
v 0.134520 2.132623 -0.002606
f 109 110 111
f 109 111 110
f 109 111 112
f 109 112 111
f 109 112 113
f 109 113 112
f 109 113 114
f 109 114 113
f 109 114 115
f 109 115 114
f 109 115 116
f 109 116 115
f 109 116 117
f 109 117 116
f 109 117 118
f 109 118 117
f 109 118 119
f 109 119 118
f 109 119 120
f 109 120 119
f 109 120 121
f 109 121 120
f 109 121 122
f 109 122 121
f 109 122 123
f 109 123 122
f 109 123 124
f 109 124 123
f 109 124 125
f 109 125 124
f 109 125 126
f 109 126 125
f 109 126 127
f 109 127 126
f 109 127 128
f 109 128 127
f 109 128 129
f 109 129 128
f 109 129 130
f 109 130 129
f 109 130 131
f 109 131 130
f 109 131 132
f 109 132 131
f 109 132 133
f 109 133 132
f 109 133 134
f 109 134 133
f 109 134 135
f 109 135 134
f 109 135 136
f 109 136 135
f 109 136 137
f 109 137 136
f 109 137 138
f 109 138 137
f 109 138 139
f 109 139 138
f 109 139 140
f 109 140 139
f 109 140 141
f 109 141 140
f 109 141 142
f 109 142 141
f 109 142 143
f 109 143 142
f 109 143 144
f 109 144 143
f 109 144 145
f 109 145 144
f 109 145 146
f 109 146 145
f 109 146 147
f 109 147 146
f 109 147 148
f 109 148 147
f 109 148 149
f 109 149 148
f 109 149 150
f 109 150 149
f 109 150 151
f 109 151 150
f 109 151 152
f 109 152 151
f 109 152 153
f 109 153 152
f 109 153 154
f 109 154 153
v 0.112222 2.157004 -0.000000
v 0.116816 2.191474 0.017389
v 0.118836 2.225944 0.036522
v 0.119725 2.260414 0.056421
v 0.120139 2.294884 0.076642
v 0.120582 2.329355 0.096844
v 0.121483 2.363825 0.116735
v 0.123216 2.398295 0.136063
v 0.126102 2.432765 0.154609
v 0.130406 2.467235 0.172194
v 0.136332 2.501705 0.188680
v 0.144021 2.536175 0.203972
v 0.153541 2.570645 0.218023
v 0.164894 2.605115 0.230832
v 0.178008 2.639586 0.242448
v 0.192746 2.674056 0.252964
v 0.208901 2.708526 0.262519
v 0.226209 2.742996 0.271293
v 0.244350 2.777466 0.279503
v 0.262948 2.811936 0.287403
v 0.281574 2.846406 0.295284
v 0.299726 2.880876 0.303486
v 0.316748 2.915347 0.312454
v 0.331195 2.949817 0.323166
v 0.326601 2.915347 0.305778
v 0.324581 2.880876 0.286645
v 0.323692 2.846406 0.266745
v 0.323278 2.811936 0.246524
v 0.322834 2.777466 0.226323
v 0.321933 2.742996 0.206432
v 0.320201 2.708526 0.187104
v 0.317315 2.674056 0.168557
v 0.313011 2.639586 0.150972
v 0.307084 2.605115 0.134486
v 0.299396 2.570645 0.119194
v 0.289875 2.536175 0.105143
v 0.278523 2.501705 0.092334
v 0.265408 2.467235 0.080719
v 0.250671 2.432765 0.070202
v 0.234516 2.398295 0.060647
v 0.217207 2.363825 0.051874
v 0.199067 2.329355 0.043663
v 0.180469 2.294884 0.035763
v 0.161843 2.260414 0.027883
v 0.143690 2.225944 0.019681
v 0.126669 2.191474 0.010713
f 155 156 157
f 155 157 156
f 155 157 158
f 155 158 157
f 155 158 159
f 155 159 158
f 155 159 160
f 155 160 159
f 155 160 161
f 155 161 160
f 155 161 162
f 155 162 161
f 155 162 163
f 155 163 162
f 155 163 164
f 155 164 163
f 155 164 165
f 155 165 164
f 155 165 166
f 155 166 165
f 155 166 167
f 155 167 166
f 155 167 168
f 155 168 167
f 155 168 169
f 155 169 168
f 155 169 170
f 155 170 169
f 155 170 171
f 155 171 170
f 155 171 172
f 155 172 171
f 155 172 173
f 155 173 172
f 155 173 174
f 155 174 173
f 155 174 175
f 155 175 174
f 155 175 176
f 155 176 175
f 155 176 177
f 155 177 176
f 155 177 178
f 155 178 177
f 155 178 179
f 155 179 178
f 155 179 180
f 155 180 179
f 155 180 181
f 155 181 180
f 155 181 182
f 155 182 181
f 155 182 183
f 155 183 182
f 155 183 184
f 155 184 183
f 155 184 185
f 155 185 184
f 155 185 186
f 155 186 185
f 155 186 187
f 155 187 186
f 155 187 188
f 155 188 187
f 155 188 189
f 155 189 188
f 155 189 190
f 155 190 189
f 155 190 191
f 155 191 190
f 155 191 192
f 155 192 191
f 155 192 193
f 155 193 192
f 155 193 194
f 155 194 193
f 155 194 195
f 155 195 194
f 155 195 196
f 155 196 195
f 155 196 197
f 155 197 196
f 155 197 198
f 155 198 197
f 155 198 199
f 155 199 198
f 155 199 200
f 155 200 199
v 0.112222 2.157004 -0.000000
v 0.099977 2.133709 -0.019120
v 0.085264 2.110415 -0.037335
v 0.069455 2.087120 -0.055146
v 0.053175 2.063826 -0.072785
v 0.036908 2.040531 -0.090429
v 0.021066 2.017237 -0.108229
v 0.006007 1.993942 -0.126316
v -0.007957 1.970648 -0.144805
v -0.020573 1.947353 -0.163789
v -0.031642 1.924059 -0.183341
v -0.041030 1.900764 -0.203510
v -0.048670 1.877470 -0.224321
v -0.054562 1.854175 -0.245774
v -0.058773 1.830881 -0.267844
v -0.061438 1.807586 -0.290481
v -0.062754 1.784291 -0.313614
v -0.062976 1.760997 -0.337148
v -0.062414 1.737702 -0.360970
v -0.061427 1.714408 -0.384948
v -0.060428 1.691113 -0.408931
v -0.059898 1.667819 -0.432741
v -0.060466 1.644524 -0.456148
v -0.063501 1.621230 -0.478649
v -0.051256 1.644524 -0.459529
v -0.036543 1.667819 -0.441315
v -0.020734 1.691113 -0.423503
v -0.004454 1.714408 -0.405864
v 0.011813 1.737702 -0.388220
v 0.027655 1.760997 -0.370421
v 0.042714 1.784291 -0.352333
v 0.056678 1.807586 -0.333844
v 0.069294 1.830881 -0.314860
v 0.080363 1.854175 -0.295308
v 0.089751 1.877470 -0.275139
v 0.097391 1.900764 -0.254328
v 0.103283 1.924059 -0.232875
v 0.107494 1.947353 -0.210806
v 0.110159 1.970648 -0.188168
v 0.111475 1.993942 -0.165036
v 0.111697 2.017237 -0.141501
v 0.111134 2.040531 -0.117679
v 0.110148 2.063826 -0.093701
v 0.109148 2.087120 -0.069719
v 0.108619 2.110415 -0.045909
v 0.109187 2.133709 -0.022502
f 201 202 203
f 201 203 202
f 201 203 204
f 201 204 203
f 201 204 205
f 201 205 204
f 201 205 206
f 201 206 205
f 201 206 207
f 201 207 206
f 201 207 208
f 201 208 207
f 201 208 209
f 201 209 208
f 201 209 210
f 201 210 209
f 201 210 211
f 201 211 210
f 201 211 212
f 201 212 211
f 201 212 213
f 201 213 212
f 201 213 214
f 201 214 213
f 201 214 215
f 201 215 214
f 201 215 216
f 201 216 215
f 201 216 217
f 201 217 216
f 201 217 218
f 201 218 217
f 201 218 219
f 201 219 218
f 201 219 220
f 201 220 219
f 201 220 221
f 201 221 220
f 201 221 222
f 201 222 221
f 201 222 223
f 201 223 222
f 201 223 224
f 201 224 223
f 201 224 225
f 201 225 224
f 201 225 226
f 201 226 225
f 201 226 227
f 201 227 226
f 201 227 228
f 201 228 227
f 201 228 229
f 201 229 228
f 201 229 230
f 201 230 229
f 201 230 231
f 201 231 230
f 201 231 232
f 201 232 231
f 201 232 233
f 201 233 232
f 201 233 234
f 201 234 233
f 201 234 235
f 201 235 234
f 201 235 236
f 201 236 235
f 201 236 237
f 201 237 236
f 201 237 238
f 201 238 237
f 201 238 239
f 201 239 238
f 201 239 240
f 201 240 239
f 201 240 241
f 201 241 240
f 201 241 242
f 201 242 241
f 201 242 243
f 201 243 242
f 201 243 244
f 201 244 243
f 201 244 245
f 201 245 244
f 201 245 246
f 201 246 245
v 0.112222 2.157004 -0.000000
v 0.088824 2.132463 -0.003270
v 0.064522 2.107922 -0.003544
v 0.039708 2.083381 -0.002121
v 0.014601 2.058840 0.000272
v -0.010615 2.034299 0.003025
v -0.035772 2.009759 0.005585
v -0.060719 1.985218 0.007448
v -0.085321 1.960677 0.008170
v -0.109465 1.936136 0.007373
v -0.133063 1.911595 0.004764
v -0.156052 1.887054 0.000139
v -0.178402 1.862513 -0.006604
v -0.200113 1.837972 -0.015466
v -0.221216 1.813431 -0.026344
v -0.241772 1.788890 -0.039034
v -0.261870 1.764349 -0.053242
v -0.281624 1.739809 -0.068592
v -0.301167 1.715268 -0.084639
v -0.320652 1.690727 -0.100878
v -0.340246 1.666186 -0.116758
v -0.360132 1.641645 -0.131667
v -0.380530 1.617104 -0.144880
v -0.401832 1.592563 -0.155097
v -0.378434 1.617104 -0.151827
v -0.354132 1.641645 -0.151554
v -0.329318 1.666186 -0.152976
v -0.304211 1.690727 -0.155369
v -0.278996 1.715268 -0.158122
v -0.253839 1.739809 -0.160682
v -0.228892 1.764349 -0.162546
v -0.204290 1.788890 -0.163267
v -0.180145 1.813431 -0.162470
v -0.156548 1.837972 -0.159861
v -0.133558 1.862513 -0.155236
v -0.111208 1.887054 -0.148493
v -0.089497 1.911595 -0.139631
v -0.068394 1.936136 -0.128754
v -0.047838 1.960677 -0.116064
v -0.027740 1.985218 -0.101855
v -0.007987 2.009759 -0.086505
v 0.011556 2.034299 -0.070459
v 0.031041 2.058840 -0.054219
v 0.050635 2.083381 -0.038339
v 0.070522 2.107922 -0.023430
v 0.090920 2.132463 -0.010217
f 247 248 249
f 247 249 248
f 247 249 250
f 247 250 249
f 247 250 251
f 247 251 250
f 247 251 252
f 247 252 251
f 247 252 253
f 247 253 252
f 247 253 254
f 247 254 253
f 247 254 255
f 247 255 254
f 247 255 256
f 247 256 255
f 247 256 257
f 247 257 256
f 247 257 258
f 247 258 257
f 247 258 259
f 247 259 258
f 247 259 260
f 247 260 259
f 247 260 261
f 247 261 260
f 247 261 262
f 247 262 261
f 247 262 263
f 247 263 262
f 247 263 264
f 247 264 263
f 247 264 265
f 247 265 264
f 247 265 266
f 247 266 265
f 247 266 267
f 247 267 266
f 247 267 268
f 247 268 267
f 247 268 269
f 247 269 268
f 247 269 270
f 247 270 269
f 247 270 271
f 247 271 270
f 247 271 272
f 247 272 271
f 247 272 273
f 247 273 272
f 247 273 274
f 247 274 273
f 247 274 275
f 247 275 274
f 247 275 276
f 247 276 275
f 247 276 277
f 247 277 276
f 247 277 278
f 247 278 277
f 247 278 279
f 247 279 278
f 247 279 280
f 247 280 279
f 247 280 281
f 247 281 280
f 247 281 282
f 247 282 281
f 247 282 283
f 247 283 282
f 247 283 284
f 247 284 283
f 247 284 285
f 247 285 284
f 247 285 286
f 247 286 285
f 247 286 287
f 247 287 286
f 247 287 288
f 247 288 287
f 247 288 289
f 247 289 288
f 247 289 290
f 247 290 289
f 247 290 291
f 247 291 290
f 247 291 292
f 247 292 291
v 0.112222 2.157004 -0.000000
v 0.091307 2.184795 -0.018341
v 0.071849 2.212586 -0.039384
v 0.053011 2.240377 -0.061579
v 0.034421 2.268168 -0.084233
v 0.015795 2.295959 -0.106819
v -0.003111 2.323750 -0.128888
v -0.022505 2.351541 -0.150051
v -0.042567 2.379331 -0.169973
v -0.063447 2.407122 -0.188380
v -0.085257 2.434913 -0.205059
v -0.108076 2.462704 -0.219867
v -0.131943 2.490495 -0.232731
v -0.156858 2.518286 -0.243651
v -0.182781 2.546077 -0.252699
v -0.209635 2.573868 -0.260021
v -0.237306 2.601659 -0.265826
v -0.265646 2.629450 -0.270392
v -0.294474 2.657241 -0.274051
v -0.323581 2.685032 -0.277193
v -0.352725 2.712823 -0.280266
v -0.381621 2.740614 -0.283799
v -0.409896 2.768404 -0.288485
v -0.436715 2.796195 -0.295871
v -0.415800 2.768404 -0.277530
v -0.396342 2.740614 -0.256487
v -0.377504 2.712823 -0.234292
v -0.358914 2.685032 -0.211638
v -0.340287 2.657241 -0.189052
v -0.321382 2.629450 -0.166983
v -0.301988 2.601659 -0.145821
v -0.281926 2.573868 -0.125898
v -0.261046 2.546077 -0.107492
v -0.239236 2.518286 -0.090812
v -0.216417 2.490495 -0.076004
v -0.192550 2.462704 -0.063140
v -0.167635 2.434913 -0.052220
v -0.141712 2.407122 -0.043172
v -0.114858 2.379331 -0.035851
v -0.087187 2.351541 -0.030045
v -0.058847 2.323750 -0.025479
v -0.030019 2.295959 -0.021820
v -0.000912 2.268168 -0.018678
v 0.028232 2.240377 -0.015605
v 0.057128 2.212586 -0.012072
v 0.085403 2.184795 -0.007387
f 293 294 295
f 293 295 294
f 293 295 296
f 293 296 295
f 293 296 297
f 293 297 296
f 293 297 298
f 293 298 297
f 293 298 299
f 293 299 298
f 293 299 300
f 293 300 299
f 293 300 301
f 293 301 300
f 293 301 302
f 293 302 301
f 293 302 303
f 293 303 302
f 293 303 304
f 293 304 303
f 293 304 305
f 293 305 304
f 293 305 306
f 293 306 305
f 293 306 307
f 293 307 306
f 293 307 308
f 293 308 307
f 293 308 309
f 293 309 308
f 293 309 310
f 293 310 309
f 293 310 311
f 293 311 310
f 293 311 312
f 293 312 311
f 293 312 313
f 293 313 312
f 293 313 314
f 293 314 313
f 293 314 315
f 293 315 314
f 293 315 316
f 293 316 315
f 293 316 317
f 293 317 316
f 293 317 318
f 293 318 317
f 293 318 319
f 293 319 318
f 293 319 320
f 293 320 319
f 293 320 321
f 293 321 320
f 293 321 322
f 293 322 321
f 293 322 323
f 293 323 322
f 293 323 324
f 293 324 323
f 293 324 325
f 293 325 324
f 293 325 326
f 293 326 325
f 293 326 327
f 293 327 326
f 293 327 328
f 293 328 327
f 293 328 329
f 293 329 328
f 293 329 330
f 293 330 329
f 293 330 331
f 293 331 330
f 293 331 332
f 293 332 331
f 293 332 333
f 293 333 332
f 293 333 334
f 293 334 333
f 293 334 335
f 293 335 334
f 293 335 336
f 293 336 335
f 293 336 337
f 293 337 336
f 293 337 338
f 293 338 337
