o mesh
v 0.000000 0.000000 0.009000 0.200 0.440 0.170
v 0.007794 0.000000 0.004500 0.200 0.440 0.170
v 0.007794 0.000000 -0.004500 0.200 0.440 0.170
v 0.000000 0.000000 -0.009000 0.200 0.440 0.170
v -0.007794 0.000000 -0.004500 0.200 0.440 0.170
v -0.007794 0.000000 0.004500 0.200 0.440 0.170
v 0.000000 0.324122 0.008000 0.200 0.440 0.170
v 0.006928 0.324122 0.004000 0.200 0.440 0.170
v 0.006928 0.324122 -0.004000 0.200 0.440 0.170
v 0.000000 0.324122 -0.008000 0.200 0.440 0.170
v -0.006928 0.324122 -0.004000 0.200 0.440 0.170
v -0.006928 0.324122 0.004000 0.200 0.440 0.170
f 1 2 8
f 1 8 7
f 2 3 9
f 2 9 8
f 3 4 10
f 3 10 9
f 4 5 11
f 4 11 10
f 5 6 12
f 5 12 11
f 6 1 7
f 6 7 12
v 0.000000 0.419122 0.050000 0.956 0.492 0.087
v 0.004278 0.416518 0.048895 0.956 0.492 0.087
v 0.008267 0.412387 0.046885 0.956 0.492 0.087
v 0.011905 0.407944 0.044429 0.956 0.492 0.087
v 0.015189 0.403646 0.041732 0.956 0.492 0.087
v 0.018145 0.399717 0.038913 0.956 0.492 0.087
v 0.020810 0.396268 0.036043 0.956 0.492 0.087
v 0.023223 0.393347 0.033166 0.956 0.492 0.087
v 0.025426 0.390970 0.030301 0.956 0.492 0.087
v 0.027456 0.389134 0.027456 0.956 0.492 0.087
v 0.029346 0.387833 0.024624 0.956 0.492 0.087
v 0.031125 0.387057 0.021794 0.956 0.492 0.087
v 0.032816 0.386799 0.018946 0.956 0.492 0.087
v 0.034437 0.387057 0.016058 0.956 0.492 0.087
v 0.035998 0.387833 0.013102 0.956 0.492 0.087
v 0.037505 0.389134 0.010050 0.956 0.492 0.087
v 0.038955 0.390970 0.006869 0.956 0.492 0.087
v 0.040334 0.393347 0.003529 0.956 0.492 0.087
v 0.041619 0.396268 0.000000 0.956 0.492 0.087
v 0.042772 0.399717 -0.003742 0.956 0.492 0.087
v 0.043736 0.403646 -0.007712 0.956 0.492 0.087
v 0.044429 0.407944 -0.011905 0.956 0.492 0.087
v 0.044737 0.412387 -0.016283 0.956 0.492 0.087
v 0.044483 0.416518 -0.020743 0.956 0.492 0.087
v 0.043301 0.419122 -0.025000 0.956 0.492 0.087
v 0.040205 0.416518 -0.028152 0.956 0.492 0.087
v 0.036470 0.412387 -0.030602 0.956 0.492 0.087
v 0.032524 0.407944 -0.032524 0.956 0.492 0.087
v 0.028546 0.403646 -0.034020 0.956 0.492 0.087
v 0.024627 0.399717 -0.035171 0.956 0.492 0.087
v 0.020810 0.396268 -0.036043 0.956 0.492 0.087
v 0.017111 0.393347 -0.036695 0.956 0.492 0.087
v 0.013529 0.390970 -0.037170 0.956 0.492 0.087
v 0.010050 0.389134 -0.037505 0.956 0.492 0.087
v 0.006652 0.387833 -0.037727 0.956 0.492 0.087
v 0.003312 0.387057 -0.037852 0.956 0.492 0.087
v 0.000000 0.386799 -0.037893 0.956 0.492 0.087
v -0.003312 0.387057 -0.037852 0.956 0.492 0.087
v -0.006652 0.387833 -0.037727 0.956 0.492 0.087
v -0.010050 0.389134 -0.037505 0.956 0.492 0.087
v -0.013529 0.390970 -0.037170 0.956 0.492 0.087
v -0.017111 0.393347 -0.036695 0.956 0.492 0.087
v -0.020810 0.396268 -0.036043 0.956 0.492 0.087
v -0.024627 0.399717 -0.035171 0.956 0.492 0.087
v -0.028546 0.403646 -0.034020 0.956 0.492 0.087
v -0.032524 0.407944 -0.032524 0.956 0.492 0.087
v -0.036470 0.412387 -0.030602 0.956 0.492 0.087
v -0.040205 0.416518 -0.028152 0.956 0.492 0.087
v -0.043301 0.419122 -0.025000 0.956 0.492 0.087
v -0.044483 0.416518 -0.020743 0.956 0.492 0.087
v -0.044737 0.412387 -0.016283 0.956 0.492 0.087
v -0.044429 0.407944 -0.011905 0.956 0.492 0.087
v -0.043736 0.403646 -0.007712 0.956 0.492 0.087
v -0.042772 0.399717 -0.003742 0.956 0.492 0.087
v -0.041619 0.396268 -0.000000 0.956 0.492 0.087
v -0.040334 0.393347 0.003529 0.956 0.492 0.087
v -0.038955 0.390970 0.006869 0.956 0.492 0.087
v -0.037505 0.389134 0.010050 0.956 0.492 0.087
v -0.035998 0.387833 0.013102 0.956 0.492 0.087
v -0.034437 0.387057 0.016058 0.956 0.492 0.087
v -0.032816 0.386799 0.018946 0.956 0.492 0.087
v -0.031125 0.387057 0.021794 0.956 0.492 0.087
v -0.029346 0.387833 0.024624 0.956 0.492 0.087
v -0.027456 0.389134 0.027456 0.956 0.492 0.087
v -0.025426 0.390970 0.030301 0.956 0.492 0.087
v -0.023223 0.393347 0.033166 0.956 0.492 0.087
v -0.020810 0.396268 0.036043 0.956 0.492 0.087
v -0.018145 0.399717 0.038913 0.956 0.492 0.087
v -0.015189 0.403646 0.041732 0.956 0.492 0.087
v -0.011905 0.407944 0.044429 0.956 0.492 0.087
v -0.008267 0.412387 0.046885 0.956 0.492 0.087
v -0.004278 0.416518 0.048895 0.956 0.492 0.087
v 0.000000 0.324122 -0.000000 0.956 0.492 0.087
f 85 13 14
f 85 14 13
f 85 14 15
f 85 15 14
f 85 15 16
f 85 16 15
f 85 16 17
f 85 17 16
f 85 17 18
f 85 18 17
f 85 18 19
f 85 19 18
f 85 19 20
f 85 20 19
f 85 20 21
f 85 21 20
f 85 21 22
f 85 22 21
f 85 22 23
f 85 23 22
f 85 23 24
f 85 24 23
f 85 24 25
f 85 25 24
f 85 25 26
f 85 26 25
f 85 26 27
f 85 27 26
f 85 27 28
f 85 28 27
f 85 28 29
f 85 29 28
f 85 29 30
f 85 30 29
f 85 30 31
f 85 31 30
f 85 31 32
f 85 32 31
f 85 32 33
f 85 33 32
f 85 33 34
f 85 34 33
f 85 34 35
f 85 35 34
f 85 35 36
f 85 36 35
f 85 36 37
f 85 37 36
f 85 37 38
f 85 38 37
f 85 38 39
f 85 39 38
f 85 39 40
f 85 40 39
f 85 40 41
f 85 41 40
f 85 41 42
f 85 42 41
f 85 42 43
f 85 43 42
f 85 43 44
f 85 44 43
f 85 44 45
f 85 45 44
f 85 45 46
f 85 46 45
f 85 46 47
f 85 47 46
f 85 47 48
f 85 48 47
f 85 48 49
f 85 49 48
f 85 49 50
f 85 50 49
f 85 50 51
f 85 51 50
f 85 51 52
f 85 52 51
f 85 52 53
f 85 53 52
f 85 53 54
f 85 54 53
f 85 54 55
f 85 55 54
f 85 55 56
f 85 56 55
f 85 56 57
f 85 57 56
f 85 57 58
f 85 58 57
f 85 58 59
f 85 59 58
f 85 59 60
f 85 60 59
f 85 60 61
f 85 61 60
f 85 61 62
f 85 62 61
f 85 62 63
f 85 63 62
f 85 63 64
f 85 64 63
f 85 64 65
f 85 65 64
f 85 65 66
f 85 66 65
f 85 66 67
f 85 67 66
f 85 67 68
f 85 68 67
f 85 68 69
f 85 69 68
f 85 69 70
f 85 70 69
f 85 70 71
f 85 71 70
f 85 71 72
f 85 72 71
f 85 72 73
f 85 73 72
f 85 73 74
f 85 74 73
f 85 74 75
f 85 75 74
f 85 75 76
f 85 76 75
f 85 76 77
f 85 77 76
f 85 77 78
f 85 78 77
f 85 78 79
f 85 79 78
f 85 79 80
f 85 80 79
f 85 80 81
f 85 81 80
f 85 81 82
f 85 82 81
f 85 82 83
f 85 83 82
f 85 83 84
f 85 84 83
f 85 84 13
f 85 13 84
v 0.038105 0.414122 0.022000 0.961 0.553 0.197
v 0.039145 0.411655 0.018254 0.961 0.553 0.197
v 0.039368 0.407741 0.014329 0.961 0.553 0.197
v 0.039098 0.403532 0.010476 0.961 0.553 0.197
v 0.038487 0.399460 0.006786 0.961 0.553 0.197
v 0.037639 0.395738 0.003293 0.961 0.553 0.197
v 0.036625 0.392471 0.000000 0.961 0.553 0.197
v 0.035494 0.389704 -0.003105 0.961 0.553 0.197
v 0.034280 0.387451 -0.006045 0.961 0.553 0.197
v 0.033005 0.385713 -0.008844 0.961 0.553 0.197
v 0.031679 0.384480 -0.011530 0.961 0.553 0.197
v 0.030304 0.383745 -0.014131 0.961 0.553 0.197
v 0.028878 0.383500 -0.016673 0.961 0.553 0.197
v 0.027390 0.383745 -0.019179 0.961 0.553 0.197
v 0.025825 0.384480 -0.021669 0.961 0.553 0.197
v 0.024161 0.385713 -0.024161 0.961 0.553 0.197
v 0.022375 0.387451 -0.026665 0.961 0.553 0.197
v 0.020436 0.389704 -0.029186 0.961 0.553 0.197
v 0.018312 0.392471 -0.031718 0.961 0.553 0.197
v 0.015968 0.395738 -0.034243 0.961 0.553 0.197
v 0.013367 0.399460 -0.036724 0.961 0.553 0.197
v 0.010476 0.403532 -0.039098 0.961 0.553 0.197
v 0.007275 0.407741 -0.041258 0.961 0.553 0.197
v 0.003764 0.411655 -0.043028 0.961 0.553 0.197
v 0.000000 0.414122 -0.044000 0.961 0.553 0.197
v -0.003764 0.411655 -0.043028 0.961 0.553 0.197
v -0.007275 0.407741 -0.041258 0.961 0.553 0.197
v -0.010476 0.403532 -0.039098 0.961 0.553 0.197
v -0.013367 0.399460 -0.036724 0.961 0.553 0.197
v -0.015968 0.395738 -0.034243 0.961 0.553 0.197
v -0.018312 0.392471 -0.031718 0.961 0.553 0.197
v -0.020436 0.389704 -0.029186 0.961 0.553 0.197
v -0.022375 0.387451 -0.026665 0.961 0.553 0.197
v -0.024161 0.385713 -0.024161 0.961 0.553 0.197
v -0.025825 0.384480 -0.021669 0.961 0.553 0.197
v -0.027390 0.383745 -0.019179 0.961 0.553 0.197
v -0.028878 0.383500 -0.016673 0.961 0.553 0.197
v -0.030304 0.383745 -0.014131 0.961 0.553 0.197
v -0.031679 0.384480 -0.011530 0.961 0.553 0.197
v -0.033005 0.385713 -0.008844 0.961 0.553 0.197
v -0.034280 0.387451 -0.006045 0.961 0.553 0.197
v -0.035494 0.389704 -0.003105 0.961 0.553 0.197
v -0.036625 0.392471 -0.000000 0.961 0.553 0.197
v -0.037639 0.395738 0.003293 0.961 0.553 0.197
v -0.038487 0.399460 0.006786 0.961 0.553 0.197
v -0.039098 0.403532 0.010476 0.961 0.553 0.197
v -0.039368 0.407741 0.014329 0.961 0.553 0.197
v -0.039145 0.411655 0.018254 0.961 0.553 0.197
v -0.038105 0.414122 0.022000 0.961 0.553 0.197
v -0.035381 0.411655 0.024774 0.961 0.553 0.197
v -0.032093 0.407741 0.026929 0.961 0.553 0.197
v -0.028622 0.403532 0.028622 0.961 0.553 0.197
v -0.025121 0.399460 0.029938 0.961 0.553 0.197
v -0.021672 0.395738 0.030950 0.961 0.553 0.197
v -0.018312 0.392471 0.031718 0.961 0.553 0.197
v -0.015058 0.389704 0.032291 0.961 0.553 0.197
v -0.011905 0.387451 0.032710 0.961 0.553 0.197
v -0.008844 0.385713 0.033005 0.961 0.553 0.197
v -0.005854 0.384480 0.033199 0.961 0.553 0.197
v -0.002914 0.383745 0.033310 0.961 0.553 0.197
v 0.000000 0.383500 0.033346 0.961 0.553 0.197
v 0.002914 0.383745 0.033310 0.961 0.553 0.197
v 0.005854 0.384480 0.033199 0.961 0.553 0.197
v 0.008844 0.385713 0.033005 0.961 0.553 0.197
v 0.011905 0.387451 0.032710 0.961 0.553 0.197
v 0.015058 0.389704 0.032291 0.961 0.553 0.197
v 0.018312 0.392471 0.031718 0.961 0.553 0.197
v 0.021672 0.395738 0.030950 0.961 0.553 0.197
v 0.025121 0.399460 0.029938 0.961 0.553 0.197
v 0.028622 0.403532 0.028622 0.961 0.553 0.197
v 0.032093 0.407741 0.026929 0.961 0.553 0.197
v 0.035381 0.411655 0.024774 0.961 0.553 0.197
v 0.000000 0.324122 -0.000000 0.961 0.553 0.197
f 158 86 87
f 158 87 86
f 158 87 88
f 158 88 87
f 158 88 89
f 158 89 88
f 158 89 90
f 158 90 89
f 158 90 91
f 158 91 90
f 158 91 92
f 158 92 91
f 158 92 93
f 158 93 92
f 158 93 94
f 158 94 93
f 158 94 95
f 158 95 94
f 158 95 96
f 158 96 95
f 158 96 97
f 158 97 96
f 158 97 98
f 158 98 97
f 158 98 99
f 158 99 98
f 158 99 100
f 158 100 99
f 158 100 101
f 158 101 100
f 158 101 102
f 158 102 101
f 158 102 103
f 158 103 102
f 158 103 104
f 158 104 103
f 158 104 105
f 158 105 104
f 158 105 106
f 158 106 105
f 158 106 107
f 158 107 106
f 158 107 108
f 158 108 107
f 158 108 109
f 158 109 108
f 158 109 110
f 158 110 109
f 158 110 111
f 158 111 110
f 158 111 112
f 158 112 111
f 158 112 113
f 158 113 112
f 158 113 114
f 158 114 113
f 158 114 115
f 158 115 114
f 158 115 116
f 158 116 115
f 158 116 117
f 158 117 116
f 158 117 118
f 158 118 117
f 158 118 119
f 158 119 118
f 158 119 120
f 158 120 119
f 158 120 121
f 158 121 120
f 158 121 122
f 158 122 121
f 158 122 123
f 158 123 122
f 158 123 124
f 158 124 123
f 158 124 125
f 158 125 124
f 158 125 126
f 158 126 125
f 158 126 127
f 158 127 126
f 158 127 128
f 158 128 127
f 158 128 129
f 158 129 128
f 158 129 130
f 158 130 129
f 158 130 131
f 158 131 130
f 158 131 132
f 158 132 131
f 158 132 133
f 158 133 132
f 158 133 134
f 158 134 133
f 158 134 135
f 158 135 134
f 158 135 136
f 158 136 135
f 158 136 137
f 158 137 136
f 158 137 138
f 158 138 137
f 158 138 139
f 158 139 138
f 158 139 140
f 158 140 139
f 158 140 141
f 158 141 140
f 158 141 142
f 158 142 141
f 158 142 143
f 158 143 142
f 158 143 144
f 158 144 143
f 158 144 145
f 158 145 144
f 158 145 146
f 158 146 145
f 158 146 147
f 158 147 146
f 158 147 148
f 158 148 147
f 158 148 149
f 158 149 148
f 158 149 150
f 158 150 149
f 158 150 151
f 158 151 150
f 158 151 152
f 158 152 151
f 158 152 153
f 158 153 152
f 158 153 154
f 158 154 153
f 158 154 155
f 158 155 154
f 158 155 156
f 158 156 155
f 158 156 157
f 158 157 156
f 158 157 86
f 158 86 157
v 0.000000 0.010000 -0.000000 0.180 0.500 0.200
v 0.008181 0.003218 0.010485 0.180 0.500 0.200
v 0.016953 -0.003564 0.020804 0.180 0.500 0.200
v 0.025795 -0.010346 0.031105 0.180 0.500 0.200
v 0.034487 -0.017129 0.041446 0.180 0.500 0.200
v 0.042864 -0.023911 0.051877 0.180 0.500 0.200
v 0.050785 -0.030693 0.062435 0.180 0.500 0.200
v 0.058130 -0.037475 0.073154 0.180 0.500 0.200
v 0.064796 -0.044257 0.084064 0.180 0.500 0.200
v 0.070700 -0.051039 0.095188 0.180 0.500 0.200
v 0.075779 -0.057822 0.106543 0.180 0.500 0.200
v 0.079991 -0.064604 0.118141 0.180 0.500 0.200
v 0.083313 -0.071386 0.129988 0.180 0.500 0.200
v 0.085746 -0.078168 0.142085 0.180 0.500 0.200
v 0.087310 -0.084950 0.154426 0.180 0.500 0.200
v 0.088050 -0.091732 0.166997 0.180 0.500 0.200
v 0.088028 -0.098514 0.179783 0.180 0.500 0.200
v 0.087327 -0.105297 0.192758 0.180 0.500 0.200
v 0.086050 -0.112079 0.205895 0.180 0.500 0.200
v 0.084317 -0.118861 0.219160 0.180 0.500 0.200
v 0.082269 -0.125643 0.232514 0.180 0.500 0.200
v 0.080072 -0.132425 0.245909 0.180 0.500 0.200
v 0.077943 -0.139207 0.259285 0.180 0.500 0.200
v 0.076406 -0.145990 0.272495 0.180 0.500 0.200
v 0.068225 -0.139207 0.262010 0.180 0.500 0.200
v 0.059453 -0.132425 0.251690 0.180 0.500 0.200
v 0.050611 -0.125643 0.241390 0.180 0.500 0.200
v 0.041919 -0.118861 0.231049 0.180 0.500 0.200
v 0.033542 -0.112079 0.220618 0.180 0.500 0.200
v 0.025621 -0.105297 0.210060 0.180 0.500 0.200
v 0.018277 -0.098514 0.199341 0.180 0.500 0.200
v 0.011610 -0.091732 0.188431 0.180 0.500 0.200
v 0.005706 -0.084950 0.177307 0.180 0.500 0.200
v 0.000627 -0.078168 0.165952 0.180 0.500 0.200
v -0.003585 -0.071386 0.154354 0.180 0.500 0.200
v -0.006907 -0.064604 0.142506 0.180 0.500 0.200
v -0.009339 -0.057822 0.130409 0.180 0.500 0.200
v -0.010904 -0.051039 0.118069 0.180 0.500 0.200
v -0.011644 -0.044257 0.105497 0.180 0.500 0.200
v -0.011621 -0.037475 0.092712 0.180 0.500 0.200
v -0.010921 -0.030693 0.079737 0.180 0.500 0.200
v -0.009644 -0.023911 0.066599 0.180 0.500 0.200
v -0.007911 -0.017129 0.053334 0.180 0.500 0.200
v -0.005863 -0.010346 0.039981 0.180 0.500 0.200
v -0.003665 -0.003564 0.026586 0.180 0.500 0.200
v -0.001537 0.003218 0.013210 0.180 0.500 0.200
f 159 160 161
f 159 161 160
f 159 161 162
f 159 162 161
f 159 162 163
f 159 163 162
f 159 163 164
f 159 164 163
f 159 164 165
f 159 165 164
f 159 165 166
f 159 166 165
f 159 166 167
f 159 167 166
f 159 167 168
f 159 168 167
f 159 168 169
f 159 169 168
f 159 169 170
f 159 170 169
f 159 170 171
f 159 171 170
f 159 171 172
f 159 172 171
f 159 172 173
f 159 173 172
f 159 173 174
f 159 174 173
f 159 174 175
f 159 175 174
f 159 175 176
f 159 176 175
f 159 176 177
f 159 177 176
f 159 177 178
f 159 178 177
f 159 178 179
f 159 179 178
f 159 179 180
f 159 180 179
f 159 180 181
f 159 181 180
f 159 181 182
f 159 182 181
f 159 182 183
f 159 183 182
f 159 183 184
f 159 184 183
f 159 184 185
f 159 185 184
f 159 185 186
f 159 186 185
f 159 186 187
f 159 187 186
f 159 187 188
f 159 188 187
f 159 188 189
f 159 189 188
f 159 189 190
f 159 190 189
f 159 190 191
f 159 191 190
f 159 191 192
f 159 192 191
f 159 192 193
f 159 193 192
f 159 193 194
f 159 194 193
f 159 194 195
f 159 195 194
f 159 195 196
f 159 196 195
f 159 196 197
f 159 197 196
f 159 197 198
f 159 198 197
f 159 198 199
f 159 199 198
f 159 199 200
f 159 200 199
f 159 200 201
f 159 201 200
f 159 201 202
f 159 202 201
f 159 202 203
f 159 203 202
f 159 203 204
f 159 204 203
v 0.000000 0.010000 -0.000000 0.180 0.500 0.200
v -0.006365 0.002673 -0.011870 0.180 0.500 0.200
v -0.013356 -0.004654 -0.023679 0.180 0.500 0.200
v -0.020422 -0.011982 -0.035481 0.180 0.500 0.200
v -0.027329 -0.019309 -0.047298 0.180 0.500 0.200
v -0.033901 -0.026636 -0.059148 0.180 0.500 0.200
v -0.039989 -0.033963 -0.071045 0.180 0.500 0.200
v -0.045465 -0.041290 -0.083002 0.180 0.500 0.200
v -0.050221 -0.048617 -0.095028 0.180 0.500 0.200
v -0.054169 -0.055945 -0.107134 0.180 0.500 0.200
v -0.057240 -0.063272 -0.119325 0.180 0.500 0.200
v -0.059390 -0.070599 -0.131606 0.180 0.500 0.200
v -0.060596 -0.077926 -0.143979 0.180 0.500 0.200
v -0.060857 -0.085253 -0.156443 0.180 0.500 0.200
v -0.060197 -0.092581 -0.168998 0.180 0.500 0.200
v -0.058662 -0.099908 -0.181638 0.180 0.500 0.200
v -0.056317 -0.107235 -0.194357 0.180 0.500 0.200
v -0.053252 -0.114562 -0.207146 0.180 0.500 0.200
v -0.049575 -0.121889 -0.219994 0.180 0.500 0.200
v -0.045415 -0.129216 -0.232890 0.180 0.500 0.200
v -0.040919 -0.136544 -0.245818 0.180 0.500 0.200
v -0.036265 -0.143871 -0.258762 0.180 0.500 0.200
v -0.031685 -0.151198 -0.271699 0.180 0.500 0.200
v -0.027732 -0.158525 -0.284574 0.180 0.500 0.200
v -0.021367 -0.151198 -0.272704 0.180 0.500 0.200
v -0.014375 -0.143871 -0.260895 0.180 0.500 0.200
v -0.007310 -0.136544 -0.249094 0.180 0.500 0.200
v -0.000403 -0.129216 -0.237276 0.180 0.500 0.200
v 0.006169 -0.121889 -0.225427 0.180 0.500 0.200
v 0.012257 -0.114562 -0.213530 0.180 0.500 0.200
v 0.017734 -0.107235 -0.201573 0.180 0.500 0.200
v 0.022490 -0.099908 -0.189546 0.180 0.500 0.200
v 0.026437 -0.092581 -0.177441 0.180 0.500 0.200
v 0.029508 -0.085253 -0.165250 0.180 0.500 0.200
v 0.031658 -0.077926 -0.152969 0.180 0.500 0.200
v 0.032864 -0.070599 -0.140596 0.180 0.500 0.200
v 0.033126 -0.063272 -0.128131 0.180 0.500 0.200
v 0.032466 -0.055945 -0.115577 0.180 0.500 0.200
v 0.030930 -0.048617 -0.102937 0.180 0.500 0.200
v 0.028585 -0.041290 -0.090218 0.180 0.500 0.200
v 0.025520 -0.033963 -0.077429 0.180 0.500 0.200
v 0.021844 -0.026636 -0.064580 0.180 0.500 0.200
v 0.017683 -0.019309 -0.051684 0.180 0.500 0.200
v 0.013187 -0.011982 -0.038756 0.180 0.500 0.200
v 0.008533 -0.004654 -0.025812 0.180 0.500 0.200
v 0.003953 0.002673 -0.012876 0.180 0.500 0.200
f 205 206 207
f 205 207 206
f 205 207 208
f 205 208 207
f 205 208 209
f 205 209 208
f 205 209 210
f 205 210 209
f 205 210 211
f 205 211 210
f 205 211 212
f 205 212 211
f 205 212 213
f 205 213 212
f 205 213 214
f 205 214 213
f 205 214 215
f 205 215 214
f 205 215 216
f 205 216 215
f 205 216 217
f 205 217 216
f 205 217 218
f 205 218 217
f 205 218 219
f 205 219 218
f 205 219 220
f 205 220 219
f 205 220 221
f 205 221 220
f 205 221 222
f 205 222 221
f 205 222 223
f 205 223 222
f 205 223 224
f 205 224 223
f 205 224 225
f 205 225 224
f 205 225 226
f 205 226 225
f 205 226 227
f 205 227 226
f 205 227 228
f 205 228 227
f 205 228 229
f 205 229 228
f 205 229 230
f 205 230 229
f 205 230 231
f 205 231 230
f 205 231 232
f 205 232 231
f 205 232 233
f 205 233 232
f 205 233 234
f 205 234 233
f 205 234 235
f 205 235 234
f 205 235 236
f 205 236 235
f 205 236 237
f 205 237 236
f 205 237 238
f 205 238 237
f 205 238 239
f 205 239 238
f 205 239 240
f 205 240 239
f 205 240 241
f 205 241 240
f 205 241 242
f 205 242 241
f 205 242 243
f 205 243 242
f 205 243 244
f 205 244 243
f 205 244 245
f 205 245 244
f 205 245 246
f 205 246 245
f 205 246 247
f 205 247 246
f 205 247 248
f 205 248 247
f 205 248 249
f 205 249 248
f 205 249 250
f 205 250 249
