o mesh
v 0.000000 0.000031 0.012000
v 0.010164 -0.002150 0.006006
v 0.010164 -0.002181 -0.005994
v 0.000000 -0.000031 -0.012000
v -0.010164 0.002150 -0.006006
v -0.010164 0.002181 0.005994
v 0.111984 0.525549 0.006654
v 0.118760 0.524095 0.002658
v 0.118760 0.524074 -0.005342
v 0.111984 0.525508 -0.009346
v 0.105208 0.526962 -0.005349
v 0.105208 0.526982 0.002651
f 1 2 8
f 1 8 7
f 2 3 9
f 2 9 8
f 3 4 10
f 3 10 9
f 4 5 11
f 4 11 10
f 5 6 12
f 5 12 11
f 6 1 7
f 6 7 12
v 0.111984 0.525528 -0.001346
v 0.150245 0.499684 0.046840
v 0.172918 0.477131 0.083247
v 0.190569 0.455639 0.115858
v 0.204548 0.434922 0.145694
v 0.215285 0.414890 0.173081
v 0.222920 0.395513 0.198123
v 0.227476 0.376785 0.220839
v 0.228928 0.358714 0.241209
v 0.227233 0.341306 0.259201
v 0.222352 0.324572 0.274785
v 0.214252 0.308517 0.287937
v 0.202915 0.293145 0.298643
v 0.188343 0.278457 0.306904
v 0.170552 0.264448 0.312732
v 0.149574 0.251113 0.316152
v 0.125450 0.238442 0.317195
v 0.098221 0.226426 0.315892
v 0.067914 0.215060 0.312262
v 0.034505 0.204349 0.306288
v -0.002147 0.194323 0.297864
v -0.042470 0.185073 0.286665
v -0.087816 0.176882 0.271671
v -0.148749 0.171983 0.244898
v -0.187011 0.197827 0.196712
v -0.209683 0.220380 0.160306
v -0.227335 0.241872 0.127694
v -0.241313 0.262589 0.097858
v -0.252050 0.282622 0.070472
v -0.259685 0.301999 0.045429
v -0.264241 0.320726 0.022714
v -0.265693 0.338798 0.002344
v -0.263999 0.356205 -0.015649
v -0.259117 0.372940 -0.031233
v -0.251017 0.388995 -0.044384
v -0.239681 0.404366 -0.055091
v -0.225109 0.419055 -0.063351
v -0.207318 0.433063 -0.069180
v -0.186339 0.446399 -0.072600
v -0.162215 0.459070 -0.073643
v -0.134987 0.471086 -0.072339
v -0.104679 0.482451 -0.068710
v -0.071270 0.493162 -0.062736
v -0.034619 0.503188 -0.054312
v 0.005705 0.512439 -0.043113
v 0.051050 0.520629 -0.028119
f 13 14 15
f 13 15 14
f 13 15 16
f 13 16 15
f 13 16 17
f 13 17 16
f 13 17 18
f 13 18 17
f 13 18 19
f 13 19 18
f 13 19 20
f 13 20 19
f 13 20 21
f 13 21 20
f 13 21 22
f 13 22 21
f 13 22 23
f 13 23 22
f 13 23 24
f 13 24 23
f 13 24 25
f 13 25 24
f 13 25 26
f 13 26 25
f 13 26 27
f 13 27 26
f 13 27 28
f 13 28 27
f 13 28 29
f 13 29 28
f 13 29 30
f 13 30 29
f 13 30 31
f 13 31 30
f 13 31 32
f 13 32 31
f 13 32 33
f 13 33 32
f 13 33 34
f 13 34 33
f 13 34 35
f 13 35 34
f 13 35 36
f 13 36 35
f 13 36 37
f 13 37 36
f 13 37 38
f 13 38 37
f 13 38 39
f 13 39 38
f 13 39 40
f 13 40 39
f 13 40 41
f 13 41 40
f 13 41 42
f 13 42 41
f 13 42 43
f 13 43 42
f 13 43 44
f 13 44 43
f 13 44 45
f 13 45 44
f 13 45 46
f 13 46 45
f 13 46 47
f 13 47 46
f 13 47 48
f 13 48 47
f 13 48 49
f 13 49 48
f 13 49 50
f 13 50 49
f 13 50 51
f 13 51 50
f 13 51 52
f 13 52 51
f 13 52 53
f 13 53 52
f 13 53 54
f 13 54 53
f 13 54 55
f 13 55 54
f 13 55 56
f 13 56 55
f 13 56 57
f 13 57 56
f 13 57 58
f 13 58 57
v 0.000000 0.004458 0.011141
v 0.010391 0.002353 0.005521
v 0.010391 -0.002106 -0.005620
v 0.000000 -0.004458 -0.011141
v -0.010391 -0.002353 -0.005521
v -0.010391 0.002106 0.005620
v -0.004550 0.332840 -0.124580
v 0.002377 0.331437 -0.128326
v 0.002377 0.328464 -0.135754
v -0.004550 0.326896 -0.139434
v -0.011478 0.328300 -0.135688
v -0.011478 0.331272 -0.128260
f 59 60 66
f 59 66 65
f 60 61 67
f 60 67 66
f 61 62 68
f 61 68 67
f 62 63 69
f 62 69 68
f 63 64 70
f 63 70 69
f 64 59 65
f 64 65 70
v -0.004550 0.329868 -0.132007
v -0.050613 0.330317 -0.088756
v -0.091980 0.327425 -0.054015
v -0.131275 0.323059 -0.023029
v -0.168745 0.317394 0.004649
v -0.204372 0.310419 0.028990
v -0.238063 0.302066 0.049820
v -0.269701 0.292253 0.066929
v -0.299171 0.280897 0.080109
v -0.326372 0.267927 0.089179
v -0.351225 0.253287 0.093993
v -0.373675 0.236937 0.094452
v -0.393693 0.218857 0.090504
v -0.411279 0.199046 0.082148
v -0.426462 0.177526 0.069438
v -0.439297 0.154335 0.052471
v -0.449863 0.129531 0.031394
v -0.458261 0.103184 0.006388
v -0.464607 0.075377 -0.022338
v -0.469015 0.046192 -0.054575
v -0.471581 0.015696 -0.090150
v -0.472322 -0.016099 -0.129032
v -0.470991 -0.049367 -0.171670
v -0.464964 -0.085976 -0.222818
v -0.418901 -0.086425 -0.266069
v -0.377534 -0.083533 -0.300810
v -0.338240 -0.079167 -0.331796
v -0.300770 -0.073503 -0.359474
v -0.265142 -0.066528 -0.383815
v -0.231451 -0.058175 -0.404645
v -0.199814 -0.048361 -0.421753
v -0.170344 -0.037005 -0.434934
v -0.143143 -0.024035 -0.444004
v -0.118289 -0.009395 -0.448818
v -0.095840 0.006955 -0.449277
v -0.075822 0.025035 -0.445329
v -0.058235 0.044846 -0.436973
v -0.043053 0.066366 -0.424263
v -0.030218 0.089556 -0.407296
v -0.019652 0.114361 -0.386219
v -0.011253 0.140708 -0.361213
v -0.004908 0.168515 -0.332487
v -0.000500 0.197700 -0.300250
v 0.002066 0.228196 -0.264675
v 0.002808 0.259990 -0.225793
v 0.001477 0.293259 -0.183155
f 71 72 73
f 71 73 72
f 71 73 74
f 71 74 73
f 71 74 75
f 71 75 74
f 71 75 76
f 71 76 75
f 71 76 77
f 71 77 76
f 71 77 78
f 71 78 77
f 71 78 79
f 71 79 78
f 71 79 80
f 71 80 79
f 71 80 81
f 71 81 80
f 71 81 82
f 71 82 81
f 71 82 83
f 71 83 82
f 71 83 84
f 71 84 83
f 71 84 85
f 71 85 84
f 71 85 86
f 71 86 85
f 71 86 87
f 71 87 86
f 71 87 88
f 71 88 87
f 71 88 89
f 71 89 88
f 71 89 90
f 71 90 89
f 71 90 91
f 71 91 90
f 71 91 92
f 71 92 91
f 71 92 93
f 71 93 92
f 71 93 94
f 71 94 93
f 71 94 95
f 71 95 94
f 71 95 96
f 71 96 95
f 71 96 97
f 71 97 96
f 71 97 98
f 71 98 97
f 71 98 99
f 71 99 98
f 71 99 100
f 71 100 99
f 71 100 101
f 71 101 100
f 71 101 102
f 71 102 101
f 71 102 103
f 71 103 102
f 71 103 104
f 71 104 103
f 71 104 105
f 71 105 104
f 71 105 106
f 71 106 105
f 71 106 107
f 71 107 106
f 71 107 108
f 71 108 107
f 71 108 109
f 71 109 108
f 71 109 110
f 71 110 109
f 71 110 111
f 71 111 110
f 71 111 112
f 71 112 111
f 71 112 113
f 71 113 112
f 71 113 114
f 71 114 113
f 71 114 115
f 71 115 114
f 71 115 116
f 71 116 115
v 0.000000 0.000103 0.012000
v 0.010109 0.002461 0.005979
v 0.010109 0.002359 -0.006020
v 0.000000 -0.000103 -0.012000
v -0.010109 -0.002461 -0.005979
v -0.010109 -0.002359 0.006020
v -0.140719 0.590273 0.002947
v -0.133980 0.591845 -0.001067
v -0.133980 0.591777 -0.009067
v -0.140719 0.590136 -0.013053
v -0.147458 0.588564 -0.009039
v -0.147458 0.588632 -0.001040
f 117 118 124
f 117 124 123
f 118 119 125
f 118 125 124
f 119 120 126
f 119 126 125
f 120 121 127
f 120 127 126
f 121 122 128
f 121 128 127
f 122 117 123
f 122 123 128
v -0.140719 0.590204 -0.005053
v -0.109844 0.585741 0.085208
v -0.099372 0.576067 0.134987
v -0.093500 0.565217 0.175641
v -0.090484 0.553638 0.210626
v -0.089681 0.541494 0.241222
v -0.090787 0.528863 0.268030
v -0.093645 0.515784 0.291363
v -0.098168 0.502279 0.311392
v -0.104307 0.488362 0.328214
v -0.112036 0.474039 0.341882
v -0.121340 0.459313 0.352424
v -0.132214 0.444187 0.359852
v -0.144658 0.428660 0.364166
v -0.158677 0.412730 0.365354
v -0.174285 0.396394 0.363388
v -0.191511 0.379645 0.358214
v -0.210401 0.362471 0.349737
v -0.231043 0.344850 0.337785
v -0.253594 0.326741 0.322045
v -0.278357 0.308067 0.301915
v -0.305978 0.288663 0.276117
v -0.338197 0.268085 0.241194
v -0.390821 0.242295 0.165789
v -0.421696 0.246759 0.075528
v -0.432167 0.256433 0.025749
v -0.438040 0.267282 -0.014905
v -0.441055 0.278861 -0.049890
v -0.441858 0.291005 -0.080487
v -0.440752 0.303637 -0.107295
v -0.437895 0.316716 -0.130628
v -0.433372 0.330220 -0.150657
v -0.427233 0.344138 -0.167479
v -0.419504 0.358461 -0.181147
v -0.410199 0.373186 -0.191688
v -0.399325 0.388313 -0.199116
v -0.386882 0.403840 -0.203430
v -0.372863 0.419770 -0.204618
v -0.357254 0.436106 -0.202652
v -0.340029 0.452854 -0.197479
v -0.321139 0.470028 -0.189002
v -0.300497 0.487650 -0.177050
v -0.277945 0.505759 -0.161309
v -0.253182 0.524433 -0.141180
v -0.225562 0.543836 -0.115381
v -0.193342 0.564415 -0.080458
f 129 130 131
f 129 131 130
f 129 131 132
f 129 132 131
f 129 132 133
f 129 133 132
f 129 133 134
f 129 134 133
f 129 134 135
f 129 135 134
f 129 135 136
f 129 136 135
f 129 136 137
f 129 137 136
f 129 137 138
f 129 138 137
f 129 138 139
f 129 139 138
f 129 139 140
f 129 140 139
f 129 140 141
f 129 141 140
f 129 141 142
f 129 142 141
f 129 142 143
f 129 143 142
f 129 143 144
f 129 144 143
f 129 144 145
f 129 145 144
f 129 145 146
f 129 146 145
f 129 146 147
f 129 147 146
f 129 147 148
f 129 148 147
f 129 148 149
f 129 149 148
f 129 149 150
f 129 150 149
f 129 150 151
f 129 151 150
f 129 151 152
f 129 152 151
f 129 152 153
f 129 153 152
f 129 153 154
f 129 154 153
f 129 154 155
f 129 155 154
f 129 155 156
f 129 156 155
f 129 156 157
f 129 157 156
f 129 157 158
f 129 158 157
f 129 158 159
f 129 159 158
f 129 159 160
f 129 160 159
f 129 160 161
f 129 161 160
f 129 161 162
f 129 162 161
f 129 162 163
f 129 163 162
f 129 163 164
f 129 164 163
f 129 164 165
f 129 165 164
f 129 165 166
f 129 166 165
f 129 166 167
f 129 167 166
f 129 167 168
f 129 168 167
f 129 168 169
f 129 169 168
f 129 169 170
f 129 170 169
f 129 170 171
f 129 171 170
f 129 171 172
f 129 172 171
f 129 172 173
f 129 173 172
f 129 173 174
f 129 174 173
v 0.011847 0.000000 -0.001912
v 0.004517 0.005488 -0.009668
v -0.007330 0.005488 -0.007756
v -0.011847 0.000000 0.001912
v -0.004517 -0.005488 0.009668
v 0.007330 -0.005488 0.007756
v 0.039568 0.319563 0.194928
v 0.034681 0.323222 0.189758
v 0.026783 0.323222 0.191033
v 0.023772 0.319563 0.197478
v 0.028658 0.315904 0.202649
v 0.036556 0.315904 0.201374
f 175 176 182
f 175 182 181
f 176 177 183
f 176 183 182
f 177 178 184
f 177 184 183
f 178 179 185
f 178 185 184
f 179 180 186
f 179 186 185
f 180 175 181
f 180 181 186
v 0.031670 0.319563 0.196203
v -0.083007 0.350408 0.131885
v -0.131976 0.361701 0.088807
v -0.167805 0.369083 0.049978
v -0.195809 0.374137 0.013678
v -0.217962 0.377449 -0.020730
v -0.235206 0.379301 -0.053552
v -0.248049 0.379843 -0.084951
v -0.256783 0.379162 -0.115021
v -0.261580 0.377310 -0.143819
v -0.262544 0.374317 -0.171378
v -0.259730 0.370200 -0.197716
v -0.253165 0.364967 -0.222841
v -0.242849 0.358617 -0.246753
v -0.228757 0.351144 -0.269445
v -0.210830 0.342529 -0.290897
v -0.188966 0.332744 -0.311076
v -0.162994 0.321735 -0.329927
v -0.132620 0.309417 -0.347356
v -0.097338 0.295638 -0.363198
v -0.056205 0.280117 -0.377148
v -0.007246 0.262269 -0.388569
v 0.054853 0.240509 -0.395741
v 0.182659 0.199197 -0.381673
v 0.297336 0.168351 -0.317355
v 0.346305 0.157059 -0.274277
v 0.382134 0.149676 -0.235448
v 0.410138 0.144623 -0.199148
v 0.432291 0.141310 -0.164740
v 0.449535 0.139458 -0.131918
v 0.462378 0.138916 -0.100519
v 0.471112 0.139597 -0.070449
v 0.475909 0.141449 -0.041650
v 0.476872 0.144442 -0.014092
v 0.474059 0.148559 0.012246
v 0.467494 0.153793 0.037371
v 0.457178 0.160142 0.061283
v 0.443085 0.167616 0.083975
v 0.425158 0.176230 0.105427
v 0.403295 0.186016 0.125606
v 0.377322 0.197025 0.144458
v 0.346949 0.209343 0.161886
v 0.311667 0.223122 0.177728
v 0.270534 0.238642 0.191678
v 0.221575 0.256491 0.203099
v 0.159476 0.278250 0.210271
f 187 188 189
f 187 189 188
f 187 189 190
f 187 190 189
f 187 190 191
f 187 191 190
f 187 191 192
f 187 192 191
f 187 192 193
f 187 193 192
f 187 193 194
f 187 194 193
f 187 194 195
f 187 195 194
f 187 195 196
f 187 196 195
f 187 196 197
f 187 197 196
f 187 197 198
f 187 198 197
f 187 198 199
f 187 199 198
f 187 199 200
f 187 200 199
f 187 200 201
f 187 201 200
f 187 201 202
f 187 202 201
f 187 202 203
f 187 203 202
f 187 203 204
f 187 204 203
f 187 204 205
f 187 205 204
f 187 205 206
f 187 206 205
f 187 206 207
f 187 207 206
f 187 207 208
f 187 208 207
f 187 208 209
f 187 209 208
f 187 209 210
f 187 210 209
f 187 210 211
f 187 211 210
f 187 211 212
f 187 212 211
f 187 212 213
f 187 213 212
f 187 213 214
f 187 214 213
f 187 214 215
f 187 215 214
f 187 215 216
f 187 216 215
f 187 216 217
f 187 217 216
f 187 217 218
f 187 218 217
f 187 218 219
f 187 219 218
f 187 219 220
f 187 220 219
f 187 220 221
f 187 221 220
f 187 221 222
f 187 222 221
f 187 222 223
f 187 223 222
f 187 223 224
f 187 224 223
f 187 224 225
f 187 225 224
f 187 225 226
f 187 226 225
f 187 226 227
f 187 227 226
f 187 227 228
f 187 228 227
f 187 228 229
f 187 229 228
f 187 229 230
f 187 230 229
f 187 230 231
f 187 231 230
f 187 231 232
f 187 232 231
