o mesh
v 0.000000 -0.000340 0.010995 0.200 0.440 0.170
v 0.009513 0.000330 0.005513 0.200 0.440 0.170
v 0.009513 0.000671 -0.005482 0.200 0.440 0.170
v 0.000000 0.000340 -0.010995 0.200 0.440 0.170
v -0.009513 -0.000330 -0.005513 0.200 0.440 0.170
v -0.009513 -0.000671 0.005482 0.200 0.440 0.170
v -0.025534 0.484517 0.022997 0.200 0.440 0.170
v -0.018615 0.485004 0.019010 0.200 0.440 0.170
v -0.018615 0.485252 0.011014 0.200 0.440 0.170
v -0.025534 0.485011 0.007005 0.200 0.440 0.170
v -0.032452 0.484524 0.010992 0.200 0.440 0.170
v -0.032452 0.484276 0.018988 0.200 0.440 0.170
f 1 2 8
f 1 8 7
f 2 3 9
f 2 9 8
f 3 4 10
f 3 10 9
f 4 5 11
f 4 11 10
f 5 6 12
f 5 12 11
f 6 1 7
f 6 7 12
v -0.025534 0.496764 0.099400 0.933 0.506 0.663
v -0.018500 0.495983 0.095392 0.933 0.506 0.663
v -0.012288 0.495074 0.090119 0.933 0.506 0.663
v -0.006798 0.494296 0.084925 0.933 0.506 0.663
v -0.001831 0.493693 0.080123 0.933 0.506 0.663
v 0.002808 0.493264 0.075780 0.933 0.506 0.663
v 0.007300 0.493000 0.071871 0.933 0.506 0.663
v 0.011804 0.492893 0.068325 0.933 0.506 0.663
v 0.016467 0.492938 0.065055 0.933 0.506 0.663
v 0.021421 0.493139 0.061956 0.933 0.506 0.663
v 0.026790 0.493501 0.058905 0.933 0.506 0.663
v 0.032670 0.494033 0.055756 0.933 0.506 0.663
v 0.039103 0.494743 0.052319 0.933 0.506 0.663
v 0.045975 0.495611 0.048346 0.933 0.506 0.663
v 0.052686 0.496518 0.043471 0.933 0.506 0.663
v 0.054096 0.496348 0.036338 0.933 0.506 0.663
v 0.051291 0.495428 0.028547 0.933 0.506 0.663
v 0.048042 0.494587 0.021438 0.933 0.506 0.663
v 0.044902 0.493913 0.015001 0.933 0.506 0.663
v 0.042064 0.493415 0.009087 0.933 0.506 0.663
v 0.039587 0.493086 0.003518 0.933 0.506 0.663
v 0.037471 0.492917 -0.001881 0.933 0.506 0.663
v 0.035683 0.492902 -0.007280 0.933 0.506 0.663
v 0.034174 0.493040 -0.012841 0.933 0.506 0.663
v 0.032873 0.493336 -0.018720 0.933 0.506 0.663
v 0.031685 0.493799 -0.025064 0.933 0.506 0.663
v 0.030470 0.494438 -0.031992 0.933 0.506 0.663
v 0.029008 0.495248 -0.039541 0.933 0.506 0.663
v 0.026907 0.496169 -0.047495 0.933 0.506 0.663
v 0.022611 0.496666 -0.053757 0.933 0.506 0.663
v 0.014366 0.495797 -0.054108 0.933 0.506 0.663
v 0.006350 0.494906 -0.053373 0.933 0.506 0.663
v -0.001009 0.494161 -0.052380 0.933 0.506 0.663
v -0.007731 0.493593 -0.051440 0.933 0.506 0.663
v -0.013948 0.493198 -0.050702 0.933 0.506 0.663
v -0.019826 0.492966 -0.050238 0.933 0.506 0.663
v -0.025534 0.492890 -0.050080 0.933 0.506 0.663
v -0.031241 0.492966 -0.050238 0.933 0.506 0.663
v -0.037119 0.493198 -0.050702 0.933 0.506 0.663
v -0.043336 0.493593 -0.051440 0.933 0.506 0.663
v -0.050058 0.494161 -0.052380 0.933 0.506 0.663
v -0.057417 0.494906 -0.053373 0.933 0.506 0.663
v -0.065433 0.495797 -0.054108 0.933 0.506 0.663
v -0.073678 0.496666 -0.053757 0.933 0.506 0.663
v -0.077974 0.496169 -0.047495 0.933 0.506 0.663
v -0.080075 0.495248 -0.039541 0.933 0.506 0.663
v -0.081537 0.494438 -0.031992 0.933 0.506 0.663
v -0.082752 0.493799 -0.025064 0.933 0.506 0.663
v -0.083940 0.493336 -0.018720 0.933 0.506 0.663
v -0.085241 0.493040 -0.012841 0.933 0.506 0.663
v -0.086750 0.492902 -0.007280 0.933 0.506 0.663
v -0.088538 0.492917 -0.001881 0.933 0.506 0.663
v -0.090654 0.493086 0.003518 0.933 0.506 0.663
v -0.093131 0.493415 0.009087 0.933 0.506 0.663
v -0.095969 0.493913 0.015001 0.933 0.506 0.663
v -0.099109 0.494587 0.021438 0.933 0.506 0.663
v -0.102358 0.495428 0.028547 0.933 0.506 0.663
v -0.105164 0.496348 0.036338 0.933 0.506 0.663
v -0.103753 0.496518 0.043471 0.933 0.506 0.663
v -0.097042 0.495611 0.048346 0.933 0.506 0.663
v -0.090170 0.494743 0.052319 0.933 0.506 0.663
v -0.083737 0.494033 0.055756 0.933 0.506 0.663
v -0.077857 0.493501 0.058905 0.933 0.506 0.663
v -0.072489 0.493139 0.061956 0.933 0.506 0.663
v -0.067534 0.492938 0.065055 0.933 0.506 0.663
v -0.062872 0.492893 0.068325 0.933 0.506 0.663
v -0.058367 0.493000 0.071871 0.933 0.506 0.663
v -0.053875 0.493264 0.075780 0.933 0.506 0.663
v -0.049236 0.493693 0.080123 0.933 0.506 0.663
v -0.044270 0.494296 0.084925 0.933 0.506 0.663
v -0.038779 0.495074 0.090119 0.933 0.506 0.663
v -0.032567 0.495983 0.095392 0.933 0.506 0.663
v -0.025534 0.484764 0.015001 0.933 0.506 0.663
f 85 13 14
f 85 14 13
f 85 14 15
f 85 15 14
f 85 15 16
f 85 16 15
f 85 16 17
f 85 17 16
f 85 17 18
f 85 18 17
f 85 18 19
f 85 19 18
f 85 19 20
f 85 20 19
f 85 20 21
f 85 21 20
f 85 21 22
f 85 22 21
f 85 22 23
f 85 23 22
f 85 23 24
f 85 24 23
f 85 24 25
f 85 25 24
f 85 25 26
f 85 26 25
f 85 26 27
f 85 27 26
f 85 27 28
f 85 28 27
f 85 28 29
f 85 29 28
f 85 29 30
f 85 30 29
f 85 30 31
f 85 31 30
f 85 31 32
f 85 32 31
f 85 32 33
f 85 33 32
f 85 33 34
f 85 34 33
f 85 34 35
f 85 35 34
f 85 35 36
f 85 36 35
f 85 36 37
f 85 37 36
f 85 37 38
f 85 38 37
f 85 38 39
f 85 39 38
f 85 39 40
f 85 40 39
f 85 40 41
f 85 41 40
f 85 41 42
f 85 42 41
f 85 42 43
f 85 43 42
f 85 43 44
f 85 44 43
f 85 44 45
f 85 45 44
f 85 45 46
f 85 46 45
f 85 46 47
f 85 47 46
f 85 47 48
f 85 48 47
f 85 48 49
f 85 49 48
f 85 49 50
f 85 50 49
f 85 50 51
f 85 51 50
f 85 51 52
f 85 52 51
f 85 52 53
f 85 53 52
f 85 53 54
f 85 54 53
f 85 54 55
f 85 55 54
f 85 55 56
f 85 56 55
f 85 56 57
f 85 57 56
f 85 57 58
f 85 58 57
f 85 58 59
f 85 59 58
f 85 59 60
f 85 60 59
f 85 60 61
f 85 61 60
f 85 61 62
f 85 62 61
f 85 62 63
f 85 63 62
f 85 63 64
f 85 64 63
f 85 64 65
f 85 65 64
f 85 65 66
f 85 66 65
f 85 66 67
f 85 67 66
f 85 67 68
f 85 68 67
f 85 68 69
f 85 69 68
f 85 69 70
f 85 70 69
f 85 70 71
f 85 71 70
f 85 71 72
f 85 72 71
f 85 72 73
f 85 73 72
f 85 73 74
f 85 74 73
f 85 74 75
f 85 75 74
f 85 75 76
f 85 76 75
f 85 76 77
f 85 77 76
f 85 77 78
f 85 78 77
f 85 78 79
f 85 79 78
f 85 79 80
f 85 80 79
f 85 80 81
f 85 81 80
f 85 81 82
f 85 82 81
f 85 82 83
f 85 83 82
f 85 83 84
f 85 84 83
f 85 84 13
f 85 13 84
v 0.017963 0.511164 0.066642 0.941 0.566 0.703
v 0.020201 0.509447 0.060565 0.941 0.566 0.703
v 0.021285 0.507446 0.054137 0.941 0.566 0.703
v 0.021967 0.505735 0.048129 0.941 0.566 0.703
v 0.022531 0.504407 0.042632 0.941 0.566 0.703
v 0.023132 0.503463 0.037584 0.941 0.566 0.703
v 0.023866 0.502883 0.032876 0.941 0.566 0.703
v 0.024794 0.502647 0.028386 0.941 0.566 0.703
v 0.025962 0.502748 0.023982 0.941 0.566 0.703
v 0.027396 0.503188 0.019532 0.941 0.566 0.703
v 0.029109 0.503984 0.014899 0.941 0.566 0.703
v 0.031084 0.505157 0.009941 0.941 0.566 0.703
v 0.033248 0.506718 0.004523 0.941 0.566 0.703
v 0.035406 0.508627 -0.001450 0.941 0.566 0.703
v 0.036999 0.510622 -0.007892 0.941 0.566 0.703
v 0.034186 0.510250 -0.012983 0.941 0.566 0.703
v 0.028455 0.508224 -0.016304 0.941 0.566 0.703
v 0.022803 0.506375 -0.018979 0.941 0.566 0.703
v 0.017564 0.504891 -0.021300 0.941 0.566 0.703
v 0.012780 0.503796 -0.023456 0.941 0.566 0.703
v 0.008394 0.503072 -0.025587 0.941 0.566 0.703
v 0.004317 0.502701 -0.027800 0.941 0.566 0.703
v 0.000440 0.502667 -0.030182 0.941 0.566 0.703
v -0.003349 0.502971 -0.032807 0.941 0.566 0.703
v -0.007175 0.503622 -0.035733 0.941 0.566 0.703
v -0.011171 0.504641 -0.039003 0.941 0.566 0.703
v -0.015485 0.506047 -0.042615 0.941 0.566 0.703
v -0.020270 0.507830 -0.046481 0.941 0.566 0.703
v -0.025656 0.509854 -0.050265 0.941 0.566 0.703
v -0.031511 0.510948 -0.051883 0.941 0.566 0.703
v -0.036737 0.509036 -0.047848 0.941 0.566 0.703
v -0.041263 0.507075 -0.043268 0.941 0.566 0.703
v -0.045254 0.505438 -0.038867 0.941 0.566 0.703
v -0.048883 0.504188 -0.034828 0.941 0.566 0.703
v -0.052307 0.503319 -0.031172 0.941 0.566 0.703
v -0.055663 0.502808 -0.027858 0.941 0.566 0.703
v -0.059074 0.502640 -0.024820 0.941 0.566 0.703
v -0.062648 0.502808 -0.021975 0.941 0.566 0.703
v -0.066484 0.503319 -0.019230 0.941 0.566 0.703
v -0.070669 0.504188 -0.016478 0.941 0.566 0.703
v -0.075266 0.505438 -0.013588 0.941 0.566 0.703
v -0.080281 0.507075 -0.010404 0.941 0.566 0.703
v -0.085564 0.509036 -0.006721 0.941 0.566 0.703
v -0.090428 0.510948 -0.002258 0.941 0.566 0.703
v -0.089830 0.509854 0.003788 0.941 0.566 0.703
v -0.087015 0.507830 0.009738 0.941 0.566 0.703
v -0.084020 0.506047 0.015110 0.941 0.566 0.703
v -0.081193 0.504641 0.019975 0.941 0.566 0.703
v -0.078650 0.503622 0.024469 0.941 0.566 0.703
v -0.076416 0.502971 0.028737 0.941 0.566 0.703
v -0.074474 0.502667 0.032917 0.941 0.566 0.703
v -0.072785 0.502701 0.037142 0.941 0.566 0.703
v -0.071297 0.503072 0.041537 0.941 0.566 0.703
v -0.069943 0.503796 0.046220 0.941 0.566 0.703
v -0.068631 0.504891 0.051301 0.941 0.566 0.703
v -0.067235 0.506375 0.056858 0.941 0.566 0.703
v -0.065559 0.508224 0.062883 0.941 0.566 0.703
v -0.063261 0.510250 0.069096 0.941 0.566 0.703
v -0.058722 0.510622 0.072733 0.941 0.566 0.703
v -0.052103 0.508627 0.072257 0.941 0.566 0.703
v -0.045850 0.506718 0.071146 0.941 0.566 0.703
v -0.040143 0.505157 0.069934 0.941 0.566 0.703
v -0.034922 0.503984 0.068831 0.941 0.566 0.703
v -0.030065 0.503188 0.067931 0.941 0.566 0.703
v -0.025436 0.502748 0.067274 0.941 0.566 0.703
v -0.020898 0.502647 0.066872 0.941 0.566 0.703
v -0.016315 0.502883 0.066720 0.941 0.566 0.703
v -0.011551 0.503463 0.066797 0.941 0.566 0.703
v -0.006474 0.504407 0.067063 0.941 0.566 0.703
v -0.000961 0.505735 0.067441 0.941 0.566 0.703
v 0.005076 0.507446 0.067790 0.941 0.566 0.703
v 0.011594 0.509447 0.067815 0.941 0.566 0.703
v -0.025534 0.484764 0.015001 0.941 0.566 0.703
f 158 86 87
f 158 87 86
f 158 87 88
f 158 88 87
f 158 88 89
f 158 89 88
f 158 89 90
f 158 90 89
f 158 90 91
f 158 91 90
f 158 91 92
f 158 92 91
f 158 92 93
f 158 93 92
f 158 93 94
f 158 94 93
f 158 94 95
f 158 95 94
f 158 95 96
f 158 96 95
f 158 96 97
f 158 97 96
f 158 97 98
f 158 98 97
f 158 98 99
f 158 99 98
f 158 99 100
f 158 100 99
f 158 100 101
f 158 101 100
f 158 101 102
f 158 102 101
f 158 102 103
f 158 103 102
f 158 103 104
f 158 104 103
f 158 104 105
f 158 105 104
f 158 105 106
f 158 106 105
f 158 106 107
f 158 107 106
f 158 107 108
f 158 108 107
f 158 108 109
f 158 109 108
f 158 109 110
f 158 110 109
f 158 110 111
f 158 111 110
f 158 111 112
f 158 112 111
f 158 112 113
f 158 113 112
f 158 113 114
f 158 114 113
f 158 114 115
f 158 115 114
f 158 115 116
f 158 116 115
f 158 116 117
f 158 117 116
f 158 117 118
f 158 118 117
f 158 118 119
f 158 119 118
f 158 119 120
f 158 120 119
f 158 120 121
f 158 121 120
f 158 121 122
f 158 122 121
f 158 122 123
f 158 123 122
f 158 123 124
f 158 124 123
f 158 124 125
f 158 125 124
f 158 125 126
f 158 126 125
f 158 126 127
f 158 127 126
f 158 127 128
f 158 128 127
f 158 128 129
f 158 129 128
f 158 129 130
f 158 130 129
f 158 130 131
f 158 131 130
f 158 131 132
f 158 132 131
f 158 132 133
f 158 133 132
f 158 133 134
f 158 134 133
f 158 134 135
f 158 135 134
f 158 135 136
f 158 136 135
f 158 136 137
f 158 137 136
f 158 137 138
f 158 138 137
f 158 138 139
f 158 139 138
f 158 139 140
f 158 140 139
f 158 140 141
f 158 141 140
f 158 141 142
f 158 142 141
f 158 142 143
f 158 143 142
f 158 143 144
f 158 144 143
f 158 144 145
f 158 145 144
f 158 145 146
f 158 146 145
f 158 146 147
f 158 147 146
f 158 147 148
f 158 148 147
f 158 148 149
f 158 149 148
f 158 149 150
f 158 150 149
f 158 150 151
f 158 151 150
f 158 151 152
f 158 152 151
f 158 152 153
f 158 153 152
f 158 153 154
f 158 154 153
f 158 154 155
f 158 155 154
f 158 155 156
f 158 156 155
f 158 156 157
f 158 157 156
f 158 157 86
f 158 86 157
v 0.027696 0.525564 0.024182 0.949 0.625 0.744
v 0.025933 0.522910 0.019310 0.949 0.625 0.744
v 0.023283 0.519818 0.014819 0.949 0.625 0.744
v 0.020604 0.517174 0.010791 0.949 0.625 0.744
v 0.018116 0.515121 0.007136 0.949 0.625 0.744
v 0.015882 0.513662 0.003738 0.949 0.625 0.744
v 0.013905 0.512765 0.000479 0.949 0.625 0.744
v 0.012159 0.512401 -0.002747 0.949 0.625 0.744
v 0.010604 0.512557 -0.006043 0.949 0.625 0.744
v 0.009188 0.513238 -0.009505 0.949 0.625 0.744
v 0.007848 0.514468 -0.013223 0.949 0.625 0.744
v 0.006501 0.516280 -0.017274 0.949 0.625 0.744
v 0.005033 0.518693 -0.021705 0.949 0.625 0.744
v 0.003275 0.521643 -0.026471 0.949 0.625 0.744
v 0.000930 0.524726 -0.031234 0.949 0.625 0.744
v -0.003415 0.524151 -0.032900 0.949 0.625 0.744
v -0.008633 0.521020 -0.031978 0.949 0.625 0.744
v -0.013470 0.518163 -0.030702 0.949 0.625 0.744
v -0.017872 0.515870 -0.029422 0.949 0.625 0.744
v -0.021910 0.514177 -0.028275 0.949 0.625 0.744
v -0.025692 0.513059 -0.027319 0.949 0.625 0.744
v -0.029327 0.512484 -0.026572 0.949 0.625 0.744
v -0.032927 0.512432 -0.026031 0.949 0.625 0.744
v -0.036598 0.512901 -0.025684 0.949 0.625 0.744
v -0.040448 0.513908 -0.025504 0.949 0.625 0.744
v -0.044578 0.515484 -0.025444 0.949 0.625 0.744
v -0.049079 0.517657 -0.025432 0.949 0.625 0.744
v -0.053999 0.520411 -0.025331 0.949 0.625 0.744
v -0.059245 0.523539 -0.024871 0.949 0.625 0.744
v -0.063661 0.525230 -0.022843 0.949 0.625 0.744
v -0.064779 0.522275 -0.017681 0.949 0.625 0.744
v -0.065188 0.519245 -0.012545 0.949 0.625 0.744
v -0.065362 0.516715 -0.007796 0.949 0.625 0.744
v -0.065501 0.514783 -0.003455 0.949 0.625 0.744
v -0.065711 0.513439 0.000547 0.949 0.625 0.744
v -0.066058 0.512651 0.004305 0.949 0.625 0.744
v -0.066579 0.512391 0.007922 0.949 0.625 0.744
v -0.067300 0.512651 0.011504 0.949 0.625 0.744
v -0.068232 0.513439 0.015160 0.949 0.625 0.744
v -0.069374 0.514783 0.019002 0.949 0.625 0.744
v -0.070698 0.516715 0.023139 0.949 0.625 0.744
v -0.072125 0.519245 0.027672 0.949 0.625 0.744
v -0.073460 0.522275 0.032648 0.949 0.625 0.744
v -0.074136 0.525230 0.037886 0.949 0.625 0.744
v -0.070654 0.523539 0.041276 0.949 0.625 0.744
v -0.065865 0.520411 0.043467 0.949 0.625 0.744
v -0.061263 0.517657 0.045210 0.949 0.625 0.744
v -0.057026 0.515484 0.046730 0.949 0.625 0.744
v -0.053154 0.513908 0.048169 0.949 0.625 0.744
v -0.049588 0.512901 0.049629 0.949 0.625 0.744
v -0.046245 0.512432 0.051186 0.949 0.625 0.744
v -0.043034 0.512484 0.052901 0.949 0.625 0.744
v -0.039859 0.513059 0.054823 0.949 0.625 0.744
v -0.036617 0.514177 0.056991 0.949 0.625 0.744
v -0.033195 0.515870 0.059424 0.949 0.625 0.744
v -0.029477 0.518163 0.062104 0.949 0.625 0.744
v -0.025347 0.521020 0.064927 0.949 0.625 0.744
v -0.020739 0.524151 0.067544 0.949 0.625 0.744
v -0.016087 0.524726 0.067430 0.949 0.625 0.744
v -0.012282 0.521643 0.063728 0.949 0.625 0.744
v -0.009029 0.518693 0.059826 0.949 0.625 0.744
v -0.006161 0.516280 0.056142 0.949 0.625 0.744
v -0.003535 0.514468 0.052777 0.949 0.625 0.744
v -0.001027 0.513238 0.049723 0.949 0.625 0.744
v 0.001466 0.512557 0.046935 0.949 0.625 0.744
v 0.004036 0.512401 0.044350 0.949 0.625 0.744
v 0.006762 0.512765 0.041895 0.949 0.625 0.744
v 0.009716 0.513662 0.039487 0.949 0.625 0.744
v 0.012959 0.515121 0.037034 0.949 0.625 0.744
v 0.016528 0.517174 0.034424 0.949 0.625 0.744
v 0.020401 0.519818 0.031526 0.949 0.625 0.744
v 0.024403 0.522910 0.028182 0.949 0.625 0.744
v -0.025534 0.484764 0.015001 0.949 0.625 0.744
f 231 159 160
f 231 160 159
f 231 160 161
f 231 161 160
f 231 161 162
f 231 162 161
f 231 162 163
f 231 163 162
f 231 163 164
f 231 164 163
f 231 164 165
f 231 165 164
f 231 165 166
f 231 166 165
f 231 166 167
f 231 167 166
f 231 167 168
f 231 168 167
f 231 168 169
f 231 169 168
f 231 169 170
f 231 170 169
f 231 170 171
f 231 171 170
f 231 171 172
f 231 172 171
f 231 172 173
f 231 173 172
f 231 173 174
f 231 174 173
f 231 174 175
f 231 175 174
f 231 175 176
f 231 176 175
f 231 176 177
f 231 177 176
f 231 177 178
f 231 178 177
f 231 178 179
f 231 179 178
f 231 179 180
f 231 180 179
f 231 180 181
f 231 181 180
f 231 181 182
f 231 182 181
f 231 182 183
f 231 183 182
f 231 183 184
f 231 184 183
f 231 184 185
f 231 185 184
f 231 185 186
f 231 186 185
f 231 186 187
f 231 187 186
f 231 187 188
f 231 188 187
f 231 188 189
f 231 189 188
f 231 189 190
f 231 190 189
f 231 190 191
f 231 191 190
f 231 191 192
f 231 192 191
f 231 192 193
f 231 193 192
f 231 193 194
f 231 194 193
f 231 194 195
f 231 195 194
f 231 195 196
f 231 196 195
f 231 196 197
f 231 197 196
f 231 197 198
f 231 198 197
f 231 198 199
f 231 199 198
f 231 199 200
f 231 200 199
f 231 200 201
f 231 201 200
f 231 201 202
f 231 202 201
f 231 202 203
f 231 203 202
f 231 203 204
f 231 204 203
f 231 204 205
f 231 205 204
f 231 205 206
f 231 206 205
f 231 206 207
f 231 207 206
f 231 207 208
f 231 208 207
f 231 208 209
f 231 209 208
f 231 209 210
f 231 210 209
f 231 210 211
f 231 211 210
f 231 211 212
f 231 212 211
f 231 212 213
f 231 213 212
f 231 213 214
f 231 214 213
f 231 214 215
f 231 215 214
f 231 215 216
f 231 216 215
f 231 216 217
f 231 217 216
f 231 217 218
f 231 218 217
f 231 218 219
f 231 219 218
f 231 219 220
f 231 220 219
f 231 220 221
f 231 221 220
f 231 221 222
f 231 222 221
f 231 222 223
f 231 223 222
f 231 223 224
f 231 224 223
f 231 224 225
f 231 225 224
f 231 225 226
f 231 226 225
f 231 226 227
f 231 227 226
f 231 227 228
f 231 228 227
f 231 228 229
f 231 229 228
f 231 229 230
f 231 230 229
f 231 230 159
f 231 159 230
v 0.011768 0.539964 -0.006815 0.957 0.684 0.784
v 0.008178 0.536373 -0.008887 0.957 0.684 0.784
v 0.004242 0.532190 -0.010269 0.957 0.684 0.784
v 0.000527 0.528612 -0.011354 0.957 0.684 0.784
v -0.002879 0.525836 -0.012307 0.957 0.684 0.784
v -0.005997 0.523862 -0.013235 0.957 0.684 0.784
v -0.008886 0.522648 -0.014210 0.957 0.684 0.784
v -0.011617 0.522156 -0.015284 0.957 0.684 0.784
v -0.014268 0.522366 -0.016500 0.957 0.684 0.784
v -0.016918 0.523288 -0.017888 0.957 0.684 0.784
v -0.019654 0.524952 -0.019473 0.957 0.684 0.784
v -0.022566 0.527403 -0.021257 0.957 0.684 0.784
v -0.025748 0.530668 -0.023212 0.957 0.684 0.784
v -0.029280 0.534659 -0.025222 0.957 0.684 0.784
v -0.033169 0.538830 -0.026928 0.957 0.684 0.784
v -0.036686 0.538053 -0.025708 0.957 0.684 0.784
v -0.039404 0.533816 -0.022454 0.957 0.684 0.784
v -0.041706 0.529951 -0.019180 0.957 0.684 0.784
v -0.043740 0.526848 -0.016129 0.957 0.684 0.784
v -0.045620 0.524558 -0.013346 0.957 0.684 0.784
v -0.047441 0.523045 -0.010812 0.957 0.684 0.784
v -0.049280 0.522268 -0.008481 0.957 0.684 0.784
v -0.051204 0.522198 -0.006295 0.957 0.684 0.784
v -0.053272 0.522832 -0.004191 0.957 0.684 0.784
v -0.055534 0.524194 -0.002096 0.957 0.684 0.784
v -0.058031 0.526326 0.000068 0.957 0.684 0.784
v -0.060778 0.529266 0.002396 0.957 0.684 0.784
v -0.063737 0.532992 0.004994 0.957 0.684 0.784
v -0.066710 0.537225 0.007978 0.957 0.684 0.784
v -0.068367 0.539513 0.011495 0.957 0.684 0.784
v -0.066390 0.535514 0.015230 0.957 0.684 0.784
v -0.063994 0.531415 0.018583 0.957 0.684 0.784
v -0.061653 0.527992 0.021579 0.957 0.684 0.784
v -0.059500 0.525378 0.024307 0.957 0.684 0.784
v -0.057566 0.523560 0.026864 0.957 0.684 0.784
v -0.055842 0.522493 0.029341 0.957 0.684 0.784
v -0.054297 0.522142 0.031823 0.957 0.684 0.784
v -0.052891 0.522493 0.034386 0.957 0.684 0.784
v -0.051577 0.523560 0.037104 0.957 0.684 0.784
v -0.050296 0.525378 0.040043 0.957 0.684 0.784
v -0.048974 0.527992 0.043257 0.957 0.684 0.784
v -0.047511 0.531415 0.046766 0.957 0.684 0.784
v -0.045764 0.535514 0.050498 0.957 0.684 0.784
v -0.043478 0.539513 0.054052 0.957 0.684 0.784
v -0.039600 0.537225 0.054332 0.957 0.684 0.784
v -0.035541 0.532992 0.053204 0.957 0.684 0.784
v -0.031827 0.529266 0.051899 0.957 0.684 0.784
v -0.028451 0.526326 0.050646 0.957 0.684 0.784
v -0.025340 0.524194 0.049531 0.957 0.684 0.784
v -0.022405 0.522832 0.048586 0.957 0.684 0.784
v -0.019558 0.522198 0.047816 0.957 0.684 0.784
v -0.016709 0.522268 0.047210 0.957 0.684 0.784
v -0.013776 0.523045 0.046750 0.957 0.684 0.784
v -0.010675 0.524558 0.046405 0.957 0.684 0.784
v -0.007327 0.526848 0.046131 0.957 0.684 0.784
v -0.003671 0.529951 0.045855 0.957 0.684 0.784
v 0.000311 0.533816 0.045453 0.957 0.684 0.784
v 0.004479 0.538053 0.044679 0.957 0.684 0.784
v 0.007267 0.538830 0.042212 0.957 0.684 0.784
v 0.007687 0.534659 0.037986 0.957 0.684 0.784
v 0.007667 0.530668 0.033922 0.957 0.684 0.784
v 0.007523 0.527403 0.030190 0.957 0.684 0.784
v 0.007395 0.524952 0.026777 0.957 0.684 0.784
v 0.007356 0.523288 0.023616 0.957 0.684 0.784
v 0.007445 0.522366 0.020626 0.957 0.684 0.784
v 0.007685 0.522156 0.017720 0.957 0.684 0.784
v 0.008088 0.522648 0.014813 0.957 0.684 0.784
v 0.008654 0.523862 0.011817 0.957 0.684 0.784
v 0.009374 0.525836 0.008644 0.957 0.684 0.784
v 0.010213 0.528612 0.005208 0.957 0.684 0.784
v 0.011089 0.532190 0.001438 0.957 0.684 0.784
v 0.011814 0.536373 -0.002670 0.957 0.684 0.784
v -0.025534 0.484764 0.015001 0.957 0.684 0.784
f 304 232 233
f 304 233 232
f 304 233 234
f 304 234 233
f 304 234 235
f 304 235 234
f 304 235 236
f 304 236 235
f 304 236 237
f 304 237 236
f 304 237 238
f 304 238 237
f 304 238 239
f 304 239 238
f 304 239 240
f 304 240 239
f 304 240 241
f 304 241 240
f 304 241 242
f 304 242 241
f 304 242 243
f 304 243 242
f 304 243 244
f 304 244 243
f 304 244 245
f 304 245 244
f 304 245 246
f 304 246 245
f 304 246 247
f 304 247 246
f 304 247 248
f 304 248 247
f 304 248 249
f 304 249 248
f 304 249 250
f 304 250 249
f 304 250 251
f 304 251 250
f 304 251 252
f 304 252 251
f 304 252 253
f 304 253 252
f 304 253 254
f 304 254 253
f 304 254 255
f 304 255 254
f 304 255 256
f 304 256 255
f 304 256 257
f 304 257 256
f 304 257 258
f 304 258 257
f 304 258 259
f 304 259 258
f 304 259 260
f 304 260 259
f 304 260 261
f 304 261 260
f 304 261 262
f 304 262 261
f 304 262 263
f 304 263 262
f 304 263 264
f 304 264 263
f 304 264 265
f 304 265 264
f 304 265 266
f 304 266 265
f 304 266 267
f 304 267 266
f 304 267 268
f 304 268 267
f 304 268 269
f 304 269 268
f 304 269 270
f 304 270 269
f 304 270 271
f 304 271 270
f 304 271 272
f 304 272 271
f 304 272 273
f 304 273 272
f 304 273 274
f 304 274 273
f 304 274 275
f 304 275 274
f 304 275 276
f 304 276 275
f 304 276 277
f 304 277 276
f 304 277 278
f 304 278 277
f 304 278 279
f 304 279 278
f 304 279 280
f 304 280 279
f 304 280 281
f 304 281 280
f 304 281 282
f 304 282 281
f 304 282 283
f 304 283 282
f 304 283 284
f 304 284 283
f 304 284 285
f 304 285 284
f 304 285 286
f 304 286 285
f 304 286 287
f 304 287 286
f 304 287 288
f 304 288 287
f 304 288 289
f 304 289 288
f 304 289 290
f 304 290 289
f 304 290 291
f 304 291 290
f 304 291 292
f 304 292 291
f 304 292 293
f 304 293 292
f 304 293 294
f 304 294 293
f 304 294 295
f 304 295 294
f 304 295 296
f 304 296 295
f 304 296 297
f 304 297 296
f 304 297 298
f 304 298 297
f 304 298 299
f 304 299 298
f 304 299 300
f 304 300 299
f 304 300 301
f 304 301 300
f 304 301 302
f 304 302 301
f 304 302 303
f 304 303 302
f 304 303 232
f 304 232 303
v 0.004277 0.278887 0.004208 0.160 0.352 0.136
v -0.001156 0.284656 0.001175 0.160 0.352 0.136
v -0.004277 0.278887 -0.004208 0.160 0.352 0.136
v 0.001156 0.273118 -0.001175 0.160 0.352 0.136
v -0.023833 0.268887 0.025651 0.160 0.352 0.136
v -0.024739 0.269849 0.025145 0.160 0.352 0.136
v -0.025259 0.268887 0.024248 0.160 0.352 0.136
v -0.024354 0.267926 0.024754 0.160 0.352 0.136
f 305 306 310
f 305 310 309
f 306 307 311
f 306 311 310
f 307 308 312
f 307 312 311
f 308 305 309
f 308 309 312
v -0.006000 0.179137 0.000015 0.160 0.352 0.136
v -0.000004 0.184906 -0.001648 0.160 0.352 0.136
v 0.006000 0.179137 -0.000015 0.160 0.352 0.136
v 0.000004 0.173368 0.001648 0.160 0.352 0.136
v -0.001090 0.169137 -0.034997 0.160 0.352 0.136
v -0.000091 0.170098 -0.035275 0.160 0.352 0.136
v 0.000910 0.169137 -0.035002 0.160 0.352 0.136
v -0.000089 0.168175 -0.034725 0.160 0.352 0.136
f 313 314 318
f 313 318 317
f 314 315 319
f 314 319 318
f 315 316 320
f 315 320 319
f 316 313 317
f 316 317 320
v -0.005984 0.091658 -0.000438 0.160 0.352 0.136
v 0.000120 0.097427 -0.001644 0.160 0.352 0.136
v 0.005984 0.091658 0.000438 0.160 0.352 0.136
v -0.000120 0.085888 0.001644 0.160 0.352 0.136
v 0.001560 0.081658 -0.034979 0.160 0.352 0.136
v 0.002578 0.082619 -0.035180 0.160 0.352 0.136
v 0.003555 0.081658 -0.034833 0.160 0.352 0.136
v 0.002538 0.080696 -0.034632 0.160 0.352 0.136
f 321 322 326
f 321 326 325
f 322 323 327
f 322 327 326
f 323 324 328
f 323 328 327
f 324 321 325
f 324 325 328
v -0.002012 0.181648 -0.005652 0.160 0.352 0.136
v 0.001553 0.187417 -0.000553 0.160 0.352 0.136
v 0.002012 0.181648 0.005652 0.160 0.352 0.136
v -0.001553 0.175878 0.000553 0.160 0.352 0.136
v 0.032637 0.171648 -0.012680 0.160 0.352 0.136
v 0.033232 0.172609 -0.011831 0.160 0.352 0.136
v 0.033308 0.171648 -0.010796 0.160 0.352 0.136
v 0.032714 0.170686 -0.011646 0.160 0.352 0.136
f 329 330 334
f 329 334 333
f 330 331 335
f 330 335 334
f 331 332 336
f 331 336 335
f 332 329 333
f 332 333 336
v 0.005771 0.178861 -0.001642 0.160 0.352 0.136
v 0.000451 0.184630 0.001585 0.160 0.352 0.136
v -0.005771 0.178861 0.001642 0.160 0.352 0.136
v -0.000451 0.173092 -0.001585 0.160 0.352 0.136
v 0.010539 0.168861 0.033391 0.160 0.352 0.136
v 0.009652 0.169823 0.033929 0.160 0.352 0.136
v 0.008615 0.168861 0.033938 0.160 0.352 0.136
v 0.009502 0.167900 0.033400 0.160 0.352 0.136
f 337 338 342
f 337 342 341
f 338 339 343
f 338 343 342
f 339 340 344
f 339 344 343
f 340 337 341
f 340 341 344
v 0.005922 0.414481 -0.000967 0.160 0.352 0.136
v 0.000266 0.420250 0.001627 0.160 0.352 0.136
v -0.005922 0.414481 0.000967 0.160 0.352 0.136
v -0.000266 0.408712 -0.001627 0.160 0.352 0.136
v 0.006625 0.404481 0.034382 0.160 0.352 0.136
v 0.005682 0.405442 0.034814 0.160 0.352 0.136
v 0.004651 0.404481 0.034704 0.160 0.352 0.136
v 0.005594 0.403519 0.034272 0.160 0.352 0.136
f 345 346 350
f 345 350 349
f 346 347 351
f 346 351 350
f 347 348 352
f 347 352 351
f 348 345 349
f 348 349 352
v 0.000000 0.145429 -0.000000 0.180 0.500 0.200
v -0.002078 0.143492 -0.002606 0.180 0.500 0.200
v -0.005461 0.141554 -0.004876 0.180 0.500 0.200
v -0.009637 0.139617 -0.006944 0.180 0.500 0.200
v -0.014294 0.137679 -0.008887 0.180 0.500 0.200
v -0.019162 0.135742 -0.010777 0.180 0.500 0.200
v -0.023989 0.133804 -0.012677 0.180 0.500 0.200
v -0.028541 0.131867 -0.014647 0.180 0.500 0.200
v -0.032609 0.129929 -0.016742 0.180 0.500 0.200
v -0.036015 0.127992 -0.019007 0.180 0.500 0.200
v -0.038619 0.126054 -0.021478 0.180 0.500 0.200
v -0.040323 0.124116 -0.024179 0.180 0.500 0.200
v -0.041079 0.122179 -0.027124 0.180 0.500 0.200
v -0.040886 0.120241 -0.030313 0.180 0.500 0.200
v -0.039795 0.118304 -0.033732 0.180 0.500 0.200
v -0.037900 0.116366 -0.037357 0.180 0.500 0.200
v -0.035344 0.114429 -0.041152 0.180 0.500 0.200
v -0.032304 0.112491 -0.045072 0.180 0.500 0.200
v -0.028989 0.110554 -0.049062 0.180 0.500 0.200
v -0.025633 0.108616 -0.053062 0.180 0.500 0.200
v -0.022487 0.106679 -0.057009 0.180 0.500 0.200
v -0.019824 0.104741 -0.060831 0.180 0.500 0.200
v -0.017953 0.102804 -0.064451 0.180 0.500 0.200
v -0.017387 0.100866 -0.067735 0.180 0.500 0.200
v -0.015308 0.102804 -0.065130 0.180 0.500 0.200
v -0.011925 0.104741 -0.062859 0.180 0.500 0.200
v -0.007750 0.106679 -0.060792 0.180 0.500 0.200
v -0.003093 0.108616 -0.058848 0.180 0.500 0.200
v 0.001776 0.110554 -0.056959 0.180 0.500 0.200
v 0.006602 0.112491 -0.055059 0.180 0.500 0.200
v 0.011154 0.114429 -0.053088 0.180 0.500 0.200
v 0.015222 0.116366 -0.050993 0.180 0.500 0.200
v 0.018628 0.118304 -0.048728 0.180 0.500 0.200
v 0.021232 0.120241 -0.046258 0.180 0.500 0.200
v 0.022937 0.122179 -0.043556 0.180 0.500 0.200
v 0.023693 0.124116 -0.040611 0.180 0.500 0.200
v 0.023500 0.126054 -0.037423 0.180 0.500 0.200
v 0.022408 0.127992 -0.034003 0.180 0.500 0.200
v 0.020514 0.129929 -0.030378 0.180 0.500 0.200
v 0.017958 0.131867 -0.026583 0.180 0.500 0.200
v 0.014918 0.133804 -0.022663 0.180 0.500 0.200
v 0.011603 0.135742 -0.018673 0.180 0.500 0.200
v 0.008246 0.137679 -0.014673 0.180 0.500 0.200
v 0.005101 0.139617 -0.010726 0.180 0.500 0.200
v 0.002438 0.141554 -0.006904 0.180 0.500 0.200
v 0.000567 0.143492 -0.003284 0.180 0.500 0.200
f 353 354 355
f 353 355 354
f 353 355 356
f 353 356 355
f 353 356 357
f 353 357 356
f 353 357 358
f 353 358 357
f 353 358 359
f 353 359 358
f 353 359 360
f 353 360 359
f 353 360 361
f 353 361 360
f 353 361 362
f 353 362 361
f 353 362 363
f 353 363 362
f 353 363 364
f 353 364 363
f 353 364 365
f 353 365 364
f 353 365 366
f 353 366 365
f 353 366 367
f 353 367 366
f 353 367 368
f 353 368 367
f 353 368 369
f 353 369 368
f 353 369 370
f 353 370 369
f 353 370 371
f 353 371 370
f 353 371 372
f 353 372 371
f 353 372 373
f 353 373 372
f 353 373 374
f 353 374 373
f 353 374 375
f 353 375 374
f 353 375 376
f 353 376 375
f 353 376 377
f 353 377 376
f 353 377 378
f 353 378 377
f 353 378 379
f 353 379 378
f 353 379 380
f 353 380 379
f 353 380 381
f 353 381 380
f 353 381 382
f 353 382 381
f 353 382 383
f 353 383 382
f 353 383 384
f 353 384 383
f 353 384 385
f 353 385 384
f 353 385 386
f 353 386 385
f 353 386 387
f 353 387 386
f 353 387 388
f 353 388 387
f 353 388 389
f 353 389 388
f 353 389 390
f 353 390 389
f 353 390 391
f 353 391 390
f 353 391 392
f 353 392 391
f 353 392 393
f 353 393 392
f 353 393 394
f 353 394 393
f 353 394 395
f 353 395 394
f 353 395 396
f 353 396 395
f 353 396 397
f 353 397 396
f 353 397 398
f 353 398 397
v 0.000000 0.145429 -0.000000 0.180 0.500 0.200
v -0.003064 0.144185 -0.001414 0.180 0.500 0.200
v -0.007047 0.142941 -0.001971 0.180 0.500 0.200
v -0.011587 0.141696 -0.002007 0.180 0.500 0.200
v -0.016466 0.140452 -0.001726 0.180 0.500 0.200
v -0.021495 0.139207 -0.001306 0.180 0.500 0.200
v -0.026493 0.137963 -0.000914 0.180 0.500 0.200
v -0.031299 0.136719 -0.000702 0.180 0.500 0.200
v -0.035764 0.135474 -0.000808 0.180 0.500 0.200
v -0.039762 0.134230 -0.001350 0.180 0.500 0.200
v -0.043196 0.132986 -0.002419 0.180 0.500 0.200
v -0.045997 0.131741 -0.004079 0.180 0.500 0.200
v -0.048131 0.130497 -0.006363 0.180 0.500 0.200
v -0.049596 0.129253 -0.009271 0.180 0.500 0.200
v -0.050428 0.128008 -0.012770 0.180 0.500 0.200
v -0.050696 0.126764 -0.016796 0.180 0.500 0.200
v -0.050497 0.125520 -0.021258 0.180 0.500 0.200
v -0.049958 0.124275 -0.026038 0.180 0.500 0.200
v -0.049225 0.123031 -0.030998 0.180 0.500 0.200
v -0.048464 0.121787 -0.035986 0.180 0.500 0.200
v -0.047850 0.120542 -0.040835 0.180 0.500 0.200
v -0.047576 0.119298 -0.045367 0.180 0.500 0.200
v -0.047860 0.118054 -0.049378 0.180 0.500 0.200
v -0.049062 0.116809 -0.052532 0.180 0.500 0.200
v -0.045998 0.118054 -0.051117 0.180 0.500 0.200
v -0.042016 0.119298 -0.050561 0.180 0.500 0.200
v -0.037475 0.120542 -0.050525 0.180 0.500 0.200
v -0.032596 0.121787 -0.050806 0.180 0.500 0.200
v -0.027568 0.123031 -0.051226 0.180 0.500 0.200
v -0.022569 0.124275 -0.051618 0.180 0.500 0.200
v -0.017763 0.125520 -0.051830 0.180 0.500 0.200
v -0.013299 0.126764 -0.051724 0.180 0.500 0.200
v -0.009300 0.128008 -0.051182 0.180 0.500 0.200
v -0.005866 0.129253 -0.050113 0.180 0.500 0.200
v -0.003065 0.130497 -0.048453 0.180 0.500 0.200
v -0.000932 0.131741 -0.046169 0.180 0.500 0.200
v 0.000534 0.132986 -0.043261 0.180 0.500 0.200
v 0.001366 0.134230 -0.039762 0.180 0.500 0.200
v 0.001633 0.135474 -0.035736 0.180 0.500 0.200
v 0.001435 0.136719 -0.031274 0.180 0.500 0.200
v 0.000896 0.137963 -0.026494 0.180 0.500 0.200
v 0.000163 0.139207 -0.021534 0.180 0.500 0.200
v -0.000599 0.140452 -0.016546 0.180 0.500 0.200
v -0.001212 0.141696 -0.011697 0.180 0.500 0.200
v -0.001486 0.142941 -0.007165 0.180 0.500 0.200
v -0.001202 0.144185 -0.003154 0.180 0.500 0.200
f 399 400 401
f 399 401 400
f 399 401 402
f 399 402 401
f 399 402 403
f 399 403 402
f 399 403 404
f 399 404 403
f 399 404 405
f 399 405 404
f 399 405 406
f 399 406 405
f 399 406 407
f 399 407 406
f 399 407 408
f 399 408 407
f 399 408 409
f 399 409 408
f 399 409 410
f 399 410 409
f 399 410 411
f 399 411 410
f 399 411 412
f 399 412 411
f 399 412 413
f 399 413 412
f 399 413 414
f 399 414 413
f 399 414 415
f 399 415 414
f 399 415 416
f 399 416 415
f 399 416 417
f 399 417 416
f 399 417 418
f 399 418 417
f 399 418 419
f 399 419 418
f 399 419 420
f 399 420 419
f 399 420 421
f 399 421 420
f 399 421 422
f 399 422 421
f 399 422 423
f 399 423 422
f 399 423 424
f 399 424 423
f 399 424 425
f 399 425 424
f 399 425 426
f 399 426 425
f 399 426 427
f 399 427 426
f 399 427 428
f 399 428 427
f 399 428 429
f 399 429 428
f 399 429 430
f 399 430 429
f 399 430 431
f 399 431 430
f 399 431 432
f 399 432 431
f 399 432 433
f 399 433 432
f 399 433 434
f 399 434 433
f 399 434 435
f 399 435 434
f 399 435 436
f 399 436 435
f 399 436 437
f 399 437 436
f 399 437 438
f 399 438 437
f 399 438 439
f 399 439 438
f 399 439 440
f 399 440 439
f 399 440 441
f 399 441 440
f 399 441 442
f 399 442 441
f 399 442 443
f 399 443 442
f 399 443 444
f 399 444 443
v 0.000000 0.145429 -0.000000 0.180 0.500 0.200
v -0.002707 0.144481 0.000176 0.180 0.500 0.200
v -0.005730 0.143532 0.001306 0.180 0.500 0.200
v -0.008944 0.142583 0.003015 0.180 0.500 0.200
v -0.012275 0.141635 0.005075 0.180 0.500 0.200
v -0.015657 0.140686 0.007290 0.180 0.500 0.200
v -0.019029 0.139737 0.009475 0.180 0.500 0.200
v -0.022334 0.138789 0.011459 0.180 0.500 0.200
v -0.025523 0.137840 0.013089 0.180 0.500 0.200
v -0.028551 0.136892 0.014236 0.180 0.500 0.200
v -0.031385 0.135943 0.014796 0.180 0.500 0.200
v -0.034002 0.134994 0.014699 0.180 0.500 0.200
v -0.036390 0.134046 0.013909 0.180 0.500 0.200
v -0.038548 0.133097 0.012426 0.180 0.500 0.200
v -0.040489 0.132148 0.010286 0.180 0.500 0.200
v -0.042236 0.131200 0.007559 0.180 0.500 0.200
v -0.043823 0.130251 0.004349 0.180 0.500 0.200
v -0.045292 0.129302 0.000785 0.180 0.500 0.200
v -0.046696 0.128354 -0.002980 0.180 0.500 0.200
v -0.048089 0.127405 -0.006775 0.180 0.500 0.200
v -0.049533 0.126457 -0.010415 0.180 0.500 0.200
v -0.051094 0.125508 -0.013704 0.180 0.500 0.200
v -0.052847 0.124559 -0.016413 0.180 0.500 0.200
v -0.054914 0.123611 -0.018170 0.180 0.500 0.200
v -0.052207 0.124559 -0.018346 0.180 0.500 0.200
v -0.049184 0.125508 -0.019476 0.180 0.500 0.200
v -0.045970 0.126457 -0.021184 0.180 0.500 0.200
v -0.042639 0.127405 -0.023245 0.180 0.500 0.200
v -0.039257 0.128354 -0.025460 0.180 0.500 0.200
v -0.035886 0.129302 -0.027645 0.180 0.500 0.200
v -0.032580 0.130251 -0.029629 0.180 0.500 0.200
v -0.029392 0.131200 -0.031259 0.180 0.500 0.200
v -0.026363 0.132148 -0.032405 0.180 0.500 0.200
v -0.023529 0.133097 -0.032966 0.180 0.500 0.200
v -0.020912 0.134046 -0.032869 0.180 0.500 0.200
v -0.018525 0.134994 -0.032079 0.180 0.500 0.200
v -0.016366 0.135943 -0.030596 0.180 0.500 0.200
v -0.014426 0.136892 -0.028456 0.180 0.500 0.200
v -0.012679 0.137840 -0.025729 0.180 0.500 0.200
v -0.011092 0.138789 -0.022519 0.180 0.500 0.200
v -0.009622 0.139737 -0.018955 0.180 0.500 0.200
v -0.008219 0.140686 -0.015190 0.180 0.500 0.200
v -0.006825 0.141635 -0.011395 0.180 0.500 0.200
v -0.005381 0.142583 -0.007754 0.180 0.500 0.200
v -0.003820 0.143532 -0.004466 0.180 0.500 0.200
v -0.002068 0.144481 -0.001756 0.180 0.500 0.200
f 445 446 447
f 445 447 446
f 445 447 448
f 445 448 447
f 445 448 449
f 445 449 448
f 445 449 450
f 445 450 449
f 445 450 451
f 445 451 450
f 445 451 452
f 445 452 451
f 445 452 453
f 445 453 452
f 445 453 454
f 445 454 453
f 445 454 455
f 445 455 454
f 445 455 456
f 445 456 455
f 445 456 457
f 445 457 456
f 445 457 458
f 445 458 457
f 445 458 459
f 445 459 458
f 445 459 460
f 445 460 459
f 445 460 461
f 445 461 460
f 445 461 462
f 445 462 461
f 445 462 463
f 445 463 462
f 445 463 464
f 445 464 463
f 445 464 465
f 445 465 464
f 445 465 466
f 445 466 465
f 445 466 467
f 445 467 466
f 445 467 468
f 445 468 467
f 445 468 469
f 445 469 468
f 445 469 470
f 445 470 469
f 445 470 471
f 445 471 470
f 445 471 472
f 445 472 471
f 445 472 473
f 445 473 472
f 445 473 474
f 445 474 473
f 445 474 475
f 445 475 474
f 445 475 476
f 445 476 475
f 445 476 477
f 445 477 476
f 445 477 478
f 445 478 477
f 445 478 479
f 445 479 478
f 445 479 480
f 445 480 479
f 445 480 481
f 445 481 480
f 445 481 482
f 445 482 481
f 445 482 483
f 445 483 482
f 445 483 484
f 445 484 483
f 445 484 485
f 445 485 484
f 445 485 486
f 445 486 485
f 445 486 487
f 445 487 486
f 445 487 488
f 445 488 487
f 445 488 489
f 445 489 488
f 445 489 490
f 445 490 489
v 0.000000 0.266620 -0.000000 0.180 0.500 0.200
v 0.003586 0.265271 -0.001046 0.180 0.500 0.200
v 0.007314 0.263922 -0.003471 0.180 0.500 0.200
v 0.011129 0.262572 -0.006735 0.180 0.500 0.200
v 0.014995 0.261223 -0.010510 0.180 0.500 0.200
v 0.018885 0.259874 -0.014507 0.180 0.500 0.200
v 0.022770 0.258525 -0.018460 0.180 0.500 0.200
v 0.026625 0.257175 -0.022123 0.180 0.500 0.200
v 0.030428 0.255826 -0.025274 0.180 0.500 0.200
v 0.034159 0.254477 -0.027724 0.180 0.500 0.200
v 0.037802 0.253127 -0.029325 0.180 0.500 0.200
v 0.041348 0.251778 -0.029975 0.180 0.500 0.200
v 0.044790 0.250429 -0.029621 0.180 0.500 0.200
v 0.048130 0.249079 -0.028264 0.180 0.500 0.200
v 0.051371 0.247730 -0.025955 0.180 0.500 0.200
v 0.054526 0.246381 -0.022797 0.180 0.500 0.200
v 0.057608 0.245032 -0.018939 0.180 0.500 0.200
v 0.060638 0.243682 -0.014569 0.180 0.500 0.200
v 0.063638 0.242333 -0.009908 0.180 0.500 0.200
v 0.066633 0.240984 -0.005203 0.180 0.500 0.200
v 0.069651 0.239634 -0.000721 0.180 0.500 0.200
v 0.072722 0.238285 0.003250 0.180 0.500 0.200
v 0.075879 0.236936 0.006384 0.180 0.500 0.200
v 0.079178 0.235587 0.008137 0.180 0.500 0.200
v 0.075592 0.236936 0.009182 0.180 0.500 0.200
v 0.071863 0.238285 0.011608 0.180 0.500 0.200
v 0.068049 0.239634 0.014872 0.180 0.500 0.200
v 0.064182 0.240984 0.018646 0.180 0.500 0.200
v 0.060293 0.242333 0.022643 0.180 0.500 0.200
v 0.056408 0.243682 0.026597 0.180 0.500 0.200
v 0.052552 0.245032 0.030260 0.180 0.500 0.200
v 0.048750 0.246381 0.033410 0.180 0.500 0.200
v 0.045019 0.247730 0.035860 0.180 0.500 0.200
v 0.041376 0.249079 0.037462 0.180 0.500 0.200
v 0.037830 0.250429 0.038112 0.180 0.500 0.200
v 0.034387 0.251778 0.037758 0.180 0.500 0.200
v 0.031048 0.253127 0.036400 0.180 0.500 0.200
v 0.027806 0.254477 0.034092 0.180 0.500 0.200
v 0.024652 0.255826 0.030934 0.180 0.500 0.200
v 0.021570 0.257175 0.027076 0.180 0.500 0.200
v 0.018540 0.258525 0.022705 0.180 0.500 0.200
v 0.015540 0.259874 0.018044 0.180 0.500 0.200
v 0.012545 0.261223 0.013340 0.180 0.500 0.200
v 0.009526 0.262572 0.008858 0.180 0.500 0.200
v 0.006456 0.263922 0.004886 0.180 0.500 0.200
v 0.003299 0.265271 0.001753 0.180 0.500 0.200
f 491 492 493
f 491 493 492
f 491 493 494
f 491 494 493
f 491 494 495
f 491 495 494
f 491 495 496
f 491 496 495
f 491 496 497
f 491 497 496
f 491 497 498
f 491 498 497
f 491 498 499
f 491 499 498
f 491 499 500
f 491 500 499
f 491 500 501
f 491 501 500
f 491 501 502
f 491 502 501
f 491 502 503
f 491 503 502
f 491 503 504
f 491 504 503
f 491 504 505
f 491 505 504
f 491 505 506
f 491 506 505
f 491 506 507
f 491 507 506
f 491 507 508
f 491 508 507
f 491 508 509
f 491 509 508
f 491 509 510
f 491 510 509
f 491 510 511
f 491 511 510
f 491 511 512
f 491 512 511
f 491 512 513
f 491 513 512
f 491 513 514
f 491 514 513
f 491 514 515
f 491 515 514
f 491 515 516
f 491 516 515
f 491 516 517
f 491 517 516
f 491 517 518
f 491 518 517
f 491 518 519
f 491 519 518
f 491 519 520
f 491 520 519
f 491 520 521
f 491 521 520
f 491 521 522
f 491 522 521
f 491 522 523
f 491 523 522
f 491 523 524
f 491 524 523
f 491 524 525
f 491 525 524
f 491 525 526
f 491 526 525
f 491 526 527
f 491 527 526
f 491 527 528
f 491 528 527
f 491 528 529
f 491 529 528
f 491 529 530
f 491 530 529
f 491 530 531
f 491 531 530
f 491 531 532
f 491 532 531
f 491 532 533
f 491 533 532
f 491 533 534
f 491 534 533
f 491 534 535
f 491 535 534
f 491 535 536
f 491 536 535
v 0.000000 0.266620 -0.000000 0.180 0.500 0.200
v 0.001599 0.264897 -0.001811 0.180 0.500 0.200
v 0.002796 0.263174 -0.004578 0.180 0.500 0.200
v 0.003750 0.261451 -0.007926 0.180 0.500 0.200
v 0.004555 0.259728 -0.011626 0.180 0.500 0.200
v 0.005295 0.258005 -0.015482 0.180 0.500 0.200
v 0.006048 0.256282 -0.019306 0.180 0.500 0.200
v 0.006886 0.254559 -0.022930 0.180 0.500 0.200
v 0.007872 0.252836 -0.026199 0.180 0.500 0.200
v 0.009063 0.251113 -0.028983 0.180 0.500 0.200
v 0.010500 0.249390 -0.031179 0.180 0.500 0.200
v 0.012213 0.247667 -0.032716 0.180 0.500 0.200
v 0.014219 0.245944 -0.033559 0.180 0.500 0.200
v 0.016516 0.244221 -0.033706 0.180 0.500 0.200
v 0.019091 0.242498 -0.033194 0.180 0.500 0.200
v 0.021912 0.240775 -0.032095 0.180 0.500 0.200
v 0.024936 0.239052 -0.030511 0.180 0.500 0.200
v 0.028110 0.237329 -0.028572 0.180 0.500 0.200
v 0.031368 0.235605 -0.026431 0.180 0.500 0.200
v 0.034639 0.233882 -0.024261 0.180 0.500 0.200
v 0.037845 0.232159 -0.022245 0.180 0.500 0.200
v 0.040903 0.230436 -0.020582 0.180 0.500 0.200
v 0.043717 0.228713 -0.019499 0.180 0.500 0.200
v 0.046130 0.226990 -0.019373 0.180 0.500 0.200
v 0.044531 0.228713 -0.017561 0.180 0.500 0.200
v 0.043333 0.230436 -0.014794 0.180 0.500 0.200
v 0.042380 0.232159 -0.011447 0.180 0.500 0.200
v 0.041575 0.233882 -0.007746 0.180 0.500 0.200
v 0.040834 0.235605 -0.003891 0.180 0.500 0.200
v 0.040081 0.237329 -0.000066 0.180 0.500 0.200
v 0.039244 0.239052 0.003557 0.180 0.500 0.200
v 0.038257 0.240775 0.006826 0.180 0.500 0.200
v 0.037067 0.242498 0.009610 0.180 0.500 0.200
v 0.035630 0.244221 0.011806 0.180 0.500 0.200
v 0.033916 0.245944 0.013344 0.180 0.500 0.200
v 0.031911 0.247667 0.014186 0.180 0.500 0.200
v 0.029613 0.249390 0.014333 0.180 0.500 0.200
v 0.027039 0.251113 0.013822 0.180 0.500 0.200
v 0.024218 0.252836 0.012722 0.180 0.500 0.200
v 0.021193 0.254559 0.011138 0.180 0.500 0.200
v 0.018019 0.256282 0.009199 0.180 0.500 0.200
v 0.014761 0.258005 0.007059 0.180 0.500 0.200
v 0.011490 0.259728 0.004888 0.180 0.500 0.200
v 0.008284 0.261451 0.002872 0.180 0.500 0.200
v 0.005226 0.263174 0.001209 0.180 0.500 0.200
v 0.002413 0.264897 0.000127 0.180 0.500 0.200
f 537 538 539
f 537 539 538
f 537 539 540
f 537 540 539
f 537 540 541
f 537 541 540
f 537 541 542
f 537 542 541
f 537 542 543
f 537 543 542
f 537 543 544
f 537 544 543
f 537 544 545
f 537 545 544
f 537 545 546
f 537 546 545
f 537 546 547
f 537 547 546
f 537 547 548
f 537 548 547
f 537 548 549
f 537 549 548
f 537 549 550
f 537 550 549
f 537 550 551
f 537 551 550
f 537 551 552
f 537 552 551
f 537 552 553
f 537 553 552
f 537 553 554
f 537 554 553
f 537 554 555
f 537 555 554
f 537 555 556
f 537 556 555
f 537 556 557
f 537 557 556
f 537 557 558
f 537 558 557
f 537 558 559
f 537 559 558
f 537 559 560
f 537 560 559
f 537 560 561
f 537 561 560
f 537 561 562
f 537 562 561
f 537 562 563
f 537 563 562
f 537 563 564
f 537 564 563
f 537 564 565
f 537 565 564
f 537 565 566
f 537 566 565
f 537 566 567
f 537 567 566
f 537 567 568
f 537 568 567
f 537 568 569
f 537 569 568
f 537 569 570
f 537 570 569
f 537 570 571
f 537 571 570
f 537 571 572
f 537 572 571
f 537 572 573
f 537 573 572
f 537 573 574
f 537 574 573
f 537 574 575
f 537 575 574
f 537 575 576
f 537 576 575
f 537 576 577
f 537 577 576
f 537 577 578
f 537 578 577
f 537 578 579
f 537 579 578
f 537 579 580
f 537 580 579
f 537 580 581
f 537 581 580
f 537 581 582
f 537 582 581
v 0.000000 0.266620 -0.000000 0.180 0.500 0.200
v 0.000841 0.265222 -0.002990 0.180 0.500 0.200
v 0.000753 0.263825 -0.006721 0.180 0.500 0.200
v 0.000099 0.262427 -0.010903 0.180 0.500 0.200
v -0.000899 0.261029 -0.015360 0.180 0.500 0.200
v -0.002047 0.259632 -0.019936 0.180 0.500 0.200
v -0.003165 0.258234 -0.024488 0.180 0.500 0.200
v -0.004088 0.256836 -0.028885 0.180 0.500 0.200
v -0.004665 0.255438 -0.033006 0.180 0.500 0.200
v -0.004770 0.254041 -0.036750 0.180 0.500 0.200
v -0.004304 0.252643 -0.040039 0.180 0.500 0.200
v -0.003196 0.251245 -0.042816 0.180 0.500 0.200
v -0.001411 0.249847 -0.045054 0.180 0.500 0.200
v 0.001050 0.248450 -0.046752 0.180 0.500 0.200
v 0.004152 0.247052 -0.047939 0.180 0.500 0.200
v 0.007826 0.245654 -0.048669 0.180 0.500 0.200
v 0.011972 0.244257 -0.049023 0.180 0.500 0.200
v 0.016464 0.242859 -0.049102 0.180 0.500 0.200
v 0.021151 0.241461 -0.049025 0.180 0.500 0.200
v 0.025868 0.240063 -0.048924 0.180 0.500 0.200
v 0.030435 0.238666 -0.048943 0.180 0.500 0.200
v 0.034657 0.237268 -0.049236 0.180 0.500 0.200
v 0.038315 0.235870 -0.049980 0.180 0.500 0.200
v 0.041043 0.234472 -0.051466 0.180 0.500 0.200
v 0.040201 0.235870 -0.048476 0.180 0.500 0.200
v 0.040290 0.237268 -0.044744 0.180 0.500 0.200
v 0.040944 0.238666 -0.040562 0.180 0.500 0.200
v 0.041941 0.240063 -0.036106 0.180 0.500 0.200
v 0.043089 0.241461 -0.031530 0.180 0.500 0.200
v 0.044208 0.242859 -0.026977 0.180 0.500 0.200
v 0.045130 0.244257 -0.022581 0.180 0.500 0.200
v 0.045708 0.245654 -0.018460 0.180 0.500 0.200
v 0.045813 0.247052 -0.014715 0.180 0.500 0.200
v 0.045346 0.248450 -0.011427 0.180 0.500 0.200
v 0.044238 0.249847 -0.008650 0.180 0.500 0.200
v 0.042454 0.251245 -0.006412 0.180 0.500 0.200
v 0.039993 0.252643 -0.004714 0.180 0.500 0.200
v 0.036891 0.254041 -0.003527 0.180 0.500 0.200
v 0.033216 0.255438 -0.002796 0.180 0.500 0.200
v 0.029070 0.256836 -0.002442 0.180 0.500 0.200
v 0.024579 0.258234 -0.002363 0.180 0.500 0.200
v 0.019891 0.259632 -0.002441 0.180 0.500 0.200
v 0.015174 0.261029 -0.002542 0.180 0.500 0.200
v 0.010608 0.262427 -0.002522 0.180 0.500 0.200
v 0.006385 0.263825 -0.002229 0.180 0.500 0.200
v 0.002728 0.265222 -0.001486 0.180 0.500 0.200
f 583 584 585
f 583 585 584
f 583 585 586
f 583 586 585
f 583 586 587
f 583 587 586
f 583 587 588
f 583 588 587
f 583 588 589
f 583 589 588
f 583 589 590
f 583 590 589
f 583 590 591
f 583 591 590
f 583 591 592
f 583 592 591
f 583 592 593
f 583 593 592
f 583 593 594
f 583 594 593
f 583 594 595
f 583 595 594
f 583 595 596
f 583 596 595
f 583 596 597
f 583 597 596
f 583 597 598
f 583 598 597
f 583 598 599
f 583 599 598
f 583 599 600
f 583 600 599
f 583 600 601
f 583 601 600
f 583 601 602
f 583 602 601
f 583 602 603
f 583 603 602
f 583 603 604
f 583 604 603
f 583 604 605
f 583 605 604
f 583 605 606
f 583 606 605
f 583 606 607
f 583 607 606
f 583 607 608
f 583 608 607
f 583 608 609
f 583 609 608
f 583 609 610
f 583 610 609
f 583 610 611
f 583 611 610
f 583 611 612
f 583 612 611
f 583 612 613
f 583 613 612
f 583 613 614
f 583 614 613
f 583 614 615
f 583 615 614
f 583 615 616
f 583 616 615
f 583 616 617
f 583 617 616
f 583 617 618
f 583 618 617
f 583 618 619
f 583 619 618
f 583 619 620
f 583 620 619
f 583 620 621
f 583 621 620
f 583 621 622
f 583 622 621
f 583 622 623
f 583 623 622
f 583 623 624
f 583 624 623
f 583 624 625
f 583 625 624
f 583 625 626
f 583 626 625
f 583 626 627
f 583 627 626
f 583 627 628
f 583 628 627
v 0.000000 0.378116 -0.000000 0.180 0.500 0.200
v -0.001625 0.376627 -0.001855 0.180 0.500 0.200
v -0.004214 0.375138 -0.003420 0.180 0.500 0.200
v -0.007388 0.373648 -0.004809 0.180 0.500 0.200
v -0.010919 0.372159 -0.006090 0.180 0.500 0.200
v -0.014605 0.370670 -0.007324 0.180 0.500 0.200
v -0.018260 0.369181 -0.008567 0.180 0.500 0.200
v -0.021713 0.367691 -0.009871 0.180 0.500 0.200
v -0.024808 0.366202 -0.011284 0.180 0.500 0.200
v -0.027414 0.364713 -0.012843 0.180 0.500 0.200
v -0.029427 0.363224 -0.014582 0.180 0.500 0.200
v -0.030776 0.361735 -0.016520 0.180 0.500 0.200
v -0.031425 0.360245 -0.018670 0.180 0.500 0.200
v -0.031372 0.358756 -0.021032 0.180 0.500 0.200
v -0.030655 0.357267 -0.023593 0.180 0.500 0.200
v -0.029346 0.355778 -0.026333 0.180 0.500 0.200
v -0.027547 0.354289 -0.029221 0.180 0.500 0.200
v -0.025391 0.352799 -0.032217 0.180 0.500 0.200
v -0.023032 0.351310 -0.035273 0.180 0.500 0.200
v -0.020642 0.349821 -0.038339 0.180 0.500 0.200
v -0.018409 0.348332 -0.041358 0.180 0.500 0.200
v -0.016531 0.346843 -0.044270 0.180 0.500 0.200
v -0.015238 0.345353 -0.047005 0.180 0.500 0.200
v -0.014910 0.343864 -0.049450 0.180 0.500 0.200
v -0.013284 0.345353 -0.047594 0.180 0.500 0.200
v -0.010696 0.346843 -0.046029 0.180 0.500 0.200
v -0.007521 0.348332 -0.044641 0.180 0.500 0.200
v -0.003991 0.349821 -0.043360 0.180 0.500 0.200
v -0.000305 0.351310 -0.042126 0.180 0.500 0.200
v 0.003351 0.352799 -0.040883 0.180 0.500 0.200
v 0.006803 0.354289 -0.039578 0.180 0.500 0.200
v 0.009898 0.355778 -0.038166 0.180 0.500 0.200
v 0.012504 0.357267 -0.036606 0.180 0.500 0.200
v 0.014518 0.358756 -0.034868 0.180 0.500 0.200
v 0.015867 0.360245 -0.032929 0.180 0.500 0.200
v 0.016515 0.361735 -0.030779 0.180 0.500 0.200
v 0.016462 0.363224 -0.028418 0.180 0.500 0.200
v 0.015746 0.364713 -0.025856 0.180 0.500 0.200
v 0.014436 0.366202 -0.023116 0.180 0.500 0.200
v 0.012637 0.367691 -0.020228 0.180 0.500 0.200
v 0.010481 0.369181 -0.017233 0.180 0.500 0.200
v 0.008122 0.370670 -0.014176 0.180 0.500 0.200
v 0.005733 0.372159 -0.011110 0.180 0.500 0.200
v 0.003499 0.373648 -0.008091 0.180 0.500 0.200
v 0.001621 0.375138 -0.005180 0.180 0.500 0.200
v 0.000329 0.376627 -0.002445 0.180 0.500 0.200
f 629 630 631
f 629 631 630
f 629 631 632
f 629 632 631
f 629 632 633
f 629 633 632
f 629 633 634
f 629 634 633
f 629 634 635
f 629 635 634
f 629 635 636
f 629 636 635
f 629 636 637
f 629 637 636
f 629 637 638
f 629 638 637
f 629 638 639
f 629 639 638
f 629 639 640
f 629 640 639
f 629 640 641
f 629 641 640
f 629 641 642
f 629 642 641
f 629 642 643
f 629 643 642
f 629 643 644
f 629 644 643
f 629 644 645
f 629 645 644
f 629 645 646
f 629 646 645
f 629 646 647
f 629 647 646
f 629 647 648
f 629 648 647
f 629 648 649
f 629 649 648
f 629 649 650
f 629 650 649
f 629 650 651
f 629 651 650
f 629 651 652
f 629 652 651
f 629 652 653
f 629 653 652
f 629 653 654
f 629 654 653
f 629 654 655
f 629 655 654
f 629 655 656
f 629 656 655
f 629 656 657
f 629 657 656
f 629 657 658
f 629 658 657
f 629 658 659
f 629 659 658
f 629 659 660
f 629 660 659
f 629 660 661
f 629 661 660
f 629 661 662
f 629 662 661
f 629 662 663
f 629 663 662
f 629 663 664
f 629 664 663
f 629 664 665
f 629 665 664
f 629 665 666
f 629 666 665
f 629 666 667
f 629 667 666
f 629 667 668
f 629 668 667
f 629 668 669
f 629 669 668
f 629 669 670
f 629 670 669
f 629 670 671
f 629 671 670
f 629 671 672
f 629 672 671
f 629 672 673
f 629 673 672
f 629 673 674
f 629 674 673
v 0.000000 0.378116 -0.000000 0.180 0.500 0.200
v -0.003026 0.376658 -0.001207 0.180 0.500 0.200
v -0.006928 0.375200 -0.001526 0.180 0.500 0.200
v -0.011361 0.373742 -0.001305 0.180 0.500 0.200
v -0.016117 0.372284 -0.000756 0.180 0.500 0.200
v -0.021015 0.370826 -0.000063 0.180 0.500 0.200
v -0.025886 0.369368 0.000601 0.180 0.500 0.200
v -0.030571 0.367910 0.001079 0.180 0.500 0.200
v -0.034932 0.366452 0.001227 0.180 0.500 0.200
v -0.038849 0.364994 0.000924 0.180 0.500 0.200
v -0.042228 0.363536 0.000075 0.180 0.500 0.200
v -0.045004 0.362078 -0.001387 0.180 0.500 0.200
v -0.047143 0.360620 -0.003495 0.180 0.500 0.200
v -0.048646 0.359162 -0.006248 0.180 0.500 0.200
v -0.049545 0.357704 -0.009614 0.180 0.500 0.200
v -0.049906 0.356246 -0.013526 0.180 0.500 0.200
v -0.049824 0.354788 -0.017889 0.180 0.500 0.200
v -0.049416 0.353329 -0.022581 0.180 0.500 0.200
v -0.048824 0.351871 -0.027461 0.180 0.500 0.200
v -0.048204 0.350413 -0.032368 0.180 0.500 0.200
v -0.047726 0.348955 -0.037132 0.180 0.500 0.200
v -0.047571 0.347497 -0.041568 0.180 0.500 0.200
v -0.047948 0.346039 -0.045465 0.180 0.500 0.200
v -0.049200 0.344581 -0.048473 0.180 0.500 0.200
v -0.046174 0.346039 -0.047266 0.180 0.500 0.200
v -0.042272 0.347497 -0.046947 0.180 0.500 0.200
v -0.037839 0.348955 -0.047168 0.180 0.500 0.200
v -0.033083 0.350413 -0.047717 0.180 0.500 0.200
v -0.028185 0.351871 -0.048410 0.180 0.500 0.200
v -0.023315 0.353329 -0.049074 0.180 0.500 0.200
v -0.018629 0.354788 -0.049552 0.180 0.500 0.200
v -0.014268 0.356246 -0.049699 0.180 0.500 0.200
v -0.010351 0.357704 -0.049396 0.180 0.500 0.200
v -0.006972 0.359162 -0.048547 0.180 0.500 0.200
v -0.004196 0.360620 -0.047086 0.180 0.500 0.200
v -0.002057 0.362078 -0.044978 0.180 0.500 0.200
v -0.000554 0.363536 -0.042225 0.180 0.500 0.200
v 0.000345 0.364994 -0.038859 0.180 0.500 0.200
v 0.000706 0.366452 -0.034947 0.180 0.500 0.200
v 0.000623 0.367910 -0.030584 0.180 0.500 0.200
v 0.000216 0.369368 -0.025892 0.180 0.500 0.200
v -0.000376 0.370826 -0.021012 0.180 0.500 0.200
v -0.000996 0.372284 -0.016104 0.180 0.500 0.200
v -0.001474 0.373742 -0.011340 0.180 0.500 0.200
v -0.001629 0.375200 -0.006904 0.180 0.500 0.200
v -0.001252 0.376658 -0.003008 0.180 0.500 0.200
f 675 676 677
f 675 677 676
f 675 677 678
f 675 678 677
f 675 678 679
f 675 679 678
f 675 679 680
f 675 680 679
f 675 680 681
f 675 681 680
f 675 681 682
f 675 682 681
f 675 682 683
f 675 683 682
f 675 683 684
f 675 684 683
f 675 684 685
f 675 685 684
f 675 685 686
f 675 686 685
f 675 686 687
f 675 687 686
f 675 687 688
f 675 688 687
f 675 688 689
f 675 689 688
f 675 689 690
f 675 690 689
f 675 690 691
f 675 691 690
f 675 691 692
f 675 692 691
f 675 692 693
f 675 693 692
f 675 693 694
f 675 694 693
f 675 694 695
f 675 695 694
f 675 695 696
f 675 696 695
f 675 696 697
f 675 697 696
f 675 697 698
f 675 698 697
f 675 698 699
f 675 699 698
f 675 699 700
f 675 700 699
f 675 700 701
f 675 701 700
f 675 701 702
f 675 702 701
f 675 702 703
f 675 703 702
f 675 703 704
f 675 704 703
f 675 704 705
f 675 705 704
f 675 705 706
f 675 706 705
f 675 706 707
f 675 707 706
f 675 707 708
f 675 708 707
f 675 708 709
f 675 709 708
f 675 709 710
f 675 710 709
f 675 710 711
f 675 711 710
f 675 711 712
f 675 712 711
f 675 712 713
f 675 713 712
f 675 713 714
f 675 714 713
f 675 714 715
f 675 715 714
f 675 715 716
f 675 716 715
f 675 716 717
f 675 717 716
f 675 717 718
f 675 718 717
f 675 718 719
f 675 719 718
f 675 719 720
f 675 720 719
v 0.000000 0.378116 -0.000000 0.180 0.500 0.200
v -0.003094 0.376957 0.000340 0.180 0.500 0.200
v -0.006506 0.375797 0.001797 0.180 0.500 0.200
v -0.010112 0.374638 0.003931 0.180 0.500 0.200
v -0.013835 0.373478 0.006477 0.180 0.500 0.200
v -0.017610 0.372319 0.009204 0.180 0.500 0.200
v -0.021375 0.371159 0.011895 0.180 0.500 0.200
v -0.025072 0.370000 0.014351 0.180 0.500 0.200
v -0.028652 0.368841 0.016394 0.180 0.500 0.200
v -0.032070 0.367681 0.017870 0.180 0.500 0.200
v -0.035292 0.366522 0.018660 0.180 0.500 0.200
v -0.038295 0.365362 0.018680 0.180 0.500 0.200
v -0.041066 0.364203 0.017890 0.180 0.500 0.200
v -0.043605 0.363043 0.016288 0.180 0.500 0.200
v -0.045926 0.361884 0.013916 0.180 0.500 0.200
v -0.048050 0.360725 0.010859 0.180 0.500 0.200
v -0.050013 0.359565 0.007235 0.180 0.500 0.200
v -0.051857 0.358406 0.003197 0.180 0.500 0.200
v -0.053635 0.357246 -0.001075 0.180 0.500 0.200
v -0.055402 0.356087 -0.005384 0.180 0.500 0.200
v -0.057221 0.354927 -0.009511 0.180 0.500 0.200
v -0.059158 0.353768 -0.013227 0.180 0.500 0.200
v -0.061288 0.352609 -0.016264 0.180 0.500 0.200
v -0.063736 0.351449 -0.018186 0.180 0.500 0.200
v -0.060643 0.352609 -0.018527 0.180 0.500 0.200
v -0.057230 0.353768 -0.019983 0.180 0.500 0.200
v -0.053625 0.354927 -0.022117 0.180 0.500 0.200
v -0.049901 0.356087 -0.024664 0.180 0.500 0.200
v -0.046126 0.357246 -0.027390 0.180 0.500 0.200
v -0.042362 0.358406 -0.030082 0.180 0.500 0.200
v -0.038664 0.359565 -0.032538 0.180 0.500 0.200
v -0.035085 0.360725 -0.034580 0.180 0.500 0.200
v -0.031667 0.361884 -0.036056 0.180 0.500 0.200
v -0.028444 0.363043 -0.036846 0.180 0.500 0.200
v -0.025442 0.364203 -0.036867 0.180 0.500 0.200
v -0.022671 0.365362 -0.036076 0.180 0.500 0.200
v -0.020131 0.366522 -0.034474 0.180 0.500 0.200
v -0.017811 0.367681 -0.032103 0.180 0.500 0.200
v -0.015686 0.368841 -0.029045 0.180 0.500 0.200
v -0.013724 0.370000 -0.025421 0.180 0.500 0.200
v -0.011879 0.371159 -0.021384 0.180 0.500 0.200
v -0.010101 0.372319 -0.017111 0.180 0.500 0.200
v -0.008334 0.373478 -0.012803 0.180 0.500 0.200
v -0.006515 0.374638 -0.008675 0.180 0.500 0.200
v -0.004578 0.375797 -0.004960 0.180 0.500 0.200
v -0.002448 0.376957 -0.001922 0.180 0.500 0.200
f 721 722 723
f 721 723 722
f 721 723 724
f 721 724 723
f 721 724 725
f 721 725 724
f 721 725 726
f 721 726 725
f 721 726 727
f 721 727 726
f 721 727 728
f 721 728 727
f 721 728 729
f 721 729 728
f 721 729 730
f 721 730 729
f 721 730 731
f 721 731 730
f 721 731 732
f 721 732 731
f 721 732 733
f 721 733 732
f 721 733 734
f 721 734 733
f 721 734 735
f 721 735 734
f 721 735 736
f 721 736 735
f 721 736 737
f 721 737 736
f 721 737 738
f 721 738 737
f 721 738 739
f 721 739 738
f 721 739 740
f 721 740 739
f 721 740 741
f 721 741 740
f 721 741 742
f 721 742 741
f 721 742 743
f 721 743 742
f 721 743 744
f 721 744 743
f 721 744 745
f 721 745 744
f 721 745 746
f 721 746 745
f 721 746 747
f 721 747 746
f 721 747 748
f 721 748 747
f 721 748 749
f 721 749 748
f 721 749 750
f 721 750 749
f 721 750 751
f 721 751 750
f 721 751 752
f 721 752 751
f 721 752 753
f 721 753 752
f 721 753 754
f 721 754 753
f 721 754 755
f 721 755 754
f 721 755 756
f 721 756 755
f 721 756 757
f 721 757 756
f 721 757 758
f 721 758 757
f 721 758 759
f 721 759 758
f 721 759 760
f 721 760 759
f 721 760 761
f 721 761 760
f 721 761 762
f 721 762 761
f 721 762 763
f 721 763 762
f 721 763 764
f 721 764 763
f 721 764 765
f 721 765 764
f 721 765 766
f 721 766 765
