o mesh
v 0.000000 0.000000 0.015000
v 0.008817 0.000000 0.012135
v 0.014266 0.000000 0.004635
v 0.014266 0.000000 -0.004635
v 0.008817 0.000000 -0.012135
v 0.000000 0.000000 -0.015000
v -0.008817 0.000000 -0.012135
v -0.014266 0.000000 -0.004635
v -0.014266 0.000000 0.004635
v -0.008817 0.000000 0.012135
v 0.000000 0.400000 0.010200
v 0.005995 0.400000 0.008252
v 0.009701 0.400000 0.003152
v 0.009701 0.400000 -0.003152
v 0.005995 0.400000 -0.008252
v 0.000000 0.400000 -0.010200
v -0.005995 0.400000 -0.008252
v -0.009701 0.400000 -0.003152
v -0.009701 0.400000 0.003152
v -0.005995 0.400000 0.008252
f 1 2 12
f 1 12 11
f 2 3 13
f 2 13 12
f 3 4 14
f 3 14 13
f 4 5 15
f 4 15 14
f 5 6 16
f 5 16 15
f 6 7 17
f 6 17 16
f 7 8 18
f 7 18 17
f 8 9 19
f 8 19 18
f 9 10 20
f 9 20 19
f 10 1 11
f 10 11 20
v -0.001352 0.400000 0.010110
v 0.003087 0.404261 0.008738
v 0.006347 0.406894 0.004029
v 0.007182 0.406894 -0.002219
v 0.005275 0.404261 -0.007620
v 0.001352 0.400000 -0.010110
v -0.003087 0.395739 -0.008738
v -0.006347 0.393106 -0.004029
v -0.007182 0.393106 0.002219
v -0.005275 0.395739 0.007620
v -0.210681 0.609501 -0.021183
v -0.207663 0.612399 -0.022115
v -0.205446 0.614189 -0.025318
v -0.204878 0.614189 -0.029567
v -0.206175 0.612399 -0.033239
v -0.208842 0.609501 -0.034932
v -0.211861 0.606604 -0.033999
v -0.214077 0.604814 -0.030797
v -0.214646 0.604814 -0.026548
v -0.213349 0.606604 -0.022876
f 21 22 32
f 21 32 31
f 22 23 33
f 22 33 32
f 23 24 34
f 23 34 33
f 24 25 35
f 24 35 34
f 25 26 36
f 25 36 35
f 26 27 37
f 26 37 36
f 27 28 38
f 27 38 37
f 28 29 39
f 28 39 38
f 29 30 40
f 29 40 39
f 30 21 31
f 30 31 40
v -0.212518 0.609501 -0.021693
v -0.212957 0.613440 -0.023326
v -0.212175 0.615875 -0.026767
v -0.210472 0.615875 -0.030701
v -0.208497 0.613440 -0.033625
v -0.207005 0.609501 -0.034422
v -0.206566 0.605563 -0.032789
v -0.207348 0.603128 -0.029348
v -0.209052 0.603128 -0.025414
v -0.211026 0.605563 -0.022490
v -0.419319 0.549056 -0.113672
v -0.419618 0.551734 -0.114783
v -0.419086 0.553389 -0.117123
v -0.417928 0.553389 -0.119798
v -0.416585 0.551734 -0.121786
v -0.415571 0.549056 -0.122328
v -0.415272 0.546377 -0.121217
v -0.415804 0.544722 -0.118878
v -0.416962 0.544722 -0.116203
v -0.418305 0.546377 -0.114215
f 41 42 52
f 41 52 51
f 42 43 53
f 42 53 52
f 43 44 54
f 43 54 53
f 44 45 55
f 44 55 54
f 45 46 56
f 45 56 55
f 46 47 57
f 46 57 56
f 47 48 58
f 47 58 57
f 48 49 59
f 48 59 58
f 49 50 60
f 49 60 59
f 50 41 51
f 50 51 60
v -0.417445 0.548627 -0.122697
v -0.414778 0.547958 -0.121732
v -0.413129 0.547707 -0.119341
v -0.413129 0.547972 -0.116438
v -0.414778 0.548650 -0.114132
v -0.417445 0.549484 -0.113303
v -0.420113 0.550153 -0.114269
v -0.421761 0.550404 -0.116660
v -0.421761 0.550139 -0.119563
v -0.420113 0.549461 -0.121869
v -0.464675 0.382502 -0.106038
v -0.462861 0.382046 -0.105382
v -0.461740 0.381876 -0.103756
v -0.461740 0.382056 -0.101782
v -0.462861 0.382518 -0.100214
v -0.464675 0.383084 -0.099651
v -0.466489 0.383540 -0.100307
v -0.467610 0.383710 -0.101933
v -0.467610 0.383530 -0.103907
v -0.466489 0.383069 -0.105475
f 61 62 72
f 61 72 71
f 62 63 73
f 62 73 72
f 63 64 74
f 63 74 73
f 64 65 75
f 64 75 74
f 65 66 76
f 65 76 75
f 66 67 77
f 66 77 76
f 67 68 78
f 67 78 77
f 68 69 79
f 68 79 78
f 69 70 80
f 69 80 79
f 70 61 71
f 70 71 80
v -0.464675 0.382793 -0.102845
v -0.464771 0.383327 -0.106039
v -0.463962 0.383580 -0.109505
v -0.462448 0.383612 -0.113184
v -0.460419 0.383485 -0.117017
v -0.458077 0.383260 -0.120944
v -0.455638 0.383004 -0.124900
v -0.453315 0.382785 -0.128822
v -0.451312 0.382665 -0.132647
v -0.449807 0.382701 -0.136323
v -0.448947 0.382937 -0.139805
v -0.448832 0.383406 -0.143062
v -0.449516 0.384123 -0.146080
v -0.450998 0.385089 -0.148858
v -0.453226 0.386287 -0.151411
v -0.456098 0.387686 -0.153771
v -0.459468 0.389240 -0.155981
v -0.463158 0.390894 -0.158095
v -0.466965 0.392584 -0.160174
v -0.470674 0.394243 -0.162283
v -0.474070 0.395806 -0.164485
v -0.476952 0.397208 -0.166842
v -0.479129 0.398390 -0.169411
v -0.480400 0.399290 -0.172252
v -0.480304 0.398756 -0.169058
v -0.481113 0.398504 -0.165591
v -0.482627 0.398471 -0.161913
v -0.484657 0.398599 -0.158080
v -0.486998 0.398824 -0.154153
v -0.489437 0.399079 -0.150196
v -0.491760 0.399298 -0.146275
v -0.493763 0.399418 -0.142450
v -0.495268 0.399382 -0.138774
v -0.496128 0.399146 -0.135292
v -0.496243 0.398677 -0.132034
v -0.495560 0.397960 -0.129017
v -0.494077 0.396994 -0.126239
v -0.491849 0.395796 -0.123686
v -0.488977 0.394397 -0.121326
v -0.485607 0.392843 -0.119115
v -0.481917 0.391189 -0.117001
v -0.478110 0.389499 -0.114922
v -0.474401 0.387840 -0.112814
v -0.471005 0.386277 -0.110612
v -0.468123 0.384876 -0.108255
v -0.465946 0.383693 -0.105686
f 81 82 83
f 81 83 82
f 81 83 84
f 81 84 83
f 81 84 85
f 81 85 84
f 81 85 86
f 81 86 85
f 81 86 87
f 81 87 86
f 81 87 88
f 81 88 87
f 81 88 89
f 81 89 88
f 81 89 90
f 81 90 89
f 81 90 91
f 81 91 90
f 81 91 92
f 81 92 91
f 81 92 93
f 81 93 92
f 81 93 94
f 81 94 93
f 81 94 95
f 81 95 94
f 81 95 96
f 81 96 95
f 81 96 97
f 81 97 96
f 81 97 98
f 81 98 97
f 81 98 99
f 81 99 98
f 81 99 100
f 81 100 99
f 81 100 101
f 81 101 100
f 81 101 102
f 81 102 101
f 81 102 103
f 81 103 102
f 81 103 104
f 81 104 103
f 81 104 105
f 81 105 104
f 81 105 106
f 81 106 105
f 81 106 107
f 81 107 106
f 81 107 108
f 81 108 107
f 81 108 109
f 81 109 108
f 81 109 110
f 81 110 109
f 81 110 111
f 81 111 110
f 81 111 112
f 81 112 111
f 81 112 113
f 81 113 112
f 81 113 114
f 81 114 113
f 81 114 115
f 81 115 114
f 81 115 116
f 81 116 115
f 81 116 117
f 81 117 116
f 81 117 118
f 81 118 117
f 81 118 119
f 81 119 118
f 81 119 120
f 81 120 119
f 81 120 121
f 81 121 120
f 81 121 122
f 81 122 121
f 81 122 123
f 81 123 122
f 81 123 124
f 81 124 123
f 81 124 125
f 81 125 124
f 81 125 126
f 81 126 125
v -0.464675 0.382793 -0.102845
v -0.461465 0.383205 -0.102005
v -0.458385 0.383704 -0.100615
v -0.455490 0.384327 -0.098440
v -0.452796 0.385084 -0.095415
v -0.450282 0.385963 -0.091627
v -0.447896 0.386927 -0.087293
v -0.445566 0.387929 -0.082728
v -0.443202 0.388908 -0.078302
v -0.440716 0.389805 -0.074394
v -0.438029 0.390567 -0.071342
v -0.435080 0.391154 -0.069397
v -0.431837 0.391544 -0.068693
v -0.428302 0.391738 -0.069231
v -0.424505 0.391757 -0.070876
v -0.420507 0.391640 -0.073377
v -0.416386 0.391442 -0.076396
v -0.412232 0.391221 -0.079554
v -0.408133 0.391037 -0.082481
v -0.404163 0.390939 -0.084862
v -0.400373 0.390962 -0.086480
v -0.396783 0.391120 -0.087248
v -0.393379 0.391401 -0.087230
v -0.390105 0.391770 -0.086663
v -0.393315 0.391359 -0.087502
v -0.396395 0.390860 -0.088892
v -0.399290 0.390237 -0.091067
v -0.401984 0.389479 -0.094092
v -0.404498 0.388601 -0.097880
v -0.406883 0.387636 -0.102214
v -0.409214 0.386635 -0.106780
v -0.411578 0.385655 -0.111205
v -0.414064 0.384758 -0.115113
v -0.416751 0.383996 -0.118165
v -0.419700 0.383409 -0.120111
v -0.422943 0.383019 -0.120814
v -0.426478 0.382825 -0.120276
v -0.430275 0.382807 -0.118631
v -0.434273 0.382923 -0.116130
v -0.438394 0.383122 -0.113112
v -0.442548 0.383342 -0.109953
v -0.446647 0.383527 -0.107026
v -0.450617 0.383624 -0.104645
v -0.454407 0.383601 -0.103027
v -0.457997 0.383444 -0.102259
v -0.461401 0.383162 -0.102277
f 127 128 129
f 127 129 128
f 127 129 130
f 127 130 129
f 127 130 131
f 127 131 130
f 127 131 132
f 127 132 131
f 127 132 133
f 127 133 132
f 127 133 134
f 127 134 133
f 127 134 135
f 127 135 134
f 127 135 136
f 127 136 135
f 127 136 137
f 127 137 136
f 127 137 138
f 127 138 137
f 127 138 139
f 127 139 138
f 127 139 140
f 127 140 139
f 127 140 141
f 127 141 140
f 127 141 142
f 127 142 141
f 127 142 143
f 127 143 142
f 127 143 144
f 127 144 143
f 127 144 145
f 127 145 144
f 127 145 146
f 127 146 145
f 127 146 147
f 127 147 146
f 127 147 148
f 127 148 147
f 127 148 149
f 127 149 148
f 127 149 150
f 127 150 149
f 127 150 151
f 127 151 150
f 127 151 152
f 127 152 151
f 127 152 153
f 127 153 152
f 127 153 154
f 127 154 153
f 127 154 155
f 127 155 154
f 127 155 156
f 127 156 155
f 127 156 157
f 127 157 156
f 127 157 158
f 127 158 157
f 127 158 159
f 127 159 158
f 127 159 160
f 127 160 159
f 127 160 161
f 127 161 160
f 127 161 162
f 127 162 161
f 127 162 163
f 127 163 162
f 127 163 164
f 127 164 163
f 127 164 165
f 127 165 164
f 127 165 166
f 127 166 165
f 127 166 167
f 127 167 166
f 127 167 168
f 127 168 167
f 127 168 169
f 127 169 168
f 127 169 170
f 127 170 169
f 127 170 171
f 127 171 170
f 127 171 172
f 127 172 171
v -0.464675 0.382793 -0.102845
v -0.466473 0.384867 -0.102961
v -0.468497 0.386930 -0.103891
v -0.470693 0.388986 -0.105437
v -0.473012 0.391037 -0.107429
v -0.475405 0.393085 -0.109683
v -0.477818 0.395131 -0.112012
v -0.480201 0.397179 -0.114229
v -0.482503 0.399231 -0.116159
v -0.484682 0.401288 -0.117646
v -0.486704 0.403352 -0.118567
v -0.488544 0.405423 -0.118834
v -0.490189 0.407503 -0.118402
v -0.491639 0.409592 -0.117270
v -0.492907 0.411688 -0.115483
v -0.494018 0.413792 -0.113130
v -0.495005 0.415901 -0.110335
v -0.495912 0.418013 -0.107253
v -0.496789 0.420126 -0.104059
v -0.497686 0.422239 -0.100939
v -0.498656 0.424348 -0.098083
v -0.499751 0.426452 -0.095671
v -0.501016 0.428549 -0.093877
v -0.502508 0.430636 -0.092895
v -0.500711 0.428562 -0.092778
v -0.498687 0.426499 -0.091848
v -0.496491 0.424442 -0.090302
v -0.494172 0.422392 -0.088311
v -0.491779 0.420344 -0.086056
v -0.489365 0.418297 -0.083727
v -0.486983 0.416249 -0.081510
v -0.484681 0.414198 -0.079581
v -0.482501 0.412141 -0.078093
v -0.480480 0.410077 -0.077172
v -0.478640 0.408006 -0.076905
v -0.476995 0.405925 -0.077338
v -0.475545 0.403837 -0.078470
v -0.474277 0.401740 -0.080256
v -0.473166 0.399637 -0.082609
v -0.472179 0.397528 -0.085404
v -0.471271 0.395416 -0.088486
v -0.470395 0.393303 -0.091680
v -0.469498 0.391190 -0.094800
v -0.468527 0.389080 -0.097656
v -0.467433 0.386976 -0.100068
v -0.466167 0.384880 -0.101863
f 173 174 175
f 173 175 174
f 173 175 176
f 173 176 175
f 173 176 177
f 173 177 176
f 173 177 178
f 173 178 177
f 173 178 179
f 173 179 178
f 173 179 180
f 173 180 179
f 173 180 181
f 173 181 180
f 173 181 182
f 173 182 181
f 173 182 183
f 173 183 182
f 173 183 184
f 173 184 183
f 173 184 185
f 173 185 184
f 173 185 186
f 173 186 185
f 173 186 187
f 173 187 186
f 173 187 188
f 173 188 187
f 173 188 189
f 173 189 188
f 173 189 190
f 173 190 189
f 173 190 191
f 173 191 190
f 173 191 192
f 173 192 191
f 173 192 193
f 173 193 192
f 173 193 194
f 173 194 193
f 173 194 195
f 173 195 194
f 173 195 196
f 173 196 195
f 173 196 197
f 173 197 196
f 173 197 198
f 173 198 197
f 173 198 199
f 173 199 198
f 173 199 200
f 173 200 199
f 173 200 201
f 173 201 200
f 173 201 202
f 173 202 201
f 173 202 203
f 173 203 202
f 173 203 204
f 173 204 203
f 173 204 205
f 173 205 204
f 173 205 206
f 173 206 205
f 173 206 207
f 173 207 206
f 173 207 208
f 173 208 207
f 173 208 209
f 173 209 208
f 173 209 210
f 173 210 209
f 173 210 211
f 173 211 210
f 173 211 212
f 173 212 211
f 173 212 213
f 173 213 212
f 173 213 214
f 173 214 213
f 173 214 215
f 173 215 214
f 173 215 216
f 173 216 215
f 173 216 217
f 173 217 216
f 173 217 218
f 173 218 217
v 0.001659 0.400000 -0.010064
v -0.001305 0.405361 -0.008579
v -0.003771 0.408675 -0.003816
v -0.004797 0.408675 0.002404
v -0.003990 0.405361 0.007706
v -0.001659 0.400000 0.010064
v 0.001305 0.394639 0.008579
v 0.003771 0.391325 0.003816
v 0.004797 0.391325 -0.002404
v 0.003990 0.394639 -0.007706
v 0.301909 0.552571 0.042740
v 0.299894 0.556217 0.043751
v 0.298217 0.558470 0.046989
v 0.297520 0.558470 0.051218
v 0.298068 0.556217 0.054824
v 0.299653 0.552571 0.056428
v 0.301669 0.548925 0.055417
v 0.303346 0.546672 0.052179
v 0.304043 0.546672 0.047949
v 0.303494 0.548925 0.044344
f 219 220 230
f 219 230 229
f 220 221 231
f 220 231 230
f 221 222 232
f 221 232 231
f 222 223 233
f 222 233 232
f 223 224 234
f 223 234 233
f 224 225 235
f 224 235 234
f 225 226 236
f 225 236 235
f 226 227 237
f 226 237 236
f 227 228 238
f 227 238 237
f 228 219 229
f 228 229 238
v 0.301698 0.552571 0.042709
v 0.302672 0.556480 0.044175
v 0.302924 0.558895 0.047707
v 0.302357 0.558895 0.051956
v 0.301188 0.556480 0.055299
v 0.299864 0.552571 0.056459
v 0.298890 0.548662 0.054993
v 0.298639 0.546247 0.051461
v 0.299206 0.546247 0.047211
v 0.300374 0.548662 0.043869
v 0.572031 0.471607 0.081002
v 0.572693 0.474265 0.081999
v 0.572864 0.475907 0.084401
v 0.572479 0.475907 0.087290
v 0.571684 0.474265 0.089563
v 0.570784 0.471607 0.090352
v 0.570122 0.468949 0.089355
v 0.569951 0.467306 0.086953
v 0.570336 0.467306 0.084063
v 0.571130 0.468949 0.081790
f 239 240 250
f 239 250 249
f 240 241 251
f 240 251 250
f 241 242 252
f 241 252 251
f 242 243 253
f 242 253 252
f 243 244 254
f 243 254 253
f 244 245 255
f 244 255 254
f 245 246 256
f 245 256 255
f 246 247 257
f 246 257 256
f 247 248 258
f 247 258 257
f 248 239 249
f 248 249 258
v 0.573636 0.471607 0.081520
v 0.575292 0.473059 0.083430
v 0.575464 0.473956 0.086198
v 0.574086 0.473956 0.088767
v 0.571686 0.473059 0.090156
v 0.569178 0.471607 0.089833
v 0.567523 0.470155 0.087923
v 0.567351 0.469258 0.085155
v 0.568728 0.469258 0.082586
v 0.571129 0.470155 0.081198
v 0.675069 0.283053 0.137624
v 0.676195 0.284040 0.138922
v 0.676312 0.284650 0.140805
v 0.675375 0.284650 0.142551
v 0.673743 0.284040 0.143496
v 0.672038 0.283053 0.143277
v 0.670912 0.282066 0.141978
v 0.670795 0.281456 0.140095
v 0.671732 0.281456 0.138349
v 0.673364 0.282066 0.137404
f 259 260 270
f 259 270 269
f 260 261 271
f 260 271 270
f 261 262 272
f 261 272 271
f 262 263 273
f 262 273 272
f 263 264 274
f 263 274 273
f 264 265 275
f 264 275 274
f 265 266 276
f 265 276 275
f 266 267 277
f 266 277 276
f 267 268 278
f 267 278 277
f 268 259 269
f 268 269 278
v 0.673553 0.283053 0.140450
v 0.675099 0.284020 0.138700
v 0.676920 0.285234 0.137289
v 0.679094 0.286766 0.136311
v 0.681623 0.288616 0.135768
v 0.684453 0.290736 0.135593
v 0.687481 0.293034 0.135663
v 0.690575 0.295392 0.135813
v 0.693587 0.297676 0.135862
v 0.696368 0.299752 0.135628
v 0.698790 0.301507 0.134954
v 0.700759 0.302853 0.133724
v 0.702223 0.303748 0.131875
v 0.703184 0.304189 0.129408
v 0.703691 0.304224 0.126385
v 0.703839 0.303936 0.122921
v 0.703757 0.303441 0.119175
v 0.703592 0.302871 0.115327
v 0.703492 0.302361 0.111560
v 0.703592 0.302030 0.108037
v 0.703993 0.301968 0.104883
v 0.704748 0.302225 0.102164
v 0.705856 0.302799 0.099878
v 0.707239 0.303621 0.097930
v 0.705694 0.302654 0.099680
v 0.703873 0.301439 0.101091
v 0.701699 0.299908 0.102069
v 0.699170 0.298058 0.102612
v 0.696340 0.295938 0.102787
v 0.693312 0.293639 0.102717
v 0.690217 0.291281 0.102567
v 0.687206 0.288998 0.102518
v 0.684425 0.286921 0.102752
v 0.682003 0.285167 0.103426
v 0.680034 0.283820 0.104656
v 0.678570 0.282926 0.106505
v 0.677609 0.282484 0.108972
v 0.677102 0.282450 0.111995
v 0.676954 0.282738 0.115459
v 0.677036 0.283233 0.119205
v 0.677201 0.283802 0.123053
v 0.677300 0.284313 0.126820
v 0.677200 0.284644 0.130343
v 0.676800 0.284706 0.133497
v 0.676045 0.284448 0.136216
v 0.674937 0.283875 0.138502
f 279 280 281
f 279 281 280
f 279 281 282
f 279 282 281
f 279 282 283
f 279 283 282
f 279 283 284
f 279 284 283
f 279 284 285
f 279 285 284
f 279 285 286
f 279 286 285
f 279 286 287
f 279 287 286
f 279 287 288
f 279 288 287
f 279 288 289
f 279 289 288
f 279 289 290
f 279 290 289
f 279 290 291
f 279 291 290
f 279 291 292
f 279 292 291
f 279 292 293
f 279 293 292
f 279 293 294
f 279 294 293
f 279 294 295
f 279 295 294
f 279 295 296
f 279 296 295
f 279 296 297
f 279 297 296
f 279 297 298
f 279 298 297
f 279 298 299
f 279 299 298
f 279 299 300
f 279 300 299
f 279 300 301
f 279 301 300
f 279 301 302
f 279 302 301
f 279 302 303
f 279 303 302
f 279 303 304
f 279 304 303
f 279 304 305
f 279 305 304
f 279 305 306
f 279 306 305
f 279 306 307
f 279 307 306
f 279 307 308
f 279 308 307
f 279 308 309
f 279 309 308
f 279 309 310
f 279 310 309
f 279 310 311
f 279 311 310
f 279 311 312
f 279 312 311
f 279 312 313
f 279 313 312
f 279 313 314
f 279 314 313
f 279 314 315
f 279 315 314
f 279 315 316
f 279 316 315
f 279 316 317
f 279 317 316
f 279 317 318
f 279 318 317
f 279 318 319
f 279 319 318
f 279 319 320
f 279 320 319
f 279 320 321
f 279 321 320
f 279 321 322
f 279 322 321
f 279 322 323
f 279 323 322
f 279 323 324
f 279 324 323
v 0.673553 0.283053 0.140450
v 0.671115 0.283469 0.141789
v 0.668269 0.283529 0.142659
v 0.665010 0.283224 0.143049
v 0.661388 0.282603 0.143021
v 0.657499 0.281746 0.142683
v 0.653465 0.280762 0.142178
v 0.649426 0.279774 0.141667
v 0.645525 0.278907 0.141316
v 0.641897 0.278279 0.141279
v 0.638653 0.277989 0.141688
v 0.635875 0.278108 0.142635
v 0.633605 0.278672 0.144170
v 0.631844 0.279683 0.146292
v 0.630548 0.281102 0.148953
v 0.629637 0.282859 0.152058
v 0.628998 0.284855 0.155479
v 0.628498 0.286973 0.159059
v 0.627993 0.289086 0.162633
v 0.627343 0.291071 0.166041
v 0.626425 0.292822 0.169138
v 0.625145 0.294256 0.171817
v 0.623451 0.295325 0.174017
v 0.621350 0.296038 0.175747
v 0.623788 0.295622 0.174408
v 0.626634 0.295562 0.173539
v 0.629894 0.295867 0.173149
v 0.633515 0.296488 0.173177
v 0.637404 0.297345 0.173514
v 0.641438 0.298329 0.174020
v 0.645477 0.299317 0.174531
v 0.649378 0.300184 0.174882
v 0.653007 0.300812 0.174918
v 0.656250 0.301102 0.174509
v 0.659028 0.300983 0.173562
v 0.661298 0.300419 0.172027
v 0.663060 0.299408 0.169905
v 0.664355 0.297989 0.167245
v 0.665266 0.296232 0.164139
v 0.665905 0.294236 0.160719
v 0.666405 0.292118 0.157138
v 0.666911 0.290005 0.153564
v 0.667561 0.288020 0.150157
v 0.668479 0.286269 0.147059
v 0.669758 0.284835 0.144380
v 0.671453 0.283766 0.142180
f 325 326 327
f 325 327 326
f 325 327 328
f 325 328 327
f 325 328 329
f 325 329 328
f 325 329 330
f 325 330 329
f 325 330 331
f 325 331 330
f 325 331 332
f 325 332 331
f 325 332 333
f 325 333 332
f 325 333 334
f 325 334 333
f 325 334 335
f 325 335 334
f 325 335 336
f 325 336 335
f 325 336 337
f 325 337 336
f 325 337 338
f 325 338 337
f 325 338 339
f 325 339 338
f 325 339 340
f 325 340 339
f 325 340 341
f 325 341 340
f 325 341 342
f 325 342 341
f 325 342 343
f 325 343 342
f 325 343 344
f 325 344 343
f 325 344 345
f 325 345 344
f 325 345 346
f 325 346 345
f 325 346 347
f 325 347 346
f 325 347 348
f 325 348 347
f 325 348 349
f 325 349 348
f 325 349 350
f 325 350 349
f 325 350 351
f 325 351 350
f 325 351 352
f 325 352 351
f 325 352 353
f 325 353 352
f 325 353 354
f 325 354 353
f 325 354 355
f 325 355 354
f 325 355 356
f 325 356 355
f 325 356 357
f 325 357 356
f 325 357 358
f 325 358 357
f 325 358 359
f 325 359 358
f 325 359 360
f 325 360 359
f 325 360 361
f 325 361 360
f 325 361 362
f 325 362 361
f 325 362 363
f 325 363 362
f 325 363 364
f 325 364 363
f 325 364 365
f 325 365 364
f 325 365 366
f 325 366 365
f 325 366 367
f 325 367 366
f 325 367 368
f 325 368 367
f 325 368 369
f 325 369 368
f 325 369 370
f 325 370 369
