o mesh
v 0.000000 0.000000 0.015000
v 0.008817 0.000000 0.012135
v 0.014266 0.000000 0.004635
v 0.014266 0.000000 -0.004635
v 0.008817 0.000000 -0.012135
v 0.000000 0.000000 -0.015000
v -0.008817 0.000000 -0.012135
v -0.014266 0.000000 -0.004635
v -0.014266 0.000000 0.004635
v -0.008817 0.000000 0.012135
v 0.000000 0.400000 0.010200
v 0.005995 0.400000 0.008252
v 0.009701 0.400000 0.003152
v 0.009701 0.400000 -0.003152
v 0.005995 0.400000 -0.008252
v 0.000000 0.400000 -0.010200
v -0.005995 0.400000 -0.008252
v -0.009701 0.400000 -0.003152
v -0.009701 0.400000 0.003152
v -0.005995 0.400000 0.008252
f 1 2 12
f 1 12 11
f 2 3 13
f 2 13 12
f 3 4 14
f 3 14 13
f 4 5 15
f 4 15 14
f 5 6 16
f 5 16 15
f 6 7 17
f 6 17 16
f 7 8 18
f 7 18 17
f 8 9 19
f 8 19 18
f 9 10 20
f 9 20 19
f 10 1 11
f 10 11 20
v 0.002219 0.400000 0.009956
v 0.005919 0.404254 0.007135
v 0.007358 0.406883 0.001590
v 0.005987 0.406883 -0.004563
v 0.002329 0.404254 -0.008973
v -0.002219 0.400000 -0.009956
v -0.005919 0.395746 -0.007135
v -0.007358 0.393117 -0.001590
v -0.005987 0.393117 0.004563
v -0.002329 0.395746 0.008973
v -0.232700 0.638311 0.058967
v -0.230184 0.641203 0.057049
v -0.229206 0.642991 0.053277
v -0.230138 0.642991 0.049093
v -0.232626 0.641203 0.046095
v -0.235718 0.638311 0.045427
v -0.238234 0.635418 0.047345
v -0.239212 0.633630 0.051116
v -0.238280 0.633630 0.055300
v -0.235793 0.635418 0.058298
f 21 22 32
f 21 32 31
f 22 23 33
f 22 33 32
f 23 24 34
f 23 34 33
f 24 25 35
f 24 35 34
f 25 26 36
f 25 36 35
f 26 27 37
f 26 37 36
f 27 28 38
f 27 38 37
f 28 29 39
f 28 39 38
f 29 30 40
f 29 40 39
f 30 21 31
f 30 31 40
v -0.233559 0.638311 0.059102
v -0.233670 0.642387 0.057782
v -0.233988 0.644907 0.054329
v -0.234389 0.644907 0.050061
v -0.234723 0.642387 0.046609
v -0.234859 0.638311 0.045291
v -0.234748 0.634234 0.046611
v -0.234431 0.631714 0.050065
v -0.234029 0.631714 0.054332
v -0.233696 0.634234 0.057784
v -0.510628 0.639183 0.082966
v -0.510704 0.641955 0.082069
v -0.510920 0.643669 0.079720
v -0.511193 0.643669 0.076818
v -0.511420 0.641955 0.074471
v -0.511513 0.639183 0.073575
v -0.511437 0.636411 0.074472
v -0.511221 0.634697 0.076821
v -0.510948 0.634697 0.079723
v -0.510721 0.636411 0.082070
f 41 42 52
f 41 52 51
f 42 43 53
f 42 53 52
f 43 44 54
f 43 54 53
f 44 45 55
f 44 55 54
f 45 46 56
f 45 56 55
f 46 47 57
f 46 57 56
f 47 48 58
f 47 58 57
f 48 49 59
f 48 59 58
f 49 50 60
f 49 60 59
f 50 41 51
f 50 51 60
v -0.510426 0.639183 0.082943
v -0.512744 0.640849 0.082353
v -0.514423 0.641879 0.080204
v -0.514821 0.641879 0.077317
v -0.513787 0.640849 0.074793
v -0.511715 0.639183 0.073598
v -0.509397 0.637517 0.074188
v -0.507718 0.636487 0.076337
v -0.507320 0.636487 0.079224
v -0.508354 0.637517 0.081748
v -0.653165 0.447821 0.101109
v -0.654742 0.448954 0.100709
v -0.655883 0.449655 0.099247
v -0.656154 0.449655 0.097284
v -0.655451 0.448954 0.095568
v -0.654042 0.447821 0.094755
v -0.652466 0.446689 0.095156
v -0.651324 0.445988 0.096617
v -0.651053 0.445988 0.098581
v -0.651756 0.446689 0.100297
f 61 62 72
f 61 72 71
f 62 63 73
f 62 73 72
f 63 64 74
f 63 74 73
f 64 65 75
f 64 75 74
f 65 66 76
f 65 76 75
f 66 67 77
f 66 77 76
f 67 68 78
f 67 78 77
f 68 69 79
f 68 79 78
f 69 70 80
f 69 80 79
f 70 61 71
f 70 71 80
v -0.653604 0.447821 0.097932
v -0.653140 0.449214 0.099966
v -0.653128 0.450936 0.101930
v -0.653638 0.453038 0.103815
v -0.654639 0.455498 0.105624
v -0.656032 0.458245 0.107373
v -0.657666 0.461166 0.109085
v -0.659353 0.464127 0.110789
v -0.660894 0.466981 0.112515
v -0.662095 0.469587 0.114293
v -0.662792 0.471825 0.116149
v -0.662863 0.473608 0.118101
v -0.662245 0.474888 0.120158
v -0.660938 0.475666 0.122321
v -0.659006 0.475988 0.124580
v -0.656570 0.475942 0.126917
v -0.653794 0.475648 0.129305
v -0.650871 0.475247 0.131716
v -0.648001 0.474886 0.134119
v -0.645372 0.474700 0.136484
v -0.643136 0.474800 0.138790
v -0.641391 0.475258 0.141020
v -0.640167 0.476096 0.143171
v -0.639395 0.477264 0.145252
v -0.639858 0.475871 0.143218
v -0.639870 0.474149 0.141253
v -0.639361 0.472048 0.139369
v -0.638360 0.469587 0.137560
v -0.636966 0.466841 0.135811
v -0.635333 0.463919 0.134099
v -0.633645 0.460958 0.132395
v -0.632104 0.458104 0.130669
v -0.630903 0.455498 0.128890
v -0.630207 0.453260 0.127035
v -0.630136 0.451478 0.125083
v -0.630754 0.450198 0.123026
v -0.632060 0.449420 0.120863
v -0.633992 0.449098 0.118604
v -0.636429 0.449144 0.116267
v -0.639205 0.449437 0.113879
v -0.642128 0.449838 0.111468
v -0.644997 0.450199 0.109065
v -0.647627 0.450386 0.106699
v -0.649863 0.450286 0.104394
v -0.651608 0.449827 0.102164
v -0.652831 0.448989 0.100013
f 81 82 83
f 81 83 82
f 81 83 84
f 81 84 83
f 81 84 85
f 81 85 84
f 81 85 86
f 81 86 85
f 81 86 87
f 81 87 86
f 81 87 88
f 81 88 87
f 81 88 89
f 81 89 88
f 81 89 90
f 81 90 89
f 81 90 91
f 81 91 90
f 81 91 92
f 81 92 91
f 81 92 93
f 81 93 92
f 81 93 94
f 81 94 93
f 81 94 95
f 81 95 94
f 81 95 96
f 81 96 95
f 81 96 97
f 81 97 96
f 81 97 98
f 81 98 97
f 81 98 99
f 81 99 98
f 81 99 100
f 81 100 99
f 81 100 101
f 81 101 100
f 81 101 102
f 81 102 101
f 81 102 103
f 81 103 102
f 81 103 104
f 81 104 103
f 81 104 105
f 81 105 104
f 81 105 106
f 81 106 105
f 81 106 107
f 81 107 106
f 81 107 108
f 81 108 107
f 81 108 109
f 81 109 108
f 81 109 110
f 81 110 109
f 81 110 111
f 81 111 110
f 81 111 112
f 81 112 111
f 81 112 113
f 81 113 112
f 81 113 114
f 81 114 113
f 81 114 115
f 81 115 114
f 81 115 116
f 81 116 115
f 81 116 117
f 81 117 116
f 81 117 118
f 81 118 117
f 81 118 119
f 81 119 118
f 81 119 120
f 81 120 119
f 81 120 121
f 81 121 120
f 81 121 122
f 81 122 121
f 81 122 123
f 81 123 122
f 81 123 124
f 81 124 123
f 81 124 125
f 81 125 124
f 81 125 126
f 81 126 125
v -0.653604 0.447821 0.097932
v -0.654655 0.449919 0.096105
v -0.655406 0.451727 0.093637
v -0.655854 0.453243 0.090522
v -0.656039 0.454505 0.086847
v -0.656030 0.455581 0.082759
v -0.655919 0.456558 0.078452
v -0.655806 0.457533 0.074141
v -0.655795 0.458607 0.070049
v -0.655984 0.459873 0.066383
v -0.656454 0.461410 0.063315
v -0.657263 0.463273 0.060970
v -0.658441 0.465493 0.059413
v -0.659990 0.468070 0.058645
v -0.661877 0.470974 0.058601
v -0.664045 0.474148 0.059154
v -0.666413 0.477514 0.060133
v -0.668883 0.480979 0.061331
v -0.671352 0.484443 0.062525
v -0.673718 0.487807 0.063500
v -0.675890 0.490985 0.064062
v -0.677800 0.493910 0.064064
v -0.679406 0.496543 0.063420
v -0.680712 0.498885 0.062134
v -0.679660 0.496787 0.063961
v -0.678909 0.494980 0.066430
v -0.678461 0.493464 0.069545
v -0.678276 0.492202 0.073220
v -0.678285 0.491126 0.077307
v -0.678396 0.490149 0.081615
v -0.678510 0.489174 0.085925
v -0.678520 0.488100 0.090017
v -0.678331 0.486834 0.093684
v -0.677861 0.485297 0.096752
v -0.677053 0.483433 0.099097
v -0.675874 0.481213 0.100653
v -0.674326 0.478637 0.101421
v -0.672438 0.475733 0.101466
v -0.670270 0.472559 0.100912
v -0.667902 0.469193 0.099933
v -0.665432 0.465727 0.098736
v -0.662963 0.462264 0.097541
v -0.660597 0.458899 0.096567
v -0.658425 0.455721 0.096004
v -0.656516 0.452797 0.096002
v -0.654909 0.450164 0.096647
f 127 128 129
f 127 129 128
f 127 129 130
f 127 130 129
f 127 130 131
f 127 131 130
f 127 131 132
f 127 132 131
f 127 132 133
f 127 133 132
f 127 133 134
f 127 134 133
f 127 134 135
f 127 135 134
f 127 135 136
f 127 136 135
f 127 136 137
f 127 137 136
f 127 137 138
f 127 138 137
f 127 138 139
f 127 139 138
f 127 139 140
f 127 140 139
f 127 140 141
f 127 141 140
f 127 141 142
f 127 142 141
f 127 142 143
f 127 143 142
f 127 143 144
f 127 144 143
f 127 144 145
f 127 145 144
f 127 145 146
f 127 146 145
f 127 146 147
f 127 147 146
f 127 147 148
f 127 148 147
f 127 148 149
f 127 149 148
f 127 149 150
f 127 150 149
f 127 150 151
f 127 151 150
f 127 151 152
f 127 152 151
f 127 152 153
f 127 153 152
f 127 153 154
f 127 154 153
f 127 154 155
f 127 155 154
f 127 155 156
f 127 156 155
f 127 156 157
f 127 157 156
f 127 157 158
f 127 158 157
f 127 158 159
f 127 159 158
f 127 159 160
f 127 160 159
f 127 160 161
f 127 161 160
f 127 161 162
f 127 162 161
f 127 162 163
f 127 163 162
f 127 163 164
f 127 164 163
f 127 164 165
f 127 165 164
f 127 165 166
f 127 166 165
f 127 166 167
f 127 167 166
f 127 167 168
f 127 168 167
f 127 168 169
f 127 169 168
f 127 169 170
f 127 170 169
f 127 170 171
f 127 171 170
f 127 171 172
f 127 172 171
v -0.653604 0.447821 0.097932
v -0.651647 0.447881 0.096547
v -0.649488 0.447816 0.095423
v -0.647008 0.447555 0.094712
v -0.644160 0.447068 0.094478
v -0.640962 0.446368 0.094694
v -0.637498 0.445504 0.095254
v -0.633904 0.444561 0.095982
v -0.630348 0.443641 0.096661
v -0.627005 0.442852 0.097065
v -0.624037 0.442292 0.096985
v -0.621563 0.442034 0.096267
v -0.619650 0.442120 0.094826
v -0.618297 0.442549 0.092661
v -0.617439 0.443281 0.089857
v -0.616955 0.444241 0.086570
v -0.616684 0.445333 0.083008
v -0.616452 0.446448 0.079397
v -0.616089 0.447482 0.075954
v -0.615460 0.448355 0.072855
v -0.614482 0.449013 0.070206
v -0.613134 0.449445 0.068034
v -0.611467 0.449682 0.066274
v -0.609597 0.449794 0.064777
v -0.611554 0.449735 0.066163
v -0.613713 0.449799 0.067287
v -0.616192 0.450060 0.067998
v -0.619041 0.450547 0.068232
v -0.622239 0.451248 0.068015
v -0.625702 0.452111 0.067456
v -0.629296 0.453054 0.066728
v -0.632853 0.453974 0.066048
v -0.636195 0.454763 0.065645
v -0.639164 0.455324 0.065724
v -0.641637 0.455581 0.066442
v -0.643551 0.455495 0.067884
v -0.644904 0.455066 0.070049
v -0.645762 0.454335 0.072853
v -0.646246 0.453374 0.076139
v -0.646516 0.452282 0.079702
v -0.646749 0.451168 0.083312
v -0.647112 0.450133 0.086755
v -0.647741 0.449261 0.089855
v -0.648719 0.448602 0.092504
v -0.650066 0.448170 0.094676
v -0.651733 0.447934 0.096435
f 173 174 175
f 173 175 174
f 173 175 176
f 173 176 175
f 173 176 177
f 173 177 176
f 173 177 178
f 173 178 177
f 173 178 179
f 173 179 178
f 173 179 180
f 173 180 179
f 173 180 181
f 173 181 180
f 173 181 182
f 173 182 181
f 173 182 183
f 173 183 182
f 173 183 184
f 173 184 183
f 173 184 185
f 173 185 184
f 173 185 186
f 173 186 185
f 173 186 187
f 173 187 186
f 173 187 188
f 173 188 187
f 173 188 189
f 173 189 188
f 173 189 190
f 173 190 189
f 173 190 191
f 173 191 190
f 173 191 192
f 173 192 191
f 173 192 193
f 173 193 192
f 173 193 194
f 173 194 193
f 173 194 195
f 173 195 194
f 173 195 196
f 173 196 195
f 173 196 197
f 173 197 196
f 173 197 198
f 173 198 197
f 173 198 199
f 173 199 198
f 173 199 200
f 173 200 199
f 173 200 201
f 173 201 200
f 173 201 202
f 173 202 201
f 173 202 203
f 173 203 202
f 173 203 204
f 173 204 203
f 173 204 205
f 173 205 204
f 173 205 206
f 173 206 205
f 173 206 207
f 173 207 206
f 173 207 208
f 173 208 207
f 173 208 209
f 173 209 208
f 173 209 210
f 173 210 209
f 173 210 211
f 173 211 210
f 173 211 212
f 173 212 211
f 173 212 213
f 173 213 212
f 173 213 214
f 173 214 213
f 173 214 215
f 173 215 214
f 173 215 216
f 173 216 215
f 173 216 217
f 173 217 216
f 173 217 218
f 173 218 217
