o mesh
v 0.000000 0.000000 0.015000
v 0.010607 0.000000 0.010607
v 0.015000 0.000000 0.000000
v 0.010607 0.000000 -0.010607
v 0.000000 0.000000 -0.015000
v -0.010607 0.000000 -0.010607
v -0.015000 0.000000 -0.000000
v -0.010607 0.000000 0.010607
v 0.000000 0.040000 0.012000
v 0.008485 0.040000 0.008485
v 0.012000 0.040000 0.000000
v 0.008485 0.040000 -0.008485
v 0.000000 0.040000 -0.012000
v -0.008485 0.040000 -0.008485
v -0.012000 0.040000 -0.000000
v -0.008485 0.040000 0.008485
f 1 2 10
f 1 10 9
f 2 3 11
f 2 11 10
f 3 4 12
f 3 12 11
f 4 5 13
f 4 13 12
f 5 6 14
f 5 14 13
f 6 7 15
f 6 15 14
f 7 8 16
f 7 16 15
f 8 1 9
f 8 9 16
v 0.000000 0.040000 -0.000000
v 0.005707 0.027102 0.009247
v 0.014240 0.014204 0.018424
v 0.024008 0.001306 0.027569
v 0.034288 -0.011592 0.036702
v 0.044529 -0.024490 0.045835
v 0.054260 -0.037388 0.054982
v 0.063070 -0.050286 0.064151
v 0.070609 -0.063184 0.073352
v 0.076585 -0.076082 0.082593
v 0.080774 -0.088980 0.091878
v 0.083025 -0.101878 0.101212
v 0.083260 -0.114776 0.110596
v 0.081479 -0.127674 0.120031
v 0.077760 -0.140572 0.129514
v 0.072254 -0.153470 0.139042
v 0.065186 -0.166368 0.148609
v 0.056845 -0.179266 0.158208
v 0.047584 -0.192164 0.167830
v 0.037814 -0.205062 0.177465
v 0.028003 -0.217960 0.187101
v 0.018705 -0.230858 0.196724
v 0.010642 -0.243756 0.206316
v 0.005405 -0.256654 0.215837
v -0.000301 -0.243756 0.206590
v -0.008835 -0.230858 0.197413
v -0.018602 -0.217960 0.188268
v -0.028883 -0.205062 0.179135
v -0.039124 -0.192164 0.170002
v -0.048854 -0.179266 0.160855
v -0.057665 -0.166368 0.151686
v -0.065203 -0.153470 0.142484
v -0.071179 -0.140572 0.133244
v -0.075369 -0.127674 0.123959
v -0.077619 -0.114776 0.114625
v -0.077854 -0.101878 0.105241
v -0.076074 -0.088980 0.095806
v -0.072354 -0.076082 0.086323
v -0.066849 -0.063184 0.076795
v -0.059780 -0.050286 0.067228
v -0.051440 -0.037388 0.057629
v -0.042179 -0.024490 0.048007
v -0.032408 -0.011592 0.038372
v -0.022598 0.001306 0.028736
v -0.013300 0.014204 0.019113
v -0.005237 0.027102 0.009521
f 17 18 19
f 17 19 18
f 17 19 20
f 17 20 19
f 17 20 21
f 17 21 20
f 17 21 22
f 17 22 21
f 17 22 23
f 17 23 22
f 17 23 24
f 17 24 23
f 17 24 25
f 17 25 24
f 17 25 26
f 17 26 25
f 17 26 27
f 17 27 26
f 17 27 28
f 17 28 27
f 17 28 29
f 17 29 28
f 17 29 30
f 17 30 29
f 17 30 31
f 17 31 30
f 17 31 32
f 17 32 31
f 17 32 33
f 17 33 32
f 17 33 34
f 17 34 33
f 17 34 35
f 17 35 34
f 17 35 36
f 17 36 35
f 17 36 37
f 17 37 36
f 17 37 38
f 17 38 37
f 17 38 39
f 17 39 38
f 17 39 40
f 17 40 39
f 17 40 41
f 17 41 40
f 17 41 42
f 17 42 41
f 17 42 43
f 17 43 42
f 17 43 44
f 17 44 43
f 17 44 45
f 17 45 44
f 17 45 46
f 17 46 45
f 17 46 47
f 17 47 46
f 17 47 48
f 17 48 47
f 17 48 49
f 17 49 48
f 17 49 50
f 17 50 49
f 17 50 51
f 17 51 50
f 17 51 52
f 17 52 51
f 17 52 53
f 17 53 52
f 17 53 54
f 17 54 53
f 17 54 55
f 17 55 54
f 17 55 56
f 17 56 55
f 17 56 57
f 17 57 56
f 17 57 58
f 17 58 57
f 17 58 59
f 17 59 58
f 17 59 60
f 17 60 59
f 17 60 61
f 17 61 60
f 17 61 62
f 17 62 61
v 0.000000 0.040000 -0.000000
v 0.006316 0.030908 0.000870
v 0.013646 0.021815 -0.000261
v 0.021622 0.012723 -0.002666
v 0.030007 0.003631 -0.005876
v 0.038586 -0.005461 -0.009470
v 0.047156 -0.014554 -0.013047
v 0.055528 -0.023646 -0.016231
v 0.063529 -0.032738 -0.018685
v 0.071011 -0.041830 -0.020116
v 0.077859 -0.050923 -0.020295
v 0.083991 -0.060015 -0.019063
v 0.089367 -0.069107 -0.016338
v 0.093985 -0.078199 -0.012119
v 0.097887 -0.087292 -0.006490
v 0.101155 -0.096384 0.000392
v 0.103905 -0.105476 0.008296
v 0.106284 -0.114568 0.016931
v 0.108463 -0.123661 0.025959
v 0.110635 -0.132753 0.035003
v 0.113001 -0.141845 0.043664
v 0.115775 -0.150937 0.051519
v 0.119195 -0.160030 0.058101
v 0.123629 -0.169122 0.062681
v 0.117313 -0.160030 0.061812
v 0.109983 -0.150937 0.062942
v 0.102007 -0.141845 0.065347
v 0.093623 -0.132753 0.068557
v 0.085043 -0.123661 0.072151
v 0.076473 -0.114568 0.075728
v 0.068101 -0.105476 0.078913
v 0.060101 -0.096384 0.081366
v 0.052618 -0.087292 0.082797
v 0.045770 -0.078199 0.082977
v 0.039638 -0.069107 0.081744
v 0.034263 -0.060015 0.079019
v 0.029645 -0.050923 0.074801
v 0.025742 -0.041830 0.069171
v 0.022474 -0.032738 0.062289
v 0.019725 -0.023646 0.054385
v 0.017346 -0.014554 0.045750
v 0.015166 -0.005461 0.036723
v 0.012995 0.003631 0.027678
v 0.010629 0.012723 0.019017
v 0.007855 0.021815 0.011162
v 0.004434 0.030908 0.004581
f 63 64 65
f 63 65 64
f 63 65 66
f 63 66 65
f 63 66 67
f 63 67 66
f 63 67 68
f 63 68 67
f 63 68 69
f 63 69 68
f 63 69 70
f 63 70 69
f 63 70 71
f 63 71 70
f 63 71 72
f 63 72 71
f 63 72 73
f 63 73 72
f 63 73 74
f 63 74 73
f 63 74 75
f 63 75 74
f 63 75 76
f 63 76 75
f 63 76 77
f 63 77 76
f 63 77 78
f 63 78 77
f 63 78 79
f 63 79 78
f 63 79 80
f 63 80 79
f 63 80 81
f 63 81 80
f 63 81 82
f 63 82 81
f 63 82 83
f 63 83 82
f 63 83 84
f 63 84 83
f 63 84 85
f 63 85 84
f 63 85 86
f 63 86 85
f 63 86 87
f 63 87 86
f 63 87 88
f 63 88 87
f 63 88 89
f 63 89 88
f 63 89 90
f 63 90 89
f 63 90 91
f 63 91 90
f 63 91 92
f 63 92 91
f 63 92 93
f 63 93 92
f 63 93 94
f 63 94 93
f 63 94 95
f 63 95 94
f 63 95 96
f 63 96 95
f 63 96 97
f 63 97 96
f 63 97 98
f 63 98 97
f 63 98 99
f 63 99 98
f 63 99 100
f 63 100 99
f 63 100 101
f 63 101 100
f 63 101 102
f 63 102 101
f 63 102 103
f 63 103 102
f 63 103 104
f 63 104 103
f 63 104 105
f 63 105 104
f 63 105 106
f 63 106 105
f 63 106 107
f 63 107 106
f 63 107 108
f 63 108 107
v 0.000000 0.040000 -0.000000
v 0.009625 0.028670 -0.010207
v 0.018313 0.017340 -0.023027
v 0.026626 0.006010 -0.036895
v 0.034808 -0.005320 -0.051130
v 0.043042 -0.016650 -0.065219
v 0.051483 -0.027980 -0.078730
v 0.060265 -0.039310 -0.091290
v 0.069502 -0.050640 -0.102579
v 0.079287 -0.061970 -0.112337
v 0.089694 -0.073300 -0.120362
v 0.100770 -0.084630 -0.126517
v 0.112541 -0.095960 -0.130734
v 0.125006 -0.107290 -0.133012
v 0.138141 -0.118620 -0.133421
v 0.151896 -0.129950 -0.132097
v 0.166201 -0.141280 -0.129242
v 0.180960 -0.152610 -0.125116
v 0.196061 -0.163940 -0.120038
v 0.211368 -0.175270 -0.114383
v 0.226728 -0.186600 -0.108582
v 0.241956 -0.197930 -0.103148
v 0.256809 -0.209260 -0.098761
v 0.270725 -0.220590 -0.096988
v 0.261101 -0.209260 -0.086782
v 0.252412 -0.197930 -0.073961
v 0.244099 -0.186600 -0.060093
v 0.235917 -0.175270 -0.045858
v 0.227683 -0.163940 -0.031769
v 0.219242 -0.152610 -0.018258
v 0.210461 -0.141280 -0.005699
v 0.201224 -0.129950 0.005591
v 0.191438 -0.118620 0.015349
v 0.181032 -0.107290 0.023373
v 0.169955 -0.095960 0.029529
v 0.158185 -0.084630 0.033746
v 0.145720 -0.073300 0.036024
v 0.132585 -0.061970 0.036433
v 0.118829 -0.050640 0.035109
v 0.104525 -0.039310 0.032253
v 0.089765 -0.027980 0.028127
v 0.074665 -0.016650 0.023050
v 0.059357 -0.005320 0.017395
v 0.043998 0.006010 0.011594
v 0.028769 0.017340 0.006160
v 0.013917 0.028670 0.001773
f 109 110 111
f 109 111 110
f 109 111 112
f 109 112 111
f 109 112 113
f 109 113 112
f 109 113 114
f 109 114 113
f 109 114 115
f 109 115 114
f 109 115 116
f 109 116 115
f 109 116 117
f 109 117 116
f 109 117 118
f 109 118 117
f 109 118 119
f 109 119 118
f 109 119 120
f 109 120 119
f 109 120 121
f 109 121 120
f 109 121 122
f 109 122 121
f 109 122 123
f 109 123 122
f 109 123 124
f 109 124 123
f 109 124 125
f 109 125 124
f 109 125 126
f 109 126 125
f 109 126 127
f 109 127 126
f 109 127 128
f 109 128 127
f 109 128 129
f 109 129 128
f 109 129 130
f 109 130 129
f 109 130 131
f 109 131 130
f 109 131 132
f 109 132 131
f 109 132 133
f 109 133 132
f 109 133 134
f 109 134 133
f 109 134 135
f 109 135 134
f 109 135 136
f 109 136 135
f 109 136 137
f 109 137 136
f 109 137 138
f 109 138 137
f 109 138 139
f 109 139 138
f 109 139 140
f 109 140 139
f 109 140 141
f 109 141 140
f 109 141 142
f 109 142 141
f 109 142 143
f 109 143 142
f 109 143 144
f 109 144 143
f 109 144 145
f 109 145 144
f 109 145 146
f 109 146 145
f 109 146 147
f 109 147 146
f 109 147 148
f 109 148 147
f 109 148 149
f 109 149 148
f 109 149 150
f 109 150 149
f 109 150 151
f 109 151 150
f 109 151 152
f 109 152 151
f 109 152 153
f 109 153 152
f 109 153 154
f 109 154 153
v 0.000000 0.040000 -0.000000
v -0.008236 0.027586 -0.007483
v -0.018405 0.015173 -0.014647
v -0.029181 0.002759 -0.021712
v -0.040023 -0.009655 -0.028766
v -0.050531 -0.022069 -0.035875
v -0.060370 -0.034482 -0.043094
v -0.069256 -0.046896 -0.050469
v -0.076947 -0.059310 -0.058042
v -0.083246 -0.071724 -0.065843
v -0.088003 -0.084137 -0.073899
v -0.091115 -0.096551 -0.082225
v -0.092531 -0.108965 -0.090831
v -0.092252 -0.121378 -0.099715
v -0.090329 -0.133792 -0.108870
v -0.086863 -0.146206 -0.118279
v -0.082005 -0.158620 -0.127917
v -0.075952 -0.171033 -0.137752
v -0.068946 -0.183447 -0.147744
v -0.061272 -0.195861 -0.157846
v -0.053263 -0.208275 -0.168003
v -0.045320 -0.220688 -0.178149
v -0.037984 -0.233102 -0.188195
v -0.032581 -0.245516 -0.197923
v -0.024345 -0.233102 -0.190440
v -0.014176 -0.220688 -0.183276
v -0.003400 -0.208275 -0.176211
v 0.007442 -0.195861 -0.169157
v 0.017950 -0.183447 -0.162048
v 0.027789 -0.171033 -0.154830
v 0.036675 -0.158620 -0.147454
v 0.044366 -0.146206 -0.139881
v 0.050665 -0.133792 -0.132080
v 0.055422 -0.121378 -0.124024
v 0.058534 -0.108965 -0.115698
v 0.059951 -0.096551 -0.107093
v 0.059671 -0.084137 -0.098208
v 0.057748 -0.071724 -0.089053
v 0.054282 -0.059310 -0.079644
v 0.049424 -0.046896 -0.070006
v 0.043371 -0.034482 -0.060171
v 0.036365 -0.022069 -0.050179
v 0.028691 -0.009655 -0.040077
v 0.020682 0.002759 -0.029920
v 0.012739 0.015173 -0.019774
v 0.005403 0.027586 -0.009728
f 155 156 157
f 155 157 156
f 155 157 158
f 155 158 157
f 155 158 159
f 155 159 158
f 155 159 160
f 155 160 159
f 155 160 161
f 155 161 160
f 155 161 162
f 155 162 161
f 155 162 163
f 155 163 162
f 155 163 164
f 155 164 163
f 155 164 165
f 155 165 164
f 155 165 166
f 155 166 165
f 155 166 167
f 155 167 166
f 155 167 168
f 155 168 167
f 155 168 169
f 155 169 168
f 155 169 170
f 155 170 169
f 155 170 171
f 155 171 170
f 155 171 172
f 155 172 171
f 155 172 173
f 155 173 172
f 155 173 174
f 155 174 173
f 155 174 175
f 155 175 174
f 155 175 176
f 155 176 175
f 155 176 177
f 155 177 176
f 155 177 178
f 155 178 177
f 155 178 179
f 155 179 178
f 155 179 180
f 155 180 179
f 155 180 181
f 155 181 180
f 155 181 182
f 155 182 181
f 155 182 183
f 155 183 182
f 155 183 184
f 155 184 183
f 155 184 185
f 155 185 184
f 155 185 186
f 155 186 185
f 155 186 187
f 155 187 186
f 155 187 188
f 155 188 187
f 155 188 189
f 155 189 188
f 155 189 190
f 155 190 189
f 155 190 191
f 155 191 190
f 155 191 192
f 155 192 191
f 155 192 193
f 155 193 192
f 155 193 194
f 155 194 193
f 155 194 195
f 155 195 194
f 155 195 196
f 155 196 195
f 155 196 197
f 155 197 196
f 155 197 198
f 155 198 197
f 155 198 199
f 155 199 198
f 155 199 200
f 155 200 199
v 0.000000 0.040000 -0.000000
v -0.009198 0.030570 0.000354
v -0.019352 0.021140 0.002488
v -0.029889 0.011709 0.005333
v -0.040558 0.002279 0.008426
v -0.051172 -0.007151 0.011416
v -0.061573 -0.016581 0.014009
v -0.071624 -0.026012 0.015951
v -0.081209 -0.035442 0.017025
v -0.090231 -0.044872 0.017052
v -0.098618 -0.054302 0.015896
v -0.106320 -0.063732 0.013464
v -0.113311 -0.073163 0.009709
v -0.119590 -0.082593 0.004630
v -0.125185 -0.092023 -0.001724
v -0.130143 -0.101453 -0.009262
v -0.134540 -0.110883 -0.017847
v -0.138470 -0.120314 -0.027299
v -0.142051 -0.129744 -0.037403
v -0.145418 -0.139174 -0.047903
v -0.148730 -0.148604 -0.058506
v -0.152175 -0.158035 -0.068862
v -0.156002 -0.167465 -0.078507
v -0.160785 -0.176895 -0.086371
v -0.151587 -0.167465 -0.086725
v -0.141433 -0.158035 -0.088859
v -0.130896 -0.148604 -0.091705
v -0.120227 -0.139174 -0.094797
v -0.109613 -0.129744 -0.097787
v -0.099212 -0.120314 -0.100380
v -0.089161 -0.110883 -0.102322
v -0.079576 -0.101453 -0.103396
v -0.070554 -0.092023 -0.103423
v -0.062167 -0.082593 -0.102267
v -0.054465 -0.073163 -0.099835
v -0.047475 -0.063732 -0.096080
v -0.041195 -0.054302 -0.091002
v -0.035601 -0.044872 -0.084647
v -0.030642 -0.035442 -0.077109
v -0.026245 -0.026012 -0.068525
v -0.022315 -0.016581 -0.059072
v -0.018735 -0.007151 -0.048968
v -0.015367 0.002279 -0.038468
v -0.012055 0.011709 -0.027865
v -0.008610 0.021140 -0.017509
v -0.004783 0.030570 -0.007864
f 201 202 203
f 201 203 202
f 201 203 204
f 201 204 203
f 201 204 205
f 201 205 204
f 201 205 206
f 201 206 205
f 201 206 207
f 201 207 206
f 201 207 208
f 201 208 207
f 201 208 209
f 201 209 208
f 201 209 210
f 201 210 209
f 201 210 211
f 201 211 210
f 201 211 212
f 201 212 211
f 201 212 213
f 201 213 212
f 201 213 214
f 201 214 213
f 201 214 215
f 201 215 214
f 201 215 216
f 201 216 215
f 201 216 217
f 201 217 216
f 201 217 218
f 201 218 217
f 201 218 219
f 201 219 218
f 201 219 220
f 201 220 219
f 201 220 221
f 201 221 220
f 201 221 222
f 201 222 221
f 201 222 223
f 201 223 222
f 201 223 224
f 201 224 223
f 201 224 225
f 201 225 224
f 201 225 226
f 201 226 225
f 201 226 227
f 201 227 226
f 201 227 228
f 201 228 227
f 201 228 229
f 201 229 228
f 201 229 230
f 201 230 229
f 201 230 231
f 201 231 230
f 201 231 232
f 201 232 231
f 201 232 233
f 201 233 232
f 201 233 234
f 201 234 233
f 201 234 235
f 201 235 234
f 201 235 236
f 201 236 235
f 201 236 237
f 201 237 236
f 201 237 238
f 201 238 237
f 201 238 239
f 201 239 238
f 201 239 240
f 201 240 239
f 201 240 241
f 201 241 240
f 201 241 242
f 201 242 241
f 201 242 243
f 201 243 242
f 201 243 244
f 201 244 243
f 201 244 245
f 201 245 244
f 201 245 246
f 201 246 245
v 0.000000 0.040000 -0.000000
v -0.002994 0.030381 0.005589
v -0.004744 0.020762 0.013010
v -0.005837 0.011143 0.021399
v -0.006579 0.001524 0.030304
v -0.007220 -0.008095 0.039359
v -0.007980 -0.017714 0.048238
v -0.009057 -0.027333 0.056651
v -0.010625 -0.036952 0.064340
v -0.012829 -0.046571 0.071093
v -0.015782 -0.056190 0.076742
v -0.019562 -0.065809 0.081173
v -0.024209 -0.075428 0.084328
v -0.029722 -0.085048 0.086207
v -0.036062 -0.094667 0.086868
v -0.043151 -0.104286 0.086425
v -0.050877 -0.113905 0.085045
v -0.059093 -0.123524 0.082943
v -0.067626 -0.133143 0.080374
v -0.076279 -0.142762 0.077629
v -0.084830 -0.152381 0.075033
v -0.093030 -0.162000 0.072955
v -0.100573 -0.171619 0.071843
v -0.106873 -0.181238 0.072564
v -0.103879 -0.171619 0.066975
v -0.102129 -0.162000 0.059554
v -0.101036 -0.152381 0.051165
v -0.100293 -0.142762 0.042260
v -0.099653 -0.133143 0.033205
v -0.098893 -0.123524 0.024326
v -0.097816 -0.113905 0.015913
v -0.096248 -0.104286 0.008224
v -0.094044 -0.094667 0.001471
v -0.091091 -0.085048 -0.004178
v -0.087311 -0.075428 -0.008609
v -0.082664 -0.065809 -0.011764
v -0.077151 -0.056190 -0.013643
v -0.070811 -0.046571 -0.014304
v -0.063722 -0.036952 -0.013861
v -0.055996 -0.027333 -0.012481
v -0.047780 -0.017714 -0.010379
v -0.039246 -0.008095 -0.007809
v -0.030594 0.001524 -0.005064
v -0.022043 0.011143 -0.002469
v -0.013843 0.020762 -0.000391
v -0.006299 0.030381 0.000721
f 247 248 249
f 247 249 248
f 247 249 250
f 247 250 249
f 247 250 251
f 247 251 250
f 247 251 252
f 247 252 251
f 247 252 253
f 247 253 252
f 247 253 254
f 247 254 253
f 247 254 255
f 247 255 254
f 247 255 256
f 247 256 255
f 247 256 257
f 247 257 256
f 247 257 258
f 247 258 257
f 247 258 259
f 247 259 258
f 247 259 260
f 247 260 259
f 247 260 261
f 247 261 260
f 247 261 262
f 247 262 261
f 247 262 263
f 247 263 262
f 247 263 264
f 247 264 263
f 247 264 265
f 247 265 264
f 247 265 266
f 247 266 265
f 247 266 267
f 247 267 266
f 247 267 268
f 247 268 267
f 247 268 269
f 247 269 268
f 247 269 270
f 247 270 269
f 247 270 271
f 247 271 270
f 247 271 272
f 247 272 271
f 247 272 273
f 247 273 272
f 247 273 274
f 247 274 273
f 247 274 275
f 247 275 274
f 247 275 276
f 247 276 275
f 247 276 277
f 247 277 276
f 247 277 278
f 247 278 277
f 247 278 279
f 247 279 278
f 247 279 280
f 247 280 279
f 247 280 281
f 247 281 280
f 247 281 282
f 247 282 281
f 247 282 283
f 247 283 282
f 247 283 284
f 247 284 283
f 247 284 285
f 247 285 284
f 247 285 286
f 247 286 285
f 247 286 287
f 247 287 286
f 247 287 288
f 247 288 287
f 247 288 289
f 247 289 288
f 247 289 290
f 247 290 289
f 247 290 291
f 247 291 290
f 247 291 292
f 247 292 291
