o mesh
v 2.576400 0.030000 -0.000000
v 2.380283 0.030000 -0.985945
v 1.821790 0.030000 -1.821790
v 0.985945 0.030000 -2.380283
v 0.000000 0.030000 -2.576400
v -0.985945 0.030000 -2.380283
v -1.821790 0.030000 -1.821790
v -2.380283 0.030000 -0.985945
v -2.576400 0.030000 -0.000000
v -2.380283 0.030000 0.985945
v -1.821790 0.030000 1.821790
v -0.985945 0.030000 2.380283
v -0.000000 0.030000 2.576400
v 0.985945 0.030000 2.380283
v 1.821790 0.030000 1.821790
v 2.380283 0.030000 0.985945
v 1.420000 0.030000 -0.000000
v 1.311909 0.030000 -0.543410
v 1.004092 0.030000 -1.004092
v 0.543410 0.030000 -1.311909
v 0.000000 0.030000 -1.420000
v -0.543410 0.030000 -1.311909
v -1.004092 0.030000 -1.004092
v -1.311909 0.030000 -0.543410
v -1.420000 0.030000 -0.000000
v -1.311909 0.030000 0.543410
v -1.004092 0.030000 1.004092
v -0.543410 0.030000 1.311909
v -0.000000 0.030000 1.420000
v 0.543410 0.030000 1.311909
v 1.004092 0.030000 1.004092
v 1.311909 0.030000 0.543410
f 1 2 18
f 18 2 1
f 1 18 17
f 17 18 1
f 2 3 19
f 19 3 2
f 2 19 18
f 18 19 2
f 3 4 20
f 20 4 3
f 3 20 19
f 19 20 3
f 4 5 21
f 21 5 4
f 4 21 20
f 20 21 4
f 5 6 22
f 22 6 5
f 5 22 21
f 21 22 5
f 6 7 23
f 23 7 6
f 6 23 22
f 22 23 6
f 7 8 24
f 24 8 7
f 7 24 23
f 23 24 7
f 8 9 25
f 25 9 8
f 8 25 24
f 24 25 8
f 9 10 26
f 26 10 9
f 9 26 25
f 25 26 9
f 10 11 27
f 27 11 10
f 10 27 26
f 26 27 10
f 11 12 28
f 28 12 11
f 11 28 27
f 27 28 11
f 12 13 29
f 29 13 12
f 12 29 28
f 28 29 12
f 13 14 30
f 30 14 13
f 13 30 29
f 29 30 13
f 14 15 31
f 31 15 14
f 14 31 30
f 30 31 14
f 15 16 32
f 32 16 15
f 15 32 31
f 31 32 15
f 16 1 17
f 17 1 16
f 16 17 32
f 32 17 16
v 2.541166 3.430000 -0.000000
v 2.347731 3.430000 -0.972462
v 1.796876 3.430000 -1.796876
v 0.972462 3.430000 -2.347731
v 0.000000 3.430000 -2.541166
v -0.972462 3.430000 -2.347731
v -1.796876 3.430000 -1.796876
v -2.347731 3.430000 -0.972462
v -2.541166 3.430000 -0.000000
v -2.347731 3.430000 0.972462
v -1.796876 3.430000 1.796876
v -0.972462 3.430000 2.347731
v -0.000000 3.430000 2.541166
v 0.972462 3.430000 2.347731
v 1.796876 3.430000 1.796876
v 2.347731 3.430000 0.972462
v 1.420000 3.430000 -0.000000
v 1.311909 3.430000 -0.543410
v 1.004092 3.430000 -1.004092
v 0.543410 3.430000 -1.311909
v 0.000000 3.430000 -1.420000
v -0.543410 3.430000 -1.311909
v -1.004092 3.430000 -1.004092
v -1.311909 3.430000 -0.543410
v -1.420000 3.430000 -0.000000
v -1.311909 3.430000 0.543410
v -1.004092 3.430000 1.004092
v -0.543410 3.430000 1.311909
v -0.000000 3.430000 1.420000
v 0.543410 3.430000 1.311909
v 1.004092 3.430000 1.004092
v 1.311909 3.430000 0.543410
f 33 34 50
f 50 34 33
f 33 50 49
f 49 50 33
f 34 35 51
f 51 35 34
f 34 51 50
f 50 51 34
f 35 36 52
f 52 36 35
f 35 52 51
f 51 52 35
f 36 37 53
f 53 37 36
f 36 53 52
f 52 53 36
f 37 38 54
f 54 38 37
f 37 54 53
f 53 54 37
f 38 39 55
f 55 39 38
f 38 55 54
f 54 55 38
f 39 40 56
f 56 40 39
f 39 56 55
f 55 56 39
f 40 41 57
f 57 41 40
f 40 57 56
f 56 57 40
f 41 42 58
f 58 42 41
f 41 58 57
f 57 58 41
f 42 43 59
f 59 43 42
f 42 59 58
f 58 59 42
f 43 44 60
f 60 44 43
f 43 60 59
f 59 60 43
f 44 45 61
f 61 45 44
f 44 61 60
f 60 61 44
f 45 46 62
f 62 46 45
f 45 62 61
f 61 62 45
f 46 47 63
f 63 47 46
f 46 63 62
f 62 63 46
f 47 48 64
f 64 48 47
f 47 64 63
f 63 64 47
f 48 33 49
f 49 33 48
f 48 49 64
f 64 49 48
v 2.505932 6.830000 -0.000000
v 2.315180 6.830000 -0.958979
v 1.771962 6.830000 -1.771962
v 0.958979 6.830000 -2.315180
v 0.000000 6.830000 -2.505932
v -0.958979 6.830000 -2.315180
v -1.771962 6.830000 -1.771962
v -2.315180 6.830000 -0.958979
v -2.505932 6.830000 -0.000000
v -2.315180 6.830000 0.958979
v -1.771962 6.830000 1.771962
v -0.958979 6.830000 2.315180
v -0.000000 6.830000 2.505932
v 0.958979 6.830000 2.315180
v 1.771962 6.830000 1.771962
v 2.315180 6.830000 0.958979
v 1.420000 6.830000 -0.000000
v 1.311909 6.830000 -0.543410
v 1.004092 6.830000 -1.004092
v 0.543410 6.830000 -1.311909
v 0.000000 6.830000 -1.420000
v -0.543410 6.830000 -1.311909
v -1.004092 6.830000 -1.004092
v -1.311909 6.830000 -0.543410
v -1.420000 6.830000 -0.000000
v -1.311909 6.830000 0.543410
v -1.004092 6.830000 1.004092
v -0.543410 6.830000 1.311909
v -0.000000 6.830000 1.420000
v 0.543410 6.830000 1.311909
v 1.004092 6.830000 1.004092
v 1.311909 6.830000 0.543410
f 65 66 82
f 82 66 65
f 65 82 81
f 81 82 65
f 66 67 83
f 83 67 66
f 66 83 82
f 82 83 66
f 67 68 84
f 84 68 67
f 67 84 83
f 83 84 67
f 68 69 85
f 85 69 68
f 68 85 84
f 84 85 68
f 69 70 86
f 86 70 69
f 69 86 85
f 85 86 69
f 70 71 87
f 87 71 70
f 70 87 86
f 86 87 70
f 71 72 88
f 88 72 71
f 71 88 87
f 87 88 71
f 72 73 89
f 89 73 72
f 72 89 88
f 88 89 72
f 73 74 90
f 90 74 73
f 73 90 89
f 89 90 73
f 74 75 91
f 91 75 74
f 74 91 90
f 90 91 74
f 75 76 92
f 92 76 75
f 75 92 91
f 91 92 75
f 76 77 93
f 93 77 76
f 76 93 92
f 92 93 76
f 77 78 94
f 94 78 77
f 77 94 93
f 93 94 77
f 78 79 95
f 95 79 78
f 78 95 94
f 94 95 78
f 79 80 96
f 96 80 79
f 79 96 95
f 95 96 79
f 80 65 81
f 81 65 80
f 80 81 96
f 96 81 80
v 2.470699 10.230000 -0.000000
v 2.282628 10.230000 -0.945495
v 1.747048 10.230000 -1.747048
v 0.945495 10.230000 -2.282628
v 0.000000 10.230000 -2.470699
v -0.945495 10.230000 -2.282628
v -1.747048 10.230000 -1.747048
v -2.282628 10.230000 -0.945495
v -2.470699 10.230000 -0.000000
v -2.282628 10.230000 0.945495
v -1.747048 10.230000 1.747048
v -0.945495 10.230000 2.282628
v -0.000000 10.230000 2.470699
v 0.945495 10.230000 2.282628
v 1.747048 10.230000 1.747048
v 2.282628 10.230000 0.945495
v 1.420000 10.230000 -0.000000
v 1.311909 10.230000 -0.543410
v 1.004092 10.230000 -1.004092
v 0.543410 10.230000 -1.311909
v 0.000000 10.230000 -1.420000
v -0.543410 10.230000 -1.311909
v -1.004092 10.230000 -1.004092
v -1.311909 10.230000 -0.543410
v -1.420000 10.230000 -0.000000
v -1.311909 10.230000 0.543410
v -1.004092 10.230000 1.004092
v -0.543410 10.230000 1.311909
v -0.000000 10.230000 1.420000
v 0.543410 10.230000 1.311909
v 1.004092 10.230000 1.004092
v 1.311909 10.230000 0.543410
f 97 98 114
f 114 98 97
f 97 114 113
f 113 114 97
f 98 99 115
f 115 99 98
f 98 115 114
f 114 115 98
f 99 100 116
f 116 100 99
f 99 116 115
f 115 116 99
f 100 101 117
f 117 101 100
f 100 117 116
f 116 117 100
f 101 102 118
f 118 102 101
f 101 118 117
f 117 118 101
f 102 103 119
f 119 103 102
f 102 119 118
f 118 119 102
f 103 104 120
f 120 104 103
f 103 120 119
f 119 120 103
f 104 105 121
f 121 105 104
f 104 121 120
f 120 121 104
f 105 106 122
f 122 106 105
f 105 122 121
f 121 122 105
f 106 107 123
f 123 107 106
f 106 123 122
f 122 123 106
f 107 108 124
f 124 108 107
f 107 124 123
f 123 124 107
f 108 109 125
f 125 109 108
f 108 125 124
f 124 125 108
f 109 110 126
f 126 110 109
f 109 126 125
f 125 126 109
f 110 111 127
f 127 111 110
f 110 127 126
f 126 127 110
f 111 112 128
f 128 112 111
f 111 128 127
f 127 128 111
f 112 97 113
f 113 97 112
f 112 113 128
f 128 113 112
v 2.435465 13.630000 -0.000000
v 2.250076 13.630000 -0.932012
v 1.722134 13.630000 -1.722134
v 0.932012 13.630000 -2.250076
v 0.000000 13.630000 -2.435465
v -0.932012 13.630000 -2.250076
v -1.722134 13.630000 -1.722134
v -2.250076 13.630000 -0.932012
v -2.435465 13.630000 -0.000000
v -2.250076 13.630000 0.932012
v -1.722134 13.630000 1.722134
v -0.932012 13.630000 2.250076
v -0.000000 13.630000 2.435465
v 0.932012 13.630000 2.250076
v 1.722134 13.630000 1.722134
v 2.250076 13.630000 0.932012
v 1.420000 13.630000 -0.000000
v 1.311909 13.630000 -0.543410
v 1.004092 13.630000 -1.004092
v 0.543410 13.630000 -1.311909
v 0.000000 13.630000 -1.420000
v -0.543410 13.630000 -1.311909
v -1.004092 13.630000 -1.004092
v -1.311909 13.630000 -0.543410
v -1.420000 13.630000 -0.000000
v -1.311909 13.630000 0.543410
v -1.004092 13.630000 1.004092
v -0.543410 13.630000 1.311909
v -0.000000 13.630000 1.420000
v 0.543410 13.630000 1.311909
v 1.004092 13.630000 1.004092
v 1.311909 13.630000 0.543410
f 129 130 146
f 146 130 129
f 129 146 145
f 145 146 129
f 130 131 147
f 147 131 130
f 130 147 146
f 146 147 130
f 131 132 148
f 148 132 131
f 131 148 147
f 147 148 131
f 132 133 149
f 149 133 132
f 132 149 148
f 148 149 132
f 133 134 150
f 150 134 133
f 133 150 149
f 149 150 133
f 134 135 151
f 151 135 134
f 134 151 150
f 150 151 134
f 135 136 152
f 152 136 135
f 135 152 151
f 151 152 135
f 136 137 153
f 153 137 136
f 136 153 152
f 152 153 136
f 137 138 154
f 154 138 137
f 137 154 153
f 153 154 137
f 138 139 155
f 155 139 138
f 138 155 154
f 154 155 138
f 139 140 156
f 156 140 139
f 139 156 155
f 155 156 139
f 140 141 157
f 157 141 140
f 140 157 156
f 156 157 140
f 141 142 158
f 158 142 141
f 141 158 157
f 157 158 141
f 142 143 159
f 159 143 142
f 142 159 158
f 158 159 142
f 143 144 160
f 160 144 143
f 143 160 159
f 159 160 143
f 144 129 145
f 145 129 144
f 144 145 160
f 160 145 144
v 2.400231 17.030000 -0.000000
v 2.217525 17.030000 -0.918529
v 1.697220 17.030000 -1.697220
v 0.918529 17.030000 -2.217525
v 0.000000 17.030000 -2.400231
v -0.918529 17.030000 -2.217525
v -1.697220 17.030000 -1.697220
v -2.217525 17.030000 -0.918529
v -2.400231 17.030000 -0.000000
v -2.217525 17.030000 0.918529
v -1.697220 17.030000 1.697220
v -0.918529 17.030000 2.217525
v -0.000000 17.030000 2.400231
v 0.918529 17.030000 2.217525
v 1.697220 17.030000 1.697220
v 2.217525 17.030000 0.918529
v 1.420000 17.030000 -0.000000
v 1.311909 17.030000 -0.543410
v 1.004092 17.030000 -1.004092
v 0.543410 17.030000 -1.311909
v 0.000000 17.030000 -1.420000
v -0.543410 17.030000 -1.311909
v -1.004092 17.030000 -1.004092
v -1.311909 17.030000 -0.543410
v -1.420000 17.030000 -0.000000
v -1.311909 17.030000 0.543410
v -1.004092 17.030000 1.004092
v -0.543410 17.030000 1.311909
v -0.000000 17.030000 1.420000
v 0.543410 17.030000 1.311909
v 1.004092 17.030000 1.004092
v 1.311909 17.030000 0.543410
f 161 162 178
f 178 162 161
f 161 178 177
f 177 178 161
f 162 163 179
f 179 163 162
f 162 179 178
f 178 179 162
f 163 164 180
f 180 164 163
f 163 180 179
f 179 180 163
f 164 165 181
f 181 165 164
f 164 181 180
f 180 181 164
f 165 166 182
f 182 166 165
f 165 182 181
f 181 182 165
f 166 167 183
f 183 167 166
f 166 183 182
f 182 183 166
f 167 168 184
f 184 168 167
f 167 184 183
f 183 184 167
f 168 169 185
f 185 169 168
f 168 185 184
f 184 185 168
f 169 170 186
f 186 170 169
f 169 186 185
f 185 186 169
f 170 171 187
f 187 171 170
f 170 187 186
f 186 187 170
f 171 172 188
f 188 172 171
f 171 188 187
f 187 188 171
f 172 173 189
f 189 173 172
f 172 189 188
f 188 189 172
f 173 174 190
f 190 174 173
f 173 190 189
f 189 190 173
f 174 175 191
f 191 175 174
f 174 191 190
f 190 191 174
f 175 176 192
f 192 176 175
f 175 192 191
f 191 192 175
f 176 161 177
f 177 161 176
f 176 177 192
f 192 177 176
v 2.364998 20.430000 -0.000000
v 2.184973 20.430000 -0.905045
v 1.672306 20.430000 -1.672306
v 0.905045 20.430000 -2.184973
v 0.000000 20.430000 -2.364998
v -0.905045 20.430000 -2.184973
v -1.672306 20.430000 -1.672306
v -2.184973 20.430000 -0.905045
v -2.364998 20.430000 -0.000000
v -2.184973 20.430000 0.905045
v -1.672306 20.430000 1.672306
v -0.905045 20.430000 2.184973
v -0.000000 20.430000 2.364998
v 0.905045 20.430000 2.184973
v 1.672306 20.430000 1.672306
v 2.184973 20.430000 0.905045
v 1.420000 20.430000 -0.000000
v 1.311909 20.430000 -0.543410
v 1.004092 20.430000 -1.004092
v 0.543410 20.430000 -1.311909
v 0.000000 20.430000 -1.420000
v -0.543410 20.430000 -1.311909
v -1.004092 20.430000 -1.004092
v -1.311909 20.430000 -0.543410
v -1.420000 20.430000 -0.000000
v -1.311909 20.430000 0.543410
v -1.004092 20.430000 1.004092
v -0.543410 20.430000 1.311909
v -0.000000 20.430000 1.420000
v 0.543410 20.430000 1.311909
v 1.004092 20.430000 1.004092
v 1.311909 20.430000 0.543410
f 193 194 210
f 210 194 193
f 193 210 209
f 209 210 193
f 194 195 211
f 211 195 194
f 194 211 210
f 210 211 194
f 195 196 212
f 212 196 195
f 195 212 211
f 211 212 195
f 196 197 213
f 213 197 196
f 196 213 212
f 212 213 196
f 197 198 214
f 214 198 197
f 197 214 213
f 213 214 197
f 198 199 215
f 215 199 198
f 198 215 214
f 214 215 198
f 199 200 216
f 216 200 199
f 199 216 215
f 215 216 199
f 200 201 217
f 217 201 200
f 200 217 216
f 216 217 200
f 201 202 218
f 218 202 201
f 201 218 217
f 217 218 201
f 202 203 219
f 219 203 202
f 202 219 218
f 218 219 202
f 203 204 220
f 220 204 203
f 203 220 219
f 219 220 203
f 204 205 221
f 221 205 204
f 204 221 220
f 220 221 204
f 205 206 222
f 222 206 205
f 205 222 221
f 221 222 205
f 206 207 223
f 223 207 206
f 206 223 222
f 222 223 206
f 207 208 224
f 224 208 207
f 207 224 223
f 223 224 207
f 208 193 209
f 209 193 208
f 208 209 224
f 224 209 208
v 2.329764 23.830000 -0.000000
v 2.152421 23.830000 -0.891562
v 1.647392 23.830000 -1.647392
v 0.891562 23.830000 -2.152421
v 0.000000 23.830000 -2.329764
v -0.891562 23.830000 -2.152421
v -1.647392 23.830000 -1.647392
v -2.152421 23.830000 -0.891562
v -2.329764 23.830000 -0.000000
v -2.152421 23.830000 0.891562
v -1.647392 23.830000 1.647392
v -0.891562 23.830000 2.152421
v -0.000000 23.830000 2.329764
v 0.891562 23.830000 2.152421
v 1.647392 23.830000 1.647392
v 2.152421 23.830000 0.891562
v 1.420000 23.830000 -0.000000
v 1.311909 23.830000 -0.543410
v 1.004092 23.830000 -1.004092
v 0.543410 23.830000 -1.311909
v 0.000000 23.830000 -1.420000
v -0.543410 23.830000 -1.311909
v -1.004092 23.830000 -1.004092
v -1.311909 23.830000 -0.543410
v -1.420000 23.830000 -0.000000
v -1.311909 23.830000 0.543410
v -1.004092 23.830000 1.004092
v -0.543410 23.830000 1.311909
v -0.000000 23.830000 1.420000
v 0.543410 23.830000 1.311909
v 1.004092 23.830000 1.004092
v 1.311909 23.830000 0.543410
f 225 226 242
f 242 226 225
f 225 242 241
f 241 242 225
f 226 227 243
f 243 227 226
f 226 243 242
f 242 243 226
f 227 228 244
f 244 228 227
f 227 244 243
f 243 244 227
f 228 229 245
f 245 229 228
f 228 245 244
f 244 245 228
f 229 230 246
f 246 230 229
f 229 246 245
f 245 246 229
f 230 231 247
f 247 231 230
f 230 247 246
f 246 247 230
f 231 232 248
f 248 232 231
f 231 248 247
f 247 248 231
f 232 233 249
f 249 233 232
f 232 249 248
f 248 249 232
f 233 234 250
f 250 234 233
f 233 250 249
f 249 250 233
f 234 235 251
f 251 235 234
f 234 251 250
f 250 251 234
f 235 236 252
f 252 236 235
f 235 252 251
f 251 252 235
f 236 237 253
f 253 237 236
f 236 253 252
f 252 253 236
f 237 238 254
f 254 238 237
f 237 254 253
f 253 254 237
f 238 239 255
f 255 239 238
f 238 255 254
f 254 255 238
f 239 240 256
f 256 240 239
f 239 256 255
f 255 256 239
f 240 225 241
f 241 225 240
f 240 241 256
f 256 241 240
