o mesh
v 2.401019 3.445000 -1.203512
v 2.320656 3.445000 -1.503430
v 2.101101 3.445000 -1.722985
v 1.801183 3.445000 -1.803348
v 1.501265 3.445000 -1.722985
v 1.281710 3.445000 -1.503430
v 1.201347 3.445000 -1.203512
v 1.281710 3.445000 -0.903594
v 1.501265 3.445000 -0.684039
v 1.801183 3.445000 -0.603676
v 2.101101 3.445000 -0.684039
v 2.320656 3.445000 -0.903594
v 1.801183 3.445000 -1.203512
f 13 1 2
f 13 2 3
f 13 3 4
f 13 4 5
f 13 5 6
f 13 6 7
f 13 7 8
f 13 8 9
f 13 9 10
f 13 10 11
f 13 11 12
f 13 12 1
v -0.810437 3.445000 -1.801183
v -0.863099 3.445000 -1.997720
v -1.006974 3.445000 -2.141596
v -1.203512 3.445000 -2.194258
v -1.400049 3.445000 -2.141596
v -1.543925 3.445000 -1.997720
v -1.596587 3.445000 -1.801183
v -1.543925 3.445000 -1.604645
v -1.400049 3.445000 -1.460770
v -1.203512 3.445000 -1.408108
v -1.006974 3.445000 -1.460770
v -0.863099 3.445000 -1.604645
v -1.203512 3.445000 -1.801183
f 26 14 15
f 26 15 16
f 26 16 17
f 26 17 18
f 26 18 19
f 26 19 20
f 26 20 21
f 26 21 22
f 26 22 23
f 26 23 24
f 26 24 25
f 26 25 14
v -1.415924 3.445000 1.203512
v -1.467538 3.445000 1.010882
v -1.608553 3.445000 0.869868
v -1.801183 3.445000 0.818253
v -1.993813 3.445000 0.869868
v -2.134827 3.445000 1.010882
v -2.186442 3.445000 1.203512
v -2.134827 3.445000 1.396142
v -1.993813 3.445000 1.537156
v -1.801183 3.445000 1.588771
v -1.608553 3.445000 1.537156
v -1.467538 3.445000 1.396142
v -1.801183 3.445000 1.203512
f 39 27 28
f 39 28 29
f 39 29 30
f 39 30 31
f 39 31 32
f 39 32 33
f 39 33 34
f 39 34 35
f 39 35 36
f 39 36 37
f 39 37 38
f 39 38 27
v 1.708406 3.445000 1.801183
v 1.640763 3.445000 1.548736
v 1.455959 3.445000 1.363932
v 1.203512 3.445000 1.296289
v 0.951065 3.445000 1.363932
v 0.766261 3.445000 1.548736
v 0.698618 3.445000 1.801183
v 0.766261 3.445000 2.053630
v 0.951065 3.445000 2.238434
v 1.203512 3.445000 2.306077
v 1.455959 3.445000 2.238434
v 1.640763 3.445000 2.053630
v 1.203512 3.445000 1.801183
f 52 40 41
f 52 41 42
f 52 42 43
f 52 43 44
f 52 44 45
f 52 45 46
f 52 46 47
f 52 47 48
f 52 48 49
f 52 49 50
f 52 50 51
f 52 51 40
v 1.673753 6.845000 -1.768206
v 1.607801 6.845000 -2.014344
v 1.427615 6.845000 -2.194529
v 1.181477 6.845000 -2.260482
v 0.935339 6.845000 -2.194529
v 0.755154 6.845000 -2.014344
v 0.689202 6.845000 -1.768206
v 0.755154 6.845000 -1.522068
v 0.935339 6.845000 -1.341883
v 1.181477 6.845000 -1.275930
v 1.427615 6.845000 -1.341883
v 1.607801 6.845000 -1.522068
v 1.181477 6.845000 -1.768206
f 65 53 54
f 65 54 55
f 65 55 56
f 65 56 57
f 65 57 58
f 65 58 59
f 65 59 60
f 65 60 61
f 65 61 62
f 65 62 63
f 65 63 64
f 65 64 53
v -1.401540 6.845000 -1.181477
v -1.450664 6.845000 -1.364810
v -1.584873 6.845000 -1.499019
v -1.768206 6.845000 -1.548143
v -1.951539 6.845000 -1.499019
v -2.085748 6.845000 -1.364810
v -2.134871 6.845000 -1.181477
v -2.085748 6.845000 -0.998145
v -1.951539 6.845000 -0.863936
v -1.768206 6.845000 -0.814812
v -1.584873 6.845000 -0.863936
v -1.450664 6.845000 -0.998145
v -1.768206 6.845000 -1.181477
f 78 66 67
f 78 67 68
f 78 68 69
f 78 69 70
f 78 70 71
f 78 71 72
f 78 72 73
f 78 73 74
f 78 74 75
f 78 75 76
f 78 76 77
f 78 77 66
v -0.816519 6.845000 1.768206
v -0.865414 6.845000 1.585726
v -0.998998 6.845000 1.452142
v -1.181477 6.845000 1.403247
v -1.363957 6.845000 1.452142
v -1.497541 6.845000 1.585726
v -1.546436 6.845000 1.768206
v -1.497541 6.845000 1.950685
v -1.363957 6.845000 2.084269
v -1.181477 6.845000 2.133165
v -0.998998 6.845000 2.084269
v -0.865414 6.845000 1.950685
v -1.181477 6.845000 1.768206
f 91 79 80
f 91 80 81
f 91 81 82
f 91 82 83
f 91 83 84
f 91 84 85
f 91 85 86
f 91 86 87
f 91 87 88
f 91 88 89
f 91 89 90
f 91 90 79
v 2.289641 6.845000 1.181477
v 2.219782 6.845000 0.920760
v 2.028924 6.845000 0.729901
v 1.768206 6.845000 0.660042
v 1.507488 6.845000 0.729901
v 1.316629 6.845000 0.920760
v 1.246770 6.845000 1.181477
v 1.316629 6.845000 1.442195
v 1.507488 6.845000 1.633054
v 1.768206 6.845000 1.702913
v 2.028924 6.845000 1.633054
v 2.219782 6.845000 1.442195
v 1.768206 6.845000 1.181477
f 104 92 93
f 104 93 94
f 104 94 95
f 104 95 96
f 104 96 97
f 104 97 98
f 104 98 99
f 104 99 100
f 104 100 101
f 104 101 102
f 104 102 103
f 104 103 92
v 0.858953 10.245000 -2.046842
v 0.798422 10.245000 -2.272747
v 0.633047 10.245000 -2.438121
v 0.407142 10.245000 -2.498652
v 0.181237 10.245000 -2.438121
v 0.015863 10.245000 -2.272747
v -0.044668 10.245000 -2.046842
v 0.015863 10.245000 -1.820937
v 0.181237 10.245000 -1.655562
v 0.407142 10.245000 -1.595031
v 0.633047 10.245000 -1.655562
v 0.798422 10.245000 -1.820937
v 0.407142 10.245000 -2.046842
f 117 105 106
f 117 106 107
f 117 107 108
f 117 108 109
f 117 109 110
f 117 110 111
f 117 111 112
f 117 112 113
f 117 113 114
f 117 114 115
f 117 115 116
f 117 116 105
v -1.591821 10.245000 -0.407142
v -1.652782 10.245000 -0.634652
v -1.819332 10.245000 -0.801202
v -2.046842 10.245000 -0.862163
v -2.274352 10.245000 -0.801202
v -2.440901 10.245000 -0.634652
v -2.501862 10.245000 -0.407142
v -2.440901 10.245000 -0.179632
v -2.274352 10.245000 -0.013083
v -2.046842 10.245000 0.047878
v -1.819332 10.245000 -0.013083
v -1.652782 10.245000 -0.179632
v -2.046842 10.245000 -0.407142
f 130 118 119
f 130 119 120
f 130 120 121
f 130 121 122
f 130 122 123
f 130 123 124
f 130 124 125
f 130 125 126
f 130 126 127
f 130 127 128
f 130 128 129
f 130 129 118
v -0.021511 10.245000 2.046842
v -0.073175 10.245000 1.854026
v -0.214326 10.245000 1.712875
v -0.407142 10.245000 1.661210
v -0.599958 10.245000 1.712875
v -0.741109 10.245000 1.854026
v -0.792774 10.245000 2.046842
v -0.741109 10.245000 2.239658
v -0.599958 10.245000 2.380809
v -0.407142 10.245000 2.432473
v -0.214326 10.245000 2.380809
v -0.073175 10.245000 2.239658
v -0.407142 10.245000 2.046842
f 143 131 132
f 143 132 133
f 143 133 134
f 143 134 135
f 143 135 136
f 143 136 137
f 143 137 138
f 143 138 139
f 143 139 140
f 143 140 141
f 143 141 142
f 143 142 131
v 2.428350 10.245000 0.407142
v 2.377238 10.245000 0.216388
v 2.237596 10.245000 0.076746
v 2.046842 10.245000 0.025634
v 1.856088 10.245000 0.076746
v 1.716446 10.245000 0.216388
v 1.665333 10.245000 0.407142
v 1.716446 10.245000 0.597896
v 1.856088 10.245000 0.737538
v 2.046842 10.245000 0.788651
v 2.237596 10.245000 0.737538
v 2.377238 10.245000 0.597896
v 2.046842 10.245000 0.407142
f 156 144 145
f 156 145 146
f 156 146 147
f 156 147 148
f 156 148 149
f 156 149 150
f 156 150 151
f 156 151 152
f 156 152 153
f 156 153 154
f 156 154 155
f 156 155 144
v 2.458447 13.645000 -0.399405
v 2.398091 13.645000 -0.624657
v 2.233195 13.645000 -0.789553
v 2.007943 13.645000 -0.849909
v 1.782691 13.645000 -0.789553
v 1.617794 13.645000 -0.624657
v 1.557438 13.645000 -0.399405
v 1.617794 13.645000 -0.174152
v 1.782691 13.645000 -0.009256
v 2.007943 13.645000 0.051100
v 2.233195 13.645000 -0.009256
v 2.398091 13.645000 -0.174152
v 2.007943 13.645000 -0.399405
f 169 157 158
f 169 158 159
f 169 159 160
f 169 160 161
f 169 161 162
f 169 162 163
f 169 163 164
f 169 164 165
f 169 165 166
f 169 166 167
f 169 167 168
f 169 168 157
v 0.173190 13.645000 -2.007943
v 0.096477 13.645000 -2.294240
v -0.113107 13.645000 -2.503825
v -0.399405 13.645000 -2.580538
v -0.685702 13.645000 -2.503825
v -0.895286 13.645000 -2.294240
v -0.972000 13.645000 -2.007943
v -0.895286 13.645000 -1.721645
v -0.685702 13.645000 -1.512061
v -0.399405 13.645000 -1.435348
v -0.113107 13.645000 -1.512061
v 0.096477 13.645000 -1.721645
v -0.399405 13.645000 -2.007943
f 182 170 171
f 182 171 172
f 182 172 173
f 182 173 174
f 182 174 175
f 182 175 176
f 182 176 177
f 182 177 178
f 182 178 179
f 182 179 180
f 182 180 181
f 182 181 170
v -1.585419 13.645000 0.399405
v -1.642027 13.645000 0.188143
v -1.796681 13.645000 0.033488
v -2.007943 13.645000 -0.023119
v -2.219204 13.645000 0.033488
v -2.373859 13.645000 0.188143
v -2.430466 13.645000 0.399405
v -2.373859 13.645000 0.610666
v -2.219204 13.645000 0.765321
v -2.007943 13.645000 0.821928
v -1.796681 13.645000 0.765321
v -1.642027 13.645000 0.610666
v -2.007943 13.645000 0.399405
f 195 183 184
f 195 184 185
f 195 185 186
f 195 186 187
f 195 187 188
f 195 188 189
f 195 189 190
f 195 190 191
f 195 191 192
f 195 192 193
f 195 193 194
f 195 194 183
v 0.766759 13.645000 2.007943
v 0.717543 13.645000 1.824265
v 0.583082 13.645000 1.689804
v 0.399405 13.645000 1.640588
v 0.215727 13.645000 1.689804
v 0.081266 13.645000 1.824265
v 0.032050 13.645000 2.007943
v 0.081266 13.645000 2.191620
v 0.215727 13.645000 2.326081
v 0.399405 13.645000 2.375297
v 0.583082 13.645000 2.326081
v 0.717543 13.645000 2.191620
v 0.399405 13.645000 2.007943
f 208 196 197
f 208 197 198
f 208 198 199
f 208 199 200
f 208 200 201
f 208 201 202
f 208 202 203
f 208 203 204
f 208 204 205
f 208 205 206
f 208 206 207
f 208 207 196
v 2.141541 17.045000 -1.115374
v 2.078269 17.045000 -1.351507
v 1.905408 17.045000 -1.524368
v 1.669275 17.045000 -1.587640
v 1.433142 17.045000 -1.524368
v 1.260280 17.045000 -1.351507
v 1.197008 17.045000 -1.115374
v 1.260280 17.045000 -0.879241
v 1.433142 17.045000 -0.706379
v 1.669275 17.045000 -0.643108
v 1.905408 17.045000 -0.706379
v 2.078269 17.045000 -0.879241
v 1.669275 17.045000 -1.115374
f 221 209 210
f 221 210 211
f 221 211 212
f 221 212 213
f 221 213 214
f 221 214 215
f 221 215 216
f 221 216 217
f 221 217 218
f 221 218 219
f 221 219 220
f 221 220 209
v -0.637429 17.045000 -1.669275
v -0.701462 17.045000 -1.908247
v -0.876401 17.045000 -2.083186
v -1.115374 17.045000 -2.147219
v -1.354346 17.045000 -2.083186
v -1.529285 17.045000 -1.908247
v -1.593318 17.045000 -1.669275
v -1.529285 17.045000 -1.430302
v -1.354346 17.045000 -1.255363
v -1.115374 17.045000 -1.191330
v -0.876401 17.045000 -1.255363
v -0.701462 17.045000 -1.430302
v -1.115374 17.045000 -1.669275
f 234 222 223
f 234 223 224
f 234 224 225
f 234 225 226
f 234 226 227
f 234 227 228
f 234 228 229
f 234 229 230
f 234 230 231
f 234 231 232
f 234 232 233
f 234 233 222
v -1.283811 17.045000 1.115374
v -1.335453 17.045000 0.922642
v -1.476543 17.045000 0.781552
v -1.669275 17.045000 0.729910
v -1.862006 17.045000 0.781552
v -2.003096 17.045000 0.922642
v -2.054738 17.045000 1.115374
v -2.003096 17.045000 1.308105
v -1.862006 17.045000 1.449195
v -1.669275 17.045000 1.500837
v -1.476543 17.045000 1.449195
v -1.335453 17.045000 1.308105
v -1.669275 17.045000 1.115374
f 247 235 236
f 247 236 237
f 247 237 238
f 247 238 239
f 247 239 240
f 247 240 241
f 247 241 242
f 247 242 243
f 247 243 244
f 247 244 245
f 247 245 246
f 247 246 235
v 1.625822 17.045000 1.669275
v 1.557435 17.045000 1.414050
v 1.370598 17.045000 1.227213
v 1.115374 17.045000 1.158826
v 0.860150 17.045000 1.227213
v 0.673313 17.045000 1.414050
v 0.604925 17.045000 1.669275
v 0.673313 17.045000 1.924499
v 0.860150 17.045000 2.111336
v 1.115374 17.045000 2.179723
v 1.370598 17.045000 2.111336
v 1.557435 17.045000 1.924499
v 1.115374 17.045000 1.669275
f 260 248 249
f 260 249 250
f 260 250 251
f 260 251 252
f 260 252 253
f 260 253 254
f 260 254 255
f 260 255 256
f 260 256 257
f 260 257 258
f 260 258 259
f 260 259 248
v 1.689764 20.445000 -1.636297
v 1.609858 20.445000 -1.934510
v 1.391551 20.445000 -2.152816
v 1.093339 20.445000 -2.232722
v 0.795127 20.445000 -2.152816
v 0.576820 20.445000 -1.934510
v 0.496914 20.445000 -1.636297
v 0.576820 20.445000 -1.338085
v 0.795127 20.445000 -1.119778
v 1.093339 20.445000 -1.039873
v 1.391551 20.445000 -1.119778
v 1.609858 20.445000 -1.338085
v 1.093339 20.445000 -1.636297
f 273 261 262
f 273 262 263
f 273 263 264
f 273 264 265
f 273 265 266
f 273 266 267
f 273 267 268
f 273 268 269
f 273 269 270
f 273 270 271
f 273 271 272
f 273 272 261
v -1.131150 20.445000 -1.093339
v -1.198827 20.445000 -1.345913
v -1.383724 20.445000 -1.530809
v -1.636297 20.445000 -1.598486
v -1.888871 20.445000 -1.530809
v -2.073768 20.445000 -1.345913
v -2.141445 20.445000 -1.093339
v -2.073768 20.445000 -0.840765
v -1.888871 20.445000 -0.655869
v -1.636297 20.445000 -0.588192
v -1.383724 20.445000 -0.655869
v -1.198827 20.445000 -0.840765
v -1.636297 20.445000 -1.093339
f 286 274 275
f 286 275 276
f 286 276 277
f 286 277 278
f 286 278 279
f 286 279 280
f 286 280 281
f 286 281 282
f 286 282 283
f 286 283 284
f 286 284 285
f 286 285 274
v -0.663939 20.445000 1.636297
v -0.721467 20.445000 1.421597
v -0.878639 20.445000 1.264426
v -1.093339 20.445000 1.206897
v -1.308039 20.445000 1.264426
v -1.465211 20.445000 1.421597
v -1.522739 20.445000 1.636297
v -1.465211 20.445000 1.850998
v -1.308039 20.445000 2.008169
v -1.093339 20.445000 2.065698
v -0.878639 20.445000 2.008169
v -0.721467 20.445000 1.850998
v -1.093339 20.445000 1.636297
f 299 287 288
f 299 288 289
f 299 289 290
f 299 290 291
f 299 291 292
f 299 292 293
f 299 293 294
f 299 294 295
f 299 295 296
f 299 296 297
f 299 297 298
f 299 298 287
v 2.175994 20.445000 1.093339
v 2.103689 20.445000 0.823491
v 1.906146 20.445000 0.625948
v 1.636297 20.445000 0.553642
v 1.366449 20.445000 0.625948
v 1.168906 20.445000 0.823491
v 1.096601 20.445000 1.093339
v 1.168906 20.445000 1.363187
v 1.366449 20.445000 1.560730
v 1.636297 20.445000 1.633036
v 1.906146 20.445000 1.560730
v 2.103689 20.445000 1.363187
v 1.636297 20.445000 1.093339
f 312 300 301
f 312 301 302
f 312 302 303
f 312 303 304
f 312 304 305
f 312 305 306
f 312 306 307
f 312 307 308
f 312 308 309
f 312 309 310
f 312 310 311
f 312 311 300
