o mesh
v 0.000000 0.000000 0.035000
v 0.016490 0.000000 0.022697
v 0.028878 0.000000 0.009383
v 0.028878 0.000000 -0.009383
v 0.016490 0.000000 -0.022697
v 0.000000 0.000000 -0.035000
v -0.016490 0.000000 -0.022697
v -0.028878 0.000000 -0.009383
v -0.028878 0.000000 0.009383
v -0.016490 0.000000 0.022697
v 0.000000 0.600000 0.031500
v 0.014841 0.600000 0.020427
v 0.025990 0.600000 0.008445
v 0.025990 0.600000 -0.008445
v 0.014841 0.600000 -0.020427
v 0.000000 0.600000 -0.031500
v -0.014841 0.600000 -0.020427
v -0.025990 0.600000 -0.008445
v -0.025990 0.600000 0.008445
v -0.014841 0.600000 0.020427
f 1 2 12
f 1 12 11
f 2 3 13
f 2 13 12
f 3 4 14
f 3 14 13
f 4 5 15
f 4 15 14
f 5 6 16
f 5 16 15
f 6 7 17
f 6 17 16
f 7 8 18
f 7 18 17
f 8 9 19
f 8 19 18
f 9 10 20
f 9 20 19
f 10 1 11
f 10 11 20
v 0.000000 0.600108 0.031500
v 0.014785 0.601361 0.020423
v 0.025892 0.602289 0.008437
v 0.025892 0.602231 -0.008453
v 0.014785 0.601220 -0.020432
v 0.000000 0.599892 -0.031500
v -0.014785 0.598639 -0.020423
v -0.025892 0.597711 -0.008437
v -0.025892 0.597769 0.008453
v -0.014785 0.598780 0.020432
v -0.042008 1.081329 0.026694
v -0.028702 1.082457 0.016724
v -0.018706 1.083292 0.005937
v -0.018706 1.083240 -0.009263
v -0.028702 1.082330 -0.020045
v -0.042008 1.081134 -0.030006
v -0.055315 1.080007 -0.020037
v -0.065311 1.079172 -0.009249
v -0.065311 1.079224 0.005951
v -0.055315 1.080134 0.016732
f 21 22 32
f 21 32 31
f 22 23 33
f 22 33 32
f 23 24 34
f 23 34 33
f 24 25 35
f 24 35 34
f 25 26 36
f 25 36 35
f 26 27 37
f 26 37 36
f 27 28 38
f 27 38 37
f 28 29 39
f 28 39 38
f 29 30 40
f 29 40 39
f 30 21 31
f 30 31 40
v -0.042008 1.081232 -0.001656
v -0.042608 1.079863 0.002763
v -0.042151 1.078587 0.007453
v -0.040524 1.077414 0.012443
v -0.037820 1.076336 0.017710
v -0.034277 1.075332 0.023192
v -0.030239 1.074372 0.028801
v -0.026117 1.073419 0.034431
v -0.022344 1.072436 0.039972
v -0.019335 1.071385 0.045317
v -0.017443 1.070236 0.050375
v -0.016921 1.068965 0.055082
v -0.017906 1.067562 0.059402
v -0.020397 1.066026 0.063336
v -0.024259 1.064369 0.066918
v -0.029237 1.062614 0.070214
v -0.034979 1.060792 0.073313
v -0.041070 1.058938 0.076323
v -0.047078 1.057092 0.079355
v -0.052591 1.055290 0.082514
v -0.057264 1.053562 0.085887
v -0.060860 1.051928 0.089538
v -0.063287 1.050398 0.093488
v -0.064656 1.048961 0.097710
v -0.064056 1.050330 0.093291
v -0.064513 1.051606 0.088601
v -0.066140 1.052779 0.083610
v -0.068844 1.053857 0.078344
v -0.072387 1.054861 0.072862
v -0.076425 1.055821 0.067253
v -0.080548 1.056774 0.061622
v -0.084320 1.057757 0.056082
v -0.087329 1.058808 0.050737
v -0.089222 1.059958 0.045678
v -0.089743 1.061228 0.040972
v -0.088759 1.062631 0.036651
v -0.086268 1.064167 0.032718
v -0.082406 1.065824 0.029136
v -0.077427 1.067579 0.025840
v -0.071686 1.069401 0.022740
v -0.065594 1.071255 0.019730
v -0.059586 1.073101 0.016699
v -0.054074 1.074903 0.013540
v -0.049400 1.076631 0.010166
v -0.045804 1.078265 0.006516
v -0.043378 1.079795 0.002565
f 41 42 43
f 41 43 42
f 41 43 44
f 41 44 43
f 41 44 45
f 41 45 44
f 41 45 46
f 41 46 45
f 41 46 47
f 41 47 46
f 41 47 48
f 41 48 47
f 41 48 49
f 41 49 48
f 41 49 50
f 41 50 49
f 41 50 51
f 41 51 50
f 41 51 52
f 41 52 51
f 41 52 53
f 41 53 52
f 41 53 54
f 41 54 53
f 41 54 55
f 41 55 54
f 41 55 56
f 41 56 55
f 41 56 57
f 41 57 56
f 41 57 58
f 41 58 57
f 41 58 59
f 41 59 58
f 41 59 60
f 41 60 59
f 41 60 61
f 41 61 60
f 41 61 62
f 41 62 61
f 41 62 63
f 41 63 62
f 41 63 64
f 41 64 63
f 41 64 65
f 41 65 64
f 41 65 66
f 41 66 65
f 41 66 67
f 41 67 66
f 41 67 68
f 41 68 67
f 41 68 69
f 41 69 68
f 41 69 70
f 41 70 69
f 41 70 71
f 41 71 70
f 41 71 72
f 41 72 71
f 41 72 73
f 41 73 72
f 41 73 74
f 41 74 73
f 41 74 75
f 41 75 74
f 41 75 76
f 41 76 75
f 41 76 77
f 41 77 76
f 41 77 78
f 41 78 77
f 41 78 79
f 41 79 78
f 41 79 80
f 41 80 79
f 41 80 81
f 41 81 80
f 41 81 82
f 41 82 81
f 41 82 83
f 41 83 82
f 41 83 84
f 41 84 83
f 41 84 85
f 41 85 84
f 41 85 86
f 41 86 85
v -0.042008 1.081232 -0.001656
v -0.036816 1.079645 -0.001001
v -0.031519 1.078065 -0.001027
v -0.026039 1.076497 -0.002240
v -0.020334 1.074943 -0.004909
v -0.014406 1.073404 -0.009028
v -0.008299 1.071877 -0.014312
v -0.002094 1.070356 -0.020233
v 0.004103 1.068834 -0.026100
v 0.010176 1.067305 -0.031164
v 0.016019 1.065760 -0.034730
v 0.021549 1.064195 -0.036267
v 0.026722 1.062607 -0.035486
v 0.031538 1.060996 -0.032388
v 0.036041 1.059364 -0.027259
v 0.040314 1.057718 -0.020634
v 0.044463 1.056063 -0.013205
v 0.048604 1.054408 -0.005723
v 0.052843 1.052759 0.001123
v 0.057261 1.051122 0.006804
v 0.061903 1.049499 0.011035
v 0.066769 1.047891 0.013809
v 0.071818 1.046295 0.015397
v 0.076972 1.044706 0.016303
v 0.071779 1.046293 0.015648
v 0.066482 1.047873 0.015675
v 0.061002 1.049441 0.016887
v 0.055297 1.050994 0.019556
v 0.049370 1.052534 0.023676
v 0.043263 1.054061 0.028960
v 0.037057 1.055582 0.034880
v 0.030860 1.057104 0.040747
v 0.024787 1.058633 0.045811
v 0.018945 1.060178 0.049378
v 0.013415 1.061743 0.050915
v 0.008241 1.063331 0.050134
v 0.003425 1.064942 0.047035
v -0.001078 1.066574 0.041907
v -0.005351 1.068220 0.035281
v -0.009500 1.069875 0.027853
v -0.013641 1.071530 0.020370
v -0.017880 1.073179 0.013525
v -0.022298 1.074816 0.007843
v -0.026940 1.076438 0.003613
v -0.031806 1.078046 0.000838
v -0.036855 1.079643 -0.000750
f 87 88 89
f 87 89 88
f 87 89 90
f 87 90 89
f 87 90 91
f 87 91 90
f 87 91 92
f 87 92 91
f 87 92 93
f 87 93 92
f 87 93 94
f 87 94 93
f 87 94 95
f 87 95 94
f 87 95 96
f 87 96 95
f 87 96 97
f 87 97 96
f 87 97 98
f 87 98 97
f 87 98 99
f 87 99 98
f 87 99 100
f 87 100 99
f 87 100 101
f 87 101 100
f 87 101 102
f 87 102 101
f 87 102 103
f 87 103 102
f 87 103 104
f 87 104 103
f 87 104 105
f 87 105 104
f 87 105 106
f 87 106 105
f 87 106 107
f 87 107 106
f 87 107 108
f 87 108 107
f 87 108 109
f 87 109 108
f 87 109 110
f 87 110 109
f 87 110 111
f 87 111 110
f 87 111 112
f 87 112 111
f 87 112 113
f 87 113 112
f 87 113 114
f 87 114 113
f 87 114 115
f 87 115 114
f 87 115 116
f 87 116 115
f 87 116 117
f 87 117 116
f 87 117 118
f 87 118 117
f 87 118 119
f 87 119 118
f 87 119 120
f 87 120 119
f 87 120 121
f 87 121 120
f 87 121 122
f 87 122 121
f 87 122 123
f 87 123 122
f 87 123 124
f 87 124 123
f 87 124 125
f 87 125 124
f 87 125 126
f 87 126 125
f 87 126 127
f 87 127 126
f 87 127 128
f 87 128 127
f 87 128 129
f 87 129 128
f 87 129 130
f 87 130 129
f 87 130 131
f 87 131 130
f 87 131 132
f 87 132 131
v -0.042008 1.081232 -0.001656
v -0.040470 1.078667 -0.007235
v -0.040604 1.075953 -0.013527
v -0.042191 1.073110 -0.020438
v -0.044923 1.070166 -0.027838
v -0.048414 1.067154 -0.035562
v -0.052227 1.064114 -0.043424
v -0.055905 1.061086 -0.051228
v -0.059000 1.058109 -0.058783
v -0.061109 1.055220 -0.065917
v -0.061900 1.052448 -0.072489
v -0.061137 1.049814 -0.078399
v -0.058700 1.047328 -0.083594
v -0.054589 1.044991 -0.088074
v -0.048924 1.042792 -0.091892
v -0.041941 1.040710 -0.095148
v -0.033972 1.038716 -0.097983
v -0.025421 1.036773 -0.100569
v -0.016733 1.034842 -0.103097
v -0.008368 1.032883 -0.105763
v -0.000762 1.030856 -0.108753
v 0.005699 1.028728 -0.112231
v 0.010707 1.026471 -0.116329
v 0.014043 1.024065 -0.121141
v 0.012505 1.026630 -0.115562
v 0.012639 1.029344 -0.109270
v 0.014225 1.032187 -0.102359
v 0.016957 1.035131 -0.094958
v 0.020448 1.038143 -0.087234
v 0.024262 1.041183 -0.079373
v 0.027939 1.044211 -0.071569
v 0.031034 1.047188 -0.064014
v 0.033143 1.050077 -0.056879
v 0.033934 1.052849 -0.050307
v 0.033171 1.055483 -0.044398
v 0.030734 1.057969 -0.039203
v 0.026623 1.060305 -0.034722
v 0.020958 1.062504 -0.030905
v 0.013975 1.064586 -0.027649
v 0.006006 1.066581 -0.024814
v -0.002545 1.068524 -0.022228
v -0.011233 1.070454 -0.019700
v -0.019598 1.072414 -0.017034
v -0.027204 1.074440 -0.014044
v -0.033664 1.076569 -0.010566
v -0.038672 1.078826 -0.006468
f 133 134 135
f 133 135 134
f 133 135 136
f 133 136 135
f 133 136 137
f 133 137 136
f 133 137 138
f 133 138 137
f 133 138 139
f 133 139 138
f 133 139 140
f 133 140 139
f 133 140 141
f 133 141 140
f 133 141 142
f 133 142 141
f 133 142 143
f 133 143 142
f 133 143 144
f 133 144 143
f 133 144 145
f 133 145 144
f 133 145 146
f 133 146 145
f 133 146 147
f 133 147 146
f 133 147 148
f 133 148 147
f 133 148 149
f 133 149 148
f 133 149 150
f 133 150 149
f 133 150 151
f 133 151 150
f 133 151 152
f 133 152 151
f 133 152 153
f 133 153 152
f 133 153 154
f 133 154 153
f 133 154 155
f 133 155 154
f 133 155 156
f 133 156 155
f 133 156 157
f 133 157 156
f 133 157 158
f 133 158 157
f 133 158 159
f 133 159 158
f 133 159 160
f 133 160 159
f 133 160 161
f 133 161 160
f 133 161 162
f 133 162 161
f 133 162 163
f 133 163 162
f 133 163 164
f 133 164 163
f 133 164 165
f 133 165 164
f 133 165 166
f 133 166 165
f 133 166 167
f 133 167 166
f 133 167 168
f 133 168 167
f 133 168 169
f 133 169 168
f 133 169 170
f 133 170 169
f 133 170 171
f 133 171 170
f 133 171 172
f 133 172 171
f 133 172 173
f 133 173 172
f 133 173 174
f 133 174 173
f 133 174 175
f 133 175 174
f 133 175 176
f 133 176 175
f 133 176 177
f 133 177 176
f 133 177 178
f 133 178 177
v -0.042008 1.081232 -0.001656
v -0.044099 1.079605 -0.007028
v -0.046681 1.077937 -0.012202
v -0.050309 1.076178 -0.016958
v -0.055399 1.074294 -0.021128
v -0.062098 1.072271 -0.024654
v -0.070226 1.070126 -0.027608
v -0.079275 1.067902 -0.030194
v -0.088486 1.065663 -0.032715
v -0.096972 1.063487 -0.035525
v -0.103877 1.061447 -0.038969
v -0.108527 1.059601 -0.043316
v -0.110549 1.057980 -0.048715
v -0.109944 1.056585 -0.055165
v -0.107083 1.055384 -0.062519
v -0.102641 1.054319 -0.070506
v -0.097475 1.053316 -0.078782
v -0.092470 1.052299 -0.086994
v -0.088387 1.051203 -0.094837
v -0.085731 1.049984 -0.102109
v -0.084687 1.048627 -0.108735
v -0.085103 1.047144 -0.114777
v -0.086564 1.045572 -0.120400
v -0.088519 1.043957 -0.125826
v -0.086429 1.045583 -0.120454
v -0.083846 1.047252 -0.115280
v -0.080218 1.049011 -0.110525
v -0.075128 1.050895 -0.106354
v -0.068429 1.052918 -0.102828
v -0.060301 1.055063 -0.099874
v -0.051252 1.057287 -0.097288
v -0.042041 1.059525 -0.094767
v -0.033555 1.061701 -0.091957
v -0.026650 1.063742 -0.088513
v -0.022000 1.065588 -0.084166
v -0.019978 1.067209 -0.078767
v -0.020583 1.068604 -0.072317
v -0.023444 1.069805 -0.064963
v -0.027886 1.070870 -0.056977
v -0.033052 1.071873 -0.048700
v -0.038057 1.072890 -0.040488
v -0.042140 1.073986 -0.032645
v -0.044796 1.075205 -0.025373
v -0.045840 1.076562 -0.018747
v -0.045424 1.078045 -0.012705
v -0.043963 1.079617 -0.007082
f 179 180 181
f 179 181 180
f 179 181 182
f 179 182 181
f 179 182 183
f 179 183 182
f 179 183 184
f 179 184 183
f 179 184 185
f 179 185 184
f 179 185 186
f 179 186 185
f 179 186 187
f 179 187 186
f 179 187 188
f 179 188 187
f 179 188 189
f 179 189 188
f 179 189 190
f 179 190 189
f 179 190 191
f 179 191 190
f 179 191 192
f 179 192 191
f 179 192 193
f 179 193 192
f 179 193 194
f 179 194 193
f 179 194 195
f 179 195 194
f 179 195 196
f 179 196 195
f 179 196 197
f 179 197 196
f 179 197 198
f 179 198 197
f 179 198 199
f 179 199 198
f 179 199 200
f 179 200 199
f 179 200 201
f 179 201 200
f 179 201 202
f 179 202 201
f 179 202 203
f 179 203 202
f 179 203 204
f 179 204 203
f 179 204 205
f 179 205 204
f 179 205 206
f 179 206 205
f 179 206 207
f 179 207 206
f 179 207 208
f 179 208 207
f 179 208 209
f 179 209 208
f 179 209 210
f 179 210 209
f 179 210 211
f 179 211 210
f 179 211 212
f 179 212 211
f 179 212 213
f 179 213 212
f 179 213 214
f 179 214 213
f 179 214 215
f 179 215 214
f 179 215 216
f 179 216 215
f 179 216 217
f 179 217 216
f 179 217 218
f 179 218 217
f 179 218 219
f 179 219 218
f 179 219 220
f 179 220 219
f 179 220 221
f 179 221 220
f 179 221 222
f 179 222 221
f 179 222 223
f 179 223 222
f 179 223 224
f 179 224 223
v -0.042008 1.081232 -0.001656
v -0.046768 1.079519 -0.001310
v -0.051518 1.077811 0.000036
v -0.056254 1.076108 0.002666
v -0.060976 1.074411 0.006596
v -0.065687 1.072718 0.011630
v -0.070390 1.071029 0.017399
v -0.075090 1.069341 0.023417
v -0.079793 1.067652 0.029137
v -0.084506 1.065959 0.034017
v -0.089232 1.064260 0.037584
v -0.093975 1.062554 0.039489
v -0.098738 1.060840 0.039546
v -0.103521 1.059118 0.037756
v -0.108320 1.057389 0.034304
v -0.113134 1.055654 0.029539
v -0.117956 1.053915 0.023934
v -0.122781 1.052175 0.018031
v -0.127604 1.050436 0.012376
v -0.132419 1.048701 0.007458
v -0.137223 1.046970 0.003642
v -0.142013 1.045245 0.001127
v -0.146789 1.043525 -0.000104
v -0.151555 1.041810 -0.000335
v -0.146795 1.043522 -0.000682
v -0.142046 1.045231 -0.002027
v -0.137310 1.046934 -0.004657
v -0.132588 1.048631 -0.008588
v -0.127877 1.050323 -0.013621
v -0.123174 1.052012 -0.019390
v -0.118474 1.053700 -0.025409
v -0.113770 1.055390 -0.031128
v -0.109058 1.057083 -0.036008
v -0.104332 1.058781 -0.039575
v -0.099588 1.060487 -0.041480
v -0.094825 1.062201 -0.041538
v -0.090043 1.063923 -0.039747
v -0.085243 1.065653 -0.036295
v -0.080430 1.067388 -0.031530
v -0.075607 1.069126 -0.025925
v -0.070782 1.070866 -0.020022
v -0.065959 1.072605 -0.014368
v -0.061144 1.074341 -0.009449
v -0.056341 1.076072 -0.005634
v -0.051551 1.077797 -0.003118
v -0.046774 1.079517 -0.001888
f 225 226 227
f 225 227 226
f 225 227 228
f 225 228 227
f 225 228 229
f 225 229 228
f 225 229 230
f 225 230 229
f 225 230 231
f 225 231 230
f 225 231 232
f 225 232 231
f 225 232 233
f 225 233 232
f 225 233 234
f 225 234 233
f 225 234 235
f 225 235 234
f 225 235 236
f 225 236 235
f 225 236 237
f 225 237 236
f 225 237 238
f 225 238 237
f 225 238 239
f 225 239 238
f 225 239 240
f 225 240 239
f 225 240 241
f 225 241 240
f 225 241 242
f 225 242 241
f 225 242 243
f 225 243 242
f 225 243 244
f 225 244 243
f 225 244 245
f 225 245 244
f 225 245 246
f 225 246 245
f 225 246 247
f 225 247 246
f 225 247 248
f 225 248 247
f 225 248 249
f 225 249 248
f 225 249 250
f 225 250 249
f 225 250 251
f 225 251 250
f 225 251 252
f 225 252 251
f 225 252 253
f 225 253 252
f 225 253 254
f 225 254 253
f 225 254 255
f 225 255 254
f 225 255 256
f 225 256 255
f 225 256 257
f 225 257 256
f 225 257 258
f 225 258 257
f 225 258 259
f 225 259 258
f 225 259 260
f 225 260 259
f 225 260 261
f 225 261 260
f 225 261 262
f 225 262 261
f 225 262 263
f 225 263 262
f 225 263 264
f 225 264 263
f 225 264 265
f 225 265 264
f 225 265 266
f 225 266 265
f 225 266 267
f 225 267 266
f 225 267 268
f 225 268 267
f 225 268 269
f 225 269 268
f 225 269 270
f 225 270 269
v -0.042008 1.080946 0.026692
v -0.028836 1.083261 0.016750
v -0.018941 1.085033 0.005983
v -0.018941 1.085186 -0.009217
v -0.028836 1.083632 -0.020018
v -0.042008 1.081518 -0.030005
v -0.055181 1.079203 -0.020062
v -0.065076 1.077431 -0.009295
v -0.065076 1.077277 0.005905
v -0.055181 1.078832 0.016705
v -0.101946 1.437490 0.027458
v -0.090091 1.439574 0.018509
v -0.081186 1.441169 0.008819
v -0.081186 1.441307 -0.004861
v -0.090091 1.439908 -0.014581
v -0.101946 1.438006 -0.023570
v -0.113802 1.435922 -0.014622
v -0.122707 1.434327 -0.004931
v -0.122707 1.434189 0.008749
v -0.113802 1.435588 0.018469
f 271 272 282
f 271 282 281
f 272 273 283
f 272 283 282
f 273 274 284
f 273 284 283
f 274 275 285
f 274 285 284
f 275 276 286
f 275 286 285
f 276 277 287
f 276 287 286
f 277 278 288
f 277 288 287
f 278 279 289
f 278 289 288
f 279 280 290
f 279 290 289
f 280 271 281
f 280 281 290
v -0.101946 1.437748 0.001944
v -0.101935 1.436796 0.006431
v -0.101301 1.435948 0.010956
v -0.099642 1.435271 0.015544
v -0.096767 1.434798 0.020207
v -0.092715 1.434523 0.024943
v -0.087746 1.434401 0.029734
v -0.082304 1.434358 0.034556
v -0.076951 1.434300 0.039371
v -0.072286 1.434127 0.044144
v -0.068860 1.433747 0.048841
v -0.067091 1.433089 0.053436
v -0.067204 1.432116 0.057915
v -0.069199 1.430827 0.062279
v -0.072850 1.429262 0.066540
v -0.077739 1.427488 0.070725
v -0.083318 1.425600 0.074868
v -0.088986 1.423696 0.079005
v -0.094180 1.421872 0.083172
v -0.098457 1.420201 0.087395
v -0.101557 1.418727 0.091690
v -0.103442 1.417457 0.096060
v -0.104301 1.416359 0.100493
v -0.104538 1.415365 0.104965
v -0.104550 1.416317 0.100478
v -0.105184 1.417166 0.095953
v -0.106843 1.417842 0.091365
v -0.109718 1.418315 0.086701
v -0.113769 1.418590 0.081966
v -0.118738 1.418712 0.077174
v -0.124181 1.418755 0.072353
v -0.129534 1.418813 0.067537
v -0.134198 1.418986 0.062764
v -0.137624 1.419366 0.058067
v -0.139394 1.420024 0.053472
v -0.139281 1.420997 0.048993
v -0.137286 1.422286 0.044630
v -0.133635 1.423852 0.040368
v -0.128745 1.425625 0.036183
v -0.123167 1.427514 0.032041
v -0.117499 1.429417 0.027903
v -0.112305 1.431242 0.023737
v -0.108027 1.432912 0.019514
v -0.104927 1.434386 0.015219
v -0.103043 1.435656 0.010849
v -0.102183 1.436754 0.006415
f 291 292 293
f 291 293 292
f 291 293 294
f 291 294 293
f 291 294 295
f 291 295 294
f 291 295 296
f 291 296 295
f 291 296 297
f 291 297 296
f 291 297 298
f 291 298 297
f 291 298 299
f 291 299 298
f 291 299 300
f 291 300 299
f 291 300 301
f 291 301 300
f 291 301 302
f 291 302 301
f 291 302 303
f 291 303 302
f 291 303 304
f 291 304 303
f 291 304 305
f 291 305 304
f 291 305 306
f 291 306 305
f 291 306 307
f 291 307 306
f 291 307 308
f 291 308 307
f 291 308 309
f 291 309 308
f 291 309 310
f 291 310 309
f 291 310 311
f 291 311 310
f 291 311 312
f 291 312 311
f 291 312 313
f 291 313 312
f 291 313 314
f 291 314 313
f 291 314 315
f 291 315 314
f 291 315 316
f 291 316 315
f 291 316 317
f 291 317 316
f 291 317 318
f 291 318 317
f 291 318 319
f 291 319 318
f 291 319 320
f 291 320 319
f 291 320 321
f 291 321 320
f 291 321 322
f 291 322 321
f 291 322 323
f 291 323 322
f 291 323 324
f 291 324 323
f 291 324 325
f 291 325 324
f 291 325 326
f 291 326 325
f 291 326 327
f 291 327 326
f 291 327 328
f 291 328 327
f 291 328 329
f 291 329 328
f 291 329 330
f 291 330 329
f 291 330 331
f 291 331 330
f 291 331 332
f 291 332 331
f 291 332 333
f 291 333 332
f 291 333 334
f 291 334 333
f 291 334 335
f 291 335 334
f 291 335 336
f 291 336 335
v -0.101946 1.437748 0.001944
v -0.096750 1.436996 -0.000998
v -0.092138 1.436158 -0.005169
v -0.088194 1.435223 -0.010746
v -0.084879 1.434194 -0.017645
v -0.082062 1.433093 -0.025593
v -0.079548 1.431947 -0.034178
v -0.077098 1.430792 -0.042899
v -0.074458 1.429665 -0.051219
v -0.071382 1.428601 -0.058621
v -0.067660 1.427633 -0.064666
v -0.063140 1.426782 -0.069031
v -0.057741 1.426059 -0.071547
v -0.051463 1.425466 -0.072213
v -0.044387 1.424991 -0.071201
v -0.036665 1.424610 -0.068829
v -0.028508 1.424293 -0.065542
v -0.020159 1.424004 -0.061852
v -0.011876 1.423705 -0.058299
v -0.003895 1.423363 -0.055383
v 0.003587 1.422946 -0.053516
v 0.010442 1.422438 -0.052970
v 0.016628 1.421831 -0.053830
v 0.022229 1.421139 -0.055920
v 0.017032 1.421891 -0.052979
v 0.012420 1.422729 -0.048807
v 0.008477 1.423664 -0.043230
v 0.005161 1.424693 -0.036331
v 0.002344 1.425794 -0.028383
v -0.000170 1.426940 -0.019798
v -0.002620 1.428095 -0.011077
v -0.005260 1.429222 -0.002758
v -0.008336 1.430286 0.004645
v -0.012057 1.431254 0.010690
v -0.016577 1.432105 0.015055
v -0.021976 1.432828 0.017570
v -0.028254 1.433421 0.018237
v -0.035330 1.433896 0.017224
v -0.043052 1.434277 0.014853
v -0.051210 1.434594 0.011565
v -0.059558 1.434883 0.007876
v -0.067842 1.435182 0.004322
v -0.075823 1.435525 0.001406
v -0.083305 1.435941 -0.000461
v -0.090159 1.436449 -0.001007
v -0.096345 1.437056 -0.000146
f 337 338 339
f 337 339 338
f 337 339 340
f 337 340 339
f 337 340 341
f 337 341 340
f 337 341 342
f 337 342 341
f 337 342 343
f 337 343 342
f 337 343 344
f 337 344 343
f 337 344 345
f 337 345 344
f 337 345 346
f 337 346 345
f 337 346 347
f 337 347 346
f 337 347 348
f 337 348 347
f 337 348 349
f 337 349 348
f 337 349 350
f 337 350 349
f 337 350 351
f 337 351 350
f 337 351 352
f 337 352 351
f 337 352 353
f 337 353 352
f 337 353 354
f 337 354 353
f 337 354 355
f 337 355 354
f 337 355 356
f 337 356 355
f 337 356 357
f 337 357 356
f 337 357 358
f 337 358 357
f 337 358 359
f 337 359 358
f 337 359 360
f 337 360 359
f 337 360 361
f 337 361 360
f 337 361 362
f 337 362 361
f 337 362 363
f 337 363 362
f 337 363 364
f 337 364 363
f 337 364 365
f 337 365 364
f 337 365 366
f 337 366 365
f 337 366 367
f 337 367 366
f 337 367 368
f 337 368 367
f 337 368 369
f 337 369 368
f 337 369 370
f 337 370 369
f 337 370 371
f 337 371 370
f 337 371 372
f 337 372 371
f 337 372 373
f 337 373 372
f 337 373 374
f 337 374 373
f 337 374 375
f 337 375 374
f 337 375 376
f 337 376 375
f 337 376 377
f 337 377 376
f 337 377 378
f 337 378 377
f 337 378 379
f 337 379 378
f 337 379 380
f 337 380 379
f 337 380 381
f 337 381 380
f 337 381 382
f 337 382 381
v -0.101946 1.437748 0.001944
v -0.105671 1.434619 -0.000995
v -0.109989 1.431382 -0.003150
v -0.115145 1.427993 -0.004200
v -0.121200 1.424440 -0.004064
v -0.128058 1.420743 -0.002870
v -0.135485 1.416942 -0.000924
v -0.143148 1.413098 0.001334
v -0.150656 1.409282 0.003387
v -0.157613 1.405566 0.004712
v -0.163664 1.402014 0.004844
v -0.168548 1.398675 0.003434
v -0.172123 1.395573 0.000298
v -0.174389 1.392708 -0.004565
v -0.175487 1.390055 -0.010969
v -0.175680 1.387567 -0.018566
v -0.175321 1.385178 -0.026892
v -0.174808 1.382818 -0.035422
v -0.174530 1.380415 -0.043641
v -0.174822 1.377908 -0.051108
v -0.175917 1.375256 -0.057516
v -0.177910 1.372441 -0.062739
v -0.180742 1.369473 -0.066856
v -0.184167 1.366398 -0.070189
v -0.180443 1.369528 -0.067250
v -0.176124 1.372765 -0.065095
v -0.170968 1.376154 -0.064045
v -0.164913 1.379706 -0.064181
v -0.158056 1.383404 -0.065376
v -0.150629 1.387205 -0.067322
v -0.142966 1.391049 -0.069579
v -0.135457 1.394865 -0.071633
v -0.128501 1.398580 -0.072958
v -0.122449 1.402132 -0.073089
v -0.117566 1.405472 -0.071680
v -0.113991 1.408574 -0.068543
v -0.111725 1.411438 -0.063681
v -0.110627 1.414091 -0.057277
v -0.110434 1.416580 -0.049679
v -0.110792 1.418968 -0.041353
v -0.111306 1.421329 -0.032823
v -0.111583 1.423732 -0.024605
v -0.111291 1.426238 -0.017138
v -0.110197 1.428891 -0.010729
v -0.108203 1.431706 -0.005507
v -0.105372 1.434673 -0.001389
f 383 384 385
f 383 385 384
f 383 385 386
f 383 386 385
f 383 386 387
f 383 387 386
f 383 387 388
f 383 388 387
f 383 388 389
f 383 389 388
f 383 389 390
f 383 390 389
f 383 390 391
f 383 391 390
f 383 391 392
f 383 392 391
f 383 392 393
f 383 393 392
f 383 393 394
f 383 394 393
f 383 394 395
f 383 395 394
f 383 395 396
f 383 396 395
f 383 396 397
f 383 397 396
f 383 397 398
f 383 398 397
f 383 398 399
f 383 399 398
f 383 399 400
f 383 400 399
f 383 400 401
f 383 401 400
f 383 401 402
f 383 402 401
f 383 402 403
f 383 403 402
f 383 403 404
f 383 404 403
f 383 404 405
f 383 405 404
f 383 405 406
f 383 406 405
f 383 406 407
f 383 407 406
f 383 407 408
f 383 408 407
f 383 408 409
f 383 409 408
f 383 409 410
f 383 410 409
f 383 410 411
f 383 411 410
f 383 411 412
f 383 412 411
f 383 412 413
f 383 413 412
f 383 413 414
f 383 414 413
f 383 414 415
f 383 415 414
f 383 415 416
f 383 416 415
f 383 416 417
f 383 417 416
f 383 417 418
f 383 418 417
f 383 418 419
f 383 419 418
f 383 419 420
f 383 420 419
f 383 420 421
f 383 421 420
f 383 421 422
f 383 422 421
f 383 422 423
f 383 423 422
f 383 423 424
f 383 424 423
f 383 424 425
f 383 425 424
f 383 425 426
f 383 426 425
f 383 426 427
f 383 427 426
f 383 427 428
f 383 428 427
