o mesh
v 0.000000 0.000000 0.015000
v 0.008817 0.000000 0.012135
v 0.014266 0.000000 0.004635
v 0.014266 0.000000 -0.004635
v 0.008817 0.000000 -0.012135
v 0.000000 0.000000 -0.015000
v -0.008817 0.000000 -0.012135
v -0.014266 0.000000 -0.004635
v -0.014266 0.000000 0.004635
v -0.008817 0.000000 0.012135
v 0.000000 0.400000 0.010200
v 0.005995 0.400000 0.008252
v 0.009701 0.400000 0.003152
v 0.009701 0.400000 -0.003152
v 0.005995 0.400000 -0.008252
v 0.000000 0.400000 -0.010200
v -0.005995 0.400000 -0.008252
v -0.009701 0.400000 -0.003152
v -0.009701 0.400000 0.003152
v -0.005995 0.400000 0.008252
f 1 2 12
f 1 12 11
f 2 3 13
f 2 13 12
f 3 4 14
f 3 14 13
f 4 5 15
f 4 15 14
f 5 6 16
f 5 16 15
f 6 7 17
f 6 17 16
f 7 8 18
f 7 18 17
f 8 9 19
f 8 19 18
f 9 10 20
f 9 20 19
f 10 1 11
f 10 11 20
v -0.001446 0.400000 0.010097
v 0.001332 0.405436 0.008527
v 0.003602 0.408796 0.003700
v 0.004496 0.408796 -0.002540
v 0.003672 0.405436 -0.007810
v 0.001446 0.400000 -0.010097
v -0.001332 0.394564 -0.008527
v -0.003602 0.391204 -0.003700
v -0.004496 0.391204 0.002540
v -0.003672 0.394564 0.007810
v -0.273680 0.528090 -0.032201
v -0.271790 0.531787 -0.033268
v -0.270247 0.534072 -0.036551
v -0.269639 0.534072 -0.040794
v -0.270199 0.531787 -0.044378
v -0.271712 0.528090 -0.045933
v -0.273602 0.524393 -0.044865
v -0.275145 0.522109 -0.041583
v -0.275753 0.522109 -0.037340
v -0.275193 0.524393 -0.033756
f 21 22 32
f 21 32 31
f 22 23 33
f 22 33 32
f 23 24 34
f 23 34 33
f 24 25 35
f 24 35 34
f 25 26 36
f 25 36 35
f 26 27 37
f 26 37 36
f 27 28 38
f 27 38 37
f 28 29 39
f 28 39 38
f 29 30 40
f 29 40 39
f 30 21 31
f 30 31 40
v -0.273288 0.528090 -0.032156
v -0.274272 0.532016 -0.033570
v -0.274653 0.534442 -0.037083
v -0.274287 0.534442 -0.041354
v -0.273313 0.532016 -0.044752
v -0.272104 0.528090 -0.045977
v -0.271121 0.524165 -0.044564
v -0.270739 0.521739 -0.041050
v -0.271105 0.521739 -0.036779
v -0.272079 0.524165 -0.033382
v -0.486631 0.468011 -0.052666
v -0.487300 0.470680 -0.053628
v -0.487559 0.472330 -0.056017
v -0.487310 0.472330 -0.058921
v -0.486648 0.470680 -0.061231
v -0.485826 0.468011 -0.062065
v -0.485157 0.465341 -0.061103
v -0.484898 0.463692 -0.058714
v -0.485147 0.463692 -0.055810
v -0.485809 0.465341 -0.053500
f 41 42 52
f 41 52 51
f 42 43 53
f 42 53 52
f 43 44 54
f 43 54 53
f 44 45 55
f 44 55 54
f 45 46 56
f 45 56 55
f 46 47 57
f 46 57 56
f 47 48 58
f 47 58 57
f 48 49 59
f 48 59 58
f 49 50 60
f 49 60 59
f 50 41 51
f 50 51 60
v -0.485010 0.468011 -0.052809
v -0.487500 0.469503 -0.053076
v -0.489504 0.470426 -0.054981
v -0.490257 0.470426 -0.057797
v -0.489471 0.469503 -0.060448
v -0.487447 0.468011 -0.061922
v -0.484957 0.466518 -0.061655
v -0.482953 0.465596 -0.059750
v -0.482200 0.465596 -0.056934
v -0.482986 0.466518 -0.054283
v -0.570747 0.329736 -0.031443
v -0.572440 0.330751 -0.031624
v -0.573802 0.331378 -0.032920
v -0.574315 0.331378 -0.034835
v -0.573780 0.330751 -0.036637
v -0.572404 0.329736 -0.037639
v -0.570711 0.328721 -0.037458
v -0.569348 0.328094 -0.036163
v -0.568836 0.328094 -0.034248
v -0.569370 0.328721 -0.032445
f 61 62 72
f 61 72 71
f 62 63 73
f 62 73 72
f 63 64 74
f 63 74 73
f 64 65 75
f 64 75 74
f 65 66 76
f 65 76 75
f 66 67 77
f 66 77 76
f 67 68 78
f 67 78 77
f 68 69 79
f 68 79 78
f 69 70 80
f 69 80 79
f 70 61 71
f 70 71 80
v -0.571575 0.329736 -0.034541
v -0.571335 0.331254 -0.032266
v -0.571787 0.333193 -0.030030
v -0.572815 0.335483 -0.027828
v -0.574284 0.338039 -0.025651
v -0.576035 0.340768 -0.023491
v -0.577894 0.343562 -0.021337
v -0.579683 0.346314 -0.019178
v -0.581230 0.348918 -0.017006
v -0.582380 0.351281 -0.014811
v -0.583007 0.353326 -0.012586
v -0.583023 0.355000 -0.010325
v -0.582381 0.356275 -0.008026
v -0.581082 0.357149 -0.005690
v -0.579171 0.357653 -0.003318
v -0.576738 0.357838 -0.000916
v -0.573908 0.357783 0.001509
v -0.570835 0.357580 0.003948
v -0.567693 0.357335 0.006391
v -0.564658 0.357155 0.008828
v -0.561906 0.357147 0.011249
v -0.559595 0.357407 0.013644
v -0.557859 0.358016 0.016005
v -0.556816 0.359047 0.018327
v -0.557057 0.357529 0.016052
v -0.556604 0.355589 0.013816
v -0.555576 0.353300 0.011614
v -0.554108 0.350744 0.009437
v -0.552357 0.348015 0.007277
v -0.550497 0.345221 0.005123
v -0.548708 0.342469 0.002964
v -0.547162 0.339865 0.000792
v -0.546012 0.337502 -0.001403
v -0.545385 0.335457 -0.003628
v -0.545369 0.333783 -0.005889
v -0.546011 0.332508 -0.008188
v -0.547310 0.331634 -0.010524
v -0.549221 0.331130 -0.012896
v -0.551654 0.330945 -0.015298
v -0.554484 0.331000 -0.017723
v -0.557556 0.331203 -0.020162
v -0.560699 0.331448 -0.022605
v -0.563733 0.331628 -0.025042
v -0.566485 0.331636 -0.027463
v -0.568797 0.331376 -0.029858
v -0.570532 0.330767 -0.032219
f 81 82 83
f 81 83 82
f 81 83 84
f 81 84 83
f 81 84 85
f 81 85 84
f 81 85 86
f 81 86 85
f 81 86 87
f 81 87 86
f 81 87 88
f 81 88 87
f 81 88 89
f 81 89 88
f 81 89 90
f 81 90 89
f 81 90 91
f 81 91 90
f 81 91 92
f 81 92 91
f 81 92 93
f 81 93 92
f 81 93 94
f 81 94 93
f 81 94 95
f 81 95 94
f 81 95 96
f 81 96 95
f 81 96 97
f 81 97 96
f 81 97 98
f 81 98 97
f 81 98 99
f 81 99 98
f 81 99 100
f 81 100 99
f 81 100 101
f 81 101 100
f 81 101 102
f 81 102 101
f 81 102 103
f 81 103 102
f 81 103 104
f 81 104 103
f 81 104 105
f 81 105 104
f 81 105 106
f 81 106 105
f 81 106 107
f 81 107 106
f 81 107 108
f 81 108 107
f 81 108 109
f 81 109 108
f 81 109 110
f 81 110 109
f 81 110 111
f 81 111 110
f 81 111 112
f 81 112 111
f 81 112 113
f 81 113 112
f 81 113 114
f 81 114 113
f 81 114 115
f 81 115 114
f 81 115 116
f 81 116 115
f 81 116 117
f 81 117 116
f 81 117 118
f 81 118 117
f 81 118 119
f 81 119 118
f 81 119 120
f 81 120 119
f 81 120 121
f 81 121 120
f 81 121 122
f 81 122 121
f 81 122 123
f 81 123 122
f 81 123 124
f 81 124 123
f 81 124 125
f 81 125 124
f 81 125 126
f 81 126 125
v -0.571575 0.329736 -0.034541
v -0.572688 0.332097 -0.035465
v -0.573761 0.334307 -0.037150
v -0.574798 0.336381 -0.039523
v -0.575806 0.338346 -0.042453
v -0.576794 0.340236 -0.045762
v -0.577773 0.342091 -0.049245
v -0.578754 0.343956 -0.052682
v -0.579749 0.345873 -0.055854
v -0.580769 0.347881 -0.058563
v -0.581821 0.350012 -0.060647
v -0.582911 0.352290 -0.061989
v -0.584044 0.354726 -0.062529
v -0.585219 0.357321 -0.062266
v -0.586432 0.360062 -0.061262
v -0.587678 0.362926 -0.059631
v -0.588947 0.365881 -0.057539
v -0.590231 0.368889 -0.055182
v -0.591517 0.371906 -0.052778
v -0.592795 0.374888 -0.050548
v -0.594052 0.377796 -0.048698
v -0.595280 0.380594 -0.047404
v -0.596472 0.383256 -0.046798
v -0.597625 0.385768 -0.046954
v -0.596512 0.383407 -0.046030
v -0.595440 0.381197 -0.044345
v -0.594403 0.379123 -0.041972
v -0.593395 0.377158 -0.039043
v -0.592407 0.375268 -0.035733
v -0.591428 0.373413 -0.032250
v -0.590446 0.371548 -0.028814
v -0.589451 0.369631 -0.025642
v -0.588432 0.367623 -0.022932
v -0.587380 0.365492 -0.020848
v -0.586289 0.363214 -0.019506
v -0.585156 0.360778 -0.018966
v -0.583982 0.358183 -0.019229
v -0.582769 0.355442 -0.020233
v -0.581523 0.352578 -0.021864
v -0.580253 0.349623 -0.023956
v -0.578969 0.346615 -0.026313
v -0.577683 0.343598 -0.028717
v -0.576406 0.340616 -0.030947
v -0.575149 0.337708 -0.032797
v -0.573920 0.334910 -0.034091
v -0.572728 0.332248 -0.034697
f 127 128 129
f 127 129 128
f 127 129 130
f 127 130 129
f 127 130 131
f 127 131 130
f 127 131 132
f 127 132 131
f 127 132 133
f 127 133 132
f 127 133 134
f 127 134 133
f 127 134 135
f 127 135 134
f 127 135 136
f 127 136 135
f 127 136 137
f 127 137 136
f 127 137 138
f 127 138 137
f 127 138 139
f 127 139 138
f 127 139 140
f 127 140 139
f 127 140 141
f 127 141 140
f 127 141 142
f 127 142 141
f 127 142 143
f 127 143 142
f 127 143 144
f 127 144 143
f 127 144 145
f 127 145 144
f 127 145 146
f 127 146 145
f 127 146 147
f 127 147 146
f 127 147 148
f 127 148 147
f 127 148 149
f 127 149 148
f 127 149 150
f 127 150 149
f 127 150 151
f 127 151 150
f 127 151 152
f 127 152 151
f 127 152 153
f 127 153 152
f 127 153 154
f 127 154 153
f 127 154 155
f 127 155 154
f 127 155 156
f 127 156 155
f 127 156 157
f 127 157 156
f 127 157 158
f 127 158 157
f 127 158 159
f 127 159 158
f 127 159 160
f 127 160 159
f 127 160 161
f 127 161 160
f 127 161 162
f 127 162 161
f 127 162 163
f 127 163 162
f 127 163 164
f 127 164 163
f 127 164 165
f 127 165 164
f 127 165 166
f 127 166 165
f 127 166 167
f 127 167 166
f 127 167 168
f 127 168 167
f 127 168 169
f 127 169 168
f 127 169 170
f 127 170 169
f 127 170 171
f 127 171 170
f 127 171 172
f 127 172 171
v -0.571575 0.329736 -0.034541
v -0.569809 0.330134 -0.036553
v -0.567897 0.330460 -0.038453
v -0.565642 0.330618 -0.040091
v -0.562873 0.330524 -0.041336
v -0.559506 0.330136 -0.042123
v -0.555582 0.329475 -0.042484
v -0.551273 0.328624 -0.042550
v -0.546861 0.327723 -0.042536
v -0.542686 0.326939 -0.042705
v -0.539089 0.326438 -0.043316
v -0.536341 0.326354 -0.044576
v -0.534592 0.326760 -0.046601
v -0.533841 0.327657 -0.049391
v -0.533940 0.328970 -0.052830
v -0.534615 0.330566 -0.056711
v -0.535529 0.332280 -0.060775
v -0.536339 0.333942 -0.064759
v -0.536765 0.335416 -0.068448
v -0.536633 0.336616 -0.071711
v -0.535903 0.337523 -0.074517
v -0.534659 0.338177 -0.076929
v -0.533073 0.338663 -0.079078
v -0.531341 0.339078 -0.081117
v -0.533107 0.338680 -0.079105
v -0.535020 0.338354 -0.077204
v -0.537275 0.338196 -0.075566
v -0.540044 0.338291 -0.074322
v -0.543410 0.338678 -0.073535
v -0.547334 0.339340 -0.073174
v -0.551643 0.340190 -0.073108
v -0.556055 0.341091 -0.073121
v -0.560230 0.341875 -0.072953
v -0.563827 0.342376 -0.072342
v -0.566575 0.342460 -0.071082
v -0.568325 0.342054 -0.069057
v -0.569075 0.341158 -0.066267
v -0.568976 0.339844 -0.062827
v -0.568301 0.338248 -0.058946
v -0.567387 0.336534 -0.054883
v -0.566577 0.334872 -0.050899
v -0.566152 0.333398 -0.047210
v -0.566283 0.332198 -0.043947
v -0.567013 0.331291 -0.041141
v -0.568257 0.330637 -0.038729
v -0.569843 0.330151 -0.036579
f 173 174 175
f 173 175 174
f 173 175 176
f 173 176 175
f 173 176 177
f 173 177 176
f 173 177 178
f 173 178 177
f 173 178 179
f 173 179 178
f 173 179 180
f 173 180 179
f 173 180 181
f 173 181 180
f 173 181 182
f 173 182 181
f 173 182 183
f 173 183 182
f 173 183 184
f 173 184 183
f 173 184 185
f 173 185 184
f 173 185 186
f 173 186 185
f 173 186 187
f 173 187 186
f 173 187 188
f 173 188 187
f 173 188 189
f 173 189 188
f 173 189 190
f 173 190 189
f 173 190 191
f 173 191 190
f 173 191 192
f 173 192 191
f 173 192 193
f 173 193 192
f 173 193 194
f 173 194 193
f 173 194 195
f 173 195 194
f 173 195 196
f 173 196 195
f 173 196 197
f 173 197 196
f 173 197 198
f 173 198 197
f 173 198 199
f 173 199 198
f 173 199 200
f 173 200 199
f 173 200 201
f 173 201 200
f 173 201 202
f 173 202 201
f 173 202 203
f 173 203 202
f 173 203 204
f 173 204 203
f 173 204 205
f 173 205 204
f 173 205 206
f 173 206 205
f 173 206 207
f 173 207 206
f 173 207 208
f 173 208 207
f 173 208 209
f 173 209 208
f 173 209 210
f 173 210 209
f 173 210 211
f 173 211 210
f 173 211 212
f 173 212 211
f 173 212 213
f 173 213 212
f 173 213 214
f 173 214 213
f 173 214 215
f 173 215 214
f 173 215 216
f 173 216 215
f 173 216 217
f 173 217 216
f 173 217 218
f 173 218 217
