o mesh
v 0.000000 0.000000 0.015000
v 0.008817 0.000000 0.012135
v 0.014266 0.000000 0.004635
v 0.014266 0.000000 -0.004635
v 0.008817 0.000000 -0.012135
v 0.000000 0.000000 -0.015000
v -0.008817 0.000000 -0.012135
v -0.014266 0.000000 -0.004635
v -0.014266 0.000000 0.004635
v -0.008817 0.000000 0.012135
v 0.000000 0.400000 0.010200
v 0.005995 0.400000 0.008252
v 0.009701 0.400000 0.003152
v 0.009701 0.400000 -0.003152
v 0.005995 0.400000 -0.008252
v 0.000000 0.400000 -0.010200
v -0.005995 0.400000 -0.008252
v -0.009701 0.400000 -0.003152
v -0.009701 0.400000 0.003152
v -0.005995 0.400000 0.008252
f 1 2 12
f 1 12 11
f 2 3 13
f 2 13 12
f 3 4 14
f 3 14 13
f 4 5 15
f 4 15 14
f 5 6 16
f 5 16 15
f 6 7 17
f 6 17 16
f 7 8 18
f 7 18 17
f 8 9 19
f 8 19 18
f 9 10 20
f 9 20 19
f 10 1 11
f 10 11 20
v -0.002715 0.400000 0.009832
v 0.002354 0.403696 0.009211
v 0.006524 0.405980 0.005072
v 0.008202 0.405980 -0.001005
v 0.006747 0.403696 -0.006698
v 0.002715 0.400000 -0.009832
v -0.002354 0.396304 -0.009211
v -0.006524 0.394020 -0.005072
v -0.008202 0.394020 0.001005
v -0.006747 0.396304 0.006698
v -0.199028 0.661325 -0.047768
v -0.195581 0.663838 -0.048191
v -0.192745 0.665391 -0.051005
v -0.191604 0.665391 -0.055137
v -0.192593 0.663838 -0.059008
v -0.195335 0.661325 -0.061140
v -0.198782 0.658812 -0.060718
v -0.201618 0.657258 -0.057903
v -0.202759 0.657258 -0.053771
v -0.201770 0.658812 -0.049900
f 21 22 32
f 21 32 31
f 22 23 33
f 22 33 32
f 23 24 34
f 23 34 33
f 24 25 35
f 24 35 34
f 25 26 36
f 25 36 35
f 26 27 37
f 26 37 36
f 27 28 38
f 27 38 37
f 28 29 39
f 28 39 38
f 29 30 40
f 29 40 39
f 30 21 31
f 30 31 40
v -0.198163 0.661325 -0.047588
v -0.199189 0.665213 -0.049073
v -0.199448 0.667616 -0.052613
v -0.198841 0.667616 -0.056857
v -0.197600 0.665213 -0.060182
v -0.196200 0.661325 -0.061320
v -0.195174 0.657436 -0.059835
v -0.194915 0.655033 -0.056295
v -0.195522 0.655033 -0.052052
v -0.196762 0.657436 -0.048726
v -0.469430 0.574845 -0.088622
v -0.470128 0.577489 -0.089632
v -0.470304 0.579123 -0.092040
v -0.469891 0.579123 -0.094925
v -0.469047 0.577489 -0.097187
v -0.468095 0.574845 -0.097960
v -0.467397 0.572201 -0.096951
v -0.467221 0.570567 -0.094543
v -0.467634 0.570567 -0.091658
v -0.468477 0.572201 -0.089396
f 41 42 52
f 41 52 51
f 42 43 53
f 42 53 52
f 43 44 54
f 43 54 53
f 44 45 55
f 44 55 54
f 45 46 56
f 45 56 55
f 46 47 57
f 46 57 56
f 47 48 58
f 47 58 57
f 48 49 59
f 48 59 58
f 49 50 60
f 49 60 59
f 50 41 51
f 50 51 60
v -0.468762 0.574426 -0.097989
v -0.466093 0.573761 -0.097026
v -0.464443 0.573509 -0.094636
v -0.464443 0.573768 -0.091732
v -0.466093 0.574438 -0.089424
v -0.468762 0.575263 -0.088594
v -0.471432 0.575929 -0.089557
v -0.473081 0.576180 -0.091947
v -0.473081 0.575922 -0.094851
v -0.471432 0.575252 -0.097158
v -0.532192 0.349243 -0.076414
v -0.530377 0.348790 -0.075759
v -0.529255 0.348619 -0.074134
v -0.529255 0.348795 -0.072159
v -0.530377 0.349251 -0.070590
v -0.532192 0.349812 -0.070025
v -0.534007 0.350265 -0.070680
v -0.535129 0.350436 -0.072305
v -0.535129 0.350260 -0.074280
v -0.534007 0.349804 -0.075849
f 61 62 72
f 61 72 71
f 62 63 73
f 62 73 72
f 63 64 74
f 63 74 73
f 64 65 75
f 64 75 74
f 65 66 76
f 65 76 75
f 66 67 77
f 66 77 76
f 67 68 78
f 67 78 77
f 68 69 79
f 68 79 78
f 69 70 80
f 69 80 79
f 70 61 71
f 70 71 80
v -0.532192 0.349528 -0.073220
v -0.531811 0.350513 -0.075253
v -0.530937 0.351357 -0.077305
v -0.529493 0.352040 -0.079380
v -0.527510 0.352568 -0.081477
v -0.525095 0.352974 -0.083591
v -0.522416 0.353304 -0.085715
v -0.519677 0.353617 -0.087842
v -0.517097 0.353975 -0.089962
v -0.514888 0.354439 -0.092068
v -0.513233 0.355061 -0.094151
v -0.512264 0.355879 -0.096208
v -0.512050 0.356911 -0.098234
v -0.512592 0.358160 -0.100230
v -0.513819 0.359603 -0.102199
v -0.515600 0.361205 -0.104146
v -0.517752 0.362912 -0.106078
v -0.520064 0.364665 -0.108004
v -0.522315 0.366400 -0.109933
v -0.524302 0.368060 -0.111871
v -0.525857 0.369598 -0.113827
v -0.526873 0.370981 -0.115805
v -0.527319 0.372202 -0.117805
v -0.527273 0.373282 -0.119824
v -0.527654 0.372297 -0.117792
v -0.528528 0.371453 -0.115739
v -0.529972 0.370770 -0.113664
v -0.531955 0.370242 -0.111567
v -0.534369 0.369836 -0.109453
v -0.537049 0.369506 -0.107329
v -0.539788 0.369193 -0.105202
v -0.542368 0.368835 -0.103082
v -0.544576 0.368371 -0.100976
v -0.546232 0.367749 -0.098893
v -0.547201 0.366931 -0.096837
v -0.547415 0.365899 -0.094810
v -0.546873 0.364650 -0.092814
v -0.545646 0.363207 -0.090845
v -0.543865 0.361605 -0.088898
v -0.541713 0.359898 -0.086966
v -0.539401 0.358145 -0.085040
v -0.537149 0.356410 -0.083112
v -0.535163 0.354750 -0.081173
v -0.533607 0.353212 -0.079217
v -0.532591 0.351829 -0.077239
v -0.532145 0.350608 -0.075239
f 81 82 83
f 81 83 82
f 81 83 84
f 81 84 83
f 81 84 85
f 81 85 84
f 81 85 86
f 81 86 85
f 81 86 87
f 81 87 86
f 81 87 88
f 81 88 87
f 81 88 89
f 81 89 88
f 81 89 90
f 81 90 89
f 81 90 91
f 81 91 90
f 81 91 92
f 81 92 91
f 81 92 93
f 81 93 92
f 81 93 94
f 81 94 93
f 81 94 95
f 81 95 94
f 81 95 96
f 81 96 95
f 81 96 97
f 81 97 96
f 81 97 98
f 81 98 97
f 81 98 99
f 81 99 98
f 81 99 100
f 81 100 99
f 81 100 101
f 81 101 100
f 81 101 102
f 81 102 101
f 81 102 103
f 81 103 102
f 81 103 104
f 81 104 103
f 81 104 105
f 81 105 104
f 81 105 106
f 81 106 105
f 81 106 107
f 81 107 106
f 81 107 108
f 81 108 107
f 81 108 109
f 81 109 108
f 81 109 110
f 81 110 109
f 81 110 111
f 81 111 110
f 81 111 112
f 81 112 111
f 81 112 113
f 81 113 112
f 81 113 114
f 81 114 113
f 81 114 115
f 81 115 114
f 81 115 116
f 81 116 115
f 81 116 117
f 81 117 116
f 81 117 118
f 81 118 117
f 81 118 119
f 81 119 118
f 81 119 120
f 81 120 119
f 81 120 121
f 81 121 120
f 81 121 122
f 81 122 121
f 81 122 123
f 81 123 122
f 81 123 124
f 81 124 123
f 81 124 125
f 81 125 124
f 81 125 126
f 81 126 125
v -0.532192 0.349528 -0.073220
v -0.531709 0.351349 -0.070837
v -0.531739 0.353317 -0.068432
v -0.532487 0.355490 -0.065996
v -0.534003 0.357881 -0.063526
v -0.536201 0.360468 -0.061027
v -0.538882 0.363192 -0.058506
v -0.541760 0.365973 -0.055976
v -0.544503 0.368715 -0.053453
v -0.546772 0.371322 -0.050950
v -0.548270 0.373709 -0.048481
v -0.548771 0.375811 -0.046055
v -0.548158 0.377595 -0.043679
v -0.546430 0.379061 -0.041351
v -0.543706 0.380243 -0.039067
v -0.540210 0.381204 -0.036816
v -0.536240 0.382030 -0.034587
v -0.532135 0.382818 -0.032363
v -0.528228 0.383662 -0.030131
v -0.524803 0.384644 -0.027877
v -0.522061 0.385820 -0.025594
v -0.520086 0.387216 -0.023277
v -0.518829 0.388816 -0.020928
v -0.518086 0.390563 -0.018557
v -0.518569 0.388742 -0.020940
v -0.518539 0.386774 -0.023345
v -0.517790 0.384601 -0.025781
v -0.516275 0.382210 -0.028251
v -0.514076 0.379623 -0.030750
v -0.511396 0.376899 -0.033271
v -0.508517 0.374118 -0.035801
v -0.505775 0.371376 -0.038324
v -0.503505 0.368769 -0.040827
v -0.502008 0.366382 -0.043296
v -0.501506 0.364280 -0.045722
v -0.502119 0.362496 -0.048098
v -0.503848 0.361030 -0.050426
v -0.506572 0.359848 -0.052710
v -0.510068 0.358887 -0.054961
v -0.514037 0.358061 -0.057190
v -0.518142 0.357273 -0.059414
v -0.522049 0.356429 -0.061646
v -0.525474 0.355447 -0.063900
v -0.528217 0.354271 -0.066183
v -0.530192 0.352875 -0.068500
v -0.531448 0.351275 -0.070849
f 127 128 129
f 127 129 128
f 127 129 130
f 127 130 129
f 127 130 131
f 127 131 130
f 127 131 132
f 127 132 131
f 127 132 133
f 127 133 132
f 127 133 134
f 127 134 133
f 127 134 135
f 127 135 134
f 127 135 136
f 127 136 135
f 127 136 137
f 127 137 136
f 127 137 138
f 127 138 137
f 127 138 139
f 127 139 138
f 127 139 140
f 127 140 139
f 127 140 141
f 127 141 140
f 127 141 142
f 127 142 141
f 127 142 143
f 127 143 142
f 127 143 144
f 127 144 143
f 127 144 145
f 127 145 144
f 127 145 146
f 127 146 145
f 127 146 147
f 127 147 146
f 127 147 148
f 127 148 147
f 127 148 149
f 127 149 148
f 127 149 150
f 127 150 149
f 127 150 151
f 127 151 150
f 127 151 152
f 127 152 151
f 127 152 153
f 127 153 152
f 127 153 154
f 127 154 153
f 127 154 155
f 127 155 154
f 127 155 156
f 127 156 155
f 127 156 157
f 127 157 156
f 127 157 158
f 127 158 157
f 127 158 159
f 127 159 158
f 127 159 160
f 127 160 159
f 127 160 161
f 127 161 160
f 127 161 162
f 127 162 161
f 127 162 163
f 127 163 162
f 127 163 164
f 127 164 163
f 127 164 165
f 127 165 164
f 127 165 166
f 127 166 165
f 127 166 167
f 127 167 166
f 127 167 168
f 127 168 167
f 127 168 169
f 127 169 168
f 127 169 170
f 127 170 169
f 127 170 171
f 127 171 170
f 127 171 172
f 127 172 171
v 0.001277 0.400000 -0.010120
v -0.002491 0.404830 -0.008632
v -0.005308 0.407815 -0.003847
v -0.006097 0.407815 0.002408
v -0.004558 0.404830 0.007742
v -0.001277 0.400000 0.010120
v 0.002491 0.395170 0.008632
v 0.005308 0.392185 0.003847
v 0.006097 0.392185 -0.002408
v 0.004558 0.395170 -0.007742
v 0.258261 0.590823 0.025601
v 0.255699 0.594107 0.026613
v 0.253783 0.596137 0.029867
v 0.253246 0.596137 0.034120
v 0.254293 0.594107 0.037747
v 0.256524 0.590823 0.039364
v 0.259087 0.587539 0.038352
v 0.261002 0.585509 0.035099
v 0.261539 0.585509 0.030846
v 0.260492 0.587539 0.027218
f 173 174 184
f 173 184 183
f 174 175 185
f 174 185 184
f 175 176 186
f 175 186 185
f 176 177 187
f 176 187 186
f 177 178 188
f 177 188 187
f 178 179 189
f 178 189 188
f 179 180 190
f 179 190 189
f 180 181 191
f 180 191 190
f 181 182 192
f 181 192 191
f 182 173 183
f 182 183 192
v 0.257913 0.590823 0.025566
v 0.259285 0.594623 0.026998
v 0.259933 0.596972 0.030524
v 0.259612 0.596972 0.034799
v 0.258442 0.594623 0.038189
v 0.256872 0.590823 0.039399
v 0.255501 0.587022 0.037967
v 0.254852 0.584673 0.034441
v 0.255173 0.584673 0.030166
v 0.256343 0.587022 0.026776
v 0.508597 0.493190 0.046657
v 0.509529 0.495775 0.047630
v 0.509971 0.497372 0.050028
v 0.509752 0.497372 0.052935
v 0.508957 0.495775 0.055240
v 0.507889 0.493190 0.056063
v 0.506956 0.490606 0.055089
v 0.506515 0.489008 0.052691
v 0.506734 0.489008 0.049785
v 0.507529 0.490606 0.047480
f 193 194 204
f 193 204 203
f 194 195 205
f 194 205 204
f 195 196 206
f 195 206 205
f 196 197 207
f 196 207 206
f 197 198 208
f 197 208 207
f 198 199 209
f 198 209 208
f 199 200 210
f 199 210 209
f 200 201 211
f 200 211 210
f 201 202 212
f 201 212 211
f 202 193 203
f 202 203 212
v 0.508243 0.493862 0.046691
v 0.510915 0.494465 0.047688
v 0.512566 0.494580 0.050087
v 0.512566 0.494165 0.052973
v 0.510915 0.493377 0.055242
v 0.508243 0.492518 0.056028
v 0.505571 0.491916 0.055031
v 0.503919 0.491800 0.052632
v 0.503919 0.492215 0.049747
v 0.505571 0.493003 0.047478
v 0.568895 0.276386 0.016906
v 0.570712 0.276796 0.017584
v 0.571835 0.276874 0.019215
v 0.571835 0.276592 0.021177
v 0.570712 0.276056 0.022720
v 0.568895 0.275472 0.023255
v 0.567078 0.275062 0.022577
v 0.565955 0.274984 0.020945
v 0.565955 0.275266 0.018984
v 0.567078 0.275802 0.017440
f 213 214 224
f 213 224 223
f 214 215 225
f 214 225 224
f 215 216 226
f 215 226 225
f 216 217 227
f 216 227 226
f 217 218 228
f 217 228 227
f 218 219 229
f 218 229 228
f 219 220 230
f 219 230 229
f 220 221 231
f 220 231 230
f 221 222 232
f 221 232 231
f 222 213 223
f 222 223 232
v 0.568895 0.275929 0.020080
v 0.568621 0.277352 0.018095
v 0.568787 0.278898 0.016109
v 0.569546 0.280611 0.014121
v 0.570920 0.282495 0.012131
v 0.572828 0.284528 0.010140
v 0.575104 0.286664 0.008147
v 0.577516 0.288838 0.006154
v 0.579803 0.290978 0.004161
v 0.581703 0.293009 0.002169
v 0.582982 0.294866 0.000180
v 0.583470 0.296503 -0.001807
v 0.583075 0.297892 -0.003792
v 0.581798 0.299035 -0.005774
v 0.579729 0.299956 -0.007753
v 0.577041 0.300704 -0.009730
v 0.573964 0.301344 -0.011706
v 0.570762 0.301948 -0.013682
v 0.567698 0.302591 -0.015658
v 0.565000 0.303337 -0.017636
v 0.562837 0.304232 -0.019615
v 0.561288 0.305299 -0.021595
v 0.560332 0.306531 -0.023578
v 0.559818 0.307887 -0.025562
v 0.560093 0.306464 -0.023577
v 0.559926 0.304918 -0.021591
v 0.559167 0.303206 -0.019603
v 0.557793 0.301322 -0.017613
v 0.555885 0.299288 -0.015622
v 0.553610 0.297152 -0.013629
v 0.551197 0.294978 -0.011636
v 0.548910 0.292839 -0.009643
v 0.547011 0.290808 -0.007651
v 0.545731 0.288950 -0.005662
v 0.545243 0.287314 -0.003675
v 0.545638 0.285924 -0.001690
v 0.546915 0.284782 0.000292
v 0.548984 0.283860 0.002271
v 0.551673 0.283112 0.004248
v 0.554749 0.282472 0.006224
v 0.557951 0.281868 0.008200
v 0.561016 0.281225 0.010176
v 0.563713 0.280479 0.012154
v 0.565877 0.279584 0.014133
v 0.567425 0.278517 0.016113
v 0.568381 0.277285 0.018096
f 233 234 235
f 233 235 234
f 233 235 236
f 233 236 235
f 233 236 237
f 233 237 236
f 233 237 238
f 233 238 237
f 233 238 239
f 233 239 238
f 233 239 240
f 233 240 239
f 233 240 241
f 233 241 240
f 233 241 242
f 233 242 241
f 233 242 243
f 233 243 242
f 233 243 244
f 233 244 243
f 233 244 245
f 233 245 244
f 233 245 246
f 233 246 245
f 233 246 247
f 233 247 246
f 233 247 248
f 233 248 247
f 233 248 249
f 233 249 248
f 233 249 250
f 233 250 249
f 233 250 251
f 233 251 250
f 233 251 252
f 233 252 251
f 233 252 253
f 233 253 252
f 233 253 254
f 233 254 253
f 233 254 255
f 233 255 254
f 233 255 256
f 233 256 255
f 233 256 257
f 233 257 256
f 233 257 258
f 233 258 257
f 233 258 259
f 233 259 258
f 233 259 260
f 233 260 259
f 233 260 261
f 233 261 260
f 233 261 262
f 233 262 261
f 233 262 263
f 233 263 262
f 233 263 264
f 233 264 263
f 233 264 265
f 233 265 264
f 233 265 266
f 233 266 265
f 233 266 267
f 233 267 266
f 233 267 268
f 233 268 267
f 233 268 269
f 233 269 268
f 233 269 270
f 233 270 269
f 233 270 271
f 233 271 270
f 233 271 272
f 233 272 271
f 233 272 273
f 233 273 272
f 233 273 274
f 233 274 273
f 233 274 275
f 233 275 274
f 233 275 276
f 233 276 275
f 233 276 277
f 233 277 276
f 233 277 278
f 233 278 277
v 0.568895 0.275929 0.020080
v 0.570835 0.277562 0.021795
v 0.572512 0.279052 0.023994
v 0.573836 0.280350 0.026844
v 0.574792 0.281447 0.030371
v 0.575430 0.282371 0.034487
v 0.575848 0.283175 0.039009
v 0.576183 0.283934 0.043682
v 0.576593 0.284734 0.048219
v 0.577234 0.285660 0.052329
v 0.578244 0.286787 0.055757
v 0.579728 0.288171 0.058313
v 0.581738 0.289843 0.059896
v 0.584276 0.291802 0.060507
v 0.587286 0.294018 0.060246
v 0.590666 0.296436 0.059303
v 0.594277 0.298980 0.057933
v 0.597963 0.301564 0.056426
v 0.601566 0.304103 0.055072
v 0.604949 0.306523 0.054122
v 0.608013 0.308769 0.053762
v 0.610710 0.310814 0.054079
v 0.613054 0.312668 0.055047
v 0.615136 0.314378 0.056499
v 0.613197 0.312745 0.054784
v 0.611520 0.311255 0.052586
v 0.610196 0.309958 0.049736
v 0.609239 0.308860 0.046208
v 0.608601 0.307936 0.042092
v 0.608184 0.307132 0.037571
v 0.607848 0.306373 0.032897
v 0.607439 0.305573 0.028360
v 0.606798 0.304648 0.024250
v 0.605787 0.303521 0.020822
v 0.604304 0.302136 0.018266
v 0.602293 0.300464 0.016683
v 0.599756 0.298505 0.016072
v 0.596745 0.296289 0.016333
v 0.593365 0.293871 0.017276
v 0.589754 0.291327 0.018646
v 0.586068 0.288743 0.020153
v 0.582465 0.286204 0.021508
v 0.579082 0.283784 0.022457
v 0.576018 0.281539 0.022817
v 0.573321 0.279493 0.022501
v 0.570977 0.277639 0.021533
f 279 280 281
f 279 281 280
f 279 281 282
f 279 282 281
f 279 282 283
f 279 283 282
f 279 283 284
f 279 284 283
f 279 284 285
f 279 285 284
f 279 285 286
f 279 286 285
f 279 286 287
f 279 287 286
f 279 287 288
f 279 288 287
f 279 288 289
f 279 289 288
f 279 289 290
f 279 290 289
f 279 290 291
f 279 291 290
f 279 291 292
f 279 292 291
f 279 292 293
f 279 293 292
f 279 293 294
f 279 294 293
f 279 294 295
f 279 295 294
f 279 295 296
f 279 296 295
f 279 296 297
f 279 297 296
f 279 297 298
f 279 298 297
f 279 298 299
f 279 299 298
f 279 299 300
f 279 300 299
f 279 300 301
f 279 301 300
f 279 301 302
f 279 302 301
f 279 302 303
f 279 303 302
f 279 303 304
f 279 304 303
f 279 304 305
f 279 305 304
f 279 305 306
f 279 306 305
f 279 306 307
f 279 307 306
f 279 307 308
f 279 308 307
f 279 308 309
f 279 309 308
f 279 309 310
f 279 310 309
f 279 310 311
f 279 311 310
f 279 311 312
f 279 312 311
f 279 312 313
f 279 313 312
f 279 313 314
f 279 314 313
f 279 314 315
f 279 315 314
f 279 315 316
f 279 316 315
f 279 316 317
f 279 317 316
f 279 317 318
f 279 318 317
f 279 318 319
f 279 319 318
f 279 319 320
f 279 320 319
f 279 320 321
f 279 321 320
f 279 321 322
f 279 322 321
f 279 322 323
f 279 323 322
f 279 323 324
f 279 324 323
v 0.568895 0.275929 0.020080
v 0.565528 0.276600 0.021342
v 0.562059 0.277282 0.022336
v 0.558360 0.277987 0.022723
v 0.554326 0.278725 0.022223
v 0.549909 0.279503 0.020712
v 0.545142 0.280316 0.018273
v 0.540138 0.281153 0.015209
v 0.535077 0.281996 0.011996
v 0.530176 0.282823 0.009204
v 0.525647 0.283612 0.007395
v 0.521658 0.284346 0.007014
v 0.518303 0.285016 0.008309
v 0.515582 0.285622 0.011279
v 0.513401 0.286173 0.015679
v 0.511592 0.286686 0.021060
v 0.509942 0.287183 0.026863
v 0.508236 0.287686 0.032517
v 0.506293 0.288213 0.037546
v 0.504000 0.288775 0.041647
v 0.501324 0.289376 0.044737
v 0.498312 0.290011 0.046939
v 0.495071 0.290670 0.048535
v 0.491728 0.291338 0.049863
v 0.495096 0.290667 0.048602
v 0.498565 0.289986 0.047608
v 0.502263 0.289281 0.047220
v 0.506297 0.288542 0.047720
v 0.510714 0.287764 0.049232
v 0.515482 0.286951 0.051671
v 0.520486 0.286114 0.054735
v 0.525546 0.285271 0.057948
v 0.530447 0.284444 0.060740
v 0.534977 0.283655 0.062549
v 0.538966 0.282921 0.062930
v 0.542321 0.282251 0.061635
v 0.545042 0.281645 0.058664
v 0.547223 0.281094 0.054265
v 0.549032 0.280581 0.048884
v 0.550682 0.280084 0.043081
v 0.552388 0.279581 0.037427
v 0.554330 0.279055 0.032398
v 0.556624 0.278492 0.028296
v 0.559300 0.277891 0.025207
v 0.562312 0.277256 0.023004
v 0.565553 0.276598 0.021409
f 325 326 327
f 325 327 326
f 325 327 328
f 325 328 327
f 325 328 329
f 325 329 328
f 325 329 330
f 325 330 329
f 325 330 331
f 325 331 330
f 325 331 332
f 325 332 331
f 325 332 333
f 325 333 332
f 325 333 334
f 325 334 333
f 325 334 335
f 325 335 334
f 325 335 336
f 325 336 335
f 325 336 337
f 325 337 336
f 325 337 338
f 325 338 337
f 325 338 339
f 325 339 338
f 325 339 340
f 325 340 339
f 325 340 341
f 325 341 340
f 325 341 342
f 325 342 341
f 325 342 343
f 325 343 342
f 325 343 344
f 325 344 343
f 325 344 345
f 325 345 344
f 325 345 346
f 325 346 345
f 325 346 347
f 325 347 346
f 325 347 348
f 325 348 347
f 325 348 349
f 325 349 348
f 325 349 350
f 325 350 349
f 325 350 351
f 325 351 350
f 325 351 352
f 325 352 351
f 325 352 353
f 325 353 352
f 325 353 354
f 325 354 353
f 325 354 355
f 325 355 354
f 325 355 356
f 325 356 355
f 325 356 357
f 325 357 356
f 325 357 358
f 325 358 357
f 325 358 359
f 325 359 358
f 325 359 360
f 325 360 359
f 325 360 361
f 325 361 360
f 325 361 362
f 325 362 361
f 325 362 363
f 325 363 362
f 325 363 364
f 325 364 363
f 325 364 365
f 325 365 364
f 325 365 366
f 325 366 365
f 325 366 367
f 325 367 366
f 325 367 368
f 325 368 367
f 325 368 369
f 325 369 368
f 325 369 370
f 325 370 369
