o mesh
v 0.000000 0.000000 0.015000
v 0.010607 0.000000 0.010607
v 0.015000 0.000000 0.000000
v 0.010607 0.000000 -0.010607
v 0.000000 0.000000 -0.015000
v -0.010607 0.000000 -0.010607
v -0.015000 0.000000 -0.000000
v -0.010607 0.000000 0.010607
v 0.000000 0.040000 0.012000
v 0.008485 0.040000 0.008485
v 0.012000 0.040000 0.000000
v 0.008485 0.040000 -0.008485
v 0.000000 0.040000 -0.012000
v -0.008485 0.040000 -0.008485
v -0.012000 0.040000 -0.000000
v -0.008485 0.040000 0.008485
f 1 2 10
f 1 10 9
f 2 3 11
f 2 11 10
f 3 4 12
f 3 12 11
f 4 5 13
f 4 13 12
f 5 6 14
f 5 14 13
f 6 7 15
f 6 15 14
f 7 8 16
f 7 16 15
f 8 1 9
f 8 9 16
v 0.000000 0.040000 -0.000000
v 0.001246 0.026094 0.009811
v 0.005858 0.012188 0.020064
v 0.012897 -0.001718 0.030636
v 0.021623 -0.015625 0.041428
v 0.031295 -0.029531 0.052345
v 0.041168 -0.043437 0.063288
v 0.050516 -0.057343 0.074162
v 0.058666 -0.071249 0.084879
v 0.065028 -0.085155 0.095361
v 0.069132 -0.099061 0.105548
v 0.070646 -0.112968 0.115394
v 0.069402 -0.126874 0.124879
v 0.065399 -0.140780 0.134002
v 0.058808 -0.154686 0.142785
v 0.049957 -0.168592 0.151272
v 0.039319 -0.182498 0.159525
v 0.027482 -0.196404 0.167620
v 0.015121 -0.210311 0.175646
v 0.002961 -0.224217 0.183699
v -0.008253 -0.238123 0.191876
v -0.017781 -0.252029 0.200274
v -0.024881 -0.265935 0.208991
v -0.028615 -0.279841 0.218149
v -0.029861 -0.265935 0.208338
v -0.034473 -0.252029 0.198085
v -0.041512 -0.238123 0.187514
v -0.050238 -0.224217 0.176721
v -0.059910 -0.210311 0.165804
v -0.069783 -0.196404 0.154861
v -0.079131 -0.182498 0.143987
v -0.087281 -0.168592 0.133270
v -0.093644 -0.154686 0.122788
v -0.097747 -0.140780 0.112602
v -0.099261 -0.126874 0.102755
v -0.098017 -0.112968 0.093270
v -0.094015 -0.099061 0.084147
v -0.087423 -0.085155 0.075364
v -0.078572 -0.071249 0.066877
v -0.067934 -0.057343 0.058625
v -0.056097 -0.043437 0.050529
v -0.043736 -0.029531 0.042503
v -0.031576 -0.015625 0.034450
v -0.020362 -0.001718 0.026273
v -0.010834 0.012188 0.017875
v -0.003734 0.026094 0.009158
f 17 18 19
f 17 19 18
f 17 19 20
f 17 20 19
f 17 20 21
f 17 21 20
f 17 21 22
f 17 22 21
f 17 22 23
f 17 23 22
f 17 23 24
f 17 24 23
f 17 24 25
f 17 25 24
f 17 25 26
f 17 26 25
f 17 26 27
f 17 27 26
f 17 27 28
f 17 28 27
f 17 28 29
f 17 29 28
f 17 29 30
f 17 30 29
f 17 30 31
f 17 31 30
f 17 31 32
f 17 32 31
f 17 32 33
f 17 33 32
f 17 33 34
f 17 34 33
f 17 34 35
f 17 35 34
f 17 35 36
f 17 36 35
f 17 36 37
f 17 37 36
f 17 37 38
f 17 38 37
f 17 38 39
f 17 39 38
f 17 39 40
f 17 40 39
f 17 40 41
f 17 41 40
f 17 41 42
f 17 42 41
f 17 42 43
f 17 43 42
f 17 43 44
f 17 44 43
f 17 44 45
f 17 45 44
f 17 45 46
f 17 46 45
f 17 46 47
f 17 47 46
f 17 47 48
f 17 48 47
f 17 48 49
f 17 49 48
f 17 49 50
f 17 50 49
f 17 50 51
f 17 51 50
f 17 51 52
f 17 52 51
f 17 52 53
f 17 53 52
f 17 53 54
f 17 54 53
f 17 54 55
f 17 55 54
f 17 55 56
f 17 56 55
f 17 56 57
f 17 57 56
f 17 57 58
f 17 58 57
f 17 58 59
f 17 59 58
f 17 59 60
f 17 60 59
f 17 60 61
f 17 61 60
f 17 61 62
f 17 62 61
v 0.000000 0.040000 -0.000000
v 0.012968 0.030163 0.002890
v 0.027336 0.020327 0.004262
v 0.042167 0.010490 0.005131
v 0.057079 0.000654 0.005913
v 0.071784 -0.009183 0.006918
v 0.086047 -0.019020 0.008404
v 0.099662 -0.028856 0.010592
v 0.112458 -0.038693 0.013669
v 0.124295 -0.048529 0.017787
v 0.135063 -0.058366 0.023063
v 0.144691 -0.068203 0.029576
v 0.153141 -0.078039 0.037367
v 0.160414 -0.087876 0.046434
v 0.166546 -0.097712 0.056739
v 0.171610 -0.107549 0.068202
v 0.175714 -0.117386 0.080707
v 0.178999 -0.127222 0.094100
v 0.181638 -0.137059 0.108195
v 0.183832 -0.146895 0.122770
v 0.185822 -0.156732 0.137569
v 0.187890 -0.166569 0.152282
v 0.190423 -0.176405 0.166490
v 0.194356 -0.186242 0.179181
v 0.181388 -0.176405 0.176291
v 0.167020 -0.166569 0.174919
v 0.152188 -0.156732 0.174051
v 0.137277 -0.146895 0.173268
v 0.122572 -0.137059 0.172263
v 0.108309 -0.127222 0.170777
v 0.094694 -0.117386 0.168589
v 0.081897 -0.107549 0.165513
v 0.070061 -0.097712 0.161395
v 0.059293 -0.087876 0.156119
v 0.049665 -0.078039 0.149605
v 0.041215 -0.068203 0.141815
v 0.033942 -0.058366 0.132747
v 0.027810 -0.048529 0.122442
v 0.022746 -0.038693 0.110979
v 0.018641 -0.028856 0.098475
v 0.015356 -0.019020 0.085081
v 0.012718 -0.009183 0.070987
v 0.010523 0.000654 0.056411
v 0.008534 0.010490 0.041612
v 0.006465 0.020327 0.026900
v 0.003932 0.030163 0.012691
f 63 64 65
f 63 65 64
f 63 65 66
f 63 66 65
f 63 66 67
f 63 67 66
f 63 67 68
f 63 68 67
f 63 68 69
f 63 69 68
f 63 69 70
f 63 70 69
f 63 70 71
f 63 71 70
f 63 71 72
f 63 72 71
f 63 72 73
f 63 73 72
f 63 73 74
f 63 74 73
f 63 74 75
f 63 75 74
f 63 75 76
f 63 76 75
f 63 76 77
f 63 77 76
f 63 77 78
f 63 78 77
f 63 78 79
f 63 79 78
f 63 79 80
f 63 80 79
f 63 80 81
f 63 81 80
f 63 81 82
f 63 82 81
f 63 82 83
f 63 83 82
f 63 83 84
f 63 84 83
f 63 84 85
f 63 85 84
f 63 85 86
f 63 86 85
f 63 86 87
f 63 87 86
f 63 87 88
f 63 88 87
f 63 88 89
f 63 89 88
f 63 89 90
f 63 90 89
f 63 90 91
f 63 91 90
f 63 91 92
f 63 92 91
f 63 92 93
f 63 93 92
f 63 93 94
f 63 94 93
f 63 94 95
f 63 95 94
f 63 95 96
f 63 96 95
f 63 96 97
f 63 97 96
f 63 97 98
f 63 98 97
f 63 98 99
f 63 99 98
f 63 99 100
f 63 100 99
f 63 100 101
f 63 101 100
f 63 101 102
f 63 102 101
f 63 102 103
f 63 103 102
f 63 103 104
f 63 104 103
f 63 104 105
f 63 105 104
f 63 105 106
f 63 106 105
f 63 106 107
f 63 107 106
f 63 107 108
f 63 108 107
v 0.000000 0.040000 -0.000000
v 0.006295 0.029345 -0.008444
v 0.012018 0.018690 -0.018645
v 0.017552 0.008034 -0.029423
v 0.023057 -0.002621 -0.040293
v 0.028648 -0.013276 -0.050895
v 0.034425 -0.023931 -0.060930
v 0.040469 -0.034586 -0.070142
v 0.046853 -0.045241 -0.078315
v 0.053634 -0.055897 -0.085270
v 0.060856 -0.066552 -0.090872
v 0.068549 -0.077207 -0.095030
v 0.076728 -0.087862 -0.097696
v 0.085393 -0.098517 -0.098873
v 0.094529 -0.109173 -0.098604
v 0.104107 -0.119828 -0.096983
v 0.114081 -0.130483 -0.094145
v 0.124394 -0.141138 -0.090266
v 0.134976 -0.151793 -0.085564
v 0.145742 -0.162449 -0.080296
v 0.156596 -0.173104 -0.074760
v 0.167420 -0.183759 -0.069316
v 0.178055 -0.194414 -0.064449
v 0.188118 -0.205069 -0.061339
v 0.181823 -0.194414 -0.052895
v 0.176100 -0.183759 -0.042694
v 0.170566 -0.173104 -0.031916
v 0.165062 -0.162449 -0.021046
v 0.159470 -0.151793 -0.010444
v 0.153694 -0.141138 -0.000409
v 0.147649 -0.130483 0.008804
v 0.141265 -0.119828 0.016976
v 0.134484 -0.109173 0.023931
v 0.127262 -0.098517 0.029533
v 0.119569 -0.087862 0.033691
v 0.111390 -0.077207 0.036358
v 0.102725 -0.066552 0.037534
v 0.093589 -0.055897 0.037265
v 0.084011 -0.045241 0.035644
v 0.074037 -0.034586 0.032806
v 0.063724 -0.023931 0.028927
v 0.053142 -0.013276 0.024226
v 0.042376 -0.002621 0.018957
v 0.031522 0.008034 0.013422
v 0.020698 0.018690 0.007977
v 0.010063 0.029345 0.003110
f 109 110 111
f 109 111 110
f 109 111 112
f 109 112 111
f 109 112 113
f 109 113 112
f 109 113 114
f 109 114 113
f 109 114 115
f 109 115 114
f 109 115 116
f 109 116 115
f 109 116 117
f 109 117 116
f 109 117 118
f 109 118 117
f 109 118 119
f 109 119 118
f 109 119 120
f 109 120 119
f 109 120 121
f 109 121 120
f 109 121 122
f 109 122 121
f 109 122 123
f 109 123 122
f 109 123 124
f 109 124 123
f 109 124 125
f 109 125 124
f 109 125 126
f 109 126 125
f 109 126 127
f 109 127 126
f 109 127 128
f 109 128 127
f 109 128 129
f 109 129 128
f 109 129 130
f 109 130 129
f 109 130 131
f 109 131 130
f 109 131 132
f 109 132 131
f 109 132 133
f 109 133 132
f 109 133 134
f 109 134 133
f 109 134 135
f 109 135 134
f 109 135 136
f 109 136 135
f 109 136 137
f 109 137 136
f 109 137 138
f 109 138 137
f 109 138 139
f 109 139 138
f 109 139 140
f 109 140 139
f 109 140 141
f 109 141 140
f 109 141 142
f 109 142 141
f 109 142 143
f 109 143 142
f 109 143 144
f 109 144 143
f 109 144 145
f 109 145 144
f 109 145 146
f 109 146 145
f 109 146 147
f 109 147 146
f 109 147 148
f 109 148 147
f 109 148 149
f 109 149 148
f 109 149 150
f 109 150 149
f 109 150 151
f 109 151 150
f 109 151 152
f 109 152 151
f 109 152 153
f 109 153 152
f 109 153 154
f 109 154 153
v 0.000000 0.040000 -0.000000
v 0.001607 0.030619 -0.010889
v 0.001122 0.021237 -0.023126
v -0.000304 0.011856 -0.035970
v -0.002140 0.002474 -0.049077
v -0.003977 -0.006907 -0.062185
v -0.005465 -0.016289 -0.075068
v -0.006297 -0.025670 -0.087528
v -0.006209 -0.035052 -0.099396
v -0.004984 -0.044433 -0.110532
v -0.002453 -0.053815 -0.120826
v 0.001497 -0.063196 -0.130206
v 0.006926 -0.072578 -0.138634
v 0.013833 -0.081959 -0.146109
v 0.022160 -0.091341 -0.152670
v 0.031792 -0.100722 -0.158390
v 0.042562 -0.110104 -0.163377
v 0.054251 -0.119485 -0.167772
v 0.066596 -0.128867 -0.171744
v 0.079291 -0.138248 -0.175492
v 0.091984 -0.147629 -0.179239
v 0.104268 -0.157011 -0.183251
v 0.115610 -0.166392 -0.187870
v 0.124860 -0.175774 -0.193836
v 0.123253 -0.166392 -0.182947
v 0.123738 -0.157011 -0.170710
v 0.125164 -0.147629 -0.157866
v 0.127001 -0.138248 -0.144759
v 0.128838 -0.128867 -0.131651
v 0.130325 -0.119485 -0.118768
v 0.131157 -0.110104 -0.106308
v 0.131069 -0.100722 -0.094440
v 0.129844 -0.091341 -0.083304
v 0.127314 -0.081959 -0.073010
v 0.123363 -0.072578 -0.063630
v 0.117934 -0.063196 -0.055202
v 0.111028 -0.053815 -0.047727
v 0.102701 -0.044433 -0.041166
v 0.093068 -0.035052 -0.035446
v 0.082299 -0.025670 -0.030459
v 0.070609 -0.016289 -0.026064
v 0.058264 -0.006907 -0.022092
v 0.045570 0.002474 -0.018344
v 0.032876 0.011856 -0.014596
v 0.020592 0.021237 -0.010584
v 0.009250 0.030619 -0.005966
f 155 156 157
f 155 157 156
f 155 157 158
f 155 158 157
f 155 158 159
f 155 159 158
f 155 159 160
f 155 160 159
f 155 160 161
f 155 161 160
f 155 161 162
f 155 162 161
f 155 162 163
f 155 163 162
f 155 163 164
f 155 164 163
f 155 164 165
f 155 165 164
f 155 165 166
f 155 166 165
f 155 166 167
f 155 167 166
f 155 167 168
f 155 168 167
f 155 168 169
f 155 169 168
f 155 169 170
f 155 170 169
f 155 170 171
f 155 171 170
f 155 171 172
f 155 172 171
f 155 172 173
f 155 173 172
f 155 173 174
f 155 174 173
f 155 174 175
f 155 175 174
f 155 175 176
f 155 176 175
f 155 176 177
f 155 177 176
f 155 177 178
f 155 178 177
f 155 178 179
f 155 179 178
f 155 179 180
f 155 180 179
f 155 180 181
f 155 181 180
f 155 181 182
f 155 182 181
f 155 182 183
f 155 183 182
f 155 183 184
f 155 184 183
f 155 184 185
f 155 185 184
f 155 185 186
f 155 186 185
f 155 186 187
f 155 187 186
f 155 187 188
f 155 188 187
f 155 188 189
f 155 189 188
f 155 189 190
f 155 190 189
f 155 190 191
f 155 191 190
f 155 191 192
f 155 192 191
f 155 192 193
f 155 193 192
f 155 193 194
f 155 194 193
f 155 194 195
f 155 195 194
f 155 195 196
f 155 196 195
f 155 196 197
f 155 197 196
f 155 197 198
f 155 198 197
f 155 198 199
f 155 199 198
f 155 199 200
f 155 200 199
v 0.000000 0.040000 -0.000000
v -0.009308 0.026523 -0.007295
v -0.021605 0.013046 -0.013010
v -0.035423 -0.000431 -0.017921
v -0.050023 -0.013908 -0.022419
v -0.064810 -0.027385 -0.026817
v -0.079264 -0.040862 -0.031392
v -0.092919 -0.054340 -0.036389
v -0.105372 -0.067817 -0.042022
v -0.116283 -0.081294 -0.048470
v -0.125389 -0.094771 -0.055872
v -0.132511 -0.108248 -0.064322
v -0.137558 -0.121725 -0.073869
v -0.140530 -0.135202 -0.084514
v -0.141517 -0.148679 -0.096207
v -0.140700 -0.162156 -0.108855
v -0.138342 -0.175633 -0.122317
v -0.134780 -0.189110 -0.136415
v -0.130420 -0.202587 -0.150935
v -0.125726 -0.216064 -0.165631
v -0.121221 -0.229542 -0.180228
v -0.117496 -0.243019 -0.194413
v -0.115293 -0.256496 -0.207792
v -0.116079 -0.269973 -0.219592
v -0.106770 -0.256496 -0.212298
v -0.094474 -0.243019 -0.206582
v -0.080656 -0.229542 -0.201671
v -0.066056 -0.216064 -0.197174
v -0.051269 -0.202587 -0.192775
v -0.036815 -0.189110 -0.188200
v -0.023159 -0.175633 -0.183203
v -0.010707 -0.162156 -0.177570
v 0.000204 -0.148679 -0.171122
v 0.009310 -0.135202 -0.163721
v 0.016433 -0.121725 -0.155271
v 0.021480 -0.108248 -0.145723
v 0.024451 -0.094771 -0.135078
v 0.025438 -0.081294 -0.123385
v 0.024621 -0.067817 -0.110738
v 0.022263 -0.054340 -0.097276
v 0.018701 -0.040862 -0.083178
v 0.014341 -0.027385 -0.068658
v 0.009648 -0.013908 -0.053961
v 0.005142 -0.000431 -0.039364
v 0.001417 0.013046 -0.025180
v -0.000785 0.026523 -0.011800
f 201 202 203
f 201 203 202
f 201 203 204
f 201 204 203
f 201 204 205
f 201 205 204
f 201 205 206
f 201 206 205
f 201 206 207
f 201 207 206
f 201 207 208
f 201 208 207
f 201 208 209
f 201 209 208
f 201 209 210
f 201 210 209
f 201 210 211
f 201 211 210
f 201 211 212
f 201 212 211
f 201 212 213
f 201 213 212
f 201 213 214
f 201 214 213
f 201 214 215
f 201 215 214
f 201 215 216
f 201 216 215
f 201 216 217
f 201 217 216
f 201 217 218
f 201 218 217
f 201 218 219
f 201 219 218
f 201 219 220
f 201 220 219
f 201 220 221
f 201 221 220
f 201 221 222
f 201 222 221
f 201 222 223
f 201 223 222
f 201 223 224
f 201 224 223
f 201 224 225
f 201 225 224
f 201 225 226
f 201 226 225
f 201 226 227
f 201 227 226
f 201 227 228
f 201 228 227
f 201 228 229
f 201 229 228
f 201 229 230
f 201 230 229
f 201 230 231
f 201 231 230
f 201 231 232
f 201 232 231
f 201 232 233
f 201 233 232
f 201 233 234
f 201 234 233
f 201 234 235
f 201 235 234
f 201 235 236
f 201 236 235
f 201 236 237
f 201 237 236
f 201 237 238
f 201 238 237
f 201 238 239
f 201 239 238
f 201 239 240
f 201 240 239
f 201 240 241
f 201 241 240
f 201 241 242
f 201 242 241
f 201 242 243
f 201 243 242
f 201 243 244
f 201 244 243
f 201 244 245
f 201 245 244
f 201 245 246
f 201 246 245
v 0.000000 0.040000 -0.000000
v -0.009764 0.027625 0.001884
v -0.020384 0.015251 0.006462
v -0.031406 0.002876 0.012303
v -0.042613 -0.009499 0.018728
v -0.053838 -0.021873 0.025209
v -0.064936 -0.034248 0.031290
v -0.075780 -0.046622 0.036571
v -0.086259 -0.058997 0.040705
v -0.096282 -0.071372 0.043405
v -0.105779 -0.083746 0.044450
v -0.114701 -0.096121 0.043687
v -0.123023 -0.108496 0.041040
v -0.130747 -0.120870 0.036510
v -0.137897 -0.133245 0.030172
v -0.144519 -0.145619 0.022179
v -0.150686 -0.157994 0.012752
v -0.156488 -0.170369 0.002179
v -0.162036 -0.182743 -0.009196
v -0.167456 -0.195118 -0.020970
v -0.172895 -0.207493 -0.032688
v -0.178519 -0.219867 -0.043822
v -0.184544 -0.232242 -0.053693
v -0.191427 -0.244616 -0.060870
v -0.181663 -0.232242 -0.062755
v -0.171043 -0.219867 -0.067333
v -0.160021 -0.207493 -0.073173
v -0.148813 -0.195118 -0.079599
v -0.137588 -0.182743 -0.086080
v -0.126490 -0.170369 -0.092161
v -0.115646 -0.157994 -0.097441
v -0.105167 -0.145619 -0.101575
v -0.095144 -0.133245 -0.104275
v -0.085648 -0.120870 -0.105320
v -0.076726 -0.108496 -0.104557
v -0.068403 -0.096121 -0.101911
v -0.060679 -0.083746 -0.097380
v -0.053530 -0.071372 -0.091043
v -0.046907 -0.058997 -0.083050
v -0.040740 -0.046622 -0.073623
v -0.034938 -0.034248 -0.063049
v -0.029391 -0.021873 -0.051675
v -0.023970 -0.009499 -0.039900
v -0.018532 0.002876 -0.028182
v -0.012908 0.015251 -0.017049
v -0.006882 0.027625 -0.007177
f 247 248 249
f 247 249 248
f 247 249 250
f 247 250 249
f 247 250 251
f 247 251 250
f 247 251 252
f 247 252 251
f 247 252 253
f 247 253 252
f 247 253 254
f 247 254 253
f 247 254 255
f 247 255 254
f 247 255 256
f 247 256 255
f 247 256 257
f 247 257 256
f 247 257 258
f 247 258 257
f 247 258 259
f 247 259 258
f 247 259 260
f 247 260 259
f 247 260 261
f 247 261 260
f 247 261 262
f 247 262 261
f 247 262 263
f 247 263 262
f 247 263 264
f 247 264 263
f 247 264 265
f 247 265 264
f 247 265 266
f 247 266 265
f 247 266 267
f 247 267 266
f 247 267 268
f 247 268 267
f 247 268 269
f 247 269 268
f 247 269 270
f 247 270 269
f 247 270 271
f 247 271 270
f 247 271 272
f 247 272 271
f 247 272 273
f 247 273 272
f 247 273 274
f 247 274 273
f 247 274 275
f 247 275 274
f 247 275 276
f 247 276 275
f 247 276 277
f 247 277 276
f 247 277 278
f 247 278 277
f 247 278 279
f 247 279 278
f 247 279 280
f 247 280 279
f 247 280 281
f 247 281 280
f 247 281 282
f 247 282 281
f 247 282 283
f 247 283 282
f 247 283 284
f 247 284 283
f 247 284 285
f 247 285 284
f 247 285 286
f 247 286 285
f 247 286 287
f 247 287 286
f 247 287 288
f 247 288 287
f 247 288 289
f 247 289 288
f 247 289 290
f 247 290 289
f 247 290 291
f 247 291 290
f 247 291 292
f 247 292 291
v 0.000000 0.040000 -0.000000
v -0.004709 0.030435 0.006831
v -0.008117 0.020871 0.015715
v -0.010843 0.011306 0.025678
v -0.013204 0.001741 0.036215
v -0.015463 -0.007823 0.046915
v -0.017847 -0.017388 0.057416
v -0.020566 -0.026953 0.067390
v -0.023797 -0.036517 0.076553
v -0.027694 -0.046082 0.084666
v -0.032374 -0.055647 0.091543
v -0.037918 -0.065211 0.097056
v -0.044367 -0.074776 0.101140
v -0.051720 -0.084341 0.103795
v -0.059937 -0.093905 0.105087
v -0.068937 -0.103470 0.105142
v -0.078602 -0.113035 0.104147
v -0.088782 -0.122599 0.102340
v -0.099294 -0.132164 0.100008
v -0.109933 -0.141729 0.097476
v -0.120468 -0.151293 0.095107
v -0.130640 -0.160858 0.093312
v -0.140128 -0.170423 0.092597
v -0.148317 -0.179987 0.093933
v -0.143608 -0.170423 0.087102
v -0.140199 -0.160858 0.078218
v -0.137474 -0.151293 0.068255
v -0.135112 -0.141729 0.057718
v -0.132854 -0.132164 0.047018
v -0.130469 -0.122599 0.036518
v -0.127751 -0.113035 0.026543
v -0.124519 -0.103470 0.017380
v -0.120622 -0.093905 0.009267
v -0.115942 -0.084341 0.002391
v -0.110399 -0.074776 -0.003122
v -0.103950 -0.065211 -0.007206
v -0.096597 -0.055647 -0.009862
v -0.088380 -0.046082 -0.011153
v -0.079379 -0.036517 -0.011208
v -0.069714 -0.026953 -0.010213
v -0.059535 -0.017388 -0.008407
v -0.049023 -0.007823 -0.006075
v -0.038384 0.001741 -0.003543
v -0.027849 0.011306 -0.001174
v -0.017677 0.020871 0.000621
v -0.008189 0.030435 0.001337
f 293 294 295
f 293 295 294
f 293 295 296
f 293 296 295
f 293 296 297
f 293 297 296
f 293 297 298
f 293 298 297
f 293 298 299
f 293 299 298
f 293 299 300
f 293 300 299
f 293 300 301
f 293 301 300
f 293 301 302
f 293 302 301
f 293 302 303
f 293 303 302
f 293 303 304
f 293 304 303
f 293 304 305
f 293 305 304
f 293 305 306
f 293 306 305
f 293 306 307
f 293 307 306
f 293 307 308
f 293 308 307
f 293 308 309
f 293 309 308
f 293 309 310
f 293 310 309
f 293 310 311
f 293 311 310
f 293 311 312
f 293 312 311
f 293 312 313
f 293 313 312
f 293 313 314
f 293 314 313
f 293 314 315
f 293 315 314
f 293 315 316
f 293 316 315
f 293 316 317
f 293 317 316
f 293 317 318
f 293 318 317
f 293 318 319
f 293 319 318
f 293 319 320
f 293 320 319
f 293 320 321
f 293 321 320
f 293 321 322
f 293 322 321
f 293 322 323
f 293 323 322
f 293 323 324
f 293 324 323
f 293 324 325
f 293 325 324
f 293 325 326
f 293 326 325
f 293 326 327
f 293 327 326
f 293 327 328
f 293 328 327
f 293 328 329
f 293 329 328
f 293 329 330
f 293 330 329
f 293 330 331
f 293 331 330
f 293 331 332
f 293 332 331
f 293 332 333
f 293 333 332
f 293 333 334
f 293 334 333
f 293 334 335
f 293 335 334
f 293 335 336
f 293 336 335
f 293 336 337
f 293 337 336
f 293 337 338
f 293 338 337
