o mesh
v 0.000000 0.000000 0.015000
v 0.008817 0.000000 0.012135
v 0.014266 0.000000 0.004635
v 0.014266 0.000000 -0.004635
v 0.008817 0.000000 -0.012135
v 0.000000 0.000000 -0.015000
v -0.008817 0.000000 -0.012135
v -0.014266 0.000000 -0.004635
v -0.014266 0.000000 0.004635
v -0.008817 0.000000 0.012135
v 0.000000 0.400000 0.010200
v 0.005995 0.400000 0.008252
v 0.009701 0.400000 0.003152
v 0.009701 0.400000 -0.003152
v 0.005995 0.400000 -0.008252
v 0.000000 0.400000 -0.010200
v -0.005995 0.400000 -0.008252
v -0.009701 0.400000 -0.003152
v -0.009701 0.400000 0.003152
v -0.005995 0.400000 0.008252
f 1 2 12
f 1 12 11
f 2 3 13
f 2 13 12
f 3 4 14
f 3 14 13
f 4 5 15
f 4 15 14
f 5 6 16
f 5 16 15
f 6 7 17
f 6 17 16
f 7 8 18
f 7 18 17
f 8 9 19
f 8 19 18
f 9 10 20
f 9 20 19
f 10 1 11
f 10 11 20
v 0.002296 0.400000 0.009938
v 0.006337 0.403848 0.007005
v 0.007958 0.406225 0.001397
v 0.006539 0.406225 -0.004746
v 0.002623 0.403848 -0.009075
v -0.002296 0.400000 -0.009938
v -0.006337 0.396152 -0.007005
v -0.007958 0.393775 -0.001397
v -0.006539 0.393775 0.004746
v -0.002623 0.396152 0.009075
v -0.185285 0.629172 0.049922
v -0.182537 0.631788 0.047928
v -0.181434 0.633405 0.044114
v -0.182399 0.633405 0.039937
v -0.185063 0.631788 0.036993
v -0.188407 0.629172 0.036406
v -0.191156 0.626555 0.038401
v -0.192258 0.624938 0.042215
v -0.191293 0.624938 0.046391
v -0.188629 0.626555 0.049335
f 21 22 32
f 21 32 31
f 22 23 33
f 22 33 32
f 23 24 34
f 23 34 33
f 24 25 35
f 24 35 34
f 25 26 36
f 25 36 35
f 26 27 37
f 26 37 36
f 27 28 38
f 27 38 37
f 28 29 39
f 28 39 38
f 29 30 40
f 29 40 39
f 30 21 31
f 30 31 40
v -0.183746 0.629172 0.049369
v -0.185123 0.633153 0.048576
v -0.187158 0.635613 0.045716
v -0.189074 0.635613 0.041882
v -0.190139 0.633153 0.038537
v -0.189946 0.629172 0.036960
v -0.188569 0.625190 0.037753
v -0.186534 0.622730 0.040612
v -0.184618 0.622730 0.044447
v -0.183553 0.625190 0.047792
v -0.381845 0.580603 0.145879
v -0.382781 0.583310 0.145340
v -0.384165 0.584984 0.143395
v -0.385468 0.584984 0.140788
v -0.386193 0.583310 0.138513
v -0.386062 0.580603 0.137441
v -0.385125 0.577896 0.137980
v -0.383741 0.576223 0.139925
v -0.382438 0.576223 0.142532
v -0.381714 0.577896 0.144807
f 41 42 52
f 41 52 51
f 42 43 53
f 42 53 52
f 43 44 54
f 43 54 53
f 44 45 55
f 44 55 54
f 45 46 56
f 45 56 55
f 46 47 57
f 46 57 56
f 47 48 58
f 47 58 57
f 48 49 59
f 48 59 58
f 49 50 60
f 49 60 59
f 50 41 51
f 50 51 60
v -0.382388 0.580603 0.146109
v -0.385007 0.581883 0.146075
v -0.387223 0.582675 0.144355
v -0.388190 0.582675 0.141605
v -0.387539 0.581883 0.138876
v -0.385518 0.580603 0.137211
v -0.382900 0.579323 0.137244
v -0.380684 0.578532 0.138965
v -0.379716 0.578532 0.141715
v -0.380367 0.579323 0.144443
v -0.463930 0.415609 0.173193
v -0.465710 0.416480 0.173170
v -0.467217 0.417018 0.172001
v -0.467875 0.417018 0.170131
v -0.467432 0.416480 0.168275
v -0.466058 0.415609 0.167142
v -0.464278 0.414739 0.167165
v -0.462771 0.414201 0.168335
v -0.462113 0.414201 0.170205
v -0.462555 0.414739 0.172061
f 61 62 72
f 61 72 71
f 62 63 73
f 62 73 72
f 63 64 74
f 63 74 73
f 64 65 75
f 64 75 74
f 65 66 76
f 65 76 75
f 66 67 77
f 66 77 76
f 67 68 78
f 67 78 77
f 68 69 79
f 68 79 78
f 69 70 80
f 69 80 79
f 70 61 71
f 70 71 80
v -0.464994 0.415609 0.170168
v -0.463910 0.417895 0.173082
v -0.463135 0.420332 0.175997
v -0.463015 0.423092 0.178915
v -0.463809 0.426301 0.181837
v -0.465608 0.430005 0.184764
v -0.468296 0.434146 0.187694
v -0.471557 0.438569 0.190628
v -0.474916 0.443040 0.193562
v -0.477822 0.447288 0.196494
v -0.479740 0.451051 0.199421
v -0.480251 0.454121 0.202342
v -0.479124 0.456385 0.205255
v -0.476359 0.457843 0.208161
v -0.472186 0.458609 0.211061
v -0.467026 0.458889 0.213956
v -0.461412 0.458946 0.216848
v -0.455897 0.459051 0.219742
v -0.450954 0.459438 0.222638
v -0.446901 0.460263 0.225538
v -0.443853 0.461582 0.228442
v -0.441718 0.463350 0.231351
v -0.440238 0.465441 0.234263
v -0.439068 0.467684 0.237176
v -0.440152 0.465398 0.234262
v -0.440927 0.462961 0.231347
v -0.441046 0.460201 0.228429
v -0.440253 0.456992 0.225507
v -0.438454 0.453288 0.222580
v -0.435766 0.449147 0.219650
v -0.432505 0.444724 0.216716
v -0.429146 0.440253 0.213782
v -0.426240 0.436005 0.210850
v -0.424322 0.432242 0.207923
v -0.423810 0.429172 0.205002
v -0.424938 0.426908 0.202089
v -0.427703 0.425450 0.199183
v -0.431876 0.424684 0.196283
v -0.437036 0.424404 0.193388
v -0.442650 0.424347 0.190495
v -0.448165 0.424242 0.187602
v -0.453108 0.423855 0.184706
v -0.457161 0.423030 0.181806
v -0.460209 0.421711 0.178902
v -0.462344 0.419943 0.175993
v -0.463824 0.417852 0.173081
f 81 82 83
f 81 83 82
f 81 83 84
f 81 84 83
f 81 84 85
f 81 85 84
f 81 85 86
f 81 86 85
f 81 86 87
f 81 87 86
f 81 87 88
f 81 88 87
f 81 88 89
f 81 89 88
f 81 89 90
f 81 90 89
f 81 90 91
f 81 91 90
f 81 91 92
f 81 92 91
f 81 92 93
f 81 93 92
f 81 93 94
f 81 94 93
f 81 94 95
f 81 95 94
f 81 95 96
f 81 96 95
f 81 96 97
f 81 97 96
f 81 97 98
f 81 98 97
f 81 98 99
f 81 99 98
f 81 99 100
f 81 100 99
f 81 100 101
f 81 101 100
f 81 101 102
f 81 102 101
f 81 102 103
f 81 103 102
f 81 103 104
f 81 104 103
f 81 104 105
f 81 105 104
f 81 105 106
f 81 106 105
f 81 106 107
f 81 107 106
f 81 107 108
f 81 108 107
f 81 108 109
f 81 109 108
f 81 109 110
f 81 110 109
f 81 110 111
f 81 111 110
f 81 111 112
f 81 112 111
f 81 112 113
f 81 113 112
f 81 113 114
f 81 114 113
f 81 114 115
f 81 115 114
f 81 115 116
f 81 116 115
f 81 116 117
f 81 117 116
f 81 117 118
f 81 118 117
f 81 118 119
f 81 119 118
f 81 119 120
f 81 120 119
f 81 120 121
f 81 121 120
f 81 121 122
f 81 122 121
f 81 122 123
f 81 123 122
f 81 123 124
f 81 124 123
f 81 124 125
f 81 125 124
f 81 125 126
f 81 126 125
v -0.464994 0.415609 0.170168
v -0.466849 0.417914 0.169494
v -0.468774 0.420101 0.167940
v -0.470757 0.422189 0.165645
v -0.472786 0.424200 0.162777
v -0.474843 0.426161 0.159540
v -0.476912 0.428102 0.156156
v -0.478974 0.430055 0.152857
v -0.481013 0.432049 0.149865
v -0.483011 0.434112 0.147382
v -0.484956 0.436264 0.145571
v -0.486839 0.438522 0.144548
v -0.488655 0.440894 0.144373
v -0.490404 0.443380 0.145046
v -0.492092 0.445971 0.146507
v -0.493726 0.448652 0.148640
v -0.495320 0.451402 0.151282
v -0.496890 0.454193 0.154232
v -0.498454 0.456995 0.157266
v -0.500029 0.459777 0.160153
v -0.501633 0.462510 0.162670
v -0.503282 0.465166 0.164615
v -0.504990 0.467723 0.165820
v -0.506767 0.470162 0.166144
v -0.504911 0.467857 0.166818
v -0.502986 0.465670 0.168372
v -0.501003 0.463582 0.170667
v -0.498975 0.461571 0.173534
v -0.496917 0.459610 0.176771
v -0.494848 0.457669 0.180155
v -0.492786 0.455716 0.183455
v -0.490748 0.453722 0.186446
v -0.488750 0.451659 0.188930
v -0.486805 0.449507 0.190741
v -0.484922 0.447249 0.191764
v -0.483105 0.444877 0.191939
v -0.481356 0.442391 0.191266
v -0.479669 0.439800 0.189805
v -0.478034 0.437119 0.187671
v -0.476440 0.434369 0.185029
v -0.474870 0.431578 0.182080
v -0.473307 0.428776 0.179046
v -0.471732 0.425994 0.176159
v -0.470127 0.423261 0.173642
v -0.468478 0.420605 0.171696
v -0.466771 0.418048 0.170492
f 127 128 129
f 127 129 128
f 127 129 130
f 127 130 129
f 127 130 131
f 127 131 130
f 127 131 132
f 127 132 131
f 127 132 133
f 127 133 132
f 127 133 134
f 127 134 133
f 127 134 135
f 127 135 134
f 127 135 136
f 127 136 135
f 127 136 137
f 127 137 136
f 127 137 138
f 127 138 137
f 127 138 139
f 127 139 138
f 127 139 140
f 127 140 139
f 127 140 141
f 127 141 140
f 127 141 142
f 127 142 141
f 127 142 143
f 127 143 142
f 127 143 144
f 127 144 143
f 127 144 145
f 127 145 144
f 127 145 146
f 127 146 145
f 127 146 147
f 127 147 146
f 127 147 148
f 127 148 147
f 127 148 149
f 127 149 148
f 127 149 150
f 127 150 149
f 127 150 151
f 127 151 150
f 127 151 152
f 127 152 151
f 127 152 153
f 127 153 152
f 127 153 154
f 127 154 153
f 127 154 155
f 127 155 154
f 127 155 156
f 127 156 155
f 127 156 157
f 127 157 156
f 127 157 158
f 127 158 157
f 127 158 159
f 127 159 158
f 127 159 160
f 127 160 159
f 127 160 161
f 127 161 160
f 127 161 162
f 127 162 161
f 127 162 163
f 127 163 162
f 127 163 164
f 127 164 163
f 127 164 165
f 127 165 164
f 127 165 166
f 127 166 165
f 127 166 167
f 127 167 166
f 127 167 168
f 127 168 167
f 127 168 169
f 127 169 168
f 127 169 170
f 127 170 169
f 127 170 171
f 127 171 170
f 127 171 172
f 127 172 171
v -0.464994 0.415609 0.170168
v -0.463319 0.415991 0.167138
v -0.461151 0.416169 0.164328
v -0.458264 0.416049 0.161840
v -0.454587 0.415602 0.159704
v -0.450193 0.414858 0.157890
v -0.445278 0.413899 0.156308
v -0.440135 0.412845 0.154828
v -0.435112 0.411841 0.153295
v -0.430564 0.411033 0.151549
v -0.426811 0.410555 0.149448
v -0.424092 0.410505 0.146884
v -0.422536 0.410935 0.143801
v -0.422141 0.411847 0.140198
v -0.422781 0.413187 0.136133
v -0.424216 0.414856 0.131713
v -0.426126 0.416722 0.127080
v -0.428156 0.418637 0.122393
v -0.429957 0.420458 0.117809
v -0.431238 0.422063 0.113458
v -0.431802 0.423371 0.109427
v -0.431576 0.424353 0.105748
v -0.430631 0.425037 0.102392
v -0.429192 0.425516 0.099256
v -0.430867 0.425134 0.102287
v -0.433035 0.424957 0.105096
v -0.435922 0.425077 0.107585
v -0.439599 0.425524 0.109720
v -0.443993 0.426268 0.111535
v -0.448908 0.427227 0.113116
v -0.454051 0.428281 0.114596
v -0.459074 0.429285 0.116129
v -0.463622 0.430092 0.117875
v -0.467375 0.430571 0.119977
v -0.470094 0.430621 0.122540
v -0.471650 0.430190 0.125623
v -0.472045 0.429279 0.129226
v -0.471405 0.427939 0.133291
v -0.469970 0.426270 0.137711
v -0.468060 0.424404 0.142344
v -0.466030 0.422489 0.147031
v -0.464229 0.420668 0.151615
v -0.462948 0.419063 0.155967
v -0.462384 0.417754 0.159998
v -0.462610 0.416773 0.163676
v -0.463555 0.416089 0.167032
f 173 174 175
f 173 175 174
f 173 175 176
f 173 176 175
f 173 176 177
f 173 177 176
f 173 177 178
f 173 178 177
f 173 178 179
f 173 179 178
f 173 179 180
f 173 180 179
f 173 180 181
f 173 181 180
f 173 181 182
f 173 182 181
f 173 182 183
f 173 183 182
f 173 183 184
f 173 184 183
f 173 184 185
f 173 185 184
f 173 185 186
f 173 186 185
f 173 186 187
f 173 187 186
f 173 187 188
f 173 188 187
f 173 188 189
f 173 189 188
f 173 189 190
f 173 190 189
f 173 190 191
f 173 191 190
f 173 191 192
f 173 192 191
f 173 192 193
f 173 193 192
f 173 193 194
f 173 194 193
f 173 194 195
f 173 195 194
f 173 195 196
f 173 196 195
f 173 196 197
f 173 197 196
f 173 197 198
f 173 198 197
f 173 198 199
f 173 199 198
f 173 199 200
f 173 200 199
f 173 200 201
f 173 201 200
f 173 201 202
f 173 202 201
f 173 202 203
f 173 203 202
f 173 203 204
f 173 204 203
f 173 204 205
f 173 205 204
f 173 205 206
f 173 206 205
f 173 206 207
f 173 207 206
f 173 207 208
f 173 208 207
f 173 208 209
f 173 209 208
f 173 209 210
f 173 210 209
f 173 210 211
f 173 211 210
f 173 211 212
f 173 212 211
f 173 212 213
f 173 213 212
f 173 213 214
f 173 214 213
f 173 214 215
f 173 215 214
f 173 215 216
f 173 216 215
f 173 216 217
f 173 217 216
f 173 217 218
f 173 218 217
v -0.002879 0.400000 -0.009785
v -0.006343 0.404294 -0.006735
v -0.007384 0.406949 -0.001113
v -0.005604 0.406949 0.004935
v -0.001684 0.404294 0.009097
v 0.002879 0.400000 0.009785
v 0.006343 0.395706 0.006735
v 0.007384 0.393051 0.001113
v 0.005604 0.393051 -0.004935
v 0.001684 0.395706 -0.009097
v 0.198790 0.603856 -0.065727
v 0.196434 0.606776 -0.063653
v 0.195727 0.608581 -0.059830
v 0.196937 0.608581 -0.055718
v 0.199603 0.606776 -0.052887
v 0.202706 0.603856 -0.052420
v 0.205061 0.600936 -0.054493
v 0.205769 0.599131 -0.058317
v 0.204558 0.599131 -0.062429
v 0.201893 0.600936 -0.065260
f 219 220 230
f 219 230 229
f 220 221 231
f 220 231 230
f 221 222 232
f 221 232 231
f 222 223 233
f 222 233 232
f 223 224 234
f 223 234 233
f 224 225 235
f 224 235 234
f 225 226 236
f 225 236 235
f 226 227 237
f 226 237 236
f 227 228 238
f 227 238 237
f 228 219 229
f 228 229 238
v 0.198466 0.603856 -0.065623
v 0.198853 0.607933 -0.064355
v 0.199964 0.610452 -0.061070
v 0.201374 0.610452 -0.057022
v 0.202545 0.607933 -0.053757
v 0.203029 0.603856 -0.052523
v 0.202642 0.599779 -0.053791
v 0.201532 0.597260 -0.057077
v 0.200122 0.597260 -0.061125
v 0.198951 0.599779 -0.064389
v 0.423618 0.606868 -0.141697
v 0.423882 0.609640 -0.140835
v 0.424637 0.611353 -0.138601
v 0.425596 0.611353 -0.135848
v 0.426392 0.609640 -0.133628
v 0.426721 0.606868 -0.132789
v 0.426458 0.604096 -0.133651
v 0.425703 0.602383 -0.135885
v 0.424744 0.602383 -0.138638
v 0.423948 0.604096 -0.140858
f 239 240 250
f 239 250 249
f 240 241 251
f 240 251 250
f 241 242 252
f 241 252 251
f 242 243 253
f 242 253 252
f 243 244 254
f 243 254 253
f 244 245 255
f 244 255 254
f 245 246 256
f 245 256 255
f 246 247 257
f 246 257 256
f 247 248 258
f 247 258 257
f 248 239 249
f 248 249 258
v 0.422782 0.606868 -0.141310
v 0.424982 0.608765 -0.141557
v 0.427253 0.609937 -0.140156
v 0.428729 0.609937 -0.137642
v 0.428845 0.608765 -0.134976
v 0.427558 0.606868 -0.133176
v 0.425358 0.604971 -0.132929
v 0.423087 0.603799 -0.134330
v 0.421611 0.603799 -0.136844
v 0.421495 0.604971 -0.139510
v 0.526139 0.480077 -0.200239
v 0.527635 0.481367 -0.200407
v 0.529180 0.482164 -0.199454
v 0.530183 0.482164 -0.197744
v 0.530262 0.481367 -0.195931
v 0.529387 0.480077 -0.194707
v 0.527891 0.478787 -0.194539
v 0.526347 0.477990 -0.195492
v 0.525343 0.477990 -0.197202
v 0.525264 0.478787 -0.199015
f 259 260 270
f 259 270 269
f 260 261 271
f 260 271 270
f 261 262 272
f 261 272 271
f 262 263 273
f 262 273 272
f 263 264 274
f 263 274 273
f 264 265 275
f 264 275 274
f 265 266 276
f 265 276 275
f 266 267 277
f 266 277 276
f 267 268 278
f 267 278 277
f 268 259 269
f 268 269 278
v 0.527763 0.480077 -0.197473
v 0.526000 0.480821 -0.199429
v 0.524544 0.481900 -0.201566
v 0.523513 0.483442 -0.203953
v 0.522933 0.485474 -0.206606
v 0.522752 0.487941 -0.209494
v 0.522850 0.490713 -0.212547
v 0.523061 0.493607 -0.215666
v 0.523189 0.496411 -0.218736
v 0.523038 0.498911 -0.221642
v 0.522433 0.500916 -0.224280
v 0.521244 0.502286 -0.226574
v 0.519402 0.502944 -0.228483
v 0.516907 0.502891 -0.230008
v 0.513828 0.502203 -0.231189
v 0.510295 0.501020 -0.232102
v 0.506483 0.499533 -0.232851
v 0.502588 0.497956 -0.233551
v 0.498805 0.496501 -0.234317
v 0.495303 0.495351 -0.235248
v 0.492199 0.494635 -0.236414
v 0.489546 0.494410 -0.237846
v 0.487318 0.494648 -0.239528
v 0.485397 0.495220 -0.241391
v 0.487160 0.494476 -0.239435
v 0.488616 0.493397 -0.237298
v 0.489647 0.491856 -0.234911
v 0.490227 0.489823 -0.232258
v 0.490408 0.487356 -0.229370
v 0.490310 0.484584 -0.226317
v 0.490099 0.481690 -0.223198
v 0.489971 0.478886 -0.220128
v 0.490122 0.476386 -0.217222
v 0.490727 0.474381 -0.214584
v 0.491916 0.473011 -0.212290
v 0.493758 0.472353 -0.210380
v 0.496253 0.472406 -0.208856
v 0.499332 0.473094 -0.207675
v 0.502865 0.474277 -0.206762
v 0.506677 0.475765 -0.206013
v 0.510572 0.477342 -0.205313
v 0.514355 0.478797 -0.204547
v 0.517857 0.479947 -0.203616
v 0.520961 0.480662 -0.202450
v 0.523614 0.480887 -0.201018
v 0.525842 0.480649 -0.199336
f 279 280 281
f 279 281 280
f 279 281 282
f 279 282 281
f 279 282 283
f 279 283 282
f 279 283 284
f 279 284 283
f 279 284 285
f 279 285 284
f 279 285 286
f 279 286 285
f 279 286 287
f 279 287 286
f 279 287 288
f 279 288 287
f 279 288 289
f 279 289 288
f 279 289 290
f 279 290 289
f 279 290 291
f 279 291 290
f 279 291 292
f 279 292 291
f 279 292 293
f 279 293 292
f 279 293 294
f 279 294 293
f 279 294 295
f 279 295 294
f 279 295 296
f 279 296 295
f 279 296 297
f 279 297 296
f 279 297 298
f 279 298 297
f 279 298 299
f 279 299 298
f 279 299 300
f 279 300 299
f 279 300 301
f 279 301 300
f 279 301 302
f 279 302 301
f 279 302 303
f 279 303 302
f 279 303 304
f 279 304 303
f 279 304 305
f 279 305 304
f 279 305 306
f 279 306 305
f 279 306 307
f 279 307 306
f 279 307 308
f 279 308 307
f 279 308 309
f 279 309 308
f 279 309 310
f 279 310 309
f 279 310 311
f 279 311 310
f 279 311 312
f 279 312 311
f 279 312 313
f 279 313 312
f 279 313 314
f 279 314 313
f 279 314 315
f 279 315 314
f 279 315 316
f 279 316 315
f 279 316 317
f 279 317 316
f 279 317 318
f 279 318 317
f 279 318 319
f 279 319 318
f 279 319 320
f 279 320 319
f 279 320 321
f 279 321 320
f 279 321 322
f 279 322 321
f 279 322 323
f 279 323 322
f 279 323 324
f 279 324 323
v 0.527763 0.480077 -0.197473
v 0.529595 0.482235 -0.196377
v 0.531426 0.484242 -0.194966
v 0.533256 0.485973 -0.192974
v 0.535086 0.487354 -0.190246
v 0.536914 0.488375 -0.186763
v 0.538742 0.489100 -0.182658
v 0.540570 0.489655 -0.178195
v 0.542397 0.490210 -0.173732
v 0.544225 0.490953 -0.169664
v 0.546053 0.492061 -0.166363
v 0.547884 0.493669 -0.164113
v 0.549715 0.495853 -0.163071
v 0.551548 0.498611 -0.163237
v 0.553383 0.501871 -0.164455
v 0.555218 0.505494 -0.166440
v 0.557054 0.509307 -0.168819
v 0.558890 0.513119 -0.171199
v 0.560726 0.516761 -0.173220
v 0.562560 0.520106 -0.174620
v 0.564394 0.523093 -0.175265
v 0.566227 0.525728 -0.175173
v 0.568059 0.528088 -0.174501
v 0.569891 0.530297 -0.173513
v 0.568059 0.528139 -0.174609
v 0.566228 0.526132 -0.176020
v 0.564397 0.524400 -0.178012
v 0.562568 0.523020 -0.180740
v 0.560739 0.521998 -0.184223
v 0.558912 0.521273 -0.188328
v 0.557084 0.520719 -0.192791
v 0.555257 0.520164 -0.197254
v 0.553429 0.519421 -0.201322
v 0.551600 0.518313 -0.204623
v 0.549770 0.516704 -0.206873
v 0.547939 0.514521 -0.207915
v 0.546105 0.511762 -0.207749
v 0.544271 0.508503 -0.206531
v 0.542436 0.504879 -0.204546
v 0.540600 0.501067 -0.202167
v 0.538764 0.497255 -0.199787
v 0.536928 0.493613 -0.197766
v 0.535094 0.490268 -0.196366
v 0.533260 0.487281 -0.195721
v 0.531427 0.484645 -0.195813
v 0.529595 0.482286 -0.196485
f 325 326 327
f 325 327 326
f 325 327 328
f 325 328 327
f 325 328 329
f 325 329 328
f 325 329 330
f 325 330 329
f 325 330 331
f 325 331 330
f 325 331 332
f 325 332 331
f 325 332 333
f 325 333 332
f 325 333 334
f 325 334 333
f 325 334 335
f 325 335 334
f 325 335 336
f 325 336 335
f 325 336 337
f 325 337 336
f 325 337 338
f 325 338 337
f 325 338 339
f 325 339 338
f 325 339 340
f 325 340 339
f 325 340 341
f 325 341 340
f 325 341 342
f 325 342 341
f 325 342 343
f 325 343 342
f 325 343 344
f 325 344 343
f 325 344 345
f 325 345 344
f 325 345 346
f 325 346 345
f 325 346 347
f 325 347 346
f 325 347 348
f 325 348 347
f 325 348 349
f 325 349 348
f 325 349 350
f 325 350 349
f 325 350 351
f 325 351 350
f 325 351 352
f 325 352 351
f 325 352 353
f 325 353 352
f 325 353 354
f 325 354 353
f 325 354 355
f 325 355 354
f 325 355 356
f 325 356 355
f 325 356 357
f 325 357 356
f 325 357 358
f 325 358 357
f 325 358 359
f 325 359 358
f 325 359 360
f 325 360 359
f 325 360 361
f 325 361 360
f 325 361 362
f 325 362 361
f 325 362 363
f 325 363 362
f 325 363 364
f 325 364 363
f 325 364 365
f 325 365 364
f 325 365 366
f 325 366 365
f 325 366 367
f 325 367 366
f 325 367 368
f 325 368 367
f 325 368 369
f 325 369 368
f 325 369 370
f 325 370 369
v 0.527763 0.480077 -0.197473
v 0.526659 0.478740 -0.194796
v 0.525362 0.477306 -0.192243
v 0.523627 0.475653 -0.189975
v 0.521252 0.473678 -0.188121
v 0.518146 0.471337 -0.186740
v 0.514372 0.468661 -0.185792
v 0.510147 0.465759 -0.185136
v 0.505814 0.462803 -0.184550
v 0.501786 0.460000 -0.183766
v 0.498467 0.457552 -0.182524
v 0.496178 0.455621 -0.180614
v 0.495099 0.454296 -0.177921
v 0.495228 0.453578 -0.174445
v 0.496387 0.453376 -0.170301
v 0.498256 0.453530 -0.165699
v 0.500429 0.453836 -0.160899
v 0.502494 0.454089 -0.156169
v 0.504109 0.454115 -0.151731
v 0.505055 0.453807 -0.147726
v 0.505271 0.453132 -0.144194
v 0.504847 0.452135 -0.141076
v 0.503984 0.450920 -0.138243
v 0.502929 0.449607 -0.135534
v 0.504033 0.450944 -0.138211
v 0.505330 0.452378 -0.140764
v 0.507065 0.454031 -0.143032
v 0.509440 0.456006 -0.144886
v 0.512546 0.458346 -0.146267
v 0.516320 0.461022 -0.147215
v 0.520545 0.463925 -0.147871
v 0.524878 0.466881 -0.148457
v 0.528906 0.469684 -0.149241
v 0.532225 0.472132 -0.150483
v 0.534513 0.474063 -0.152393
v 0.535593 0.475387 -0.155086
v 0.535464 0.476106 -0.158562
v 0.534305 0.476308 -0.162706
v 0.532436 0.476154 -0.167308
v 0.530263 0.475848 -0.172108
v 0.528197 0.475595 -0.176838
v 0.526583 0.475568 -0.181276
v 0.525637 0.475877 -0.185281
v 0.525421 0.476552 -0.188813
v 0.525845 0.477548 -0.191931
v 0.526708 0.478764 -0.194764
f 371 372 373
f 371 373 372
f 371 373 374
f 371 374 373
f 371 374 375
f 371 375 374
f 371 375 376
f 371 376 375
f 371 376 377
f 371 377 376
f 371 377 378
f 371 378 377
f 371 378 379
f 371 379 378
f 371 379 380
f 371 380 379
f 371 380 381
f 371 381 380
f 371 381 382
f 371 382 381
f 371 382 383
f 371 383 382
f 371 383 384
f 371 384 383
f 371 384 385
f 371 385 384
f 371 385 386
f 371 386 385
f 371 386 387
f 371 387 386
f 371 387 388
f 371 388 387
f 371 388 389
f 371 389 388
f 371 389 390
f 371 390 389
f 371 390 391
f 371 391 390
f 371 391 392
f 371 392 391
f 371 392 393
f 371 393 392
f 371 393 394
f 371 394 393
f 371 394 395
f 371 395 394
f 371 395 396
f 371 396 395
f 371 396 397
f 371 397 396
f 371 397 398
f 371 398 397
f 371 398 399
f 371 399 398
f 371 399 400
f 371 400 399
f 371 400 401
f 371 401 400
f 371 401 402
f 371 402 401
f 371 402 403
f 371 403 402
f 371 403 404
f 371 404 403
f 371 404 405
f 371 405 404
f 371 405 406
f 371 406 405
f 371 406 407
f 371 407 406
f 371 407 408
f 371 408 407
f 371 408 409
f 371 409 408
f 371 409 410
f 371 410 409
f 371 410 411
f 371 411 410
f 371 411 412
f 371 412 411
f 371 412 413
f 371 413 412
f 371 413 414
f 371 414 413
f 371 414 415
f 371 415 414
f 371 415 416
f 371 416 415
