o mesh
v 1.286387 0.000000 -4.626139
v 0.228669 0.000000 -4.231507
v 0.228669 0.900000 -4.231507
v 1.286387 0.900000 -4.626139
f 1 2 3
f 1 3 4
v -2.944485 0.000000 -3.047614
v -4.002204 0.000000 -2.652983
v -4.002204 0.900000 -2.652983
v -2.944485 0.900000 -3.047614
f 5 6 7
f 5 7 8
v -4.002204 0.000000 -2.652983
v -3.953740 0.000000 -1.525085
v -3.953740 0.900000 -1.525085
v -4.002204 0.900000 -2.652983
f 9 10 11
f 9 11 12
v -3.808349 0.000000 1.858608
v -3.759885 0.000000 2.986505
v -3.759885 0.900000 2.986505
v -3.808349 0.900000 1.858608
f 13 14 15
f 13 15 16
v -3.759885 0.000000 2.986505
v -2.672215 0.000000 3.288953
v -2.672215 0.900000 3.288953
v -3.759885 0.900000 2.986505
f 17 18 19
f 17 19 20
v 0.590796 0.000000 4.196297
v 1.678467 0.000000 4.498744
v 1.678467 0.900000 4.498744
v 0.590796 0.900000 4.196297
f 21 22 23
f 21 23 24
v 1.678467 0.000000 4.498744
v 2.302220 0.000000 3.557770
v 2.302220 0.900000 3.557770
v 1.678467 0.900000 4.498744
f 25 26 27
f 25 27 28
v 2.302220 0.000000 3.557770
v 2.925974 0.000000 2.616795
v 2.925974 0.900000 2.616795
v 2.302220 0.900000 3.557770
f 29 30 31
f 29 31 32
v 3.549728 0.000000 1.675821
v 4.173481 0.000000 0.734846
v 4.173481 0.900000 0.734846
v 3.549728 0.900000 1.675821
f 33 34 35
f 33 35 36
v 4.173481 0.000000 0.734846
v 4.797235 0.000000 -0.206128
v 4.797235 0.900000 -0.206128
v 4.173481 0.900000 0.734846
f 37 38 39
f 37 39 40
v 4.797235 0.000000 -0.206128
v 4.095065 0.000000 -1.090130
v 4.095065 0.900000 -1.090130
v 4.797235 0.900000 -0.206128
f 41 42 43
f 41 43 44
v 1.988557 0.000000 -3.742137
v 1.286387 0.000000 -4.626139
v 1.286387 0.900000 -4.626139
v 1.988557 0.900000 -3.742137
f 45 46 47
f 45 47 48
v 1.286387 2.600000 -4.626139
v -4.002204 2.600000 -2.652983
v -4.460631 2.600000 -2.956865
v 1.433735 2.600000 -5.156034
f 49 50 51
f 49 51 52
v -4.002204 2.600000 -2.652983
v -3.759885 2.600000 2.986505
v -4.190557 2.600000 3.328591
v -4.460631 2.600000 -2.956865
f 53 54 55
f 53 55 56
v -3.759885 2.600000 2.986505
v 1.678467 2.600000 4.498744
v 1.870725 2.600000 5.014047
v -4.190557 2.600000 3.328591
f 57 58 59
f 57 59 60
v 1.678467 2.600000 4.498744
v 4.797235 2.600000 -0.206128
v 5.346728 2.600000 -0.229739
v 1.870725 2.600000 5.014047
f 61 62 63
f 61 63 64
v 4.797235 2.600000 -0.206128
v 1.286387 2.600000 -4.626139
v 1.433735 2.600000 -5.156034
v 5.346728 2.600000 -0.229739
f 65 66 67
f 65 67 68
v 1.286387 5.200000 -4.626139
v -4.002204 5.200000 -2.652983
v -4.460631 5.200000 -2.956865
v 1.433735 5.200000 -5.156034
f 69 70 71
f 69 71 72
v -4.002204 5.200000 -2.652983
v -3.759885 5.200000 2.986505
v -4.190557 5.200000 3.328591
v -4.460631 5.200000 -2.956865
f 73 74 75
f 73 75 76
v -3.759885 5.200000 2.986505
v 1.678467 5.200000 4.498744
v 1.870725 5.200000 5.014047
v -4.190557 5.200000 3.328591
f 77 78 79
f 77 79 80
v 1.678467 5.200000 4.498744
v 4.797235 5.200000 -0.206128
v 5.346728 5.200000 -0.229739
v 1.870725 5.200000 5.014047
f 81 82 83
f 81 83 84
v 4.797235 5.200000 -0.206128
v 1.286387 5.200000 -4.626139
v 1.433735 5.200000 -5.156034
v 5.346728 5.200000 -0.229739
f 85 86 87
f 85 87 88
v -3.784135 0.000000 2.422151
v -5.115843 0.000000 2.479372
v -5.115843 0.900000 2.479372
v -3.784135 0.900000 2.422151
f 89 90 91
f 89 91 92
v -5.115843 0.000000 2.479372
v -6.447551 0.000000 2.536593
v -6.447551 0.900000 2.536593
v -5.115843 0.900000 2.479372
f 93 94 95
f 93 95 96
v -6.447551 0.000000 2.536593
v -7.779259 0.000000 2.593814
v -7.779259 0.900000 2.593814
v -6.447551 0.900000 2.536593
f 97 98 99
f 97 99 100
v -7.779259 0.000000 2.593814
v -9.110967 0.000000 2.651035
v -9.110967 0.900000 2.651035
v -7.779259 0.900000 2.593814
f 101 102 103
f 101 103 104
v -9.110967 0.000000 2.651035
v -10.442675 0.000000 2.708256
v -10.442675 0.900000 2.708256
v -9.110967 0.900000 2.651035
f 105 106 107
f 105 107 108
v -10.442675 0.000000 2.708256
v -11.774383 0.000000 2.765477
v -11.774383 0.900000 2.765477
v -10.442675 0.900000 2.708256
f 109 110 111
f 109 111 112
v -3.977954 0.000000 -2.088628
v -5.309663 0.000000 -2.031407
v -5.309663 0.900000 -2.031407
v -3.977954 0.900000 -2.088628
f 113 114 115
f 113 115 116
v -9.304787 0.000000 -1.859744
v -10.636495 0.000000 -1.802523
v -10.636495 0.900000 -1.802523
v -9.304787 0.900000 -1.859744
f 117 118 119
f 117 119 120
v -10.636495 0.000000 -1.802523
v -11.968203 0.000000 -1.745302
v -11.968203 0.900000 -1.745302
v -10.636495 0.900000 -1.802523
f 121 122 123
f 121 123 124
v -11.968203 0.000000 -1.745302
v -11.919748 0.000000 -0.617607
v -11.919748 0.900000 -0.617607
v -11.968203 0.900000 -1.745302
f 125 126 127
f 125 127 128
v -11.919748 0.000000 -0.617607
v -11.871293 0.000000 0.510087
v -11.871293 0.900000 0.510087
v -11.919748 0.900000 -0.617607
f 129 130 131
f 129 131 132
v -11.871293 0.000000 0.510087
v -11.822838 0.000000 1.637782
v -11.822838 0.900000 1.637782
v -11.871293 0.900000 0.510087
f 133 134 135
f 133 135 136
v -11.822838 0.000000 1.637782
v -11.774383 0.000000 2.765477
v -11.774383 0.900000 2.765477
v -11.822838 0.900000 1.637782
f 137 138 139
f 137 139 140
v -3.121502 0.000000 -2.981569
v -3.563357 0.000000 -4.165859
v -3.563357 0.900000 -4.165859
v -3.121502 0.900000 -2.981569
f 141 142 143
f 141 143 144
v -3.563357 0.000000 -4.165859
v -4.005211 0.000000 -5.350148
v -4.005211 0.900000 -5.350148
v -3.563357 0.900000 -4.165859
f 145 146 147
f 145 147 148
v -4.005211 0.000000 -5.350148
v -4.447065 0.000000 -6.534437
v -4.447065 0.900000 -6.534437
v -4.005211 0.900000 -5.350148
f 149 150 151
f 149 151 152
v -4.447065 0.000000 -6.534437
v -4.888920 0.000000 -7.718726
v -4.888920 0.900000 -7.718726
v -4.447065 0.900000 -6.534437
f 153 154 155
f 153 155 156
v -4.888920 0.000000 -7.718726
v -5.330774 0.000000 -8.903015
v -5.330774 0.900000 -8.903015
v -4.888920 0.900000 -7.718726
f 157 158 159
f 157 159 160
v -5.330774 0.000000 -8.903015
v -5.772629 0.000000 -10.087304
v -5.772629 0.900000 -10.087304
v -5.330774 0.900000 -8.903015
f 161 162 163
f 161 163 164
v -5.772629 0.000000 -10.087304
v -6.214483 0.000000 -11.271593
v -6.214483 0.900000 -11.271593
v -5.772629 0.900000 -10.087304
f 165 166 167
f 165 167 168
v 0.405686 0.000000 -4.297552
v -0.036168 0.000000 -5.481841
v -0.036168 0.900000 -5.481841
v 0.405686 0.900000 -4.297552
f 169 170 171
f 169 171 172
v -0.036168 0.000000 -5.481841
v -0.478023 0.000000 -6.666130
v -0.478023 0.900000 -6.666130
v -0.036168 0.900000 -5.481841
f 173 174 175
f 173 175 176
v -1.803586 0.000000 -10.218997
v -2.245440 0.000000 -11.403286
v -2.245440 0.900000 -11.403286
v -1.803586 0.900000 -10.218997
f 177 178 179
f 177 179 180
v -2.245440 0.000000 -11.403286
v -2.687295 0.000000 -12.587575
v -2.687295 0.900000 -12.587575
v -2.245440 0.900000 -11.403286
f 181 182 183
f 181 183 184
v -2.687295 0.000000 -12.587575
v -3.863024 0.000000 -12.148915
v -3.863024 0.900000 -12.148915
v -2.687295 0.900000 -12.587575
f 185 186 187
f 185 187 188
v -3.863024 0.000000 -12.148915
v -5.038754 0.000000 -11.710254
v -5.038754 0.900000 -11.710254
v -3.863024 0.900000 -12.148915
f 189 190 191
f 189 191 192
v -5.038754 0.000000 -11.710254
v -6.214483 0.000000 -11.271593
v -6.214483 0.900000 -11.271593
v -5.038754 0.900000 -11.710254
f 193 194 195
f 193 195 196
v 1.035970 0.000000 4.320086
v 0.713739 0.000000 5.478899
v 0.713739 0.900000 5.478899
v 1.035970 0.900000 4.320086
f 197 198 199
f 197 199 200
v 0.713739 0.000000 5.478899
v 0.391509 0.000000 6.637712
v 0.391509 0.900000 6.637712
v 0.713739 0.900000 5.478899
f 201 202 203
f 201 203 204
v 0.391509 0.000000 6.637712
v 0.069278 0.000000 7.796526
v 0.069278 0.900000 7.796526
v 0.391509 0.900000 6.637712
f 205 206 207
f 205 207 208
v 0.069278 0.000000 7.796526
v -0.252952 0.000000 8.955339
v -0.252952 0.900000 8.955339
v 0.069278 0.900000 7.796526
f 209 210 211
f 209 211 212
v -0.252952 0.000000 8.955339
v -0.575183 0.000000 10.114152
v -0.575183 0.900000 10.114152
v -0.252952 0.900000 8.955339
f 213 214 215
f 213 215 216
v -0.575183 0.000000 10.114152
v -0.897413 0.000000 11.272966
v -0.897413 0.900000 11.272966
v -0.575183 0.900000 10.114152
f 217 218 219
f 217 219 220
v -0.897413 0.000000 11.272966
v -1.219644 0.000000 12.431779
v -1.219644 0.900000 12.431779
v -0.897413 0.900000 11.272966
f 221 222 223
f 221 223 224
v -3.117388 0.000000 3.165164
v -3.439619 0.000000 4.323977
v -3.439619 0.900000 4.323977
v -3.117388 0.900000 3.165164
f 225 226 227
f 225 227 228
v -3.439619 0.000000 4.323977
v -3.761849 0.000000 5.482791
v -3.761849 0.900000 5.482791
v -3.439619 0.900000 4.323977
f 229 230 231
f 229 231 232
v -3.761849 0.000000 5.482791
v -4.084080 0.000000 6.641604
v -4.084080 0.900000 6.641604
v -3.761849 0.900000 5.482791
f 233 234 235
f 233 235 236
v -4.728541 0.000000 8.959231
v -5.050771 0.000000 10.118044
v -5.050771 0.900000 10.118044
v -4.728541 0.900000 8.959231
f 237 238 239
f 237 239 240
v -5.050771 0.000000 10.118044
v -5.373002 0.000000 11.276857
v -5.373002 0.900000 11.276857
v -5.050771 0.900000 10.118044
f 241 242 243
f 241 243 244
v -5.373002 0.000000 11.276857
v -3.988549 0.000000 11.661831
v -3.988549 0.900000 11.661831
v -5.373002 0.900000 11.276857
f 245 246 247
f 245 247 248
v -3.988549 0.000000 11.661831
v -2.604096 0.000000 12.046805
v -2.604096 0.900000 12.046805
v -3.988549 0.900000 11.661831
f 249 250 251
f 249 251 252
v -2.604096 0.000000 12.046805
v -1.219644 0.000000 12.431779
v -1.219644 0.900000 12.431779
v -2.604096 0.900000 12.046805
f 253 254 255
f 253 255 256
v 1.833417 0.000000 -3.937451
v 2.857757 0.000000 -4.751091
v 2.857757 0.900000 -4.751091
v 1.833417 0.900000 -3.937451
f 257 258 259
f 257 259 260
v 2.857757 0.000000 -4.751091
v 3.882096 0.000000 -5.564732
v 3.882096 0.900000 -5.564732
v 2.857757 0.900000 -4.751091
f 261 262 263
f 261 263 264
v 3.882096 0.000000 -5.564732
v 4.906436 0.000000 -6.378372
v 4.906436 0.900000 -6.378372
v 3.882096 0.900000 -5.564732
f 265 266 267
f 265 267 268
v 4.906436 0.000000 -6.378372
v 5.930775 0.000000 -7.192013
v 5.930775 0.900000 -7.192013
v 4.906436 0.900000 -6.378372
f 269 270 271
f 269 271 272
v 5.930775 0.000000 -7.192013
v 6.955115 0.000000 -8.005653
v 6.955115 0.900000 -8.005653
v 5.930775 0.900000 -7.192013
f 273 274 275
f 273 275 276
v 6.955115 0.000000 -8.005653
v 7.979454 0.000000 -8.819294
v 7.979454 0.900000 -8.819294
v 6.955115 0.900000 -8.005653
f 277 278 279
f 277 279 280
v 4.250205 0.000000 -0.894816
v 5.274544 0.000000 -1.708457
v 5.274544 0.900000 -1.708457
v 4.250205 0.900000 -0.894816
f 281 282 283
f 281 283 284
v 5.274544 0.000000 -1.708457
v 6.298884 0.000000 -2.522097
v 6.298884 0.900000 -2.522097
v 5.274544 0.900000 -1.708457
f 285 286 287
f 285 287 288
v 6.298884 0.000000 -2.522097
v 7.323223 0.000000 -3.335738
v 7.323223 0.900000 -3.335738
v 6.298884 0.900000 -2.522097
f 289 290 291
f 289 291 292
v 7.323223 0.000000 -3.335738
v 8.347563 0.000000 -4.149378
v 8.347563 0.900000 -4.149378
v 7.323223 0.900000 -3.335738
f 293 294 295
f 293 295 296
v 8.347563 0.000000 -4.149378
v 9.371902 0.000000 -4.963019
v 9.371902 0.900000 -4.963019
v 8.347563 0.900000 -4.149378
f 297 298 299
f 297 299 300
v 9.371902 0.000000 -4.963019
v 10.396242 0.000000 -5.776659
v 10.396242 0.900000 -5.776659
v 9.371902 0.900000 -4.963019
f 301 302 303
f 301 303 304
v 8.330886 0.000000 -8.376855
v 9.303663 0.000000 -9.149539
v 9.303663 0.900000 -9.149539
v 8.330886 0.900000 -8.376855
f 305 306 307
f 305 307 308
v 9.303663 0.000000 -9.149539
v 10.276439 0.000000 -9.922223
v 10.276439 0.900000 -9.922223
v 9.303663 0.900000 -9.149539
f 309 310 311
f 309 311 312
v 10.276439 0.000000 -9.922223
v 11.249216 0.000000 -10.694906
v 11.249216 0.900000 -10.694906
v 10.276439 0.900000 -9.922223
f 313 314 315
f 313 315 316
v 11.249216 0.000000 -10.694906
v 12.221992 0.000000 -11.467590
v 12.221992 0.900000 -11.467590
v 11.249216 0.900000 -10.694906
f 317 318 319
f 317 319 320
v 12.221992 0.000000 -11.467590
v 13.194769 0.000000 -12.240274
v 13.194769 0.900000 -12.240274
v 12.221992 0.900000 -11.467590
f 321 322 323
f 321 323 324
v 10.044809 0.000000 -6.219098
v 11.017586 0.000000 -6.991782
v 11.017586 0.900000 -6.991782
v 10.044809 0.900000 -6.219098
f 325 326 327
f 325 327 328
v 11.017586 0.000000 -6.991782
v 11.990362 0.000000 -7.764465
v 11.990362 0.900000 -7.764465
v 11.017586 0.900000 -6.991782
f 329 330 331
f 329 331 332
v 11.990362 0.000000 -7.764465
v 12.963139 0.000000 -8.537149
v 12.963139 0.900000 -8.537149
v 11.990362 0.900000 -7.764465
f 333 334 335
f 333 335 336
v 12.963139 0.000000 -8.537149
v 13.935915 0.000000 -9.309833
v 13.935915 0.900000 -9.309833
v 12.963139 0.900000 -8.537149
f 337 338 339
f 337 339 340
v 13.935915 0.000000 -9.309833
v 14.908692 0.000000 -10.082516
v 14.908692 0.900000 -10.082516
v 13.935915 0.900000 -9.309833
f 341 342 343
f 341 343 344
v 14.908692 0.000000 -10.082516
v 14.051730 0.000000 -11.161395
v 14.051730 0.900000 -11.161395
v 14.908692 0.900000 -10.082516
f 345 346 347
f 345 347 348
v 14.051730 0.000000 -11.161395
v 13.194769 0.000000 -12.240274
v 13.194769 0.900000 -12.240274
v 14.051730 0.900000 -11.161395
f 349 350 351
f 349 351 352
v -4.846692 0.000000 9.384130
v -6.061473 0.000000 9.046337
v -6.061473 0.900000 9.046337
v -4.846692 0.900000 9.384130
f 353 354 355
f 353 355 356
v -6.061473 0.000000 9.046337
v -7.276253 0.000000 8.708544
v -7.276253 0.900000 8.708544
v -6.061473 0.900000 9.046337
f 357 358 359
f 357 359 360
v -7.276253 0.000000 8.708544
v -8.491034 0.000000 8.370750
v -8.491034 0.900000 8.370750
v -7.276253 0.900000 8.708544
f 361 362 363
f 361 363 364
v -8.491034 0.000000 8.370750
v -9.705814 0.000000 8.032957
v -9.705814 0.900000 8.032957
v -8.491034 0.900000 8.370750
f 365 366 367
f 365 367 368
v -3.966958 0.000000 6.220406
v -5.181738 0.000000 5.882613
v -5.181738 0.900000 5.882613
v -3.966958 0.900000 6.220406
f 369 370 371
f 369 371 372
v -5.181738 0.000000 5.882613
v -6.396519 0.000000 5.544820
v -6.396519 0.900000 5.544820
v -5.181738 0.900000 5.882613
f 373 374 375
f 373 375 376
v -6.396519 0.000000 5.544820
v -7.611299 0.000000 5.207027
v -7.611299 0.900000 5.207027
v -6.396519 0.900000 5.544820
f 377 378 379
f 377 379 380
v -7.611299 0.000000 5.207027
v -8.826080 0.000000 4.869233
v -8.826080 0.900000 4.869233
v -7.611299 0.900000 5.207027
f 381 382 383
f 381 383 384
v -8.826080 0.000000 4.869233
v -9.119325 0.000000 5.923808
v -9.119325 0.900000 5.923808
v -8.826080 0.900000 4.869233
f 385 386 387
f 385 387 388
v -9.119325 0.000000 5.923808
v -9.412569 0.000000 6.978383
v -9.412569 0.900000 6.978383
v -9.119325 0.900000 5.923808
f 389 390 391
f 389 391 392
v -9.412569 0.000000 6.978383
v -9.705814 0.000000 8.032957
v -9.705814 0.900000 8.032957
v -9.412569 0.900000 6.978383
f 393 394 395
f 393 395 396
v -1.816517 0.000000 -10.253656
v -0.635001 0.000000 -10.694476
v -0.635001 0.900000 -10.694476
v -1.816517 0.900000 -10.253656
f 397 398 399
f 397 399 400
v -0.635001 0.000000 -10.694476
v 0.546515 0.000000 -11.135296
v 0.546515 0.900000 -11.135296
v -0.635001 0.900000 -10.694476
f 401 402 403
f 401 403 404
v 0.546515 0.000000 -11.135296
v 1.728030 0.000000 -11.576115
v 1.728030 0.900000 -11.576115
v 0.546515 0.900000 -11.135296
f 405 406 407
f 405 407 408
v 1.728030 0.000000 -11.576115
v 2.909546 0.000000 -12.016935
v 2.909546 0.900000 -12.016935
v 1.728030 0.900000 -11.576115
f 409 410 411
f 409 411 412
v 2.909546 0.000000 -12.016935
v 4.091062 0.000000 -12.457755
v 4.091062 0.900000 -12.457755
v 2.909546 0.900000 -12.016935
f 413 414 415
f 413 415 416
v 4.091062 0.000000 -12.457755
v 5.272578 0.000000 -12.898574
v 5.272578 0.900000 -12.898574
v 4.091062 0.900000 -12.457755
f 417 418 419
f 417 419 420
v -0.549527 0.000000 -6.857780
v 0.631989 0.000000 -7.298599
v 0.631989 0.900000 -7.298599
v -0.549527 0.900000 -6.857780
f 421 422 423
f 421 423 424
v 0.631989 0.000000 -7.298599
v 1.813505 0.000000 -7.739419
v 1.813505 0.900000 -7.739419
v 0.631989 0.900000 -7.298599
f 425 426 427
f 425 427 428
v 1.813505 0.000000 -7.739419
v 2.995021 0.000000 -8.180239
v 2.995021 0.900000 -8.180239
v 1.813505 0.900000 -7.739419
f 429 430 431
f 429 431 432
v 2.995021 0.000000 -8.180239
v 4.176537 0.000000 -8.621058
v 4.176537 0.900000 -8.621058
v 2.995021 0.900000 -8.180239
f 433 434 435
f 433 435 436
v 4.176537 0.000000 -8.621058
v 5.358052 0.000000 -9.061878
v 5.358052 0.900000 -9.061878
v 4.176537 0.900000 -8.621058
f 437 438 439
f 437 439 440
v 5.358052 0.000000 -9.061878
v 6.539568 0.000000 -9.502698
v 6.539568 0.900000 -9.502698
v 5.358052 0.900000 -9.061878
f 441 442 443
f 441 443 444
v 6.539568 0.000000 -9.502698
v 6.117238 0.000000 -10.634657
v 6.117238 0.900000 -10.634657
v 6.539568 0.900000 -9.502698
f 445 446 447
f 445 447 448
v 6.117238 0.000000 -10.634657
v 5.694908 0.000000 -11.766615
v 5.694908 0.900000 -11.766615
v 6.117238 0.900000 -10.634657
f 449 450 451
f 449 451 452
v 5.694908 0.000000 -11.766615
v 5.272578 0.000000 -12.898574
v 5.272578 0.900000 -12.898574
v 5.694908 0.900000 -11.766615
f 453 454 455
f 453 455 456
v -9.880187 0.000000 -1.835020
v -9.932461 0.000000 -3.051610
v -9.932461 0.900000 -3.051610
v -9.880187 0.900000 -1.835020
f 457 458 459
f 457 459 460
v -9.932461 0.000000 -3.051610
v -9.984736 0.000000 -4.268200
v -9.984736 0.900000 -4.268200
v -9.932461 0.900000 -3.051610
f 461 462 463
f 461 463 464
v -9.984736 0.000000 -4.268200
v -10.037011 0.000000 -5.484791
v -10.037011 0.900000 -5.484791
v -9.984736 0.900000 -4.268200
f 465 466 467
f 465 467 468
v -10.037011 0.000000 -5.484791
v -10.089285 0.000000 -6.701381
v -10.089285 0.900000 -6.701381
v -10.037011 0.900000 -5.484791
f 469 470 471
f 469 471 472
v -5.609649 0.000000 -2.018517
v -5.661924 0.000000 -3.235108
v -5.661924 0.900000 -3.235108
v -5.609649 0.900000 -2.018517
f 473 474 475
f 473 475 476
v -5.661924 0.000000 -3.235108
v -5.714198 0.000000 -4.451698
v -5.714198 0.900000 -4.451698
v -5.661924 0.900000 -3.235108
f 477 478 479
f 477 479 480
v -5.714198 0.000000 -4.451698
v -5.766473 0.000000 -5.668288
v -5.766473 0.900000 -5.668288
v -5.714198 0.900000 -4.451698
f 481 482 483
f 481 483 484
v -5.766473 0.000000 -5.668288
v -5.818748 0.000000 -6.884878
v -5.818748 0.900000 -6.884878
v -5.766473 0.900000 -5.668288
f 485 486 487
f 485 487 488
v -5.818748 0.000000 -6.884878
v -7.242260 0.000000 -6.823712
v -7.242260 0.900000 -6.823712
v -5.818748 0.900000 -6.884878
f 489 490 491
f 489 491 492
v -7.242260 0.000000 -6.823712
v -8.665773 0.000000 -6.762546
v -8.665773 0.900000 -6.762546
v -7.242260 0.900000 -6.823712
f 493 494 495
f 493 495 496
v -8.665773 0.000000 -6.762546
v -10.089285 0.000000 -6.701381
v -10.089285 0.900000 -6.701381
v -8.665773 0.900000 -6.762546
f 497 498 499
f 497 499 500
