o mesh
v 2.691054 3.450258 -0.019660
v 2.720085 3.460734 0.002688
v 2.691641 3.439782 0.016972
v 2.883908 3.122419 -0.116505
v 2.912938 3.132894 -0.094156
v 2.884495 3.111943 -0.079873
f 1 2 5
f 1 5 4
f 2 3 6
f 2 6 5
f 3 1 4
f 3 4 6
v 2.879622 3.122419 -0.113684
v 2.912083 3.134583 -0.097862
v 2.889635 3.110255 -0.078988
v 3.077713 2.810429 -0.280236
v 3.110174 2.822593 -0.264414
v 3.087726 2.798265 -0.245540
f 7 8 11
f 7 11 10
f 8 9 12
f 8 12 11
f 9 7 10
f 9 10 12
v 3.091871 2.817671 -0.284170
v 3.110246 2.802051 -0.254668
v 3.073497 2.811565 -0.251351
v 2.964182 2.377899 -0.437479
v 2.982556 2.362279 -0.407976
v 2.945807 2.371793 -0.404660
f 13 14 17
f 13 17 16
f 14 15 18
f 14 18 17
f 15 13 16
f 15 16 18
v 2.964182 2.367212 -0.438434
v 2.982000 2.365716 -0.404784
v 2.946363 2.379042 -0.406897
v 2.766960 1.852731 -0.356870
v 2.784778 1.851235 -0.323221
v 2.749142 1.864561 -0.325333
f 19 20 23
f 19 23 22
f 20 21 24
f 20 24 23
f 21 19 22
f 21 22 24
v 2.745834 1.856176 -0.329001
v 2.772904 1.865616 -0.354103
v 2.782141 1.846735 -0.322319
v 2.695124 1.537641 -0.503487
v 2.722194 1.547082 -0.528588
v 2.731431 1.528201 -0.496805
f 25 26 29
f 25 29 28
f 26 27 30
f 26 30 29
f 27 25 28
f 27 28 30
v 2.716250 1.532446 -0.531004
v 2.735113 1.542843 -0.499571
v 2.697386 1.537635 -0.498305
v 2.796112 0.986225 -0.398262
v 2.814975 0.996622 -0.366829
v 2.777249 0.991413 -0.365563
f 31 32 35
f 31 35 34
f 32 33 36
f 32 36 35
f 33 31 34
f 33 34 36
v 2.796112 0.996910 -0.398189
v 2.814980 0.991236 -0.365573
v 2.777244 0.986114 -0.366893
v 2.864344 0.525594 -0.519642
v 2.883212 0.519921 -0.487026
v 2.845476 0.514798 -0.488346
f 37 38 41
f 37 41 40
f 38 39 42
f 38 42 41
f 39 37 40
f 39 40 42
v 2.883265 0.520104 -0.487114
v 2.846321 0.529123 -0.489517
v 2.863446 0.511085 -0.518385
v 2.795497 0.200000 -0.339165
v 2.758553 0.209019 -0.341568
v 2.775678 0.190981 -0.370436
f 43 44 47
f 43 47 46
f 44 45 48
f 44 48 47
f 45 43 46
f 45 46 48
v 2.787855 0.200000 -0.346292
v 2.769893 0.209933 -0.349567
v 2.771980 0.190067 -0.355310
v 2.614193 0.043547 0.131746
v 2.596232 0.053480 0.128472
v 2.598318 0.033614 0.122728
f 49 50 53
f 49 53 52
f 50 51 54
f 50 54 53
f 51 49 52
f 51 52 54
v 1.118760 4.653455 -0.021987
v 1.137506 4.655736 0.011110
v 1.100015 4.648922 0.010877
v 1.208064 4.162671 -0.038747
v 1.226809 4.164952 -0.005649
v 1.189318 4.158138 -0.005882
f 55 56 59
f 55 59 58
f 56 57 60
f 56 60 59
f 57 55 58
f 57 58 60
v 1.214913 4.161920 -0.006906
v 1.201214 4.171439 -0.019305
v 1.208064 4.152402 -0.024067
v 0.868721 3.977161 0.233760
v 0.855022 3.986679 0.221361
v 0.861871 3.967642 0.216599
f 61 62 65
f 61 65 64
f 62 63 66
f 62 66 65
f 63 61 64
f 63 64 66
v 1.208064 4.168464 -0.037764
v 1.227074 4.157438 -0.006634
v 1.189053 4.159859 -0.005880
v 1.173985 3.680586 -0.189747
v 1.192996 3.669560 -0.158618
v 1.154975 3.671981 -0.157864
f 67 68 71
f 67 71 70
f 68 69 72
f 68 72 71
f 69 67 70
f 69 70 72
v 1.168185 3.674043 -0.179248
v 1.184845 3.679076 -0.167885
v 1.168927 3.669009 -0.159096
v 1.241043 3.523715 -0.219480
v 1.257703 3.528748 -0.208117
v 1.241785 3.518681 -0.199327
f 73 74 77
f 73 77 76
f 74 75 78
f 74 78 77
f 75 73 76
f 75 76 78
v 1.173985 3.677951 -0.190393
v 1.192688 3.675666 -0.157272
v 1.155283 3.668510 -0.158564
v 1.271867 3.182459 -0.279841
v 1.290569 3.180174 -0.246720
v 1.253165 3.173019 -0.248012
f 79 80 83
f 79 83 82
f 80 81 84
f 80 84 83
f 81 79 82
f 81 82 84
v 1.271867 3.173471 -0.279597
v 1.290453 3.185169 -0.248456
v 1.253281 3.177012 -0.246520
v 1.383929 2.690047 -0.164877
v 1.402515 2.701745 -0.133737
v 1.365343 2.693587 -0.131801
f 85 86 89
f 85 89 88
f 86 87 90
f 86 90 89
f 87 85 88
f 87 88 90
v 1.373870 2.695126 -0.150015
v 1.390775 2.704970 -0.142993
v 1.387141 2.685283 -0.137406
v 1.526849 2.600151 -0.385188
v 1.543754 2.609995 -0.378166
v 1.540120 2.590308 -0.372580
f 91 92 95
f 91 95 94
f 92 93 96
f 92 96 95
f 93 91 94
f 93 94 96
v 1.383929 2.701698 -0.164467
v 1.402273 2.696751 -0.131436
v 1.365584 2.686929 -0.134511
v 1.544161 2.156566 -0.335096
v 1.562506 2.151620 -0.302066
v 1.525817 2.141798 -0.305140
f 97 98 101
f 97 101 100
f 98 99 102
f 98 102 101
f 99 97 100
f 99 100 102
v 1.544161 2.148187 -0.336026
v 1.561805 2.158064 -0.303729
v 1.526518 2.143732 -0.302547
v 1.713609 1.733808 -0.301864
v 1.731252 1.743685 -0.269567
v 1.695965 1.729353 -0.268385
f 103 104 107
f 103 107 106
f 104 105 108
f 104 108 107
f 105 103 106
f 105 106 108
v 1.713609 1.731045 -0.301459
v 1.732645 1.738667 -0.269342
v 1.694572 1.737134 -0.269016
v 1.726770 1.418354 -0.235047
v 1.745806 1.425977 -0.202930
v 1.707733 1.424444 -0.202604
f 109 110 113
f 109 113 112
f 110 111 114
f 110 114 113
f 111 109 112
f 111 112 114
v 1.709655 1.422925 -0.227351
v 1.745778 1.432219 -0.219554
v 1.724877 1.413631 -0.193677
v 1.828006 1.085853 -0.373880
v 1.864129 1.095147 -0.366084
v 1.843228 1.076559 -0.340206
f 115 116 119
f 115 119 118
f 116 117 120
f 116 120 119
f 117 115 118
f 117 118 120
v 1.845121 1.086875 -0.382033
v 1.863984 1.088021 -0.348944
v 1.826258 1.082663 -0.349193
v 1.916547 0.585048 -0.405372
v 1.935410 0.586194 -0.372283
v 1.897684 0.580836 -0.372533
f 121 122 125
f 121 125 124
f 122 123 126
f 122 126 125
f 123 121 124
f 123 124 126
v 1.902603 0.584026 -0.366380
v 1.911171 0.594423 -0.402024
v 1.935868 0.573629 -0.381784
v 1.728311 0.237992 -0.509211
v 1.736879 0.248389 -0.544855
v 1.761577 0.227595 -0.524615
f 127 128 131
f 127 131 130
f 128 129 132
f 128 132 131
f 129 127 130
f 129 130 132
v 1.750451 0.237992 -0.517461
v 1.733058 0.245690 -0.525842
v 1.743258 0.230294 -0.535377
v 1.536971 -0.027034 -0.317893
v 1.519579 -0.019336 -0.326274
v 1.529779 -0.034732 -0.335810
f 133 134 137
f 133 137 136
f 134 135 138
f 134 138 137
f 135 133 136
f 135 136 138
v -2.923462 2.591358 -0.020231
v -2.904469 2.602933 0.010709
v -2.942455 2.605709 0.009523
v -2.962395 2.140791 0.172235
v -2.943403 2.152367 0.203175
v -2.981388 2.155142 0.201989
f 139 140 143
f 139 143 142
f 140 141 144
f 140 144 143
f 141 139 142
f 141 142 144
v -2.972797 2.149433 0.198450
v -2.959800 2.158416 0.184944
v -2.954588 2.140451 0.194005
v -3.122600 1.974609 -0.061978
v -3.109603 1.983591 -0.075484
v -3.104391 1.965627 -0.066422
f 145 146 149
f 145 149 148
f 146 147 150
f 146 150 149
f 147 145 148
f 147 148 150
v -2.945260 2.149433 0.178669
v -2.960330 2.158124 0.212571
v -2.981597 2.140743 0.186159
v -2.805207 1.713783 0.352603
v -2.820277 1.722474 0.386506
v -2.841544 1.705092 0.360094
f 151 152 155
f 151 155 154
f 152 153 156
f 152 156 155
f 153 151 154
f 153 154 156
v -2.814043 1.713783 0.375069
v -2.828017 1.723959 0.363527
v -2.824967 1.703608 0.360607
v -3.268407 1.583260 0.810094
v -3.282380 1.593435 0.798552
v -3.279330 1.573084 0.795632
f 157 158 161
f 157 161 160
f 158 159 162
f 158 162 161
f 159 157 160
f 159 160 162
v -2.808570 1.713783 0.349245
v -2.816547 1.723710 0.385159
v -2.841910 1.703856 0.364799
v -2.614203 1.305474 0.505276
v -2.622180 1.315401 0.541190
v -2.647543 1.295547 0.520830
f 163 164 167
f 163 167 166
f 164 165 168
f 164 168 167
f 165 163 166
f 165 166 168
v -2.621295 1.305474 0.532400
v -2.634176 1.315279 0.519365
v -2.628455 1.295669 0.515530
v -2.997884 1.146264 0.784776
v -3.010766 1.156070 0.771740
v -3.005045 1.136459 0.767906
f 169 170 173
f 169 173 172
f 170 171 174
f 170 174 173
f 171 169 172
f 171 172 174
v -2.629482 1.305474 0.544380
v -2.643749 1.314885 0.510323
v -2.610694 1.296063 0.512592
v -2.821565 0.966556 0.531191
v -2.835832 0.975967 0.497133
v -2.802777 0.957145 0.499403
f 175 176 179
f 175 179 178
f 176 177 180
f 176 180 179
f 177 175 178
f 177 178 180
v -2.830213 0.966556 0.515637
v -2.817385 0.975918 0.502227
v -2.812577 0.957194 0.509863
v -3.037669 0.778940 0.186185
v -3.024841 0.788302 0.172776
v -3.020033 0.769578 0.180411
f 181 182 185
f 181 185 184
f 182 183 186
f 182 186 185
f 183 181 184
f 183 184 186
v -2.820058 0.968583 0.487336
v -2.801038 0.966652 0.520298
v -2.839078 0.964432 0.520093
v -2.790373 0.464416 0.440684
v -2.771353 0.462486 0.473646
v -2.809393 0.460265 0.473440
f 187 188 191
f 187 191 190
f 188 189 192
f 188 192 191
f 189 187 190
f 189 190 192
v -2.790373 0.468353 0.441414
v -2.771980 0.454623 0.471831
v -2.808766 0.464190 0.474525
v -2.864022 0.205965 0.367507
v -2.845628 0.192234 0.397923
v -2.882415 0.201801 0.400618
f 193 194 197
f 193 197 196
f 194 195 198
f 194 198 197
f 195 193 196
f 195 196 198
v 1.118760 4.646594 -0.021134
v 1.137799 4.655068 0.010767
v 1.099722 4.656451 0.010367
v 1.098300 4.126592 0.129218
v 1.117339 4.135067 0.161119
v 1.079261 4.136449 0.160720
f 199 200 203
f 199 203 202
f 200 201 204
f 200 204 203
f 201 199 202
f 201 202 204
v 1.098300 4.137136 0.128804
v 1.116634 4.135561 0.162171
v 1.079965 4.125411 0.160083
v 1.220583 3.713277 0.041600
v 1.238917 3.711702 0.074967
v 1.202248 3.701552 0.072879
f 205 206 209
f 205 209 208
f 206 207 210
f 206 210 209
f 207 205 208
f 207 208 210
v 1.217752 3.708844 0.074810
v 1.218733 3.718678 0.056526
v 1.225263 3.699010 0.058111
v 0.734602 3.538958 -0.042473
v 0.735582 3.548792 -0.060757
v 0.742113 3.529124 -0.059172
f 211 212 215
f 211 215 214
f 212 213 216
f 212 216 215
f 213 211 214
f 213 214 216
v 1.238620 3.708844 0.075745
v 1.202941 3.720513 0.069199
v 1.220187 3.697175 0.044503
v 1.103335 3.403867 0.269476
v 1.067656 3.415537 0.262930
v 1.084902 3.392198 0.238234
f 217 218 221
f 217 221 220
f 218 219 222
f 218 222 221
f 219 217 220
f 219 220 222
v 1.085298 3.398934 0.235440
v 1.104048 3.409630 0.266841
v 1.066548 3.403039 0.268358
v 1.165948 2.963158 0.335719
v 1.184698 2.973854 0.367120
v 1.147198 2.967263 0.368636
f 223 224 227
f 223 227 226
f 224 225 228
f 224 228 227
f 225 223 226
f 225 226 228
v 1.163798 2.968092 0.368964
v 1.163706 2.977922 0.350652
v 1.170339 2.958261 0.351859
v 0.720102 2.813455 0.288184
v 0.720009 2.823285 0.269871
v 0.726642 2.803624 0.271078
f 229 230 233
f 229 233 232
f 230 231 234
f 230 234 233
f 231 229 232
f 231 232 234
v 1.186840 2.968092 0.350266
v 1.160839 2.976619 0.376784
v 1.150164 2.959564 0.344425
v 1.243780 2.604960 0.522863
v 1.217779 2.613488 0.549382
v 1.207104 2.596433 0.517022
f 235 236 239
f 235 239 238
f 236 237 240
f 236 240 239
f 237 235 238
f 237 238 240
v 1.211889 2.604960 0.524957
v 1.230355 2.614113 0.527643
v 1.226419 2.595808 0.536666
v 1.408663 2.340286 0.073876
v 1.427130 2.349439 0.076561
v 1.423193 2.331133 0.085585
f 241 242 245
f 241 245 244
f 242 243 246
f 242 246 245
f 243 241 244
f 243 244 246
v 2.923462 2.607317 -0.020748
v 2.941940 2.600720 0.011918
v 2.904984 2.591964 0.008830
v 3.037888 2.177765 -0.172230
v 3.056366 2.171168 -0.139565
v 3.019410 2.162412 -0.142653
f 247 248 251
f 247 251 250
f 248 249 252
f 248 252 251
f 249 247 250
f 249 250 252
v 3.043681 2.170448 -0.140973
v 3.033097 2.180613 -0.155693
v 3.036887 2.160283 -0.157782
v 2.663637 2.078075 0.068502
v 2.653053 2.088240 0.053782
v 2.656843 2.067911 0.051693
f 253 254 257
f 253 257 256
f 254 255 258
f 254 258 257
f 255 253 256
f 255 256 258
v 3.037888 2.165220 -0.172853
v 3.056849 2.171249 -0.140354
v 3.018927 2.174875 -0.141241
v 2.985894 1.652208 -0.047352
v 3.004855 1.658237 -0.014854
v 2.966933 1.661863 -0.015741
f 259 260 263
f 259 263 262
f 260 261 264
f 260 264 263
f 261 259 262
f 261 262 264
v 2.985894 1.654317 -0.047760
v 3.004702 1.662007 -0.015525
v 2.967086 1.655985 -0.014662
v 3.074099 1.114434 0.029561
v 3.092907 1.122124 0.061797
v 3.055291 1.116102 0.062659
f 265 266 269
f 265 269 268
f 266 267 270
f 266 270 269
f 267 265 268
f 267 268 270
v 3.071359 1.117553 0.039656
v 3.081345 1.126014 0.055803
v 3.069594 1.109093 0.058559
v 3.206204 1.018756 0.008029
v 3.216189 1.027217 0.024175
v 3.204438 1.010296 0.026931
f 271 272 275
f 271 275 274
f 272 273 276
f 272 276 275
f 273 271 274
f 273 274 276
v 3.092637 1.117553 0.063186
v 3.056395 1.128398 0.058615
v 3.073266 1.106708 0.032216
v 2.968566 0.784756 0.257327
v 2.932324 0.795601 0.252756
v 2.949195 0.773911 0.226356
f 277 278 281
f 277 281 280
f 278 279 282
f 278 282 281
f 279 277 280
f 279 280 282
v 2.950028 0.792702 0.224965
v 2.969025 0.782143 0.256264
v 2.931032 0.779422 0.255210
v 2.990423 0.302091 0.034922
v 3.009420 0.291531 0.066220
v 2.971427 0.288811 0.065167
f 283 284 287
f 283 287 286
f 284 285 288
f 284 288 287
f 285 283 286
f 285 286 288
v 2.986621 0.294145 0.044055
v 2.996451 0.303583 0.059749
v 2.988198 0.284707 0.062506
v 3.465315 0.061501 -0.115859
v 3.475145 0.070939 -0.100165
v 3.466892 0.052063 -0.097408
f 289 290 293
f 289 293 292
f 290 291 294
f 290 294 293
f 291 289 292
f 291 292 294
v 1.118760 4.652481 -0.021999
v 1.135970 4.644642 0.011082
v 1.101551 4.660990 0.010917
v 0.934364 4.264272 -0.018063
v 0.951574 4.256432 0.015018
v 0.917154 4.272780 0.014853
f 295 296 299
f 295 299 298
f 296 297 300
f 296 300 299
f 297 295 298
f 297 298 300
v 0.934364 4.258461 -0.017220
v 0.953075 4.270966 0.013529
v 0.915653 4.264058 0.015499
v 1.041820 3.720132 0.136311
v 1.060531 3.732637 0.167061
v 1.023109 3.725729 0.169031
f 301 302 305
f 301 305 304
f 302 303 306
f 302 306 305
f 303 301 304
f 303 304 306
v 1.043400 3.726166 0.135524
v 1.057838 3.735056 0.169649
v 1.024222 3.717276 0.167229
v 1.202503 3.423804 0.146981
v 1.216940 3.432694 0.181106
v 1.183325 3.414914 0.178685
f 307 308 311
f 307 311 310
f 308 309 312
f 308 312 311
f 309 307 310
f 309 310 312
v 1.200922 3.429671 0.147721
v 1.219665 3.424168 0.180438
v 1.182180 3.417571 0.178613
v 1.260805 3.113608 0.060261
v 1.279548 3.108106 0.092978
v 1.242063 3.101509 0.091153
f 313 314 317
f 313 317 316
f 314 315 318
f 314 318 317
f 315 313 316
f 315 316 318
v 2.923462 2.596099 -0.021651
v 2.942506 2.601395 0.010926
v 2.904418 2.602507 0.010725
v 2.912801 2.242361 0.042087
v 2.931845 2.247657 0.074665
v 2.893757 2.248769 0.074464
f 319 320 323
f 319 323 322
f 320 321 324
f 320 324 323
f 321 319 322
f 321 322 324
v 2.912801 2.249945 0.042049
v 2.931332 2.248786 0.075324
v 2.894270 2.240057 0.073843
v 3.041408 1.719177 -0.048060
v 3.059939 1.718018 -0.014784
v 3.022876 1.709290 -0.016266
f 325 326 329
f 325 329 328
f 326 327 330
f 326 330 329
f 327 325 328
f 327 328 330
v 3.046530 1.715495 -0.015519
v 3.036985 1.725682 -0.030917
v 3.040708 1.705309 -0.032675
v 2.622513 1.620738 0.184657
v 2.612967 1.630924 0.169259
v 2.616690 1.610551 0.167501
f 331 332 335
f 331 335 334
f 332 333 336
f 332 336 335
f 333 331 334
f 333 334 336
v 3.041408 1.720409 -0.047814
v 3.060295 1.710599 -0.016207
v 3.022520 1.715477 -0.015089
v 2.975919 1.238539 -0.158236
v 2.994806 1.228729 -0.126629
v 2.957031 1.233607 -0.125511
f 337 338 341
f 337 341 340
f 338 339 342
f 338 342 341
f 339 337 340
f 339 340 342
v 2.975919 1.230164 -0.158518
v 2.994891 1.233624 -0.125653
v 2.956947 1.237086 -0.126205
v 2.930675 0.746603 -0.081487
v 2.949646 0.750064 -0.048622
v 2.911703 0.753526 -0.049174
f 343 344 347
f 343 347 346
f 344 345 348
f 344 348 347
f 345 343 346
f 345 346 348
v 2.926797 0.750064 -0.048405
v 2.930756 0.760270 -0.066074
v 2.934471 0.739859 -0.064805
v 2.543781 0.672208 -0.179188
v 2.547740 0.682414 -0.196857
v 2.551455 0.662003 -0.195588
f 349 350 353
f 349 353 352
f 350 351 354
f 350 354 353
f 351 349 352
f 351 352 354
v 2.930675 0.751409 -0.081720
v 2.949206 0.744973 -0.049052
v 2.912143 0.753810 -0.048511
v 2.829447 0.328447 -0.107628
v 2.847978 0.322011 -0.074960
v 2.810916 0.330847 -0.074419
f 355 356 359
f 355 359 358
f 356 357 360
f 356 360 359
f 357 355 358
f 357 358 360
v 2.817710 0.327102 -0.083171
v 2.834278 0.336221 -0.091792
v 2.836353 0.317982 -0.082043
v 2.715473 0.058706 -0.563605
v 2.732042 0.067826 -0.572225
v 2.734116 0.049586 -0.562477
f 361 362 365
f 361 365 364
f 362 363 366
f 362 366 365
f 363 361 364
f 363 364 366
v 2.849541 0.327102 -0.076713
v 2.814483 0.341837 -0.079116
v 2.824316 0.312366 -0.101178
v 2.786410 0.200000 0.064939
v 2.751351 0.214736 0.062536
v 2.761184 0.185264 0.040474
f 367 368 371
f 367 371 370
f 368 369 372
f 368 372 371
f 369 367 370
f 369 370 372
v 2.700927 3.444266 -0.021168
v 2.719892 3.455006 0.010088
v 2.681961 3.451502 0.011080
v 2.754646 2.905984 0.131208
v 2.773612 2.916724 0.162464
v 2.735681 2.913220 0.163456
f 373 374 377
f 373 377 376
f 374 375 378
f 374 378 377
f 375 373 376
f 375 376 378
v 2.754646 2.908151 0.130711
v 2.773657 2.915131 0.162989
v 2.735636 2.912646 0.163428
v 2.789708 2.388031 0.222546
v 2.808719 2.395011 0.254824
v 2.770697 2.392526 0.255262
f 379 380 383
f 379 383 382
f 380 381 384
f 380 384 383
f 381 379 382
f 381 382 384
v 2.789708 2.392312 0.222215
v 2.808752 2.391070 0.255197
v 2.770664 2.392186 0.255220
v 2.778938 2.025177 0.214608
v 2.797983 2.023935 0.247590
v 2.759894 2.025051 0.247613
f 385 386 389
f 385 389 388
f 386 387 390
f 386 390 389
f 387 385 388
f 387 388 390
v 2.788578 2.024721 0.243751
v 2.771071 2.033766 0.237141
v 2.777167 2.015676 0.228919
v 2.544690 1.793059 0.572653
v 2.527184 1.802104 0.566043
v 2.533280 1.784014 0.557822
f 391 392 395
f 391 395 394
f 392 393 396
f 392 396 395
f 393 391 394
f 393 394 396
v 2.778938 2.017610 0.215785
v 2.797181 2.033479 0.245237
v 2.760696 2.023074 0.248790
v 2.929993 1.543278 0.377786
v 2.948235 1.559146 0.407238
v 2.911751 1.548741 0.410792
f 397 398 401
f 397 401 400
f 398 399 402
f 398 402 401
f 399 397 400
f 399 400 402
v 2.929993 1.549856 0.376612
v 2.948285 1.555985 0.409473
v 2.911702 1.545325 0.409731
v 3.089533 1.002660 0.389862
v 3.107824 1.008789 0.422723
v 3.071242 0.998129 0.422981
f 403 404 407
f 403 407 406
f 404 405 408
f 404 408 407
f 405 403 406
f 405 406 408
v 3.097110 1.003192 0.391201
v 3.100634 1.013750 0.427645
v 3.070855 0.992635 0.416720
v 3.296202 0.684603 0.464239
v 3.299726 0.695160 0.500682
v 3.269946 0.674045 0.489758
f 409 410 413
f 409 413 412
f 410 411 414
f 410 414 413
f 411 409 412
f 411 412 414
v 3.299877 0.684603 0.465989
v 3.296357 0.695617 0.502297
v 3.269639 0.673588 0.486393
v 3.490045 0.372237 0.579187
v 3.486524 0.383252 0.615496
v 3.459806 0.361223 0.599592
f 415 416 419
f 415 419 418
f 416 417 420
f 416 420 419
f 417 415 418
f 417 418 420
v 3.477844 0.372237 0.610054
v 3.473331 0.380756 0.591640
v 3.485199 0.363719 0.592580
v 3.234619 0.201744 0.590790
v 3.230107 0.210262 0.572377
v 3.241975 0.193225 0.573317
f 421 422 425
f 421 425 424
f 422 423 426
f 422 426 425
f 423 421 424
f 423 424 426
v 3.457304 0.372237 0.602810
v 3.486777 0.386294 0.583171
v 3.492294 0.358180 0.608294
v 3.416926 0.200000 0.418938
v 3.446399 0.214057 0.399299
v 3.451916 0.185943 0.424422
f 427 428 431
f 427 431 430
f 428 429 432
f 428 432 431
f 429 427 430
f 429 430 432
v -2.937455 2.600000 0.016976
v -2.929008 2.609940 -0.018827
v -2.903923 2.590060 0.001851
v -3.127219 2.197835 -0.139446
v -3.118772 2.207775 -0.175249
v -3.093686 2.187896 -0.154571
f 433 434 437
f 433 437 436
f 434 435 438
f 434 438 437
f 435 433 436
f 435 436 438
v -3.094606 2.197835 -0.168139
v -3.113684 2.207151 -0.136497
v -3.131387 2.188519 -0.164629
v -2.972121 1.787563 0.026500
v -2.991199 1.796878 0.058143
v -3.008903 1.778247 0.030010
f 439 440 443
f 439 443 442
f 440 441 444
f 440 444 443
f 441 439 442
f 441 442 444
v -2.990741 1.792850 0.016863
v -2.972943 1.778319 0.047261
v -3.008539 1.791518 0.050529
v -3.132809 1.431851 -0.072526
v -3.115011 1.417319 -0.042127
v -3.150608 1.430519 -0.038859
f 445 446 449
f 445 449 448
f 446 447 450
f 446 450 449
f 447 445 448
f 447 448 450
v -3.115783 1.426563 -0.065102
v -3.130679 1.435534 -0.031196
v -3.151967 1.417591 -0.057213
v -2.998414 1.079331 0.078341
v -3.013310 1.088303 0.112247
v -3.034598 1.070360 0.086230
f 451 452 455
f 451 455 454
f 452 453 456
f 452 456 455
f 453 451 454
f 453 454 456
v -3.015441 1.075959 0.070532
v -2.997014 1.076232 0.103884
v -3.033868 1.085802 0.102400
v -3.125435 0.662294 0.134690
v -3.107008 0.662567 0.168042
v -3.143862 0.672136 0.166558
f 457 458 461
f 457 461 460
f 458 459 462
f 458 462 461
f 459 457 460
f 459 460 462
v -3.125435 0.664419 0.134466
v -3.107577 0.672920 0.167036
v -3.143292 0.659659 0.167789
v -3.011973 0.359816 0.151754
v -2.994115 0.368317 0.184325
v -3.029830 0.355056 0.185078
f 463 464 467
f 463 467 466
f 464 465 468
f 464 468 467
f 465 463 466
f 465 466 468
v -3.032974 0.361063 0.167167
v -2.997324 0.374063 0.163698
v -3.005620 0.348063 0.190291
v -2.988206 0.200000 0.023660
v -2.952556 0.213000 0.020191
v -2.960852 0.187000 0.046784
f 469 470 473
f 469 473 472
f 470 471 474
f 470 474 473
f 471 469 472
f 471 472 474
v -2.923462 2.591968 -0.020482
v -2.904762 2.600622 0.011572
v -2.942163 2.607410 0.008910
v -3.019151 2.134988 0.158717
v -3.000451 2.143642 0.190771
v -3.037852 2.150429 0.188109
f 475 476 479
f 475 479 478
f 476 477 480
f 476 480 479
f 477 475 478
f 477 478 480
v -3.009131 2.143020 0.198784
v -3.039332 2.151541 0.177168
v -3.008991 2.134498 0.161645
v -3.205912 1.700997 0.299462
v -3.236113 1.709518 0.277846
v -3.205772 1.692475 0.262323
f 481 482 485
f 481 485 484
f 482 483 486
f 482 486 485
f 483 481 484
f 483 484 486
v -3.220481 1.700997 0.290982
v -3.219398 1.709335 0.271974
v -3.207918 1.692658 0.276676
v -3.473002 1.498013 0.187547
v -3.471919 1.506351 0.168540
v -3.460440 1.489674 0.173242
f 487 488 491
f 487 491 490
f 488 489 492
f 488 492 491
f 489 487 490
f 489 490 492
v -3.235238 1.700997 0.269329
v -3.198514 1.711031 0.270938
v -3.214044 1.690962 0.299364
v -3.133543 1.358666 0.083199
v -3.096818 1.368701 0.084809
v -3.112349 1.348632 0.113235
f 493 494 497
f 493 497 496
f 494 495 498
f 494 498 497
f 495 493 496
f 495 496 498
v -3.114237 1.357073 0.071806
v -3.095835 1.364386 0.104361
v -3.132639 1.354541 0.105076
v -2.990036 0.895185 0.105354
v -2.971634 0.902498 0.137910
v -3.008438 0.892653 0.138625
f 499 500 503
f 499 503 502
f 500 501 504
f 500 504 503
f 501 499 502
f 501 502 504
v -2.986968 0.896779 0.115695
v -2.989086 0.906848 0.133754
v -2.994054 0.886709 0.132440
v -2.627450 0.801887 0.210763
v -2.629567 0.811956 0.228822
v -2.634536 0.791817 0.227508
f 505 506 509
f 505 509 508
f 506 507 510
f 506 510 509
f 507 505 508
f 507 508 510
v -0.013559 2.600000 3.605829
v 0.019255 2.610585 3.622053
v -0.005695 2.589415 3.641580
v 0.181821 2.228668 3.452913
v 0.214635 2.239253 3.469136
v 0.189684 2.218083 3.488664
f 511 512 515
f 511 515 514
f 512 513 516
f 512 516 515
f 513 511 514
f 513 514 516
v 0.195380 2.235399 3.449292
v 0.214360 2.226888 3.481219
v 0.176400 2.223718 3.480201
v 0.244166 1.705900 3.279142
v 0.263146 1.697390 3.311069
v 0.225187 1.694220 3.310050
f 517 518 521
f 517 521 520
f 518 519 522
f 518 522 521
f 519 517 520
f 519 520 522
v 0.244166 1.700721 3.278142
v 0.263148 1.700032 3.311175
v 0.225185 1.696757 3.310944
v 0.281172 1.273918 3.247980
v 0.300153 1.273229 3.281013
v 0.262190 1.269954 3.280782
f 523 524 527
f 523 527 526
f 524 525 528
f 524 528 527
f 525 523 526
f 525 526 528
v 0.281172 1.275265 3.248117
v 0.299560 1.275861 3.281486
v 0.262783 1.265975 3.280172
v 0.392425 0.868568 3.194073
v 0.410814 0.869164 3.227442
v 0.374037 0.859278 3.226128
f 529 530 533
f 529 533 532
f 530 531 534
f 530 534 533
f 531 529 532
f 531 532 534
v 0.392425 0.870995 3.194535
v 0.411417 0.861537 3.226187
v 0.373433 0.864477 3.226921
v 0.350189 0.357439 3.066417
v 0.369181 0.347981 3.098069
v 0.331196 0.350922 3.098802
f 535 536 539
f 535 539 538
f 536 537 540
f 536 540 539
f 537 535 538
f 537 538 540
v 0.338219 0.352114 3.088613
v 0.356136 0.362493 3.086806
v 0.356211 0.341736 3.087870
v 0.324085 0.341864 2.889578
v 0.342002 0.352242 2.887771
v 0.342078 0.331485 2.888834
f 541 542 545
f 541 545 544
f 542 543 546
f 542 546 545
f 543 541 544
f 543 544 546
v 0.371718 0.352114 3.083238
v 0.342265 0.365235 3.103544
v 0.336583 0.338993 3.076506
v 0.401435 0.200000 3.224629
v 0.371982 0.213121 3.244936
v 0.366299 0.186879 3.217898
f 547 548 551
f 547 551 550
f 548 549 552
f 548 552 551
f 549 547 550
f 549 550 552
v -2.923462 2.597059 -0.021803
v -2.904451 2.600228 0.011069
v -2.942473 2.602713 0.010734
v -2.947266 2.239353 0.026447
v -2.928255 2.242521 0.059319
v -2.966277 2.245006 0.058983
f 553 554 557
f 553 557 556
f 554 555 558
f 554 558 557
f 555 553 556
f 555 556 558
v -2.947266 2.251827 0.028423
v -2.928232 2.236766 0.057797
v -2.966300 2.238287 0.058529
v -2.964916 1.893213 -0.144015
v -2.945882 1.878152 -0.114640
v -2.983949 1.879674 -0.113908
f 559 560 563
f 559 563 562
f 560 561 564
f 560 564 563
f 561 559 562
f 561 562 564
v -2.948551 1.883680 -0.138891
v -2.962747 1.894776 -0.105315
v -2.983449 1.872584 -0.128357
v -2.794684 1.562334 0.032359
v -2.808880 1.573430 0.065935
v -2.829582 1.551238 0.042893
f 565 566 569
f 565 569 568
f 566 567 570
f 566 570 569
f 567 565 568
f 567 568 570
v -2.827168 1.562334 0.062034
v -2.814307 1.571627 0.027390
v -2.791670 1.553040 0.051763
v -2.993193 1.125713 -0.116725
v -2.980332 1.135007 -0.151369
v -2.957694 1.116420 -0.126995
f 571 572 575
f 571 575 574
f 572 573 576
f 572 576 575
f 573 571 574
f 573 574 576
v -2.977073 1.131571 -0.152902
v -2.958917 1.128351 -0.119556
v -2.995229 1.117217 -0.122631
v -2.808460 0.620617 -0.294052
v -2.790303 0.617397 -0.260706
v -2.826616 0.606263 -0.263781
f 577 578 581
f 577 581 580
f 578 579 582
f 578 582 581
f 579 577 580
f 579 580 582
v -2.808460 0.606181 -0.293105
v -2.789721 0.615878 -0.261375
v -2.827199 0.622218 -0.264059
v -2.891198 0.191422 -0.117491
v -2.872459 0.201119 -0.085760
v -2.909937 0.207459 -0.088445
f 583 584 587
f 583 587 586
f 584 585 588
f 584 588 587
f 585 583 586
f 585 586 588
v -2.883870 0.200000 -0.087729
v -2.900421 0.207663 -0.097696
v -2.889303 0.192337 -0.106270
v -3.141485 -0.098048 0.110943
v -3.158037 -0.090385 0.100977
v -3.146919 -0.105711 0.092402
f 589 590 593
f 589 593 592
f 590 591 594
f 590 594 593
f 591 589 592
f 591 592 594
