o mesh
v -0.029882 0.900000 -2.999851
v -0.668163 0.900000 -1.868437
v -0.668163 2.600000 -1.868437
v -0.029882 2.600000 -2.999851
f 1 2 3
f 1 3 4
v -0.029882 2.600000 -2.999851
v -0.668163 2.600000 -1.868437
v -0.668163 5.200000 -1.868437
v -0.029882 5.200000 -2.999851
f 5 6 7
f 5 7 8
v -1.944725 2.600000 0.394390
v -2.583006 2.600000 1.525804
v -2.583006 5.200000 1.525804
v -1.944725 5.200000 0.394390
f 9 10 11
f 9 11 12
v -2.583006 0.900000 1.525804
v -1.284033 0.900000 1.512865
v -1.284033 2.600000 1.512865
v -2.583006 2.600000 1.525804
f 13 14 15
f 13 15 16
v -2.583006 2.600000 1.525804
v -1.284033 2.600000 1.512865
v -1.284033 5.200000 1.512865
v -2.583006 5.200000 1.525804
f 17 18 19
f 17 19 20
v -1.284033 0.900000 1.512865
v 0.014941 0.900000 1.499926
v 0.014941 2.600000 1.499926
v -1.284033 2.600000 1.512865
f 21 22 23
f 21 23 24
v -1.284033 2.600000 1.512865
v 0.014941 2.600000 1.499926
v 0.014941 5.200000 1.499926
v -1.284033 5.200000 1.512865
f 25 26 27
f 25 27 28
v 0.014941 3.149519 1.499926
v 1.313915 3.149519 1.486986
v 1.313915 2.600000 1.486986
v 0.014941 2.600000 1.499926
f 29 30 31
f 29 31 32
v 0.664428 2.500000 1.493456
v 0.014941 2.500000 1.499926
v 0.064380 2.748560 1.499433
f 33 34 35
v 0.664428 2.500000 1.493456
v 0.415880 3.100077 1.495932
v 0.664428 3.149519 1.493456
f 36 37 38
v 0.664428 2.500000 1.493456
v 0.912976 3.100077 1.490980
v 1.123684 2.959279 1.488881
f 39 40 41
v 0.664428 2.500000 1.493456
v 1.264475 2.748560 1.487479
v 1.313915 2.500000 1.486986
f 42 43 44
v 0.014941 2.600000 1.499926
v 1.313915 2.600000 1.486986
v 1.313915 5.200000 1.486986
v 0.014941 5.200000 1.499926
f 45 46 47
f 45 47 48
v 1.313915 0.900000 1.486986
v 2.612888 0.900000 1.474047
v 2.612888 2.600000 1.474047
v 1.313915 2.600000 1.486986
f 49 50 51
f 49 51 52
v 1.313915 2.600000 1.486986
v 2.612888 2.600000 1.474047
v 2.612888 5.200000 1.474047
v 1.313915 5.200000 1.486986
f 53 54 55
f 53 55 56
v -1.284033 5.200000 1.512865
v 0.014941 5.200000 1.499926
v 0.013895 5.827000 1.394931
v -1.194150 5.827000 1.406964
f 57 58 59
f 57 59 60
v 2.612888 5.200000 1.474047
v 1.952196 5.200000 0.355572
v 1.815542 5.827000 0.330682
v 2.429986 5.827000 1.370864
f 61 62 63
f 61 63 64
v 1.291503 5.200000 -0.762902
v 0.630811 5.200000 -1.881377
v 0.586654 5.827000 -1.749680
v 1.201098 5.827000 -0.709499
f 65 66 67
f 65 67 68
v -1.808594 5.827000 0.366783
v -2.402196 5.827000 1.418998
v -2.014745 6.388000 1.190127
v -1.516886 6.388000 0.307624
f 69 70 71
f 69 71 72
v -2.402196 5.827000 1.418998
v -1.194150 5.827000 1.406964
v -1.001545 6.388000 1.180035
v -2.014745 6.388000 1.190127
f 73 74 75
f 73 75 76
v 1.221941 5.827000 1.382897
v 2.429986 5.827000 1.370864
v 2.038053 6.388000 1.149757
v 1.024853 6.388000 1.159849
f 77 78 79
f 77 79 80
v -1.516886 6.388000 0.307624
v -2.014745 6.388000 1.190127
v -1.498144 6.850000 0.884966
v -1.127941 6.850000 0.228746
f 81 82 83
f 81 83 84
v 0.011654 6.388000 1.169942
v 1.024853 6.388000 1.159849
v 0.762071 6.850000 0.862452
v 0.008666 6.850000 0.869957
f 85 86 87
f 85 87 88
v 1.024853 6.388000 1.159849
v 2.038053 6.388000 1.149757
v 1.515475 6.850000 0.854947
v 0.762071 6.850000 0.862452
f 89 90 91
f 89 91 92
v 2.038053 6.388000 1.149757
v 1.522713 6.388000 0.277347
v 1.132274 6.850000 0.206232
v 1.515475 6.850000 0.854947
f 93 94 95
f 93 95 96
v 1.522713 6.388000 0.277347
v 1.007372 6.388000 -0.595064
v 0.749072 6.850000 -0.442483
v 1.132274 6.850000 0.206232
f 97 98 99
f 97 99 100
v 1.007372 6.388000 -0.595064
v 0.492032 6.388000 -1.467474
v 0.365870 6.850000 -1.091198
v 0.749072 6.850000 -0.442483
f 101 102 103
f 101 103 104
v 0.492032 6.388000 -1.467474
v -0.023308 6.388000 -2.339884
v -0.017332 6.850000 -1.739914
v 0.365870 6.850000 -1.091198
f 105 106 107
f 105 107 108
v -0.387535 6.850000 -1.083694
v -0.757738 6.850000 -0.427474
v -0.757738 7.413000 -0.427474
v -0.387535 7.413000 -1.083694
f 109 110 111
f 109 111 112
v -1.127941 6.850000 0.228746
v -1.498144 6.850000 0.884966
v -1.498144 7.413000 0.884966
v -1.127941 7.413000 0.228746
f 113 114 115
f 113 115 116
v -1.498144 6.850000 0.884966
v -0.744739 6.850000 0.877462
v -0.744739 7.413000 0.877462
v -1.498144 7.413000 0.884966
f 117 118 119
f 117 119 120
v 0.008666 6.850000 0.869957
v 0.762071 6.850000 0.862452
v 0.762071 7.413000 0.862452
v 0.008666 7.413000 0.869957
f 121 122 123
f 121 123 124
v 1.132274 6.850000 0.206232
v 0.749072 6.850000 -0.442483
v 0.749072 7.413000 -0.442483
v 1.132274 7.413000 0.206232
f 125 126 127
f 125 127 128
v 0.365870 6.850000 -1.091198
v -0.017332 6.850000 -1.739914
v -0.017332 7.413000 -1.739914
v 0.365870 7.413000 -1.091198
f 129 130 131
f 129 131 132
v -0.017332 7.413000 -1.739914
v -0.387535 7.413000 -1.083694
v -0.293992 7.908000 -0.822112
v -0.013148 7.908000 -1.319935
f 133 134 135
f 133 135 136
v -0.387535 7.413000 -1.083694
v -0.757738 7.413000 -0.427474
v -0.574835 7.908000 -0.324290
v -0.293992 7.908000 -0.822112
f 137 138 139
f 137 139 140
v -0.757738 7.413000 -0.427474
v -1.127941 7.413000 0.228746
v -0.855679 7.908000 0.173532
v -0.574835 7.908000 -0.324290
f 141 142 143
f 141 143 144
v -1.127941 7.413000 0.228746
v -1.498144 7.413000 0.884966
v -1.136523 7.908000 0.671354
v -0.855679 7.908000 0.173532
f 145 146 147
f 145 147 148
v -1.498144 7.413000 0.884966
v -0.744739 7.413000 0.877462
v -0.564974 7.908000 0.665661
v -1.136523 7.908000 0.671354
f 149 150 151
f 149 151 152
v -0.744739 7.413000 0.877462
v 0.008666 7.413000 0.869957
v 0.006574 7.908000 0.659967
v -0.564974 7.908000 0.665661
f 153 154 155
f 153 155 156
v 0.008666 7.413000 0.869957
v 0.762071 7.413000 0.862452
v 0.578122 7.908000 0.654274
v 0.006574 7.908000 0.659967
f 157 158 159
f 157 159 160
v 0.762071 7.413000 0.862452
v 1.515475 7.413000 0.854947
v 1.149671 7.908000 0.648581
v 0.578122 7.908000 0.654274
f 161 162 163
f 161 163 164
v 1.515475 7.413000 0.854947
v 1.132274 7.413000 0.206232
v 0.858966 7.908000 0.156452
v 1.149671 7.908000 0.648581
f 165 166 167
f 165 167 168
v 0.749072 7.413000 -0.442483
v 0.365870 7.413000 -1.091198
v 0.277557 7.908000 -0.827806
v 0.568261 7.908000 -0.335677
f 169 170 171
f 169 171 172
v -0.013148 7.908000 -1.319935
v -0.293992 7.908000 -0.822112
v -0.146996 8.271000 -0.411056
v -0.006574 8.271000 -0.659967
f 173 174 175
f 173 175 176
v -0.574835 7.908000 -0.324290
v -0.855679 7.908000 0.173532
v -0.427840 8.271000 0.086766
v -0.287418 8.271000 -0.162145
f 177 178 179
f 177 179 180
v -0.855679 7.908000 0.173532
v -1.136523 7.908000 0.671354
v -0.568261 8.271000 0.335677
v -0.427840 8.271000 0.086766
f 181 182 183
f 181 183 184
v -1.136523 7.908000 0.671354
v -0.564974 7.908000 0.665661
v -0.282487 8.271000 0.332830
v -0.568261 8.271000 0.335677
f 185 186 187
f 185 187 188
v -0.564974 7.908000 0.665661
v 0.006574 7.908000 0.659967
v 0.003287 8.271000 0.329984
v -0.282487 8.271000 0.332830
f 189 190 191
f 189 191 192
v 1.149671 7.908000 0.648581
v 0.858966 7.908000 0.156452
v 0.429483 8.271000 0.078226
v 0.574835 8.271000 0.324290
f 193 194 195
f 193 195 196
v 0.858966 7.908000 0.156452
v 0.568261 7.908000 -0.335677
v 0.284131 8.271000 -0.167838
v 0.429483 8.271000 0.078226
f 197 198 199
f 197 199 200
v -0.006574 8.271000 -0.659967
v -0.146996 8.271000 -0.411056
v -0.000000 8.436000 -0.000000
v -0.000000 8.436000 -0.000000
f 201 202 203
v -0.282487 8.271000 0.332830
v 0.003287 8.271000 0.329984
v 0.000000 8.436000 0.000000
v -0.000000 8.436000 0.000000
f 205 206 207
v 0.289061 8.271000 0.327137
v 0.574835 8.271000 0.324290
v 0.000000 8.436000 0.000000
v 0.000000 8.436000 0.000000
f 209 210 211
v -1.949072 0.900000 0.402095
v -3.294917 0.900000 -0.357157
v -3.294917 2.600000 -0.357157
v -1.949072 2.600000 0.402095
f 213 214 215
f 213 215 216
v -3.294917 0.900000 -0.357157
v -4.640763 0.900000 -1.116408
v -4.640763 2.600000 -1.116408
v -3.294917 2.600000 -0.357157
f 217 218 219
f 217 219 220
v -3.355508 0.900000 -3.394645
v -3.998135 0.900000 -2.255527
v -3.998135 2.600000 -2.255527
v -3.355508 2.600000 -3.394645
f 221 222 223
f 221 223 224
v -1.949072 2.600000 0.402095
v -3.294917 2.600000 -0.357157
v -3.246000 2.980384 -0.443867
v -1.900155 2.980384 0.315385
f 225 226 227
f 225 227 228
v -1.900155 2.980384 0.315385
v -3.246000 2.980384 -0.443867
v -3.106696 3.302858 -0.690797
v -1.760850 3.302858 0.068455
f 229 230 231
f 229 231 232
v -1.760850 3.302858 0.068455
v -3.106696 3.302858 -0.690797
v -2.898213 3.518329 -1.060353
v -1.552367 3.518329 -0.301102
f 233 234 235
f 233 235 236
v -1.306444 3.593992 -0.737024
v -2.652290 3.593992 -1.496275
v -2.406367 3.518329 -1.932197
v -1.060521 3.518329 -1.172945
f 237 238 239
f 237 239 240
v -1.060521 3.518329 -1.172945
v -2.406367 3.518329 -1.932197
v -2.197883 3.302858 -2.301754
v -0.852038 3.302858 -1.542502
f 241 242 243
f 241 243 244
v -0.852038 3.302858 -1.542502
v -2.197883 3.302858 -2.301754
v -2.058579 2.980384 -2.548683
v -0.712734 2.980384 -1.789432
f 245 246 247
f 245 247 248
v -0.712734 2.980384 -1.789432
v -2.058579 2.980384 -2.548683
v -2.009662 2.600000 -2.635394
v -0.663817 2.600000 -1.876142
f 249 250 251
f 249 251 252
v -3.246000 2.980384 -0.443867
v -4.591846 2.980384 -1.203119
v -4.452542 3.302858 -1.450048
v -3.106696 3.302858 -0.690797
f 253 254 255
f 253 255 256
v -2.652290 3.593992 -1.496275
v -3.998135 3.593992 -2.255527
v -3.752213 3.518329 -2.691449
v -2.406367 3.518329 -1.932197
f 257 258 259
f 257 259 260
v -2.197883 3.302858 -2.301754
v -3.543729 3.302858 -3.061005
v -3.404425 2.980384 -3.307935
v -2.058579 2.980384 -2.548683
f 261 262 263
f 261 263 264
v -3.998135 2.600000 -2.255527
v -4.640763 2.600000 -1.116408
v -4.591846 2.980384 -1.203119
f 265 266 267
v -3.998135 2.600000 -2.255527
v -4.591846 2.980384 -1.203119
v -4.452542 3.302858 -1.450048
f 268 269 270
v -3.998135 2.600000 -2.255527
v -4.244058 3.518329 -1.819605
v -3.998135 3.593992 -2.255527
f 271 272 273
v -3.998135 2.600000 -2.255527
v -3.998135 3.593992 -2.255527
v -3.752213 3.518329 -2.691449
f 274 275 276
v -3.998135 2.600000 -2.255527
v -3.752213 3.518329 -2.691449
v -3.543729 3.302858 -3.061005
f 277 278 279
v 1.146845 0.900000 -3.097494
v 2.061940 0.900000 -3.638048
v 2.061940 2.600000 -3.638048
v 1.146845 2.600000 -3.097494
f 280 281 282
f 280 282 283
v 2.061940 0.900000 -3.638048
v 2.977034 0.900000 -4.178603
v 2.977034 2.600000 -4.178603
v 2.061940 2.600000 -3.638048
f 284 285 286
f 284 286 287
v 2.351256 0.900000 1.031135
v 3.266351 0.900000 0.490581
v 3.266351 2.600000 0.490581
v 2.351256 2.600000 1.031135
f 288 289 290
f 288 290 291
v 4.181446 0.900000 -0.049974
v 5.096541 0.900000 -0.590528
v 5.096541 2.600000 -0.590528
v 4.181446 2.600000 -0.049974
f 292 293 294
f 292 294 295
v 5.096541 0.900000 -0.590528
v 4.390039 0.900000 -1.786553
v 4.390039 2.600000 -1.786553
v 5.096541 2.600000 -0.590528
f 296 297 298
f 296 298 299
v 4.390039 0.900000 -1.786553
v 3.683537 0.900000 -2.982578
v 3.683537 2.600000 -2.982578
v 4.390039 2.600000 -1.786553
f 300 301 302
f 300 302 303
v 0.231750 2.600000 -2.556939
v 1.146845 2.600000 -3.097494
v 2.206598 3.933544 -1.303457
v 1.291503 3.933544 -0.762902
f 304 305 306
f 304 306 307
v 2.351256 2.600000 1.031135
v 3.266351 2.600000 0.490581
v 2.206598 3.933544 -1.303457
v 1.291503 3.933544 -0.762902
f 308 309 310
f 308 310 311
v 3.266351 2.600000 0.490581
v 4.181446 2.600000 -0.049974
v 3.121693 3.933544 -1.844011
v 2.206598 3.933544 -1.303457
f 312 313 314
f 312 314 315
v 4.181446 2.600000 -0.049974
v 5.096541 2.600000 -0.590528
v 4.036788 3.933544 -2.384565
v 3.121693 3.933544 -1.844011
f 316 317 318
f 316 318 319
v 2.977034 2.600000 -4.178603
v 5.096541 2.600000 -0.590528
v 4.036788 3.933544 -2.384565
f 320 321 322
