o mesh
v 0.000000 0.000000 0.015000
v 0.010607 0.000000 0.010607
v 0.015000 0.000000 0.000000
v 0.010607 0.000000 -0.010607
v 0.000000 0.000000 -0.015000
v -0.010607 0.000000 -0.010607
v -0.015000 0.000000 -0.000000
v -0.010607 0.000000 0.010607
v 0.000000 0.040000 0.012000
v 0.008485 0.040000 0.008485
v 0.012000 0.040000 0.000000
v 0.008485 0.040000 -0.008485
v 0.000000 0.040000 -0.012000
v -0.008485 0.040000 -0.008485
v -0.012000 0.040000 -0.000000
v -0.008485 0.040000 0.008485
f 1 2 10
f 1 10 9
f 2 3 11
f 2 11 10
f 3 4 12
f 3 12 11
f 4 5 13
f 4 13 12
f 5 6 14
f 5 14 13
f 6 7 15
f 6 15 14
f 7 8 16
f 7 16 15
f 8 1 9
f 8 9 16
v 0.000000 0.040000 -0.000000
v 0.006061 0.029256 0.006287
v 0.014091 0.018511 0.012305
v 0.022861 0.007767 0.018221
v 0.031848 -0.002977 0.024108
v 0.040663 -0.013721 0.030018
v 0.048980 -0.024466 0.035996
v 0.056517 -0.035210 0.042082
v 0.063036 -0.045954 0.048306
v 0.068341 -0.056698 0.054697
v 0.072281 -0.067443 0.061274
v 0.074755 -0.078187 0.068052
v 0.075712 -0.088931 0.075038
v 0.075150 -0.099675 0.082232
v 0.073123 -0.110420 0.089627
v 0.069730 -0.121164 0.097208
v 0.065124 -0.131908 0.104955
v 0.059499 -0.142652 0.112842
v 0.053095 -0.153397 0.120836
v 0.046192 -0.164141 0.128897
v 0.039117 -0.174885 0.136983
v 0.032261 -0.185630 0.145038
v 0.026143 -0.196374 0.152992
v 0.021995 -0.207118 0.160677
v 0.015934 -0.196374 0.154390
v 0.007904 -0.185630 0.148372
v -0.000866 -0.174885 0.142456
v -0.009853 -0.164141 0.136569
v -0.018668 -0.153397 0.130659
v -0.026985 -0.142652 0.124681
v -0.034523 -0.131908 0.118596
v -0.041042 -0.121164 0.112371
v -0.046346 -0.110420 0.105980
v -0.050287 -0.099675 0.099403
v -0.052761 -0.088931 0.092625
v -0.053717 -0.078187 0.085639
v -0.053156 -0.067443 0.078445
v -0.051128 -0.056698 0.071051
v -0.047736 -0.045954 0.063469
v -0.043129 -0.035210 0.055722
v -0.037504 -0.024466 0.047835
v -0.031100 -0.013721 0.039842
v -0.024197 -0.002977 0.031780
v -0.017123 0.007767 0.023694
v -0.010266 0.018511 0.015639
v -0.004149 0.029256 0.007685
f 17 18 19
f 17 19 18
f 17 19 20
f 17 20 19
f 17 20 21
f 17 21 20
f 17 21 22
f 17 22 21
f 17 22 23
f 17 23 22
f 17 23 24
f 17 24 23
f 17 24 25
f 17 25 24
f 17 25 26
f 17 26 25
f 17 26 27
f 17 27 26
f 17 27 28
f 17 28 27
f 17 28 29
f 17 29 28
f 17 29 30
f 17 30 29
f 17 30 31
f 17 31 30
f 17 31 32
f 17 32 31
f 17 32 33
f 17 33 32
f 17 33 34
f 17 34 33
f 17 34 35
f 17 35 34
f 17 35 36
f 17 36 35
f 17 36 37
f 17 37 36
f 17 37 38
f 17 38 37
f 17 38 39
f 17 39 38
f 17 39 40
f 17 40 39
f 17 40 41
f 17 41 40
f 17 41 42
f 17 42 41
f 17 42 43
f 17 43 42
f 17 43 44
f 17 44 43
f 17 44 45
f 17 45 44
f 17 45 46
f 17 46 45
f 17 46 47
f 17 47 46
f 17 47 48
f 17 48 47
f 17 48 49
f 17 49 48
f 17 49 50
f 17 50 49
f 17 50 51
f 17 51 50
f 17 51 52
f 17 52 51
f 17 52 53
f 17 53 52
f 17 53 54
f 17 54 53
f 17 54 55
f 17 55 54
f 17 55 56
f 17 56 55
f 17 56 57
f 17 57 56
f 17 57 58
f 17 58 57
f 17 58 59
f 17 59 58
f 17 59 60
f 17 60 59
f 17 60 61
f 17 61 60
f 17 61 62
f 17 62 61
v 0.000000 0.040000 -0.000000
v 0.013376 0.029809 0.000392
v 0.027625 0.019618 -0.002499
v 0.042439 0.009427 -0.007514
v 0.057616 -0.000764 -0.013890
v 0.072969 -0.010955 -0.020930
v 0.088322 -0.021146 -0.027968
v 0.103508 -0.031338 -0.034379
v 0.118376 -0.041529 -0.039595
v 0.132796 -0.051720 -0.043127
v 0.146665 -0.061911 -0.044590
v 0.159912 -0.072102 -0.043715
v 0.172501 -0.082293 -0.040365
v 0.184431 -0.092484 -0.034541
v 0.195739 -0.102675 -0.026378
v 0.206496 -0.112866 -0.016146
v 0.216805 -0.123057 -0.004231
v 0.226797 -0.133248 0.008879
v 0.236621 -0.143439 0.022617
v 0.246445 -0.153630 0.036357
v 0.256446 -0.163822 0.049432
v 0.266808 -0.174013 0.061147
v 0.277736 -0.184204 0.070737
v 0.289538 -0.194395 0.077044
v 0.276162 -0.184204 0.076652
v 0.261913 -0.174013 0.079543
v 0.247099 -0.163822 0.084558
v 0.231922 -0.153630 0.090934
v 0.216569 -0.143439 0.097974
v 0.201216 -0.133248 0.105013
v 0.186030 -0.123057 0.111424
v 0.171162 -0.112866 0.116639
v 0.156742 -0.102675 0.120172
v 0.142873 -0.092484 0.121634
v 0.129626 -0.082293 0.120760
v 0.117037 -0.072102 0.117410
v 0.105107 -0.061911 0.111585
v 0.093799 -0.051720 0.103423
v 0.083042 -0.041529 0.093191
v 0.072733 -0.031338 0.081276
v 0.062741 -0.021146 0.068165
v 0.052917 -0.010955 0.054427
v 0.043093 -0.000764 0.040688
v 0.033092 0.009427 0.027612
v 0.022730 0.019618 0.015898
v 0.011802 0.029809 0.006307
f 63 64 65
f 63 65 64
f 63 65 66
f 63 66 65
f 63 66 67
f 63 67 66
f 63 67 68
f 63 68 67
f 63 68 69
f 63 69 68
f 63 69 70
f 63 70 69
f 63 70 71
f 63 71 70
f 63 71 72
f 63 72 71
f 63 72 73
f 63 73 72
f 63 73 74
f 63 74 73
f 63 74 75
f 63 75 74
f 63 75 76
f 63 76 75
f 63 76 77
f 63 77 76
f 63 77 78
f 63 78 77
f 63 78 79
f 63 79 78
f 63 79 80
f 63 80 79
f 63 80 81
f 63 81 80
f 63 81 82
f 63 82 81
f 63 82 83
f 63 83 82
f 63 83 84
f 63 84 83
f 63 84 85
f 63 85 84
f 63 85 86
f 63 86 85
f 63 86 87
f 63 87 86
f 63 87 88
f 63 88 87
f 63 88 89
f 63 89 88
f 63 89 90
f 63 90 89
f 63 90 91
f 63 91 90
f 63 91 92
f 63 92 91
f 63 92 93
f 63 93 92
f 63 93 94
f 63 94 93
f 63 94 95
f 63 95 94
f 63 95 96
f 63 96 95
f 63 96 97
f 63 97 96
f 63 97 98
f 63 98 97
f 63 98 99
f 63 99 98
f 63 99 100
f 63 100 99
f 63 100 101
f 63 101 100
f 63 101 102
f 63 102 101
f 63 102 103
f 63 103 102
f 63 103 104
f 63 104 103
f 63 104 105
f 63 105 104
f 63 105 106
f 63 106 105
f 63 106 107
f 63 107 106
f 63 107 108
f 63 108 107
v 0.000000 0.040000 -0.000000
v 0.002621 0.029312 -0.011221
v 0.002935 0.018625 -0.024137
v 0.002136 0.007937 -0.037872
v 0.000801 -0.002750 -0.052001
v -0.000616 -0.013438 -0.066191
v -0.001723 -0.024125 -0.080152
v -0.002169 -0.034813 -0.093628
v -0.001655 -0.045500 -0.106397
v 0.000071 -0.056188 -0.118276
v 0.003202 -0.066875 -0.129122
v 0.007871 -0.077563 -0.138838
v 0.014145 -0.088250 -0.147373
v 0.022025 -0.098938 -0.154728
v 0.031442 -0.109626 -0.160952
v 0.042266 -0.120313 -0.166144
v 0.054300 -0.131001 -0.170445
v 0.067296 -0.141688 -0.174039
v 0.080950 -0.152376 -0.177149
v 0.094917 -0.163063 -0.180029
v 0.108801 -0.173751 -0.182970
v 0.122148 -0.184438 -0.186306
v 0.134382 -0.195126 -0.190460
v 0.144311 -0.205813 -0.196309
v 0.141690 -0.195126 -0.185088
v 0.141375 -0.184438 -0.172172
v 0.142174 -0.173751 -0.158437
v 0.143509 -0.163063 -0.144308
v 0.144927 -0.152376 -0.130118
v 0.146033 -0.141688 -0.116157
v 0.146480 -0.131001 -0.102681
v 0.145966 -0.120313 -0.089912
v 0.144240 -0.109626 -0.078033
v 0.141109 -0.098938 -0.067187
v 0.136440 -0.088250 -0.057472
v 0.130165 -0.077563 -0.048937
v 0.122286 -0.066875 -0.041581
v 0.112868 -0.056188 -0.035357
v 0.102045 -0.045500 -0.030166
v 0.090011 -0.034813 -0.025865
v 0.077015 -0.024125 -0.022270
v 0.063360 -0.013438 -0.019161
v 0.049394 -0.002750 -0.016280
v 0.035510 0.007937 -0.013339
v 0.022162 0.018625 -0.010003
v 0.009928 0.029312 -0.005849
f 109 110 111
f 109 111 110
f 109 111 112
f 109 112 111
f 109 112 113
f 109 113 112
f 109 113 114
f 109 114 113
f 109 114 115
f 109 115 114
f 109 115 116
f 109 116 115
f 109 116 117
f 109 117 116
f 109 117 118
f 109 118 117
f 109 118 119
f 109 119 118
f 109 119 120
f 109 120 119
f 109 120 121
f 109 121 120
f 109 121 122
f 109 122 121
f 109 122 123
f 109 123 122
f 109 123 124
f 109 124 123
f 109 124 125
f 109 125 124
f 109 125 126
f 109 126 125
f 109 126 127
f 109 127 126
f 109 127 128
f 109 128 127
f 109 128 129
f 109 129 128
f 109 129 130
f 109 130 129
f 109 130 131
f 109 131 130
f 109 131 132
f 109 132 131
f 109 132 133
f 109 133 132
f 109 133 134
f 109 134 133
f 109 134 135
f 109 135 134
f 109 135 136
f 109 136 135
f 109 136 137
f 109 137 136
f 109 137 138
f 109 138 137
f 109 138 139
f 109 139 138
f 109 139 140
f 109 140 139
f 109 140 141
f 109 141 140
f 109 141 142
f 109 142 141
f 109 142 143
f 109 143 142
f 109 143 144
f 109 144 143
f 109 144 145
f 109 145 144
f 109 145 146
f 109 146 145
f 109 146 147
f 109 147 146
f 109 147 148
f 109 148 147
f 109 148 149
f 109 149 148
f 109 149 150
f 109 150 149
f 109 150 151
f 109 151 150
f 109 151 152
f 109 152 151
f 109 152 153
f 109 153 152
f 109 153 154
f 109 154 153
v 0.000000 0.040000 -0.000000
v -0.008776 0.030964 -0.007413
v -0.019895 0.021929 -0.013040
v -0.032586 0.012893 -0.017466
v -0.046312 0.003858 -0.021102
v -0.060572 -0.005178 -0.024332
v -0.074876 -0.014213 -0.027528
v -0.088759 -0.023249 -0.031044
v -0.101797 -0.032284 -0.035206
v -0.113623 -0.041320 -0.040292
v -0.123945 -0.050355 -0.046526
v -0.132560 -0.059391 -0.054063
v -0.139364 -0.068426 -0.062981
v -0.144357 -0.077462 -0.073280
v -0.147644 -0.086497 -0.084882
v -0.149426 -0.095533 -0.097632
v -0.149996 -0.104568 -0.111306
v -0.149721 -0.113604 -0.125625
v -0.149026 -0.122639 -0.140265
v -0.148374 -0.131675 -0.154871
v -0.148256 -0.140710 -0.169071
v -0.149173 -0.149746 -0.182480
v -0.151663 -0.158781 -0.194690
v -0.156495 -0.167817 -0.205113
v -0.147719 -0.158781 -0.197699
v -0.136600 -0.149746 -0.192073
v -0.123910 -0.140710 -0.187647
v -0.110183 -0.131675 -0.184010
v -0.095923 -0.122639 -0.180781
v -0.081619 -0.113604 -0.177585
v -0.067736 -0.104568 -0.174068
v -0.054698 -0.095533 -0.169907
v -0.042872 -0.086497 -0.164820
v -0.032550 -0.077462 -0.158586
v -0.023935 -0.068426 -0.151050
v -0.017131 -0.059391 -0.142132
v -0.012138 -0.050355 -0.131832
v -0.008851 -0.041320 -0.120230
v -0.007069 -0.032284 -0.107481
v -0.006499 -0.023249 -0.093807
v -0.006774 -0.014213 -0.079488
v -0.007470 -0.005178 -0.064847
v -0.008121 0.003858 -0.050241
v -0.008239 0.012893 -0.036042
v -0.007322 0.021929 -0.022632
v -0.004832 0.030964 -0.010423
f 155 156 157
f 155 157 156
f 155 157 158
f 155 158 157
f 155 158 159
f 155 159 158
f 155 159 160
f 155 160 159
f 155 160 161
f 155 161 160
f 155 161 162
f 155 162 161
f 155 162 163
f 155 163 162
f 155 163 164
f 155 164 163
f 155 164 165
f 155 165 164
f 155 165 166
f 155 166 165
f 155 166 167
f 155 167 166
f 155 167 168
f 155 168 167
f 155 168 169
f 155 169 168
f 155 169 170
f 155 170 169
f 155 170 171
f 155 171 170
f 155 171 172
f 155 172 171
f 155 172 173
f 155 173 172
f 155 173 174
f 155 174 173
f 155 174 175
f 155 175 174
f 155 175 176
f 155 176 175
f 155 176 177
f 155 177 176
f 155 177 178
f 155 178 177
f 155 178 179
f 155 179 178
f 155 179 180
f 155 180 179
f 155 180 181
f 155 181 180
f 155 181 182
f 155 182 181
f 155 182 183
f 155 183 182
f 155 183 184
f 155 184 183
f 155 184 185
f 155 185 184
f 155 185 186
f 155 186 185
f 155 186 187
f 155 187 186
f 155 187 188
f 155 188 187
f 155 188 189
f 155 189 188
f 155 189 190
f 155 190 189
f 155 190 191
f 155 191 190
f 155 191 192
f 155 192 191
f 155 192 193
f 155 193 192
f 155 193 194
f 155 194 193
f 155 194 195
f 155 195 194
f 155 195 196
f 155 196 195
f 155 196 197
f 155 197 196
f 155 197 198
f 155 198 197
f 155 198 199
f 155 199 198
f 155 199 200
f 155 200 199
v 0.000000 0.040000 -0.000000
v -0.005788 0.031371 0.004923
v -0.010931 0.022742 0.011942
v -0.015741 0.014112 0.020048
v -0.020375 0.005483 0.028726
v -0.024961 -0.003146 0.037557
v -0.029614 -0.011775 0.046173
v -0.034435 -0.020405 0.054242
v -0.039512 -0.029034 0.061479
v -0.044919 -0.037663 0.067639
v -0.050715 -0.046292 0.072538
v -0.056938 -0.054921 0.076044
v -0.063608 -0.063551 0.078094
v -0.070727 -0.072180 0.078688
v -0.078273 -0.080809 0.077889
v -0.086207 -0.089438 0.075829
v -0.094471 -0.098068 0.072692
v -0.102992 -0.106697 0.068723
v -0.111680 -0.115326 0.064207
v -0.120435 -0.123955 0.059476
v -0.129142 -0.132585 0.054898
v -0.137674 -0.141214 0.050892
v -0.145872 -0.149843 0.047973
v -0.153425 -0.158472 0.047150
v -0.147638 -0.149843 0.042227
v -0.142494 -0.141214 0.035208
v -0.137684 -0.132585 0.027102
v -0.133051 -0.123955 0.018424
v -0.128464 -0.115326 0.009593
v -0.123811 -0.106697 0.000978
v -0.118990 -0.098068 -0.007092
v -0.113913 -0.089438 -0.014328
v -0.108506 -0.080809 -0.020489
v -0.102711 -0.072180 -0.025388
v -0.096488 -0.063551 -0.028894
v -0.089817 -0.054921 -0.030944
v -0.082699 -0.046292 -0.031538
v -0.075153 -0.037663 -0.030739
v -0.067219 -0.029034 -0.028678
v -0.058954 -0.020405 -0.025542
v -0.050434 -0.011775 -0.021572
v -0.041745 -0.003146 -0.017057
v -0.032991 0.005483 -0.012326
v -0.024283 0.014112 -0.007748
v -0.015751 0.022742 -0.003742
v -0.007554 0.031371 -0.000823
f 201 202 203
f 201 203 202
f 201 203 204
f 201 204 203
f 201 204 205
f 201 205 204
f 201 205 206
f 201 206 205
f 201 206 207
f 201 207 206
f 201 207 208
f 201 208 207
f 201 208 209
f 201 209 208
f 201 209 210
f 201 210 209
f 201 210 211
f 201 211 210
f 201 211 212
f 201 212 211
f 201 212 213
f 201 213 212
f 201 213 214
f 201 214 213
f 201 214 215
f 201 215 214
f 201 215 216
f 201 216 215
f 201 216 217
f 201 217 216
f 201 217 218
f 201 218 217
f 201 218 219
f 201 219 218
f 201 219 220
f 201 220 219
f 201 220 221
f 201 221 220
f 201 221 222
f 201 222 221
f 201 222 223
f 201 223 222
f 201 223 224
f 201 224 223
f 201 224 225
f 201 225 224
f 201 225 226
f 201 226 225
f 201 226 227
f 201 227 226
f 201 227 228
f 201 228 227
f 201 228 229
f 201 229 228
f 201 229 230
f 201 230 229
f 201 230 231
f 201 231 230
f 201 231 232
f 201 232 231
f 201 232 233
f 201 233 232
f 201 233 234
f 201 234 233
f 201 234 235
f 201 235 234
f 201 235 236
f 201 236 235
f 201 236 237
f 201 237 236
f 201 237 238
f 201 238 237
f 201 238 239
f 201 239 238
f 201 239 240
f 201 240 239
f 201 240 241
f 201 241 240
f 201 241 242
f 201 242 241
f 201 242 243
f 201 243 242
f 201 243 244
f 201 244 243
f 201 244 245
f 201 245 244
f 201 245 246
f 201 246 245
