o mesh
v 0.000000 0.000000 0.015000
v 0.008817 0.000000 0.012135
v 0.014266 0.000000 0.004635
v 0.014266 0.000000 -0.004635
v 0.008817 0.000000 -0.012135
v 0.000000 0.000000 -0.015000
v -0.008817 0.000000 -0.012135
v -0.014266 0.000000 -0.004635
v -0.014266 0.000000 0.004635
v -0.008817 0.000000 0.012135
v 0.000000 0.400000 0.010200
v 0.005995 0.400000 0.008252
v 0.009701 0.400000 0.003152
v 0.009701 0.400000 -0.003152
v 0.005995 0.400000 -0.008252
v 0.000000 0.400000 -0.010200
v -0.005995 0.400000 -0.008252
v -0.009701 0.400000 -0.003152
v -0.009701 0.400000 0.003152
v -0.005995 0.400000 0.008252
f 1 2 12
f 1 12 11
f 2 3 13
f 2 13 12
f 3 4 14
f 3 14 13
f 4 5 15
f 4 15 14
f 5 6 16
f 5 16 15
f 6 7 17
f 6 17 16
f 7 8 18
f 7 18 17
f 8 9 19
f 8 19 18
f 9 10 20
f 9 20 19
f 10 1 11
f 10 11 20
v -0.001794 0.400000 0.010041
v 0.002809 0.404149 0.008885
v 0.006340 0.406713 0.004335
v 0.007448 0.406713 -0.001871
v 0.005712 0.404149 -0.007362
v 0.001794 0.400000 -0.010041
v -0.002809 0.395851 -0.008885
v -0.006340 0.393287 -0.004335
v -0.007448 0.393287 0.001871
v -0.005712 0.395851 0.007362
v -0.243937 0.657227 -0.036540
v -0.240807 0.660048 -0.037326
v -0.238406 0.661792 -0.040420
v -0.237652 0.661792 -0.044640
v -0.238833 0.660048 -0.048374
v -0.241497 0.657227 -0.050196
v -0.244627 0.654406 -0.049409
v -0.247028 0.652663 -0.046315
v -0.247782 0.652663 -0.042095
v -0.246601 0.654406 -0.038361
f 21 22 32
f 21 32 31
f 22 23 33
f 22 33 32
f 23 24 34
f 23 34 33
f 24 25 35
f 24 35 34
f 25 26 36
f 25 36 35
f 26 27 37
f 26 37 36
f 27 28 38
f 27 38 37
f 28 29 39
f 28 39 38
f 29 30 40
f 29 40 39
f 30 21 31
f 30 31 40
v -0.244304 0.657227 -0.036616
v -0.243552 0.661278 -0.037800
v -0.242480 0.663781 -0.041110
v -0.241499 0.663781 -0.045283
v -0.240983 0.661278 -0.048724
v -0.241129 0.657227 -0.050120
v -0.241882 0.653177 -0.048936
v -0.242954 0.650673 -0.045625
v -0.243935 0.650673 -0.041452
v -0.244451 0.653177 -0.038011
v -0.494541 0.686606 -0.097736
v -0.494029 0.689360 -0.098540
v -0.493301 0.691062 -0.100792
v -0.492633 0.691062 -0.103629
v -0.492283 0.689360 -0.105969
v -0.492382 0.686606 -0.106918
v -0.492894 0.683851 -0.106113
v -0.493623 0.682149 -0.103862
v -0.494290 0.682149 -0.101024
v -0.494641 0.683851 -0.098684
f 41 42 52
f 41 52 51
f 42 43 53
f 42 53 52
f 43 44 54
f 43 54 53
f 44 45 55
f 44 55 54
f 45 46 56
f 45 56 55
f 46 47 57
f 46 57 56
f 47 48 58
f 47 58 57
f 48 49 59
f 48 59 58
f 49 50 60
f 49 60 59
f 50 41 51
f 50 51 60
v -0.495536 0.686606 -0.098091
v -0.496714 0.688754 -0.099671
v -0.496650 0.690081 -0.102265
v -0.495367 0.690081 -0.104883
v -0.493357 0.688754 -0.106524
v -0.491387 0.686606 -0.106562
v -0.490210 0.684458 -0.104983
v -0.490274 0.683130 -0.102388
v -0.491556 0.683130 -0.099771
v -0.493566 0.684458 -0.098129
v -0.631178 0.562782 -0.166208
v -0.631979 0.564243 -0.167282
v -0.631935 0.565146 -0.169046
v -0.631063 0.565146 -0.170826
v -0.629696 0.564243 -0.171942
v -0.628357 0.562782 -0.171968
v -0.627556 0.561322 -0.170894
v -0.627600 0.560419 -0.169130
v -0.628472 0.560419 -0.167350
v -0.629839 0.561322 -0.166233
f 61 62 72
f 61 72 71
f 62 63 73
f 62 73 72
f 63 64 74
f 63 74 73
f 64 65 75
f 64 75 74
f 65 66 76
f 65 76 75
f 66 67 77
f 66 77 76
f 67 68 78
f 67 78 77
f 68 69 79
f 68 79 78
f 69 70 80
f 69 80 79
f 70 61 71
f 70 71 80
v -0.629767 0.562782 -0.169088
v -0.629754 0.563989 -0.165572
v -0.630492 0.566047 -0.162103
v -0.631808 0.568760 -0.158668
v -0.633543 0.571948 -0.155260
v -0.635529 0.575421 -0.151867
v -0.637590 0.578979 -0.148478
v -0.639551 0.582424 -0.145084
v -0.641247 0.585568 -0.141673
v -0.642532 0.588246 -0.138237
v -0.643288 0.590324 -0.134768
v -0.643432 0.591708 -0.131262
v -0.642921 0.592350 -0.127716
v -0.641756 0.592250 -0.124130
v -0.639978 0.591456 -0.120506
v -0.637672 0.590063 -0.116850
v -0.634955 0.588203 -0.113168
v -0.631972 0.586042 -0.109471
v -0.628890 0.583768 -0.105767
v -0.625882 0.581579 -0.102068
v -0.623126 0.579675 -0.098384
v -0.620788 0.578246 -0.094726
v -0.619029 0.577472 -0.091104
v -0.618021 0.577550 -0.087527
v -0.618034 0.576344 -0.091043
v -0.617296 0.574286 -0.094512
v -0.615980 0.571573 -0.097946
v -0.614245 0.568385 -0.101355
v -0.612259 0.564912 -0.104748
v -0.610198 0.561353 -0.108137
v -0.608237 0.557908 -0.111531
v -0.606541 0.554764 -0.114942
v -0.605256 0.552087 -0.118378
v -0.604500 0.550009 -0.121847
v -0.604357 0.548624 -0.125353
v -0.604867 0.547982 -0.128899
v -0.606033 0.548082 -0.132485
v -0.607810 0.548876 -0.136109
v -0.610116 0.550270 -0.139765
v -0.612833 0.552130 -0.143446
v -0.615816 0.554291 -0.147144
v -0.618899 0.556565 -0.150848
v -0.621906 0.558754 -0.154547
v -0.624663 0.560658 -0.158231
v -0.627000 0.562087 -0.161889
v -0.628759 0.562861 -0.165511
f 81 82 83
f 81 83 82
f 81 83 84
f 81 84 83
f 81 84 85
f 81 85 84
f 81 85 86
f 81 86 85
f 81 86 87
f 81 87 86
f 81 87 88
f 81 88 87
f 81 88 89
f 81 89 88
f 81 89 90
f 81 90 89
f 81 90 91
f 81 91 90
f 81 91 92
f 81 92 91
f 81 92 93
f 81 93 92
f 81 93 94
f 81 94 93
f 81 94 95
f 81 95 94
f 81 95 96
f 81 96 95
f 81 96 97
f 81 97 96
f 81 97 98
f 81 98 97
f 81 98 99
f 81 99 98
f 81 99 100
f 81 100 99
f 81 100 101
f 81 101 100
f 81 101 102
f 81 102 101
f 81 102 103
f 81 103 102
f 81 103 104
f 81 104 103
f 81 104 105
f 81 105 104
f 81 105 106
f 81 106 105
f 81 106 107
f 81 107 106
f 81 107 108
f 81 108 107
f 81 108 109
f 81 109 108
f 81 109 110
f 81 110 109
f 81 110 111
f 81 111 110
f 81 111 112
f 81 112 111
f 81 112 113
f 81 113 112
f 81 113 114
f 81 114 113
f 81 114 115
f 81 115 114
f 81 115 116
f 81 116 115
f 81 116 117
f 81 117 116
f 81 117 118
f 81 118 117
f 81 118 119
f 81 119 118
f 81 119 120
f 81 120 119
f 81 120 121
f 81 121 120
f 81 121 122
f 81 122 121
f 81 122 123
f 81 123 122
f 81 123 124
f 81 124 123
f 81 124 125
f 81 125 124
f 81 125 126
f 81 126 125
v -0.629767 0.562782 -0.169088
v -0.628266 0.564337 -0.170920
v -0.626522 0.565639 -0.172780
v -0.624352 0.566499 -0.174688
v -0.621654 0.566809 -0.176656
v -0.618428 0.566570 -0.178682
v -0.614775 0.565887 -0.180758
v -0.610885 0.564957 -0.182859
v -0.607011 0.564044 -0.184959
v -0.603425 0.563431 -0.187027
v -0.600383 0.563384 -0.189033
v -0.598081 0.564105 -0.190956
v -0.596623 0.565705 -0.192784
v -0.596010 0.568183 -0.194516
v -0.596136 0.571431 -0.196165
v -0.596805 0.575243 -0.197753
v -0.597764 0.579356 -0.199308
v -0.598738 0.583485 -0.200862
v -0.599475 0.587369 -0.202442
v -0.599786 0.590808 -0.204070
v -0.599567 0.593697 -0.205758
v -0.598822 0.596037 -0.207505
v -0.597650 0.597934 -0.209301
v -0.596235 0.599580 -0.211123
v -0.597737 0.598026 -0.209291
v -0.599481 0.596723 -0.207431
v -0.601651 0.595864 -0.205523
v -0.604349 0.595553 -0.203556
v -0.607575 0.595792 -0.201529
v -0.611228 0.596476 -0.199454
v -0.615118 0.597405 -0.197352
v -0.618992 0.598318 -0.195252
v -0.622578 0.598931 -0.193184
v -0.625619 0.598979 -0.191178
v -0.627922 0.598257 -0.189255
v -0.629380 0.596658 -0.187428
v -0.629993 0.594179 -0.185695
v -0.629867 0.590932 -0.184046
v -0.629198 0.587119 -0.182458
v -0.628239 0.583006 -0.180903
v -0.627265 0.578877 -0.179350
v -0.626528 0.574994 -0.177769
v -0.626217 0.571555 -0.176141
v -0.626435 0.568666 -0.174453
v -0.627181 0.566325 -0.172706
v -0.628353 0.564428 -0.170911
f 127 128 129
f 127 129 128
f 127 129 130
f 127 130 129
f 127 130 131
f 127 131 130
f 127 131 132
f 127 132 131
f 127 132 133
f 127 133 132
f 127 133 134
f 127 134 133
f 127 134 135
f 127 135 134
f 127 135 136
f 127 136 135
f 127 136 137
f 127 137 136
f 127 137 138
f 127 138 137
f 127 138 139
f 127 139 138
f 127 139 140
f 127 140 139
f 127 140 141
f 127 141 140
f 127 141 142
f 127 142 141
f 127 142 143
f 127 143 142
f 127 143 144
f 127 144 143
f 127 144 145
f 127 145 144
f 127 145 146
f 127 146 145
f 127 146 147
f 127 147 146
f 127 147 148
f 127 148 147
f 127 148 149
f 127 149 148
f 127 149 150
f 127 150 149
f 127 150 151
f 127 151 150
f 127 151 152
f 127 152 151
f 127 152 153
f 127 153 152
f 127 153 154
f 127 154 153
f 127 154 155
f 127 155 154
f 127 155 156
f 127 156 155
f 127 156 157
f 127 157 156
f 127 157 158
f 127 158 157
f 127 158 159
f 127 159 158
f 127 159 160
f 127 160 159
f 127 160 161
f 127 161 160
f 127 161 162
f 127 162 161
f 127 162 163
f 127 163 162
f 127 163 164
f 127 164 163
f 127 164 165
f 127 165 164
f 127 165 166
f 127 166 165
f 127 166 167
f 127 167 166
f 127 167 168
f 127 168 167
f 127 168 169
f 127 169 168
f 127 169 170
f 127 170 169
f 127 170 171
f 127 171 170
f 127 171 172
f 127 172 171
v -0.000524 0.400000 -0.010187
v -0.003166 0.405330 -0.008100
v -0.004599 0.408624 -0.002920
v -0.004275 0.408624 0.003376
v -0.002318 0.405330 0.008382
v 0.000524 0.400000 0.010187
v 0.003166 0.394670 0.008100
v 0.004599 0.391376 0.002920
v 0.004275 0.391376 -0.003376
v 0.002318 0.394670 -0.008382
v 0.258866 0.533720 -0.020266
v 0.257070 0.537345 -0.018847
v 0.256096 0.539585 -0.015324
v 0.256316 0.539585 -0.011043
v 0.257647 0.537345 -0.007639
v 0.259579 0.533720 -0.006412
v 0.261376 0.530096 -0.007831
v 0.262350 0.527856 -0.011354
v 0.262130 0.527856 -0.015635
v 0.260799 0.530096 -0.019039
f 173 174 184
f 173 184 183
f 174 175 185
f 174 185 184
f 175 176 186
f 175 186 185
f 176 177 187
f 176 187 186
f 177 178 188
f 177 188 187
f 178 179 189
f 178 189 188
f 179 180 190
f 179 190 189
f 180 181 191
f 180 191 190
f 181 182 192
f 181 192 191
f 182 173 183
f 182 183 192
v 0.260296 0.533720 -0.020191
v 0.261145 0.537655 -0.018718
v 0.261260 0.540087 -0.015189
v 0.260597 0.540087 -0.010954
v 0.259409 0.537655 -0.007630
v 0.258150 0.533720 -0.006486
v 0.257301 0.529786 -0.007960
v 0.257185 0.527354 -0.011488
v 0.257848 0.527354 -0.015723
v 0.259036 0.529786 -0.019048
v 0.469348 0.476233 0.014781
v 0.469926 0.478909 0.015783
v 0.470004 0.480563 0.018183
v 0.469553 0.480563 0.021062
v 0.468745 0.478909 0.023323
v 0.467889 0.476233 0.024101
v 0.467311 0.473558 0.023098
v 0.467233 0.471904 0.020699
v 0.467684 0.471904 0.017819
v 0.468492 0.473558 0.015559
f 193 194 204
f 193 204 203
f 194 195 205
f 194 205 204
f 195 196 206
f 195 206 205
f 196 197 207
f 196 207 206
f 197 198 208
f 197 208 207
f 198 199 209
f 198 209 208
f 199 200 210
f 199 210 209
f 200 201 211
f 200 211 210
f 201 202 212
f 201 212 211
f 202 193 203
f 202 203 212
v 0.468618 0.477058 0.014797
v 0.471297 0.477604 0.015809
v 0.472952 0.477627 0.018208
v 0.472952 0.477118 0.021078
v 0.471297 0.476271 0.023323
v 0.468618 0.475409 0.024085
v 0.465940 0.474863 0.023073
v 0.464285 0.474840 0.020674
v 0.464285 0.475349 0.017804
v 0.465940 0.476196 0.015559
v 0.512815 0.313789 -0.012648
v 0.514636 0.314161 -0.011960
v 0.515762 0.314177 -0.010328
v 0.515762 0.313830 -0.008377
v 0.514636 0.313254 -0.006850
v 0.512815 0.312668 -0.006332
v 0.510993 0.312297 -0.007020
v 0.509868 0.312281 -0.008652
v 0.509868 0.312627 -0.010603
v 0.510993 0.313203 -0.012130
f 213 214 224
f 213 224 223
f 214 215 225
f 214 225 224
f 215 216 226
f 215 226 225
f 216 217 227
f 216 227 226
f 217 218 228
f 217 228 227
f 218 219 229
f 218 229 228
f 219 220 230
f 219 230 229
f 220 221 231
f 220 231 230
f 221 222 232
f 221 232 231
f 222 213 223
f 222 223 232
v 0.512815 0.313229 -0.009490
v 0.512523 0.314641 -0.012103
v 0.512968 0.316265 -0.014779
v 0.514154 0.318101 -0.017520
v 0.515983 0.320121 -0.020315
v 0.518286 0.322276 -0.023151
v 0.520843 0.324505 -0.026008
v 0.523403 0.326734 -0.028866
v 0.525712 0.328892 -0.031703
v 0.527534 0.330909 -0.034498
v 0.528668 0.332730 -0.037233
v 0.528972 0.334314 -0.039897
v 0.528371 0.335638 -0.042484
v 0.526865 0.336702 -0.044993
v 0.524528 0.337529 -0.047431
v 0.521504 0.338159 -0.049809
v 0.517992 0.338650 -0.052146
v 0.514229 0.339069 -0.054461
v 0.510471 0.339488 -0.056777
v 0.506965 0.339981 -0.059114
v 0.503933 0.340609 -0.061492
v 0.501545 0.341421 -0.063925
v 0.499898 0.342445 -0.066422
v 0.498987 0.343681 -0.068982
v 0.499278 0.342268 -0.066369
v 0.498834 0.340644 -0.063692
v 0.497648 0.338809 -0.060952
v 0.495818 0.336788 -0.058157
v 0.493515 0.334633 -0.055321
v 0.490959 0.332405 -0.052463
v 0.488399 0.330175 -0.049605
v 0.486089 0.328018 -0.046769
v 0.484268 0.326000 -0.043974
v 0.483133 0.324179 -0.041239
v 0.482829 0.322596 -0.038574
v 0.483430 0.321272 -0.035988
v 0.484937 0.320207 -0.033479
v 0.487274 0.319380 -0.031041
v 0.490298 0.318750 -0.028663
v 0.493810 0.318259 -0.026326
v 0.497572 0.317841 -0.024011
v 0.501331 0.317421 -0.021695
v 0.504836 0.316929 -0.019358
v 0.507868 0.316301 -0.016980
v 0.510257 0.315489 -0.014547
v 0.511903 0.314464 -0.012050
f 233 234 235
f 233 235 234
f 233 235 236
f 233 236 235
f 233 236 237
f 233 237 236
f 233 237 238
f 233 238 237
f 233 238 239
f 233 239 238
f 233 239 240
f 233 240 239
f 233 240 241
f 233 241 240
f 233 241 242
f 233 242 241
f 233 242 243
f 233 243 242
f 233 243 244
f 233 244 243
f 233 244 245
f 233 245 244
f 233 245 246
f 233 246 245
f 233 246 247
f 233 247 246
f 233 247 248
f 233 248 247
f 233 248 249
f 233 249 248
f 233 249 250
f 233 250 249
f 233 250 251
f 233 251 250
f 233 251 252
f 233 252 251
f 233 252 253
f 233 253 252
f 233 253 254
f 233 254 253
f 233 254 255
f 233 255 254
f 233 255 256
f 233 256 255
f 233 256 257
f 233 257 256
f 233 257 258
f 233 258 257
f 233 258 259
f 233 259 258
f 233 259 260
f 233 260 259
f 233 260 261
f 233 261 260
f 233 261 262
f 233 262 261
f 233 262 263
f 233 263 262
f 233 263 264
f 233 264 263
f 233 264 265
f 233 265 264
f 233 265 266
f 233 266 265
f 233 266 267
f 233 267 266
f 233 267 268
f 233 268 267
f 233 268 269
f 233 269 268
f 233 269 270
f 233 270 269
f 233 270 271
f 233 271 270
f 233 271 272
f 233 272 271
f 233 272 273
f 233 273 272
f 233 273 274
f 233 274 273
f 233 274 275
f 233 275 274
f 233 275 276
f 233 276 275
f 233 276 277
f 233 277 276
f 233 277 278
f 233 278 277
v 0.512815 0.313229 -0.009490
v 0.512311 0.314197 -0.006574
v 0.511001 0.314940 -0.003611
v 0.508922 0.315465 -0.000603
v 0.506196 0.315809 0.002441
v 0.503011 0.316023 0.005513
v 0.499597 0.316173 0.008597
v 0.496206 0.316330 0.011680
v 0.493092 0.316564 0.014748
v 0.490490 0.316942 0.017785
v 0.488593 0.317519 0.020782
v 0.487541 0.318334 0.023730
v 0.487406 0.319406 0.026625
v 0.488189 0.320737 0.029467
v 0.489817 0.322306 0.032260
v 0.492150 0.324073 0.035013
v 0.494995 0.325984 0.037735
v 0.498116 0.327973 0.040442
v 0.501261 0.329969 0.043148
v 0.504177 0.331900 0.045867
v 0.506634 0.333702 0.048612
v 0.508444 0.335322 0.051395
v 0.509484 0.336725 0.054222
v 0.509719 0.337902 0.057095
v 0.510223 0.336933 0.054179
v 0.511533 0.336191 0.051216
v 0.513612 0.335666 0.048209
v 0.516338 0.335322 0.045164
v 0.519523 0.335108 0.042093
v 0.522937 0.334958 0.039008
v 0.526328 0.334801 0.035925
v 0.529442 0.334567 0.032858
v 0.532044 0.334188 0.029820
v 0.533941 0.333612 0.026823
v 0.534993 0.332797 0.023875
v 0.535128 0.331724 0.020980
v 0.534345 0.330393 0.018138
v 0.532717 0.328825 0.015345
v 0.530384 0.327057 0.012593
v 0.527539 0.325146 0.009870
v 0.524418 0.323157 0.007163
v 0.521272 0.321162 0.004458
v 0.518357 0.319231 0.001739
v 0.515900 0.317429 -0.001006
v 0.514090 0.315809 -0.003789
v 0.513050 0.314405 -0.006616
f 279 280 281
f 279 281 280
f 279 281 282
f 279 282 281
f 279 282 283
f 279 283 282
f 279 283 284
f 279 284 283
f 279 284 285
f 279 285 284
f 279 285 286
f 279 286 285
f 279 286 287
f 279 287 286
f 279 287 288
f 279 288 287
f 279 288 289
f 279 289 288
f 279 289 290
f 279 290 289
f 279 290 291
f 279 291 290
f 279 291 292
f 279 292 291
f 279 292 293
f 279 293 292
f 279 293 294
f 279 294 293
f 279 294 295
f 279 295 294
f 279 295 296
f 279 296 295
f 279 296 297
f 279 297 296
f 279 297 298
f 279 298 297
f 279 298 299
f 279 299 298
f 279 299 300
f 279 300 299
f 279 300 301
f 279 301 300
f 279 301 302
f 279 302 301
f 279 302 303
f 279 303 302
f 279 303 304
f 279 304 303
f 279 304 305
f 279 305 304
f 279 305 306
f 279 306 305
f 279 306 307
f 279 307 306
f 279 307 308
f 279 308 307
f 279 308 309
f 279 309 308
f 279 309 310
f 279 310 309
f 279 310 311
f 279 311 310
f 279 311 312
f 279 312 311
f 279 312 313
f 279 313 312
f 279 313 314
f 279 314 313
f 279 314 315
f 279 315 314
f 279 315 316
f 279 316 315
f 279 316 317
f 279 317 316
f 279 317 318
f 279 318 317
f 279 318 319
f 279 319 318
f 279 319 320
f 279 320 319
f 279 320 321
f 279 321 320
f 279 321 322
f 279 322 321
f 279 322 323
f 279 323 322
f 279 323 324
f 279 324 323
