o mesh
v 0.000000 0.000000 0.035000
v 0.016490 0.000000 0.022697
v 0.028878 0.000000 0.009383
v 0.028878 0.000000 -0.009383
v 0.016490 0.000000 -0.022697
v 0.000000 0.000000 -0.035000
v -0.016490 0.000000 -0.022697
v -0.028878 0.000000 -0.009383
v -0.028878 0.000000 0.009383
v -0.016490 0.000000 0.022697
v 0.000000 0.600000 0.031500
v 0.014841 0.600000 0.020427
v 0.025990 0.600000 0.008445
v 0.025990 0.600000 -0.008445
v 0.014841 0.600000 -0.020427
v 0.000000 0.600000 -0.031500
v -0.014841 0.600000 -0.020427
v -0.025990 0.600000 -0.008445
v -0.025990 0.600000 0.008445
v -0.014841 0.600000 0.020427
f 1 2 12
f 1 12 11
f 2 3 13
f 2 13 12
f 3 4 14
f 3 14 13
f 4 5 15
f 4 15 14
f 5 6 16
f 5 16 15
f 6 7 17
f 6 17 16
f 7 8 18
f 7 18 17
f 8 9 19
f 8 19 18
f 9 10 20
f 9 20 19
f 10 1 11
f 10 11 20
v 0.000000 0.600531 0.031496
v 0.014783 0.601658 0.020402
v 0.025888 0.602442 0.008405
v 0.025888 0.602158 -0.008482
v 0.014783 0.600969 -0.020447
v 0.000000 0.599469 -0.031496
v -0.014783 0.598342 -0.020402
v -0.025888 0.597558 -0.008405
v -0.025888 0.597842 0.008482
v -0.014783 0.599031 0.020447
v -0.046963 1.128928 0.019439
v -0.033658 1.129942 0.009455
v -0.023663 1.130648 -0.001343
v -0.023663 1.130392 -0.016541
v -0.033658 1.129322 -0.027309
v -0.046963 1.127972 -0.037253
v -0.060268 1.126958 -0.027269
v -0.070262 1.126252 -0.016471
v -0.070262 1.126508 -0.001273
v -0.060268 1.127578 0.009495
f 21 22 32
f 21 32 31
f 22 23 33
f 22 33 32
f 23 24 34
f 23 34 33
f 24 25 35
f 24 35 34
f 25 26 36
f 25 36 35
f 26 27 37
f 26 37 36
f 27 28 38
f 27 38 37
f 28 29 39
f 28 39 38
f 29 30 40
f 29 40 39
f 30 21 31
f 30 31 40
v -0.046963 1.128450 -0.008907
v -0.045628 1.125183 -0.002927
v -0.043496 1.121985 0.002931
v -0.039913 1.118912 0.008567
v -0.034489 1.115998 0.013923
v -0.027188 1.113246 0.018992
v -0.018341 1.110628 0.023825
v -0.008609 1.108085 0.028523
v 0.001116 1.105542 0.033222
v 0.009850 1.102914 0.038072
v 0.016675 1.100121 0.043214
v 0.020879 1.097102 0.048756
v 0.022078 1.093823 0.054756
v 0.020270 1.090285 0.061215
v 0.015843 1.086521 0.068074
v 0.009506 1.082592 0.075224
v 0.002178 1.078577 0.082526
v -0.005156 1.074562 0.089828
v -0.011606 1.070623 0.096996
v -0.016510 1.066818 0.103927
v -0.019537 1.063175 0.110572
v -0.020723 1.059690 0.116936
v -0.020457 1.056331 0.123079
v -0.019396 1.053041 0.129100
v -0.020731 1.056308 0.123121
v -0.022862 1.059506 0.117263
v -0.026446 1.062579 0.111627
v -0.031869 1.065493 0.106271
v -0.039171 1.068245 0.101202
v -0.048018 1.070863 0.096369
v -0.057749 1.073406 0.091671
v -0.067474 1.075949 0.086971
v -0.076209 1.078577 0.082121
v -0.083033 1.081370 0.076979
v -0.087238 1.084389 0.071438
v -0.088436 1.087668 0.065437
v -0.086629 1.091206 0.058978
v -0.082202 1.094970 0.052119
v -0.075864 1.098899 0.044969
v -0.068537 1.102914 0.037668
v -0.061202 1.106929 0.030365
v -0.054752 1.110867 0.023198
v -0.049848 1.114673 0.016266
v -0.046822 1.118316 0.009621
v -0.045635 1.121801 0.003257
v -0.045901 1.125160 -0.002886
f 41 42 43
f 41 43 42
f 41 43 44
f 41 44 43
f 41 44 45
f 41 45 44
f 41 45 46
f 41 46 45
f 41 46 47
f 41 47 46
f 41 47 48
f 41 48 47
f 41 48 49
f 41 49 48
f 41 49 50
f 41 50 49
f 41 50 51
f 41 51 50
f 41 51 52
f 41 52 51
f 41 52 53
f 41 53 52
f 41 53 54
f 41 54 53
f 41 54 55
f 41 55 54
f 41 55 56
f 41 56 55
f 41 56 57
f 41 57 56
f 41 57 58
f 41 58 57
f 41 58 59
f 41 59 58
f 41 59 60
f 41 60 59
f 41 60 61
f 41 61 60
f 41 61 62
f 41 62 61
f 41 62 63
f 41 63 62
f 41 63 64
f 41 64 63
f 41 64 65
f 41 65 64
f 41 65 66
f 41 66 65
f 41 66 67
f 41 67 66
f 41 67 68
f 41 68 67
f 41 68 69
f 41 69 68
f 41 69 70
f 41 70 69
f 41 70 71
f 41 71 70
f 41 71 72
f 41 72 71
f 41 72 73
f 41 73 72
f 41 73 74
f 41 74 73
f 41 74 75
f 41 75 74
f 41 75 76
f 41 76 75
f 41 76 77
f 41 77 76
f 41 77 78
f 41 78 77
f 41 78 79
f 41 79 78
f 41 79 80
f 41 80 79
f 41 80 81
f 41 81 80
f 41 81 82
f 41 82 81
f 41 82 83
f 41 83 82
f 41 83 84
f 41 84 83
f 41 84 85
f 41 85 84
f 41 85 86
f 41 86 85
v -0.046963 1.128450 -0.008907
v -0.040893 1.125870 -0.009016
v -0.034830 1.123279 -0.009737
v -0.028781 1.120666 -0.011726
v -0.022752 1.118021 -0.015461
v -0.016744 1.115343 -0.021099
v -0.010756 1.112634 -0.028407
v -0.004779 1.109907 -0.036773
v 0.001197 1.107177 -0.045300
v 0.007182 1.104462 -0.052951
v 0.013188 1.101781 -0.058725
v 0.019224 1.099148 -0.061839
v 0.025295 1.096570 -0.061862
v 0.031400 1.094047 -0.058792
v 0.037536 1.091571 -0.053062
v 0.043693 1.089129 -0.045457
v 0.049859 1.086702 -0.036974
v 0.056024 1.084273 -0.028652
v 0.062177 1.081825 -0.021389
v 0.068311 1.079347 -0.015796
v 0.074424 1.076835 -0.012105
v 0.080517 1.074292 -0.010161
v 0.086596 1.071726 -0.009485
v 0.092668 1.069149 -0.009420
v 0.086598 1.071729 -0.009310
v 0.080535 1.074320 -0.008590
v 0.074486 1.076933 -0.006601
v 0.068457 1.079578 -0.002866
v 0.062449 1.082256 0.002772
v 0.056460 1.084965 0.010080
v 0.050483 1.087692 0.018446
v 0.044508 1.090422 0.026974
v 0.038523 1.093137 0.034624
v 0.032517 1.095818 0.040399
v 0.026481 1.098451 0.043512
v 0.020410 1.101029 0.043535
v 0.014304 1.103553 0.040466
v 0.008169 1.106028 0.034736
v 0.002012 1.108470 0.027130
v -0.004155 1.110897 0.018647
v -0.010320 1.113326 0.010325
v -0.016472 1.115774 0.003062
v -0.022607 1.118252 -0.002531
v -0.028719 1.120764 -0.006222
v -0.034812 1.123308 -0.008166
v -0.040891 1.125873 -0.008842
f 87 88 89
f 87 89 88
f 87 89 90
f 87 90 89
f 87 90 91
f 87 91 90
f 87 91 92
f 87 92 91
f 87 92 93
f 87 93 92
f 87 93 94
f 87 94 93
f 87 94 95
f 87 95 94
f 87 95 96
f 87 96 95
f 87 96 97
f 87 97 96
f 87 97 98
f 87 98 97
f 87 98 99
f 87 99 98
f 87 99 100
f 87 100 99
f 87 100 101
f 87 101 100
f 87 101 102
f 87 102 101
f 87 102 103
f 87 103 102
f 87 103 104
f 87 104 103
f 87 104 105
f 87 105 104
f 87 105 106
f 87 106 105
f 87 106 107
f 87 107 106
f 87 107 108
f 87 108 107
f 87 108 109
f 87 109 108
f 87 109 110
f 87 110 109
f 87 110 111
f 87 111 110
f 87 111 112
f 87 112 111
f 87 112 113
f 87 113 112
f 87 113 114
f 87 114 113
f 87 114 115
f 87 115 114
f 87 115 116
f 87 116 115
f 87 116 117
f 87 117 116
f 87 117 118
f 87 118 117
f 87 118 119
f 87 119 118
f 87 119 120
f 87 120 119
f 87 120 121
f 87 121 120
f 87 121 122
f 87 122 121
f 87 122 123
f 87 123 122
f 87 123 124
f 87 124 123
f 87 124 125
f 87 125 124
f 87 125 126
f 87 126 125
f 87 126 127
f 87 127 126
f 87 127 128
f 87 128 127
f 87 128 129
f 87 129 128
f 87 129 130
f 87 130 129
f 87 130 131
f 87 131 130
f 87 131 132
f 87 132 131
v -0.046963 1.128450 -0.008907
v -0.047793 1.126429 -0.012725
v -0.049107 1.124366 -0.016428
v -0.051319 1.122227 -0.019915
v -0.054676 1.119991 -0.023128
v -0.059211 1.117656 -0.026059
v -0.064723 1.115237 -0.028756
v -0.070801 1.112770 -0.031318
v -0.076885 1.110303 -0.033877
v -0.082358 1.107888 -0.036584
v -0.086636 1.105574 -0.039576
v -0.089272 1.103399 -0.042962
v -0.090020 1.101384 -0.046800
v -0.088881 1.099530 -0.051090
v -0.086099 1.097815 -0.055774
v -0.082124 1.096201 -0.060743
v -0.077536 1.094639 -0.065859
v -0.072955 1.093077 -0.070974
v -0.068940 1.091466 -0.075953
v -0.065902 1.089773 -0.080698
v -0.064041 1.087980 -0.085160
v -0.063327 1.086089 -0.089349
v -0.063509 1.084123 -0.093322
v -0.064175 1.082115 -0.097180
v -0.063345 1.084136 -0.093361
v -0.062031 1.086199 -0.089659
v -0.059820 1.088338 -0.086172
v -0.056462 1.090574 -0.082959
v -0.051927 1.092909 -0.080028
v -0.046415 1.095328 -0.077331
v -0.040337 1.097795 -0.074769
v -0.034253 1.100262 -0.072209
v -0.028781 1.102677 -0.069503
v -0.024502 1.104991 -0.066510
v -0.021866 1.107166 -0.063125
v -0.021118 1.109181 -0.059287
v -0.022257 1.111035 -0.054997
v -0.025039 1.112750 -0.050313
v -0.029014 1.114364 -0.045344
v -0.033602 1.115926 -0.040228
v -0.038183 1.117488 -0.035113
v -0.042198 1.119099 -0.030134
v -0.045237 1.120792 -0.025389
v -0.047097 1.122585 -0.020926
v -0.047812 1.124476 -0.016738
v -0.047630 1.126442 -0.012764
f 133 134 135
f 133 135 134
f 133 135 136
f 133 136 135
f 133 136 137
f 133 137 136
f 133 137 138
f 133 138 137
f 133 138 139
f 133 139 138
f 133 139 140
f 133 140 139
f 133 140 141
f 133 141 140
f 133 141 142
f 133 142 141
f 133 142 143
f 133 143 142
f 133 143 144
f 133 144 143
f 133 144 145
f 133 145 144
f 133 145 146
f 133 146 145
f 133 146 147
f 133 147 146
f 133 147 148
f 133 148 147
f 133 148 149
f 133 149 148
f 133 149 150
f 133 150 149
f 133 150 151
f 133 151 150
f 133 151 152
f 133 152 151
f 133 152 153
f 133 153 152
f 133 153 154
f 133 154 153
f 133 154 155
f 133 155 154
f 133 155 156
f 133 156 155
f 133 156 157
f 133 157 156
f 133 157 158
f 133 158 157
f 133 158 159
f 133 159 158
f 133 159 160
f 133 160 159
f 133 160 161
f 133 161 160
f 133 161 162
f 133 162 161
f 133 162 163
f 133 163 162
f 133 163 164
f 133 164 163
f 133 164 165
f 133 165 164
f 133 165 166
f 133 166 165
f 133 166 167
f 133 167 166
f 133 167 168
f 133 168 167
f 133 168 169
f 133 169 168
f 133 169 170
f 133 170 169
f 133 170 171
f 133 171 170
f 133 171 172
f 133 172 171
f 133 172 173
f 133 173 172
f 133 173 174
f 133 174 173
f 133 174 175
f 133 175 174
f 133 175 176
f 133 176 175
f 133 176 177
f 133 177 176
f 133 177 178
f 133 178 177
v -0.046963 1.128450 -0.008907
v -0.053596 1.126371 -0.008219
v -0.060273 1.124319 -0.005688
v -0.066994 1.122293 -0.001353
v -0.073751 1.120290 0.004519
v -0.080534 1.118304 0.011499
v -0.087331 1.116325 0.019049
v -0.094127 1.114347 0.026573
v -0.100909 1.112359 0.033465
v -0.107661 1.110353 0.039165
v -0.114375 1.108323 0.043204
v -0.121040 1.106264 0.045248
v -0.127654 1.104173 0.045121
v -0.134216 1.102049 0.042824
v -0.140731 1.099897 0.038530
v -0.147205 1.097719 0.032577
v -0.153652 1.095525 0.025431
v -0.160083 1.093321 0.017653
v -0.166514 1.091116 0.009848
v -0.172958 1.088920 0.002615
v -0.179429 1.086740 -0.003511
v -0.185936 1.084583 -0.008100
v -0.192487 1.082453 -0.010885
v -0.199081 1.080350 -0.011827
v -0.192448 1.082429 -0.012515
v -0.185771 1.084481 -0.015046
v -0.179050 1.086507 -0.019381
v -0.172294 1.088510 -0.025252
v -0.165510 1.090496 -0.032232
v -0.158713 1.092474 -0.039783
v -0.151917 1.094453 -0.047307
v -0.145136 1.096441 -0.054199
v -0.138383 1.098446 -0.059898
v -0.131670 1.100476 -0.063938
v -0.125004 1.102536 -0.065982
v -0.118390 1.104627 -0.065855
v -0.111828 1.106750 -0.063557
v -0.105314 1.108903 -0.059264
v -0.098839 1.111080 -0.053310
v -0.092392 1.113275 -0.046164
v -0.085961 1.115479 -0.038386
v -0.079530 1.117683 -0.030582
v -0.073086 1.119880 -0.023348
v -0.066615 1.122059 -0.017223
v -0.060108 1.124216 -0.012634
v -0.053557 1.126347 -0.009849
f 179 180 181
f 179 181 180
f 179 181 182
f 179 182 181
f 179 182 183
f 179 183 182
f 179 183 184
f 179 184 183
f 179 184 185
f 179 185 184
f 179 185 186
f 179 186 185
f 179 186 187
f 179 187 186
f 179 187 188
f 179 188 187
f 179 188 189
f 179 189 188
f 179 189 190
f 179 190 189
f 179 190 191
f 179 191 190
f 179 191 192
f 179 192 191
f 179 192 193
f 179 193 192
f 179 193 194
f 179 194 193
f 179 194 195
f 179 195 194
f 179 195 196
f 179 196 195
f 179 196 197
f 179 197 196
f 179 197 198
f 179 198 197
f 179 198 199
f 179 199 198
f 179 199 200
f 179 200 199
f 179 200 201
f 179 201 200
f 179 201 202
f 179 202 201
f 179 202 203
f 179 203 202
f 179 203 204
f 179 204 203
f 179 204 205
f 179 205 204
f 179 205 206
f 179 206 205
f 179 206 207
f 179 207 206
f 179 207 208
f 179 208 207
f 179 208 209
f 179 209 208
f 179 209 210
f 179 210 209
f 179 210 211
f 179 211 210
f 179 211 212
f 179 212 211
f 179 212 213
f 179 213 212
f 179 213 214
f 179 214 213
f 179 214 215
f 179 215 214
f 179 215 216
f 179 216 215
f 179 216 217
f 179 217 216
f 179 217 218
f 179 218 217
f 179 218 219
f 179 219 218
f 179 219 220
f 179 220 219
f 179 220 221
f 179 221 220
f 179 221 222
f 179 222 221
f 179 222 223
f 179 223 222
f 179 223 224
f 179 224 223
v -0.046963 1.129702 0.019415
v -0.033846 1.131784 0.009348
v -0.023993 1.133201 -0.001509
v -0.023993 1.132530 -0.016695
v -0.033846 1.130160 -0.027385
v -0.046963 1.127198 -0.037229
v -0.060080 1.125117 -0.027162
v -0.069933 1.123699 -0.016305
v -0.069933 1.124370 -0.001119
v -0.060080 1.126741 0.009571
v -0.124388 1.531564 -0.001188
v -0.112583 1.533438 -0.010248
v -0.103715 1.534714 -0.020020
v -0.103715 1.534109 -0.033687
v -0.112583 1.531976 -0.043309
v -0.124388 1.529311 -0.052168
v -0.136193 1.527437 -0.043108
v -0.145061 1.526161 -0.033336
v -0.145061 1.526766 -0.019669
v -0.136193 1.528899 -0.010048
f 225 226 236
f 225 236 235
f 226 227 237
f 226 237 236
f 227 228 238
f 227 238 237
f 228 229 239
f 228 239 238
f 229 230 240
f 229 240 239
f 230 231 241
f 230 241 240
f 231 232 242
f 231 242 241
f 232 233 243
f 232 243 242
f 233 234 244
f 233 244 243
f 234 225 235
f 234 235 244
v -0.124388 1.530437 -0.026678
v -0.125056 1.528796 -0.020498
v -0.124036 1.527505 -0.013776
v -0.121493 1.526528 -0.006565
v -0.117719 1.525805 0.001041
v -0.113106 1.525257 0.008916
v -0.108109 1.524787 0.016915
v -0.103217 1.524296 0.024879
v -0.098912 1.523683 0.032656
v -0.095629 1.522859 0.040104
v -0.093732 1.521749 0.047108
v -0.093477 1.520299 0.053584
v -0.094997 1.518481 0.059491
v -0.098293 1.516297 0.064827
v -0.103231 1.513773 0.069637
v -0.109553 1.510963 0.074002
v -0.116899 1.507941 0.078038
v -0.124832 1.504798 0.081886
v -0.132869 1.501633 0.085701
v -0.140523 1.498547 0.089638
v -0.147337 1.495635 0.093845
v -0.152921 1.492977 0.098447
v -0.156981 1.490635 0.103539
v -0.159354 1.488641 0.109171
v -0.158686 1.490282 0.102991
v -0.159706 1.491574 0.096269
v -0.162249 1.492551 0.089059
v -0.166023 1.493274 0.081453
v -0.170636 1.493822 0.073577
v -0.175633 1.494292 0.065579
v -0.180525 1.494783 0.057614
v -0.184830 1.495396 0.049837
v -0.188113 1.496220 0.042389
v -0.190010 1.497330 0.035385
v -0.190265 1.498780 0.028909
v -0.188745 1.500597 0.023002
v -0.185449 1.502782 0.017666
v -0.180512 1.505306 0.012857
v -0.174189 1.508116 0.008492
v -0.166843 1.511138 0.004455
v -0.158910 1.514281 0.000607
v -0.150873 1.517446 -0.003207
v -0.143219 1.520532 -0.007145
v -0.136405 1.523444 -0.011352
v -0.130821 1.526101 -0.015954
v -0.126761 1.528444 -0.021045
f 245 246 247
f 245 247 246
f 245 247 248
f 245 248 247
f 245 248 249
f 245 249 248
f 245 249 250
f 245 250 249
f 245 250 251
f 245 251 250
f 245 251 252
f 245 252 251
f 245 252 253
f 245 253 252
f 245 253 254
f 245 254 253
f 245 254 255
f 245 255 254
f 245 255 256
f 245 256 255
f 245 256 257
f 245 257 256
f 245 257 258
f 245 258 257
f 245 258 259
f 245 259 258
f 245 259 260
f 245 260 259
f 245 260 261
f 245 261 260
f 245 261 262
f 245 262 261
f 245 262 263
f 245 263 262
f 245 263 264
f 245 264 263
f 245 264 265
f 245 265 264
f 245 265 266
f 245 266 265
f 245 266 267
f 245 267 266
f 245 267 268
f 245 268 267
f 245 268 269
f 245 269 268
f 245 269 270
f 245 270 269
f 245 270 271
f 245 271 270
f 245 271 272
f 245 272 271
f 245 272 273
f 245 273 272
f 245 273 274
f 245 274 273
f 245 274 275
f 245 275 274
f 245 275 276
f 245 276 275
f 245 276 277
f 245 277 276
f 245 277 278
f 245 278 277
f 245 278 279
f 245 279 278
f 245 279 280
f 245 280 279
f 245 280 281
f 245 281 280
f 245 281 282
f 245 282 281
f 245 282 283
f 245 283 282
f 245 283 284
f 245 284 283
f 245 284 285
f 245 285 284
f 245 285 286
f 245 286 285
f 245 286 287
f 245 287 286
f 245 287 288
f 245 288 287
f 245 288 289
f 245 289 288
f 245 289 290
f 245 290 289
v -0.124388 1.530437 -0.026678
v -0.119362 1.528178 -0.025502
v -0.114159 1.525922 -0.024997
v -0.108646 1.523675 -0.025675
v -0.102748 1.521436 -0.027821
v -0.096463 1.519207 -0.031442
v -0.089865 1.516985 -0.036255
v -0.083093 1.514768 -0.041731
v -0.076331 1.512550 -0.047168
v -0.069780 1.510327 -0.051802
v -0.063626 1.508095 -0.054922
v -0.058013 1.505849 -0.055982
v -0.053018 1.503589 -0.054686
v -0.048642 1.501314 -0.051033
v -0.044806 1.499025 -0.045320
v -0.041367 1.496727 -0.038094
v -0.038139 1.494424 -0.030064
v -0.034921 1.492121 -0.021995
v -0.031529 1.489822 -0.014589
v -0.027825 1.487530 -0.008376
v -0.023733 1.485248 -0.003637
v -0.019256 1.482975 -0.000366
v -0.014469 1.480710 0.001721
v -0.009506 1.478449 0.003138
v -0.014532 1.480708 0.001963
v -0.019735 1.482964 0.001457
v -0.025248 1.485212 0.002135
v -0.031146 1.487450 0.004282
v -0.037431 1.489680 0.007902
v -0.044029 1.491901 0.012716
v -0.050801 1.494119 0.018192
v -0.057563 1.496336 0.023629
v -0.064114 1.498559 0.028263
v -0.070268 1.500792 0.031382
v -0.075881 1.503037 0.032442
v -0.080876 1.505297 0.031146
v -0.085253 1.507573 0.027493
v -0.089089 1.509861 0.021781
v -0.092527 1.512159 0.014554
v -0.095755 1.514462 0.006524
v -0.098973 1.516765 -0.001544
v -0.102365 1.519064 -0.008950
v -0.106069 1.521356 -0.015164
v -0.110161 1.523638 -0.019903
v -0.114638 1.525911 -0.023174
v -0.119425 1.528176 -0.025261
f 291 292 293
f 291 293 292
f 291 293 294
f 291 294 293
f 291 294 295
f 291 295 294
f 291 295 296
f 291 296 295
f 291 296 297
f 291 297 296
f 291 297 298
f 291 298 297
f 291 298 299
f 291 299 298
f 291 299 300
f 291 300 299
f 291 300 301
f 291 301 300
f 291 301 302
f 291 302 301
f 291 302 303
f 291 303 302
f 291 303 304
f 291 304 303
f 291 304 305
f 291 305 304
f 291 305 306
f 291 306 305
f 291 306 307
f 291 307 306
f 291 307 308
f 291 308 307
f 291 308 309
f 291 309 308
f 291 309 310
f 291 310 309
f 291 310 311
f 291 311 310
f 291 311 312
f 291 312 311
f 291 312 313
f 291 313 312
f 291 313 314
f 291 314 313
f 291 314 315
f 291 315 314
f 291 315 316
f 291 316 315
f 291 316 317
f 291 317 316
f 291 317 318
f 291 318 317
f 291 318 319
f 291 319 318
f 291 319 320
f 291 320 319
f 291 320 321
f 291 321 320
f 291 321 322
f 291 322 321
f 291 322 323
f 291 323 322
f 291 323 324
f 291 324 323
f 291 324 325
f 291 325 324
f 291 325 326
f 291 326 325
f 291 326 327
f 291 327 326
f 291 327 328
f 291 328 327
f 291 328 329
f 291 329 328
f 291 329 330
f 291 330 329
f 291 330 331
f 291 331 330
f 291 331 332
f 291 332 331
f 291 332 333
f 291 333 332
f 291 333 334
f 291 334 333
f 291 334 335
f 291 335 334
f 291 335 336
f 291 336 335
v -0.124388 1.530437 -0.026678
v -0.119948 1.529488 -0.030868
v -0.115836 1.528460 -0.035395
v -0.112474 1.527254 -0.040692
v -0.110213 1.525785 -0.047120
v -0.109214 1.524017 -0.054841
v -0.109373 1.521972 -0.063752
v -0.110317 1.519741 -0.073468
v -0.111453 1.517465 -0.083380
v -0.112067 1.515312 -0.092758
v -0.111459 1.513450 -0.100881
v -0.109068 1.512013 -0.107175
v -0.104587 1.511073 -0.111324
v -0.098015 1.510630 -0.113326
v -0.089661 1.510612 -0.113500
v -0.080085 1.510884 -0.112419
v -0.069987 1.511281 -0.110803
v -0.060081 1.511632 -0.109384
v -0.050960 1.511796 -0.108770
v -0.042997 1.511685 -0.109346
v -0.036295 1.511273 -0.111215
v -0.030695 1.510600 -0.114215
v -0.025845 1.509747 -0.117985
v -0.021323 1.508817 -0.122091
v -0.025763 1.509767 -0.117901
v -0.029876 1.510795 -0.113374
v -0.033238 1.512001 -0.108077
v -0.035498 1.513469 -0.101650
v -0.036497 1.515238 -0.093928
v -0.036338 1.517282 -0.085018
v -0.035394 1.519513 -0.075302
v -0.034259 1.521790 -0.065389
v -0.033644 1.523943 -0.056011
v -0.034253 1.525804 -0.047888
v -0.036643 1.527242 -0.041594
v -0.041124 1.528182 -0.037446
v -0.047696 1.528624 -0.035443
v -0.056050 1.528643 -0.035269
v -0.065626 1.528370 -0.036350
v -0.075724 1.527974 -0.037966
v -0.085630 1.527622 -0.039385
v -0.094752 1.527458 -0.039999
v -0.102715 1.527570 -0.039424
v -0.109416 1.527981 -0.037554
v -0.115016 1.528655 -0.034554
v -0.119867 1.529507 -0.030785
f 337 338 339
f 337 339 338
f 337 339 340
f 337 340 339
f 337 340 341
f 337 341 340
f 337 341 342
f 337 342 341
f 337 342 343
f 337 343 342
f 337 343 344
f 337 344 343
f 337 344 345
f 337 345 344
f 337 345 346
f 337 346 345
f 337 346 347
f 337 347 346
f 337 347 348
f 337 348 347
f 337 348 349
f 337 349 348
f 337 349 350
f 337 350 349
f 337 350 351
f 337 351 350
f 337 351 352
f 337 352 351
f 337 352 353
f 337 353 352
f 337 353 354
f 337 354 353
f 337 354 355
f 337 355 354
f 337 355 356
f 337 356 355
f 337 356 357
f 337 357 356
f 337 357 358
f 337 358 357
f 337 358 359
f 337 359 358
f 337 359 360
f 337 360 359
f 337 360 361
f 337 361 360
f 337 361 362
f 337 362 361
f 337 362 363
f 337 363 362
f 337 363 364
f 337 364 363
f 337 364 365
f 337 365 364
f 337 365 366
f 337 366 365
f 337 366 367
f 337 367 366
f 337 367 368
f 337 368 367
f 337 368 369
f 337 369 368
f 337 369 370
f 337 370 369
f 337 370 371
f 337 371 370
f 337 371 372
f 337 372 371
f 337 372 373
f 337 373 372
f 337 373 374
f 337 374 373
f 337 374 375
f 337 375 374
f 337 375 376
f 337 376 375
f 337 376 377
f 337 377 376
f 337 377 378
f 337 378 377
f 337 378 379
f 337 379 378
f 337 379 380
f 337 380 379
f 337 380 381
f 337 381 380
f 337 381 382
f 337 382 381
v -0.124388 1.530437 -0.026678
v -0.125580 1.528596 -0.031097
v -0.127325 1.526656 -0.035339
v -0.130064 1.524539 -0.039263
v -0.134051 1.522199 -0.042790
v -0.139301 1.519634 -0.045913
v -0.145582 1.516884 -0.048707
v -0.152446 1.514030 -0.051315
v -0.159292 1.511180 -0.053928
v -0.165462 1.508450 -0.056758
v -0.170341 1.505951 -0.060000
v -0.173456 1.503766 -0.063804
v -0.174551 1.501942 -0.068254
v -0.173625 1.500479 -0.073348
v -0.170935 1.499331 -0.079006
v -0.166955 1.498413 -0.085075
v -0.162298 1.497616 -0.091360
v -0.157623 1.496822 -0.097651
v -0.153531 1.495924 -0.103756
v -0.150470 1.494842 -0.109532
v -0.148673 1.493534 -0.114904
v -0.148123 1.492004 -0.119879
v -0.148567 1.490296 -0.124536
v -0.149565 1.488490 -0.129016
v -0.148373 1.490331 -0.124598
v -0.146628 1.492271 -0.120356
v -0.143889 1.494388 -0.116431
v -0.139902 1.496728 -0.112905
v -0.134653 1.499294 -0.109781
v -0.128371 1.502043 -0.106988
v -0.121507 1.504897 -0.104379
v -0.114661 1.507747 -0.101766
v -0.108491 1.510477 -0.098936
v -0.103612 1.512976 -0.095695
v -0.100497 1.515161 -0.091890
v -0.099402 1.516985 -0.087441
v -0.100328 1.518448 -0.082346
v -0.103018 1.519596 -0.076689
v -0.106999 1.520514 -0.070619
v -0.111655 1.521311 -0.064334
v -0.116330 1.522105 -0.058043
v -0.120422 1.523003 -0.051938
v -0.123483 1.524085 -0.046162
v -0.125280 1.525393 -0.040790
v -0.125830 1.526923 -0.035816
v -0.125386 1.528631 -0.031159
f 383 384 385
f 383 385 384
f 383 385 386
f 383 386 385
f 383 386 387
f 383 387 386
f 383 387 388
f 383 388 387
f 383 388 389
f 383 389 388
f 383 389 390
f 383 390 389
f 383 390 391
f 383 391 390
f 383 391 392
f 383 392 391
f 383 392 393
f 383 393 392
f 383 393 394
f 383 394 393
f 383 394 395
f 383 395 394
f 383 395 396
f 383 396 395
f 383 396 397
f 383 397 396
f 383 397 398
f 383 398 397
f 383 398 399
f 383 399 398
f 383 399 400
f 383 400 399
f 383 400 401
f 383 401 400
f 383 401 402
f 383 402 401
f 383 402 403
f 383 403 402
f 383 403 404
f 383 404 403
f 383 404 405
f 383 405 404
f 383 405 406
f 383 406 405
f 383 406 407
f 383 407 406
f 383 407 408
f 383 408 407
f 383 408 409
f 383 409 408
f 383 409 410
f 383 410 409
f 383 410 411
f 383 411 410
f 383 411 412
f 383 412 411
f 383 412 413
f 383 413 412
f 383 413 414
f 383 414 413
f 383 414 415
f 383 415 414
f 383 415 416
f 383 416 415
f 383 416 417
f 383 417 416
f 383 417 418
f 383 418 417
f 383 418 419
f 383 419 418
f 383 419 420
f 383 420 419
f 383 420 421
f 383 421 420
f 383 421 422
f 383 422 421
f 383 422 423
f 383 423 422
f 383 423 424
f 383 424 423
f 383 424 425
f 383 425 424
f 383 425 426
f 383 426 425
f 383 426 427
f 383 427 426
f 383 427 428
f 383 428 427
v -0.124388 1.530437 -0.026678
v -0.130574 1.527769 -0.025832
v -0.136895 1.525163 -0.022979
v -0.143328 1.522609 -0.018467
v -0.149846 1.520094 -0.012691
v -0.156419 1.517605 -0.006110
v -0.163013 1.515124 0.000777
v -0.169592 1.512638 0.007454
v -0.176124 1.510129 0.013429
v -0.182579 1.507585 0.018258
v -0.188932 1.504994 0.021581
v -0.195165 1.502348 0.023144
v -0.201271 1.499643 0.022816
v -0.207249 1.496878 0.020595
v -0.213108 1.494059 0.016615
v -0.218865 1.491194 0.011129
v -0.224544 1.488292 0.004498
v -0.230176 1.485368 -0.002837
v -0.235794 1.482438 -0.010381
v -0.241433 1.479518 -0.017619
v -0.247126 1.476622 -0.024052
v -0.252904 1.473766 -0.029221
v -0.258795 1.470962 -0.032731
v -0.264821 1.468220 -0.034234
v -0.258636 1.470889 -0.035080
v -0.252315 1.473494 -0.037934
v -0.245882 1.476049 -0.042445
v -0.239363 1.478563 -0.048221
v -0.232790 1.481053 -0.054803
v -0.226197 1.483533 -0.061689
v -0.219617 1.486020 -0.068367
v -0.213085 1.488528 -0.074341
v -0.206631 1.491073 -0.079170
v -0.200278 1.493664 -0.082493
v -0.194044 1.496310 -0.084057
v -0.187938 1.499015 -0.083728
v -0.181961 1.501779 -0.081508
v -0.176102 1.504598 -0.077527
v -0.170345 1.507464 -0.072041
v -0.164665 1.510366 -0.065410
v -0.159033 1.513289 -0.058075
v -0.153415 1.516219 -0.050532
v -0.147777 1.519140 -0.043293
v -0.142084 1.522035 -0.036860
v -0.136305 1.524891 -0.031692
v -0.130415 1.527696 -0.028181
f 429 430 431
f 429 431 430
f 429 431 432
f 429 432 431
f 429 432 433
f 429 433 432
f 429 433 434
f 429 434 433
f 429 434 435
f 429 435 434
f 429 435 436
f 429 436 435
f 429 436 437
f 429 437 436
f 429 437 438
f 429 438 437
f 429 438 439
f 429 439 438
f 429 439 440
f 429 440 439
f 429 440 441
f 429 441 440
f 429 441 442
f 429 442 441
f 429 442 443
f 429 443 442
f 429 443 444
f 429 444 443
f 429 444 445
f 429 445 444
f 429 445 446
f 429 446 445
f 429 446 447
f 429 447 446
f 429 447 448
f 429 448 447
f 429 448 449
f 429 449 448
f 429 449 450
f 429 450 449
f 429 450 451
f 429 451 450
f 429 451 452
f 429 452 451
f 429 452 453
f 429 453 452
f 429 453 454
f 429 454 453
f 429 454 455
f 429 455 454
f 429 455 456
f 429 456 455
f 429 456 457
f 429 457 456
f 429 457 458
f 429 458 457
f 429 458 459
f 429 459 458
f 429 459 460
f 429 460 459
f 429 460 461
f 429 461 460
f 429 461 462
f 429 462 461
f 429 462 463
f 429 463 462
f 429 463 464
f 429 464 463
f 429 464 465
f 429 465 464
f 429 465 466
f 429 466 465
f 429 466 467
f 429 467 466
f 429 467 468
f 429 468 467
f 429 468 469
f 429 469 468
f 429 469 470
f 429 470 469
f 429 470 471
f 429 471 470
f 429 471 472
f 429 472 471
f 429 472 473
f 429 473 472
f 429 473 474
f 429 474 473
