o mesh
v 1.224852 0.900000 -0.613147
v 0.081425 0.900000 -1.367326
v 0.081425 2.600000 -1.367326
v 1.224852 2.600000 -0.613147
f 1 2 3
f 1 3 4
v -1.062002 0.900000 -2.121505
v -1.143427 0.900000 -0.754179
v -1.143427 2.600000 -0.754179
v -1.062002 2.600000 -2.121505
f 5 6 7
f 5 7 8
v -1.143427 0.900000 -0.754179
v -1.224852 0.900000 0.613147
v -1.224852 2.600000 0.613147
v -1.143427 2.600000 -0.754179
f 9 10 11
f 9 11 12
v -1.224852 0.900000 0.613147
v -1.306276 0.900000 1.980473
v -1.306276 2.600000 1.980473
v -1.224852 2.600000 0.613147
f 13 14 15
f 13 15 16
v -0.081425 3.184874 1.367326
v 1.143427 3.184874 0.754179
v 1.143427 2.600000 0.754179
v -0.081425 2.600000 1.367326
f 17 18 19
f 17 19 20
v 0.531001 2.500000 1.060753
v -0.081425 2.500000 1.367326
v -0.034807 2.762090 1.343990
f 21 22 23
v 0.531001 2.500000 1.060753
v -0.034807 2.762090 1.343990
v 0.097951 2.984279 1.277533
f 24 25 26
v 0.531001 2.500000 1.060753
v 0.097951 2.984279 1.277533
v 0.296636 3.132741 1.178073
f 27 28 29
v 0.531001 2.500000 1.060753
v 0.296636 3.132741 1.178073
v 0.531001 3.184874 1.060753
f 30 31 32
v 0.531001 2.500000 1.060753
v 0.765366 3.132741 0.943432
v 0.964052 2.984279 0.843972
f 33 34 35
v 0.531001 2.500000 1.060753
v 1.096809 2.762090 0.777515
v 1.143427 2.500000 0.754179
f 36 37 38
v 1.143427 0.900000 0.754179
v 2.368278 0.900000 0.141032
v 2.368278 2.600000 0.141032
v 1.143427 2.600000 0.754179
f 39 40 41
f 39 41 42
v 1.224852 2.600000 -0.613147
v 0.081425 2.600000 -1.367326
v 0.075725 3.095847 -1.271613
v 1.139112 3.095847 -0.570227
f 43 44 45
f 43 45 46
v 0.081425 2.600000 -1.367326
v -1.062002 2.600000 -2.121505
v -0.987662 3.095847 -1.973000
v 0.075725 3.095847 -1.271613
f 47 48 49
f 47 49 50
v -1.143427 2.600000 -0.754179
v -1.224852 2.600000 0.613147
v -1.139112 3.095847 0.570227
v -1.063387 3.095847 -0.701386
f 51 52 53
f 51 53 54
v -1.306276 2.600000 1.980473
v -0.081425 2.600000 1.367326
v -0.075725 3.095847 1.271613
v -1.214837 3.095847 1.841840
f 55 56 57
f 55 57 58
v 1.143427 2.600000 0.754179
v 2.368278 2.600000 0.141032
v 2.202499 3.095847 0.131159
v 1.063387 3.095847 0.701386
f 59 60 61
f 59 61 62
v 2.202499 3.095847 0.131159
v 1.139112 3.095847 -0.570227
v 0.955384 3.539500 -0.478255
v 1.847257 3.539500 0.110005
f 63 64 65
f 63 65 66
v 0.075725 3.095847 -1.271613
v -0.987662 3.095847 -1.973000
v -0.828362 3.539500 -1.654774
v 0.063511 3.539500 -1.066514
f 67 68 69
f 67 69 70
v -1.063387 3.095847 -0.701386
v -1.139112 3.095847 0.570227
v -0.955384 3.539500 0.478255
v -0.891873 3.539500 -0.588260
f 71 72 73
f 71 73 74
v -1.139112 3.095847 0.570227
v -1.214837 3.095847 1.841840
v -1.018895 3.539500 1.544769
v -0.955384 3.539500 0.478255
f 75 76 77
f 75 77 78
v -0.075725 3.095847 1.271613
v 1.063387 3.095847 0.701386
v 0.891873 3.539500 0.588260
v -0.063511 3.539500 1.066514
f 79 80 81
f 79 81 82
v 1.847257 3.539500 0.110005
v 0.955384 3.539500 -0.478255
v 0.710414 3.904861 -0.355625
v 1.373602 3.904861 0.081798
f 83 84 85
f 83 85 86
v 0.955384 3.539500 -0.478255
v 0.063511 3.539500 -1.066514
v 0.047226 3.904861 -0.793049
v 0.710414 3.904861 -0.355625
f 87 88 89
f 87 89 90
v 0.710414 3.904861 -0.355625
v 0.047226 3.904861 -0.793049
v 0.024427 4.061444 -0.410198
v 0.367455 4.061444 -0.183944
f 91 92 93
f 91 93 94
v -0.710414 3.904861 0.355625
v -0.757640 3.904861 1.148675
v -0.391883 4.061444 0.594142
v -0.367455 4.061444 0.183944
f 95 96 97
f 95 97 98
v -0.757640 3.904861 1.148675
v -0.047226 3.904861 0.793049
v -0.024427 4.061444 0.410198
v -0.391883 4.061444 0.594142
f 99 100 101
f 99 101 102
v -0.047226 3.904861 0.793049
v 0.663188 3.904861 0.437424
v 0.343028 4.061444 0.226254
v -0.024427 4.061444 0.410198
f 103 104 105
f 103 105 106
v 0.663188 3.904861 0.437424
v 1.373602 3.904861 0.081798
v 0.710484 4.061444 0.042309
v 0.343028 4.061444 0.226254
f 107 108 109
f 107 109 110
v 0.710484 4.061444 0.042309
v 0.367455 4.061444 -0.183944
v 0.000000 4.165833 -0.000000
v 0.000000 4.165833 0.000000
f 111 112 113
v 0.367455 4.061444 -0.183944
v 0.024427 4.061444 -0.410198
v 0.000000 4.165833 -0.000000
v 0.000000 4.165833 -0.000000
f 115 116 117
v 0.024427 4.061444 -0.410198
v -0.318601 4.061444 -0.636452
v -0.000000 4.165833 -0.000000
v 0.000000 4.165833 -0.000000
f 119 120 121
v -0.343028 4.061444 -0.226254
v -0.367455 4.061444 0.183944
v -0.000000 4.165833 0.000000
v -0.000000 4.165833 -0.000000
f 123 124 125
v -0.367455 4.061444 0.183944
v -0.391883 4.061444 0.594142
v -0.000000 4.165833 0.000000
v -0.000000 4.165833 0.000000
f 127 128 129
