o mesh
v 2.601132 1.750000 2.342086
v 2.620122 1.770000 2.335812
v 2.639113 1.750000 2.329537
v 2.620122 1.730000 2.335812
v 2.219670 1.750000 1.187524
v 2.238660 1.770000 1.181250
v 2.257650 1.750000 1.174975
v 2.238660 1.730000 1.181250
f 1 2 6
f 1 6 5
f 2 3 7
f 2 7 6
f 3 4 8
f 3 8 7
f 4 1 5
f 4 5 8
v 2.219670 1.750000 1.187524
v 2.238660 1.770000 1.181250
v 2.257650 1.750000 1.174975
v 2.238660 1.730000 1.181250
v 1.838208 1.750000 0.032962
v 1.857198 1.770000 0.026688
v 1.876188 1.750000 0.020413
v 1.857198 1.730000 0.026688
f 9 10 14
f 9 14 13
f 10 11 15
f 10 15 14
f 11 12 16
f 11 16 15
f 12 9 13
f 12 13 16
v 1.838208 1.750000 0.032962
v 1.857198 1.770000 0.026688
v 1.876188 1.750000 0.020413
v 1.857198 1.730000 0.026688
v 1.456745 1.750000 -1.121600
v 1.475736 1.770000 -1.127874
v 1.494726 1.750000 -1.134149
v 1.475736 1.730000 -1.127874
f 17 18 22
f 17 22 21
f 18 19 23
f 18 23 22
f 19 20 24
f 19 24 23
f 20 17 21
f 20 21 24
v 1.456745 1.750000 -1.121600
v 1.475736 1.770000 -1.127874
v 1.494726 1.750000 -1.134149
v 1.475736 1.730000 -1.127874
v 1.075283 1.750000 -2.276162
v 1.094273 1.770000 -2.282436
v 1.113264 1.750000 -2.288711
v 1.094273 1.730000 -2.282436
f 25 26 30
f 25 30 29
f 26 27 31
f 26 31 30
f 27 28 32
f 27 32 31
f 28 25 29
f 28 29 32
v 1.075283 1.750000 -2.276162
v 1.094273 1.770000 -2.282436
v 1.113264 1.750000 -2.288711
v 1.094273 1.730000 -2.282436
v 0.693821 1.750000 -3.430724
v 0.712811 1.770000 -3.436998
v 0.731801 1.750000 -3.443273
v 0.712811 1.730000 -3.436998
f 33 34 38
f 33 38 37
f 34 35 39
f 34 39 38
f 35 36 40
f 35 40 39
f 36 33 37
f 36 37 40
v 2.620122 0.000000 2.395812
v 2.680122 0.000000 2.335812
v 2.620122 0.000000 2.275812
v 2.560122 0.000000 2.335812
v 2.620122 2.600000 2.395812
v 2.680122 2.600000 2.335812
v 2.620122 2.600000 2.275812
v 2.560122 2.600000 2.335812
f 41 42 46
f 41 46 45
f 42 43 47
f 42 47 46
f 43 44 48
f 43 48 47
f 44 41 45
f 44 45 48
v 2.238660 0.000000 1.221250
v 2.278660 0.000000 1.181250
v 2.238660 0.000000 1.141250
v 2.198660 0.000000 1.181250
v 2.238660 2.600000 1.221250
v 2.278660 2.600000 1.181250
v 2.238660 2.600000 1.141250
v 2.198660 2.600000 1.181250
f 49 50 54
f 49 54 53
f 50 51 55
f 50 55 54
f 51 52 56
f 51 56 55
f 52 49 53
f 52 53 56
v 1.857198 0.000000 0.066688
v 1.897198 0.000000 0.026688
v 1.857198 0.000000 -0.013312
v 1.817198 0.000000 0.026688
v 1.857198 2.600000 0.066688
v 1.897198 2.600000 0.026688
v 1.857198 2.600000 -0.013312
v 1.817198 2.600000 0.026688
f 57 58 62
f 57 62 61
f 58 59 63
f 58 63 62
f 59 60 64
f 59 64 63
f 60 57 61
f 60 61 64
v 1.475736 0.000000 -1.087874
v 1.515736 0.000000 -1.127874
v 1.475736 0.000000 -1.167874
v 1.435736 0.000000 -1.127874
v 1.475736 2.600000 -1.087874
v 1.515736 2.600000 -1.127874
v 1.475736 2.600000 -1.167874
v 1.435736 2.600000 -1.127874
f 65 66 70
f 65 70 69
f 66 67 71
f 66 71 70
f 67 68 72
f 67 72 71
f 68 65 69
f 68 69 72
v 1.094273 0.000000 -2.242436
v 1.134273 0.000000 -2.282436
v 1.094273 0.000000 -2.322436
v 1.054273 0.000000 -2.282436
v 1.094273 2.600000 -2.242436
v 1.134273 2.600000 -2.282436
v 1.094273 2.600000 -2.322436
v 1.054273 2.600000 -2.282436
f 73 74 78
f 73 78 77
f 74 75 79
f 74 79 78
f 75 76 80
f 75 80 79
f 76 73 77
f 76 77 80
v 0.712811 0.000000 -3.376998
v 0.772811 0.000000 -3.436998
v 0.712811 0.000000 -3.496998
v 0.652811 0.000000 -3.436998
v 0.712811 2.600000 -3.376998
v 0.772811 2.600000 -3.436998
v 0.712811 2.600000 -3.496998
v 0.652811 2.600000 -3.436998
f 81 82 86
f 81 86 85
f 82 83 87
f 82 87 86
f 83 84 88
f 83 88 87
f 84 81 85
f 84 85 88
v 2.563151 2.600000 2.354635
v 2.620122 2.660000 2.335812
v 2.677093 2.600000 2.316989
v 2.620122 2.540000 2.335812
v 0.655840 2.600000 -3.418175
v 0.712811 2.660000 -3.436998
v 0.769782 2.600000 -3.455821
v 0.712811 2.540000 -3.436998
f 89 90 94
f 89 94 93
f 90 91 95
f 90 95 94
f 91 92 96
f 91 96 95
f 92 89 93
f 92 93 96
v 2.572647 0.900000 2.351497
v 2.620122 0.950000 2.335812
v 2.667598 0.900000 2.320126
v 2.620122 0.850000 2.335812
v 0.665335 0.900000 -3.421313
v 0.712811 0.950000 -3.436998
v 0.760287 0.900000 -3.452684
v 0.712811 0.850000 -3.436998
f 97 98 102
f 97 102 101
f 98 99 103
f 98 103 102
f 99 100 104
f 99 104 103
f 100 97 101
f 100 101 104
v 0.727740 1.750000 -3.423689
v 0.712811 1.770000 -3.436998
v 0.697882 1.750000 -3.450307
v 0.712811 1.730000 -3.436998
v -0.081409 1.750000 -2.516052
v -0.096338 1.770000 -2.529361
v -0.111267 1.750000 -2.542670
v -0.096338 1.730000 -2.529361
f 105 106 110
f 105 110 109
f 106 107 111
f 106 111 110
f 107 108 112
f 107 112 111
f 108 105 109
f 108 109 112
v -0.081409 1.750000 -2.516052
v -0.096338 1.770000 -2.529361
v -0.111267 1.750000 -2.542670
v -0.096338 1.730000 -2.529361
v -0.890558 1.750000 -1.608415
v -0.905487 1.770000 -1.621724
v -0.920416 1.750000 -1.635033
v -0.905487 1.730000 -1.621724
f 113 114 118
f 113 118 117
f 114 115 119
f 114 119 118
f 115 116 120
f 115 120 119
f 116 113 117
f 116 117 120
v -0.905487 2.494860 -1.587104
v -0.870783 2.504495 -1.621057
v -0.905487 2.505140 -1.656345
v -0.940191 2.495505 -1.622392
v -0.936283 2.727521 -1.552559
v -0.901579 2.737156 -1.586512
v -0.936283 2.737802 -1.621800
v -0.970987 2.728167 -1.587847
f 121 122 126
f 121 126 125
f 122 123 127
f 122 127 126
f 123 124 128
f 123 128 127
f 124 121 125
f 124 125 128
v -0.910158 2.732661 -1.563889
v -0.916918 2.752106 -1.608902
v -0.962409 2.732661 -1.610470
v -0.955649 2.713216 -1.565457
v -0.997858 2.929902 -1.465513
v -1.004618 2.949347 -1.510527
v -1.050109 2.929902 -1.512095
v -1.043349 2.910457 -1.467081
f 129 130 134
f 129 134 133
f 130 131 135
f 130 135 134
f 131 132 136
f 131 136 135
f 132 129 133
f 132 133 136
v -0.997858 2.929902 -1.465513
v -1.011044 2.959004 -1.503319
v -1.050109 2.929902 -1.512095
v -1.036923 2.900801 -1.474289
v -1.129112 3.061694 -1.318284
v -1.142298 3.090796 -1.356089
v -1.181363 3.061694 -1.364865
v -1.168177 3.032593 -1.327060
f 137 138 142
f 137 142 141
f 138 139 143
f 138 143 142
f 139 140 144
f 139 144 143
f 140 137 141
f 140 141 144
v -1.129112 3.061694 -1.318284
v -1.150693 3.096022 -1.346671
v -1.181363 3.061694 -1.364865
v -1.159781 3.027367 -1.336478
v -1.283936 3.107973 -1.144615
v -1.305517 3.142301 -1.173003
v -1.336187 3.107973 -1.191196
v -1.314605 3.073646 -1.162809
f 145 146 150
f 145 150 149
f 146 147 151
f 146 151 150
f 147 148 152
f 147 152 151
f 148 145 149
f 148 149 152
v -1.283936 3.107973 -1.144615
v -1.314605 3.142301 -1.162809
v -1.336187 3.107973 -1.191196
v -1.305517 3.073646 -1.173003
v -1.438760 3.061694 -0.970946
v -1.469429 3.096022 -0.989140
v -1.491011 3.061694 -1.017528
v -1.460341 3.027367 -0.999334
f 153 154 158
f 153 158 157
f 154 155 159
f 154 159 158
f 155 156 160
f 155 160 159
f 156 153 157
f 156 157 160
v -1.438760 3.061694 -0.970946
v -1.477825 3.090796 -0.979722
v -1.491011 3.061694 -1.017528
v -1.451946 3.032593 -1.008752
v -1.570013 2.929902 -0.823717
v -1.609078 2.959004 -0.832493
v -1.622264 2.929902 -0.870298
v -1.583199 2.900801 -0.861522
f 161 162 166
f 161 166 165
f 162 163 167
f 162 167 166
f 163 164 168
f 163 168 167
f 164 161 165
f 164 165 168
v -1.570013 2.929902 -0.823717
v -1.615504 2.949347 -0.825285
v -1.622264 2.929902 -0.870298
v -1.576773 2.910457 -0.868730
v -1.657714 2.732661 -0.725342
v -1.703205 2.752106 -0.726910
v -1.709965 2.732661 -0.771923
v -1.664474 2.713216 -0.770355
f 169 170 174
f 169 174 173
f 170 171 175
f 170 175 174
f 171 172 176
f 171 176 175
f 172 169 173
f 172 173 176
v -1.683839 2.727521 -0.783253
v -1.649135 2.728167 -0.747965
v -1.683839 2.737802 -0.714012
v -1.718543 2.737156 -0.749300
v -1.714636 2.494860 -0.748708
v -1.679932 2.495505 -0.713420
v -1.714636 2.505140 -0.679467
v -1.749339 2.504495 -0.714755
f 177 178 182
f 177 182 181
f 178 179 183
f 178 183 182
f 179 180 184
f 179 184 183
f 180 177 181
f 180 181 184
v -1.310061 2.500000 -1.147906
v -1.290061 2.500000 -1.167906
v -1.310061 2.500000 -1.187906
v -1.330061 2.500000 -1.167906
v -1.310061 3.107973 -1.147906
v -1.290061 3.107973 -1.167906
v -1.310061 3.107973 -1.187906
v -1.330061 3.107973 -1.167906
f 185 186 190
f 185 190 189
f 186 187 191
f 186 191 190
f 187 188 192
f 187 192 191
f 188 185 189
f 188 189 192
v -1.699707 1.750000 -0.700778
v -1.714636 1.770000 -0.714087
v -1.729565 1.750000 -0.727396
v -1.714636 1.730000 -0.714087
v -2.508856 1.750000 0.206859
v -2.523785 1.770000 0.193550
v -2.538713 1.750000 0.180241
v -2.523785 1.730000 0.193550
f 193 194 198
f 193 198 197
f 194 195 199
f 194 199 198
f 195 196 200
f 195 200 199
f 196 193 197
f 196 197 200
v -2.508856 1.750000 0.206859
v -2.523785 1.770000 0.193550
v -2.538713 1.750000 0.180241
v -2.523785 1.730000 0.193550
v -3.318005 1.750000 1.114496
v -3.332933 1.770000 1.101187
v -3.347862 1.750000 1.087878
v -3.332933 1.730000 1.101187
f 201 202 206
f 201 206 205
f 202 203 207
f 202 207 206
f 203 204 208
f 203 208 207
f 204 201 205
f 204 205 208
v 0.712811 0.000000 -3.376998
v 0.772811 0.000000 -3.436998
v 0.712811 0.000000 -3.496998
v 0.652811 0.000000 -3.436998
v 0.712811 2.600000 -3.376998
v 0.772811 2.600000 -3.436998
v 0.712811 2.600000 -3.496998
v 0.652811 2.600000 -3.436998
f 209 210 214
f 209 214 213
f 210 211 215
f 210 215 214
f 211 212 216
f 211 216 215
f 212 209 213
f 212 213 216
v -0.096338 0.000000 -2.489361
v -0.056338 0.000000 -2.529361
v -0.096338 0.000000 -2.569361
v -0.136338 0.000000 -2.529361
v -0.096338 2.600000 -2.489361
v -0.056338 2.600000 -2.529361
v -0.096338 2.600000 -2.569361
v -0.136338 2.600000 -2.529361
f 217 218 222
f 217 222 221
f 218 219 223
f 218 223 222
f 219 220 224
f 219 224 223
f 220 217 221
f 220 221 224
v -0.905487 0.000000 -1.581724
v -0.865487 0.000000 -1.621724
v -0.905487 0.000000 -1.661724
v -0.945487 0.000000 -1.621724
v -0.905487 2.600000 -1.581724
v -0.865487 2.600000 -1.621724
v -0.905487 2.600000 -1.661724
v -0.945487 2.600000 -1.621724
f 225 226 230
f 225 230 229
f 226 227 231
f 226 231 230
f 227 228 232
f 227 232 231
f 228 225 229
f 228 229 232
v -2.523785 0.000000 0.233550
v -2.483785 0.000000 0.193550
v -2.523785 0.000000 0.153550
v -2.563785 0.000000 0.193550
v -2.523785 2.600000 0.233550
v -2.483785 2.600000 0.193550
v -2.523785 2.600000 0.153550
v -2.563785 2.600000 0.193550
f 233 234 238
f 233 238 237
f 234 235 239
f 234 239 238
f 235 236 240
f 235 240 239
f 236 233 237
f 236 237 240
v -3.332933 0.000000 1.161187
v -3.272933 0.000000 1.101187
v -3.332933 0.000000 1.041187
v -3.392933 0.000000 1.101187
v -3.332933 2.600000 1.161187
v -3.272933 2.600000 1.101187
v -3.332933 2.600000 1.041187
v -3.392933 2.600000 1.101187
f 241 242 246
f 241 246 245
f 242 243 247
f 242 247 246
f 243 244 248
f 243 248 247
f 244 241 245
f 244 245 248
v 0.757598 2.600000 -3.397072
v 0.712811 2.660000 -3.436998
v 0.668024 2.600000 -3.476925
v 0.712811 2.540000 -3.436998
v -3.288147 2.600000 1.141114
v -3.332933 2.660000 1.101187
v -3.377720 2.600000 1.061260
v -3.332933 2.540000 1.101187
f 249 250 254
f 249 254 253
f 250 251 255
f 250 255 254
f 251 252 256
f 251 256 255
f 252 249 253
f 252 253 256
v 0.750133 0.900000 -3.403726
v 0.712811 0.950000 -3.436998
v 0.675489 0.900000 -3.470271
v 0.712811 0.850000 -3.436998
v -3.295611 0.900000 1.134459
v -3.332933 0.950000 1.101187
v -3.370256 0.900000 1.067914
v -3.332933 0.850000 1.101187
f 257 258 262
f 257 262 261
f 258 259 263
f 258 263 262
f 259 260 264
f 259 264 263
f 260 257 261
f 260 261 264
v -3.328872 1.750000 1.081603
v -3.332933 1.770000 1.101187
v -3.336995 1.750000 1.120770
v -3.332933 1.730000 1.101187
v -2.138261 1.750000 1.328528
v -2.142322 1.770000 1.348112
v -2.146384 1.750000 1.367695
v -2.142322 1.730000 1.348112
f 265 266 270
f 265 270 269
f 266 267 271
f 266 271 270
f 267 268 272
f 267 272 271
f 268 265 269
f 268 269 272
v -2.138261 1.750000 1.328528
v -2.142322 1.770000 1.348112
v -2.146384 1.750000 1.367695
v -2.142322 1.730000 1.348112
v -0.947650 1.750000 1.575453
v -0.951711 1.770000 1.595037
v -0.955773 1.750000 1.614620
v -0.951711 1.730000 1.595037
f 273 274 278
f 273 278 277
f 274 275 279
f 274 279 278
f 275 276 280
f 275 280 279
f 276 273 277
f 276 277 280
v -0.947650 1.750000 1.575453
v -0.951711 1.770000 1.595037
v -0.955773 1.750000 1.614620
v -0.951711 1.730000 1.595037
v 0.242962 1.750000 1.822378
v 0.238900 1.770000 1.841962
v 0.234839 1.750000 1.861545
v 0.238900 1.730000 1.841962
f 281 282 286
f 281 286 285
f 282 283 287
f 282 287 286
f 283 284 288
f 283 288 287
f 284 281 285
f 284 285 288
v 0.242962 1.750000 1.822378
v 0.238900 1.770000 1.841962
v 0.234839 1.750000 1.861545
v 0.238900 1.730000 1.841962
v 1.433573 1.750000 2.069303
v 1.429511 1.770000 2.088887
v 1.425450 1.750000 2.108470
v 1.429511 1.730000 2.088887
f 289 290 294
f 289 294 293
f 290 291 295
f 290 295 294
f 291 292 296
f 291 296 295
f 292 289 293
f 292 293 296
v 1.433573 1.750000 2.069303
v 1.429511 1.770000 2.088887
v 1.425450 1.750000 2.108470
v 1.429511 1.730000 2.088887
v 2.624184 1.750000 2.316228
v 2.620122 1.770000 2.335812
v 2.616061 1.750000 2.355395
v 2.620122 1.730000 2.335812
f 297 298 302
f 297 302 301
f 298 299 303
f 298 303 302
f 299 300 304
f 299 304 303
f 300 297 301
f 300 301 304
v -3.332933 0.000000 1.161187
v -3.272933 0.000000 1.101187
v -3.332933 0.000000 1.041187
v -3.392933 0.000000 1.101187
v -3.332933 2.600000 1.161187
v -3.272933 2.600000 1.101187
v -3.332933 2.600000 1.041187
v -3.392933 2.600000 1.101187
f 305 306 310
f 305 310 309
f 306 307 311
f 306 311 310
f 307 308 312
f 307 312 311
f 308 305 309
f 308 309 312
v -2.142322 0.000000 1.388112
v -2.102322 0.000000 1.348112
v -2.142322 0.000000 1.308112
v -2.182322 0.000000 1.348112
v -2.142322 2.600000 1.388112
v -2.102322 2.600000 1.348112
v -2.142322 2.600000 1.308112
v -2.182322 2.600000 1.348112
f 313 314 318
f 313 318 317
f 314 315 319
f 314 319 318
f 315 316 320
f 315 320 319
f 316 313 317
f 316 317 320
v -0.951711 0.000000 1.635037
v -0.911711 0.000000 1.595037
v -0.951711 0.000000 1.555037
v -0.991711 0.000000 1.595037
v -0.951711 2.600000 1.635037
v -0.911711 2.600000 1.595037
v -0.951711 2.600000 1.555037
v -0.991711 2.600000 1.595037
f 321 322 326
f 321 326 325
f 322 323 327
f 322 327 326
f 323 324 328
f 323 328 327
f 324 321 325
f 324 325 328
v 0.238900 0.000000 1.881962
v 0.278900 0.000000 1.841962
v 0.238900 0.000000 1.801962
v 0.198900 0.000000 1.841962
v 0.238900 2.600000 1.881962
v 0.278900 2.600000 1.841962
v 0.238900 2.600000 1.801962
v 0.198900 2.600000 1.841962
f 329 330 334
f 329 334 333
f 330 331 335
f 330 335 334
f 331 332 336
f 331 336 335
f 332 329 333
f 332 333 336
v 1.429511 0.000000 2.128887
v 1.469511 0.000000 2.088887
v 1.429511 0.000000 2.048887
v 1.389511 0.000000 2.088887
v 1.429511 2.600000 2.128887
v 1.469511 2.600000 2.088887
v 1.429511 2.600000 2.048887
v 1.389511 2.600000 2.088887
f 337 338 342
f 337 342 341
f 338 339 343
f 338 343 342
f 339 340 344
f 339 344 343
f 340 337 341
f 340 341 344
v 2.620122 0.000000 2.395812
v 2.680122 0.000000 2.335812
v 2.620122 0.000000 2.275812
v 2.560122 0.000000 2.335812
v 2.620122 2.600000 2.395812
v 2.680122 2.600000 2.335812
v 2.620122 2.600000 2.275812
v 2.560122 2.600000 2.335812
f 345 346 350
f 345 350 349
f 346 347 351
f 346 351 350
f 347 348 352
f 347 352 351
f 348 345 349
f 348 349 352
v -3.320749 2.600000 1.042437
v -3.332933 2.660000 1.101187
v -3.345118 2.600000 1.159937
v -3.332933 2.540000 1.101187
v 2.632307 2.600000 2.277062
v 2.620122 2.660000 2.335812
v 2.607938 2.600000 2.394561
v 2.620122 2.540000 2.335812
f 353 354 358
f 353 358 357
f 354 355 359
f 354 359 358
f 355 356 360
f 355 360 359
f 356 353 357
f 356 357 360
v -3.322780 0.900000 1.052229
v -3.332933 0.950000 1.101187
v -3.343087 0.900000 1.150145
v -3.332933 0.850000 1.101187
v 2.630276 0.900000 2.286853
v 2.620122 0.950000 2.335812
v 2.609969 0.900000 2.384770
v 2.620122 0.850000 2.335812
f 361 362 366
f 361 366 365
f 362 363 367
f 362 367 366
f 363 364 368
f 363 368 367
f 364 361 365
f 364 365 368
v 2.582142 2.600000 2.348360
v 2.620122 2.640000 2.335812
v 2.658103 2.600000 2.323263
v 2.620122 2.560000 2.335812
v 2.200679 2.600000 1.193798
v 2.238660 2.640000 1.181250
v 2.276641 2.600000 1.168701
v 2.238660 2.560000 1.181250
f 369 370 374
f 369 374 373
f 370 371 375
f 370 375 374
f 371 372 376
f 371 376 375
f 372 369 373
f 372 373 376
v 2.200679 2.600000 1.193798
v 2.238660 2.640000 1.181250
v 2.276641 2.600000 1.168701
v 2.238660 2.560000 1.181250
v 1.819217 2.600000 0.039236
v 1.857198 2.640000 0.026688
v 1.895179 2.600000 0.014139
v 1.857198 2.560000 0.026688
f 377 378 382
f 377 382 381
f 378 379 383
f 378 383 382
f 379 380 384
f 379 384 383
f 380 377 381
f 380 381 384
v 1.819217 2.600000 0.039236
v 1.857198 2.640000 0.026688
v 1.895179 2.600000 0.014139
v 1.857198 2.560000 0.026688
v 1.437755 2.600000 -1.115326
v 1.475736 2.640000 -1.127874
v 1.513716 2.600000 -1.140423
v 1.475736 2.560000 -1.127874
f 385 386 390
f 385 390 389
f 386 387 391
f 386 391 390
f 387 388 392
f 387 392 391
f 388 385 389
f 388 389 392
v 1.437755 2.600000 -1.115326
v 1.475736 2.640000 -1.127874
v 1.513716 2.600000 -1.140423
v 1.475736 2.560000 -1.127874
v 1.056293 2.600000 -2.269888
v 1.094273 2.640000 -2.282436
v 1.132254 2.600000 -2.294985
v 1.094273 2.560000 -2.282436
f 393 394 398
f 393 398 397
f 394 395 399
f 394 399 398
f 395 396 400
f 395 400 399
f 396 393 397
f 396 397 400
v 1.056293 2.600000 -2.269888
v 1.094273 2.640000 -2.282436
v 1.132254 2.600000 -2.294985
v 1.094273 2.560000 -2.282436
v 0.674830 2.600000 -3.424450
v 0.712811 2.640000 -3.436998
v 0.750792 2.600000 -3.449547
v 0.712811 2.560000 -3.436998
f 401 402 406
f 401 406 405
f 402 403 407
f 402 407 406
f 403 404 408
f 403 408 407
f 404 401 405
f 404 405 408
v 0.742669 2.600000 -3.410380
v 0.712811 2.640000 -3.436998
v 0.682953 2.600000 -3.463616
v 0.712811 2.560000 -3.436998
v -0.066480 2.600000 -2.502743
v -0.096338 2.640000 -2.529361
v -0.126196 2.600000 -2.555979
v -0.096338 2.560000 -2.529361
f 409 410 414
f 409 414 413
f 410 411 415
f 410 415 414
f 411 412 416
f 411 416 415
f 412 409 413
f 412 413 416
v -0.066480 2.600000 -2.502743
v -0.096338 2.640000 -2.529361
v -0.126196 2.600000 -2.555979
v -0.096338 2.560000 -2.529361
v -0.875629 2.600000 -1.595106
v -0.905487 2.640000 -1.621724
v -0.935345 2.600000 -1.648342
v -0.905487 2.560000 -1.621724
f 417 418 422
f 417 422 421
f 418 419 423
f 418 423 422
f 419 420 424
f 419 424 423
f 420 417 421
f 420 421 424
v -0.875629 2.600000 -1.595106
v -0.905487 2.640000 -1.621724
v -0.935345 2.600000 -1.648342
v -0.905487 2.560000 -1.621724
v -1.684778 2.600000 -0.687469
v -1.714636 2.640000 -0.714087
v -1.744493 2.600000 -0.740705
v -1.714636 2.560000 -0.714087
f 425 426 430
f 425 430 429
f 426 427 431
f 426 431 430
f 427 428 432
f 427 432 431
f 428 425 429
f 428 429 432
v -1.684778 2.600000 -0.687469
v -1.714636 2.640000 -0.714087
v -1.744493 2.600000 -0.740705
v -1.714636 2.560000 -0.714087
v -2.493927 2.600000 0.220168
v -2.523785 2.640000 0.193550
v -2.553642 2.600000 0.166932
v -2.523785 2.560000 0.193550
f 433 434 438
f 433 438 437
f 434 435 439
f 434 439 438
f 435 436 440
f 435 440 439
f 436 433 437
f 436 437 440
v -2.493927 2.600000 0.220168
v -2.523785 2.640000 0.193550
v -2.553642 2.600000 0.166932
v -2.523785 2.560000 0.193550
v -3.303076 2.600000 1.127805
v -3.332933 2.640000 1.101187
v -3.362791 2.600000 1.074569
v -3.332933 2.560000 1.101187
f 441 442 446
f 441 446 445
f 442 443 447
f 442 447 446
f 443 444 448
f 443 448 447
f 444 441 445
f 444 445 448
v -3.324811 2.600000 1.062020
v -3.332933 2.640000 1.101187
v -3.341056 2.600000 1.140353
v -3.332933 2.560000 1.101187
v -2.134199 2.600000 1.308945
v -2.142322 2.640000 1.348112
v -2.150445 2.600000 1.387278
v -2.142322 2.560000 1.348112
f 449 450 454
f 449 454 453
f 450 451 455
f 450 455 454
f 451 452 456
f 451 456 455
f 452 449 453
f 452 453 456
v -2.134199 2.600000 1.308945
v -2.142322 2.640000 1.348112
v -2.150445 2.600000 1.387278
v -2.142322 2.560000 1.348112
v -0.943588 2.600000 1.555870
v -0.951711 2.640000 1.595037
v -0.959834 2.600000 1.634203
v -0.951711 2.560000 1.595037
f 457 458 462
f 457 462 461
f 458 459 463
f 458 463 462
f 459 460 464
f 459 464 463
f 460 457 461
f 460 461 464
v -0.943588 2.600000 1.555870
v -0.951711 2.640000 1.595037
v -0.959834 2.600000 1.634203
v -0.951711 2.560000 1.595037
v 0.247023 2.600000 1.802795
v 0.238900 2.640000 1.841962
v 0.230777 2.600000 1.881128
v 0.238900 2.560000 1.841962
f 465 466 470
f 465 470 469
f 466 467 471
f 466 471 470
f 467 468 472
f 467 472 471
f 468 465 469
f 468 469 472
v 1.437634 2.600000 2.049720
v 1.429511 2.640000 2.088887
v 1.421388 2.600000 2.128053
v 1.429511 2.560000 2.088887
v 2.628245 2.600000 2.296645
v 2.620122 2.640000 2.335812
v 2.612000 2.600000 2.374978
v 2.620122 2.560000 2.335812
f 473 474 478
f 473 478 477
f 474 475 479
f 474 479 478
f 475 476 480
f 475 480 479
f 476 473 477
f 476 477 480
v 2.398733 3.333619 2.184853
v 2.436714 3.373619 2.172305
v 2.474695 3.333619 2.159756
v 2.436714 3.293619 2.172305
v 2.043973 3.333619 1.111111
v 2.081954 3.373619 1.098562
v 2.119935 3.333619 1.086014
v 2.081954 3.293619 1.098562
f 481 482 486
f 481 486 485
f 482 483 487
f 482 487 486
f 483 484 488
f 483 488 487
f 484 481 485
f 484 485 488
v 2.043973 3.333619 1.111111
v 2.081954 3.373619 1.098562
v 2.119935 3.333619 1.086014
v 2.081954 3.293619 1.098562
v 1.689213 3.333619 0.037368
v 1.727194 3.373619 0.024819
v 1.765175 3.333619 0.012271
v 1.727194 3.293619 0.024819
f 489 490 494
f 489 494 493
f 490 491 495
f 490 495 494
f 491 492 496
f 491 496 495
f 492 489 493
f 492 493 496
v 1.689213 3.333619 0.037368
v 1.727194 3.373619 0.024819
v 1.765175 3.333619 0.012271
v 1.727194 3.293619 0.024819
v 1.334453 3.333619 -1.036375
v 1.372434 3.373619 -1.048923
v 1.410415 3.333619 -1.061472
v 1.372434 3.293619 -1.048923
f 497 498 502
f 497 502 501
f 498 499 503
f 498 503 502
f 499 500 504
f 499 504 503
f 500 497 501
f 500 501 504
v 1.334453 3.333619 -1.036375
v 1.372434 3.373619 -1.048923
v 1.410415 3.333619 -1.061472
v 1.372434 3.293619 -1.048923
v 0.979693 3.333619 -2.110117
v 1.017674 3.373619 -2.122666
v 1.055655 3.333619 -2.135214
v 1.017674 3.293619 -2.122666
f 505 506 510
f 505 510 509
f 506 507 511
f 506 511 510
f 507 508 512
f 507 512 511
f 508 505 509
f 508 509 512
v 0.979693 3.333619 -2.110117
v 1.017674 3.373619 -2.122666
v 1.055655 3.333619 -2.135214
v 1.017674 3.293619 -2.122666
v 0.624934 3.333619 -3.183860
v 0.662914 3.373619 -3.196408
v 0.700895 3.333619 -3.208957
v 0.662914 3.293619 -3.196408
f 513 514 518
f 513 518 517
f 514 515 519
f 514 519 518
f 515 516 520
f 515 520 519
f 516 513 517
f 516 517 520
v 0.692772 3.333619 -3.169791
v 0.662914 3.373619 -3.196408
v 0.633056 3.333619 -3.223026
v 0.662914 3.293619 -3.196408
v -0.059736 3.333619 -2.325688
v -0.089594 3.373619 -2.352306
v -0.119452 3.333619 -2.378924
v -0.089594 3.293619 -2.352306
f 521 522 526
f 521 526 525
f 522 523 527
f 522 527 526
f 523 524 528
f 523 528 527
f 524 521 525
f 524 525 528
v -0.059736 3.333619 -2.325688
v -0.089594 3.373619 -2.352306
v -0.119452 3.333619 -2.378924
v -0.089594 3.293619 -2.352306
v -0.812245 3.333619 -1.481586
v -0.842103 3.373619 -1.508204
v -0.871960 3.333619 -1.534822
v -0.842103 3.293619 -1.508204
f 529 530 534
f 529 534 533
f 530 531 535
f 530 535 534
f 531 532 536
f 531 536 535
f 532 529 533
f 532 533 536
v -0.812245 3.333619 -1.481586
v -0.842103 3.373619 -1.508204
v -0.871960 3.333619 -1.534822
v -0.842103 3.293619 -1.508204
v -1.564753 3.333619 -0.637483
v -1.594611 3.373619 -0.664101
v -1.624469 3.333619 -0.690719
v -1.594611 3.293619 -0.664101
f 537 538 542
f 537 542 541
f 538 539 543
f 538 543 542
f 539 540 544
f 539 544 543
f 540 537 541
f 540 541 544
v -1.564753 3.333619 -0.637483
v -1.594611 3.373619 -0.664101
v -1.624469 3.333619 -0.690719
v -1.594611 3.293619 -0.664101
v -2.317262 3.333619 0.206619
v -2.347120 3.373619 0.180001
v -2.376977 3.333619 0.153383
v -2.347120 3.293619 0.180001
f 545 546 550
f 545 550 549
f 546 547 551
f 546 551 550
f 547 548 552
f 547 552 551
f 548 545 549
f 548 549 552
v -2.317262 3.333619 0.206619
v -2.347120 3.373619 0.180001
v -2.376977 3.333619 0.153383
v -2.347120 3.293619 0.180001
v -3.069770 3.333619 1.050722
v -3.099628 3.373619 1.024104
v -3.129486 3.333619 0.997486
v -3.099628 3.293619 1.024104
f 553 554 558
f 553 558 557
f 554 555 559
f 554 559 558
f 555 556 560
f 555 560 559
f 556 553 557
f 556 557 560
v -3.091505 3.333619 0.984937
v -3.099628 3.373619 1.024104
v -3.107751 3.333619 1.063270
v -3.099628 3.293619 1.024104
v -1.984237 3.333619 1.214577
v -1.992360 3.373619 1.253744
v -2.000483 3.333619 1.292910
v -1.992360 3.293619 1.253744
f 561 562 566
f 561 566 565
f 562 563 567
f 562 567 566
f 563 564 568
f 563 568 567
f 564 561 565
f 564 565 568
v -1.984237 3.333619 1.214577
v -1.992360 3.373619 1.253744
v -2.000483 3.333619 1.292910
v -1.992360 3.293619 1.253744
v -0.876968 3.333619 1.444218
v -0.885091 3.373619 1.483384
v -0.893214 3.333619 1.522551
v -0.885091 3.293619 1.483384
f 569 570 574
f 569 574 573
f 570 571 575
f 570 575 574
f 571 572 576
f 571 576 575
f 572 569 573
f 572 573 576
v -0.876968 3.333619 1.444218
v -0.885091 3.373619 1.483384
v -0.893214 3.333619 1.522551
v -0.885091 3.293619 1.483384
v 0.230300 3.333619 1.673858
v 0.222177 3.373619 1.713024
v 0.214054 3.333619 1.752191
v 0.222177 3.293619 1.713024
f 577 578 582
f 577 582 581
f 578 579 583
f 578 583 582
f 579 580 584
f 579 584 583
f 580 577 581
f 580 581 584
v 0.230300 3.333619 1.673858
v 0.222177 3.373619 1.713024
v 0.214054 3.333619 1.752191
v 0.222177 3.293619 1.713024
v 1.337568 3.333619 1.903498
v 1.329445 3.373619 1.942665
v 1.321323 3.333619 1.981831
v 1.329445 3.293619 1.942665
f 585 586 590
f 585 590 589
f 586 587 591
f 586 591 590
f 587 588 592
f 587 592 591
f 588 585 589
f 588 589 592
v 1.708174 3.990014 0.933923
v 1.746155 4.030014 0.921375
v 1.784136 3.990014 0.908826
v 1.746155 3.950014 0.921375
v 1.410634 3.990014 0.033365
v 1.448614 4.030014 0.020816
v 1.486595 3.990014 0.008268
v 1.448614 3.950014 0.020816
f 593 594 598
f 593 598 597
f 594 595 599
f 594 599 598
f 595 596 600
f 595 600 599
f 596 593 597
f 596 597 600
v 1.410634 3.990014 0.033365
v 1.448614 4.030014 0.020816
v 1.486595 3.990014 0.008268
v 1.448614 3.950014 0.020816
v 1.113093 3.990014 -0.867193
v 1.151074 4.030014 -0.879742
v 1.189054 3.990014 -0.892291
v 1.151074 3.950014 -0.879742
f 601 602 606
f 601 606 605
f 602 603 607
f 602 607 606
f 603 604 608
f 603 608 607
f 604 601 605
f 604 605 608
v 1.113093 3.990014 -0.867193
v 1.151074 4.030014 -0.879742
v 1.189054 3.990014 -0.892291
v 1.151074 3.950014 -0.879742
v 0.815552 3.990014 -1.767752
v 0.853533 4.030014 -1.780300
v 0.891514 3.990014 -1.792849
v 0.853533 3.950014 -1.780300
f 609 610 614
f 609 614 613
f 610 611 615
f 610 615 614
f 611 612 616
f 611 616 615
f 612 609 613
f 612 613 616
v 0.815552 3.990014 -1.767752
v 0.853533 4.030014 -1.780300
v 0.891514 3.990014 -1.792849
v 0.853533 3.950014 -1.780300
v 0.518012 3.990014 -2.668310
v 0.555993 4.030014 -2.680859
v 0.593973 3.990014 -2.693407
v 0.555993 3.950014 -2.680859
f 617 618 622
f 617 622 621
f 618 619 623
f 618 623 622
f 619 620 624
f 619 624 623
f 620 617 621
f 620 621 624
v 0.585850 3.990014 -2.654241
v 0.555993 4.030014 -2.680859
v 0.526135 3.990014 -2.707477
v 0.555993 3.950014 -2.680859
v -0.045286 3.990014 -1.946284
v -0.075144 4.030014 -1.972902
v -0.105001 3.990014 -1.999520
v -0.075144 3.950014 -1.972902
f 625 626 630
f 625 630 629
f 626 627 631
f 626 631 630
f 627 628 632
f 627 632 631
f 628 625 629
f 628 629 632
v -0.045286 3.990014 -1.946284
v -0.075144 4.030014 -1.972902
v -0.105001 3.990014 -1.999520
v -0.075144 3.950014 -1.972902
v -0.676422 3.990014 -1.238327
v -0.706280 4.030014 -1.264945
v -0.736137 3.990014 -1.291563
v -0.706280 3.950014 -1.264945
f 633 634 638
f 633 638 637
f 634 635 639
f 634 639 638
f 635 636 640
f 635 640 639
f 636 633 637
f 636 637 640
v -0.676422 3.990014 -1.238327
v -0.706280 4.030014 -1.264945
v -0.736137 3.990014 -1.291563
v -0.706280 3.950014 -1.264945
v -1.307558 3.990014 -0.530370
v -1.337416 4.030014 -0.556988
v -1.367274 3.990014 -0.583606
v -1.337416 3.950014 -0.556988
f 641 642 646
f 641 646 645
f 642 643 647
f 642 647 646
f 643 644 648
f 643 648 647
f 644 641 645
f 644 645 648
v -1.307558 3.990014 -0.530370
v -1.337416 4.030014 -0.556988
v -1.367274 3.990014 -0.583606
v -1.337416 3.950014 -0.556988
v -1.938694 3.990014 0.177587
v -1.968552 4.030014 0.150969
v -1.998410 3.990014 0.124351
v -1.968552 3.950014 0.150969
f 649 650 654
f 649 654 653
f 650 651 655
f 650 655 654
f 651 652 656
f 651 656 655
f 652 649 653
f 652 653 656
v -1.938694 3.990014 0.177587
v -1.968552 4.030014 0.150969
v -1.998410 3.990014 0.124351
v -1.968552 3.950014 0.150969
v -2.569830 3.990014 0.885544
v -2.599688 4.030014 0.858926
v -2.629546 3.990014 0.832308
v -2.599688 3.950014 0.858926
f 657 658 662
f 657 662 661
f 658 659 663
f 658 663 662
f 659 660 664
f 659 664 663
f 660 657 661
f 660 661 664
v -2.591565 3.990014 0.819759
v -2.599688 4.030014 0.858926
v -2.607811 3.990014 0.898092
v -2.599688 3.950014 0.858926
v -1.662888 3.990014 1.012361
v -1.671011 4.030014 1.051527
v -1.679134 3.990014 1.090694
v -1.671011 3.950014 1.051527
f 665 666 670
f 665 670 669
f 666 667 671
f 666 671 670
f 667 668 672
f 667 672 671
f 668 665 669
f 668 669 672
v -1.662888 3.990014 1.012361
v -1.671011 4.030014 1.051527
v -1.679134 3.990014 1.090694
v -1.671011 3.950014 1.051527
v -0.734212 3.990014 1.204962
v -0.742335 4.030014 1.244129
v -0.750458 3.990014 1.283295
v -0.742335 3.950014 1.244129
f 673 674 678
f 673 678 677
f 674 675 679
f 674 679 678
f 675 676 680
f 675 680 679
f 676 673 677
f 676 677 680
v -0.734212 3.990014 1.204962
v -0.742335 4.030014 1.244129
v -0.750458 3.990014 1.283295
v -0.742335 3.950014 1.244129
v 0.194465 3.990014 1.397564
v 0.186342 4.030014 1.436730
v 0.178219 3.990014 1.475897
v 0.186342 3.950014 1.436730
f 681 682 686
f 681 686 685
f 682 683 687
f 682 687 686
f 683 684 688
f 683 688 687
f 684 681 685
f 684 685 688
v 0.194465 3.990014 1.397564
v 0.186342 4.030014 1.436730
v 0.178219 3.990014 1.475897
v 0.186342 3.950014 1.436730
v 1.123142 3.990014 1.590165
v 1.115019 4.030014 1.629332
v 1.106896 3.990014 1.668498
v 1.115019 3.950014 1.629332
f 689 690 694
f 689 694 693
f 690 691 695
f 690 695 694
f 691 692 696
f 691 696 695
f 692 689 693
f 692 693 696
v 1.123142 3.990014 1.590165
v 1.115019 4.030014 1.629332
v 1.106896 3.990014 1.668498
v 1.115019 3.950014 1.629332
v 2.051818 3.990014 1.782767
v 2.043695 4.030014 1.821933
v 2.035573 3.990014 1.861100
v 2.043695 3.950014 1.821933
f 697 698 702
f 697 702 701
f 698 699 703
f 698 703 702
f 699 700 704
f 699 704 703
f 700 697 701
f 700 701 704
v 1.481690 4.530575 1.367319
v 1.519671 4.570575 1.354771
v 1.557652 4.530575 1.342222
v 1.519671 4.490575 1.354771
v 1.260442 4.530575 0.697673
v 1.298423 4.570575 0.685125
v 1.336404 4.530575 0.672576
v 1.298423 4.490575 0.685125
f 705 706 710
f 705 710 709
f 706 707 711
f 706 711 710
f 707 708 712
f 707 712 711
f 708 705 709
f 708 709 712
v 1.260442 4.530575 0.697673
v 1.298423 4.570575 0.685125
v 1.336404 4.530575 0.672576
v 1.298423 4.490575 0.685125
v 1.039194 4.530575 0.028027
v 1.077175 4.570575 0.015479
v 1.115155 4.530575 0.002930
v 1.077175 4.490575 0.015479
f 713 714 718
f 713 718 717
f 714 715 719
f 714 719 718
f 715 716 720
f 715 720 719
f 716 713 717
f 716 717 720
v 1.039194 4.530575 0.028027
v 1.077175 4.570575 0.015479
v 1.115155 4.530575 0.002930
v 1.077175 4.490575 0.015479
v 0.817946 4.530575 -0.641618
v 0.855927 4.570575 -0.654167
v 0.893907 4.530575 -0.666716
v 0.855927 4.490575 -0.654167
f 721 722 726
f 721 726 725
f 722 723 727
f 722 727 726
f 723 724 728
f 723 728 727
f 724 721 725
f 724 725 728
v 0.817946 4.530575 -0.641618
v 0.855927 4.570575 -0.654167
v 0.893907 4.530575 -0.666716
v 0.855927 4.490575 -0.654167
v 0.596698 4.530575 -1.311264
v 0.634679 4.570575 -1.323813
v 0.672659 4.530575 -1.336362
v 0.634679 4.490575 -1.323813
f 729 730 734
f 729 734 733
f 730 731 735
f 730 735 734
f 731 732 736
f 731 736 735
f 732 729 733
f 732 733 736
v 0.596698 4.530575 -1.311264
v 0.634679 4.570575 -1.323813
v 0.672659 4.530575 -1.336362
v 0.634679 4.490575 -1.323813
v 0.375450 4.530575 -1.980910
v 0.413430 4.570575 -1.993459
v 0.451411 4.530575 -2.006008
v 0.413430 4.490575 -1.993459
f 737 738 742
f 737 742 741
f 738 739 743
f 738 743 742
f 739 740 744
f 739 744 743
f 740 737 741
f 740 741 744
v 0.443288 4.530575 -1.966841
v 0.413430 4.570575 -1.993459
v 0.383573 4.530575 -2.020077
v 0.413430 4.490575 -1.993459
v -0.026018 4.530575 -1.440412
v -0.055876 4.570575 -1.467030
v -0.085734 4.530575 -1.493647
v -0.055876 4.490575 -1.467030
f 745 746 750
f 745 750 749
f 746 747 751
f 746 751 750
f 747 748 752
f 747 752 751
f 748 745 749
f 748 749 752
v -0.495325 4.530575 -0.913982
v -0.525182 4.570575 -0.940600
v -0.555040 4.530575 -0.967218
v -0.525182 4.490575 -0.940600
v -0.964631 4.530575 -0.387553
v -0.994489 4.570575 -0.414171
v -1.024346 4.530575 -0.440789
v -0.994489 4.490575 -0.414171
f 753 754 758
f 753 758 757
f 754 755 759
f 754 759 758
f 755 756 760
f 755 760 759
f 756 753 757
f 756 757 760
v -0.964631 4.530575 -0.387553
v -0.994489 4.570575 -0.414171
v -1.024346 4.530575 -0.440789
v -0.994489 4.490575 -0.414171
v -1.433937 4.530575 0.138877
v -1.463795 4.570575 0.112259
v -1.493653 4.530575 0.085641
v -1.463795 4.490575 0.112259
f 761 762 766
f 761 766 765
f 762 763 767
f 762 767 766
f 763 764 768
f 763 768 767
f 764 761 765
f 764 765 768
v -1.433937 4.530575 0.138877
v -1.463795 4.570575 0.112259
v -1.493653 4.530575 0.085641
v -1.463795 4.490575 0.112259
v -1.903244 4.530575 0.665306
v -1.933101 4.570575 0.638688
v -1.962959 4.530575 0.612070
v -1.933101 4.490575 0.638688
f 769 770 774
f 769 774 773
f 770 771 775
f 770 775 774
f 771 772 776
f 771 776 775
f 772 769 773
f 772 773 776
v -1.924978 4.530575 0.599522
v -1.933101 4.570575 0.638688
v -1.941224 4.530575 0.677855
v -1.933101 4.490575 0.638688
v -1.234424 4.530575 0.742738
v -1.242547 4.570575 0.781905
v -1.250670 4.530575 0.821071
v -1.242547 4.490575 0.781905
f 777 778 782
f 777 782 781
f 778 779 783
f 778 783 782
f 779 780 784
f 779 784 783
f 780 777 781
f 780 781 784
v -1.234424 4.530575 0.742738
v -1.242547 4.570575 0.781905
v -1.250670 4.530575 0.821071
v -1.242547 4.490575 0.781905
v -0.543870 4.530575 0.885955
v -0.551992 4.570575 0.925121
v -0.560115 4.530575 0.964288
v -0.551992 4.490575 0.925121
f 785 786 790
f 785 790 789
f 786 787 791
f 786 791 790
f 787 788 792
f 787 792 791
f 788 785 789
f 788 789 792
v -0.543870 4.530575 0.885955
v -0.551992 4.570575 0.925121
v -0.560115 4.530575 0.964288
v -0.551992 4.490575 0.925121
v 0.146685 4.530575 1.029171
v 0.138562 4.570575 1.068338
v 0.130439 4.530575 1.107504
v 0.138562 4.490575 1.068338
f 793 794 798
f 793 798 797
f 794 795 799
f 794 799 798
f 795 796 800
f 795 800 799
f 796 793 797
f 796 797 800
v 0.146685 4.530575 1.029171
v 0.138562 4.570575 1.068338
v 0.130439 4.530575 1.107504
v 0.138562 4.490575 1.068338
v 0.837239 4.530575 1.172388
v 0.829117 4.570575 1.211554
v 0.820994 4.530575 1.250721
v 0.829117 4.490575 1.211554
f 801 802 806
f 801 806 805
f 802 803 807
f 802 807 806
f 803 804 808
f 803 808 807
f 804 801 805
f 804 805 808
v 0.837239 4.530575 1.172388
v 0.829117 4.570575 1.211554
v 0.820994 4.530575 1.250721
v 0.829117 4.490575 1.211554
v 1.527794 4.530575 1.315604
v 1.519671 4.570575 1.354771
v 1.511548 4.530575 1.393937
v 1.519671 4.490575 1.354771
f 809 810 814
f 809 814 813
f 810 811 815
f 810 815 814
f 811 812 816
f 811 816 815
f 812 809 813
f 812 813 816
v 1.481690 5.155302 1.367319
v 1.519671 5.195302 1.354771
v 1.557652 5.155302 1.342222
v 1.519671 5.115302 1.354771
v 1.260442 5.155302 0.697673
v 1.298423 5.195302 0.685125
v 1.336404 5.155302 0.672576
v 1.298423 5.115302 0.685125
f 817 818 822
f 817 822 821
f 818 819 823
f 818 823 822
f 819 820 824
f 819 824 823
f 820 817 821
f 820 821 824
v 1.260442 5.155302 0.697673
v 1.298423 5.195302 0.685125
v 1.336404 5.155302 0.672576
v 1.298423 5.115302 0.685125
v 1.039194 5.155302 0.028027
v 1.077175 5.195302 0.015479
v 1.115155 5.155302 0.002930
v 1.077175 5.115302 0.015479
f 825 826 830
f 825 830 829
f 826 827 831
f 826 831 830
f 827 828 832
f 827 832 831
f 828 825 829
f 828 829 832
v 1.039194 5.155302 0.028027
v 1.077175 5.195302 0.015479
v 1.115155 5.155302 0.002930
v 1.077175 5.115302 0.015479
v 0.817946 5.155302 -0.641618
v 0.855927 5.195302 -0.654167
v 0.893907 5.155302 -0.666716
v 0.855927 5.115302 -0.654167
f 833 834 838
f 833 838 837
f 834 835 839
f 834 839 838
f 835 836 840
f 835 840 839
f 836 833 837
f 836 837 840
v 0.817946 5.155302 -0.641618
v 0.855927 5.195302 -0.654167
v 0.893907 5.155302 -0.666716
v 0.855927 5.115302 -0.654167
v 0.596698 5.155302 -1.311264
v 0.634679 5.195302 -1.323813
v 0.672659 5.155302 -1.336362
v 0.634679 5.115302 -1.323813
f 841 842 846
f 841 846 845
f 842 843 847
f 842 847 846
f 843 844 848
f 843 848 847
f 844 841 845
f 844 845 848
v 0.596698 5.155302 -1.311264
v 0.634679 5.195302 -1.323813
v 0.672659 5.155302 -1.336362
v 0.634679 5.115302 -1.323813
v 0.375450 5.155302 -1.980910
v 0.413430 5.195302 -1.993459
v 0.451411 5.155302 -2.006008
v 0.413430 5.115302 -1.993459
f 849 850 854
f 849 854 853
f 850 851 855
f 850 855 854
f 851 852 856
f 851 856 855
f 852 849 853
f 852 853 856
v 0.443288 5.155302 -1.966841
v 0.413430 5.195302 -1.993459
v 0.383573 5.155302 -2.020077
v 0.413430 5.115302 -1.993459
v -0.026018 5.155302 -1.440412
v -0.055876 5.195302 -1.467030
v -0.085734 5.155302 -1.493647
v -0.055876 5.115302 -1.467030
f 857 858 862
f 857 862 861
f 858 859 863
f 858 863 862
f 859 860 864
f 859 864 863
f 860 857 861
f 860 861 864
v -0.026018 5.155302 -1.440412
v -0.055876 5.195302 -1.467030
v -0.085734 5.155302 -1.493647
v -0.055876 5.115302 -1.467030
v -0.495325 5.155302 -0.913982
v -0.525182 5.195302 -0.940600
v -0.555040 5.155302 -0.967218
v -0.525182 5.115302 -0.940600
f 865 866 870
f 865 870 869
f 866 867 871
f 866 871 870
f 867 868 872
f 867 872 871
f 868 865 869
f 868 869 872
v -0.495325 5.155302 -0.913982
v -0.525182 5.195302 -0.940600
v -0.555040 5.155302 -0.967218
v -0.525182 5.115302 -0.940600
v -0.964631 5.155302 -0.387553
v -0.994489 5.195302 -0.414171
v -1.024346 5.155302 -0.440789
v -0.994489 5.115302 -0.414171
f 873 874 878
f 873 878 877
f 874 875 879
f 874 879 878
f 875 876 880
f 875 880 879
f 876 873 877
f 876 877 880
v -0.964631 5.155302 -0.387553
v -0.994489 5.195302 -0.414171
v -1.024346 5.155302 -0.440789
v -0.994489 5.115302 -0.414171
v -1.433937 5.155302 0.138877
v -1.463795 5.195302 0.112259
v -1.493653 5.155302 0.085641
v -1.463795 5.115302 0.112259
f 881 882 886
f 881 886 885
f 882 883 887
f 882 887 886
f 883 884 888
f 883 888 887
f 884 881 885
f 884 885 888
v -1.433937 5.155302 0.138877
v -1.463795 5.195302 0.112259
v -1.493653 5.155302 0.085641
v -1.463795 5.115302 0.112259
v -1.903244 5.155302 0.665306
v -1.933101 5.195302 0.638688
v -1.962959 5.155302 0.612070
v -1.933101 5.115302 0.638688
f 889 890 894
f 889 894 893
f 890 891 895
f 890 895 894
f 891 892 896
f 891 896 895
f 892 889 893
f 892 893 896
v -1.234424 5.155302 0.742738
v -1.242547 5.195302 0.781905
v -1.250670 5.155302 0.821071
v -1.242547 5.115302 0.781905
v -0.543870 5.155302 0.885955
v -0.551992 5.195302 0.925121
v -0.560115 5.155302 0.964288
v -0.551992 5.115302 0.925121
f 897 898 902
f 897 902 901
f 898 899 903
f 898 903 902
f 899 900 904
f 899 904 903
f 900 897 901
f 900 901 904
v -0.543870 5.155302 0.885955
v -0.551992 5.195302 0.925121
v -0.560115 5.155302 0.964288
v -0.551992 5.115302 0.925121
v 0.146685 5.155302 1.029171
v 0.138562 5.195302 1.068338
v 0.130439 5.155302 1.107504
v 0.138562 5.115302 1.068338
f 905 906 910
f 905 910 909
f 906 907 911
f 906 911 910
f 907 908 912
f 907 912 911
f 908 905 909
f 908 909 912
v 0.146685 5.155302 1.029171
v 0.138562 5.195302 1.068338
v 0.130439 5.155302 1.107504
v 0.138562 5.115302 1.068338
v 0.837239 5.155302 1.172388
v 0.829117 5.195302 1.211554
v 0.820994 5.155302 1.250721
v 0.829117 5.115302 1.211554
f 913 914 918
f 913 918 917
f 914 915 919
f 914 919 918
f 915 916 920
f 915 920 919
f 916 913 917
f 916 917 920
v 0.837239 5.155302 1.172388
v 0.829117 5.195302 1.211554
v 0.820994 5.155302 1.250721
v 0.829117 5.115302 1.211554
v 1.527794 5.155302 1.315604
v 1.519671 5.195302 1.354771
v 1.511548 5.155302 1.393937
v 1.519671 5.115302 1.354771
f 921 922 926
f 921 926 925
f 922 923 927
f 922 927 926
f 923 924 928
f 923 928 927
f 924 921 925
f 924 925 928
v 1.114873 5.734474 1.040306
v 1.152854 5.774474 1.027757
v 1.190835 5.734474 1.015208
v 1.152854 5.694474 1.027757
v 0.947030 5.734474 0.532298
v 0.985010 5.774474 0.519750
v 1.022991 5.734474 0.507201
v 0.985010 5.694474 0.519750
f 929 930 934
f 929 934 933
f 930 931 935
f 930 935 934
f 931 932 936
f 931 936 935
f 932 929 933
f 932 933 936
v 0.947030 5.734474 0.532298
v 0.985010 5.774474 0.519750
v 1.022991 5.734474 0.507201
v 0.985010 5.694474 0.519750
v 0.779186 5.734474 0.024291
v 0.817167 5.774474 0.011743
v 0.855148 5.734474 -0.000806
v 0.817167 5.694474 0.011743
f 937 938 942
f 937 942 941
f 938 939 943
f 938 943 942
f 939 940 944
f 939 944 943
f 940 937 941
f 940 941 944
v 0.779186 5.734474 0.024291
v 0.817167 5.774474 0.011743
v 0.855148 5.734474 -0.000806
v 0.817167 5.694474 0.011743
v 0.611343 5.734474 -0.483716
v 0.649324 5.774474 -0.496265
v 0.687304 5.734474 -0.508813
v 0.649324 5.694474 -0.496265
f 945 946 950
f 945 950 949
f 946 947 951
f 946 951 950
f 947 948 952
f 947 952 951
f 948 945 949
f 948 949 952
v 0.611343 5.734474 -0.483716
v 0.649324 5.774474 -0.496265
v 0.687304 5.734474 -0.508813
v 0.649324 5.694474 -0.496265
v 0.443500 5.734474 -0.991723
v 0.481480 5.774474 -1.004272
v 0.519461 5.734474 -1.016821
v 0.481480 5.694474 -1.004272
f 953 954 958
f 953 958 957
f 954 955 959
f 954 959 958
f 955 956 960
f 955 960 959
f 956 953 957
f 956 957 960
v 0.443500 5.734474 -0.991723
v 0.481480 5.774474 -1.004272
v 0.519461 5.734474 -1.016821
v 0.481480 5.694474 -1.004272
v 0.275656 5.734474 -1.499731
v 0.313637 5.774474 -1.512279
v 0.351618 5.734474 -1.524828
v 0.313637 5.694474 -1.512279
f 961 962 966
f 961 966 965
f 962 963 967
f 962 967 966
f 963 964 968
f 963 968 967
f 964 961 965
f 964 965 968
v 0.343495 5.734474 -1.485661
v 0.313637 5.774474 -1.512279
v 0.283779 5.734474 -1.538897
v 0.313637 5.694474 -1.512279
v -0.012531 5.734474 -1.086301
v -0.042389 5.774474 -1.112919
v -0.072246 5.734474 -1.139537
v -0.042389 5.694474 -1.112919
f 969 970 974
f 969 974 973
f 970 971 975
f 970 975 974
f 971 972 976
f 971 976 975
f 972 969 973
f 972 973 976
v -0.012531 5.734474 -1.086301
v -0.042389 5.774474 -1.112919
v -0.072246 5.734474 -1.139537
v -0.042389 5.694474 -1.112919
v -0.368556 5.734474 -0.686941
v -0.398414 5.774474 -0.713559
v -0.428272 5.734474 -0.740177
v -0.398414 5.694474 -0.713559
f 977 978 982
f 977 982 981
f 978 979 983
f 978 983 982
f 979 980 984
f 979 984 983
f 980 977 981
f 980 981 984
v -0.368556 5.734474 -0.686941
v -0.398414 5.774474 -0.713559
v -0.428272 5.734474 -0.740177
v -0.398414 5.694474 -0.713559
v -0.724582 5.734474 -0.287581
v -0.754440 5.774474 -0.314198
v -0.784297 5.734474 -0.340816
v -0.754440 5.694474 -0.314198
f 985 986 990
f 985 990 989
f 986 987 991
f 986 991 990
f 987 988 992
f 987 992 991
f 988 985 989
f 988 989 992
v -0.724582 5.734474 -0.287581
v -0.754440 5.774474 -0.314198
v -0.784297 5.734474 -0.340816
v -0.754440 5.694474 -0.314198
v -1.080607 5.734474 0.111780
v -1.110465 5.774474 0.085162
v -1.140323 5.734474 0.058544
v -1.110465 5.694474 0.085162
f 993 994 998
f 993 998 997
f 994 995 999
f 994 999 998
f 995 996 1000
f 995 1000 999
f 996 993 997
f 996 997 1000
v -1.080607 5.734474 0.111780
v -1.110465 5.774474 0.085162
v -1.140323 5.734474 0.058544
v -1.110465 5.694474 0.085162
v -1.436633 5.734474 0.511140
v -1.466491 5.774474 0.484522
v -1.496348 5.734474 0.457904
v -1.466491 5.694474 0.484522
f 1001 1002 1006
f 1001 1006 1005
f 1002 1003 1007
f 1002 1007 1006
f 1003 1004 1008
f 1003 1008 1007
f 1004 1001 1005
f 1004 1005 1008
v -1.458368 5.734474 0.445356
v -1.466491 5.774474 0.484522
v -1.474614 5.734474 0.523689
v -1.466491 5.694474 0.484522
v -0.934499 5.734474 0.554003
v -0.942622 5.774474 0.593169
v -0.950745 5.734474 0.632336
v -0.942622 5.694474 0.593169
f 1009 1010 1014
f 1009 1014 1013
f 1010 1011 1015
f 1010 1015 1014
f 1011 1012 1016
f 1011 1016 1015
f 1012 1009 1013
f 1012 1013 1016
v -0.934499 5.734474 0.554003
v -0.942622 5.774474 0.593169
v -0.950745 5.734474 0.632336
v -0.942622 5.694474 0.593169
v -0.410630 5.734474 0.662650
v -0.418753 5.774474 0.701816
v -0.426876 5.734474 0.740983
v -0.418753 5.694474 0.701816
f 1017 1018 1022
f 1017 1022 1021
f 1018 1019 1023
f 1018 1023 1022
f 1019 1020 1024
f 1019 1024 1023
f 1020 1017 1021
f 1020 1021 1024
v -0.410630 5.734474 0.662650
v -0.418753 5.774474 0.701816
v -0.426876 5.734474 0.740983
v -0.418753 5.694474 0.701816
v 0.113239 5.734474 0.771297
v 0.105116 5.774474 0.810463
v 0.096993 5.734474 0.849630
v 0.105116 5.694474 0.810463
f 1025 1026 1030
f 1025 1030 1029
f 1026 1027 1031
f 1026 1031 1030
f 1027 1028 1032
f 1027 1032 1031
f 1028 1025 1029
f 1028 1029 1032
v 0.113239 5.734474 0.771297
v 0.105116 5.774474 0.810463
v 0.096993 5.734474 0.849630
v 0.105116 5.694474 0.810463
v 0.637108 5.734474 0.879944
v 0.628985 5.774474 0.919110
v 0.620862 5.734474 0.958277
v 0.628985 5.694474 0.919110
f 1033 1034 1038
f 1033 1038 1037
f 1034 1035 1039
f 1034 1039 1038
f 1035 1036 1040
f 1035 1040 1039
f 1036 1033 1037
f 1036 1037 1040
v 0.637108 5.734474 0.879944
v 0.628985 5.774474 0.919110
v 0.620862 5.734474 0.958277
v 0.628985 5.694474 0.919110
v 1.160977 5.734474 0.988591
v 1.152854 5.774474 1.027757
v 1.144731 5.734474 1.066924
v 1.152854 5.694474 1.027757
f 1041 1042 1046
f 1041 1046 1045
f 1042 1043 1047
f 1042 1047 1046
f 1043 1044 1048
f 1043 1048 1047
f 1044 1041 1045
f 1044 1045 1048
v 0.538446 6.159201 0.526427
v 0.576427 6.199201 0.513879
v 0.614408 6.159201 0.501330
v 0.576427 6.119201 0.513879
v 0.454525 6.159201 0.272424
v 0.492505 6.199201 0.259875
v 0.530486 6.159201 0.247326
v 0.492505 6.119201 0.259875
f 1049 1050 1054
f 1049 1054 1053
f 1050 1051 1055
f 1050 1055 1054
f 1051 1052 1056
f 1051 1056 1055
f 1052 1049 1053
f 1052 1053 1056
v 0.454525 6.159201 0.272424
v 0.492505 6.199201 0.259875
v 0.530486 6.159201 0.247326
v 0.492505 6.119201 0.259875
v 0.370603 6.159201 0.018420
v 0.408584 6.199201 0.005871
v 0.446564 6.159201 -0.006677
v 0.408584 6.119201 0.005871
f 1057 1058 1062
f 1057 1062 1061
f 1058 1059 1063
f 1058 1063 1062
f 1059 1060 1064
f 1059 1064 1063
f 1060 1057 1061
f 1060 1061 1064
v 0.370603 6.159201 0.018420
v 0.408584 6.199201 0.005871
v 0.446564 6.159201 -0.006677
v 0.408584 6.119201 0.005871
v 0.286681 6.159201 -0.235584
v 0.324662 6.199201 -0.248132
v 0.362642 6.159201 -0.260681
v 0.324662 6.119201 -0.248132
f 1065 1066 1070
f 1065 1070 1069
f 1066 1067 1071
f 1066 1071 1070
f 1067 1068 1072
f 1067 1072 1071
f 1068 1065 1069
f 1068 1069 1072
v 0.286681 6.159201 -0.235584
v 0.324662 6.199201 -0.248132
v 0.362642 6.159201 -0.260681
v 0.324662 6.119201 -0.248132
v 0.202759 6.159201 -0.489587
v 0.240740 6.199201 -0.502136
v 0.278721 6.159201 -0.514685
v 0.240740 6.119201 -0.502136
f 1073 1074 1078
f 1073 1078 1077
f 1074 1075 1079
f 1074 1079 1078
f 1075 1076 1080
f 1075 1080 1079
f 1076 1073 1077
f 1076 1077 1080
v 0.202759 6.159201 -0.489587
v 0.240740 6.199201 -0.502136
v 0.278721 6.159201 -0.514685
v 0.240740 6.119201 -0.502136
v 0.118838 6.159201 -0.743591
v 0.156818 6.199201 -0.756140
v 0.194799 6.159201 -0.768688
v 0.156818 6.119201 -0.756140
f 1081 1082 1086
f 1081 1086 1085
f 1082 1083 1087
f 1082 1087 1086
f 1083 1084 1088
f 1083 1088 1087
f 1084 1081 1085
f 1084 1085 1088
v 0.186676 6.159201 -0.729522
v 0.156818 6.199201 -0.756140
v 0.126961 6.159201 -0.782758
v 0.156818 6.119201 -0.756140
v 0.008663 6.159201 -0.529842
v -0.021194 6.199201 -0.556459
v -0.051052 6.159201 -0.583077
v -0.021194 6.119201 -0.556459
f 1089 1090 1094
f 1089 1094 1093
f 1090 1091 1095
f 1090 1095 1094
f 1091 1092 1096
f 1091 1096 1095
f 1092 1089 1093
f 1092 1093 1096
v 0.008663 6.159201 -0.529842
v -0.021194 6.199201 -0.556459
v -0.051052 6.159201 -0.583077
v -0.021194 6.119201 -0.556459
v -0.169349 6.159201 -0.330161
v -0.199207 6.199201 -0.356779
v -0.229065 6.159201 -0.383397
v -0.199207 6.119201 -0.356779
f 1097 1098 1102
f 1097 1102 1101
f 1098 1099 1103
f 1098 1103 1102
f 1099 1100 1104
f 1099 1104 1103
f 1100 1097 1101
f 1100 1101 1104
v -0.169349 6.159201 -0.330161
v -0.199207 6.199201 -0.356779
v -0.229065 6.159201 -0.383397
v -0.199207 6.119201 -0.356779
v -0.347362 6.159201 -0.130481
v -0.377220 6.199201 -0.157099
v -0.407078 6.159201 -0.183717
v -0.377220 6.119201 -0.157099
f 1105 1106 1110
f 1105 1110 1109
f 1106 1107 1111
f 1106 1111 1110
f 1107 1108 1112
f 1107 1112 1111
f 1108 1105 1109
f 1108 1109 1112
v -0.525375 6.159201 0.069199
v -0.555233 6.199201 0.042581
v -0.585090 6.159201 0.015963
v -0.555233 6.119201 0.042581
v -0.703388 6.159201 0.268879
v -0.733245 6.199201 0.242261
v -0.763103 6.159201 0.215643
v -0.733245 6.119201 0.242261
f 1113 1114 1118
f 1113 1118 1117
f 1114 1115 1119
f 1114 1119 1118
f 1115 1116 1120
f 1115 1120 1119
f 1116 1113 1117
f 1116 1117 1120
v -0.725122 6.159201 0.203095
v -0.733245 6.199201 0.242261
v -0.741368 6.159201 0.281428
v -0.733245 6.119201 0.242261
v -0.463188 6.159201 0.257418
v -0.471311 6.199201 0.296585
v -0.479434 6.159201 0.335751
v -0.471311 6.119201 0.296585
f 1121 1122 1126
f 1121 1126 1125
f 1122 1123 1127
f 1122 1127 1126
f 1123 1124 1128
f 1123 1128 1127
f 1124 1121 1125
f 1124 1125 1128
v -0.463188 6.159201 0.257418
v -0.471311 6.199201 0.296585
v -0.479434 6.159201 0.335751
v -0.471311 6.119201 0.296585
v -0.201254 6.159201 0.311742
v -0.209376 6.199201 0.350908
v -0.217499 6.159201 0.390075
v -0.209376 6.119201 0.350908
f 1129 1130 1134
f 1129 1134 1133
f 1130 1131 1135
f 1130 1135 1134
f 1131 1132 1136
f 1131 1136 1135
f 1132 1129 1133
f 1132 1133 1136
v -0.201254 6.159201 0.311742
v -0.209376 6.199201 0.350908
v -0.217499 6.159201 0.390075
v -0.209376 6.119201 0.350908
v 0.060681 6.159201 0.366065
v 0.052558 6.199201 0.405232
v 0.044435 6.159201 0.444398
v 0.052558 6.119201 0.405232
f 1137 1138 1142
f 1137 1142 1141
f 1138 1139 1143
f 1138 1143 1142
f 1139 1140 1144
f 1139 1144 1143
f 1140 1137 1141
f 1140 1141 1144
v 0.060681 6.159201 0.366065
v 0.052558 6.199201 0.405232
v 0.044435 6.159201 0.444398
v 0.052558 6.119201 0.405232
v 0.322615 6.159201 0.420389
v 0.314492 6.199201 0.459555
v 0.306370 6.159201 0.498722
v 0.314492 6.119201 0.459555
f 1145 1146 1150
f 1145 1150 1149
f 1146 1147 1151
f 1146 1151 1150
f 1147 1148 1152
f 1147 1152 1151
f 1148 1145 1149
f 1148 1149 1152
v 0.322615 6.159201 0.420389
v 0.314492 6.199201 0.459555
v 0.306370 6.159201 0.498722
v 0.314492 6.119201 0.459555
v 0.584550 6.159201 0.474712
v 0.576427 6.199201 0.513879
v 0.568304 6.159201 0.553045
v 0.576427 6.119201 0.513879
f 1153 1154 1158
f 1153 1158 1157
f 1154 1155 1159
f 1154 1159 1158
f 1155 1156 1160
f 1155 1160 1159
f 1156 1153 1157
f 1156 1157 1160
v 2.620122 2.607614 2.369973
v 2.654125 2.608098 2.334007
v 2.620122 2.592386 2.301650
v 2.586120 2.591902 2.337617
v 2.436714 3.341232 2.206467
v 2.470716 3.341717 2.170500
v 2.436714 3.326005 2.138143
v 2.402712 3.325520 2.174110
f 1161 1162 1166
f 1161 1166 1165
f 1162 1163 1167
f 1162 1167 1166
f 1163 1164 1168
f 1163 1168 1167
f 1164 1161 1165
f 1164 1165 1168
v 1.857198 2.600089 0.061688
v 1.891661 2.606107 0.026672
v 1.857198 2.599911 -0.008312
v 1.822735 2.593893 0.026703
v 1.727194 3.333708 0.059819
v 1.761657 3.339726 0.024804
v 1.727194 3.333529 -0.010180
v 1.692731 3.327511 0.024835
f 1169 1170 1174
f 1169 1174 1173
f 1170 1171 1175
f 1170 1175 1174
f 1171 1172 1176
f 1171 1176 1175
f 1172 1169 1173
f 1172 1173 1176
v 1.475736 2.596255 -1.093075
v 1.510398 2.604825 -1.127355
v 1.475736 2.603745 -1.162673
v 1.441074 2.595175 -1.128394
v 1.372434 3.329873 -1.014124
v 1.407096 3.338443 -1.048404
v 1.372434 3.337364 -1.083722
v 1.337772 3.328794 -1.049442
f 1177 1178 1182
f 1177 1182 1181
f 1178 1179 1183
f 1178 1183 1182
f 1179 1180 1184
f 1179 1184 1183
f 1180 1177 1181
f 1180 1181 1184
v 1.094273 2.592552 -2.248238
v 1.129093 2.603471 -2.281680
v 1.094273 2.607448 -2.316635
v 1.059454 2.596529 -2.283192
v 1.017674 3.326171 -2.088467
v 1.052493 3.337089 -2.121910
v 1.017674 3.341066 -2.156864
v 0.982855 3.330148 -2.123422
f 1185 1186 1190
f 1185 1190 1189
f 1186 1187 1191
f 1186 1191 1190
f 1187 1188 1192
f 1187 1192 1191
f 1188 1185 1189
f 1188 1189 1192
v 0.712811 2.589093 -3.403741
v 0.747738 2.602145 -3.436295
v 0.712811 2.610907 -3.470256
v 0.677884 2.597855 -3.437702
v 0.662914 3.322712 -3.163151
v 0.697841 3.335763 -3.195705
v 0.662914 3.344525 -3.229666
v 0.627987 3.331474 -3.197112
f 1193 1194 1198
f 1193 1198 1197
f 1194 1195 1199
f 1194 1199 1198
f 1195 1196 1200
f 1195 1200 1199
f 1196 1193 1197
f 1196 1197 1200
v -0.096338 2.591789 -2.495338
v -0.061339 2.599696 -2.529435
v -0.096338 2.608211 -2.563385
v -0.131336 2.600304 -2.529288
v -0.089594 3.325407 -2.318283
v -0.054596 3.333314 -2.352379
v -0.089594 3.341830 -2.386329
v -0.124593 3.333923 -2.352233
f 1201 1202 1206
f 1201 1206 1205
f 1202 1203 1207
f 1202 1207 1206
f 1203 1204 1208
f 1203 1208 1207
f 1204 1201 1205
f 1204 1205 1208
v -0.905487 2.594648 -1.587136
v -0.870614 2.597057 -1.622180
v -0.905487 2.605352 -1.656313
v -0.940360 2.602943 -1.621269
v -0.842103 3.328266 -1.473615
v -0.807230 3.330676 -1.508659
v -0.842103 3.338971 -1.542792
v -0.876976 3.336561 -1.507748
f 1209 1210 1214
f 1209 1214 1213
f 1210 1211 1215
f 1210 1215 1214
f 1211 1212 1216
f 1211 1216 1215
f 1212 1209 1213
f 1212 1213 1216
v -1.714636 2.597621 -0.679168
v -1.680093 2.594375 -0.714471
v -1.714636 2.602379 -0.749006
v -1.749179 2.605625 -0.713704
v -1.594611 3.331239 -0.629182
v -1.560068 3.327993 -0.664484
v -1.594611 3.335998 -0.699020
v -1.629154 3.339244 -0.663718
f 1217 1218 1222
f 1217 1222 1221
f 1218 1219 1223
f 1218 1223 1222
f 1219 1220 1224
f 1219 1224 1223
f 1220 1217 1221
f 1220 1221 1224
v -2.523785 2.600646 0.228544
v -2.489757 2.591809 0.193701
v -2.523785 2.599354 0.158556
v -2.557812 2.608191 0.193398
v -2.347120 3.334265 0.214995
v -2.313092 3.325427 0.180153
v -2.347120 3.332972 0.145007
v -2.381147 3.341810 0.179850
f 1225 1226 1230
f 1225 1230 1229
f 1226 1227 1231
f 1226 1231 1230
f 1227 1228 1232
f 1227 1232 1231
f 1228 1225 1229
f 1228 1229 1232
v -3.332933 2.603657 1.135995
v -3.299563 2.589503 1.102290
v -3.332933 2.596343 1.066378
v -3.366304 2.610497 1.100084
v -3.099628 3.337276 1.058912
v -3.066257 3.323122 1.025207
v -3.099628 3.329961 0.989295
v -3.132999 3.344115 1.023001
f 1233 1234 1238
f 1233 1238 1237
f 1234 1235 1239
f 1234 1239 1238
f 1235 1236 1240
f 1235 1240 1239
f 1236 1233 1237
f 1236 1237 1240
v -2.142322 2.604465 1.382826
v -2.108020 2.593102 1.348999
v -2.142322 2.595535 1.313398
v -2.176624 2.606898 1.347224
v -1.992360 3.338084 1.288458
v -1.958058 3.326721 1.254631
v -1.992360 3.329153 1.219030
v -2.026662 3.340516 1.252857
f 1241 1242 1246
f 1241 1246 1245
f 1242 1243 1247
f 1242 1247 1246
f 1243 1244 1248
f 1243 1248 1247
f 1244 1241 1245
f 1244 1245 1248
v -0.951711 2.605266 1.629638
v -0.916851 2.596906 1.595508
v -0.951711 2.594734 1.560435
v -0.986571 2.603094 1.594566
v -0.885091 3.338885 1.517986
v -0.850232 3.330525 1.483855
v -0.885091 3.328352 1.448783
v -0.919951 3.336712 1.482913
f 1249 1250 1254
f 1249 1254 1253
f 1250 1251 1255
f 1250 1255 1254
f 1251 1252 1256
f 1251 1256 1255
f 1252 1249 1253
f 1252 1253 1256
v 0.238900 2.606059 1.876433
v 0.273891 2.600774 1.841826
v 0.238900 2.593941 1.807490
v 0.203909 2.599226 1.842098
v 0.222177 3.339677 1.747496
v 0.257168 3.334392 1.712888
v 0.222177 3.327560 1.678553
v 0.187186 3.332845 1.713160
f 1257 1258 1262
f 1257 1262 1261
f 1258 1259 1263
f 1258 1263 1262
f 1259 1260 1264
f 1259 1264 1263
f 1260 1257 1261
f 1260 1261 1264
v 1.429511 2.606841 2.123211
v 1.464202 2.604551 2.087980
v 1.429511 2.593159 2.054562
v 1.394820 2.595449 2.089794
v 1.329445 3.340460 1.976989
v 1.364136 3.338170 1.941757
v 1.329445 3.326777 1.908340
v 1.294754 3.329067 1.943572
f 1265 1266 1270
f 1265 1270 1269
f 1266 1267 1271
f 1266 1271 1270
f 1267 1268 1272
f 1267 1272 1271
f 1268 1265 1269
f 1268 1269 1272
v 2.413423 3.333619 2.198430
v 2.457093 3.355518 2.190473
v 2.460005 3.333619 2.146179
v 2.416334 3.311719 2.154137
v 2.020405 3.990014 1.848059
v 2.064075 4.011914 1.840101
v 2.066986 3.990014 1.795808
v 2.023316 3.968114 1.803765
f 1273 1274 1278
f 1273 1278 1277
f 1274 1275 1279
f 1274 1279 1278
f 1275 1276 1280
f 1275 1280 1279
f 1276 1273 1277
f 1276 1277 1280
v 2.065620 3.333619 1.129517
v 2.108749 3.351143 1.112701
v 2.098288 3.333619 1.067607
v 2.055159 3.316094 1.084423
v 1.729821 3.990014 0.952330
v 1.772950 4.007539 0.935513
v 1.762489 3.990014 0.890420
v 1.719360 3.972489 0.907236
f 1281 1282 1286
f 1281 1286 1285
f 1282 1283 1287
f 1282 1287 1286
f 1283 1284 1288
f 1283 1288 1287
f 1284 1281 1285
f 1284 1285 1288
v 1.372434 3.324883 -1.015031
v 1.405705 3.344140 -1.046211
v 1.372434 3.342354 -1.082816
v 1.339163 3.323097 -1.051635
v 1.151074 3.981279 -0.845850
v 1.184345 4.000535 -0.877030
v 1.151074 3.998750 -0.913634
v 1.117803 3.979493 -0.882454
f 1289 1290 1294
f 1289 1294 1293
f 1290 1291 1295
f 1290 1295 1294
f 1291 1292 1296
f 1291 1296 1295
f 1292 1289 1293
f 1292 1293 1296
v 1.049234 3.333619 -2.107535
v 1.030772 3.351143 -2.149985
v 0.986114 3.333619 -2.137797
v 1.004576 3.316094 -2.095347
v 0.885093 3.990014 -1.765169
v 0.866631 4.007539 -1.807620
v 0.821973 3.990014 -1.795431
v 0.840435 3.972489 -1.752981
f 1297 1298 1302
f 1297 1302 1301
f 1298 1299 1303
f 1298 1303 1302
f 1299 1300 1304
f 1299 1304 1303
f 1300 1297 1301
f 1300 1301 1304
v 0.697185 3.333619 -3.189301
v 0.668458 3.355518 -3.223142
v 0.628644 3.333619 -3.203516
v 0.657370 3.311719 -3.169675
v 0.590263 3.990014 -2.673751
v 0.561537 4.011914 -2.707592
v 0.521722 3.990014 -2.687966
v 0.550448 3.968114 -2.654126
f 1305 1306 1310
f 1305 1310 1309
f 1306 1307 1311
f 1306 1311 1310
f 1307 1308 1312
f 1307 1312 1311
f 1308 1305 1309
f 1308 1309 1312
v -0.054620 3.333619 -2.353638
v -0.090747 3.351143 -2.382581
v -0.124569 3.333619 -2.350974
v -0.088441 3.316094 -2.322031
v -0.040169 3.990014 -1.974234
v -0.076297 4.007539 -2.003177
v -0.110118 3.990014 -1.971570
v -0.073990 3.972489 -1.942627
f 1313 1314 1318
f 1313 1318 1317
f 1314 1315 1319
f 1314 1319 1318
f 1315 1316 1320
f 1315 1320 1319
f 1316 1313 1317
f 1316 1317 1320
v -0.842103 3.321456 -1.475385
v -0.807743 3.327367 -1.510520
v -0.842103 3.345781 -1.541022
v -0.876462 3.339870 -1.505887
v -0.706280 3.977851 -1.232126
v -0.671920 3.983763 -1.267262
v -0.706280 4.002177 -1.297764
v -0.740639 3.996265 -1.262628
f 1321 1322 1326
f 1321 1326 1325
f 1322 1323 1327
f 1322 1327 1326
f 1323 1324 1328
f 1323 1328 1327
f 1324 1321 1325
f 1324 1325 1328
v -1.594611 3.327982 -0.629558
v -1.561967 3.321159 -0.666134
v -1.594611 3.339255 -0.698644
v -1.627255 3.346078 -0.662068
v -1.337416 3.984377 -0.522445
v -1.304772 3.977555 -0.559021
v -1.337416 3.995651 -0.591531
v -1.370060 4.002473 -0.554955
f 1329 1330 1334
f 1329 1334 1333
f 1330 1331 1335
f 1330 1335 1334
f 1331 1332 1336
f 1331 1336 1335
f 1332 1329 1333
f 1332 1333 1336
v -2.349796 3.333619 0.145104
v -2.377328 3.351143 0.182318
v -2.344443 3.333619 0.214899
v -2.316912 3.316094 0.177685
v -1.971228 3.990014 0.116071
v -1.998760 4.007539 0.153285
v -1.965876 3.990014 0.185866
v -1.938344 3.972489 0.148652
f 1337 1338 1342
f 1337 1342 1341
f 1338 1339 1343
f 1338 1343 1342
f 1339 1340 1344
f 1339 1344 1343
f 1340 1337 1341
f 1340 1341 1344
v -3.110608 3.333619 0.990871
v -3.125552 3.355518 1.032669
v -3.088648 3.333619 1.057337
v -3.073704 3.311719 1.015539
v -2.610668 3.990014 0.825693
v -2.625612 4.011914 0.867491
v -2.588708 3.990014 0.892159
v -2.573764 3.968114 0.850361
f 1345 1346 1350
f 1345 1350 1349
f 1346 1347 1351
f 1346 1351 1350
f 1347 1348 1352
f 1347 1352 1351
f 1348 1345 1349
f 1348 1349 1352
v -2.011001 3.333619 1.224121
v -2.018002 3.351143 1.269880
v -1.973719 3.333619 1.283367
v -1.966718 3.316094 1.237608
v -1.689652 3.990014 1.021904
v -1.696654 4.007539 1.067663
v -1.652370 3.990014 1.081150
v -1.645369 3.972489 1.035391
f 1353 1354 1358
f 1353 1358 1357
f 1354 1355 1359
f 1354 1359 1358
f 1355 1356 1360
f 1355 1360 1359
f 1356 1353 1357
f 1356 1357 1360
v -0.885091 3.345605 1.516268
v -0.850800 3.327035 1.485784
v -0.885091 3.321632 1.450500
v -0.919383 3.340202 1.480985
v -0.742335 4.002000 1.277012
v -0.708043 3.983431 1.246528
v -0.742335 3.978028 1.211245
v -0.776626 3.996597 1.241729
f 1361 1362 1366
f 1361 1366 1365
f 1362 1363 1367
f 1362 1367 1366
f 1363 1364 1368
f 1363 1368 1367
f 1364 1361 1365
f 1364 1365 1368
v 0.222177 3.347197 1.745283
v 0.257133 3.335240 1.712342
v 0.222177 3.320040 1.680766
v 0.187221 3.331997 1.713707
v 0.186342 4.003593 1.468989
v 0.221298 3.991635 1.436048
v 0.186342 3.976435 1.404471
v 0.151386 3.988393 1.437412
f 1369 1370 1374
f 1369 1374 1373
f 1370 1371 1375
f 1370 1375 1374
f 1371 1372 1376
f 1371 1376 1375
f 1372 1369 1373
f 1372 1373 1376
v 1.300561 3.333619 1.962431
v 1.346556 3.351143 1.967667
v 1.358329 3.333619 1.922898
v 1.312335 3.316094 1.917662
v 1.086135 3.990014 1.649098
v 1.132129 4.007539 1.654334
v 1.143903 3.990014 1.609565
v 1.097908 3.972489 1.604329
f 1377 1378 1382
f 1377 1382 1381
f 1378 1379 1383
f 1378 1383 1382
f 1379 1380 1384
f 1379 1384 1383
f 1380 1377 1381
f 1380 1381 1384
v 2.020405 3.990014 1.848059
v 2.059635 4.017746 1.836143
v 2.066986 3.990014 1.795808
v 2.027756 3.962282 1.807724
v 1.496380 4.530575 1.380896
v 1.535610 4.558307 1.368980
v 1.542962 4.530575 1.328645
v 1.503732 4.502843 1.340561
f 1385 1386 1390
f 1385 1390 1389
f 1386 1387 1391
f 1386 1391 1390
f 1387 1388 1392
f 1387 1392 1391
f 1388 1385 1389
f 1388 1389 1392
v 1.729821 3.990014 0.952330
v 1.768749 4.013938 0.933297
v 1.762489 3.990014 0.890420
v 1.723561 3.966090 0.909453
v 1.282089 4.530575 0.716080
v 1.321017 4.554499 0.697047
v 1.314757 4.530575 0.654170
v 1.275829 4.506651 0.673203
f 1393 1394 1398
f 1393 1398 1397
f 1394 1395 1399
f 1394 1399 1398
f 1395 1396 1400
f 1395 1400 1399
f 1396 1393 1397
f 1396 1397 1400
v 1.448111 3.990014 0.055813
v 1.477457 4.009837 0.021231
v 1.449117 3.990014 -0.014180
v 1.419772 3.970191 0.020402
v 1.076672 4.530575 0.050475
v 1.106017 4.550398 0.015893
v 1.077678 4.530575 -0.019518
v 1.048332 4.510752 0.015064
f 1401 1402 1406
f 1401 1406 1405
f 1402 1403 1407
f 1402 1407 1406
f 1403 1404 1408
f 1403 1408 1407
f 1404 1401 1405
f 1404 1405 1408
v 1.172327 3.990014 -0.851934
v 1.173992 4.009837 -0.897258
v 1.129820 3.990014 -0.907550
v 1.128155 3.970191 -0.862226
v 0.877180 4.530575 -0.626359
v 0.878845 4.550398 -0.671683
v 0.834673 4.530575 -0.681975
v 0.833008 4.510752 -0.636651
f 1409 1410 1414
f 1409 1414 1413
f 1410 1411 1415
f 1410 1415 1414
f 1411 1412 1416
f 1411 1416 1415
f 1412 1409 1413
f 1412 1413 1416
v 0.885093 3.990014 -1.765169
v 0.864577 4.013938 -1.803336
v 0.821973 3.990014 -1.795431
v 0.842489 3.966090 -1.757265
v 0.666239 4.530575 -1.308682
v 0.645723 4.554499 -1.346849
v 0.603118 4.530575 -1.338944
v 0.623634 4.506651 -1.300777
f 1417 1418 1422
f 1417 1422 1421
f 1418 1419 1423
f 1418 1423 1422
f 1419 1420 1424
f 1419 1424 1423
f 1420 1417 1421
f 1420 1421 1424
v 0.590263 3.990014 -2.673751
v 0.560329 4.017746 -2.701767
v 0.521722 3.990014 -2.687966
v 0.551656 3.962282 -2.659950
v 0.447701 4.530575 -1.986352
v 0.417767 4.558307 -2.014367
v 0.379160 4.530575 -2.000567
v 0.409094 4.502843 -1.972551
f 1425 1426 1430
f 1425 1430 1429
f 1426 1427 1431
f 1426 1431 1430
f 1427 1428 1432
f 1427 1432 1431
f 1428 1425 1429
f 1428 1429 1432
v -0.040169 3.990014 -1.974234
v -0.076116 4.013938 -1.998430
v -0.110118 3.990014 -1.971570
v -0.074171 3.966090 -1.947374
v -0.020901 4.530575 -1.468362
v -0.056848 4.554499 -1.492558
v -0.090851 4.530575 -1.465697
v -0.054904 4.506651 -1.441502
f 1433 1434 1438
f 1433 1438 1437
f 1434 1435 1439
f 1434 1439 1438
f 1435 1436 1440
f 1435 1440 1439
f 1436 1433 1437
f 1436 1437 1440
v -1.323960 3.990014 -0.589298
v -1.364044 4.009837 -0.568078
v -1.350872 3.990014 -0.524678
v -1.310787 3.970191 -0.545898
v -0.981033 4.530575 -0.446481
v -1.021117 4.550398 -0.425260
v -1.007945 4.530575 -0.381861
v -0.967860 4.510752 -0.403081
f 1441 1442 1446
f 1441 1446 1445
f 1442 1443 1447
f 1442 1447 1446
f 1443 1444 1448
f 1443 1448 1447
f 1444 1441 1445
f 1444 1445 1448
v -1.971228 3.990014 0.116071
v -1.994024 4.013938 0.152922
v -1.965876 3.990014 0.185866
v -1.943080 3.966090 0.149015
v -1.466471 4.530575 0.077361
v -1.489267 4.554499 0.114212
v -1.461119 4.530575 0.147156
v -1.438323 4.506651 0.110305
f 1449 1450 1454
f 1449 1454 1453
f 1450 1451 1455
f 1450 1455 1454
f 1451 1452 1456
f 1451 1456 1455
f 1452 1449 1453
f 1452 1453 1456
v -2.610668 3.990014 0.825693
v -2.619963 4.017746 0.865625
v -2.588708 3.990014 0.892159
v -2.579413 3.962282 0.852227
v -1.944081 4.530575 0.605455
v -1.953377 4.558307 0.645387
v -1.922121 4.530575 0.671921
v -1.912826 4.502843 0.631989
f 1457 1458 1462
f 1457 1462 1461
f 1458 1459 1463
f 1458 1463 1462
f 1459 1460 1464
f 1459 1464 1463
f 1460 1457 1461
f 1460 1461 1464
v -1.689652 3.990014 1.021904
v -1.692633 4.013938 1.065133
v -1.652370 3.990014 1.081150
v -1.649390 3.966090 1.037921
v -1.261188 4.530575 0.752282
v -1.264169 4.554499 0.795511
v -1.223906 4.530575 0.811528
v -1.220925 4.506651 0.768299
f 1465 1466 1470
f 1465 1470 1469
f 1466 1467 1471
f 1466 1471 1470
f 1467 1468 1472
f 1467 1472 1471
f 1468 1465 1469
f 1468 1469 1472
v -0.772391 3.990014 1.226195
v -0.757115 4.009837 1.268900
v -0.712278 3.990014 1.262062
v -0.727555 3.970191 1.219358
v -0.582049 4.530575 0.907188
v -0.566773 4.550398 0.949892
v -0.521936 4.530575 0.943055
v -0.537212 4.510752 0.900350
f 1473 1474 1478
f 1473 1478 1477
f 1474 1475 1479
f 1474 1479 1478
f 1475 1476 1480
f 1475 1480 1479
f 1476 1473 1477
f 1476 1477 1480
v 0.151633 3.990014 1.441232
v 0.190052 4.009837 1.465336
v 0.221051 3.990014 1.432228
v 0.182632 3.970191 1.408124
v 0.103853 4.530575 1.072840
v 0.142272 4.550398 1.096944
v 0.173271 4.530575 1.063836
v 0.134852 4.510752 1.039732
f 1481 1482 1486
f 1481 1486 1485
f 1482 1483 1487
f 1482 1487 1486
f 1483 1484 1488
f 1483 1488 1487
f 1484 1481 1485
f 1484 1485 1488
v 1.086135 3.990014 1.649098
v 1.129446 4.013938 1.650414
v 1.143903 3.990014 1.609565
v 1.100591 3.966090 1.608249
v 0.800233 4.530575 1.231321
v 0.843544 4.554499 1.232637
v 0.858001 4.530575 1.191788
v 0.814689 4.506651 1.190472
f 1489 1490 1494
f 1489 1494 1493
f 1490 1491 1495
f 1490 1495 1494
f 1491 1492 1496
f 1491 1496 1495
f 1492 1489 1493
f 1492 1493 1496
v 1.519671 4.530575 1.389771
v 1.554671 4.530575 1.354771
v 1.519671 4.530575 1.319771
v 1.484671 4.530575 1.354771
v 1.519671 5.155302 1.389771
v 1.554671 5.155302 1.354771
v 1.519671 5.155302 1.319771
v 1.484671 5.155302 1.354771
f 1497 1498 1502
f 1497 1502 1501
f 1498 1499 1503
f 1498 1503 1502
f 1499 1500 1504
f 1499 1504 1503
f 1500 1497 1501
f 1500 1501 1504
v 1.298423 4.530575 0.720125
v 1.333423 4.530575 0.685125
v 1.298423 4.530575 0.650125
v 1.263423 4.530575 0.685125
v 1.298423 5.155302 0.720125
v 1.333423 5.155302 0.685125
v 1.298423 5.155302 0.650125
v 1.263423 5.155302 0.685125
f 1505 1506 1510
f 1505 1510 1509
f 1506 1507 1511
f 1506 1511 1510
f 1507 1508 1512
f 1507 1512 1511
f 1508 1505 1509
f 1508 1509 1512
v 1.077175 4.530575 0.050479
v 1.112175 4.530575 0.015479
v 1.077175 4.530575 -0.019521
v 1.042175 4.530575 0.015479
v 1.077175 5.155302 0.050479
v 1.112175 5.155302 0.015479
v 1.077175 5.155302 -0.019521
v 1.042175 5.155302 0.015479
f 1513 1514 1518
f 1513 1518 1517
f 1514 1515 1519
f 1514 1519 1518
f 1515 1516 1520
f 1515 1520 1519
f 1516 1513 1517
f 1516 1517 1520
v 0.855927 4.530575 -0.619167
v 0.890927 4.530575 -0.654167
v 0.855927 4.530575 -0.689167
v 0.820927 4.530575 -0.654167
v 0.855927 5.155302 -0.619167
v 0.890927 5.155302 -0.654167
v 0.855927 5.155302 -0.689167
v 0.820927 5.155302 -0.654167
f 1521 1522 1526
f 1521 1526 1525
f 1522 1523 1527
f 1522 1527 1526
f 1523 1524 1528
f 1523 1528 1527
f 1524 1521 1525
f 1524 1525 1528
v 0.634679 4.530575 -1.288813
v 0.669679 4.530575 -1.323813
v 0.634679 4.530575 -1.358813
v 0.599679 4.530575 -1.323813
v 0.634679 5.155302 -1.288813
v 0.669679 5.155302 -1.323813
v 0.634679 5.155302 -1.358813
v 0.599679 5.155302 -1.323813
f 1529 1530 1534
f 1529 1534 1533
f 1530 1531 1535
f 1530 1535 1534
f 1531 1532 1536
f 1531 1536 1535
f 1532 1529 1533
f 1532 1533 1536
v 0.413430 4.530575 -1.958459
v 0.448430 4.530575 -1.993459
v 0.413430 4.530575 -2.028459
v 0.378430 4.530575 -1.993459
v 0.413430 5.155302 -1.958459
v 0.448430 5.155302 -1.993459
v 0.413430 5.155302 -2.028459
v 0.378430 5.155302 -1.993459
f 1537 1538 1542
f 1537 1542 1541
f 1538 1539 1543
f 1538 1543 1542
f 1539 1540 1544
f 1539 1544 1543
f 1540 1537 1541
f 1540 1541 1544
v -0.055876 4.530575 -1.432030
v -0.020876 4.530575 -1.467030
v -0.055876 4.530575 -1.502030
v -0.090876 4.530575 -1.467030
v -0.055876 5.155302 -1.432030
v -0.020876 5.155302 -1.467030
v -0.055876 5.155302 -1.502030
v -0.090876 5.155302 -1.467030
f 1545 1546 1550
f 1545 1550 1549
f 1546 1547 1551
f 1546 1551 1550
f 1547 1548 1552
f 1547 1552 1551
f 1548 1545 1549
f 1548 1549 1552
v -0.525182 4.530575 -0.905600
v -0.490182 4.530575 -0.940600
v -0.525182 4.530575 -0.975600
v -0.560182 4.530575 -0.940600
v -0.525182 5.155302 -0.905600
v -0.490182 5.155302 -0.940600
v -0.525182 5.155302 -0.975600
v -0.560182 5.155302 -0.940600
f 1553 1554 1558
f 1553 1558 1557
f 1554 1555 1559
f 1554 1559 1558
f 1555 1556 1560
f 1555 1560 1559
f 1556 1553 1557
f 1556 1557 1560
v -0.994489 4.530575 -0.379171
v -0.959489 4.530575 -0.414171
v -0.994489 4.530575 -0.449171
v -1.029489 4.530575 -0.414171
v -0.994489 5.155302 -0.379171
v -0.959489 5.155302 -0.414171
v -0.994489 5.155302 -0.449171
v -1.029489 5.155302 -0.414171
f 1561 1562 1566
f 1561 1566 1565
f 1562 1563 1567
f 1562 1567 1566
f 1563 1564 1568
f 1563 1568 1567
f 1564 1561 1565
f 1564 1565 1568
v -1.463795 4.530575 0.147259
v -1.428795 4.530575 0.112259
v -1.463795 4.530575 0.077259
v -1.498795 4.530575 0.112259
v -1.463795 5.155302 0.147259
v -1.428795 5.155302 0.112259
v -1.463795 5.155302 0.077259
v -1.498795 5.155302 0.112259
f 1569 1570 1574
f 1569 1574 1573
f 1570 1571 1575
f 1570 1575 1574
f 1571 1572 1576
f 1571 1576 1575
f 1572 1569 1573
f 1572 1573 1576
v -1.933101 4.530575 0.673688
v -1.898101 4.530575 0.638688
v -1.933101 4.530575 0.603688
v -1.968101 4.530575 0.638688
v -1.933101 5.155302 0.673688
v -1.898101 5.155302 0.638688
v -1.933101 5.155302 0.603688
v -1.968101 5.155302 0.638688
f 1577 1578 1582
f 1577 1582 1581
f 1578 1579 1583
f 1578 1583 1582
f 1579 1580 1584
f 1579 1584 1583
f 1580 1577 1581
f 1580 1581 1584
v -1.242547 4.530575 0.816905
v -1.207547 4.530575 0.781905
v -1.242547 4.530575 0.746905
v -1.277547 4.530575 0.781905
v -1.242547 5.155302 0.816905
v -1.207547 5.155302 0.781905
v -1.242547 5.155302 0.746905
v -1.277547 5.155302 0.781905
f 1585 1586 1590
f 1585 1590 1589
f 1586 1587 1591
f 1586 1591 1590
f 1587 1588 1592
f 1587 1592 1591
f 1588 1585 1589
f 1588 1589 1592
v -0.551992 4.530575 0.960121
v -0.516992 4.530575 0.925121
v -0.551992 4.530575 0.890121
v -0.586992 4.530575 0.925121
v -0.551992 5.155302 0.960121
v -0.516992 5.155302 0.925121
v -0.551992 5.155302 0.890121
v -0.586992 5.155302 0.925121
f 1593 1594 1598
f 1593 1598 1597
f 1594 1595 1599
f 1594 1599 1598
f 1595 1596 1600
f 1595 1600 1599
f 1596 1593 1597
f 1596 1597 1600
v 0.138562 4.530575 1.103338
v 0.173562 4.530575 1.068338
v 0.138562 4.530575 1.033338
v 0.103562 4.530575 1.068338
v 0.138562 5.155302 1.103338
v 0.173562 5.155302 1.068338
v 0.138562 5.155302 1.033338
v 0.103562 5.155302 1.068338
f 1601 1602 1606
f 1601 1606 1605
f 1602 1603 1607
f 1602 1607 1606
f 1603 1604 1608
f 1603 1608 1607
f 1604 1601 1605
f 1604 1605 1608
v 0.829117 4.530575 1.246554
v 0.864117 4.530575 1.211554
v 0.829117 4.530575 1.176554
v 0.794117 4.530575 1.211554
v 0.829117 5.155302 1.246554
v 0.864117 5.155302 1.211554
v 0.829117 5.155302 1.176554
v 0.794117 5.155302 1.211554
f 1609 1610 1614
f 1609 1614 1613
f 1610 1611 1615
f 1610 1615 1614
f 1611 1612 1616
f 1611 1616 1615
f 1612 1609 1613
f 1612 1613 1616
v 1.496380 5.155302 1.380896
v 1.539592 5.177946 1.372530
v 1.542962 5.155302 1.328645
v 1.499750 5.132657 1.337011
v 1.129563 5.734474 1.053883
v 1.172775 5.757118 1.045516
v 1.176145 5.734474 1.001632
v 1.132933 5.711830 1.009998
f 1617 1618 1622
f 1617 1622 1621
f 1618 1619 1623
f 1618 1623 1622
f 1619 1620 1624
f 1619 1624 1623
f 1620 1617 1621
f 1620 1621 1624
v 1.282089 5.155302 0.716080
v 1.324828 5.173568 0.699057
v 1.314757 5.155302 0.654170
v 1.272018 5.137035 0.671192
v 0.968677 5.734474 0.550705
v 1.011415 5.752741 0.533682
v 1.001344 5.734474 0.488795
v 0.958606 5.716207 0.505817
f 1625 1626 1630
f 1625 1630 1629
f 1626 1627 1631
f 1626 1631 1630
f 1627 1628 1632
f 1627 1632 1631
f 1628 1625 1629
f 1628 1629 1632
v 1.077175 5.155527 0.050478
v 1.109105 5.169635 0.015386
v 1.077175 5.155076 -0.019520
v 1.045245 5.140968 0.015571
v 0.817167 5.734700 0.046742
v 0.849097 5.748808 0.011650
v 0.817167 5.734248 -0.023257
v 0.785237 5.720140 0.011835
f 1633 1634 1638
f 1633 1638 1637
f 1634 1635 1639
f 1634 1639 1638
f 1635 1636 1640
f 1635 1640 1639
f 1636 1633 1637
f 1636 1637 1640
v 0.855927 5.146095 -0.620400
v 0.889021 5.166290 -0.651171
v 0.855927 5.164508 -0.687935
v 0.822832 5.144313 -0.657163
v 0.649324 5.725268 -0.462497
v 0.682419 5.745463 -0.493269
v 0.649324 5.743680 -0.530032
v 0.616229 5.723485 -0.499261
f 1641 1642 1646
f 1641 1646 1645
f 1642 1643 1647
f 1642 1647 1646
f 1643 1644 1648
f 1643 1648 1647
f 1644 1641 1645
f 1644 1645 1648
v 0.666239 5.155302 -1.308682
v 0.647585 5.173568 -1.350734
v 0.603118 5.155302 -1.338944
v 0.621772 5.137035 -1.296892
v 0.513041 5.734474 -0.989141
v 0.494387 5.752741 -1.031193
v 0.449920 5.734474 -1.019403
v 0.468573 5.716207 -0.977351
f 1649 1650 1654
f 1649 1654 1653
f 1650 1651 1655
f 1650 1655 1654
f 1651 1652 1656
f 1651 1656 1655
f 1652 1649 1653
f 1652 1653 1656
v 0.447701 5.155302 -1.986352
v 0.418850 5.177946 -2.019591
v 0.379160 5.155302 -2.000567
v 0.408011 5.132657 -1.967327
v 0.347908 5.734474 -1.505172
v 0.319056 5.757118 -1.538411
v 0.279366 5.734474 -1.519387
v 0.308217 5.711830 -1.486148
f 1657 1658 1662
f 1657 1662 1661
f 1658 1659 1663
f 1658 1663 1662
f 1659 1660 1664
f 1659 1664 1663
f 1660 1657 1661
f 1660 1661 1664
v -0.020901 5.155302 -1.468362
v -0.057012 5.173568 -1.496863
v -0.090851 5.155302 -1.465697
v -0.054740 5.137035 -1.437196
v -0.007414 5.734474 -1.114251
v -0.043525 5.752741 -1.142752
v -0.077363 5.734474 -1.111587
v -0.041252 5.716207 -1.083086
f 1665 1666 1670
f 1665 1670 1669
f 1666 1667 1671
f 1666 1671 1670
f 1667 1668 1672
f 1667 1672 1671
f 1668 1665 1669
f 1668 1669 1672
v -0.525182 5.142528 -0.908014
v -0.490887 5.148795 -0.943151
v -0.525182 5.168075 -0.973186
v -0.559477 5.161808 -0.938049
v -0.398414 5.721700 -0.680973
v -0.364119 5.727967 -0.716109
v -0.398414 5.747248 -0.746144
v -0.432709 5.740981 -0.711008
f 1673 1674 1678
f 1673 1678 1677
f 1674 1675 1679
f 1674 1679 1678
f 1675 1676 1680
f 1675 1680 1679
f 1676 1673 1677
f 1676 1677 1680
v -0.994489 5.149348 -0.379681
v -0.962087 5.142261 -0.416422
v -0.994489 5.161255 -0.448661
v -1.026890 5.168342 -0.411920
v -0.754440 5.728521 -0.279708
v -0.722038 5.721433 -0.316449
v -0.754440 5.740427 -0.348688
v -0.786841 5.747515 -0.311947
f 1681 1682 1686
f 1681 1686 1685
f 1682 1683 1687
f 1682 1687 1686
f 1683 1684 1688
f 1683 1688 1687
f 1684 1681 1685
f 1684 1685 1688
v -1.466471 5.155302 0.077361
v -1.493563 5.173568 0.114542
v -1.461119 5.155302 0.147156
v -1.434027 5.137035 0.109976
v -1.113141 5.734474 0.050264
v -1.140233 5.752741 0.087445
v -1.107789 5.734474 0.120059
v -1.080698 5.716207 0.082879
f 1689 1690 1694
f 1689 1694 1693
f 1690 1691 1695
f 1690 1695 1694
f 1691 1692 1696
f 1691 1696 1695
f 1692 1689 1693
f 1692 1693 1696
v -1.944081 5.155302 0.605455
v -1.958442 5.177946 0.647061
v -1.922121 5.155302 0.671921
v -1.907761 5.132657 0.630316
v -1.477471 5.734474 0.451289
v -1.491831 5.757118 0.492895
v -1.455511 5.734474 0.517755
v -1.441150 5.711830 0.476150
f 1697 1698 1702
f 1697 1702 1701
f 1698 1699 1703
f 1698 1703 1702
f 1699 1700 1704
f 1699 1704 1703
f 1700 1697 1701
f 1700 1701 1704
v -1.261188 5.155302 0.752282
v -1.267815 5.173568 0.797806
v -1.223906 5.155302 0.811528
v -1.217279 5.137035 0.766004
v -0.961263 5.734474 0.563546
v -0.967890 5.752741 0.609070
v -0.923981 5.734474 0.622792
v -0.917353 5.716207 0.577268
f 1705 1706 1710
f 1705 1710 1709
f 1706 1707 1711
f 1706 1711 1710
f 1707 1708 1712
f 1707 1712 1711
f 1708 1705 1709
f 1708 1709 1712
v -0.551992 5.167893 0.957778
v -0.517772 5.148448 0.927764
v -0.551992 5.142710 0.892465
v -0.586213 5.162155 0.922479
v -0.418753 5.747065 0.734473
v -0.384532 5.727620 0.704459
v -0.418753 5.721883 0.669159
v -0.452973 5.741328 0.699174
f 1713 1714 1718
f 1713 1718 1717
f 1714 1715 1719
f 1714 1719 1718
f 1715 1716 1720
f 1715 1720 1719
f 1716 1713 1717
f 1716 1717 1720
v 0.138562 5.169538 1.100312
v 0.173513 5.156986 1.067588
v 0.138562 5.141065 1.036364
v 0.103611 5.153617 1.069088
v 0.105116 5.748710 0.842437
v 0.140067 5.736158 0.809713
v 0.105116 5.720238 0.778489
v 0.070165 5.732790 0.811213
f 1721 1722 1726
f 1721 1726 1725
f 1722 1723 1727
f 1722 1727 1726
f 1723 1724 1728
f 1723 1728 1727
f 1724 1721 1725
f 1724 1725 1728
v 0.800233 5.155302 1.231321
v 0.845977 5.173568 1.236192
v 0.858001 5.155302 1.191788
v 0.812256 5.137035 1.186916
v 0.600101 5.734474 0.938877
v 0.645846 5.752741 0.943748
v 0.657869 5.734474 0.899344
v 0.612124 5.716207 0.894472
f 1729 1730 1734
f 1729 1734 1733
f 1730 1731 1735
f 1730 1735 1734
f 1731 1732 1736
f 1731 1736 1735
f 1732 1729 1733
f 1732 1733 1736
v 1.129563 5.734474 1.053883
v 1.165444 5.765142 1.038981
v 1.176145 5.734474 1.001632
v 1.140263 5.703806 1.016533
v 0.553136 6.159201 0.540004
v 0.589017 6.189868 0.525103
v 0.599718 6.159201 0.487753
v 0.563837 6.128533 0.502654
f 1737 1738 1742
f 1737 1742 1741
f 1738 1739 1743
f 1738 1743 1742
f 1739 1740 1744
f 1739 1744 1743
f 1740 1737 1741
f 1740 1741 1744
v 0.968677 5.734474 0.550705
v 1.003783 5.762303 0.529655
v 1.001344 5.734474 0.488795
v 0.966238 5.706645 0.509844
v 0.476172 6.159201 0.290830
v 0.511278 6.187030 0.269780
v 0.508839 6.159201 0.228920
v 0.473733 6.131371 0.249969
f 1745 1746 1750
f 1745 1750 1749
f 1746 1747 1751
f 1746 1751 1750
f 1747 1748 1752
f 1747 1752 1751
f 1748 1745 1749
f 1748 1749 1752
v 0.816664 5.734474 0.046739
v 0.842387 5.758740 0.012105
v 0.817670 5.734474 -0.023254
v 0.791947 5.710208 0.011380
v 0.408081 6.159201 0.040868
v 0.433803 6.183467 0.006234
v 0.409086 6.159201 -0.029125
v 0.383364 6.134934 0.005509
f 1753 1754 1758
f 1753 1758 1757
f 1754 1755 1759
f 1754 1759 1758
f 1755 1756 1760
f 1755 1760 1759
f 1756 1753 1757
f 1756 1757 1760
v 0.670577 5.734474 -0.468456
v 0.669363 5.758740 -0.511581
v 0.628070 5.734474 -0.524073
v 0.629284 5.710208 -0.480949
v 0.345915 6.159201 -0.220324
v 0.344701 6.183467 -0.263448
v 0.303409 6.159201 -0.275941
v 0.304622 6.134934 -0.232817
f 1761 1762 1766
f 1761 1766 1765
f 1762 1763 1767
f 1762 1767 1766
f 1763 1764 1768
f 1763 1768 1767
f 1764 1761 1765
f 1764 1765 1768
v 0.513041 5.734474 -0.989141
v 0.490656 5.762303 -1.023412
v 0.449920 5.734474 -1.019403
v 0.472304 5.706645 -0.985132
v 0.272300 6.159201 -0.487005
v 0.249916 6.187030 -0.521276
v 0.209180 6.159201 -0.517267
v 0.231564 6.131371 -0.482996
f 1769 1770 1774
f 1769 1774 1773
f 1770 1771 1775
f 1770 1775 1774
f 1771 1772 1776
f 1771 1776 1775
f 1772 1769 1773
f 1772 1773 1776
v 0.347908 5.734474 -1.505172
v 0.317062 5.765142 -1.528795
v 0.279366 5.734474 -1.519387
v 0.310212 5.703806 -1.495764
v 0.191089 6.159201 -0.749032
v 0.160244 6.189868 -0.772655
v 0.122548 6.159201 -0.763247
v 0.153393 6.128533 -0.739624
f 1777 1778 1782
f 1777 1782 1781
f 1778 1779 1783
f 1778 1783 1782
f 1779 1780 1784
f 1779 1784 1783
f 1780 1777 1781
f 1780 1781 1784
v -0.007414 5.734474 -1.114251
v -0.043197 5.762303 -1.134129
v -0.077363 5.734474 -1.111587
v -0.041581 5.706645 -1.091709
v 0.013780 6.159201 -0.557792
v -0.022002 6.187030 -0.577670
v -0.056169 6.159201 -0.555127
v -0.020386 6.131371 -0.535249
f 1785 1786 1790
f 1785 1790 1789
f 1786 1787 1791
f 1786 1791 1790
f 1787 1788 1792
f 1787 1792 1791
f 1788 1785 1789
f 1788 1789 1792
v -0.367855 5.734474 -0.730621
v -0.410710 5.758740 -0.735581
v -0.428973 5.734474 -0.696496
v -0.386118 5.710208 -0.691537
v -0.168648 6.159201 -0.373842
v -0.211503 6.183467 -0.378801
v -0.229766 6.159201 -0.339717
v -0.186911 6.134934 -0.334757
f 1793 1794 1798
f 1793 1798 1797
f 1794 1795 1799
f 1794 1799 1798
f 1795 1796 1800
f 1795 1800 1799
f 1796 1793 1797
f 1796 1797 1800
v -0.740984 5.734474 -0.346508
v -0.777723 5.758740 -0.323895
v -0.767896 5.734474 -0.281888
v -0.731156 5.710208 -0.304502
v -0.363764 6.159201 -0.189409
v -0.400504 6.183467 -0.166796
v -0.390676 6.159201 -0.124789
v -0.353936 6.134934 -0.147402
f 1801 1802 1806
f 1801 1806 1805
f 1802 1803 1807
f 1802 1807 1806
f 1803 1804 1808
f 1803 1808 1807
f 1804 1801 1805
f 1804 1805 1808
v -1.113141 5.734474 0.050264
v -1.131629 5.762303 0.086785
v -1.107789 5.734474 0.120059
v -1.089302 5.706645 0.083539
v -0.557909 6.159201 0.007683
v -0.576396 6.187030 0.044204
v -0.552556 6.159201 0.077478
v -0.534069 6.131371 0.040958
f 1809 1810 1814
f 1809 1814 1813
f 1810 1811 1815
f 1810 1815 1814
f 1811 1812 1816
f 1811 1816 1815
f 1812 1809 1813
f 1812 1813 1816
v -1.477471 5.734474 0.451289
v -1.482506 5.765142 0.489814
v -1.455511 5.734474 0.517755
v -1.450475 5.703806 0.479231
v -0.744225 6.159201 0.209028
v -0.749261 6.189868 0.247553
v -0.722265 6.159201 0.275494
v -0.717230 6.128533 0.236970
f 1817 1818 1822
f 1817 1822 1821
f 1818 1819 1823
f 1818 1823 1822
f 1819 1820 1824
f 1819 1824 1823
f 1820 1817 1821
f 1820 1821 1824
v -0.961263 5.734474 0.563546
v -0.960587 5.762303 0.604474
v -0.923981 5.734474 0.622792
v -0.924657 5.706645 0.581864
v -0.489952 6.159201 0.266962
v -0.489276 6.187030 0.307889
v -0.452670 6.159201 0.326207
v -0.453346 6.131371 0.285280
f 1825 1826 1830
f 1825 1830 1829
f 1826 1827 1831
f 1826 1831 1830
f 1827 1828 1832
f 1827 1832 1831
f 1828 1825 1829
f 1828 1829 1832
v -0.448809 5.734474 0.683882
v -0.431677 5.758740 0.723476
v -0.388697 5.734474 0.719750
v -0.405829 5.710208 0.680157
v -0.239433 6.159201 0.332974
v -0.222300 6.183467 0.372568
v -0.179320 6.159201 0.368842
v -0.196453 6.134934 0.329248
f 1833 1834 1838
f 1833 1838 1837
f 1834 1835 1839
f 1834 1839 1838
f 1835 1836 1840
f 1835 1840 1839
f 1836 1833 1837
f 1836 1837 1840
v 0.070407 5.734474 0.814965
v 0.108360 5.758740 0.835476
v 0.139825 5.734474 0.805961
v 0.101872 5.710208 0.785450
v 0.017849 6.159201 0.409733
v 0.055802 6.183467 0.430244
v 0.087267 6.159201 0.400730
v 0.049314 6.134934 0.380219
f 1841 1842 1846
f 1841 1846 1845
f 1842 1843 1847
f 1842 1847 1846
f 1843 1844 1848
f 1843 1848 1847
f 1844 1841 1845
f 1844 1845 1848
v 0.600101 5.734474 0.938877
v 0.640972 5.762303 0.936627
v 0.657869 5.734474 0.899344
v 0.616998 5.706645 0.901593
v 0.285608 6.159201 0.479322
v 0.326480 6.187030 0.477072
v 0.343376 6.159201 0.439789
v 0.302505 6.131371 0.442038
f 1849 1850 1854
f 1849 1854 1853
f 1850 1851 1855
f 1850 1855 1854
f 1851 1852 1856
f 1851 1856 1855
f 1852 1849 1853
f 1852 1853 1856
v 0.553136 6.159201 0.540004
v 0.582763 6.193156 0.519527
v 0.599718 6.159201 0.487753
v 0.570091 6.125246 0.508230
v -0.023291 6.352258 0.026126
v 0.006336 6.386213 0.005649
v 0.023291 6.352258 -0.026126
v -0.006336 6.318303 -0.005649
f 1857 1858 1862
f 1857 1862 1861
f 1858 1859 1863
f 1858 1863 1862
f 1859 1860 1864
f 1859 1864 1863
f 1860 1857 1861
f 1860 1861 1864
v 0.476172 6.159201 0.290830
v 0.502645 6.192270 0.265225
v 0.508839 6.159201 0.228920
v 0.482366 6.126131 0.254525
v -0.016334 6.352258 0.030955
v 0.010140 6.385327 0.005350
v 0.016334 6.352258 -0.030955
v -0.010140 6.319189 -0.005350
f 1865 1866 1870
f 1865 1870 1869
f 1866 1867 1871
f 1866 1871 1870
f 1867 1868 1872
f 1867 1872 1871
f 1868 1865 1869
f 1868 1869 1872
v 0.408081 6.159201 0.040868
v 0.423533 6.190846 0.006086
v 0.409086 6.159201 -0.029125
v 0.393634 6.127555 0.005656
v -0.000503 6.352258 0.034996
v 0.014950 6.383904 0.000215
v 0.000503 6.352258 -0.034996
v -0.014950 6.320612 -0.000215
f 1873 1874 1878
f 1873 1878 1877
f 1874 1875 1879
f 1874 1879 1878
f 1875 1876 1880
f 1875 1880 1879
f 1876 1873 1877
f 1876 1877 1880
v 0.345915 6.159201 -0.220324
v 0.336541 6.190846 -0.257211
v 0.303409 6.159201 -0.275941
v 0.312783 6.127555 -0.239053
v 0.021253 6.352258 0.027808
v 0.011879 6.383904 -0.009079
v -0.021253 6.352258 -0.027808
v -0.011879 6.320612 0.009079
f 1881 1882 1886
f 1881 1886 1885
f 1882 1883 1887
f 1882 1887 1886
f 1883 1884 1888
f 1883 1888 1887
f 1884 1881 1885
f 1884 1885 1888
v 0.272300 6.159201 -0.487005
v 0.245696 6.192270 -0.512474
v 0.209180 6.159201 -0.517267
v 0.235784 6.126131 -0.491798
v 0.031560 6.352258 0.015131
v 0.004956 6.385327 -0.010338
v -0.031560 6.352258 -0.015131
v -0.004956 6.319189 0.010338
f 1889 1890 1894
f 1889 1894 1893
f 1890 1891 1895
f 1890 1895 1894
f 1891 1892 1896
f 1891 1896 1895
f 1892 1889 1893
f 1892 1893 1896
v 0.191089 6.159201 -0.749032
v 0.158542 6.193156 -0.764452
v 0.122548 6.159201 -0.763247
v 0.155095 6.125246 -0.747828
v 0.034271 6.352258 0.007108
v 0.001724 6.386213 -0.008312
v -0.034271 6.352258 -0.007108
v -0.001724 6.318303 0.008312
f 1897 1898 1902
f 1897 1902 1901
f 1898 1899 1903
f 1898 1903 1902
f 1899 1900 1904
f 1899 1904 1903
f 1900 1897 1901
f 1900 1901 1904
v 0.013780 6.159201 -0.557792
v -0.021631 6.192270 -0.567916
v -0.056169 6.159201 -0.555127
v -0.020758 6.126131 -0.545003
v 0.034975 6.352258 -0.001332
v -0.000436 6.385327 -0.011456
v -0.034975 6.352258 0.001332
v 0.000436 6.319189 0.011456
f 1905 1906 1910
f 1905 1910 1909
f 1906 1907 1911
f 1906 1911 1910
f 1907 1908 1912
f 1907 1912 1911
f 1908 1905 1909
f 1908 1909 1912
v -0.168648 6.159201 -0.373842
v -0.206496 6.190846 -0.369834
v -0.229766 6.159201 -0.339717
v -0.191918 6.127555 -0.343725
v 0.030559 6.352258 -0.017063
v -0.007289 6.383904 -0.013054
v -0.030559 6.352258 0.017063
v 0.007289 6.320612 0.013054
f 1913 1914 1918
f 1913 1918 1917
f 1914 1915 1919
f 1914 1919 1918
f 1915 1916 1920
f 1915 1920 1919
f 1916 1913 1917
f 1916 1917 1920
v -0.557909 6.159201 0.007683
v -0.566664 6.192270 0.043458
v -0.552556 6.159201 0.077478
v -0.543802 6.126131 0.041704
v -0.002676 6.352258 -0.034898
v -0.011431 6.385327 0.000877
v 0.002676 6.352258 0.034898
v 0.011431 6.319189 -0.000877
f 1921 1922 1926
f 1921 1926 1925
f 1922 1923 1927
f 1922 1927 1926
f 1923 1924 1928
f 1923 1928 1927
f 1924 1921 1925
f 1924 1925 1928
v -0.744225 6.159201 0.209028
v -0.741306 6.193156 0.244924
v -0.722265 6.159201 0.275494
v -0.725185 6.125246 0.239598
v -0.010980 6.352258 -0.033233
v -0.008060 6.386213 0.002663
v 0.010980 6.352258 0.033233
v 0.008060 6.318303 -0.002663
f 1929 1930 1934
f 1929 1934 1933
f 1930 1931 1935
f 1930 1935 1934
f 1931 1932 1936
f 1931 1936 1935
f 1932 1929 1933
f 1932 1933 1936
v -0.489952 6.159201 0.266962
v -0.481014 6.192270 0.302691
v -0.452670 6.159201 0.326207
v -0.461608 6.126131 0.290479
v -0.018641 6.352258 -0.029623
v -0.009703 6.385327 0.006106
v 0.018641 6.352258 0.029623
v 0.009703 6.319189 -0.006106
f 1937 1938 1942
f 1937 1942 1941
f 1938 1939 1943
f 1938 1943 1942
f 1939 1940 1944
f 1939 1944 1943
f 1940 1937 1941
f 1940 1941 1944
v -0.239433 6.159201 0.332974
v -0.217037 6.190846 0.363747
v -0.179320 6.159201 0.368842
v -0.201716 6.127555 0.338069
v -0.030056 6.352258 -0.017934
v -0.007661 6.383904 0.012839
v 0.030056 6.352258 0.017934
v 0.007661 6.320612 -0.012839
f 1945 1946 1950
f 1945 1950 1949
f 1946 1947 1951
f 1946 1951 1950
f 1947 1948 1952
f 1947 1952 1951
f 1948 1945 1949
f 1948 1949 1952
v 0.017849 6.159201 0.409733
v 0.054481 6.190846 0.420059
v 0.087267 6.159201 0.400730
v 0.050635 6.127555 0.390404
v -0.034709 6.352258 0.004502
v 0.001923 6.383904 0.014827
v 0.034709 6.352258 -0.004502
v -0.001923 6.320612 -0.014827
f 1953 1954 1958
f 1953 1958 1957
f 1954 1955 1959
f 1954 1959 1958
f 1955 1956 1960
f 1955 1960 1959
f 1956 1953 1957
f 1956 1957 1960
v 0.285608 6.159201 0.479322
v 0.320967 6.192270 0.469016
v 0.343376 6.159201 0.439789
v 0.308018 6.126131 0.450094
v -0.028884 6.352258 0.019767
v 0.006475 6.385327 0.009461
v 0.028884 6.352258 -0.019767
v -0.006475 6.319189 -0.009461
f 1961 1962 1966
f 1961 1966 1965
f 1962 1963 1967
f 1962 1967 1966
f 1963 1964 1968
f 1963 1968 1967
f 1964 1961 1965
f 1964 1965 1968
v 0.000000 6.352258 0.030000
v 0.030000 6.352258 0.000000
v 0.000000 6.352258 -0.030000
v -0.030000 6.352258 -0.000000
v 0.000000 7.503272 0.030000
v 0.030000 7.503272 0.000000
v 0.000000 7.503272 -0.030000
v -0.030000 7.503272 -0.000000
f 1969 1970 1974
f 1969 1974 1973
f 1970 1971 1975
f 1970 1975 1974
f 1971 1972 1976
f 1971 1976 1975
f 1972 1969 1973
f 1972 1973 1976
