o mesh
v 2.256666 3.445000 -1.164308
v 2.187782 3.445000 -1.421386
v 1.999588 3.445000 -1.609580
v 1.742510 3.445000 -1.678464
v 1.485431 3.445000 -1.609580
v 1.297237 3.445000 -1.421386
v 1.228353 3.445000 -1.164308
v 1.297237 3.445000 -0.907229
v 1.485431 3.445000 -0.719035
v 1.742510 3.445000 -0.650151
v 1.999588 3.445000 -0.719035
v 2.187782 3.445000 -0.907229
v 1.742510 3.445000 -1.164308
f 13 1 2
f 13 2 3
f 13 3 4
f 13 4 5
f 13 5 6
f 13 6 7
f 13 7 8
f 13 8 9
f 13 9 10
f 13 10 11
f 13 11 12
f 13 12 1
v -0.723820 3.445000 -1.742510
v -0.782834 3.445000 -1.962754
v -0.944064 3.445000 -2.123983
v -1.164308 3.445000 -2.182998
v -1.384552 3.445000 -2.123983
v -1.545782 3.445000 -1.962754
v -1.604796 3.445000 -1.742510
v -1.545782 3.445000 -1.522266
v -1.384552 3.445000 -1.361036
v -1.164308 3.445000 -1.302022
v -0.944064 3.445000 -1.361036
v -0.782834 3.445000 -1.522266
v -1.164308 3.445000 -1.742510
f 26 14 15
f 26 15 16
f 26 16 17
f 26 17 18
f 26 18 19
f 26 19 20
f 26 20 21
f 26 21 22
f 26 22 23
f 26 23 24
f 26 24 25
f 26 25 14
v -1.181907 3.445000 1.164308
v -1.257013 3.445000 0.884006
v -1.462208 3.445000 0.678811
v -1.742510 3.445000 0.603705
v -2.022811 3.445000 0.678811
v -2.228006 3.445000 0.884006
v -2.303113 3.445000 1.164308
v -2.228006 3.445000 1.444609
v -2.022811 3.445000 1.649804
v -1.742510 3.445000 1.724911
v -1.462208 3.445000 1.649804
v -1.257013 3.445000 1.444609
v -1.742510 3.445000 1.164308
f 39 27 28
f 39 28 29
f 39 29 30
f 39 30 31
f 39 31 32
f 39 32 33
f 39 33 34
f 39 34 35
f 39 35 36
f 39 36 37
f 39 37 38
f 39 38 27
v 1.546741 3.445000 1.742510
v 1.495504 3.445000 1.551293
v 1.355524 3.445000 1.411313
v 1.164308 3.445000 1.360077
v 0.973091 3.445000 1.411313
v 0.833111 3.445000 1.551293
v 0.781875 3.445000 1.742510
v 0.833111 3.445000 1.933726
v 0.973091 3.445000 2.073706
v 1.164308 3.445000 2.124943
v 1.355524 3.445000 2.073706
v 1.495504 3.445000 1.933726
v 1.164308 3.445000 1.742510
f 52 40 41
f 52 41 42
f 52 42 43
f 52 43 44
f 52 44 45
f 52 45 46
f 52 46 47
f 52 47 48
f 52 48 49
f 52 49 50
f 52 50 51
f 52 51 40
v 1.675689 6.845000 -1.715077
v 1.604721 6.845000 -1.979933
v 1.410834 6.845000 -2.173821
v 1.145978 6.845000 -2.244788
v 0.881122 6.845000 -2.173821
v 0.687235 6.845000 -1.979933
v 0.616267 6.845000 -1.715077
v 0.687235 6.845000 -1.450222
v 0.881122 6.845000 -1.256334
v 1.145978 6.845000 -1.185366
v 1.410834 6.845000 -1.256334
v 1.604721 6.845000 -1.450222
v 1.145978 6.845000 -1.715077
f 65 53 54
f 65 54 55
f 65 55 56
f 65 56 57
f 65 57 58
f 65 58 59
f 65 59 60
f 65 60 61
f 65 61 62
f 65 62 63
f 65 63 64
f 65 64 53
v -1.223251 6.845000 -1.145978
v -1.289143 6.845000 -1.391891
v -1.469164 6.845000 -1.571912
v -1.715077 6.845000 -1.637805
v -1.960991 6.845000 -1.571912
v -2.141012 6.845000 -1.391891
v -2.206904 6.845000 -1.145978
v -2.141012 6.845000 -0.900065
v -1.960991 6.845000 -0.720044
v -1.715077 6.845000 -0.654151
v -1.469164 6.845000 -0.720044
v -1.289143 6.845000 -0.900065
v -1.715077 6.845000 -1.145978
f 78 66 67
f 78 67 68
f 78 68 69
f 78 69 70
f 78 70 71
f 78 71 72
f 78 72 73
f 78 73 74
f 78 74 75
f 78 75 76
f 78 76 77
f 78 77 66
v -0.556694 6.845000 1.715077
v -0.635643 6.845000 1.420435
v -0.851336 6.845000 1.204742
v -1.145978 6.845000 1.125793
v -1.440620 6.845000 1.204742
v -1.656313 6.845000 1.420435
v -1.735262 6.845000 1.715077
v -1.656313 6.845000 2.009719
v -1.440620 6.845000 2.225412
v -1.145978 6.845000 2.304361
v -0.851336 6.845000 2.225412
v -0.635643 6.845000 2.009719
v -1.145978 6.845000 1.715077
f 91 79 80
f 91 80 81
f 91 81 82
f 91 82 83
f 91 83 84
f 91 84 85
f 91 85 86
f 91 86 87
f 91 87 88
f 91 88 89
f 91 89 90
f 91 90 79
v 2.246024 6.845000 1.145978
v 2.174891 6.845000 0.880505
v 1.980551 6.845000 0.686164
v 1.715077 6.845000 0.615031
v 1.449604 6.845000 0.686164
v 1.255264 6.845000 0.880505
v 1.184130 6.845000 1.145978
v 1.255264 6.845000 1.411451
v 1.449604 6.845000 1.605792
v 1.715077 6.845000 1.676925
v 1.980551 6.845000 1.605792
v 2.174891 6.845000 1.411451
v 1.715077 6.845000 1.145978
f 104 92 93
f 104 93 94
f 104 94 95
f 104 95 96
f 104 96 97
f 104 97 98
f 104 98 99
f 104 99 100
f 104 100 101
f 104 101 102
f 104 102 103
f 104 103 92
