o mesh
v 0.882154 3.382154 -8.956663
v -0.882154 3.382154 -8.956663
v -0.882154 2.600000 -8.956663
v 0.882154 2.600000 -8.956663
f 1 2 3
f 1 3 4
v 0.000000 2.500000 -8.956663
v 0.337586 3.315004 -8.956663
v 0.000000 3.382154 -8.956663
f 5 6 7
v 0.000000 2.500000 -8.956663
v -0.337586 3.315004 -8.956663
v -0.623777 3.123777 -8.956663
f 8 9 10
v 0.000000 2.500000 -8.956663
v -0.815004 2.837586 -8.956663
v -0.882154 2.500000 -8.956663
f 11 12 13
v 0.882154 2.600000 -8.956663
v -0.882154 2.600000 -8.956663
v -0.882154 5.200000 -8.956663
v 0.882154 5.200000 -8.956663
f 14 15 16
f 14 16 17
v -4.242571 0.900000 -7.937291
v -5.709540 0.900000 -6.957094
v -5.709540 2.600000 -6.957094
v -4.242571 2.600000 -7.937291
f 18 19 20
f 18 20 21
v -6.957094 0.900000 -5.709540
v -7.937291 0.900000 -4.242571
v -7.937291 2.600000 -4.242571
v -6.957094 2.600000 -5.709540
f 22 23 24
f 22 24 25
v -8.612463 0.900000 -2.612562
v -8.956663 0.900000 -0.882154
v -8.956663 2.600000 -0.882154
v -8.612463 2.600000 -2.612562
f 26 27 28
f 26 28 29
v -8.612463 2.600000 2.612562
v -7.937291 2.600000 4.242571
v -7.937291 5.200000 4.242571
v -8.612463 5.200000 2.612562
f 30 31 32
f 30 32 33
v -2.612562 2.600000 8.612463
v -0.882154 2.600000 8.956663
v -0.882154 5.200000 8.956663
v -2.612562 5.200000 8.612463
f 34 35 36
f 34 36 37
v -0.882154 2.600000 8.956663
v 0.882154 2.600000 8.956663
v 0.882154 5.200000 8.956663
v -0.882154 5.200000 8.956663
f 38 39 40
f 38 40 41
v 0.882154 0.900000 8.956663
v 2.612562 0.900000 8.612463
v 2.612562 2.600000 8.612463
v 0.882154 2.600000 8.956663
f 42 43 44
f 42 44 45
v 2.612562 0.900000 8.612463
v 4.242571 0.900000 7.937291
v 4.242571 2.600000 7.937291
v 2.612562 2.600000 8.612463
f 46 47 48
f 46 48 49
v 2.612562 2.600000 8.612463
v 4.242571 2.600000 7.937291
v 4.242571 5.200000 7.937291
v 2.612562 5.200000 8.612463
f 50 51 52
f 50 52 53
v 4.242571 0.900000 7.937291
v 5.709540 0.900000 6.957094
v 5.709540 2.600000 6.957094
v 4.242571 2.600000 7.937291
f 54 55 56
f 54 56 57
v 7.937291 0.900000 4.242571
v 8.612463 0.900000 2.612562
v 8.612463 2.600000 2.612562
v 7.937291 2.600000 4.242571
f 58 59 60
f 58 60 61
v 7.937291 2.600000 4.242571
v 8.612463 2.600000 2.612562
v 8.612463 5.200000 2.612562
v 7.937291 5.200000 4.242571
f 62 63 64
f 62 64 65
v 8.612463 2.600000 2.612562
v 8.956663 2.600000 0.882154
v 8.956663 5.200000 0.882154
v 8.612463 5.200000 2.612562
f 66 67 68
f 66 68 69
v 8.956663 2.600000 0.882154
v 8.956663 2.600000 -0.882154
v 8.956663 5.200000 -0.882154
v 8.956663 5.200000 0.882154
f 70 71 72
f 70 72 73
v 8.956663 2.600000 -0.882154
v 8.612463 2.600000 -2.612562
v 8.612463 5.200000 -2.612562
v 8.956663 5.200000 -0.882154
f 74 75 76
f 74 76 77
v 7.937291 2.600000 -4.242571
v 6.957094 2.600000 -5.709540
v 6.957094 5.200000 -5.709540
v 7.937291 5.200000 -4.242571
f 78 79 80
f 78 80 81
v 2.612562 0.900000 -8.612463
v 0.882154 0.900000 -8.956663
v 0.882154 2.600000 -8.956663
v 2.612562 2.600000 -8.612463
f 82 83 84
f 82 84 85
v 2.612562 2.600000 -8.612463
v 0.882154 2.600000 -8.956663
v 0.882154 5.200000 -8.956663
v 2.612562 5.200000 -8.612463
f 86 87 88
f 86 88 89
v 0.882154 5.200000 -8.956663
v -0.882154 5.200000 -8.956663
v -0.820403 7.081000 -8.329696
v 0.820403 7.081000 -8.329696
f 90 91 92
f 90 92 93
v -0.882154 5.200000 -8.956663
v -2.612562 5.200000 -8.612463
v -2.429683 7.081000 -8.009591
v -0.820403 7.081000 -8.329696
f 94 95 96
f 94 96 97
v -4.242571 5.200000 -7.937291
v -5.709540 5.200000 -6.957094
v -5.309872 7.081000 -6.470097
v -3.945591 7.081000 -7.381681
f 98 99 100
f 98 100 101
v -6.957094 5.200000 -5.709540
v -7.937291 5.200000 -4.242571
v -7.381681 7.081000 -3.945591
v -6.470097 7.081000 -5.309872
f 102 103 104
f 102 104 105
v -7.937291 5.200000 4.242571
v -6.957094 5.200000 5.709540
v -6.470097 7.081000 5.309872
v -7.381681 7.081000 3.945591
f 106 107 108
f 106 108 109
v -5.709540 5.200000 6.957094
v -4.242571 5.200000 7.937291
v -3.945591 7.081000 7.381681
v -5.309872 7.081000 6.470097
f 110 111 112
f 110 112 113
v -4.242571 5.200000 7.937291
v -2.612562 5.200000 8.612463
v -2.429683 7.081000 8.009591
v -3.945591 7.081000 7.381681
f 114 115 116
f 114 116 117
v -2.612562 5.200000 8.612463
v -0.882154 5.200000 8.956663
v -0.820403 7.081000 8.329696
v -2.429683 7.081000 8.009591
f 118 119 120
f 118 120 121
v -0.882154 5.200000 8.956663
v 0.882154 5.200000 8.956663
v 0.820403 7.081000 8.329696
v -0.820403 7.081000 8.329696
f 122 123 124
f 122 124 125
v 2.612562 5.200000 8.612463
v 4.242571 5.200000 7.937291
v 3.945591 7.081000 7.381681
v 2.429683 7.081000 8.009591
f 126 127 128
f 126 128 129
v 6.957094 5.200000 5.709540
v 7.937291 5.200000 4.242571
v 7.381681 7.081000 3.945591
v 6.470097 7.081000 5.309872
f 130 131 132
f 130 132 133
v 7.937291 5.200000 4.242571
v 8.612463 5.200000 2.612562
v 8.009591 7.081000 2.429683
v 7.381681 7.081000 3.945591
f 134 135 136
f 134 136 137
v 6.957094 5.200000 -5.709540
v 5.709540 5.200000 -6.957094
v 5.309872 7.081000 -6.470097
v 6.470097 7.081000 -5.309872
f 138 139 140
f 138 140 141
v -7.381681 7.081000 -3.945591
v -8.009591 7.081000 -2.429683
v -6.717721 8.764000 -2.037798
v -6.191087 8.764000 -3.309205
f 142 143 144
f 142 144 145
v -8.009591 7.081000 -2.429683
v -8.329696 7.081000 -0.820403
v -6.986197 8.764000 -0.688080
v -6.717721 8.764000 -2.037798
f 146 147 148
f 146 148 149
v -8.329696 7.081000 0.820403
v -8.009591 7.081000 2.429683
v -6.717721 8.764000 2.037798
v -6.986197 8.764000 0.688080
f 150 151 152
f 150 152 153
v -8.009591 7.081000 2.429683
v -7.381681 7.081000 3.945591
v -6.191087 8.764000 3.309205
v -6.717721 8.764000 2.037798
f 154 155 156
f 154 156 157
v 2.429683 7.081000 8.009591
v 3.945591 7.081000 7.381681
v 3.309205 8.764000 6.191087
v 2.037798 8.764000 6.717721
f 158 159 160
f 158 160 161
v 3.945591 7.081000 7.381681
v 5.309872 7.081000 6.470097
v 4.453441 8.764000 5.426533
v 3.309205 8.764000 6.191087
f 162 163 164
f 162 164 165
v 8.009591 7.081000 -2.429683
v 7.381681 7.081000 -3.945591
v 6.191087 8.764000 -3.309205
v 6.717721 8.764000 -2.037798
f 166 167 168
f 166 168 169
v 2.429683 7.081000 -8.009591
v 0.820403 7.081000 -8.329696
v 0.688080 8.764000 -6.986197
v 2.037798 8.764000 -6.717721
f 170 171 172
f 170 172 173
v 0.688080 8.764000 -6.986197
v -0.688080 8.764000 -6.986197
v -0.511649 10.150000 -5.194864
v 0.511649 10.150000 -5.194864
f 174 175 176
f 174 176 177
v -3.309205 8.764000 -6.191087
v -4.453441 8.764000 -5.426533
v -3.311533 10.150000 -4.035115
v -2.460691 10.150000 -4.603629
f 178 179 180
f 178 180 181
v -6.986197 8.764000 -0.688080
v -6.986197 8.764000 0.688080
v -5.194864 10.150000 0.511649
v -5.194864 10.150000 -0.511649
f 182 183 184
f 182 184 185
v -6.986197 8.764000 0.688080
v -6.717721 8.764000 2.037798
v -4.995229 10.150000 1.515286
v -5.194864 10.150000 0.511649
f 186 187 188
f 186 188 189
v -5.426533 8.764000 4.453441
v -4.453441 8.764000 5.426533
v -3.311533 10.150000 4.035115
v -4.035115 10.150000 3.311533
f 190 191 192
f 190 192 193
v -4.453441 8.764000 5.426533
v -3.309205 8.764000 6.191087
v -2.460691 10.150000 4.603629
v -3.311533 10.150000 4.035115
f 194 195 196
f 194 196 197
v -0.688080 8.764000 6.986197
v 0.688080 8.764000 6.986197
v 0.511649 10.150000 5.194864
v -0.511649 10.150000 5.194864
f 198 199 200
f 198 200 201
v 2.037798 8.764000 6.717721
v 3.309205 8.764000 6.191087
v 2.460691 10.150000 4.603629
v 1.515286 10.150000 4.995229
f 202 203 204
f 202 204 205
v 3.309205 8.764000 6.191087
v 4.453441 8.764000 5.426533
v 3.311533 10.150000 4.035115
v 2.460691 10.150000 4.603629
f 206 207 208
f 206 208 209
v 4.453441 8.764000 -5.426533
v 3.309205 8.764000 -6.191087
v 2.460691 10.150000 -4.603629
v 3.311533 10.150000 -4.035115
f 210 211 212
f 210 212 213
v 0.511649 10.150000 -5.194864
v -0.511649 10.150000 -5.194864
v -0.511649 11.439000 -5.194864
v 0.511649 11.439000 -5.194864
f 214 215 216
f 214 216 217
v -0.511649 10.150000 -5.194864
v -1.515286 10.150000 -4.995229
v -1.515286 11.439000 -4.995229
v -0.511649 11.439000 -5.194864
f 218 219 220
f 218 220 221
v -4.035115 10.150000 -3.311533
v -4.603629 10.150000 -2.460691
v -4.603629 11.439000 -2.460691
v -4.035115 11.439000 -3.311533
f 222 223 224
f 222 224 225
v -4.603629 10.150000 -2.460691
v -4.995229 10.150000 -1.515286
v -4.995229 11.439000 -1.515286
v -4.603629 11.439000 -2.460691
f 226 227 228
f 226 228 229
v -5.194864 10.150000 -0.511649
v -5.194864 10.150000 0.511649
v -5.194864 11.439000 0.511649
v -5.194864 11.439000 -0.511649
f 230 231 232
f 230 232 233
v -5.194864 10.150000 0.511649
v -4.995229 10.150000 1.515286
v -4.995229 11.439000 1.515286
v -5.194864 11.439000 0.511649
f 234 235 236
f 234 236 237
v -4.035115 10.150000 3.311533
v -3.311533 10.150000 4.035115
v -3.311533 11.439000 4.035115
v -4.035115 11.439000 3.311533
f 238 239 240
f 238 240 241
v -3.311533 10.150000 4.035115
v -2.460691 10.150000 4.603629
v -2.460691 11.439000 4.603629
v -3.311533 11.439000 4.035115
f 242 243 244
f 242 244 245
v -2.460691 10.150000 4.603629
v -1.515286 10.150000 4.995229
v -1.515286 11.439000 4.995229
v -2.460691 11.439000 4.603629
f 246 247 248
f 246 248 249
v -1.515286 10.150000 4.995229
v -0.511649 10.150000 5.194864
v -0.511649 11.439000 5.194864
v -1.515286 11.439000 4.995229
f 250 251 252
f 250 252 253
v 3.311533 10.150000 4.035115
v 4.035115 10.150000 3.311533
v 4.035115 11.439000 3.311533
v 3.311533 11.439000 4.035115
f 254 255 256
f 254 256 257
v 4.995229 10.150000 1.515286
v 5.194864 10.150000 0.511649
v 5.194864 11.439000 0.511649
v 4.995229 11.439000 1.515286
f 258 259 260
f 258 260 261
v 5.194864 10.150000 0.511649
v 5.194864 10.150000 -0.511649
v 5.194864 11.439000 -0.511649
v 5.194864 11.439000 0.511649
f 262 263 264
f 262 264 265
v 5.194864 10.150000 -0.511649
v 4.995229 10.150000 -1.515286
v 4.995229 11.439000 -1.515286
v 5.194864 11.439000 -0.511649
f 266 267 268
f 266 268 269
v 4.995229 10.150000 -1.515286
v 4.603629 10.150000 -2.460691
v 4.603629 11.439000 -2.460691
v 4.995229 11.439000 -1.515286
f 270 271 272
f 270 272 273
v 4.603629 10.150000 -2.460691
v 4.035115 10.150000 -3.311533
v 4.035115 11.439000 -3.311533
v 4.603629 11.439000 -2.460691
f 274 275 276
f 274 276 277
v -2.460691 11.439000 -4.603629
v -3.311533 11.439000 -4.035115
v -2.512197 12.924000 -3.061121
v -1.866731 12.924000 -3.492408
f 278 279 280
f 278 280 281
v -4.035115 11.439000 -3.311533
v -4.603629 11.439000 -2.460691
v -3.492408 12.924000 -1.866731
v -3.061121 12.924000 -2.512197
f 282 283 284
f 282 284 285
v -4.603629 11.439000 -2.460691
v -4.995229 11.439000 -1.515286
v -3.789484 12.924000 -1.149527
v -3.492408 12.924000 -1.866731
f 286 287 288
f 286 288 289
v -5.194864 11.439000 -0.511649
v -5.194864 11.439000 0.511649
v -3.940932 12.924000 0.388148
v -3.940932 12.924000 -0.388148
f 290 291 292
f 290 292 293
v -1.515286 11.439000 4.995229
v -0.511649 11.439000 5.194864
v -0.388148 12.924000 3.940932
v -1.149527 12.924000 3.789484
f 294 295 296
f 294 296 297
v -0.511649 11.439000 5.194864
v 0.511649 11.439000 5.194864
v 0.388148 12.924000 3.940932
v -0.388148 12.924000 3.940932
f 298 299 300
f 298 300 301
v 3.311533 11.439000 4.035115
v 4.035115 11.439000 3.311533
v 3.061121 12.924000 2.512197
v 2.512197 12.924000 3.061121
f 302 303 304
f 302 304 305
v 4.035115 11.439000 3.311533
v 4.603629 11.439000 2.460691
v 3.492408 12.924000 1.866731
v 3.061121 12.924000 2.512197
f 306 307 308
f 306 308 309
v 4.995229 11.439000 1.515286
v 5.194864 11.439000 0.511649
v 3.940932 12.924000 0.388148
v 3.789484 12.924000 1.149527
f 310 311 312
f 310 312 313
v 5.194864 11.439000 0.511649
v 5.194864 11.439000 -0.511649
v 3.940932 12.924000 -0.388148
v 3.940932 12.924000 0.388148
f 314 315 316
f 314 316 317
v 4.035115 11.439000 -3.311533
v 3.311533 11.439000 -4.035115
v 2.512197 12.924000 -3.061121
v 3.061121 12.924000 -2.512197
f 318 319 320
f 318 320 321
v 2.460691 11.439000 -4.603629
v 1.515286 11.439000 -4.995229
v 1.149527 12.924000 -3.789484
v 1.866731 12.924000 -3.492408
f 322 323 324
f 322 324 325
v -1.866731 12.924000 -3.492408
v -2.512197 12.924000 -3.061121
v -1.256099 14.013000 -1.530561
v -0.933366 14.013000 -1.746204
f 326 327 328
f 326 328 329
v -3.492408 12.924000 -1.866731
v -3.789484 12.924000 -1.149527
v -1.894742 14.013000 -0.574764
v -1.746204 14.013000 -0.933366
f 330 331 332
f 330 332 333
v -3.789484 12.924000 -1.149527
v -3.940932 12.924000 -0.388148
v -1.970466 14.013000 -0.194074
v -1.894742 14.013000 -0.574764
f 334 335 336
f 334 336 337
v -3.061121 12.924000 2.512197
v -2.512197 12.924000 3.061121
v -1.256099 14.013000 1.530561
v -1.530561 14.013000 1.256099
f 338 339 340
f 338 340 341
v -2.512197 12.924000 3.061121
v -1.866731 12.924000 3.492408
v -0.933366 14.013000 1.746204
v -1.256099 14.013000 1.530561
f 342 343 344
f 342 344 345
v 2.512197 12.924000 -3.061121
v 1.866731 12.924000 -3.492408
v 0.933366 14.013000 -1.746204
v 1.256099 14.013000 -1.530561
f 346 347 348
f 346 348 349
v -0.574764 14.013000 -1.894742
v -0.933366 14.013000 -1.746204
v -0.000000 14.508000 -0.000000
v -0.000000 14.508000 -0.000000
f 350 351 352
v -0.933366 14.013000 -1.746204
v -1.256099 14.013000 -1.530561
v -0.000000 14.508000 -0.000000
v -0.000000 14.508000 -0.000000
f 354 355 356
v -1.530561 14.013000 -1.256099
v -1.746204 14.013000 -0.933366
v -0.000000 14.508000 -0.000000
v -0.000000 14.508000 -0.000000
f 358 359 360
v -1.970466 14.013000 0.194074
v -1.894742 14.013000 0.574764
v -0.000000 14.508000 0.000000
v -0.000000 14.508000 0.000000
f 362 363 364
v -1.746204 14.013000 0.933366
v -1.530561 14.013000 1.256099
v -0.000000 14.508000 0.000000
v -0.000000 14.508000 0.000000
f 366 367 368
v 0.574764 14.013000 1.894742
v 0.933366 14.013000 1.746204
v 0.000000 14.508000 0.000000
v 0.000000 14.508000 0.000000
f 370 371 372
v 1.970466 14.013000 -0.194074
v 1.894742 14.013000 -0.574764
v 0.000000 14.508000 -0.000000
v 0.000000 14.508000 -0.000000
f 374 375 376
v 0.933366 14.013000 -1.746204
v 0.574764 14.013000 -1.894742
v 0.000000 14.508000 -0.000000
v 0.000000 14.508000 -0.000000
f 378 379 380
