o mesh
v -0.620530 0.450000 -1.803907
v -0.595550 0.449023 -1.828907
v -0.620530 0.450000 -1.853907
v -0.645511 0.450977 -1.828907
v -0.598018 1.025337 -1.810907
v -0.580032 1.024634 -1.828907
v -0.598018 1.025337 -1.846907
v -0.616004 1.026041 -1.828907
f 1 2 6
f 1 6 5
f 2 3 7
f 2 7 6
f 3 4 8
f 3 8 7
f 4 1 5
f 4 5 8
v -0.598018 1.025337 -1.803907
v -0.573045 1.024164 -1.828907
v -0.598018 1.025337 -1.853907
v -0.622990 1.026510 -1.828907
v -0.577567 1.460761 -1.810907
v -0.559587 1.459916 -1.828907
v -0.577567 1.460761 -1.846907
v -0.595547 1.461605 -1.828907
f 9 10 14
f 9 14 13
f 10 11 15
f 10 15 14
f 11 12 16
f 11 16 15
f 12 9 13
f 12 13 16
v -0.577567 1.460761 -1.803907
v -0.553976 1.452487 -1.828907
v -0.577567 1.460761 -1.853907
v -0.601158 1.469034 -1.828907
v -0.427734 1.887977 -1.810907
v -0.410748 1.882020 -1.828907
v -0.427734 1.887977 -1.846907
v -0.444720 1.893934 -1.828907
f 17 18 22
f 17 22 21
f 18 19 23
f 18 23 22
f 19 20 24
f 19 24 23
f 20 17 21
f 20 21 24
v -0.427734 1.922977 -1.828907
v -0.427734 1.922977 -1.828907
v -0.427734 1.922977 -1.828907
v -0.427734 1.922977 -1.828907
v -0.427734 1.922977 -1.828907
v -0.427734 1.922977 -1.828907
v -0.367112 1.905477 -1.828907
v -0.397423 1.905477 -1.881407
v -0.458045 1.905477 -1.881407
v -0.488356 1.905477 -1.828907
v -0.458045 1.905477 -1.776407
v -0.397423 1.905477 -1.776407
v -0.367112 1.870477 -1.828907
v -0.397423 1.870477 -1.881407
v -0.458045 1.870477 -1.881407
v -0.488356 1.870477 -1.828907
v -0.458045 1.870477 -1.776407
v -0.397423 1.870477 -1.776407
v -0.427734 1.852977 -1.828907
v -0.427734 1.852977 -1.828907
v -0.427734 1.852977 -1.828907
v -0.427734 1.852977 -1.828907
v -0.427734 1.852977 -1.828907
v -0.427734 1.852977 -1.828907
f 25 32 26
f 25 31 32
f 26 33 27
f 26 32 33
f 27 34 28
f 27 33 34
f 28 35 29
f 28 34 35
f 29 36 30
f 29 35 36
f 30 31 25
f 30 36 31
f 31 38 32
f 31 37 38
f 32 39 33
f 32 38 39
f 33 40 34
f 33 39 40
f 34 41 35
f 34 40 41
f 35 42 36
f 35 41 42
f 36 37 31
f 36 42 37
f 37 44 38
f 37 43 44
f 38 45 39
f 38 44 45
f 39 46 40
f 39 45 46
f 40 47 41
f 40 46 47
f 41 48 42
f 41 47 48
f 42 43 37
f 42 48 43
v 0.937916 0.450000 -1.803907
v 0.961452 0.441570 -1.828907
v 0.937916 0.450000 -1.853907
v 0.914380 0.458430 -1.828907
v 1.172627 1.105290 -1.810907
v 1.189573 1.099220 -1.828907
v 1.172627 1.105290 -1.846907
v 1.155682 1.111360 -1.828907
f 49 50 54
f 49 54 53
f 50 51 55
f 50 55 54
f 51 52 56
f 51 56 55
f 52 49 53
f 52 53 56
v 1.172627 1.105290 -1.803907
v 1.197347 1.101559 -1.828907
v 1.172627 1.105290 -1.853907
v 1.147907 1.109021 -1.828907
v 1.264363 1.713090 -1.810907
v 1.282161 1.710404 -1.828907
v 1.264363 1.713090 -1.846907
v 1.246565 1.715776 -1.828907
f 57 58 62
f 57 62 61
f 58 59 63
f 58 63 62
f 59 60 64
f 59 64 63
f 60 57 61
f 60 61 64
v 1.264363 1.748090 -1.828907
v 1.264363 1.748090 -1.828907
v 1.264363 1.748090 -1.828907
v 1.264363 1.748090 -1.828907
v 1.264363 1.748090 -1.828907
v 1.264363 1.748090 -1.828907
v 1.324985 1.730590 -1.828907
v 1.294674 1.730590 -1.881407
v 1.234052 1.730590 -1.881407
v 1.203741 1.730590 -1.828907
v 1.234052 1.730590 -1.776407
v 1.294674 1.730590 -1.776407
v 1.324985 1.695590 -1.828907
v 1.294674 1.695590 -1.881407
v 1.234052 1.695590 -1.881407
v 1.203741 1.695590 -1.828907
v 1.234052 1.695590 -1.776407
v 1.294674 1.695590 -1.776407
v 1.264363 1.678090 -1.828907
v 1.264363 1.678090 -1.828907
v 1.264363 1.678090 -1.828907
v 1.264363 1.678090 -1.828907
v 1.264363 1.678090 -1.828907
v 1.264363 1.678090 -1.828907
f 65 72 66
f 65 71 72
f 66 73 67
f 66 72 73
f 67 74 68
f 67 73 74
f 68 75 69
f 68 74 75
f 69 76 70
f 69 75 76
f 70 71 65
f 70 76 71
f 71 78 72
f 71 77 78
f 72 79 73
f 72 78 79
f 73 80 74
f 73 79 80
f 74 81 75
f 74 80 81
f 75 82 76
f 75 81 82
f 76 77 71
f 76 82 77
f 77 84 78
f 77 83 84
f 78 85 79
f 78 84 85
f 79 86 80
f 79 85 86
f 80 87 81
f 80 86 87
f 81 88 82
f 81 87 88
f 82 83 77
f 82 88 83
v 1.264363 1.713090 -1.803907
v 1.285979 1.725650 -1.828907
v 1.264363 1.713090 -1.853907
v 1.242747 1.700530 -1.828907
v 1.045503 2.089758 -1.810907
v 1.061067 2.098801 -1.828907
v 1.045503 2.089758 -1.846907
v 1.029940 2.080715 -1.828907
f 89 90 94
f 89 94 93
f 90 91 95
f 90 95 94
f 91 92 96
f 91 96 95
f 92 89 93
f 92 93 96
v 1.045503 2.089758 -1.803907
v 1.070454 2.091318 -1.828907
v 1.045503 2.089758 -1.853907
v 1.020552 2.088198 -1.828907
v 1.006416 2.714891 -1.810907
v 1.024381 2.716015 -1.828907
v 1.006416 2.714891 -1.846907
v 0.988452 2.713768 -1.828907
f 97 98 102
f 97 102 101
f 98 99 103
f 98 103 102
f 99 100 104
f 99 104 103
f 100 97 101
f 100 101 104
v 1.006416 2.749891 -1.828907
v 1.006416 2.749891 -1.828907
v 1.006416 2.749891 -1.828907
v 1.006416 2.749891 -1.828907
v 1.006416 2.749891 -1.828907
v 1.006416 2.749891 -1.828907
v 1.067038 2.732391 -1.828907
v 1.036727 2.732391 -1.881407
v 0.976106 2.732391 -1.881407
v 0.945795 2.732391 -1.828907
v 0.976106 2.732391 -1.776407
v 1.036727 2.732391 -1.776407
v 1.067038 2.697391 -1.828907
v 1.036727 2.697391 -1.881407
v 0.976106 2.697391 -1.881407
v 0.945795 2.697391 -1.828907
v 0.976106 2.697391 -1.776407
v 1.036727 2.697391 -1.776407
v 1.006416 2.679891 -1.828907
v 1.006416 2.679891 -1.828907
v 1.006416 2.679891 -1.828907
v 1.006416 2.679891 -1.828907
v 1.006416 2.679891 -1.828907
v 1.006416 2.679891 -1.828907
f 105 112 106
f 105 111 112
f 106 113 107
f 106 112 113
f 107 114 108
f 107 113 114
f 108 115 109
f 108 114 115
f 109 116 110
f 109 115 116
f 110 111 105
f 110 116 111
f 111 118 112
f 111 117 118
f 112 119 113
f 112 118 119
f 113 120 114
f 113 119 120
f 114 121 115
f 114 120 121
f 115 122 116
f 115 121 122
f 116 117 111
f 116 122 117
f 117 124 118
f 117 123 124
f 118 125 119
f 118 124 125
f 119 126 120
f 119 125 126
f 120 127 121
f 120 126 127
f 121 128 122
f 121 127 128
f 122 123 117
f 122 128 123
v 2.510738 0.457620 -1.340223
v 2.535738 0.450000 -1.364034
v 2.510738 0.442380 -1.387844
v 2.485738 0.450000 -1.364034
v 2.510738 1.002356 -1.521915
v 2.528738 0.996869 -1.539058
v 2.510738 0.991382 -1.556202
v 2.492738 0.996869 -1.539058
f 129 130 134
f 129 134 133
f 130 131 135
f 130 135 134
f 131 132 136
f 131 136 135
f 132 129 133
f 132 133 136
v 2.510738 1.031869 -1.539058
v 2.510738 1.031869 -1.539058
v 2.510738 1.031869 -1.539058
v 2.510738 1.031869 -1.539058
v 2.510738 1.031869 -1.539058
v 2.510738 1.031869 -1.539058
v 2.571359 1.014369 -1.539058
v 2.541048 1.014369 -1.591558
v 2.480427 1.014369 -1.591558
v 2.450116 1.014369 -1.539058
v 2.480427 1.014369 -1.486558
v 2.541048 1.014369 -1.486558
v 2.571359 0.979369 -1.539058
v 2.541048 0.979369 -1.591558
v 2.480427 0.979369 -1.591558
v 2.450116 0.979369 -1.539058
v 2.480427 0.979369 -1.486558
v 2.541048 0.979369 -1.486558
v 2.510738 0.961869 -1.539058
v 2.510738 0.961869 -1.539058
v 2.510738 0.961869 -1.539058
v 2.510738 0.961869 -1.539058
v 2.510738 0.961869 -1.539058
v 2.510738 0.961869 -1.539058
f 137 144 138
f 137 143 144
f 138 145 139
f 138 144 145
f 139 146 140
f 139 145 146
f 140 147 141
f 140 146 147
f 141 148 142
f 141 147 148
f 142 143 137
f 142 148 143
f 143 150 144
f 143 149 150
f 144 151 145
f 144 150 151
f 145 152 146
f 145 151 152
f 146 153 147
f 146 152 153
f 147 154 148
f 147 153 154
f 148 149 143
f 148 154 149
f 149 156 150
f 149 155 156
f 150 157 151
f 150 156 157
f 151 158 152
f 151 157 158
f 152 159 153
f 152 158 159
f 153 160 154
f 153 159 160
f 154 155 149
f 154 160 155
v 2.510738 1.000213 -1.514283
v 2.535738 0.996869 -1.539058
v 2.510738 0.993525 -1.563834
v 2.485738 0.996869 -1.539058
v 2.510738 1.433550 -1.579830
v 2.528738 1.431142 -1.597668
v 2.510738 1.428735 -1.615507
v 2.492738 1.431142 -1.597668
f 161 162 166
f 161 166 165
f 162 163 167
f 162 167 166
f 163 164 168
f 163 168 167
f 164 161 165
f 164 165 168
v 2.510738 1.466142 -1.597668
v 2.510738 1.466142 -1.597668
v 2.510738 1.466142 -1.597668
v 2.510738 1.466142 -1.597668
v 2.510738 1.466142 -1.597668
v 2.510738 1.466142 -1.597668
v 2.571359 1.448642 -1.597668
v 2.541048 1.448642 -1.650168
v 2.480427 1.448642 -1.650168
v 2.450116 1.448642 -1.597668
v 2.480427 1.448642 -1.545168
v 2.541048 1.448642 -1.545168
v 2.571359 1.413642 -1.597668
v 2.541048 1.413642 -1.650168
v 2.480427 1.413642 -1.650168
v 2.450116 1.413642 -1.597668
v 2.480427 1.413642 -1.545168
v 2.541048 1.413642 -1.545168
v 2.510738 1.396142 -1.597668
v 2.510738 1.396142 -1.597668
v 2.510738 1.396142 -1.597668
v 2.510738 1.396142 -1.597668
v 2.510738 1.396142 -1.597668
v 2.510738 1.396142 -1.597668
f 169 176 170
f 169 175 176
f 170 177 171
f 170 176 177
f 171 178 172
f 171 177 178
f 172 179 173
f 172 178 179
f 173 180 174
f 173 179 180
f 174 175 169
f 174 180 175
f 175 182 176
f 175 181 182
f 176 183 177
f 176 182 183
f 177 184 178
f 177 183 184
f 178 185 179
f 178 184 185
f 179 186 180
f 179 185 186
f 180 181 175
f 180 186 181
f 181 188 182
f 181 187 188
f 182 189 183
f 182 188 189
f 183 190 184
f 183 189 190
f 184 191 185
f 184 190 191
f 185 192 186
f 185 191 192
f 186 187 181
f 186 192 187
v 2.510738 1.440855 -1.574632
v 2.535738 1.431142 -1.597668
v 2.510738 1.421430 -1.620704
v 2.485738 1.431142 -1.597668
v 2.510738 1.981991 -1.810395
v 2.528738 1.974998 -1.826981
v 2.510738 1.968005 -1.843567
v 2.492738 1.974998 -1.826981
f 193 194 198
f 193 198 197
f 194 195 199
f 194 199 198
f 195 196 200
f 195 200 199
f 196 193 197
f 196 197 200
v 2.510738 2.009998 -1.826981
v 2.510738 2.009998 -1.826981
v 2.510738 2.009998 -1.826981
v 2.510738 2.009998 -1.826981
v 2.510738 2.009998 -1.826981
v 2.510738 2.009998 -1.826981
v 2.571359 1.992498 -1.826981
v 2.541048 1.992498 -1.879481
v 2.480427 1.992498 -1.879481
v 2.450116 1.992498 -1.826981
v 2.480427 1.992498 -1.774481
v 2.541048 1.992498 -1.774481
v 2.571359 1.957498 -1.826981
v 2.541048 1.957498 -1.879481
v 2.480427 1.957498 -1.879481
v 2.450116 1.957498 -1.826981
v 2.480427 1.957498 -1.774481
v 2.541048 1.957498 -1.774481
v 2.510738 1.939998 -1.826981
v 2.510738 1.939998 -1.826981
v 2.510738 1.939998 -1.826981
v 2.510738 1.939998 -1.826981
v 2.510738 1.939998 -1.826981
v 2.510738 1.939998 -1.826981
f 201 208 202
f 201 207 208
f 202 209 203
f 202 208 209
f 203 210 204
f 203 209 210
f 204 211 205
f 204 210 211
f 205 212 206
f 205 211 212
f 206 207 201
f 206 212 207
f 207 214 208
f 207 213 214
f 208 215 209
f 208 214 215
f 209 216 210
f 209 215 216
f 210 217 211
f 210 216 217
f 211 218 212
f 211 217 218
f 212 213 207
f 212 218 213
f 213 220 214
f 213 219 220
f 214 221 215
f 214 220 221
f 215 222 216
f 215 221 222
f 216 223 217
f 216 222 223
f 217 224 218
f 217 223 224
f 218 219 213
f 218 224 219
v 2.510738 1.975550 -1.801987
v 2.535738 1.974998 -1.826981
v 2.510738 1.974446 -1.851975
v 2.485738 1.974998 -1.826981
v 2.510738 2.644814 -1.823768
v 2.528738 2.644417 -1.841764
v 2.510738 2.644020 -1.859759
v 2.492738 2.644417 -1.841764
f 225 226 230
f 225 230 229
f 226 227 231
f 226 231 230
f 227 228 232
f 227 232 231
f 228 225 229
f 228 229 232
v 2.510738 2.679417 -1.841764
v 2.510738 2.679417 -1.841764
v 2.510738 2.679417 -1.841764
v 2.510738 2.679417 -1.841764
v 2.510738 2.679417 -1.841764
v 2.510738 2.679417 -1.841764
v 2.571359 2.661917 -1.841764
v 2.541048 2.661917 -1.894264
v 2.480427 2.661917 -1.894264
v 2.450116 2.661917 -1.841764
v 2.480427 2.661917 -1.789264
v 2.541048 2.661917 -1.789264
v 2.571359 2.626917 -1.841764
v 2.541048 2.626917 -1.894264
v 2.480427 2.626917 -1.894264
v 2.450116 2.626917 -1.841764
v 2.480427 2.626917 -1.789264
v 2.541048 2.626917 -1.789264
v 2.510738 2.609417 -1.841764
v 2.510738 2.609417 -1.841764
v 2.510738 2.609417 -1.841764
v 2.510738 2.609417 -1.841764
v 2.510738 2.609417 -1.841764
v 2.510738 2.609417 -1.841764
f 233 240 234
f 233 239 240
f 234 241 235
f 234 240 241
f 235 242 236
f 235 241 242
f 236 243 237
f 236 242 243
f 237 244 238
f 237 243 244
f 238 239 233
f 238 244 239
f 239 246 240
f 239 245 246
f 240 247 241
f 240 246 247
f 241 248 242
f 241 247 248
f 242 249 243
f 242 248 249
f 243 250 244
f 243 249 250
f 244 245 239
f 244 250 245
f 245 252 246
f 245 251 252
f 246 253 247
f 246 252 253
f 247 254 248
f 247 253 254
f 248 255 249
f 248 254 255
f 249 256 250
f 249 255 256
f 250 251 245
f 250 256 251
v 2.510738 2.645176 -1.816775
v 2.535738 2.644417 -1.841764
v 2.510738 2.643658 -1.866752
v 2.485738 2.644417 -1.841764
v 2.510738 3.210286 -1.840934
v 2.528738 3.209740 -1.858926
v 2.510738 3.209193 -1.876918
v 2.492738 3.209740 -1.858926
f 257 258 262
f 257 262 261
f 258 259 263
f 258 263 262
f 259 260 264
f 259 264 263
f 260 257 261
f 260 261 264
v 2.510738 3.244740 -1.858926
v 2.510738 3.244740 -1.858926
v 2.510738 3.244740 -1.858926
v 2.510738 3.244740 -1.858926
v 2.510738 3.244740 -1.858926
v 2.510738 3.244740 -1.858926
v 2.571359 3.227240 -1.858926
v 2.541048 3.227240 -1.911426
v 2.480427 3.227240 -1.911426
v 2.450116 3.227240 -1.858926
v 2.480427 3.227240 -1.806426
v 2.541048 3.227240 -1.806426
v 2.571359 3.192240 -1.858926
v 2.541048 3.192240 -1.911426
v 2.480427 3.192240 -1.911426
v 2.450116 3.192240 -1.858926
v 2.480427 3.192240 -1.806426
v 2.541048 3.192240 -1.806426
v 2.510738 3.174740 -1.858926
v 2.510738 3.174740 -1.858926
v 2.510738 3.174740 -1.858926
v 2.510738 3.174740 -1.858926
v 2.510738 3.174740 -1.858926
v 2.510738 3.174740 -1.858926
f 265 272 266
f 265 271 272
f 266 273 267
f 266 272 273
f 267 274 268
f 267 273 274
f 268 275 269
f 268 274 275
f 269 276 270
f 269 275 276
f 270 271 265
f 270 276 271
f 271 278 272
f 271 277 278
f 272 279 273
f 272 278 279
f 273 280 274
f 273 279 280
f 274 281 275
f 274 280 281
f 275 282 276
f 275 281 282
f 276 277 271
f 276 282 277
f 277 284 278
f 277 283 284
f 278 285 279
f 278 284 285
f 279 286 280
f 279 285 286
f 280 287 281
f 280 286 287
f 281 288 282
f 281 287 288
f 282 283 277
f 282 288 283
v -2.510738 0.458024 -0.801199
v -2.485738 0.450000 -0.824876
v -2.510738 0.441976 -0.848553
v -2.535738 0.450000 -0.824876
v -2.510738 0.987116 -0.987897
v -2.492738 0.981339 -1.004945
v -2.510738 0.975561 -1.021992
v -2.528738 0.981339 -1.004945
f 289 290 294
f 289 294 293
f 290 291 295
f 290 295 294
f 291 292 296
f 291 296 295
f 292 289 293
f 292 293 296
v -2.510738 1.016339 -1.004945
v -2.510738 1.016339 -1.004945
v -2.510738 1.016339 -1.004945
v -2.510738 1.016339 -1.004945
v -2.510738 1.016339 -1.004945
v -2.510738 1.016339 -1.004945
v -2.450116 0.998839 -1.004945
v -2.480427 0.998839 -1.057445
v -2.541048 0.998839 -1.057445
v -2.571359 0.998839 -1.004945
v -2.541048 0.998839 -0.952445
v -2.480427 0.998839 -0.952445
v -2.450116 0.963839 -1.004945
v -2.480427 0.963839 -1.057445
v -2.541048 0.963839 -1.057445
v -2.571359 0.963839 -1.004945
v -2.541048 0.963839 -0.952445
v -2.480427 0.963839 -0.952445
v -2.510738 0.946339 -1.004945
v -2.510738 0.946339 -1.004945
v -2.510738 0.946339 -1.004945
v -2.510738 0.946339 -1.004945
v -2.510738 0.946339 -1.004945
v -2.510738 0.946339 -1.004945
f 297 304 298
f 297 303 304
f 298 305 299
f 298 304 305
f 299 306 300
f 299 305 306
f 300 307 301
f 300 306 307
f 301 308 302
f 301 307 308
f 302 303 297
f 302 308 303
f 303 310 304
f 303 309 310
f 304 311 305
f 304 310 311
f 305 312 306
f 305 311 312
f 306 313 307
f 306 312 313
f 307 314 308
f 307 313 314
f 308 309 303
f 308 314 309
f 309 316 310
f 309 315 316
f 310 317 311
f 310 316 317
f 311 318 312
f 311 317 318
f 312 319 313
f 312 318 319
f 313 320 314
f 313 319 320
f 314 315 309
f 314 320 315
v -2.510738 0.985092 -0.980228
v -2.485738 0.981339 -1.004945
v -2.510738 0.977585 -1.029661
v -2.535738 0.981339 -1.004945
v -2.510738 1.601935 -1.080990
v -2.492738 1.599233 -1.098785
v -2.510738 1.596530 -1.116581
v -2.528738 1.599233 -1.098785
f 321 322 326
f 321 326 325
f 322 323 327
f 322 327 326
f 323 324 328
f 323 328 327
f 324 321 325
f 324 325 328
v -2.510738 1.608722 -1.075657
v -2.485738 1.599233 -1.098785
v -2.510738 1.589743 -1.121914
v -2.535738 1.599233 -1.098785
v -2.510738 2.041662 -1.260863
v -2.492738 2.034830 -1.277515
v -2.510738 2.027997 -1.294168
v -2.528738 2.034830 -1.277515
f 329 330 334
f 329 334 333
f 330 331 335
f 330 335 334
f 331 332 336
f 331 336 335
f 332 329 333
f 332 333 336
v -2.510738 2.044736 -1.254562
v -2.485738 2.034830 -1.277515
v -2.510738 2.024923 -1.300469
v -2.535738 2.034830 -1.277515
v -2.510738 2.550115 -1.480312
v -2.492738 2.542982 -1.496838
v -2.510738 2.535850 -1.513365
v -2.528738 2.542982 -1.496838
f 337 338 342
f 337 342 341
f 338 339 343
f 338 343 342
f 339 340 344
f 339 344 343
f 340 337 341
f 340 341 344
v -2.510738 2.577982 -1.496838
v -2.510738 2.577982 -1.496838
v -2.510738 2.577982 -1.496838
v -2.510738 2.577982 -1.496838
v -2.510738 2.577982 -1.496838
v -2.510738 2.577982 -1.496838
v -2.450116 2.560482 -1.496838
v -2.480427 2.560482 -1.549338
v -2.541048 2.560482 -1.549338
v -2.571359 2.560482 -1.496838
v -2.541048 2.560482 -1.444338
v -2.480427 2.560482 -1.444338
v -2.450116 2.525482 -1.496838
v -2.480427 2.525482 -1.549338
v -2.541048 2.525482 -1.549338
v -2.571359 2.525482 -1.496838
v -2.541048 2.525482 -1.444338
v -2.480427 2.525482 -1.444338
v -2.510738 2.507982 -1.496838
v -2.510738 2.507982 -1.496838
v -2.510738 2.507982 -1.496838
v -2.510738 2.507982 -1.496838
v -2.510738 2.507982 -1.496838
v -2.510738 2.507982 -1.496838
f 345 352 346
f 345 351 352
f 346 353 347
f 346 352 353
f 347 354 348
f 347 353 354
f 348 355 349
f 348 354 355
f 349 356 350
f 349 355 356
f 350 351 345
f 350 356 351
f 351 358 352
f 351 357 358
f 352 359 353
f 352 358 359
f 353 360 354
f 353 359 360
f 354 361 355
f 354 360 361
f 355 362 356
f 355 361 362
f 356 357 351
f 356 362 357
f 357 364 358
f 357 363 364
f 358 365 359
f 358 364 365
f 359 366 360
f 359 365 366
f 360 367 361
f 360 366 367
f 361 368 362
f 361 367 368
f 362 363 357
f 362 368 363
v -2.510738 2.536152 -1.472789
v -2.485738 2.542982 -1.496838
v -2.510738 2.549813 -1.520887
v -2.535738 2.542982 -1.496838
v -2.510738 2.998401 -1.348777
v -2.492738 3.003319 -1.366092
v -2.510738 3.008237 -1.383407
v -2.528738 3.003319 -1.366092
f 369 370 374
f 369 374 373
f 370 371 375
f 370 375 374
f 371 372 376
f 371 376 375
f 372 369 373
f 372 373 376
v -2.510738 3.038319 -1.366092
v -2.510738 3.038319 -1.366092
v -2.510738 3.038319 -1.366092
v -2.510738 3.038319 -1.366092
v -2.510738 3.038319 -1.366092
v -2.510738 3.038319 -1.366092
v -2.450116 3.020819 -1.366092
v -2.480427 3.020819 -1.418592
v -2.541048 3.020819 -1.418592
v -2.571359 3.020819 -1.366092
v -2.541048 3.020819 -1.313592
v -2.480427 3.020819 -1.313592
v -2.450116 2.985819 -1.366092
v -2.480427 2.985819 -1.418592
v -2.541048 2.985819 -1.418592
v -2.571359 2.985819 -1.366092
v -2.541048 2.985819 -1.313592
v -2.480427 2.985819 -1.313592
v -2.510738 2.968319 -1.366092
v -2.510738 2.968319 -1.366092
v -2.510738 2.968319 -1.366092
v -2.510738 2.968319 -1.366092
v -2.510738 2.968319 -1.366092
v -2.510738 2.968319 -1.366092
f 377 384 378
f 377 383 384
f 378 385 379
f 378 384 385
f 379 386 380
f 379 385 386
f 380 387 381
f 380 386 387
f 381 388 382
f 381 387 388
f 382 383 377
f 382 388 383
f 383 390 384
f 383 389 390
f 384 391 385
f 384 390 391
f 385 392 386
f 385 391 392
f 386 393 387
f 386 392 393
f 387 394 388
f 387 393 394
f 388 389 383
f 388 394 389
f 389 396 390
f 389 395 396
f 390 397 391
f 390 396 397
f 391 398 392
f 391 397 398
f 392 399 393
f 392 398 399
f 393 400 394
f 393 399 400
f 394 395 389
f 394 400 395
v -2.510738 2.997704 -1.341731
v -2.485738 3.003319 -1.366092
v -2.510738 3.008933 -1.390453
v -2.535738 3.003319 -1.366092
v -2.510738 3.638049 -1.201335
v -2.492738 3.642092 -1.218875
v -2.510738 3.646134 -1.236415
v -2.528738 3.642092 -1.218875
f 401 402 406
f 401 406 405
f 402 403 407
f 402 407 406
f 403 404 408
f 403 408 407
f 404 401 405
f 404 405 408
v -2.510738 3.677092 -1.218875
v -2.510738 3.677092 -1.218875
v -2.510738 3.677092 -1.218875
v -2.510738 3.677092 -1.218875
v -2.510738 3.677092 -1.218875
v -2.510738 3.677092 -1.218875
v -2.450116 3.659592 -1.218875
v -2.480427 3.659592 -1.271375
v -2.541048 3.659592 -1.271375
v -2.571359 3.659592 -1.218875
v -2.541048 3.659592 -1.166375
v -2.480427 3.659592 -1.166375
v -2.450116 3.624592 -1.218875
v -2.480427 3.624592 -1.271375
v -2.541048 3.624592 -1.271375
v -2.571359 3.624592 -1.218875
v -2.541048 3.624592 -1.166375
v -2.480427 3.624592 -1.166375
v -2.510738 3.607092 -1.218875
v -2.510738 3.607092 -1.218875
v -2.510738 3.607092 -1.218875
v -2.510738 3.607092 -1.218875
v -2.510738 3.607092 -1.218875
v -2.510738 3.607092 -1.218875
f 409 416 410
f 409 415 416
f 410 417 411
f 410 416 417
f 411 418 412
f 411 417 418
f 412 419 413
f 412 418 419
f 413 420 414
f 413 419 420
f 414 415 409
f 414 420 415
f 415 422 416
f 415 421 422
f 416 423 417
f 416 422 423
f 417 424 418
f 417 423 424
f 418 425 419
f 418 424 425
f 419 426 420
f 419 425 426
f 420 421 415
f 420 426 421
f 421 428 422
f 421 427 428
f 422 429 423
f 422 428 429
f 423 430 424
f 423 429 430
f 424 431 425
f 424 430 431
f 425 432 426
f 425 431 432
f 426 427 421
f 426 432 427
v 2.510738 0.459268 0.467639
v 2.535738 0.450000 0.444420
v 2.510738 0.440732 0.421202
v 2.485738 0.450000 0.444420
v 2.510738 1.061532 0.219705
v 2.528738 1.054859 0.202988
v 2.510738 1.048186 0.186270
v 2.492738 1.054859 0.202988
f 433 434 438
f 433 438 437
f 434 435 439
f 434 439 438
f 435 436 440
f 435 440 439
f 436 433 437
f 436 437 440
v 2.510738 1.089859 0.202988
v 2.510738 1.089859 0.202988
v 2.510738 1.089859 0.202988
v 2.510738 1.089859 0.202988
v 2.510738 1.089859 0.202988
v 2.510738 1.089859 0.202988
v 2.571359 1.072359 0.202988
v 2.541048 1.072359 0.150488
v 2.480427 1.072359 0.150488
v 2.450116 1.072359 0.202988
v 2.480427 1.072359 0.255488
v 2.541048 1.072359 0.255488
v 2.571359 1.037359 0.202988
v 2.541048 1.037359 0.150488
v 2.480427 1.037359 0.150488
v 2.450116 1.037359 0.202988
v 2.480427 1.037359 0.255488
v 2.541048 1.037359 0.255488
v 2.510738 1.019859 0.202988
v 2.510738 1.019859 0.202988
v 2.510738 1.019859 0.202988
v 2.510738 1.019859 0.202988
v 2.510738 1.019859 0.202988
v 2.510738 1.019859 0.202988
f 441 448 442
f 441 447 448
f 442 449 443
f 442 448 449
f 443 450 444
f 443 449 450
f 444 451 445
f 444 450 451
f 445 452 446
f 445 451 452
f 446 447 441
f 446 452 447
f 447 454 448
f 447 453 454
f 448 455 449
f 448 454 455
f 449 456 450
f 449 455 456
f 450 457 451
f 450 456 457
f 451 458 452
f 451 457 458
f 452 453 447
f 452 458 453
f 453 460 454
f 453 459 460
f 454 461 455
f 454 460 461
f 455 462 456
f 455 461 462
f 456 463 457
f 456 462 463
f 457 464 458
f 457 463 464
f 458 459 453
f 458 464 459
v 2.510738 1.058004 0.227789
v 2.535738 1.054859 0.202988
v 2.510738 1.051715 0.178186
v 2.485738 1.054859 0.202988
v 2.510738 1.482475 0.166917
v 2.528738 1.480211 0.149060
v 2.510738 1.477947 0.131203
v 2.492738 1.480211 0.149060
f 465 466 470
f 465 470 469
f 466 467 471
f 466 471 470
f 467 468 472
f 467 472 471
f 468 465 469
f 468 469 472
v 2.510738 1.515211 0.149060
v 2.510738 1.515211 0.149060
v 2.510738 1.515211 0.149060
v 2.510738 1.515211 0.149060
v 2.510738 1.515211 0.149060
v 2.510738 1.515211 0.149060
v 2.571359 1.497711 0.149060
v 2.541048 1.497711 0.096560
v 2.480427 1.497711 0.096560
v 2.450116 1.497711 0.149060
v 2.480427 1.497711 0.201560
v 2.541048 1.497711 0.201560
v 2.571359 1.462711 0.149060
v 2.541048 1.462711 0.096560
v 2.480427 1.462711 0.096560
v 2.450116 1.462711 0.149060
v 2.480427 1.462711 0.201560
v 2.541048 1.462711 0.201560
v 2.510738 1.445211 0.149060
v 2.510738 1.445211 0.149060
v 2.510738 1.445211 0.149060
v 2.510738 1.445211 0.149060
v 2.510738 1.445211 0.149060
v 2.510738 1.445211 0.149060
f 473 480 474
f 473 479 480
f 474 481 475
f 474 480 481
f 475 482 476
f 475 481 482
f 476 483 477
f 476 482 483
f 477 484 478
f 477 483 484
f 478 479 473
f 478 484 479
f 479 486 480
f 479 485 486
f 480 487 481
f 480 486 487
f 481 488 482
f 481 487 488
f 482 489 483
f 482 488 489
f 483 490 484
f 483 489 490
f 484 485 479
f 484 490 485
f 485 492 486
f 485 491 492
f 486 493 487
f 486 492 493
f 487 494 488
f 487 493 494
f 488 495 489
f 488 494 495
f 489 496 490
f 489 495 496
f 490 491 485
f 490 496 491
v 2.510738 1.489102 0.172425
v 2.535738 1.480211 0.149060
v 2.510738 1.471321 0.125694
v 2.485738 1.480211 0.149060
v 2.510738 1.850988 0.027237
v 2.528738 1.844587 0.010414
v 2.510738 1.838186 -0.006409
v 2.492738 1.844587 0.010414
f 497 498 502
f 497 502 501
f 498 499 503
f 498 503 502
f 499 500 504
f 499 504 503
f 500 497 501
f 500 501 504
v 2.510738 1.879587 0.010414
v 2.510738 1.879587 0.010414
v 2.510738 1.879587 0.010414
v 2.510738 1.879587 0.010414
v 2.510738 1.879587 0.010414
v 2.510738 1.879587 0.010414
v 2.571359 1.862087 0.010414
v 2.541048 1.862087 -0.042086
v 2.480427 1.862087 -0.042086
v 2.450116 1.862087 0.010414
v 2.480427 1.862087 0.062914
v 2.541048 1.862087 0.062914
v 2.571359 1.827087 0.010414
v 2.541048 1.827087 -0.042086
v 2.480427 1.827087 -0.042086
v 2.450116 1.827087 0.010414
v 2.480427 1.827087 0.062914
v 2.541048 1.827087 0.062914
v 2.510738 1.809587 0.010414
v 2.510738 1.809587 0.010414
v 2.510738 1.809587 0.010414
v 2.510738 1.809587 0.010414
v 2.510738 1.809587 0.010414
v 2.510738 1.809587 0.010414
f 505 512 506
f 505 511 512
f 506 513 507
f 506 512 513
f 507 514 508
f 507 513 514
f 508 515 509
f 508 514 515
f 509 516 510
f 509 515 516
f 510 511 505
f 510 516 511
f 511 518 512
f 511 517 518
f 512 519 513
f 512 518 519
f 513 520 514
f 513 519 520
f 514 521 515
f 514 520 521
f 515 522 516
f 515 521 522
f 516 517 511
f 516 522 517
f 517 524 518
f 517 523 524
f 518 525 519
f 518 524 525
f 519 526 520
f 519 525 526
f 520 527 521
f 520 526 527
f 521 528 522
f 521 527 528
f 522 523 517
f 522 528 523
v 2.510738 1.851776 0.034358
v 2.535738 1.844587 0.010414
v 2.510738 1.837399 -0.013530
v 2.485738 1.844587 0.010414
v 2.510738 2.451408 -0.152973
v 2.528738 2.446232 -0.170213
v 2.510738 2.441056 -0.187453
v 2.492738 2.446232 -0.170213
f 529 530 534
f 529 534 533
f 530 531 535
f 530 535 534
f 531 532 536
f 531 536 535
f 532 529 533
f 532 533 536
v 2.510738 2.439777 -0.146061
v 2.535738 2.446232 -0.170213
v 2.510738 2.452688 -0.194365
v 2.485738 2.446232 -0.170213
v 2.510738 2.861395 -0.040616
v 2.528738 2.866043 -0.058005
v 2.510738 2.870690 -0.075395
v 2.492738 2.866043 -0.058005
f 537 538 542
f 537 542 541
f 538 539 543
f 538 543 542
f 539 540 544
f 539 544 543
f 540 537 541
f 540 541 544
v 2.510738 2.901043 -0.058005
v 2.510738 2.901043 -0.058005
v 2.510738 2.901043 -0.058005
v 2.510738 2.901043 -0.058005
v 2.510738 2.901043 -0.058005
v 2.510738 2.901043 -0.058005
v 2.571359 2.883543 -0.058005
v 2.541048 2.883543 -0.110505
v 2.480427 2.883543 -0.110505
v 2.450116 2.883543 -0.058005
v 2.480427 2.883543 -0.005505
v 2.541048 2.883543 -0.005505
v 2.571359 2.848543 -0.058005
v 2.541048 2.848543 -0.110505
v 2.480427 2.848543 -0.110505
v 2.450116 2.848543 -0.058005
v 2.480427 2.848543 -0.005505
v 2.541048 2.848543 -0.005505
v 2.510738 2.831043 -0.058005
v 2.510738 2.831043 -0.058005
v 2.510738 2.831043 -0.058005
v 2.510738 2.831043 -0.058005
v 2.510738 2.831043 -0.058005
v 2.510738 2.831043 -0.058005
f 545 552 546
f 545 551 552
f 546 553 547
f 546 552 553
f 547 554 548
f 547 553 554
f 548 555 549
f 548 554 555
f 549 556 550
f 549 555 556
f 550 551 545
f 550 556 551
f 551 558 552
f 551 557 558
f 552 559 553
f 552 558 559
f 553 560 554
f 553 559 560
f 554 561 555
f 554 560 561
f 555 562 556
f 555 561 562
f 556 557 551
f 556 562 557
f 557 564 558
f 557 563 564
f 558 565 559
f 558 564 565
f 559 566 560
f 559 565 566
f 560 567 561
f 560 566 567
f 561 568 562
f 561 567 568
f 562 563 557
f 562 568 563
v -2.510738 0.449721 0.976685
v -2.485738 0.450000 0.951687
v -2.510738 0.450279 0.926689
v -2.535738 0.450000 0.951687
v -2.510738 0.935784 0.975106
v -2.492738 0.935985 0.957107
v -2.510738 0.936186 0.939109
v -2.528738 0.935985 0.957107
f 569 570 574
f 569 574 573
f 570 571 575
f 570 575 574
f 571 572 576
f 571 576 575
f 572 569 573
f 572 573 576
v -2.510738 0.930014 0.981384
v -2.485738 0.935985 0.957107
v -2.510738 0.941956 0.932831
v -2.535738 0.935985 0.957107
v -2.510738 1.487786 1.111359
v -2.492738 1.492085 1.093880
v -2.510738 1.496384 1.076401
v -2.528738 1.492085 1.093880
f 577 578 582
f 577 582 581
f 578 579 583
f 578 583 582
f 579 580 584
f 579 584 583
f 580 577 581
f 580 581 584
v -2.510738 1.527085 1.093880
v -2.510738 1.527085 1.093880
v -2.510738 1.527085 1.093880
v -2.510738 1.527085 1.093880
v -2.510738 1.527085 1.093880
v -2.510738 1.527085 1.093880
v -2.450116 1.509585 1.093880
v -2.480427 1.509585 1.041380
v -2.541048 1.509585 1.041380
v -2.571359 1.509585 1.093880
v -2.541048 1.509585 1.146380
v -2.480427 1.509585 1.146380
v -2.450116 1.474585 1.093880
v -2.480427 1.474585 1.041380
v -2.541048 1.474585 1.041380
v -2.571359 1.474585 1.093880
v -2.541048 1.474585 1.146380
v -2.480427 1.474585 1.146380
v -2.510738 1.457085 1.093880
v -2.510738 1.457085 1.093880
v -2.510738 1.457085 1.093880
v -2.510738 1.457085 1.093880
v -2.510738 1.457085 1.093880
v -2.510738 1.457085 1.093880
f 585 592 586
f 585 591 592
f 586 593 587
f 586 592 593
f 587 594 588
f 587 593 594
f 588 595 589
f 588 594 595
f 589 596 590
f 589 595 596
f 590 591 585
f 590 596 591
f 591 598 592
f 591 597 598
f 592 599 593
f 592 598 599
f 593 600 594
f 593 599 600
f 594 601 595
f 594 600 601
f 595 602 596
f 595 601 602
f 596 597 591
f 596 602 597
f 597 604 598
f 597 603 604
f 598 605 599
f 598 604 605
f 599 606 600
f 599 605 606
f 600 607 601
f 600 606 607
f 601 608 602
f 601 607 608
f 602 603 597
f 602 608 603
v -2.510738 1.502112 1.116781
v -2.485738 1.492085 1.093880
v -2.510738 1.482059 1.070979
v -2.535738 1.492085 1.093880
v -2.510738 1.869137 0.948445
v -2.492738 1.861918 0.931956
v -2.510738 1.854699 0.915467
v -2.528738 1.861918 0.931956
f 609 610 614
f 609 614 613
f 610 611 615
f 610 615 614
f 611 612 616
f 611 616 615
f 612 609 613
f 612 613 616
v -2.510738 1.896918 0.931956
v -2.510738 1.896918 0.931956
v -2.510738 1.896918 0.931956
v -2.510738 1.896918 0.931956
v -2.510738 1.896918 0.931956
v -2.510738 1.896918 0.931956
v -2.450116 1.879418 0.931956
v -2.480427 1.879418 0.879456
v -2.541048 1.879418 0.879456
v -2.571359 1.879418 0.931956
v -2.541048 1.879418 0.984456
v -2.480427 1.879418 0.984456
v -2.450116 1.844418 0.931956
v -2.480427 1.844418 0.879456
v -2.541048 1.844418 0.879456
v -2.571359 1.844418 0.931956
v -2.541048 1.844418 0.984456
v -2.480427 1.844418 0.984456
v -2.510738 1.826918 0.931956
v -2.510738 1.826918 0.931956
v -2.510738 1.826918 0.931956
v -2.510738 1.826918 0.931956
v -2.510738 1.826918 0.931956
v -2.510738 1.826918 0.931956
f 617 624 618
f 617 623 624
f 618 625 619
f 618 624 625
f 619 626 620
f 619 625 626
f 620 627 621
f 620 626 627
f 621 628 622
f 621 627 628
f 622 623 617
f 622 628 623
f 623 630 624
f 623 629 630
f 624 631 625
f 624 630 631
f 625 632 626
f 625 631 632
f 626 633 627
f 626 632 633
f 627 634 628
f 627 633 634
f 628 629 623
f 628 634 629
f 629 636 630
f 629 635 636
f 630 637 631
f 630 636 637
f 631 638 632
f 631 637 638
f 632 639 633
f 632 638 639
f 633 640 634
f 633 639 640
f 634 635 629
f 634 640 635
v -2.510738 1.865957 0.956627
v -2.485738 1.861918 0.931956
v -2.510738 1.857879 0.907284
v -2.535738 1.861918 0.931956
v -2.510738 2.358550 0.868895
v -2.492738 2.355642 0.851131
v -2.510738 2.352734 0.833368
v -2.528738 2.355642 0.851131
f 641 642 646
f 641 646 645
f 642 643 647
f 642 647 646
f 643 644 648
f 643 648 647
f 644 641 645
f 644 645 648
v -2.510738 2.390642 0.851131
v -2.510738 2.390642 0.851131
v -2.510738 2.390642 0.851131
v -2.510738 2.390642 0.851131
v -2.510738 2.390642 0.851131
v -2.510738 2.390642 0.851131
v -2.450116 2.373142 0.851131
v -2.480427 2.373142 0.798631
v -2.541048 2.373142 0.798631
v -2.571359 2.373142 0.851131
v -2.541048 2.373142 0.903631
v -2.480427 2.373142 0.903631
v -2.450116 2.338142 0.851131
v -2.480427 2.338142 0.798631
v -2.541048 2.338142 0.798631
v -2.571359 2.338142 0.851131
v -2.541048 2.338142 0.903631
v -2.480427 2.338142 0.903631
v -2.510738 2.320642 0.851131
v -2.510738 2.320642 0.851131
v -2.510738 2.320642 0.851131
v -2.510738 2.320642 0.851131
v -2.510738 2.320642 0.851131
v -2.510738 2.320642 0.851131
f 649 656 650
f 649 655 656
f 650 657 651
f 650 656 657
f 651 658 652
f 651 657 658
f 652 659 653
f 652 658 659
f 653 660 654
f 653 659 660
f 654 655 649
f 654 660 655
f 655 662 656
f 655 661 662
f 656 663 657
f 656 662 663
f 657 664 658
f 657 663 664
f 658 665 659
f 658 664 665
f 659 666 660
f 659 665 666
f 660 661 655
f 660 666 661
f 661 668 662
f 661 667 668
f 662 669 663
f 662 668 669
f 663 670 664
f 663 669 670
f 664 671 665
f 664 670 671
f 665 672 666
f 665 671 672
f 666 667 661
f 666 672 667
v 1.360506 0.450000 -1.803907
v 1.384370 0.442548 -1.828907
v 1.360506 0.450000 -1.853907
v 1.336643 0.457452 -1.828907
v 1.537903 1.018117 -1.810907
v 1.555085 1.012752 -1.828907
v 1.537903 1.018117 -1.846907
v 1.520722 1.023482 -1.828907
f 673 674 678
f 673 678 677
f 674 675 679
f 674 679 678
f 675 676 680
f 675 680 679
f 676 673 677
f 676 677 680
v 1.537903 1.053117 -1.828907
v 1.537903 1.053117 -1.828907
v 1.537903 1.053117 -1.828907
v 1.537903 1.053117 -1.828907
v 1.537903 1.053117 -1.828907
v 1.537903 1.053117 -1.828907
v 1.598525 1.035617 -1.828907
v 1.568214 1.035617 -1.881407
v 1.507593 1.035617 -1.881407
v 1.477282 1.035617 -1.828907
v 1.507593 1.035617 -1.776407
v 1.568214 1.035617 -1.776407
v 1.598525 1.000617 -1.828907
v 1.568214 1.000617 -1.881407
v 1.507593 1.000617 -1.881407
v 1.477282 1.000617 -1.828907
v 1.507593 1.000617 -1.776407
v 1.568214 1.000617 -1.776407
v 1.537903 0.983117 -1.828907
v 1.537903 0.983117 -1.828907
v 1.537903 0.983117 -1.828907
v 1.537903 0.983117 -1.828907
v 1.537903 0.983117 -1.828907
v 1.537903 0.983117 -1.828907
f 681 688 682
f 681 687 688
f 682 689 683
f 682 688 689
f 683 690 684
f 683 689 690
f 684 691 685
f 684 690 691
f 685 692 686
f 685 691 692
f 686 687 681
f 686 692 687
f 687 694 688
f 687 693 694
f 688 695 689
f 688 694 695
f 689 696 690
f 689 695 696
f 690 697 691
f 690 696 697
f 691 698 692
f 691 697 698
f 692 693 687
f 692 698 693
f 693 700 694
f 693 699 700
f 694 701 695
f 694 700 701
f 695 702 696
f 695 701 702
f 696 703 697
f 696 702 703
f 697 704 698
f 697 703 704
f 698 699 693
f 698 704 699
v 1.537903 1.018117 -1.803907
v 1.562495 1.013618 -1.828907
v 1.537903 1.018117 -1.853907
v 1.513312 1.022616 -1.828907
v 1.610065 1.412558 -1.810907
v 1.627771 1.409319 -1.828907
v 1.610065 1.412558 -1.846907
v 1.592359 1.415797 -1.828907
f 705 706 710
f 705 710 709
f 706 707 711
f 706 711 710
f 707 708 712
f 707 712 711
f 708 705 709
f 708 709 712
v 1.610065 1.447558 -1.828907
v 1.610065 1.447558 -1.828907
v 1.610065 1.447558 -1.828907
v 1.610065 1.447558 -1.828907
v 1.610065 1.447558 -1.828907
v 1.610065 1.447558 -1.828907
v 1.670686 1.430058 -1.828907
v 1.640376 1.430058 -1.881407
v 1.579754 1.430058 -1.881407
v 1.549443 1.430058 -1.828907
v 1.579754 1.430058 -1.776407
v 1.640376 1.430058 -1.776407
v 1.670686 1.395058 -1.828907
v 1.640376 1.395058 -1.881407
v 1.579754 1.395058 -1.881407
v 1.549443 1.395058 -1.828907
v 1.579754 1.395058 -1.776407
v 1.640376 1.395058 -1.776407
v 1.610065 1.377558 -1.828907
v 1.610065 1.377558 -1.828907
v 1.610065 1.377558 -1.828907
v 1.610065 1.377558 -1.828907
v 1.610065 1.377558 -1.828907
v 1.610065 1.377558 -1.828907
f 713 720 714
f 713 719 720
f 714 721 715
f 714 720 721
f 715 722 716
f 715 721 722
f 716 723 717
f 716 722 723
f 717 724 718
f 717 723 724
f 718 719 713
f 718 724 719
f 719 726 720
f 719 725 726
f 720 727 721
f 720 726 727
f 721 728 722
f 721 727 728
f 722 729 723
f 722 728 729
f 723 730 724
f 723 729 730
f 724 725 719
f 724 730 725
f 725 732 726
f 725 731 732
f 726 733 727
f 726 732 733
f 727 734 728
f 727 733 734
f 728 735 729
f 728 734 735
f 729 736 730
f 729 735 736
f 730 731 725
f 730 736 731
v 1.610065 1.412558 -1.803907
v 1.634949 1.414958 -1.828907
v 1.610065 1.412558 -1.853907
v 1.585180 1.410157 -1.828907
v 1.571772 1.809536 -1.810907
v 1.589689 1.811264 -1.828907
v 1.571772 1.809536 -1.846907
v 1.553855 1.807807 -1.828907
f 737 738 742
f 737 742 741
f 738 739 743
f 738 743 742
f 739 740 744
f 739 744 743
f 740 737 741
f 740 741 744
v 1.571772 1.844536 -1.828907
v 1.571772 1.844536 -1.828907
v 1.571772 1.844536 -1.828907
v 1.571772 1.844536 -1.828907
v 1.571772 1.844536 -1.828907
v 1.571772 1.844536 -1.828907
v 1.632394 1.827036 -1.828907
v 1.602083 1.827036 -1.881407
v 1.541461 1.827036 -1.881407
v 1.511151 1.827036 -1.828907
v 1.541461 1.827036 -1.776407
v 1.602083 1.827036 -1.776407
v 1.632394 1.792036 -1.828907
v 1.602083 1.792036 -1.881407
v 1.541461 1.792036 -1.881407
v 1.511151 1.792036 -1.828907
v 1.541461 1.792036 -1.776407
v 1.602083 1.792036 -1.776407
v 1.571772 1.774536 -1.828907
v 1.571772 1.774536 -1.828907
v 1.571772 1.774536 -1.828907
v 1.571772 1.774536 -1.828907
v 1.571772 1.774536 -1.828907
v 1.571772 1.774536 -1.828907
f 745 752 746
f 745 751 752
f 746 753 747
f 746 752 753
f 747 754 748
f 747 753 754
f 748 755 749
f 748 754 755
f 749 756 750
f 749 755 756
f 750 751 745
f 750 756 751
f 751 758 752
f 751 757 758
f 752 759 753
f 752 758 759
f 753 760 754
f 753 759 760
f 754 761 755
f 754 760 761
f 755 762 756
f 755 761 762
f 756 757 751
f 756 762 757
f 757 764 758
f 757 763 764
f 758 765 759
f 758 764 765
f 759 766 760
f 759 765 766
f 760 767 761
f 760 766 767
f 761 768 762
f 761 767 768
f 762 763 757
f 762 768 763
v -2.510738 0.444346 -0.075960
v -2.485738 0.450000 -0.100312
v -2.510738 0.455654 -0.124664
v -2.535738 0.450000 -0.100312
v -2.510738 0.810239 0.001808
v -2.492738 0.814310 -0.015726
v -2.510738 0.818381 -0.033259
v -2.528738 0.814310 -0.015726
f 769 770 774
f 769 774 773
f 770 771 775
f 770 775 774
f 771 772 776
f 771 776 775
f 772 769 773
f 772 773 776
v -2.510738 0.819827 0.008658
v -2.485738 0.814310 -0.015726
v -2.510738 0.808793 -0.040109
v -2.535738 0.814310 -0.015726
v -2.510738 1.251341 -0.096152
v -2.492738 1.247369 -0.113708
v -2.510738 1.243396 -0.131265
v -2.528738 1.247369 -0.113708
f 777 778 782
f 777 782 781
f 778 779 783
f 778 783 782
f 779 780 784
f 779 784 783
f 780 777 781
f 780 781 784
v -2.510738 1.282369 -0.113708
v -2.510738 1.282369 -0.113708
v -2.510738 1.282369 -0.113708
v -2.510738 1.282369 -0.113708
v -2.510738 1.282369 -0.113708
v -2.510738 1.282369 -0.113708
v -2.450116 1.264869 -0.113708
v -2.480427 1.264869 -0.166208
v -2.541048 1.264869 -0.166208
v -2.571359 1.264869 -0.113708
v -2.541048 1.264869 -0.061208
v -2.480427 1.264869 -0.061208
v -2.450116 1.229869 -0.113708
v -2.480427 1.229869 -0.166208
v -2.541048 1.229869 -0.166208
v -2.571359 1.229869 -0.113708
v -2.541048 1.229869 -0.061208
v -2.480427 1.229869 -0.061208
v -2.510738 1.212369 -0.113708
v -2.510738 1.212369 -0.113708
v -2.510738 1.212369 -0.113708
v -2.510738 1.212369 -0.113708
v -2.510738 1.212369 -0.113708
v -2.510738 1.212369 -0.113708
f 785 792 786
f 785 791 792
f 786 793 787
f 786 792 793
f 787 794 788
f 787 793 794
f 788 795 789
f 788 794 795
f 789 796 790
f 789 795 796
f 790 791 785
f 790 796 791
f 791 798 792
f 791 797 798
f 792 799 793
f 792 798 799
f 793 800 794
f 793 799 800
f 794 801 795
f 794 800 801
f 795 802 796
f 795 801 802
f 796 797 791
f 796 802 797
f 797 804 798
f 797 803 804
f 798 805 799
f 798 804 805
f 799 806 800
f 799 805 806
f 800 807 801
f 800 806 807
f 801 808 802
f 801 807 808
f 802 803 797
f 802 808 803
v -2.510738 1.252676 -0.089278
v -2.485738 1.247369 -0.113708
v -2.510738 1.242061 -0.138138
v -2.535738 1.247369 -0.113708
v -2.510738 1.879874 -0.232700
v -2.492738 1.876053 -0.250290
v -2.510738 1.872232 -0.267880
v -2.528738 1.876053 -0.250290
f 809 810 814
f 809 814 813
f 810 811 815
f 810 815 814
f 811 812 816
f 811 816 815
f 812 809 813
f 812 813 816
v -2.510738 1.911053 -0.250290
v -2.510738 1.911053 -0.250290
v -2.510738 1.911053 -0.250290
v -2.510738 1.911053 -0.250290
v -2.510738 1.911053 -0.250290
v -2.510738 1.911053 -0.250290
v -2.450116 1.893553 -0.250290
v -2.480427 1.893553 -0.302790
v -2.541048 1.893553 -0.302790
v -2.571359 1.893553 -0.250290
v -2.541048 1.893553 -0.197790
v -2.480427 1.893553 -0.197790
v -2.450116 1.858553 -0.250290
v -2.480427 1.858553 -0.302790
v -2.541048 1.858553 -0.302790
v -2.571359 1.858553 -0.250290
v -2.541048 1.858553 -0.197790
v -2.480427 1.858553 -0.197790
v -2.510738 1.841053 -0.250290
v -2.510738 1.841053 -0.250290
v -2.510738 1.841053 -0.250290
v -2.510738 1.841053 -0.250290
v -2.510738 1.841053 -0.250290
v -2.510738 1.841053 -0.250290
f 817 824 818
f 817 823 824
f 818 825 819
f 818 824 825
f 819 826 820
f 819 825 826
f 820 827 821
f 820 826 827
f 821 828 822
f 821 827 828
f 822 823 817
f 822 828 823
f 823 830 824
f 823 829 830
f 824 831 825
f 824 830 831
f 825 832 826
f 825 831 832
f 826 833 827
f 826 832 833
f 827 834 828
f 827 833 834
f 828 829 823
f 828 834 829
f 829 836 830
f 829 835 836
f 830 837 831
f 830 836 837
f 831 838 832
f 831 837 838
f 832 839 833
f 832 838 839
f 833 840 834
f 833 839 840
f 834 835 829
f 834 840 835
v -2.510738 1.868175 -0.226564
v -2.485738 1.876053 -0.250290
v -2.510738 1.883931 -0.274016
v -2.535738 1.876053 -0.250290
v -2.510738 2.341263 -0.076848
v -2.492738 2.346935 -0.093931
v -2.510738 2.352608 -0.111013
v -2.528738 2.346935 -0.093931
f 841 842 846
f 841 846 845
f 842 843 847
f 842 847 846
f 843 844 848
f 843 848 847
f 844 841 845
f 844 845 848
v -2.510738 2.351968 -0.069442
v -2.485738 2.346935 -0.093931
v -2.510738 2.341903 -0.118419
v -2.535738 2.346935 -0.093931
v -2.510738 2.890643 -0.187279
v -2.492738 2.887020 -0.204910
v -2.510738 2.883397 -0.222542
v -2.528738 2.887020 -0.204910
f 849 850 854
f 849 854 853
f 850 851 855
f 850 855 854
f 851 852 856
f 851 856 855
f 852 849 853
f 852 853 856
v -2.510738 2.922020 -0.204910
v -2.510738 2.922020 -0.204910
v -2.510738 2.922020 -0.204910
v -2.510738 2.922020 -0.204910
v -2.510738 2.922020 -0.204910
v -2.510738 2.922020 -0.204910
v -2.450116 2.904520 -0.204910
v -2.480427 2.904520 -0.257410
v -2.541048 2.904520 -0.257410
v -2.571359 2.904520 -0.204910
v -2.541048 2.904520 -0.152410
v -2.480427 2.904520 -0.152410
v -2.450116 2.869520 -0.204910
v -2.480427 2.869520 -0.257410
v -2.541048 2.869520 -0.257410
v -2.571359 2.869520 -0.204910
v -2.541048 2.869520 -0.152410
v -2.480427 2.869520 -0.152410
v -2.510738 2.852020 -0.204910
v -2.510738 2.852020 -0.204910
v -2.510738 2.852020 -0.204910
v -2.510738 2.852020 -0.204910
v -2.510738 2.852020 -0.204910
v -2.510738 2.852020 -0.204910
f 857 864 858
f 857 863 864
f 858 865 859
f 858 864 865
f 859 866 860
f 859 865 866
f 860 867 861
f 860 866 867
f 861 868 862
f 861 867 868
f 862 863 857
f 862 868 863
f 863 870 864
f 863 869 870
f 864 871 865
f 864 870 871
f 865 872 866
f 865 871 872
f 866 873 867
f 866 872 873
f 867 874 868
f 867 873 874
f 868 869 863
f 868 874 869
f 869 876 870
f 869 875 876
f 870 877 871
f 870 876 877
f 871 878 872
f 871 877 878
f 872 879 873
f 872 878 879
f 873 880 874
f 873 879 880
f 874 875 869
f 874 880 875
v -2.510738 0.440756 1.071056
v -2.485738 0.450000 1.047828
v -2.510738 0.459244 1.024600
v -2.535738 0.450000 1.047828
v -2.510738 0.928420 1.257598
v -2.492738 0.935075 1.240873
v -2.510738 0.941731 1.224149
v -2.528738 0.935075 1.240873
f 881 882 886
f 881 886 885
f 882 883 887
f 882 887 886
f 883 884 888
f 883 888 887
f 884 881 885
f 884 885 888
v -2.510738 0.970075 1.240873
v -2.510738 0.970075 1.240873
v -2.510738 0.970075 1.240873
v -2.510738 0.970075 1.240873
v -2.510738 0.970075 1.240873
v -2.510738 0.970075 1.240873
v -2.450116 0.952575 1.240873
v -2.480427 0.952575 1.188373
v -2.541048 0.952575 1.188373
v -2.571359 0.952575 1.240873
v -2.541048 0.952575 1.293373
v -2.480427 0.952575 1.293373
v -2.450116 0.917575 1.240873
v -2.480427 0.917575 1.188373
v -2.541048 0.917575 1.188373
v -2.571359 0.917575 1.240873
v -2.541048 0.917575 1.293373
v -2.480427 0.917575 1.293373
v -2.510738 0.900075 1.240873
v -2.510738 0.900075 1.240873
v -2.510738 0.900075 1.240873
v -2.510738 0.900075 1.240873
v -2.510738 0.900075 1.240873
v -2.510738 0.900075 1.240873
f 889 896 890
f 889 895 896
f 890 897 891
f 890 896 897
f 891 898 892
f 891 897 898
f 892 899 893
f 892 898 899
f 893 900 894
f 893 899 900
f 894 895 889
f 894 900 895
f 895 902 896
f 895 901 902
f 896 903 897
f 896 902 903
f 897 904 898
f 897 903 904
f 898 905 899
f 898 904 905
f 899 906 900
f 899 905 906
f 900 901 895
f 900 906 901
f 901 908 902
f 901 907 908
f 902 909 903
f 902 908 909
f 903 910 904
f 903 909 910
f 904 911 905
f 904 910 911
f 905 912 906
f 905 911 912
f 906 907 901
f 906 912 907
v -2.510738 0.940942 1.265175
v -2.485738 0.935075 1.240873
v -2.510738 0.929209 1.216571
v -2.535738 0.935075 1.240873
v -2.510738 1.633702 1.090752
v -2.492738 1.629479 1.073254
v -2.510738 1.625255 1.055757
v -2.528738 1.629479 1.073254
f 913 914 918
f 913 918 917
f 914 915 919
f 914 919 918
f 915 916 920
f 915 920 919
f 916 913 917
f 916 917 920
v -2.510738 1.623939 1.097633
v -2.485738 1.629479 1.073254
v -2.510738 1.635018 1.048876
v -2.535738 1.629479 1.073254
v -2.510738 2.244321 1.231427
v -2.492738 2.248310 1.213875
v -2.510738 2.252298 1.196322
v -2.528738 2.248310 1.213875
f 921 922 926
f 921 926 925
f 922 923 927
f 922 927 926
f 923 924 928
f 923 928 927
f 924 921 925
f 924 925 928
v -2.510738 2.251322 1.238693
v -2.485738 2.248310 1.213875
v -2.510738 2.245298 1.189057
v -2.535738 2.248310 1.213875
v -2.510738 2.828445 1.161593
v -2.492738 2.826276 1.143724
v -2.510738 2.824108 1.125855
v -2.528738 2.826276 1.143724
f 929 930 934
f 929 934 933
f 930 931 935
f 930 935 934
f 931 932 936
f 931 936 935
f 932 929 933
f 932 933 936
v -2.510738 2.861276 1.143724
v -2.510738 2.861276 1.143724
v -2.510738 2.861276 1.143724
v -2.510738 2.861276 1.143724
v -2.510738 2.861276 1.143724
v -2.510738 2.861276 1.143724
v -2.450116 2.843776 1.143724
v -2.480427 2.843776 1.091224
v -2.541048 2.843776 1.091224
v -2.571359 2.843776 1.143724
v -2.541048 2.843776 1.196224
v -2.480427 2.843776 1.196224
v -2.450116 2.808776 1.143724
v -2.480427 2.808776 1.091224
v -2.541048 2.808776 1.091224
v -2.571359 2.808776 1.143724
v -2.541048 2.808776 1.196224
v -2.480427 2.808776 1.196224
v -2.510738 2.791276 1.143724
v -2.510738 2.791276 1.143724
v -2.510738 2.791276 1.143724
v -2.510738 2.791276 1.143724
v -2.510738 2.791276 1.143724
v -2.510738 2.791276 1.143724
f 937 944 938
f 937 943 944
f 938 945 939
f 938 944 945
f 939 946 940
f 939 945 946
f 940 947 941
f 940 946 947
f 941 948 942
f 941 947 948
f 942 943 937
f 942 948 943
f 943 950 944
f 943 949 950
f 944 951 945
f 944 950 951
f 945 952 946
f 945 951 952
f 946 953 947
f 946 952 953
f 947 954 948
f 947 953 954
f 948 949 943
f 948 954 949
f 949 956 950
f 949 955 956
f 950 957 951
f 950 956 957
f 951 958 952
f 951 957 958
f 952 959 953
f 952 958 959
f 953 960 954
f 953 959 960
f 954 955 949
f 954 960 955
v -2.510738 2.829668 1.168493
v -2.485738 2.826276 1.143724
v -2.510738 2.822885 1.118955
v -2.535738 2.826276 1.143724
v -2.510738 3.483019 1.071969
v -2.492738 3.480577 1.054135
v -2.510738 3.478135 1.036302
v -2.528738 3.480577 1.054135
f 961 962 966
f 961 966 965
f 962 963 967
f 962 967 966
f 963 964 968
f 963 968 967
f 964 961 965
f 964 965 968
v -2.510738 3.515577 1.054135
v -2.510738 3.515577 1.054135
v -2.510738 3.515577 1.054135
v -2.510738 3.515577 1.054135
v -2.510738 3.515577 1.054135
v -2.510738 3.515577 1.054135
v -2.450116 3.498077 1.054135
v -2.480427 3.498077 1.001635
v -2.541048 3.498077 1.001635
v -2.571359 3.498077 1.054135
v -2.541048 3.498077 1.106635
v -2.480427 3.498077 1.106635
v -2.450116 3.463077 1.054135
v -2.480427 3.463077 1.001635
v -2.541048 3.463077 1.001635
v -2.571359 3.463077 1.054135
v -2.541048 3.463077 1.106635
v -2.480427 3.463077 1.106635
v -2.510738 3.445577 1.054135
v -2.510738 3.445577 1.054135
v -2.510738 3.445577 1.054135
v -2.510738 3.445577 1.054135
v -2.510738 3.445577 1.054135
v -2.510738 3.445577 1.054135
f 969 976 970
f 969 975 976
f 970 977 971
f 970 976 977
f 971 978 972
f 971 977 978
f 972 979 973
f 972 978 979
f 973 980 974
f 973 979 980
f 974 975 969
f 974 980 975
f 975 982 976
f 975 981 982
f 976 983 977
f 976 982 983
f 977 984 978
f 977 983 984
f 978 985 979
f 978 984 985
f 979 986 980
f 979 985 986
f 980 981 975
f 980 986 981
f 981 988 982
f 981 987 988
f 982 989 983
f 982 988 989
f 983 990 984
f 983 989 990
f 984 991 985
f 984 990 991
f 985 992 986
f 985 991 992
f 986 987 981
f 986 992 987
v -2.510738 3.475518 1.078618
v -2.485738 3.480577 1.054135
v -2.510738 3.485636 1.029653
v -2.535738 3.480577 1.054135
v -2.510738 3.954985 1.170548
v -2.492738 3.958628 1.152921
v -2.510738 3.962270 1.135293
v -2.528738 3.958628 1.152921
f 993 994 998
f 993 998 997
f 994 995 999
f 994 999 998
f 995 996 1000
f 995 1000 999
f 996 993 997
f 996 997 1000
v -2.510738 3.993628 1.152921
v -2.510738 3.993628 1.152921
v -2.510738 3.993628 1.152921
v -2.510738 3.993628 1.152921
v -2.510738 3.993628 1.152921
v -2.510738 3.993628 1.152921
v -2.450116 3.976128 1.152921
v -2.480427 3.976128 1.100421
v -2.541048 3.976128 1.100421
v -2.571359 3.976128 1.152921
v -2.541048 3.976128 1.205421
v -2.480427 3.976128 1.205421
v -2.450116 3.941128 1.152921
v -2.480427 3.941128 1.100421
v -2.541048 3.941128 1.100421
v -2.571359 3.941128 1.152921
v -2.541048 3.941128 1.205421
v -2.480427 3.941128 1.205421
v -2.510738 3.923628 1.152921
v -2.510738 3.923628 1.152921
v -2.510738 3.923628 1.152921
v -2.510738 3.923628 1.152921
v -2.510738 3.923628 1.152921
v -2.510738 3.923628 1.152921
f 1001 1008 1002
f 1001 1007 1008
f 1002 1009 1003
f 1002 1008 1009
f 1003 1010 1004
f 1003 1009 1010
f 1004 1011 1005
f 1004 1010 1011
f 1005 1012 1006
f 1005 1011 1012
f 1006 1007 1001
f 1006 1012 1007
f 1007 1014 1008
f 1007 1013 1014
f 1008 1015 1009
f 1008 1014 1015
f 1009 1016 1010
f 1009 1015 1016
f 1010 1017 1011
f 1010 1016 1017
f 1011 1018 1012
f 1011 1017 1018
f 1012 1013 1007
f 1012 1018 1013
f 1013 1020 1014
f 1013 1019 1020
f 1014 1021 1015
f 1014 1020 1021
f 1015 1022 1016
f 1015 1021 1022
f 1016 1023 1017
f 1016 1022 1023
f 1017 1024 1018
f 1017 1023 1024
f 1018 1019 1013
f 1018 1024 1019
v -2.510738 0.457104 0.458194
v -2.485738 0.450000 0.434225
v -2.510738 0.442896 0.410255
v -2.535738 0.450000 0.434225
v -2.510738 1.153777 0.244428
v -2.492738 1.148663 0.227170
v -2.510738 1.143548 0.209912
v -2.528738 1.148663 0.227170
f 1025 1026 1030
f 1025 1030 1029
f 1026 1027 1031
f 1026 1031 1030
f 1027 1028 1032
f 1027 1032 1031
f 1028 1025 1029
f 1028 1029 1032
v -2.510738 1.183663 0.227170
v -2.510738 1.183663 0.227170
v -2.510738 1.183663 0.227170
v -2.510738 1.183663 0.227170
v -2.510738 1.183663 0.227170
v -2.510738 1.183663 0.227170
v -2.450116 1.166163 0.227170
v -2.480427 1.166163 0.174670
v -2.541048 1.166163 0.174670
v -2.571359 1.166163 0.227170
v -2.541048 1.166163 0.279670
v -2.480427 1.166163 0.279670
v -2.450116 1.131163 0.227170
v -2.480427 1.131163 0.174670
v -2.541048 1.131163 0.174670
v -2.571359 1.131163 0.227170
v -2.541048 1.131163 0.279670
v -2.480427 1.131163 0.279670
v -2.510738 1.113663 0.227170
v -2.510738 1.113663 0.227170
v -2.510738 1.113663 0.227170
v -2.510738 1.113663 0.227170
v -2.510738 1.113663 0.227170
v -2.510738 1.113663 0.227170
f 1033 1040 1034
f 1033 1039 1040
f 1034 1041 1035
f 1034 1040 1041
f 1035 1042 1036
f 1035 1041 1042
f 1036 1043 1037
f 1036 1042 1043
f 1037 1044 1038
f 1037 1043 1044
f 1038 1039 1033
f 1038 1044 1039
f 1039 1046 1040
f 1039 1045 1046
f 1040 1047 1041
f 1040 1046 1047
f 1041 1048 1042
f 1041 1047 1048
f 1042 1049 1043
f 1042 1048 1049
f 1043 1050 1044
f 1043 1049 1050
f 1044 1045 1039
f 1044 1050 1045
f 1045 1052 1046
f 1045 1051 1052
f 1046 1053 1047
f 1046 1052 1053
f 1047 1054 1048
f 1047 1053 1054
f 1048 1055 1049
f 1048 1054 1055
f 1049 1056 1050
f 1049 1055 1056
f 1050 1051 1045
f 1050 1056 1051
v -2.510738 1.143542 0.251640
v -2.485738 1.148663 0.227170
v -2.510738 1.153783 0.202700
v -2.535738 1.148663 0.227170
v -2.510738 1.711213 0.363278
v -2.492738 1.714900 0.345660
v -2.510738 1.718586 0.328041
v -2.528738 1.714900 0.345660
f 1057 1058 1062
f 1057 1062 1061
f 1058 1059 1063
f 1058 1063 1062
f 1059 1060 1064
f 1059 1064 1063
f 1060 1057 1061
f 1060 1061 1064
v -2.510738 1.749900 0.345660
v -2.510738 1.749900 0.345660
v -2.510738 1.749900 0.345660
v -2.510738 1.749900 0.345660
v -2.510738 1.749900 0.345660
v -2.510738 1.749900 0.345660
v -2.450116 1.732400 0.345660
v -2.480427 1.732400 0.293160
v -2.541048 1.732400 0.293160
v -2.571359 1.732400 0.345660
v -2.541048 1.732400 0.398160
v -2.480427 1.732400 0.398160
v -2.450116 1.697400 0.345660
v -2.480427 1.697400 0.293160
v -2.541048 1.697400 0.293160
v -2.571359 1.697400 0.345660
v -2.541048 1.697400 0.398160
v -2.480427 1.697400 0.398160
v -2.510738 1.679900 0.345660
v -2.510738 1.679900 0.345660
v -2.510738 1.679900 0.345660
v -2.510738 1.679900 0.345660
v -2.510738 1.679900 0.345660
v -2.510738 1.679900 0.345660
f 1065 1072 1066
f 1065 1071 1072
f 1066 1073 1067
f 1066 1072 1073
f 1067 1074 1068
f 1067 1073 1074
f 1068 1075 1069
f 1068 1074 1075
f 1069 1076 1070
f 1069 1075 1076
f 1070 1071 1065
f 1070 1076 1071
f 1071 1078 1072
f 1071 1077 1078
f 1072 1079 1073
f 1072 1078 1079
f 1073 1080 1074
f 1073 1079 1080
f 1074 1081 1075
f 1074 1080 1081
f 1075 1082 1076
f 1075 1081 1082
f 1076 1077 1071
f 1076 1082 1077
f 1077 1084 1078
f 1077 1083 1084
f 1078 1085 1079
f 1078 1084 1085
f 1079 1086 1080
f 1079 1085 1086
f 1080 1087 1081
f 1080 1086 1087
f 1081 1088 1082
f 1081 1087 1088
f 1082 1083 1077
f 1082 1088 1083
v -2.510738 1.718380 0.370416
v -2.485738 1.714900 0.345660
v -2.510738 1.711420 0.320903
v -2.535738 1.714900 0.345660
v -2.510738 2.312979 0.279767
v -2.492738 2.310474 0.261943
v -2.510738 2.307968 0.244118
v -2.528738 2.310474 0.261943
f 1089 1090 1094
f 1089 1094 1093
f 1090 1091 1095
f 1090 1095 1094
f 1091 1092 1096
f 1091 1096 1095
f 1092 1089 1093
f 1092 1093 1096
v -2.510738 2.345474 0.261943
v -2.510738 2.345474 0.261943
v -2.510738 2.345474 0.261943
v -2.510738 2.345474 0.261943
v -2.510738 2.345474 0.261943
v -2.510738 2.345474 0.261943
v -2.450116 2.327974 0.261943
v -2.480427 2.327974 0.209443
v -2.541048 2.327974 0.209443
v -2.571359 2.327974 0.261943
v -2.541048 2.327974 0.314443
v -2.480427 2.327974 0.314443
v -2.450116 2.292974 0.261943
v -2.480427 2.292974 0.209443
v -2.541048 2.292974 0.209443
v -2.571359 2.292974 0.261943
v -2.541048 2.292974 0.314443
v -2.480427 2.292974 0.314443
v -2.510738 2.275474 0.261943
v -2.510738 2.275474 0.261943
v -2.510738 2.275474 0.261943
v -2.510738 2.275474 0.261943
v -2.510738 2.275474 0.261943
v -2.510738 2.275474 0.261943
f 1097 1104 1098
f 1097 1103 1104
f 1098 1105 1099
f 1098 1104 1105
f 1099 1106 1100
f 1099 1105 1106
f 1100 1107 1101
f 1100 1106 1107
f 1101 1108 1102
f 1101 1107 1108
f 1102 1103 1097
f 1102 1108 1103
f 1103 1110 1104
f 1103 1109 1110
f 1104 1111 1105
f 1104 1110 1111
f 1105 1112 1106
f 1105 1111 1112
f 1106 1113 1107
f 1106 1112 1113
f 1107 1114 1108
f 1107 1113 1114
f 1108 1109 1103
f 1108 1114 1109
f 1109 1116 1110
f 1109 1115 1116
f 1110 1117 1111
f 1110 1116 1117
f 1111 1118 1112
f 1111 1117 1118
f 1112 1119 1113
f 1112 1118 1119
f 1113 1120 1114
f 1113 1119 1120
f 1114 1115 1109
f 1114 1120 1115
v -2.510738 2.318259 0.285700
v -2.485738 2.310474 0.261943
v -2.510738 2.302688 0.238186
v -2.535738 2.310474 0.261943
v -2.510738 2.969907 0.064788
v -2.492738 2.964301 0.047683
v -2.510738 2.958696 0.030578
v -2.528738 2.964301 0.047683
f 1121 1122 1126
f 1121 1126 1125
f 1122 1123 1127
f 1122 1127 1126
f 1123 1124 1128
f 1123 1128 1127
f 1124 1121 1125
f 1124 1125 1128
v -2.510738 2.999301 0.047683
v -2.510738 2.999301 0.047683
v -2.510738 2.999301 0.047683
v -2.510738 2.999301 0.047683
v -2.510738 2.999301 0.047683
v -2.510738 2.999301 0.047683
v -2.450116 2.981801 0.047683
v -2.480427 2.981801 -0.004817
v -2.541048 2.981801 -0.004817
v -2.571359 2.981801 0.047683
v -2.541048 2.981801 0.100183
v -2.480427 2.981801 0.100183
v -2.450116 2.946801 0.047683
v -2.480427 2.946801 -0.004817
v -2.541048 2.946801 -0.004817
v -2.571359 2.946801 0.047683
v -2.541048 2.946801 0.100183
v -2.480427 2.946801 0.100183
v -2.510738 2.929301 0.047683
v -2.510738 2.929301 0.047683
v -2.510738 2.929301 0.047683
v -2.510738 2.929301 0.047683
v -2.510738 2.929301 0.047683
v -2.510738 2.929301 0.047683
f 1129 1136 1130
f 1129 1135 1136
f 1130 1137 1131
f 1130 1136 1137
f 1131 1138 1132
f 1131 1137 1138
f 1132 1139 1133
f 1132 1138 1139
f 1133 1140 1134
f 1133 1139 1140
f 1134 1135 1129
f 1134 1140 1135
f 1135 1142 1136
f 1135 1141 1142
f 1136 1143 1137
f 1136 1142 1143
f 1137 1144 1138
f 1137 1143 1144
f 1138 1145 1139
f 1138 1144 1145
f 1139 1146 1140
f 1139 1145 1146
f 1140 1141 1135
f 1140 1146 1141
f 1141 1148 1142
f 1141 1147 1148
f 1142 1149 1143
f 1142 1148 1149
f 1143 1150 1144
f 1143 1149 1150
f 1144 1151 1145
f 1144 1150 1151
f 1145 1152 1146
f 1145 1151 1152
f 1146 1147 1141
f 1146 1152 1147
v -2.510738 2.966499 0.072586
v -2.485738 2.964301 0.047683
v -2.510738 2.962103 0.022780
v -2.535738 2.964301 0.047683
v -2.510738 3.390102 0.028171
v -2.492738 3.388519 0.010241
v -2.510738 3.386937 -0.007689
v -2.528738 3.388519 0.010241
f 1153 1154 1158
f 1153 1158 1157
f 1154 1155 1159
f 1154 1159 1158
f 1155 1156 1160
f 1155 1160 1159
f 1156 1153 1157
f 1156 1157 1160
v -2.510738 3.381716 0.034297
v -2.485738 3.388519 0.010241
v -2.510738 3.395323 -0.013815
v -2.535738 3.388519 0.010241
v -2.510738 3.855461 0.161007
v -2.492738 3.860360 0.143687
v -2.510738 3.865258 0.126366
v -2.528738 3.860360 0.143687
f 1161 1162 1166
f 1161 1166 1165
f 1162 1163 1167
f 1162 1167 1166
f 1163 1164 1168
f 1163 1168 1167
f 1164 1161 1165
f 1164 1165 1168
v -2.510738 3.895360 0.143687
v -2.510738 3.895360 0.143687
v -2.510738 3.895360 0.143687
v -2.510738 3.895360 0.143687
v -2.510738 3.895360 0.143687
v -2.510738 3.895360 0.143687
v -2.450116 3.877860 0.143687
v -2.480427 3.877860 0.091187
v -2.541048 3.877860 0.091187
v -2.571359 3.877860 0.143687
v -2.541048 3.877860 0.196187
v -2.480427 3.877860 0.196187
v -2.450116 3.842860 0.143687
v -2.480427 3.842860 0.091187
v -2.541048 3.842860 0.091187
v -2.571359 3.842860 0.143687
v -2.541048 3.842860 0.196187
v -2.480427 3.842860 0.196187
v -2.510738 3.825360 0.143687
v -2.510738 3.825360 0.143687
v -2.510738 3.825360 0.143687
v -2.510738 3.825360 0.143687
v -2.510738 3.825360 0.143687
v -2.510738 3.825360 0.143687
f 1169 1176 1170
f 1169 1175 1176
f 1170 1177 1171
f 1170 1176 1177
f 1171 1178 1172
f 1171 1177 1178
f 1172 1179 1173
f 1172 1178 1179
f 1173 1180 1174
f 1173 1179 1180
f 1174 1175 1169
f 1174 1180 1175
f 1175 1182 1176
f 1175 1181 1182
f 1176 1183 1177
f 1176 1182 1183
f 1177 1184 1178
f 1177 1183 1184
f 1178 1185 1179
f 1178 1184 1185
f 1179 1186 1180
f 1179 1185 1186
f 1180 1181 1175
f 1180 1186 1181
f 1181 1188 1182
f 1181 1187 1188
f 1182 1189 1183
f 1182 1188 1189
f 1183 1190 1184
f 1183 1189 1190
f 1184 1191 1185
f 1184 1190 1191
f 1185 1192 1186
f 1185 1191 1192
f 1186 1187 1181
f 1186 1192 1187
v -0.289200 0.450000 -1.803907
v -0.264737 0.444846 -1.828907
v -0.289200 0.450000 -1.853907
v -0.313663 0.455154 -1.828907
v -0.157860 1.073447 -1.810907
v -0.140247 1.069736 -1.828907
v -0.157860 1.073447 -1.846907
v -0.175474 1.077158 -1.828907
f 1193 1194 1198
f 1193 1198 1197
f 1194 1195 1199
f 1194 1199 1198
f 1195 1196 1200
f 1195 1200 1199
f 1196 1193 1197
f 1196 1197 1200
v -0.157860 1.108447 -1.828907
v -0.157860 1.108447 -1.828907
v -0.157860 1.108447 -1.828907
v -0.157860 1.108447 -1.828907
v -0.157860 1.108447 -1.828907
v -0.157860 1.108447 -1.828907
v -0.097238 1.090947 -1.828907
v -0.127549 1.090947 -1.881407
v -0.188171 1.090947 -1.881407
v -0.218482 1.090947 -1.828907
v -0.188171 1.090947 -1.776407
v -0.127549 1.090947 -1.776407
v -0.097238 1.055947 -1.828907
v -0.127549 1.055947 -1.881407
v -0.188171 1.055947 -1.881407
v -0.218482 1.055947 -1.828907
v -0.188171 1.055947 -1.776407
v -0.127549 1.055947 -1.776407
v -0.157860 1.038447 -1.828907
v -0.157860 1.038447 -1.828907
v -0.157860 1.038447 -1.828907
v -0.157860 1.038447 -1.828907
v -0.157860 1.038447 -1.828907
v -0.157860 1.038447 -1.828907
f 1201 1208 1202
f 1201 1207 1208
f 1202 1209 1203
f 1202 1208 1209
f 1203 1210 1204
f 1203 1209 1210
f 1204 1211 1205
f 1204 1210 1211
f 1205 1212 1206
f 1205 1211 1212
f 1206 1207 1201
f 1206 1212 1207
f 1207 1214 1208
f 1207 1213 1214
f 1208 1215 1209
f 1208 1214 1215
f 1209 1216 1210
f 1209 1215 1216
f 1210 1217 1211
f 1210 1216 1217
f 1211 1218 1212
f 1211 1217 1218
f 1212 1213 1207
f 1212 1218 1213
f 1213 1220 1214
f 1213 1219 1220
f 1214 1221 1215
f 1214 1220 1221
f 1215 1222 1216
f 1215 1221 1222
f 1216 1223 1217
f 1216 1222 1223
f 1217 1224 1218
f 1217 1223 1224
f 1218 1219 1213
f 1218 1224 1219
v -0.157860 1.073447 -1.803907
v -0.132862 1.073793 -1.828907
v -0.157860 1.073447 -1.853907
v -0.182858 1.073102 -1.828907
v -0.164773 1.573564 -1.810907
v -0.146774 1.573813 -1.828907
v -0.164773 1.573564 -1.846907
v -0.182771 1.573315 -1.828907
f 1225 1226 1230
f 1225 1230 1229
f 1226 1227 1231
f 1226 1231 1230
f 1227 1228 1232
f 1227 1232 1231
f 1228 1225 1229
f 1228 1229 1232
v -0.164773 1.608564 -1.828907
v -0.164773 1.608564 -1.828907
v -0.164773 1.608564 -1.828907
v -0.164773 1.608564 -1.828907
v -0.164773 1.608564 -1.828907
v -0.164773 1.608564 -1.828907
v -0.104151 1.591064 -1.828907
v -0.134462 1.591064 -1.881407
v -0.195084 1.591064 -1.881407
v -0.225394 1.591064 -1.828907
v -0.195084 1.591064 -1.776407
v -0.134462 1.591064 -1.776407
v -0.104151 1.556064 -1.828907
v -0.134462 1.556064 -1.881407
v -0.195084 1.556064 -1.881407
v -0.225394 1.556064 -1.828907
v -0.195084 1.556064 -1.776407
v -0.134462 1.556064 -1.776407
v -0.164773 1.538564 -1.828907
v -0.164773 1.538564 -1.828907
v -0.164773 1.538564 -1.828907
v -0.164773 1.538564 -1.828907
v -0.164773 1.538564 -1.828907
v -0.164773 1.538564 -1.828907
f 1233 1240 1234
f 1233 1239 1240
f 1234 1241 1235
f 1234 1240 1241
f 1235 1242 1236
f 1235 1241 1242
f 1236 1243 1237
f 1236 1242 1243
f 1237 1244 1238
f 1237 1243 1244
f 1238 1239 1233
f 1238 1244 1239
f 1239 1246 1240
f 1239 1245 1246
f 1240 1247 1241
f 1240 1246 1247
f 1241 1248 1242
f 1241 1247 1248
f 1242 1249 1243
f 1242 1248 1249
f 1243 1250 1244
f 1243 1249 1250
f 1244 1245 1239
f 1244 1250 1245
f 1245 1252 1246
f 1245 1251 1252
f 1246 1253 1247
f 1246 1252 1253
f 1247 1254 1248
f 1247 1253 1254
f 1248 1255 1249
f 1248 1254 1255
f 1249 1256 1250
f 1249 1255 1256
f 1250 1251 1245
f 1250 1256 1251
v -0.164773 1.573564 -1.803907
v -0.142110 1.563009 -1.828907
v -0.164773 1.573564 -1.853907
v -0.187435 1.584119 -1.828907
v 0.052506 2.040074 -1.810907
v 0.068823 2.032475 -1.828907
v 0.052506 2.040074 -1.846907
v 0.036189 2.047674 -1.828907
f 1257 1258 1262
f 1257 1262 1261
f 1258 1259 1263
f 1258 1263 1262
f 1259 1260 1264
f 1259 1264 1263
f 1260 1257 1261
f 1260 1261 1264
v 0.052506 2.075074 -1.828907
v 0.052506 2.075074 -1.828907
v 0.052506 2.075074 -1.828907
v 0.052506 2.075074 -1.828907
v 0.052506 2.075074 -1.828907
v 0.052506 2.075074 -1.828907
v 0.113128 2.057574 -1.828907
v 0.082817 2.057574 -1.881407
v 0.022196 2.057574 -1.881407
v -0.008115 2.057574 -1.828907
v 0.022196 2.057574 -1.776407
v 0.082817 2.057574 -1.776407
v 0.113128 2.022574 -1.828907
v 0.082817 2.022574 -1.881407
v 0.022196 2.022574 -1.881407
v -0.008115 2.022574 -1.828907
v 0.022196 2.022574 -1.776407
v 0.082817 2.022574 -1.776407
v 0.052506 2.005074 -1.828907
v 0.052506 2.005074 -1.828907
v 0.052506 2.005074 -1.828907
v 0.052506 2.005074 -1.828907
v 0.052506 2.005074 -1.828907
v 0.052506 2.005074 -1.828907
f 1265 1272 1266
f 1265 1271 1272
f 1266 1273 1267
f 1266 1272 1273
f 1267 1274 1268
f 1267 1273 1274
f 1268 1275 1269
f 1268 1274 1275
f 1269 1276 1270
f 1269 1275 1276
f 1270 1271 1265
f 1270 1276 1271
f 1271 1278 1272
f 1271 1277 1278
f 1272 1279 1273
f 1272 1278 1279
f 1273 1280 1274
f 1273 1279 1280
f 1274 1281 1275
f 1274 1280 1281
f 1275 1282 1276
f 1275 1281 1282
f 1276 1277 1271
f 1276 1282 1277
f 1277 1284 1278
f 1277 1283 1284
f 1278 1285 1279
f 1278 1284 1285
f 1279 1286 1280
f 1279 1285 1286
f 1280 1287 1281
f 1280 1286 1287
f 1281 1288 1282
f 1281 1287 1288
f 1282 1283 1277
f 1282 1288 1283
v 0.052506 2.040074 -1.803907
v 0.075613 2.049618 -1.828907
v 0.052506 2.040074 -1.853907
v 0.029400 2.030531 -1.828907
v -0.107816 2.428252 -1.810907
v -0.091179 2.435123 -1.828907
v -0.107816 2.428252 -1.846907
v -0.124453 2.421380 -1.828907
f 1289 1290 1294
f 1289 1294 1293
f 1290 1291 1295
f 1290 1295 1294
f 1291 1292 1296
f 1291 1296 1295
f 1292 1289 1293
f 1292 1293 1296
v 2.510738 0.439392 -0.172808
v 2.535738 0.450000 -0.195446
v 2.510738 0.460608 -0.218084
v 2.485738 0.450000 -0.195446
v 2.510738 0.845253 0.009646
v 2.528738 0.852890 -0.006653
v 2.510738 0.860528 -0.022952
v 2.492738 0.852890 -0.006653
f 1297 1298 1302
f 1297 1302 1301
f 1298 1299 1303
f 1298 1303 1302
f 1299 1300 1304
f 1299 1304 1303
f 1300 1297 1301
f 1300 1301 1304
v 2.510738 0.887890 -0.006653
v 2.510738 0.887890 -0.006653
v 2.510738 0.887890 -0.006653
v 2.510738 0.887890 -0.006653
v 2.510738 0.887890 -0.006653
v 2.510738 0.887890 -0.006653
v 2.571359 0.870390 -0.006653
v 2.541048 0.870390 -0.059153
v 2.480427 0.870390 -0.059153
v 2.450116 0.870390 -0.006653
v 2.480427 0.870390 0.045847
v 2.541048 0.870390 0.045847
v 2.571359 0.835390 -0.006653
v 2.541048 0.835390 -0.059153
v 2.480427 0.835390 -0.059153
v 2.450116 0.835390 -0.006653
v 2.480427 0.835390 0.045847
v 2.541048 0.835390 0.045847
v 2.510738 0.817890 -0.006653
v 2.510738 0.817890 -0.006653
v 2.510738 0.817890 -0.006653
v 2.510738 0.817890 -0.006653
v 2.510738 0.817890 -0.006653
v 2.510738 0.817890 -0.006653
f 1305 1312 1306
f 1305 1311 1312
f 1306 1313 1307
f 1306 1312 1313
f 1307 1314 1308
f 1307 1313 1314
f 1308 1315 1309
f 1308 1314 1315
f 1309 1316 1310
f 1309 1315 1316
f 1310 1311 1305
f 1310 1316 1311
f 1311 1318 1312
f 1311 1317 1318
f 1312 1319 1313
f 1312 1318 1319
f 1313 1320 1314
f 1313 1319 1320
f 1314 1321 1315
f 1314 1320 1321
f 1315 1322 1316
f 1315 1321 1322
f 1316 1317 1311
f 1316 1322 1317
f 1317 1324 1318
f 1317 1323 1324
f 1318 1325 1319
f 1318 1324 1325
f 1319 1326 1320
f 1319 1325 1326
f 1320 1327 1321
f 1320 1326 1327
f 1321 1328 1322
f 1321 1327 1328
f 1322 1323 1317
f 1322 1328 1323
v 2.510738 0.848290 0.017920
v 2.535738 0.852890 -0.006653
v 2.510738 0.857490 -0.031226
v 2.485738 0.852890 -0.006653
v 2.510738 1.353207 0.105316
v 2.528738 1.356519 0.087623
v 2.510738 1.359831 0.069931
v 2.492738 1.356519 0.087623
f 1329 1330 1334
f 1329 1334 1333
f 1330 1331 1335
f 1330 1335 1334
f 1331 1332 1336
f 1331 1336 1335
f 1332 1329 1333
f 1332 1333 1336
v 2.510738 1.391519 0.087623
v 2.510738 1.391519 0.087623
v 2.510738 1.391519 0.087623
v 2.510738 1.391519 0.087623
v 2.510738 1.391519 0.087623
v 2.510738 1.391519 0.087623
v 2.571359 1.374019 0.087623
v 2.541048 1.374019 0.035123
v 2.480427 1.374019 0.035123
v 2.450116 1.374019 0.087623
v 2.480427 1.374019 0.140123
v 2.541048 1.374019 0.140123
v 2.571359 1.339019 0.087623
v 2.541048 1.339019 0.035123
v 2.480427 1.339019 0.035123
v 2.450116 1.339019 0.087623
v 2.480427 1.339019 0.140123
v 2.541048 1.339019 0.140123
v 2.510738 1.321519 0.087623
v 2.510738 1.321519 0.087623
v 2.510738 1.321519 0.087623
v 2.510738 1.321519 0.087623
v 2.510738 1.321519 0.087623
v 2.510738 1.321519 0.087623
f 1337 1344 1338
f 1337 1343 1344
f 1338 1345 1339
f 1338 1344 1345
f 1339 1346 1340
f 1339 1345 1346
f 1340 1347 1341
f 1340 1346 1347
f 1341 1348 1342
f 1341 1347 1348
f 1342 1343 1337
f 1342 1348 1343
f 1343 1350 1344
f 1343 1349 1350
f 1344 1351 1345
f 1344 1350 1351
f 1345 1352 1346
f 1345 1351 1352
f 1346 1353 1347
f 1346 1352 1353
f 1347 1354 1348
f 1347 1353 1354
f 1348 1349 1343
f 1348 1354 1349
f 1349 1356 1350
f 1349 1355 1356
f 1350 1357 1351
f 1350 1356 1357
f 1351 1358 1352
f 1351 1357 1358
f 1352 1359 1353
f 1352 1358 1359
f 1353 1360 1354
f 1353 1359 1360
f 1354 1355 1349
f 1354 1360 1355
v 2.510738 1.358721 0.112526
v 2.535738 1.356519 0.087623
v 2.510738 1.354317 0.062721
v 2.485738 1.356519 0.087623
v 2.510738 1.828839 0.063930
v 2.528738 1.827253 0.046000
v 2.510738 1.825668 0.028070
v 2.492738 1.827253 0.046000
f 1361 1362 1366
f 1361 1366 1365
f 1362 1363 1367
f 1362 1367 1366
f 1363 1364 1368
f 1363 1368 1367
f 1364 1361 1365
f 1364 1365 1368
v 2.510738 1.825599 0.070945
v 2.535738 1.827253 0.046000
v 2.510738 1.828908 0.021054
v 2.485738 1.827253 0.046000
v 2.510738 2.508603 0.109227
v 2.528738 2.509795 0.091267
v 2.510738 2.510986 0.073306
v 2.492738 2.509795 0.091267
f 1369 1370 1374
f 1369 1374 1373
f 1370 1371 1375
f 1370 1375 1374
f 1371 1372 1376
f 1371 1376 1375
f 1372 1369 1373
f 1372 1373 1376
v -2.510738 0.441228 1.077823
v -2.485738 0.450000 1.054413
v -2.510738 0.458772 1.031002
v -2.535738 0.450000 1.054413
v -2.510738 0.884201 1.236337
v -2.492738 0.890517 1.219481
v -2.510738 0.896833 1.202626
v -2.528738 0.890517 1.219481
f 1377 1378 1382
f 1377 1382 1381
f 1378 1379 1383
f 1378 1383 1382
f 1379 1380 1384
f 1379 1384 1383
f 1380 1377 1381
f 1380 1381 1384
v -2.510738 0.925517 1.219481
v -2.510738 0.925517 1.219481
v -2.510738 0.925517 1.219481
v -2.510738 0.925517 1.219481
v -2.510738 0.925517 1.219481
v -2.510738 0.925517 1.219481
v -2.450116 0.908017 1.219481
v -2.480427 0.908017 1.166981
v -2.541048 0.908017 1.166981
v -2.571359 0.908017 1.219481
v -2.541048 0.908017 1.271981
v -2.480427 0.908017 1.271981
v -2.450116 0.873017 1.219481
v -2.480427 0.873017 1.166981
v -2.541048 0.873017 1.166981
v -2.571359 0.873017 1.219481
v -2.541048 0.873017 1.271981
v -2.480427 0.873017 1.271981
v -2.510738 0.855517 1.219481
v -2.510738 0.855517 1.219481
v -2.510738 0.855517 1.219481
v -2.510738 0.855517 1.219481
v -2.510738 0.855517 1.219481
v -2.510738 0.855517 1.219481
f 1385 1392 1386
f 1385 1391 1392
f 1386 1393 1387
f 1386 1392 1393
f 1387 1394 1388
f 1387 1393 1394
f 1388 1395 1389
f 1388 1394 1395
f 1389 1396 1390
f 1389 1395 1396
f 1390 1391 1385
f 1390 1396 1391
f 1391 1398 1392
f 1391 1397 1398
f 1392 1399 1393
f 1392 1398 1399
f 1393 1400 1394
f 1393 1399 1400
f 1394 1401 1395
f 1394 1400 1401
f 1395 1402 1396
f 1395 1401 1402
f 1396 1397 1391
f 1396 1402 1397
f 1397 1404 1398
f 1397 1403 1404
f 1398 1405 1399
f 1398 1404 1405
f 1399 1406 1400
f 1399 1405 1406
f 1400 1407 1401
f 1400 1406 1407
f 1401 1408 1402
f 1401 1407 1408
f 1402 1403 1397
f 1402 1408 1403
v -2.510738 0.881189 1.242676
v -2.485738 0.890517 1.219481
v -2.510738 0.899845 1.196287
v -2.535738 0.890517 1.219481
v -2.510738 1.366613 1.430345
v -2.492738 1.373329 1.413645
v -2.510738 1.380045 1.396945
v -2.528738 1.373329 1.413645
f 1409 1410 1414
f 1409 1414 1413
f 1410 1411 1415
f 1410 1415 1414
f 1411 1412 1416
f 1411 1416 1415
f 1412 1409 1413
f 1412 1413 1416
v -2.510738 1.408329 1.413645
v -2.510738 1.408329 1.413645
v -2.510738 1.408329 1.413645
v -2.510738 1.408329 1.413645
v -2.510738 1.408329 1.413645
v -2.510738 1.408329 1.413645
v -2.450116 1.390829 1.413645
v -2.480427 1.390829 1.361145
v -2.541048 1.390829 1.361145
v -2.571359 1.390829 1.413645
v -2.541048 1.390829 1.466145
v -2.480427 1.390829 1.466145
v -2.450116 1.355829 1.413645
v -2.480427 1.355829 1.361145
v -2.541048 1.355829 1.361145
v -2.571359 1.355829 1.413645
v -2.541048 1.355829 1.466145
v -2.480427 1.355829 1.466145
v -2.510738 1.338329 1.413645
v -2.510738 1.338329 1.413645
v -2.510738 1.338329 1.413645
v -2.510738 1.338329 1.413645
v -2.510738 1.338329 1.413645
v -2.510738 1.338329 1.413645
f 1417 1424 1418
f 1417 1423 1424
f 1418 1425 1419
f 1418 1424 1425
f 1419 1426 1420
f 1419 1425 1426
f 1420 1427 1421
f 1420 1426 1427
f 1421 1428 1422
f 1421 1427 1428
f 1422 1423 1417
f 1422 1428 1423
f 1423 1430 1424
f 1423 1429 1430
f 1424 1431 1425
f 1424 1430 1431
f 1425 1432 1426
f 1425 1431 1432
f 1426 1433 1427
f 1426 1432 1433
f 1427 1434 1428
f 1427 1433 1434
f 1428 1429 1423
f 1428 1434 1429
f 1429 1436 1430
f 1429 1435 1436
f 1430 1437 1431
f 1430 1436 1437
f 1431 1438 1432
f 1431 1437 1438
f 1432 1439 1433
f 1432 1438 1439
f 1433 1440 1434
f 1433 1439 1440
f 1434 1435 1429
f 1434 1440 1435
v -2.485738 1.373329 1.413645
v -2.510738 1.384710 1.391386
v -2.535738 1.373329 1.413645
v -2.510738 1.361948 1.435904
v -2.492738 1.794406 1.628942
v -2.510738 1.802600 1.612916
v -2.528738 1.794406 1.628942
v -2.510738 1.786212 1.644969
f 1441 1442 1446
f 1441 1446 1445
f 1442 1443 1447
f 1442 1447 1446
f 1443 1444 1448
f 1443 1448 1447
f 1444 1441 1445
f 1444 1445 1448
v -2.510738 1.829406 1.628942
v -2.510738 1.829406 1.628942
v -2.510738 1.829406 1.628942
v -2.510738 1.829406 1.628942
v -2.510738 1.829406 1.628942
v -2.510738 1.829406 1.628942
v -2.450116 1.811906 1.628942
v -2.480427 1.811906 1.576442
v -2.541048 1.811906 1.576442
v -2.571359 1.811906 1.628942
v -2.541048 1.811906 1.681442
v -2.480427 1.811906 1.681442
v -2.450116 1.776906 1.628942
v -2.480427 1.776906 1.576442
v -2.541048 1.776906 1.576442
v -2.571359 1.776906 1.628942
v -2.541048 1.776906 1.681442
v -2.480427 1.776906 1.681442
v -2.510738 1.759406 1.628942
v -2.510738 1.759406 1.628942
v -2.510738 1.759406 1.628942
v -2.510738 1.759406 1.628942
v -2.510738 1.759406 1.628942
v -2.510738 1.759406 1.628942
f 1449 1456 1450
f 1449 1455 1456
f 1450 1457 1451
f 1450 1456 1457
f 1451 1458 1452
f 1451 1457 1458
f 1452 1459 1453
f 1452 1458 1459
f 1453 1460 1454
f 1453 1459 1460
f 1454 1455 1449
f 1454 1460 1455
f 1455 1462 1456
f 1455 1461 1462
f 1456 1463 1457
f 1456 1462 1463
f 1457 1464 1458
f 1457 1463 1464
f 1458 1465 1459
f 1458 1464 1465
f 1459 1466 1460
f 1459 1465 1466
f 1460 1461 1455
f 1460 1466 1461
f 1461 1468 1462
f 1461 1467 1468
f 1462 1469 1463
f 1462 1468 1469
f 1463 1470 1464
f 1463 1469 1470
f 1464 1471 1465
f 1464 1470 1471
f 1465 1472 1466
f 1465 1471 1472
f 1466 1467 1461
f 1466 1472 1467
v -2.510738 1.797479 1.653753
v -2.485738 1.794406 1.628942
v -2.510738 1.791333 1.604132
v -2.535738 1.794406 1.628942
v -2.510738 2.457876 1.564898
v -2.492738 2.455663 1.547034
v -2.510738 2.453451 1.529171
v -2.528738 2.455663 1.547034
f 1473 1474 1478
f 1473 1478 1477
f 1474 1475 1479
f 1474 1479 1478
f 1475 1476 1480
f 1475 1480 1479
f 1476 1473 1477
f 1476 1477 1480
v -2.510738 2.490663 1.547034
v -2.510738 2.490663 1.547034
v -2.510738 2.490663 1.547034
v -2.510738 2.490663 1.547034
v -2.510738 2.490663 1.547034
v -2.510738 2.490663 1.547034
v -2.450116 2.473163 1.547034
v -2.480427 2.473163 1.494534
v -2.541048 2.473163 1.494534
v -2.571359 2.473163 1.547034
v -2.541048 2.473163 1.599534
v -2.480427 2.473163 1.599534
v -2.450116 2.438163 1.547034
v -2.480427 2.438163 1.494534
v -2.541048 2.438163 1.494534
v -2.571359 2.438163 1.547034
v -2.541048 2.438163 1.599534
v -2.480427 2.438163 1.599534
v -2.510738 2.420663 1.547034
v -2.510738 2.420663 1.547034
v -2.510738 2.420663 1.547034
v -2.510738 2.420663 1.547034
v -2.510738 2.420663 1.547034
v -2.510738 2.420663 1.547034
f 1481 1488 1482
f 1481 1487 1488
f 1482 1489 1483
f 1482 1488 1489
f 1483 1490 1484
f 1483 1489 1490
f 1484 1491 1485
f 1484 1490 1491
f 1485 1492 1486
f 1485 1491 1492
f 1486 1487 1481
f 1486 1492 1487
f 1487 1494 1488
f 1487 1493 1494
f 1488 1495 1489
f 1488 1494 1495
f 1489 1496 1490
f 1489 1495 1496
f 1490 1497 1491
f 1490 1496 1497
f 1491 1498 1492
f 1491 1497 1498
f 1492 1493 1487
f 1492 1498 1493
f 1493 1500 1494
f 1493 1499 1500
f 1494 1501 1495
f 1494 1500 1501
f 1495 1502 1496
f 1495 1501 1502
f 1496 1503 1497
f 1496 1502 1503
f 1497 1504 1498
f 1497 1503 1504
f 1498 1499 1493
f 1498 1504 1499
v -2.510738 2.453976 1.571977
v -2.485738 2.455663 1.547034
v -2.510738 2.457351 1.522092
v -2.535738 2.455663 1.547034
v -2.510738 2.997071 1.601707
v -2.492738 2.998286 1.583748
v -2.510738 2.999501 1.565789
v -2.528738 2.998286 1.583748
f 1505 1506 1510
f 1505 1510 1509
f 1506 1507 1511
f 1506 1511 1510
f 1507 1508 1512
f 1507 1512 1511
f 1508 1505 1509
f 1508 1509 1512
v -2.510738 3.033286 1.583748
v -2.510738 3.033286 1.583748
v -2.510738 3.033286 1.583748
v -2.510738 3.033286 1.583748
v -2.510738 3.033286 1.583748
v -2.510738 3.033286 1.583748
v -2.450116 3.015786 1.583748
v -2.480427 3.015786 1.531248
v -2.541048 3.015786 1.531248
v -2.571359 3.015786 1.583748
v -2.541048 3.015786 1.636248
v -2.480427 3.015786 1.636248
v -2.450116 2.980786 1.583748
v -2.480427 2.980786 1.531248
v -2.541048 2.980786 1.531248
v -2.571359 2.980786 1.583748
v -2.541048 2.980786 1.636248
v -2.480427 2.980786 1.636248
v -2.510738 2.963286 1.583748
v -2.510738 2.963286 1.583748
v -2.510738 2.963286 1.583748
v -2.510738 2.963286 1.583748
v -2.510738 2.963286 1.583748
v -2.510738 2.963286 1.583748
f 1513 1520 1514
f 1513 1519 1520
f 1514 1521 1515
f 1514 1520 1521
f 1515 1522 1516
f 1515 1521 1522
f 1516 1523 1517
f 1516 1522 1523
f 1517 1524 1518
f 1517 1523 1524
f 1518 1519 1513
f 1518 1524 1519
f 1519 1526 1520
f 1519 1525 1526
f 1520 1527 1521
f 1520 1526 1527
f 1521 1528 1522
f 1521 1527 1528
f 1522 1529 1523
f 1522 1528 1529
f 1523 1530 1524
f 1523 1529 1530
f 1524 1525 1519
f 1524 1530 1525
f 1525 1532 1526
f 1525 1531 1532
f 1526 1533 1527
f 1526 1532 1533
f 1527 1534 1528
f 1527 1533 1534
f 1528 1535 1529
f 1528 1534 1535
f 1529 1536 1530
f 1529 1535 1536
f 1530 1531 1525
f 1530 1536 1531
v 2.510738 0.456988 -0.747765
v 2.535738 0.450000 -0.771768
v 2.510738 0.443012 -0.795772
v 2.485738 0.450000 -0.771768
v 2.510738 0.958752 -0.901138
v 2.528738 0.953721 -0.918420
v 2.510738 0.948689 -0.935703
v 2.492738 0.953721 -0.918420
f 1537 1538 1542
f 1537 1542 1541
f 1538 1539 1543
f 1538 1543 1542
f 1539 1540 1544
f 1539 1544 1543
f 1540 1537 1541
f 1540 1541 1544
v 2.510738 0.988721 -0.918420
v 2.510738 0.988721 -0.918420
v 2.510738 0.988721 -0.918420
v 2.510738 0.988721 -0.918420
v 2.510738 0.988721 -0.918420
v 2.510738 0.988721 -0.918420
v 2.571359 0.971221 -0.918420
v 2.541048 0.971221 -0.970920
v 2.480427 0.971221 -0.970920
v 2.450116 0.971221 -0.918420
v 2.480427 0.971221 -0.865920
v 2.541048 0.971221 -0.865920
v 2.571359 0.936221 -0.918420
v 2.541048 0.936221 -0.970920
v 2.480427 0.936221 -0.970920
v 2.450116 0.936221 -0.918420
v 2.480427 0.936221 -0.865920
v 2.541048 0.936221 -0.865920
v 2.510738 0.918721 -0.918420
v 2.510738 0.918721 -0.918420
v 2.510738 0.918721 -0.918420
v 2.510738 0.918721 -0.918420
v 2.510738 0.918721 -0.918420
v 2.510738 0.918721 -0.918420
f 1545 1552 1546
f 1545 1551 1552
f 1546 1553 1547
f 1546 1552 1553
f 1547 1554 1548
f 1547 1553 1554
f 1548 1555 1549
f 1548 1554 1555
f 1549 1556 1550
f 1549 1555 1556
f 1550 1551 1545
f 1550 1556 1551
f 1551 1558 1552
f 1551 1557 1558
f 1552 1559 1553
f 1552 1558 1559
f 1553 1560 1554
f 1553 1559 1560
f 1554 1561 1555
f 1554 1560 1561
f 1555 1562 1556
f 1555 1561 1562
f 1556 1557 1551
f 1556 1562 1557
f 1557 1564 1558
f 1557 1563 1564
f 1558 1565 1559
f 1558 1564 1565
f 1559 1566 1560
f 1559 1565 1566
f 1560 1567 1561
f 1560 1566 1567
f 1561 1568 1562
f 1561 1567 1568
f 1562 1563 1557
f 1562 1568 1563
v 2.510738 0.950572 -0.893619
v 2.535738 0.953721 -0.918420
v 2.510738 0.956869 -0.943221
v 2.485738 0.953721 -0.918420
v 2.510738 1.482798 -0.833107
v 2.528738 1.485065 -0.850964
v 2.510738 1.487332 -0.868820
v 2.492738 1.485065 -0.850964
f 1569 1570 1574
f 1569 1574 1573
f 1570 1571 1575
f 1570 1575 1574
f 1571 1572 1576
f 1571 1576 1575
f 1572 1569 1573
f 1572 1573 1576
v 2.510738 1.520065 -0.850964
v 2.510738 1.520065 -0.850964
v 2.510738 1.520065 -0.850964
v 2.510738 1.520065 -0.850964
v 2.510738 1.520065 -0.850964
v 2.510738 1.520065 -0.850964
v 2.571359 1.502565 -0.850964
v 2.541048 1.502565 -0.903464
v 2.480427 1.502565 -0.903464
v 2.450116 1.502565 -0.850964
v 2.480427 1.502565 -0.798464
v 2.541048 1.502565 -0.798464
v 2.571359 1.467565 -0.850964
v 2.541048 1.467565 -0.903464
v 2.480427 1.467565 -0.903464
v 2.450116 1.467565 -0.850964
v 2.480427 1.467565 -0.798464
v 2.541048 1.467565 -0.798464
v 2.510738 1.450065 -0.850964
v 2.510738 1.450065 -0.850964
v 2.510738 1.450065 -0.850964
v 2.510738 1.450065 -0.850964
v 2.510738 1.450065 -0.850964
v 2.510738 1.450065 -0.850964
f 1577 1584 1578
f 1577 1583 1584
f 1578 1585 1579
f 1578 1584 1585
f 1579 1586 1580
f 1579 1585 1586
f 1580 1587 1581
f 1580 1586 1587
f 1581 1588 1582
f 1581 1587 1588
f 1582 1583 1577
f 1582 1588 1583
f 1583 1590 1584
f 1583 1589 1590
f 1584 1591 1585
f 1584 1590 1591
f 1585 1592 1586
f 1585 1591 1592
f 1586 1593 1587
f 1586 1592 1593
f 1587 1594 1588
f 1587 1593 1594
f 1588 1589 1583
f 1588 1594 1589
f 1589 1596 1590
f 1589 1595 1596
f 1590 1597 1591
f 1590 1596 1597
f 1591 1598 1592
f 1591 1597 1598
f 1592 1599 1593
f 1592 1598 1599
f 1593 1600 1594
f 1593 1599 1600
f 1594 1595 1589
f 1594 1600 1595
v 2.510738 1.494576 -0.827843
v 2.535738 1.485065 -0.850964
v 2.510738 1.475555 -0.874084
v 2.485738 1.485065 -0.850964
v 2.510738 1.975753 -1.033352
v 2.528738 1.968905 -1.049999
v 2.510738 1.962057 -1.066645
v 2.492738 1.968905 -1.049999
f 1601 1602 1606
f 1601 1606 1605
f 1602 1603 1607
f 1602 1607 1606
f 1603 1604 1608
f 1603 1608 1607
f 1604 1601 1605
f 1604 1605 1608
v 2.510738 2.003905 -1.049999
v 2.510738 2.003905 -1.049999
v 2.510738 2.003905 -1.049999
v 2.510738 2.003905 -1.049999
v 2.510738 2.003905 -1.049999
v 2.510738 2.003905 -1.049999
v 2.571359 1.986405 -1.049999
v 2.541048 1.986405 -1.102499
v 2.480427 1.986405 -1.102499
v 2.450116 1.986405 -1.049999
v 2.480427 1.986405 -0.997499
v 2.541048 1.986405 -0.997499
v 2.571359 1.951405 -1.049999
v 2.541048 1.951405 -1.102499
v 2.480427 1.951405 -1.102499
v 2.450116 1.951405 -1.049999
v 2.480427 1.951405 -0.997499
v 2.541048 1.951405 -0.997499
v 2.510738 1.933905 -1.049999
v 2.510738 1.933905 -1.049999
v 2.510738 1.933905 -1.049999
v 2.510738 1.933905 -1.049999
v 2.510738 1.933905 -1.049999
v 2.510738 1.933905 -1.049999
f 1609 1616 1610
f 1609 1615 1616
f 1610 1617 1611
f 1610 1616 1617
f 1611 1618 1612
f 1611 1617 1618
f 1612 1619 1613
f 1612 1618 1619
f 1613 1620 1614
f 1613 1619 1620
f 1614 1615 1609
f 1614 1620 1615
f 1615 1622 1616
f 1615 1621 1622
f 1616 1623 1617
f 1616 1622 1623
f 1617 1624 1618
f 1617 1623 1624
f 1618 1625 1619
f 1618 1624 1625
f 1619 1626 1620
f 1619 1625 1626
f 1620 1621 1615
f 1620 1626 1621
f 1621 1628 1622
f 1621 1627 1628
f 1622 1629 1623
f 1622 1628 1629
f 1623 1630 1624
f 1623 1629 1630
f 1624 1631 1625
f 1624 1630 1631
f 1625 1632 1626
f 1625 1631 1632
f 1626 1627 1621
f 1626 1632 1627
v 2.510738 1.978652 -1.026977
v 2.535738 1.968905 -1.049999
v 2.510738 1.959158 -1.073021
v 2.485738 1.968905 -1.049999
v 2.510738 2.530855 -1.268364
v 2.528738 2.523837 -1.284940
v 2.510738 2.516819 -1.301516
v 2.492738 2.523837 -1.284940
f 1633 1634 1638
f 1633 1638 1637
f 1634 1635 1639
f 1634 1639 1638
f 1635 1636 1640
f 1635 1640 1639
f 1636 1633 1637
f 1636 1637 1640
v 2.510738 2.558837 -1.284940
v 2.510738 2.558837 -1.284940
v 2.510738 2.558837 -1.284940
v 2.510738 2.558837 -1.284940
v 2.510738 2.558837 -1.284940
v 2.510738 2.558837 -1.284940
v 2.571359 2.541337 -1.284940
v 2.541048 2.541337 -1.337440
v 2.480427 2.541337 -1.337440
v 2.450116 2.541337 -1.284940
v 2.480427 2.541337 -1.232440
v 2.541048 2.541337 -1.232440
v 2.571359 2.506337 -1.284940
v 2.541048 2.506337 -1.337440
v 2.480427 2.506337 -1.337440
v 2.450116 2.506337 -1.284940
v 2.480427 2.506337 -1.232440
v 2.541048 2.506337 -1.232440
v 2.510738 2.488837 -1.284940
v 2.510738 2.488837 -1.284940
v 2.510738 2.488837 -1.284940
v 2.510738 2.488837 -1.284940
v 2.510738 2.488837 -1.284940
v 2.510738 2.488837 -1.284940
f 1641 1648 1642
f 1641 1647 1648
f 1642 1649 1643
f 1642 1648 1649
f 1643 1650 1644
f 1643 1649 1650
f 1644 1651 1645
f 1644 1650 1651
f 1645 1652 1646
f 1645 1651 1652
f 1646 1647 1641
f 1646 1652 1647
f 1647 1654 1648
f 1647 1653 1654
f 1648 1655 1649
f 1648 1654 1655
f 1649 1656 1650
f 1649 1655 1656
f 1650 1657 1651
f 1650 1656 1657
f 1651 1658 1652
f 1651 1657 1658
f 1652 1653 1647
f 1652 1658 1653
f 1653 1660 1654
f 1653 1659 1660
f 1654 1661 1655
f 1654 1660 1661
f 1655 1662 1656
f 1655 1661 1662
f 1656 1663 1657
f 1656 1662 1663
f 1657 1664 1658
f 1657 1663 1664
f 1658 1659 1653
f 1658 1664 1659
v 2.510738 0.447565 -0.320030
v 2.535738 0.450000 -0.344911
v 2.510738 0.452435 -0.369793
v 2.485738 0.450000 -0.344911
v 2.510738 0.974091 -0.275541
v 2.528738 0.975844 -0.293455
v 2.510738 0.977597 -0.311369
v 2.492738 0.975844 -0.293455
f 1665 1666 1670
f 1665 1670 1669
f 1666 1667 1671
f 1666 1671 1670
f 1667 1668 1672
f 1667 1672 1671
f 1668 1665 1669
f 1668 1669 1672
v 2.510738 1.010844 -0.293455
v 2.510738 1.010844 -0.293455
v 2.510738 1.010844 -0.293455
v 2.510738 1.010844 -0.293455
v 2.510738 1.010844 -0.293455
v 2.510738 1.010844 -0.293455
v 2.571359 0.993344 -0.293455
v 2.541048 0.993344 -0.345955
v 2.480427 0.993344 -0.345955
v 2.450116 0.993344 -0.293455
v 2.480427 0.993344 -0.240955
v 2.541048 0.993344 -0.240955
v 2.571359 0.958344 -0.293455
v 2.541048 0.958344 -0.345955
v 2.480427 0.958344 -0.345955
v 2.450116 0.958344 -0.293455
v 2.480427 0.958344 -0.240955
v 2.541048 0.958344 -0.240955
v 2.510738 0.940844 -0.293455
v 2.510738 0.940844 -0.293455
v 2.510738 0.940844 -0.293455
v 2.510738 0.940844 -0.293455
v 2.510738 0.940844 -0.293455
v 2.510738 0.940844 -0.293455
f 1673 1680 1674
f 1673 1679 1680
f 1674 1681 1675
f 1674 1680 1681
f 1675 1682 1676
f 1675 1681 1682
f 1676 1683 1677
f 1676 1682 1683
f 1677 1684 1678
f 1677 1683 1684
f 1678 1679 1673
f 1678 1684 1679
f 1679 1686 1680
f 1679 1685 1686
f 1680 1687 1681
f 1680 1686 1687
f 1681 1688 1682
f 1681 1687 1688
f 1682 1689 1683
f 1682 1688 1689
f 1683 1690 1684
f 1683 1689 1690
f 1684 1685 1679
f 1684 1690 1685
f 1685 1692 1686
f 1685 1691 1692
f 1686 1693 1687
f 1686 1692 1693
f 1687 1694 1688
f 1687 1693 1694
f 1688 1695 1689
f 1688 1694 1695
f 1689 1696 1690
f 1689 1695 1696
f 1690 1691 1685
f 1690 1696 1691
v 2.510738 0.977201 -0.268492
v 2.535738 0.975844 -0.293455
v 2.510738 0.974487 -0.318418
v 2.485738 0.975844 -0.293455
v 2.510738 1.431348 -0.300190
v 2.528738 1.430371 -0.318163
v 2.510738 1.429394 -0.336137
v 2.492738 1.430371 -0.318163
f 1697 1698 1702
f 1697 1702 1701
f 1698 1699 1703
f 1698 1703 1702
f 1699 1700 1704
f 1699 1704 1703
f 1700 1697 1701
f 1700 1701 1704
v 2.510738 1.433863 -0.293408
v 2.535738 1.430371 -0.318163
v 2.510738 1.426880 -0.342919
v 2.485738 1.430371 -0.318163
v 2.510738 1.942115 -0.372156
v 2.528738 1.939602 -0.389980
v 2.510738 1.937088 -0.407803
v 2.492738 1.939602 -0.389980
f 1705 1706 1710
f 1705 1710 1709
f 1706 1707 1711
f 1706 1711 1710
f 1707 1708 1712
f 1707 1712 1711
f 1708 1705 1709
f 1708 1709 1712
v 2.510738 1.937498 -0.365068
v 2.535738 1.939602 -0.389980
v 2.510738 1.941705 -0.414891
v 2.485738 1.939602 -0.389980
v 2.510738 2.382967 -0.334482
v 2.528738 2.384481 -0.352418
v 2.510738 2.385995 -0.370355
v 2.492738 2.384481 -0.352418
f 1713 1714 1718
f 1713 1718 1717
f 1714 1715 1719
f 1714 1719 1718
f 1715 1716 1720
f 1715 1720 1719
f 1716 1713 1717
f 1716 1717 1720
v 2.510738 2.419481 -0.352418
v 2.510738 2.419481 -0.352418
v 2.510738 2.419481 -0.352418
v 2.510738 2.419481 -0.352418
v 2.510738 2.419481 -0.352418
v 2.510738 2.419481 -0.352418
v 2.571359 2.401981 -0.352418
v 2.541048 2.401981 -0.404918
v 2.480427 2.401981 -0.404918
v 2.450116 2.401981 -0.352418
v 2.480427 2.401981 -0.299918
v 2.541048 2.401981 -0.299918
v 2.571359 2.366981 -0.352418
v 2.541048 2.366981 -0.404918
v 2.480427 2.366981 -0.404918
v 2.450116 2.366981 -0.352418
v 2.480427 2.366981 -0.299918
v 2.541048 2.366981 -0.299918
v 2.510738 2.349481 -0.352418
v 2.510738 2.349481 -0.352418
v 2.510738 2.349481 -0.352418
v 2.510738 2.349481 -0.352418
v 2.510738 2.349481 -0.352418
v 2.510738 2.349481 -0.352418
f 1721 1728 1722
f 1721 1727 1728
f 1722 1729 1723
f 1722 1728 1729
f 1723 1730 1724
f 1723 1729 1730
f 1724 1731 1725
f 1724 1730 1731
f 1725 1732 1726
f 1725 1731 1732
f 1726 1727 1721
f 1726 1732 1727
f 1727 1734 1728
f 1727 1733 1734
f 1728 1735 1729
f 1728 1734 1735
f 1729 1736 1730
f 1729 1735 1736
f 1730 1737 1731
f 1730 1736 1737
f 1731 1738 1732
f 1731 1737 1738
f 1732 1733 1727
f 1732 1738 1733
f 1733 1740 1734
f 1733 1739 1740
f 1734 1741 1735
f 1734 1740 1741
f 1735 1742 1736
f 1735 1741 1742
f 1736 1743 1737
f 1736 1742 1743
f 1737 1744 1738
f 1737 1743 1744
f 1738 1739 1733
f 1738 1744 1739
v 2.510738 2.392532 -0.328751
v 2.535738 2.384481 -0.352418
v 2.510738 2.376429 -0.376086
v 2.485738 2.384481 -0.352418
v 2.510738 3.063946 -0.564550
v 2.528738 3.058149 -0.581591
v 2.510738 3.052352 -0.598632
v 2.492738 3.058149 -0.581591
f 1745 1746 1750
f 1745 1750 1749
f 1746 1747 1751
f 1746 1751 1750
f 1747 1748 1752
f 1747 1752 1751
f 1748 1745 1749
f 1748 1749 1752
v 2.510738 3.063823 -0.557244
v 2.535738 3.058149 -0.581591
v 2.510738 3.052474 -0.605939
v 2.485738 3.058149 -0.581591
v 2.510738 3.573729 -0.683268
v 2.528738 3.569643 -0.700798
v 2.510738 3.565558 -0.718328
v 2.492738 3.569643 -0.700798
f 1753 1754 1758
f 1753 1758 1757
f 1754 1755 1759
f 1754 1759 1758
f 1755 1756 1760
f 1755 1760 1759
f 1756 1753 1757
f 1756 1757 1760
