o mesh
v -1.982364 0.000000 -1.982364
v -2.686851 0.000000 -2.761102
v -2.686851 2.350000 -2.761102
v -1.982364 2.350000 -1.982364
f 1 2 3
f 1 3 4
v -2.066903 0.864000 -2.063813
v -2.055490 0.864000 -2.072105
v -2.059849 0.864000 -2.085521
v -2.073956 0.864000 -2.085521
v -2.078315 0.864000 -2.072105
v -2.066903 2.112000 -2.063813
v -2.055490 2.112000 -2.072105
v -2.059849 2.112000 -2.085521
v -2.073956 2.112000 -2.085521
v -2.078315 2.112000 -2.072105
f 5 6 11
f 5 11 10
f 6 7 12
f 6 12 11
f 7 8 13
f 7 13 12
f 8 9 14
f 8 14 13
f 9 5 10
f 9 10 14
v -2.281067 0.864000 -2.300549
v -2.269654 0.864000 -2.308841
v -2.274013 0.864000 -2.322257
v -2.288120 0.864000 -2.322257
v -2.292479 0.864000 -2.308841
v -2.281067 2.112000 -2.300549
v -2.269654 2.112000 -2.308841
v -2.274013 2.112000 -2.322257
v -2.288120 2.112000 -2.322257
v -2.292479 2.112000 -2.308841
f 15 16 21
f 15 21 20
f 16 17 22
f 16 22 21
f 17 18 23
f 17 23 22
f 18 19 24
f 18 24 23
f 19 15 20
f 19 20 24
v -2.388149 0.864000 -2.418917
v -2.376736 0.864000 -2.427209
v -2.381095 0.864000 -2.440626
v -2.395202 0.864000 -2.440626
v -2.399561 0.864000 -2.427209
v -2.388149 2.112000 -2.418917
v -2.376736 2.112000 -2.427209
v -2.381095 2.112000 -2.440626
v -2.395202 2.112000 -2.440626
v -2.399561 2.112000 -2.427209
f 25 26 31
f 25 31 30
f 26 27 32
f 26 32 31
f 27 28 33
f 27 33 32
f 28 29 34
f 28 34 33
f 29 25 30
f 29 30 34
v -2.495231 0.864000 -2.537286
v -2.483818 0.864000 -2.545577
v -2.488177 0.864000 -2.558994
v -2.502284 0.864000 -2.558994
v -2.506643 0.864000 -2.545577
v -2.495231 2.112000 -2.537286
v -2.483818 2.112000 -2.545577
v -2.488177 2.112000 -2.558994
v -2.502284 2.112000 -2.558994
v -2.506643 2.112000 -2.545577
f 35 36 41
f 35 41 40
f 36 37 42
f 36 42 41
f 37 38 43
f 37 43 42
f 38 39 44
f 38 44 43
f 39 35 40
f 39 40 44
v -2.602313 0.864000 -2.655654
v -2.590900 0.864000 -2.663946
v -2.595259 0.864000 -2.677362
v -2.609366 0.864000 -2.677362
v -2.613725 0.864000 -2.663946
v -2.602313 2.112000 -2.655654
v -2.590900 2.112000 -2.663946
v -2.595259 2.112000 -2.677362
v -2.609366 2.112000 -2.677362
v -2.613725 2.112000 -2.663946
f 45 46 51
f 45 51 50
f 46 47 52
f 46 52 51
f 47 48 53
f 47 53 52
f 48 49 54
f 48 54 53
f 49 45 50
f 49 50 54
v -2.077581 0.864000 -2.066152
v -2.070203 0.877695 -2.072828
v -2.058263 0.872464 -2.083628
v -2.058263 0.855536 -2.083628
v -2.070203 0.850305 -2.072828
v -2.612991 0.864000 -2.657993
v -2.605612 0.877695 -2.664668
v -2.593673 0.872464 -2.675469
v -2.593673 0.855536 -2.675469
v -2.605612 0.850305 -2.664668
f 55 56 61
f 55 61 60
f 56 57 62
f 56 62 61
f 57 58 63
f 57 63 62
f 58 59 64
f 58 64 63
f 59 55 60
f 59 60 64
v -2.077581 1.488000 -2.066152
v -2.070203 1.501695 -2.072828
v -2.058263 1.496464 -2.083628
v -2.058263 1.479536 -2.083628
v -2.070203 1.474305 -2.072828
v -2.612991 1.488000 -2.657993
v -2.605612 1.501695 -2.664668
v -2.593673 1.496464 -2.675469
v -2.593673 1.479536 -2.675469
v -2.605612 1.474305 -2.664668
f 65 66 71
f 65 71 70
f 66 67 72
f 66 72 71
f 67 68 73
f 67 73 72
f 68 69 74
f 68 74 73
f 69 65 70
f 69 70 74
v -2.077581 2.112000 -2.066152
v -2.070203 2.125695 -2.072828
v -2.058263 2.120464 -2.083628
v -2.058263 2.103536 -2.083628
v -2.070203 2.098305 -2.072828
v -2.612991 2.112000 -2.657993
v -2.605612 2.125695 -2.664668
v -2.593673 2.120464 -2.675469
v -2.593673 2.103536 -2.675469
v -2.605612 2.098305 -2.664668
f 75 76 81
f 75 81 80
f 76 77 82
f 76 82 81
f 77 78 83
f 77 83 82
f 78 79 84
f 78 84 83
f 79 75 80
f 79 80 84
v 2.803486 0.020000 -0.000000
v 2.590084 0.020000 -1.072848
v 1.982364 0.020000 -1.982364
v 1.072848 0.020000 -2.590084
v 0.000000 0.020000 -2.803486
v -1.072848 0.020000 -2.590084
v -1.982364 0.020000 -1.982364
v -2.590084 0.020000 -1.072848
v -2.803486 0.020000 -0.000000
v -2.590084 0.020000 1.072848
v -1.982364 0.020000 1.982364
v -1.072848 0.020000 2.590084
v -0.000000 0.020000 2.803486
v 1.072848 0.020000 2.590084
v 1.982364 0.020000 1.982364
v 2.590084 0.020000 1.072848
v 0.000000 0.020000 -0.000000
f 101 85 86
f 101 86 85
f 101 86 87
f 101 87 86
f 101 87 88
f 101 88 87
f 101 88 89
f 101 89 88
f 101 89 90
f 101 90 89
f 101 90 91
f 101 91 90
f 101 91 92
f 101 92 91
f 101 92 93
f 101 93 92
f 101 93 94
f 101 94 93
f 101 94 95
f 101 95 94
f 101 95 96
f 101 96 95
f 101 96 97
f 101 97 96
f 101 97 98
f 101 98 97
f 101 98 99
f 101 99 98
f 101 99 100
f 101 100 99
f 101 100 85
f 101 85 100
v 2.530904 4.400000 -1.048335
v 2.929893 4.400000 -1.387626
v 2.929893 5.700000 -1.387626
v 2.530904 5.700000 -1.048335
f 102 103 104
f 102 104 105
v -1.048335 4.400000 -2.530904
v -1.400154 4.400000 -2.918892
v -1.400154 5.700000 -2.918892
v -1.048335 5.700000 -2.530904
f 106 107 108
f 106 108 109
v -1.937070 4.400000 -1.937070
v -2.396491 4.400000 -2.188552
v -2.396491 5.700000 -2.188552
v -1.937070 5.700000 -1.937070
f 110 111 112
f 110 112 113
v -2.530904 4.400000 1.048335
v -3.042927 4.400000 1.158533
v -3.042927 5.700000 1.158533
v -2.530904 5.700000 1.048335
f 114 115 116
f 114 116 117
v -1.937070 4.400000 1.937070
v -2.404052 4.400000 2.174218
v -2.404052 5.700000 2.174218
v -1.937070 5.700000 1.937070
f 118 119 120
f 118 120 121
v -2.451324 4.400000 1.071437
v -2.439911 4.400000 1.063145
v -2.444270 4.400000 1.049729
v -2.458377 4.400000 1.049729
v -2.462736 4.400000 1.063145
v -2.451324 5.700000 1.071437
v -2.439911 5.700000 1.063145
v -2.444270 5.700000 1.049729
v -2.458377 5.700000 1.049729
v -2.462736 5.700000 1.063145
f 122 123 128
f 122 128 127
f 123 124 129
f 123 129 128
f 124 125 130
f 124 130 129
f 125 126 131
f 125 131 130
f 126 122 127
f 126 127 131
v -2.362249 4.400000 1.204747
v -2.350836 4.400000 1.196456
v -2.355195 4.400000 1.183039
v -2.369302 4.400000 1.183039
v -2.373661 4.400000 1.196456
v -2.362249 5.700000 1.204747
v -2.350836 5.700000 1.196456
v -2.355195 5.700000 1.183039
v -2.369302 5.700000 1.183039
v -2.373661 5.700000 1.196456
f 132 133 138
f 132 138 137
f 133 134 139
f 133 139 138
f 134 135 140
f 134 140 139
f 135 136 141
f 135 141 140
f 136 132 137
f 136 137 141
v -2.273174 4.400000 1.338058
v -2.261761 4.400000 1.329766
v -2.266120 4.400000 1.316350
v -2.280227 4.400000 1.316350
v -2.284586 4.400000 1.329766
v -2.273174 5.700000 1.338058
v -2.261761 5.700000 1.329766
v -2.266120 5.700000 1.316350
v -2.280227 5.700000 1.316350
v -2.284586 5.700000 1.329766
f 142 143 148
f 142 148 147
f 143 144 149
f 143 149 148
f 144 145 150
f 144 150 149
f 145 146 151
f 145 151 150
f 146 142 147
f 146 147 151
v -2.095023 4.400000 1.604678
v -2.083611 4.400000 1.596386
v -2.087970 4.400000 1.582970
v -2.102077 4.400000 1.582970
v -2.106436 4.400000 1.596386
v -2.095023 5.700000 1.604678
v -2.083611 5.700000 1.596386
v -2.087970 5.700000 1.582970
v -2.102077 5.700000 1.582970
v -2.106436 5.700000 1.596386
f 152 153 158
f 152 158 157
f 153 154 159
f 153 159 158
f 154 155 160
f 154 160 159
f 155 156 161
f 155 161 160
f 156 152 157
f 156 157 161
v -2.005948 4.400000 1.737989
v -1.994536 4.400000 1.729697
v -1.998895 4.400000 1.716280
v -2.013002 4.400000 1.716280
v -2.017361 4.400000 1.729697
v -2.005948 5.700000 1.737989
v -1.994536 5.700000 1.729697
v -1.998895 5.700000 1.716280
v -2.013002 5.700000 1.716280
v -2.017361 5.700000 1.729697
f 162 163 168
f 162 168 167
f 163 164 169
f 163 169 168
f 164 165 170
f 164 170 169
f 165 166 171
f 165 171 170
f 166 162 167
f 166 167 171
v -2.439351 4.400000 1.051437
v -2.447624 4.413695 1.056965
v -2.461010 4.408464 1.065909
v -2.461010 4.391536 1.065909
v -2.447624 4.386305 1.056965
v -1.904900 4.400000 1.851299
v -1.913173 4.413695 1.856827
v -1.926560 4.408464 1.865771
v -1.926560 4.391536 1.865771
v -1.913173 4.386305 1.856827
f 172 173 178
f 172 178 177
f 173 174 179
f 173 179 178
f 174 175 180
f 174 180 179
f 175 176 181
f 175 181 180
f 176 172 177
f 176 177 181
v -2.439351 5.050000 1.051437
v -2.447624 5.063695 1.056965
v -2.461010 5.058464 1.065909
v -2.461010 5.041536 1.065909
v -2.447624 5.036305 1.056965
v -1.904900 5.050000 1.851299
v -1.913173 5.063695 1.856827
v -1.926560 5.058464 1.865771
v -1.926560 5.041536 1.865771
v -1.913173 5.036305 1.856827
f 182 183 188
f 182 188 187
f 183 184 189
f 183 189 188
f 184 185 190
f 184 190 189
f 185 186 191
f 185 191 190
f 186 182 187
f 186 187 191
v -2.439351 5.700000 1.051437
v -2.447624 5.713695 1.056965
v -2.461010 5.708464 1.065909
v -2.461010 5.691536 1.065909
v -2.447624 5.686305 1.056965
v -1.904900 5.700000 1.851299
v -1.913173 5.713695 1.856827
v -1.926560 5.708464 1.865771
v -1.926560 5.691536 1.865771
v -1.913173 5.686305 1.856827
f 192 193 198
f 192 198 197
f 193 194 199
f 193 199 198
f 194 195 200
f 194 200 199
f 195 196 201
f 195 201 200
f 196 192 197
f 196 197 201
v 1.937070 4.400000 1.937070
v 2.300263 4.400000 2.314432
v 2.300263 5.700000 2.314432
v 1.937070 5.700000 1.937070
f 202 203 204
f 202 204 205
v 2.760360 3.400000 -0.000000
v 2.550240 3.400000 -1.056344
v 1.951869 3.400000 -1.951869
v 1.056344 3.400000 -2.550240
v 0.000000 3.400000 -2.760360
v -1.056344 3.400000 -2.550240
v -1.951869 3.400000 -1.951869
v -2.550240 3.400000 -1.056344
v -2.760360 3.400000 -0.000000
v -2.550240 3.400000 1.056344
v -1.951869 3.400000 1.951869
v -1.056344 3.400000 2.550240
v -0.000000 3.400000 2.760360
v 1.056344 3.400000 2.550240
v 1.951869 3.400000 1.951869
v 2.550240 3.400000 1.056344
v 1.300000 3.400000 -0.000000
v 1.201043 3.400000 -0.497488
v 0.919239 3.400000 -0.919239
v 0.497488 3.400000 -1.201043
v 0.000000 3.400000 -1.300000
v -0.497488 3.400000 -1.201043
v -0.919239 3.400000 -0.919239
v -1.201043 3.400000 -0.497488
v -1.300000 3.400000 -0.000000
v -1.201043 3.400000 0.497488
v -0.919239 3.400000 0.919239
v -0.497488 3.400000 1.201043
v -0.000000 3.400000 1.300000
v 0.497488 3.400000 1.201043
v 0.919239 3.400000 0.919239
v 1.201043 3.400000 0.497488
f 206 207 223
f 223 207 206
f 206 223 222
f 222 223 206
f 207 208 224
f 224 208 207
f 207 224 223
f 223 224 207
f 208 209 225
f 225 209 208
f 208 225 224
f 224 225 208
f 209 210 226
f 226 210 209
f 209 226 225
f 225 226 209
f 210 211 227
f 227 211 210
f 210 227 226
f 226 227 210
f 211 212 228
f 228 212 211
f 211 228 227
f 227 228 211
f 212 213 229
f 229 213 212
f 212 229 228
f 228 229 212
f 213 214 230
f 230 214 213
f 213 230 229
f 229 230 213
f 214 215 231
f 231 215 214
f 214 231 230
f 230 231 214
f 215 216 232
f 232 216 215
f 215 232 231
f 231 232 215
f 216 217 233
f 233 217 216
f 216 233 232
f 232 233 216
f 217 218 234
f 234 218 217
f 217 234 233
f 233 234 217
f 218 219 235
f 235 219 218
f 218 235 234
f 234 235 218
f 219 220 236
f 236 220 219
f 219 236 235
f 235 236 219
f 220 221 237
f 237 221 220
f 220 237 236
f 236 237 220
f 221 206 222
f 222 206 221
f 221 222 237
f 237 222 221
v 1.906574 7.800000 -1.906574
v 2.149810 7.800000 -2.361084
v 2.149810 9.100000 -2.361084
v 1.906574 9.100000 -1.906574
f 238 239 240
f 238 240 241
v 1.829503 7.800000 -1.873911
v 1.840916 7.800000 -1.882202
v 1.836556 7.800000 -1.895619
v 1.822450 7.800000 -1.895619
v 1.818090 7.800000 -1.882202
v 1.829503 9.100000 -1.873911
v 1.840916 9.100000 -1.882202
v 1.836556 9.100000 -1.895619
v 1.822450 9.100000 -1.895619
v 1.818090 9.100000 -1.882202
f 242 243 248
f 242 248 247
f 243 244 249
f 243 249 248
f 244 245 250
f 244 250 249
f 245 246 251
f 245 251 250
f 246 242 247
f 246 247 251
v 1.567080 7.800000 -2.049256
v 1.578493 7.800000 -2.057548
v 1.574133 7.800000 -2.070964
v 1.560026 7.800000 -2.070964
v 1.555667 7.800000 -2.057548
v 1.567080 9.100000 -2.049256
v 1.578493 9.100000 -2.057548
v 1.574133 9.100000 -2.070964
v 1.560026 9.100000 -2.070964
v 1.555667 9.100000 -2.057548
f 252 253 258
f 252 258 257
f 253 254 259
f 253 259 258
f 254 255 260
f 254 260 259
f 255 256 261
f 255 261 260
f 256 252 257
f 256 257 261
v 1.435868 7.800000 -2.136929
v 1.447281 7.800000 -2.145221
v 1.442922 7.800000 -2.158637
v 1.428815 7.800000 -2.158637
v 1.424456 7.800000 -2.145221
v 1.435868 9.100000 -2.136929
v 1.447281 9.100000 -2.145221
v 1.442922 9.100000 -2.158637
v 1.428815 9.100000 -2.158637
v 1.424456 9.100000 -2.145221
f 262 263 268
f 262 268 267
f 263 264 269
f 263 269 268
f 264 265 270
f 264 270 269
f 265 266 271
f 265 271 270
f 266 262 267
f 266 267 271
v 1.042234 7.800000 -2.399947
v 1.053646 7.800000 -2.408239
v 1.049287 7.800000 -2.421655
v 1.035180 7.800000 -2.421655
v 1.030821 7.800000 -2.408239
v 1.042234 9.100000 -2.399947
v 1.053646 9.100000 -2.408239
v 1.049287 9.100000 -2.421655
v 1.035180 9.100000 -2.421655
v 1.030821 9.100000 -2.408239
f 272 273 278
f 272 278 277
f 273 274 279
f 273 279 278
f 274 275 280
f 274 280 279
f 275 276 281
f 275 281 280
f 276 272 277
f 276 277 281
v 1.821503 7.800000 -1.873937
v 1.827031 7.813695 -1.882211
v 1.835975 7.808464 -1.895597
v 1.835975 7.791536 -1.895597
v 1.827031 7.786305 -1.882211
v 1.034233 7.800000 -2.399974
v 1.039761 7.813695 -2.408247
v 1.048706 7.808464 -2.421634
v 1.048706 7.791536 -2.421634
v 1.039761 7.786305 -2.408247
f 282 283 288
f 282 288 287
f 283 284 289
f 283 289 288
f 284 285 290
f 284 290 289
f 285 286 291
f 285 291 290
f 286 282 287
f 286 287 291
v 1.821503 8.450000 -1.873937
v 1.827031 8.463695 -1.882211
v 1.835975 8.458464 -1.895597
v 1.835975 8.441536 -1.895597
v 1.827031 8.436305 -1.882211
v 1.034233 8.450000 -2.399974
v 1.039761 8.463695 -2.408247
v 1.048706 8.458464 -2.421634
v 1.048706 8.441536 -2.421634
v 1.039761 8.436305 -2.408247
f 292 293 298
f 292 298 297
f 293 294 299
f 293 299 298
f 294 295 300
f 294 300 299
f 295 296 301
f 295 301 300
f 296 292 297
f 296 297 301
v 1.821503 9.100000 -1.873937
v 1.827031 9.113695 -1.882211
v 1.835975 9.108464 -1.895597
v 1.835975 9.091536 -1.895597
v 1.827031 9.086305 -1.882211
v 1.034233 9.100000 -2.399974
v 1.039761 9.113695 -2.408247
v 1.048706 9.108464 -2.421634
v 1.048706 9.091536 -2.421634
v 1.039761 9.086305 -2.408247
f 302 303 308
f 302 308 307
f 303 304 309
f 303 309 308
f 304 305 310
f 304 310 309
f 305 306 311
f 305 311 310
f 306 302 307
f 306 307 311
v -2.491060 7.800000 -1.031831
v -2.982243 7.800000 -1.188295
v -2.982243 9.100000 -1.188295
v -2.491060 9.100000 -1.031831
f 312 313 314
f 312 314 315
v -1.906574 7.800000 1.906574
v -2.300093 7.800000 2.239569
v -2.300093 9.100000 2.239569
v -1.906574 9.100000 1.906574
f 316 317 318
f 316 318 319
v 1.906574 7.800000 1.906574
v 2.266309 7.800000 2.275808
v 2.266309 9.100000 2.275808
v 1.906574 9.100000 1.906574
f 320 321 322
f 320 322 323
v 2.491060 7.800000 1.031831
v 3.006029 7.800000 1.008394
v 3.006029 9.100000 1.008394
v 2.491060 9.100000 1.031831
f 324 325 326
f 324 326 327
v 2.717233 6.800000 -0.000000
v 2.510396 6.800000 -1.039840
v 1.921374 6.800000 -1.921374
v 1.039840 6.800000 -2.510396
v 0.000000 6.800000 -2.717233
v -1.039840 6.800000 -2.510396
v -1.921374 6.800000 -1.921374
v -2.510396 6.800000 -1.039840
v -2.717233 6.800000 -0.000000
v -2.510396 6.800000 1.039840
v -1.921374 6.800000 1.921374
v -1.039840 6.800000 2.510396
v -0.000000 6.800000 2.717233
v 1.039840 6.800000 2.510396
v 1.921374 6.800000 1.921374
v 2.510396 6.800000 1.039840
v 1.300000 6.800000 -0.000000
v 1.201043 6.800000 -0.497488
v 0.919239 6.800000 -0.919239
v 0.497488 6.800000 -1.201043
v 0.000000 6.800000 -1.300000
v -0.497488 6.800000 -1.201043
v -0.919239 6.800000 -0.919239
v -1.201043 6.800000 -0.497488
v -1.300000 6.800000 -0.000000
v -1.201043 6.800000 0.497488
v -0.919239 6.800000 0.919239
v -0.497488 6.800000 1.201043
v -0.000000 6.800000 1.300000
v 0.497488 6.800000 1.201043
v 0.919239 6.800000 0.919239
v 1.201043 6.800000 0.497488
f 328 329 345
f 345 329 328
f 328 345 344
f 344 345 328
f 329 330 346
f 346 330 329
f 329 346 345
f 345 346 329
f 330 331 347
f 347 331 330
f 330 347 346
f 346 347 330
f 331 332 348
f 348 332 331
f 331 348 347
f 347 348 331
f 332 333 349
f 349 333 332
f 332 349 348
f 348 349 332
f 333 334 350
f 350 334 333
f 333 350 349
f 349 350 333
f 334 335 351
f 351 335 334
f 334 351 350
f 350 351 334
f 335 336 352
f 352 336 335
f 335 352 351
f 351 352 335
f 336 337 353
f 353 337 336
f 336 353 352
f 352 353 336
f 337 338 354
f 354 338 337
f 337 354 353
f 353 354 337
f 338 339 355
f 355 339 338
f 338 355 354
f 354 355 338
f 339 340 356
f 356 340 339
f 339 356 355
f 355 356 339
f 340 341 357
f 357 341 340
f 340 357 356
f 356 357 340
f 341 342 358
f 358 342 341
f 341 358 357
f 357 358 341
f 342 343 359
f 359 343 342
f 342 359 358
f 358 359 342
f 343 328 344
f 344 328 343
f 343 344 359
f 359 344 343
v 0.000000 0.000000 0.120000
v 0.084853 0.000000 0.084853
v 0.120000 0.000000 0.000000
v 0.084853 0.000000 -0.084853
v 0.000000 0.000000 -0.120000
v -0.084853 0.000000 -0.084853
v -0.120000 0.000000 -0.000000
v -0.084853 0.000000 0.084853
v 0.000000 7.800000 0.120000
v 0.084853 7.800000 0.084853
v 0.120000 7.800000 0.000000
v 0.084853 7.800000 -0.084853
v 0.000000 7.800000 -0.120000
v -0.084853 7.800000 -0.084853
v -0.120000 7.800000 -0.000000
v -0.084853 7.800000 0.084853
f 360 361 369
f 360 369 368
f 361 362 370
f 361 370 369
f 362 363 371
f 362 371 370
f 363 364 372
f 363 372 371
f 364 365 373
f 364 373 372
f 365 366 374
f 365 374 373
f 366 367 375
f 366 375 374
f 367 360 368
f 367 368 375
v 0.149042 0.242857 -0.046760
v 0.110956 0.342857 0.045704
v 0.072869 0.242857 0.138167
v 0.110956 0.142857 0.045704
v 1.101412 0.242857 0.345529
v 1.063326 0.342857 0.437992
v 1.025240 0.242857 0.530456
v 1.063326 0.142857 0.437992
f 376 377 381
f 376 381 380
f 377 378 382
f 377 382 381
f 378 379 383
f 378 383 382
f 379 376 380
f 379 380 383
v 0.113994 0.485714 -0.106796
v 0.119798 0.585714 -0.006964
v 0.125601 0.485714 0.092867
v 0.119798 0.385714 -0.006964
v 1.142258 0.485714 -0.166574
v 1.148062 0.585714 -0.066742
v 1.153865 0.485714 0.033089
v 1.148062 0.385714 -0.066742
f 384 385 389
f 384 389 388
f 385 386 390
f 385 390 389
f 386 387 391
f 386 391 390
f 387 384 388
f 387 388 391
v 0.056368 0.728571 -0.145680
v 0.104912 0.828571 -0.058253
v 0.153456 0.728571 0.029174
v 0.104912 0.628571 -0.058253
v 0.956865 0.728571 -0.645685
v 1.005409 0.828571 -0.558258
v 1.053954 0.728571 -0.470831
v 1.005409 0.628571 -0.558258
f 392 393 397
f 392 397 396
f 393 394 398
f 393 398 397
f 394 395 399
f 394 399 398
f 395 392 396
f 395 396 399
v -0.012422 0.971429 -0.155710
v 0.069248 1.071429 -0.098004
v 0.150918 0.971429 -0.040297
v 0.069248 0.871429 -0.098004
v 0.581954 0.971429 -0.996910
v 0.663623 1.071429 -0.939204
v 0.745293 0.971429 -0.881497
v 0.663623 0.871429 -0.939204
f 400 401 405
f 400 405 404
f 401 402 406
f 401 406 405
f 402 403 407
f 402 407 406
f 403 400 404
f 403 404 407
v -0.078752 1.214286 -0.134900
v 0.019868 1.314286 -0.118344
v 0.118488 1.214286 -0.101787
v 0.019868 1.114286 -0.118344
v 0.091779 1.214286 -1.150685
v 0.190399 1.314286 -1.134129
v 0.289019 1.214286 -1.117572
v 0.190399 1.114286 -1.134129
f 408 409 413
f 408 413 412
f 409 410 414
f 409 414 413
f 410 411 415
f 410 415 414
f 411 408 412
f 411 412 415
v -0.129484 1.457143 -0.087372
v -0.033447 1.557143 -0.115244
v 0.062590 1.457143 -0.143117
v -0.033447 1.357143 -0.115244
v -0.416574 1.457143 -1.076553
v -0.320537 1.557143 -1.104426
v -0.224500 1.457143 -1.132298
v -0.320537 1.357143 -1.104426
f 416 417 421
f 416 421 420
f 417 418 422
f 417 422 421
f 418 419 423
f 418 423 422
f 419 416 420
f 419 420 423
v -0.154570 1.700000 -0.022538
v -0.080138 1.800000 -0.089319
v -0.005705 1.700000 -0.156101
v -0.080138 1.600000 -0.089319
v -0.842419 1.700000 -0.789196
v -0.767986 1.800000 -0.855978
v -0.693553 1.700000 -0.922759
v -0.767986 1.600000 -0.855978
f 424 425 429
f 424 429 428
f 425 426 430
f 425 430 429
f 426 427 431
f 426 431 430
f 427 424 428
f 427 428 431
v -0.149042 1.942857 0.046760
v -0.110956 2.042857 -0.045704
v -0.072869 1.942857 -0.138167
v -0.110956 1.842857 -0.045704
v -1.101412 1.942857 -0.345529
v -1.063326 2.042857 -0.437992
v -1.025240 1.942857 -0.530456
v -1.063326 1.842857 -0.437992
f 432 433 437
f 432 437 436
f 433 434 438
f 433 438 437
f 434 435 439
f 434 439 438
f 435 432 436
f 435 436 439
v -0.113994 2.185714 0.106796
v -0.119798 2.285714 0.006964
v -0.125601 2.185714 -0.092867
v -0.119798 2.085714 0.006964
v -1.142258 2.185714 0.166574
v -1.148062 2.285714 0.066742
v -1.153865 2.185714 -0.033089
v -1.148062 2.085714 0.066742
f 440 441 445
f 440 445 444
f 441 442 446
f 441 446 445
f 442 443 447
f 442 447 446
f 443 440 444
f 443 444 447
v -0.056368 2.428571 0.145680
v -0.104912 2.528571 0.058253
v -0.153456 2.428571 -0.029174
v -0.104912 2.328571 0.058253
v -0.956865 2.428571 0.645685
v -1.005409 2.528571 0.558258
v -1.053954 2.428571 0.470831
v -1.005409 2.328571 0.558258
f 448 449 453
f 448 453 452
f 449 450 454
f 449 454 453
f 450 451 455
f 450 455 454
f 451 448 452
f 451 452 455
v 0.012422 2.671429 0.155710
v -0.069248 2.771429 0.098004
v -0.150918 2.671429 0.040297
v -0.069248 2.571429 0.098004
v -0.581954 2.671429 0.996910
v -0.663623 2.771429 0.939204
v -0.745293 2.671429 0.881497
v -0.663623 2.571429 0.939204
f 456 457 461
f 456 461 460
f 457 458 462
f 457 462 461
f 458 459 463
f 458 463 462
f 459 456 460
f 459 460 463
v 0.078752 2.914286 0.134900
v -0.019868 3.014286 0.118344
v -0.118488 2.914286 0.101787
v -0.019868 2.814286 0.118344
v -0.091779 2.914286 1.150685
v -0.190399 3.014286 1.134129
v -0.289019 2.914286 1.117572
v -0.190399 2.814286 1.134129
f 464 465 469
f 464 469 468
f 465 466 470
f 465 470 469
f 466 467 471
f 466 471 470
f 467 464 468
f 467 468 471
v 0.129484 3.157143 0.087372
v 0.033447 3.257143 0.115244
v -0.062590 3.157143 0.143117
v 0.033447 3.057143 0.115244
v 0.416574 3.157143 1.076553
v 0.320537 3.257143 1.104426
v 0.224500 3.157143 1.132298
v 0.320537 3.057143 1.104426
f 472 473 477
f 472 477 476
f 473 474 478
f 473 478 477
f 474 475 479
f 474 479 478
f 475 472 476
f 475 476 479
v 0.154570 3.400000 0.022538
v 0.080138 3.500000 0.089319
v 0.005705 3.400000 0.156101
v 0.080138 3.300000 0.089319
v 0.842419 3.400000 0.789196
v 0.767986 3.500000 0.855978
v 0.693553 3.400000 0.922759
v 0.767986 3.300000 0.855978
f 480 481 485
f 480 485 484
f 481 482 486
f 481 486 485
f 482 483 487
f 482 487 486
f 483 480 484
f 483 484 487
v 0.149042 3.642857 -0.046760
v 0.110956 3.742857 0.045704
v 0.072869 3.642857 0.138167
v 0.110956 3.542857 0.045704
v 1.101412 3.642857 0.345529
v 1.063326 3.742857 0.437992
v 1.025240 3.642857 0.530456
v 1.063326 3.542857 0.437992
f 488 489 493
f 488 493 492
f 489 490 494
f 489 494 493
f 490 491 495
f 490 495 494
f 491 488 492
f 491 492 495
v 0.113994 3.885714 -0.106796
v 0.119798 3.985714 -0.006964
v 0.125601 3.885714 0.092867
v 0.119798 3.785714 -0.006964
v 1.142258 3.885714 -0.166574
v 1.148062 3.985714 -0.066742
v 1.153865 3.885714 0.033089
v 1.148062 3.785714 -0.066742
f 496 497 501
f 496 501 500
f 497 498 502
f 497 502 501
f 498 499 503
f 498 503 502
f 499 496 500
f 499 500 503
v 0.056368 4.128571 -0.145680
v 0.104912 4.228571 -0.058253
v 0.153456 4.128571 0.029174
v 0.104912 4.028571 -0.058253
v 0.956865 4.128571 -0.645685
v 1.005409 4.228571 -0.558258
v 1.053954 4.128571 -0.470831
v 1.005409 4.028571 -0.558258
f 504 505 509
f 504 509 508
f 505 506 510
f 505 510 509
f 506 507 511
f 506 511 510
f 507 504 508
f 507 508 511
v -0.012422 4.371429 -0.155710
v 0.069248 4.471429 -0.098004
v 0.150918 4.371429 -0.040297
v 0.069248 4.271429 -0.098004
v 0.581954 4.371429 -0.996910
v 0.663623 4.471429 -0.939204
v 0.745293 4.371429 -0.881497
v 0.663623 4.271429 -0.939204
f 512 513 517
f 512 517 516
f 513 514 518
f 513 518 517
f 514 515 519
f 514 519 518
f 515 512 516
f 515 516 519
v -0.078752 4.614286 -0.134900
v 0.019868 4.714286 -0.118344
v 0.118488 4.614286 -0.101787
v 0.019868 4.514286 -0.118344
v 0.091779 4.614286 -1.150685
v 0.190399 4.714286 -1.134129
v 0.289019 4.614286 -1.117572
v 0.190399 4.514286 -1.134129
f 520 521 525
f 520 525 524
f 521 522 526
f 521 526 525
f 522 523 527
f 522 527 526
f 523 520 524
f 523 524 527
v -0.129484 4.857143 -0.087372
v -0.033447 4.957143 -0.115244
v 0.062590 4.857143 -0.143117
v -0.033447 4.757143 -0.115244
v -0.416574 4.857143 -1.076553
v -0.320537 4.957143 -1.104426
v -0.224500 4.857143 -1.132298
v -0.320537 4.757143 -1.104426
f 528 529 533
f 528 533 532
f 529 530 534
f 529 534 533
f 530 531 535
f 530 535 534
f 531 528 532
f 531 532 535
v -0.154570 5.100000 -0.022538
v -0.080138 5.200000 -0.089319
v -0.005705 5.100000 -0.156101
v -0.080138 5.000000 -0.089319
v -0.842419 5.100000 -0.789196
v -0.767986 5.200000 -0.855978
v -0.693553 5.100000 -0.922759
v -0.767986 5.000000 -0.855978
f 536 537 541
f 536 541 540
f 537 538 542
f 537 542 541
f 538 539 543
f 538 543 542
f 539 536 540
f 539 540 543
v -0.149042 5.342857 0.046760
v -0.110956 5.442857 -0.045704
v -0.072869 5.342857 -0.138167
v -0.110956 5.242857 -0.045704
v -1.101412 5.342857 -0.345529
v -1.063326 5.442857 -0.437992
v -1.025240 5.342857 -0.530456
v -1.063326 5.242857 -0.437992
f 544 545 549
f 544 549 548
f 545 546 550
f 545 550 549
f 546 547 551
f 546 551 550
f 547 544 548
f 547 548 551
v -0.113994 5.585714 0.106796
v -0.119798 5.685714 0.006964
v -0.125601 5.585714 -0.092867
v -0.119798 5.485714 0.006964
v -1.142258 5.585714 0.166574
v -1.148062 5.685714 0.066742
v -1.153865 5.585714 -0.033089
v -1.148062 5.485714 0.066742
f 552 553 557
f 552 557 556
f 553 554 558
f 553 558 557
f 554 555 559
f 554 559 558
f 555 552 556
f 555 556 559
v -0.056368 5.828571 0.145680
v -0.104912 5.928571 0.058253
v -0.153456 5.828571 -0.029174
v -0.104912 5.728571 0.058253
v -0.956865 5.828571 0.645685
v -1.005409 5.928571 0.558258
v -1.053954 5.828571 0.470831
v -1.005409 5.728571 0.558258
f 560 561 565
f 560 565 564
f 561 562 566
f 561 566 565
f 562 563 567
f 562 567 566
f 563 560 564
f 563 564 567
v 0.012422 6.071429 0.155710
v -0.069248 6.171429 0.098004
v -0.150918 6.071429 0.040297
v -0.069248 5.971429 0.098004
v -0.581954 6.071429 0.996910
v -0.663623 6.171429 0.939204
v -0.745293 6.071429 0.881497
v -0.663623 5.971429 0.939204
f 568 569 573
f 568 573 572
f 569 570 574
f 569 574 573
f 570 571 575
f 570 575 574
f 571 568 572
f 571 572 575
v 0.078752 6.314286 0.134900
v -0.019868 6.414286 0.118344
v -0.118488 6.314286 0.101787
v -0.019868 6.214286 0.118344
v -0.091779 6.314286 1.150685
v -0.190399 6.414286 1.134129
v -0.289019 6.314286 1.117572
v -0.190399 6.214286 1.134129
f 576 577 581
f 576 581 580
f 577 578 582
f 577 582 581
f 578 579 583
f 578 583 582
f 579 576 580
f 579 580 583
v 0.129484 6.557143 0.087372
v 0.033447 6.657143 0.115244
v -0.062590 6.557143 0.143117
v 0.033447 6.457143 0.115244
v 0.416574 6.557143 1.076553
v 0.320537 6.657143 1.104426
v 0.224500 6.557143 1.132298
v 0.320537 6.457143 1.104426
f 584 585 589
f 584 589 588
f 585 586 590
f 585 590 589
f 586 587 591
f 586 591 590
f 587 584 588
f 587 588 591
v 0.154570 6.800000 0.022538
v 0.080138 6.900000 0.089319
v 0.005705 6.800000 0.156101
v 0.080138 6.700000 0.089319
v 0.842419 6.800000 0.789196
v 0.767986 6.900000 0.855978
v 0.693553 6.800000 0.922759
v 0.767986 6.700000 0.855978
f 592 593 597
f 592 597 596
f 593 594 598
f 593 598 597
f 594 595 599
f 594 599 598
f 595 592 596
f 595 596 599
