o mesh
v 1.840042 4.029729 -0.875989
v 1.805028 4.039117 -0.887729
v 1.828559 4.020340 -0.911089
v 1.654061 3.566962 -0.691367
v 1.619046 3.576350 -0.703107
v 1.642578 3.557574 -0.726467
f 1 2 5
f 1 5 4
f 2 3 6
f 2 6 5
f 3 1 4
f 3 4 6
v 1.631118 3.566962 -0.716392
v 1.647946 3.574438 -0.706752
v 1.636621 3.559487 -0.697796
v 1.849340 3.298283 -0.888974
v 1.866168 3.305758 -0.879333
v 1.854843 3.290807 -0.870377
f 7 8 11
f 7 11 10
f 8 9 12
f 8 12 11
f 9 7 10
f 9 10 12
v 1.627302 3.566962 -0.725880
v 1.658744 3.575682 -0.706200
v 1.629638 3.558242 -0.688860
v 1.802233 3.171397 -0.830095
v 1.833676 3.180117 -0.810414
v 1.804570 3.162677 -0.793074
f 13 14 17
f 13 17 16
f 14 15 18
f 14 18 17
f 15 13 16
f 15 16 18
v 1.813493 3.179125 -0.831792
v 1.832449 3.165742 -0.801567
v 1.794537 3.169323 -0.800224
v 1.756566 2.650768 -1.030047
v 1.775522 2.637384 -0.999822
v 1.737609 2.640965 -0.998478
f 19 20 23
f 19 23 22
f 20 21 24
f 20 24 23
f 21 19 22
f 21 22 24
v 1.752540 2.643039 -1.020754
v 1.761693 2.652891 -1.004906
v 1.755464 2.633187 -1.002688
v 2.072769 2.528978 -1.134787
v 2.081922 2.538831 -1.118939
v 2.075693 2.519126 -1.116721
f 25 26 29
f 25 29 28
f 26 27 30
f 26 30 29
f 27 25 28
f 27 28 30
v 1.743150 2.643039 -1.026885
v 1.776531 2.652158 -1.010932
v 1.750015 2.633920 -0.990530
v 1.921220 2.230889 -1.163896
v 1.954602 2.240009 -1.147943
v 1.928086 2.221770 -1.127541
f 31 32 35
f 31 35 34
f 32 33 36
f 32 36 35
f 33 31 34
f 33 34 36
v 1.934636 2.225131 -1.167693
v 1.953177 2.229537 -1.134696
v 1.916095 2.237999 -1.136990
v 1.801538 1.681839 -1.020363
v 1.820079 1.686245 -0.987365
v 1.782997 1.694707 -0.989660
f 37 38 41
f 37 41 40
f 38 39 42
f 38 42 41
f 39 37 40
f 39 40 42
v -1.684422 4.035428 -1.155549
v -1.665892 4.022598 -1.124823
v -1.702952 4.031160 -1.122527
v -1.770350 3.688416 -1.248621
v -1.751820 3.675587 -1.217895
v -1.788880 3.684148 -1.215599
f 43 44 47
f 43 47 46
f 44 45 48
f 44 48 47
f 45 43 46
f 45 46 48
v -1.770350 3.682712 -1.249372
v -1.751299 3.682974 -1.216372
v -1.789401 3.682464 -1.216372
v -1.763925 3.202011 -1.249270
v -1.744874 3.202273 -1.216270
v -1.782976 3.201763 -1.216270
f 49 50 53
f 49 53 52
f 50 51 54
f 50 54 53
f 51 49 52
f 51 52 54
v -1.745876 3.202016 -1.214692
v -1.782448 3.211344 -1.219930
v -1.763451 3.192688 -1.247189
v -1.885158 2.768166 -1.014833
v -1.921731 2.777494 -1.020071
v -1.902734 2.758838 -1.047331
f 55 56 59
f 55 59 58
f 56 57 60
f 56 60 59
f 57 55 58
f 57 58 60
v -1.903208 2.772359 -1.049008
v -1.884444 2.769312 -1.015984
v -1.921972 2.762826 -1.017243
v -1.823072 2.325588 -1.135761
v -1.804308 2.322541 -1.102736
v -1.841836 2.316055 -1.103996
f 61 62 65
f 61 65 64
f 62 63 66
f 62 66 65
f 63 61 64
f 63 64 66
v -1.823072 2.317734 -1.135858
v -1.804464 2.319189 -1.102636
v -1.841680 2.327261 -1.103999
v -1.916832 1.897429 -1.064932
v -1.898225 1.898884 -1.031711
v -1.935440 1.906956 -1.033073
f 67 68 71
f 67 71 70
f 68 69 72
f 68 72 71
f 69 67 70
f 69 70 72
v -1.916832 1.908427 -1.063979
v -1.897946 1.895056 -1.033705
v -1.935719 1.899786 -1.032031
v -1.968853 1.539232 -1.194586
v -1.949967 1.525861 -1.164312
v -1.987740 1.530591 -1.162639
f 73 74 77
f 73 77 76
f 74 75 78
f 74 78 77
f 75 73 76
f 75 76 78
v -1.968853 1.531963 -1.195846
v -1.951206 1.539042 -1.162824
v -1.986500 1.524678 -1.162868
v -1.818526 1.162609 -1.196999
v -1.800879 1.169688 -1.163977
v -1.836173 1.155323 -1.164022
f 79 80 83
f 79 83 82
f 80 81 84
f 80 84 83
f 81 79 82
f 81 82 84
v -1.818526 1.162023 -1.196993
v -1.800714 1.169558 -1.164162
v -1.836339 1.156039 -1.163844
v -1.618614 0.635491 -1.184609
v -1.600801 0.643026 -1.151777
v -1.636426 0.629508 -1.151460
f 85 86 89
f 85 89 88
f 86 87 90
f 86 90 89
f 87 85 88
f 87 88 90
v -1.607692 0.636008 -1.167586
v -1.622725 0.645877 -1.157165
v -1.625424 0.626140 -1.163095
v -1.409955 0.478426 -0.733137
v -1.424989 0.488294 -0.722715
v -1.427688 0.468557 -0.728646
f 91 92 95
f 91 95 94
f 92 93 96
f 92 96 95
f 93 91 94
f 93 94 96
v -1.624576 0.636008 -1.183792
v -1.599163 0.644389 -1.156665
v -1.632102 0.627627 -1.147390
v -1.427576 0.218186 -1.239261
v -1.402162 0.226567 -1.212134
v -1.435102 0.209804 -1.202859
f 97 98 101
f 97 101 100
f 98 99 102
f 98 102 101
f 99 97 100
f 99 100 102
v -1.392716 4.034159 0.508460
v -1.373799 4.025294 0.540327
v -1.411633 4.029733 0.541240
v -1.440109 3.646617 0.428778
v -1.421192 3.637751 0.460646
v -1.459026 3.642190 0.461559
f 103 104 107
f 103 107 106
f 104 105 108
f 104 108 107
f 105 103 106
f 105 106 108
v -1.440109 3.647472 0.428972
v -1.421329 3.642658 0.461776
v -1.458889 3.636428 0.460234
v -1.344415 3.103796 0.294396
v -1.325635 3.098982 0.327200
v -1.363195 3.092752 0.325658
f 109 110 113
f 109 113 112
f 110 111 114
f 110 114 113
f 111 109 112
f 111 112 114
v -1.344415 3.097225 0.293789
v -1.325397 3.100293 0.326665
v -1.363433 3.098011 0.326799
v -1.316047 2.625971 0.321354
v -1.297029 2.629039 0.354231
v -1.335065 2.626757 0.354364
f 115 116 119
f 115 119 118
f 116 117 120
f 116 120 119
f 117 115 118
f 117 118 120
v -1.316047 2.635799 0.323043
v -1.297023 2.623942 0.353856
v -1.335071 2.622027 0.353049
v -1.288522 2.171457 0.127371
v -1.269498 2.159600 0.158185
v -1.307546 2.157685 0.157378
f 121 122 125
f 121 125 124
f 122 123 126
f 122 126 125
f 123 121 124
f 123 124 126
v -1.288522 2.163835 0.125664
v -1.270311 2.168049 0.158870
v -1.306732 2.156857 0.158401
v -1.134309 1.662886 0.104669
v -1.116098 1.667100 0.137875
v -1.152519 1.655908 0.137406
f 127 128 131
f 127 131 130
f 128 129 132
f 128 132 131
f 129 127 130
f 129 130 132
v -1.129445 1.661965 0.137620
v -1.137765 1.672297 0.121619
v -1.135716 1.651633 0.120711
v -1.344295 1.636480 0.232879
v -1.352615 1.646812 0.216878
v -1.350566 1.626148 0.215970
f 133 134 137
f 133 137 136
f 134 135 138
f 134 138 137
f 135 133 136
f 135 136 138
v -1.149739 1.661965 0.110969
v -1.115385 1.672722 0.123461
v -1.137802 1.651208 0.145520
v -0.961030 1.274948 -0.074719
v -0.926676 1.285705 -0.062226
v -0.949094 1.264191 -0.040168
f 139 140 143
f 139 143 142
f 140 141 144
f 140 144 143
f 141 139 142
f 141 142 144
v -0.924868 1.274948 -0.066398
v -0.950540 1.284948 -0.040075
v -0.961392 1.264947 -0.070640
v -0.861821 0.969369 0.111181
v -0.887493 0.979370 0.137505
v -0.898345 0.959369 0.106940
f 145 146 149
f 145 149 148
f 146 147 150
f 146 150 149
f 147 145 148
f 147 148 150
v -0.723533 4.026663 -1.324501
v -0.704636 4.033670 -1.292162
v -0.742429 4.028853 -1.291484
v -0.675646 3.658298 -1.272662
v -0.656749 3.665306 -1.240323
v -0.694542 3.660488 -1.239645
f 151 152 155
f 151 155 154
f 152 153 156
f 152 156 155
f 153 151 154
f 153 154 156
v -0.675646 3.662459 -1.272850
v -0.656651 3.659331 -1.239965
v -0.694640 3.662303 -1.239816
v -0.717077 3.134103 -1.299171
v -0.698083 3.130976 -1.266286
v -0.736071 3.133947 -1.266138
f 157 158 161
f 157 161 160
f 158 159 162
f 158 162 161
f 159 157 160
f 159 160 162
v -0.717077 3.140521 -1.297876
v -0.698634 3.124759 -1.268492
v -0.735520 3.133746 -1.265227
v -0.847915 2.666150 -1.470221
v -0.829472 2.650387 -1.440837
v -0.866358 2.659375 -1.437572
f 163 164 167
f 163 167 166
f 164 165 168
f 164 168 167
f 165 163 166
f 165 166 168
v -0.841569 2.658637 -1.439359
v -0.855682 2.667508 -1.451773
v -0.846493 2.649766 -1.457499
v -1.211215 2.392844 -1.209037
v -1.225328 2.401715 -1.221451
v -1.216139 2.383974 -1.227177
f 169 170 173
f 169 173 172
f 170 171 174
f 170 174 173
f 171 169 172
f 171 172 174
v -0.857673 2.658637 -1.429826
v -0.858181 2.667435 -1.466898
v -0.827889 2.649839 -1.451906
v -1.029038 2.291371 -1.514637
v -1.029546 2.300169 -1.551709
v -0.999254 2.282573 -1.536717
f 175 176 179
f 175 179 178
f 176 177 180
f 176 180 179
f 177 175 178
f 177 178 180
v -1.019279 2.297338 -1.555530
v -1.000232 2.288842 -1.523639
v -1.038326 2.287933 -1.523895
v -1.006529 1.802690 -1.694922
v -0.987482 1.794194 -1.663031
v -1.025576 1.793285 -1.663287
f 181 182 185
f 181 185 184
f 182 183 186
f 182 186 185
f 183 181 184
f 183 184 186
v -1.006529 1.794179 -1.695599
v -0.988793 1.791082 -1.662016
v -1.024265 1.804908 -1.663625
v -1.131067 1.478957 -1.658902
v -1.113331 1.475860 -1.625318
v -1.148803 1.489686 -1.626928
f 187 188 191
f 187 191 190
f 188 189 192
f 188 192 191
f 189 187 190
f 189 190 192
v -1.131067 1.485705 -1.658644
v -1.112271 1.482460 -1.625656
v -1.149863 1.476338 -1.626848
v -1.066267 1.102337 -1.733278
v -1.047472 1.099092 -1.700290
v -1.085063 1.092970 -1.701482
f 193 194 197
f 193 197 196
f 194 195 198
f 194 198 197
f 195 193 196
f 195 196 198
v 1.198246 4.032753 -1.661339
v 1.216154 4.021774 -1.629547
v 1.180338 4.034658 -1.627759
v 1.074325 3.694782 -1.708251
v 1.092234 3.683803 -1.676458
v 1.056417 3.696687 -1.674670
f 199 200 203
f 199 203 202
f 200 201 204
f 200 204 203
f 201 199 202
f 201 202 204
v 1.074325 3.690401 -1.708418
v 1.093323 3.693885 -1.675570
v 1.055328 3.690986 -1.675391
v 1.106233 3.273841 -1.682688
v 1.125230 3.277325 -1.649841
v 1.087236 3.274426 -1.649662
f 205 206 209
f 205 209 208
f 206 207 210
f 206 210 209
f 207 205 208
f 207 208 210
v 1.089781 3.275197 -1.646124
v 1.103156 3.283752 -1.680764
v 1.125761 3.266642 -1.655303
v 0.924667 2.780326 -1.832090
v 0.938041 2.788882 -1.866730
v 0.960647 2.771771 -1.841270
f 211 212 215
f 211 215 214
f 212 213 216
f 212 216 215
f 213 211 214
f 213 214 216
v 0.941118 2.779107 -1.868663
v 0.960170 2.780720 -1.835701
v 0.922067 2.781153 -1.835725
v 0.934979 2.241051 -1.838779
v 0.954030 2.242664 -1.805818
v 0.915927 2.243097 -1.805842
f 217 218 221
f 217 221 220
f 218 219 222
f 218 222 221
f 219 217 220
f 219 220 222
v 0.916708 2.242271 -1.804559
v 0.934610 2.250749 -1.837111
v 0.953618 2.233793 -1.808770
v 0.793474 1.797023 -1.988293
v 0.811376 1.805501 -2.020845
v 0.830385 1.788545 -1.992505
f 223 224 227
f 223 227 226
f 224 225 228
f 224 228 227
f 225 223 226
f 225 226 228
v 0.811745 1.799077 -2.022452
v 0.830387 1.799911 -1.989229
v 0.793103 1.792081 -1.989963
v 0.915937 1.307211 -2.068578
v 0.934579 1.308045 -2.035355
v 0.897294 1.300215 -2.036089
f 229 230 233
f 229 233 232
f 230 231 234
f 230 234 233
f 231 229 232
f 231 232 234
v -0.753167 4.029729 1.295516
v -0.786459 4.038705 1.279298
v -0.759631 4.020752 1.259052
v -0.945811 3.577905 1.440895
v -0.979104 3.586882 1.424677
v -0.952275 3.568929 1.404431
f 235 236 239
f 235 239 238
f 236 237 240
f 236 240 239
f 237 235 238
f 237 238 240
v -0.959063 3.569556 1.402980
v -0.940019 3.582592 1.433301
v -0.978108 3.581568 1.433721
v -0.945406 3.134497 1.581451
v -0.926362 3.147533 1.611772
v -0.964451 3.146509 1.612191
f 241 242 245
f 241 245 244
f 242 243 246
f 242 246 245
f 243 241 244
f 243 244 246
v -0.936095 3.142846 1.609374
v -0.950953 3.153142 1.599116
v -0.949170 3.132551 1.596923
v -1.011141 3.126517 1.701689
v -1.026000 3.136813 1.691431
v -1.024217 3.116222 1.689238
f 247 248 251
f 247 251 250
f 248 249 252
f 248 252 251
f 249 247 250
f 249 250 252
v -0.945406 3.150805 1.581295
v -0.926414 3.140279 1.612608
v -0.964398 3.137454 1.611511
v -0.912048 2.760978 1.430025
v -0.893056 2.750453 1.461338
v -0.931040 2.747628 1.460241
f 253 254 257
f 253 257 256
f 254 255 258
f 254 258 257
f 255 253 256
f 255 256 258
v -0.912048 2.757047 1.428906
v -0.893135 2.753270 1.461770
v -0.930961 2.748742 1.460927
v -0.861406 2.348208 1.352776
v -0.842493 2.344431 1.385640
v -0.880319 2.339903 1.384797
f 259 260 263
f 259 263 262
f 260 261 264
f 260 264 263
f 261 259 262
f 261 262 264
v -0.861406 2.347901 1.352721
v -0.842365 2.341669 1.385134
v -0.880447 2.342972 1.385358
v -0.879644 1.830001 1.263859
v -0.860602 1.823769 1.296272
v -0.898685 1.825072 1.296496
f 265 266 269
f 265 269 268
f 266 267 270
f 266 270 269
f 267 265 268
f 267 268 270
v -0.891012 1.826281 1.289383
v -0.875709 1.835118 1.278442
v -0.872209 1.817443 1.288802
v -1.016933 1.582885 0.916644
v -1.001630 1.591723 0.905703
v -0.998130 1.574047 0.916063
f 271 272 275
f 271 275 274
f 272 273 276
f 272 276 275
f 273 271 274
f 273 274 276
v -0.892112 1.826281 1.267417
v -0.860060 1.836304 1.285422
v -0.886758 1.816257 1.303788
v -0.707943 1.464952 1.140724
v -0.675891 1.474976 1.158729
v -0.702589 1.454928 1.177095
f 277 278 281
f 277 281 280
f 278 279 282
f 278 282 281
f 279 277 280
f 279 280 282
v -0.695475 1.468260 1.137100
v -0.676467 1.464583 1.169920
v -0.714483 1.462012 1.169529
v -0.663428 1.005040 1.066637
v -0.644420 1.001362 1.099457
v -0.682437 0.998792 1.099066
f 283 284 287
f 283 287 286
f 284 285 288
f 284 288 287
f 285 283 286
f 285 286 288
v -0.675425 1.001731 1.088088
v -0.657303 1.010774 1.083415
v -0.657558 0.992689 1.093656
v -0.666838 0.806151 0.742946
v -0.648716 0.815193 0.738273
v -0.648971 0.797109 0.748514
f 289 290 293
f 289 293 292
f 290 291 294
f 290 294 293
f 291 289 292
f 291 292 294
v -0.140121 4.026322 2.004167
v -0.122109 4.037566 2.035808
v -0.158134 4.025297 2.037730
v 0.028240 3.543832 2.079782
v 0.046252 3.555076 2.111422
v 0.010227 3.542807 2.113345
f 295 296 299
f 295 299 298
f 296 297 300
f 296 300 299
f 297 295 298
f 297 298 300
v 0.023553 3.547239 2.090469
v 0.038494 3.553082 2.103684
v 0.022671 3.541395 2.110396
v 0.147140 3.349787 2.038041
v 0.162081 3.355630 2.051255
v 0.146258 3.343944 2.057967
f 301 302 305
f 301 305 304
f 302 303 306
f 302 306 305
f 303 301 304
f 303 304 306
v 0.028240 3.553374 2.080389
v 0.047238 3.545545 2.112479
v 0.009241 3.542797 2.111681
v 0.053850 3.226846 1.985569
v 0.072849 3.219018 2.017659
v 0.034851 3.216269 2.016861
f 307 308 311
f 307 311 310
f 308 309 312
f 308 312 311
f 309 307 310
f 309 310 312
v 0.053350 3.220711 1.994707
v 0.055304 3.231033 2.012641
v 0.052897 3.210389 2.012742
v 0.311443 3.190565 1.983942
v 0.313396 3.200887 2.001877
v 0.310989 3.180243 2.001977
f 313 314 317
f 313 317 316
f 314 315 318
f 314 318 317
f 315 313 316
f 315 316 318
v 0.053850 3.228059 1.985960
v 0.072815 3.218758 2.017675
v 0.034885 3.215316 2.016455
v 0.107172 2.706098 1.801009
v 0.126137 2.696798 1.832723
v 0.088208 2.693355 1.831504
f 319 320 323
f 319 323 322
f 320 321 324
f 320 324 323
f 321 319 322
f 321 322 324
v 0.117332 2.698751 1.815360
v 0.103348 2.708871 1.826936
v 0.100836 2.688630 1.822939
v 0.423798 2.564429 2.302981
v 0.409814 2.574550 2.314558
v 0.407302 2.554308 2.310561
f 325 326 329
f 325 329 328
f 326 327 330
f 326 330 329
f 327 325 328
f 327 328 330
v 0.107172 2.702067 1.799997
v 0.125844 2.700839 1.833191
v 0.088501 2.693345 1.832048
v 0.188617 2.305434 1.739519
v 0.207289 2.304207 1.772713
v 0.169945 2.296713 1.771571
f 331 332 335
f 331 335 334
f 332 333 336
f 332 336 335
f 333 331 334
f 333 334 336
v 0.820768 4.035838 1.836351
v 0.839727 4.024869 1.867531
v 0.801808 4.028478 1.868574
v 0.764338 3.488594 1.678146
v 0.783297 3.477625 1.709327
v 0.745378 3.481233 1.710370
f 337 338 341
f 337 341 340
f 338 339 342
f 338 342 341
f 339 337 340
f 339 340 342
v 0.758680 3.482484 1.720541
v 0.750737 3.491084 1.684279
v 0.783596 3.473885 1.693023
v 0.585928 3.129067 1.674566
v 0.577986 3.137667 1.638304
v 0.610845 3.120467 1.647049
f 343 344 347
f 343 347 346
f 344 345 348
f 344 348 347
f 345 343 346
f 345 346 348
v 0.591586 3.126253 1.631487
v 0.610114 3.126071 1.664784
v 0.573058 3.134877 1.663648
v 0.509318 2.785739 1.675407
v 0.527846 2.785557 1.708704
v 0.490789 2.794363 1.707568
f 349 350 353
f 349 353 352
f 350 351 354
f 350 354 353
f 351 349 352
f 351 352 354
v 0.492276 2.788553 1.711139
v 0.507697 2.798840 1.677847
v 0.527980 2.778266 1.702692
v 0.359329 2.460824 1.548294
v 0.374750 2.471111 1.515002
v 0.395033 2.450537 1.539847
f 355 356 359
f 355 359 358
f 356 357 360
f 356 360 359
f 357 355 358
f 357 358 360
v 0.376371 2.452925 1.513847
v 0.395326 2.466570 1.543956
v 0.357416 2.462976 1.545339
v 0.420487 2.047568 1.669769
v 0.439442 2.061212 1.699878
v 0.401532 2.057618 1.701261
f 361 362 365
f 361 365 364
f 362 363 366
f 362 366 365
f 363 361 364
f 363 364 366
v 0.420487 2.048257 1.669517
v 0.439022 2.054903 1.702141
v 0.401952 2.063238 1.699250
v 0.304531 1.587919 1.829168
v 0.323066 1.594564 1.861791
v 0.285997 1.602899 1.858900
f 367 368 371
f 367 371 370
f 368 369 372
f 368 372 371
f 369 367 370
f 369 370 372
v 0.297415 1.595127 1.859615
v 0.306315 1.605283 1.843815
v 0.309864 1.584971 1.846429
v -0.126918 1.480761 1.547068
v -0.118018 1.490917 1.531268
v -0.114469 1.470605 1.533882
f 373 374 377
f 373 377 376
f 374 375 378
f 374 378 377
f 375 373 376
f 375 376 378
v 0.304531 1.603552 1.829630
v 0.323581 1.590622 1.859993
v 0.285482 1.591207 1.860236
v 0.296454 1.154652 1.643545
v 0.315504 1.141722 1.673908
v 0.277404 1.142307 1.674150
f 379 380 383
f 379 383 382
f 380 381 384
f 380 384 383
f 381 379 382
f 381 382 384
v 0.302443 1.146227 1.653469
v 0.297753 1.155362 1.671540
v 0.289166 1.137092 1.666594
v 0.753875 0.863668 1.913478
v 0.749185 0.872803 1.931549
v 0.740598 0.854533 1.926603
f 385 386 389
f 385 389 388
f 386 387 390
f 386 390 389
f 387 385 388
f 387 388 390
v 0.275903 1.146227 1.656016
v 0.312770 1.154975 1.651982
v 0.300689 1.137480 1.683604
v 0.331884 0.842721 1.509486
v 0.368751 0.851469 1.505452
v 0.356670 0.833974 1.537074
f 391 392 395
f 391 395 394
f 392 393 396
f 392 396 395
f 393 391 394
f 393 394 396
v 0.352435 0.838799 1.495690
v 0.370354 0.851052 1.527007
v 0.334516 0.838312 1.529315
v 0.505578 0.421696 1.571260
v 0.523497 0.433949 1.602577
v 0.487659 0.421209 1.604885
f 397 398 401
f 397 401 400
f 398 399 402
f 398 402 401
f 399 397 400
f 399 400 402
v 1.824543 4.031590 -0.913523
v 1.843015 4.024145 -0.881037
v 1.806071 4.033450 -0.880246
v 1.700219 3.541500 -0.955150
v 1.718690 3.534055 -0.922663
v 1.681747 3.543359 -0.921873
f 403 404 407
f 403 407 406
f 404 405 408
f 404 408 407
f 405 403 406
f 405 406 408
v 1.722207 3.539638 -0.932523
v 1.688686 3.548643 -0.916800
v 1.689763 3.530633 -0.950363
v 1.716034 3.180666 -0.740091
v 1.682512 3.189672 -0.724368
v 1.683589 3.171661 -0.757931
f 409 410 413
f 409 413 412
f 410 411 414
f 410 414 413
f 411 409 412
f 411 412 414
v 1.712414 3.180666 -0.728690
v 1.675672 3.189841 -0.732908
v 1.694050 3.171492 -0.760792
v 1.596457 2.797167 -0.552752
v 1.559714 2.806342 -0.556970
v 1.578093 2.787993 -0.584855
f 415 416 419
f 415 419 418
f 416 417 420
f 416 420 419
f 417 415 418
f 417 418 420
v 1.578088 2.804035 -0.585760
v 1.597039 2.791862 -0.555024
v 1.559138 2.795605 -0.553794
v 1.532831 2.390432 -0.721662
v 1.551781 2.378260 -0.690926
v 1.513880 2.382003 -0.689696
f 421 422 425
f 421 425 424
f 422 423 426
f 422 426 425
f 423 421 424
f 423 424 426
v 1.530533 2.383565 -0.712539
v 1.538686 2.392785 -0.695790
v 1.529273 2.374345 -0.693954
v 1.866490 2.205534 -0.778072
v 1.874643 2.214754 -0.761323
v 1.865229 2.196315 -0.759487
f 427 428 431
f 427 431 430
f 428 429 432
f 428 432 431
f 429 427 430
f 429 430 432
v 1.532831 2.387980 -0.722314
v 1.551271 2.376663 -0.690946
v 1.514391 2.386052 -0.689023
v 1.430376 2.001716 -0.801435
v 1.448816 1.990400 -0.770068
v 1.411936 1.999788 -0.768145
f 433 434 437
f 433 437 436
f 434 435 438
f 434 438 437
f 435 433 436
f 435 436 438
v 1.430376 1.996686 -0.801874
v 1.449064 2.001320 -0.768991
v 1.411689 1.993898 -0.768783
v 1.526893 1.511038 -0.788294
v 1.545580 1.515671 -0.755410
v 1.508205 1.508249 -0.755203
f 439 440 443
f 439 443 442
f 440 441 444
f 440 444 443
f 441 439 442
f 441 442 444
v 1.538892 1.511653 -0.766177
v 1.520864 1.521659 -0.763559
v 1.520922 1.501646 -0.769171
v 1.533713 1.372576 -0.270274
v 1.515684 1.382583 -0.267656
v 1.515743 1.362570 -0.273268
f 445 446 449
f 445 449 448
f 446 447 450
f 446 450 449
f 447 445 448
f 447 448 450
v 1.526893 1.519614 -0.786811
v 1.545497 1.503843 -0.757534
v 1.508288 1.511501 -0.754561
v 1.446014 1.178106 -0.919384
v 1.464618 1.162335 -0.890107
v 1.427409 1.169993 -0.887134
f 451 452 455
f 451 455 454
f 452 453 456
f 452 456 455
f 453 451 454
f 453 454 456
v 1.446014 1.178000 -0.919425
v 1.464520 1.170447 -0.886983
v 1.427507 1.161988 -0.890217
v 1.538008 0.826807 -1.053666
v 1.556515 0.819254 -1.021224
v 1.519501 0.810795 -1.024458
f 457 458 461
f 457 461 460
f 458 459 462
f 458 462 461
f 459 457 460
f 459 460 462
v 1.538008 0.821051 -1.044931
v 1.548237 0.816098 -1.027529
v 1.527779 0.819707 -1.026888
v 1.483943 0.523959 -1.097718
v 1.494173 0.519006 -1.080317
v 1.473714 0.522615 -1.079675
f 463 464 467
f 463 467 466
f 464 465 468
f 464 468 467
f 465 463 466
f 465 466 468
v 1.538008 0.823658 -1.054607
v 1.556920 0.818855 -1.021876
v 1.519096 0.814343 -1.022865
v 1.581471 0.476032 -1.130730
v 1.600383 0.471229 -1.098000
v 1.562559 0.466717 -1.098988
f 469 470 473
f 469 473 472
f 470 471 474
f 470 474 473
f 471 469 472
f 471 472 474
v 1.581471 0.469449 -1.131159
v 1.600154 0.468546 -1.097961
v 1.562787 0.475983 -1.098597
v 1.527074 0.198123 -1.107927
v 1.545757 0.197220 -1.074729
v 1.508390 0.204657 -1.075365
f 475 476 479
f 475 479 478
f 476 477 480
f 476 480 479
f 477 475 478
f 477 478 480
v 0.237357 4.030462 -1.493120
v 0.256353 4.027901 -1.460187
v 0.218360 4.030822 -1.460089
v 0.198434 3.524850 -1.509995
v 0.217430 3.522288 -1.477062
v 0.179437 3.525210 -1.476965
f 481 482 485
f 481 485 484
f 482 483 486
f 482 486 485
f 483 481 484
f 483 484 486
v 0.198434 3.527378 -1.509764
v 0.216026 3.515250 -1.478214
v 0.180841 3.529719 -1.476044
v -0.000911 3.053284 -1.580858
v 0.016681 3.041156 -1.549308
v -0.018503 3.055624 -1.547138
f 487 488 491
f 487 491 490
f 488 489 492
f 488 492 491
f 489 487 490
f 489 490 492
v -0.000911 3.047671 -1.580976
v 0.017795 3.047598 -1.547778
v -0.019616 3.054795 -1.548551
v -0.099454 2.541325 -1.526574
v -0.080748 2.541251 -1.493376
v -0.118160 2.548449 -1.494149
f 493 494 497
f 493 497 496
f 494 495 498
f 494 498 497
f 495 493 496
f 495 496 498
v -0.086444 2.543675 -1.486959
v -0.119732 2.552118 -1.503470
v -0.092186 2.535232 -1.523670
v -0.244467 2.147283 -1.371075
v -0.277755 2.155726 -1.387586
v -0.250209 2.138839 -1.407786
f 499 500 503
f 499 503 502
f 500 501 504
f 500 504 503
f 501 499 502
f 501 502 504
v -0.257477 2.152036 -1.410296
v -0.238774 2.148455 -1.377290
v -0.276179 2.141358 -1.378860
v -0.185607 1.790949 -1.490190
v -0.166904 1.787368 -1.457184
v -0.204309 1.780271 -1.458754
f 505 506 509
f 505 509 508
f 506 507 510
f 506 510 509
f 507 505 508
f 507 508 510
v -0.185607 1.791420 -1.490080
v -0.166580 1.782626 -1.458258
v -0.204634 1.784541 -1.457790
v -0.201817 1.487559 -1.564366
v -0.182790 1.478765 -1.532544
v -0.220844 1.480680 -1.532076
f 511 512 515
f 511 515 514
f 512 513 516
f 512 516 515
f 513 511 514
f 513 514 516
v -1.375322 2.600000 1.138762
v -1.372738 2.608402 1.175839
v -1.404123 2.591598 1.162254
v -1.204428 2.221036 1.212731
v -1.201844 2.229439 1.249808
v -1.233229 2.212634 1.236224
f 517 518 521
f 517 521 520
f 518 519 522
f 518 522 521
f 519 517 520
f 519 520 522
v -1.213167 2.215913 1.211526
v -1.194279 2.226030 1.243036
v -1.232055 2.221166 1.244201
v -1.138446 1.667118 1.342939
v -1.119558 1.677235 1.374449
v -1.157333 1.672371 1.375614
f 523 524 527
f 523 527 526
f 524 525 528
f 524 528 527
f 525 523 526
f 525 526 528
v -1.138446 1.670406 1.342411
v -1.119428 1.674312 1.375199
v -1.157463 1.672007 1.375392
v -1.106666 1.149561 1.386026
v -1.087648 1.153468 1.418815
v -1.125683 1.151163 1.419008
f 529 530 533
f 529 533 532
f 530 531 534
f 530 534 533
f 531 529 532
f 531 532 534
v -1.106666 1.144520 1.387052
v -1.087880 1.157855 1.417405
v -1.125451 1.151817 1.419392
v -1.033704 0.734894 1.521856
v -1.014918 0.748229 1.552209
v -1.052489 0.742190 1.554196
f 535 536 539
f 535 539 538
f 536 537 540
f 536 540 539
f 537 535 538
f 537 538 540
v -1.048608 0.741771 1.558936
v -1.038582 0.750828 1.523307
v -1.013922 0.732714 1.546019
v -1.185530 0.397245 1.432831
v -1.175504 0.406302 1.397201
v -1.150844 0.388189 1.419913
f 541 542 545
f 541 545 544
f 542 543 546
f 542 546 545
f 543 541 544
f 543 544 546
v -1.153592 0.397245 1.430571
v -1.186813 0.411946 1.419072
v -1.171473 0.382545 1.400303
v -1.304989 0.200000 1.615805
v -1.338211 0.214700 1.604306
v -1.322871 0.185300 1.585537
f 547 548 551
f 547 551 550
f 548 549 552
f 548 552 551
f 549 547 550
f 549 550 552
v -0.311651 2.604354 -1.799672
v -0.292718 2.595739 -1.767746
v -0.330585 2.599906 -1.766905
v -0.360733 2.175813 -1.886203
v -0.341799 2.167198 -1.854276
v -0.379666 2.171365 -1.853435
f 553 554 557
f 553 557 556
f 554 555 558
f 554 558 557
f 555 553 556
f 555 556 558
v -0.360733 2.178349 -1.885531
v -0.341735 2.169390 -1.853737
v -0.379730 2.166636 -1.854646
v -0.331092 1.809641 -2.007133
v -0.312095 1.800682 -1.975340
v -0.350090 1.797927 -1.976248
f 559 560 563
f 559 563 562
f 560 561 564
f 560 564 563
f 561 559 562
f 561 562 564
v -0.324950 1.802750 -1.975932
v -0.334190 1.813142 -1.991379
v -0.334138 1.792358 -1.991410
v -0.763518 1.801271 -1.714618
v -0.772757 1.811663 -1.730066
v -0.772706 1.790878 -1.730096
f 565 566 569
f 565 569 568
f 566 567 570
f 566 570 569
f 567 565 568
f 567 568 570
v -0.331092 1.803295 -2.008234
v -0.312943 1.796684 -1.975387
v -0.349242 1.808271 -1.975100
v -0.461862 1.393884 -2.018378
v -0.443712 1.387273 -1.985531
v -0.480012 1.398861 -1.985244
f 571 572 575
f 571 575 574
f 572 573 576
f 572 576 575
f 573 571 574
f 573 574 576
v -0.461862 1.398666 -2.017730
v -0.443156 1.387164 -1.986588
v -0.480568 1.394188 -1.984835
v -0.569443 0.859259 -2.152330
v -0.550738 0.847757 -2.121188
v -0.588149 0.854781 -2.119436
f 577 578 581
f 577 581 580
f 578 579 582
f 578 582 581
f 579 577 580
f 579 580 582
v -2.637141 4.029729 -0.945456
v -2.664828 4.039042 -0.969925
v -2.633963 4.020415 -0.982269
v -2.811829 3.693969 -0.875591
v -2.839516 3.703282 -0.900059
v -2.808651 3.684655 -0.912403
f 583 584 587
f 583 587 586
f 584 585 588
f 584 588 587
f 585 583 586
f 585 586 588
v -2.819999 3.684852 -0.916040
v -2.801088 3.700637 -0.886967
v -2.838910 3.696417 -0.885046
v -2.762687 3.259370 -0.722298
v -2.743776 3.275155 -0.693226
v -2.781598 3.270935 -0.691304
f 589 590 593
f 589 593 592
f 590 591 594
f 590 594 593
f 591 589 592
f 591 592 594
v -2.762687 3.274018 -0.723570
v -2.744425 3.260461 -0.692996
v -2.780948 3.270981 -0.690263
v -2.860153 2.957028 -0.805906
v -2.841892 2.943472 -0.775332
v -2.878414 2.953992 -0.772600
f 595 596 599
f 595 599 598
f 596 597 600
f 596 600 599
f 597 595 598
f 597 598 600
v -2.860153 2.953722 -0.806500
v -2.842009 2.944604 -0.774256
v -2.878298 2.956166 -0.773081
v -3.033555 2.415042 -0.861247
v -3.015410 2.405924 -0.829004
v -3.051700 2.417486 -0.827829
f 601 602 605
f 601 605 604
f 602 603 606
f 602 606 605
f 603 601 604
f 603 604 606
v -3.053294 2.412817 -0.849075
v -3.016519 2.422797 -0.849064
v -3.030852 2.402837 -0.819941
v -2.959691 2.068097 -1.039258
v -2.922916 2.078077 -1.039247
v -2.937250 2.058117 -1.010124
f 607 608 611
f 607 611 610
f 608 609 612
f 608 612 611
f 609 607 610
f 609 610 612
v -2.939952 2.068796 -1.051532
v -2.921521 2.072571 -1.018395
v -2.958383 2.062924 -1.018702
v -2.814948 1.591653 -1.066703
v -2.796516 1.595428 -1.033566
v -2.833379 1.585780 -1.033873
f 613 614 617
f 613 617 616
f 614 615 618
f 614 618 617
f 615 613 616
f 615 616 618
v -2.803491 1.590954 -1.063495
v -2.806086 1.599374 -1.026423
v -2.835266 1.582533 -1.044223
v -2.638987 1.199865 -0.963146
v -2.641582 1.208286 -0.926073
v -2.670762 1.191445 -0.943874
f 619 620 623
f 619 623 622
f 620 621 624
f 620 624 623
f 621 619 622
f 621 622 624
v -2.657087 1.199865 -0.934371
v -2.649866 1.209721 -0.951186
v -2.644377 1.190010 -0.947536
v -3.105320 1.019880 -1.232340
v -3.098100 1.029736 -1.249155
v -3.092611 1.010024 -1.245506
f 625 626 629
f 625 629 628
f 626 627 630
f 626 630 629
f 627 625 628
f 627 628 630
v -2.650443 1.195517 -0.965930
v -2.632249 1.196496 -0.932464
v -2.668637 1.207583 -0.934699
v -2.824666 0.646013 -0.855139
v -2.806472 0.646992 -0.821672
v -2.842860 0.658078 -0.823908
f 631 632 635
f 631 635 634
f 632 633 636
f 632 636 635
f 633 631 634
f 633 634 636
v -2.824666 0.646714 -0.855269
v -2.805614 0.652292 -0.822743
v -2.843718 0.652078 -0.822707
v -2.822065 0.196352 -0.779549
v -2.803012 0.201931 -0.747024
v -2.841117 0.201717 -0.746988
f 637 638 641
f 637 641 640
f 638 639 642
f 638 642 641
f 639 637 640
f 639 640 642
