o mesh
v 2.368278 0.000000 0.141032
v 1.224852 0.000000 -0.613147
v 1.224852 0.900000 -0.613147
v 2.368278 0.900000 0.141032
f 1 2 3
f 1 3 4
v 1.224852 0.000000 -0.613147
v 0.081425 0.000000 -1.367326
v 0.081425 0.900000 -1.367326
v 1.224852 0.900000 -0.613147
f 5 6 7
f 5 7 8
v 0.081425 0.000000 -1.367326
v -1.062002 0.000000 -2.121505
v -1.062002 0.900000 -2.121505
v 0.081425 0.900000 -1.367326
f 9 10 11
f 9 11 12
v -1.062002 0.000000 -2.121505
v -1.143427 0.000000 -0.754179
v -1.143427 0.900000 -0.754179
v -1.062002 0.900000 -2.121505
f 13 14 15
f 13 15 16
v -1.143427 0.000000 -0.754179
v -1.224852 0.000000 0.613147
v -1.224852 0.900000 0.613147
v -1.143427 0.900000 -0.754179
f 17 18 19
f 17 19 20
v -1.224852 0.000000 0.613147
v -1.306276 0.000000 1.980473
v -1.306276 0.900000 1.980473
v -1.224852 0.900000 0.613147
f 21 22 23
f 21 23 24
v -1.306276 0.000000 1.980473
v -0.081425 0.000000 1.367326
v -0.081425 0.900000 1.367326
v -1.306276 0.900000 1.980473
f 25 26 27
f 25 27 28
v 1.143427 0.000000 0.754179
v 2.368278 0.000000 0.141032
v 2.368278 0.900000 0.141032
v 1.143427 0.900000 0.754179
f 29 30 31
f 29 31 32
