o mesh
v 0.000000 0.000000 0.015000
v 0.010607 0.000000 0.010607
v 0.015000 0.000000 0.000000
v 0.010607 0.000000 -0.010607
v 0.000000 0.000000 -0.015000
v -0.010607 0.000000 -0.010607
v -0.015000 0.000000 -0.000000
v -0.010607 0.000000 0.010607
v 0.000000 0.040000 0.012000
v 0.008485 0.040000 0.008485
v 0.012000 0.040000 0.000000
v 0.008485 0.040000 -0.008485
v 0.000000 0.040000 -0.012000
v -0.008485 0.040000 -0.008485
v -0.012000 0.040000 -0.000000
v -0.008485 0.040000 0.008485
f 1 2 10
f 1 10 9
f 2 3 11
f 2 11 10
f 3 4 12
f 3 12 11
f 4 5 13
f 4 13 12
f 5 6 14
f 5 14 13
f 6 7 15
f 6 15 14
f 7 8 16
f 7 16 15
f 8 1 9
f 8 9 16
v 0.000000 0.040000 -0.000000
v 0.002138 0.027199 0.008917
v 0.007422 0.014397 0.018215
v 0.014623 0.001596 0.027744
v 0.022993 -0.011206 0.037414
v 0.031878 -0.024007 0.047147
v 0.040668 -0.036809 0.056868
v 0.048799 -0.049610 0.066510
v 0.055763 -0.062412 0.076011
v 0.061131 -0.075213 0.085318
v 0.064562 -0.088015 0.094391
v 0.065822 -0.100816 0.103202
v 0.064790 -0.113618 0.111736
v 0.061467 -0.126419 0.119993
v 0.055972 -0.139221 0.127987
v 0.048541 -0.152022 0.135748
v 0.039513 -0.164824 0.143315
v 0.029319 -0.177625 0.150741
v 0.018466 -0.190427 0.158087
v 0.007517 -0.203228 0.165422
v -0.002916 -0.216030 0.172819
v -0.012181 -0.228831 0.180358
v -0.019528 -0.241632 0.188128
v -0.023730 -0.254434 0.196279
v -0.025868 -0.241632 0.187362
v -0.031152 -0.228831 0.178064
v -0.038353 -0.216030 0.168535
v -0.046723 -0.203228 0.158865
v -0.055608 -0.190427 0.149132
v -0.064398 -0.177625 0.139411
v -0.072529 -0.164824 0.129769
v -0.079493 -0.152022 0.120268
v -0.084861 -0.139221 0.110961
v -0.088292 -0.126419 0.101887
v -0.089552 -0.113618 0.093077
v -0.088520 -0.100816 0.084543
v -0.085197 -0.088015 0.076286
v -0.079702 -0.075213 0.068291
v -0.072271 -0.062412 0.060531
v -0.063243 -0.049610 0.052964
v -0.053049 -0.036809 0.045538
v -0.042196 -0.024007 0.038192
v -0.031247 -0.011206 0.030857
v -0.020814 0.001596 0.023459
v -0.011549 0.014397 0.015921
v -0.004202 0.027199 0.008151
f 17 18 19
f 17 19 18
f 17 19 20
f 17 20 19
f 17 20 21
f 17 21 20
f 17 21 22
f 17 22 21
f 17 22 23
f 17 23 22
f 17 23 24
f 17 24 23
f 17 24 25
f 17 25 24
f 17 25 26
f 17 26 25
f 17 26 27
f 17 27 26
f 17 27 28
f 17 28 27
f 17 28 29
f 17 29 28
f 17 29 30
f 17 30 29
f 17 30 31
f 17 31 30
f 17 31 32
f 17 32 31
f 17 32 33
f 17 33 32
f 17 33 34
f 17 34 33
f 17 34 35
f 17 35 34
f 17 35 36
f 17 36 35
f 17 36 37
f 17 37 36
f 17 37 38
f 17 38 37
f 17 38 39
f 17 39 38
f 17 39 40
f 17 40 39
f 17 40 41
f 17 41 40
f 17 41 42
f 17 42 41
f 17 42 43
f 17 43 42
f 17 43 44
f 17 44 43
f 17 44 45
f 17 45 44
f 17 45 46
f 17 46 45
f 17 46 47
f 17 47 46
f 17 47 48
f 17 48 47
f 17 48 49
f 17 49 48
f 17 49 50
f 17 50 49
f 17 50 51
f 17 51 50
f 17 51 52
f 17 52 51
f 17 52 53
f 17 53 52
f 17 53 54
f 17 54 53
f 17 54 55
f 17 55 54
f 17 55 56
f 17 56 55
f 17 56 57
f 17 57 56
f 17 57 58
f 17 58 57
f 17 58 59
f 17 59 58
f 17 59 60
f 17 60 59
f 17 60 61
f 17 61 60
f 17 61 62
f 17 62 61
v 0.000000 0.040000 -0.000000
v 0.006645 0.029834 0.004090
v 0.015246 0.019668 0.006484
v 0.025110 0.009502 0.007783
v 0.035781 -0.000665 0.008383
v 0.046845 -0.010831 0.008641
v 0.057906 -0.020997 0.008903
v 0.068591 -0.031163 0.009490
v 0.078564 -0.041329 0.010694
v 0.087535 -0.051495 0.012767
v 0.095274 -0.061662 0.015909
v 0.101623 -0.071828 0.020256
v 0.106499 -0.081994 0.025880
v 0.109904 -0.092160 0.032780
v 0.111917 -0.102326 0.040886
v 0.112699 -0.112492 0.050061
v 0.112478 -0.122658 0.060104
v 0.111545 -0.132825 0.070765
v 0.110237 -0.142991 0.081751
v 0.108927 -0.153157 0.092740
v 0.108008 -0.163323 0.103388
v 0.107897 -0.173489 0.113336
v 0.109049 -0.183655 0.122190
v 0.112156 -0.193822 0.129347
v 0.105511 -0.183655 0.125258
v 0.096910 -0.173489 0.122863
v 0.087046 -0.163323 0.121564
v 0.076375 -0.153157 0.120965
v 0.065311 -0.142991 0.120706
v 0.054251 -0.132825 0.120445
v 0.043565 -0.122658 0.119858
v 0.033592 -0.112492 0.118653
v 0.024621 -0.102326 0.116580
v 0.016882 -0.092160 0.113439
v 0.010533 -0.081994 0.109091
v 0.005657 -0.071828 0.103468
v 0.002253 -0.061662 0.096567
v 0.000239 -0.051495 0.088461
v -0.000542 -0.041329 0.079287
v -0.000322 -0.031163 0.069244
v 0.000611 -0.020997 0.058583
v 0.001919 -0.010831 0.047597
v 0.003230 -0.000665 0.036608
v 0.004148 0.009502 0.025959
v 0.004259 0.019668 0.016011
v 0.003107 0.029834 0.007158
f 63 64 65
f 63 65 64
f 63 65 66
f 63 66 65
f 63 66 67
f 63 67 66
f 63 67 68
f 63 68 67
f 63 68 69
f 63 69 68
f 63 69 70
f 63 70 69
f 63 70 71
f 63 71 70
f 63 71 72
f 63 72 71
f 63 72 73
f 63 73 72
f 63 73 74
f 63 74 73
f 63 74 75
f 63 75 74
f 63 75 76
f 63 76 75
f 63 76 77
f 63 77 76
f 63 77 78
f 63 78 77
f 63 78 79
f 63 79 78
f 63 79 80
f 63 80 79
f 63 80 81
f 63 81 80
f 63 81 82
f 63 82 81
f 63 82 83
f 63 83 82
f 63 83 84
f 63 84 83
f 63 84 85
f 63 85 84
f 63 85 86
f 63 86 85
f 63 86 87
f 63 87 86
f 63 87 88
f 63 88 87
f 63 88 89
f 63 89 88
f 63 89 90
f 63 90 89
f 63 90 91
f 63 91 90
f 63 91 92
f 63 92 91
f 63 92 93
f 63 93 92
f 63 93 94
f 63 94 93
f 63 94 95
f 63 95 94
f 63 95 96
f 63 96 95
f 63 96 97
f 63 97 96
f 63 97 98
f 63 98 97
f 63 98 99
f 63 99 98
f 63 99 100
f 63 100 99
f 63 100 101
f 63 101 100
f 63 101 102
f 63 102 101
f 63 102 103
f 63 103 102
f 63 103 104
f 63 104 103
f 63 104 105
f 63 105 104
f 63 105 106
f 63 106 105
f 63 106 107
f 63 107 106
f 63 107 108
f 63 108 107
v 0.000000 0.040000 -0.000000
v 0.005827 0.030397 -0.002549
v 0.011791 0.020795 -0.007318
v 0.017827 0.011192 -0.013270
v 0.023903 0.001590 -0.019859
v 0.029990 -0.008013 -0.026642
v 0.036065 -0.017615 -0.033220
v 0.042105 -0.027218 -0.039240
v 0.048092 -0.036820 -0.044388
v 0.054009 -0.046423 -0.048404
v 0.059845 -0.056025 -0.051082
v 0.065589 -0.065628 -0.052283
v 0.071239 -0.075230 -0.051936
v 0.076793 -0.084833 -0.050041
v 0.082256 -0.094435 -0.046669
v 0.087638 -0.104038 -0.041960
v 0.092950 -0.113640 -0.036117
v 0.098208 -0.123243 -0.029404
v 0.103432 -0.132845 -0.022131
v 0.108644 -0.142448 -0.014654
v 0.113867 -0.152050 -0.007371
v 0.119129 -0.161653 -0.000725
v 0.124465 -0.171255 0.004738
v 0.129936 -0.180858 0.007981
v 0.124109 -0.171255 0.010530
v 0.118145 -0.161653 0.015299
v 0.112109 -0.152050 0.021250
v 0.106034 -0.142448 0.027840
v 0.099946 -0.132845 0.034622
v 0.093871 -0.123243 0.041201
v 0.087831 -0.113640 0.047221
v 0.081844 -0.104038 0.052369
v 0.075927 -0.094435 0.056385
v 0.070092 -0.084833 0.059063
v 0.064347 -0.075230 0.060264
v 0.058698 -0.065628 0.059917
v 0.053143 -0.056025 0.058022
v 0.047680 -0.046423 0.054650
v 0.042298 -0.036820 0.049940
v 0.036986 -0.027218 0.044098
v 0.031728 -0.017615 0.037384
v 0.026504 -0.008013 0.030111
v 0.021293 0.001590 0.022635
v 0.016069 0.011192 0.015352
v 0.010807 0.020795 0.008706
v 0.005472 0.030397 0.003243
f 109 110 111
f 109 111 110
f 109 111 112
f 109 112 111
f 109 112 113
f 109 113 112
f 109 113 114
f 109 114 113
f 109 114 115
f 109 115 114
f 109 115 116
f 109 116 115
f 109 116 117
f 109 117 116
f 109 117 118
f 109 118 117
f 109 118 119
f 109 119 118
f 109 119 120
f 109 120 119
f 109 120 121
f 109 121 120
f 109 121 122
f 109 122 121
f 109 122 123
f 109 123 122
f 109 123 124
f 109 124 123
f 109 124 125
f 109 125 124
f 109 125 126
f 109 126 125
f 109 126 127
f 109 127 126
f 109 127 128
f 109 128 127
f 109 128 129
f 109 129 128
f 109 129 130
f 109 130 129
f 109 130 131
f 109 131 130
f 109 131 132
f 109 132 131
f 109 132 133
f 109 133 132
f 109 133 134
f 109 134 133
f 109 134 135
f 109 135 134
f 109 135 136
f 109 136 135
f 109 136 137
f 109 137 136
f 109 137 138
f 109 138 137
f 109 138 139
f 109 139 138
f 109 139 140
f 109 140 139
f 109 140 141
f 109 141 140
f 109 141 142
f 109 142 141
f 109 142 143
f 109 143 142
f 109 143 144
f 109 144 143
f 109 144 145
f 109 145 144
f 109 145 146
f 109 146 145
f 109 146 147
f 109 147 146
f 109 147 148
f 109 148 147
f 109 148 149
f 109 149 148
f 109 149 150
f 109 150 149
f 109 150 151
f 109 151 150
f 109 151 152
f 109 152 151
f 109 152 153
f 109 153 152
f 109 153 154
f 109 154 153
v 0.000000 0.040000 -0.000000
v 0.003271 0.032462 -0.008088
v 0.004626 0.024923 -0.017463
v 0.004634 0.017385 -0.027741
v 0.003724 0.009846 -0.038634
v 0.002315 0.002308 -0.049863
v 0.000821 -0.005231 -0.061148
v -0.000357 -0.012769 -0.072222
v -0.000849 -0.020308 -0.082835
v -0.000334 -0.027846 -0.092773
v 0.001445 -0.035385 -0.101863
v 0.004667 -0.042923 -0.109984
v 0.009425 -0.050462 -0.117075
v 0.015718 -0.058000 -0.123136
v 0.023454 -0.065539 -0.128228
v 0.032455 -0.073077 -0.132473
v 0.042463 -0.080616 -0.136041
v 0.053156 -0.088154 -0.139150
v 0.064165 -0.095692 -0.142046
v 0.075090 -0.103231 -0.145000
v 0.085515 -0.110769 -0.148289
v 0.095022 -0.118308 -0.152193
v 0.103183 -0.125846 -0.157001
v 0.109427 -0.133385 -0.163094
v 0.106156 -0.125846 -0.155006
v 0.104801 -0.118308 -0.145631
v 0.104793 -0.110769 -0.135354
v 0.105703 -0.103231 -0.124460
v 0.107112 -0.095692 -0.113232
v 0.108606 -0.088154 -0.101946
v 0.109784 -0.080616 -0.090873
v 0.110276 -0.073077 -0.080259
v 0.109761 -0.065539 -0.070321
v 0.107983 -0.058000 -0.061231
v 0.104760 -0.050462 -0.053110
v 0.100003 -0.042923 -0.046019
v 0.093709 -0.035385 -0.039958
v 0.085973 -0.027846 -0.034866
v 0.076972 -0.020308 -0.030622
v 0.066964 -0.012769 -0.027053
v 0.056271 -0.005231 -0.023945
v 0.045262 0.002308 -0.021048
v 0.034337 0.009846 -0.018094
v 0.023913 0.017385 -0.014806
v 0.014405 0.024923 -0.010901
v 0.006244 0.032462 -0.006094
f 155 156 157
f 155 157 156
f 155 157 158
f 155 158 157
f 155 158 159
f 155 159 158
f 155 159 160
f 155 160 159
f 155 160 161
f 155 161 160
f 155 161 162
f 155 162 161
f 155 162 163
f 155 163 162
f 155 163 164
f 155 164 163
f 155 164 165
f 155 165 164
f 155 165 166
f 155 166 165
f 155 166 167
f 155 167 166
f 155 167 168
f 155 168 167
f 155 168 169
f 155 169 168
f 155 169 170
f 155 170 169
f 155 170 171
f 155 171 170
f 155 171 172
f 155 172 171
f 155 172 173
f 155 173 172
f 155 173 174
f 155 174 173
f 155 174 175
f 155 175 174
f 155 175 176
f 155 176 175
f 155 176 177
f 155 177 176
f 155 177 178
f 155 178 177
f 155 178 179
f 155 179 178
f 155 179 180
f 155 180 179
f 155 180 181
f 155 181 180
f 155 181 182
f 155 182 181
f 155 182 183
f 155 183 182
f 155 183 184
f 155 184 183
f 155 184 185
f 155 185 184
f 155 185 186
f 155 186 185
f 155 186 187
f 155 187 186
f 155 187 188
f 155 188 187
f 155 188 189
f 155 189 188
f 155 189 190
f 155 190 189
f 155 190 191
f 155 191 190
f 155 191 192
f 155 192 191
f 155 192 193
f 155 193 192
f 155 193 194
f 155 194 193
f 155 194 195
f 155 195 194
f 155 195 196
f 155 196 195
f 155 196 197
f 155 197 196
f 155 197 198
f 155 198 197
f 155 198 199
f 155 199 198
f 155 199 200
f 155 200 199
v 0.000000 0.040000 -0.000000
v -0.003176 0.030253 -0.011428
v -0.008923 0.020507 -0.023262
v -0.015808 0.010760 -0.035274
v -0.023174 0.001014 -0.047363
v -0.030521 -0.008733 -0.059448
v -0.037419 -0.018479 -0.071463
v -0.043492 -0.028226 -0.083348
v -0.048421 -0.037972 -0.095052
v -0.051938 -0.047719 -0.106535
v -0.053839 -0.057465 -0.117762
v -0.053985 -0.067212 -0.128713
v -0.052305 -0.076958 -0.139376
v -0.048800 -0.086705 -0.149752
v -0.043538 -0.096451 -0.159851
v -0.036661 -0.106198 -0.169696
v -0.028373 -0.115944 -0.179318
v -0.018939 -0.125691 -0.188760
v -0.008681 -0.135437 -0.198071
v 0.002025 -0.145184 -0.207313
v 0.012752 -0.154930 -0.216551
v 0.022997 -0.164677 -0.225865
v 0.032104 -0.174423 -0.235358
v 0.038639 -0.184170 -0.245256
v 0.041815 -0.174423 -0.233828
v 0.047562 -0.164677 -0.221994
v 0.054447 -0.154930 -0.209982
v 0.061814 -0.145184 -0.197893
v 0.069161 -0.135437 -0.185808
v 0.076058 -0.125691 -0.173793
v 0.082132 -0.115944 -0.161908
v 0.087060 -0.106198 -0.150204
v 0.090578 -0.096451 -0.138722
v 0.092479 -0.086705 -0.127494
v 0.092625 -0.076958 -0.116543
v 0.090945 -0.067212 -0.105880
v 0.087439 -0.057465 -0.095504
v 0.082178 -0.047719 -0.085405
v 0.075300 -0.037972 -0.075560
v 0.067012 -0.028226 -0.065938
v 0.057578 -0.018479 -0.056497
v 0.047321 -0.008733 -0.047185
v 0.036614 0.001014 -0.037943
v 0.025887 0.010760 -0.028705
v 0.015643 0.020507 -0.019391
v 0.006536 0.030253 -0.009898
f 201 202 203
f 201 203 202
f 201 203 204
f 201 204 203
f 201 204 205
f 201 205 204
f 201 205 206
f 201 206 205
f 201 206 207
f 201 207 206
f 201 207 208
f 201 208 207
f 201 208 209
f 201 209 208
f 201 209 210
f 201 210 209
f 201 210 211
f 201 211 210
f 201 211 212
f 201 212 211
f 201 212 213
f 201 213 212
f 201 213 214
f 201 214 213
f 201 214 215
f 201 215 214
f 201 215 216
f 201 216 215
f 201 216 217
f 201 217 216
f 201 217 218
f 201 218 217
f 201 218 219
f 201 219 218
f 201 219 220
f 201 220 219
f 201 220 221
f 201 221 220
f 201 221 222
f 201 222 221
f 201 222 223
f 201 223 222
f 201 223 224
f 201 224 223
f 201 224 225
f 201 225 224
f 201 225 226
f 201 226 225
f 201 226 227
f 201 227 226
f 201 227 228
f 201 228 227
f 201 228 229
f 201 229 228
f 201 229 230
f 201 230 229
f 201 230 231
f 201 231 230
f 201 231 232
f 201 232 231
f 201 232 233
f 201 233 232
f 201 233 234
f 201 234 233
f 201 234 235
f 201 235 234
f 201 235 236
f 201 236 235
f 201 236 237
f 201 237 236
f 201 237 238
f 201 238 237
f 201 238 239
f 201 239 238
f 201 239 240
f 201 240 239
f 201 240 241
f 201 241 240
f 201 241 242
f 201 242 241
f 201 242 243
f 201 243 242
f 201 243 244
f 201 244 243
f 201 244 245
f 201 245 244
f 201 245 246
f 201 246 245
v 0.000000 0.040000 -0.000000
v -0.006239 0.030011 -0.004511
v -0.014464 0.020021 -0.007441
v -0.024043 0.010032 -0.009293
v -0.034527 0.000042 -0.010425
v -0.045486 -0.009947 -0.011178
v -0.056501 -0.019936 -0.011886
v -0.067170 -0.029926 -0.012870
v -0.077126 -0.039915 -0.014422
v -0.086049 -0.049905 -0.016796
v -0.093685 -0.059894 -0.020195
v -0.099858 -0.069884 -0.024758
v -0.104477 -0.079873 -0.030559
v -0.107542 -0.089862 -0.037598
v -0.109143 -0.099852 -0.045802
v -0.109458 -0.109841 -0.055030
v -0.108740 -0.119831 -0.065080
v -0.107308 -0.129820 -0.075699
v -0.105531 -0.139809 -0.086592
v -0.103809 -0.149799 -0.097442
v -0.102563 -0.159788 -0.107912
v -0.102221 -0.169778 -0.117663
v -0.103235 -0.179767 -0.126335
v -0.106233 -0.189757 -0.133426
v -0.099994 -0.179767 -0.128915
v -0.091769 -0.169778 -0.125985
v -0.082190 -0.159788 -0.124133
v -0.071706 -0.149799 -0.123002
v -0.060747 -0.139809 -0.122249
v -0.049732 -0.129820 -0.121540
v -0.039063 -0.119831 -0.120556
v -0.029107 -0.109841 -0.119004
v -0.020184 -0.099852 -0.116630
v -0.012548 -0.089862 -0.113232
v -0.006375 -0.079873 -0.108668
v -0.001756 -0.069884 -0.102867
v 0.001309 -0.059894 -0.095828
v 0.002910 -0.049905 -0.087625
v 0.003225 -0.039915 -0.078396
v 0.002507 -0.029926 -0.068346
v 0.001075 -0.019936 -0.057728
v -0.000702 -0.009947 -0.046834
v -0.002424 0.000042 -0.035985
v -0.003670 0.010032 -0.025514
v -0.004012 0.020021 -0.015763
v -0.002998 0.030011 -0.007091
f 247 248 249
f 247 249 248
f 247 249 250
f 247 250 249
f 247 250 251
f 247 251 250
f 247 251 252
f 247 252 251
f 247 252 253
f 247 253 252
f 247 253 254
f 247 254 253
f 247 254 255
f 247 255 254
f 247 255 256
f 247 256 255
f 247 256 257
f 247 257 256
f 247 257 258
f 247 258 257
f 247 258 259
f 247 259 258
f 247 259 260
f 247 260 259
f 247 260 261
f 247 261 260
f 247 261 262
f 247 262 261
f 247 262 263
f 247 263 262
f 247 263 264
f 247 264 263
f 247 264 265
f 247 265 264
f 247 265 266
f 247 266 265
f 247 266 267
f 247 267 266
f 247 267 268
f 247 268 267
f 247 268 269
f 247 269 268
f 247 269 270
f 247 270 269
f 247 270 271
f 247 271 270
f 247 271 272
f 247 272 271
f 247 272 273
f 247 273 272
f 247 273 274
f 247 274 273
f 247 274 275
f 247 275 274
f 247 275 276
f 247 276 275
f 247 276 277
f 247 277 276
f 247 277 278
f 247 278 277
f 247 278 279
f 247 279 278
f 247 279 280
f 247 280 279
f 247 280 281
f 247 281 280
f 247 281 282
f 247 282 281
f 247 282 283
f 247 283 282
f 247 283 284
f 247 284 283
f 247 284 285
f 247 285 284
f 247 285 286
f 247 286 285
f 247 286 287
f 247 287 286
f 247 287 288
f 247 288 287
f 247 288 289
f 247 289 288
f 247 289 290
f 247 290 289
f 247 290 291
f 247 291 290
f 247 291 292
f 247 292 291
v 0.000000 0.040000 -0.000000
v -0.014093 0.029636 0.001081
v -0.028701 0.019272 0.005664
v -0.043647 0.008908 0.012538
v -0.058811 -0.001456 0.020893
v -0.074083 -0.011820 0.029982
v -0.089357 -0.022184 0.039090
v -0.104535 -0.032548 0.047541
v -0.119526 -0.042912 0.054721
v -0.134252 -0.053276 0.060101
v -0.148651 -0.063640 0.063263
v -0.162680 -0.074004 0.063914
v -0.176319 -0.084368 0.061906
v -0.189565 -0.094732 0.057239
v -0.202442 -0.105096 0.050062
v -0.214993 -0.115460 0.040666
v -0.227278 -0.125824 0.029470
v -0.239376 -0.136188 0.017003
v -0.251378 -0.146552 0.003879
v -0.263382 -0.156916 -0.009226
v -0.275494 -0.167280 -0.021596
v -0.287825 -0.177644 -0.032486
v -0.300493 -0.188008 -0.041084
v -0.313676 -0.198372 -0.046181
v -0.299583 -0.188008 -0.047263
v -0.284975 -0.177644 -0.051846
v -0.270029 -0.167280 -0.058720
v -0.254865 -0.156916 -0.067074
v -0.239593 -0.146552 -0.076163
v -0.224319 -0.136188 -0.085271
v -0.209141 -0.125824 -0.093723
v -0.194150 -0.115460 -0.100903
v -0.179424 -0.105096 -0.106283
v -0.165025 -0.094732 -0.109444
v -0.150995 -0.084368 -0.110095
v -0.137357 -0.074004 -0.108087
v -0.124111 -0.063640 -0.103420
v -0.111234 -0.053276 -0.096243
v -0.098683 -0.042912 -0.086847
v -0.086398 -0.032548 -0.075652
v -0.074300 -0.022184 -0.063184
v -0.062298 -0.011820 -0.050061
v -0.050294 -0.001456 -0.036956
v -0.038181 0.008908 -0.024585
v -0.025851 0.019272 -0.013696
v -0.013183 0.029636 -0.005097
f 293 294 295
f 293 295 294
f 293 295 296
f 293 296 295
f 293 296 297
f 293 297 296
f 293 297 298
f 293 298 297
f 293 298 299
f 293 299 298
f 293 299 300
f 293 300 299
f 293 300 301
f 293 301 300
f 293 301 302
f 293 302 301
f 293 302 303
f 293 303 302
f 293 303 304
f 293 304 303
f 293 304 305
f 293 305 304
f 293 305 306
f 293 306 305
f 293 306 307
f 293 307 306
f 293 307 308
f 293 308 307
f 293 308 309
f 293 309 308
f 293 309 310
f 293 310 309
f 293 310 311
f 293 311 310
f 293 311 312
f 293 312 311
f 293 312 313
f 293 313 312
f 293 313 314
f 293 314 313
f 293 314 315
f 293 315 314
f 293 315 316
f 293 316 315
f 293 316 317
f 293 317 316
f 293 317 318
f 293 318 317
f 293 318 319
f 293 319 318
f 293 319 320
f 293 320 319
f 293 320 321
f 293 321 320
f 293 321 322
f 293 322 321
f 293 322 323
f 293 323 322
f 293 323 324
f 293 324 323
f 293 324 325
f 293 325 324
f 293 325 326
f 293 326 325
f 293 326 327
f 293 327 326
f 293 327 328
f 293 328 327
f 293 328 329
f 293 329 328
f 293 329 330
f 293 330 329
f 293 330 331
f 293 331 330
f 293 331 332
f 293 332 331
f 293 332 333
f 293 333 332
f 293 333 334
f 293 334 333
f 293 334 335
f 293 335 334
f 293 335 336
f 293 336 335
f 293 336 337
f 293 337 336
f 293 337 338
f 293 338 337
v 0.000000 0.040000 -0.000000
v -0.001649 0.026970 0.013159
v -0.001193 0.013940 0.027987
v 0.000058 0.000911 0.043447
v 0.001548 -0.012119 0.059095
v 0.002860 -0.025149 0.074603
v 0.003645 -0.038179 0.089693
v 0.003604 -0.051209 0.104127
v 0.002481 -0.064238 0.117703
v 0.000067 -0.077268 0.130254
v -0.003800 -0.090298 0.141653
v -0.009228 -0.103328 0.151814
v -0.016272 -0.116357 0.160693
v -0.024932 -0.129387 0.168290
v -0.035152 -0.142417 0.174649
v -0.046825 -0.155447 0.179855
v -0.059790 -0.168477 0.184037
v -0.073836 -0.181506 0.187361
v -0.088709 -0.194536 0.190029
v -0.104109 -0.207566 0.192279
v -0.119686 -0.220596 0.194388
v -0.135024 -0.233626 0.196687
v -0.149568 -0.246655 0.199616
v -0.162007 -0.259685 0.204215
v -0.160358 -0.246655 0.191056
v -0.160814 -0.233626 0.176227
v -0.162065 -0.220596 0.160768
v -0.163554 -0.207566 0.145119
v -0.164866 -0.194536 0.129612
v -0.165652 -0.181506 0.114522
v -0.165611 -0.168477 0.100087
v -0.164488 -0.155447 0.086512
v -0.162073 -0.142417 0.073960
v -0.158206 -0.129387 0.062561
v -0.152779 -0.116357 0.052400
v -0.145735 -0.103328 0.043521
v -0.137075 -0.090298 0.035925
v -0.126854 -0.077268 0.029566
v -0.115182 -0.064238 0.024359
v -0.102217 -0.051209 0.020177
v -0.088171 -0.038179 0.016854
v -0.073297 -0.025149 0.014186
v -0.057898 -0.012119 0.011936
v -0.042321 0.000911 0.009827
v -0.026982 0.013940 0.007528
v -0.012439 0.026970 0.004599
f 339 340 341
f 339 341 340
f 339 341 342
f 339 342 341
f 339 342 343
f 339 343 342
f 339 343 344
f 339 344 343
f 339 344 345
f 339 345 344
f 339 345 346
f 339 346 345
f 339 346 347
f 339 347 346
f 339 347 348
f 339 348 347
f 339 348 349
f 339 349 348
f 339 349 350
f 339 350 349
f 339 350 351
f 339 351 350
f 339 351 352
f 339 352 351
f 339 352 353
f 339 353 352
f 339 353 354
f 339 354 353
f 339 354 355
f 339 355 354
f 339 355 356
f 339 356 355
f 339 356 357
f 339 357 356
f 339 357 358
f 339 358 357
f 339 358 359
f 339 359 358
f 339 359 360
f 339 360 359
f 339 360 361
f 339 361 360
f 339 361 362
f 339 362 361
f 339 362 363
f 339 363 362
f 339 363 364
f 339 364 363
f 339 364 365
f 339 365 364
f 339 365 366
f 339 366 365
f 339 366 367
f 339 367 366
f 339 367 368
f 339 368 367
f 339 368 369
f 339 369 368
f 339 369 370
f 339 370 369
f 339 370 371
f 339 371 370
f 339 371 372
f 339 372 371
f 339 372 373
f 339 373 372
f 339 373 374
f 339 374 373
f 339 374 375
f 339 375 374
f 339 375 376
f 339 376 375
f 339 376 377
f 339 377 376
f 339 377 378
f 339 378 377
f 339 378 379
f 339 379 378
f 339 379 380
f 339 380 379
f 339 380 381
f 339 381 380
f 339 381 382
f 339 382 381
f 339 382 383
f 339 383 382
f 339 383 384
f 339 384 383
