o mesh
v 1.758325 0.900000 0.027398
v 2.152057 0.900000 -1.054412
v 2.152057 2.600000 -1.054412
v 1.758325 2.600000 0.027398
f 1 2 3
f 1 3 4
v 2.545789 0.900000 -2.136222
v 1.412048 0.900000 -1.936299
v 1.412048 2.600000 -1.936299
v 2.545789 2.600000 -2.136222
f 5 6 7
f 5 7 8
v 1.412048 0.900000 -1.936299
v 0.278306 0.900000 -1.736376
v 0.278306 2.600000 -1.736376
v 1.412048 2.600000 -1.936299
f 9 10 11
f 9 11 12
v -0.288564 2.500000 -1.636414
v 0.235156 2.720279 -1.728767
v 0.112274 2.907022 -1.707098
f 13 14 15
v -0.855435 0.900000 -1.536453
v -1.989176 0.900000 -1.336530
v -1.989176 2.600000 -1.336530
v -0.855435 2.600000 -1.536453
f 16 17 18
f 16 18 19
v -1.642899 0.900000 0.627168
v -0.902890 0.900000 1.509055
v -0.902890 2.600000 1.509055
v -1.642899 2.600000 0.627168
f 20 21 22
f 20 22 23
v -0.902890 0.900000 1.509055
v -0.162881 0.900000 2.390942
v -0.162881 2.600000 2.390942
v -0.902890 2.600000 1.509055
f 24 25 26
f 24 26 27
v -0.162881 0.900000 2.390942
v 0.577128 0.900000 3.272829
v 0.577128 2.600000 3.272829
v -0.162881 2.600000 2.390942
f 28 29 30
f 28 30 31
v 0.577128 2.600000 3.272829
v 0.970860 2.600000 2.191019
v 0.902900 3.294575 2.037647
v 0.536729 3.294575 3.043731
f 32 33 34
f 32 34 35
v 0.970860 2.600000 2.191019
v 1.364593 2.600000 1.109208
v 1.269071 3.294575 1.031564
v 0.902900 3.294575 2.037647
f 36 37 38
f 36 38 39
v 2.545789 2.600000 -2.136222
v 1.412048 2.600000 -1.936299
v 1.313204 3.294575 -1.800758
v 2.367583 3.294575 -1.986687
f 40 41 42
f 40 42 43
v 1.412048 2.600000 -1.936299
v 0.278306 2.600000 -1.736376
v 0.258825 3.294575 -1.614830
v 1.313204 3.294575 -1.800758
f 44 45 46
f 44 46 47
v 0.278306 2.600000 -1.736376
v -0.855435 2.600000 -1.536453
v -0.795554 3.294575 -1.428901
v 0.258825 3.294575 -1.614830
f 48 49 50
f 48 50 51
v -1.989176 2.600000 -1.336530
v -3.122917 2.600000 -1.136607
v -2.904313 3.294575 -1.057044
v -1.849934 3.294575 -1.242973
f 52 53 54
f 52 54 55
v -1.642899 2.600000 0.627168
v -0.902890 2.600000 1.509055
v -0.839688 3.294575 1.403421
v -1.527896 3.294575 0.583266
f 56 57 58
f 56 58 59
v -0.162881 2.600000 2.390942
v 0.577128 2.600000 3.272829
v 0.536729 3.294575 3.043731
v -0.151479 3.294575 2.223576
f 60 61 62
f 60 62 63
v 2.001413 3.294575 -0.980603
v 2.367583 3.294575 -1.986687
v 1.985715 3.916037 -1.666253
v 1.678604 3.916037 -0.822441
f 64 65 66
f 64 66 67
v 2.367583 3.294575 -1.986687
v 1.313204 3.294575 -1.800758
v 1.101397 3.916037 -1.510313
v 1.985715 3.916037 -1.666253
f 68 69 70
f 68 70 71
v -0.795554 3.294575 -1.428901
v -1.849934 3.294575 -1.242973
v -1.551557 3.916037 -1.042493
v -0.667239 3.916037 -1.198433
f 72 73 74
f 72 74 75
v -1.849934 3.294575 -1.242973
v -2.904313 3.294575 -1.057044
v -2.435875 3.916037 -0.886553
v -1.551557 3.916037 -1.042493
f 76 77 78
f 76 78 79
v -2.216104 3.294575 -0.236889
v -1.527896 3.294575 0.583266
v -1.281461 3.916037 0.489191
v -1.858668 3.916037 -0.198681
f 80 81 82
f 80 82 83
v -1.527896 3.294575 0.583266
v -0.839688 3.294575 1.403421
v -0.704254 3.916037 1.177063
v -1.281461 3.916037 0.489191
f 84 85 86
f 84 86 87
v -0.839688 3.294575 1.403421
v -0.151479 3.294575 2.223576
v -0.127047 3.916037 1.864935
v -0.704254 3.916037 1.177063
f 88 89 90
f 88 90 91
v 1.064382 3.916037 0.865183
v 1.371493 3.916037 0.021371
v 1.019828 4.427828 0.015891
v 0.791464 4.427828 0.643341
f 92 93 94
f 92 94 95
v 1.985715 3.916037 -1.666253
v 1.101397 3.916037 -1.510313
v 0.818988 4.427828 -1.123053
v 1.476557 4.427828 -1.239009
f 96 97 98
f 96 98 99
v 1.101397 3.916037 -1.510313
v 0.217079 3.916037 -1.354373
v 0.161418 4.427828 -1.007098
v 0.818988 4.427828 -1.123053
f 100 101 102
f 100 102 103
v -1.551557 3.916037 -1.042493
v -2.435875 3.916037 -0.886553
v -1.811292 4.427828 -0.659232
v -1.153722 4.427828 -0.775187
f 104 105 106
f 104 106 107
v -1.281461 3.916037 0.489191
v -0.704254 3.916037 1.177063
v -0.523676 4.427828 0.875252
v -0.952881 4.427828 0.363757
f 108 109 110
f 108 110 111
v -0.704254 3.916037 1.177063
v -0.127047 3.916037 1.864935
v -0.094471 4.427828 1.386746
v -0.523676 4.427828 0.875252
f 112 113 114
f 112 114 115
v -0.127047 3.916037 1.864935
v 0.450160 3.916037 2.552806
v 0.334734 4.427828 1.898241
v -0.094471 4.427828 1.386746
f 116 117 118
f 116 118 119
v 0.791464 4.427828 0.643341
v 1.019828 4.427828 0.015891
v 1.019828 5.029951 0.015891
v 0.791464 5.029951 0.643341
f 120 121 122
f 120 122 123
v 1.019828 4.427828 0.015891
v 1.248193 4.427828 -0.611559
v 1.248193 5.029951 -0.611559
v 1.019828 5.029951 0.015891
f 124 125 126
f 124 126 127
v 1.248193 4.427828 -0.611559
v 1.476557 4.427828 -1.239009
v 1.476557 5.029951 -1.239009
v 1.248193 5.029951 -0.611559
f 128 129 130
f 128 130 131
v 0.161418 4.427828 -1.007098
v -0.496152 4.427828 -0.891143
v -0.496152 5.029951 -0.891143
v 0.161418 5.029951 -1.007098
f 132 133 134
f 132 134 135
v -0.496152 4.427828 -0.891143
v -1.153722 4.427828 -0.775187
v -1.153722 5.029951 -0.775187
v -0.496152 5.029951 -0.891143
f 136 137 138
f 136 138 139
v -0.523676 4.427828 0.875252
v -0.094471 4.427828 1.386746
v -0.094471 5.029951 1.386746
v -0.523676 5.029951 0.875252
f 140 141 142
f 140 142 143
v 0.334734 5.029951 1.898241
v 0.563099 5.029951 1.270791
v 0.427179 5.578299 0.964048
v 0.253936 5.578299 1.440045
f 144 145 146
f 144 146 147
v 0.563099 5.029951 1.270791
v 0.791464 5.029951 0.643341
v 0.600421 5.578299 0.488052
v 0.427179 5.578299 0.964048
f 148 149 150
f 148 150 151
v 0.791464 5.029951 0.643341
v 1.019828 5.029951 0.015891
v 0.773663 5.578299 0.012055
v 0.600421 5.578299 0.488052
f 152 153 154
f 152 154 155
v 0.818988 5.029951 -1.123053
v 0.161418 5.029951 -1.007098
v 0.122455 5.578299 -0.764005
v 0.621301 5.578299 -0.851972
f 156 157 158
f 156 158 159
v 0.161418 5.029951 -1.007098
v -0.496152 5.029951 -0.891143
v -0.376391 5.578299 -0.676039
v 0.122455 5.578299 -0.764005
f 160 161 162
f 160 162 163
v -1.811292 5.029951 -0.659232
v -1.382087 5.029951 -0.147737
v -1.048480 5.578299 -0.112077
v -1.374084 5.578299 -0.500107
f 164 165 166
f 164 166 167
v -1.382087 5.029951 -0.147737
v -0.952881 5.029951 0.363757
v -0.722876 5.578299 0.275954
v -1.048480 5.578299 -0.112077
f 168 169 170
f 168 170 171
v -0.523676 5.029951 0.875252
v -0.094471 5.029951 1.386746
v -0.071668 5.578299 1.052014
v -0.397272 5.578299 0.663984
f 172 173 174
f 172 174 175
v -0.094471 5.029951 1.386746
v 0.334734 5.029951 1.898241
v 0.253936 5.578299 1.440045
v -0.071668 5.578299 1.052014
f 176 177 178
f 176 178 179
v 0.253936 5.578299 1.440045
v 0.427179 5.578299 0.964048
v 0.213589 5.980422 0.482024
v 0.126968 5.980422 0.720022
f 180 181 182
f 180 182 183
v 0.427179 5.578299 0.964048
v 0.600421 5.578299 0.488052
v 0.300210 5.980422 0.244026
v 0.213589 5.980422 0.482024
f 184 185 186
f 184 186 187
v 0.773663 5.578299 0.012055
v 0.946905 5.578299 -0.463941
v 0.473452 5.980422 -0.231971
v 0.386831 5.980422 0.006028
f 188 189 190
f 188 190 191
v 0.946905 5.578299 -0.463941
v 1.120147 5.578299 -0.939938
v 0.560074 5.980422 -0.469969
v 0.473452 5.980422 -0.231971
f 192 193 194
f 192 194 195
v 0.621301 5.578299 -0.851972
v 0.122455 5.578299 -0.764005
v 0.061227 5.980422 -0.382003
v 0.310650 5.980422 -0.425986
f 196 197 198
f 196 198 199
v -0.376391 5.578299 -0.676039
v -0.875237 5.578299 -0.588073
v -0.437619 5.980422 -0.294037
v -0.188196 5.980422 -0.338020
f 200 201 202
f 200 202 203
v -1.374084 5.578299 -0.500107
v -1.048480 5.578299 -0.112077
v -0.524240 5.980422 -0.056038
v -0.687042 5.980422 -0.250053
f 204 205 206
f 204 206 207
v -0.397272 5.578299 0.663984
v -0.071668 5.578299 1.052014
v -0.035834 5.980422 0.526007
v -0.198636 5.980422 0.331992
f 208 209 210
f 208 210 211
v -0.071668 5.578299 1.052014
v 0.253936 5.578299 1.440045
v 0.126968 5.980422 0.720022
v -0.035834 5.980422 0.526007
f 212 213 214
f 212 214 215
v 0.300210 5.980422 0.244026
v 0.386831 5.980422 0.006028
v 0.000000 6.163204 0.000000
v 0.000000 6.163204 0.000000
f 216 217 218
v 0.386831 5.980422 0.006028
v 0.473452 5.980422 -0.231971
v 0.000000 6.163204 -0.000000
v 0.000000 6.163204 0.000000
f 220 221 222
v 0.560074 5.980422 -0.469969
v 0.310650 5.980422 -0.425986
v 0.000000 6.163204 -0.000000
v 0.000000 6.163204 -0.000000
f 224 225 226
v 0.310650 5.980422 -0.425986
v 0.061227 5.980422 -0.382003
v 0.000000 6.163204 -0.000000
v 0.000000 6.163204 -0.000000
f 228 229 230
v 0.061227 5.980422 -0.382003
v -0.188196 5.980422 -0.338020
v -0.000000 6.163204 -0.000000
v 0.000000 6.163204 -0.000000
f 232 233 234
v -0.188196 5.980422 -0.338020
v -0.437619 5.980422 -0.294037
v -0.000000 6.163204 -0.000000
v -0.000000 6.163204 -0.000000
f 236 237 238
v -0.524240 5.980422 -0.056038
v -0.361438 5.980422 0.137977
v -0.000000 6.163204 0.000000
v -0.000000 6.163204 -0.000000
f 240 241 242
v -0.361438 5.980422 0.137977
v -0.198636 5.980422 0.331992
v -0.000000 6.163204 0.000000
v -0.000000 6.163204 0.000000
f 244 245 246
v -0.035834 5.980422 0.526007
v 0.126968 5.980422 0.720022
v 0.000000 6.163204 0.000000
v -0.000000 6.163204 0.000000
f 248 249 250
