o mesh
v -6.223401 0.130000 -5.716111
v -5.889488 0.130000 -5.716111
v -5.987289 0.130000 -5.952223
v -6.223401 0.130000 -6.050023
v -6.459513 0.130000 -5.952223
v -6.557314 0.130000 -5.716111
v -6.459513 0.130000 -5.479999
v -6.223401 0.130000 -5.382198
v -5.987289 0.130000 -5.479999
f 1 2 3
f 1 3 4
f 1 4 5
f 1 5 6
f 1 6 7
f 1 7 8
f 1 8 9
f 1 9 2
v -4.172661 0.130000 -4.209001
v -3.949226 0.130000 -4.209001
v -4.014669 0.130000 -4.366994
v -4.172661 0.130000 -4.432436
v -4.330654 0.130000 -4.366994
v -4.396096 0.130000 -4.209001
v -4.330654 0.130000 -4.051009
v -4.172661 0.130000 -3.985566
v -4.014669 0.130000 -4.051009
f 10 11 12
f 10 12 13
f 10 13 14
f 10 14 15
f 10 15 16
f 10 16 17
f 10 17 18
f 10 18 11
v -2.272562 0.130000 1.066563
v -1.953691 0.130000 1.066563
v -2.047086 0.130000 0.841088
v -2.272562 0.130000 0.747693
v -2.498037 0.130000 0.841088
v -2.591432 0.130000 1.066563
v -2.498037 0.130000 1.292039
v -2.272562 0.130000 1.385434
v -2.047086 0.130000 1.292039
f 19 20 21
f 19 21 22
f 19 22 23
f 19 23 24
f 19 24 25
f 19 25 26
f 19 26 27
f 19 27 20
v -2.415650 0.130000 -2.502644
v -2.023700 0.130000 -2.502644
v -2.138499 0.130000 -2.779794
v -2.415650 0.130000 -2.894594
v -2.692801 0.130000 -2.779794
v -2.807600 0.130000 -2.502644
v -2.692801 0.130000 -2.225493
v -2.415650 0.130000 -2.110693
v -2.138499 0.130000 -2.225493
f 28 29 30
f 28 30 31
f 28 31 32
f 28 32 33
f 28 33 34
f 28 34 35
f 28 35 36
f 28 36 29
v -1.043639 0.130000 2.656145
v -0.634998 0.130000 2.656145
v -0.754686 0.130000 2.367192
v -1.043639 0.130000 2.247503
v -1.332592 0.130000 2.367192
v -1.452280 0.130000 2.656145
v -1.332592 0.130000 2.945098
v -1.043639 0.130000 3.064786
v -0.754686 0.130000 2.945098
f 37 38 39
f 37 39 40
f 37 40 41
f 37 41 42
f 37 42 43
f 37 43 44
f 37 44 45
f 37 45 38
v -1.067414 0.130000 -0.788012
v -0.727673 0.130000 -0.788012
v -0.827181 0.130000 -1.028244
v -1.067414 0.130000 -1.127752
v -1.307646 0.130000 -1.028244
v -1.407154 0.130000 -0.788012
v -1.307646 0.130000 -0.547779
v -1.067414 0.130000 -0.448271
v -0.827181 0.130000 -0.547779
f 46 47 48
f 46 48 49
f 46 49 50
f 46 50 51
f 46 51 52
f 46 52 53
f 46 53 54
f 46 54 47
v 1.018386 0.130000 -6.148064
v 1.457805 0.130000 -6.148064
v 1.329102 0.130000 -6.458780
v 1.018386 0.130000 -6.587483
v 0.707670 0.130000 -6.458780
v 0.578967 0.130000 -6.148064
v 0.707670 0.130000 -5.837348
v 1.018386 0.130000 -5.708645
v 1.329102 0.130000 -5.837348
f 55 56 57
f 55 57 58
f 55 58 59
f 55 59 60
f 55 60 61
f 55 61 62
f 55 62 63
f 55 63 56
v 4.525019 0.130000 4.012487
v 4.923774 0.130000 4.012487
v 4.806981 0.130000 3.730525
v 4.525019 0.130000 3.613733
v 4.243058 0.130000 3.730525
v 4.126265 0.130000 4.012487
v 4.243058 0.130000 4.294449
v 4.525019 0.130000 4.411241
v 4.806981 0.130000 4.294449
f 64 65 66
f 64 66 67
f 64 67 68
f 64 68 69
f 64 69 70
f 64 70 71
f 64 71 72
f 64 72 65
v 5.931712 0.130000 2.834964
v 6.349430 0.130000 2.834964
v 6.227083 0.130000 2.539593
v 5.931712 0.130000 2.417247
v 5.636341 0.130000 2.539593
v 5.513994 0.130000 2.834964
v 5.636341 0.130000 3.130336
v 5.931712 0.130000 3.252682
v 6.227083 0.130000 3.130336
f 73 74 75
f 73 75 76
f 73 76 77
f 73 77 78
f 73 78 79
f 73 79 80
f 73 80 81
f 73 81 74
