o mesh
v 0.000000 0.000000 0.015000
v 0.010607 0.000000 0.010607
v 0.015000 0.000000 0.000000
v 0.010607 0.000000 -0.010607
v 0.000000 0.000000 -0.015000
v -0.010607 0.000000 -0.010607
v -0.015000 0.000000 -0.000000
v -0.010607 0.000000 0.010607
v 0.000000 0.040000 0.012000
v 0.008485 0.040000 0.008485
v 0.012000 0.040000 0.000000
v 0.008485 0.040000 -0.008485
v 0.000000 0.040000 -0.012000
v -0.008485 0.040000 -0.008485
v -0.012000 0.040000 -0.000000
v -0.008485 0.040000 0.008485
f 1 2 10
f 1 10 9
f 2 3 11
f 2 11 10
f 3 4 12
f 3 12 11
f 4 5 13
f 4 13 12
f 5 6 14
f 5 14 13
f 6 7 15
f 6 15 14
f 7 8 16
f 7 16 15
f 8 1 9
f 8 9 16
v 0.000000 0.040000 -0.000000
v 0.004234 0.029655 0.011906
v 0.011321 0.019309 0.024001
v 0.019717 0.008964 0.036184
v 0.028701 -0.001382 0.048405
v 0.037715 -0.011727 0.060629
v 0.046278 -0.022072 0.072823
v 0.053969 -0.032418 0.084958
v 0.060427 -0.042763 0.097012
v 0.065351 -0.053108 0.108964
v 0.068509 -0.063454 0.120798
v 0.069743 -0.073799 0.132503
v 0.068973 -0.084145 0.144076
v 0.066198 -0.094490 0.155515
v 0.061500 -0.104835 0.166826
v 0.055036 -0.115181 0.178020
v 0.047038 -0.125526 0.189111
v 0.037805 -0.135871 0.200121
v 0.027702 -0.146217 0.211072
v 0.017148 -0.156562 0.221994
v 0.006624 -0.166908 0.232917
v -0.003312 -0.177253 0.243879
v -0.011940 -0.187598 0.254929
v -0.017715 -0.197944 0.266168
v -0.021949 -0.187598 0.254263
v -0.029036 -0.177253 0.242167
v -0.037432 -0.166908 0.229985
v -0.046416 -0.156562 0.217763
v -0.055429 -0.146217 0.205539
v -0.063992 -0.135871 0.193346
v -0.071684 -0.125526 0.181210
v -0.078142 -0.115181 0.169156
v -0.083066 -0.104835 0.157205
v -0.086223 -0.094490 0.145371
v -0.087457 -0.084145 0.133665
v -0.086687 -0.073799 0.122092
v -0.083913 -0.063454 0.110653
v -0.079215 -0.053108 0.099342
v -0.072750 -0.042763 0.088149
v -0.064752 -0.032418 0.077057
v -0.055520 -0.022072 0.066048
v -0.045417 -0.011727 0.055096
v -0.034863 -0.001382 0.044175
v -0.024339 0.008964 0.033252
v -0.014402 0.019309 0.022289
v -0.005775 0.029655 0.011239
f 17 18 19
f 17 19 18
f 17 19 20
f 17 20 19
f 17 20 21
f 17 21 20
f 17 21 22
f 17 22 21
f 17 22 23
f 17 23 22
f 17 23 24
f 17 24 23
f 17 24 25
f 17 25 24
f 17 25 26
f 17 26 25
f 17 26 27
f 17 27 26
f 17 27 28
f 17 28 27
f 17 28 29
f 17 29 28
f 17 29 30
f 17 30 29
f 17 30 31
f 17 31 30
f 17 31 32
f 17 32 31
f 17 32 33
f 17 33 32
f 17 33 34
f 17 34 33
f 17 34 35
f 17 35 34
f 17 35 36
f 17 36 35
f 17 36 37
f 17 37 36
f 17 37 38
f 17 38 37
f 17 38 39
f 17 39 38
f 17 39 40
f 17 40 39
f 17 40 41
f 17 41 40
f 17 41 42
f 17 42 41
f 17 42 43
f 17 43 42
f 17 43 44
f 17 44 43
f 17 44 45
f 17 45 44
f 17 45 46
f 17 46 45
f 17 46 47
f 17 47 46
f 17 47 48
f 17 48 47
f 17 48 49
f 17 49 48
f 17 49 50
f 17 50 49
f 17 50 51
f 17 51 50
f 17 51 52
f 17 52 51
f 17 52 53
f 17 53 52
f 17 53 54
f 17 54 53
f 17 54 55
f 17 55 54
f 17 55 56
f 17 56 55
f 17 56 57
f 17 57 56
f 17 57 58
f 17 58 57
f 17 58 59
f 17 59 58
f 17 59 60
f 17 60 59
f 17 60 61
f 17 61 60
f 17 61 62
f 17 62 61
v 0.000000 0.040000 -0.000000
v 0.010373 0.028555 0.001153
v 0.022236 0.017110 0.000245
v 0.034737 0.005665 -0.001543
v 0.047491 -0.005781 -0.003683
v 0.060208 -0.017226 -0.005772
v 0.072642 -0.028671 -0.007468
v 0.084576 -0.040116 -0.008474
v 0.095826 -0.051561 -0.008534
v 0.106242 -0.063006 -0.007439
v 0.115705 -0.074452 -0.005027
v 0.124136 -0.085897 -0.001189
v 0.131496 -0.097342 0.004133
v 0.137783 -0.108787 0.010936
v 0.143039 -0.120232 0.019167
v 0.147342 -0.131677 0.028715
v 0.150810 -0.143122 0.039418
v 0.153595 -0.154568 0.051066
v 0.155880 -0.166013 0.063404
v 0.157882 -0.177458 0.076136
v 0.159846 -0.188903 0.088918
v 0.162065 -0.200348 0.101349
v 0.164920 -0.211793 0.112900
v 0.169266 -0.223239 0.122389
v 0.158893 -0.211793 0.121236
v 0.147029 -0.200348 0.122144
v 0.134529 -0.188903 0.123932
v 0.121775 -0.177458 0.126072
v 0.109057 -0.166013 0.128161
v 0.096624 -0.154568 0.129857
v 0.084690 -0.143122 0.130863
v 0.073439 -0.131677 0.130923
v 0.063024 -0.120232 0.129828
v 0.053561 -0.108787 0.127416
v 0.045130 -0.097342 0.123578
v 0.037770 -0.085897 0.118256
v 0.031483 -0.074452 0.111453
v 0.026227 -0.063006 0.103222
v 0.021924 -0.051561 0.093674
v 0.018456 -0.040116 0.082972
v 0.015671 -0.028671 0.071323
v 0.013385 -0.017226 0.058985
v 0.011384 -0.005781 0.046253
v 0.009420 0.005665 0.033471
v 0.007201 0.017110 0.021040
v 0.004346 0.028555 0.009489
f 63 64 65
f 63 65 64
f 63 65 66
f 63 66 65
f 63 66 67
f 63 67 66
f 63 67 68
f 63 68 67
f 63 68 69
f 63 69 68
f 63 69 70
f 63 70 69
f 63 70 71
f 63 71 70
f 63 71 72
f 63 72 71
f 63 72 73
f 63 73 72
f 63 73 74
f 63 74 73
f 63 74 75
f 63 75 74
f 63 75 76
f 63 76 75
f 63 76 77
f 63 77 76
f 63 77 78
f 63 78 77
f 63 78 79
f 63 79 78
f 63 79 80
f 63 80 79
f 63 80 81
f 63 81 80
f 63 81 82
f 63 82 81
f 63 82 83
f 63 83 82
f 63 83 84
f 63 84 83
f 63 84 85
f 63 85 84
f 63 85 86
f 63 86 85
f 63 86 87
f 63 87 86
f 63 87 88
f 63 88 87
f 63 88 89
f 63 89 88
f 63 89 90
f 63 90 89
f 63 90 91
f 63 91 90
f 63 91 92
f 63 92 91
f 63 92 93
f 63 93 92
f 63 93 94
f 63 94 93
f 63 94 95
f 63 95 94
f 63 95 96
f 63 96 95
f 63 96 97
f 63 97 96
f 63 97 98
f 63 98 97
f 63 98 99
f 63 99 98
f 63 99 100
f 63 100 99
f 63 100 101
f 63 101 100
f 63 101 102
f 63 102 101
f 63 102 103
f 63 103 102
f 63 103 104
f 63 104 103
f 63 104 105
f 63 105 104
f 63 105 106
f 63 106 105
f 63 106 107
f 63 107 106
f 63 107 108
f 63 108 107
v 0.000000 0.040000 -0.000000
v 0.007661 0.032752 -0.005753
v 0.015110 0.025504 -0.013089
v 0.022486 0.018256 -0.020980
v 0.029844 0.011008 -0.028999
v 0.037228 0.003760 -0.036826
v 0.044673 -0.003487 -0.044198
v 0.052209 -0.010735 -0.050887
v 0.059862 -0.017983 -0.056699
v 0.067653 -0.025231 -0.061476
v 0.075599 -0.032479 -0.065098
v 0.083710 -0.039727 -0.067483
v 0.091992 -0.046975 -0.068589
v 0.100444 -0.054223 -0.068416
v 0.109062 -0.061471 -0.067007
v 0.117834 -0.068719 -0.064442
v 0.126744 -0.075967 -0.060843
v 0.135771 -0.083215 -0.056367
v 0.144890 -0.090462 -0.051207
v 0.154069 -0.097710 -0.045592
v 0.163274 -0.104958 -0.039786
v 0.172462 -0.112206 -0.034107
v 0.181576 -0.119454 -0.028984
v 0.190478 -0.126702 -0.025443
v 0.182817 -0.119454 -0.019689
v 0.175368 -0.112206 -0.012353
v 0.167993 -0.104958 -0.004462
v 0.160634 -0.097710 0.003556
v 0.153250 -0.090462 0.011384
v 0.145805 -0.083215 0.018756
v 0.138269 -0.075967 0.025444
v 0.130616 -0.068719 0.031256
v 0.122825 -0.061471 0.036033
v 0.114879 -0.054223 0.039655
v 0.106769 -0.046975 0.042040
v 0.098487 -0.039727 0.043146
v 0.090034 -0.032479 0.042974
v 0.081417 -0.025231 0.041564
v 0.072645 -0.017983 0.038999
v 0.063734 -0.010735 0.035400
v 0.054707 -0.003487 0.030924
v 0.045589 0.003760 0.025764
v 0.036409 0.011008 0.020149
v 0.027204 0.018256 0.014343
v 0.018016 0.025504 0.008665
v 0.008902 0.032752 0.003541
f 109 110 111
f 109 111 110
f 109 111 112
f 109 112 111
f 109 112 113
f 109 113 112
f 109 113 114
f 109 114 113
f 109 114 115
f 109 115 114
f 109 115 116
f 109 116 115
f 109 116 117
f 109 117 116
f 109 117 118
f 109 118 117
f 109 118 119
f 109 119 118
f 109 119 120
f 109 120 119
f 109 120 121
f 109 121 120
f 109 121 122
f 109 122 121
f 109 122 123
f 109 123 122
f 109 123 124
f 109 124 123
f 109 124 125
f 109 125 124
f 109 125 126
f 109 126 125
f 109 126 127
f 109 127 126
f 109 127 128
f 109 128 127
f 109 128 129
f 109 129 128
f 109 129 130
f 109 130 129
f 109 130 131
f 109 131 130
f 109 131 132
f 109 132 131
f 109 132 133
f 109 133 132
f 109 133 134
f 109 134 133
f 109 134 135
f 109 135 134
f 109 135 136
f 109 136 135
f 109 136 137
f 109 137 136
f 109 137 138
f 109 138 137
f 109 138 139
f 109 139 138
f 109 139 140
f 109 140 139
f 109 140 141
f 109 141 140
f 109 141 142
f 109 142 141
f 109 142 143
f 109 143 142
f 109 143 144
f 109 144 143
f 109 144 145
f 109 145 144
f 109 145 146
f 109 146 145
f 109 146 147
f 109 147 146
f 109 147 148
f 109 148 147
f 109 148 149
f 109 149 148
f 109 149 150
f 109 150 149
f 109 150 151
f 109 151 150
f 109 151 152
f 109 152 151
f 109 152 153
f 109 153 152
f 109 153 154
f 109 154 153
v 0.000000 0.040000 -0.000000
v 0.003557 0.029802 -0.011261
v 0.004952 0.019604 -0.024346
v 0.005310 0.009406 -0.038304
v 0.005173 -0.000792 -0.052681
v 0.004965 -0.010990 -0.067117
v 0.005055 -0.021188 -0.081302
v 0.005769 -0.031386 -0.094960
v 0.007388 -0.041583 -0.107856
v 0.010146 -0.051781 -0.119791
v 0.014223 -0.061979 -0.130614
v 0.019745 -0.072177 -0.140219
v 0.026773 -0.082375 -0.148554
v 0.035307 -0.092573 -0.155619
v 0.045284 -0.102771 -0.161467
v 0.056582 -0.112969 -0.166202
v 0.069019 -0.123167 -0.169976
v 0.082361 -0.133365 -0.172988
v 0.096326 -0.143563 -0.175474
v 0.110589 -0.153761 -0.177708
v 0.124783 -0.163959 -0.180002
v 0.138480 -0.174157 -0.182713
v 0.151141 -0.184355 -0.186299
v 0.161639 -0.194552 -0.191708
v 0.158082 -0.184355 -0.180447
v 0.156686 -0.174157 -0.167362
v 0.156329 -0.163959 -0.153403
v 0.156466 -0.153761 -0.139027
v 0.156674 -0.143563 -0.124591
v 0.156584 -0.133365 -0.110406
v 0.155870 -0.123167 -0.096748
v 0.154251 -0.112969 -0.083852
v 0.151493 -0.102771 -0.071917
v 0.147416 -0.092573 -0.061094
v 0.141894 -0.082375 -0.051489
v 0.134866 -0.072177 -0.043154
v 0.126332 -0.061979 -0.036089
v 0.116354 -0.051781 -0.030241
v 0.105057 -0.041583 -0.025506
v 0.092620 -0.031386 -0.021731
v 0.079278 -0.021188 -0.018720
v 0.065313 -0.010990 -0.016234
v 0.051050 -0.000792 -0.014000
v 0.036856 0.009406 -0.011706
v 0.023159 0.019604 -0.008995
v 0.010498 0.029802 -0.005409
f 155 156 157
f 155 157 156
f 155 157 158
f 155 158 157
f 155 158 159
f 155 159 158
f 155 159 160
f 155 160 159
f 155 160 161
f 155 161 160
f 155 161 162
f 155 162 161
f 155 162 163
f 155 163 162
f 155 163 164
f 155 164 163
f 155 164 165
f 155 165 164
f 155 165 166
f 155 166 165
f 155 166 167
f 155 167 166
f 155 167 168
f 155 168 167
f 155 168 169
f 155 169 168
f 155 169 170
f 155 170 169
f 155 170 171
f 155 171 170
f 155 171 172
f 155 172 171
f 155 172 173
f 155 173 172
f 155 173 174
f 155 174 173
f 155 174 175
f 155 175 174
f 155 175 176
f 155 176 175
f 155 176 177
f 155 177 176
f 155 177 178
f 155 178 177
f 155 178 179
f 155 179 178
f 155 179 180
f 155 180 179
f 155 180 181
f 155 181 180
f 155 181 182
f 155 182 181
f 155 182 183
f 155 183 182
f 155 183 184
f 155 184 183
f 155 184 185
f 155 185 184
f 155 185 186
f 155 186 185
f 155 186 187
f 155 187 186
f 155 187 188
f 155 188 187
f 155 188 189
f 155 189 188
f 155 189 190
f 155 190 189
f 155 190 191
f 155 191 190
f 155 191 192
f 155 192 191
f 155 192 193
f 155 193 192
f 155 193 194
f 155 194 193
f 155 194 195
f 155 195 194
f 155 195 196
f 155 196 195
f 155 196 197
f 155 197 196
f 155 197 198
f 155 198 197
f 155 198 199
f 155 199 198
f 155 199 200
f 155 200 199
v 0.000000 0.040000 -0.000000
v -0.002645 0.030211 -0.006001
v -0.007595 0.020422 -0.011639
v -0.014235 0.010633 -0.017010
v -0.022060 0.000844 -0.022194
v -0.030563 -0.008945 -0.027272
v -0.039226 -0.018735 -0.032324
v -0.047543 -0.028524 -0.037431
v -0.055040 -0.038313 -0.042667
v -0.061305 -0.048102 -0.048098
v -0.066006 -0.057891 -0.053775
v -0.068909 -0.067680 -0.059735
v -0.069896 -0.077469 -0.065997
v -0.068967 -0.087258 -0.072562
v -0.066241 -0.097047 -0.079409
v -0.061950 -0.106836 -0.086504
v -0.056427 -0.116625 -0.093792
v -0.050085 -0.126415 -0.101210
v -0.043396 -0.136204 -0.108682
v -0.036867 -0.145993 -0.116129
v -0.031016 -0.155782 -0.123469
v -0.026351 -0.165571 -0.130622
v -0.023375 -0.175360 -0.137509
v -0.022704 -0.185149 -0.144033
v -0.020059 -0.175360 -0.138032
v -0.015108 -0.165571 -0.132395
v -0.008469 -0.155782 -0.127023
v -0.000643 -0.145993 -0.121839
v 0.007859 -0.136204 -0.116761
v 0.016522 -0.126415 -0.111709
v 0.024839 -0.116625 -0.106602
v 0.032336 -0.106836 -0.101366
v 0.038601 -0.097047 -0.095935
v 0.043302 -0.087258 -0.090258
v 0.046205 -0.077469 -0.084298
v 0.047192 -0.067680 -0.078036
v 0.046263 -0.057891 -0.071472
v 0.043537 -0.048102 -0.064624
v 0.039246 -0.038313 -0.057530
v 0.033723 -0.028524 -0.050241
v 0.027381 -0.018735 -0.042823
v 0.020692 -0.008945 -0.035351
v 0.014163 0.000844 -0.027904
v 0.008312 0.010633 -0.020564
v 0.003647 0.020422 -0.013411
v 0.000671 0.030211 -0.006524
f 201 202 203
f 201 203 202
f 201 203 204
f 201 204 203
f 201 204 205
f 201 205 204
f 201 205 206
f 201 206 205
f 201 206 207
f 201 207 206
f 201 207 208
f 201 208 207
f 201 208 209
f 201 209 208
f 201 209 210
f 201 210 209
f 201 210 211
f 201 211 210
f 201 211 212
f 201 212 211
f 201 212 213
f 201 213 212
f 201 213 214
f 201 214 213
f 201 214 215
f 201 215 214
f 201 215 216
f 201 216 215
f 201 216 217
f 201 217 216
f 201 217 218
f 201 218 217
f 201 218 219
f 201 219 218
f 201 219 220
f 201 220 219
f 201 220 221
f 201 221 220
f 201 221 222
f 201 222 221
f 201 222 223
f 201 223 222
f 201 223 224
f 201 224 223
f 201 224 225
f 201 225 224
f 201 225 226
f 201 226 225
f 201 226 227
f 201 227 226
f 201 227 228
f 201 228 227
f 201 228 229
f 201 229 228
f 201 229 230
f 201 230 229
f 201 230 231
f 201 231 230
f 201 231 232
f 201 232 231
f 201 232 233
f 201 233 232
f 201 233 234
f 201 234 233
f 201 234 235
f 201 235 234
f 201 235 236
f 201 236 235
f 201 236 237
f 201 237 236
f 201 237 238
f 201 238 237
f 201 238 239
f 201 239 238
f 201 239 240
f 201 240 239
f 201 240 241
f 201 241 240
f 201 241 242
f 201 242 241
f 201 242 243
f 201 243 242
f 201 243 244
f 201 244 243
f 201 244 245
f 201 245 244
f 201 245 246
f 201 246 245
v 0.000000 0.040000 -0.000000
v -0.007648 0.027452 -0.006066
v -0.017903 0.014904 -0.010269
v -0.029909 0.002357 -0.013224
v -0.043068 -0.010191 -0.015355
v -0.056819 -0.022739 -0.017063
v -0.070619 -0.035287 -0.018736
v -0.083951 -0.047834 -0.020743
v -0.096342 -0.060382 -0.023423
v -0.107383 -0.072930 -0.027066
v -0.116749 -0.085478 -0.031905
v -0.124215 -0.098025 -0.038100
v -0.129665 -0.110573 -0.045734
v -0.133100 -0.123121 -0.054808
v -0.134634 -0.135669 -0.065238
v -0.134493 -0.148216 -0.076863
v -0.133003 -0.160764 -0.089452
v -0.130572 -0.173312 -0.102713
v -0.127672 -0.185860 -0.116309
v -0.124821 -0.198407 -0.129869
v -0.122563 -0.210955 -0.143007
v -0.121457 -0.223503 -0.155321
v -0.122102 -0.236051 -0.166386
v -0.125355 -0.248598 -0.175589
v -0.117707 -0.236051 -0.169524
v -0.107452 -0.223503 -0.165320
v -0.095446 -0.210955 -0.162366
v -0.082287 -0.198407 -0.160235
v -0.068536 -0.185860 -0.158527
v -0.054735 -0.173312 -0.156854
v -0.041404 -0.160764 -0.154846
v -0.029013 -0.148216 -0.152166
v -0.017972 -0.135669 -0.148523
v -0.008606 -0.123121 -0.143685
v -0.001140 -0.110573 -0.137490
v 0.004310 -0.098025 -0.129855
v 0.007745 -0.085478 -0.120782
v 0.009279 -0.072930 -0.110352
v 0.009138 -0.060382 -0.098726
v 0.007648 -0.047834 -0.086137
v 0.005217 -0.035287 -0.072876
v 0.002317 -0.022739 -0.059281
v -0.000534 -0.010191 -0.045720
v -0.002792 0.002357 -0.032582
v -0.003898 0.014904 -0.020268
v -0.003253 0.027452 -0.009203
f 247 248 249
f 247 249 248
f 247 249 250
f 247 250 249
f 247 250 251
f 247 251 250
f 247 251 252
f 247 252 251
f 247 252 253
f 247 253 252
f 247 253 254
f 247 254 253
f 247 254 255
f 247 255 254
f 247 255 256
f 247 256 255
f 247 256 257
f 247 257 256
f 247 257 258
f 247 258 257
f 247 258 259
f 247 259 258
f 247 259 260
f 247 260 259
f 247 260 261
f 247 261 260
f 247 261 262
f 247 262 261
f 247 262 263
f 247 263 262
f 247 263 264
f 247 264 263
f 247 264 265
f 247 265 264
f 247 265 266
f 247 266 265
f 247 266 267
f 247 267 266
f 247 267 268
f 247 268 267
f 247 268 269
f 247 269 268
f 247 269 270
f 247 270 269
f 247 270 271
f 247 271 270
f 247 271 272
f 247 272 271
f 247 272 273
f 247 273 272
f 247 273 274
f 247 274 273
f 247 274 275
f 247 275 274
f 247 275 276
f 247 276 275
f 247 276 277
f 247 277 276
f 247 277 278
f 247 278 277
f 247 278 279
f 247 279 278
f 247 279 280
f 247 280 279
f 247 280 281
f 247 281 280
f 247 281 282
f 247 282 281
f 247 282 283
f 247 283 282
f 247 283 284
f 247 284 283
f 247 284 285
f 247 285 284
f 247 285 286
f 247 286 285
f 247 286 287
f 247 287 286
f 247 287 288
f 247 288 287
f 247 288 289
f 247 289 288
f 247 289 290
f 247 290 289
f 247 290 291
f 247 291 290
f 247 291 292
f 247 292 291
v 0.000000 0.040000 -0.000000
v -0.007288 0.028710 0.005565
v -0.014039 0.017419 0.013787
v -0.020522 0.006129 0.023336
v -0.026871 -0.005161 0.033553
v -0.033192 -0.016452 0.043910
v -0.039576 -0.027742 0.053948
v -0.046108 -0.039032 0.063259
v -0.052858 -0.050323 0.071488
v -0.059886 -0.061613 0.078338
v -0.067239 -0.072903 0.083581
v -0.074948 -0.084194 0.087057
v -0.083030 -0.095484 0.088689
v -0.091484 -0.106774 0.088476
v -0.100295 -0.118064 0.086497
v -0.109431 -0.129355 0.082910
v -0.118845 -0.140645 0.077944
v -0.128477 -0.151935 0.071896
v -0.138256 -0.163226 0.065121
v -0.148100 -0.174516 0.058028
v -0.157915 -0.185806 0.051075
v -0.167595 -0.197097 0.044789
v -0.177007 -0.208387 0.039830
v -0.185883 -0.219677 0.037528
v -0.178596 -0.208387 0.031963
v -0.171844 -0.197097 0.023741
v -0.165361 -0.185806 0.014192
v -0.159012 -0.174516 0.003976
v -0.152692 -0.163226 -0.006381
v -0.146307 -0.151935 -0.016420
v -0.139776 -0.140645 -0.025731
v -0.133026 -0.129355 -0.033960
v -0.125998 -0.118064 -0.040810
v -0.118645 -0.106774 -0.046052
v -0.110935 -0.095484 -0.049529
v -0.102853 -0.084194 -0.051161
v -0.094399 -0.072903 -0.050947
v -0.085588 -0.061613 -0.048968
v -0.076453 -0.050323 -0.045381
v -0.067039 -0.039032 -0.040416
v -0.057406 -0.027742 -0.034368
v -0.047627 -0.016452 -0.027593
v -0.037784 -0.005161 -0.020499
v -0.027969 0.006129 -0.013546
v -0.018288 0.017419 -0.007260
v -0.008876 0.028710 -0.002302
f 293 294 295
f 293 295 294
f 293 295 296
f 293 296 295
f 293 296 297
f 293 297 296
f 293 297 298
f 293 298 297
f 293 298 299
f 293 299 298
f 293 299 300
f 293 300 299
f 293 300 301
f 293 301 300
f 293 301 302
f 293 302 301
f 293 302 303
f 293 303 302
f 293 303 304
f 293 304 303
f 293 304 305
f 293 305 304
f 293 305 306
f 293 306 305
f 293 306 307
f 293 307 306
f 293 307 308
f 293 308 307
f 293 308 309
f 293 309 308
f 293 309 310
f 293 310 309
f 293 310 311
f 293 311 310
f 293 311 312
f 293 312 311
f 293 312 313
f 293 313 312
f 293 313 314
f 293 314 313
f 293 314 315
f 293 315 314
f 293 315 316
f 293 316 315
f 293 316 317
f 293 317 316
f 293 317 318
f 293 318 317
f 293 318 319
f 293 319 318
f 293 319 320
f 293 320 319
f 293 320 321
f 293 321 320
f 293 321 322
f 293 322 321
f 293 322 323
f 293 323 322
f 293 323 324
f 293 324 323
f 293 324 325
f 293 325 324
f 293 325 326
f 293 326 325
f 293 326 327
f 293 327 326
f 293 327 328
f 293 328 327
f 293 328 329
f 293 329 328
f 293 329 330
f 293 330 329
f 293 330 331
f 293 331 330
f 293 331 332
f 293 332 331
f 293 332 333
f 293 333 332
f 293 333 334
f 293 334 333
f 293 334 335
f 293 335 334
f 293 335 336
f 293 336 335
f 293 336 337
f 293 337 336
f 293 337 338
f 293 338 337
v 0.000000 0.040000 -0.000000
v -0.000334 0.029739 0.007960
v 0.000776 0.019477 0.017116
v 0.002432 0.009216 0.026722
v 0.004251 -0.001046 0.036463
v 0.005948 -0.011307 0.046103
v 0.007282 -0.021569 0.055443
v 0.008048 -0.031830 0.064314
v 0.008071 -0.042092 0.072569
v 0.007206 -0.052353 0.080090
v 0.005343 -0.062614 0.086786
v 0.002408 -0.072876 0.092595
v -0.001637 -0.083137 0.097486
v -0.006793 -0.093399 0.101459
v -0.013020 -0.103660 0.104545
v -0.020246 -0.113922 0.106805
v -0.028359 -0.124183 0.108331
v -0.037215 -0.134445 0.109243
v -0.046640 -0.144706 0.109684
v -0.056427 -0.154967 0.109826
v -0.066337 -0.165229 0.109866
v -0.076083 -0.175490 0.110041
v -0.085285 -0.185752 0.110668
v -0.093041 -0.196013 0.112489
v -0.092707 -0.185752 0.104529
v -0.093817 -0.175490 0.095374
v -0.095473 -0.165229 0.085767
v -0.097292 -0.154967 0.076026
v -0.098989 -0.144706 0.066386
v -0.100323 -0.134445 0.057046
v -0.101089 -0.124183 0.048175
v -0.101112 -0.113922 0.039920
v -0.100247 -0.103660 0.032399
v -0.098384 -0.093399 0.025703
v -0.095449 -0.083137 0.019894
v -0.091404 -0.072876 0.015003
v -0.086248 -0.062614 0.011030
v -0.080020 -0.052353 0.007945
v -0.072795 -0.042092 0.005684
v -0.064682 -0.031830 0.004158
v -0.055825 -0.021569 0.003247
v -0.046400 -0.011307 0.002805
v -0.036613 -0.001046 0.002663
v -0.026704 0.009216 0.002623
v -0.016957 0.019477 0.002448
v -0.007756 0.029739 0.001821
f 339 340 341
f 339 341 340
f 339 341 342
f 339 342 341
f 339 342 343
f 339 343 342
f 339 343 344
f 339 344 343
f 339 344 345
f 339 345 344
f 339 345 346
f 339 346 345
f 339 346 347
f 339 347 346
f 339 347 348
f 339 348 347
f 339 348 349
f 339 349 348
f 339 349 350
f 339 350 349
f 339 350 351
f 339 351 350
f 339 351 352
f 339 352 351
f 339 352 353
f 339 353 352
f 339 353 354
f 339 354 353
f 339 354 355
f 339 355 354
f 339 355 356
f 339 356 355
f 339 356 357
f 339 357 356
f 339 357 358
f 339 358 357
f 339 358 359
f 339 359 358
f 339 359 360
f 339 360 359
f 339 360 361
f 339 361 360
f 339 361 362
f 339 362 361
f 339 362 363
f 339 363 362
f 339 363 364
f 339 364 363
f 339 364 365
f 339 365 364
f 339 365 366
f 339 366 365
f 339 366 367
f 339 367 366
f 339 367 368
f 339 368 367
f 339 368 369
f 339 369 368
f 339 369 370
f 339 370 369
f 339 370 371
f 339 371 370
f 339 371 372
f 339 372 371
f 339 372 373
f 339 373 372
f 339 373 374
f 339 374 373
f 339 374 375
f 339 375 374
f 339 375 376
f 339 376 375
f 339 376 377
f 339 377 376
f 339 377 378
f 339 378 377
f 339 378 379
f 339 379 378
f 339 379 380
f 339 380 379
f 339 380 381
f 339 381 380
f 339 381 382
f 339 382 381
f 339 382 383
f 339 383 382
f 339 383 384
f 339 384 383
