o mesh
v 0.000000 0.000000 0.015000
v 0.008817 0.000000 0.012135
v 0.014266 0.000000 0.004635
v 0.014266 0.000000 -0.004635
v 0.008817 0.000000 -0.012135
v 0.000000 0.000000 -0.015000
v -0.008817 0.000000 -0.012135
v -0.014266 0.000000 -0.004635
v -0.014266 0.000000 0.004635
v -0.008817 0.000000 0.012135
v 0.000000 0.400000 0.010200
v 0.005995 0.400000 0.008252
v 0.009701 0.400000 0.003152
v 0.009701 0.400000 -0.003152
v 0.005995 0.400000 -0.008252
v 0.000000 0.400000 -0.010200
v -0.005995 0.400000 -0.008252
v -0.009701 0.400000 -0.003152
v -0.009701 0.400000 0.003152
v -0.005995 0.400000 0.008252
f 1 2 12
f 1 12 11
f 2 3 13
f 2 13 12
f 3 4 14
f 3 14 13
f 4 5 15
f 4 15 14
f 5 6 16
f 5 16 15
f 6 7 17
f 6 17 16
f 7 8 18
f 7 18 17
f 8 9 19
f 8 19 18
f 9 10 20
f 9 20 19
f 10 1 11
f 10 11 20
v -0.001831 0.400000 0.010034
v 0.002369 0.404542 0.008821
v 0.005664 0.407348 0.004238
v 0.006796 0.407348 -0.001964
v 0.005332 0.404542 -0.007415
v 0.001831 0.400000 -0.010034
v -0.002369 0.395458 -0.008821
v -0.005664 0.392652 -0.004238
v -0.006796 0.392652 0.001964
v -0.005332 0.395458 0.007415
v -0.245648 0.614104 -0.037773
v -0.242792 0.617192 -0.038598
v -0.240552 0.619101 -0.041714
v -0.239782 0.619101 -0.045932
v -0.240778 0.617192 -0.049638
v -0.243158 0.614104 -0.051419
v -0.246014 0.611016 -0.050594
v -0.248255 0.609107 -0.047478
v -0.249025 0.609107 -0.043261
v -0.248029 0.611016 -0.039554
f 21 22 32
f 21 32 31
f 22 23 33
f 22 33 32
f 23 24 34
f 23 34 33
f 24 25 35
f 24 35 34
f 25 26 36
f 25 36 35
f 26 27 37
f 26 37 36
f 27 28 38
f 27 38 37
f 28 29 39
f 28 39 38
f 29 30 40
f 29 40 39
f 30 21 31
f 30 31 40
v -0.244586 0.614104 -0.037662
v -0.246075 0.617886 -0.039027
v -0.246925 0.620223 -0.042518
v -0.246812 0.620223 -0.046804
v -0.245779 0.617886 -0.050246
v -0.244221 0.614104 -0.051530
v -0.242732 0.610323 -0.050165
v -0.241882 0.607986 -0.046674
v -0.241995 0.607986 -0.042388
v -0.243028 0.610323 -0.038946
v -0.510241 0.506996 -0.046890
v -0.511253 0.509567 -0.047818
v -0.511831 0.511157 -0.050192
v -0.511754 0.511157 -0.053106
v -0.511052 0.509567 -0.055447
v -0.509992 0.506996 -0.056320
v -0.508980 0.504425 -0.055392
v -0.508402 0.502835 -0.053018
v -0.508479 0.502835 -0.050104
v -0.509182 0.504425 -0.047763
f 41 42 52
f 41 52 51
f 42 43 53
f 42 53 52
f 43 44 54
f 43 54 53
f 44 45 55
f 44 55 54
f 45 46 56
f 45 56 55
f 46 47 57
f 46 57 56
f 47 48 58
f 47 58 57
f 48 49 59
f 48 59 58
f 49 50 60
f 49 60 59
f 50 41 51
f 50 51 60
v -0.510117 0.506969 -0.056321
v -0.507367 0.506618 -0.055419
v -0.505668 0.506411 -0.053059
v -0.505668 0.506427 -0.050144
v -0.507367 0.506661 -0.047787
v -0.510117 0.507023 -0.046889
v -0.512866 0.507374 -0.047791
v -0.514565 0.507581 -0.050151
v -0.514565 0.507565 -0.053066
v -0.512866 0.507331 -0.055423
v -0.541559 0.264567 -0.053424
v -0.539689 0.264328 -0.052811
v -0.538534 0.264187 -0.051206
v -0.538534 0.264199 -0.049224
v -0.539689 0.264358 -0.047621
v -0.541559 0.264604 -0.047010
v -0.543428 0.264843 -0.047624
v -0.544584 0.264983 -0.049228
v -0.544584 0.264972 -0.051211
v -0.543428 0.264813 -0.052813
f 61 62 72
f 61 72 71
f 62 63 73
f 62 73 72
f 63 64 74
f 63 74 73
f 64 65 75
f 64 75 74
f 65 66 76
f 65 76 75
f 66 67 77
f 66 77 76
f 67 68 78
f 67 78 77
f 68 69 79
f 68 79 78
f 69 70 80
f 69 80 79
f 70 61 71
f 70 71 80
v -0.541559 0.264585 -0.050217
v -0.541015 0.266433 -0.053401
v -0.539989 0.268218 -0.056552
v -0.538143 0.269896 -0.059649
v -0.535304 0.271447 -0.062681
v -0.531489 0.272871 -0.065647
v -0.526900 0.274195 -0.068563
v -0.521898 0.275466 -0.071451
v -0.516948 0.276743 -0.074342
v -0.512551 0.278092 -0.077270
v -0.509170 0.279573 -0.080266
v -0.507158 0.281230 -0.083352
v -0.506707 0.283089 -0.086542
v -0.507815 0.285150 -0.089835
v -0.510292 0.287388 -0.093218
v -0.513785 0.289758 -0.096669
v -0.517831 0.292198 -0.100157
v -0.521930 0.294646 -0.103648
v -0.525615 0.297040 -0.107112
v -0.528527 0.299334 -0.110524
v -0.530461 0.301502 -0.113872
v -0.531404 0.303542 -0.117154
v -0.531527 0.305475 -0.120382
v -0.531167 0.307346 -0.123577
v -0.531711 0.305499 -0.120394
v -0.532737 0.303714 -0.117242
v -0.534583 0.302035 -0.114145
v -0.537422 0.300485 -0.111114
v -0.541237 0.299061 -0.108147
v -0.545825 0.297736 -0.105232
v -0.550828 0.296466 -0.102344
v -0.555778 0.295188 -0.099452
v -0.560174 0.293839 -0.096524
v -0.563555 0.292359 -0.093529
v -0.565567 0.290702 -0.090443
v -0.566019 0.288842 -0.087253
v -0.564911 0.286781 -0.083960
v -0.562434 0.284543 -0.080576
v -0.558941 0.282174 -0.077125
v -0.554894 0.279733 -0.073638
v -0.550795 0.277286 -0.070146
v -0.547110 0.274891 -0.066683
v -0.544199 0.272597 -0.063270
v -0.542264 0.270429 -0.059923
v -0.541322 0.268390 -0.056641
v -0.541199 0.266456 -0.053413
f 81 82 83
f 81 83 82
f 81 83 84
f 81 84 83
f 81 84 85
f 81 85 84
f 81 85 86
f 81 86 85
f 81 86 87
f 81 87 86
f 81 87 88
f 81 88 87
f 81 88 89
f 81 89 88
f 81 89 90
f 81 90 89
f 81 90 91
f 81 91 90
f 81 91 92
f 81 92 91
f 81 92 93
f 81 93 92
f 81 93 94
f 81 94 93
f 81 94 95
f 81 95 94
f 81 95 96
f 81 96 95
f 81 96 97
f 81 97 96
f 81 97 98
f 81 98 97
f 81 98 99
f 81 99 98
f 81 99 100
f 81 100 99
f 81 100 101
f 81 101 100
f 81 101 102
f 81 102 101
f 81 102 103
f 81 103 102
f 81 103 104
f 81 104 103
f 81 104 105
f 81 105 104
f 81 105 106
f 81 106 105
f 81 106 107
f 81 107 106
f 81 107 108
f 81 108 107
f 81 108 109
f 81 109 108
f 81 109 110
f 81 110 109
f 81 110 111
f 81 111 110
f 81 111 112
f 81 112 111
f 81 112 113
f 81 113 112
f 81 113 114
f 81 114 113
f 81 114 115
f 81 115 114
f 81 115 116
f 81 116 115
f 81 116 117
f 81 117 116
f 81 117 118
f 81 118 117
f 81 118 119
f 81 119 118
f 81 119 120
f 81 120 119
f 81 120 121
f 81 121 120
f 81 121 122
f 81 122 121
f 81 122 123
f 81 123 122
f 81 123 124
f 81 124 123
f 81 124 125
f 81 125 124
f 81 125 126
f 81 126 125
v -0.541559 0.264585 -0.050217
v -0.540137 0.265683 -0.048857
v -0.539046 0.266826 -0.047125
v -0.538342 0.268021 -0.044960
v -0.538005 0.269267 -0.042384
v -0.537964 0.270553 -0.039476
v -0.538104 0.271863 -0.036363
v -0.538289 0.273180 -0.033202
v -0.538366 0.274481 -0.030161
v -0.538192 0.275749 -0.027402
v -0.537641 0.276965 -0.025065
v -0.536623 0.278118 -0.023252
v -0.535090 0.279201 -0.022016
v -0.533042 0.280213 -0.021358
v -0.530527 0.281162 -0.021223
v -0.527636 0.282060 -0.021510
v -0.524493 0.282924 -0.022080
v -0.521242 0.283772 -0.022769
v -0.518036 0.284627 -0.023409
v -0.515011 0.285507 -0.023845
v -0.512282 0.286427 -0.023950
v -0.509921 0.287397 -0.023643
v -0.507946 0.288419 -0.022903
v -0.506302 0.289487 -0.021792
v -0.507724 0.288389 -0.023152
v -0.508814 0.287246 -0.024884
v -0.509519 0.286051 -0.027049
v -0.509856 0.284805 -0.029626
v -0.509897 0.283519 -0.032533
v -0.509756 0.282209 -0.035646
v -0.509572 0.280892 -0.038807
v -0.509495 0.279591 -0.041848
v -0.509669 0.278323 -0.044607
v -0.510220 0.277107 -0.046944
v -0.511238 0.275954 -0.048757
v -0.512770 0.274871 -0.049993
v -0.514818 0.273859 -0.050652
v -0.517334 0.272910 -0.050786
v -0.520225 0.272012 -0.050499
v -0.523368 0.271148 -0.049930
v -0.526618 0.270300 -0.049241
v -0.529825 0.269445 -0.048600
v -0.532849 0.268565 -0.048164
v -0.535578 0.267645 -0.048059
v -0.537940 0.266675 -0.048366
v -0.539915 0.265653 -0.049106
f 127 128 129
f 127 129 128
f 127 129 130
f 127 130 129
f 127 130 131
f 127 131 130
f 127 131 132
f 127 132 131
f 127 132 133
f 127 133 132
f 127 133 134
f 127 134 133
f 127 134 135
f 127 135 134
f 127 135 136
f 127 136 135
f 127 136 137
f 127 137 136
f 127 137 138
f 127 138 137
f 127 138 139
f 127 139 138
f 127 139 140
f 127 140 139
f 127 140 141
f 127 141 140
f 127 141 142
f 127 142 141
f 127 142 143
f 127 143 142
f 127 143 144
f 127 144 143
f 127 144 145
f 127 145 144
f 127 145 146
f 127 146 145
f 127 146 147
f 127 147 146
f 127 147 148
f 127 148 147
f 127 148 149
f 127 149 148
f 127 149 150
f 127 150 149
f 127 150 151
f 127 151 150
f 127 151 152
f 127 152 151
f 127 152 153
f 127 153 152
f 127 153 154
f 127 154 153
f 127 154 155
f 127 155 154
f 127 155 156
f 127 156 155
f 127 156 157
f 127 157 156
f 127 157 158
f 127 158 157
f 127 158 159
f 127 159 158
f 127 159 160
f 127 160 159
f 127 160 161
f 127 161 160
f 127 161 162
f 127 162 161
f 127 162 163
f 127 163 162
f 127 163 164
f 127 164 163
f 127 164 165
f 127 165 164
f 127 165 166
f 127 166 165
f 127 166 167
f 127 167 166
f 127 167 168
f 127 168 167
f 127 168 169
f 127 169 168
f 127 169 170
f 127 170 169
f 127 170 171
f 127 171 170
f 127 171 172
f 127 172 171
v -0.541559 0.264585 -0.050217
v -0.543595 0.265717 -0.048660
v -0.545854 0.266876 -0.047397
v -0.548491 0.268082 -0.046633
v -0.551583 0.269342 -0.046468
v -0.555121 0.270658 -0.046893
v -0.559011 0.272016 -0.047782
v -0.563088 0.273397 -0.048917
v -0.567139 0.274775 -0.050019
v -0.570936 0.276122 -0.050784
v -0.574267 0.277412 -0.050936
v -0.576973 0.278625 -0.050262
v -0.578966 0.279752 -0.048647
v -0.580246 0.280791 -0.046092
v -0.580900 0.281755 -0.042712
v -0.581090 0.282661 -0.038717
v -0.581024 0.283536 -0.034387
v -0.580933 0.284408 -0.030022
v -0.581029 0.285303 -0.025904
v -0.581477 0.286241 -0.022251
v -0.582371 0.287233 -0.019186
v -0.583720 0.288281 -0.016722
v -0.585446 0.289375 -0.014755
v -0.587396 0.290496 -0.013084
v -0.585360 0.289364 -0.014642
v -0.583100 0.288205 -0.015904
v -0.580463 0.287000 -0.016669
v -0.577371 0.285739 -0.016833
v -0.573833 0.284424 -0.016408
v -0.569943 0.283065 -0.015519
v -0.565866 0.281684 -0.014384
v -0.561815 0.280306 -0.013282
v -0.558019 0.278960 -0.012517
v -0.554688 0.277669 -0.012365
v -0.551982 0.276456 -0.013039
v -0.549989 0.275329 -0.014654
v -0.548709 0.274290 -0.017209
v -0.548054 0.273327 -0.020589
v -0.547865 0.272421 -0.024584
v -0.547930 0.271545 -0.028914
v -0.548021 0.270673 -0.033279
v -0.547925 0.269779 -0.037397
v -0.547478 0.268841 -0.041050
v -0.546584 0.267848 -0.044115
v -0.545235 0.266801 -0.046580
v -0.543509 0.265707 -0.048546
f 173 174 175
f 173 175 174
f 173 175 176
f 173 176 175
f 173 176 177
f 173 177 176
f 173 177 178
f 173 178 177
f 173 178 179
f 173 179 178
f 173 179 180
f 173 180 179
f 173 180 181
f 173 181 180
f 173 181 182
f 173 182 181
f 173 182 183
f 173 183 182
f 173 183 184
f 173 184 183
f 173 184 185
f 173 185 184
f 173 185 186
f 173 186 185
f 173 186 187
f 173 187 186
f 173 187 188
f 173 188 187
f 173 188 189
f 173 189 188
f 173 189 190
f 173 190 189
f 173 190 191
f 173 191 190
f 173 191 192
f 173 192 191
f 173 192 193
f 173 193 192
f 173 193 194
f 173 194 193
f 173 194 195
f 173 195 194
f 173 195 196
f 173 196 195
f 173 196 197
f 173 197 196
f 173 197 198
f 173 198 197
f 173 198 199
f 173 199 198
f 173 199 200
f 173 200 199
f 173 200 201
f 173 201 200
f 173 201 202
f 173 202 201
f 173 202 203
f 173 203 202
f 173 203 204
f 173 204 203
f 173 204 205
f 173 205 204
f 173 205 206
f 173 206 205
f 173 206 207
f 173 207 206
f 173 207 208
f 173 208 207
f 173 208 209
f 173 209 208
f 173 209 210
f 173 210 209
f 173 210 211
f 173 211 210
f 173 211 212
f 173 212 211
f 173 212 213
f 173 213 212
f 173 213 214
f 173 214 213
f 173 214 215
f 173 215 214
f 173 215 216
f 173 216 215
f 173 216 217
f 173 217 216
f 173 217 218
f 173 218 217
