o mesh
v -0.029882 0.000000 -2.999851
v -0.668163 0.000000 -1.868437
v -0.668163 0.900000 -1.868437
v -0.029882 0.900000 -2.999851
f 1 2 3
f 1 3 4
v -1.944725 0.000000 0.394390
v -2.583006 0.000000 1.525804
v -2.583006 0.900000 1.525804
v -1.944725 0.900000 0.394390
f 5 6 7
f 5 7 8
v -2.583006 0.000000 1.525804
v -1.284033 0.000000 1.512865
v -1.284033 0.900000 1.512865
v -2.583006 0.900000 1.525804
f 9 10 11
f 9 11 12
v -1.284033 0.000000 1.512865
v 0.014941 0.000000 1.499926
v 0.014941 0.900000 1.499926
v -1.284033 0.900000 1.512865
f 13 14 15
f 13 15 16
v 1.313915 0.000000 1.486986
v 2.612888 0.000000 1.474047
v 2.612888 0.900000 1.474047
v 1.313915 0.900000 1.486986
f 17 18 19
f 17 19 20
v -0.029882 2.600000 -2.999851
v -2.583006 2.600000 1.525804
v -3.056557 2.600000 1.805535
v -0.035360 2.600000 -3.549824
f 21 22 23
f 21 23 24
v -2.583006 2.600000 1.525804
v 2.612888 2.600000 1.474047
v 3.091918 2.600000 1.744289
v -3.056557 2.600000 1.805535
f 25 26 27
f 25 27 28
v 2.612888 2.600000 1.474047
v -0.029882 2.600000 -2.999851
v -0.035360 2.600000 -3.549824
v 3.091918 2.600000 1.744289
f 29 30 31
f 29 31 32
v -1.949072 0.000000 0.402095
v -3.294917 0.000000 -0.357157
v -3.294917 0.900000 -0.357157
v -1.949072 0.900000 0.402095
f 33 34 35
f 33 35 36
v -3.294917 0.000000 -0.357157
v -4.640763 0.000000 -1.116408
v -4.640763 0.900000 -1.116408
v -3.294917 0.900000 -0.357157
f 37 38 39
f 37 39 40
v -0.663817 0.000000 -1.876142
v -2.009662 0.000000 -2.635394
v -2.009662 0.900000 -2.635394
v -0.663817 0.900000 -1.876142
f 41 42 43
f 41 43 44
v -2.009662 0.000000 -2.635394
v -3.355508 0.000000 -3.394645
v -3.355508 0.900000 -3.394645
v -2.009662 0.900000 -2.635394
f 45 46 47
f 45 47 48
v -3.355508 0.000000 -3.394645
v -3.998135 0.000000 -2.255527
v -3.998135 0.900000 -2.255527
v -3.355508 0.900000 -3.394645
f 49 50 51
f 49 51 52
v -3.998135 0.000000 -2.255527
v -4.640763 0.000000 -1.116408
v -4.640763 0.900000 -1.116408
v -3.998135 0.900000 -2.255527
f 53 54 55
f 53 55 56
v 0.231750 0.000000 -2.556939
v 1.146845 0.000000 -3.097494
v 1.146845 0.900000 -3.097494
v 0.231750 0.900000 -2.556939
f 57 58 59
f 57 59 60
v 1.146845 0.000000 -3.097494
v 2.061940 0.000000 -3.638048
v 2.061940 0.900000 -3.638048
v 1.146845 0.900000 -3.097494
f 61 62 63
f 61 63 64
v 2.061940 0.000000 -3.638048
v 2.977034 0.000000 -4.178603
v 2.977034 0.900000 -4.178603
v 2.061940 0.900000 -3.638048
f 65 66 67
f 65 67 68
v 2.351256 0.000000 1.031135
v 3.266351 0.000000 0.490581
v 3.266351 0.900000 0.490581
v 2.351256 0.900000 1.031135
f 69 70 71
f 69 71 72
v 3.266351 0.000000 0.490581
v 4.181446 0.000000 -0.049974
v 4.181446 0.900000 -0.049974
v 3.266351 0.900000 0.490581
f 73 74 75
f 73 75 76
v 4.181446 0.000000 -0.049974
v 5.096541 0.000000 -0.590528
v 5.096541 0.900000 -0.590528
v 4.181446 0.900000 -0.049974
f 77 78 79
f 77 79 80
v 5.096541 0.000000 -0.590528
v 4.390039 0.000000 -1.786553
v 4.390039 0.900000 -1.786553
v 5.096541 0.900000 -0.590528
f 81 82 83
f 81 83 84
v 4.390039 0.000000 -1.786553
v 3.683537 0.000000 -2.982578
v 3.683537 0.900000 -2.982578
v 4.390039 0.900000 -1.786553
f 85 86 87
f 85 87 88
v 3.683537 0.000000 -2.982578
v 2.977034 0.000000 -4.178603
v 2.977034 0.900000 -4.178603
v 3.683537 0.900000 -2.982578
f 89 90 91
f 89 91 92
