o mesh
v -1.735696 0.900000 -4.942183
v -1.975198 0.900000 -3.668407
v -1.975198 2.600000 -3.668407
v -1.735696 2.600000 -4.942183
f 1 2 3
f 1 3 4
v -1.735696 2.600000 -4.942183
v -1.975198 2.600000 -3.668407
v -1.975198 5.200000 -3.668407
v -1.735696 5.200000 -4.942183
f 5 6 7
f 5 7 8
v -1.735696 5.200000 -4.942183
v -1.975198 5.200000 -3.668407
v -1.975198 7.800000 -3.668407
v -1.735696 7.800000 -4.942183
f 9 10 11
f 9 11 12
v -1.975198 0.900000 -3.668407
v -2.214699 0.900000 -2.394631
v -2.214699 2.600000 -2.394631
v -1.975198 2.600000 -3.668407
f 13 14 15
f 13 15 16
v -1.975198 2.600000 -3.668407
v -2.214699 2.600000 -2.394631
v -2.214699 5.200000 -2.394631
v -1.975198 5.200000 -3.668407
f 17 18 19
f 17 19 20
v -1.975198 5.200000 -3.668407
v -2.214699 5.200000 -2.394631
v -2.214699 7.800000 -2.394631
v -1.975198 7.800000 -3.668407
f 21 22 23
f 21 23 24
v -2.214699 2.600000 -2.394631
v -2.454201 2.600000 -1.120855
v -2.454201 5.200000 -1.120855
v -2.214699 5.200000 -2.394631
f 25 26 27
f 25 27 28
v -2.454201 0.900000 -1.120855
v -2.693703 0.900000 0.152921
v -2.693703 2.600000 0.152921
v -2.454201 2.600000 -1.120855
f 29 30 31
f 29 31 32
v -2.454201 2.600000 -1.120855
v -2.693703 2.600000 0.152921
v -2.693703 5.200000 0.152921
v -2.454201 5.200000 -1.120855
f 33 34 35
f 33 35 36
v -2.693703 2.600000 0.152921
v -2.933205 2.600000 1.426697
v -2.933205 5.200000 1.426697
v -2.693703 5.200000 0.152921
f 37 38 39
f 37 39 40
v -2.693703 5.200000 0.152921
v -2.933205 5.200000 1.426697
v -2.933205 7.800000 1.426697
v -2.693703 7.800000 0.152921
f 41 42 43
f 41 43 44
v -2.933205 2.600000 1.426697
v -3.172706 2.600000 2.700472
v -3.172706 5.200000 2.700472
v -2.933205 5.200000 1.426697
f 45 46 47
f 45 47 48
v -2.933205 5.200000 1.426697
v -3.172706 5.200000 2.700472
v -3.172706 7.800000 2.700472
v -2.933205 7.800000 1.426697
f 49 50 51
f 49 51 52
v -3.172706 0.900000 2.700472
v -3.412208 0.900000 3.974248
v -3.412208 2.600000 3.974248
v -3.172706 2.600000 2.700472
f 53 54 55
f 53 55 56
v -3.172706 2.600000 2.700472
v -3.412208 2.600000 3.974248
v -3.412208 5.200000 3.974248
v -3.172706 5.200000 2.700472
f 57 58 59
f 57 59 60
v -3.412208 0.900000 3.974248
v -2.189335 0.900000 3.544775
v -2.189335 2.600000 3.544775
v -3.412208 2.600000 3.974248
f 61 62 63
f 61 63 64
v -3.412208 5.200000 3.974248
v -2.189335 5.200000 3.544775
v -2.189335 7.800000 3.544775
v -3.412208 7.800000 3.974248
f 65 66 67
f 65 67 68
v -2.189335 0.900000 3.544775
v -0.966462 0.900000 3.115302
v -0.966462 2.600000 3.115302
v -2.189335 2.600000 3.544775
f 69 70 71
f 69 71 72
v -2.189335 2.600000 3.544775
v -0.966462 2.600000 3.115302
v -0.966462 5.200000 3.115302
v -2.189335 5.200000 3.544775
f 73 74 75
f 73 75 76
v -0.966462 0.900000 3.115302
v 0.256411 0.900000 2.685828
v 0.256411 2.600000 2.685828
v -0.966462 2.600000 3.115302
f 77 78 79
f 77 79 80
v 0.256411 3.148048 2.685828
v 1.479285 3.148048 2.256355
v 1.479285 2.600000 2.256355
v 0.256411 2.600000 2.685828
f 81 82 83
f 81 83 84
v 0.867848 2.500000 2.471091
v 0.302954 2.747997 2.669482
v 0.435497 2.958239 2.622933
f 85 86 87
v 0.867848 2.500000 2.471091
v 0.435497 2.958239 2.622933
v 0.633861 3.098719 2.553268
f 88 89 90
v 0.867848 2.500000 2.471091
v 0.867848 3.148048 2.471091
v 1.101835 3.098719 2.388915
f 91 92 93
v 0.867848 2.500000 2.471091
v 1.300199 2.958239 2.319250
v 1.432742 2.747997 2.272701
f 94 95 96
v 0.867848 2.500000 2.471091
v 1.432742 2.747997 2.272701
v 1.479285 2.500000 2.256355
f 97 98 99
v 0.256411 2.600000 2.685828
v 1.479285 2.600000 2.256355
v 1.479285 5.200000 2.256355
v 0.256411 5.200000 2.685828
f 100 101 102
f 100 102 103
v 0.256411 5.200000 2.685828
v 1.479285 5.200000 2.256355
v 1.479285 7.800000 2.256355
v 0.256411 7.800000 2.685828
f 104 105 106
f 104 106 107
v 1.479285 2.600000 2.256355
v 2.702158 2.600000 1.826881
v 2.702158 5.200000 1.826881
v 1.479285 5.200000 2.256355
f 108 109 110
f 108 110 111
v 1.479285 5.200000 2.256355
v 2.702158 5.200000 1.826881
v 2.702158 7.800000 1.826881
v 1.479285 7.800000 2.256355
f 112 113 114
f 112 114 115
v 2.702158 0.900000 1.826881
v 3.925031 0.900000 1.397408
v 3.925031 2.600000 1.397408
v 2.702158 2.600000 1.826881
f 116 117 118
f 116 118 119
v 2.702158 2.600000 1.826881
v 3.925031 2.600000 1.397408
v 3.925031 5.200000 1.397408
v 2.702158 5.200000 1.826881
f 120 121 122
f 120 122 123
v 2.702158 5.200000 1.826881
v 3.925031 5.200000 1.397408
v 3.925031 7.800000 1.397408
v 2.702158 7.800000 1.826881
f 124 125 126
f 124 126 127
v 3.925031 0.900000 1.397408
v 5.147904 0.900000 0.967935
v 5.147904 2.600000 0.967935
v 3.925031 2.600000 1.397408
f 128 129 130
f 128 130 131
v 3.925031 2.600000 1.397408
v 5.147904 2.600000 0.967935
v 5.147904 5.200000 0.967935
v 3.925031 5.200000 1.397408
f 132 133 134
f 132 134 135
v 3.925031 5.200000 1.397408
v 5.147904 5.200000 0.967935
v 5.147904 7.800000 0.967935
v 3.925031 7.800000 1.397408
f 136 137 138
f 136 138 139
v 4.164533 5.200000 0.123632
v 3.181161 5.200000 -0.720670
v 3.181161 7.800000 -0.720670
v 4.164533 7.800000 0.123632
f 140 141 142
f 140 142 143
v 3.181161 0.900000 -0.720670
v 2.197790 0.900000 -1.564973
v 2.197790 2.600000 -1.564973
v 3.181161 2.600000 -0.720670
f 144 145 146
f 144 146 147
v 3.181161 2.600000 -0.720670
v 2.197790 2.600000 -1.564973
v 2.197790 5.200000 -1.564973
v 3.181161 5.200000 -0.720670
f 148 149 150
f 148 150 151
v 3.181161 5.200000 -0.720670
v 2.197790 5.200000 -1.564973
v 2.197790 7.800000 -1.564973
v 3.181161 7.800000 -0.720670
f 152 153 154
f 152 154 155
v 2.197790 0.900000 -1.564973
v 1.214418 0.900000 -2.409275
v 1.214418 2.600000 -2.409275
v 2.197790 2.600000 -1.564973
f 156 157 158
f 156 158 159
v 2.197790 2.600000 -1.564973
v 1.214418 2.600000 -2.409275
v 1.214418 5.200000 -2.409275
v 2.197790 5.200000 -1.564973
f 160 161 162
f 160 162 163
v 1.214418 0.900000 -2.409275
v 0.231047 0.900000 -3.253578
v 0.231047 2.600000 -3.253578
v 1.214418 2.600000 -2.409275
f 164 165 166
f 164 166 167
v 1.214418 5.200000 -2.409275
v 0.231047 5.200000 -3.253578
v 0.231047 7.800000 -3.253578
v 1.214418 7.800000 -2.409275
f 168 169 170
f 168 170 171
v 0.231047 0.900000 -3.253578
v -0.752325 0.900000 -4.097880
v -0.752325 2.600000 -4.097880
v 0.231047 2.600000 -3.253578
f 172 173 174
f 172 174 175
v 0.231047 2.600000 -3.253578
v -0.752325 2.600000 -4.097880
v -0.752325 5.200000 -4.097880
v 0.231047 5.200000 -3.253578
f 176 177 178
f 176 178 179
v 0.231047 5.200000 -3.253578
v -0.752325 5.200000 -4.097880
v -0.752325 7.800000 -4.097880
v 0.231047 7.800000 -3.253578
f 180 181 182
f 180 182 183
v -0.752325 0.900000 -4.097880
v -1.735696 0.900000 -4.942183
v -1.735696 2.600000 -4.942183
v -0.752325 2.600000 -4.097880
f 184 185 186
f 184 186 187
v -0.752325 2.600000 -4.097880
v -1.735696 2.600000 -4.942183
v -1.735696 5.200000 -4.942183
v -0.752325 5.200000 -4.097880
f 188 189 190
f 188 190 191
v -0.752325 5.200000 -4.097880
v -1.735696 5.200000 -4.942183
v -1.735696 7.800000 -4.942183
v -0.752325 7.800000 -4.097880
f 192 193 194
f 192 194 195
v -1.975198 7.800000 -3.668407
v -2.214699 7.800000 -2.394631
v -2.059671 8.894765 -2.227007
v -1.836934 8.894765 -3.411619
f 196 197 198
f 196 198 199
v -2.693703 7.800000 0.152921
v -2.933205 7.800000 1.426697
v -2.727880 8.894765 1.326828
v -2.505144 8.894765 0.142216
f 200 201 202
f 200 202 203
v -2.933205 7.800000 1.426697
v -3.172706 7.800000 2.700472
v -2.950617 8.894765 2.511439
v -2.727880 8.894765 1.326828
f 204 205 206
f 204 206 207
v -2.189335 7.800000 3.544775
v -0.966462 7.800000 3.115302
v -0.898809 8.894765 2.897230
v -2.036081 8.894765 3.296641
f 208 209 210
f 208 210 211
v -0.966462 7.800000 3.115302
v 0.256411 7.800000 2.685828
v 0.238463 8.894765 2.497820
v -0.898809 8.894765 2.897230
f 212 213 214
f 212 214 215
v 0.256411 7.800000 2.685828
v 1.479285 7.800000 2.256355
v 1.375735 8.894765 2.098410
v 0.238463 8.894765 2.497820
f 216 217 218
f 216 218 219
v 1.479285 7.800000 2.256355
v 2.702158 7.800000 1.826881
v 2.513007 8.894765 1.699000
v 1.375735 8.894765 2.098410
f 220 221 222
f 220 222 223
v 2.702158 7.800000 1.826881
v 3.925031 7.800000 1.397408
v 3.650279 8.894765 1.299589
v 2.513007 8.894765 1.699000
f 224 225 226
f 224 226 227
v 4.164533 7.800000 0.123632
v 3.181161 7.800000 -0.720670
v 2.958480 8.894765 -0.670224
v 3.873015 8.894765 0.114978
f 228 229 230
f 228 230 231
v 3.181161 7.800000 -0.720670
v 2.197790 7.800000 -1.564973
v 2.043944 8.894765 -1.455425
v 2.958480 8.894765 -0.670224
f 232 233 234
f 232 234 235
v 2.197790 7.800000 -1.564973
v 1.214418 7.800000 -2.409275
v 1.129409 8.894765 -2.240626
v 2.043944 8.894765 -1.455425
f 236 237 238
f 236 238 239
v 0.231047 7.800000 -3.253578
v -0.752325 7.800000 -4.097880
v -0.699662 8.894765 -3.811029
v 0.214874 8.894765 -3.025827
f 240 241 242
f 240 242 243
v -1.836934 8.894765 -3.411619
v -2.059671 8.894765 -2.227007
v -1.727466 9.874292 -1.867812
v -1.540654 9.874292 -2.861357
f 244 245 246
f 244 246 247
v -2.505144 8.894765 0.142216
v -2.727880 8.894765 1.326828
v -2.287900 9.874292 1.112823
v -2.101088 9.874292 0.119278
f 248 249 250
f 248 250 251
v -2.950617 8.894765 2.511439
v -3.173353 8.894765 3.696051
v -2.661522 9.874292 3.099914
v -2.474711 9.874292 2.106369
f 252 253 254
f 252 254 255
v -0.898809 8.894765 2.897230
v 0.238463 8.894765 2.497820
v 0.200001 9.874292 2.094946
v -0.753840 9.874292 2.429935
f 256 257 258
f 256 258 259
v 0.238463 8.894765 2.497820
v 1.375735 8.894765 2.098410
v 1.153842 9.874292 1.759957
v 0.200001 9.874292 2.094946
f 260 261 262
f 260 262 263
v 1.375735 8.894765 2.098410
v 2.513007 8.894765 1.699000
v 2.107683 9.874292 1.424967
v 1.153842 9.874292 1.759957
f 264 265 266
f 264 266 267
v 2.513007 8.894765 1.699000
v 3.650279 8.894765 1.299589
v 3.061524 9.874292 1.089978
v 2.107683 9.874292 1.424967
f 268 269 270
f 268 270 271
v 3.873015 8.894765 0.114978
v 2.958480 8.894765 -0.670224
v 2.481306 9.874292 -0.562123
v 3.248335 9.874292 0.096433
f 272 273 274
f 272 274 275
v 2.958480 8.894765 -0.670224
v 2.043944 8.894765 -1.455425
v 1.714276 9.874292 -1.220679
v 2.481306 9.874292 -0.562123
f 276 277 278
f 276 278 279
v 2.043944 8.894765 -1.455425
v 1.129409 8.894765 -2.240626
v 0.947246 9.874292 -1.879235
v 1.714276 9.874292 -1.220679
f 280 281 282
f 280 282 283
v 1.129409 8.894765 -2.240626
v 0.214874 8.894765 -3.025827
v 0.180216 9.874292 -2.537791
v 0.947246 9.874292 -1.879235
f 284 285 286
f 284 286 287
v -0.699662 8.894765 -3.811029
v -1.614197 8.894765 -4.596230
v -1.353843 9.874292 -3.854903
v -0.586813 9.874292 -3.196347
f 288 289 290
f 288 290 291
v -1.540654 9.874292 -2.861357
v -1.727466 9.874292 -1.867812
v -1.284526 10.680961 -1.388886
v -1.145615 10.680961 -2.127676
f 292 293 294
f 292 294 295
v -1.727466 9.874292 -1.867812
v -1.914277 9.874292 -0.874267
v -1.423437 10.680961 -0.650096
v -1.284526 10.680961 -1.388886
f 296 297 298
f 296 298 299
v -1.914277 9.874292 -0.874267
v -2.101088 9.874292 0.119278
v -1.562348 10.680961 0.088694
v -1.423437 10.680961 -0.650096
f 300 301 302
f 300 302 303
v -2.287900 9.874292 1.112823
v -2.474711 9.874292 2.106369
v -1.840170 10.680961 1.566274
v -1.701259 10.680961 0.827484
f 304 305 306
f 304 306 307
v -2.474711 9.874292 2.106369
v -2.661522 9.874292 3.099914
v -1.979081 10.680961 2.305064
v -1.840170 10.680961 1.566274
f 308 309 310
f 308 310 311
v -2.661522 9.874292 3.099914
v -1.707681 9.874292 2.764924
v -1.269814 10.680961 2.055969
v -1.979081 10.680961 2.305064
f 312 313 314
f 312 314 315
v -1.707681 9.874292 2.764924
v -0.753840 9.874292 2.429935
v -0.560548 10.680961 1.806875
v -1.269814 10.680961 2.055969
f 316 317 318
f 316 318 319
v 0.200001 9.874292 2.094946
v 1.153842 9.874292 1.759957
v 0.857985 10.680961 1.308686
v 0.148719 10.680961 1.557780
f 320 321 322
f 320 322 323
v 1.153842 9.874292 1.759957
v 2.107683 9.874292 1.424967
v 1.567251 10.680961 1.059591
v 0.857985 10.680961 1.308686
f 324 325 326
f 324 326 327
v 3.061524 9.874292 1.089978
v 4.015365 9.874292 0.754989
v 2.985784 10.680961 0.561402
v 2.276518 10.680961 0.810497
f 328 329 330
f 328 330 331
v 3.248335 9.874292 0.096433
v 2.481306 9.874292 -0.562123
v 1.845073 10.680961 -0.417989
v 2.415429 10.680961 0.071707
f 332 333 334
f 332 334 335
v 1.714276 9.874292 -1.220679
v 0.947246 9.874292 -1.879235
v 0.704363 10.680961 -1.397380
v 1.274718 10.680961 -0.907684
f 336 337 338
f 336 338 339
v 0.947246 9.874292 -1.879235
v 0.180216 9.874292 -2.537791
v 0.134007 10.680961 -1.887075
v 0.704363 10.680961 -1.397380
f 340 341 342
f 340 342 343
v 0.180216 9.874292 -2.537791
v -0.586813 9.874292 -3.196347
v -0.436348 10.680961 -2.376771
v 0.134007 10.680961 -1.887075
f 344 345 346
f 344 346 347
v -0.586813 9.874292 -3.196347
v -1.353843 9.874292 -3.854903
v -1.006704 10.680961 -2.866466
v -0.436348 10.680961 -2.376771
f 348 349 350
f 348 350 351
v -1.006704 10.680961 -2.866466
v -1.145615 10.680961 -2.127676
v -1.145615 11.514773 -2.127676
v -1.006704 11.514773 -2.866466
f 352 353 354
f 352 354 355
v -1.145615 10.680961 -2.127676
v -1.284526 10.680961 -1.388886
v -1.284526 11.514773 -1.388886
v -1.145615 11.514773 -2.127676
f 356 357 358
f 356 358 359
v -1.284526 10.680961 -1.388886
v -1.423437 10.680961 -0.650096
v -1.423437 11.514773 -0.650096
v -1.284526 11.514773 -1.388886
f 360 361 362
f 360 362 363
v -1.423437 10.680961 -0.650096
v -1.562348 10.680961 0.088694
v -1.562348 11.514773 0.088694
v -1.423437 11.514773 -0.650096
f 364 365 366
f 364 366 367
v -1.840170 10.680961 1.566274
v -1.979081 10.680961 2.305064
v -1.979081 11.514773 2.305064
v -1.840170 11.514773 1.566274
f 368 369 370
f 368 370 371
v -1.269814 10.680961 2.055969
v -0.560548 10.680961 1.806875
v -0.560548 11.514773 1.806875
v -1.269814 11.514773 2.055969
f 372 373 374
f 372 374 375
v 1.567251 10.680961 1.059591
v 2.276518 10.680961 0.810497
v 2.276518 11.514773 0.810497
v 1.567251 11.514773 1.059591
f 376 377 378
f 376 378 379
v 2.276518 10.680961 0.810497
v 2.985784 10.680961 0.561402
v 2.985784 11.514773 0.561402
v 2.276518 11.514773 0.810497
f 380 381 382
f 380 382 383
v 2.415429 10.680961 0.071707
v 1.845073 10.680961 -0.417989
v 1.845073 11.514773 -0.417989
v 2.415429 11.514773 0.071707
f 384 385 386
f 384 386 387
v 1.845073 10.680961 -0.417989
v 1.274718 10.680961 -0.907684
v 1.274718 11.514773 -0.907684
v 1.845073 11.514773 -0.417989
f 388 389 390
f 388 390 391
v 0.704363 10.680961 -1.397380
v 0.134007 10.680961 -1.887075
v 0.134007 11.514773 -1.887075
v 0.704363 11.514773 -1.397380
f 392 393 394
f 392 394 395
v -0.436348 10.680961 -2.376771
v -1.006704 10.680961 -2.866466
v -1.006704 11.514773 -2.866466
v -0.436348 11.514773 -2.376771
f 396 397 398
f 396 398 399
v -1.006704 11.514773 -2.866466
v -1.145615 11.514773 -2.127676
v -0.869087 12.379061 -1.614099
v -0.763706 12.379061 -2.174560
f 400 401 402
f 400 402 403
v -1.423437 11.514773 -0.650096
v -1.562348 11.514773 0.088694
v -1.185229 12.379061 0.067285
v -1.079849 12.379061 -0.493176
f 404 405 406
f 404 406 407
v -1.701259 11.514773 0.827484
v -1.840170 11.514773 1.566274
v -1.395991 12.379061 1.188208
v -1.290610 12.379061 0.627746
f 408 409 410
f 408 410 411
v -1.979081 11.514773 2.305064
v -1.269814 11.514773 2.055969
v -0.963307 12.379061 1.559701
v -1.501371 12.379061 1.748669
f 412 413 414
f 412 414 415
v -1.269814 11.514773 2.055969
v -0.560548 11.514773 1.806875
v -0.425243 12.379061 1.370733
v -0.963307 12.379061 1.559701
f 416 417 418
f 416 418 419
v 0.148719 11.514773 1.557780
v 0.857985 11.514773 1.308686
v 0.650885 12.379061 0.992796
v 0.112821 12.379061 1.181764
f 420 421 422
f 420 422 423
v 0.857985 11.514773 1.308686
v 1.567251 11.514773 1.059591
v 1.188949 12.379061 0.803828
v 0.650885 12.379061 0.992796
f 424 425 426
f 424 426 427
v 1.567251 11.514773 1.059591
v 2.276518 11.514773 0.810497
v 1.727014 12.379061 0.614860
v 1.188949 12.379061 0.803828
f 428 429 430
f 428 430 431
v 2.985784 11.514773 0.561402
v 2.415429 11.514773 0.071707
v 1.832394 12.379061 0.054398
v 2.265078 12.379061 0.425891
f 432 433 434
f 432 434 435
v 1.274718 11.514773 -0.907684
v 0.704363 11.514773 -1.397380
v 0.534344 12.379061 -1.060081
v 0.967027 12.379061 -0.688588
f 436 437 438
f 436 438 439
v 0.704363 11.514773 -1.397380
v 0.134007 11.514773 -1.887075
v 0.101661 12.379061 -1.431574
v 0.534344 12.379061 -1.060081
f 440 441 442
f 440 442 443
v 0.134007 11.514773 -1.887075
v -0.436348 11.514773 -2.376771
v -0.331023 12.379061 -1.803067
v 0.101661 12.379061 -1.431574
f 444 445 446
f 444 446 447
v -0.436348 11.514773 -2.376771
v -1.006704 11.514773 -2.866466
v -0.763706 12.379061 -2.174560
v -0.331023 12.379061 -1.803067
f 448 449 450
f 448 450 451
v -0.869087 12.379061 -1.614099
v -0.974468 12.379061 -1.053638
v -0.487234 13.012873 -0.526819
v -0.434544 13.012873 -0.807050
f 452 453 454
f 452 454 455
v -1.185229 12.379061 0.067285
v -1.290610 12.379061 0.627746
v -0.645305 13.012873 0.313873
v -0.592615 13.012873 0.033643
f 456 457 458
f 456 458 459
v -1.290610 12.379061 0.627746
v -1.395991 12.379061 1.188208
v -0.697995 13.012873 0.594104
v -0.645305 13.012873 0.313873
f 460 461 462
f 460 462 463
v -1.395991 12.379061 1.188208
v -1.501371 12.379061 1.748669
v -0.750686 13.012873 0.874335
v -0.697995 13.012873 0.594104
f 464 465 466
f 464 466 467
v -1.501371 12.379061 1.748669
v -0.963307 12.379061 1.559701
v -0.481654 13.012873 0.779850
v -0.750686 13.012873 0.874335
f 468 469 470
f 468 470 471
v -0.963307 12.379061 1.559701
v -0.425243 12.379061 1.370733
v -0.212622 13.012873 0.685366
v -0.481654 13.012873 0.779850
f 472 473 474
f 472 474 475
v -0.425243 12.379061 1.370733
v 0.112821 12.379061 1.181764
v 0.056411 13.012873 0.590882
v -0.212622 13.012873 0.685366
f 476 477 478
f 476 478 479
v 0.112821 12.379061 1.181764
v 0.650885 12.379061 0.992796
v 0.325443 13.012873 0.496398
v 0.056411 13.012873 0.590882
f 480 481 482
f 480 482 483
v 0.650885 12.379061 0.992796
v 1.188949 12.379061 0.803828
v 0.594475 13.012873 0.401914
v 0.325443 13.012873 0.496398
f 484 485 486
f 484 486 487
v 1.188949 12.379061 0.803828
v 1.727014 12.379061 0.614860
v 0.863507 13.012873 0.307430
v 0.594475 13.012873 0.401914
f 488 489 490
f 488 490 491
v 1.727014 12.379061 0.614860
v 2.265078 12.379061 0.425891
v 1.132539 13.012873 0.212946
v 0.863507 13.012873 0.307430
f 492 493 494
f 492 494 495
v 2.265078 12.379061 0.425891
v 1.832394 12.379061 0.054398
v 0.916197 13.012873 0.027199
v 1.132539 13.012873 0.212946
f 496 497 498
f 496 498 499
v 1.832394 12.379061 0.054398
v 1.399711 12.379061 -0.317095
v 0.699855 13.012873 -0.158547
v 0.916197 13.012873 0.027199
f 500 501 502
f 500 502 503
v 1.399711 12.379061 -0.317095
v 0.967027 12.379061 -0.688588
v 0.483514 13.012873 -0.344294
v 0.699855 13.012873 -0.158547
f 504 505 506
f 504 506 507
v 0.101661 12.379061 -1.431574
v -0.331023 12.379061 -1.803067
v -0.165511 13.012873 -0.901534
v 0.050830 13.012873 -0.715787
f 508 509 510
f 508 510 511
v -0.331023 12.379061 -1.803067
v -0.763706 12.379061 -2.174560
v -0.381853 13.012873 -1.087280
v -0.165511 13.012873 -0.901534
f 512 513 514
f 512 514 515
v -0.434544 13.012873 -0.807050
v -0.487234 13.012873 -0.526819
v -0.000000 13.300969 -0.000000
v -0.000000 13.300969 -0.000000
f 516 517 518
v -0.539924 13.012873 -0.246588
v -0.592615 13.012873 0.033643
v -0.000000 13.300969 0.000000
v -0.000000 13.300969 -0.000000
f 520 521 522
v -0.592615 13.012873 0.033643
v -0.645305 13.012873 0.313873
v -0.000000 13.300969 0.000000
v -0.000000 13.300969 0.000000
f 524 525 526
v -0.645305 13.012873 0.313873
v -0.697995 13.012873 0.594104
v -0.000000 13.300969 0.000000
v -0.000000 13.300969 0.000000
f 528 529 530
v -0.697995 13.012873 0.594104
v -0.750686 13.012873 0.874335
v -0.000000 13.300969 0.000000
v -0.000000 13.300969 0.000000
f 532 533 534
v -0.750686 13.012873 0.874335
v -0.481654 13.012873 0.779850
v -0.000000 13.300969 0.000000
v -0.000000 13.300969 0.000000
f 536 537 538
v -0.212622 13.012873 0.685366
v 0.056411 13.012873 0.590882
v 0.000000 13.300969 0.000000
v -0.000000 13.300969 0.000000
f 540 541 542
v 0.056411 13.012873 0.590882
v 0.325443 13.012873 0.496398
v 0.000000 13.300969 0.000000
v 0.000000 13.300969 0.000000
f 544 545 546
v 0.863507 13.012873 0.307430
v 1.132539 13.012873 0.212946
v 0.000000 13.300969 0.000000
v 0.000000 13.300969 0.000000
f 548 549 550
v 0.916197 13.012873 0.027199
v 0.699855 13.012873 -0.158547
v 0.000000 13.300969 -0.000000
v 0.000000 13.300969 0.000000
f 552 553 554
v 0.699855 13.012873 -0.158547
v 0.483514 13.012873 -0.344294
v 0.000000 13.300969 -0.000000
v 0.000000 13.300969 -0.000000
f 556 557 558
v 0.267172 13.012873 -0.530041
v 0.050830 13.012873 -0.715787
v 0.000000 13.300969 -0.000000
v 0.000000 13.300969 -0.000000
f 560 561 562
v 0.050830 13.012873 -0.715787
v -0.165511 13.012873 -0.901534
v -0.000000 13.300969 -0.000000
v 0.000000 13.300969 -0.000000
f 564 565 566
v -0.165511 13.012873 -0.901534
v -0.381853 13.012873 -1.087280
v -0.000000 13.300969 -0.000000
v -0.000000 13.300969 -0.000000
f 568 569 570
