o mesh
v 3.182210 23.800000 -0.000000
v 2.939979 23.800000 -1.217779
v 2.250162 23.800000 -2.250162
v 1.217779 23.800000 -2.939979
v 0.000000 23.800000 -3.182210
v -1.217779 23.800000 -2.939979
v -2.250162 23.800000 -2.250162
v -2.939979 23.800000 -1.217779
v -3.182210 23.800000 -0.000000
v -2.939979 23.800000 1.217779
v -2.250162 23.800000 2.250162
v -1.217779 23.800000 2.939979
v -0.000000 23.800000 3.182210
v 1.217779 23.800000 2.939979
v 2.250162 23.800000 2.250162
v 2.939979 23.800000 1.217779
v 0.000000 27.197755 -0.000000
f 1 2 17
f 2 3 17
f 3 4 17
f 4 5 17
f 5 6 17
f 6 7 17
f 7 8 17
f 8 9 17
f 9 10 17
f 10 11 17
f 11 12 17
f 12 13 17
f 13 14 17
f 14 15 17
f 15 16 17
f 16 1 17
