o mesh
v -5.880545 0.130000 0.890931
v -5.590998 0.130000 0.890931
v -5.675804 0.130000 0.686190
v -5.880545 0.130000 0.601384
v -6.085287 0.130000 0.686190
v -6.170093 0.130000 0.890931
v -6.085287 0.130000 1.095673
v -5.880545 0.130000 1.180479
v -5.675804 0.130000 1.095673
f 1 2 3
f 1 3 4
f 1 4 5
f 1 5 6
f 1 6 7
f 1 7 8
f 1 8 9
f 1 9 2
v -3.957921 0.130000 -1.082130
v -3.542089 0.130000 -1.082130
v -3.663883 0.130000 -1.376168
v -3.957921 0.130000 -1.497962
v -4.251959 0.130000 -1.376168
v -4.373753 0.130000 -1.082130
v -4.251959 0.130000 -0.788092
v -3.957921 0.130000 -0.666298
v -3.663883 0.130000 -0.788092
f 10 11 12
f 10 12 13
f 10 13 14
f 10 14 15
f 10 15 16
f 10 16 17
f 10 17 18
f 10 18 11
v -2.512922 0.130000 4.165721
v -2.078814 0.130000 4.165721
v -2.205961 0.130000 3.858761
v -2.512922 0.130000 3.731614
v -2.819882 0.130000 3.858761
v -2.947029 0.130000 4.165721
v -2.819882 0.130000 4.472682
v -2.512922 0.130000 4.599829
v -2.205961 0.130000 4.472682
f 19 20 21
f 19 21 22
f 19 22 23
f 19 23 24
f 19 24 25
f 19 25 26
f 19 26 27
f 19 27 20
v -2.559668 0.130000 -2.322056
v -2.305946 0.130000 -2.322056
v -2.380259 0.130000 -2.501465
v -2.559668 0.130000 -2.575779
v -2.739077 0.130000 -2.501465
v -2.813391 0.130000 -2.322056
v -2.739077 0.130000 -2.142648
v -2.559668 0.130000 -2.068334
v -2.380259 0.130000 -2.142648
f 28 29 30
f 28 30 31
f 28 31 32
f 28 32 33
f 28 33 34
f 28 34 35
f 28 35 36
f 28 36 29
v -0.718702 0.130000 5.795549
v -0.419735 0.130000 5.795549
v -0.507300 0.130000 5.584147
v -0.718702 0.130000 5.496582
v -0.930104 0.130000 5.584147
v -1.017670 0.130000 5.795549
v -0.930104 0.130000 6.006951
v -0.718702 0.130000 6.094517
v -0.507300 0.130000 6.006951
f 37 38 39
f 37 39 40
f 37 40 41
f 37 41 42
f 37 42 43
f 37 43 44
f 37 44 45
f 37 45 38
v -0.814557 0.130000 2.464945
v -0.578288 0.130000 2.464945
v -0.647490 0.130000 2.297878
v -0.814557 0.130000 2.228676
v -0.981625 0.130000 2.297878
v -1.050826 0.130000 2.464945
v -0.981625 0.130000 2.632013
v -0.814557 0.130000 2.701214
v -0.647490 0.130000 2.632013
f 46 47 48
f 46 48 49
f 46 49 50
f 46 50 51
f 46 51 52
f 46 52 53
f 46 53 54
f 46 54 47
v 0.609552 0.130000 -2.565293
v 0.896323 0.130000 -2.565293
v 0.812330 0.130000 -2.768071
v 0.609552 0.130000 -2.852064
v 0.406774 0.130000 -2.768071
v 0.322781 0.130000 -2.565293
v 0.406774 0.130000 -2.362515
v 0.609552 0.130000 -2.278521
v 0.812330 0.130000 -2.362515
f 55 56 57
f 55 57 58
f 55 58 59
f 55 59 60
f 55 60 61
f 55 61 62
f 55 62 63
f 55 63 56
v 2.781920 0.130000 6.207874
v 3.112449 0.130000 6.207874
v 3.015639 0.130000 5.974155
v 2.781920 0.130000 5.877345
v 2.548200 0.130000 5.974155
v 2.451390 0.130000 6.207874
v 2.548200 0.130000 6.441594
v 2.781920 0.130000 6.538403
v 3.015639 0.130000 6.441594
f 64 65 66
f 64 66 67
f 64 67 68
f 64 68 69
f 64 69 70
f 64 70 71
f 64 71 72
f 64 72 65
v 2.797013 0.130000 2.820276
v 3.006859 0.130000 2.820276
v 2.945397 0.130000 2.671892
v 2.797013 0.130000 2.610429
v 2.648629 0.130000 2.671892
v 2.587166 0.130000 2.820276
v 2.648629 0.130000 2.968660
v 2.797013 0.130000 3.030123
v 2.945397 0.130000 2.968660
f 73 74 75
f 73 75 76
f 73 76 77
f 73 77 78
f 73 78 79
f 73 79 80
f 73 80 81
f 73 81 74
v 2.474093 0.130000 -0.965659
v 2.891300 0.130000 -0.965659
v 2.769103 0.130000 -1.260669
v 2.474093 0.130000 -1.382866
v 2.179083 0.130000 -1.260669
v 2.056886 0.130000 -0.965659
v 2.179083 0.130000 -0.670649
v 2.474093 0.130000 -0.548452
v 2.769103 0.130000 -0.670649
f 82 83 84
f 82 84 85
f 82 85 86
f 82 86 87
f 82 87 88
f 82 88 89
f 82 89 90
f 82 90 83
v 4.427022 0.130000 3.978421
v 4.711589 0.130000 3.978421
v 4.628241 0.130000 3.777202
v 4.427022 0.130000 3.693854
v 4.225803 0.130000 3.777202
v 4.142455 0.130000 3.978421
v 4.225803 0.130000 4.179640
v 4.427022 0.130000 4.262988
v 4.628241 0.130000 4.179640
f 91 92 93
f 91 93 94
f 91 94 95
f 91 95 96
f 91 96 97
f 91 97 98
f 91 98 99
f 91 99 92
v 6.138115 0.130000 2.268123
v 6.343486 0.130000 2.268123
v 6.283334 0.130000 2.122904
v 6.138115 0.130000 2.062753
v 5.992896 0.130000 2.122904
v 5.932745 0.130000 2.268123
v 5.992896 0.130000 2.413342
v 6.138115 0.130000 2.473493
v 6.283334 0.130000 2.413342
f 100 101 102
f 100 102 103
f 100 103 104
f 100 104 105
f 100 105 106
f 100 106 107
f 100 107 108
f 100 108 101
v 5.886804 0.130000 -4.056292
v 6.201943 0.130000 -4.056292
v 6.109641 0.130000 -4.279129
v 5.886804 0.130000 -4.371431
v 5.663967 0.130000 -4.279129
v 5.571665 0.130000 -4.056292
v 5.663967 0.130000 -3.833455
v 5.886804 0.130000 -3.741152
v 6.109641 0.130000 -3.833455
f 109 110 111
f 109 111 112
f 109 112 113
f 109 113 114
f 109 114 115
f 109 115 116
f 109 116 117
f 109 117 110
