o mesh
v -2.016638 3.089381 -0.000000
v -2.016638 3.089381 -1.178762
v -2.016638 2.600000 -1.178762
v -2.016638 2.600000 -0.000000
f 1 2 3
f 1 3 4
v -2.016638 2.500000 -0.589381
v -2.016638 2.725546 -0.044864
v -2.016638 2.916755 -0.172626
f 5 6 7
v -2.016638 2.500000 -0.589381
v -2.016638 3.044517 -0.363835
v -2.016638 3.089381 -0.589381
f 8 9 10
v -2.016638 2.500000 -0.589381
v -2.016638 2.916755 -1.006137
v -2.016638 2.725546 -1.133898
f 11 12 13
v -2.016638 2.500000 -0.589381
v -2.016638 2.725546 -1.133898
v -2.016638 2.500000 -1.178762
f 14 15 16
v -2.016638 0.900000 -1.178762
v -2.016638 0.900000 -2.357525
v -2.016638 2.600000 -2.357525
v -2.016638 2.600000 -1.178762
f 17 18 19
f 17 19 20
v 2.016638 0.900000 2.357525
v 2.016638 0.900000 1.178762
v 2.016638 2.600000 1.178762
v 2.016638 2.600000 2.357525
f 21 22 23
f 21 23 24
v 0.672213 0.900000 -2.357525
v -0.672213 0.900000 -2.357525
v -0.672213 2.600000 -2.357525
v 0.672213 2.600000 -2.357525
f 25 26 27
f 25 27 28
v 0.672213 0.900000 2.357525
v -0.672213 0.900000 2.357525
v -0.672213 2.600000 2.357525
v 0.672213 2.600000 2.357525
f 29 30 31
f 29 31 32
v -0.672213 0.900000 2.357525
v -2.016638 0.900000 2.357525
v -2.016638 2.600000 2.357525
v -0.672213 2.600000 2.357525
f 33 34 35
f 33 35 36
v 2.016638 2.600000 2.357525
v 2.016638 2.600000 1.178762
v 0.000000 3.890648 1.178762
v 0.000000 3.890648 2.357525
f 37 38 39
f 37 39 40
v 2.016638 2.600000 1.178762
v 2.016638 2.600000 -0.000000
v 0.000000 3.890648 -0.000000
v 0.000000 3.890648 1.178762
f 41 42 43
f 41 43 44
v -2.016638 2.600000 -1.178762
v -2.016638 2.600000 -2.357525
v 0.000000 3.890648 -2.357525
v 0.000000 3.890648 -1.178762
f 45 46 47
f 45 47 48
v 2.016638 2.600000 -1.178762
v 2.016638 2.600000 -2.357525
v 0.000000 3.890648 -2.357525
v 0.000000 3.890648 -1.178762
f 49 50 51
f 49 51 52
v -2.016638 2.600000 -2.357525
v 2.016638 2.600000 -2.357525
v 0.000000 3.890648 -2.357525
f 53 54 55
v -2.016638 2.600000 2.357525
v 2.016638 2.600000 2.357525
v 0.000000 3.890648 2.357525
f 56 57 58
