o part_0
v 0.000000 -0.035000 0.000000
v 0.016490 -0.022697 0.000000
v 0.028878 -0.009383 0.000000
v 0.028878 0.009383 0.000000
v 0.016490 0.022697 0.000000
v 0.000000 0.035000 0.000000
v -0.016490 0.022697 0.000000
v -0.028878 0.009383 0.000000
v -0.028878 -0.009383 0.000000
v -0.016490 -0.022697 0.000000
v 0.000000 -0.031500 0.600000
v 0.014841 -0.020427 0.600000
v 0.025990 -0.008445 0.600000
v 0.025990 0.008445 0.600000
v 0.014841 0.020427 0.600000
v 0.000000 0.031500 0.600000
v -0.014841 0.020427 0.600000
v -0.025990 0.008445 0.600000
v -0.025990 -0.008445 0.600000
v -0.014841 -0.020427 0.600000
f 1 2 12
f 1 12 11
f 2 3 13
f 2 13 12
f 3 4 14
f 3 14 13
f 4 5 15
f 4 15 14
f 5 6 16
f 5 16 15
f 6 7 17
f 6 17 16
f 7 8 18
f 7 18 17
f 8 9 19
f 8 19 18
f 9 10 20
f 9 20 19
f 10 1 11
f 10 11 20
o part_1
v 0.000000 -0.031492 0.600716
v 0.014776 -0.020390 0.601857
v 0.025876 -0.008387 0.602631
v 0.025876 0.008498 0.602247
v 0.014776 0.020454 0.600929
v 0.000000 0.031492 0.599284
v -0.014776 0.020390 0.598143
v -0.025876 0.008387 0.597369
v -0.025876 -0.008498 0.597753
v -0.014776 -0.020454 0.599071
v -0.043705 -0.017805 1.064000
v -0.030406 -0.007813 1.065027
v -0.020417 0.002990 1.065724
v -0.020417 0.018186 1.065378
v -0.030406 0.028947 1.064191
v -0.043705 0.038881 1.062711
v -0.057003 0.028890 1.061684
v -0.066993 0.018087 1.060987
v -0.066993 0.002890 1.061333
v -0.057003 -0.007870 1.062520
f 21 22 32
f 21 32 31
f 22 23 33
f 22 33 32
f 23 24 34
f 23 34 33
f 24 25 35
f 24 35 34
f 25 26 36
f 25 36 35
f 26 27 37
f 26 37 36
f 27 28 38
f 27 38 37
f 28 29 39
f 28 39 38
f 29 30 40
f 29 40 39
f 30 21 31
f 30 31 40
o part_2
v -0.043705 0.010538 1.063356
v -0.043872 0.005979 1.062315
v -0.042934 0.001250 1.061383
v -0.040799 -0.003662 1.060568
v -0.037576 -0.008741 1.059860
v -0.033516 -0.013947 1.059233
v -0.028972 -0.019228 1.058654
v -0.024361 -0.024519 1.058081
v -0.020118 -0.029754 1.057472
v -0.016657 -0.034869 1.056787
v -0.014330 -0.039810 1.055990
v -0.013391 -0.044539 1.055058
v -0.013974 -0.049035 1.053978
v -0.016078 -0.053298 1.052748
v -0.019570 -0.057349 1.051383
v -0.024195 -0.061226 1.049907
v -0.029603 -0.064983 1.048354
v -0.035380 -0.068684 1.046765
v -0.041089 -0.072396 1.045183
v -0.046314 -0.076181 1.043648
v -0.050702 -0.080095 1.042195
v -0.054002 -0.084175 1.040849
v -0.056104 -0.088438 1.039619
v -0.057102 -0.092870 1.038498
v -0.056935 -0.088311 1.039538
v -0.057872 -0.083582 1.040470
v -0.060007 -0.078670 1.041285
v -0.063230 -0.073592 1.041994
v -0.067290 -0.068385 1.042620
v -0.071834 -0.063104 1.043200
v -0.076446 -0.057813 1.043773
v -0.080689 -0.052579 1.044381
v -0.084149 -0.047464 1.045067
v -0.086476 -0.042522 1.045863
v -0.087415 -0.037793 1.046795
v -0.086833 -0.033297 1.047876
v -0.084729 -0.029034 1.049105
v -0.081237 -0.024984 1.050471
v -0.076611 -0.021106 1.051947
v -0.071203 -0.017349 1.053499
v -0.065427 -0.013648 1.055088
v -0.059718 -0.009937 1.056670
v -0.054493 -0.006151 1.058205
v -0.050105 -0.002238 1.059658
v -0.046805 0.001842 1.061005
v -0.044702 0.006106 1.062234
f 41 42 43
f 41 43 42
f 41 43 44
f 41 44 43
f 41 44 45
f 41 45 44
f 41 45 46
f 41 46 45
f 41 46 47
f 41 47 46
f 41 47 48
f 41 48 47
f 41 48 49
f 41 49 48
f 41 49 50
f 41 50 49
f 41 50 51
f 41 51 50
f 41 51 52
f 41 52 51
f 41 52 53
f 41 53 52
f 41 53 54
f 41 54 53
f 41 54 55
f 41 55 54
f 41 55 56
f 41 56 55
f 41 56 57
f 41 57 56
f 41 57 58
f 41 58 57
f 41 58 59
f 41 59 58
f 41 59 60
f 41 60 59
f 41 60 61
f 41 61 60
f 41 61 62
f 41 62 61
f 41 62 63
f 41 63 62
f 41 63 64
f 41 64 63
f 41 64 65
f 41 65 64
f 41 65 66
f 41 66 65
f 41 66 67
f 41 67 66
f 41 67 68
f 41 68 67
f 41 68 69
f 41 69 68
f 41 69 70
f 41 70 69
f 41 70 71
f 41 71 70
f 41 71 72
f 41 72 71
f 41 72 73
f 41 73 72
f 41 73 74
f 41 74 73
f 41 74 75
f 41 75 74
f 41 75 76
f 41 76 75
f 41 76 77
f 41 77 76
f 41 77 78
f 41 78 77
f 41 78 79
f 41 79 78
f 41 79 80
f 41 80 79
f 41 80 81
f 41 81 80
f 41 81 82
f 41 82 81
f 41 82 83
f 41 83 82
f 41 83 84
f 41 84 83
f 41 84 85
f 41 85 84
f 41 85 86
f 41 86 85
o part_3
v -0.043705 0.010538 1.063356
v -0.037647 0.011504 1.062722
v -0.031676 0.013042 1.062067
v -0.025880 0.015758 1.061369
v -0.020325 0.020089 1.060612
v -0.015033 0.026176 1.059790
v -0.009970 0.033797 1.058911
v -0.005052 0.042387 1.057997
v -0.000154 0.051117 1.057077
v 0.004865 0.059033 1.056188
v 0.010142 0.065216 1.055362
v 0.015786 0.068947 1.054627
v 0.021856 0.069831 1.053996
v 0.028351 0.067867 1.053471
v 0.035212 0.063450 1.053035
v 0.042332 0.057301 1.052664
v 0.049574 0.050338 1.052322
v 0.056794 0.043515 1.051976
v 0.063870 0.037660 1.051593
v 0.070717 0.033341 1.051155
v 0.077302 0.030776 1.050651
v 0.083645 0.029827 1.050088
v 0.089812 0.030056 1.049482
v 0.095894 0.030857 1.048854
v 0.089837 0.029891 1.049488
v 0.083865 0.028353 1.050142
v 0.078069 0.025637 1.050840
v 0.072515 0.021306 1.051598
v 0.067222 0.015219 1.052420
v 0.062159 0.007598 1.053299
v 0.057241 -0.000992 1.054213
v 0.052344 -0.009722 1.055132
v 0.047325 -0.017638 1.056022
v 0.042047 -0.023821 1.056848
v 0.036403 -0.027552 1.057583
v 0.030333 -0.028436 1.058214
v 0.023838 -0.026472 1.058739
v 0.016977 -0.022055 1.059174
v 0.009857 -0.015906 1.059546
v 0.002616 -0.008943 1.059887
v -0.004605 -0.002120 1.060234
v -0.011681 0.003735 1.060616
v -0.018528 0.008054 1.061055
v -0.025112 0.010619 1.061559
v -0.031456 0.011568 1.062122
v -0.037623 0.011339 1.062728
f 87 88 89
f 87 89 88
f 87 89 90
f 87 90 89
f 87 90 91
f 87 91 90
f 87 91 92
f 87 92 91
f 87 92 93
f 87 93 92
f 87 93 94
f 87 94 93
f 87 94 95
f 87 95 94
f 87 95 96
f 87 96 95
f 87 96 97
f 87 97 96
f 87 97 98
f 87 98 97
f 87 98 99
f 87 99 98
f 87 99 100
f 87 100 99
f 87 100 101
f 87 101 100
f 87 101 102
f 87 102 101
f 87 102 103
f 87 103 102
f 87 103 104
f 87 104 103
f 87 104 105
f 87 105 104
f 87 105 106
f 87 106 105
f 87 106 107
f 87 107 106
f 87 107 108
f 87 108 107
f 87 108 109
f 87 109 108
f 87 109 110
f 87 110 109
f 87 110 111
f 87 111 110
f 87 111 112
f 87 112 111
f 87 112 113
f 87 113 112
f 87 113 114
f 87 114 113
f 87 114 115
f 87 115 114
f 87 115 116
f 87 116 115
f 87 116 117
f 87 117 116
f 87 117 118
f 87 118 117
f 87 118 119
f 87 119 118
f 87 119 120
f 87 120 119
f 87 120 121
f 87 121 120
f 87 121 122
f 87 122 121
f 87 122 123
f 87 123 122
f 87 123 124
f 87 124 123
f 87 124 125
f 87 125 124
f 87 125 126
f 87 126 125
f 87 126 127
f 87 127 126
f 87 127 128
f 87 128 127
f 87 128 129
f 87 129 128
f 87 129 130
f 87 130 129
f 87 130 131
f 87 131 130
f 87 131 132
f 87 132 131
o part_4
v -0.043705 0.010538 1.063356
v -0.045071 0.014661 1.061847
v -0.047408 0.018514 1.060253
v -0.050885 0.022049 1.058559
v -0.055451 0.025280 1.056769
v -0.060896 0.028266 1.054902
v -0.066888 0.031100 1.052986
v -0.073014 0.033897 1.051059
v -0.078827 0.036781 1.049159
v -0.083898 0.039871 1.047325
v -0.087855 0.043272 1.045589
v -0.090426 0.047060 1.043974
v -0.091470 0.051272 1.042494
v -0.090986 0.055911 1.041148
v -0.089118 0.060936 1.039924
v -0.086135 0.066271 1.038799
v -0.082409 0.071813 1.037738
v -0.078371 0.077443 1.036705
v -0.074467 0.083034 1.035660
v -0.071110 0.088474 1.034568
v -0.068631 0.093669 1.033397
v -0.067242 0.098560 1.032131
v -0.066993 0.103133 1.030765
v -0.067714 0.107436 1.029313
v -0.066348 0.103313 1.030822
v -0.064011 0.099460 1.032416
v -0.060534 0.095925 1.034110
v -0.055968 0.092694 1.035900
v -0.050523 0.089708 1.037767
v -0.044531 0.086874 1.039683
v -0.038405 0.084077 1.041610
v -0.032592 0.081193 1.043510
v -0.027521 0.078103 1.045344
v -0.023564 0.074701 1.047080
v -0.020993 0.070914 1.048695
v -0.019949 0.066701 1.050175
v -0.020433 0.062063 1.051521
v -0.022301 0.057038 1.052744
v -0.025284 0.051703 1.053870
v -0.029010 0.046161 1.054931
v -0.033048 0.040531 1.055964
v -0.036952 0.034939 1.057008
v -0.040309 0.029500 1.058101
v -0.042788 0.024305 1.059271
v -0.044177 0.019414 1.060537
v -0.044426 0.014841 1.061904
f 133 134 135
f 133 135 134
f 133 135 136
f 133 136 135
f 133 136 137
f 133 137 136
f 133 137 138
f 133 138 137
f 133 138 139
f 133 139 138
f 133 139 140
f 133 140 139
f 133 140 141
f 133 141 140
f 133 141 142
f 133 142 141
f 133 142 143
f 133 143 142
f 133 143 144
f 133 144 143
f 133 144 145
f 133 145 144
f 133 145 146
f 133 146 145
f 133 146 147
f 133 147 146
f 133 147 148
f 133 148 147
f 133 148 149
f 133 149 148
f 133 149 150
f 133 150 149
f 133 150 151
f 133 151 150
f 133 151 152
f 133 152 151
f 133 152 153
f 133 153 152
f 133 153 154
f 133 154 153
f 133 154 155
f 133 155 154
f 133 155 156
f 133 156 155
f 133 156 157
f 133 157 156
f 133 157 158
f 133 158 157
f 133 158 159
f 133 159 158
f 133 159 160
f 133 160 159
f 133 160 161
f 133 161 160
f 133 161 162
f 133 162 161
f 133 162 163
f 133 163 162
f 133 163 164
f 133 164 163
f 133 164 165
f 133 165 164
f 133 165 166
f 133 166 165
f 133 166 167
f 133 167 166
f 133 167 168
f 133 168 167
f 133 168 169
f 133 169 168
f 133 169 170
f 133 170 169
f 133 170 171
f 133 171 170
f 133 171 172
f 133 172 171
f 133 172 173
f 133 173 172
f 133 173 174
f 133 174 173
f 133 174 175
f 133 175 174
f 133 175 176
f 133 176 175
f 133 176 177
f 133 177 176
f 133 177 178
f 133 178 177
o part_5
v -0.043705 0.010538 1.063356
v -0.049367 0.010924 1.061068
v -0.055144 0.010310 1.058791
v -0.061091 0.008230 1.056533
v -0.067224 0.004534 1.054293
v -0.073527 -0.000632 1.052071
v -0.079953 -0.006870 1.049861
v -0.086435 -0.013583 1.047658
v -0.092888 -0.020057 1.045451
v -0.099230 -0.025561 1.043233
v -0.105384 -0.029438 1.040995
v -0.111294 -0.031196 1.038733
v -0.116928 -0.030573 1.036442
v -0.122288 -0.027568 1.034123
v -0.127404 -0.022445 1.031779
v -0.132331 -0.015695 1.029415
v -0.137147 -0.007975 1.027040
v -0.141935 -0.000016 1.024662
v -0.146778 0.007469 1.022290
v -0.151744 0.013881 1.019931
v -0.156880 0.018823 1.017589
v -0.162203 0.022150 1.015266
v -0.167695 0.024010 1.012960
v -0.173302 0.024870 1.010667
v -0.167640 0.024484 1.012955
v -0.161863 0.025098 1.015231
v -0.155916 0.027179 1.017490
v -0.149783 0.030874 1.019729
v -0.143480 0.036041 1.021952
v -0.137054 0.042279 1.024161
v -0.130572 0.048991 1.026365
v -0.124119 0.055465 1.028571
v -0.117777 0.060969 1.030790
v -0.111623 0.064846 1.033027
v -0.105713 0.066605 1.035290
v -0.100078 0.065981 1.037580
v -0.094719 0.062977 1.039900
v -0.089603 0.057853 1.042244
v -0.084676 0.051104 1.044607
v -0.079860 0.043383 1.046982
v -0.075072 0.035424 1.049360
v -0.070229 0.027940 1.051732
v -0.065263 0.021527 1.054092
v -0.060126 0.016585 1.056434
v -0.054804 0.013258 1.058756
v -0.049312 0.011398 1.061062
f 179 180 181
f 179 181 180
f 179 181 182
f 179 182 181
f 179 182 183
f 179 183 182
f 179 183 184
f 179 184 183
f 179 184 185
f 179 185 184
f 179 185 186
f 179 186 185
f 179 186 187
f 179 187 186
f 179 187 188
f 179 188 187
f 179 188 189
f 179 189 188
f 179 189 190
f 179 190 189
f 179 190 191
f 179 191 190
f 179 191 192
f 179 192 191
f 179 192 193
f 179 193 192
f 179 193 194
f 179 194 193
f 179 194 195
f 179 195 194
f 179 195 196
f 179 196 195
f 179 196 197
f 179 197 196
f 179 197 198
f 179 198 197
f 179 198 199
f 179 199 198
f 179 199 200
f 179 200 199
f 179 200 201
f 179 201 200
f 179 201 202
f 179 202 201
f 179 202 203
f 179 203 202
f 179 203 204
f 179 204 203
f 179 204 205
f 179 205 204
f 179 205 206
f 179 206 205
f 179 206 207
f 179 207 206
f 179 207 208
f 179 208 207
f 179 208 209
f 179 209 208
f 179 209 210
f 179 210 209
f 179 210 211
f 179 211 210
f 179 211 212
f 179 212 211
f 179 212 213
f 179 213 212
f 179 213 214
f 179 214 213
f 179 214 215
f 179 215 214
f 179 215 216
f 179 216 215
f 179 216 217
f 179 217 216
f 179 217 218
f 179 218 217
f 179 218 219
f 179 219 218
f 179 219 220
f 179 220 219
f 179 220 221
f 179 221 220
f 179 221 222
f 179 222 221
f 179 222 223
f 179 223 222
f 179 223 224
f 179 224 223
o part_6
v -0.043705 -0.017786 1.064561
v -0.030559 -0.007729 1.066506
v -0.020685 0.003121 1.067827
v -0.020685 0.018308 1.067181
v -0.030559 0.029007 1.064943
v -0.043705 0.038862 1.062150
v -0.056850 0.028805 1.060205
v -0.066724 0.017955 1.058884
v -0.066724 0.002768 1.059530
v -0.056850 -0.007931 1.061768
v -0.114236 0.001676 1.455087
v -0.102405 0.010727 1.456838
v -0.093518 0.020493 1.458027
v -0.093518 0.034161 1.457445
v -0.102405 0.043790 1.455431
v -0.114236 0.052660 1.452917
v -0.126067 0.043608 1.451166
v -0.134954 0.033843 1.449978
v -0.134954 0.020175 1.450559
v -0.126067 0.010546 1.452574
f 225 226 236
f 225 236 235
f 226 227 237
f 226 237 236
f 227 228 238
f 227 238 237
f 228 229 239
f 228 239 238
f 229 230 240
f 229 240 239
f 230 231 241
f 230 241 240
f 231 232 242
f 231 242 241
f 232 233 243
f 232 243 242
f 233 234 244
f 233 244 243
f 234 225 235
f 234 235 244
o part_7
v -0.114236 0.027168 1.454002
v -0.115227 0.022424 1.451325
v -0.115224 0.017290 1.448845
v -0.113938 0.011654 1.446617
v -0.111350 0.005507 1.444646
v -0.107655 -0.001074 1.442893
v -0.103220 -0.007945 1.441287
v -0.098532 -0.014916 1.439730
v -0.094140 -0.021770 1.438115
v -0.090587 -0.028296 1.436334
v -0.088348 -0.034306 1.434294
v -0.087774 -0.039663 1.431926
v -0.089051 -0.044295 1.429193
v -0.092179 -0.048201 1.426095
v -0.096972 -0.051454 1.422668
v -0.103079 -0.054191 1.418982
v -0.110025 -0.056600 1.415131
v -0.117266 -0.058893 1.411221
v -0.124255 -0.061285 1.407361
v -0.130504 -0.063967 1.403647
v -0.135646 -0.067083 1.400151
v -0.139486 -0.070710 1.396913
v -0.142043 -0.074839 1.393927
v -0.143606 -0.079359 1.391137
v -0.142615 -0.074615 1.393814
v -0.142618 -0.069482 1.396295
v -0.143904 -0.063845 1.398522
v -0.146492 -0.057698 1.400493
v -0.150187 -0.051117 1.402246
v -0.154622 -0.044246 1.403853
v -0.159310 -0.037275 1.405410
v -0.163702 -0.030421 1.407025
v -0.167255 -0.023896 1.408805
v -0.169494 -0.017885 1.410845
v -0.170068 -0.012528 1.413213
v -0.168791 -0.007896 1.415946
v -0.165663 -0.003991 1.419045
v -0.160870 -0.000738 1.422472
v -0.154763 0.002000 1.426157
v -0.147817 0.004409 1.430009
v -0.140575 0.006702 1.433919
v -0.133586 0.009094 1.437779
v -0.127338 0.011776 1.441492
v -0.122196 0.014892 1.444988
v -0.118356 0.018519 1.448227
v -0.115799 0.022648 1.451213
f 245 246 247
f 245 247 246
f 245 247 248
f 245 248 247
f 245 248 249
f 245 249 248
f 245 249 250
f 245 250 249
f 245 250 251
f 245 251 250
f 245 251 252
f 245 252 251
f 245 252 253
f 245 253 252
f 245 253 254
f 245 254 253
f 245 254 255
f 245 255 254
f 245 255 256
f 245 256 255
f 245 256 257
f 245 257 256
f 245 257 258
f 245 258 257
f 245 258 259
f 245 259 258
f 245 259 260
f 245 260 259
f 245 260 261
f 245 261 260
f 245 261 262
f 245 262 261
f 245 262 263
f 245 263 262
f 245 263 264
f 245 264 263
f 245 264 265
f 245 265 264
f 245 265 266
f 245 266 265
f 245 266 267
f 245 267 266
f 245 267 268
f 245 268 267
f 245 268 269
f 245 269 268
f 245 269 270
f 245 270 269
f 245 270 271
f 245 271 270
f 245 271 272
f 245 272 271
f 245 272 273
f 245 273 272
f 245 273 274
f 245 274 273
f 245 274 275
f 245 275 274
f 245 275 276
f 245 276 275
f 245 276 277
f 245 277 276
f 245 277 278
f 245 278 277
f 245 278 279
f 245 279 278
f 245 279 280
f 245 280 279
f 245 280 281
f 245 281 280
f 245 281 282
f 245 282 281
f 245 282 283
f 245 283 282
f 245 283 284
f 245 284 283
f 245 284 285
f 245 285 284
f 245 285 286
f 245 286 285
f 245 286 287
f 245 287 286
f 245 287 288
f 245 288 287
f 245 288 289
f 245 289 288
f 245 289 290
f 245 290 289
o part_8
v -0.114236 0.027168 1.454002
v -0.108215 0.029423 1.453464
v -0.102555 0.032769 1.452814
v -0.097395 0.037624 1.452009
v -0.092764 0.044077 1.451041
v -0.088600 0.051940 1.449928
v -0.084763 0.060793 1.448714
v -0.081057 0.070040 1.447460
v -0.077253 0.078992 1.446236
v -0.073121 0.086952 1.445114
v -0.068457 0.093304 1.444156
v -0.063108 0.097589 1.443410
v -0.056993 0.099561 1.442900
v -0.050113 0.099221 1.442627
v -0.042548 0.096813 1.442566
v -0.034451 0.092798 1.442669
v -0.026026 0.087790 1.442874
v -0.017503 0.082487 1.443109
v -0.009110 0.077579 1.443303
v -0.001045 0.073660 1.443397
v 0.006553 0.071151 1.443346
v 0.013622 0.070241 1.443131
v 0.020191 0.070839 1.442762
v 0.026399 0.072528 1.442282
v 0.020378 0.070273 1.442820
v 0.014719 0.066927 1.443470
v 0.009559 0.062072 1.444275
v 0.004927 0.055619 1.445243
v 0.000763 0.047756 1.446356
v -0.003073 0.038903 1.447569
v -0.006779 0.029656 1.448824
v -0.010583 0.020704 1.450048
v -0.014715 0.012744 1.451170
v -0.019380 0.006392 1.452128
v -0.024729 0.002107 1.452874
v -0.030844 0.000135 1.453384
v -0.037724 0.000475 1.453657
v -0.045288 0.002883 1.453718
v -0.053385 0.006898 1.453615
v -0.061811 0.011906 1.453410
v -0.070334 0.017209 1.453175
v -0.078726 0.022117 1.452980
v -0.086791 0.026036 1.452887
v -0.094389 0.028545 1.452938
v -0.101458 0.029455 1.453153
v -0.108028 0.028857 1.453522
f 291 292 293
f 291 293 292
f 291 293 294
f 291 294 293
f 291 294 295
f 291 295 294
f 291 295 296
f 291 296 295
f 291 296 297
f 291 297 296
f 291 297 298
f 291 298 297
f 291 298 299
f 291 299 298
f 291 299 300
f 291 300 299
f 291 300 301
f 291 301 300
f 291 301 302
f 291 302 301
f 291 302 303
f 291 303 302
f 291 303 304
f 291 304 303
f 291 304 305
f 291 305 304
f 291 305 306
f 291 306 305
f 291 306 307
f 291 307 306
f 291 307 308
f 291 308 307
f 291 308 309
f 291 309 308
f 291 309 310
f 291 310 309
f 291 310 311
f 291 311 310
f 291 311 312
f 291 312 311
f 291 312 313
f 291 313 312
f 291 313 314
f 291 314 313
f 291 314 315
f 291 315 314
f 291 315 316
f 291 316 315
f 291 316 317
f 291 317 316
f 291 317 318
f 291 318 317
f 291 318 319
f 291 319 318
f 291 319 320
f 291 320 319
f 291 320 321
f 291 321 320
f 291 321 322
f 291 322 321
f 291 322 323
f 291 323 322
f 291 323 324
f 291 324 323
f 291 324 325
f 291 325 324
f 291 325 326
f 291 326 325
f 291 326 327
f 291 327 326
f 291 327 328
f 291 328 327
f 291 328 329
f 291 329 328
f 291 329 330
f 291 330 329
f 291 330 331
f 291 331 330
f 291 331 332
f 291 332 331
f 291 332 333
f 291 333 332
f 291 333 334
f 291 334 333
f 291 334 335
f 291 335 334
f 291 335 336
f 291 336 335
o part_9
v -0.114236 0.027168 1.454002
v -0.118068 0.032336 1.451477
v -0.122402 0.037108 1.448879
v -0.127773 0.041059 1.446127
v -0.134572 0.043883 1.443166
v -0.142924 0.045479 1.439977
v -0.152636 0.046000 1.436588
v -0.163210 0.045839 1.433073
v -0.173913 0.045577 1.429538
v -0.183899 0.045882 1.426109
v -0.192352 0.047398 1.422905
v -0.198635 0.050630 1.420020
v -0.202395 0.055855 1.417506
v -0.203633 0.063073 1.415362
v -0.202700 0.072007 1.413537
v -0.200235 0.082152 1.411937
v -0.197052 0.092865 1.410442
v -0.193998 0.103475 1.408929
v -0.191806 0.113405 1.407289
v -0.190974 0.122259 1.405449
v -0.191696 0.129885 1.403381
v -0.193845 0.136384 1.401103
v -0.197031 0.142062 1.398673
v -0.200719 0.147344 1.396169
v -0.196888 0.142175 1.398694
v -0.192554 0.137404 1.401293
v -0.187182 0.133452 1.404044
v -0.180384 0.130629 1.407005
v -0.172032 0.129033 1.410194
v -0.162319 0.128512 1.413583
v -0.151745 0.128672 1.417098
v -0.141042 0.128934 1.420633
v -0.131057 0.128629 1.424062
v -0.122603 0.127114 1.427266
v -0.116321 0.123882 1.430151
v -0.112561 0.118657 1.432665
v -0.111323 0.111439 1.434809
v -0.112256 0.102504 1.436634
v -0.114721 0.092359 1.438234
v -0.117904 0.081647 1.439729
v -0.120958 0.071036 1.441242
v -0.123150 0.061107 1.442882
v -0.123981 0.052253 1.444722
v -0.123260 0.044626 1.446790
v -0.121111 0.038128 1.449068
v -0.117924 0.032450 1.451498
f 337 338 339
f 337 339 338
f 337 339 340
f 337 340 339
f 337 340 341
f 337 341 340
f 337 341 342
f 337 342 341
f 337 342 343
f 337 343 342
f 337 343 344
f 337 344 343
f 337 344 345
f 337 345 344
f 337 345 346
f 337 346 345
f 337 346 347
f 337 347 346
f 337 347 348
f 337 348 347
f 337 348 349
f 337 349 348
f 337 349 350
f 337 350 349
f 337 350 351
f 337 351 350
f 337 351 352
f 337 352 351
f 337 352 353
f 337 353 352
f 337 353 354
f 337 354 353
f 337 354 355
f 337 355 354
f 337 355 356
f 337 356 355
f 337 356 357
f 337 357 356
f 337 357 358
f 337 358 357
f 337 358 359
f 337 359 358
f 337 359 360
f 337 360 359
f 337 360 361
f 337 361 360
f 337 361 362
f 337 362 361
f 337 362 363
f 337 363 362
f 337 363 364
f 337 364 363
f 337 364 365
f 337 365 364
f 337 365 366
f 337 366 365
f 337 366 367
f 337 367 366
f 337 367 368
f 337 368 367
f 337 368 369
f 337 369 368
f 337 369 370
f 337 370 369
f 337 370 371
f 337 371 370
f 337 371 372
f 337 372 371
f 337 372 373
f 337 373 372
f 337 373 374
f 337 374 373
f 337 374 375
f 337 375 374
f 337 375 376
f 337 376 375
f 337 376 377
f 337 377 376
f 337 377 378
f 337 378 377
f 337 378 379
f 337 379 378
f 337 379 380
f 337 380 379
f 337 380 381
f 337 381 380
f 337 381 382
f 337 382 381
