o mesh
v 0.009830 0.000000 -0.041912
v 0.007808 0.028612 -0.027588
v 0.001907 0.043005 0.000447
v -0.005272 0.028612 0.028183
v -0.009830 0.000000 0.041912
v -0.007808 -0.028612 0.027588
v -0.001907 -0.043005 -0.000447
v 0.005272 -0.028612 -0.028183
v 0.644528 -0.029849 0.122613
v 0.643223 -0.011375 0.131863
v 0.639412 -0.002082 0.149964
v 0.634777 -0.011375 0.167873
v 0.631834 -0.029849 0.176738
v 0.633139 -0.048324 0.167489
v 0.636950 -0.057617 0.149387
v 0.641585 -0.048324 0.131479
f 1 2 10
f 1 10 9
f 2 3 11
f 2 11 10
f 3 4 12
f 3 12 11
f 4 5 13
f 4 13 12
f 5 6 14
f 5 14 13
f 6 7 15
f 6 15 14
f 7 8 16
f 7 16 15
f 8 1 9
f 8 9 16
