o mesh
v 3.612012 2.600000 -0.438441
v 3.618012 2.609534 -0.474842
v 3.644729 2.590466 -0.455489
v 3.432153 2.215768 -0.568729
v 3.438154 2.225303 -0.605131
v 3.464871 2.206234 -0.585777
f 1 2 5
f 1 5 4
f 2 3 6
f 2 6 5
f 3 1 4
f 3 4 6
v 3.445059 2.209703 -0.607693
v 3.463831 2.221930 -0.576869
v 3.426287 2.215671 -0.575075
v 3.540646 1.679854 -0.455744
v 3.559419 1.692080 -0.424920
v 3.521874 1.685822 -0.423125
f 7 8 11
f 7 11 10
f 8 9 12
f 8 12 11
f 9 7 10
f 9 10 12
v 3.540646 1.682208 -0.456281
v 3.559037 1.692682 -0.424594
v 3.522256 1.682866 -0.422914
v 3.647538 1.293072 -0.389682
v 3.665929 1.303547 -0.357995
v 3.629148 1.293731 -0.356315
f 13 14 17
f 13 17 16
f 14 15 18
f 14 18 17
f 15 13 16
f 15 16 18
v 3.638441 1.296783 -0.375823
v 3.653773 1.306849 -0.366044
v 3.650401 1.286717 -0.362125
v 3.863119 1.208307 -0.637000
v 3.878451 1.218373 -0.627221
v 3.875079 1.198241 -0.623302
f 19 20 23
f 19 23 22
f 20 21 24
f 20 24 23
f 21 19 22
f 21 22 24
v 3.647538 1.288811 -0.388502
v 3.666223 1.297294 -0.356394
v 3.628854 1.304244 -0.359096
v 3.558565 0.873202 -0.226925
v 3.577249 0.881684 -0.194817
v 3.539880 0.888634 -0.197519
f 25 26 29
f 25 29 28
f 26 27 30
f 26 30 29
f 27 25 28
f 27 28 30
v 3.558565 0.880327 -0.228404
v 3.576899 0.876419 -0.195229
v 3.540230 0.886774 -0.195628
v 3.405731 0.339946 -0.207596
v 3.424066 0.336038 -0.174421
v 3.387397 0.346393 -0.174820
f 31 32 35
f 31 35 34
f 32 33 36
f 32 36 35
f 33 31 34
f 33 34 36
v -2.664439 2.605978 2.478621
v -2.646095 2.601966 2.511778
v -2.682782 2.592056 2.508980
v -2.533163 2.155903 2.351545
v -2.514819 2.151891 2.384702
v -2.551506 2.141981 2.381904
f 37 38 41
f 37 41 40
f 38 39 42
f 38 42 41
f 39 37 40
f 39 40 42
v -2.529551 2.149925 2.384160
v -2.538188 2.159754 2.368011
v -2.531749 2.140096 2.365979
v -2.983868 1.986299 2.527549
v -2.992505 1.996128 2.511400
v -2.986066 1.976470 2.509368
f 43 44 47
f 43 47 46
f 44 45 48
f 44 48 47
f 45 43 46
f 45 46 48
v -2.533163 2.147122 2.350896
v -2.515401 2.158163 2.382749
v -2.550925 2.144490 2.384505
v -2.357301 1.697660 2.408634
v -2.339539 1.708702 2.440487
v -2.375063 1.695028 2.442243
f 49 50 53
f 49 53 52
f 50 51 54
f 50 54 53
f 51 49 52
f 51 52 54
v -2.377813 1.700463 2.422502
v -2.340957 1.709370 2.418727
v -2.353133 1.691557 2.450135
v -2.301209 1.299682 2.224909
v -2.264352 1.308588 2.221133
v -2.276529 1.290776 2.252541
f 55 56 59
f 55 59 58
f 56 57 60
f 56 60 59
f 57 55 58
f 57 58 60
v -2.280697 1.302351 2.211024
v -2.262483 1.303896 2.244458
v -2.298911 1.292799 2.243102
v -2.124774 0.798021 2.149388
v -2.106560 0.799566 2.182822
v -2.142988 0.788469 2.181466
f 61 62 65
f 61 65 64
f 62 63 66
f 62 66 65
f 63 61 64
f 63 64 66
v 2.827436 6.995370 -0.376726
v 2.846408 6.986470 -0.344900
v 2.808463 6.983165 -0.346016
v 2.875111 6.503935 -0.542576
v 2.894084 6.495035 -0.510751
v 2.856139 6.491731 -0.511866
f 67 68 71
f 67 71 70
f 68 69 72
f 68 72 71
f 69 67 70
f 69 70 72
v 2.875111 6.499849 -0.543532
v 2.893579 6.490783 -0.511458
v 2.856644 6.500069 -0.510202
v 2.772638 6.099600 -0.597666
v 2.791106 6.090533 -0.565592
v 2.754171 6.099820 -0.564336
f 73 74 77
f 73 77 76
f 74 75 78
f 74 78 77
f 75 73 76
f 75 76 78
v 2.772638 6.090408 -0.596960
v 2.791682 6.100334 -0.565483
v 2.753595 6.099211 -0.565150
v 2.784320 5.726299 -0.489209
v 2.803364 5.736226 -0.457732
v 2.765276 5.735102 -0.457400
f 79 80 83
f 79 83 82
f 80 81 84
f 80 84 83
f 81 79 82
f 81 82 84
v 2.784320 5.727540 -0.489538
v 2.802164 5.741546 -0.458920
v 2.766476 5.728541 -0.455884
v 2.974786 5.231884 -0.373810
v 2.992630 5.245889 -0.343193
v 2.956941 5.232884 -0.340157
f 85 86 89
f 85 89 88
f 86 87 90
f 86 90 89
f 87 85 88
f 87 88 90
v 2.974786 5.243137 -0.373480
v 2.993769 5.232209 -0.342300
v 2.955802 5.235312 -0.341380
v 2.935864 4.805310 -0.503232
v 2.954848 4.794382 -0.472052
v 2.916881 4.797485 -0.471132
f 91 92 95
f 91 95 94
f 92 93 96
f 92 96 95
f 93 91 94
f 93 94 96
v 2.935864 4.794304 -0.503619
v 2.954431 4.797261 -0.470474
v 2.917298 4.805613 -0.472323
v 2.839343 4.385214 -0.413049
v 2.857910 4.388172 -0.379905
v 2.820777 4.396524 -0.381754
f 97 98 101
f 97 101 100
f 98 99 102
f 98 102 101
f 99 97 100
f 99 100 102
v 2.822568 4.389970 -0.405802
v 2.858314 4.399738 -0.396927
v 2.837148 4.380202 -0.371979
v 2.983886 3.972362 -0.595942
v 3.019633 3.982130 -0.587067
v 2.998467 3.962595 -0.562119
f 103 104 107
f 103 107 106
f 104 105 108
f 104 108 107
f 105 103 106
f 105 106 108
v 3.009818 3.972362 -0.589467
v 2.996349 3.982746 -0.577518
v 2.995819 3.961978 -0.578144
v 3.357514 3.951144 -0.179086
v 3.344045 3.961528 -0.167138
v 3.343515 3.940760 -0.167763
f 109 110 113
f 109 113 112
f 110 111 114
f 110 114 113
f 111 109 112
f 111 112 114
v 1.554088 5.204553 3.284987
v 1.573116 5.198660 3.317470
v 1.535059 5.196787 3.317074
v 1.579535 4.709439 3.180258
v 1.598564 4.703546 3.212741
v 1.560507 4.701674 3.212345
f 115 116 119
f 115 119 118
f 116 117 120
f 116 120 119
f 117 115 118
f 117 118 120
v 1.579535 4.695871 3.181713
v 1.598431 4.711621 3.210815
v 1.560640 4.707168 3.212816
v 1.630678 4.334730 3.343951
v 1.649573 4.350480 3.373053
v 1.611782 4.346027 3.375054
f 121 122 125
f 121 125 124
f 122 123 126
f 122 126 125
f 123 121 124
f 123 124 126
v 1.630678 4.350229 3.342996
v 1.649689 4.341704 3.374901
v 1.611666 4.339304 3.374161
v 1.655717 3.987873 3.231253
v 1.674728 3.979348 3.263158
v 1.636706 3.976949 3.262418
f 127 128 131
f 127 131 130
f 128 129 132
f 128 132 131
f 129 127 130
f 129 130 132
v 1.655717 3.973089 3.231902
v 1.674667 3.987362 3.261721
v 1.636766 3.983719 3.263205
v 1.710075 3.488018 3.429532
v 1.729026 3.502290 3.459351
v 1.691124 3.498648 3.460835
f 133 134 137
f 133 137 136
f 134 135 138
f 134 138 137
f 135 133 136
f 135 136 138
v 1.695036 3.496318 3.465963
v 1.706300 3.507432 3.431299
v 1.728889 3.485205 3.452457
v 1.515445 3.153690 3.297750
v 1.526710 3.164803 3.263086
v 1.549299 3.142576 3.284244
f 139 140 143
f 139 143 142
f 140 141 144
f 140 144 143
f 141 139 142
f 141 142 144
v 1.522470 3.153690 3.261205
v 1.549854 3.163223 3.285928
v 1.519130 3.144156 3.297946
v 1.685620 2.850568 3.197383
v 1.713004 2.860102 3.222106
v 1.682280 2.841034 3.234125
f 145 146 149
f 145 149 148
f 146 147 150
f 146 150 149
f 147 145 148
f 147 148 150
v 1.693635 2.843788 3.196942
v 1.712619 2.855498 3.227837
v 1.674651 2.852418 3.228835
v 1.724283 2.501908 3.307688
v 1.743267 2.513618 3.338583
v 1.705300 2.510537 3.339581
f 151 152 155
f 151 155 154
f 152 153 156
f 152 156 155
f 153 151 154
f 153 154 156
v 1.724283 2.499827 3.308481
v 1.743097 2.515872 3.337474
v 1.705470 2.510363 3.339898
v 1.797162 2.082805 3.491973
v 1.815975 2.098850 3.520966
v 1.778348 2.093341 3.523390
f 157 158 161
f 157 161 160
f 158 159 162
f 158 162 161
f 159 157 160
f 159 160 162
v 1.775779 2.091665 3.517285
v 1.803932 2.100891 3.493320
v 1.811774 2.082439 3.525724
v 1.736517 1.790086 3.355049
v 1.764670 1.799312 3.331085
v 1.772512 1.780859 3.363489
f 163 164 167
f 163 167 166
f 164 165 168
f 164 168 167
f 165 163 166
f 165 166 168
v 1.773614 1.790086 3.365271
v 1.738704 1.800110 3.353750
v 1.761381 1.780061 3.330603
v 1.633786 1.467170 3.507992
v 1.598875 1.477195 3.496470
v 1.621552 1.457145 3.473324
f 169 170 173
f 169 173 172
f 170 171 174
f 170 174 173
f 171 169 172
f 171 172 174
v 1.552068 6.987992 -2.626576
v 1.570631 6.992800 -2.593647
v 1.533506 6.984212 -2.593513
v 1.633409 6.636451 -2.621098
v 1.651971 6.641259 -2.588169
v 1.614846 6.632671 -2.588035
f 175 176 179
f 175 179 178
f 176 177 180
f 176 180 179
f 177 175 178
f 177 178 180
v 1.645217 6.636794 -2.601237
v 1.628283 6.646221 -2.593729
v 1.626726 6.627366 -2.602335
v 1.716554 6.450976 -2.207005
v 1.699620 6.460403 -2.199497
v 1.698063 6.441548 -2.208102
f 181 182 185
f 181 185 184
f 182 183 186
f 182 186 185
f 183 181 184
f 183 184 186
v 1.633409 6.634377 -2.620967
v 1.651825 6.633147 -2.587631
v 1.614993 6.642857 -2.588704
v 1.496900 6.122815 -2.564439
v 1.515315 6.121584 -2.531102
v 1.478484 6.131294 -2.532175
f 187 188 191
f 187 191 190
f 188 189 192
f 188 192 191
f 189 187 190
f 189 190 192
v 1.496900 6.128663 -2.564303
v 1.515449 6.127810 -2.531029
v 1.478350 6.119219 -2.532385
v 1.570670 5.817845 -2.613390
v 1.589220 5.816993 -2.580115
v 1.552121 5.808402 -2.581472
f 193 194 197
f 193 197 196
f 194 195 198
f 194 198 197
f 195 193 196
f 195 196 198
v 1.570670 5.811933 -2.613519
v 1.589652 5.817280 -2.580914
v 1.551688 5.814028 -2.580545
v 1.611653 5.339582 -2.559918
v 1.630635 5.344929 -2.527313
v 1.592671 5.341677 -2.526944
f 199 200 203
f 199 203 202
f 200 201 204
f 200 204 203
f 201 199 202
f 201 202 204
v 1.613269 5.342063 -2.549949
v 1.616099 5.351001 -2.531399
v 1.605592 5.333124 -2.532827
v 1.859976 5.194388 -2.516430
v 1.862806 5.203327 -2.497881
v 1.852299 5.185450 -2.499308
f 205 206 209
f 205 209 208
f 206 207 210
f 206 210 209
f 207 205 208
f 207 208 210
v 1.611653 5.336486 -2.559340
v 1.630704 5.345107 -2.527484
v 1.592602 5.344596 -2.527351
v 1.619299 4.802942 -2.419519
v 1.638349 4.811563 -2.387664
v 1.600248 4.811052 -2.387530
f 211 212 215
f 211 215 214
f 212 213 216
f 212 216 215
f 213 211 214
f 213 214 216
v 1.619299 4.807765 -2.420225
v 1.638082 4.812083 -2.387354
v 1.600515 4.805709 -2.387135
v 1.703020 4.314894 -2.403331
v 1.721804 4.319212 -2.370460
v 1.684237 4.312838 -2.370241
f 217 218 221
f 217 221 220
f 218 219 222
f 218 222 221
f 219 217 220
f 219 220 222
v 1.703020 4.323601 -2.401856
v 1.721528 4.315890 -2.369452
v 1.684513 4.307452 -2.372724
v 1.827485 3.848967 -2.585886
v 1.845993 3.841256 -2.553482
v 1.808978 3.832818 -2.556754
f 223 224 227
f 223 227 226
f 224 225 228
f 224 228 227
f 225 223 226
f 225 226 228
v -2.995764 6.992280 -0.488703
v -2.978254 6.993750 -0.454891
v -3.013274 6.978975 -0.457584
v -2.825252 6.601133 -0.559996
v -2.807742 6.602603 -0.526185
v -2.842763 6.587827 -0.528878
f 229 230 233
f 229 233 232
f 230 231 234
f 230 234 233
f 231 229 232
f 231 232 234
v -2.825252 6.590834 -0.559416
v -2.806659 6.604345 -0.529023
v -2.843846 6.596384 -0.526621
v -2.701840 6.062498 -0.400031
v -2.683247 6.076009 -0.369638
v -2.720433 6.068048 -0.367236
f 235 236 239
f 235 239 238
f 236 237 240
f 236 240 239
f 237 235 238
f 237 238 240
v -2.701840 6.070084 -0.400934
v -2.683709 6.074079 -0.367658
v -2.719971 6.062392 -0.368314
v -2.561026 5.634534 -0.425379
v -2.542895 5.638528 -0.392103
v -2.579158 5.626841 -0.392759
f 241 242 245
f 241 245 244
f 242 243 246
f 242 246 245
f 243 241 244
f 243 244 246
v -2.577173 5.633301 -0.388471
v -2.564290 5.642489 -0.423135
v -2.541616 5.624113 -0.398634
v -2.760856 5.141998 -0.586959
v -2.747972 5.151185 -0.621624
v -2.725299 5.132810 -0.597123
f 247 248 251
f 247 251 250
f 248 249 252
f 248 252 251
f 249 247 250
f 249 250 252
v -2.759636 5.141998 -0.618063
v -2.726315 5.153898 -0.603917
v -2.748176 5.130098 -0.583726
v -2.580732 4.837481 -0.783310
v -2.547411 4.849381 -0.769165
v -2.569272 4.825581 -0.748973
f 253 254 257
f 253 257 256
f 254 255 258
f 254 258 257
f 255 253 256
f 255 256 258
v -2.565805 4.832300 -0.788531
v -2.547816 4.833972 -0.754981
v -2.583794 4.846171 -0.757937
v -2.742895 4.338980 -0.668993
v -2.724905 4.340652 -0.635444
v -2.760884 4.352851 -0.638400
f 259 260 263
f 259 263 262
f 260 261 264
f 260 264 263
f 261 259 262
f 261 262 264
v -2.737956 4.344161 -0.669051
v -2.728795 4.352758 -0.633076
v -2.761933 4.335564 -0.640710
v -2.545134 3.952809 -0.624629
v -2.535974 3.961406 -0.588654
v -2.569112 3.944213 -0.596288
f 265 266 269
f 265 269 268
f 266 267 270
f 266 270 269
f 267 265 268
f 267 268 270
v -2.550073 3.957005 -0.624786
v -2.532238 3.957290 -0.591114
v -2.567908 3.944133 -0.593670
v -2.374751 3.498970 -0.713764
v -2.356916 3.499256 -0.680091
v -2.392586 3.486099 -0.682647
f 271 272 275
f 271 275 274
f 272 273 276
f 272 276 275
f 273 271 274
f 273 274 276
v -2.364558 3.494775 -0.698500
v -2.377860 3.504460 -0.685802
v -2.381835 3.485089 -0.692200
v -2.114582 3.310590 -0.296181
v -2.127884 3.320276 -0.283482
v -2.131859 3.300905 -0.289880
f 277 278 281
f 277 281 280
f 278 279 282
f 278 282 281
f 279 277 280
f 279 280 282
v -2.374751 3.487913 -0.713070
v -2.356071 3.494645 -0.680547
v -2.393431 3.501766 -0.682885
v -2.455589 3.105057 -0.587379
v -2.436909 3.111790 -0.554857
v -2.474270 3.118911 -0.557194
f 283 284 287
f 283 287 286
f 284 285 288
f 284 288 287
f 285 283 286
f 285 286 288
v 1.193720 6.988335 2.591033
v 1.212473 6.997916 2.559276
v 1.230372 6.978754 2.586925
v 1.094829 6.675531 2.438269
v 1.113582 6.685112 2.406511
v 1.131481 6.665951 2.434160
f 289 290 293
f 289 293 292
f 290 291 294
f 290 294 293
f 291 289 292
f 291 292 294
v 1.109750 6.675531 2.437777
v 1.111591 6.685264 2.419505
v 1.118551 6.665799 2.421658
v 0.811268 6.558587 2.345425
v 0.813108 6.568320 2.327152
v 0.820069 6.548854 2.329306
f 295 296 299
f 295 299 298
f 296 297 300
f 296 300 299
f 297 295 298
f 297 298 300
v 1.113297 6.670378 2.404925
v 1.132308 6.676877 2.437304
v 1.094287 6.679339 2.436711
v 1.078570 6.163621 2.527030
v 1.097580 6.170120 2.559408
v 1.059559 6.172583 2.558815
f 301 302 305
f 301 305 304
f 302 303 306
f 302 306 305
f 303 301 304
f 303 304 306
v 1.078570 6.161062 2.527814
v 1.097609 6.173285 2.558475
v 1.059530 6.171978 2.558964
v 1.096229 5.709630 2.696809
v 1.115269 5.721852 2.727470
v 1.077189 5.720546 2.727959
f 307 308 311
f 307 311 310
f 308 309 312
f 308 312 311
f 309 307 310
f 309 310 312
v 1.096229 5.715034 2.695534
v 1.115007 5.721705 2.728014
v 1.077452 5.715289 2.728691
v 1.170062 5.287624 2.740636
v 1.188839 5.294295 2.773115
v 1.151284 5.287879 2.773792
f 313 314 317
f 313 317 316
f 314 315 318
f 314 318 317
f 315 313 316
f 315 316 318
v 1.170062 5.291493 2.740570
v 1.188413 5.294261 2.773850
v 1.151710 5.284045 2.773124
v 1.277269 4.908266 2.713327
v 1.295620 4.911034 2.746607
v 1.258917 4.900818 2.745881
f 319 320 323
f 319 323 322
f 320 321 324
f 320 324 323
f 321 319 322
f 321 322 324
v 1.291033 4.906706 2.718109
v 1.283753 4.915037 2.754573
v 1.257020 4.898374 2.733133
v 1.490603 4.380593 2.878161
v 1.483324 4.388924 2.914624
v 1.456590 4.372261 2.893185
f 325 326 329
f 325 329 328
f 326 327 330
f 326 330 329
f 327 325 328
f 327 328 330
v 1.476839 4.388325 2.874727
v 1.495633 4.373798 2.904522
v 1.458045 4.379656 2.906721
v 1.402509 3.970240 2.717783
v 1.421303 3.955713 2.747579
v 1.383715 3.961571 2.749778
f 331 332 335
f 331 335 334
f 332 333 336
f 332 336 335
f 333 331 334
f 333 334 336
v 1.402509 3.963823 2.716419
v 1.421554 3.961307 2.749328
v 1.383464 3.962394 2.749393
v 1.389873 3.522730 2.689999
v 1.408918 3.520213 2.722907
v 1.370829 3.521300 2.722972
f 337 338 341
f 337 341 340
f 338 339 342
f 338 342 341
f 339 337 340
f 339 340 342
v 1.408496 3.521414 2.723674
v 1.372204 3.532211 2.719391
v 1.388921 3.510618 2.692814
v 1.286483 3.188212 2.917639
v 1.250191 3.199008 2.913356
v 1.266908 3.177416 2.886780
f 343 344 347
f 343 347 346
f 344 345 348
f 344 348 347
f 345 343 346
f 345 346 348
v -2.664439 2.607723 2.479193
v -2.646121 2.591231 2.508253
v -2.682756 2.601046 2.511933
v -2.814863 2.115479 2.294653
v -2.796546 2.098987 2.323713
v -2.833180 2.108803 2.327393
f 349 350 353
f 349 353 352
f 350 351 354
f 350 354 353
f 351 349 352
f 351 352 354
v -2.814863 2.115711 2.294742
v -2.796000 2.106276 2.326477
v -2.833726 2.101283 2.324541
v -2.749970 1.689511 2.129451
v -2.731106 1.680076 2.161187
v -2.768833 1.675083 2.159250
f 355 356 359
f 355 359 358
f 356 357 360
f 356 360 359
f 357 355 358
f 357 358 360
v -2.766126 1.681557 2.164895
v -2.752383 1.692694 2.131145
v -2.731400 1.670419 2.153849
v -2.925303 1.356058 1.992661
v -2.911560 1.367196 1.958911
v -2.890576 1.344921 1.981615
f 361 362 365
f 361 365 364
f 362 363 366
f 362 366 365
f 363 361 364
f 363 364 366
v -2.909146 1.349716 1.956663
v -2.891034 1.353569 1.989966
v -2.927259 1.364890 1.986558
v -3.043979 0.954167 2.075746
v -3.025866 0.958020 2.109049
v -3.062091 0.969341 2.105641
f 367 368 371
f 367 371 370
f 368 369 372
f 368 372 371
f 369 367 370
f 369 370 372
v -3.064942 0.960509 2.090139
v -3.028398 0.969478 2.084131
v -3.038595 0.951541 2.116166
v -3.007302 0.604325 1.909055
v -2.970758 0.613294 1.903047
v -2.980955 0.595357 1.935082
f 373 374 377
f 373 377 376
f 374 375 378
f 374 378 377
f 375 373 376
f 375 376 378
v -2.986339 0.607131 1.893908
v -2.967540 0.599849 1.926243
v -3.005137 0.605996 1.927033
v -3.053528 0.202806 1.841920
v -3.034729 0.195524 1.874255
v -3.072327 0.201670 1.875045
f 379 380 383
f 379 383 382
f 380 381 384
f 380 384 383
f 381 379 382
f 381 382 384
v -3.065056 0.200000 1.860406
v -3.046159 0.208637 1.859855
v -3.049371 0.191363 1.870960
v -2.967924 -0.033948 1.524610
v -2.949027 -0.025311 1.524059
v -2.952239 -0.042584 1.535164
f 385 386 389
f 385 389 388
f 386 387 390
f 386 390 389
f 387 385 388
f 387 388 390
v -2.664439 2.591460 2.479518
v -2.645446 2.602876 2.510518
v -2.683431 2.605665 2.509343
v -2.702190 2.154814 2.663446
v -2.683198 2.166229 2.694445
v -2.721183 2.169019 2.693271
f 391 392 395
f 391 395 394
f 392 393 396
f 392 396 395
f 393 391 394
f 393 394 396
v -2.690829 2.163354 2.687584
v -2.709024 2.173110 2.685179
v -2.706718 2.153598 2.678399
v -2.857837 1.972948 3.178727
v -2.876031 1.982704 3.176322
v -2.873726 1.963192 3.169542
f 397 398 401
f 397 401 400
f 398 399 402
f 398 402 401
f 399 397 400
f 399 400 402
v -2.702190 2.171208 2.663170
v -2.683250 2.157499 2.693259
v -2.721131 2.161355 2.694733
v -2.754248 1.725044 2.492651
v -2.735307 1.711334 2.522739
v -2.773188 1.715191 2.524213
f 403 404 407
f 403 407 406
f 404 405 408
f 404 408 407
f 405 403 406
f 405 406 408
v -2.754248 1.716525 2.491211
v -2.735761 1.712913 2.524335
v -2.772734 1.722130 2.524057
v -2.888540 1.178382 2.507463
v -2.870054 1.174769 2.540587
v -2.907026 1.183987 2.540309
f 409 410 413
f 409 413 412
f 410 411 414
f 410 414 413
f 411 409 412
f 411 412 414
v -2.888540 1.180478 2.507500
v -2.870153 1.173348 2.540105
v -2.906927 1.183312 2.540755
v -3.023034 0.686194 2.475257
v -3.004647 0.679064 2.507862
v -3.041421 0.689028 2.508512
f 415 416 419
f 415 419 418
f 416 417 420
f 416 420 419
f 417 415 418
f 417 418 420
v -3.023034 0.681690 2.475426
v -3.004875 0.692008 2.507298
v -3.041193 0.680587 2.508908
v -2.903400 0.308671 2.528020
v -2.885241 0.318989 2.559892
v -2.921559 0.307568 2.561502
f 421 422 425
f 421 425 424
f 422 423 426
f 422 426 425
f 423 421 424
f 423 424 426
v -2.891835 0.311742 2.553007
v -2.909804 0.321871 2.550446
v -2.908562 0.301614 2.545961
v -2.938380 0.271669 2.721106
v -2.956348 0.281797 2.718545
v -2.955106 0.261541 2.714060
f 427 428 431
f 427 431 430
f 428 429 432
f 428 432 431
f 429 427 430
f 429 430 432
v -2.923543 0.311742 2.540957
v -2.887280 0.323437 2.540457
v -2.899378 0.300048 2.567999
v -2.888601 0.200000 2.461409
v -2.852338 0.211695 2.460909
v -2.864436 0.188305 2.488451
f 433 434 437
f 433 437 436
f 434 435 438
f 434 438 437
f 435 433 436
f 435 436 438
v -2.664439 2.604237 2.478205
v -2.645447 2.596387 2.510294
v -2.683430 2.599376 2.510880
v -2.704859 2.109559 2.381110
v -2.685868 2.101708 2.413199
v -2.723851 2.104697 2.413785
f 439 440 443
f 439 443 442
f 440 441 444
f 440 444 443
f 441 439 442
f 441 442 444
v -2.704859 2.102424 2.380890
v -2.686855 2.100591 2.414423
v -2.722864 2.112948 2.412781
v -2.839950 1.715585 2.432278
v -2.821946 1.713752 2.465811
v -2.857954 1.726109 2.464169
f 445 446 449
f 445 449 448
f 446 447 450
f 446 450 449
f 447 445 448
f 447 448 450
v -2.839950 1.721567 2.432303
v -2.821352 1.712844 2.464397
v -2.858548 1.721035 2.465557
v -2.921615 1.357993 2.380805
v -2.903017 1.349269 2.412899
v -2.940213 1.357460 2.414059
f 451 452 455
f 451 455 454
f 452 453 456
f 452 456 455
f 453 451 454
f 453 454 456
v -2.935152 1.354907 2.419930
v -2.928104 1.363860 2.383568
v -2.901589 1.345955 2.404265
v -3.061369 1.054102 2.321407
v -3.054321 1.063054 2.285045
v -3.027806 1.045150 2.305742
f 457 458 461
f 457 461 460
f 458 459 462
f 458 462 461
f 459 457 460
f 459 460 462
v -3.047832 1.047079 2.283216
v -3.028790 1.056998 2.314697
v -3.066873 1.058229 2.314282
v -3.060173 0.704320 2.398673
v -3.041132 0.714239 2.430154
v -3.079215 0.715470 2.429739
f 463 464 467
f 463 467 466
f 464 465 468
f 464 468 467
f 465 463 466
f 465 466 468
v -3.060173 0.718639 2.398767
v -3.041664 0.711958 2.431398
v -3.078682 0.703431 2.428401
v -2.940060 0.254542 2.235623
v -2.921551 0.247861 2.268254
v -2.958569 0.239334 2.265256
f 469 470 473
f 469 473 472
f 470 471 474
f 470 474 473
f 471 469 472
f 471 472 474
v 1.544405 2.600000 3.286756
v 1.573574 2.609849 3.309209
v 1.544284 2.590151 3.323566
v 1.740997 2.237433 3.190392
v 1.770167 2.247282 3.212846
v 1.740877 2.227584 3.227203
f 475 476 479
f 475 479 478
f 476 477 480
f 476 480 479
f 477 475 478
f 477 478 480
v 1.750680 2.230400 3.189301
v 1.769077 2.236254 3.222154
v 1.732283 2.245645 3.218986
v 1.663008 1.921998 3.293346
v 1.681405 1.927852 3.326198
v 1.644611 1.937243 3.323030
f 481 482 485
f 481 485 484
f 482 483 486
f 482 486 485
f 483 481 484
f 483 484 486
v 1.663008 1.920531 3.293900
v 1.681962 1.931496 3.325085
v 1.644054 1.935066 3.323589
v 1.615611 1.492465 3.473223
v 1.634565 1.503430 3.504409
v 1.596658 1.507001 3.502913
f 487 488 491
f 487 491 490
f 488 489 492
f 488 492 491
f 489 487 490
f 489 490 492
v 1.604873 1.500965 3.488160
v 1.622086 1.511058 3.493975
v 1.619875 1.490873 3.498409
v 1.843334 1.369796 3.009951
v 1.860548 1.379889 3.015766
v 1.858337 1.359704 3.020200
f 493 494 497
f 493 497 496
f 494 495 498
f 494 498 497
f 495 493 496
f 495 496 498
v 1.615611 1.503006 3.471610
v 1.634236 1.495949 3.504095
v 1.596986 1.503941 3.504840
v 1.503697 0.985913 3.423431
v 1.522322 0.978855 3.455917
v 1.485072 0.986848 3.456661
f 499 500 503
f 499 503 502
f 500 501 504
f 500 504 503
f 501 499 502
f 501 502 504
v 1.503697 0.978542 3.423992
v 1.522356 0.990273 3.455076
v 1.485038 0.982802 3.456942
v 1.614676 0.456738 3.554292
v 1.633335 0.468468 3.585376
v 1.596016 0.460997 3.587241
f 505 506 509
f 505 509 508
f 506 507 510
f 506 510 509
f 507 505 508
f 507 508 510
v 0.535263 6.984321 -2.820655
v 0.553801 6.994667 -2.789012
v 0.516725 6.986016 -2.787406
v 0.661188 6.462613 -2.723854
v 0.679726 6.472958 -2.692210
v 0.642651 6.464307 -2.690605
f 511 512 515
f 511 515 514
f 512 513 516
f 512 516 515
f 513 511 514
f 513 514 516
v 0.661188 6.471806 -2.723605
v 0.679806 6.467970 -2.690579
v 0.642571 6.460102 -2.692486
v 0.754742 6.053608 -2.824918
v 0.773360 6.049772 -2.791893
v 0.736125 6.041904 -2.793799
f 517 518 521
f 517 521 520
f 518 519 522
f 518 522 521
f 519 517 520
f 519 520 522
v 0.749364 6.048428 -2.824869
v 0.773183 6.058384 -2.796842
v 0.741680 6.038472 -2.788900
v 0.935096 5.735911 -2.871696
v 0.958915 5.745868 -2.843668
v 0.927412 5.725955 -2.835726
f 523 524 527
f 523 527 526
f 524 525 528
f 524 528 527
f 525 523 526
f 525 526 528
v 0.940474 5.739254 -2.872108
v 0.959093 5.738237 -2.838877
v 0.921856 5.730244 -2.840105
v 1.052296 5.230280 -2.950339
v 1.070915 5.229262 -2.917108
v 1.033678 5.221270 -2.918336
f 529 530 533
f 529 533 532
f 530 531 534
f 530 534 533
f 531 529 532
f 531 532 534
v 1.052296 5.233358 -2.949636
v 1.071280 5.222178 -2.918546
v 1.033313 5.225276 -2.917601
v 1.007421 4.730189 -3.103171
v 1.026405 4.719009 -3.072080
v 0.988437 4.722107 -3.071135
f 535 536 539
f 535 539 538
f 536 537 540
f 536 540 539
f 537 535 538
f 537 538 540
v 1.015590 4.723768 -3.090919
v 1.005983 4.733512 -3.075274
v 1.000690 4.714025 -3.080193
v 1.407366 4.525426 -2.726823
v 1.397759 4.535170 -2.711178
v 1.392465 4.515682 -2.716097
f 541 542 545
f 541 545 544
f 542 543 546
f 542 546 545
f 543 541 544
f 543 544 546
v 1.007421 4.731008 -3.102903
v 1.026295 4.722609 -3.070884
v 0.988547 4.717688 -3.072599
v 1.075916 4.262460 -3.266189
v 1.094789 4.254061 -3.234169
v 1.057042 4.249140 -3.235884
f 547 548 551
f 547 551 550
f 548 549 552
f 548 552 551
f 549 547 550
f 549 550 552
v 1.075916 4.253184 -3.267320
v 1.094725 4.259261 -3.234742
v 1.057107 4.253216 -3.234180
v 1.147625 3.810814 -3.226194
v 1.166434 3.816891 -3.193617
v 1.128816 3.810846 -3.193055
f 553 554 557
f 553 557 556
f 554 555 558
f 554 558 557
f 555 553 556
f 555 556 558
v 1.147625 3.814959 -3.226188
v 1.165434 3.805057 -3.193988
v 1.129816 3.818534 -3.192691
v 1.031108 3.509844 -3.255569
v 1.048917 3.499942 -3.223370
v 1.013298 3.513419 -3.222072
f 559 560 563
f 559 563 562
f 560 561 564
f 560 564 563
f 561 559 562
f 561 562 564
v 1.024646 3.507735 -3.243782
v 1.037639 3.517361 -3.230724
v 1.031038 3.498109 -3.226505
v 1.373876 3.339086 -3.466937
v 1.386869 3.348712 -3.453879
v 1.380267 3.329460 -3.449660
f 565 566 569
f 565 569 568
f 566 567 570
f 566 570 569
f 567 565 568
f 567 568 570
v 1.009475 3.507735 -3.229667
v 1.038970 3.517717 -3.251630
v 1.044877 3.497753 -3.219715
v 0.975400 3.203343 -3.413772
v 1.004895 3.213325 -3.435735
v 1.010802 3.193361 -3.403821
f 571 572 575
f 571 575 574
f 572 573 576
f 572 576 575
f 573 571 574
f 573 574 576
v 1.001849 3.203343 -3.406785
v 0.994035 3.213715 -3.423013
v 0.995213 3.192971 -3.423529
v 0.557121 3.173256 -3.211878
v 0.549307 3.183629 -3.228106
v 0.550484 3.162884 -3.228622
f 577 578 581
f 577 581 580
f 578 579 582
f 578 582 581
f 579 577 580
f 579 580 582
v 0.997032 3.207351 -3.439408
v 1.015936 3.199002 -3.407393
v 0.978129 3.203676 -3.406527
v 0.930033 2.683385 -3.536485
v 0.948937 2.675036 -3.504470
v 0.911129 2.679710 -3.503604
f 583 584 587
f 583 587 586
f 584 585 588
f 584 588 587
f 585 583 586
f 585 586 588
v -3.190109 5.200000 -1.780780
v -3.191414 5.208877 -1.743746
v -3.220881 5.191123 -1.760133
v -3.033871 4.860479 -1.693893
v -3.035177 4.869355 -1.656859
v -3.064643 4.851602 -1.673246
f 589 590 593
f 589 593 592
f 590 591 594
f 590 594 593
f 591 589 592
f 591 592 594
v -3.044564 4.851699 -1.694838
v -3.025599 4.866545 -1.665310
v -3.063528 4.863192 -1.663850
v -3.001527 4.442456 -1.516717
v -2.982563 4.457302 -1.487189
v -3.020492 4.453949 -1.485729
f 595 596 599
f 595 599 598
f 596 597 600
f 596 600 599
f 597 595 598
f 597 598 600
v -2.994263 4.451236 -1.486993
v -3.011379 4.458087 -1.496590
v -2.998940 4.444385 -1.506051
v -3.183638 4.179858 -1.342965
v -3.200755 4.186709 -1.352562
v -3.188315 4.173007 -1.362022
f 601 602 605
f 601 605 604
f 602 603 606
f 602 606 605
f 603 601 604
f 603 604 606
v -3.001527 4.451228 -1.518545
v -2.982475 4.451167 -1.485545
v -3.020580 4.451313 -1.485545
v -3.002732 4.136516 -1.518436
v -2.983680 4.136454 -1.485436
v -3.021785 4.136600 -1.485436
f 607 608 611
f 607 611 610
f 608 609 612
f 608 612 611
f 609 607 610
f 609 610 612
v -3.007364 4.136523 -1.485366
v -3.000793 4.146908 -1.502128
v -3.000040 4.126139 -1.501813
v -3.121527 4.131660 -1.533128
v -3.114956 4.142044 -1.549891
v -3.114203 4.121275 -1.549576
f 613 614 617
f 613 617 616
f 614 615 618
f 614 618 617
f 615 613 616
f 615 616 618
v -3.002732 4.138528 -1.518344
v -2.985146 4.142819 -1.484814
v -3.020319 4.128224 -1.486149
v -2.817234 3.695199 -1.558908
v -2.799647 3.699490 -1.525377
v -2.834821 3.684894 -1.526713
f 619 620 623
f 619 623 622
f 620 621 624
f 620 624 623
f 621 619 622
f 621 622 624
v -2.805891 3.693194 -1.533085
v -2.824972 3.701433 -1.532969
v -2.820840 3.684955 -1.544944
v -2.859961 3.565757 -1.376380
v -2.879042 3.573996 -1.376263
v -2.874910 3.557518 -1.388238
f 625 626 629
f 625 629 628
f 626 627 630
f 626 630 629
f 627 625 628
f 627 628 630
v -2.817234 3.697976 -1.558473
v -2.798557 3.687129 -1.527080
v -2.835911 3.694477 -1.525444
v -2.891799 3.336826 -1.638896
v -2.873122 3.325980 -1.607503
v -2.910476 3.333327 -1.605867
f 631 632 635
f 631 635 634
f 632 633 636
f 632 636 635
f 633 631 634
f 633 634 636
v -2.880046 3.332044 -1.619842
v -2.896908 3.341714 -1.612482
v -2.898444 3.322375 -1.619941
v -2.778919 3.134595 -1.128795
v -2.795781 3.144265 -1.121434
v -2.797317 3.124926 -1.128894
f 637 638 641
f 637 641 640
f 638 639 642
f 638 642 641
f 639 637 640
f 639 640 642
v -2.891799 3.338122 -1.638566
v -2.873551 3.323742 -1.608363
v -2.910048 3.334269 -1.605337
v -3.031106 2.891999 -1.766796
v -3.012858 2.877619 -1.736593
v -3.049355 2.888146 -1.733567
f 643 644 647
f 643 647 646
f 644 645 648
f 644 648 647
f 645 643 646
f 645 646 648
v -3.031106 2.891441 -1.766948
v -3.012330 2.880032 -1.735815
v -3.049882 2.886292 -1.734192
v -3.085238 2.587167 -1.845811
v -3.066461 2.575758 -1.814678
v -3.104014 2.582018 -1.813055
f 649 650 653
f 649 653 652
f 650 651 654
f 650 654 653
f 651 649 652
f 651 652 654
v -3.094064 2.581648 -1.832645
v -3.079976 2.591964 -1.821371
v -3.081673 2.571331 -1.819529
v -2.758138 2.521451 -2.197361
v -2.744050 2.531767 -2.186088
v -2.745747 2.511134 -2.184245
f 655 656 659
f 655 659 658
f 656 657 660
f 656 660 659
f 657 655 658
f 657 658 660
v -3.068525 2.581648 -1.810208
v -3.104630 2.590309 -1.818776
v -3.082559 2.572986 -1.844560
v -3.193486 2.205157 -1.664226
v -3.229591 2.213819 -1.672794
v -3.207520 2.196496 -1.698578
f 661 662 665
f 661 665 664
f 662 663 666
f 662 666 665
f 663 661 664
f 663 664 666
v -3.211618 2.205157 -1.690449
v -3.208058 2.215449 -1.672745
v -3.210920 2.194865 -1.672405
v -3.030679 2.179650 -1.712003
v -3.027119 2.189942 -1.694300
v -3.029981 2.169358 -1.693959
f 667 668 671
f 667 671 670
f 668 669 672
f 668 672 671
f 669 667 670
f 669 670 672
v -3.210199 2.209539 -1.700092
v -3.191334 2.200354 -1.668284
v -3.229064 2.205579 -1.667222
v -3.269645 1.797265 -1.783882
v -3.250780 1.788080 -1.752075
v -3.288510 1.793305 -1.751013
f 673 674 677
f 673 677 676
f 674 675 678
f 674 678 677
f 675 673 676
f 675 676 678
v -3.276658 1.792884 -1.772060
v -3.263052 1.802555 -1.759677
v -3.269224 1.783212 -1.755232
v -2.934397 1.627025 -2.018580
v -2.920791 1.636697 -2.006197
v -2.926963 1.617354 -2.001752
f 679 680 683
f 679 683 682
f 680 681 684
f 680 684 683
f 681 679 682
f 681 682 684
v -2.096432 6.988335 1.937434
v -2.059536 6.996735 1.941917
v -2.078819 6.979935 1.970164
v -2.003933 6.654368 1.801945
v -1.967037 6.662768 1.806428
v -1.986321 6.645968 1.834675
f 685 686 689
f 685 689 688
f 686 687 690
f 686 690 689
f 687 685 688
f 687 688 690
v -1.985764 6.646891 1.793659
v -1.967429 6.662978 1.822934
v -2.004099 6.653236 1.826455
v -1.852689 6.203838 1.953767
v -1.834354 6.219925 1.983042
v -1.871024 6.210183 1.986563
f 691 692 695
f 691 695 694
f 692 693 696
f 692 696 695
f 693 691 694
f 693 694 696
v -1.834126 6.211315 1.962650
v -1.853831 6.222847 1.993158
v -1.870110 6.199784 1.967563
v -1.708461 5.903345 2.160220
v -1.728166 5.914876 2.190728
v -1.744445 5.891814 2.165134
f 697 698 701
f 697 701 700
f 698 699 702
f 698 702 701
f 699 697 700
f 699 700 702
v -1.746754 5.903345 2.181760
v -1.724014 5.914430 2.153264
v -1.710304 5.892259 2.181058
v -1.844862 5.593358 1.982882
v -1.822122 5.604443 1.954386
v -1.808411 5.582273 1.982180
f 703 704 707
f 703 707 706
f 704 705 708
f 704 708 707
f 705 703 706
f 705 706 708
v -1.825132 5.595151 1.951223
v -1.806187 5.590440 1.983948
v -1.844076 5.594483 1.984278
v -1.873882 5.141261 1.914111
v -1.854938 5.136551 1.946836
v -1.892827 5.140593 1.947166
f 709 710 713
f 709 713 712
f 710 711 714
f 710 714 713
f 711 709 712
f 711 712 714
v -1.865561 5.139469 1.915672
v -1.862280 5.148016 1.952661
v -1.893805 5.130921 1.939780
v -1.669062 4.716604 1.995963
v -1.665781 4.725151 2.032952
v -1.697306 4.708056 2.020070
f 715 716 719
f 715 719 718
f 716 717 720
f 716 720 719
f 717 715 718
f 717 718 720
v -1.677383 4.717246 1.994338
v -1.658563 4.713313 2.027237
v -1.696202 4.719253 2.027410
v -1.764246 4.167261 1.978284
v -1.745426 4.163328 2.011183
v -1.783065 4.169268 2.011356
f 721 722 725
f 721 725 724
f 722 723 726
f 722 726 725
f 723 721 724
f 723 724 726
v -1.745313 4.166619 1.989068
v -1.765256 4.175970 2.020162
v -1.782167 4.157267 1.991592
v -1.628699 3.760212 2.186086
v -1.648642 3.769563 2.217180
v -1.665552 3.750860 2.188610
f 727 728 731
f 727 731 730
f 728 729 732
f 728 732 731
f 729 727 730
f 729 730 732
v -1.647631 3.760400 2.175293
v -1.628835 3.757003 2.208265
v -1.666427 3.763232 2.208319
v -1.732551 3.247933 2.170899
v -1.713755 3.244536 2.203871
v -1.751348 3.250765 2.203924
f 733 734 737
f 733 737 736
f 734 735 738
f 734 738 737
f 735 733 736
f 735 736 738
