o mesh
v 0.000000 0.000106 0.010999 0.200 0.440 0.170
v 0.009526 0.000131 0.005499 0.200 0.440 0.170
v 0.009526 0.000024 -0.005500 0.200 0.440 0.170
v 0.000000 -0.000106 -0.010999 0.200 0.440 0.170
v -0.009526 -0.000131 -0.005499 0.200 0.440 0.170
v -0.009526 -0.000024 0.005500 0.200 0.440 0.170
v -0.003602 0.443701 0.003707 0.200 0.440 0.170
v 0.003326 0.443719 -0.000293 0.200 0.440 0.170
v 0.003326 0.443642 -0.008293 0.200 0.440 0.170
v -0.003602 0.443547 -0.012292 0.200 0.440 0.170
v -0.010530 0.443529 -0.008291 0.200 0.440 0.170
v -0.010530 0.443607 -0.000292 0.200 0.440 0.170
f 1 2 8
f 1 8 7
f 2 3 9
f 2 9 8
f 3 4 10
f 3 10 9
f 4 5 11
f 4 11 10
f 5 6 12
f 5 12 11
f 6 1 7
f 6 7 12
v -0.003602 0.455624 0.077924 0.927 0.934 0.866
v 0.003249 0.454843 0.074019 0.927 0.934 0.866
v 0.009301 0.453934 0.068883 0.927 0.934 0.866
v 0.014649 0.453156 0.063823 0.927 0.934 0.866
v 0.019487 0.452553 0.059145 0.927 0.934 0.866
v 0.024007 0.452124 0.054915 0.927 0.934 0.866
v 0.028382 0.451860 0.051107 0.927 0.934 0.866
v 0.032770 0.451753 0.047653 0.927 0.934 0.866
v 0.037312 0.451798 0.044467 0.927 0.934 0.866
v 0.042138 0.451999 0.041448 0.927 0.934 0.866
v 0.047368 0.452361 0.038477 0.927 0.934 0.866
v 0.053096 0.452894 0.035408 0.927 0.934 0.866
v 0.059362 0.453603 0.032060 0.927 0.934 0.866
v 0.066057 0.454471 0.028190 0.927 0.934 0.866
v 0.072594 0.455378 0.023441 0.927 0.934 0.866
v 0.073968 0.455209 0.016493 0.927 0.934 0.866
v 0.071236 0.454288 0.008904 0.927 0.934 0.866
v 0.068070 0.453447 0.001978 0.927 0.934 0.866
v 0.065011 0.452773 -0.004292 0.927 0.934 0.866
v 0.062247 0.452275 -0.010053 0.927 0.934 0.866
v 0.059835 0.451946 -0.015478 0.927 0.934 0.866
v 0.057773 0.451777 -0.020738 0.927 0.934 0.866
v 0.056031 0.451762 -0.025997 0.927 0.934 0.866
v 0.054561 0.451900 -0.031414 0.927 0.934 0.866
v 0.053294 0.452196 -0.037141 0.927 0.934 0.866
v 0.052137 0.452659 -0.043321 0.927 0.934 0.866
v 0.050953 0.453298 -0.050069 0.927 0.934 0.866
v 0.049529 0.454108 -0.057423 0.927 0.934 0.866
v 0.047482 0.455029 -0.065172 0.927 0.934 0.866
v 0.043298 0.455526 -0.071272 0.927 0.934 0.866
v 0.035266 0.454657 -0.071613 0.927 0.934 0.866
v 0.027457 0.453766 -0.070898 0.927 0.934 0.866
v 0.020288 0.453021 -0.069930 0.927 0.934 0.866
v 0.013740 0.452453 -0.069015 0.927 0.934 0.866
v 0.007683 0.452058 -0.068296 0.927 0.934 0.866
v 0.001958 0.451826 -0.067844 0.927 0.934 0.866
v -0.003602 0.451750 -0.067690 0.927 0.934 0.866
v -0.009162 0.451826 -0.067844 0.927 0.934 0.866
v -0.014888 0.452058 -0.068296 0.927 0.934 0.866
v -0.020945 0.452453 -0.069015 0.927 0.934 0.866
v -0.027493 0.453021 -0.069930 0.927 0.934 0.866
v -0.034661 0.453766 -0.070898 0.927 0.934 0.866
v -0.042470 0.454657 -0.071613 0.927 0.934 0.866
v -0.050502 0.455526 -0.071272 0.927 0.934 0.866
v -0.054687 0.455029 -0.065172 0.927 0.934 0.866
v -0.056733 0.454108 -0.057423 0.927 0.934 0.866
v -0.058157 0.453298 -0.050069 0.927 0.934 0.866
v -0.059341 0.452659 -0.043321 0.927 0.934 0.866
v -0.060498 0.452196 -0.037141 0.927 0.934 0.866
v -0.061765 0.451900 -0.031414 0.927 0.934 0.866
v -0.063236 0.451762 -0.025997 0.927 0.934 0.866
v -0.064977 0.451777 -0.020738 0.927 0.934 0.866
v -0.067039 0.451946 -0.015478 0.927 0.934 0.866
v -0.069452 0.452275 -0.010053 0.927 0.934 0.866
v -0.072216 0.452773 -0.004292 0.927 0.934 0.866
v -0.075275 0.453447 0.001978 0.927 0.934 0.866
v -0.078440 0.454288 0.008904 0.927 0.934 0.866
v -0.081173 0.455209 0.016493 0.927 0.934 0.866
v -0.079799 0.455378 0.023441 0.927 0.934 0.866
v -0.073261 0.454471 0.028190 0.927 0.934 0.866
v -0.066567 0.453603 0.032060 0.927 0.934 0.866
v -0.060301 0.452894 0.035408 0.927 0.934 0.866
v -0.054572 0.452361 0.038477 0.927 0.934 0.866
v -0.049343 0.451999 0.041448 0.927 0.934 0.866
v -0.044516 0.451798 0.044467 0.927 0.934 0.866
v -0.039975 0.451753 0.047653 0.927 0.934 0.866
v -0.035587 0.451860 0.051107 0.927 0.934 0.866
v -0.031211 0.452124 0.054915 0.927 0.934 0.866
v -0.026692 0.452553 0.059145 0.927 0.934 0.866
v -0.021854 0.453156 0.063823 0.927 0.934 0.866
v -0.016505 0.453934 0.068883 0.927 0.934 0.866
v -0.010454 0.454843 0.074019 0.927 0.934 0.866
v -0.003602 0.443624 -0.004292 0.927 0.934 0.866
f 85 13 14
f 85 14 13
f 85 14 15
f 85 15 14
f 85 15 16
f 85 16 15
f 85 16 17
f 85 17 16
f 85 17 18
f 85 18 17
f 85 18 19
f 85 19 18
f 85 19 20
f 85 20 19
f 85 20 21
f 85 21 20
f 85 21 22
f 85 22 21
f 85 22 23
f 85 23 22
f 85 23 24
f 85 24 23
f 85 24 25
f 85 25 24
f 85 25 26
f 85 26 25
f 85 26 27
f 85 27 26
f 85 27 28
f 85 28 27
f 85 28 29
f 85 29 28
f 85 29 30
f 85 30 29
f 85 30 31
f 85 31 30
f 85 31 32
f 85 32 31
f 85 32 33
f 85 33 32
f 85 33 34
f 85 34 33
f 85 34 35
f 85 35 34
f 85 35 36
f 85 36 35
f 85 36 37
f 85 37 36
f 85 37 38
f 85 38 37
f 85 38 39
f 85 39 38
f 85 39 40
f 85 40 39
f 85 40 41
f 85 41 40
f 85 41 42
f 85 42 41
f 85 42 43
f 85 43 42
f 85 43 44
f 85 44 43
f 85 44 45
f 85 45 44
f 85 45 46
f 85 46 45
f 85 46 47
f 85 47 46
f 85 47 48
f 85 48 47
f 85 48 49
f 85 49 48
f 85 49 50
f 85 50 49
f 85 50 51
f 85 51 50
f 85 51 52
f 85 52 51
f 85 52 53
f 85 53 52
f 85 53 54
f 85 54 53
f 85 54 55
f 85 55 54
f 85 55 56
f 85 56 55
f 85 56 57
f 85 57 56
f 85 57 58
f 85 58 57
f 85 58 59
f 85 59 58
f 85 59 60
f 85 60 59
f 85 60 61
f 85 61 60
f 85 61 62
f 85 62 61
f 85 62 63
f 85 63 62
f 85 63 64
f 85 64 63
f 85 64 65
f 85 65 64
f 85 65 66
f 85 66 65
f 85 66 67
f 85 67 66
f 85 67 68
f 85 68 67
f 85 68 69
f 85 69 68
f 85 69 70
f 85 70 69
f 85 70 71
f 85 71 70
f 85 71 72
f 85 72 71
f 85 72 73
f 85 73 72
f 85 73 74
f 85 74 73
f 85 74 75
f 85 75 74
f 85 75 76
f 85 76 75
f 85 76 77
f 85 77 76
f 85 77 78
f 85 78 77
f 85 78 79
f 85 79 78
f 85 79 80
f 85 80 79
f 85 80 81
f 85 81 80
f 85 81 82
f 85 82 81
f 85 82 83
f 85 83 82
f 85 83 84
f 85 84 83
f 85 84 13
f 85 13 84
v 0.038770 0.470024 0.046014 0.936 0.942 0.882
v 0.040950 0.468307 0.040094 0.936 0.942 0.882
v 0.042005 0.466306 0.033832 0.936 0.942 0.882
v 0.042670 0.464595 0.027979 0.936 0.942 0.882
v 0.043220 0.463267 0.022624 0.936 0.942 0.882
v 0.043805 0.462323 0.017706 0.936 0.942 0.882
v 0.044519 0.461743 0.013121 0.936 0.942 0.882
v 0.045424 0.461507 0.008746 0.936 0.942 0.882
v 0.046562 0.461608 0.004456 0.936 0.942 0.882
v 0.047959 0.462048 0.000122 0.936 0.942 0.882
v 0.049627 0.462844 -0.004392 0.936 0.942 0.882
v 0.051551 0.464017 -0.009221 0.936 0.942 0.882
v 0.053659 0.465578 -0.014499 0.936 0.942 0.882
v 0.055761 0.467487 -0.020317 0.936 0.942 0.882
v 0.057314 0.469482 -0.026593 0.936 0.942 0.882
v 0.054573 0.469110 -0.031552 0.936 0.942 0.882
v 0.048990 0.467084 -0.034787 0.936 0.942 0.882
v 0.043484 0.465235 -0.037394 0.936 0.942 0.882
v 0.038381 0.463751 -0.039654 0.936 0.942 0.882
v 0.033720 0.462656 -0.041754 0.936 0.942 0.882
v 0.029448 0.461933 -0.043830 0.936 0.942 0.882
v 0.025476 0.461561 -0.045986 0.936 0.942 0.882
v 0.021700 0.461527 -0.048306 0.936 0.942 0.882
v 0.018008 0.461831 -0.050863 0.936 0.942 0.882
v 0.014282 0.462482 -0.053714 0.936 0.942 0.882
v 0.010389 0.463501 -0.056899 0.936 0.942 0.882
v 0.006186 0.464908 -0.060418 0.936 0.942 0.882
v 0.001525 0.466690 -0.064184 0.936 0.942 0.882
v -0.003721 0.468714 -0.067871 0.936 0.942 0.882
v -0.009425 0.469808 -0.069446 0.936 0.942 0.882
v -0.014516 0.467896 -0.065516 0.936 0.942 0.882
v -0.018925 0.465935 -0.061054 0.936 0.942 0.882
v -0.022813 0.464298 -0.056767 0.936 0.942 0.882
v -0.026347 0.463048 -0.052832 0.936 0.942 0.882
v -0.029683 0.462179 -0.049271 0.936 0.942 0.882
v -0.032953 0.461668 -0.046043 0.936 0.942 0.882
v -0.036276 0.461500 -0.043083 0.936 0.942 0.882
v -0.039757 0.461668 -0.040312 0.936 0.942 0.882
v -0.043494 0.462179 -0.037638 0.936 0.942 0.882
v -0.047570 0.463048 -0.034957 0.936 0.942 0.882
v -0.052048 0.464298 -0.032142 0.936 0.942 0.882
v -0.056933 0.465935 -0.029040 0.936 0.942 0.882
v -0.062080 0.467896 -0.025453 0.936 0.942 0.882
v -0.066819 0.469808 -0.021104 0.936 0.942 0.882
v -0.066235 0.468714 -0.015215 0.936 0.942 0.882
v -0.063494 0.466690 -0.009419 0.936 0.942 0.882
v -0.060576 0.464908 -0.004186 0.936 0.942 0.882
v -0.057822 0.463501 0.000554 0.936 0.942 0.882
v -0.055345 0.462482 0.004931 0.936 0.942 0.882
v -0.053169 0.461831 0.009088 0.936 0.942 0.882
v -0.051277 0.461527 0.013161 0.936 0.942 0.882
v -0.049631 0.461561 0.017276 0.936 0.942 0.882
v -0.048182 0.461933 0.021557 0.936 0.942 0.882
v -0.046863 0.462656 0.026120 0.936 0.942 0.882
v -0.045585 0.463751 0.031070 0.936 0.942 0.882
v -0.044225 0.465235 0.036483 0.936 0.942 0.882
v -0.042593 0.467084 0.042352 0.936 0.942 0.882
v -0.040354 0.469110 0.048404 0.936 0.942 0.882
v -0.035932 0.469482 0.051947 0.936 0.942 0.882
v -0.029484 0.467487 0.051483 0.936 0.942 0.882
v -0.023393 0.465578 0.050401 0.936 0.942 0.882
v -0.017834 0.464017 0.049220 0.936 0.942 0.882
v -0.012747 0.462844 0.048146 0.936 0.942 0.882
v -0.008016 0.462048 0.047269 0.936 0.942 0.882
v -0.003507 0.461608 0.046629 0.936 0.942 0.882
v 0.000914 0.461507 0.046237 0.936 0.942 0.882
v 0.005378 0.461743 0.046089 0.936 0.942 0.882
v 0.010019 0.462323 0.046164 0.936 0.942 0.882
v 0.014964 0.463267 0.046423 0.936 0.942 0.882
v 0.020335 0.464595 0.046792 0.936 0.942 0.882
v 0.026215 0.466306 0.047131 0.936 0.942 0.882
v 0.032565 0.468307 0.047156 0.936 0.942 0.882
v -0.003602 0.443624 -0.004292 0.936 0.942 0.882
f 158 86 87
f 158 87 86
f 158 87 88
f 158 88 87
f 158 88 89
f 158 89 88
f 158 89 90
f 158 90 89
f 158 90 91
f 158 91 90
f 158 91 92
f 158 92 91
f 158 92 93
f 158 93 92
f 158 93 94
f 158 94 93
f 158 94 95
f 158 95 94
f 158 95 96
f 158 96 95
f 158 96 97
f 158 97 96
f 158 97 98
f 158 98 97
f 158 98 99
f 158 99 98
f 158 99 100
f 158 100 99
f 158 100 101
f 158 101 100
f 158 101 102
f 158 102 101
f 158 102 103
f 158 103 102
f 158 103 104
f 158 104 103
f 158 104 105
f 158 105 104
f 158 105 106
f 158 106 105
f 158 106 107
f 158 107 106
f 158 107 108
f 158 108 107
f 158 108 109
f 158 109 108
f 158 109 110
f 158 110 109
f 158 110 111
f 158 111 110
f 158 111 112
f 158 112 111
f 158 112 113
f 158 113 112
f 158 113 114
f 158 114 113
f 158 114 115
f 158 115 114
f 158 115 116
f 158 116 115
f 158 116 117
f 158 117 116
f 158 117 118
f 158 118 117
f 158 118 119
f 158 119 118
f 158 119 120
f 158 120 119
f 158 120 121
f 158 121 120
f 158 121 122
f 158 122 121
f 158 122 123
f 158 123 122
f 158 123 124
f 158 124 123
f 158 124 125
f 158 125 124
f 158 125 126
f 158 126 125
f 158 126 127
f 158 127 126
f 158 127 128
f 158 128 127
f 158 128 129
f 158 129 128
f 158 129 130
f 158 130 129
f 158 130 131
f 158 131 130
f 158 131 132
f 158 132 131
f 158 132 133
f 158 133 132
f 158 133 134
f 158 134 133
f 158 134 135
f 158 135 134
f 158 135 136
f 158 136 135
f 158 136 137
f 158 137 136
f 158 137 138
f 158 138 137
f 158 138 139
f 158 139 138
f 158 139 140
f 158 140 139
f 158 140 141
f 158 141 140
f 158 141 142
f 158 142 141
f 158 142 143
f 158 143 142
f 158 143 144
f 158 144 143
f 158 144 145
f 158 145 144
f 158 145 146
f 158 146 145
f 158 146 147
f 158 147 146
f 158 147 148
f 158 148 147
f 158 148 149
f 158 149 148
f 158 149 150
f 158 150 149
f 158 150 151
f 158 151 150
f 158 151 152
f 158 152 151
f 158 152 153
f 158 153 152
f 158 153 154
f 158 154 153
f 158 154 155
f 158 155 154
f 158 155 156
f 158 156 155
f 158 156 157
f 158 157 156
f 158 157 86
f 158 86 157
v 0.048251 0.484424 0.004651 0.945 0.950 0.898
v 0.046533 0.481770 -0.000095 0.945 0.950 0.898
v 0.043952 0.478678 -0.004470 0.945 0.950 0.898
v 0.041343 0.476034 -0.008394 0.945 0.950 0.898
v 0.038919 0.473981 -0.011954 0.945 0.950 0.898
v 0.036742 0.472523 -0.015264 0.945 0.950 0.898
v 0.034816 0.471625 -0.018438 0.945 0.950 0.898
v 0.033115 0.471261 -0.021581 0.945 0.950 0.898
v 0.031600 0.471417 -0.024792 0.945 0.950 0.898
v 0.030221 0.472098 -0.028165 0.945 0.950 0.898
v 0.028916 0.473328 -0.031786 0.945 0.950 0.898
v 0.027604 0.475140 -0.035733 0.945 0.950 0.898
v 0.026174 0.477553 -0.040049 0.945 0.950 0.898
v 0.024462 0.480503 -0.044692 0.945 0.950 0.898
v 0.022177 0.483586 -0.049332 0.945 0.950 0.898
v 0.017945 0.483011 -0.050954 0.945 0.950 0.898
v 0.012861 0.479880 -0.050056 0.945 0.950 0.898
v 0.008149 0.477023 -0.048813 0.945 0.950 0.898
v 0.003862 0.474730 -0.047566 0.945 0.950 0.898
v -0.000073 0.473037 -0.046449 0.945 0.950 0.898
v -0.003756 0.471919 -0.045518 0.945 0.950 0.898
v -0.007298 0.471344 -0.044790 0.945 0.950 0.898
v -0.010804 0.471292 -0.044263 0.945 0.950 0.898
v -0.014381 0.471761 -0.043925 0.945 0.950 0.898
v -0.018131 0.472768 -0.043749 0.945 0.950 0.898
v -0.022154 0.474344 -0.043691 0.945 0.950 0.898
v -0.026539 0.476517 -0.043679 0.945 0.950 0.898
v -0.031332 0.479271 -0.043581 0.945 0.950 0.898
v -0.036442 0.482399 -0.043133 0.945 0.950 0.898
v -0.040744 0.484090 -0.041157 0.945 0.950 0.898
v -0.041833 0.481135 -0.036129 0.945 0.950 0.898
v -0.042231 0.478105 -0.031126 0.945 0.950 0.898
v -0.042401 0.475575 -0.026500 0.945 0.950 0.898
v -0.042536 0.473643 -0.022270 0.945 0.950 0.898
v -0.042741 0.472299 -0.018372 0.945 0.950 0.898
v -0.043078 0.471511 -0.014712 0.945 0.950 0.898
v -0.043586 0.471251 -0.011188 0.945 0.950 0.898
v -0.044288 0.471511 -0.007699 0.945 0.950 0.898
v -0.045196 0.472299 -0.004137 0.945 0.950 0.898
v -0.046309 0.473643 -0.000395 0.945 0.950 0.898
v -0.047598 0.475575 0.003635 0.945 0.950 0.898
v -0.048988 0.478105 0.008051 0.945 0.950 0.898
v -0.050289 0.481135 0.012898 0.945 0.950 0.898
v -0.050947 0.484090 0.018001 0.945 0.950 0.898
v -0.047555 0.482399 0.021304 0.945 0.950 0.898
v -0.042891 0.479271 0.023437 0.945 0.950 0.898
v -0.038408 0.476517 0.025136 0.945 0.950 0.898
v -0.034280 0.474344 0.026616 0.945 0.950 0.898
v -0.030509 0.472768 0.028018 0.945 0.950 0.898
v -0.027035 0.471761 0.029440 0.945 0.950 0.898
v -0.023778 0.471292 0.030957 0.945 0.950 0.898
v -0.020650 0.471344 0.032627 0.945 0.950 0.898
v -0.017557 0.471919 0.034500 0.945 0.950 0.898
v -0.014399 0.473037 0.036612 0.945 0.950 0.898
v -0.011066 0.474730 0.038982 0.945 0.950 0.898
v -0.007444 0.477023 0.041593 0.945 0.950 0.898
v -0.003420 0.479880 0.044343 0.945 0.950 0.898
v 0.001069 0.483011 0.046892 0.945 0.950 0.898
v 0.005600 0.483586 0.046781 0.945 0.950 0.898
v 0.009307 0.480503 0.043174 0.945 0.950 0.898
v 0.012476 0.477553 0.039373 0.945 0.950 0.898
v 0.015269 0.475140 0.035785 0.945 0.950 0.898
v 0.017827 0.473328 0.032506 0.945 0.950 0.898
v 0.020270 0.472098 0.029532 0.945 0.950 0.898
v 0.022699 0.471417 0.026816 0.945 0.950 0.898
v 0.025202 0.471261 0.024298 0.945 0.950 0.898
v 0.027858 0.471625 0.021906 0.945 0.950 0.898
v 0.030736 0.472523 0.019561 0.945 0.950 0.898
v 0.033895 0.473981 0.017171 0.945 0.950 0.898
v 0.037372 0.476034 0.014628 0.945 0.950 0.898
v 0.041145 0.478678 0.011805 0.945 0.950 0.898
v 0.045043 0.481770 0.008548 0.945 0.950 0.898
v -0.003602 0.443624 -0.004292 0.945 0.950 0.898
f 231 159 160
f 231 160 159
f 231 160 161
f 231 161 160
f 231 161 162
f 231 162 161
f 231 162 163
f 231 163 162
f 231 163 164
f 231 164 163
f 231 164 165
f 231 165 164
f 231 165 166
f 231 166 165
f 231 166 167
f 231 167 166
f 231 167 168
f 231 168 167
f 231 168 169
f 231 169 168
f 231 169 170
f 231 170 169
f 231 170 171
f 231 171 170
f 231 171 172
f 231 172 171
f 231 172 173
f 231 173 172
f 231 173 174
f 231 174 173
f 231 174 175
f 231 175 174
f 231 175 176
f 231 176 175
f 231 176 177
f 231 177 176
f 231 177 178
f 231 178 177
f 231 178 179
f 231 179 178
f 231 179 180
f 231 180 179
f 231 180 181
f 231 181 180
f 231 181 182
f 231 182 181
f 231 182 183
f 231 183 182
f 231 183 184
f 231 184 183
f 231 184 185
f 231 185 184
f 231 185 186
f 231 186 185
f 231 186 187
f 231 187 186
f 231 187 188
f 231 188 187
f 231 188 189
f 231 189 188
f 231 189 190
f 231 190 189
f 231 190 191
f 231 191 190
f 231 191 192
f 231 192 191
f 231 192 193
f 231 193 192
f 231 193 194
f 231 194 193
f 231 194 195
f 231 195 194
f 231 195 196
f 231 196 195
f 231 196 197
f 231 197 196
f 231 197 198
f 231 198 197
f 231 198 199
f 231 199 198
f 231 199 200
f 231 200 199
f 231 200 201
f 231 201 200
f 231 201 202
f 231 202 201
f 231 202 203
f 231 203 202
f 231 203 204
f 231 204 203
f 231 204 205
f 231 205 204
f 231 205 206
f 231 206 205
f 231 206 207
f 231 207 206
f 231 207 208
f 231 208 207
f 231 208 209
f 231 209 208
f 231 209 210
f 231 210 209
f 231 210 211
f 231 211 210
f 231 211 212
f 231 212 211
f 231 212 213
f 231 213 212
f 231 213 214
f 231 214 213
f 231 214 215
f 231 215 214
f 231 215 216
f 231 216 215
f 231 216 217
f 231 217 216
f 231 217 218
f 231 218 217
f 231 218 219
f 231 219 218
f 231 219 220
f 231 220 219
f 231 220 221
f 231 221 220
f 231 221 222
f 231 222 221
f 231 222 223
f 231 223 222
f 231 223 224
f 231 224 223
f 231 224 225
f 231 225 224
f 231 225 226
f 231 226 225
f 231 226 227
f 231 227 226
f 231 227 228
f 231 228 227
f 231 228 229
f 231 229 228
f 231 229 230
f 231 230 229
f 231 230 159
f 231 159 230
v 0.032734 0.498824 -0.025544 0.953 0.958 0.914
v 0.029238 0.495233 -0.027562 0.953 0.958 0.914
v 0.025403 0.491050 -0.028909 0.953 0.958 0.914
v 0.021785 0.487472 -0.029965 0.953 0.958 0.914
v 0.018467 0.484696 -0.030894 0.953 0.958 0.914
v 0.015429 0.482722 -0.031798 0.953 0.958 0.914
v 0.012615 0.481508 -0.032748 0.953 0.958 0.914
v 0.009954 0.481016 -0.033794 0.953 0.958 0.914
v 0.007372 0.481226 -0.034978 0.953 0.958 0.914
v 0.004790 0.482148 -0.036331 0.953 0.958 0.914
v 0.002125 0.483812 -0.037874 0.953 0.958 0.914
v -0.000711 0.486263 -0.039613 0.953 0.958 0.914
v -0.003811 0.489528 -0.041517 0.953 0.958 0.914
v -0.007252 0.493519 -0.043475 0.953 0.958 0.914
v -0.011041 0.497690 -0.045137 0.953 0.958 0.914
v -0.014467 0.496913 -0.043948 0.953 0.958 0.914
v -0.017114 0.492676 -0.040779 0.953 0.958 0.914
v -0.019357 0.488811 -0.037590 0.953 0.958 0.914
v -0.021338 0.485708 -0.034617 0.953 0.958 0.914
v -0.023169 0.483418 -0.031906 0.953 0.958 0.914
v -0.024943 0.481905 -0.029438 0.953 0.958 0.914
v -0.026735 0.481128 -0.027167 0.953 0.958 0.914
v -0.028609 0.481058 -0.025038 0.953 0.958 0.914
v -0.030623 0.481692 -0.022988 0.953 0.958 0.914
v -0.032827 0.483054 -0.020947 0.953 0.958 0.914
v -0.035259 0.485186 -0.018838 0.953 0.958 0.914
v -0.037936 0.488126 -0.016571 0.953 0.958 0.914
v -0.040818 0.491852 -0.014041 0.953 0.958 0.914
v -0.043713 0.496085 -0.011133 0.953 0.958 0.914
v -0.045328 0.498373 -0.007707 0.953 0.958 0.914
v -0.043402 0.494374 -0.004069 0.953 0.958 0.914
v -0.041068 0.490275 -0.000803 0.953 0.958 0.914
v -0.038787 0.486852 0.002115 0.953 0.958 0.914
v -0.036690 0.484238 0.004773 0.953 0.958 0.914
v -0.034807 0.482420 0.007264 0.953 0.958 0.914
v -0.033127 0.481353 0.009677 0.953 0.958 0.914
v -0.031622 0.481002 0.012095 0.953 0.958 0.914
v -0.030252 0.481353 0.014592 0.953 0.958 0.914
v -0.028972 0.482420 0.017239 0.953 0.958 0.914
v -0.027725 0.484238 0.020102 0.953 0.958 0.914
v -0.026437 0.486852 0.023233 0.953 0.958 0.914
v -0.025012 0.490275 0.026651 0.953 0.958 0.914
v -0.023309 0.494374 0.030287 0.953 0.958 0.914
v -0.021082 0.498373 0.033749 0.953 0.958 0.914
v -0.017305 0.496085 0.034022 0.953 0.958 0.914
v -0.013351 0.491852 0.032923 0.953 0.958 0.914
v -0.009733 0.488126 0.031652 0.953 0.958 0.914
v -0.006444 0.485186 0.030431 0.953 0.958 0.914
v -0.003414 0.483054 0.029345 0.953 0.958 0.914
v -0.000555 0.481692 0.028424 0.953 0.958 0.914
v 0.002219 0.481058 0.027674 0.953 0.958 0.914
v 0.004994 0.481128 0.027084 0.953 0.958 0.914
v 0.007851 0.481905 0.026636 0.953 0.958 0.914
v 0.010872 0.483418 0.026300 0.953 0.958 0.914
v 0.014133 0.485708 0.026033 0.953 0.958 0.914
v 0.017695 0.488811 0.025764 0.953 0.958 0.914
v 0.021574 0.492676 0.025373 0.953 0.958 0.914
v 0.025635 0.496913 0.024619 0.953 0.958 0.914
v 0.028350 0.497690 0.022215 0.953 0.958 0.914
v 0.028759 0.493519 0.018098 0.953 0.958 0.914
v 0.028739 0.489528 0.014139 0.953 0.958 0.914
v 0.028599 0.486263 0.010505 0.953 0.958 0.914
v 0.028475 0.483812 0.007180 0.953 0.958 0.914
v 0.028437 0.482148 0.004100 0.953 0.958 0.914
v 0.028523 0.481226 0.001187 0.953 0.958 0.914
v 0.028757 0.481016 -0.001644 0.953 0.958 0.914
v 0.029149 0.481508 -0.004476 0.953 0.958 0.914
v 0.029702 0.482722 -0.007394 0.953 0.958 0.914
v 0.030403 0.484696 -0.010485 0.953 0.958 0.914
v 0.031220 0.487472 -0.013832 0.953 0.958 0.914
v 0.032074 0.491050 -0.017504 0.953 0.958 0.914
v 0.032780 0.495233 -0.021506 0.953 0.958 0.914
v -0.003602 0.443624 -0.004292 0.953 0.958 0.914
f 304 232 233
f 304 233 232
f 304 233 234
f 304 234 233
f 304 234 235
f 304 235 234
f 304 235 236
f 304 236 235
f 304 236 237
f 304 237 236
f 304 237 238
f 304 238 237
f 304 238 239
f 304 239 238
f 304 239 240
f 304 240 239
f 304 240 241
f 304 241 240
f 304 241 242
f 304 242 241
f 304 242 243
f 304 243 242
f 304 243 244
f 304 244 243
f 304 244 245
f 304 245 244
f 304 245 246
f 304 246 245
f 304 246 247
f 304 247 246
f 304 247 248
f 304 248 247
f 304 248 249
f 304 249 248
f 304 249 250
f 304 250 249
f 304 250 251
f 304 251 250
f 304 251 252
f 304 252 251
f 304 252 253
f 304 253 252
f 304 253 254
f 304 254 253
f 304 254 255
f 304 255 254
f 304 255 256
f 304 256 255
f 304 256 257
f 304 257 256
f 304 257 258
f 304 258 257
f 304 258 259
f 304 259 258
f 304 259 260
f 304 260 259
f 304 260 261
f 304 261 260
f 304 261 262
f 304 262 261
f 304 262 263
f 304 263 262
f 304 263 264
f 304 264 263
f 304 264 265
f 304 265 264
f 304 265 266
f 304 266 265
f 304 266 267
f 304 267 266
f 304 267 268
f 304 268 267
f 304 268 269
f 304 269 268
f 304 269 270
f 304 270 269
f 304 270 271
f 304 271 270
f 304 271 272
f 304 272 271
f 304 272 273
f 304 273 272
f 304 273 274
f 304 274 273
f 304 274 275
f 304 275 274
f 304 275 276
f 304 276 275
f 304 276 277
f 304 277 276
f 304 277 278
f 304 278 277
f 304 278 279
f 304 279 278
f 304 279 280
f 304 280 279
f 304 280 281
f 304 281 280
f 304 281 282
f 304 282 281
f 304 282 283
f 304 283 282
f 304 283 284
f 304 284 283
f 304 284 285
f 304 285 284
f 304 285 286
f 304 286 285
f 304 286 287
f 304 287 286
f 304 287 288
f 304 288 287
f 304 288 289
f 304 289 288
f 304 289 290
f 304 290 289
f 304 290 291
f 304 291 290
f 304 291 292
f 304 292 291
f 304 292 293
f 304 293 292
f 304 293 294
f 304 294 293
f 304 294 295
f 304 295 294
f 304 295 296
f 304 296 295
f 304 296 297
f 304 297 296
f 304 297 298
f 304 298 297
f 304 298 299
f 304 299 298
f 304 299 300
f 304 300 299
f 304 300 301
f 304 301 300
f 304 301 302
f 304 302 301
f 304 302 303
f 304 303 302
f 304 303 232
f 304 232 303
v 0.007679 0.513224 -0.036022 0.962 0.966 0.930
v 0.004499 0.508696 -0.035455 0.962 0.966 0.930
v 0.001459 0.503422 -0.034303 0.962 0.966 0.930
v -0.001300 0.498911 -0.033084 0.962 0.966 0.930
v -0.003809 0.495410 -0.031943 0.962 0.966 0.930
v -0.006134 0.492921 -0.030931 0.962 0.966 0.930
v -0.008345 0.491391 -0.030061 0.962 0.966 0.930
v -0.010512 0.490770 -0.029330 0.962 0.966 0.930
v -0.012702 0.491035 -0.028724 0.962 0.966 0.930
v -0.014979 0.492197 -0.028221 0.962 0.966 0.930
v -0.017405 0.494296 -0.027792 0.962 0.966 0.930
v -0.020037 0.497387 -0.027394 0.962 0.966 0.930
v -0.022914 0.501503 -0.026961 0.962 0.966 0.930
v -0.026029 0.506535 -0.026386 0.962 0.966 0.930
v -0.029204 0.511795 -0.025450 0.962 0.966 0.930
v -0.030687 0.510814 -0.022957 0.962 0.966 0.930
v -0.030674 0.505472 -0.019654 0.962 0.966 0.930
v -0.030403 0.500599 -0.016546 0.962 0.966 0.930
v -0.030083 0.496687 -0.013707 0.962 0.966 0.930
v -0.029806 0.493799 -0.011104 0.962 0.966 0.930
v -0.029619 0.491892 -0.008679 0.962 0.966 0.930
v -0.029545 0.490911 -0.006367 0.962 0.966 0.930
v -0.029595 0.490823 -0.004098 0.962 0.966 0.930
v -0.029771 0.491623 -0.001806 0.962 0.966 0.930
v -0.030068 0.493341 0.000579 0.962 0.966 0.930
v -0.030469 0.496028 0.003122 0.962 0.966 0.930
v -0.030938 0.499735 0.005889 0.962 0.966 0.930
v -0.031397 0.504433 0.008923 0.962 0.966 0.930
v -0.031671 0.509770 0.012194 0.962 0.966 0.930
v -0.030893 0.512655 0.015122 0.962 0.966 0.930
v -0.027840 0.507613 0.016356 0.962 0.966 0.930
v -0.024728 0.502445 0.017152 0.962 0.966 0.930
v -0.021829 0.498128 0.017762 0.962 0.966 0.930
v -0.019176 0.494833 0.018307 0.962 0.966 0.930
v -0.016740 0.492540 0.018861 0.962 0.966 0.930
v -0.014468 0.491195 0.019472 0.962 0.966 0.930
v -0.012301 0.490752 0.020175 0.962 0.966 0.930
v -0.010176 0.491195 0.020997 0.962 0.966 0.930
v -0.008029 0.492540 0.021958 0.962 0.966 0.930
v -0.005790 0.494833 0.023066 0.962 0.966 0.930
v -0.003388 0.498128 0.024318 0.962 0.966 0.930
v -0.000755 0.502445 0.025675 0.962 0.966 0.930
v 0.002161 0.507613 0.027023 0.962 0.966 0.930
v 0.005308 0.512655 0.027993 0.962 0.966 0.930
v 0.007760 0.509770 0.026213 0.962 0.966 0.930
v 0.009613 0.504433 0.023503 0.962 0.966 0.930
v 0.011171 0.499735 0.020860 0.962 0.966 0.930
v 0.012554 0.496028 0.018418 0.962 0.966 0.930
v 0.013849 0.493341 0.016192 0.962 0.966 0.930
v 0.015124 0.491623 0.014156 0.962 0.966 0.930
v 0.016434 0.490823 0.012267 0.962 0.966 0.930
v 0.017828 0.490911 0.010476 0.962 0.966 0.930
v 0.019345 0.491892 0.008729 0.962 0.966 0.930
v 0.021021 0.493799 0.006966 0.962 0.966 0.930
v 0.022878 0.496687 0.005122 0.962 0.966 0.930
v 0.024919 0.500599 0.003122 0.962 0.966 0.930
v 0.027091 0.505472 0.000884 0.962 0.966 0.930
v 0.029187 0.510814 -0.001670 0.962 0.966 0.930
v 0.029610 0.511795 -0.004540 0.962 0.966 0.930
v 0.027739 0.506535 -0.007270 0.962 0.966 0.930
v 0.025686 0.501503 -0.009682 0.962 0.966 0.930
v 0.023727 0.497387 -0.011834 0.962 0.966 0.930
v 0.021937 0.494296 -0.013805 0.962 0.966 0.930
v 0.020327 0.492197 -0.015669 0.962 0.966 0.930
v 0.018878 0.491035 -0.017496 0.962 0.966 0.930
v 0.017563 0.490770 -0.019349 0.962 0.966 0.930
v 0.016343 0.491391 -0.021284 0.962 0.966 0.930
v 0.015177 0.492921 -0.023354 0.962 0.966 0.930
v 0.014013 0.495410 -0.025607 0.962 0.966 0.930
v 0.012788 0.498911 -0.028076 0.962 0.966 0.930
v 0.011418 0.503422 -0.030763 0.962 0.966 0.930
v 0.009787 0.508696 -0.033575 0.962 0.966 0.930
v -0.003602 0.443624 -0.004292 0.962 0.966 0.930
f 377 305 306
f 377 306 305
f 377 306 307
f 377 307 306
f 377 307 308
f 377 308 307
f 377 308 309
f 377 309 308
f 377 309 310
f 377 310 309
f 377 310 311
f 377 311 310
f 377 311 312
f 377 312 311
f 377 312 313
f 377 313 312
f 377 313 314
f 377 314 313
f 377 314 315
f 377 315 314
f 377 315 316
f 377 316 315
f 377 316 317
f 377 317 316
f 377 317 318
f 377 318 317
f 377 318 319
f 377 319 318
f 377 319 320
f 377 320 319
f 377 320 321
f 377 321 320
f 377 321 322
f 377 322 321
f 377 322 323
f 377 323 322
f 377 323 324
f 377 324 323
f 377 324 325
f 377 325 324
f 377 325 326
f 377 326 325
f 377 326 327
f 377 327 326
f 377 327 328
f 377 328 327
f 377 328 329
f 377 329 328
f 377 329 330
f 377 330 329
f 377 330 331
f 377 331 330
f 377 331 332
f 377 332 331
f 377 332 333
f 377 333 332
f 377 333 334
f 377 334 333
f 377 334 335
f 377 335 334
f 377 335 336
f 377 336 335
f 377 336 337
f 377 337 336
f 377 337 338
f 377 338 337
f 377 338 339
f 377 339 338
f 377 339 340
f 377 340 339
f 377 340 341
f 377 341 340
f 377 341 342
f 377 342 341
f 377 342 343
f 377 343 342
f 377 343 344
f 377 344 343
f 377 344 345
f 377 345 344
f 377 345 346
f 377 346 345
f 377 346 347
f 377 347 346
f 377 347 348
f 377 348 347
f 377 348 349
f 377 349 348
f 377 349 350
f 377 350 349
f 377 350 351
f 377 351 350
f 377 351 352
f 377 352 351
f 377 352 353
f 377 353 352
f 377 353 354
f 377 354 353
f 377 354 355
f 377 355 354
f 377 355 356
f 377 356 355
f 377 356 357
f 377 357 356
f 377 357 358
f 377 358 357
f 377 358 359
f 377 359 358
f 377 359 360
f 377 360 359
f 377 360 361
f 377 361 360
f 377 361 362
f 377 362 361
f 377 362 363
f 377 363 362
f 377 363 364
f 377 364 363
f 377 364 365
f 377 365 364
f 377 365 366
f 377 366 365
f 377 366 367
f 377 367 366
f 377 367 368
f 377 368 367
f 377 368 369
f 377 369 368
f 377 369 370
f 377 370 369
f 377 370 371
f 377 371 370
f 377 371 372
f 377 372 371
f 377 372 373
f 377 373 372
f 377 373 374
f 377 374 373
f 377 374 375
f 377 375 374
f 377 375 376
f 377 376 375
f 377 376 305
f 377 305 376
v -0.013053 0.527624 -0.029521 0.971 0.974 0.946
v -0.014706 0.522159 -0.027535 0.971 0.974 0.946
v -0.015973 0.515795 -0.025263 0.971 0.974 0.946
v -0.017032 0.510350 -0.023096 0.971 0.974 0.946
v -0.017979 0.506124 -0.021104 0.971 0.974 0.946
v -0.018880 0.503121 -0.019287 0.971 0.974 0.946
v -0.019785 0.501274 -0.017615 0.971 0.974 0.946
v -0.020734 0.500524 -0.016051 0.971 0.974 0.946
v -0.021762 0.500845 -0.014552 0.971 0.974 0.946
v -0.022896 0.502247 -0.013070 0.971 0.974 0.946
v -0.024159 0.504780 -0.011557 0.971 0.974 0.946
v -0.025564 0.508510 -0.009957 0.971 0.974 0.946
v -0.027102 0.513478 -0.008210 0.971 0.974 0.946
v -0.028711 0.519551 -0.006253 0.971 0.974 0.946
v -0.030172 0.525899 -0.004044 0.971 0.974 0.946
v -0.029795 0.524715 -0.001754 0.971 0.974 0.946
v -0.028084 0.518269 0.000261 0.971 0.974 0.946
v -0.026316 0.512387 0.002022 0.971 0.974 0.946
v -0.024657 0.507665 0.003595 0.971 0.974 0.946
v -0.023146 0.504179 0.005045 0.971 0.974 0.946
v -0.021783 0.501878 0.006432 0.971 0.974 0.946
v -0.020545 0.500695 0.007809 0.971 0.974 0.946
v -0.019406 0.500588 0.009223 0.971 0.974 0.946
v -0.018333 0.501554 0.010716 0.971 0.974 0.946
v -0.017285 0.503627 0.012328 0.971 0.974 0.946
v -0.016220 0.506870 0.014091 0.971 0.974 0.946
v -0.015081 0.511344 0.016026 0.971 0.974 0.946
v -0.013799 0.517014 0.018119 0.971 0.974 0.946
v -0.012280 0.523456 0.020261 0.971 0.974 0.946
v -0.010295 0.526937 0.021652 0.971 0.974 0.946
v -0.007791 0.520852 0.020834 0.971 0.974 0.946
v -0.005477 0.514615 0.019717 0.971 0.974 0.946
v -0.003388 0.509405 0.018596 0.971 0.974 0.946
v -0.001484 0.505428 0.017562 0.971 0.974 0.946
v 0.000292 0.502661 0.016645 0.971 0.974 0.946
v 0.001997 0.501037 0.015848 0.971 0.974 0.946
v 0.003685 0.500503 0.015162 0.971 0.974 0.946
v 0.005409 0.501037 0.014570 0.971 0.974 0.946
v 0.007218 0.502661 0.014051 0.971 0.974 0.946
v 0.009159 0.505428 0.013575 0.971 0.974 0.946
v 0.011274 0.509405 0.013103 0.971 0.974 0.946
v 0.013584 0.514615 0.012576 0.971 0.974 0.946
v 0.016063 0.520852 0.011898 0.971 0.974 0.946
v 0.018488 0.526937 0.010870 0.971 0.974 0.946
v 0.019071 0.523456 0.008518 0.971 0.974 0.946
v 0.018809 0.517014 0.005904 0.971 0.974 0.946
v 0.018400 0.511344 0.003484 0.971 0.974 0.946
v 0.017988 0.506870 0.001277 0.971 0.974 0.946
v 0.017633 0.503627 -0.000752 0.971 0.974 0.946
v 0.017363 0.501554 -0.002655 0.971 0.974 0.946
v 0.017192 0.500588 -0.004486 0.971 0.974 0.946
v 0.017122 0.500695 -0.006300 0.971 0.974 0.946
v 0.017150 0.501878 -0.008151 0.971 0.974 0.946
v 0.017266 0.504179 -0.010093 0.971 0.974 0.946
v 0.017452 0.507665 -0.012179 0.971 0.974 0.946
v 0.017670 0.512387 -0.014455 0.971 0.974 0.946
v 0.017846 0.518269 -0.016944 0.971 0.974 0.946
v 0.017812 0.524715 -0.019587 0.971 0.974 0.946
v 0.016592 0.525899 -0.021561 0.971 0.974 0.946
v 0.014040 0.519551 -0.022267 0.971 0.974 0.946
v 0.011540 0.513478 -0.022685 0.971 0.974 0.946
v 0.009233 0.508510 -0.022992 0.971 0.974 0.946
v 0.007122 0.504780 -0.023275 0.971 0.974 0.946
v 0.005176 0.502247 -0.023586 0.971 0.974 0.946
v 0.003348 0.500845 -0.023957 0.971 0.974 0.946
v 0.001588 0.500524 -0.024413 0.971 0.974 0.946
v -0.000155 0.501274 -0.024968 0.971 0.974 0.946
v -0.001936 0.503121 -0.025634 0.971 0.974 0.946
v -0.003809 0.506124 -0.026412 0.971 0.974 0.946
v -0.005831 0.510350 -0.027292 0.971 0.974 0.946
v -0.008054 0.515795 -0.028230 0.971 0.974 0.946
v -0.010501 0.522159 -0.029110 0.971 0.974 0.946
v -0.003602 0.443624 -0.004292 0.971 0.974 0.946
f 450 378 379
f 450 379 378
f 450 379 380
f 450 380 379
f 450 380 381
f 450 381 380
f 450 381 382
f 450 382 381
f 450 382 383
f 450 383 382
f 450 383 384
f 450 384 383
f 450 384 385
f 450 385 384
f 450 385 386
f 450 386 385
f 450 386 387
f 450 387 386
f 450 387 388
f 450 388 387
f 450 388 389
f 450 389 388
f 450 389 390
f 450 390 389
f 450 390 391
f 450 391 390
f 450 391 392
f 450 392 391
f 450 392 393
f 450 393 392
f 450 393 394
f 450 394 393
f 450 394 395
f 450 395 394
f 450 395 396
f 450 396 395
f 450 396 397
f 450 397 396
f 450 397 398
f 450 398 397
f 450 398 399
f 450 399 398
f 450 399 400
f 450 400 399
f 450 400 401
f 450 401 400
f 450 401 402
f 450 402 401
f 450 402 403
f 450 403 402
f 450 403 404
f 450 404 403
f 450 404 405
f 450 405 404
f 450 405 406
f 450 406 405
f 450 406 407
f 450 407 406
f 450 407 408
f 450 408 407
f 450 408 409
f 450 409 408
f 450 409 410
f 450 410 409
f 450 410 411
f 450 411 410
f 450 411 412
f 450 412 411
f 450 412 413
f 450 413 412
f 450 413 414
f 450 414 413
f 450 414 415
f 450 415 414
f 450 415 416
f 450 416 415
f 450 416 417
f 450 417 416
f 450 417 418
f 450 418 417
f 450 418 419
f 450 419 418
f 450 419 420
f 450 420 419
f 450 420 421
f 450 421 420
f 450 421 422
f 450 422 421
f 450 422 423
f 450 423 422
f 450 423 424
f 450 424 423
f 450 424 425
f 450 425 424
f 450 425 426
f 450 426 425
f 450 426 427
f 450 427 426
f 450 427 428
f 450 428 427
f 450 428 429
f 450 429 428
f 450 429 430
f 450 430 429
f 450 430 431
f 450 431 430
f 450 431 432
f 450 432 431
f 450 432 433
f 450 433 432
f 450 433 434
f 450 434 433
f 450 434 435
f 450 435 434
f 450 435 436
f 450 436 435
f 450 436 437
f 450 437 436
f 450 437 438
f 450 438 437
f 450 438 439
f 450 439 438
f 450 439 440
f 450 440 439
f 450 440 441
f 450 441 440
f 450 441 442
f 450 442 441
f 450 442 443
f 450 443 442
f 450 443 444
f 450 444 443
f 450 444 445
f 450 445 444
f 450 445 446
f 450 446 445
f 450 446 447
f 450 447 446
f 450 447 448
f 450 448 447
f 450 448 449
f 450 449 448
f 450 449 378
f 450 378 449
v 0.005724 0.273519 0.001799 0.160 0.352 0.136
v -0.000494 0.279288 0.001573 0.160 0.352 0.136
v -0.005724 0.273519 -0.001799 0.160 0.352 0.136
v 0.000494 0.267750 -0.001573 0.160 0.352 0.136
v -0.009539 0.263519 0.033690 0.160 0.352 0.136
v -0.010576 0.264481 0.033652 0.160 0.352 0.136
v -0.011447 0.263519 0.033090 0.160 0.352 0.136
v -0.010411 0.262558 0.033128 0.160 0.352 0.136
f 451 452 456
f 451 456 455
f 452 453 457
f 452 457 456
f 453 454 458
f 453 458 457
f 454 451 455
f 454 455 458
v -0.003355 0.314863 -0.004974 0.160 0.352 0.136
v 0.001366 0.320633 -0.000922 0.160 0.352 0.136
v 0.003355 0.314863 0.004974 0.160 0.352 0.136
v -0.001366 0.309094 0.000922 0.160 0.352 0.136
v 0.028456 0.304863 -0.020402 0.160 0.352 0.136
v 0.029243 0.305825 -0.019727 0.160 0.352 0.136
v 0.029575 0.304863 -0.018744 0.160 0.352 0.136
v 0.028788 0.303902 -0.019419 0.160 0.352 0.136
f 459 460 464
f 459 464 463
f 460 461 465
f 460 465 464
f 461 462 466
f 461 466 465
f 462 459 463
f 462 463 466
v 0.005916 0.365461 -0.001000 0.160 0.352 0.136
v 0.000275 0.371230 0.001625 0.160 0.352 0.136
v -0.005916 0.365461 0.001000 0.160 0.352 0.136
v -0.000275 0.359692 -0.001625 0.160 0.352 0.136
v 0.006821 0.355461 0.034343 0.160 0.352 0.136
v 0.005881 0.356423 0.034781 0.160 0.352 0.136
v 0.004849 0.355461 0.034677 0.160 0.352 0.136
v 0.005790 0.354499 0.034239 0.160 0.352 0.136
f 467 468 472
f 467 472 471
f 468 469 473
f 468 473 472
f 469 470 474
f 469 474 473
f 470 467 471
f 470 471 474
v 0.001197 0.372314 -0.005879 0.160 0.352 0.136
v 0.001615 0.378083 0.000329 0.160 0.352 0.136
v -0.001197 0.372314 0.005879 0.160 0.352 0.136
v -0.001615 0.366545 -0.000329 0.160 0.352 0.136
v 0.034496 0.362314 0.006002 0.160 0.352 0.136
v 0.034566 0.363275 0.007037 0.160 0.352 0.136
v 0.034097 0.362314 0.007962 0.160 0.352 0.136
v 0.034027 0.361352 0.006927 0.160 0.352 0.136
f 475 476 480
f 475 480 479
f 476 477 481
f 476 481 480
f 477 478 482
f 477 482 481
f 478 475 479
f 478 479 482
v 0.000715 0.380034 0.005957 0.160 0.352 0.136
v -0.001637 0.385803 0.000196 0.160 0.352 0.136
v -0.000715 0.380034 -0.005957 0.160 0.352 0.136
v 0.001637 0.374265 -0.000196 0.160 0.352 0.136
v -0.034632 0.370034 0.005161 0.160 0.352 0.136
v -0.035024 0.370995 0.004201 0.160 0.352 0.136
v -0.034870 0.370034 0.003176 0.160 0.352 0.136
v -0.034478 0.369072 0.004136 0.160 0.352 0.136
f 483 484 488
f 483 488 487
f 484 485 489
f 484 489 488
f 485 486 490
f 485 490 489
f 486 483 487
f 486 487 490
v -0.005552 0.184887 -0.002276 0.160 0.352 0.136
v 0.000625 0.190656 -0.001525 0.160 0.352 0.136
v 0.005552 0.184887 0.002276 0.160 0.352 0.136
v -0.000625 0.179118 0.001525 0.160 0.352 0.136
v 0.012349 0.174887 -0.032764 0.160 0.352 0.136
v 0.013378 0.175849 -0.032639 0.160 0.352 0.136
v 0.014199 0.174887 -0.032006 0.160 0.352 0.136
v 0.013170 0.173926 -0.032131 0.160 0.352 0.136
f 491 492 496
f 491 496 495
f 492 493 497
f 492 497 496
f 493 494 498
f 493 498 497
f 494 491 495
f 494 495 498
v -0.005900 0.320460 -0.001089 0.160 0.352 0.136
v 0.000299 0.326229 -0.001621 0.160 0.352 0.136
v 0.005900 0.320460 0.001089 0.160 0.352 0.136
v -0.000299 0.314691 0.001621 0.160 0.352 0.136
v 0.005371 0.310460 -0.034600 0.160 0.352 0.136
v 0.006404 0.311421 -0.034689 0.160 0.352 0.136
v 0.007337 0.310460 -0.034237 0.160 0.352 0.136
v 0.006304 0.309498 -0.034148 0.160 0.352 0.136
f 499 500 504
f 499 504 503
f 500 501 505
f 500 505 504
f 501 502 506
f 501 506 505
f 502 499 503
f 502 503 506
v 0.004330 0.351586 -0.004153 0.160 0.352 0.136
v 0.001141 0.357355 0.001190 0.160 0.352 0.136
v -0.004330 0.351586 0.004153 0.160 0.352 0.136
v -0.001141 0.345817 -0.001190 0.160 0.352 0.136
v 0.024950 0.341586 0.024566 0.160 0.352 0.136
v 0.024418 0.342547 0.025457 0.160 0.352 0.136
v 0.023507 0.341586 0.025951 0.160 0.352 0.136
v 0.024038 0.340624 0.025060 0.160 0.352 0.136
f 507 508 512
f 507 512 511
f 508 509 513
f 508 513 512
f 509 510 514
f 509 514 513
f 510 507 511
f 510 511 514
v 0.005308 0.238874 0.002798 0.160 0.352 0.136
v -0.000769 0.244643 0.001458 0.160 0.352 0.136
v -0.005308 0.238874 -0.002798 0.160 0.352 0.136
v 0.000769 0.233105 -0.001458 0.160 0.352 0.136
v -0.015438 0.228874 0.031427 0.160 0.352 0.136
v -0.016451 0.229836 0.031204 0.160 0.352 0.136
v -0.017207 0.228874 0.030495 0.160 0.352 0.136
v -0.016194 0.227913 0.030718 0.160 0.352 0.136
f 515 516 520
f 515 520 519
f 516 517 521
f 516 521 520
f 517 518 522
f 517 522 521
f 518 515 519
f 518 519 522
v 0.000000 0.133087 -0.000000 0.180 0.500 0.200
v -0.000112 0.131627 -0.002810 0.180 0.500 0.200
v -0.001256 0.130166 -0.006022 0.180 0.500 0.200
v -0.003026 0.128705 -0.009477 0.180 0.500 0.200
v -0.005178 0.127244 -0.013080 0.180 0.500 0.200
v -0.007497 0.125784 -0.016748 0.180 0.500 0.200
v -0.009783 0.124323 -0.020404 0.180 0.500 0.200
v -0.011851 0.122862 -0.023975 0.180 0.500 0.200
v -0.013537 0.121402 -0.027397 0.180 0.500 0.200
v -0.014699 0.119941 -0.030616 0.180 0.500 0.200
v -0.015227 0.118480 -0.033588 0.180 0.500 0.200
v -0.015043 0.117019 -0.036283 0.180 0.500 0.200
v -0.014108 0.115559 -0.038687 0.180 0.500 0.200
v -0.012424 0.114098 -0.040799 0.180 0.500 0.200
v -0.010027 0.112637 -0.042634 0.180 0.500 0.200
v -0.006997 0.111177 -0.044223 0.180 0.500 0.200
v -0.003442 0.109716 -0.045608 0.180 0.500 0.200
v 0.000495 0.108255 -0.046845 0.180 0.500 0.200
v 0.004650 0.106795 -0.047997 0.180 0.500 0.200
v 0.008837 0.105334 -0.049136 0.180 0.500 0.200
v 0.012858 0.103873 -0.050340 0.180 0.500 0.200
v 0.016497 0.102412 -0.051692 0.180 0.500 0.200
v 0.019509 0.100952 -0.053288 0.180 0.500 0.200
v 0.021490 0.099491 -0.055285 0.180 0.500 0.200
v 0.021601 0.100952 -0.052475 0.180 0.500 0.200
v 0.022745 0.102412 -0.049264 0.180 0.500 0.200
v 0.024516 0.103873 -0.045808 0.180 0.500 0.200
v 0.026668 0.105334 -0.042205 0.180 0.500 0.200
v 0.028986 0.106795 -0.038537 0.180 0.500 0.200
v 0.031272 0.108255 -0.034881 0.180 0.500 0.200
v 0.033341 0.109716 -0.031311 0.180 0.500 0.200
v 0.035027 0.111177 -0.027888 0.180 0.500 0.200
v 0.036189 0.112637 -0.024670 0.180 0.500 0.200
v 0.036716 0.114098 -0.021698 0.180 0.500 0.200
v 0.036532 0.115559 -0.019002 0.180 0.500 0.200
v 0.035598 0.117019 -0.016599 0.180 0.500 0.200
v 0.033913 0.118480 -0.014487 0.180 0.500 0.200
v 0.031517 0.119941 -0.012651 0.180 0.500 0.200
v 0.028486 0.121402 -0.011062 0.180 0.500 0.200
v 0.024932 0.122862 -0.009677 0.180 0.500 0.200
v 0.020995 0.124323 -0.008441 0.180 0.500 0.200
v 0.016840 0.125784 -0.007289 0.180 0.500 0.200
v 0.012653 0.127244 -0.006149 0.180 0.500 0.200
v 0.008632 0.128705 -0.004945 0.180 0.500 0.200
v 0.004993 0.130166 -0.003593 0.180 0.500 0.200
v 0.001981 0.131627 -0.001997 0.180 0.500 0.200
f 523 524 525
f 523 525 524
f 523 525 526
f 523 526 525
f 523 526 527
f 523 527 526
f 523 527 528
f 523 528 527
f 523 528 529
f 523 529 528
f 523 529 530
f 523 530 529
f 523 530 531
f 523 531 530
f 523 531 532
f 523 532 531
f 523 532 533
f 523 533 532
f 523 533 534
f 523 534 533
f 523 534 535
f 523 535 534
f 523 535 536
f 523 536 535
f 523 536 537
f 523 537 536
f 523 537 538
f 523 538 537
f 523 538 539
f 523 539 538
f 523 539 540
f 523 540 539
f 523 540 541
f 523 541 540
f 523 541 542
f 523 542 541
f 523 542 543
f 523 543 542
f 523 543 544
f 523 544 543
f 523 544 545
f 523 545 544
f 523 545 546
f 523 546 545
f 523 546 547
f 523 547 546
f 523 547 548
f 523 548 547
f 523 548 549
f 523 549 548
f 523 549 550
f 523 550 549
f 523 550 551
f 523 551 550
f 523 551 552
f 523 552 551
f 523 552 553
f 523 553 552
f 523 553 554
f 523 554 553
f 523 554 555
f 523 555 554
f 523 555 556
f 523 556 555
f 523 556 557
f 523 557 556
f 523 557 558
f 523 558 557
f 523 558 559
f 523 559 558
f 523 559 560
f 523 560 559
f 523 560 561
f 523 561 560
f 523 561 562
f 523 562 561
f 523 562 563
f 523 563 562
f 523 563 564
f 523 564 563
f 523 564 565
f 523 565 564
f 523 565 566
f 523 566 565
f 523 566 567
f 523 567 566
f 523 567 568
f 523 568 567
v 0.000000 0.133087 -0.000000 0.180 0.500 0.200
v -0.001846 0.131239 -0.003089 0.180 0.500 0.200
v -0.005094 0.129391 -0.005996 0.180 0.500 0.200
v -0.009193 0.127543 -0.008792 0.180 0.500 0.200
v -0.013810 0.125695 -0.011520 0.180 0.500 0.200
v -0.018653 0.123848 -0.014220 0.180 0.500 0.200
v -0.023452 0.122000 -0.016925 0.180 0.500 0.200
v -0.027955 0.120152 -0.019668 0.180 0.500 0.200
v -0.031939 0.118304 -0.022479 0.180 0.500 0.200
v -0.035211 0.116456 -0.025382 0.180 0.500 0.200
v -0.037622 0.114608 -0.028398 0.180 0.500 0.200
v -0.039067 0.112760 -0.031539 0.180 0.500 0.200
v -0.039492 0.110912 -0.034813 0.180 0.500 0.200
v -0.038899 0.109064 -0.038219 0.180 0.500 0.200
v -0.037339 0.107216 -0.041750 0.180 0.500 0.200
v -0.034918 0.105368 -0.045394 0.180 0.500 0.200
v -0.031785 0.103520 -0.049130 0.180 0.500 0.200
v -0.028133 0.101672 -0.052933 0.180 0.500 0.200
v -0.024185 0.099824 -0.056776 0.180 0.500 0.200
v -0.020193 0.097976 -0.060623 0.180 0.500 0.200
v -0.016427 0.096128 -0.064442 0.180 0.500 0.200
v -0.013179 0.094280 -0.068193 0.180 0.500 0.200
v -0.010783 0.092433 -0.071833 0.180 0.500 0.200
v -0.009787 0.090585 -0.075291 0.180 0.500 0.200
v -0.007941 0.092433 -0.072203 0.180 0.500 0.200
v -0.004694 0.094280 -0.069296 0.180 0.500 0.200
v -0.000595 0.096128 -0.066500 0.180 0.500 0.200
v 0.004022 0.097976 -0.063771 0.180 0.500 0.200
v 0.008865 0.099824 -0.061072 0.180 0.500 0.200
v 0.013664 0.101672 -0.058367 0.180 0.500 0.200
v 0.018168 0.103520 -0.055623 0.180 0.500 0.200
v 0.022151 0.105368 -0.052812 0.180 0.500 0.200
v 0.025424 0.107216 -0.049909 0.180 0.500 0.200
v 0.027835 0.109064 -0.046893 0.180 0.500 0.200
v 0.029279 0.110912 -0.043752 0.180 0.500 0.200
v 0.029705 0.112760 -0.040479 0.180 0.500 0.200
v 0.029111 0.114608 -0.037073 0.180 0.500 0.200
v 0.027552 0.116456 -0.033541 0.180 0.500 0.200
v 0.025130 0.118304 -0.029898 0.180 0.500 0.200
v 0.021998 0.120152 -0.026162 0.180 0.500 0.200
v 0.018345 0.122000 -0.022358 0.180 0.500 0.200
v 0.014397 0.123848 -0.018516 0.180 0.500 0.200
v 0.010405 0.125695 -0.014668 0.180 0.500 0.200
v 0.006639 0.127543 -0.010850 0.180 0.500 0.200
v 0.003392 0.129391 -0.007099 0.180 0.500 0.200
v 0.000995 0.131239 -0.003458 0.180 0.500 0.200
f 569 570 571
f 569 571 570
f 569 571 572
f 569 572 571
f 569 572 573
f 569 573 572
f 569 573 574
f 569 574 573
f 569 574 575
f 569 575 574
f 569 575 576
f 569 576 575
f 569 576 577
f 569 577 576
f 569 577 578
f 569 578 577
f 569 578 579
f 569 579 578
f 569 579 580
f 569 580 579
f 569 580 581
f 569 581 580
f 569 581 582
f 569 582 581
f 569 582 583
f 569 583 582
f 569 583 584
f 569 584 583
f 569 584 585
f 569 585 584
f 569 585 586
f 569 586 585
f 569 586 587
f 569 587 586
f 569 587 588
f 569 588 587
f 569 588 589
f 569 589 588
f 569 589 590
f 569 590 589
f 569 590 591
f 569 591 590
f 569 591 592
f 569 592 591
f 569 592 593
f 569 593 592
f 569 593 594
f 569 594 593
f 569 594 595
f 569 595 594
f 569 595 596
f 569 596 595
f 569 596 597
f 569 597 596
f 569 597 598
f 569 598 597
f 569 598 599
f 569 599 598
f 569 599 600
f 569 600 599
f 569 600 601
f 569 601 600
f 569 601 602
f 569 602 601
f 569 602 603
f 569 603 602
f 569 603 604
f 569 604 603
f 569 604 605
f 569 605 604
f 569 605 606
f 569 606 605
f 569 606 607
f 569 607 606
f 569 607 608
f 569 608 607
f 569 608 609
f 569 609 608
f 569 609 610
f 569 610 609
f 569 610 611
f 569 611 610
f 569 611 612
f 569 612 611
f 569 612 613
f 569 613 612
f 569 613 614
f 569 614 613
v 0.000000 0.133087 -0.000000 0.180 0.500 0.200
v -0.002470 0.132075 -0.001539 0.180 0.500 0.200
v -0.005810 0.131063 -0.002444 0.180 0.500 0.200
v -0.009679 0.130050 -0.002965 0.180 0.500 0.200
v -0.013870 0.129038 -0.003251 0.180 0.500 0.200
v -0.018201 0.128025 -0.003435 0.180 0.500 0.200
v -0.022505 0.127013 -0.003639 0.180 0.500 0.200
v -0.026625 0.126001 -0.003977 0.180 0.500 0.200
v -0.030422 0.124988 -0.004549 0.180 0.500 0.200
v -0.033778 0.123976 -0.005444 0.180 0.500 0.200
v -0.036599 0.122964 -0.006727 0.180 0.500 0.200
v -0.038819 0.121951 -0.008448 0.180 0.500 0.200
v -0.040407 0.120939 -0.010629 0.180 0.500 0.200
v -0.041362 0.119927 -0.013271 0.180 0.500 0.200
v -0.041717 0.118914 -0.016349 0.180 0.500 0.200
v -0.041537 0.117902 -0.019817 0.180 0.500 0.200
v -0.040916 0.116890 -0.023607 0.180 0.500 0.200
v -0.039971 0.115877 -0.027632 0.180 0.500 0.200
v -0.038843 0.114865 -0.031790 0.180 0.500 0.200
v -0.037688 0.113853 -0.035968 0.180 0.500 0.200
v -0.036673 0.112840 -0.040044 0.180 0.500 0.200
v -0.035980 0.111828 -0.043886 0.180 0.500 0.200
v -0.035815 0.110816 -0.047343 0.180 0.500 0.200
v -0.036521 0.109803 -0.050166 0.180 0.500 0.200
v -0.034051 0.110816 -0.048627 0.180 0.500 0.200
v -0.030710 0.111828 -0.047722 0.180 0.500 0.200
v -0.026842 0.112840 -0.047201 0.180 0.500 0.200
v -0.022651 0.113853 -0.046915 0.180 0.500 0.200
v -0.018320 0.114865 -0.046731 0.180 0.500 0.200
v -0.014016 0.115877 -0.046527 0.180 0.500 0.200
v -0.009896 0.116890 -0.046189 0.180 0.500 0.200
v -0.006099 0.117902 -0.045617 0.180 0.500 0.200
v -0.002743 0.118914 -0.044723 0.180 0.500 0.200
v 0.000078 0.119927 -0.043439 0.180 0.500 0.200
v 0.002298 0.120939 -0.041718 0.180 0.500 0.200
v 0.003886 0.121951 -0.039537 0.180 0.500 0.200
v 0.004841 0.122964 -0.036895 0.180 0.500 0.200
v 0.005196 0.123976 -0.033817 0.180 0.500 0.200
v 0.005016 0.124988 -0.030349 0.180 0.500 0.200
v 0.004395 0.126001 -0.026559 0.180 0.500 0.200
v 0.003450 0.127013 -0.022534 0.180 0.500 0.200
v 0.002322 0.128025 -0.018376 0.180 0.500 0.200
v 0.001167 0.129038 -0.014198 0.180 0.500 0.200
v 0.000152 0.130050 -0.010122 0.180 0.500 0.200
v -0.000541 0.131063 -0.006280 0.180 0.500 0.200
v -0.000706 0.132075 -0.002823 0.180 0.500 0.200
f 615 616 617
f 615 617 616
f 615 617 618
f 615 618 617
f 615 618 619
f 615 619 618
f 615 619 620
f 615 620 619
f 615 620 621
f 615 621 620
f 615 621 622
f 615 622 621
f 615 622 623
f 615 623 622
f 615 623 624
f 615 624 623
f 615 624 625
f 615 625 624
f 615 625 626
f 615 626 625
f 615 626 627
f 615 627 626
f 615 627 628
f 615 628 627
f 615 628 629
f 615 629 628
f 615 629 630
f 615 630 629
f 615 630 631
f 615 631 630
f 615 631 632
f 615 632 631
f 615 632 633
f 615 633 632
f 615 633 634
f 615 634 633
f 615 634 635
f 615 635 634
f 615 635 636
f 615 636 635
f 615 636 637
f 615 637 636
f 615 637 638
f 615 638 637
f 615 638 639
f 615 639 638
f 615 639 640
f 615 640 639
f 615 640 641
f 615 641 640
f 615 641 642
f 615 642 641
f 615 642 643
f 615 643 642
f 615 643 644
f 615 644 643
f 615 644 645
f 615 645 644
f 615 645 646
f 615 646 645
f 615 646 647
f 615 647 646
f 615 647 648
f 615 648 647
f 615 648 649
f 615 649 648
f 615 649 650
f 615 650 649
f 615 650 651
f 615 651 650
f 615 651 652
f 615 652 651
f 615 652 653
f 615 653 652
f 615 653 654
f 615 654 653
f 615 654 655
f 615 655 654
f 615 655 656
f 615 656 655
f 615 656 657
f 615 657 656
f 615 657 658
f 615 658 657
f 615 658 659
f 615 659 658
f 615 659 660
f 615 660 659
v 0.000000 0.243993 -0.000000 0.180 0.500 0.200
v -0.002073 0.241926 0.001849 0.180 0.500 0.200
v -0.003821 0.239859 0.004864 0.180 0.500 0.200
v -0.005373 0.237792 0.008586 0.180 0.500 0.200
v -0.006805 0.235725 0.012739 0.180 0.500 0.200
v -0.008185 0.233658 0.017081 0.180 0.500 0.200
v -0.009575 0.231591 0.021385 0.180 0.500 0.200
v -0.011033 0.229524 0.025444 0.180 0.500 0.200
v -0.012612 0.227457 0.029070 0.180 0.500 0.200
v -0.014355 0.225390 0.032106 0.180 0.500 0.200
v -0.016297 0.223323 0.034424 0.180 0.500 0.200
v -0.018463 0.221256 0.035939 0.180 0.500 0.200
v -0.020864 0.219189 0.036607 0.180 0.500 0.200
v -0.023501 0.217121 0.036428 0.180 0.500 0.200
v -0.026361 0.215054 0.035445 0.180 0.500 0.200
v -0.029421 0.212987 0.033745 0.180 0.500 0.200
v -0.032645 0.210920 0.031454 0.180 0.500 0.200
v -0.035989 0.208853 0.028731 0.180 0.500 0.200
v -0.039402 0.206786 0.025762 0.180 0.500 0.200
v -0.042825 0.204719 0.022756 0.180 0.500 0.200
v -0.046195 0.202652 0.019938 0.180 0.500 0.200
v -0.049446 0.200585 0.017552 0.180 0.500 0.200
v -0.052500 0.198518 0.015873 0.180 0.500 0.200
v -0.055230 0.196451 0.015359 0.180 0.500 0.200
v -0.053157 0.198518 0.013510 0.180 0.500 0.200
v -0.051408 0.200585 0.010495 0.180 0.500 0.200
v -0.049856 0.202652 0.006773 0.180 0.500 0.200
v -0.048424 0.204719 0.002620 0.180 0.500 0.200
v -0.047045 0.206786 -0.001722 0.180 0.500 0.200
v -0.045655 0.208853 -0.006026 0.180 0.500 0.200
v -0.044197 0.210920 -0.010085 0.180 0.500 0.200
v -0.042618 0.212987 -0.013712 0.180 0.500 0.200
v -0.040875 0.215054 -0.016747 0.180 0.500 0.200
v -0.038933 0.217121 -0.019065 0.180 0.500 0.200
v -0.036767 0.219189 -0.020580 0.180 0.500 0.200
v -0.034366 0.221256 -0.021248 0.180 0.500 0.200
v -0.031729 0.223323 -0.021069 0.180 0.500 0.200
v -0.028869 0.225390 -0.020086 0.180 0.500 0.200
v -0.025809 0.227457 -0.018386 0.180 0.500 0.200
v -0.022585 0.229524 -0.016095 0.180 0.500 0.200
v -0.019241 0.231591 -0.013372 0.180 0.500 0.200
v -0.015828 0.233658 -0.010403 0.180 0.500 0.200
v -0.012405 0.235725 -0.007397 0.180 0.500 0.200
v -0.009034 0.237792 -0.004579 0.180 0.500 0.200
v -0.005784 0.239859 -0.002193 0.180 0.500 0.200
v -0.002730 0.241926 -0.000514 0.180 0.500 0.200
f 661 662 663
f 661 663 662
f 661 663 664
f 661 664 663
f 661 664 665
f 661 665 664
f 661 665 666
f 661 666 665
f 661 666 667
f 661 667 666
f 661 667 668
f 661 668 667
f 661 668 669
f 661 669 668
f 661 669 670
f 661 670 669
f 661 670 671
f 661 671 670
f 661 671 672
f 661 672 671
f 661 672 673
f 661 673 672
f 661 673 674
f 661 674 673
f 661 674 675
f 661 675 674
f 661 675 676
f 661 676 675
f 661 676 677
f 661 677 676
f 661 677 678
f 661 678 677
f 661 678 679
f 661 679 678
f 661 679 680
f 661 680 679
f 661 680 681
f 661 681 680
f 661 681 682
f 661 682 681
f 661 682 683
f 661 683 682
f 661 683 684
f 661 684 683
f 661 684 685
f 661 685 684
f 661 685 686
f 661 686 685
f 661 686 687
f 661 687 686
f 661 687 688
f 661 688 687
f 661 688 689
f 661 689 688
f 661 689 690
f 661 690 689
f 661 690 691
f 661 691 690
f 661 691 692
f 661 692 691
f 661 692 693
f 661 693 692
f 661 693 694
f 661 694 693
f 661 694 695
f 661 695 694
f 661 695 696
f 661 696 695
f 661 696 697
f 661 697 696
f 661 697 698
f 661 698 697
f 661 698 699
f 661 699 698
f 661 699 700
f 661 700 699
f 661 700 701
f 661 701 700
f 661 701 702
f 661 702 701
f 661 702 703
f 661 703 702
f 661 703 704
f 661 704 703
f 661 704 705
f 661 705 704
f 661 705 706
f 661 706 705
v 0.000000 0.243993 -0.000000 0.180 0.500 0.200
v -0.001199 0.242604 0.002833 0.180 0.500 0.200
v -0.001577 0.241215 0.006512 0.180 0.500 0.200
v -0.001455 0.239826 0.010705 0.180 0.500 0.200
v -0.001030 0.238437 0.015210 0.180 0.500 0.200
v -0.000471 0.237048 0.019851 0.180 0.500 0.200
v 0.000061 0.235659 0.024466 0.180 0.500 0.200
v 0.000420 0.234270 0.028903 0.180 0.500 0.200
v 0.000475 0.232881 0.033026 0.180 0.500 0.200
v 0.000112 0.231492 0.036720 0.180 0.500 0.200
v -0.000757 0.230103 0.039894 0.180 0.500 0.200
v -0.002192 0.228714 0.042484 0.180 0.500 0.200
v -0.004225 0.227325 0.044461 0.180 0.500 0.200
v -0.006855 0.225936 0.045822 0.180 0.500 0.200
v -0.010052 0.224547 0.046600 0.180 0.500 0.200
v -0.013755 0.223158 0.046858 0.180 0.500 0.200
v -0.017875 0.221769 0.046687 0.180 0.500 0.200
v -0.022300 0.220379 0.046202 0.180 0.500 0.200
v -0.026897 0.218990 0.045540 0.180 0.500 0.200
v -0.031521 0.217601 0.044850 0.180 0.500 0.200
v -0.036013 0.216212 0.044297 0.180 0.500 0.200
v -0.040200 0.214823 0.044057 0.180 0.500 0.200
v -0.043888 0.213434 0.044330 0.180 0.500 0.200
v -0.046754 0.212045 0.045448 0.180 0.500 0.200
v -0.045555 0.213434 0.042615 0.180 0.500 0.200
v -0.045177 0.214823 0.038936 0.180 0.500 0.200
v -0.045299 0.216212 0.034744 0.180 0.500 0.200
v -0.045725 0.217601 0.030239 0.180 0.500 0.200
v -0.046283 0.218990 0.025597 0.180 0.500 0.200
v -0.046815 0.220379 0.020982 0.180 0.500 0.200
v -0.047174 0.221769 0.016546 0.180 0.500 0.200
v -0.047229 0.223158 0.012423 0.180 0.500 0.200
v -0.046866 0.224547 0.008729 0.180 0.500 0.200
v -0.045997 0.225936 0.005555 0.180 0.500 0.200
v -0.044562 0.227325 0.002964 0.180 0.500 0.200
v -0.042530 0.228714 0.000988 0.180 0.500 0.200
v -0.039899 0.230103 -0.000373 0.180 0.500 0.200
v -0.036702 0.231492 -0.001151 0.180 0.500 0.200
v -0.032999 0.232881 -0.001410 0.180 0.500 0.200
v -0.028879 0.234270 -0.001239 0.180 0.500 0.200
v -0.024455 0.235659 -0.000754 0.180 0.500 0.200
v -0.019857 0.237048 -0.000091 0.180 0.500 0.200
v -0.015233 0.238437 0.000599 0.180 0.500 0.200
v -0.010742 0.239826 0.001151 0.180 0.500 0.200
v -0.006554 0.241215 0.001392 0.180 0.500 0.200
v -0.002866 0.242604 0.001119 0.180 0.500 0.200
f 707 708 709
f 707 709 708
f 707 709 710
f 707 710 709
f 707 710 711
f 707 711 710
f 707 711 712
f 707 712 711
f 707 712 713
f 707 713 712
f 707 713 714
f 707 714 713
f 707 714 715
f 707 715 714
f 707 715 716
f 707 716 715
f 707 716 717
f 707 717 716
f 707 717 718
f 707 718 717
f 707 718 719
f 707 719 718
f 707 719 720
f 707 720 719
f 707 720 721
f 707 721 720
f 707 721 722
f 707 722 721
f 707 722 723
f 707 723 722
f 707 723 724
f 707 724 723
f 707 724 725
f 707 725 724
f 707 725 726
f 707 726 725
f 707 726 727
f 707 727 726
f 707 727 728
f 707 728 727
f 707 728 729
f 707 729 728
f 707 729 730
f 707 730 729
f 707 730 731
f 707 731 730
f 707 731 732
f 707 732 731
f 707 732 733
f 707 733 732
f 707 733 734
f 707 734 733
f 707 734 735
f 707 735 734
f 707 735 736
f 707 736 735
f 707 736 737
f 707 737 736
f 707 737 738
f 707 738 737
f 707 738 739
f 707 739 738
f 707 739 740
f 707 740 739
f 707 740 741
f 707 741 740
f 707 741 742
f 707 742 741
f 707 742 743
f 707 743 742
f 707 743 744
f 707 744 743
f 707 744 745
f 707 745 744
f 707 745 746
f 707 746 745
f 707 746 747
f 707 747 746
f 707 747 748
f 707 748 747
f 707 748 749
f 707 749 748
f 707 749 750
f 707 750 749
f 707 750 751
f 707 751 750
f 707 751 752
f 707 752 751
v 0.000000 0.243993 -0.000000 0.180 0.500 0.200
v 0.000273 0.242890 0.003256 0.180 0.500 0.200
v 0.001697 0.241786 0.006868 0.180 0.500 0.200
v 0.003819 0.240683 0.010695 0.180 0.500 0.200
v 0.006368 0.239579 0.014654 0.180 0.500 0.200
v 0.009102 0.238475 0.018670 0.180 0.500 0.200
v 0.011800 0.237372 0.022675 0.180 0.500 0.200
v 0.014256 0.236268 0.026605 0.180 0.500 0.200
v 0.016284 0.235165 0.030404 0.180 0.500 0.200
v 0.017728 0.234061 0.034021 0.180 0.500 0.200
v 0.018465 0.232958 0.037421 0.180 0.500 0.200
v 0.018407 0.231854 0.040575 0.180 0.500 0.200
v 0.017513 0.230751 0.043470 0.180 0.500 0.200
v 0.015782 0.229647 0.046107 0.180 0.500 0.200
v 0.013257 0.228543 0.048499 0.180 0.500 0.200
v 0.010024 0.227440 0.050672 0.180 0.500 0.200
v 0.006207 0.226336 0.052665 0.180 0.500 0.200
v 0.001963 0.225233 0.054526 0.180 0.500 0.200
v -0.002524 0.224129 0.056312 0.180 0.500 0.200
v -0.007047 0.223026 0.058087 0.180 0.500 0.200
v -0.011384 0.221922 0.059919 0.180 0.500 0.200
v -0.015295 0.220818 0.061883 0.180 0.500 0.200
v -0.018508 0.219715 0.064063 0.180 0.500 0.200
v -0.020569 0.218611 0.066598 0.180 0.500 0.200
v -0.020842 0.219715 0.063342 0.180 0.500 0.200
v -0.022265 0.220818 0.059730 0.180 0.500 0.200
v -0.024388 0.221922 0.055903 0.180 0.500 0.200
v -0.026937 0.223026 0.051944 0.180 0.500 0.200
v -0.029671 0.224129 0.047928 0.180 0.500 0.200
v -0.032369 0.225233 0.043923 0.180 0.500 0.200
v -0.034825 0.226336 0.039993 0.180 0.500 0.200
v -0.036853 0.227440 0.036194 0.180 0.500 0.200
v -0.038297 0.228543 0.032577 0.180 0.500 0.200
v -0.039034 0.229647 0.029177 0.180 0.500 0.200
v -0.038976 0.230751 0.026023 0.180 0.500 0.200
v -0.038082 0.231854 0.023128 0.180 0.500 0.200
v -0.036351 0.232958 0.020491 0.180 0.500 0.200
v -0.033826 0.234061 0.018099 0.180 0.500 0.200
v -0.030593 0.235165 0.015925 0.180 0.500 0.200
v -0.026776 0.236268 0.013933 0.180 0.500 0.200
v -0.022532 0.237372 0.012072 0.180 0.500 0.200
v -0.018045 0.238475 0.010285 0.180 0.500 0.200
v -0.013522 0.239579 0.008511 0.180 0.500 0.200
v -0.009185 0.240683 0.006678 0.180 0.500 0.200
v -0.005274 0.241786 0.004715 0.180 0.500 0.200
v -0.002061 0.242890 0.002535 0.180 0.500 0.200
f 753 754 755
f 753 755 754
f 753 755 756
f 753 756 755
f 753 756 757
f 753 757 756
f 753 757 758
f 753 758 757
f 753 758 759
f 753 759 758
f 753 759 760
f 753 760 759
f 753 760 761
f 753 761 760
f 753 761 762
f 753 762 761
f 753 762 763
f 753 763 762
f 753 763 764
f 753 764 763
f 753 764 765
f 753 765 764
f 753 765 766
f 753 766 765
f 753 766 767
f 753 767 766
f 753 767 768
f 753 768 767
f 753 768 769
f 753 769 768
f 753 769 770
f 753 770 769
f 753 770 771
f 753 771 770
f 753 771 772
f 753 772 771
f 753 772 773
f 753 773 772
f 753 773 774
f 753 774 773
f 753 774 775
f 753 775 774
f 753 775 776
f 753 776 775
f 753 776 777
f 753 777 776
f 753 777 778
f 753 778 777
f 753 778 779
f 753 779 778
f 753 779 780
f 753 780 779
f 753 780 781
f 753 781 780
f 753 781 782
f 753 782 781
f 753 782 783
f 753 783 782
f 753 783 784
f 753 784 783
f 753 784 785
f 753 785 784
f 753 785 786
f 753 786 785
f 753 786 787
f 753 787 786
f 753 787 788
f 753 788 787
f 753 788 789
f 753 789 788
f 753 789 790
f 753 790 789
f 753 790 791
f 753 791 790
f 753 791 792
f 753 792 791
f 753 792 793
f 753 793 792
f 753 793 794
f 753 794 793
f 753 794 795
f 753 795 794
f 753 795 796
f 753 796 795
f 753 796 797
f 753 797 796
f 753 797 798
f 753 798 797
v 0.000000 0.346027 -0.000000 0.180 0.500 0.200
v 0.001063 0.344745 -0.003114 0.180 0.500 0.200
v 0.001197 0.343463 -0.007039 0.180 0.500 0.200
v 0.000767 0.342182 -0.011458 0.180 0.500 0.200
v -0.000005 0.340900 -0.016177 0.180 0.500 0.200
v -0.000928 0.339619 -0.021028 0.180 0.500 0.200
v -0.001821 0.338337 -0.025852 0.180 0.500 0.200
v -0.002518 0.337055 -0.030506 0.180 0.500 0.200
v -0.002872 0.335774 -0.034858 0.180 0.500 0.200
v -0.002754 0.334492 -0.038798 0.180 0.500 0.200
v -0.002065 0.333210 -0.042238 0.180 0.500 0.200
v -0.000736 0.331929 -0.045119 0.180 0.500 0.200
v 0.001267 0.330647 -0.047409 0.180 0.500 0.200
v 0.003946 0.329365 -0.049109 0.180 0.500 0.200
v 0.007265 0.328084 -0.050249 0.180 0.500 0.200
v 0.011154 0.326802 -0.050889 0.180 0.500 0.200
v 0.015515 0.325520 -0.051117 0.180 0.500 0.200
v 0.020220 0.324239 -0.051044 0.180 0.500 0.200
v 0.025120 0.322957 -0.050799 0.180 0.500 0.200
v 0.030050 0.321675 -0.050529 0.180 0.500 0.200
v 0.034830 0.320394 -0.050391 0.180 0.500 0.200
v 0.039267 0.319112 -0.050552 0.180 0.500 0.200
v 0.043140 0.317830 -0.051207 0.180 0.500 0.200
v 0.046085 0.316549 -0.052673 0.180 0.500 0.200
v 0.045022 0.317830 -0.049560 0.180 0.500 0.200
v 0.044888 0.319112 -0.045634 0.180 0.500 0.200
v 0.045317 0.320394 -0.041215 0.180 0.500 0.200
v 0.046090 0.321675 -0.036496 0.180 0.500 0.200
v 0.047012 0.322957 -0.031646 0.180 0.500 0.200
v 0.047905 0.324239 -0.026821 0.180 0.500 0.200
v 0.048603 0.325520 -0.022168 0.180 0.500 0.200
v 0.048956 0.326802 -0.017815 0.180 0.500 0.200
v 0.048838 0.328084 -0.013875 0.180 0.500 0.200
v 0.048149 0.329365 -0.010435 0.180 0.500 0.200
v 0.046821 0.330647 -0.007554 0.180 0.500 0.200
v 0.044817 0.331929 -0.005264 0.180 0.500 0.200
v 0.042138 0.333210 -0.003564 0.180 0.500 0.200
v 0.038820 0.334492 -0.002425 0.180 0.500 0.200
v 0.034930 0.335774 -0.001784 0.180 0.500 0.200
v 0.030570 0.337055 -0.001556 0.180 0.500 0.200
v 0.025865 0.338337 -0.001630 0.180 0.500 0.200
v 0.020964 0.339619 -0.001874 0.180 0.500 0.200
v 0.016034 0.340900 -0.002144 0.180 0.500 0.200
v 0.011255 0.342182 -0.002283 0.180 0.500 0.200
v 0.006818 0.343463 -0.002121 0.180 0.500 0.200
v 0.002945 0.344745 -0.001467 0.180 0.500 0.200
f 799 800 801
f 799 801 800
f 799 801 802
f 799 802 801
f 799 802 803
f 799 803 802
f 799 803 804
f 799 804 803
f 799 804 805
f 799 805 804
f 799 805 806
f 799 806 805
f 799 806 807
f 799 807 806
f 799 807 808
f 799 808 807
f 799 808 809
f 799 809 808
f 799 809 810
f 799 810 809
f 799 810 811
f 799 811 810
f 799 811 812
f 799 812 811
f 799 812 813
f 799 813 812
f 799 813 814
f 799 814 813
f 799 814 815
f 799 815 814
f 799 815 816
f 799 816 815
f 799 816 817
f 799 817 816
f 799 817 818
f 799 818 817
f 799 818 819
f 799 819 818
f 799 819 820
f 799 820 819
f 799 820 821
f 799 821 820
f 799 821 822
f 799 822 821
f 799 822 823
f 799 823 822
f 799 823 824
f 799 824 823
f 799 824 825
f 799 825 824
f 799 825 826
f 799 826 825
f 799 826 827
f 799 827 826
f 799 827 828
f 799 828 827
f 799 828 829
f 799 829 828
f 799 829 830
f 799 830 829
f 799 830 831
f 799 831 830
f 799 831 832
f 799 832 831
f 799 832 833
f 799 833 832
f 799 833 834
f 799 834 833
f 799 834 835
f 799 835 834
f 799 835 836
f 799 836 835
f 799 836 837
f 799 837 836
f 799 837 838
f 799 838 837
f 799 838 839
f 799 839 838
f 799 839 840
f 799 840 839
f 799 840 841
f 799 841 840
f 799 841 842
f 799 842 841
f 799 842 843
f 799 843 842
f 799 843 844
f 799 844 843
v 0.000000 0.346027 -0.000000 0.180 0.500 0.200
v -0.000459 0.344965 -0.002642 0.180 0.500 0.200
v -0.001901 0.343903 -0.005502 0.180 0.500 0.200
v -0.003941 0.342841 -0.008495 0.180 0.500 0.200
v -0.006344 0.341778 -0.011569 0.180 0.500 0.200
v -0.008906 0.340716 -0.014678 0.180 0.500 0.200
v -0.011437 0.339654 -0.017780 0.180 0.500 0.200
v -0.013761 0.338592 -0.020836 0.180 0.500 0.200
v -0.015720 0.337530 -0.023811 0.180 0.500 0.200
v -0.017179 0.336468 -0.026675 0.180 0.500 0.200
v -0.018034 0.335406 -0.029405 0.180 0.500 0.200
v -0.018212 0.334344 -0.031984 0.180 0.500 0.200
v -0.017674 0.333282 -0.034404 0.180 0.500 0.200
v -0.016420 0.332220 -0.036665 0.180 0.500 0.200
v -0.014489 0.331158 -0.038775 0.180 0.500 0.200
v -0.011953 0.330096 -0.040751 0.180 0.500 0.200
v -0.008918 0.329034 -0.042615 0.180 0.500 0.200
v -0.005519 0.327972 -0.044399 0.180 0.500 0.200
v -0.001912 0.326909 -0.046137 0.180 0.500 0.200
v 0.001726 0.325847 -0.047867 0.180 0.500 0.200
v 0.005206 0.324785 -0.049633 0.180 0.500 0.200
v 0.008321 0.323723 -0.051480 0.180 0.500 0.200
v 0.010840 0.322661 -0.053460 0.180 0.500 0.200
v 0.012375 0.321599 -0.055658 0.180 0.500 0.200
v 0.012834 0.322661 -0.053016 0.180 0.500 0.200
v 0.014276 0.323723 -0.050156 0.180 0.500 0.200
v 0.016316 0.324785 -0.047163 0.180 0.500 0.200
v 0.018719 0.325847 -0.044089 0.180 0.500 0.200
v 0.021281 0.326909 -0.040980 0.180 0.500 0.200
v 0.023812 0.327972 -0.037878 0.180 0.500 0.200
v 0.026136 0.329034 -0.034822 0.180 0.500 0.200
v 0.028095 0.330096 -0.031846 0.180 0.500 0.200
v 0.029554 0.331158 -0.028982 0.180 0.500 0.200
v 0.030409 0.332220 -0.026253 0.180 0.500 0.200
v 0.030586 0.333282 -0.023674 0.180 0.500 0.200
v 0.030048 0.334344 -0.021254 0.180 0.500 0.200
v 0.028795 0.335406 -0.018993 0.180 0.500 0.200
v 0.026864 0.336468 -0.016883 0.180 0.500 0.200
v 0.024328 0.337530 -0.014907 0.180 0.500 0.200
v 0.021293 0.338592 -0.013042 0.180 0.500 0.200
v 0.017894 0.339654 -0.011259 0.180 0.500 0.200
v 0.014287 0.340716 -0.009521 0.180 0.500 0.200
v 0.010648 0.341778 -0.007791 0.180 0.500 0.200
v 0.007169 0.342841 -0.006025 0.180 0.500 0.200
v 0.004053 0.343903 -0.004178 0.180 0.500 0.200
v 0.001535 0.344965 -0.002198 0.180 0.500 0.200
f 845 846 847
f 845 847 846
f 845 847 848
f 845 848 847
f 845 848 849
f 845 849 848
f 845 849 850
f 845 850 849
f 845 850 851
f 845 851 850
f 845 851 852
f 845 852 851
f 845 852 853
f 845 853 852
f 845 853 854
f 845 854 853
f 845 854 855
f 845 855 854
f 845 855 856
f 845 856 855
f 845 856 857
f 845 857 856
f 845 857 858
f 845 858 857
f 845 858 859
f 845 859 858
f 845 859 860
f 845 860 859
f 845 860 861
f 845 861 860
f 845 861 862
f 845 862 861
f 845 862 863
f 845 863 862
f 845 863 864
f 845 864 863
f 845 864 865
f 845 865 864
f 845 865 866
f 845 866 865
f 845 866 867
f 845 867 866
f 845 867 868
f 845 868 867
f 845 868 869
f 845 869 868
f 845 869 870
f 845 870 869
f 845 870 871
f 845 871 870
f 845 871 872
f 845 872 871
f 845 872 873
f 845 873 872
f 845 873 874
f 845 874 873
f 845 874 875
f 845 875 874
f 845 875 876
f 845 876 875
f 845 876 877
f 845 877 876
f 845 877 878
f 845 878 877
f 845 878 879
f 845 879 878
f 845 879 880
f 845 880 879
f 845 880 881
f 845 881 880
f 845 881 882
f 845 882 881
f 845 882 883
f 845 883 882
f 845 883 884
f 845 884 883
f 845 884 885
f 845 885 884
f 845 885 886
f 845 886 885
f 845 886 887
f 845 887 886
f 845 887 888
f 845 888 887
f 845 888 889
f 845 889 888
f 845 889 890
f 845 890 889
v 0.000000 0.346027 -0.000000 0.180 0.500 0.200
v -0.002245 0.343657 -0.002513 0.180 0.500 0.200
v -0.005872 0.341286 -0.004627 0.180 0.500 0.200
v -0.010340 0.338916 -0.006499 0.180 0.500 0.200
v -0.015318 0.336546 -0.008222 0.180 0.500 0.200
v -0.020520 0.334176 -0.009882 0.180 0.500 0.200
v -0.025678 0.331806 -0.011553 0.180 0.500 0.200
v -0.030545 0.329436 -0.013309 0.180 0.500 0.200
v -0.034899 0.327066 -0.015214 0.180 0.500 0.200
v -0.038551 0.324695 -0.017320 0.180 0.500 0.200
v -0.041352 0.322325 -0.019673 0.180 0.500 0.200
v -0.043201 0.319955 -0.022301 0.180 0.500 0.200
v -0.044044 0.317585 -0.025219 0.180 0.500 0.200
v -0.043881 0.315215 -0.028428 0.180 0.500 0.200
v -0.042766 0.312845 -0.031912 0.180 0.500 0.200
v -0.040800 0.310474 -0.035642 0.180 0.500 0.200
v -0.038132 0.308104 -0.039574 0.180 0.500 0.200
v -0.034951 0.305734 -0.043655 0.180 0.500 0.200
v -0.031480 0.303364 -0.047820 0.180 0.500 0.200
v -0.027964 0.300994 -0.051997 0.180 0.500 0.200
v -0.024671 0.298624 -0.056110 0.180 0.500 0.200
v -0.021890 0.296253 -0.060076 0.180 0.500 0.200
v -0.019949 0.293883 -0.063798 0.180 0.500 0.200
v -0.019390 0.291513 -0.067122 0.180 0.500 0.200
v -0.017145 0.293883 -0.064608 0.180 0.500 0.200
v -0.013517 0.296253 -0.062494 0.180 0.500 0.200
v -0.009050 0.298624 -0.060623 0.180 0.500 0.200
v -0.004072 0.300994 -0.058899 0.180 0.500 0.200
v 0.001130 0.303364 -0.057240 0.180 0.500 0.200
v 0.006288 0.305734 -0.055568 0.180 0.500 0.200
v 0.011155 0.308104 -0.053812 0.180 0.500 0.200
v 0.015509 0.310474 -0.051908 0.180 0.500 0.200
v 0.019161 0.312845 -0.049801 0.180 0.500 0.200
v 0.021963 0.315215 -0.047449 0.180 0.500 0.200
v 0.023811 0.317585 -0.044821 0.180 0.500 0.200
v 0.024654 0.319955 -0.041903 0.180 0.500 0.200
v 0.024492 0.322325 -0.038694 0.180 0.500 0.200
v 0.023376 0.324695 -0.035210 0.180 0.500 0.200
v 0.021410 0.327066 -0.031480 0.180 0.500 0.200
v 0.018742 0.329436 -0.027547 0.180 0.500 0.200
v 0.015562 0.331806 -0.023467 0.180 0.500 0.200
v 0.012090 0.334176 -0.019302 0.180 0.500 0.200
v 0.008574 0.336546 -0.015124 0.180 0.500 0.200
v 0.005282 0.338916 -0.011011 0.180 0.500 0.200
v 0.002500 0.341286 -0.007046 0.180 0.500 0.200
v 0.000559 0.343657 -0.003323 0.180 0.500 0.200
f 891 892 893
f 891 893 892
f 891 893 894
f 891 894 893
f 891 894 895
f 891 895 894
f 891 895 896
f 891 896 895
f 891 896 897
f 891 897 896
f 891 897 898
f 891 898 897
f 891 898 899
f 891 899 898
f 891 899 900
f 891 900 899
f 891 900 901
f 891 901 900
f 891 901 902
f 891 902 901
f 891 902 903
f 891 903 902
f 891 903 904
f 891 904 903
f 891 904 905
f 891 905 904
f 891 905 906
f 891 906 905
f 891 906 907
f 891 907 906
f 891 907 908
f 891 908 907
f 891 908 909
f 891 909 908
f 891 909 910
f 891 910 909
f 891 910 911
f 891 911 910
f 891 911 912
f 891 912 911
f 891 912 913
f 891 913 912
f 891 913 914
f 891 914 913
f 891 914 915
f 891 915 914
f 891 915 916
f 891 916 915
f 891 916 917
f 891 917 916
f 891 917 918
f 891 918 917
f 891 918 919
f 891 919 918
f 891 919 920
f 891 920 919
f 891 920 921
f 891 921 920
f 891 921 922
f 891 922 921
f 891 922 923
f 891 923 922
f 891 923 924
f 891 924 923
f 891 924 925
f 891 925 924
f 891 925 926
f 891 926 925
f 891 926 927
f 891 927 926
f 891 927 928
f 891 928 927
f 891 928 929
f 891 929 928
f 891 929 930
f 891 930 929
f 891 930 931
f 891 931 930
f 891 931 932
f 891 932 931
f 891 932 933
f 891 933 932
f 891 933 934
f 891 934 933
f 891 934 935
f 891 935 934
f 891 935 936
f 891 936 935
