o mesh
v -0.650000 0.400000 1.829147
v 0.650000 0.400000 1.829147
v 0.650000 2.600000 1.829147
v -0.650000 2.600000 1.829147
f 1 2 3
f 1 3 4
v 0.000000 2.600000 1.829147
v 0.650000 2.600000 1.829147
v 0.600522 2.848744 1.829147
f 5 6 7
v 0.000000 2.600000 1.829147
v 0.600522 2.848744 1.829147
v 0.459619 3.059619 1.829147
f 8 9 10
v 0.000000 2.600000 1.829147
v 0.459619 3.059619 1.829147
v 0.248744 3.200522 1.829147
f 11 12 13
v 0.000000 2.600000 1.829147
v 0.248744 3.200522 1.829147
v 0.000000 3.250000 1.829147
f 14 15 16
v 0.000000 2.600000 1.829147
v 0.000000 3.250000 1.829147
v -0.248744 3.200522 1.829147
f 17 18 19
v 0.000000 2.600000 1.829147
v -0.248744 3.200522 1.829147
v -0.459619 3.059619 1.829147
f 20 21 22
v 0.000000 2.600000 1.829147
v -0.459619 3.059619 1.829147
v -0.600522 2.848744 1.829147
f 23 24 25
v 0.000000 2.600000 1.829147
v -0.600522 2.848744 1.829147
v -0.650000 2.600000 1.829147
f 26 27 28
