o mesh
v -2.016638 0.000000 2.357525
v -2.016638 0.000000 1.178762
v -2.016638 0.900000 1.178762
v -2.016638 0.900000 2.357525
f 1 2 3
f 1 3 4
v -2.016638 0.000000 1.178762
v -2.016638 0.000000 -0.000000
v -2.016638 0.900000 -0.000000
v -2.016638 0.900000 1.178762
f 5 6 7
f 5 7 8
v -2.016638 0.000000 -1.178762
v -2.016638 0.000000 -2.357525
v -2.016638 0.900000 -2.357525
v -2.016638 0.900000 -1.178762
f 9 10 11
f 9 11 12
v 2.016638 0.000000 2.357525
v 2.016638 0.000000 1.178762
v 2.016638 0.900000 1.178762
v 2.016638 0.900000 2.357525
f 13 14 15
f 13 15 16
v 2.016638 0.000000 1.178762
v 2.016638 0.000000 -0.000000
v 2.016638 0.900000 -0.000000
v 2.016638 0.900000 1.178762
f 17 18 19
f 17 19 20
v 2.016638 0.000000 -0.000000
v 2.016638 0.000000 -1.178762
v 2.016638 0.900000 -1.178762
v 2.016638 0.900000 -0.000000
f 21 22 23
f 21 23 24
v 2.016638 0.000000 -1.178762
v 2.016638 0.000000 -2.357525
v 2.016638 0.900000 -2.357525
v 2.016638 0.900000 -1.178762
f 25 26 27
f 25 27 28
v 2.016638 0.000000 -2.357525
v 0.672213 0.000000 -2.357525
v 0.672213 0.900000 -2.357525
v 2.016638 0.900000 -2.357525
f 29 30 31
f 29 31 32
v 0.672213 0.000000 -2.357525
v -0.672213 0.000000 -2.357525
v -0.672213 0.900000 -2.357525
v 0.672213 0.900000 -2.357525
f 33 34 35
f 33 35 36
v -0.672213 0.000000 -2.357525
v -2.016638 0.000000 -2.357525
v -2.016638 0.900000 -2.357525
v -0.672213 0.900000 -2.357525
f 37 38 39
f 37 39 40
v 2.016638 0.000000 2.357525
v 0.672213 0.000000 2.357525
v 0.672213 0.900000 2.357525
v 2.016638 0.900000 2.357525
f 41 42 43
f 41 43 44
v 0.672213 0.000000 2.357525
v -0.672213 0.000000 2.357525
v -0.672213 0.900000 2.357525
v 0.672213 0.900000 2.357525
f 45 46 47
f 45 47 48
v -0.672213 0.000000 2.357525
v -2.016638 0.000000 2.357525
v -2.016638 0.900000 2.357525
v -0.672213 0.900000 2.357525
f 49 50 51
f 49 51 52
