o mesh
v 2.879783 0.000000 -0.000000
v 2.660572 0.000000 -1.102045
v 2.610730 3.400000 -1.081400
v 2.825833 3.400000 -0.000000
f 1 2 3
f 1 3 4
v 2.625389 2.400000 -1.087472
v 2.009386 2.400000 -2.009386
v 1.998166 3.400000 -1.998166
v 2.610730 3.400000 -1.081400
f 5 6 7
f 5 7 8
v 2.036314 0.000000 -2.036314
v 1.102045 0.000000 -2.660572
v 1.081400 3.400000 -2.610730
v 1.998166 3.400000 -1.998166
f 9 10 11
f 9 11 12
v 1.102045 0.000000 -2.660572
v 0.000000 0.000000 -2.879783
v 0.000000 3.400000 -2.825833
v 1.081400 3.400000 -2.610730
f 13 14 15
f 13 15 16
v 0.000000 0.000000 -2.879783
v -1.102045 0.000000 -2.660572
v -1.081400 3.400000 -2.610730
v 0.000000 3.400000 -2.825833
f 17 18 19
f 17 19 20
v -1.102045 0.000000 -2.660572
v -2.036314 0.000000 -2.036314
v -1.998166 3.400000 -1.998166
v -1.081400 3.400000 -2.610730
f 21 22 23
f 21 23 24
v -2.036314 0.000000 -2.036314
v -2.660572 0.000000 -1.102045
v -2.610730 3.400000 -1.081400
v -1.998166 3.400000 -1.998166
f 25 26 27
f 25 27 28
v -2.660572 0.000000 -1.102045
v -2.879783 0.000000 -0.000000
v -2.825833 3.400000 -0.000000
v -2.610730 3.400000 -1.081400
f 29 30 31
f 29 31 32
v -2.879783 0.000000 -0.000000
v -2.660572 0.000000 1.102045
v -2.610730 3.400000 1.081400
v -2.825833 3.400000 -0.000000
f 33 34 35
f 33 35 36
v -2.660572 0.000000 1.102045
v -2.036314 0.000000 2.036314
v -1.998166 3.400000 1.998166
v -2.610730 3.400000 1.081400
f 37 38 39
f 37 39 40
v -2.036314 0.000000 2.036314
v -1.102045 0.000000 2.660572
v -1.081400 3.400000 2.610730
v -1.998166 3.400000 1.998166
f 41 42 43
f 41 43 44
v -1.102045 0.000000 2.660572
v -0.000000 0.000000 2.879783
v -0.000000 3.400000 2.825833
v -1.081400 3.400000 2.610730
f 45 46 47
f 45 47 48
v -0.000000 0.000000 2.879783
v 1.102045 0.000000 2.660572
v 1.081400 3.400000 2.610730
v -0.000000 3.400000 2.825833
f 49 50 51
f 49 51 52
v 1.102045 0.000000 2.660572
v 2.036314 0.000000 2.036314
v 1.998166 3.400000 1.998166
v 1.081400 3.400000 2.610730
f 53 54 55
f 53 55 56
v 2.036314 0.000000 2.036314
v 2.660572 0.000000 1.102045
v 2.610730 3.400000 1.081400
v 1.998166 3.400000 1.998166
f 57 58 59
f 57 59 60
v 2.660572 0.000000 1.102045
v 2.879783 0.000000 -0.000000
v 2.825833 3.400000 -0.000000
v 2.610730 3.400000 1.081400
f 61 62 63
f 61 63 64
v 2.879783 0.020000 -0.000000
v 2.660572 0.020000 -1.102045
v 2.036314 0.020000 -2.036314
v 1.102045 0.020000 -2.660572
v 0.000000 0.020000 -2.879783
v -1.102045 0.020000 -2.660572
v -2.036314 0.020000 -2.036314
v -2.660572 0.020000 -1.102045
v -2.879783 0.020000 -0.000000
v -2.660572 0.020000 1.102045
v -2.036314 0.020000 2.036314
v -1.102045 0.020000 2.660572
v -0.000000 0.020000 2.879783
v 1.102045 0.020000 2.660572
v 2.036314 0.020000 2.036314
v 2.660572 0.020000 1.102045
v 0.000000 0.020000 -0.000000
f 81 65 66
f 81 66 65
f 81 66 67
f 81 67 66
f 81 67 68
f 81 68 67
f 81 68 69
f 81 69 68
f 81 69 70
f 81 70 69
f 81 70 71
f 81 71 70
f 81 71 72
f 81 72 71
f 81 72 73
f 81 73 72
f 81 73 74
f 81 74 73
f 81 74 75
f 81 75 74
f 81 75 76
f 81 76 75
f 81 76 77
f 81 77 76
f 81 77 78
f 81 78 77
f 81 78 79
f 81 79 78
f 81 79 80
f 81 80 79
f 81 80 65
f 81 65 80
v 2.825833 3.400000 -0.000000
v 2.610730 3.400000 -1.081400
v 2.560887 6.800000 -1.060754
v 2.771884 6.800000 -0.000000
f 82 83 84
f 82 84 85
v 2.610730 3.400000 -1.081400
v 1.998166 3.400000 -1.998166
v 1.986946 4.400000 -1.986946
v 2.596070 4.400000 -1.075327
f 86 87 88
f 86 88 89
v 2.577013 5.700000 -1.067434
v 1.972360 5.700000 -1.972360
v 1.960018 6.800000 -1.960018
v 2.560887 6.800000 -1.060754
f 90 91 92
f 90 92 93
v 1.998166 3.400000 -1.998166
v 1.081400 3.400000 -2.610730
v 1.060754 6.800000 -2.560887
v 1.960018 6.800000 -1.960018
f 94 95 96
f 94 96 97
v 1.081400 3.400000 -2.610730
v 0.000000 3.400000 -2.825833
v 0.000000 6.800000 -2.771884
v 1.060754 6.800000 -2.560887
f 98 99 100
f 98 100 101
v 0.000000 3.400000 -2.825833
v -1.081400 3.400000 -2.610730
v -1.060754 6.800000 -2.560887
v 0.000000 6.800000 -2.771884
f 102 103 104
f 102 104 105
v -1.081400 3.400000 -2.610730
v -1.998166 3.400000 -1.998166
v -1.986946 4.400000 -1.986946
v -1.075327 4.400000 -2.596070
f 106 107 108
f 106 108 109
v -1.067434 5.700000 -2.577013
v -1.972360 5.700000 -1.972360
v -1.960018 6.800000 -1.960018
v -1.060754 6.800000 -2.560887
f 110 111 112
f 110 112 113
v -1.998166 3.400000 -1.998166
v -2.610730 3.400000 -1.081400
v -2.560887 6.800000 -1.060754
v -1.960018 6.800000 -1.960018
f 114 115 116
f 114 116 117
v -2.610730 3.400000 -1.081400
v -2.825833 3.400000 -0.000000
v -2.771884 6.800000 -0.000000
v -2.560887 6.800000 -1.060754
f 118 119 120
f 118 120 121
v -2.825833 3.400000 -0.000000
v -2.610730 3.400000 1.081400
v -2.560887 6.800000 1.060754
v -2.771884 6.800000 -0.000000
f 122 123 124
f 122 124 125
v -2.610730 3.400000 1.081400
v -1.998166 3.400000 1.998166
v -1.986946 4.400000 1.986946
v -2.596070 4.400000 1.075327
f 126 127 128
f 126 128 129
v -2.577013 5.700000 1.067434
v -1.972360 5.700000 1.972360
v -1.960018 6.800000 1.960018
v -2.560887 6.800000 1.060754
f 130 131 132
f 130 132 133
v -1.998166 3.400000 1.998166
v -1.081400 3.400000 2.610730
v -1.060754 6.800000 2.560887
v -1.960018 6.800000 1.960018
f 134 135 136
f 134 136 137
v -1.081400 3.400000 2.610730
v -0.000000 3.400000 2.825833
v -0.000000 6.800000 2.771884
v -1.060754 6.800000 2.560887
f 138 139 140
f 138 140 141
v -0.000000 3.400000 2.825833
v 1.081400 3.400000 2.610730
v 1.060754 6.800000 2.560887
v -0.000000 6.800000 2.771884
f 142 143 144
f 142 144 145
v 1.081400 3.400000 2.610730
v 1.998166 3.400000 1.998166
v 1.986946 4.400000 1.986946
v 1.075327 4.400000 2.596070
f 146 147 148
f 146 148 149
v 1.067434 5.700000 2.577013
v 1.972360 5.700000 1.972360
v 1.960018 6.800000 1.960018
v 1.060754 6.800000 2.560887
f 150 151 152
f 150 152 153
v 1.998166 3.400000 1.998166
v 2.610730 3.400000 1.081400
v 2.560887 6.800000 1.060754
v 1.960018 6.800000 1.960018
f 154 155 156
f 154 156 157
v 2.610730 3.400000 1.081400
v 2.825833 3.400000 -0.000000
v 2.771884 6.800000 -0.000000
v 2.560887 6.800000 1.060754
f 158 159 160
f 158 160 161
v 2.825833 3.400000 -0.000000
v 2.610730 3.400000 -1.081400
v 1.998166 3.400000 -1.998166
v 1.081400 3.400000 -2.610730
v 0.000000 3.400000 -2.825833
v -1.081400 3.400000 -2.610730
v -1.998166 3.400000 -1.998166
v -2.610730 3.400000 -1.081400
v -2.825833 3.400000 -0.000000
v -2.610730 3.400000 1.081400
v -1.998166 3.400000 1.998166
v -1.081400 3.400000 2.610730
v -0.000000 3.400000 2.825833
v 1.081400 3.400000 2.610730
v 1.998166 3.400000 1.998166
v 2.610730 3.400000 1.081400
v 1.300000 3.400000 -0.000000
v 1.201043 3.400000 -0.497488
v 0.919239 3.400000 -0.919239
v 0.497488 3.400000 -1.201043
v 0.000000 3.400000 -1.300000
v -0.497488 3.400000 -1.201043
v -0.919239 3.400000 -0.919239
v -1.201043 3.400000 -0.497488
v -1.300000 3.400000 -0.000000
v -1.201043 3.400000 0.497488
v -0.919239 3.400000 0.919239
v -0.497488 3.400000 1.201043
v -0.000000 3.400000 1.300000
v 0.497488 3.400000 1.201043
v 0.919239 3.400000 0.919239
v 1.201043 3.400000 0.497488
f 162 163 179
f 179 163 162
f 162 179 178
f 178 179 162
f 163 164 180
f 180 164 163
f 163 180 179
f 179 180 163
f 164 165 181
f 181 165 164
f 164 181 180
f 180 181 164
f 165 166 182
f 182 166 165
f 165 182 181
f 181 182 165
f 166 167 183
f 183 167 166
f 166 183 182
f 182 183 166
f 167 168 184
f 184 168 167
f 167 184 183
f 183 184 167
f 168 169 185
f 185 169 168
f 168 185 184
f 184 185 168
f 169 170 186
f 186 170 169
f 169 186 185
f 185 186 169
f 170 171 187
f 187 171 170
f 170 187 186
f 186 187 170
f 171 172 188
f 188 172 171
f 171 188 187
f 187 188 171
f 172 173 189
f 189 173 172
f 172 189 188
f 188 189 172
f 173 174 190
f 190 174 173
f 173 190 189
f 189 190 173
f 174 175 191
f 191 175 174
f 174 191 190
f 190 191 174
f 175 176 192
f 192 176 175
f 175 192 191
f 191 192 175
f 176 177 193
f 193 177 176
f 176 193 192
f 192 193 176
f 177 162 178
f 178 162 177
f 177 178 193
f 193 178 177
v 2.771884 6.800000 -0.000000
v 2.560887 6.800000 -1.060754
v 2.511044 10.200000 -1.040109
v 2.717935 10.200000 -0.000000
f 194 195 196
f 194 196 197
v 2.560887 6.800000 -1.060754
v 1.960018 6.800000 -1.960018
v 1.921870 10.200000 -1.921870
v 2.511044 10.200000 -1.040109
f 198 199 200
f 198 200 201
v 1.960018 6.800000 -1.960018
v 1.060754 6.800000 -2.560887
v 1.054682 7.800000 -2.546227
v 1.948798 7.800000 -1.948798
f 202 203 204
f 202 204 205
v 1.934212 9.100000 -1.934212
v 1.046788 9.100000 -2.527170
v 1.040109 10.200000 -2.511044
v 1.921870 10.200000 -1.921870
f 206 207 208
f 206 208 209
v 1.060754 6.800000 -2.560887
v 0.000000 6.800000 -2.771884
v 0.000000 10.200000 -2.717935
v 1.040109 10.200000 -2.511044
f 210 211 212
f 210 212 213
v 0.000000 6.800000 -2.771884
v -1.060754 6.800000 -2.560887
v -1.040109 10.200000 -2.511044
v 0.000000 10.200000 -2.717935
f 214 215 216
f 214 216 217
v -1.060754 6.800000 -2.560887
v -1.960018 6.800000 -1.960018
v -1.921870 10.200000 -1.921870
v -1.040109 10.200000 -2.511044
f 218 219 220
f 218 220 221
v -1.960018 6.800000 -1.960018
v -2.560887 6.800000 -1.060754
v -2.546227 7.800000 -1.054682
v -1.948798 7.800000 -1.948798
f 222 223 224
f 222 224 225
v -1.934212 9.100000 -1.934212
v -2.527170 9.100000 -1.046788
v -2.511044 10.200000 -1.040109
v -1.921870 10.200000 -1.921870
f 226 227 228
f 226 228 229
v -2.560887 6.800000 -1.060754
v -2.771884 6.800000 -0.000000
v -2.717935 10.200000 -0.000000
v -2.511044 10.200000 -1.040109
f 230 231 232
f 230 232 233
v -2.771884 6.800000 -0.000000
v -2.560887 6.800000 1.060754
v -2.511044 10.200000 1.040109
v -2.717935 10.200000 -0.000000
f 234 235 236
f 234 236 237
v -2.560887 6.800000 1.060754
v -1.960018 6.800000 1.960018
v -1.921870 10.200000 1.921870
v -2.511044 10.200000 1.040109
f 238 239 240
f 238 240 241
v -1.960018 6.800000 1.960018
v -1.060754 6.800000 2.560887
v -1.054682 7.800000 2.546227
v -1.948798 7.800000 1.948798
f 242 243 244
f 242 244 245
v -1.934212 9.100000 1.934212
v -1.046788 9.100000 2.527170
v -1.040109 10.200000 2.511044
v -1.921870 10.200000 1.921870
f 246 247 248
f 246 248 249
v -1.060754 6.800000 2.560887
v -0.000000 6.800000 2.771884
v -0.000000 10.200000 2.717935
v -1.040109 10.200000 2.511044
f 250 251 252
f 250 252 253
v -0.000000 6.800000 2.771884
v 1.060754 6.800000 2.560887
v 1.040109 10.200000 2.511044
v -0.000000 10.200000 2.717935
f 254 255 256
f 254 256 257
v 1.060754 6.800000 2.560887
v 1.960018 6.800000 1.960018
v 1.921870 10.200000 1.921870
v 1.040109 10.200000 2.511044
f 258 259 260
f 258 260 261
v 1.960018 6.800000 1.960018
v 2.560887 6.800000 1.060754
v 2.546227 7.800000 1.054682
v 1.948798 7.800000 1.948798
f 262 263 264
f 262 264 265
v 1.934212 9.100000 1.934212
v 2.527170 9.100000 1.046788
v 2.511044 10.200000 1.040109
v 1.921870 10.200000 1.921870
f 266 267 268
f 266 268 269
v 2.560887 6.800000 1.060754
v 2.771884 6.800000 -0.000000
v 2.717935 10.200000 -0.000000
v 2.511044 10.200000 1.040109
f 270 271 272
f 270 272 273
v 2.771884 6.800000 -0.000000
v 2.560887 6.800000 -1.060754
v 1.960018 6.800000 -1.960018
v 1.060754 6.800000 -2.560887
v 0.000000 6.800000 -2.771884
v -1.060754 6.800000 -2.560887
v -1.960018 6.800000 -1.960018
v -2.560887 6.800000 -1.060754
v -2.771884 6.800000 -0.000000
v -2.560887 6.800000 1.060754
v -1.960018 6.800000 1.960018
v -1.060754 6.800000 2.560887
v -0.000000 6.800000 2.771884
v 1.060754 6.800000 2.560887
v 1.960018 6.800000 1.960018
v 2.560887 6.800000 1.060754
v 1.300000 6.800000 -0.000000
v 1.201043 6.800000 -0.497488
v 0.919239 6.800000 -0.919239
v 0.497488 6.800000 -1.201043
v 0.000000 6.800000 -1.300000
v -0.497488 6.800000 -1.201043
v -0.919239 6.800000 -0.919239
v -1.201043 6.800000 -0.497488
v -1.300000 6.800000 -0.000000
v -1.201043 6.800000 0.497488
v -0.919239 6.800000 0.919239
v -0.497488 6.800000 1.201043
v -0.000000 6.800000 1.300000
v 0.497488 6.800000 1.201043
v 0.919239 6.800000 0.919239
v 1.201043 6.800000 0.497488
f 274 275 291
f 291 275 274
f 274 291 290
f 290 291 274
f 275 276 292
f 292 276 275
f 275 292 291
f 291 292 275
f 276 277 293
f 293 277 276
f 276 293 292
f 292 293 276
f 277 278 294
f 294 278 277
f 277 294 293
f 293 294 277
f 278 279 295
f 295 279 278
f 278 295 294
f 294 295 278
f 279 280 296
f 296 280 279
f 279 296 295
f 295 296 279
f 280 281 297
f 297 281 280
f 280 297 296
f 296 297 280
f 281 282 298
f 298 282 281
f 281 298 297
f 297 298 281
f 282 283 299
f 299 283 282
f 282 299 298
f 298 299 282
f 283 284 300
f 300 284 283
f 283 300 299
f 299 300 283
f 284 285 301
f 301 285 284
f 284 301 300
f 300 301 284
f 285 286 302
f 302 286 285
f 285 302 301
f 301 302 285
f 286 287 303
f 303 287 286
f 286 303 302
f 302 303 286
f 287 288 304
f 304 288 287
f 287 304 303
f 303 304 287
f 288 289 305
f 305 289 288
f 288 305 304
f 304 305 288
f 289 274 290
f 290 274 289
f 289 290 305
f 305 290 289
v 2.717935 10.200000 -0.000000
v 2.511044 10.200000 -1.040109
v 2.461202 13.600000 -1.019463
v 2.663985 13.600000 -0.000000
f 306 307 308
f 306 308 309
v 2.511044 10.200000 -1.040109
v 1.921870 10.200000 -1.921870
v 1.883722 13.600000 -1.883722
v 2.461202 13.600000 -1.019463
f 310 311 312
f 310 312 313
v 1.921870 10.200000 -1.921870
v 1.040109 10.200000 -2.511044
v 1.019463 13.600000 -2.461202
v 1.883722 13.600000 -1.883722
f 314 315 316
f 314 316 317
v 1.040109 10.200000 -2.511044
v 0.000000 10.200000 -2.717935
v 0.000000 11.200000 -2.702067
v 1.034036 11.200000 -2.496385
f 318 319 320
f 318 320 321
v 1.026143 12.500000 -2.477327
v 0.000000 12.500000 -2.681440
v 0.000000 13.600000 -2.663985
v 1.019463 13.600000 -2.461202
f 322 323 324
f 322 324 325
v 0.000000 10.200000 -2.717935
v -1.040109 10.200000 -2.511044
v -1.019463 13.600000 -2.461202
v 0.000000 13.600000 -2.663985
f 326 327 328
f 326 328 329
v -1.040109 10.200000 -2.511044
v -1.921870 10.200000 -1.921870
v -1.883722 13.600000 -1.883722
v -1.019463 13.600000 -2.461202
f 330 331 332
f 330 332 333
v -1.921870 10.200000 -1.921870
v -2.511044 10.200000 -1.040109
v -2.461202 13.600000 -1.019463
v -1.883722 13.600000 -1.883722
f 334 335 336
f 334 336 337
v -2.511044 10.200000 -1.040109
v -2.717935 10.200000 -0.000000
v -2.702067 11.200000 -0.000000
v -2.496385 11.200000 -1.034036
f 338 339 340
f 338 340 341
v -2.477327 12.500000 -1.026143
v -2.681440 12.500000 -0.000000
v -2.663985 13.600000 -0.000000
v -2.461202 13.600000 -1.019463
f 342 343 344
f 342 344 345
v -2.717935 10.200000 -0.000000
v -2.511044 10.200000 1.040109
v -2.461202 13.600000 1.019463
v -2.663985 13.600000 -0.000000
f 346 347 348
f 346 348 349
v -2.511044 10.200000 1.040109
v -1.921870 10.200000 1.921870
v -1.883722 13.600000 1.883722
v -2.461202 13.600000 1.019463
f 350 351 352
f 350 352 353
v -1.921870 10.200000 1.921870
v -1.040109 10.200000 2.511044
v -1.019463 13.600000 2.461202
v -1.883722 13.600000 1.883722
f 354 355 356
f 354 356 357
v -1.040109 10.200000 2.511044
v -0.000000 10.200000 2.717935
v -0.000000 11.200000 2.702067
v -1.034036 11.200000 2.496385
f 358 359 360
f 358 360 361
v -1.026143 12.500000 2.477327
v -0.000000 12.500000 2.681440
v -0.000000 13.600000 2.663985
v -1.019463 13.600000 2.461202
f 362 363 364
f 362 364 365
v -0.000000 10.200000 2.717935
v 1.040109 10.200000 2.511044
v 1.019463 13.600000 2.461202
v -0.000000 13.600000 2.663985
f 366 367 368
f 366 368 369
v 1.040109 10.200000 2.511044
v 1.921870 10.200000 1.921870
v 1.883722 13.600000 1.883722
v 1.019463 13.600000 2.461202
f 370 371 372
f 370 372 373
v 1.921870 10.200000 1.921870
v 2.511044 10.200000 1.040109
v 2.461202 13.600000 1.019463
v 1.883722 13.600000 1.883722
f 374 375 376
f 374 376 377
v 2.511044 10.200000 1.040109
v 2.717935 10.200000 -0.000000
v 2.702067 11.200000 -0.000000
v 2.496385 11.200000 1.034036
f 378 379 380
f 378 380 381
v 2.477327 12.500000 1.026143
v 2.681440 12.500000 -0.000000
v 2.663985 13.600000 -0.000000
v 2.461202 13.600000 1.019463
f 382 383 384
f 382 384 385
v 2.717935 10.200000 -0.000000
v 2.511044 10.200000 -1.040109
v 1.921870 10.200000 -1.921870
v 1.040109 10.200000 -2.511044
v 0.000000 10.200000 -2.717935
v -1.040109 10.200000 -2.511044
v -1.921870 10.200000 -1.921870
v -2.511044 10.200000 -1.040109
v -2.717935 10.200000 -0.000000
v -2.511044 10.200000 1.040109
v -1.921870 10.200000 1.921870
v -1.040109 10.200000 2.511044
v -0.000000 10.200000 2.717935
v 1.040109 10.200000 2.511044
v 1.921870 10.200000 1.921870
v 2.511044 10.200000 1.040109
v 1.300000 10.200000 -0.000000
v 1.201043 10.200000 -0.497488
v 0.919239 10.200000 -0.919239
v 0.497488 10.200000 -1.201043
v 0.000000 10.200000 -1.300000
v -0.497488 10.200000 -1.201043
v -0.919239 10.200000 -0.919239
v -1.201043 10.200000 -0.497488
v -1.300000 10.200000 -0.000000
v -1.201043 10.200000 0.497488
v -0.919239 10.200000 0.919239
v -0.497488 10.200000 1.201043
v -0.000000 10.200000 1.300000
v 0.497488 10.200000 1.201043
v 0.919239 10.200000 0.919239
v 1.201043 10.200000 0.497488
f 386 387 403
f 403 387 386
f 386 403 402
f 402 403 386
f 387 388 404
f 404 388 387
f 387 404 403
f 403 404 387
f 388 389 405
f 405 389 388
f 388 405 404
f 404 405 388
f 389 390 406
f 406 390 389
f 389 406 405
f 405 406 389
f 390 391 407
f 407 391 390
f 390 407 406
f 406 407 390
f 391 392 408
f 408 392 391
f 391 408 407
f 407 408 391
f 392 393 409
f 409 393 392
f 392 409 408
f 408 409 392
f 393 394 410
f 410 394 393
f 393 410 409
f 409 410 393
f 394 395 411
f 411 395 394
f 394 411 410
f 410 411 394
f 395 396 412
f 412 396 395
f 395 412 411
f 411 412 395
f 396 397 413
f 413 397 396
f 396 413 412
f 412 413 396
f 397 398 414
f 414 398 397
f 397 414 413
f 413 414 397
f 398 399 415
f 415 399 398
f 398 415 414
f 414 415 398
f 399 400 416
f 416 400 399
f 399 416 415
f 415 416 399
f 400 401 417
f 417 401 400
f 400 417 416
f 416 417 400
f 401 386 402
f 402 386 401
f 401 402 417
f 417 402 401
v 2.663985 13.600000 -0.000000
v 2.461202 13.600000 -1.019463
v 2.446542 14.600000 -1.013391
v 2.648118 14.600000 -0.000000
f 418 419 420
f 418 420 421
v 2.627490 15.900000 -0.000000
v 2.427484 15.900000 -1.005497
v 2.411359 17.000000 -0.998818
v 2.610036 17.000000 -0.000000
f 422 423 424
f 422 424 425
v 2.461202 13.600000 -1.019463
v 1.883722 13.600000 -1.883722
v 1.845574 17.000000 -1.845574
v 2.411359 17.000000 -0.998818
f 426 427 428
f 426 428 429
v 1.883722 13.600000 -1.883722
v 1.019463 13.600000 -2.461202
v 0.998818 17.000000 -2.411359
v 1.845574 17.000000 -1.845574
f 430 431 432
f 430 432 433
v 1.019463 13.600000 -2.461202
v 0.000000 13.600000 -2.663985
v 0.000000 17.000000 -2.610036
v 0.998818 17.000000 -2.411359
f 434 435 436
f 434 436 437
v 0.000000 13.600000 -2.663985
v -1.019463 13.600000 -2.461202
v -1.013391 14.600000 -2.446542
v 0.000000 14.600000 -2.648118
f 438 439 440
f 438 440 441
v 0.000000 15.900000 -2.627490
v -1.005497 15.900000 -2.427484
v -0.998818 17.000000 -2.411359
v 0.000000 17.000000 -2.610036
f 442 443 444
f 442 444 445
v -1.019463 13.600000 -2.461202
v -1.883722 13.600000 -1.883722
v -1.845574 17.000000 -1.845574
v -0.998818 17.000000 -2.411359
f 446 447 448
f 446 448 449
v -1.883722 13.600000 -1.883722
v -2.461202 13.600000 -1.019463
v -2.411359 17.000000 -0.998818
v -1.845574 17.000000 -1.845574
f 450 451 452
f 450 452 453
v -2.461202 13.600000 -1.019463
v -2.663985 13.600000 -0.000000
v -2.610036 17.000000 -0.000000
v -2.411359 17.000000 -0.998818
f 454 455 456
f 454 456 457
v -2.663985 13.600000 -0.000000
v -2.461202 13.600000 1.019463
v -2.446542 14.600000 1.013391
v -2.648118 14.600000 -0.000000
f 458 459 460
f 458 460 461
v -2.627490 15.900000 -0.000000
v -2.427484 15.900000 1.005497
v -2.411359 17.000000 0.998818
v -2.610036 17.000000 -0.000000
f 462 463 464
f 462 464 465
v -2.461202 13.600000 1.019463
v -1.883722 13.600000 1.883722
v -1.845574 17.000000 1.845574
v -2.411359 17.000000 0.998818
f 466 467 468
f 466 468 469
v -1.883722 13.600000 1.883722
v -1.019463 13.600000 2.461202
v -0.998818 17.000000 2.411359
v -1.845574 17.000000 1.845574
f 470 471 472
f 470 472 473
v -1.019463 13.600000 2.461202
v -0.000000 13.600000 2.663985
v -0.000000 17.000000 2.610036
v -0.998818 17.000000 2.411359
f 474 475 476
f 474 476 477
v -0.000000 13.600000 2.663985
v 1.019463 13.600000 2.461202
v 1.013391 14.600000 2.446542
v -0.000000 14.600000 2.648118
f 478 479 480
f 478 480 481
v -0.000000 15.900000 2.627490
v 1.005497 15.900000 2.427484
v 0.998818 17.000000 2.411359
v -0.000000 17.000000 2.610036
f 482 483 484
f 482 484 485
v 1.019463 13.600000 2.461202
v 1.883722 13.600000 1.883722
v 1.845574 17.000000 1.845574
v 0.998818 17.000000 2.411359
f 486 487 488
f 486 488 489
v 1.883722 13.600000 1.883722
v 2.461202 13.600000 1.019463
v 2.411359 17.000000 0.998818
v 1.845574 17.000000 1.845574
f 490 491 492
f 490 492 493
v 2.461202 13.600000 1.019463
v 2.663985 13.600000 -0.000000
v 2.610036 17.000000 -0.000000
v 2.411359 17.000000 0.998818
f 494 495 496
f 494 496 497
v 2.663985 13.600000 -0.000000
v 2.461202 13.600000 -1.019463
v 1.883722 13.600000 -1.883722
v 1.019463 13.600000 -2.461202
v 0.000000 13.600000 -2.663985
v -1.019463 13.600000 -2.461202
v -1.883722 13.600000 -1.883722
v -2.461202 13.600000 -1.019463
v -2.663985 13.600000 -0.000000
v -2.461202 13.600000 1.019463
v -1.883722 13.600000 1.883722
v -1.019463 13.600000 2.461202
v -0.000000 13.600000 2.663985
v 1.019463 13.600000 2.461202
v 1.883722 13.600000 1.883722
v 2.461202 13.600000 1.019463
v 1.300000 13.600000 -0.000000
v 1.201043 13.600000 -0.497488
v 0.919239 13.600000 -0.919239
v 0.497488 13.600000 -1.201043
v 0.000000 13.600000 -1.300000
v -0.497488 13.600000 -1.201043
v -0.919239 13.600000 -0.919239
v -1.201043 13.600000 -0.497488
v -1.300000 13.600000 -0.000000
v -1.201043 13.600000 0.497488
v -0.919239 13.600000 0.919239
v -0.497488 13.600000 1.201043
v -0.000000 13.600000 1.300000
v 0.497488 13.600000 1.201043
v 0.919239 13.600000 0.919239
v 1.201043 13.600000 0.497488
f 498 499 515
f 515 499 498
f 498 515 514
f 514 515 498
f 499 500 516
f 516 500 499
f 499 516 515
f 515 516 499
f 500 501 517
f 517 501 500
f 500 517 516
f 516 517 500
f 501 502 518
f 518 502 501
f 501 518 517
f 517 518 501
f 502 503 519
f 519 503 502
f 502 519 518
f 518 519 502
f 503 504 520
f 520 504 503
f 503 520 519
f 519 520 503
f 504 505 521
f 521 505 504
f 504 521 520
f 520 521 504
f 505 506 522
f 522 506 505
f 505 522 521
f 521 522 505
f 506 507 523
f 523 507 506
f 506 523 522
f 522 523 506
f 507 508 524
f 524 508 507
f 507 524 523
f 523 524 507
f 508 509 525
f 525 509 508
f 508 525 524
f 524 525 508
f 509 510 526
f 526 510 509
f 509 526 525
f 525 526 509
f 510 511 527
f 527 511 510
f 510 527 526
f 526 527 510
f 511 512 528
f 528 512 511
f 511 528 527
f 527 528 511
f 512 513 529
f 529 513 512
f 512 529 528
f 528 529 512
f 513 498 514
f 514 498 513
f 513 514 529
f 529 514 513
v 2.610036 17.000000 -0.000000
v 2.411359 17.000000 -0.998818
v 2.361516 20.400000 -0.978172
v 2.556087 20.400000 -0.000000
f 530 531 532
f 530 532 533
v 2.411359 17.000000 -0.998818
v 1.845574 17.000000 -1.845574
v 1.834354 18.000000 -1.834354
v 2.396699 18.000000 -0.992745
f 534 535 536
f 534 536 537
v 2.377642 19.300000 -0.984851
v 1.819768 19.300000 -1.819768
v 1.807426 20.400000 -1.807426
v 2.361516 20.400000 -0.978172
f 538 539 540
f 538 540 541
v 1.845574 17.000000 -1.845574
v 0.998818 17.000000 -2.411359
v 0.978172 20.400000 -2.361516
v 1.807426 20.400000 -1.807426
f 542 543 544
f 542 544 545
v 0.998818 17.000000 -2.411359
v 0.000000 17.000000 -2.610036
v 0.000000 20.400000 -2.556087
v 0.978172 20.400000 -2.361516
f 546 547 548
f 546 548 549
v 0.000000 17.000000 -2.610036
v -0.998818 17.000000 -2.411359
v -0.978172 20.400000 -2.361516
v 0.000000 20.400000 -2.556087
f 550 551 552
f 550 552 553
v -0.998818 17.000000 -2.411359
v -1.845574 17.000000 -1.845574
v -1.834354 18.000000 -1.834354
v -0.992745 18.000000 -2.396699
f 554 555 556
f 554 556 557
v -0.984851 19.300000 -2.377642
v -1.819768 19.300000 -1.819768
v -1.807426 20.400000 -1.807426
v -0.978172 20.400000 -2.361516
f 558 559 560
f 558 560 561
v -1.845574 17.000000 -1.845574
v -2.411359 17.000000 -0.998818
v -2.361516 20.400000 -0.978172
v -1.807426 20.400000 -1.807426
f 562 563 564
f 562 564 565
v -2.411359 17.000000 -0.998818
v -2.610036 17.000000 -0.000000
v -2.556087 20.400000 -0.000000
v -2.361516 20.400000 -0.978172
f 566 567 568
f 566 568 569
v -2.610036 17.000000 -0.000000
v -2.411359 17.000000 0.998818
v -2.361516 20.400000 0.978172
v -2.556087 20.400000 -0.000000
f 570 571 572
f 570 572 573
v -2.411359 17.000000 0.998818
v -1.845574 17.000000 1.845574
v -1.834354 18.000000 1.834354
v -2.396699 18.000000 0.992745
f 574 575 576
f 574 576 577
v -2.377642 19.300000 0.984851
v -1.819768 19.300000 1.819768
v -1.807426 20.400000 1.807426
v -2.361516 20.400000 0.978172
f 578 579 580
f 578 580 581
v -1.845574 17.000000 1.845574
v -0.998818 17.000000 2.411359
v -0.978172 20.400000 2.361516
v -1.807426 20.400000 1.807426
f 582 583 584
f 582 584 585
v -0.998818 17.000000 2.411359
v -0.000000 17.000000 2.610036
v -0.000000 20.400000 2.556087
v -0.978172 20.400000 2.361516
f 586 587 588
f 586 588 589
v -0.000000 17.000000 2.610036
v 0.998818 17.000000 2.411359
v 0.978172 20.400000 2.361516
v -0.000000 20.400000 2.556087
f 590 591 592
f 590 592 593
v 0.998818 17.000000 2.411359
v 1.845574 17.000000 1.845574
v 1.834354 18.000000 1.834354
v 0.992745 18.000000 2.396699
f 594 595 596
f 594 596 597
v 0.984851 19.300000 2.377642
v 1.819768 19.300000 1.819768
v 1.807426 20.400000 1.807426
v 0.978172 20.400000 2.361516
f 598 599 600
f 598 600 601
v 1.845574 17.000000 1.845574
v 2.411359 17.000000 0.998818
v 2.361516 20.400000 0.978172
v 1.807426 20.400000 1.807426
f 602 603 604
f 602 604 605
v 2.411359 17.000000 0.998818
v 2.610036 17.000000 -0.000000
v 2.556087 20.400000 -0.000000
v 2.361516 20.400000 0.978172
f 606 607 608
f 606 608 609
v 2.610036 17.000000 -0.000000
v 2.411359 17.000000 -0.998818
v 1.845574 17.000000 -1.845574
v 0.998818 17.000000 -2.411359
v 0.000000 17.000000 -2.610036
v -0.998818 17.000000 -2.411359
v -1.845574 17.000000 -1.845574
v -2.411359 17.000000 -0.998818
v -2.610036 17.000000 -0.000000
v -2.411359 17.000000 0.998818
v -1.845574 17.000000 1.845574
v -0.998818 17.000000 2.411359
v -0.000000 17.000000 2.610036
v 0.998818 17.000000 2.411359
v 1.845574 17.000000 1.845574
v 2.411359 17.000000 0.998818
v 1.300000 17.000000 -0.000000
v 1.201043 17.000000 -0.497488
v 0.919239 17.000000 -0.919239
v 0.497488 17.000000 -1.201043
v 0.000000 17.000000 -1.300000
v -0.497488 17.000000 -1.201043
v -0.919239 17.000000 -0.919239
v -1.201043 17.000000 -0.497488
v -1.300000 17.000000 -0.000000
v -1.201043 17.000000 0.497488
v -0.919239 17.000000 0.919239
v -0.497488 17.000000 1.201043
v -0.000000 17.000000 1.300000
v 0.497488 17.000000 1.201043
v 0.919239 17.000000 0.919239
v 1.201043 17.000000 0.497488
f 610 611 627
f 627 611 610
f 610 627 626
f 626 627 610
f 611 612 628
f 628 612 611
f 611 628 627
f 627 628 611
f 612 613 629
f 629 613 612
f 612 629 628
f 628 629 612
f 613 614 630
f 630 614 613
f 613 630 629
f 629 630 613
f 614 615 631
f 631 615 614
f 614 631 630
f 630 631 614
f 615 616 632
f 632 616 615
f 615 632 631
f 631 632 615
f 616 617 633
f 633 617 616
f 616 633 632
f 632 633 616
f 617 618 634
f 634 618 617
f 617 634 633
f 633 634 617
f 618 619 635
f 635 619 618
f 618 635 634
f 634 635 618
f 619 620 636
f 636 620 619
f 619 636 635
f 635 636 619
f 620 621 637
f 637 621 620
f 620 637 636
f 636 637 620
f 621 622 638
f 638 622 621
f 621 638 637
f 637 638 621
f 622 623 639
f 639 623 622
f 622 639 638
f 638 639 622
f 623 624 640
f 640 624 623
f 623 640 639
f 639 640 623
f 624 625 641
f 641 625 624
f 624 641 640
f 640 641 624
f 625 610 626
f 626 610 625
f 625 626 641
f 641 626 625
v 0.000000 0.000000 0.120000
v 0.084853 0.000000 0.084853
v 0.120000 0.000000 0.000000
v 0.084853 0.000000 -0.084853
v 0.000000 0.000000 -0.120000
v -0.084853 0.000000 -0.084853
v -0.120000 0.000000 -0.000000
v -0.084853 0.000000 0.084853
v 0.000000 18.000000 0.120000
v 0.084853 18.000000 0.084853
v 0.120000 18.000000 0.000000
v 0.084853 18.000000 -0.084853
v 0.000000 18.000000 -0.120000
v -0.084853 18.000000 -0.084853
v -0.120000 18.000000 -0.000000
v -0.084853 18.000000 0.084853
f 642 643 651
f 642 651 650
f 643 644 652
f 643 652 651
f 644 645 653
f 644 653 652
f 645 646 654
f 645 654 653
f 646 647 655
f 646 655 654
f 647 648 656
f 647 656 655
f 648 649 657
f 648 657 656
f 649 642 650
f 649 650 657
v 0.070402 0.242857 0.139440
v -0.027029 0.342857 0.116916
v -0.124459 0.242857 0.094392
v -0.027029 0.142857 0.116916
v -0.161596 0.242857 1.142973
v -0.259026 0.342857 1.120449
v -0.356456 0.242857 1.097925
v -0.259026 0.142857 1.120449
f 658 659 663
f 658 663 662
f 659 660 664
f 659 664 663
f 660 661 665
f 660 665 664
f 661 658 662
f 661 662 665
v 0.123931 0.485714 0.095085
v 0.026376 0.585714 0.117065
v -0.071178 0.485714 0.139045
v 0.026376 0.385714 0.117065
v 0.350325 0.485714 1.099897
v 0.252770 0.585714 1.121877
v 0.155216 0.485714 1.143857
v 0.252770 0.385714 1.121877
f 666 667 671
f 666 671 670
f 667 668 672
f 667 672 671
f 668 669 673
f 668 673 672
f 669 666 670
f 669 670 673
v 0.152914 0.728571 0.031898
v 0.074557 0.828571 0.094028
v -0.003800 0.728571 0.156159
v 0.074557 0.628571 0.094028
v 0.792859 0.728571 0.838972
v 0.714502 0.828571 0.901103
v 0.636145 0.728571 0.963234
v 0.714502 0.628571 0.901103
f 674 675 679
f 674 679 678
f 675 676 680
f 675 680 679
f 676 677 681
f 676 681 680
f 677 674 678
f 677 678 681
v 0.151610 0.971429 -0.037608
v 0.107971 1.071429 0.052367
v 0.064331 0.971429 0.142343
v 0.107971 0.871429 0.052367
v 1.078358 0.971429 0.411879
v 1.034718 1.071429 0.501855
v 0.991079 0.971429 0.591830
v 1.034718 0.871429 0.501855
f 682 683 687
f 682 687 686
f 683 684 688
f 683 688 687
f 684 685 689
f 684 689 688
f 685 682 686
f 685 686 689
v 0.120279 1.214286 -0.099665
v 0.120000 1.314286 0.000335
v 0.119721 1.214286 0.100334
v 0.120000 1.114286 0.000335
v 1.150275 1.214286 -0.096791
v 1.149996 1.314286 0.003208
v 1.149717 1.214286 0.103208
v 1.149996 1.114286 0.003208
f 690 691 695
f 690 695 694
f 691 692 696
f 691 696 695
f 692 693 697
f 692 697 696
f 693 690 694
f 693 694 697
v 0.065124 1.457143 -0.141982
v 0.108261 1.557143 -0.051764
v 0.151398 1.457143 0.038453
v 0.108261 1.357143 -0.051764
v 0.994365 1.457143 -0.586291
v 1.037502 1.557143 -0.496074
v 1.080639 1.457143 -0.405856
v 1.037502 1.357143 -0.496074
f 698 699 703
f 698 703 702
f 699 700 704
f 699 704 703
f 700 701 705
f 700 705 704
f 701 698 702
f 701 702 705
v -0.002929 1.700000 -0.156178
v 0.075080 1.800000 -0.093611
v 0.153089 1.700000 -0.031044
v 0.075080 1.600000 -0.093611
v 0.641510 1.700000 -0.959669
v 0.719519 1.800000 -0.897102
v 0.797528 1.700000 -0.834535
v 0.719519 1.600000 -0.897102
f 706 707 711
f 706 711 710
f 707 708 712
f 707 712 711
f 708 709 713
f 708 713 712
f 709 706 710
f 709 710 713
v -0.070402 1.942857 -0.139440
v 0.027029 2.042857 -0.116916
v 0.124459 1.942857 -0.094392
v 0.027029 1.842857 -0.116916
v 0.161596 1.942857 -1.142973
v 0.259026 2.042857 -1.120449
v 0.356456 1.942857 -1.097925
v 0.259026 1.842857 -1.120449
f 714 715 719
f 714 719 718
f 715 716 720
f 715 720 719
f 716 717 721
f 716 721 720
f 717 714 718
f 717 718 721
v -0.123931 2.185714 -0.095085
v -0.026376 2.285714 -0.117065
v 0.071178 2.185714 -0.139045
v -0.026376 2.085714 -0.117065
v -0.350325 2.185714 -1.099897
v -0.252770 2.285714 -1.121877
v -0.155216 2.185714 -1.143857
v -0.252770 2.085714 -1.121877
f 722 723 727
f 722 727 726
f 723 724 728
f 723 728 727
f 724 725 729
f 724 729 728
f 725 722 726
f 725 726 729
v -0.152914 2.428571 -0.031898
v -0.074557 2.528571 -0.094028
v 0.003800 2.428571 -0.156159
v -0.074557 2.328571 -0.094028
v -0.792859 2.428571 -0.838972
v -0.714502 2.528571 -0.901103
v -0.636145 2.428571 -0.963234
v -0.714502 2.328571 -0.901103
f 730 731 735
f 730 735 734
f 731 732 736
f 731 736 735
f 732 733 737
f 732 737 736
f 733 730 734
f 733 734 737
v -0.151610 2.671429 0.037608
v -0.107971 2.771429 -0.052367
v -0.064331 2.671429 -0.142343
v -0.107971 2.571429 -0.052367
v -1.078358 2.671429 -0.411879
v -1.034718 2.771429 -0.501855
v -0.991079 2.671429 -0.591830
v -1.034718 2.571429 -0.501855
f 738 739 743
f 738 743 742
f 739 740 744
f 739 744 743
f 740 741 745
f 740 745 744
f 741 738 742
f 741 742 745
v -0.120279 2.914286 0.099665
v -0.120000 3.014286 -0.000335
v -0.119721 2.914286 -0.100334
v -0.120000 2.814286 -0.000335
v -1.150275 2.914286 0.096791
v -1.149996 3.014286 -0.003208
v -1.149717 2.914286 -0.103208
v -1.149996 2.814286 -0.003208
f 746 747 751
f 746 751 750
f 747 748 752
f 747 752 751
f 748 749 753
f 748 753 752
f 749 746 750
f 749 750 753
v -0.065124 3.157143 0.141982
v -0.108261 3.257143 0.051764
v -0.151398 3.157143 -0.038453
v -0.108261 3.057143 0.051764
v -0.994365 3.157143 0.586291
v -1.037502 3.257143 0.496074
v -1.080639 3.157143 0.405856
v -1.037502 3.057143 0.496074
f 754 755 759
f 754 759 758
f 755 756 760
f 755 760 759
f 756 757 761
f 756 761 760
f 757 754 758
f 757 758 761
v 0.002929 3.400000 0.156178
v -0.075080 3.500000 0.093611
v -0.153089 3.400000 0.031044
v -0.075080 3.300000 0.093611
v -0.641510 3.400000 0.959669
v -0.719519 3.500000 0.897102
v -0.797528 3.400000 0.834535
v -0.719519 3.300000 0.897102
f 762 763 767
f 762 767 766
f 763 764 768
f 763 768 767
f 764 765 769
f 764 769 768
f 765 762 766
f 765 766 769
v 0.070402 3.642857 0.139440
v -0.027029 3.742857 0.116916
v -0.124459 3.642857 0.094392
v -0.027029 3.542857 0.116916
v -0.161596 3.642857 1.142973
v -0.259026 3.742857 1.120449
v -0.356456 3.642857 1.097925
v -0.259026 3.542857 1.120449
f 770 771 775
f 770 775 774
f 771 772 776
f 771 776 775
f 772 773 777
f 772 777 776
f 773 770 774
f 773 774 777
v 0.123931 3.885714 0.095085
v 0.026376 3.985714 0.117065
v -0.071178 3.885714 0.139045
v 0.026376 3.785714 0.117065
v 0.350325 3.885714 1.099897
v 0.252770 3.985714 1.121877
v 0.155216 3.885714 1.143857
v 0.252770 3.785714 1.121877
f 778 779 783
f 778 783 782
f 779 780 784
f 779 784 783
f 780 781 785
f 780 785 784
f 781 778 782
f 781 782 785
v 0.152914 4.128571 0.031898
v 0.074557 4.228571 0.094028
v -0.003800 4.128571 0.156159
v 0.074557 4.028571 0.094028
v 0.792859 4.128571 0.838972
v 0.714502 4.228571 0.901103
v 0.636145 4.128571 0.963234
v 0.714502 4.028571 0.901103
f 786 787 791
f 786 791 790
f 787 788 792
f 787 792 791
f 788 789 793
f 788 793 792
f 789 786 790
f 789 790 793
v 0.151610 4.371429 -0.037608
v 0.107971 4.471429 0.052367
v 0.064331 4.371429 0.142343
v 0.107971 4.271429 0.052367
v 1.078358 4.371429 0.411879
v 1.034718 4.471429 0.501855
v 0.991079 4.371429 0.591830
v 1.034718 4.271429 0.501855
f 794 795 799
f 794 799 798
f 795 796 800
f 795 800 799
f 796 797 801
f 796 801 800
f 797 794 798
f 797 798 801
v 0.120279 4.614286 -0.099665
v 0.120000 4.714286 0.000335
v 0.119721 4.614286 0.100334
v 0.120000 4.514286 0.000335
v 1.150275 4.614286 -0.096791
v 1.149996 4.714286 0.003208
v 1.149717 4.614286 0.103208
v 1.149996 4.514286 0.003208
f 802 803 807
f 802 807 806
f 803 804 808
f 803 808 807
f 804 805 809
f 804 809 808
f 805 802 806
f 805 806 809
v 0.065124 4.857143 -0.141982
v 0.108261 4.957143 -0.051764
v 0.151398 4.857143 0.038453
v 0.108261 4.757143 -0.051764
v 0.994365 4.857143 -0.586291
v 1.037502 4.957143 -0.496074
v 1.080639 4.857143 -0.405856
v 1.037502 4.757143 -0.496074
f 810 811 815
f 810 815 814
f 811 812 816
f 811 816 815
f 812 813 817
f 812 817 816
f 813 810 814
f 813 814 817
v -0.002929 5.100000 -0.156178
v 0.075080 5.200000 -0.093611
v 0.153089 5.100000 -0.031044
v 0.075080 5.000000 -0.093611
v 0.641510 5.100000 -0.959669
v 0.719519 5.200000 -0.897102
v 0.797528 5.100000 -0.834535
v 0.719519 5.000000 -0.897102
f 818 819 823
f 818 823 822
f 819 820 824
f 819 824 823
f 820 821 825
f 820 825 824
f 821 818 822
f 821 822 825
v -0.070402 5.342857 -0.139440
v 0.027029 5.442857 -0.116916
v 0.124459 5.342857 -0.094392
v 0.027029 5.242857 -0.116916
v 0.161596 5.342857 -1.142973
v 0.259026 5.442857 -1.120449
v 0.356456 5.342857 -1.097925
v 0.259026 5.242857 -1.120449
f 826 827 831
f 826 831 830
f 827 828 832
f 827 832 831
f 828 829 833
f 828 833 832
f 829 826 830
f 829 830 833
v -0.123931 5.585714 -0.095085
v -0.026376 5.685714 -0.117065
v 0.071178 5.585714 -0.139045
v -0.026376 5.485714 -0.117065
v -0.350325 5.585714 -1.099897
v -0.252770 5.685714 -1.121877
v -0.155216 5.585714 -1.143857
v -0.252770 5.485714 -1.121877
f 834 835 839
f 834 839 838
f 835 836 840
f 835 840 839
f 836 837 841
f 836 841 840
f 837 834 838
f 837 838 841
v -0.152914 5.828571 -0.031898
v -0.074557 5.928571 -0.094028
v 0.003800 5.828571 -0.156159
v -0.074557 5.728571 -0.094028
v -0.792859 5.828571 -0.838972
v -0.714502 5.928571 -0.901103
v -0.636145 5.828571 -0.963234
v -0.714502 5.728571 -0.901103
f 842 843 847
f 842 847 846
f 843 844 848
f 843 848 847
f 844 845 849
f 844 849 848
f 845 842 846
f 845 846 849
v -0.151610 6.071429 0.037608
v -0.107971 6.171429 -0.052367
v -0.064331 6.071429 -0.142343
v -0.107971 5.971429 -0.052367
v -1.078358 6.071429 -0.411879
v -1.034718 6.171429 -0.501855
v -0.991079 6.071429 -0.591830
v -1.034718 5.971429 -0.501855
f 850 851 855
f 850 855 854
f 851 852 856
f 851 856 855
f 852 853 857
f 852 857 856
f 853 850 854
f 853 854 857
v -0.120279 6.314286 0.099665
v -0.120000 6.414286 -0.000335
v -0.119721 6.314286 -0.100334
v -0.120000 6.214286 -0.000335
v -1.150275 6.314286 0.096791
v -1.149996 6.414286 -0.003208
v -1.149717 6.314286 -0.103208
v -1.149996 6.214286 -0.003208
f 858 859 863
f 858 863 862
f 859 860 864
f 859 864 863
f 860 861 865
f 860 865 864
f 861 858 862
f 861 862 865
v -0.065124 6.557143 0.141982
v -0.108261 6.657143 0.051764
v -0.151398 6.557143 -0.038453
v -0.108261 6.457143 0.051764
v -0.994365 6.557143 0.586291
v -1.037502 6.657143 0.496074
v -1.080639 6.557143 0.405856
v -1.037502 6.457143 0.496074
f 866 867 871
f 866 871 870
f 867 868 872
f 867 872 871
f 868 869 873
f 868 873 872
f 869 866 870
f 869 870 873
v 0.002929 6.800000 0.156178
v -0.075080 6.900000 0.093611
v -0.153089 6.800000 0.031044
v -0.075080 6.700000 0.093611
v -0.641510 6.800000 0.959669
v -0.719519 6.900000 0.897102
v -0.797528 6.800000 0.834535
v -0.719519 6.700000 0.897102
f 874 875 879
f 874 879 878
f 875 876 880
f 875 880 879
f 876 877 881
f 876 881 880
f 877 874 878
f 877 878 881
v 0.070402 7.042857 0.139440
v -0.027029 7.142857 0.116916
v -0.124459 7.042857 0.094392
v -0.027029 6.942857 0.116916
v -0.161596 7.042857 1.142973
v -0.259026 7.142857 1.120449
v -0.356456 7.042857 1.097925
v -0.259026 6.942857 1.120449
f 882 883 887
f 882 887 886
f 883 884 888
f 883 888 887
f 884 885 889
f 884 889 888
f 885 882 886
f 885 886 889
v 0.123931 7.285714 0.095085
v 0.026376 7.385714 0.117065
v -0.071178 7.285714 0.139045
v 0.026376 7.185714 0.117065
v 0.350325 7.285714 1.099897
v 0.252770 7.385714 1.121877
v 0.155216 7.285714 1.143857
v 0.252770 7.185714 1.121877
f 890 891 895
f 890 895 894
f 891 892 896
f 891 896 895
f 892 893 897
f 892 897 896
f 893 890 894
f 893 894 897
v 0.152914 7.528571 0.031898
v 0.074557 7.628571 0.094028
v -0.003800 7.528571 0.156159
v 0.074557 7.428571 0.094028
v 0.792859 7.528571 0.838972
v 0.714502 7.628571 0.901103
v 0.636145 7.528571 0.963234
v 0.714502 7.428571 0.901103
f 898 899 903
f 898 903 902
f 899 900 904
f 899 904 903
f 900 901 905
f 900 905 904
f 901 898 902
f 901 902 905
v 0.151610 7.771429 -0.037608
v 0.107971 7.871429 0.052367
v 0.064331 7.771429 0.142343
v 0.107971 7.671429 0.052367
v 1.078358 7.771429 0.411879
v 1.034718 7.871429 0.501855
v 0.991079 7.771429 0.591830
v 1.034718 7.671429 0.501855
f 906 907 911
f 906 911 910
f 907 908 912
f 907 912 911
f 908 909 913
f 908 913 912
f 909 906 910
f 909 910 913
v 0.120279 8.014286 -0.099665
v 0.120000 8.114286 0.000335
v 0.119721 8.014286 0.100334
v 0.120000 7.914286 0.000335
v 1.150275 8.014286 -0.096791
v 1.149996 8.114286 0.003208
v 1.149717 8.014286 0.103208
v 1.149996 7.914286 0.003208
f 914 915 919
f 914 919 918
f 915 916 920
f 915 920 919
f 916 917 921
f 916 921 920
f 917 914 918
f 917 918 921
v 0.065124 8.257143 -0.141982
v 0.108261 8.357143 -0.051764
v 0.151398 8.257143 0.038453
v 0.108261 8.157143 -0.051764
v 0.994365 8.257143 -0.586291
v 1.037502 8.357143 -0.496074
v 1.080639 8.257143 -0.405856
v 1.037502 8.157143 -0.496074
f 922 923 927
f 922 927 926
f 923 924 928
f 923 928 927
f 924 925 929
f 924 929 928
f 925 922 926
f 925 926 929
v -0.002929 8.500000 -0.156178
v 0.075080 8.600000 -0.093611
v 0.153089 8.500000 -0.031044
v 0.075080 8.400000 -0.093611
v 0.641510 8.500000 -0.959669
v 0.719519 8.600000 -0.897102
v 0.797528 8.500000 -0.834535
v 0.719519 8.400000 -0.897102
f 930 931 935
f 930 935 934
f 931 932 936
f 931 936 935
f 932 933 937
f 932 937 936
f 933 930 934
f 933 934 937
v -0.070402 8.742857 -0.139440
v 0.027029 8.842857 -0.116916
v 0.124459 8.742857 -0.094392
v 0.027029 8.642857 -0.116916
v 0.161596 8.742857 -1.142973
v 0.259026 8.842857 -1.120449
v 0.356456 8.742857 -1.097925
v 0.259026 8.642857 -1.120449
f 938 939 943
f 938 943 942
f 939 940 944
f 939 944 943
f 940 941 945
f 940 945 944
f 941 938 942
f 941 942 945
v -0.123931 8.985714 -0.095085
v -0.026376 9.085714 -0.117065
v 0.071178 8.985714 -0.139045
v -0.026376 8.885714 -0.117065
v -0.350325 8.985714 -1.099897
v -0.252770 9.085714 -1.121877
v -0.155216 8.985714 -1.143857
v -0.252770 8.885714 -1.121877
f 946 947 951
f 946 951 950
f 947 948 952
f 947 952 951
f 948 949 953
f 948 953 952
f 949 946 950
f 949 950 953
v -0.152914 9.228571 -0.031898
v -0.074557 9.328571 -0.094028
v 0.003800 9.228571 -0.156159
v -0.074557 9.128571 -0.094028
v -0.792859 9.228571 -0.838972
v -0.714502 9.328571 -0.901103
v -0.636145 9.228571 -0.963234
v -0.714502 9.128571 -0.901103
f 954 955 959
f 954 959 958
f 955 956 960
f 955 960 959
f 956 957 961
f 956 961 960
f 957 954 958
f 957 958 961
v -0.151610 9.471429 0.037608
v -0.107971 9.571429 -0.052367
v -0.064331 9.471429 -0.142343
v -0.107971 9.371429 -0.052367
v -1.078358 9.471429 -0.411879
v -1.034718 9.571429 -0.501855
v -0.991079 9.471429 -0.591830
v -1.034718 9.371429 -0.501855
f 962 963 967
f 962 967 966
f 963 964 968
f 963 968 967
f 964 965 969
f 964 969 968
f 965 962 966
f 965 966 969
v -0.120279 9.714286 0.099665
v -0.120000 9.814286 -0.000335
v -0.119721 9.714286 -0.100334
v -0.120000 9.614286 -0.000335
v -1.150275 9.714286 0.096791
v -1.149996 9.814286 -0.003208
v -1.149717 9.714286 -0.103208
v -1.149996 9.614286 -0.003208
f 970 971 975
f 970 975 974
f 971 972 976
f 971 976 975
f 972 973 977
f 972 977 976
f 973 970 974
f 973 974 977
v -0.065124 9.957143 0.141982
v -0.108261 10.057143 0.051764
v -0.151398 9.957143 -0.038453
v -0.108261 9.857143 0.051764
v -0.994365 9.957143 0.586291
v -1.037502 10.057143 0.496074
v -1.080639 9.957143 0.405856
v -1.037502 9.857143 0.496074
f 978 979 983
f 978 983 982
f 979 980 984
f 979 984 983
f 980 981 985
f 980 985 984
f 981 978 982
f 981 982 985
v 0.002929 10.200000 0.156178
v -0.075080 10.300000 0.093611
v -0.153089 10.200000 0.031044
v -0.075080 10.100000 0.093611
v -0.641510 10.200000 0.959669
v -0.719519 10.300000 0.897102
v -0.797528 10.200000 0.834535
v -0.719519 10.100000 0.897102
f 986 987 991
f 986 991 990
f 987 988 992
f 987 992 991
f 988 989 993
f 988 993 992
f 989 986 990
f 989 990 993
v 0.070402 10.442857 0.139440
v -0.027029 10.542857 0.116916
v -0.124459 10.442857 0.094392
v -0.027029 10.342857 0.116916
v -0.161596 10.442857 1.142973
v -0.259026 10.542857 1.120449
v -0.356456 10.442857 1.097925
v -0.259026 10.342857 1.120449
f 994 995 999
f 994 999 998
f 995 996 1000
f 995 1000 999
f 996 997 1001
f 996 1001 1000
f 997 994 998
f 997 998 1001
v 0.123931 10.685714 0.095085
v 0.026376 10.785714 0.117065
v -0.071178 10.685714 0.139045
v 0.026376 10.585714 0.117065
v 0.350325 10.685714 1.099897
v 0.252770 10.785714 1.121877
v 0.155216 10.685714 1.143857
v 0.252770 10.585714 1.121877
f 1002 1003 1007
f 1002 1007 1006
f 1003 1004 1008
f 1003 1008 1007
f 1004 1005 1009
f 1004 1009 1008
f 1005 1002 1006
f 1005 1006 1009
v 0.152914 10.928571 0.031898
v 0.074557 11.028571 0.094028
v -0.003800 10.928571 0.156159
v 0.074557 10.828571 0.094028
v 0.792859 10.928571 0.838972
v 0.714502 11.028571 0.901103
v 0.636145 10.928571 0.963234
v 0.714502 10.828571 0.901103
f 1010 1011 1015
f 1010 1015 1014
f 1011 1012 1016
f 1011 1016 1015
f 1012 1013 1017
f 1012 1017 1016
f 1013 1010 1014
f 1013 1014 1017
v 0.151610 11.171429 -0.037608
v 0.107971 11.271429 0.052367
v 0.064331 11.171429 0.142343
v 0.107971 11.071429 0.052367
v 1.078358 11.171429 0.411879
v 1.034718 11.271429 0.501855
v 0.991079 11.171429 0.591830
v 1.034718 11.071429 0.501855
f 1018 1019 1023
f 1018 1023 1022
f 1019 1020 1024
f 1019 1024 1023
f 1020 1021 1025
f 1020 1025 1024
f 1021 1018 1022
f 1021 1022 1025
v 0.120279 11.414286 -0.099665
v 0.120000 11.514286 0.000335
v 0.119721 11.414286 0.100334
v 0.120000 11.314286 0.000335
v 1.150275 11.414286 -0.096791
v 1.149996 11.514286 0.003208
v 1.149717 11.414286 0.103208
v 1.149996 11.314286 0.003208
f 1026 1027 1031
f 1026 1031 1030
f 1027 1028 1032
f 1027 1032 1031
f 1028 1029 1033
f 1028 1033 1032
f 1029 1026 1030
f 1029 1030 1033
v 0.065124 11.657143 -0.141982
v 0.108261 11.757143 -0.051764
v 0.151398 11.657143 0.038453
v 0.108261 11.557143 -0.051764
v 0.994365 11.657143 -0.586291
v 1.037502 11.757143 -0.496074
v 1.080639 11.657143 -0.405856
v 1.037502 11.557143 -0.496074
f 1034 1035 1039
f 1034 1039 1038
f 1035 1036 1040
f 1035 1040 1039
f 1036 1037 1041
f 1036 1041 1040
f 1037 1034 1038
f 1037 1038 1041
v -0.002929 11.900000 -0.156178
v 0.075080 12.000000 -0.093611
v 0.153089 11.900000 -0.031044
v 0.075080 11.800000 -0.093611
v 0.641510 11.900000 -0.959669
v 0.719519 12.000000 -0.897102
v 0.797528 11.900000 -0.834535
v 0.719519 11.800000 -0.897102
f 1042 1043 1047
f 1042 1047 1046
f 1043 1044 1048
f 1043 1048 1047
f 1044 1045 1049
f 1044 1049 1048
f 1045 1042 1046
f 1045 1046 1049
v -0.070402 12.142857 -0.139440
v 0.027029 12.242857 -0.116916
v 0.124459 12.142857 -0.094392
v 0.027029 12.042857 -0.116916
v 0.161596 12.142857 -1.142973
v 0.259026 12.242857 -1.120449
v 0.356456 12.142857 -1.097925
v 0.259026 12.042857 -1.120449
f 1050 1051 1055
f 1050 1055 1054
f 1051 1052 1056
f 1051 1056 1055
f 1052 1053 1057
f 1052 1057 1056
f 1053 1050 1054
f 1053 1054 1057
v -0.123931 12.385714 -0.095085
v -0.026376 12.485714 -0.117065
v 0.071178 12.385714 -0.139045
v -0.026376 12.285714 -0.117065
v -0.350325 12.385714 -1.099897
v -0.252770 12.485714 -1.121877
v -0.155216 12.385714 -1.143857
v -0.252770 12.285714 -1.121877
f 1058 1059 1063
f 1058 1063 1062
f 1059 1060 1064
f 1059 1064 1063
f 1060 1061 1065
f 1060 1065 1064
f 1061 1058 1062
f 1061 1062 1065
v -0.152914 12.628571 -0.031898
v -0.074557 12.728571 -0.094028
v 0.003800 12.628571 -0.156159
v -0.074557 12.528571 -0.094028
v -0.792859 12.628571 -0.838972
v -0.714502 12.728571 -0.901103
v -0.636145 12.628571 -0.963234
v -0.714502 12.528571 -0.901103
f 1066 1067 1071
f 1066 1071 1070
f 1067 1068 1072
f 1067 1072 1071
f 1068 1069 1073
f 1068 1073 1072
f 1069 1066 1070
f 1069 1070 1073
v -0.151610 12.871429 0.037608
v -0.107971 12.971429 -0.052367
v -0.064331 12.871429 -0.142343
v -0.107971 12.771429 -0.052367
v -1.078358 12.871429 -0.411879
v -1.034718 12.971429 -0.501855
v -0.991079 12.871429 -0.591830
v -1.034718 12.771429 -0.501855
f 1074 1075 1079
f 1074 1079 1078
f 1075 1076 1080
f 1075 1080 1079
f 1076 1077 1081
f 1076 1081 1080
f 1077 1074 1078
f 1077 1078 1081
v -0.120279 13.114286 0.099665
v -0.120000 13.214286 -0.000335
v -0.119721 13.114286 -0.100334
v -0.120000 13.014286 -0.000335
v -1.150275 13.114286 0.096791
v -1.149996 13.214286 -0.003208
v -1.149717 13.114286 -0.103208
v -1.149996 13.014286 -0.003208
f 1082 1083 1087
f 1082 1087 1086
f 1083 1084 1088
f 1083 1088 1087
f 1084 1085 1089
f 1084 1089 1088
f 1085 1082 1086
f 1085 1086 1089
v -0.065124 13.357143 0.141982
v -0.108261 13.457143 0.051764
v -0.151398 13.357143 -0.038453
v -0.108261 13.257143 0.051764
v -0.994365 13.357143 0.586291
v -1.037502 13.457143 0.496074
v -1.080639 13.357143 0.405856
v -1.037502 13.257143 0.496074
f 1090 1091 1095
f 1090 1095 1094
f 1091 1092 1096
f 1091 1096 1095
f 1092 1093 1097
f 1092 1097 1096
f 1093 1090 1094
f 1093 1094 1097
v 0.002929 13.600000 0.156178
v -0.075080 13.700000 0.093611
v -0.153089 13.600000 0.031044
v -0.075080 13.500000 0.093611
v -0.641510 13.600000 0.959669
v -0.719519 13.700000 0.897102
v -0.797528 13.600000 0.834535
v -0.719519 13.500000 0.897102
f 1098 1099 1103
f 1098 1103 1102
f 1099 1100 1104
f 1099 1104 1103
f 1100 1101 1105
f 1100 1105 1104
f 1101 1098 1102
f 1101 1102 1105
v 0.070402 13.842857 0.139440
v -0.027029 13.942857 0.116916
v -0.124459 13.842857 0.094392
v -0.027029 13.742857 0.116916
v -0.161596 13.842857 1.142973
v -0.259026 13.942857 1.120449
v -0.356456 13.842857 1.097925
v -0.259026 13.742857 1.120449
f 1106 1107 1111
f 1106 1111 1110
f 1107 1108 1112
f 1107 1112 1111
f 1108 1109 1113
f 1108 1113 1112
f 1109 1106 1110
f 1109 1110 1113
v 0.123931 14.085714 0.095085
v 0.026376 14.185714 0.117065
v -0.071178 14.085714 0.139045
v 0.026376 13.985714 0.117065
v 0.350325 14.085714 1.099897
v 0.252770 14.185714 1.121877
v 0.155216 14.085714 1.143857
v 0.252770 13.985714 1.121877
f 1114 1115 1119
f 1114 1119 1118
f 1115 1116 1120
f 1115 1120 1119
f 1116 1117 1121
f 1116 1121 1120
f 1117 1114 1118
f 1117 1118 1121
v 0.152914 14.328571 0.031898
v 0.074557 14.428571 0.094028
v -0.003800 14.328571 0.156159
v 0.074557 14.228571 0.094028
v 0.792859 14.328571 0.838972
v 0.714502 14.428571 0.901103
v 0.636145 14.328571 0.963234
v 0.714502 14.228571 0.901103
f 1122 1123 1127
f 1122 1127 1126
f 1123 1124 1128
f 1123 1128 1127
f 1124 1125 1129
f 1124 1129 1128
f 1125 1122 1126
f 1125 1126 1129
v 0.151610 14.571429 -0.037608
v 0.107971 14.671429 0.052367
v 0.064331 14.571429 0.142343
v 0.107971 14.471429 0.052367
v 1.078358 14.571429 0.411879
v 1.034718 14.671429 0.501855
v 0.991079 14.571429 0.591830
v 1.034718 14.471429 0.501855
f 1130 1131 1135
f 1130 1135 1134
f 1131 1132 1136
f 1131 1136 1135
f 1132 1133 1137
f 1132 1137 1136
f 1133 1130 1134
f 1133 1134 1137
v 0.120279 14.814286 -0.099665
v 0.120000 14.914286 0.000335
v 0.119721 14.814286 0.100334
v 0.120000 14.714286 0.000335
v 1.150275 14.814286 -0.096791
v 1.149996 14.914286 0.003208
v 1.149717 14.814286 0.103208
v 1.149996 14.714286 0.003208
f 1138 1139 1143
f 1138 1143 1142
f 1139 1140 1144
f 1139 1144 1143
f 1140 1141 1145
f 1140 1145 1144
f 1141 1138 1142
f 1141 1142 1145
v 0.065124 15.057143 -0.141982
v 0.108261 15.157143 -0.051764
v 0.151398 15.057143 0.038453
v 0.108261 14.957143 -0.051764
v 0.994365 15.057143 -0.586291
v 1.037502 15.157143 -0.496074
v 1.080639 15.057143 -0.405856
v 1.037502 14.957143 -0.496074
f 1146 1147 1151
f 1146 1151 1150
f 1147 1148 1152
f 1147 1152 1151
f 1148 1149 1153
f 1148 1153 1152
f 1149 1146 1150
f 1149 1150 1153
v -0.002929 15.300000 -0.156178
v 0.075080 15.400000 -0.093611
v 0.153089 15.300000 -0.031044
v 0.075080 15.200000 -0.093611
v 0.641510 15.300000 -0.959669
v 0.719519 15.400000 -0.897102
v 0.797528 15.300000 -0.834535
v 0.719519 15.200000 -0.897102
f 1154 1155 1159
f 1154 1159 1158
f 1155 1156 1160
f 1155 1160 1159
f 1156 1157 1161
f 1156 1161 1160
f 1157 1154 1158
f 1157 1158 1161
v -0.070402 15.542857 -0.139440
v 0.027029 15.642857 -0.116916
v 0.124459 15.542857 -0.094392
v 0.027029 15.442857 -0.116916
v 0.161596 15.542857 -1.142973
v 0.259026 15.642857 -1.120449
v 0.356456 15.542857 -1.097925
v 0.259026 15.442857 -1.120449
f 1162 1163 1167
f 1162 1167 1166
f 1163 1164 1168
f 1163 1168 1167
f 1164 1165 1169
f 1164 1169 1168
f 1165 1162 1166
f 1165 1166 1169
v -0.123931 15.785714 -0.095085
v -0.026376 15.885714 -0.117065
v 0.071178 15.785714 -0.139045
v -0.026376 15.685714 -0.117065
v -0.350325 15.785714 -1.099897
v -0.252770 15.885714 -1.121877
v -0.155216 15.785714 -1.143857
v -0.252770 15.685714 -1.121877
f 1170 1171 1175
f 1170 1175 1174
f 1171 1172 1176
f 1171 1176 1175
f 1172 1173 1177
f 1172 1177 1176
f 1173 1170 1174
f 1173 1174 1177
v -0.152914 16.028571 -0.031898
v -0.074557 16.128571 -0.094028
v 0.003800 16.028571 -0.156159
v -0.074557 15.928571 -0.094028
v -0.792859 16.028571 -0.838972
v -0.714502 16.128571 -0.901103
v -0.636145 16.028571 -0.963234
v -0.714502 15.928571 -0.901103
f 1178 1179 1183
f 1178 1183 1182
f 1179 1180 1184
f 1179 1184 1183
f 1180 1181 1185
f 1180 1185 1184
f 1181 1178 1182
f 1181 1182 1185
v -0.151610 16.271429 0.037608
v -0.107971 16.371429 -0.052367
v -0.064331 16.271429 -0.142343
v -0.107971 16.171429 -0.052367
v -1.078358 16.271429 -0.411879
v -1.034718 16.371429 -0.501855
v -0.991079 16.271429 -0.591830
v -1.034718 16.171429 -0.501855
f 1186 1187 1191
f 1186 1191 1190
f 1187 1188 1192
f 1187 1192 1191
f 1188 1189 1193
f 1188 1193 1192
f 1189 1186 1190
f 1189 1190 1193
v -0.120279 16.514286 0.099665
v -0.120000 16.614286 -0.000335
v -0.119721 16.514286 -0.100334
v -0.120000 16.414286 -0.000335
v -1.150275 16.514286 0.096791
v -1.149996 16.614286 -0.003208
v -1.149717 16.514286 -0.103208
v -1.149996 16.414286 -0.003208
f 1194 1195 1199
f 1194 1199 1198
f 1195 1196 1200
f 1195 1200 1199
f 1196 1197 1201
f 1196 1201 1200
f 1197 1194 1198
f 1197 1198 1201
v -0.065124 16.757143 0.141982
v -0.108261 16.857143 0.051764
v -0.151398 16.757143 -0.038453
v -0.108261 16.657143 0.051764
v -0.994365 16.757143 0.586291
v -1.037502 16.857143 0.496074
v -1.080639 16.757143 0.405856
v -1.037502 16.657143 0.496074
f 1202 1203 1207
f 1202 1207 1206
f 1203 1204 1208
f 1203 1208 1207
f 1204 1205 1209
f 1204 1209 1208
f 1205 1202 1206
f 1205 1206 1209
v 0.002929 17.000000 0.156178
v -0.075080 17.100000 0.093611
v -0.153089 17.000000 0.031044
v -0.075080 16.900000 0.093611
v -0.641510 17.000000 0.959669
v -0.719519 17.100000 0.897102
v -0.797528 17.000000 0.834535
v -0.719519 16.900000 0.897102
f 1210 1211 1215
f 1210 1215 1214
f 1211 1212 1216
f 1211 1216 1215
f 1212 1213 1217
f 1212 1217 1216
f 1213 1210 1214
f 1213 1214 1217
v 2.479404 20.320000 -0.000000
v 2.290671 20.320000 -0.948827
v 1.753203 20.320000 -1.753203
v 0.948827 20.320000 -2.290671
v 0.000000 20.320000 -2.479404
v -0.948827 20.320000 -2.290671
v -1.753203 20.320000 -1.753203
v -2.290671 20.320000 -0.948827
v -2.479404 20.320000 -0.000000
v -2.290671 20.320000 0.948827
v -1.753203 20.320000 1.753203
v -0.948827 20.320000 2.290671
v -0.000000 20.320000 2.479404
v 0.948827 20.320000 2.290671
v 1.753203 20.320000 1.753203
v 2.290671 20.320000 0.948827
v 0.000000 20.320000 -0.000000
f 1234 1218 1219
f 1234 1219 1218
f 1234 1219 1220
f 1234 1220 1219
f 1234 1220 1221
f 1234 1221 1220
f 1234 1221 1222
f 1234 1222 1221
f 1234 1222 1223
f 1234 1223 1222
f 1234 1223 1224
f 1234 1224 1223
f 1234 1224 1225
f 1234 1225 1224
f 1234 1225 1226
f 1234 1226 1225
f 1234 1226 1227
f 1234 1227 1226
f 1234 1227 1228
f 1234 1228 1227
f 1234 1228 1229
f 1234 1229 1228
f 1234 1229 1230
f 1234 1230 1229
f 1234 1230 1231
f 1234 1231 1230
f 1234 1231 1232
f 1234 1232 1231
f 1234 1232 1233
f 1234 1233 1232
f 1234 1233 1218
f 1234 1218 1233
v 2.418777 20.400000 0.027313
v 2.513656 20.533148 0.008440
v 2.667173 20.482290 -0.022096
v 2.667173 20.317710 -0.022096
v 2.513656 20.266852 0.008440
v 2.224206 20.400000 -0.950859
v 2.319085 20.533148 -0.969732
v 2.472602 20.482290 -1.000268
v 2.472602 20.317710 -1.000268
v 2.319085 20.266852 -0.969732
f 1235 1236 1241
f 1235 1241 1240
f 1236 1237 1242
f 1236 1242 1241
f 1237 1238 1243
f 1237 1243 1242
f 1238 1239 1244
f 1238 1244 1243
f 1239 1235 1240
f 1239 1240 1244
v 2.245110 20.400000 -0.900392
v 2.325545 20.533148 -0.954137
v 2.455690 20.482290 -1.041097
v 2.455690 20.317710 -1.041097
v 2.325545 20.266852 -0.954137
v 1.691020 20.400000 -1.729646
v 1.771455 20.533148 -1.783391
v 1.901600 20.482290 -1.870351
v 1.901600 20.317710 -1.870351
v 1.771455 20.266852 -1.783391
f 1245 1246 1251
f 1245 1251 1250
f 1246 1247 1252
f 1246 1252 1251
f 1247 1248 1253
f 1247 1253 1252
f 1248 1249 1254
f 1248 1254 1253
f 1249 1245 1250
f 1249 1250 1254
v 1.729646 20.400000 -1.691020
v 1.783391 20.533148 -1.771455
v 1.870351 20.482290 -1.901600
v 1.870351 20.317710 -1.901600
v 1.783391 20.266852 -1.771455
v 0.900392 20.400000 -2.245110
v 0.954137 20.533148 -2.325545
v 1.041097 20.482290 -2.455690
v 1.041097 20.317710 -2.455690
v 0.954137 20.266852 -2.325545
f 1255 1256 1261
f 1255 1261 1260
f 1256 1257 1262
f 1256 1262 1261
f 1257 1258 1263
f 1257 1263 1262
f 1258 1259 1264
f 1258 1264 1263
f 1259 1255 1260
f 1259 1260 1264
v 0.950859 20.400000 -2.224206
v 0.969732 20.533148 -2.319085
v 1.000268 20.482290 -2.472602
v 1.000268 20.317710 -2.472602
v 0.969732 20.266852 -2.319085
v -0.027313 20.400000 -2.418777
v -0.008440 20.533148 -2.513656
v 0.022096 20.482290 -2.667173
v 0.022096 20.317710 -2.667173
v -0.008440 20.266852 -2.513656
f 1265 1266 1271
f 1265 1271 1270
f 1266 1267 1272
f 1266 1272 1271
f 1267 1268 1273
f 1267 1273 1272
f 1268 1269 1274
f 1268 1274 1273
f 1269 1265 1270
f 1269 1270 1274
v 0.027313 20.400000 -2.418777
v 0.008440 20.533148 -2.513656
v -0.022096 20.482290 -2.667173
v -0.022096 20.317710 -2.667173
v 0.008440 20.266852 -2.513656
v -0.950859 20.400000 -2.224206
v -0.969732 20.533148 -2.319085
v -1.000268 20.482290 -2.472602
v -1.000268 20.317710 -2.472602
v -0.969732 20.266852 -2.319085
f 1275 1276 1281
f 1275 1281 1280
f 1276 1277 1282
f 1276 1282 1281
f 1277 1278 1283
f 1277 1283 1282
f 1278 1279 1284
f 1278 1284 1283
f 1279 1275 1280
f 1279 1280 1284
v -0.900392 20.400000 -2.245110
v -0.954137 20.533148 -2.325545
v -1.041097 20.482290 -2.455690
v -1.041097 20.317710 -2.455690
v -0.954137 20.266852 -2.325545
v -1.729646 20.400000 -1.691020
v -1.783391 20.533148 -1.771455
v -1.870351 20.482290 -1.901600
v -1.870351 20.317710 -1.901600
v -1.783391 20.266852 -1.771455
f 1285 1286 1291
f 1285 1291 1290
f 1286 1287 1292
f 1286 1292 1291
f 1287 1288 1293
f 1287 1293 1292
f 1288 1289 1294
f 1288 1294 1293
f 1289 1285 1290
f 1289 1290 1294
v -1.691020 20.400000 -1.729646
v -1.771455 20.533148 -1.783391
v -1.901600 20.482290 -1.870351
v -1.901600 20.317710 -1.870351
v -1.771455 20.266852 -1.783391
v -2.245110 20.400000 -0.900392
v -2.325545 20.533148 -0.954137
v -2.455690 20.482290 -1.041097
v -2.455690 20.317710 -1.041097
v -2.325545 20.266852 -0.954137
f 1295 1296 1301
f 1295 1301 1300
f 1296 1297 1302
f 1296 1302 1301
f 1297 1298 1303
f 1297 1303 1302
f 1298 1299 1304
f 1298 1304 1303
f 1299 1295 1300
f 1299 1300 1304
v -2.224206 20.400000 -0.950859
v -2.319085 20.533148 -0.969732
v -2.472602 20.482290 -1.000268
v -2.472602 20.317710 -1.000268
v -2.319085 20.266852 -0.969732
v -2.418777 20.400000 0.027313
v -2.513656 20.533148 0.008440
v -2.667173 20.482290 -0.022096
v -2.667173 20.317710 -0.022096
v -2.513656 20.266852 0.008440
f 1305 1306 1311
f 1305 1311 1310
f 1306 1307 1312
f 1306 1312 1311
f 1307 1308 1313
f 1307 1313 1312
f 1308 1309 1314
f 1308 1314 1313
f 1309 1305 1310
f 1309 1310 1314
v -2.418777 20.400000 -0.027313
v -2.513656 20.533148 -0.008440
v -2.667173 20.482290 0.022096
v -2.667173 20.317710 0.022096
v -2.513656 20.266852 -0.008440
v -2.224206 20.400000 0.950859
v -2.319085 20.533148 0.969732
v -2.472602 20.482290 1.000268
v -2.472602 20.317710 1.000268
v -2.319085 20.266852 0.969732
f 1315 1316 1321
f 1315 1321 1320
f 1316 1317 1322
f 1316 1322 1321
f 1317 1318 1323
f 1317 1323 1322
f 1318 1319 1324
f 1318 1324 1323
f 1319 1315 1320
f 1319 1320 1324
v -2.245110 20.400000 0.900392
v -2.325545 20.533148 0.954137
v -2.455690 20.482290 1.041097
v -2.455690 20.317710 1.041097
v -2.325545 20.266852 0.954137
v -1.691020 20.400000 1.729646
v -1.771455 20.533148 1.783391
v -1.901600 20.482290 1.870351
v -1.901600 20.317710 1.870351
v -1.771455 20.266852 1.783391
f 1325 1326 1331
f 1325 1331 1330
f 1326 1327 1332
f 1326 1332 1331
f 1327 1328 1333
f 1327 1333 1332
f 1328 1329 1334
f 1328 1334 1333
f 1329 1325 1330
f 1329 1330 1334
v -1.729646 20.400000 1.691020
v -1.783391 20.533148 1.771455
v -1.870351 20.482290 1.901600
v -1.870351 20.317710 1.901600
v -1.783391 20.266852 1.771455
v -0.900392 20.400000 2.245110
v -0.954137 20.533148 2.325545
v -1.041097 20.482290 2.455690
v -1.041097 20.317710 2.455690
v -0.954137 20.266852 2.325545
f 1335 1336 1341
f 1335 1341 1340
f 1336 1337 1342
f 1336 1342 1341
f 1337 1338 1343
f 1337 1343 1342
f 1338 1339 1344
f 1338 1344 1343
f 1339 1335 1340
f 1339 1340 1344
v -0.950859 20.400000 2.224206
v -0.969732 20.533148 2.319085
v -1.000268 20.482290 2.472602
v -1.000268 20.317710 2.472602
v -0.969732 20.266852 2.319085
v 0.027313 20.400000 2.418777
v 0.008440 20.533148 2.513656
v -0.022096 20.482290 2.667173
v -0.022096 20.317710 2.667173
v 0.008440 20.266852 2.513656
f 1345 1346 1351
f 1345 1351 1350
f 1346 1347 1352
f 1346 1352 1351
f 1347 1348 1353
f 1347 1353 1352
f 1348 1349 1354
f 1348 1354 1353
f 1349 1345 1350
f 1349 1350 1354
v -0.027313 20.400000 2.418777
v -0.008440 20.533148 2.513656
v 0.022096 20.482290 2.667173
v 0.022096 20.317710 2.667173
v -0.008440 20.266852 2.513656
v 0.950859 20.400000 2.224206
v 0.969732 20.533148 2.319085
v 1.000268 20.482290 2.472602
v 1.000268 20.317710 2.472602
v 0.969732 20.266852 2.319085
f 1355 1356 1361
f 1355 1361 1360
f 1356 1357 1362
f 1356 1362 1361
f 1357 1358 1363
f 1357 1363 1362
f 1358 1359 1364
f 1358 1364 1363
f 1359 1355 1360
f 1359 1360 1364
v 0.900392 20.400000 2.245110
v 0.954137 20.533148 2.325545
v 1.041097 20.482290 2.455690
v 1.041097 20.317710 2.455690
v 0.954137 20.266852 2.325545
v 1.729646 20.400000 1.691020
v 1.783391 20.533148 1.771455
v 1.870351 20.482290 1.901600
v 1.870351 20.317710 1.901600
v 1.783391 20.266852 1.771455
f 1365 1366 1371
f 1365 1371 1370
f 1366 1367 1372
f 1366 1372 1371
f 1367 1368 1373
f 1367 1373 1372
f 1368 1369 1374
f 1368 1374 1373
f 1369 1365 1370
f 1369 1370 1374
v 1.691020 20.400000 1.729646
v 1.771455 20.533148 1.783391
v 1.901600 20.482290 1.870351
v 1.901600 20.317710 1.870351
v 1.771455 20.266852 1.783391
v 2.245110 20.400000 0.900392
v 2.325545 20.533148 0.954137
v 2.455690 20.482290 1.041097
v 2.455690 20.317710 1.041097
v 2.325545 20.266852 0.954137
f 1375 1376 1381
f 1375 1381 1380
f 1376 1377 1382
f 1376 1382 1381
f 1377 1378 1383
f 1377 1383 1382
f 1378 1379 1384
f 1378 1384 1383
f 1379 1375 1380
f 1379 1380 1384
v 2.224206 20.400000 0.950859
v 2.319085 20.533148 0.969732
v 2.472602 20.482290 1.000268
v 2.472602 20.317710 1.000268
v 2.319085 20.266852 0.969732
v 2.418777 20.400000 -0.027313
v 2.513656 20.533148 -0.008440
v 2.667173 20.482290 0.022096
v 2.667173 20.317710 0.022096
v 2.513656 20.266852 -0.008440
f 1385 1386 1391
f 1385 1391 1390
f 1386 1387 1392
f 1386 1392 1391
f 1387 1388 1393
f 1387 1393 1392
f 1388 1389 1394
f 1388 1394 1393
f 1389 1385 1390
f 1389 1390 1394
