o mesh
v 0.000000 0.030000 -0.000000
v 0.012265 0.051946 -0.008688
v 0.024895 0.073892 -0.017342
v 0.037299 0.095838 -0.026017
v 0.049168 0.117784 -0.034742
v 0.060248 0.139730 -0.043541
v 0.070311 0.161676 -0.052434
v 0.079163 0.183623 -0.061440
v 0.086635 0.205569 -0.070575
v 0.092589 0.227515 -0.079851
v 0.096921 0.249461 -0.089278
v 0.099559 0.271407 -0.098863
v 0.100467 0.293353 -0.108610
v 0.099646 0.315299 -0.118517
v 0.097131 0.337245 -0.128583
v 0.092993 0.359191 -0.138799
v 0.087338 0.381137 -0.149158
v 0.080302 0.403083 -0.159644
v 0.072055 0.425029 -0.170244
v 0.062792 0.446975 -0.180938
v 0.052739 0.468921 -0.191706
v 0.042152 0.490868 -0.202524
v 0.031339 0.512814 -0.213362
v 0.020890 0.534760 -0.224167
v 0.008625 0.512814 -0.215479
v -0.004005 0.490868 -0.206825
v -0.016409 0.468921 -0.198150
v -0.028278 0.446975 -0.189425
v -0.039357 0.425029 -0.180626
v -0.049421 0.403083 -0.171733
v -0.058273 0.381137 -0.162727
v -0.065745 0.359191 -0.153592
v -0.071699 0.337245 -0.144316
v -0.076031 0.315299 -0.134889
v -0.078669 0.293353 -0.125304
v -0.079577 0.271407 -0.115557
v -0.078756 0.249461 -0.105650
v -0.076241 0.227515 -0.095584
v -0.072103 0.205569 -0.085368
v -0.066448 0.183623 -0.075010
v -0.059412 0.161676 -0.064523
v -0.051165 0.139730 -0.053923
v -0.041902 0.117784 -0.043229
v -0.031849 0.095838 -0.032461
v -0.021262 0.073892 -0.021643
v -0.010449 0.051946 -0.010805
f 1 2 3
f 1 3 2
f 1 3 4
f 1 4 3
f 1 4 5
f 1 5 4
f 1 5 6
f 1 6 5
f 1 6 7
f 1 7 6
f 1 7 8
f 1 8 7
f 1 8 9
f 1 9 8
f 1 9 10
f 1 10 9
f 1 10 11
f 1 11 10
f 1 11 12
f 1 12 11
f 1 12 13
f 1 13 12
f 1 13 14
f 1 14 13
f 1 14 15
f 1 15 14
f 1 15 16
f 1 16 15
f 1 16 17
f 1 17 16
f 1 17 18
f 1 18 17
f 1 18 19
f 1 19 18
f 1 19 20
f 1 20 19
f 1 20 21
f 1 21 20
f 1 21 22
f 1 22 21
f 1 22 23
f 1 23 22
f 1 23 24
f 1 24 23
f 1 24 25
f 1 25 24
f 1 25 26
f 1 26 25
f 1 26 27
f 1 27 26
f 1 27 28
f 1 28 27
f 1 28 29
f 1 29 28
f 1 29 30
f 1 30 29
f 1 30 31
f 1 31 30
f 1 31 32
f 1 32 31
f 1 32 33
f 1 33 32
f 1 33 34
f 1 34 33
f 1 34 35
f 1 35 34
f 1 35 36
f 1 36 35
f 1 36 37
f 1 37 36
f 1 37 38
f 1 38 37
f 1 38 39
f 1 39 38
f 1 39 40
f 1 40 39
f 1 40 41
f 1 41 40
f 1 41 42
f 1 42 41
f 1 42 43
f 1 43 42
f 1 43 44
f 1 44 43
f 1 44 45
f 1 45 44
f 1 45 46
f 1 46 45
v 0.000000 0.030000 -0.000000
v 0.018874 0.049490 -0.015832
v 0.037224 0.068981 -0.031870
v 0.055070 0.088471 -0.048104
v 0.072276 0.107962 -0.064589
v 0.088694 0.127452 -0.081381
v 0.104184 0.146943 -0.098537
v 0.118615 0.166433 -0.116106
v 0.131877 0.185924 -0.134133
v 0.143876 0.205414 -0.152653
v 0.154540 0.224905 -0.171696
v 0.163820 0.244395 -0.191280
v 0.171693 0.263886 -0.211414
v 0.178158 0.283376 -0.232098
v 0.183239 0.302867 -0.253323
v 0.186986 0.322357 -0.275071
v 0.189470 0.341848 -0.297312
v 0.190784 0.361338 -0.320011
v 0.191039 0.380829 -0.343123
v 0.190366 0.400319 -0.366599
v 0.188906 0.419810 -0.390382
v 0.186806 0.439300 -0.414416
v 0.184201 0.458791 -0.438646
v 0.181073 0.478281 -0.463082
v 0.162199 0.458791 -0.447249
v 0.143849 0.439300 -0.431212
v 0.126003 0.419810 -0.414978
v 0.108797 0.400319 -0.398493
v 0.092379 0.380829 -0.381701
v 0.076889 0.361338 -0.364545
v 0.062457 0.341848 -0.346976
v 0.049196 0.322357 -0.328949
v 0.037197 0.302867 -0.310428
v 0.026533 0.283376 -0.291386
v 0.017253 0.263886 -0.271802
v 0.009380 0.244395 -0.251668
v 0.002915 0.224905 -0.230984
v -0.002167 0.205414 -0.209758
v -0.005914 0.185924 -0.188011
v -0.008397 0.166433 -0.165770
v -0.009711 0.146943 -0.143071
v -0.009967 0.127452 -0.119959
v -0.009294 0.107962 -0.096483
v -0.007833 0.088471 -0.072700
v -0.005733 0.068981 -0.048666
v -0.003128 0.049490 -0.024436
f 47 48 49
f 47 49 48
f 47 49 50
f 47 50 49
f 47 50 51
f 47 51 50
f 47 51 52
f 47 52 51
f 47 52 53
f 47 53 52
f 47 53 54
f 47 54 53
f 47 54 55
f 47 55 54
f 47 55 56
f 47 56 55
f 47 56 57
f 47 57 56
f 47 57 58
f 47 58 57
f 47 58 59
f 47 59 58
f 47 59 60
f 47 60 59
f 47 60 61
f 47 61 60
f 47 61 62
f 47 62 61
f 47 62 63
f 47 63 62
f 47 63 64
f 47 64 63
f 47 64 65
f 47 65 64
f 47 65 66
f 47 66 65
f 47 66 67
f 47 67 66
f 47 67 68
f 47 68 67
f 47 68 69
f 47 69 68
f 47 69 70
f 47 70 69
f 47 70 71
f 47 71 70
f 47 71 72
f 47 72 71
f 47 72 73
f 47 73 72
f 47 73 74
f 47 74 73
f 47 74 75
f 47 75 74
f 47 75 76
f 47 76 75
f 47 76 77
f 47 77 76
f 47 77 78
f 47 78 77
f 47 78 79
f 47 79 78
f 47 79 80
f 47 80 79
f 47 80 81
f 47 81 80
f 47 81 82
f 47 82 81
f 47 82 83
f 47 83 82
f 47 83 84
f 47 84 83
f 47 84 85
f 47 85 84
f 47 85 86
f 47 86 85
f 47 86 87
f 47 87 86
f 47 87 88
f 47 88 87
f 47 88 89
f 47 89 88
f 47 89 90
f 47 90 89
f 47 90 91
f 47 91 90
f 47 91 92
f 47 92 91
v 0.000000 0.030000 -0.000000
v 0.015428 0.041557 -0.000560
v 0.030050 0.053115 -0.002048
v 0.044243 0.064672 -0.004029
v 0.058015 0.076229 -0.006495
v 0.071332 0.087786 -0.009485
v 0.084149 0.099344 -0.013051
v 0.096420 0.110901 -0.017245
v 0.108105 0.122458 -0.022114
v 0.119169 0.134016 -0.027698
v 0.129584 0.145573 -0.034030
v 0.139331 0.157130 -0.041129
v 0.148402 0.168688 -0.049008
v 0.156796 0.180245 -0.057666
v 0.164522 0.191802 -0.067092
v 0.171600 0.203359 -0.077266
v 0.178056 0.214917 -0.088154
v 0.183926 0.226474 -0.099718
v 0.189250 0.238031 -0.111910
v 0.194075 0.249589 -0.124677
v 0.198444 0.261146 -0.137969
v 0.202392 0.272703 -0.151745
v 0.205911 0.284261 -0.166015
v 0.208625 0.295818 -0.181212
v 0.193197 0.284261 -0.180652
v 0.178575 0.272703 -0.179165
v 0.164382 0.261146 -0.177183
v 0.150610 0.249589 -0.174717
v 0.137293 0.238031 -0.171727
v 0.124476 0.226474 -0.168161
v 0.112205 0.214917 -0.163967
v 0.100520 0.203359 -0.159098
v 0.089456 0.191802 -0.153514
v 0.079041 0.180245 -0.147183
v 0.069293 0.168688 -0.140083
v 0.060223 0.157130 -0.132205
v 0.051829 0.145573 -0.123546
v 0.044103 0.134016 -0.114120
v 0.037025 0.122458 -0.103947
v 0.030569 0.110901 -0.093058
v 0.024699 0.099344 -0.081494
v 0.019374 0.087786 -0.069303
v 0.014550 0.076229 -0.056535
v 0.010181 0.064672 -0.043244
v 0.006233 0.053115 -0.029467
v 0.002714 0.041557 -0.015197
f 93 94 95
f 93 95 94
f 93 95 96
f 93 96 95
f 93 96 97
f 93 97 96
f 93 97 98
f 93 98 97
f 93 98 99
f 93 99 98
f 93 99 100
f 93 100 99
f 93 100 101
f 93 101 100
f 93 101 102
f 93 102 101
f 93 102 103
f 93 103 102
f 93 103 104
f 93 104 103
f 93 104 105
f 93 105 104
f 93 105 106
f 93 106 105
f 93 106 107
f 93 107 106
f 93 107 108
f 93 108 107
f 93 108 109
f 93 109 108
f 93 109 110
f 93 110 109
f 93 110 111
f 93 111 110
f 93 111 112
f 93 112 111
f 93 112 113
f 93 113 112
f 93 113 114
f 93 114 113
f 93 114 115
f 93 115 114
f 93 115 116
f 93 116 115
f 93 116 117
f 93 117 116
f 93 117 118
f 93 118 117
f 93 118 119
f 93 119 118
f 93 119 120
f 93 120 119
f 93 120 121
f 93 121 120
f 93 121 122
f 93 122 121
f 93 122 123
f 93 123 122
f 93 123 124
f 93 124 123
f 93 124 125
f 93 125 124
f 93 125 126
f 93 126 125
f 93 126 127
f 93 127 126
f 93 127 128
f 93 128 127
f 93 128 129
f 93 129 128
f 93 129 130
f 93 130 129
f 93 130 131
f 93 131 130
f 93 131 132
f 93 132 131
f 93 132 133
f 93 133 132
f 93 133 134
f 93 134 133
f 93 134 135
f 93 135 134
f 93 135 136
f 93 136 135
f 93 136 137
f 93 137 136
f 93 137 138
f 93 138 137
v 0.000000 0.030000 -0.000000
v 0.021018 0.054004 0.016323
v 0.041736 0.078008 0.030470
v 0.062285 0.102012 0.043399
v 0.082664 0.126016 0.055097
v 0.102856 0.150019 0.065441
v 0.122841 0.174023 0.074284
v 0.142598 0.198027 0.081481
v 0.162110 0.222031 0.086901
v 0.181360 0.246035 0.090431
v 0.200338 0.270039 0.091986
v 0.219034 0.294043 0.091507
v 0.237446 0.318047 0.088963
v 0.255572 0.342051 0.084355
v 0.273417 0.366055 0.077712
v 0.290989 0.390058 0.069094
v 0.308300 0.414062 0.058586
v 0.325365 0.438066 0.046301
v 0.342203 0.462070 0.032370
v 0.358834 0.486074 0.016939
v 0.375278 0.510078 0.000153
v 0.391551 0.534082 -0.017864
v 0.407656 0.558086 -0.037098
v 0.423461 0.582090 -0.058509
v 0.402443 0.558086 -0.074832
v 0.381725 0.534082 -0.088979
v 0.361176 0.510078 -0.101908
v 0.340797 0.486074 -0.113606
v 0.320605 0.462070 -0.123950
v 0.300620 0.438066 -0.132793
v 0.280863 0.414062 -0.139990
v 0.261351 0.390058 -0.145410
v 0.242101 0.366055 -0.148940
v 0.223123 0.342051 -0.150495
v 0.204426 0.318047 -0.150016
v 0.186015 0.294043 -0.147472
v 0.167889 0.270039 -0.142864
v 0.150044 0.246035 -0.136221
v 0.132472 0.222031 -0.127603
v 0.115161 0.198027 -0.117095
v 0.098095 0.174023 -0.104810
v 0.081257 0.150019 -0.090879
v 0.064627 0.126016 -0.075448
v 0.048183 0.102012 -0.058662
v 0.031910 0.078008 -0.040645
v 0.015805 0.054004 -0.021411
f 139 140 141
f 139 141 140
f 139 141 142
f 139 142 141
f 139 142 143
f 139 143 142
f 139 143 144
f 139 144 143
f 139 144 145
f 139 145 144
f 139 145 146
f 139 146 145
f 139 146 147
f 139 147 146
f 139 147 148
f 139 148 147
f 139 148 149
f 139 149 148
f 139 149 150
f 139 150 149
f 139 150 151
f 139 151 150
f 139 151 152
f 139 152 151
f 139 152 153
f 139 153 152
f 139 153 154
f 139 154 153
f 139 154 155
f 139 155 154
f 139 155 156
f 139 156 155
f 139 156 157
f 139 157 156
f 139 157 158
f 139 158 157
f 139 158 159
f 139 159 158
f 139 159 160
f 139 160 159
f 139 160 161
f 139 161 160
f 139 161 162
f 139 162 161
f 139 162 163
f 139 163 162
f 139 163 164
f 139 164 163
f 139 164 165
f 139 165 164
f 139 165 166
f 139 166 165
f 139 166 167
f 139 167 166
f 139 167 168
f 139 168 167
f 139 168 169
f 139 169 168
f 139 169 170
f 139 170 169
f 139 170 171
f 139 171 170
f 139 171 172
f 139 172 171
f 139 172 173
f 139 173 172
f 139 173 174
f 139 174 173
f 139 174 175
f 139 175 174
f 139 175 176
f 139 176 175
f 139 176 177
f 139 177 176
f 139 177 178
f 139 178 177
f 139 178 179
f 139 179 178
f 139 179 180
f 139 180 179
f 139 180 181
f 139 181 180
f 139 181 182
f 139 182 181
f 139 182 183
f 139 183 182
f 139 183 184
f 139 184 183
v 0.000000 0.030000 -0.000000
v 0.010036 0.046810 0.013415
v 0.020172 0.063620 0.026502
v 0.030428 0.080430 0.039191
v 0.040846 0.097241 0.051341
v 0.051470 0.114051 0.062812
v 0.062339 0.130861 0.073471
v 0.073489 0.147671 0.083199
v 0.084952 0.164481 0.091892
v 0.096754 0.181291 0.099464
v 0.108914 0.198102 0.105849
v 0.121446 0.214912 0.111004
v 0.134356 0.231722 0.114904
v 0.147646 0.248532 0.117550
v 0.161307 0.265342 0.118966
v 0.175327 0.282152 0.119194
v 0.189686 0.298963 0.118302
v 0.204357 0.315773 0.116375
v 0.219310 0.332583 0.113516
v 0.234508 0.349393 0.109846
v 0.249911 0.366203 0.105497
v 0.265477 0.383013 0.100609
v 0.281163 0.399824 0.095323
v 0.296948 0.416634 0.089708
v 0.286912 0.399824 0.076293
v 0.276776 0.383013 0.063206
v 0.266520 0.366203 0.050517
v 0.256102 0.349393 0.038367
v 0.245478 0.332583 0.026896
v 0.234609 0.315773 0.016237
v 0.223459 0.298963 0.006509
v 0.211996 0.282152 -0.002184
v 0.200194 0.265342 -0.009756
v 0.188034 0.248532 -0.016142
v 0.175502 0.231722 -0.021296
v 0.162591 0.214912 -0.025196
v 0.149302 0.198102 -0.027843
v 0.135640 0.181291 -0.029258
v 0.121620 0.164481 -0.029487
v 0.107262 0.147671 -0.028594
v 0.092591 0.130861 -0.026667
v 0.077638 0.114051 -0.023808
v 0.062440 0.097241 -0.020138
v 0.047037 0.080430 -0.015789
v 0.031471 0.063620 -0.010901
v 0.015785 0.046810 -0.005615
f 185 186 187
f 185 187 186
f 185 187 188
f 185 188 187
f 185 188 189
f 185 189 188
f 185 189 190
f 185 190 189
f 185 190 191
f 185 191 190
f 185 191 192
f 185 192 191
f 185 192 193
f 185 193 192
f 185 193 194
f 185 194 193
f 185 194 195
f 185 195 194
f 185 195 196
f 185 196 195
f 185 196 197
f 185 197 196
f 185 197 198
f 185 198 197
f 185 198 199
f 185 199 198
f 185 199 200
f 185 200 199
f 185 200 201
f 185 201 200
f 185 201 202
f 185 202 201
f 185 202 203
f 185 203 202
f 185 203 204
f 185 204 203
f 185 204 205
f 185 205 204
f 185 205 206
f 185 206 205
f 185 206 207
f 185 207 206
f 185 207 208
f 185 208 207
f 185 208 209
f 185 209 208
f 185 209 210
f 185 210 209
f 185 210 211
f 185 211 210
f 185 211 212
f 185 212 211
f 185 212 213
f 185 213 212
f 185 213 214
f 185 214 213
f 185 214 215
f 185 215 214
f 185 215 216
f 185 216 215
f 185 216 217
f 185 217 216
f 185 217 218
f 185 218 217
f 185 218 219
f 185 219 218
f 185 219 220
f 185 220 219
f 185 220 221
f 185 221 220
f 185 221 222
f 185 222 221
f 185 222 223
f 185 223 222
f 185 223 224
f 185 224 223
f 185 224 225
f 185 225 224
f 185 225 226
f 185 226 225
f 185 226 227
f 185 227 226
f 185 227 228
f 185 228 227
f 185 228 229
f 185 229 228
f 185 229 230
f 185 230 229
v 0.000000 0.030000 -0.000000
v 0.005746 0.043170 0.010891
v 0.010881 0.056341 0.022775
v 0.015878 0.069511 0.034883
v 0.020928 0.082681 0.046904
v 0.026175 0.095851 0.058605
v 0.031737 0.109022 0.069795
v 0.037717 0.122192 0.080306
v 0.044201 0.135362 0.089998
v 0.051258 0.148532 0.098759
v 0.058942 0.161703 0.106501
v 0.067289 0.174873 0.113165
v 0.076318 0.188043 0.118721
v 0.086028 0.201213 0.123171
v 0.096402 0.214384 0.126543
v 0.107402 0.227554 0.128895
v 0.118977 0.240724 0.130316
v 0.131055 0.253894 0.130919
v 0.143550 0.267065 0.130843
v 0.156361 0.280235 0.130255
v 0.169368 0.293405 0.129348
v 0.182428 0.306576 0.128353
v 0.195351 0.319746 0.127583
v 0.207663 0.332916 0.127805
v 0.201917 0.319746 0.116914
v 0.196782 0.306576 0.105030
v 0.191785 0.293405 0.092922
v 0.186735 0.280235 0.080901
v 0.181488 0.267065 0.069200
v 0.175926 0.253894 0.058010
v 0.169946 0.240724 0.047500
v 0.163462 0.227554 0.037807
v 0.156405 0.214384 0.029046
v 0.148721 0.201213 0.021304
v 0.140374 0.188043 0.014640
v 0.131345 0.174873 0.009084
v 0.121635 0.161703 0.004634
v 0.111261 0.148532 0.001262
v 0.100261 0.135362 -0.001090
v 0.088686 0.122192 -0.002511
v 0.076608 0.109022 -0.003114
v 0.064113 0.095851 -0.003038
v 0.051302 0.082681 -0.002450
v 0.038295 0.069511 -0.001543
v 0.025235 0.056341 -0.000548
v 0.012312 0.043170 0.000222
f 231 232 233
f 231 233 232
f 231 233 234
f 231 234 233
f 231 234 235
f 231 235 234
f 231 235 236
f 231 236 235
f 231 236 237
f 231 237 236
f 231 237 238
f 231 238 237
f 231 238 239
f 231 239 238
f 231 239 240
f 231 240 239
f 231 240 241
f 231 241 240
f 231 241 242
f 231 242 241
f 231 242 243
f 231 243 242
f 231 243 244
f 231 244 243
f 231 244 245
f 231 245 244
f 231 245 246
f 231 246 245
f 231 246 247
f 231 247 246
f 231 247 248
f 231 248 247
f 231 248 249
f 231 249 248
f 231 249 250
f 231 250 249
f 231 250 251
f 231 251 250
f 231 251 252
f 231 252 251
f 231 252 253
f 231 253 252
f 231 253 254
f 231 254 253
f 231 254 255
f 231 255 254
f 231 255 256
f 231 256 255
f 231 256 257
f 231 257 256
f 231 257 258
f 231 258 257
f 231 258 259
f 231 259 258
f 231 259 260
f 231 260 259
f 231 260 261
f 231 261 260
f 231 261 262
f 231 262 261
f 231 262 263
f 231 263 262
f 231 263 264
f 231 264 263
f 231 264 265
f 231 265 264
f 231 265 266
f 231 266 265
f 231 266 267
f 231 267 266
f 231 267 268
f 231 268 267
f 231 268 269
f 231 269 268
f 231 269 270
f 231 270 269
f 231 270 271
f 231 271 270
f 231 271 272
f 231 272 271
f 231 272 273
f 231 273 272
f 231 273 274
f 231 274 273
f 231 274 275
f 231 275 274
f 231 275 276
f 231 276 275
v 0.000000 0.030000 -0.000000
v -0.001282 0.039886 0.016960
v -0.002545 0.049772 0.033909
v -0.003540 0.059658 0.050694
v -0.004092 0.069544 0.067209
v -0.004045 0.079430 0.083359
v -0.003257 0.089316 0.099057
v -0.001604 0.099202 0.114228
v 0.001022 0.109088 0.128805
v 0.004710 0.118974 0.142735
v 0.009527 0.128860 0.155976
v 0.015520 0.138746 0.168501
v 0.022711 0.148632 0.180294
v 0.031101 0.158518 0.191357
v 0.040666 0.168404 0.201703
v 0.051361 0.178290 0.211360
v 0.063117 0.188176 0.220370
v 0.075847 0.198063 0.228787
v 0.089442 0.207949 0.236676
v 0.103777 0.217835 0.244113
v 0.118712 0.227721 0.251185
v 0.134089 0.237607 0.257987
v 0.149734 0.247493 0.264626
v 0.165399 0.257379 0.271253
v 0.166681 0.247493 0.254292
v 0.167944 0.237607 0.237344
v 0.168939 0.227721 0.220559
v 0.169491 0.217835 0.204044
v 0.169443 0.207949 0.187894
v 0.168656 0.198063 0.172196
v 0.167003 0.188176 0.157025
v 0.164377 0.178290 0.142448
v 0.160689 0.168404 0.128518
v 0.155872 0.158518 0.115277
v 0.149879 0.148632 0.102752
v 0.142688 0.138746 0.090959
v 0.134298 0.128860 0.079896
v 0.124733 0.118974 0.069550
v 0.114038 0.109088 0.059892
v 0.102282 0.099202 0.050882
v 0.089552 0.089316 0.042466
v 0.075957 0.079430 0.034577
v 0.061622 0.069544 0.027140
v 0.046687 0.059658 0.020068
v 0.031310 0.049772 0.013265
v 0.015665 0.039886 0.006627
f 277 278 279
f 277 279 278
f 277 279 280
f 277 280 279
f 277 280 281
f 277 281 280
f 277 281 282
f 277 282 281
f 277 282 283
f 277 283 282
f 277 283 284
f 277 284 283
f 277 284 285
f 277 285 284
f 277 285 286
f 277 286 285
f 277 286 287
f 277 287 286
f 277 287 288
f 277 288 287
f 277 288 289
f 277 289 288
f 277 289 290
f 277 290 289
f 277 290 291
f 277 291 290
f 277 291 292
f 277 292 291
f 277 292 293
f 277 293 292
f 277 293 294
f 277 294 293
f 277 294 295
f 277 295 294
f 277 295 296
f 277 296 295
f 277 296 297
f 277 297 296
f 277 297 298
f 277 298 297
f 277 298 299
f 277 299 298
f 277 299 300
f 277 300 299
f 277 300 301
f 277 301 300
f 277 301 302
f 277 302 301
f 277 302 303
f 277 303 302
f 277 303 304
f 277 304 303
f 277 304 305
f 277 305 304
f 277 305 306
f 277 306 305
f 277 306 307
f 277 307 306
f 277 307 308
f 277 308 307
f 277 308 309
f 277 309 308
f 277 309 310
f 277 310 309
f 277 310 311
f 277 311 310
f 277 311 312
f 277 312 311
f 277 312 313
f 277 313 312
f 277 313 314
f 277 314 313
f 277 314 315
f 277 315 314
f 277 315 316
f 277 316 315
f 277 316 317
f 277 317 316
f 277 317 318
f 277 318 317
f 277 318 319
f 277 319 318
f 277 319 320
f 277 320 319
f 277 320 321
f 277 321 320
f 277 321 322
f 277 322 321
v 0.000000 0.030000 -0.000000
v -0.011358 0.053739 0.012264
v -0.024678 0.077478 0.024308
v -0.038470 0.101217 0.036300
v -0.052133 0.124956 0.048306
v -0.065217 0.148695 0.060377
v -0.077351 0.172434 0.072554
v -0.088213 0.196173 0.084874
v -0.097535 0.219911 0.097365
v -0.105097 0.243650 0.110054
v -0.110730 0.267389 0.122957
v -0.114323 0.291128 0.136089
v -0.115817 0.314867 0.149456
v -0.115213 0.338606 0.163057
v -0.112568 0.362345 0.176886
v -0.107995 0.386084 0.190931
v -0.101661 0.409823 0.205173
v -0.093787 0.433562 0.219586
v -0.084643 0.457301 0.234142
v -0.074546 0.481040 0.248805
v -0.063873 0.504779 0.263531
v -0.053069 0.528518 0.278273
v -0.042737 0.552256 0.292961
v -0.034368 0.575995 0.307431
v -0.023010 0.552256 0.295167
v -0.009690 0.528518 0.283122
v 0.004103 0.504779 0.271130
v 0.017765 0.481040 0.259124
v 0.030850 0.457301 0.247053
v 0.042983 0.433562 0.234876
v 0.053845 0.409823 0.222557
v 0.063167 0.386084 0.210065
v 0.070729 0.362345 0.197377
v 0.076362 0.338606 0.184473
v 0.079955 0.314867 0.171341
v 0.081449 0.291128 0.157975
v 0.080845 0.267389 0.144374
v 0.078200 0.243650 0.130544
v 0.073627 0.219911 0.116499
v 0.067294 0.196173 0.102258
v 0.059420 0.172434 0.087844
v 0.050275 0.148695 0.073288
v 0.040179 0.124956 0.058626
v 0.029505 0.101217 0.043899
v 0.018701 0.077478 0.029158
v 0.008369 0.053739 0.014469
f 323 324 325
f 323 325 324
f 323 325 326
f 323 326 325
f 323 326 327
f 323 327 326
f 323 327 328
f 323 328 327
f 323 328 329
f 323 329 328
f 323 329 330
f 323 330 329
f 323 330 331
f 323 331 330
f 323 331 332
f 323 332 331
f 323 332 333
f 323 333 332
f 323 333 334
f 323 334 333
f 323 334 335
f 323 335 334
f 323 335 336
f 323 336 335
f 323 336 337
f 323 337 336
f 323 337 338
f 323 338 337
f 323 338 339
f 323 339 338
f 323 339 340
f 323 340 339
f 323 340 341
f 323 341 340
f 323 341 342
f 323 342 341
f 323 342 343
f 323 343 342
f 323 343 344
f 323 344 343
f 323 344 345
f 323 345 344
f 323 345 346
f 323 346 345
f 323 346 347
f 323 347 346
f 323 347 348
f 323 348 347
f 323 348 349
f 323 349 348
f 323 349 350
f 323 350 349
f 323 350 351
f 323 351 350
f 323 351 352
f 323 352 351
f 323 352 353
f 323 353 352
f 323 353 354
f 323 354 353
f 323 354 355
f 323 355 354
f 323 355 356
f 323 356 355
f 323 356 357
f 323 357 356
f 323 357 358
f 323 358 357
f 323 358 359
f 323 359 358
f 323 359 360
f 323 360 359
f 323 360 361
f 323 361 360
f 323 361 362
f 323 362 361
f 323 362 363
f 323 363 362
f 323 363 364
f 323 364 363
f 323 364 365
f 323 365 364
f 323 365 366
f 323 366 365
f 323 366 367
f 323 367 366
f 323 367 368
f 323 368 367
v 0.000000 0.030000 -0.000000
v -0.013563 0.052516 0.006682
v -0.028462 0.075033 0.012536
v -0.043679 0.097549 0.018195
v -0.058800 0.120065 0.023912
v -0.073521 0.142582 0.029877
v -0.087585 0.165098 0.036249
v -0.100773 0.187614 0.043162
v -0.112901 0.210130 0.050732
v -0.123819 0.232647 0.059052
v -0.133411 0.255163 0.068192
v -0.141601 0.277679 0.078200
v -0.148349 0.300196 0.089100
v -0.153655 0.322712 0.100893
v -0.157558 0.345228 0.113555
v -0.160136 0.367745 0.127037
v -0.161504 0.390261 0.141268
v -0.161811 0.412777 0.156155
v -0.161243 0.435294 0.171585
v -0.160018 0.457810 0.187421
v -0.158392 0.480326 0.203505
v -0.156671 0.502843 0.219648
v -0.155268 0.525359 0.235595
v -0.155200 0.547875 0.250714
v -0.141637 0.525359 0.244033
v -0.126738 0.502843 0.238178
v -0.111521 0.480326 0.232519
v -0.096400 0.457810 0.226803
v -0.081679 0.435294 0.220837
v -0.067615 0.412777 0.214466
v -0.054427 0.390261 0.207552
v -0.042299 0.367745 0.199982
v -0.031381 0.345228 0.191662
v -0.021789 0.322712 0.182523
v -0.013599 0.300196 0.172515
v -0.006851 0.277679 0.161614
v -0.001545 0.255163 0.149821
v 0.002358 0.232647 0.137159
v 0.004936 0.210130 0.123677
v 0.006304 0.187614 0.109446
v 0.006611 0.165098 0.094559
v 0.006043 0.142582 0.079129
v 0.004818 0.120065 0.063293
v 0.003192 0.097549 0.047209
v 0.001471 0.075033 0.031066
v 0.000068 0.052516 0.015120
f 369 370 371
f 369 371 370
f 369 371 372
f 369 372 371
f 369 372 373
f 369 373 372
f 369 373 374
f 369 374 373
f 369 374 375
f 369 375 374
f 369 375 376
f 369 376 375
f 369 376 377
f 369 377 376
f 369 377 378
f 369 378 377
f 369 378 379
f 369 379 378
f 369 379 380
f 369 380 379
f 369 380 381
f 369 381 380
f 369 381 382
f 369 382 381
f 369 382 383
f 369 383 382
f 369 383 384
f 369 384 383
f 369 384 385
f 369 385 384
f 369 385 386
f 369 386 385
f 369 386 387
f 369 387 386
f 369 387 388
f 369 388 387
f 369 388 389
f 369 389 388
f 369 389 390
f 369 390 389
f 369 390 391
f 369 391 390
f 369 391 392
f 369 392 391
f 369 392 393
f 369 393 392
f 369 393 394
f 369 394 393
f 369 394 395
f 369 395 394
f 369 395 396
f 369 396 395
f 369 396 397
f 369 397 396
f 369 397 398
f 369 398 397
f 369 398 399
f 369 399 398
f 369 399 400
f 369 400 399
f 369 400 401
f 369 401 400
f 369 401 402
f 369 402 401
f 369 402 403
f 369 403 402
f 369 403 404
f 369 404 403
f 369 404 405
f 369 405 404
f 369 405 406
f 369 406 405
f 369 406 407
f 369 407 406
f 369 407 408
f 369 408 407
f 369 408 409
f 369 409 408
f 369 409 410
f 369 410 409
f 369 410 411
f 369 411 410
f 369 411 412
f 369 412 411
f 369 412 413
f 369 413 412
f 369 413 414
f 369 414 413
v 0.000000 0.030000 -0.000000
v -0.020900 0.048464 0.004712
v -0.042605 0.066928 0.008673
v -0.064328 0.085391 0.012617
v -0.085728 0.103855 0.016862
v -0.106539 0.122319 0.021657
v -0.126537 0.140783 0.027213
v -0.145524 0.159247 0.033713
v -0.163337 0.177710 0.041309
v -0.179840 0.196174 0.050130
v -0.194930 0.214638 0.060270
v -0.208538 0.233102 0.071795
v -0.220629 0.251566 0.084737
v -0.231203 0.270029 0.099097
v -0.240295 0.288493 0.114841
v -0.247974 0.306957 0.131905
v -0.254343 0.325421 0.150192
v -0.259538 0.343885 0.169577
v -0.263723 0.362348 0.189906
v -0.267093 0.380812 0.210995
v -0.269875 0.399276 0.232634
v -0.272334 0.417740 0.254575
v -0.274812 0.436204 0.276498
v -0.278093 0.454667 0.297670
v -0.257193 0.436204 0.292958
v -0.235489 0.417740 0.288997
v -0.213766 0.399276 0.285053
v -0.192366 0.380812 0.280808
v -0.171554 0.362348 0.276013
v -0.151557 0.343885 0.270457
v -0.132569 0.325421 0.263958
v -0.114757 0.306957 0.256361
v -0.098254 0.288493 0.247540
v -0.083164 0.270029 0.237400
v -0.069555 0.251566 0.225875
v -0.057464 0.233102 0.212933
v -0.046891 0.214638 0.198573
v -0.037799 0.196174 0.182829
v -0.030120 0.177710 0.165765
v -0.023750 0.159247 0.147478
v -0.018556 0.140783 0.128093
v -0.014371 0.122319 0.107764
v -0.011000 0.103855 0.086675
v -0.008218 0.085391 0.065036
v -0.005759 0.066928 0.043096
v -0.003282 0.048464 0.021172
f 415 416 417
f 415 417 416
f 415 417 418
f 415 418 417
f 415 418 419
f 415 419 418
f 415 419 420
f 415 420 419
f 415 420 421
f 415 421 420
f 415 421 422
f 415 422 421
f 415 422 423
f 415 423 422
f 415 423 424
f 415 424 423
f 415 424 425
f 415 425 424
f 415 425 426
f 415 426 425
f 415 426 427
f 415 427 426
f 415 427 428
f 415 428 427
f 415 428 429
f 415 429 428
f 415 429 430
f 415 430 429
f 415 430 431
f 415 431 430
f 415 431 432
f 415 432 431
f 415 432 433
f 415 433 432
f 415 433 434
f 415 434 433
f 415 434 435
f 415 435 434
f 415 435 436
f 415 436 435
f 415 436 437
f 415 437 436
f 415 437 438
f 415 438 437
f 415 438 439
f 415 439 438
f 415 439 440
f 415 440 439
f 415 440 441
f 415 441 440
f 415 441 442
f 415 442 441
f 415 442 443
f 415 443 442
f 415 443 444
f 415 444 443
f 415 444 445
f 415 445 444
f 415 445 446
f 415 446 445
f 415 446 447
f 415 447 446
f 415 447 448
f 415 448 447
f 415 448 449
f 415 449 448
f 415 449 450
f 415 450 449
f 415 450 451
f 415 451 450
f 415 451 452
f 415 452 451
f 415 452 453
f 415 453 452
f 415 453 454
f 415 454 453
f 415 454 455
f 415 455 454
f 415 455 456
f 415 456 455
f 415 456 457
f 415 457 456
f 415 457 458
f 415 458 457
f 415 458 459
f 415 459 458
f 415 459 460
f 415 460 459
v 0.000000 0.030000 -0.000000
v -0.012103 0.056064 -0.007164
v -0.024240 0.082129 -0.014442
v -0.036297 0.108193 -0.021453
v -0.048206 0.134257 -0.027967
v -0.059909 0.160321 -0.033786
v -0.071352 0.186386 -0.038733
v -0.082489 0.212450 -0.042651
v -0.093280 0.238514 -0.045407
v -0.103693 0.264578 -0.046892
v -0.113703 0.290643 -0.047020
v -0.123292 0.316707 -0.045736
v -0.132453 0.342771 -0.043011
v -0.141184 0.368835 -0.038844
v -0.149496 0.394900 -0.033265
v -0.157404 0.420964 -0.026329
v -0.164933 0.447028 -0.018122
v -0.172117 0.473092 -0.008753
v -0.178995 0.499157 0.001644
v -0.185613 0.525221 0.012914
v -0.192025 0.551285 0.024879
v -0.198289 0.577349 0.037341
v -0.204473 0.603414 0.050070
v -0.210691 0.629478 0.062685
v -0.198588 0.603414 0.069849
v -0.186451 0.577349 0.077127
v -0.174394 0.551285 0.084138
v -0.162485 0.525221 0.090652
v -0.150782 0.499157 0.096471
v -0.139339 0.473092 0.101418
v -0.128202 0.447028 0.105336
v -0.117411 0.420964 0.108092
v -0.106998 0.394900 0.109576
v -0.096988 0.368835 0.109705
v -0.087399 0.342771 0.108421
v -0.078238 0.316707 0.105695
v -0.069507 0.290643 0.101529
v -0.061195 0.264578 0.095949
v -0.053287 0.238514 0.089014
v -0.045758 0.212450 0.080807
v -0.038574 0.186386 0.071438
v -0.031696 0.160321 0.061040
v -0.025078 0.134257 0.049771
v -0.018666 0.108193 0.037806
v -0.012402 0.082129 0.025344
v -0.006218 0.056064 0.012615
f 461 462 463
f 461 463 462
f 461 463 464
f 461 464 463
f 461 464 465
f 461 465 464
f 461 465 466
f 461 466 465
f 461 466 467
f 461 467 466
f 461 467 468
f 461 468 467
f 461 468 469
f 461 469 468
f 461 469 470
f 461 470 469
f 461 470 471
f 461 471 470
f 461 471 472
f 461 472 471
f 461 472 473
f 461 473 472
f 461 473 474
f 461 474 473
f 461 474 475
f 461 475 474
f 461 475 476
f 461 476 475
f 461 476 477
f 461 477 476
f 461 477 478
f 461 478 477
f 461 478 479
f 461 479 478
f 461 479 480
f 461 480 479
f 461 480 481
f 461 481 480
f 461 481 482
f 461 482 481
f 461 482 483
f 461 483 482
f 461 483 484
f 461 484 483
f 461 484 485
f 461 485 484
f 461 485 486
f 461 486 485
f 461 486 487
f 461 487 486
f 461 487 488
f 461 488 487
f 461 488 489
f 461 489 488
f 461 489 490
f 461 490 489
f 461 490 491
f 461 491 490
f 461 491 492
f 461 492 491
f 461 492 493
f 461 493 492
f 461 493 494
f 461 494 493
f 461 494 495
f 461 495 494
f 461 495 496
f 461 496 495
f 461 496 497
f 461 497 496
f 461 497 498
f 461 498 497
f 461 498 499
f 461 499 498
f 461 499 500
f 461 500 499
f 461 500 501
f 461 501 500
f 461 501 502
f 461 502 501
f 461 502 503
f 461 503 502
f 461 503 504
f 461 504 503
f 461 504 505
f 461 505 504
f 461 505 506
f 461 506 505
v 0.000000 0.030000 -0.000000
v -0.004797 0.057579 -0.023469
v -0.010284 0.085158 -0.044626
v -0.016158 0.112736 -0.064483
v -0.022426 0.140315 -0.083021
v -0.029127 0.167894 -0.100107
v -0.036309 0.195473 -0.115582
v -0.044019 0.223051 -0.129288
v -0.052298 0.250630 -0.141083
v -0.061183 0.278209 -0.150847
v -0.070702 0.305788 -0.158487
v -0.080873 0.333366 -0.163939
v -0.091707 0.360945 -0.167170
v -0.103203 0.388524 -0.168182
v -0.115352 0.416103 -0.167005
v -0.128134 0.443681 -0.163704
v -0.141522 0.471260 -0.158372
v -0.155480 0.498839 -0.151129
v -0.169966 0.526418 -0.142118
v -0.184932 0.553997 -0.131495
v -0.200332 0.581575 -0.119420
v -0.216125 0.609154 -0.106027
v -0.232306 0.636733 -0.091332
v -0.249176 0.664312 -0.074327
v -0.244379 0.636733 -0.050858
v -0.238892 0.609154 -0.029700
v -0.233018 0.581575 -0.009843
v -0.226750 0.553997 0.008695
v -0.220048 0.526418 0.025781
v -0.212867 0.498839 0.041255
v -0.205157 0.471260 0.054961
v -0.196878 0.443681 0.066756
v -0.187993 0.416103 0.076520
v -0.178474 0.388524 0.084160
v -0.168303 0.360945 0.089612
v -0.157469 0.333366 0.092844
v -0.145973 0.305788 0.093855
v -0.133824 0.278209 0.092678
v -0.121042 0.250630 0.089377
v -0.107654 0.223051 0.084045
v -0.093696 0.195473 0.076803
v -0.079210 0.167894 0.067791
v -0.064244 0.140315 0.057169
v -0.048844 0.112736 0.045094
v -0.033051 0.085158 0.031700
v -0.016870 0.057579 0.017005
f 507 508 509
f 507 509 508
f 507 509 510
f 507 510 509
f 507 510 511
f 507 511 510
f 507 511 512
f 507 512 511
f 507 512 513
f 507 513 512
f 507 513 514
f 507 514 513
f 507 514 515
f 507 515 514
f 507 515 516
f 507 516 515
f 507 516 517
f 507 517 516
f 507 517 518
f 507 518 517
f 507 518 519
f 507 519 518
f 507 519 520
f 507 520 519
f 507 520 521
f 507 521 520
f 507 521 522
f 507 522 521
f 507 522 523
f 507 523 522
f 507 523 524
f 507 524 523
f 507 524 525
f 507 525 524
f 507 525 526
f 507 526 525
f 507 526 527
f 507 527 526
f 507 527 528
f 507 528 527
f 507 528 529
f 507 529 528
f 507 529 530
f 507 530 529
f 507 530 531
f 507 531 530
f 507 531 532
f 507 532 531
f 507 532 533
f 507 533 532
f 507 533 534
f 507 534 533
f 507 534 535
f 507 535 534
f 507 535 536
f 507 536 535
f 507 536 537
f 507 537 536
f 507 537 538
f 507 538 537
f 507 538 539
f 507 539 538
f 507 539 540
f 507 540 539
f 507 540 541
f 507 541 540
f 507 541 542
f 507 542 541
f 507 542 543
f 507 543 542
f 507 543 544
f 507 544 543
f 507 544 545
f 507 545 544
f 507 545 546
f 507 546 545
f 507 546 547
f 507 547 546
f 507 547 548
f 507 548 547
f 507 548 549
f 507 549 548
f 507 549 550
f 507 550 549
f 507 550 551
f 507 551 550
f 507 551 552
f 507 552 551
v 0.000000 0.030000 -0.000000
v -0.003869 0.057280 -0.018152
v -0.008341 0.084559 -0.035324
v -0.013212 0.111839 -0.051847
v -0.018523 0.139118 -0.067656
v -0.024340 0.166398 -0.082644
v -0.030732 0.193678 -0.096697
v -0.037766 0.220957 -0.109708
v -0.045500 0.248237 -0.121581
v -0.053984 0.275516 -0.132238
v -0.063254 0.302796 -0.141616
v -0.073338 0.330076 -0.149674
v -0.084247 0.357355 -0.156391
v -0.095982 0.384635 -0.161766
v -0.108530 0.411914 -0.165820
v -0.121865 0.439194 -0.168597
v -0.135949 0.466474 -0.170156
v -0.150733 0.493753 -0.170578
v -0.166160 0.521033 -0.169958
v -0.182161 0.548312 -0.168403
v -0.198668 0.575592 -0.166027
v -0.215615 0.602872 -0.162937
v -0.232962 0.630151 -0.159197
v -0.250911 0.657431 -0.154479
v -0.247043 0.630151 -0.136327
v -0.242571 0.602872 -0.119155
v -0.237699 0.575592 -0.102632
v -0.232388 0.548312 -0.086822
v -0.226571 0.521033 -0.071835
v -0.220179 0.493753 -0.057782
v -0.213145 0.466474 -0.044771
v -0.205411 0.439194 -0.032897
v -0.196928 0.411914 -0.022241
v -0.187657 0.384635 -0.012862
v -0.177574 0.357355 -0.004805
v -0.166665 0.330076 0.001912
v -0.154930 0.302796 0.007287
v -0.142382 0.275516 0.011342
v -0.129047 0.248237 0.014118
v -0.114962 0.220957 0.015677
v -0.100178 0.193678 0.016099
v -0.084752 0.166398 0.015479
v -0.068750 0.139118 0.013925
v -0.052243 0.111839 0.011548
v -0.035296 0.084559 0.008458
v -0.017950 0.057280 0.004719
f 553 554 555
f 553 555 554
f 553 555 556
f 553 556 555
f 553 556 557
f 553 557 556
f 553 557 558
f 553 558 557
f 553 558 559
f 553 559 558
f 553 559 560
f 553 560 559
f 553 560 561
f 553 561 560
f 553 561 562
f 553 562 561
f 553 562 563
f 553 563 562
f 553 563 564
f 553 564 563
f 553 564 565
f 553 565 564
f 553 565 566
f 553 566 565
f 553 566 567
f 553 567 566
f 553 567 568
f 553 568 567
f 553 568 569
f 553 569 568
f 553 569 570
f 553 570 569
f 553 570 571
f 553 571 570
f 553 571 572
f 553 572 571
f 553 572 573
f 553 573 572
f 553 573 574
f 553 574 573
f 553 574 575
f 553 575 574
f 553 575 576
f 553 576 575
f 553 576 577
f 553 577 576
f 553 577 578
f 553 578 577
f 553 578 579
f 553 579 578
f 553 579 580
f 553 580 579
f 553 580 581
f 553 581 580
f 553 581 582
f 553 582 581
f 553 582 583
f 553 583 582
f 553 583 584
f 553 584 583
f 553 584 585
f 553 585 584
f 553 585 586
f 553 586 585
f 553 586 587
f 553 587 586
f 553 587 588
f 553 588 587
f 553 588 589
f 553 589 588
f 553 589 590
f 553 590 589
f 553 590 591
f 553 591 590
f 553 591 592
f 553 592 591
f 553 592 593
f 553 593 592
f 553 593 594
f 553 594 593
f 553 594 595
f 553 595 594
f 553 595 596
f 553 596 595
f 553 596 597
f 553 597 596
f 553 597 598
f 553 598 597
v 0.000000 0.030000 -0.000000
v 0.000929 0.043381 -0.016654
v 0.002476 0.056761 -0.033723
v 0.003986 0.070142 -0.050768
v 0.005163 0.083523 -0.067589
v 0.005775 0.096904 -0.084029
v 0.005622 0.110284 -0.099956
v 0.004531 0.123665 -0.115254
v 0.002356 0.137046 -0.129822
v -0.001024 0.150426 -0.143582
v -0.005698 0.163807 -0.156472
v -0.011730 0.177188 -0.168451
v -0.019150 0.190569 -0.179496
v -0.027958 0.203949 -0.189610
v -0.038123 0.217330 -0.198812
v -0.049583 0.230711 -0.207143
v -0.062248 0.244092 -0.214666
v -0.075997 0.257472 -0.221461
v -0.090683 0.270853 -0.227625
v -0.106134 0.284234 -0.233276
v -0.122151 0.297614 -0.238547
v -0.138501 0.310995 -0.243594
v -0.154888 0.324376 -0.248616
v -0.170657 0.337757 -0.254054
v -0.171586 0.324376 -0.237400
v -0.173133 0.310995 -0.220331
v -0.174643 0.297614 -0.203286
v -0.175820 0.284234 -0.186466
v -0.176432 0.270853 -0.170025
v -0.176279 0.257472 -0.154098
v -0.175188 0.244092 -0.138801
v -0.173012 0.230711 -0.124232
v -0.169633 0.217330 -0.110472
v -0.164958 0.203949 -0.097582
v -0.158927 0.190569 -0.085604
v -0.151507 0.177188 -0.074558
v -0.142699 0.163807 -0.064444
v -0.132534 0.150426 -0.055243
v -0.121073 0.137046 -0.046911
v -0.108409 0.123665 -0.039388
v -0.094660 0.110284 -0.032594
v -0.079974 0.096904 -0.026429
v -0.064522 0.083523 -0.020778
v -0.048506 0.070142 -0.015507
v -0.032156 0.056761 -0.010460
v -0.015768 0.043381 -0.005438
f 599 600 601
f 599 601 600
f 599 601 602
f 599 602 601
f 599 602 603
f 599 603 602
f 599 603 604
f 599 604 603
f 599 604 605
f 599 605 604
f 599 605 606
f 599 606 605
f 599 606 607
f 599 607 606
f 599 607 608
f 599 608 607
f 599 608 609
f 599 609 608
f 599 609 610
f 599 610 609
f 599 610 611
f 599 611 610
f 599 611 612
f 599 612 611
f 599 612 613
f 599 613 612
f 599 613 614
f 599 614 613
f 599 614 615
f 599 615 614
f 599 615 616
f 599 616 615
f 599 616 617
f 599 617 616
f 599 617 618
f 599 618 617
f 599 618 619
f 599 619 618
f 599 619 620
f 599 620 619
f 599 620 621
f 599 621 620
f 599 621 622
f 599 622 621
f 599 622 623
f 599 623 622
f 599 623 624
f 599 624 623
f 599 624 625
f 599 625 624
f 599 625 626
f 599 626 625
f 599 626 627
f 599 627 626
f 599 627 628
f 599 628 627
f 599 628 629
f 599 629 628
f 599 629 630
f 599 630 629
f 599 630 631
f 599 631 630
f 599 631 632
f 599 632 631
f 599 632 633
f 599 633 632
f 599 633 634
f 599 634 633
f 599 634 635
f 599 635 634
f 599 635 636
f 599 636 635
f 599 636 637
f 599 637 636
f 599 637 638
f 599 638 637
f 599 638 639
f 599 639 638
f 599 639 640
f 599 640 639
f 599 640 641
f 599 641 640
f 599 641 642
f 599 642 641
f 599 642 643
f 599 643 642
f 599 643 644
f 599 644 643
v 0.000000 0.000000 0.040000
v 0.034641 0.000000 0.020000
v 0.034641 0.000000 -0.020000
v 0.000000 0.000000 -0.040000
v -0.034641 0.000000 -0.020000
v -0.034641 0.000000 0.020000
v 0.000000 0.030000 0.040000
v 0.034641 0.030000 0.020000
v 0.034641 0.030000 -0.020000
v 0.000000 0.030000 -0.040000
v -0.034641 0.030000 -0.020000
v -0.034641 0.030000 0.020000
f 645 646 652
f 645 652 651
f 646 647 653
f 646 653 652
f 647 648 654
f 647 654 653
f 648 649 655
f 648 655 654
f 649 650 656
f 649 656 655
f 650 645 651
f 650 651 656
