o mesh
v 0.000000 0.140000 -0.000000
v 6.353168 0.140000 -0.000000
v 6.256649 0.140000 -1.103216
v 5.970025 0.140000 -2.172911
v 5.502005 0.140000 -3.176584
v 4.866809 0.140000 -4.083738
v 4.083738 0.140000 -4.866809
v 3.176584 0.140000 -5.502005
v 2.172911 0.140000 -5.970025
v 1.103216 0.140000 -6.256649
v 0.000000 0.140000 -6.353168
v -1.103216 0.140000 -6.256649
v -2.172911 0.140000 -5.970025
v -3.176584 0.140000 -5.502005
v -4.083738 0.140000 -4.866809
v -4.866809 0.140000 -4.083738
v -5.502005 0.140000 -3.176584
v -5.970025 0.140000 -2.172911
v -6.256649 0.140000 -1.103216
v -6.353168 0.140000 -0.000000
v -6.256649 0.140000 1.103216
v -5.970025 0.140000 2.172911
v -5.502005 0.140000 3.176584
v -4.866809 0.140000 4.083738
v -4.083738 0.140000 4.866809
v -3.176584 0.140000 5.502005
v -2.172911 0.140000 5.970025
v -1.103216 0.140000 6.256649
v -0.000000 0.140000 6.353168
v 1.103216 0.140000 6.256649
v 2.172911 0.140000 5.970025
v 3.176584 0.140000 5.502005
v 4.083738 0.140000 4.866809
v 4.866809 0.140000 4.083738
v 5.502005 0.140000 3.176584
v 5.970025 0.140000 2.172911
v 6.256649 0.140000 1.103216
f 1 2 3
f 1 3 4
f 1 4 5
f 1 5 6
f 1 6 7
f 1 7 8
f 1 8 9
f 1 9 10
f 1 10 11
f 1 11 12
f 1 12 13
f 1 13 14
f 1 14 15
f 1 15 16
f 1 16 17
f 1 17 18
f 1 18 19
f 1 19 20
f 1 20 21
f 1 21 22
f 1 22 23
f 1 23 24
f 1 24 25
f 1 25 26
f 1 26 27
f 1 27 28
f 1 28 29
f 1 29 30
f 1 30 31
f 1 31 32
f 1 32 33
f 1 33 34
f 1 34 35
f 1 35 36
f 1 36 37
f 1 37 2
