o mesh
v 0.000000 0.000000 0.015000
v 0.008817 0.000000 0.012135
v 0.014266 0.000000 0.004635
v 0.014266 0.000000 -0.004635
v 0.008817 0.000000 -0.012135
v 0.000000 0.000000 -0.015000
v -0.008817 0.000000 -0.012135
v -0.014266 0.000000 -0.004635
v -0.014266 0.000000 0.004635
v -0.008817 0.000000 0.012135
v 0.000000 0.400000 0.010200
v 0.005995 0.400000 0.008252
v 0.009701 0.400000 0.003152
v 0.009701 0.400000 -0.003152
v 0.005995 0.400000 -0.008252
v 0.000000 0.400000 -0.010200
v -0.005995 0.400000 -0.008252
v -0.009701 0.400000 -0.003152
v -0.009701 0.400000 0.003152
v -0.005995 0.400000 0.008252
f 1 2 12
f 1 12 11
f 2 3 13
f 2 13 12
f 3 4 14
f 3 14 13
f 4 5 15
f 4 15 14
f 5 6 16
f 5 16 15
f 6 7 17
f 6 17 16
f 7 8 18
f 7 18 17
f 8 9 19
f 8 19 18
f 9 10 20
f 9 20 19
f 10 1 11
f 10 11 20
v -0.000413 0.400000 0.010192
v 0.003536 0.404576 0.008402
v 0.006135 0.407404 0.003403
v 0.006390 0.407404 -0.002896
v 0.004204 0.404576 -0.008088
v 0.000413 0.400000 -0.010192
v -0.003536 0.395424 -0.008402
v -0.006135 0.392596 -0.003403
v -0.006390 0.392596 0.002896
v -0.004204 0.395424 0.008088
v -0.246487 0.608576 -0.003046
v -0.243802 0.611688 -0.004263
v -0.242035 0.613611 -0.007662
v -0.241861 0.613611 -0.011945
v -0.243347 0.611688 -0.015476
v -0.245925 0.608576 -0.016906
v -0.248611 0.605465 -0.015689
v -0.250378 0.603541 -0.012290
v -0.250551 0.603541 -0.008007
v -0.249065 0.605465 -0.004476
f 21 22 32
f 21 32 31
f 22 23 33
f 22 33 32
f 23 24 34
f 23 34 33
f 24 25 35
f 24 35 34
f 25 26 36
f 25 36 35
f 26 27 37
f 26 37 36
f 27 28 38
f 27 38 37
f 28 29 39
f 28 39 38
f 29 30 40
f 29 40 39
f 30 21 31
f 30 31 40
v -0.247082 0.608576 -0.003096
v -0.246750 0.612650 -0.004389
v -0.246211 0.615167 -0.007816
v -0.245669 0.615167 -0.012068
v -0.245333 0.612650 -0.015521
v -0.245330 0.608576 -0.016856
v -0.245662 0.604503 -0.015563
v -0.246202 0.601985 -0.012136
v -0.246743 0.601985 -0.007884
v -0.247080 0.604503 -0.004431
v -0.502016 0.619057 -0.037792
v -0.501790 0.621827 -0.038672
v -0.501423 0.623539 -0.041002
v -0.501055 0.623539 -0.043894
v -0.500826 0.621827 -0.046242
v -0.500824 0.619057 -0.047150
v -0.501050 0.616287 -0.046270
v -0.501417 0.614575 -0.043940
v -0.501785 0.614575 -0.041048
v -0.502014 0.616287 -0.038700
f 41 42 52
f 41 52 51
f 42 43 53
f 42 53 52
f 43 44 54
f 43 54 53
f 44 45 55
f 44 55 54
f 45 46 56
f 45 56 55
f 46 47 57
f 46 57 56
f 47 48 58
f 47 58 57
f 48 49 59
f 48 59 58
f 49 50 60
f 49 60 59
f 50 41 51
f 50 51 60
v -0.502559 0.619057 -0.037894
v -0.503971 0.621262 -0.039174
v -0.504409 0.622625 -0.041713
v -0.503705 0.622625 -0.044542
v -0.502128 0.621262 -0.046579
v -0.500281 0.619057 -0.047048
v -0.498869 0.616851 -0.045768
v -0.498431 0.615488 -0.043229
v -0.499135 0.615488 -0.040400
v -0.500712 0.616851 -0.038363
v -0.676291 0.482452 -0.082689
v -0.677251 0.483952 -0.083559
v -0.677549 0.484879 -0.085286
v -0.677070 0.484879 -0.087209
v -0.675998 0.483952 -0.088595
v -0.674741 0.482452 -0.088913
v -0.673781 0.480952 -0.088043
v -0.673484 0.480025 -0.086317
v -0.673962 0.480025 -0.084393
v -0.675034 0.480952 -0.083008
f 61 62 72
f 61 72 71
f 62 63 73
f 62 73 72
f 63 64 74
f 63 74 73
f 64 65 75
f 64 75 74
f 65 66 76
f 65 76 75
f 66 67 77
f 66 77 76
f 67 68 78
f 67 78 77
f 68 69 79
f 68 79 78
f 69 70 80
f 69 80 79
f 70 61 71
f 70 71 80
v -0.675516 0.482452 -0.085801
v -0.674802 0.482986 -0.083245
v -0.674462 0.483979 -0.080634
v -0.674561 0.485512 -0.077960
v -0.675081 0.487562 -0.075224
v -0.675940 0.490029 -0.072440
v -0.677011 0.492755 -0.069624
v -0.678134 0.495546 -0.066801
v -0.679138 0.498190 -0.063996
v -0.679854 0.500482 -0.061232
v -0.680141 0.502245 -0.058530
v -0.679893 0.503352 -0.055906
v -0.679056 0.503734 -0.053367
v -0.677628 0.503392 -0.050914
v -0.675666 0.502392 -0.048539
v -0.673274 0.500865 -0.046226
v -0.670596 0.498986 -0.043954
v -0.667797 0.496959 -0.041700
v -0.665051 0.494997 -0.039438
v -0.662516 0.493295 -0.037146
v -0.660321 0.492009 -0.034804
v -0.658547 0.491240 -0.032401
v -0.657212 0.491012 -0.029935
v -0.656250 0.491242 -0.027414
v -0.656964 0.490708 -0.029971
v -0.657305 0.489715 -0.032581
v -0.657206 0.488182 -0.035256
v -0.656686 0.486132 -0.037991
v -0.655826 0.483665 -0.040776
v -0.654755 0.480938 -0.043591
v -0.653632 0.478147 -0.046414
v -0.652629 0.475504 -0.049220
v -0.651912 0.473212 -0.051984
v -0.651626 0.471449 -0.054685
v -0.651873 0.470342 -0.057309
v -0.652711 0.469960 -0.059848
v -0.654138 0.470302 -0.062301
v -0.656101 0.471301 -0.064676
v -0.658492 0.472828 -0.066990
v -0.661171 0.474708 -0.069261
v -0.663969 0.476734 -0.071515
v -0.666716 0.478697 -0.073777
v -0.669250 0.480399 -0.076070
v -0.671445 0.481685 -0.078411
v -0.673220 0.482453 -0.080814
v -0.674555 0.482682 -0.083281
f 81 82 83
f 81 83 82
f 81 83 84
f 81 84 83
f 81 84 85
f 81 85 84
f 81 85 86
f 81 86 85
f 81 86 87
f 81 87 86
f 81 87 88
f 81 88 87
f 81 88 89
f 81 89 88
f 81 89 90
f 81 90 89
f 81 90 91
f 81 91 90
f 81 91 92
f 81 92 91
f 81 92 93
f 81 93 92
f 81 93 94
f 81 94 93
f 81 94 95
f 81 95 94
f 81 95 96
f 81 96 95
f 81 96 97
f 81 97 96
f 81 97 98
f 81 98 97
f 81 98 99
f 81 99 98
f 81 99 100
f 81 100 99
f 81 100 101
f 81 101 100
f 81 101 102
f 81 102 101
f 81 102 103
f 81 103 102
f 81 103 104
f 81 104 103
f 81 104 105
f 81 105 104
f 81 105 106
f 81 106 105
f 81 106 107
f 81 107 106
f 81 107 108
f 81 108 107
f 81 108 109
f 81 109 108
f 81 109 110
f 81 110 109
f 81 110 111
f 81 111 110
f 81 111 112
f 81 112 111
f 81 112 113
f 81 113 112
f 81 113 114
f 81 114 113
f 81 114 115
f 81 115 114
f 81 115 116
f 81 116 115
f 81 116 117
f 81 117 116
f 81 117 118
f 81 118 117
f 81 118 119
f 81 119 118
f 81 119 120
f 81 120 119
f 81 120 121
f 81 121 120
f 81 121 122
f 81 122 121
f 81 122 123
f 81 123 122
f 81 123 124
f 81 124 123
f 81 124 125
f 81 125 124
f 81 125 126
f 81 126 125
v -0.675516 0.482452 -0.085801
v -0.674712 0.485222 -0.087627
v -0.673460 0.487593 -0.089994
v -0.671715 0.489526 -0.092956
v -0.669520 0.491056 -0.096461
v -0.666975 0.492275 -0.100388
v -0.664227 0.493312 -0.104562
v -0.661445 0.494320 -0.108775
v -0.658813 0.495461 -0.112808
v -0.656503 0.496888 -0.116453
v -0.654660 0.498733 -0.119533
v -0.653391 0.501089 -0.121920
v -0.652753 0.504007 -0.123546
v -0.652744 0.507487 -0.124411
v -0.653310 0.511479 -0.124583
v -0.654344 0.515888 -0.124190
v -0.655699 0.520584 -0.123409
v -0.657203 0.525412 -0.122448
v -0.658675 0.530212 -0.121526
v -0.659943 0.534829 -0.120851
v -0.660861 0.539135 -0.120598
v -0.661328 0.543040 -0.120888
v -0.661304 0.546505 -0.121773
v -0.660831 0.549571 -0.123200
v -0.661635 0.546800 -0.121374
v -0.662887 0.544429 -0.119007
v -0.664632 0.542497 -0.116045
v -0.666827 0.540967 -0.112540
v -0.669371 0.539748 -0.108613
v -0.672120 0.538711 -0.104439
v -0.674901 0.537703 -0.100226
v -0.677534 0.536562 -0.096193
v -0.679844 0.535134 -0.092548
v -0.681687 0.533290 -0.089468
v -0.682956 0.530933 -0.087081
v -0.683594 0.528015 -0.085455
v -0.683603 0.524535 -0.084590
v -0.683037 0.520543 -0.084418
v -0.682003 0.516134 -0.084811
v -0.680648 0.511439 -0.085592
v -0.679144 0.506610 -0.086553
v -0.677672 0.501811 -0.087474
v -0.676404 0.497193 -0.088150
v -0.675486 0.492887 -0.088403
v -0.675018 0.488983 -0.088112
v -0.675043 0.485517 -0.087227
f 127 128 129
f 127 129 128
f 127 129 130
f 127 130 129
f 127 130 131
f 127 131 130
f 127 131 132
f 127 132 131
f 127 132 133
f 127 133 132
f 127 133 134
f 127 134 133
f 127 134 135
f 127 135 134
f 127 135 136
f 127 136 135
f 127 136 137
f 127 137 136
f 127 137 138
f 127 138 137
f 127 138 139
f 127 139 138
f 127 139 140
f 127 140 139
f 127 140 141
f 127 141 140
f 127 141 142
f 127 142 141
f 127 142 143
f 127 143 142
f 127 143 144
f 127 144 143
f 127 144 145
f 127 145 144
f 127 145 146
f 127 146 145
f 127 146 147
f 127 147 146
f 127 147 148
f 127 148 147
f 127 148 149
f 127 149 148
f 127 149 150
f 127 150 149
f 127 150 151
f 127 151 150
f 127 151 152
f 127 152 151
f 127 152 153
f 127 153 152
f 127 153 154
f 127 154 153
f 127 154 155
f 127 155 154
f 127 155 156
f 127 156 155
f 127 156 157
f 127 157 156
f 127 157 158
f 127 158 157
f 127 158 159
f 127 159 158
f 127 159 160
f 127 160 159
f 127 160 161
f 127 161 160
f 127 161 162
f 127 162 161
f 127 162 163
f 127 163 162
f 127 163 164
f 127 164 163
f 127 164 165
f 127 165 164
f 127 165 166
f 127 166 165
f 127 166 167
f 127 167 166
f 127 167 168
f 127 168 167
f 127 168 169
f 127 169 168
f 127 169 170
f 127 170 169
f 127 170 171
f 127 171 170
f 127 171 172
f 127 172 171
v -0.675516 0.482452 -0.085801
v -0.672294 0.481286 -0.085311
v -0.669135 0.480083 -0.084455
v -0.666094 0.478809 -0.082901
v -0.663207 0.477444 -0.080437
v -0.660481 0.475982 -0.077022
v -0.657891 0.474440 -0.072808
v -0.655382 0.472850 -0.068118
v -0.652877 0.471257 -0.063402
v -0.650291 0.469712 -0.059165
v -0.647543 0.468264 -0.055883
v -0.644570 0.466950 -0.053926
v -0.641339 0.465790 -0.053495
v -0.637848 0.464784 -0.054590
v -0.634133 0.463912 -0.057010
v -0.630255 0.463136 -0.060385
v -0.626297 0.462409 -0.064239
v -0.622343 0.461679 -0.068067
v -0.618469 0.460901 -0.071419
v -0.614731 0.460042 -0.073972
v -0.611155 0.459087 -0.075574
v -0.607733 0.458041 -0.076266
v -0.604429 0.456923 -0.076260
v -0.601187 0.455769 -0.075888
v -0.604409 0.456935 -0.076378
v -0.607568 0.458138 -0.077234
v -0.610610 0.459412 -0.078788
v -0.613496 0.460777 -0.081252
v -0.616222 0.462239 -0.084667
v -0.618812 0.463781 -0.088881
v -0.621321 0.465371 -0.093571
v -0.623826 0.466964 -0.098287
v -0.626412 0.468509 -0.102524
v -0.629160 0.469957 -0.105806
v -0.632133 0.471271 -0.107763
v -0.635365 0.472431 -0.108194
v -0.638855 0.473437 -0.107099
v -0.642571 0.474309 -0.104679
v -0.646448 0.475085 -0.101304
v -0.650406 0.475812 -0.097450
v -0.654361 0.476542 -0.093622
v -0.658234 0.477320 -0.090270
v -0.661972 0.478179 -0.087717
v -0.665548 0.479134 -0.086115
v -0.668971 0.480180 -0.085423
v -0.672274 0.481298 -0.085429
f 173 174 175
f 173 175 174
f 173 175 176
f 173 176 175
f 173 176 177
f 173 177 176
f 173 177 178
f 173 178 177
f 173 178 179
f 173 179 178
f 173 179 180
f 173 180 179
f 173 180 181
f 173 181 180
f 173 181 182
f 173 182 181
f 173 182 183
f 173 183 182
f 173 183 184
f 173 184 183
f 173 184 185
f 173 185 184
f 173 185 186
f 173 186 185
f 173 186 187
f 173 187 186
f 173 187 188
f 173 188 187
f 173 188 189
f 173 189 188
f 173 189 190
f 173 190 189
f 173 190 191
f 173 191 190
f 173 191 192
f 173 192 191
f 173 192 193
f 173 193 192
f 173 193 194
f 173 194 193
f 173 194 195
f 173 195 194
f 173 195 196
f 173 196 195
f 173 196 197
f 173 197 196
f 173 197 198
f 173 198 197
f 173 198 199
f 173 199 198
f 173 199 200
f 173 200 199
f 173 200 201
f 173 201 200
f 173 201 202
f 173 202 201
f 173 202 203
f 173 203 202
f 173 203 204
f 173 204 203
f 173 204 205
f 173 205 204
f 173 205 206
f 173 206 205
f 173 206 207
f 173 207 206
f 173 207 208
f 173 208 207
f 173 208 209
f 173 209 208
f 173 209 210
f 173 210 209
f 173 210 211
f 173 211 210
f 173 211 212
f 173 212 211
f 173 212 213
f 173 213 212
f 173 213 214
f 173 214 213
f 173 214 215
f 173 215 214
f 173 215 216
f 173 216 215
f 173 216 217
f 173 217 216
f 173 217 218
f 173 218 217
v 0.001254 0.400000 -0.010123
v -0.002472 0.404858 -0.008621
v -0.005253 0.407861 -0.003827
v -0.006029 0.407861 0.002429
v -0.004501 0.404858 0.007757
v -0.001254 0.400000 0.010123
v 0.002472 0.395142 0.008621
v 0.005253 0.392139 0.003827
v 0.006029 0.392139 -0.002429
v 0.004501 0.395142 -0.007757
v 0.263159 0.591122 0.025621
v 0.260625 0.594426 0.026642
v 0.258733 0.596467 0.029902
v 0.258206 0.596467 0.034156
v 0.259245 0.594426 0.037779
v 0.261453 0.591122 0.039388
v 0.263986 0.587818 0.038367
v 0.265878 0.585776 0.035107
v 0.266405 0.585776 0.030853
v 0.265367 0.587818 0.027229
f 219 220 230
f 219 230 229
f 220 221 231
f 220 231 230
f 221 222 232
f 221 232 231
f 222 223 233
f 222 233 232
f 223 224 234
f 223 234 233
f 224 225 235
f 224 235 234
f 225 226 236
f 225 236 235
f 226 227 237
f 226 237 236
f 227 228 238
f 227 238 237
f 228 219 229
f 228 229 238
v 0.264439 0.591122 0.025905
v 0.264672 0.595143 0.027372
v 0.264002 0.597628 0.030800
v 0.262683 0.597628 0.034879
v 0.261221 0.595143 0.038051
v 0.260172 0.591122 0.039104
v 0.259939 0.587101 0.037637
v 0.260610 0.584616 0.034209
v 0.261928 0.584616 0.030130
v 0.263391 0.587101 0.026958
v 0.496763 0.550111 0.103333
v 0.496922 0.552845 0.104331
v 0.496466 0.554535 0.106662
v 0.495570 0.554535 0.109435
v 0.494575 0.552845 0.111592
v 0.493862 0.550111 0.112308
v 0.493704 0.547377 0.111311
v 0.494160 0.545687 0.108980
v 0.495056 0.545687 0.106206
v 0.496051 0.547377 0.104049
f 239 240 250
f 239 250 249
f 240 241 251
f 240 251 250
f 241 242 252
f 241 252 251
f 242 243 253
f 242 253 252
f 243 244 254
f 243 254 253
f 244 245 255
f 244 255 254
f 245 246 256
f 245 256 255
f 246 247 257
f 246 257 256
f 247 248 258
f 247 258 257
f 248 239 249
f 248 249 258
v 0.498152 0.550111 0.104054
v 0.499468 0.551617 0.106174
v 0.499197 0.552549 0.108923
v 0.497443 0.552549 0.111251
v 0.494875 0.551617 0.112268
v 0.492474 0.550111 0.111587
v 0.491158 0.548604 0.109467
v 0.491429 0.547673 0.106718
v 0.493183 0.547673 0.104390
v 0.495751 0.548604 0.103373
v 0.585097 0.380178 0.171475
v 0.585992 0.381203 0.172916
v 0.585808 0.381836 0.174786
v 0.584615 0.381836 0.176368
v 0.582869 0.381203 0.177060
v 0.581236 0.380178 0.176597
v 0.580341 0.379154 0.175155
v 0.580525 0.378520 0.173286
v 0.581718 0.378520 0.171703
v 0.583465 0.379154 0.171011
f 259 260 270
f 259 270 269
f 260 261 271
f 260 271 270
f 261 262 272
f 261 272 271
f 262 263 273
f 262 273 272
f 263 264 274
f 263 274 273
f 264 265 275
f 264 275 274
f 265 266 276
f 265 276 275
f 266 267 277
f 266 277 276
f 267 268 278
f 267 278 277
f 268 259 269
f 268 269 278
v 0.583167 0.380178 0.174036
v 0.584267 0.381904 0.172145
v 0.585712 0.383976 0.170688
v 0.587537 0.386433 0.169712
v 0.589713 0.389245 0.169180
v 0.592162 0.392332 0.168994
v 0.594773 0.395582 0.169011
v 0.597411 0.398860 0.169064
v 0.599936 0.402023 0.168973
v 0.602212 0.404935 0.168567
v 0.604124 0.407481 0.167703
v 0.605591 0.409576 0.166274
v 0.606567 0.411175 0.164224
v 0.607052 0.412280 0.161555
v 0.607091 0.412933 0.158321
v 0.606767 0.413220 0.154628
v 0.606194 0.413256 0.150621
v 0.605507 0.413177 0.146470
v 0.604848 0.413126 0.142354
v 0.604351 0.413238 0.138442
v 0.604127 0.413626 0.134875
v 0.604253 0.414369 0.131752
v 0.604761 0.415495 0.129111
v 0.605612 0.416969 0.126904
v 0.604511 0.415243 0.128795
v 0.603067 0.413170 0.130252
v 0.601241 0.410713 0.131227
v 0.599066 0.407902 0.131759
v 0.596616 0.404815 0.131946
v 0.594006 0.401565 0.131928
v 0.591367 0.398287 0.131875
v 0.588843 0.395124 0.131967
v 0.586567 0.392211 0.132372
v 0.584654 0.389666 0.133237
v 0.583188 0.387571 0.134666
v 0.582212 0.385971 0.136715
v 0.581726 0.384867 0.139384
v 0.581687 0.384213 0.142618
v 0.582012 0.383926 0.146311
v 0.582584 0.383890 0.150319
v 0.583271 0.383969 0.154470
v 0.583930 0.384020 0.158586
v 0.584427 0.383908 0.162498
v 0.584652 0.383520 0.166064
v 0.584525 0.382778 0.169187
v 0.584018 0.381652 0.171829
f 279 280 281
f 279 281 280
f 279 281 282
f 279 282 281
f 279 282 283
f 279 283 282
f 279 283 284
f 279 284 283
f 279 284 285
f 279 285 284
f 279 285 286
f 279 286 285
f 279 286 287
f 279 287 286
f 279 287 288
f 279 288 287
f 279 288 289
f 279 289 288
f 279 289 290
f 279 290 289
f 279 290 291
f 279 291 290
f 279 291 292
f 279 292 291
f 279 292 293
f 279 293 292
f 279 293 294
f 279 294 293
f 279 294 295
f 279 295 294
f 279 295 296
f 279 296 295
f 279 296 297
f 279 297 296
f 279 297 298
f 279 298 297
f 279 298 299
f 279 299 298
f 279 299 300
f 279 300 299
f 279 300 301
f 279 301 300
f 279 301 302
f 279 302 301
f 279 302 303
f 279 303 302
f 279 303 304
f 279 304 303
f 279 304 305
f 279 305 304
f 279 305 306
f 279 306 305
f 279 306 307
f 279 307 306
f 279 307 308
f 279 308 307
f 279 308 309
f 279 309 308
f 279 309 310
f 279 310 309
f 279 310 311
f 279 311 310
f 279 311 312
f 279 312 311
f 279 312 313
f 279 313 312
f 279 313 314
f 279 314 313
f 279 314 315
f 279 315 314
f 279 315 316
f 279 316 315
f 279 316 317
f 279 317 316
f 279 317 318
f 279 318 317
f 279 318 319
f 279 319 318
f 279 319 320
f 279 320 319
f 279 320 321
f 279 321 320
f 279 321 322
f 279 322 321
f 279 322 323
f 279 323 322
f 279 323 324
f 279 324 323
v 0.583167 0.380178 0.174036
v 0.580134 0.380026 0.175761
v 0.576963 0.379705 0.177237
v 0.573509 0.379039 0.178203
v 0.569667 0.377902 0.178472
v 0.565406 0.376253 0.177986
v 0.560779 0.374158 0.176841
v 0.555921 0.371782 0.175281
v 0.551031 0.369367 0.173664
v 0.546336 0.367191 0.172398
v 0.542057 0.365520 0.171879
v 0.538364 0.364563 0.172415
v 0.535351 0.364435 0.174176
v 0.533019 0.365136 0.177161
v 0.531273 0.366552 0.181202
v 0.529942 0.368472 0.185989
v 0.528806 0.370631 0.191128
v 0.527639 0.372751 0.196209
v 0.526241 0.374590 0.200875
v 0.524477 0.375983 0.204883
v 0.522293 0.376865 0.208135
v 0.519722 0.377275 0.210690
v 0.516867 0.377340 0.212736
v 0.513874 0.377236 0.214533
v 0.516907 0.377389 0.212808
v 0.520078 0.377709 0.211332
v 0.523532 0.378375 0.210366
v 0.527374 0.379513 0.210097
v 0.531635 0.381162 0.210583
v 0.536263 0.383257 0.211728
v 0.541120 0.385632 0.213287
v 0.546010 0.388047 0.214905
v 0.550705 0.390223 0.216170
v 0.554984 0.391895 0.216689
v 0.558678 0.392851 0.216153
v 0.561690 0.392979 0.214393
v 0.564022 0.392278 0.211407
v 0.565768 0.390863 0.207367
v 0.567099 0.388942 0.202580
v 0.568235 0.386783 0.197441
v 0.569402 0.384663 0.192360
v 0.570800 0.382824 0.187693
v 0.572565 0.381431 0.183686
v 0.574748 0.380549 0.180433
v 0.577320 0.380139 0.177878
v 0.580174 0.380075 0.175833
f 325 326 327
f 325 327 326
f 325 327 328
f 325 328 327
f 325 328 329
f 325 329 328
f 325 329 330
f 325 330 329
f 325 330 331
f 325 331 330
f 325 331 332
f 325 332 331
f 325 332 333
f 325 333 332
f 325 333 334
f 325 334 333
f 325 334 335
f 325 335 334
f 325 335 336
f 325 336 335
f 325 336 337
f 325 337 336
f 325 337 338
f 325 338 337
f 325 338 339
f 325 339 338
f 325 339 340
f 325 340 339
f 325 340 341
f 325 341 340
f 325 341 342
f 325 342 341
f 325 342 343
f 325 343 342
f 325 343 344
f 325 344 343
f 325 344 345
f 325 345 344
f 325 345 346
f 325 346 345
f 325 346 347
f 325 347 346
f 325 347 348
f 325 348 347
f 325 348 349
f 325 349 348
f 325 349 350
f 325 350 349
f 325 350 351
f 325 351 350
f 325 351 352
f 325 352 351
f 325 352 353
f 325 353 352
f 325 353 354
f 325 354 353
f 325 354 355
f 325 355 354
f 325 355 356
f 325 356 355
f 325 356 357
f 325 357 356
f 325 357 358
f 325 358 357
f 325 358 359
f 325 359 358
f 325 359 360
f 325 360 359
f 325 360 361
f 325 361 360
f 325 361 362
f 325 362 361
f 325 362 363
f 325 363 362
f 325 363 364
f 325 364 363
f 325 364 365
f 325 365 364
f 325 365 366
f 325 366 365
f 325 366 367
f 325 367 366
f 325 367 368
f 325 368 367
f 325 368 369
f 325 369 368
f 325 369 370
f 325 370 369
