o mesh
v 0.000000 0.000000 0.015000
v 0.008817 0.000000 0.012135
v 0.014266 0.000000 0.004635
v 0.014266 0.000000 -0.004635
v 0.008817 0.000000 -0.012135
v 0.000000 0.000000 -0.015000
v -0.008817 0.000000 -0.012135
v -0.014266 0.000000 -0.004635
v -0.014266 0.000000 0.004635
v -0.008817 0.000000 0.012135
v 0.000000 0.400000 0.010200
v 0.005995 0.400000 0.008252
v 0.009701 0.400000 0.003152
v 0.009701 0.400000 -0.003152
v 0.005995 0.400000 -0.008252
v 0.000000 0.400000 -0.010200
v -0.005995 0.400000 -0.008252
v -0.009701 0.400000 -0.003152
v -0.009701 0.400000 0.003152
v -0.005995 0.400000 0.008252
f 1 2 12
f 1 12 11
f 2 3 13
f 2 13 12
f 3 4 14
f 3 14 13
f 4 5 15
f 4 15 14
f 5 6 16
f 5 16 15
f 6 7 17
f 6 17 16
f 7 8 18
f 7 18 17
f 8 9 19
f 8 19 18
f 9 10 20
f 9 20 19
f 10 1 11
f 10 11 20
v 0.000644 0.400000 0.010180
v 0.005000 0.403976 0.007952
v 0.007445 0.406434 0.002687
v 0.007047 0.406434 -0.003604
v 0.003957 0.403976 -0.008519
v -0.000644 0.400000 -0.010180
v -0.005000 0.396024 -0.007952
v -0.007445 0.393566 -0.002687
v -0.007047 0.393566 0.003604
v -0.003957 0.396024 0.008519
v -0.216684 0.645517 0.020668
v -0.213722 0.648221 0.019153
v -0.212059 0.649892 0.015573
v -0.212330 0.649892 0.011295
v -0.214431 0.648221 0.007953
v -0.217560 0.645517 0.006823
v -0.220522 0.642813 0.008338
v -0.222185 0.641142 0.011918
v -0.221914 0.641142 0.016197
v -0.219813 0.642813 0.019538
f 21 22 32
f 21 32 31
f 22 23 33
f 22 33 32
f 23 24 34
f 23 34 33
f 24 25 35
f 24 35 34
f 25 26 36
f 25 36 35
f 26 27 37
f 26 37 36
f 27 28 38
f 27 38 37
f 28 29 39
f 28 39 38
f 29 30 40
f 29 40 39
f 30 21 31
f 30 31 40
v -0.216773 0.645517 0.020673
v -0.217046 0.649589 0.019360
v -0.217348 0.652105 0.015903
v -0.217563 0.652105 0.011622
v -0.217610 0.649589 0.008152
v -0.217471 0.645517 0.006818
v -0.217198 0.641445 0.008131
v -0.216896 0.638929 0.011588
v -0.216681 0.638929 0.015869
v -0.216634 0.641445 0.019339
v -0.459715 0.633188 0.030685
v -0.459901 0.635957 0.029793
v -0.460106 0.637668 0.027442
v -0.460253 0.637668 0.024531
v -0.460285 0.635957 0.022171
v -0.460190 0.633188 0.021264
v -0.460004 0.630419 0.022157
v -0.459799 0.628708 0.024508
v -0.459653 0.628708 0.027419
v -0.459621 0.630419 0.029779
f 41 42 52
f 41 52 51
f 42 43 53
f 42 53 52
f 43 44 54
f 43 54 53
f 44 45 55
f 44 55 54
f 45 46 56
f 45 56 55
f 46 47 57
f 46 57 56
f 47 48 58
f 47 58 57
f 48 49 59
f 48 59 58
f 49 50 60
f 49 60 59
f 50 41 51
f 50 51 60
v -0.461695 0.633188 0.030358
v -0.463550 0.634652 0.028651
v -0.464031 0.635557 0.025922
v -0.462954 0.635557 0.023213
v -0.460731 0.634652 0.021559
v -0.458210 0.633188 0.021592
v -0.456355 0.631724 0.023299
v -0.455875 0.630819 0.026028
v -0.456951 0.630819 0.028736
v -0.459175 0.631724 0.030390
v -0.550430 0.478684 -0.006542
v -0.551691 0.479679 -0.007703
v -0.552018 0.480295 -0.009559
v -0.551286 0.480295 -0.011401
v -0.549774 0.479679 -0.012525
v -0.548060 0.478684 -0.012503
v -0.546799 0.477688 -0.011342
v -0.546472 0.477073 -0.009487
v -0.547204 0.477073 -0.007645
v -0.548716 0.477688 -0.006520
f 61 62 72
f 61 72 71
f 62 63 73
f 62 73 72
f 63 64 74
f 63 74 73
f 64 65 75
f 64 75 74
f 65 66 76
f 65 76 75
f 66 67 77
f 66 77 76
f 67 68 78
f 67 78 77
f 68 69 79
f 68 79 78
f 69 70 80
f 69 80 79
f 70 61 71
f 70 71 80
v -0.549245 0.478684 -0.009523
v -0.549062 0.479431 -0.006881
v -0.549044 0.480276 -0.004254
v -0.549420 0.481358 -0.001663
v -0.550397 0.482799 0.000874
v -0.552080 0.484663 0.003348
v -0.554426 0.486924 0.005761
v -0.557236 0.489463 0.008133
v -0.560178 0.492081 0.010493
v -0.562846 0.494535 0.012877
v -0.564835 0.496582 0.015323
v -0.565819 0.498027 0.017860
v -0.565617 0.498763 0.020503
v -0.564230 0.498789 0.023254
v -0.561837 0.498213 0.026095
v -0.558765 0.497230 0.028997
v -0.555419 0.496084 0.031925
v -0.552206 0.495016 0.034840
v -0.549456 0.494227 0.037713
v -0.547370 0.493834 0.040527
v -0.545989 0.493864 0.043277
v -0.545209 0.494253 0.045972
v -0.544824 0.494879 0.048632
v -0.544603 0.495604 0.051278
v -0.544786 0.494857 0.048636
v -0.544804 0.494011 0.046009
v -0.544428 0.492929 0.043418
v -0.543451 0.491488 0.040880
v -0.541768 0.489624 0.038407
v -0.539422 0.487363 0.035993
v -0.536612 0.484825 0.033622
v -0.533670 0.482207 0.031262
v -0.531002 0.479753 0.028878
v -0.529013 0.477706 0.026432
v -0.528029 0.476260 0.023895
v -0.528231 0.475525 0.021252
v -0.529618 0.475499 0.018501
v -0.532011 0.476074 0.015660
v -0.535083 0.477057 0.012758
v -0.538429 0.478204 0.009830
v -0.541642 0.479271 0.006915
v -0.544392 0.480061 0.004042
v -0.546478 0.480453 0.001228
v -0.547859 0.480423 -0.001522
v -0.548639 0.480034 -0.004217
v -0.549024 0.479408 -0.006877
f 81 82 83
f 81 83 82
f 81 83 84
f 81 84 83
f 81 84 85
f 81 85 84
f 81 85 86
f 81 86 85
f 81 86 87
f 81 87 86
f 81 87 88
f 81 88 87
f 81 88 89
f 81 89 88
f 81 89 90
f 81 90 89
f 81 90 91
f 81 91 90
f 81 91 92
f 81 92 91
f 81 92 93
f 81 93 92
f 81 93 94
f 81 94 93
f 81 94 95
f 81 95 94
f 81 95 96
f 81 96 95
f 81 96 97
f 81 97 96
f 81 97 98
f 81 98 97
f 81 98 99
f 81 99 98
f 81 99 100
f 81 100 99
f 81 100 101
f 81 101 100
f 81 101 102
f 81 102 101
f 81 102 103
f 81 103 102
f 81 103 104
f 81 104 103
f 81 104 105
f 81 105 104
f 81 105 106
f 81 106 105
f 81 106 107
f 81 107 106
f 81 107 108
f 81 108 107
f 81 108 109
f 81 109 108
f 81 109 110
f 81 110 109
f 81 110 111
f 81 111 110
f 81 111 112
f 81 112 111
f 81 112 113
f 81 113 112
f 81 113 114
f 81 114 113
f 81 114 115
f 81 115 114
f 81 115 116
f 81 116 115
f 81 116 117
f 81 117 116
f 81 117 118
f 81 118 117
f 81 118 119
f 81 119 118
f 81 119 120
f 81 120 119
f 81 120 121
f 81 121 120
f 81 121 122
f 81 122 121
f 81 122 123
f 81 123 122
f 81 123 124
f 81 124 123
f 81 124 125
f 81 125 124
f 81 125 126
f 81 126 125
v -0.549245 0.478684 -0.009523
v -0.547166 0.479044 -0.011144
v -0.544888 0.479244 -0.012560
v -0.542262 0.479158 -0.013614
v -0.539204 0.478719 -0.014217
v -0.535711 0.477925 -0.014369
v -0.531868 0.476845 -0.014155
v -0.527830 0.475606 -0.013739
v -0.523803 0.474376 -0.013335
v -0.520013 0.473339 -0.013178
v -0.516669 0.472667 -0.013484
v -0.513931 0.472490 -0.014421
v -0.511887 0.472879 -0.016079
v -0.510537 0.473836 -0.018460
v -0.509793 0.475288 -0.021471
v -0.509495 0.477104 -0.024946
v -0.509433 0.479113 -0.028668
v -0.509383 0.481132 -0.032401
v -0.509139 0.482992 -0.035932
v -0.508543 0.484565 -0.039097
v -0.507513 0.485783 -0.041811
v -0.506051 0.486649 -0.044076
v -0.504240 0.487229 -0.045977
v -0.502232 0.487648 -0.047673
v -0.504311 0.487287 -0.046051
v -0.506589 0.487088 -0.044635
v -0.509215 0.487173 -0.043581
v -0.512273 0.487612 -0.042978
v -0.515765 0.488406 -0.042826
v -0.519609 0.489486 -0.043040
v -0.523647 0.490726 -0.043456
v -0.527674 0.491956 -0.043860
v -0.531464 0.492992 -0.044018
v -0.534808 0.493665 -0.043711
v -0.537546 0.493842 -0.042774
v -0.539590 0.493452 -0.041116
v -0.540940 0.492495 -0.038735
v -0.541684 0.491044 -0.035724
v -0.541982 0.489227 -0.032249
v -0.542044 0.487218 -0.028528
v -0.542094 0.485199 -0.024794
v -0.542338 0.483339 -0.021263
v -0.542934 0.481766 -0.018098
v -0.543964 0.480548 -0.015384
v -0.545426 0.479683 -0.013120
v -0.547237 0.479103 -0.011218
f 127 128 129
f 127 129 128
f 127 129 130
f 127 130 129
f 127 130 131
f 127 131 130
f 127 131 132
f 127 132 131
f 127 132 133
f 127 133 132
f 127 133 134
f 127 134 133
f 127 134 135
f 127 135 134
f 127 135 136
f 127 136 135
f 127 136 137
f 127 137 136
f 127 137 138
f 127 138 137
f 127 138 139
f 127 139 138
f 127 139 140
f 127 140 139
f 127 140 141
f 127 141 140
f 127 141 142
f 127 142 141
f 127 142 143
f 127 143 142
f 127 143 144
f 127 144 143
f 127 144 145
f 127 145 144
f 127 145 146
f 127 146 145
f 127 146 147
f 127 147 146
f 127 147 148
f 127 148 147
f 127 148 149
f 127 149 148
f 127 149 150
f 127 150 149
f 127 150 151
f 127 151 150
f 127 151 152
f 127 152 151
f 127 152 153
f 127 153 152
f 127 153 154
f 127 154 153
f 127 154 155
f 127 155 154
f 127 155 156
f 127 156 155
f 127 156 157
f 127 157 156
f 127 157 158
f 127 158 157
f 127 158 159
f 127 159 158
f 127 159 160
f 127 160 159
f 127 160 161
f 127 161 160
f 127 161 162
f 127 162 161
f 127 162 163
f 127 163 162
f 127 163 164
f 127 164 163
f 127 164 165
f 127 165 164
f 127 165 166
f 127 166 165
f 127 166 167
f 127 167 166
f 127 167 168
f 127 168 167
f 127 168 169
f 127 169 168
f 127 169 170
f 127 170 169
f 127 170 171
f 127 171 170
f 127 171 172
f 127 172 171
v 0.000301 0.400000 -0.010196
v -0.002216 0.405467 -0.008321
v -0.003887 0.408846 -0.003268
v -0.004073 0.408846 0.003033
v -0.002703 0.405467 0.008176
v -0.000301 0.400000 0.010196
v 0.002216 0.394533 0.008321
v 0.003887 0.391154 0.003268
v 0.004073 0.391154 -0.003033
v 0.002703 0.394533 -0.008176
v 0.300862 0.535380 0.001940
v 0.299150 0.539097 0.003215
v 0.298014 0.541395 0.006651
v 0.297888 0.541395 0.010936
v 0.298819 0.539097 0.014433
v 0.300452 0.535380 0.015806
v 0.302164 0.531662 0.014532
v 0.303300 0.529364 0.011096
v 0.303426 0.529364 0.006811
v 0.302495 0.531662 0.003314
f 173 174 184
f 173 184 183
f 174 175 185
f 174 185 184
f 175 176 186
f 175 186 185
f 176 177 187
f 176 187 186
f 177 178 188
f 177 188 187
f 178 179 189
f 178 189 188
f 179 180 190
f 179 190 189
f 180 181 191
f 180 191 190
f 181 182 192
f 181 192 191
f 182 173 183
f 182 183 192
v 0.301888 0.535380 0.002047
v 0.304518 0.538233 0.003868
v 0.305674 0.539997 0.007600
v 0.304913 0.539997 0.011819
v 0.302527 0.538233 0.014912
v 0.299426 0.535380 0.015699
v 0.296796 0.532526 0.013879
v 0.295640 0.530763 0.010147
v 0.296401 0.530763 0.005928
v 0.298787 0.532526 0.002834
v 0.487052 0.342978 0.037683
v 0.488841 0.344919 0.038921
v 0.489627 0.346118 0.041459
v 0.489109 0.346118 0.044327
v 0.487487 0.344919 0.046431
v 0.485378 0.342978 0.046966
v 0.483590 0.341038 0.045728
v 0.482804 0.339839 0.043191
v 0.483321 0.339839 0.040322
v 0.484943 0.341038 0.038218
f 193 194 204
f 193 204 203
f 194 195 205
f 194 205 204
f 195 196 206
f 195 206 205
f 196 197 207
f 196 207 206
f 197 198 208
f 197 208 207
f 198 199 209
f 198 209 208
f 199 200 210
f 199 210 209
f 200 201 211
f 200 211 210
f 201 202 212
f 201 212 211
f 202 193 203
f 202 203 212
v 0.486215 0.342591 0.037624
v 0.488986 0.342593 0.038528
v 0.490699 0.342742 0.040882
v 0.490699 0.342982 0.043787
v 0.488986 0.343220 0.046133
v 0.486215 0.343366 0.047025
v 0.483444 0.343364 0.046121
v 0.481731 0.343215 0.043768
v 0.481731 0.342975 0.040862
v 0.483444 0.342737 0.038516
v 0.480222 0.113740 0.058009
v 0.482106 0.113741 0.058624
v 0.483271 0.113843 0.060224
v 0.483271 0.114006 0.062200
v 0.482106 0.114168 0.063796
v 0.480222 0.114267 0.064402
v 0.478337 0.114266 0.063787
v 0.477173 0.114164 0.062187
v 0.477173 0.114001 0.060211
v 0.478337 0.113839 0.058616
f 213 214 224
f 213 224 223
f 214 215 225
f 214 225 224
f 215 216 226
f 215 226 225
f 216 217 227
f 216 227 226
f 217 218 228
f 217 228 227
f 218 219 229
f 218 229 228
f 219 220 230
f 219 230 229
f 220 221 231
f 220 231 230
f 221 222 232
f 221 232 231
f 222 213 223
f 222 223 232
v 0.480222 0.114003 0.061206
v 0.480915 0.115114 0.058364
v 0.482357 0.116213 0.055624
v 0.484604 0.117300 0.052994
v 0.487582 0.118376 0.050464
v 0.491119 0.119444 0.048010
v 0.494977 0.120508 0.045600
v 0.498878 0.121570 0.043196
v 0.502529 0.122636 0.040757
v 0.505652 0.123710 0.038247
v 0.508014 0.124796 0.035633
v 0.509444 0.125895 0.032892
v 0.509854 0.127010 0.030011
v 0.509243 0.128140 0.026992
v 0.507700 0.129283 0.023845
v 0.505395 0.130439 0.020594
v 0.502564 0.131602 0.017272
v 0.499482 0.132768 0.013915
v 0.496442 0.133934 0.010564
v 0.493724 0.135096 0.007257
v 0.491566 0.136249 0.004027
v 0.490137 0.137391 0.000895
v 0.489514 0.138521 -0.002126
v 0.489640 0.139640 -0.005045
v 0.488947 0.138529 -0.002203
v 0.487505 0.137430 0.000536
v 0.485258 0.136343 0.003166
v 0.482280 0.135266 0.005696
v 0.478743 0.134199 0.008150
v 0.474885 0.133135 0.010560
v 0.470984 0.132073 0.012965
v 0.467333 0.131007 0.015403
v 0.464210 0.129933 0.017913
v 0.461848 0.128847 0.020528
v 0.460418 0.127748 0.023269
v 0.460008 0.126633 0.026149
v 0.460619 0.125503 0.029169
v 0.462162 0.124360 0.032316
v 0.464467 0.123204 0.035566
v 0.467298 0.122041 0.038889
v 0.470380 0.120875 0.042245
v 0.473420 0.119709 0.045596
v 0.476138 0.118547 0.048903
v 0.478296 0.117394 0.052134
v 0.479725 0.116252 0.055265
v 0.480348 0.115122 0.058286
f 233 234 235
f 233 235 234
f 233 235 236
f 233 236 235
f 233 236 237
f 233 237 236
f 233 237 238
f 233 238 237
f 233 238 239
f 233 239 238
f 233 239 240
f 233 240 239
f 233 240 241
f 233 241 240
f 233 241 242
f 233 242 241
f 233 242 243
f 233 243 242
f 233 243 244
f 233 244 243
f 233 244 245
f 233 245 244
f 233 245 246
f 233 246 245
f 233 246 247
f 233 247 246
f 233 247 248
f 233 248 247
f 233 248 249
f 233 249 248
f 233 249 250
f 233 250 249
f 233 250 251
f 233 251 250
f 233 251 252
f 233 252 251
f 233 252 253
f 233 253 252
f 233 253 254
f 233 254 253
f 233 254 255
f 233 255 254
f 233 255 256
f 233 256 255
f 233 256 257
f 233 257 256
f 233 257 258
f 233 258 257
f 233 258 259
f 233 259 258
f 233 259 260
f 233 260 259
f 233 260 261
f 233 261 260
f 233 261 262
f 233 262 261
f 233 262 263
f 233 263 262
f 233 263 264
f 233 264 263
f 233 264 265
f 233 265 264
f 233 265 266
f 233 266 265
f 233 266 267
f 233 267 266
f 233 267 268
f 233 268 267
f 233 268 269
f 233 269 268
f 233 269 270
f 233 270 269
f 233 270 271
f 233 271 270
f 233 271 272
f 233 272 271
f 233 272 273
f 233 273 272
f 233 273 274
f 233 274 273
f 233 274 275
f 233 275 274
f 233 275 276
f 233 276 275
f 233 276 277
f 233 277 276
f 233 277 278
f 233 278 277
v 0.480222 0.114003 0.061206
v 0.482473 0.115086 0.063075
v 0.484574 0.116187 0.065119
v 0.486323 0.117331 0.067569
v 0.487549 0.118538 0.070625
v 0.488169 0.119819 0.074382
v 0.488225 0.121168 0.078789
v 0.487896 0.122564 0.083643
v 0.487464 0.123973 0.088615
v 0.487277 0.125352 0.093304
v 0.487676 0.126660 0.097316
v 0.488935 0.127863 0.100333
v 0.491204 0.128943 0.102182
v 0.494484 0.129901 0.102863
v 0.498624 0.130754 0.102549
v 0.503349 0.131536 0.101558
v 0.508319 0.132288 0.100285
v 0.513187 0.133053 0.099128
v 0.517669 0.133864 0.098419
v 0.521588 0.134744 0.098361
v 0.524901 0.135698 0.099004
v 0.527690 0.136715 0.100252
v 0.530128 0.137775 0.101906
v 0.532415 0.138854 0.103734
v 0.530164 0.137771 0.101864
v 0.528063 0.136670 0.099820
v 0.526314 0.135526 0.097370
v 0.525088 0.134319 0.094314
v 0.524468 0.133038 0.090558
v 0.524411 0.131689 0.086151
v 0.524741 0.130293 0.081296
v 0.525173 0.128884 0.076325
v 0.525360 0.127505 0.071636
v 0.524961 0.126197 0.067624
v 0.523702 0.124994 0.064606
v 0.521433 0.123914 0.062757
v 0.518153 0.122956 0.062077
v 0.514013 0.122103 0.062390
v 0.509288 0.121321 0.063382
v 0.504318 0.120569 0.064655
v 0.499450 0.119804 0.065811
v 0.494968 0.118993 0.066520
v 0.491049 0.118113 0.066579
v 0.487736 0.117159 0.065936
v 0.484947 0.116142 0.064688
v 0.482509 0.115082 0.063034
f 279 280 281
f 279 281 280
f 279 281 282
f 279 282 281
f 279 282 283
f 279 283 282
f 279 283 284
f 279 284 283
f 279 284 285
f 279 285 284
f 279 285 286
f 279 286 285
f 279 286 287
f 279 287 286
f 279 287 288
f 279 288 287
f 279 288 289
f 279 289 288
f 279 289 290
f 279 290 289
f 279 290 291
f 279 291 290
f 279 291 292
f 279 292 291
f 279 292 293
f 279 293 292
f 279 293 294
f 279 294 293
f 279 294 295
f 279 295 294
f 279 295 296
f 279 296 295
f 279 296 297
f 279 297 296
f 279 297 298
f 279 298 297
f 279 298 299
f 279 299 298
f 279 299 300
f 279 300 299
f 279 300 301
f 279 301 300
f 279 301 302
f 279 302 301
f 279 302 303
f 279 303 302
f 279 303 304
f 279 304 303
f 279 304 305
f 279 305 304
f 279 305 306
f 279 306 305
f 279 306 307
f 279 307 306
f 279 307 308
f 279 308 307
f 279 308 309
f 279 309 308
f 279 309 310
f 279 310 309
f 279 310 311
f 279 311 310
f 279 311 312
f 279 312 311
f 279 312 313
f 279 313 312
f 279 313 314
f 279 314 313
f 279 314 315
f 279 315 314
f 279 315 316
f 279 316 315
f 279 316 317
f 279 317 316
f 279 317 318
f 279 318 317
f 279 318 319
f 279 319 318
f 279 319 320
f 279 320 319
f 279 320 321
f 279 321 320
f 279 321 322
f 279 322 321
f 279 322 323
f 279 323 322
f 279 323 324
f 279 324 323
v 0.480222 0.114003 0.061206
v 0.477803 0.114871 0.062835
v 0.475052 0.115711 0.064033
v 0.471843 0.116515 0.064635
v 0.468148 0.117279 0.064606
v 0.464024 0.118008 0.064019
v 0.459599 0.118713 0.063041
v 0.455054 0.119408 0.061907
v 0.450598 0.120110 0.060889
v 0.446444 0.120837 0.060263
v 0.442779 0.121604 0.060273
v 0.439742 0.122421 0.061099
v 0.437409 0.123295 0.062840
v 0.435778 0.124227 0.065495
v 0.434777 0.125209 0.068966
v 0.434264 0.126231 0.073074
v 0.434053 0.127277 0.077573
v 0.433931 0.128331 0.082189
v 0.433689 0.129374 0.086648
v 0.433146 0.130394 0.090716
v 0.432174 0.131378 0.094227
v 0.430717 0.132324 0.097106
v 0.428801 0.133232 0.099389
v 0.426553 0.134113 0.101241
v 0.428972 0.133246 0.099612
v 0.431723 0.132405 0.098413
v 0.434932 0.131602 0.097811
v 0.438627 0.130838 0.097840
v 0.442751 0.130108 0.098427
v 0.447176 0.129403 0.099405
v 0.451721 0.128708 0.100539
v 0.456177 0.128006 0.101557
v 0.460331 0.127279 0.102183
v 0.463996 0.126513 0.102174
v 0.467033 0.125695 0.101347
v 0.469366 0.124821 0.099607
v 0.470997 0.123890 0.096952
v 0.471998 0.122907 0.093480
v 0.472511 0.121886 0.089373
v 0.472722 0.120839 0.084873
v 0.472844 0.119786 0.080258
v 0.473086 0.118742 0.075798
v 0.473628 0.117723 0.071730
v 0.474600 0.116738 0.068220
v 0.476058 0.115793 0.065341
v 0.477974 0.114885 0.063058
f 325 326 327
f 325 327 326
f 325 327 328
f 325 328 327
f 325 328 329
f 325 329 328
f 325 329 330
f 325 330 329
f 325 330 331
f 325 331 330
f 325 331 332
f 325 332 331
f 325 332 333
f 325 333 332
f 325 333 334
f 325 334 333
f 325 334 335
f 325 335 334
f 325 335 336
f 325 336 335
f 325 336 337
f 325 337 336
f 325 337 338
f 325 338 337
f 325 338 339
f 325 339 338
f 325 339 340
f 325 340 339
f 325 340 341
f 325 341 340
f 325 341 342
f 325 342 341
f 325 342 343
f 325 343 342
f 325 343 344
f 325 344 343
f 325 344 345
f 325 345 344
f 325 345 346
f 325 346 345
f 325 346 347
f 325 347 346
f 325 347 348
f 325 348 347
f 325 348 349
f 325 349 348
f 325 349 350
f 325 350 349
f 325 350 351
f 325 351 350
f 325 351 352
f 325 352 351
f 325 352 353
f 325 353 352
f 325 353 354
f 325 354 353
f 325 354 355
f 325 355 354
f 325 355 356
f 325 356 355
f 325 356 357
f 325 357 356
f 325 357 358
f 325 358 357
f 325 358 359
f 325 359 358
f 325 359 360
f 325 360 359
f 325 360 361
f 325 361 360
f 325 361 362
f 325 362 361
f 325 362 363
f 325 363 362
f 325 363 364
f 325 364 363
f 325 364 365
f 325 365 364
f 325 365 366
f 325 366 365
f 325 366 367
f 325 367 366
f 325 367 368
f 325 368 367
f 325 368 369
f 325 369 368
f 325 369 370
f 325 370 369
