o mesh
v -4.393797 0.130000 6.103976
v -4.193402 0.130000 6.103976
v -4.252097 0.130000 5.962276
v -4.393797 0.130000 5.903582
v -4.535497 0.130000 5.962276
v -4.594191 0.130000 6.103976
v -4.535497 0.130000 6.245677
v -4.393797 0.130000 6.304371
v -4.252097 0.130000 6.245677
f 1 2 3
f 1 3 4
f 1 4 5
f 1 5 6
f 1 6 7
f 1 7 8
f 1 8 9
f 1 9 2
v -1.005612 0.130000 -0.800219
v -0.640916 0.130000 -0.800219
v -0.747733 0.130000 -1.058098
v -1.005612 0.130000 -1.164915
v -1.263491 0.130000 -1.058098
v -1.370308 0.130000 -0.800219
v -1.263491 0.130000 -0.542340
v -1.005612 0.130000 -0.435523
v -0.747733 0.130000 -0.542340
f 10 11 12
f 10 12 13
f 10 13 14
f 10 14 15
f 10 15 16
f 10 16 17
f 10 17 18
f 10 18 11
v 1.139704 0.130000 4.007042
v 1.364831 0.130000 4.007042
v 1.298893 0.130000 3.847853
v 1.139704 0.130000 3.781915
v 0.980515 0.130000 3.847853
v 0.914577 0.130000 4.007042
v 0.980515 0.130000 4.166231
v 1.139704 0.130000 4.232170
v 1.298893 0.130000 4.166231
f 19 20 21
f 19 21 22
f 19 22 23
f 19 23 24
f 19 24 25
f 19 25 26
f 19 26 27
f 19 27 20
v 0.862784 0.130000 -2.386727
v 1.104419 0.130000 -2.386727
v 1.033646 0.130000 -2.557588
v 0.862784 0.130000 -2.628362
v 0.691922 0.130000 -2.557588
v 0.621149 0.130000 -2.386727
v 0.691922 0.130000 -2.215865
v 0.862784 0.130000 -2.145091
v 1.033646 0.130000 -2.215865
f 28 29 30
f 28 30 31
f 28 31 32
f 28 32 33
f 28 33 34
f 28 34 35
f 28 35 36
f 28 36 29
v 2.296312 0.130000 -0.723671
v 2.724579 0.130000 -0.723671
v 2.599142 0.130000 -1.026502
v 2.296312 0.130000 -1.151938
v 1.993481 0.130000 -1.026502
v 1.868045 0.130000 -0.723671
v 1.993481 0.130000 -0.420841
v 2.296312 0.130000 -0.295404
v 2.599142 0.130000 -0.420841
f 37 38 39
f 37 39 40
f 37 40 41
f 37 41 42
f 37 42 43
f 37 43 44
f 37 44 45
f 37 45 38
v 4.474709 0.130000 -2.272190
v 4.779535 0.130000 -2.272190
v 4.690254 0.130000 -2.487734
v 4.474709 0.130000 -2.577016
v 4.259165 0.130000 -2.487734
v 4.169883 0.130000 -2.272190
v 4.259165 0.130000 -2.056645
v 4.474709 0.130000 -1.967364
v 4.690254 0.130000 -2.056645
f 46 47 48
f 46 48 49
f 46 49 50
f 46 50 51
f 46 51 52
f 46 52 53
f 46 53 54
f 46 54 47
v 5.799318 0.130000 2.565247
v 6.228870 0.130000 2.565247
v 6.103057 0.130000 2.261507
v 5.799318 0.130000 2.135695
v 5.495578 0.130000 2.261507
v 5.369765 0.130000 2.565247
v 5.495578 0.130000 2.868986
v 5.799318 0.130000 2.994799
v 6.103057 0.130000 2.868986
f 55 56 57
f 55 57 58
f 55 58 59
f 55 59 60
f 55 60 61
f 55 61 62
f 55 62 63
f 55 63 56
v 5.653880 0.130000 -0.755170
v 5.977906 0.130000 -0.755170
v 5.883001 0.130000 -0.984291
v 5.653880 0.130000 -1.079196
v 5.424759 0.130000 -0.984291
v 5.329854 0.130000 -0.755170
v 5.424759 0.130000 -0.526049
v 5.653880 0.130000 -0.431145
v 5.883001 0.130000 -0.526049
f 64 65 66
f 64 66 67
f 64 67 68
f 64 68 69
f 64 69 70
f 64 70 71
f 64 71 72
f 64 72 65
