o mesh
v -0.954841 0.160000 -1.579606
v -0.676149 0.160000 -1.579606
v -0.729375 0.160000 -1.743417
v -0.868721 0.160000 -1.844657
v -1.040961 0.160000 -1.844657
v -1.180307 0.160000 -1.743417
v -1.233532 0.160000 -1.579606
v -1.180307 0.160000 -1.415795
v -1.040961 0.160000 -1.314555
v -0.868721 0.160000 -1.314555
v -0.729375 0.160000 -1.415795
f 1 2 3
f 1 3 4
f 1 4 5
f 1 5 6
f 1 6 7
f 1 7 8
f 1 8 9
f 1 9 10
f 1 10 11
f 1 11 2
v 4.172832 0.160000 -0.928965
v 4.408895 0.160000 -0.928965
v 4.363811 0.160000 -1.067719
v 4.245779 0.160000 -1.153474
v 4.099884 0.160000 -1.153474
v 3.981852 0.160000 -1.067719
v 3.936768 0.160000 -0.928965
v 3.981852 0.160000 -0.790210
v 4.099884 0.160000 -0.704455
v 4.245779 0.160000 -0.704455
v 4.363811 0.160000 -0.790210
f 12 13 14
f 12 14 15
f 12 15 16
f 12 16 17
f 12 17 18
f 12 18 19
f 12 19 20
f 12 20 21
f 12 21 22
f 12 22 13
v 1.587414 0.160000 -1.340737
v 1.902411 0.160000 -1.340737
v 1.842252 0.160000 -1.525888
v 1.684753 0.160000 -1.640317
v 1.490075 0.160000 -1.640317
v 1.332576 0.160000 -1.525888
v 1.272417 0.160000 -1.340737
v 1.332576 0.160000 -1.155587
v 1.490075 0.160000 -1.041158
v 1.684753 0.160000 -1.041158
v 1.842252 0.160000 -1.155587
f 23 24 25
f 23 25 26
f 23 26 27
f 23 27 28
f 23 28 29
f 23 29 30
f 23 30 31
f 23 31 32
f 23 32 33
f 23 33 24
v 3.643750 0.160000 4.028759
v 3.893996 0.160000 4.028759
v 3.846203 0.160000 3.881668
v 3.721080 0.160000 3.790761
v 3.566419 0.160000 3.790761
v 3.441296 0.160000 3.881668
v 3.393503 0.160000 4.028759
v 3.441296 0.160000 4.175850
v 3.566419 0.160000 4.266757
v 3.721080 0.160000 4.266757
v 3.846203 0.160000 4.175850
f 34 35 36
f 34 36 37
f 34 37 38
f 34 38 39
f 34 39 40
f 34 40 41
f 34 41 42
f 34 42 43
f 34 43 44
f 34 44 35
v -0.133148 0.160000 -5.054548
v 0.235108 0.160000 -5.054548
v 0.164778 0.160000 -5.271003
v -0.019350 0.160000 -5.404780
v -0.246945 0.160000 -5.404780
v -0.431073 0.160000 -5.271003
v -0.501404 0.160000 -5.054548
v -0.431073 0.160000 -4.838092
v -0.246945 0.160000 -4.704315
v -0.019350 0.160000 -4.704315
v 0.164778 0.160000 -4.838092
f 45 46 47
f 45 47 48
f 45 48 49
f 45 49 50
f 45 50 51
f 45 51 52
f 45 52 53
f 45 53 54
f 45 54 55
f 45 55 46
v 2.607562 0.160000 -0.594842
v 2.859150 0.160000 -0.594842
v 2.811101 0.160000 -0.742721
v 2.685307 0.160000 -0.834116
v 2.529818 0.160000 -0.834116
v 2.404024 0.160000 -0.742721
v 2.355975 0.160000 -0.594842
v 2.404024 0.160000 -0.446962
v 2.529818 0.160000 -0.355568
v 2.685307 0.160000 -0.355568
v 2.811101 0.160000 -0.446962
f 56 57 58
f 56 58 59
f 56 59 60
f 56 60 61
f 56 61 62
f 56 62 63
f 56 63 64
f 56 64 65
f 56 65 66
f 56 66 57
v 2.605147 0.160000 -0.386339
v 2.881387 0.160000 -0.386339
v 2.828630 0.160000 -0.548709
v 2.690510 0.160000 -0.649059
v 2.519784 0.160000 -0.649059
v 2.381664 0.160000 -0.548709
v 2.328907 0.160000 -0.386339
v 2.381664 0.160000 -0.223970
v 2.519784 0.160000 -0.123620
v 2.690510 0.160000 -0.123620
v 2.828630 0.160000 -0.223970
f 67 68 69
f 67 69 70
f 67 70 71
f 67 71 72
f 67 72 73
f 67 73 74
f 67 74 75
f 67 75 76
f 67 76 77
f 67 77 68
v 2.766785 0.160000 -1.800881
v 3.155678 0.160000 -1.800881
v 3.081406 0.160000 -2.029467
v 2.886959 0.160000 -2.170741
v 2.646610 0.160000 -2.170741
v 2.452164 0.160000 -2.029467
v 2.377892 0.160000 -1.800881
v 2.452164 0.160000 -1.572296
v 2.646610 0.160000 -1.431022
v 2.886959 0.160000 -1.431022
v 3.081406 0.160000 -1.572296
f 78 79 80
f 78 80 81
f 78 81 82
f 78 82 83
f 78 83 84
f 78 84 85
f 78 85 86
f 78 86 87
f 78 87 88
f 78 88 79
v -2.376685 0.160000 2.205047
v -2.052316 0.160000 2.205047
v -2.114265 0.160000 2.014388
v -2.276450 0.160000 1.896554
v -2.476921 0.160000 1.896554
v -2.639105 0.160000 2.014388
v -2.701054 0.160000 2.205047
v -2.639105 0.160000 2.395706
v -2.476921 0.160000 2.513540
v -2.276450 0.160000 2.513540
v -2.114265 0.160000 2.395706
f 89 90 91
f 89 91 92
f 89 92 93
f 89 93 94
f 89 94 95
f 89 95 96
f 89 96 97
f 89 97 98
f 89 98 99
f 89 99 90
v 1.839212 0.160000 0.501994
v 2.230768 0.160000 0.501994
v 2.155987 0.160000 0.271843
v 1.960209 0.160000 0.129602
v 1.718215 0.160000 0.129602
v 1.522437 0.160000 0.271843
v 1.447656 0.160000 0.501994
v 1.522437 0.160000 0.732145
v 1.718215 0.160000 0.874385
v 1.960209 0.160000 0.874385
v 2.155987 0.160000 0.732145
f 100 101 102
f 100 102 103
f 100 103 104
f 100 104 105
f 100 105 106
f 100 106 107
f 100 107 108
f 100 108 109
f 100 109 110
f 100 110 101
v 3.289013 0.160000 0.182085
v 3.526291 0.160000 0.182085
v 3.480975 0.160000 0.042617
v 3.362336 0.160000 -0.043579
v 3.215690 0.160000 -0.043579
v 3.097051 0.160000 0.042617
v 3.051735 0.160000 0.182085
v 3.097051 0.160000 0.321554
v 3.215690 0.160000 0.407750
v 3.362336 0.160000 0.407750
v 3.480975 0.160000 0.321554
f 111 112 113
f 111 113 114
f 111 114 115
f 111 115 116
f 111 116 117
f 111 117 118
f 111 118 119
f 111 119 120
f 111 120 121
f 111 121 112
v -3.581280 0.160000 0.691626
v -3.217662 0.160000 0.691626
v -3.287107 0.160000 0.477898
v -3.468916 0.160000 0.345806
v -3.693644 0.160000 0.345806
v -3.875452 0.160000 0.477898
v -3.944897 0.160000 0.691626
v -3.875452 0.160000 0.905355
v -3.693644 0.160000 1.037447
v -3.468916 0.160000 1.037447
v -3.287107 0.160000 0.905355
f 122 123 124
f 122 124 125
f 122 125 126
f 122 126 127
f 122 127 128
f 122 128 129
f 122 129 130
f 122 130 131
f 122 131 132
f 122 132 123
v 4.805478 0.050000 3.863027
v 4.825478 0.050000 3.843027
v 4.805478 0.050000 3.823027
v 4.785478 0.050000 3.843027
v 4.805478 1.372895 3.855027
v 4.817478 1.372895 3.843027
v 4.805478 1.372895 3.831027
v 4.793478 1.372895 3.843027
f 133 134 138
f 133 138 137
f 134 135 139
f 134 139 138
f 135 136 140
f 135 140 139
f 136 133 137
f 136 137 140
v -3.548017 0.050000 -5.007231
v -3.528017 0.050000 -5.027231
v -3.548017 0.050000 -5.047231
v -3.568017 0.050000 -5.027231
v -3.548017 1.473192 -5.015231
v -3.536017 1.473192 -5.027231
v -3.548017 1.473192 -5.039231
v -3.560017 1.473192 -5.027231
f 141 142 146
f 141 146 145
f 142 143 147
f 142 147 146
f 143 144 148
f 143 148 147
f 144 141 145
f 144 145 148
v -6.135428 0.050000 0.486901
v -6.115428 0.050000 0.466901
v -6.135428 0.050000 0.446901
v -6.155428 0.050000 0.466901
v -6.135428 1.159364 0.478901
v -6.123428 1.159364 0.466901
v -6.135428 1.159364 0.454901
v -6.147428 1.159364 0.466901
f 149 150 154
f 149 154 153
f 150 151 155
f 150 155 154
f 151 152 156
f 151 156 155
f 152 149 153
f 152 153 156
v -0.324246 0.050000 -6.124619
v -0.304246 0.050000 -6.144619
v -0.324246 0.050000 -6.164619
v -0.344246 0.050000 -6.144619
v -0.324246 1.440785 -6.132619
v -0.312246 1.440785 -6.144619
v -0.324246 1.440785 -6.156619
v -0.336246 1.440785 -6.144619
f 157 158 162
f 157 162 161
f 158 159 163
f 158 163 162
f 159 160 164
f 159 164 163
f 160 157 161
f 160 161 164
v -5.316341 0.050000 3.118063
v -5.296341 0.050000 3.098063
v -5.316341 0.050000 3.078063
v -5.336341 0.050000 3.098063
v -5.316341 0.990251 3.110063
v -5.304341 0.990251 3.098063
v -5.316341 0.990251 3.086063
v -5.328341 0.990251 3.098063
f 165 166 170
f 165 170 169
f 166 167 171
f 166 171 170
f 167 168 172
f 167 172 171
f 168 165 169
f 168 169 172
v 4.910813 0.050000 3.727478
v 4.930813 0.050000 3.707478
v 4.910813 0.050000 3.687478
v 4.890813 0.050000 3.707478
v 4.910813 1.200119 3.719478
v 4.922813 1.200119 3.707478
v 4.910813 1.200119 3.695478
v 4.898813 1.200119 3.707478
f 173 174 178
f 173 178 177
f 174 175 179
f 174 179 178
f 175 176 180
f 175 180 179
f 176 173 177
f 176 177 180
v -5.826440 0.050000 -1.958400
v -5.806440 0.050000 -1.978400
v -5.826440 0.050000 -1.998400
v -5.846440 0.050000 -1.978400
v -5.826440 1.442190 -1.966400
v -5.814440 1.442190 -1.978400
v -5.826440 1.442190 -1.990400
v -5.838440 1.442190 -1.978400
f 181 182 186
f 181 186 185
f 182 183 187
f 182 187 186
f 183 184 188
f 183 188 187
f 184 181 185
f 184 185 188
