o mesh
v 0.000000 0.000000 0.015000
v 0.008817 0.000000 0.012135
v 0.014266 0.000000 0.004635
v 0.014266 0.000000 -0.004635
v 0.008817 0.000000 -0.012135
v 0.000000 0.000000 -0.015000
v -0.008817 0.000000 -0.012135
v -0.014266 0.000000 -0.004635
v -0.014266 0.000000 0.004635
v -0.008817 0.000000 0.012135
v 0.000000 0.400000 0.010200
v 0.005995 0.400000 0.008252
v 0.009701 0.400000 0.003152
v 0.009701 0.400000 -0.003152
v 0.005995 0.400000 -0.008252
v 0.000000 0.400000 -0.010200
v -0.005995 0.400000 -0.008252
v -0.009701 0.400000 -0.003152
v -0.009701 0.400000 0.003152
v -0.005995 0.400000 0.008252
f 1 2 12
f 1 12 11
f 2 3 13
f 2 13 12
f 3 4 14
f 3 14 13
f 4 5 15
f 4 15 14
f 5 6 16
f 5 16 15
f 6 7 17
f 6 17 16
f 7 8 18
f 7 18 17
f 8 9 19
f 8 19 18
f 9 10 20
f 9 20 19
f 10 1 11
f 10 11 20
v -0.002445 0.400000 0.009903
v 0.000649 0.405350 0.008660
v 0.003495 0.408656 0.004110
v 0.005006 0.408656 -0.002010
v 0.004605 0.405350 -0.007363
v 0.002445 0.400000 -0.009903
v -0.000649 0.394650 -0.008660
v -0.003495 0.391344 -0.004110
v -0.005006 0.391344 0.002010
v -0.004605 0.394650 0.007363
v -0.306679 0.558914 -0.068585
v -0.304575 0.562552 -0.069430
v -0.302640 0.564801 -0.072524
v -0.301612 0.564801 -0.076686
v -0.301885 0.562552 -0.080325
v -0.303354 0.558914 -0.082052
v -0.305458 0.555276 -0.081207
v -0.307393 0.553028 -0.078113
v -0.308421 0.553028 -0.073951
v -0.308148 0.555276 -0.070312
f 21 22 32
f 21 32 31
f 22 23 33
f 22 33 32
f 23 24 34
f 23 34 33
f 24 25 35
f 24 35 34
f 25 26 36
f 25 36 35
f 26 27 37
f 26 37 36
f 27 28 38
f 27 38 37
f 28 29 39
f 28 39 38
f 29 30 40
f 29 40 39
f 30 21 31
f 30 31 40
v -0.307253 0.558914 -0.068753
v -0.308504 0.562586 -0.070578
v -0.308423 0.564855 -0.074214
v -0.307041 0.564855 -0.078272
v -0.304886 0.562586 -0.081202
v -0.302781 0.558914 -0.081884
v -0.301530 0.555243 -0.080059
v -0.301611 0.552974 -0.076423
v -0.302993 0.552974 -0.072365
v -0.305148 0.555243 -0.069435
v -0.531194 0.444323 -0.147359
v -0.532045 0.446819 -0.148600
v -0.531990 0.448362 -0.151072
v -0.531051 0.448362 -0.153832
v -0.529585 0.446819 -0.155824
v -0.528154 0.444323 -0.156288
v -0.527303 0.441826 -0.155047
v -0.527358 0.440284 -0.152574
v -0.528298 0.440284 -0.149815
v -0.529763 0.441826 -0.147823
f 41 42 52
f 41 52 51
f 42 43 53
f 42 53 52
f 43 44 54
f 43 54 53
f 44 45 55
f 44 55 54
f 45 46 56
f 45 56 55
f 46 47 57
f 46 57 56
f 47 48 58
f 47 58 57
f 48 49 59
f 48 59 58
f 49 50 60
f 49 60 59
f 50 41 51
f 50 51 60
v -0.529674 0.445277 -0.156442
v -0.526973 0.444485 -0.155686
v -0.525303 0.443631 -0.153455
v -0.525303 0.443042 -0.150600
v -0.526973 0.442941 -0.148212
v -0.529674 0.443369 -0.147204
v -0.532376 0.444161 -0.147961
v -0.534045 0.445015 -0.150192
v -0.534045 0.445604 -0.153047
v -0.532376 0.445704 -0.155434
v -0.573142 0.260261 -0.193111
v -0.571305 0.259723 -0.192596
v -0.570170 0.259142 -0.191079
v -0.570170 0.258741 -0.189138
v -0.571305 0.258673 -0.187514
v -0.573142 0.258964 -0.186829
v -0.574979 0.259502 -0.187343
v -0.576114 0.260083 -0.188861
v -0.576114 0.260484 -0.190802
v -0.574979 0.260552 -0.192425
f 61 62 72
f 61 72 71
f 62 63 73
f 62 73 72
f 63 64 74
f 63 74 73
f 64 65 75
f 64 75 74
f 65 66 76
f 65 76 75
f 66 67 77
f 66 77 76
f 67 68 78
f 67 78 77
f 68 69 79
f 68 79 78
f 69 70 80
f 69 80 79
f 70 61 71
f 70 71 80
v -0.573142 0.259612 -0.189970
v -0.573411 0.261374 -0.191931
v -0.573345 0.263078 -0.194001
v -0.572718 0.264689 -0.196254
v -0.571421 0.266187 -0.198726
v -0.569471 0.267575 -0.201410
v -0.567009 0.268878 -0.204262
v -0.564277 0.270135 -0.207201
v -0.561588 0.271399 -0.210127
v -0.559277 0.272727 -0.212929
v -0.557649 0.274169 -0.215509
v -0.556939 0.275766 -0.217789
v -0.557274 0.277538 -0.219728
v -0.558653 0.279486 -0.221328
v -0.560950 0.281587 -0.222628
v -0.563931 0.283804 -0.223705
v -0.567288 0.286084 -0.224659
v -0.570690 0.288372 -0.225599
v -0.573822 0.290614 -0.226626
v -0.576441 0.292770 -0.227821
v -0.578407 0.294816 -0.229229
v -0.579703 0.296750 -0.230855
v -0.580438 0.298589 -0.232664
v -0.580839 0.300372 -0.234583
v -0.580570 0.298611 -0.232621
v -0.580636 0.296906 -0.230551
v -0.581262 0.295296 -0.228298
v -0.582559 0.293798 -0.225827
v -0.584509 0.292409 -0.223142
v -0.586972 0.291107 -0.220290
v -0.589704 0.289850 -0.217351
v -0.592392 0.288586 -0.214426
v -0.594704 0.287258 -0.211623
v -0.596332 0.285816 -0.209044
v -0.597041 0.284219 -0.206764
v -0.596707 0.282447 -0.204824
v -0.595328 0.280499 -0.203225
v -0.593031 0.278397 -0.201925
v -0.590050 0.276181 -0.200848
v -0.586692 0.273900 -0.199894
v -0.583291 0.271613 -0.198954
v -0.580159 0.269371 -0.197926
v -0.577540 0.267215 -0.196731
v -0.575574 0.265169 -0.195323
v -0.574278 0.263235 -0.193697
v -0.573542 0.261396 -0.191888
f 81 82 83
f 81 83 82
f 81 83 84
f 81 84 83
f 81 84 85
f 81 85 84
f 81 85 86
f 81 86 85
f 81 86 87
f 81 87 86
f 81 87 88
f 81 88 87
f 81 88 89
f 81 89 88
f 81 89 90
f 81 90 89
f 81 90 91
f 81 91 90
f 81 91 92
f 81 92 91
f 81 92 93
f 81 93 92
f 81 93 94
f 81 94 93
f 81 94 95
f 81 95 94
f 81 95 96
f 81 96 95
f 81 96 97
f 81 97 96
f 81 97 98
f 81 98 97
f 81 98 99
f 81 99 98
f 81 99 100
f 81 100 99
f 81 100 101
f 81 101 100
f 81 101 102
f 81 102 101
f 81 102 103
f 81 103 102
f 81 103 104
f 81 104 103
f 81 104 105
f 81 105 104
f 81 105 106
f 81 106 105
f 81 106 107
f 81 107 106
f 81 107 108
f 81 108 107
f 81 108 109
f 81 109 108
f 81 109 110
f 81 110 109
f 81 110 111
f 81 111 110
f 81 111 112
f 81 112 111
f 81 112 113
f 81 113 112
f 81 113 114
f 81 114 113
f 81 114 115
f 81 115 114
f 81 115 116
f 81 116 115
f 81 116 117
f 81 117 116
f 81 117 118
f 81 118 117
f 81 118 119
f 81 119 118
f 81 119 120
f 81 120 119
f 81 120 121
f 81 121 120
f 81 121 122
f 81 122 121
f 81 122 123
f 81 123 122
f 81 123 124
f 81 124 123
f 81 124 125
f 81 125 124
f 81 125 126
f 81 126 125
v -0.573142 0.259612 -0.189970
v -0.570657 0.259357 -0.188111
v -0.568570 0.259015 -0.185381
v -0.566781 0.258610 -0.182003
v -0.565201 0.258159 -0.178166
v -0.563744 0.257682 -0.174062
v -0.562317 0.257198 -0.169890
v -0.560833 0.256726 -0.165845
v -0.559207 0.256285 -0.162109
v -0.557367 0.255891 -0.158842
v -0.555252 0.255555 -0.156173
v -0.552823 0.255288 -0.154192
v -0.550058 0.255093 -0.152946
v -0.546956 0.254970 -0.152433
v -0.543540 0.254916 -0.152610
v -0.539850 0.254921 -0.153383
v -0.535945 0.254972 -0.154626
v -0.531899 0.255053 -0.156179
v -0.527794 0.255147 -0.157857
v -0.523721 0.255235 -0.159468
v -0.519770 0.255296 -0.160813
v -0.516029 0.255312 -0.161698
v -0.512584 0.255263 -0.161935
v -0.509539 0.255129 -0.161301
v -0.512024 0.255384 -0.163159
v -0.514110 0.255726 -0.165889
v -0.515900 0.256131 -0.169267
v -0.517479 0.256582 -0.173105
v -0.518937 0.257059 -0.177209
v -0.520363 0.257543 -0.181380
v -0.521848 0.258015 -0.185426
v -0.523474 0.258456 -0.189162
v -0.525314 0.258850 -0.192428
v -0.527428 0.259186 -0.195097
v -0.529858 0.259453 -0.197078
v -0.532623 0.259648 -0.198325
v -0.535724 0.259771 -0.198837
v -0.539141 0.259825 -0.198661
v -0.542831 0.259820 -0.197887
v -0.546736 0.259769 -0.196644
v -0.550782 0.259688 -0.195092
v -0.554887 0.259594 -0.193413
v -0.558960 0.259506 -0.191802
v -0.562911 0.259445 -0.190457
v -0.566652 0.259430 -0.189572
v -0.570096 0.259478 -0.189335
f 127 128 129
f 127 129 128
f 127 129 130
f 127 130 129
f 127 130 131
f 127 131 130
f 127 131 132
f 127 132 131
f 127 132 133
f 127 133 132
f 127 133 134
f 127 134 133
f 127 134 135
f 127 135 134
f 127 135 136
f 127 136 135
f 127 136 137
f 127 137 136
f 127 137 138
f 127 138 137
f 127 138 139
f 127 139 138
f 127 139 140
f 127 140 139
f 127 140 141
f 127 141 140
f 127 141 142
f 127 142 141
f 127 142 143
f 127 143 142
f 127 143 144
f 127 144 143
f 127 144 145
f 127 145 144
f 127 145 146
f 127 146 145
f 127 146 147
f 127 147 146
f 127 147 148
f 127 148 147
f 127 148 149
f 127 149 148
f 127 149 150
f 127 150 149
f 127 150 151
f 127 151 150
f 127 151 152
f 127 152 151
f 127 152 153
f 127 153 152
f 127 153 154
f 127 154 153
f 127 154 155
f 127 155 154
f 127 155 156
f 127 156 155
f 127 156 157
f 127 157 156
f 127 157 158
f 127 158 157
f 127 158 159
f 127 159 158
f 127 159 160
f 127 160 159
f 127 160 161
f 127 161 160
f 127 161 162
f 127 162 161
f 127 162 163
f 127 163 162
f 127 163 164
f 127 164 163
f 127 164 165
f 127 165 164
f 127 165 166
f 127 166 165
f 127 166 167
f 127 167 166
f 127 167 168
f 127 168 167
f 127 168 169
f 127 169 168
f 127 169 170
f 127 170 169
f 127 170 171
f 127 171 170
f 127 171 172
f 127 172 171
v -0.573142 0.259612 -0.189970
v -0.575299 0.261354 -0.189528
v -0.577536 0.263245 -0.189716
v -0.579862 0.265302 -0.190609
v -0.582270 0.267513 -0.192154
v -0.584743 0.269845 -0.194210
v -0.587254 0.272249 -0.196570
v -0.589772 0.274666 -0.198987
v -0.592264 0.277034 -0.201195
v -0.594698 0.279293 -0.202944
v -0.597047 0.281393 -0.204019
v -0.599290 0.283297 -0.204263
v -0.601419 0.284985 -0.203595
v -0.603432 0.286458 -0.202015
v -0.605341 0.287735 -0.199605
v -0.607164 0.288852 -0.196521
v -0.608930 0.289861 -0.192977
v -0.610669 0.290821 -0.189225
v -0.612415 0.291794 -0.185529
v -0.614199 0.292839 -0.182137
v -0.616048 0.294004 -0.179256
v -0.617980 0.295324 -0.177028
v -0.620000 0.296810 -0.175504
v -0.622100 0.298445 -0.174611
v -0.619943 0.296704 -0.175053
v -0.617706 0.294813 -0.174864
v -0.615381 0.292756 -0.173972
v -0.612973 0.290545 -0.172427
v -0.610500 0.288213 -0.170371
v -0.607989 0.285809 -0.168010
v -0.605470 0.283392 -0.165594
v -0.602978 0.281024 -0.163385
v -0.600544 0.278765 -0.161637
v -0.598196 0.276665 -0.160562
v -0.595952 0.274761 -0.160317
v -0.593823 0.273072 -0.160985
v -0.591810 0.271600 -0.162565
v -0.589901 0.270323 -0.164976
v -0.588078 0.269205 -0.168060
v -0.586313 0.268197 -0.171604
v -0.584574 0.267237 -0.175356
v -0.582828 0.266264 -0.179052
v -0.581043 0.265219 -0.182444
v -0.579194 0.264053 -0.185324
v -0.577263 0.262734 -0.187552
v -0.575242 0.261247 -0.189076
f 173 174 175
f 173 175 174
f 173 175 176
f 173 176 175
f 173 176 177
f 173 177 176
f 173 177 178
f 173 178 177
f 173 178 179
f 173 179 178
f 173 179 180
f 173 180 179
f 173 180 181
f 173 181 180
f 173 181 182
f 173 182 181
f 173 182 183
f 173 183 182
f 173 183 184
f 173 184 183
f 173 184 185
f 173 185 184
f 173 185 186
f 173 186 185
f 173 186 187
f 173 187 186
f 173 187 188
f 173 188 187
f 173 188 189
f 173 189 188
f 173 189 190
f 173 190 189
f 173 190 191
f 173 191 190
f 173 191 192
f 173 192 191
f 173 192 193
f 173 193 192
f 173 193 194
f 173 194 193
f 173 194 195
f 173 195 194
f 173 195 196
f 173 196 195
f 173 196 197
f 173 197 196
f 173 197 198
f 173 198 197
f 173 198 199
f 173 199 198
f 173 199 200
f 173 200 199
f 173 200 201
f 173 201 200
f 173 201 202
f 173 202 201
f 173 202 203
f 173 203 202
f 173 203 204
f 173 204 203
f 173 204 205
f 173 205 204
f 173 205 206
f 173 206 205
f 173 206 207
f 173 207 206
f 173 207 208
f 173 208 207
f 173 208 209
f 173 209 208
f 173 209 210
f 173 210 209
f 173 210 211
f 173 211 210
f 173 211 212
f 173 212 211
f 173 212 213
f 173 213 212
f 173 213 214
f 173 214 213
f 173 214 215
f 173 215 214
f 173 215 216
f 173 216 215
f 173 216 217
f 173 217 216
f 173 217 218
f 173 218 217
v -0.000259 0.400000 -0.010197
v -0.004871 0.403768 -0.008131
v -0.007623 0.406097 -0.002959
v -0.007463 0.406097 0.003343
v -0.004452 0.403768 0.008368
v 0.000259 0.400000 0.010197
v 0.004871 0.396232 0.008131
v 0.007623 0.393903 0.002959
v 0.007463 0.393903 -0.003343
v 0.004452 0.396232 -0.008368
v 0.220878 0.673656 -0.012549
v 0.217742 0.676218 -0.011145
v 0.215871 0.677802 -0.007628
v 0.215980 0.677802 -0.003343
v 0.218027 0.676218 0.000075
v 0.221231 0.673656 0.001318
v 0.224367 0.671093 -0.000087
v 0.226238 0.669510 -0.003603
v 0.226129 0.669510 -0.007888
v 0.224082 0.671093 -0.011306
f 219 220 230
f 219 230 229
f 220 221 231
f 220 231 230
f 221 222 232
f 221 232 231
f 222 223 233
f 222 233 232
f 223 224 234
f 223 234 233
f 224 225 235
f 224 235 234
f 225 226 236
f 225 236 235
f 226 227 237
f 226 237 236
f 227 228 238
f 227 238 237
f 228 219 229
f 228 229 238
v 0.219571 0.673656 -0.012391
v 0.218946 0.677625 -0.010898
v 0.219126 0.680078 -0.007387
v 0.220043 0.680078 -0.003200
v 0.221346 0.677625 0.000065
v 0.222538 0.673656 0.001160
v 0.223163 0.669686 -0.000333
v 0.222983 0.667233 -0.003844
v 0.222066 0.667233 -0.008031
v 0.220763 0.669686 -0.011296
v 0.472758 0.734279 -0.065552
v 0.472332 0.736978 -0.064537
v 0.472455 0.738646 -0.062150
v 0.473078 0.738646 -0.059302
v 0.473964 0.736978 -0.057082
v 0.474775 0.734279 -0.056337
v 0.475200 0.731579 -0.057353
v 0.475078 0.729911 -0.059740
v 0.474454 0.729911 -0.062587
v 0.473568 0.731579 -0.064807
f 239 240 250
f 239 250 249
f 240 241 251
f 240 251 250
f 241 242 252
f 241 252 251
f 242 243 253
f 242 253 252
f 243 244 254
f 243 254 253
f 244 245 255
f 244 255 254
f 245 246 256
f 245 256 255
f 246 247 257
f 246 257 256
f 247 248 258
f 247 258 257
f 248 239 249
f 248 249 258
v 0.473148 0.734279 -0.065620
v 0.475149 0.736298 -0.064976
v 0.476622 0.737546 -0.062793
v 0.477004 0.737546 -0.059903
v 0.476150 0.736298 -0.057411
v 0.474385 0.734279 -0.056269
v 0.472383 0.732259 -0.056913
v 0.470910 0.731012 -0.059097
v 0.470528 0.731012 -0.061987
v 0.471383 0.732259 -0.064478
v 0.624875 0.590478 -0.084163
v 0.626236 0.591851 -0.083725
v 0.627238 0.592699 -0.082240
v 0.627498 0.592699 -0.080275
v 0.626917 0.591851 -0.078581
v 0.625716 0.590478 -0.077804
v 0.624355 0.589105 -0.078242
v 0.623354 0.588256 -0.079727
v 0.623094 0.588256 -0.081692
v 0.623675 0.589105 -0.083386
f 259 260 270
f 259 270 269
f 260 261 271
f 260 271 270
f 261 262 272
f 261 272 271
f 262 263 273
f 262 273 272
f 263 264 274
f 263 274 273
f 264 265 275
f 264 275 274
f 265 266 276
f 265 276 275
f 266 267 277
f 266 277 276
f 267 268 278
f 267 278 277
f 268 259 269
f 268 269 278
v 0.625296 0.590478 -0.080983
v 0.623777 0.591024 -0.082647
v 0.622367 0.591695 -0.084372
v 0.621209 0.592650 -0.086239
v 0.620423 0.594027 -0.088315
v 0.620064 0.595886 -0.090631
v 0.620099 0.598192 -0.093168
v 0.620401 0.600801 -0.095856
v 0.620771 0.603486 -0.098582
v 0.620965 0.605972 -0.101209
v 0.620746 0.607990 -0.103604
v 0.619923 0.609325 -0.105659
v 0.618390 0.609856 -0.107315
v 0.616148 0.609584 -0.108572
v 0.613302 0.608628 -0.109489
v 0.610042 0.607204 -0.110174
v 0.606608 0.605582 -0.110760
v 0.603240 0.604035 -0.111384
v 0.600140 0.602792 -0.112159
v 0.597434 0.601995 -0.113155
v 0.595154 0.601681 -0.114391
v 0.593247 0.601788 -0.115836
v 0.591591 0.602180 -0.117423
v 0.590045 0.602696 -0.119071
v 0.591564 0.602149 -0.117408
v 0.592974 0.601479 -0.115682
v 0.594132 0.600523 -0.113816
v 0.594918 0.599147 -0.111740
v 0.595277 0.597287 -0.109424
v 0.595242 0.594981 -0.106887
v 0.594940 0.592372 -0.104199
v 0.594570 0.589688 -0.101473
v 0.594376 0.587201 -0.098846
v 0.594595 0.585183 -0.096451
v 0.595418 0.583849 -0.094396
v 0.596951 0.583318 -0.092740
v 0.599193 0.583589 -0.091483
v 0.602039 0.584545 -0.090566
v 0.605299 0.585969 -0.089881
v 0.608733 0.587592 -0.089295
v 0.612101 0.589138 -0.088671
v 0.615201 0.590381 -0.087896
v 0.617907 0.591179 -0.086900
v 0.620187 0.591493 -0.085664
v 0.622094 0.591386 -0.084219
v 0.623750 0.590994 -0.082632
f 279 280 281
f 279 281 280
f 279 281 282
f 279 282 281
f 279 282 283
f 279 283 282
f 279 283 284
f 279 284 283
f 279 284 285
f 279 285 284
f 279 285 286
f 279 286 285
f 279 286 287
f 279 287 286
f 279 287 288
f 279 288 287
f 279 288 289
f 279 289 288
f 279 289 290
f 279 290 289
f 279 290 291
f 279 291 290
f 279 291 292
f 279 292 291
f 279 292 293
f 279 293 292
f 279 293 294
f 279 294 293
f 279 294 295
f 279 295 294
f 279 295 296
f 279 296 295
f 279 296 297
f 279 297 296
f 279 297 298
f 279 298 297
f 279 298 299
f 279 299 298
f 279 299 300
f 279 300 299
f 279 300 301
f 279 301 300
f 279 301 302
f 279 302 301
f 279 302 303
f 279 303 302
f 279 303 304
f 279 304 303
f 279 304 305
f 279 305 304
f 279 305 306
f 279 306 305
f 279 306 307
f 279 307 306
f 279 307 308
f 279 308 307
f 279 308 309
f 279 309 308
f 279 309 310
f 279 310 309
f 279 310 311
f 279 311 310
f 279 311 312
f 279 312 311
f 279 312 313
f 279 313 312
f 279 313 314
f 279 314 313
f 279 314 315
f 279 315 314
f 279 315 316
f 279 316 315
f 279 316 317
f 279 317 316
f 279 317 318
f 279 318 317
f 279 318 319
f 279 319 318
f 279 319 320
f 279 320 319
f 279 320 321
f 279 321 320
f 279 321 322
f 279 322 321
f 279 322 323
f 279 323 322
f 279 323 324
f 279 324 323
v 0.625296 0.590478 -0.080983
v 0.624621 0.591461 -0.077480
v 0.623717 0.592199 -0.073947
v 0.622332 0.592422 -0.070352
v 0.620283 0.591932 -0.066672
v 0.617506 0.590662 -0.062899
v 0.614087 0.588706 -0.059043
v 0.610260 0.586311 -0.055135
v 0.606366 0.583845 -0.051219
v 0.602805 0.581736 -0.047345
v 0.599960 0.580394 -0.043563
v 0.598134 0.580143 -0.039912
v 0.597492 0.581161 -0.036412
v 0.598033 0.583448 -0.033065
v 0.599593 0.586827 -0.029848
v 0.601870 0.590973 -0.026722
v 0.604478 0.595475 -0.023640
v 0.607021 0.599906 -0.020549
v 0.609155 0.603899 -0.017405
v 0.610647 0.607205 -0.014179
v 0.611412 0.609731 -0.010860
v 0.611512 0.611545 -0.007456
v 0.611132 0.612844 -0.003990
v 0.610522 0.613897 -0.000495
v 0.611196 0.612913 -0.003998
v 0.612101 0.612175 -0.007531
v 0.613485 0.611952 -0.011126
v 0.615534 0.612442 -0.014806
v 0.618312 0.613712 -0.018579
v 0.621730 0.615668 -0.022435
v 0.625558 0.618064 -0.026343
v 0.629451 0.620529 -0.030259
v 0.633012 0.622639 -0.034133
v 0.635857 0.623981 -0.037915
v 0.637683 0.624231 -0.041566
v 0.638326 0.623213 -0.045066
v 0.637784 0.620926 -0.048414
v 0.636224 0.617548 -0.051631
v 0.633948 0.613402 -0.054756
v 0.631339 0.608900 -0.057838
v 0.628796 0.604468 -0.060930
v 0.626662 0.600475 -0.064073
v 0.625170 0.597169 -0.067299
v 0.624405 0.594643 -0.070618
v 0.624305 0.592830 -0.074022
v 0.624686 0.591531 -0.077488
f 325 326 327
f 325 327 326
f 325 327 328
f 325 328 327
f 325 328 329
f 325 329 328
f 325 329 330
f 325 330 329
f 325 330 331
f 325 331 330
f 325 331 332
f 325 332 331
f 325 332 333
f 325 333 332
f 325 333 334
f 325 334 333
f 325 334 335
f 325 335 334
f 325 335 336
f 325 336 335
f 325 336 337
f 325 337 336
f 325 337 338
f 325 338 337
f 325 338 339
f 325 339 338
f 325 339 340
f 325 340 339
f 325 340 341
f 325 341 340
f 325 341 342
f 325 342 341
f 325 342 343
f 325 343 342
f 325 343 344
f 325 344 343
f 325 344 345
f 325 345 344
f 325 345 346
f 325 346 345
f 325 346 347
f 325 347 346
f 325 347 348
f 325 348 347
f 325 348 349
f 325 349 348
f 325 349 350
f 325 350 349
f 325 350 351
f 325 351 350
f 325 351 352
f 325 352 351
f 325 352 353
f 325 353 352
f 325 353 354
f 325 354 353
f 325 354 355
f 325 355 354
f 325 355 356
f 325 356 355
f 325 356 357
f 325 357 356
f 325 357 358
f 325 358 357
f 325 358 359
f 325 359 358
f 325 359 360
f 325 360 359
f 325 360 361
f 325 361 360
f 325 361 362
f 325 362 361
f 325 362 363
f 325 363 362
f 325 363 364
f 325 364 363
f 325 364 365
f 325 365 364
f 325 365 366
f 325 366 365
f 325 366 367
f 325 367 366
f 325 367 368
f 325 368 367
f 325 368 369
f 325 369 368
f 325 369 370
f 325 370 369
