o mesh
v 2.857427 0.000000 -0.000000
v 2.639918 0.000000 -1.093490
v 2.609925 3.400000 -1.081067
v 2.824963 3.400000 -0.000000
f 1 2 3
f 1 3 4
v 2.639918 0.000000 -1.093490
v 2.020506 0.000000 -2.020506
v 1.997550 3.400000 -1.997550
v 2.609925 3.400000 -1.081067
f 5 6 7
f 5 7 8
v 2.020506 0.000000 -2.020506
v 1.093490 0.000000 -2.639918
v 1.081067 3.400000 -2.609925
v 1.997550 3.400000 -1.997550
f 9 10 11
f 9 11 12
v 1.093490 0.000000 -2.639918
v 0.000000 0.000000 -2.857427
v 0.000000 3.400000 -2.824963
v 1.081067 3.400000 -2.609925
f 13 14 15
f 13 15 16
v 0.000000 2.400000 -2.834511
v -1.084720 2.400000 -2.618747
v -1.081067 3.400000 -2.609925
v 0.000000 3.400000 -2.824963
f 17 18 19
f 17 19 20
v -1.093490 0.000000 -2.639918
v -2.020506 0.000000 -2.020506
v -1.997550 3.400000 -1.997550
v -1.081067 3.400000 -2.609925
f 21 22 23
f 21 23 24
v -2.020506 0.000000 -2.020506
v -2.639918 0.000000 -1.093490
v -2.609925 3.400000 -1.081067
v -1.997550 3.400000 -1.997550
f 25 26 27
f 25 27 28
v -2.639918 0.000000 -1.093490
v -2.857427 0.000000 -0.000000
v -2.824963 3.400000 -0.000000
v -2.609925 3.400000 -1.081067
f 29 30 31
f 29 31 32
v -2.857427 0.000000 -0.000000
v -2.639918 0.000000 1.093490
v -2.609925 3.400000 1.081067
v -2.824963 3.400000 -0.000000
f 33 34 35
f 33 35 36
v -2.639918 0.000000 1.093490
v -2.020506 0.000000 2.020506
v -1.997550 3.400000 1.997550
v -2.609925 3.400000 1.081067
f 37 38 39
f 37 39 40
v -2.020506 0.000000 2.020506
v -1.093490 0.000000 2.639918
v -1.081067 3.400000 2.609925
v -1.997550 3.400000 1.997550
f 41 42 43
f 41 43 44
v -1.093490 0.000000 2.639918
v -0.000000 0.000000 2.857427
v -0.000000 3.400000 2.824963
v -1.081067 3.400000 2.609925
f 45 46 47
f 45 47 48
v -0.000000 0.000000 2.857427
v 1.093490 0.000000 2.639918
v 1.081067 3.400000 2.609925
v -0.000000 3.400000 2.824963
f 49 50 51
f 49 51 52
v 1.093490 0.000000 2.639918
v 2.020506 0.000000 2.020506
v 1.997550 3.400000 1.997550
v 1.081067 3.400000 2.609925
f 53 54 55
f 53 55 56
v 2.020506 0.000000 2.020506
v 2.639918 0.000000 1.093490
v 2.609925 3.400000 1.081067
v 1.997550 3.400000 1.997550
f 57 58 59
f 57 59 60
v 2.639918 0.000000 1.093490
v 2.857427 0.000000 -0.000000
v 2.824963 3.400000 -0.000000
v 2.609925 3.400000 1.081067
f 61 62 63
f 61 63 64
v 2.824963 3.400000 -0.000000
v 2.609925 3.400000 -1.081067
v 2.579933 6.800000 -1.068643
v 2.792499 6.800000 -0.000000
f 65 66 67
f 65 67 68
v 2.609925 3.400000 -1.081067
v 1.997550 3.400000 -1.997550
v 1.990799 4.400000 -1.990799
v 2.601104 4.400000 -1.077413
f 69 70 71
f 69 71 72
v 2.589636 5.700000 -1.072662
v 1.982022 5.700000 -1.982022
v 1.974595 6.800000 -1.974595
v 2.579933 6.800000 -1.068643
f 73 74 75
f 73 75 76
v 1.997550 3.400000 -1.997550
v 1.081067 3.400000 -2.609925
v 1.068643 6.800000 -2.579933
v 1.974595 6.800000 -1.974595
f 77 78 79
f 77 79 80
v 1.081067 3.400000 -2.609925
v 0.000000 3.400000 -2.824963
v 0.000000 6.800000 -2.792499
v 1.068643 6.800000 -2.579933
f 81 82 83
f 81 83 84
v 0.000000 3.400000 -2.824963
v -1.081067 3.400000 -2.609925
v -1.068643 6.800000 -2.579933
v 0.000000 6.800000 -2.792499
f 85 86 87
f 85 87 88
v -1.081067 3.400000 -2.609925
v -1.997550 3.400000 -1.997550
v -1.990799 4.400000 -1.990799
v -1.077413 4.400000 -2.601104
f 89 90 91
f 89 91 92
v -1.072662 5.700000 -2.589636
v -1.982022 5.700000 -1.982022
v -1.974595 6.800000 -1.974595
v -1.068643 6.800000 -2.579933
f 93 94 95
f 93 95 96
v -1.997550 3.400000 -1.997550
v -2.609925 3.400000 -1.081067
v -2.579933 6.800000 -1.068643
v -1.974595 6.800000 -1.974595
f 97 98 99
f 97 99 100
v -2.609925 3.400000 -1.081067
v -2.824963 3.400000 -0.000000
v -2.792499 6.800000 -0.000000
v -2.579933 6.800000 -1.068643
f 101 102 103
f 101 103 104
v -2.824963 3.400000 -0.000000
v -2.609925 3.400000 1.081067
v -2.579933 6.800000 1.068643
v -2.792499 6.800000 -0.000000
f 105 106 107
f 105 107 108
v -2.609925 3.400000 1.081067
v -1.997550 3.400000 1.997550
v -1.990799 4.400000 1.990799
v -2.601104 4.400000 1.077413
f 109 110 111
f 109 111 112
v -2.589636 5.700000 1.072662
v -1.982022 5.700000 1.982022
v -1.974595 6.800000 1.974595
v -2.579933 6.800000 1.068643
f 113 114 115
f 113 115 116
v -1.997550 3.400000 1.997550
v -1.081067 3.400000 2.609925
v -1.068643 6.800000 2.579933
v -1.974595 6.800000 1.974595
f 117 118 119
f 117 119 120
v -1.081067 3.400000 2.609925
v -0.000000 3.400000 2.824963
v -0.000000 6.800000 2.792499
v -1.068643 6.800000 2.579933
f 121 122 123
f 121 123 124
v -0.000000 3.400000 2.824963
v 1.081067 3.400000 2.609925
v 1.068643 6.800000 2.579933
v -0.000000 6.800000 2.792499
f 125 126 127
f 125 127 128
v 1.081067 3.400000 2.609925
v 1.997550 3.400000 1.997550
v 1.990799 4.400000 1.990799
v 1.077413 4.400000 2.601104
f 129 130 131
f 129 131 132
v 1.072662 5.700000 2.589636
v 1.982022 5.700000 1.982022
v 1.974595 6.800000 1.974595
v 1.068643 6.800000 2.579933
f 133 134 135
f 133 135 136
v 1.997550 3.400000 1.997550
v 2.609925 3.400000 1.081067
v 2.579933 6.800000 1.068643
v 1.974595 6.800000 1.974595
f 137 138 139
f 137 139 140
v 2.609925 3.400000 1.081067
v 2.824963 3.400000 -0.000000
v 2.792499 6.800000 -0.000000
v 2.579933 6.800000 1.068643
f 141 142 143
f 141 143 144
v 2.792499 6.800000 -0.000000
v 2.579933 6.800000 -1.068643
v 2.549940 10.200000 -1.056220
v 2.760035 10.200000 -0.000000
f 145 146 147
f 145 147 148
v 2.579933 6.800000 -1.068643
v 1.974595 6.800000 -1.974595
v 1.951639 10.200000 -1.951639
v 2.549940 10.200000 -1.056220
f 149 150 151
f 149 151 152
v 1.974595 6.800000 -1.974595
v 1.068643 6.800000 -2.579933
v 1.064989 7.800000 -2.571111
v 1.967843 7.800000 -1.967843
f 153 154 155
f 153 155 156
v 1.959066 9.100000 -1.959066
v 1.060239 9.100000 -2.559643
v 1.056220 10.200000 -2.549940
v 1.951639 10.200000 -1.951639
f 157 158 159
f 157 159 160
v 1.068643 6.800000 -2.579933
v 0.000000 6.800000 -2.792499
v 0.000000 10.200000 -2.760035
v 1.056220 10.200000 -2.549940
f 161 162 163
f 161 163 164
v 0.000000 6.800000 -2.792499
v -1.068643 6.800000 -2.579933
v -1.056220 10.200000 -2.549940
v 0.000000 10.200000 -2.760035
f 165 166 167
f 165 167 168
v -1.068643 6.800000 -2.579933
v -1.974595 6.800000 -1.974595
v -1.951639 10.200000 -1.951639
v -1.056220 10.200000 -2.549940
f 169 170 171
f 169 171 172
v -1.974595 6.800000 -1.974595
v -2.579933 6.800000 -1.068643
v -2.571111 7.800000 -1.064989
v -1.967843 7.800000 -1.967843
f 173 174 175
f 173 175 176
v -1.959066 9.100000 -1.959066
v -2.559643 9.100000 -1.060239
v -2.549940 10.200000 -1.056220
v -1.951639 10.200000 -1.951639
f 177 178 179
f 177 179 180
v -2.579933 6.800000 -1.068643
v -2.792499 6.800000 -0.000000
v -2.760035 10.200000 -0.000000
v -2.549940 10.200000 -1.056220
f 181 182 183
f 181 183 184
v -2.792499 6.800000 -0.000000
v -2.579933 6.800000 1.068643
v -2.549940 10.200000 1.056220
v -2.760035 10.200000 -0.000000
f 185 186 187
f 185 187 188
v -2.579933 6.800000 1.068643
v -1.974595 6.800000 1.974595
v -1.951639 10.200000 1.951639
v -2.549940 10.200000 1.056220
f 189 190 191
f 189 191 192
v -1.974595 6.800000 1.974595
v -1.068643 6.800000 2.579933
v -1.064989 7.800000 2.571111
v -1.967843 7.800000 1.967843
f 193 194 195
f 193 195 196
v -1.959066 9.100000 1.959066
v -1.060239 9.100000 2.559643
v -1.056220 10.200000 2.549940
v -1.951639 10.200000 1.951639
f 197 198 199
f 197 199 200
v -1.068643 6.800000 2.579933
v -0.000000 6.800000 2.792499
v -0.000000 10.200000 2.760035
v -1.056220 10.200000 2.549940
f 201 202 203
f 201 203 204
v -0.000000 6.800000 2.792499
v 1.068643 6.800000 2.579933
v 1.056220 10.200000 2.549940
v -0.000000 10.200000 2.760035
f 205 206 207
f 205 207 208
v 1.068643 6.800000 2.579933
v 1.974595 6.800000 1.974595
v 1.951639 10.200000 1.951639
v 1.056220 10.200000 2.549940
f 209 210 211
f 209 211 212
v 1.974595 6.800000 1.974595
v 2.579933 6.800000 1.068643
v 2.571111 7.800000 1.064989
v 1.967843 7.800000 1.967843
f 213 214 215
f 213 215 216
v 1.959066 9.100000 1.959066
v 2.559643 9.100000 1.060239
v 2.549940 10.200000 1.056220
v 1.951639 10.200000 1.951639
f 217 218 219
f 217 219 220
v 2.579933 6.800000 1.068643
v 2.792499 6.800000 -0.000000
v 2.760035 10.200000 -0.000000
v 2.549940 10.200000 1.056220
f 221 222 223
f 221 223 224
v 2.760035 10.200000 -0.000000
v 2.549940 10.200000 -1.056220
v 2.542895 10.998580 -1.053302
v 2.752410 10.998580 -0.000000
f 225 226 227
f 225 227 228
v 2.549940 10.200000 -1.056220
v 1.951639 10.200000 -1.951639
v 1.928684 13.600000 -1.928684
v 2.519947 13.600000 -1.043796
f 229 230 231
f 229 231 232
v 1.951639 10.200000 -1.951639
v 1.056220 10.200000 -2.549940
v 1.043796 13.600000 -2.519947
v 1.928684 13.600000 -1.928684
f 233 234 235
f 233 235 236
v 1.056220 10.200000 -2.549940
v 0.000000 10.200000 -2.760035
v 0.000000 11.200000 -2.750487
v 1.052566 11.200000 -2.541118
f 237 238 239
f 237 239 240
v 1.047816 12.500000 -2.529651
v 0.000000 12.500000 -2.738074
v 0.000000 13.600000 -2.727571
v 1.043796 13.600000 -2.519947
f 241 242 243
f 241 243 244
v 0.000000 10.200000 -2.760035
v -1.056220 10.200000 -2.549940
v -1.051970 11.363018 -2.539680
v 0.000000 11.363018 -2.748930
f 245 246 247
f 245 247 248
v -1.056220 10.200000 -2.549940
v -1.951639 10.200000 -1.951639
v -1.928684 13.600000 -1.928684
v -1.043796 13.600000 -2.519947
f 249 250 251
f 249 251 252
v -1.951639 10.200000 -1.951639
v -2.549940 10.200000 -1.056220
v -2.519947 13.600000 -1.043796
v -1.928684 13.600000 -1.928684
f 253 254 255
f 253 255 256
v -2.549940 10.200000 -1.056220
v -2.760035 10.200000 -0.000000
v -2.750487 11.200000 -0.000000
v -2.541118 11.200000 -1.052566
f 257 258 259
f 257 259 260
v -2.529651 12.500000 -1.047816
v -2.738074 12.500000 -0.000000
v -2.727571 13.600000 -0.000000
v -2.519947 13.600000 -1.043796
f 261 262 263
f 261 263 264
v -2.760035 10.200000 -0.000000
v -2.549940 10.200000 1.056220
v -2.519947 13.600000 1.043796
v -2.727571 13.600000 -0.000000
f 265 266 267
f 265 267 268
v -2.549940 10.200000 1.056220
v -1.951639 10.200000 1.951639
v -1.928684 13.600000 1.928684
v -2.519947 13.600000 1.043796
f 269 270 271
f 269 271 272
v -1.951639 10.200000 1.951639
v -1.056220 10.200000 2.549940
v -1.043796 13.600000 2.519947
v -1.928684 13.600000 1.928684
f 273 274 275
f 273 275 276
v -1.056220 10.200000 2.549940
v -0.000000 10.200000 2.760035
v -0.000000 11.200000 2.750487
v -1.052566 11.200000 2.541118
f 277 278 279
f 277 279 280
v -1.047816 12.500000 2.529651
v -0.000000 12.500000 2.738074
v -0.000000 13.600000 2.727571
v -1.043796 13.600000 2.519947
f 281 282 283
f 281 283 284
v -0.000000 10.200000 2.760035
v 1.056220 10.200000 2.549940
v 1.043796 13.600000 2.519947
v -0.000000 13.600000 2.727571
f 285 286 287
f 285 287 288
v 1.056220 10.200000 2.549940
v 1.951639 10.200000 1.951639
v 1.928684 13.600000 1.928684
v 1.043796 13.600000 2.519947
f 289 290 291
f 289 291 292
v 1.951639 10.200000 1.951639
v 2.549940 10.200000 1.056220
v 2.519947 13.600000 1.043796
v 1.928684 13.600000 1.928684
f 293 294 295
f 293 295 296
v 2.549940 10.200000 1.056220
v 2.760035 10.200000 -0.000000
v 2.750487 11.200000 -0.000000
v 2.541118 11.200000 1.052566
f 297 298 299
f 297 299 300
v 2.529651 12.500000 1.047816
v 2.738074 12.500000 -0.000000
v 2.727571 13.600000 -0.000000
v 2.519947 13.600000 1.043796
f 301 302 303
f 301 303 304
v 2.727571 13.600000 -0.000000
v 2.519947 13.600000 -1.043796
v 2.511126 14.600000 -1.040142
v 2.718023 14.600000 -0.000000
f 305 306 307
f 305 307 308
v 2.705610 15.900000 -0.000000
v 2.499658 15.900000 -1.035392
v 2.489954 17.000000 -1.031373
v 2.695107 17.000000 -0.000000
f 309 310 311
f 309 311 312
v 2.519947 13.600000 -1.043796
v 1.928684 13.600000 -1.928684
v 1.905729 17.000000 -1.905729
v 2.489954 17.000000 -1.031373
f 313 314 315
f 313 315 316
v 1.928684 13.600000 -1.928684
v 1.043796 13.600000 -2.519947
v 1.031373 17.000000 -2.489954
v 1.905729 17.000000 -1.905729
f 317 318 319
f 317 319 320
v 1.043796 13.600000 -2.519947
v 0.000000 13.600000 -2.727571
v 0.000000 17.000000 -2.695107
v 1.031373 17.000000 -2.489954
f 321 322 323
f 321 323 324
v 0.000000 13.600000 -2.727571
v -1.043796 13.600000 -2.519947
v -1.040142 14.600000 -2.511126
v 0.000000 14.600000 -2.718023
f 325 326 327
f 325 327 328
v 0.000000 15.900000 -2.705610
v -1.035392 15.900000 -2.499658
v -1.031373 17.000000 -2.489954
v 0.000000 17.000000 -2.695107
f 329 330 331
f 329 331 332
v -1.043796 13.600000 -2.519947
v -1.928684 13.600000 -1.928684
v -1.905729 17.000000 -1.905729
v -1.031373 17.000000 -2.489954
f 333 334 335
f 333 335 336
v -1.928684 13.600000 -1.928684
v -2.519947 13.600000 -1.043796
v -2.489954 17.000000 -1.031373
v -1.905729 17.000000 -1.905729
f 337 338 339
f 337 339 340
v -2.519947 13.600000 -1.043796
v -2.727571 13.600000 -0.000000
v -2.695107 17.000000 -0.000000
v -2.489954 17.000000 -1.031373
f 341 342 343
f 341 343 344
v -2.727571 13.600000 -0.000000
v -2.519947 13.600000 1.043796
v -2.511126 14.600000 1.040142
v -2.718023 14.600000 -0.000000
f 345 346 347
f 345 347 348
v -2.705610 15.900000 -0.000000
v -2.499658 15.900000 1.035392
v -2.489954 17.000000 1.031373
v -2.695107 17.000000 -0.000000
f 349 350 351
f 349 351 352
v -2.519947 13.600000 1.043796
v -1.928684 13.600000 1.928684
v -1.905729 17.000000 1.905729
v -2.489954 17.000000 1.031373
f 353 354 355
f 353 355 356
v -1.928684 13.600000 1.928684
v -1.043796 13.600000 2.519947
v -1.031373 17.000000 2.489954
v -1.905729 17.000000 1.905729
f 357 358 359
f 357 359 360
v -1.043796 13.600000 2.519947
v -0.000000 13.600000 2.727571
v -0.000000 17.000000 2.695107
v -1.031373 17.000000 2.489954
f 361 362 363
f 361 363 364
v -0.000000 13.600000 2.727571
v 1.043796 13.600000 2.519947
v 1.040142 14.600000 2.511126
v -0.000000 14.600000 2.718023
f 365 366 367
f 365 367 368
v -0.000000 15.900000 2.705610
v 1.035392 15.900000 2.499658
v 1.031373 17.000000 2.489954
v -0.000000 17.000000 2.695107
f 369 370 371
f 369 371 372
v 1.043796 13.600000 2.519947
v 1.928684 13.600000 1.928684
v 1.905729 17.000000 1.905729
v 1.031373 17.000000 2.489954
f 373 374 375
f 373 375 376
v 1.928684 13.600000 1.928684
v 2.519947 13.600000 1.043796
v 2.489954 17.000000 1.031373
v 1.905729 17.000000 1.905729
f 377 378 379
f 377 379 380
v 2.519947 13.600000 1.043796
v 2.727571 13.600000 -0.000000
v 2.719032 14.494271 -0.000000
v 2.512058 14.494271 1.040529
f 381 382 383
f 381 383 384
