o part_0
v 0.000000 0.000000 0.015000
v 0.008817 0.000000 0.012135
v 0.014266 0.000000 0.004635
v 0.014266 0.000000 -0.004635
v 0.008817 0.000000 -0.012135
v 0.000000 0.000000 -0.015000
v -0.008817 0.000000 -0.012135
v -0.014266 0.000000 -0.004635
v -0.014266 0.000000 0.004635
v -0.008817 0.000000 0.012135
v 0.000000 0.400000 0.010200
v 0.005995 0.400000 0.008252
v 0.009701 0.400000 0.003152
v 0.009701 0.400000 -0.003152
v 0.005995 0.400000 -0.008252
v 0.000000 0.400000 -0.010200
v -0.005995 0.400000 -0.008252
v -0.009701 0.400000 -0.003152
v -0.009701 0.400000 0.003152
v -0.005995 0.400000 0.008252
f 1 2 12
f 1 12 11
f 2 3 13
f 2 13 12
f 3 4 14
f 3 14 13
f 4 5 15
f 4 15 14
f 5 6 16
f 5 16 15
f 6 7 17
f 6 17 16
f 7 8 18
f 7 18 17
f 8 9 19
f 8 19 18
f 9 10 20
f 9 20 19
f 10 1 11
f 10 11 20
o part_1
v -0.001101 0.400000 0.010140
v 0.002495 0.404934 0.008571
v 0.005139 0.407983 0.003729
v 0.005819 0.407983 -0.002539
v 0.004277 0.404934 -0.007836
v 0.001101 0.400000 -0.010140
v -0.002495 0.395066 -0.008571
v -0.005139 0.392017 -0.003729
v -0.005819 0.392017 0.002539
v -0.004277 0.395066 0.007836
v -0.244892 0.569527 -0.019618
v -0.242446 0.572882 -0.020685
v -0.240649 0.574956 -0.023978
v -0.240186 0.574956 -0.028240
v -0.241234 0.572882 -0.031842
v -0.243394 0.569527 -0.033409
v -0.245840 0.566172 -0.032342
v -0.247637 0.564099 -0.029049
v -0.248100 0.564099 -0.024787
v -0.247051 0.566172 -0.021185
f 21 22 32
f 21 32 31
f 22 23 33
f 22 33 32
f 23 24 34
f 23 34 33
f 24 25 35
f 24 35 34
f 25 26 36
f 25 36 35
f 26 27 37
f 26 37 36
f 27 28 38
f 27 38 37
f 28 29 39
f 28 39 38
f 29 30 40
f 29 40 39
f 30 21 31
f 30 31 40
o part_2
v -0.245965 0.569527 -0.019821
v -0.247289 0.573218 -0.021555
v -0.247410 0.575499 -0.025182
v -0.246284 0.575499 -0.029318
v -0.244340 0.573218 -0.032383
v -0.242320 0.569527 -0.033206
v -0.240997 0.565837 -0.031472
v -0.240875 0.563556 -0.027845
v -0.242002 0.563556 -0.023709
v -0.243946 0.565837 -0.020644
v -0.464993 0.462689 -0.081774
v -0.465893 0.465199 -0.082952
v -0.465976 0.466750 -0.085419
v -0.465210 0.466750 -0.088232
v -0.463888 0.465199 -0.090316
v -0.462514 0.462689 -0.090875
v -0.461614 0.460180 -0.089696
v -0.461532 0.458629 -0.087230
v -0.462298 0.458629 -0.084417
v -0.463620 0.460180 -0.082333
f 41 42 52
f 41 52 51
f 42 43 53
f 42 53 52
f 43 44 54
f 43 54 53
f 44 45 55
f 44 55 54
f 45 46 56
f 45 56 55
f 46 47 57
f 46 57 56
f 47 48 58
f 47 58 57
f 48 49 59
f 48 59 58
f 49 50 60
f 49 60 59
f 50 41 51
f 50 51 60
o part_3
v -0.463754 0.463950 -0.090869
v -0.461025 0.463238 -0.090132
v -0.459338 0.462317 -0.087940
v -0.459338 0.461538 -0.085131
v -0.461025 0.461198 -0.082778
v -0.463754 0.461429 -0.081779
v -0.466483 0.462140 -0.082517
v -0.468169 0.463062 -0.084709
v -0.468169 0.463841 -0.087517
v -0.466483 0.464180 -0.089871
v -0.499871 0.269234 -0.143307
v -0.498015 0.268750 -0.142806
v -0.496868 0.268123 -0.141316
v -0.496868 0.267593 -0.139406
v -0.498015 0.267363 -0.137805
v -0.499871 0.267519 -0.137126
v -0.501726 0.268003 -0.137628
v -0.502873 0.268630 -0.139118
v -0.502873 0.269159 -0.141028
v -0.501726 0.269390 -0.142628
f 61 62 72
f 61 72 71
f 62 63 73
f 62 73 72
f 63 64 74
f 63 74 73
f 64 65 75
f 64 75 74
f 65 66 76
f 65 76 75
f 66 67 77
f 66 77 76
f 67 68 78
f 67 78 77
f 68 69 79
f 68 79 78
f 69 70 80
f 69 80 79
f 70 61 71
f 70 71 80
o part_4
v -0.499871 0.268376 -0.140217
v -0.498566 0.270226 -0.141968
v -0.496656 0.271910 -0.143528
v -0.494061 0.273407 -0.144874
v -0.490825 0.274729 -0.146018
v -0.487084 0.275914 -0.147004
v -0.483039 0.277015 -0.147894
v -0.478934 0.278100 -0.148764
v -0.475026 0.279239 -0.149698
v -0.471566 0.280500 -0.150771
v -0.468765 0.281941 -0.152052
v -0.466778 0.283604 -0.153588
v -0.465686 0.285511 -0.155406
v -0.465490 0.287663 -0.157505
v -0.466107 0.290038 -0.159860
v -0.467384 0.292592 -0.162421
v -0.469108 0.295268 -0.165124
v -0.471030 0.297998 -0.167888
v -0.472891 0.300712 -0.170634
v -0.474449 0.303343 -0.173283
v -0.475501 0.305836 -0.175774
v -0.475913 0.308154 -0.178065
v -0.475639 0.310285 -0.180139
v -0.474760 0.312250 -0.182024
v -0.476065 0.310401 -0.180273
v -0.477975 0.308717 -0.178712
v -0.480570 0.307220 -0.177367
v -0.483806 0.305897 -0.176223
v -0.487547 0.304713 -0.175237
v -0.491592 0.303612 -0.174347
v -0.495697 0.302527 -0.173476
v -0.499605 0.301388 -0.172543
v -0.503065 0.300127 -0.171470
v -0.505866 0.298686 -0.170189
v -0.507853 0.297023 -0.168652
v -0.508945 0.295115 -0.166835
v -0.509141 0.292963 -0.164736
v -0.508524 0.290589 -0.162381
v -0.507247 0.288035 -0.159819
v -0.505523 0.285359 -0.157117
v -0.503601 0.282628 -0.154353
v -0.501740 0.279915 -0.151607
v -0.500182 0.277284 -0.148957
v -0.499130 0.274791 -0.146466
v -0.498718 0.272473 -0.144176
v -0.498992 0.270342 -0.142101
f 81 82 83
f 81 83 82
f 81 83 84
f 81 84 83
f 81 84 85
f 81 85 84
f 81 85 86
f 81 86 85
f 81 86 87
f 81 87 86
f 81 87 88
f 81 88 87
f 81 88 89
f 81 89 88
f 81 89 90
f 81 90 89
f 81 90 91
f 81 91 90
f 81 91 92
f 81 92 91
f 81 92 93
f 81 93 92
f 81 93 94
f 81 94 93
f 81 94 95
f 81 95 94
f 81 95 96
f 81 96 95
f 81 96 97
f 81 97 96
f 81 97 98
f 81 98 97
f 81 98 99
f 81 99 98
f 81 99 100
f 81 100 99
f 81 100 101
f 81 101 100
f 81 101 102
f 81 102 101
f 81 102 103
f 81 103 102
f 81 103 104
f 81 104 103
f 81 104 105
f 81 105 104
f 81 105 106
f 81 106 105
f 81 106 107
f 81 107 106
f 81 107 108
f 81 108 107
f 81 108 109
f 81 109 108
f 81 109 110
f 81 110 109
f 81 110 111
f 81 111 110
f 81 111 112
f 81 112 111
f 81 112 113
f 81 113 112
f 81 113 114
f 81 114 113
f 81 114 115
f 81 115 114
f 81 115 116
f 81 116 115
f 81 116 117
f 81 117 116
f 81 117 118
f 81 118 117
f 81 118 119
f 81 119 118
f 81 119 120
f 81 120 119
f 81 120 121
f 81 121 120
f 81 121 122
f 81 122 121
f 81 122 123
f 81 123 122
f 81 123 124
f 81 124 123
f 81 124 125
f 81 125 124
f 81 125 126
f 81 126 125
o part_5
v -0.499871 0.268376 -0.140217
v -0.500465 0.269407 -0.136974
v -0.501576 0.270565 -0.133847
v -0.503468 0.271916 -0.130892
v -0.506235 0.273484 -0.128130
v -0.509811 0.275252 -0.125549
v -0.513986 0.277168 -0.123100
v -0.518438 0.279152 -0.120712
v -0.522777 0.281109 -0.118299
v -0.526597 0.282937 -0.115771
v -0.529535 0.284547 -0.113048
v -0.531316 0.285871 -0.110069
v -0.531792 0.286872 -0.106800
v -0.530965 0.287551 -0.103243
v -0.528980 0.287944 -0.099429
v -0.526113 0.288118 -0.095419
v -0.522727 0.288164 -0.091295
v -0.519228 0.288182 -0.087146
v -0.516006 0.288269 -0.083057
v -0.513384 0.288503 -0.079102
v -0.511570 0.288938 -0.075326
v -0.510631 0.289589 -0.071744
v -0.510473 0.290434 -0.068335
v -0.510832 0.291406 -0.065040
v -0.510238 0.290376 -0.068283
v -0.509127 0.289217 -0.071411
v -0.507235 0.287866 -0.074366
v -0.504468 0.286298 -0.077127
v -0.500892 0.284531 -0.079709
v -0.496717 0.282614 -0.082158
v -0.492265 0.280630 -0.084545
v -0.487926 0.278673 -0.086958
v -0.484106 0.276845 -0.089486
v -0.481168 0.275235 -0.092209
v -0.479387 0.273911 -0.095189
v -0.478911 0.272910 -0.098457
v -0.479738 0.272231 -0.102015
v -0.481723 0.271839 -0.105828
v -0.484590 0.271664 -0.109838
v -0.487976 0.271618 -0.113962
v -0.491475 0.271600 -0.118112
v -0.494697 0.271514 -0.122200
v -0.497319 0.271279 -0.126155
v -0.499133 0.270844 -0.129931
v -0.500072 0.270193 -0.133513
v -0.500230 0.269349 -0.136922
f 127 128 129
f 127 129 128
f 127 129 130
f 127 130 129
f 127 130 131
f 127 131 130
f 127 131 132
f 127 132 131
f 127 132 133
f 127 133 132
f 127 133 134
f 127 134 133
f 127 134 135
f 127 135 134
f 127 135 136
f 127 136 135
f 127 136 137
f 127 137 136
f 127 137 138
f 127 138 137
f 127 138 139
f 127 139 138
f 127 139 140
f 127 140 139
f 127 140 141
f 127 141 140
f 127 141 142
f 127 142 141
f 127 142 143
f 127 143 142
f 127 143 144
f 127 144 143
f 127 144 145
f 127 145 144
f 127 145 146
f 127 146 145
f 127 146 147
f 127 147 146
f 127 147 148
f 127 148 147
f 127 148 149
f 127 149 148
f 127 149 150
f 127 150 149
f 127 150 151
f 127 151 150
f 127 151 152
f 127 152 151
f 127 152 153
f 127 153 152
f 127 153 154
f 127 154 153
f 127 154 155
f 127 155 154
f 127 155 156
f 127 156 155
f 127 156 157
f 127 157 156
f 127 157 158
f 127 158 157
f 127 158 159
f 127 159 158
f 127 159 160
f 127 160 159
f 127 160 161
f 127 161 160
f 127 161 162
f 127 162 161
f 127 162 163
f 127 163 162
f 127 163 164
f 127 164 163
f 127 164 165
f 127 165 164
f 127 165 166
f 127 166 165
f 127 166 167
f 127 167 166
f 127 167 168
f 127 168 167
f 127 168 169
f 127 169 168
f 127 169 170
f 127 170 169
f 127 170 171
f 127 171 170
f 127 171 172
f 127 172 171
o part_6
v 0.000515 0.400000 -0.010187
v -0.003852 0.404204 -0.008457
v -0.006748 0.406802 -0.003497
v -0.007067 0.406802 0.002799
v -0.004686 0.404204 0.008026
v -0.000515 0.400000 0.010187
v 0.003852 0.395796 0.008457
v 0.006748 0.393198 0.003497
v 0.007067 0.393198 -0.002799
v 0.004686 0.395796 -0.008026
v 0.222741 0.626421 0.004321
v 0.219771 0.629280 0.005497
v 0.217801 0.631047 0.008870
v 0.217585 0.631047 0.013151
v 0.219204 0.629280 0.016706
v 0.222040 0.626421 0.018175
v 0.225010 0.623563 0.016999
v 0.226979 0.621796 0.013626
v 0.227196 0.621796 0.009345
v 0.225577 0.623563 0.005791
f 173 174 184
f 173 184 183
f 174 175 185
f 174 185 184
f 175 176 186
f 175 186 185
f 176 177 187
f 176 187 186
f 177 178 188
f 177 188 187
f 178 179 189
f 178 189 188
f 179 180 190
f 179 190 189
f 180 181 191
f 180 191 190
f 181 182 192
f 181 192 191
f 182 173 183
f 182 183 192
o part_7
v 0.221296 0.626421 0.004399
v 0.222214 0.630434 0.005594
v 0.223200 0.632915 0.008948
v 0.223876 0.632915 0.013181
v 0.223985 0.630434 0.016676
v 0.223485 0.626421 0.018097
v 0.222566 0.622408 0.016903
v 0.221581 0.619928 0.013548
v 0.220904 0.619928 0.009315
v 0.220795 0.622408 0.005820
v 0.481169 0.579373 -0.034881
v 0.481793 0.582102 -0.034068
v 0.482463 0.583788 -0.031787
v 0.482923 0.583788 -0.028909
v 0.482997 0.582102 -0.026533
v 0.482657 0.579373 -0.025566
v 0.482033 0.576644 -0.026378
v 0.481362 0.574958 -0.028659
v 0.480902 0.574958 -0.031538
v 0.480828 0.576644 -0.033914
f 193 194 204
f 193 204 203
f 194 195 205
f 194 205 204
f 195 196 206
f 195 206 205
f 196 197 207
f 196 207 206
f 197 198 208
f 197 208 207
f 198 199 209
f 198 209 208
f 199 200 210
f 199 210 209
f 200 201 211
f 200 211 210
f 201 202 212
f 201 212 211
f 202 193 203
f 202 203 212
o part_8
v 0.481913 0.580528 -0.034796
v 0.484596 0.580984 -0.033752
v 0.486254 0.580825 -0.031360
v 0.486254 0.580112 -0.028534
v 0.484596 0.579116 -0.026353
v 0.481913 0.578219 -0.025650
v 0.479230 0.577762 -0.026695
v 0.477572 0.577921 -0.029087
v 0.477572 0.578635 -0.031913
v 0.479230 0.579630 -0.034094
v 0.534841 0.382951 -0.083118
v 0.536665 0.383262 -0.082408
v 0.537793 0.383154 -0.080781
v 0.537793 0.382669 -0.078860
v 0.536665 0.381992 -0.077377
v 0.534841 0.381381 -0.076899
v 0.533017 0.381071 -0.077609
v 0.531889 0.381179 -0.079236
v 0.531889 0.381664 -0.081158
v 0.533017 0.382341 -0.082641
f 213 214 224
f 213 224 223
f 214 215 225
f 214 225 224
f 215 216 226
f 215 226 225
f 216 217 227
f 216 227 226
f 217 218 228
f 217 228 227
f 218 219 229
f 218 229 228
f 219 220 230
f 219 230 229
f 220 221 231
f 220 231 230
f 221 222 232
f 221 232 231
f 222 213 223
f 222 223 232
o part_9
v 0.534841 0.382166 -0.080009
v 0.534816 0.383877 -0.082510
v 0.535487 0.385764 -0.084973
v 0.536921 0.387846 -0.087395
v 0.539052 0.390105 -0.089780
v 0.541723 0.392502 -0.092135
v 0.544709 0.394979 -0.094473
v 0.547743 0.397469 -0.096808
v 0.550547 0.399900 -0.099156
v 0.552852 0.402203 -0.101531
v 0.554433 0.404323 -0.103945
v 0.555125 0.406216 -0.106407
v 0.554843 0.407860 -0.108922
v 0.553586 0.409257 -0.111491
v 0.551440 0.410427 -0.114107
v 0.548570 0.411413 -0.116763
v 0.545202 0.412271 -0.119445
v 0.541602 0.413071 -0.122141
v 0.538051 0.413884 -0.124833
v 0.534816 0.414776 -0.127509
v 0.532120 0.415806 -0.130155
v 0.530122 0.417014 -0.132763
v 0.528886 0.418416 -0.135330
v 0.528346 0.419995 -0.137860
v 0.528370 0.418285 -0.135358
v 0.527699 0.416397 -0.132895
v 0.526266 0.414315 -0.130473
v 0.524135 0.412056 -0.128088
v 0.521464 0.409659 -0.125733
v 0.518478 0.407182 -0.123395
v 0.515443 0.404692 -0.121060
v 0.512640 0.402262 -0.118712
v 0.510335 0.399958 -0.116337
v 0.508754 0.397839 -0.113923
v 0.508061 0.395945 -0.111461
v 0.508344 0.394301 -0.108946
v 0.509601 0.392904 -0.106377
v 0.511747 0.391734 -0.103761
v 0.514617 0.390749 -0.101105
v 0.517985 0.389890 -0.098423
v 0.521585 0.389090 -0.095727
v 0.525135 0.388278 -0.093035
v 0.528371 0.387385 -0.090359
v 0.531067 0.386355 -0.087713
v 0.533065 0.385147 -0.085105
v 0.534301 0.383745 -0.082538
f 233 234 235
f 233 235 234
f 233 235 236
f 233 236 235
f 233 236 237
f 233 237 236
f 233 237 238
f 233 238 237
f 233 238 239
f 233 239 238
f 233 239 240
f 233 240 239
f 233 240 241
f 233 241 240
f 233 241 242
f 233 242 241
f 233 242 243
f 233 243 242
f 233 243 244
f 233 244 243
f 233 244 245
f 233 245 244
f 233 245 246
f 233 246 245
f 233 246 247
f 233 247 246
f 233 247 248
f 233 248 247
f 233 248 249
f 233 249 248
f 233 249 250
f 233 250 249
f 233 250 251
f 233 251 250
f 233 251 252
f 233 252 251
f 233 252 253
f 233 253 252
f 233 253 254
f 233 254 253
f 233 254 255
f 233 255 254
f 233 255 256
f 233 256 255
f 233 256 257
f 233 257 256
f 233 257 258
f 233 258 257
f 233 258 259
f 233 259 258
f 233 259 260
f 233 260 259
f 233 260 261
f 233 261 260
f 233 261 262
f 233 262 261
f 233 262 263
f 233 263 262
f 233 263 264
f 233 264 263
f 233 264 265
f 233 265 264
f 233 265 266
f 233 266 265
f 233 266 267
f 233 267 266
f 233 267 268
f 233 268 267
f 233 268 269
f 233 269 268
f 233 269 270
f 233 270 269
f 233 270 271
f 233 271 270
f 233 271 272
f 233 272 271
f 233 272 273
f 233 273 272
f 233 273 274
f 233 274 273
f 233 274 275
f 233 275 274
f 233 275 276
f 233 276 275
f 233 276 277
f 233 277 276
f 233 277 278
f 233 278 277
o part_10
v 0.534841 0.382166 -0.080009
v 0.533963 0.383005 -0.076797
v 0.532759 0.383773 -0.073650
v 0.530903 0.384398 -0.070634
v 0.528170 0.384833 -0.067792
v 0.524498 0.385063 -0.065139
v 0.520017 0.385116 -0.062647
v 0.515037 0.385061 -0.060255
v 0.510000 0.384993 -0.057875
v 0.505412 0.385024 -0.055404
v 0.501757 0.385257 -0.052747
v 0.499412 0.385776 -0.049829
v 0.498583 0.386625 -0.046607
v 0.499270 0.387805 -0.043082
v 0.501267 0.389271 -0.039296
v 0.504197 0.390939 -0.035323
v 0.507575 0.392705 -0.031260
v 0.510898 0.394460 -0.027209
v 0.513721 0.396105 -0.023257
v 0.515734 0.397574 -0.019467
v 0.516809 0.398838 -0.015865
v 0.517007 0.399911 -0.012438
v 0.516553 0.400842 -0.009142
v 0.515773 0.401702 -0.005910
v 0.516651 0.400864 -0.009122
v 0.517855 0.400096 -0.012269
v 0.519711 0.399470 -0.015285
v 0.522444 0.399036 -0.018126
v 0.526116 0.398806 -0.020780
v 0.530597 0.398753 -0.023271
v 0.535577 0.398808 -0.025663
v 0.540614 0.398876 -0.028044
v 0.545202 0.398845 -0.030514
v 0.548857 0.398612 -0.033171
v 0.551202 0.398093 -0.036090
v 0.552031 0.397243 -0.039312
v 0.551344 0.396063 -0.042836
v 0.549347 0.394598 -0.046623
v 0.546418 0.392930 -0.050596
v 0.543039 0.391163 -0.054658
v 0.539716 0.389409 -0.058710
v 0.536893 0.387764 -0.062661
v 0.534880 0.386295 -0.066451
v 0.533805 0.385031 -0.070054
v 0.533607 0.383957 -0.073481
v 0.534061 0.383026 -0.076777
f 279 280 281
f 279 281 280
f 279 281 282
f 279 282 281
f 279 282 283
f 279 283 282
f 279 283 284
f 279 284 283
f 279 284 285
f 279 285 284
f 279 285 286
f 279 286 285
f 279 286 287
f 279 287 286
f 279 287 288
f 279 288 287
f 279 288 289
f 279 289 288
f 279 289 290
f 279 290 289
f 279 290 291
f 279 291 290
f 279 291 292
f 279 292 291
f 279 292 293
f 279 293 292
f 279 293 294
f 279 294 293
f 279 294 295
f 279 295 294
f 279 295 296
f 279 296 295
f 279 296 297
f 279 297 296
f 279 297 298
f 279 298 297
f 279 298 299
f 279 299 298
f 279 299 300
f 279 300 299
f 279 300 301
f 279 301 300
f 279 301 302
f 279 302 301
f 279 302 303
f 279 303 302
f 279 303 304
f 279 304 303
f 279 304 305
f 279 305 304
f 279 305 306
f 279 306 305
f 279 306 307
f 279 307 306
f 279 307 308
f 279 308 307
f 279 308 309
f 279 309 308
f 279 309 310
f 279 310 309
f 279 310 311
f 279 311 310
f 279 311 312
f 279 312 311
f 279 312 313
f 279 313 312
f 279 313 314
f 279 314 313
f 279 314 315
f 279 315 314
f 279 315 316
f 279 316 315
f 279 316 317
f 279 317 316
f 279 317 318
f 279 318 317
f 279 318 319
f 279 319 318
f 279 319 320
f 279 320 319
f 279 320 321
f 279 321 320
f 279 321 322
f 279 322 321
f 279 322 323
f 279 323 322
f 279 323 324
f 279 324 323
