o mesh
v -0.800098 3.150000 2.604381
v -0.257459 3.150000 2.712319
v -0.195030 1.860912 2.398468
v -0.737670 1.860912 2.290530
f 1 2 3
f 1 3 4
v 2.392651 3.150000 -1.297790
v 2.114629 3.150000 -1.713879
v 1.848559 2.127907 -1.536096
v 2.126581 2.127907 -1.120007
f 5 6 7
f 5 7 8
v -2.402410 3.150000 1.283184
v -2.104870 3.150000 1.728484
v -1.838800 1.661233 1.550702
v -2.136340 1.661233 1.105402
f 9 10 11
f 9 11 12
v -1.727909 3.150000 2.105255
v -1.283759 3.150000 2.402026
v -1.105977 2.071249 2.135956
v -1.550127 2.071249 1.839184
f 13 14 15
f 13 15 16
v 2.075683 6.550000 1.696032
v 2.361258 6.550000 1.268638
v 2.095188 5.636360 1.090855
v 1.809613 5.636360 1.518249
f 17 18 19
f 17 19 20
v -2.662755 6.550000 0.289819
v -2.570974 6.550000 0.751234
v -2.257123 5.613991 0.688805
v -2.348904 5.613991 0.227390
f 21 22 23
f 21 23 24
v -2.617514 9.950000 0.300450
v -2.533244 9.950000 0.724100
v -2.219393 8.995401 0.661671
v -2.303662 8.995401 0.238021
f 25 26 27
f 25 27 28
v 2.321467 9.950000 -1.252055
v 2.045135 9.950000 -1.665615
v 1.779065 8.829156 -1.487832
v 2.055397 8.829156 -1.074273
f 29 30 31
f 29 31 32
v 0.268793 9.950000 2.623811
v 0.755756 9.950000 2.526948
v 0.693328 8.624265 2.213096
v 0.206364 8.624265 2.309959
f 33 34 35
f 33 35 36
