o part_0
v 0.000000 0.000000 0.035000
v 0.016490 0.000000 0.022697
v 0.028878 0.000000 0.009383
v 0.028878 0.000000 -0.009383
v 0.016490 0.000000 -0.022697
v 0.000000 0.000000 -0.035000
v -0.016490 0.000000 -0.022697
v -0.028878 0.000000 -0.009383
v -0.028878 0.000000 0.009383
v -0.016490 0.000000 0.022697
v 0.000000 0.600000 0.031500
v 0.014841 0.600000 0.020427
v 0.025990 0.600000 0.008445
v 0.025990 0.600000 -0.008445
v 0.014841 0.600000 -0.020427
v 0.000000 0.600000 -0.031500
v -0.014841 0.600000 -0.020427
v -0.025990 0.600000 -0.008445
v -0.025990 0.600000 0.008445
v -0.014841 0.600000 0.020427
f 1 2 12
f 1 12 11
f 2 3 13
f 2 13 12
f 3 4 14
f 3 14 13
f 4 5 15
f 4 15 14
f 5 6 16
f 5 16 15
f 6 7 17
f 6 17 16
f 7 8 18
f 7 18 17
f 8 9 19
f 8 19 18
f 9 10 20
f 9 20 19
f 10 1 11
f 10 11 20
o part_1
v 0.000000 0.600620 0.031494
v 0.014803 0.601475 0.020402
v 0.025922 0.602045 0.008406
v 0.025922 0.601712 -0.008480
v 0.014803 0.600670 -0.020445
v 0.000000 0.599380 -0.031494
v -0.014803 0.598525 -0.020402
v -0.025922 0.597955 -0.008406
v -0.025922 0.598288 0.008480
v -0.014803 0.599330 0.020445
v -0.034539 1.077033 0.018962
v -0.021217 1.077802 0.008979
v -0.011209 1.078315 -0.001817
v -0.011209 1.078016 -0.017015
v -0.021217 1.077078 -0.027783
v -0.034539 1.075917 -0.037727
v -0.047862 1.075148 -0.027745
v -0.057869 1.074635 -0.016948
v -0.057869 1.074934 -0.001751
v -0.047862 1.075872 0.009017
f 21 22 32
f 21 32 31
f 22 23 33
f 22 33 32
f 23 24 34
f 23 34 33
f 24 25 35
f 24 35 34
f 25 26 36
f 25 36 35
f 26 27 37
f 26 37 36
f 27 28 38
f 27 38 37
f 28 29 39
f 28 39 38
f 29 30 40
f 29 40 39
f 30 21 31
f 30 31 40
o part_2
v -0.034539 1.076475 -0.009383
v -0.033398 1.075620 -0.005206
v -0.031088 1.074846 -0.001180
v -0.027653 1.074151 0.002702
v -0.023270 1.073522 0.006461
v -0.018212 1.072941 0.010133
v -0.012813 1.072383 0.013761
v -0.007444 1.071824 0.017394
v -0.002476 1.071236 0.021078
v 0.001745 1.070596 0.024858
v 0.004935 1.069884 0.028771
v 0.006888 1.069085 0.032843
v 0.007497 1.068193 0.037088
v 0.006763 1.067206 0.041507
v 0.004792 1.066133 0.046085
v 0.001790 1.064988 0.050796
v -0.001958 1.063790 0.055603
v -0.006108 1.062565 0.060461
v -0.010288 1.061337 0.065324
v -0.014128 1.060133 0.070143
v -0.017292 1.058977 0.074874
v -0.019508 1.057887 0.079484
v -0.020599 1.056875 0.083948
v -0.020521 1.055945 0.088262
v -0.021662 1.056801 0.084085
v -0.023972 1.057574 0.080059
v -0.027407 1.058269 0.076178
v -0.031790 1.058898 0.072418
v -0.036849 1.059479 0.068746
v -0.042248 1.060037 0.065118
v -0.047617 1.060597 0.061486
v -0.052584 1.061184 0.057802
v -0.056805 1.061824 0.054022
v -0.059995 1.062536 0.050109
v -0.061948 1.063335 0.046037
v -0.062557 1.064228 0.041791
v -0.061823 1.065214 0.037373
v -0.059853 1.066287 0.032795
v -0.056850 1.067432 0.028084
v -0.053102 1.068630 0.023277
v -0.048952 1.069855 0.018418
v -0.044772 1.071083 0.013556
v -0.040932 1.072287 0.008737
v -0.037769 1.073443 0.004005
v -0.035552 1.074534 -0.000604
v -0.034461 1.075545 -0.005069
f 41 42 43
f 41 43 42
f 41 43 44
f 41 44 43
f 41 44 45
f 41 45 44
f 41 45 46
f 41 46 45
f 41 46 47
f 41 47 46
f 41 47 48
f 41 48 47
f 41 48 49
f 41 49 48
f 41 49 50
f 41 50 49
f 41 50 51
f 41 51 50
f 41 51 52
f 41 52 51
f 41 52 53
f 41 53 52
f 41 53 54
f 41 54 53
f 41 54 55
f 41 55 54
f 41 55 56
f 41 56 55
f 41 56 57
f 41 57 56
f 41 57 58
f 41 58 57
f 41 58 59
f 41 59 58
f 41 59 60
f 41 60 59
f 41 60 61
f 41 61 60
f 41 61 62
f 41 62 61
f 41 62 63
f 41 63 62
f 41 63 64
f 41 64 63
f 41 64 65
f 41 65 64
f 41 65 66
f 41 66 65
f 41 66 67
f 41 67 66
f 41 67 68
f 41 68 67
f 41 68 69
f 41 69 68
f 41 69 70
f 41 70 69
f 41 70 71
f 41 71 70
f 41 71 72
f 41 72 71
f 41 72 73
f 41 73 72
f 41 73 74
f 41 74 73
f 41 74 75
f 41 75 74
f 41 75 76
f 41 76 75
f 41 76 77
f 41 77 76
f 41 77 78
f 41 78 77
f 41 78 79
f 41 79 78
f 41 79 80
f 41 80 79
f 41 80 81
f 41 81 80
f 41 81 82
f 41 82 81
f 41 82 83
f 41 83 82
f 41 83 84
f 41 84 83
f 41 84 85
f 41 85 84
f 41 85 86
f 41 86 85
o part_3
v -0.034539 1.076475 -0.009383
v -0.030577 1.074769 -0.006379
v -0.026039 1.073092 -0.004054
v -0.020674 1.071455 -0.002704
v -0.014411 1.069863 -0.002414
v -0.007336 1.068310 -0.003081
v 0.000322 1.066787 -0.004435
v 0.008231 1.065275 -0.006085
v 0.015995 1.063757 -0.007565
v 0.023214 1.062212 -0.008401
v 0.029527 1.060622 -0.008170
v 0.034666 1.058974 -0.006554
v 0.038488 1.057261 -0.003385
v 0.040993 1.055484 0.001338
v 0.042324 1.053648 0.007445
v 0.042750 1.051768 0.014620
v 0.042630 1.049861 0.022439
v 0.042366 1.047947 0.030427
v 0.042352 1.046046 0.038120
v 0.042921 1.044173 0.045126
v 0.044302 1.042340 0.051175
v 0.046581 1.040551 0.056163
v 0.049688 1.038803 0.060176
v 0.053370 1.037084 0.063511
v 0.049407 1.038790 0.060508
v 0.044870 1.040467 0.058182
v 0.039505 1.042104 0.056832
v 0.033241 1.043696 0.056542
v 0.026166 1.045248 0.057209
v 0.018508 1.046772 0.058564
v 0.010600 1.048283 0.060213
v 0.002835 1.049802 0.061694
v -0.004383 1.051347 0.062530
v -0.010696 1.052937 0.062298
v -0.015836 1.054585 0.060683
v -0.019658 1.056298 0.057513
v -0.022163 1.058075 0.052790
v -0.023494 1.059911 0.046683
v -0.023920 1.061791 0.039509
v -0.023799 1.063697 0.031690
v -0.023535 1.065611 0.023701
v -0.023521 1.067513 0.016008
v -0.024091 1.069386 0.009003
v -0.025471 1.071219 0.002954
v -0.027751 1.073007 -0.002035
v -0.030857 1.074755 -0.006048
f 87 88 89
f 87 89 88
f 87 89 90
f 87 90 89
f 87 90 91
f 87 91 90
f 87 91 92
f 87 92 91
f 87 92 93
f 87 93 92
f 87 93 94
f 87 94 93
f 87 94 95
f 87 95 94
f 87 95 96
f 87 96 95
f 87 96 97
f 87 97 96
f 87 97 98
f 87 98 97
f 87 98 99
f 87 99 98
f 87 99 100
f 87 100 99
f 87 100 101
f 87 101 100
f 87 101 102
f 87 102 101
f 87 102 103
f 87 103 102
f 87 103 104
f 87 104 103
f 87 104 105
f 87 105 104
f 87 105 106
f 87 106 105
f 87 106 107
f 87 107 106
f 87 107 108
f 87 108 107
f 87 108 109
f 87 109 108
f 87 109 110
f 87 110 109
f 87 110 111
f 87 111 110
f 87 111 112
f 87 112 111
f 87 112 113
f 87 113 112
f 87 113 114
f 87 114 113
f 87 114 115
f 87 115 114
f 87 115 116
f 87 116 115
f 87 116 117
f 87 117 116
f 87 117 118
f 87 118 117
f 87 118 119
f 87 119 118
f 87 119 120
f 87 120 119
f 87 120 121
f 87 121 120
f 87 121 122
f 87 122 121
f 87 122 123
f 87 123 122
f 87 123 124
f 87 124 123
f 87 124 125
f 87 125 124
f 87 125 126
f 87 126 125
f 87 126 127
f 87 127 126
f 87 127 128
f 87 128 127
f 87 128 129
f 87 129 128
f 87 129 130
f 87 130 129
f 87 130 131
f 87 131 130
f 87 131 132
f 87 132 131
o part_4
v -0.034539 1.076475 -0.009383
v -0.033128 1.073925 -0.013858
v -0.032917 1.071278 -0.018798
v -0.033998 1.068528 -0.024239
v -0.036246 1.065684 -0.030133
v -0.039390 1.062769 -0.036374
v -0.043046 1.059812 -0.042814
v -0.046768 1.056851 -0.049280
v -0.050089 1.053921 -0.055589
v -0.052565 1.051059 -0.061572
v -0.053822 1.048295 -0.067081
v -0.053588 1.045650 -0.072012
v -0.051720 1.043136 -0.076310
v -0.048218 1.040753 -0.079975
v -0.043226 1.038490 -0.083061
v -0.037014 1.036324 -0.085675
v -0.029957 1.034226 -0.087961
v -0.022499 1.032160 -0.090091
v -0.015107 1.030089 -0.092247
v -0.008228 1.027977 -0.094602
v -0.002244 1.025792 -0.097304
v 0.002573 1.023515 -0.100458
v 0.006097 1.021134 -0.104114
v 0.008422 1.018657 -0.108234
v 0.007011 1.021207 -0.103759
v 0.006800 1.023854 -0.098819
v 0.007881 1.026604 -0.093378
v 0.010129 1.029447 -0.087484
v 0.013272 1.032363 -0.081243
v 0.016929 1.035319 -0.074803
v 0.020651 1.038281 -0.068338
v 0.023972 1.041211 -0.062028
v 0.026448 1.044072 -0.056046
v 0.027705 1.046837 -0.050536
v 0.027471 1.049481 -0.045605
v 0.025603 1.051995 -0.041307
v 0.022101 1.054378 -0.037643
v 0.017109 1.056642 -0.034556
v 0.010897 1.058807 -0.031943
v 0.003840 1.060906 -0.029657
v -0.003618 1.062971 -0.027526
v -0.011010 1.065043 -0.025370
v -0.017889 1.067155 -0.023015
v -0.023873 1.069339 -0.020314
v -0.028690 1.071617 -0.017159
v -0.032215 1.073998 -0.013504
f 133 134 135
f 133 135 134
f 133 135 136
f 133 136 135
f 133 136 137
f 133 137 136
f 133 137 138
f 133 138 137
f 133 138 139
f 133 139 138
f 133 139 140
f 133 140 139
f 133 140 141
f 133 141 140
f 133 141 142
f 133 142 141
f 133 142 143
f 133 143 142
f 133 143 144
f 133 144 143
f 133 144 145
f 133 145 144
f 133 145 146
f 133 146 145
f 133 146 147
f 133 147 146
f 133 147 148
f 133 148 147
f 133 148 149
f 133 149 148
f 133 149 150
f 133 150 149
f 133 150 151
f 133 151 150
f 133 151 152
f 133 152 151
f 133 152 153
f 133 153 152
f 133 153 154
f 133 154 153
f 133 154 155
f 133 155 154
f 133 155 156
f 133 156 155
f 133 156 157
f 133 157 156
f 133 157 158
f 133 158 157
f 133 158 159
f 133 159 158
f 133 159 160
f 133 160 159
f 133 160 161
f 133 161 160
f 133 161 162
f 133 162 161
f 133 162 163
f 133 163 162
f 133 163 164
f 133 164 163
f 133 164 165
f 133 165 164
f 133 165 166
f 133 166 165
f 133 166 167
f 133 167 166
f 133 167 168
f 133 168 167
f 133 168 169
f 133 169 168
f 133 169 170
f 133 170 169
f 133 170 171
f 133 171 170
f 133 171 172
f 133 172 171
f 133 172 173
f 133 173 172
f 133 173 174
f 133 174 173
f 133 174 175
f 133 175 174
f 133 175 176
f 133 176 175
f 133 176 177
f 133 177 176
f 133 177 178
f 133 178 177
o part_5
v -0.034539 1.076475 -0.009383
v -0.037543 1.073705 -0.011616
v -0.040858 1.070920 -0.013433
v -0.044755 1.068109 -0.014472
v -0.049400 1.065263 -0.014510
v -0.054820 1.062381 -0.013513
v -0.060883 1.059470 -0.011654
v -0.067323 1.056541 -0.009292
v -0.073772 1.053612 -0.006917
v -0.079824 1.050701 -0.005074
v -0.085094 1.047827 -0.004276
v -0.089286 1.045002 -0.004920
v -0.092238 1.042234 -0.007223
v -0.093950 1.039523 -0.011184
v -0.094583 1.036863 -0.016587
v -0.094436 1.034238 -0.023035
v -0.093890 1.031632 -0.030016
v -0.093354 1.029025 -0.036983
v -0.093194 1.026401 -0.043447
v -0.093679 1.023747 -0.049050
v -0.094937 1.021057 -0.053618
v -0.096944 1.018333 -0.057184
v -0.099533 1.015582 -0.059973
v -0.102433 1.012817 -0.062344
v -0.099429 1.015587 -0.060111
v -0.096114 1.018371 -0.058294
v -0.092217 1.021183 -0.057255
v -0.087572 1.024029 -0.057218
v -0.082153 1.026910 -0.058215
v -0.076089 1.029822 -0.060073
v -0.069650 1.032750 -0.062435
v -0.063200 1.035679 -0.064810
v -0.057148 1.038590 -0.066654
v -0.051878 1.041465 -0.067451
v -0.047686 1.044290 -0.066807
v -0.044734 1.047058 -0.064505
v -0.043022 1.049768 -0.060543
v -0.042389 1.052429 -0.055140
v -0.042537 1.055054 -0.048692
v -0.043082 1.057660 -0.041711
v -0.043618 1.060267 -0.034744
v -0.043778 1.062891 -0.028280
v -0.043293 1.065545 -0.022678
v -0.042035 1.068234 -0.018110
v -0.040028 1.070959 -0.014543
v -0.037439 1.073710 -0.011755
f 179 180 181
f 179 181 180
f 179 181 182
f 179 182 181
f 179 182 183
f 179 183 182
f 179 183 184
f 179 184 183
f 179 184 185
f 179 185 184
f 179 185 186
f 179 186 185
f 179 186 187
f 179 187 186
f 179 187 188
f 179 188 187
f 179 188 189
f 179 189 188
f 179 189 190
f 179 190 189
f 179 190 191
f 179 191 190
f 179 191 192
f 179 192 191
f 179 192 193
f 179 193 192
f 179 193 194
f 179 194 193
f 179 194 195
f 179 195 194
f 179 195 196
f 179 196 195
f 179 196 197
f 179 197 196
f 179 197 198
f 179 198 197
f 179 198 199
f 179 199 198
f 179 199 200
f 179 200 199
f 179 200 201
f 179 201 200
f 179 201 202
f 179 202 201
f 179 202 203
f 179 203 202
f 179 203 204
f 179 204 203
f 179 204 205
f 179 205 204
f 179 205 206
f 179 206 205
f 179 206 207
f 179 207 206
f 179 207 208
f 179 208 207
f 179 208 209
f 179 209 208
f 179 209 210
f 179 210 209
f 179 210 211
f 179 211 210
f 179 211 212
f 179 212 211
f 179 212 213
f 179 213 212
f 179 213 214
f 179 214 213
f 179 214 215
f 179 215 214
f 179 215 216
f 179 216 215
f 179 216 217
f 179 217 216
f 179 217 218
f 179 218 217
f 179 218 219
f 179 219 218
f 179 219 220
f 179 220 219
f 179 220 221
f 179 221 220
f 179 221 222
f 179 222 221
f 179 222 223
f 179 223 222
f 179 223 224
f 179 224 223
o part_6
v -0.034539 1.076475 -0.009383
v -0.039740 1.074489 -0.008060
v -0.044746 1.072539 -0.005675
v -0.049492 1.070635 -0.001880
v -0.053971 1.068779 0.003373
v -0.058218 1.066965 0.009887
v -0.062306 1.065179 0.017263
v -0.066336 1.063404 0.024955
v -0.070422 1.061619 0.032342
v -0.074678 1.059803 0.038805
v -0.079205 1.057938 0.043799
v -0.084075 1.056012 0.046919
v -0.089330 1.054017 0.047951
v -0.094968 1.051953 0.046894
v -0.100951 1.049827 0.043964
v -0.107203 1.047652 0.039564
v -0.113626 1.045447 0.034240
v -0.120105 1.043232 0.028611
v -0.126525 1.041027 0.023300
v -0.132788 1.038851 0.018849
v -0.138818 1.036717 0.015659
v -0.144580 1.034630 0.013927
v -0.150083 1.032590 0.013606
v -0.155391 1.030586 0.014346
v -0.150191 1.032571 0.013023
v -0.145185 1.034522 0.010639
v -0.140438 1.036426 0.006844
v -0.135960 1.038281 0.001590
v -0.131713 1.040096 -0.004924
v -0.127625 1.041881 -0.012299
v -0.123594 1.043657 -0.019991
v -0.119508 1.045442 -0.027379
v -0.115252 1.047258 -0.033842
v -0.110726 1.049122 -0.038835
v -0.105855 1.051048 -0.041955
v -0.100601 1.053044 -0.042987
v -0.094963 1.055108 -0.041930
v -0.088980 1.057234 -0.039000
v -0.082727 1.059408 -0.034601
v -0.076304 1.061613 -0.029276
v -0.069826 1.063828 -0.023648
v -0.063405 1.066033 -0.018336
v -0.057143 1.068209 -0.013885
v -0.051113 1.070344 -0.010695
v -0.045350 1.072430 -0.008964
v -0.039847 1.074470 -0.008643
f 225 226 227
f 225 227 226
f 225 227 228
f 225 228 227
f 225 228 229
f 225 229 228
f 225 229 230
f 225 230 229
f 225 230 231
f 225 231 230
f 225 231 232
f 225 232 231
f 225 232 233
f 225 233 232
f 225 233 234
f 225 234 233
f 225 234 235
f 225 235 234
f 225 235 236
f 225 236 235
f 225 236 237
f 225 237 236
f 225 237 238
f 225 238 237
f 225 238 239
f 225 239 238
f 225 239 240
f 225 240 239
f 225 240 241
f 225 241 240
f 225 241 242
f 225 242 241
f 225 242 243
f 225 243 242
f 225 243 244
f 225 244 243
f 225 244 245
f 225 245 244
f 225 245 246
f 225 246 245
f 225 246 247
f 225 247 246
f 225 247 248
f 225 248 247
f 225 248 249
f 225 249 248
f 225 249 250
f 225 250 249
f 225 250 251
f 225 251 250
f 225 251 252
f 225 252 251
f 225 252 253
f 225 253 252
f 225 253 254
f 225 254 253
f 225 254 255
f 225 255 254
f 225 255 256
f 225 256 255
f 225 256 257
f 225 257 256
f 225 257 258
f 225 258 257
f 225 258 259
f 225 259 258
f 225 259 260
f 225 260 259
f 225 260 261
f 225 261 260
f 225 261 262
f 225 262 261
f 225 262 263
f 225 263 262
f 225 263 264
f 225 264 263
f 225 264 265
f 225 265 264
f 225 265 266
f 225 266 265
f 225 266 267
f 225 267 266
f 225 267 268
f 225 268 267
f 225 268 269
f 225 269 268
f 225 269 270
f 225 270 269
o part_7
v -0.034539 1.077092 0.018960
v -0.021386 1.079202 0.008947
v -0.011506 1.080715 -0.001873
v -0.011506 1.080385 -0.017070
v -0.021386 1.078402 -0.027814
v -0.034539 1.075858 -0.037726
v -0.047692 1.073748 -0.027713
v -0.057573 1.072235 -0.016893
v -0.057573 1.072565 -0.001696
v -0.047692 1.074548 0.009048
v -0.099075 1.441624 0.008195
v -0.087237 1.443523 -0.000818
v -0.078345 1.444885 -0.010556
v -0.078345 1.444588 -0.024233
v -0.087237 1.442803 -0.033902
v -0.099075 1.440514 -0.042823
v -0.110912 1.438615 -0.033811
v -0.119805 1.437252 -0.024073
v -0.119805 1.437550 -0.010396
v -0.110912 1.439334 -0.000727
f 271 272 282
f 271 282 281
f 272 273 283
f 272 283 282
f 273 274 284
f 273 284 283
f 274 275 285
f 274 285 284
f 275 276 286
f 275 286 285
f 276 277 287
f 276 287 286
f 277 278 288
f 277 288 287
f 278 279 289
f 278 289 288
f 279 280 290
f 279 290 289
f 280 271 281
f 280 281 290
o part_8
v -0.099075 1.441069 -0.017314
v -0.098091 1.440224 -0.011779
v -0.096164 1.439545 -0.006346
v -0.092881 1.439102 -0.001058
v -0.088124 1.438916 0.004071
v -0.082039 1.438963 0.009056
v -0.074998 1.439176 0.013938
v -0.067548 1.439461 0.018777
v -0.060333 1.439705 0.023640
v -0.054014 1.439792 0.028600
v -0.049178 1.439620 0.033721
v -0.046265 1.439113 0.039048
v -0.045511 1.438228 0.044608
v -0.046916 1.436966 0.050401
v -0.050244 1.435369 0.056401
v -0.055056 1.433512 0.062561
v -0.060763 1.431499 0.068818
v -0.066705 1.429444 0.075100
v -0.072238 1.427462 0.081337
v -0.076816 1.425646 0.087472
v -0.080065 1.424062 0.093464
v -0.081840 1.422736 0.099297
v -0.082259 1.421646 0.104983
v -0.081735 1.420721 0.110568
v -0.082720 1.421566 0.105033
v -0.084647 1.422245 0.099599
v -0.087930 1.422688 0.094312
v -0.092686 1.422874 0.089183
v -0.098771 1.422827 0.084198
v -0.105812 1.422614 0.079315
v -0.113263 1.422329 0.074477
v -0.120477 1.422085 0.069613
v -0.126797 1.421998 0.064653
v -0.131633 1.422170 0.059533
v -0.134545 1.422677 0.054206
v -0.135299 1.423562 0.048646
v -0.133894 1.424824 0.042853
v -0.130566 1.426421 0.036853
v -0.125754 1.428278 0.030693
v -0.120048 1.430291 0.024436
v -0.114105 1.432345 0.018154
v -0.108572 1.434328 0.011916
v -0.103994 1.436144 0.005781
v -0.100746 1.437728 -0.000210
v -0.098970 1.439054 -0.006043
v -0.098551 1.440144 -0.011730
f 291 292 293
f 291 293 292
f 291 293 294
f 291 294 293
f 291 294 295
f 291 295 294
f 291 295 296
f 291 296 295
f 291 296 297
f 291 297 296
f 291 297 298
f 291 298 297
f 291 298 299
f 291 299 298
f 291 299 300
f 291 300 299
f 291 300 301
f 291 301 300
f 291 301 302
f 291 302 301
f 291 302 303
f 291 303 302
f 291 303 304
f 291 304 303
f 291 304 305
f 291 305 304
f 291 305 306
f 291 306 305
f 291 306 307
f 291 307 306
f 291 307 308
f 291 308 307
f 291 308 309
f 291 309 308
f 291 309 310
f 291 310 309
f 291 310 311
f 291 311 310
f 291 311 312
f 291 312 311
f 291 312 313
f 291 313 312
f 291 313 314
f 291 314 313
f 291 314 315
f 291 315 314
f 291 315 316
f 291 316 315
f 291 316 317
f 291 317 316
f 291 317 318
f 291 318 317
f 291 318 319
f 291 319 318
f 291 319 320
f 291 320 319
f 291 320 321
f 291 321 320
f 291 321 322
f 291 322 321
f 291 322 323
f 291 323 322
f 291 323 324
f 291 324 323
f 291 324 325
f 291 325 324
f 291 325 326
f 291 326 325
f 291 326 327
f 291 327 326
f 291 327 328
f 291 328 327
f 291 328 329
f 291 329 328
f 291 329 330
f 291 330 329
f 291 330 331
f 291 331 330
f 291 331 332
f 291 332 331
f 291 332 333
f 291 333 332
f 291 333 334
f 291 334 333
f 291 334 335
f 291 335 334
f 291 335 336
f 291 336 335
o part_9
v -0.099075 1.441069 -0.017314
v -0.094570 1.439489 -0.017770
v -0.090030 1.437886 -0.019522
v -0.085459 1.436263 -0.022506
v -0.080860 1.434622 -0.026520
v -0.076242 1.432968 -0.031262
v -0.071615 1.431308 -0.036365
v -0.066989 1.429649 -0.041425
v -0.062374 1.427998 -0.046038
v -0.057782 1.426361 -0.049834
v -0.053218 1.424743 -0.052501
v -0.048690 1.423148 -0.053821
v -0.044201 1.421578 -0.053676
v -0.039750 1.420033 -0.052067
v -0.035335 1.418511 -0.049110
v -0.030949 1.417008 -0.045025
v -0.026584 1.415520 -0.040122
v -0.022232 1.414039 -0.034772
v -0.017880 1.412559 -0.029379
v -0.013519 1.411072 -0.024348
v -0.009139 1.409573 -0.020045
v -0.004732 1.408057 -0.016771
v -0.000292 1.406519 -0.014730
v 0.004181 1.404960 -0.013984
v -0.000324 1.406540 -0.013528
v -0.004863 1.408142 -0.011776
v -0.009435 1.409766 -0.008792
v -0.014033 1.411407 -0.004779
v -0.018651 1.413060 -0.000037
v -0.023278 1.414720 0.005066
v -0.027904 1.416379 0.010126
v -0.032519 1.418031 0.014740
v -0.037112 1.419668 0.018535
v -0.041675 1.421286 0.021203
v -0.046203 1.422881 0.022522
v -0.050692 1.424451 0.022377
v -0.055143 1.425996 0.020769
v -0.059559 1.427518 0.017811
v -0.063945 1.429020 0.013726
v -0.068309 1.430509 0.008823
v -0.072662 1.431990 0.003473
v -0.077013 1.433470 -0.001919
v -0.081374 1.434956 -0.006951
v -0.085754 1.436455 -0.011254
v -0.090162 1.437972 -0.014527
v -0.094601 1.439509 -0.016569
f 337 338 339
f 337 339 338
f 337 339 340
f 337 340 339
f 337 340 341
f 337 341 340
f 337 341 342
f 337 342 341
f 337 342 343
f 337 343 342
f 337 343 344
f 337 344 343
f 337 344 345
f 337 345 344
f 337 345 346
f 337 346 345
f 337 346 347
f 337 347 346
f 337 347 348
f 337 348 347
f 337 348 349
f 337 349 348
f 337 349 350
f 337 350 349
f 337 350 351
f 337 351 350
f 337 351 352
f 337 352 351
f 337 352 353
f 337 353 352
f 337 353 354
f 337 354 353
f 337 354 355
f 337 355 354
f 337 355 356
f 337 356 355
f 337 356 357
f 337 357 356
f 337 357 358
f 337 358 357
f 337 358 359
f 337 359 358
f 337 359 360
f 337 360 359
f 337 360 361
f 337 361 360
f 337 361 362
f 337 362 361
f 337 362 363
f 337 363 362
f 337 363 364
f 337 364 363
f 337 364 365
f 337 365 364
f 337 365 366
f 337 366 365
f 337 366 367
f 337 367 366
f 337 367 368
f 337 368 367
f 337 368 369
f 337 369 368
f 337 369 370
f 337 370 369
f 337 370 371
f 337 371 370
f 337 371 372
f 337 372 371
f 337 372 373
f 337 373 372
f 337 373 374
f 337 374 373
f 337 374 375
f 337 375 374
f 337 375 376
f 337 376 375
f 337 376 377
f 337 377 376
f 337 377 378
f 337 378 377
f 337 378 379
f 337 379 378
f 337 379 380
f 337 380 379
f 337 380 381
f 337 381 380
f 337 381 382
f 337 382 381
o part_10
v -0.099075 1.441069 -0.017314
v -0.097548 1.439000 -0.021189
v -0.096564 1.436832 -0.025239
v -0.096530 1.434488 -0.029599
v -0.097670 1.431929 -0.034339
v -0.099984 1.429153 -0.039460
v -0.103245 1.426203 -0.044889
v -0.107028 1.423157 -0.050487
v -0.110774 1.420118 -0.056073
v -0.113876 1.417197 -0.061450
v -0.115770 1.414499 -0.066435
v -0.116021 1.412103 -0.070886
v -0.114396 1.410053 -0.074729
v -0.110895 1.408348 -0.077962
v -0.105752 1.406945 -0.080663
v -0.099400 1.405764 -0.082971
v -0.092404 1.404702 -0.085070
v -0.085372 1.403647 -0.087157
v -0.078861 1.402496 -0.089414
v -0.073297 1.401170 -0.091977
v -0.068907 1.399629 -0.094922
v -0.065692 1.397871 -0.098248
v -0.063426 1.395938 -0.101883
v -0.061703 1.393906 -0.105694
v -0.063229 1.395975 -0.101819
v -0.064214 1.398143 -0.097769
v -0.064247 1.400487 -0.093410
v -0.063107 1.403046 -0.088669
v -0.060793 1.405822 -0.083548
v -0.057532 1.408771 -0.078119
v -0.053750 1.411817 -0.072521
v -0.050003 1.414857 -0.066935
v -0.046901 1.417777 -0.061558
v -0.045008 1.420475 -0.056573
v -0.044756 1.422871 -0.052122
v -0.046381 1.424922 -0.048279
v -0.049883 1.426627 -0.045046
v -0.055026 1.428030 -0.042345
v -0.061377 1.429211 -0.040037
v -0.068373 1.430272 -0.037938
v -0.075406 1.431328 -0.035851
v -0.081916 1.432479 -0.033595
v -0.087480 1.433804 -0.031031
v -0.091870 1.435346 -0.028086
v -0.095086 1.437104 -0.024760
v -0.097351 1.439036 -0.021125
f 383 384 385
f 383 385 384
f 383 385 386
f 383 386 385
f 383 386 387
f 383 387 386
f 383 387 388
f 383 388 387
f 383 388 389
f 383 389 388
f 383 389 390
f 383 390 389
f 383 390 391
f 383 391 390
f 383 391 392
f 383 392 391
f 383 392 393
f 383 393 392
f 383 393 394
f 383 394 393
f 383 394 395
f 383 395 394
f 383 395 396
f 383 396 395
f 383 396 397
f 383 397 396
f 383 397 398
f 383 398 397
f 383 398 399
f 383 399 398
f 383 399 400
f 383 400 399
f 383 400 401
f 383 401 400
f 383 401 402
f 383 402 401
f 383 402 403
f 383 403 402
f 383 403 404
f 383 404 403
f 383 404 405
f 383 405 404
f 383 405 406
f 383 406 405
f 383 406 407
f 383 407 406
f 383 407 408
f 383 408 407
f 383 408 409
f 383 409 408
f 383 409 410
f 383 410 409
f 383 410 411
f 383 411 410
f 383 411 412
f 383 412 411
f 383 412 413
f 383 413 412
f 383 413 414
f 383 414 413
f 383 414 415
f 383 415 414
f 383 415 416
f 383 416 415
f 383 416 417
f 383 417 416
f 383 417 418
f 383 418 417
f 383 418 419
f 383 419 418
f 383 419 420
f 383 420 419
f 383 420 421
f 383 421 420
f 383 421 422
f 383 422 421
f 383 422 423
f 383 423 422
f 383 423 424
f 383 424 423
f 383 424 425
f 383 425 424
f 383 425 426
f 383 426 425
f 383 426 427
f 383 427 426
f 383 427 428
f 383 428 427
o part_11
v -0.099075 1.441069 -0.017314
v -0.099944 1.439964 -0.021463
v -0.101184 1.438796 -0.025522
v -0.103214 1.437493 -0.029390
v -0.106349 1.435999 -0.032990
v -0.110706 1.434296 -0.036295
v -0.116149 1.432406 -0.039337
v -0.122293 1.430395 -0.042209
v -0.128564 1.428363 -0.045050
v -0.134287 1.426425 -0.048024
v -0.138812 1.424693 -0.051288
v -0.141625 1.423255 -0.054967
v -0.142444 1.422159 -0.059127
v -0.141268 1.421406 -0.063771
v -0.138380 1.420947 -0.068829
v -0.134294 1.420693 -0.074176
v -0.129661 1.420534 -0.079656
v -0.125154 1.420353 -0.085106
v -0.121348 1.420051 -0.090386
v -0.118629 1.419563 -0.095403
v -0.117130 1.418865 -0.100124
v -0.116738 1.417977 -0.104578
v -0.117136 1.416954 -0.108841
v -0.117903 1.415867 -0.113014
v -0.117034 1.416972 -0.108865
v -0.115794 1.418140 -0.104806
v -0.113764 1.419443 -0.100938
v -0.110629 1.420937 -0.097338
v -0.106272 1.422640 -0.094034
v -0.100829 1.424530 -0.090992
v -0.094685 1.426541 -0.088120
v -0.088414 1.428573 -0.085278
v -0.082691 1.430511 -0.082304
v -0.078166 1.432243 -0.079040
v -0.075353 1.433681 -0.075362
v -0.074535 1.434777 -0.071201
v -0.075710 1.435530 -0.066557
v -0.078598 1.435989 -0.061500
v -0.082684 1.436243 -0.056152
v -0.087317 1.436402 -0.050672
v -0.091824 1.436583 -0.045222
v -0.095630 1.436885 -0.039943
v -0.098350 1.437373 -0.034926
v -0.099848 1.438071 -0.030204
v -0.100240 1.438958 -0.025750
v -0.099843 1.439982 -0.021488
f 429 430 431
f 429 431 430
f 429 431 432
f 429 432 431
f 429 432 433
f 429 433 432
f 429 433 434
f 429 434 433
f 429 434 435
f 429 435 434
f 429 435 436
f 429 436 435
f 429 436 437
f 429 437 436
f 429 437 438
f 429 438 437
f 429 438 439
f 429 439 438
f 429 439 440
f 429 440 439
f 429 440 441
f 429 441 440
f 429 441 442
f 429 442 441
f 429 442 443
f 429 443 442
f 429 443 444
f 429 444 443
f 429 444 445
f 429 445 444
f 429 445 446
f 429 446 445
f 429 446 447
f 429 447 446
f 429 447 448
f 429 448 447
f 429 448 449
f 429 449 448
f 429 449 450
f 429 450 449
f 429 450 451
f 429 451 450
f 429 451 452
f 429 452 451
f 429 452 453
f 429 453 452
f 429 453 454
f 429 454 453
f 429 454 455
f 429 455 454
f 429 455 456
f 429 456 455
f 429 456 457
f 429 457 456
f 429 457 458
f 429 458 457
f 429 458 459
f 429 459 458
f 429 459 460
f 429 460 459
f 429 460 461
f 429 461 460
f 429 461 462
f 429 462 461
f 429 462 463
f 429 463 462
f 429 463 464
f 429 464 463
f 429 464 465
f 429 465 464
f 429 465 466
f 429 466 465
f 429 466 467
f 429 467 466
f 429 467 468
f 429 468 467
f 429 468 469
f 429 469 468
f 429 469 470
f 429 470 469
f 429 470 471
f 429 471 470
f 429 471 472
f 429 472 471
f 429 472 473
f 429 473 472
f 429 473 474
f 429 474 473
o part_12
v -0.099075 1.441069 -0.017314
v -0.102444 1.437757 -0.016382
v -0.105736 1.434467 -0.015080
v -0.108858 1.431226 -0.012942
v -0.111728 1.428056 -0.009582
v -0.114312 1.424966 -0.004828
v -0.116635 1.421951 0.001201
v -0.118781 1.418985 0.008089
v -0.120885 1.416032 0.015181
v -0.123108 1.413044 0.021692
v -0.125610 1.409979 0.026849
v -0.128515 1.406798 0.030041
v -0.131893 1.403484 0.030927
v -0.135744 1.400036 0.029508
v -0.140000 1.396474 0.026122
v -0.144533 1.392833 0.021384
v -0.149185 1.389158 0.016064
v -0.153795 1.385496 0.010948
v -0.158230 1.381883 0.006691
v -0.162402 1.378344 0.003710
v -0.166288 1.374886 0.002121
v -0.169923 1.371499 0.001755
v -0.173387 1.368161 0.002226
v -0.176775 1.364844 0.003066
v -0.173406 1.368156 0.002133
v -0.170113 1.371445 0.000832
v -0.166992 1.374687 -0.001307
v -0.164122 1.377857 -0.004667
v -0.161537 1.380947 -0.009421
v -0.159215 1.383962 -0.015450
v -0.157069 1.386927 -0.022338
v -0.154965 1.389881 -0.029430
v -0.152741 1.392868 -0.035940
v -0.150240 1.395934 -0.041098
v -0.147335 1.399115 -0.044290
v -0.143957 1.402429 -0.045176
v -0.140105 1.405877 -0.043757
v -0.135850 1.409439 -0.040371
v -0.131317 1.413080 -0.035632
v -0.126665 1.416755 -0.030313
v -0.122054 1.420417 -0.025197
v -0.117620 1.424030 -0.020940
v -0.113448 1.427569 -0.017959
v -0.109561 1.431027 -0.016370
v -0.105926 1.434414 -0.016004
v -0.102463 1.437752 -0.016475
f 475 476 477
f 475 477 476
f 475 477 478
f 475 478 477
f 475 478 479
f 475 479 478
f 475 479 480
f 475 480 479
f 475 480 481
f 475 481 480
f 475 481 482
f 475 482 481
f 475 482 483
f 475 483 482
f 475 483 484
f 475 484 483
f 475 484 485
f 475 485 484
f 475 485 486
f 475 486 485
f 475 486 487
f 475 487 486
f 475 487 488
f 475 488 487
f 475 488 489
f 475 489 488
f 475 489 490
f 475 490 489
f 475 490 491
f 475 491 490
f 475 491 492
f 475 492 491
f 475 492 493
f 475 493 492
f 475 493 494
f 475 494 493
f 475 494 495
f 475 495 494
f 475 495 496
f 475 496 495
f 475 496 497
f 475 497 496
f 475 497 498
f 475 498 497
f 475 498 499
f 475 499 498
f 475 499 500
f 475 500 499
f 475 500 501
f 475 501 500
f 475 501 502
f 475 502 501
f 475 502 503
f 475 503 502
f 475 503 504
f 475 504 503
f 475 504 505
f 475 505 504
f 475 505 506
f 475 506 505
f 475 506 507
f 475 507 506
f 475 507 508
f 475 508 507
f 475 508 509
f 475 509 508
f 475 509 510
f 475 510 509
f 475 510 511
f 475 511 510
f 475 511 512
f 475 512 511
f 475 512 513
f 475 513 512
f 475 513 514
f 475 514 513
f 475 514 515
f 475 515 514
f 475 515 516
f 475 516 515
f 475 516 517
f 475 517 516
f 475 517 518
f 475 518 517
f 475 518 519
f 475 519 518
f 475 519 520
f 475 520 519
