o mesh
v 1.286387 0.900000 -4.626139
v 0.228669 0.900000 -4.231507
v 0.228669 2.600000 -4.231507
v 1.286387 2.600000 -4.626139
f 1 2 3
f 1 3 4
v 1.286387 2.600000 -4.626139
v 0.228669 2.600000 -4.231507
v 0.228669 5.200000 -4.231507
v 1.286387 5.200000 -4.626139
f 5 6 7
f 5 7 8
v 1.286387 5.200000 -4.626139
v 0.228669 5.200000 -4.231507
v 0.228669 7.800000 -4.231507
v 1.286387 7.800000 -4.626139
f 9 10 11
f 9 11 12
v -2.944485 0.900000 -3.047614
v -4.002204 0.900000 -2.652983
v -4.002204 2.600000 -2.652983
v -2.944485 2.600000 -3.047614
f 13 14 15
f 13 15 16
v -2.944485 2.600000 -3.047614
v -4.002204 2.600000 -2.652983
v -4.002204 5.200000 -2.652983
v -2.944485 5.200000 -3.047614
f 17 18 19
f 17 19 20
v -2.944485 5.200000 -3.047614
v -4.002204 5.200000 -2.652983
v -4.002204 7.800000 -2.652983
v -2.944485 7.800000 -3.047614
f 21 22 23
f 21 23 24
v -4.002204 0.900000 -2.652983
v -3.953740 0.900000 -1.525085
v -3.953740 2.600000 -1.525085
v -4.002204 2.600000 -2.652983
f 25 26 27
f 25 27 28
v -4.002204 2.600000 -2.652983
v -3.953740 2.600000 -1.525085
v -3.953740 5.200000 -1.525085
v -4.002204 5.200000 -2.652983
f 29 30 31
f 29 31 32
v -4.002204 5.200000 -2.652983
v -3.953740 5.200000 -1.525085
v -3.953740 7.800000 -1.525085
v -4.002204 7.800000 -2.652983
f 33 34 35
f 33 35 36
v -3.808349 0.900000 1.858608
v -3.759885 0.900000 2.986505
v -3.759885 2.600000 2.986505
v -3.808349 2.600000 1.858608
f 37 38 39
f 37 39 40
v -3.808349 2.600000 1.858608
v -3.759885 2.600000 2.986505
v -3.759885 5.200000 2.986505
v -3.808349 5.200000 1.858608
f 41 42 43
f 41 43 44
v -3.808349 5.200000 1.858608
v -3.759885 5.200000 2.986505
v -3.759885 7.800000 2.986505
v -3.808349 7.800000 1.858608
f 45 46 47
f 45 47 48
v -3.759885 0.900000 2.986505
v -2.672215 0.900000 3.288953
v -2.672215 2.600000 3.288953
v -3.759885 2.600000 2.986505
f 49 50 51
f 49 51 52
v -3.759885 2.600000 2.986505
v -2.672215 2.600000 3.288953
v -2.672215 5.200000 3.288953
v -3.759885 5.200000 2.986505
f 53 54 55
f 53 55 56
v -3.759885 5.200000 2.986505
v -2.672215 5.200000 3.288953
v -2.672215 7.800000 3.288953
v -3.759885 7.800000 2.986505
f 57 58 59
f 57 59 60
v 0.590796 0.900000 4.196297
v 1.678467 0.900000 4.498744
v 1.678467 2.600000 4.498744
v 0.590796 2.600000 4.196297
f 61 62 63
f 61 63 64
v 0.590796 2.600000 4.196297
v 1.678467 2.600000 4.498744
v 1.678467 5.200000 4.498744
v 0.590796 5.200000 4.196297
f 65 66 67
f 65 67 68
v 0.590796 5.200000 4.196297
v 1.678467 5.200000 4.498744
v 1.678467 7.800000 4.498744
v 0.590796 7.800000 4.196297
f 69 70 71
f 69 71 72
v 1.678467 0.900000 4.498744
v 2.302220 0.900000 3.557770
v 2.302220 2.600000 3.557770
v 1.678467 2.600000 4.498744
f 73 74 75
f 73 75 76
v 1.678467 2.600000 4.498744
v 2.302220 2.600000 3.557770
v 2.302220 5.200000 3.557770
v 1.678467 5.200000 4.498744
f 77 78 79
f 77 79 80
v 1.678467 5.200000 4.498744
v 2.302220 5.200000 3.557770
v 2.302220 7.800000 3.557770
v 1.678467 7.800000 4.498744
f 81 82 83
f 81 83 84
v 2.302220 0.900000 3.557770
v 2.925974 0.900000 2.616795
v 2.925974 2.600000 2.616795
v 2.302220 2.600000 3.557770
f 85 86 87
f 85 87 88
v 2.302220 2.600000 3.557770
v 2.925974 2.600000 2.616795
v 2.925974 5.200000 2.616795
v 2.302220 5.200000 3.557770
f 89 90 91
f 89 91 92
v 2.302220 5.200000 3.557770
v 2.925974 5.200000 2.616795
v 2.925974 7.800000 2.616795
v 2.302220 7.800000 3.557770
f 93 94 95
f 93 95 96
v 2.925974 3.064469 2.616795
v 3.549728 3.064469 1.675821
v 3.549728 2.600000 1.675821
v 2.925974 2.600000 2.616795
f 97 98 99
f 97 99 100
v 3.237851 2.500000 2.146308
v 2.925974 2.500000 2.616795
v 2.949714 2.716013 2.580982
f 101 102 103
v 3.237851 2.500000 2.146308
v 2.949714 2.716013 2.580982
v 3.017321 2.899140 2.478993
f 104 105 106
v 3.237851 2.500000 2.146308
v 3.017321 2.899140 2.478993
v 3.118501 3.021501 2.326356
f 107 108 109
v 3.237851 2.500000 2.146308
v 3.118501 3.021501 2.326356
v 3.237851 3.064469 2.146308
f 110 111 112
v 3.237851 2.500000 2.146308
v 3.237851 3.064469 2.146308
v 3.357201 3.021501 1.966260
f 113 114 115
v 3.237851 2.500000 2.146308
v 3.357201 3.021501 1.966260
v 3.458381 2.899140 1.813623
f 116 117 118
v 3.237851 2.500000 2.146308
v 3.458381 2.899140 1.813623
v 3.525987 2.716013 1.711634
f 119 120 121
v 3.237851 2.500000 2.146308
v 3.525987 2.716013 1.711634
v 3.549728 2.500000 1.675821
f 122 123 124
v 2.925974 2.600000 2.616795
v 3.549728 2.600000 1.675821
v 3.549728 5.200000 1.675821
v 2.925974 5.200000 2.616795
f 125 126 127
f 125 127 128
v 2.925974 5.200000 2.616795
v 3.549728 5.200000 1.675821
v 3.549728 7.800000 1.675821
v 2.925974 7.800000 2.616795
f 129 130 131
f 129 131 132
v 3.549728 0.900000 1.675821
v 4.173481 0.900000 0.734846
v 4.173481 2.600000 0.734846
v 3.549728 2.600000 1.675821
f 133 134 135
f 133 135 136
v 3.549728 2.600000 1.675821
v 4.173481 2.600000 0.734846
v 4.173481 5.200000 0.734846
v 3.549728 5.200000 1.675821
f 137 138 139
f 137 139 140
v 3.549728 5.200000 1.675821
v 4.173481 5.200000 0.734846
v 4.173481 7.800000 0.734846
v 3.549728 7.800000 1.675821
f 141 142 143
f 141 143 144
v 4.173481 0.900000 0.734846
v 4.797235 0.900000 -0.206128
v 4.797235 2.600000 -0.206128
v 4.173481 2.600000 0.734846
f 145 146 147
f 145 147 148
v 4.173481 2.600000 0.734846
v 4.797235 2.600000 -0.206128
v 4.797235 5.200000 -0.206128
v 4.173481 5.200000 0.734846
f 149 150 151
f 149 151 152
v 4.173481 5.200000 0.734846
v 4.797235 5.200000 -0.206128
v 4.797235 7.800000 -0.206128
v 4.173481 7.800000 0.734846
f 153 154 155
f 153 155 156
v 4.797235 0.900000 -0.206128
v 4.095065 0.900000 -1.090130
v 4.095065 2.600000 -1.090130
v 4.797235 2.600000 -0.206128
f 157 158 159
f 157 159 160
v 4.797235 2.600000 -0.206128
v 4.095065 2.600000 -1.090130
v 4.095065 5.200000 -1.090130
v 4.797235 5.200000 -0.206128
f 161 162 163
f 161 163 164
v 4.797235 5.200000 -0.206128
v 4.095065 5.200000 -1.090130
v 4.095065 7.800000 -1.090130
v 4.797235 7.800000 -0.206128
f 165 166 167
f 165 167 168
v 1.988557 0.900000 -3.742137
v 1.286387 0.900000 -4.626139
v 1.286387 2.600000 -4.626139
v 1.988557 2.600000 -3.742137
f 169 170 171
f 169 171 172
v 1.988557 2.600000 -3.742137
v 1.286387 2.600000 -4.626139
v 1.286387 5.200000 -4.626139
v 1.988557 5.200000 -3.742137
f 173 174 175
f 173 175 176
v 1.988557 5.200000 -3.742137
v 1.286387 5.200000 -4.626139
v 1.286387 7.800000 -4.626139
v 1.988557 7.800000 -3.742137
f 177 178 179
f 177 179 180
v 1.286387 7.800000 -4.626139
v 0.228669 7.800000 -4.231507
v 0.212662 8.803547 -3.935302
v 1.196340 8.803547 -4.302309
f 181 182 183
f 181 183 184
v 0.228669 7.800000 -4.231507
v -0.829049 7.800000 -3.836876
v -0.771016 8.803547 -3.568295
v 0.212662 8.803547 -3.935302
f 185 186 187
f 185 187 188
v -0.829049 7.800000 -3.836876
v -1.886767 7.800000 -3.442245
v -1.754694 8.803547 -3.201288
v -0.771016 8.803547 -3.568295
f 189 190 191
f 189 191 192
v -1.886767 7.800000 -3.442245
v -2.944485 7.800000 -3.047614
v -2.738372 8.803547 -2.834281
v -1.754694 8.803547 -3.201288
f 193 194 195
f 193 195 196
v -2.944485 7.800000 -3.047614
v -4.002204 7.800000 -2.652983
v -3.722049 8.803547 -2.467274
v -2.738372 8.803547 -2.834281
f 197 198 199
f 197 199 200
v -4.002204 7.800000 -2.652983
v -3.953740 7.800000 -1.525085
v -3.676978 8.803547 -1.418329
v -3.722049 8.803547 -2.467274
f 201 202 203
f 201 203 204
v -3.953740 7.800000 -1.525085
v -3.905276 7.800000 -0.397187
v -3.631907 8.803547 -0.369384
v -3.676978 8.803547 -1.418329
f 205 206 207
f 205 207 208
v -3.905276 7.800000 -0.397187
v -3.856813 7.800000 0.730710
v -3.586836 8.803547 0.679560
v -3.631907 8.803547 -0.369384
f 209 210 211
f 209 211 212
v -3.856813 7.800000 0.730710
v -3.808349 7.800000 1.858608
v -3.541765 8.803547 1.728505
v -3.586836 8.803547 0.679560
f 213 214 215
f 213 215 216
v -3.808349 7.800000 1.858608
v -3.759885 7.800000 2.986505
v -3.496693 8.803547 2.777450
v -3.541765 8.803547 1.728505
f 217 218 219
f 217 219 220
v -3.759885 7.800000 2.986505
v -2.672215 7.800000 3.288953
v -2.485160 8.803547 3.058726
v -3.496693 8.803547 2.777450
f 221 222 223
f 221 223 224
v -2.672215 7.800000 3.288953
v -1.584545 7.800000 3.591401
v -1.473626 8.803547 3.340003
v -2.485160 8.803547 3.058726
f 225 226 227
f 225 227 228
v -1.584545 7.800000 3.591401
v -0.496874 7.800000 3.893849
v -0.462093 8.803547 3.621279
v -1.473626 8.803547 3.340003
f 229 230 231
f 229 231 232
v -0.496874 7.800000 3.893849
v 0.590796 7.800000 4.196297
v 0.549441 8.803547 3.902556
v -0.462093 8.803547 3.621279
f 233 234 235
f 233 235 236
v 0.590796 7.800000 4.196297
v 1.678467 7.800000 4.498744
v 1.560974 8.803547 4.183832
v 0.549441 8.803547 3.902556
f 237 238 239
f 237 239 240
v 1.678467 7.800000 4.498744
v 2.302220 7.800000 3.557770
v 2.141065 8.803547 3.308726
v 1.560974 8.803547 4.183832
f 241 242 243
f 241 243 244
v 2.302220 7.800000 3.557770
v 2.925974 7.800000 2.616795
v 2.721156 8.803547 2.433620
v 2.141065 8.803547 3.308726
f 245 246 247
f 245 247 248
v 2.925974 7.800000 2.616795
v 3.549728 7.800000 1.675821
v 3.301247 8.803547 1.558513
v 2.721156 8.803547 2.433620
f 249 250 251
f 249 251 252
v 3.549728 7.800000 1.675821
v 4.173481 7.800000 0.734846
v 3.881338 8.803547 0.683407
v 3.301247 8.803547 1.558513
f 253 254 255
f 253 255 256
v 4.173481 7.800000 0.734846
v 4.797235 7.800000 -0.206128
v 4.461428 8.803547 -0.191699
v 3.881338 8.803547 0.683407
f 257 258 259
f 257 259 260
v 4.797235 7.800000 -0.206128
v 4.095065 7.800000 -1.090130
v 3.808411 8.803547 -1.013821
v 4.461428 8.803547 -0.191699
f 261 262 263
f 261 263 264
v 4.095065 7.800000 -1.090130
v 3.392896 7.800000 -1.974132
v 3.155393 8.803547 -1.835943
v 3.808411 8.803547 -1.013821
f 265 266 267
f 265 267 268
v 3.392896 7.800000 -1.974132
v 2.690726 7.800000 -2.858135
v 2.502376 8.803547 -2.658065
v 3.155393 8.803547 -1.835943
f 269 270 271
f 269 271 272
v 2.690726 7.800000 -2.858135
v 1.988557 7.800000 -3.742137
v 1.849358 8.803547 -3.480187
v 2.502376 8.803547 -2.658065
f 273 274 275
f 273 275 276
v 1.988557 7.800000 -3.742137
v 1.286387 7.800000 -4.626139
v 1.196340 8.803547 -4.302309
v 1.849358 8.803547 -3.480187
f 277 278 279
f 277 279 280
v 1.196340 8.803547 -4.302309
v 0.212662 8.803547 -3.935302
v 0.178362 9.701458 -3.300576
v 1.003382 9.701458 -3.608388
f 281 282 283
f 281 283 284
v 0.212662 8.803547 -3.935302
v -0.771016 8.803547 -3.568295
v -0.646658 9.701458 -2.992763
v 0.178362 9.701458 -3.300576
f 285 286 287
f 285 287 288
v -0.771016 8.803547 -3.568295
v -1.754694 8.803547 -3.201288
v -1.471678 9.701458 -2.684951
v -0.646658 9.701458 -2.992763
f 289 290 291
f 289 291 292
v -1.754694 8.803547 -3.201288
v -2.738372 8.803547 -2.834281
v -2.296699 9.701458 -2.377139
v -1.471678 9.701458 -2.684951
f 293 294 295
f 293 295 296
v -2.738372 8.803547 -2.834281
v -3.722049 8.803547 -2.467274
v -3.121719 9.701458 -2.069326
v -2.296699 9.701458 -2.377139
f 297 298 299
f 297 299 300
v -3.722049 8.803547 -2.467274
v -3.676978 8.803547 -1.418329
v -3.083917 9.701458 -1.189566
v -3.121719 9.701458 -2.069326
f 301 302 303
f 301 303 304
v -3.676978 8.803547 -1.418329
v -3.631907 8.803547 -0.369384
v -3.046116 9.701458 -0.309806
v -3.083917 9.701458 -1.189566
f 305 306 307
f 305 307 308
v -3.631907 8.803547 -0.369384
v -3.586836 8.803547 0.679560
v -3.008314 9.701458 0.569954
v -3.046116 9.701458 -0.309806
f 309 310 311
f 309 311 312
v -3.586836 8.803547 0.679560
v -3.541765 8.803547 1.728505
v -2.970512 9.701458 1.449714
v -3.008314 9.701458 0.569954
f 313 314 315
f 313 315 316
v -3.541765 8.803547 1.728505
v -3.496693 8.803547 2.777450
v -2.932711 9.701458 2.329474
v -2.970512 9.701458 1.449714
f 317 318 319
f 317 319 320
v -3.496693 8.803547 2.777450
v -2.485160 8.803547 3.058726
v -2.084328 9.701458 2.565383
v -2.932711 9.701458 2.329474
f 321 322 323
f 321 323 324
v -2.485160 8.803547 3.058726
v -1.473626 8.803547 3.340003
v -1.235945 9.701458 2.801293
v -2.084328 9.701458 2.565383
f 325 326 327
f 325 327 328
v -1.473626 8.803547 3.340003
v -0.462093 8.803547 3.621279
v -0.387562 9.701458 3.037202
v -1.235945 9.701458 2.801293
f 329 330 331
f 329 331 332
v -0.462093 8.803547 3.621279
v 0.549441 8.803547 3.902556
v 0.460821 9.701458 3.273111
v -0.387562 9.701458 3.037202
f 333 334 335
f 333 335 336
v 0.549441 8.803547 3.902556
v 1.560974 8.803547 4.183832
v 1.309204 9.701458 3.509021
v 0.460821 9.701458 3.273111
f 337 338 339
f 337 339 340
v 1.560974 8.803547 4.183832
v 2.141065 8.803547 3.308726
v 1.795732 9.701458 2.775060
v 1.309204 9.701458 3.509021
f 341 342 343
f 341 343 344
v 2.141065 8.803547 3.308726
v 2.721156 8.803547 2.433620
v 2.282260 9.701458 2.041100
v 1.795732 9.701458 2.775060
f 345 346 347
f 345 347 348
v 2.721156 8.803547 2.433620
v 3.301247 8.803547 1.558513
v 2.768788 9.701458 1.307140
v 2.282260 9.701458 2.041100
f 349 350 351
f 349 351 352
v 3.301247 8.803547 1.558513
v 3.881338 8.803547 0.683407
v 3.255315 9.701458 0.573180
v 2.768788 9.701458 1.307140
f 353 354 355
f 353 355 356
v 3.881338 8.803547 0.683407
v 4.461428 8.803547 -0.191699
v 3.741843 9.701458 -0.160780
v 3.255315 9.701458 0.573180
f 357 358 359
f 357 359 360
v 4.461428 8.803547 -0.191699
v 3.808411 8.803547 -1.013821
v 3.194151 9.701458 -0.850302
v 3.741843 9.701458 -0.160780
f 361 362 363
f 361 363 364
v 3.808411 8.803547 -1.013821
v 3.155393 8.803547 -1.835943
v 2.646459 9.701458 -1.539823
v 3.194151 9.701458 -0.850302
f 365 366 367
f 365 367 368
v 3.155393 8.803547 -1.835943
v 2.502376 8.803547 -2.658065
v 2.098767 9.701458 -2.229345
v 2.646459 9.701458 -1.539823
f 369 370 371
f 369 371 372
v 2.502376 8.803547 -2.658065
v 1.849358 8.803547 -3.480187
v 1.551074 9.701458 -2.918867
v 2.098767 9.701458 -2.229345
f 373 374 375
f 373 375 376
v 1.849358 8.803547 -3.480187
v 1.196340 8.803547 -4.302309
v 1.003382 9.701458 -3.608388
v 1.551074 9.701458 -2.918867
f 377 378 379
f 377 379 380
v 1.003382 9.701458 -3.608388
v 0.178362 9.701458 -3.300576
v 0.132628 10.440914 -2.454274
v 0.746105 10.440914 -2.683160
f 381 382 383
f 381 383 384
v 0.178362 9.701458 -3.300576
v -0.646658 9.701458 -2.992763
v -0.480848 10.440914 -2.225388
v 0.132628 10.440914 -2.454274
f 385 386 387
f 385 387 388
v -0.646658 9.701458 -2.992763
v -1.471678 9.701458 -2.684951
v -1.094325 10.440914 -1.996502
v -0.480848 10.440914 -2.225388
f 389 390 391
f 389 391 392
v -1.471678 9.701458 -2.684951
v -2.296699 9.701458 -2.377139
v -1.707802 10.440914 -1.767616
v -1.094325 10.440914 -1.996502
f 393 394 395
f 393 395 396
v -2.296699 9.701458 -2.377139
v -3.121719 9.701458 -2.069326
v -2.321278 10.440914 -1.538730
v -1.707802 10.440914 -1.767616
f 397 398 399
f 397 399 400
v -3.121719 9.701458 -2.069326
v -3.083917 9.701458 -1.189566
v -2.293169 10.440914 -0.884549
v -2.321278 10.440914 -1.538730
f 401 402 403
f 401 403 404
v -3.083917 9.701458 -1.189566
v -3.046116 9.701458 -0.309806
v -2.265060 10.440914 -0.230369
v -2.293169 10.440914 -0.884549
f 405 406 407
f 405 407 408
v -3.046116 9.701458 -0.309806
v -3.008314 9.701458 0.569954
v -2.236951 10.440914 0.423812
v -2.265060 10.440914 -0.230369
f 409 410 411
f 409 411 412
v -3.008314 9.701458 0.569954
v -2.970512 9.701458 1.449714
v -2.208842 10.440914 1.077992
v -2.236951 10.440914 0.423812
f 413 414 415
f 413 415 416
v -2.970512 9.701458 1.449714
v -2.932711 9.701458 2.329474
v -2.180734 10.440914 1.732173
v -2.208842 10.440914 1.077992
f 417 418 419
f 417 419 420
v -2.932711 9.701458 2.329474
v -2.084328 9.701458 2.565383
v -1.549885 10.440914 1.907593
v -2.180734 10.440914 1.732173
f 421 422 423
f 421 423 424
v -2.084328 9.701458 2.565383
v -1.235945 9.701458 2.801293
v -0.919036 10.440914 2.083013
v -1.549885 10.440914 1.907593
f 425 426 427
f 425 427 428
v -1.235945 9.701458 2.801293
v -0.387562 9.701458 3.037202
v -0.288187 10.440914 2.258432
v -0.919036 10.440914 2.083013
f 429 430 431
f 429 431 432
v -0.387562 9.701458 3.037202
v 0.460821 9.701458 3.273111
v 0.342662 10.440914 2.433852
v -0.288187 10.440914 2.258432
f 433 434 435
f 433 435 436
v 0.460821 9.701458 3.273111
v 1.309204 9.701458 3.509021
v 0.973511 10.440914 2.609272
v 0.342662 10.440914 2.433852
f 437 438 439
f 437 439 440
v 1.309204 9.701458 3.509021
v 1.795732 9.701458 2.775060
v 1.335288 10.440914 2.063506
v 0.973511 10.440914 2.609272
f 441 442 443
f 441 443 444
v 1.795732 9.701458 2.775060
v 2.282260 9.701458 2.041100
v 1.697065 10.440914 1.517741
v 1.335288 10.440914 2.063506
f 445 446 447
f 445 447 448
v 2.282260 9.701458 2.041100
v 2.768788 9.701458 1.307140
v 2.058842 10.440914 0.971976
v 1.697065 10.440914 1.517741
f 449 450 451
f 449 451 452
v 2.768788 9.701458 1.307140
v 3.255315 9.701458 0.573180
v 2.420619 10.440914 0.426211
v 2.058842 10.440914 0.971976
f 453 454 455
f 453 455 456
v 3.255315 9.701458 0.573180
v 3.741843 9.701458 -0.160780
v 2.782396 10.440914 -0.119554
v 2.420619 10.440914 0.426211
f 457 458 459
f 457 459 460
v 3.741843 9.701458 -0.160780
v 3.194151 9.701458 -0.850302
v 2.375138 10.440914 -0.632276
v 2.782396 10.440914 -0.119554
f 461 462 463
f 461 463 464
v 3.194151 9.701458 -0.850302
v 2.646459 9.701458 -1.539823
v 1.967880 10.440914 -1.144997
v 2.375138 10.440914 -0.632276
f 465 466 467
f 465 467 468
v 2.646459 9.701458 -1.539823
v 2.098767 9.701458 -2.229345
v 1.560621 10.440914 -1.657718
v 1.967880 10.440914 -1.144997
f 469 470 471
f 469 471 472
v 2.098767 9.701458 -2.229345
v 1.551074 9.701458 -2.918867
v 1.153363 10.440914 -2.170439
v 1.560621 10.440914 -1.657718
f 473 474 475
f 473 475 476
v 1.551074 9.701458 -2.918867
v 1.003382 9.701458 -3.608388
v 0.746105 10.440914 -2.683160
v 1.153363 10.440914 -2.170439
f 477 478 479
f 477 479 480
v 0.746105 10.440914 -2.683160
v 0.132628 10.440914 -2.454274
v 0.132628 11.221915 -2.454274
v 0.746105 11.221915 -2.683160
f 481 482 483
f 481 483 484
v 0.132628 10.440914 -2.454274
v -0.480848 10.440914 -2.225388
v -0.480848 11.221915 -2.225388
v 0.132628 11.221915 -2.454274
f 485 486 487
f 485 487 488
v -0.480848 10.440914 -2.225388
v -1.094325 10.440914 -1.996502
v -1.094325 11.221915 -1.996502
v -0.480848 11.221915 -2.225388
f 489 490 491
f 489 491 492
v -1.094325 10.440914 -1.996502
v -1.707802 10.440914 -1.767616
v -1.707802 11.221915 -1.767616
v -1.094325 11.221915 -1.996502
f 493 494 495
f 493 495 496
v -1.707802 10.440914 -1.767616
v -2.321278 10.440914 -1.538730
v -2.321278 11.221915 -1.538730
v -1.707802 11.221915 -1.767616
f 497 498 499
f 497 499 500
v -2.321278 10.440914 -1.538730
v -2.293169 10.440914 -0.884549
v -2.293169 11.221915 -0.884549
v -2.321278 11.221915 -1.538730
f 501 502 503
f 501 503 504
v -2.293169 10.440914 -0.884549
v -2.265060 10.440914 -0.230369
v -2.265060 11.221915 -0.230369
v -2.293169 11.221915 -0.884549
f 505 506 507
f 505 507 508
v -2.265060 10.440914 -0.230369
v -2.236951 10.440914 0.423812
v -2.236951 11.221915 0.423812
v -2.265060 11.221915 -0.230369
f 509 510 511
f 509 511 512
v -2.236951 10.440914 0.423812
v -2.208842 10.440914 1.077992
v -2.208842 11.221915 1.077992
v -2.236951 11.221915 0.423812
f 513 514 515
f 513 515 516
v -2.208842 10.440914 1.077992
v -2.180734 10.440914 1.732173
v -2.180734 11.221915 1.732173
v -2.208842 11.221915 1.077992
f 517 518 519
f 517 519 520
v -2.180734 10.440914 1.732173
v -1.549885 10.440914 1.907593
v -1.549885 11.221915 1.907593
v -2.180734 11.221915 1.732173
f 521 522 523
f 521 523 524
v -1.549885 10.440914 1.907593
v -0.919036 10.440914 2.083013
v -0.919036 11.221915 2.083013
v -1.549885 11.221915 1.907593
f 525 526 527
f 525 527 528
v -0.919036 10.440914 2.083013
v -0.288187 10.440914 2.258432
v -0.288187 11.221915 2.258432
v -0.919036 11.221915 2.083013
f 529 530 531
f 529 531 532
v -0.288187 10.440914 2.258432
v 0.342662 10.440914 2.433852
v 0.342662 11.221915 2.433852
v -0.288187 11.221915 2.258432
f 533 534 535
f 533 535 536
v 0.342662 10.440914 2.433852
v 0.973511 10.440914 2.609272
v 0.973511 11.221915 2.609272
v 0.342662 11.221915 2.433852
f 537 538 539
f 537 539 540
v 0.973511 10.440914 2.609272
v 1.335288 10.440914 2.063506
v 1.335288 11.221915 2.063506
v 0.973511 11.221915 2.609272
f 541 542 543
f 541 543 544
v 1.335288 10.440914 2.063506
v 1.697065 10.440914 1.517741
v 1.697065 11.221915 1.517741
v 1.335288 11.221915 2.063506
f 545 546 547
f 545 547 548
v 1.697065 10.440914 1.517741
v 2.058842 10.440914 0.971976
v 2.058842 11.221915 0.971976
v 1.697065 11.221915 1.517741
f 549 550 551
f 549 551 552
v 2.058842 10.440914 0.971976
v 2.420619 10.440914 0.426211
v 2.420619 11.221915 0.426211
v 2.058842 11.221915 0.971976
f 553 554 555
f 553 555 556
v 2.420619 10.440914 0.426211
v 2.782396 10.440914 -0.119554
v 2.782396 11.221915 -0.119554
v 2.420619 11.221915 0.426211
f 557 558 559
f 557 559 560
v 2.782396 10.440914 -0.119554
v 2.375138 10.440914 -0.632276
v 2.375138 11.221915 -0.632276
v 2.782396 11.221915 -0.119554
f 561 562 563
f 561 563 564
v 2.375138 10.440914 -0.632276
v 1.967880 10.440914 -1.144997
v 1.967880 11.221915 -1.144997
v 2.375138 11.221915 -0.632276
f 565 566 567
f 565 567 568
v 1.967880 10.440914 -1.144997
v 1.560621 10.440914 -1.657718
v 1.560621 11.221915 -1.657718
v 1.967880 11.221915 -1.144997
f 569 570 571
f 569 571 572
v 1.560621 10.440914 -1.657718
v 1.153363 10.440914 -2.170439
v 1.153363 11.221915 -2.170439
v 1.560621 11.221915 -1.657718
f 573 574 575
f 573 575 576
v 1.153363 10.440914 -2.170439
v 0.746105 10.440914 -2.683160
v 0.746105 11.221915 -2.683160
v 1.153363 11.221915 -2.170439
f 577 578 579
f 577 579 580
v 0.746105 11.221915 -2.683160
v 0.132628 11.221915 -2.454274
v 0.100614 12.014189 -1.861863
v 0.566010 12.014189 -2.035501
f 581 582 583
f 581 583 584
v 0.132628 11.221915 -2.454274
v -0.480848 11.221915 -2.225388
v -0.364782 12.014189 -1.688226
v 0.100614 12.014189 -1.861863
f 585 586 587
f 585 587 588
v -0.480848 11.221915 -2.225388
v -1.094325 11.221915 -1.996502
v -0.830178 12.014189 -1.514588
v -0.364782 12.014189 -1.688226
f 589 590 591
f 589 591 592
v -1.094325 11.221915 -1.996502
v -1.707802 11.221915 -1.767616
v -1.295574 12.014189 -1.340950
v -0.830178 12.014189 -1.514588
f 593 594 595
f 593 595 596
v -1.707802 11.221915 -1.767616
v -2.321278 11.221915 -1.538730
v -1.760970 12.014189 -1.167312
v -1.295574 12.014189 -1.340950
f 597 598 599
f 597 599 600
v -2.321278 11.221915 -1.538730
v -2.293169 11.221915 -0.884549
v -1.739646 12.014189 -0.671037
v -1.760970 12.014189 -1.167312
f 601 602 603
f 601 603 604
v -2.293169 11.221915 -0.884549
v -2.265060 11.221915 -0.230369
v -1.718322 12.014189 -0.174762
v -1.739646 12.014189 -0.671037
f 605 606 607
f 605 607 608
v -2.265060 11.221915 -0.230369
v -2.236951 11.221915 0.423812
v -1.696998 12.014189 0.321512
v -1.718322 12.014189 -0.174762
f 609 610 611
f 609 611 612
v -2.236951 11.221915 0.423812
v -2.208842 11.221915 1.077992
v -1.675674 12.014189 0.817787
v -1.696998 12.014189 0.321512
f 613 614 615
f 613 615 616
v -2.208842 11.221915 1.077992
v -2.180734 11.221915 1.732173
v -1.654350 12.014189 1.314062
v -1.675674 12.014189 0.817787
f 617 618 619
f 617 619 620
v -2.180734 11.221915 1.732173
v -1.549885 11.221915 1.907593
v -1.175775 12.014189 1.447139
v -1.654350 12.014189 1.314062
f 621 622 623
f 621 623 624
v -1.549885 11.221915 1.907593
v -0.919036 11.221915 2.083013
v -0.697200 12.014189 1.580216
v -1.175775 12.014189 1.447139
f 625 626 627
f 625 627 628
v -0.919036 11.221915 2.083013
v -0.288187 11.221915 2.258432
v -0.218625 12.014189 1.713293
v -0.697200 12.014189 1.580216
f 629 630 631
f 629 631 632
v -0.288187 11.221915 2.258432
v 0.342662 11.221915 2.433852
v 0.259950 12.014189 1.846370
v -0.218625 12.014189 1.713293
f 633 634 635
f 633 635 636
v 0.342662 11.221915 2.433852
v 0.973511 11.221915 2.609272
v 0.738525 12.014189 1.979448
v 0.259950 12.014189 1.846370
f 637 638 639
f 637 639 640
v 0.973511 11.221915 2.609272
v 1.335288 11.221915 2.063506
v 1.012977 12.014189 1.565419
v 0.738525 12.014189 1.979448
f 641 642 643
f 641 643 644
v 1.335288 11.221915 2.063506
v 1.697065 11.221915 1.517741
v 1.287429 12.014189 1.151390
v 1.012977 12.014189 1.565419
f 645 646 647
f 645 647 648
v 1.697065 11.221915 1.517741
v 2.058842 11.221915 0.971976
v 1.561880 12.014189 0.737361
v 1.287429 12.014189 1.151390
f 649 650 651
f 649 651 652
v 2.058842 11.221915 0.971976
v 2.420619 11.221915 0.426211
v 1.836332 12.014189 0.323332
v 1.561880 12.014189 0.737361
f 653 654 655
f 653 655 656
v 2.420619 11.221915 0.426211
v 2.782396 11.221915 -0.119554
v 2.110783 12.014189 -0.090696
v 1.836332 12.014189 0.323332
f 657 658 659
f 657 659 660
v 2.782396 11.221915 -0.119554
v 2.375138 11.221915 -0.632276
v 1.801829 12.014189 -0.479657
v 2.110783 12.014189 -0.090696
f 661 662 663
f 661 663 664
v 2.375138 11.221915 -0.632276
v 1.967880 11.221915 -1.144997
v 1.492874 12.014189 -0.868618
v 1.801829 12.014189 -0.479657
f 665 666 667
f 665 667 668
v 1.967880 11.221915 -1.144997
v 1.560621 11.221915 -1.657718
v 1.183920 12.014189 -1.257579
v 1.492874 12.014189 -0.868618
f 669 670 671
f 669 671 672
v 1.560621 11.221915 -1.657718
v 1.153363 11.221915 -2.170439
v 0.874965 12.014189 -1.646540
v 1.183920 12.014189 -1.257579
f 673 674 675
f 673 675 676
v 1.153363 11.221915 -2.170439
v 0.746105 11.221915 -2.683160
v 0.566010 12.014189 -2.035501
v 0.874965 12.014189 -1.646540
f 677 678 679
f 677 679 680
v 0.566010 12.014189 -2.035501
v 0.100614 12.014189 -1.861863
v 0.050307 12.595190 -0.930932
v 0.283005 12.595190 -1.017751
f 681 682 683
f 681 683 684
v 0.100614 12.014189 -1.861863
v -0.364782 12.014189 -1.688226
v -0.182391 12.595190 -0.844113
v 0.050307 12.595190 -0.930932
f 685 686 687
f 685 687 688
v -0.364782 12.014189 -1.688226
v -0.830178 12.014189 -1.514588
v -0.415089 12.595190 -0.757294
v -0.182391 12.595190 -0.844113
f 689 690 691
f 689 691 692
v -0.830178 12.014189 -1.514588
v -1.295574 12.014189 -1.340950
v -0.647787 12.595190 -0.670475
v -0.415089 12.595190 -0.757294
f 693 694 695
f 693 695 696
v -1.295574 12.014189 -1.340950
v -1.760970 12.014189 -1.167312
v -0.880485 12.595190 -0.583656
v -0.647787 12.595190 -0.670475
f 697 698 699
f 697 699 700
v -1.760970 12.014189 -1.167312
v -1.739646 12.014189 -0.671037
v -0.869823 12.595190 -0.335519
v -0.880485 12.595190 -0.583656
f 701 702 703
f 701 703 704
v -1.739646 12.014189 -0.671037
v -1.718322 12.014189 -0.174762
v -0.859161 12.595190 -0.087381
v -0.869823 12.595190 -0.335519
f 705 706 707
f 705 707 708
v -1.718322 12.014189 -0.174762
v -1.696998 12.014189 0.321512
v -0.848499 12.595190 0.160756
v -0.859161 12.595190 -0.087381
f 709 710 711
f 709 711 712
v -1.696998 12.014189 0.321512
v -1.675674 12.014189 0.817787
v -0.837837 12.595190 0.408894
v -0.848499 12.595190 0.160756
f 713 714 715
f 713 715 716
v -1.675674 12.014189 0.817787
v -1.654350 12.014189 1.314062
v -0.827175 12.595190 0.657031
v -0.837837 12.595190 0.408894
f 717 718 719
f 717 719 720
v -1.654350 12.014189 1.314062
v -1.175775 12.014189 1.447139
v -0.587887 12.595190 0.723570
v -0.827175 12.595190 0.657031
f 721 722 723
f 721 723 724
v -1.175775 12.014189 1.447139
v -0.697200 12.014189 1.580216
v -0.348600 12.595190 0.790108
v -0.587887 12.595190 0.723570
f 725 726 727
f 725 727 728
v -0.697200 12.014189 1.580216
v -0.218625 12.014189 1.713293
v -0.109312 12.595190 0.856647
v -0.348600 12.595190 0.790108
f 729 730 731
f 729 731 732
v -0.218625 12.014189 1.713293
v 0.259950 12.014189 1.846370
v 0.129975 12.595190 0.923185
v -0.109312 12.595190 0.856647
f 733 734 735
f 733 735 736
v 0.259950 12.014189 1.846370
v 0.738525 12.014189 1.979448
v 0.369263 12.595190 0.989724
v 0.129975 12.595190 0.923185
f 737 738 739
f 737 739 740
v 0.738525 12.014189 1.979448
v 1.012977 12.014189 1.565419
v 0.506488 12.595190 0.782709
v 0.369263 12.595190 0.989724
f 741 742 743
f 741 743 744
v 1.012977 12.014189 1.565419
v 1.287429 12.014189 1.151390
v 0.643714 12.595190 0.575695
v 0.506488 12.595190 0.782709
f 745 746 747
f 745 747 748
v 1.287429 12.014189 1.151390
v 1.561880 12.014189 0.737361
v 0.780940 12.595190 0.368681
v 0.643714 12.595190 0.575695
f 749 750 751
f 749 751 752
v 1.561880 12.014189 0.737361
v 1.836332 12.014189 0.323332
v 0.918166 12.595190 0.161666
v 0.780940 12.595190 0.368681
f 753 754 755
f 753 755 756
v 1.836332 12.014189 0.323332
v 2.110783 12.014189 -0.090696
v 1.055392 12.595190 -0.045348
v 0.918166 12.595190 0.161666
f 757 758 759
f 757 759 760
v 2.110783 12.014189 -0.090696
v 1.801829 12.014189 -0.479657
v 0.900914 12.595190 -0.239829
v 1.055392 12.595190 -0.045348
f 761 762 763
f 761 763 764
v 1.801829 12.014189 -0.479657
v 1.492874 12.014189 -0.868618
v 0.746437 12.595190 -0.434309
v 0.900914 12.595190 -0.239829
f 765 766 767
f 765 767 768
v 1.492874 12.014189 -0.868618
v 1.183920 12.014189 -1.257579
v 0.591960 12.595190 -0.628790
v 0.746437 12.595190 -0.434309
f 769 770 771
f 769 771 772
v 1.183920 12.014189 -1.257579
v 0.874965 12.014189 -1.646540
v 0.437483 12.595190 -0.823270
v 0.591960 12.595190 -0.628790
f 773 774 775
f 773 775 776
v 0.874965 12.014189 -1.646540
v 0.566010 12.014189 -2.035501
v 0.283005 12.595190 -1.017751
v 0.437483 12.595190 -0.823270
f 777 778 779
f 777 779 780
v 0.283005 12.595190 -1.017751
v 0.050307 12.595190 -0.930932
v 0.000000 12.859281 -0.000000
v 0.000000 12.859281 -0.000000
f 781 782 783
v 0.050307 12.595190 -0.930932
v -0.182391 12.595190 -0.844113
v -0.000000 12.859281 -0.000000
v 0.000000 12.859281 -0.000000
f 785 786 787
v -0.182391 12.595190 -0.844113
v -0.415089 12.595190 -0.757294
v -0.000000 12.859281 -0.000000
v -0.000000 12.859281 -0.000000
f 789 790 791
v -0.415089 12.595190 -0.757294
v -0.647787 12.595190 -0.670475
v -0.000000 12.859281 -0.000000
v -0.000000 12.859281 -0.000000
f 793 794 795
v -0.647787 12.595190 -0.670475
v -0.880485 12.595190 -0.583656
v -0.000000 12.859281 -0.000000
v -0.000000 12.859281 -0.000000
f 797 798 799
v -0.880485 12.595190 -0.583656
v -0.869823 12.595190 -0.335519
v -0.000000 12.859281 -0.000000
v -0.000000 12.859281 -0.000000
f 801 802 803
v -0.869823 12.595190 -0.335519
v -0.859161 12.595190 -0.087381
v -0.000000 12.859281 -0.000000
v -0.000000 12.859281 -0.000000
f 805 806 807
v -0.859161 12.595190 -0.087381
v -0.848499 12.595190 0.160756
v -0.000000 12.859281 0.000000
v -0.000000 12.859281 -0.000000
f 809 810 811
v -0.848499 12.595190 0.160756
v -0.837837 12.595190 0.408894
v -0.000000 12.859281 0.000000
v -0.000000 12.859281 0.000000
f 813 814 815
v -0.837837 12.595190 0.408894
v -0.827175 12.595190 0.657031
v -0.000000 12.859281 0.000000
v -0.000000 12.859281 0.000000
f 817 818 819
v -0.827175 12.595190 0.657031
v -0.587887 12.595190 0.723570
v -0.000000 12.859281 0.000000
v -0.000000 12.859281 0.000000
f 821 822 823
v -0.587887 12.595190 0.723570
v -0.348600 12.595190 0.790108
v -0.000000 12.859281 0.000000
v -0.000000 12.859281 0.000000
f 825 826 827
v -0.348600 12.595190 0.790108
v -0.109312 12.595190 0.856647
v -0.000000 12.859281 0.000000
v -0.000000 12.859281 0.000000
f 829 830 831
v -0.109312 12.595190 0.856647
v 0.129975 12.595190 0.923185
v 0.000000 12.859281 0.000000
v -0.000000 12.859281 0.000000
f 833 834 835
v 0.129975 12.595190 0.923185
v 0.369263 12.595190 0.989724
v 0.000000 12.859281 0.000000
v 0.000000 12.859281 0.000000
f 837 838 839
v 0.369263 12.595190 0.989724
v 0.506488 12.595190 0.782709
v 0.000000 12.859281 0.000000
v 0.000000 12.859281 0.000000
f 841 842 843
v 0.506488 12.595190 0.782709
v 0.643714 12.595190 0.575695
v 0.000000 12.859281 0.000000
v 0.000000 12.859281 0.000000
f 845 846 847
v 0.643714 12.595190 0.575695
v 0.780940 12.595190 0.368681
v 0.000000 12.859281 0.000000
v 0.000000 12.859281 0.000000
f 849 850 851
v 0.780940 12.595190 0.368681
v 0.918166 12.595190 0.161666
v 0.000000 12.859281 0.000000
v 0.000000 12.859281 0.000000
f 853 854 855
v 0.918166 12.595190 0.161666
v 1.055392 12.595190 -0.045348
v 0.000000 12.859281 -0.000000
v 0.000000 12.859281 0.000000
f 857 858 859
v 1.055392 12.595190 -0.045348
v 0.900914 12.595190 -0.239829
v 0.000000 12.859281 -0.000000
v 0.000000 12.859281 -0.000000
f 861 862 863
v 0.900914 12.595190 -0.239829
v 0.746437 12.595190 -0.434309
v 0.000000 12.859281 -0.000000
v 0.000000 12.859281 -0.000000
f 865 866 867
v 0.746437 12.595190 -0.434309
v 0.591960 12.595190 -0.628790
v 0.000000 12.859281 -0.000000
v 0.000000 12.859281 -0.000000
f 869 870 871
v 0.591960 12.595190 -0.628790
v 0.437483 12.595190 -0.823270
v 0.000000 12.859281 -0.000000
v 0.000000 12.859281 -0.000000
f 873 874 875
v 0.437483 12.595190 -0.823270
v 0.283005 12.595190 -1.017751
v 0.000000 12.859281 -0.000000
v 0.000000 12.859281 -0.000000
f 877 878 879
v -3.784135 0.900000 2.422151
v -5.115843 0.900000 2.479372
v -5.115843 2.600000 2.479372
v -3.784135 2.600000 2.422151
f 881 882 883
f 881 883 884
v -5.115843 0.900000 2.479372
v -6.447551 0.900000 2.536593
v -6.447551 2.600000 2.536593
v -5.115843 2.600000 2.479372
f 885 886 887
f 885 887 888
v -6.447551 0.900000 2.536593
v -7.779259 0.900000 2.593814
v -7.779259 2.600000 2.593814
v -6.447551 2.600000 2.536593
f 889 890 891
f 889 891 892
v -7.779259 0.900000 2.593814
v -9.110967 0.900000 2.651035
v -9.110967 2.600000 2.651035
v -7.779259 2.600000 2.593814
f 893 894 895
f 893 895 896
v -9.110967 0.900000 2.651035
v -10.442675 0.900000 2.708256
v -10.442675 2.600000 2.708256
v -9.110967 2.600000 2.651035
f 897 898 899
f 897 899 900
v -10.442675 0.900000 2.708256
v -11.774383 0.900000 2.765477
v -11.774383 2.600000 2.765477
v -10.442675 2.600000 2.708256
f 901 902 903
f 901 903 904
v -3.977954 0.900000 -2.088628
v -5.309663 0.900000 -2.031407
v -5.309663 2.600000 -2.031407
v -3.977954 2.600000 -2.088628
f 905 906 907
f 905 907 908
v -9.304787 0.900000 -1.859744
v -10.636495 0.900000 -1.802523
v -10.636495 2.600000 -1.802523
v -9.304787 2.600000 -1.859744
f 909 910 911
f 909 911 912
v -10.636495 0.900000 -1.802523
v -11.968203 0.900000 -1.745302
v -11.968203 2.600000 -1.745302
v -10.636495 2.600000 -1.802523
f 913 914 915
f 913 915 916
v -11.968203 0.900000 -1.745302
v -11.919748 0.900000 -0.617607
v -11.919748 2.600000 -0.617607
v -11.968203 2.600000 -1.745302
f 917 918 919
f 917 919 920
v -11.919748 0.900000 -0.617607
v -11.871293 0.900000 0.510087
v -11.871293 2.600000 0.510087
v -11.919748 2.600000 -0.617607
f 921 922 923
f 921 923 924
v -11.871293 0.900000 0.510087
v -11.822838 0.900000 1.637782
v -11.822838 2.600000 1.637782
v -11.871293 2.600000 0.510087
f 925 926 927
f 925 927 928
v -11.822838 0.900000 1.637782
v -11.774383 0.900000 2.765477
v -11.774383 2.600000 2.765477
v -11.822838 2.600000 1.637782
f 929 930 931
f 929 931 932
v -3.784135 2.600000 2.422151
v -5.115843 2.600000 2.479372
v -5.123220 3.256561 2.307691
v -3.791511 3.256561 2.250470
f 933 934 935
f 933 935 936
v -3.791511 3.256561 2.250470
v -5.123220 3.256561 2.307691
v -5.144227 3.813167 1.818784
v -3.812519 3.813167 1.761563
f 937 938 939
f 937 939 940
v -3.812519 3.813167 1.761563
v -5.144227 3.813167 1.818784
v -5.175667 4.185080 1.087083
v -3.843959 4.185080 1.029862
f 941 942 943
f 941 943 944
v -3.843959 4.185080 1.029862
v -5.175667 4.185080 1.087083
v -5.212753 4.315678 0.223982
v -3.881045 4.315678 0.166761
f 945 946 947
f 945 947 948
v -3.881045 4.315678 0.166761
v -5.212753 4.315678 0.223982
v -5.249838 4.185080 -0.639118
v -3.918130 4.185080 -0.696339
f 949 950 951
f 949 951 952
v -3.918130 4.185080 -0.696339
v -5.249838 4.185080 -0.639118
v -5.281278 3.813167 -1.370819
v -3.949570 3.813167 -1.428040
f 953 954 955
f 953 955 956
v -3.949570 3.813167 -1.428040
v -5.281278 3.813167 -1.370819
v -5.302286 3.256561 -1.859726
v -3.970578 3.256561 -1.916947
f 957 958 959
f 957 959 960
v -3.970578 3.256561 -1.916947
v -5.302286 3.256561 -1.859726
v -5.309663 2.600000 -2.031407
v -3.977954 2.600000 -2.088628
f 961 962 963
f 961 963 964
v -5.115843 2.600000 2.479372
v -6.447551 2.600000 2.536593
v -6.454928 3.256561 2.364912
v -5.123220 3.256561 2.307691
f 965 966 967
f 965 967 968
v -5.123220 3.256561 2.307691
v -6.454928 3.256561 2.364912
v -6.475935 3.813167 1.876005
v -5.144227 3.813167 1.818784
f 969 970 971
f 969 971 972
v -5.144227 3.813167 1.818784
v -6.475935 3.813167 1.876005
v -6.507375 4.185080 1.144304
v -5.175667 4.185080 1.087083
f 973 974 975
f 973 975 976
v -5.175667 4.185080 1.087083
v -6.507375 4.185080 1.144304
v -6.544461 4.315678 0.281203
v -5.212753 4.315678 0.223982
f 977 978 979
f 977 979 980
v -5.212753 4.315678 0.223982
v -6.544461 4.315678 0.281203
v -6.581547 4.185080 -0.581897
v -5.249838 4.185080 -0.639118
f 981 982 983
f 981 983 984
v -5.249838 4.185080 -0.639118
v -6.581547 4.185080 -0.581897
v -6.612986 3.813167 -1.313598
v -5.281278 3.813167 -1.370819
f 985 986 987
f 985 987 988
v -5.281278 3.813167 -1.370819
v -6.612986 3.813167 -1.313598
v -6.633994 3.256561 -1.802505
v -5.302286 3.256561 -1.859726
f 989 990 991
f 989 991 992
v -5.302286 3.256561 -1.859726
v -6.633994 3.256561 -1.802505
v -6.641371 2.600000 -1.974186
v -5.309663 2.600000 -2.031407
f 993 994 995
f 993 995 996
v -6.447551 2.600000 2.536593
v -7.779259 2.600000 2.593814
v -7.786636 3.256561 2.422133
v -6.454928 3.256561 2.364912
f 997 998 999
f 997 999 1000
v -6.454928 3.256561 2.364912
v -7.786636 3.256561 2.422133
v -7.807643 3.813167 1.933226
v -6.475935 3.813167 1.876005
f 1001 1002 1003
f 1001 1003 1004
v -6.475935 3.813167 1.876005
v -7.807643 3.813167 1.933226
v -7.839083 4.185080 1.201525
v -6.507375 4.185080 1.144304
f 1005 1006 1007
f 1005 1007 1008
v -6.507375 4.185080 1.144304
v -7.839083 4.185080 1.201525
v -7.876169 4.315678 0.338424
v -6.544461 4.315678 0.281203
f 1009 1010 1011
f 1009 1011 1012
v -6.544461 4.315678 0.281203
v -7.876169 4.315678 0.338424
v -7.913255 4.185080 -0.524676
v -6.581547 4.185080 -0.581897
f 1013 1014 1015
f 1013 1015 1016
v -6.581547 4.185080 -0.581897
v -7.913255 4.185080 -0.524676
v -7.944694 3.813167 -1.256377
v -6.612986 3.813167 -1.313598
f 1017 1018 1019
f 1017 1019 1020
v -6.612986 3.813167 -1.313598
v -7.944694 3.813167 -1.256377
v -7.965702 3.256561 -1.745284
v -6.633994 3.256561 -1.802505
f 1021 1022 1023
f 1021 1023 1024
v -6.633994 3.256561 -1.802505
v -7.965702 3.256561 -1.745284
v -7.973079 2.600000 -1.916965
v -6.641371 2.600000 -1.974186
f 1025 1026 1027
f 1025 1027 1028
v -7.779259 2.600000 2.593814
v -9.110967 2.600000 2.651035
v -9.118344 3.256561 2.479354
v -7.786636 3.256561 2.422133
f 1029 1030 1031
f 1029 1031 1032
v -7.786636 3.256561 2.422133
v -9.118344 3.256561 2.479354
v -9.139351 3.813167 1.990447
v -7.807643 3.813167 1.933226
f 1033 1034 1035
f 1033 1035 1036
v -7.807643 3.813167 1.933226
v -9.139351 3.813167 1.990447
v -9.170791 4.185080 1.258746
v -7.839083 4.185080 1.201525
f 1037 1038 1039
f 1037 1039 1040
v -7.839083 4.185080 1.201525
v -9.170791 4.185080 1.258746
v -9.207877 4.315678 0.395645
v -7.876169 4.315678 0.338424
f 1041 1042 1043
f 1041 1043 1044
v -7.876169 4.315678 0.338424
v -9.207877 4.315678 0.395645
v -9.244963 4.185080 -0.467455
v -7.913255 4.185080 -0.524676
f 1045 1046 1047
f 1045 1047 1048
v -7.913255 4.185080 -0.524676
v -9.244963 4.185080 -0.467455
v -9.276402 3.813167 -1.199156
v -7.944694 3.813167 -1.256377
f 1049 1050 1051
f 1049 1051 1052
v -7.944694 3.813167 -1.256377
v -9.276402 3.813167 -1.199156
v -9.297410 3.256561 -1.688063
v -7.965702 3.256561 -1.745284
f 1053 1054 1055
f 1053 1055 1056
v -7.965702 3.256561 -1.745284
v -9.297410 3.256561 -1.688063
v -9.304787 2.600000 -1.859744
v -7.973079 2.600000 -1.916965
f 1057 1058 1059
f 1057 1059 1060
v -9.110967 2.600000 2.651035
v -10.442675 2.600000 2.708256
v -10.450052 3.256561 2.536575
v -9.118344 3.256561 2.479354
f 1061 1062 1063
f 1061 1063 1064
v -9.118344 3.256561 2.479354
v -10.450052 3.256561 2.536575
v -10.471059 3.813167 2.047668
v -9.139351 3.813167 1.990447
f 1065 1066 1067
f 1065 1067 1068
v -9.139351 3.813167 1.990447
v -10.471059 3.813167 2.047668
v -10.502499 4.185080 1.315967
v -9.170791 4.185080 1.258746
f 1069 1070 1071
f 1069 1071 1072
v -9.170791 4.185080 1.258746
v -10.502499 4.185080 1.315967
v -10.539585 4.315678 0.452866
v -9.207877 4.315678 0.395645
f 1073 1074 1075
f 1073 1075 1076
v -9.207877 4.315678 0.395645
v -10.539585 4.315678 0.452866
v -10.576671 4.185080 -0.410234
v -9.244963 4.185080 -0.467455
f 1077 1078 1079
f 1077 1079 1080
v -9.244963 4.185080 -0.467455
v -10.576671 4.185080 -0.410234
v -10.608111 3.813167 -1.141935
v -9.276402 3.813167 -1.199156
f 1081 1082 1083
f 1081 1083 1084
v -9.276402 3.813167 -1.199156
v -10.608111 3.813167 -1.141935
v -10.629118 3.256561 -1.630842
v -9.297410 3.256561 -1.688063
f 1085 1086 1087
f 1085 1087 1088
v -9.297410 3.256561 -1.688063
v -10.629118 3.256561 -1.630842
v -10.636495 2.600000 -1.802523
v -9.304787 2.600000 -1.859744
f 1089 1090 1091
f 1089 1091 1092
v -10.442675 2.600000 2.708256
v -11.774383 2.600000 2.765477
v -11.781760 3.256561 2.593796
v -10.450052 3.256561 2.536575
f 1093 1094 1095
f 1093 1095 1096
v -10.450052 3.256561 2.536575
v -11.781760 3.256561 2.593796
v -11.802767 3.813167 2.104889
v -10.471059 3.813167 2.047668
f 1097 1098 1099
f 1097 1099 1100
v -10.471059 3.813167 2.047668
v -11.802767 3.813167 2.104889
v -11.834207 4.185080 1.373188
v -10.502499 4.185080 1.315967
f 1101 1102 1103
f 1101 1103 1104
v -10.502499 4.185080 1.315967
v -11.834207 4.185080 1.373188
v -11.871293 4.315678 0.510087
v -10.539585 4.315678 0.452866
f 1105 1106 1107
f 1105 1107 1108
v -10.539585 4.315678 0.452866
v -11.871293 4.315678 0.510087
v -11.908379 4.185080 -0.353013
v -10.576671 4.185080 -0.410234
f 1109 1110 1111
f 1109 1111 1112
v -10.576671 4.185080 -0.410234
v -11.908379 4.185080 -0.353013
v -11.939819 3.813167 -1.084714
v -10.608111 3.813167 -1.141935
f 1113 1114 1115
f 1113 1115 1116
v -10.608111 3.813167 -1.141935
v -11.939819 3.813167 -1.084714
v -11.960826 3.256561 -1.573621
v -10.629118 3.256561 -1.630842
f 1117 1118 1119
f 1117 1119 1120
v -10.629118 3.256561 -1.630842
v -11.960826 3.256561 -1.573621
v -11.968203 2.600000 -1.745302
v -10.636495 2.600000 -1.802523
f 1121 1122 1123
f 1121 1123 1124
v -11.871293 2.600000 0.510087
v -11.774383 2.600000 2.765477
v -11.781760 3.256561 2.593796
f 1125 1126 1127
v -11.871293 2.600000 0.510087
v -11.781760 3.256561 2.593796
v -11.802767 3.813167 2.104889
f 1128 1129 1130
v -11.871293 2.600000 0.510087
v -11.802767 3.813167 2.104889
v -11.834207 4.185080 1.373188
f 1131 1132 1133
v -11.871293 2.600000 0.510087
v -11.834207 4.185080 1.373188
v -11.871293 4.315678 0.510087
f 1134 1135 1136
v -11.871293 2.600000 0.510087
v -11.871293 4.315678 0.510087
v -11.908379 4.185080 -0.353013
f 1137 1138 1139
v -11.871293 2.600000 0.510087
v -11.908379 4.185080 -0.353013
v -11.939819 3.813167 -1.084714
f 1140 1141 1142
v -11.871293 2.600000 0.510087
v -11.939819 3.813167 -1.084714
v -11.960826 3.256561 -1.573621
f 1143 1144 1145
v -11.871293 2.600000 0.510087
v -11.960826 3.256561 -1.573621
v -11.968203 2.600000 -1.745302
f 1146 1147 1148
v -3.121502 0.900000 -2.981569
v -3.563357 0.900000 -4.165859
v -3.563357 2.600000 -4.165859
v -3.121502 2.600000 -2.981569
f 1149 1150 1151
f 1149 1151 1152
v -3.563357 0.900000 -4.165859
v -4.005211 0.900000 -5.350148
v -4.005211 2.600000 -5.350148
v -3.563357 2.600000 -4.165859
f 1153 1154 1155
f 1153 1155 1156
v -4.005211 0.900000 -5.350148
v -4.447065 0.900000 -6.534437
v -4.447065 2.600000 -6.534437
v -4.005211 2.600000 -5.350148
f 1157 1158 1159
f 1157 1159 1160
v -4.447065 0.900000 -6.534437
v -4.888920 0.900000 -7.718726
v -4.888920 2.600000 -7.718726
v -4.447065 2.600000 -6.534437
f 1161 1162 1163
f 1161 1163 1164
v -4.888920 0.900000 -7.718726
v -5.330774 0.900000 -8.903015
v -5.330774 2.600000 -8.903015
v -4.888920 2.600000 -7.718726
f 1165 1166 1167
f 1165 1167 1168
v -5.330774 0.900000 -8.903015
v -5.772629 0.900000 -10.087304
v -5.772629 2.600000 -10.087304
v -5.330774 2.600000 -8.903015
f 1169 1170 1171
f 1169 1171 1172
v -5.772629 0.900000 -10.087304
v -6.214483 0.900000 -11.271593
v -6.214483 2.600000 -11.271593
v -5.772629 2.600000 -10.087304
f 1173 1174 1175
f 1173 1175 1176
v 0.405686 0.900000 -4.297552
v -0.036168 0.900000 -5.481841
v -0.036168 2.600000 -5.481841
v 0.405686 2.600000 -4.297552
f 1177 1178 1179
f 1177 1179 1180
v -0.036168 0.900000 -5.481841
v -0.478023 0.900000 -6.666130
v -0.478023 2.600000 -6.666130
v -0.036168 2.600000 -5.481841
f 1181 1182 1183
f 1181 1183 1184
v -1.803586 0.900000 -10.218997
v -2.245440 0.900000 -11.403286
v -2.245440 2.600000 -11.403286
v -1.803586 2.600000 -10.218997
f 1185 1186 1187
f 1185 1187 1188
v -2.245440 0.900000 -11.403286
v -2.687295 0.900000 -12.587575
v -2.687295 2.600000 -12.587575
v -2.245440 2.600000 -11.403286
f 1189 1190 1191
f 1189 1191 1192
v -2.687295 0.900000 -12.587575
v -3.863024 0.900000 -12.148915
v -3.863024 2.600000 -12.148915
v -2.687295 2.600000 -12.587575
f 1193 1194 1195
f 1193 1195 1196
v -3.863024 0.900000 -12.148915
v -5.038754 0.900000 -11.710254
v -5.038754 2.600000 -11.710254
v -3.863024 2.600000 -12.148915
f 1197 1198 1199
f 1197 1199 1200
v -5.038754 0.900000 -11.710254
v -6.214483 0.900000 -11.271593
v -6.214483 2.600000 -11.271593
v -5.038754 2.600000 -11.710254
f 1201 1202 1203
f 1201 1203 1204
v -3.121502 2.600000 -2.981569
v -3.563357 2.600000 -4.165859
v -3.429111 3.147460 -4.215945
v -2.987257 3.147460 -3.031656
f 1205 1206 1207
f 1205 1207 1208
v -2.987257 3.147460 -3.031656
v -3.429111 3.147460 -4.215945
v -3.046812 3.611574 -4.358580
v -2.604958 3.611574 -3.174291
f 1209 1210 1211
f 1209 1211 1212
v -2.604958 3.611574 -3.174291
v -3.046812 3.611574 -4.358580
v -2.474661 3.921685 -4.572047
v -2.032806 3.921685 -3.387758
f 1213 1214 1215
f 1213 1215 1216
v -2.032806 3.921685 -3.387758
v -2.474661 3.921685 -4.572047
v -1.799763 4.030581 -4.823850
v -1.357908 4.030581 -3.639561
f 1217 1218 1219
f 1217 1219 1220
v -1.357908 4.030581 -3.639561
v -1.799763 4.030581 -4.823850
v -1.124864 3.921685 -5.075652
v -0.683010 3.921685 -3.891363
f 1221 1222 1223
f 1221 1223 1224
v -0.683010 3.921685 -3.891363
v -1.124864 3.921685 -5.075652
v -0.552713 3.611574 -5.289120
v -0.110859 3.611574 -4.104831
f 1225 1226 1227
f 1225 1227 1228
v -0.110859 3.611574 -4.104831
v -0.552713 3.611574 -5.289120
v -0.170414 3.147460 -5.431754
v 0.271440 3.147460 -4.247465
f 1229 1230 1231
f 1229 1231 1232
v 0.271440 3.147460 -4.247465
v -0.170414 3.147460 -5.431754
v -0.036168 2.600000 -5.481841
v 0.405686 2.600000 -4.297552
f 1233 1234 1235
f 1233 1235 1236
v -3.563357 2.600000 -4.165859
v -4.005211 2.600000 -5.350148
v -3.870965 3.147460 -5.400234
v -3.429111 3.147460 -4.215945
f 1237 1238 1239
f 1237 1239 1240
v -3.429111 3.147460 -4.215945
v -3.870965 3.147460 -5.400234
v -3.488666 3.611574 -5.542869
v -3.046812 3.611574 -4.358580
f 1241 1242 1243
f 1241 1243 1244
v -3.046812 3.611574 -4.358580
v -3.488666 3.611574 -5.542869
v -2.916515 3.921685 -5.756336
v -2.474661 3.921685 -4.572047
f 1245 1246 1247
f 1245 1247 1248
v -2.474661 3.921685 -4.572047
v -2.916515 3.921685 -5.756336
v -2.241617 4.030581 -6.008139
v -1.799763 4.030581 -4.823850
f 1249 1250 1251
f 1249 1251 1252
v -1.799763 4.030581 -4.823850
v -2.241617 4.030581 -6.008139
v -1.566719 3.921685 -6.259941
v -1.124864 3.921685 -5.075652
f 1253 1254 1255
f 1253 1255 1256
v -1.124864 3.921685 -5.075652
v -1.566719 3.921685 -6.259941
v -0.994567 3.611574 -6.473409
v -0.552713 3.611574 -5.289120
f 1257 1258 1259
f 1257 1259 1260
v -0.552713 3.611574 -5.289120
v -0.994567 3.611574 -6.473409
v -0.612268 3.147460 -6.616043
v -0.170414 3.147460 -5.431754
f 1261 1262 1263
f 1261 1263 1264
v -0.170414 3.147460 -5.431754
v -0.612268 3.147460 -6.616043
v -0.478023 2.600000 -6.666130
v -0.036168 2.600000 -5.481841
f 1265 1266 1267
f 1265 1267 1268
v -4.005211 2.600000 -5.350148
v -4.447065 2.600000 -6.534437
v -4.312820 3.147460 -6.584523
v -3.870965 3.147460 -5.400234
f 1269 1270 1271
f 1269 1271 1272
v -3.870965 3.147460 -5.400234
v -4.312820 3.147460 -6.584523
v -3.930521 3.611574 -6.727158
v -3.488666 3.611574 -5.542869
f 1273 1274 1275
f 1273 1275 1276
v -3.488666 3.611574 -5.542869
v -3.930521 3.611574 -6.727158
v -3.358370 3.921685 -6.940626
v -2.916515 3.921685 -5.756336
f 1277 1278 1279
f 1277 1279 1280
v -2.916515 3.921685 -5.756336
v -3.358370 3.921685 -6.940626
v -2.683471 4.030581 -7.192428
v -2.241617 4.030581 -6.008139
f 1281 1282 1283
f 1281 1283 1284
v -2.241617 4.030581 -6.008139
v -2.683471 4.030581 -7.192428
v -2.008573 3.921685 -7.444230
v -1.566719 3.921685 -6.259941
f 1285 1286 1287
f 1285 1287 1288
v -1.566719 3.921685 -6.259941
v -2.008573 3.921685 -7.444230
v -1.436422 3.611574 -7.657698
v -0.994567 3.611574 -6.473409
f 1289 1290 1291
f 1289 1291 1292
v -0.994567 3.611574 -6.473409
v -1.436422 3.611574 -7.657698
v -1.054123 3.147460 -7.800333
v -0.612268 3.147460 -6.616043
f 1293 1294 1295
f 1293 1295 1296
v -0.612268 3.147460 -6.616043
v -1.054123 3.147460 -7.800333
v -0.919877 2.600000 -7.850419
v -0.478023 2.600000 -6.666130
f 1297 1298 1299
f 1297 1299 1300
v -4.447065 2.600000 -6.534437
v -4.888920 2.600000 -7.718726
v -4.754674 3.147460 -7.768812
v -4.312820 3.147460 -6.584523
f 1301 1302 1303
f 1301 1303 1304
v -4.312820 3.147460 -6.584523
v -4.754674 3.147460 -7.768812
v -4.372375 3.611574 -7.911447
v -3.930521 3.611574 -6.727158
f 1305 1306 1307
f 1305 1307 1308
v -3.930521 3.611574 -6.727158
v -4.372375 3.611574 -7.911447
v -3.800224 3.921685 -8.124915
v -3.358370 3.921685 -6.940626
f 1309 1310 1311
f 1309 1311 1312
v -3.358370 3.921685 -6.940626
v -3.800224 3.921685 -8.124915
v -3.125326 4.030581 -8.376717
v -2.683471 4.030581 -7.192428
f 1313 1314 1315
f 1313 1315 1316
v -2.683471 4.030581 -7.192428
v -3.125326 4.030581 -8.376717
v -2.450427 3.921685 -8.628519
v -2.008573 3.921685 -7.444230
f 1317 1318 1319
f 1317 1319 1320
v -2.008573 3.921685 -7.444230
v -2.450427 3.921685 -8.628519
v -1.878276 3.611574 -8.841987
v -1.436422 3.611574 -7.657698
f 1321 1322 1323
f 1321 1323 1324
v -1.436422 3.611574 -7.657698
v -1.878276 3.611574 -8.841987
v -1.495977 3.147460 -8.984622
v -1.054123 3.147460 -7.800333
f 1325 1326 1327
f 1325 1327 1328
v -1.054123 3.147460 -7.800333
v -1.495977 3.147460 -8.984622
v -1.361731 2.600000 -9.034708
v -0.919877 2.600000 -7.850419
f 1329 1330 1331
f 1329 1331 1332
v -4.888920 2.600000 -7.718726
v -5.330774 2.600000 -8.903015
v -5.196529 3.147460 -8.953101
v -4.754674 3.147460 -7.768812
f 1333 1334 1335
f 1333 1335 1336
v -4.754674 3.147460 -7.768812
v -5.196529 3.147460 -8.953101
v -4.814229 3.611574 -9.095736
v -4.372375 3.611574 -7.911447
f 1337 1338 1339
f 1337 1339 1340
v -4.372375 3.611574 -7.911447
v -4.814229 3.611574 -9.095736
v -4.242078 3.921685 -9.309204
v -3.800224 3.921685 -8.124915
f 1341 1342 1343
f 1341 1343 1344
v -3.800224 3.921685 -8.124915
v -4.242078 3.921685 -9.309204
v -3.567180 4.030581 -9.561006
v -3.125326 4.030581 -8.376717
f 1345 1346 1347
f 1345 1347 1348
v -3.125326 4.030581 -8.376717
v -3.567180 4.030581 -9.561006
v -2.892282 3.921685 -9.812808
v -2.450427 3.921685 -8.628519
f 1349 1350 1351
f 1349 1351 1352
v -2.450427 3.921685 -8.628519
v -2.892282 3.921685 -9.812808
v -2.320131 3.611574 -10.026276
v -1.878276 3.611574 -8.841987
f 1353 1354 1355
f 1353 1355 1356
v -1.878276 3.611574 -8.841987
v -2.320131 3.611574 -10.026276
v -1.937831 3.147460 -10.168911
v -1.495977 3.147460 -8.984622
f 1357 1358 1359
f 1357 1359 1360
v -1.495977 3.147460 -8.984622
v -1.937831 3.147460 -10.168911
v -1.803586 2.600000 -10.218997
v -1.361731 2.600000 -9.034708
f 1361 1362 1363
f 1361 1363 1364
v -5.330774 2.600000 -8.903015
v -5.772629 2.600000 -10.087304
v -5.638383 3.147460 -10.137391
v -5.196529 3.147460 -8.953101
f 1365 1366 1367
f 1365 1367 1368
v -5.196529 3.147460 -8.953101
v -5.638383 3.147460 -10.137391
v -5.256084 3.611574 -10.280025
v -4.814229 3.611574 -9.095736
f 1369 1370 1371
f 1369 1371 1372
v -4.814229 3.611574 -9.095736
v -5.256084 3.611574 -10.280025
v -4.683933 3.921685 -10.493493
v -4.242078 3.921685 -9.309204
f 1373 1374 1375
f 1373 1375 1376
v -4.242078 3.921685 -9.309204
v -4.683933 3.921685 -10.493493
v -4.009034 4.030581 -10.745295
v -3.567180 4.030581 -9.561006
f 1377 1378 1379
f 1377 1379 1380
v -3.567180 4.030581 -9.561006
v -4.009034 4.030581 -10.745295
v -3.334136 3.921685 -10.997097
v -2.892282 3.921685 -9.812808
f 1381 1382 1383
f 1381 1383 1384
v -2.892282 3.921685 -9.812808
v -3.334136 3.921685 -10.997097
v -2.761985 3.611574 -11.210565
v -2.320131 3.611574 -10.026276
f 1385 1386 1387
f 1385 1387 1388
v -2.320131 3.611574 -10.026276
v -2.761985 3.611574 -11.210565
v -2.379686 3.147460 -11.353200
v -1.937831 3.147460 -10.168911
f 1389 1390 1391
f 1389 1391 1392
v -1.937831 3.147460 -10.168911
v -2.379686 3.147460 -11.353200
v -2.245440 2.600000 -11.403286
v -1.803586 2.600000 -10.218997
f 1393 1394 1395
f 1393 1395 1396
v -5.772629 2.600000 -10.087304
v -6.214483 2.600000 -11.271593
v -6.080237 3.147460 -11.321680
v -5.638383 3.147460 -10.137391
f 1397 1398 1399
f 1397 1399 1400
v -5.638383 3.147460 -10.137391
v -6.080237 3.147460 -11.321680
v -5.697938 3.611574 -11.464314
v -5.256084 3.611574 -10.280025
f 1401 1402 1403
f 1401 1403 1404
v -5.256084 3.611574 -10.280025
v -5.697938 3.611574 -11.464314
v -5.125787 3.921685 -11.677782
v -4.683933 3.921685 -10.493493
f 1405 1406 1407
f 1405 1407 1408
v -4.683933 3.921685 -10.493493
v -5.125787 3.921685 -11.677782
v -4.450889 4.030581 -11.929584
v -4.009034 4.030581 -10.745295
f 1409 1410 1411
f 1409 1411 1412
v -4.009034 4.030581 -10.745295
v -4.450889 4.030581 -11.929584
v -3.775991 3.921685 -12.181387
v -3.334136 3.921685 -10.997097
f 1413 1414 1415
f 1413 1415 1416
v -3.334136 3.921685 -10.997097
v -3.775991 3.921685 -12.181387
v -3.203839 3.611574 -12.394854
v -2.761985 3.611574 -11.210565
f 1417 1418 1419
f 1417 1419 1420
v -2.761985 3.611574 -11.210565
v -3.203839 3.611574 -12.394854
v -2.821540 3.147460 -12.537489
v -2.379686 3.147460 -11.353200
f 1421 1422 1423
f 1421 1423 1424
v -2.379686 3.147460 -11.353200
v -2.821540 3.147460 -12.537489
v -2.687295 2.600000 -12.587575
v -2.245440 2.600000 -11.403286
f 1425 1426 1427
f 1425 1427 1428
v -4.450889 2.600000 -11.929584
v -6.214483 2.600000 -11.271593
v -6.080237 3.147460 -11.321680
f 1429 1430 1431
v -4.450889 2.600000 -11.929584
v -6.080237 3.147460 -11.321680
v -5.697938 3.611574 -11.464314
f 1432 1433 1434
v -4.450889 2.600000 -11.929584
v -5.697938 3.611574 -11.464314
v -5.125787 3.921685 -11.677782
f 1435 1436 1437
v -4.450889 2.600000 -11.929584
v -5.125787 3.921685 -11.677782
v -4.450889 4.030581 -11.929584
f 1438 1439 1440
v -4.450889 2.600000 -11.929584
v -4.450889 4.030581 -11.929584
v -3.775991 3.921685 -12.181387
f 1441 1442 1443
v -4.450889 2.600000 -11.929584
v -3.775991 3.921685 -12.181387
v -3.203839 3.611574 -12.394854
f 1444 1445 1446
v -4.450889 2.600000 -11.929584
v -3.203839 3.611574 -12.394854
v -2.821540 3.147460 -12.537489
f 1447 1448 1449
v -4.450889 2.600000 -11.929584
v -2.821540 3.147460 -12.537489
v -2.687295 2.600000 -12.587575
f 1450 1451 1452
v 1.035970 0.900000 4.320086
v 0.713739 0.900000 5.478899
v 0.713739 2.600000 5.478899
v 1.035970 2.600000 4.320086
f 1453 1454 1455
f 1453 1455 1456
v 0.713739 0.900000 5.478899
v 0.391509 0.900000 6.637712
v 0.391509 2.600000 6.637712
v 0.713739 2.600000 5.478899
f 1457 1458 1459
f 1457 1459 1460
v 0.391509 0.900000 6.637712
v 0.069278 0.900000 7.796526
v 0.069278 2.600000 7.796526
v 0.391509 2.600000 6.637712
f 1461 1462 1463
f 1461 1463 1464
v 0.069278 0.900000 7.796526
v -0.252952 0.900000 8.955339
v -0.252952 2.600000 8.955339
v 0.069278 2.600000 7.796526
f 1465 1466 1467
f 1465 1467 1468
v -0.252952 0.900000 8.955339
v -0.575183 0.900000 10.114152
v -0.575183 2.600000 10.114152
v -0.252952 2.600000 8.955339
f 1469 1470 1471
f 1469 1471 1472
v -0.575183 0.900000 10.114152
v -0.897413 0.900000 11.272966
v -0.897413 2.600000 11.272966
v -0.575183 2.600000 10.114152
f 1473 1474 1475
f 1473 1475 1476
v -0.897413 0.900000 11.272966
v -1.219644 0.900000 12.431779
v -1.219644 2.600000 12.431779
v -0.897413 2.600000 11.272966
f 1477 1478 1479
f 1477 1479 1480
v -3.117388 0.900000 3.165164
v -3.439619 0.900000 4.323977
v -3.439619 2.600000 4.323977
v -3.117388 2.600000 3.165164
f 1481 1482 1483
f 1481 1483 1484
v -3.439619 0.900000 4.323977
v -3.761849 0.900000 5.482791
v -3.761849 2.600000 5.482791
v -3.439619 2.600000 4.323977
f 1485 1486 1487
f 1485 1487 1488
v -3.761849 0.900000 5.482791
v -4.084080 0.900000 6.641604
v -4.084080 2.600000 6.641604
v -3.761849 2.600000 5.482791
f 1489 1490 1491
f 1489 1491 1492
v -4.728541 0.900000 8.959231
v -5.050771 0.900000 10.118044
v -5.050771 2.600000 10.118044
v -4.728541 2.600000 8.959231
f 1493 1494 1495
f 1493 1495 1496
v -5.050771 0.900000 10.118044
v -5.373002 0.900000 11.276857
v -5.373002 2.600000 11.276857
v -5.050771 2.600000 10.118044
f 1497 1498 1499
f 1497 1499 1500
v -5.373002 0.900000 11.276857
v -3.988549 0.900000 11.661831
v -3.988549 2.600000 11.661831
v -5.373002 2.600000 11.276857
f 1501 1502 1503
f 1501 1503 1504
v -3.988549 0.900000 11.661831
v -2.604096 0.900000 12.046805
v -2.604096 2.600000 12.046805
v -3.988549 2.600000 11.661831
f 1505 1506 1507
f 1505 1507 1508
v -2.604096 0.900000 12.046805
v -1.219644 0.900000 12.431779
v -1.219644 2.600000 12.431779
v -2.604096 2.600000 12.046805
f 1509 1510 1511
f 1509 1511 1512
v 1.035970 2.600000 4.320086
v 0.713739 2.600000 5.478899
v 0.555662 3.226896 5.434942
v 0.877892 3.226896 4.276129
f 1513 1514 1515
f 1513 1515 1516
v 0.877892 3.226896 4.276129
v 0.555662 3.226896 5.434942
v 0.105494 3.758353 5.309765
v 0.427725 3.758353 4.150951
f 1517 1518 1519
f 1517 1519 1520
v 0.427725 3.758353 4.150951
v 0.105494 3.758353 5.309765
v -0.568229 4.113461 5.122423
v -0.245999 4.113461 3.963609
f 1521 1522 1523
f 1521 1523 1524
v -0.245999 4.113461 3.963609
v -0.568229 4.113461 5.122423
v -1.362940 4.238158 4.901438
v -1.040709 4.238158 3.742625
f 1525 1526 1527
f 1525 1527 1528
v -1.040709 4.238158 3.742625
v -1.362940 4.238158 4.901438
v -2.157650 4.113461 4.680453
v -1.835420 4.113461 3.521640
f 1529 1530 1531
f 1529 1531 1532
v -1.835420 4.113461 3.521640
v -2.157650 4.113461 4.680453
v -2.831374 3.758353 4.493112
v -2.509143 3.758353 3.334298
f 1533 1534 1535
f 1533 1535 1536
v -2.509143 3.758353 3.334298
v -2.831374 3.758353 4.493112
v -3.281541 3.226896 4.367934
v -2.959311 3.226896 3.209121
f 1537 1538 1539
f 1537 1539 1540
v -2.959311 3.226896 3.209121
v -3.281541 3.226896 4.367934
v -3.439619 2.600000 4.323977
v -3.117388 2.600000 3.165164
f 1541 1542 1543
f 1541 1543 1544
v 0.713739 2.600000 5.478899
v 0.391509 2.600000 6.637712
v 0.233431 3.226896 6.593756
v 0.555662 3.226896 5.434942
f 1545 1546 1547
f 1545 1547 1548
v 0.555662 3.226896 5.434942
v 0.233431 3.226896 6.593756
v -0.216736 3.758353 6.468578
v 0.105494 3.758353 5.309765
f 1549 1550 1551
f 1549 1551 1552
v 0.105494 3.758353 5.309765
v -0.216736 3.758353 6.468578
v -0.890460 4.113461 6.281236
v -0.568229 4.113461 5.122423
f 1553 1554 1555
f 1553 1555 1556
v -0.568229 4.113461 5.122423
v -0.890460 4.113461 6.281236
v -1.685170 4.238158 6.060251
v -1.362940 4.238158 4.901438
f 1557 1558 1559
f 1557 1559 1560
v -1.362940 4.238158 4.901438
v -1.685170 4.238158 6.060251
v -2.479881 4.113461 5.839267
v -2.157650 4.113461 4.680453
f 1561 1562 1563
f 1561 1563 1564
v -2.157650 4.113461 4.680453
v -2.479881 4.113461 5.839267
v -3.153604 3.758353 5.651925
v -2.831374 3.758353 4.493112
f 1565 1566 1567
f 1565 1567 1568
v -2.831374 3.758353 4.493112
v -3.153604 3.758353 5.651925
v -3.603772 3.226896 5.526747
v -3.281541 3.226896 4.367934
f 1569 1570 1571
f 1569 1571 1572
v -3.281541 3.226896 4.367934
v -3.603772 3.226896 5.526747
v -3.761849 2.600000 5.482791
v -3.439619 2.600000 4.323977
f 1573 1574 1575
f 1573 1575 1576
v 0.391509 2.600000 6.637712
v 0.069278 2.600000 7.796526
v -0.088799 3.226896 7.752569
v 0.233431 3.226896 6.593756
f 1577 1578 1579
f 1577 1579 1580
v 0.233431 3.226896 6.593756
v -0.088799 3.226896 7.752569
v -0.538967 3.758353 7.627391
v -0.216736 3.758353 6.468578
f 1581 1582 1583
f 1581 1583 1584
v -0.216736 3.758353 6.468578
v -0.538967 3.758353 7.627391
v -1.212690 4.113461 7.440049
v -0.890460 4.113461 6.281236
f 1585 1586 1587
f 1585 1587 1588
v -0.890460 4.113461 6.281236
v -1.212690 4.113461 7.440049
v -2.007401 4.238158 7.219065
v -1.685170 4.238158 6.060251
f 1589 1590 1591
f 1589 1591 1592
v -1.685170 4.238158 6.060251
v -2.007401 4.238158 7.219065
v -2.802111 4.113461 6.998080
v -2.479881 4.113461 5.839267
f 1593 1594 1595
f 1593 1595 1596
v -2.479881 4.113461 5.839267
v -2.802111 4.113461 6.998080
v -3.475835 3.758353 6.810738
v -3.153604 3.758353 5.651925
f 1597 1598 1599
f 1597 1599 1600
v -3.153604 3.758353 5.651925
v -3.475835 3.758353 6.810738
v -3.926002 3.226896 6.685561
v -3.603772 3.226896 5.526747
f 1601 1602 1603
f 1601 1603 1604
v -3.603772 3.226896 5.526747
v -3.926002 3.226896 6.685561
v -4.084080 2.600000 6.641604
v -3.761849 2.600000 5.482791
f 1605 1606 1607
f 1605 1607 1608
v 0.069278 2.600000 7.796526
v -0.252952 2.600000 8.955339
v -0.411030 3.226896 8.911382
v -0.088799 3.226896 7.752569
f 1609 1610 1611
f 1609 1611 1612
v -0.088799 3.226896 7.752569
v -0.411030 3.226896 8.911382
v -0.861197 3.758353 8.786205
v -0.538967 3.758353 7.627391
f 1613 1614 1615
f 1613 1615 1616
v -0.538967 3.758353 7.627391
v -0.861197 3.758353 8.786205
v -1.534921 4.113461 8.598863
v -1.212690 4.113461 7.440049
f 1617 1618 1619
f 1617 1619 1620
v -1.212690 4.113461 7.440049
v -1.534921 4.113461 8.598863
v -2.329631 4.238158 8.377878
v -2.007401 4.238158 7.219065
f 1621 1622 1623
f 1621 1623 1624
v -2.007401 4.238158 7.219065
v -2.329631 4.238158 8.377878
v -3.124342 4.113461 8.156893
v -2.802111 4.113461 6.998080
f 1625 1626 1627
f 1625 1627 1628
v -2.802111 4.113461 6.998080
v -3.124342 4.113461 8.156893
v -3.798065 3.758353 7.969552
v -3.475835 3.758353 6.810738
f 1629 1630 1631
f 1629 1631 1632
v -3.475835 3.758353 6.810738
v -3.798065 3.758353 7.969552
v -4.248233 3.226896 7.844374
v -3.926002 3.226896 6.685561
f 1633 1634 1635
f 1633 1635 1636
v -3.926002 3.226896 6.685561
v -4.248233 3.226896 7.844374
v -4.406310 2.600000 7.800417
v -4.084080 2.600000 6.641604
f 1637 1638 1639
f 1637 1639 1640
v -0.252952 2.600000 8.955339
v -0.575183 2.600000 10.114152
v -0.733260 3.226896 10.070196
v -0.411030 3.226896 8.911382
f 1641 1642 1643
f 1641 1643 1644
v -0.411030 3.226896 8.911382
v -0.733260 3.226896 10.070196
v -1.183428 3.758353 9.945018
v -0.861197 3.758353 8.786205
f 1645 1646 1647
f 1645 1647 1648
v -0.861197 3.758353 8.786205
v -1.183428 3.758353 9.945018
v -1.857151 4.113461 9.757676
v -1.534921 4.113461 8.598863
f 1649 1650 1651
f 1649 1651 1652
v -1.534921 4.113461 8.598863
v -1.857151 4.113461 9.757676
v -2.651862 4.238158 9.536691
v -2.329631 4.238158 8.377878
f 1653 1654 1655
f 1653 1655 1656
v -2.329631 4.238158 8.377878
v -2.651862 4.238158 9.536691
v -3.446572 4.113461 9.315707
v -3.124342 4.113461 8.156893
f 1657 1658 1659
f 1657 1659 1660
v -3.124342 4.113461 8.156893
v -3.446572 4.113461 9.315707
v -4.120296 3.758353 9.128365
v -3.798065 3.758353 7.969552
f 1661 1662 1663
f 1661 1663 1664
v -3.798065 3.758353 7.969552
v -4.120296 3.758353 9.128365
v -4.570463 3.226896 9.003187
v -4.248233 3.226896 7.844374
f 1665 1666 1667
f 1665 1667 1668
v -4.248233 3.226896 7.844374
v -4.570463 3.226896 9.003187
v -4.728541 2.600000 8.959231
v -4.406310 2.600000 7.800417
f 1669 1670 1671
f 1669 1671 1672
v -0.575183 2.600000 10.114152
v -0.897413 2.600000 11.272966
v -1.055491 3.226896 11.229009
v -0.733260 3.226896 10.070196
f 1673 1674 1675
f 1673 1675 1676
v -0.733260 3.226896 10.070196
v -1.055491 3.226896 11.229009
v -1.505658 3.758353 11.103831
v -1.183428 3.758353 9.945018
f 1677 1678 1679
f 1677 1679 1680
v -1.183428 3.758353 9.945018
v -1.505658 3.758353 11.103831
v -2.179382 4.113461 10.916489
v -1.857151 4.113461 9.757676
f 1681 1682 1683
f 1681 1683 1684
v -1.857151 4.113461 9.757676
v -2.179382 4.113461 10.916489
v -2.974092 4.238158 10.695505
v -2.651862 4.238158 9.536691
f 1685 1686 1687
f 1685 1687 1688
v -2.651862 4.238158 9.536691
v -2.974092 4.238158 10.695505
v -3.768803 4.113461 10.474520
v -3.446572 4.113461 9.315707
f 1689 1690 1691
f 1689 1691 1692
v -3.446572 4.113461 9.315707
v -3.768803 4.113461 10.474520
v -4.442526 3.758353 10.287178
v -4.120296 3.758353 9.128365
f 1693 1694 1695
f 1693 1695 1696
v -4.120296 3.758353 9.128365
v -4.442526 3.758353 10.287178
v -4.892694 3.226896 10.162001
v -4.570463 3.226896 9.003187
f 1697 1698 1699
f 1697 1699 1700
v -4.570463 3.226896 9.003187
v -4.892694 3.226896 10.162001
v -5.050771 2.600000 10.118044
v -4.728541 2.600000 8.959231
f 1701 1702 1703
f 1701 1703 1704
v -0.897413 2.600000 11.272966
v -1.219644 2.600000 12.431779
v -1.377721 3.226896 12.387822
v -1.055491 3.226896 11.229009
f 1705 1706 1707
f 1705 1707 1708
v -1.055491 3.226896 11.229009
v -1.377721 3.226896 12.387822
v -1.827889 3.758353 12.262645
v -1.505658 3.758353 11.103831
f 1709 1710 1711
f 1709 1711 1712
v -1.505658 3.758353 11.103831
v -1.827889 3.758353 12.262645
v -2.501612 4.113461 12.075303
v -2.179382 4.113461 10.916489
f 1713 1714 1715
f 1713 1715 1716
v -2.179382 4.113461 10.916489
v -2.501612 4.113461 12.075303
v -3.296323 4.238158 11.854318
v -2.974092 4.238158 10.695505
f 1717 1718 1719
f 1717 1719 1720
v -2.974092 4.238158 10.695505
v -3.296323 4.238158 11.854318
v -4.091033 4.113461 11.633333
v -3.768803 4.113461 10.474520
f 1721 1722 1723
f 1721 1723 1724
v -3.768803 4.113461 10.474520
v -4.091033 4.113461 11.633333
v -4.764757 3.758353 11.445992
v -4.442526 3.758353 10.287178
f 1725 1726 1727
f 1725 1727 1728
v -4.442526 3.758353 10.287178
v -4.764757 3.758353 11.445992
v -5.214924 3.226896 11.320814
v -4.892694 3.226896 10.162001
f 1729 1730 1731
f 1729 1731 1732
v -4.892694 3.226896 10.162001
v -5.214924 3.226896 11.320814
v -5.373002 2.600000 11.276857
v -5.050771 2.600000 10.118044
f 1733 1734 1735
f 1733 1735 1736
v -3.296323 2.600000 11.854318
v -1.219644 2.600000 12.431779
v -1.377721 3.226896 12.387822
f 1737 1738 1739
v -3.296323 2.600000 11.854318
v -1.377721 3.226896 12.387822
v -1.827889 3.758353 12.262645
f 1740 1741 1742
v -3.296323 2.600000 11.854318
v -1.827889 3.758353 12.262645
v -2.501612 4.113461 12.075303
f 1743 1744 1745
v -3.296323 2.600000 11.854318
v -2.501612 4.113461 12.075303
v -3.296323 4.238158 11.854318
f 1746 1747 1748
v -3.296323 2.600000 11.854318
v -3.296323 4.238158 11.854318
v -4.091033 4.113461 11.633333
f 1749 1750 1751
v -3.296323 2.600000 11.854318
v -4.091033 4.113461 11.633333
v -4.764757 3.758353 11.445992
f 1752 1753 1754
v -3.296323 2.600000 11.854318
v -4.764757 3.758353 11.445992
v -5.214924 3.226896 11.320814
f 1755 1756 1757
v -3.296323 2.600000 11.854318
v -5.214924 3.226896 11.320814
v -5.373002 2.600000 11.276857
f 1758 1759 1760
v 1.833417 0.900000 -3.937451
v 2.857757 0.900000 -4.751091
v 2.857757 2.600000 -4.751091
v 1.833417 2.600000 -3.937451
f 1761 1762 1763
f 1761 1763 1764
v 2.857757 0.900000 -4.751091
v 3.882096 0.900000 -5.564732
v 3.882096 2.600000 -5.564732
v 2.857757 2.600000 -4.751091
f 1765 1766 1767
f 1765 1767 1768
v 3.882096 0.900000 -5.564732
v 4.906436 0.900000 -6.378372
v 4.906436 2.600000 -6.378372
v 3.882096 2.600000 -5.564732
f 1769 1770 1771
f 1769 1771 1772
v 4.906436 0.900000 -6.378372
v 5.930775 0.900000 -7.192013
v 5.930775 2.600000 -7.192013
v 4.906436 2.600000 -6.378372
f 1773 1774 1775
f 1773 1775 1776
v 5.930775 0.900000 -7.192013
v 6.955115 0.900000 -8.005653
v 6.955115 2.600000 -8.005653
v 5.930775 2.600000 -7.192013
f 1777 1778 1779
f 1777 1779 1780
v 6.955115 0.900000 -8.005653
v 7.979454 0.900000 -8.819294
v 7.979454 2.600000 -8.819294
v 6.955115 2.600000 -8.005653
f 1781 1782 1783
f 1781 1783 1784
v 4.250205 0.900000 -0.894816
v 5.274544 0.900000 -1.708457
v 5.274544 2.600000 -1.708457
v 4.250205 2.600000 -0.894816
f 1785 1786 1787
f 1785 1787 1788
v 5.274544 0.900000 -1.708457
v 6.298884 0.900000 -2.522097
v 6.298884 2.600000 -2.522097
v 5.274544 2.600000 -1.708457
f 1789 1790 1791
f 1789 1791 1792
v 6.298884 0.900000 -2.522097
v 7.323223 0.900000 -3.335738
v 7.323223 2.600000 -3.335738
v 6.298884 2.600000 -2.522097
f 1793 1794 1795
f 1793 1795 1796
v 7.323223 0.900000 -3.335738
v 8.347563 0.900000 -4.149378
v 8.347563 2.600000 -4.149378
v 7.323223 2.600000 -3.335738
f 1797 1798 1799
f 1797 1799 1800
v 8.347563 0.900000 -4.149378
v 9.371902 0.900000 -4.963019
v 9.371902 2.600000 -4.963019
v 8.347563 2.600000 -4.149378
f 1801 1802 1803
f 1801 1803 1804
v 9.371902 0.900000 -4.963019
v 10.396242 0.900000 -5.776659
v 10.396242 2.600000 -5.776659
v 9.371902 2.600000 -4.963019
f 1805 1806 1807
f 1805 1807 1808
v 1.833417 2.600000 -3.937451
v 2.857757 2.600000 -4.751091
v 4.066151 3.843417 -3.229774
v 3.041811 3.843417 -2.416133
f 1809 1810 1811
f 1809 1811 1812
v 4.250205 2.600000 -0.894816
v 5.274544 2.600000 -1.708457
v 4.066151 3.843417 -3.229774
v 3.041811 3.843417 -2.416133
f 1813 1814 1815
f 1813 1815 1816
v 2.857757 2.600000 -4.751091
v 3.882096 2.600000 -5.564732
v 5.090490 3.843417 -4.043415
v 4.066151 3.843417 -3.229774
f 1817 1818 1819
f 1817 1819 1820
v 5.274544 2.600000 -1.708457
v 6.298884 2.600000 -2.522097
v 5.090490 3.843417 -4.043415
v 4.066151 3.843417 -3.229774
f 1821 1822 1823
f 1821 1823 1824
v 3.882096 2.600000 -5.564732
v 4.906436 2.600000 -6.378372
v 6.114830 3.843417 -4.857055
v 5.090490 3.843417 -4.043415
f 1825 1826 1827
f 1825 1827 1828
v 6.298884 2.600000 -2.522097
v 7.323223 2.600000 -3.335738
v 6.114830 3.843417 -4.857055
v 5.090490 3.843417 -4.043415
f 1829 1830 1831
f 1829 1831 1832
v 4.906436 2.600000 -6.378372
v 5.930775 2.600000 -7.192013
v 7.139169 3.843417 -5.670696
v 6.114830 3.843417 -4.857055
f 1833 1834 1835
f 1833 1835 1836
v 7.323223 2.600000 -3.335738
v 8.347563 2.600000 -4.149378
v 7.139169 3.843417 -5.670696
v 6.114830 3.843417 -4.857055
f 1837 1838 1839
f 1837 1839 1840
v 5.930775 2.600000 -7.192013
v 6.955115 2.600000 -8.005653
v 8.163508 3.843417 -6.484336
v 7.139169 3.843417 -5.670696
f 1841 1842 1843
f 1841 1843 1844
v 8.347563 2.600000 -4.149378
v 9.371902 2.600000 -4.963019
v 8.163508 3.843417 -6.484336
v 7.139169 3.843417 -5.670696
f 1845 1846 1847
f 1845 1847 1848
v 6.955115 2.600000 -8.005653
v 7.979454 2.600000 -8.819294
v 9.187848 3.843417 -7.297977
v 8.163508 3.843417 -6.484336
f 1849 1850 1851
f 1849 1851 1852
v 9.371902 2.600000 -4.963019
v 10.396242 2.600000 -5.776659
v 9.187848 3.843417 -7.297977
v 8.163508 3.843417 -6.484336
f 1853 1854 1855
f 1853 1855 1856
v 7.979454 2.600000 -8.819294
v 10.396242 2.600000 -5.776659
v 9.187848 3.843417 -7.297977
f 1857 1858 1859
v 8.330886 0.900000 -8.376855
v 9.303663 0.900000 -9.149539
v 9.303663 2.600000 -9.149539
v 8.330886 2.600000 -8.376855
f 1860 1861 1862
f 1860 1862 1863
v 9.303663 0.900000 -9.149539
v 10.276439 0.900000 -9.922223
v 10.276439 2.600000 -9.922223
v 9.303663 2.600000 -9.149539
f 1864 1865 1866
f 1864 1866 1867
v 10.276439 0.900000 -9.922223
v 11.249216 0.900000 -10.694906
v 11.249216 2.600000 -10.694906
v 10.276439 2.600000 -9.922223
f 1868 1869 1870
f 1868 1870 1871
v 11.249216 0.900000 -10.694906
v 12.221992 0.900000 -11.467590
v 12.221992 2.600000 -11.467590
v 11.249216 2.600000 -10.694906
f 1872 1873 1874
f 1872 1874 1875
v 12.221992 0.900000 -11.467590
v 13.194769 0.900000 -12.240274
v 13.194769 2.600000 -12.240274
v 12.221992 2.600000 -11.467590
f 1876 1877 1878
f 1876 1878 1879
v 10.044809 0.900000 -6.219098
v 11.017586 0.900000 -6.991782
v 11.017586 2.600000 -6.991782
v 10.044809 2.600000 -6.219098
f 1880 1881 1882
f 1880 1882 1883
v 11.017586 0.900000 -6.991782
v 11.990362 0.900000 -7.764465
v 11.990362 2.600000 -7.764465
v 11.017586 2.600000 -6.991782
f 1884 1885 1886
f 1884 1886 1887
v 11.990362 0.900000 -7.764465
v 12.963139 0.900000 -8.537149
v 12.963139 2.600000 -8.537149
v 11.990362 2.600000 -7.764465
f 1888 1889 1890
f 1888 1890 1891
v 12.963139 0.900000 -8.537149
v 13.935915 0.900000 -9.309833
v 13.935915 2.600000 -9.309833
v 12.963139 2.600000 -8.537149
f 1892 1893 1894
f 1892 1894 1895
v 13.935915 0.900000 -9.309833
v 14.908692 0.900000 -10.082516
v 14.908692 2.600000 -10.082516
v 13.935915 2.600000 -9.309833
f 1896 1897 1898
f 1896 1898 1899
v 14.908692 0.900000 -10.082516
v 14.051730 0.900000 -11.161395
v 14.051730 2.600000 -11.161395
v 14.908692 2.600000 -10.082516
f 1900 1901 1902
f 1900 1902 1903
v 14.051730 0.900000 -11.161395
v 13.194769 0.900000 -12.240274
v 13.194769 2.600000 -12.240274
v 14.051730 2.600000 -11.161395
f 1904 1905 1906
f 1904 1906 1907
v 8.330886 2.600000 -8.376855
v 9.303663 2.600000 -9.149539
v 9.368895 3.000722 -9.067414
v 8.396119 3.000722 -8.294731
f 1908 1909 1910
f 1908 1910 1911
v 8.396119 3.000722 -8.294731
v 9.368895 3.000722 -9.067414
v 9.554661 3.340437 -8.833543
v 8.581885 3.340437 -8.060859
f 1912 1913 1914
f 1912 1914 1915
v 8.581885 3.340437 -8.060859
v 9.554661 3.340437 -8.833543
v 9.832679 3.567428 -8.483529
v 8.859903 3.567428 -7.710846
f 1916 1917 1918
f 1916 1918 1919
v 8.859903 3.567428 -7.710846
v 9.832679 3.567428 -8.483529
v 10.160624 3.647136 -8.070660
v 9.187848 3.647136 -7.297977
f 1920 1921 1922
f 1920 1922 1923
v 9.187848 3.647136 -7.297977
v 10.160624 3.647136 -8.070660
v 10.488569 3.567428 -7.657791
v 9.515793 3.567428 -6.885108
f 1924 1925 1926
f 1924 1926 1927
v 9.515793 3.567428 -6.885108
v 10.488569 3.567428 -7.657791
v 10.766588 3.340437 -7.307778
v 9.793811 3.340437 -6.535094
f 1928 1929 1930
f 1928 1930 1931
v 9.793811 3.340437 -6.535094
v 10.766588 3.340437 -7.307778
v 10.952354 3.000722 -7.073906
v 9.979577 3.000722 -6.301223
f 1932 1933 1934
f 1932 1934 1935
v 9.979577 3.000722 -6.301223
v 10.952354 3.000722 -7.073906
v 11.017586 2.600000 -6.991782
v 10.044809 2.600000 -6.219098
f 1936 1937 1938
f 1936 1938 1939
v 9.303663 2.600000 -9.149539
v 10.276439 2.600000 -9.922223
v 10.341672 3.000722 -9.840098
v 9.368895 3.000722 -9.067414
f 1940 1941 1942
f 1940 1942 1943
v 9.368895 3.000722 -9.067414
v 10.341672 3.000722 -9.840098
v 10.527438 3.340437 -9.606226
v 9.554661 3.340437 -8.833543
f 1944 1945 1946
f 1944 1946 1947
v 9.554661 3.340437 -8.833543
v 10.527438 3.340437 -9.606226
v 10.805456 3.567428 -9.256213
v 9.832679 3.567428 -8.483529
f 1948 1949 1950
f 1948 1950 1951
v 9.832679 3.567428 -8.483529
v 10.805456 3.567428 -9.256213
v 11.133401 3.647136 -8.843344
v 10.160624 3.647136 -8.070660
f 1952 1953 1954
f 1952 1954 1955
v 10.160624 3.647136 -8.070660
v 11.133401 3.647136 -8.843344
v 11.461346 3.567428 -8.430475
v 10.488569 3.567428 -7.657791
f 1956 1957 1958
f 1956 1958 1959
v 10.488569 3.567428 -7.657791
v 11.461346 3.567428 -8.430475
v 11.739364 3.340437 -8.080461
v 10.766588 3.340437 -7.307778
f 1960 1961 1962
f 1960 1962 1963
v 10.766588 3.340437 -7.307778
v 11.739364 3.340437 -8.080461
v 11.925130 3.000722 -7.846590
v 10.952354 3.000722 -7.073906
f 1964 1965 1966
f 1964 1966 1967
v 10.952354 3.000722 -7.073906
v 11.925130 3.000722 -7.846590
v 11.990362 2.600000 -7.764465
v 11.017586 2.600000 -6.991782
f 1968 1969 1970
f 1968 1970 1971
v 10.276439 2.600000 -9.922223
v 11.249216 2.600000 -10.694906
v 11.314448 3.000722 -10.612782
v 10.341672 3.000722 -9.840098
f 1972 1973 1974
f 1972 1974 1975
v 10.341672 3.000722 -9.840098
v 11.314448 3.000722 -10.612782
v 11.500214 3.340437 -10.378910
v 10.527438 3.340437 -9.606226
f 1976 1977 1978
f 1976 1978 1979
v 10.527438 3.340437 -9.606226
v 11.500214 3.340437 -10.378910
v 11.778232 3.567428 -10.028897
v 10.805456 3.567428 -9.256213
f 1980 1981 1982
f 1980 1982 1983
v 10.805456 3.567428 -9.256213
v 11.778232 3.567428 -10.028897
v 12.106177 3.647136 -9.616028
v 11.133401 3.647136 -8.843344
f 1984 1985 1986
f 1984 1986 1987
v 11.133401 3.647136 -8.843344
v 12.106177 3.647136 -9.616028
v 12.434122 3.567428 -9.203159
v 11.461346 3.567428 -8.430475
f 1988 1989 1990
f 1988 1990 1991
v 11.461346 3.567428 -8.430475
v 12.434122 3.567428 -9.203159
v 12.712141 3.340437 -8.853145
v 11.739364 3.340437 -8.080461
f 1992 1993 1994
f 1992 1994 1995
v 11.739364 3.340437 -8.080461
v 12.712141 3.340437 -8.853145
v 12.897907 3.000722 -8.619274
v 11.925130 3.000722 -7.846590
f 1996 1997 1998
f 1996 1998 1999
v 11.925130 3.000722 -7.846590
v 12.897907 3.000722 -8.619274
v 12.963139 2.600000 -8.537149
v 11.990362 2.600000 -7.764465
f 2000 2001 2002
f 2000 2002 2003
v 11.249216 2.600000 -10.694906
v 12.221992 2.600000 -11.467590
v 12.287225 3.000722 -11.385465
v 11.314448 3.000722 -10.612782
f 2004 2005 2006
f 2004 2006 2007
v 11.314448 3.000722 -10.612782
v 12.287225 3.000722 -11.385465
v 12.472990 3.340437 -11.151594
v 11.500214 3.340437 -10.378910
f 2008 2009 2010
f 2008 2010 2011
v 11.500214 3.340437 -10.378910
v 12.472990 3.340437 -11.151594
v 12.751009 3.567428 -10.801580
v 11.778232 3.567428 -10.028897
f 2012 2013 2014
f 2012 2014 2015
v 11.778232 3.567428 -10.028897
v 12.751009 3.567428 -10.801580
v 13.078954 3.647136 -10.388711
v 12.106177 3.647136 -9.616028
f 2016 2017 2018
f 2016 2018 2019
v 12.106177 3.647136 -9.616028
v 13.078954 3.647136 -10.388711
v 13.406899 3.567428 -9.975842
v 12.434122 3.567428 -9.203159
f 2020 2021 2022
f 2020 2022 2023
v 12.434122 3.567428 -9.203159
v 13.406899 3.567428 -9.975842
v 13.684917 3.340437 -9.625829
v 12.712141 3.340437 -8.853145
f 2024 2025 2026
f 2024 2026 2027
v 12.712141 3.340437 -8.853145
v 13.684917 3.340437 -9.625829
v 13.870683 3.000722 -9.391957
v 12.897907 3.000722 -8.619274
f 2028 2029 2030
f 2028 2030 2031
v 12.897907 3.000722 -8.619274
v 13.870683 3.000722 -9.391957
v 13.935915 2.600000 -9.309833
v 12.963139 2.600000 -8.537149
f 2032 2033 2034
f 2032 2034 2035
v 12.221992 2.600000 -11.467590
v 13.194769 2.600000 -12.240274
v 13.260001 3.000722 -12.158149
v 12.287225 3.000722 -11.385465
f 2036 2037 2038
f 2036 2038 2039
v 12.287225 3.000722 -11.385465
v 13.260001 3.000722 -12.158149
v 13.445767 3.340437 -11.924278
v 12.472990 3.340437 -11.151594
f 2040 2041 2042
f 2040 2042 2043
v 12.472990 3.340437 -11.151594
v 13.445767 3.340437 -11.924278
v 13.723785 3.567428 -11.574264
v 12.751009 3.567428 -10.801580
f 2044 2045 2046
f 2044 2046 2047
v 12.751009 3.567428 -10.801580
v 13.723785 3.567428 -11.574264
v 14.051730 3.647136 -11.161395
v 13.078954 3.647136 -10.388711
f 2048 2049 2050
f 2048 2050 2051
v 13.078954 3.647136 -10.388711
v 14.051730 3.647136 -11.161395
v 14.379675 3.567428 -10.748526
v 13.406899 3.567428 -9.975842
f 2052 2053 2054
f 2052 2054 2055
v 13.406899 3.567428 -9.975842
v 14.379675 3.567428 -10.748526
v 14.657694 3.340437 -10.398513
v 13.684917 3.340437 -9.625829
f 2056 2057 2058
f 2056 2058 2059
v 13.684917 3.340437 -9.625829
v 14.657694 3.340437 -10.398513
v 14.843459 3.000722 -10.164641
v 13.870683 3.000722 -9.391957
f 2060 2061 2062
f 2060 2062 2063
v 13.870683 3.000722 -9.391957
v 14.843459 3.000722 -10.164641
v 14.908692 2.600000 -10.082516
v 13.935915 2.600000 -9.309833
f 2064 2065 2066
f 2064 2066 2067
v 14.051730 2.600000 -11.161395
v 13.194769 2.600000 -12.240274
v 13.260001 3.000722 -12.158149
f 2068 2069 2070
v 14.051730 2.600000 -11.161395
v 13.260001 3.000722 -12.158149
v 13.445767 3.340437 -11.924278
f 2071 2072 2073
v 14.051730 2.600000 -11.161395
v 13.445767 3.340437 -11.924278
v 13.723785 3.567428 -11.574264
f 2074 2075 2076
v 14.051730 2.600000 -11.161395
v 13.723785 3.567428 -11.574264
v 14.051730 3.647136 -11.161395
f 2077 2078 2079
v 14.051730 2.600000 -11.161395
v 14.051730 3.647136 -11.161395
v 14.379675 3.567428 -10.748526
f 2080 2081 2082
v 14.051730 2.600000 -11.161395
v 14.379675 3.567428 -10.748526
v 14.657694 3.340437 -10.398513
f 2083 2084 2085
v 14.051730 2.600000 -11.161395
v 14.657694 3.340437 -10.398513
v 14.843459 3.000722 -10.164641
f 2086 2087 2088
v 14.051730 2.600000 -11.161395
v 14.843459 3.000722 -10.164641
v 14.908692 2.600000 -10.082516
f 2089 2090 2091
v -4.846692 0.900000 9.384130
v -6.061473 0.900000 9.046337
v -6.061473 2.600000 9.046337
v -4.846692 2.600000 9.384130
f 2092 2093 2094
f 2092 2094 2095
v -6.061473 0.900000 9.046337
v -7.276253 0.900000 8.708544
v -7.276253 2.600000 8.708544
v -6.061473 2.600000 9.046337
f 2096 2097 2098
f 2096 2098 2099
v -7.276253 0.900000 8.708544
v -8.491034 0.900000 8.370750
v -8.491034 2.600000 8.370750
v -7.276253 2.600000 8.708544
f 2100 2101 2102
f 2100 2102 2103
v -8.491034 0.900000 8.370750
v -9.705814 0.900000 8.032957
v -9.705814 2.600000 8.032957
v -8.491034 2.600000 8.370750
f 2104 2105 2106
f 2104 2106 2107
v -3.966958 0.900000 6.220406
v -5.181738 0.900000 5.882613
v -5.181738 2.600000 5.882613
v -3.966958 2.600000 6.220406
f 2108 2109 2110
f 2108 2110 2111
v -5.181738 0.900000 5.882613
v -6.396519 0.900000 5.544820
v -6.396519 2.600000 5.544820
v -5.181738 2.600000 5.882613
f 2112 2113 2114
f 2112 2114 2115
v -6.396519 0.900000 5.544820
v -7.611299 0.900000 5.207027
v -7.611299 2.600000 5.207027
v -6.396519 2.600000 5.544820
f 2116 2117 2118
f 2116 2118 2119
v -7.611299 0.900000 5.207027
v -8.826080 0.900000 4.869233
v -8.826080 2.600000 4.869233
v -7.611299 2.600000 5.207027
f 2120 2121 2122
f 2120 2122 2123
v -8.826080 0.900000 4.869233
v -9.119325 0.900000 5.923808
v -9.119325 2.600000 5.923808
v -8.826080 2.600000 4.869233
f 2124 2125 2126
f 2124 2126 2127
v -9.119325 0.900000 5.923808
v -9.412569 0.900000 6.978383
v -9.412569 2.600000 6.978383
v -9.119325 2.600000 5.923808
f 2128 2129 2130
f 2128 2130 2131
v -9.412569 0.900000 6.978383
v -9.705814 0.900000 8.032957
v -9.705814 2.600000 8.032957
v -9.412569 2.600000 6.978383
f 2132 2133 2134
f 2132 2134 2135
v -4.846692 2.600000 9.384130
v -6.061473 2.600000 9.046337
v -6.027990 3.077523 8.925925
v -4.813209 3.077523 9.263718
f 2136 2137 2138
f 2136 2138 2139
v -4.813209 3.077523 9.263718
v -6.027990 3.077523 8.925925
v -5.932639 3.482348 8.583020
v -4.717858 3.482348 8.920813
f 2140 2141 2142
f 2140 2142 2143
v -4.717858 3.482348 8.920813
v -5.932639 3.482348 8.583020
v -5.789935 3.752844 8.069827
v -4.575155 3.752844 8.407621
f 2144 2145 2146
f 2144 2146 2147
v -4.575155 3.752844 8.407621
v -5.789935 3.752844 8.069827
v -5.621606 3.847829 7.464475
v -4.406825 3.847829 7.802268
f 2148 2149 2150
f 2148 2150 2151
v -4.406825 3.847829 7.802268
v -5.621606 3.847829 7.464475
v -5.453276 3.752844 6.859123
v -4.238495 3.752844 7.196916
f 2152 2153 2154
f 2152 2154 2155
v -4.238495 3.752844 7.196916
v -5.453276 3.752844 6.859123
v -5.310572 3.482348 6.345930
v -4.095792 3.482348 6.683723
f 2156 2157 2158
f 2156 2158 2159
v -4.095792 3.482348 6.683723
v -5.310572 3.482348 6.345930
v -5.215221 3.077523 6.003025
v -4.000441 3.077523 6.340818
f 2160 2161 2162
f 2160 2162 2163
v -4.000441 3.077523 6.340818
v -5.215221 3.077523 6.003025
v -5.181738 2.600000 5.882613
v -3.966958 2.600000 6.220406
f 2164 2165 2166
f 2164 2166 2167
v -6.061473 2.600000 9.046337
v -7.276253 2.600000 8.708544
v -7.242770 3.077523 8.588132
v -6.027990 3.077523 8.925925
f 2168 2169 2170
f 2168 2170 2171
v -6.027990 3.077523 8.925925
v -7.242770 3.077523 8.588132
v -7.147419 3.482348 8.245227
v -5.932639 3.482348 8.583020
f 2172 2173 2174
f 2172 2174 2175
v -5.932639 3.482348 8.583020
v -7.147419 3.482348 8.245227
v -7.004716 3.752844 7.732034
v -5.789935 3.752844 8.069827
f 2176 2177 2178
f 2176 2178 2179
v -5.789935 3.752844 8.069827
v -7.004716 3.752844 7.732034
v -6.836386 3.847829 7.126682
v -5.621606 3.847829 7.464475
f 2180 2181 2182
f 2180 2182 2183
v -5.621606 3.847829 7.464475
v -6.836386 3.847829 7.126682
v -6.668056 3.752844 6.521329
v -5.453276 3.752844 6.859123
f 2184 2185 2186
f 2184 2186 2187
v -5.453276 3.752844 6.859123
v -6.668056 3.752844 6.521329
v -6.525353 3.482348 6.008137
v -5.310572 3.482348 6.345930
f 2188 2189 2190
f 2188 2190 2191
v -5.310572 3.482348 6.345930
v -6.525353 3.482348 6.008137
v -6.430002 3.077523 5.665232
v -5.215221 3.077523 6.003025
f 2192 2193 2194
f 2192 2194 2195
v -5.215221 3.077523 6.003025
v -6.430002 3.077523 5.665232
v -6.396519 2.600000 5.544820
v -5.181738 2.600000 5.882613
f 2196 2197 2198
f 2196 2198 2199
v -7.276253 2.600000 8.708544
v -8.491034 2.600000 8.370750
v -8.457551 3.077523 8.250338
v -7.242770 3.077523 8.588132
f 2200 2201 2202
f 2200 2202 2203
v -7.242770 3.077523 8.588132
v -8.457551 3.077523 8.250338
v -8.362200 3.482348 7.907434
v -7.147419 3.482348 8.245227
f 2204 2205 2206
f 2204 2206 2207
v -7.147419 3.482348 8.245227
v -8.362200 3.482348 7.907434
v -8.219496 3.752844 7.394241
v -7.004716 3.752844 7.732034
f 2208 2209 2210
f 2208 2210 2211
v -7.004716 3.752844 7.732034
v -8.219496 3.752844 7.394241
v -8.051167 3.847829 6.788889
v -6.836386 3.847829 7.126682
f 2212 2213 2214
f 2212 2214 2215
v -6.836386 3.847829 7.126682
v -8.051167 3.847829 6.788889
v -7.882837 3.752844 6.183536
v -6.668056 3.752844 6.521329
f 2216 2217 2218
f 2216 2218 2219
v -6.668056 3.752844 6.521329
v -7.882837 3.752844 6.183536
v -7.740133 3.482348 5.670343
v -6.525353 3.482348 6.008137
f 2220 2221 2222
f 2220 2222 2223
v -6.525353 3.482348 6.008137
v -7.740133 3.482348 5.670343
v -7.644782 3.077523 5.327439
v -6.430002 3.077523 5.665232
f 2224 2225 2226
f 2224 2226 2227
v -6.430002 3.077523 5.665232
v -7.644782 3.077523 5.327439
v -7.611299 2.600000 5.207027
v -6.396519 2.600000 5.544820
f 2228 2229 2230
f 2228 2230 2231
v -8.491034 2.600000 8.370750
v -9.705814 2.600000 8.032957
v -9.672331 3.077523 7.912545
v -8.457551 3.077523 8.250338
f 2232 2233 2234
f 2232 2234 2235
v -8.457551 3.077523 8.250338
v -9.672331 3.077523 7.912545
v -9.576980 3.482348 7.569640
v -8.362200 3.482348 7.907434
f 2236 2237 2238
f 2236 2238 2239
v -8.362200 3.482348 7.907434
v -9.576980 3.482348 7.569640
v -9.434277 3.752844 7.056448
v -8.219496 3.752844 7.394241
f 2240 2241 2242
f 2240 2242 2243
v -8.219496 3.752844 7.394241
v -9.434277 3.752844 7.056448
v -9.265947 3.847829 6.451095
v -8.051167 3.847829 6.788889
f 2244 2245 2246
f 2244 2246 2247
v -8.051167 3.847829 6.788889
v -9.265947 3.847829 6.451095
v -9.097617 3.752844 5.845743
v -7.882837 3.752844 6.183536
f 2248 2249 2250
f 2248 2250 2251
v -7.882837 3.752844 6.183536
v -9.097617 3.752844 5.845743
v -8.954914 3.482348 5.332550
v -7.740133 3.482348 5.670343
f 2252 2253 2254
f 2252 2254 2255
v -7.740133 3.482348 5.670343
v -8.954914 3.482348 5.332550
v -8.859563 3.077523 4.989645
v -7.644782 3.077523 5.327439
f 2256 2257 2258
f 2256 2258 2259
v -7.644782 3.077523 5.327439
v -8.859563 3.077523 4.989645
v -8.826080 2.600000 4.869233
v -7.611299 2.600000 5.207027
f 2260 2261 2262
f 2260 2262 2263
v -9.265947 2.600000 6.451095
v -9.705814 2.600000 8.032957
v -9.672331 3.077523 7.912545
f 2264 2265 2266
v -9.265947 2.600000 6.451095
v -9.672331 3.077523 7.912545
v -9.576980 3.482348 7.569640
f 2267 2268 2269
v -9.265947 2.600000 6.451095
v -9.576980 3.482348 7.569640
v -9.434277 3.752844 7.056448
f 2270 2271 2272
v -9.265947 2.600000 6.451095
v -9.434277 3.752844 7.056448
v -9.265947 3.847829 6.451095
f 2273 2274 2275
v -9.265947 2.600000 6.451095
v -9.265947 3.847829 6.451095
v -9.097617 3.752844 5.845743
f 2276 2277 2278
v -9.265947 2.600000 6.451095
v -9.097617 3.752844 5.845743
v -8.954914 3.482348 5.332550
f 2279 2280 2281
v -9.265947 2.600000 6.451095
v -8.954914 3.482348 5.332550
v -8.859563 3.077523 4.989645
f 2282 2283 2284
v -9.265947 2.600000 6.451095
v -8.859563 3.077523 4.989645
v -8.826080 2.600000 4.869233
f 2285 2286 2287
v -1.816517 0.900000 -10.253656
v -0.635001 0.900000 -10.694476
v -0.635001 2.600000 -10.694476
v -1.816517 2.600000 -10.253656
f 2288 2289 2290
f 2288 2290 2291
v -0.635001 0.900000 -10.694476
v 0.546515 0.900000 -11.135296
v 0.546515 2.600000 -11.135296
v -0.635001 2.600000 -10.694476
f 2292 2293 2294
f 2292 2294 2295
v 0.546515 0.900000 -11.135296
v 1.728030 0.900000 -11.576115
v 1.728030 2.600000 -11.576115
v 0.546515 2.600000 -11.135296
f 2296 2297 2298
f 2296 2298 2299
v 1.728030 0.900000 -11.576115
v 2.909546 0.900000 -12.016935
v 2.909546 2.600000 -12.016935
v 1.728030 2.600000 -11.576115
f 2300 2301 2302
f 2300 2302 2303
v 2.909546 0.900000 -12.016935
v 4.091062 0.900000 -12.457755
v 4.091062 2.600000 -12.457755
v 2.909546 2.600000 -12.016935
f 2304 2305 2306
f 2304 2306 2307
v 4.091062 0.900000 -12.457755
v 5.272578 0.900000 -12.898574
v 5.272578 2.600000 -12.898574
v 4.091062 2.600000 -12.457755
f 2308 2309 2310
f 2308 2310 2311
v -0.549527 0.900000 -6.857780
v 0.631989 0.900000 -7.298599
v 0.631989 2.600000 -7.298599
v -0.549527 2.600000 -6.857780
f 2312 2313 2314
f 2312 2314 2315
v 0.631989 0.900000 -7.298599
v 1.813505 0.900000 -7.739419
v 1.813505 2.600000 -7.739419
v 0.631989 2.600000 -7.298599
f 2316 2317 2318
f 2316 2318 2319
v 1.813505 0.900000 -7.739419
v 2.995021 0.900000 -8.180239
v 2.995021 2.600000 -8.180239
v 1.813505 2.600000 -7.739419
f 2320 2321 2322
f 2320 2322 2323
v 2.995021 0.900000 -8.180239
v 4.176537 0.900000 -8.621058
v 4.176537 2.600000 -8.621058
v 2.995021 2.600000 -8.180239
f 2324 2325 2326
f 2324 2326 2327
v 4.176537 0.900000 -8.621058
v 5.358052 0.900000 -9.061878
v 5.358052 2.600000 -9.061878
v 4.176537 2.600000 -8.621058
f 2328 2329 2330
f 2328 2330 2331
v 5.358052 0.900000 -9.061878
v 6.539568 0.900000 -9.502698
v 6.539568 2.600000 -9.502698
v 5.358052 2.600000 -9.061878
f 2332 2333 2334
f 2332 2334 2335
v 6.539568 0.900000 -9.502698
v 6.117238 0.900000 -10.634657
v 6.117238 2.600000 -10.634657
v 6.539568 2.600000 -9.502698
f 2336 2337 2338
f 2336 2338 2339
v 6.117238 0.900000 -10.634657
v 5.694908 0.900000 -11.766615
v 5.694908 2.600000 -11.766615
v 6.117238 2.600000 -10.634657
f 2340 2341 2342
f 2340 2342 2343
v 5.694908 0.900000 -11.766615
v 5.272578 0.900000 -12.898574
v 5.272578 2.600000 -12.898574
v 5.694908 2.600000 -11.766615
f 2344 2345 2346
f 2344 2346 2347
v -1.816517 2.600000 -10.253656
v -0.635001 2.600000 -10.694476
v -0.001506 3.759851 -8.996538
v -1.183022 3.759851 -8.555718
f 2348 2349 2350
f 2348 2350 2351
v -0.549527 2.600000 -6.857780
v 0.631989 2.600000 -7.298599
v -0.001506 3.759851 -8.996538
v -1.183022 3.759851 -8.555718
f 2352 2353 2354
f 2352 2354 2355
v -0.635001 2.600000 -10.694476
v 0.546515 2.600000 -11.135296
v 1.180010 3.759851 -9.437357
v -0.001506 3.759851 -8.996538
f 2356 2357 2358
f 2356 2358 2359
v 0.631989 2.600000 -7.298599
v 1.813505 2.600000 -7.739419
v 1.180010 3.759851 -9.437357
v -0.001506 3.759851 -8.996538
f 2360 2361 2362
f 2360 2362 2363
v 0.546515 2.600000 -11.135296
v 1.728030 2.600000 -11.576115
v 2.361526 3.759851 -9.878177
v 1.180010 3.759851 -9.437357
f 2364 2365 2366
f 2364 2366 2367
v 1.813505 2.600000 -7.739419
v 2.995021 2.600000 -8.180239
v 2.361526 3.759851 -9.878177
v 1.180010 3.759851 -9.437357
f 2368 2369 2370
f 2368 2370 2371
v 1.728030 2.600000 -11.576115
v 2.909546 2.600000 -12.016935
v 3.543041 3.759851 -10.318997
v 2.361526 3.759851 -9.878177
f 2372 2373 2374
f 2372 2374 2375
v 2.995021 2.600000 -8.180239
v 4.176537 2.600000 -8.621058
v 3.543041 3.759851 -10.318997
v 2.361526 3.759851 -9.878177
f 2376 2377 2378
f 2376 2378 2379
v 2.909546 2.600000 -12.016935
v 4.091062 2.600000 -12.457755
v 4.724557 3.759851 -10.759816
v 3.543041 3.759851 -10.318997
f 2380 2381 2382
f 2380 2382 2383
v 4.176537 2.600000 -8.621058
v 5.358052 2.600000 -9.061878
v 4.724557 3.759851 -10.759816
v 3.543041 3.759851 -10.318997
f 2384 2385 2386
f 2384 2386 2387
v 4.091062 2.600000 -12.457755
v 5.272578 2.600000 -12.898574
v 5.906073 3.759851 -11.200636
v 4.724557 3.759851 -10.759816
f 2388 2389 2390
f 2388 2390 2391
v 5.358052 2.600000 -9.061878
v 6.539568 2.600000 -9.502698
v 5.906073 3.759851 -11.200636
v 4.724557 3.759851 -10.759816
f 2392 2393 2394
f 2392 2394 2395
v 5.272578 2.600000 -12.898574
v 6.539568 2.600000 -9.502698
v 5.906073 3.759851 -11.200636
f 2396 2397 2398
v -9.880187 0.900000 -1.835020
v -9.932461 0.900000 -3.051610
v -9.932461 2.600000 -3.051610
v -9.880187 2.600000 -1.835020
f 2399 2400 2401
f 2399 2401 2402
v -9.932461 0.900000 -3.051610
v -9.984736 0.900000 -4.268200
v -9.984736 2.600000 -4.268200
v -9.932461 2.600000 -3.051610
f 2403 2404 2405
f 2403 2405 2406
v -9.984736 0.900000 -4.268200
v -10.037011 0.900000 -5.484791
v -10.037011 2.600000 -5.484791
v -9.984736 2.600000 -4.268200
f 2407 2408 2409
f 2407 2409 2410
v -10.037011 0.900000 -5.484791
v -10.089285 0.900000 -6.701381
v -10.089285 2.600000 -6.701381
v -10.037011 2.600000 -5.484791
f 2411 2412 2413
f 2411 2413 2414
v -5.609649 0.900000 -2.018517
v -5.661924 0.900000 -3.235108
v -5.661924 2.600000 -3.235108
v -5.609649 2.600000 -2.018517
f 2415 2416 2417
f 2415 2417 2418
v -5.661924 0.900000 -3.235108
v -5.714198 0.900000 -4.451698
v -5.714198 2.600000 -4.451698
v -5.661924 2.600000 -3.235108
f 2419 2420 2421
f 2419 2421 2422
v -5.714198 0.900000 -4.451698
v -5.766473 0.900000 -5.668288
v -5.766473 2.600000 -5.668288
v -5.714198 2.600000 -4.451698
f 2423 2424 2425
f 2423 2425 2426
v -5.766473 0.900000 -5.668288
v -5.818748 0.900000 -6.884878
v -5.818748 2.600000 -6.884878
v -5.766473 2.600000 -5.668288
f 2427 2428 2429
f 2427 2429 2430
v -5.818748 0.900000 -6.884878
v -7.242260 0.900000 -6.823712
v -7.242260 2.600000 -6.823712
v -5.818748 2.600000 -6.884878
f 2431 2432 2433
f 2431 2433 2434
v -7.242260 0.900000 -6.823712
v -8.665773 0.900000 -6.762546
v -8.665773 2.600000 -6.762546
v -7.242260 2.600000 -6.823712
f 2435 2436 2437
f 2435 2437 2438
v -8.665773 0.900000 -6.762546
v -10.089285 0.900000 -6.701381
v -10.089285 2.600000 -6.701381
v -8.665773 2.600000 -6.762546
f 2439 2440 2441
f 2439 2441 2442
v -9.880187 2.600000 -1.835020
v -9.932461 2.600000 -3.051610
v -9.769924 3.221593 -3.058594
v -9.717649 3.221593 -1.842004
f 2443 2444 2445
f 2443 2445 2446
v -9.717649 3.221593 -1.842004
v -9.769924 3.221593 -3.058594
v -9.307056 3.748555 -3.078483
v -9.254781 3.748555 -1.861893
f 2447 2448 2449
f 2447 2449 2450
v -9.254781 3.748555 -1.861893
v -9.307056 3.748555 -3.078483
v -8.614325 4.100659 -3.108248
v -8.562050 4.100659 -1.891658
f 2451 2452 2453
f 2451 2453 2454
v -8.562050 4.100659 -1.891658
v -8.614325 4.100659 -3.108248
v -7.797193 4.224302 -3.143359
v -7.744918 4.224302 -1.926769
f 2455 2456 2457
f 2455 2457 2458
v -7.744918 4.224302 -1.926769
v -7.797193 4.224302 -3.143359
v -6.980061 4.100659 -3.178470
v -6.927786 4.100659 -1.961880
f 2459 2460 2461
f 2459 2461 2462
v -6.927786 4.100659 -1.961880
v -6.980061 4.100659 -3.178470
v -6.287330 3.748555 -3.208235
v -6.235055 3.748555 -1.991645
f 2463 2464 2465
f 2463 2465 2466
v -6.235055 3.748555 -1.991645
v -6.287330 3.748555 -3.208235
v -5.824461 3.221593 -3.228124
v -5.772187 3.221593 -2.011534
f 2467 2468 2469
f 2467 2469 2470
v -5.772187 3.221593 -2.011534
v -5.824461 3.221593 -3.228124
v -5.661924 2.600000 -3.235108
v -5.609649 2.600000 -2.018517
f 2471 2472 2473
f 2471 2473 2474
v -9.932461 2.600000 -3.051610
v -9.984736 2.600000 -4.268200
v -9.822198 3.221593 -4.275184
v -9.769924 3.221593 -3.058594
f 2475 2476 2477
f 2475 2477 2478
v -9.769924 3.221593 -3.058594
v -9.822198 3.221593 -4.275184
v -9.359330 3.748555 -4.295073
v -9.307056 3.748555 -3.078483
f 2479 2480 2481
f 2479 2481 2482
v -9.307056 3.748555 -3.078483
v -9.359330 3.748555 -4.295073
v -8.666599 4.100659 -4.324838
v -8.614325 4.100659 -3.108248
f 2483 2484 2485
f 2483 2485 2486
v -8.614325 4.100659 -3.108248
v -8.666599 4.100659 -4.324838
v -7.849467 4.224302 -4.359949
v -7.797193 4.224302 -3.143359
f 2487 2488 2489
f 2487 2489 2490
v -7.797193 4.224302 -3.143359
v -7.849467 4.224302 -4.359949
v -7.032335 4.100659 -4.395060
v -6.980061 4.100659 -3.178470
f 2491 2492 2493
f 2491 2493 2494
v -6.980061 4.100659 -3.178470
v -7.032335 4.100659 -4.395060
v -6.339604 3.748555 -4.424825
v -6.287330 3.748555 -3.208235
f 2495 2496 2497
f 2495 2497 2498
v -6.287330 3.748555 -3.208235
v -6.339604 3.748555 -4.424825
v -5.876736 3.221593 -4.444714
v -5.824461 3.221593 -3.228124
f 2499 2500 2501
f 2499 2501 2502
v -5.824461 3.221593 -3.228124
v -5.876736 3.221593 -4.444714
v -5.714198 2.600000 -4.451698
v -5.661924 2.600000 -3.235108
f 2503 2504 2505
f 2503 2505 2506
v -9.984736 2.600000 -4.268200
v -10.037011 2.600000 -5.484791
v -9.874473 3.221593 -5.491774
v -9.822198 3.221593 -4.275184
f 2507 2508 2509
f 2507 2509 2510
v -9.822198 3.221593 -4.275184
v -9.874473 3.221593 -5.491774
v -9.411605 3.748555 -5.511663
v -9.359330 3.748555 -4.295073
f 2511 2512 2513
f 2511 2513 2514
v -9.359330 3.748555 -4.295073
v -9.411605 3.748555 -5.511663
v -8.718874 4.100659 -5.541428
v -8.666599 4.100659 -4.324838
f 2515 2516 2517
f 2515 2517 2518
v -8.666599 4.100659 -4.324838
v -8.718874 4.100659 -5.541428
v -7.901742 4.224302 -5.576539
v -7.849467 4.224302 -4.359949
f 2519 2520 2521
f 2519 2521 2522
v -7.849467 4.224302 -4.359949
v -7.901742 4.224302 -5.576539
v -7.084610 4.100659 -5.611650
v -7.032335 4.100659 -4.395060
f 2523 2524 2525
f 2523 2525 2526
v -7.032335 4.100659 -4.395060
v -7.084610 4.100659 -5.611650
v -6.391879 3.748555 -5.641415
v -6.339604 3.748555 -4.424825
f 2527 2528 2529
f 2527 2529 2530
v -6.339604 3.748555 -4.424825
v -6.391879 3.748555 -5.641415
v -5.929011 3.221593 -5.661304
v -5.876736 3.221593 -4.444714
f 2531 2532 2533
f 2531 2533 2534
v -5.876736 3.221593 -4.444714
v -5.929011 3.221593 -5.661304
v -5.766473 2.600000 -5.668288
v -5.714198 2.600000 -4.451698
f 2535 2536 2537
f 2535 2537 2538
v -10.037011 2.600000 -5.484791
v -10.089285 2.600000 -6.701381
v -9.926748 3.221593 -6.708365
v -9.874473 3.221593 -5.491774
f 2539 2540 2541
f 2539 2541 2542
v -9.874473 3.221593 -5.491774
v -9.926748 3.221593 -6.708365
v -9.463880 3.748555 -6.728253
v -9.411605 3.748555 -5.511663
f 2543 2544 2545
f 2543 2545 2546
v -9.411605 3.748555 -5.511663
v -9.463880 3.748555 -6.728253
v -8.771148 4.100659 -6.758019
v -8.718874 4.100659 -5.541428
f 2547 2548 2549
f 2547 2549 2550
v -8.718874 4.100659 -5.541428
v -8.771148 4.100659 -6.758019
v -7.954016 4.224302 -6.793129
v -7.901742 4.224302 -5.576539
f 2551 2552 2553
f 2551 2553 2554
v -7.901742 4.224302 -5.576539
v -7.954016 4.224302 -6.793129
v -7.136884 4.100659 -6.828240
v -7.084610 4.100659 -5.611650
f 2555 2556 2557
f 2555 2557 2558
v -7.084610 4.100659 -5.611650
v -7.136884 4.100659 -6.828240
v -6.444153 3.748555 -6.858005
v -6.391879 3.748555 -5.641415
f 2559 2560 2561
f 2559 2561 2562
v -6.391879 3.748555 -5.641415
v -6.444153 3.748555 -6.858005
v -5.981285 3.221593 -6.877894
v -5.929011 3.221593 -5.661304
f 2563 2564 2565
f 2563 2565 2566
v -5.929011 3.221593 -5.661304
v -5.981285 3.221593 -6.877894
v -5.818748 2.600000 -6.884878
v -5.766473 2.600000 -5.668288
f 2567 2568 2569
f 2567 2569 2570
v -7.954016 2.600000 -6.793129
v -10.089285 2.600000 -6.701381
v -9.926748 3.221593 -6.708365
f 2571 2572 2573
v -7.954016 2.600000 -6.793129
v -9.926748 3.221593 -6.708365
v -9.463880 3.748555 -6.728253
f 2574 2575 2576
v -7.954016 2.600000 -6.793129
v -9.463880 3.748555 -6.728253
v -8.771148 4.100659 -6.758019
f 2577 2578 2579
v -7.954016 2.600000 -6.793129
v -8.771148 4.100659 -6.758019
v -7.954016 4.224302 -6.793129
f 2580 2581 2582
v -7.954016 2.600000 -6.793129
v -7.954016 4.224302 -6.793129
v -7.136884 4.100659 -6.828240
f 2583 2584 2585
v -7.954016 2.600000 -6.793129
v -7.136884 4.100659 -6.828240
v -6.444153 3.748555 -6.858005
f 2586 2587 2588
v -7.954016 2.600000 -6.793129
v -6.444153 3.748555 -6.858005
v -5.981285 3.221593 -6.877894
f 2589 2590 2591
v -7.954016 2.600000 -6.793129
v -5.981285 3.221593 -6.877894
v -5.818748 2.600000 -6.884878
f 2592 2593 2594
