o mesh
v 2.663438 0.300000 -0.000000
v 1.883335 0.300000 -1.883335
v 0.000000 0.300000 -2.663438
v -1.883335 0.300000 -1.883335
v -2.663438 0.300000 -0.000000
v -1.883335 0.300000 1.883335
v -0.000000 0.300000 2.663438
v 1.883335 0.300000 1.883335
v 0.000000 0.300000 -0.000000
f 9 1 2
f 9 2 1
f 9 2 3
f 9 3 2
f 9 3 4
f 9 4 3
f 9 4 5
f 9 5 4
f 9 5 6
f 9 6 5
f 9 6 7
f 9 7 6
f 9 7 8
f 9 8 7
f 9 8 1
f 9 1 8
v 1.807386 0.300000 -1.541237
v 1.868008 0.300000 -1.576237
v 1.868008 0.300000 -1.646237
v 1.807386 0.300000 -1.681237
v 1.746764 0.300000 -1.646237
v 1.746764 0.300000 -1.576237
v 1.807386 2.860568 -1.541237
v 1.868008 2.860568 -1.576237
v 1.868008 2.860568 -1.646237
v 1.807386 2.860568 -1.681237
v 1.746764 2.860568 -1.646237
v 1.746764 2.860568 -1.576237
f 10 11 17
f 10 17 16
f 11 12 18
f 11 18 17
f 12 13 19
f 12 19 18
f 13 14 20
f 13 20 19
f 14 15 21
f 14 21 20
f 15 10 16
f 15 16 21
v 0.138698 0.300000 -2.347332
v 0.199320 0.300000 -2.382332
v 0.199320 0.300000 -2.452332
v 0.138698 0.300000 -2.487332
v 0.078077 0.300000 -2.452332
v 0.078077 0.300000 -2.382332
v 0.138698 2.860568 -2.347332
v 0.199320 2.860568 -2.382332
v 0.199320 2.860568 -2.452332
v 0.138698 2.860568 -2.487332
v 0.078077 2.860568 -2.452332
v 0.078077 2.860568 -2.382332
f 22 23 29
f 22 29 28
f 23 24 30
f 23 30 29
f 24 25 31
f 24 31 30
f 25 26 32
f 25 32 31
f 26 27 33
f 26 33 32
f 27 22 28
f 27 28 33
v -1.611237 0.300000 -1.737386
v -1.550615 0.300000 -1.772386
v -1.550615 0.300000 -1.842386
v -1.611237 0.300000 -1.877386
v -1.671859 0.300000 -1.842386
v -1.671859 0.300000 -1.772386
v -1.611237 2.860568 -1.737386
v -1.550615 2.860568 -1.772386
v -1.550615 2.860568 -1.842386
v -1.611237 2.860568 -1.877386
v -1.671859 2.860568 -1.842386
v -1.671859 2.860568 -1.772386
f 34 35 41
f 34 41 40
f 35 36 42
f 35 42 41
f 36 37 43
f 36 43 42
f 37 38 44
f 37 44 43
f 38 39 45
f 38 45 44
f 39 34 40
f 39 40 45
v -2.417332 0.300000 -0.068698
v -2.356710 0.300000 -0.103698
v -2.356710 0.300000 -0.173698
v -2.417332 0.300000 -0.208698
v -2.477953 0.300000 -0.173698
v -2.477953 0.300000 -0.103698
v -2.417332 1.967327 -0.068698
v -2.356710 1.967327 -0.103698
v -2.356710 1.967327 -0.173698
v -2.417332 1.967327 -0.208698
v -2.477953 1.967327 -0.173698
v -2.477953 1.967327 -0.103698
f 46 47 53
f 46 53 52
f 47 48 54
f 47 54 53
f 48 49 55
f 48 55 54
f 49 50 56
f 49 56 55
f 50 51 57
f 50 57 56
f 51 46 52
f 51 52 57
v -1.807386 0.300000 1.681237
v -1.746764 0.300000 1.646237
v -1.746764 0.300000 1.576237
v -1.807386 0.300000 1.541237
v -1.868008 0.300000 1.576237
v -1.868008 0.300000 1.646237
v -1.807386 2.093797 1.681237
v -1.746764 2.093797 1.646237
v -1.746764 2.093797 1.576237
v -1.807386 2.093797 1.541237
v -1.868008 2.093797 1.576237
v -1.868008 2.093797 1.646237
f 58 59 65
f 58 65 64
f 59 60 66
f 59 66 65
f 60 61 67
f 60 67 66
f 61 62 68
f 61 68 67
f 62 63 69
f 62 69 68
f 63 58 64
f 63 64 69
v -0.138698 0.300000 2.487332
v -0.078077 0.300000 2.452332
v -0.078077 0.300000 2.382332
v -0.138698 0.300000 2.347332
v -0.199320 0.300000 2.382332
v -0.199320 0.300000 2.452332
v -0.138698 2.218675 2.487332
v -0.078077 2.218675 2.452332
v -0.078077 2.218675 2.382332
v -0.138698 2.218675 2.347332
v -0.199320 2.218675 2.382332
v -0.199320 2.218675 2.452332
f 70 71 77
f 70 77 76
f 71 72 78
f 71 78 77
f 72 73 79
f 72 79 78
f 73 74 80
f 73 80 79
f 74 75 81
f 74 81 80
f 75 70 76
f 75 76 81
v 1.611237 0.300000 1.877386
v 1.671859 0.300000 1.842386
v 1.671859 0.300000 1.772386
v 1.611237 0.300000 1.737386
v 1.550615 0.300000 1.772386
v 1.550615 0.300000 1.842386
v 1.611237 2.860568 1.877386
v 1.671859 2.860568 1.842386
v 1.671859 2.860568 1.772386
v 1.611237 2.860568 1.737386
v 1.550615 2.860568 1.772386
v 1.550615 2.860568 1.842386
f 82 83 89
f 82 89 88
f 83 84 90
f 83 90 89
f 84 85 91
f 84 91 90
f 85 86 92
f 85 92 91
f 86 87 93
f 86 93 92
f 87 82 88
f 87 88 93
v 2.417332 0.300000 0.208698
v 2.477953 0.300000 0.173698
v 2.477953 0.300000 0.103698
v 2.417332 0.300000 0.068698
v 2.356710 0.300000 0.103698
v 2.356710 0.300000 0.173698
v 2.417332 2.860568 0.208698
v 2.477953 2.860568 0.173698
v 2.477953 2.860568 0.103698
v 2.417332 2.860568 0.068698
v 2.356710 2.860568 0.103698
v 2.356710 2.860568 0.173698
f 94 95 101
f 94 101 100
f 95 96 102
f 95 102 101
f 96 97 103
f 96 103 102
f 97 98 104
f 97 104 103
f 98 99 105
f 98 105 104
f 99 94 100
f 99 100 105
v 1.776938 2.860568 -1.548206
v 1.792162 2.921190 -1.579721
v 1.822610 2.921190 -1.642752
v 1.837835 2.860568 -1.674268
v 1.822610 2.799946 -1.642752
v 1.792162 2.799946 -1.579721
v 0.108250 2.860568 -2.354301
v 0.123474 2.921190 -2.385816
v 0.153923 2.921190 -2.448847
v 0.169147 2.860568 -2.480362
v 0.153923 2.799946 -2.448847
v 0.123474 2.799946 -2.385816
f 106 107 113
f 106 113 112
f 107 108 114
f 107 114 113
f 108 109 115
f 108 115 114
f 109 110 116
f 109 116 115
f 110 111 117
f 110 117 116
f 111 106 112
f 111 112 117
v 1.753165 0.300000 -1.472900
v 1.843165 0.300000 -1.562900
v 1.753165 0.300000 -1.652900
v 1.663165 0.300000 -1.562900
v 1.753165 1.200000 -1.472900
v 1.843165 1.200000 -1.562900
v 1.753165 1.200000 -1.652900
v 1.663165 1.200000 -1.562900
f 118 119 123
f 118 123 122
f 119 120 124
f 119 124 123
f 120 121 125
f 120 125 124
f 121 118 122
f 121 122 125
v 0.134537 0.300000 -2.254812
v 0.224537 0.300000 -2.344812
v 0.134537 0.300000 -2.434812
v 0.044537 0.300000 -2.344812
v 0.134537 1.200000 -2.254812
v 0.224537 1.200000 -2.344812
v 0.134537 1.200000 -2.434812
v 0.044537 1.200000 -2.344812
f 126 127 131
f 126 131 130
f 127 128 132
f 127 132 131
f 128 129 133
f 128 133 132
f 129 126 130
f 129 130 133
v 1.733591 0.408000 -1.522380
v 1.753165 0.453000 -1.562900
v 1.772738 0.408000 -1.603420
v 1.753165 0.363000 -1.562900
v 1.074799 0.408000 -1.840623
v 1.094373 0.453000 -1.881143
v 1.113947 0.408000 -1.921663
v 1.094373 0.363000 -1.881143
f 134 135 139
f 134 139 138
f 135 136 140
f 135 140 139
f 136 137 141
f 136 141 140
f 137 134 138
f 137 138 141
v 0.161738 2.860568 -2.351232
v 0.150218 2.921190 -2.384282
v 0.127179 2.921190 -2.450381
v 0.115659 2.860568 -2.483431
v 0.127179 2.799946 -2.450381
v 0.150218 2.799946 -2.384282
v -1.588198 2.860568 -1.741286
v -1.599717 2.921190 -1.774336
v -1.622757 2.921190 -1.840436
v -1.634276 2.860568 -1.873486
v -1.622757 2.799946 -1.840436
v -1.599717 2.799946 -1.774336
f 142 143 149
f 142 149 148
f 143 144 150
f 143 150 149
f 144 145 151
f 144 151 150
f 145 146 152
f 145 152 151
f 146 147 153
f 146 153 152
f 147 142 148
f 147 148 153
v 0.134537 0.300000 -2.254812
v 0.224537 0.300000 -2.344812
v 0.134537 0.300000 -2.434812
v 0.044537 0.300000 -2.344812
v 0.134537 1.200000 -2.254812
v 0.224537 1.200000 -2.344812
v 0.134537 1.200000 -2.434812
v 0.044537 1.200000 -2.344812
f 154 155 159
f 154 159 158
f 155 156 160
f 155 160 159
f 156 157 161
f 156 161 160
f 157 154 158
f 157 158 161
v -1.562900 0.300000 -1.663165
v -1.472900 0.300000 -1.753165
v -1.562900 0.300000 -1.843165
v -1.652900 0.300000 -1.753165
v -1.562900 1.012007 -1.663165
v -1.472900 1.012007 -1.753165
v -1.562900 1.012007 -1.843165
v -1.652900 1.012007 -1.753165
f 162 163 167
f 162 167 166
f 163 164 168
f 163 168 167
f 164 165 169
f 164 169 168
f 165 162 166
f 165 166 169
v 0.149348 1.200000 -2.302319
v 0.134537 1.245000 -2.344812
v 0.119726 1.200000 -2.387304
v 0.134537 1.155000 -2.344812
v -1.548089 1.200000 -1.710672
v -1.562900 1.245000 -1.753165
v -1.577711 1.200000 -1.795657
v -1.562900 1.155000 -1.753165
f 170 171 175
f 170 175 174
f 171 172 176
f 171 176 175
f 172 173 177
f 172 177 176
f 173 170 174
f 173 174 177
v 0.149348 0.408000 -2.302319
v 0.134537 0.453000 -2.344812
v 0.119726 0.408000 -2.387304
v 0.134537 0.363000 -2.344812
v -1.179444 0.408000 -1.839164
v -1.194255 0.453000 -1.881657
v -1.209066 0.408000 -1.924150
v -1.194255 0.363000 -1.881657
f 178 179 183
f 178 183 182
f 179 180 184
f 179 184 183
f 180 181 185
f 180 185 184
f 181 178 182
f 181 182 185
v 0.031097 0.390000 -2.276987
v 0.033353 0.417111 -2.309543
v 0.011349 0.390000 -2.333644
v 0.009094 0.362889 -2.301088
v -1.439712 1.128000 -1.764332
v -1.437456 1.155111 -1.796888
v -1.459460 1.128000 -1.820989
v -1.461715 1.100889 -1.788433
f 186 187 191
f 186 191 190
f 187 188 192
f 187 192 191
f 188 189 193
f 188 193 192
f 189 186 190
f 189 190 193
v 0.031097 1.128000 -2.276987
v 0.009094 1.155111 -2.301088
v 0.011349 1.128000 -2.333644
v 0.033353 1.100889 -2.309543
v -1.439712 0.390000 -1.764332
v -1.461715 0.417111 -1.788433
v -1.459460 0.390000 -1.820989
v -1.437456 0.362889 -1.796888
f 194 195 199
f 194 199 198
f 195 196 200
f 195 200 199
f 196 197 201
f 196 201 200
f 197 194 198
f 197 198 201
v -1.562900 0.300000 -1.663165
v -1.472900 0.300000 -1.753165
v -1.562900 0.300000 -1.843165
v -1.652900 0.300000 -1.753165
v -1.562900 1.200000 -1.663165
v -1.472900 1.200000 -1.753165
v -1.562900 1.200000 -1.843165
v -1.652900 1.200000 -1.753165
f 202 203 207
f 202 207 206
f 203 204 208
f 203 208 207
f 204 205 209
f 204 209 208
f 205 202 206
f 205 206 209
v -2.344812 0.300000 -0.044537
v -2.254812 0.300000 -0.134537
v -2.344812 0.300000 -0.224537
v -2.434812 0.300000 -0.134537
v -2.344812 1.025767 -0.044537
v -2.254812 1.025767 -0.134537
v -2.344812 1.025767 -0.224537
v -2.434812 1.025767 -0.134537
f 210 211 215
f 210 215 214
f 211 212 216
f 211 216 215
f 212 213 217
f 212 217 216
f 213 210 214
f 213 214 217
v -2.212104 0.408000 -0.305801
v -2.252623 0.453000 -0.325375
v -2.293143 0.408000 -0.344949
v -2.252623 0.363000 -0.325375
v -2.304292 0.408000 -0.114963
v -2.344812 0.453000 -0.134537
v -2.385331 0.408000 -0.154111
v -2.344812 0.363000 -0.134537
f 218 219 223
f 218 223 222
f 219 220 224
f 219 224 223
f 220 221 225
f 220 225 224
f 221 218 222
f 221 222 225
v -1.588084 0.390000 -1.632062
v -1.609510 0.417111 -1.656678
v -1.642110 0.390000 -1.658161
v -1.620685 0.362889 -1.633545
v -2.265601 1.128000 -0.229541
v -2.287027 1.155111 -0.254157
v -2.319628 1.128000 -0.255640
v -2.298202 1.100889 -0.231024
f 226 227 231
f 226 231 230
f 227 228 232
f 227 232 231
f 228 229 233
f 228 233 232
f 229 226 230
f 229 230 233
v -1.588084 1.128000 -1.632062
v -1.620685 1.155111 -1.633545
v -1.642110 1.128000 -1.658161
v -1.609510 1.100889 -1.656678
v -2.265601 0.390000 -0.229541
v -2.298202 0.417111 -0.231024
v -2.319628 0.390000 -0.255640
v -2.287027 0.362889 -0.254157
f 234 235 239
f 234 239 238
f 235 236 240
f 235 240 239
f 236 237 241
f 236 241 240
f 237 234 238
f 237 238 241
v -2.344812 0.300000 -0.044537
v -2.254812 0.300000 -0.134537
v -2.344812 0.300000 -0.224537
v -2.434812 0.300000 -0.134537
v -2.344812 1.200000 -0.044537
v -2.254812 1.200000 -0.134537
v -2.344812 1.200000 -0.224537
v -2.434812 1.200000 -0.134537
f 242 243 247
f 242 247 246
f 243 244 248
f 243 248 247
f 244 245 249
f 244 249 248
f 245 242 246
f 245 246 249
v -1.753165 0.300000 1.652900
v -1.663165 0.300000 1.562900
v -1.753165 0.300000 1.472900
v -1.843165 0.300000 1.562900
v -1.753165 0.802950 1.652900
v -1.663165 0.802950 1.562900
v -1.753165 0.802950 1.472900
v -1.843165 0.802950 1.562900
f 250 251 255
f 250 255 254
f 251 252 256
f 251 256 255
f 252 253 257
f 252 257 256
f 253 250 254
f 253 254 257
v -2.302319 1.200000 -0.149348
v -2.344812 1.245000 -0.134537
v -2.387304 1.200000 -0.119726
v -2.344812 1.155000 -0.134537
v -1.710672 1.200000 1.548089
v -1.753165 1.245000 1.562900
v -1.795657 1.200000 1.577711
v -1.753165 1.155000 1.562900
f 258 259 263
f 258 263 262
f 259 260 264
f 259 264 263
f 260 261 265
f 260 265 264
f 261 258 262
f 261 262 265
v -2.302319 0.408000 -0.149348
v -2.344812 0.453000 -0.134537
v -2.387304 0.408000 -0.119726
v -2.344812 0.363000 -0.134537
v -1.926683 0.408000 0.928352
v -1.969176 0.453000 0.943163
v -2.011668 0.408000 0.957974
v -1.969176 0.363000 0.943163
f 266 267 271
f 266 271 270
f 267 268 272
f 267 272 271
f 268 269 273
f 268 273 272
f 269 266 270
f 269 270 273
v -2.276987 0.390000 -0.031097
v -2.309543 0.417111 -0.033353
v -2.333644 0.390000 -0.011349
v -2.301088 0.362889 -0.009094
v -1.764332 1.128000 1.439712
v -1.796888 1.155111 1.437456
v -1.820989 1.128000 1.459460
v -1.788433 1.100889 1.461715
f 274 275 279
f 274 279 278
f 275 276 280
f 275 280 279
f 276 277 281
f 276 281 280
f 277 274 278
f 277 278 281
v -0.134537 0.300000 2.434812
v -0.044537 0.300000 2.344812
v -0.134537 0.300000 2.254812
v -0.224537 0.300000 2.344812
v -0.134537 1.200000 2.434812
v -0.044537 1.200000 2.344812
v -0.134537 1.200000 2.254812
v -0.224537 1.200000 2.344812
f 282 283 287
f 282 287 286
f 283 284 288
f 283 288 287
f 284 285 289
f 284 289 288
f 285 282 286
f 285 286 289
v 1.562900 0.300000 1.843165
v 1.652900 0.300000 1.753165
v 1.562900 0.300000 1.663165
v 1.472900 0.300000 1.753165
v 1.562900 1.200000 1.843165
v 1.652900 1.200000 1.753165
v 1.562900 1.200000 1.663165
v 1.472900 1.200000 1.753165
f 290 291 295
f 290 295 294
f 291 292 296
f 291 296 295
f 292 293 297
f 292 297 296
f 293 290 294
f 293 294 297
v -0.149348 1.200000 2.302319
v -0.134537 1.245000 2.344812
v -0.119726 1.200000 2.387304
v -0.134537 1.155000 2.344812
v 0.473639 1.200000 2.085175
v 0.488450 1.245000 2.127667
v 0.503261 1.200000 2.170160
v 0.488450 1.155000 2.127667
f 298 299 303
f 298 303 302
f 299 300 304
f 299 304 303
f 300 301 305
f 300 305 304
f 301 298 302
f 301 302 305
v 0.473639 1.200000 2.085175
v 0.488450 1.245000 2.127667
v 0.503261 1.200000 2.170160
v 0.488450 1.155000 2.127667
v 1.548089 1.200000 1.710672
v 1.562900 1.245000 1.753165
v 1.577711 1.200000 1.795657
v 1.562900 1.155000 1.753165
f 306 307 311
f 306 311 310
f 307 308 312
f 307 312 311
f 308 309 313
f 308 313 312
f 309 306 310
f 309 310 313
v -0.149348 0.408000 2.302319
v -0.134537 0.453000 2.344812
v -0.119726 0.408000 2.387304
v -0.134537 0.363000 2.344812
v 0.900837 0.408000 1.936273
v 0.915648 0.453000 1.978766
v 0.930459 0.408000 2.021259
v 0.915648 0.363000 1.978766
f 314 315 319
f 314 319 318
f 315 316 320
f 315 320 319
f 316 317 321
f 316 321 320
f 317 314 318
f 317 318 321
v 1.494244 0.408000 1.729440
v 1.509055 0.453000 1.771932
v 1.523866 0.408000 1.814425
v 1.509055 0.363000 1.771932
v 1.548089 0.408000 1.710672
v 1.562900 0.453000 1.753165
v 1.577711 0.408000 1.795657
v 1.562900 0.363000 1.753165
f 322 323 327
f 322 327 326
f 323 324 328
f 323 328 327
f 324 325 329
f 324 329 328
f 325 322 326
f 325 326 329
v -0.031097 1.128000 2.276987
v -0.009094 1.155111 2.301088
v -0.011349 1.128000 2.333644
v -0.033353 1.100889 2.309543
v 1.439712 0.390000 1.764332
v 1.461715 0.417111 1.788433
v 1.459460 0.390000 1.820989
v 1.437456 0.362889 1.796888
f 330 331 335
f 330 335 334
f 331 332 336
f 331 336 335
f 332 333 337
f 332 337 336
f 333 330 334
f 333 334 337
v 1.548206 2.860568 1.776938
v 1.579721 2.921190 1.792162
v 1.642752 2.921190 1.822610
v 1.674268 2.860568 1.837835
v 1.642752 2.799946 1.822610
v 1.579721 2.799946 1.792162
v 2.354301 2.860568 0.108250
v 2.385816 2.921190 0.123474
v 2.448847 2.921190 0.153923
v 2.480362 2.860568 0.169147
v 2.448847 2.799946 0.153923
v 2.385816 2.799946 0.123474
f 338 339 345
f 338 345 344
f 339 340 346
f 339 346 345
f 340 341 347
f 340 347 346
f 341 342 348
f 341 348 347
f 342 343 349
f 342 349 348
f 343 338 344
f 343 344 349
v 1.562900 0.300000 1.843165
v 1.652900 0.300000 1.753165
v 1.562900 0.300000 1.663165
v 1.472900 0.300000 1.753165
v 1.562900 0.992496 1.843165
v 1.652900 0.992496 1.753165
v 1.562900 0.992496 1.663165
v 1.472900 0.992496 1.753165
f 350 351 355
f 350 355 354
f 351 352 356
f 351 356 355
f 352 353 357
f 352 357 356
f 353 350 354
f 353 354 357
v 2.344812 0.300000 0.224537
v 2.434812 0.300000 0.134537
v 2.344812 0.300000 0.044537
v 2.254812 0.300000 0.134537
v 2.344812 1.200000 0.224537
v 2.434812 1.200000 0.134537
v 2.344812 1.200000 0.044537
v 2.254812 1.200000 0.134537
f 358 359 363
f 358 363 362
f 359 360 364
f 359 364 363
f 360 361 365
f 360 365 364
f 361 358 362
f 361 362 365
v 1.522380 1.200000 1.733591
v 1.562900 1.245000 1.753165
v 1.603420 1.200000 1.772738
v 1.562900 1.155000 1.753165
v 2.304292 1.200000 0.114963
v 2.344812 1.245000 0.134537
v 2.385331 1.200000 0.154111
v 2.344812 1.155000 0.134537
f 366 367 371
f 366 371 370
f 367 368 372
f 367 372 371
f 368 369 373
f 368 373 372
f 369 366 370
f 369 370 373
v 1.522380 0.408000 1.733591
v 1.562900 0.453000 1.753165
v 1.603420 0.408000 1.772738
v 1.562900 0.363000 1.753165
v 2.258424 0.408000 0.209913
v 2.298944 0.453000 0.229487
v 2.339464 0.408000 0.249061
v 2.298944 0.363000 0.229487
f 374 375 379
f 374 379 378
f 375 376 380
f 375 380 379
f 376 377 381
f 376 381 380
f 377 374 378
f 377 378 381
v 2.351232 2.860568 0.161738
v 2.384282 2.921190 0.150218
v 2.450381 2.921190 0.127179
v 2.483431 2.860568 0.115659
v 2.450381 2.799946 0.127179
v 2.384282 2.799946 0.150218
v 1.741286 2.860568 -1.588198
v 1.774336 2.921190 -1.599717
v 1.840436 2.921190 -1.622757
v 1.873486 2.860568 -1.634276
v 1.840436 2.799946 -1.622757
v 1.774336 2.799946 -1.599717
f 382 383 389
f 382 389 388
f 383 384 390
f 383 390 389
f 384 385 391
f 384 391 390
f 385 386 392
f 385 392 391
f 386 387 393
f 386 393 392
f 387 382 388
f 387 388 393
v 2.344812 0.300000 0.224537
v 2.434812 0.300000 0.134537
v 2.344812 0.300000 0.044537
v 2.254812 0.300000 0.134537
v 2.344812 1.200000 0.224537
v 2.434812 1.200000 0.134537
v 2.344812 1.200000 0.044537
v 2.254812 1.200000 0.134537
f 394 395 399
f 394 399 398
f 395 396 400
f 395 400 399
f 396 397 401
f 396 401 400
f 397 394 398
f 397 398 401
v 1.753165 0.300000 -1.472900
v 1.843165 0.300000 -1.562900
v 1.753165 0.300000 -1.652900
v 1.663165 0.300000 -1.562900
v 1.753165 1.029510 -1.472900
v 1.843165 1.029510 -1.562900
v 1.753165 1.029510 -1.652900
v 1.663165 1.029510 -1.562900
f 402 403 407
f 402 407 406
f 403 404 408
f 403 408 407
f 404 405 409
f 404 409 408
f 405 402 406
f 405 406 409
v 2.302319 1.200000 0.149348
v 2.344812 1.245000 0.134537
v 2.387304 1.200000 0.119726
v 2.344812 1.155000 0.134537
v 1.996997 1.200000 -0.726621
v 2.039490 1.245000 -0.741432
v 2.081982 1.200000 -0.756243
v 2.039490 1.155000 -0.741432
f 410 411 415
f 410 415 414
f 411 412 416
f 411 416 415
f 412 413 417
f 412 417 416
f 413 410 414
f 413 414 417
v 1.996997 1.200000 -0.726621
v 2.039490 1.245000 -0.741432
v 2.081982 1.200000 -0.756243
v 2.039490 1.155000 -0.741432
v 1.710672 1.200000 -1.548089
v 1.753165 1.245000 -1.562900
v 1.795657 1.200000 -1.577711
v 1.753165 1.155000 -1.562900
f 418 419 423
f 418 423 422
f 419 420 424
f 419 424 423
f 420 421 425
f 420 425 424
f 421 418 422
f 421 422 425
