o mesh
v -2.380881 0.445910 0.617722
v -2.355881 0.450000 0.593059
v -2.380881 0.454090 0.568395
v -2.405881 0.450000 0.593059
v -2.380881 0.818912 0.672479
v -2.362881 0.821856 0.654722
v -2.380881 0.824801 0.636964
v -2.398881 0.821856 0.654722
f 1 2 6
f 1 6 5
f 2 3 7
f 2 7 6
f 3 4 8
f 3 8 7
f 4 1 5
f 4 5 8
v -2.380881 0.856856 0.654722
v -2.380881 0.856856 0.654722
v -2.380881 0.856856 0.654722
v -2.380881 0.856856 0.654722
v -2.380881 0.856856 0.654722
v -2.380881 0.856856 0.654722
v -2.320259 0.839356 0.654722
v -2.350570 0.839356 0.602222
v -2.411192 0.839356 0.602222
v -2.441502 0.839356 0.654722
v -2.411192 0.839356 0.707222
v -2.350570 0.839356 0.707222
v -2.320259 0.804356 0.654722
v -2.350570 0.804356 0.602222
v -2.411192 0.804356 0.602222
v -2.441502 0.804356 0.654722
v -2.411192 0.804356 0.707222
v -2.350570 0.804356 0.707222
v -2.380881 0.786856 0.654722
v -2.380881 0.786856 0.654722
v -2.380881 0.786856 0.654722
v -2.380881 0.786856 0.654722
v -2.380881 0.786856 0.654722
v -2.380881 0.786856 0.654722
f 9 16 10
f 9 15 16
f 10 17 11
f 10 16 17
f 11 18 12
f 11 17 18
f 12 19 13
f 12 18 19
f 13 20 14
f 13 19 20
f 14 15 9
f 14 20 15
f 15 22 16
f 15 21 22
f 16 23 17
f 16 22 23
f 17 24 18
f 17 23 24
f 18 25 19
f 18 24 25
f 19 26 20
f 19 25 26
f 20 21 15
f 20 26 21
f 21 28 22
f 21 27 28
f 22 29 23
f 22 28 29
f 23 30 24
f 23 29 30
f 24 31 25
f 24 30 31
f 25 32 26
f 25 31 32
f 26 27 21
f 26 32 27
v -2.380881 0.818937 0.679551
v -2.355881 0.821856 0.654722
v -2.380881 0.824775 0.629893
v -2.405881 0.821856 0.654722
v -2.380881 1.516263 0.754490
v -2.362881 1.518365 0.736613
v -2.380881 1.520466 0.718736
v -2.398881 1.518365 0.736613
f 33 34 38
f 33 38 37
f 34 35 39
f 34 39 38
f 35 36 40
f 35 40 39
f 36 33 37
f 36 37 40
v -2.380881 1.553365 0.736613
v -2.380881 1.553365 0.736613
v -2.380881 1.553365 0.736613
v -2.380881 1.553365 0.736613
v -2.380881 1.553365 0.736613
v -2.380881 1.553365 0.736613
v -2.320259 1.535865 0.736613
v -2.350570 1.535865 0.684113
v -2.411192 1.535865 0.684113
v -2.441502 1.535865 0.736613
v -2.411192 1.535865 0.789113
v -2.350570 1.535865 0.789113
v -2.320259 1.500865 0.736613
v -2.350570 1.500865 0.684113
v -2.411192 1.500865 0.684113
v -2.441502 1.500865 0.736613
v -2.411192 1.500865 0.789113
v -2.350570 1.500865 0.789113
v -2.380881 1.483365 0.736613
v -2.380881 1.483365 0.736613
v -2.380881 1.483365 0.736613
v -2.380881 1.483365 0.736613
v -2.380881 1.483365 0.736613
v -2.380881 1.483365 0.736613
f 41 48 42
f 41 47 48
f 42 49 43
f 42 48 49
f 43 50 44
f 43 49 50
f 44 51 45
f 44 50 51
f 45 52 46
f 45 51 52
f 46 47 41
f 46 52 47
f 47 54 48
f 47 53 54
f 48 55 49
f 48 54 55
f 49 56 50
f 49 55 56
f 50 57 51
f 50 56 57
f 51 58 52
f 51 57 58
f 52 53 47
f 52 58 53
f 53 60 54
f 53 59 60
f 54 61 55
f 54 60 61
f 55 62 56
f 55 61 62
f 56 63 57
f 56 62 63
f 57 64 58
f 57 63 64
f 58 59 53
f 58 64 59
v -2.380881 1.513647 0.761164
v -2.355881 1.518365 0.736613
v -2.380881 1.523082 0.712062
v -2.405881 1.518365 0.736613
v -2.380881 2.049003 0.856914
v -2.362881 2.052400 0.839238
v -2.380881 2.055797 0.821561
v -2.398881 2.052400 0.839238
f 65 66 70
f 65 70 69
f 66 67 71
f 66 71 70
f 67 68 72
f 67 72 71
f 68 65 69
f 68 69 72
v -2.380881 2.087400 0.839238
v -2.380881 2.087400 0.839238
v -2.380881 2.087400 0.839238
v -2.380881 2.087400 0.839238
v -2.380881 2.087400 0.839238
v -2.380881 2.087400 0.839238
v -2.320259 2.069900 0.839238
v -2.350570 2.069900 0.786738
v -2.411192 2.069900 0.786738
v -2.441502 2.069900 0.839238
v -2.411192 2.069900 0.891738
v -2.350570 2.069900 0.891738
v -2.320259 2.034900 0.839238
v -2.350570 2.034900 0.786738
v -2.411192 2.034900 0.786738
v -2.441502 2.034900 0.839238
v -2.411192 2.034900 0.891738
v -2.350570 2.034900 0.891738
v -2.380881 2.017400 0.839238
v -2.380881 2.017400 0.839238
v -2.380881 2.017400 0.839238
v -2.380881 2.017400 0.839238
v -2.380881 2.017400 0.839238
v -2.380881 2.017400 0.839238
f 73 80 74
f 73 79 80
f 74 81 75
f 74 80 81
f 75 82 76
f 75 81 82
f 76 83 77
f 76 82 83
f 77 84 78
f 77 83 84
f 78 79 73
f 78 84 79
f 79 86 80
f 79 85 86
f 80 87 81
f 80 86 87
f 81 88 82
f 81 87 88
f 82 89 83
f 82 88 89
f 83 90 84
f 83 89 90
f 84 85 79
f 84 90 85
f 85 92 86
f 85 91 92
f 86 93 87
f 86 92 93
f 87 94 88
f 87 93 94
f 88 95 89
f 88 94 95
f 89 96 90
f 89 95 96
f 90 91 85
f 90 96 91
v -2.380881 2.055142 0.864087
v -2.355881 2.052400 0.839238
v -2.380881 2.049658 0.814388
v -2.405881 2.052400 0.839238
v -2.380881 2.743059 0.781136
v -2.362881 2.741085 0.763245
v -2.380881 2.739111 0.745353
v -2.398881 2.741085 0.763245
f 97 98 102
f 97 102 101
f 98 99 103
f 98 103 102
f 99 100 104
f 99 104 103
f 100 97 101
f 100 101 104
v -2.380881 2.745879 0.787781
v -2.355881 2.741085 0.763245
v -2.380881 2.736291 0.738709
v -2.405881 2.741085 0.763245
v -2.380881 3.304039 0.671596
v -2.362881 3.300587 0.653930
v -2.380881 3.297135 0.636264
v -2.398881 3.300587 0.653930
f 105 106 110
f 105 110 109
f 106 107 111
f 106 111 110
f 107 108 112
f 107 112 111
f 108 105 109
f 108 109 112
v -2.380881 3.335587 0.653930
v -2.380881 3.335587 0.653930
v -2.380881 3.335587 0.653930
v -2.380881 3.335587 0.653930
v -2.380881 3.335587 0.653930
v -2.380881 3.335587 0.653930
v -2.320259 3.318087 0.653930
v -2.350570 3.318087 0.601430
v -2.411192 3.318087 0.601430
v -2.441502 3.318087 0.653930
v -2.411192 3.318087 0.706430
v -2.350570 3.318087 0.706430
v -2.320259 3.283087 0.653930
v -2.350570 3.283087 0.601430
v -2.411192 3.283087 0.601430
v -2.441502 3.283087 0.653930
v -2.411192 3.283087 0.706430
v -2.350570 3.283087 0.706430
v -2.380881 3.265587 0.653930
v -2.380881 3.265587 0.653930
v -2.380881 3.265587 0.653930
v -2.380881 3.265587 0.653930
v -2.380881 3.265587 0.653930
v -2.380881 3.265587 0.653930
f 113 120 114
f 113 119 120
f 114 121 115
f 114 120 121
f 115 122 116
f 115 121 122
f 116 123 117
f 116 122 123
f 117 124 118
f 117 123 124
f 118 119 113
f 118 124 119
f 119 126 120
f 119 125 126
f 120 127 121
f 120 126 127
f 121 128 122
f 121 127 128
f 122 129 123
f 122 128 129
f 123 130 124
f 123 129 130
f 124 125 119
f 124 130 125
f 125 132 126
f 125 131 132
f 126 133 127
f 126 132 133
f 127 134 128
f 127 133 134
f 128 135 129
f 128 134 135
f 129 136 130
f 129 135 136
f 130 131 125
f 130 136 131
v -2.380881 3.310688 0.676798
v -2.355881 3.300587 0.653930
v -2.380881 3.290486 0.631062
v -2.405881 3.300587 0.653930
v -2.380881 3.793768 0.455761
v -2.362881 3.786495 0.439296
v -2.380881 3.779222 0.422831
v -2.398881 3.786495 0.439296
f 137 138 142
f 137 142 141
f 138 139 143
f 138 143 142
f 139 140 144
f 139 144 143
f 140 137 141
f 140 141 144
v -2.380881 3.821495 0.439296
v -2.380881 3.821495 0.439296
v -2.380881 3.821495 0.439296
v -2.380881 3.821495 0.439296
v -2.380881 3.821495 0.439296
v -2.380881 3.821495 0.439296
v -2.320259 3.803995 0.439296
v -2.350570 3.803995 0.386796
v -2.411192 3.803995 0.386796
v -2.441502 3.803995 0.439296
v -2.411192 3.803995 0.491796
v -2.350570 3.803995 0.491796
v -2.320259 3.768995 0.439296
v -2.350570 3.768995 0.386796
v -2.411192 3.768995 0.386796
v -2.441502 3.768995 0.439296
v -2.411192 3.768995 0.491796
v -2.350570 3.768995 0.491796
v -2.380881 3.751495 0.439296
v -2.380881 3.751495 0.439296
v -2.380881 3.751495 0.439296
v -2.380881 3.751495 0.439296
v -2.380881 3.751495 0.439296
v -2.380881 3.751495 0.439296
f 145 152 146
f 145 151 152
f 146 153 147
f 146 152 153
f 147 154 148
f 147 153 154
f 148 155 149
f 148 154 155
f 149 156 150
f 149 155 156
f 150 151 145
f 150 156 151
f 151 158 152
f 151 157 158
f 152 159 153
f 152 158 159
f 153 160 154
f 153 159 160
f 154 161 155
f 154 160 161
f 155 162 156
f 155 161 162
f 156 157 151
f 156 162 157
f 157 164 158
f 157 163 164
f 158 165 159
f 158 164 165
f 159 166 160
f 159 165 166
f 160 167 161
f 160 166 167
f 161 168 162
f 161 167 168
f 162 163 157
f 162 168 163
v -1.357197 0.450000 -1.824147
v -1.332245 0.451559 -1.849147
v -1.357197 0.450000 -1.874147
v -1.382148 0.448441 -1.849147
v -1.383380 0.869107 -1.831147
v -1.365415 0.870230 -1.849147
v -1.383380 0.869107 -1.867147
v -1.401345 0.867985 -1.849147
f 169 170 174
f 169 174 173
f 170 171 175
f 170 175 174
f 171 172 176
f 171 176 175
f 172 169 173
f 172 173 176
v -1.383380 0.904107 -1.849147
v -1.383380 0.904107 -1.849147
v -1.383380 0.904107 -1.849147
v -1.383380 0.904107 -1.849147
v -1.383380 0.904107 -1.849147
v -1.383380 0.904107 -1.849147
v -1.322758 0.886607 -1.849147
v -1.353069 0.886607 -1.901647
v -1.413691 0.886607 -1.901647
v -1.444002 0.886607 -1.849147
v -1.413691 0.886607 -1.796647
v -1.353069 0.886607 -1.796647
v -1.322758 0.851607 -1.849147
v -1.353069 0.851607 -1.901647
v -1.413691 0.851607 -1.901647
v -1.444002 0.851607 -1.849147
v -1.413691 0.851607 -1.796647
v -1.353069 0.851607 -1.796647
v -1.383380 0.834107 -1.849147
v -1.383380 0.834107 -1.849147
v -1.383380 0.834107 -1.849147
v -1.383380 0.834107 -1.849147
v -1.383380 0.834107 -1.849147
v -1.383380 0.834107 -1.849147
f 177 184 178
f 177 183 184
f 178 185 179
f 178 184 185
f 179 186 180
f 179 185 186
f 180 187 181
f 180 186 187
f 181 188 182
f 181 187 188
f 182 183 177
f 182 188 183
f 183 190 184
f 183 189 190
f 184 191 185
f 184 190 191
f 185 192 186
f 185 191 192
f 186 193 187
f 186 192 193
f 187 194 188
f 187 193 194
f 188 189 183
f 188 194 189
f 189 196 190
f 189 195 196
f 190 197 191
f 190 196 197
f 191 198 192
f 191 197 198
f 192 199 193
f 192 198 199
f 193 200 194
f 193 199 200
f 194 195 189
f 194 200 195
v -1.383380 0.869107 -1.824147
v -1.358537 0.871906 -1.849147
v -1.383380 0.869107 -1.874147
v -1.408223 0.866309 -1.849147
v -1.441823 1.387890 -1.831147
v -1.423936 1.389905 -1.849147
v -1.441823 1.387890 -1.867147
v -1.459710 1.385875 -1.849147
f 201 202 206
f 201 206 205
f 202 203 207
f 202 207 206
f 203 204 208
f 203 208 207
f 204 201 205
f 204 205 208
v -1.441823 1.387890 -1.824147
v -1.417139 1.391854 -1.849147
v -1.441823 1.387890 -1.874147
v -1.466507 1.383926 -1.849147
v -1.522638 1.891089 -1.831147
v -1.504866 1.893944 -1.849147
v -1.522638 1.891089 -1.867147
v -1.540411 1.888235 -1.849147
f 209 210 214
f 209 214 213
f 210 211 215
f 210 215 214
f 211 212 216
f 211 216 215
f 212 209 213
f 212 213 216
v -1.522638 1.891089 -1.824147
v -1.500658 1.903000 -1.849147
v -1.522638 1.891089 -1.874147
v -1.544618 1.879178 -1.849147
v -1.758082 2.325562 -1.831147
v -1.742256 2.334138 -1.849147
v -1.758082 2.325562 -1.867147
v -1.773908 2.316986 -1.849147
f 217 218 222
f 217 222 221
f 218 219 223
f 218 223 222
f 219 220 224
f 219 224 223
f 220 217 221
f 220 221 224
v -1.758082 2.325562 -1.824147
v -1.733095 2.326373 -1.849147
v -1.758082 2.325562 -1.874147
v -1.783069 2.324750 -1.849147
v -1.778136 2.943117 -1.831147
v -1.760145 2.943701 -1.849147
v -1.778136 2.943117 -1.867147
v -1.796126 2.942533 -1.849147
f 225 226 230
f 225 230 229
f 226 227 231
f 226 231 230
f 227 228 232
f 227 232 231
f 228 225 229
f 228 229 232
v 0.937560 0.450000 -1.824147
v 0.962328 0.446604 -1.849147
v 0.937560 0.450000 -1.874147
v 0.912792 0.453396 -1.849147
v 1.000067 0.905889 -1.831147
v 1.017900 0.903444 -1.849147
v 1.000067 0.905889 -1.867147
v 0.982234 0.908334 -1.849147
f 233 234 238
f 233 238 237
f 234 235 239
f 234 239 238
f 235 236 240
f 235 240 239
f 236 233 237
f 236 237 240
v 1.000067 0.905889 -1.824147
v 1.020618 0.920126 -1.849147
v 1.000067 0.905889 -1.874147
v 0.979516 0.891653 -1.849147
v 0.751826 1.264232 -1.831147
v 0.766622 1.274482 -1.849147
v 0.751826 1.264232 -1.867147
v 0.737030 1.253981 -1.849147
f 241 242 246
f 241 246 245
f 242 243 247
f 242 247 246
f 243 244 248
f 243 248 247
f 244 241 245
f 244 245 248
v 0.751826 1.299232 -1.849147
v 0.751826 1.299232 -1.849147
v 0.751826 1.299232 -1.849147
v 0.751826 1.299232 -1.849147
v 0.751826 1.299232 -1.849147
v 0.751826 1.299232 -1.849147
v 0.812448 1.281732 -1.849147
v 0.782137 1.281732 -1.901647
v 0.721515 1.281732 -1.901647
v 0.691204 1.281732 -1.849147
v 0.721515 1.281732 -1.796647
v 0.782137 1.281732 -1.796647
v 0.812448 1.246732 -1.849147
v 0.782137 1.246732 -1.901647
v 0.721515 1.246732 -1.901647
v 0.691204 1.246732 -1.849147
v 0.721515 1.246732 -1.796647
v 0.782137 1.246732 -1.796647
v 0.751826 1.229232 -1.849147
v 0.751826 1.229232 -1.849147
v 0.751826 1.229232 -1.849147
v 0.751826 1.229232 -1.849147
v 0.751826 1.229232 -1.849147
v 0.751826 1.229232 -1.849147
f 249 256 250
f 249 255 256
f 250 257 251
f 250 256 257
f 251 258 252
f 251 257 258
f 252 259 253
f 252 258 259
f 253 260 254
f 253 259 260
f 254 255 249
f 254 260 255
f 255 262 256
f 255 261 262
f 256 263 257
f 256 262 263
f 257 264 258
f 257 263 264
f 258 265 259
f 258 264 265
f 259 266 260
f 259 265 266
f 260 261 255
f 260 266 261
f 261 268 262
f 261 267 268
f 262 269 263
f 262 268 269
f 263 270 264
f 263 269 270
f 264 271 265
f 264 270 271
f 265 272 266
f 265 271 272
f 266 267 261
f 266 272 267
v 0.751826 1.264232 -1.824147
v 0.775638 1.271848 -1.849147
v 0.751826 1.264232 -1.874147
v 0.728014 1.256616 -1.849147
v 0.530144 1.957329 -1.831147
v 0.547289 1.962813 -1.849147
v 0.530144 1.957329 -1.867147
v 0.513000 1.951846 -1.849147
f 273 274 278
f 273 278 277
f 274 275 279
f 274 279 278
f 275 276 280
f 275 280 279
f 276 273 277
f 276 277 280
v -1.019347 0.450000 -1.824147
v -0.995140 0.443753 -1.849147
v -1.019347 0.450000 -1.874147
v -1.043554 0.456247 -1.849147
v -0.883899 0.974874 -1.831147
v -0.866470 0.970376 -1.849147
v -0.883899 0.974874 -1.867147
v -0.901328 0.979372 -1.849147
f 281 282 286
f 281 286 285
f 282 283 287
f 282 287 286
f 283 284 288
f 283 288 287
f 284 281 285
f 284 285 288
v -0.883899 1.009874 -1.849147
v -0.883899 1.009874 -1.849147
v -0.883899 1.009874 -1.849147
v -0.883899 1.009874 -1.849147
v -0.883899 1.009874 -1.849147
v -0.883899 1.009874 -1.849147
v -0.823278 0.992374 -1.849147
v -0.853588 0.992374 -1.901647
v -0.914210 0.992374 -1.901647
v -0.944521 0.992374 -1.849147
v -0.914210 0.992374 -1.796647
v -0.853588 0.992374 -1.796647
v -0.823278 0.957374 -1.849147
v -0.853588 0.957374 -1.901647
v -0.914210 0.957374 -1.901647
v -0.944521 0.957374 -1.849147
v -0.914210 0.957374 -1.796647
v -0.853588 0.957374 -1.796647
v -0.883899 0.939874 -1.849147
v -0.883899 0.939874 -1.849147
v -0.883899 0.939874 -1.849147
v -0.883899 0.939874 -1.849147
v -0.883899 0.939874 -1.849147
v -0.883899 0.939874 -1.849147
f 289 296 290
f 289 295 296
f 290 297 291
f 290 296 297
f 291 298 292
f 291 297 298
f 292 299 293
f 292 298 299
f 293 300 294
f 293 299 300
f 294 295 289
f 294 300 295
f 295 302 296
f 295 301 302
f 296 303 297
f 296 302 303
f 297 304 298
f 297 303 304
f 298 305 299
f 298 304 305
f 299 306 300
f 299 305 306
f 300 301 295
f 300 306 301
f 301 308 302
f 301 307 308
f 302 309 303
f 302 308 309
f 303 310 304
f 303 309 310
f 304 311 305
f 304 310 311
f 305 312 306
f 305 311 312
f 306 307 301
f 306 312 307
v -0.883899 0.974874 -1.824147
v -0.858927 0.973705 -1.849147
v -0.883899 0.974874 -1.874147
v -0.908872 0.976043 -1.849147
v -0.863388 1.413127 -1.831147
v -0.845407 1.412285 -1.849147
v -0.863388 1.413127 -1.867147
v -0.881368 1.413968 -1.849147
f 313 314 318
f 313 318 317
f 314 315 319
f 314 319 318
f 315 316 320
f 315 320 319
f 316 313 317
f 316 317 320
v -0.863388 1.413127 -1.824147
v -0.840921 1.424092 -1.849147
v -0.863388 1.413127 -1.874147
v -0.885855 1.402162 -1.849147
v -1.045467 1.786196 -1.831147
v -1.029290 1.794091 -1.849147
v -1.045467 1.786196 -1.867147
v -1.061643 1.778301 -1.849147
f 321 322 326
f 321 326 325
f 322 323 327
f 322 327 326
f 323 324 328
f 323 328 327
f 324 321 325
f 324 325 328
v -1.045467 1.786196 -1.824147
v -1.022468 1.776394 -1.849147
v -1.045467 1.786196 -1.874147
v -1.068465 1.795998 -1.849147
v -0.863915 2.212174 -1.831147
v -0.847356 2.205116 -1.849147
v -0.863915 2.212174 -1.867147
v -0.880474 2.219231 -1.849147
f 329 330 334
f 329 334 333
f 330 331 335
f 330 335 334
f 331 332 336
f 331 336 335
f 332 329 333
f 332 333 336
v -0.863915 2.247174 -1.849147
v -0.863915 2.247174 -1.849147
v -0.863915 2.247174 -1.849147
v -0.863915 2.247174 -1.849147
v -0.863915 2.247174 -1.849147
v -0.863915 2.247174 -1.849147
v -0.803293 2.229674 -1.849147
v -0.833604 2.229674 -1.901647
v -0.894226 2.229674 -1.901647
v -0.924537 2.229674 -1.849147
v -0.894226 2.229674 -1.796647
v -0.833604 2.229674 -1.796647
v -0.803293 2.194674 -1.849147
v -0.833604 2.194674 -1.901647
v -0.894226 2.194674 -1.901647
v -0.924537 2.194674 -1.849147
v -0.894226 2.194674 -1.796647
v -0.833604 2.194674 -1.796647
v -0.863915 2.177174 -1.849147
v -0.863915 2.177174 -1.849147
v -0.863915 2.177174 -1.849147
v -0.863915 2.177174 -1.849147
v -0.863915 2.177174 -1.849147
v -0.863915 2.177174 -1.849147
f 337 344 338
f 337 343 344
f 338 345 339
f 338 344 345
f 339 346 340
f 339 345 346
f 340 347 341
f 340 346 347
f 341 348 342
f 341 347 348
f 342 343 337
f 342 348 343
f 343 350 344
f 343 349 350
f 344 351 345
f 344 350 351
f 345 352 346
f 345 351 352
f 346 353 347
f 346 352 353
f 347 354 348
f 347 353 354
f 348 349 343
f 348 354 349
f 349 356 350
f 349 355 356
f 350 357 351
f 350 356 357
f 351 358 352
f 351 357 358
f 352 359 353
f 352 358 359
f 353 360 354
f 353 359 360
f 354 355 349
f 354 360 355
v -0.863915 2.212174 -1.824147
v -0.841128 2.222457 -1.849147
v -0.863915 2.212174 -1.874147
v -0.886702 2.201891 -1.849147
v -1.060101 2.646925 -1.831147
v -1.043695 2.654328 -1.849147
v -1.060101 2.646925 -1.867147
v -1.076508 2.639521 -1.849147
f 361 362 366
f 361 366 365
f 362 363 367
f 362 367 366
f 363 364 368
f 363 368 367
f 364 361 365
f 364 365 368
v -2.380881 0.456810 0.986389
v -2.355881 0.450000 0.962335
v -2.380881 0.443190 0.938280
v -2.405881 0.450000 0.962335
v -2.380881 1.028670 0.817208
v -2.362881 1.023767 0.799889
v -2.380881 1.018863 0.782569
v -2.398881 1.023767 0.799889
f 369 370 374
f 369 374 373
f 370 371 375
f 370 375 374
f 371 372 376
f 371 376 375
f 372 369 373
f 372 373 376
v -2.380881 1.031890 0.823532
v -2.355881 1.023767 0.799889
v -2.380881 1.015644 0.776245
v -2.405881 1.023767 0.799889
v -2.380881 1.601396 0.620460
v -2.362881 1.595547 0.603437
v -2.380881 1.589698 0.586414
v -2.398881 1.595547 0.603437
f 377 378 382
f 377 382 381
f 378 379 383
f 378 383 382
f 379 380 384
f 379 384 383
f 380 377 381
f 380 381 384
v -2.380881 1.630547 0.603437
v -2.380881 1.630547 0.603437
v -2.380881 1.630547 0.603437
v -2.380881 1.630547 0.603437
v -2.380881 1.630547 0.603437
v -2.380881 1.630547 0.603437
v -2.320259 1.613047 0.603437
v -2.350570 1.613047 0.550937
v -2.411192 1.613047 0.550937
v -2.441502 1.613047 0.603437
v -2.411192 1.613047 0.655937
v -2.350570 1.613047 0.655937
v -2.320259 1.578047 0.603437
v -2.350570 1.578047 0.550937
v -2.411192 1.578047 0.550937
v -2.441502 1.578047 0.603437
v -2.411192 1.578047 0.655937
v -2.350570 1.578047 0.655937
v -2.380881 1.560547 0.603437
v -2.380881 1.560547 0.603437
v -2.380881 1.560547 0.603437
v -2.380881 1.560547 0.603437
v -2.380881 1.560547 0.603437
v -2.380881 1.560547 0.603437
f 385 392 386
f 385 391 392
f 386 393 387
f 386 392 393
f 387 394 388
f 387 393 394
f 388 395 389
f 388 394 395
f 389 396 390
f 389 395 396
f 390 391 385
f 390 396 391
f 391 398 392
f 391 397 398
f 392 399 393
f 392 398 399
f 393 400 394
f 393 399 400
f 394 401 395
f 394 400 401
f 395 402 396
f 395 401 402
f 396 397 391
f 396 402 397
f 397 404 398
f 397 403 404
f 398 405 399
f 398 404 405
f 399 406 400
f 399 405 406
f 400 407 401
f 400 406 407
f 401 408 402
f 401 407 408
f 402 403 397
f 402 408 403
v -2.380881 1.588215 0.627338
v -2.355881 1.595547 0.603437
v -2.380881 1.602879 0.579537
v -2.405881 1.595547 0.603437
v -2.380881 1.997080 0.745445
v -2.362881 2.002359 0.728236
v -2.380881 2.007638 0.711028
v -2.398881 2.002359 0.728236
f 409 410 414
f 409 414 413
f 410 411 415
f 410 415 414
f 411 412 416
f 411 416 415
f 412 409 413
f 412 413 416
v -2.380881 2.037359 0.728236
v -2.380881 2.037359 0.728236
v -2.380881 2.037359 0.728236
v -2.380881 2.037359 0.728236
v -2.380881 2.037359 0.728236
v -2.380881 2.037359 0.728236
v -2.320259 2.019859 0.728236
v -2.350570 2.019859 0.675736
v -2.411192 2.019859 0.675736
v -2.441502 2.019859 0.728236
v -2.411192 2.019859 0.780736
v -2.350570 2.019859 0.780736
v -2.320259 1.984859 0.728236
v -2.350570 1.984859 0.675736
v -2.411192 1.984859 0.675736
v -2.441502 1.984859 0.728236
v -2.411192 1.984859 0.780736
v -2.350570 1.984859 0.780736
v -2.380881 1.967359 0.728236
v -2.380881 1.967359 0.728236
v -2.380881 1.967359 0.728236
v -2.380881 1.967359 0.728236
v -2.380881 1.967359 0.728236
v -2.380881 1.967359 0.728236
f 417 424 418
f 417 423 424
f 418 425 419
f 418 424 425
f 419 426 420
f 419 425 426
f 420 427 421
f 420 426 427
f 421 428 422
f 421 427 428
f 422 423 417
f 422 428 423
f 423 430 424
f 423 429 430
f 424 431 425
f 424 430 431
f 425 432 426
f 425 431 432
f 426 433 427
f 426 432 433
f 427 434 428
f 427 433 434
f 428 429 423
f 428 434 429
f 429 436 430
f 429 435 436
f 430 437 431
f 430 436 437
f 431 438 432
f 431 437 438
f 432 439 433
f 432 438 439
f 433 440 434
f 433 439 440
f 434 435 429
f 434 440 435
v -2.380881 2.008409 0.752493
v -2.355881 2.002359 0.728236
v -2.380881 1.996310 0.703979
v -2.405881 2.002359 0.728236
v -2.380881 2.679913 0.577801
v -2.362881 2.675557 0.560336
v -2.380881 2.671201 0.542871
v -2.398881 2.675557 0.560336
f 441 442 446
f 441 446 445
f 442 443 447
f 442 447 446
f 443 444 448
f 443 448 447
f 444 441 445
f 444 445 448
v -2.380881 2.710557 0.560336
v -2.380881 2.710557 0.560336
v -2.380881 2.710557 0.560336
v -2.380881 2.710557 0.560336
v -2.380881 2.710557 0.560336
v -2.380881 2.710557 0.560336
v -2.320259 2.693057 0.560336
v -2.350570 2.693057 0.507836
v -2.411192 2.693057 0.507836
v -2.441502 2.693057 0.560336
v -2.411192 2.693057 0.612836
v -2.350570 2.693057 0.612836
v -2.320259 2.658057 0.560336
v -2.350570 2.658057 0.507836
v -2.411192 2.658057 0.507836
v -2.441502 2.658057 0.560336
v -2.411192 2.658057 0.612836
v -2.350570 2.658057 0.612836
v -2.380881 2.640557 0.560336
v -2.380881 2.640557 0.560336
v -2.380881 2.640557 0.560336
v -2.380881 2.640557 0.560336
v -2.380881 2.640557 0.560336
v -2.380881 2.640557 0.560336
f 449 456 450
f 449 455 456
f 450 457 451
f 450 456 457
f 451 458 452
f 451 457 458
f 452 459 453
f 452 458 459
f 453 460 454
f 453 459 460
f 454 455 449
f 454 460 455
f 455 462 456
f 455 461 462
f 456 463 457
f 456 462 463
f 457 464 458
f 457 463 464
f 458 465 459
f 458 464 465
f 459 466 460
f 459 465 466
f 460 461 455
f 460 466 461
f 461 468 462
f 461 467 468
f 462 469 463
f 462 468 469
f 463 470 464
f 463 469 470
f 464 471 465
f 464 470 471
f 465 472 466
f 465 471 472
f 466 467 461
f 466 472 467
v 2.380881 0.454726 1.251797
v 2.405881 0.450000 1.227248
v 2.380881 0.445274 1.202698
v 2.355881 0.450000 1.227248
v 2.380881 1.038157 1.132356
v 2.398881 1.034754 1.114681
v 2.380881 1.031352 1.097005
v 2.362881 1.034754 1.114681
f 473 474 478
f 473 478 477
f 474 475 479
f 474 479 478
f 475 476 480
f 475 480 479
f 476 473 477
f 476 477 480
v 2.380881 1.069754 1.114681
v 2.380881 1.069754 1.114681
v 2.380881 1.069754 1.114681
v 2.380881 1.069754 1.114681
v 2.380881 1.069754 1.114681
v 2.380881 1.069754 1.114681
v 2.441502 1.052254 1.114681
v 2.411192 1.052254 1.062181
v 2.350570 1.052254 1.062181
v 2.320259 1.052254 1.114681
v 2.350570 1.052254 1.167181
v 2.411192 1.052254 1.167181
v 2.441502 1.017254 1.114681
v 2.411192 1.017254 1.062181
v 2.350570 1.017254 1.062181
v 2.320259 1.017254 1.114681
v 2.350570 1.017254 1.167181
v 2.411192 1.017254 1.167181
v 2.380881 0.999754 1.114681
v 2.380881 0.999754 1.114681
v 2.380881 0.999754 1.114681
v 2.380881 0.999754 1.114681
v 2.380881 0.999754 1.114681
v 2.380881 0.999754 1.114681
f 481 488 482
f 481 487 488
f 482 489 483
f 482 488 489
f 483 490 484
f 483 489 490
f 484 491 485
f 484 490 491
f 485 492 486
f 485 491 492
f 486 487 481
f 486 492 487
f 487 494 488
f 487 493 494
f 488 495 489
f 488 494 495
f 489 496 490
f 489 495 496
f 490 497 491
f 490 496 497
f 491 498 492
f 491 497 498
f 492 493 487
f 492 498 493
f 493 500 494
f 493 499 500
f 494 501 495
f 494 500 501
f 495 502 496
f 495 501 502
f 496 503 497
f 496 502 503
f 497 504 498
f 497 503 504
f 498 499 493
f 498 504 499
v 2.405881 1.034754 1.114681
v 2.380881 1.047676 1.093279
v 2.355881 1.034754 1.114681
v 2.380881 1.021832 1.136082
v 2.398881 1.436224 1.357084
v 2.380881 1.445527 1.341675
v 2.362881 1.436224 1.357084
v 2.380881 1.426920 1.372493
f 505 506 510
f 505 510 509
f 506 507 511
f 506 511 510
f 507 508 512
f 507 512 511
f 508 505 509
f 508 509 512
v 2.380881 1.471224 1.357084
v 2.380881 1.471224 1.357084
v 2.380881 1.471224 1.357084
v 2.380881 1.471224 1.357084
v 2.380881 1.471224 1.357084
v 2.380881 1.471224 1.357084
v 2.441502 1.453724 1.357084
v 2.411192 1.453724 1.304584
v 2.350570 1.453724 1.304584
v 2.320259 1.453724 1.357084
v 2.350570 1.453724 1.409584
v 2.411192 1.453724 1.409584
v 2.441502 1.418724 1.357084
v 2.411192 1.418724 1.304584
v 2.350570 1.418724 1.304584
v 2.320259 1.418724 1.357084
v 2.350570 1.418724 1.409584
v 2.411192 1.418724 1.409584
v 2.380881 1.401224 1.357084
v 2.380881 1.401224 1.357084
v 2.380881 1.401224 1.357084
v 2.380881 1.401224 1.357084
v 2.380881 1.401224 1.357084
v 2.380881 1.401224 1.357084
f 513 520 514
f 513 519 520
f 514 521 515
f 514 520 521
f 515 522 516
f 515 521 522
f 516 523 517
f 516 522 523
f 517 524 518
f 517 523 524
f 518 519 513
f 518 524 519
f 519 526 520
f 519 525 526
f 520 527 521
f 520 526 527
f 521 528 522
f 521 527 528
f 522 529 523
f 522 528 529
f 523 530 524
f 523 529 530
f 524 525 519
f 524 530 525
f 525 532 526
f 525 531 532
f 526 533 527
f 526 532 533
f 527 534 528
f 527 533 534
f 528 535 529
f 528 534 535
f 529 536 530
f 529 535 536
f 530 531 525
f 530 536 531
v 2.380881 1.446101 1.380050
v 2.405881 1.436224 1.357084
v 2.380881 1.426346 1.334118
v 2.355881 1.436224 1.357084
v 2.380881 1.886799 1.182882
v 2.398881 1.879687 1.166347
v 2.380881 1.872575 1.149811
v 2.362881 1.879687 1.166347
f 537 538 542
f 537 542 541
f 538 539 543
f 538 543 542
f 539 540 544
f 539 544 543
f 540 537 541
f 540 541 544
v 2.380881 1.914687 1.166347
v 2.380881 1.914687 1.166347
v 2.380881 1.914687 1.166347
v 2.380881 1.914687 1.166347
v 2.380881 1.914687 1.166347
v 2.380881 1.914687 1.166347
v 2.441502 1.897187 1.166347
v 2.411192 1.897187 1.113847
v 2.350570 1.897187 1.113847
v 2.320259 1.897187 1.166347
v 2.350570 1.897187 1.218847
v 2.411192 1.897187 1.218847
v 2.441502 1.862187 1.166347
v 2.411192 1.862187 1.113847
v 2.350570 1.862187 1.113847
v 2.320259 1.862187 1.166347
v 2.350570 1.862187 1.218847
v 2.411192 1.862187 1.218847
v 2.380881 1.844687 1.166347
v 2.380881 1.844687 1.166347
v 2.380881 1.844687 1.166347
v 2.380881 1.844687 1.166347
v 2.380881 1.844687 1.166347
v 2.380881 1.844687 1.166347
f 545 552 546
f 545 551 552
f 546 553 547
f 546 552 553
f 547 554 548
f 547 553 554
f 548 555 549
f 548 554 555
f 549 556 550
f 549 555 556
f 550 551 545
f 550 556 551
f 551 558 552
f 551 557 558
f 552 559 553
f 552 558 559
f 553 560 554
f 553 559 560
f 554 561 555
f 554 560 561
f 555 562 556
f 555 561 562
f 556 557 551
f 556 562 557
f 557 564 558
f 557 563 564
f 558 565 559
f 558 564 565
f 559 566 560
f 559 565 566
f 560 567 561
f 560 566 567
f 561 568 562
f 561 567 568
f 562 563 557
f 562 568 563
v 2.380881 0.444056 0.402881
v 2.405881 0.450000 0.378598
v 2.380881 0.455944 0.354314
v 2.355881 0.450000 0.378598
v 2.380881 1.064015 0.547419
v 2.398881 1.068294 0.529935
v 2.380881 1.072574 0.512451
v 2.362881 1.068294 0.529935
f 569 570 574
f 569 574 573
f 570 571 575
f 570 575 574
f 571 572 576
f 571 576 575
f 572 569 573
f 572 573 576
v 2.380881 1.103294 0.529935
v 2.380881 1.103294 0.529935
v 2.380881 1.103294 0.529935
v 2.380881 1.103294 0.529935
v 2.380881 1.103294 0.529935
v 2.380881 1.103294 0.529935
v 2.441502 1.085794 0.529935
v 2.411192 1.085794 0.477435
v 2.350570 1.085794 0.477435
v 2.320259 1.085794 0.529935
v 2.350570 1.085794 0.582435
v 2.411192 1.085794 0.582435
v 2.441502 1.050794 0.529935
v 2.411192 1.050794 0.477435
v 2.350570 1.050794 0.477435
v 2.320259 1.050794 0.529935
v 2.350570 1.050794 0.582435
v 2.411192 1.050794 0.582435
v 2.380881 1.033294 0.529935
v 2.380881 1.033294 0.529935
v 2.380881 1.033294 0.529935
v 2.380881 1.033294 0.529935
v 2.380881 1.033294 0.529935
v 2.380881 1.033294 0.529935
f 577 584 578
f 577 583 584
f 578 585 579
f 578 584 585
f 579 586 580
f 579 585 586
f 580 587 581
f 580 586 587
f 581 588 582
f 581 587 588
f 582 583 577
f 582 588 583
f 583 590 584
f 583 589 590
f 584 591 585
f 584 590 591
f 585 592 586
f 585 591 592
f 586 593 587
f 586 592 593
f 587 594 588
f 587 593 594
f 588 589 583
f 588 594 589
f 589 596 590
f 589 595 596
f 590 597 591
f 590 596 597
f 591 598 592
f 591 597 598
f 592 599 593
f 592 598 599
f 593 600 594
f 593 599 600
f 594 595 589
f 594 600 595
v 2.380881 1.071626 0.554712
v 2.405881 1.068294 0.529935
v 2.380881 1.064963 0.505158
v 2.355881 1.068294 0.529935
v 2.380881 1.483463 0.492275
v 2.398881 1.481064 0.474435
v 2.380881 1.478665 0.456596
v 2.362881 1.481064 0.474435
f 601 602 606
f 601 606 605
f 602 603 607
f 602 607 606
f 603 604 608
f 603 608 607
f 604 601 605
f 604 605 608
v 2.380881 1.516064 0.474435
v 2.380881 1.516064 0.474435
v 2.380881 1.516064 0.474435
v 2.380881 1.516064 0.474435
v 2.380881 1.516064 0.474435
v 2.380881 1.516064 0.474435
v 2.441502 1.498564 0.474435
v 2.411192 1.498564 0.421935
v 2.350570 1.498564 0.421935
v 2.320259 1.498564 0.474435
v 2.350570 1.498564 0.526935
v 2.411192 1.498564 0.526935
v 2.441502 1.463564 0.474435
v 2.411192 1.463564 0.421935
v 2.350570 1.463564 0.421935
v 2.320259 1.463564 0.474435
v 2.350570 1.463564 0.526935
v 2.411192 1.463564 0.526935
v 2.380881 1.446064 0.474435
v 2.380881 1.446064 0.474435
v 2.380881 1.446064 0.474435
v 2.380881 1.446064 0.474435
v 2.380881 1.446064 0.474435
v 2.380881 1.446064 0.474435
f 609 616 610
f 609 615 616
f 610 617 611
f 610 616 617
f 611 618 612
f 611 617 618
f 612 619 613
f 612 618 619
f 613 620 614
f 613 619 620
f 614 615 609
f 614 620 615
f 615 622 616
f 615 621 622
f 616 623 617
f 616 622 623
f 617 624 618
f 617 623 624
f 618 625 619
f 618 624 625
f 619 626 620
f 619 625 626
f 620 621 615
f 620 626 621
f 621 628 622
f 621 627 628
f 622 629 623
f 622 628 629
f 623 630 624
f 623 629 630
f 624 631 625
f 624 630 631
f 625 632 626
f 625 631 632
f 626 627 621
f 626 632 627
v 2.380881 1.490634 0.497531
v 2.405881 1.481064 0.474435
v 2.380881 1.471494 0.451339
v 2.355881 1.481064 0.474435
v 2.380881 2.045920 0.259856
v 2.398881 2.039029 0.243227
v 2.380881 2.032138 0.226598
v 2.362881 2.039029 0.243227
f 633 634 638
f 633 638 637
f 634 635 639
f 634 639 638
f 635 636 640
f 635 640 639
f 636 633 637
f 636 637 640
v 2.380881 2.074029 0.243227
v 2.380881 2.074029 0.243227
v 2.380881 2.074029 0.243227
v 2.380881 2.074029 0.243227
v 2.380881 2.074029 0.243227
v 2.380881 2.074029 0.243227
v 2.441502 2.056529 0.243227
v 2.411192 2.056529 0.190727
v 2.350570 2.056529 0.190727
v 2.320259 2.056529 0.243227
v 2.350570 2.056529 0.295727
v 2.411192 2.056529 0.295727
v 2.441502 2.021529 0.243227
v 2.411192 2.021529 0.190727
v 2.350570 2.021529 0.190727
v 2.320259 2.021529 0.243227
v 2.350570 2.021529 0.295727
v 2.411192 2.021529 0.295727
v 2.380881 2.004029 0.243227
v 2.380881 2.004029 0.243227
v 2.380881 2.004029 0.243227
v 2.380881 2.004029 0.243227
v 2.380881 2.004029 0.243227
v 2.380881 2.004029 0.243227
f 641 648 642
f 641 647 648
f 642 649 643
f 642 648 649
f 643 650 644
f 643 649 650
f 644 651 645
f 644 650 651
f 645 652 646
f 645 651 652
f 646 647 641
f 646 652 647
f 647 654 648
f 647 653 654
f 648 655 649
f 648 654 655
f 649 656 650
f 649 655 656
f 650 657 651
f 650 656 657
f 651 658 652
f 651 657 658
f 652 653 647
f 652 658 653
f 653 660 654
f 653 659 660
f 654 661 655
f 654 660 661
f 655 662 656
f 655 661 662
f 656 663 657
f 656 662 663
f 657 664 658
f 657 663 664
f 658 659 653
f 658 664 659
v 2.380881 2.047028 0.266913
v 2.405881 2.039029 0.243227
v 2.380881 2.031030 0.219541
v 2.355881 2.039029 0.243227
v 2.380881 2.593612 0.074927
v 2.398881 2.587852 0.057874
v 2.380881 2.582093 0.040820
v 2.362881 2.587852 0.057874
f 665 666 670
f 665 670 669
f 666 667 671
f 666 671 670
f 667 668 672
f 667 672 671
f 668 665 669
f 668 669 672
v 2.380881 2.592788 0.082381
v 2.405881 2.587852 0.057874
v 2.380881 2.582917 0.033366
v 2.355881 2.587852 0.057874
v 2.380881 3.239531 -0.055012
v 2.398881 3.235977 -0.072658
v 2.380881 3.232423 -0.090303
v 2.362881 3.235977 -0.072658
f 673 674 678
f 673 678 677
f 674 675 679
f 674 679 678
f 675 676 680
f 675 680 679
f 676 673 677
f 676 677 680
v 2.380881 3.270977 -0.072658
v 2.380881 3.270977 -0.072658
v 2.380881 3.270977 -0.072658
v 2.380881 3.270977 -0.072658
v 2.380881 3.270977 -0.072658
v 2.380881 3.270977 -0.072658
v 2.441502 3.253477 -0.072658
v 2.411192 3.253477 -0.125158
v 2.350570 3.253477 -0.125158
v 2.320259 3.253477 -0.072658
v 2.350570 3.253477 -0.020158
v 2.411192 3.253477 -0.020158
v 2.441502 3.218477 -0.072658
v 2.411192 3.218477 -0.125158
v 2.350570 3.218477 -0.125158
v 2.320259 3.218477 -0.072658
v 2.350570 3.218477 -0.020158
v 2.411192 3.218477 -0.020158
v 2.380881 3.200977 -0.072658
v 2.380881 3.200977 -0.072658
v 2.380881 3.200977 -0.072658
v 2.380881 3.200977 -0.072658
v 2.380881 3.200977 -0.072658
v 2.380881 3.200977 -0.072658
f 681 688 682
f 681 687 688
f 682 689 683
f 682 688 689
f 683 690 684
f 683 689 690
f 684 691 685
f 684 690 691
f 685 692 686
f 685 691 692
f 686 687 681
f 686 692 687
f 687 694 688
f 687 693 694
f 688 695 689
f 688 694 695
f 689 696 690
f 689 695 696
f 690 697 691
f 690 696 697
f 691 698 692
f 691 697 698
f 692 693 687
f 692 698 693
f 693 700 694
f 693 699 700
f 694 701 695
f 694 700 701
f 695 702 696
f 695 701 702
f 696 703 697
f 696 702 703
f 697 704 698
f 697 703 704
f 698 699 693
f 698 704 699
v -0.151685 0.450000 -1.824147
v -0.128709 0.440145 -1.849147
v -0.151685 0.450000 -1.874147
v -0.174661 0.459855 -1.849147
v 0.037717 0.891579 -1.831147
v 0.054260 0.884484 -1.849147
v 0.037717 0.891579 -1.867147
v 0.021175 0.898675 -1.849147
f 705 706 710
f 705 710 709
f 706 707 711
f 706 711 710
f 707 708 712
f 707 712 711
f 708 705 709
f 708 709 712
v 0.037717 0.926579 -1.849147
v 0.037717 0.926579 -1.849147
v 0.037717 0.926579 -1.849147
v 0.037717 0.926579 -1.849147
v 0.037717 0.926579 -1.849147
v 0.037717 0.926579 -1.849147
v 0.098339 0.909079 -1.849147
v 0.068028 0.909079 -1.901647
v 0.007406 0.909079 -1.901647
v -0.022904 0.909079 -1.849147
v 0.007406 0.909079 -1.796647
v 0.068028 0.909079 -1.796647
v 0.098339 0.874079 -1.849147
v 0.068028 0.874079 -1.901647
v 0.007406 0.874079 -1.901647
v -0.022904 0.874079 -1.849147
v 0.007406 0.874079 -1.796647
v 0.068028 0.874079 -1.796647
v 0.037717 0.856579 -1.849147
v 0.037717 0.856579 -1.849147
v 0.037717 0.856579 -1.849147
v 0.037717 0.856579 -1.849147
v 0.037717 0.856579 -1.849147
v 0.037717 0.856579 -1.849147
f 713 720 714
f 713 719 720
f 714 721 715
f 714 720 721
f 715 722 716
f 715 721 722
f 716 723 717
f 716 722 723
f 717 724 718
f 717 723 724
f 718 719 713
f 718 724 719
f 719 726 720
f 719 725 726
f 720 727 721
f 720 726 727
f 721 728 722
f 721 727 728
f 722 729 723
f 722 728 729
f 723 730 724
f 723 729 730
f 724 725 719
f 724 730 725
f 725 732 726
f 725 731 732
f 726 733 727
f 726 732 733
f 727 734 728
f 727 733 734
f 728 735 729
f 728 734 735
f 729 736 730
f 729 735 736
f 730 731 725
f 730 736 731
v 0.037717 0.891579 -1.824147
v 0.061749 0.898471 -1.849147
v 0.037717 0.891579 -1.874147
v 0.013686 0.884688 -1.849147
v -0.077876 1.294658 -1.831147
v -0.060573 1.299620 -1.849147
v -0.077876 1.294658 -1.867147
v -0.095179 1.289696 -1.849147
f 737 738 742
f 737 742 741
f 738 739 743
f 738 743 742
f 739 740 744
f 739 744 743
f 740 737 741
f 740 741 744
v -0.077876 1.294658 -1.824147
v -0.055172 1.305123 -1.849147
v -0.077876 1.294658 -1.874147
v -0.100580 1.284193 -1.849147
v -0.261740 1.693560 -1.831147
v -0.245393 1.701095 -1.849147
v -0.261740 1.693560 -1.867147
v -0.278087 1.686026 -1.849147
f 745 746 750
f 745 750 749
f 746 747 751
f 746 751 750
f 747 748 752
f 747 752 751
f 748 745 749
f 748 749 752
v -0.261740 1.728560 -1.849147
v -0.261740 1.728560 -1.849147
v -0.261740 1.728560 -1.849147
v -0.261740 1.728560 -1.849147
v -0.261740 1.728560 -1.849147
v -0.261740 1.728560 -1.849147
v -0.201118 1.711060 -1.849147
v -0.231429 1.711060 -1.901647
v -0.292051 1.711060 -1.901647
v -0.322362 1.711060 -1.849147
v -0.292051 1.711060 -1.796647
v -0.231429 1.711060 -1.796647
v -0.201118 1.676060 -1.849147
v -0.231429 1.676060 -1.901647
v -0.292051 1.676060 -1.901647
v -0.322362 1.676060 -1.849147
v -0.292051 1.676060 -1.796647
v -0.231429 1.676060 -1.796647
v -0.261740 1.658560 -1.849147
v -0.261740 1.658560 -1.849147
v -0.261740 1.658560 -1.849147
v -0.261740 1.658560 -1.849147
v -0.261740 1.658560 -1.849147
v -0.261740 1.658560 -1.849147
f 753 760 754
f 753 759 760
f 754 761 755
f 754 760 761
f 755 762 756
f 755 761 762
f 756 763 757
f 756 762 763
f 757 764 758
f 757 763 764
f 758 759 753
f 758 764 759
f 759 766 760
f 759 765 766
f 760 767 761
f 760 766 767
f 761 768 762
f 761 767 768
f 762 769 763
f 762 768 769
f 763 770 764
f 763 769 770
f 764 765 759
f 764 770 765
f 765 772 766
f 765 771 772
f 766 773 767
f 766 772 773
f 767 774 768
f 767 773 774
f 768 775 769
f 768 774 775
f 769 776 770
f 769 775 776
f 770 771 765
f 770 776 771
v -0.261740 1.693560 -1.824147
v -0.238105 1.685412 -1.849147
v -0.261740 1.693560 -1.874147
v -0.285375 1.701709 -1.849147
v -0.060708 2.276690 -1.831147
v -0.043691 2.270823 -1.849147
v -0.060708 2.276690 -1.867147
v -0.077725 2.282557 -1.849147
f 777 778 782
f 777 782 781
f 778 779 783
f 778 783 782
f 779 780 784
f 779 784 783
f 780 777 781
f 780 781 784
v -0.060708 2.311690 -1.849147
v -0.060708 2.311690 -1.849147
v -0.060708 2.311690 -1.849147
v -0.060708 2.311690 -1.849147
v -0.060708 2.311690 -1.849147
v -0.060708 2.311690 -1.849147
v -0.000086 2.294190 -1.849147
v -0.030397 2.294190 -1.901647
v -0.091019 2.294190 -1.901647
v -0.121330 2.294190 -1.849147
v -0.091019 2.294190 -1.796647
v -0.030397 2.294190 -1.796647
v -0.000086 2.259190 -1.849147
v -0.030397 2.259190 -1.901647
v -0.091019 2.259190 -1.901647
v -0.121330 2.259190 -1.849147
v -0.091019 2.259190 -1.796647
v -0.030397 2.259190 -1.796647
v -0.060708 2.241690 -1.849147
v -0.060708 2.241690 -1.849147
v -0.060708 2.241690 -1.849147
v -0.060708 2.241690 -1.849147
v -0.060708 2.241690 -1.849147
v -0.060708 2.241690 -1.849147
f 785 792 786
f 785 791 792
f 786 793 787
f 786 792 793
f 787 794 788
f 787 793 794
f 788 795 789
f 788 794 795
f 789 796 790
f 789 795 796
f 790 791 785
f 790 796 791
f 791 798 792
f 791 797 798
f 792 799 793
f 792 798 799
f 793 800 794
f 793 799 800
f 794 801 795
f 794 800 801
f 795 802 796
f 795 801 802
f 796 797 791
f 796 802 797
f 797 804 798
f 797 803 804
f 798 805 799
f 798 804 805
f 799 806 800
f 799 805 806
f 800 807 801
f 800 806 807
f 801 808 802
f 801 807 808
f 802 803 797
f 802 808 803
v -0.060708 2.276690 -1.824147
v -0.037197 2.285189 -1.849147
v -0.060708 2.276690 -1.874147
v -0.084219 2.268191 -1.849147
v -0.206440 2.679839 -1.831147
v -0.189513 2.685958 -1.849147
v -0.206440 2.679839 -1.867147
v -0.223368 2.673720 -1.849147
f 809 810 814
f 809 814 813
f 810 811 815
f 810 815 814
f 811 812 816
f 811 816 815
f 812 809 813
f 812 813 816
v -0.206440 2.714839 -1.849147
v -0.206440 2.714839 -1.849147
v -0.206440 2.714839 -1.849147
v -0.206440 2.714839 -1.849147
v -0.206440 2.714839 -1.849147
v -0.206440 2.714839 -1.849147
v -0.145819 2.697339 -1.849147
v -0.176130 2.697339 -1.901647
v -0.236751 2.697339 -1.901647
v -0.267062 2.697339 -1.849147
v -0.236751 2.697339 -1.796647
v -0.176130 2.697339 -1.796647
v -0.145819 2.662339 -1.849147
v -0.176130 2.662339 -1.901647
v -0.236751 2.662339 -1.901647
v -0.267062 2.662339 -1.849147
v -0.236751 2.662339 -1.796647
v -0.176130 2.662339 -1.796647
v -0.206440 2.644839 -1.849147
v -0.206440 2.644839 -1.849147
v -0.206440 2.644839 -1.849147
v -0.206440 2.644839 -1.849147
v -0.206440 2.644839 -1.849147
v -0.206440 2.644839 -1.849147
f 817 824 818
f 817 823 824
f 818 825 819
f 818 824 825
f 819 826 820
f 819 825 826
f 820 827 821
f 820 826 827
f 821 828 822
f 821 827 828
f 822 823 817
f 822 828 823
f 823 830 824
f 823 829 830
f 824 831 825
f 824 830 831
f 825 832 826
f 825 831 832
f 826 833 827
f 826 832 833
f 827 834 828
f 827 833 834
f 828 829 823
f 828 834 829
f 829 836 830
f 829 835 836
f 830 837 831
f 830 836 837
f 831 838 832
f 831 837 838
f 832 839 833
f 832 838 839
f 833 840 834
f 833 839 840
f 834 835 829
f 834 840 835
v -0.206440 2.679839 -1.824147
v -0.182713 2.671966 -1.849147
v -0.206440 2.679839 -1.874147
v -0.230168 2.687713 -1.849147
v -0.086948 3.039946 -1.831147
v -0.069864 3.034277 -1.849147
v -0.086948 3.039946 -1.867147
v -0.104032 3.045615 -1.849147
f 841 842 846
f 841 846 845
f 842 843 847
f 842 847 846
f 843 844 848
f 843 848 847
f 844 841 845
f 844 845 848
v -0.086948 3.074946 -1.849147
v -0.086948 3.074946 -1.849147
v -0.086948 3.074946 -1.849147
v -0.086948 3.074946 -1.849147
v -0.086948 3.074946 -1.849147
v -0.086948 3.074946 -1.849147
v -0.026326 3.057446 -1.849147
v -0.056637 3.057446 -1.901647
v -0.117259 3.057446 -1.901647
v -0.147570 3.057446 -1.849147
v -0.117259 3.057446 -1.796647
v -0.056637 3.057446 -1.796647
v -0.026326 3.022446 -1.849147
v -0.056637 3.022446 -1.901647
v -0.117259 3.022446 -1.901647
v -0.147570 3.022446 -1.849147
v -0.117259 3.022446 -1.796647
v -0.056637 3.022446 -1.796647
v -0.086948 3.004946 -1.849147
v -0.086948 3.004946 -1.849147
v -0.086948 3.004946 -1.849147
v -0.086948 3.004946 -1.849147
v -0.086948 3.004946 -1.849147
v -0.086948 3.004946 -1.849147
f 849 856 850
f 849 855 856
f 850 857 851
f 850 856 857
f 851 858 852
f 851 857 858
f 852 859 853
f 852 858 859
f 853 860 854
f 853 859 860
f 854 855 849
f 854 860 855
f 855 862 856
f 855 861 862
f 856 863 857
f 856 862 863
f 857 864 858
f 857 863 864
f 858 865 859
f 858 864 865
f 859 866 860
f 859 865 866
f 860 861 855
f 860 866 861
f 861 868 862
f 861 867 868
f 862 869 863
f 862 868 869
f 863 870 864
f 863 869 870
f 864 871 865
f 864 870 871
f 865 872 866
f 865 871 872
f 866 867 861
f 866 872 867
v 2.380881 0.449425 -0.816815
v 2.405881 0.450000 -0.841809
v 2.380881 0.450575 -0.866802
v 2.355881 0.450000 -0.841809
v 2.380881 1.088556 -0.809113
v 2.398881 1.088970 -0.827108
v 2.380881 1.089384 -0.845103
v 2.362881 1.088970 -0.827108
f 873 874 878
f 873 878 877
f 874 875 879
f 874 879 878
f 875 876 880
f 875 880 879
f 876 873 877
f 876 877 880
v 2.380881 1.123970 -0.827108
v 2.380881 1.123970 -0.827108
v 2.380881 1.123970 -0.827108
v 2.380881 1.123970 -0.827108
v 2.380881 1.123970 -0.827108
v 2.380881 1.123970 -0.827108
v 2.441502 1.106470 -0.827108
v 2.411192 1.106470 -0.879608
v 2.350570 1.106470 -0.879608
v 2.320259 1.106470 -0.827108
v 2.350570 1.106470 -0.774608
v 2.411192 1.106470 -0.774608
v 2.441502 1.071470 -0.827108
v 2.411192 1.071470 -0.879608
v 2.350570 1.071470 -0.879608
v 2.320259 1.071470 -0.827108
v 2.350570 1.071470 -0.774608
v 2.411192 1.071470 -0.774608
v 2.380881 1.053970 -0.827108
v 2.380881 1.053970 -0.827108
v 2.380881 1.053970 -0.827108
v 2.380881 1.053970 -0.827108
v 2.380881 1.053970 -0.827108
v 2.380881 1.053970 -0.827108
f 881 888 882
f 881 887 888
f 882 889 883
f 882 888 889
f 883 890 884
f 883 889 890
f 884 891 885
f 884 890 891
f 885 892 886
f 885 891 892
f 886 887 881
f 886 892 887
f 887 894 888
f 887 893 894
f 888 895 889
f 888 894 895
f 889 896 890
f 889 895 896
f 890 897 891
f 890 896 897
f 891 898 892
f 891 897 898
f 892 893 887
f 892 898 893
f 893 900 894
f 893 899 900
f 894 901 895
f 894 900 901
f 895 902 896
f 895 901 902
f 896 903 897
f 896 902 903
f 897 904 898
f 897 903 904
f 898 899 893
f 898 904 899
v 2.380881 1.088601 -0.802111
v 2.405881 1.088970 -0.827108
v 2.380881 1.089339 -0.852105
v 2.355881 1.088970 -0.827108
v 2.380881 1.441660 -0.803898
v 2.398881 1.441926 -0.821896
v 2.380881 1.442192 -0.839894
v 2.362881 1.441926 -0.821896
f 905 906 910
f 905 910 909
f 906 907 911
f 906 911 910
f 907 908 912
f 907 912 911
f 908 905 909
f 908 909 912
v 2.380881 1.476926 -0.821896
v 2.380881 1.476926 -0.821896
v 2.380881 1.476926 -0.821896
v 2.380881 1.476926 -0.821896
v 2.380881 1.476926 -0.821896
v 2.380881 1.476926 -0.821896
v 2.441502 1.459426 -0.821896
v 2.411192 1.459426 -0.874396
v 2.350570 1.459426 -0.874396
v 2.320259 1.459426 -0.821896
v 2.350570 1.459426 -0.769396
v 2.411192 1.459426 -0.769396
v 2.441502 1.424426 -0.821896
v 2.411192 1.424426 -0.874396
v 2.350570 1.424426 -0.874396
v 2.320259 1.424426 -0.821896
v 2.350570 1.424426 -0.769396
v 2.411192 1.424426 -0.769396
v 2.380881 1.406926 -0.821896
v 2.380881 1.406926 -0.821896
v 2.380881 1.406926 -0.821896
v 2.380881 1.406926 -0.821896
v 2.380881 1.406926 -0.821896
v 2.380881 1.406926 -0.821896
f 913 920 914
f 913 919 920
f 914 921 915
f 914 920 921
f 915 922 916
f 915 921 922
f 916 923 917
f 916 922 923
f 917 924 918
f 917 923 924
f 918 919 913
f 918 924 919
f 919 926 920
f 919 925 926
f 920 927 921
f 920 926 927
f 921 928 922
f 921 927 928
f 922 929 923
f 922 928 929
f 923 930 924
f 923 929 930
f 924 925 919
f 924 930 925
f 925 932 926
f 925 931 932
f 926 933 927
f 926 932 933
f 927 934 928
f 927 933 934
f 928 935 929
f 928 934 935
f 929 936 930
f 929 935 936
f 930 931 925
f 930 936 931
v 2.380881 1.446771 -0.797370
v 2.405881 1.441926 -0.821896
v 2.380881 1.437082 -0.846422
v 2.355881 1.441926 -0.821896
v 2.380881 1.844869 -0.883140
v 2.398881 1.841381 -0.900798
v 2.380881 1.837893 -0.918457
v 2.362881 1.841381 -0.900798
f 937 938 942
f 937 942 941
f 938 939 943
f 938 943 942
f 939 940 944
f 939 944 943
f 940 937 941
f 940 941 944
v 2.380881 1.876381 -0.900798
v 2.380881 1.876381 -0.900798
v 2.380881 1.876381 -0.900798
v 2.380881 1.876381 -0.900798
v 2.380881 1.876381 -0.900798
v 2.380881 1.876381 -0.900798
v 2.441502 1.858881 -0.900798
v 2.411192 1.858881 -0.953298
v 2.350570 1.858881 -0.953298
v 2.320259 1.858881 -0.900798
v 2.350570 1.858881 -0.848298
v 2.411192 1.858881 -0.848298
v 2.441502 1.823881 -0.900798
v 2.411192 1.823881 -0.953298
v 2.350570 1.823881 -0.953298
v 2.320259 1.823881 -0.900798
v 2.350570 1.823881 -0.848298
v 2.411192 1.823881 -0.848298
v 2.380881 1.806381 -0.900798
v 2.380881 1.806381 -0.900798
v 2.380881 1.806381 -0.900798
v 2.380881 1.806381 -0.900798
v 2.380881 1.806381 -0.900798
v 2.380881 1.806381 -0.900798
f 945 952 946
f 945 951 952
f 946 953 947
f 946 952 953
f 947 954 948
f 947 953 954
f 948 955 949
f 948 954 955
f 949 956 950
f 949 955 956
f 950 951 945
f 950 956 951
f 951 958 952
f 951 957 958
f 952 959 953
f 952 958 959
f 953 960 954
f 953 959 960
f 954 961 955
f 954 960 961
f 955 962 956
f 955 961 962
f 956 957 951
f 956 962 957
f 957 964 958
f 957 963 964
f 958 965 959
f 958 964 965
f 959 966 960
f 959 965 966
f 960 967 961
f 960 966 967
f 961 968 962
f 961 967 968
f 962 963 957
f 962 968 963
v 2.380881 1.832692 -0.877357
v 2.405881 1.841381 -0.900798
v 2.380881 1.850070 -0.924240
v 2.355881 1.841381 -0.900798
v 2.380881 2.420808 -0.666829
v 2.398881 2.427064 -0.683707
v 2.380881 2.433320 -0.700585
v 2.362881 2.427064 -0.683707
f 969 970 974
f 969 974 973
f 970 971 975
f 970 975 974
f 971 972 976
f 971 976 975
f 972 969 973
f 972 973 976
v -2.380881 0.446647 -0.802022
v -2.355881 0.450000 -0.826796
v -2.380881 0.453353 -0.851570
v -2.405881 0.450000 -0.826796
v -2.380881 1.126076 -0.717127
v -2.362881 1.128490 -0.734965
v -2.380881 1.130904 -0.752802
v -2.398881 1.128490 -0.734965
f 977 978 982
f 977 982 981
f 978 979 983
f 978 983 982
f 979 980 984
f 979 984 983
f 980 977 981
f 980 981 984
v -2.380881 1.163490 -0.734965
v -2.380881 1.163490 -0.734965
v -2.380881 1.163490 -0.734965
v -2.380881 1.163490 -0.734965
v -2.380881 1.163490 -0.734965
v -2.380881 1.163490 -0.734965
v -2.320259 1.145990 -0.734965
v -2.350570 1.145990 -0.787465
v -2.411192 1.145990 -0.787465
v -2.441502 1.145990 -0.734965
v -2.411192 1.145990 -0.682465
v -2.350570 1.145990 -0.682465
v -2.320259 1.110990 -0.734965
v -2.350570 1.110990 -0.787465
v -2.411192 1.110990 -0.787465
v -2.441502 1.110990 -0.734965
v -2.411192 1.110990 -0.682465
v -2.350570 1.110990 -0.682465
v -2.380881 1.093490 -0.734965
v -2.380881 1.093490 -0.734965
v -2.380881 1.093490 -0.734965
v -2.380881 1.093490 -0.734965
v -2.380881 1.093490 -0.734965
v -2.380881 1.093490 -0.734965
f 985 992 986
f 985 991 992
f 986 993 987
f 986 992 993
f 987 994 988
f 987 993 994
f 988 995 989
f 988 994 995
f 989 996 990
f 989 995 996
f 990 991 985
f 990 996 991
f 991 998 992
f 991 997 998
f 992 999 993
f 992 998 999
f 993 1000 994
f 993 999 1000
f 994 1001 995
f 994 1000 1001
f 995 1002 996
f 995 1001 1002
f 996 997 991
f 996 1002 997
f 997 1004 998
f 997 1003 1004
f 998 1005 999
f 998 1004 1005
f 999 1006 1000
f 999 1005 1006
f 1000 1007 1001
f 1000 1006 1007
f 1001 1008 1002
f 1001 1007 1008
f 1002 1003 997
f 1002 1008 1003
v -2.380881 1.122238 -0.710759
v -2.355881 1.128490 -0.734965
v -2.380881 1.134742 -0.759170
v -2.405881 1.128490 -0.734965
v -2.380881 1.707873 -0.566728
v -2.362881 1.712374 -0.584156
v -2.380881 1.716876 -0.601584
v -2.398881 1.712374 -0.584156
f 1009 1010 1014
f 1009 1014 1013
f 1010 1011 1015
f 1010 1015 1014
f 1011 1012 1016
f 1011 1016 1015
f 1012 1009 1013
f 1012 1013 1016
v -2.380881 1.747374 -0.584156
v -2.380881 1.747374 -0.584156
v -2.380881 1.747374 -0.584156
v -2.380881 1.747374 -0.584156
v -2.380881 1.747374 -0.584156
v -2.380881 1.747374 -0.584156
v -2.320259 1.729874 -0.584156
v -2.350570 1.729874 -0.636656
v -2.411192 1.729874 -0.636656
v -2.441502 1.729874 -0.584156
v -2.411192 1.729874 -0.531656
v -2.350570 1.729874 -0.531656
v -2.320259 1.694874 -0.584156
v -2.350570 1.694874 -0.636656
v -2.411192 1.694874 -0.636656
v -2.441502 1.694874 -0.584156
v -2.411192 1.694874 -0.531656
v -2.350570 1.694874 -0.531656
v -2.380881 1.677374 -0.584156
v -2.380881 1.677374 -0.584156
v -2.380881 1.677374 -0.584156
v -2.380881 1.677374 -0.584156
v -2.380881 1.677374 -0.584156
v -2.380881 1.677374 -0.584156
f 1017 1024 1018
f 1017 1023 1024
f 1018 1025 1019
f 1018 1024 1025
f 1019 1026 1020
f 1019 1025 1026
f 1020 1027 1021
f 1020 1026 1027
f 1021 1028 1022
f 1021 1027 1028
f 1022 1023 1017
f 1022 1028 1023
f 1023 1030 1024
f 1023 1029 1030
f 1024 1031 1025
f 1024 1030 1031
f 1025 1032 1026
f 1025 1031 1032
f 1026 1033 1027
f 1026 1032 1033
f 1027 1034 1028
f 1027 1033 1034
f 1028 1029 1023
f 1028 1034 1029
f 1029 1036 1030
f 1029 1035 1036
f 1030 1037 1031
f 1030 1036 1037
f 1031 1038 1032
f 1031 1037 1038
f 1032 1039 1033
f 1032 1038 1039
f 1033 1040 1034
f 1033 1039 1040
f 1034 1035 1029
f 1034 1040 1035
v -2.380881 1.721919 -0.561049
v -2.355881 1.712374 -0.584156
v -2.380881 1.702829 -0.607262
v -2.405881 1.712374 -0.584156
v -2.380881 2.265789 -0.793295
v -2.362881 2.258917 -0.809931
v -2.380881 2.252044 -0.826567
v -2.398881 2.258917 -0.809931
f 1041 1042 1046
f 1041 1046 1045
f 1042 1043 1047
f 1042 1047 1046
f 1043 1044 1048
f 1043 1048 1047
f 1044 1041 1045
f 1044 1045 1048
v -2.380881 2.293917 -0.809931
v -2.380881 2.293917 -0.809931
v -2.380881 2.293917 -0.809931
v -2.380881 2.293917 -0.809931
v -2.380881 2.293917 -0.809931
v -2.380881 2.293917 -0.809931
v -2.320259 2.276417 -0.809931
v -2.350570 2.276417 -0.862431
v -2.411192 2.276417 -0.862431
v -2.441502 2.276417 -0.809931
v -2.411192 2.276417 -0.757431
v -2.350570 2.276417 -0.757431
v -2.320259 2.241417 -0.809931
v -2.350570 2.241417 -0.862431
v -2.411192 2.241417 -0.862431
v -2.441502 2.241417 -0.809931
v -2.411192 2.241417 -0.757431
v -2.350570 2.241417 -0.757431
v -2.380881 2.223917 -0.809931
v -2.380881 2.223917 -0.809931
v -2.380881 2.223917 -0.809931
v -2.380881 2.223917 -0.809931
v -2.380881 2.223917 -0.809931
v -2.380881 2.223917 -0.809931
f 1049 1056 1050
f 1049 1055 1056
f 1050 1057 1051
f 1050 1056 1057
f 1051 1058 1052
f 1051 1057 1058
f 1052 1059 1053
f 1052 1058 1059
f 1053 1060 1054
f 1053 1059 1060
f 1054 1055 1049
f 1054 1060 1055
f 1055 1062 1056
f 1055 1061 1062
f 1056 1063 1057
f 1056 1062 1063
f 1057 1064 1058
f 1057 1063 1064
f 1058 1065 1059
f 1058 1064 1065
f 1059 1066 1060
f 1059 1065 1066
f 1060 1061 1055
f 1060 1066 1061
f 1061 1068 1062
f 1061 1067 1068
f 1062 1069 1063
f 1062 1068 1069
f 1063 1070 1064
f 1063 1069 1070
f 1064 1071 1065
f 1064 1070 1071
f 1065 1072 1066
f 1065 1071 1072
f 1066 1067 1061
f 1066 1072 1067
v -2.380881 2.249260 -0.786871
v -2.355881 2.258917 -0.809931
v -2.380881 2.268574 -0.832991
v -2.405881 2.258917 -0.809931
v -2.380881 2.823455 -0.554003
v -2.362881 2.830408 -0.570606
v -2.380881 2.837361 -0.587209
v -2.398881 2.830408 -0.570606
f 1073 1074 1078
f 1073 1078 1077
f 1074 1075 1079
f 1074 1079 1078
f 1075 1076 1080
f 1075 1080 1079
f 1076 1073 1077
f 1076 1077 1080
v -2.380881 2.829386 -0.545627
v -2.355881 2.830408 -0.570606
v -2.380881 2.831431 -0.595585
v -2.405881 2.830408 -0.570606
v -2.380881 3.409639 -0.528883
v -2.362881 3.410375 -0.546868
v -2.380881 3.411111 -0.564853
v -2.398881 3.410375 -0.546868
f 1081 1082 1086
f 1081 1086 1085
f 1082 1083 1087
f 1082 1087 1086
f 1083 1084 1088
f 1083 1088 1087
f 1084 1081 1085
f 1084 1085 1088
v -2.380881 3.445375 -0.546868
v -2.380881 3.445375 -0.546868
v -2.380881 3.445375 -0.546868
v -2.380881 3.445375 -0.546868
v -2.380881 3.445375 -0.546868
v -2.380881 3.445375 -0.546868
v -2.320259 3.427875 -0.546868
v -2.350570 3.427875 -0.599368
v -2.411192 3.427875 -0.599368
v -2.441502 3.427875 -0.546868
v -2.411192 3.427875 -0.494368
v -2.350570 3.427875 -0.494368
v -2.320259 3.392875 -0.546868
v -2.350570 3.392875 -0.599368
v -2.411192 3.392875 -0.599368
v -2.441502 3.392875 -0.546868
v -2.411192 3.392875 -0.494368
v -2.350570 3.392875 -0.494368
v -2.380881 3.375375 -0.546868
v -2.380881 3.375375 -0.546868
v -2.380881 3.375375 -0.546868
v -2.380881 3.375375 -0.546868
v -2.380881 3.375375 -0.546868
v -2.380881 3.375375 -0.546868
f 1089 1096 1090
f 1089 1095 1096
f 1090 1097 1091
f 1090 1096 1097
f 1091 1098 1092
f 1091 1097 1098
f 1092 1099 1093
f 1092 1098 1099
f 1093 1100 1094
f 1093 1099 1100
f 1094 1095 1089
f 1094 1100 1095
f 1095 1102 1096
f 1095 1101 1102
f 1096 1103 1097
f 1096 1102 1103
f 1097 1104 1098
f 1097 1103 1104
f 1098 1105 1099
f 1098 1104 1105
f 1099 1106 1100
f 1099 1105 1106
f 1100 1101 1095
f 1100 1106 1101
f 1101 1108 1102
f 1101 1107 1108
f 1102 1109 1103
f 1102 1108 1109
f 1103 1110 1104
f 1103 1109 1110
f 1104 1111 1105
f 1104 1110 1111
f 1105 1112 1106
f 1105 1111 1112
f 1106 1107 1101
f 1106 1112 1107
v -2.380881 3.402330 -0.523197
v -2.355881 3.410375 -0.546868
v -2.380881 3.418420 -0.570538
v -2.405881 3.410375 -0.546868
v -2.380881 3.908697 -0.358494
v -2.362881 3.914489 -0.375537
v -2.380881 3.920282 -0.392579
v -2.398881 3.914489 -0.375537
f 1113 1114 1118
f 1113 1118 1117
f 1114 1115 1119
f 1114 1119 1118
f 1115 1116 1120
f 1115 1120 1119
f 1116 1113 1117
f 1116 1117 1120
v -2.380881 3.949489 -0.375537
v -2.380881 3.949489 -0.375537
v -2.380881 3.949489 -0.375537
v -2.380881 3.949489 -0.375537
v -2.380881 3.949489 -0.375537
v -2.380881 3.949489 -0.375537
v -2.320259 3.931989 -0.375537
v -2.350570 3.931989 -0.428037
v -2.411192 3.931989 -0.428037
v -2.441502 3.931989 -0.375537
v -2.411192 3.931989 -0.323037
v -2.350570 3.931989 -0.323037
v -2.320259 3.896989 -0.375537
v -2.350570 3.896989 -0.428037
v -2.411192 3.896989 -0.428037
v -2.441502 3.896989 -0.375537
v -2.411192 3.896989 -0.323037
v -2.350570 3.896989 -0.323037
v -2.380881 3.879489 -0.375537
v -2.380881 3.879489 -0.375537
v -2.380881 3.879489 -0.375537
v -2.380881 3.879489 -0.375537
v -2.380881 3.879489 -0.375537
v -2.380881 3.879489 -0.375537
f 1121 1128 1122
f 1121 1127 1128
f 1122 1129 1123
f 1122 1128 1129
f 1123 1130 1124
f 1123 1129 1130
f 1124 1131 1125
f 1124 1130 1131
f 1125 1132 1126
f 1125 1131 1132
f 1126 1127 1121
f 1126 1132 1127
f 1127 1134 1128
f 1127 1133 1134
f 1128 1135 1129
f 1128 1134 1135
f 1129 1136 1130
f 1129 1135 1136
f 1130 1137 1131
f 1130 1136 1137
f 1131 1138 1132
f 1131 1137 1138
f 1132 1133 1127
f 1132 1138 1133
f 1133 1140 1134
f 1133 1139 1140
f 1134 1141 1135
f 1134 1140 1141
f 1135 1142 1136
f 1135 1141 1142
f 1136 1143 1137
f 1136 1142 1143
f 1137 1144 1138
f 1137 1143 1144
f 1138 1139 1133
f 1138 1144 1139
v 2.380881 0.457750 0.816308
v 2.405881 0.450000 0.792539
v 2.380881 0.442250 0.768771
v 2.355881 0.450000 0.792539
v 2.380881 1.123503 0.591871
v 2.398881 1.117923 0.574757
v 2.380881 1.112343 0.557644
v 2.362881 1.117923 0.574757
f 1145 1146 1150
f 1145 1150 1149
f 1146 1147 1151
f 1146 1151 1150
f 1147 1148 1152
f 1147 1152 1151
f 1148 1145 1149
f 1148 1149 1152
v 2.380881 1.152923 0.574757
v 2.380881 1.152923 0.574757
v 2.380881 1.152923 0.574757
v 2.380881 1.152923 0.574757
v 2.380881 1.152923 0.574757
v 2.380881 1.152923 0.574757
v 2.441502 1.135423 0.574757
v 2.411192 1.135423 0.522257
v 2.350570 1.135423 0.522257
v 2.320259 1.135423 0.574757
v 2.350570 1.135423 0.627257
v 2.411192 1.135423 0.627257
v 2.441502 1.100423 0.574757
v 2.411192 1.100423 0.522257
v 2.350570 1.100423 0.522257
v 2.320259 1.100423 0.574757
v 2.350570 1.100423 0.627257
v 2.411192 1.100423 0.627257
v 2.380881 1.082923 0.574757
v 2.380881 1.082923 0.574757
v 2.380881 1.082923 0.574757
v 2.380881 1.082923 0.574757
v 2.380881 1.082923 0.574757
v 2.380881 1.082923 0.574757
f 1153 1160 1154
f 1153 1159 1160
f 1154 1161 1155
f 1154 1160 1161
f 1155 1162 1156
f 1155 1161 1162
f 1156 1163 1157
f 1156 1162 1163
f 1157 1164 1158
f 1157 1163 1164
f 1158 1159 1153
f 1158 1164 1159
f 1159 1166 1160
f 1159 1165 1166
f 1160 1167 1161
f 1160 1166 1167
f 1161 1168 1162
f 1161 1167 1168
f 1162 1169 1163
f 1162 1168 1169
f 1163 1170 1164
f 1163 1169 1170
f 1164 1165 1159
f 1164 1170 1165
f 1165 1172 1166
f 1165 1171 1172
f 1166 1173 1167
f 1166 1172 1173
f 1167 1174 1168
f 1167 1173 1174
f 1168 1175 1169
f 1168 1174 1175
f 1169 1176 1170
f 1169 1175 1176
f 1170 1171 1165
f 1170 1176 1171
v 2.380881 1.125265 0.598655
v 2.405881 1.117923 0.574757
v 2.380881 1.110581 0.550860
v 2.355881 1.117923 0.574757
v 2.380881 1.603912 0.444278
v 2.398881 1.598626 0.427072
v 2.380881 1.593340 0.409865
v 2.362881 1.598626 0.427072
f 1177 1178 1182
f 1177 1182 1181
f 1178 1179 1183
f 1178 1183 1182
f 1179 1180 1184
f 1179 1184 1183
f 1180 1177 1181
f 1180 1181 1184
v 2.380881 1.633626 0.427072
v 2.380881 1.633626 0.427072
v 2.380881 1.633626 0.427072
v 2.380881 1.633626 0.427072
v 2.380881 1.633626 0.427072
v 2.380881 1.633626 0.427072
v 2.441502 1.616126 0.427072
v 2.411192 1.616126 0.374572
v 2.350570 1.616126 0.374572
v 2.320259 1.616126 0.427072
v 2.350570 1.616126 0.479572
v 2.411192 1.616126 0.479572
v 2.441502 1.581126 0.427072
v 2.411192 1.581126 0.374572
v 2.350570 1.581126 0.374572
v 2.320259 1.581126 0.427072
v 2.350570 1.581126 0.479572
v 2.411192 1.581126 0.479572
v 2.380881 1.563626 0.427072
v 2.380881 1.563626 0.427072
v 2.380881 1.563626 0.427072
v 2.380881 1.563626 0.427072
v 2.380881 1.563626 0.427072
v 2.380881 1.563626 0.427072
f 1185 1192 1186
f 1185 1191 1192
f 1186 1193 1187
f 1186 1192 1193
f 1187 1194 1188
f 1187 1193 1194
f 1188 1195 1189
f 1188 1194 1195
f 1189 1196 1190
f 1189 1195 1196
f 1190 1191 1185
f 1190 1196 1191
f 1191 1198 1192
f 1191 1197 1198
f 1192 1199 1193
f 1192 1198 1199
f 1193 1200 1194
f 1193 1199 1200
f 1194 1201 1195
f 1194 1200 1201
f 1195 1202 1196
f 1195 1201 1202
f 1196 1197 1191
f 1196 1202 1197
f 1197 1204 1198
f 1197 1203 1204
f 1198 1205 1199
f 1198 1204 1205
f 1199 1206 1200
f 1199 1205 1206
f 1200 1207 1201
f 1200 1206 1207
f 1201 1208 1202
f 1201 1207 1208
f 1202 1203 1197
f 1202 1208 1203
v 2.380881 1.602871 0.451709
v 2.405881 1.598626 0.427072
v 2.380881 1.594381 0.402435
v 2.355881 1.598626 0.427072
v 2.380881 2.191348 0.343208
v 2.398881 2.188291 0.325470
v 2.380881 2.185235 0.307731
v 2.362881 2.188291 0.325470
f 1209 1210 1214
f 1209 1214 1213
f 1210 1211 1215
f 1210 1215 1214
f 1211 1212 1216
f 1211 1216 1215
f 1212 1209 1213
f 1212 1213 1216
v 2.380881 2.185557 0.350319
v 2.405881 2.188291 0.325470
v 2.380881 2.191026 0.300620
v 2.355881 2.188291 0.325470
v 2.380881 2.823180 0.413453
v 2.398881 2.825149 0.395561
v 2.380881 2.827118 0.377669
v 2.362881 2.825149 0.395561
f 1217 1218 1222
f 1217 1222 1221
f 1218 1219 1223
f 1218 1223 1222
f 1219 1220 1224
f 1219 1224 1223
f 1220 1217 1221
f 1220 1221 1224
v 2.380881 2.860149 0.395561
v 2.380881 2.860149 0.395561
v 2.380881 2.860149 0.395561
v 2.380881 2.860149 0.395561
v 2.380881 2.860149 0.395561
v 2.380881 2.860149 0.395561
v 2.441502 2.842649 0.395561
v 2.411192 2.842649 0.343061
v 2.350570 2.842649 0.343061
v 2.320259 2.842649 0.395561
v 2.350570 2.842649 0.448061
v 2.411192 2.842649 0.448061
v 2.441502 2.807649 0.395561
v 2.411192 2.807649 0.343061
v 2.350570 2.807649 0.343061
v 2.320259 2.807649 0.395561
v 2.350570 2.807649 0.448061
v 2.411192 2.807649 0.448061
v 2.380881 2.790149 0.395561
v 2.380881 2.790149 0.395561
v 2.380881 2.790149 0.395561
v 2.380881 2.790149 0.395561
v 2.380881 2.790149 0.395561
v 2.380881 2.790149 0.395561
f 1225 1232 1226
f 1225 1231 1232
f 1226 1233 1227
f 1226 1232 1233
f 1227 1234 1228
f 1227 1233 1234
f 1228 1235 1229
f 1228 1234 1235
f 1229 1236 1230
f 1229 1235 1236
f 1230 1231 1225
f 1230 1236 1231
f 1231 1238 1232
f 1231 1237 1238
f 1232 1239 1233
f 1232 1238 1239
f 1233 1240 1234
f 1233 1239 1240
f 1234 1241 1235
f 1234 1240 1241
f 1235 1242 1236
f 1235 1241 1242
f 1236 1237 1231
f 1236 1242 1237
f 1237 1244 1238
f 1237 1243 1244
f 1238 1245 1239
f 1238 1244 1245
f 1239 1246 1240
f 1239 1245 1246
f 1240 1247 1241
f 1240 1246 1247
f 1241 1248 1242
f 1241 1247 1248
f 1242 1243 1237
f 1242 1248 1243
v 2.380881 2.816116 0.418872
v 2.405881 2.825149 0.395561
v 2.380881 2.834182 0.372250
v 2.355881 2.825149 0.395561
v 2.380881 3.380254 0.629971
v 2.398881 3.386758 0.613187
v 2.380881 3.393262 0.596403
v 2.362881 3.386758 0.613187
f 1249 1250 1254
f 1249 1254 1253
f 1250 1251 1255
f 1250 1255 1254
f 1251 1252 1256
f 1251 1256 1255
f 1252 1249 1253
f 1252 1253 1256
v 2.380881 3.421758 0.613187
v 2.380881 3.421758 0.613187
v 2.380881 3.421758 0.613187
v 2.380881 3.421758 0.613187
v 2.380881 3.421758 0.613187
v 2.380881 3.421758 0.613187
v 2.441502 3.404258 0.613187
v 2.411192 3.404258 0.560687
v 2.350570 3.404258 0.560687
v 2.320259 3.404258 0.613187
v 2.350570 3.404258 0.665687
v 2.411192 3.404258 0.665687
v 2.441502 3.369258 0.613187
v 2.411192 3.369258 0.560687
v 2.350570 3.369258 0.560687
v 2.320259 3.369258 0.613187
v 2.350570 3.369258 0.665687
v 2.411192 3.369258 0.665687
v 2.380881 3.351758 0.613187
v 2.380881 3.351758 0.613187
v 2.380881 3.351758 0.613187
v 2.380881 3.351758 0.613187
v 2.380881 3.351758 0.613187
v 2.380881 3.351758 0.613187
f 1257 1264 1258
f 1257 1263 1264
f 1258 1265 1259
f 1258 1264 1265
f 1259 1266 1260
f 1259 1265 1266
f 1260 1267 1261
f 1260 1266 1267
f 1261 1268 1262
f 1261 1267 1268
f 1262 1263 1257
f 1262 1268 1263
f 1263 1270 1264
f 1263 1269 1270
f 1264 1271 1265
f 1264 1270 1271
f 1265 1272 1266
f 1265 1271 1272
f 1266 1273 1267
f 1266 1272 1273
f 1267 1274 1268
f 1267 1273 1274
f 1268 1269 1263
f 1268 1274 1269
f 1269 1276 1270
f 1269 1275 1276
f 1270 1277 1271
f 1270 1276 1277
f 1271 1278 1272
f 1271 1277 1278
f 1272 1279 1273
f 1272 1278 1279
f 1273 1280 1274
f 1273 1279 1280
f 1274 1275 1269
f 1274 1280 1275
