o mesh
v 0.000000 0.000000 0.035000
v 0.016490 0.000000 0.022697
v 0.028878 0.000000 0.009383
v 0.028878 0.000000 -0.009383
v 0.016490 0.000000 -0.022697
v 0.000000 0.000000 -0.035000
v -0.016490 0.000000 -0.022697
v -0.028878 0.000000 -0.009383
v -0.028878 0.000000 0.009383
v -0.016490 0.000000 0.022697
v 0.000000 0.600000 0.031500
v 0.014841 0.600000 0.020427
v 0.025990 0.600000 0.008445
v 0.025990 0.600000 -0.008445
v 0.014841 0.600000 -0.020427
v 0.000000 0.600000 -0.031500
v -0.014841 0.600000 -0.020427
v -0.025990 0.600000 -0.008445
v -0.025990 0.600000 0.008445
v -0.014841 0.600000 0.020427
f 1 2 12
f 1 12 11
f 2 3 13
f 2 13 12
f 3 4 14
f 3 14 13
f 4 5 15
f 4 15 14
f 5 6 16
f 5 16 15
f 6 7 17
f 6 17 16
f 7 8 18
f 7 18 17
f 8 9 19
f 8 19 18
f 9 10 20
f 9 20 19
f 10 1 11
f 10 11 20
v 0.000000 0.600790 0.031490
v 0.014779 0.601867 0.020387
v 0.025882 0.602584 0.008383
v 0.025882 0.602161 -0.008502
v 0.014779 0.600842 -0.020455
v 0.000000 0.599210 -0.031490
v -0.014779 0.598133 -0.020387
v -0.025882 0.597416 -0.008383
v -0.025882 0.597839 0.008502
v -0.014779 0.599158 0.020455
v -0.046910 1.112129 0.015506
v -0.033608 1.113099 0.005513
v -0.023616 1.113744 -0.005291
v -0.023616 1.113363 -0.020487
v -0.033608 1.112176 -0.031245
v -0.046910 1.110707 -0.041177
v -0.060211 1.109737 -0.031184
v -0.070203 1.109092 -0.020380
v -0.070203 1.109473 -0.005184
v -0.060211 1.110660 0.005574
f 21 22 32
f 21 32 31
f 22 23 33
f 22 33 32
f 23 24 34
f 23 34 33
f 24 25 35
f 24 35 34
f 25 26 36
f 25 36 35
f 26 27 37
f 26 37 36
f 27 28 38
f 27 38 37
f 28 29 39
f 28 39 38
f 29 30 40
f 29 40 39
f 30 21 31
f 30 31 40
v -0.046910 1.111418 -0.012836
v -0.045159 1.110853 -0.008604
v -0.043071 1.110316 -0.004504
v -0.040218 1.109841 -0.000704
v -0.036252 1.109458 0.002662
v -0.031020 1.109178 0.005532
v -0.024630 1.108993 0.007950
v -0.017463 1.108872 0.010064
v -0.010114 1.108766 0.012106
v -0.003295 1.108616 0.014357
v 0.002293 1.108366 0.017088
v 0.006094 1.107969 0.020518
v 0.007802 1.107401 0.024766
v 0.007415 1.106661 0.029833
v 0.005242 1.105774 0.035599
v 0.001838 1.104787 0.041845
v -0.002096 1.103757 0.048299
v -0.005849 1.102741 0.054682
v -0.008824 1.101789 0.060761
v -0.010641 1.100932 0.066387
v -0.011192 1.100179 0.071519
v -0.010630 1.099517 0.076215
v -0.009304 1.098917 0.080612
v -0.007639 1.098345 0.084877
v -0.009389 1.098910 0.080645
v -0.011478 1.099447 0.076546
v -0.014330 1.099922 0.072745
v -0.018296 1.100305 0.069380
v -0.023528 1.100585 0.066510
v -0.029918 1.100770 0.064092
v -0.037085 1.100891 0.061978
v -0.044435 1.100997 0.059935
v -0.051253 1.101147 0.057685
v -0.056841 1.101397 0.054953
v -0.060643 1.101794 0.051524
v -0.062350 1.102362 0.047275
v -0.061963 1.103102 0.042208
v -0.059790 1.103989 0.036443
v -0.056387 1.104976 0.030196
v -0.052452 1.106006 0.023742
v -0.048700 1.107022 0.017359
v -0.045725 1.107974 0.011281
v -0.043907 1.108831 0.005654
v -0.043356 1.109584 0.000523
v -0.043919 1.110246 -0.004173
v -0.045245 1.110846 -0.008570
f 41 42 43
f 41 43 42
f 41 43 44
f 41 44 43
f 41 44 45
f 41 45 44
f 41 45 46
f 41 46 45
f 41 46 47
f 41 47 46
f 41 47 48
f 41 48 47
f 41 48 49
f 41 49 48
f 41 49 50
f 41 50 49
f 41 50 51
f 41 51 50
f 41 51 52
f 41 52 51
f 41 52 53
f 41 53 52
f 41 53 54
f 41 54 53
f 41 54 55
f 41 55 54
f 41 55 56
f 41 56 55
f 41 56 57
f 41 57 56
f 41 57 58
f 41 58 57
f 41 58 59
f 41 59 58
f 41 59 60
f 41 60 59
f 41 60 61
f 41 61 60
f 41 61 62
f 41 62 61
f 41 62 63
f 41 63 62
f 41 63 64
f 41 64 63
f 41 64 65
f 41 65 64
f 41 65 66
f 41 66 65
f 41 66 67
f 41 67 66
f 41 67 68
f 41 68 67
f 41 68 69
f 41 69 68
f 41 69 70
f 41 70 69
f 41 70 71
f 41 71 70
f 41 71 72
f 41 72 71
f 41 72 73
f 41 73 72
f 41 73 74
f 41 74 73
f 41 74 75
f 41 75 74
f 41 75 76
f 41 76 75
f 41 76 77
f 41 77 76
f 41 77 78
f 41 78 77
f 41 78 79
f 41 79 78
f 41 79 80
f 41 80 79
f 41 80 81
f 41 81 80
f 41 81 82
f 41 82 81
f 41 82 83
f 41 83 82
f 41 83 84
f 41 84 83
f 41 84 85
f 41 85 84
f 41 85 86
f 41 86 85
v -0.046910 1.111418 -0.012836
v -0.042788 1.110437 -0.016001
v -0.039405 1.109355 -0.020529
v -0.036643 1.108187 -0.026204
v -0.034362 1.106952 -0.032762
v -0.032390 1.105675 -0.039893
v -0.030542 1.104380 -0.047250
v -0.028622 1.103096 -0.054477
v -0.026444 1.101847 -0.061227
v -0.023840 1.100657 -0.067191
v -0.020672 1.099545 -0.072115
v -0.016843 1.098524 -0.075821
v -0.012302 1.097601 -0.078214
v -0.007050 1.096777 -0.079295
v -0.001137 1.096043 -0.079158
v 0.005340 1.095388 -0.077981
v 0.012243 1.094791 -0.076017
v 0.019405 1.094230 -0.073577
v 0.026638 1.093679 -0.071007
v 0.033747 1.093111 -0.068663
v 0.040547 1.092500 -0.066891
v 0.046867 1.091822 -0.066003
v 0.052565 1.091059 -0.066262
v 0.057524 1.090194 -0.067883
v 0.053403 1.091175 -0.064717
v 0.050020 1.092258 -0.060189
v 0.047258 1.093426 -0.054515
v 0.044977 1.094660 -0.047957
v 0.043005 1.095938 -0.040826
v 0.041157 1.097232 -0.033468
v 0.039237 1.098516 -0.026242
v 0.037059 1.099765 -0.019491
v 0.034455 1.100955 -0.013527
v 0.031287 1.102067 -0.008603
v 0.027458 1.103088 -0.004898
v 0.022917 1.104011 -0.002505
v 0.017665 1.104836 -0.001423
v 0.011752 1.105569 -0.001561
v 0.005275 1.106225 -0.002738
v -0.001628 1.106821 -0.004701
v -0.008790 1.107382 -0.007141
v -0.016023 1.107934 -0.009712
v -0.023133 1.108502 -0.012056
v -0.029932 1.109113 -0.013828
v -0.036252 1.109790 -0.014715
v -0.041950 1.110553 -0.014456
f 87 88 89
f 87 89 88
f 87 89 90
f 87 90 89
f 87 90 91
f 87 91 90
f 87 91 92
f 87 92 91
f 87 92 93
f 87 93 92
f 87 93 94
f 87 94 93
f 87 94 95
f 87 95 94
f 87 95 96
f 87 96 95
f 87 96 97
f 87 97 96
f 87 97 98
f 87 98 97
f 87 98 99
f 87 99 98
f 87 99 100
f 87 100 99
f 87 100 101
f 87 101 100
f 87 101 102
f 87 102 101
f 87 102 103
f 87 103 102
f 87 103 104
f 87 104 103
f 87 104 105
f 87 105 104
f 87 105 106
f 87 106 105
f 87 106 107
f 87 107 106
f 87 107 108
f 87 108 107
f 87 108 109
f 87 109 108
f 87 109 110
f 87 110 109
f 87 110 111
f 87 111 110
f 87 111 112
f 87 112 111
f 87 112 113
f 87 113 112
f 87 113 114
f 87 114 113
f 87 114 115
f 87 115 114
f 87 115 116
f 87 116 115
f 87 116 117
f 87 117 116
f 87 117 118
f 87 118 117
f 87 118 119
f 87 119 118
f 87 119 120
f 87 120 119
f 87 120 121
f 87 121 120
f 87 121 122
f 87 122 121
f 87 122 123
f 87 123 122
f 87 123 124
f 87 124 123
f 87 124 125
f 87 125 124
f 87 125 126
f 87 126 125
f 87 126 127
f 87 127 126
f 87 127 128
f 87 128 127
f 87 128 129
f 87 129 128
f 87 129 130
f 87 130 129
f 87 130 131
f 87 131 130
f 87 131 132
f 87 132 131
v -0.046910 1.111418 -0.012836
v -0.049509 1.109828 -0.016001
v -0.052496 1.108211 -0.018847
v -0.056198 1.106543 -0.021107
v -0.060811 1.104811 -0.022617
v -0.066359 1.103011 -0.023358
v -0.072679 1.101157 -0.023465
v -0.079446 1.099271 -0.023204
v -0.086216 1.097385 -0.022941
v -0.092499 1.095534 -0.023079
v -0.097833 1.093750 -0.023996
v -0.101864 1.092059 -0.025985
v -0.104397 1.090474 -0.029204
v -0.105434 1.088995 -0.033654
v -0.105167 1.087609 -0.039175
v -0.103952 1.086291 -0.045476
v -0.102250 1.085007 -0.052178
v -0.100550 1.083723 -0.058877
v -0.099297 1.082408 -0.065210
v -0.098816 1.081037 -0.070906
v -0.099271 1.079600 -0.075835
v -0.100636 1.078098 -0.080015
v -0.102716 1.076546 -0.083607
v -0.105185 1.074965 -0.086880
v -0.102585 1.076555 -0.083715
v -0.099598 1.078172 -0.080868
v -0.095896 1.079840 -0.078609
v -0.091283 1.081573 -0.077099
v -0.085736 1.083372 -0.076357
v -0.079415 1.085226 -0.076251
v -0.072648 1.087112 -0.076512
v -0.065878 1.088998 -0.076775
v -0.059595 1.090849 -0.076637
v -0.054261 1.092633 -0.075719
v -0.050230 1.094325 -0.073731
v -0.047697 1.095910 -0.070511
v -0.046660 1.097388 -0.066062
v -0.046927 1.098774 -0.060540
v -0.048142 1.100092 -0.054239
v -0.049844 1.101376 -0.047538
v -0.051544 1.102660 -0.040838
v -0.052797 1.103976 -0.034506
v -0.053278 1.105346 -0.028809
v -0.052823 1.106783 -0.023880
v -0.051458 1.108285 -0.019701
v -0.049378 1.109838 -0.016109
f 133 134 135
f 133 135 134
f 133 135 136
f 133 136 135
f 133 136 137
f 133 137 136
f 133 137 138
f 133 138 137
f 133 138 139
f 133 139 138
f 133 139 140
f 133 140 139
f 133 140 141
f 133 141 140
f 133 141 142
f 133 142 141
f 133 142 143
f 133 143 142
f 133 143 144
f 133 144 143
f 133 144 145
f 133 145 144
f 133 145 146
f 133 146 145
f 133 146 147
f 133 147 146
f 133 147 148
f 133 148 147
f 133 148 149
f 133 149 148
f 133 149 150
f 133 150 149
f 133 150 151
f 133 151 150
f 133 151 152
f 133 152 151
f 133 152 153
f 133 153 152
f 133 153 154
f 133 154 153
f 133 154 155
f 133 155 154
f 133 155 156
f 133 156 155
f 133 156 157
f 133 157 156
f 133 157 158
f 133 158 157
f 133 158 159
f 133 159 158
f 133 159 160
f 133 160 159
f 133 160 161
f 133 161 160
f 133 161 162
f 133 162 161
f 133 162 163
f 133 163 162
f 133 163 164
f 133 164 163
f 133 164 165
f 133 165 164
f 133 165 166
f 133 166 165
f 133 166 167
f 133 167 166
f 133 167 168
f 133 168 167
f 133 168 169
f 133 169 168
f 133 169 170
f 133 170 169
f 133 170 171
f 133 171 170
f 133 171 172
f 133 172 171
f 133 172 173
f 133 173 172
f 133 173 174
f 133 174 173
f 133 174 175
f 133 175 174
f 133 175 176
f 133 176 175
f 133 176 177
f 133 177 176
f 133 177 178
f 133 178 177
v -0.046910 1.112737 0.015484
v -0.033744 1.114526 0.005424
v -0.023854 1.115716 -0.005427
v -0.023854 1.115009 -0.020611
v -0.033744 1.112815 -0.031305
v -0.046910 1.110099 -0.041155
v -0.060075 1.108310 -0.031095
v -0.069965 1.107120 -0.020244
v -0.069965 1.107827 -0.005060
v -0.060075 1.110021 0.005634
v -0.111161 1.487361 -0.004807
v -0.099311 1.488971 -0.013861
v -0.090410 1.490042 -0.023627
v -0.090410 1.489406 -0.037293
v -0.099311 1.487431 -0.046917
v -0.111161 1.484987 -0.055782
v -0.123010 1.483377 -0.046729
v -0.131911 1.482306 -0.036962
v -0.131911 1.482942 -0.023297
v -0.123010 1.484917 -0.013672
f 179 180 190
f 179 190 189
f 180 181 191
f 180 191 190
f 181 182 192
f 181 192 191
f 182 183 193
f 182 193 192
f 183 184 194
f 183 194 193
f 184 185 195
f 184 195 194
f 185 186 196
f 185 196 195
f 186 187 197
f 186 197 196
f 187 188 198
f 187 198 197
f 188 179 189
f 188 189 198
v -0.111161 1.486174 -0.030295
v -0.110972 1.483683 -0.024011
v -0.109926 1.481341 -0.017671
v -0.107408 1.479256 -0.011234
v -0.103099 1.477484 -0.004680
v -0.097018 1.476021 0.001991
v -0.089525 1.474804 0.008754
v -0.081271 1.473721 0.015568
v -0.073098 1.472623 0.022376
v -0.065921 1.471351 0.029119
v -0.060581 1.469759 0.035741
v -0.057722 1.467733 0.042200
v -0.057695 1.465214 0.048473
v -0.060498 1.462200 0.054560
v -0.065783 1.458754 0.060484
v -0.072905 1.454987 0.066288
v -0.081022 1.451046 0.072026
v -0.089222 1.447091 0.077758
v -0.096659 1.443269 0.083541
v -0.102685 1.439693 0.089417
v -0.106939 1.436427 0.095408
v -0.109402 1.433473 0.101518
v -0.110393 1.430776 0.107724
v -0.110526 1.428228 0.113987
v -0.110715 1.430719 0.107703
v -0.111761 1.433061 0.101363
v -0.114279 1.435146 0.094926
v -0.118588 1.436918 0.088372
v -0.124669 1.438381 0.081701
v -0.132162 1.439598 0.074938
v -0.140416 1.440681 0.068124
v -0.148588 1.441780 0.061316
v -0.155766 1.443051 0.054573
v -0.161106 1.444644 0.047951
v -0.163965 1.446669 0.041492
v -0.163992 1.449188 0.035219
v -0.161189 1.452202 0.029132
v -0.155904 1.455648 0.023208
v -0.148781 1.459415 0.017404
v -0.140665 1.463356 0.011666
v -0.132465 1.467311 0.005934
v -0.125027 1.471133 0.000151
v -0.119002 1.474709 -0.005725
v -0.114747 1.477975 -0.011716
v -0.112285 1.480929 -0.017826
v -0.111294 1.483626 -0.024032
f 199 200 201
f 199 201 200
f 199 201 202
f 199 202 201
f 199 202 203
f 199 203 202
f 199 203 204
f 199 204 203
f 199 204 205
f 199 205 204
f 199 205 206
f 199 206 205
f 199 206 207
f 199 207 206
f 199 207 208
f 199 208 207
f 199 208 209
f 199 209 208
f 199 209 210
f 199 210 209
f 199 210 211
f 199 211 210
f 199 211 212
f 199 212 211
f 199 212 213
f 199 213 212
f 199 213 214
f 199 214 213
f 199 214 215
f 199 215 214
f 199 215 216
f 199 216 215
f 199 216 217
f 199 217 216
f 199 217 218
f 199 218 217
f 199 218 219
f 199 219 218
f 199 219 220
f 199 220 219
f 199 220 221
f 199 221 220
f 199 221 222
f 199 222 221
f 199 222 223
f 199 223 222
f 199 223 224
f 199 224 223
f 199 224 225
f 199 225 224
f 199 225 226
f 199 226 225
f 199 226 227
f 199 227 226
f 199 227 228
f 199 228 227
f 199 228 229
f 199 229 228
f 199 229 230
f 199 230 229
f 199 230 231
f 199 231 230
f 199 231 232
f 199 232 231
f 199 232 233
f 199 233 232
f 199 233 234
f 199 234 233
f 199 234 235
f 199 235 234
f 199 235 236
f 199 236 235
f 199 236 237
f 199 237 236
f 199 237 238
f 199 238 237
f 199 238 239
f 199 239 238
f 199 239 240
f 199 240 239
f 199 240 241
f 199 241 240
f 199 241 242
f 199 242 241
f 199 242 243
f 199 243 242
f 199 243 244
f 199 244 243
v -0.111161 1.486174 -0.030295
v -0.104712 1.485501 -0.029716
v -0.098047 1.484802 -0.030512
v -0.091121 1.484070 -0.032962
v -0.083943 1.483307 -0.037017
v -0.076557 1.482518 -0.042385
v -0.069041 1.481712 -0.048585
v -0.061488 1.480903 -0.055013
v -0.054005 1.480101 -0.061005
v -0.046691 1.479321 -0.065918
v -0.039634 1.478573 -0.069198
v -0.032900 1.477865 -0.070436
v -0.026520 1.477201 -0.069418
v -0.020497 1.476581 -0.066143
v -0.014795 1.476001 -0.060827
v -0.009351 1.475453 -0.053877
v -0.004076 1.474926 -0.045848
v 0.001130 1.474408 -0.037385
v 0.006371 1.473885 -0.029148
v 0.011744 1.473346 -0.021744
v 0.017324 1.472782 -0.015652
v 0.023156 1.472185 -0.011166
v 0.029250 1.471557 -0.008333
v 0.035559 1.470901 -0.006875
v 0.029111 1.471574 -0.007454
v 0.022446 1.472274 -0.006658
v 0.015520 1.473006 -0.004208
v 0.008342 1.473769 -0.000153
v 0.000956 1.474558 0.005215
v -0.006560 1.475363 0.011415
v -0.014113 1.476173 0.017842
v -0.021597 1.476974 0.023834
v -0.028911 1.477754 0.028748
v -0.035967 1.478502 0.032028
v -0.042702 1.479211 0.033266
v -0.049081 1.479875 0.032248
v -0.055104 1.480494 0.028973
v -0.060806 1.481074 0.023657
v -0.066250 1.481622 0.016707
v -0.071525 1.482149 0.008678
v -0.076731 1.482667 0.000215
v -0.081972 1.483190 -0.008022
v -0.087345 1.483729 -0.015426
v -0.092925 1.484294 -0.021518
v -0.098757 1.484890 -0.026004
v -0.104851 1.485519 -0.028837
f 245 246 247
f 245 247 246
f 245 247 248
f 245 248 247
f 245 248 249
f 245 249 248
f 245 249 250
f 245 250 249
f 245 250 251
f 245 251 250
f 245 251 252
f 245 252 251
f 245 252 253
f 245 253 252
f 245 253 254
f 245 254 253
f 245 254 255
f 245 255 254
f 245 255 256
f 245 256 255
f 245 256 257
f 245 257 256
f 245 257 258
f 245 258 257
f 245 258 259
f 245 259 258
f 245 259 260
f 245 260 259
f 245 260 261
f 245 261 260
f 245 261 262
f 245 262 261
f 245 262 263
f 245 263 262
f 245 263 264
f 245 264 263
f 245 264 265
f 245 265 264
f 245 265 266
f 245 266 265
f 245 266 267
f 245 267 266
f 245 267 268
f 245 268 267
f 245 268 269
f 245 269 268
f 245 269 270
f 245 270 269
f 245 270 271
f 245 271 270
f 245 271 272
f 245 272 271
f 245 272 273
f 245 273 272
f 245 273 274
f 245 274 273
f 245 274 275
f 245 275 274
f 245 275 276
f 245 276 275
f 245 276 277
f 245 277 276
f 245 277 278
f 245 278 277
f 245 278 279
f 245 279 278
f 245 279 280
f 245 280 279
f 245 280 281
f 245 281 280
f 245 281 282
f 245 282 281
f 245 282 283
f 245 283 282
f 245 283 284
f 245 284 283
f 245 284 285
f 245 285 284
f 245 285 286
f 245 286 285
f 245 286 287
f 245 287 286
f 245 287 288
f 245 288 287
f 245 288 289
f 245 289 288
f 245 289 290
f 245 290 289
v -0.111161 1.486174 -0.030295
v -0.108863 1.483308 -0.036184
v -0.107842 1.480201 -0.042549
v -0.108446 1.476786 -0.049519
v -0.110688 1.473063 -0.057100
v -0.114313 1.469079 -0.065196
v -0.118855 1.464921 -0.073634
v -0.123700 1.460706 -0.082185
v -0.128161 1.456564 -0.090593
v -0.131559 1.452623 -0.098605
v -0.133302 1.448993 -0.106000
v -0.132954 1.445759 -0.112615
v -0.130283 1.442963 -0.118365
v -0.125290 1.440606 -0.123250
v -0.118205 1.438644 -0.127355
v -0.109466 1.436994 -0.130843
v -0.099663 1.435545 -0.133935
v -0.089477 1.434168 -0.136884
v -0.079594 1.432734 -0.139946
v -0.070627 1.431127 -0.143350
v -0.063044 1.429259 -0.147269
v -0.057097 1.427081 -0.151798
v -0.052777 1.424597 -0.156934
v -0.049733 1.421872 -0.162545
v -0.052030 1.424738 -0.156655
v -0.053052 1.427845 -0.150291
v -0.052447 1.431259 -0.143320
v -0.050205 1.434983 -0.135739
v -0.046580 1.438967 -0.127643
v -0.042038 1.443125 -0.119205
v -0.037193 1.447340 -0.110654
v -0.032733 1.451482 -0.102246
v -0.029335 1.455423 -0.094235
v -0.027592 1.459053 -0.086840
v -0.027940 1.462287 -0.080224
v -0.030610 1.465083 -0.074474
v -0.035604 1.467440 -0.069590
v -0.042689 1.469402 -0.065485
v -0.051428 1.471052 -0.061996
v -0.061230 1.472501 -0.058904
v -0.071417 1.473878 -0.055955
v -0.081300 1.475312 -0.052893
v -0.090267 1.476919 -0.049489
v -0.097850 1.478787 -0.045570
v -0.103796 1.480964 -0.041041
v -0.108116 1.483449 -0.035906
f 291 292 293
f 291 293 292
f 291 293 294
f 291 294 293
f 291 294 295
f 291 295 294
f 291 295 296
f 291 296 295
f 291 296 297
f 291 297 296
f 291 297 298
f 291 298 297
f 291 298 299
f 291 299 298
f 291 299 300
f 291 300 299
f 291 300 301
f 291 301 300
f 291 301 302
f 291 302 301
f 291 302 303
f 291 303 302
f 291 303 304
f 291 304 303
f 291 304 305
f 291 305 304
f 291 305 306
f 291 306 305
f 291 306 307
f 291 307 306
f 291 307 308
f 291 308 307
f 291 308 309
f 291 309 308
f 291 309 310
f 291 310 309
f 291 310 311
f 291 311 310
f 291 311 312
f 291 312 311
f 291 312 313
f 291 313 312
f 291 313 314
f 291 314 313
f 291 314 315
f 291 315 314
f 291 315 316
f 291 316 315
f 291 316 317
f 291 317 316
f 291 317 318
f 291 318 317
f 291 318 319
f 291 319 318
f 291 319 320
f 291 320 319
f 291 320 321
f 291 321 320
f 291 321 322
f 291 322 321
f 291 322 323
f 291 323 322
f 291 323 324
f 291 324 323
f 291 324 325
f 291 325 324
f 291 325 326
f 291 326 325
f 291 326 327
f 291 327 326
f 291 327 328
f 291 328 327
f 291 328 329
f 291 329 328
f 291 329 330
f 291 330 329
f 291 330 331
f 291 331 330
f 291 331 332
f 291 332 331
f 291 332 333
f 291 333 332
f 291 333 334
f 291 334 333
f 291 334 335
f 291 335 334
f 291 335 336
f 291 336 335
v -0.111161 1.486174 -0.030295
v -0.116190 1.482959 -0.030057
v -0.121219 1.479769 -0.029278
v -0.126245 1.476632 -0.027364
v -0.131267 1.473569 -0.023873
v -0.136286 1.470588 -0.018653
v -0.141302 1.467678 -0.011908
v -0.146315 1.464814 -0.004187
v -0.151329 1.461958 0.003695
v -0.156344 1.459065 0.010790
v -0.161362 1.456091 0.016186
v -0.166386 1.453005 0.019162
v -0.171416 1.449786 0.019324
v -0.176452 1.446435 0.016672
v -0.181493 1.442970 0.011601
v -0.186538 1.439425 0.004829
v -0.191584 1.435844 -0.002729
v -0.196630 1.432270 -0.010126
v -0.201674 1.428742 -0.016547
v -0.206715 1.425286 -0.021443
v -0.211752 1.421910 -0.024610
v -0.216786 1.418609 -0.026200
v -0.221817 1.415361 -0.026655
v -0.226847 1.412139 -0.026569
v -0.221817 1.415354 -0.026806
v -0.216789 1.418544 -0.027585
v -0.211763 1.421681 -0.029499
v -0.206740 1.424743 -0.032991
v -0.201721 1.427725 -0.038210
v -0.196705 1.430635 -0.044955
v -0.191692 1.433499 -0.052676
v -0.186679 1.436355 -0.060558
v -0.181664 1.439248 -0.067654
v -0.176645 1.442222 -0.073049
v -0.171621 1.445308 -0.076026
v -0.166592 1.448527 -0.076188
v -0.161556 1.451878 -0.073535
v -0.156515 1.455343 -0.068464
v -0.151470 1.458887 -0.061692
v -0.146423 1.462469 -0.054134
v -0.141377 1.466043 -0.046737
v -0.136333 1.469571 -0.040316
v -0.131292 1.473027 -0.035421
v -0.126255 1.476402 -0.032254
v -0.121222 1.479704 -0.030663
v -0.116191 1.482952 -0.030209
f 337 338 339
f 337 339 338
f 337 339 340
f 337 340 339
f 337 340 341
f 337 341 340
f 337 341 342
f 337 342 341
f 337 342 343
f 337 343 342
f 337 343 344
f 337 344 343
f 337 344 345
f 337 345 344
f 337 345 346
f 337 346 345
f 337 346 347
f 337 347 346
f 337 347 348
f 337 348 347
f 337 348 349
f 337 349 348
f 337 349 350
f 337 350 349
f 337 350 351
f 337 351 350
f 337 351 352
f 337 352 351
f 337 352 353
f 337 353 352
f 337 353 354
f 337 354 353
f 337 354 355
f 337 355 354
f 337 355 356
f 337 356 355
f 337 356 357
f 337 357 356
f 337 357 358
f 337 358 357
f 337 358 359
f 337 359 358
f 337 359 360
f 337 360 359
f 337 360 361
f 337 361 360
f 337 361 362
f 337 362 361
f 337 362 363
f 337 363 362
f 337 363 364
f 337 364 363
f 337 364 365
f 337 365 364
f 337 365 366
f 337 366 365
f 337 366 367
f 337 367 366
f 337 367 368
f 337 368 367
f 337 368 369
f 337 369 368
f 337 369 370
f 337 370 369
f 337 370 371
f 337 371 370
f 337 371 372
f 337 372 371
f 337 372 373
f 337 373 372
f 337 373 374
f 337 374 373
f 337 374 375
f 337 375 374
f 337 375 376
f 337 376 375
f 337 376 377
f 337 377 376
f 337 377 378
f 337 378 377
f 337 378 379
f 337 379 378
f 337 379 380
f 337 380 379
f 337 380 381
f 337 381 380
f 337 381 382
f 337 382 381
