o mesh
v 0.000000 0.000000 0.035000
v 0.016490 0.000000 0.022697
v 0.028878 0.000000 0.009383
v 0.028878 0.000000 -0.009383
v 0.016490 0.000000 -0.022697
v 0.000000 0.000000 -0.035000
v -0.016490 0.000000 -0.022697
v -0.028878 0.000000 -0.009383
v -0.028878 0.000000 0.009383
v -0.016490 0.000000 0.022697
v 0.000000 0.600000 0.031500
v 0.014841 0.600000 0.020427
v 0.025990 0.600000 0.008445
v 0.025990 0.600000 -0.008445
v 0.014841 0.600000 -0.020427
v 0.000000 0.600000 -0.031500
v -0.014841 0.600000 -0.020427
v -0.025990 0.600000 -0.008445
v -0.025990 0.600000 0.008445
v -0.014841 0.600000 0.020427
f 1 2 12
f 1 12 11
f 2 3 13
f 2 13 12
f 3 4 14
f 3 14 13
f 4 5 15
f 4 15 14
f 5 6 16
f 5 16 15
f 6 7 17
f 6 17 16
f 7 8 18
f 7 18 17
f 8 9 19
f 8 19 18
f 9 10 20
f 9 20 19
f 10 1 11
f 10 11 20
v 0.000000 0.599889 0.031500
v 0.014802 0.601006 0.020431
v 0.025922 0.601858 0.008451
v 0.025922 0.601917 -0.008438
v 0.014802 0.601150 -0.020423
v 0.000000 0.600111 -0.031500
v -0.014802 0.598994 -0.020431
v -0.025922 0.598142 -0.008451
v -0.025922 0.598083 0.008438
v -0.014802 0.598850 0.020423
v -0.033811 1.064218 0.029991
v -0.020489 1.065223 0.020029
v -0.010481 1.065990 0.009248
v -0.010481 1.066044 -0.005953
v -0.020489 1.065353 -0.016740
v -0.033811 1.064419 -0.026708
v -0.047133 1.063413 -0.016747
v -0.057141 1.062646 -0.005965
v -0.057141 1.062593 0.009236
v -0.047133 1.063283 0.020023
f 21 22 32
f 21 32 31
f 22 23 33
f 22 33 32
f 23 24 34
f 23 34 33
f 24 25 35
f 24 35 34
f 25 26 36
f 25 36 35
f 26 27 37
f 26 37 36
f 27 28 38
f 27 38 37
f 28 29 39
f 28 39 38
f 29 30 40
f 29 40 39
f 30 21 31
f 30 31 40
v -0.033811 1.064318 0.001641
v -0.032743 1.062186 0.006618
v -0.031039 1.060101 0.011493
v -0.028179 1.058100 0.016183
v -0.023856 1.056207 0.020637
v -0.018043 1.054423 0.024853
v -0.011005 1.052729 0.028872
v -0.003268 1.051086 0.032779
v 0.004460 1.049443 0.036687
v 0.011400 1.047741 0.040722
v 0.016823 1.045929 0.045000
v 0.020167 1.043964 0.049612
v 0.021125 1.041824 0.054607
v 0.019698 1.039508 0.059984
v 0.016192 1.037040 0.065695
v 0.011169 1.034461 0.071649
v 0.005357 1.031824 0.077730
v -0.000463 1.029187 0.083812
v -0.005584 1.026600 0.089782
v -0.009480 1.024104 0.095555
v -0.011886 1.021717 0.101089
v -0.012830 1.019437 0.106389
v -0.012617 1.017242 0.111503
v -0.011768 1.015094 0.116515
v -0.012836 1.017226 0.111538
v -0.014540 1.019311 0.106663
v -0.017401 1.021312 0.101974
v -0.021723 1.023205 0.097519
v -0.027537 1.024989 0.093304
v -0.034574 1.026683 0.089285
v -0.042311 1.028326 0.085378
v -0.050040 1.029969 0.081469
v -0.056980 1.031671 0.077434
v -0.062403 1.033483 0.073156
v -0.065746 1.035448 0.068544
v -0.066705 1.037589 0.063550
v -0.065278 1.039904 0.058173
v -0.061772 1.042372 0.052462
v -0.056748 1.044951 0.046508
v -0.050937 1.047588 0.040427
v -0.045117 1.050226 0.034345
v -0.039996 1.052812 0.028375
v -0.036099 1.055308 0.022602
v -0.033693 1.057695 0.017067
v -0.032749 1.059975 0.011768
v -0.032962 1.062170 0.006654
f 41 42 43
f 41 43 42
f 41 43 44
f 41 44 43
f 41 44 45
f 41 45 44
f 41 45 46
f 41 46 45
f 41 46 47
f 41 47 46
f 41 47 48
f 41 48 47
f 41 48 49
f 41 49 48
f 41 49 50
f 41 50 49
f 41 50 51
f 41 51 50
f 41 51 52
f 41 52 51
f 41 52 53
f 41 53 52
f 41 53 54
f 41 54 53
f 41 54 55
f 41 55 54
f 41 55 56
f 41 56 55
f 41 56 57
f 41 57 56
f 41 57 58
f 41 58 57
f 41 58 59
f 41 59 58
f 41 59 60
f 41 60 59
f 41 60 61
f 41 61 60
f 41 61 62
f 41 62 61
f 41 62 63
f 41 63 62
f 41 63 64
f 41 64 63
f 41 64 65
f 41 65 64
f 41 65 66
f 41 66 65
f 41 66 67
f 41 67 66
f 41 67 68
f 41 68 67
f 41 68 69
f 41 69 68
f 41 69 70
f 41 70 69
f 41 70 71
f 41 71 70
f 41 71 72
f 41 72 71
f 41 72 73
f 41 73 72
f 41 73 74
f 41 74 73
f 41 74 75
f 41 75 74
f 41 75 76
f 41 76 75
f 41 76 77
f 41 77 76
f 41 77 78
f 41 78 77
f 41 78 79
f 41 79 78
f 41 79 80
f 41 80 79
f 41 80 81
f 41 81 80
f 41 81 82
f 41 82 81
f 41 82 83
f 41 83 82
f 41 83 84
f 41 84 83
f 41 84 85
f 41 85 84
f 41 85 86
f 41 86 85
v -0.033811 1.064318 0.001641
v -0.026951 1.063438 0.002523
v -0.019771 1.062586 0.001878
v -0.012219 1.061767 -0.000533
v -0.004317 1.060980 -0.004616
v 0.003866 1.060218 -0.010034
v 0.012222 1.059471 -0.016271
v 0.020616 1.058728 -0.022695
v 0.028906 1.057975 -0.028623
v 0.036955 1.057201 -0.033400
v 0.044643 1.056395 -0.036463
v 0.051885 1.055548 -0.037402
v 0.058636 1.054658 -0.036001
v 0.064895 1.053723 -0.032259
v 0.070707 1.052748 -0.026393
v 0.076160 1.051741 -0.018813
v 0.081371 1.050713 -0.010082
v 0.086477 1.049675 -0.000856
v 0.091623 1.048640 0.008184
v 0.096941 1.047622 0.016405
v 0.102539 1.046628 0.023290
v 0.108489 1.045665 0.028504
v 0.114809 1.044736 0.031953
v 0.121451 1.043836 0.033873
v 0.114591 1.044717 0.032991
v 0.107411 1.045569 0.033637
v 0.099859 1.046387 0.036048
v 0.091957 1.047175 0.040130
v 0.083773 1.047937 0.045549
v 0.075418 1.048683 0.051786
v 0.067024 1.049427 0.058210
v 0.058733 1.050179 0.064138
v 0.050685 1.050953 0.068915
v 0.042996 1.051760 0.071978
v 0.035754 1.052606 0.072917
v 0.029004 1.053497 0.071516
v 0.022745 1.054431 0.067774
v 0.016932 1.055406 0.061908
v 0.011480 1.056413 0.054328
v 0.006269 1.057442 0.045597
v 0.001162 1.058479 0.036371
v -0.003983 1.059514 0.027330
v -0.009301 1.060533 0.019110
v -0.014900 1.061527 0.012224
v -0.020849 1.062489 0.007010
v -0.027170 1.063418 0.003562
f 87 88 89
f 87 89 88
f 87 89 90
f 87 90 89
f 87 90 91
f 87 91 90
f 87 91 92
f 87 92 91
f 87 92 93
f 87 93 92
f 87 93 94
f 87 94 93
f 87 94 95
f 87 95 94
f 87 95 96
f 87 96 95
f 87 96 97
f 87 97 96
f 87 97 98
f 87 98 97
f 87 98 99
f 87 99 98
f 87 99 100
f 87 100 99
f 87 100 101
f 87 101 100
f 87 101 102
f 87 102 101
f 87 102 103
f 87 103 102
f 87 103 104
f 87 104 103
f 87 104 105
f 87 105 104
f 87 105 106
f 87 106 105
f 87 106 107
f 87 107 106
f 87 107 108
f 87 108 107
f 87 108 109
f 87 109 108
f 87 109 110
f 87 110 109
f 87 110 111
f 87 111 110
f 87 111 112
f 87 112 111
f 87 112 113
f 87 113 112
f 87 113 114
f 87 114 113
f 87 114 115
f 87 115 114
f 87 115 116
f 87 116 115
f 87 116 117
f 87 117 116
f 87 117 118
f 87 118 117
f 87 118 119
f 87 119 118
f 87 119 120
f 87 120 119
f 87 120 121
f 87 121 120
f 87 121 122
f 87 122 121
f 87 122 123
f 87 123 122
f 87 123 124
f 87 124 123
f 87 124 125
f 87 125 124
f 87 125 126
f 87 126 125
f 87 126 127
f 87 127 126
f 87 127 128
f 87 128 127
f 87 128 129
f 87 129 128
f 87 129 130
f 87 130 129
f 87 130 131
f 87 131 130
f 87 131 132
f 87 132 131
v -0.033811 1.064318 0.001641
v -0.031564 1.063010 -0.002788
v -0.030019 1.061653 -0.007591
v -0.029547 1.060219 -0.012965
v -0.030284 1.058699 -0.018982
v -0.032146 1.057099 -0.025598
v -0.034846 1.055440 -0.032661
v -0.037939 1.053754 -0.039933
v -0.040883 1.052077 -0.047125
v -0.043114 1.050452 -0.053938
v -0.044124 1.048912 -0.060100
v -0.043529 1.047487 -0.065409
v -0.041125 1.046190 -0.069754
v -0.036910 1.045022 -0.073136
v -0.031090 1.043967 -0.075664
v -0.024049 1.042999 -0.077541
v -0.016295 1.042082 -0.079039
v -0.008393 1.041175 -0.080458
v -0.000883 1.040240 -0.082086
v 0.005789 1.039246 -0.084160
v 0.011335 1.038172 -0.086833
v 0.015673 1.037013 -0.090150
v 0.018938 1.035777 -0.094037
v 0.021500 1.034491 -0.098298
v 0.019253 1.035799 -0.093869
v 0.017709 1.037157 -0.089066
v 0.017236 1.038591 -0.083692
v 0.017973 1.040111 -0.077675
v 0.019835 1.041710 -0.071059
v 0.022535 1.043369 -0.063996
v 0.025628 1.045056 -0.056724
v 0.028572 1.046732 -0.049532
v 0.030804 1.048358 -0.042719
v 0.031813 1.049897 -0.036557
v 0.031219 1.051322 -0.031248
v 0.028814 1.052619 -0.026903
v 0.024599 1.053787 -0.023521
v 0.018779 1.054842 -0.020993
v 0.011738 1.055810 -0.019116
v 0.003985 1.056727 -0.017618
v -0.003918 1.057634 -0.016199
v -0.011428 1.058569 -0.014571
v -0.018099 1.059563 -0.012497
v -0.023646 1.060637 -0.009824
v -0.027983 1.061797 -0.006507
v -0.031249 1.063033 -0.002620
f 133 134 135
f 133 135 134
f 133 135 136
f 133 136 135
f 133 136 137
f 133 137 136
f 133 137 138
f 133 138 137
f 133 138 139
f 133 139 138
f 133 139 140
f 133 140 139
f 133 140 141
f 133 141 140
f 133 141 142
f 133 142 141
f 133 142 143
f 133 143 142
f 133 143 144
f 133 144 143
f 133 144 145
f 133 145 144
f 133 145 146
f 133 146 145
f 133 146 147
f 133 147 146
f 133 147 148
f 133 148 147
f 133 148 149
f 133 149 148
f 133 149 150
f 133 150 149
f 133 150 151
f 133 151 150
f 133 151 152
f 133 152 151
f 133 152 153
f 133 153 152
f 133 153 154
f 133 154 153
f 133 154 155
f 133 155 154
f 133 155 156
f 133 156 155
f 133 156 157
f 133 157 156
f 133 157 158
f 133 158 157
f 133 158 159
f 133 159 158
f 133 159 160
f 133 160 159
f 133 160 161
f 133 161 160
f 133 161 162
f 133 162 161
f 133 162 163
f 133 163 162
f 133 163 164
f 133 164 163
f 133 164 165
f 133 165 164
f 133 165 166
f 133 166 165
f 133 166 167
f 133 167 166
f 133 167 168
f 133 168 167
f 133 168 169
f 133 169 168
f 133 169 170
f 133 170 169
f 133 170 171
f 133 171 170
f 133 171 172
f 133 172 171
f 133 172 173
f 133 173 172
f 133 173 174
f 133 174 173
f 133 174 175
f 133 175 174
f 133 175 176
f 133 176 175
f 133 176 177
f 133 177 176
f 133 177 178
f 133 178 177
v -0.033811 1.064318 0.001641
v -0.038484 1.062910 -0.001612
v -0.043436 1.061479 -0.004463
v -0.049001 1.060001 -0.006434
v -0.055444 1.058455 -0.007147
v -0.062868 1.056832 -0.006449
v -0.071178 1.055140 -0.004481
v -0.080072 1.053402 -0.001674
v -0.089087 1.051655 0.001306
v -0.097677 1.049942 0.003676
v -0.105307 1.048303 0.004668
v -0.111557 1.046771 0.003679
v -0.116192 1.045365 0.000373
v -0.119214 1.044085 -0.005249
v -0.120855 1.042913 -0.012853
v -0.121538 1.041815 -0.021834
v -0.121794 1.040750 -0.031426
v -0.122172 1.039676 -0.040844
v -0.123133 1.038557 -0.049424
v -0.124980 1.037368 -0.056734
v -0.127809 1.036103 -0.062632
v -0.131515 1.034770 -0.067273
v -0.135834 1.033389 -0.071033
v -0.140433 1.031986 -0.074392
v -0.135761 1.033394 -0.071139
v -0.130808 1.034825 -0.068287
v -0.125243 1.036303 -0.066316
v -0.118800 1.037849 -0.065603
v -0.111376 1.039472 -0.066301
v -0.103066 1.041164 -0.068270
v -0.094172 1.042902 -0.071076
v -0.085157 1.044649 -0.074057
v -0.076567 1.046362 -0.076426
v -0.068937 1.048002 -0.077419
v -0.062688 1.049533 -0.076429
v -0.058052 1.050939 -0.073123
v -0.055030 1.052219 -0.067501
v -0.053389 1.053391 -0.059897
v -0.052706 1.054489 -0.050916
v -0.052450 1.055554 -0.041324
v -0.052073 1.056628 -0.031906
v -0.051111 1.057747 -0.023326
v -0.049264 1.058936 -0.016017
v -0.046435 1.060201 -0.010118
v -0.042729 1.061534 -0.005477
v -0.038410 1.062915 -0.001717
f 179 180 181
f 179 181 180
f 179 181 182
f 179 182 181
f 179 182 183
f 179 183 182
f 179 183 184
f 179 184 183
f 179 184 185
f 179 185 184
f 179 185 186
f 179 186 185
f 179 186 187
f 179 187 186
f 179 187 188
f 179 188 187
f 179 188 189
f 179 189 188
f 179 189 190
f 179 190 189
f 179 190 191
f 179 191 190
f 179 191 192
f 179 192 191
f 179 192 193
f 179 193 192
f 179 193 194
f 179 194 193
f 179 194 195
f 179 195 194
f 179 195 196
f 179 196 195
f 179 196 197
f 179 197 196
f 179 197 198
f 179 198 197
f 179 198 199
f 179 199 198
f 179 199 200
f 179 200 199
f 179 200 201
f 179 201 200
f 179 201 202
f 179 202 201
f 179 202 203
f 179 203 202
f 179 203 204
f 179 204 203
f 179 204 205
f 179 205 204
f 179 205 206
f 179 206 205
f 179 206 207
f 179 207 206
f 179 207 208
f 179 208 207
f 179 208 209
f 179 209 208
f 179 209 210
f 179 210 209
f 179 210 211
f 179 211 210
f 179 211 212
f 179 212 211
f 179 212 213
f 179 213 212
f 179 213 214
f 179 214 213
f 179 214 215
f 179 215 214
f 179 215 216
f 179 216 215
f 179 216 217
f 179 217 216
f 179 217 218
f 179 218 217
f 179 218 219
f 179 219 218
f 179 219 220
f 179 220 219
f 179 220 221
f 179 221 220
f 179 221 222
f 179 222 221
f 179 222 223
f 179 223 222
f 179 223 224
f 179 224 223
v -0.033811 1.064318 0.001641
v -0.038925 1.060189 0.001787
v -0.044046 1.056055 0.002894
v -0.049179 1.051915 0.005525
v -0.054326 1.047768 0.009922
v -0.059486 1.043614 0.015996
v -0.064656 1.039455 0.023348
v -0.069831 1.035293 0.031332
v -0.075004 1.031132 0.039144
v -0.080170 1.026975 0.045936
v -0.085321 1.022826 0.050939
v -0.090454 1.018686 0.053569
v -0.095566 1.014557 0.053512
v -0.100657 1.010439 0.050768
v -0.105730 1.006331 0.045651
v -0.110788 1.002230 0.038745
v -0.115839 0.998134 0.030819
v -0.120888 0.994038 0.022721
v -0.125942 0.989940 0.015255
v -0.131006 0.985836 0.009068
v -0.136083 0.981726 0.004557
v -0.141174 0.977608 0.001811
v -0.146277 0.973484 0.000591
v -0.151387 0.969356 0.000331
v -0.146274 0.973486 0.000186
v -0.141152 0.977619 -0.000921
v -0.136019 0.981759 -0.003553
v -0.130873 0.985906 -0.007950
v -0.125713 0.990060 -0.014023
v -0.120543 0.994219 -0.021375
v -0.115368 0.998381 -0.029359
v -0.110194 1.002542 -0.037171
v -0.105028 1.006699 -0.043963
v -0.099877 1.010849 -0.048966
v -0.094744 1.014988 -0.051596
v -0.089632 1.019117 -0.051539
v -0.084541 1.023235 -0.048795
v -0.079468 1.027343 -0.043679
v -0.074410 1.031444 -0.036772
v -0.069360 1.035540 -0.028847
v -0.064310 1.039636 -0.020748
v -0.059256 1.043734 -0.013282
v -0.054192 1.047838 -0.007095
v -0.049115 1.051949 -0.002584
v -0.044024 1.056066 0.000161
v -0.038921 1.060190 0.001382
f 225 226 227
f 225 227 226
f 225 227 228
f 225 228 227
f 225 228 229
f 225 229 228
f 225 229 230
f 225 230 229
f 225 230 231
f 225 231 230
f 225 231 232
f 225 232 231
f 225 232 233
f 225 233 232
f 225 233 234
f 225 234 233
f 225 234 235
f 225 235 234
f 225 235 236
f 225 236 235
f 225 236 237
f 225 237 236
f 225 237 238
f 225 238 237
f 225 238 239
f 225 239 238
f 225 239 240
f 225 240 239
f 225 240 241
f 225 241 240
f 225 241 242
f 225 242 241
f 225 242 243
f 225 243 242
f 225 243 244
f 225 244 243
f 225 244 245
f 225 245 244
f 225 245 246
f 225 246 245
f 225 246 247
f 225 247 246
f 225 247 248
f 225 248 247
f 225 248 249
f 225 249 248
f 225 249 250
f 225 250 249
f 225 250 251
f 225 251 250
f 225 251 252
f 225 252 251
f 225 252 253
f 225 253 252
f 225 253 254
f 225 254 253
f 225 254 255
f 225 255 254
f 225 255 256
f 225 256 255
f 225 256 257
f 225 257 256
f 225 257 258
f 225 258 257
f 225 258 259
f 225 259 258
f 225 259 260
f 225 260 259
f 225 260 261
f 225 261 260
f 225 261 262
f 225 262 261
f 225 262 263
f 225 263 262
f 225 263 264
f 225 264 263
f 225 264 265
f 225 265 264
f 225 265 266
f 225 266 265
f 225 266 267
f 225 267 266
f 225 267 268
f 225 268 267
f 225 268 269
f 225 269 268
f 225 269 270
f 225 270 269
v -0.033811 1.064129 0.029991
v -0.020585 1.066065 0.020038
v -0.010650 1.067541 0.009263
v -0.010650 1.067642 -0.005937
v -0.020585 1.066310 -0.016730
v -0.033811 1.064508 -0.026708
v -0.047037 1.062572 -0.016755
v -0.056972 1.061096 -0.005981
v -0.056972 1.060994 0.009220
v -0.047037 1.062327 0.020013
v -0.088426 1.450590 0.029736
v -0.076522 1.452332 0.020778
v -0.067581 1.453660 0.011081
v -0.067581 1.453752 -0.002599
v -0.076522 1.452553 -0.012313
v -0.088426 1.450931 -0.021293
v -0.100329 1.449189 -0.012336
v -0.109271 1.447860 -0.002639
v -0.109271 1.447769 0.011042
v -0.100329 1.448968 0.020756
f 271 272 282
f 271 282 281
f 272 273 283
f 272 283 282
f 273 274 284
f 273 284 283
f 274 275 285
f 274 285 284
f 275 276 286
f 275 286 285
f 276 277 287
f 276 287 286
f 277 278 288
f 277 288 287
f 278 279 289
f 278 289 288
f 279 280 290
f 279 290 289
f 280 271 281
f 280 281 290
v -0.088426 1.450760 0.004221
v -0.086809 1.449526 0.008973
v -0.083790 1.448492 0.013511
v -0.079481 1.447641 0.017851
v -0.074115 1.446940 0.022030
v -0.068019 1.446344 0.026098
v -0.061578 1.445796 0.030113
v -0.055209 1.445238 0.034139
v -0.049326 1.444612 0.038239
v -0.044306 1.443862 0.042471
v -0.040461 1.442945 0.046883
v -0.038015 1.441829 0.051508
v -0.037084 1.440497 0.056364
v -0.037667 1.438950 0.061452
v -0.039648 1.437203 0.066754
v -0.042805 1.435290 0.072235
v -0.046825 1.433253 0.077848
v -0.051331 1.431147 0.083535
v -0.055909 1.429031 0.089234
v -0.060142 1.426964 0.094879
v -0.063645 1.425002 0.100413
v -0.066091 1.423189 0.105786
v -0.067247 1.421560 0.110961
v -0.067001 1.420131 0.115923
v -0.068618 1.421365 0.111171
v -0.071637 1.422400 0.106633
v -0.075946 1.423250 0.102293
v -0.081312 1.423951 0.098113
v -0.087408 1.424548 0.094046
v -0.093849 1.425095 0.090031
v -0.100218 1.425653 0.086005
v -0.106101 1.426280 0.081905
v -0.111121 1.427029 0.077673
v -0.114966 1.427946 0.073261
v -0.117412 1.429062 0.068636
v -0.118343 1.430394 0.063780
v -0.117760 1.431942 0.058692
v -0.115779 1.433688 0.053390
v -0.112621 1.435602 0.047909
v -0.108601 1.437638 0.042296
v -0.104096 1.439744 0.036608
v -0.099518 1.441860 0.030910
v -0.095284 1.443927 0.025265
v -0.091782 1.445890 0.019731
v -0.089335 1.447702 0.014358
v -0.088179 1.449331 0.009182
f 291 292 293
f 291 293 292
f 291 293 294
f 291 294 293
f 291 294 295
f 291 295 294
f 291 295 296
f 291 296 295
f 291 296 297
f 291 297 296
f 291 297 298
f 291 298 297
f 291 298 299
f 291 299 298
f 291 299 300
f 291 300 299
f 291 300 301
f 291 301 300
f 291 301 302
f 291 302 301
f 291 302 303
f 291 303 302
f 291 303 304
f 291 304 303
f 291 304 305
f 291 305 304
f 291 305 306
f 291 306 305
f 291 306 307
f 291 307 306
f 291 307 308
f 291 308 307
f 291 308 309
f 291 309 308
f 291 309 310
f 291 310 309
f 291 310 311
f 291 311 310
f 291 311 312
f 291 312 311
f 291 312 313
f 291 313 312
f 291 313 314
f 291 314 313
f 291 314 315
f 291 315 314
f 291 315 316
f 291 316 315
f 291 316 317
f 291 317 316
f 291 317 318
f 291 318 317
f 291 318 319
f 291 319 318
f 291 319 320
f 291 320 319
f 291 320 321
f 291 321 320
f 291 321 322
f 291 322 321
f 291 322 323
f 291 323 322
f 291 323 324
f 291 324 323
f 291 324 325
f 291 325 324
f 291 325 326
f 291 326 325
f 291 326 327
f 291 327 326
f 291 327 328
f 291 328 327
f 291 328 329
f 291 329 328
f 291 329 330
f 291 330 329
f 291 330 331
f 291 331 330
f 291 331 332
f 291 332 331
f 291 332 333
f 291 333 332
f 291 333 334
f 291 334 333
f 291 334 335
f 291 335 334
f 291 335 336
f 291 336 335
v -0.088426 1.450760 0.004221
v -0.082195 1.448892 0.003694
v -0.076005 1.447022 0.002608
v -0.069904 1.445147 0.000316
v -0.063929 1.443266 -0.003686
v -0.058094 1.441378 -0.009589
v -0.052385 1.439484 -0.017195
v -0.046757 1.437585 -0.025914
v -0.041146 1.435685 -0.034849
v -0.035473 1.433789 -0.042946
v -0.029663 1.431899 -0.049183
v -0.023656 1.430020 -0.052751
v -0.017419 1.428152 -0.053204
v -0.010953 1.426296 -0.050542
v -0.004290 1.424450 -0.045210
v 0.002510 1.422611 -0.038018
v 0.009372 1.420775 -0.029989
v 0.016218 1.418938 -0.022176
v 0.022982 1.417097 -0.015475
v 0.029620 1.415249 -0.010477
v 0.036119 1.413395 -0.007382
v 0.042491 1.411534 -0.005995
v 0.048774 1.409669 -0.005815
v 0.055016 1.407801 -0.006193
v 0.048785 1.409669 -0.005665
v 0.042595 1.411539 -0.004579
v 0.036494 1.413414 -0.002287
v 0.030519 1.415295 0.001714
v 0.024684 1.417183 0.007617
v 0.018975 1.419078 0.015224
v 0.013348 1.420977 0.023942
v 0.007737 1.422876 0.032877
v 0.002064 1.424772 0.040975
v -0.003747 1.426662 0.047212
v -0.009754 1.428541 0.050780
v -0.015990 1.430409 0.051232
v -0.022456 1.432265 0.048570
v -0.029119 1.434111 0.043239
v -0.035920 1.435951 0.036046
v -0.042782 1.437787 0.028017
v -0.049628 1.439624 0.020204
v -0.056391 1.441465 0.013504
v -0.063030 1.443312 0.008506
v -0.069528 1.445166 0.005410
v -0.075900 1.447027 0.004023
v -0.082184 1.448893 0.003843
f 337 338 339
f 337 339 338
f 337 339 340
f 337 340 339
f 337 340 341
f 337 341 340
f 337 341 342
f 337 342 341
f 337 342 343
f 337 343 342
f 337 343 344
f 337 344 343
f 337 344 345
f 337 345 344
f 337 345 346
f 337 346 345
f 337 346 347
f 337 347 346
f 337 347 348
f 337 348 347
f 337 348 349
f 337 349 348
f 337 349 350
f 337 350 349
f 337 350 351
f 337 351 350
f 337 351 352
f 337 352 351
f 337 352 353
f 337 353 352
f 337 353 354
f 337 354 353
f 337 354 355
f 337 355 354
f 337 355 356
f 337 356 355
f 337 356 357
f 337 357 356
f 337 357 358
f 337 358 357
f 337 358 359
f 337 359 358
f 337 359 360
f 337 360 359
f 337 360 361
f 337 361 360
f 337 361 362
f 337 362 361
f 337 362 363
f 337 363 362
f 337 363 364
f 337 364 363
f 337 364 365
f 337 365 364
f 337 365 366
f 337 366 365
f 337 366 367
f 337 367 366
f 337 367 368
f 337 368 367
f 337 368 369
f 337 369 368
f 337 369 370
f 337 370 369
f 337 370 371
f 337 371 370
f 337 371 372
f 337 372 371
f 337 372 373
f 337 373 372
f 337 373 374
f 337 374 373
f 337 374 375
f 337 375 374
f 337 375 376
f 337 376 375
f 337 376 377
f 337 377 376
f 337 377 378
f 337 378 377
f 337 378 379
f 337 379 378
f 337 379 380
f 337 380 379
f 337 380 381
f 337 381 380
f 337 381 382
f 337 382 381
v -0.088426 1.450760 0.004221
v -0.088719 1.448990 -0.000427
v -0.090110 1.447064 -0.005037
v -0.092778 1.444957 -0.009602
v -0.096656 1.442679 -0.014123
v -0.101504 1.440263 -0.018611
v -0.106949 1.437763 -0.023077
v -0.112533 1.435244 -0.027538
v -0.117761 1.432775 -0.032012
v -0.122158 1.430423 -0.036515
v -0.125314 1.428247 -0.041062
v -0.126932 1.426289 -0.045664
v -0.126854 1.424571 -0.050326
v -0.125080 1.423093 -0.055047
v -0.121767 1.421833 -0.059824
v -0.117215 1.420748 -0.064644
v -0.111830 1.419781 -0.069494
v -0.106090 1.418865 -0.074356
v -0.100489 1.417929 -0.079214
v -0.095485 1.416908 -0.084050
v -0.091451 1.415750 -0.088852
v -0.088627 1.414420 -0.093611
v -0.087080 1.412910 -0.098325
v -0.086630 1.411245 -0.103000
v -0.086337 1.413015 -0.098351
v -0.084946 1.414942 -0.093742
v -0.082278 1.417048 -0.089177
v -0.078400 1.419326 -0.084655
v -0.073553 1.421742 -0.080168
v -0.068107 1.424242 -0.075702
v -0.062524 1.426761 -0.071241
v -0.057295 1.429231 -0.066767
v -0.052899 1.431582 -0.062264
v -0.049742 1.433758 -0.057717
v -0.048124 1.435716 -0.053115
v -0.048202 1.437434 -0.048453
v -0.049976 1.438912 -0.043731
v -0.053289 1.440172 -0.038955
v -0.057842 1.441257 -0.034135
v -0.063226 1.442224 -0.029285
v -0.068966 1.443140 -0.024422
v -0.074567 1.444077 -0.019565
v -0.079571 1.445097 -0.014729
v -0.083605 1.446255 -0.009927
v -0.086429 1.447585 -0.005168
v -0.087977 1.449095 -0.000454
f 383 384 385
f 383 385 384
f 383 385 386
f 383 386 385
f 383 386 387
f 383 387 386
f 383 387 388
f 383 388 387
f 383 388 389
f 383 389 388
f 383 389 390
f 383 390 389
f 383 390 391
f 383 391 390
f 383 391 392
f 383 392 391
f 383 392 393
f 383 393 392
f 383 393 394
f 383 394 393
f 383 394 395
f 383 395 394
f 383 395 396
f 383 396 395
f 383 396 397
f 383 397 396
f 383 397 398
f 383 398 397
f 383 398 399
f 383 399 398
f 383 399 400
f 383 400 399
f 383 400 401
f 383 401 400
f 383 401 402
f 383 402 401
f 383 402 403
f 383 403 402
f 383 403 404
f 383 404 403
f 383 404 405
f 383 405 404
f 383 405 406
f 383 406 405
f 383 406 407
f 383 407 406
f 383 407 408
f 383 408 407
f 383 408 409
f 383 409 408
f 383 409 410
f 383 410 409
f 383 410 411
f 383 411 410
f 383 411 412
f 383 412 411
f 383 412 413
f 383 413 412
f 383 413 414
f 383 414 413
f 383 414 415
f 383 415 414
f 383 415 416
f 383 416 415
f 383 416 417
f 383 417 416
f 383 417 418
f 383 418 417
f 383 418 419
f 383 419 418
f 383 419 420
f 383 420 419
f 383 420 421
f 383 421 420
f 383 421 422
f 383 422 421
f 383 422 423
f 383 423 422
f 383 423 424
f 383 424 423
f 383 424 425
f 383 425 424
f 383 425 426
f 383 426 425
f 383 426 427
f 383 427 426
f 383 427 428
f 383 428 427
v -0.088426 1.450760 0.004221
v -0.092878 1.449034 0.003828
v -0.097537 1.447270 0.004588
v -0.102417 1.445467 0.006575
v -0.107495 1.443629 0.009661
v -0.112724 1.441763 0.013582
v -0.118037 1.439883 0.017977
v -0.123360 1.438001 0.022423
v -0.128613 1.436131 0.026482
v -0.133721 1.434288 0.029738
v -0.138622 1.432481 0.031841
v -0.143271 1.430719 0.032539
v -0.147642 1.429007 0.031697
v -0.151736 1.427344 0.029317
v -0.155578 1.425726 0.025530
v -0.159212 1.424146 0.020591
v -0.162702 1.422591 0.014850
v -0.166122 1.421048 0.008721
v -0.169551 1.419504 0.002643
v -0.173065 1.417945 -0.002961
v -0.176730 1.416359 -0.007730
v -0.180592 1.414737 -0.011400
v -0.184676 1.413076 -0.013843
v -0.188966 1.411378 -0.015133
v -0.184514 1.413105 -0.014739
v -0.179855 1.414869 -0.015500
v -0.174975 1.416672 -0.017486
v -0.169897 1.418510 -0.020572
v -0.164668 1.420375 -0.024494
v -0.159355 1.422256 -0.028889
v -0.154032 1.424138 -0.033335
v -0.148779 1.426007 -0.037393
v -0.143671 1.427851 -0.040649
v -0.138770 1.429658 -0.042753
v -0.134121 1.431419 -0.043450
v -0.129750 1.433132 -0.042609
v -0.125656 1.434795 -0.040228
v -0.121814 1.436412 -0.036442
v -0.118180 1.437993 -0.031503
v -0.114690 1.439548 -0.025762
v -0.111270 1.441090 -0.019632
v -0.107841 1.442635 -0.013555
v -0.104327 1.444194 -0.007950
v -0.100662 1.445780 -0.003181
v -0.096800 1.447402 0.000488
v -0.092716 1.449062 0.002932
f 429 430 431
f 429 431 430
f 429 431 432
f 429 432 431
f 429 432 433
f 429 433 432
f 429 433 434
f 429 434 433
f 429 434 435
f 429 435 434
f 429 435 436
f 429 436 435
f 429 436 437
f 429 437 436
f 429 437 438
f 429 438 437
f 429 438 439
f 429 439 438
f 429 439 440
f 429 440 439
f 429 440 441
f 429 441 440
f 429 441 442
f 429 442 441
f 429 442 443
f 429 443 442
f 429 443 444
f 429 444 443
f 429 444 445
f 429 445 444
f 429 445 446
f 429 446 445
f 429 446 447
f 429 447 446
f 429 447 448
f 429 448 447
f 429 448 449
f 429 449 448
f 429 449 450
f 429 450 449
f 429 450 451
f 429 451 450
f 429 451 452
f 429 452 451
f 429 452 453
f 429 453 452
f 429 453 454
f 429 454 453
f 429 454 455
f 429 455 454
f 429 455 456
f 429 456 455
f 429 456 457
f 429 457 456
f 429 457 458
f 429 458 457
f 429 458 459
f 429 459 458
f 429 459 460
f 429 460 459
f 429 460 461
f 429 461 460
f 429 461 462
f 429 462 461
f 429 462 463
f 429 463 462
f 429 463 464
f 429 464 463
f 429 464 465
f 429 465 464
f 429 465 466
f 429 466 465
f 429 466 467
f 429 467 466
f 429 467 468
f 429 468 467
f 429 468 469
f 429 469 468
f 429 469 470
f 429 470 469
f 429 470 471
f 429 471 470
f 429 471 472
f 429 472 471
f 429 472 473
f 429 473 472
f 429 473 474
f 429 474 473
