o mesh
v 1.370768 3.150000 2.573112
v 1.852675 3.150000 2.251112
v 1.674893 2.192184 1.985042
v 1.192986 2.192184 2.307041
f 1 2 3
f 1 3 4
v -2.522739 3.150000 1.446157
v -2.301485 3.150000 1.777286
v -2.035415 2.216459 1.599504
v -2.256668 2.216459 1.268374
f 5 6 7
f 5 7 8
v 2.271848 6.550000 1.749316
v 2.485555 6.550000 1.429480
v 2.219485 5.297779 1.251697
v 2.005778 5.297779 1.571533
f 9 10 11
f 9 11 12
v -1.754367 6.550000 2.268473
v -1.424428 6.550000 2.488931
v -1.246646 5.533845 2.222860
v -1.576585 5.533845 2.002402
f 13 14 15
f 13 15 16
v 2.505364 9.950000 -1.327508
v 2.185219 9.950000 -1.806639
v 1.919148 9.038591 -1.628857
v 2.239294 9.038591 -1.149725
f 17 18 19
f 17 19 20
v -0.330280 9.950000 -2.810221
v -0.770286 9.950000 -2.722698
v -0.707858 8.812821 -2.408847
v -0.267851 8.812821 -2.496370
f 21 22 23
f 21 23 24
v 1.354865 9.950000 2.487085
v 1.779282 9.950000 2.203498
v 1.601500 8.549439 1.937428
v 1.177082 8.549439 2.221014
f 25 26 27
f 25 27 28
v -2.166759 13.350000 -1.761940
v -2.457003 13.350000 -1.327559
v -2.190933 11.860576 -1.149777
v -1.900689 11.860576 -1.584157
f 29 30 31
f 29 31 32
v -2.164336 13.350000 -1.765567
v -2.459426 13.350000 -1.323933
v -2.193356 12.360208 -1.146150
v -1.898266 12.360208 -1.587784
f 33 34 35
f 33 35 36
v -2.437657 13.350000 1.356513
v -2.186106 13.350000 1.732986
v -1.920035 12.218520 1.555203
v -2.171586 12.218520 1.178731
f 37 38 39
f 37 39 40
v 0.776605 16.750000 -2.639503
v 0.292604 16.750000 -2.735777
v 0.230176 15.532351 -2.421925
v 0.714176 15.532351 -2.325652
f 41 42 43
f 41 43 44
v 0.812335 16.750000 -2.632396
v 0.256875 16.750000 -2.742884
v 0.194446 15.725176 -2.429032
v 0.749906 15.725176 -2.318545
f 45 46 47
f 45 47 48
v -1.742604 16.750000 2.131352
v -1.302247 16.750000 2.425589
v -1.124465 15.674895 2.159519
v -1.564822 15.674895 1.865282
f 49 50 51
f 49 51 52
v 1.647364 20.150000 -2.146663
v 1.352839 20.150000 -2.343458
v 1.175057 18.616527 -2.077388
v 1.469582 18.616527 -1.880593
f 53 54 55
f 53 55 56
v -0.772974 20.150000 2.599256
v -0.280558 20.150000 2.697204
v -0.218129 19.153580 2.383352
v -0.710545 19.153580 2.285405
f 57 58 59
f 57 59 60
v -0.242271 23.550000 -2.663850
v -0.795582 23.550000 -2.553790
v -0.733153 22.164035 -2.239938
v -0.179842 22.164035 -2.349999
f 61 62 63
f 61 63 64
v -0.251881 23.550000 -2.661938
v -0.785972 23.550000 -2.555701
v -0.723544 22.267596 -2.241850
v -0.189452 22.267596 -2.348087
f 65 66 67
f 65 67 68
v -0.756237 23.550000 2.561616
v -0.281616 23.550000 2.656024
v -0.219187 22.063640 2.342172
v -0.693808 22.063640 2.247764
f 69 70 71
f 69 71 72
v 2.655335 23.550000 -0.285078
v 2.562304 23.550000 -0.752775
v 2.248453 22.632027 -0.690346
v 2.341484 22.632027 -0.222649
f 73 74 75
f 73 75 76
v -2.314898 26.950000 1.250931
v -2.041583 26.950000 1.659977
v -1.775512 25.941127 1.482194
v -2.048828 25.941127 1.073148
f 77 78 79
f 77 79 80
