o part_0
v 0.000000 0.000000 0.035000
v 0.016490 0.000000 0.022697
v 0.028878 0.000000 0.009383
v 0.028878 0.000000 -0.009383
v 0.016490 0.000000 -0.022697
v 0.000000 0.000000 -0.035000
v -0.016490 0.000000 -0.022697
v -0.028878 0.000000 -0.009383
v -0.028878 0.000000 0.009383
v -0.016490 0.000000 0.022697
v 0.000000 0.600000 0.031500
v 0.014841 0.600000 0.020427
v 0.025990 0.600000 0.008445
v 0.025990 0.600000 -0.008445
v 0.014841 0.600000 -0.020427
v 0.000000 0.600000 -0.031500
v -0.014841 0.600000 -0.020427
v -0.025990 0.600000 -0.008445
v -0.025990 0.600000 0.008445
v -0.014841 0.600000 0.020427
f 1 2 12
f 1 12 11
f 2 3 13
f 2 13 12
f 3 4 14
f 3 14 13
f 4 5 15
f 4 15 14
f 5 6 16
f 5 16 15
f 6 7 17
f 6 17 16
f 7 8 18
f 7 18 17
f 8 9 19
f 8 19 18
f 9 10 20
f 9 20 19
f 10 1 11
f 10 11 20
o part_1
v 0.000000 0.600282 0.031499
v 0.014751 0.601817 0.020412
v 0.025832 0.602937 0.008419
v 0.025832 0.602786 -0.008470
v 0.014751 0.601451 -0.020441
v 0.000000 0.599718 -0.031499
v -0.014751 0.598183 -0.020412
v -0.025832 0.597063 -0.008419
v -0.025832 0.597214 0.008470
v -0.014751 0.598549 0.020441
v -0.056297 1.108423 0.023793
v -0.043021 1.109804 0.013815
v -0.033047 1.110812 0.003021
v -0.033047 1.110676 -0.012179
v -0.043021 1.109475 -0.022953
v -0.056297 1.107915 -0.032905
v -0.069573 1.106533 -0.022927
v -0.079546 1.105525 -0.012133
v -0.079546 1.105662 0.003067
v -0.069573 1.106863 0.013841
f 21 22 32
f 21 32 31
f 22 23 33
f 22 33 32
f 23 24 34
f 23 34 33
f 24 25 35
f 24 35 34
f 25 26 36
f 25 36 35
f 26 27 37
f 26 37 36
f 27 28 38
f 27 38 37
f 28 29 39
f 28 39 38
f 29 30 40
f 29 40 39
f 30 21 31
f 30 31 40
o part_2
v -0.056297 1.108169 -0.004556
v -0.057337 1.104331 0.000952
v -0.056781 1.100675 0.007115
v -0.054603 1.097205 0.013946
v -0.051012 1.093897 0.021359
v -0.046376 1.090708 0.029201
v -0.041177 1.087584 0.037275
v -0.035961 1.084462 0.045356
v -0.031287 1.081278 0.053214
v -0.027680 1.077971 0.060633
v -0.025577 1.074493 0.067433
v -0.025296 1.070806 0.073484
v -0.027001 1.066891 0.078718
v -0.030692 1.062749 0.083135
v -0.036204 1.058399 0.086803
v -0.043222 1.053877 0.089852
v -0.051305 1.049232 0.092462
v -0.059931 1.044525 0.094849
v -0.068540 1.039821 0.097243
v -0.076585 1.035180 0.099869
v -0.083586 1.030660 0.102924
v -0.089173 1.026301 0.106561
v -0.093139 1.022128 0.110865
v -0.095509 1.018137 0.115826
v -0.094469 1.021975 0.110318
v -0.095025 1.025631 0.104154
v -0.097202 1.029101 0.097323
v -0.100793 1.032409 0.089911
v -0.105429 1.035598 0.082069
v -0.110628 1.038722 0.073995
v -0.115845 1.041844 0.065914
v -0.120518 1.045028 0.058056
v -0.124125 1.048335 0.050637
v -0.126228 1.051813 0.043837
v -0.126509 1.055500 0.037786
v -0.124805 1.059415 0.032552
v -0.121113 1.063557 0.028135
v -0.115601 1.067907 0.024467
v -0.108584 1.072429 0.021418
v -0.100501 1.077074 0.018808
v -0.091875 1.081781 0.016421
v -0.083266 1.086485 0.014027
v -0.075220 1.091126 0.011401
v -0.068219 1.095646 0.008346
v -0.062632 1.100005 0.004709
v -0.058666 1.104178 0.000404
f 41 42 43
f 41 43 42
f 41 43 44
f 41 44 43
f 41 44 45
f 41 45 44
f 41 45 46
f 41 46 45
f 41 46 47
f 41 47 46
f 41 47 48
f 41 48 47
f 41 48 49
f 41 49 48
f 41 49 50
f 41 50 49
f 41 50 51
f 41 51 50
f 41 51 52
f 41 52 51
f 41 52 53
f 41 53 52
f 41 53 54
f 41 54 53
f 41 54 55
f 41 55 54
f 41 55 56
f 41 56 55
f 41 56 57
f 41 57 56
f 41 57 58
f 41 58 57
f 41 58 59
f 41 59 58
f 41 59 60
f 41 60 59
f 41 60 61
f 41 61 60
f 41 61 62
f 41 62 61
f 41 62 63
f 41 63 62
f 41 63 64
f 41 64 63
f 41 64 65
f 41 65 64
f 41 65 66
f 41 66 65
f 41 66 67
f 41 67 66
f 41 67 68
f 41 68 67
f 41 68 69
f 41 69 68
f 41 69 70
f 41 70 69
f 41 70 71
f 41 71 70
f 41 71 72
f 41 72 71
f 41 72 73
f 41 73 72
f 41 73 74
f 41 74 73
f 41 74 75
f 41 75 74
f 41 75 76
f 41 76 75
f 41 76 77
f 41 77 76
f 41 77 78
f 41 78 77
f 41 78 79
f 41 79 78
f 41 79 80
f 41 80 79
f 41 80 81
f 41 81 80
f 41 81 82
f 41 82 81
f 41 82 83
f 41 83 82
f 41 83 84
f 41 84 83
f 41 84 85
f 41 85 84
f 41 85 86
f 41 86 85
o part_3
v -0.056297 1.108169 -0.004556
v -0.051317 1.105651 -0.007324
v -0.046954 1.103053 -0.011404
v -0.043280 1.100366 -0.016945
v -0.040241 1.097596 -0.023838
v -0.037700 1.094762 -0.031788
v -0.035454 1.091889 -0.040366
v -0.033261 1.089010 -0.049057
v -0.030865 1.086156 -0.057314
v -0.028020 1.083362 -0.064618
v -0.024517 1.080652 -0.070524
v -0.020204 1.078048 -0.074710
v -0.015002 1.075559 -0.077006
v -0.008911 1.073185 -0.077412
v -0.002010 1.070917 -0.076097
v 0.005548 1.068734 -0.073385
v 0.013556 1.066609 -0.069719
v 0.021767 1.064511 -0.065619
v 0.029925 1.062406 -0.061633
v 0.037788 1.060263 -0.058274
v 0.045153 1.058055 -0.055973
v 0.051882 1.055764 -0.055023
v 0.057923 1.053384 -0.055535
v 0.063348 1.050924 -0.057359
v 0.058368 1.053442 -0.054591
v 0.054005 1.056040 -0.050511
v 0.050331 1.058727 -0.044970
v 0.047292 1.061497 -0.038077
v 0.044751 1.064331 -0.030126
v 0.042505 1.067204 -0.021548
v 0.040312 1.070083 -0.012858
v 0.037916 1.072937 -0.004600
v 0.035071 1.075731 0.002704
v 0.031568 1.078441 0.008610
v 0.027255 1.081045 0.012796
v 0.022053 1.083534 0.015091
v 0.015962 1.085908 0.015497
v 0.009061 1.088176 0.014182
v 0.001502 1.090359 0.011470
v -0.006505 1.092484 0.007804
v -0.014716 1.094582 0.003705
v -0.022874 1.096687 -0.000282
v -0.030737 1.098830 -0.003640
v -0.038102 1.101038 -0.005942
v -0.044831 1.103329 -0.006892
v -0.050872 1.105709 -0.006380
f 87 88 89
f 87 89 88
f 87 89 90
f 87 90 89
f 87 90 91
f 87 91 90
f 87 91 92
f 87 92 91
f 87 92 93
f 87 93 92
f 87 93 94
f 87 94 93
f 87 94 95
f 87 95 94
f 87 95 96
f 87 96 95
f 87 96 97
f 87 97 96
f 87 97 98
f 87 98 97
f 87 98 99
f 87 99 98
f 87 99 100
f 87 100 99
f 87 100 101
f 87 101 100
f 87 101 102
f 87 102 101
f 87 102 103
f 87 103 102
f 87 103 104
f 87 104 103
f 87 104 105
f 87 105 104
f 87 105 106
f 87 106 105
f 87 106 107
f 87 107 106
f 87 107 108
f 87 108 107
f 87 108 109
f 87 109 108
f 87 109 110
f 87 110 109
f 87 110 111
f 87 111 110
f 87 111 112
f 87 112 111
f 87 112 113
f 87 113 112
f 87 113 114
f 87 114 113
f 87 114 115
f 87 115 114
f 87 115 116
f 87 116 115
f 87 116 117
f 87 117 116
f 87 117 118
f 87 118 117
f 87 118 119
f 87 119 118
f 87 119 120
f 87 120 119
f 87 120 121
f 87 121 120
f 87 121 122
f 87 122 121
f 87 122 123
f 87 123 122
f 87 123 124
f 87 124 123
f 87 124 125
f 87 125 124
f 87 125 126
f 87 126 125
f 87 126 127
f 87 127 126
f 87 127 128
f 87 128 127
f 87 128 129
f 87 129 128
f 87 129 130
f 87 130 129
f 87 130 131
f 87 131 130
f 87 131 132
f 87 132 131
o part_4
v -0.056297 1.108169 -0.004556
v -0.060797 1.105237 -0.007292
v -0.065949 1.102241 -0.009039
v -0.071938 1.099164 -0.009512
v -0.078776 1.096005 -0.008694
v -0.086334 1.092776 -0.006781
v -0.094373 1.089500 -0.004136
v -0.102576 1.086208 -0.001243
v -0.110584 1.082935 0.001355
v -0.118044 1.079715 0.003120
v -0.124648 1.076579 0.003582
v -0.130167 1.073548 0.002394
v -0.134480 1.070634 -0.000628
v -0.137587 1.067837 -0.005484
v -0.139609 1.065145 -0.011990
v -0.140775 1.062537 -0.019799
v -0.141392 1.059982 -0.028441
v -0.141816 1.057446 -0.037378
v -0.142403 1.054894 -0.046067
v -0.143471 1.052295 -0.054025
v -0.145259 1.049627 -0.060887
v -0.147895 1.046876 -0.066458
v -0.151370 1.044043 -0.070756
v -0.155495 1.041147 -0.074063
v -0.150994 1.044080 -0.071327
v -0.145842 1.047075 -0.069580
v -0.139853 1.050152 -0.069108
v -0.133015 1.053311 -0.069926
v -0.125457 1.056540 -0.071839
v -0.117418 1.059816 -0.074484
v -0.109216 1.063108 -0.077377
v -0.101207 1.066381 -0.079975
v -0.093747 1.069601 -0.081739
v -0.087143 1.072737 -0.082201
v -0.081624 1.075769 -0.081013
v -0.077311 1.078683 -0.077991
v -0.074204 1.081479 -0.073135
v -0.072182 1.084171 -0.066629
v -0.071017 1.086779 -0.058820
v -0.070399 1.089334 -0.050178
v -0.069975 1.091870 -0.041241
v -0.069389 1.094422 -0.032552
v -0.068321 1.097021 -0.024595
v -0.066533 1.099690 -0.017733
v -0.063896 1.102441 -0.012161
v -0.060422 1.105273 -0.007864
f 133 134 135
f 133 135 134
f 133 135 136
f 133 136 135
f 133 136 137
f 133 137 136
f 133 137 138
f 133 138 137
f 133 138 139
f 133 139 138
f 133 139 140
f 133 140 139
f 133 140 141
f 133 141 140
f 133 141 142
f 133 142 141
f 133 142 143
f 133 143 142
f 133 143 144
f 133 144 143
f 133 144 145
f 133 145 144
f 133 145 146
f 133 146 145
f 133 146 147
f 133 147 146
f 133 147 148
f 133 148 147
f 133 148 149
f 133 149 148
f 133 149 150
f 133 150 149
f 133 150 151
f 133 151 150
f 133 151 152
f 133 152 151
f 133 152 153
f 133 153 152
f 133 153 154
f 133 154 153
f 133 154 155
f 133 155 154
f 133 155 156
f 133 156 155
f 133 156 157
f 133 157 156
f 133 157 158
f 133 158 157
f 133 158 159
f 133 159 158
f 133 159 160
f 133 160 159
f 133 160 161
f 133 161 160
f 133 161 162
f 133 162 161
f 133 162 163
f 133 163 162
f 133 163 164
f 133 164 163
f 133 164 165
f 133 165 164
f 133 165 166
f 133 166 165
f 133 166 167
f 133 167 166
f 133 167 168
f 133 168 167
f 133 168 169
f 133 169 168
f 133 169 170
f 133 170 169
f 133 170 171
f 133 171 170
f 133 171 172
f 133 172 171
f 133 172 173
f 133 173 172
f 133 173 174
f 133 174 173
f 133 174 175
f 133 175 174
f 133 175 176
f 133 176 175
f 133 176 177
f 133 177 176
f 133 177 178
f 133 178 177
o part_5
v -0.056297 1.107506 0.023786
v -0.043252 1.110610 0.013891
v -0.033452 1.113019 0.003160
v -0.033452 1.113375 -0.012037
v -0.043252 1.111470 -0.022868
v -0.056297 1.108832 -0.032898
v -0.069341 1.105728 -0.023003
v -0.079141 1.103319 -0.012272
v -0.079141 1.102963 0.002925
v -0.069341 1.104867 0.013756
v -0.136039 1.469662 0.029427
v -0.124298 1.472456 0.020521
v -0.115479 1.474624 0.010863
v -0.115479 1.474944 -0.002814
v -0.124298 1.473230 -0.012563
v -0.136039 1.470856 -0.021589
v -0.147779 1.468062 -0.012684
v -0.156599 1.465893 -0.003026
v -0.156599 1.465573 0.010651
v -0.147779 1.467288 0.020400
f 179 180 190
f 179 190 189
f 180 181 191
f 180 191 190
f 181 182 192
f 181 192 191
f 182 183 193
f 182 193 192
f 183 184 194
f 183 194 193
f 184 185 195
f 184 195 194
f 185 186 196
f 185 196 195
f 186 187 197
f 186 197 196
f 187 188 198
f 187 198 197
f 188 179 189
f 188 189 198
o part_6
v -0.136039 1.470259 0.003919
v -0.136245 1.468572 0.009358
v -0.135215 1.467152 0.015032
v -0.132766 1.466038 0.020974
v -0.128981 1.465213 0.027169
v -0.124130 1.464617 0.033566
v -0.118631 1.464162 0.040086
v -0.112990 1.463737 0.046633
v -0.107751 1.463226 0.053104
v -0.103437 1.462514 0.059399
v -0.100496 1.461506 0.065434
v -0.099256 1.460132 0.071148
v -0.099887 1.458354 0.076507
v -0.102389 1.456171 0.081512
v -0.106592 1.453622 0.086195
v -0.112167 1.450777 0.090618
v -0.118668 1.447732 0.094866
v -0.125571 1.444600 0.099037
v -0.132333 1.441499 0.103235
v -0.138445 1.438537 0.107557
v -0.143492 1.435806 0.112080
v -0.147203 1.433363 0.116856
v -0.149495 1.431226 0.121901
v -0.150550 1.429356 0.127179
v -0.150344 1.431043 0.121740
v -0.151374 1.432463 0.116066
v -0.153823 1.433577 0.110124
v -0.157609 1.434402 0.103928
v -0.162459 1.434997 0.097531
v -0.167958 1.435453 0.091011
v -0.173600 1.435878 0.084465
v -0.178839 1.436389 0.077994
v -0.183152 1.437101 0.071699
v -0.186093 1.438108 0.065663
v -0.187334 1.439483 0.059950
v -0.186703 1.441261 0.054591
v -0.184200 1.443444 0.049586
v -0.179997 1.445993 0.044903
v -0.174422 1.448838 0.040480
v -0.167921 1.451883 0.036232
v -0.161018 1.455015 0.032061
v -0.154257 1.458116 0.027862
v -0.148144 1.461078 0.023541
v -0.143097 1.463809 0.019018
v -0.139386 1.466252 0.014242
v -0.137094 1.468389 0.009197
f 199 200 201
f 199 201 200
f 199 201 202
f 199 202 201
f 199 202 203
f 199 203 202
f 199 203 204
f 199 204 203
f 199 204 205
f 199 205 204
f 199 205 206
f 199 206 205
f 199 206 207
f 199 207 206
f 199 207 208
f 199 208 207
f 199 208 209
f 199 209 208
f 199 209 210
f 199 210 209
f 199 210 211
f 199 211 210
f 199 211 212
f 199 212 211
f 199 212 213
f 199 213 212
f 199 213 214
f 199 214 213
f 199 214 215
f 199 215 214
f 199 215 216
f 199 216 215
f 199 216 217
f 199 217 216
f 199 217 218
f 199 218 217
f 199 218 219
f 199 219 218
f 199 219 220
f 199 220 219
f 199 220 221
f 199 221 220
f 199 221 222
f 199 222 221
f 199 222 223
f 199 223 222
f 199 223 224
f 199 224 223
f 199 224 225
f 199 225 224
f 199 225 226
f 199 226 225
f 199 226 227
f 199 227 226
f 199 227 228
f 199 228 227
f 199 228 229
f 199 229 228
f 199 229 230
f 199 230 229
f 199 230 231
f 199 231 230
f 199 231 232
f 199 232 231
f 199 232 233
f 199 233 232
f 199 233 234
f 199 234 233
f 199 234 235
f 199 235 234
f 199 235 236
f 199 236 235
f 199 236 237
f 199 237 236
f 199 237 238
f 199 238 237
f 199 238 239
f 199 239 238
f 199 239 240
f 199 240 239
f 199 240 241
f 199 241 240
f 199 241 242
f 199 242 241
f 199 242 243
f 199 243 242
f 199 243 244
f 199 244 243
o part_7
v -0.136039 1.470259 0.003919
v -0.132281 1.468772 0.000381
v -0.129101 1.467172 -0.003769
v -0.126792 1.465401 -0.008843
v -0.125457 1.463441 -0.014949
v -0.125022 1.461304 -0.022011
v -0.125253 1.459038 -0.029779
v -0.125791 1.456711 -0.037873
v -0.126201 1.454410 -0.045831
v -0.126033 1.452221 -0.053177
v -0.124883 1.450224 -0.059479
v -0.122445 1.448480 -0.064416
v -0.118555 1.447018 -0.067814
v -0.113215 1.445840 -0.069672
v -0.106586 1.444914 -0.070164
v -0.098975 1.444180 -0.069614
v -0.090786 1.443558 -0.068450
v -0.082470 1.442962 -0.067152
v -0.074460 1.442306 -0.066178
v -0.067116 1.441519 -0.065912
v -0.060672 1.440557 -0.066600
v -0.055203 1.439404 -0.068321
v -0.050604 1.438082 -0.070966
v -0.046582 1.436646 -0.074223
v -0.050340 1.438133 -0.070686
v -0.053520 1.439733 -0.066536
v -0.055829 1.441504 -0.061462
v -0.057164 1.443464 -0.055355
v -0.057599 1.445600 -0.048294
v -0.057368 1.447867 -0.040525
v -0.056830 1.450194 -0.032432
v -0.056420 1.452495 -0.024473
v -0.056588 1.454684 -0.017128
v -0.057738 1.456680 -0.010825
v -0.060176 1.458425 -0.005889
v -0.064066 1.459887 -0.002491
v -0.069406 1.461065 -0.000633
v -0.076035 1.461991 -0.000141
v -0.083646 1.462725 -0.000691
v -0.091835 1.463346 -0.001854
v -0.100151 1.463943 -0.003153
v -0.108161 1.464599 -0.004126
v -0.115505 1.465385 -0.004393
v -0.121949 1.466348 -0.003705
v -0.127418 1.467500 -0.001984
v -0.132018 1.468823 0.000661
f 245 246 247
f 245 247 246
f 245 247 248
f 245 248 247
f 245 248 249
f 245 249 248
f 245 249 250
f 245 250 249
f 245 250 251
f 245 251 250
f 245 251 252
f 245 252 251
f 245 252 253
f 245 253 252
f 245 253 254
f 245 254 253
f 245 254 255
f 245 255 254
f 245 255 256
f 245 256 255
f 245 256 257
f 245 257 256
f 245 257 258
f 245 258 257
f 245 258 259
f 245 259 258
f 245 259 260
f 245 260 259
f 245 260 261
f 245 261 260
f 245 261 262
f 245 262 261
f 245 262 263
f 245 263 262
f 245 263 264
f 245 264 263
f 245 264 265
f 245 265 264
f 245 265 266
f 245 266 265
f 245 266 267
f 245 267 266
f 245 267 268
f 245 268 267
f 245 268 269
f 245 269 268
f 245 269 270
f 245 270 269
f 245 270 271
f 245 271 270
f 245 271 272
f 245 272 271
f 245 272 273
f 245 273 272
f 245 273 274
f 245 274 273
f 245 274 275
f 245 275 274
f 245 275 276
f 245 276 275
f 245 276 277
f 245 277 276
f 245 277 278
f 245 278 277
f 245 278 279
f 245 279 278
f 245 279 280
f 245 280 279
f 245 280 281
f 245 281 280
f 245 281 282
f 245 282 281
f 245 282 283
f 245 283 282
f 245 283 284
f 245 284 283
f 245 284 285
f 245 285 284
f 245 285 286
f 245 286 285
f 245 286 287
f 245 287 286
f 245 287 288
f 245 288 287
f 245 288 289
f 245 289 288
f 245 289 290
f 245 290 289
o part_8
v -0.136039 1.470259 0.003919
v -0.139404 1.467405 0.002933
v -0.142908 1.464509 0.002483
v -0.146653 1.461537 0.002982
v -0.150700 1.458471 0.004657
v -0.155050 1.455311 0.007514
v -0.159644 1.452074 0.011327
v -0.164374 1.448795 0.015671
v -0.169097 1.445519 0.019984
v -0.173654 1.442294 0.023655
v -0.177901 1.439166 0.026111
v -0.181726 1.436169 0.026917
v -0.185067 1.433323 0.025835
v -0.187924 1.430628 0.022864
v -0.190359 1.428064 0.018243
v -0.192484 1.425598 0.012408
v -0.194443 1.423182 0.005930
v -0.196395 1.420769 -0.000579
v -0.198483 1.418314 -0.006557
v -0.200816 1.415782 -0.011578
v -0.203451 1.413157 -0.015418
v -0.206387 1.410437 -0.018082
v -0.209566 1.407641 -0.019797
v -0.212882 1.404803 -0.020976
v -0.209517 1.407657 -0.019990
v -0.206014 1.410553 -0.019541
v -0.202268 1.413525 -0.020040
v -0.198221 1.416591 -0.021715
v -0.193871 1.419751 -0.024571
v -0.189277 1.422988 -0.028384
v -0.184547 1.426267 -0.032728
v -0.179824 1.429543 -0.037042
v -0.175267 1.432768 -0.040712
v -0.171020 1.435896 -0.043169
v -0.167195 1.438893 -0.043975
v -0.163854 1.441739 -0.042893
v -0.160997 1.444434 -0.039922
v -0.158562 1.446998 -0.035300
v -0.156437 1.449464 -0.029465
v -0.154478 1.451880 -0.022987
v -0.152526 1.454293 -0.016478
v -0.150438 1.456748 -0.010501
v -0.148105 1.459280 -0.005479
v -0.145470 1.461905 -0.001639
v -0.142534 1.464625 0.001024
v -0.139355 1.467421 0.002740
f 291 292 293
f 291 293 292
f 291 293 294
f 291 294 293
f 291 294 295
f 291 295 294
f 291 295 296
f 291 296 295
f 291 296 297
f 291 297 296
f 291 297 298
f 291 298 297
f 291 298 299
f 291 299 298
f 291 299 300
f 291 300 299
f 291 300 301
f 291 301 300
f 291 301 302
f 291 302 301
f 291 302 303
f 291 303 302
f 291 303 304
f 291 304 303
f 291 304 305
f 291 305 304
f 291 305 306
f 291 306 305
f 291 306 307
f 291 307 306
f 291 307 308
f 291 308 307
f 291 308 309
f 291 309 308
f 291 309 310
f 291 310 309
f 291 310 311
f 291 311 310
f 291 311 312
f 291 312 311
f 291 312 313
f 291 313 312
f 291 313 314
f 291 314 313
f 291 314 315
f 291 315 314
f 291 315 316
f 291 316 315
f 291 316 317
f 291 317 316
f 291 317 318
f 291 318 317
f 291 318 319
f 291 319 318
f 291 319 320
f 291 320 319
f 291 320 321
f 291 321 320
f 291 321 322
f 291 322 321
f 291 322 323
f 291 323 322
f 291 323 324
f 291 324 323
f 291 324 325
f 291 325 324
f 291 325 326
f 291 326 325
f 291 326 327
f 291 327 326
f 291 327 328
f 291 328 327
f 291 328 329
f 291 329 328
f 291 329 330
f 291 330 329
f 291 330 331
f 291 331 330
f 291 331 332
f 291 332 331
f 291 332 333
f 291 333 332
f 291 333 334
f 291 334 333
f 291 334 335
f 291 335 334
f 291 335 336
f 291 336 335
