o mesh
v 3.550496 0.900000 0.502167
v 2.572325 0.900000 -0.263447
v 2.572325 2.600000 -0.263447
v 3.550496 2.600000 0.502167
f 1 2 3
f 1 3 4
v 1.594154 0.900000 -1.029061
v 0.615983 0.900000 -1.794675
v 0.615983 2.600000 -1.794675
v 1.594154 2.600000 -1.029061
f 5 6 7
f 5 7 8
v 0.615983 0.900000 -1.794675
v -0.362188 0.900000 -2.560289
v -0.362188 2.600000 -2.560289
v 0.615983 2.600000 -1.794675
f 9 10 11
f 9 11 12
v -0.362188 0.900000 -2.560289
v -1.340359 0.900000 -3.325903
v -1.340359 2.600000 -3.325903
v -0.362188 2.600000 -2.560289
f 13 14 15
f 13 15 16
v -1.340359 0.900000 -3.325903
v -1.514315 0.900000 -2.095975
v -1.514315 2.600000 -2.095975
v -1.340359 2.600000 -3.325903
f 17 18 19
f 17 19 20
v -1.514315 0.900000 -2.095975
v -1.688270 0.900000 -0.866047
v -1.688270 2.600000 -0.866047
v -1.514315 2.600000 -2.095975
f 21 22 23
f 21 23 24
v 0.670180 2.500000 1.662952
v 0.137966 2.737679 1.877437
v 0.262841 2.939173 1.827111
f 25 26 27
v 0.670180 2.500000 1.662952
v 0.262841 2.939173 1.827111
v 0.449730 3.073807 1.751794
f 28 29 30
v 0.670180 2.500000 1.662952
v 0.670180 3.121084 1.662952
v 0.890629 3.073807 1.574109
f 31 32 33
v 0.670180 2.500000 1.662952
v 1.202393 2.737679 1.448467
v 1.246243 2.500000 1.430795
f 34 35 36
v 1.246243 0.900000 1.430795
v 2.398370 0.900000 0.966481
v 2.398370 2.600000 0.966481
v 1.246243 2.600000 1.430795
f 37 38 39
f 37 39 40
v -1.340359 2.600000 -3.325903
v -1.514315 2.600000 -2.095975
v -1.408313 3.349439 -1.949257
v -1.246534 3.349439 -3.093090
f 41 42 43
f 41 43 44
v -1.514315 2.600000 -2.095975
v -1.688270 2.600000 -0.866047
v -1.570091 3.349439 -0.805424
v -1.408313 3.349439 -1.949257
f 45 46 47
f 45 47 48
v -1.688270 2.600000 -0.866047
v -1.862226 2.600000 0.363881
v -1.731870 3.349439 0.338409
v -1.570091 3.349439 -0.805424
f 49 50 51
f 49 51 52
v -1.862226 2.600000 0.363881
v -2.036182 2.600000 1.593809
v -1.893649 3.349439 1.482242
v -1.731870 3.349439 0.338409
f 53 54 55
f 53 55 56
v -1.058010 2.600000 2.359423
v 0.094116 2.600000 1.895109
v 0.087528 3.349439 1.762451
v -0.983950 3.349439 2.194263
f 57 58 59
f 57 59 60
v 3.301961 3.349439 0.467015
v 2.392262 3.349439 -0.245006
v 2.006414 4.019990 -0.205489
v 2.769387 4.019990 0.391690
f 61 62 63
f 61 63 64
v 0.572864 3.349439 -1.669048
v -0.336835 3.349439 -2.381069
v -0.282507 4.019990 -1.997026
v 0.480467 4.019990 -1.399847
f 65 66 67
f 65 67 68
v -0.336835 3.349439 -2.381069
v -1.246534 3.349439 -3.093090
v -1.045480 4.019990 -2.594205
v -0.282507 4.019990 -1.997026
f 69 70 71
f 69 71 72
v -1.893649 3.349439 1.482242
v -2.055428 3.349439 2.626075
v -1.723907 4.019990 2.202515
v -1.588222 4.019990 1.243171
f 73 74 75
f 73 75 76
v -2.055428 3.349439 2.626075
v -0.983950 3.349439 2.194263
v -0.825248 4.019990 1.840350
v -1.723907 4.019990 2.202515
f 77 78 79
f 77 79 80
v 0.087528 3.349439 1.762451
v 1.159006 3.349439 1.330639
v 0.972069 4.019990 1.116020
v 0.073411 4.019990 1.478185
f 81 82 83
f 81 83 84
v 2.230484 3.349439 0.898827
v 3.301961 3.349439 0.467015
v 2.769387 4.019990 0.391690
v 1.870728 4.019990 0.753855
f 85 86 87
f 85 87 88
v 2.769387 4.019990 0.391690
v 2.006414 4.019990 -0.205489
v 1.491949 4.572208 -0.152799
v 2.059288 4.572208 0.291257
f 89 90 91
f 89 91 92
v 1.243440 4.019990 -0.802668
v 0.480467 4.019990 -1.399847
v 0.357270 4.572208 -1.040912
v 0.924609 4.572208 -0.596856
f 93 94 95
f 93 95 96
v 0.480467 4.019990 -1.399847
v -0.282507 4.019990 -1.997026
v -0.210069 4.572208 -1.484968
v 0.357270 4.572208 -1.040912
f 97 98 99
f 97 99 100
v -0.282507 4.019990 -1.997026
v -1.045480 4.019990 -2.594205
v -0.777408 4.572208 -1.929024
v -0.210069 4.572208 -1.484968
f 101 102 103
f 101 103 104
v -1.045480 4.019990 -2.594205
v -1.181165 4.019990 -1.634861
v -0.878303 4.572208 -1.215666
v -0.777408 4.572208 -1.929024
f 105 106 107
f 105 107 108
v -1.452536 4.019990 0.283827
v -1.588222 4.019990 1.243171
v -1.180985 4.572208 0.924409
v -1.080091 4.572208 0.211051
f 109 110 111
f 109 111 112
v -1.723907 4.019990 2.202515
v -0.825248 4.019990 1.840350
v -0.613646 4.572208 1.368465
v -1.281880 4.572208 1.637767
f 113 114 115
f 113 115 116
v 0.073411 4.019990 1.478185
v 0.972069 4.019990 1.116020
v 0.722821 4.572208 0.829861
v 0.054587 4.572208 1.099163
f 117 118 119
f 117 119 120
v 1.870728 4.019990 0.753855
v 2.769387 4.019990 0.391690
v 2.059288 4.572208 0.291257
v 1.391054 4.572208 0.560559
f 121 122 123
f 121 123 124
v 0.924609 4.572208 -0.596856
v 0.357270 4.572208 -1.040912
v 0.357270 5.206094 -1.040912
v 0.924609 5.206094 -0.596856
f 125 126 127
f 125 127 128
v 0.357270 4.572208 -1.040912
v -0.210069 4.572208 -1.484968
v -0.210069 5.206094 -1.484968
v 0.357270 5.206094 -1.040912
f 129 130 131
f 129 131 132
v -0.613646 4.572208 1.368465
v 0.054587 4.572208 1.099163
v 0.054587 5.206094 1.099163
v -0.613646 5.206094 1.368465
f 133 134 135
f 133 135 136
v 2.059288 5.206094 0.291257
v 1.491949 5.206094 -0.152799
v 1.131823 5.797756 -0.115917
v 1.562218 5.797756 0.220953
f 137 138 139
f 137 139 140
v 0.924609 5.206094 -0.596856
v 0.357270 5.206094 -1.040912
v 0.271033 5.797756 -0.789657
v 0.701428 5.797756 -0.452787
f 141 142 143
f 141 143 144
v 0.357270 5.206094 -1.040912
v -0.210069 5.206094 -1.484968
v -0.159363 5.797756 -1.126527
v 0.271033 5.797756 -0.789657
f 145 146 147
f 145 147 148
v -0.878303 5.206094 -1.215666
v -0.979197 5.206094 -0.502307
v -0.742839 5.797756 -0.381061
v -0.666298 5.797756 -0.922229
f 149 150 151
f 149 151 152
v -1.180985 5.206094 0.924409
v -1.281880 5.206094 1.637767
v -0.972460 5.797756 1.242444
v -0.895920 5.797756 0.701276
f 153 154 155
f 153 155 156
v -0.613646 5.206094 1.368465
v 0.054587 5.206094 1.099163
v 0.041411 5.797756 0.833848
v -0.465525 5.797756 1.038146
f 157 158 159
f 157 159 160
v 1.131823 5.797756 -0.115917
v 0.701428 5.797756 -0.452787
v 0.350714 6.231642 -0.226393
v 0.565912 6.231642 -0.057958
f 161 162 163
f 161 163 164
v 0.271033 5.797756 -0.789657
v -0.159363 5.797756 -1.126527
v -0.079681 6.231642 -0.563264
v 0.135516 6.231642 -0.394829
f 165 166 167
f 165 167 168
v -0.159363 5.797756 -1.126527
v -0.589758 5.797756 -1.463397
v -0.294879 6.231642 -0.731699
v -0.079681 6.231642 -0.563264
f 169 170 171
f 169 171 172
v -0.589758 5.797756 -1.463397
v -0.666298 5.797756 -0.922229
v -0.333149 6.231642 -0.461115
v -0.294879 6.231642 -0.731699
f 173 174 175
f 173 175 176
v -0.742839 5.797756 -0.381061
v -0.819379 5.797756 0.160108
v -0.409690 6.231642 0.080054
v -0.371419 6.231642 -0.190530
f 177 178 179
f 177 179 180
v -0.819379 5.797756 0.160108
v -0.895920 5.797756 0.701276
v -0.447960 6.231642 0.350638
v -0.409690 6.231642 0.080054
f 181 182 183
f 181 183 184
v -0.972460 5.797756 1.242444
v -0.465525 5.797756 1.038146
v -0.232762 6.231642 0.519073
v -0.486230 6.231642 0.621222
f 185 186 187
f 185 187 188
v -0.465525 5.797756 1.038146
v 0.041411 5.797756 0.833848
v 0.020706 6.231642 0.416924
v -0.232762 6.231642 0.519073
f 189 190 191
f 189 191 192
v 1.055283 5.797756 0.425251
v 1.562218 5.797756 0.220953
v 0.781109 6.231642 0.110477
v 0.527641 6.231642 0.212626
f 193 194 195
f 193 195 196
v 0.781109 6.231642 0.110477
v 0.565912 6.231642 -0.057958
v 0.000000 6.428862 -0.000000
v 0.000000 6.428862 0.000000
f 197 198 199
v 0.565912 6.231642 -0.057958
v 0.350714 6.231642 -0.226393
v 0.000000 6.428862 -0.000000
v 0.000000 6.428862 -0.000000
f 201 202 203
v 0.350714 6.231642 -0.226393
v 0.135516 6.231642 -0.394829
v 0.000000 6.428862 -0.000000
v 0.000000 6.428862 -0.000000
f 205 206 207
v -0.232762 6.231642 0.519073
v 0.020706 6.231642 0.416924
v 0.000000 6.428862 0.000000
v -0.000000 6.428862 0.000000
f 209 210 211
v 0.020706 6.231642 0.416924
v 0.274173 6.231642 0.314775
v 0.000000 6.428862 0.000000
v 0.000000 6.428862 0.000000
f 213 214 215
v 0.274173 6.231642 0.314775
v 0.527641 6.231642 0.212626
v 0.000000 6.428862 0.000000
v 0.000000 6.428862 0.000000
f 217 218 219
