o mesh
v 0.000000 0.000000 0.015000
v 0.010607 0.000000 0.010607
v 0.015000 0.000000 0.000000
v 0.010607 0.000000 -0.010607
v 0.000000 0.000000 -0.015000
v -0.010607 0.000000 -0.010607
v -0.015000 0.000000 -0.000000
v -0.010607 0.000000 0.010607
v 0.000000 0.040000 0.012000
v 0.008485 0.040000 0.008485
v 0.012000 0.040000 0.000000
v 0.008485 0.040000 -0.008485
v 0.000000 0.040000 -0.012000
v -0.008485 0.040000 -0.008485
v -0.012000 0.040000 -0.000000
v -0.008485 0.040000 0.008485
f 1 2 10
f 1 10 9
f 2 3 11
f 2 11 10
f 3 4 12
f 3 12 11
f 4 5 13
f 4 13 12
f 5 6 14
f 5 14 13
f 6 7 15
f 6 15 14
f 7 8 16
f 7 16 15
f 8 1 9
f 8 9 16
v 0.000000 0.040000 -0.000000
v 0.001192 0.031708 0.010024
v 0.004958 0.023415 0.020479
v 0.010234 0.015123 0.031186
v 0.016401 0.006831 0.042042
v 0.022930 -0.001462 0.052959
v 0.029335 -0.009754 0.063855
v 0.035169 -0.018046 0.074656
v 0.040036 -0.026339 0.085294
v 0.043599 -0.034631 0.095715
v 0.045594 -0.042923 0.105874
v 0.045839 -0.051216 0.115740
v 0.044240 -0.059508 0.125297
v 0.040799 -0.067800 0.134547
v 0.035607 -0.076093 0.143504
v 0.028848 -0.084385 0.152198
v 0.020784 -0.092677 0.160675
v 0.011754 -0.100970 0.168990
v 0.002153 -0.109262 0.177209
v -0.007572 -0.117554 0.185408
v -0.016936 -0.125847 0.193667
v -0.025408 -0.134139 0.202075
v -0.032371 -0.142431 0.210736
v -0.036760 -0.150724 0.219827
v -0.037952 -0.142431 0.209803
v -0.041718 -0.134139 0.199348
v -0.046994 -0.125847 0.188641
v -0.053161 -0.117554 0.177784
v -0.059690 -0.109262 0.166868
v -0.066094 -0.100970 0.155972
v -0.071928 -0.092677 0.145171
v -0.076795 -0.084385 0.134533
v -0.080358 -0.076093 0.124112
v -0.082353 -0.067800 0.113953
v -0.082598 -0.059508 0.104087
v -0.081000 -0.051216 0.094530
v -0.077559 -0.042923 0.085280
v -0.072367 -0.034631 0.076323
v -0.065607 -0.026339 0.067629
v -0.057544 -0.018046 0.059152
v -0.048513 -0.009754 0.050837
v -0.038913 -0.001462 0.042618
v -0.029187 0.006831 0.034419
v -0.019824 0.015123 0.026160
v -0.011351 0.023415 0.017752
v -0.004388 0.031708 0.009091
f 17 18 19
f 17 19 18
f 17 19 20
f 17 20 19
f 17 20 21
f 17 21 20
f 17 21 22
f 17 22 21
f 17 22 23
f 17 23 22
f 17 23 24
f 17 24 23
f 17 24 25
f 17 25 24
f 17 25 26
f 17 26 25
f 17 26 27
f 17 27 26
f 17 27 28
f 17 28 27
f 17 28 29
f 17 29 28
f 17 29 30
f 17 30 29
f 17 30 31
f 17 31 30
f 17 31 32
f 17 32 31
f 17 32 33
f 17 33 32
f 17 33 34
f 17 34 33
f 17 34 35
f 17 35 34
f 17 35 36
f 17 36 35
f 17 36 37
f 17 37 36
f 17 37 38
f 17 38 37
f 17 38 39
f 17 39 38
f 17 39 40
f 17 40 39
f 17 40 41
f 17 41 40
f 17 41 42
f 17 42 41
f 17 42 43
f 17 43 42
f 17 43 44
f 17 44 43
f 17 44 45
f 17 45 44
f 17 45 46
f 17 46 45
f 17 46 47
f 17 47 46
f 17 47 48
f 17 48 47
f 17 48 49
f 17 49 48
f 17 49 50
f 17 50 49
f 17 50 51
f 17 51 50
f 17 51 52
f 17 52 51
f 17 52 53
f 17 53 52
f 17 53 54
f 17 54 53
f 17 54 55
f 17 55 54
f 17 55 56
f 17 56 55
f 17 56 57
f 17 57 56
f 17 57 58
f 17 58 57
f 17 58 59
f 17 59 58
f 17 59 60
f 17 60 59
f 17 60 61
f 17 61 60
f 17 61 62
f 17 62 61
v 0.000000 0.040000 -0.000000
v 0.010905 0.028194 0.005237
v 0.023935 0.016387 0.009010
v 0.037810 0.004581 0.012201
v 0.051975 -0.007225 0.015191
v 0.066013 -0.019032 0.018270
v 0.079573 -0.030838 0.021677
v 0.092351 -0.042644 0.025623
v 0.104090 -0.054450 0.030287
v 0.114575 -0.066257 0.035813
v 0.123644 -0.078063 0.042316
v 0.131187 -0.089869 0.049872
v 0.137146 -0.101676 0.058518
v 0.141523 -0.113482 0.068255
v 0.144373 -0.125288 0.079045
v 0.145807 -0.137095 0.090810
v 0.145989 -0.148901 0.103440
v 0.145130 -0.160707 0.116786
v 0.143489 -0.172514 0.130671
v 0.141370 -0.184320 0.144886
v 0.139125 -0.196126 0.159187
v 0.137169 -0.207933 0.173289
v 0.136059 -0.219739 0.186809
v 0.137073 -0.231545 0.198864
v 0.126168 -0.219739 0.193627
v 0.113138 -0.207933 0.189854
v 0.099263 -0.196126 0.186663
v 0.085098 -0.184320 0.183673
v 0.071060 -0.172514 0.180595
v 0.057500 -0.160707 0.177187
v 0.044722 -0.148901 0.173241
v 0.032984 -0.137095 0.168578
v 0.022498 -0.125288 0.163051
v 0.013429 -0.113482 0.156548
v 0.005886 -0.101676 0.148993
v -0.000073 -0.089869 0.140346
v -0.004450 -0.078063 0.130609
v -0.007300 -0.066257 0.119819
v -0.008734 -0.054450 0.108054
v -0.008916 -0.042644 0.095425
v -0.008056 -0.030838 0.082078
v -0.006416 -0.019032 0.068193
v -0.004297 -0.007225 0.053979
v -0.002052 0.004581 0.039677
v -0.000096 0.016387 0.025575
v 0.001014 0.028194 0.012055
f 63 64 65
f 63 65 64
f 63 65 66
f 63 66 65
f 63 66 67
f 63 67 66
f 63 67 68
f 63 68 67
f 63 68 69
f 63 69 68
f 63 69 70
f 63 70 69
f 63 70 71
f 63 71 70
f 63 71 72
f 63 72 71
f 63 72 73
f 63 73 72
f 63 73 74
f 63 74 73
f 63 74 75
f 63 75 74
f 63 75 76
f 63 76 75
f 63 76 77
f 63 77 76
f 63 77 78
f 63 78 77
f 63 78 79
f 63 79 78
f 63 79 80
f 63 80 79
f 63 80 81
f 63 81 80
f 63 81 82
f 63 82 81
f 63 82 83
f 63 83 82
f 63 83 84
f 63 84 83
f 63 84 85
f 63 85 84
f 63 85 86
f 63 86 85
f 63 86 87
f 63 87 86
f 63 87 88
f 63 88 87
f 63 88 89
f 63 89 88
f 63 89 90
f 63 90 89
f 63 90 91
f 63 91 90
f 63 91 92
f 63 92 91
f 63 92 93
f 63 93 92
f 63 93 94
f 63 94 93
f 63 94 95
f 63 95 94
f 63 95 96
f 63 96 95
f 63 96 97
f 63 97 96
f 63 97 98
f 63 98 97
f 63 98 99
f 63 99 98
f 63 99 100
f 63 100 99
f 63 100 101
f 63 101 100
f 63 101 102
f 63 102 101
f 63 102 103
f 63 103 102
f 63 103 104
f 63 104 103
f 63 104 105
f 63 105 104
f 63 105 106
f 63 106 105
f 63 106 107
f 63 107 106
f 63 107 108
f 63 108 107
v 0.000000 0.040000 -0.000000
v 0.006090 0.030033 -0.001714
v 0.012494 0.020067 -0.005772
v 0.019084 0.010100 -0.011220
v 0.025785 0.000133 -0.017496
v 0.032533 -0.009833 -0.024117
v 0.039267 -0.019800 -0.030638
v 0.045932 -0.029767 -0.036648
v 0.052481 -0.039733 -0.041780
v 0.058869 -0.049700 -0.045726
v 0.065067 -0.059667 -0.048240
v 0.071049 -0.069633 -0.049154
v 0.076806 -0.079600 -0.048383
v 0.082337 -0.089567 -0.045926
v 0.087654 -0.099533 -0.041869
v 0.092778 -0.109500 -0.036380
v 0.097744 -0.119467 -0.029704
v 0.102592 -0.129433 -0.022152
v 0.107372 -0.139400 -0.014089
v 0.112138 -0.149367 -0.005924
v 0.116950 -0.159333 0.001895
v 0.121874 -0.169300 0.008886
v 0.126983 -0.179267 0.014486
v 0.132407 -0.189233 0.017743
v 0.126317 -0.179267 0.019458
v 0.119913 -0.169300 0.023515
v 0.113323 -0.159333 0.028963
v 0.106622 -0.149367 0.035239
v 0.099874 -0.139400 0.041861
v 0.093140 -0.129433 0.048381
v 0.086475 -0.119467 0.054391
v 0.079927 -0.109500 0.059524
v 0.073538 -0.099533 0.063469
v 0.067341 -0.089567 0.065984
v 0.061358 -0.079600 0.066898
v 0.055601 -0.069633 0.066126
v 0.050070 -0.059667 0.063669
v 0.044753 -0.049700 0.059612
v 0.039629 -0.039733 0.054124
v 0.034663 -0.029767 0.047448
v 0.029815 -0.019800 0.039895
v 0.025035 -0.009833 0.031832
v 0.020269 0.000133 0.023668
v 0.015457 0.010100 0.015848
v 0.010533 0.020067 0.008858
v 0.005424 0.030033 0.003257
f 109 110 111
f 109 111 110
f 109 111 112
f 109 112 111
f 109 112 113
f 109 113 112
f 109 113 114
f 109 114 113
f 109 114 115
f 109 115 114
f 109 115 116
f 109 116 115
f 109 116 117
f 109 117 116
f 109 117 118
f 109 118 117
f 109 118 119
f 109 119 118
f 109 119 120
f 109 120 119
f 109 120 121
f 109 121 120
f 109 121 122
f 109 122 121
f 109 122 123
f 109 123 122
f 109 123 124
f 109 124 123
f 109 124 125
f 109 125 124
f 109 125 126
f 109 126 125
f 109 126 127
f 109 127 126
f 109 127 128
f 109 128 127
f 109 128 129
f 109 129 128
f 109 129 130
f 109 130 129
f 109 130 131
f 109 131 130
f 109 131 132
f 109 132 131
f 109 132 133
f 109 133 132
f 109 133 134
f 109 134 133
f 109 134 135
f 109 135 134
f 109 135 136
f 109 136 135
f 109 136 137
f 109 137 136
f 109 137 138
f 109 138 137
f 109 138 139
f 109 139 138
f 109 139 140
f 109 140 139
f 109 140 141
f 109 141 140
f 109 141 142
f 109 142 141
f 109 142 143
f 109 143 142
f 109 143 144
f 109 144 143
f 109 144 145
f 109 145 144
f 109 145 146
f 109 146 145
f 109 146 147
f 109 147 146
f 109 147 148
f 109 148 147
f 109 148 149
f 109 149 148
f 109 149 150
f 109 150 149
f 109 150 151
f 109 151 150
f 109 151 152
f 109 152 151
f 109 152 153
f 109 153 152
f 109 153 154
f 109 154 153
v 0.000000 0.040000 -0.000000
v 0.007372 0.029687 -0.008163
v 0.012987 0.019374 -0.018779
v 0.017367 0.009061 -0.031119
v 0.020905 -0.001252 -0.044633
v 0.023986 -0.011565 -0.058786
v 0.026988 -0.021878 -0.073048
v 0.030281 -0.032191 -0.086905
v 0.034202 -0.042504 -0.099884
v 0.039047 -0.052817 -0.111575
v 0.045051 -0.063130 -0.121647
v 0.052379 -0.073443 -0.129872
v 0.061115 -0.083756 -0.136132
v 0.071260 -0.094069 -0.140426
v 0.082728 -0.104382 -0.142873
v 0.095355 -0.114695 -0.143701
v 0.108907 -0.125008 -0.143241
v 0.123087 -0.135321 -0.141903
v 0.137556 -0.145634 -0.140160
v 0.151948 -0.155947 -0.138526
v 0.165882 -0.166260 -0.137531
v 0.178975 -0.176573 -0.137711
v 0.190833 -0.186886 -0.139614
v 0.200933 -0.197199 -0.143970
v 0.193560 -0.186886 -0.135807
v 0.187946 -0.176573 -0.125191
v 0.183566 -0.166260 -0.112851
v 0.180028 -0.155947 -0.099337
v 0.176947 -0.145634 -0.085184
v 0.173945 -0.135321 -0.070922
v 0.170652 -0.125008 -0.057065
v 0.166731 -0.114695 -0.044085
v 0.161886 -0.104382 -0.032395
v 0.155882 -0.094069 -0.022322
v 0.148554 -0.083756 -0.014097
v 0.139818 -0.073443 -0.007838
v 0.129673 -0.063130 -0.003544
v 0.118205 -0.052817 -0.001097
v 0.105577 -0.042504 -0.000268
v 0.092026 -0.032191 -0.000729
v 0.077846 -0.021878 -0.002067
v 0.063377 -0.011565 -0.003810
v 0.048984 -0.001252 -0.005444
v 0.035050 0.009061 -0.006438
v 0.021958 0.019374 -0.006259
v 0.010100 0.029687 -0.004356
f 155 156 157
f 155 157 156
f 155 157 158
f 155 158 157
f 155 158 159
f 155 159 158
f 155 159 160
f 155 160 159
f 155 160 161
f 155 161 160
f 155 161 162
f 155 162 161
f 155 162 163
f 155 163 162
f 155 163 164
f 155 164 163
f 155 164 165
f 155 165 164
f 155 165 166
f 155 166 165
f 155 166 167
f 155 167 166
f 155 167 168
f 155 168 167
f 155 168 169
f 155 169 168
f 155 169 170
f 155 170 169
f 155 170 171
f 155 171 170
f 155 171 172
f 155 172 171
f 155 172 173
f 155 173 172
f 155 173 174
f 155 174 173
f 155 174 175
f 155 175 174
f 155 175 176
f 155 176 175
f 155 176 177
f 155 177 176
f 155 177 178
f 155 178 177
f 155 178 179
f 155 179 178
f 155 179 180
f 155 180 179
f 155 180 181
f 155 181 180
f 155 181 182
f 155 182 181
f 155 182 183
f 155 183 182
f 155 183 184
f 155 184 183
f 155 184 185
f 155 185 184
f 155 185 186
f 155 186 185
f 155 186 187
f 155 187 186
f 155 187 188
f 155 188 187
f 155 188 189
f 155 189 188
f 155 189 190
f 155 190 189
f 155 190 191
f 155 191 190
f 155 191 192
f 155 192 191
f 155 192 193
f 155 193 192
f 155 193 194
f 155 194 193
f 155 194 195
f 155 195 194
f 155 195 196
f 155 196 195
f 155 196 197
f 155 197 196
f 155 197 198
f 155 198 197
f 155 198 199
f 155 199 198
f 155 199 200
f 155 200 199
v 0.000000 0.040000 -0.000000
v -0.002802 0.030712 -0.005904
v -0.007737 0.021424 -0.011906
v -0.013755 0.012136 -0.017957
v -0.020326 0.002847 -0.024034
v -0.027027 -0.006441 -0.030117
v -0.033487 -0.015729 -0.036189
v -0.039374 -0.025017 -0.042234
v -0.044399 -0.034305 -0.048240
v -0.048323 -0.043593 -0.054195
v -0.050957 -0.052881 -0.060092
v -0.052175 -0.062170 -0.065923
v -0.051911 -0.071458 -0.071687
v -0.050164 -0.080746 -0.077382
v -0.047001 -0.090034 -0.083012
v -0.042549 -0.099322 -0.088584
v -0.036995 -0.108610 -0.094105
v -0.030580 -0.117898 -0.099586
v -0.023592 -0.127186 -0.105041
v -0.016362 -0.136475 -0.110485
v -0.009262 -0.145763 -0.115935
v -0.002715 -0.155051 -0.121410
v 0.002748 -0.164339 -0.126935
v 0.006079 -0.173627 -0.132558
v 0.008880 -0.164339 -0.126654
v 0.013816 -0.155051 -0.120652
v 0.019834 -0.145763 -0.114601
v 0.026405 -0.136475 -0.108524
v 0.033106 -0.127186 -0.102441
v 0.039566 -0.117898 -0.096369
v 0.045452 -0.108610 -0.090324
v 0.050478 -0.099322 -0.084318
v 0.054401 -0.090034 -0.078362
v 0.057036 -0.080746 -0.072466
v 0.058253 -0.071458 -0.066635
v 0.057989 -0.062170 -0.060871
v 0.056243 -0.052881 -0.055176
v 0.053080 -0.043593 -0.049546
v 0.048628 -0.034305 -0.043974
v 0.043074 -0.025017 -0.038453
v 0.036658 -0.015729 -0.032972
v 0.029670 -0.006441 -0.027517
v 0.022440 0.002847 -0.022073
v 0.015341 0.012136 -0.016623
v 0.008794 0.021424 -0.011148
v 0.003330 0.030712 -0.005623
f 201 202 203
f 201 203 202
f 201 203 204
f 201 204 203
f 201 204 205
f 201 205 204
f 201 205 206
f 201 206 205
f 201 206 207
f 201 207 206
f 201 207 208
f 201 208 207
f 201 208 209
f 201 209 208
f 201 209 210
f 201 210 209
f 201 210 211
f 201 211 210
f 201 211 212
f 201 212 211
f 201 212 213
f 201 213 212
f 201 213 214
f 201 214 213
f 201 214 215
f 201 215 214
f 201 215 216
f 201 216 215
f 201 216 217
f 201 217 216
f 201 217 218
f 201 218 217
f 201 218 219
f 201 219 218
f 201 219 220
f 201 220 219
f 201 220 221
f 201 221 220
f 201 221 222
f 201 222 221
f 201 222 223
f 201 223 222
f 201 223 224
f 201 224 223
f 201 224 225
f 201 225 224
f 201 225 226
f 201 226 225
f 201 226 227
f 201 227 226
f 201 227 228
f 201 228 227
f 201 228 229
f 201 229 228
f 201 229 230
f 201 230 229
f 201 230 231
f 201 231 230
f 201 231 232
f 201 232 231
f 201 232 233
f 201 233 232
f 201 233 234
f 201 234 233
f 201 234 235
f 201 235 234
f 201 235 236
f 201 236 235
f 201 236 237
f 201 237 236
f 201 237 238
f 201 238 237
f 201 238 239
f 201 239 238
f 201 239 240
f 201 240 239
f 201 240 241
f 201 241 240
f 201 241 242
f 201 242 241
f 201 242 243
f 201 243 242
f 201 243 244
f 201 244 243
f 201 244 245
f 201 245 244
f 201 245 246
f 201 246 245
v 0.000000 0.040000 -0.000000
v -0.008103 0.029343 -0.002722
v -0.017898 0.018686 -0.003286
v -0.028704 0.008029 -0.002560
v -0.040119 -0.002627 -0.001058
v -0.051793 -0.013284 0.000774
v -0.063400 -0.023941 0.002522
v -0.074644 -0.034598 0.003806
v -0.085257 -0.045255 0.004285
v -0.095013 -0.055912 0.003671
v -0.103733 -0.066569 0.001736
v -0.111294 -0.077226 -0.001676
v -0.117634 -0.087882 -0.006647
v -0.122753 -0.098539 -0.013176
v -0.126713 -0.109196 -0.021182
v -0.129637 -0.119853 -0.030510
v -0.131704 -0.130510 -0.040930
v -0.133141 -0.141167 -0.052156
v -0.134213 -0.151824 -0.063845
v -0.135220 -0.162481 -0.075618
v -0.136485 -0.173137 -0.087062
v -0.138359 -0.183794 -0.097730
v -0.141244 -0.194451 -0.107106
v -0.145821 -0.205108 -0.114326
v -0.137718 -0.194451 -0.111604
v -0.127923 -0.183794 -0.111039
v -0.117117 -0.173137 -0.111766
v -0.105702 -0.162481 -0.113268
v -0.094029 -0.151824 -0.115100
v -0.082421 -0.141167 -0.116848
v -0.071177 -0.130510 -0.118132
v -0.060564 -0.119853 -0.118611
v -0.050809 -0.109196 -0.117997
v -0.042088 -0.098539 -0.116062
v -0.034527 -0.087882 -0.112649
v -0.028187 -0.077226 -0.107679
v -0.023068 -0.066569 -0.101150
v -0.019108 -0.055912 -0.093144
v -0.016184 -0.045255 -0.083816
v -0.014117 -0.034598 -0.073396
v -0.012680 -0.023941 -0.062170
v -0.011608 -0.013284 -0.050481
v -0.010601 -0.002627 -0.038708
v -0.009336 0.008029 -0.027264
v -0.007463 0.018686 -0.016596
v -0.004577 0.029343 -0.007220
f 247 248 249
f 247 249 248
f 247 249 250
f 247 250 249
f 247 250 251
f 247 251 250
f 247 251 252
f 247 252 251
f 247 252 253
f 247 253 252
f 247 253 254
f 247 254 253
f 247 254 255
f 247 255 254
f 247 255 256
f 247 256 255
f 247 256 257
f 247 257 256
f 247 257 258
f 247 258 257
f 247 258 259
f 247 259 258
f 247 259 260
f 247 260 259
f 247 260 261
f 247 261 260
f 247 261 262
f 247 262 261
f 247 262 263
f 247 263 262
f 247 263 264
f 247 264 263
f 247 264 265
f 247 265 264
f 247 265 266
f 247 266 265
f 247 266 267
f 247 267 266
f 247 267 268
f 247 268 267
f 247 268 269
f 247 269 268
f 247 269 270
f 247 270 269
f 247 270 271
f 247 271 270
f 247 271 272
f 247 272 271
f 247 272 273
f 247 273 272
f 247 273 274
f 247 274 273
f 247 274 275
f 247 275 274
f 247 275 276
f 247 276 275
f 247 276 277
f 247 277 276
f 247 277 278
f 247 278 277
f 247 278 279
f 247 279 278
f 247 279 280
f 247 280 279
f 247 280 281
f 247 281 280
f 247 281 282
f 247 282 281
f 247 282 283
f 247 283 282
f 247 283 284
f 247 284 283
f 247 284 285
f 247 285 284
f 247 285 286
f 247 286 285
f 247 286 287
f 247 287 286
f 247 287 288
f 247 288 287
f 247 288 289
f 247 289 288
f 247 289 290
f 247 290 289
f 247 290 291
f 247 291 290
f 247 291 292
f 247 292 291
v 0.000000 0.040000 -0.000000
v -0.010379 0.030793 0.003351
v -0.020638 0.021585 0.009570
v -0.030824 0.012378 0.017529
v -0.040966 0.003170 0.026547
v -0.051089 -0.006037 0.036026
v -0.061216 -0.015245 0.045412
v -0.071368 -0.024452 0.054194
v -0.081564 -0.033660 0.061911
v -0.091821 -0.042867 0.068173
v -0.102152 -0.052075 0.072672
v -0.112565 -0.061282 0.075195
v -0.123065 -0.070489 0.075633
v -0.133653 -0.079697 0.073986
v -0.144322 -0.088904 0.070364
v -0.155065 -0.098112 0.064978
v -0.165869 -0.107319 0.058137
v -0.176718 -0.116527 0.050232
v -0.187591 -0.125734 0.041722
v -0.198469 -0.134942 0.033119
v -0.209327 -0.144149 0.024978
v -0.220141 -0.153357 0.017895
v -0.230882 -0.162564 0.012552
v -0.241504 -0.171772 0.010078
v -0.231125 -0.162564 0.006726
v -0.220866 -0.153357 0.000507
v -0.210680 -0.144149 -0.007452
v -0.200538 -0.134942 -0.016469
v -0.190415 -0.125734 -0.025948
v -0.180288 -0.116527 -0.035335
v -0.170136 -0.107319 -0.044116
v -0.159940 -0.098112 -0.051833
v -0.149683 -0.088904 -0.058095
v -0.139352 -0.079697 -0.062594
v -0.128939 -0.070489 -0.065117
v -0.118439 -0.061282 -0.065555
v -0.107851 -0.052075 -0.063909
v -0.097182 -0.042867 -0.060286
v -0.086439 -0.033660 -0.054901
v -0.075635 -0.024452 -0.048060
v -0.064786 -0.015245 -0.040154
v -0.053913 -0.006037 -0.031644
v -0.043035 0.003170 -0.023041
v -0.032177 0.012378 -0.014900
v -0.021363 0.021585 -0.007818
v -0.010622 0.030793 -0.002475
f 293 294 295
f 293 295 294
f 293 295 296
f 293 296 295
f 293 296 297
f 293 297 296
f 293 297 298
f 293 298 297
f 293 298 299
f 293 299 298
f 293 299 300
f 293 300 299
f 293 300 301
f 293 301 300
f 293 301 302
f 293 302 301
f 293 302 303
f 293 303 302
f 293 303 304
f 293 304 303
f 293 304 305
f 293 305 304
f 293 305 306
f 293 306 305
f 293 306 307
f 293 307 306
f 293 307 308
f 293 308 307
f 293 308 309
f 293 309 308
f 293 309 310
f 293 310 309
f 293 310 311
f 293 311 310
f 293 311 312
f 293 312 311
f 293 312 313
f 293 313 312
f 293 313 314
f 293 314 313
f 293 314 315
f 293 315 314
f 293 315 316
f 293 316 315
f 293 316 317
f 293 317 316
f 293 317 318
f 293 318 317
f 293 318 319
f 293 319 318
f 293 319 320
f 293 320 319
f 293 320 321
f 293 321 320
f 293 321 322
f 293 322 321
f 293 322 323
f 293 323 322
f 293 323 324
f 293 324 323
f 293 324 325
f 293 325 324
f 293 325 326
f 293 326 325
f 293 326 327
f 293 327 326
f 293 327 328
f 293 328 327
f 293 328 329
f 293 329 328
f 293 329 330
f 293 330 329
f 293 330 331
f 293 331 330
f 293 331 332
f 293 332 331
f 293 332 333
f 293 333 332
f 293 333 334
f 293 334 333
f 293 334 335
f 293 335 334
f 293 335 336
f 293 336 335
f 293 336 337
f 293 337 336
f 293 337 338
f 293 338 337
v 0.000000 0.040000 -0.000000
v -0.006644 0.027198 0.008827
v -0.011139 0.014395 0.020261
v -0.014112 0.001593 0.033542
v -0.016044 -0.011210 0.048087
v -0.017404 -0.024012 0.063327
v -0.018659 -0.036815 0.078693
v -0.020264 -0.049617 0.093636
v -0.022636 -0.062420 0.107647
v -0.026140 -0.075222 0.120283
v -0.031069 -0.088025 0.131191
v -0.037625 -0.100827 0.140124
v -0.045914 -0.113630 0.146954
v -0.055936 -0.126432 0.151682
v -0.067585 -0.139235 0.154434
v -0.080659 -0.152037 0.155458
v -0.094865 -0.164840 0.155107
v -0.109838 -0.177642 0.153825
v -0.125161 -0.190445 0.152119
v -0.140379 -0.203247 0.150540
v -0.155026 -0.216050 0.149655
v -0.168630 -0.228852 0.150034
v -0.180713 -0.241655 0.152260
v -0.190647 -0.254457 0.157093
v -0.184003 -0.241655 0.148267
v -0.179508 -0.228852 0.136832
v -0.176535 -0.216050 0.123551
v -0.174603 -0.203247 0.109006
v -0.173243 -0.190445 0.093767
v -0.171988 -0.177642 0.078401
v -0.170384 -0.164840 0.063458
v -0.168012 -0.152037 0.049447
v -0.164507 -0.139235 0.036810
v -0.159578 -0.126432 0.025902
v -0.153022 -0.113630 0.016970
v -0.144733 -0.100827 0.010139
v -0.134711 -0.088025 0.005412
v -0.123062 -0.075222 0.002660
v -0.109988 -0.062420 0.001636
v -0.095783 -0.049617 0.001987
v -0.080809 -0.036815 0.003269
v -0.065486 -0.024012 0.004975
v -0.050268 -0.011210 0.006554
v -0.035622 0.001593 0.007439
v -0.022017 0.014395 0.007059
v -0.009934 0.027198 0.004834
f 339 340 341
f 339 341 340
f 339 341 342
f 339 342 341
f 339 342 343
f 339 343 342
f 339 343 344
f 339 344 343
f 339 344 345
f 339 345 344
f 339 345 346
f 339 346 345
f 339 346 347
f 339 347 346
f 339 347 348
f 339 348 347
f 339 348 349
f 339 349 348
f 339 349 350
f 339 350 349
f 339 350 351
f 339 351 350
f 339 351 352
f 339 352 351
f 339 352 353
f 339 353 352
f 339 353 354
f 339 354 353
f 339 354 355
f 339 355 354
f 339 355 356
f 339 356 355
f 339 356 357
f 339 357 356
f 339 357 358
f 339 358 357
f 339 358 359
f 339 359 358
f 339 359 360
f 339 360 359
f 339 360 361
f 339 361 360
f 339 361 362
f 339 362 361
f 339 362 363
f 339 363 362
f 339 363 364
f 339 364 363
f 339 364 365
f 339 365 364
f 339 365 366
f 339 366 365
f 339 366 367
f 339 367 366
f 339 367 368
f 339 368 367
f 339 368 369
f 339 369 368
f 339 369 370
f 339 370 369
f 339 370 371
f 339 371 370
f 339 371 372
f 339 372 371
f 339 372 373
f 339 373 372
f 339 373 374
f 339 374 373
f 339 374 375
f 339 375 374
f 339 375 376
f 339 376 375
f 339 376 377
f 339 377 376
f 339 377 378
f 339 378 377
f 339 378 379
f 339 379 378
f 339 379 380
f 339 380 379
f 339 380 381
f 339 381 380
f 339 381 382
f 339 382 381
f 339 382 383
f 339 383 382
f 339 383 384
f 339 384 383
