o mesh
v 0.027861 0.000000 -0.005676
v 0.018300 0.019027 -0.006364
v -0.000763 0.028175 -0.003747
v -0.019331 0.019027 0.001302
v -0.027861 0.000000 0.005676
v -0.018300 -0.019027 0.006364
v 0.000763 -0.028175 0.003747
v 0.019331 -0.019027 -0.001302
v 0.142834 0.085930 0.616965
v 0.137186 0.097170 0.616558
v 0.125925 0.102573 0.618104
v 0.114956 0.097170 0.621087
v 0.109918 0.085930 0.623671
v 0.115566 0.074690 0.624077
v 0.126827 0.069286 0.622532
v 0.137795 0.074690 0.619548
f 1 2 10
f 1 10 9
f 2 3 11
f 2 11 10
f 3 4 12
f 3 12 11
f 4 5 13
f 4 13 12
f 5 6 14
f 5 14 13
f 6 7 15
f 6 15 14
f 7 8 16
f 7 16 15
f 8 1 9
f 8 9 16
v 0.052240 0.029816 0.211908
v 0.045739 0.034519 0.207772
v 0.037350 0.034519 0.211106
v 0.035462 0.029816 0.218576
v 0.041963 0.025113 0.222713
v 0.050352 0.025113 0.219379
v 0.092742 0.187507 0.323595
v 0.088841 0.190329 0.321113
v 0.083808 0.190329 0.323114
v 0.082675 0.187507 0.327596
v 0.086576 0.184686 0.330078
v 0.091609 0.184686 0.328078
f 17 18 24
f 17 24 23
f 18 19 25
f 18 25 24
f 19 20 26
f 19 26 25
f 20 21 27
f 20 27 26
f 21 22 28
f 21 28 27
f 22 17 23
f 22 23 28
