o part_0
v 0.000000 -0.035000 0.000000
v 0.016490 -0.022697 0.000000
v 0.028878 -0.009383 0.000000
v 0.028878 0.009383 0.000000
v 0.016490 0.022697 0.000000
v 0.000000 0.035000 0.000000
v -0.016490 0.022697 0.000000
v -0.028878 0.009383 0.000000
v -0.028878 -0.009383 0.000000
v -0.016490 -0.022697 0.000000
v 0.000000 -0.031500 0.600000
v 0.014841 -0.020427 0.600000
v 0.025990 -0.008445 0.600000
v 0.025990 0.008445 0.600000
v 0.014841 0.020427 0.600000
v 0.000000 0.031500 0.600000
v -0.014841 0.020427 0.600000
v -0.025990 0.008445 0.600000
v -0.025990 -0.008445 0.600000
v -0.014841 -0.020427 0.600000
f 1 2 12
f 1 12 11
f 2 3 13
f 2 13 12
f 3 4 14
f 3 14 13
f 4 5 15
f 4 15 14
f 5 6 16
f 5 16 15
f 6 7 17
f 6 17 16
f 7 8 18
f 7 18 17
f 8 9 19
f 8 19 18
f 9 10 20
f 9 20 19
f 10 1 11
f 10 11 20
o part_1
v 0.000000 -0.031486 0.600939
v 0.014764 -0.020373 0.602124
v 0.025854 -0.008362 0.602906
v 0.025854 0.008520 0.602402
v 0.014764 0.020464 0.600907
v 0.000000 0.031486 0.599061
v -0.014764 0.020373 0.597876
v -0.025854 0.008362 0.597094
v -0.025854 -0.008520 0.597598
v -0.014764 -0.020464 0.599093
v -0.046340 -0.014888 1.051899
v -0.033052 -0.004886 1.052965
v -0.023071 0.005924 1.053669
v -0.023071 0.021118 1.053215
v -0.033052 0.031867 1.051869
v -0.046340 0.041787 1.050209
v -0.059627 0.031786 1.049142
v -0.069609 0.020976 1.048439
v -0.069609 0.005782 1.048892
v -0.059627 -0.004967 1.050238
f 21 22 32
f 21 32 31
f 22 23 33
f 22 33 32
f 23 24 34
f 23 34 33
f 24 25 35
f 24 35 34
f 25 26 36
f 25 36 35
f 26 27 37
f 26 37 36
f 27 28 38
f 27 38 37
f 28 29 39
f 28 39 38
f 29 30 40
f 29 40 39
f 30 21 31
f 30 31 40
o part_2
v -0.046340 0.013450 1.051054
v -0.046966 0.007590 1.048491
v -0.046850 0.001600 1.046009
v -0.045391 -0.004629 1.043672
v -0.042239 -0.011157 1.041518
v -0.037365 -0.017990 1.039550
v -0.031079 -0.025073 1.037735
v -0.023991 -0.032298 1.036006
v -0.016918 -0.039520 1.034275
v -0.010760 -0.046580 1.032446
v -0.006357 -0.053330 1.030427
v -0.004357 -0.059654 1.028149
v -0.005112 -0.065491 1.025573
v -0.008622 -0.070840 1.022699
v -0.014535 -0.075764 1.019566
v -0.022203 -0.080377 1.016243
v -0.030785 -0.084828 1.012821
v -0.039383 -0.089276 1.009398
v -0.047178 -0.093867 1.006062
v -0.053562 -0.098707 1.002878
v -0.058224 -0.103852 0.999880
v -0.061193 -0.109297 0.997064
v -0.062818 -0.114979 0.994394
v -0.063702 -0.120793 0.991804
v -0.063076 -0.114934 0.994367
v -0.063191 -0.108943 0.996849
v -0.064650 -0.102715 0.999186
v -0.067802 -0.096186 1.001340
v -0.072676 -0.089353 1.003308
v -0.078962 -0.082270 1.005123
v -0.086050 -0.075046 1.006852
v -0.093123 -0.067823 1.008583
v -0.099281 -0.060763 1.010412
v -0.103684 -0.054013 1.012431
v -0.105684 -0.047689 1.014709
v -0.104929 -0.041852 1.017285
v -0.101419 -0.036503 1.020159
v -0.095507 -0.031580 1.023292
v -0.087839 -0.026967 1.026615
v -0.079256 -0.022516 1.030036
v -0.070658 -0.018067 1.033460
v -0.062863 -0.013477 1.036796
v -0.056479 -0.008636 1.039980
v -0.051817 -0.003491 1.042978
v -0.048848 0.001953 1.045794
v -0.047223 0.007636 1.048464
f 41 42 43
f 41 43 42
f 41 43 44
f 41 44 43
f 41 44 45
f 41 45 44
f 41 45 46
f 41 46 45
f 41 46 47
f 41 47 46
f 41 47 48
f 41 48 47
f 41 48 49
f 41 49 48
f 41 49 50
f 41 50 49
f 41 50 51
f 41 51 50
f 41 51 52
f 41 52 51
f 41 52 53
f 41 53 52
f 41 53 54
f 41 54 53
f 41 54 55
f 41 55 54
f 41 55 56
f 41 56 55
f 41 56 57
f 41 57 56
f 41 57 58
f 41 58 57
f 41 58 59
f 41 59 58
f 41 59 60
f 41 60 59
f 41 60 61
f 41 61 60
f 41 61 62
f 41 62 61
f 41 62 63
f 41 63 62
f 41 63 64
f 41 64 63
f 41 64 65
f 41 65 64
f 41 65 66
f 41 66 65
f 41 66 67
f 41 67 66
f 41 67 68
f 41 68 67
f 41 68 69
f 41 69 68
f 41 69 70
f 41 70 69
f 41 70 71
f 41 71 70
f 41 71 72
f 41 72 71
f 41 72 73
f 41 73 72
f 41 73 74
f 41 74 73
f 41 74 75
f 41 75 74
f 41 75 76
f 41 76 75
f 41 76 77
f 41 77 76
f 41 77 78
f 41 78 77
f 41 78 79
f 41 79 78
f 41 79 80
f 41 80 79
f 41 80 81
f 41 81 80
f 41 81 82
f 41 82 81
f 41 82 83
f 41 83 82
f 41 83 84
f 41 84 83
f 41 84 85
f 41 85 84
f 41 85 86
f 41 86 85
o part_3
v -0.046340 0.013450 1.051054
v -0.042649 0.017098 1.049950
v -0.039535 0.021350 1.048770
v -0.037290 0.026514 1.047473
v -0.036019 0.032696 1.046046
v -0.035648 0.039821 1.044498
v -0.035942 0.047643 1.042861
v -0.036544 0.055787 1.041183
v -0.037018 0.063798 1.039522
v -0.036915 0.071204 1.037938
v -0.035830 0.077581 1.036486
v -0.033458 0.082611 1.035206
v -0.029636 0.086122 1.034120
v -0.024363 0.088113 1.033229
v -0.017804 0.088757 1.032510
v -0.010262 0.088372 1.031923
v -0.002143 0.087382 1.031413
v 0.006103 0.086259 1.030920
v 0.014042 0.085458 1.030386
v 0.021315 0.085354 1.029763
v 0.027688 0.086192 1.029019
v 0.033089 0.088050 1.028145
v 0.037619 0.090819 1.027154
v 0.041573 0.094192 1.026087
v 0.037882 0.090544 1.027190
v 0.034768 0.086291 1.028370
v 0.032524 0.081128 1.029667
v 0.031252 0.074946 1.031094
v 0.030881 0.067821 1.032642
v 0.031176 0.059998 1.034279
v 0.031777 0.051854 1.035957
v 0.032251 0.043844 1.037618
v 0.032148 0.036438 1.039202
v 0.031063 0.030060 1.040654
v 0.028691 0.025031 1.041934
v 0.024869 0.021520 1.043020
v 0.019597 0.019529 1.043911
v 0.013037 0.018885 1.044630
v 0.005495 0.019270 1.045217
v -0.002623 0.020260 1.045727
v -0.010869 0.021383 1.046220
v -0.018809 0.022184 1.046754
v -0.026082 0.022288 1.047377
v -0.032455 0.021449 1.048121
v -0.037855 0.019591 1.048995
v -0.042386 0.016823 1.049986
f 87 88 89
f 87 89 88
f 87 89 90
f 87 90 89
f 87 90 91
f 87 91 90
f 87 91 92
f 87 92 91
f 87 92 93
f 87 93 92
f 87 93 94
f 87 94 93
f 87 94 95
f 87 95 94
f 87 95 96
f 87 96 95
f 87 96 97
f 87 97 96
f 87 97 98
f 87 98 97
f 87 98 99
f 87 99 98
f 87 99 100
f 87 100 99
f 87 100 101
f 87 101 100
f 87 101 102
f 87 102 101
f 87 102 103
f 87 103 102
f 87 103 104
f 87 104 103
f 87 104 105
f 87 105 104
f 87 105 106
f 87 106 105
f 87 106 107
f 87 107 106
f 87 107 108
f 87 108 107
f 87 108 109
f 87 109 108
f 87 109 110
f 87 110 109
f 87 110 111
f 87 111 110
f 87 111 112
f 87 112 111
f 87 112 113
f 87 113 112
f 87 113 114
f 87 114 113
f 87 114 115
f 87 115 114
f 87 115 116
f 87 116 115
f 87 116 117
f 87 117 116
f 87 117 118
f 87 118 117
f 87 118 119
f 87 119 118
f 87 119 120
f 87 120 119
f 87 120 121
f 87 121 120
f 87 121 122
f 87 122 121
f 87 122 123
f 87 123 122
f 87 123 124
f 87 124 123
f 87 124 125
f 87 125 124
f 87 125 126
f 87 126 125
f 87 126 127
f 87 127 126
f 87 127 128
f 87 128 127
f 87 128 129
f 87 129 128
f 87 129 130
f 87 130 129
f 87 130 131
f 87 131 130
f 87 131 132
f 87 132 131
o part_4
v -0.046340 0.013450 1.051054
v -0.049229 0.016701 1.047484
v -0.052636 0.019477 1.043876
v -0.056948 0.021422 1.040200
v -0.062376 0.022343 1.036439
v -0.068917 0.022243 1.032595
v -0.076355 0.021321 1.028683
v -0.084284 0.019947 1.024734
v -0.092177 0.018607 1.020788
v -0.099456 0.017831 1.016888
v -0.105587 0.018107 1.013074
v -0.110160 0.019812 1.009378
v -0.112955 0.023150 1.005816
v -0.113969 0.028121 1.002388
v -0.113427 0.034521 0.999078
v -0.111737 0.041973 0.995854
v -0.109433 0.049989 0.992676
v -0.107091 0.058039 0.989501
v -0.105242 0.065637 0.986289
v -0.104289 0.072414 0.983010
v -0.104450 0.078168 0.979647
v -0.105726 0.082899 0.976199
v -0.107908 0.086799 0.972683
v -0.110607 0.090224 0.969128
v -0.107718 0.086973 0.972697
v -0.104311 0.084197 0.976306
v -0.099999 0.082252 0.979982
v -0.094571 0.081331 0.983743
v -0.088029 0.081431 0.987587
v -0.080592 0.082353 0.991499
v -0.072662 0.083727 0.995448
v -0.064770 0.085067 0.999394
v -0.057491 0.085843 1.003294
v -0.051360 0.085567 1.007108
v -0.046786 0.083862 1.010804
v -0.043992 0.080524 1.014366
v -0.042977 0.075553 1.017794
v -0.043520 0.069153 1.021104
v -0.045210 0.061701 1.024328
v -0.047514 0.053685 1.027506
v -0.049855 0.045635 1.030680
v -0.051704 0.038037 1.033892
v -0.052657 0.031261 1.037172
v -0.052497 0.025506 1.040535
v -0.051220 0.020775 1.043983
v -0.049039 0.016875 1.047499
f 133 134 135
f 133 135 134
f 133 135 136
f 133 136 135
f 133 136 137
f 133 137 136
f 133 137 138
f 133 138 137
f 133 138 139
f 133 139 138
f 133 139 140
f 133 140 139
f 133 140 141
f 133 141 140
f 133 141 142
f 133 142 141
f 133 142 143
f 133 143 142
f 133 143 144
f 133 144 143
f 133 144 145
f 133 145 144
f 133 145 146
f 133 146 145
f 133 146 147
f 133 147 146
f 133 147 148
f 133 148 147
f 133 148 149
f 133 149 148
f 133 149 150
f 133 150 149
f 133 150 151
f 133 151 150
f 133 151 152
f 133 152 151
f 133 152 153
f 133 153 152
f 133 153 154
f 133 154 153
f 133 154 155
f 133 155 154
f 133 155 156
f 133 156 155
f 133 156 157
f 133 157 156
f 133 157 158
f 133 158 157
f 133 158 159
f 133 159 158
f 133 159 160
f 133 160 159
f 133 160 161
f 133 161 160
f 133 161 162
f 133 162 161
f 133 162 163
f 133 163 162
f 133 163 164
f 133 164 163
f 133 164 165
f 133 165 164
f 133 165 166
f 133 166 165
f 133 166 167
f 133 167 166
f 133 167 168
f 133 168 167
f 133 168 169
f 133 169 168
f 133 169 170
f 133 170 169
f 133 170 171
f 133 171 170
f 133 171 172
f 133 172 171
f 133 172 173
f 133 173 172
f 133 173 174
f 133 174 173
f 133 174 175
f 133 175 174
f 133 175 176
f 133 176 175
f 133 176 177
f 133 177 176
f 133 177 178
f 133 178 177
o part_5
v -0.046340 -0.014893 1.051709
v -0.033224 -0.004871 1.054007
v -0.023371 0.005954 1.055656
v -0.023371 0.021151 1.055305
v -0.033224 0.031888 1.053156
v -0.046340 0.041792 1.050398
v -0.059455 0.031771 1.048101
v -0.069308 0.020946 1.046451
v -0.069308 0.005749 1.046802
v -0.059455 -0.004988 1.048951
v -0.118671 -0.003383 1.426727
v -0.106867 0.005636 1.428795
v -0.097999 0.015379 1.430279
v -0.097999 0.029056 1.429963
v -0.106867 0.038720 1.428029
v -0.118671 0.047633 1.425547
v -0.130475 0.038614 1.423479
v -0.139343 0.028872 1.421994
v -0.139343 0.015195 1.422311
v -0.130475 0.005531 1.424244
f 179 180 190
f 179 190 189
f 180 181 191
f 180 191 190
f 181 182 192
f 181 192 191
f 182 183 193
f 182 193 192
f 183 184 194
f 183 194 193
f 184 185 195
f 184 195 194
f 185 186 196
f 185 196 195
f 186 187 197
f 186 197 196
f 187 188 198
f 187 198 197
f 188 179 189
f 188 189 198
o part_6
v -0.118671 0.022125 1.426137
v -0.117729 0.016547 1.424528
v -0.115987 0.011036 1.423071
v -0.112932 0.005635 1.421865
v -0.108328 0.000363 1.420955
v -0.102228 -0.004784 1.420330
v -0.094967 -0.009834 1.419927
v -0.087109 -0.014834 1.419638
v -0.079370 -0.019843 1.419327
v -0.072513 -0.024927 1.418847
v -0.067233 -0.030142 1.418066
v -0.064059 -0.035534 1.416882
v -0.063279 -0.041125 1.415242
v -0.064891 -0.046917 1.413145
v -0.068610 -0.052884 1.410646
v -0.073906 -0.058984 1.407846
v -0.080084 -0.065157 1.404877
v -0.086380 -0.071340 1.401886
v -0.092081 -0.077474 1.399009
v -0.096620 -0.083510 1.396353
v -0.099663 -0.089421 1.393983
v -0.101156 -0.095203 1.391909
v -0.101337 -0.100875 1.390085
v -0.100718 -0.106480 1.388414
v -0.101660 -0.100902 1.390024
v -0.103402 -0.095390 1.391480
v -0.106457 -0.089989 1.392686
v -0.111061 -0.084717 1.393596
v -0.117161 -0.079570 1.394221
v -0.124422 -0.074521 1.394624
v -0.132280 -0.069521 1.394913
v -0.140019 -0.064511 1.395225
v -0.146876 -0.059428 1.395704
v -0.152156 -0.054212 1.396486
v -0.155330 -0.048821 1.397669
v -0.156110 -0.043229 1.399309
v -0.154498 -0.037438 1.401406
v -0.150779 -0.031470 1.403905
v -0.145482 -0.025370 1.406705
v -0.139305 -0.019197 1.409674
v -0.133008 -0.013014 1.412665
v -0.127308 -0.006881 1.415542
v -0.122769 -0.000844 1.418198
v -0.119726 0.005067 1.420568
v -0.118233 0.010848 1.422642
v -0.118052 0.016520 1.424466
f 199 200 201
f 199 201 200
f 199 201 202
f 199 202 201
f 199 202 203
f 199 203 202
f 199 203 204
f 199 204 203
f 199 204 205
f 199 205 204
f 199 205 206
f 199 206 205
f 199 206 207
f 199 207 206
f 199 207 208
f 199 208 207
f 199 208 209
f 199 209 208
f 199 209 210
f 199 210 209
f 199 210 211
f 199 211 210
f 199 211 212
f 199 212 211
f 199 212 213
f 199 213 212
f 199 213 214
f 199 214 213
f 199 214 215
f 199 215 214
f 199 215 216
f 199 216 215
f 199 216 217
f 199 217 216
f 199 217 218
f 199 218 217
f 199 218 219
f 199 219 218
f 199 219 220
f 199 220 219
f 199 220 221
f 199 221 220
f 199 221 222
f 199 222 221
f 199 222 223
f 199 223 222
f 199 223 224
f 199 224 223
f 199 224 225
f 199 225 224
f 199 225 226
f 199 226 225
f 199 226 227
f 199 227 226
f 199 227 228
f 199 228 227
f 199 228 229
f 199 229 228
f 199 229 230
f 199 230 229
f 199 230 231
f 199 231 230
f 199 231 232
f 199 232 231
f 199 232 233
f 199 233 232
f 199 233 234
f 199 234 233
f 199 234 235
f 199 235 234
f 199 235 236
f 199 236 235
f 199 236 237
f 199 237 236
f 199 237 238
f 199 238 237
f 199 238 239
f 199 239 238
f 199 239 240
f 199 240 239
f 199 240 241
f 199 241 240
f 199 241 242
f 199 242 241
f 199 242 243
f 199 243 242
f 199 243 244
f 199 244 243
o part_7
v -0.118671 0.022125 1.426137
v -0.112736 0.023816 1.424183
v -0.107039 0.026362 1.422164
v -0.101736 0.030319 1.420036
v -0.096900 0.035950 1.417780
v -0.092517 0.043202 1.415398
v -0.088486 0.051719 1.412920
v -0.084637 0.060890 1.410391
v -0.080755 0.069938 1.407872
v -0.076608 0.078039 1.405425
v -0.071985 0.084434 1.403110
v -0.066725 0.088547 1.400970
v -0.060743 0.090066 1.399030
v -0.054036 0.088993 1.397289
v -0.046694 0.085638 1.395723
v -0.038875 0.080577 1.394289
v -0.030792 0.074568 1.392928
v -0.022675 0.068437 1.391576
v -0.014740 0.062959 1.390174
v -0.007158 0.058746 1.388675
v -0.000028 0.056155 1.387051
v 0.006635 0.055237 1.385298
v 0.012904 0.055731 1.383437
v 0.018935 0.057080 1.381510
v 0.012999 0.055390 1.383463
v 0.007303 0.052844 1.385482
v 0.002000 0.048886 1.387610
v -0.002836 0.043255 1.389867
v -0.007220 0.036003 1.392248
v -0.011251 0.027486 1.394727
v -0.015099 0.018315 1.397255
v -0.018982 0.009267 1.399775
v -0.023129 0.001166 1.402221
v -0.027752 -0.005229 1.404537
v -0.033011 -0.009342 1.406677
v -0.038994 -0.010861 1.408617
v -0.045700 -0.009788 1.410358
v -0.053043 -0.006433 1.411923
v -0.060862 -0.001372 1.413357
v -0.068945 0.004638 1.414718
v -0.077062 0.010768 1.416070
v -0.084997 0.016246 1.417472
v -0.092579 0.020459 1.418971
v -0.099709 0.023051 1.420595
v -0.106371 0.023968 1.422348
v -0.112641 0.023475 1.424210
f 245 246 247
f 245 247 246
f 245 247 248
f 245 248 247
f 245 248 249
f 245 249 248
f 245 249 250
f 245 250 249
f 245 250 251
f 245 251 250
f 245 251 252
f 245 252 251
f 245 252 253
f 245 253 252
f 245 253 254
f 245 254 253
f 245 254 255
f 245 255 254
f 245 255 256
f 245 256 255
f 245 256 257
f 245 257 256
f 245 257 258
f 245 258 257
f 245 258 259
f 245 259 258
f 245 259 260
f 245 260 259
f 245 260 261
f 245 261 260
f 245 261 262
f 245 262 261
f 245 262 263
f 245 263 262
f 245 263 264
f 245 264 263
f 245 264 265
f 245 265 264
f 245 265 266
f 245 266 265
f 245 266 267
f 245 267 266
f 245 267 268
f 245 268 267
f 245 268 269
f 245 269 268
f 245 269 270
f 245 270 269
f 245 270 271
f 245 271 270
f 245 271 272
f 245 272 271
f 245 272 273
f 245 273 272
f 245 273 274
f 245 274 273
f 245 274 275
f 245 275 274
f 245 275 276
f 245 276 275
f 245 276 277
f 245 277 276
f 245 277 278
f 245 278 277
f 245 278 279
f 245 279 278
f 245 279 280
f 245 280 279
f 245 280 281
f 245 281 280
f 245 281 282
f 245 282 281
f 245 282 283
f 245 283 282
f 245 283 284
f 245 284 283
f 245 284 285
f 245 285 284
f 245 285 286
f 245 286 285
f 245 286 287
f 245 287 286
f 245 287 288
f 245 288 287
f 245 288 289
f 245 289 288
f 245 289 290
f 245 290 289
o part_8
v -0.118671 0.022125 1.426137
v -0.117890 0.026510 1.425112
v -0.117721 0.030995 1.423966
v -0.118559 0.035642 1.422622
v -0.120590 0.040483 1.421044
v -0.123774 0.045510 1.419239
v -0.127855 0.050683 1.417258
v -0.132398 0.055931 1.415186
v -0.136852 0.061164 1.413131
v -0.140630 0.066287 1.411210
v -0.143193 0.071214 1.409527
v -0.144133 0.075878 1.408163
v -0.143230 0.080244 1.407162
v -0.140482 0.084310 1.406523
v -0.136110 0.088114 1.406204
v -0.130525 0.091721 1.406123
v -0.124263 0.095218 1.406175
v -0.117912 0.098701 1.406244
v -0.112023 0.102259 1.406223
v -0.107031 0.105962 1.406026
v -0.103193 0.109852 1.405601
v -0.100546 0.113935 1.404943
v -0.098907 0.118181 1.404086
v -0.097880 0.122526 1.403109
v -0.098662 0.118141 1.404134
v -0.098830 0.113657 1.405280
v -0.097992 0.109009 1.406624
v -0.095961 0.104169 1.408202
v -0.092778 0.099141 1.410007
v -0.088697 0.093968 1.411988
v -0.084153 0.088721 1.414060
v -0.079699 0.083488 1.416114
v -0.075922 0.078364 1.418036
v -0.073358 0.073437 1.419719
v -0.072418 0.068773 1.421083
v -0.073322 0.064408 1.422084
v -0.076070 0.060341 1.422722
v -0.080441 0.056538 1.423042
v -0.086027 0.052931 1.423123
v -0.092289 0.049434 1.423071
v -0.098640 0.045951 1.423001
v -0.104529 0.042393 1.423022
v -0.109520 0.038690 1.423220
v -0.113359 0.034800 1.423644
v -0.116005 0.030717 1.424303
v -0.117644 0.026471 1.425160
f 291 292 293
f 291 293 292
f 291 293 294
f 291 294 293
f 291 294 295
f 291 295 294
f 291 295 296
f 291 296 295
f 291 296 297
f 291 297 296
f 291 297 298
f 291 298 297
f 291 298 299
f 291 299 298
f 291 299 300
f 291 300 299
f 291 300 301
f 291 301 300
f 291 301 302
f 291 302 301
f 291 302 303
f 291 303 302
f 291 303 304
f 291 304 303
f 291 304 305
f 291 305 304
f 291 305 306
f 291 306 305
f 291 306 307
f 291 307 306
f 291 307 308
f 291 308 307
f 291 308 309
f 291 309 308
f 291 309 310
f 291 310 309
f 291 310 311
f 291 311 310
f 291 311 312
f 291 312 311
f 291 312 313
f 291 313 312
f 291 313 314
f 291 314 313
f 291 314 315
f 291 315 314
f 291 315 316
f 291 316 315
f 291 316 317
f 291 317 316
f 291 317 318
f 291 318 317
f 291 318 319
f 291 319 318
f 291 319 320
f 291 320 319
f 291 320 321
f 291 321 320
f 291 321 322
f 291 322 321
f 291 322 323
f 291 323 322
f 291 323 324
f 291 324 323
f 291 324 325
f 291 325 324
f 291 325 326
f 291 326 325
f 291 326 327
f 291 327 326
f 291 327 328
f 291 328 327
f 291 328 329
f 291 329 328
f 291 329 330
f 291 330 329
f 291 330 331
f 291 331 330
f 291 331 332
f 291 332 331
f 291 332 333
f 291 333 332
f 291 333 334
f 291 334 333
f 291 334 335
f 291 335 334
f 291 335 336
f 291 336 335
o part_9
v -0.118671 0.022125 1.426137
v -0.122378 0.022983 1.423145
v -0.126410 0.022791 1.420115
v -0.130812 0.021402 1.417041
v -0.135563 0.018888 1.413925
v -0.140590 0.015481 1.410777
v -0.145785 0.011533 1.407610
v -0.151015 0.007471 1.404438
v -0.156139 0.003752 1.401279
v -0.161021 0.000813 1.398148
v -0.165545 -0.000969 1.395059
v -0.169626 -0.001322 1.392023
v -0.173221 -0.000100 1.389045
v -0.176328 0.002695 1.386124
v -0.178993 0.006921 1.383255
v -0.181299 0.012302 1.380428
v -0.183364 0.018465 1.377630
v -0.185323 0.024971 1.374845
v -0.187317 0.031362 1.372055
v -0.189479 0.037211 1.369246
v -0.191917 0.042168 1.366404
v -0.194703 0.046001 1.363521
v -0.197860 0.048636 1.360594
v -0.201341 0.050221 1.357628
v -0.197634 0.049363 1.360620
v -0.193602 0.049555 1.363651
v -0.189200 0.050945 1.366725
v -0.184449 0.053459 1.369840
v -0.179422 0.056865 1.372988
v -0.174228 0.060813 1.376156
v -0.168998 0.064875 1.379327
v -0.163874 0.068595 1.382487
v -0.158991 0.071533 1.385617
v -0.154467 0.073316 1.388706
v -0.150386 0.073668 1.391742
v -0.146791 0.072446 1.394721
v -0.143684 0.069651 1.397642
v -0.141020 0.065426 1.400511
v -0.138713 0.060044 1.403337
v -0.136648 0.053881 1.406135
v -0.134690 0.047376 1.408920
v -0.132695 0.040985 1.411710
v -0.130534 0.035135 1.414519
v -0.128096 0.030178 1.417361
v -0.125310 0.026345 1.420245
v -0.122153 0.023711 1.423172
f 337 338 339
f 337 339 338
f 337 339 340
f 337 340 339
f 337 340 341
f 337 341 340
f 337 341 342
f 337 342 341
f 337 342 343
f 337 343 342
f 337 343 344
f 337 344 343
f 337 344 345
f 337 345 344
f 337 345 346
f 337 346 345
f 337 346 347
f 337 347 346
f 337 347 348
f 337 348 347
f 337 348 349
f 337 349 348
f 337 349 350
f 337 350 349
f 337 350 351
f 337 351 350
f 337 351 352
f 337 352 351
f 337 352 353
f 337 353 352
f 337 353 354
f 337 354 353
f 337 354 355
f 337 355 354
f 337 355 356
f 337 356 355
f 337 356 357
f 337 357 356
f 337 357 358
f 337 358 357
f 337 358 359
f 337 359 358
f 337 359 360
f 337 360 359
f 337 360 361
f 337 361 360
f 337 361 362
f 337 362 361
f 337 362 363
f 337 363 362
f 337 363 364
f 337 364 363
f 337 364 365
f 337 365 364
f 337 365 366
f 337 366 365
f 337 366 367
f 337 367 366
f 337 367 368
f 337 368 367
f 337 368 369
f 337 369 368
f 337 369 370
f 337 370 369
f 337 370 371
f 337 371 370
f 337 371 372
f 337 372 371
f 337 372 373
f 337 373 372
f 337 373 374
f 337 374 373
f 337 374 375
f 337 375 374
f 337 375 376
f 337 376 375
f 337 376 377
f 337 377 376
f 337 377 378
f 337 378 377
f 337 378 379
f 337 379 378
f 337 379 380
f 337 380 379
f 337 380 381
f 337 381 380
f 337 381 382
f 337 382 381
