o mesh
v -1.993027 0.900000 1.296958
v -1.993027 0.900000 -0.000000
v -1.993027 2.600000 -0.000000
v -1.993027 2.600000 1.296958
f 1 2 3
f 1 3 4
v 1.993027 0.900000 2.593917
v 1.993027 0.900000 1.296958
v 1.993027 2.600000 1.296958
v 1.993027 2.600000 2.593917
f 5 6 7
f 5 7 8
v 1.993027 0.900000 1.296958
v 1.993027 0.900000 -0.000000
v 1.993027 2.600000 -0.000000
v 1.993027 2.600000 1.296958
f 9 10 11
f 9 11 12
v 1.993027 2.500000 -0.648479
v 1.993027 2.500000 -0.000000
v 1.993027 2.748162 -0.049363
f 13 14 15
v 1.993027 2.500000 -0.648479
v 1.993027 2.748162 -0.049363
v 1.993027 2.958544 -0.189935
f 16 17 18
v 1.993027 2.500000 -0.648479
v 1.993027 2.958544 -0.189935
v 1.993027 3.099117 -0.400317
f 19 20 21
v 1.993027 2.500000 -0.648479
v 1.993027 3.099117 -0.400317
v 1.993027 3.148479 -0.648479
f 22 23 24
v 1.993027 2.500000 -0.648479
v 1.993027 3.148479 -0.648479
v 1.993027 3.099117 -0.896641
f 25 26 27
v 1.993027 2.500000 -0.648479
v 1.993027 2.958544 -1.107023
v 1.993027 2.748162 -1.247596
f 28 29 30
v 1.993027 0.900000 -2.593917
v 0.664342 0.900000 -2.593917
v 0.664342 2.600000 -2.593917
v 1.993027 2.600000 -2.593917
f 31 32 33
f 31 33 34
v 0.664342 0.900000 -2.593917
v -0.664342 0.900000 -2.593917
v -0.664342 2.600000 -2.593917
v 0.664342 2.600000 -2.593917
f 35 36 37
f 35 37 38
v -0.664342 0.900000 -2.593917
v -1.993027 0.900000 -2.593917
v -1.993027 2.600000 -2.593917
v -0.664342 2.600000 -2.593917
f 39 40 41
f 39 41 42
v 0.664342 0.900000 2.593917
v -0.664342 0.900000 2.593917
v -0.664342 2.600000 2.593917
v 0.664342 2.600000 2.593917
f 43 44 45
f 43 45 46
v -0.664342 0.900000 2.593917
v -1.993027 0.900000 2.593917
v -1.993027 2.600000 2.593917
v -0.664342 2.600000 2.593917
f 47 48 49
f 47 49 50
v -1.409283 3.671055 2.593917
v -1.409283 3.671055 1.296958
v -0.762698 3.999401 1.296958
v -0.762698 3.999401 2.593917
f 51 52 53
f 51 53 54
v -0.762698 3.999401 2.593917
v -0.762698 3.999401 1.296958
v -0.000000 4.114700 1.296958
v -0.000000 4.114700 2.593917
f 55 56 57
f 55 57 58
v 1.841317 3.179651 2.593917
v 1.841317 3.179651 1.296958
v 1.993027 2.600000 1.296958
v 1.993027 2.600000 2.593917
f 59 60 61
f 59 61 62
v -1.841317 3.179651 1.296958
v -1.841317 3.179651 -0.000000
v -1.409283 3.671055 -0.000000
v -1.409283 3.671055 1.296958
f 63 64 65
f 63 65 66
v -1.409283 3.671055 1.296958
v -1.409283 3.671055 -0.000000
v -0.762698 3.999401 -0.000000
v -0.762698 3.999401 1.296958
f 67 68 69
f 67 69 70
v 1.841317 3.179651 1.296958
v 1.841317 3.179651 -0.000000
v 1.993027 2.600000 -0.000000
v 1.993027 2.600000 1.296958
f 71 72 73
f 71 73 74
v -1.993027 2.600000 -0.000000
v -1.993027 2.600000 -1.296958
v -1.841317 3.179651 -1.296958
v -1.841317 3.179651 -0.000000
f 75 76 77
f 75 77 78
v -0.762698 3.999401 -0.000000
v -0.762698 3.999401 -1.296958
v -0.000000 4.114700 -1.296958
v -0.000000 4.114700 -0.000000
f 79 80 81
f 79 81 82
v -0.000000 4.114700 -0.000000
v -0.000000 4.114700 -1.296958
v 0.762698 3.999401 -1.296958
v 0.762698 3.999401 -0.000000
f 83 84 85
f 83 85 86
v 1.409283 3.671055 -0.000000
v 1.409283 3.671055 -1.296958
v 1.841317 3.179651 -1.296958
v 1.841317 3.179651 -0.000000
f 87 88 89
f 87 89 90
v -1.993027 2.600000 -1.296958
v -1.993027 2.600000 -2.593917
v -1.841317 3.179651 -2.593917
v -1.841317 3.179651 -1.296958
f 91 92 93
f 91 93 94
v -1.409283 3.671055 -1.296958
v -1.409283 3.671055 -2.593917
v -0.762698 3.999401 -2.593917
v -0.762698 3.999401 -1.296958
f 95 96 97
f 95 97 98
v 0.762698 3.999401 -1.296958
v 0.762698 3.999401 -2.593917
v 1.409283 3.671055 -2.593917
v 1.409283 3.671055 -1.296958
f 99 100 101
f 99 101 102
v 1.841317 3.179651 -1.296958
v 1.841317 3.179651 -2.593917
v 1.993027 2.600000 -2.593917
v 1.993027 2.600000 -1.296958
f 103 104 105
f 103 105 106
v 0.000000 2.600000 -2.593917
v 0.762698 3.999401 -2.593917
v 1.409283 3.671055 -2.593917
f 107 108 109
v 0.000000 2.600000 2.593917
v -1.993027 2.600000 2.593917
v -1.841317 3.179651 2.593917
f 110 111 112
v 0.000000 2.600000 2.593917
v -1.841317 3.179651 2.593917
v -1.409283 3.671055 2.593917
f 113 114 115
v 0.000000 2.600000 2.593917
v -1.409283 3.671055 2.593917
v -0.762698 3.999401 2.593917
f 116 117 118
v 0.000000 2.600000 2.593917
v -0.762698 3.999401 2.593917
v -0.000000 4.114700 2.593917
f 119 120 121
v 0.000000 2.600000 2.593917
v -0.000000 4.114700 2.593917
v 0.762698 3.999401 2.593917
f 122 123 124
v 0.000000 2.600000 2.593917
v 1.409283 3.671055 2.593917
v 1.841317 3.179651 2.593917
f 125 126 127
v 0.000000 2.600000 2.593917
v 1.841317 3.179651 2.593917
v 1.993027 2.600000 2.593917
f 128 129 130
