o mesh
v 0.000000 0.000000 0.015000
v 0.008817 0.000000 0.012135
v 0.014266 0.000000 0.004635
v 0.014266 0.000000 -0.004635
v 0.008817 0.000000 -0.012135
v 0.000000 0.000000 -0.015000
v -0.008817 0.000000 -0.012135
v -0.014266 0.000000 -0.004635
v -0.014266 0.000000 0.004635
v -0.008817 0.000000 0.012135
v 0.000000 0.400000 0.010200
v 0.005995 0.400000 0.008252
v 0.009701 0.400000 0.003152
v 0.009701 0.400000 -0.003152
v 0.005995 0.400000 -0.008252
v 0.000000 0.400000 -0.010200
v -0.005995 0.400000 -0.008252
v -0.009701 0.400000 -0.003152
v -0.009701 0.400000 0.003152
v -0.005995 0.400000 0.008252
f 1 2 12
f 1 12 11
f 2 3 13
f 2 13 12
f 3 4 14
f 3 14 13
f 4 5 15
f 4 15 14
f 5 6 16
f 5 16 15
f 6 7 17
f 6 17 16
f 7 8 18
f 7 18 17
f 8 9 19
f 8 19 18
f 9 10 20
f 9 20 19
f 10 1 11
f 10 11 20
v -0.000141 0.400000 0.010199
v 0.002079 0.405580 0.008281
v 0.003505 0.409028 0.003201
v 0.003592 0.409028 -0.003103
v 0.002307 0.405580 -0.008221
v 0.000141 0.400000 -0.010199
v -0.002079 0.394420 -0.008281
v -0.003505 0.390972 -0.003201
v -0.003592 0.390972 0.003103
v -0.002307 0.394420 0.008221
v -0.287939 0.513140 0.002959
v -0.286429 0.516935 0.001655
v -0.285460 0.519280 -0.001800
v -0.285400 0.519280 -0.006086
v -0.286274 0.516935 -0.009566
v -0.287747 0.513140 -0.010911
v -0.289256 0.509346 -0.009607
v -0.290226 0.507001 -0.006152
v -0.290285 0.507001 -0.001866
v -0.289411 0.509346 0.001614
f 21 22 32
f 21 32 31
f 22 23 33
f 22 33 32
f 23 24 34
f 23 34 33
f 24 25 35
f 24 35 34
f 25 26 36
f 25 36 35
f 26 27 37
f 26 37 36
f 27 28 38
f 27 38 37
f 28 29 39
f 28 39 38
f 29 30 40
f 29 40 39
f 30 21 31
f 30 31 40
v -0.288552 0.513140 0.002924
v -0.291310 0.515997 0.001309
v -0.292743 0.517763 -0.002325
v -0.292305 0.517763 -0.006589
v -0.290162 0.515997 -0.009855
v -0.287134 0.513140 -0.010876
v -0.284376 0.510283 -0.009261
v -0.282943 0.508517 -0.005627
v -0.283381 0.508517 -0.001363
v -0.285523 0.510283 0.001903
v -0.474748 0.322375 -0.018445
v -0.476624 0.324318 -0.019543
v -0.477598 0.325519 -0.022014
v -0.477300 0.325519 -0.024914
v -0.475843 0.324318 -0.027135
v -0.473784 0.322375 -0.027828
v -0.471909 0.320432 -0.026730
v -0.470934 0.319232 -0.024259
v -0.471232 0.319232 -0.021360
v -0.472689 0.320432 -0.019139
f 41 42 52
f 41 52 51
f 42 43 53
f 42 53 52
f 43 44 54
f 43 54 53
f 44 45 55
f 44 55 54
f 45 46 56
f 45 56 55
f 46 47 57
f 46 57 56
f 47 48 58
f 47 58 57
f 48 49 59
f 48 59 58
f 49 50 60
f 49 60 59
f 50 41 51
f 50 51 60
v -0.474266 0.322110 -0.027846
v -0.471635 0.323034 -0.026995
v -0.470009 0.323705 -0.024671
v -0.470009 0.323869 -0.021761
v -0.471635 0.323462 -0.019376
v -0.474266 0.322640 -0.018428
v -0.476897 0.321717 -0.019278
v -0.478523 0.321045 -0.021602
v -0.478523 0.320881 -0.024512
v -0.476897 0.321288 -0.026897
v -0.401886 0.104676 -0.014104
v -0.400097 0.105304 -0.013526
v -0.398991 0.105760 -0.011946
v -0.398991 0.105872 -0.009967
v -0.400097 0.105595 -0.008345
v -0.401886 0.105036 -0.007700
v -0.403675 0.104408 -0.008278
v -0.404780 0.103951 -0.009859
v -0.404780 0.103840 -0.011838
v -0.403675 0.104117 -0.013459
f 61 62 72
f 61 72 71
f 62 63 73
f 62 73 72
f 63 64 74
f 63 74 73
f 64 65 75
f 64 75 74
f 65 66 76
f 65 76 75
f 66 67 77
f 66 77 76
f 67 68 78
f 67 78 77
f 68 69 79
f 68 79 78
f 69 70 80
f 69 80 79
f 70 61 71
f 70 71 80
v -0.401886 0.104856 -0.010902
v -0.401049 0.106614 -0.014111
v -0.399688 0.108559 -0.017107
v -0.397539 0.110784 -0.019781
v -0.394509 0.113323 -0.022098
v -0.390667 0.116150 -0.024083
v -0.386224 0.119191 -0.025824
v -0.381506 0.122330 -0.027452
v -0.376904 0.125427 -0.029129
v -0.372826 0.128338 -0.031018
v -0.369636 0.130934 -0.033269
v -0.367609 0.133115 -0.035993
v -0.366893 0.134831 -0.039251
v -0.367487 0.136080 -0.043043
v -0.369244 0.136916 -0.047308
v -0.371890 0.137436 -0.051935
v -0.375058 0.137770 -0.056775
v -0.378344 0.138062 -0.061662
v -0.381354 0.138453 -0.066438
v -0.383763 0.139056 -0.070969
v -0.385361 0.139949 -0.075168
v -0.386077 0.141155 -0.079010
v -0.386005 0.142641 -0.082531
v -0.385409 0.144314 -0.085837
v -0.386245 0.142556 -0.082628
v -0.387607 0.140611 -0.079633
v -0.389756 0.138386 -0.076958
v -0.392786 0.135848 -0.074642
v -0.396628 0.133020 -0.072657
v -0.401071 0.129979 -0.070916
v -0.405789 0.126840 -0.069287
v -0.410390 0.123743 -0.067611
v -0.414469 0.120832 -0.065722
v -0.417659 0.118236 -0.063471
v -0.419685 0.116055 -0.060746
v -0.420402 0.114339 -0.057488
v -0.419808 0.113090 -0.053696
v -0.418050 0.112254 -0.049431
v -0.415405 0.111734 -0.044804
v -0.412236 0.111400 -0.039965
v -0.408951 0.111108 -0.035077
v -0.405941 0.110718 -0.030302
v -0.403531 0.110114 -0.025771
v -0.401934 0.109221 -0.021571
v -0.401218 0.108015 -0.017730
v -0.401289 0.106529 -0.014209
f 81 82 83
f 81 83 82
f 81 83 84
f 81 84 83
f 81 84 85
f 81 85 84
f 81 85 86
f 81 86 85
f 81 86 87
f 81 87 86
f 81 87 88
f 81 88 87
f 81 88 89
f 81 89 88
f 81 89 90
f 81 90 89
f 81 90 91
f 81 91 90
f 81 91 92
f 81 92 91
f 81 92 93
f 81 93 92
f 81 93 94
f 81 94 93
f 81 94 95
f 81 95 94
f 81 95 96
f 81 96 95
f 81 96 97
f 81 97 96
f 81 97 98
f 81 98 97
f 81 98 99
f 81 99 98
f 81 99 100
f 81 100 99
f 81 100 101
f 81 101 100
f 81 101 102
f 81 102 101
f 81 102 103
f 81 103 102
f 81 103 104
f 81 104 103
f 81 104 105
f 81 105 104
f 81 105 106
f 81 106 105
f 81 106 107
f 81 107 106
f 81 107 108
f 81 108 107
f 81 108 109
f 81 109 108
f 81 109 110
f 81 110 109
f 81 110 111
f 81 111 110
f 81 111 112
f 81 112 111
f 81 112 113
f 81 113 112
f 81 113 114
f 81 114 113
f 81 114 115
f 81 115 114
f 81 115 116
f 81 116 115
f 81 116 117
f 81 117 116
f 81 117 118
f 81 118 117
f 81 118 119
f 81 119 118
f 81 119 120
f 81 120 119
f 81 120 121
f 81 121 120
f 81 121 122
f 81 122 121
f 81 122 123
f 81 123 122
f 81 123 124
f 81 124 123
f 81 124 125
f 81 125 124
f 81 125 126
f 81 126 125
v -0.401886 0.104856 -0.010902
v -0.403135 0.106189 -0.008573
v -0.405200 0.107245 -0.006342
v -0.407955 0.108067 -0.004193
v -0.411243 0.108708 -0.002107
v -0.414877 0.109231 -0.000063
v -0.418650 0.109708 0.001965
v -0.422345 0.110210 0.004002
v -0.425756 0.110809 0.006073
v -0.428694 0.111569 0.008200
v -0.431007 0.112541 0.010402
v -0.432587 0.113762 0.012691
v -0.433376 0.115251 0.015075
v -0.433377 0.117008 0.017553
v -0.432643 0.119014 0.020118
v -0.431285 0.121232 0.022758
v -0.429454 0.123611 0.025454
v -0.427338 0.126086 0.028185
v -0.425145 0.128587 0.030924
v -0.423091 0.131042 0.033647
v -0.421382 0.133379 0.036329
v -0.420208 0.135535 0.038947
v -0.419722 0.137457 0.041483
v -0.420052 0.139102 0.043921
v -0.418803 0.137769 0.041592
v -0.416737 0.136713 0.039361
v -0.413983 0.135891 0.037212
v -0.410695 0.135250 0.035126
v -0.407061 0.134726 0.033082
v -0.403288 0.134250 0.031054
v -0.399592 0.133748 0.029017
v -0.396182 0.133148 0.026946
v -0.393244 0.132389 0.024819
v -0.390931 0.131417 0.022617
v -0.389351 0.130196 0.020328
v -0.388561 0.128707 0.017944
v -0.388561 0.126950 0.015466
v -0.389294 0.124944 0.012901
v -0.390653 0.122726 0.010261
v -0.392484 0.120347 0.007565
v -0.394600 0.117872 0.004834
v -0.396793 0.115370 0.002095
v -0.398847 0.112916 -0.000628
v -0.400555 0.110579 -0.003310
v -0.401730 0.108423 -0.005928
v -0.402216 0.106501 -0.008464
f 127 128 129
f 127 129 128
f 127 129 130
f 127 130 129
f 127 130 131
f 127 131 130
f 127 131 132
f 127 132 131
f 127 132 133
f 127 133 132
f 127 133 134
f 127 134 133
f 127 134 135
f 127 135 134
f 127 135 136
f 127 136 135
f 127 136 137
f 127 137 136
f 127 137 138
f 127 138 137
f 127 138 139
f 127 139 138
f 127 139 140
f 127 140 139
f 127 140 141
f 127 141 140
f 127 141 142
f 127 142 141
f 127 142 143
f 127 143 142
f 127 143 144
f 127 144 143
f 127 144 145
f 127 145 144
f 127 145 146
f 127 146 145
f 127 146 147
f 127 147 146
f 127 147 148
f 127 148 147
f 127 148 149
f 127 149 148
f 127 149 150
f 127 150 149
f 127 150 151
f 127 151 150
f 127 151 152
f 127 152 151
f 127 152 153
f 127 153 152
f 127 153 154
f 127 154 153
f 127 154 155
f 127 155 154
f 127 155 156
f 127 156 155
f 127 156 157
f 127 157 156
f 127 157 158
f 127 158 157
f 127 158 159
f 127 159 158
f 127 159 160
f 127 160 159
f 127 160 161
f 127 161 160
f 127 161 162
f 127 162 161
f 127 162 163
f 127 163 162
f 127 163 164
f 127 164 163
f 127 164 165
f 127 165 164
f 127 165 166
f 127 166 165
f 127 166 167
f 127 167 166
f 127 167 168
f 127 168 167
f 127 168 169
f 127 169 168
f 127 169 170
f 127 170 169
f 127 170 171
f 127 171 170
f 127 171 172
f 127 172 171
v -0.002412 0.400000 -0.009911
v -0.005401 0.404831 -0.007179
v -0.006327 0.407817 -0.001704
v -0.004837 0.407817 0.004421
v -0.001499 0.404831 0.008857
v 0.002412 0.400000 0.009911
v 0.005401 0.395169 0.007179
v 0.006327 0.392183 0.001704
v 0.004837 0.392183 -0.004421
v 0.001499 0.395169 -0.008857
v 0.239167 0.582131 -0.065334
v 0.237135 0.585416 -0.063476
v 0.236505 0.587446 -0.059753
v 0.237518 0.587446 -0.055588
v 0.239788 0.585416 -0.052571
v 0.242447 0.582131 -0.051855
v 0.244480 0.578845 -0.053713
v 0.245109 0.576815 -0.057435
v 0.244096 0.576815 -0.061601
v 0.241826 0.578845 -0.064618
f 173 174 184
f 173 184 183
f 174 175 185
f 174 185 184
f 175 176 186
f 175 186 185
f 176 177 187
f 176 187 186
f 177 178 188
f 177 188 187
f 178 179 189
f 178 189 188
f 179 180 190
f 179 190 189
f 180 181 191
f 180 191 190
f 181 182 192
f 181 192 191
f 182 173 183
f 182 183 192
v 0.239214 0.582131 -0.065345
v 0.240472 0.586088 -0.064281
v 0.241858 0.588534 -0.061045
v 0.242842 0.588534 -0.056872
v 0.243049 0.586088 -0.053358
v 0.242400 0.582131 -0.051844
v 0.241142 0.578173 -0.052908
v 0.239756 0.575727 -0.056144
v 0.238772 0.575727 -0.060316
v 0.238565 0.578173 -0.063831
v 0.482697 0.520319 -0.120517
v 0.483552 0.523010 -0.119793
v 0.484495 0.524673 -0.117593
v 0.485164 0.524673 -0.114756
v 0.485305 0.523010 -0.112366
v 0.484863 0.520319 -0.111336
v 0.484008 0.517628 -0.112060
v 0.483066 0.515965 -0.114261
v 0.482396 0.515965 -0.117098
v 0.482255 0.517628 -0.119487
f 193 194 204
f 193 204 203
f 194 195 205
f 194 205 204
f 195 196 206
f 195 206 205
f 196 197 207
f 196 207 206
f 197 198 208
f 197 208 207
f 198 199 209
f 198 209 208
f 199 200 210
f 199 210 209
f 200 201 211
f 200 211 210
f 201 202 212
f 201 212 211
f 202 193 203
f 202 203 212
v 0.483780 0.521343 -0.120531
v 0.486496 0.521692 -0.119530
v 0.488174 0.521517 -0.117153
v 0.488174 0.520884 -0.114308
v 0.486496 0.520035 -0.112081
v 0.483780 0.519295 -0.111323
v 0.481065 0.518945 -0.112323
v 0.479386 0.519121 -0.114700
v 0.479386 0.519754 -0.117546
v 0.481065 0.520602 -0.119773
v 0.528600 0.308213 -0.166395
v 0.530447 0.308451 -0.165714
v 0.531588 0.308331 -0.164098
v 0.531588 0.307901 -0.162163
v 0.530447 0.307324 -0.160649
v 0.528600 0.306820 -0.160133
v 0.526754 0.306583 -0.160814
v 0.525613 0.306702 -0.162430
v 0.525613 0.307132 -0.164365
v 0.526754 0.307709 -0.165879
f 213 214 224
f 213 224 223
f 214 215 225
f 214 225 224
f 215 216 226
f 215 226 225
f 216 217 227
f 216 227 226
f 217 218 228
f 217 228 227
f 218 219 229
f 218 229 228
f 219 220 230
f 219 230 229
f 220 221 231
f 220 231 230
f 221 222 232
f 221 232 231
f 222 213 223
f 222 223 232
v 0.528600 0.307517 -0.163264
v 0.527751 0.308639 -0.165387
v 0.527378 0.309897 -0.167666
v 0.527601 0.311324 -0.170143
v 0.528416 0.312919 -0.172815
v 0.529727 0.314655 -0.175651
v 0.531362 0.316483 -0.178594
v 0.533098 0.318340 -0.181570
v 0.534688 0.320155 -0.184498
v 0.535890 0.321860 -0.187298
v 0.536491 0.323395 -0.189899
v 0.536336 0.324714 -0.192251
v 0.535344 0.325796 -0.194327
v 0.533513 0.326640 -0.196125
v 0.530927 0.327269 -0.197674
v 0.527741 0.327727 -0.199025
v 0.524165 0.328075 -0.200247
v 0.520444 0.328382 -0.201422
v 0.516824 0.328717 -0.202629
v 0.513528 0.329144 -0.203944
v 0.510728 0.329712 -0.205422
v 0.508520 0.330449 -0.207096
v 0.506908 0.331355 -0.208967
v 0.505772 0.332396 -0.210995
v 0.506621 0.331273 -0.208872
v 0.506994 0.330015 -0.206592
v 0.506771 0.328589 -0.204116
v 0.505956 0.326993 -0.201444
v 0.504645 0.325257 -0.198608
v 0.503010 0.323429 -0.195665
v 0.501274 0.321572 -0.192689
v 0.499684 0.319757 -0.189761
v 0.498482 0.318052 -0.186961
v 0.497881 0.316518 -0.184359
v 0.498036 0.315198 -0.182007
v 0.499028 0.314116 -0.179932
v 0.500859 0.313273 -0.178134
v 0.503445 0.312644 -0.176585
v 0.506632 0.312185 -0.175234
v 0.510207 0.311837 -0.174011
v 0.513928 0.311531 -0.172837
v 0.517548 0.311195 -0.171630
v 0.520844 0.310768 -0.170315
v 0.523645 0.310200 -0.168837
v 0.525852 0.309463 -0.167163
v 0.527464 0.308558 -0.165292
f 233 234 235
f 233 235 234
f 233 235 236
f 233 236 235
f 233 236 237
f 233 237 236
f 233 237 238
f 233 238 237
f 233 238 239
f 233 239 238
f 233 239 240
f 233 240 239
f 233 240 241
f 233 241 240
f 233 241 242
f 233 242 241
f 233 242 243
f 233 243 242
f 233 243 244
f 233 244 243
f 233 244 245
f 233 245 244
f 233 245 246
f 233 246 245
f 233 246 247
f 233 247 246
f 233 247 248
f 233 248 247
f 233 248 249
f 233 249 248
f 233 249 250
f 233 250 249
f 233 250 251
f 233 251 250
f 233 251 252
f 233 252 251
f 233 252 253
f 233 253 252
f 233 253 254
f 233 254 253
f 233 254 255
f 233 255 254
f 233 255 256
f 233 256 255
f 233 256 257
f 233 257 256
f 233 257 258
f 233 258 257
f 233 258 259
f 233 259 258
f 233 259 260
f 233 260 259
f 233 260 261
f 233 261 260
f 233 261 262
f 233 262 261
f 233 262 263
f 233 263 262
f 233 263 264
f 233 264 263
f 233 264 265
f 233 265 264
f 233 265 266
f 233 266 265
f 233 266 267
f 233 267 266
f 233 267 268
f 233 268 267
f 233 268 269
f 233 269 268
f 233 269 270
f 233 270 269
f 233 270 271
f 233 271 270
f 233 271 272
f 233 272 271
f 233 272 273
f 233 273 272
f 233 273 274
f 233 274 273
f 233 274 275
f 233 275 274
f 233 275 276
f 233 276 275
f 233 276 277
f 233 277 276
f 233 277 278
f 233 278 277
v 0.528600 0.307517 -0.163264
v 0.527428 0.308432 -0.160109
v 0.525575 0.309243 -0.157128
v 0.522868 0.309923 -0.154365
v 0.519314 0.310473 -0.151820
v 0.515049 0.310913 -0.149456
v 0.510321 0.311283 -0.147211
v 0.505448 0.311630 -0.145003
v 0.500784 0.312009 -0.142742
v 0.496677 0.312473 -0.140338
v 0.493428 0.313070 -0.137714
v 0.491262 0.313833 -0.134813
v 0.490295 0.314780 -0.131605
v 0.490528 0.315912 -0.128090
v 0.491843 0.317210 -0.124298
v 0.494017 0.318640 -0.120286
v 0.496747 0.320155 -0.116132
v 0.499687 0.321703 -0.111924
v 0.502481 0.323228 -0.107753
v 0.504812 0.324682 -0.103701
v 0.506433 0.326027 -0.099831
v 0.507206 0.327241 -0.096178
v 0.507126 0.328325 -0.092743
v 0.506365 0.329304 -0.089482
v 0.507537 0.328388 -0.092638
v 0.509390 0.327577 -0.095618
v 0.512096 0.326897 -0.098381
v 0.515651 0.326348 -0.100926
v 0.519915 0.325907 -0.103290
v 0.524643 0.325538 -0.105535
v 0.529517 0.325191 -0.107743
v 0.534181 0.324812 -0.110005
v 0.538288 0.324347 -0.112409
v 0.541536 0.323750 -0.115032
v 0.543703 0.322988 -0.117933
v 0.544670 0.322040 -0.121141
v 0.544437 0.320909 -0.124656
v 0.543122 0.319611 -0.128448
v 0.540948 0.318181 -0.132460
v 0.538218 0.316665 -0.136614
v 0.535278 0.315118 -0.140822
v 0.532483 0.313593 -0.144993
v 0.530153 0.312139 -0.149045
v 0.528532 0.310794 -0.152915
v 0.527759 0.309579 -0.156569
v 0.527839 0.308495 -0.160004
f 279 280 281
f 279 281 280
f 279 281 282
f 279 282 281
f 279 282 283
f 279 283 282
f 279 283 284
f 279 284 283
f 279 284 285
f 279 285 284
f 279 285 286
f 279 286 285
f 279 286 287
f 279 287 286
f 279 287 288
f 279 288 287
f 279 288 289
f 279 289 288
f 279 289 290
f 279 290 289
f 279 290 291
f 279 291 290
f 279 291 292
f 279 292 291
f 279 292 293
f 279 293 292
f 279 293 294
f 279 294 293
f 279 294 295
f 279 295 294
f 279 295 296
f 279 296 295
f 279 296 297
f 279 297 296
f 279 297 298
f 279 298 297
f 279 298 299
f 279 299 298
f 279 299 300
f 279 300 299
f 279 300 301
f 279 301 300
f 279 301 302
f 279 302 301
f 279 302 303
f 279 303 302
f 279 303 304
f 279 304 303
f 279 304 305
f 279 305 304
f 279 305 306
f 279 306 305
f 279 306 307
f 279 307 306
f 279 307 308
f 279 308 307
f 279 308 309
f 279 309 308
f 279 309 310
f 279 310 309
f 279 310 311
f 279 311 310
f 279 311 312
f 279 312 311
f 279 312 313
f 279 313 312
f 279 313 314
f 279 314 313
f 279 314 315
f 279 315 314
f 279 315 316
f 279 316 315
f 279 316 317
f 279 317 316
f 279 317 318
f 279 318 317
f 279 318 319
f 279 319 318
f 279 319 320
f 279 320 319
f 279 320 321
f 279 321 320
f 279 321 322
f 279 322 321
f 279 322 323
f 279 323 322
f 279 323 324
f 279 324 323
