o mesh
v 0.000000 0.000000 0.015000
v 0.008817 0.000000 0.012135
v 0.014266 0.000000 0.004635
v 0.014266 0.000000 -0.004635
v 0.008817 0.000000 -0.012135
v 0.000000 0.000000 -0.015000
v -0.008817 0.000000 -0.012135
v -0.014266 0.000000 -0.004635
v -0.014266 0.000000 0.004635
v -0.008817 0.000000 0.012135
v 0.000000 0.400000 0.010200
v 0.005995 0.400000 0.008252
v 0.009701 0.400000 0.003152
v 0.009701 0.400000 -0.003152
v 0.005995 0.400000 -0.008252
v 0.000000 0.400000 -0.010200
v -0.005995 0.400000 -0.008252
v -0.009701 0.400000 -0.003152
v -0.009701 0.400000 0.003152
v -0.005995 0.400000 0.008252
f 1 2 12
f 1 12 11
f 2 3 13
f 2 13 12
f 3 4 14
f 3 14 13
f 4 5 15
f 4 15 14
f 5 6 16
f 5 16 15
f 6 7 17
f 6 17 16
f 7 8 18
f 7 18 17
f 8 9 19
f 8 19 18
f 9 10 20
f 9 20 19
f 10 1 11
f 10 11 20
v -0.002031 0.400000 0.009996
v 0.002303 0.404442 0.008889
v 0.005758 0.407187 0.004386
v 0.007013 0.407187 -0.001791
v 0.005589 0.404442 -0.007285
v 0.002031 0.400000 -0.009996
v -0.002303 0.395558 -0.008889
v -0.005758 0.392813 -0.004386
v -0.007013 0.392813 0.001791
v -0.005589 0.395558 0.007285
v -0.248169 0.628328 -0.043344
v -0.245221 0.631348 -0.044097
v -0.242872 0.633215 -0.047158
v -0.242019 0.633215 -0.051359
v -0.242987 0.631348 -0.055095
v -0.245407 0.628328 -0.056938
v -0.248354 0.625307 -0.056185
v -0.250703 0.623441 -0.053124
v -0.251557 0.623441 -0.048923
v -0.250589 0.625307 -0.045187
f 21 22 32
f 21 32 31
f 22 23 33
f 22 33 32
f 23 24 34
f 23 34 33
f 24 25 35
f 24 35 34
f 25 26 36
f 25 36 35
f 26 27 37
f 26 37 36
f 27 28 38
f 27 38 37
f 28 29 39
f 28 39 38
f 29 30 40
f 29 40 39
f 30 21 31
f 30 31 40
v -0.247957 0.628328 -0.043304
v -0.248060 0.632391 -0.044666
v -0.247677 0.634902 -0.048119
v -0.246954 0.634902 -0.052344
v -0.246168 0.632391 -0.055728
v -0.245618 0.628328 -0.056978
v -0.245515 0.624264 -0.055616
v -0.245898 0.621753 -0.052163
v -0.246621 0.621753 -0.047938
v -0.247408 0.624264 -0.044554
v -0.495926 0.607805 -0.087974
v -0.495996 0.610568 -0.088900
v -0.495736 0.612275 -0.091248
v -0.495244 0.612275 -0.094121
v -0.494709 0.610568 -0.096422
v -0.494336 0.607805 -0.097272
v -0.494266 0.605041 -0.096346
v -0.494526 0.603334 -0.093998
v -0.495018 0.603334 -0.091125
v -0.495552 0.605041 -0.088824
f 41 42 52
f 41 52 51
f 42 43 53
f 42 53 52
f 43 44 54
f 43 54 53
f 44 45 55
f 44 55 54
f 45 46 56
f 45 56 55
f 46 47 57
f 46 57 56
f 47 48 58
f 47 58 57
f 48 49 59
f 48 59 58
f 49 50 60
f 49 60 59
f 50 41 51
f 50 51 60
v -0.495131 0.607646 -0.097337
v -0.492617 0.606507 -0.096397
v -0.491064 0.605864 -0.094016
v -0.491064 0.605962 -0.091103
v -0.492617 0.606764 -0.088770
v -0.495131 0.607963 -0.087909
v -0.497644 0.609102 -0.088849
v -0.499198 0.609745 -0.091230
v -0.499198 0.609647 -0.094143
v -0.497644 0.608845 -0.096476
v -0.589271 0.405494 -0.089022
v -0.587562 0.404720 -0.088383
v -0.586506 0.404283 -0.086764
v -0.586506 0.404349 -0.084783
v -0.587562 0.404894 -0.083196
v -0.589271 0.405710 -0.082611
v -0.590981 0.406484 -0.083250
v -0.592037 0.406921 -0.084869
v -0.592037 0.406855 -0.086850
v -0.590981 0.406310 -0.088436
f 61 62 72
f 61 72 71
f 62 63 73
f 62 73 72
f 63 64 74
f 63 74 73
f 64 65 75
f 64 75 74
f 65 66 76
f 65 76 75
f 66 67 77
f 66 77 76
f 67 68 78
f 67 78 77
f 68 69 79
f 68 79 78
f 69 70 80
f 69 80 79
f 70 61 71
f 70 71 80
v -0.589271 0.405602 -0.085816
v -0.588575 0.407116 -0.089145
v -0.587398 0.408407 -0.092492
v -0.585447 0.409335 -0.095869
v -0.582590 0.409841 -0.099282
v -0.578864 0.409941 -0.102730
v -0.574470 0.409728 -0.106203
v -0.569738 0.409359 -0.109690
v -0.565085 0.409026 -0.113174
v -0.560951 0.408935 -0.116637
v -0.557737 0.409274 -0.120064
v -0.555749 0.410186 -0.123443
v -0.555151 0.411746 -0.126767
v -0.555943 0.413955 -0.130037
v -0.557961 0.416737 -0.133259
v -0.560899 0.419948 -0.136444
v -0.564356 0.423402 -0.139609
v -0.567892 0.426893 -0.142771
v -0.571091 0.430226 -0.145947
v -0.573621 0.433246 -0.149148
v -0.575282 0.435861 -0.152384
v -0.576037 0.438054 -0.155655
v -0.576018 0.439884 -0.158957
v -0.575518 0.441490 -0.162277
v -0.576215 0.439976 -0.158949
v -0.577392 0.438686 -0.155602
v -0.579343 0.437757 -0.152224
v -0.582200 0.437252 -0.148811
v -0.585926 0.437152 -0.145364
v -0.590320 0.437364 -0.141891
v -0.595052 0.437734 -0.138404
v -0.599705 0.438067 -0.134920
v -0.603839 0.438157 -0.131457
v -0.607053 0.437818 -0.128030
v -0.609041 0.436907 -0.124651
v -0.609639 0.435346 -0.121326
v -0.608846 0.433137 -0.118056
v -0.606829 0.430356 -0.114835
v -0.603891 0.427144 -0.111649
v -0.600433 0.423690 -0.108484
v -0.596897 0.420200 -0.105322
v -0.593699 0.416867 -0.102147
v -0.591169 0.413846 -0.098945
v -0.589508 0.411231 -0.095710
v -0.588753 0.409039 -0.092439
v -0.588772 0.407208 -0.089137
f 81 82 83
f 81 83 82
f 81 83 84
f 81 84 83
f 81 84 85
f 81 85 84
f 81 85 86
f 81 86 85
f 81 86 87
f 81 87 86
f 81 87 88
f 81 88 87
f 81 88 89
f 81 89 88
f 81 89 90
f 81 90 89
f 81 90 91
f 81 91 90
f 81 91 92
f 81 92 91
f 81 92 93
f 81 93 92
f 81 93 94
f 81 94 93
f 81 94 95
f 81 95 94
f 81 95 96
f 81 96 95
f 81 96 97
f 81 97 96
f 81 97 98
f 81 98 97
f 81 98 99
f 81 99 98
f 81 99 100
f 81 100 99
f 81 100 101
f 81 101 100
f 81 101 102
f 81 102 101
f 81 102 103
f 81 103 102
f 81 103 104
f 81 104 103
f 81 104 105
f 81 105 104
f 81 105 106
f 81 106 105
f 81 106 107
f 81 107 106
f 81 107 108
f 81 108 107
f 81 108 109
f 81 109 108
f 81 109 110
f 81 110 109
f 81 110 111
f 81 111 110
f 81 111 112
f 81 112 111
f 81 112 113
f 81 113 112
f 81 113 114
f 81 114 113
f 81 114 115
f 81 115 114
f 81 115 116
f 81 116 115
f 81 116 117
f 81 117 116
f 81 117 118
f 81 118 117
f 81 118 119
f 81 119 118
f 81 119 120
f 81 120 119
f 81 120 121
f 81 121 120
f 81 121 122
f 81 122 121
f 81 122 123
f 81 123 122
f 81 123 124
f 81 124 123
f 81 124 125
f 81 125 124
f 81 125 126
f 81 126 125
v -0.589271 0.405602 -0.085816
v -0.587343 0.406044 -0.084092
v -0.585828 0.406702 -0.081716
v -0.584634 0.407525 -0.078836
v -0.583673 0.408469 -0.075588
v -0.582853 0.409487 -0.072119
v -0.582077 0.410526 -0.068582
v -0.581246 0.411538 -0.065130
v -0.580270 0.412474 -0.061908
v -0.579066 0.413293 -0.059043
v -0.577568 0.413959 -0.056639
v -0.575732 0.414449 -0.054770
v -0.573533 0.414751 -0.053471
v -0.570970 0.414865 -0.052744
v -0.568068 0.414803 -0.052550
v -0.564873 0.414589 -0.052817
v -0.561451 0.414257 -0.053443
v -0.557882 0.413849 -0.054297
v -0.554260 0.413413 -0.055237
v -0.550681 0.413000 -0.056109
v -0.547242 0.412659 -0.056759
v -0.544038 0.412440 -0.057042
v -0.541153 0.412387 -0.056821
v -0.538683 0.412549 -0.055948
v -0.540612 0.412106 -0.057673
v -0.542126 0.411449 -0.060049
v -0.543321 0.410626 -0.062929
v -0.544281 0.409681 -0.066176
v -0.545101 0.408664 -0.069645
v -0.545878 0.407624 -0.073182
v -0.546708 0.406612 -0.076634
v -0.547685 0.405676 -0.079857
v -0.548889 0.404858 -0.082721
v -0.550386 0.404192 -0.085125
v -0.552222 0.403701 -0.086995
v -0.554422 0.403399 -0.088293
v -0.556984 0.403285 -0.089021
v -0.559886 0.403348 -0.089214
v -0.563081 0.403562 -0.088947
v -0.566504 0.403894 -0.088322
v -0.570072 0.404302 -0.087467
v -0.573695 0.404738 -0.086527
v -0.577274 0.405151 -0.085655
v -0.580712 0.405491 -0.085005
v -0.583917 0.405711 -0.084722
v -0.586801 0.405764 -0.084944
f 127 128 129
f 127 129 128
f 127 129 130
f 127 130 129
f 127 130 131
f 127 131 130
f 127 131 132
f 127 132 131
f 127 132 133
f 127 133 132
f 127 133 134
f 127 134 133
f 127 134 135
f 127 135 134
f 127 135 136
f 127 136 135
f 127 136 137
f 127 137 136
f 127 137 138
f 127 138 137
f 127 138 139
f 127 139 138
f 127 139 140
f 127 140 139
f 127 140 141
f 127 141 140
f 127 141 142
f 127 142 141
f 127 142 143
f 127 143 142
f 127 143 144
f 127 144 143
f 127 144 145
f 127 145 144
f 127 145 146
f 127 146 145
f 127 146 147
f 127 147 146
f 127 147 148
f 127 148 147
f 127 148 149
f 127 149 148
f 127 149 150
f 127 150 149
f 127 150 151
f 127 151 150
f 127 151 152
f 127 152 151
f 127 152 153
f 127 153 152
f 127 153 154
f 127 154 153
f 127 154 155
f 127 155 154
f 127 155 156
f 127 156 155
f 127 156 157
f 127 157 156
f 127 157 158
f 127 158 157
f 127 158 159
f 127 159 158
f 127 159 160
f 127 160 159
f 127 160 161
f 127 161 160
f 127 161 162
f 127 162 161
f 127 162 163
f 127 163 162
f 127 163 164
f 127 164 163
f 127 164 165
f 127 165 164
f 127 165 166
f 127 166 165
f 127 166 167
f 127 167 166
f 127 167 168
f 127 168 167
f 127 168 169
f 127 169 168
f 127 169 170
f 127 170 169
f 127 170 171
f 127 171 170
f 127 171 172
f 127 172 171
v -0.589271 0.405602 -0.085816
v -0.590534 0.407388 -0.085492
v -0.591865 0.409194 -0.085480
v -0.593303 0.411035 -0.085967
v -0.594867 0.412914 -0.087033
v -0.596551 0.414830 -0.088651
v -0.598326 0.416774 -0.090690
v -0.600146 0.418733 -0.092940
v -0.601955 0.420688 -0.095134
v -0.603691 0.422621 -0.096995
v -0.605300 0.424514 -0.098268
v -0.606740 0.426354 -0.098761
v -0.607988 0.428135 -0.098371
v -0.609045 0.429857 -0.097097
v -0.609934 0.431527 -0.095044
v -0.610695 0.433157 -0.092403
v -0.611383 0.434764 -0.089428
v -0.612060 0.436368 -0.086398
v -0.612782 0.437986 -0.083578
v -0.613596 0.439633 -0.081180
v -0.614529 0.441316 -0.079334
v -0.615587 0.443038 -0.078066
v -0.616754 0.444794 -0.077298
v -0.617988 0.446571 -0.076842
v -0.616726 0.444785 -0.077167
v -0.615395 0.442979 -0.077179
v -0.613956 0.441139 -0.076692
v -0.612392 0.439259 -0.075625
v -0.610709 0.437343 -0.074008
v -0.608934 0.435399 -0.071968
v -0.607113 0.433440 -0.069719
v -0.605305 0.431485 -0.067524
v -0.603569 0.429553 -0.065664
v -0.601960 0.427660 -0.064391
v -0.600520 0.425819 -0.063897
v -0.599271 0.424038 -0.064288
v -0.598214 0.422316 -0.065561
v -0.597326 0.420646 -0.067615
v -0.596565 0.419016 -0.070256
v -0.595876 0.417409 -0.073231
v -0.595200 0.415805 -0.076260
v -0.594477 0.414187 -0.079080
v -0.593664 0.412540 -0.081478
v -0.592731 0.410857 -0.083325
v -0.591672 0.409135 -0.084592
v -0.590506 0.407379 -0.085361
f 173 174 175
f 173 175 174
f 173 175 176
f 173 176 175
f 173 176 177
f 173 177 176
f 173 177 178
f 173 178 177
f 173 178 179
f 173 179 178
f 173 179 180
f 173 180 179
f 173 180 181
f 173 181 180
f 173 181 182
f 173 182 181
f 173 182 183
f 173 183 182
f 173 183 184
f 173 184 183
f 173 184 185
f 173 185 184
f 173 185 186
f 173 186 185
f 173 186 187
f 173 187 186
f 173 187 188
f 173 188 187
f 173 188 189
f 173 189 188
f 173 189 190
f 173 190 189
f 173 190 191
f 173 191 190
f 173 191 192
f 173 192 191
f 173 192 193
f 173 193 192
f 173 193 194
f 173 194 193
f 173 194 195
f 173 195 194
f 173 195 196
f 173 196 195
f 173 196 197
f 173 197 196
f 173 197 198
f 173 198 197
f 173 198 199
f 173 199 198
f 173 199 200
f 173 200 199
f 173 200 201
f 173 201 200
f 173 201 202
f 173 202 201
f 173 202 203
f 173 203 202
f 173 203 204
f 173 204 203
f 173 204 205
f 173 205 204
f 173 205 206
f 173 206 205
f 173 206 207
f 173 207 206
f 173 207 208
f 173 208 207
f 173 208 209
f 173 209 208
f 173 209 210
f 173 210 209
f 173 210 211
f 173 211 210
f 173 211 212
f 173 212 211
f 173 212 213
f 173 213 212
f 173 213 214
f 173 214 213
f 173 214 215
f 173 215 214
f 173 215 216
f 173 216 215
f 173 216 217
f 173 217 216
f 173 217 218
f 173 218 217
