o part_0
v 3.834273 0.000000 3.739009
v 3.903555 0.000000 3.699009
v 3.903555 0.000000 3.619009
v 3.834273 0.000000 3.579009
v 3.764991 0.000000 3.619009
v 3.764991 0.000000 3.699009
v 3.834273 5.200000 3.739009
v 3.903555 5.200000 3.699009
v 3.903555 5.200000 3.619009
v 3.834273 5.200000 3.579009
v 3.764991 5.200000 3.619009
v 3.764991 5.200000 3.699009
f 1 2 8
f 1 8 7
f 2 3 9
f 2 9 8
f 3 4 10
f 3 10 9
f 4 5 11
f 4 11 10
f 5 6 12
f 5 12 11
f 6 1 7
f 6 7 12
o part_1
v 4.664780 0.000000 -2.435915
v 4.734062 0.000000 -2.475915
v 4.734062 0.000000 -2.555915
v 4.664780 0.000000 -2.595915
v 4.595498 0.000000 -2.555915
v 4.595498 0.000000 -2.475915
v 4.664780 5.200000 -2.435915
v 4.734062 5.200000 -2.475915
v 4.734062 5.200000 -2.555915
v 4.664780 5.200000 -2.595915
v 4.595498 5.200000 -2.555915
v 4.595498 5.200000 -2.475915
f 13 14 20
f 13 20 19
f 14 15 21
f 14 21 20
f 15 16 22
f 15 22 21
f 16 17 23
f 16 23 22
f 17 18 24
f 17 24 23
f 18 13 19
f 18 19 24
o part_2
v -0.951281 0.000000 -5.133930
v -0.881999 0.000000 -5.173930
v -0.881999 0.000000 -5.253930
v -0.951281 0.000000 -5.293930
v -1.020563 0.000000 -5.253930
v -1.020563 0.000000 -5.173930
v -0.951281 5.200000 -5.133930
v -0.881999 5.200000 -5.173930
v -0.881999 5.200000 -5.253930
v -0.951281 5.200000 -5.293930
v -1.020563 5.200000 -5.253930
v -1.020563 5.200000 -5.173930
f 25 26 32
f 25 32 31
f 26 27 33
f 26 33 32
f 27 28 34
f 27 34 33
f 28 29 35
f 28 35 34
f 29 30 36
f 29 36 35
f 30 25 31
f 30 31 36
o part_3
v -5.252704 0.000000 -0.626471
v -5.183422 0.000000 -0.666471
v -5.183422 0.000000 -0.746471
v -5.252704 0.000000 -0.786471
v -5.321986 0.000000 -0.746471
v -5.321986 0.000000 -0.666471
v -5.252704 5.200000 -0.626471
v -5.183422 5.200000 -0.666471
v -5.183422 5.200000 -0.746471
v -5.252704 5.200000 -0.786471
v -5.321986 5.200000 -0.746471
v -5.321986 5.200000 -0.666471
f 37 38 44
f 37 44 43
f 38 39 45
f 38 45 44
f 39 40 46
f 39 46 45
f 40 41 47
f 40 47 46
f 41 42 48
f 41 48 47
f 42 37 43
f 42 43 48
o part_4
v -2.295069 0.000000 4.857307
v -2.225787 0.000000 4.817307
v -2.225787 0.000000 4.737307
v -2.295069 0.000000 4.697307
v -2.364351 0.000000 4.737307
v -2.364351 0.000000 4.817307
v -2.295069 5.200000 4.857307
v -2.225787 5.200000 4.817307
v -2.225787 5.200000 4.737307
v -2.295069 5.200000 4.697307
v -2.364351 5.200000 4.737307
v -2.364351 5.200000 4.817307
f 49 50 56
f 49 56 55
f 50 51 57
f 50 57 56
f 51 52 58
f 51 58 57
f 52 53 59
f 52 59 58
f 53 54 60
f 53 60 59
f 54 49 55
f 54 55 60
o part_5
v 3.754987 2.600000 3.648345
v 3.794630 2.669282 3.653677
v 3.873916 2.669282 3.664341
v 3.913559 2.600000 3.669673
v 3.873916 2.530718 3.664341
v 3.794630 2.530718 3.653677
v 4.585494 2.600000 -2.526578
v 4.625137 2.669282 -2.521247
v 4.704423 2.669282 -2.510583
v 4.744066 2.600000 -2.505251
v 4.704423 2.530718 -2.510583
v 4.625137 2.530718 -2.521247
f 61 62 68
f 61 68 67
f 62 63 69
f 62 69 68
f 63 64 70
f 63 70 69
f 64 65 71
f 64 71 70
f 65 66 72
f 65 72 71
f 66 61 67
f 66 67 72
o part_6
v 4.630138 2.600000 -2.443804
v 4.647459 2.669282 -2.479860
v 4.682101 2.669282 -2.551970
v 4.699423 2.600000 -2.588025
v 4.682101 2.530718 -2.551970
v 4.647459 2.530718 -2.479860
v -0.985923 2.600000 -5.141820
v -0.968602 2.669282 -5.177875
v -0.933959 2.669282 -5.249985
v -0.916638 2.600000 -5.286040
v -0.933959 2.530718 -5.249985
v -0.968602 2.530718 -5.177875
f 73 74 80
f 73 80 79
f 74 75 81
f 74 81 80
f 75 76 82
f 75 82 81
f 76 77 83
f 76 83 82
f 77 78 84
f 77 84 83
f 78 73 79
f 78 79 84
o part_7
v -0.893405 2.600000 -5.158700
v -0.922343 2.669282 -5.186315
v -0.980219 2.669282 -5.241545
v -1.009157 2.600000 -5.269160
v -0.980219 2.530718 -5.241545
v -0.922343 2.530718 -5.186315
v -5.194828 2.600000 -0.651241
v -5.223766 2.669282 -0.678856
v -5.281642 2.669282 -0.734086
v -5.310580 2.600000 -0.761702
v -5.281642 2.530718 -0.734086
v -5.223766 2.530718 -0.678856
f 85 86 92
f 85 92 91
f 86 87 93
f 86 93 92
f 87 88 94
f 87 94 93
f 88 89 95
f 88 95 94
f 89 90 96
f 89 96 95
f 90 85 91
f 90 91 96
o part_8
v -5.182292 2.600000 -0.744447
v -5.217498 2.669282 -0.725459
v -5.287910 2.669282 -0.687483
v -5.323116 2.600000 -0.668495
v -5.287910 2.530718 -0.687483
v -5.217498 2.530718 -0.725459
v -2.224657 2.600000 4.739331
v -2.259863 2.669282 4.758319
v -2.330275 2.669282 4.796295
v -2.365481 2.600000 4.815283
v -2.330275 2.530718 4.796295
v -2.259863 2.530718 4.758319
f 97 98 104
f 97 104 103
f 98 99 105
f 98 105 104
f 99 100 106
f 99 106 105
f 100 101 107
f 100 107 106
f 101 102 108
f 101 108 107
f 102 97 103
f 102 103 108
o part_9
v -2.309428 2.600000 4.698606
v -2.302248 2.669282 4.737956
v -2.287889 2.669282 4.816657
v -2.280710 2.600000 4.856007
v -2.287889 2.530718 4.816657
v -2.302248 2.530718 4.737956
v 3.819914 2.600000 3.580308
v 3.827094 2.669282 3.619659
v 3.841453 2.669282 3.698360
v 3.848632 2.600000 3.737710
v 3.841453 2.530718 3.698360
v 3.827094 2.530718 3.619659
f 109 110 116
f 109 116 115
f 110 111 117
f 110 117 116
f 111 112 118
f 111 118 117
f 112 113 119
f 112 119 118
f 113 114 120
f 113 120 119
f 114 109 115
f 114 115 120
o part_10
v 3.754987 5.200000 3.648345
v 3.794630 5.269282 3.653677
v 3.873916 5.269282 3.664341
v 3.913559 5.200000 3.669673
v 3.873916 5.130718 3.664341
v 3.794630 5.130718 3.653677
v 4.585494 5.200000 -2.526578
v 4.625137 5.269282 -2.521247
v 4.704423 5.269282 -2.510583
v 4.744066 5.200000 -2.505251
v 4.704423 5.130718 -2.510583
v 4.625137 5.130718 -2.521247
f 121 122 128
f 121 128 127
f 122 123 129
f 122 129 128
f 123 124 130
f 123 130 129
f 124 125 131
f 124 131 130
f 125 126 132
f 125 132 131
f 126 121 127
f 126 127 132
o part_11
v 4.630138 5.200000 -2.443804
v 4.647459 5.269282 -2.479860
v 4.682101 5.269282 -2.551970
v 4.699423 5.200000 -2.588025
v 4.682101 5.130718 -2.551970
v 4.647459 5.130718 -2.479860
v -0.985923 5.200000 -5.141820
v -0.968602 5.269282 -5.177875
v -0.933959 5.269282 -5.249985
v -0.916638 5.200000 -5.286040
v -0.933959 5.130718 -5.249985
v -0.968602 5.130718 -5.177875
f 133 134 140
f 133 140 139
f 134 135 141
f 134 141 140
f 135 136 142
f 135 142 141
f 136 137 143
f 136 143 142
f 137 138 144
f 137 144 143
f 138 133 139
f 138 139 144
o part_12
v -0.893405 5.200000 -5.158700
v -0.922343 5.269282 -5.186315
v -0.980219 5.269282 -5.241545
v -1.009157 5.200000 -5.269160
v -0.980219 5.130718 -5.241545
v -0.922343 5.130718 -5.186315
v -5.194828 5.200000 -0.651241
v -5.223766 5.269282 -0.678856
v -5.281642 5.269282 -0.734086
v -5.310580 5.200000 -0.761702
v -5.281642 5.130718 -0.734086
v -5.223766 5.130718 -0.678856
f 145 146 152
f 145 152 151
f 146 147 153
f 146 153 152
f 147 148 154
f 147 154 153
f 148 149 155
f 148 155 154
f 149 150 156
f 149 156 155
f 150 145 151
f 150 151 156
o part_13
v -5.182292 5.200000 -0.744447
v -5.217498 5.269282 -0.725459
v -5.287910 5.269282 -0.687483
v -5.323116 5.200000 -0.668495
v -5.287910 5.130718 -0.687483
v -5.217498 5.130718 -0.725459
v -2.224657 5.200000 4.739331
v -2.259863 5.269282 4.758319
v -2.330275 5.269282 4.796295
v -2.365481 5.200000 4.815283
v -2.330275 5.130718 4.796295
v -2.259863 5.130718 4.758319
f 157 158 164
f 157 164 163
f 158 159 165
f 158 165 164
f 159 160 166
f 159 166 165
f 160 161 167
f 160 167 166
f 161 162 168
f 161 168 167
f 162 157 163
f 162 163 168
o part_14
v -2.309428 5.200000 4.698606
v -2.302248 5.269282 4.737956
v -2.287889 5.269282 4.816657
v -2.280710 5.200000 4.856007
v -2.287889 5.130718 4.816657
v -2.302248 5.130718 4.737956
v 3.819914 5.200000 3.580308
v 3.827094 5.269282 3.619659
v 3.841453 5.269282 3.698360
v 3.848632 5.200000 3.737710
v 3.841453 5.130718 3.698360
v 3.827094 5.130718 3.619659
f 169 170 176
f 169 176 175
f 170 171 177
f 170 177 176
f 171 172 178
f 171 178 177
f 172 173 179
f 172 179 178
f 173 174 180
f 173 180 179
f 174 169 175
f 174 175 180
o part_15
v 3.779043 5.200000 3.716885
v 3.836719 5.255439 3.716633
v 3.891949 5.255439 3.658757
v 3.889504 5.200000 3.601133
v 3.831828 5.144561 3.601385
v 3.776598 5.144561 3.659261
v -0.055230 9.172348 0.057876
v 0.002445 9.227787 0.057624
v 0.057675 9.227787 -0.000252
v 0.055230 9.172348 -0.057876
v -0.002445 9.116909 -0.057624
v -0.057675 9.116909 0.000252
f 181 182 188
f 181 188 187
f 182 183 189
f 182 189 188
f 183 184 190
f 183 190 189
f 184 185 191
f 184 191 190
f 185 186 192
f 185 192 191
f 186 181 187
f 186 187 192
o part_16
v 4.702756 5.200000 -2.445503
v 4.720340 5.255439 -2.500433
v 4.682363 5.255439 -2.570845
v 4.626804 5.200000 -2.586326
v 4.609221 5.144561 -2.531396
v 4.647197 5.144561 -2.460984
v 0.037976 9.172348 0.070412
v 0.055559 9.227787 0.015481
v 0.017583 9.227787 -0.054930
v -0.037976 9.172348 -0.070412
v -0.055559 9.116909 -0.015481
v -0.017583 9.116909 0.054930
f 193 194 200
f 193 200 199
f 194 195 201
f 194 201 200
f 195 196 202
f 195 202 201
f 196 197 203
f 196 203 202
f 197 198 204
f 197 204 203
f 198 193 199
f 198 199 204
o part_17
v -0.872580 5.200000 -5.228289
v -0.919388 5.255439 -5.261986
v -0.998089 5.255439 -5.247627
v -1.029982 5.200000 -5.199571
v -0.983173 5.144561 -5.165874
v -0.904472 5.144561 -5.180233
v 0.078701 9.172348 -0.014359
v 0.031892 9.227787 -0.048056
v -0.046808 9.227787 -0.033697
v -0.078701 9.172348 0.014359
v -0.031892 9.116909 0.048056
v 0.046808 9.116909 0.033697
f 205 206 212
f 205 212 211
f 206 207 213
f 206 213 212
f 207 208 214
f 207 214 213
f 208 209 215
f 208 215 214
f 209 210 216
f 209 216 215
f 210 205 211
f 210 211 216
o part_18
v -5.242040 5.200000 -0.785757
v -5.288553 5.255439 -0.751653
v -5.299216 5.255439 -0.672367
v -5.263368 5.200000 -0.627185
v -5.216855 5.144561 -0.661290
v -5.206191 5.144561 -0.740576
v 0.010664 9.172348 -0.079286
v -0.035849 9.227787 -0.045182
v -0.046513 9.227787 0.034104
v -0.010664 9.172348 0.079286
v 0.035849 9.116909 0.045182
v 0.046513 9.116909 -0.034104
f 217 218 224
f 217 224 223
f 218 219 225
f 218 225 224
f 219 220 226
f 219 226 225
f 220 221 227
f 220 227 226
f 221 222 228
f 221 228 227
f 222 217 223
f 222 223 228
o part_19
v -2.367179 5.200000 4.742664
v -2.349117 5.255439 4.797439
v -2.277007 5.255439 4.832082
v -2.222959 5.200000 4.811949
v -2.241021 5.144561 4.757174
v -2.313131 5.144561 4.722532
v -0.072110 9.172348 -0.034643
v -0.054048 9.227787 0.020132
v 0.018062 9.227787 0.054775
v 0.072110 9.172348 0.034643
v 0.054048 9.116909 -0.020132
v -0.018062 9.116909 -0.054775
f 229 230 236
f 229 236 235
f 230 231 237
f 230 237 236
f 231 232 238
f 231 238 237
f 232 233 239
f 232 239 238
f 233 234 240
f 233 240 239
f 234 229 235
f 234 235 240
