o mesh
v 0.000000 0.000000 0.035000
v 0.016490 0.000000 0.022697
v 0.028878 0.000000 0.009383
v 0.028878 0.000000 -0.009383
v 0.016490 0.000000 -0.022697
v 0.000000 0.000000 -0.035000
v -0.016490 0.000000 -0.022697
v -0.028878 0.000000 -0.009383
v -0.028878 0.000000 0.009383
v -0.016490 0.000000 0.022697
v 0.000000 0.600000 0.031500
v 0.014841 0.600000 0.020427
v 0.025990 0.600000 0.008445
v 0.025990 0.600000 -0.008445
v 0.014841 0.600000 -0.020427
v 0.000000 0.600000 -0.031500
v -0.014841 0.600000 -0.020427
v -0.025990 0.600000 -0.008445
v -0.025990 0.600000 0.008445
v -0.014841 0.600000 0.020427
f 1 2 12
f 1 12 11
f 2 3 13
f 2 13 12
f 3 4 14
f 3 14 13
f 4 5 15
f 4 15 14
f 5 6 16
f 5 16 15
f 6 7 17
f 6 17 16
f 7 8 18
f 7 18 17
f 8 9 19
f 8 19 18
f 9 10 20
f 9 20 19
f 10 1 11
f 10 11 20
v 0.000000 0.600941 0.031486
v 0.014736 0.602379 0.020365
v 0.025805 0.603350 0.008348
v 0.025805 0.602845 -0.008534
v 0.014736 0.601158 -0.020471
v 0.000000 0.599059 -0.031486
v -0.014736 0.597621 -0.020365
v -0.025805 0.596650 -0.008348
v -0.025805 0.597155 0.008534
v -0.014736 0.598842 0.020471
v -0.058625 1.088866 0.013748
v -0.045363 1.090160 0.003740
v -0.035401 1.091034 -0.007076
v -0.035401 1.090579 -0.022270
v -0.045363 1.089061 -0.033013
v -0.058625 1.087172 -0.042927
v -0.071887 1.085878 -0.032918
v -0.081850 1.085004 -0.022103
v -0.081850 1.085459 -0.006909
v -0.071887 1.086977 0.003835
f 21 22 32
f 21 32 31
f 22 23 33
f 22 33 32
f 23 24 34
f 23 34 33
f 24 25 35
f 24 35 34
f 25 26 36
f 25 36 35
f 26 27 37
f 26 37 36
f 27 28 38
f 27 38 37
f 28 29 39
f 28 39 38
f 29 30 40
f 29 40 39
f 30 21 31
f 30 31 40
v -0.058625 1.088019 -0.014589
v -0.059119 1.084948 -0.008400
v -0.057945 1.082091 -0.001774
v -0.055041 1.079455 0.005304
v -0.050612 1.077014 0.012781
v -0.045041 1.074719 0.020556
v -0.038842 1.072505 0.028495
v -0.032600 1.070296 0.036446
v -0.026924 1.068015 0.044248
v -0.022382 1.065589 0.051754
v -0.019452 1.062956 0.058839
v -0.018481 1.060073 0.065412
v -0.019649 1.056916 0.071425
v -0.022956 1.053485 0.076879
v -0.028222 1.049804 0.081821
v -0.035101 1.045916 0.086342
v -0.043113 1.041884 0.090566
v -0.051691 1.037779 0.094642
v -0.060227 1.033679 0.098730
v -0.068134 1.029660 0.102981
v -0.074899 1.025787 0.107532
v -0.080139 1.022109 0.112481
v -0.083650 1.018652 0.117882
v -0.085492 1.015409 0.123719
v -0.084998 1.018480 0.117529
v -0.086173 1.021337 0.110903
v -0.089076 1.023973 0.103825
v -0.093505 1.026414 0.096349
v -0.099076 1.028708 0.088574
v -0.105276 1.030923 0.080634
v -0.111517 1.033132 0.072684
v -0.117193 1.035413 0.064881
v -0.121736 1.037839 0.057375
v -0.124665 1.040472 0.050290
v -0.125637 1.043355 0.043718
v -0.124469 1.046512 0.037704
v -0.121161 1.049943 0.032250
v -0.115895 1.053624 0.027308
v -0.109017 1.057512 0.022788
v -0.101004 1.061544 0.018563
v -0.092427 1.065649 0.014487
v -0.083891 1.069749 0.010400
v -0.075984 1.073768 0.006148
v -0.069218 1.077641 0.001598
v -0.063979 1.081319 -0.003351
v -0.060468 1.084776 -0.008752
f 41 42 43
f 41 43 42
f 41 43 44
f 41 44 43
f 41 44 45
f 41 45 44
f 41 45 46
f 41 46 45
f 41 46 47
f 41 47 46
f 41 47 48
f 41 48 47
f 41 48 49
f 41 49 48
f 41 49 50
f 41 50 49
f 41 50 51
f 41 51 50
f 41 51 52
f 41 52 51
f 41 52 53
f 41 53 52
f 41 53 54
f 41 54 53
f 41 54 55
f 41 55 54
f 41 55 56
f 41 56 55
f 41 56 57
f 41 57 56
f 41 57 58
f 41 58 57
f 41 58 59
f 41 59 58
f 41 59 60
f 41 60 59
f 41 60 61
f 41 61 60
f 41 61 62
f 41 62 61
f 41 62 63
f 41 63 62
f 41 63 64
f 41 64 63
f 41 64 65
f 41 65 64
f 41 65 66
f 41 66 65
f 41 66 67
f 41 67 66
f 41 67 68
f 41 68 67
f 41 68 69
f 41 69 68
f 41 69 70
f 41 70 69
f 41 70 71
f 41 71 70
f 41 71 72
f 41 72 71
f 41 72 73
f 41 73 72
f 41 73 74
f 41 74 73
f 41 74 75
f 41 75 74
f 41 75 76
f 41 76 75
f 41 76 77
f 41 77 76
f 41 77 78
f 41 78 77
f 41 78 79
f 41 79 78
f 41 79 80
f 41 80 79
f 41 80 81
f 41 81 80
f 41 81 82
f 41 82 81
f 41 82 83
f 41 83 82
f 41 83 84
f 41 84 83
f 41 84 85
f 41 85 84
f 41 85 86
f 41 86 85
v -0.058625 1.088019 -0.014589
v -0.054527 1.086673 -0.015635
v -0.050607 1.085280 -0.017531
v -0.046920 1.083826 -0.020523
v -0.043467 1.082311 -0.024630
v -0.040215 1.080744 -0.029685
v -0.037096 1.079141 -0.035374
v -0.034023 1.077527 -0.041280
v -0.030897 1.075926 -0.046934
v -0.027620 1.074365 -0.051871
v -0.024105 1.072866 -0.055683
v -0.020289 1.071446 -0.058070
v -0.016139 1.070114 -0.058872
v -0.011655 1.068869 -0.058090
v -0.006869 1.067702 -0.055882
v -0.001847 1.066598 -0.052550
v 0.003327 1.065534 -0.048501
v 0.008555 1.064483 -0.044199
v 0.013736 1.063421 -0.040114
v 0.018784 1.062323 -0.036664
v 0.023631 1.061173 -0.034162
v 0.028244 1.059962 -0.032774
v 0.032624 1.058689 -0.032483
v 0.036826 1.057370 -0.033042
v 0.032727 1.058716 -0.031996
v 0.028808 1.060109 -0.030100
v 0.025120 1.061563 -0.027107
v 0.021667 1.063078 -0.023001
v 0.018415 1.064645 -0.017946
v 0.015296 1.066248 -0.012257
v 0.012223 1.067863 -0.006351
v 0.009097 1.069463 -0.000697
v 0.005820 1.071024 0.004240
v 0.002305 1.072523 0.008052
v -0.001511 1.073943 0.010439
v -0.005661 1.075276 0.011241
v -0.010145 1.076521 0.010459
v -0.014930 1.077687 0.008251
v -0.019953 1.078791 0.004919
v -0.025127 1.079855 0.000870
v -0.030354 1.080906 -0.003432
v -0.035536 1.081969 -0.007517
v -0.040583 1.083066 -0.010967
v -0.045431 1.084216 -0.013469
v -0.050043 1.085428 -0.014857
v -0.054424 1.086700 -0.015148
f 87 88 89
f 87 89 88
f 87 89 90
f 87 90 89
f 87 90 91
f 87 91 90
f 87 91 92
f 87 92 91
f 87 92 93
f 87 93 92
f 87 93 94
f 87 94 93
f 87 94 95
f 87 95 94
f 87 95 96
f 87 96 95
f 87 96 97
f 87 97 96
f 87 97 98
f 87 98 97
f 87 98 99
f 87 99 98
f 87 99 100
f 87 100 99
f 87 100 101
f 87 101 100
f 87 101 102
f 87 102 101
f 87 102 103
f 87 103 102
f 87 103 104
f 87 104 103
f 87 104 105
f 87 105 104
f 87 105 106
f 87 106 105
f 87 106 107
f 87 107 106
f 87 107 108
f 87 108 107
f 87 108 109
f 87 109 108
f 87 109 110
f 87 110 109
f 87 110 111
f 87 111 110
f 87 111 112
f 87 112 111
f 87 112 113
f 87 113 112
f 87 113 114
f 87 114 113
f 87 114 115
f 87 115 114
f 87 115 116
f 87 116 115
f 87 116 117
f 87 117 116
f 87 117 118
f 87 118 117
f 87 118 119
f 87 119 118
f 87 119 120
f 87 120 119
f 87 120 121
f 87 121 120
f 87 121 122
f 87 122 121
f 87 122 123
f 87 123 122
f 87 123 124
f 87 124 123
f 87 124 125
f 87 125 124
f 87 125 126
f 87 126 125
f 87 126 127
f 87 127 126
f 87 127 128
f 87 128 127
f 87 128 129
f 87 129 128
f 87 129 130
f 87 130 129
f 87 130 131
f 87 131 130
f 87 131 132
f 87 132 131
v -0.058625 1.088019 -0.014589
v -0.062895 1.084244 -0.015735
v -0.067737 1.080443 -0.015494
v -0.073154 1.076614 -0.013859
v -0.079068 1.072761 -0.011020
v -0.085346 1.068890 -0.007297
v -0.091818 1.065011 -0.003105
v -0.098292 1.061131 0.001090
v -0.104570 1.057261 0.004812
v -0.110470 1.053409 0.007617
v -0.115838 1.049582 0.009133
v -0.120564 1.045786 0.009094
v -0.124590 1.042023 0.007358
v -0.127917 1.038294 0.003927
v -0.130602 1.034595 -0.001060
v -0.132755 1.030921 -0.007336
v -0.134529 1.027266 -0.014528
v -0.136108 1.023620 -0.022194
v -0.137689 1.019973 -0.029857
v -0.139463 1.016318 -0.037051
v -0.141602 1.012645 -0.043361
v -0.144238 1.008948 -0.048466
v -0.147449 1.005224 -0.052178
v -0.151232 1.001473 -0.054503
v -0.146962 1.005248 -0.053357
v -0.142120 1.009049 -0.053599
v -0.136703 1.012878 -0.055233
v -0.130789 1.016731 -0.058072
v -0.124511 1.020602 -0.061795
v -0.118039 1.024481 -0.065987
v -0.111565 1.028361 -0.070183
v -0.105287 1.032231 -0.073904
v -0.099387 1.036083 -0.076709
v -0.094019 1.039910 -0.078226
v -0.089293 1.043706 -0.078186
v -0.085267 1.047469 -0.076451
v -0.081940 1.051198 -0.073020
v -0.079255 1.054897 -0.068032
v -0.077103 1.058571 -0.061757
v -0.075328 1.062226 -0.054564
v -0.073749 1.065873 -0.046898
v -0.072168 1.069519 -0.039235
v -0.070394 1.073174 -0.032041
v -0.068255 1.076847 -0.025732
v -0.065619 1.080544 -0.020626
v -0.062409 1.084268 -0.016914
f 133 134 135
f 133 135 134
f 133 135 136
f 133 136 135
f 133 136 137
f 133 137 136
f 133 137 138
f 133 138 137
f 133 138 139
f 133 139 138
f 133 139 140
f 133 140 139
f 133 140 141
f 133 141 140
f 133 141 142
f 133 142 141
f 133 142 143
f 133 143 142
f 133 143 144
f 133 144 143
f 133 144 145
f 133 145 144
f 133 145 146
f 133 146 145
f 133 146 147
f 133 147 146
f 133 147 148
f 133 148 147
f 133 148 149
f 133 149 148
f 133 149 150
f 133 150 149
f 133 150 151
f 133 151 150
f 133 151 152
f 133 152 151
f 133 152 153
f 133 153 152
f 133 153 154
f 133 154 153
f 133 154 155
f 133 155 154
f 133 155 156
f 133 156 155
f 133 156 157
f 133 157 156
f 133 157 158
f 133 158 157
f 133 158 159
f 133 159 158
f 133 159 160
f 133 160 159
f 133 160 161
f 133 161 160
f 133 161 162
f 133 162 161
f 133 162 163
f 133 163 162
f 133 163 164
f 133 164 163
f 133 164 165
f 133 165 164
f 133 165 166
f 133 166 165
f 133 166 167
f 133 167 166
f 133 167 168
f 133 168 167
f 133 168 169
f 133 169 168
f 133 169 170
f 133 170 169
f 133 170 171
f 133 171 170
f 133 171 172
f 133 172 171
f 133 172 173
f 133 173 172
f 133 173 174
f 133 174 173
f 133 174 175
f 133 175 174
f 133 175 176
f 133 176 175
f 133 176 177
f 133 177 176
f 133 177 178
f 133 178 177
v -0.058625 1.088001 0.013761
v -0.045567 1.090818 0.003797
v -0.035758 1.092935 -0.006986
v -0.035758 1.092945 -0.022187
v -0.045567 1.090841 -0.032972
v -0.058625 1.088037 -0.042939
v -0.071684 1.085220 -0.032976
v -0.081493 1.083102 -0.022193
v -0.081493 1.083093 -0.006992
v -0.071684 1.085197 0.003794
v -0.137600 1.454981 0.011154
v -0.125847 1.457515 0.002187
v -0.117019 1.459421 -0.007518
v -0.117019 1.459430 -0.021199
v -0.125847 1.457536 -0.030906
v -0.137600 1.455012 -0.039876
v -0.149352 1.452478 -0.030909
v -0.158181 1.450572 -0.021204
v -0.158181 1.450563 -0.007524
v -0.149352 1.452457 0.002183
f 179 180 190
f 179 190 189
f 180 181 191
f 180 191 190
f 181 182 192
f 181 192 191
f 182 183 193
f 182 193 192
f 183 184 194
f 183 194 193
f 184 185 195
f 184 195 194
f 185 186 196
f 185 196 195
f 186 187 197
f 186 197 196
f 187 188 198
f 187 198 197
f 188 179 189
f 188 189 198
v -0.137600 1.454997 -0.014361
v -0.137720 1.453818 -0.009818
v -0.137332 1.452749 -0.005224
v -0.135993 1.451884 -0.000533
v -0.133429 1.451284 0.004283
v -0.129595 1.450956 0.009227
v -0.124701 1.450856 0.014279
v -0.119187 1.450890 0.019394
v -0.113654 1.450927 0.024512
v -0.108772 1.450825 0.029563
v -0.105170 1.450447 0.034484
v -0.103338 1.449689 0.039225
v -0.103541 1.448493 0.043759
v -0.105780 1.446858 0.048087
v -0.109788 1.444843 0.052234
v -0.115078 1.442553 0.056252
v -0.121017 1.440122 0.060203
v -0.126938 1.437696 0.064157
v -0.132238 1.435403 0.068173
v -0.136479 1.433338 0.072297
v -0.139450 1.431546 0.076550
v -0.141195 1.430018 0.080928
v -0.141990 1.428695 0.085402
v -0.142277 1.427480 0.089928
v -0.142157 1.428659 0.085385
v -0.142545 1.429728 0.080791
v -0.143883 1.430592 0.076100
v -0.146448 1.431193 0.071284
v -0.150282 1.431521 0.066340
v -0.155175 1.431621 0.061288
v -0.160689 1.431587 0.056172
v -0.166223 1.431550 0.051055
v -0.171105 1.431652 0.046004
v -0.174707 1.432029 0.041083
v -0.176539 1.432788 0.036342
v -0.176335 1.433984 0.031808
v -0.174097 1.435619 0.027480
v -0.170088 1.437633 0.023332
v -0.164799 1.439924 0.019315
v -0.158859 1.442355 0.015364
v -0.152939 1.444781 0.011410
v -0.147639 1.447074 0.007394
v -0.143398 1.449139 0.003270
v -0.140427 1.450931 -0.000983
v -0.138681 1.452459 -0.005361
v -0.137887 1.453782 -0.009835
f 199 200 201
f 199 201 200
f 199 201 202
f 199 202 201
f 199 202 203
f 199 203 202
f 199 203 204
f 199 204 203
f 199 204 205
f 199 205 204
f 199 205 206
f 199 206 205
f 199 206 207
f 199 207 206
f 199 207 208
f 199 208 207
f 199 208 209
f 199 209 208
f 199 209 210
f 199 210 209
f 199 210 211
f 199 211 210
f 199 211 212
f 199 212 211
f 199 212 213
f 199 213 212
f 199 213 214
f 199 214 213
f 199 214 215
f 199 215 214
f 199 215 216
f 199 216 215
f 199 216 217
f 199 217 216
f 199 217 218
f 199 218 217
f 199 218 219
f 199 219 218
f 199 219 220
f 199 220 219
f 199 220 221
f 199 221 220
f 199 221 222
f 199 222 221
f 199 222 223
f 199 223 222
f 199 223 224
f 199 224 223
f 199 224 225
f 199 225 224
f 199 225 226
f 199 226 225
f 199 226 227
f 199 227 226
f 199 227 228
f 199 228 227
f 199 228 229
f 199 229 228
f 199 229 230
f 199 230 229
f 199 230 231
f 199 231 230
f 199 231 232
f 199 232 231
f 199 232 233
f 199 233 232
f 199 233 234
f 199 234 233
f 199 234 235
f 199 235 234
f 199 235 236
f 199 236 235
f 199 236 237
f 199 237 236
f 199 237 238
f 199 238 237
f 199 238 239
f 199 239 238
f 199 239 240
f 199 240 239
f 199 240 241
f 199 241 240
f 199 241 242
f 199 242 241
f 199 242 243
f 199 243 242
f 199 243 244
f 199 244 243
v -0.137600 1.454997 -0.014361
v -0.132960 1.453924 -0.011882
v -0.128069 1.452905 -0.009832
v -0.122662 1.451997 -0.008672
v -0.116543 1.451244 -0.008735
v -0.109651 1.450658 -0.010128
v -0.102082 1.450218 -0.012686
v -0.094083 1.449871 -0.015982
v -0.086021 1.449538 -0.019388
v -0.078316 1.449128 -0.022178
v -0.071375 1.448553 -0.023657
v -0.065514 1.447743 -0.023276
v -0.060910 1.446663 -0.020735
v -0.057561 1.445310 -0.016033
v -0.055294 1.443724 -0.009472
v -0.053790 1.441972 -0.001599
v -0.052643 1.440144 0.006889
v -0.051433 1.438329 0.015268
v -0.049793 1.436607 0.022909
v -0.047476 1.435031 0.029384
v -0.044386 1.433623 0.034529
v -0.040584 1.432368 0.038452
v -0.036266 1.431226 0.041485
v -0.031697 1.430137 0.044088
v -0.036337 1.431210 0.041608
v -0.041228 1.432229 0.039559
v -0.046635 1.433136 0.038399
v -0.052754 1.433890 0.038461
v -0.059646 1.434476 0.039854
v -0.067215 1.434916 0.042413
v -0.075214 1.435262 0.045708
v -0.083276 1.435595 0.049114
v -0.090981 1.436006 0.051905
v -0.097922 1.436581 0.053384
v -0.103783 1.437390 0.053002
v -0.108387 1.438471 0.050461
v -0.111736 1.439824 0.045760
v -0.114003 1.441410 0.039199
v -0.115507 1.443161 0.031325
v -0.116654 1.444990 0.022837
v -0.117864 1.446805 0.014459
v -0.119504 1.448527 0.006818
v -0.121821 1.450103 0.000342
v -0.124911 1.451511 -0.004803
v -0.128713 1.452765 -0.008725
v -0.133031 1.453908 -0.011758
f 245 246 247
f 245 247 246
f 245 247 248
f 245 248 247
f 245 248 249
f 245 249 248
f 245 249 250
f 245 250 249
f 245 250 251
f 245 251 250
f 245 251 252
f 245 252 251
f 245 252 253
f 245 253 252
f 245 253 254
f 245 254 253
f 245 254 255
f 245 255 254
f 245 255 256
f 245 256 255
f 245 256 257
f 245 257 256
f 245 257 258
f 245 258 257
f 245 258 259
f 245 259 258
f 245 259 260
f 245 260 259
f 245 260 261
f 245 261 260
f 245 261 262
f 245 262 261
f 245 262 263
f 245 263 262
f 245 263 264
f 245 264 263
f 245 264 265
f 245 265 264
f 245 265 266
f 245 266 265
f 245 266 267
f 245 267 266
f 245 267 268
f 245 268 267
f 245 268 269
f 245 269 268
f 245 269 270
f 245 270 269
f 245 270 271
f 245 271 270
f 245 271 272
f 245 272 271
f 245 272 273
f 245 273 272
f 245 273 274
f 245 274 273
f 245 274 275
f 245 275 274
f 245 275 276
f 245 276 275
f 245 276 277
f 245 277 276
f 245 277 278
f 245 278 277
f 245 278 279
f 245 279 278
f 245 279 280
f 245 280 279
f 245 280 281
f 245 281 280
f 245 281 282
f 245 282 281
f 245 282 283
f 245 283 282
f 245 283 284
f 245 284 283
f 245 284 285
f 245 285 284
f 245 285 286
f 245 286 285
f 245 286 287
f 245 287 286
f 245 287 288
f 245 288 287
f 245 288 289
f 245 289 288
f 245 289 290
f 245 290 289
v -0.137600 1.454997 -0.014361
v -0.135373 1.453135 -0.017851
v -0.134176 1.451053 -0.022207
v -0.133807 1.448793 -0.027259
v -0.134057 1.446399 -0.032831
v -0.134694 1.443923 -0.038729
v -0.135465 1.441418 -0.044740
v -0.136118 1.438939 -0.050651
v -0.136408 1.436537 -0.056257
v -0.136121 1.434259 -0.061378
v -0.135080 1.432143 -0.065865
v -0.133163 1.430215 -0.069615
v -0.130304 1.428489 -0.072574
v -0.126505 1.426966 -0.074742
v -0.121829 1.425630 -0.076172
v -0.116399 1.424456 -0.076969
v -0.110392 1.423406 -0.077280
v -0.104023 1.422434 -0.077287
v -0.097534 1.421488 -0.077194
v -0.091181 1.420512 -0.077214
v -0.085214 1.419454 -0.077559
v -0.079866 1.418262 -0.078424
v -0.075347 1.416893 -0.079986
v -0.071857 1.415303 -0.082414
v -0.074084 1.417164 -0.078924
v -0.075281 1.419247 -0.074569
v -0.075650 1.421507 -0.069517
v -0.075399 1.423900 -0.063944
v -0.074763 1.426376 -0.058047
v -0.073992 1.428881 -0.052035
v -0.073339 1.431361 -0.046125
v -0.073049 1.433763 -0.040518
v -0.073336 1.436040 -0.035397
v -0.074377 1.438156 -0.030910
v -0.076294 1.440084 -0.027160
v -0.079152 1.441810 -0.024201
v -0.082952 1.443334 -0.022034
v -0.087628 1.444669 -0.020603
v -0.093057 1.445843 -0.019806
v -0.099065 1.446893 -0.019495
v -0.105434 1.447865 -0.019488
v -0.111922 1.448812 -0.019582
v -0.118275 1.449787 -0.019561
v -0.124243 1.450846 -0.019217
v -0.129590 1.452037 -0.018351
v -0.134110 1.453406 -0.016789
f 291 292 293
f 291 293 292
f 291 293 294
f 291 294 293
f 291 294 295
f 291 295 294
f 291 295 296
f 291 296 295
f 291 296 297
f 291 297 296
f 291 297 298
f 291 298 297
f 291 298 299
f 291 299 298
f 291 299 300
f 291 300 299
f 291 300 301
f 291 301 300
f 291 301 302
f 291 302 301
f 291 302 303
f 291 303 302
f 291 303 304
f 291 304 303
f 291 304 305
f 291 305 304
f 291 305 306
f 291 306 305
f 291 306 307
f 291 307 306
f 291 307 308
f 291 308 307
f 291 308 309
f 291 309 308
f 291 309 310
f 291 310 309
f 291 310 311
f 291 311 310
f 291 311 312
f 291 312 311
f 291 312 313
f 291 313 312
f 291 313 314
f 291 314 313
f 291 314 315
f 291 315 314
f 291 315 316
f 291 316 315
f 291 316 317
f 291 317 316
f 291 317 318
f 291 318 317
f 291 318 319
f 291 319 318
f 291 319 320
f 291 320 319
f 291 320 321
f 291 321 320
f 291 321 322
f 291 322 321
f 291 322 323
f 291 323 322
f 291 323 324
f 291 324 323
f 291 324 325
f 291 325 324
f 291 325 326
f 291 326 325
f 291 326 327
f 291 327 326
f 291 327 328
f 291 328 327
f 291 328 329
f 291 329 328
f 291 329 330
f 291 330 329
f 291 330 331
f 291 331 330
f 291 331 332
f 291 332 331
f 291 332 333
f 291 333 332
f 291 333 334
f 291 334 333
f 291 334 335
f 291 335 334
f 291 335 336
f 291 336 335
v -0.137600 1.454997 -0.014361
v -0.141471 1.452670 -0.018781
v -0.146265 1.450144 -0.022389
v -0.152247 1.447362 -0.024953
v -0.159429 1.444320 -0.026461
v -0.167631 1.441059 -0.027074
v -0.176512 1.437651 -0.027089
v -0.185622 1.434194 -0.026902
v -0.194456 1.430797 -0.026958
v -0.202515 1.427566 -0.027696
v -0.209360 1.424598 -0.029501
v -0.214670 1.421961 -0.032656
v -0.218273 1.419692 -0.037311
v -0.220170 1.417791 -0.043467
v -0.220531 1.416221 -0.050972
v -0.219680 1.414913 -0.059544
v -0.218052 1.413773 -0.068798
v -0.216149 1.412692 -0.078295
v -0.214475 1.411561 -0.087591
v -0.213480 1.410284 -0.096289
v -0.213504 1.408787 -0.104091
v -0.214729 1.407031 -0.110837
v -0.217141 1.405019 -0.116539
v -0.220477 1.402808 -0.121430
v -0.216606 1.405135 -0.117009
v -0.211812 1.407661 -0.113402
v -0.205830 1.410443 -0.110838
v -0.198648 1.413484 -0.109329
v -0.190446 1.416745 -0.108717
v -0.181565 1.420153 -0.108702
v -0.172455 1.423610 -0.108889
v -0.163621 1.427008 -0.108833
v -0.155562 1.430238 -0.108094
v -0.148717 1.433207 -0.106290
v -0.143407 1.435844 -0.103135
v -0.139804 1.438113 -0.098480
v -0.137907 1.440014 -0.092324
v -0.137546 1.441583 -0.084819
v -0.138397 1.442891 -0.076247
v -0.140025 1.444032 -0.066992
v -0.141928 1.445113 -0.057495
v -0.143602 1.446243 -0.048200
v -0.144597 1.447520 -0.039502
v -0.144573 1.449017 -0.031700
v -0.143348 1.450773 -0.024954
v -0.140936 1.452785 -0.019251
f 337 338 339
f 337 339 338
f 337 339 340
f 337 340 339
f 337 340 341
f 337 341 340
f 337 341 342
f 337 342 341
f 337 342 343
f 337 343 342
f 337 343 344
f 337 344 343
f 337 344 345
f 337 345 344
f 337 345 346
f 337 346 345
f 337 346 347
f 337 347 346
f 337 347 348
f 337 348 347
f 337 348 349
f 337 349 348
f 337 349 350
f 337 350 349
f 337 350 351
f 337 351 350
f 337 351 352
f 337 352 351
f 337 352 353
f 337 353 352
f 337 353 354
f 337 354 353
f 337 354 355
f 337 355 354
f 337 355 356
f 337 356 355
f 337 356 357
f 337 357 356
f 337 357 358
f 337 358 357
f 337 358 359
f 337 359 358
f 337 359 360
f 337 360 359
f 337 360 361
f 337 361 360
f 337 361 362
f 337 362 361
f 337 362 363
f 337 363 362
f 337 363 364
f 337 364 363
f 337 364 365
f 337 365 364
f 337 365 366
f 337 366 365
f 337 366 367
f 337 367 366
f 337 367 368
f 337 368 367
f 337 368 369
f 337 369 368
f 337 369 370
f 337 370 369
f 337 370 371
f 337 371 370
f 337 371 372
f 337 372 371
f 337 372 373
f 337 373 372
f 337 373 374
f 337 374 373
f 337 374 375
f 337 375 374
f 337 375 376
f 337 376 375
f 337 376 377
f 337 377 376
f 337 377 378
f 337 378 377
f 337 378 379
f 337 379 378
f 337 379 380
f 337 380 379
f 337 380 381
f 337 381 380
f 337 381 382
f 337 382 381
v -0.137600 1.454997 -0.014361
v -0.141940 1.452261 -0.013641
v -0.146205 1.449541 -0.012318
v -0.150333 1.446850 -0.009900
v -0.154288 1.444195 -0.006099
v -0.158067 1.441577 -0.000890
v -0.161701 1.438990 0.005475
v -0.165253 1.436420 0.012500
v -0.168807 1.433849 0.019515
v -0.172453 1.431259 0.025784
v -0.176279 1.428632 0.030618
v -0.180350 1.425953 0.033488
v -0.184703 1.423214 0.034104
v -0.189338 1.420416 0.032467
v -0.194219 1.417567 0.028864
v -0.199279 1.414680 0.023828
v -0.204432 1.411773 0.018045
v -0.209586 1.408866 0.012253
v -0.214658 1.405977 0.007120
v -0.219585 1.403118 0.003143
v -0.224336 1.400295 0.000575
v -0.228915 1.397510 -0.000611
v -0.233356 1.394753 -0.000701
v -0.237722 1.392011 -0.000189
v -0.233382 1.394747 -0.000910
v -0.229117 1.397467 -0.002233
v -0.224990 1.400158 -0.004651
v -0.221035 1.402813 -0.008452
v -0.217256 1.405431 -0.013661
v -0.213621 1.408018 -0.020026
v -0.210069 1.410588 -0.027050
v -0.206516 1.413158 -0.034065
v -0.202869 1.415748 -0.040334
v -0.199044 1.418376 -0.045169
v -0.194972 1.421055 -0.048039
v -0.190619 1.423794 -0.048655
v -0.185984 1.426592 -0.047018
v -0.181104 1.429441 -0.043415
v -0.176044 1.432328 -0.038378
v -0.170891 1.435235 -0.032596
v -0.165736 1.438141 -0.026804
v -0.160665 1.441031 -0.021671
v -0.155737 1.443890 -0.017694
v -0.150986 1.446712 -0.015126
v -0.146408 1.449498 -0.013940
v -0.141966 1.452255 -0.013849
f 383 384 385
f 383 385 384
f 383 385 386
f 383 386 385
f 383 386 387
f 383 387 386
f 383 387 388
f 383 388 387
f 383 388 389
f 383 389 388
f 383 389 390
f 383 390 389
f 383 390 391
f 383 391 390
f 383 391 392
f 383 392 391
f 383 392 393
f 383 393 392
f 383 393 394
f 383 394 393
f 383 394 395
f 383 395 394
f 383 395 396
f 383 396 395
f 383 396 397
f 383 397 396
f 383 397 398
f 383 398 397
f 383 398 399
f 383 399 398
f 383 399 400
f 383 400 399
f 383 400 401
f 383 401 400
f 383 401 402
f 383 402 401
f 383 402 403
f 383 403 402
f 383 403 404
f 383 404 403
f 383 404 405
f 383 405 404
f 383 405 406
f 383 406 405
f 383 406 407
f 383 407 406
f 383 407 408
f 383 408 407
f 383 408 409
f 383 409 408
f 383 409 410
f 383 410 409
f 383 410 411
f 383 411 410
f 383 411 412
f 383 412 411
f 383 412 413
f 383 413 412
f 383 413 414
f 383 414 413
f 383 414 415
f 383 415 414
f 383 415 416
f 383 416 415
f 383 416 417
f 383 417 416
f 383 417 418
f 383 418 417
f 383 418 419
f 383 419 418
f 383 419 420
f 383 420 419
f 383 420 421
f 383 421 420
f 383 421 422
f 383 422 421
f 383 422 423
f 383 423 422
f 383 423 424
f 383 424 423
f 383 424 425
f 383 425 424
f 383 425 426
f 383 426 425
f 383 426 427
f 383 427 426
f 383 427 428
f 383 428 427
