o mesh
v 0.000000 0.000000 0.008000 0.200 0.440 0.170
v 0.006928 0.000000 0.004000 0.200 0.440 0.170
v 0.006928 0.000000 -0.004000 0.200 0.440 0.170
v 0.000000 0.000000 -0.008000 0.200 0.440 0.170
v -0.006928 0.000000 -0.004000 0.200 0.440 0.170
v -0.006928 0.000000 0.004000 0.200 0.440 0.170
v 0.000000 0.406677 0.006000 0.200 0.440 0.170
v 0.005196 0.406677 0.003000 0.200 0.440 0.170
v 0.005196 0.406677 -0.003000 0.200 0.440 0.170
v 0.000000 0.406677 -0.006000 0.200 0.440 0.170
v -0.005196 0.406677 -0.003000 0.200 0.440 0.170
v -0.005196 0.406677 0.003000 0.200 0.440 0.170
f 1 2 8
f 1 8 7
f 2 3 9
f 2 9 8
f 3 4 10
f 3 10 9
f 4 5 11
f 4 11 10
f 5 6 12
f 5 12 11
f 6 1 7
f 6 7 12
v 0.000000 0.408798 0.026004 1.000 0.849 0.853
v 0.000573 0.408901 0.026831 1.000 0.849 0.853
v 0.001261 0.409243 0.029493 1.000 0.849 0.853
v 0.002220 0.409941 0.034585 1.000 0.849 0.853
v 0.003701 0.411243 0.043193 1.000 0.849 0.853
v 0.006063 0.413534 0.056523 1.000 0.849 0.853
v 0.009406 0.416769 0.072954 1.000 0.849 0.853
v 0.012304 0.418677 0.081635 1.000 0.849 0.853
v 0.012515 0.416769 0.072485 1.000 0.849 0.853
v 0.010867 0.413534 0.055799 1.000 0.849 0.853
v 0.009194 0.411243 0.042365 1.000 0.849 0.853
v 0.008072 0.409941 0.033703 1.000 0.849 0.853
v 0.007488 0.409243 0.028555 1.000 0.849 0.853
v 0.007360 0.408901 0.025808 1.000 0.849 0.853
v 0.007665 0.408798 0.024848 1.000 0.849 0.853
v 0.008457 0.408901 0.025470 1.000 0.849 0.853
v 0.009899 0.409243 0.027811 1.000 0.849 0.853
v 0.012316 0.409941 0.032394 1.000 0.849 0.853
v 0.016268 0.411243 0.040183 1.000 0.849 0.853
v 0.022454 0.413534 0.052225 1.000 0.849 0.853
v 0.030492 0.416769 0.066940 1.000 0.849 0.853
v 0.035820 0.418677 0.074381 1.000 0.849 0.853
v 0.033324 0.416769 0.065576 1.000 0.849 0.853
v 0.026831 0.413534 0.050117 1.000 0.849 0.853
v 0.021273 0.411243 0.037773 1.000 0.849 0.853
v 0.017648 0.409941 0.029826 1.000 0.849 0.853
v 0.015572 0.409243 0.025079 1.000 0.849 0.853
v 0.014640 0.408901 0.022492 1.000 0.849 0.853
v 0.014648 0.408798 0.021485 1.000 0.849 0.853
v 0.015588 0.408901 0.021846 1.000 0.849 0.853
v 0.017656 0.409243 0.023658 1.000 0.849 0.853
v 0.021317 0.409941 0.027325 1.000 0.849 0.853
v 0.027390 0.411243 0.033603 1.000 0.849 0.853
v 0.036850 0.413534 0.043286 1.000 0.849 0.853
v 0.048868 0.416769 0.054979 1.000 0.849 0.853
v 0.056153 0.418677 0.060518 1.000 0.849 0.853
v 0.051173 0.416769 0.052840 1.000 0.849 0.853
v 0.040411 0.413534 0.039982 1.000 0.849 0.853
v 0.031462 0.411243 0.029824 1.000 0.849 0.853
v 0.025655 0.409941 0.023299 1.000 0.849 0.853
v 0.022272 0.409243 0.019375 1.000 0.849 0.853
v 0.020620 0.408901 0.017177 1.000 0.849 0.853
v 0.020331 0.408798 0.016213 1.000 0.849 0.853
v 0.021335 0.408901 0.016280 1.000 0.849 0.853
v 0.023845 0.409243 0.017403 1.000 0.849 0.853
v 0.028424 0.409941 0.019827 1.000 0.849 0.853
v 0.036077 0.411243 0.024036 1.000 0.849 0.853
v 0.047972 0.413534 0.030501 1.000 0.849 0.853
v 0.062902 0.416769 0.038132 1.000 0.849 0.853
v 0.071496 0.418677 0.041278 1.000 0.849 0.853
v 0.064474 0.416769 0.035409 1.000 0.849 0.853
v 0.050401 0.413534 0.026294 1.000 0.849 0.853
v 0.038855 0.411243 0.019226 1.000 0.849 0.853
v 0.031383 0.409941 0.014702 1.000 0.849 0.853
v 0.026994 0.409243 0.011949 1.000 0.849 0.853
v 0.024767 0.408901 0.010336 1.000 0.849 0.853
v 0.024206 0.408798 0.009500 1.000 0.849 0.853
v 0.025186 0.408901 0.009269 1.000 0.849 0.853
v 0.027916 0.409243 0.009601 1.000 0.849 0.853
v 0.033005 0.409941 0.010568 1.000 0.849 0.853
v 0.041559 0.411243 0.012335 1.000 0.849 0.853
v 0.054831 0.413534 0.015006 1.000 0.849 0.853
v 0.071347 0.416769 0.017897 1.000 0.849 0.853
v 0.080487 0.418677 0.018371 1.000 0.849 0.853
v 0.072047 0.416769 0.014832 1.000 0.849 0.853
v 0.055912 0.413534 0.010270 1.000 0.849 0.853
v 0.042795 0.411243 0.006919 1.000 0.849 0.853
v 0.034322 0.409941 0.004799 1.000 0.849 0.853
v 0.029317 0.409243 0.003462 1.000 0.849 0.853
v 0.026713 0.408901 0.002577 1.000 0.849 0.853
v 0.025931 0.408798 0.001943 1.000 0.849 0.853
v 0.026799 0.408901 0.001433 1.000 0.849 0.853
v 0.029505 0.409243 0.000946 1.000 0.849 0.853
v 0.034654 0.409941 0.000370 1.000 0.849 0.853
v 0.043349 0.411243 -0.000463 1.000 0.849 0.853
v 0.056818 0.413534 -0.001822 1.000 0.849 0.853
v 0.073453 0.416769 -0.003928 1.000 0.849 0.853
v 0.082326 0.418677 -0.006169 1.000 0.849 0.853
v 0.073218 0.416769 -0.007063 1.000 0.849 0.853
v 0.056455 0.413534 -0.006667 1.000 0.849 0.853
v 0.042934 0.411243 -0.006003 1.000 0.849 0.853
v 0.034212 0.409941 -0.005531 1.000 0.849 0.853
v 0.029035 0.409243 -0.005333 1.000 0.849 0.853
v 0.026286 0.408901 -0.005411 1.000 0.849 0.853
v 0.025352 0.408798 -0.005786 1.000 0.849 0.853
v 0.026030 0.408901 -0.006530 1.000 0.849 0.853
v 0.028473 0.409243 -0.007793 1.000 0.849 0.853
v 0.033224 0.409941 -0.009861 1.000 0.849 0.853
v 0.041286 0.411243 -0.013220 1.000 0.849 0.853
v 0.053757 0.413534 -0.018489 1.000 0.849 0.853
v 0.069032 0.416769 -0.025404 1.000 0.849 0.853
v 0.076850 0.418677 -0.030161 1.000 0.849 0.853
v 0.067883 0.416769 -0.028331 1.000 0.849 0.853
v 0.051982 0.413534 -0.023011 1.000 0.849 0.853
v 0.039257 0.411243 -0.018391 1.000 0.849 0.853
v 0.031062 0.409941 -0.015370 1.000 0.849 0.853
v 0.026173 0.409243 -0.013654 1.000 0.849 0.853
v 0.023523 0.408901 -0.012919 1.000 0.849 0.853
v 0.022520 0.408798 -0.013002 1.000 0.849 0.853
v 0.022949 0.408901 -0.013912 1.000 0.849 0.853
v 0.024911 0.409243 -0.015839 1.000 0.849 0.853
v 0.028841 0.409941 -0.019215 1.000 0.849 0.853
v 0.035555 0.411243 -0.024802 1.000 0.849 0.853
v 0.045919 0.413534 -0.033512 1.000 0.849 0.853
v 0.058477 0.416769 -0.044623 1.000 0.849 0.853
v 0.064545 0.418677 -0.051473 1.000 0.849 0.853
v 0.056517 0.416769 -0.047081 1.000 0.849 0.853
v 0.042890 0.413534 -0.037311 1.000 0.849 0.853
v 0.032092 0.411243 -0.029145 1.000 0.849 0.853
v 0.025151 0.409941 -0.023842 1.000 0.849 0.853
v 0.020985 0.409243 -0.020762 1.000 0.849 0.853
v 0.018670 0.408901 -0.019278 1.000 0.849 0.853
v 0.017687 0.408798 -0.019062 1.000 0.849 0.853
v 0.017829 0.408901 -0.020058 1.000 0.849 0.853
v 0.019136 0.409243 -0.022478 1.000 0.849 0.853
v 0.021896 0.409941 -0.026863 1.000 0.849 0.853
v 0.026665 0.411243 -0.034180 1.000 0.849 0.853
v 0.034001 0.413534 -0.045558 1.000 0.849 0.853
v 0.042726 0.416769 -0.059877 1.000 0.849 0.853
v 0.046506 0.418677 -0.068212 1.000 0.849 0.853
v 0.040128 0.416769 -0.061648 1.000 0.849 0.853
v 0.029987 0.413534 -0.048295 1.000 0.849 0.853
v 0.022076 0.411243 -0.037309 1.000 0.849 0.853
v 0.017006 0.409941 -0.030197 1.000 0.849 0.853
v 0.013933 0.409243 -0.026025 1.000 0.849 0.853
v 0.012158 0.408901 -0.023925 1.000 0.849 0.853
v 0.011283 0.408798 -0.023429 1.000 0.849 0.853
v 0.011125 0.408901 -0.024423 1.000 0.849 0.853
v 0.011660 0.409243 -0.027120 1.000 0.849 0.853
v 0.013005 0.409941 -0.032123 1.000 0.849 0.853
v 0.015406 0.411243 -0.040521 1.000 0.849 0.853
v 0.019062 0.413534 -0.053556 1.000 0.849 0.853
v 0.023179 0.416769 -0.069810 1.000 0.849 0.853
v 0.024334 0.418677 -0.078889 1.000 0.849 0.853
v 0.020175 0.416769 -0.070737 1.000 0.849 0.853
v 0.014420 0.413534 -0.054988 1.000 0.849 0.853
v 0.010098 0.411243 -0.042159 1.000 0.849 0.853
v 0.007350 0.409941 -0.033868 1.000 0.849 0.853
v 0.005643 0.409243 -0.028976 1.000 0.849 0.853
v 0.004566 0.408901 -0.026446 1.000 0.849 0.853
v 0.003876 0.408798 -0.025713 1.000 0.849 0.853
v 0.003432 0.408901 -0.026617 1.000 0.849 0.853
v 0.003148 0.409243 -0.029352 1.000 0.849 0.853
v 0.002959 0.409941 -0.034530 1.000 0.849 0.853
v 0.002778 0.411243 -0.043262 1.000 0.849 0.853
v 0.002429 0.413534 -0.056796 1.000 0.849 0.853
v 0.001572 0.416769 -0.073541 1.000 0.849 0.853
v 0.000000 0.418677 -0.082557 1.000 0.849 0.853
v -0.001572 0.416769 -0.073541 1.000 0.849 0.853
v -0.002429 0.413534 -0.056796 1.000 0.849 0.853
v -0.002778 0.411243 -0.043262 1.000 0.849 0.853
v -0.002959 0.409941 -0.034530 1.000 0.849 0.853
v -0.003148 0.409243 -0.029352 1.000 0.849 0.853
v -0.003432 0.408901 -0.026617 1.000 0.849 0.853
v -0.003876 0.408798 -0.025713 1.000 0.849 0.853
v -0.004566 0.408901 -0.026446 1.000 0.849 0.853
v -0.005643 0.409243 -0.028976 1.000 0.849 0.853
v -0.007350 0.409941 -0.033868 1.000 0.849 0.853
v -0.010098 0.411243 -0.042159 1.000 0.849 0.853
v -0.014420 0.413534 -0.054988 1.000 0.849 0.853
v -0.020175 0.416769 -0.070737 1.000 0.849 0.853
v -0.024334 0.418677 -0.078889 1.000 0.849 0.853
v -0.023179 0.416769 -0.069810 1.000 0.849 0.853
v -0.019062 0.413534 -0.053556 1.000 0.849 0.853
v -0.015406 0.411243 -0.040521 1.000 0.849 0.853
v -0.013005 0.409941 -0.032123 1.000 0.849 0.853
v -0.011660 0.409243 -0.027120 1.000 0.849 0.853
v -0.011125 0.408901 -0.024423 1.000 0.849 0.853
v -0.011283 0.408798 -0.023429 1.000 0.849 0.853
v -0.012158 0.408901 -0.023925 1.000 0.849 0.853
v -0.013933 0.409243 -0.026025 1.000 0.849 0.853
v -0.017006 0.409941 -0.030197 1.000 0.849 0.853
v -0.022076 0.411243 -0.037309 1.000 0.849 0.853
v -0.029987 0.413534 -0.048295 1.000 0.849 0.853
v -0.040128 0.416769 -0.061648 1.000 0.849 0.853
v -0.046506 0.418677 -0.068212 1.000 0.849 0.853
v -0.042726 0.416769 -0.059877 1.000 0.849 0.853
v -0.034001 0.413534 -0.045558 1.000 0.849 0.853
v -0.026665 0.411243 -0.034180 1.000 0.849 0.853
v -0.021896 0.409941 -0.026863 1.000 0.849 0.853
v -0.019136 0.409243 -0.022478 1.000 0.849 0.853
v -0.017829 0.408901 -0.020058 1.000 0.849 0.853
v -0.017687 0.408798 -0.019062 1.000 0.849 0.853
v -0.018670 0.408901 -0.019278 1.000 0.849 0.853
v -0.020985 0.409243 -0.020762 1.000 0.849 0.853
v -0.025151 0.409941 -0.023842 1.000 0.849 0.853
v -0.032092 0.411243 -0.029145 1.000 0.849 0.853
v -0.042890 0.413534 -0.037311 1.000 0.849 0.853
v -0.056517 0.416769 -0.047081 1.000 0.849 0.853
v -0.064545 0.418677 -0.051473 1.000 0.849 0.853
v -0.058477 0.416769 -0.044623 1.000 0.849 0.853
v -0.045919 0.413534 -0.033512 1.000 0.849 0.853
v -0.035555 0.411243 -0.024802 1.000 0.849 0.853
v -0.028841 0.409941 -0.019215 1.000 0.849 0.853
v -0.024911 0.409243 -0.015839 1.000 0.849 0.853
v -0.022949 0.408901 -0.013912 1.000 0.849 0.853
v -0.022520 0.408798 -0.013002 1.000 0.849 0.853
v -0.023523 0.408901 -0.012919 1.000 0.849 0.853
v -0.026173 0.409243 -0.013654 1.000 0.849 0.853
v -0.031062 0.409941 -0.015370 1.000 0.849 0.853
v -0.039257 0.411243 -0.018391 1.000 0.849 0.853
v -0.051982 0.413534 -0.023011 1.000 0.849 0.853
v -0.067883 0.416769 -0.028331 1.000 0.849 0.853
v -0.076850 0.418677 -0.030161 1.000 0.849 0.853
v -0.069032 0.416769 -0.025404 1.000 0.849 0.853
v -0.053757 0.413534 -0.018489 1.000 0.849 0.853
v -0.041286 0.411243 -0.013220 1.000 0.849 0.853
v -0.033224 0.409941 -0.009861 1.000 0.849 0.853
v -0.028473 0.409243 -0.007793 1.000 0.849 0.853
v -0.026030 0.408901 -0.006530 1.000 0.849 0.853
v -0.025352 0.408798 -0.005786 1.000 0.849 0.853
v -0.026286 0.408901 -0.005411 1.000 0.849 0.853
v -0.029035 0.409243 -0.005333 1.000 0.849 0.853
v -0.034212 0.409941 -0.005531 1.000 0.849 0.853
v -0.042934 0.411243 -0.006003 1.000 0.849 0.853
v -0.056455 0.413534 -0.006667 1.000 0.849 0.853
v -0.073218 0.416769 -0.007063 1.000 0.849 0.853
v -0.082326 0.418677 -0.006169 1.000 0.849 0.853
v -0.073453 0.416769 -0.003928 1.000 0.849 0.853
v -0.056818 0.413534 -0.001822 1.000 0.849 0.853
v -0.043349 0.411243 -0.000463 1.000 0.849 0.853
v -0.034654 0.409941 0.000370 1.000 0.849 0.853
v -0.029505 0.409243 0.000946 1.000 0.849 0.853
v -0.026799 0.408901 0.001433 1.000 0.849 0.853
v -0.025931 0.408798 0.001943 1.000 0.849 0.853
v -0.026713 0.408901 0.002577 1.000 0.849 0.853
v -0.029317 0.409243 0.003462 1.000 0.849 0.853
v -0.034322 0.409941 0.004799 1.000 0.849 0.853
v -0.042795 0.411243 0.006919 1.000 0.849 0.853
v -0.055912 0.413534 0.010270 1.000 0.849 0.853
v -0.072047 0.416769 0.014832 1.000 0.849 0.853
v -0.080487 0.418677 0.018371 1.000 0.849 0.853
v -0.071347 0.416769 0.017897 1.000 0.849 0.853
v -0.054831 0.413534 0.015006 1.000 0.849 0.853
v -0.041559 0.411243 0.012335 1.000 0.849 0.853
v -0.033005 0.409941 0.010568 1.000 0.849 0.853
v -0.027916 0.409243 0.009601 1.000 0.849 0.853
v -0.025186 0.408901 0.009269 1.000 0.849 0.853
v -0.024206 0.408798 0.009500 1.000 0.849 0.853
v -0.024767 0.408901 0.010336 1.000 0.849 0.853
v -0.026994 0.409243 0.011949 1.000 0.849 0.853
v -0.031383 0.409941 0.014702 1.000 0.849 0.853
v -0.038855 0.411243 0.019226 1.000 0.849 0.853
v -0.050401 0.413534 0.026294 1.000 0.849 0.853
v -0.064474 0.416769 0.035409 1.000 0.849 0.853
v -0.071496 0.418677 0.041278 1.000 0.849 0.853
v -0.062902 0.416769 0.038132 1.000 0.849 0.853
v -0.047972 0.413534 0.030501 1.000 0.849 0.853
v -0.036077 0.411243 0.024036 1.000 0.849 0.853
v -0.028424 0.409941 0.019827 1.000 0.849 0.853
v -0.023845 0.409243 0.017403 1.000 0.849 0.853
v -0.021335 0.408901 0.016280 1.000 0.849 0.853
v -0.020331 0.408798 0.016213 1.000 0.849 0.853
v -0.020620 0.408901 0.017177 1.000 0.849 0.853
v -0.022272 0.409243 0.019375 1.000 0.849 0.853
v -0.025655 0.409941 0.023299 1.000 0.849 0.853
v -0.031462 0.411243 0.029824 1.000 0.849 0.853
v -0.040411 0.413534 0.039982 1.000 0.849 0.853
v -0.051173 0.416769 0.052840 1.000 0.849 0.853
v -0.056153 0.418677 0.060518 1.000 0.849 0.853
v -0.048868 0.416769 0.054979 1.000 0.849 0.853
v -0.036850 0.413534 0.043286 1.000 0.849 0.853
v -0.027390 0.411243 0.033603 1.000 0.849 0.853
v -0.021317 0.409941 0.027325 1.000 0.849 0.853
v -0.017656 0.409243 0.023658 1.000 0.849 0.853
v -0.015588 0.408901 0.021846 1.000 0.849 0.853
v -0.014648 0.408798 0.021485 1.000 0.849 0.853
v -0.014640 0.408901 0.022492 1.000 0.849 0.853
v -0.015572 0.409243 0.025079 1.000 0.849 0.853
v -0.017648 0.409941 0.029826 1.000 0.849 0.853
v -0.021273 0.411243 0.037773 1.000 0.849 0.853
v -0.026831 0.413534 0.050117 1.000 0.849 0.853
v -0.033324 0.416769 0.065576 1.000 0.849 0.853
v -0.035820 0.418677 0.074381 1.000 0.849 0.853
v -0.030492 0.416769 0.066940 1.000 0.849 0.853
v -0.022454 0.413534 0.052225 1.000 0.849 0.853
v -0.016268 0.411243 0.040183 1.000 0.849 0.853
v -0.012316 0.409941 0.032394 1.000 0.849 0.853
v -0.009899 0.409243 0.027811 1.000 0.849 0.853
v -0.008457 0.408901 0.025470 1.000 0.849 0.853
v -0.007665 0.408798 0.024848 1.000 0.849 0.853
v -0.007360 0.408901 0.025808 1.000 0.849 0.853
v -0.007488 0.409243 0.028555 1.000 0.849 0.853
v -0.008072 0.409941 0.033703 1.000 0.849 0.853
v -0.009194 0.411243 0.042365 1.000 0.849 0.853
v -0.010867 0.413534 0.055799 1.000 0.849 0.853
v -0.012515 0.416769 0.072485 1.000 0.849 0.853
v -0.012304 0.418677 0.081635 1.000 0.849 0.853
v -0.009406 0.416769 0.072954 1.000 0.849 0.853
v -0.006063 0.413534 0.056523 1.000 0.849 0.853
v -0.003701 0.411243 0.043193 1.000 0.849 0.853
v -0.002220 0.409941 0.034585 1.000 0.849 0.853
v -0.001261 0.409243 0.029493 1.000 0.849 0.853
v -0.000573 0.408901 0.026831 1.000 0.849 0.853
v 0.000000 0.406677 -0.000000 1.000 0.849 0.853
f 307 13 14
f 307 14 13
f 307 14 15
f 307 15 14
f 307 15 16
f 307 16 15
f 307 16 17
f 307 17 16
f 307 17 18
f 307 18 17
f 307 18 19
f 307 19 18
f 307 19 20
f 307 20 19
f 307 20 21
f 307 21 20
f 307 21 22
f 307 22 21
f 307 22 23
f 307 23 22
f 307 23 24
f 307 24 23
f 307 24 25
f 307 25 24
f 307 25 26
f 307 26 25
f 307 26 27
f 307 27 26
f 307 27 28
f 307 28 27
f 307 28 29
f 307 29 28
f 307 29 30
f 307 30 29
f 307 30 31
f 307 31 30
f 307 31 32
f 307 32 31
f 307 32 33
f 307 33 32
f 307 33 34
f 307 34 33
f 307 34 35
f 307 35 34
f 307 35 36
f 307 36 35
f 307 36 37
f 307 37 36
f 307 37 38
f 307 38 37
f 307 38 39
f 307 39 38
f 307 39 40
f 307 40 39
f 307 40 41
f 307 41 40
f 307 41 42
f 307 42 41
f 307 42 43
f 307 43 42
f 307 43 44
f 307 44 43
f 307 44 45
f 307 45 44
f 307 45 46
f 307 46 45
f 307 46 47
f 307 47 46
f 307 47 48
f 307 48 47
f 307 48 49
f 307 49 48
f 307 49 50
f 307 50 49
f 307 50 51
f 307 51 50
f 307 51 52
f 307 52 51
f 307 52 53
f 307 53 52
f 307 53 54
f 307 54 53
f 307 54 55
f 307 55 54
f 307 55 56
f 307 56 55
f 307 56 57
f 307 57 56
f 307 57 58
f 307 58 57
f 307 58 59
f 307 59 58
f 307 59 60
f 307 60 59
f 307 60 61
f 307 61 60
f 307 61 62
f 307 62 61
f 307 62 63
f 307 63 62
f 307 63 64
f 307 64 63
f 307 64 65
f 307 65 64
f 307 65 66
f 307 66 65
f 307 66 67
f 307 67 66
f 307 67 68
f 307 68 67
f 307 68 69
f 307 69 68
f 307 69 70
f 307 70 69
f 307 70 71
f 307 71 70
f 307 71 72
f 307 72 71
f 307 72 73
f 307 73 72
f 307 73 74
f 307 74 73
f 307 74 75
f 307 75 74
f 307 75 76
f 307 76 75
f 307 76 77
f 307 77 76
f 307 77 78
f 307 78 77
f 307 78 79
f 307 79 78
f 307 79 80
f 307 80 79
f 307 80 81
f 307 81 80
f 307 81 82
f 307 82 81
f 307 82 83
f 307 83 82
f 307 83 84
f 307 84 83
f 307 84 85
f 307 85 84
f 307 85 86
f 307 86 85
f 307 86 87
f 307 87 86
f 307 87 88
f 307 88 87
f 307 88 89
f 307 89 88
f 307 89 90
f 307 90 89
f 307 90 91
f 307 91 90
f 307 91 92
f 307 92 91
f 307 92 93
f 307 93 92
f 307 93 94
f 307 94 93
f 307 94 95
f 307 95 94
f 307 95 96
f 307 96 95
f 307 96 97
f 307 97 96
f 307 97 98
f 307 98 97
f 307 98 99
f 307 99 98
f 307 99 100
f 307 100 99
f 307 100 101
f 307 101 100
f 307 101 102
f 307 102 101
f 307 102 103
f 307 103 102
f 307 103 104
f 307 104 103
f 307 104 105
f 307 105 104
f 307 105 106
f 307 106 105
f 307 106 107
f 307 107 106
f 307 107 108
f 307 108 107
f 307 108 109
f 307 109 108
f 307 109 110
f 307 110 109
f 307 110 111
f 307 111 110
f 307 111 112
f 307 112 111
f 307 112 113
f 307 113 112
f 307 113 114
f 307 114 113
f 307 114 115
f 307 115 114
f 307 115 116
f 307 116 115
f 307 116 117
f 307 117 116
f 307 117 118
f 307 118 117
f 307 118 119
f 307 119 118
f 307 119 120
f 307 120 119
f 307 120 121
f 307 121 120
f 307 121 122
f 307 122 121
f 307 122 123
f 307 123 122
f 307 123 124
f 307 124 123
f 307 124 125
f 307 125 124
f 307 125 126
f 307 126 125
f 307 126 127
f 307 127 126
f 307 127 128
f 307 128 127
f 307 128 129
f 307 129 128
f 307 129 130
f 307 130 129
f 307 130 131
f 307 131 130
f 307 131 132
f 307 132 131
f 307 132 133
f 307 133 132
f 307 133 134
f 307 134 133
f 307 134 135
f 307 135 134
f 307 135 136
f 307 136 135
f 307 136 137
f 307 137 136
f 307 137 138
f 307 138 137
f 307 138 139
f 307 139 138
f 307 139 140
f 307 140 139
f 307 140 141
f 307 141 140
f 307 141 142
f 307 142 141
f 307 142 143
f 307 143 142
f 307 143 144
f 307 144 143
f 307 144 145
f 307 145 144
f 307 145 146
f 307 146 145
f 307 146 147
f 307 147 146
f 307 147 148
f 307 148 147
f 307 148 149
f 307 149 148
f 307 149 150
f 307 150 149
f 307 150 151
f 307 151 150
f 307 151 152
f 307 152 151
f 307 152 153
f 307 153 152
f 307 153 154
f 307 154 153
f 307 154 155
f 307 155 154
f 307 155 156
f 307 156 155
f 307 156 157
f 307 157 156
f 307 157 158
f 307 158 157
f 307 158 159
f 307 159 158
f 307 159 160
f 307 160 159
f 307 160 161
f 307 161 160
f 307 161 162
f 307 162 161
f 307 162 163
f 307 163 162
f 307 163 164
f 307 164 163
f 307 164 165
f 307 165 164
f 307 165 166
f 307 166 165
f 307 166 167
f 307 167 166
f 307 167 168
f 307 168 167
f 307 168 169
f 307 169 168
f 307 169 170
f 307 170 169
f 307 170 171
f 307 171 170
f 307 171 172
f 307 172 171
f 307 172 173
f 307 173 172
f 307 173 174
f 307 174 173
f 307 174 175
f 307 175 174
f 307 175 176
f 307 176 175
f 307 176 177
f 307 177 176
f 307 177 178
f 307 178 177
f 307 178 179
f 307 179 178
f 307 179 180
f 307 180 179
f 307 180 181
f 307 181 180
f 307 181 182
f 307 182 181
f 307 182 183
f 307 183 182
f 307 183 184
f 307 184 183
f 307 184 185
f 307 185 184
f 307 185 186
f 307 186 185
f 307 186 187
f 307 187 186
f 307 187 188
f 307 188 187
f 307 188 189
f 307 189 188
f 307 189 190
f 307 190 189
f 307 190 191
f 307 191 190
f 307 191 192
f 307 192 191
f 307 192 193
f 307 193 192
f 307 193 194
f 307 194 193
f 307 194 195
f 307 195 194
f 307 195 196
f 307 196 195
f 307 196 197
f 307 197 196
f 307 197 198
f 307 198 197
f 307 198 199
f 307 199 198
f 307 199 200
f 307 200 199
f 307 200 201
f 307 201 200
f 307 201 202
f 307 202 201
f 307 202 203
f 307 203 202
f 307 203 204
f 307 204 203
f 307 204 205
f 307 205 204
f 307 205 206
f 307 206 205
f 307 206 207
f 307 207 206
f 307 207 208
f 307 208 207
f 307 208 209
f 307 209 208
f 307 209 210
f 307 210 209
f 307 210 211
f 307 211 210
f 307 211 212
f 307 212 211
f 307 212 213
f 307 213 212
f 307 213 214
f 307 214 213
f 307 214 215
f 307 215 214
f 307 215 216
f 307 216 215
f 307 216 217
f 307 217 216
f 307 217 218
f 307 218 217
f 307 218 219
f 307 219 218
f 307 219 220
f 307 220 219
f 307 220 221
f 307 221 220
f 307 221 222
f 307 222 221
f 307 222 223
f 307 223 222
f 307 223 224
f 307 224 223
f 307 224 225
f 307 225 224
f 307 225 226
f 307 226 225
f 307 226 227
f 307 227 226
f 307 227 228
f 307 228 227
f 307 228 229
f 307 229 228
f 307 229 230
f 307 230 229
f 307 230 231
f 307 231 230
f 307 231 232
f 307 232 231
f 307 232 233
f 307 233 232
f 307 233 234
f 307 234 233
f 307 234 235
f 307 235 234
f 307 235 236
f 307 236 235
f 307 236 237
f 307 237 236
f 307 237 238
f 307 238 237
f 307 238 239
f 307 239 238
f 307 239 240
f 307 240 239
f 307 240 241
f 307 241 240
f 307 241 242
f 307 242 241
f 307 242 243
f 307 243 242
f 307 243 244
f 307 244 243
f 307 244 245
f 307 245 244
f 307 245 246
f 307 246 245
f 307 246 247
f 307 247 246
f 307 247 248
f 307 248 247
f 307 248 249
f 307 249 248
f 307 249 250
f 307 250 249
f 307 250 251
f 307 251 250
f 307 251 252
f 307 252 251
f 307 252 253
f 307 253 252
f 307 253 254
f 307 254 253
f 307 254 255
f 307 255 254
f 307 255 256
f 307 256 255
f 307 256 257
f 307 257 256
f 307 257 258
f 307 258 257
f 307 258 259
f 307 259 258
f 307 259 260
f 307 260 259
f 307 260 261
f 307 261 260
f 307 261 262
f 307 262 261
f 307 262 263
f 307 263 262
f 307 263 264
f 307 264 263
f 307 264 265
f 307 265 264
f 307 265 266
f 307 266 265
f 307 266 267
f 307 267 266
f 307 267 268
f 307 268 267
f 307 268 269
f 307 269 268
f 307 269 270
f 307 270 269
f 307 270 271
f 307 271 270
f 307 271 272
f 307 272 271
f 307 272 273
f 307 273 272
f 307 273 274
f 307 274 273
f 307 274 275
f 307 275 274
f 307 275 276
f 307 276 275
f 307 276 277
f 307 277 276
f 307 277 278
f 307 278 277
f 307 278 279
f 307 279 278
f 307 279 280
f 307 280 279
f 307 280 281
f 307 281 280
f 307 281 282
f 307 282 281
f 307 282 283
f 307 283 282
f 307 283 284
f 307 284 283
f 307 284 285
f 307 285 284
f 307 285 286
f 307 286 285
f 307 286 287
f 307 287 286
f 307 287 288
f 307 288 287
f 307 288 289
f 307 289 288
f 307 289 290
f 307 290 289
f 307 290 291
f 307 291 290
f 307 291 292
f 307 292 291
f 307 292 293
f 307 293 292
f 307 293 294
f 307 294 293
f 307 294 295
f 307 295 294
f 307 295 296
f 307 296 295
f 307 296 297
f 307 297 296
f 307 297 298
f 307 298 297
f 307 298 299
f 307 299 298
f 307 299 300
f 307 300 299
f 307 300 301
f 307 301 300
f 307 301 302
f 307 302 301
f 307 302 303
f 307 303 302
f 307 303 304
f 307 304 303
f 307 304 305
f 307 305 304
f 307 305 306
f 307 306 305
f 307 306 13
f 307 13 306
v 0.003411 0.408798 0.022628 1.000 0.867 0.871
v 0.004018 0.408901 0.023272 1.000 0.867 0.871
v 0.004966 0.409243 0.025499 1.000 0.867 0.871
v 0.006468 0.409941 0.029804 1.000 0.867 0.871
v 0.008886 0.411243 0.037100 1.000 0.867 0.871
v 0.012689 0.413534 0.048390 1.000 0.867 0.871
v 0.017754 0.416769 0.062249 1.000 0.867 0.871
v 0.021414 0.418677 0.069422 1.000 0.867 0.871
v 0.020397 0.416769 0.061433 1.000 0.867 0.871
v 0.016775 0.413534 0.047130 1.000 0.867 0.871
v 0.013557 0.411243 0.035659 1.000 0.867 0.871
v 0.011445 0.409941 0.028269 1.000 0.867 0.871
v 0.010261 0.409243 0.023866 1.000 0.867 0.871
v 0.009790 0.408901 0.021492 1.000 0.867 0.871
v 0.009929 0.408798 0.020617 1.000 0.867 0.871
v 0.010699 0.408901 0.021054 1.000 0.867 0.871
v 0.012261 0.409243 0.022902 1.000 0.867 0.871
v 0.014966 0.409941 0.026573 1.000 0.867 0.871
v 0.019426 0.411243 0.032832 1.000 0.867 0.871
v 0.026389 0.413534 0.042500 1.000 0.867 0.871
v 0.035313 0.416769 0.054250 1.000 0.867 0.871
v 0.040925 0.418677 0.060026 1.000 0.867 0.871
v 0.037599 0.416769 0.052692 1.000 0.867 0.871
v 0.029921 0.413534 0.040091 1.000 0.867 0.871
v 0.023465 0.411243 0.030079 1.000 0.867 0.871
v 0.019269 0.409941 0.023639 1.000 0.867 0.871
v 0.016840 0.409243 0.019781 1.000 0.867 0.871
v 0.015690 0.408901 0.017651 1.000 0.867 0.871
v 0.015565 0.408798 0.016775 1.000 0.867 0.871
v 0.016430 0.408901 0.016965 1.000 0.867 0.871
v 0.018467 0.409243 0.018271 1.000 0.867 0.871
v 0.022133 0.409941 0.020981 1.000 0.867 0.871
v 0.028241 0.411243 0.025648 1.000 0.867 0.871
v 0.037743 0.413534 0.032833 1.000 0.867 0.871
v 0.049735 0.416769 0.041431 1.000 0.867 0.871
v 0.056800 0.418677 0.045296 1.000 0.867 0.871
v 0.051460 0.416769 0.039268 1.000 0.867 0.871
v 0.040409 0.413534 0.029491 1.000 0.867 0.871
v 0.031289 0.411243 0.021826 1.000 0.867 0.871
v 0.025380 0.409941 0.016910 1.000 0.867 0.871
v 0.021922 0.409243 0.013938 1.000 0.867 0.871
v 0.020195 0.408901 0.012243 1.000 0.867 0.871
v 0.019818 0.408798 0.011442 1.000 0.867 0.871
v 0.020700 0.408901 0.011368 1.000 0.867 0.871
v 0.023032 0.409243 0.012016 1.000 0.867 0.871
v 0.027334 0.409941 0.013525 1.000 0.867 0.871
v 0.034546 0.411243 0.016184 1.000 0.867 0.871
v 0.045744 0.413534 0.020250 1.000 0.867 0.871
v 0.059737 0.416769 0.024931 1.000 0.867 0.871
v 0.067628 0.418677 0.026542 1.000 0.867 0.871
v 0.060748 0.416769 0.022356 1.000 0.867 0.871
v 0.047306 0.413534 0.016270 1.000 0.867 0.871
v 0.036332 0.411243 0.011634 1.000 0.867 0.871
v 0.029237 0.409941 0.008677 1.000 0.867 0.871
v 0.025056 0.409243 0.006858 1.000 0.867 0.871
v 0.022907 0.408901 0.005746 1.000 0.867 0.871
v 0.022310 0.408798 0.005092 1.000 0.867 0.871
v 0.023131 0.408901 0.004762 1.000 0.867 0.871
v 0.025550 0.409243 0.004693 1.000 0.867 0.871
v 0.030107 0.409941 0.004867 1.000 0.867 0.871
v 0.037782 0.411243 0.005282 1.000 0.867 0.871
v 0.049681 0.413534 0.005867 1.000 0.867 0.871
v 0.064432 0.416769 0.006216 1.000 0.867 0.871
v 0.072447 0.418677 0.005429 1.000 0.867 0.871
v 0.064638 0.416769 0.003457 1.000 0.867 0.871
v 0.050000 0.413534 0.001603 1.000 0.867 0.871
v 0.038147 0.411243 0.000408 1.000 0.867 0.871
v 0.030496 0.409941 -0.000326 1.000 0.867 0.871
v 0.025965 0.409243 -0.000833 1.000 0.867 0.871
v 0.023583 0.408901 -0.001261 1.000 0.867 0.871
v 0.022819 0.408798 -0.001710 1.000 0.867 0.871
v 0.023507 0.408901 -0.002268 1.000 0.867 0.871
v 0.025799 0.409243 -0.003046 1.000 0.867 0.871
v 0.030204 0.409941 -0.004223 1.000 0.867 0.871
v 0.037660 0.411243 -0.006089 1.000 0.867 0.871
v 0.049203 0.413534 -0.009038 1.000 0.867 0.871
v 0.063401 0.416769 -0.013052 1.000 0.867 0.871
v 0.070828 0.418677 -0.016166 1.000 0.867 0.871
v 0.062786 0.416769 -0.015749 1.000 0.867 0.871
v 0.048251 0.413534 -0.013206 1.000 0.867 0.871
v 0.036572 0.411243 -0.010854 1.000 0.867 0.871
v 0.029045 0.409941 -0.009300 1.000 0.867 0.871
v 0.024566 0.409243 -0.008449 1.000 0.867 0.871
v 0.022163 0.408901 -0.008156 1.000 0.867 0.871
v 0.021301 0.408798 -0.008360 1.000 0.867 0.871
v 0.021795 0.408901 -0.009096 1.000 0.867 0.871
v 0.023755 0.409243 -0.010515 1.000 0.867 0.871
v 0.027617 0.409941 -0.012938 1.000 0.867 0.871
v 0.034192 0.411243 -0.016919 1.000 0.867 0.871
v 0.044353 0.413534 -0.023139 1.000 0.867 0.871
v 0.056737 0.416769 -0.031160 1.000 0.867 0.871
v 0.062917 0.418677 -0.036325 1.000 0.867 0.871
v 0.055354 0.416769 -0.033556 1.000 0.867 0.871
v 0.042215 0.413534 -0.026841 1.000 0.867 0.871
v 0.031748 0.411243 -0.021152 1.000 0.867 0.871
v 0.025013 0.409941 -0.017448 1.000 0.867 0.871
v 0.020984 0.409243 -0.015314 1.000 0.867 0.871
v 0.018775 0.408901 -0.014327 1.000 0.867 0.871
v 0.017891 0.408798 -0.014267 1.000 0.867 0.871
v 0.018145 0.408901 -0.015116 1.000 0.867 0.871
v 0.019600 0.409243 -0.017050 1.000 0.867 0.871
v 0.022577 0.409941 -0.020503 1.000 0.867 0.871
v 0.027686 0.411243 -0.026245 1.000 0.867 0.871
v 0.035562 0.413534 -0.035184 1.000 0.867 0.871
v 0.045032 0.416769 -0.046499 1.000 0.867 0.871
v 0.049414 0.418677 -0.053256 1.000 0.867 0.871
v 0.043004 0.416769 -0.048381 1.000 0.867 0.871
v 0.032428 0.413534 -0.038092 1.000 0.867 0.871
v 0.024103 0.411243 -0.029570 1.000 0.867 0.871
v 0.018759 0.409941 -0.024046 1.000 0.867 0.871
v 0.015538 0.409243 -0.020819 1.000 0.867 0.871
v 0.013718 0.408901 -0.019224 1.000 0.867 0.871
v 0.012891 0.408798 -0.018907 1.000 0.867 0.871
v 0.012884 0.408901 -0.019793 1.000 0.867 0.871
v 0.013703 0.409243 -0.022070 1.000 0.867 0.871
v 0.015530 0.409941 -0.026247 1.000 0.867 0.871
v 0.018720 0.411243 -0.033240 1.000 0.867 0.871
v 0.023611 0.413534 -0.044103 1.000 0.867 0.871
v 0.029326 0.416769 -0.057707 1.000 0.867 0.871
v 0.031522 0.418677 -0.065455 1.000 0.867 0.871
v 0.026833 0.416769 -0.058907 1.000 0.867 0.871
v 0.019760 0.413534 -0.045958 1.000 0.867 0.871
v 0.014316 0.411243 -0.035361 1.000 0.867 0.871
v 0.010838 0.409941 -0.028507 1.000 0.867 0.871
v 0.008711 0.409243 -0.024474 1.000 0.867 0.871
v 0.007442 0.408901 -0.022413 1.000 0.867 0.871
v 0.006745 0.408798 -0.021867 1.000 0.867 0.871
v 0.006477 0.408901 -0.022711 1.000 0.867 0.871
v 0.006589 0.409243 -0.025128 1.000 0.867 0.871
v 0.007104 0.409941 -0.029659 1.000 0.867 0.871
v 0.008091 0.411243 -0.037281 1.000 0.867 0.871
v 0.009563 0.413534 -0.049103 1.000 0.867 0.871
v 0.011013 0.416769 -0.063787 1.000 0.867 0.871
v 0.010828 0.418677 -0.071838 1.000 0.867 0.871
v 0.008278 0.416769 -0.064199 1.000 0.867 0.871
v 0.005335 0.413534 -0.049740 1.000 0.867 0.871
v 0.003257 0.411243 -0.038010 1.000 0.867 0.871
v 0.001954 0.409941 -0.030435 1.000 0.867 0.871
v 0.001110 0.409243 -0.025954 1.000 0.867 0.871
v 0.000505 0.408901 -0.023611 1.000 0.867 0.871
v 0.000000 0.408798 -0.022883 1.000 0.867 0.871
v -0.000505 0.408901 -0.023611 1.000 0.867 0.871
v -0.001110 0.409243 -0.025954 1.000 0.867 0.871
v -0.001954 0.409941 -0.030435 1.000 0.867 0.871
v -0.003257 0.411243 -0.038010 1.000 0.867 0.871
v -0.005335 0.413534 -0.049740 1.000 0.867 0.871
v -0.008278 0.416769 -0.064199 1.000 0.867 0.871
v -0.010828 0.418677 -0.071838 1.000 0.867 0.871
v -0.011013 0.416769 -0.063787 1.000 0.867 0.871
v -0.009563 0.413534 -0.049103 1.000 0.867 0.871
v -0.008091 0.411243 -0.037281 1.000 0.867 0.871
v -0.007104 0.409941 -0.029659 1.000 0.867 0.871
v -0.006589 0.409243 -0.025128 1.000 0.867 0.871
v -0.006477 0.408901 -0.022711 1.000 0.867 0.871
v -0.006745 0.408798 -0.021867 1.000 0.867 0.871
v -0.007442 0.408901 -0.022413 1.000 0.867 0.871
v -0.008711 0.409243 -0.024474 1.000 0.867 0.871
v -0.010838 0.409941 -0.028507 1.000 0.867 0.871
v -0.014316 0.411243 -0.035361 1.000 0.867 0.871
v -0.019760 0.413534 -0.045958 1.000 0.867 0.871
v -0.026833 0.416769 -0.058907 1.000 0.867 0.871
v -0.031522 0.418677 -0.065455 1.000 0.867 0.871
v -0.029326 0.416769 -0.057707 1.000 0.867 0.871
v -0.023611 0.413534 -0.044103 1.000 0.867 0.871
v -0.018720 0.411243 -0.033240 1.000 0.867 0.871
v -0.015530 0.409941 -0.026247 1.000 0.867 0.871
v -0.013703 0.409243 -0.022070 1.000 0.867 0.871
v -0.012884 0.408901 -0.019793 1.000 0.867 0.871
v -0.012891 0.408798 -0.018907 1.000 0.867 0.871
v -0.013718 0.408901 -0.019224 1.000 0.867 0.871
v -0.015538 0.409243 -0.020819 1.000 0.867 0.871
v -0.018759 0.409941 -0.024046 1.000 0.867 0.871
v -0.024103 0.411243 -0.029570 1.000 0.867 0.871
v -0.032428 0.413534 -0.038092 1.000 0.867 0.871
v -0.043004 0.416769 -0.048381 1.000 0.867 0.871
v -0.049414 0.418677 -0.053256 1.000 0.867 0.871
v -0.045032 0.416769 -0.046499 1.000 0.867 0.871
v -0.035562 0.413534 -0.035184 1.000 0.867 0.871
v -0.027686 0.411243 -0.026245 1.000 0.867 0.871
v -0.022577 0.409941 -0.020503 1.000 0.867 0.871
v -0.019600 0.409243 -0.017050 1.000 0.867 0.871
v -0.018145 0.408901 -0.015116 1.000 0.867 0.871
v -0.017891 0.408798 -0.014267 1.000 0.867 0.871
v -0.018775 0.408901 -0.014327 1.000 0.867 0.871
v -0.020984 0.409243 -0.015314 1.000 0.867 0.871
v -0.025013 0.409941 -0.017448 1.000 0.867 0.871
v -0.031748 0.411243 -0.021152 1.000 0.867 0.871
v -0.042215 0.413534 -0.026841 1.000 0.867 0.871
v -0.055354 0.416769 -0.033556 1.000 0.867 0.871
v -0.062917 0.418677 -0.036325 1.000 0.867 0.871
v -0.056737 0.416769 -0.031160 1.000 0.867 0.871
v -0.044353 0.413534 -0.023139 1.000 0.867 0.871
v -0.034192 0.411243 -0.016919 1.000 0.867 0.871
v -0.027617 0.409941 -0.012938 1.000 0.867 0.871
v -0.023755 0.409243 -0.010515 1.000 0.867 0.871
v -0.021795 0.408901 -0.009096 1.000 0.867 0.871
v -0.021301 0.408798 -0.008360 1.000 0.867 0.871
v -0.022163 0.408901 -0.008156 1.000 0.867 0.871
v -0.024566 0.409243 -0.008449 1.000 0.867 0.871
v -0.029045 0.409941 -0.009300 1.000 0.867 0.871
v -0.036572 0.411243 -0.010854 1.000 0.867 0.871
v -0.048251 0.413534 -0.013206 1.000 0.867 0.871
v -0.062786 0.416769 -0.015749 1.000 0.867 0.871
v -0.070828 0.418677 -0.016166 1.000 0.867 0.871
v -0.063401 0.416769 -0.013052 1.000 0.867 0.871
v -0.049203 0.413534 -0.009038 1.000 0.867 0.871
v -0.037660 0.411243 -0.006089 1.000 0.867 0.871
v -0.030204 0.409941 -0.004223 1.000 0.867 0.871
v -0.025799 0.409243 -0.003046 1.000 0.867 0.871
v -0.023507 0.408901 -0.002268 1.000 0.867 0.871
v -0.022819 0.408798 -0.001710 1.000 0.867 0.871
v -0.023583 0.408901 -0.001261 1.000 0.867 0.871
v -0.025965 0.409243 -0.000833 1.000 0.867 0.871
v -0.030496 0.409941 -0.000326 1.000 0.867 0.871
v -0.038147 0.411243 0.000408 1.000 0.867 0.871
v -0.050000 0.413534 0.001603 1.000 0.867 0.871
v -0.064638 0.416769 0.003457 1.000 0.867 0.871
v -0.072447 0.418677 0.005429 1.000 0.867 0.871
v -0.064432 0.416769 0.006216 1.000 0.867 0.871
v -0.049681 0.413534 0.005867 1.000 0.867 0.871
v -0.037782 0.411243 0.005282 1.000 0.867 0.871
v -0.030107 0.409941 0.004867 1.000 0.867 0.871
v -0.025550 0.409243 0.004693 1.000 0.867 0.871
v -0.023131 0.408901 0.004762 1.000 0.867 0.871
v -0.022310 0.408798 0.005092 1.000 0.867 0.871
v -0.022907 0.408901 0.005746 1.000 0.867 0.871
v -0.025056 0.409243 0.006858 1.000 0.867 0.871
v -0.029237 0.409941 0.008677 1.000 0.867 0.871
v -0.036332 0.411243 0.011634 1.000 0.867 0.871
v -0.047306 0.413534 0.016270 1.000 0.867 0.871
v -0.060748 0.416769 0.022356 1.000 0.867 0.871
v -0.067628 0.418677 0.026542 1.000 0.867 0.871
v -0.059737 0.416769 0.024931 1.000 0.867 0.871
v -0.045744 0.413534 0.020250 1.000 0.867 0.871
v -0.034546 0.411243 0.016184 1.000 0.867 0.871
v -0.027334 0.409941 0.013525 1.000 0.867 0.871
v -0.023032 0.409243 0.012016 1.000 0.867 0.871
v -0.020700 0.408901 0.011368 1.000 0.867 0.871
v -0.019818 0.408798 0.011442 1.000 0.867 0.871
v -0.020195 0.408901 0.012243 1.000 0.867 0.871
v -0.021922 0.409243 0.013938 1.000 0.867 0.871
v -0.025380 0.409941 0.016910 1.000 0.867 0.871
v -0.031289 0.411243 0.021826 1.000 0.867 0.871
v -0.040409 0.413534 0.029491 1.000 0.867 0.871
v -0.051460 0.416769 0.039268 1.000 0.867 0.871
v -0.056800 0.418677 0.045296 1.000 0.867 0.871
v -0.049735 0.416769 0.041431 1.000 0.867 0.871
v -0.037743 0.413534 0.032833 1.000 0.867 0.871
v -0.028241 0.411243 0.025648 1.000 0.867 0.871
v -0.022133 0.409941 0.020981 1.000 0.867 0.871
v -0.018467 0.409243 0.018271 1.000 0.867 0.871
v -0.016430 0.408901 0.016965 1.000 0.867 0.871
v -0.015565 0.408798 0.016775 1.000 0.867 0.871
v -0.015690 0.408901 0.017651 1.000 0.867 0.871
v -0.016840 0.409243 0.019781 1.000 0.867 0.871
v -0.019269 0.409941 0.023639 1.000 0.867 0.871
v -0.023465 0.411243 0.030079 1.000 0.867 0.871
v -0.029921 0.413534 0.040091 1.000 0.867 0.871
v -0.037599 0.416769 0.052692 1.000 0.867 0.871
v -0.040925 0.418677 0.060026 1.000 0.867 0.871
v -0.035313 0.416769 0.054250 1.000 0.867 0.871
v -0.026389 0.413534 0.042500 1.000 0.867 0.871
v -0.019426 0.411243 0.032832 1.000 0.867 0.871
v -0.014966 0.409941 0.026573 1.000 0.867 0.871
v -0.012261 0.409243 0.022902 1.000 0.867 0.871
v -0.010699 0.408901 0.021054 1.000 0.867 0.871
v -0.009929 0.408798 0.020617 1.000 0.867 0.871
v -0.009790 0.408901 0.021492 1.000 0.867 0.871
v -0.010261 0.409243 0.023866 1.000 0.867 0.871
v -0.011445 0.409941 0.028269 1.000 0.867 0.871
v -0.013557 0.411243 0.035659 1.000 0.867 0.871
v -0.016775 0.413534 0.047130 1.000 0.867 0.871
v -0.020397 0.416769 0.061433 1.000 0.867 0.871
v -0.021414 0.418677 0.069422 1.000 0.867 0.871
v -0.017754 0.416769 0.062249 1.000 0.867 0.871
v -0.012689 0.413534 0.048390 1.000 0.867 0.871
v -0.008886 0.411243 0.037100 1.000 0.867 0.871
v -0.006468 0.409941 0.029804 1.000 0.867 0.871
v -0.004966 0.409243 0.025499 1.000 0.867 0.871
v -0.004018 0.408901 0.023272 1.000 0.867 0.871
v -0.003411 0.408798 0.022628 1.000 0.867 0.871
v -0.003020 0.408901 0.023423 1.000 0.867 0.871
v -0.002771 0.409243 0.025830 1.000 0.867 0.871
v -0.002604 0.409941 0.030386 1.000 0.867 0.871
v -0.002444 0.411243 0.038071 1.000 0.867 0.871
v -0.002138 0.413534 0.049980 1.000 0.867 0.871
v -0.001383 0.416769 0.064716 1.000 0.867 0.871
v 0.000000 0.418677 0.072650 1.000 0.867 0.871
v 0.001383 0.416769 0.064716 1.000 0.867 0.871
v 0.002138 0.413534 0.049980 1.000 0.867 0.871
v 0.002444 0.411243 0.038071 1.000 0.867 0.871
v 0.002604 0.409941 0.030386 1.000 0.867 0.871
v 0.002771 0.409243 0.025830 1.000 0.867 0.871
v 0.003020 0.408901 0.023423 1.000 0.867 0.871
v 0.000000 0.406677 -0.000000 1.000 0.867 0.871
f 602 308 309
f 602 309 308
f 602 309 310
f 602 310 309
f 602 310 311
f 602 311 310
f 602 311 312
f 602 312 311
f 602 312 313
f 602 313 312
f 602 313 314
f 602 314 313
f 602 314 315
f 602 315 314
f 602 315 316
f 602 316 315
f 602 316 317
f 602 317 316
f 602 317 318
f 602 318 317
f 602 318 319
f 602 319 318
f 602 319 320
f 602 320 319
f 602 320 321
f 602 321 320
f 602 321 322
f 602 322 321
f 602 322 323
f 602 323 322
f 602 323 324
f 602 324 323
f 602 324 325
f 602 325 324
f 602 325 326
f 602 326 325
f 602 326 327
f 602 327 326
f 602 327 328
f 602 328 327
f 602 328 329
f 602 329 328
f 602 329 330
f 602 330 329
f 602 330 331
f 602 331 330
f 602 331 332
f 602 332 331
f 602 332 333
f 602 333 332
f 602 333 334
f 602 334 333
f 602 334 335
f 602 335 334
f 602 335 336
f 602 336 335
f 602 336 337
f 602 337 336
f 602 337 338
f 602 338 337
f 602 338 339
f 602 339 338
f 602 339 340
f 602 340 339
f 602 340 341
f 602 341 340
f 602 341 342
f 602 342 341
f 602 342 343
f 602 343 342
f 602 343 344
f 602 344 343
f 602 344 345
f 602 345 344
f 602 345 346
f 602 346 345
f 602 346 347
f 602 347 346
f 602 347 348
f 602 348 347
f 602 348 349
f 602 349 348
f 602 349 350
f 602 350 349
f 602 350 351
f 602 351 350
f 602 351 352
f 602 352 351
f 602 352 353
f 602 353 352
f 602 353 354
f 602 354 353
f 602 354 355
f 602 355 354
f 602 355 356
f 602 356 355
f 602 356 357
f 602 357 356
f 602 357 358
f 602 358 357
f 602 358 359
f 602 359 358
f 602 359 360
f 602 360 359
f 602 360 361
f 602 361 360
f 602 361 362
f 602 362 361
f 602 362 363
f 602 363 362
f 602 363 364
f 602 364 363
f 602 364 365
f 602 365 364
f 602 365 366
f 602 366 365
f 602 366 367
f 602 367 366
f 602 367 368
f 602 368 367
f 602 368 369
f 602 369 368
f 602 369 370
f 602 370 369
f 602 370 371
f 602 371 370
f 602 371 372
f 602 372 371
f 602 372 373
f 602 373 372
f 602 373 374
f 602 374 373
f 602 374 375
f 602 375 374
f 602 375 376
f 602 376 375
f 602 376 377
f 602 377 376
f 602 377 378
f 602 378 377
f 602 378 379
f 602 379 378
f 602 379 380
f 602 380 379
f 602 380 381
f 602 381 380
f 602 381 382
f 602 382 381
f 602 382 383
f 602 383 382
f 602 383 384
f 602 384 383
f 602 384 385
f 602 385 384
f 602 385 386
f 602 386 385
f 602 386 387
f 602 387 386
f 602 387 388
f 602 388 387
f 602 388 389
f 602 389 388
f 602 389 390
f 602 390 389
f 602 390 391
f 602 391 390
f 602 391 392
f 602 392 391
f 602 392 393
f 602 393 392
f 602 393 394
f 602 394 393
f 602 394 395
f 602 395 394
f 602 395 396
f 602 396 395
f 602 396 397
f 602 397 396
f 602 397 398
f 602 398 397
f 602 398 399
f 602 399 398
f 602 399 400
f 602 400 399
f 602 400 401
f 602 401 400
f 602 401 402
f 602 402 401
f 602 402 403
f 602 403 402
f 602 403 404
f 602 404 403
f 602 404 405
f 602 405 404
f 602 405 406
f 602 406 405
f 602 406 407
f 602 407 406
f 602 407 408
f 602 408 407
f 602 408 409
f 602 409 408
f 602 409 410
f 602 410 409
f 602 410 411
f 602 411 410
f 602 411 412
f 602 412 411
f 602 412 413
f 602 413 412
f 602 413 414
f 602 414 413
f 602 414 415
f 602 415 414
f 602 415 416
f 602 416 415
f 602 416 417
f 602 417 416
f 602 417 418
f 602 418 417
f 602 418 419
f 602 419 418
f 602 419 420
f 602 420 419
f 602 420 421
f 602 421 420
f 602 421 422
f 602 422 421
f 602 422 423
f 602 423 422
f 602 423 424
f 602 424 423
f 602 424 425
f 602 425 424
f 602 425 426
f 602 426 425
f 602 426 427
f 602 427 426
f 602 427 428
f 602 428 427
f 602 428 429
f 602 429 428
f 602 429 430
f 602 430 429
f 602 430 431
f 602 431 430
f 602 431 432
f 602 432 431
f 602 432 433
f 602 433 432
f 602 433 434
f 602 434 433
f 602 434 435
f 602 435 434
f 602 435 436
f 602 436 435
f 602 436 437
f 602 437 436
f 602 437 438
f 602 438 437
f 602 438 439
f 602 439 438
f 602 439 440
f 602 440 439
f 602 440 441
f 602 441 440
f 602 441 442
f 602 442 441
f 602 442 443
f 602 443 442
f 602 443 444
f 602 444 443
f 602 444 445
f 602 445 444
f 602 445 446
f 602 446 445
f 602 446 447
f 602 447 446
f 602 447 448
f 602 448 447
f 602 448 449
f 602 449 448
f 602 449 450
f 602 450 449
f 602 450 451
f 602 451 450
f 602 451 452
f 602 452 451
f 602 452 453
f 602 453 452
f 602 453 454
f 602 454 453
f 602 454 455
f 602 455 454
f 602 455 456
f 602 456 455
f 602 456 457
f 602 457 456
f 602 457 458
f 602 458 457
f 602 458 459
f 602 459 458
f 602 459 460
f 602 460 459
f 602 460 461
f 602 461 460
f 602 461 462
f 602 462 461
f 602 462 463
f 602 463 462
f 602 463 464
f 602 464 463
f 602 464 465
f 602 465 464
f 602 465 466
f 602 466 465
f 602 466 467
f 602 467 466
f 602 467 468
f 602 468 467
f 602 468 469
f 602 469 468
f 602 469 470
f 602 470 469
f 602 470 471
f 602 471 470
f 602 471 472
f 602 472 471
f 602 472 473
f 602 473 472
f 602 473 474
f 602 474 473
f 602 474 475
f 602 475 474
f 602 475 476
f 602 476 475
f 602 476 477
f 602 477 476
f 602 477 478
f 602 478 477
f 602 478 479
f 602 479 478
f 602 479 480
f 602 480 479
f 602 480 481
f 602 481 480
f 602 481 482
f 602 482 481
f 602 482 483
f 602 483 482
f 602 483 484
f 602 484 483
f 602 484 485
f 602 485 484
f 602 485 486
f 602 486 485
f 602 486 487
f 602 487 486
f 602 487 488
f 602 488 487
f 602 488 489
f 602 489 488
f 602 489 490
f 602 490 489
f 602 490 491
f 602 491 490
f 602 491 492
f 602 492 491
f 602 492 493
f 602 493 492
f 602 493 494
f 602 494 493
f 602 494 495
f 602 495 494
f 602 495 496
f 602 496 495
f 602 496 497
f 602 497 496
f 602 497 498
f 602 498 497
f 602 498 499
f 602 499 498
f 602 499 500
f 602 500 499
f 602 500 501
f 602 501 500
f 602 501 502
f 602 502 501
f 602 502 503
f 602 503 502
f 602 503 504
f 602 504 503
f 602 504 505
f 602 505 504
f 602 505 506
f 602 506 505
f 602 506 507
f 602 507 506
f 602 507 508
f 602 508 507
f 602 508 509
f 602 509 508
f 602 509 510
f 602 510 509
f 602 510 511
f 602 511 510
f 602 511 512
f 602 512 511
f 602 512 513
f 602 513 512
f 602 513 514
f 602 514 513
f 602 514 515
f 602 515 514
f 602 515 516
f 602 516 515
f 602 516 517
f 602 517 516
f 602 517 518
f 602 518 517
f 602 518 519
f 602 519 518
f 602 519 520
f 602 520 519
f 602 520 521
f 602 521 520
f 602 521 522
f 602 522 521
f 602 522 523
f 602 523 522
f 602 523 524
f 602 524 523
f 602 524 525
f 602 525 524
f 602 525 526
f 602 526 525
f 602 526 527
f 602 527 526
f 602 527 528
f 602 528 527
f 602 528 529
f 602 529 528
f 602 529 530
f 602 530 529
f 602 530 531
f 602 531 530
f 602 531 532
f 602 532 531
f 602 532 533
f 602 533 532
f 602 533 534
f 602 534 533
f 602 534 535
f 602 535 534
f 602 535 536
f 602 536 535
f 602 536 537
f 602 537 536
f 602 537 538
f 602 538 537
f 602 538 539
f 602 539 538
f 602 539 540
f 602 540 539
f 602 540 541
f 602 541 540
f 602 541 542
f 602 542 541
f 602 542 543
f 602 543 542
f 602 543 544
f 602 544 543
f 602 544 545
f 602 545 544
f 602 545 546
f 602 546 545
f 602 546 547
f 602 547 546
f 602 547 548
f 602 548 547
f 602 548 549
f 602 549 548
f 602 549 550
f 602 550 549
f 602 550 551
f 602 551 550
f 602 551 552
f 602 552 551
f 602 552 553
f 602 553 552
f 602 553 554
f 602 554 553
f 602 554 555
f 602 555 554
f 602 555 556
f 602 556 555
f 602 556 557
f 602 557 556
f 602 557 558
f 602 558 557
f 602 558 559
f 602 559 558
f 602 559 560
f 602 560 559
f 602 560 561
f 602 561 560
f 602 561 562
f 602 562 561
f 602 562 563
f 602 563 562
f 602 563 564
f 602 564 563
f 602 564 565
f 602 565 564
f 602 565 566
f 602 566 565
f 602 566 567
f 602 567 566
f 602 567 568
f 602 568 567
f 602 568 569
f 602 569 568
f 602 569 570
f 602 570 569
f 602 570 571
f 602 571 570
f 602 571 572
f 602 572 571
f 602 572 573
f 602 573 572
f 602 573 574
f 602 574 573
f 602 574 575
f 602 575 574
f 602 575 576
f 602 576 575
f 602 576 577
f 602 577 576
f 602 577 578
f 602 578 577
f 602 578 579
f 602 579 578
f 602 579 580
f 602 580 579
f 602 580 581
f 602 581 580
f 602 581 582
f 602 582 581
f 602 582 583
f 602 583 582
f 602 583 584
f 602 584 583
f 602 584 585
f 602 585 584
f 602 585 586
f 602 586 585
f 602 586 587
f 602 587 586
f 602 587 588
f 602 588 587
f 602 588 589
f 602 589 588
f 602 589 590
f 602 590 589
f 602 590 591
f 602 591 590
f 602 591 592
f 602 592 591
f 602 592 593
f 602 593 592
f 602 593 594
f 602 594 593
f 602 594 595
f 602 595 594
f 602 595 596
f 602 596 595
f 602 596 597
f 602 597 596
f 602 597 598
f 602 598 597
f 602 598 599
f 602 599 598
f 602 599 600
f 602 600 599
f 602 600 601
f 602 601 600
f 602 601 308
f 602 308 601
v 0.000000 0.428967 -0.000000 0.950 0.780 0.150
v 0.000000 0.428967 -0.000000 0.950 0.780 0.150
v 0.000000 0.428967 -0.000000 0.950 0.780 0.150
v 0.000000 0.428967 -0.000000 0.950 0.780 0.150
v 0.000000 0.428967 -0.000000 0.950 0.780 0.150
v 0.000000 0.428967 -0.000000 0.950 0.780 0.150
v 0.000000 0.428967 -0.000000 0.950 0.780 0.150
v 0.000000 0.428967 -0.000000 0.950 0.780 0.150
v 0.000000 0.428967 -0.000000 0.950 0.780 0.150
v 0.000000 0.428967 -0.000000 0.950 0.780 0.150
v 0.000000 0.426129 0.014558 0.950 0.780 0.150
v 0.008557 0.426129 0.011777 0.950 0.780 0.150
v 0.013845 0.426129 0.004499 0.950 0.780 0.150
v 0.013845 0.426129 -0.004499 0.950 0.780 0.150
v 0.008557 0.426129 -0.011777 0.950 0.780 0.150
v 0.000000 0.426129 -0.014558 0.950 0.780 0.150
v -0.008557 0.426129 -0.011777 0.950 0.780 0.150
v -0.013845 0.426129 -0.004499 0.950 0.780 0.150
v -0.013845 0.426129 0.004499 0.950 0.780 0.150
v -0.008557 0.426129 0.011777 0.950 0.780 0.150
v 0.000000 0.418699 0.023555 0.950 0.780 0.150
v 0.013845 0.418699 0.019056 0.950 0.780 0.150
v 0.022402 0.418699 0.007279 0.950 0.780 0.150
v 0.022402 0.418699 -0.007279 0.950 0.780 0.150
v 0.013845 0.418699 -0.019056 0.950 0.780 0.150
v 0.000000 0.418699 -0.023555 0.950 0.780 0.150
v -0.013845 0.418699 -0.019056 0.950 0.780 0.150
v -0.022402 0.418699 -0.007279 0.950 0.780 0.150
v -0.022402 0.418699 0.007279 0.950 0.780 0.150
v -0.013845 0.418699 0.019056 0.950 0.780 0.150
v 0.000000 0.409515 0.023555 0.950 0.780 0.150
v 0.013845 0.409515 0.019056 0.950 0.780 0.150
v 0.022402 0.409515 0.007279 0.950 0.780 0.150
v 0.022402 0.409515 -0.007279 0.950 0.780 0.150
v 0.013845 0.409515 -0.019056 0.950 0.780 0.150
v 0.000000 0.409515 -0.023555 0.950 0.780 0.150
v -0.013845 0.409515 -0.019056 0.950 0.780 0.150
v -0.022402 0.409515 -0.007279 0.950 0.780 0.150
v -0.022402 0.409515 0.007279 0.950 0.780 0.150
v -0.013845 0.409515 0.019056 0.950 0.780 0.150
v 0.000000 0.402085 0.014558 0.950 0.780 0.150
v 0.008557 0.402085 0.011777 0.950 0.780 0.150
v 0.013845 0.402085 0.004499 0.950 0.780 0.150
v 0.013845 0.402085 -0.004499 0.950 0.780 0.150
v 0.008557 0.402085 -0.011777 0.950 0.780 0.150
v 0.000000 0.402085 -0.014558 0.950 0.780 0.150
v -0.008557 0.402085 -0.011777 0.950 0.780 0.150
v -0.013845 0.402085 -0.004499 0.950 0.780 0.150
v -0.013845 0.402085 0.004499 0.950 0.780 0.150
v -0.008557 0.402085 0.011777 0.950 0.780 0.150
v 0.000000 0.399247 0.000000 0.950 0.780 0.150
v 0.000000 0.399247 0.000000 0.950 0.780 0.150
v 0.000000 0.399247 0.000000 0.950 0.780 0.150
v 0.000000 0.399247 -0.000000 0.950 0.780 0.150
v 0.000000 0.399247 -0.000000 0.950 0.780 0.150
v 0.000000 0.399247 -0.000000 0.950 0.780 0.150
v -0.000000 0.399247 -0.000000 0.950 0.780 0.150
v -0.000000 0.399247 -0.000000 0.950 0.780 0.150
v -0.000000 0.399247 0.000000 0.950 0.780 0.150
v -0.000000 0.399247 0.000000 0.950 0.780 0.150
f 603 614 604
f 603 613 614
f 604 615 605
f 604 614 615
f 605 616 606
f 605 615 616
f 606 617 607
f 606 616 617
f 607 618 608
f 607 617 618
f 608 619 609
f 608 618 619
f 609 620 610
f 609 619 620
f 610 621 611
f 610 620 621
f 611 622 612
f 611 621 622
f 612 613 603
f 612 622 613
f 613 624 614
f 613 623 624
f 614 625 615
f 614 624 625
f 615 626 616
f 615 625 626
f 616 627 617
f 616 626 627
f 617 628 618
f 617 627 628
f 618 629 619
f 618 628 629
f 619 630 620
f 619 629 630
f 620 631 621
f 620 630 631
f 621 632 622
f 621 631 632
f 622 623 613
f 622 632 623
f 623 634 624
f 623 633 634
f 624 635 625
f 624 634 635
f 625 636 626
f 625 635 636
f 626 637 627
f 626 636 637
f 627 638 628
f 627 637 638
f 628 639 629
f 628 638 639
f 629 640 630
f 629 639 640
f 630 641 631
f 630 640 641
f 631 642 632
f 631 641 642
f 632 633 623
f 632 642 633
f 633 644 634
f 633 643 644
f 634 645 635
f 634 644 645
f 635 646 636
f 635 645 646
f 636 647 637
f 636 646 647
f 637 648 638
f 637 647 648
f 638 649 639
f 638 648 649
f 639 650 640
f 639 649 650
f 640 651 641
f 640 650 651
f 641 652 642
f 641 651 652
f 642 643 633
f 642 652 643
f 643 654 644
f 643 653 654
f 644 655 645
f 644 654 655
f 645 656 646
f 645 655 656
f 646 657 647
f 646 656 657
f 647 658 648
f 647 657 658
f 648 659 649
f 648 658 659
f 649 660 650
f 649 659 660
f 650 661 651
f 650 660 661
f 651 662 652
f 651 661 662
f 652 653 643
f 652 662 653
v 0.000000 0.081335 -0.000000 0.180 0.500 0.200
v -0.003681 0.078963 0.000974 0.180 0.500 0.200
v -0.007385 0.076591 0.002615 0.180 0.500 0.200
v -0.011100 0.074219 0.004572 0.180 0.500 0.200
v -0.014821 0.071846 0.006676 0.180 0.500 0.200
v -0.018542 0.069474 0.008797 0.180 0.500 0.200
v -0.022260 0.067102 0.010821 0.180 0.500 0.200
v -0.025971 0.064730 0.012650 0.180 0.500 0.200
v -0.029671 0.062357 0.014196 0.180 0.500 0.200
v -0.033360 0.059985 0.015388 0.180 0.500 0.200
v -0.037033 0.057613 0.016171 0.180 0.500 0.200
v -0.040691 0.055241 0.016508 0.180 0.500 0.200
v -0.044333 0.052868 0.016379 0.180 0.500 0.200
v -0.047957 0.050496 0.015784 0.180 0.500 0.200
v -0.051566 0.048124 0.014742 0.180 0.500 0.200
v -0.055161 0.045752 0.013291 0.180 0.500 0.200
v -0.058743 0.043379 0.011486 0.180 0.500 0.200
v -0.062314 0.041007 0.009399 0.180 0.500 0.200
v -0.065879 0.038635 0.007116 0.180 0.500 0.200
v -0.069441 0.036263 0.004737 0.180 0.500 0.200
v -0.073003 0.033890 0.002374 0.180 0.500 0.200
v -0.076570 0.031518 0.000159 0.180 0.500 0.200
v -0.080149 0.029146 -0.001741 0.180 0.500 0.200
v -0.083751 0.026774 -0.002973 0.180 0.500 0.200
v -0.080070 0.029146 -0.003947 0.180 0.500 0.200
v -0.076366 0.031518 -0.005589 0.180 0.500 0.200
v -0.072651 0.033890 -0.007545 0.180 0.500 0.200
v -0.068930 0.036263 -0.009649 0.180 0.500 0.200
v -0.065209 0.038635 -0.011770 0.180 0.500 0.200
v -0.061491 0.041007 -0.013795 0.180 0.500 0.200
v -0.057780 0.043379 -0.015623 0.180 0.500 0.200
v -0.054079 0.045752 -0.017169 0.180 0.500 0.200
v -0.050391 0.048124 -0.018361 0.180 0.500 0.200
v -0.046717 0.050496 -0.019145 0.180 0.500 0.200
v -0.043059 0.052868 -0.019481 0.180 0.500 0.200
v -0.039418 0.055241 -0.019352 0.180 0.500 0.200
v -0.035793 0.057613 -0.018757 0.180 0.500 0.200
v -0.032184 0.059985 -0.017715 0.180 0.500 0.200
v -0.028590 0.062357 -0.016264 0.180 0.500 0.200
v -0.025008 0.064730 -0.014460 0.180 0.500 0.200
v -0.021436 0.067102 -0.012373 0.180 0.500 0.200
v -0.017871 0.069474 -0.010090 0.180 0.500 0.200
v -0.014310 0.071846 -0.007710 0.180 0.500 0.200
v -0.010748 0.074219 -0.005347 0.180 0.500 0.200
v -0.007181 0.076591 -0.003132 0.180 0.500 0.200
v -0.003602 0.078963 -0.001233 0.180 0.500 0.200
f 663 664 665
f 663 665 664
f 663 665 666
f 663 666 665
f 663 666 667
f 663 667 666
f 663 667 668
f 663 668 667
f 663 668 669
f 663 669 668
f 663 669 670
f 663 670 669
f 663 670 671
f 663 671 670
f 663 671 672
f 663 672 671
f 663 672 673
f 663 673 672
f 663 673 674
f 663 674 673
f 663 674 675
f 663 675 674
f 663 675 676
f 663 676 675
f 663 676 677
f 663 677 676
f 663 677 678
f 663 678 677
f 663 678 679
f 663 679 678
f 663 679 680
f 663 680 679
f 663 680 681
f 663 681 680
f 663 681 682
f 663 682 681
f 663 682 683
f 663 683 682
f 663 683 684
f 663 684 683
f 663 684 685
f 663 685 684
f 663 685 686
f 663 686 685
f 663 686 687
f 663 687 686
f 663 687 688
f 663 688 687
f 663 688 689
f 663 689 688
f 663 689 690
f 663 690 689
f 663 690 691
f 663 691 690
f 663 691 692
f 663 692 691
f 663 692 693
f 663 693 692
f 663 693 694
f 663 694 693
f 663 694 695
f 663 695 694
f 663 695 696
f 663 696 695
f 663 696 697
f 663 697 696
f 663 697 698
f 663 698 697
f 663 698 699
f 663 699 698
f 663 699 700
f 663 700 699
f 663 700 701
f 663 701 700
f 663 701 702
f 663 702 701
f 663 702 703
f 663 703 702
f 663 703 704
f 663 704 703
f 663 704 705
f 663 705 704
f 663 705 706
f 663 706 705
f 663 706 707
f 663 707 706
f 663 707 708
f 663 708 707
