o part_0
v 0.000000 0.000000 0.012000
v 0.008485 0.000000 0.008485
v 0.012000 0.000000 0.000000
v 0.008485 0.000000 -0.008485
v 0.000000 0.000000 -0.012000
v -0.008485 0.000000 -0.008485
v -0.012000 0.000000 -0.000000
v -0.008485 0.000000 0.008485
v 0.000000 0.351438 0.008000
v 0.005657 0.351438 0.005657
v 0.008000 0.351438 0.000000
v 0.005657 0.351438 -0.005657
v 0.000000 0.351438 -0.008000
v -0.005657 0.351438 -0.005657
v -0.008000 0.351438 -0.000000
v -0.005657 0.351438 0.005657
f 1 2 10
f 1 10 9
f 2 3 11
f 2 11 10
f 3 4 12
f 3 12 11
f 4 5 13
f 4 13 12
f 5 6 14
f 5 14 13
f 6 7 15
f 6 15 14
f 7 8 16
f 7 16 15
f 8 1 9
f 8 9 16
o part_1
v 0.098315 0.351438 -0.000000
v 0.087179 0.351438 -0.004569
v 0.078284 0.351438 -0.008228
v 0.072932 0.351438 -0.011551
v 0.070459 0.351438 -0.014977
v 0.070225 0.351438 -0.018817
v 0.071683 0.351438 -0.023291
v 0.074284 0.351438 -0.028515
v 0.077381 0.351438 -0.034452
v 0.080188 0.351438 -0.040858
v 0.081864 0.351438 -0.047264
v 0.081720 0.351438 -0.053069
v 0.079539 0.351438 -0.057788
v 0.075725 0.351438 -0.061321
v 0.070248 0.351438 -0.063252
v 0.063638 0.351438 -0.063638
v 0.056678 0.351438 -0.062947
v 0.050075 0.351438 -0.061837
v 0.044303 0.351438 -0.060978
v 0.039597 0.351438 -0.060974
v 0.036017 0.351438 -0.062383
v 0.033523 0.351438 -0.065793
v 0.032016 0.351438 -0.071910
v 0.031285 0.351438 -0.081500
v 0.030381 0.351438 -0.093503
v 0.022594 0.351438 -0.084324
v 0.016366 0.351438 -0.076995
v 0.011551 0.351438 -0.072932
v 0.007530 0.351438 -0.071639
v 0.003805 0.351438 -0.072603
v 0.000000 0.351438 -0.075372
v -0.004164 0.351438 -0.079460
v -0.008854 0.351438 -0.084240
v -0.014079 0.351438 -0.088890
v -0.019654 0.351438 -0.092463
v -0.025219 0.351438 -0.094119
v -0.030381 0.351438 -0.093503
v -0.034919 0.351438 -0.090968
v -0.038448 0.351438 -0.086356
v -0.040858 0.351438 -0.080188
v -0.042352 0.351438 -0.073356
v -0.043337 0.351438 -0.066733
v -0.044303 0.351438 -0.060978
v -0.045753 0.351438 -0.056501
v -0.048200 0.351438 -0.053531
v -0.052213 0.351438 -0.052213
v -0.058497 0.351438 -0.052671
v -0.067844 0.351438 -0.054939
v -0.079539 0.351438 -0.057788
v -0.073215 0.351438 -0.047546
v -0.068169 0.351438 -0.039358
v -0.065793 0.351438 -0.033523
v -0.065806 0.351438 -0.029299
v -0.067874 0.351438 -0.026054
v -0.071683 0.351438 -0.023291
v -0.076858 0.351438 -0.020594
v -0.082853 0.351438 -0.017611
v -0.088890 0.351438 -0.014079
v -0.094011 0.351438 -0.009881
v -0.097306 0.351438 -0.005100
v -0.098315 0.351438 -0.000000
v -0.097306 0.351438 0.005100
v -0.094011 0.351438 0.009881
v -0.088890 0.351438 0.014079
v -0.082853 0.351438 0.017611
v -0.076858 0.351438 0.020594
v -0.071683 0.351438 0.023291
v -0.067874 0.351438 0.026054
v -0.065806 0.351438 0.029299
v -0.065793 0.351438 0.033523
v -0.068169 0.351438 0.039358
v -0.073215 0.351438 0.047546
v -0.079539 0.351438 0.057788
v -0.067844 0.351438 0.054939
v -0.058497 0.351438 0.052671
v -0.052213 0.351438 0.052213
v -0.048200 0.351438 0.053531
v -0.045753 0.351438 0.056501
v -0.044303 0.351438 0.060978
v -0.043337 0.351438 0.066733
v -0.042352 0.351438 0.073356
v -0.040858 0.351438 0.080188
v -0.038448 0.351438 0.086356
v -0.034919 0.351438 0.090968
v -0.030381 0.351438 0.093503
v -0.025219 0.351438 0.094119
v -0.019654 0.351438 0.092463
v -0.014079 0.351438 0.088890
v -0.008854 0.351438 0.084240
v -0.004164 0.351438 0.079460
v -0.000000 0.351438 0.075372
v 0.003805 0.351438 0.072603
v 0.007530 0.351438 0.071639
v 0.011551 0.351438 0.072932
v 0.016366 0.351438 0.076995
v 0.022594 0.351438 0.084324
v 0.030381 0.351438 0.093503
v 0.031285 0.351438 0.081500
v 0.032016 0.351438 0.071910
v 0.033523 0.351438 0.065793
v 0.036017 0.351438 0.062383
v 0.039597 0.351438 0.060974
v 0.044303 0.351438 0.060978
v 0.050075 0.351438 0.061837
v 0.056678 0.351438 0.062947
v 0.063638 0.351438 0.063638
v 0.070248 0.351438 0.063252
v 0.075725 0.351438 0.061321
v 0.079539 0.351438 0.057788
v 0.081720 0.351438 0.053069
v 0.081864 0.351438 0.047264
v 0.080188 0.351438 0.040858
v 0.077381 0.351438 0.034452
v 0.074284 0.351438 0.028515
v 0.071683 0.351438 0.023291
v 0.070225 0.351438 0.018817
v 0.070459 0.351438 0.014977
v 0.072932 0.351438 0.011551
v 0.078284 0.351438 0.008228
v 0.087179 0.351438 0.004569
v 0.000000 0.351438 -0.000000
f 137 17 18
f 137 18 17
f 137 18 19
f 137 19 18
f 137 19 20
f 137 20 19
f 137 20 21
f 137 21 20
f 137 21 22
f 137 22 21
f 137 22 23
f 137 23 22
f 137 23 24
f 137 24 23
f 137 24 25
f 137 25 24
f 137 25 26
f 137 26 25
f 137 26 27
f 137 27 26
f 137 27 28
f 137 28 27
f 137 28 29
f 137 29 28
f 137 29 30
f 137 30 29
f 137 30 31
f 137 31 30
f 137 31 32
f 137 32 31
f 137 32 33
f 137 33 32
f 137 33 34
f 137 34 33
f 137 34 35
f 137 35 34
f 137 35 36
f 137 36 35
f 137 36 37
f 137 37 36
f 137 37 38
f 137 38 37
f 137 38 39
f 137 39 38
f 137 39 40
f 137 40 39
f 137 40 41
f 137 41 40
f 137 41 42
f 137 42 41
f 137 42 43
f 137 43 42
f 137 43 44
f 137 44 43
f 137 44 45
f 137 45 44
f 137 45 46
f 137 46 45
f 137 46 47
f 137 47 46
f 137 47 48
f 137 48 47
f 137 48 49
f 137 49 48
f 137 49 50
f 137 50 49
f 137 50 51
f 137 51 50
f 137 51 52
f 137 52 51
f 137 52 53
f 137 53 52
f 137 53 54
f 137 54 53
f 137 54 55
f 137 55 54
f 137 55 56
f 137 56 55
f 137 56 57
f 137 57 56
f 137 57 58
f 137 58 57
f 137 58 59
f 137 59 58
f 137 59 60
f 137 60 59
f 137 60 61
f 137 61 60
f 137 61 62
f 137 62 61
f 137 62 63
f 137 63 62
f 137 63 64
f 137 64 63
f 137 64 65
f 137 65 64
f 137 65 66
f 137 66 65
f 137 66 67
f 137 67 66
f 137 67 68
f 137 68 67
f 137 68 69
f 137 69 68
f 137 69 70
f 137 70 69
f 137 70 71
f 137 71 70
f 137 71 72
f 137 72 71
f 137 72 73
f 137 73 72
f 137 73 74
f 137 74 73
f 137 74 75
f 137 75 74
f 137 75 76
f 137 76 75
f 137 76 77
f 137 77 76
f 137 77 78
f 137 78 77
f 137 78 79
f 137 79 78
f 137 79 80
f 137 80 79
f 137 80 81
f 137 81 80
f 137 81 82
f 137 82 81
f 137 82 83
f 137 83 82
f 137 83 84
f 137 84 83
f 137 84 85
f 137 85 84
f 137 85 86
f 137 86 85
f 137 86 87
f 137 87 86
f 137 87 88
f 137 88 87
f 137 88 89
f 137 89 88
f 137 89 90
f 137 90 89
f 137 90 91
f 137 91 90
f 137 91 92
f 137 92 91
f 137 92 93
f 137 93 92
f 137 93 94
f 137 94 93
f 137 94 95
f 137 95 94
f 137 95 96
f 137 96 95
f 137 96 97
f 137 97 96
f 137 97 98
f 137 98 97
f 137 98 99
f 137 99 98
f 137 99 100
f 137 100 99
f 137 100 101
f 137 101 100
f 137 101 102
f 137 102 101
f 137 102 103
f 137 103 102
f 137 103 104
f 137 104 103
f 137 104 105
f 137 105 104
f 137 105 106
f 137 106 105
f 137 106 107
f 137 107 106
f 137 107 108
f 137 108 107
f 137 108 109
f 137 109 108
f 137 109 110
f 137 110 109
f 137 110 111
f 137 111 110
f 137 111 112
f 137 112 111
f 137 112 113
f 137 113 112
f 137 113 114
f 137 114 113
f 137 114 115
f 137 115 114
f 137 115 116
f 137 116 115
f 137 116 117
f 137 117 116
f 137 117 118
f 137 118 117
f 137 118 119
f 137 119 118
f 137 119 120
f 137 120 119
f 137 120 121
f 137 121 120
f 137 121 122
f 137 122 121
f 137 122 123
f 137 123 122
f 137 123 124
f 137 124 123
f 137 124 125
f 137 125 124
f 137 125 126
f 137 126 125
f 137 126 127
f 137 127 126
f 137 127 128
f 137 128 127
f 137 128 129
f 137 129 128
f 137 129 130
f 137 130 129
f 137 130 131
f 137 131 130
f 137 131 132
f 137 132 131
f 137 132 133
f 137 133 132
f 137 133 134
f 137 134 133
f 137 134 135
f 137 135 134
f 137 135 136
f 137 136 135
f 137 136 17
f 137 17 136
