o part_0
v 0.000000 0.000000 0.015000
v 0.008817 0.000000 0.012135
v 0.014266 0.000000 0.004635
v 0.014266 0.000000 -0.004635
v 0.008817 0.000000 -0.012135
v 0.000000 0.000000 -0.015000
v -0.008817 0.000000 -0.012135
v -0.014266 0.000000 -0.004635
v -0.014266 0.000000 0.004635
v -0.008817 0.000000 0.012135
v 0.000000 0.400000 0.010200
v 0.005995 0.400000 0.008252
v 0.009701 0.400000 0.003152
v 0.009701 0.400000 -0.003152
v 0.005995 0.400000 -0.008252
v 0.000000 0.400000 -0.010200
v -0.005995 0.400000 -0.008252
v -0.009701 0.400000 -0.003152
v -0.009701 0.400000 0.003152
v -0.005995 0.400000 0.008252
f 1 2 12
f 1 12 11
f 2 3 13
f 2 13 12
f 3 4 14
f 3 14 13
f 4 5 15
f 4 15 14
f 5 6 16
f 5 16 15
f 6 7 17
f 6 17 16
f 7 8 18
f 7 18 17
f 8 9 19
f 8 19 18
f 9 10 20
f 9 20 19
f 10 1 11
f 10 11 20
o part_1
v -0.002479 0.400000 0.009894
v 0.002493 0.403800 0.009132
v 0.006513 0.406148 0.004881
v 0.008045 0.406148 -0.001234
v 0.006504 0.403800 -0.006878
v 0.002479 0.400000 -0.009894
v -0.002493 0.396200 -0.009132
v -0.006513 0.393852 -0.004881
v -0.008045 0.393852 0.001234
v -0.006504 0.396200 0.006878
v -0.183938 0.629316 -0.038927
v -0.180557 0.631900 -0.039446
v -0.177824 0.633497 -0.042336
v -0.176782 0.633497 -0.046494
v -0.177830 0.631900 -0.050332
v -0.180567 0.629316 -0.052383
v -0.183948 0.626732 -0.051865
v -0.186681 0.625135 -0.048974
v -0.187723 0.625135 -0.044816
v -0.186675 0.626732 -0.040978
f 21 22 32
f 21 32 31
f 22 23 33
f 22 33 32
f 23 24 34
f 23 34 33
f 24 25 35
f 24 35 34
f 25 26 36
f 25 36 35
f 26 27 37
f 26 37 36
f 27 28 38
f 27 38 37
f 28 29 39
f 28 39 38
f 29 30 40
f 29 40 39
f 30 21 31
f 30 31 40
o part_2
v -0.183455 0.629316 -0.038824
v -0.184112 0.633292 -0.040285
v -0.184058 0.635750 -0.043797
v -0.183315 0.635750 -0.048019
v -0.182166 0.633292 -0.051338
v -0.181050 0.629316 -0.052486
v -0.180393 0.625340 -0.051026
v -0.180447 0.622882 -0.047514
v -0.181190 0.622882 -0.043292
v -0.182339 0.625340 -0.039973
v -0.409250 0.577347 -0.080835
v -0.409696 0.580051 -0.081829
v -0.409660 0.581722 -0.084217
v -0.409154 0.581722 -0.087087
v -0.408373 0.580051 -0.089344
v -0.407614 0.577347 -0.090125
v -0.407168 0.574643 -0.089132
v -0.407204 0.572972 -0.086744
v -0.407710 0.572972 -0.083873
v -0.408491 0.574643 -0.081616
f 41 42 52
f 41 52 51
f 42 43 53
f 42 53 52
f 43 44 54
f 43 54 53
f 44 45 55
f 44 55 54
f 45 46 56
f 45 56 55
f 46 47 57
f 46 57 56
f 47 48 58
f 47 58 57
f 48 49 59
f 48 59 58
f 49 50 60
f 49 60 59
f 50 41 51
f 50 51 60
o part_3
v -0.411087 0.577347 -0.081582
v -0.412566 0.578729 -0.083680
v -0.412466 0.579584 -0.086465
v -0.410825 0.579584 -0.088874
v -0.408270 0.578729 -0.089987
v -0.405777 0.577347 -0.089378
v -0.404298 0.575964 -0.087281
v -0.404398 0.575110 -0.084496
v -0.406039 0.575110 -0.082087
v -0.408594 0.575964 -0.080974
v -0.496784 0.395323 -0.141788
v -0.497790 0.396263 -0.143214
v -0.497722 0.396844 -0.145108
v -0.496606 0.396844 -0.146746
v -0.494868 0.396263 -0.147502
v -0.493173 0.395323 -0.147089
v -0.492167 0.394383 -0.145663
v -0.492236 0.393802 -0.143769
v -0.493352 0.393802 -0.142131
v -0.495089 0.394383 -0.141374
f 61 62 72
f 61 72 71
f 62 63 73
f 62 73 72
f 63 64 74
f 63 74 73
f 64 65 75
f 64 75 74
f 65 66 76
f 65 76 75
f 66 67 77
f 66 77 76
f 67 68 78
f 67 78 77
f 68 69 79
f 68 79 78
f 69 70 80
f 69 80 79
f 70 61 71
f 70 71 80
o part_4
v -0.494979 0.395323 -0.144438
v -0.495624 0.396193 -0.142526
v -0.496750 0.397358 -0.140821
v -0.498325 0.398801 -0.139311
v -0.500274 0.400473 -0.137962
v -0.502485 0.402306 -0.136726
v -0.504823 0.404218 -0.135545
v -0.507142 0.406119 -0.134356
v -0.509296 0.407917 -0.133096
v -0.511150 0.409531 -0.131706
v -0.512593 0.410891 -0.130138
v -0.513544 0.411950 -0.128358
v -0.513963 0.412680 -0.126348
v -0.513850 0.413083 -0.124107
v -0.513246 0.413184 -0.121655
v -0.512230 0.413032 -0.119025
v -0.510915 0.412695 -0.116265
v -0.509434 0.412256 -0.113433
v -0.507934 0.411806 -0.110593
v -0.506561 0.411434 -0.107809
v -0.505451 0.411223 -0.105137
v -0.504714 0.411242 -0.102627
v -0.504427 0.411538 -0.100312
v -0.504619 0.412129 -0.098204
v -0.503974 0.411259 -0.100116
v -0.502848 0.410094 -0.101821
v -0.501273 0.408652 -0.103332
v -0.499324 0.406979 -0.104681
v -0.497113 0.405146 -0.105916
v -0.494775 0.403234 -0.107097
v -0.492456 0.401334 -0.108286
v -0.490302 0.399536 -0.109546
v -0.488448 0.397922 -0.110936
v -0.487006 0.396561 -0.112504
v -0.486054 0.395503 -0.114284
v -0.485635 0.394772 -0.116294
v -0.485748 0.394369 -0.118535
v -0.486352 0.394268 -0.120987
v -0.487368 0.394421 -0.123617
v -0.488683 0.394757 -0.126377
v -0.490164 0.395196 -0.129209
v -0.491664 0.395647 -0.132049
v -0.493037 0.396019 -0.134833
v -0.494147 0.396229 -0.137505
v -0.494884 0.396210 -0.140015
v -0.495171 0.395914 -0.142330
f 81 82 83
f 81 83 82
f 81 83 84
f 81 84 83
f 81 84 85
f 81 85 84
f 81 85 86
f 81 86 85
f 81 86 87
f 81 87 86
f 81 87 88
f 81 88 87
f 81 88 89
f 81 89 88
f 81 89 90
f 81 90 89
f 81 90 91
f 81 91 90
f 81 91 92
f 81 92 91
f 81 92 93
f 81 93 92
f 81 93 94
f 81 94 93
f 81 94 95
f 81 95 94
f 81 95 96
f 81 96 95
f 81 96 97
f 81 97 96
f 81 97 98
f 81 98 97
f 81 98 99
f 81 99 98
f 81 99 100
f 81 100 99
f 81 100 101
f 81 101 100
f 81 101 102
f 81 102 101
f 81 102 103
f 81 103 102
f 81 103 104
f 81 104 103
f 81 104 105
f 81 105 104
f 81 105 106
f 81 106 105
f 81 106 107
f 81 107 106
f 81 107 108
f 81 108 107
f 81 108 109
f 81 109 108
f 81 109 110
f 81 110 109
f 81 110 111
f 81 111 110
f 81 111 112
f 81 112 111
f 81 112 113
f 81 113 112
f 81 113 114
f 81 114 113
f 81 114 115
f 81 115 114
f 81 115 116
f 81 116 115
f 81 116 117
f 81 117 116
f 81 117 118
f 81 118 117
f 81 118 119
f 81 119 118
f 81 119 120
f 81 120 119
f 81 120 121
f 81 121 120
f 81 121 122
f 81 122 121
f 81 122 123
f 81 123 122
f 81 123 124
f 81 124 123
f 81 124 125
f 81 125 124
f 81 125 126
f 81 126 125
o part_5
v -0.494979 0.395323 -0.144438
v -0.492211 0.396197 -0.146393
v -0.489293 0.396950 -0.148192
v -0.486015 0.397412 -0.149621
v -0.482195 0.397434 -0.150491
v -0.477739 0.396943 -0.150707
v -0.472687 0.395970 -0.150309
v -0.467221 0.394661 -0.149485
v -0.461638 0.393258 -0.148541
v -0.456306 0.392057 -0.147853
v -0.451586 0.391352 -0.147797
v -0.447770 0.391378 -0.148672
v -0.445020 0.392267 -0.150645
v -0.443335 0.394018 -0.153715
v -0.442555 0.396500 -0.157716
v -0.442387 0.399478 -0.162348
v -0.442469 0.402658 -0.167237
v -0.442435 0.405744 -0.172006
v -0.441987 0.408495 -0.176349
v -0.440943 0.410763 -0.180078
v -0.439263 0.412518 -0.183153
v -0.437040 0.413833 -0.185668
v -0.434458 0.414858 -0.187814
v -0.431725 0.415760 -0.189805
v -0.434493 0.414886 -0.187850
v -0.437411 0.414133 -0.186051
v -0.440689 0.413671 -0.184621
v -0.444509 0.413649 -0.183751
v -0.448965 0.414140 -0.183536
v -0.454017 0.415114 -0.183933
v -0.459483 0.416423 -0.184758
v -0.465066 0.417825 -0.185702
v -0.470398 0.419026 -0.186389
v -0.475118 0.419731 -0.186445
v -0.478934 0.419705 -0.185571
v -0.481685 0.418816 -0.183598
v -0.483369 0.417066 -0.180528
v -0.484149 0.414583 -0.176527
v -0.484317 0.411605 -0.171895
v -0.484235 0.408425 -0.167006
v -0.484269 0.405339 -0.162236
v -0.484717 0.402589 -0.157894
v -0.485762 0.400320 -0.154164
v -0.487441 0.398566 -0.151090
v -0.489664 0.397250 -0.148574
v -0.492246 0.396226 -0.146429
f 127 128 129
f 127 129 128
f 127 129 130
f 127 130 129
f 127 130 131
f 127 131 130
f 127 131 132
f 127 132 131
f 127 132 133
f 127 133 132
f 127 133 134
f 127 134 133
f 127 134 135
f 127 135 134
f 127 135 136
f 127 136 135
f 127 136 137
f 127 137 136
f 127 137 138
f 127 138 137
f 127 138 139
f 127 139 138
f 127 139 140
f 127 140 139
f 127 140 141
f 127 141 140
f 127 141 142
f 127 142 141
f 127 142 143
f 127 143 142
f 127 143 144
f 127 144 143
f 127 144 145
f 127 145 144
f 127 145 146
f 127 146 145
f 127 146 147
f 127 147 146
f 127 147 148
f 127 148 147
f 127 148 149
f 127 149 148
f 127 149 150
f 127 150 149
f 127 150 151
f 127 151 150
f 127 151 152
f 127 152 151
f 127 152 153
f 127 153 152
f 127 153 154
f 127 154 153
f 127 154 155
f 127 155 154
f 127 155 156
f 127 156 155
f 127 156 157
f 127 157 156
f 127 157 158
f 127 158 157
f 127 158 159
f 127 159 158
f 127 159 160
f 127 160 159
f 127 160 161
f 127 161 160
f 127 161 162
f 127 162 161
f 127 162 163
f 127 163 162
f 127 163 164
f 127 164 163
f 127 164 165
f 127 165 164
f 127 165 166
f 127 166 165
f 127 166 167
f 127 167 166
f 127 167 168
f 127 168 167
f 127 168 169
f 127 169 168
f 127 169 170
f 127 170 169
f 127 170 171
f 127 171 170
f 127 171 172
f 127 172 171
o part_6
v -0.000178 0.400000 -0.010198
v -0.002246 0.405615 -0.008214
v -0.003456 0.409085 -0.003092
v -0.003346 0.409085 0.003211
v -0.001958 0.405615 0.008287
v 0.000178 0.400000 0.010198
v 0.002246 0.394385 0.008214
v 0.003456 0.390915 0.003092
v 0.003346 0.390915 -0.003211
v 0.001958 0.394385 -0.008287
v 0.325295 0.521866 -0.012620
v 0.323889 0.525684 -0.011271
v 0.323066 0.528043 -0.007788
v 0.323141 0.528043 -0.003502
v 0.324085 0.525684 -0.000050
v 0.325537 0.521866 0.001250
v 0.326944 0.518048 -0.000100
v 0.327766 0.515688 -0.003583
v 0.327691 0.515688 -0.007869
v 0.326747 0.518048 -0.011321
f 173 174 184
f 173 184 183
f 174 175 185
f 174 185 184
f 175 176 186
f 175 186 185
f 176 177 187
f 176 187 186
f 177 178 188
f 177 188 187
f 178 179 189
f 178 189 188
f 179 180 190
f 179 190 189
f 180 181 191
f 180 191 190
f 181 182 192
f 181 192 191
f 182 173 183
f 182 183 192
o part_7
v 0.327587 0.521866 -0.012273
v 0.329567 0.525070 -0.010225
v 0.329961 0.527050 -0.006444
v 0.328619 0.527050 -0.002373
v 0.326054 0.525070 0.000433
v 0.323245 0.521866 0.000902
v 0.321265 0.518661 -0.001145
v 0.320871 0.516681 -0.004926
v 0.322213 0.516681 -0.008998
v 0.324778 0.518661 -0.011804
v 0.544377 0.341705 0.061516
v 0.545723 0.343884 0.062909
v 0.545991 0.345230 0.065480
v 0.545079 0.345230 0.068248
v 0.543334 0.343884 0.070156
v 0.541424 0.341705 0.070475
v 0.540078 0.339526 0.069083
v 0.539810 0.338180 0.066512
v 0.540723 0.338180 0.063743
v 0.542467 0.339526 0.061835
f 193 194 204
f 193 204 203
f 194 195 205
f 194 205 204
f 195 196 206
f 195 206 205
f 196 197 207
f 196 207 206
f 197 198 208
f 197 208 207
f 198 199 209
f 198 209 208
f 199 200 210
f 199 210 209
f 200 201 211
f 200 211 210
f 201 202 212
f 201 212 211
f 202 193 203
f 202 203 212
o part_8
v 0.542901 0.341661 0.061280
v 0.545664 0.341895 0.062178
v 0.547372 0.342056 0.064535
v 0.547372 0.342083 0.067450
v 0.545664 0.341966 0.069809
v 0.542901 0.341749 0.070712
v 0.540138 0.341515 0.069814
v 0.538430 0.341354 0.067457
v 0.538430 0.341326 0.064542
v 0.540138 0.341444 0.062182
v 0.562611 0.100226 0.065042
v 0.564490 0.100386 0.065653
v 0.565651 0.100495 0.067256
v 0.565651 0.100514 0.069238
v 0.564490 0.100434 0.070843
v 0.562611 0.100286 0.071456
v 0.560732 0.100127 0.070845
v 0.559571 0.100017 0.069243
v 0.559571 0.099999 0.067261
v 0.560732 0.100079 0.065656
f 213 214 224
f 213 224 223
f 214 215 225
f 214 225 224
f 215 216 226
f 215 226 225
f 216 217 227
f 216 227 226
f 217 218 228
f 217 228 227
f 218 219 229
f 218 229 228
f 219 220 230
f 219 230 229
f 220 221 231
f 220 231 230
f 221 222 232
f 221 232 231
f 222 213 223
f 222 223 232
o part_9
v 0.562611 0.100256 0.068249
v 0.563616 0.101717 0.065471
v 0.565341 0.103239 0.062913
v 0.567880 0.104829 0.060604
v 0.571181 0.106484 0.058527
v 0.575083 0.108190 0.056634
v 0.579346 0.109926 0.054852
v 0.583682 0.111668 0.053091
v 0.587781 0.113390 0.051259
v 0.591349 0.115068 0.049264
v 0.594132 0.116679 0.047029
v 0.595948 0.118208 0.044499
v 0.596699 0.119647 0.041643
v 0.596386 0.120997 0.038462
v 0.595105 0.122265 0.034985
v 0.593040 0.123466 0.031268
v 0.590443 0.124623 0.027389
v 0.587610 0.125759 0.023437
v 0.584850 0.126902 0.019508
v 0.582451 0.128075 0.015689
v 0.580652 0.129299 0.012054
v 0.579615 0.130587 0.008652
v 0.579393 0.131944 0.005498
v 0.579891 0.133362 0.002565
v 0.578886 0.131902 0.005344
v 0.577162 0.130380 0.007902
v 0.574622 0.128789 0.010211
v 0.571321 0.127135 0.012288
v 0.567419 0.125429 0.014181
v 0.563156 0.123693 0.015963
v 0.558820 0.121951 0.017723
v 0.554721 0.120229 0.019556
v 0.551153 0.118551 0.021551
v 0.548370 0.116940 0.023785
v 0.546554 0.115411 0.026316
v 0.545803 0.113971 0.029172
v 0.546116 0.112622 0.032353
v 0.547397 0.111354 0.035830
v 0.549462 0.110153 0.039547
v 0.552059 0.108996 0.043426
v 0.554892 0.107860 0.047377
v 0.557652 0.106717 0.051306
v 0.560051 0.105544 0.055125
v 0.561850 0.104320 0.058760
v 0.562887 0.103032 0.062163
v 0.563109 0.101674 0.065316
f 233 234 235
f 233 235 234
f 233 235 236
f 233 236 235
f 233 236 237
f 233 237 236
f 233 237 238
f 233 238 237
f 233 238 239
f 233 239 238
f 233 239 240
f 233 240 239
f 233 240 241
f 233 241 240
f 233 241 242
f 233 242 241
f 233 242 243
f 233 243 242
f 233 243 244
f 233 244 243
f 233 244 245
f 233 245 244
f 233 245 246
f 233 246 245
f 233 246 247
f 233 247 246
f 233 247 248
f 233 248 247
f 233 248 249
f 233 249 248
f 233 249 250
f 233 250 249
f 233 250 251
f 233 251 250
f 233 251 252
f 233 252 251
f 233 252 253
f 233 253 252
f 233 253 254
f 233 254 253
f 233 254 255
f 233 255 254
f 233 255 256
f 233 256 255
f 233 256 257
f 233 257 256
f 233 257 258
f 233 258 257
f 233 258 259
f 233 259 258
f 233 259 260
f 233 260 259
f 233 260 261
f 233 261 260
f 233 261 262
f 233 262 261
f 233 262 263
f 233 263 262
f 233 263 264
f 233 264 263
f 233 264 265
f 233 265 264
f 233 265 266
f 233 266 265
f 233 266 267
f 233 267 266
f 233 267 268
f 233 268 267
f 233 268 269
f 233 269 268
f 233 269 270
f 233 270 269
f 233 270 271
f 233 271 270
f 233 271 272
f 233 272 271
f 233 272 273
f 233 273 272
f 233 273 274
f 233 274 273
f 233 274 275
f 233 275 274
f 233 275 276
f 233 276 275
f 233 276 277
f 233 277 276
f 233 277 278
f 233 278 277
o part_10
v 0.562611 0.100256 0.068249
v 0.563177 0.101863 0.070854
v 0.563427 0.103444 0.073550
v 0.563069 0.104978 0.076420
v 0.561912 0.106448 0.079519
v 0.559917 0.107852 0.082859
v 0.557212 0.109201 0.086402
v 0.554082 0.110515 0.090067
v 0.550922 0.111828 0.093740
v 0.548181 0.113173 0.097294
v 0.546279 0.114585 0.100606
v 0.545547 0.116088 0.103584
v 0.546163 0.117699 0.106174
v 0.548127 0.119416 0.108379
v 0.551260 0.121225 0.110247
v 0.555233 0.123100 0.111875
v 0.559624 0.125009 0.113383
v 0.563986 0.126915 0.114899
v 0.567923 0.128788 0.116538
v 0.571150 0.130604 0.118380
v 0.573538 0.132355 0.120462
v 0.575128 0.134042 0.122773
v 0.576110 0.135681 0.125259
v 0.576776 0.137295 0.127835
v 0.576210 0.135689 0.125230
v 0.575960 0.134107 0.122535
v 0.576318 0.132574 0.119665
v 0.577475 0.131104 0.116566
v 0.579470 0.129699 0.113226
v 0.582175 0.128351 0.109683
v 0.585305 0.127037 0.106018
v 0.588465 0.125724 0.102345
v 0.591206 0.124379 0.098791
v 0.593108 0.122967 0.095478
v 0.593840 0.121463 0.092501
v 0.593224 0.119853 0.089910
v 0.591260 0.118136 0.087706
v 0.588127 0.116327 0.085837
v 0.584154 0.114451 0.084210
v 0.579763 0.112543 0.082702
v 0.575401 0.110637 0.081185
v 0.571464 0.108764 0.079547
v 0.568237 0.106948 0.077705
v 0.565848 0.105197 0.075623
v 0.564259 0.103510 0.073312
v 0.563277 0.101871 0.070826
f 279 280 281
f 279 281 280
f 279 281 282
f 279 282 281
f 279 282 283
f 279 283 282
f 279 283 284
f 279 284 283
f 279 284 285
f 279 285 284
f 279 285 286
f 279 286 285
f 279 286 287
f 279 287 286
f 279 287 288
f 279 288 287
f 279 288 289
f 279 289 288
f 279 289 290
f 279 290 289
f 279 290 291
f 279 291 290
f 279 291 292
f 279 292 291
f 279 292 293
f 279 293 292
f 279 293 294
f 279 294 293
f 279 294 295
f 279 295 294
f 279 295 296
f 279 296 295
f 279 296 297
f 279 297 296
f 279 297 298
f 279 298 297
f 279 298 299
f 279 299 298
f 279 299 300
f 279 300 299
f 279 300 301
f 279 301 300
f 279 301 302
f 279 302 301
f 279 302 303
f 279 303 302
f 279 303 304
f 279 304 303
f 279 304 305
f 279 305 304
f 279 305 306
f 279 306 305
f 279 306 307
f 279 307 306
f 279 307 308
f 279 308 307
f 279 308 309
f 279 309 308
f 279 309 310
f 279 310 309
f 279 310 311
f 279 311 310
f 279 311 312
f 279 312 311
f 279 312 313
f 279 313 312
f 279 313 314
f 279 314 313
f 279 314 315
f 279 315 314
f 279 315 316
f 279 316 315
f 279 316 317
f 279 317 316
f 279 317 318
f 279 318 317
f 279 318 319
f 279 319 318
f 279 319 320
f 279 320 319
f 279 320 321
f 279 321 320
f 279 321 322
f 279 322 321
f 279 322 323
f 279 323 322
f 279 323 324
f 279 324 323
