o mesh
v 1.068481 0.864000 -2.798157
v 1.079894 0.864000 -2.806449
v 1.075534 0.864000 -2.819865
v 1.061428 0.864000 -2.819865
v 1.057068 0.864000 -2.806449
v 1.068481 2.112000 -2.798157
v 1.079894 2.112000 -2.806449
v 1.075534 2.112000 -2.819865
v 1.061428 2.112000 -2.819865
v 1.057068 2.112000 -2.806449
f 1 2 7
f 1 7 6
f 2 3 8
f 2 8 7
f 3 4 9
f 3 9 8
f 4 5 10
f 4 10 9
f 5 1 6
f 5 6 10
v 1.011961 0.864000 -2.953819
v 1.023374 0.864000 -2.962111
v 1.019015 0.864000 -2.975528
v 1.004908 0.864000 -2.975528
v 1.000549 0.864000 -2.962111
v 1.011961 2.112000 -2.953819
v 1.023374 2.112000 -2.962111
v 1.019015 2.112000 -2.975528
v 1.004908 2.112000 -2.975528
v 1.000549 2.112000 -2.962111
f 11 12 17
f 11 17 16
f 12 13 18
f 12 18 17
f 13 14 19
f 13 19 18
f 14 15 20
f 14 20 19
f 15 11 16
f 15 16 20
v 0.955442 0.864000 -3.109482
v 0.966855 0.864000 -3.117774
v 0.962495 0.864000 -3.131190
v 0.948388 0.864000 -3.131190
v 0.944029 0.864000 -3.117774
v 0.955442 2.112000 -3.109482
v 0.966855 2.112000 -3.117774
v 0.962495 2.112000 -3.131190
v 0.948388 2.112000 -3.131190
v 0.944029 2.112000 -3.117774
f 21 22 27
f 21 27 26
f 22 23 28
f 22 28 27
f 23 24 29
f 23 29 28
f 24 25 30
f 24 30 29
f 25 21 26
f 25 26 30
v 0.898922 0.864000 -3.265145
v 0.910335 0.864000 -3.273436
v 0.905976 0.864000 -3.286853
v 0.891869 0.864000 -3.286853
v 0.887510 0.864000 -3.273436
v 0.898922 2.112000 -3.265145
v 0.910335 2.112000 -3.273436
v 0.905976 2.112000 -3.286853
v 0.891869 2.112000 -3.286853
v 0.887510 2.112000 -3.273436
f 31 32 37
f 31 37 36
f 32 33 38
f 32 38 37
f 33 34 39
f 33 39 38
f 34 35 40
f 34 40 39
f 35 31 36
f 35 36 40
v 0.842403 0.864000 -3.420807
v 0.853815 0.864000 -3.429099
v 0.849456 0.864000 -3.442515
v 0.835349 0.864000 -3.442515
v 0.830990 0.864000 -3.429099
v 0.842403 2.112000 -3.420807
v 0.853815 2.112000 -3.429099
v 0.849456 2.112000 -3.442515
v 0.835349 2.112000 -3.442515
v 0.830990 2.112000 -3.429099
f 41 42 47
f 41 47 46
f 42 43 48
f 42 48 47
f 43 44 49
f 43 49 48
f 44 45 50
f 44 50 49
f 45 41 46
f 45 46 50
v 0.785883 0.864000 -3.576470
v 0.797296 0.864000 -3.584762
v 0.792936 0.864000 -3.598178
v 0.778830 0.864000 -3.598178
v 0.774470 0.864000 -3.584762
v 0.785883 2.112000 -3.576470
v 0.797296 2.112000 -3.584762
v 0.792936 2.112000 -3.598178
v 0.778830 2.112000 -3.598178
v 0.774470 2.112000 -3.584762
f 51 52 57
f 51 57 56
f 52 53 58
f 52 58 57
f 53 54 59
f 53 59 58
f 54 55 60
f 54 60 59
f 55 51 56
f 55 56 60
v 1.054946 0.864000 -2.805242
v 1.064298 0.877695 -2.808638
v 1.079431 0.872464 -2.814133
v 1.079431 0.855536 -2.814133
v 1.064298 0.850305 -2.808638
v 0.772348 0.864000 -3.583555
v 0.781700 0.877695 -3.586951
v 0.796833 0.872464 -3.592446
v 0.796833 0.855536 -3.592446
v 0.781700 0.850305 -3.586951
f 61 62 67
f 61 67 66
f 62 63 68
f 62 68 67
f 63 64 69
f 63 69 68
f 64 65 70
f 64 70 69
f 65 61 66
f 65 66 70
v 1.054946 1.488000 -2.805242
v 1.064298 1.501695 -2.808638
v 1.079431 1.496464 -2.814133
v 1.079431 1.479536 -2.814133
v 1.064298 1.474305 -2.808638
v 0.772348 1.488000 -3.583555
v 0.781700 1.501695 -3.586951
v 0.796833 1.496464 -3.592446
v 0.796833 1.479536 -3.592446
v 0.781700 1.474305 -3.586951
f 71 72 77
f 71 77 76
f 72 73 78
f 72 78 77
f 73 74 79
f 73 79 78
f 74 75 80
f 74 80 79
f 75 71 76
f 75 76 80
v 1.054946 2.112000 -2.805242
v 1.064298 2.125695 -2.808638
v 1.079431 2.120464 -2.814133
v 1.079431 2.103536 -2.814133
v 1.064298 2.098305 -2.808638
v 0.772348 2.112000 -3.583555
v 0.781700 2.125695 -3.586951
v 0.796833 2.120464 -3.592446
v 0.796833 2.103536 -3.592446
v 0.781700 2.098305 -3.586951
f 81 82 87
f 81 87 86
f 82 83 88
f 82 88 87
f 83 84 89
f 83 89 88
f 84 85 90
f 84 90 89
f 85 81 86
f 85 86 90
v -1.096233 4.400000 -2.523544
v -1.084820 4.400000 -2.531836
v -1.089179 4.400000 -2.545252
v -1.103286 4.400000 -2.545252
v -1.107645 4.400000 -2.531836
v -1.096233 5.700000 -2.523544
v -1.084820 5.700000 -2.531836
v -1.089179 5.700000 -2.545252
v -1.103286 5.700000 -2.545252
v -1.107645 5.700000 -2.531836
f 91 92 97
f 91 97 96
f 92 93 98
f 92 98 97
f 93 94 99
f 93 99 98
f 94 95 100
f 94 100 99
f 95 91 96
f 95 96 100
v -1.214346 4.400000 -2.444623
v -1.202933 4.400000 -2.452915
v -1.207293 4.400000 -2.466331
v -1.221400 4.400000 -2.466331
v -1.225759 4.400000 -2.452915
v -1.214346 5.700000 -2.444623
v -1.202933 5.700000 -2.452915
v -1.207293 5.700000 -2.466331
v -1.221400 5.700000 -2.466331
v -1.225759 5.700000 -2.452915
f 101 102 107
f 101 107 106
f 102 103 108
f 102 108 107
f 103 104 109
f 103 109 108
f 104 105 110
f 104 110 109
f 105 101 106
f 105 106 110
v -1.332460 4.400000 -2.365702
v -1.321047 4.400000 -2.373994
v -1.325406 4.400000 -2.387410
v -1.339513 4.400000 -2.387410
v -1.343872 4.400000 -2.373994
v -1.332460 5.700000 -2.365702
v -1.321047 5.700000 -2.373994
v -1.325406 5.700000 -2.387410
v -1.339513 5.700000 -2.387410
v -1.343872 5.700000 -2.373994
f 111 112 117
f 111 117 116
f 112 113 118
f 112 118 117
f 113 114 119
f 113 119 118
f 114 115 120
f 114 120 119
f 115 111 116
f 115 116 120
v -1.450573 4.400000 -2.286781
v -1.439160 4.400000 -2.295073
v -1.443520 4.400000 -2.308489
v -1.457627 4.400000 -2.308489
v -1.461986 4.400000 -2.295073
v -1.450573 5.700000 -2.286781
v -1.439160 5.700000 -2.295073
v -1.443520 5.700000 -2.308489
v -1.457627 5.700000 -2.308489
v -1.461986 5.700000 -2.295073
f 121 122 127
f 121 127 126
f 122 123 128
f 122 128 127
f 123 124 129
f 123 129 128
f 124 125 130
f 124 130 129
f 125 121 126
f 125 126 130
v -1.568687 4.400000 -2.207860
v -1.557274 4.400000 -2.216152
v -1.561633 4.400000 -2.229568
v -1.575740 4.400000 -2.229568
v -1.580099 4.400000 -2.216152
v -1.568687 5.700000 -2.207860
v -1.557274 5.700000 -2.216152
v -1.561633 5.700000 -2.229568
v -1.575740 5.700000 -2.229568
v -1.580099 5.700000 -2.216152
f 131 132 137
f 131 137 136
f 132 133 138
f 132 138 137
f 133 134 139
f 133 139 138
f 134 135 140
f 134 140 139
f 135 131 136
f 135 136 140
v -1.686800 4.400000 -2.128939
v -1.675387 4.400000 -2.137231
v -1.679747 4.400000 -2.150648
v -1.693853 4.400000 -2.150648
v -1.698213 4.400000 -2.137231
v -1.686800 5.700000 -2.128939
v -1.675387 5.700000 -2.137231
v -1.679747 5.700000 -2.150648
v -1.693853 5.700000 -2.150648
v -1.698213 5.700000 -2.137231
f 141 142 147
f 141 147 146
f 142 143 148
f 142 148 147
f 143 144 149
f 143 149 148
f 144 145 150
f 144 150 149
f 145 141 146
f 145 146 150
v -1.804914 4.400000 -2.050018
v -1.793501 4.400000 -2.058310
v -1.797860 4.400000 -2.071727
v -1.811967 4.400000 -2.071727
v -1.816326 4.400000 -2.058310
v -1.804914 5.700000 -2.050018
v -1.793501 5.700000 -2.058310
v -1.797860 5.700000 -2.071727
v -1.811967 5.700000 -2.071727
v -1.816326 5.700000 -2.058310
f 151 152 157
f 151 157 156
f 152 153 158
f 152 158 157
f 153 154 159
f 153 159 158
f 154 155 160
f 154 160 159
f 155 151 156
f 155 156 160
v -1.923027 4.400000 -1.971098
v -1.911614 4.400000 -1.979389
v -1.915974 4.400000 -1.992806
v -1.930080 4.400000 -1.992806
v -1.934440 4.400000 -1.979389
v -1.923027 5.700000 -1.971098
v -1.911614 5.700000 -1.979389
v -1.915974 5.700000 -1.992806
v -1.930080 5.700000 -1.992806
v -1.934440 5.700000 -1.979389
f 161 162 167
f 161 167 166
f 162 163 168
f 162 168 167
f 163 164 169
f 163 169 168
f 164 165 170
f 164 170 169
f 165 161 166
f 165 166 170
v -1.088232 4.400000 -2.523571
v -1.093760 4.413695 -2.531844
v -1.102705 4.408464 -2.545230
v -1.102705 4.391536 -2.545230
v -1.093760 4.386305 -2.531844
v -1.915027 4.400000 -1.971124
v -1.920555 4.413695 -1.979398
v -1.929499 4.408464 -1.992784
v -1.929499 4.391536 -1.992784
v -1.920555 4.386305 -1.979398
f 171 172 177
f 171 177 176
f 172 173 178
f 172 178 177
f 173 174 179
f 173 179 178
f 174 175 180
f 174 180 179
f 175 171 176
f 175 176 180
v -1.088232 5.050000 -2.523571
v -1.093760 5.063695 -2.531844
v -1.102705 5.058464 -2.545230
v -1.102705 5.041536 -2.545230
v -1.093760 5.036305 -2.531844
v -1.915027 5.050000 -1.971124
v -1.920555 5.063695 -1.979398
v -1.929499 5.058464 -1.992784
v -1.929499 5.041536 -1.992784
v -1.920555 5.036305 -1.979398
f 181 182 187
f 181 187 186
f 182 183 188
f 182 188 187
f 183 184 189
f 183 189 188
f 184 185 190
f 184 190 189
f 185 181 186
f 185 186 190
v -1.088232 5.700000 -2.523571
v -1.093760 5.713695 -2.531844
v -1.102705 5.708464 -2.545230
v -1.102705 5.691536 -2.545230
v -1.093760 5.686305 -2.531844
v -1.915027 5.700000 -1.971124
v -1.920555 5.713695 -1.979398
v -1.929499 5.708464 -1.992784
v -1.929499 5.691536 -1.992784
v -1.920555 5.686305 -1.979398
f 191 192 197
f 191 197 196
f 192 193 198
f 192 198 197
f 193 194 199
f 193 199 198
f 194 195 200
f 194 200 199
f 195 191 196
f 195 196 200
v -1.887209 7.800000 1.957876
v -1.875796 7.800000 1.949585
v -1.880155 7.800000 1.936168
v -1.894262 7.800000 1.936168
v -1.898621 7.800000 1.949585
v -1.887209 9.100000 1.957876
v -1.875796 9.100000 1.949585
v -1.880155 9.100000 1.936168
v -1.894262 9.100000 1.936168
v -1.898621 9.100000 1.949585
f 201 202 207
f 201 207 206
f 202 203 208
f 202 208 207
f 203 204 209
f 203 209 208
f 204 205 210
f 204 210 209
f 205 201 206
f 205 206 210
v -1.751933 7.800000 2.048265
v -1.740520 7.800000 2.039973
v -1.744879 7.800000 2.026557
v -1.758986 7.800000 2.026557
v -1.763345 7.800000 2.039973
v -1.751933 9.100000 2.048265
v -1.740520 9.100000 2.039973
v -1.744879 9.100000 2.026557
v -1.758986 9.100000 2.026557
v -1.763345 9.100000 2.039973
f 211 212 217
f 211 217 216
f 212 213 218
f 212 218 217
f 213 214 219
f 213 219 218
f 214 215 220
f 214 220 219
f 215 211 216
f 215 216 220
v -1.616656 7.800000 2.138654
v -1.605244 7.800000 2.130362
v -1.609603 7.800000 2.116946
v -1.623710 7.800000 2.116946
v -1.628069 7.800000 2.130362
v -1.616656 9.100000 2.138654
v -1.605244 9.100000 2.130362
v -1.609603 9.100000 2.116946
v -1.623710 9.100000 2.116946
v -1.628069 9.100000 2.130362
f 221 222 227
f 221 227 226
f 222 223 228
f 222 228 227
f 223 224 229
f 223 229 228
f 224 225 230
f 224 230 229
f 225 221 226
f 225 226 230
v -1.481380 7.800000 2.229042
v -1.469968 7.800000 2.220751
v -1.474327 7.800000 2.207334
v -1.488434 7.800000 2.207334
v -1.492793 7.800000 2.220751
v -1.481380 9.100000 2.229042
v -1.469968 9.100000 2.220751
v -1.474327 9.100000 2.207334
v -1.488434 9.100000 2.207334
v -1.492793 9.100000 2.220751
f 231 232 237
f 231 237 236
f 232 233 238
f 232 238 237
f 233 234 239
f 233 239 238
f 234 235 240
f 234 240 239
f 235 231 236
f 235 236 240
v -1.346104 7.800000 2.319431
v -1.334692 7.800000 2.311139
v -1.339051 7.800000 2.297723
v -1.353158 7.800000 2.297723
v -1.357517 7.800000 2.311139
v -1.346104 9.100000 2.319431
v -1.334692 9.100000 2.311139
v -1.339051 9.100000 2.297723
v -1.353158 9.100000 2.297723
v -1.357517 9.100000 2.311139
f 241 242 247
f 241 247 246
f 242 243 248
f 242 248 247
f 243 244 249
f 243 249 248
f 244 245 250
f 244 250 249
f 245 241 246
f 245 246 250
v -1.210828 7.800000 2.409820
v -1.199415 7.800000 2.401528
v -1.203775 7.800000 2.388111
v -1.217881 7.800000 2.388111
v -1.222241 7.800000 2.401528
v -1.210828 9.100000 2.409820
v -1.199415 9.100000 2.401528
v -1.203775 9.100000 2.388111
v -1.217881 9.100000 2.388111
v -1.222241 9.100000 2.401528
f 251 252 257
f 251 257 256
f 252 253 258
f 252 258 257
f 253 254 259
f 253 259 258
f 254 255 260
f 254 260 259
f 255 251 256
f 255 256 260
v -1.075552 7.800000 2.500208
v -1.064139 7.800000 2.491916
v -1.068498 7.800000 2.478500
v -1.082605 7.800000 2.478500
v -1.086965 7.800000 2.491916
v -1.075552 9.100000 2.500208
v -1.064139 9.100000 2.491916
v -1.068498 9.100000 2.478500
v -1.082605 9.100000 2.478500
v -1.086965 9.100000 2.491916
f 261 262 267
f 261 267 266
f 262 263 268
f 262 268 267
f 263 264 269
f 263 269 268
f 264 265 270
f 264 270 269
f 265 261 266
f 265 266 270
v -1.879209 7.800000 1.933903
v -1.884737 7.813695 1.942177
v -1.893681 7.808464 1.955563
v -1.893681 7.791536 1.955563
v -1.884737 7.786305 1.942177
v -1.067552 7.800000 2.476235
v -1.073080 7.813695 2.484508
v -1.082024 7.808464 2.497895
v -1.082024 7.791536 2.497895
v -1.073080 7.786305 2.484508
f 271 272 277
f 271 277 276
f 272 273 278
f 272 278 277
f 273 274 279
f 273 279 278
f 274 275 280
f 274 280 279
f 275 271 276
f 275 276 280
v -1.879209 8.450000 1.933903
v -1.884737 8.463695 1.942177
v -1.893681 8.458464 1.955563
v -1.893681 8.441536 1.955563
v -1.884737 8.436305 1.942177
v -1.067552 8.450000 2.476235
v -1.073080 8.463695 2.484508
v -1.082024 8.458464 2.497895
v -1.082024 8.441536 2.497895
v -1.073080 8.436305 2.484508
f 281 282 287
f 281 287 286
f 282 283 288
f 282 288 287
f 283 284 289
f 283 289 288
f 284 285 290
f 284 290 289
f 285 281 286
f 285 286 290
v -1.879209 9.100000 1.933903
v -1.884737 9.113695 1.942177
v -1.893681 9.108464 1.955563
v -1.893681 9.091536 1.955563
v -1.884737 9.086305 1.942177
v -1.067552 9.100000 2.476235
v -1.073080 9.113695 2.484508
v -1.082024 9.108464 2.497895
v -1.082024 9.091536 2.497895
v -1.073080 9.086305 2.484508
f 291 292 297
f 291 297 296
f 292 293 298
f 292 298 297
f 293 294 299
f 293 299 298
f 294 295 300
f 294 300 299
f 295 291 296
f 295 296 300
v 1.945876 7.800000 1.899209
v 1.957289 7.800000 1.890917
v 1.952930 7.800000 1.877501
v 1.938823 7.800000 1.877501
v 1.934464 7.800000 1.890917
v 1.945876 9.100000 1.899209
v 1.957289 9.100000 1.890917
v 1.952930 9.100000 1.877501
v 1.938823 9.100000 1.877501
v 1.934464 9.100000 1.890917
f 301 302 307
f 301 307 306
f 302 303 308
f 302 308 307
f 303 304 309
f 303 309 308
f 304 305 310
f 304 310 309
f 305 301 306
f 305 306 310
v 2.036265 7.800000 1.763933
v 2.047678 7.800000 1.755641
v 2.043319 7.800000 1.742224
v 2.029212 7.800000 1.742224
v 2.024852 7.800000 1.755641
v 2.036265 9.100000 1.763933
v 2.047678 9.100000 1.755641
v 2.043319 9.100000 1.742224
v 2.029212 9.100000 1.742224
v 2.024852 9.100000 1.755641
f 311 312 317
f 311 317 316
f 312 313 318
f 312 318 317
f 313 314 319
f 313 319 318
f 314 315 320
f 314 320 319
f 315 311 316
f 315 316 320
v 2.126654 7.800000 1.628656
v 2.138066 7.800000 1.620365
v 2.133707 7.800000 1.606948
v 2.119600 7.800000 1.606948
v 2.115241 7.800000 1.620365
v 2.126654 9.100000 1.628656
v 2.138066 9.100000 1.620365
v 2.133707 9.100000 1.606948
v 2.119600 9.100000 1.606948
v 2.115241 9.100000 1.620365
f 321 322 327
f 321 327 326
f 322 323 328
f 322 328 327
f 323 324 329
f 323 329 328
f 324 325 330
f 324 330 329
f 325 321 326
f 325 326 330
v 2.217042 7.800000 1.493380
v 2.228455 7.800000 1.485089
v 2.224096 7.800000 1.471672
v 2.209989 7.800000 1.471672
v 2.205630 7.800000 1.485089
v 2.217042 9.100000 1.493380
v 2.228455 9.100000 1.485089
v 2.224096 9.100000 1.471672
v 2.209989 9.100000 1.471672
v 2.205630 9.100000 1.485089
f 331 332 337
f 331 337 336
f 332 333 338
f 332 338 337
f 333 334 339
f 333 339 338
f 334 335 340
f 334 340 339
f 335 331 336
f 335 336 340
v 2.307431 7.800000 1.358104
v 2.318844 7.800000 1.349812
v 2.314484 7.800000 1.336396
v 2.300378 7.800000 1.336396
v 2.296018 7.800000 1.349812
v 2.307431 9.100000 1.358104
v 2.318844 9.100000 1.349812
v 2.314484 9.100000 1.336396
v 2.300378 9.100000 1.336396
v 2.296018 9.100000 1.349812
f 341 342 347
f 341 347 346
f 342 343 348
f 342 348 347
f 343 344 349
f 343 349 348
f 344 345 350
f 344 350 349
f 345 341 346
f 345 346 350
v 2.397820 7.800000 1.222828
v 2.409232 7.800000 1.214536
v 2.404873 7.800000 1.201120
v 2.390766 7.800000 1.201120
v 2.386407 7.800000 1.214536
v 2.397820 9.100000 1.222828
v 2.409232 9.100000 1.214536
v 2.404873 9.100000 1.201120
v 2.390766 9.100000 1.201120
v 2.386407 9.100000 1.214536
f 351 352 357
f 351 357 356
f 352 353 358
f 352 358 357
f 353 354 359
f 353 359 358
f 354 355 360
f 354 360 359
f 355 351 356
f 355 356 360
v 2.488208 7.800000 1.087552
v 2.499621 7.800000 1.079260
v 2.495262 7.800000 1.065844
v 2.481155 7.800000 1.065844
v 2.476796 7.800000 1.079260
v 2.488208 9.100000 1.087552
v 2.499621 9.100000 1.079260
v 2.495262 9.100000 1.065844
v 2.481155 9.100000 1.065844
v 2.476796 9.100000 1.079260
f 361 362 367
f 361 367 366
f 362 363 368
f 362 368 367
f 363 364 369
f 363 369 368
f 364 365 370
f 364 370 369
f 365 361 366
f 365 366 370
v 1.933903 7.800000 1.879209
v 1.942177 7.813695 1.884737
v 1.955563 7.808464 1.893681
v 1.955563 7.791536 1.893681
v 1.942177 7.786305 1.884737
v 2.476235 7.800000 1.067552
v 2.484508 7.813695 1.073080
v 2.497895 7.808464 1.082024
v 2.497895 7.791536 1.082024
v 2.484508 7.786305 1.073080
f 371 372 377
f 371 377 376
f 372 373 378
f 372 378 377
f 373 374 379
f 373 379 378
f 374 375 380
f 374 380 379
f 375 371 376
f 375 376 380
v 1.933903 8.450000 1.879209
v 1.942177 8.463695 1.884737
v 1.955563 8.458464 1.893681
v 1.955563 8.441536 1.893681
v 1.942177 8.436305 1.884737
v 2.476235 8.450000 1.067552
v 2.484508 8.463695 1.073080
v 2.497895 8.458464 1.082024
v 2.497895 8.441536 1.082024
v 2.484508 8.436305 1.073080
f 381 382 387
f 381 387 386
f 382 383 388
f 382 388 387
f 383 384 389
f 383 389 388
f 384 385 390
f 384 390 389
f 385 381 386
f 385 386 390
v 1.933903 9.100000 1.879209
v 1.942177 9.113695 1.884737
v 1.955563 9.108464 1.893681
v 1.955563 9.091536 1.893681
v 1.942177 9.086305 1.884737
v 2.476235 9.100000 1.067552
v 2.484508 9.113695 1.073080
v 2.497895 9.108464 1.082024
v 2.497895 9.091536 1.082024
v 2.484508 9.086305 1.073080
f 391 392 397
f 391 397 396
f 392 393 398
f 392 398 397
f 393 394 399
f 393 399 398
f 394 395 400
f 394 400 399
f 395 391 396
f 395 396 400
v -2.471864 11.200000 -0.968051
v -2.460451 11.200000 -0.976343
v -2.464811 11.200000 -0.989759
v -2.478918 11.200000 -0.989759
v -2.483277 11.200000 -0.976343
v -2.471864 12.500000 -0.968051
v -2.460451 12.500000 -0.976343
v -2.464811 12.500000 -0.989759
v -2.478918 12.500000 -0.989759
v -2.483277 12.500000 -0.976343
f 401 402 407
f 401 407 406
f 402 403 408
f 402 408 407
f 403 404 409
f 403 409 408
f 404 405 410
f 404 410 409
f 405 401 406
f 405 406 410
v -2.503012 11.200000 -0.811458
v -2.491600 11.200000 -0.819750
v -2.495959 11.200000 -0.833166
v -2.510066 11.200000 -0.833166
v -2.514425 11.200000 -0.819750
v -2.503012 12.500000 -0.811458
v -2.491600 12.500000 -0.819750
v -2.495959 12.500000 -0.833166
v -2.510066 12.500000 -0.833166
v -2.514425 12.500000 -0.819750
f 411 412 417
f 411 417 416
f 412 413 418
f 412 418 417
f 413 414 419
f 413 419 418
f 414 415 420
f 414 420 419
f 415 411 416
f 415 416 420
v -2.534161 11.200000 -0.654865
v -2.522748 11.200000 -0.663157
v -2.527107 11.200000 -0.676573
v -2.541214 11.200000 -0.676573
v -2.545573 11.200000 -0.663157
v -2.534161 12.500000 -0.654865
v -2.522748 12.500000 -0.663157
v -2.527107 12.500000 -0.676573
v -2.541214 12.500000 -0.676573
v -2.545573 12.500000 -0.663157
f 421 422 427
f 421 427 426
f 422 423 428
f 422 428 427
f 423 424 429
f 423 429 428
f 424 425 430
f 424 430 429
f 425 421 426
f 425 426 430
v -2.565309 11.200000 -0.498272
v -2.553896 11.200000 -0.506563
v -2.558256 11.200000 -0.519980
v -2.572363 11.200000 -0.519980
v -2.576722 11.200000 -0.506563
v -2.565309 12.500000 -0.498272
v -2.553896 12.500000 -0.506563
v -2.558256 12.500000 -0.519980
v -2.572363 12.500000 -0.519980
v -2.576722 12.500000 -0.506563
f 431 432 437
f 431 437 436
f 432 433 438
f 432 438 437
f 433 434 439
f 433 439 438
f 434 435 440
f 434 440 439
f 435 431 436
f 435 436 440
v -2.596457 11.200000 -0.341679
v -2.585045 11.200000 -0.349970
v -2.589404 11.200000 -0.363387
v -2.603511 11.200000 -0.363387
v -2.607870 11.200000 -0.349970
v -2.596457 12.500000 -0.341679
v -2.585045 12.500000 -0.349970
v -2.589404 12.500000 -0.363387
v -2.603511 12.500000 -0.363387
v -2.607870 12.500000 -0.349970
f 441 442 447
f 441 447 446
f 442 443 448
f 442 448 447
f 443 444 449
f 443 449 448
f 444 445 450
f 444 450 449
f 445 441 446
f 445 446 450
v -2.627606 11.200000 -0.185085
v -2.616193 11.200000 -0.193377
v -2.620552 11.200000 -0.206794
v -2.634659 11.200000 -0.206794
v -2.639018 11.200000 -0.193377
v -2.627606 12.500000 -0.185085
v -2.616193 12.500000 -0.193377
v -2.620552 12.500000 -0.206794
v -2.634659 12.500000 -0.206794
v -2.639018 12.500000 -0.193377
f 451 452 457
f 451 457 456
f 452 453 458
f 452 458 457
f 453 454 459
f 453 459 458
f 454 455 460
f 454 460 459
f 455 451 456
f 455 456 460
v -2.658754 11.200000 -0.028492
v -2.647341 11.200000 -0.036784
v -2.651701 11.200000 -0.050200
v -2.665807 11.200000 -0.050200
v -2.670167 11.200000 -0.036784
v -2.658754 12.500000 -0.028492
v -2.647341 12.500000 -0.036784
v -2.651701 12.500000 -0.050200
v -2.665807 12.500000 -0.050200
v -2.670167 12.500000 -0.036784
f 461 462 467
f 461 467 466
f 462 463 468
f 462 468 467
f 463 464 469
f 463 469 468
f 464 465 470
f 464 470 469
f 465 461 466
f 465 466 470
v -2.457741 11.200000 -0.977242
v -2.467500 11.213695 -0.979183
v -2.483290 11.208464 -0.982324
v -2.483290 11.191536 -0.982324
v -2.467500 11.186305 -0.979183
v -2.644631 11.200000 -0.037683
v -2.654390 11.213695 -0.039624
v -2.670180 11.208464 -0.042765
v -2.670180 11.191536 -0.042765
v -2.654390 11.186305 -0.039624
f 471 472 477
f 471 477 476
f 472 473 478
f 472 478 477
f 473 474 479
f 473 479 478
f 474 475 480
f 474 480 479
f 475 471 476
f 475 476 480
v -2.457741 11.850000 -0.977242
v -2.467500 11.863695 -0.979183
v -2.483290 11.858464 -0.982324
v -2.483290 11.841536 -0.982324
v -2.467500 11.836305 -0.979183
v -2.644631 11.850000 -0.037683
v -2.654390 11.863695 -0.039624
v -2.670180 11.858464 -0.042765
v -2.670180 11.841536 -0.042765
v -2.654390 11.836305 -0.039624
f 481 482 487
f 481 487 486
f 482 483 488
f 482 488 487
f 483 484 489
f 483 489 488
f 484 485 490
f 484 490 489
f 485 481 486
f 485 486 490
v -2.457741 12.500000 -0.977242
v -2.467500 12.513695 -0.979183
v -2.483290 12.508464 -0.982324
v -2.483290 12.491536 -0.982324
v -2.467500 12.486305 -0.979183
v -2.644631 12.500000 -0.037683
v -2.654390 12.513695 -0.039624
v -2.670180 12.508464 -0.042765
v -2.670180 12.491536 -0.042765
v -2.654390 12.486305 -0.039624
f 491 492 497
f 491 497 496
f 492 493 498
f 492 498 497
f 493 494 499
f 493 499 498
f 494 495 500
f 494 500 499
f 495 491 496
f 495 496 500
v 2.607107 14.600000 -0.027500
v 2.618520 14.600000 -0.035792
v 2.614161 14.600000 -0.049209
v 2.600054 14.600000 -0.049209
v 2.595695 14.600000 -0.035792
v 2.607107 15.900000 -0.027500
v 2.618520 15.900000 -0.035792
v 2.614161 15.900000 -0.049209
v 2.600054 15.900000 -0.049209
v 2.595695 15.900000 -0.035792
f 501 502 507
f 501 507 506
f 502 503 508
f 502 508 507
f 503 504 509
f 503 509 508
f 504 505 510
f 504 510 509
f 505 501 506
f 505 506 510
v 2.576551 14.600000 -0.181117
v 2.587964 14.600000 -0.189409
v 2.583605 14.600000 -0.202826
v 2.569498 14.600000 -0.202826
v 2.565138 14.600000 -0.189409
v 2.576551 15.900000 -0.181117
v 2.587964 15.900000 -0.189409
v 2.583605 15.900000 -0.202826
v 2.569498 15.900000 -0.202826
v 2.565138 15.900000 -0.189409
f 511 512 517
f 511 517 516
f 512 513 518
f 512 518 517
f 513 514 519
f 513 519 518
f 514 515 520
f 514 520 519
f 515 511 516
f 515 516 520
v 2.545995 14.600000 -0.334735
v 2.557407 14.600000 -0.343026
v 2.553048 14.600000 -0.356443
v 2.538941 14.600000 -0.356443
v 2.534582 14.600000 -0.343026
v 2.545995 15.900000 -0.334735
v 2.557407 15.900000 -0.343026
v 2.553048 15.900000 -0.356443
v 2.538941 15.900000 -0.356443
v 2.534582 15.900000 -0.343026
f 521 522 527
f 521 527 526
f 522 523 528
f 522 528 527
f 523 524 529
f 523 529 528
f 524 525 530
f 524 530 529
f 525 521 526
f 525 526 530
v 2.515438 14.600000 -0.488352
v 2.526851 14.600000 -0.496644
v 2.522492 14.600000 -0.510060
v 2.508385 14.600000 -0.510060
v 2.504026 14.600000 -0.496644
v 2.515438 15.900000 -0.488352
v 2.526851 15.900000 -0.496644
v 2.522492 15.900000 -0.510060
v 2.508385 15.900000 -0.510060
v 2.504026 15.900000 -0.496644
f 531 532 537
f 531 537 536
f 532 533 538
f 532 538 537
f 533 534 539
f 533 539 538
f 534 535 540
f 534 540 539
f 535 531 536
f 535 536 540
v 2.484882 14.600000 -0.641969
v 2.496295 14.600000 -0.650261
v 2.491935 14.600000 -0.663677
v 2.477829 14.600000 -0.663677
v 2.473469 14.600000 -0.650261
v 2.484882 15.900000 -0.641969
v 2.496295 15.900000 -0.650261
v 2.491935 15.900000 -0.663677
v 2.477829 15.900000 -0.663677
v 2.473469 15.900000 -0.650261
f 541 542 547
f 541 547 546
f 542 543 548
f 542 548 547
f 543 544 549
f 543 549 548
f 544 545 550
f 544 550 549
f 545 541 546
f 545 546 550
v 2.454326 14.600000 -0.795586
v 2.465738 14.600000 -0.803878
v 2.461379 14.600000 -0.817294
v 2.447272 14.600000 -0.817294
v 2.442913 14.600000 -0.803878
v 2.454326 15.900000 -0.795586
v 2.465738 15.900000 -0.803878
v 2.461379 15.900000 -0.817294
v 2.447272 15.900000 -0.817294
v 2.442913 15.900000 -0.803878
f 551 552 557
f 551 557 556
f 552 553 558
f 552 558 557
f 553 554 559
f 553 559 558
f 554 555 560
f 554 560 559
f 555 551 556
f 555 556 560
v 2.423769 14.600000 -0.949203
v 2.435182 14.600000 -0.957495
v 2.430823 14.600000 -0.970912
v 2.416716 14.600000 -0.970912
v 2.412357 14.600000 -0.957495
v 2.423769 15.900000 -0.949203
v 2.435182 15.900000 -0.957495
v 2.430823 15.900000 -0.970912
v 2.416716 15.900000 -0.970912
v 2.412357 15.900000 -0.957495
f 561 562 567
f 561 567 566
f 562 563 568
f 562 568 567
f 563 564 569
f 563 569 568
f 564 565 570
f 564 570 569
f 565 561 566
f 565 566 570
v 2.592984 14.600000 -0.036691
v 2.602743 14.613695 -0.038632
v 2.618533 14.608464 -0.041773
v 2.618533 14.591536 -0.041773
v 2.602743 14.586305 -0.038632
v 2.409646 14.600000 -0.958394
v 2.419405 14.613695 -0.960335
v 2.435195 14.608464 -0.963476
v 2.435195 14.591536 -0.963476
v 2.419405 14.586305 -0.960335
f 571 572 577
f 571 577 576
f 572 573 578
f 572 578 577
f 573 574 579
f 573 579 578
f 574 575 580
f 574 580 579
f 575 571 576
f 575 576 580
v 2.592984 15.250000 -0.036691
v 2.602743 15.263695 -0.038632
v 2.618533 15.258464 -0.041773
v 2.618533 15.241536 -0.041773
v 2.602743 15.236305 -0.038632
v 2.409646 15.250000 -0.958394
v 2.419405 15.263695 -0.960335
v 2.435195 15.258464 -0.963476
v 2.435195 15.241536 -0.963476
v 2.419405 15.236305 -0.960335
f 581 582 587
f 581 587 586
f 582 583 588
f 582 588 587
f 583 584 589
f 583 589 588
f 584 585 590
f 584 590 589
f 585 581 586
f 585 586 590
v 2.592984 15.900000 -0.036691
v 2.602743 15.913695 -0.038632
v 2.618533 15.908464 -0.041773
v 2.618533 15.891536 -0.041773
v 2.602743 15.886305 -0.038632
v 2.409646 15.900000 -0.958394
v 2.419405 15.913695 -0.960335
v 2.435195 15.908464 -0.963476
v 2.435195 15.891536 -0.963476
v 2.419405 15.886305 -0.960335
f 591 592 597
f 591 597 596
f 592 593 598
f 592 598 597
f 593 594 599
f 593 599 598
f 594 595 600
f 594 600 599
f 595 591 596
f 595 596 600
v -0.039500 14.600000 -2.595107
v -0.028088 14.600000 -2.603399
v -0.032447 14.600000 -2.616816
v -0.046554 14.600000 -2.616816
v -0.050913 14.600000 -2.603399
v -0.039500 15.900000 -2.595107
v -0.028088 15.900000 -2.603399
v -0.032447 15.900000 -2.616816
v -0.046554 15.900000 -2.616816
v -0.050913 15.900000 -2.603399
f 601 602 607
f 601 607 606
f 602 603 608
f 602 608 607
f 603 604 609
f 603 609 608
f 604 605 610
f 604 610 609
f 605 601 606
f 605 606 610
v -0.193117 14.600000 -2.564551
v -0.181705 14.600000 -2.572843
v -0.186064 14.600000 -2.586259
v -0.200171 14.600000 -2.586259
v -0.204530 14.600000 -2.572843
v -0.193117 15.900000 -2.564551
v -0.181705 15.900000 -2.572843
v -0.186064 15.900000 -2.586259
v -0.200171 15.900000 -2.586259
v -0.204530 15.900000 -2.572843
f 611 612 617
f 611 617 616
f 612 613 618
f 612 618 617
f 613 614 619
f 613 619 618
f 614 615 620
f 614 620 619
f 615 611 616
f 615 616 620
v -0.346735 14.600000 -2.533995
v -0.335322 14.600000 -2.542287
v -0.339681 14.600000 -2.555703
v -0.353788 14.600000 -2.555703
v -0.358147 14.600000 -2.542287
v -0.346735 15.900000 -2.533995
v -0.335322 15.900000 -2.542287
v -0.339681 15.900000 -2.555703
v -0.353788 15.900000 -2.555703
v -0.358147 15.900000 -2.542287
f 621 622 627
f 621 627 626
f 622 623 628
f 622 628 627
f 623 624 629
f 623 629 628
f 624 625 630
f 624 630 629
f 625 621 626
f 625 626 630
v -0.500352 14.600000 -2.503438
v -0.488939 14.600000 -2.511730
v -0.493298 14.600000 -2.525147
v -0.507405 14.600000 -2.525147
v -0.511764 14.600000 -2.511730
v -0.500352 15.900000 -2.503438
v -0.488939 15.900000 -2.511730
v -0.493298 15.900000 -2.525147
v -0.507405 15.900000 -2.525147
v -0.511764 15.900000 -2.511730
f 631 632 637
f 631 637 636
f 632 633 638
f 632 638 637
f 633 634 639
f 633 639 638
f 634 635 640
f 634 640 639
f 635 631 636
f 635 636 640
v -0.653969 14.600000 -2.472882
v -0.642556 14.600000 -2.481174
v -0.646916 14.600000 -2.494590
v -0.661022 14.600000 -2.494590
v -0.665382 14.600000 -2.481174
v -0.653969 15.900000 -2.472882
v -0.642556 15.900000 -2.481174
v -0.646916 15.900000 -2.494590
v -0.661022 15.900000 -2.494590
v -0.665382 15.900000 -2.481174
f 641 642 647
f 641 647 646
f 642 643 648
f 642 648 647
f 643 644 649
f 643 649 648
f 644 645 650
f 644 650 649
f 645 641 646
f 645 646 650
v -0.807586 14.600000 -2.442326
v -0.796173 14.600000 -2.450617
v -0.800533 14.600000 -2.464034
v -0.814640 14.600000 -2.464034
v -0.818999 14.600000 -2.450617
v -0.807586 15.900000 -2.442326
v -0.796173 15.900000 -2.450617
v -0.800533 15.900000 -2.464034
v -0.814640 15.900000 -2.464034
v -0.818999 15.900000 -2.450617
f 651 652 657
f 651 657 656
f 652 653 658
f 652 658 657
f 653 654 659
f 653 659 658
f 654 655 660
f 654 660 659
f 655 651 656
f 655 656 660
v -0.961203 14.600000 -2.411769
v -0.949791 14.600000 -2.420061
v -0.954150 14.600000 -2.433478
v -0.968257 14.600000 -2.433478
v -0.972616 14.600000 -2.420061
v -0.961203 15.900000 -2.411769
v -0.949791 15.900000 -2.420061
v -0.954150 15.900000 -2.433478
v -0.968257 15.900000 -2.433478
v -0.972616 15.900000 -2.420061
f 661 662 667
f 661 667 666
f 662 663 668
f 662 668 667
f 663 664 669
f 663 669 668
f 664 665 670
f 664 670 669
f 665 661 666
f 665 666 670
v -0.036691 14.600000 -2.592984
v -0.038632 14.613695 -2.602743
v -0.041773 14.608464 -2.618533
v -0.041773 14.591536 -2.618533
v -0.038632 14.586305 -2.602743
v -0.958394 14.600000 -2.409646
v -0.960335 14.613695 -2.419405
v -0.963476 14.608464 -2.435195
v -0.963476 14.591536 -2.435195
v -0.960335 14.586305 -2.419405
f 671 672 677
f 671 677 676
f 672 673 678
f 672 678 677
f 673 674 679
f 673 679 678
f 674 675 680
f 674 680 679
f 675 671 676
f 675 676 680
v -0.036691 15.250000 -2.592984
v -0.038632 15.263695 -2.602743
v -0.041773 15.258464 -2.618533
v -0.041773 15.241536 -2.618533
v -0.038632 15.236305 -2.602743
v -0.958394 15.250000 -2.409646
v -0.960335 15.263695 -2.419405
v -0.963476 15.258464 -2.435195
v -0.963476 15.241536 -2.435195
v -0.960335 15.236305 -2.419405
f 681 682 687
f 681 687 686
f 682 683 688
f 682 688 687
f 683 684 689
f 683 689 688
f 684 685 690
f 684 690 689
f 685 681 686
f 685 686 690
v -0.036691 15.900000 -2.592984
v -0.038632 15.913695 -2.602743
v -0.041773 15.908464 -2.618533
v -0.041773 15.891536 -2.618533
v -0.038632 15.886305 -2.602743
v -0.958394 15.900000 -2.409646
v -0.960335 15.913695 -2.419405
v -0.963476 15.908464 -2.435195
v -0.963476 15.891536 -2.435195
v -0.960335 15.886305 -2.419405
f 691 692 697
f 691 697 696
f 692 693 698
f 692 698 697
f 693 694 699
f 693 699 698
f 694 695 700
f 694 700 699
f 695 691 696
f 695 696 700
v -2.607107 14.600000 0.051500
v -2.595695 14.600000 0.043209
v -2.600054 14.600000 0.029792
v -2.614161 14.600000 0.029792
v -2.618520 14.600000 0.043209
v -2.607107 15.900000 0.051500
v -2.595695 15.900000 0.043209
v -2.600054 15.900000 0.029792
v -2.614161 15.900000 0.029792
v -2.618520 15.900000 0.043209
f 701 702 707
f 701 707 706
f 702 703 708
f 702 708 707
f 703 704 709
f 703 709 708
f 704 705 710
f 704 710 709
f 705 701 706
f 705 706 710
v -2.576551 14.600000 0.205117
v -2.565138 14.600000 0.196826
v -2.569498 14.600000 0.183409
v -2.583605 14.600000 0.183409
v -2.587964 14.600000 0.196826
v -2.576551 15.900000 0.205117
v -2.565138 15.900000 0.196826
v -2.569498 15.900000 0.183409
v -2.583605 15.900000 0.183409
v -2.587964 15.900000 0.196826
f 711 712 717
f 711 717 716
f 712 713 718
f 712 718 717
f 713 714 719
f 713 719 718
f 714 715 720
f 714 720 719
f 715 711 716
f 715 716 720
v -2.545995 14.600000 0.358735
v -2.534582 14.600000 0.350443
v -2.538941 14.600000 0.337026
v -2.553048 14.600000 0.337026
v -2.557407 14.600000 0.350443
v -2.545995 15.900000 0.358735
v -2.534582 15.900000 0.350443
v -2.538941 15.900000 0.337026
v -2.553048 15.900000 0.337026
v -2.557407 15.900000 0.350443
f 721 722 727
f 721 727 726
f 722 723 728
f 722 728 727
f 723 724 729
f 723 729 728
f 724 725 730
f 724 730 729
f 725 721 726
f 725 726 730
v -2.515438 14.600000 0.512352
v -2.504026 14.600000 0.504060
v -2.508385 14.600000 0.490644
v -2.522492 14.600000 0.490644
v -2.526851 14.600000 0.504060
v -2.515438 15.900000 0.512352
v -2.504026 15.900000 0.504060
v -2.508385 15.900000 0.490644
v -2.522492 15.900000 0.490644
v -2.526851 15.900000 0.504060
f 731 732 737
f 731 737 736
f 732 733 738
f 732 738 737
f 733 734 739
f 733 739 738
f 734 735 740
f 734 740 739
f 735 731 736
f 735 736 740
v -2.484882 14.600000 0.665969
v -2.473469 14.600000 0.657677
v -2.477829 14.600000 0.644261
v -2.491935 14.600000 0.644261
v -2.496295 14.600000 0.657677
v -2.484882 15.900000 0.665969
v -2.473469 15.900000 0.657677
v -2.477829 15.900000 0.644261
v -2.491935 15.900000 0.644261
v -2.496295 15.900000 0.657677
f 741 742 747
f 741 747 746
f 742 743 748
f 742 748 747
f 743 744 749
f 743 749 748
f 744 745 750
f 744 750 749
f 745 741 746
f 745 746 750
v -2.454326 14.600000 0.819586
v -2.442913 14.600000 0.811294
v -2.447272 14.600000 0.797878
v -2.461379 14.600000 0.797878
v -2.465738 14.600000 0.811294
v -2.454326 15.900000 0.819586
v -2.442913 15.900000 0.811294
v -2.447272 15.900000 0.797878
v -2.461379 15.900000 0.797878
v -2.465738 15.900000 0.811294
f 751 752 757
f 751 757 756
f 752 753 758
f 752 758 757
f 753 754 759
f 753 759 758
f 754 755 760
f 754 760 759
f 755 751 756
f 755 756 760
v -2.423769 14.600000 0.973203
v -2.412357 14.600000 0.964912
v -2.416716 14.600000 0.951495
v -2.430823 14.600000 0.951495
v -2.435182 14.600000 0.964912
v -2.423769 15.900000 0.973203
v -2.412357 15.900000 0.964912
v -2.416716 15.900000 0.951495
v -2.430823 15.900000 0.951495
v -2.435182 15.900000 0.964912
f 761 762 767
f 761 767 766
f 762 763 768
f 762 768 767
f 763 764 769
f 763 769 768
f 764 765 770
f 764 770 769
f 765 761 766
f 765 766 770
v -2.592984 14.600000 0.036691
v -2.602743 14.613695 0.038632
v -2.618533 14.608464 0.041773
v -2.618533 14.591536 0.041773
v -2.602743 14.586305 0.038632
v -2.409646 14.600000 0.958394
v -2.419405 14.613695 0.960335
v -2.435195 14.608464 0.963476
v -2.435195 14.591536 0.963476
v -2.419405 14.586305 0.960335
f 771 772 777
f 771 777 776
f 772 773 778
f 772 778 777
f 773 774 779
f 773 779 778
f 774 775 780
f 774 780 779
f 775 771 776
f 775 776 780
v -2.592984 15.250000 0.036691
v -2.602743 15.263695 0.038632
v -2.618533 15.258464 0.041773
v -2.618533 15.241536 0.041773
v -2.602743 15.236305 0.038632
v -2.409646 15.250000 0.958394
v -2.419405 15.263695 0.960335
v -2.435195 15.258464 0.963476
v -2.435195 15.241536 0.963476
v -2.419405 15.236305 0.960335
f 781 782 787
f 781 787 786
f 782 783 788
f 782 788 787
f 783 784 789
f 783 789 788
f 784 785 790
f 784 790 789
f 785 781 786
f 785 786 790
v -2.592984 15.900000 0.036691
v -2.602743 15.913695 0.038632
v -2.618533 15.908464 0.041773
v -2.618533 15.891536 0.041773
v -2.602743 15.886305 0.038632
v -2.409646 15.900000 0.958394
v -2.419405 15.913695 0.960335
v -2.435195 15.908464 0.963476
v -2.435195 15.891536 0.963476
v -2.419405 15.886305 0.960335
f 791 792 797
f 791 797 796
f 792 793 798
f 792 798 797
f 793 794 799
f 793 799 798
f 794 795 800
f 794 800 799
f 795 791 796
f 795 796 800
v 2.346202 18.000000 -1.001510
v 2.357614 18.000000 -1.009801
v 2.353255 18.000000 -1.023218
v 2.339148 18.000000 -1.023218
v 2.334789 18.000000 -1.009801
v 2.346202 19.300000 -1.001510
v 2.357614 19.300000 -1.009801
v 2.353255 19.300000 -1.023218
v 2.339148 19.300000 -1.023218
v 2.334789 19.300000 -1.009801
f 801 802 807
f 801 807 806
f 802 803 808
f 802 808 807
f 803 804 809
f 803 809 808
f 804 805 810
f 804 810 809
f 805 801 806
f 805 806 810
v 2.260870 18.000000 -1.129217
v 2.272283 18.000000 -1.137509
v 2.267924 18.000000 -1.150925
v 2.253817 18.000000 -1.150925
v 2.249457 18.000000 -1.137509
v 2.260870 19.300000 -1.129217
v 2.272283 19.300000 -1.137509
v 2.267924 19.300000 -1.150925
v 2.253817 19.300000 -1.150925
v 2.249457 19.300000 -1.137509
f 811 812 817
f 811 817 816
f 812 813 818
f 812 818 817
f 813 814 819
f 813 819 818
f 814 815 820
f 814 820 819
f 815 811 816
f 815 816 820
v 2.175539 18.000000 -1.256924
v 2.186951 18.000000 -1.265216
v 2.182592 18.000000 -1.278633
v 2.168485 18.000000 -1.278633
v 2.164126 18.000000 -1.265216
v 2.175539 19.300000 -1.256924
v 2.186951 19.300000 -1.265216
v 2.182592 19.300000 -1.278633
v 2.168485 19.300000 -1.278633
v 2.164126 19.300000 -1.265216
f 821 822 827
f 821 827 826
f 822 823 828
f 822 828 827
f 823 824 829
f 823 829 828
f 824 825 830
f 824 830 829
f 825 821 826
f 825 826 830
v 2.090207 18.000000 -1.384632
v 2.101620 18.000000 -1.392924
v 2.097261 18.000000 -1.406340
v 2.083154 18.000000 -1.406340
v 2.078795 18.000000 -1.392924
v 2.090207 19.300000 -1.384632
v 2.101620 19.300000 -1.392924
v 2.097261 19.300000 -1.406340
v 2.083154 19.300000 -1.406340
v 2.078795 19.300000 -1.392924
f 831 832 837
f 831 837 836
f 832 833 838
f 832 838 837
f 833 834 839
f 833 839 838
f 834 835 840
f 834 840 839
f 835 831 836
f 835 836 840
v 2.004876 18.000000 -1.512339
v 2.016289 18.000000 -1.520631
v 2.011929 18.000000 -1.534048
v 1.997823 18.000000 -1.534048
v 1.993463 18.000000 -1.520631
v 2.004876 19.300000 -1.512339
v 2.016289 19.300000 -1.520631
v 2.011929 19.300000 -1.534048
v 1.997823 19.300000 -1.534048
v 1.993463 19.300000 -1.520631
f 841 842 847
f 841 847 846
f 842 843 848
f 842 848 847
f 843 844 849
f 843 849 848
f 844 845 850
f 844 850 849
f 845 841 846
f 845 846 850
v 1.919545 18.000000 -1.640047
v 1.930957 18.000000 -1.648339
v 1.926598 18.000000 -1.661755
v 1.912491 18.000000 -1.661755
v 1.908132 18.000000 -1.648339
v 1.919545 19.300000 -1.640047
v 1.930957 19.300000 -1.648339
v 1.926598 19.300000 -1.661755
v 1.912491 19.300000 -1.661755
v 1.908132 19.300000 -1.648339
f 851 852 857
f 851 857 856
f 852 853 858
f 852 858 857
f 853 854 859
f 853 859 858
f 854 855 860
f 854 860 859
f 855 851 856
f 855 856 860
v 1.834213 18.000000 -1.767754
v 1.845626 18.000000 -1.776046
v 1.841267 18.000000 -1.789462
v 1.827160 18.000000 -1.789462
v 1.822801 18.000000 -1.776046
v 1.834213 19.300000 -1.767754
v 1.845626 19.300000 -1.776046
v 1.841267 19.300000 -1.789462
v 1.827160 19.300000 -1.789462
v 1.822801 19.300000 -1.776046
f 861 862 867
f 861 867 866
f 862 863 868
f 862 868 867
f 863 864 869
f 863 869 868
f 864 865 870
f 864 870 869
f 865 861 866
f 865 866 870
v 2.334228 18.000000 -1.005509
v 2.342502 18.013695 -1.011037
v 2.355888 18.008464 -1.019982
v 2.355888 17.991536 -1.019982
v 2.342502 17.986305 -1.011037
v 1.822240 18.000000 -1.771754
v 1.830513 18.013695 -1.777282
v 1.843900 18.008464 -1.786227
v 1.843900 17.991536 -1.786227
v 1.830513 17.986305 -1.777282
f 871 872 877
f 871 877 876
f 872 873 878
f 872 878 877
f 873 874 879
f 873 879 878
f 874 875 880
f 874 880 879
f 875 871 876
f 875 876 880
v 2.334228 18.650000 -1.005509
v 2.342502 18.663695 -1.011037
v 2.355888 18.658464 -1.019982
v 2.355888 18.641536 -1.019982
v 2.342502 18.636305 -1.011037
v 1.822240 18.650000 -1.771754
v 1.830513 18.663695 -1.777282
v 1.843900 18.658464 -1.786227
v 1.843900 18.641536 -1.786227
v 1.830513 18.636305 -1.777282
f 881 882 887
f 881 887 886
f 882 883 888
f 882 888 887
f 883 884 889
f 883 889 888
f 884 885 890
f 884 890 889
f 885 881 886
f 885 886 890
v 2.334228 19.300000 -1.005509
v 2.342502 19.313695 -1.011037
v 2.355888 19.308464 -1.019982
v 2.355888 19.291536 -1.019982
v 2.342502 19.286305 -1.011037
v 1.822240 19.300000 -1.771754
v 1.830513 19.313695 -1.777282
v 1.843900 19.308464 -1.786227
v 1.843900 19.291536 -1.786227
v 1.830513 19.286305 -1.777282
f 891 892 897
f 891 897 896
f 892 893 898
f 892 898 897
f 893 894 899
f 893 899 898
f 894 895 900
f 894 900 899
f 895 891 896
f 895 896 900
v -1.013510 18.000000 -2.334202
v -1.002097 18.000000 -2.342493
v -1.006456 18.000000 -2.355910
v -1.020563 18.000000 -2.355910
v -1.024922 18.000000 -2.342493
v -1.013510 19.300000 -2.334202
v -1.002097 19.300000 -2.342493
v -1.006456 19.300000 -2.355910
v -1.020563 19.300000 -2.355910
v -1.024922 19.300000 -2.342493
f 901 902 907
f 901 907 906
f 902 903 908
f 902 908 907
f 903 904 909
f 903 909 908
f 904 905 910
f 904 910 909
f 905 901 906
f 905 906 910
v -1.141217 18.000000 -2.248870
v -1.129804 18.000000 -2.257162
v -1.134164 18.000000 -2.270578
v -1.148270 18.000000 -2.270578
v -1.152630 18.000000 -2.257162
v -1.141217 19.300000 -2.248870
v -1.129804 19.300000 -2.257162
v -1.134164 19.300000 -2.270578
v -1.148270 19.300000 -2.270578
v -1.152630 19.300000 -2.257162
f 911 912 917
f 911 917 916
f 912 913 918
f 912 918 917
f 913 914 919
f 913 919 918
f 914 915 920
f 914 920 919
f 915 911 916
f 915 916 920
v -1.268924 18.000000 -2.163539
v -1.257512 18.000000 -2.171831
v -1.261871 18.000000 -2.185247
v -1.275978 18.000000 -2.185247
v -1.280337 18.000000 -2.171831
v -1.268924 19.300000 -2.163539
v -1.257512 19.300000 -2.171831
v -1.261871 19.300000 -2.185247
v -1.275978 19.300000 -2.185247
v -1.280337 19.300000 -2.171831
f 921 922 927
f 921 927 926
f 922 923 928
f 922 928 927
f 923 924 929
f 923 929 928
f 924 925 930
f 924 930 929
f 925 921 926
f 925 926 930
v -1.396632 18.000000 -2.078207
v -1.385219 18.000000 -2.086499
v -1.389579 18.000000 -2.099916
v -1.403685 18.000000 -2.099916
v -1.408045 18.000000 -2.086499
v -1.396632 19.300000 -2.078207
v -1.385219 19.300000 -2.086499
v -1.389579 19.300000 -2.099916
v -1.403685 19.300000 -2.099916
v -1.408045 19.300000 -2.086499
f 931 932 937
f 931 937 936
f 932 933 938
f 932 938 937
f 933 934 939
f 933 939 938
f 934 935 940
f 934 940 939
f 935 931 936
f 935 936 940
v -1.524339 18.000000 -1.992876
v -1.512927 18.000000 -2.001168
v -1.517286 18.000000 -2.014584
v -1.531393 18.000000 -2.014584
v -1.535752 18.000000 -2.001168
v -1.524339 19.300000 -1.992876
v -1.512927 19.300000 -2.001168
v -1.517286 19.300000 -2.014584
v -1.531393 19.300000 -2.014584
v -1.535752 19.300000 -2.001168
f 941 942 947
f 941 947 946
f 942 943 948
f 942 948 947
f 943 944 949
f 943 949 948
f 944 945 950
f 944 950 949
f 945 941 946
f 945 946 950
v -1.652047 18.000000 -1.907545
v -1.640634 18.000000 -1.915836
v -1.644993 18.000000 -1.929253
v -1.659100 18.000000 -1.929253
v -1.663459 18.000000 -1.915836
v -1.652047 19.300000 -1.907545
v -1.640634 19.300000 -1.915836
v -1.644993 19.300000 -1.929253
v -1.659100 19.300000 -1.929253
v -1.663459 19.300000 -1.915836
f 951 952 957
f 951 957 956
f 952 953 958
f 952 958 957
f 953 954 959
f 953 959 958
f 954 955 960
f 954 960 959
f 955 951 956
f 955 956 960
v -1.779754 18.000000 -1.822213
v -1.768342 18.000000 -1.830505
v -1.772701 18.000000 -1.843921
v -1.786808 18.000000 -1.843921
v -1.791167 18.000000 -1.830505
v -1.779754 19.300000 -1.822213
v -1.768342 19.300000 -1.830505
v -1.772701 19.300000 -1.843921
v -1.786808 19.300000 -1.843921
v -1.791167 19.300000 -1.830505
f 961 962 967
f 961 967 966
f 962 963 968
f 962 968 967
f 963 964 969
f 963 969 968
f 964 965 970
f 964 970 969
f 965 961 966
f 965 966 970
v -1.005509 18.000000 -2.334228
v -1.011037 18.013695 -2.342502
v -1.019982 18.008464 -2.355888
v -1.019982 17.991536 -2.355888
v -1.011037 17.986305 -2.342502
v -1.771754 18.000000 -1.822240
v -1.777282 18.013695 -1.830513
v -1.786227 18.008464 -1.843900
v -1.786227 17.991536 -1.843900
v -1.777282 17.986305 -1.830513
f 971 972 977
f 971 977 976
f 972 973 978
f 972 978 977
f 973 974 979
f 973 979 978
f 974 975 980
f 974 980 979
f 975 971 976
f 975 976 980
v -1.005509 18.650000 -2.334228
v -1.011037 18.663695 -2.342502
v -1.019982 18.658464 -2.355888
v -1.019982 18.641536 -2.355888
v -1.011037 18.636305 -2.342502
v -1.771754 18.650000 -1.822240
v -1.777282 18.663695 -1.830513
v -1.786227 18.658464 -1.843900
v -1.786227 18.641536 -1.843900
v -1.777282 18.636305 -1.830513
f 981 982 987
f 981 987 986
f 982 983 988
f 982 988 987
f 983 984 989
f 983 989 988
f 984 985 990
f 984 990 989
f 985 981 986
f 985 986 990
v -1.005509 19.300000 -2.334228
v -1.011037 19.313695 -2.342502
v -1.019982 19.308464 -2.355888
v -1.019982 19.291536 -2.355888
v -1.011037 19.286305 -2.342502
v -1.771754 19.300000 -1.822240
v -1.777282 19.313695 -1.830513
v -1.786227 19.308464 -1.843900
v -1.786227 19.291536 -1.843900
v -1.777282 19.286305 -1.830513
f 991 992 997
f 991 997 996
f 992 993 998
f 992 998 997
f 993 994 999
f 993 999 998
f 994 995 1000
f 994 1000 999
f 995 991 996
f 995 996 1000
v -2.346202 18.000000 1.025510
v -2.334789 18.000000 1.017218
v -2.339148 18.000000 1.003801
v -2.353255 18.000000 1.003801
v -2.357614 18.000000 1.017218
v -2.346202 19.300000 1.025510
v -2.334789 19.300000 1.017218
v -2.339148 19.300000 1.003801
v -2.353255 19.300000 1.003801
v -2.357614 19.300000 1.017218
f 1001 1002 1007
f 1001 1007 1006
f 1002 1003 1008
f 1002 1008 1007
f 1003 1004 1009
f 1003 1009 1008
f 1004 1005 1010
f 1004 1010 1009
f 1005 1001 1006
f 1005 1006 1010
v -2.260870 18.000000 1.153217
v -2.249457 18.000000 1.144925
v -2.253817 18.000000 1.131509
v -2.267924 18.000000 1.131509
v -2.272283 18.000000 1.144925
v -2.260870 19.300000 1.153217
v -2.249457 19.300000 1.144925
v -2.253817 19.300000 1.131509
v -2.267924 19.300000 1.131509
v -2.272283 19.300000 1.144925
f 1011 1012 1017
f 1011 1017 1016
f 1012 1013 1018
f 1012 1018 1017
f 1013 1014 1019
f 1013 1019 1018
f 1014 1015 1020
f 1014 1020 1019
f 1015 1011 1016
f 1015 1016 1020
v -2.175539 18.000000 1.280924
v -2.164126 18.000000 1.272633
v -2.168485 18.000000 1.259216
v -2.182592 18.000000 1.259216
v -2.186951 18.000000 1.272633
v -2.175539 19.300000 1.280924
v -2.164126 19.300000 1.272633
v -2.168485 19.300000 1.259216
v -2.182592 19.300000 1.259216
v -2.186951 19.300000 1.272633
f 1021 1022 1027
f 1021 1027 1026
f 1022 1023 1028
f 1022 1028 1027
f 1023 1024 1029
f 1023 1029 1028
f 1024 1025 1030
f 1024 1030 1029
f 1025 1021 1026
f 1025 1026 1030
v -2.090207 18.000000 1.408632
v -2.078795 18.000000 1.400340
v -2.083154 18.000000 1.386924
v -2.097261 18.000000 1.386924
v -2.101620 18.000000 1.400340
v -2.090207 19.300000 1.408632
v -2.078795 19.300000 1.400340
v -2.083154 19.300000 1.386924
v -2.097261 19.300000 1.386924
v -2.101620 19.300000 1.400340
f 1031 1032 1037
f 1031 1037 1036
f 1032 1033 1038
f 1032 1038 1037
f 1033 1034 1039
f 1033 1039 1038
f 1034 1035 1040
f 1034 1040 1039
f 1035 1031 1036
f 1035 1036 1040
v -2.004876 18.000000 1.536339
v -1.993463 18.000000 1.528048
v -1.997823 18.000000 1.514631
v -2.011929 18.000000 1.514631
v -2.016289 18.000000 1.528048
v -2.004876 19.300000 1.536339
v -1.993463 19.300000 1.528048
v -1.997823 19.300000 1.514631
v -2.011929 19.300000 1.514631
v -2.016289 19.300000 1.528048
f 1041 1042 1047
f 1041 1047 1046
f 1042 1043 1048
f 1042 1048 1047
f 1043 1044 1049
f 1043 1049 1048
f 1044 1045 1050
f 1044 1050 1049
f 1045 1041 1046
f 1045 1046 1050
v -1.919545 18.000000 1.664047
v -1.908132 18.000000 1.655755
v -1.912491 18.000000 1.642339
v -1.926598 18.000000 1.642339
v -1.930957 18.000000 1.655755
v -1.919545 19.300000 1.664047
v -1.908132 19.300000 1.655755
v -1.912491 19.300000 1.642339
v -1.926598 19.300000 1.642339
v -1.930957 19.300000 1.655755
f 1051 1052 1057
f 1051 1057 1056
f 1052 1053 1058
f 1052 1058 1057
f 1053 1054 1059
f 1053 1059 1058
f 1054 1055 1060
f 1054 1060 1059
f 1055 1051 1056
f 1055 1056 1060
v -1.834213 18.000000 1.791754
v -1.822801 18.000000 1.783462
v -1.827160 18.000000 1.770046
v -1.841267 18.000000 1.770046
v -1.845626 18.000000 1.783462
v -1.834213 19.300000 1.791754
v -1.822801 19.300000 1.783462
v -1.827160 19.300000 1.770046
v -1.841267 19.300000 1.770046
v -1.845626 19.300000 1.783462
f 1061 1062 1067
f 1061 1067 1066
f 1062 1063 1068
f 1062 1068 1067
f 1063 1064 1069
f 1063 1069 1068
f 1064 1065 1070
f 1064 1070 1069
f 1065 1061 1066
f 1065 1066 1070
v -2.334228 18.000000 1.005509
v -2.342502 18.013695 1.011037
v -2.355888 18.008464 1.019982
v -2.355888 17.991536 1.019982
v -2.342502 17.986305 1.011037
v -1.822240 18.000000 1.771754
v -1.830513 18.013695 1.777282
v -1.843900 18.008464 1.786227
v -1.843900 17.991536 1.786227
v -1.830513 17.986305 1.777282
f 1071 1072 1077
f 1071 1077 1076
f 1072 1073 1078
f 1072 1078 1077
f 1073 1074 1079
f 1073 1079 1078
f 1074 1075 1080
f 1074 1080 1079
f 1075 1071 1076
f 1075 1076 1080
v -2.334228 18.650000 1.005509
v -2.342502 18.663695 1.011037
v -2.355888 18.658464 1.019982
v -2.355888 18.641536 1.019982
v -2.342502 18.636305 1.011037
v -1.822240 18.650000 1.771754
v -1.830513 18.663695 1.777282
v -1.843900 18.658464 1.786227
v -1.843900 18.641536 1.786227
v -1.830513 18.636305 1.777282
f 1081 1082 1087
f 1081 1087 1086
f 1082 1083 1088
f 1082 1088 1087
f 1083 1084 1089
f 1083 1089 1088
f 1084 1085 1090
f 1084 1090 1089
f 1085 1081 1086
f 1085 1086 1090
v -2.334228 19.300000 1.005509
v -2.342502 19.313695 1.011037
v -2.355888 19.308464 1.019982
v -2.355888 19.291536 1.019982
v -2.342502 19.286305 1.011037
v -1.822240 19.300000 1.771754
v -1.830513 19.313695 1.777282
v -1.843900 19.308464 1.786227
v -1.843900 19.291536 1.786227
v -1.830513 19.286305 1.777282
f 1091 1092 1097
f 1091 1097 1096
f 1092 1093 1098
f 1092 1098 1097
f 1093 1094 1099
f 1093 1099 1098
f 1094 1095 1100
f 1094 1100 1099
f 1095 1091 1096
f 1095 1096 1100
