o mesh
v 0.000000 0.020000 -0.000000 0.180 0.500 0.200
v 0.004201 0.025924 -0.011976 0.180 0.500 0.200
v 0.009616 0.031848 -0.023980 0.180 0.500 0.200
v 0.015401 0.037771 -0.035991 0.180 0.500 0.200
v 0.021215 0.043695 -0.048003 0.180 0.500 0.200
v 0.026803 0.049619 -0.060010 0.180 0.500 0.200
v 0.031954 0.055543 -0.072008 0.180 0.500 0.200
v 0.036487 0.061467 -0.083991 0.180 0.500 0.200
v 0.040251 0.067390 -0.095958 0.180 0.500 0.200
v 0.043120 0.073314 -0.107905 0.180 0.500 0.200
v 0.044998 0.079238 -0.119830 0.180 0.500 0.200
v 0.045823 0.085162 -0.131732 0.180 0.500 0.200
v 0.045561 0.091086 -0.143610 0.180 0.500 0.200
v 0.044212 0.097009 -0.155464 0.180 0.500 0.200
v 0.041809 0.102933 -0.167295 0.180 0.500 0.200
v 0.038416 0.108857 -0.179104 0.180 0.500 0.200
v 0.034128 0.114781 -0.190893 0.180 0.500 0.200
v 0.029070 0.120705 -0.202665 0.180 0.500 0.200
v 0.023395 0.126628 -0.214423 0.180 0.500 0.200
v 0.017283 0.132552 -0.226172 0.180 0.500 0.200
v 0.010945 0.138476 -0.237916 0.180 0.500 0.200
v 0.004636 0.144400 -0.249661 0.180 0.500 0.200
v -0.001303 0.150323 -0.261413 0.180 0.500 0.200
v -0.006029 0.156247 -0.273193 0.180 0.500 0.200
v -0.010230 0.150323 -0.261216 0.180 0.500 0.200
v -0.015645 0.144400 -0.249213 0.180 0.500 0.200
v -0.021430 0.138476 -0.237202 0.180 0.500 0.200
v -0.027243 0.132552 -0.225190 0.180 0.500 0.200
v -0.032831 0.126628 -0.213183 0.180 0.500 0.200
v -0.037982 0.120705 -0.201185 0.180 0.500 0.200
v -0.042516 0.114781 -0.189201 0.180 0.500 0.200
v -0.046279 0.108857 -0.177235 0.180 0.500 0.200
v -0.049148 0.102933 -0.165288 0.180 0.500 0.200
v -0.051027 0.097009 -0.153362 0.180 0.500 0.200
v -0.051852 0.091086 -0.141461 0.180 0.500 0.200
v -0.051590 0.085162 -0.129583 0.180 0.500 0.200
v -0.050241 0.079238 -0.117729 0.180 0.500 0.200
v -0.047838 0.073314 -0.105898 0.180 0.500 0.200
v -0.044445 0.067390 -0.094089 0.180 0.500 0.200
v -0.040157 0.061467 -0.082300 0.180 0.500 0.200
v -0.035099 0.055543 -0.070528 0.180 0.500 0.200
v -0.029424 0.049619 -0.058769 0.180 0.500 0.200
v -0.023312 0.043695 -0.047021 0.180 0.500 0.200
v -0.016974 0.037771 -0.035277 0.180 0.500 0.200
v -0.010664 0.031848 -0.023532 0.180 0.500 0.200
v -0.004726 0.025924 -0.011779 0.180 0.500 0.200
f 1 2 3
f 1 3 2
f 1 3 4
f 1 4 3
f 1 4 5
f 1 5 4
f 1 5 6
f 1 6 5
f 1 6 7
f 1 7 6
f 1 7 8
f 1 8 7
f 1 8 9
f 1 9 8
f 1 9 10
f 1 10 9
f 1 10 11
f 1 11 10
f 1 11 12
f 1 12 11
f 1 12 13
f 1 13 12
f 1 13 14
f 1 14 13
f 1 14 15
f 1 15 14
f 1 15 16
f 1 16 15
f 1 16 17
f 1 17 16
f 1 17 18
f 1 18 17
f 1 18 19
f 1 19 18
f 1 19 20
f 1 20 19
f 1 20 21
f 1 21 20
f 1 21 22
f 1 22 21
f 1 22 23
f 1 23 22
f 1 23 24
f 1 24 23
f 1 24 25
f 1 25 24
f 1 25 26
f 1 26 25
f 1 26 27
f 1 27 26
f 1 27 28
f 1 28 27
f 1 28 29
f 1 29 28
f 1 29 30
f 1 30 29
f 1 30 31
f 1 31 30
f 1 31 32
f 1 32 31
f 1 32 33
f 1 33 32
f 1 33 34
f 1 34 33
f 1 34 35
f 1 35 34
f 1 35 36
f 1 36 35
f 1 36 37
f 1 37 36
f 1 37 38
f 1 38 37
f 1 38 39
f 1 39 38
f 1 39 40
f 1 40 39
f 1 40 41
f 1 41 40
f 1 41 42
f 1 42 41
f 1 42 43
f 1 43 42
f 1 43 44
f 1 44 43
f 1 44 45
f 1 45 44
f 1 45 46
f 1 46 45
v 0.000000 0.020000 -0.000000 0.180 0.500 0.200
v 0.008943 0.027844 -0.006700 0.180 0.500 0.200
v 0.018907 0.035688 -0.012805 0.180 0.500 0.200
v 0.029184 0.043532 -0.018728 0.180 0.500 0.200
v 0.039485 0.051375 -0.024637 0.180 0.500 0.200
v 0.049595 0.059219 -0.030656 0.180 0.500 0.200
v 0.059338 0.067063 -0.036890 0.180 0.500 0.200
v 0.068561 0.074907 -0.043428 0.180 0.500 0.200
v 0.077135 0.082751 -0.050343 0.180 0.500 0.200
v 0.084955 0.090595 -0.057698 0.180 0.500 0.200
v 0.091941 0.098439 -0.065538 0.180 0.500 0.200
v 0.098040 0.106282 -0.073897 0.180 0.500 0.200
v 0.103223 0.114126 -0.082789 0.180 0.500 0.200
v 0.107490 0.121970 -0.092214 0.180 0.500 0.200
v 0.110870 0.129814 -0.102157 0.180 0.500 0.200
v 0.113415 0.137658 -0.112586 0.180 0.500 0.200
v 0.115207 0.145502 -0.123455 0.180 0.500 0.200
v 0.116351 0.153346 -0.134701 0.180 0.500 0.200
v 0.116974 0.161190 -0.146251 0.180 0.500 0.200
v 0.117230 0.169033 -0.158015 0.180 0.500 0.200
v 0.117295 0.176877 -0.169890 0.180 0.500 0.200
v 0.117384 0.184721 -0.181751 0.180 0.500 0.200
v 0.117785 0.192565 -0.193430 0.180 0.500 0.200
v 0.119209 0.200409 -0.204513 0.180 0.500 0.200
v 0.110266 0.192565 -0.197813 0.180 0.500 0.200
v 0.100301 0.184721 -0.191708 0.180 0.500 0.200
v 0.090024 0.176877 -0.185786 0.180 0.500 0.200
v 0.079724 0.169033 -0.179877 0.180 0.500 0.200
v 0.069613 0.161190 -0.173857 0.180 0.500 0.200
v 0.059870 0.153346 -0.167623 0.180 0.500 0.200
v 0.050648 0.145502 -0.161086 0.180 0.500 0.200
v 0.042074 0.137658 -0.154170 0.180 0.500 0.200
v 0.034254 0.129814 -0.146816 0.180 0.500 0.200
v 0.027267 0.121970 -0.138975 0.180 0.500 0.200
v 0.021169 0.114126 -0.130617 0.180 0.500 0.200
v 0.015986 0.106282 -0.121725 0.180 0.500 0.200
v 0.011718 0.098439 -0.112299 0.180 0.500 0.200
v 0.008339 0.090595 -0.102356 0.180 0.500 0.200
v 0.005793 0.082751 -0.091927 0.180 0.500 0.200
v 0.004001 0.074907 -0.081059 0.180 0.500 0.200
v 0.002858 0.067063 -0.069812 0.180 0.500 0.200
v 0.002234 0.059219 -0.058263 0.180 0.500 0.200
v 0.001979 0.051375 -0.046498 0.180 0.500 0.200
v 0.001914 0.043532 -0.034624 0.180 0.500 0.200
v 0.001825 0.035688 -0.022762 0.180 0.500 0.200
v 0.001423 0.027844 -0.011083 0.180 0.500 0.200
f 47 48 49
f 47 49 48
f 47 49 50
f 47 50 49
f 47 50 51
f 47 51 50
f 47 51 52
f 47 52 51
f 47 52 53
f 47 53 52
f 47 53 54
f 47 54 53
f 47 54 55
f 47 55 54
f 47 55 56
f 47 56 55
f 47 56 57
f 47 57 56
f 47 57 58
f 47 58 57
f 47 58 59
f 47 59 58
f 47 59 60
f 47 60 59
f 47 60 61
f 47 61 60
f 47 61 62
f 47 62 61
f 47 62 63
f 47 63 62
f 47 63 64
f 47 64 63
f 47 64 65
f 47 65 64
f 47 65 66
f 47 66 65
f 47 66 67
f 47 67 66
f 47 67 68
f 47 68 67
f 47 68 69
f 47 69 68
f 47 69 70
f 47 70 69
f 47 70 71
f 47 71 70
f 47 71 72
f 47 72 71
f 47 72 73
f 47 73 72
f 47 73 74
f 47 74 73
f 47 74 75
f 47 75 74
f 47 75 76
f 47 76 75
f 47 76 77
f 47 77 76
f 47 77 78
f 47 78 77
f 47 78 79
f 47 79 78
f 47 79 80
f 47 80 79
f 47 80 81
f 47 81 80
f 47 81 82
f 47 82 81
f 47 82 83
f 47 83 82
f 47 83 84
f 47 84 83
f 47 84 85
f 47 85 84
f 47 85 86
f 47 86 85
f 47 86 87
f 47 87 86
f 47 87 88
f 47 88 87
f 47 88 89
f 47 89 88
f 47 89 90
f 47 90 89
f 47 90 91
f 47 91 90
f 47 91 92
f 47 92 91
v 0.000000 0.020000 -0.000000 0.180 0.500 0.200
v 0.009468 0.027275 0.003043 0.180 0.500 0.200
v 0.019037 0.034549 0.007149 0.180 0.500 0.200
v 0.028637 0.041824 0.011580 0.180 0.500 0.200
v 0.038239 0.049098 0.016035 0.180 0.500 0.200
v 0.047823 0.056373 0.020292 0.180 0.500 0.200
v 0.057370 0.063648 0.024167 0.180 0.500 0.200
v 0.066866 0.070922 0.027501 0.180 0.500 0.200
v 0.076297 0.078197 0.030161 0.180 0.500 0.200
v 0.085653 0.085471 0.032037 0.180 0.500 0.200
v 0.094927 0.092746 0.033045 0.180 0.500 0.200
v 0.104113 0.100021 0.033131 0.180 0.500 0.200
v 0.113209 0.107295 0.032264 0.180 0.500 0.200
v 0.122213 0.114570 0.030445 0.180 0.500 0.200
v 0.131130 0.121844 0.027703 0.180 0.500 0.200
v 0.139964 0.129119 0.024094 0.180 0.500 0.200
v 0.148723 0.136394 0.019701 0.180 0.500 0.200
v 0.157418 0.143668 0.014633 0.180 0.500 0.200
v 0.166061 0.150943 0.009025 0.180 0.500 0.200
v 0.174668 0.158217 0.003034 0.180 0.500 0.200
v 0.183256 0.165492 -0.003155 0.180 0.500 0.200
v 0.191847 0.172767 -0.009319 0.180 0.500 0.200
v 0.200468 0.180041 -0.015158 0.180 0.500 0.200
v 0.209191 0.187316 -0.019934 0.180 0.500 0.200
v 0.199723 0.180041 -0.022978 0.180 0.500 0.200
v 0.190154 0.172767 -0.027083 0.180 0.500 0.200
v 0.180554 0.165492 -0.031514 0.180 0.500 0.200
v 0.170951 0.158217 -0.035969 0.180 0.500 0.200
v 0.161368 0.150943 -0.040227 0.180 0.500 0.200
v 0.151821 0.143668 -0.044102 0.180 0.500 0.200
v 0.142325 0.136394 -0.047436 0.180 0.500 0.200
v 0.132894 0.129119 -0.050095 0.180 0.500 0.200
v 0.123537 0.121844 -0.051971 0.180 0.500 0.200
v 0.114263 0.114570 -0.052980 0.180 0.500 0.200
v 0.105077 0.107295 -0.053065 0.180 0.500 0.200
v 0.095982 0.100021 -0.052198 0.180 0.500 0.200
v 0.086978 0.092746 -0.050380 0.180 0.500 0.200
v 0.078061 0.085471 -0.047638 0.180 0.500 0.200
v 0.069227 0.078197 -0.044028 0.180 0.500 0.200
v 0.060468 0.070922 -0.039635 0.180 0.500 0.200
v 0.051773 0.063648 -0.034568 0.180 0.500 0.200
v 0.043130 0.056373 -0.028959 0.180 0.500 0.200
v 0.034523 0.049098 -0.022968 0.180 0.500 0.200
v 0.025935 0.041824 -0.016780 0.180 0.500 0.200
v 0.017344 0.034549 -0.010616 0.180 0.500 0.200
v 0.008723 0.027275 -0.004777 0.180 0.500 0.200
f 93 94 95
f 93 95 94
f 93 95 96
f 93 96 95
f 93 96 97
f 93 97 96
f 93 97 98
f 93 98 97
f 93 98 99
f 93 99 98
f 93 99 100
f 93 100 99
f 93 100 101
f 93 101 100
f 93 101 102
f 93 102 101
f 93 102 103
f 93 103 102
f 93 103 104
f 93 104 103
f 93 104 105
f 93 105 104
f 93 105 106
f 93 106 105
f 93 106 107
f 93 107 106
f 93 107 108
f 93 108 107
f 93 108 109
f 93 109 108
f 93 109 110
f 93 110 109
f 93 110 111
f 93 111 110
f 93 111 112
f 93 112 111
f 93 112 113
f 93 113 112
f 93 113 114
f 93 114 113
f 93 114 115
f 93 115 114
f 93 115 116
f 93 116 115
f 93 116 117
f 93 117 116
f 93 117 118
f 93 118 117
f 93 118 119
f 93 119 118
f 93 119 120
f 93 120 119
f 93 120 121
f 93 121 120
f 93 121 122
f 93 122 121
f 93 122 123
f 93 123 122
f 93 123 124
f 93 124 123
f 93 124 125
f 93 125 124
f 93 125 126
f 93 126 125
f 93 126 127
f 93 127 126
f 93 127 128
f 93 128 127
f 93 128 129
f 93 129 128
f 93 129 130
f 93 130 129
f 93 130 131
f 93 131 130
f 93 131 132
f 93 132 131
f 93 132 133
f 93 133 132
f 93 133 134
f 93 134 133
f 93 134 135
f 93 135 134
f 93 135 136
f 93 136 135
f 93 136 137
f 93 137 136
f 93 137 138
f 93 138 137
v 0.000000 0.020000 -0.000000 0.180 0.500 0.200
v 0.007368 0.021877 0.010629 0.180 0.500 0.200
v 0.014063 0.023753 0.022167 0.180 0.500 0.200
v 0.020552 0.025630 0.033984 0.180 0.500 0.200
v 0.027026 0.027506 0.045822 0.180 0.500 0.200
v 0.033625 0.029383 0.057491 0.180 0.500 0.200
v 0.040466 0.031260 0.068832 0.180 0.500 0.200
v 0.047650 0.033136 0.079710 0.180 0.500 0.200
v 0.055261 0.035013 0.090010 0.180 0.500 0.200
v 0.063369 0.036889 0.099638 0.180 0.500 0.200
v 0.072026 0.038766 0.108524 0.180 0.500 0.200
v 0.081267 0.040643 0.116619 0.180 0.500 0.200
v 0.091112 0.042519 0.123898 0.180 0.500 0.200
v 0.101560 0.044396 0.130361 0.180 0.500 0.200
v 0.112592 0.046272 0.136034 0.180 0.500 0.200
v 0.124174 0.048149 0.140963 0.180 0.500 0.200
v 0.136252 0.050026 0.145222 0.180 0.500 0.200
v 0.148758 0.051902 0.148902 0.180 0.500 0.200
v 0.161606 0.053779 0.152119 0.180 0.500 0.200
v 0.174696 0.055656 0.155008 0.180 0.500 0.200
v 0.187912 0.057532 0.157728 0.180 0.500 0.200
v 0.201112 0.059409 0.160469 0.180 0.500 0.200
v 0.214106 0.061285 0.163489 0.180 0.500 0.200
v 0.226427 0.063162 0.167418 0.180 0.500 0.200
v 0.219059 0.061285 0.156790 0.180 0.500 0.200
v 0.212364 0.059409 0.145251 0.180 0.500 0.200
v 0.205875 0.057532 0.133434 0.180 0.500 0.200
v 0.199401 0.055656 0.121596 0.180 0.500 0.200
v 0.192802 0.053779 0.109927 0.180 0.500 0.200
v 0.185961 0.051902 0.098586 0.180 0.500 0.200
v 0.178777 0.050026 0.087708 0.180 0.500 0.200
v 0.171166 0.048149 0.077408 0.180 0.500 0.200
v 0.163058 0.046272 0.067780 0.180 0.500 0.200
v 0.154402 0.044396 0.058894 0.180 0.500 0.200
v 0.145160 0.042519 0.050800 0.180 0.500 0.200
v 0.135315 0.040643 0.043521 0.180 0.500 0.200
v 0.124868 0.038766 0.037057 0.180 0.500 0.200
v 0.113835 0.036889 0.031385 0.180 0.500 0.200
v 0.102253 0.035013 0.026455 0.180 0.500 0.200
v 0.090175 0.033136 0.022197 0.180 0.500 0.200
v 0.077670 0.031260 0.018516 0.180 0.500 0.200
v 0.064821 0.029383 0.015299 0.180 0.500 0.200
v 0.051731 0.027506 0.012410 0.180 0.500 0.200
v 0.038516 0.025630 0.009690 0.180 0.500 0.200
v 0.025315 0.023753 0.006949 0.180 0.500 0.200
v 0.012321 0.021877 0.003930 0.180 0.500 0.200
f 139 140 141
f 139 141 140
f 139 141 142
f 139 142 141
f 139 142 143
f 139 143 142
f 139 143 144
f 139 144 143
f 139 144 145
f 139 145 144
f 139 145 146
f 139 146 145
f 139 146 147
f 139 147 146
f 139 147 148
f 139 148 147
f 139 148 149
f 139 149 148
f 139 149 150
f 139 150 149
f 139 150 151
f 139 151 150
f 139 151 152
f 139 152 151
f 139 152 153
f 139 153 152
f 139 153 154
f 139 154 153
f 139 154 155
f 139 155 154
f 139 155 156
f 139 156 155
f 139 156 157
f 139 157 156
f 139 157 158
f 139 158 157
f 139 158 159
f 139 159 158
f 139 159 160
f 139 160 159
f 139 160 161
f 139 161 160
f 139 161 162
f 139 162 161
f 139 162 163
f 139 163 162
f 139 163 164
f 139 164 163
f 139 164 165
f 139 165 164
f 139 165 166
f 139 166 165
f 139 166 167
f 139 167 166
f 139 167 168
f 139 168 167
f 139 168 169
f 139 169 168
f 139 169 170
f 139 170 169
f 139 170 171
f 139 171 170
f 139 171 172
f 139 172 171
f 139 172 173
f 139 173 172
f 139 173 174
f 139 174 173
f 139 174 175
f 139 175 174
f 139 175 176
f 139 176 175
f 139 176 177
f 139 177 176
f 139 177 178
f 139 178 177
f 139 178 179
f 139 179 178
f 139 179 180
f 139 180 179
f 139 180 181
f 139 181 180
f 139 181 182
f 139 182 181
f 139 182 183
f 139 183 182
f 139 183 184
f 139 184 183
v 0.000000 0.020000 -0.000000 0.180 0.500 0.200
v -0.002345 0.028167 0.012997 0.180 0.500 0.200
v -0.006006 0.036335 0.026268 0.180 0.500 0.200
v -0.010071 0.044502 0.039624 0.180 0.500 0.200
v -0.014165 0.052670 0.052985 0.180 0.500 0.200
v -0.018015 0.060837 0.066296 0.180 0.500 0.200
v -0.021391 0.069005 0.079508 0.180 0.500 0.200
v -0.024096 0.077172 0.092580 0.180 0.500 0.200
v -0.025965 0.085340 0.105477 0.180 0.500 0.200
v -0.026864 0.093507 0.118172 0.180 0.500 0.200
v -0.026687 0.101675 0.130643 0.180 0.500 0.200
v -0.025366 0.109842 0.142875 0.180 0.500 0.200
v -0.022866 0.118010 0.154861 0.180 0.500 0.200
v -0.019185 0.126177 0.166601 0.180 0.500 0.200
v -0.014361 0.134345 0.178102 0.180 0.500 0.200
v -0.008461 0.142512 0.189379 0.180 0.500 0.200
v -0.001591 0.150680 0.200453 0.180 0.500 0.200
v 0.006116 0.158847 0.211352 0.180 0.500 0.200
v 0.014493 0.167014 0.222112 0.180 0.500 0.200
v 0.023343 0.175182 0.232773 0.180 0.500 0.200
v 0.032439 0.183349 0.243383 0.180 0.500 0.200
v 0.041505 0.191517 0.254000 0.180 0.500 0.200
v 0.050167 0.199684 0.264700 0.180 0.500 0.200
v 0.057513 0.207852 0.275675 0.180 0.500 0.200
v 0.059858 0.199684 0.262678 0.180 0.500 0.200
v 0.063520 0.191517 0.249407 0.180 0.500 0.200
v 0.067584 0.183349 0.236051 0.180 0.500 0.200
v 0.071679 0.175182 0.222689 0.180 0.500 0.200
v 0.075528 0.167014 0.209379 0.180 0.500 0.200
v 0.078904 0.158847 0.196167 0.180 0.500 0.200
v 0.081609 0.150680 0.183095 0.180 0.500 0.200
v 0.083479 0.142512 0.170197 0.180 0.500 0.200
v 0.084377 0.134345 0.157502 0.180 0.500 0.200
v 0.084200 0.126177 0.145032 0.180 0.500 0.200
v 0.082880 0.118010 0.132800 0.180 0.500 0.200
v 0.080379 0.109842 0.120814 0.180 0.500 0.200
v 0.076699 0.101675 0.109074 0.180 0.500 0.200
v 0.071874 0.093507 0.097573 0.180 0.500 0.200
v 0.065975 0.085340 0.086296 0.180 0.500 0.200
v 0.059104 0.077172 0.075222 0.180 0.500 0.200
v 0.051398 0.069005 0.064322 0.180 0.500 0.200
v 0.043021 0.060837 0.053562 0.180 0.500 0.200
v 0.034170 0.052670 0.042901 0.180 0.500 0.200
v 0.025074 0.044502 0.032291 0.180 0.500 0.200
v 0.016009 0.036335 0.021675 0.180 0.500 0.200
v 0.007346 0.028167 0.010975 0.180 0.500 0.200
f 185 186 187
f 185 187 186
f 185 187 188
f 185 188 187
f 185 188 189
f 185 189 188
f 185 189 190
f 185 190 189
f 185 190 191
f 185 191 190
f 185 191 192
f 185 192 191
f 185 192 193
f 185 193 192
f 185 193 194
f 185 194 193
f 185 194 195
f 185 195 194
f 185 195 196
f 185 196 195
f 185 196 197
f 185 197 196
f 185 197 198
f 185 198 197
f 185 198 199
f 185 199 198
f 185 199 200
f 185 200 199
f 185 200 201
f 185 201 200
f 185 201 202
f 185 202 201
f 185 202 203
f 185 203 202
f 185 203 204
f 185 204 203
f 185 204 205
f 185 205 204
f 185 205 206
f 185 206 205
f 185 206 207
f 185 207 206
f 185 207 208
f 185 208 207
f 185 208 209
f 185 209 208
f 185 209 210
f 185 210 209
f 185 210 211
f 185 211 210
f 185 211 212
f 185 212 211
f 185 212 213
f 185 213 212
f 185 213 214
f 185 214 213
f 185 214 215
f 185 215 214
f 185 215 216
f 185 216 215
f 185 216 217
f 185 217 216
f 185 217 218
f 185 218 217
f 185 218 219
f 185 219 218
f 185 219 220
f 185 220 219
f 185 220 221
f 185 221 220
f 185 221 222
f 185 222 221
f 185 222 223
f 185 223 222
f 185 223 224
f 185 224 223
f 185 224 225
f 185 225 224
f 185 225 226
f 185 226 225
f 185 226 227
f 185 227 226
f 185 227 228
f 185 228 227
f 185 228 229
f 185 229 228
f 185 229 230
f 185 230 229
v 0.000000 0.020000 -0.000000 0.180 0.500 0.200
v -0.009746 0.024148 0.012350 0.180 0.500 0.200
v -0.020824 0.028295 0.024240 0.180 0.500 0.200
v -0.032309 0.032443 0.035990 0.180 0.500 0.200
v -0.043825 0.036590 0.047729 0.180 0.500 0.200
v -0.055093 0.040738 0.059553 0.180 0.500 0.200
v -0.065882 0.044886 0.071543 0.180 0.500 0.200
v -0.075992 0.049033 0.083767 0.180 0.500 0.200
v -0.085257 0.053181 0.096283 0.180 0.500 0.200
v -0.093539 0.057329 0.109137 0.180 0.500 0.200
v -0.100733 0.061476 0.122367 0.180 0.500 0.200
v -0.106770 0.065624 0.135996 0.180 0.500 0.200
v -0.111613 0.069771 0.150037 0.180 0.500 0.200
v -0.115262 0.073919 0.164489 0.180 0.500 0.200
v -0.117754 0.078067 0.179341 0.180 0.500 0.200
v -0.119158 0.082214 0.194568 0.180 0.500 0.200
v -0.119580 0.086362 0.210134 0.180 0.500 0.200
v -0.119155 0.090509 0.225991 0.180 0.500 0.200
v -0.118053 0.094657 0.242083 0.180 0.500 0.200
v -0.116470 0.098805 0.258340 0.180 0.500 0.200
v -0.114640 0.102952 0.274682 0.180 0.500 0.200
v -0.112841 0.107100 0.291014 0.180 0.500 0.200
v -0.111449 0.111248 0.307205 0.180 0.500 0.200
v -0.111390 0.115395 0.322937 0.180 0.500 0.200
v -0.101644 0.111248 0.310588 0.180 0.500 0.200
v -0.090566 0.107100 0.298697 0.180 0.500 0.200
v -0.079081 0.102952 0.286948 0.180 0.500 0.200
v -0.067565 0.098805 0.275209 0.180 0.500 0.200
v -0.056296 0.094657 0.263384 0.180 0.500 0.200
v -0.045508 0.090509 0.251394 0.180 0.500 0.200
v -0.035397 0.086362 0.239170 0.180 0.500 0.200
v -0.026133 0.082214 0.226655 0.180 0.500 0.200
v -0.017851 0.078067 0.213800 0.180 0.500 0.200
v -0.010656 0.073919 0.200570 0.180 0.500 0.200
v -0.004620 0.069771 0.186941 0.180 0.500 0.200
v 0.000224 0.065624 0.172901 0.180 0.500 0.200
v 0.003873 0.061476 0.158448 0.180 0.500 0.200
v 0.006364 0.057329 0.143596 0.180 0.500 0.200
v 0.007769 0.053181 0.128369 0.180 0.500 0.200
v 0.008190 0.049033 0.112804 0.180 0.500 0.200
v 0.007766 0.044886 0.096946 0.180 0.500 0.200
v 0.006663 0.040738 0.080854 0.180 0.500 0.200
v 0.005081 0.036590 0.064597 0.180 0.500 0.200
v 0.003251 0.032443 0.048255 0.180 0.500 0.200
v 0.001451 0.028295 0.031923 0.180 0.500 0.200
v 0.000060 0.024148 0.015732 0.180 0.500 0.200
f 231 232 233
f 231 233 232
f 231 233 234
f 231 234 233
f 231 234 235
f 231 235 234
f 231 235 236
f 231 236 235
f 231 236 237
f 231 237 236
f 231 237 238
f 231 238 237
f 231 238 239
f 231 239 238
f 231 239 240
f 231 240 239
f 231 240 241
f 231 241 240
f 231 241 242
f 231 242 241
f 231 242 243
f 231 243 242
f 231 243 244
f 231 244 243
f 231 244 245
f 231 245 244
f 231 245 246
f 231 246 245
f 231 246 247
f 231 247 246
f 231 247 248
f 231 248 247
f 231 248 249
f 231 249 248
f 231 249 250
f 231 250 249
f 231 250 251
f 231 251 250
f 231 251 252
f 231 252 251
f 231 252 253
f 231 253 252
f 231 253 254
f 231 254 253
f 231 254 255
f 231 255 254
f 231 255 256
f 231 256 255
f 231 256 257
f 231 257 256
f 231 257 258
f 231 258 257
f 231 258 259
f 231 259 258
f 231 259 260
f 231 260 259
f 231 260 261
f 231 261 260
f 231 261 262
f 231 262 261
f 231 262 263
f 231 263 262
f 231 263 264
f 231 264 263
f 231 264 265
f 231 265 264
f 231 265 266
f 231 266 265
f 231 266 267
f 231 267 266
f 231 267 268
f 231 268 267
f 231 268 269
f 231 269 268
f 231 269 270
f 231 270 269
f 231 270 271
f 231 271 270
f 231 271 272
f 231 272 271
f 231 272 273
f 231 273 272
f 231 273 274
f 231 274 273
f 231 274 275
f 231 275 274
f 231 275 276
f 231 276 275
v 0.000000 0.020000 -0.000000 0.180 0.500 0.200
v -0.011139 0.024687 -0.000086 0.180 0.500 0.200
v -0.022633 0.029375 -0.001157 0.180 0.500 0.200
v -0.034235 0.034062 -0.002529 0.180 0.500 0.200
v -0.045845 0.038749 -0.003924 0.180 0.500 0.200
v -0.057389 0.043436 -0.005135 0.180 0.500 0.200
v -0.068806 0.048124 -0.005992 0.180 0.500 0.200
v -0.080042 0.052811 -0.006348 0.180 0.500 0.200
v -0.091053 0.057498 -0.006078 0.180 0.500 0.200
v -0.101803 0.062186 -0.005081 0.180 0.500 0.200
v -0.112264 0.066873 -0.003281 0.180 0.500 0.200
v -0.122416 0.071560 -0.000625 0.180 0.500 0.200
v -0.132251 0.076247 0.002914 0.180 0.500 0.200
v -0.141768 0.080935 0.007336 0.180 0.500 0.200
v -0.150977 0.085622 0.012614 0.180 0.500 0.200
v -0.159897 0.090309 0.018695 0.180 0.500 0.200
v -0.168555 0.094997 0.025503 0.180 0.500 0.200
v -0.176989 0.099684 0.032937 0.180 0.500 0.200
v -0.185242 0.104371 0.040872 0.180 0.500 0.200
v -0.193367 0.109058 0.049162 0.180 0.500 0.200
v -0.201426 0.113746 0.057634 0.180 0.500 0.200
v -0.209494 0.118433 0.066085 0.180 0.500 0.200
v -0.217670 0.123120 0.074233 0.180 0.500 0.200
v -0.226200 0.127808 0.081397 0.180 0.500 0.200
v -0.215061 0.123120 0.081483 0.180 0.500 0.200
v -0.203567 0.118433 0.082554 0.180 0.500 0.200
v -0.191965 0.113746 0.083926 0.180 0.500 0.200
v -0.180355 0.109058 0.085321 0.180 0.500 0.200
v -0.168811 0.104371 0.086533 0.180 0.500 0.200
v -0.157394 0.099684 0.087389 0.180 0.500 0.200
v -0.146158 0.094997 0.087745 0.180 0.500 0.200
v -0.135147 0.090309 0.087475 0.180 0.500 0.200
v -0.124397 0.085622 0.086479 0.180 0.500 0.200
v -0.113937 0.080935 0.084678 0.180 0.500 0.200
v -0.103784 0.076247 0.082022 0.180 0.500 0.200
v -0.093949 0.071560 0.078483 0.180 0.500 0.200
v -0.084432 0.066873 0.074061 0.180 0.500 0.200
v -0.075223 0.062186 0.068784 0.180 0.500 0.200
v -0.066303 0.057498 0.062702 0.180 0.500 0.200
v -0.057645 0.052811 0.055894 0.180 0.500 0.200
v -0.049211 0.048124 0.048460 0.180 0.500 0.200
v -0.040959 0.043436 0.040525 0.180 0.500 0.200
v -0.032833 0.038749 0.032236 0.180 0.500 0.200
v -0.024774 0.034062 0.023763 0.180 0.500 0.200
v -0.016706 0.029375 0.015313 0.180 0.500 0.200
v -0.008530 0.024687 0.007164 0.180 0.500 0.200
f 277 278 279
f 277 279 278
f 277 279 280
f 277 280 279
f 277 280 281
f 277 281 280
f 277 281 282
f 277 282 281
f 277 282 283
f 277 283 282
f 277 283 284
f 277 284 283
f 277 284 285
f 277 285 284
f 277 285 286
f 277 286 285
f 277 286 287
f 277 287 286
f 277 287 288
f 277 288 287
f 277 288 289
f 277 289 288
f 277 289 290
f 277 290 289
f 277 290 291
f 277 291 290
f 277 291 292
f 277 292 291
f 277 292 293
f 277 293 292
f 277 293 294
f 277 294 293
f 277 294 295
f 277 295 294
f 277 295 296
f 277 296 295
f 277 296 297
f 277 297 296
f 277 297 298
f 277 298 297
f 277 298 299
f 277 299 298
f 277 299 300
f 277 300 299
f 277 300 301
f 277 301 300
f 277 301 302
f 277 302 301
f 277 302 303
f 277 303 302
f 277 303 304
f 277 304 303
f 277 304 305
f 277 305 304
f 277 305 306
f 277 306 305
f 277 306 307
f 277 307 306
f 277 307 308
f 277 308 307
f 277 308 309
f 277 309 308
f 277 309 310
f 277 310 309
f 277 310 311
f 277 311 310
f 277 311 312
f 277 312 311
f 277 312 313
f 277 313 312
f 277 313 314
f 277 314 313
f 277 314 315
f 277 315 314
f 277 315 316
f 277 316 315
f 277 316 317
f 277 317 316
f 277 317 318
f 277 318 317
f 277 318 319
f 277 319 318
f 277 319 320
f 277 320 319
f 277 320 321
f 277 321 320
f 277 321 322
f 277 322 321
v 0.000000 0.020000 -0.000000 0.180 0.500 0.200
v -0.011608 0.021573 -0.007688 0.180 0.500 0.200
v -0.022906 0.023147 -0.016549 0.180 0.500 0.200
v -0.034109 0.024720 -0.025770 0.180 0.500 0.200
v -0.045305 0.026294 -0.035017 0.180 0.500 0.200
v -0.056559 0.027867 -0.044046 0.180 0.500 0.200
v -0.067924 0.029440 -0.052653 0.180 0.500 0.200
v -0.079447 0.031014 -0.060662 0.180 0.500 0.200
v -0.091167 0.032587 -0.067926 0.180 0.500 0.200
v -0.103116 0.034161 -0.074325 0.180 0.500 0.200
v -0.115318 0.035734 -0.079766 0.180 0.500 0.200
v -0.127789 0.037308 -0.084187 0.180 0.500 0.200
v -0.140539 0.038881 -0.087557 0.180 0.500 0.200
v -0.153566 0.040454 -0.089876 0.180 0.500 0.200
v -0.166863 0.042028 -0.091174 0.180 0.500 0.200
v -0.180413 0.043601 -0.091515 0.180 0.500 0.200
v -0.194192 0.045175 -0.090991 0.180 0.500 0.200
v -0.208168 0.046748 -0.089721 0.180 0.500 0.200
v -0.222301 0.048321 -0.087855 0.180 0.500 0.200
v -0.236546 0.049895 -0.085565 0.180 0.500 0.200
v -0.250849 0.051468 -0.083058 0.180 0.500 0.200
v -0.265145 0.053042 -0.080577 0.180 0.500 0.200
v -0.279346 0.054615 -0.078456 0.180 0.500 0.200
v -0.293237 0.056188 -0.077507 0.180 0.500 0.200
v -0.281629 0.054615 -0.069819 0.180 0.500 0.200
v -0.270331 0.053042 -0.060958 0.180 0.500 0.200
v -0.259128 0.051468 -0.051738 0.180 0.500 0.200
v -0.247932 0.049895 -0.042490 0.180 0.500 0.200
v -0.236678 0.048321 -0.033461 0.180 0.500 0.200
v -0.225313 0.046748 -0.024855 0.180 0.500 0.200
v -0.213790 0.045175 -0.016845 0.180 0.500 0.200
v -0.202070 0.043601 -0.009581 0.180 0.500 0.200
v -0.190121 0.042028 -0.003182 0.180 0.500 0.200
v -0.177919 0.040454 0.002259 0.180 0.500 0.200
v -0.165447 0.038881 0.006680 0.180 0.500 0.200
v -0.152698 0.037308 0.010050 0.180 0.500 0.200
v -0.139671 0.035734 0.012368 0.180 0.500 0.200
v -0.126374 0.034161 0.013667 0.180 0.500 0.200
v -0.112824 0.032587 0.014008 0.180 0.500 0.200
v -0.099045 0.031014 0.013484 0.180 0.500 0.200
v -0.085069 0.029440 0.012214 0.180 0.500 0.200
v -0.070936 0.027867 0.010347 0.180 0.500 0.200
v -0.056690 0.026294 0.008058 0.180 0.500 0.200
v -0.042387 0.024720 0.005550 0.180 0.500 0.200
v -0.028092 0.023147 0.003070 0.180 0.500 0.200
v -0.013891 0.021573 0.000948 0.180 0.500 0.200
f 323 324 325
f 323 325 324
f 323 325 326
f 323 326 325
f 323 326 327
f 323 327 326
f 323 327 328
f 323 328 327
f 323 328 329
f 323 329 328
f 323 329 330
f 323 330 329
f 323 330 331
f 323 331 330
f 323 331 332
f 323 332 331
f 323 332 333
f 323 333 332
f 323 333 334
f 323 334 333
f 323 334 335
f 323 335 334
f 323 335 336
f 323 336 335
f 323 336 337
f 323 337 336
f 323 337 338
f 323 338 337
f 323 338 339
f 323 339 338
f 323 339 340
f 323 340 339
f 323 340 341
f 323 341 340
f 323 341 342
f 323 342 341
f 323 342 343
f 323 343 342
f 323 343 344
f 323 344 343
f 323 344 345
f 323 345 344
f 323 345 346
f 323 346 345
f 323 346 347
f 323 347 346
f 323 347 348
f 323 348 347
f 323 348 349
f 323 349 348
f 323 349 350
f 323 350 349
f 323 350 351
f 323 351 350
f 323 351 352
f 323 352 351
f 323 352 353
f 323 353 352
f 323 353 354
f 323 354 353
f 323 354 355
f 323 355 354
f 323 355 356
f 323 356 355
f 323 356 357
f 323 357 356
f 323 357 358
f 323 358 357
f 323 358 359
f 323 359 358
f 323 359 360
f 323 360 359
f 323 360 361
f 323 361 360
f 323 361 362
f 323 362 361
f 323 362 363
f 323 363 362
f 323 363 364
f 323 364 363
f 323 364 365
f 323 365 364
f 323 365 366
f 323 366 365
f 323 366 367
f 323 367 366
f 323 367 368
f 323 368 367
v 0.000000 0.020000 -0.000000 0.180 0.500 0.200
v -0.006234 0.026039 -0.012255 0.180 0.500 0.200
v -0.011586 0.032078 -0.025467 0.180 0.500 0.200
v -0.016669 0.038116 -0.038972 0.180 0.500 0.200
v -0.021732 0.044155 -0.052499 0.180 0.500 0.200
v -0.026958 0.050194 -0.065847 0.180 0.500 0.200
v -0.032502 0.056233 -0.078851 0.180 0.500 0.200
v -0.038494 0.062272 -0.091369 0.180 0.500 0.200
v -0.045047 0.068310 -0.103279 0.180 0.500 0.200
v -0.052249 0.074349 -0.114483 0.180 0.500 0.200
v -0.060171 0.080388 -0.124907 0.180 0.500 0.200
v -0.068860 0.086427 -0.134499 0.180 0.500 0.200
v -0.078338 0.092466 -0.143235 0.180 0.500 0.200
v -0.088606 0.098504 -0.151113 0.180 0.500 0.200
v -0.099640 0.104543 -0.158160 0.180 0.500 0.200
v -0.111394 0.110582 -0.164427 0.180 0.500 0.200
v -0.123798 0.116621 -0.169987 0.180 0.500 0.200
v -0.136762 0.122660 -0.174941 0.180 0.500 0.200
v -0.150174 0.128699 -0.179407 0.180 0.500 0.200
v -0.163904 0.134737 -0.183530 0.180 0.500 0.200
v -0.177798 0.140776 -0.187474 0.180 0.500 0.200
v -0.191671 0.146815 -0.191440 0.180 0.500 0.200
v -0.205275 0.152854 -0.195699 0.180 0.500 0.200
v -0.217998 0.158893 -0.200914 0.180 0.500 0.200
v -0.211764 0.152854 -0.188659 0.180 0.500 0.200
v -0.206411 0.146815 -0.175447 0.180 0.500 0.200
v -0.201329 0.140776 -0.161942 0.180 0.500 0.200
v -0.196266 0.134737 -0.148416 0.180 0.500 0.200
v -0.191040 0.128699 -0.135067 0.180 0.500 0.200
v -0.185496 0.122660 -0.122063 0.180 0.500 0.200
v -0.179503 0.116621 -0.109545 0.180 0.500 0.200
v -0.172951 0.110582 -0.097635 0.180 0.500 0.200
v -0.165748 0.104543 -0.086431 0.180 0.500 0.200
v -0.157826 0.098504 -0.076007 0.180 0.500 0.200
v -0.149138 0.092466 -0.066415 0.180 0.500 0.200
v -0.139660 0.086427 -0.057679 0.180 0.500 0.200
v -0.129392 0.080388 -0.049801 0.180 0.500 0.200
v -0.118358 0.074349 -0.042754 0.180 0.500 0.200
v -0.106604 0.068310 -0.036488 0.180 0.500 0.200
v -0.094200 0.062272 -0.030927 0.180 0.500 0.200
v -0.081236 0.056233 -0.025973 0.180 0.500 0.200
v -0.067824 0.050194 -0.021507 0.180 0.500 0.200
v -0.054094 0.044155 -0.017385 0.180 0.500 0.200
v -0.040200 0.038116 -0.013440 0.180 0.500 0.200
v -0.026326 0.032078 -0.009474 0.180 0.500 0.200
v -0.012722 0.026039 -0.005215 0.180 0.500 0.200
f 369 370 371
f 369 371 370
f 369 371 372
f 369 372 371
f 369 372 373
f 369 373 372
f 369 373 374
f 369 374 373
f 369 374 375
f 369 375 374
f 369 375 376
f 369 376 375
f 369 376 377
f 369 377 376
f 369 377 378
f 369 378 377
f 369 378 379
f 369 379 378
f 369 379 380
f 369 380 379
f 369 380 381
f 369 381 380
f 369 381 382
f 369 382 381
f 369 382 383
f 369 383 382
f 369 383 384
f 369 384 383
f 369 384 385
f 369 385 384
f 369 385 386
f 369 386 385
f 369 386 387
f 369 387 386
f 369 387 388
f 369 388 387
f 369 388 389
f 369 389 388
f 369 389 390
f 369 390 389
f 369 390 391
f 369 391 390
f 369 391 392
f 369 392 391
f 369 392 393
f 369 393 392
f 369 393 394
f 369 394 393
f 369 394 395
f 369 395 394
f 369 395 396
f 369 396 395
f 369 396 397
f 369 397 396
f 369 397 398
f 369 398 397
f 369 398 399
f 369 399 398
f 369 399 400
f 369 400 399
f 369 400 401
f 369 401 400
f 369 401 402
f 369 402 401
f 369 402 403
f 369 403 402
f 369 403 404
f 369 404 403
f 369 404 405
f 369 405 404
f 369 405 406
f 369 406 405
f 369 406 407
f 369 407 406
f 369 407 408
f 369 408 407
f 369 408 409
f 369 409 408
f 369 409 410
f 369 410 409
f 369 410 411
f 369 411 410
f 369 411 412
f 369 412 411
f 369 412 413
f 369 413 412
f 369 413 414
f 369 414 413
v 0.000000 0.000681 0.011981 0.200 0.440 0.170
v 0.011411 -0.000009 0.003715 0.200 0.440 0.170
v 0.007052 -0.000686 -0.009685 0.200 0.440 0.170
v -0.007052 -0.000415 -0.009700 0.200 0.440 0.170
v -0.011411 0.000430 0.003690 0.200 0.440 0.170
v 0.003773 0.196100 -0.002127 0.200 0.440 0.170
v 0.012331 0.195583 -0.008326 0.200 0.440 0.170
v 0.009062 0.195075 -0.018376 0.200 0.440 0.170
v -0.001516 0.195278 -0.018388 0.200 0.440 0.170
v -0.004785 0.195912 -0.008345 0.200 0.440 0.170
f 415 416 421
f 415 421 420
f 416 417 422
f 416 422 421
f 417 418 423
f 417 423 422
f 418 419 424
f 418 424 423
f 419 415 420
f 419 420 424
v 0.003773 0.197606 0.000717 0.200 0.440 0.170
v 0.015167 0.195572 -0.007348 0.200 0.440 0.170
v 0.010815 0.193562 -0.020615 0.200 0.440 0.170
v -0.003269 0.194354 -0.020750 0.200 0.440 0.170
v -0.007621 0.196853 -0.007566 0.200 0.440 0.170
v 0.015092 0.392691 -0.035577 0.200 0.440 0.170
v 0.023638 0.391165 -0.041626 0.200 0.440 0.170
v 0.020373 0.389658 -0.051576 0.200 0.440 0.170
v 0.009811 0.390252 -0.051677 0.200 0.440 0.170
v 0.006546 0.392127 -0.041790 0.200 0.440 0.170
f 425 426 431
f 425 431 430
f 426 427 432
f 426 432 431
f 427 428 433
f 427 433 432
f 428 429 434
f 428 434 433
f 429 425 430
f 429 430 434
v 0.015092 0.394458 -0.032906 0.200 0.440 0.170
v 0.026456 0.391178 -0.040594 0.200 0.440 0.170
v 0.022115 0.387899 -0.053610 0.200 0.440 0.170
v 0.008069 0.389153 -0.053966 0.200 0.440 0.170
v 0.003728 0.393206 -0.041170 0.200 0.440 0.170
v 0.033957 0.589227 -0.091353 0.200 0.440 0.170
v 0.042480 0.586767 -0.097119 0.200 0.440 0.170
v 0.039224 0.584308 -0.106881 0.200 0.440 0.170
v 0.028690 0.585249 -0.107148 0.200 0.440 0.170
v 0.025434 0.588289 -0.097551 0.200 0.440 0.170
f 435 436 441
f 435 441 440
f 436 437 442
f 436 442 441
f 437 438 443
f 437 443 442
f 438 439 444
f 438 444 443
f 439 435 440
f 439 440 444
v 0.033957 0.591203 -0.088860 0.200 0.440 0.170
v 0.045281 0.586818 -0.096040 0.200 0.440 0.170
v 0.040956 0.582365 -0.108707 0.200 0.440 0.170
v 0.026958 0.583996 -0.109356 0.200 0.440 0.170
v 0.022633 0.589459 -0.097090 0.200 0.440 0.170
v 0.060368 0.785683 -0.169434 0.200 0.440 0.170
v 0.068861 0.782395 -0.174819 0.200 0.440 0.170
v 0.065617 0.779055 -0.184319 0.200 0.440 0.170
v 0.055119 0.780279 -0.184806 0.200 0.440 0.170
v 0.051875 0.784376 -0.175606 0.200 0.440 0.170
f 445 446 451
f 445 451 450
f 446 447 452
f 446 452 451
f 447 448 453
f 447 453 452
f 448 449 454
f 448 454 453
f 449 445 450
f 449 450 454
v 0.049005 0.782358 -0.181655 0.200 0.440 0.170
v 0.053628 0.787780 -0.169480 0.200 0.440 0.170
v 0.067565 0.785709 -0.168799 0.200 0.440 0.170
v 0.071556 0.779006 -0.180552 0.200 0.440 0.170
v 0.060085 0.776935 -0.188498 0.200 0.440 0.170
v 0.085803 0.977947 -0.280701 0.200 0.440 0.170
v 0.089270 0.982014 -0.271570 0.200 0.440 0.170
v 0.099723 0.980460 -0.271059 0.200 0.440 0.170
v 0.102716 0.975433 -0.279874 0.200 0.440 0.170
v 0.094113 0.973880 -0.285833 0.200 0.440 0.170
f 455 456 461
f 455 461 460
f 456 457 462
f 456 462 461
f 457 458 463
f 457 463 462
f 458 459 464
f 458 464 463
f 459 455 460
f 459 460 464
v 0.009442 0.342281 -0.037428 0.200 0.440 0.170
v 0.014568 0.344128 -0.035906 0.200 0.440 0.170
v 0.013668 0.342281 -0.030635 0.200 0.440 0.170
v 0.008542 0.340435 -0.032157 0.200 0.440 0.170
v 0.110665 0.114459 -0.099220 0.200 0.440 0.170
v 0.114509 0.115844 -0.098078 0.200 0.440 0.170
v 0.113834 0.114459 -0.094125 0.200 0.440 0.170
v 0.109990 0.113074 -0.095267 0.200 0.440 0.170
f 465 466 470
f 465 470 469
f 466 467 471
f 466 471 470
f 467 468 472
f 467 472 471
f 468 465 469
f 468 469 472
v 0.112249 0.120428 -0.096672 0.450 0.200 0.450
v 0.112249 0.120428 -0.096672 0.450 0.200 0.450
v 0.112249 0.120428 -0.096672 0.450 0.200 0.450
v 0.112249 0.120428 -0.096672 0.450 0.200 0.450
v 0.112249 0.120428 -0.096672 0.450 0.200 0.450
v 0.112249 0.120428 -0.096672 0.450 0.200 0.450
v 0.112249 0.120428 -0.096672 0.450 0.200 0.450
v 0.112249 0.120428 -0.096672 0.450 0.200 0.450
v 0.112249 0.120428 -0.096672 0.450 0.200 0.450
v 0.147337 0.101047 -0.096672 0.450 0.200 0.450
v 0.139128 0.101047 -0.119226 0.450 0.200 0.450
v 0.118342 0.101047 -0.131227 0.450 0.200 0.450
v 0.094706 0.101047 -0.127059 0.450 0.200 0.450
v 0.079278 0.101047 -0.108673 0.450 0.200 0.450
v 0.079278 0.101047 -0.084672 0.450 0.200 0.450
v 0.094706 0.101047 -0.066286 0.450 0.200 0.450
v 0.118342 0.101047 -0.062118 0.450 0.200 0.450
v 0.139128 0.101047 -0.074118 0.450 0.200 0.450
v 0.169022 0.050307 -0.096672 0.450 0.200 0.450
v 0.155740 0.050307 -0.133165 0.450 0.200 0.450
v 0.122108 0.050307 -0.152582 0.450 0.200 0.450
v 0.083863 0.050307 -0.145839 0.450 0.200 0.450
v 0.058900 0.050307 -0.116090 0.450 0.200 0.450
v 0.058900 0.050307 -0.077255 0.450 0.200 0.450
v 0.083863 0.050307 -0.047506 0.450 0.200 0.450
v 0.122108 0.050307 -0.040762 0.450 0.200 0.450
v 0.155740 0.050307 -0.060179 0.450 0.200 0.450
v 0.169022 -0.012412 -0.096672 0.450 0.200 0.450
v 0.155740 -0.012412 -0.133165 0.450 0.200 0.450
v 0.122108 -0.012412 -0.152582 0.450 0.200 0.450
v 0.083863 -0.012412 -0.145839 0.450 0.200 0.450
v 0.058900 -0.012412 -0.116090 0.450 0.200 0.450
v 0.058900 -0.012412 -0.077255 0.450 0.200 0.450
v 0.083863 -0.012412 -0.047506 0.450 0.200 0.450
v 0.122108 -0.012412 -0.040762 0.450 0.200 0.450
v 0.155740 -0.012412 -0.060179 0.450 0.200 0.450
v 0.147337 -0.063152 -0.096672 0.450 0.200 0.450
v 0.139128 -0.063152 -0.119226 0.450 0.200 0.450
v 0.118342 -0.063152 -0.131227 0.450 0.200 0.450
v 0.094706 -0.063152 -0.127059 0.450 0.200 0.450
v 0.079278 -0.063152 -0.108673 0.450 0.200 0.450
v 0.079278 -0.063152 -0.084672 0.450 0.200 0.450
v 0.094706 -0.063152 -0.066286 0.450 0.200 0.450
v 0.118342 -0.063152 -0.062118 0.450 0.200 0.450
v 0.139128 -0.063152 -0.074118 0.450 0.200 0.450
v 0.112249 -0.082533 -0.096672 0.450 0.200 0.450
v 0.112249 -0.082533 -0.096672 0.450 0.200 0.450
v 0.112249 -0.082533 -0.096672 0.450 0.200 0.450
v 0.112249 -0.082533 -0.096672 0.450 0.200 0.450
v 0.112249 -0.082533 -0.096672 0.450 0.200 0.450
v 0.112249 -0.082533 -0.096672 0.450 0.200 0.450
v 0.112249 -0.082533 -0.096672 0.450 0.200 0.450
v 0.112249 -0.082533 -0.096672 0.450 0.200 0.450
v 0.112249 -0.082533 -0.096672 0.450 0.200 0.450
f 473 483 474
f 473 482 483
f 474 484 475
f 474 483 484
f 475 485 476
f 475 484 485
f 476 486 477
f 476 485 486
f 477 487 478
f 477 486 487
f 478 488 479
f 478 487 488
f 479 489 480
f 479 488 489
f 480 490 481
f 480 489 490
f 481 482 473
f 481 490 482
f 482 492 483
f 482 491 492
f 483 493 484
f 483 492 493
f 484 494 485
f 484 493 494
f 485 495 486
f 485 494 495
f 486 496 487
f 486 495 496
f 487 497 488
f 487 496 497
f 488 498 489
f 488 497 498
f 489 499 490
f 489 498 499
f 490 491 482
f 490 499 491
f 491 501 492
f 491 500 501
f 492 502 493
f 492 501 502
f 493 503 494
f 493 502 503
f 494 504 495
f 494 503 504
f 495 505 496
f 495 504 505
f 496 506 497
f 496 505 506
f 497 507 498
f 497 506 507
f 498 508 499
f 498 507 508
f 499 500 491
f 499 508 500
f 500 510 501
f 500 509 510
f 501 511 502
f 501 510 511
f 502 512 503
f 502 511 512
f 503 513 504
f 503 512 513
f 504 514 505
f 504 513 514
f 505 515 506
f 505 514 515
f 506 516 507
f 506 515 516
f 507 517 508
f 507 516 517
f 508 509 500
f 508 517 509
f 509 519 510
f 509 518 519
f 510 520 511
f 510 519 520
f 511 521 512
f 511 520 521
f 512 522 513
f 512 521 522
f 513 523 514
f 513 522 523
f 514 524 515
f 514 523 524
f 515 525 516
f 515 524 525
f 516 526 517
f 516 525 526
f 517 518 509
f 517 526 518
v 0.162381 0.108489 -0.094278 0.698 0.560 0.698
v 0.168959 0.115489 -0.096672 0.698 0.560 0.698
v 0.175537 0.108489 -0.099066 0.698 0.560 0.698
v 0.168959 0.101489 -0.096672 0.698 0.560 0.698
v 0.149114 0.108489 -0.130730 0.698 0.560 0.698
v 0.155692 0.115489 -0.133125 0.698 0.560 0.698
v 0.162269 0.108489 -0.135519 0.698 0.560 0.698
v 0.155692 0.101489 -0.133125 0.698 0.560 0.698
f 527 528 532
f 527 532 531
f 528 529 533
f 528 533 532
f 529 530 534
f 529 534 533
f 530 527 531
f 530 531 534
v 0.152192 0.108489 -0.127062 0.698 0.560 0.698
v 0.155692 0.115489 -0.133125 0.698 0.560 0.698
v 0.159192 0.108489 -0.139187 0.698 0.560 0.698
v 0.155692 0.101489 -0.133125 0.698 0.560 0.698
v 0.118597 0.108489 -0.146458 0.698 0.560 0.698
v 0.122097 0.115489 -0.152520 0.698 0.560 0.698
v 0.125597 0.108489 -0.158583 0.698 0.560 0.698
v 0.122097 0.101489 -0.152520 0.698 0.560 0.698
f 535 536 540
f 535 540 539
f 536 537 541
f 536 541 540
f 537 538 542
f 537 542 541
f 538 535 539
f 538 539 542
v 0.123312 0.108489 -0.145627 0.698 0.560 0.698
v 0.122097 0.115489 -0.152520 0.698 0.560 0.698
v 0.120881 0.108489 -0.159414 0.698 0.560 0.698
v 0.122097 0.101489 -0.152520 0.698 0.560 0.698
v 0.085110 0.108489 -0.138891 0.698 0.560 0.698
v 0.083895 0.115489 -0.145784 0.698 0.560 0.698
v 0.082679 0.108489 -0.152678 0.698 0.560 0.698
v 0.083895 0.101489 -0.145784 0.698 0.560 0.698
f 543 544 548
f 543 548 547
f 544 545 549
f 544 549 548
f 545 546 550
f 545 550 549
f 546 543 547
f 546 547 550
v 0.089257 0.108489 -0.141285 0.698 0.560 0.698
v 0.083895 0.115489 -0.145784 0.698 0.560 0.698
v 0.078532 0.108489 -0.150284 0.698 0.560 0.698
v 0.083895 0.101489 -0.145784 0.698 0.560 0.698
v 0.064322 0.108489 -0.111569 0.698 0.560 0.698
v 0.058960 0.115489 -0.116068 0.698 0.560 0.698
v 0.053597 0.108489 -0.120568 0.698 0.560 0.698
v 0.058960 0.101489 -0.116068 0.698 0.560 0.698
f 551 552 556
f 551 556 555
f 552 553 557
f 552 557 556
f 553 554 558
f 553 558 557
f 554 551 555
f 554 555 558
v 0.065960 0.108489 -0.116068 0.698 0.560 0.698
v 0.058960 0.115489 -0.116068 0.698 0.560 0.698
v 0.051960 0.108489 -0.116068 0.698 0.560 0.698
v 0.058960 0.101489 -0.116068 0.698 0.560 0.698
v 0.065960 0.108489 -0.077276 0.698 0.560 0.698
v 0.058960 0.115489 -0.077276 0.698 0.560 0.698
v 0.051960 0.108489 -0.077276 0.698 0.560 0.698
v 0.058960 0.101489 -0.077276 0.698 0.560 0.698
f 559 560 564
f 559 564 563
f 560 561 565
f 560 565 564
f 561 562 566
f 561 566 565
f 562 559 563
f 562 563 566
v 0.064322 0.108489 -0.081776 0.698 0.560 0.698
v 0.058960 0.115489 -0.077276 0.698 0.560 0.698
v 0.053597 0.108489 -0.072777 0.698 0.560 0.698
v 0.058960 0.101489 -0.077276 0.698 0.560 0.698
v 0.089257 0.108489 -0.052060 0.698 0.560 0.698
v 0.083895 0.115489 -0.047560 0.698 0.560 0.698
v 0.078532 0.108489 -0.043061 0.698 0.560 0.698
v 0.083895 0.101489 -0.047560 0.698 0.560 0.698
f 567 568 572
f 567 572 571
f 568 569 573
f 568 573 572
f 569 570 574
f 569 574 573
f 570 567 571
f 570 571 574
v 0.085110 0.108489 -0.054454 0.698 0.560 0.698
v 0.083895 0.115489 -0.047560 0.698 0.560 0.698
v 0.082679 0.108489 -0.040667 0.698 0.560 0.698
v 0.083895 0.101489 -0.047560 0.698 0.560 0.698
v 0.123312 0.108489 -0.047718 0.698 0.560 0.698
v 0.122097 0.115489 -0.040824 0.698 0.560 0.698
v 0.120881 0.108489 -0.033930 0.698 0.560 0.698
v 0.122097 0.101489 -0.040824 0.698 0.560 0.698
f 575 576 580
f 575 580 579
f 576 577 581
f 576 581 580
f 577 578 582
f 577 582 581
f 578 575 579
f 578 579 582
v 0.118597 0.108489 -0.046886 0.698 0.560 0.698
v 0.122097 0.115489 -0.040824 0.698 0.560 0.698
v 0.125597 0.108489 -0.034762 0.698 0.560 0.698
v 0.122097 0.101489 -0.040824 0.698 0.560 0.698
v 0.152192 0.108489 -0.066282 0.698 0.560 0.698
v 0.155692 0.115489 -0.060220 0.698 0.560 0.698
v 0.159192 0.108489 -0.054158 0.698 0.560 0.698
v 0.155692 0.101489 -0.060220 0.698 0.560 0.698
f 583 584 588
f 583 588 587
f 584 585 589
f 584 589 588
f 585 586 590
f 585 590 589
f 586 583 587
f 586 587 590
v 0.149114 0.108489 -0.062614 0.698 0.560 0.698
v 0.155692 0.115489 -0.060220 0.698 0.560 0.698
v 0.162269 0.108489 -0.057826 0.698 0.560 0.698
v 0.155692 0.101489 -0.060220 0.698 0.560 0.698
v 0.162381 0.108489 -0.099066 0.698 0.560 0.698
v 0.168959 0.115489 -0.096672 0.698 0.560 0.698
v 0.175537 0.108489 -0.094278 0.698 0.560 0.698
v 0.168959 0.101489 -0.096672 0.698 0.560 0.698
f 591 592 596
f 591 596 595
f 592 593 597
f 592 597 596
f 593 594 598
f 593 598 597
f 594 591 595
f 594 595 598
v 0.142662 0.108489 -0.115591 0.338 0.150 0.338
v 0.156749 0.104563 -0.121985 0.338 0.150 0.338
v 0.164418 0.100636 -0.124386 0.338 0.150 0.338
v 0.170654 0.096710 -0.125895 0.338 0.150 0.338
v 0.176001 0.092783 -0.126851 0.338 0.150 0.338
v 0.180663 0.088857 -0.127381 0.338 0.150 0.338
v 0.184735 0.084930 -0.127544 0.338 0.150 0.338
v 0.188265 0.081004 -0.127371 0.338 0.150 0.338
v 0.191283 0.077077 -0.126878 0.338 0.150 0.338
v 0.193802 0.073150 -0.126075 0.338 0.150 0.338
v 0.195833 0.069224 -0.124968 0.338 0.150 0.338
v 0.197378 0.065297 -0.123559 0.338 0.150 0.338
v 0.198441 0.061371 -0.121851 0.338 0.150 0.338
v 0.199022 0.057444 -0.119842 0.338 0.150 0.338
v 0.199117 0.053518 -0.117531 0.338 0.150 0.338
v 0.198724 0.049591 -0.114916 0.338 0.150 0.338
v 0.197832 0.045665 -0.111992 0.338 0.150 0.338
v 0.196428 0.041738 -0.108748 0.338 0.150 0.338
v 0.194482 0.037812 -0.105168 0.338 0.150 0.338
v 0.191946 0.033885 -0.101220 0.338 0.150 0.338
v 0.188725 0.029959 -0.096846 0.338 0.150 0.338
v 0.184615 0.026032 -0.091919 0.338 0.150 0.338
v 0.179072 0.022105 -0.086101 0.338 0.150 0.338
v 0.167110 0.018179 -0.076290 0.338 0.150 0.338
v 0.153023 0.022105 -0.069896 0.338 0.150 0.338
v 0.145354 0.026032 -0.067495 0.338 0.150 0.338
v 0.139118 0.029959 -0.065986 0.338 0.150 0.338
v 0.133771 0.033885 -0.065030 0.338 0.150 0.338
v 0.129109 0.037812 -0.064500 0.338 0.150 0.338
v 0.125037 0.041738 -0.064337 0.338 0.150 0.338
v 0.121507 0.045665 -0.064511 0.338 0.150 0.338
v 0.118489 0.049591 -0.065004 0.338 0.150 0.338
v 0.115970 0.053518 -0.065806 0.338 0.150 0.338
v 0.113940 0.057444 -0.066913 0.338 0.150 0.338
v 0.112394 0.061371 -0.068322 0.338 0.150 0.338
v 0.111331 0.065297 -0.070030 0.338 0.150 0.338
v 0.110751 0.069224 -0.072039 0.338 0.150 0.338
v 0.110655 0.073150 -0.074350 0.338 0.150 0.338
v 0.111048 0.077077 -0.076965 0.338 0.150 0.338
v 0.111940 0.081004 -0.079889 0.338 0.150 0.338
v 0.113345 0.084930 -0.083133 0.338 0.150 0.338
v 0.115290 0.088857 -0.086714 0.338 0.150 0.338
v 0.117826 0.092783 -0.090661 0.338 0.150 0.338
v 0.121047 0.096710 -0.095035 0.338 0.150 0.338
v 0.125157 0.100636 -0.099962 0.338 0.150 0.338
v 0.130700 0.104563 -0.105780 0.338 0.150 0.338
f 599 600 601
f 599 601 600
f 599 601 602
f 599 602 601
f 599 602 603
f 599 603 602
f 599 603 604
f 599 604 603
f 599 604 605
f 599 605 604
f 599 605 606
f 599 606 605
f 599 606 607
f 599 607 606
f 599 607 608
f 599 608 607
f 599 608 609
f 599 609 608
f 599 609 610
f 599 610 609
f 599 610 611
f 599 611 610
f 599 611 612
f 599 612 611
f 599 612 613
f 599 613 612
f 599 613 614
f 599 614 613
f 599 614 615
f 599 615 614
f 599 615 616
f 599 616 615
f 599 616 617
f 599 617 616
f 599 617 618
f 599 618 617
f 599 618 619
f 599 619 618
f 599 619 620
f 599 620 619
f 599 620 621
f 599 621 620
f 599 621 622
f 599 622 621
f 599 622 623
f 599 623 622
f 599 623 624
f 599 624 623
f 599 624 625
f 599 625 624
f 599 625 626
f 599 626 625
f 599 626 627
f 599 627 626
f 599 627 628
f 599 628 627
f 599 628 629
f 599 629 628
f 599 629 630
f 599 630 629
f 599 630 631
f 599 631 630
f 599 631 632
f 599 632 631
f 599 632 633
f 599 633 632
f 599 633 634
f 599 634 633
f 599 634 635
f 599 635 634
f 599 635 636
f 599 636 635
f 599 636 637
f 599 637 636
f 599 637 638
f 599 638 637
f 599 638 639
f 599 639 638
f 599 639 640
f 599 640 639
f 599 640 641
f 599 641 640
f 599 641 642
f 599 642 641
f 599 642 643
f 599 643 642
f 599 643 644
f 599 644 643
v 0.019092 0.469415 -0.067011 0.200 0.440 0.170
v 0.024153 0.471785 -0.066134 0.200 0.440 0.170
v 0.024373 0.469415 -0.061002 0.200 0.440 0.170
v 0.019312 0.467045 -0.061880 0.200 0.440 0.170
v 0.101883 0.320745 -0.138449 0.200 0.440 0.170
v 0.105679 0.322523 -0.137791 0.200 0.440 0.170
v 0.105844 0.320745 -0.133943 0.200 0.440 0.170
v 0.102048 0.318968 -0.134600 0.200 0.440 0.170
f 645 646 650
f 645 650 649
f 646 647 651
f 646 651 650
f 647 648 652
f 647 652 651
f 648 645 649
f 648 649 652
v 0.103864 0.327550 -0.136196 0.450 0.200 0.450
v 0.103864 0.327550 -0.136196 0.450 0.200 0.450
v 0.103864 0.327550 -0.136196 0.450 0.200 0.450
v 0.103864 0.327550 -0.136196 0.450 0.200 0.450
v 0.103864 0.327550 -0.136196 0.450 0.200 0.450
v 0.103864 0.327550 -0.136196 0.450 0.200 0.450
v 0.103864 0.327550 -0.136196 0.450 0.200 0.450
v 0.103864 0.327550 -0.136196 0.450 0.200 0.450
v 0.103864 0.327550 -0.136196 0.450 0.200 0.450
v 0.143861 0.305457 -0.136196 0.450 0.200 0.450
v 0.134503 0.305457 -0.161906 0.450 0.200 0.450
v 0.110809 0.305457 -0.175586 0.450 0.200 0.450
v 0.083865 0.305457 -0.170835 0.450 0.200 0.450
v 0.066278 0.305457 -0.149876 0.450 0.200 0.450
v 0.066278 0.305457 -0.122516 0.450 0.200 0.450
v 0.083865 0.305457 -0.101557 0.450 0.200 0.450
v 0.110809 0.305457 -0.096806 0.450 0.200 0.450
v 0.134503 0.305457 -0.110486 0.450 0.200 0.450
v 0.168581 0.247617 -0.136196 0.450 0.200 0.450
v 0.153440 0.247617 -0.177795 0.450 0.200 0.450
v 0.115102 0.247617 -0.199930 0.450 0.200 0.450
v 0.071505 0.247617 -0.192242 0.450 0.200 0.450
v 0.043049 0.247617 -0.158330 0.450 0.200 0.450
v 0.043049 0.247617 -0.114061 0.450 0.200 0.450
v 0.071505 0.247617 -0.080149 0.450 0.200 0.450
v 0.115102 0.247617 -0.072462 0.450 0.200 0.450
v 0.153440 0.247617 -0.094597 0.450 0.200 0.450
v 0.168581 0.176122 -0.136196 0.450 0.200 0.450
v 0.153440 0.176122 -0.177795 0.450 0.200 0.450
v 0.115102 0.176122 -0.199930 0.450 0.200 0.450
v 0.071505 0.176122 -0.192242 0.450 0.200 0.450
v 0.043049 0.176122 -0.158330 0.450 0.200 0.450
v 0.043049 0.176122 -0.114061 0.450 0.200 0.450
v 0.071505 0.176122 -0.080149 0.450 0.200 0.450
v 0.115102 0.176122 -0.072462 0.450 0.200 0.450
v 0.153440 0.176122 -0.094597 0.450 0.200 0.450
v 0.143861 0.118282 -0.136196 0.450 0.200 0.450
v 0.134503 0.118282 -0.161906 0.450 0.200 0.450
v 0.110809 0.118282 -0.175586 0.450 0.200 0.450
v 0.083865 0.118282 -0.170835 0.450 0.200 0.450
v 0.066278 0.118282 -0.149876 0.450 0.200 0.450
v 0.066278 0.118282 -0.122516 0.450 0.200 0.450
v 0.083865 0.118282 -0.101557 0.450 0.200 0.450
v 0.110809 0.118282 -0.096806 0.450 0.200 0.450
v 0.134503 0.118282 -0.110486 0.450 0.200 0.450
v 0.103864 0.096189 -0.136196 0.450 0.200 0.450
v 0.103864 0.096189 -0.136196 0.450 0.200 0.450
v 0.103864 0.096189 -0.136196 0.450 0.200 0.450
v 0.103864 0.096189 -0.136196 0.450 0.200 0.450
v 0.103864 0.096189 -0.136196 0.450 0.200 0.450
v 0.103864 0.096189 -0.136196 0.450 0.200 0.450
v 0.103864 0.096189 -0.136196 0.450 0.200 0.450
v 0.103864 0.096189 -0.136196 0.450 0.200 0.450
v 0.103864 0.096189 -0.136196 0.450 0.200 0.450
f 653 663 654
f 653 662 663
f 654 664 655
f 654 663 664
f 655 665 656
f 655 664 665
f 656 666 657
f 656 665 666
f 657 667 658
f 657 666 667
f 658 668 659
f 658 667 668
f 659 669 660
f 659 668 669
f 660 670 661
f 660 669 670
f 661 662 653
f 661 670 662
f 662 672 663
f 662 671 672
f 663 673 664
f 663 672 673
f 664 674 665
f 664 673 674
f 665 675 666
f 665 674 675
f 666 676 667
f 666 675 676
f 667 677 668
f 667 676 677
f 668 678 669
f 668 677 678
f 669 679 670
f 669 678 679
f 670 671 662
f 670 679 671
f 671 681 672
f 671 680 681
f 672 682 673
f 672 681 682
f 673 683 674
f 673 682 683
f 674 684 675
f 674 683 684
f 675 685 676
f 675 684 685
f 676 686 677
f 676 685 686
f 677 687 678
f 677 686 687
f 678 688 679
f 678 687 688
f 679 680 671
f 679 688 680
f 680 690 681
f 680 689 690
f 681 691 682
f 681 690 691
f 682 692 683
f 682 691 692
f 683 693 684
f 683 692 693
f 684 694 685
f 684 693 694
f 685 695 686
f 685 694 695
f 686 696 687
f 686 695 696
f 687 697 688
f 687 696 697
f 688 689 680
f 688 697 689
f 689 699 690
f 689 698 699
f 690 700 691
f 690 699 700
f 691 701 692
f 691 700 701
f 692 702 693
f 692 701 702
f 693 703 694
f 693 702 703
f 694 704 695
f 694 703 704
f 695 705 696
f 695 704 705
f 696 706 697
f 696 705 706
f 697 698 689
f 697 706 698
v 0.161931 0.313941 -0.133802 0.698 0.560 0.698
v 0.168509 0.320941 -0.136196 0.698 0.560 0.698
v 0.175086 0.313941 -0.138590 0.698 0.560 0.698
v 0.168509 0.306941 -0.136196 0.698 0.560 0.698
v 0.146807 0.313941 -0.175355 0.698 0.560 0.698
v 0.153385 0.320941 -0.177749 0.698 0.560 0.698
v 0.159962 0.313941 -0.180143 0.698 0.560 0.698
v 0.153385 0.306941 -0.177749 0.698 0.560 0.698
f 707 708 712
f 707 712 711
f 708 709 713
f 708 713 712
f 709 710 714
f 709 714 713
f 710 707 711
f 710 711 714
v 0.149885 0.313941 -0.171687 0.698 0.560 0.698
v 0.153385 0.320941 -0.177749 0.698 0.560 0.698
v 0.156885 0.313941 -0.183811 0.698 0.560 0.698
v 0.153385 0.306941 -0.177749 0.698 0.560 0.698
v 0.111589 0.313941 -0.193797 0.698 0.560 0.698
v 0.115089 0.320941 -0.199859 0.698 0.560 0.698
v 0.118589 0.313941 -0.205921 0.698 0.560 0.698
v 0.115089 0.306941 -0.199859 0.698 0.560 0.698
f 715 716 720
f 715 720 719
f 716 717 721
f 716 721 720
f 717 718 722
f 717 722 721
f 718 715 719
f 718 719 722
v 0.116305 0.313941 -0.192965 0.698 0.560 0.698
v 0.115089 0.320941 -0.199859 0.698 0.560 0.698
v 0.113873 0.313941 -0.206753 0.698 0.560 0.698
v 0.115089 0.306941 -0.199859 0.698 0.560 0.698
v 0.072756 0.313941 -0.185287 0.698 0.560 0.698
v 0.071541 0.320941 -0.192180 0.698 0.560 0.698
v 0.070325 0.313941 -0.199074 0.698 0.560 0.698
v 0.071541 0.306941 -0.192180 0.698 0.560 0.698
f 723 724 728
f 723 728 727
f 724 725 729
f 724 729 728
f 725 726 730
f 725 730 729
f 726 723 727
f 726 727 730
v 0.076903 0.313941 -0.187681 0.698 0.560 0.698
v 0.071541 0.320941 -0.192180 0.698 0.560 0.698
v 0.066179 0.313941 -0.196680 0.698 0.560 0.698
v 0.071541 0.306941 -0.192180 0.698 0.560 0.698
v 0.048479 0.313941 -0.153806 0.698 0.560 0.698
v 0.043117 0.320941 -0.158306 0.698 0.560 0.698
v 0.037755 0.313941 -0.162805 0.698 0.560 0.698
v 0.043117 0.306941 -0.158306 0.698 0.560 0.698
f 731 732 736
f 731 736 735
f 732 733 737
f 732 737 736
f 733 734 738
f 733 738 737
f 734 731 735
f 734 735 738
v 0.050117 0.313941 -0.158306 0.698 0.560 0.698
v 0.043117 0.320941 -0.158306 0.698 0.560 0.698
v 0.036117 0.313941 -0.158306 0.698 0.560 0.698
v 0.043117 0.306941 -0.158306 0.698 0.560 0.698
v 0.050117 0.313941 -0.114086 0.698 0.560 0.698
v 0.043117 0.320941 -0.114086 0.698 0.560 0.698
v 0.036117 0.313941 -0.114086 0.698 0.560 0.698
v 0.043117 0.306941 -0.114086 0.698 0.560 0.698
f 739 740 744
f 739 744 743
f 740 741 745
f 740 745 744
f 741 742 746
f 741 746 745
f 742 739 743
f 742 743 746
v 0.048479 0.313941 -0.118585 0.698 0.560 0.698
v 0.043117 0.320941 -0.114086 0.698 0.560 0.698
v 0.037755 0.313941 -0.109586 0.698 0.560 0.698
v 0.043117 0.306941 -0.114086 0.698 0.560 0.698
v 0.076903 0.313941 -0.084711 0.698 0.560 0.698
v 0.071541 0.320941 -0.080212 0.698 0.560 0.698
v 0.066179 0.313941 -0.075712 0.698 0.560 0.698
v 0.071541 0.306941 -0.080212 0.698 0.560 0.698
f 747 748 752
f 747 752 751
f 748 749 753
f 748 753 752
f 749 750 754
f 749 754 753
f 750 747 751
f 750 751 754
v 0.072756 0.313941 -0.087105 0.698 0.560 0.698
v 0.071541 0.320941 -0.080212 0.698 0.560 0.698
v 0.070325 0.313941 -0.073318 0.698 0.560 0.698
v 0.071541 0.306941 -0.080212 0.698 0.560 0.698
v 0.116305 0.313941 -0.079427 0.698 0.560 0.698
v 0.115089 0.320941 -0.072533 0.698 0.560 0.698
v 0.113873 0.313941 -0.065639 0.698 0.560 0.698
v 0.115089 0.306941 -0.072533 0.698 0.560 0.698
f 755 756 760
f 755 760 759
f 756 757 761
f 756 761 760
f 757 758 762
f 757 762 761
f 758 755 759
f 758 759 762
v 0.111589 0.313941 -0.078595 0.698 0.560 0.698
v 0.115089 0.320941 -0.072533 0.698 0.560 0.698
v 0.118589 0.313941 -0.066471 0.698 0.560 0.698
v 0.115089 0.306941 -0.072533 0.698 0.560 0.698
v 0.149885 0.313941 -0.100705 0.698 0.560 0.698
v 0.153385 0.320941 -0.094643 0.698 0.560 0.698
v 0.156885 0.313941 -0.088581 0.698 0.560 0.698
v 0.153385 0.306941 -0.094643 0.698 0.560 0.698
f 763 764 768
f 763 768 767
f 764 765 769
f 764 769 768
f 765 766 770
f 765 770 769
f 766 763 767
f 766 767 770
v 0.146807 0.313941 -0.097037 0.698 0.560 0.698
v 0.153385 0.320941 -0.094643 0.698 0.560 0.698
v 0.159962 0.313941 -0.092249 0.698 0.560 0.698
v 0.153385 0.306941 -0.094643 0.698 0.560 0.698
v 0.161931 0.313941 -0.138590 0.698 0.560 0.698
v 0.168509 0.320941 -0.136196 0.698 0.560 0.698
v 0.175086 0.313941 -0.133802 0.698 0.560 0.698
v 0.168509 0.306941 -0.136196 0.698 0.560 0.698
f 771 772 776
f 771 776 775
f 772 773 777
f 772 777 776
f 773 774 778
f 773 778 777
f 774 771 775
f 774 775 778
v 0.134530 0.313941 -0.163150 0.338 0.150 0.338
v 0.149061 0.309378 -0.173103 0.338 0.150 0.338
v 0.157121 0.304816 -0.177368 0.338 0.150 0.338
v 0.163734 0.300254 -0.180362 0.338 0.150 0.338
v 0.169453 0.295692 -0.182569 0.338 0.150 0.338
v 0.174479 0.291130 -0.184168 0.338 0.150 0.338
v 0.178911 0.286568 -0.185244 0.338 0.150 0.338
v 0.182797 0.282006 -0.185841 0.338 0.150 0.338
v 0.186166 0.277443 -0.185982 0.338 0.150 0.338
v 0.189032 0.272881 -0.185683 0.338 0.150 0.338
v 0.191406 0.268319 -0.184950 0.338 0.150 0.338
v 0.193290 0.263757 -0.183787 0.338 0.150 0.338
v 0.194688 0.259195 -0.182197 0.338 0.150 0.338
v 0.195599 0.254633 -0.180179 0.338 0.150 0.338
v 0.196022 0.250070 -0.177731 0.338 0.150 0.338
v 0.195951 0.245508 -0.174850 0.338 0.150 0.338
v 0.195378 0.240946 -0.171527 0.338 0.150 0.338
v 0.194288 0.236384 -0.167749 0.338 0.150 0.338
v 0.192652 0.231822 -0.163493 0.338 0.150 0.338
v 0.190421 0.227260 -0.158712 0.338 0.150 0.338
v 0.187499 0.222698 -0.153325 0.338 0.150 0.338
v 0.183681 0.218135 -0.147150 0.338 0.150 0.338
v 0.178417 0.213573 -0.139704 0.338 0.150 0.338
v 0.166682 0.209011 -0.126570 0.338 0.150 0.338
v 0.152151 0.213573 -0.116617 0.338 0.150 0.338
v 0.144091 0.218135 -0.112352 0.338 0.150 0.338
v 0.137478 0.222698 -0.109359 0.338 0.150 0.338
v 0.131759 0.227260 -0.107152 0.338 0.150 0.338
v 0.126732 0.231822 -0.105552 0.338 0.150 0.338
v 0.122301 0.236384 -0.104476 0.338 0.150 0.338
v 0.118415 0.240946 -0.103880 0.338 0.150 0.338
v 0.115046 0.245508 -0.103738 0.338 0.150 0.338
v 0.112179 0.250070 -0.104038 0.338 0.150 0.338
v 0.109806 0.254633 -0.104771 0.338 0.150 0.338
v 0.107921 0.259195 -0.105933 0.338 0.150 0.338
v 0.106524 0.263757 -0.107524 0.338 0.150 0.338
v 0.105612 0.268319 -0.109542 0.338 0.150 0.338
v 0.105190 0.272881 -0.111990 0.338 0.150 0.338
v 0.105261 0.277443 -0.114871 0.338 0.150 0.338
v 0.105834 0.282006 -0.118194 0.338 0.150 0.338
v 0.106924 0.286568 -0.121971 0.338 0.150 0.338
v 0.108560 0.291130 -0.126228 0.338 0.150 0.338
v 0.110791 0.295692 -0.131008 0.338 0.150 0.338
v 0.113713 0.300254 -0.136396 0.338 0.150 0.338
v 0.117531 0.304816 -0.142571 0.338 0.150 0.338
v 0.122795 0.309378 -0.150016 0.338 0.150 0.338
f 779 780 781
f 779 781 780
f 779 781 782
f 779 782 781
f 779 782 783
f 779 783 782
f 779 783 784
f 779 784 783
f 779 784 785
f 779 785 784
f 779 785 786
f 779 786 785
f 779 786 787
f 779 787 786
f 779 787 788
f 779 788 787
f 779 788 789
f 779 789 788
f 779 789 790
f 779 790 789
f 779 790 791
f 779 791 790
f 779 791 792
f 779 792 791
f 779 792 793
f 779 793 792
f 779 793 794
f 779 794 793
f 779 794 795
f 779 795 794
f 779 795 796
f 779 796 795
f 779 796 797
f 779 797 796
f 779 797 798
f 779 798 797
f 779 798 799
f 779 799 798
f 779 799 800
f 779 800 799
f 779 800 801
f 779 801 800
f 779 801 802
f 779 802 801
f 779 802 803
f 779 803 802
f 779 803 804
f 779 804 803
f 779 804 805
f 779 805 804
f 779 805 806
f 779 806 805
f 779 806 807
f 779 807 806
f 779 807 808
f 779 808 807
f 779 808 809
f 779 809 808
f 779 809 810
f 779 810 809
f 779 810 811
f 779 811 810
f 779 811 812
f 779 812 811
f 779 812 813
f 779 813 812
f 779 813 814
f 779 814 813
f 779 814 815
f 779 815 814
f 779 815 816
f 779 816 815
f 779 816 817
f 779 817 816
f 779 817 818
f 779 818 817
f 779 818 819
f 779 819 818
f 779 819 820
f 779 820 819
f 779 820 821
f 779 821 820
f 779 821 822
f 779 822 821
f 779 822 823
f 779 823 822
f 779 823 824
f 779 824 823
v 0.031979 0.596548 -0.105877 0.200 0.440 0.170
v 0.037200 0.598723 -0.105990 0.200 0.440 0.170
v 0.038217 0.596548 -0.100868 0.200 0.440 0.170
v 0.032997 0.594372 -0.100755 0.200 0.440 0.170
v 0.101715 0.426598 -0.191129 0.200 0.440 0.170
v 0.105630 0.428230 -0.191214 0.200 0.440 0.170
v 0.106393 0.426598 -0.187373 0.200 0.440 0.170
v 0.102478 0.424967 -0.187288 0.200 0.440 0.170
f 825 826 830
f 825 830 829
f 826 827 831
f 826 831 830
f 827 828 832
f 827 832 831
f 828 825 829
f 828 829 832
v 0.104054 0.433831 -0.189251 0.450 0.200 0.450
v 0.104054 0.433831 -0.189251 0.450 0.200 0.450
v 0.104054 0.433831 -0.189251 0.450 0.200 0.450
v 0.104054 0.433831 -0.189251 0.450 0.200 0.450
v 0.104054 0.433831 -0.189251 0.450 0.200 0.450
v 0.104054 0.433831 -0.189251 0.450 0.200 0.450
v 0.104054 0.433831 -0.189251 0.450 0.200 0.450
v 0.104054 0.433831 -0.189251 0.450 0.200 0.450
v 0.104054 0.433831 -0.189251 0.450 0.200 0.450
v 0.146565 0.410349 -0.189251 0.450 0.200 0.450
v 0.136619 0.410349 -0.216576 0.450 0.200 0.450
v 0.111436 0.410349 -0.231116 0.450 0.200 0.450
v 0.082799 0.410349 -0.226066 0.450 0.200 0.450
v 0.064107 0.410349 -0.203790 0.450 0.200 0.450
v 0.064107 0.410349 -0.174712 0.450 0.200 0.450
v 0.082799 0.410349 -0.152436 0.450 0.200 0.450
v 0.111436 0.410349 -0.147386 0.450 0.200 0.450
v 0.136619 0.410349 -0.161926 0.450 0.200 0.450
v 0.172838 0.348875 -0.189251 0.450 0.200 0.450
v 0.156745 0.348875 -0.233464 0.450 0.200 0.450
v 0.115998 0.348875 -0.256989 0.450 0.200 0.450
v 0.069662 0.348875 -0.248819 0.450 0.200 0.450
v 0.039419 0.348875 -0.212776 0.450 0.200 0.450
v 0.039419 0.348875 -0.165726 0.450 0.200 0.450
v 0.069662 0.348875 -0.129683 0.450 0.200 0.450
v 0.115998 0.348875 -0.121513 0.450 0.200 0.450
v 0.156745 0.348875 -0.145038 0.450 0.200 0.450
v 0.172838 0.272888 -0.189251 0.450 0.200 0.450
v 0.156745 0.272888 -0.233464 0.450 0.200 0.450
v 0.115998 0.272888 -0.256989 0.450 0.200 0.450
v 0.069662 0.272888 -0.248819 0.450 0.200 0.450
v 0.039419 0.272888 -0.212776 0.450 0.200 0.450
v 0.039419 0.272888 -0.165726 0.450 0.200 0.450
v 0.069662 0.272888 -0.129683 0.450 0.200 0.450
v 0.115998 0.272888 -0.121513 0.450 0.200 0.450
v 0.156745 0.272888 -0.145038 0.450 0.200 0.450
v 0.146565 0.211413 -0.189251 0.450 0.200 0.450
v 0.136619 0.211413 -0.216576 0.450 0.200 0.450
v 0.111436 0.211413 -0.231116 0.450 0.200 0.450
v 0.082799 0.211413 -0.226066 0.450 0.200 0.450
v 0.064107 0.211413 -0.203790 0.450 0.200 0.450
v 0.064107 0.211413 -0.174712 0.450 0.200 0.450
v 0.082799 0.211413 -0.152436 0.450 0.200 0.450
v 0.111436 0.211413 -0.147386 0.450 0.200 0.450
v 0.136619 0.211413 -0.161926 0.450 0.200 0.450
v 0.104054 0.187932 -0.189251 0.450 0.200 0.450
v 0.104054 0.187932 -0.189251 0.450 0.200 0.450
v 0.104054 0.187932 -0.189251 0.450 0.200 0.450
v 0.104054 0.187932 -0.189251 0.450 0.200 0.450
v 0.104054 0.187932 -0.189251 0.450 0.200 0.450
v 0.104054 0.187932 -0.189251 0.450 0.200 0.450
v 0.104054 0.187932 -0.189251 0.450 0.200 0.450
v 0.104054 0.187932 -0.189251 0.450 0.200 0.450
v 0.104054 0.187932 -0.189251 0.450 0.200 0.450
f 833 843 834
f 833 842 843
f 834 844 835
f 834 843 844
f 835 845 836
f 835 844 845
f 836 846 837
f 836 845 846
f 837 847 838
f 837 846 847
f 838 848 839
f 838 847 848
f 839 849 840
f 839 848 849
f 840 850 841
f 840 849 850
f 841 842 833
f 841 850 842
f 842 852 843
f 842 851 852
f 843 853 844
f 843 852 853
f 844 854 845
f 844 853 854
f 845 855 846
f 845 854 855
f 846 856 847
f 846 855 856
f 847 857 848
f 847 856 857
f 848 858 849
f 848 857 858
f 849 859 850
f 849 858 859
f 850 851 842
f 850 859 851
f 851 861 852
f 851 860 861
f 852 862 853
f 852 861 862
f 853 863 854
f 853 862 863
f 854 864 855
f 854 863 864
f 855 865 856
f 855 864 865
f 856 866 857
f 856 865 866
f 857 867 858
f 857 866 867
f 858 868 859
f 858 867 868
f 859 860 851
f 859 868 860
f 860 870 861
f 860 869 870
f 861 871 862
f 861 870 871
f 862 872 863
f 862 871 872
f 863 873 864
f 863 872 873
f 864 874 865
f 864 873 874
f 865 875 866
f 865 874 875
f 866 876 867
f 866 875 876
f 867 877 868
f 867 876 877
f 868 869 860
f 868 877 869
f 869 879 870
f 869 878 879
f 870 880 871
f 870 879 880
f 871 881 872
f 871 880 881
f 872 882 873
f 872 881 882
f 873 883 874
f 873 882 883
f 874 884 875
f 874 883 884
f 875 885 876
f 875 884 885
f 876 886 877
f 876 885 886
f 877 878 869
f 877 886 878
v 0.166183 0.419366 -0.186857 0.698 0.560 0.698
v 0.172761 0.426366 -0.189251 0.698 0.560 0.698
v 0.179339 0.419366 -0.191645 0.698 0.560 0.698
v 0.172761 0.412366 -0.189251 0.698 0.560 0.698
v 0.150109 0.419366 -0.231021 0.698 0.560 0.698
v 0.156687 0.426366 -0.233415 0.698 0.560 0.698
v 0.163265 0.419366 -0.235809 0.698 0.560 0.698
v 0.156687 0.412366 -0.233415 0.698 0.560 0.698
f 887 888 892
f 887 892 891
f 888 889 893
f 888 893 892
f 889 890 894
f 889 894 893
f 890 887 891
f 890 891 894
v 0.153187 0.419366 -0.227353 0.698 0.560 0.698
v 0.156687 0.426366 -0.233415 0.698 0.560 0.698
v 0.160187 0.419366 -0.239477 0.698 0.560 0.698
v 0.156687 0.412366 -0.233415 0.698 0.560 0.698
v 0.112485 0.419366 -0.250852 0.698 0.560 0.698
v 0.115985 0.426366 -0.256914 0.698 0.560 0.698
v 0.119485 0.419366 -0.262976 0.698 0.560 0.698
v 0.115985 0.412366 -0.256914 0.698 0.560 0.698
f 895 896 900
f 895 900 899
f 896 897 901
f 896 901 900
f 897 898 902
f 897 902 901
f 898 895 899
f 898 899 902
v 0.117201 0.419366 -0.250021 0.698 0.560 0.698
v 0.115985 0.426366 -0.256914 0.698 0.560 0.698
v 0.114770 0.419366 -0.263808 0.698 0.560 0.698
v 0.115985 0.412366 -0.256914 0.698 0.560 0.698
v 0.070916 0.419366 -0.241859 0.698 0.560 0.698
v 0.069701 0.426366 -0.248753 0.698 0.560 0.698
v 0.068485 0.419366 -0.255647 0.698 0.560 0.698
v 0.069701 0.412366 -0.248753 0.698 0.560 0.698
f 903 904 908
f 903 908 907
f 904 905 909
f 904 909 908
f 905 906 910
f 905 910 909
f 906 903 907
f 906 907 910
v 0.075063 0.419366 -0.244253 0.698 0.560 0.698
v 0.069701 0.426366 -0.248753 0.698 0.560 0.698
v 0.064338 0.419366 -0.253253 0.698 0.560 0.698
v 0.069701 0.412366 -0.248753 0.698 0.560 0.698
v 0.044853 0.419366 -0.208251 0.698 0.560 0.698
v 0.039491 0.426366 -0.212750 0.698 0.560 0.698
v 0.034128 0.419366 -0.217250 0.698 0.560 0.698
v 0.039491 0.412366 -0.212750 0.698 0.560 0.698
f 911 912 916
f 911 916 915
f 912 913 917
f 912 917 916
f 913 914 918
f 913 918 917
f 914 911 915
f 914 915 918
v 0.046491 0.419366 -0.212750 0.698 0.560 0.698
v 0.039491 0.426366 -0.212750 0.698 0.560 0.698
v 0.032491 0.419366 -0.212750 0.698 0.560 0.698
v 0.039491 0.412366 -0.212750 0.698 0.560 0.698
v 0.046491 0.419366 -0.165752 0.698 0.560 0.698
v 0.039491 0.426366 -0.165752 0.698 0.560 0.698
v 0.032491 0.419366 -0.165752 0.698 0.560 0.698
v 0.039491 0.412366 -0.165752 0.698 0.560 0.698
f 919 920 924
f 919 924 923
f 920 921 925
f 920 925 924
f 921 922 926
f 921 926 925
f 922 919 923
f 922 923 926
v 0.044853 0.419366 -0.170251 0.698 0.560 0.698
v 0.039491 0.426366 -0.165752 0.698 0.560 0.698
v 0.034128 0.419366 -0.161252 0.698 0.560 0.698
v 0.039491 0.412366 -0.165752 0.698 0.560 0.698
v 0.075063 0.419366 -0.134248 0.698 0.560 0.698
v 0.069701 0.426366 -0.129749 0.698 0.560 0.698
v 0.064338 0.419366 -0.125249 0.698 0.560 0.698
v 0.069701 0.412366 -0.129749 0.698 0.560 0.698
f 927 928 932
f 927 932 931
f 928 929 933
f 928 933 932
f 929 930 934
f 929 934 933
f 930 927 931
f 930 931 934
v 0.070916 0.419366 -0.136643 0.698 0.560 0.698
v 0.069701 0.426366 -0.129749 0.698 0.560 0.698
v 0.068485 0.419366 -0.122855 0.698 0.560 0.698
v 0.069701 0.412366 -0.129749 0.698 0.560 0.698
v 0.117201 0.419366 -0.128481 0.698 0.560 0.698
v 0.115985 0.426366 -0.121588 0.698 0.560 0.698
v 0.114770 0.419366 -0.114694 0.698 0.560 0.698
v 0.115985 0.412366 -0.121588 0.698 0.560 0.698
f 935 936 940
f 935 940 939
f 936 937 941
f 936 941 940
f 937 938 942
f 937 942 941
f 938 935 939
f 938 939 942
v 0.112485 0.419366 -0.127650 0.698 0.560 0.698
v 0.115985 0.426366 -0.121588 0.698 0.560 0.698
v 0.119485 0.419366 -0.115526 0.698 0.560 0.698
v 0.115985 0.412366 -0.121588 0.698 0.560 0.698
v 0.153187 0.419366 -0.151149 0.698 0.560 0.698
v 0.156687 0.426366 -0.145087 0.698 0.560 0.698
v 0.160187 0.419366 -0.139025 0.698 0.560 0.698
v 0.156687 0.412366 -0.145087 0.698 0.560 0.698
f 943 944 948
f 943 948 947
f 944 945 949
f 944 949 948
f 945 946 950
f 945 950 949
f 946 943 947
f 946 947 950
v 0.150109 0.419366 -0.147481 0.698 0.560 0.698
v 0.156687 0.426366 -0.145087 0.698 0.560 0.698
v 0.163265 0.419366 -0.142693 0.698 0.560 0.698
v 0.156687 0.412366 -0.145087 0.698 0.560 0.698
v 0.166183 0.419366 -0.191645 0.698 0.560 0.698
v 0.172761 0.426366 -0.189251 0.698 0.560 0.698
v 0.179339 0.419366 -0.186857 0.698 0.560 0.698
v 0.172761 0.412366 -0.189251 0.698 0.560 0.698
f 951 952 956
f 951 956 955
f 952 953 957
f 952 957 956
f 953 954 958
f 953 958 957
f 954 951 955
f 954 955 958
v 0.131223 0.419366 -0.223087 0.338 0.150 0.338
v 0.144756 0.414607 -0.236054 0.338 0.150 0.338
v 0.152556 0.409847 -0.241881 0.338 0.150 0.338
v 0.159074 0.405088 -0.246111 0.338 0.150 0.338
v 0.164800 0.400328 -0.249354 0.338 0.150 0.338
v 0.169913 0.395569 -0.251835 0.338 0.150 0.338
v 0.174498 0.390810 -0.253658 0.338 0.150 0.338
v 0.178601 0.386050 -0.254879 0.338 0.150 0.338
v 0.182244 0.381291 -0.255530 0.338 0.150 0.338
v 0.185443 0.376532 -0.255627 0.338 0.150 0.338
v 0.188205 0.371772 -0.255179 0.338 0.150 0.338
v 0.190535 0.367013 -0.254192 0.338 0.150 0.338
v 0.192432 0.362254 -0.252668 0.338 0.150 0.338
v 0.193899 0.357494 -0.250607 0.338 0.150 0.338
v 0.194933 0.352735 -0.248007 0.338 0.150 0.338
v 0.195530 0.347975 -0.244863 0.338 0.150 0.338
v 0.195681 0.343216 -0.241164 0.338 0.150 0.338
v 0.195375 0.338457 -0.236895 0.338 0.150 0.338
v 0.194585 0.333697 -0.232024 0.338 0.150 0.338
v 0.193268 0.328938 -0.226496 0.338 0.150 0.338
v 0.191338 0.324179 -0.220205 0.338 0.150 0.338
v 0.188615 0.319419 -0.212927 0.338 0.150 0.338
v 0.184611 0.314660 -0.204053 0.338 0.150 0.338
v 0.174874 0.309901 -0.188038 0.338 0.150 0.338
v 0.161341 0.314660 -0.175071 0.338 0.150 0.338
v 0.153541 0.319419 -0.169245 0.338 0.150 0.338
v 0.147022 0.324179 -0.165014 0.338 0.150 0.338
v 0.141297 0.328938 -0.161771 0.338 0.150 0.338
v 0.136184 0.333697 -0.159291 0.338 0.150 0.338
v 0.131599 0.338457 -0.157467 0.338 0.150 0.338
v 0.127496 0.343216 -0.156246 0.338 0.150 0.338
v 0.123852 0.347975 -0.155595 0.338 0.150 0.338
v 0.120653 0.352735 -0.155498 0.338 0.150 0.338
v 0.117891 0.357494 -0.155946 0.338 0.150 0.338
v 0.115562 0.362254 -0.156933 0.338 0.150 0.338
v 0.113664 0.367013 -0.158457 0.338 0.150 0.338
v 0.112198 0.371772 -0.160518 0.338 0.150 0.338
v 0.111164 0.376532 -0.163118 0.338 0.150 0.338
v 0.110567 0.381291 -0.166262 0.338 0.150 0.338
v 0.110415 0.386050 -0.169961 0.338 0.150 0.338
v 0.110722 0.390810 -0.174230 0.338 0.150 0.338
v 0.111512 0.395569 -0.179101 0.338 0.150 0.338
v 0.112829 0.400328 -0.184629 0.338 0.150 0.338
v 0.114759 0.405088 -0.190920 0.338 0.150 0.338
v 0.117482 0.409847 -0.198199 0.338 0.150 0.338
v 0.121485 0.414607 -0.207073 0.338 0.150 0.338
f 959 960 961
f 959 961 960
f 959 961 962
f 959 962 961
f 959 962 963
f 959 963 962
f 959 963 964
f 959 964 963
f 959 964 965
f 959 965 964
f 959 965 966
f 959 966 965
f 959 966 967
f 959 967 966
f 959 967 968
f 959 968 967
f 959 968 969
f 959 969 968
f 959 969 970
f 959 970 969
f 959 970 971
f 959 971 970
f 959 971 972
f 959 972 971
f 959 972 973
f 959 973 972
f 959 973 974
f 959 974 973
f 959 974 975
f 959 975 974
f 959 975 976
f 959 976 975
f 959 976 977
f 959 977 976
f 959 977 978
f 959 978 977
f 959 978 979
f 959 979 978
f 959 979 980
f 959 980 979
f 959 980 981
f 959 981 980
f 959 981 982
f 959 982 981
f 959 982 983
f 959 983 982
f 959 983 984
f 959 984 983
f 959 984 985
f 959 985 984
f 959 985 986
f 959 986 985
f 959 986 987
f 959 987 986
f 959 987 988
f 959 988 987
f 959 988 989
f 959 989 988
f 959 989 990
f 959 990 989
f 959 990 991
f 959 991 990
f 959 991 992
f 959 992 991
f 959 992 993
f 959 993 992
f 959 993 994
f 959 994 993
f 959 994 995
f 959 995 994
f 959 995 996
f 959 996 995
f 959 996 997
f 959 997 996
f 959 997 998
f 959 998 997
f 959 998 999
f 959 999 998
f 959 999 1000
f 959 1000 999
f 959 1000 1001
f 959 1001 1000
f 959 1001 1002
f 959 1002 1001
f 959 1002 1003
f 959 1003 1002
f 959 1003 1004
f 959 1004 1003
v 0.047654 0.723681 -0.152007 0.200 0.440 0.170
v 0.051556 0.726058 -0.155343 0.200 0.440 0.170
v 0.055651 0.723681 -0.152248 0.200 0.440 0.170
v 0.051749 0.721303 -0.148912 0.200 0.440 0.170
v 0.043866 0.508049 -0.311317 0.200 0.440 0.170
v 0.046792 0.509832 -0.313819 0.200 0.440 0.170
v 0.049864 0.508049 -0.311498 0.200 0.440 0.170
v 0.046937 0.506266 -0.308996 0.200 0.440 0.170
f 1005 1006 1010
f 1005 1010 1009
f 1006 1007 1011
f 1006 1011 1010
f 1007 1008 1012
f 1007 1012 1011
f 1008 1005 1009
f 1008 1009 1012
v 0.046865 0.514949 -0.311408 0.450 0.200 0.450
v 0.046865 0.514949 -0.311408 0.450 0.200 0.450
v 0.046865 0.514949 -0.311408 0.450 0.200 0.450
v 0.046865 0.514949 -0.311408 0.450 0.200 0.450
v 0.046865 0.514949 -0.311408 0.450 0.200 0.450
v 0.046865 0.514949 -0.311408 0.450 0.200 0.450
v 0.046865 0.514949 -0.311408 0.450 0.200 0.450
v 0.046865 0.514949 -0.311408 0.450 0.200 0.450
v 0.046865 0.514949 -0.311408 0.450 0.200 0.450
v 0.087422 0.492547 -0.311408 0.450 0.200 0.450
v 0.077933 0.492547 -0.337477 0.450 0.200 0.450
v 0.053907 0.492547 -0.351348 0.450 0.200 0.450
v 0.026587 0.492547 -0.346531 0.450 0.200 0.450
v 0.008754 0.492547 -0.325279 0.450 0.200 0.450
v 0.008754 0.492547 -0.297536 0.450 0.200 0.450
v 0.026587 0.492547 -0.276285 0.450 0.200 0.450
v 0.053907 0.492547 -0.271467 0.450 0.200 0.450
v 0.077933 0.492547 -0.285338 0.450 0.200 0.450
v 0.112487 0.433898 -0.311408 0.450 0.200 0.450
v 0.097134 0.433898 -0.353589 0.450 0.200 0.450
v 0.058260 0.433898 -0.376033 0.450 0.200 0.450
v 0.014054 0.433898 -0.368238 0.450 0.200 0.450
v -0.014800 0.433898 -0.333852 0.450 0.200 0.450
v -0.014800 0.433898 -0.288964 0.450 0.200 0.450
v 0.014054 0.433898 -0.254577 0.450 0.200 0.450
v 0.058260 0.433898 -0.246782 0.450 0.200 0.450
v 0.097134 0.433898 -0.269227 0.450 0.200 0.450
v 0.112487 0.361403 -0.311408 0.450 0.200 0.450
v 0.097134 0.361403 -0.353589 0.450 0.200 0.450
v 0.058260 0.361403 -0.376033 0.450 0.200 0.450
v 0.014054 0.361403 -0.368238 0.450 0.200 0.450
v -0.014800 0.361403 -0.333852 0.450 0.200 0.450
v -0.014800 0.361403 -0.288964 0.450 0.200 0.450
v 0.014054 0.361403 -0.254577 0.450 0.200 0.450
v 0.058260 0.361403 -0.246782 0.450 0.200 0.450
v 0.097134 0.361403 -0.269227 0.450 0.200 0.450
v 0.087422 0.302754 -0.311408 0.450 0.200 0.450
v 0.077933 0.302754 -0.337477 0.450 0.200 0.450
v 0.053907 0.302754 -0.351348 0.450 0.200 0.450
v 0.026587 0.302754 -0.346531 0.450 0.200 0.450
v 0.008754 0.302754 -0.325279 0.450 0.200 0.450
v 0.008754 0.302754 -0.297536 0.450 0.200 0.450
v 0.026587 0.302754 -0.276285 0.450 0.200 0.450
v 0.053907 0.302754 -0.271467 0.450 0.200 0.450
v 0.077933 0.302754 -0.285338 0.450 0.200 0.450
v 0.046865 0.280352 -0.311408 0.450 0.200 0.450
v 0.046865 0.280352 -0.311408 0.450 0.200 0.450
v 0.046865 0.280352 -0.311408 0.450 0.200 0.450
v 0.046865 0.280352 -0.311408 0.450 0.200 0.450
v 0.046865 0.280352 -0.311408 0.450 0.200 0.450
v 0.046865 0.280352 -0.311408 0.450 0.200 0.450
v 0.046865 0.280352 -0.311408 0.450 0.200 0.450
v 0.046865 0.280352 -0.311408 0.450 0.200 0.450
v 0.046865 0.280352 -0.311408 0.450 0.200 0.450
f 1013 1023 1014
f 1013 1022 1023
f 1014 1024 1015
f 1014 1023 1024
f 1015 1025 1016
f 1015 1024 1025
f 1016 1026 1017
f 1016 1025 1026
f 1017 1027 1018
f 1017 1026 1027
f 1018 1028 1019
f 1018 1027 1028
f 1019 1029 1020
f 1019 1028 1029
f 1020 1030 1021
f 1020 1029 1030
f 1021 1022 1013
f 1021 1030 1022
f 1022 1032 1023
f 1022 1031 1032
f 1023 1033 1024
f 1023 1032 1033
f 1024 1034 1025
f 1024 1033 1034
f 1025 1035 1026
f 1025 1034 1035
f 1026 1036 1027
f 1026 1035 1036
f 1027 1037 1028
f 1027 1036 1037
f 1028 1038 1029
f 1028 1037 1038
f 1029 1039 1030
f 1029 1038 1039
f 1030 1031 1022
f 1030 1039 1031
f 1031 1041 1032
f 1031 1040 1041
f 1032 1042 1033
f 1032 1041 1042
f 1033 1043 1034
f 1033 1042 1043
f 1034 1044 1035
f 1034 1043 1044
f 1035 1045 1036
f 1035 1044 1045
f 1036 1046 1037
f 1036 1045 1046
f 1037 1047 1038
f 1037 1046 1047
f 1038 1048 1039
f 1038 1047 1048
f 1039 1040 1031
f 1039 1048 1040
f 1040 1050 1041
f 1040 1049 1050
f 1041 1051 1042
f 1041 1050 1051
f 1042 1052 1043
f 1042 1051 1052
f 1043 1053 1044
f 1043 1052 1053
f 1044 1054 1045
f 1044 1053 1054
f 1045 1055 1046
f 1045 1054 1055
f 1046 1056 1047
f 1046 1055 1056
f 1047 1057 1048
f 1047 1056 1057
f 1048 1049 1040
f 1048 1057 1049
f 1049 1059 1050
f 1049 1058 1059
f 1050 1060 1051
f 1050 1059 1060
f 1051 1061 1052
f 1051 1060 1061
f 1052 1062 1053
f 1052 1061 1062
f 1053 1063 1054
f 1053 1062 1063
f 1054 1064 1055
f 1054 1063 1064
f 1055 1065 1056
f 1055 1064 1065
f 1056 1066 1057
f 1056 1065 1066
f 1057 1058 1049
f 1057 1066 1058
v 0.105836 0.501149 -0.309013 0.698 0.560 0.698
v 0.112414 0.508149 -0.311408 0.698 0.560 0.698
v 0.118992 0.501149 -0.313802 0.698 0.560 0.698
v 0.112414 0.494149 -0.311408 0.698 0.560 0.698
v 0.090501 0.501149 -0.351148 0.698 0.560 0.698
v 0.097078 0.508149 -0.353542 0.698 0.560 0.698
v 0.103656 0.501149 -0.355936 0.698 0.560 0.698
v 0.097078 0.494149 -0.353542 0.698 0.560 0.698
f 1067 1068 1072
f 1067 1072 1071
f 1068 1069 1073
f 1068 1073 1072
f 1069 1070 1074
f 1069 1074 1073
f 1070 1067 1071
f 1070 1071 1074
v 0.093578 0.501149 -0.347480 0.698 0.560 0.698
v 0.097078 0.508149 -0.353542 0.698 0.560 0.698
v 0.100578 0.501149 -0.359604 0.698 0.560 0.698
v 0.097078 0.494149 -0.353542 0.698 0.560 0.698
v 0.054747 0.501149 -0.369899 0.698 0.560 0.698
v 0.058247 0.508149 -0.375961 0.698 0.560 0.698
v 0.061747 0.501149 -0.382023 0.698 0.560 0.698
v 0.058247 0.494149 -0.375961 0.698 0.560 0.698
f 1075 1076 1080
f 1075 1080 1079
f 1076 1077 1081
f 1076 1081 1080
f 1077 1078 1082
f 1077 1082 1081
f 1078 1075 1079
f 1078 1079 1082
v 0.059463 0.501149 -0.369067 0.698 0.560 0.698
v 0.058247 0.508149 -0.375961 0.698 0.560 0.698
v 0.057032 0.501149 -0.382855 0.698 0.560 0.698
v 0.058247 0.494149 -0.375961 0.698 0.560 0.698
v 0.015306 0.501149 -0.361281 0.698 0.560 0.698
v 0.014090 0.508149 -0.368175 0.698 0.560 0.698
v 0.012875 0.501149 -0.375068 0.698 0.560 0.698
v 0.014090 0.494149 -0.368175 0.698 0.560 0.698
f 1083 1084 1088
f 1083 1088 1087
f 1084 1085 1089
f 1084 1089 1088
f 1085 1086 1090
f 1085 1090 1089
f 1086 1083 1087
f 1086 1087 1090
v 0.019453 0.501149 -0.363675 0.698 0.560 0.698
v 0.014090 0.508149 -0.368175 0.698 0.560 0.698
v 0.008728 0.501149 -0.372674 0.698 0.560 0.698
v 0.014090 0.494149 -0.368175 0.698 0.560 0.698
v -0.009369 0.501149 -0.329327 0.698 0.560 0.698
v -0.014731 0.508149 -0.333827 0.698 0.560 0.698
v -0.020094 0.501149 -0.338326 0.698 0.560 0.698
v -0.014731 0.494149 -0.333827 0.698 0.560 0.698
f 1091 1092 1096
f 1091 1096 1095
f 1092 1093 1097
f 1092 1097 1096
f 1093 1094 1098
f 1093 1098 1097
f 1094 1091 1095
f 1094 1095 1098
v -0.007731 0.501149 -0.333827 0.698 0.560 0.698
v -0.014731 0.508149 -0.333827 0.698 0.560 0.698
v -0.021731 0.501149 -0.333827 0.698 0.560 0.698
v -0.014731 0.494149 -0.333827 0.698 0.560 0.698
v -0.007731 0.501149 -0.288988 0.698 0.560 0.698
v -0.014731 0.508149 -0.288988 0.698 0.560 0.698
v -0.021731 0.501149 -0.288988 0.698 0.560 0.698
v -0.014731 0.494149 -0.288988 0.698 0.560 0.698
f 1099 1100 1104
f 1099 1104 1103
f 1100 1101 1105
f 1100 1105 1104
f 1101 1102 1106
f 1101 1106 1105
f 1102 1099 1103
f 1102 1103 1106
v -0.009369 0.501149 -0.293488 0.698 0.560 0.698
v -0.014731 0.508149 -0.288988 0.698 0.560 0.698
v -0.020094 0.501149 -0.284489 0.698 0.560 0.698
v -0.014731 0.494149 -0.288988 0.698 0.560 0.698
v 0.019453 0.501149 -0.259140 0.698 0.560 0.698
v 0.014090 0.508149 -0.254640 0.698 0.560 0.698
v 0.008728 0.501149 -0.250141 0.698 0.560 0.698
v 0.014090 0.494149 -0.254640 0.698 0.560 0.698
f 1107 1108 1112
f 1107 1112 1111
f 1108 1109 1113
f 1108 1113 1112
f 1109 1110 1114
f 1109 1114 1113
f 1110 1107 1111
f 1110 1111 1114
v 0.015306 0.501149 -0.261534 0.698 0.560 0.698
v 0.014090 0.508149 -0.254640 0.698 0.560 0.698
v 0.012875 0.501149 -0.247747 0.698 0.560 0.698
v 0.014090 0.494149 -0.254640 0.698 0.560 0.698
v 0.059463 0.501149 -0.253748 0.698 0.560 0.698
v 0.058247 0.508149 -0.246854 0.698 0.560 0.698
v 0.057032 0.501149 -0.239961 0.698 0.560 0.698
v 0.058247 0.494149 -0.246854 0.698 0.560 0.698
f 1115 1116 1120
f 1115 1120 1119
f 1116 1117 1121
f 1116 1121 1120
f 1117 1118 1122
f 1117 1122 1121
f 1118 1115 1119
f 1118 1119 1122
v 0.054747 0.501149 -0.252916 0.698 0.560 0.698
v 0.058247 0.508149 -0.246854 0.698 0.560 0.698
v 0.061747 0.501149 -0.240792 0.698 0.560 0.698
v 0.058247 0.494149 -0.246854 0.698 0.560 0.698
v 0.093578 0.501149 -0.275336 0.698 0.560 0.698
v 0.097078 0.508149 -0.269273 0.698 0.560 0.698
v 0.100578 0.501149 -0.263211 0.698 0.560 0.698
v 0.097078 0.494149 -0.269273 0.698 0.560 0.698
f 1123 1124 1128
f 1123 1128 1127
f 1124 1125 1129
f 1124 1129 1128
f 1125 1126 1130
f 1125 1130 1129
f 1126 1123 1127
f 1126 1127 1130
v 0.090501 0.501149 -0.271668 0.698 0.560 0.698
v 0.097078 0.508149 -0.269273 0.698 0.560 0.698
v 0.103656 0.501149 -0.266879 0.698 0.560 0.698
v 0.097078 0.494149 -0.269273 0.698 0.560 0.698
v 0.105836 0.501149 -0.313802 0.698 0.560 0.698
v 0.112414 0.508149 -0.311408 0.698 0.560 0.698
v 0.118992 0.501149 -0.309013 0.698 0.560 0.698
v 0.112414 0.494149 -0.311408 0.698 0.560 0.698
f 1131 1132 1136
f 1131 1136 1135
f 1132 1133 1137
f 1132 1137 1136
f 1133 1134 1138
f 1133 1138 1137
f 1134 1131 1135
f 1134 1135 1138
v 0.045621 0.501149 -0.352788 0.338 0.150 0.338
v 0.046315 0.496199 -0.370547 0.338 0.150 0.338
v 0.047272 0.491249 -0.379573 0.338 0.150 0.338
v 0.048287 0.486299 -0.386648 0.338 0.150 0.338
v 0.049339 0.481349 -0.392514 0.338 0.150 0.338
v 0.050418 0.476399 -0.397448 0.338 0.150 0.338
v 0.051522 0.471449 -0.401579 0.338 0.150 0.338
v 0.052648 0.466499 -0.404973 0.338 0.150 0.338
v 0.053795 0.461549 -0.407669 0.338 0.150 0.338
v 0.054962 0.456599 -0.409688 0.338 0.150 0.338
v 0.056150 0.451649 -0.411041 0.338 0.150 0.338
v 0.057357 0.446699 -0.411735 0.338 0.150 0.338
v 0.058584 0.441749 -0.411772 0.338 0.150 0.338
v 0.059830 0.436799 -0.411152 0.338 0.150 0.338
v 0.061096 0.431849 -0.409872 0.338 0.150 0.338
v 0.062383 0.426899 -0.407927 0.338 0.150 0.338
v 0.063690 0.421949 -0.405305 0.338 0.150 0.338
v 0.065017 0.416999 -0.401984 0.338 0.150 0.338
v 0.066367 0.412049 -0.397928 0.338 0.150 0.338
v 0.067741 0.407099 -0.393068 0.338 0.150 0.338
v 0.069143 0.402148 -0.387275 0.338 0.150 0.338
v 0.070582 0.397198 -0.380274 0.338 0.150 0.338
v 0.072079 0.392248 -0.371321 0.338 0.150 0.338
v 0.073838 0.387298 -0.353636 0.338 0.150 0.338
v 0.073144 0.392248 -0.335878 0.338 0.150 0.338
v 0.072187 0.397198 -0.326852 0.338 0.150 0.338
v 0.071172 0.402148 -0.319777 0.338 0.150 0.338
v 0.070121 0.407099 -0.313910 0.338 0.150 0.338
v 0.069041 0.412049 -0.308977 0.338 0.150 0.338
v 0.067937 0.416999 -0.304846 0.338 0.150 0.338
v 0.066811 0.421949 -0.301452 0.338 0.150 0.338
v 0.065664 0.426899 -0.298756 0.338 0.150 0.338
v 0.064497 0.431849 -0.296737 0.338 0.150 0.338
v 0.063310 0.436799 -0.295384 0.338 0.150 0.338
v 0.062103 0.441749 -0.294690 0.338 0.150 0.338
v 0.060876 0.446699 -0.294653 0.338 0.150 0.338
v 0.059629 0.451649 -0.295273 0.338 0.150 0.338
v 0.058363 0.456599 -0.296552 0.338 0.150 0.338
v 0.057076 0.461549 -0.298497 0.338 0.150 0.338
v 0.055770 0.466499 -0.301120 0.338 0.150 0.338
v 0.054442 0.471449 -0.304441 0.338 0.150 0.338
v 0.053092 0.476399 -0.308497 0.338 0.150 0.338
v 0.051718 0.481349 -0.313357 0.338 0.150 0.338
v 0.050316 0.486299 -0.319150 0.338 0.150 0.338
v 0.048878 0.491249 -0.326151 0.338 0.150 0.338
v 0.047381 0.496199 -0.335103 0.338 0.150 0.338
f 1139 1140 1141
f 1139 1141 1140
f 1139 1141 1142
f 1139 1142 1141
f 1139 1142 1143
f 1139 1143 1142
f 1139 1143 1144
f 1139 1144 1143
f 1139 1144 1145
f 1139 1145 1144
f 1139 1145 1146
f 1139 1146 1145
f 1139 1146 1147
f 1139 1147 1146
f 1139 1147 1148
f 1139 1148 1147
f 1139 1148 1149
f 1139 1149 1148
f 1139 1149 1150
f 1139 1150 1149
f 1139 1150 1151
f 1139 1151 1150
f 1139 1151 1152
f 1139 1152 1151
f 1139 1152 1153
f 1139 1153 1152
f 1139 1153 1154
f 1139 1154 1153
f 1139 1154 1155
f 1139 1155 1154
f 1139 1155 1156
f 1139 1156 1155
f 1139 1156 1157
f 1139 1157 1156
f 1139 1157 1158
f 1139 1158 1157
f 1139 1158 1159
f 1139 1159 1158
f 1139 1159 1160
f 1139 1160 1159
f 1139 1160 1161
f 1139 1161 1160
f 1139 1161 1162
f 1139 1162 1161
f 1139 1162 1163
f 1139 1163 1162
f 1139 1163 1164
f 1139 1164 1163
f 1139 1164 1165
f 1139 1165 1164
f 1139 1165 1166
f 1139 1166 1165
f 1139 1166 1167
f 1139 1167 1166
f 1139 1167 1168
f 1139 1168 1167
f 1139 1168 1169
f 1139 1169 1168
f 1139 1169 1170
f 1139 1170 1169
f 1139 1170 1171
f 1139 1171 1170
f 1139 1171 1172
f 1139 1172 1171
f 1139 1172 1173
f 1139 1173 1172
f 1139 1173 1174
f 1139 1174 1173
f 1139 1174 1175
f 1139 1175 1174
f 1139 1175 1176
f 1139 1176 1175
f 1139 1176 1177
f 1139 1177 1176
f 1139 1177 1178
f 1139 1178 1177
f 1139 1178 1179
f 1139 1179 1178
f 1139 1179 1180
f 1139 1180 1179
f 1139 1180 1181
f 1139 1181 1180
f 1139 1181 1182
f 1139 1182 1181
f 1139 1182 1183
f 1139 1183 1182
f 1139 1183 1184
f 1139 1184 1183
