o mesh
v 1.993027 2.594809 -0.021379
v 2.010813 2.609234 0.009078
v 1.975241 2.595957 0.012301
v 2.144847 2.210705 0.071884
v 2.162632 2.225130 0.102340
v 2.127061 2.211853 0.105564
f 1 2 5
f 1 5 4
f 2 3 6
f 2 6 5
f 3 1 4
f 3 4 6
v 2.144847 2.222995 0.072440
v 2.163881 2.213122 0.103939
v 2.125812 2.211571 0.103410
v 2.169164 1.688442 -0.109804
v 2.188199 1.678569 -0.078305
v 2.150130 1.677018 -0.078834
f 7 8 11
f 7 11 10
f 8 9 12
f 8 12 11
f 9 7 10
f 9 10 12
v 2.147650 1.681343 -0.093580
v 2.183432 1.690339 -0.103106
v 2.176411 1.672348 -0.070258
v 2.187552 1.324920 -0.280260
v 2.223334 1.333915 -0.289786
v 2.216313 1.315925 -0.256938
f 13 14 17
f 13 17 16
f 14 15 18
f 14 18 17
f 15 13 16
f 15 16 18
v 2.209066 1.329300 -0.297221
v 2.227395 1.327827 -0.263846
v 2.190737 1.317633 -0.265917
v 2.341443 0.872131 -0.390107
v 2.359771 0.870658 -0.356732
v 2.323114 0.860464 -0.358803
f 19 20 23
f 19 23 22
f 20 21 24
f 20 24 23
f 21 19 22
f 21 22 24
v 2.341443 0.869700 -0.390461
v 2.360473 0.865863 -0.357672
v 2.322412 0.867689 -0.357510
v 2.325667 0.543359 -0.419490
v 2.344697 0.539522 -0.386700
v 2.306636 0.541348 -0.386538
f 25 26 29
f 25 29 28
f 26 27 30
f 26 30 29
f 27 25 28
f 27 28 30
v 2.337174 0.541409 -0.416327
v 2.334522 0.549729 -0.379235
v 2.305304 0.533090 -0.397166
v 2.471131 0.217588 -0.334117
v 2.468479 0.225907 -0.297026
v 2.439261 0.209269 -0.314956
f 31 32 35
f 31 35 34
f 32 33 36
f 32 36 35
f 33 31 34
f 33 34 36
v 1.860268 3.179651 0.011174
v 1.823393 3.188942 0.008741
v 1.840290 3.170360 -0.019915
v 1.758985 2.822651 0.182944
v 1.722110 2.831942 0.180511
v 1.739008 2.813360 0.151854
f 37 38 41
f 37 41 40
f 38 39 42
f 38 42 41
f 39 37 40
f 39 40 42
v 1.731511 2.822651 0.180216
v 1.741507 2.832258 0.164731
v 1.747086 2.813044 0.170362
v 1.318224 2.580434 -0.236839
v 1.328220 2.590041 -0.252324
v 1.333800 2.570827 -0.246694
f 43 44 47
f 43 47 46
f 44 45 48
f 44 48 47
f 45 43 46
f 45 46 48
v 1.733265 2.822651 0.192702
v 1.727863 2.832433 0.156273
v 1.758976 2.812870 0.166334
v 1.547173 2.495749 0.132523
v 1.541771 2.505531 0.096093
v 1.572884 2.485968 0.106155
f 49 50 53
f 49 53 52
f 50 51 54
f 50 54 53
f 51 49 52
f 51 52 54
v 1.552017 2.495749 0.099746
v 1.555733 2.506108 0.117378
v 1.554078 2.485391 0.117647
v 1.867639 2.469880 0.048433
v 1.871355 2.480239 0.066066
v 1.869701 2.459522 0.066335
f 55 56 59
f 55 59 58
f 56 57 60
f 56 60 59
f 57 55 58
f 57 58 60
v 1.553943 2.497054 0.089629
v 1.572071 2.500949 0.122919
v 1.535814 2.489246 0.122223
v 1.719469 1.986045 0.059268
v 1.737598 1.989939 0.092558
v 1.701341 1.978236 0.091862
f 61 62 65
f 61 65 64
f 62 63 66
f 62 66 65
f 63 61 64
f 63 64 66
v 1.709953 1.984740 0.061394
v 1.739008 1.994449 0.084056
v 1.709447 1.975032 0.098238
v 1.877057 1.671782 -0.018777
v 1.906112 1.681490 0.003884
v 1.876551 1.662073 0.018067
f 67 68 71
f 67 71 70
f 68 69 72
f 68 72 71
f 69 67 70
f 69 70 72
v 1.886573 1.678755 -0.019808
v 1.905304 1.664990 0.010386
v 1.867842 1.671601 0.012595
v 1.804505 1.260383 -0.159618
v 1.823236 1.246619 -0.129424
v 1.785774 1.253229 -0.127215
f 73 74 77
f 73 77 76
f 74 75 78
f 74 78 77
f 75 73 76
f 75 76 78
v 1.804505 1.255504 -0.160653
v 1.823387 1.249837 -0.128044
v 1.785622 1.254891 -0.127561
v 1.751050 0.859761 -0.198475
v 1.769933 0.854094 -0.165866
v 1.732168 0.859149 -0.165383
f 79 80 83
f 79 83 82
f 80 81 84
f 80 84 83
f 81 79 82
f 81 82 84
v 1.767374 0.857668 -0.161826
v 1.731632 0.866673 -0.171490
v 1.754144 0.848663 -0.196407
v 1.628612 0.471728 -0.008239
v 1.592870 0.480733 -0.017903
v 1.615382 0.462723 -0.042820
f 85 86 89
f 85 89 88
f 86 87 90
f 86 90 89
f 87 85 88
f 87 88 90
v 1.621110 0.471728 -0.031122
v 1.608449 0.482086 -0.018300
v 1.607304 0.461370 -0.019541
v 1.918050 0.436018 0.290952
v 1.905388 0.446376 0.303773
v 1.904243 0.425661 0.302532
f 91 92 95
f 91 95 94
f 92 93 96
f 92 96 95
f 93 91 94
f 93 94 96
v 1.592152 0.471728 -0.014126
v 1.616044 0.482566 -0.041761
v 1.628668 0.460891 -0.013076
v 1.516451 0.200000 -0.186131
v 1.540343 0.210837 -0.213766
v 1.552968 0.189163 -0.185082
f 97 98 101
f 97 101 100
f 98 99 102
f 98 102 101
f 99 97 100
f 99 100 102
v -1.841317 3.178161 -0.021949
v -1.822457 3.183095 0.010792
v -1.860176 3.177696 0.011158
v -1.762554 2.630443 0.015228
v -1.743694 2.635377 0.047969
v -1.781413 2.629978 0.048336
f 103 104 107
f 103 107 106
f 104 105 108
f 104 108 107
f 105 103 106
f 105 106 108
v -1.771603 2.631932 0.045059
v -1.761264 2.641083 0.029523
v -1.754794 2.622782 0.036952
v -1.918572 2.511473 -0.123702
v -1.908233 2.520624 -0.139238
v -1.901763 2.502322 -0.131809
f 109 110 113
f 109 113 112
f 110 111 114
f 110 114 113
f 111 109 112
f 111 112 114
v -1.762554 2.628043 0.015525
v -1.744569 2.640068 0.046893
v -1.780538 2.627687 0.049117
v -1.570722 2.088179 0.112503
v -1.552738 2.100205 0.143871
v -1.588707 2.087823 0.146095
f 115 116 119
f 115 119 118
f 116 117 120
f 116 120 119
f 117 115 118
f 117 118 120
v -1.570722 2.098654 0.113165
v -1.551962 2.091948 0.145646
v -1.589483 2.085606 0.143657
v -1.485913 1.641781 -0.030142
v -1.467153 1.635075 0.002340
v -1.504674 1.628734 0.000351
f 121 122 125
f 121 125 124
f 122 123 126
f 122 126 125
f 123 121 124
f 123 124 126
v -1.485913 1.641810 -0.030133
v -1.467193 1.635269 0.002406
v -1.504633 1.628511 0.000276
v -1.414295 1.280883 -0.143886
v -1.395575 1.274342 -0.111347
v -1.433015 1.267584 -0.113477
f 127 128 131
f 127 131 130
f 128 129 132
f 128 132 131
f 129 127 130
f 129 130 132
v -1.425136 1.274270 -0.128048
v -1.406103 1.282406 -0.126172
v -1.411646 1.266133 -0.114491
v -1.307333 1.055942 -0.376307
v -1.288300 1.064079 -0.374431
v -1.293843 1.047806 -0.362750
f 133 134 137
f 133 137 136
f 134 135 138
f 134 138 137
f 135 133 136
f 135 136 138
v -1.406879 1.274270 -0.143616
v -1.402865 1.284490 -0.107127
v -1.433141 1.264049 -0.117967
v -1.226254 0.972435 -0.078947
v -1.222240 0.982655 -0.042458
v -1.252516 0.962215 -0.053298
f 139 140 143
f 139 143 142
f 140 141 144
f 140 144 143
f 141 139 142
f 141 142 144
v -1.222161 0.972435 -0.054836
v -1.239689 0.982785 -0.059037
v -1.239160 0.962085 -0.060830
v -1.344093 0.933565 0.358071
v -1.361620 0.943915 0.353870
v -1.361091 0.923215 0.352077
f 145 146 149
f 145 149 148
f 146 147 150
f 146 150 149
f 147 145 148
f 147 148 150
v -1.241965 0.972435 -0.037858
v -1.244453 0.982591 -0.074500
v -1.214592 0.962279 -0.062344
v -1.426754 0.655737 -0.113083
v -1.429242 0.665893 -0.149726
v -1.399381 0.645582 -0.137570
f 151 152 155
f 151 155 154
f 152 153 156
f 152 156 155
f 153 151 154
f 153 154 156
v -1.418459 0.655261 -0.155454
v -1.399493 0.654166 -0.122423
v -1.437425 0.657786 -0.122501
v -1.461975 0.199523 -0.145578
v -1.443008 0.198428 -0.112546
v -1.480941 0.202048 -0.112625
f 157 158 161
f 157 161 160
f 158 159 162
f 158 162 161
f 159 157 160
f 159 160 162
v 1.409283 3.665921 -0.021393
v 1.427631 3.668631 0.011894
v 1.390935 3.678613 0.009499
v 1.287905 3.244013 0.079853
v 1.306253 3.246723 0.113140
v 1.269557 3.256705 0.110744
f 163 164 167
f 163 167 166
f 164 165 168
f 164 168 167
f 165 163 166
f 165 166 168
v 1.287905 3.253578 0.079696
v 1.306350 3.242255 0.111059
v 1.269461 3.251608 0.112982
v 1.143040 2.705436 -0.033008
v 1.161484 2.694113 -0.001646
v 1.124595 2.703467 0.000277
f 169 170 173
f 169 173 172
f 170 171 174
f 170 174 173
f 171 169 172
f 171 172 174
v 1.147601 2.701006 -0.000360
v 1.136398 2.710267 -0.015216
v 1.145120 2.691744 -0.018801
v 0.761039 2.488231 0.158511
v 0.749835 2.497492 0.143654
v 0.758557 2.478970 0.140070
f 175 176 179
f 175 179 178
f 176 177 180
f 176 180 179
f 177 175 178
f 177 178 180
v 1.143040 2.696438 -0.032980
v 1.161812 2.706473 -0.001375
v 1.124267 2.700105 -0.000023
v 1.232468 2.191920 0.074104
v 1.251240 2.201956 0.105709
v 1.213695 2.195588 0.107060
f 181 182 185
f 181 185 184
f 182 183 186
f 182 186 185
f 183 181 184
f 183 184 186
v 1.221363 2.196488 0.091076
v 1.239421 2.206201 0.094478
v 1.236619 2.186775 0.101318
v 1.409095 2.008012 -0.367301
v 1.427153 2.017725 -0.363899
v 1.424351 1.998299 -0.357059
f 187 188 191
f 187 191 190
f 188 189 192
f 188 192 191
f 189 187 190
f 189 190 192
v 1.232468 2.203139 0.074654
v 1.251510 2.192572 0.105922
v 1.213425 2.193753 0.106297
v 1.214162 1.666614 -0.095523
v 1.233205 1.656047 -0.064255
v 1.195120 1.657227 -0.063880
f 193 194 197
f 193 197 196
f 194 195 198
f 194 198 197
f 195 193 196
f 195 196 198
v 1.222503 1.659963 -0.083180
v 1.211371 1.670176 -0.068906
v 1.208613 1.649749 -0.071572
v 1.687657 1.538468 0.366519
v 1.676525 1.548681 0.380793
v 1.673767 1.528254 0.378127
f 199 200 203
f 199 203 202
f 200 201 204
f 200 204 203
f 201 199 202
f 201 202 204
v 1.993027 2.605356 -0.021338
v 2.011382 2.592368 0.009426
v 1.974672 2.602275 0.011912
v 1.844189 2.086518 -0.151574
v 1.862544 2.073530 -0.120810
v 1.825834 2.083437 -0.118323
f 205 206 209
f 205 209 208
f 206 207 210
f 206 210 209
f 207 205 208
f 207 208 210
v 1.844189 2.089126 -0.150744
v 1.862838 2.080818 -0.118569
v 1.825541 2.073542 -0.121395
v 1.953510 1.602176 -0.339855
v 1.972159 1.593867 -0.307680
v 1.934861 1.586591 -0.310506
f 211 212 215
f 211 215 214
f 212 213 216
f 212 216 215
f 213 211 214
f 213 214 216
v 1.953510 1.590194 -0.340977
v 1.972556 1.595719 -0.308439
v 1.934464 1.596721 -0.308625
v 1.939323 1.068708 -0.244132
v 1.958369 1.074233 -0.211594
v 1.920277 1.075235 -0.211780
f 217 218 221
f 217 221 220
f 218 219 222
f 218 222 221
f 219 217 220
f 219 220 222
v 1.939323 1.076703 -0.244140
v 1.958347 1.069708 -0.211872
v 1.920299 1.071765 -0.211494
v 1.917102 0.678980 -0.317250
v 1.936126 0.671986 -0.284982
v 1.898078 0.674042 -0.284604
f 223 224 227
f 223 227 226
f 224 225 228
f 224 228 227
f 225 223 226
f 225 226 228
v 1.905637 0.675003 -0.299154
v 1.923946 0.684690 -0.297437
v 1.921724 0.665316 -0.290246
v 2.012631 0.534174 -0.645540
v 2.030940 0.543861 -0.643823
v 2.028719 0.524487 -0.636632
f 229 230 233
f 229 233 232
f 230 231 234
f 230 234 233
f 231 229 232
f 231 232 234
v 1.917102 0.679331 -0.317182
v 1.936135 0.671980 -0.284999
v 1.898070 0.673697 -0.284655
v 1.896352 0.236919 -0.405950
v 1.915384 0.229569 -0.373767
v 1.877319 0.231285 -0.373423
f 235 236 239
f 235 239 238
f 236 237 240
f 236 240 239
f 237 235 238
f 237 238 240
v 1.884858 0.232591 -0.387831
v 1.902502 0.242888 -0.384000
v 1.901695 0.222294 -0.381311
v 1.978155 0.188357 -0.698615
v 1.995799 0.198654 -0.694784
v 1.994992 0.178060 -0.692095
f 241 242 245
f 241 245 244
f 242 243 246
f 242 246 245
f 243 241 244
f 243 244 246
v 1.982675 2.600000 -0.019412
v 2.013271 2.608449 0.001671
v 1.983135 2.591551 0.017741
v 2.119653 2.286233 -0.092457
v 2.150249 2.294681 -0.071374
v 2.120112 2.277784 -0.055303
f 247 248 251
f 247 251 250
f 248 249 252
f 248 252 251
f 249 247 250
f 249 250 252
v 2.152002 2.286233 -0.072722
v 2.118759 2.295079 -0.056333
v 2.119253 2.277387 -0.090078
v 2.149549 1.966615 0.094808
v 2.116306 1.975461 0.111197
v 2.116800 1.957770 0.077452
f 253 254 257
f 253 257 256
f 254 255 258
f 254 258 257
f 255 253 256
f 255 256 258
v 2.127551 1.972018 0.073159
v 2.146106 1.968109 0.106211
v 2.108997 1.959719 0.104086
v 2.225184 1.566217 -0.029641
v 2.243738 1.562308 0.003411
v 2.206629 1.553918 0.001286
f 259 260 263
f 259 263 262
f 260 261 264
f 260 264 263
f 261 259 262
f 261 262 264
v 2.240432 1.560815 0.007543
v 2.206193 1.571507 -0.005314
v 2.228926 1.550122 -0.027174
v 2.074696 1.221736 0.166907
v 2.040456 1.232429 0.154050
v 2.063190 1.211044 0.132190
f 265 266 269
f 265 269 268
f 266 267 270
f 266 270 269
f 267 265 268
f 267 268 270
v 2.062882 1.221736 0.139551
v 2.063712 1.230044 0.158585
v 2.051748 1.213428 0.155011
v 2.348535 0.997703 0.224878
v 2.349365 1.006011 0.243912
v 2.337401 0.989395 0.240338
f 271 272 275
f 271 275 274
f 272 273 276
f 272 276 275
f 273 271 274
f 273 274 276
v 2.059448 1.220033 0.129115
v 2.078320 1.225197 0.161813
v 2.040576 1.219979 0.162219
v 2.126400 0.738658 0.166498
v 2.145272 0.743822 0.199196
v 2.107528 0.738604 0.199601
f 277 278 281
f 277 281 280
f 278 279 282
f 278 282 281
f 279 277 280
f 279 280 282
v 2.126400 0.747350 0.167571
v 2.145168 0.733758 0.197820
v 2.107632 0.739977 0.199904
v 2.026840 0.206988 -0.013451
v 2.045608 0.193397 0.016799
v 2.008071 0.199615 0.018882
f 283 284 287
f 283 287 286
f 284 285 288
f 284 288 287
f 285 283 286
f 285 286 288
