o mesh
v 19.272490 2.598213 -3.614067
v 19.290562 2.594879 -3.580686
v 19.254418 2.606909 -3.581667
v 19.127611 2.165807 -3.578827
v 19.145682 2.162473 -3.545446
v 19.109539 2.174503 -3.546426
f 1 2 5
f 1 5 4
f 2 3 6
f 2 6 5
f 3 1 4
f 3 4 6
v 19.127611 2.159499 -3.577356
v 19.146663 2.171692 -3.546691
v 19.108558 2.171593 -3.546652
v 19.128875 1.735302 -3.409470
v 19.147928 1.747495 -3.378805
v 19.109823 1.747396 -3.378766
f 7 8 11
f 7 11 10
f 8 9 12
f 8 12 11
f 9 7 10
f 9 10 12
v 19.128875 1.734200 -3.408999
v 19.147908 1.747199 -3.378654
v 19.109843 1.748794 -3.379389
v 19.108263 1.328412 -3.222235
v 19.127296 1.341411 -3.191891
v 19.089231 1.343007 -3.192625
f 13 14 17
f 13 17 16
f 14 15 18
f 14 18 17
f 15 13 16
f 15 16 18
v 19.123029 1.337610 -3.218559
v 19.113247 1.346815 -3.182900
v 19.088515 1.328405 -3.205292
v 19.321515 0.852389 -3.038857
v 19.311733 0.861594 -3.003198
v 19.287001 0.843184 -3.025589
f 19 20 23
f 19 23 22
f 20 21 24
f 20 24 23
f 21 19 22
f 21 22 24
v 19.315190 0.852389 -3.031078
v 19.305447 0.861937 -3.015397
v 19.299613 0.842841 -3.021169
v 19.719666 0.607821 -2.630883
v 19.709923 0.617368 -2.615202
v 19.704089 0.598273 -2.620974
f 25 26 29
f 25 29 28
f 26 27 30
f 26 30 29
f 27 25 28
f 27 28 30
v 19.284799 0.852389 -3.021073
v 19.316609 0.861660 -3.039893
v 19.318841 0.843118 -3.006679
v 19.271599 0.498969 -3.217492
v 19.303408 0.508241 -3.236311
v 19.305641 0.489698 -3.203097
f 31 32 35
f 31 35 34
f 32 33 36
f 32 36 35
f 33 31 34
f 33 34 36
v 19.293549 0.492940 -3.240124
v 19.312312 0.498802 -3.207481
v 19.274786 0.505166 -3.209295
v 19.238736 0.193971 -3.154929
v 19.257499 0.199833 -3.122285
v 19.219973 0.206196 -3.124099
f 37 38 41
f 37 41 40
f 38 39 42
f 38 42 41
f 39 37 40
f 39 40 42
v -2.705358 7.516196 -2.700785
v -2.687302 7.531405 -2.670874
v -2.723414 7.519745 -2.667417
v -2.518254 6.983533 -2.542883
v -2.500197 6.998743 -2.512972
v -2.536310 6.987082 -2.509515
f 43 44 47
f 43 47 46
f 44 45 48
f 44 48 47
f 45 43 46
f 45 46 48
v -2.518254 6.987360 -2.543656
v -2.500060 6.985376 -2.510233
v -2.536447 6.996622 -2.511481
v -2.658152 6.540212 -2.494043
v -2.639959 6.538228 -2.460621
v -2.676346 6.549474 -2.461868
f 49 50 53
f 49 53 52
f 50 51 54
f 50 54 53
f 51 49 52
f 51 52 54
v -2.658152 6.542785 -2.494177
v -2.639126 6.543553 -2.461171
v -2.677179 6.541577 -2.461184
v -2.631137 6.022524 -2.497651
v -2.612110 6.023292 -2.464645
v -2.650164 6.021316 -2.464658
f 55 56 59
f 55 59 58
f 56 57 60
f 56 60 59
f 57 55 58
f 57 58 60
v -2.631137 6.019743 -2.497493
v -2.612171 6.021889 -2.464512
v -2.650102 6.025500 -2.464948
v -2.677388 5.540882 -2.439741
v -2.658422 5.543028 -2.406760
v -2.696353 5.546639 -2.407196
f 61 62 65
f 61 65 64
f 62 63 66
f 62 66 65
f 63 61 64
f 63 64 66
v -2.665602 5.543516 -2.415641
v -2.684363 5.552170 -2.413376
v -2.682198 5.534862 -2.424679
v -2.717611 5.359697 -2.144108
v -2.736372 5.368351 -2.141843
v -2.734207 5.351043 -2.153145
f 67 68 71
f 67 71 70
f 68 69 72
f 68 72 71
f 69 67 70
f 69 70 72
v -2.677388 5.549296 -2.439126
v -2.658377 5.539408 -2.407617
v -2.696398 5.541844 -2.406954
v -2.712096 5.045012 -2.576438
v -2.693085 5.035124 -2.544929
v -2.731107 5.037560 -2.544265
f 73 74 77
f 73 77 76
f 74 75 78
f 74 78 77
f 75 73 76
f 75 76 78
v -2.717277 5.039232 -2.566035
v -2.706882 5.049209 -2.551055
v -2.712129 5.029255 -2.548543
v -2.436056 4.948340 -2.700644
v -2.425661 4.958317 -2.685664
v -2.430909 4.938363 -2.683152
f 79 80 83
f 79 83 82
f 80 81 84
f 80 84 83
f 81 79 82
f 81 82 84
v -2.712096 5.047187 -2.575722
v -2.693067 5.034371 -2.545298
v -2.731125 5.036137 -2.544613
v -2.738839 4.546266 -2.770003
v -2.719810 4.533450 -2.739579
v -2.757868 4.535216 -2.738894
f 85 86 89
f 85 89 88
f 86 87 90
f 86 90 89
f 87 85 88
f 87 88 90
v -2.738839 4.531712 -2.770479
v -2.719812 4.540668 -2.738702
v -2.757865 4.542552 -2.739295
v -2.768768 3.981835 -2.597598
v -2.749741 3.990790 -2.565821
v -2.787795 3.992675 -2.566414
f 91 92 95
f 91 95 94
f 92 93 96
f 92 96 95
f 93 91 94
f 93 94 96
v -2.780470 3.988433 -2.579270
v -2.762063 3.998084 -2.579042
v -2.763772 3.978783 -2.571521
v -2.717017 3.874021 -2.858479
v -2.698610 3.883671 -2.858250
v -2.700320 3.864370 -2.850730
f 97 98 101
f 97 101 100
f 98 99 102
f 98 102 101
f 99 97 100
f 99 100 102
v -2.768768 3.989444 -2.598588
v -2.751112 3.980776 -2.565952
v -2.786424 3.995080 -2.565294
v -2.899252 3.668001 -2.613367
v -2.881596 3.659333 -2.580731
v -2.916908 3.673637 -2.580073
f 103 104 107
f 103 107 106
f 104 105 108
f 104 108 107
f 105 103 106
f 105 106 108
v -2.899252 3.659837 -2.612195
v -2.880204 3.670985 -2.581132
v -2.918299 3.670149 -2.580844
v -2.889993 3.282417 -2.482424
v -2.870945 3.293565 -2.451361
v -2.909040 3.292729 -2.451074
f 109 110 113
f 109 113 112
f 110 111 114
f 110 114 113
f 111 109 112
f 111 112 114
v -2.901169 3.289571 -2.457251
v -2.886370 3.298450 -2.468833
v -2.882439 3.280691 -2.458775
v -3.027898 3.077889 -2.781471
v -3.013099 3.086768 -2.793053
v -3.009168 3.069009 -2.782995
f 115 116 119
f 115 119 118
f 116 117 120
f 116 120 119
f 117 115 118
f 117 118 120
v -10.830214 4.161106 -6.557972
v -10.811472 4.150059 -6.526687
v -10.848955 4.156727 -6.525084
v -10.924775 3.658592 -6.678760
v -10.906034 3.647545 -6.647476
v -10.943517 3.654213 -6.645873
f 121 122 125
f 121 125 124
f 122 123 126
f 122 126 125
f 123 121 124
f 123 124 126
v -10.924775 3.657320 -6.679027
v -10.906371 3.656368 -6.645674
v -10.943179 3.646662 -6.647408
v -10.778633 3.120222 -6.774997
v -10.760229 3.119270 -6.741645
v -10.797036 3.109565 -6.743379
f 127 128 131
f 127 131 130
f 128 129 132
f 128 132 131
f 129 127 130
f 129 130 132
v -10.778633 3.116730 -6.775337
v -10.759658 3.117887 -6.742313
v -10.797607 3.114440 -6.742372
v -10.732087 2.604464 -6.784128
v -10.713112 2.605621 -6.751103
v -10.751061 2.602174 -6.751162
f 133 134 137
f 133 137 136
f 134 135 138
f 134 138 137
f 135 133 136
f 135 136 138
v -10.751516 2.604087 -6.772451
v -10.714460 2.612948 -6.771866
v -10.730284 2.595225 -6.742076
v -10.656069 2.216834 -6.952146
v -10.619013 2.225696 -6.951562
v -10.634837 2.207972 -6.921771
f 139 140 143
f 139 143 142
f 140 141 144
f 140 144 143
f 141 139 142
f 141 142 144
v -10.627910 2.216834 -6.933592
v -10.642080 2.227107 -6.944803
v -10.639929 2.206560 -6.947083
v -10.995573 2.135085 -6.543824
v -11.009743 2.145359 -6.555035
v -11.007592 2.124812 -6.557315
f 145 146 149
f 145 149 148
f 146 147 150
f 146 150 149
f 147 145 148
f 147 148 150
v -10.636640 2.222895 -6.962975
v -10.617675 2.212044 -6.931756
v -10.655604 2.215563 -6.930748
v -10.679422 1.796764 -7.085108
v -10.660458 1.785913 -7.053890
v -10.698387 1.789432 -7.052881
f 151 152 155
f 151 155 154
f 152 153 156
f 152 156 155
f 153 151 154
f 153 154 156
v -10.679422 1.792852 -7.085854
v -10.661108 1.794855 -7.052499
v -10.697737 1.784402 -7.053525
v -10.583705 1.460647 -7.118458
v -10.565390 1.462651 -7.085103
v -10.602019 1.452198 -7.086129
f 157 158 161
f 157 161 160
f 158 159 162
f 158 162 161
f 159 157 160
f 159 160 162
v -10.583705 1.459015 -7.118557
v -10.564839 1.455581 -7.085629
v -10.602571 1.460900 -7.085504
v -10.657204 0.938006 -7.130786
v -10.638338 0.934571 -7.097858
v -10.676070 0.939891 -7.097733
f 163 164 167
f 163 167 166
f 164 165 168
f 164 168 167
f 165 163 166
f 165 166 168
v -10.672811 0.937489 -7.124298
v -10.637658 0.946732 -7.112859
v -10.661142 0.928247 -7.089220
v -10.485580 0.458622 -7.312764
v -10.450427 0.467865 -7.301326
v -10.473911 0.449380 -7.277687
f 169 170 173
f 169 173 172
f 170 171 174
f 170 174 173
f 171 169 172
f 171 172 174
v -10.483215 0.458622 -7.314827
v -10.451936 0.471219 -7.297080
v -10.474765 0.446026 -7.279871
v -10.301225 0.200000 -7.452014
v -10.269946 0.212597 -7.434267
v -10.292775 0.187403 -7.417058
f 175 176 179
f 175 179 178
f 176 177 180
f 176 180 179
f 177 175 178
f 177 178 180
v 9.935947 4.052855 6.870358
v 9.954936 4.047443 6.902949
v 9.916958 4.044397 6.902294
v 9.971032 3.634690 6.780474
v 9.990021 3.629278 6.813064
v 9.952044 3.626232 6.812409
f 181 182 185
f 181 185 184
f 182 183 186
f 182 186 185
f 183 181 184
f 183 184 186
v 9.975772 3.630066 6.790958
v 9.972244 3.639700 6.809034
v 9.965082 3.620433 6.805955
v 10.288512 3.492334 6.925394
v 10.284984 3.501968 6.943470
v 10.277822 3.482701 6.940392
f 187 188 191
f 187 191 190
f 188 189 192
f 188 192 191
f 189 187 190
f 189 190 192
v 9.971032 3.630495 6.779987
v 9.990072 3.629159 6.812967
v 9.951993 3.630545 6.812994
v 9.953275 3.142871 6.770482
v 9.972315 3.141535 6.803462
v 9.934235 3.142921 6.803489
f 193 194 197
f 193 197 196
f 194 195 198
f 194 198 197
f 195 193 196
f 195 196 198
v 9.964889 3.142442 6.795497
v 9.946116 3.151338 6.796169
v 9.948820 3.133547 6.785767
v 9.865797 2.904509 7.176690
v 9.847024 2.913404 7.177362
v 9.849728 2.895614 7.166961
f 199 200 203
f 199 203 202
f 200 201 204
f 200 204 203
f 201 199 202
f 201 202 204
v 9.953275 3.148952 6.771463
v 9.972113 3.136468 6.802143
v 9.934436 3.141906 6.803827
v 9.896296 2.788743 6.659877
v 9.915135 2.776259 6.690557
v 9.877457 2.781697 6.692242
f 205 206 209
f 205 209 208
f 206 207 210
f 206 210 209
f 207 205 208
f 207 208 210
v 9.896296 2.790022 6.660317
v 9.914812 2.774139 6.689590
v 9.877780 2.782539 6.692769
v 9.812548 2.467091 6.538076
v 9.831064 2.451208 6.567349
v 9.794033 2.459608 6.570529
f 211 212 215
f 211 215 214
f 212 213 216
f 212 216 215
f 213 211 214
f 213 214 216
v 9.803678 2.459303 6.566734
v 9.810805 2.464186 6.547830
v 9.823162 2.454420 6.561392
v 9.696804 2.161184 6.449438
v 9.703930 2.166067 6.430533
v 9.716287 2.156301 6.444095
f 217 218 221
f 217 221 220
f 218 219 222
f 218 222 221
f 219 217 220
f 219 220 222
v 9.812548 2.452235 6.537818
v 9.831345 2.465781 6.568070
v 9.793751 2.459892 6.570068
v 9.901478 1.943130 6.710513
v 9.920275 1.956676 6.740765
v 9.882681 1.950787 6.742763
f 223 224 227
f 223 227 226
f 224 225 228
f 224 228 227
f 225 223 226
f 225 226 228
v 9.912472 1.950198 6.726537
v 9.896944 1.960308 6.735954
v 9.895017 1.940087 6.731549
v 10.128036 1.822290 7.219317
v 10.112508 1.832401 7.228734
v 10.110581 1.812180 7.224328
f 229 230 233
f 229 233 232
f 230 231 234
f 230 234 233
f 231 229 232
f 231 232 234
v 9.901478 1.945815 6.709788
v 9.920461 1.950802 6.742449
v 9.882494 1.953976 6.741804
v 9.856658 1.430885 6.814477
v 9.875641 1.435873 6.847138
v 9.837674 1.439047 6.846493
f 235 236 239
f 235 239 238
f 236 237 240
f 236 240 239
f 237 235 238
f 237 238 240
v -5.190175 4.148714 -3.153304
v -5.172011 4.154161 -3.120253
v -5.208340 4.165017 -3.124042
v -5.339415 3.703567 -2.997921
v -5.321251 3.709014 -2.964869
v -5.357579 3.719871 -2.968659
f 241 242 245
f 241 245 244
f 242 243 246
f 242 246 245
f 243 241 244
f 243 244 246
v -5.339415 3.717089 -2.998237
v -5.320432 3.709238 -2.966143
v -5.358398 3.706125 -2.967069
v -5.307781 3.362661 -3.103657
v -5.288797 3.354810 -3.071564
v -5.326764 3.351697 -3.072490
f 247 248 251
f 247 251 250
f 248 249 252
f 248 252 251
f 249 247 250
f 249 250 252
v -5.307781 3.363614 -3.103350
v -5.288936 3.350127 -3.073102
v -5.326626 3.355426 -3.071259
v -5.369541 2.971718 -3.239605
v -5.350696 2.958231 -3.209356
v -5.388385 2.963531 -3.207514
f 253 254 257
f 253 257 256
f 254 255 258
f 254 258 257
f 255 253 256
f 255 256 258
v -5.369541 2.970840 -3.239890
v -5.350544 2.959921 -3.208714
v -5.388537 2.962720 -3.207871
v -5.409930 2.468205 -3.391321
v -5.390934 2.457286 -3.360145
v -5.428927 2.460085 -3.359302
f 259 260 263
f 259 263 262
f 260 261 264
f 260 264 263
f 261 259 262
f 261 262 264
v -5.402414 2.461859 -3.360902
v -5.415162 2.472078 -3.373749
v -5.412216 2.451640 -3.376117
v -5.749710 2.379458 -3.081826
v -5.762458 2.389677 -3.094673
v -5.759512 2.369239 -3.097041
f 265 266 269
f 265 269 268
f 266 267 270
f 266 270 269
f 267 265 268
f 267 268 270
v -5.427785 2.461859 -3.383110
v -5.391574 2.471984 -3.376927
v -5.410433 2.451733 -3.350731
v -5.304226 2.124791 -3.554735
v -5.268015 2.134916 -3.548552
v -5.286874 2.114665 -3.522357
f 271 272 275
f 271 275 274
f 272 273 276
f 272 276 275
f 273 271 274
f 273 274 276
v -5.308265 2.124791 -3.544047
v -5.273811 2.134504 -3.557110
v -5.277039 2.115077 -3.524487
v -5.289100 1.796277 -3.737777
v -5.254647 1.805990 -3.750839
v -5.257874 1.786564 -3.718217
f 277 278 281
f 277 281 280
f 278 279 282
f 278 282 281
f 279 277 280
f 279 280 282
v -5.267207 1.799037 -3.757437
v -5.249337 1.801454 -3.723869
v -5.285076 1.788341 -3.725527
v -5.077806 1.290951 -3.821690
v -5.059936 1.293368 -3.788122
v -5.095675 1.280255 -3.789780
f 283 284 287
f 283 287 286
f 284 285 288
f 284 288 287
f 285 283 286
f 285 286 288
v -5.077806 1.281307 -3.820759
v -5.058757 1.291259 -3.789293
v -5.096854 1.292007 -3.789540
v -5.089733 0.733257 -3.640200
v -5.070684 0.743209 -3.608734
v -5.108781 0.743957 -3.608980
f 289 290 293
f 289 293 292
f 290 291 294
f 290 294 293
f 291 289 292
f 291 292 294
v -5.089733 0.732588 -3.639968
v -5.070888 0.741281 -3.608009
v -5.108578 0.746555 -3.609937
v -5.170532 0.223241 -3.453786
v -5.151687 0.231934 -3.421828
v -5.189377 0.237208 -3.423756
f 295 296 299
f 295 299 298
f 296 297 300
f 296 300 299
f 297 295 298
f 297 298 300
v -5.158546 0.230794 -3.432550
v -5.176726 0.240301 -3.429216
v -5.176325 0.221288 -3.437604
v -5.172214 0.104422 -3.146755
v -5.190394 0.113928 -3.143421
v -5.189993 0.094916 -3.151809
f 301 302 305
f 301 305 304
f 302 303 306
f 302 306 305
f 303 301 304
f 303 304 306
v 5.353363 2.600000 12.624731
v 5.330353 2.608960 12.653753
v 5.316359 2.591040 12.623176
v 5.439379 2.212140 12.812674
v 5.416370 2.221100 12.841696
v 5.402375 2.203180 12.811119
f 307 308 311
f 307 311 310
f 308 309 312
f 308 312 311
f 309 307 310
f 309 310 312
v 5.419375 2.215798 12.800136
v 5.437167 2.217032 12.833810
v 5.401583 2.203591 12.831544
v 5.615083 1.712016 12.715197
v 5.632874 1.713250 12.748871
v 5.597291 1.699809 12.746604
f 313 314 317
f 313 317 316
f 314 315 318
f 314 318 317
f 315 313 316
f 315 316 318
v 5.615083 1.701011 12.716154
v 5.633338 1.706892 12.749080
v 5.596827 1.717171 12.745438
v 5.454723 1.194914 12.895458
v 5.472979 1.200795 12.928384
v 5.436467 1.211074 12.924742
f 319 320 323
f 319 323 322
f 320 321 324
f 320 324 323
f 321 319 322
f 321 322 324
v 5.454723 1.196312 12.895014
v 5.473089 1.200356 12.928155
v 5.436357 1.210114 12.925415
v 5.326103 0.747521 13.021056
v 5.344469 0.751565 13.054197
v 5.307736 0.761322 13.051457
f 325 326 329
f 325 329 328
f 326 327 330
f 326 330 329
f 327 325 328
f 327 328 330
v 5.326103 0.758821 13.020898
v 5.344752 0.747010 13.051957
v 5.307454 0.754577 13.053855
v 5.246158 0.388084 12.927918
v 5.264807 0.376273 12.958978
v 5.227509 0.383839 12.960876
f 331 332 335
f 331 335 334
f 332 333 336
f 332 336 335
f 333 331 334
f 333 334 336
v 5.246158 0.381933 12.937284
v 5.256550 0.383006 12.955252
v 5.235767 0.383257 12.955235
v 5.244444 0.240295 12.946739
v 5.254835 0.241369 12.964708
v 5.234052 0.241619 12.964691
f 337 338 341
f 337 341 340
f 338 339 342
f 338 342 341
f 339 337 340
f 339 340 342
v 5.265835 0.382732 12.939416
v 5.243460 0.393133 12.968454
v 5.229180 0.372331 12.939901
v 5.319094 0.200000 13.045907
v 5.296720 0.210401 13.074945
v 5.282439 0.189599 13.046392
f 343 344 347
f 343 347 346
f 344 345 348
f 344 348 347
f 345 343 346
f 345 346 348
