o mesh
v 0.000000 0.000454 0.010991 0.200 0.440 0.170
v 0.009526 0.000135 0.005499 0.200 0.440 0.170
v 0.009526 -0.000319 -0.005492 0.200 0.440 0.170
v 0.000000 -0.000454 -0.010991 0.200 0.440 0.170
v -0.009526 -0.000135 -0.005499 0.200 0.440 0.170
v -0.009526 0.000319 0.005492 0.200 0.440 0.170
v 0.005361 0.554010 -0.014878 0.200 0.440 0.170
v 0.012289 0.553778 -0.018871 0.200 0.440 0.170
v 0.012289 0.553448 -0.026865 0.200 0.440 0.170
v 0.005361 0.553350 -0.030864 0.200 0.440 0.170
v -0.001567 0.553582 -0.026870 0.200 0.440 0.170
v -0.001567 0.553912 -0.018877 0.200 0.440 0.170
f 1 2 8
f 1 8 7
f 2 3 9
f 2 9 8
f 3 4 10
f 3 10 9
f 4 5 11
f 4 11 10
f 5 6 12
f 5 12 11
f 6 1 7
f 6 7 12
v 0.005361 0.565680 0.054634 0.951 0.512 0.326
v 0.011820 0.564899 0.050953 0.951 0.512 0.326
v 0.017524 0.563990 0.046111 0.951 0.512 0.326
v 0.022567 0.563212 0.041341 0.951 0.512 0.326
v 0.027127 0.562608 0.036931 0.951 0.512 0.326
v 0.031388 0.562179 0.032944 0.951 0.512 0.326
v 0.035513 0.561915 0.029353 0.951 0.512 0.326
v 0.039649 0.561808 0.026098 0.951 0.512 0.326
v 0.043931 0.561854 0.023095 0.951 0.512 0.326
v 0.048481 0.562054 0.020249 0.951 0.512 0.326
v 0.053410 0.562416 0.017447 0.951 0.512 0.326
v 0.058810 0.562949 0.014555 0.951 0.512 0.326
v 0.064718 0.563659 0.011399 0.951 0.512 0.326
v 0.071028 0.564526 0.007750 0.951 0.512 0.326
v 0.077191 0.565433 0.003273 0.951 0.512 0.326
v 0.078487 0.565264 -0.003277 0.951 0.512 0.326
v 0.075910 0.564343 -0.010431 0.951 0.512 0.326
v 0.072927 0.563503 -0.016960 0.951 0.512 0.326
v 0.070043 0.562828 -0.022871 0.951 0.512 0.326
v 0.067437 0.562330 -0.028302 0.951 0.512 0.326
v 0.065163 0.562002 -0.033415 0.951 0.512 0.326
v 0.063219 0.561833 -0.038374 0.951 0.512 0.326
v 0.061578 0.561817 -0.043332 0.951 0.512 0.326
v 0.060191 0.561955 -0.048439 0.951 0.512 0.326
v 0.058997 0.562252 -0.053837 0.951 0.512 0.326
v 0.057906 0.562715 -0.059663 0.951 0.512 0.326
v 0.056790 0.563354 -0.066025 0.951 0.512 0.326
v 0.055448 0.564164 -0.072957 0.951 0.512 0.326
v 0.053518 0.565084 -0.080262 0.951 0.512 0.326
v 0.049573 0.565582 -0.086012 0.951 0.512 0.326
v 0.042002 0.564712 -0.086334 0.951 0.512 0.326
v 0.034640 0.563821 -0.085660 0.951 0.512 0.326
v 0.027882 0.563077 -0.084748 0.951 0.512 0.326
v 0.021710 0.562509 -0.083885 0.951 0.512 0.326
v 0.016000 0.562114 -0.083207 0.951 0.512 0.326
v 0.010603 0.561882 -0.082780 0.951 0.512 0.326
v 0.005361 0.561805 -0.082635 0.951 0.512 0.326
v 0.000120 0.561882 -0.082780 0.951 0.512 0.326
v -0.005278 0.562114 -0.083207 0.951 0.512 0.326
v -0.010988 0.562509 -0.083885 0.951 0.512 0.326
v -0.017160 0.563077 -0.084748 0.951 0.512 0.326
v -0.023918 0.563821 -0.085660 0.951 0.512 0.326
v -0.031280 0.564712 -0.086334 0.951 0.512 0.326
v -0.038851 0.565582 -0.086012 0.951 0.512 0.326
v -0.042796 0.565084 -0.080262 0.951 0.512 0.326
v -0.044725 0.564164 -0.072957 0.951 0.512 0.326
v -0.046068 0.563354 -0.066025 0.951 0.512 0.326
v -0.047184 0.562715 -0.059663 0.951 0.512 0.326
v -0.048275 0.562252 -0.053837 0.951 0.512 0.326
v -0.049469 0.561955 -0.048439 0.951 0.512 0.326
v -0.050855 0.561817 -0.043332 0.951 0.512 0.326
v -0.052497 0.561833 -0.038374 0.951 0.512 0.326
v -0.054440 0.562002 -0.033415 0.951 0.512 0.326
v -0.056715 0.562330 -0.028302 0.951 0.512 0.326
v -0.059321 0.562828 -0.022871 0.951 0.512 0.326
v -0.062204 0.563503 -0.016960 0.951 0.512 0.326
v -0.065188 0.564343 -0.010431 0.951 0.512 0.326
v -0.067764 0.565264 -0.003277 0.951 0.512 0.326
v -0.066469 0.565433 0.003273 0.951 0.512 0.326
v -0.060306 0.564526 0.007750 0.951 0.512 0.326
v -0.053995 0.563659 0.011399 0.951 0.512 0.326
v -0.048088 0.562949 0.014555 0.951 0.512 0.326
v -0.042688 0.562416 0.017447 0.951 0.512 0.326
v -0.037758 0.562054 0.020249 0.951 0.512 0.326
v -0.033209 0.561854 0.023095 0.951 0.512 0.326
v -0.028927 0.561808 0.026098 0.951 0.512 0.326
v -0.024791 0.561915 0.029353 0.951 0.512 0.326
v -0.020666 0.562179 0.032944 0.951 0.512 0.326
v -0.016405 0.562608 0.036931 0.951 0.512 0.326
v -0.011844 0.563212 0.041341 0.951 0.512 0.326
v -0.006802 0.563990 0.046111 0.951 0.512 0.326
v -0.001098 0.564899 0.050953 0.951 0.512 0.326
v 0.005361 0.553680 -0.022871 0.951 0.512 0.326
f 85 13 14
f 85 14 13
f 85 14 15
f 85 15 14
f 85 15 16
f 85 16 15
f 85 16 17
f 85 17 16
f 85 17 18
f 85 18 17
f 85 18 19
f 85 19 18
f 85 19 20
f 85 20 19
f 85 20 21
f 85 21 20
f 85 21 22
f 85 22 21
f 85 22 23
f 85 23 22
f 85 23 24
f 85 24 23
f 85 24 25
f 85 25 24
f 85 25 26
f 85 26 25
f 85 26 27
f 85 27 26
f 85 27 28
f 85 28 27
f 85 28 29
f 85 29 28
f 85 29 30
f 85 30 29
f 85 30 31
f 85 31 30
f 85 31 32
f 85 32 31
f 85 32 33
f 85 33 32
f 85 33 34
f 85 34 33
f 85 34 35
f 85 35 34
f 85 35 36
f 85 36 35
f 85 36 37
f 85 37 36
f 85 37 38
f 85 38 37
f 85 38 39
f 85 39 38
f 85 39 40
f 85 40 39
f 85 40 41
f 85 41 40
f 85 41 42
f 85 42 41
f 85 42 43
f 85 43 42
f 85 43 44
f 85 44 43
f 85 44 45
f 85 45 44
f 85 45 46
f 85 46 45
f 85 46 47
f 85 47 46
f 85 47 48
f 85 48 47
f 85 48 49
f 85 49 48
f 85 49 50
f 85 50 49
f 85 50 51
f 85 51 50
f 85 51 52
f 85 52 51
f 85 52 53
f 85 53 52
f 85 53 54
f 85 54 53
f 85 54 55
f 85 55 54
f 85 55 56
f 85 56 55
f 85 56 57
f 85 57 56
f 85 57 58
f 85 58 57
f 85 58 59
f 85 59 58
f 85 59 60
f 85 60 59
f 85 60 61
f 85 61 60
f 85 61 62
f 85 62 61
f 85 62 63
f 85 63 62
f 85 63 64
f 85 64 63
f 85 64 65
f 85 65 64
f 85 65 66
f 85 66 65
f 85 66 67
f 85 67 66
f 85 67 68
f 85 68 67
f 85 68 69
f 85 69 68
f 85 69 70
f 85 70 69
f 85 70 71
f 85 71 70
f 85 71 72
f 85 72 71
f 85 72 73
f 85 73 72
f 85 73 74
f 85 74 73
f 85 74 75
f 85 75 74
f 85 75 76
f 85 76 75
f 85 76 77
f 85 77 76
f 85 77 78
f 85 78 77
f 85 78 79
f 85 79 78
f 85 79 80
f 85 80 79
f 85 80 81
f 85 81 80
f 85 81 82
f 85 82 81
f 85 82 83
f 85 83 82
f 85 83 84
f 85 84 83
f 85 84 13
f 85 13 84
v 0.045305 0.580080 0.024552 0.957 0.570 0.407
v 0.047360 0.578362 0.018971 0.957 0.570 0.407
v 0.048355 0.576362 0.013069 0.957 0.570 0.407
v 0.048982 0.574651 0.007551 0.957 0.570 0.407
v 0.049500 0.573323 0.002503 0.957 0.570 0.407
v 0.050052 0.572379 -0.002133 0.957 0.570 0.407
v 0.050725 0.571798 -0.006456 0.957 0.570 0.407
v 0.051578 0.571563 -0.010580 0.957 0.570 0.407
v 0.052650 0.571663 -0.014624 0.957 0.570 0.407
v 0.053967 0.572104 -0.018710 0.957 0.570 0.407
v 0.055540 0.572900 -0.022965 0.957 0.570 0.407
v 0.057354 0.574072 -0.027517 0.957 0.570 0.407
v 0.059341 0.575634 -0.032493 0.957 0.570 0.407
v 0.061323 0.577542 -0.037978 0.957 0.570 0.407
v 0.062786 0.579538 -0.043893 0.957 0.570 0.407
v 0.060203 0.579165 -0.048569 0.957 0.570 0.407
v 0.054940 0.577139 -0.051619 0.957 0.570 0.407
v 0.049749 0.575291 -0.054075 0.957 0.570 0.407
v 0.044938 0.573807 -0.056206 0.957 0.570 0.407
v 0.040545 0.572711 -0.058186 0.957 0.570 0.407
v 0.036518 0.571988 -0.060143 0.957 0.570 0.407
v 0.032773 0.571616 -0.062175 0.957 0.570 0.407
v 0.029213 0.571583 -0.064363 0.957 0.570 0.407
v 0.025733 0.571886 -0.066773 0.957 0.570 0.407
v 0.022220 0.572538 -0.069461 0.957 0.570 0.407
v 0.018550 0.573557 -0.072463 0.957 0.570 0.407
v 0.014589 0.574963 -0.075781 0.957 0.570 0.407
v 0.010194 0.576745 -0.079331 0.957 0.570 0.407
v 0.005249 0.578770 -0.082806 0.957 0.570 0.407
v -0.000128 0.579864 -0.084291 0.957 0.570 0.407
v -0.004927 0.577951 -0.080586 0.957 0.570 0.407
v -0.009084 0.575991 -0.076380 0.957 0.570 0.407
v -0.012748 0.574354 -0.072339 0.957 0.570 0.407
v -0.016081 0.573104 -0.068629 0.957 0.570 0.407
v -0.019225 0.572234 -0.065272 0.957 0.570 0.407
v -0.022308 0.571724 -0.062229 0.957 0.570 0.407
v -0.025440 0.571556 -0.059439 0.957 0.570 0.407
v -0.028722 0.571724 -0.056827 0.957 0.570 0.407
v -0.032244 0.572234 -0.054306 0.957 0.570 0.407
v -0.036087 0.573104 -0.051778 0.957 0.570 0.407
v -0.040309 0.574354 -0.049125 0.957 0.570 0.407
v -0.044914 0.575991 -0.046200 0.957 0.570 0.407
v -0.049766 0.577951 -0.042819 0.957 0.570 0.407
v -0.054233 0.579864 -0.038720 0.957 0.570 0.407
v -0.053683 0.578770 -0.033168 0.957 0.570 0.407
v -0.051099 0.576745 -0.027704 0.957 0.570 0.407
v -0.048347 0.574963 -0.022771 0.957 0.570 0.407
v -0.045751 0.573557 -0.018303 0.957 0.570 0.407
v -0.043417 0.572538 -0.014176 0.957 0.570 0.407
v -0.041365 0.571886 -0.010257 0.957 0.570 0.407
v -0.039581 0.571583 -0.006418 0.957 0.570 0.407
v -0.038031 0.571616 -0.002538 0.957 0.570 0.407
v -0.036664 0.571988 0.001497 0.957 0.570 0.407
v -0.035420 0.572711 0.005798 0.957 0.570 0.407
v -0.034216 0.573807 0.010465 0.957 0.570 0.407
v -0.032934 0.575291 0.015568 0.957 0.570 0.407
v -0.031395 0.577139 0.021100 0.957 0.570 0.407
v -0.029284 0.579165 0.026805 0.957 0.570 0.407
v -0.025116 0.579538 0.030145 0.957 0.570 0.407
v -0.019038 0.577542 0.029709 0.957 0.570 0.407
v -0.013296 0.575634 0.028688 0.957 0.570 0.407
v -0.008055 0.574072 0.027575 0.957 0.570 0.407
v -0.003260 0.572900 0.026562 0.957 0.570 0.407
v 0.001200 0.572104 0.025736 0.957 0.570 0.407
v 0.005451 0.571663 0.025132 0.957 0.570 0.407
v 0.009618 0.571563 0.024763 0.957 0.570 0.407
v 0.013827 0.571798 0.024623 0.957 0.570 0.407
v 0.018201 0.572379 0.024694 0.957 0.570 0.407
v 0.022863 0.573323 0.024938 0.957 0.570 0.407
v 0.027927 0.574651 0.025286 0.957 0.570 0.407
v 0.033470 0.576362 0.025606 0.957 0.570 0.407
v 0.039456 0.578362 0.025629 0.957 0.570 0.407
v 0.005361 0.553680 -0.022871 0.957 0.570 0.407
f 158 86 87
f 158 87 86
f 158 87 88
f 158 88 87
f 158 88 89
f 158 89 88
f 158 89 90
f 158 90 89
f 158 90 91
f 158 91 90
f 158 91 92
f 158 92 91
f 158 92 93
f 158 93 92
f 158 93 94
f 158 94 93
f 158 94 95
f 158 95 94
f 158 95 96
f 158 96 95
f 158 96 97
f 158 97 96
f 158 97 98
f 158 98 97
f 158 98 99
f 158 99 98
f 158 99 100
f 158 100 99
f 158 100 101
f 158 101 100
f 158 101 102
f 158 102 101
f 158 102 103
f 158 103 102
f 158 103 104
f 158 104 103
f 158 104 105
f 158 105 104
f 158 105 106
f 158 106 105
f 158 106 107
f 158 107 106
f 158 107 108
f 158 108 107
f 158 108 109
f 158 109 108
f 158 109 110
f 158 110 109
f 158 110 111
f 158 111 110
f 158 111 112
f 158 112 111
f 158 112 113
f 158 113 112
f 158 113 114
f 158 114 113
f 158 114 115
f 158 115 114
f 158 115 116
f 158 116 115
f 158 116 117
f 158 117 116
f 158 117 118
f 158 118 117
f 158 118 119
f 158 119 118
f 158 119 120
f 158 120 119
f 158 120 121
f 158 121 120
f 158 121 122
f 158 122 121
f 158 122 123
f 158 123 122
f 158 123 124
f 158 124 123
f 158 124 125
f 158 125 124
f 158 125 126
f 158 126 125
f 158 126 127
f 158 127 126
f 158 127 128
f 158 128 127
f 158 128 129
f 158 129 128
f 158 129 130
f 158 130 129
f 158 130 131
f 158 131 130
f 158 131 132
f 158 132 131
f 158 132 133
f 158 133 132
f 158 133 134
f 158 134 133
f 158 134 135
f 158 135 134
f 158 135 136
f 158 136 135
f 158 136 137
f 158 137 136
f 158 137 138
f 158 138 137
f 158 138 139
f 158 139 138
f 158 139 140
f 158 140 139
f 158 140 141
f 158 141 140
f 158 141 142
f 158 142 141
f 158 142 143
f 158 143 142
f 158 143 144
f 158 144 143
f 158 144 145
f 158 145 144
f 158 145 146
f 158 146 145
f 158 146 147
f 158 147 146
f 158 147 148
f 158 148 147
f 158 148 149
f 158 149 148
f 158 149 150
f 158 150 149
f 158 150 151
f 158 151 150
f 158 151 152
f 158 152 151
f 158 152 153
f 158 153 152
f 158 153 154
f 158 154 153
f 158 154 155
f 158 155 154
f 158 155 156
f 158 156 155
f 158 156 157
f 158 157 156
f 158 157 86
f 158 86 157
v 0.054243 0.594480 -0.014440 0.963 0.629 0.488
v 0.052624 0.591825 -0.018914 0.963 0.629 0.488
v 0.050190 0.588734 -0.023038 0.963 0.629 0.488
v 0.047730 0.586089 -0.026737 0.963 0.629 0.488
v 0.045445 0.584037 -0.030093 0.963 0.629 0.488
v 0.043394 0.582578 -0.033214 0.963 0.629 0.488
v 0.041578 0.581681 -0.036206 0.963 0.629 0.488
v 0.039975 0.581317 -0.039169 0.963 0.629 0.488
v 0.038547 0.581473 -0.042196 0.963 0.629 0.488
v 0.037247 0.582154 -0.045375 0.963 0.629 0.488
v 0.036016 0.583384 -0.048789 0.963 0.629 0.488
v 0.034779 0.585196 -0.052510 0.963 0.629 0.488
v 0.033431 0.587609 -0.056578 0.963 0.629 0.488
v 0.031817 0.590558 -0.060955 0.963 0.629 0.488
v 0.029663 0.593642 -0.065329 0.963 0.629 0.488
v 0.025673 0.593067 -0.066859 0.963 0.629 0.488
v 0.020881 0.589936 -0.066012 0.963 0.629 0.488
v 0.016439 0.587079 -0.064841 0.963 0.629 0.488
v 0.012397 0.584785 -0.063665 0.963 0.629 0.488
v 0.008688 0.583092 -0.062612 0.963 0.629 0.488
v 0.005216 0.581975 -0.061734 0.963 0.629 0.488
v 0.001877 0.581400 -0.061048 0.963 0.629 0.488
v -0.001428 0.581348 -0.060552 0.963 0.629 0.488
v -0.004800 0.581817 -0.060233 0.963 0.629 0.488
v -0.008335 0.582824 -0.060067 0.963 0.629 0.488
v -0.012128 0.584399 -0.060012 0.963 0.629 0.488
v -0.016261 0.586572 -0.060001 0.963 0.629 0.488
v -0.020779 0.589326 -0.059908 0.963 0.629 0.488
v -0.025596 0.592455 -0.059486 0.963 0.629 0.488
v -0.029652 0.594146 -0.057623 0.963 0.629 0.488
v -0.030679 0.591190 -0.052883 0.963 0.629 0.488
v -0.031054 0.588161 -0.048167 0.963 0.629 0.488
v -0.031214 0.585630 -0.043806 0.963 0.629 0.488
v -0.031341 0.583699 -0.039819 0.963 0.629 0.488
v -0.031535 0.582355 -0.036144 0.963 0.629 0.488
v -0.031853 0.581566 -0.032693 0.963 0.629 0.488
v -0.032332 0.581307 -0.029372 0.963 0.629 0.488
v -0.032993 0.581566 -0.026082 0.963 0.629 0.488
v -0.033849 0.582355 -0.022724 0.963 0.629 0.488
v -0.034898 0.583699 -0.019197 0.963 0.629 0.488
v -0.036114 0.585630 -0.015398 0.963 0.629 0.488
v -0.037424 0.588161 -0.011235 0.963 0.629 0.488
v -0.038650 0.591190 -0.006666 0.963 0.629 0.488
v -0.039271 0.594146 -0.001855 0.963 0.629 0.488
v -0.036073 0.592455 0.001258 0.963 0.629 0.488
v -0.031676 0.589326 0.003270 0.963 0.629 0.488
v -0.027450 0.586572 0.004871 0.963 0.629 0.488
v -0.023559 0.584399 0.006266 0.963 0.629 0.488
v -0.020004 0.582824 0.007588 0.963 0.629 0.488
v -0.016729 0.581817 0.008929 0.963 0.629 0.488
v -0.013659 0.581348 0.010358 0.963 0.629 0.488
v -0.010710 0.581400 0.011933 0.963 0.629 0.488
v -0.007794 0.581975 0.013698 0.963 0.629 0.488
v -0.004817 0.583092 0.015689 0.963 0.629 0.488
v -0.001675 0.584785 0.017923 0.963 0.629 0.488
v 0.001740 0.587079 0.020385 0.963 0.629 0.488
v 0.005532 0.589936 0.022977 0.963 0.629 0.488
v 0.009764 0.593067 0.025380 0.963 0.629 0.488
v 0.014036 0.593642 0.025276 0.963 0.629 0.488
v 0.017530 0.590558 0.021876 0.963 0.629 0.488
v 0.020518 0.587609 0.018292 0.963 0.629 0.488
v 0.023151 0.585196 0.014910 0.963 0.629 0.488
v 0.025563 0.583384 0.011819 0.963 0.629 0.488
v 0.027866 0.582154 0.009015 0.963 0.629 0.488
v 0.030155 0.581473 0.006455 0.963 0.629 0.488
v 0.032515 0.581317 0.004081 0.963 0.629 0.488
v 0.035018 0.581681 0.001826 0.963 0.629 0.488
v 0.037732 0.582578 -0.000385 0.963 0.629 0.488
v 0.040710 0.584037 -0.002638 0.963 0.629 0.488
v 0.043987 0.586089 -0.005035 0.963 0.629 0.488
v 0.047544 0.588734 -0.007696 0.963 0.629 0.488
v 0.051218 0.591825 -0.010767 0.963 0.629 0.488
v 0.005361 0.553680 -0.022871 0.963 0.629 0.488
f 231 159 160
f 231 160 159
f 231 160 161
f 231 161 160
f 231 161 162
f 231 162 161
f 231 162 163
f 231 163 162
f 231 163 164
f 231 164 163
f 231 164 165
f 231 165 164
f 231 165 166
f 231 166 165
f 231 166 167
f 231 167 166
f 231 167 168
f 231 168 167
f 231 168 169
f 231 169 168
f 231 169 170
f 231 170 169
f 231 170 171
f 231 171 170
f 231 171 172
f 231 172 171
f 231 172 173
f 231 173 172
f 231 173 174
f 231 174 173
f 231 174 175
f 231 175 174
f 231 175 176
f 231 176 175
f 231 176 177
f 231 177 176
f 231 177 178
f 231 178 177
f 231 178 179
f 231 179 178
f 231 179 180
f 231 180 179
f 231 180 181
f 231 181 180
f 231 181 182
f 231 182 181
f 231 182 183
f 231 183 182
f 231 183 184
f 231 184 183
f 231 184 185
f 231 185 184
f 231 185 186
f 231 186 185
f 231 186 187
f 231 187 186
f 231 187 188
f 231 188 187
f 231 188 189
f 231 189 188
f 231 189 190
f 231 190 189
f 231 190 191
f 231 191 190
f 231 191 192
f 231 192 191
f 231 192 193
f 231 193 192
f 231 193 194
f 231 194 193
f 231 194 195
f 231 195 194
f 231 195 196
f 231 196 195
f 231 196 197
f 231 197 196
f 231 197 198
f 231 198 197
f 231 198 199
f 231 199 198
f 231 199 200
f 231 200 199
f 231 200 201
f 231 201 200
f 231 201 202
f 231 202 201
f 231 202 203
f 231 203 202
f 231 203 204
f 231 204 203
f 231 204 205
f 231 205 204
f 231 205 206
f 231 206 205
f 231 206 207
f 231 207 206
f 231 207 208
f 231 208 207
f 231 208 209
f 231 209 208
f 231 209 210
f 231 210 209
f 231 210 211
f 231 211 210
f 231 211 212
f 231 212 211
f 231 212 213
f 231 213 212
f 231 213 214
f 231 214 213
f 231 214 215
f 231 215 214
f 231 215 216
f 231 216 215
f 231 216 217
f 231 217 216
f 231 217 218
f 231 218 217
f 231 218 219
f 231 219 218
f 231 219 220
f 231 220 219
f 231 220 221
f 231 221 220
f 231 221 222
f 231 222 221
f 231 222 223
f 231 223 222
f 231 223 224
f 231 224 223
f 231 224 225
f 231 225 224
f 231 225 226
f 231 226 225
f 231 226 227
f 231 227 226
f 231 227 228
f 231 228 227
f 231 228 229
f 231 229 228
f 231 229 230
f 231 230 229
f 231 230 159
f 231 159 230
v 0.039615 0.608880 -0.042904 0.969 0.688 0.569
v 0.036319 0.605289 -0.044808 0.969 0.688 0.569
v 0.032705 0.601106 -0.046077 0.969 0.688 0.569
v 0.029293 0.597528 -0.047073 0.969 0.688 0.569
v 0.026165 0.594751 -0.047948 0.969 0.688 0.569
v 0.023302 0.592778 -0.048801 0.969 0.688 0.569
v 0.020649 0.591564 -0.049696 0.969 0.688 0.569
v 0.018141 0.591071 -0.050682 0.969 0.688 0.569
v 0.015707 0.591282 -0.051798 0.969 0.688 0.569
v 0.013273 0.592203 -0.053074 0.969 0.688 0.569
v 0.010760 0.593868 -0.054528 0.969 0.688 0.569
v 0.008086 0.596319 -0.056167 0.969 0.688 0.569
v 0.005164 0.599584 -0.057962 0.969 0.688 0.569
v 0.001921 0.603574 -0.059808 0.969 0.688 0.569
v -0.001651 0.607746 -0.061375 0.969 0.688 0.569
v -0.004881 0.606968 -0.060254 0.969 0.688 0.569
v -0.007377 0.602732 -0.057267 0.969 0.688 0.569
v -0.009491 0.598867 -0.054260 0.969 0.688 0.569
v -0.011358 0.595764 -0.051458 0.969 0.688 0.569
v -0.013085 0.593473 -0.048902 0.969 0.688 0.569
v -0.014757 0.591961 -0.046575 0.969 0.688 0.569
v -0.016446 0.591183 -0.044435 0.969 0.688 0.569
v -0.018213 0.591113 -0.042428 0.969 0.688 0.569
v -0.020112 0.591748 -0.040495 0.969 0.688 0.569
v -0.022189 0.593110 -0.038572 0.969 0.688 0.569
v -0.024482 0.595241 -0.036584 0.969 0.688 0.569
v -0.027005 0.598181 -0.034446 0.969 0.688 0.569
v -0.029722 0.601907 -0.032061 0.969 0.688 0.569
v -0.032451 0.606140 -0.029320 0.969 0.688 0.569
v -0.033973 0.608428 -0.026090 0.969 0.688 0.569
v -0.032158 0.604429 -0.022661 0.969 0.688 0.569
v -0.029958 0.600331 -0.019581 0.969 0.688 0.569
v -0.027808 0.596907 -0.016830 0.969 0.688 0.569
v -0.025831 0.594294 -0.014325 0.969 0.688 0.569
v -0.024055 0.592475 -0.011977 0.969 0.688 0.569
v -0.022472 0.591409 -0.009702 0.969 0.688 0.569
v -0.021053 0.591057 -0.007423 0.969 0.688 0.569
v -0.019762 0.591409 -0.005069 0.969 0.688 0.569
v -0.018555 0.592475 -0.002573 0.969 0.688 0.569
v -0.017379 0.594294 0.000126 0.969 0.688 0.569
v -0.016165 0.596907 0.003077 0.969 0.688 0.569
v -0.014821 0.600331 0.006299 0.969 0.688 0.569
v -0.013216 0.604429 0.009727 0.969 0.688 0.569
v -0.011117 0.608428 0.012990 0.969 0.688 0.569
v -0.007556 0.606140 0.013247 0.969 0.688 0.569
v -0.003829 0.601907 0.012212 0.969 0.688 0.569
v -0.000418 0.598181 0.011013 0.969 0.688 0.569
v 0.002682 0.595241 0.009862 0.969 0.688 0.569
v 0.005539 0.593110 0.008838 0.969 0.688 0.569
v 0.008234 0.591748 0.007971 0.969 0.688 0.569
v 0.010849 0.591113 0.007264 0.969 0.688 0.569
v 0.013465 0.591183 0.006707 0.969 0.688 0.569
v 0.016158 0.591961 0.006285 0.969 0.688 0.569
v 0.019006 0.593473 0.005968 0.969 0.688 0.569
v 0.022080 0.595764 0.005716 0.969 0.688 0.569
v 0.025438 0.598867 0.005463 0.969 0.688 0.569
v 0.029095 0.602732 0.005094 0.969 0.688 0.569
v 0.032922 0.606968 0.004383 0.969 0.688 0.569
v 0.035483 0.607746 0.002118 0.969 0.688 0.569
v 0.035868 0.603574 -0.001763 0.969 0.688 0.569
v 0.035849 0.599584 -0.005496 0.969 0.688 0.569
v 0.035717 0.596319 -0.008922 0.969 0.688 0.569
v 0.035600 0.593868 -0.012056 0.969 0.688 0.569
v 0.035564 0.592203 -0.014959 0.969 0.688 0.569
v 0.035646 0.591282 -0.017706 0.969 0.688 0.569
v 0.035866 0.591071 -0.020374 0.969 0.688 0.569
v 0.036236 0.591564 -0.023044 0.969 0.688 0.569
v 0.036757 0.592778 -0.025795 0.969 0.688 0.569
v 0.037418 0.594751 -0.028709 0.969 0.688 0.569
v 0.038188 0.597528 -0.031864 0.969 0.688 0.569
v 0.038993 0.601106 -0.035326 0.969 0.688 0.569
v 0.039658 0.605289 -0.039098 0.969 0.688 0.569
v 0.005361 0.553680 -0.022871 0.969 0.688 0.569
f 304 232 233
f 304 233 232
f 304 233 234
f 304 234 233
f 304 234 235
f 304 235 234
f 304 235 236
f 304 236 235
f 304 236 237
f 304 237 236
f 304 237 238
f 304 238 237
f 304 238 239
f 304 239 238
f 304 239 240
f 304 240 239
f 304 240 241
f 304 241 240
f 304 241 242
f 304 242 241
f 304 242 243
f 304 243 242
f 304 243 244
f 304 244 243
f 304 244 245
f 304 245 244
f 304 245 246
f 304 246 245
f 304 246 247
f 304 247 246
f 304 247 248
f 304 248 247
f 304 248 249
f 304 249 248
f 304 249 250
f 304 250 249
f 304 250 251
f 304 251 250
f 304 251 252
f 304 252 251
f 304 252 253
f 304 253 252
f 304 253 254
f 304 254 253
f 304 254 255
f 304 255 254
f 304 255 256
f 304 256 255
f 304 256 257
f 304 257 256
f 304 257 258
f 304 258 257
f 304 258 259
f 304 259 258
f 304 259 260
f 304 260 259
f 304 260 261
f 304 261 260
f 304 261 262
f 304 262 261
f 304 262 263
f 304 263 262
f 304 263 264
f 304 264 263
f 304 264 265
f 304 265 264
f 304 265 266
f 304 266 265
f 304 266 267
f 304 267 266
f 304 267 268
f 304 268 267
f 304 268 269
f 304 269 268
f 304 269 270
f 304 270 269
f 304 270 271
f 304 271 270
f 304 271 272
f 304 272 271
f 304 272 273
f 304 273 272
f 304 273 274
f 304 274 273
f 304 274 275
f 304 275 274
f 304 275 276
f 304 276 275
f 304 276 277
f 304 277 276
f 304 277 278
f 304 278 277
f 304 278 279
f 304 279 278
f 304 279 280
f 304 280 279
f 304 280 281
f 304 281 280
f 304 281 282
f 304 282 281
f 304 282 283
f 304 283 282
f 304 283 284
f 304 284 283
f 304 284 285
f 304 285 284
f 304 285 286
f 304 286 285
f 304 286 287
f 304 287 286
f 304 287 288
f 304 288 287
f 304 288 289
f 304 289 288
f 304 289 290
f 304 290 289
f 304 290 291
f 304 291 290
f 304 291 292
f 304 292 291
f 304 292 293
f 304 293 292
f 304 293 294
f 304 294 293
f 304 294 295
f 304 295 294
f 304 295 296
f 304 296 295
f 304 296 297
f 304 297 296
f 304 297 298
f 304 298 297
f 304 298 299
f 304 299 298
f 304 299 300
f 304 300 299
f 304 300 301
f 304 301 300
f 304 301 302
f 304 302 301
f 304 302 303
f 304 303 302
f 304 303 232
f 304 232 303
v 0.015996 0.623280 -0.052783 0.975 0.746 0.649
v 0.012998 0.618752 -0.052248 0.975 0.746 0.649
v 0.010132 0.613478 -0.051162 0.975 0.746 0.649
v 0.007531 0.608967 -0.050013 0.975 0.746 0.649
v 0.005166 0.605466 -0.048937 0.975 0.746 0.649
v 0.002975 0.602977 -0.047983 0.975 0.746 0.649
v 0.000890 0.601447 -0.047163 0.975 0.746 0.649
v -0.001153 0.600825 -0.046474 0.975 0.746 0.649
v -0.003217 0.601091 -0.045903 0.975 0.746 0.649
v -0.005364 0.602253 -0.045429 0.975 0.746 0.649
v -0.007651 0.604351 -0.045024 0.975 0.746 0.649
v -0.010132 0.607442 -0.044649 0.975 0.746 0.649
v -0.012844 0.611559 -0.044241 0.975 0.746 0.649
v -0.015781 0.616590 -0.043699 0.975 0.746 0.649
v -0.018773 0.621850 -0.042817 0.975 0.746 0.649
v -0.020172 0.620869 -0.040466 0.975 0.746 0.649
v -0.020159 0.615528 -0.037352 0.975 0.746 0.649
v -0.019904 0.610655 -0.034423 0.975 0.746 0.649
v -0.019602 0.606742 -0.031746 0.975 0.746 0.649
v -0.019341 0.603854 -0.029292 0.975 0.746 0.649
v -0.019165 0.601947 -0.027007 0.975 0.746 0.649
v -0.019095 0.600967 -0.024826 0.975 0.746 0.649
v -0.019142 0.600878 -0.022688 0.975 0.746 0.649
v -0.019308 0.601679 -0.020527 0.975 0.746 0.649
v -0.019588 0.603396 -0.018279 0.975 0.746 0.649
v -0.019966 0.606083 -0.015881 0.975 0.746 0.649
v -0.020408 0.609791 -0.013273 0.975 0.746 0.649
v -0.020841 0.614489 -0.010413 0.975 0.746 0.649
v -0.021099 0.619826 -0.007329 0.975 0.746 0.649
v -0.020366 0.622710 -0.004569 0.975 0.746 0.649
v -0.017488 0.617669 -0.003406 0.975 0.746 0.649
v -0.014554 0.612500 -0.002656 0.975 0.746 0.649
v -0.011821 0.608184 -0.002081 0.975 0.746 0.649
v -0.009320 0.604888 -0.001567 0.975 0.746 0.649
v -0.007024 0.602596 -0.001045 0.975 0.746 0.649
v -0.004882 0.601251 -0.000469 0.975 0.746 0.649
v -0.002839 0.600808 0.000194 0.975 0.746 0.649
v -0.000836 0.601251 0.000969 0.975 0.746 0.649
v 0.001188 0.602596 0.001875 0.975 0.746 0.649
v 0.003299 0.604888 0.002920 0.975 0.746 0.649
v 0.005563 0.608184 0.004100 0.975 0.746 0.649
v 0.008046 0.612500 0.005379 0.975 0.746 0.649
v 0.010794 0.617669 0.006649 0.975 0.746 0.649
v 0.013760 0.622710 0.007564 0.975 0.746 0.649
v 0.016072 0.619826 0.005886 0.975 0.746 0.649
v 0.017819 0.614489 0.003332 0.975 0.746 0.649
v 0.019288 0.609791 0.000840 0.975 0.746 0.649
v 0.020592 0.606083 -0.001462 0.975 0.746 0.649
v 0.021812 0.603396 -0.003560 0.975 0.746 0.649
v 0.023014 0.601679 -0.005480 0.975 0.746 0.649
v 0.024249 0.600878 -0.007261 0.975 0.746 0.649
v 0.025563 0.600967 -0.008949 0.975 0.746 0.649
v 0.026994 0.601947 -0.010596 0.975 0.746 0.649
v 0.028573 0.603854 -0.012257 0.975 0.746 0.649
v 0.030324 0.606742 -0.013996 0.975 0.746 0.649
v 0.032248 0.610655 -0.015881 0.975 0.746 0.649
v 0.034295 0.615528 -0.017992 0.975 0.746 0.649
v 0.036271 0.620869 -0.020399 0.975 0.746 0.649
v 0.036670 0.621850 -0.023105 0.975 0.746 0.649
v 0.034906 0.616590 -0.025678 0.975 0.746 0.649
v 0.032971 0.611559 -0.027952 0.975 0.746 0.649
v 0.031124 0.607442 -0.029981 0.975 0.746 0.649
v 0.029437 0.604351 -0.031838 0.975 0.746 0.649
v 0.027919 0.602253 -0.033596 0.975 0.746 0.649
v 0.026553 0.601091 -0.035318 0.975 0.746 0.649
v 0.025313 0.600825 -0.037065 0.975 0.746 0.649
v 0.024163 0.601447 -0.038889 0.975 0.746 0.649
v 0.023064 0.602977 -0.040840 0.975 0.746 0.649
v 0.021967 0.605466 -0.042964 0.975 0.746 0.649
v 0.020812 0.608967 -0.045292 0.975 0.746 0.649
v 0.019520 0.613478 -0.047824 0.975 0.746 0.649
v 0.017983 0.618752 -0.050476 0.975 0.746 0.649
v 0.005361 0.553680 -0.022871 0.975 0.746 0.649
f 377 305 306
f 377 306 305
f 377 306 307
f 377 307 306
f 377 307 308
f 377 308 307
f 377 308 309
f 377 309 308
f 377 309 310
f 377 310 309
f 377 310 311
f 377 311 310
f 377 311 312
f 377 312 311
f 377 312 313
f 377 313 312
f 377 313 314
f 377 314 313
f 377 314 315
f 377 315 314
f 377 315 316
f 377 316 315
f 377 316 317
f 377 317 316
f 377 317 318
f 377 318 317
f 377 318 319
f 377 319 318
f 377 319 320
f 377 320 319
f 377 320 321
f 377 321 320
f 377 321 322
f 377 322 321
f 377 322 323
f 377 323 322
f 377 323 324
f 377 324 323
f 377 324 325
f 377 325 324
f 377 325 326
f 377 326 325
f 377 326 327
f 377 327 326
f 377 327 328
f 377 328 327
f 377 328 329
f 377 329 328
f 377 329 330
f 377 330 329
f 377 330 331
f 377 331 330
f 377 331 332
f 377 332 331
f 377 332 333
f 377 333 332
f 377 333 334
f 377 334 333
f 377 334 335
f 377 335 334
f 377 335 336
f 377 336 335
f 377 336 337
f 377 337 336
f 377 337 338
f 377 338 337
f 377 338 339
f 377 339 338
f 377 339 340
f 377 340 339
f 377 340 341
f 377 341 340
f 377 341 342
f 377 342 341
f 377 342 343
f 377 343 342
f 377 343 344
f 377 344 343
f 377 344 345
f 377 345 344
f 377 345 346
f 377 346 345
f 377 346 347
f 377 347 346
f 377 347 348
f 377 348 347
f 377 348 349
f 377 349 348
f 377 349 350
f 377 350 349
f 377 350 351
f 377 351 350
f 377 351 352
f 377 352 351
f 377 352 353
f 377 353 352
f 377 353 354
f 377 354 353
f 377 354 355
f 377 355 354
f 377 355 356
f 377 356 355
f 377 356 357
f 377 357 356
f 377 357 358
f 377 358 357
f 377 358 359
f 377 359 358
f 377 359 360
f 377 360 359
f 377 360 361
f 377 361 360
f 377 361 362
f 377 362 361
f 377 362 363
f 377 363 362
f 377 363 364
f 377 364 363
f 377 364 365
f 377 365 364
f 377 365 366
f 377 366 365
f 377 366 367
f 377 367 366
f 377 367 368
f 377 368 367
f 377 368 369
f 377 369 368
f 377 369 370
f 377 370 369
f 377 370 371
f 377 371 370
f 377 371 372
f 377 372 371
f 377 372 373
f 377 373 372
f 377 373 374
f 377 374 373
f 377 374 375
f 377 375 374
f 377 375 376
f 377 376 375
f 377 376 305
f 377 305 376
v 0.004814 0.144608 -0.003582 0.160 0.352 0.136
v 0.000984 0.150377 0.001322 0.160 0.352 0.136
v -0.004814 0.144608 0.003582 0.160 0.352 0.136
v -0.000984 0.138839 -0.001322 0.160 0.352 0.136
v 0.021695 0.134608 0.027483 0.160 0.352 0.136
v 0.021057 0.135570 0.028301 0.160 0.352 0.136
v 0.020090 0.134608 0.028677 0.160 0.352 0.136
v 0.020729 0.133647 0.027860 0.160 0.352 0.136
f 378 379 383
f 378 383 382
f 379 380 384
f 379 384 383
f 380 381 385
f 380 385 384
f 381 378 382
f 381 382 385
v -0.003649 0.239993 0.004763 0.160 0.352 0.136
v -0.001308 0.245762 -0.001002 0.160 0.352 0.136
v 0.003649 0.239993 -0.004763 0.160 0.352 0.136
v 0.001308 0.234224 0.001002 0.160 0.352 0.136
v -0.028391 0.229993 -0.020493 0.160 0.352 0.136
v -0.028001 0.230955 -0.021454 0.160 0.352 0.136
v -0.027174 0.229993 -0.022080 0.160 0.352 0.136
v -0.027565 0.229032 -0.021120 0.160 0.352 0.136
f 386 387 391
f 386 391 390
f 387 388 392
f 387 392 391
f 388 389 393
f 388 393 392
f 389 386 390
f 389 390 393
v 0.004728 0.190110 -0.003694 0.160 0.352 0.136
v 0.001015 0.195879 0.001299 0.160 0.352 0.136
v -0.004728 0.190110 0.003694 0.160 0.352 0.136
v -0.001015 0.184341 -0.001299 0.160 0.352 0.136
v 0.022335 0.180110 0.026966 0.160 0.352 0.136
v 0.021716 0.181071 0.027798 0.160 0.352 0.136
v 0.020759 0.180110 0.028197 0.160 0.352 0.136
v 0.021378 0.179148 0.027365 0.160 0.352 0.136
f 394 395 399
f 394 399 398
f 395 396 400
f 395 400 399
f 396 397 401
f 396 401 400
f 397 394 398
f 397 398 401
v 0.005519 0.494830 0.002355 0.160 0.352 0.136
v -0.000647 0.500600 0.001516 0.160 0.352 0.136
v -0.005519 0.494830 -0.002355 0.160 0.352 0.136
v 0.000647 0.489061 -0.001516 0.160 0.352 0.136
v -0.012816 0.484830 0.032584 0.160 0.352 0.136
v -0.013844 0.485792 0.032445 0.160 0.352 0.136
v -0.014656 0.484830 0.031800 0.160 0.352 0.136
v -0.013628 0.483869 0.031939 0.160 0.352 0.136
f 402 403 407
f 402 407 406
f 403 404 408
f 403 408 407
f 404 405 409
f 404 409 408
f 405 402 406
f 405 406 409
v 0.003850 0.463383 -0.004602 0.160 0.352 0.136
v 0.001264 0.469152 0.001058 0.160 0.352 0.136
v -0.003850 0.463383 0.004602 0.160 0.352 0.136
v -0.001264 0.457614 -0.001058 0.160 0.352 0.136
v 0.027484 0.453383 0.021694 0.160 0.352 0.136
v 0.027053 0.454344 0.022637 0.160 0.352 0.136
v 0.026201 0.453383 0.023228 0.160 0.352 0.136
v 0.026632 0.452421 0.022284 0.160 0.352 0.136
f 410 411 415
f 410 415 414
f 411 412 416
f 411 416 415
f 412 413 417
f 412 417 416
f 413 410 414
f 413 414 417
v 0.004986 0.199802 0.003338 0.160 0.352 0.136
v -0.000917 0.205572 0.001370 0.160 0.352 0.136
v -0.004986 0.199802 -0.003338 0.160 0.352 0.136
v 0.000917 0.194033 -0.001370 0.160 0.352 0.136
v -0.018642 0.189802 0.029639 0.160 0.352 0.136
v -0.019625 0.190764 0.029311 0.160 0.352 0.136
v -0.020303 0.189802 0.028527 0.160 0.352 0.136
v -0.019320 0.188841 0.028855 0.160 0.352 0.136
f 418 419 423
f 418 423 422
f 419 420 424
f 419 424 423
f 420 421 425
f 420 425 424
f 421 418 422
f 421 422 425
v -0.001436 0.468067 0.005826 0.160 0.352 0.136
v -0.001600 0.473836 -0.000395 0.160 0.352 0.136
v 0.001436 0.468067 -0.005826 0.160 0.352 0.136
v 0.001600 0.462298 0.000395 0.160 0.352 0.136
v -0.034222 0.458067 -0.007408 0.160 0.352 0.136
v -0.034249 0.459029 -0.008445 0.160 0.352 0.136
v -0.033743 0.458067 -0.009350 0.160 0.352 0.136
v -0.033715 0.457106 -0.008313 0.160 0.352 0.136
f 426 427 431
f 426 431 430
f 427 428 432
f 427 432 431
f 428 429 433
f 428 433 432
f 429 426 430
f 429 430 433
v 0.005854 0.493390 0.001314 0.160 0.352 0.136
v -0.000361 0.499159 0.001608 0.160 0.352 0.136
v -0.005854 0.493390 -0.001314 0.160 0.352 0.136
v 0.000361 0.487621 -0.001608 0.160 0.352 0.136
v -0.006687 0.483390 0.034370 0.160 0.352 0.136
v -0.007723 0.484352 0.034419 0.160 0.352 0.136
v -0.008639 0.483390 0.033932 0.160 0.352 0.136
v -0.007603 0.482429 0.033883 0.160 0.352 0.136
f 434 435 439
f 434 439 438
f 435 436 440
f 435 440 439
f 436 437 441
f 436 441 440
f 437 434 438
f 437 438 441
v 0.000000 0.166104 -0.000000 0.180 0.500 0.200
v -0.000754 0.164235 0.003044 0.180 0.500 0.200
v -0.000506 0.162366 0.006878 0.180 0.500 0.200
v 0.000350 0.160497 0.011191 0.180 0.500 0.200
v 0.001576 0.158628 0.015797 0.180 0.500 0.200
v 0.002964 0.156759 0.020530 0.180 0.500 0.200
v 0.004320 0.154890 0.025237 0.180 0.500 0.200
v 0.005466 0.153021 0.029779 0.180 0.500 0.200
v 0.006239 0.151152 0.034027 0.180 0.500 0.200
v 0.006505 0.149283 0.037875 0.180 0.500 0.200
v 0.006155 0.147414 0.041237 0.180 0.500 0.200
v 0.005114 0.145545 0.044055 0.180 0.500 0.200
v 0.003345 0.143676 0.046299 0.180 0.500 0.200
v 0.000847 0.141807 0.047968 0.180 0.500 0.200
v -0.002340 0.139938 0.049093 0.180 0.500 0.200
v -0.006144 0.138069 0.049733 0.180 0.500 0.200
v -0.010456 0.136200 0.049971 0.180 0.500 0.200
v -0.015139 0.134331 0.049917 0.180 0.500 0.200
v -0.020033 0.132462 0.049696 0.180 0.500 0.200
v -0.024959 0.130593 0.049451 0.180 0.500 0.200
v -0.029724 0.128724 0.049333 0.180 0.500 0.200
v -0.034118 0.126855 0.049507 0.180 0.500 0.200
v -0.037904 0.124986 0.050160 0.180 0.500 0.200
v -0.040688 0.123117 0.051603 0.180 0.500 0.200
v -0.039934 0.124986 0.048559 0.180 0.500 0.200
v -0.040182 0.126855 0.044725 0.180 0.500 0.200
v -0.041038 0.128724 0.040412 0.180 0.500 0.200
v -0.042264 0.130593 0.035806 0.180 0.500 0.200
v -0.043652 0.132462 0.031073 0.180 0.500 0.200
v -0.045008 0.134331 0.026366 0.180 0.500 0.200
v -0.046154 0.136200 0.021824 0.180 0.500 0.200
v -0.046927 0.138069 0.017576 0.180 0.500 0.200
v -0.047193 0.139938 0.013728 0.180 0.500 0.200
v -0.046843 0.141807 0.010366 0.180 0.500 0.200
v -0.045802 0.143676 0.007548 0.180 0.500 0.200
v -0.044033 0.145545 0.005304 0.180 0.500 0.200
v -0.041535 0.147414 0.003635 0.180 0.500 0.200
v -0.038348 0.149283 0.002510 0.180 0.500 0.200
v -0.034544 0.151152 0.001870 0.180 0.500 0.200
v -0.030232 0.153021 0.001632 0.180 0.500 0.200
v -0.025549 0.154890 0.001686 0.180 0.500 0.200
v -0.020655 0.156759 0.001907 0.180 0.500 0.200
v -0.015729 0.158628 0.002152 0.180 0.500 0.200
v -0.010964 0.160497 0.002270 0.180 0.500 0.200
v -0.006570 0.162366 0.002096 0.180 0.500 0.200
v -0.002784 0.164235 0.001443 0.180 0.500 0.200
f 442 443 444
f 442 444 443
f 442 444 445
f 442 445 444
f 442 445 446
f 442 446 445
f 442 446 447
f 442 447 446
f 442 447 448
f 442 448 447
f 442 448 449
f 442 449 448
f 442 449 450
f 442 450 449
f 442 450 451
f 442 451 450
f 442 451 452
f 442 452 451
f 442 452 453
f 442 453 452
f 442 453 454
f 442 454 453
f 442 454 455
f 442 455 454
f 442 455 456
f 442 456 455
f 442 456 457
f 442 457 456
f 442 457 458
f 442 458 457
f 442 458 459
f 442 459 458
f 442 459 460
f 442 460 459
f 442 460 461
f 442 461 460
f 442 461 462
f 442 462 461
f 442 462 463
f 442 463 462
f 442 463 464
f 442 464 463
f 442 464 465
f 442 465 464
f 442 465 466
f 442 466 465
f 442 466 467
f 442 467 466
f 442 467 468
f 442 468 467
f 442 468 469
f 442 469 468
f 442 469 470
f 442 470 469
f 442 470 471
f 442 471 470
f 442 471 472
f 442 472 471
f 442 472 473
f 442 473 472
f 442 473 474
f 442 474 473
f 442 474 475
f 442 475 474
f 442 475 476
f 442 476 475
f 442 476 477
f 442 477 476
f 442 477 478
f 442 478 477
f 442 478 479
f 442 479 478
f 442 479 480
f 442 480 479
f 442 480 481
f 442 481 480
f 442 481 482
f 442 482 481
f 442 482 483
f 442 483 482
f 442 483 484
f 442 484 483
f 442 484 485
f 442 485 484
f 442 485 486
f 442 486 485
f 442 486 487
f 442 487 486
v 0.000000 0.166104 -0.000000 0.180 0.500 0.200
v 0.000889 0.163785 0.002982 0.180 0.500 0.200
v 0.003115 0.161467 0.006191 0.180 0.500 0.200
v 0.006153 0.159148 0.009537 0.180 0.500 0.200
v 0.009685 0.156830 0.012967 0.180 0.500 0.200
v 0.013433 0.154511 0.016434 0.180 0.500 0.200
v 0.017138 0.152192 0.019893 0.180 0.500 0.200
v 0.020562 0.149874 0.023304 0.180 0.500 0.200
v 0.023490 0.147555 0.026632 0.180 0.500 0.200
v 0.025740 0.145237 0.029845 0.180 0.500 0.200
v 0.027167 0.142918 0.032918 0.180 0.500 0.200
v 0.027673 0.140599 0.035836 0.180 0.500 0.200
v 0.027207 0.138281 0.038589 0.180 0.500 0.200
v 0.025769 0.135962 0.041178 0.180 0.500 0.200
v 0.023410 0.133644 0.043610 0.180 0.500 0.200
v 0.020228 0.131325 0.045904 0.180 0.500 0.200
v 0.016368 0.129007 0.048082 0.180 0.500 0.200
v 0.012012 0.126688 0.050177 0.180 0.500 0.200
v 0.007375 0.124369 0.052224 0.180 0.500 0.200
v 0.002695 0.122051 0.054264 0.180 0.500 0.200
v -0.001769 0.119732 0.056340 0.180 0.500 0.200
v -0.005739 0.117414 0.058500 0.180 0.500 0.200
v -0.008897 0.115095 0.060797 0.180 0.500 0.200
v -0.010718 0.112776 0.063321 0.180 0.500 0.200
v -0.011607 0.115095 0.060339 0.180 0.500 0.200
v -0.013833 0.117414 0.057130 0.180 0.500 0.200
v -0.016871 0.119732 0.053784 0.180 0.500 0.200
v -0.020403 0.122051 0.050354 0.180 0.500 0.200
v -0.024151 0.124369 0.046888 0.180 0.500 0.200
v -0.027856 0.126688 0.043428 0.180 0.500 0.200
v -0.031280 0.129007 0.040017 0.180 0.500 0.200
v -0.034208 0.131325 0.036689 0.180 0.500 0.200
v -0.036458 0.133644 0.033477 0.180 0.500 0.200
v -0.037885 0.135962 0.030403 0.180 0.500 0.200
v -0.038392 0.138281 0.027485 0.180 0.500 0.200
v -0.037926 0.140599 0.024732 0.180 0.500 0.200
v -0.036487 0.142918 0.022144 0.180 0.500 0.200
v -0.034128 0.145237 0.019711 0.180 0.500 0.200
v -0.030946 0.147555 0.017418 0.180 0.500 0.200
v -0.027086 0.149874 0.015239 0.180 0.500 0.200
v -0.022730 0.152192 0.013144 0.180 0.500 0.200
v -0.018093 0.154511 0.011097 0.180 0.500 0.200
v -0.013413 0.156830 0.009058 0.180 0.500 0.200
v -0.008949 0.159148 0.006981 0.180 0.500 0.200
v -0.004979 0.161467 0.004821 0.180 0.500 0.200
v -0.001821 0.163785 0.002524 0.180 0.500 0.200
f 488 489 490
f 488 490 489
f 488 490 491
f 488 491 490
f 488 491 492
f 488 492 491
f 488 492 493
f 488 493 492
f 488 493 494
f 488 494 493
f 488 494 495
f 488 495 494
f 488 495 496
f 488 496 495
f 488 496 497
f 488 497 496
f 488 497 498
f 488 498 497
f 488 498 499
f 488 499 498
f 488 499 500
f 488 500 499
f 488 500 501
f 488 501 500
f 488 501 502
f 488 502 501
f 488 502 503
f 488 503 502
f 488 503 504
f 488 504 503
f 488 504 505
f 488 505 504
f 488 505 506
f 488 506 505
f 488 506 507
f 488 507 506
f 488 507 508
f 488 508 507
f 488 508 509
f 488 509 508
f 488 509 510
f 488 510 509
f 488 510 511
f 488 511 510
f 488 511 512
f 488 512 511
f 488 512 513
f 488 513 512
f 488 513 514
f 488 514 513
f 488 514 515
f 488 515 514
f 488 515 516
f 488 516 515
f 488 516 517
f 488 517 516
f 488 517 518
f 488 518 517
f 488 518 519
f 488 519 518
f 488 519 520
f 488 520 519
f 488 520 521
f 488 521 520
f 488 521 522
f 488 522 521
f 488 522 523
f 488 523 522
f 488 523 524
f 488 524 523
f 488 524 525
f 488 525 524
f 488 525 526
f 488 526 525
f 488 526 527
f 488 527 526
f 488 527 528
f 488 528 527
f 488 528 529
f 488 529 528
f 488 529 530
f 488 530 529
f 488 530 531
f 488 531 530
f 488 531 532
f 488 532 531
f 488 532 533
f 488 533 532
v 0.000000 0.166104 -0.000000 0.180 0.500 0.200
v 0.002142 0.164984 0.002462 0.180 0.500 0.200
v 0.005423 0.163865 0.004530 0.180 0.500 0.200
v 0.009397 0.162745 0.006360 0.180 0.500 0.200
v 0.013791 0.161626 0.008044 0.180 0.500 0.200
v 0.018370 0.160506 0.009665 0.180 0.500 0.200
v 0.022912 0.159386 0.011298 0.180 0.500 0.200
v 0.027214 0.158267 0.013014 0.180 0.500 0.200
v 0.031094 0.157147 0.014876 0.180 0.500 0.200
v 0.034395 0.156028 0.016938 0.180 0.500 0.200
v 0.036996 0.154908 0.019241 0.180 0.500 0.200
v 0.038812 0.153788 0.021816 0.180 0.500 0.200
v 0.039799 0.152669 0.024676 0.180 0.500 0.200
v 0.039958 0.151549 0.027822 0.180 0.500 0.200
v 0.039331 0.150430 0.031239 0.180 0.500 0.200
v 0.038004 0.149310 0.034898 0.180 0.500 0.200
v 0.036099 0.148191 0.038757 0.180 0.500 0.200
v 0.033770 0.147071 0.042761 0.180 0.500 0.200
v 0.031202 0.145951 0.046849 0.180 0.500 0.200
v 0.028598 0.144832 0.050948 0.180 0.500 0.200
v 0.026178 0.143712 0.054984 0.180 0.500 0.200
v 0.024179 0.142593 0.058875 0.180 0.500 0.200
v 0.022872 0.141473 0.062527 0.180 0.500 0.200
v 0.022704 0.140353 0.065786 0.180 0.500 0.200
v 0.020562 0.141473 0.063325 0.180 0.500 0.200
v 0.017281 0.142593 0.061256 0.180 0.500 0.200
v 0.013308 0.143712 0.059426 0.180 0.500 0.200
v 0.008913 0.144832 0.057742 0.180 0.500 0.200
v 0.004335 0.145951 0.056121 0.180 0.500 0.200
v -0.000208 0.147071 0.054488 0.180 0.500 0.200
v -0.004510 0.148191 0.052772 0.180 0.500 0.200
v -0.008390 0.149310 0.050910 0.180 0.500 0.200
v -0.011691 0.150430 0.048848 0.180 0.500 0.200
v -0.014292 0.151549 0.046545 0.180 0.500 0.200
v -0.016108 0.152669 0.043971 0.180 0.500 0.200
v -0.017095 0.153788 0.041110 0.180 0.500 0.200
v -0.017254 0.154908 0.037964 0.180 0.500 0.200
v -0.016627 0.156028 0.034547 0.180 0.500 0.200
v -0.015300 0.157147 0.030888 0.180 0.500 0.200
v -0.013394 0.158267 0.027029 0.180 0.500 0.200
v -0.011066 0.159386 0.023025 0.180 0.500 0.200
v -0.008498 0.160506 0.018938 0.180 0.500 0.200
v -0.005894 0.161626 0.014838 0.180 0.500 0.200
v -0.003474 0.162745 0.010802 0.180 0.500 0.200
v -0.001475 0.163865 0.006911 0.180 0.500 0.200
v -0.000168 0.164984 0.003259 0.180 0.500 0.200
f 534 535 536
f 534 536 535
f 534 536 537
f 534 537 536
f 534 537 538
f 534 538 537
f 534 538 539
f 534 539 538
f 534 539 540
f 534 540 539
f 534 540 541
f 534 541 540
f 534 541 542
f 534 542 541
f 534 542 543
f 534 543 542
f 534 543 544
f 534 544 543
f 534 544 545
f 534 545 544
f 534 545 546
f 534 546 545
f 534 546 547
f 534 547 546
f 534 547 548
f 534 548 547
f 534 548 549
f 534 549 548
f 534 549 550
f 534 550 549
f 534 550 551
f 534 551 550
f 534 551 552
f 534 552 551
f 534 552 553
f 534 553 552
f 534 553 554
f 534 554 553
f 534 554 555
f 534 555 554
f 534 555 556
f 534 556 555
f 534 556 557
f 534 557 556
f 534 557 558
f 534 558 557
f 534 558 559
f 534 559 558
f 534 559 560
f 534 560 559
f 534 560 561
f 534 561 560
f 534 561 562
f 534 562 561
f 534 562 563
f 534 563 562
f 534 563 564
f 534 564 563
f 534 564 565
f 534 565 564
f 534 565 566
f 534 566 565
f 534 566 567
f 534 567 566
f 534 567 568
f 534 568 567
f 534 568 569
f 534 569 568
f 534 569 570
f 534 570 569
f 534 570 571
f 534 571 570
f 534 571 572
f 534 572 571
f 534 572 573
f 534 573 572
f 534 573 574
f 534 574 573
f 534 574 575
f 534 575 574
f 534 575 576
f 534 576 575
f 534 576 577
f 534 577 576
f 534 577 578
f 534 578 577
f 534 578 579
f 534 579 578
v 0.000000 0.304524 -0.000000 0.180 0.500 0.200
v 0.002045 0.302220 -0.002798 0.180 0.500 0.200
v 0.003393 0.299917 -0.006872 0.180 0.500 0.200
v 0.004317 0.297613 -0.011720 0.180 0.500 0.200
v 0.004983 0.295310 -0.017040 0.180 0.500 0.200
v 0.005537 0.293006 -0.022566 0.180 0.500 0.200
v 0.006113 0.290702 -0.028052 0.180 0.500 0.200
v 0.006835 0.288399 -0.033269 0.180 0.500 0.200
v 0.007817 0.286095 -0.038012 0.180 0.500 0.200
v 0.009152 0.283792 -0.042109 0.180 0.500 0.200
v 0.010916 0.281488 -0.045420 0.180 0.500 0.200
v 0.013162 0.279185 -0.047853 0.180 0.500 0.200
v 0.015914 0.276881 -0.049358 0.180 0.500 0.200
v 0.019173 0.274577 -0.049935 0.180 0.500 0.200
v 0.022914 0.272274 -0.049633 0.180 0.500 0.200
v 0.027083 0.269970 -0.048547 0.180 0.500 0.200
v 0.031606 0.267667 -0.046813 0.180 0.500 0.200
v 0.036388 0.265363 -0.044606 0.180 0.500 0.200
v 0.041317 0.263060 -0.042131 0.180 0.500 0.200
v 0.046268 0.260756 -0.039615 0.180 0.500 0.200
v 0.051106 0.258452 -0.037305 0.180 0.500 0.200
v 0.055687 0.256149 -0.035466 0.180 0.500 0.200
v 0.059844 0.253845 -0.034403 0.180 0.500 0.200
v 0.063303 0.251542 -0.034614 0.180 0.500 0.200
v 0.061258 0.253845 -0.031816 0.180 0.500 0.200
v 0.059910 0.256149 -0.027743 0.180 0.500 0.200
v 0.058986 0.258452 -0.022894 0.180 0.500 0.200
v 0.058320 0.260756 -0.017574 0.180 0.500 0.200
v 0.057766 0.263060 -0.012048 0.180 0.500 0.200
v 0.057191 0.265363 -0.006563 0.180 0.500 0.200
v 0.056468 0.267667 -0.001346 0.180 0.500 0.200
v 0.055487 0.269970 0.003398 0.180 0.500 0.200
v 0.054151 0.272274 0.007494 0.180 0.500 0.200
v 0.052387 0.274577 0.010806 0.180 0.500 0.200
v 0.050142 0.276881 0.013239 0.180 0.500 0.200
v 0.047389 0.279185 0.014744 0.180 0.500 0.200
v 0.044130 0.281488 0.015321 0.180 0.500 0.200
v 0.040390 0.283792 0.015019 0.180 0.500 0.200
v 0.036220 0.286095 0.013933 0.180 0.500 0.200
v 0.031697 0.288399 0.012199 0.180 0.500 0.200
v 0.026915 0.290702 0.009992 0.180 0.500 0.200
v 0.021986 0.293006 0.007516 0.180 0.500 0.200
v 0.017035 0.295310 0.005000 0.180 0.500 0.200
v 0.012197 0.297613 0.002690 0.180 0.500 0.200
v 0.007616 0.299917 0.000852 0.180 0.500 0.200
v 0.003459 0.302220 -0.000212 0.180 0.500 0.200
f 580 581 582
f 580 582 581
f 580 582 583
f 580 583 582
f 580 583 584
f 580 584 583
f 580 584 585
f 580 585 584
f 580 585 586
f 580 586 585
f 580 586 587
f 580 587 586
f 580 587 588
f 580 588 587
f 580 588 589
f 580 589 588
f 580 589 590
f 580 590 589
f 580 590 591
f 580 591 590
f 580 591 592
f 580 592 591
f 580 592 593
f 580 593 592
f 580 593 594
f 580 594 593
f 580 594 595
f 580 595 594
f 580 595 596
f 580 596 595
f 580 596 597
f 580 597 596
f 580 597 598
f 580 598 597
f 580 598 599
f 580 599 598
f 580 599 600
f 580 600 599
f 580 600 601
f 580 601 600
f 580 601 602
f 580 602 601
f 580 602 603
f 580 603 602
f 580 603 604
f 580 604 603
f 580 604 605
f 580 605 604
f 580 605 606
f 580 606 605
f 580 606 607
f 580 607 606
f 580 607 608
f 580 608 607
f 580 608 609
f 580 609 608
f 580 609 610
f 580 610 609
f 580 610 611
f 580 611 610
f 580 611 612
f 580 612 611
f 580 612 613
f 580 613 612
f 580 613 614
f 580 614 613
f 580 614 615
f 580 615 614
f 580 615 616
f 580 616 615
f 580 616 617
f 580 617 616
f 580 617 618
f 580 618 617
f 580 618 619
f 580 619 618
f 580 619 620
f 580 620 619
f 580 620 621
f 580 621 620
f 580 621 622
f 580 622 621
f 580 622 623
f 580 623 622
f 580 623 624
f 580 624 623
f 580 624 625
f 580 625 624
v 0.000000 0.304524 -0.000000 0.180 0.500 0.200
v 0.000426 0.302434 -0.003169 0.180 0.500 0.200
v -0.000272 0.300345 -0.007058 0.180 0.500 0.200
v -0.001651 0.298255 -0.011385 0.180 0.500 0.200
v -0.003445 0.296165 -0.015978 0.180 0.500 0.200
v -0.005421 0.294076 -0.020687 0.180 0.500 0.200
v -0.007362 0.291986 -0.025374 0.180 0.500 0.200
v -0.009066 0.289896 -0.029909 0.180 0.500 0.200
v -0.010353 0.287807 -0.034176 0.180 0.500 0.200
v -0.011070 0.285717 -0.038078 0.180 0.500 0.200
v -0.011096 0.283628 -0.041537 0.180 0.500 0.200
v -0.010349 0.281538 -0.044499 0.180 0.500 0.200
v -0.008785 0.279448 -0.046938 0.180 0.500 0.200
v -0.006404 0.277359 -0.048852 0.180 0.500 0.200
v -0.003249 0.275269 -0.050270 0.180 0.500 0.200
v 0.000597 0.273179 -0.051244 0.180 0.500 0.200
v 0.005013 0.271090 -0.051853 0.180 0.500 0.200
v 0.009845 0.269000 -0.052195 0.180 0.500 0.200
v 0.014914 0.266911 -0.052385 0.180 0.500 0.200
v 0.020019 0.264821 -0.052552 0.180 0.500 0.200
v 0.024942 0.262731 -0.052835 0.180 0.500 0.200
v 0.029449 0.260642 -0.053385 0.180 0.500 0.200
v 0.033275 0.258552 -0.054372 0.180 0.500 0.200
v 0.035978 0.256462 -0.056080 0.180 0.500 0.200
v 0.035552 0.258552 -0.052911 0.180 0.500 0.200
v 0.036250 0.260642 -0.049022 0.180 0.500 0.200
v 0.037629 0.262731 -0.044695 0.180 0.500 0.200
v 0.039424 0.264821 -0.040102 0.180 0.500 0.200
v 0.041400 0.266911 -0.035393 0.180 0.500 0.200
v 0.043340 0.269000 -0.030706 0.180 0.500 0.200
v 0.045044 0.271090 -0.026171 0.180 0.500 0.200
v 0.046331 0.273179 -0.021904 0.180 0.500 0.200
v 0.047048 0.275269 -0.018002 0.180 0.500 0.200
v 0.047075 0.277359 -0.014543 0.180 0.500 0.200
v 0.046327 0.279448 -0.011581 0.180 0.500 0.200
v 0.044763 0.281538 -0.009142 0.180 0.500 0.200
v 0.042382 0.283628 -0.007228 0.180 0.500 0.200
v 0.039227 0.285717 -0.005810 0.180 0.500 0.200
v 0.035381 0.287807 -0.004836 0.180 0.500 0.200
v 0.030965 0.289896 -0.004227 0.180 0.500 0.200
v 0.026133 0.291986 -0.003885 0.180 0.500 0.200
v 0.021064 0.294076 -0.003695 0.180 0.500 0.200
v 0.015960 0.296165 -0.003528 0.180 0.500 0.200
v 0.011037 0.298255 -0.003245 0.180 0.500 0.200
v 0.006529 0.300345 -0.002695 0.180 0.500 0.200
v 0.002703 0.302434 -0.001708 0.180 0.500 0.200
f 626 627 628
f 626 628 627
f 626 628 629
f 626 629 628
f 626 629 630
f 626 630 629
f 626 630 631
f 626 631 630
f 626 631 632
f 626 632 631
f 626 632 633
f 626 633 632
f 626 633 634
f 626 634 633
f 626 634 635
f 626 635 634
f 626 635 636
f 626 636 635
f 626 636 637
f 626 637 636
f 626 637 638
f 626 638 637
f 626 638 639
f 626 639 638
f 626 639 640
f 626 640 639
f 626 640 641
f 626 641 640
f 626 641 642
f 626 642 641
f 626 642 643
f 626 643 642
f 626 643 644
f 626 644 643
f 626 644 645
f 626 645 644
f 626 645 646
f 626 646 645
f 626 646 647
f 626 647 646
f 626 647 648
f 626 648 647
f 626 648 649
f 626 649 648
f 626 649 650
f 626 650 649
f 626 650 651
f 626 651 650
f 626 651 652
f 626 652 651
f 626 652 653
f 626 653 652
f 626 653 654
f 626 654 653
f 626 654 655
f 626 655 654
f 626 655 656
f 626 656 655
f 626 656 657
f 626 657 656
f 626 657 658
f 626 658 657
f 626 658 659
f 626 659 658
f 626 659 660
f 626 660 659
f 626 660 661
f 626 661 660
f 626 661 662
f 626 662 661
f 626 662 663
f 626 663 662
f 626 663 664
f 626 664 663
f 626 664 665
f 626 665 664
f 626 665 666
f 626 666 665
f 626 666 667
f 626 667 666
f 626 667 668
f 626 668 667
f 626 668 669
f 626 669 668
f 626 669 670
f 626 670 669
f 626 670 671
f 626 671 670
v 0.000000 0.304524 -0.000000 0.180 0.500 0.200
v -0.001227 0.302296 -0.003206 0.180 0.500 0.200
v -0.003880 0.300069 -0.006513 0.180 0.500 0.200
v -0.007398 0.297842 -0.009881 0.180 0.500 0.200
v -0.011444 0.295614 -0.013286 0.180 0.500 0.200
v -0.015721 0.293387 -0.016707 0.180 0.500 0.200
v -0.019952 0.291160 -0.020125 0.180 0.500 0.200
v -0.023883 0.288932 -0.023522 0.180 0.500 0.200
v -0.027284 0.286705 -0.026882 0.180 0.500 0.200
v -0.029962 0.284477 -0.030191 0.180 0.500 0.200
v -0.031763 0.282250 -0.033437 0.180 0.500 0.200
v -0.032582 0.280023 -0.036615 0.180 0.500 0.200
v -0.032363 0.277795 -0.039719 0.180 0.500 0.200
v -0.031107 0.275568 -0.042750 0.180 0.500 0.200
v -0.028868 0.273340 -0.045712 0.180 0.500 0.200
v -0.025752 0.271113 -0.048612 0.180 0.500 0.200
v -0.021912 0.268886 -0.051461 0.180 0.500 0.200
v -0.017544 0.266658 -0.054272 0.180 0.500 0.200
v -0.012875 0.264431 -0.057063 0.180 0.500 0.200
v -0.008160 0.262203 -0.059850 0.180 0.500 0.200
v -0.003676 0.259976 -0.062653 0.180 0.500 0.200
v 0.000280 0.257749 -0.065494 0.180 0.500 0.200
v 0.003371 0.255521 -0.068396 0.180 0.500 0.200
v 0.005036 0.253294 -0.071398 0.180 0.500 0.200
v 0.006262 0.255521 -0.068192 0.180 0.500 0.200
v 0.008915 0.257749 -0.064885 0.180 0.500 0.200
v 0.012434 0.259976 -0.061517 0.180 0.500 0.200
v 0.016480 0.262203 -0.058112 0.180 0.500 0.200
v 0.020756 0.264431 -0.054691 0.180 0.500 0.200
v 0.024987 0.266658 -0.051273 0.180 0.500 0.200
v 0.028918 0.268886 -0.047876 0.180 0.500 0.200
v 0.032320 0.271113 -0.044516 0.180 0.500 0.200
v 0.034998 0.273340 -0.041207 0.180 0.500 0.200
v 0.036799 0.275568 -0.037961 0.180 0.500 0.200
v 0.037617 0.277795 -0.034783 0.180 0.500 0.200
v 0.037398 0.280023 -0.031679 0.180 0.500 0.200
v 0.036142 0.282250 -0.028648 0.180 0.500 0.200
v 0.033903 0.284477 -0.025686 0.180 0.500 0.200
v 0.030787 0.286705 -0.022786 0.180 0.500 0.200
v 0.026948 0.288932 -0.019937 0.180 0.500 0.200
v 0.022579 0.291160 -0.017126 0.180 0.500 0.200
v 0.017910 0.293387 -0.014335 0.180 0.500 0.200
v 0.013196 0.295614 -0.011548 0.180 0.500 0.200
v 0.008712 0.297842 -0.008745 0.180 0.500 0.200
v 0.004755 0.300069 -0.005904 0.180 0.500 0.200
v 0.001665 0.302296 -0.003002 0.180 0.500 0.200
f 672 673 674
f 672 674 673
f 672 674 675
f 672 675 674
f 672 675 676
f 672 676 675
f 672 676 677
f 672 677 676
f 672 677 678
f 672 678 677
f 672 678 679
f 672 679 678
f 672 679 680
f 672 680 679
f 672 680 681
f 672 681 680
f 672 681 682
f 672 682 681
f 672 682 683
f 672 683 682
f 672 683 684
f 672 684 683
f 672 684 685
f 672 685 684
f 672 685 686
f 672 686 685
f 672 686 687
f 672 687 686
f 672 687 688
f 672 688 687
f 672 688 689
f 672 689 688
f 672 689 690
f 672 690 689
f 672 690 691
f 672 691 690
f 672 691 692
f 672 692 691
f 672 692 693
f 672 693 692
f 672 693 694
f 672 694 693
f 672 694 695
f 672 695 694
f 672 695 696
f 672 696 695
f 672 696 697
f 672 697 696
f 672 697 698
f 672 698 697
f 672 698 699
f 672 699 698
f 672 699 700
f 672 700 699
f 672 700 701
f 672 701 700
f 672 701 702
f 672 702 701
f 672 702 703
f 672 703 702
f 672 703 704
f 672 704 703
f 672 704 705
f 672 705 704
f 672 705 706
f 672 706 705
f 672 706 707
f 672 707 706
f 672 707 708
f 672 708 707
f 672 708 709
f 672 709 708
f 672 709 710
f 672 710 709
f 672 710 711
f 672 711 710
f 672 711 712
f 672 712 711
f 672 712 713
f 672 713 712
f 672 713 714
f 672 714 713
f 672 714 715
f 672 715 714
f 672 715 716
f 672 716 715
f 672 716 717
f 672 717 716
v 0.000000 0.431870 -0.000000 0.180 0.500 0.200
v -0.002790 0.430242 -0.002293 0.180 0.500 0.200
v -0.006804 0.428613 -0.003942 0.180 0.500 0.200
v -0.011563 0.426985 -0.005200 0.180 0.500 0.200
v -0.016774 0.425356 -0.006221 0.180 0.500 0.200
v -0.022184 0.423728 -0.007137 0.180 0.500 0.200
v -0.027554 0.422100 -0.008074 0.180 0.500 0.200
v -0.032667 0.420471 -0.009146 0.180 0.500 0.200
v -0.037325 0.418843 -0.010457 0.180 0.500 0.200
v -0.041361 0.417214 -0.012095 0.180 0.500 0.200
v -0.044644 0.415586 -0.014129 0.180 0.500 0.200
v -0.047082 0.413957 -0.016606 0.180 0.500 0.200
v -0.048630 0.412329 -0.019552 0.180 0.500 0.200
v -0.049287 0.410700 -0.022965 0.180 0.500 0.200
v -0.049100 0.409072 -0.026823 0.180 0.500 0.200
v -0.048159 0.407444 -0.031076 0.180 0.500 0.200
v -0.046596 0.405815 -0.035656 0.180 0.500 0.200
v -0.044579 0.404187 -0.040474 0.180 0.500 0.200
v -0.042304 0.402558 -0.045428 0.180 0.500 0.200
v -0.039991 0.400930 -0.050403 0.180 0.500 0.200
v -0.037875 0.399301 -0.055274 0.180 0.500 0.200
v -0.036212 0.397673 -0.059906 0.180 0.500 0.200
v -0.035292 0.396044 -0.064148 0.180 0.500 0.200
v -0.035598 0.394416 -0.067746 0.180 0.500 0.200
v -0.032809 0.396044 -0.065453 0.180 0.500 0.200
v -0.028794 0.397673 -0.063804 0.180 0.500 0.200
v -0.024035 0.399301 -0.062546 0.180 0.500 0.200
v -0.018824 0.400930 -0.061525 0.180 0.500 0.200
v -0.013415 0.402558 -0.060609 0.180 0.500 0.200
v -0.008044 0.404187 -0.059672 0.180 0.500 0.200
v -0.002932 0.405815 -0.058600 0.180 0.500 0.200
v 0.001726 0.407444 -0.057289 0.180 0.500 0.200
v 0.005763 0.409072 -0.055651 0.180 0.500 0.200
v 0.009046 0.410700 -0.053617 0.180 0.500 0.200
v 0.011484 0.412329 -0.051140 0.180 0.500 0.200
v 0.013032 0.413957 -0.048194 0.180 0.500 0.200
v 0.013689 0.415586 -0.044781 0.180 0.500 0.200
v 0.013501 0.417214 -0.040923 0.180 0.500 0.200
v 0.012561 0.418843 -0.036670 0.180 0.500 0.200
v 0.010998 0.420471 -0.032091 0.180 0.500 0.200
v 0.008981 0.422100 -0.027272 0.180 0.500 0.200
v 0.006706 0.423728 -0.022318 0.180 0.500 0.200
v 0.004392 0.425356 -0.017343 0.180 0.500 0.200
v 0.002276 0.426985 -0.012472 0.180 0.500 0.200
v 0.000613 0.428613 -0.007840 0.180 0.500 0.200
v -0.000306 0.430242 -0.003598 0.180 0.500 0.200
f 718 719 720
f 718 720 719
f 718 720 721
f 718 721 720
f 718 721 722
f 718 722 721
f 718 722 723
f 718 723 722
f 718 723 724
f 718 724 723
f 718 724 725
f 718 725 724
f 718 725 726
f 718 726 725
f 718 726 727
f 718 727 726
f 718 727 728
f 718 728 727
f 718 728 729
f 718 729 728
f 718 729 730
f 718 730 729
f 718 730 731
f 718 731 730
f 718 731 732
f 718 732 731
f 718 732 733
f 718 733 732
f 718 733 734
f 718 734 733
f 718 734 735
f 718 735 734
f 718 735 736
f 718 736 735
f 718 736 737
f 718 737 736
f 718 737 738
f 718 738 737
f 718 738 739
f 718 739 738
f 718 739 740
f 718 740 739
f 718 740 741
f 718 741 740
f 718 741 742
f 718 742 741
f 718 742 743
f 718 743 742
f 718 743 744
f 718 744 743
f 718 744 745
f 718 745 744
f 718 745 746
f 718 746 745
f 718 746 747
f 718 747 746
f 718 747 748
f 718 748 747
f 718 748 749
f 718 749 748
f 718 749 750
f 718 750 749
f 718 750 751
f 718 751 750
f 718 751 752
f 718 752 751
f 718 752 753
f 718 753 752
f 718 753 754
f 718 754 753
f 718 754 755
f 718 755 754
f 718 755 756
f 718 756 755
f 718 756 757
f 718 757 756
f 718 757 758
f 718 758 757
f 718 758 759
f 718 759 758
f 718 759 760
f 718 760 759
f 718 760 761
f 718 761 760
f 718 761 762
f 718 762 761
f 718 762 763
f 718 763 762
v 0.000000 0.431870 -0.000000 0.180 0.500 0.200
v -0.002409 0.430192 -0.000345 0.180 0.500 0.200
v -0.005389 0.428514 0.000170 0.180 0.500 0.200
v -0.008717 0.426836 0.001207 0.180 0.500 0.200
v -0.012257 0.425157 0.002562 0.180 0.500 0.200
v -0.015888 0.423479 0.004055 0.180 0.500 0.200
v -0.019502 0.421801 0.005522 0.180 0.500 0.200
v -0.022995 0.420123 0.006807 0.180 0.500 0.200
v -0.026276 0.418445 0.007773 0.180 0.500 0.200
v -0.029267 0.416767 0.008303 0.180 0.500 0.200
v -0.031906 0.415088 0.008305 0.180 0.500 0.200
v -0.034151 0.413410 0.007713 0.180 0.500 0.200
v -0.035980 0.411732 0.006497 0.180 0.500 0.200
v -0.037393 0.410054 0.004655 0.180 0.500 0.200
v -0.038411 0.408376 0.002220 0.180 0.500 0.200
v -0.039078 0.406698 -0.000743 0.180 0.500 0.200
v -0.039455 0.405019 -0.004142 0.180 0.500 0.200
v -0.039620 0.403341 -0.007861 0.180 0.500 0.200
v -0.039664 0.401663 -0.011760 0.180 0.500 0.200
v -0.039690 0.399985 -0.015687 0.180 0.500 0.200
v -0.039809 0.398307 -0.019475 0.180 0.500 0.200
v -0.040139 0.396629 -0.022945 0.180 0.500 0.200
v -0.040816 0.394950 -0.025893 0.180 0.500 0.200
v -0.042065 0.393272 -0.027981 0.180 0.500 0.200
v -0.039656 0.394950 -0.027636 0.180 0.500 0.200
v -0.036676 0.396629 -0.028151 0.180 0.500 0.200
v -0.033348 0.398307 -0.029188 0.180 0.500 0.200
v -0.029808 0.399985 -0.030543 0.180 0.500 0.200
v -0.026176 0.401663 -0.032037 0.180 0.500 0.200
v -0.022563 0.403341 -0.033503 0.180 0.500 0.200
v -0.019070 0.405019 -0.034788 0.180 0.500 0.200
v -0.015789 0.406698 -0.035755 0.180 0.500 0.200
v -0.012798 0.408376 -0.036285 0.180 0.500 0.200
v -0.010159 0.410054 -0.036286 0.180 0.500 0.200
v -0.007914 0.411732 -0.035695 0.180 0.500 0.200
v -0.006085 0.413410 -0.034478 0.180 0.500 0.200
v -0.004672 0.415088 -0.032636 0.180 0.500 0.200
v -0.003653 0.416767 -0.030202 0.180 0.500 0.200
v -0.002986 0.418445 -0.027239 0.180 0.500 0.200
v -0.002610 0.420123 -0.023839 0.180 0.500 0.200
v -0.002445 0.421801 -0.020121 0.180 0.500 0.200
v -0.002401 0.423479 -0.016221 0.180 0.500 0.200
v -0.002375 0.425157 -0.012294 0.180 0.500 0.200
v -0.002256 0.426836 -0.008506 0.180 0.500 0.200
v -0.001926 0.428514 -0.005036 0.180 0.500 0.200
v -0.001249 0.430192 -0.002088 0.180 0.500 0.200
f 764 765 766
f 764 766 765
f 764 766 767
f 764 767 766
f 764 767 768
f 764 768 767
f 764 768 769
f 764 769 768
f 764 769 770
f 764 770 769
f 764 770 771
f 764 771 770
f 764 771 772
f 764 772 771
f 764 772 773
f 764 773 772
f 764 773 774
f 764 774 773
f 764 774 775
f 764 775 774
f 764 775 776
f 764 776 775
f 764 776 777
f 764 777 776
f 764 777 778
f 764 778 777
f 764 778 779
f 764 779 778
f 764 779 780
f 764 780 779
f 764 780 781
f 764 781 780
f 764 781 782
f 764 782 781
f 764 782 783
f 764 783 782
f 764 783 784
f 764 784 783
f 764 784 785
f 764 785 784
f 764 785 786
f 764 786 785
f 764 786 787
f 764 787 786
f 764 787 788
f 764 788 787
f 764 788 789
f 764 789 788
f 764 789 790
f 764 790 789
f 764 790 791
f 764 791 790
f 764 791 792
f 764 792 791
f 764 792 793
f 764 793 792
f 764 793 794
f 764 794 793
f 764 794 795
f 764 795 794
f 764 795 796
f 764 796 795
f 764 796 797
f 764 797 796
f 764 797 798
f 764 798 797
f 764 798 799
f 764 799 798
f 764 799 800
f 764 800 799
f 764 800 801
f 764 801 800
f 764 801 802
f 764 802 801
f 764 802 803
f 764 803 802
f 764 803 804
f 764 804 803
f 764 804 805
f 764 805 804
f 764 805 806
f 764 806 805
f 764 806 807
f 764 807 806
f 764 807 808
f 764 808 807
f 764 808 809
f 764 809 808
v 0.000000 0.431870 -0.000000 0.180 0.500 0.200
v -0.002834 0.429783 0.001060 0.180 0.500 0.200
v -0.005779 0.427696 0.003398 0.180 0.500 0.200
v -0.008792 0.425609 0.006514 0.180 0.500 0.200
v -0.011847 0.423522 0.010102 0.180 0.500 0.200
v -0.014919 0.421435 0.013897 0.180 0.500 0.200
v -0.017988 0.419348 0.017652 0.180 0.500 0.200
v -0.021033 0.417260 0.021137 0.180 0.500 0.200
v -0.024037 0.415173 0.024147 0.180 0.500 0.200
v -0.026984 0.413086 0.026508 0.180 0.500 0.200
v -0.029863 0.410999 0.028083 0.180 0.500 0.200
v -0.032665 0.408912 0.028776 0.180 0.500 0.200
v -0.035386 0.406825 0.028539 0.180 0.500 0.200
v -0.038025 0.404738 0.027371 0.180 0.500 0.200
v -0.040588 0.402651 0.025322 0.180 0.500 0.200
v -0.043082 0.400564 0.022486 0.180 0.500 0.200
v -0.045520 0.398476 0.019001 0.180 0.500 0.200
v -0.047916 0.396389 0.015042 0.180 0.500 0.200
v -0.050289 0.394302 0.010813 0.180 0.500 0.200
v -0.052658 0.392215 0.006543 0.180 0.500 0.200
v -0.055045 0.390128 0.002480 0.180 0.500 0.200
v -0.057473 0.388041 -0.001110 0.180 0.500 0.200
v -0.059969 0.385954 -0.003923 0.180 0.500 0.200
v -0.062577 0.383867 -0.005457 0.180 0.500 0.200
v -0.059743 0.385954 -0.006516 0.180 0.500 0.200
v -0.056798 0.388041 -0.008855 0.180 0.500 0.200
v -0.053785 0.390128 -0.011971 0.180 0.500 0.200
v -0.050730 0.392215 -0.015559 0.180 0.500 0.200
v -0.047658 0.394302 -0.019354 0.180 0.500 0.200
v -0.044589 0.396389 -0.023108 0.180 0.500 0.200
v -0.041544 0.398476 -0.026593 0.180 0.500 0.200
v -0.038540 0.400564 -0.029604 0.180 0.500 0.200
v -0.035592 0.402651 -0.031965 0.180 0.500 0.200
v -0.032714 0.404738 -0.033540 0.180 0.500 0.200
v -0.029912 0.406825 -0.034233 0.180 0.500 0.200
v -0.027191 0.408912 -0.033996 0.180 0.500 0.200
v -0.024552 0.410999 -0.032828 0.180 0.500 0.200
v -0.021989 0.413086 -0.030779 0.180 0.500 0.200
v -0.019495 0.415173 -0.027943 0.180 0.500 0.200
v -0.017057 0.417260 -0.024458 0.180 0.500 0.200
v -0.014661 0.419348 -0.020499 0.180 0.500 0.200
v -0.012288 0.421435 -0.016270 0.180 0.500 0.200
v -0.009919 0.423522 -0.012000 0.180 0.500 0.200
v -0.007532 0.425609 -0.007937 0.180 0.500 0.200
v -0.005104 0.427696 -0.004347 0.180 0.500 0.200
v -0.002608 0.429783 -0.001534 0.180 0.500 0.200
f 810 811 812
f 810 812 811
f 810 812 813
f 810 813 812
f 810 813 814
f 810 814 813
f 810 814 815
f 810 815 814
f 810 815 816
f 810 816 815
f 810 816 817
f 810 817 816
f 810 817 818
f 810 818 817
f 810 818 819
f 810 819 818
f 810 819 820
f 810 820 819
f 810 820 821
f 810 821 820
f 810 821 822
f 810 822 821
f 810 822 823
f 810 823 822
f 810 823 824
f 810 824 823
f 810 824 825
f 810 825 824
f 810 825 826
f 810 826 825
f 810 826 827
f 810 827 826
f 810 827 828
f 810 828 827
f 810 828 829
f 810 829 828
f 810 829 830
f 810 830 829
f 810 830 831
f 810 831 830
f 810 831 832
f 810 832 831
f 810 832 833
f 810 833 832
f 810 833 834
f 810 834 833
f 810 834 835
f 810 835 834
f 810 835 836
f 810 836 835
f 810 836 837
f 810 837 836
f 810 837 838
f 810 838 837
f 810 838 839
f 810 839 838
f 810 839 840
f 810 840 839
f 810 840 841
f 810 841 840
f 810 841 842
f 810 842 841
f 810 842 843
f 810 843 842
f 810 843 844
f 810 844 843
f 810 844 845
f 810 845 844
f 810 845 846
f 810 846 845
f 810 846 847
f 810 847 846
f 810 847 848
f 810 848 847
f 810 848 849
f 810 849 848
f 810 849 850
f 810 850 849
f 810 850 851
f 810 851 850
f 810 851 852
f 810 852 851
f 810 852 853
f 810 853 852
f 810 853 854
f 810 854 853
f 810 854 855
f 810 855 854
