o mesh
v 0.000000 0.000000 0.015000
v 0.008817 0.000000 0.012135
v 0.014266 0.000000 0.004635
v 0.014266 0.000000 -0.004635
v 0.008817 0.000000 -0.012135
v 0.000000 0.000000 -0.015000
v -0.008817 0.000000 -0.012135
v -0.014266 0.000000 -0.004635
v -0.014266 0.000000 0.004635
v -0.008817 0.000000 0.012135
v 0.000000 0.400000 0.010200
v 0.005995 0.400000 0.008252
v 0.009701 0.400000 0.003152
v 0.009701 0.400000 -0.003152
v 0.005995 0.400000 -0.008252
v 0.000000 0.400000 -0.010200
v -0.005995 0.400000 -0.008252
v -0.009701 0.400000 -0.003152
v -0.009701 0.400000 0.003152
v -0.005995 0.400000 0.008252
f 1 2 12
f 1 12 11
f 2 3 13
f 2 13 12
f 3 4 14
f 3 14 13
f 4 5 15
f 4 15 14
f 5 6 16
f 5 16 15
f 6 7 17
f 6 17 16
f 7 8 18
f 7 18 17
f 8 9 19
f 8 19 18
f 9 10 20
f 9 20 19
f 10 1 11
f 10 11 20
v 0.000421 0.400000 0.010191
v 0.004694 0.404118 0.008065
v 0.007174 0.406663 0.002858
v 0.006914 0.406663 -0.003440
v 0.004013 0.404118 -0.008425
v -0.000421 0.400000 -0.010191
v -0.004694 0.395882 -0.008065
v -0.007174 0.393337 -0.002858
v -0.006914 0.393337 0.003440
v -0.004013 0.395882 0.008425
v -0.199462 0.611529 0.015182
v -0.196557 0.614329 0.013736
v -0.194870 0.616060 0.010195
v -0.195047 0.616060 0.005912
v -0.197020 0.614329 0.002523
v -0.200035 0.611529 0.001321
v -0.202941 0.608728 0.002767
v -0.204627 0.606998 0.006308
v -0.204450 0.606998 0.010591
v -0.202477 0.608728 0.013980
f 21 22 32
f 21 32 31
f 22 23 33
f 22 33 32
f 23 24 34
f 23 34 33
f 24 25 35
f 24 35 34
f 25 26 36
f 25 36 35
f 26 27 37
f 26 37 36
f 27 28 38
f 27 38 37
f 28 29 39
f 28 39 38
f 29 30 40
f 29 40 39
f 30 21 31
f 30 31 40
v -0.199180 0.611529 0.015164
v -0.200451 0.615435 0.013940
v -0.201453 0.617850 0.010542
v -0.201805 0.617850 0.006270
v -0.201371 0.615435 0.002755
v -0.200317 0.611529 0.001339
v -0.199046 0.607622 0.002563
v -0.198044 0.605208 0.005961
v -0.197693 0.605208 0.010233
v -0.198126 0.607622 0.013748
v -0.409775 0.548512 0.030259
v -0.410639 0.551169 0.029427
v -0.411321 0.552810 0.027117
v -0.411560 0.552810 0.024211
v -0.411265 0.551169 0.021821
v -0.410548 0.548512 0.020858
v -0.409684 0.545856 0.021691
v -0.409003 0.544214 0.024001
v -0.408764 0.544214 0.026906
v -0.409059 0.545856 0.029297
f 41 42 52
f 41 52 51
f 42 43 53
f 42 53 52
f 43 44 54
f 43 54 53
f 44 45 55
f 44 55 54
f 45 46 56
f 45 56 55
f 46 47 57
f 46 57 56
f 47 48 58
f 47 58 57
f 48 49 59
f 48 59 58
f 49 50 60
f 49 60 59
f 50 41 51
f 50 51 60
v -0.410162 0.547924 0.020879
v -0.407476 0.547353 0.021859
v -0.405817 0.547225 0.024252
v -0.405817 0.547589 0.027144
v -0.407476 0.548305 0.029431
v -0.410162 0.549101 0.030238
v -0.412847 0.549672 0.029259
v -0.414507 0.549800 0.026866
v -0.414507 0.549436 0.023974
v -0.412847 0.548719 0.021687
v -0.457600 0.364554 0.045467
v -0.455774 0.364166 0.046133
v -0.454645 0.364079 0.047760
v -0.454645 0.364326 0.049727
v -0.455774 0.364814 0.051282
v -0.457600 0.365355 0.051831
v -0.459426 0.365743 0.051165
v -0.460554 0.365830 0.049537
v -0.460554 0.365582 0.047571
v -0.459426 0.365095 0.046016
f 61 62 72
f 61 72 71
f 62 63 73
f 62 73 72
f 63 64 74
f 63 74 73
f 64 65 75
f 64 75 74
f 65 66 76
f 65 76 75
f 66 67 77
f 66 77 76
f 67 68 78
f 67 78 77
f 68 69 79
f 68 79 78
f 69 70 80
f 69 80 79
f 70 61 71
f 70 71 80
v -0.457600 0.364954 0.048649
v -0.455715 0.365574 0.045586
v -0.452919 0.366004 0.042890
v -0.449272 0.366257 0.040536
v -0.444922 0.366364 0.038465
v -0.440080 0.366369 0.036593
v -0.435001 0.366325 0.034815
v -0.429961 0.366289 0.033022
v -0.425236 0.366318 0.031102
v -0.421079 0.366465 0.028954
v -0.417698 0.366773 0.026493
v -0.415243 0.367274 0.023660
v -0.413793 0.367984 0.020422
v -0.413347 0.368902 0.016781
v -0.413827 0.370013 0.012766
v -0.415084 0.371286 0.008439
v -0.416908 0.372676 0.003884
v -0.419047 0.374131 -0.000798
v -0.421225 0.375595 -0.005496
v -0.423166 0.377010 -0.010099
v -0.424616 0.378322 -0.014503
v -0.425362 0.379488 -0.018625
v -0.425257 0.380478 -0.022404
v -0.424241 0.381278 -0.025816
v -0.426126 0.380658 -0.022754
v -0.428922 0.380228 -0.020057
v -0.432569 0.379975 -0.017704
v -0.436919 0.379868 -0.015633
v -0.441761 0.379863 -0.013760
v -0.446840 0.379907 -0.011983
v -0.451880 0.379944 -0.010190
v -0.456605 0.379914 -0.008270
v -0.460762 0.379767 -0.006122
v -0.464143 0.379459 -0.003661
v -0.466598 0.378958 -0.000828
v -0.468048 0.378248 0.002410
v -0.468494 0.377330 0.006052
v -0.468014 0.376219 0.010066
v -0.466757 0.374946 0.014393
v -0.464933 0.373556 0.018949
v -0.462794 0.372101 0.023631
v -0.460616 0.370637 0.028329
v -0.458675 0.369222 0.032931
v -0.457225 0.367910 0.037336
v -0.456479 0.366744 0.041457
v -0.456584 0.365754 0.045236
f 81 82 83
f 81 83 82
f 81 83 84
f 81 84 83
f 81 84 85
f 81 85 84
f 81 85 86
f 81 86 85
f 81 86 87
f 81 87 86
f 81 87 88
f 81 88 87
f 81 88 89
f 81 89 88
f 81 89 90
f 81 90 89
f 81 90 91
f 81 91 90
f 81 91 92
f 81 92 91
f 81 92 93
f 81 93 92
f 81 93 94
f 81 94 93
f 81 94 95
f 81 95 94
f 81 95 96
f 81 96 95
f 81 96 97
f 81 97 96
f 81 97 98
f 81 98 97
f 81 98 99
f 81 99 98
f 81 99 100
f 81 100 99
f 81 100 101
f 81 101 100
f 81 101 102
f 81 102 101
f 81 102 103
f 81 103 102
f 81 103 104
f 81 104 103
f 81 104 105
f 81 105 104
f 81 105 106
f 81 106 105
f 81 106 107
f 81 107 106
f 81 107 108
f 81 108 107
f 81 108 109
f 81 109 108
f 81 109 110
f 81 110 109
f 81 110 111
f 81 111 110
f 81 111 112
f 81 112 111
f 81 112 113
f 81 113 112
f 81 113 114
f 81 114 113
f 81 114 115
f 81 115 114
f 81 115 116
f 81 116 115
f 81 116 117
f 81 117 116
f 81 117 118
f 81 118 117
f 81 118 119
f 81 119 118
f 81 119 120
f 81 120 119
f 81 120 121
f 81 121 120
f 81 121 122
f 81 122 121
f 81 122 123
f 81 123 122
f 81 123 124
f 81 124 123
f 81 124 125
f 81 125 124
f 81 125 126
f 81 126 125
v -0.457600 0.364954 0.048649
v -0.455839 0.366445 0.050989
v -0.454786 0.368191 0.053906
v -0.454346 0.370158 0.057324
v -0.454390 0.372299 0.061135
v -0.454753 0.374557 0.065207
v -0.455252 0.376863 0.069390
v -0.455693 0.379148 0.073525
v -0.455887 0.381344 0.077459
v -0.455664 0.383389 0.081053
v -0.454884 0.385234 0.084193
v -0.453449 0.386841 0.086799
v -0.451306 0.388194 0.088828
v -0.448457 0.389291 0.090281
v -0.444951 0.390152 0.091199
v -0.440889 0.390812 0.091664
v -0.436410 0.391321 0.091789
v -0.431684 0.391741 0.091712
v -0.426901 0.392140 0.091589
v -0.422252 0.392588 0.091575
v -0.417924 0.393151 0.091823
v -0.414078 0.393889 0.092464
v -0.410847 0.394849 0.093605
v -0.408323 0.396063 0.095323
v -0.410083 0.394573 0.092983
v -0.411137 0.392827 0.090066
v -0.411576 0.390860 0.086648
v -0.411533 0.388718 0.082837
v -0.411169 0.386461 0.078765
v -0.410670 0.384155 0.074582
v -0.410230 0.381870 0.070447
v -0.410036 0.379674 0.066513
v -0.410259 0.377629 0.062919
v -0.411038 0.375784 0.059779
v -0.412474 0.374176 0.057173
v -0.414616 0.372824 0.055144
v -0.417466 0.371727 0.053691
v -0.420971 0.370866 0.052773
v -0.425033 0.370206 0.052308
v -0.429512 0.369697 0.052183
v -0.434238 0.369277 0.052260
v -0.439022 0.368878 0.052383
v -0.443670 0.368430 0.052397
v -0.447998 0.367866 0.052149
v -0.451844 0.367129 0.051508
v -0.455076 0.366169 0.050367
f 127 128 129
f 127 129 128
f 127 129 130
f 127 130 129
f 127 130 131
f 127 131 130
f 127 131 132
f 127 132 131
f 127 132 133
f 127 133 132
f 127 133 134
f 127 134 133
f 127 134 135
f 127 135 134
f 127 135 136
f 127 136 135
f 127 136 137
f 127 137 136
f 127 137 138
f 127 138 137
f 127 138 139
f 127 139 138
f 127 139 140
f 127 140 139
f 127 140 141
f 127 141 140
f 127 141 142
f 127 142 141
f 127 142 143
f 127 143 142
f 127 143 144
f 127 144 143
f 127 144 145
f 127 145 144
f 127 145 146
f 127 146 145
f 127 146 147
f 127 147 146
f 127 147 148
f 127 148 147
f 127 148 149
f 127 149 148
f 127 149 150
f 127 150 149
f 127 150 151
f 127 151 150
f 127 151 152
f 127 152 151
f 127 152 153
f 127 153 152
f 127 153 154
f 127 154 153
f 127 154 155
f 127 155 154
f 127 155 156
f 127 156 155
f 127 156 157
f 127 157 156
f 127 157 158
f 127 158 157
f 127 158 159
f 127 159 158
f 127 159 160
f 127 160 159
f 127 160 161
f 127 161 160
f 127 161 162
f 127 162 161
f 127 162 163
f 127 163 162
f 127 163 164
f 127 164 163
f 127 164 165
f 127 165 164
f 127 165 166
f 127 166 165
f 127 166 167
f 127 167 166
f 127 167 168
f 127 168 167
f 127 168 169
f 127 169 168
f 127 169 170
f 127 170 169
f 127 170 171
f 127 171 170
f 127 171 172
f 127 172 171
v -0.457600 0.364954 0.048649
v -0.459979 0.366262 0.049539
v -0.462644 0.367568 0.049838
v -0.465631 0.368875 0.049470
v -0.468919 0.370180 0.048479
v -0.472445 0.371486 0.046999
v -0.476112 0.372791 0.045225
v -0.479807 0.374096 0.043393
v -0.483408 0.375401 0.041756
v -0.486798 0.376706 0.040554
v -0.489878 0.378012 0.039994
v -0.492576 0.379319 0.040224
v -0.494854 0.380626 0.041324
v -0.496711 0.381935 0.043294
v -0.498186 0.383243 0.046055
v -0.499351 0.384553 0.049456
v -0.500305 0.385863 0.053293
v -0.501165 0.387173 0.057325
v -0.502053 0.388482 0.061299
v -0.503084 0.389792 0.064980
v -0.504351 0.391101 0.068170
v -0.505918 0.392410 0.070739
v -0.507808 0.393718 0.072640
v -0.509985 0.395026 0.073949
v -0.507606 0.393718 0.073059
v -0.504941 0.392412 0.072760
v -0.501953 0.391105 0.073129
v -0.498665 0.389800 0.074119
v -0.495140 0.388495 0.075599
v -0.491473 0.387190 0.077373
v -0.487778 0.385885 0.079205
v -0.484177 0.384579 0.080842
v -0.480787 0.383274 0.082044
v -0.477706 0.381968 0.082604
v -0.475008 0.380661 0.082374
v -0.472730 0.379354 0.081274
v -0.470873 0.378046 0.079304
v -0.469399 0.376737 0.076544
v -0.468234 0.375427 0.073142
v -0.467279 0.374118 0.069305
v -0.466419 0.372808 0.065273
v -0.465531 0.371498 0.061299
v -0.464501 0.370188 0.057619
v -0.463234 0.368879 0.054428
v -0.461666 0.367570 0.051859
v -0.459776 0.366262 0.049958
f 173 174 175
f 173 175 174
f 173 175 176
f 173 176 175
f 173 176 177
f 173 177 176
f 173 177 178
f 173 178 177
f 173 178 179
f 173 179 178
f 173 179 180
f 173 180 179
f 173 180 181
f 173 181 180
f 173 181 182
f 173 182 181
f 173 182 183
f 173 183 182
f 173 183 184
f 173 184 183
f 173 184 185
f 173 185 184
f 173 185 186
f 173 186 185
f 173 186 187
f 173 187 186
f 173 187 188
f 173 188 187
f 173 188 189
f 173 189 188
f 173 189 190
f 173 190 189
f 173 190 191
f 173 191 190
f 173 191 192
f 173 192 191
f 173 192 193
f 173 193 192
f 173 193 194
f 173 194 193
f 173 194 195
f 173 195 194
f 173 195 196
f 173 196 195
f 173 196 197
f 173 197 196
f 173 197 198
f 173 198 197
f 173 198 199
f 173 199 198
f 173 199 200
f 173 200 199
f 173 200 201
f 173 201 200
f 173 201 202
f 173 202 201
f 173 202 203
f 173 203 202
f 173 203 204
f 173 204 203
f 173 204 205
f 173 205 204
f 173 205 206
f 173 206 205
f 173 206 207
f 173 207 206
f 173 207 208
f 173 208 207
f 173 208 209
f 173 209 208
f 173 209 210
f 173 210 209
f 173 210 211
f 173 211 210
f 173 211 212
f 173 212 211
f 173 212 213
f 173 213 212
f 173 213 214
f 173 214 213
f 173 214 215
f 173 215 214
f 173 215 216
f 173 216 215
f 173 216 217
f 173 217 216
f 173 217 218
f 173 218 217
