o mesh
v 0.000000 -0.000156 0.010999 0.200 0.440 0.170
v 0.009517 -0.000495 0.005494 0.200 0.440 0.170
v 0.009517 -0.000339 -0.005505 0.200 0.440 0.170
v 0.000000 0.000156 -0.010999 0.200 0.440 0.170
v -0.009517 0.000495 -0.005494 0.200 0.440 0.170
v -0.009517 0.000339 0.005505 0.200 0.440 0.170
v 0.019267 0.439104 0.014234 0.200 0.440 0.170
v 0.026189 0.438857 0.010230 0.200 0.440 0.170
v 0.026189 0.438971 0.002231 0.200 0.440 0.170
v 0.019267 0.439331 -0.001764 0.200 0.440 0.170
v 0.012346 0.439578 0.002240 0.200 0.440 0.170
v 0.012346 0.439464 0.010239 0.200 0.440 0.170
f 1 2 8
f 1 8 7
f 2 3 9
f 2 9 8
f 3 4 10
f 3 10 9
f 4 5 11
f 4 11 10
f 5 6 12
f 5 12 11
f 6 1 7
f 6 7 12
v 0.019267 0.451217 0.098399 0.987 0.849 0.355
v 0.026948 0.450437 0.094022 0.987 0.849 0.355
v 0.033731 0.449527 0.088264 0.987 0.849 0.355
v 0.039727 0.448750 0.082592 0.987 0.849 0.355
v 0.045151 0.448146 0.077348 0.987 0.849 0.355
v 0.050217 0.447717 0.072606 0.987 0.849 0.355
v 0.055122 0.447453 0.068337 0.987 0.849 0.355
v 0.060041 0.447346 0.064465 0.987 0.849 0.355
v 0.065132 0.447392 0.060894 0.987 0.849 0.355
v 0.070543 0.447592 0.057510 0.987 0.849 0.355
v 0.076405 0.447954 0.054179 0.987 0.849 0.355
v 0.082826 0.448487 0.050739 0.987 0.849 0.355
v 0.089851 0.449196 0.046986 0.987 0.849 0.355
v 0.097355 0.450064 0.042648 0.987 0.849 0.355
v 0.104684 0.450971 0.037324 0.987 0.849 0.355
v 0.106224 0.450802 0.029535 0.987 0.849 0.355
v 0.103161 0.449881 0.021027 0.987 0.849 0.355
v 0.099612 0.449041 0.013264 0.987 0.849 0.355
v 0.096183 0.448366 0.006235 0.987 0.849 0.355
v 0.093084 0.447868 -0.000223 0.987 0.849 0.355
v 0.090380 0.447539 -0.006304 0.987 0.849 0.355
v 0.088069 0.447370 -0.012200 0.987 0.849 0.355
v 0.086117 0.447355 -0.018096 0.987 0.849 0.355
v 0.084468 0.447493 -0.024169 0.987 0.849 0.355
v 0.083048 0.447789 -0.030589 0.987 0.849 0.355
v 0.081751 0.448252 -0.037516 0.987 0.849 0.355
v 0.080424 0.448892 -0.045082 0.987 0.849 0.355
v 0.078827 0.449702 -0.053325 0.987 0.849 0.355
v 0.076533 0.450622 -0.062012 0.987 0.849 0.355
v 0.071842 0.451119 -0.068850 0.987 0.849 0.355
v 0.062838 0.450250 -0.069232 0.987 0.849 0.355
v 0.054084 0.449359 -0.068431 0.987 0.849 0.355
v 0.046049 0.448615 -0.067346 0.987 0.849 0.355
v 0.038708 0.448046 -0.066320 0.987 0.849 0.355
v 0.031919 0.447651 -0.065513 0.987 0.849 0.355
v 0.025500 0.447419 -0.065006 0.987 0.849 0.355
v 0.019267 0.447343 -0.064834 0.987 0.849 0.355
v 0.013035 0.447419 -0.065006 0.987 0.849 0.355
v 0.006616 0.447651 -0.065513 0.987 0.849 0.355
v -0.000173 0.448046 -0.066320 0.987 0.849 0.355
v -0.007514 0.448615 -0.067346 0.987 0.849 0.355
v -0.015550 0.449359 -0.068431 0.987 0.849 0.355
v -0.024304 0.450250 -0.069232 0.987 0.849 0.355
v -0.033307 0.451119 -0.068850 0.987 0.849 0.355
v -0.037998 0.450622 -0.062012 0.987 0.849 0.355
v -0.040292 0.449702 -0.053325 0.987 0.849 0.355
v -0.041889 0.448892 -0.045082 0.987 0.849 0.355
v -0.043216 0.448252 -0.037516 0.987 0.849 0.355
v -0.044513 0.447789 -0.030589 0.987 0.849 0.355
v -0.045934 0.447493 -0.024169 0.987 0.849 0.355
v -0.047582 0.447355 -0.018096 0.987 0.849 0.355
v -0.049534 0.447370 -0.012200 0.987 0.849 0.355
v -0.051845 0.447539 -0.006304 0.987 0.849 0.355
v -0.054550 0.447868 -0.000223 0.987 0.849 0.355
v -0.057649 0.448366 0.006235 0.987 0.849 0.355
v -0.061078 0.449041 0.013264 0.987 0.849 0.355
v -0.064626 0.449881 0.021027 0.987 0.849 0.355
v -0.067689 0.450802 0.029535 0.987 0.849 0.355
v -0.066149 0.450971 0.037324 0.987 0.849 0.355
v -0.058820 0.450064 0.042648 0.987 0.849 0.355
v -0.051316 0.449196 0.046986 0.987 0.849 0.355
v -0.044291 0.448487 0.050739 0.987 0.849 0.355
v -0.037870 0.447954 0.054179 0.987 0.849 0.355
v -0.032008 0.447592 0.057510 0.987 0.849 0.355
v -0.026597 0.447392 0.060894 0.987 0.849 0.355
v -0.021506 0.447346 0.064465 0.987 0.849 0.355
v -0.016587 0.447453 0.068337 0.987 0.849 0.355
v -0.011682 0.447717 0.072606 0.987 0.849 0.355
v -0.006616 0.448146 0.077348 0.987 0.849 0.355
v -0.001192 0.448750 0.082592 0.987 0.849 0.355
v 0.004803 0.449527 0.088264 0.987 0.849 0.355
v 0.011587 0.450437 0.094022 0.987 0.849 0.355
v 0.019267 0.439217 0.006235 0.987 0.849 0.355
f 85 13 14
f 85 14 13
f 85 14 15
f 85 15 14
f 85 15 16
f 85 16 15
f 85 16 17
f 85 17 16
f 85 17 18
f 85 18 17
f 85 18 19
f 85 19 18
f 85 19 20
f 85 20 19
f 85 20 21
f 85 21 20
f 85 21 22
f 85 22 21
f 85 22 23
f 85 23 22
f 85 23 24
f 85 24 23
f 85 24 25
f 85 25 24
f 85 25 26
f 85 26 25
f 85 26 27
f 85 27 26
f 85 27 28
f 85 28 27
f 85 28 29
f 85 29 28
f 85 29 30
f 85 30 29
f 85 30 31
f 85 31 30
f 85 31 32
f 85 32 31
f 85 32 33
f 85 33 32
f 85 33 34
f 85 34 33
f 85 34 35
f 85 35 34
f 85 35 36
f 85 36 35
f 85 36 37
f 85 37 36
f 85 37 38
f 85 38 37
f 85 38 39
f 85 39 38
f 85 39 40
f 85 40 39
f 85 40 41
f 85 41 40
f 85 41 42
f 85 42 41
f 85 42 43
f 85 43 42
f 85 43 44
f 85 44 43
f 85 44 45
f 85 45 44
f 85 45 46
f 85 46 45
f 85 46 47
f 85 47 46
f 85 47 48
f 85 48 47
f 85 48 49
f 85 49 48
f 85 49 50
f 85 50 49
f 85 50 51
f 85 51 50
f 85 51 52
f 85 52 51
f 85 52 53
f 85 53 52
f 85 53 54
f 85 54 53
f 85 54 55
f 85 55 54
f 85 55 56
f 85 56 55
f 85 56 57
f 85 57 56
f 85 57 58
f 85 58 57
f 85 58 59
f 85 59 58
f 85 59 60
f 85 60 59
f 85 60 61
f 85 61 60
f 85 61 62
f 85 62 61
f 85 62 63
f 85 63 62
f 85 63 64
f 85 64 63
f 85 64 65
f 85 65 64
f 85 65 66
f 85 66 65
f 85 66 67
f 85 67 66
f 85 67 68
f 85 68 67
f 85 68 69
f 85 69 68
f 85 69 70
f 85 70 69
f 85 70 71
f 85 71 70
f 85 71 72
f 85 72 71
f 85 72 73
f 85 73 72
f 85 73 74
f 85 74 73
f 85 74 75
f 85 75 74
f 85 75 76
f 85 76 75
f 85 76 77
f 85 77 76
f 85 77 78
f 85 78 77
f 85 78 79
f 85 79 78
f 85 79 80
f 85 80 79
f 85 80 81
f 85 81 80
f 85 81 82
f 85 82 81
f 85 82 83
f 85 83 82
f 85 83 84
f 85 84 83
f 85 84 13
f 85 13 84
v 0.066767 0.465617 0.062628 0.988 0.867 0.433
v 0.069210 0.463900 0.055991 0.988 0.867 0.433
v 0.070393 0.461900 0.048972 0.988 0.867 0.433
v 0.071139 0.460188 0.042411 0.988 0.867 0.433
v 0.071755 0.458860 0.036408 0.988 0.867 0.433
v 0.072411 0.457916 0.030895 0.988 0.867 0.433
v 0.073212 0.457336 0.025755 0.988 0.867 0.433
v 0.074226 0.457100 0.020851 0.988 0.867 0.433
v 0.075501 0.457201 0.016042 0.988 0.867 0.433
v 0.077067 0.457642 0.011183 0.988 0.867 0.433
v 0.078938 0.458438 0.006123 0.988 0.867 0.433
v 0.081094 0.459610 0.000709 0.988 0.867 0.433
v 0.083458 0.461171 -0.005207 0.988 0.867 0.433
v 0.085814 0.463080 -0.011729 0.988 0.867 0.433
v 0.087554 0.465075 -0.018764 0.988 0.867 0.433
v 0.084482 0.464703 -0.024324 0.988 0.867 0.433
v 0.078223 0.462677 -0.027950 0.988 0.867 0.433
v 0.072051 0.460829 -0.030872 0.988 0.867 0.433
v 0.066330 0.459345 -0.033406 0.988 0.867 0.433
v 0.061106 0.458249 -0.035760 0.988 0.867 0.433
v 0.056317 0.457526 -0.038087 0.988 0.867 0.433
v 0.051864 0.457154 -0.040504 0.988 0.867 0.433
v 0.047631 0.457120 -0.043105 0.988 0.867 0.433
v 0.043493 0.457424 -0.045971 0.988 0.867 0.433
v 0.039315 0.458075 -0.049167 0.988 0.867 0.433
v 0.034951 0.459095 -0.052738 0.988 0.867 0.433
v 0.030240 0.460501 -0.056683 0.988 0.867 0.433
v 0.025015 0.462283 -0.060904 0.988 0.867 0.433
v 0.019134 0.464307 -0.065037 0.988 0.867 0.433
v 0.012740 0.465401 -0.066803 0.988 0.867 0.433
v 0.007034 0.463489 -0.062397 0.988 0.867 0.433
v 0.002090 0.461529 -0.057395 0.988 0.867 0.433
v -0.002267 0.459891 -0.052589 0.988 0.867 0.433
v -0.006230 0.458641 -0.048179 0.988 0.867 0.433
v -0.009969 0.457772 -0.044186 0.988 0.867 0.433
v -0.013635 0.457262 -0.040568 0.988 0.867 0.433
v -0.017359 0.457094 -0.037250 0.988 0.867 0.433
v -0.021262 0.457262 -0.034143 0.988 0.867 0.433
v -0.025451 0.457772 -0.031146 0.988 0.867 0.433
v -0.030021 0.458641 -0.028140 0.988 0.867 0.433
v -0.035041 0.459891 -0.024985 0.988 0.867 0.433
v -0.040517 0.461529 -0.021507 0.988 0.867 0.433
v -0.046286 0.463489 -0.017486 0.988 0.867 0.433
v -0.051598 0.465401 -0.012612 0.988 0.867 0.433
v -0.050944 0.464307 -0.006010 0.988 0.867 0.433
v -0.047871 0.462283 0.000487 0.988 0.867 0.433
v -0.044600 0.460501 0.006354 0.988 0.867 0.433
v -0.041513 0.459095 0.011667 0.988 0.867 0.433
v -0.038736 0.458075 0.016574 0.988 0.867 0.433
v -0.036297 0.457424 0.021235 0.988 0.867 0.433
v -0.034176 0.457120 0.025800 0.988 0.867 0.433
v -0.032331 0.457154 0.030413 0.988 0.867 0.433
v -0.030707 0.457526 0.035212 0.988 0.867 0.433
v -0.029228 0.458249 0.040327 0.988 0.867 0.433
v -0.027795 0.459345 0.045875 0.988 0.867 0.433
v -0.026271 0.460829 0.051944 0.988 0.867 0.433
v -0.024441 0.462677 0.058522 0.988 0.867 0.433
v -0.021931 0.464703 0.065307 0.988 0.867 0.433
v -0.016974 0.465075 0.069279 0.988 0.867 0.433
v -0.009746 0.463080 0.068759 0.988 0.867 0.433
v -0.002918 0.461171 0.067546 0.988 0.867 0.433
v 0.003314 0.459610 0.066222 0.988 0.867 0.433
v 0.009016 0.458438 0.065018 0.988 0.867 0.433
v 0.014319 0.457642 0.064035 0.988 0.867 0.433
v 0.019374 0.457201 0.063317 0.988 0.867 0.433
v 0.024330 0.457100 0.062878 0.988 0.867 0.433
v 0.029335 0.457336 0.062712 0.988 0.867 0.433
v 0.034536 0.457916 0.062796 0.988 0.867 0.433
v 0.040080 0.458860 0.063087 0.988 0.867 0.433
v 0.046101 0.460188 0.063500 0.988 0.867 0.433
v 0.052693 0.461900 0.063881 0.988 0.867 0.433
v 0.059811 0.463900 0.063908 0.988 0.867 0.433
v 0.019267 0.439217 0.006235 0.988 0.867 0.433
f 158 86 87
f 158 87 86
f 158 87 88
f 158 88 87
f 158 88 89
f 158 89 88
f 158 89 90
f 158 90 89
f 158 90 91
f 158 91 90
f 158 91 92
f 158 92 91
f 158 92 93
f 158 93 92
f 158 93 94
f 158 94 93
f 158 94 95
f 158 95 94
f 158 95 96
f 158 96 95
f 158 96 97
f 158 97 96
f 158 97 98
f 158 98 97
f 158 98 99
f 158 99 98
f 158 99 100
f 158 100 99
f 158 100 101
f 158 101 100
f 158 101 102
f 158 102 101
f 158 102 103
f 158 103 102
f 158 103 104
f 158 104 103
f 158 104 105
f 158 105 104
f 158 105 106
f 158 106 105
f 158 106 107
f 158 107 106
f 158 107 108
f 158 108 107
f 158 108 109
f 158 109 108
f 158 109 110
f 158 110 109
f 158 110 111
f 158 111 110
f 158 111 112
f 158 112 111
f 158 112 113
f 158 113 112
f 158 113 114
f 158 114 113
f 158 114 115
f 158 115 114
f 158 115 116
f 158 116 115
f 158 116 117
f 158 117 116
f 158 117 118
f 158 118 117
f 158 118 119
f 158 119 118
f 158 119 120
f 158 120 119
f 158 120 121
f 158 121 120
f 158 121 122
f 158 122 121
f 158 122 123
f 158 123 122
f 158 123 124
f 158 124 123
f 158 124 125
f 158 125 124
f 158 125 126
f 158 126 125
f 158 126 127
f 158 127 126
f 158 127 128
f 158 128 127
f 158 128 129
f 158 129 128
f 158 129 130
f 158 130 129
f 158 130 131
f 158 131 130
f 158 131 132
f 158 132 131
f 158 132 133
f 158 133 132
f 158 133 134
f 158 134 133
f 158 134 135
f 158 135 134
f 158 135 136
f 158 136 135
f 158 136 137
f 158 137 136
f 158 137 138
f 158 138 137
f 158 138 139
f 158 139 138
f 158 139 140
f 158 140 139
f 158 140 141
f 158 141 140
f 158 141 142
f 158 142 141
f 158 142 143
f 158 143 142
f 158 143 144
f 158 144 143
f 158 144 145
f 158 145 144
f 158 145 146
f 158 146 145
f 158 146 147
f 158 147 146
f 158 147 148
f 158 148 147
f 158 148 149
f 158 149 148
f 158 149 150
f 158 150 149
f 158 150 151
f 158 151 150
f 158 151 152
f 158 152 151
f 158 152 153
f 158 153 152
f 158 153 154
f 158 154 153
f 158 154 155
f 158 155 154
f 158 155 156
f 158 156 155
f 158 156 157
f 158 157 156
f 158 157 86
f 158 86 157
v 0.077394 0.480017 0.016260 0.990 0.886 0.510
v 0.075469 0.477363 0.010940 0.990 0.886 0.510
v 0.072576 0.474272 0.006036 0.990 0.886 0.510
v 0.069651 0.471627 0.001637 0.990 0.886 0.510
v 0.066933 0.469575 -0.002354 0.990 0.886 0.510
v 0.064494 0.468116 -0.006065 0.990 0.886 0.510
v 0.062335 0.467219 -0.009623 0.990 0.886 0.510
v 0.060428 0.466855 -0.013146 0.990 0.886 0.510
v 0.058730 0.467010 -0.016746 0.990 0.886 0.510
v 0.057184 0.467691 -0.020526 0.990 0.886 0.510
v 0.055721 0.468921 -0.024586 0.990 0.886 0.510
v 0.054250 0.470733 -0.029010 0.990 0.886 0.510
v 0.052647 0.473146 -0.033848 0.990 0.886 0.510
v 0.050727 0.476096 -0.039053 0.990 0.886 0.510
v 0.048166 0.479179 -0.044254 0.990 0.886 0.510
v 0.043421 0.478604 -0.046073 0.990 0.886 0.510
v 0.037723 0.475473 -0.045066 0.990 0.886 0.510
v 0.032441 0.472617 -0.043673 0.990 0.886 0.510
v 0.027634 0.470323 -0.042275 0.990 0.886 0.510
v 0.023224 0.468630 -0.041023 0.990 0.886 0.510
v 0.019095 0.467512 -0.039979 0.990 0.886 0.510
v 0.015125 0.466937 -0.039163 0.990 0.886 0.510
v 0.011194 0.466886 -0.038573 0.990 0.886 0.510
v 0.007185 0.467355 -0.038194 0.990 0.886 0.510
v 0.002981 0.468362 -0.037996 0.990 0.886 0.510
v -0.001529 0.469937 -0.037932 0.990 0.886 0.510
v -0.006445 0.472110 -0.037918 0.990 0.886 0.510
v -0.011817 0.474864 -0.037808 0.990 0.886 0.510
v -0.017546 0.477993 -0.037306 0.990 0.886 0.510
v -0.022368 0.479684 -0.035091 0.990 0.886 0.510
v -0.023589 0.476728 -0.029454 0.990 0.886 0.510
v -0.024036 0.473698 -0.023846 0.990 0.886 0.510
v -0.024226 0.471168 -0.018660 0.990 0.886 0.510
v -0.024377 0.469236 -0.013919 0.990 0.886 0.510
v -0.024607 0.467892 -0.009549 0.990 0.886 0.510
v -0.024985 0.467104 -0.005446 0.990 0.886 0.510
v -0.025555 0.466844 -0.001496 0.990 0.886 0.510
v -0.026341 0.467104 0.002416 0.990 0.886 0.510
v -0.027360 0.467892 0.006409 0.990 0.886 0.510
v -0.028607 0.469236 0.010604 0.990 0.886 0.510
v -0.030052 0.471168 0.015121 0.990 0.886 0.510
v -0.031611 0.473698 0.020072 0.990 0.886 0.510
v -0.033068 0.476728 0.025505 0.990 0.886 0.510
v -0.033806 0.479684 0.031225 0.990 0.886 0.510
v -0.030004 0.477993 0.034928 0.990 0.886 0.510
v -0.024775 0.474864 0.037320 0.990 0.886 0.510
v -0.019750 0.472110 0.039223 0.990 0.886 0.510
v -0.015123 0.469937 0.040883 0.990 0.886 0.510
v -0.010895 0.468362 0.042455 0.990 0.886 0.510
v -0.007000 0.467355 0.044049 0.990 0.886 0.510
v -0.003350 0.466886 0.045749 0.990 0.886 0.510
v 0.000156 0.466937 0.047622 0.990 0.886 0.510
v 0.003624 0.467512 0.049721 0.990 0.886 0.510
v 0.007165 0.468630 0.052088 0.990 0.886 0.510
v 0.010901 0.470323 0.054745 0.990 0.886 0.510
v 0.014961 0.472617 0.057672 0.990 0.886 0.510
v 0.019471 0.475473 0.060754 0.990 0.886 0.510
v 0.024503 0.478604 0.063612 0.990 0.886 0.510
v 0.029583 0.479179 0.063488 0.990 0.886 0.510
v 0.033738 0.476096 0.059445 0.990 0.886 0.510
v 0.037291 0.473146 0.055184 0.990 0.886 0.510
v 0.040422 0.470733 0.051162 0.990 0.886 0.510
v 0.043290 0.468921 0.047486 0.990 0.886 0.510
v 0.046028 0.467691 0.044151 0.990 0.886 0.510
v 0.048751 0.467010 0.041107 0.990 0.886 0.510
v 0.051557 0.466855 0.038284 0.990 0.886 0.510
v 0.054534 0.467219 0.035603 0.990 0.886 0.510
v 0.057760 0.468116 0.032974 0.990 0.886 0.510
v 0.061302 0.469575 0.030295 0.990 0.886 0.510
v 0.065199 0.471627 0.027445 0.990 0.886 0.510
v 0.069429 0.474272 0.024280 0.990 0.886 0.510
v 0.073798 0.477363 0.020628 0.990 0.886 0.510
v 0.019267 0.439217 0.006235 0.990 0.886 0.510
f 231 159 160
f 231 160 159
f 231 160 161
f 231 161 160
f 231 161 162
f 231 162 161
f 231 162 163
f 231 163 162
f 231 163 164
f 231 164 163
f 231 164 165
f 231 165 164
f 231 165 166
f 231 166 165
f 231 166 167
f 231 167 166
f 231 167 168
f 231 168 167
f 231 168 169
f 231 169 168
f 231 169 170
f 231 170 169
f 231 170 171
f 231 171 170
f 231 171 172
f 231 172 171
f 231 172 173
f 231 173 172
f 231 173 174
f 231 174 173
f 231 174 175
f 231 175 174
f 231 175 176
f 231 176 175
f 231 176 177
f 231 177 176
f 231 177 178
f 231 178 177
f 231 178 179
f 231 179 178
f 231 179 180
f 231 180 179
f 231 180 181
f 231 181 180
f 231 181 182
f 231 182 181
f 231 182 183
f 231 183 182
f 231 183 184
f 231 184 183
f 231 184 185
f 231 185 184
f 231 185 186
f 231 186 185
f 231 186 187
f 231 187 186
f 231 187 188
f 231 188 187
f 231 188 189
f 231 189 188
f 231 189 190
f 231 190 189
f 231 190 191
f 231 191 190
f 231 191 192
f 231 192 191
f 231 192 193
f 231 193 192
f 231 193 194
f 231 194 193
f 231 194 195
f 231 195 194
f 231 195 196
f 231 196 195
f 231 196 197
f 231 197 196
f 231 197 198
f 231 198 197
f 231 198 199
f 231 199 198
f 231 199 200
f 231 200 199
f 231 200 201
f 231 201 200
f 231 201 202
f 231 202 201
f 231 202 203
f 231 203 202
f 231 203 204
f 231 204 203
f 231 204 205
f 231 205 204
f 231 205 206
f 231 206 205
f 231 206 207
f 231 207 206
f 231 207 208
f 231 208 207
f 231 208 209
f 231 209 208
f 231 209 210
f 231 210 209
f 231 210 211
f 231 211 210
f 231 211 212
f 231 212 211
f 231 212 213
f 231 213 212
f 231 213 214
f 231 214 213
f 231 214 215
f 231 215 214
f 231 215 216
f 231 216 215
f 231 216 217
f 231 217 216
f 231 217 218
f 231 218 217
f 231 218 219
f 231 219 218
f 231 219 220
f 231 220 219
f 231 220 221
f 231 221 220
f 231 221 222
f 231 222 221
f 231 222 223
f 231 223 222
f 231 223 224
f 231 224 223
f 231 224 225
f 231 225 224
f 231 225 226
f 231 226 225
f 231 226 227
f 231 227 226
f 231 227 228
f 231 228 227
f 231 228 229
f 231 229 228
f 231 229 230
f 231 230 229
f 231 230 159
f 231 159 230
v 0.060001 0.494417 -0.017588 0.992 0.904 0.587
v 0.056081 0.490826 -0.019851 0.992 0.904 0.587
v 0.051783 0.486644 -0.021361 0.992 0.904 0.587
v 0.047726 0.483066 -0.022545 0.992 0.904 0.587
v 0.044007 0.480289 -0.023586 0.992 0.904 0.587
v 0.040601 0.478315 -0.024600 0.992 0.904 0.587
v 0.037446 0.477101 -0.025664 0.992 0.904 0.587
v 0.034464 0.476609 -0.026837 0.992 0.904 0.587
v 0.031570 0.476819 -0.028164 0.992 0.904 0.587
v 0.028675 0.477741 -0.029681 0.992 0.904 0.587
v 0.025688 0.479405 -0.031411 0.992 0.904 0.587
v 0.022508 0.481857 -0.033359 0.992 0.904 0.587
v 0.019034 0.485121 -0.035494 0.992 0.904 0.587
v 0.015176 0.489112 -0.037689 0.992 0.904 0.587
v 0.010929 0.493284 -0.039552 0.992 0.904 0.587
v 0.007088 0.492506 -0.038219 0.992 0.904 0.587
v 0.004120 0.488269 -0.034667 0.992 0.904 0.587
v 0.001606 0.484405 -0.031092 0.992 0.904 0.587
v -0.000614 0.481302 -0.027759 0.992 0.904 0.587
v -0.002667 0.479011 -0.024720 0.992 0.904 0.587
v -0.004656 0.477499 -0.021953 0.992 0.904 0.587
v -0.006664 0.476721 -0.019408 0.992 0.904 0.587
v -0.008765 0.476651 -0.017021 0.992 0.904 0.587
v -0.011023 0.477286 -0.014723 0.992 0.904 0.587
v -0.013493 0.478648 -0.012436 0.992 0.904 0.587
v -0.016220 0.480779 -0.010072 0.992 0.904 0.587
v -0.019220 0.483719 -0.007530 0.992 0.904 0.587
v -0.022451 0.487445 -0.004693 0.992 0.904 0.587
v -0.025697 0.491678 -0.001434 0.992 0.904 0.587
v -0.027507 0.493966 0.002407 0.992 0.904 0.587
v -0.025349 0.489967 0.006485 0.992 0.904 0.587
v -0.022732 0.485868 0.010147 0.992 0.904 0.587
v -0.020175 0.482445 0.013418 0.992 0.904 0.587
v -0.017824 0.479831 0.016397 0.992 0.904 0.587
v -0.015713 0.478013 0.019189 0.992 0.904 0.587
v -0.013830 0.476946 0.021895 0.992 0.904 0.587
v -0.012142 0.476595 0.024605 0.992 0.904 0.587
v -0.010607 0.476946 0.027404 0.992 0.904 0.587
v -0.009173 0.478013 0.030372 0.992 0.904 0.587
v -0.007774 0.479831 0.033581 0.992 0.904 0.587
v -0.006330 0.482445 0.037090 0.992 0.904 0.587
v -0.004732 0.485868 0.040922 0.992 0.904 0.587
v -0.002824 0.489967 0.044998 0.992 0.904 0.587
v -0.000328 0.493966 0.048879 0.992 0.904 0.587
v 0.003907 0.491678 0.049185 0.992 0.904 0.587
v 0.008339 0.487445 0.047953 0.992 0.904 0.587
v 0.012395 0.483719 0.046528 0.992 0.904 0.587
v 0.016082 0.480779 0.045159 0.992 0.904 0.587
v 0.019479 0.478648 0.043942 0.992 0.904 0.587
v 0.022683 0.477286 0.042910 0.992 0.904 0.587
v 0.025793 0.476651 0.042069 0.992 0.904 0.587
v 0.028904 0.476721 0.041408 0.992 0.904 0.587
v 0.032107 0.477499 0.040905 0.992 0.904 0.587
v 0.035493 0.479011 0.040529 0.992 0.904 0.587
v 0.039149 0.481302 0.040229 0.992 0.904 0.587
v 0.043142 0.484405 0.039927 0.992 0.904 0.587
v 0.047490 0.488269 0.039489 0.992 0.904 0.587
v 0.052042 0.492506 0.038644 0.992 0.904 0.587
v 0.055086 0.493284 0.035950 0.992 0.904 0.587
v 0.055545 0.489112 0.031335 0.992 0.904 0.587
v 0.055522 0.485121 0.026897 0.992 0.904 0.587
v 0.055365 0.481857 0.022822 0.992 0.904 0.587
v 0.055226 0.479405 0.019095 0.992 0.904 0.587
v 0.055183 0.477741 0.015643 0.992 0.904 0.587
v 0.055280 0.476819 0.012377 0.992 0.904 0.587
v 0.055542 0.476609 0.009204 0.992 0.904 0.587
v 0.055982 0.477101 0.006029 0.992 0.904 0.587
v 0.056601 0.478315 0.002758 0.992 0.904 0.587
v 0.057387 0.480289 -0.000707 0.992 0.904 0.587
v 0.058303 0.483066 -0.004460 0.992 0.904 0.587
v 0.059260 0.486644 -0.008576 0.992 0.904 0.587
v 0.060051 0.490826 -0.013062 0.992 0.904 0.587
v 0.019267 0.439217 0.006235 0.992 0.904 0.587
f 304 232 233
f 304 233 232
f 304 233 234
f 304 234 233
f 304 234 235
f 304 235 234
f 304 235 236
f 304 236 235
f 304 236 237
f 304 237 236
f 304 237 238
f 304 238 237
f 304 238 239
f 304 239 238
f 304 239 240
f 304 240 239
f 304 240 241
f 304 241 240
f 304 241 242
f 304 242 241
f 304 242 243
f 304 243 242
f 304 243 244
f 304 244 243
f 304 244 245
f 304 245 244
f 304 245 246
f 304 246 245
f 304 246 247
f 304 247 246
f 304 247 248
f 304 248 247
f 304 248 249
f 304 249 248
f 304 249 250
f 304 250 249
f 304 250 251
f 304 251 250
f 304 251 252
f 304 252 251
f 304 252 253
f 304 253 252
f 304 253 254
f 304 254 253
f 304 254 255
f 304 255 254
f 304 255 256
f 304 256 255
f 304 256 257
f 304 257 256
f 304 257 258
f 304 258 257
f 304 258 259
f 304 259 258
f 304 259 260
f 304 260 259
f 304 260 261
f 304 261 260
f 304 261 262
f 304 262 261
f 304 262 263
f 304 263 262
f 304 263 264
f 304 264 263
f 304 264 265
f 304 265 264
f 304 265 266
f 304 266 265
f 304 266 267
f 304 267 266
f 304 267 268
f 304 268 267
f 304 268 269
f 304 269 268
f 304 269 270
f 304 270 269
f 304 270 271
f 304 271 270
f 304 271 272
f 304 272 271
f 304 272 273
f 304 273 272
f 304 273 274
f 304 274 273
f 304 274 275
f 304 275 274
f 304 275 276
f 304 276 275
f 304 276 277
f 304 277 276
f 304 277 278
f 304 278 277
f 304 278 279
f 304 279 278
f 304 279 280
f 304 280 279
f 304 280 281
f 304 281 280
f 304 281 282
f 304 282 281
f 304 282 283
f 304 283 282
f 304 283 284
f 304 284 283
f 304 284 285
f 304 285 284
f 304 285 286
f 304 286 285
f 304 286 287
f 304 287 286
f 304 287 288
f 304 288 287
f 304 288 289
f 304 289 288
f 304 289 290
f 304 290 289
f 304 290 291
f 304 291 290
f 304 291 292
f 304 292 291
f 304 292 293
f 304 293 292
f 304 293 294
f 304 294 293
f 304 294 295
f 304 295 294
f 304 295 296
f 304 296 295
f 304 296 297
f 304 297 296
f 304 297 298
f 304 298 297
f 304 298 299
f 304 299 298
f 304 299 300
f 304 300 299
f 304 300 301
f 304 301 300
f 304 301 302
f 304 302 301
f 304 302 303
f 304 303 302
f 304 303 232
f 304 232 303
v 0.031913 0.508817 -0.029335 0.993 0.922 0.665
v 0.028349 0.504290 -0.028699 0.993 0.922 0.665
v 0.024941 0.499016 -0.027408 0.993 0.922 0.665
v 0.021848 0.494504 -0.026041 0.993 0.922 0.665
v 0.019036 0.491003 -0.024762 0.993 0.922 0.665
v 0.016430 0.488515 -0.023627 0.993 0.922 0.665
v 0.013951 0.486984 -0.022652 0.993 0.922 0.665
v 0.011521 0.486363 -0.021833 0.993 0.922 0.665
v 0.009067 0.486629 -0.021153 0.993 0.922 0.665
v 0.006514 0.487791 -0.020590 0.993 0.922 0.665
v 0.003795 0.489889 -0.020108 0.993 0.922 0.665
v 0.000844 0.492980 -0.019662 0.993 0.922 0.665
v -0.002382 0.497096 -0.019177 0.993 0.922 0.665
v -0.005873 0.502128 -0.018533 0.993 0.922 0.665
v -0.009432 0.507388 -0.017484 0.993 0.922 0.665
v -0.011095 0.506407 -0.014689 0.993 0.922 0.665
v -0.011080 0.501066 -0.010985 0.993 0.922 0.665
v -0.010776 0.496192 -0.007502 0.993 0.922 0.665
v -0.010417 0.492280 -0.004319 0.993 0.922 0.665
v -0.010107 0.489392 -0.001401 0.993 0.922 0.665
v -0.009898 0.487485 0.001317 0.993 0.922 0.665
v -0.009815 0.486505 0.003909 0.993 0.922 0.665
v -0.009871 0.486416 0.006453 0.993 0.922 0.665
v -0.010068 0.487216 0.009022 0.993 0.922 0.665
v -0.010400 0.488934 0.011695 0.993 0.922 0.665
v -0.010850 0.491621 0.014547 0.993 0.922 0.665
v -0.011376 0.495328 0.017648 0.993 0.922 0.665
v -0.011891 0.500026 0.021049 0.993 0.922 0.665
v -0.012198 0.505363 0.024716 0.993 0.922 0.665
v -0.011325 0.508248 0.027999 0.993 0.922 0.665
v -0.007903 0.503206 0.029382 0.993 0.922 0.665
v -0.004415 0.498038 0.030274 0.993 0.922 0.665
v -0.001164 0.493722 0.030957 0.993 0.922 0.665
v 0.001809 0.490426 0.031569 0.993 0.922 0.665
v 0.004540 0.488134 0.032189 0.993 0.922 0.665
v 0.007087 0.486788 0.032874 0.993 0.922 0.665
v 0.009516 0.486345 0.033663 0.993 0.922 0.665
v 0.011898 0.486788 0.034584 0.993 0.922 0.665
v 0.014305 0.488134 0.035661 0.993 0.922 0.665
v 0.016815 0.490426 0.036904 0.993 0.922 0.665
v 0.019507 0.493722 0.038307 0.993 0.922 0.665
v 0.022460 0.498038 0.039828 0.993 0.922 0.665
v 0.025728 0.503206 0.041339 0.993 0.922 0.665
v 0.029255 0.508248 0.042426 0.993 0.922 0.665
v 0.032004 0.505363 0.040431 0.993 0.922 0.665
v 0.034081 0.500026 0.037393 0.993 0.922 0.665
v 0.035829 0.495328 0.034431 0.993 0.922 0.665
v 0.037379 0.491621 0.031693 0.993 0.922 0.665
v 0.038830 0.488934 0.029198 0.993 0.922 0.665
v 0.040259 0.487216 0.026915 0.993 0.922 0.665
v 0.041728 0.486416 0.024798 0.993 0.922 0.665
v 0.043291 0.486505 0.022790 0.993 0.922 0.665
v 0.044992 0.487485 0.020832 0.993 0.922 0.665
v 0.046870 0.489392 0.018856 0.993 0.922 0.665
v 0.048952 0.492280 0.016789 0.993 0.922 0.665
v 0.051240 0.496192 0.014546 0.993 0.922 0.665
v 0.053674 0.501066 0.012037 0.993 0.922 0.665
v 0.056024 0.506407 0.009174 0.993 0.922 0.665
v 0.056498 0.507388 0.005957 0.993 0.922 0.665
v 0.054400 0.502128 0.002896 0.993 0.922 0.665
v 0.052099 0.497096 0.000192 0.993 0.922 0.665
v 0.049903 0.492980 -0.002220 0.993 0.922 0.665
v 0.047897 0.489889 -0.004429 0.993 0.922 0.665
v 0.046092 0.487791 -0.006519 0.993 0.922 0.665
v 0.044468 0.486629 -0.008567 0.993 0.922 0.665
v 0.042993 0.486363 -0.010644 0.993 0.922 0.665
v 0.041626 0.486984 -0.012813 0.993 0.922 0.665
v 0.040319 0.488515 -0.015134 0.993 0.922 0.665
v 0.039014 0.491003 -0.017659 0.993 0.922 0.665
v 0.037641 0.494504 -0.020427 0.993 0.922 0.665
v 0.036105 0.499016 -0.023438 0.993 0.922 0.665
v 0.034277 0.504290 -0.026591 0.993 0.922 0.665
v 0.019267 0.439217 0.006235 0.993 0.922 0.665
f 377 305 306
f 377 306 305
f 377 306 307
f 377 307 306
f 377 307 308
f 377 308 307
f 377 308 309
f 377 309 308
f 377 309 310
f 377 310 309
f 377 310 311
f 377 311 310
f 377 311 312
f 377 312 311
f 377 312 313
f 377 313 312
f 377 313 314
f 377 314 313
f 377 314 315
f 377 315 314
f 377 315 316
f 377 316 315
f 377 316 317
f 377 317 316
f 377 317 318
f 377 318 317
f 377 318 319
f 377 319 318
f 377 319 320
f 377 320 319
f 377 320 321
f 377 321 320
f 377 321 322
f 377 322 321
f 377 322 323
f 377 323 322
f 377 323 324
f 377 324 323
f 377 324 325
f 377 325 324
f 377 325 326
f 377 326 325
f 377 326 327
f 377 327 326
f 377 327 328
f 377 328 327
f 377 328 329
f 377 329 328
f 377 329 330
f 377 330 329
f 377 330 331
f 377 331 330
f 377 331 332
f 377 332 331
f 377 332 333
f 377 333 332
f 377 333 334
f 377 334 333
f 377 334 335
f 377 335 334
f 377 335 336
f 377 336 335
f 377 336 337
f 377 337 336
f 377 337 338
f 377 338 337
f 377 338 339
f 377 339 338
f 377 339 340
f 377 340 339
f 377 340 341
f 377 341 340
f 377 341 342
f 377 342 341
f 377 342 343
f 377 343 342
f 377 343 344
f 377 344 343
f 377 344 345
f 377 345 344
f 377 345 346
f 377 346 345
f 377 346 347
f 377 347 346
f 377 347 348
f 377 348 347
f 377 348 349
f 377 349 348
f 377 349 350
f 377 350 349
f 377 350 351
f 377 351 350
f 377 351 352
f 377 352 351
f 377 352 353
f 377 353 352
f 377 353 354
f 377 354 353
f 377 354 355
f 377 355 354
f 377 355 356
f 377 356 355
f 377 356 357
f 377 357 356
f 377 357 358
f 377 358 357
f 377 358 359
f 377 359 358
f 377 359 360
f 377 360 359
f 377 360 361
f 377 361 360
f 377 361 362
f 377 362 361
f 377 362 363
f 377 363 362
f 377 363 364
f 377 364 363
f 377 364 365
f 377 365 364
f 377 365 366
f 377 366 365
f 377 366 367
f 377 367 366
f 377 367 368
f 377 368 367
f 377 368 369
f 377 369 368
f 377 369 370
f 377 370 369
f 377 370 371
f 377 371 370
f 377 371 372
f 377 372 371
f 377 372 373
f 377 373 372
f 377 373 374
f 377 374 373
f 377 374 375
f 377 375 374
f 377 375 376
f 377 376 375
f 377 376 305
f 377 305 376
v 0.008674 0.523217 -0.022047 0.995 0.940 0.742
v 0.006820 0.517753 -0.019821 0.995 0.940 0.742
v 0.005400 0.511388 -0.017274 0.995 0.940 0.742
v 0.004212 0.505943 -0.014844 0.995 0.940 0.742
v 0.003151 0.501718 -0.012612 0.995 0.940 0.742
v 0.002141 0.498714 -0.010574 0.995 0.940 0.742
v 0.001127 0.496867 -0.008700 0.995 0.940 0.742
v 0.000062 0.496117 -0.006947 0.995 0.940 0.742
v -0.001089 0.496438 -0.005266 0.995 0.940 0.742
v -0.002361 0.497840 -0.003606 0.995 0.940 0.742
v -0.003777 0.500373 -0.001910 0.995 0.940 0.742
v -0.005352 0.504103 -0.000116 0.995 0.940 0.742
v -0.007076 0.509071 0.001843 0.995 0.940 0.742
v -0.008880 0.515144 0.004037 0.995 0.940 0.742
v -0.010517 0.521492 0.006513 0.995 0.940 0.742
v -0.010094 0.520308 0.009080 0.995 0.940 0.742
v -0.008176 0.513862 0.011339 0.995 0.940 0.742
v -0.006195 0.507980 0.013313 0.995 0.940 0.742
v -0.004335 0.503258 0.015076 0.995 0.940 0.742
v -0.002642 0.499773 0.016701 0.995 0.940 0.742
v -0.001113 0.497471 0.018257 0.995 0.940 0.742
v 0.000274 0.496288 0.019800 0.995 0.940 0.742
v 0.001551 0.496181 0.021385 0.995 0.940 0.742
v 0.002755 0.497147 0.023059 0.995 0.940 0.742
v 0.003929 0.499220 0.024866 0.995 0.940 0.742
v 0.005123 0.502463 0.026842 0.995 0.940 0.742
v 0.006400 0.506937 0.029011 0.995 0.940 0.742
v 0.007837 0.512607 0.031357 0.995 0.940 0.742
v 0.009540 0.519049 0.033759 0.995 0.940 0.742
v 0.011765 0.522530 0.035318 0.995 0.940 0.742
v 0.014572 0.516445 0.034401 0.995 0.940 0.742
v 0.017166 0.510208 0.033149 0.995 0.940 0.742
v 0.019507 0.504998 0.031892 0.995 0.940 0.742
v 0.021642 0.501021 0.030733 0.995 0.940 0.742
v 0.023632 0.498254 0.029706 0.995 0.940 0.742
v 0.025544 0.496631 0.028812 0.995 0.940 0.742
v 0.027436 0.496096 0.028043 0.995 0.940 0.742
v 0.029369 0.496631 0.027379 0.995 0.940 0.742
v 0.031397 0.498254 0.026797 0.995 0.940 0.742
v 0.033573 0.501021 0.026264 0.995 0.940 0.742
v 0.035943 0.504998 0.025735 0.995 0.940 0.742
v 0.038534 0.510208 0.025145 0.995 0.940 0.742
v 0.041312 0.516445 0.024384 0.995 0.940 0.742
v 0.044031 0.522530 0.023232 0.995 0.940 0.742
v 0.044684 0.519049 0.020594 0.995 0.940 0.742
v 0.044390 0.512607 0.017665 0.995 0.940 0.742
v 0.043932 0.506937 0.014952 0.995 0.940 0.742
v 0.043470 0.502463 0.012478 0.995 0.940 0.742
v 0.043072 0.499220 0.010203 0.995 0.940 0.742
v 0.042770 0.497147 0.008070 0.995 0.940 0.742
v 0.042577 0.496181 0.006017 0.995 0.940 0.742
v 0.042499 0.496288 0.003983 0.995 0.940 0.742
v 0.042530 0.497471 0.001909 0.995 0.940 0.742
v 0.042661 0.499773 -0.000268 0.995 0.940 0.742
v 0.042870 0.503258 -0.002606 0.995 0.940 0.742
v 0.043114 0.507980 -0.005157 0.995 0.940 0.742
v 0.043310 0.513862 -0.007947 0.995 0.940 0.742
v 0.043273 0.520308 -0.010910 0.995 0.940 0.742
v 0.041905 0.521492 -0.013123 0.995 0.940 0.742
v 0.039044 0.515144 -0.013915 0.995 0.940 0.742
v 0.036242 0.509071 -0.014383 0.995 0.940 0.742
v 0.033655 0.504103 -0.014727 0.995 0.940 0.742
v 0.031290 0.500373 -0.015045 0.995 0.940 0.742
v 0.029108 0.497840 -0.015393 0.995 0.940 0.742
v 0.027059 0.496438 -0.015810 0.995 0.940 0.742
v 0.025086 0.496117 -0.016320 0.995 0.940 0.742
v 0.023131 0.496867 -0.016943 0.995 0.940 0.742
v 0.021135 0.498714 -0.017689 0.995 0.940 0.742
v 0.019036 0.501718 -0.018562 0.995 0.940 0.742
v 0.016769 0.505943 -0.019548 0.995 0.940 0.742
v 0.014277 0.511388 -0.020599 0.995 0.940 0.742
v 0.011534 0.517753 -0.021586 0.995 0.940 0.742
v 0.019267 0.439217 0.006235 0.995 0.940 0.742
f 450 378 379
f 450 379 378
f 450 379 380
f 450 380 379
f 450 380 381
f 450 381 380
f 450 381 382
f 450 382 381
f 450 382 383
f 450 383 382
f 450 383 384
f 450 384 383
f 450 384 385
f 450 385 384
f 450 385 386
f 450 386 385
f 450 386 387
f 450 387 386
f 450 387 388
f 450 388 387
f 450 388 389
f 450 389 388
f 450 389 390
f 450 390 389
f 450 390 391
f 450 391 390
f 450 391 392
f 450 392 391
f 450 392 393
f 450 393 392
f 450 393 394
f 450 394 393
f 450 394 395
f 450 395 394
f 450 395 396
f 450 396 395
f 450 396 397
f 450 397 396
f 450 397 398
f 450 398 397
f 450 398 399
f 450 399 398
f 450 399 400
f 450 400 399
f 450 400 401
f 450 401 400
f 450 401 402
f 450 402 401
f 450 402 403
f 450 403 402
f 450 403 404
f 450 404 403
f 450 404 405
f 450 405 404
f 450 405 406
f 450 406 405
f 450 406 407
f 450 407 406
f 450 407 408
f 450 408 407
f 450 408 409
f 450 409 408
f 450 409 410
f 450 410 409
f 450 410 411
f 450 411 410
f 450 411 412
f 450 412 411
f 450 412 413
f 450 413 412
f 450 413 414
f 450 414 413
f 450 414 415
f 450 415 414
f 450 415 416
f 450 416 415
f 450 416 417
f 450 417 416
f 450 417 418
f 450 418 417
f 450 418 419
f 450 419 418
f 450 419 420
f 450 420 419
f 450 420 421
f 450 421 420
f 450 421 422
f 450 422 421
f 450 422 423
f 450 423 422
f 450 423 424
f 450 424 423
f 450 424 425
f 450 425 424
f 450 425 426
f 450 426 425
f 450 426 427
f 450 427 426
f 450 427 428
f 450 428 427
f 450 428 429
f 450 429 428
f 450 429 430
f 450 430 429
f 450 430 431
f 450 431 430
f 450 431 432
f 450 432 431
f 450 432 433
f 450 433 432
f 450 433 434
f 450 434 433
f 450 434 435
f 450 435 434
f 450 435 436
f 450 436 435
f 450 436 437
f 450 437 436
f 450 437 438
f 450 438 437
f 450 438 439
f 450 439 438
f 450 439 440
f 450 440 439
f 450 440 441
f 450 441 440
f 450 441 442
f 450 442 441
f 450 442 443
f 450 443 442
f 450 443 444
f 450 444 443
f 450 444 445
f 450 445 444
f 450 445 446
f 450 446 445
f 450 446 447
f 450 447 446
f 450 447 448
f 450 448 447
f 450 448 449
f 450 449 448
f 450 449 378
f 450 378 449
v -0.002395 0.245140 -0.005501 0.160 0.352 0.136
v 0.001511 0.250910 -0.000658 0.160 0.352 0.136
v 0.002395 0.245140 0.005501 0.160 0.352 0.136
v -0.001511 0.239371 0.000658 0.160 0.352 0.136
v 0.031691 0.235140 -0.014890 0.160 0.352 0.136
v 0.032342 0.236102 -0.014083 0.160 0.352 0.136
v 0.032489 0.235140 -0.013056 0.160 0.352 0.136
v 0.031838 0.234179 -0.013863 0.160 0.352 0.136
f 451 452 456
f 451 456 455
f 452 453 457
f 452 457 456
f 453 454 458
f 453 458 457
f 454 451 455
f 454 455 458
v -0.002385 0.094283 -0.005506 0.160 0.352 0.136
v 0.001513 0.100052 -0.000655 0.160 0.352 0.136
v 0.002385 0.094283 0.005506 0.160 0.352 0.136
v -0.001513 0.088514 0.000655 0.160 0.352 0.136
v 0.031720 0.084283 -0.014828 0.160 0.352 0.136
v 0.032369 0.085244 -0.014019 0.160 0.352 0.136
v 0.032515 0.084283 -0.012992 0.160 0.352 0.136
v 0.031865 0.083321 -0.013801 0.160 0.352 0.136
f 459 460 464
f 459 464 463
f 460 461 465
f 460 465 464
f 461 462 466
f 461 466 465
f 462 459 463
f 462 463 466
v 0.002551 0.139647 0.005431 0.160 0.352 0.136
v -0.001492 0.145416 0.000701 0.160 0.352 0.136
v -0.002551 0.139647 -0.005431 0.160 0.352 0.136
v 0.001492 0.133878 -0.000701 0.160 0.352 0.136
v -0.031253 0.129647 0.015788 0.160 0.352 0.136
v -0.031927 0.130609 0.015000 0.160 0.352 0.136
v -0.032103 0.129647 0.013978 0.160 0.352 0.136
v -0.031429 0.128686 0.014766 0.160 0.352 0.136
f 467 468 472
f 467 472 471
f 468 469 473
f 468 473 472
f 469 470 474
f 469 474 473
f 470 467 471
f 470 471 474
v 0.000867 0.128715 0.005937 0.160 0.352 0.136
v -0.001631 0.134485 0.000238 0.160 0.352 0.136
v -0.000867 0.128715 -0.005937 0.160 0.352 0.136
v 0.001631 0.122946 -0.000238 0.160 0.352 0.136
v -0.034488 0.118715 0.006047 0.160 0.352 0.136
v -0.034904 0.119677 0.005097 0.160 0.352 0.136
v -0.034777 0.118715 0.004068 0.160 0.352 0.136
v -0.034361 0.117754 0.005018 0.160 0.352 0.136
f 475 476 480
f 475 480 479
f 476 477 481
f 476 481 480
f 477 478 482
f 477 482 481
f 478 475 479
f 478 479 482
v -0.005604 0.320108 -0.002144 0.160 0.352 0.136
v 0.000589 0.325878 -0.001540 0.160 0.352 0.136
v 0.005604 0.320108 0.002144 0.160 0.352 0.136
v -0.000589 0.314339 0.001540 0.160 0.352 0.136
v 0.011571 0.310108 -0.033047 0.160 0.352 0.136
v 0.012603 0.311070 -0.032946 0.160 0.352 0.136
v 0.013439 0.310108 -0.032333 0.160 0.352 0.136
v 0.012407 0.309147 -0.032433 0.160 0.352 0.136
f 483 484 488
f 483 488 487
f 484 485 489
f 484 489 488
f 485 486 490
f 485 490 489
f 486 483 487
f 486 487 490
v 0.000303 0.284103 -0.005992 0.160 0.352 0.136
v 0.001646 0.289872 0.000083 0.160 0.352 0.136
v -0.000303 0.284103 0.005992 0.160 0.352 0.136
v -0.001646 0.278334 -0.000083 0.160 0.352 0.136
v 0.035006 0.274103 0.000771 0.160 0.352 0.136
v 0.035230 0.275065 0.001783 0.160 0.352 0.136
v 0.034905 0.274103 0.002768 0.160 0.352 0.136
v 0.034681 0.273142 0.001755 0.160 0.352 0.136
f 491 492 496
f 491 496 495
f 492 493 497
f 492 497 496
f 493 494 498
f 493 498 497
f 494 491 495
f 494 495 498
v 0.001233 0.289285 0.005872 0.160 0.352 0.136
v -0.001613 0.295054 0.000339 0.160 0.352 0.136
v -0.001233 0.289285 -0.005872 0.160 0.352 0.136
v 0.001613 0.283516 -0.000339 0.160 0.352 0.136
v -0.034047 0.279285 0.008171 0.160 0.352 0.136
v -0.034522 0.280246 0.007249 0.160 0.352 0.136
v -0.034458 0.279285 0.006214 0.160 0.352 0.136
v -0.033984 0.278323 0.007136 0.160 0.352 0.136
f 499 500 504
f 499 504 503
f 500 501 505
f 500 505 504
f 501 502 506
f 501 506 505
f 502 499 503
f 502 503 506
v 0.002213 0.137333 0.005577 0.160 0.352 0.136
v -0.001532 0.143102 0.000608 0.160 0.352 0.136
v -0.002213 0.137333 -0.005577 0.160 0.352 0.136
v 0.001532 0.131563 -0.000608 0.160 0.352 0.136
v -0.032164 0.127333 0.013838 0.160 0.352 0.136
v -0.032788 0.128294 0.013009 0.160 0.352 0.136
v -0.032902 0.127333 0.011979 0.160 0.352 0.136
v -0.032277 0.126371 0.012807 0.160 0.352 0.136
f 507 508 512
f 507 512 511
f 508 509 513
f 508 513 512
f 509 510 514
f 509 514 513
f 510 507 511
f 510 511 514
v 0.002282 0.206739 -0.005549 0.160 0.352 0.136
v 0.001524 0.212508 0.000627 0.160 0.352 0.136
v -0.002282 0.206739 0.005549 0.160 0.352 0.136
v -0.001524 0.200970 -0.000627 0.160 0.352 0.136
v 0.032749 0.196739 0.012390 0.160 0.352 0.136
v 0.032623 0.197700 0.013419 0.160 0.352 0.136
v 0.031988 0.196739 0.014239 0.160 0.352 0.136
v 0.032114 0.195777 0.013210 0.160 0.352 0.136
f 515 516 520
f 515 520 519
f 516 517 521
f 516 521 520
f 517 518 522
f 517 522 521
f 518 515 519
f 518 519 522
v 0.002101 0.271323 -0.005620 0.160 0.352 0.136
v 0.001544 0.277092 0.000577 0.160 0.352 0.136
v -0.002101 0.271323 0.005620 0.160 0.352 0.136
v -0.001544 0.265554 -0.000577 0.160 0.352 0.136
v 0.033135 0.261323 0.011317 0.160 0.352 0.136
v 0.033042 0.262284 0.012350 0.160 0.352 0.136
v 0.032435 0.261323 0.013190 0.160 0.352 0.136
v 0.032528 0.260361 0.012157 0.160 0.352 0.136
f 523 524 528
f 523 528 527
f 524 525 529
f 524 529 528
f 525 526 530
f 525 530 529
f 526 523 527
f 526 527 530
v 0.000000 0.131765 -0.000000 0.180 0.500 0.200
v 0.000847 0.129927 0.003564 0.180 0.500 0.200
v 0.003104 0.128089 0.007377 0.180 0.500 0.200
v 0.006218 0.126252 0.011340 0.180 0.500 0.200
v 0.009852 0.124414 0.015395 0.180 0.500 0.200
v 0.013715 0.122576 0.019490 0.180 0.500 0.200
v 0.017533 0.120738 0.023577 0.180 0.500 0.200
v 0.021054 0.118900 0.027612 0.180 0.500 0.200
v 0.024052 0.117062 0.031555 0.180 0.500 0.200
v 0.026334 0.115224 0.035372 0.180 0.500 0.200
v 0.027749 0.113386 0.039036 0.180 0.500 0.200
v 0.028191 0.111548 0.042530 0.180 0.500 0.200
v 0.027609 0.109710 0.045843 0.180 0.500 0.200
v 0.026000 0.107873 0.048975 0.180 0.500 0.200
v 0.023420 0.106035 0.051937 0.180 0.500 0.200
v 0.019972 0.104197 0.054746 0.180 0.500 0.200
v 0.015809 0.102359 0.057429 0.180 0.500 0.200
v 0.011122 0.100521 0.060020 0.180 0.500 0.200
v 0.006139 0.098683 0.062558 0.180 0.500 0.200
v 0.001110 0.096845 0.065089 0.180 0.500 0.200
v -0.003690 0.095007 0.067660 0.180 0.500 0.200
v -0.007969 0.093169 0.070323 0.180 0.500 0.200
v -0.011392 0.091331 0.073136 0.180 0.500 0.200
v -0.013405 0.089494 0.076198 0.180 0.500 0.200
v -0.014251 0.091331 0.072633 0.180 0.500 0.200
v -0.016509 0.093169 0.068821 0.180 0.500 0.200
v -0.019622 0.095007 0.064858 0.180 0.500 0.200
v -0.023257 0.096845 0.060803 0.180 0.500 0.200
v -0.027120 0.098683 0.056708 0.180 0.500 0.200
v -0.030938 0.100521 0.052621 0.180 0.500 0.200
v -0.034459 0.102359 0.048586 0.180 0.500 0.200
v -0.037456 0.104197 0.044643 0.180 0.500 0.200
v -0.039738 0.106035 0.040826 0.180 0.500 0.200
v -0.041153 0.107873 0.037162 0.180 0.500 0.200
v -0.041596 0.109710 0.033668 0.180 0.500 0.200
v -0.041013 0.111548 0.030355 0.180 0.500 0.200
v -0.039405 0.113386 0.027223 0.180 0.500 0.200
v -0.036824 0.115224 0.024261 0.180 0.500 0.200
v -0.033377 0.117062 0.021452 0.180 0.500 0.200
v -0.029213 0.118900 0.018769 0.180 0.500 0.200
v -0.024527 0.120738 0.016178 0.180 0.500 0.200
v -0.019543 0.122576 0.013639 0.180 0.500 0.200
v -0.014515 0.124414 0.011108 0.180 0.500 0.200
v -0.009714 0.126252 0.008537 0.180 0.500 0.200
v -0.005435 0.128089 0.005875 0.180 0.500 0.200
v -0.002012 0.129927 0.003061 0.180 0.500 0.200
f 531 532 533
f 531 533 532
f 531 533 534
f 531 534 533
f 531 534 535
f 531 535 534
f 531 535 536
f 531 536 535
f 531 536 537
f 531 537 536
f 531 537 538
f 531 538 537
f 531 538 539
f 531 539 538
f 531 539 540
f 531 540 539
f 531 540 541
f 531 541 540
f 531 541 542
f 531 542 541
f 531 542 543
f 531 543 542
f 531 543 544
f 531 544 543
f 531 544 545
f 531 545 544
f 531 545 546
f 531 546 545
f 531 546 547
f 531 547 546
f 531 547 548
f 531 548 547
f 531 548 549
f 531 549 548
f 531 549 550
f 531 550 549
f 531 550 551
f 531 551 550
f 531 551 552
f 531 552 551
f 531 552 553
f 531 553 552
f 531 553 554
f 531 554 553
f 531 554 555
f 531 555 554
f 531 555 556
f 531 556 555
f 531 556 557
f 531 557 556
f 531 557 558
f 531 558 557
f 531 558 559
f 531 559 558
f 531 559 560
f 531 560 559
f 531 560 561
f 531 561 560
f 531 561 562
f 531 562 561
f 531 562 563
f 531 563 562
f 531 563 564
f 531 564 563
f 531 564 565
f 531 565 564
f 531 565 566
f 531 566 565
f 531 566 567
f 531 567 566
f 531 567 568
f 531 568 567
f 531 568 569
f 531 569 568
f 531 569 570
f 531 570 569
f 531 570 571
f 531 571 570
f 531 571 572
f 531 572 571
f 531 572 573
f 531 573 572
f 531 573 574
f 531 574 573
f 531 574 575
f 531 575 574
f 531 575 576
f 531 576 575
v 0.000000 0.131765 -0.000000 0.180 0.500 0.200
v 0.002531 0.130085 0.002867 0.180 0.500 0.200
v 0.006444 0.128404 0.005268 0.180 0.500 0.200
v 0.011197 0.126723 0.007384 0.180 0.500 0.200
v 0.016460 0.125043 0.009328 0.180 0.500 0.200
v 0.021948 0.123362 0.011197 0.180 0.500 0.200
v 0.027391 0.121681 0.013080 0.180 0.500 0.200
v 0.032543 0.120000 0.015061 0.180 0.500 0.200
v 0.037182 0.118320 0.017216 0.180 0.500 0.200
v 0.041120 0.116639 0.019608 0.180 0.500 0.200
v 0.044207 0.114958 0.022288 0.180 0.500 0.200
v 0.046342 0.113278 0.025289 0.180 0.500 0.200
v 0.047471 0.111597 0.028630 0.180 0.500 0.200
v 0.047594 0.109916 0.032311 0.180 0.500 0.200
v 0.046765 0.108236 0.036314 0.180 0.500 0.200
v 0.045085 0.106555 0.040604 0.180 0.500 0.200
v 0.042704 0.104874 0.045131 0.180 0.500 0.200
v 0.039810 0.103194 0.049831 0.180 0.500 0.200
v 0.036624 0.101513 0.054630 0.180 0.500 0.200
v 0.033395 0.099832 0.059444 0.180 0.500 0.200
v 0.030389 0.098152 0.064182 0.180 0.500 0.200
v 0.027894 0.096471 0.068748 0.180 0.500 0.200
v 0.026239 0.094790 0.073030 0.180 0.500 0.200
v 0.025967 0.093110 0.076845 0.180 0.500 0.200
v 0.023436 0.094790 0.073977 0.180 0.500 0.200
v 0.019523 0.096471 0.071577 0.180 0.500 0.200
v 0.014770 0.098152 0.069460 0.180 0.500 0.200
v 0.009506 0.099832 0.067516 0.180 0.500 0.200
v 0.004019 0.101513 0.065648 0.180 0.500 0.200
v -0.001424 0.103194 0.063765 0.180 0.500 0.200
v -0.006577 0.104874 0.061783 0.180 0.500 0.200
v -0.011216 0.106555 0.059628 0.180 0.500 0.200
v -0.015153 0.108236 0.057236 0.180 0.500 0.200
v -0.018241 0.109916 0.054557 0.180 0.500 0.200
v -0.020375 0.111597 0.051556 0.180 0.500 0.200
v -0.021504 0.113278 0.048215 0.180 0.500 0.200
v -0.021628 0.114958 0.044534 0.180 0.500 0.200
v -0.020798 0.116639 0.040531 0.180 0.500 0.200
v -0.019119 0.118320 0.036241 0.180 0.500 0.200
v -0.016737 0.120000 0.031714 0.180 0.500 0.200
v -0.013843 0.121681 0.027013 0.180 0.500 0.200
v -0.010658 0.123362 0.022214 0.180 0.500 0.200
v -0.007428 0.125043 0.017400 0.180 0.500 0.200
v -0.004423 0.126723 0.012662 0.180 0.500 0.200
v -0.001928 0.128404 0.008097 0.180 0.500 0.200
v -0.000273 0.130085 0.003815 0.180 0.500 0.200
f 577 578 579
f 577 579 578
f 577 579 580
f 577 580 579
f 577 580 581
f 577 581 580
f 577 581 582
f 577 582 581
f 577 582 583
f 577 583 582
f 577 583 584
f 577 584 583
f 577 584 585
f 577 585 584
f 577 585 586
f 577 586 585
f 577 586 587
f 577 587 586
f 577 587 588
f 577 588 587
f 577 588 589
f 577 589 588
f 577 589 590
f 577 590 589
f 577 590 591
f 577 591 590
f 577 591 592
f 577 592 591
f 577 592 593
f 577 593 592
f 577 593 594
f 577 594 593
f 577 594 595
f 577 595 594
f 577 595 596
f 577 596 595
f 577 596 597
f 577 597 596
f 577 597 598
f 577 598 597
f 577 598 599
f 577 599 598
f 577 599 600
f 577 600 599
f 577 600 601
f 577 601 600
f 577 601 602
f 577 602 601
f 577 602 603
f 577 603 602
f 577 603 604
f 577 604 603
f 577 604 605
f 577 605 604
f 577 605 606
f 577 606 605
f 577 606 607
f 577 607 606
f 577 607 608
f 577 608 607
f 577 608 609
f 577 609 608
f 577 609 610
f 577 610 609
f 577 610 611
f 577 611 610
f 577 611 612
f 577 612 611
f 577 612 613
f 577 613 612
f 577 613 614
f 577 614 613
f 577 614 615
f 577 615 614
f 577 615 616
f 577 616 615
f 577 616 617
f 577 617 616
f 577 617 618
f 577 618 617
f 577 618 619
f 577 619 618
f 577 619 620
f 577 620 619
f 577 620 621
f 577 621 620
f 577 621 622
f 577 622 621
v 0.000000 0.131765 -0.000000 0.180 0.500 0.200
v 0.003138 0.130053 0.001093 0.180 0.500 0.200
v 0.007161 0.128340 0.001226 0.180 0.500 0.200
v 0.011722 0.126628 0.000776 0.180 0.500 0.200
v 0.016610 0.124915 -0.000029 0.180 0.500 0.200
v 0.021642 0.123203 -0.000990 0.180 0.500 0.200
v 0.026645 0.121490 -0.001919 0.180 0.500 0.200
v 0.031461 0.119778 -0.002647 0.180 0.500 0.200
v 0.035950 0.118065 -0.003018 0.180 0.500 0.200
v 0.039989 0.116353 -0.002902 0.180 0.500 0.200
v 0.043483 0.114640 -0.002196 0.180 0.500 0.200
v 0.046367 0.112928 -0.000828 0.180 0.500 0.200
v 0.048608 0.111215 0.001238 0.180 0.500 0.200
v 0.050204 0.109503 0.004002 0.180 0.500 0.200
v 0.051191 0.107790 0.007428 0.180 0.500 0.200
v 0.051633 0.106078 0.011445 0.180 0.500 0.200
v 0.051626 0.104365 0.015948 0.180 0.500 0.200
v 0.051290 0.102653 0.020808 0.180 0.500 0.200
v 0.050768 0.100940 0.025870 0.180 0.500 0.200
v 0.050217 0.099228 0.030962 0.180 0.500 0.200
v 0.049810 0.097515 0.035899 0.180 0.500 0.200
v 0.049730 0.095803 0.040482 0.180 0.500 0.200
v 0.050188 0.094090 0.044481 0.180 0.500 0.200
v 0.051531 0.092377 0.047520 0.180 0.500 0.200
v 0.048393 0.094090 0.046428 0.180 0.500 0.200
v 0.044369 0.095803 0.046295 0.180 0.500 0.200
v 0.039809 0.097515 0.046745 0.180 0.500 0.200
v 0.034920 0.099228 0.047550 0.180 0.500 0.200
v 0.029889 0.100940 0.048510 0.180 0.500 0.200
v 0.024886 0.102653 0.049440 0.180 0.500 0.200
v 0.020069 0.104365 0.050167 0.180 0.500 0.200
v 0.015581 0.106078 0.050539 0.180 0.500 0.200
v 0.011542 0.107790 0.050423 0.180 0.500 0.200
v 0.008048 0.109503 0.049717 0.180 0.500 0.200
v 0.005163 0.111215 0.048349 0.180 0.500 0.200
v 0.002923 0.112928 0.046282 0.180 0.500 0.200
v 0.001326 0.114640 0.043518 0.180 0.500 0.200
v 0.000340 0.116353 0.040092 0.180 0.500 0.200
v -0.000102 0.118065 0.036076 0.180 0.500 0.200
v -0.000095 0.119778 0.031572 0.180 0.500 0.200
v 0.000241 0.121490 0.026713 0.180 0.500 0.200
v 0.000763 0.123203 0.021651 0.180 0.500 0.200
v 0.001313 0.124915 0.016558 0.180 0.500 0.200
v 0.001721 0.126628 0.011621 0.180 0.500 0.200
v 0.001801 0.128340 0.007039 0.180 0.500 0.200
v 0.001343 0.130053 0.003039 0.180 0.500 0.200
f 623 624 625
f 623 625 624
f 623 625 626
f 623 626 625
f 623 626 627
f 623 627 626
f 623 627 628
f 623 628 627
f 623 628 629
f 623 629 628
f 623 629 630
f 623 630 629
f 623 630 631
f 623 631 630
f 623 631 632
f 623 632 631
f 623 632 633
f 623 633 632
f 623 633 634
f 623 634 633
f 623 634 635
f 623 635 634
f 623 635 636
f 623 636 635
f 623 636 637
f 623 637 636
f 623 637 638
f 623 638 637
f 623 638 639
f 623 639 638
f 623 639 640
f 623 640 639
f 623 640 641
f 623 641 640
f 623 641 642
f 623 642 641
f 623 642 643
f 623 643 642
f 623 643 644
f 623 644 643
f 623 644 645
f 623 645 644
f 623 645 646
f 623 646 645
f 623 646 647
f 623 647 646
f 623 647 648
f 623 648 647
f 623 648 649
f 623 649 648
f 623 649 650
f 623 650 649
f 623 650 651
f 623 651 650
f 623 651 652
f 623 652 651
f 623 652 653
f 623 653 652
f 623 653 654
f 623 654 653
f 623 654 655
f 623 655 654
f 623 655 656
f 623 656 655
f 623 656 657
f 623 657 656
f 623 657 658
f 623 658 657
f 623 658 659
f 623 659 658
f 623 659 660
f 623 660 659
f 623 660 661
f 623 661 660
f 623 661 662
f 623 662 661
f 623 662 663
f 623 663 662
f 623 663 664
f 623 664 663
f 623 664 665
f 623 665 664
f 623 665 666
f 623 666 665
f 623 666 667
f 623 667 666
f 623 667 668
f 623 668 667
v 0.000000 0.241570 -0.000000 0.180 0.500 0.200
v 0.002520 0.239370 -0.001903 0.180 0.500 0.200
v 0.004772 0.237170 -0.005123 0.180 0.500 0.200
v 0.006862 0.234971 -0.009143 0.180 0.500 0.200
v 0.008853 0.232771 -0.013650 0.180 0.500 0.200
v 0.010801 0.230572 -0.018370 0.180 0.500 0.200
v 0.012757 0.228372 -0.023048 0.180 0.500 0.200
v 0.014770 0.226173 -0.027448 0.180 0.500 0.200
v 0.016882 0.223973 -0.031360 0.180 0.500 0.200
v 0.019130 0.221774 -0.034603 0.180 0.500 0.200
v 0.021542 0.219574 -0.037037 0.180 0.500 0.200
v 0.024138 0.217375 -0.038562 0.180 0.500 0.200
v 0.026930 0.215175 -0.039129 0.180 0.500 0.200
v 0.029916 0.212976 -0.038737 0.180 0.500 0.200
v 0.033086 0.210776 -0.037438 0.180 0.500 0.200
v 0.036421 0.208577 -0.035329 0.180 0.500 0.200
v 0.039892 0.206377 -0.032551 0.180 0.500 0.200
v 0.043462 0.204178 -0.029284 0.180 0.500 0.200
v 0.047088 0.201978 -0.025740 0.180 0.500 0.200
v 0.050723 0.199779 -0.022154 0.180 0.500 0.200
v 0.054315 0.197579 -0.018781 0.180 0.500 0.200
v 0.057807 0.195379 -0.015895 0.180 0.500 0.200
v 0.061138 0.193180 -0.013809 0.180 0.500 0.200
v 0.064200 0.190980 -0.013041 0.180 0.500 0.200
v 0.061680 0.193180 -0.011138 0.180 0.500 0.200
v 0.059428 0.195379 -0.007918 0.180 0.500 0.200
v 0.057338 0.197579 -0.003898 0.180 0.500 0.200
v 0.055347 0.199779 0.000609 0.180 0.500 0.200
v 0.053399 0.201978 0.005329 0.180 0.500 0.200
v 0.051443 0.204178 0.010007 0.180 0.500 0.200
v 0.049430 0.206377 0.014408 0.180 0.500 0.200
v 0.047318 0.208577 0.018319 0.180 0.500 0.200
v 0.045071 0.210776 0.021563 0.180 0.500 0.200
v 0.042658 0.212976 0.023996 0.180 0.500 0.200
v 0.040062 0.215175 0.025521 0.180 0.500 0.200
v 0.037270 0.217375 0.026088 0.180 0.500 0.200
v 0.034284 0.219574 0.025697 0.180 0.500 0.200
v 0.031114 0.221774 0.024398 0.180 0.500 0.200
v 0.027779 0.223973 0.022288 0.180 0.500 0.200
v 0.024308 0.226173 0.019510 0.180 0.500 0.200
v 0.020738 0.228372 0.016244 0.180 0.500 0.200
v 0.017112 0.230572 0.012700 0.180 0.500 0.200
v 0.013477 0.232771 0.009114 0.180 0.500 0.200
v 0.009886 0.234971 0.005741 0.180 0.500 0.200
v 0.006393 0.237170 0.002855 0.180 0.500 0.200
v 0.003063 0.239370 0.000769 0.180 0.500 0.200
f 669 670 671
f 669 671 670
f 669 671 672
f 669 672 671
f 669 672 673
f 669 673 672
f 669 673 674
f 669 674 673
f 669 674 675
f 669 675 674
f 669 675 676
f 669 676 675
f 669 676 677
f 669 677 676
f 669 677 678
f 669 678 677
f 669 678 679
f 669 679 678
f 669 679 680
f 669 680 679
f 669 680 681
f 669 681 680
f 669 681 682
f 669 682 681
f 669 682 683
f 669 683 682
f 669 683 684
f 669 684 683
f 669 684 685
f 669 685 684
f 669 685 686
f 669 686 685
f 669 686 687
f 669 687 686
f 669 687 688
f 669 688 687
f 669 688 689
f 669 689 688
f 669 689 690
f 669 690 689
f 669 690 691
f 669 691 690
f 669 691 692
f 669 692 691
f 669 692 693
f 669 693 692
f 669 693 694
f 669 694 693
f 669 694 695
f 669 695 694
f 669 695 696
f 669 696 695
f 669 696 697
f 669 697 696
f 669 697 698
f 669 698 697
f 669 698 699
f 669 699 698
f 669 699 700
f 669 700 699
f 669 700 701
f 669 701 700
f 669 701 702
f 669 702 701
f 669 702 703
f 669 703 702
f 669 703 704
f 669 704 703
f 669 704 705
f 669 705 704
f 669 705 706
f 669 706 705
f 669 706 707
f 669 707 706
f 669 707 708
f 669 708 707
f 669 708 709
f 669 709 708
f 669 709 710
f 669 710 709
f 669 710 711
f 669 711 710
f 669 711 712
f 669 712 711
f 669 712 713
f 669 713 712
f 669 713 714
f 669 714 713
v 0.000000 0.241570 -0.000000 0.180 0.500 0.200
v 0.001293 0.240318 -0.002527 0.180 0.500 0.200
v 0.001888 0.239066 -0.005883 0.180 0.500 0.200
v 0.002058 0.237814 -0.009743 0.180 0.500 0.200
v 0.001970 0.236562 -0.013908 0.180 0.500 0.200
v 0.001769 0.235310 -0.018208 0.180 0.500 0.200
v 0.001591 0.234058 -0.022481 0.180 0.500 0.200
v 0.001559 0.232807 -0.026580 0.180 0.500 0.200
v 0.001787 0.231555 -0.030371 0.180 0.500 0.200
v 0.002369 0.230303 -0.033742 0.180 0.500 0.200
v 0.003381 0.229051 -0.036603 0.180 0.500 0.200
v 0.004874 0.227799 -0.038893 0.180 0.500 0.200
v 0.006876 0.226547 -0.040580 0.180 0.500 0.200
v 0.009385 0.225296 -0.041664 0.180 0.500 0.200
v 0.012376 0.224044 -0.042177 0.180 0.500 0.200
v 0.015797 0.222792 -0.042181 0.180 0.500 0.200
v 0.019572 0.221540 -0.041764 0.180 0.500 0.200
v 0.023606 0.220288 -0.041040 0.180 0.500 0.200
v 0.027788 0.219036 -0.040141 0.180 0.500 0.200
v 0.031991 0.217784 -0.039215 0.180 0.500 0.200
v 0.036082 0.216533 -0.038424 0.180 0.500 0.200
v 0.039915 0.215281 -0.037939 0.180 0.500 0.200
v 0.043323 0.214029 -0.037957 0.180 0.500 0.200
v 0.046033 0.212777 -0.038804 0.180 0.500 0.200
v 0.044739 0.214029 -0.036277 0.180 0.500 0.200
v 0.044145 0.215281 -0.032921 0.180 0.500 0.200
v 0.043974 0.216533 -0.029061 0.180 0.500 0.200
v 0.044062 0.217784 -0.024896 0.180 0.500 0.200
v 0.044263 0.219036 -0.020596 0.180 0.500 0.200
v 0.044442 0.220288 -0.016323 0.180 0.500 0.200
v 0.044473 0.221540 -0.012224 0.180 0.500 0.200
v 0.044246 0.222792 -0.008433 0.180 0.500 0.200
v 0.043663 0.224044 -0.005062 0.180 0.500 0.200
v 0.042651 0.225296 -0.002201 0.180 0.500 0.200
v 0.041158 0.226547 0.000089 0.180 0.500 0.200
v 0.039157 0.227799 0.001776 0.180 0.500 0.200
v 0.036647 0.229051 0.002860 0.180 0.500 0.200
v 0.033656 0.230303 0.003373 0.180 0.500 0.200
v 0.030236 0.231555 0.003377 0.180 0.500 0.200
v 0.026461 0.232807 0.002960 0.180 0.500 0.200
v 0.022426 0.234058 0.002236 0.180 0.500 0.200
v 0.018245 0.235310 0.001337 0.180 0.500 0.200
v 0.014041 0.236562 0.000411 0.180 0.500 0.200
v 0.009950 0.237814 -0.000380 0.180 0.500 0.200
v 0.006118 0.239066 -0.000865 0.180 0.500 0.200
v 0.002710 0.240318 -0.000847 0.180 0.500 0.200
f 715 716 717
f 715 717 716
f 715 717 718
f 715 718 717
f 715 718 719
f 715 719 718
f 715 719 720
f 715 720 719
f 715 720 721
f 715 721 720
f 715 721 722
f 715 722 721
f 715 722 723
f 715 723 722
f 715 723 724
f 715 724 723
f 715 724 725
f 715 725 724
f 715 725 726
f 715 726 725
f 715 726 727
f 715 727 726
f 715 727 728
f 715 728 727
f 715 728 729
f 715 729 728
f 715 729 730
f 715 730 729
f 715 730 731
f 715 731 730
f 715 731 732
f 715 732 731
f 715 732 733
f 715 733 732
f 715 733 734
f 715 734 733
f 715 734 735
f 715 735 734
f 715 735 736
f 715 736 735
f 715 736 737
f 715 737 736
f 715 737 738
f 715 738 737
f 715 738 739
f 715 739 738
f 715 739 740
f 715 740 739
f 715 740 741
f 715 741 740
f 715 741 742
f 715 742 741
f 715 742 743
f 715 743 742
f 715 743 744
f 715 744 743
f 715 744 745
f 715 745 744
f 715 745 746
f 715 746 745
f 715 746 747
f 715 747 746
f 715 747 748
f 715 748 747
f 715 748 749
f 715 749 748
f 715 749 750
f 715 750 749
f 715 750 751
f 715 751 750
f 715 751 752
f 715 752 751
f 715 752 753
f 715 753 752
f 715 753 754
f 715 754 753
f 715 754 755
f 715 755 754
f 715 755 756
f 715 756 755
f 715 756 757
f 715 757 756
f 715 757 758
f 715 758 757
f 715 758 759
f 715 759 758
f 715 759 760
f 715 760 759
v 0.000000 0.241570 -0.000000 0.180 0.500 0.200
v -0.000115 0.240040 -0.003007 0.180 0.500 0.200
v -0.001329 0.238511 -0.006441 0.180 0.500 0.200
v -0.003210 0.236982 -0.010134 0.180 0.500 0.200
v -0.005498 0.235453 -0.013984 0.180 0.500 0.200
v -0.007963 0.233923 -0.017904 0.180 0.500 0.200
v -0.010394 0.232394 -0.021810 0.180 0.500 0.200
v -0.012593 0.230865 -0.025626 0.180 0.500 0.200
v -0.014384 0.229336 -0.029284 0.180 0.500 0.200
v -0.015618 0.227806 -0.032726 0.180 0.500 0.200
v -0.016175 0.226277 -0.035904 0.180 0.500 0.200
v -0.015975 0.224748 -0.038789 0.180 0.500 0.200
v -0.014975 0.223218 -0.041363 0.180 0.500 0.200
v -0.013176 0.221689 -0.043627 0.180 0.500 0.200
v -0.010620 0.220160 -0.045596 0.180 0.500 0.200
v -0.007387 0.218631 -0.047303 0.180 0.500 0.200
v -0.003597 0.217101 -0.048794 0.180 0.500 0.200
v 0.000602 0.215572 -0.050126 0.180 0.500 0.200
v 0.005031 0.214043 -0.051368 0.180 0.500 0.200
v 0.009496 0.212514 -0.052597 0.180 0.500 0.200
v 0.013783 0.210984 -0.053894 0.180 0.500 0.200
v 0.017664 0.209455 -0.055350 0.180 0.500 0.200
v 0.020877 0.207926 -0.057064 0.180 0.500 0.200
v 0.022991 0.206397 -0.059206 0.180 0.500 0.200
v 0.023106 0.207926 -0.056199 0.180 0.500 0.200
v 0.024320 0.209455 -0.052765 0.180 0.500 0.200
v 0.026201 0.210984 -0.049072 0.180 0.500 0.200
v 0.028489 0.212514 -0.045221 0.180 0.500 0.200
v 0.030954 0.214043 -0.041302 0.180 0.500 0.200
v 0.033385 0.215572 -0.037396 0.180 0.500 0.200
v 0.035584 0.217101 -0.033579 0.180 0.500 0.200
v 0.037375 0.218631 -0.029921 0.180 0.500 0.200
v 0.038608 0.220160 -0.026480 0.180 0.500 0.200
v 0.039166 0.221689 -0.023301 0.180 0.500 0.200
v 0.038966 0.223218 -0.020417 0.180 0.500 0.200
v 0.037966 0.224748 -0.017843 0.180 0.500 0.200
v 0.036167 0.226277 -0.015579 0.180 0.500 0.200
v 0.033610 0.227806 -0.013609 0.180 0.500 0.200
v 0.030378 0.229336 -0.011902 0.180 0.500 0.200
v 0.026587 0.230865 -0.010412 0.180 0.500 0.200
v 0.022389 0.232394 -0.009080 0.180 0.500 0.200
v 0.017959 0.233923 -0.007838 0.180 0.500 0.200
v 0.013495 0.235453 -0.006609 0.180 0.500 0.200
v 0.009208 0.236982 -0.005311 0.180 0.500 0.200
v 0.005327 0.238511 -0.003856 0.180 0.500 0.200
v 0.002114 0.240040 -0.002141 0.180 0.500 0.200
f 761 762 763
f 761 763 762
f 761 763 764
f 761 764 763
f 761 764 765
f 761 765 764
f 761 765 766
f 761 766 765
f 761 766 767
f 761 767 766
f 761 767 768
f 761 768 767
f 761 768 769
f 761 769 768
f 761 769 770
f 761 770 769
f 761 770 771
f 761 771 770
f 761 771 772
f 761 772 771
f 761 772 773
f 761 773 772
f 761 773 774
f 761 774 773
f 761 774 775
f 761 775 774
f 761 775 776
f 761 776 775
f 761 776 777
f 761 777 776
f 761 777 778
f 761 778 777
f 761 778 779
f 761 779 778
f 761 779 780
f 761 780 779
f 761 780 781
f 761 781 780
f 761 781 782
f 761 782 781
f 761 782 783
f 761 783 782
f 761 783 784
f 761 784 783
f 761 784 785
f 761 785 784
f 761 785 786
f 761 786 785
f 761 786 787
f 761 787 786
f 761 787 788
f 761 788 787
f 761 788 789
f 761 789 788
f 761 789 790
f 761 790 789
f 761 790 791
f 761 791 790
f 761 791 792
f 761 792 791
f 761 792 793
f 761 793 792
f 761 793 794
f 761 794 793
f 761 794 795
f 761 795 794
f 761 795 796
f 761 796 795
f 761 796 797
f 761 797 796
f 761 797 798
f 761 798 797
f 761 798 799
f 761 799 798
f 761 799 800
f 761 800 799
f 761 800 801
f 761 801 800
f 761 801 802
f 761 802 801
f 761 802 803
f 761 803 802
f 761 803 804
f 761 804 803
f 761 804 805
f 761 805 804
f 761 805 806
f 761 806 805
v 0.000000 0.342590 -0.000000 0.180 0.500 0.200
v -0.000232 0.341534 0.002864 0.180 0.500 0.200
v 0.000491 0.340479 0.006210 0.180 0.500 0.200
v 0.001794 0.339423 0.009848 0.180 0.500 0.200
v 0.003449 0.338368 0.013665 0.180 0.500 0.200
v 0.005259 0.337312 0.017559 0.180 0.500 0.200
v 0.007038 0.336257 0.021439 0.180 0.500 0.200
v 0.008617 0.335201 0.025216 0.180 0.500 0.200
v 0.009841 0.334146 0.028815 0.180 0.500 0.200
v 0.010581 0.333091 0.032170 0.180 0.500 0.200
v 0.010733 0.332035 0.035228 0.180 0.500 0.200
v 0.010228 0.330980 0.037953 0.180 0.500 0.200
v 0.009029 0.329924 0.040329 0.180 0.500 0.200
v 0.007135 0.328869 0.042353 0.180 0.500 0.200
v 0.004584 0.327813 0.044046 0.180 0.500 0.200
v 0.001446 0.326758 0.045442 0.180 0.500 0.200
v -0.002177 0.325702 0.046594 0.180 0.500 0.200
v -0.006154 0.324647 0.047566 0.180 0.500 0.200
v -0.010332 0.323591 0.048437 0.180 0.500 0.200
v -0.014541 0.322536 0.049293 0.180 0.500 0.200
v -0.018595 0.321481 0.050227 0.180 0.500 0.200
v -0.022296 0.320425 0.051339 0.180 0.500 0.200
v -0.025417 0.319370 0.052744 0.180 0.500 0.200
v -0.027584 0.318314 0.054630 0.180 0.500 0.200
v -0.027353 0.319370 0.051767 0.180 0.500 0.200
v -0.028076 0.320425 0.048421 0.180 0.500 0.200
v -0.029378 0.321481 0.044782 0.180 0.500 0.200
v -0.031034 0.322536 0.040966 0.180 0.500 0.200
v -0.032843 0.323591 0.037071 0.180 0.500 0.200
v -0.034623 0.324647 0.033192 0.180 0.500 0.200
v -0.036201 0.325702 0.029414 0.180 0.500 0.200
v -0.037425 0.326758 0.025815 0.180 0.500 0.200
v -0.038165 0.327813 0.022461 0.180 0.500 0.200
v -0.038318 0.328869 0.019403 0.180 0.500 0.200
v -0.037813 0.329924 0.016677 0.180 0.500 0.200
v -0.036613 0.330980 0.014302 0.180 0.500 0.200
v -0.034720 0.332035 0.012277 0.180 0.500 0.200
v -0.032169 0.333091 0.010584 0.180 0.500 0.200
v -0.029030 0.334146 0.009188 0.180 0.500 0.200
v -0.025407 0.335201 0.008037 0.180 0.500 0.200
v -0.021430 0.336257 0.007064 0.180 0.500 0.200
v -0.017252 0.337312 0.006193 0.180 0.500 0.200
v -0.013044 0.338368 0.005337 0.180 0.500 0.200
v -0.008990 0.339423 0.004403 0.180 0.500 0.200
v -0.005289 0.340479 0.003291 0.180 0.500 0.200
v -0.002167 0.341534 0.001887 0.180 0.500 0.200
f 807 808 809
f 807 809 808
f 807 809 810
f 807 810 809
f 807 810 811
f 807 811 810
f 807 811 812
f 807 812 811
f 807 812 813
f 807 813 812
f 807 813 814
f 807 814 813
f 807 814 815
f 807 815 814
f 807 815 816
f 807 816 815
f 807 816 817
f 807 817 816
f 807 817 818
f 807 818 817
f 807 818 819
f 807 819 818
f 807 819 820
f 807 820 819
f 807 820 821
f 807 821 820
f 807 821 822
f 807 822 821
f 807 822 823
f 807 823 822
f 807 823 824
f 807 824 823
f 807 824 825
f 807 825 824
f 807 825 826
f 807 826 825
f 807 826 827
f 807 827 826
f 807 827 828
f 807 828 827
f 807 828 829
f 807 829 828
f 807 829 830
f 807 830 829
f 807 830 831
f 807 831 830
f 807 831 832
f 807 832 831
f 807 832 833
f 807 833 832
f 807 833 834
f 807 834 833
f 807 834 835
f 807 835 834
f 807 835 836
f 807 836 835
f 807 836 837
f 807 837 836
f 807 837 838
f 807 838 837
f 807 838 839
f 807 839 838
f 807 839 840
f 807 840 839
f 807 840 841
f 807 841 840
f 807 841 842
f 807 842 841
f 807 842 843
f 807 843 842
f 807 843 844
f 807 844 843
f 807 844 845
f 807 845 844
f 807 845 846
f 807 846 845
f 807 846 847
f 807 847 846
f 807 847 848
f 807 848 847
f 807 848 849
f 807 849 848
f 807 849 850
f 807 850 849
f 807 850 851
f 807 851 850
f 807 851 852
f 807 852 851
v 0.000000 0.342590 -0.000000 0.180 0.500 0.200
v 0.001372 0.341414 0.003099 0.180 0.500 0.200
v 0.003996 0.340239 0.006158 0.180 0.500 0.200
v 0.007380 0.339064 0.009192 0.180 0.500 0.200
v 0.011228 0.337889 0.012210 0.180 0.500 0.200
v 0.015278 0.336714 0.015223 0.180 0.500 0.200
v 0.019288 0.335538 0.018236 0.180 0.500 0.200
v 0.023034 0.334363 0.021258 0.180 0.500 0.200
v 0.026316 0.333188 0.024296 0.180 0.500 0.200
v 0.028962 0.332013 0.027353 0.180 0.500 0.200
v 0.030838 0.330838 0.030436 0.180 0.500 0.200
v 0.031851 0.329662 0.033547 0.180 0.500 0.200
v 0.031953 0.328487 0.036687 0.180 0.500 0.200
v 0.031144 0.327312 0.039857 0.180 0.500 0.200
v 0.029471 0.326137 0.043055 0.180 0.500 0.200
v 0.027029 0.324962 0.046278 0.180 0.500 0.200
v 0.023951 0.323786 0.049521 0.180 0.500 0.200
v 0.020408 0.322611 0.052780 0.180 0.500 0.200
v 0.016602 0.321436 0.056047 0.180 0.500 0.200
v 0.012755 0.320261 0.059315 0.180 0.500 0.200
v 0.009111 0.319086 0.062577 0.180 0.500 0.200
v 0.005930 0.317910 0.065824 0.180 0.500 0.200
v 0.003510 0.316735 0.069046 0.180 0.500 0.200
v 0.002342 0.315560 0.072227 0.180 0.500 0.200
v 0.000971 0.316735 0.069128 0.180 0.500 0.200
v -0.001653 0.317910 0.066069 0.180 0.500 0.200
v -0.005038 0.319086 0.063036 0.180 0.500 0.200
v -0.008886 0.320261 0.060017 0.180 0.500 0.200
v -0.012936 0.321436 0.057004 0.180 0.500 0.200
v -0.016946 0.322611 0.053991 0.180 0.500 0.200
v -0.020692 0.323786 0.050969 0.180 0.500 0.200
v -0.023974 0.324962 0.047932 0.180 0.500 0.200
v -0.026620 0.326137 0.044874 0.180 0.500 0.200
v -0.028496 0.327312 0.041791 0.180 0.500 0.200
v -0.029509 0.328487 0.038680 0.180 0.500 0.200
v -0.029610 0.329662 0.035540 0.180 0.500 0.200
v -0.028802 0.330838 0.032370 0.180 0.500 0.200
v -0.027129 0.332013 0.029172 0.180 0.500 0.200
v -0.024687 0.333188 0.025949 0.180 0.500 0.200
v -0.021609 0.334363 0.022706 0.180 0.500 0.200
v -0.018066 0.335538 0.019448 0.180 0.500 0.200
v -0.014259 0.336714 0.016180 0.180 0.500 0.200
v -0.010413 0.337889 0.012912 0.180 0.500 0.200
v -0.006769 0.339064 0.009650 0.180 0.500 0.200
v -0.003588 0.340239 0.006404 0.180 0.500 0.200
v -0.001168 0.341414 0.003181 0.180 0.500 0.200
f 853 854 855
f 853 855 854
f 853 855 856
f 853 856 855
f 853 856 857
f 853 857 856
f 853 857 858
f 853 858 857
f 853 858 859
f 853 859 858
f 853 859 860
f 853 860 859
f 853 860 861
f 853 861 860
f 853 861 862
f 853 862 861
f 853 862 863
f 853 863 862
f 853 863 864
f 853 864 863
f 853 864 865
f 853 865 864
f 853 865 866
f 853 866 865
f 853 866 867
f 853 867 866
f 853 867 868
f 853 868 867
f 853 868 869
f 853 869 868
f 853 869 870
f 853 870 869
f 853 870 871
f 853 871 870
f 853 871 872
f 853 872 871
f 853 872 873
f 853 873 872
f 853 873 874
f 853 874 873
f 853 874 875
f 853 875 874
f 853 875 876
f 853 876 875
f 853 876 877
f 853 877 876
f 853 877 878
f 853 878 877
f 853 878 879
f 853 879 878
f 853 879 880
f 853 880 879
f 853 880 881
f 853 881 880
f 853 881 882
f 853 882 881
f 853 882 883
f 853 883 882
f 853 883 884
f 853 884 883
f 853 884 885
f 853 885 884
f 853 885 886
f 853 886 885
f 853 886 887
f 853 887 886
f 853 887 888
f 853 888 887
f 853 888 889
f 853 889 888
f 853 889 890
f 853 890 889
f 853 890 891
f 853 891 890
f 853 891 892
f 853 892 891
f 853 892 893
f 853 893 892
f 853 893 894
f 853 894 893
f 853 894 895
f 853 895 894
f 853 895 896
f 853 896 895
f 853 896 897
f 853 897 896
f 853 897 898
f 853 898 897
v 0.000000 0.342590 -0.000000 0.180 0.500 0.200
v 0.002562 0.340315 0.001685 0.180 0.500 0.200
v 0.006274 0.338041 0.002693 0.180 0.500 0.200
v 0.010683 0.335767 0.003291 0.180 0.500 0.200
v 0.015518 0.333493 0.003637 0.180 0.500 0.200
v 0.020537 0.331219 0.003875 0.180 0.500 0.200
v 0.025521 0.328945 0.004133 0.180 0.500 0.200
v 0.030262 0.326671 0.004535 0.180 0.500 0.200
v 0.034577 0.324396 0.005188 0.180 0.500 0.200
v 0.038309 0.322122 0.006184 0.180 0.500 0.200
v 0.041334 0.319848 0.007596 0.180 0.500 0.200
v 0.043567 0.317574 0.009476 0.180 0.500 0.200
v 0.044965 0.315300 0.011847 0.180 0.500 0.200
v 0.045526 0.313026 0.014711 0.180 0.500 0.200
v 0.045296 0.310752 0.018042 0.180 0.500 0.200
v 0.044359 0.308477 0.021789 0.180 0.500 0.200
v 0.042838 0.306203 0.025880 0.180 0.500 0.200
v 0.040891 0.303929 0.030222 0.180 0.500 0.200
v 0.038703 0.301655 0.034706 0.180 0.500 0.200
v 0.036477 0.299381 0.039212 0.180 0.500 0.200
v 0.034438 0.297107 0.043609 0.180 0.500 0.200
v 0.032823 0.294833 0.047755 0.180 0.500 0.200
v 0.031906 0.292558 0.051490 0.180 0.500 0.200
v 0.032138 0.290284 0.054548 0.180 0.500 0.200
v 0.029576 0.292558 0.052863 0.180 0.500 0.200
v 0.025864 0.294833 0.051855 0.180 0.500 0.200
v 0.021455 0.297107 0.051258 0.180 0.500 0.200
v 0.016621 0.299381 0.050911 0.180 0.500 0.200
v 0.011601 0.301655 0.050674 0.180 0.500 0.200
v 0.006617 0.303929 0.050415 0.180 0.500 0.200
v 0.001876 0.306203 0.050014 0.180 0.500 0.200
v -0.002439 0.308477 0.049361 0.180 0.500 0.200
v -0.006171 0.310752 0.048365 0.180 0.500 0.200
v -0.009196 0.313026 0.046952 0.180 0.500 0.200
v -0.011429 0.315300 0.045073 0.180 0.500 0.200
v -0.012826 0.317574 0.042701 0.180 0.500 0.200
v -0.013388 0.319848 0.039837 0.180 0.500 0.200
v -0.013158 0.322122 0.036506 0.180 0.500 0.200
v -0.012220 0.324396 0.032759 0.180 0.500 0.200
v -0.010700 0.326671 0.028669 0.180 0.500 0.200
v -0.008753 0.328945 0.024327 0.180 0.500 0.200
v -0.006564 0.331219 0.019842 0.180 0.500 0.200
v -0.004339 0.333493 0.015336 0.180 0.500 0.200
v -0.002299 0.335767 0.010940 0.180 0.500 0.200
v -0.000685 0.338041 0.006793 0.180 0.500 0.200
v 0.000232 0.340315 0.003058 0.180 0.500 0.200
f 899 900 901
f 899 901 900
f 899 901 902
f 899 902 901
f 899 902 903
f 899 903 902
f 899 903 904
f 899 904 903
f 899 904 905
f 899 905 904
f 899 905 906
f 899 906 905
f 899 906 907
f 899 907 906
f 899 907 908
f 899 908 907
f 899 908 909
f 899 909 908
f 899 909 910
f 899 910 909
f 899 910 911
f 899 911 910
f 899 911 912
f 899 912 911
f 899 912 913
f 899 913 912
f 899 913 914
f 899 914 913
f 899 914 915
f 899 915 914
f 899 915 916
f 899 916 915
f 899 916 917
f 899 917 916
f 899 917 918
f 899 918 917
f 899 918 919
f 899 919 918
f 899 919 920
f 899 920 919
f 899 920 921
f 899 921 920
f 899 921 922
f 899 922 921
f 899 922 923
f 899 923 922
f 899 923 924
f 899 924 923
f 899 924 925
f 899 925 924
f 899 925 926
f 899 926 925
f 899 926 927
f 899 927 926
f 899 927 928
f 899 928 927
f 899 928 929
f 899 929 928
f 899 929 930
f 899 930 929
f 899 930 931
f 899 931 930
f 899 931 932
f 899 932 931
f 899 932 933
f 899 933 932
f 899 933 934
f 899 934 933
f 899 934 935
f 899 935 934
f 899 935 936
f 899 936 935
f 899 936 937
f 899 937 936
f 899 937 938
f 899 938 937
f 899 938 939
f 899 939 938
f 899 939 940
f 899 940 939
f 899 940 941
f 899 941 940
f 899 941 942
f 899 942 941
f 899 942 943
f 899 943 942
f 899 943 944
f 899 944 943
