o mesh
v 0.000000 0.000006 0.011000 0.200 0.440 0.170
v 0.009524 0.000232 0.005500 0.200 0.440 0.170
v 0.009524 0.000226 -0.005500 0.200 0.440 0.170
v 0.000000 -0.000006 -0.011000 0.200 0.440 0.170
v -0.009524 -0.000232 -0.005500 0.200 0.440 0.170
v -0.009524 -0.000226 0.005500 0.200 0.440 0.170
v -0.013849 0.576352 0.007699 0.200 0.440 0.170
v -0.006923 0.576516 0.003699 0.200 0.440 0.170
v -0.006923 0.576512 -0.004301 0.200 0.440 0.170
v -0.013849 0.576344 -0.008301 0.200 0.440 0.170
v -0.020776 0.576179 -0.004300 0.200 0.440 0.170
v -0.020776 0.576184 0.003700 0.200 0.440 0.170
f 1 2 8
f 1 8 7
f 2 3 9
f 2 9 8
f 3 4 10
f 3 10 9
f 4 5 11
f 4 11 10
f 5 6 12
f 5 12 11
f 6 1 7
f 6 7 12
v -0.013849 0.588348 0.073664 0.988 0.497 0.264
v -0.007686 0.587567 0.070151 0.988 0.497 0.264
v -0.002242 0.586658 0.065530 0.988 0.497 0.264
v 0.002570 0.585880 0.060978 0.988 0.497 0.264
v 0.006922 0.585277 0.056770 0.988 0.497 0.264
v 0.010988 0.584847 0.052964 0.988 0.497 0.264
v 0.014925 0.584584 0.049538 0.988 0.497 0.264
v 0.018872 0.584477 0.046431 0.988 0.497 0.264
v 0.022958 0.584522 0.043565 0.988 0.497 0.264
v 0.027300 0.584723 0.040849 0.988 0.497 0.264
v 0.032005 0.585084 0.038176 0.988 0.497 0.264
v 0.037158 0.585617 0.035415 0.988 0.497 0.264
v 0.042795 0.586327 0.032403 0.988 0.497 0.264
v 0.048818 0.587195 0.028922 0.988 0.497 0.264
v 0.054699 0.588101 0.024649 0.988 0.497 0.264
v 0.055935 0.587932 0.018398 0.988 0.497 0.264
v 0.053477 0.587011 0.011571 0.988 0.497 0.264
v 0.050629 0.586171 0.005341 0.988 0.497 0.264
v 0.047877 0.585497 -0.000301 0.988 0.497 0.264
v 0.045390 0.584999 -0.005483 0.988 0.497 0.264
v 0.043220 0.584670 -0.010363 0.988 0.497 0.264
v 0.041365 0.584501 -0.015095 0.988 0.497 0.264
v 0.039799 0.584486 -0.019827 0.988 0.497 0.264
v 0.038476 0.584624 -0.024700 0.988 0.497 0.264
v 0.037336 0.584920 -0.029852 0.988 0.497 0.264
v 0.036295 0.585383 -0.035412 0.988 0.497 0.264
v 0.035230 0.586022 -0.041483 0.988 0.497 0.264
v 0.033949 0.586832 -0.048099 0.988 0.497 0.264
v 0.032108 0.587752 -0.055070 0.988 0.497 0.264
v 0.028343 0.588250 -0.060557 0.988 0.497 0.264
v 0.021117 0.587380 -0.060865 0.988 0.497 0.264
v 0.014092 0.586489 -0.060221 0.988 0.497 0.264
v 0.007643 0.585745 -0.059351 0.988 0.497 0.264
v 0.001752 0.585177 -0.058527 0.988 0.497 0.264
v -0.003697 0.584782 -0.057880 0.988 0.497 0.264
v -0.008847 0.584550 -0.057473 0.988 0.497 0.264
v -0.013849 0.584473 -0.057335 0.988 0.497 0.264
v -0.018851 0.584550 -0.057473 0.988 0.497 0.264
v -0.024002 0.584782 -0.057880 0.988 0.497 0.264
v -0.029451 0.585177 -0.058527 0.988 0.497 0.264
v -0.035342 0.585745 -0.059351 0.988 0.497 0.264
v -0.041791 0.586489 -0.060221 0.988 0.497 0.264
v -0.048816 0.587380 -0.060865 0.988 0.497 0.264
v -0.056042 0.588250 -0.060557 0.988 0.497 0.264
v -0.059806 0.587752 -0.055070 0.988 0.497 0.264
v -0.061648 0.586832 -0.048099 0.988 0.497 0.264
v -0.062929 0.586022 -0.041483 0.988 0.497 0.264
v -0.063994 0.585383 -0.035412 0.988 0.497 0.264
v -0.065035 0.584920 -0.029852 0.988 0.497 0.264
v -0.066175 0.584624 -0.024700 0.988 0.497 0.264
v -0.067498 0.584486 -0.019827 0.988 0.497 0.264
v -0.069064 0.584501 -0.015095 0.988 0.497 0.264
v -0.070919 0.584670 -0.010363 0.988 0.497 0.264
v -0.073089 0.584999 -0.005483 0.988 0.497 0.264
v -0.075576 0.585497 -0.000301 0.988 0.497 0.264
v -0.078328 0.586171 0.005341 0.988 0.497 0.264
v -0.081176 0.587011 0.011571 0.988 0.497 0.264
v -0.083634 0.587932 0.018398 0.988 0.497 0.264
v -0.082398 0.588101 0.024649 0.988 0.497 0.264
v -0.076517 0.587195 0.028922 0.988 0.497 0.264
v -0.070494 0.586327 0.032403 0.988 0.497 0.264
v -0.064857 0.585617 0.035415 0.988 0.497 0.264
v -0.059704 0.585084 0.038176 0.988 0.497 0.264
v -0.054999 0.584723 0.040849 0.988 0.497 0.264
v -0.050657 0.584522 0.043565 0.988 0.497 0.264
v -0.046571 0.584477 0.046431 0.988 0.497 0.264
v -0.042624 0.584584 0.049538 0.988 0.497 0.264
v -0.038687 0.584847 0.052964 0.988 0.497 0.264
v -0.034621 0.585277 0.056770 0.988 0.497 0.264
v -0.030269 0.585880 0.060978 0.988 0.497 0.264
v -0.025457 0.586658 0.065530 0.988 0.497 0.264
v -0.020013 0.587567 0.070151 0.988 0.497 0.264
v -0.013849 0.576348 -0.000301 0.988 0.497 0.264
f 85 13 14
f 85 14 13
f 85 14 15
f 85 15 14
f 85 15 16
f 85 16 15
f 85 16 17
f 85 17 16
f 85 17 18
f 85 18 17
f 85 18 19
f 85 19 18
f 85 19 20
f 85 20 19
f 85 20 21
f 85 21 20
f 85 21 22
f 85 22 21
f 85 22 23
f 85 23 22
f 85 23 24
f 85 24 23
f 85 24 25
f 85 25 24
f 85 25 26
f 85 26 25
f 85 26 27
f 85 27 26
f 85 27 28
f 85 28 27
f 85 28 29
f 85 29 28
f 85 29 30
f 85 30 29
f 85 30 31
f 85 31 30
f 85 31 32
f 85 32 31
f 85 32 33
f 85 33 32
f 85 33 34
f 85 34 33
f 85 34 35
f 85 35 34
f 85 35 36
f 85 36 35
f 85 36 37
f 85 37 36
f 85 37 38
f 85 38 37
f 85 38 39
f 85 39 38
f 85 39 40
f 85 40 39
f 85 40 41
f 85 41 40
f 85 41 42
f 85 42 41
f 85 42 43
f 85 43 42
f 85 43 44
f 85 44 43
f 85 44 45
f 85 45 44
f 85 45 46
f 85 46 45
f 85 46 47
f 85 47 46
f 85 47 48
f 85 48 47
f 85 48 49
f 85 49 48
f 85 49 50
f 85 50 49
f 85 50 51
f 85 51 50
f 85 51 52
f 85 52 51
f 85 52 53
f 85 53 52
f 85 53 54
f 85 54 53
f 85 54 55
f 85 55 54
f 85 55 56
f 85 56 55
f 85 56 57
f 85 57 56
f 85 57 58
f 85 58 57
f 85 58 59
f 85 59 58
f 85 59 60
f 85 60 59
f 85 60 61
f 85 61 60
f 85 61 62
f 85 62 61
f 85 62 63
f 85 63 62
f 85 63 64
f 85 64 63
f 85 64 65
f 85 65 64
f 85 65 66
f 85 66 65
f 85 66 67
f 85 67 66
f 85 67 68
f 85 68 67
f 85 68 69
f 85 69 68
f 85 69 70
f 85 70 69
f 85 70 71
f 85 71 70
f 85 71 72
f 85 72 71
f 85 72 73
f 85 73 72
f 85 73 74
f 85 74 73
f 85 74 75
f 85 75 74
f 85 75 76
f 85 76 75
f 85 76 77
f 85 77 76
f 85 77 78
f 85 78 77
f 85 78 79
f 85 79 78
f 85 79 80
f 85 80 79
f 85 80 81
f 85 81 80
f 85 81 82
f 85 82 81
f 85 82 83
f 85 83 82
f 85 83 84
f 85 84 83
f 85 84 13
f 85 13 84
v 0.024270 0.602748 0.044956 0.990 0.557 0.352
v 0.026231 0.601030 0.039630 0.990 0.557 0.352
v 0.027180 0.599030 0.033997 0.990 0.557 0.352
v 0.027778 0.597319 0.028732 0.990 0.557 0.352
v 0.028273 0.595991 0.023914 0.990 0.557 0.352
v 0.028799 0.595047 0.019490 0.990 0.557 0.352
v 0.029442 0.594466 0.015365 0.990 0.557 0.352
v 0.030256 0.594231 0.011429 0.990 0.557 0.352
v 0.031279 0.594332 0.007570 0.990 0.557 0.352
v 0.032536 0.594772 0.003670 0.990 0.557 0.352
v 0.034037 0.595568 -0.000390 0.990 0.557 0.352
v 0.035768 0.596741 -0.004735 0.990 0.557 0.352
v 0.037665 0.598302 -0.009483 0.990 0.557 0.352
v 0.039555 0.600211 -0.014717 0.990 0.557 0.352
v 0.040952 0.602206 -0.020363 0.990 0.557 0.352
v 0.038487 0.601834 -0.024824 0.990 0.557 0.352
v 0.033464 0.599808 -0.027735 0.990 0.557 0.352
v 0.028511 0.597959 -0.030079 0.990 0.557 0.352
v 0.023920 0.596475 -0.032113 0.990 0.557 0.352
v 0.019727 0.595380 -0.034002 0.990 0.557 0.352
v 0.015884 0.594656 -0.035870 0.990 0.557 0.352
v 0.012310 0.594284 -0.037809 0.990 0.557 0.352
v 0.008913 0.594251 -0.039897 0.990 0.557 0.352
v 0.005592 0.594554 -0.042197 0.990 0.557 0.352
v 0.002239 0.595206 -0.044762 0.990 0.557 0.352
v -0.001263 0.596225 -0.047627 0.990 0.557 0.352
v -0.005043 0.597631 -0.050793 0.990 0.557 0.352
v -0.009237 0.599413 -0.054181 0.990 0.557 0.352
v -0.013956 0.601438 -0.057498 0.990 0.557 0.352
v -0.019088 0.602532 -0.058915 0.990 0.557 0.352
v -0.023667 0.600620 -0.055379 0.990 0.557 0.352
v -0.027634 0.598659 -0.051365 0.990 0.557 0.352
v -0.031132 0.597022 -0.047508 0.990 0.557 0.352
v -0.034312 0.595772 -0.043969 0.990 0.557 0.352
v -0.037312 0.594902 -0.040764 0.990 0.557 0.352
v -0.040254 0.594392 -0.037861 0.990 0.557 0.352
v -0.043243 0.594224 -0.035198 0.990 0.557 0.352
v -0.046375 0.594392 -0.032705 0.990 0.557 0.352
v -0.049737 0.594902 -0.030299 0.990 0.557 0.352
v -0.053404 0.595772 -0.027887 0.990 0.557 0.352
v -0.057433 0.597022 -0.025355 0.990 0.557 0.352
v -0.061828 0.598659 -0.022564 0.990 0.557 0.352
v -0.066458 0.600620 -0.019337 0.990 0.557 0.352
v -0.070721 0.602532 -0.015425 0.990 0.557 0.352
v -0.070196 0.601438 -0.010127 0.990 0.557 0.352
v -0.067730 0.599413 -0.004913 0.990 0.557 0.352
v -0.065104 0.597631 -0.000205 0.990 0.557 0.352
v -0.062627 0.596225 0.004059 0.990 0.557 0.352
v -0.060399 0.595206 0.007997 0.990 0.557 0.352
v -0.058441 0.594554 0.011737 0.990 0.557 0.352
v -0.056739 0.594251 0.015401 0.990 0.557 0.352
v -0.055259 0.594284 0.019103 0.990 0.557 0.352
v -0.053955 0.594656 0.022954 0.990 0.557 0.352
v -0.052768 0.595380 0.027059 0.990 0.557 0.352
v -0.051618 0.596475 0.031512 0.990 0.557 0.352
v -0.050395 0.597959 0.036382 0.990 0.557 0.352
v -0.048926 0.599808 0.041661 0.990 0.557 0.352
v -0.046912 0.601834 0.047106 0.990 0.557 0.352
v -0.042934 0.602206 0.050294 0.990 0.557 0.352
v -0.037133 0.600211 0.049877 0.990 0.557 0.352
v -0.031654 0.598302 0.048903 0.990 0.557 0.352
v -0.026653 0.596741 0.047841 0.990 0.557 0.352
v -0.022077 0.595568 0.046874 0.990 0.557 0.352
v -0.017820 0.594772 0.046085 0.990 0.557 0.352
v -0.013764 0.594332 0.045509 0.990 0.557 0.352
v -0.009787 0.594231 0.045157 0.990 0.557 0.352
v -0.005770 0.594466 0.045024 0.990 0.557 0.352
v -0.001596 0.595047 0.045091 0.990 0.557 0.352
v 0.002853 0.595991 0.045324 0.990 0.557 0.352
v 0.007685 0.597319 0.045656 0.990 0.557 0.352
v 0.012975 0.599030 0.045962 0.990 0.557 0.352
v 0.018688 0.601030 0.045983 0.990 0.557 0.352
v -0.013849 0.576348 -0.000301 0.990 0.557 0.352
f 158 86 87
f 158 87 86
f 158 87 88
f 158 88 87
f 158 88 89
f 158 89 88
f 158 89 90
f 158 90 89
f 158 90 91
f 158 91 90
f 158 91 92
f 158 92 91
f 158 92 93
f 158 93 92
f 158 93 94
f 158 94 93
f 158 94 95
f 158 95 94
f 158 95 96
f 158 96 95
f 158 96 97
f 158 97 96
f 158 97 98
f 158 98 97
f 158 98 99
f 158 99 98
f 158 99 100
f 158 100 99
f 158 100 101
f 158 101 100
f 158 101 102
f 158 102 101
f 158 102 103
f 158 103 102
f 158 103 104
f 158 104 103
f 158 104 105
f 158 105 104
f 158 105 106
f 158 106 105
f 158 106 107
f 158 107 106
f 158 107 108
f 158 108 107
f 158 108 109
f 158 109 108
f 158 109 110
f 158 110 109
f 158 110 111
f 158 111 110
f 158 111 112
f 158 112 111
f 158 112 113
f 158 113 112
f 158 113 114
f 158 114 113
f 158 114 115
f 158 115 114
f 158 115 116
f 158 116 115
f 158 116 117
f 158 117 116
f 158 117 118
f 158 118 117
f 158 118 119
f 158 119 118
f 158 119 120
f 158 120 119
f 158 120 121
f 158 121 120
f 158 121 122
f 158 122 121
f 158 122 123
f 158 123 122
f 158 123 124
f 158 124 123
f 158 124 125
f 158 125 124
f 158 125 126
f 158 126 125
f 158 126 127
f 158 127 126
f 158 127 128
f 158 128 127
f 158 128 129
f 158 129 128
f 158 129 130
f 158 130 129
f 158 130 131
f 158 131 130
f 158 131 132
f 158 132 131
f 158 132 133
f 158 133 132
f 158 133 134
f 158 134 133
f 158 134 135
f 158 135 134
f 158 135 136
f 158 136 135
f 158 136 137
f 158 137 136
f 158 137 138
f 158 138 137
f 158 138 139
f 158 139 138
f 158 139 140
f 158 140 139
f 158 140 141
f 158 141 140
f 158 141 142
f 158 142 141
f 158 142 143
f 158 143 142
f 158 143 144
f 158 144 143
f 158 144 145
f 158 145 144
f 158 145 146
f 158 146 145
f 158 146 147
f 158 147 146
f 158 147 148
f 158 148 147
f 158 148 149
f 158 149 148
f 158 149 150
f 158 150 149
f 158 150 151
f 158 151 150
f 158 151 152
f 158 152 151
f 158 152 153
f 158 153 152
f 158 153 154
f 158 154 153
f 158 154 155
f 158 155 154
f 158 155 156
f 158 156 155
f 158 156 157
f 158 157 156
f 158 157 86
f 158 86 157
v 0.032799 0.617148 0.007745 0.991 0.618 0.441
v 0.031254 0.614494 0.003476 0.991 0.618 0.441
v 0.028932 0.611402 -0.000460 0.991 0.618 0.441
v 0.026584 0.608758 -0.003990 0.991 0.618 0.441
v 0.024403 0.606705 -0.007193 0.991 0.618 0.441
v 0.022446 0.605246 -0.010171 0.991 0.618 0.441
v 0.020713 0.604349 -0.013027 0.991 0.618 0.441
v 0.019183 0.603985 -0.015854 0.991 0.618 0.441
v 0.017820 0.604141 -0.018743 0.991 0.618 0.441
v 0.016579 0.604822 -0.021777 0.991 0.618 0.441
v 0.015405 0.606052 -0.025035 0.991 0.618 0.441
v 0.014225 0.607864 -0.028585 0.991 0.618 0.441
v 0.012938 0.610277 -0.032468 0.991 0.618 0.441
v 0.011398 0.613227 -0.036645 0.991 0.618 0.441
v 0.009343 0.616310 -0.040819 0.991 0.618 0.441
v 0.005535 0.615735 -0.042279 0.991 0.618 0.441
v 0.000961 0.612604 -0.041471 0.991 0.618 0.441
v -0.003278 0.609747 -0.040353 0.991 0.618 0.441
v -0.007135 0.607454 -0.039231 0.991 0.618 0.441
v -0.010674 0.605761 -0.038226 0.991 0.618 0.441
v -0.013988 0.604643 -0.037388 0.991 0.618 0.441
v -0.017174 0.604068 -0.036733 0.991 0.618 0.441
v -0.020329 0.604016 -0.036260 0.991 0.618 0.441
v -0.023546 0.604485 -0.035956 0.991 0.618 0.441
v -0.026920 0.605492 -0.035797 0.991 0.618 0.441
v -0.030539 0.607067 -0.035745 0.991 0.618 0.441
v -0.034484 0.609240 -0.035734 0.991 0.618 0.441
v -0.038796 0.611995 -0.035646 0.991 0.618 0.441
v -0.043393 0.615123 -0.035243 0.991 0.618 0.441
v -0.047263 0.616814 -0.033465 0.991 0.618 0.441
v -0.048243 0.613859 -0.028942 0.991 0.618 0.441
v -0.048601 0.610829 -0.024441 0.991 0.618 0.441
v -0.048754 0.608299 -0.020279 0.991 0.618 0.441
v -0.048875 0.606367 -0.016474 0.991 0.618 0.441
v -0.049060 0.605023 -0.012967 0.991 0.618 0.441
v -0.049363 0.604234 -0.009674 0.991 0.618 0.441
v -0.049820 0.603975 -0.006505 0.991 0.618 0.441
v -0.050452 0.604234 -0.003365 0.991 0.618 0.441
v -0.051269 0.605023 -0.000161 0.991 0.618 0.441
v -0.052269 0.606367 0.003205 0.991 0.618 0.441
v -0.053429 0.608299 0.006831 0.991 0.618 0.441
v -0.054680 0.610829 0.010804 0.991 0.618 0.441
v -0.055850 0.613859 0.015164 0.991 0.618 0.441
v -0.056442 0.616814 0.019755 0.991 0.618 0.441
v -0.053391 0.615123 0.022726 0.991 0.618 0.441
v -0.049195 0.611995 0.024646 0.991 0.618 0.441
v -0.045162 0.609240 0.026173 0.991 0.618 0.441
v -0.041448 0.607067 0.027505 0.991 0.618 0.441
v -0.038055 0.605492 0.028767 0.991 0.618 0.441
v -0.034930 0.604485 0.030046 0.991 0.618 0.441
v -0.032000 0.604016 0.031411 0.991 0.618 0.441
v -0.029186 0.604068 0.032913 0.991 0.618 0.441
v -0.026404 0.604643 0.034598 0.991 0.618 0.441
v -0.023562 0.605761 0.036498 0.991 0.618 0.441
v -0.020564 0.607454 0.038630 0.991 0.618 0.441
v -0.017306 0.609747 0.040979 0.991 0.618 0.441
v -0.013686 0.612604 0.043453 0.991 0.618 0.441
v -0.009647 0.615735 0.045746 0.991 0.618 0.441
v -0.005571 0.616310 0.045646 0.991 0.618 0.441
v -0.002236 0.613227 0.042402 0.991 0.618 0.441
v 0.000615 0.610277 0.038982 0.991 0.618 0.441
v 0.003128 0.607864 0.035754 0.991 0.618 0.441
v 0.005429 0.606052 0.032805 0.991 0.618 0.441
v 0.007627 0.604822 0.030128 0.991 0.618 0.441
v 0.009812 0.604141 0.027685 0.991 0.618 0.441
v 0.012064 0.603985 0.025420 0.991 0.618 0.441
v 0.014453 0.604349 0.023268 0.991 0.618 0.441
v 0.017042 0.605246 0.021158 0.991 0.618 0.441
v 0.019884 0.606705 0.019008 0.991 0.618 0.441
v 0.023012 0.608758 0.016721 0.991 0.618 0.441
v 0.026406 0.611402 0.014181 0.991 0.618 0.441
v 0.029913 0.614494 0.011250 0.991 0.618 0.441
v -0.013849 0.576348 -0.000301 0.991 0.618 0.441
f 231 159 160
f 231 160 159
f 231 160 161
f 231 161 160
f 231 161 162
f 231 162 161
f 231 162 163
f 231 163 162
f 231 163 164
f 231 164 163
f 231 164 165
f 231 165 164
f 231 165 166
f 231 166 165
f 231 166 167
f 231 167 166
f 231 167 168
f 231 168 167
f 231 168 169
f 231 169 168
f 231 169 170
f 231 170 169
f 231 170 171
f 231 171 170
f 231 171 172
f 231 172 171
f 231 172 173
f 231 173 172
f 231 173 174
f 231 174 173
f 231 174 175
f 231 175 174
f 231 175 176
f 231 176 175
f 231 176 177
f 231 177 176
f 231 177 178
f 231 178 177
f 231 178 179
f 231 179 178
f 231 179 180
f 231 180 179
f 231 180 181
f 231 181 180
f 231 181 182
f 231 182 181
f 231 182 183
f 231 183 182
f 231 183 184
f 231 184 183
f 231 184 185
f 231 185 184
f 231 185 186
f 231 186 185
f 231 186 187
f 231 187 186
f 231 187 188
f 231 188 187
f 231 188 189
f 231 189 188
f 231 189 190
f 231 190 189
f 231 190 191
f 231 191 190
f 231 191 192
f 231 192 191
f 231 192 193
f 231 193 192
f 231 193 194
f 231 194 193
f 231 194 195
f 231 195 194
f 231 195 196
f 231 196 195
f 231 196 197
f 231 197 196
f 231 197 198
f 231 198 197
f 231 198 199
f 231 199 198
f 231 199 200
f 231 200 199
f 231 200 201
f 231 201 200
f 231 201 202
f 231 202 201
f 231 202 203
f 231 203 202
f 231 203 204
f 231 204 203
f 231 204 205
f 231 205 204
f 231 205 206
f 231 206 205
f 231 206 207
f 231 207 206
f 231 207 208
f 231 208 207
f 231 208 209
f 231 209 208
f 231 209 210
f 231 210 209
f 231 210 211
f 231 211 210
f 231 211 212
f 231 212 211
f 231 212 213
f 231 213 212
f 231 213 214
f 231 214 213
f 231 214 215
f 231 215 214
f 231 215 216
f 231 216 215
f 231 216 217
f 231 217 216
f 231 217 218
f 231 218 217
f 231 218 219
f 231 219 218
f 231 219 220
f 231 220 219
f 231 220 221
f 231 221 220
f 231 221 222
f 231 222 221
f 231 222 223
f 231 223 222
f 231 223 224
f 231 224 223
f 231 224 225
f 231 225 224
f 231 225 226
f 231 226 225
f 231 226 227
f 231 227 226
f 231 227 228
f 231 228 227
f 231 228 229
f 231 229 228
f 231 229 230
f 231 230 229
f 231 230 159
f 231 159 230
v 0.018840 0.631548 -0.019419 0.993 0.678 0.529
v 0.015694 0.627957 -0.021235 0.993 0.678 0.529
v 0.012245 0.623774 -0.022447 0.993 0.678 0.529
v 0.008989 0.620196 -0.023397 0.993 0.678 0.529
v 0.006004 0.617420 -0.024232 0.993 0.678 0.529
v 0.003271 0.615446 -0.025046 0.993 0.678 0.529
v 0.000740 0.614232 -0.025900 0.993 0.678 0.529
v -0.001654 0.613739 -0.026841 0.993 0.678 0.529
v -0.003977 0.613950 -0.027906 0.993 0.678 0.529
v -0.006299 0.614872 -0.029123 0.993 0.678 0.529
v -0.008697 0.616536 -0.030512 0.993 0.678 0.529
v -0.011249 0.618987 -0.032076 0.993 0.678 0.529
v -0.014037 0.622252 -0.033789 0.993 0.678 0.529
v -0.017133 0.626243 -0.035550 0.993 0.678 0.529
v -0.020541 0.630414 -0.037045 0.993 0.678 0.529
v -0.023623 0.629636 -0.035976 0.993 0.678 0.529
v -0.026005 0.625400 -0.033125 0.993 0.678 0.529
v -0.028023 0.621535 -0.030256 0.993 0.678 0.529
v -0.029805 0.618432 -0.027581 0.993 0.678 0.529
v -0.031452 0.616141 -0.025143 0.993 0.678 0.529
v -0.033048 0.614629 -0.022922 0.993 0.678 0.529
v -0.034660 0.613852 -0.020879 0.993 0.678 0.529
v -0.036346 0.613781 -0.018964 0.993 0.678 0.529
v -0.038158 0.614416 -0.017120 0.993 0.678 0.529
v -0.040141 0.615778 -0.015284 0.993 0.678 0.529
v -0.042329 0.617910 -0.013387 0.993 0.678 0.529
v -0.044737 0.620850 -0.011347 0.993 0.678 0.529
v -0.047329 0.624576 -0.009071 0.993 0.678 0.529
v -0.049935 0.628809 -0.006455 0.993 0.678 0.529
v -0.051387 0.631096 -0.003373 0.993 0.678 0.529
v -0.049655 0.627098 -0.000100 0.993 0.678 0.529
v -0.047555 0.622999 0.002839 0.993 0.678 0.529
v -0.045503 0.619575 0.005464 0.993 0.678 0.529
v -0.043616 0.616962 0.007855 0.993 0.678 0.529
v -0.041922 0.615144 0.010096 0.993 0.678 0.529
v -0.040410 0.614077 0.012267 0.993 0.678 0.529
v -0.039056 0.613725 0.014442 0.993 0.678 0.529
v -0.037825 0.614077 0.016688 0.993 0.678 0.529
v -0.036673 0.615144 0.019070 0.993 0.678 0.529
v -0.035551 0.616962 0.021645 0.993 0.678 0.529
v -0.034392 0.619575 0.024462 0.993 0.678 0.529
v -0.033110 0.622999 0.027537 0.993 0.678 0.529
v -0.031578 0.627098 0.030808 0.993 0.678 0.529
v -0.029575 0.631096 0.033922 0.993 0.678 0.529
v -0.026176 0.628809 0.034168 0.993 0.678 0.529
v -0.022620 0.624576 0.033179 0.993 0.678 0.529
v -0.019364 0.620850 0.032036 0.993 0.678 0.529
v -0.016406 0.617910 0.030937 0.993 0.678 0.529
v -0.013680 0.615778 0.029960 0.993 0.678 0.529
v -0.011108 0.614416 0.029132 0.993 0.678 0.529
v -0.008612 0.613781 0.028457 0.993 0.678 0.529
v -0.006116 0.613852 0.027926 0.993 0.678 0.529
v -0.003545 0.614629 0.027523 0.993 0.678 0.529
v -0.000828 0.616141 0.027221 0.993 0.678 0.529
v 0.002106 0.618432 0.026980 0.993 0.678 0.529
v 0.005310 0.621535 0.026739 0.993 0.678 0.529
v 0.008800 0.625400 0.026387 0.993 0.678 0.529
v 0.012453 0.629636 0.025708 0.993 0.678 0.529
v 0.014896 0.630414 0.023546 0.993 0.678 0.529
v 0.015264 0.626243 0.019843 0.993 0.678 0.529
v 0.015246 0.622252 0.016281 0.993 0.678 0.529
v 0.015120 0.618987 0.013011 0.993 0.678 0.529
v 0.015008 0.616536 0.010020 0.993 0.678 0.529
v 0.014974 0.614872 0.007250 0.993 0.678 0.529
v 0.015052 0.613950 0.004629 0.993 0.678 0.529
v 0.015262 0.613739 0.002082 0.993 0.678 0.529
v 0.015615 0.614232 -0.000466 0.993 0.678 0.529
v 0.016112 0.615446 -0.003091 0.993 0.678 0.529
v 0.016743 0.617420 -0.005872 0.993 0.678 0.529
v 0.017477 0.620196 -0.008883 0.993 0.678 0.529
v 0.018245 0.623774 -0.012186 0.993 0.678 0.529
v 0.018881 0.627957 -0.015787 0.993 0.678 0.529
v -0.013849 0.576348 -0.000301 0.993 0.678 0.529
f 304 232 233
f 304 233 232
f 304 233 234
f 304 234 233
f 304 234 235
f 304 235 234
f 304 235 236
f 304 236 235
f 304 236 237
f 304 237 236
f 304 237 238
f 304 238 237
f 304 238 239
f 304 239 238
f 304 239 240
f 304 240 239
f 304 240 241
f 304 241 240
f 304 241 242
f 304 242 241
f 304 242 243
f 304 243 242
f 304 243 244
f 304 244 243
f 304 244 245
f 304 245 244
f 304 245 246
f 304 246 245
f 304 246 247
f 304 247 246
f 304 247 248
f 304 248 247
f 304 248 249
f 304 249 248
f 304 249 250
f 304 250 249
f 304 250 251
f 304 251 250
f 304 251 252
f 304 252 251
f 304 252 253
f 304 253 252
f 304 253 254
f 304 254 253
f 304 254 255
f 304 255 254
f 304 255 256
f 304 256 255
f 304 256 257
f 304 257 256
f 304 257 258
f 304 258 257
f 304 258 259
f 304 259 258
f 304 259 260
f 304 260 259
f 304 260 261
f 304 261 260
f 304 261 262
f 304 262 261
f 304 262 263
f 304 263 262
f 304 263 264
f 304 264 263
f 304 264 265
f 304 265 264
f 304 265 266
f 304 266 265
f 304 266 267
f 304 267 266
f 304 267 268
f 304 268 267
f 304 268 269
f 304 269 268
f 304 269 270
f 304 270 269
f 304 270 271
f 304 271 270
f 304 271 272
f 304 272 271
f 304 272 273
f 304 273 272
f 304 273 274
f 304 274 273
f 304 274 275
f 304 275 274
f 304 275 276
f 304 276 275
f 304 276 277
f 304 277 276
f 304 277 278
f 304 278 277
f 304 278 279
f 304 279 278
f 304 279 280
f 304 280 279
f 304 280 281
f 304 281 280
f 304 281 282
f 304 282 281
f 304 282 283
f 304 283 282
f 304 283 284
f 304 284 283
f 304 284 285
f 304 285 284
f 304 285 286
f 304 286 285
f 304 286 287
f 304 287 286
f 304 287 288
f 304 288 287
f 304 288 289
f 304 289 288
f 304 289 290
f 304 290 289
f 304 290 291
f 304 291 290
f 304 291 292
f 304 292 291
f 304 292 293
f 304 293 292
f 304 293 294
f 304 294 293
f 304 294 295
f 304 295 294
f 304 295 296
f 304 296 295
f 304 296 297
f 304 297 296
f 304 297 298
f 304 298 297
f 304 298 299
f 304 299 298
f 304 299 300
f 304 300 299
f 304 300 301
f 304 301 300
f 304 301 302
f 304 302 301
f 304 302 303
f 304 303 302
f 304 303 232
f 304 232 303
v -0.001434 0.159885 -0.005826 0.160 0.352 0.136
v 0.001601 0.165654 -0.000394 0.160 0.352 0.136
v 0.001434 0.159885 0.005826 0.160 0.352 0.136
v -0.001601 0.154116 0.000394 0.160 0.352 0.136
v 0.033746 0.149885 -0.009337 0.160 0.352 0.136
v 0.034252 0.150847 -0.008432 0.160 0.352 0.136
v 0.034224 0.149885 -0.007395 0.160 0.352 0.136
v 0.033719 0.148923 -0.008300 0.160 0.352 0.136
f 305 306 310
f 305 310 309
f 306 307 311
f 306 311 310
f 307 308 312
f 307 312 311
f 308 305 309
f 308 309 312
v -0.001924 0.495396 -0.005683 0.160 0.352 0.136
v 0.001561 0.501165 -0.000529 0.160 0.352 0.136
v 0.001924 0.495396 0.005683 0.160 0.352 0.136
v -0.001561 0.489627 0.000529 0.160 0.352 0.136
v 0.032831 0.485396 -0.012170 0.160 0.352 0.136
v 0.033412 0.486358 -0.011311 0.160 0.352 0.136
v 0.033472 0.485396 -0.010276 0.160 0.352 0.136
v 0.032892 0.484434 -0.011135 0.160 0.352 0.136
f 313 314 318
f 313 318 317
f 314 315 319
f 314 319 318
f 315 316 320
f 315 320 319
f 316 313 317
f 316 317 320
v -0.005803 0.481690 -0.001525 0.160 0.352 0.136
v 0.000419 0.487459 -0.001594 0.160 0.352 0.136
v 0.005803 0.481690 0.001525 0.160 0.352 0.136
v -0.000419 0.475921 0.001594 0.160 0.352 0.136
v 0.007926 0.471690 -0.034105 0.160 0.352 0.136
v 0.008963 0.472652 -0.034117 0.160 0.352 0.136
v 0.009860 0.471690 -0.033597 0.160 0.352 0.136
v 0.008823 0.470729 -0.033586 0.160 0.352 0.136
f 321 322 326
f 321 326 325
f 322 323 327
f 322 327 326
f 323 324 328
f 323 328 327
f 324 321 325
f 324 325 328
v -0.002674 0.186201 0.005371 0.160 0.352 0.136
v -0.001476 0.191970 -0.000735 0.160 0.352 0.136
v 0.002674 0.186201 -0.005371 0.160 0.352 0.136
v 0.001476 0.180432 0.000735 0.160 0.352 0.136
v -0.031778 0.176201 -0.014702 0.160 0.352 0.136
v -0.031579 0.177163 -0.015719 0.160 0.352 0.136
v -0.030887 0.176201 -0.016492 0.160 0.352 0.136
v -0.031087 0.175240 -0.015474 0.160 0.352 0.136
f 329 330 334
f 329 334 333
f 330 331 335
f 330 335 334
f 331 332 336
f 331 336 335
f 332 329 333
f 332 333 336
v -0.005527 0.367110 -0.002335 0.160 0.352 0.136
v 0.000641 0.372879 -0.001518 0.160 0.352 0.136
v 0.005527 0.367110 0.002335 0.160 0.352 0.136
v -0.000641 0.361341 0.001518 0.160 0.352 0.136
v 0.012698 0.357110 -0.032631 0.160 0.352 0.136
v 0.013726 0.358072 -0.032494 0.160 0.352 0.136
v 0.014541 0.357110 -0.031852 0.160 0.352 0.136
v 0.013513 0.356149 -0.031988 0.160 0.352 0.136
f 337 338 342
f 337 342 341
f 338 339 343
f 338 343 342
f 339 340 344
f 339 344 343
f 340 337 341
f 340 341 344
v 0.004352 0.202103 0.004131 0.160 0.352 0.136
v -0.001135 0.207872 0.001195 0.160 0.352 0.136
v -0.004352 0.202103 -0.004131 0.160 0.352 0.136
v 0.001135 0.196334 -0.001195 0.160 0.352 0.136
v -0.023371 0.192103 0.026073 0.160 0.352 0.136
v -0.024285 0.193065 0.025584 0.160 0.352 0.136
v -0.024821 0.192103 0.024696 0.160 0.352 0.136
v -0.023907 0.191142 0.025185 0.160 0.352 0.136
f 345 346 350
f 345 350 349
f 346 347 351
f 346 351 350
f 347 348 352
f 347 352 351
f 348 345 349
f 348 349 352
v 0.000000 0.172904 -0.000000 0.180 0.500 0.200
v -0.000531 0.171135 0.002802 0.180 0.500 0.200
v -0.000105 0.169366 0.006283 0.180 0.500 0.200
v 0.000901 0.167597 0.010176 0.180 0.500 0.200
v 0.002261 0.165828 0.014319 0.180 0.500 0.200
v 0.003775 0.164059 0.018573 0.180 0.500 0.200
v 0.005259 0.162290 0.022804 0.180 0.500 0.200
v 0.006542 0.160521 0.026893 0.180 0.500 0.200
v 0.007469 0.158752 0.030730 0.180 0.500 0.200
v 0.007912 0.156983 0.034223 0.180 0.500 0.200
v 0.007766 0.155214 0.037298 0.180 0.500 0.200
v 0.006961 0.153445 0.039906 0.180 0.500 0.200
v 0.005461 0.151676 0.042021 0.180 0.500 0.200
v 0.003266 0.149907 0.043642 0.180 0.500 0.200
v 0.000411 0.148138 0.044796 0.180 0.500 0.200
v -0.003032 0.146369 0.045532 0.180 0.500 0.200
v -0.006960 0.144600 0.045924 0.180 0.500 0.200
v -0.011243 0.142831 0.046065 0.180 0.500 0.200
v -0.015727 0.141062 0.046062 0.180 0.500 0.200
v -0.020242 0.139293 0.046038 0.180 0.500 0.200
v -0.024602 0.137524 0.046124 0.180 0.500 0.200
v -0.028609 0.135755 0.046460 0.180 0.500 0.200
v -0.032035 0.133986 0.047209 0.180 0.500 0.200
v -0.034504 0.132217 0.048635 0.180 0.500 0.200
v -0.033973 0.133986 0.045833 0.180 0.500 0.200
v -0.034399 0.135755 0.042352 0.180 0.500 0.200
v -0.035405 0.137524 0.038460 0.180 0.500 0.200
v -0.036765 0.139293 0.034316 0.180 0.500 0.200
v -0.038279 0.141062 0.030063 0.180 0.500 0.200
v -0.039763 0.142831 0.025831 0.180 0.500 0.200
v -0.041046 0.144600 0.021742 0.180 0.500 0.200
v -0.041974 0.146369 0.017905 0.180 0.500 0.200
v -0.042416 0.148138 0.014413 0.180 0.500 0.200
v -0.042270 0.149907 0.011337 0.180 0.500 0.200
v -0.041466 0.151676 0.008729 0.180 0.500 0.200
v -0.039965 0.153445 0.006614 0.180 0.500 0.200
v -0.037770 0.155214 0.004993 0.180 0.500 0.200
v -0.034915 0.156983 0.003840 0.180 0.500 0.200
v -0.031472 0.158752 0.003103 0.180 0.500 0.200
v -0.027544 0.160521 0.002711 0.180 0.500 0.200
v -0.023261 0.162290 0.002571 0.180 0.500 0.200
v -0.018777 0.164059 0.002573 0.180 0.500 0.200
v -0.014262 0.165828 0.002597 0.180 0.500 0.200
v -0.009902 0.167597 0.002512 0.180 0.500 0.200
v -0.005896 0.169366 0.002175 0.180 0.500 0.200
v -0.002470 0.171135 0.001427 0.180 0.500 0.200
f 353 354 355
f 353 355 354
f 353 355 356
f 353 356 355
f 353 356 357
f 353 357 356
f 353 357 358
f 353 358 357
f 353 358 359
f 353 359 358
f 353 359 360
f 353 360 359
f 353 360 361
f 353 361 360
f 353 361 362
f 353 362 361
f 353 362 363
f 353 363 362
f 353 363 364
f 353 364 363
f 353 364 365
f 353 365 364
f 353 365 366
f 353 366 365
f 353 366 367
f 353 367 366
f 353 367 368
f 353 368 367
f 353 368 369
f 353 369 368
f 353 369 370
f 353 370 369
f 353 370 371
f 353 371 370
f 353 371 372
f 353 372 371
f 353 372 373
f 353 373 372
f 353 373 374
f 353 374 373
f 353 374 375
f 353 375 374
f 353 375 376
f 353 376 375
f 353 376 377
f 353 377 376
f 353 377 378
f 353 378 377
f 353 378 379
f 353 379 378
f 353 379 380
f 353 380 379
f 353 380 381
f 353 381 380
f 353 381 382
f 353 382 381
f 353 382 383
f 353 383 382
f 353 383 384
f 353 384 383
f 353 384 385
f 353 385 384
f 353 385 386
f 353 386 385
f 353 386 387
f 353 387 386
f 353 387 388
f 353 388 387
f 353 388 389
f 353 389 388
f 353 389 390
f 353 390 389
f 353 390 391
f 353 391 390
f 353 391 392
f 353 392 391
f 353 392 393
f 353 393 392
f 353 393 394
f 353 394 393
f 353 394 395
f 353 395 394
f 353 395 396
f 353 396 395
f 353 396 397
f 353 397 396
f 353 397 398
f 353 398 397
v 0.000000 0.172904 -0.000000 0.180 0.500 0.200
v 0.000935 0.171046 0.002921 0.180 0.500 0.200
v 0.003115 0.169188 0.005989 0.180 0.500 0.200
v 0.006050 0.167330 0.009145 0.180 0.500 0.200
v 0.009446 0.165471 0.012355 0.180 0.500 0.200
v 0.013042 0.163613 0.015589 0.180 0.500 0.200
v 0.016599 0.161755 0.018819 0.180 0.500 0.200
v 0.019894 0.159896 0.022017 0.180 0.500 0.200
v 0.022727 0.158038 0.025161 0.180 0.500 0.200
v 0.024928 0.156180 0.028231 0.180 0.500 0.200
v 0.026365 0.154321 0.031211 0.180 0.500 0.200
v 0.026944 0.152463 0.034091 0.180 0.500 0.200
v 0.026618 0.150605 0.036864 0.180 0.500 0.200
v 0.025387 0.148747 0.039530 0.180 0.500 0.200
v 0.023298 0.146888 0.042096 0.180 0.500 0.200
v 0.020445 0.145030 0.044571 0.180 0.500 0.200
v 0.016959 0.143172 0.046973 0.180 0.500 0.200
v 0.013013 0.141313 0.049320 0.180 0.500 0.200
v 0.008804 0.139455 0.051636 0.180 0.500 0.200
v 0.004555 0.137597 0.053948 0.180 0.500 0.200
v 0.000508 0.135739 0.056283 0.180 0.500 0.200
v -0.003079 0.133880 0.058672 0.180 0.500 0.200
v -0.005911 0.132022 0.061151 0.180 0.500 0.200
v -0.007498 0.130164 0.063775 0.180 0.500 0.200
v -0.008434 0.132022 0.060854 0.180 0.500 0.200
v -0.010613 0.133880 0.057787 0.180 0.500 0.200
v -0.013549 0.135739 0.054630 0.180 0.500 0.200
v -0.016944 0.137597 0.051420 0.180 0.500 0.200
v -0.020540 0.139455 0.048186 0.180 0.500 0.200
v -0.024097 0.141313 0.044957 0.180 0.500 0.200
v -0.027392 0.143172 0.041758 0.180 0.500 0.200
v -0.030225 0.145030 0.038614 0.180 0.500 0.200
v -0.032427 0.146888 0.035544 0.180 0.500 0.200
v -0.033863 0.148747 0.032564 0.180 0.500 0.200
v -0.034442 0.150605 0.029684 0.180 0.500 0.200
v -0.034116 0.152463 0.026912 0.180 0.500 0.200
v -0.032885 0.154321 0.024245 0.180 0.500 0.200
v -0.030797 0.156180 0.021680 0.180 0.500 0.200
v -0.027943 0.158038 0.019204 0.180 0.500 0.200
v -0.024458 0.159896 0.016803 0.180 0.500 0.200
v -0.020511 0.161755 0.014455 0.180 0.500 0.200
v -0.016302 0.163613 0.012139 0.180 0.500 0.200
v -0.012054 0.165471 0.009827 0.180 0.500 0.200
v -0.008006 0.167330 0.007492 0.180 0.500 0.200
v -0.004419 0.169188 0.005103 0.180 0.500 0.200
v -0.001587 0.171046 0.002625 0.180 0.500 0.200
f 399 400 401
f 399 401 400
f 399 401 402
f 399 402 401
f 399 402 403
f 399 403 402
f 399 403 404
f 399 404 403
f 399 404 405
f 399 405 404
f 399 405 406
f 399 406 405
f 399 406 407
f 399 407 406
f 399 407 408
f 399 408 407
f 399 408 409
f 399 409 408
f 399 409 410
f 399 410 409
f 399 410 411
f 399 411 410
f 399 411 412
f 399 412 411
f 399 412 413
f 399 413 412
f 399 413 414
f 399 414 413
f 399 414 415
f 399 415 414
f 399 415 416
f 399 416 415
f 399 416 417
f 399 417 416
f 399 417 418
f 399 418 417
f 399 418 419
f 399 419 418
f 399 419 420
f 399 420 419
f 399 420 421
f 399 421 420
f 399 421 422
f 399 422 421
f 399 422 423
f 399 423 422
f 399 423 424
f 399 424 423
f 399 424 425
f 399 425 424
f 399 425 426
f 399 426 425
f 399 426 427
f 399 427 426
f 399 427 428
f 399 428 427
f 399 428 429
f 399 429 428
f 399 429 430
f 399 430 429
f 399 430 431
f 399 431 430
f 399 431 432
f 399 432 431
f 399 432 433
f 399 433 432
f 399 433 434
f 399 434 433
f 399 434 435
f 399 435 434
f 399 435 436
f 399 436 435
f 399 436 437
f 399 437 436
f 399 437 438
f 399 438 437
f 399 438 439
f 399 439 438
f 399 439 440
f 399 440 439
f 399 440 441
f 399 441 440
f 399 441 442
f 399 442 441
f 399 442 443
f 399 443 442
f 399 443 444
f 399 444 443
v 0.000000 0.172904 -0.000000 0.180 0.500 0.200
v 0.002577 0.171259 0.002596 0.180 0.500 0.200
v 0.006454 0.169613 0.004668 0.180 0.500 0.200
v 0.011120 0.167967 0.006422 0.180 0.500 0.200
v 0.016267 0.166322 0.007983 0.180 0.500 0.200
v 0.021623 0.164676 0.009458 0.180 0.500 0.200
v 0.026938 0.163030 0.010951 0.180 0.500 0.200
v 0.031980 0.161384 0.012554 0.180 0.500 0.200
v 0.036539 0.159739 0.014351 0.180 0.500 0.200
v 0.040439 0.158093 0.016414 0.180 0.500 0.200
v 0.043540 0.156447 0.018799 0.180 0.500 0.200
v 0.045744 0.154802 0.021544 0.180 0.500 0.200
v 0.047004 0.153156 0.024671 0.180 0.500 0.200
v 0.047318 0.151510 0.028178 0.180 0.500 0.200
v 0.046737 0.149865 0.032046 0.180 0.500 0.200
v 0.045356 0.148219 0.036236 0.180 0.500 0.200
v 0.043315 0.146573 0.040692 0.180 0.500 0.200
v 0.040793 0.144927 0.045342 0.180 0.500 0.200
v 0.037997 0.143282 0.050103 0.180 0.500 0.200
v 0.035159 0.141636 0.054880 0.180 0.500 0.200
v 0.032532 0.139990 0.059572 0.180 0.500 0.200
v 0.030385 0.138345 0.064071 0.180 0.500 0.200
v 0.029027 0.136699 0.068252 0.180 0.500 0.200
v 0.028969 0.135053 0.071909 0.180 0.500 0.200
v 0.026392 0.136699 0.069313 0.180 0.500 0.200
v 0.022515 0.138345 0.067241 0.180 0.500 0.200
v 0.017849 0.139990 0.065487 0.180 0.500 0.200
v 0.012702 0.141636 0.063927 0.180 0.500 0.200
v 0.007346 0.143282 0.062451 0.180 0.500 0.200
v 0.002030 0.144927 0.060958 0.180 0.500 0.200
v -0.003011 0.146573 0.059355 0.180 0.500 0.200
v -0.007571 0.148219 0.057558 0.180 0.500 0.200
v -0.011470 0.149865 0.055495 0.180 0.500 0.200
v -0.014571 0.151510 0.053110 0.180 0.500 0.200
v -0.016775 0.153156 0.050365 0.180 0.500 0.200
v -0.018035 0.154802 0.047238 0.180 0.500 0.200
v -0.018349 0.156447 0.043731 0.180 0.500 0.200
v -0.017768 0.158093 0.039863 0.180 0.500 0.200
v -0.016387 0.159739 0.035673 0.180 0.500 0.200
v -0.014347 0.161384 0.031217 0.180 0.500 0.200
v -0.011824 0.163030 0.026567 0.180 0.500 0.200
v -0.009028 0.164676 0.021806 0.180 0.500 0.200
v -0.006190 0.166322 0.017029 0.180 0.500 0.200
v -0.003563 0.167967 0.012337 0.180 0.500 0.200
v -0.001416 0.169613 0.007838 0.180 0.500 0.200
v -0.000058 0.171259 0.003657 0.180 0.500 0.200
f 445 446 447
f 445 447 446
f 445 447 448
f 445 448 447
f 445 448 449
f 445 449 448
f 445 449 450
f 445 450 449
f 445 450 451
f 445 451 450
f 445 451 452
f 445 452 451
f 445 452 453
f 445 453 452
f 445 453 454
f 445 454 453
f 445 454 455
f 445 455 454
f 445 455 456
f 445 456 455
f 445 456 457
f 445 457 456
f 445 457 458
f 445 458 457
f 445 458 459
f 445 459 458
f 445 459 460
f 445 460 459
f 445 460 461
f 445 461 460
f 445 461 462
f 445 462 461
f 445 462 463
f 445 463 462
f 445 463 464
f 445 464 463
f 445 464 465
f 445 465 464
f 445 465 466
f 445 466 465
f 445 466 467
f 445 467 466
f 445 467 468
f 445 468 467
f 445 468 469
f 445 469 468
f 445 469 470
f 445 470 469
f 445 470 471
f 445 471 470
f 445 471 472
f 445 472 471
f 445 472 473
f 445 473 472
f 445 473 474
f 445 474 473
f 445 474 475
f 445 475 474
f 445 475 476
f 445 476 475
f 445 476 477
f 445 477 476
f 445 477 478
f 445 478 477
f 445 478 479
f 445 479 478
f 445 479 480
f 445 480 479
f 445 480 481
f 445 481 480
f 445 481 482
f 445 482 481
f 445 482 483
f 445 483 482
f 445 483 484
f 445 484 483
f 445 484 485
f 445 485 484
f 445 485 486
f 445 486 485
f 445 486 487
f 445 487 486
f 445 487 488
f 445 488 487
f 445 488 489
f 445 489 488
f 445 489 490
f 445 490 489
v 0.000000 0.316991 -0.000000 0.180 0.500 0.200
v -0.002437 0.315941 0.001878 0.180 0.500 0.200
v -0.004568 0.314891 0.004849 0.180 0.500 0.200
v -0.006513 0.313841 0.008484 0.180 0.500 0.200
v -0.008344 0.312790 0.012524 0.180 0.500 0.200
v -0.010127 0.311740 0.016740 0.180 0.500 0.200
v -0.011918 0.310690 0.020922 0.180 0.500 0.200
v -0.013775 0.309640 0.024873 0.180 0.500 0.200
v -0.015745 0.308589 0.028419 0.180 0.500 0.200
v -0.017870 0.307539 0.031410 0.180 0.500 0.200
v -0.020184 0.306489 0.033728 0.180 0.500 0.200
v -0.022709 0.305439 0.035292 0.180 0.500 0.200
v -0.025456 0.304388 0.036061 0.180 0.500 0.200
v -0.028426 0.303338 0.036035 0.180 0.500 0.200
v -0.031607 0.302288 0.035255 0.180 0.500 0.200
v -0.034976 0.301238 0.033802 0.180 0.500 0.200
v -0.038500 0.300187 0.031795 0.180 0.500 0.200
v -0.042138 0.299137 0.029382 0.180 0.500 0.200
v -0.045841 0.298087 0.026738 0.180 0.500 0.200
v -0.049553 0.297037 0.024060 0.180 0.500 0.200
v -0.053216 0.295986 0.021558 0.180 0.500 0.200
v -0.056766 0.294936 0.019461 0.180 0.500 0.200
v -0.060129 0.293886 0.018028 0.180 0.500 0.200
v -0.063187 0.292836 0.017688 0.180 0.500 0.200
v -0.060750 0.293886 0.015810 0.180 0.500 0.200
v -0.058619 0.294936 0.012839 0.180 0.500 0.200
v -0.056674 0.295986 0.009204 0.180 0.500 0.200
v -0.054843 0.297037 0.005164 0.180 0.500 0.200
v -0.053060 0.298087 0.000948 0.180 0.500 0.200
v -0.051268 0.299137 -0.003234 0.180 0.500 0.200
v -0.049412 0.300187 -0.007185 0.180 0.500 0.200
v -0.047442 0.301238 -0.010731 0.180 0.500 0.200
v -0.045317 0.302288 -0.013722 0.180 0.500 0.200
v -0.043003 0.303338 -0.016040 0.180 0.500 0.200
v -0.040478 0.304388 -0.017604 0.180 0.500 0.200
v -0.037731 0.305439 -0.018373 0.180 0.500 0.200
v -0.034761 0.306489 -0.018347 0.180 0.500 0.200
v -0.031580 0.307539 -0.017567 0.180 0.500 0.200
v -0.028211 0.308589 -0.016114 0.180 0.500 0.200
v -0.024687 0.309640 -0.014107 0.180 0.500 0.200
v -0.021049 0.310690 -0.011694 0.180 0.500 0.200
v -0.017346 0.311740 -0.009050 0.180 0.500 0.200
v -0.013634 0.312790 -0.006372 0.180 0.500 0.200
v -0.009971 0.313841 -0.003870 0.180 0.500 0.200
v -0.006421 0.314891 -0.001773 0.180 0.500 0.200
v -0.003058 0.315941 -0.000340 0.180 0.500 0.200
f 491 492 493
f 491 493 492
f 491 493 494
f 491 494 493
f 491 494 495
f 491 495 494
f 491 495 496
f 491 496 495
f 491 496 497
f 491 497 496
f 491 497 498
f 491 498 497
f 491 498 499
f 491 499 498
f 491 499 500
f 491 500 499
f 491 500 501
f 491 501 500
f 491 501 502
f 491 502 501
f 491 502 503
f 491 503 502
f 491 503 504
f 491 504 503
f 491 504 505
f 491 505 504
f 491 505 506
f 491 506 505
f 491 506 507
f 491 507 506
f 491 507 508
f 491 508 507
f 491 508 509
f 491 509 508
f 491 509 510
f 491 510 509
f 491 510 511
f 491 511 510
f 491 511 512
f 491 512 511
f 491 512 513
f 491 513 512
f 491 513 514
f 491 514 513
f 491 514 515
f 491 515 514
f 491 515 516
f 491 516 515
f 491 516 517
f 491 517 516
f 491 517 518
f 491 518 517
f 491 518 519
f 491 519 518
f 491 519 520
f 491 520 519
f 491 520 521
f 491 521 520
f 491 521 522
f 491 522 521
f 491 522 523
f 491 523 522
f 491 523 524
f 491 524 523
f 491 524 525
f 491 525 524
f 491 525 526
f 491 526 525
f 491 526 527
f 491 527 526
f 491 527 528
f 491 528 527
f 491 528 529
f 491 529 528
f 491 529 530
f 491 530 529
f 491 530 531
f 491 531 530
f 491 531 532
f 491 532 531
f 491 532 533
f 491 533 532
f 491 533 534
f 491 534 533
f 491 534 535
f 491 535 534
f 491 535 536
f 491 536 535
v 0.000000 0.316991 -0.000000 0.180 0.500 0.200
v -0.000992 0.314981 0.002707 0.180 0.500 0.200
v -0.001127 0.312970 0.006292 0.180 0.500 0.200
v -0.000742 0.310960 0.010412 0.180 0.500 0.200
v -0.000039 0.308949 0.014856 0.180 0.500 0.200
v 0.000802 0.306939 0.019443 0.180 0.500 0.200
v 0.001616 0.304928 0.024001 0.180 0.500 0.200
v 0.002249 0.302918 0.028374 0.180 0.500 0.200
v 0.002565 0.300907 0.032422 0.180 0.500 0.200
v 0.002445 0.298897 0.036023 0.180 0.500 0.200
v 0.001798 0.296887 0.039083 0.180 0.500 0.200
v 0.000560 0.294876 0.041538 0.180 0.500 0.200
v -0.001301 0.292866 0.043354 0.180 0.500 0.200
v -0.003786 0.290855 0.044530 0.180 0.500 0.200
v -0.006862 0.288845 0.045101 0.180 0.500 0.200
v -0.010465 0.286834 0.045131 0.180 0.500 0.200
v -0.014503 0.284824 0.044715 0.180 0.500 0.200
v -0.018860 0.282813 0.043973 0.180 0.500 0.200
v -0.023396 0.280803 0.043046 0.180 0.500 0.200
v -0.027960 0.278792 0.042091 0.180 0.500 0.200
v -0.032386 0.276782 0.041278 0.180 0.500 0.200
v -0.036494 0.274771 0.040789 0.180 0.500 0.200
v -0.040082 0.272761 0.040835 0.180 0.500 0.200
v -0.042813 0.270750 0.041760 0.180 0.500 0.200
v -0.041821 0.272761 0.039053 0.180 0.500 0.200
v -0.041686 0.274771 0.035467 0.180 0.500 0.200
v -0.042071 0.276782 0.031348 0.180 0.500 0.200
v -0.042774 0.278792 0.026904 0.180 0.500 0.200
v -0.043615 0.280803 0.022317 0.180 0.500 0.200
v -0.044429 0.282813 0.017759 0.180 0.500 0.200
v -0.045062 0.284824 0.013385 0.180 0.500 0.200
v -0.045378 0.286834 0.009338 0.180 0.500 0.200
v -0.045258 0.288845 0.005737 0.180 0.500 0.200
v -0.044611 0.290855 0.002676 0.180 0.500 0.200
v -0.043373 0.292866 0.000221 0.180 0.500 0.200
v -0.041511 0.294876 -0.001594 0.180 0.500 0.200
v -0.039027 0.296887 -0.002771 0.180 0.500 0.200
v -0.035951 0.298897 -0.003341 0.180 0.500 0.200
v -0.032348 0.300907 -0.003371 0.180 0.500 0.200
v -0.028310 0.302918 -0.002955 0.180 0.500 0.200
v -0.023953 0.304928 -0.002213 0.180 0.500 0.200
v -0.019417 0.306939 -0.001286 0.180 0.500 0.200
v -0.014852 0.308949 -0.000331 0.180 0.500 0.200
v -0.010427 0.310960 0.000482 0.180 0.500 0.200
v -0.006318 0.312970 0.000970 0.180 0.500 0.200
v -0.002731 0.314981 0.000925 0.180 0.500 0.200
f 537 538 539
f 537 539 538
f 537 539 540
f 537 540 539
f 537 540 541
f 537 541 540
f 537 541 542
f 537 542 541
f 537 542 543
f 537 543 542
f 537 543 544
f 537 544 543
f 537 544 545
f 537 545 544
f 537 545 546
f 537 546 545
f 537 546 547
f 537 547 546
f 537 547 548
f 537 548 547
f 537 548 549
f 537 549 548
f 537 549 550
f 537 550 549
f 537 550 551
f 537 551 550
f 537 551 552
f 537 552 551
f 537 552 553
f 537 553 552
f 537 553 554
f 537 554 553
f 537 554 555
f 537 555 554
f 537 555 556
f 537 556 555
f 537 556 557
f 537 557 556
f 537 557 558
f 537 558 557
f 537 558 559
f 537 559 558
f 537 559 560
f 537 560 559
f 537 560 561
f 537 561 560
f 537 561 562
f 537 562 561
f 537 562 563
f 537 563 562
f 537 563 564
f 537 564 563
f 537 564 565
f 537 565 564
f 537 565 566
f 537 566 565
f 537 566 567
f 537 567 566
f 537 567 568
f 537 568 567
f 537 568 569
f 537 569 568
f 537 569 570
f 537 570 569
f 537 570 571
f 537 571 570
f 537 571 572
f 537 572 571
f 537 572 573
f 537 573 572
f 537 573 574
f 537 574 573
f 537 574 575
f 537 575 574
f 537 575 576
f 537 576 575
f 537 576 577
f 537 577 576
f 537 577 578
f 537 578 577
f 537 578 579
f 537 579 578
f 537 579 580
f 537 580 579
f 537 580 581
f 537 581 580
f 537 581 582
f 537 582 581
v 0.000000 0.316991 -0.000000 0.180 0.500 0.200
v 0.000259 0.315959 0.003013 0.180 0.500 0.200
v 0.001585 0.314926 0.006355 0.180 0.500 0.200
v 0.003560 0.313893 0.009895 0.180 0.500 0.200
v 0.005929 0.312861 0.013556 0.180 0.500 0.200
v 0.008470 0.311828 0.017270 0.180 0.500 0.200
v 0.010978 0.310795 0.020974 0.180 0.500 0.200
v 0.013261 0.309762 0.024608 0.180 0.500 0.200
v 0.015147 0.308730 0.028122 0.180 0.500 0.200
v 0.016493 0.307697 0.031468 0.180 0.500 0.200
v 0.017181 0.306664 0.034614 0.180 0.500 0.200
v 0.017134 0.305632 0.037533 0.180 0.500 0.200
v 0.016311 0.304599 0.040215 0.180 0.500 0.200
v 0.014712 0.303566 0.042658 0.180 0.500 0.200
v 0.012377 0.302534 0.044875 0.180 0.500 0.200
v 0.009386 0.301501 0.046890 0.180 0.500 0.200
v 0.005853 0.300468 0.048740 0.180 0.500 0.200
v 0.001924 0.299435 0.050468 0.180 0.500 0.200
v -0.002230 0.298403 0.052126 0.180 0.500 0.200
v -0.006418 0.297370 0.053775 0.180 0.500 0.200
v -0.010433 0.296337 0.055476 0.180 0.500 0.200
v -0.014054 0.295305 0.057298 0.180 0.500 0.200
v -0.017026 0.294272 0.059320 0.180 0.500 0.200
v -0.018931 0.293239 0.061669 0.180 0.500 0.200
v -0.019190 0.294272 0.058656 0.180 0.500 0.200
v -0.020517 0.295305 0.055314 0.180 0.500 0.200
v -0.022491 0.296337 0.051774 0.180 0.500 0.200
v -0.024860 0.297370 0.048113 0.180 0.500 0.200
v -0.027402 0.298403 0.044399 0.180 0.500 0.200
v -0.029909 0.299435 0.040695 0.180 0.500 0.200
v -0.032192 0.300468 0.037061 0.180 0.500 0.200
v -0.034079 0.301501 0.033547 0.180 0.500 0.200
v -0.035424 0.302534 0.030201 0.180 0.500 0.200
v -0.036113 0.303566 0.027055 0.180 0.500 0.200
v -0.036066 0.304599 0.024136 0.180 0.500 0.200
v -0.035243 0.305632 0.021454 0.180 0.500 0.200
v -0.033643 0.306664 0.019011 0.180 0.500 0.200
v -0.031308 0.307697 0.016794 0.180 0.500 0.200
v -0.028317 0.308730 0.014779 0.180 0.500 0.200
v -0.024784 0.309762 0.012929 0.180 0.500 0.200
v -0.020855 0.310795 0.011201 0.180 0.500 0.200
v -0.016701 0.311828 0.009543 0.180 0.500 0.200
v -0.012514 0.312861 0.007894 0.180 0.500 0.200
v -0.008498 0.313893 0.006193 0.180 0.500 0.200
v -0.004878 0.314926 0.004371 0.180 0.500 0.200
v -0.001905 0.315959 0.002349 0.180 0.500 0.200
f 583 584 585
f 583 585 584
f 583 585 586
f 583 586 585
f 583 586 587
f 583 587 586
f 583 587 588
f 583 588 587
f 583 588 589
f 583 589 588
f 583 589 590
f 583 590 589
f 583 590 591
f 583 591 590
f 583 591 592
f 583 592 591
f 583 592 593
f 583 593 592
f 583 593 594
f 583 594 593
f 583 594 595
f 583 595 594
f 583 595 596
f 583 596 595
f 583 596 597
f 583 597 596
f 583 597 598
f 583 598 597
f 583 598 599
f 583 599 598
f 583 599 600
f 583 600 599
f 583 600 601
f 583 601 600
f 583 601 602
f 583 602 601
f 583 602 603
f 583 603 602
f 583 603 604
f 583 604 603
f 583 604 605
f 583 605 604
f 583 605 606
f 583 606 605
f 583 606 607
f 583 607 606
f 583 607 608
f 583 608 607
f 583 608 609
f 583 609 608
f 583 609 610
f 583 610 609
f 583 610 611
f 583 611 610
f 583 611 612
f 583 612 611
f 583 612 613
f 583 613 612
f 583 613 614
f 583 614 613
f 583 614 615
f 583 615 614
f 583 615 616
f 583 616 615
f 583 616 617
f 583 617 616
f 583 617 618
f 583 618 617
f 583 618 619
f 583 619 618
f 583 619 620
f 583 620 619
f 583 620 621
f 583 621 620
f 583 621 622
f 583 622 621
f 583 622 623
f 583 623 622
f 583 623 624
f 583 624 623
f 583 624 625
f 583 625 624
f 583 625 626
f 583 626 625
f 583 626 627
f 583 627 626
f 583 627 628
f 583 628 627
v 0.000000 0.449551 -0.000000 0.180 0.500 0.200
v -0.002789 0.448241 -0.001374 0.180 0.500 0.200
v -0.006466 0.446930 -0.001973 0.180 0.500 0.200
v -0.010682 0.445619 -0.002100 0.180 0.500 0.200
v -0.015225 0.444309 -0.001941 0.180 0.500 0.200
v -0.019913 0.442998 -0.001656 0.180 0.500 0.200
v -0.024572 0.441688 -0.001396 0.180 0.500 0.200
v -0.029044 0.440377 -0.001299 0.180 0.500 0.200
v -0.033187 0.439066 -0.001490 0.180 0.500 0.200
v -0.036879 0.437756 -0.002075 0.180 0.500 0.200
v -0.040026 0.436445 -0.003137 0.180 0.500 0.200
v -0.042561 0.435134 -0.004733 0.180 0.500 0.200
v -0.044450 0.433824 -0.006895 0.180 0.500 0.200
v -0.045694 0.432513 -0.009620 0.180 0.500 0.200
v -0.046327 0.431202 -0.012880 0.180 0.500 0.200
v -0.046414 0.429892 -0.016618 0.180 0.500 0.200
v -0.046050 0.428581 -0.020749 0.180 0.500 0.200
v -0.045357 0.427271 -0.025168 0.180 0.500 0.200
v -0.044477 0.425960 -0.029751 0.180 0.500 0.200
v -0.043569 0.424649 -0.034358 0.180 0.500 0.200
v -0.042805 0.423339 -0.038840 0.180 0.500 0.200
v -0.042368 0.422028 -0.043035 0.180 0.500 0.200
v -0.042471 0.420717 -0.046758 0.180 0.500 0.200
v -0.043461 0.419407 -0.049706 0.180 0.500 0.200
v -0.040671 0.420717 -0.048332 0.180 0.500 0.200
v -0.036995 0.422028 -0.047733 0.180 0.500 0.200
v -0.032779 0.423339 -0.047606 0.180 0.500 0.200
v -0.028235 0.424649 -0.047765 0.180 0.500 0.200
v -0.023548 0.425960 -0.048050 0.180 0.500 0.200
v -0.018889 0.427271 -0.048311 0.180 0.500 0.200
v -0.014417 0.428581 -0.048407 0.180 0.500 0.200
v -0.010274 0.429892 -0.048216 0.180 0.500 0.200
v -0.006582 0.431202 -0.047632 0.180 0.500 0.200
v -0.003435 0.432513 -0.046570 0.180 0.500 0.200
v -0.000900 0.433824 -0.044973 0.180 0.500 0.200
v 0.000990 0.435134 -0.042812 0.180 0.500 0.200
v 0.002234 0.436445 -0.040086 0.180 0.500 0.200
v 0.002866 0.437756 -0.036826 0.180 0.500 0.200
v 0.002953 0.439066 -0.033088 0.180 0.500 0.200
v 0.002589 0.440377 -0.028957 0.180 0.500 0.200
v 0.001897 0.441688 -0.024538 0.180 0.500 0.200
v 0.001017 0.442998 -0.019955 0.180 0.500 0.200
v 0.000109 0.444309 -0.015348 0.180 0.500 0.200
v -0.000656 0.445619 -0.010867 0.180 0.500 0.200
v -0.001092 0.446930 -0.006672 0.180 0.500 0.200
v -0.000990 0.448241 -0.002948 0.180 0.500 0.200
f 629 630 631
f 629 631 630
f 629 631 632
f 629 632 631
f 629 632 633
f 629 633 632
f 629 633 634
f 629 634 633
f 629 634 635
f 629 635 634
f 629 635 636
f 629 636 635
f 629 636 637
f 629 637 636
f 629 637 638
f 629 638 637
f 629 638 639
f 629 639 638
f 629 639 640
f 629 640 639
f 629 640 641
f 629 641 640
f 629 641 642
f 629 642 641
f 629 642 643
f 629 643 642
f 629 643 644
f 629 644 643
f 629 644 645
f 629 645 644
f 629 645 646
f 629 646 645
f 629 646 647
f 629 647 646
f 629 647 648
f 629 648 647
f 629 648 649
f 629 649 648
f 629 649 650
f 629 650 649
f 629 650 651
f 629 651 650
f 629 651 652
f 629 652 651
f 629 652 653
f 629 653 652
f 629 653 654
f 629 654 653
f 629 654 655
f 629 655 654
f 629 655 656
f 629 656 655
f 629 656 657
f 629 657 656
f 629 657 658
f 629 658 657
f 629 658 659
f 629 659 658
f 629 659 660
f 629 660 659
f 629 660 661
f 629 661 660
f 629 661 662
f 629 662 661
f 629 662 663
f 629 663 662
f 629 663 664
f 629 664 663
f 629 664 665
f 629 665 664
f 629 665 666
f 629 666 665
f 629 666 667
f 629 667 666
f 629 667 668
f 629 668 667
f 629 668 669
f 629 669 668
f 629 669 670
f 629 670 669
f 629 670 671
f 629 671 670
f 629 671 672
f 629 672 671
f 629 672 673
f 629 673 672
f 629 673 674
f 629 674 673
v 0.000000 0.449551 -0.000000 0.180 0.500 0.200
v -0.003310 0.447757 0.000206 0.180 0.500 0.200
v -0.007074 0.445962 0.001648 0.180 0.500 0.200
v -0.011115 0.444168 0.003841 0.180 0.500 0.200
v -0.015324 0.442373 0.006491 0.180 0.500 0.200
v -0.019606 0.440579 0.009341 0.180 0.500 0.200
v -0.023873 0.438784 0.012152 0.180 0.500 0.200
v -0.028045 0.436990 0.014702 0.180 0.500 0.200
v -0.032048 0.435195 0.016793 0.180 0.500 0.200
v -0.035821 0.433401 0.018257 0.180 0.500 0.200
v -0.039314 0.431606 0.018961 0.180 0.500 0.200
v -0.042493 0.429811 0.018813 0.180 0.500 0.200
v -0.045342 0.428017 0.017765 0.180 0.500 0.200
v -0.047861 0.426222 0.015819 0.180 0.500 0.200
v -0.050066 0.424428 0.013020 0.180 0.500 0.200
v -0.051992 0.422633 0.009461 0.180 0.500 0.200
v -0.053687 0.420839 0.005274 0.180 0.500 0.200
v -0.055213 0.419044 0.000629 0.180 0.500 0.200
v -0.056643 0.417250 -0.004277 0.180 0.500 0.200
v -0.058059 0.415455 -0.009222 0.180 0.500 0.200
v -0.059549 0.413661 -0.013967 0.180 0.500 0.200
v -0.061207 0.411866 -0.018255 0.180 0.500 0.200
v -0.063140 0.410072 -0.021792 0.180 0.500 0.200
v -0.065528 0.408277 -0.024093 0.180 0.500 0.200
v -0.062219 0.410072 -0.024299 0.180 0.500 0.200
v -0.058454 0.411866 -0.025741 0.180 0.500 0.200
v -0.054414 0.413661 -0.027934 0.180 0.500 0.200
v -0.050205 0.415455 -0.030584 0.180 0.500 0.200
v -0.045923 0.417250 -0.033434 0.180 0.500 0.200
v -0.041655 0.419044 -0.036245 0.180 0.500 0.200
v -0.037483 0.420839 -0.038795 0.180 0.500 0.200
v -0.033480 0.422633 -0.040887 0.180 0.500 0.200
v -0.029708 0.424428 -0.042351 0.180 0.500 0.200
v -0.026215 0.426222 -0.043054 0.180 0.500 0.200
v -0.023035 0.428017 -0.042906 0.180 0.500 0.200
v -0.020186 0.429811 -0.041858 0.180 0.500 0.200
v -0.017668 0.431606 -0.039912 0.180 0.500 0.200
v -0.015462 0.433401 -0.037113 0.180 0.500 0.200
v -0.013537 0.435195 -0.033554 0.180 0.500 0.200
v -0.011842 0.436990 -0.029367 0.180 0.500 0.200
v -0.010316 0.438784 -0.024722 0.180 0.500 0.200
v -0.008885 0.440579 -0.019816 0.180 0.500 0.200
v -0.007469 0.442373 -0.014871 0.180 0.500 0.200
v -0.005979 0.444168 -0.010126 0.180 0.500 0.200
v -0.004322 0.445962 -0.005838 0.180 0.500 0.200
v -0.002388 0.447757 -0.002301 0.180 0.500 0.200
f 675 676 677
f 675 677 676
f 675 677 678
f 675 678 677
f 675 678 679
f 675 679 678
f 675 679 680
f 675 680 679
f 675 680 681
f 675 681 680
f 675 681 682
f 675 682 681
f 675 682 683
f 675 683 682
f 675 683 684
f 675 684 683
f 675 684 685
f 675 685 684
f 675 685 686
f 675 686 685
f 675 686 687
f 675 687 686
f 675 687 688
f 675 688 687
f 675 688 689
f 675 689 688
f 675 689 690
f 675 690 689
f 675 690 691
f 675 691 690
f 675 691 692
f 675 692 691
f 675 692 693
f 675 693 692
f 675 693 694
f 675 694 693
f 675 694 695
f 675 695 694
f 675 695 696
f 675 696 695
f 675 696 697
f 675 697 696
f 675 697 698
f 675 698 697
f 675 698 699
f 675 699 698
f 675 699 700
f 675 700 699
f 675 700 701
f 675 701 700
f 675 701 702
f 675 702 701
f 675 702 703
f 675 703 702
f 675 703 704
f 675 704 703
f 675 704 705
f 675 705 704
f 675 705 706
f 675 706 705
f 675 706 707
f 675 707 706
f 675 707 708
f 675 708 707
f 675 708 709
f 675 709 708
f 675 709 710
f 675 710 709
f 675 710 711
f 675 711 710
f 675 711 712
f 675 712 711
f 675 712 713
f 675 713 712
f 675 713 714
f 675 714 713
f 675 714 715
f 675 715 714
f 675 715 716
f 675 716 715
f 675 716 717
f 675 717 716
f 675 717 718
f 675 718 717
f 675 718 719
f 675 719 718
f 675 719 720
f 675 720 719
v 0.000000 0.449551 -0.000000 0.180 0.500 0.200
v -0.002579 0.447364 0.001747 0.180 0.500 0.200
v -0.004963 0.445177 0.004808 0.180 0.500 0.200
v -0.007228 0.442989 0.008669 0.180 0.500 0.200
v -0.009421 0.440802 0.013016 0.180 0.500 0.200
v -0.011582 0.438615 0.017575 0.180 0.500 0.200
v -0.013749 0.436427 0.022093 0.180 0.500 0.200
v -0.015958 0.434240 0.026333 0.180 0.500 0.200
v -0.018239 0.432053 0.030086 0.180 0.500 0.200
v -0.020619 0.429866 0.033171 0.180 0.500 0.200
v -0.023120 0.427678 0.035447 0.180 0.500 0.200
v -0.025756 0.425491 0.036817 0.180 0.500 0.200
v -0.028533 0.423304 0.037230 0.180 0.500 0.200
v -0.031454 0.421116 0.036687 0.180 0.500 0.200
v -0.034509 0.418929 0.035237 0.180 0.500 0.200
v -0.037684 0.416742 0.032978 0.180 0.500 0.200
v -0.040958 0.414554 0.030052 0.180 0.500 0.200
v -0.044305 0.412367 0.026638 0.180 0.500 0.200
v -0.047694 0.410180 0.022947 0.180 0.500 0.200
v -0.051088 0.407992 0.019214 0.180 0.500 0.200
v -0.054451 0.405805 0.015693 0.180 0.500 0.200
v -0.057742 0.403618 0.012659 0.180 0.500 0.200
v -0.060914 0.401430 0.010424 0.180 0.500 0.200
v -0.063890 0.399243 0.009504 0.180 0.500 0.200
v -0.061310 0.401430 0.007757 0.180 0.500 0.200
v -0.058927 0.403618 0.004695 0.180 0.500 0.200
v -0.056662 0.405805 0.000834 0.180 0.500 0.200
v -0.054469 0.407992 -0.003512 0.180 0.500 0.200
v -0.052308 0.410180 -0.008072 0.180 0.500 0.200
v -0.050141 0.412367 -0.012589 0.180 0.500 0.200
v -0.047932 0.414554 -0.016830 0.180 0.500 0.200
v -0.045651 0.416742 -0.020583 0.180 0.500 0.200
v -0.043271 0.418929 -0.023668 0.180 0.500 0.200
v -0.040770 0.421116 -0.025944 0.180 0.500 0.200
v -0.038134 0.423304 -0.027314 0.180 0.500 0.200
v -0.035356 0.425491 -0.027727 0.180 0.500 0.200
v -0.032436 0.427678 -0.027184 0.180 0.500 0.200
v -0.029381 0.429866 -0.025734 0.180 0.500 0.200
v -0.026206 0.432053 -0.023475 0.180 0.500 0.200
v -0.022932 0.434240 -0.020549 0.180 0.500 0.200
v -0.019584 0.436427 -0.017135 0.180 0.500 0.200
v -0.016196 0.438615 -0.013443 0.180 0.500 0.200
v -0.012802 0.440802 -0.009710 0.180 0.500 0.200
v -0.009439 0.442989 -0.006190 0.180 0.500 0.200
v -0.006148 0.445177 -0.003156 0.180 0.500 0.200
v -0.002976 0.447364 -0.000920 0.180 0.500 0.200
f 721 722 723
f 721 723 722
f 721 723 724
f 721 724 723
f 721 724 725
f 721 725 724
f 721 725 726
f 721 726 725
f 721 726 727
f 721 727 726
f 721 727 728
f 721 728 727
f 721 728 729
f 721 729 728
f 721 729 730
f 721 730 729
f 721 730 731
f 721 731 730
f 721 731 732
f 721 732 731
f 721 732 733
f 721 733 732
f 721 733 734
f 721 734 733
f 721 734 735
f 721 735 734
f 721 735 736
f 721 736 735
f 721 736 737
f 721 737 736
f 721 737 738
f 721 738 737
f 721 738 739
f 721 739 738
f 721 739 740
f 721 740 739
f 721 740 741
f 721 741 740
f 721 741 742
f 721 742 741
f 721 742 743
f 721 743 742
f 721 743 744
f 721 744 743
f 721 744 745
f 721 745 744
f 721 745 746
f 721 746 745
f 721 746 747
f 721 747 746
f 721 747 748
f 721 748 747
f 721 748 749
f 721 749 748
f 721 749 750
f 721 750 749
f 721 750 751
f 721 751 750
f 721 751 752
f 721 752 751
f 721 752 753
f 721 753 752
f 721 753 754
f 721 754 753
f 721 754 755
f 721 755 754
f 721 755 756
f 721 756 755
f 721 756 757
f 721 757 756
f 721 757 758
f 721 758 757
f 721 758 759
f 721 759 758
f 721 759 760
f 721 760 759
f 721 760 761
f 721 761 760
f 721 761 762
f 721 762 761
f 721 762 763
f 721 763 762
f 721 763 764
f 721 764 763
f 721 764 765
f 721 765 764
f 721 765 766
f 721 766 765
