o mesh
v -1.849212 3.188445 0.602810
v -1.830365 3.181660 0.635226
v -1.868058 3.176303 0.633623
v -1.793068 2.825832 0.494259
v -1.774221 2.819046 0.526675
v -1.811914 2.813690 0.525071
f 1 2 5
f 1 5 4
f 2 3 6
f 2 6 5
f 3 1 4
f 3 4 6
v -1.793068 2.820440 0.493354
v -1.774020 2.819491 0.526343
v -1.812116 2.818637 0.526308
v -1.780981 2.282209 0.470899
v -1.761933 2.281260 0.503888
v -1.800028 2.280406 0.503852
f 7 8 11
f 7 11 10
f 8 9 12
f 8 12 11
f 9 7 10
f 9 10 12
v -1.780981 2.290312 0.472814
v -1.761996 2.275313 0.502252
v -1.799965 2.278252 0.503573
v -1.810229 1.975952 0.331510
v -1.791245 1.960953 0.360949
v -1.829214 1.963892 0.362270
f 13 14 17
f 13 17 16
f 14 15 18
f 14 18 17
f 15 13 16
f 15 16 18
v -1.810211 1.966933 0.363576
v -1.814778 1.976281 0.345583
v -1.805699 1.957584 0.345569
v -1.910208 1.918381 0.363730
v -1.914774 1.927730 0.345737
v -1.905696 1.909033 0.345723
f 19 20 23
f 19 23 22
f 20 21 24
f 20 24 23
f 21 19 22
f 21 22 24
v -1.810229 1.962923 0.329945
v -1.791276 1.967027 0.362746
v -1.829182 1.970848 0.362038
v -1.865798 1.430049 0.428712
v -1.846845 1.434152 0.461514
v -1.884752 1.437973 0.460806
f 25 26 29
f 25 29 28
f 26 27 30
f 26 30 29
f 27 25 28
f 27 28 30
v -1.865798 1.438419 0.428781
v -1.846914 1.429401 0.460625
v -1.884683 1.434354 0.461627
v -1.931330 0.958407 0.331701
v -1.912446 0.949388 0.363545
v -1.950214 0.954342 0.364547
f 31 32 35
f 31 35 34
f 32 33 36
f 32 36 35
f 33 31 34
f 33 34 36
v -2.001572 2.608644 0.603656
v -1.982538 2.596437 0.634326
v -2.020607 2.594919 0.633677
v -1.981439 2.181727 0.421241
v -1.962404 2.169520 0.451911
v -2.000474 2.168001 0.451262
f 37 38 41
f 37 41 40
f 38 39 42
f 38 42 41
f 39 37 40
f 39 40 42
v -1.973062 2.173083 0.450063
v -1.988643 2.182584 0.440115
v -1.982613 2.163582 0.434236
v -2.224887 2.017218 0.695582
v -2.240467 2.026719 0.685633
v -2.234437 2.007717 0.679754
f 43 44 47
f 43 47 46
f 44 45 48
f 44 48 47
f 45 43 46
f 45 46 48
v -1.981439 2.178262 0.420090
v -1.962482 2.168645 0.451715
v -2.000397 2.172341 0.452610
v -2.027497 1.731939 0.311986
v -2.008539 1.722322 0.343611
v -2.046454 1.726018 0.344506
f 49 50 53
f 49 53 52
f 50 51 54
f 50 54 53
f 51 49 52
f 51 52 54
v -2.027497 1.732556 0.312145
v -2.009434 1.718015 0.342382
v -2.045560 1.729708 0.345576
v -2.203705 1.225962 0.173788
v -2.185643 1.211421 0.204025
v -2.221768 1.223114 0.207219
f 55 56 59
f 55 59 58
f 56 57 60
f 56 60 59
f 57 55 58
f 57 58 60
v -2.203705 1.226845 0.174049
v -2.184728 1.215219 0.204979
v -2.222683 1.218433 0.206003
v -2.237241 0.867291 0.059482
v -2.218264 0.855665 0.090413
v -2.256219 0.858879 0.091437
f 61 62 65
f 61 65 64
f 62 63 66
f 62 66 65
f 63 61 64
f 63 64 66
v -1.415325 3.676218 0.601894
v -1.396299 3.676360 0.634909
v -1.434352 3.674364 0.634857
v -1.389452 3.183361 0.589096
v -1.370425 3.183502 0.622110
v -1.408478 3.181506 0.622059
f 67 68 71
f 67 71 70
f 68 69 72
f 68 72 71
f 69 67 70
f 69 70 72
v -1.405076 3.182790 0.626576
v -1.393702 3.191120 0.591175
v -1.369577 3.174459 0.615514
v -1.528359 2.822585 0.502204
v -1.516985 2.830915 0.466803
v -1.492860 2.814255 0.491141
f 73 74 77
f 73 77 76
f 74 75 78
f 74 78 77
f 75 73 76
f 75 76 78
v -1.512735 2.824626 0.464811
v -1.493697 2.822315 0.497738
v -1.531772 2.820813 0.497598
v -1.496093 2.406488 0.425844
v -1.477056 2.404177 0.458771
v -1.515131 2.402674 0.458631
f 79 80 83
f 79 83 82
f 80 81 84
f 80 84 83
f 81 79 82
f 81 82 84
v -1.496093 2.411671 0.426969
v -1.477138 2.399014 0.457506
v -1.515048 2.402654 0.458772
v -1.533084 2.068026 0.307491
v -1.514129 2.055368 0.338028
v -1.552039 2.059009 0.339293
f 85 86 89
f 85 89 88
f 86 87 90
f 86 90 89
f 87 85 88
f 87 88 90
v -1.533084 2.052208 0.308018
v -1.514049 2.065851 0.338077
v -1.552119 2.064344 0.338717
v -1.511877 1.598194 0.500644
v -1.492842 1.611836 0.530703
v -1.530912 1.610329 0.531343
f 91 92 95
f 91 95 94
f 92 93 96
f 92 96 95
f 93 91 94
f 93 94 96
v -1.505095 1.606786 0.510997
v -1.512169 1.616476 0.527969
v -1.518366 1.597096 0.523725
v -1.191421 1.459445 0.725853
v -1.198495 1.469135 0.742825
v -1.204691 1.449755 0.738581
f 97 98 101
f 97 101 100
f 98 99 102
f 98 102 101
f 99 97 100
f 99 100 102
v -1.522136 1.606786 0.540358
v -1.521915 1.615093 0.503170
v -1.491579 1.598479 0.519162
v -1.688147 1.219442 0.452845
v -1.687926 1.227749 0.415657
v -1.657590 1.211134 0.431649
f 103 104 107
f 103 107 106
f 104 105 108
f 104 108 107
f 105 103 106
f 105 106 108
v -1.669649 1.219442 0.412985
v -1.666925 1.229363 0.449674
v -1.697089 1.209520 0.437492
v -1.497249 0.914612 0.482614
v -1.494525 0.924533 0.519304
v -1.524689 0.904690 0.507121
f 109 110 113
f 109 113 112
f 110 111 114
f 110 114 113
f 111 109 112
f 111 112 114
v -1.505488 0.913134 0.481063
v -1.487198 0.910027 0.514347
v -1.523778 0.920674 0.513630
v -1.616488 0.533472 0.506629
v -1.598198 0.530366 0.539913
v -1.634779 0.541013 0.539196
f 115 116 119
f 115 119 118
f 116 117 120
f 116 120 119
f 117 115 118
f 117 118 120
v -1.608885 0.534950 0.519295
v -1.615421 0.543220 0.537209
v -1.625159 0.526681 0.529232
v -1.308159 0.239086 0.765610
v -1.314696 0.247355 0.783524
v -1.324434 0.230816 0.775547
f 121 122 125
f 121 125 124
f 122 123 126
f 122 126 125
f 123 121 124
f 123 124 126
v -1.616488 0.542949 0.508084
v -1.597748 0.534149 0.540074
v -1.635229 0.527753 0.537578
v -1.550631 0.207999 0.377359
v -1.531891 0.199198 0.409348
v -1.569372 0.192803 0.406852
f 127 128 131
f 127 131 130
f 128 129 132
f 128 132 131
f 129 127 130
f 129 130 132
v 0.018482 2.600000 -3.131366
v -0.000539 2.610281 -3.099989
v -0.017942 2.589719 -3.126940
v 0.132764 2.271309 -2.954384
v 0.113743 2.281590 -2.923008
v 0.096340 2.261028 -2.949958
f 133 134 137
f 133 137 136
f 134 135 138
f 134 138 137
f 135 133 136
f 135 136 138
v 0.110188 2.271309 -2.931170
v 0.115921 2.281692 -2.948238
v 0.116739 2.260926 -2.947941
v -0.225196 2.256355 -3.052913
v -0.219463 2.266738 -3.069982
v -0.218645 2.245971 -3.069685
f 139 140 143
f 139 143 142
f 140 141 144
f 140 144 143
f 141 139 142
f 141 142 144
v 0.114282 2.273607 -2.964330
v 0.133321 2.270874 -2.931435
v 0.095243 2.269445 -2.931585
v 0.130512 1.845729 -3.009280
v 0.149551 1.842996 -2.976386
v 0.111473 1.841567 -2.976536
f 145 146 149
f 145 149 148
f 146 147 150
f 146 150 149
f 147 145 148
f 147 148 150
v 0.130512 1.842057 -3.009358
v 0.149535 1.843046 -2.976355
v 0.111490 1.845189 -2.976489
v 0.102503 1.346748 -2.978357
v 0.121526 1.347738 -2.945355
v 0.083481 1.349881 -2.945489
f 151 152 155
f 151 155 154
f 152 153 156
f 152 156 155
f 153 151 154
f 153 154 156
v 0.122295 1.348122 -2.966008
v 0.099663 1.358221 -2.937063
v 0.085552 1.338023 -2.966130
v 0.210945 1.023387 -2.783394
v 0.188314 1.033486 -2.754448
v 0.174203 1.013288 -2.783516
f 157 158 161
f 157 161 160
f 158 159 162
f 158 162 161
f 159 157 160
f 159 160 162
v 0.191154 1.018732 -2.795288
v 0.210179 1.024711 -2.762818
v 0.172129 1.026717 -2.763252
v 0.162104 0.492365 -2.681332
v 0.181129 0.498344 -2.648862
v 0.143079 0.500350 -2.649296
f 163 164 167
f 163 167 166
f 164 165 168
f 164 168 167
f 165 163 166
f 165 166 168
v 0.749239 4.005401 0.638173
v 0.763250 4.013870 0.603764
v 0.785417 3.996932 0.629721
v 0.584262 3.493433 0.444989
v 0.598273 3.501901 0.410580
v 0.620440 3.484964 0.436537
f 169 170 173
f 169 173 172
f 170 171 174
f 170 174 173
f 171 169 172
f 171 172 174
v 0.606821 3.493433 0.441191
v 0.596558 3.503679 0.426301
v 0.599596 3.483187 0.424613
v 0.272777 3.428618 0.626826
v 0.262514 3.438864 0.611936
v 0.265552 3.418372 0.610248
f 175 176 179
f 175 179 178
f 176 177 180
f 176 180 179
f 177 175 178
f 177 178 180
v 0.600992 3.491715 0.408769
v 0.618778 3.501099 0.441135
v 0.583205 3.487484 0.442201
v 0.768516 3.056673 0.442846
v 0.786303 3.066058 0.475212
v 0.750729 3.052443 0.476278
f 181 182 185
f 181 185 184
f 182 183 186
f 182 186 185
f 183 181 184
f 183 184 186
v 0.754795 3.058391 0.481976
v 0.762379 3.067694 0.445810
v 0.788374 3.049089 0.466550
v 0.568503 2.632409 0.333339
v 0.576087 2.641712 0.297173
v 0.602081 2.623107 0.317913
f 187 188 191
f 187 191 190
f 188 189 192
f 188 192 191
f 189 187 190
f 189 190 192
v 0.582224 2.634779 0.294270
v 0.600972 2.634594 0.327443
v 0.563475 2.627855 0.326713
v 0.646467 2.281467 0.255996
v 0.665216 2.281283 0.289169
v 0.627718 2.274543 0.288439
f 193 194 197
f 193 197 196
f 194 195 198
f 194 198 197
f 195 193 196
f 195 196 198
v 0.646467 2.278627 0.255873
v 0.664248 2.272489 0.289012
v 0.628687 2.286176 0.288719
v 0.460046 1.794510 0.266224
v 0.477827 1.788372 0.299362
v 0.442266 1.802059 0.299070
f 199 200 203
f 199 203 202
f 200 201 204
f 200 204 203
f 201 199 202
f 201 202 204
v 0.460046 1.794677 0.266221
v 0.478403 1.790031 0.299288
v 0.441690 1.800234 0.299147
v 0.315975 1.276368 0.273372
v 0.334332 1.271722 0.306439
v 0.297618 1.281925 0.306298
f 205 206 209
f 205 209 208
f 206 207 210
f 206 210 209
f 207 205 208
f 207 208 210
v 0.317662 1.276672 0.307251
v 0.313480 1.286929 0.289664
v 0.316783 1.266414 0.289195
v -0.083904 1.210715 0.364272
v -0.088087 1.220973 0.346685
v -0.084784 1.200458 0.346216
f 211 212 215
f 211 215 214
f 212 213 216
f 212 216 215
f 213 211 214
f 213 214 216
v 0.315975 1.275149 0.273423
v 0.333220 1.285513 0.305783
v 0.298729 1.269354 0.306904
v 0.498737 0.886938 0.300363
v 0.515982 0.897303 0.332723
v 0.481491 0.881143 0.333845
f 217 218 221
f 217 221 220
f 218 219 222
f 218 222 221
f 219 217 220
f 219 220 222
v -1.433248 3.675647 0.636645
v -1.416180 3.684395 0.603718
v -1.396548 3.666900 0.631295
v -1.537929 3.326408 0.489600
v -1.520861 3.335156 0.456673
v -1.501229 3.317660 0.484250
f 223 224 227
f 223 227 226
f 224 225 228
f 224 228 227
f 225 223 226
f 225 226 228
v -1.520007 3.330220 0.455174
v -1.501358 3.328344 0.488351
v -1.538655 3.320659 0.486999
v -1.413886 2.830684 0.367275
v -1.395238 2.828808 0.400452
v -1.432535 2.821122 0.399100
f 229 230 233
f 229 233 232
f 230 231 234
f 230 234 233
f 231 229 232
f 231 232 234
v -1.413886 2.832339 0.367633
v -1.395624 2.829398 0.400947
v -1.432148 2.818877 0.398247
v -1.263877 2.343741 0.242268
v -1.245615 2.340800 0.275583
v -1.282139 2.330279 0.272883
f 235 236 239
f 235 239 238
f 236 237 240
f 236 240 239
f 237 235 238
f 237 238 240
v -1.263877 2.342867 0.242063
v -1.245824 2.330021 0.273064
v -1.281930 2.341932 0.275607
v -1.435066 1.846572 0.136100
v -1.417013 1.833726 0.167101
v -1.453119 1.845638 0.169644
f 241 242 245
f 241 245 244
f 242 243 246
f 242 246 245
f 243 241 244
f 243 244 246
v -1.424692 1.841979 0.138215
v -1.426255 1.852514 0.174801
v -1.454253 1.831444 0.159829
v -1.233265 1.514856 0.240583
v -1.234827 1.525391 0.277170
v -1.262826 1.504321 0.262197
f 247 248 251
f 247 251 250
f 248 249 252
f 248 252 251
f 249 247 250
f 249 250 252
v -1.243639 1.507857 0.239127
v -1.224824 1.521197 0.269459
v -1.262455 1.515515 0.271365
v -1.156614 0.989791 0.412996
v -1.137798 1.003131 0.443327
v -1.175429 0.997450 0.445234
f 253 254 257
f 253 257 256
f 254 255 258
f 254 258 257
f 255 253 256
f 255 256 258
v -1.156614 0.996236 0.411859
v -1.138133 0.992437 0.444966
v -1.175095 1.001699 0.444732
v -1.239892 0.664104 0.420233
v -1.221411 0.660305 0.453339
v -1.258373 0.669567 0.453106
f 259 260 263
f 259 263 262
f 260 261 264
f 260 264 263
f 261 259 262
f 261 262 264
v -2.001572 2.598760 -0.021965
v -1.982521 2.600425 0.010994
v -2.020624 2.600815 0.010971
v -2.006264 2.142328 0.003802
v -1.987212 2.143992 0.036760
v -2.025315 2.144383 0.036738
f 265 266 269
f 265 269 268
f 266 267 270
f 266 270 269
f 267 265 268
f 267 268 270
v -2.006264 2.149177 0.004494
v -1.987594 2.144437 0.037372
v -2.024933 2.137089 0.035434
v -1.903630 1.661543 -0.124088
v -1.884960 1.656803 -0.091210
v -1.922299 1.649455 -0.093148
f 271 272 275
f 271 275 274
f 272 273 276
f 272 276 275
f 273 271 274
f 273 274 276
v -1.903630 1.648409 -0.123489
v -1.884601 1.660603 -0.092809
v -1.922658 1.658790 -0.092149
v -1.887403 1.347664 -0.014012
v -1.868375 1.359859 0.016668
v -1.906431 1.358045 0.017328
f 277 278 281
f 277 281 280
f 278 279 282
f 278 282 281
f 279 277 280
f 279 280 282
v -1.907441 1.355189 0.015742
v -1.884318 1.364176 -0.013181
v -1.870449 1.346203 0.017423
v -1.991909 0.972625 -0.170650
v -1.968786 0.981611 -0.199573
v -1.954917 0.963638 -0.168969
f 283 284 287
f 283 287 286
f 284 285 288
f 284 288 287
f 285 283 286
f 285 286 288
v -1.971871 0.973244 -0.201722
v -1.953084 0.969148 -0.168824
v -1.990658 0.975483 -0.168646
v -2.034357 0.602932 -0.212143
v -2.015570 0.598836 -0.179246
v -2.053145 0.605172 -0.179067
f 289 290 293
f 289 293 292
f 290 291 294
f 290 294 293
f 291 289 292
f 291 292 294
v -2.023111 0.602314 -0.194337
v -2.037431 0.609699 -0.181208
v -2.042530 0.594928 -0.194912
v -1.918349 0.304965 0.087207
v -1.932670 0.312351 0.100336
v -1.937769 0.297579 0.086633
f 295 296 299
f 295 299 298
f 296 297 300
f 296 300 299
f 297 295 298
f 297 298 300
v -2.034357 0.599660 -0.211992
v -2.015450 0.601313 -0.178950
v -2.053265 0.605967 -0.179515
v -2.084606 0.197347 -0.163117
v -2.065698 0.198999 -0.130075
v -2.103514 0.203654 -0.130640
f 301 302 305
f 301 305 304
f 302 303 306
f 302 306 305
f 303 301 304
f 303 304 306
