o mesh
v 4.819262 0.323172 0.148716
v 4.819262 0.323172 0.148716
v 4.819262 0.323172 0.148716
v 4.819262 0.323172 0.148716
v 4.819262 0.323172 0.148716
v 4.819262 0.323172 0.148716
v 4.819262 0.323172 0.148716
v 4.819262 0.323172 0.148716
v 5.082273 0.257807 0.148716
v 5.005238 0.257807 -0.037261
v 4.819262 0.257807 -0.114295
v 4.633285 0.257807 -0.037261
v 4.556250 0.257807 0.148716
v 4.633285 0.257807 0.334693
v 4.819262 0.257807 0.411728
v 5.005238 0.257807 0.334693
v 5.191215 0.100000 0.148716
v 5.082273 0.100000 -0.114295
v 4.819262 0.100000 -0.223237
v 4.556250 0.100000 -0.114295
v 4.447308 0.100000 0.148716
v 4.556250 0.100000 0.411728
v 4.819262 0.100000 0.520670
v 5.082273 0.100000 0.411728
v 5.082273 -0.057807 0.148716
v 5.005238 -0.057807 -0.037261
v 4.819262 -0.057807 -0.114295
v 4.633285 -0.057807 -0.037261
v 4.556250 -0.057807 0.148716
v 4.633285 -0.057807 0.334693
v 4.819262 -0.057807 0.411728
v 5.005238 -0.057807 0.334693
v 4.819262 -0.123172 0.148716
v 4.819262 -0.123172 0.148716
v 4.819262 -0.123172 0.148716
v 4.819262 -0.123172 0.148716
v 4.819262 -0.123172 0.148716
v 4.819262 -0.123172 0.148716
v 4.819262 -0.123172 0.148716
v 4.819262 -0.123172 0.148716
f 1 10 2
f 1 9 10
f 2 11 3
f 2 10 11
f 3 12 4
f 3 11 12
f 4 13 5
f 4 12 13
f 5 14 6
f 5 13 14
f 6 15 7
f 6 14 15
f 7 16 8
f 7 15 16
f 8 9 1
f 8 16 9
f 9 18 10
f 9 17 18
f 10 19 11
f 10 18 19
f 11 20 12
f 11 19 20
f 12 21 13
f 12 20 21
f 13 22 14
f 13 21 22
f 14 23 15
f 14 22 23
f 15 24 16
f 15 23 24
f 16 17 9
f 16 24 17
f 17 26 18
f 17 25 26
f 18 27 19
f 18 26 27
f 19 28 20
f 19 27 28
f 20 29 21
f 20 28 29
f 21 30 22
f 21 29 30
f 22 31 23
f 22 30 31
f 23 32 24
f 23 31 32
f 24 25 17
f 24 32 25
f 25 34 26
f 25 33 34
f 26 35 27
f 26 34 35
f 27 36 28
f 27 35 36
f 28 37 29
f 28 36 37
f 29 38 30
f 29 37 38
f 30 39 31
f 30 38 39
f 31 40 32
f 31 39 40
f 32 33 25
f 32 40 33
v 4.520464 0.369473 -1.554442
v 4.520464 0.369473 -1.554442
v 4.520464 0.369473 -1.554442
v 4.520464 0.369473 -1.554442
v 4.520464 0.369473 -1.554442
v 4.520464 0.369473 -1.554442
v 4.520464 0.369473 -1.554442
v 4.520464 0.369473 -1.554442
v 4.838041 0.290546 -1.554442
v 4.745025 0.290546 -1.779002
v 4.520464 0.290546 -1.872018
v 4.295903 0.290546 -1.779002
v 4.202887 0.290546 -1.554442
v 4.295903 0.290546 -1.329881
v 4.520464 0.290546 -1.236865
v 4.745025 0.290546 -1.329881
v 4.969585 0.100000 -1.554442
v 4.838041 0.100000 -1.872018
v 4.520464 0.100000 -2.003563
v 4.202887 0.100000 -1.872018
v 4.071343 0.100000 -1.554442
v 4.202887 0.100000 -1.236865
v 4.520464 0.100000 -1.105320
v 4.838041 0.100000 -1.236865
v 4.838041 -0.090546 -1.554442
v 4.745025 -0.090546 -1.779002
v 4.520464 -0.090546 -1.872018
v 4.295903 -0.090546 -1.779002
v 4.202887 -0.090546 -1.554442
v 4.295903 -0.090546 -1.329881
v 4.520464 -0.090546 -1.236865
v 4.745025 -0.090546 -1.329881
v 4.520464 -0.169473 -1.554442
v 4.520464 -0.169473 -1.554442
v 4.520464 -0.169473 -1.554442
v 4.520464 -0.169473 -1.554442
v 4.520464 -0.169473 -1.554442
v 4.520464 -0.169473 -1.554442
v 4.520464 -0.169473 -1.554442
v 4.520464 -0.169473 -1.554442
f 41 50 42
f 41 49 50
f 42 51 43
f 42 50 51
f 43 52 44
f 43 51 52
f 44 53 45
f 44 52 53
f 45 54 46
f 45 53 54
f 46 55 47
f 46 54 55
f 47 56 48
f 47 55 56
f 48 49 41
f 48 56 49
f 49 58 50
f 49 57 58
f 50 59 51
f 50 58 59
f 51 60 52
f 51 59 60
f 52 61 53
f 52 60 61
f 53 62 54
f 53 61 62
f 54 63 55
f 54 62 63
f 55 64 56
f 55 63 64
f 56 57 49
f 56 64 57
f 57 66 58
f 57 65 66
f 58 67 59
f 58 66 67
f 59 68 60
f 59 67 68
f 60 69 61
f 60 68 69
f 61 70 62
f 61 69 70
f 62 71 63
f 62 70 71
f 63 72 64
f 63 71 72
f 64 65 57
f 64 72 65
f 65 74 66
f 65 73 74
f 66 75 67
f 66 74 75
f 67 76 68
f 67 75 76
f 68 77 69
f 68 76 77
f 69 78 70
f 69 77 78
f 70 79 71
f 70 78 79
f 71 80 72
f 71 79 80
f 72 73 65
f 72 80 73
v 4.034146 0.391773 -2.644066
v 4.034146 0.391773 -2.644066
v 4.034146 0.391773 -2.644066
v 4.034146 0.391773 -2.644066
v 4.034146 0.391773 -2.644066
v 4.034146 0.391773 -2.644066
v 4.034146 0.391773 -2.644066
v 4.034146 0.391773 -2.644066
v 4.378003 0.306314 -2.644066
v 4.277290 0.306314 -2.887210
v 4.034146 0.306314 -2.987924
v 3.791002 0.306314 -2.887210
v 3.690289 0.306314 -2.644066
v 3.791002 0.306314 -2.400922
v 4.034146 0.306314 -2.300209
v 4.277290 0.306314 -2.400922
v 4.520434 0.100000 -2.644066
v 4.378003 0.100000 -2.987924
v 4.034146 0.100000 -3.130354
v 3.690289 0.100000 -2.987924
v 3.547858 0.100000 -2.644066
v 3.690289 0.100000 -2.300209
v 4.034146 0.100000 -2.157778
v 4.378003 0.100000 -2.300209
v 4.378003 -0.106314 -2.644066
v 4.277290 -0.106314 -2.887210
v 4.034146 -0.106314 -2.987924
v 3.791002 -0.106314 -2.887210
v 3.690289 -0.106314 -2.644066
v 3.791002 -0.106314 -2.400922
v 4.034146 -0.106314 -2.300209
v 4.277290 -0.106314 -2.400922
v 4.034146 -0.191773 -2.644066
v 4.034146 -0.191773 -2.644066
v 4.034146 -0.191773 -2.644066
v 4.034146 -0.191773 -2.644066
v 4.034146 -0.191773 -2.644066
v 4.034146 -0.191773 -2.644066
v 4.034146 -0.191773 -2.644066
v 4.034146 -0.191773 -2.644066
f 81 90 82
f 81 89 90
f 82 91 83
f 82 90 91
f 83 92 84
f 83 91 92
f 84 93 85
f 84 92 93
f 85 94 86
f 85 93 94
f 86 95 87
f 86 94 95
f 87 96 88
f 87 95 96
f 88 89 81
f 88 96 89
f 89 98 90
f 89 97 98
f 90 99 91
f 90 98 99
f 91 100 92
f 91 99 100
f 92 101 93
f 92 100 101
f 93 102 94
f 93 101 102
f 94 103 95
f 94 102 103
f 95 104 96
f 95 103 104
f 96 97 89
f 96 104 97
f 97 106 98
f 97 105 106
f 98 107 99
f 98 106 107
f 99 108 100
f 99 107 108
f 100 109 101
f 100 108 109
f 101 110 102
f 101 109 110
f 102 111 103
f 102 110 111
f 103 112 104
f 103 111 112
f 104 105 97
f 104 112 105
f 105 114 106
f 105 113 114
f 106 115 107
f 106 114 115
f 107 116 108
f 107 115 116
f 108 117 109
f 108 116 117
f 109 118 110
f 109 117 118
f 110 119 111
f 110 118 119
f 111 120 112
f 111 119 120
f 112 113 105
f 112 120 113
v 3.322929 0.286143 -3.219964
v 3.322929 0.286143 -3.219964
v 3.322929 0.286143 -3.219964
v 3.322929 0.286143 -3.219964
v 3.322929 0.286143 -3.219964
v 3.322929 0.286143 -3.219964
v 3.322929 0.286143 -3.219964
v 3.322929 0.286143 -3.219964
v 3.542300 0.231623 -3.219964
v 3.478048 0.231623 -3.375083
v 3.322929 0.231623 -3.439335
v 3.167810 0.231623 -3.375083
v 3.103558 0.231623 -3.219964
v 3.167810 0.231623 -3.064845
v 3.322929 0.231623 -3.000593
v 3.478048 0.231623 -3.064845
v 3.633167 0.100000 -3.219964
v 3.542300 0.100000 -3.439335
v 3.322929 0.100000 -3.530202
v 3.103558 0.100000 -3.439335
v 3.012691 0.100000 -3.219964
v 3.103558 0.100000 -3.000593
v 3.322929 0.100000 -2.909726
v 3.542300 0.100000 -3.000593
v 3.542300 -0.031623 -3.219964
v 3.478048 -0.031623 -3.375083
v 3.322929 -0.031623 -3.439335
v 3.167810 -0.031623 -3.375083
v 3.103558 -0.031623 -3.219964
v 3.167810 -0.031623 -3.064845
v 3.322929 -0.031623 -3.000593
v 3.478048 -0.031623 -3.064845
v 3.322929 -0.086143 -3.219964
v 3.322929 -0.086143 -3.219964
v 3.322929 -0.086143 -3.219964
v 3.322929 -0.086143 -3.219964
v 3.322929 -0.086143 -3.219964
v 3.322929 -0.086143 -3.219964
v 3.322929 -0.086143 -3.219964
v 3.322929 -0.086143 -3.219964
f 121 130 122
f 121 129 130
f 122 131 123
f 122 130 131
f 123 132 124
f 123 131 132
f 124 133 125
f 124 132 133
f 125 134 126
f 125 133 134
f 126 135 127
f 126 134 135
f 127 136 128
f 127 135 136
f 128 129 121
f 128 136 129
f 129 138 130
f 129 137 138
f 130 139 131
f 130 138 139
f 131 140 132
f 131 139 140
f 132 141 133
f 132 140 141
f 133 142 134
f 133 141 142
f 134 143 135
f 134 142 143
f 135 144 136
f 135 143 144
f 136 137 129
f 136 144 137
f 137 146 138
f 137 145 146
f 138 147 139
f 138 146 147
f 139 148 140
f 139 147 148
f 140 149 141
f 140 148 149
f 141 150 142
f 141 149 150
f 142 151 143
f 142 150 151
f 143 152 144
f 143 151 152
f 144 145 137
f 144 152 145
f 145 154 146
f 145 153 154
f 146 155 147
f 146 154 155
f 147 156 148
f 147 155 156
f 148 157 149
f 148 156 157
f 149 158 150
f 149 157 158
f 150 159 151
f 150 158 159
f 151 160 152
f 151 159 160
f 152 153 145
f 152 160 153
v 1.643969 0.361893 -4.381052
v 1.643969 0.361893 -4.381052
v 1.643969 0.361893 -4.381052
v 1.643969 0.361893 -4.381052
v 1.643969 0.361893 -4.381052
v 1.643969 0.361893 -4.381052
v 1.643969 0.361893 -4.381052
v 1.643969 0.361893 -4.381052
v 1.952613 0.285187 -4.381052
v 1.862213 0.285187 -4.599296
v 1.643969 0.285187 -4.689696
v 1.425724 0.285187 -4.599296
v 1.335324 0.285187 -4.381052
v 1.425724 0.285187 -4.162807
v 1.643969 0.285187 -4.072407
v 1.862213 0.285187 -4.162807
v 2.080458 0.100000 -4.381052
v 1.952613 0.100000 -4.689696
v 1.643969 0.100000 -4.817541
v 1.335324 0.100000 -4.689696
v 1.207479 0.100000 -4.381052
v 1.335324 0.100000 -4.072407
v 1.643969 0.100000 -3.944563
v 1.952613 0.100000 -4.072407
v 1.952613 -0.085187 -4.381052
v 1.862213 -0.085187 -4.599296
v 1.643969 -0.085187 -4.689696
v 1.425724 -0.085187 -4.599296
v 1.335324 -0.085187 -4.381052
v 1.425724 -0.085187 -4.162807
v 1.643969 -0.085187 -4.072407
v 1.862213 -0.085187 -4.162807
v 1.643969 -0.161893 -4.381052
v 1.643969 -0.161893 -4.381052
v 1.643969 -0.161893 -4.381052
v 1.643969 -0.161893 -4.381052
v 1.643969 -0.161893 -4.381052
v 1.643969 -0.161893 -4.381052
v 1.643969 -0.161893 -4.381052
v 1.643969 -0.161893 -4.381052
f 161 170 162
f 161 169 170
f 162 171 163
f 162 170 171
f 163 172 164
f 163 171 172
f 164 173 165
f 164 172 173
f 165 174 166
f 165 173 174
f 166 175 167
f 166 174 175
f 167 176 168
f 167 175 176
f 168 169 161
f 168 176 169
f 169 178 170
f 169 177 178
f 170 179 171
f 170 178 179
f 171 180 172
f 171 179 180
f 172 181 173
f 172 180 181
f 173 182 174
f 173 181 182
f 174 183 175
f 174 182 183
f 175 184 176
f 175 183 184
f 176 177 169
f 176 184 177
f 177 186 178
f 177 185 186
f 178 187 179
f 178 186 187
f 179 188 180
f 179 187 188
f 180 189 181
f 180 188 189
f 181 190 182
f 181 189 190
f 182 191 183
f 182 190 191
f 183 192 184
f 183 191 192
f 184 185 177
f 184 192 185
f 185 194 186
f 185 193 194
f 186 195 187
f 186 194 195
f 187 196 188
f 187 195 196
f 188 197 189
f 188 196 197
f 189 198 190
f 189 197 198
f 190 199 191
f 190 198 199
f 191 200 192
f 191 199 200
f 192 193 185
f 192 200 193
v 0.777567 0.388152 -4.602875
v 0.777567 0.388152 -4.602875
v 0.777567 0.388152 -4.602875
v 0.777567 0.388152 -4.602875
v 0.777567 0.388152 -4.602875
v 0.777567 0.388152 -4.602875
v 0.777567 0.388152 -4.602875
v 0.777567 0.388152 -4.602875
v 1.117157 0.303754 -4.602875
v 1.017693 0.303754 -4.843001
v 0.777567 0.303754 -4.942465
v 0.537440 0.303754 -4.843001
v 0.437976 0.303754 -4.602875
v 0.537440 0.303754 -4.362748
v 0.777567 0.303754 -4.263284
v 1.017693 0.303754 -4.362748
v 1.257820 0.100000 -4.602875
v 1.117157 0.100000 -4.942465
v 0.777567 0.100000 -5.083128
v 0.437976 0.100000 -4.942465
v 0.297313 0.100000 -4.602875
v 0.437976 0.100000 -4.263284
v 0.777567 0.100000 -4.122622
v 1.117157 0.100000 -4.263284
v 1.117157 -0.103754 -4.602875
v 1.017693 -0.103754 -4.843001
v 0.777567 -0.103754 -4.942465
v 0.537440 -0.103754 -4.843001
v 0.437976 -0.103754 -4.602875
v 0.537440 -0.103754 -4.362748
v 0.777567 -0.103754 -4.263284
v 1.017693 -0.103754 -4.362748
v 0.777567 -0.188152 -4.602875
v 0.777567 -0.188152 -4.602875
v 0.777567 -0.188152 -4.602875
v 0.777567 -0.188152 -4.602875
v 0.777567 -0.188152 -4.602875
v 0.777567 -0.188152 -4.602875
v 0.777567 -0.188152 -4.602875
v 0.777567 -0.188152 -4.602875
f 201 210 202
f 201 209 210
f 202 211 203
f 202 210 211
f 203 212 204
f 203 211 212
f 204 213 205
f 204 212 213
f 205 214 206
f 205 213 214
f 206 215 207
f 206 214 215
f 207 216 208
f 207 215 216
f 208 209 201
f 208 216 209
f 209 218 210
f 209 217 218
f 210 219 211
f 210 218 219
f 211 220 212
f 211 219 220
f 212 221 213
f 212 220 221
f 213 222 214
f 213 221 222
f 214 223 215
f 214 222 223
f 215 224 216
f 215 223 224
f 216 217 209
f 216 224 217
f 217 226 218
f 217 225 226
f 218 227 219
f 218 226 227
f 219 228 220
f 219 227 228
f 220 229 221
f 220 228 229
f 221 230 222
f 221 229 230
f 222 231 223
f 222 230 231
f 223 232 224
f 223 231 232
f 224 225 217
f 224 232 225
f 225 234 226
f 225 233 234
f 226 235 227
f 226 234 235
f 227 236 228
f 227 235 236
f 228 237 229
f 228 236 237
f 229 238 230
f 229 237 238
f 230 239 231
f 230 238 239
f 231 240 232
f 231 239 240
f 232 233 225
f 232 240 233
v -0.220179 0.329184 -4.710067
v -0.220179 0.329184 -4.710067
v -0.220179 0.329184 -4.710067
v -0.220179 0.329184 -4.710067
v -0.220179 0.329184 -4.710067
v -0.220179 0.329184 -4.710067
v -0.220179 0.329184 -4.710067
v -0.220179 0.329184 -4.710067
v 0.049917 0.262058 -4.710067
v -0.029192 0.262058 -4.901054
v -0.220179 0.262058 -4.980163
v -0.411166 0.262058 -4.901054
v -0.490275 0.262058 -4.710067
v -0.411166 0.262058 -4.519080
v -0.220179 0.262058 -4.439971
v -0.029192 0.262058 -4.519080
v 0.161795 0.100000 -4.710067
v 0.049917 0.100000 -4.980163
v -0.220179 0.100000 -5.092041
v -0.490275 0.100000 -4.980163
v -0.602152 0.100000 -4.710067
v -0.490275 0.100000 -4.439971
v -0.220179 0.100000 -4.328094
v 0.049917 0.100000 -4.439971
v 0.049917 -0.062058 -4.710067
v -0.029192 -0.062058 -4.901054
v -0.220179 -0.062058 -4.980163
v -0.411166 -0.062058 -4.901054
v -0.490275 -0.062058 -4.710067
v -0.411166 -0.062058 -4.519080
v -0.220179 -0.062058 -4.439971
v -0.029192 -0.062058 -4.519080
v -0.220179 -0.129184 -4.710067
v -0.220179 -0.129184 -4.710067
v -0.220179 -0.129184 -4.710067
v -0.220179 -0.129184 -4.710067
v -0.220179 -0.129184 -4.710067
v -0.220179 -0.129184 -4.710067
v -0.220179 -0.129184 -4.710067
v -0.220179 -0.129184 -4.710067
f 241 250 242
f 241 249 250
f 242 251 243
f 242 250 251
f 243 252 244
f 243 251 252
f 244 253 245
f 244 252 253
f 245 254 246
f 245 253 254
f 246 255 247
f 246 254 255
f 247 256 248
f 247 255 256
f 248 249 241
f 248 256 249
f 249 258 250
f 249 257 258
f 250 259 251
f 250 258 259
f 251 260 252
f 251 259 260
f 252 261 253
f 252 260 261
f 253 262 254
f 253 261 262
f 254 263 255
f 254 262 263
f 255 264 256
f 255 263 264
f 256 257 249
f 256 264 257
f 257 266 258
f 257 265 266
f 258 267 259
f 258 266 267
f 259 268 260
f 259 267 268
f 260 269 261
f 260 268 269
f 261 270 262
f 261 269 270
f 262 271 263
f 262 270 271
f 263 272 264
f 263 271 272
f 264 265 257
f 264 272 265
f 265 274 266
f 265 273 274
f 266 275 267
f 266 274 275
f 267 276 268
f 267 275 276
f 268 277 269
f 268 276 277
f 269 278 270
f 269 277 278
f 270 279 271
f 270 278 279
f 271 280 272
f 271 279 280
f 272 273 265
f 272 280 273
v -1.796650 0.369964 -4.330382
v -1.796650 0.369964 -4.330382
v -1.796650 0.369964 -4.330382
v -1.796650 0.369964 -4.330382
v -1.796650 0.369964 -4.330382
v -1.796650 0.369964 -4.330382
v -1.796650 0.369964 -4.330382
v -1.796650 0.369964 -4.330382
v -1.478494 0.290893 -4.330382
v -1.571680 0.290893 -4.555352
v -1.796650 0.290893 -4.648537
v -2.021619 0.290893 -4.555352
v -2.114805 0.290893 -4.330382
v -2.021619 0.290893 -4.105412
v -1.796650 0.290893 -4.012227
v -1.571680 0.290893 -4.105412
v -1.346710 0.100000 -4.330382
v -1.478494 0.100000 -4.648537
v -1.796650 0.100000 -4.780321
v -2.114805 0.100000 -4.648537
v -2.246589 0.100000 -4.330382
v -2.114805 0.100000 -4.012227
v -1.796650 0.100000 -3.880442
v -1.478494 0.100000 -4.012227
v -1.478494 -0.090893 -4.330382
v -1.571680 -0.090893 -4.555352
v -1.796650 -0.090893 -4.648537
v -2.021619 -0.090893 -4.555352
v -2.114805 -0.090893 -4.330382
v -2.021619 -0.090893 -4.105412
v -1.796650 -0.090893 -4.012227
v -1.571680 -0.090893 -4.105412
v -1.796650 -0.169964 -4.330382
v -1.796650 -0.169964 -4.330382
v -1.796650 -0.169964 -4.330382
v -1.796650 -0.169964 -4.330382
v -1.796650 -0.169964 -4.330382
v -1.796650 -0.169964 -4.330382
v -1.796650 -0.169964 -4.330382
v -1.796650 -0.169964 -4.330382
f 281 290 282
f 281 289 290
f 282 291 283
f 282 290 291
f 283 292 284
f 283 291 292
f 284 293 285
f 284 292 293
f 285 294 286
f 285 293 294
f 286 295 287
f 286 294 295
f 287 296 288
f 287 295 296
f 288 289 281
f 288 296 289
f 289 298 290
f 289 297 298
f 290 299 291
f 290 298 299
f 291 300 292
f 291 299 300
f 292 301 293
f 292 300 301
f 293 302 294
f 293 301 302
f 294 303 295
f 294 302 303
f 295 304 296
f 295 303 304
f 296 297 289
f 296 304 297
f 297 306 298
f 297 305 306
f 298 307 299
f 298 306 307
f 299 308 300
f 299 307 308
f 300 309 301
f 300 308 309
f 301 310 302
f 301 309 310
f 302 311 303
f 302 310 311
f 303 312 304
f 303 311 312
f 304 305 297
f 304 312 305
f 305 314 306
f 305 313 314
f 306 315 307
f 306 314 315
f 307 316 308
f 307 315 316
f 308 317 309
f 308 316 317
f 309 318 310
f 309 317 318
f 310 319 311
f 310 318 319
f 311 320 312
f 311 319 320
f 312 313 305
f 312 320 313
v -2.974605 0.395499 -3.837636
v -2.974605 0.395499 -3.837636
v -2.974605 0.395499 -3.837636
v -2.974605 0.395499 -3.837636
v -2.974605 0.395499 -3.837636
v -2.974605 0.395499 -3.837636
v -2.974605 0.395499 -3.837636
v -2.974605 0.395499 -3.837636
v -2.626356 0.308949 -3.837636
v -2.728356 0.308949 -4.083885
v -2.974605 0.308949 -4.185885
v -3.220854 0.308949 -4.083885
v -3.322854 0.308949 -3.837636
v -3.220854 0.308949 -3.591387
v -2.974605 0.308949 -3.489387
v -2.728356 0.308949 -3.591387
v -2.482107 0.100000 -3.837636
v -2.626356 0.100000 -4.185885
v -2.974605 0.100000 -4.330134
v -3.322854 0.100000 -4.185885
v -3.467103 0.100000 -3.837636
v -3.322854 0.100000 -3.489387
v -2.974605 0.100000 -3.345138
v -2.626356 0.100000 -3.489387
v -2.626356 -0.108949 -3.837636
v -2.728356 -0.108949 -4.083885
v -2.974605 -0.108949 -4.185885
v -3.220854 -0.108949 -4.083885
v -3.322854 -0.108949 -3.837636
v -3.220854 -0.108949 -3.591387
v -2.974605 -0.108949 -3.489387
v -2.728356 -0.108949 -3.591387
v -2.974605 -0.195499 -3.837636
v -2.974605 -0.195499 -3.837636
v -2.974605 -0.195499 -3.837636
v -2.974605 -0.195499 -3.837636
v -2.974605 -0.195499 -3.837636
v -2.974605 -0.195499 -3.837636
v -2.974605 -0.195499 -3.837636
v -2.974605 -0.195499 -3.837636
f 321 330 322
f 321 329 330
f 322 331 323
f 322 330 331
f 323 332 324
f 323 331 332
f 324 333 325
f 324 332 333
f 325 334 326
f 325 333 334
f 326 335 327
f 326 334 335
f 327 336 328
f 327 335 336
f 328 329 321
f 328 336 329
f 329 338 330
f 329 337 338
f 330 339 331
f 330 338 339
f 331 340 332
f 331 339 340
f 332 341 333
f 332 340 341
f 333 342 334
f 333 341 342
f 334 343 335
f 334 342 343
f 335 344 336
f 335 343 344
f 336 337 329
f 336 344 337
f 337 346 338
f 337 345 346
f 338 347 339
f 338 346 347
f 339 348 340
f 339 347 348
f 340 349 341
f 340 348 349
f 341 350 342
f 341 349 350
f 342 351 343
f 342 350 351
f 343 352 344
f 343 351 352
f 344 345 337
f 344 352 345
f 345 354 346
f 345 353 354
f 346 355 347
f 346 354 355
f 347 356 348
f 347 355 356
f 348 357 349
f 348 356 357
f 349 358 350
f 349 357 358
f 350 359 351
f 350 358 359
f 351 360 352
f 351 359 360
f 352 353 345
f 352 360 353
v -3.819582 0.352948 -2.902184
v -3.819582 0.352948 -2.902184
v -3.819582 0.352948 -2.902184
v -3.819582 0.352948 -2.902184
v -3.819582 0.352948 -2.902184
v -3.819582 0.352948 -2.902184
v -3.819582 0.352948 -2.902184
v -3.819582 0.352948 -2.902184
v -3.521480 0.278861 -2.902184
v -3.608792 0.278861 -3.112974
v -3.819582 0.278861 -3.200287
v -4.030372 0.278861 -3.112974
v -4.117684 0.278861 -2.902184
v -4.030372 0.278861 -2.691394
v -3.819582 0.278861 -2.604082
v -3.608792 0.278861 -2.691394
v -3.398002 0.100000 -2.902184
v -3.521480 0.100000 -3.200287
v -3.819582 0.100000 -3.323765
v -4.117684 0.100000 -3.200287
v -4.241162 0.100000 -2.902184
v -4.117684 0.100000 -2.604082
v -3.819582 0.100000 -2.480604
v -3.521480 0.100000 -2.604082
v -3.521480 -0.078861 -2.902184
v -3.608792 -0.078861 -3.112974
v -3.819582 -0.078861 -3.200287
v -4.030372 -0.078861 -3.112974
v -4.117684 -0.078861 -2.902184
v -4.030372 -0.078861 -2.691394
v -3.819582 -0.078861 -2.604082
v -3.608792 -0.078861 -2.691394
v -3.819582 -0.152948 -2.902184
v -3.819582 -0.152948 -2.902184
v -3.819582 -0.152948 -2.902184
v -3.819582 -0.152948 -2.902184
v -3.819582 -0.152948 -2.902184
v -3.819582 -0.152948 -2.902184
v -3.819582 -0.152948 -2.902184
v -3.819582 -0.152948 -2.902184
f 361 370 362
f 361 369 370
f 362 371 363
f 362 370 371
f 363 372 364
f 363 371 372
f 364 373 365
f 364 372 373
f 365 374 366
f 365 373 374
f 366 375 367
f 366 374 375
f 367 376 368
f 367 375 376
f 368 369 361
f 368 376 369
f 369 378 370
f 369 377 378
f 370 379 371
f 370 378 379
f 371 380 372
f 371 379 380
f 372 381 373
f 372 380 381
f 373 382 374
f 373 381 382
f 374 383 375
f 374 382 383
f 375 384 376
f 375 383 384
f 376 377 369
f 376 384 377
f 377 386 378
f 377 385 386
f 378 387 379
f 378 386 387
f 379 388 380
f 379 387 388
f 380 389 381
f 380 388 389
f 381 390 382
f 381 389 390
f 382 391 383
f 382 390 391
f 383 392 384
f 383 391 392
f 384 385 377
f 384 392 385
f 385 394 386
f 385 393 394
f 386 395 387
f 386 394 395
f 387 396 388
f 387 395 396
f 388 397 389
f 388 396 397
f 389 398 390
f 389 397 398
f 390 399 391
f 390 398 399
f 391 400 392
f 391 399 400
f 392 393 385
f 392 400 393
v -4.443540 0.377128 -1.687695
v -4.443540 0.377128 -1.687695
v -4.443540 0.377128 -1.687695
v -4.443540 0.377128 -1.687695
v -4.443540 0.377128 -1.687695
v -4.443540 0.377128 -1.687695
v -4.443540 0.377128 -1.687695
v -4.443540 0.377128 -1.687695
v -4.116941 0.295959 -1.687695
v -4.212600 0.295959 -1.918635
v -4.443540 0.295959 -2.014293
v -4.674480 0.295959 -1.918635
v -4.770138 0.295959 -1.687695
v -4.674480 0.295959 -1.456755
v -4.443540 0.295959 -1.361096
v -4.212600 0.295959 -1.456755
v -3.981660 0.100000 -1.687695
v -4.116941 0.100000 -2.014293
v -4.443540 0.100000 -2.149575
v -4.770138 0.100000 -2.014293
v -4.905420 0.100000 -1.687695
v -4.770138 0.100000 -1.361096
v -4.443540 0.100000 -1.225815
v -4.116941 0.100000 -1.361096
v -4.116941 -0.095959 -1.687695
v -4.212600 -0.095959 -1.918635
v -4.443540 -0.095959 -2.014293
v -4.674480 -0.095959 -1.918635
v -4.770138 -0.095959 -1.687695
v -4.674480 -0.095959 -1.456755
v -4.443540 -0.095959 -1.361096
v -4.212600 -0.095959 -1.456755
v -4.443540 -0.177128 -1.687695
v -4.443540 -0.177128 -1.687695
v -4.443540 -0.177128 -1.687695
v -4.443540 -0.177128 -1.687695
v -4.443540 -0.177128 -1.687695
v -4.443540 -0.177128 -1.687695
v -4.443540 -0.177128 -1.687695
v -4.443540 -0.177128 -1.687695
f 401 410 402
f 401 409 410
f 402 411 403
f 402 410 411
f 403 412 404
f 403 411 412
f 404 413 405
f 404 412 413
f 405 414 406
f 405 413 414
f 406 415 407
f 406 414 415
f 407 416 408
f 407 415 416
f 408 409 401
f 408 416 409
f 409 418 410
f 409 417 418
f 410 419 411
f 410 418 419
f 411 420 412
f 411 419 420
f 412 421 413
f 412 420 421
f 413 422 414
f 413 421 422
f 414 423 415
f 414 422 423
f 415 424 416
f 415 423 424
f 416 417 409
f 416 424 417
f 417 426 418
f 417 425 426
f 418 427 419
f 418 426 427
f 419 428 420
f 419 427 428
f 420 429 421
f 420 428 429
f 421 430 422
f 421 429 430
f 422 431 423
f 422 430 431
f 423 432 424
f 423 431 432
f 424 425 417
f 424 432 425
f 425 434 426
f 425 433 434
f 426 435 427
f 426 434 435
f 427 436 428
f 427 435 436
f 428 437 429
f 428 436 437
f 429 438 430
f 429 437 438
f 430 439 431
f 430 438 439
f 431 440 432
f 431 439 440
f 432 433 425
f 432 440 433
v -4.756165 0.299034 -0.055653
v -4.756165 0.299034 -0.055653
v -4.756165 0.299034 -0.055653
v -4.756165 0.299034 -0.055653
v -4.756165 0.299034 -0.055653
v -4.756165 0.299034 -0.055653
v -4.756165 0.299034 -0.055653
v -4.756165 0.299034 -0.055653
v -4.521601 0.240738 -0.055653
v -4.590303 0.240738 -0.221514
v -4.756165 0.240738 -0.290216
v -4.922026 0.240738 -0.221514
v -4.990728 0.240738 -0.055653
v -4.922026 0.240738 0.110209
v -4.756165 0.240738 0.178911
v -4.590303 0.240738 0.110209
v -4.424442 0.100000 -0.055653
v -4.521601 0.100000 -0.290216
v -4.756165 0.100000 -0.387376
v -4.990728 0.100000 -0.290216
v -5.087888 0.100000 -0.055653
v -4.990728 0.100000 0.178911
v -4.756165 0.100000 0.276070
v -4.521601 0.100000 0.178911
v -4.521601 -0.040738 -0.055653
v -4.590303 -0.040738 -0.221514
v -4.756165 -0.040738 -0.290216
v -4.922026 -0.040738 -0.221514
v -4.990728 -0.040738 -0.055653
v -4.922026 -0.040738 0.110209
v -4.756165 -0.040738 0.178911
v -4.590303 -0.040738 0.110209
v -4.756165 -0.099034 -0.055653
v -4.756165 -0.099034 -0.055653
v -4.756165 -0.099034 -0.055653
v -4.756165 -0.099034 -0.055653
v -4.756165 -0.099034 -0.055653
v -4.756165 -0.099034 -0.055653
v -4.756165 -0.099034 -0.055653
v -4.756165 -0.099034 -0.055653
f 441 450 442
f 441 449 450
f 442 451 443
f 442 450 451
f 443 452 444
f 443 451 452
f 444 453 445
f 444 452 453
f 445 454 446
f 445 453 454
f 446 455 447
f 446 454 455
f 447 456 448
f 447 455 456
f 448 449 441
f 448 456 449
f 449 458 450
f 449 457 458
f 450 459 451
f 450 458 459
f 451 460 452
f 451 459 460
f 452 461 453
f 452 460 461
f 453 462 454
f 453 461 462
f 454 463 455
f 454 462 463
f 455 464 456
f 455 463 464
f 456 457 449
f 456 464 457
f 457 466 458
f 457 465 466
f 458 467 459
f 458 466 467
f 459 468 460
f 459 467 468
f 460 469 461
f 460 468 469
f 461 470 462
f 461 469 470
f 462 471 463
f 462 470 471
f 463 472 464
f 463 471 472
f 464 465 457
f 464 472 465
f 465 474 466
f 465 473 474
f 466 475 467
f 466 474 475
f 467 476 468
f 467 475 476
f 468 477 469
f 468 476 477
f 469 478 470
f 469 477 478
f 470 479 471
f 470 478 479
f 471 480 472
f 471 479 480
f 472 473 465
f 472 480 473
v -4.387004 0.385123 1.588475
v -4.387004 0.385123 1.588475
v -4.387004 0.385123 1.588475
v -4.387004 0.385123 1.588475
v -4.387004 0.385123 1.588475
v -4.387004 0.385123 1.588475
v -4.387004 0.385123 1.588475
v -4.387004 0.385123 1.588475
v -4.050983 0.301612 1.588475
v -4.149401 0.301612 1.350873
v -4.387004 0.301612 1.252455
v -4.624606 0.301612 1.350873
v -4.723024 0.301612 1.588475
v -4.624606 0.301612 1.826078
v -4.387004 0.301612 1.924496
v -4.149401 0.301612 1.826078
v -3.911798 0.100000 1.588475
v -4.050983 0.100000 1.252455
v -4.387004 0.100000 1.113270
v -4.723024 0.100000 1.252455
v -4.862209 0.100000 1.588475
v -4.723024 0.100000 1.924496
v -4.387004 0.100000 2.063680
v -4.050983 0.100000 1.924496
v -4.050983 -0.101612 1.588475
v -4.149401 -0.101612 1.350873
v -4.387004 -0.101612 1.252455
v -4.624606 -0.101612 1.350873
v -4.723024 -0.101612 1.588475
v -4.624606 -0.101612 1.826078
v -4.387004 -0.101612 1.924496
v -4.149401 -0.101612 1.826078
v -4.387004 -0.185123 1.588475
v -4.387004 -0.185123 1.588475
v -4.387004 -0.185123 1.588475
v -4.387004 -0.185123 1.588475
v -4.387004 -0.185123 1.588475
v -4.387004 -0.185123 1.588475
v -4.387004 -0.185123 1.588475
v -4.387004 -0.185123 1.588475
f 481 490 482
f 481 489 490
f 482 491 483
f 482 490 491
f 483 492 484
f 483 491 492
f 484 493 485
f 484 492 493
f 485 494 486
f 485 493 494
f 486 495 487
f 486 494 495
f 487 496 488
f 487 495 496
f 488 489 481
f 488 496 489
f 489 498 490
f 489 497 498
f 490 499 491
f 490 498 499
f 491 500 492
f 491 499 500
f 492 501 493
f 492 500 501
f 493 502 494
f 493 501 502
f 494 503 495
f 494 502 503
f 495 504 496
f 495 503 504
f 496 497 489
f 496 504 497
f 497 506 498
f 497 505 506
f 498 507 499
f 498 506 507
f 499 508 500
f 499 507 508
f 500 509 501
f 500 508 509
f 501 510 502
f 501 509 510
f 502 511 503
f 502 510 511
f 503 512 504
f 503 511 512
f 504 505 497
f 504 512 505
f 505 514 506
f 505 513 514
f 506 515 507
f 506 514 515
f 507 516 508
f 507 515 516
f 508 517 509
f 508 516 517
f 509 518 510
f 509 517 518
f 510 519 511
f 510 518 519
f 511 520 512
f 511 519 520
f 512 513 505
f 512 520 513
v -3.702406 0.277963 2.676573
v -3.702406 0.277963 2.676573
v -3.702406 0.277963 2.676573
v -3.702406 0.277963 2.676573
v -3.702406 0.277963 2.676573
v -3.702406 0.277963 2.676573
v -3.702406 0.277963 2.676573
v -3.702406 0.277963 2.676573
v -3.492675 0.225839 2.676573
v -3.554104 0.225839 2.528271
v -3.702406 0.225839 2.466842
v -3.850709 0.225839 2.528271
v -3.912137 0.225839 2.676573
v -3.850709 0.225839 2.824876
v -3.702406 0.225839 2.886305
v -3.554104 0.225839 2.824876
v -3.405801 0.100000 2.676573
v -3.492675 0.100000 2.466842
v -3.702406 0.100000 2.379969
v -3.912137 0.100000 2.466842
v -3.999011 0.100000 2.676573
v -3.912137 0.100000 2.886305
v -3.702406 0.100000 2.973178
v -3.492675 0.100000 2.886305
v -3.492675 -0.025839 2.676573
v -3.554104 -0.025839 2.528271
v -3.702406 -0.025839 2.466842
v -3.850709 -0.025839 2.528271
v -3.912137 -0.025839 2.676573
v -3.850709 -0.025839 2.824876
v -3.702406 -0.025839 2.886305
v -3.554104 -0.025839 2.824876
v -3.702406 -0.077963 2.676573
v -3.702406 -0.077963 2.676573
v -3.702406 -0.077963 2.676573
v -3.702406 -0.077963 2.676573
v -3.702406 -0.077963 2.676573
v -3.702406 -0.077963 2.676573
v -3.702406 -0.077963 2.676573
v -3.702406 -0.077963 2.676573
f 521 530 522
f 521 529 530
f 522 531 523
f 522 530 531
f 523 532 524
f 523 531 532
f 524 533 525
f 524 532 533
f 525 534 526
f 525 533 534
f 526 535 527
f 526 534 535
f 527 536 528
f 527 535 536
f 528 529 521
f 528 536 529
f 529 538 530
f 529 537 538
f 530 539 531
f 530 538 539
f 531 540 532
f 531 539 540
f 532 541 533
f 532 540 541
f 533 542 534
f 533 541 542
f 534 543 535
f 534 542 543
f 535 544 536
f 535 543 544
f 536 537 529
f 536 544 537
f 537 546 538
f 537 545 546
f 538 547 539
f 538 546 547
f 539 548 540
f 539 547 548
f 540 549 541
f 540 548 549
f 541 550 542
f 541 549 550
f 542 551 543
f 542 550 551
f 543 552 544
f 543 551 552
f 544 545 537
f 544 552 545
f 545 554 546
f 545 553 554
f 546 555 547
f 546 554 555
f 547 556 548
f 547 555 556
f 548 557 549
f 548 556 557
f 549 558 550
f 549 557 558
f 550 559 551
f 550 558 559
f 551 560 552
f 551 559 560
f 552 553 545
f 552 560 553
v -3.001080 0.349270 3.455684
v -3.001080 0.349270 3.455684
v -3.001080 0.349270 3.455684
v -3.001080 0.349270 3.455684
v -3.001080 0.349270 3.455684
v -3.001080 0.349270 3.455684
v -3.001080 0.349270 3.455684
v -3.001080 0.349270 3.455684
v -2.707312 0.276260 3.455684
v -2.793355 0.276260 3.247960
v -3.001080 0.276260 3.161917
v -3.208804 0.276260 3.247960
v -3.294847 0.276260 3.455684
v -3.208804 0.276260 3.663409
v -3.001080 0.276260 3.749452
v -2.793355 0.276260 3.663409
v -2.585630 0.100000 3.455684
v -2.707312 0.100000 3.161917
v -3.001080 0.100000 3.040235
v -3.294847 0.100000 3.161917
v -3.416529 0.100000 3.455684
v -3.294847 0.100000 3.749452
v -3.001080 0.100000 3.871134
v -2.707312 0.100000 3.749452
v -2.707312 -0.076260 3.455684
v -2.793355 -0.076260 3.247960
v -3.001080 -0.076260 3.161917
v -3.208804 -0.076260 3.247960
v -3.294847 -0.076260 3.455684
v -3.208804 -0.076260 3.663409
v -3.001080 -0.076260 3.749452
v -2.793355 -0.076260 3.663409
v -3.001080 -0.149270 3.455684
v -3.001080 -0.149270 3.455684
v -3.001080 -0.149270 3.455684
v -3.001080 -0.149270 3.455684
v -3.001080 -0.149270 3.455684
v -3.001080 -0.149270 3.455684
v -3.001080 -0.149270 3.455684
v -3.001080 -0.149270 3.455684
f 561 570 562
f 561 569 570
f 562 571 563
f 562 570 571
f 563 572 564
f 563 571 572
f 564 573 565
f 564 572 573
f 565 574 566
f 565 573 574
f 566 575 567
f 566 574 575
f 567 576 568
f 567 575 576
f 568 569 561
f 568 576 569
f 569 578 570
f 569 577 578
f 570 579 571
f 570 578 579
f 571 580 572
f 571 579 580
f 572 581 573
f 572 580 581
f 573 582 574
f 573 581 582
f 574 583 575
f 574 582 583
f 575 584 576
f 575 583 584
f 576 577 569
f 576 584 577
f 577 586 578
f 577 585 586
f 578 587 579
f 578 586 587
f 579 588 580
f 579 587 588
f 580 589 581
f 580 588 589
f 581 590 582
f 581 589 590
f 582 591 583
f 582 590 591
f 583 592 584
f 583 591 592
f 584 585 577
f 584 592 585
f 585 594 586
f 585 593 594
f 586 595 587
f 586 594 595
f 587 596 588
f 587 595 596
f 588 597 589
f 588 596 597
f 589 598 590
f 589 597 598
f 590 599 591
f 590 598 599
f 591 600 592
f 591 599 600
f 592 593 585
f 592 600 593
v -1.964337 0.277903 4.368420
v -1.964337 0.277903 4.368420
v -1.964337 0.277903 4.368420
v -1.964337 0.277903 4.368420
v -1.964337 0.277903 4.368420
v -1.964337 0.277903 4.368420
v -1.964337 0.277903 4.368420
v -1.964337 0.277903 4.368420
v -1.754676 0.225796 4.368420
v -1.816085 0.225796 4.220167
v -1.964337 0.225796 4.158759
v -2.112589 0.225796 4.220167
v -2.173997 0.225796 4.368420
v -2.112589 0.225796 4.516672
v -1.964337 0.225796 4.578080
v -1.816085 0.225796 4.516672
v -1.667832 0.100000 4.368420
v -1.754676 0.100000 4.158759
v -1.964337 0.100000 4.071915
v -2.173997 0.100000 4.158759
v -2.260841 0.100000 4.368420
v -2.173997 0.100000 4.578080
v -1.964337 0.100000 4.664924
v -1.754676 0.100000 4.578080
v -1.754676 -0.025796 4.368420
v -1.816085 -0.025796 4.220167
v -1.964337 -0.025796 4.158759
v -2.112589 -0.025796 4.220167
v -2.173997 -0.025796 4.368420
v -2.112589 -0.025796 4.516672
v -1.964337 -0.025796 4.578080
v -1.816085 -0.025796 4.516672
v -1.964337 -0.077903 4.368420
v -1.964337 -0.077903 4.368420
v -1.964337 -0.077903 4.368420
v -1.964337 -0.077903 4.368420
v -1.964337 -0.077903 4.368420
v -1.964337 -0.077903 4.368420
v -1.964337 -0.077903 4.368420
v -1.964337 -0.077903 4.368420
f 601 610 602
f 601 609 610
f 602 611 603
f 602 610 611
f 603 612 604
f 603 611 612
f 604 613 605
f 604 612 613
f 605 614 606
f 605 613 614
f 606 615 607
f 606 614 615
f 607 616 608
f 607 615 616
f 608 609 601
f 608 616 609
f 609 618 610
f 609 617 618
f 610 619 611
f 610 618 619
f 611 620 612
f 611 619 620
f 612 621 613
f 612 620 621
f 613 622 614
f 613 621 622
f 614 623 615
f 614 622 623
f 615 624 616
f 615 623 624
f 616 617 609
f 616 624 617
f 617 626 618
f 617 625 626
f 618 627 619
f 618 626 627
f 619 628 620
f 619 627 628
f 620 629 621
f 620 628 629
f 621 630 622
f 621 629 630
f 622 631 623
f 622 630 631
f 623 632 624
f 623 631 632
f 624 625 617
f 624 632 625
f 625 634 626
f 625 633 634
f 626 635 627
f 626 634 635
f 627 636 628
f 627 635 636
f 628 637 629
f 628 636 637
f 629 638 630
f 629 637 638
f 630 639 631
f 630 638 639
f 631 640 632
f 631 639 640
f 632 633 625
f 632 640 633
v -0.469642 0.323909 4.780074
v -0.469642 0.323909 4.780074
v -0.469642 0.323909 4.780074
v -0.469642 0.323909 4.780074
v -0.469642 0.323909 4.780074
v -0.469642 0.323909 4.780074
v -0.469642 0.323909 4.780074
v -0.469642 0.323909 4.780074
v -0.205762 0.258328 4.780074
v -0.283050 0.258328 4.593483
v -0.469642 0.258328 4.516195
v -0.656233 0.258328 4.593483
v -0.733522 0.258328 4.780074
v -0.656233 0.258328 4.966666
v -0.469642 0.258328 5.043954
v -0.283050 0.258328 4.966666
v -0.096459 0.100000 4.780074
v -0.205762 0.100000 4.516195
v -0.469642 0.100000 4.406892
v -0.733522 0.100000 4.516195
v -0.842824 0.100000 4.780074
v -0.733522 0.100000 5.043954
v -0.469642 0.100000 5.153257
v -0.205762 0.100000 5.043954
v -0.205762 -0.058328 4.780074
v -0.283050 -0.058328 4.593483
v -0.469642 -0.058328 4.516195
v -0.656233 -0.058328 4.593483
v -0.733522 -0.058328 4.780074
v -0.656233 -0.058328 4.966666
v -0.469642 -0.058328 5.043954
v -0.283050 -0.058328 4.966666
v -0.469642 -0.123909 4.780074
v -0.469642 -0.123909 4.780074
v -0.469642 -0.123909 4.780074
v -0.469642 -0.123909 4.780074
v -0.469642 -0.123909 4.780074
v -0.469642 -0.123909 4.780074
v -0.469642 -0.123909 4.780074
v -0.469642 -0.123909 4.780074
f 641 650 642
f 641 649 650
f 642 651 643
f 642 650 651
f 643 652 644
f 643 651 652
f 644 653 645
f 644 652 653
f 645 654 646
f 645 653 654
f 646 655 647
f 646 654 655
f 647 656 648
f 647 655 656
f 648 649 641
f 648 656 649
f 649 658 650
f 649 657 658
f 650 659 651
f 650 658 659
f 651 660 652
f 651 659 660
f 652 661 653
f 652 660 661
f 653 662 654
f 653 661 662
f 654 663 655
f 654 662 663
f 655 664 656
f 655 663 664
f 656 657 649
f 656 664 657
f 657 666 658
f 657 665 666
f 658 667 659
f 658 666 667
f 659 668 660
f 659 667 668
f 660 669 661
f 660 668 669
f 661 670 662
f 661 669 670
f 662 671 663
f 662 670 671
f 663 672 664
f 663 671 672
f 664 665 657
f 664 672 665
f 665 674 666
f 665 673 674
f 666 675 667
f 666 674 675
f 667 676 668
f 667 675 676
f 668 677 669
f 668 676 677
f 669 678 670
f 669 677 678
f 670 679 671
f 670 678 679
f 671 680 672
f 671 679 680
f 672 673 665
f 672 680 673
v 0.317532 0.323602 4.503637
v 0.317532 0.323602 4.503637
v 0.317532 0.323602 4.503637
v 0.317532 0.323602 4.503637
v 0.317532 0.323602 4.503637
v 0.317532 0.323602 4.503637
v 0.317532 0.323602 4.503637
v 0.317532 0.323602 4.503637
v 0.581050 0.258111 4.503637
v 0.503867 0.258111 4.317301
v 0.317532 0.258111 4.240119
v 0.131197 0.258111 4.317301
v 0.054014 0.258111 4.503637
v 0.131197 0.258111 4.689972
v 0.317532 0.258111 4.767155
v 0.503867 0.258111 4.689972
v 0.690203 0.100000 4.503637
v 0.581050 0.100000 4.240119
v 0.317532 0.100000 4.130966
v 0.054014 0.100000 4.240119
v -0.055139 0.100000 4.503637
v 0.054014 0.100000 4.767155
v 0.317532 0.100000 4.876307
v 0.581050 0.100000 4.767155
v 0.581050 -0.058111 4.503637
v 0.503867 -0.058111 4.317301
v 0.317532 -0.058111 4.240119
v 0.131197 -0.058111 4.317301
v 0.054014 -0.058111 4.503637
v 0.131197 -0.058111 4.689972
v 0.317532 -0.058111 4.767155
v 0.503867 -0.058111 4.689972
v 0.317532 -0.123602 4.503637
v 0.317532 -0.123602 4.503637
v 0.317532 -0.123602 4.503637
v 0.317532 -0.123602 4.503637
v 0.317532 -0.123602 4.503637
v 0.317532 -0.123602 4.503637
v 0.317532 -0.123602 4.503637
v 0.317532 -0.123602 4.503637
f 681 690 682
f 681 689 690
f 682 691 683
f 682 690 691
f 683 692 684
f 683 691 692
f 684 693 685
f 684 692 693
f 685 694 686
f 685 693 694
f 686 695 687
f 686 694 695
f 687 696 688
f 687 695 696
f 688 689 681
f 688 696 689
f 689 698 690
f 689 697 698
f 690 699 691
f 690 698 699
f 691 700 692
f 691 699 700
f 692 701 693
f 692 700 701
f 693 702 694
f 693 701 702
f 694 703 695
f 694 702 703
f 695 704 696
f 695 703 704
f 696 697 689
f 696 704 697
f 697 706 698
f 697 705 706
f 698 707 699
f 698 706 707
f 699 708 700
f 699 707 708
f 700 709 701
f 700 708 709
f 701 710 702
f 701 709 710
f 702 711 703
f 702 710 711
f 703 712 704
f 703 711 712
f 704 705 697
f 704 712 705
f 705 714 706
f 705 713 714
f 706 715 707
f 706 714 715
f 707 716 708
f 707 715 716
f 708 717 709
f 708 716 717
f 709 718 710
f 709 717 718
f 710 719 711
f 710 718 719
f 711 720 712
f 711 719 720
f 712 713 705
f 712 720 713
v 1.604630 0.320538 4.242389
v 1.604630 0.320538 4.242389
v 1.604630 0.320538 4.242389
v 1.604630 0.320538 4.242389
v 1.604630 0.320538 4.242389
v 1.604630 0.320538 4.242389
v 1.604630 0.320538 4.242389
v 1.604630 0.320538 4.242389
v 1.864536 0.255944 4.242389
v 1.788411 0.255944 4.058608
v 1.604630 0.255944 3.982483
v 1.420848 0.255944 4.058608
v 1.344724 0.255944 4.242389
v 1.420848 0.255944 4.426170
v 1.604630 0.255944 4.502295
v 1.788411 0.255944 4.426170
v 1.972192 0.100000 4.242389
v 1.864536 0.100000 3.982483
v 1.604630 0.100000 3.874826
v 1.344724 0.100000 3.982483
v 1.237067 0.100000 4.242389
v 1.344724 0.100000 4.502295
v 1.604630 0.100000 4.609952
v 1.864536 0.100000 4.502295
v 1.864536 -0.055944 4.242389
v 1.788411 -0.055944 4.058608
v 1.604630 -0.055944 3.982483
v 1.420848 -0.055944 4.058608
v 1.344724 -0.055944 4.242389
v 1.420848 -0.055944 4.426170
v 1.604630 -0.055944 4.502295
v 1.788411 -0.055944 4.426170
v 1.604630 -0.120538 4.242389
v 1.604630 -0.120538 4.242389
v 1.604630 -0.120538 4.242389
v 1.604630 -0.120538 4.242389
v 1.604630 -0.120538 4.242389
v 1.604630 -0.120538 4.242389
v 1.604630 -0.120538 4.242389
v 1.604630 -0.120538 4.242389
f 721 730 722
f 721 729 730
f 722 731 723
f 722 730 731
f 723 732 724
f 723 731 732
f 724 733 725
f 724 732 733
f 725 734 726
f 725 733 734
f 726 735 727
f 726 734 735
f 727 736 728
f 727 735 736
f 728 729 721
f 728 736 729
f 729 738 730
f 729 737 738
f 730 739 731
f 730 738 739
f 731 740 732
f 731 739 740
f 732 741 733
f 732 740 741
f 733 742 734
f 733 741 742
f 734 743 735
f 734 742 743
f 735 744 736
f 735 743 744
f 736 737 729
f 736 744 737
f 737 746 738
f 737 745 746
f 738 747 739
f 738 746 747
f 739 748 740
f 739 747 748
f 740 749 741
f 740 748 749
f 741 750 742
f 741 749 750
f 742 751 743
f 742 750 751
f 743 752 744
f 743 751 752
f 744 745 737
f 744 752 745
f 745 754 746
f 745 753 754
f 746 755 747
f 746 754 755
f 747 756 748
f 747 755 756
f 748 757 749
f 748 756 757
f 749 758 750
f 749 757 758
f 750 759 751
f 750 758 759
f 751 760 752
f 751 759 760
f 752 753 745
f 752 760 753
v 3.209590 0.377246 3.351776
v 3.209590 0.377246 3.351776
v 3.209590 0.377246 3.351776
v 3.209590 0.377246 3.351776
v 3.209590 0.377246 3.351776
v 3.209590 0.377246 3.351776
v 3.209590 0.377246 3.351776
v 3.209590 0.377246 3.351776
v 3.536328 0.296043 3.351776
v 3.440629 0.296043 3.120737
v 3.209590 0.296043 3.025038
v 2.978552 0.296043 3.120737
v 2.882853 0.296043 3.351776
v 2.978552 0.296043 3.582814
v 3.209590 0.296043 3.678513
v 3.440629 0.296043 3.582814
v 3.671667 0.100000 3.351776
v 3.536328 0.100000 3.025038
v 3.209590 0.100000 2.889699
v 2.882853 0.100000 3.025038
v 2.747514 0.100000 3.351776
v 2.882853 0.100000 3.678513
v 3.209590 0.100000 3.813852
v 3.536328 0.100000 3.678513
v 3.536328 -0.096043 3.351776
v 3.440629 -0.096043 3.120737
v 3.209590 -0.096043 3.025038
v 2.978552 -0.096043 3.120737
v 2.882853 -0.096043 3.351776
v 2.978552 -0.096043 3.582814
v 3.209590 -0.096043 3.678513
v 3.440629 -0.096043 3.582814
v 3.209590 -0.177246 3.351776
v 3.209590 -0.177246 3.351776
v 3.209590 -0.177246 3.351776
v 3.209590 -0.177246 3.351776
v 3.209590 -0.177246 3.351776
v 3.209590 -0.177246 3.351776
v 3.209590 -0.177246 3.351776
v 3.209590 -0.177246 3.351776
f 761 770 762
f 761 769 770
f 762 771 763
f 762 770 771
f 763 772 764
f 763 771 772
f 764 773 765
f 764 772 773
f 765 774 766
f 765 773 774
f 766 775 767
f 766 774 775
f 767 776 768
f 767 775 776
f 768 769 761
f 768 776 769
f 769 778 770
f 769 777 778
f 770 779 771
f 770 778 779
f 771 780 772
f 771 779 780
f 772 781 773
f 772 780 781
f 773 782 774
f 773 781 782
f 774 783 775
f 774 782 783
f 775 784 776
f 775 783 784
f 776 777 769
f 776 784 777
f 777 786 778
f 777 785 786
f 778 787 779
f 778 786 787
f 779 788 780
f 779 787 788
f 780 789 781
f 780 788 789
f 781 790 782
f 781 789 790
f 782 791 783
f 782 790 791
f 783 792 784
f 783 791 792
f 784 785 777
f 784 792 785
f 785 794 786
f 785 793 794
f 786 795 787
f 786 794 795
f 787 796 788
f 787 795 796
f 788 797 789
f 788 796 797
f 789 798 790
f 789 797 798
f 790 799 791
f 790 798 799
f 791 800 792
f 791 799 800
f 792 793 785
f 792 800 793
v 3.957834 0.274595 2.246204
v 3.957834 0.274595 2.246204
v 3.957834 0.274595 2.246204
v 3.957834 0.274595 2.246204
v 3.957834 0.274595 2.246204
v 3.957834 0.274595 2.246204
v 3.957834 0.274595 2.246204
v 3.957834 0.274595 2.246204
v 4.163596 0.223457 2.246204
v 4.103330 0.223457 2.100708
v 3.957834 0.223457 2.040442
v 3.812338 0.223457 2.100708
v 3.752072 0.223457 2.246204
v 3.812338 0.223457 2.391699
v 3.957834 0.223457 2.451965
v 4.103330 0.223457 2.391699
v 4.248825 0.100000 2.246204
v 4.163596 0.100000 2.040442
v 3.957834 0.100000 1.955212
v 3.752072 0.100000 2.040442
v 3.666843 0.100000 2.246204
v 3.752072 0.100000 2.451965
v 3.957834 0.100000 2.537195
v 4.163596 0.100000 2.451965
v 4.163596 -0.023457 2.246204
v 4.103330 -0.023457 2.100708
v 3.957834 -0.023457 2.040442
v 3.812338 -0.023457 2.100708
v 3.752072 -0.023457 2.246204
v 3.812338 -0.023457 2.391699
v 3.957834 -0.023457 2.451965
v 4.103330 -0.023457 2.391699
v 3.957834 -0.074595 2.246204
v 3.957834 -0.074595 2.246204
v 3.957834 -0.074595 2.246204
v 3.957834 -0.074595 2.246204
v 3.957834 -0.074595 2.246204
v 3.957834 -0.074595 2.246204
v 3.957834 -0.074595 2.246204
v 3.957834 -0.074595 2.246204
f 801 810 802
f 801 809 810
f 802 811 803
f 802 810 811
f 803 812 804
f 803 811 812
f 804 813 805
f 804 812 813
f 805 814 806
f 805 813 814
f 806 815 807
f 806 814 815
f 807 816 808
f 807 815 816
f 808 809 801
f 808 816 809
f 809 818 810
f 809 817 818
f 810 819 811
f 810 818 819
f 811 820 812
f 811 819 820
f 812 821 813
f 812 820 821
f 813 822 814
f 813 821 822
f 814 823 815
f 814 822 823
f 815 824 816
f 815 823 824
f 816 817 809
f 816 824 817
f 817 826 818
f 817 825 826
f 818 827 819
f 818 826 827
f 819 828 820
f 819 827 828
f 820 829 821
f 820 828 829
f 821 830 822
f 821 829 830
f 822 831 823
f 822 830 831
f 823 832 824
f 823 831 832
f 824 825 817
f 824 832 825
f 825 834 826
f 825 833 834
f 826 835 827
f 826 834 835
f 827 836 828
f 827 835 836
f 828 837 829
f 828 836 837
f 829 838 830
f 829 837 838
f 830 839 831
f 830 838 839
f 831 840 832
f 831 839 840
f 832 833 825
f 832 840 833
v 4.586927 0.268265 1.133220
v 4.586927 0.268265 1.133220
v 4.586927 0.268265 1.133220
v 4.586927 0.268265 1.133220
v 4.586927 0.268265 1.133220
v 4.586927 0.268265 1.133220
v 4.586927 0.268265 1.133220
v 4.586927 0.268265 1.133220
v 4.785229 0.218981 1.133220
v 4.727148 0.218981 0.992999
v 4.586927 0.218981 0.934918
v 4.446706 0.218981 0.992999
v 4.388625 0.218981 1.133220
v 4.446706 0.218981 1.273441
v 4.586927 0.218981 1.331523
v 4.727148 0.218981 1.273441
v 4.867369 0.100000 1.133220
v 4.785229 0.100000 0.934918
v 4.586927 0.100000 0.852779
v 4.388625 0.100000 0.934918
v 4.306485 0.100000 1.133220
v 4.388625 0.100000 1.331523
v 4.586927 0.100000 1.413662
v 4.785229 0.100000 1.331523
v 4.785229 -0.018981 1.133220
v 4.727148 -0.018981 0.992999
v 4.586927 -0.018981 0.934918
v 4.446706 -0.018981 0.992999
v 4.388625 -0.018981 1.133220
v 4.446706 -0.018981 1.273441
v 4.586927 -0.018981 1.331523
v 4.727148 -0.018981 1.273441
v 4.586927 -0.068265 1.133220
v 4.586927 -0.068265 1.133220
v 4.586927 -0.068265 1.133220
v 4.586927 -0.068265 1.133220
v 4.586927 -0.068265 1.133220
v 4.586927 -0.068265 1.133220
v 4.586927 -0.068265 1.133220
v 4.586927 -0.068265 1.133220
f 841 850 842
f 841 849 850
f 842 851 843
f 842 850 851
f 843 852 844
f 843 851 852
f 844 853 845
f 844 852 853
f 845 854 846
f 845 853 854
f 846 855 847
f 846 854 855
f 847 856 848
f 847 855 856
f 848 849 841
f 848 856 849
f 849 858 850
f 849 857 858
f 850 859 851
f 850 858 859
f 851 860 852
f 851 859 860
f 852 861 853
f 852 860 861
f 853 862 854
f 853 861 862
f 854 863 855
f 854 862 863
f 855 864 856
f 855 863 864
f 856 857 849
f 856 864 857
f 857 866 858
f 857 865 866
f 858 867 859
f 858 866 867
f 859 868 860
f 859 867 868
f 860 869 861
f 860 868 869
f 861 870 862
f 861 869 870
f 862 871 863
f 862 870 871
f 863 872 864
f 863 871 872
f 864 865 857
f 864 872 865
f 865 874 866
f 865 873 874
f 866 875 867
f 866 874 875
f 867 876 868
f 867 875 876
f 868 877 869
f 868 876 877
f 869 878 870
f 869 877 878
f 870 879 871
f 870 878 879
f 871 880 872
f 871 879 880
f 872 873 865
f 872 880 873
