o mesh
v 0.000000 0.000294 0.010996 0.200 0.440 0.170
v 0.009523 0.000386 0.005492 0.200 0.440 0.170
v 0.009523 0.000092 -0.005504 0.200 0.440 0.170
v 0.000000 -0.000294 -0.010996 0.200 0.440 0.170
v -0.009523 -0.000386 -0.005492 0.200 0.440 0.170
v -0.009523 -0.000092 0.005504 0.200 0.440 0.170
v -0.013884 0.552128 -0.006762 0.200 0.440 0.170
v -0.006958 0.552195 -0.010766 0.200 0.440 0.170
v -0.006958 0.551982 -0.018763 0.200 0.440 0.170
v -0.013884 0.551701 -0.022757 0.200 0.440 0.170
v -0.020810 0.551633 -0.018753 0.200 0.440 0.170
v -0.020810 0.551847 -0.010756 0.200 0.440 0.170
f 1 2 8
f 1 8 7
f 2 3 9
f 2 9 8
f 3 4 10
f 3 10 9
f 4 5 11
f 4 11 10
f 5 6 12
f 5 12 11
f 6 1 7
f 6 7 12
v -0.013884 0.563914 0.060464 0.966 0.485 0.299
v -0.007615 0.563134 0.056892 0.966 0.485 0.299
v -0.002079 0.562225 0.052192 0.966 0.485 0.299
v 0.002815 0.561447 0.047563 0.966 0.485 0.299
v 0.007241 0.560843 0.043283 0.966 0.485 0.299
v 0.011377 0.560414 0.039412 0.966 0.485 0.299
v 0.015380 0.560150 0.035928 0.966 0.485 0.299
v 0.019395 0.560043 0.032768 0.966 0.485 0.299
v 0.023550 0.560089 0.029853 0.966 0.485 0.299
v 0.027966 0.560289 0.027091 0.966 0.485 0.299
v 0.032751 0.560651 0.024372 0.966 0.485 0.299
v 0.037992 0.561184 0.021565 0.966 0.485 0.299
v 0.043725 0.561894 0.018501 0.966 0.485 0.299
v 0.049850 0.562761 0.014960 0.966 0.485 0.299
v 0.055832 0.563668 0.010615 0.966 0.485 0.299
v 0.057089 0.563499 0.004258 0.966 0.485 0.299
v 0.054589 0.562578 -0.002686 0.966 0.485 0.299
v 0.051693 0.561738 -0.009022 0.966 0.485 0.299
v 0.048894 0.561063 -0.014759 0.966 0.485 0.299
v 0.046365 0.560565 -0.020031 0.966 0.485 0.299
v 0.044157 0.560236 -0.024994 0.966 0.485 0.299
v 0.042271 0.560067 -0.029806 0.966 0.485 0.299
v 0.040678 0.560052 -0.034618 0.966 0.485 0.299
v 0.039332 0.560190 -0.039575 0.966 0.485 0.299
v 0.038173 0.560486 -0.044815 0.966 0.485 0.299
v 0.037114 0.560950 -0.050469 0.966 0.485 0.299
v 0.036031 0.561589 -0.056644 0.966 0.485 0.299
v 0.034728 0.562399 -0.063372 0.966 0.485 0.299
v 0.032856 0.563319 -0.070462 0.966 0.485 0.299
v 0.029027 0.563816 -0.076043 0.966 0.485 0.299
v 0.021678 0.562947 -0.076355 0.966 0.485 0.299
v 0.014533 0.562056 -0.075701 0.966 0.485 0.299
v 0.007974 0.561312 -0.074815 0.966 0.485 0.299
v 0.001983 0.560744 -0.073978 0.966 0.485 0.299
v -0.003558 0.560348 -0.073320 0.966 0.485 0.299
v -0.008797 0.560116 -0.072906 0.966 0.485 0.299
v -0.013884 0.560040 -0.072765 0.966 0.485 0.299
v -0.018971 0.560116 -0.072906 0.966 0.485 0.299
v -0.024210 0.560348 -0.073320 0.966 0.485 0.299
v -0.029752 0.560744 -0.073978 0.966 0.485 0.299
v -0.035743 0.561312 -0.074815 0.966 0.485 0.299
v -0.042302 0.562056 -0.075701 0.966 0.485 0.299
v -0.049446 0.562947 -0.076355 0.966 0.485 0.299
v -0.056795 0.563816 -0.076043 0.966 0.485 0.299
v -0.060624 0.563319 -0.070462 0.966 0.485 0.299
v -0.062496 0.562399 -0.063372 0.966 0.485 0.299
v -0.063800 0.561589 -0.056644 0.966 0.485 0.299
v -0.064882 0.560950 -0.050469 0.966 0.485 0.299
v -0.065941 0.560486 -0.044815 0.966 0.485 0.299
v -0.067101 0.560190 -0.039575 0.966 0.485 0.299
v -0.068446 0.560052 -0.034618 0.966 0.485 0.299
v -0.070039 0.560067 -0.029806 0.966 0.485 0.299
v -0.071926 0.560236 -0.024994 0.966 0.485 0.299
v -0.074133 0.560565 -0.020031 0.966 0.485 0.299
v -0.076662 0.561063 -0.014759 0.966 0.485 0.299
v -0.079461 0.561738 -0.009022 0.966 0.485 0.299
v -0.082357 0.562578 -0.002686 0.966 0.485 0.299
v -0.084858 0.563499 0.004258 0.966 0.485 0.299
v -0.083600 0.563668 0.010615 0.966 0.485 0.299
v -0.077619 0.562761 0.014960 0.966 0.485 0.299
v -0.071494 0.561894 0.018501 0.966 0.485 0.299
v -0.065760 0.561184 0.021565 0.966 0.485 0.299
v -0.060519 0.560651 0.024372 0.966 0.485 0.299
v -0.055735 0.560289 0.027091 0.966 0.485 0.299
v -0.051319 0.560089 0.029853 0.966 0.485 0.299
v -0.047163 0.560043 0.032768 0.966 0.485 0.299
v -0.043148 0.560150 0.035928 0.966 0.485 0.299
v -0.039145 0.560414 0.039412 0.966 0.485 0.299
v -0.035010 0.560843 0.043283 0.966 0.485 0.299
v -0.030583 0.561447 0.047563 0.966 0.485 0.299
v -0.025690 0.562225 0.052192 0.966 0.485 0.299
v -0.020153 0.563134 0.056892 0.966 0.485 0.299
v -0.013884 0.551914 -0.014759 0.966 0.485 0.299
f 85 13 14
f 85 14 13
f 85 14 15
f 85 15 14
f 85 15 16
f 85 16 15
f 85 16 17
f 85 17 16
f 85 17 18
f 85 18 17
f 85 18 19
f 85 19 18
f 85 19 20
f 85 20 19
f 85 20 21
f 85 21 20
f 85 21 22
f 85 22 21
f 85 22 23
f 85 23 22
f 85 23 24
f 85 24 23
f 85 24 25
f 85 25 24
f 85 25 26
f 85 26 25
f 85 26 27
f 85 27 26
f 85 27 28
f 85 28 27
f 85 28 29
f 85 29 28
f 85 29 30
f 85 30 29
f 85 30 31
f 85 31 30
f 85 31 32
f 85 32 31
f 85 32 33
f 85 33 32
f 85 33 34
f 85 34 33
f 85 34 35
f 85 35 34
f 85 35 36
f 85 36 35
f 85 36 37
f 85 37 36
f 85 37 38
f 85 38 37
f 85 38 39
f 85 39 38
f 85 39 40
f 85 40 39
f 85 40 41
f 85 41 40
f 85 41 42
f 85 42 41
f 85 42 43
f 85 43 42
f 85 43 44
f 85 44 43
f 85 44 45
f 85 45 44
f 85 45 46
f 85 46 45
f 85 46 47
f 85 47 46
f 85 47 48
f 85 48 47
f 85 48 49
f 85 49 48
f 85 49 50
f 85 50 49
f 85 50 51
f 85 51 50
f 85 51 52
f 85 52 51
f 85 52 53
f 85 53 52
f 85 53 54
f 85 54 53
f 85 54 55
f 85 55 54
f 85 55 56
f 85 56 55
f 85 56 57
f 85 57 56
f 85 57 58
f 85 58 57
f 85 58 59
f 85 59 58
f 85 59 60
f 85 60 59
f 85 60 61
f 85 61 60
f 85 61 62
f 85 62 61
f 85 62 63
f 85 63 62
f 85 63 64
f 85 64 63
f 85 64 65
f 85 65 64
f 85 65 66
f 85 66 65
f 85 66 67
f 85 67 66
f 85 67 68
f 85 68 67
f 85 68 69
f 85 69 68
f 85 69 70
f 85 70 69
f 85 70 71
f 85 71 70
f 85 71 72
f 85 72 71
f 85 72 73
f 85 73 72
f 85 73 74
f 85 74 73
f 85 74 75
f 85 75 74
f 85 75 76
f 85 76 75
f 85 76 77
f 85 77 76
f 85 77 78
f 85 78 77
f 85 78 79
f 85 79 78
f 85 79 80
f 85 80 79
f 85 80 81
f 85 81 80
f 85 81 82
f 85 82 81
f 85 82 83
f 85 83 82
f 85 83 84
f 85 84 83
f 85 84 13
f 85 13 84
v 0.024884 0.578314 0.031268 0.970 0.547 0.383
v 0.026879 0.576597 0.025851 0.970 0.547 0.383
v 0.027844 0.574597 0.020122 0.970 0.547 0.383
v 0.028453 0.572885 0.014767 0.970 0.547 0.383
v 0.028955 0.571557 0.009867 0.970 0.547 0.383
v 0.029491 0.570613 0.005368 0.970 0.547 0.383
v 0.030145 0.570033 0.001173 0.970 0.547 0.383
v 0.030973 0.569797 -0.002830 0.970 0.547 0.383
v 0.032013 0.569898 -0.006755 0.970 0.547 0.383
v 0.033292 0.570339 -0.010721 0.970 0.547 0.383
v 0.034818 0.571135 -0.014850 0.970 0.547 0.383
v 0.036578 0.572307 -0.019269 0.970 0.547 0.383
v 0.038507 0.573869 -0.024098 0.970 0.547 0.383
v 0.040430 0.575777 -0.029422 0.970 0.547 0.383
v 0.041851 0.577772 -0.035163 0.970 0.547 0.383
v 0.039344 0.577400 -0.039701 0.970 0.547 0.383
v 0.034235 0.575374 -0.042661 0.970 0.547 0.383
v 0.029197 0.573526 -0.045046 0.970 0.547 0.383
v 0.024528 0.572042 -0.047114 0.970 0.547 0.383
v 0.020264 0.570946 -0.049035 0.970 0.547 0.383
v 0.016355 0.570223 -0.050935 0.970 0.547 0.383
v 0.012721 0.569851 -0.052907 0.970 0.547 0.383
v 0.009266 0.569817 -0.055030 0.970 0.547 0.383
v 0.005889 0.570121 -0.057370 0.970 0.547 0.383
v 0.002479 0.570772 -0.059978 0.970 0.547 0.383
v -0.001083 0.571792 -0.062892 0.970 0.547 0.383
v -0.004928 0.573198 -0.066112 0.970 0.547 0.383
v -0.009193 0.574980 -0.069558 0.970 0.547 0.383
v -0.013993 0.577004 -0.072931 0.970 0.547 0.383
v -0.019212 0.578098 -0.074372 0.970 0.547 0.383
v -0.023869 0.576186 -0.070776 0.970 0.547 0.383
v -0.027904 0.574226 -0.066694 0.970 0.547 0.383
v -0.031461 0.572588 -0.062771 0.970 0.547 0.383
v -0.034695 0.571338 -0.059171 0.970 0.547 0.383
v -0.037747 0.570469 -0.055913 0.970 0.547 0.383
v -0.040739 0.569959 -0.052960 0.970 0.547 0.383
v -0.043779 0.569791 -0.050252 0.970 0.547 0.383
v -0.046964 0.569959 -0.047716 0.970 0.547 0.383
v -0.050383 0.570469 -0.045269 0.970 0.547 0.383
v -0.054113 0.571338 -0.042816 0.970 0.547 0.383
v -0.058210 0.572588 -0.040241 0.970 0.547 0.383
v -0.062680 0.574226 -0.037402 0.970 0.547 0.383
v -0.067389 0.576186 -0.034120 0.970 0.547 0.383
v -0.071724 0.578098 -0.030142 0.970 0.547 0.383
v -0.071191 0.577004 -0.024754 0.970 0.547 0.383
v -0.068682 0.574980 -0.019451 0.970 0.547 0.383
v -0.066012 0.573198 -0.014662 0.970 0.547 0.383
v -0.063492 0.571792 -0.010326 0.970 0.547 0.383
v -0.061226 0.570772 -0.006321 0.970 0.547 0.383
v -0.059235 0.570121 -0.002517 0.970 0.547 0.383
v -0.057504 0.569817 0.001209 0.970 0.547 0.383
v -0.055999 0.569851 0.004975 0.970 0.547 0.383
v -0.054673 0.570223 0.008892 0.970 0.547 0.383
v -0.053465 0.570946 0.013066 0.970 0.547 0.383
v -0.052296 0.572042 0.017595 0.970 0.547 0.383
v -0.051052 0.573526 0.022548 0.970 0.547 0.383
v -0.049559 0.575374 0.027917 0.970 0.547 0.383
v -0.047510 0.577400 0.033455 0.970 0.547 0.383
v -0.043464 0.577772 0.036697 0.970 0.547 0.383
v -0.037565 0.575777 0.036273 0.970 0.547 0.383
v -0.031992 0.573869 0.035282 0.970 0.547 0.383
v -0.026905 0.572307 0.034202 0.970 0.547 0.383
v -0.022252 0.571135 0.033219 0.970 0.547 0.383
v -0.017923 0.570339 0.032416 0.970 0.547 0.383
v -0.013797 0.569898 0.031831 0.970 0.547 0.383
v -0.009752 0.569797 0.031472 0.970 0.547 0.383
v -0.005667 0.570033 0.031337 0.970 0.547 0.383
v -0.001422 0.570613 0.031406 0.970 0.547 0.383
v 0.003103 0.571557 0.031643 0.970 0.547 0.383
v 0.008017 0.572885 0.031980 0.970 0.547 0.383
v 0.013398 0.574597 0.032291 0.970 0.547 0.383
v 0.019207 0.576597 0.032313 0.970 0.547 0.383
v -0.013884 0.551914 -0.014759 0.970 0.547 0.383
f 158 86 87
f 158 87 86
f 158 87 88
f 158 88 87
f 158 88 89
f 158 89 88
f 158 89 90
f 158 90 89
f 158 90 91
f 158 91 90
f 158 91 92
f 158 92 91
f 158 92 93
f 158 93 92
f 158 93 94
f 158 94 93
f 158 94 95
f 158 95 94
f 158 95 96
f 158 96 95
f 158 96 97
f 158 97 96
f 158 97 98
f 158 98 97
f 158 98 99
f 158 99 98
f 158 99 100
f 158 100 99
f 158 100 101
f 158 101 100
f 158 101 102
f 158 102 101
f 158 102 103
f 158 103 102
f 158 103 104
f 158 104 103
f 158 104 105
f 158 105 104
f 158 105 106
f 158 106 105
f 158 106 107
f 158 107 106
f 158 107 108
f 158 108 107
f 158 108 109
f 158 109 108
f 158 109 110
f 158 110 109
f 158 110 111
f 158 111 110
f 158 111 112
f 158 112 111
f 158 112 113
f 158 113 112
f 158 113 114
f 158 114 113
f 158 114 115
f 158 115 114
f 158 115 116
f 158 116 115
f 158 116 117
f 158 117 116
f 158 117 118
f 158 118 117
f 158 118 119
f 158 119 118
f 158 119 120
f 158 120 119
f 158 120 121
f 158 121 120
f 158 121 122
f 158 122 121
f 158 122 123
f 158 123 122
f 158 123 124
f 158 124 123
f 158 124 125
f 158 125 124
f 158 125 126
f 158 126 125
f 158 126 127
f 158 127 126
f 158 127 128
f 158 128 127
f 158 128 129
f 158 129 128
f 158 129 130
f 158 130 129
f 158 130 131
f 158 131 130
f 158 131 132
f 158 132 131
f 158 132 133
f 158 133 132
f 158 133 134
f 158 134 133
f 158 134 135
f 158 135 134
f 158 135 136
f 158 136 135
f 158 136 137
f 158 137 136
f 158 137 138
f 158 138 137
f 158 138 139
f 158 139 138
f 158 139 140
f 158 140 139
f 158 140 141
f 158 141 140
f 158 141 142
f 158 142 141
f 158 142 143
f 158 143 142
f 158 143 144
f 158 144 143
f 158 144 145
f 158 145 144
f 158 145 146
f 158 146 145
f 158 146 147
f 158 147 146
f 158 147 148
f 158 148 147
f 158 148 149
f 158 149 148
f 158 149 150
f 158 150 149
f 158 150 151
f 158 151 150
f 158 151 152
f 158 152 151
f 158 152 153
f 158 153 152
f 158 153 154
f 158 154 153
f 158 154 155
f 158 155 154
f 158 155 156
f 158 156 155
f 158 156 157
f 158 157 156
f 158 157 86
f 158 86 157
v 0.033559 0.592714 -0.006577 0.974 0.609 0.467
v 0.031987 0.590060 -0.010919 0.974 0.609 0.467
v 0.029626 0.586969 -0.014922 0.974 0.609 0.467
v 0.027238 0.584324 -0.018512 0.974 0.609 0.467
v 0.025020 0.582272 -0.021769 0.974 0.609 0.467
v 0.023029 0.580813 -0.024798 0.974 0.609 0.467
v 0.021267 0.579916 -0.027702 0.974 0.609 0.467
v 0.019711 0.579552 -0.030578 0.974 0.609 0.467
v 0.018325 0.579707 -0.033516 0.974 0.609 0.467
v 0.017063 0.580388 -0.036602 0.974 0.609 0.467
v 0.015869 0.581619 -0.039915 0.974 0.609 0.467
v 0.014668 0.583431 -0.043526 0.974 0.609 0.467
v 0.013360 0.585843 -0.047475 0.974 0.609 0.467
v 0.011793 0.588793 -0.051723 0.974 0.609 0.467
v 0.009703 0.591877 -0.055968 0.974 0.609 0.467
v 0.005830 0.591302 -0.057453 0.974 0.609 0.467
v 0.001179 0.588170 -0.056631 0.974 0.609 0.467
v -0.003132 0.585314 -0.055494 0.974 0.609 0.467
v -0.007055 0.583020 -0.054353 0.974 0.609 0.467
v -0.010655 0.581327 -0.053331 0.974 0.609 0.467
v -0.014025 0.580209 -0.052479 0.974 0.609 0.467
v -0.017265 0.579635 -0.051813 0.974 0.609 0.467
v -0.020474 0.579583 -0.051331 0.974 0.609 0.467
v -0.023746 0.580052 -0.051022 0.974 0.609 0.467
v -0.027177 0.581059 -0.050861 0.974 0.609 0.467
v -0.030858 0.582634 -0.050808 0.974 0.609 0.467
v -0.034870 0.584807 -0.050797 0.974 0.609 0.467
v -0.039255 0.587561 -0.050707 0.974 0.609 0.467
v -0.043931 0.590690 -0.050297 0.974 0.609 0.467
v -0.047867 0.592381 -0.048489 0.974 0.609 0.467
v -0.048863 0.589425 -0.043888 0.974 0.609 0.467
v -0.049228 0.586396 -0.039311 0.974 0.609 0.467
v -0.049383 0.583865 -0.035078 0.974 0.609 0.467
v -0.049506 0.581933 -0.031209 0.974 0.609 0.467
v -0.049694 0.580590 -0.027642 0.974 0.609 0.467
v -0.050003 0.579801 -0.024293 0.974 0.609 0.467
v -0.050468 0.579541 -0.021069 0.974 0.609 0.467
v -0.051110 0.579801 -0.017876 0.974 0.609 0.467
v -0.051941 0.580590 -0.014617 0.974 0.609 0.467
v -0.052958 0.581933 -0.011194 0.974 0.609 0.467
v -0.054138 0.583865 -0.007506 0.974 0.609 0.467
v -0.055410 0.586396 -0.003466 0.974 0.609 0.467
v -0.056600 0.589425 0.000969 0.974 0.609 0.467
v -0.057203 0.592381 0.005638 0.974 0.609 0.467
v -0.054099 0.590690 0.008659 0.974 0.609 0.467
v -0.049831 0.587561 0.010612 0.974 0.609 0.467
v -0.045730 0.584807 0.012165 0.974 0.609 0.467
v -0.041953 0.582634 0.013520 0.974 0.609 0.467
v -0.038502 0.581059 0.014803 0.974 0.609 0.467
v -0.035324 0.580052 0.016104 0.974 0.609 0.467
v -0.032344 0.579583 0.017492 0.974 0.609 0.467
v -0.029482 0.579635 0.019020 0.974 0.609 0.467
v -0.026652 0.580209 0.020733 0.974 0.609 0.467
v -0.023762 0.581327 0.022665 0.974 0.609 0.467
v -0.020713 0.583020 0.024834 0.974 0.609 0.467
v -0.017399 0.585314 0.027223 0.974 0.609 0.467
v -0.013718 0.588170 0.029739 0.974 0.609 0.467
v -0.009611 0.591302 0.032071 0.974 0.609 0.467
v -0.005464 0.591877 0.031970 0.974 0.609 0.467
v -0.002073 0.588793 0.028670 0.974 0.609 0.467
v 0.000826 0.585843 0.025192 0.974 0.609 0.467
v 0.003382 0.583431 0.021910 0.974 0.609 0.467
v 0.005723 0.581619 0.018909 0.974 0.609 0.467
v 0.007958 0.580388 0.016188 0.974 0.609 0.467
v 0.010180 0.579707 0.013703 0.974 0.609 0.467
v 0.012471 0.579552 0.011399 0.974 0.609 0.467
v 0.014900 0.579916 0.009211 0.974 0.609 0.467
v 0.017534 0.580813 0.007065 0.974 0.609 0.467
v 0.020424 0.582272 0.004878 0.974 0.609 0.467
v 0.023605 0.584324 0.002552 0.974 0.609 0.467
v 0.027057 0.586969 -0.000031 0.974 0.609 0.467
v 0.030624 0.590060 -0.003012 0.974 0.609 0.467
v -0.013884 0.551914 -0.014759 0.974 0.609 0.467
f 231 159 160
f 231 160 159
f 231 160 161
f 231 161 160
f 231 161 162
f 231 162 161
f 231 162 163
f 231 163 162
f 231 163 164
f 231 164 163
f 231 164 165
f 231 165 164
f 231 165 166
f 231 166 165
f 231 166 167
f 231 167 166
f 231 167 168
f 231 168 167
f 231 168 169
f 231 169 168
f 231 169 170
f 231 170 169
f 231 170 171
f 231 171 170
f 231 171 172
f 231 172 171
f 231 172 173
f 231 173 172
f 231 173 174
f 231 174 173
f 231 174 175
f 231 175 174
f 231 175 176
f 231 176 175
f 231 176 177
f 231 177 176
f 231 177 178
f 231 178 177
f 231 178 179
f 231 179 178
f 231 179 180
f 231 180 179
f 231 180 181
f 231 181 180
f 231 181 182
f 231 182 181
f 231 182 183
f 231 183 182
f 231 183 184
f 231 184 183
f 231 184 185
f 231 185 184
f 231 185 186
f 231 186 185
f 231 186 187
f 231 187 186
f 231 187 188
f 231 188 187
f 231 188 189
f 231 189 188
f 231 189 190
f 231 190 189
f 231 190 191
f 231 191 190
f 231 191 192
f 231 192 191
f 231 192 193
f 231 193 192
f 231 193 194
f 231 194 193
f 231 194 195
f 231 195 194
f 231 195 196
f 231 196 195
f 231 196 197
f 231 197 196
f 231 197 198
f 231 198 197
f 231 198 199
f 231 199 198
f 231 199 200
f 231 200 199
f 231 200 201
f 231 201 200
f 231 201 202
f 231 202 201
f 231 202 203
f 231 203 202
f 231 203 204
f 231 204 203
f 231 204 205
f 231 205 204
f 231 205 206
f 231 206 205
f 231 206 207
f 231 207 206
f 231 207 208
f 231 208 207
f 231 208 209
f 231 209 208
f 231 209 210
f 231 210 209
f 231 210 211
f 231 211 210
f 231 211 212
f 231 212 211
f 231 212 213
f 231 213 212
f 231 213 214
f 231 214 213
f 231 214 215
f 231 215 214
f 231 215 216
f 231 216 215
f 231 216 217
f 231 217 216
f 231 217 218
f 231 218 217
f 231 218 219
f 231 219 218
f 231 219 220
f 231 220 219
f 231 220 221
f 231 221 220
f 231 221 222
f 231 222 221
f 231 222 223
f 231 223 222
f 231 223 224
f 231 224 223
f 231 224 225
f 231 225 224
f 231 225 226
f 231 226 225
f 231 226 227
f 231 227 226
f 231 227 228
f 231 228 227
f 231 228 229
f 231 229 228
f 231 229 230
f 231 230 229
f 231 230 159
f 231 159 230
v 0.019362 0.607114 -0.034203 0.978 0.670 0.551
v 0.016163 0.603523 -0.036051 0.978 0.670 0.551
v 0.012655 0.599341 -0.037283 0.978 0.670 0.551
v 0.009344 0.595763 -0.038249 0.978 0.670 0.551
v 0.006308 0.592986 -0.039099 0.978 0.670 0.551
v 0.003528 0.591012 -0.039926 0.978 0.670 0.551
v 0.000953 0.589799 -0.040795 0.978 0.670 0.551
v -0.001481 0.589306 -0.041752 0.978 0.670 0.551
v -0.003843 0.589517 -0.042836 0.978 0.670 0.551
v -0.006205 0.590438 -0.044073 0.978 0.670 0.551
v -0.008644 0.592102 -0.045485 0.978 0.670 0.551
v -0.011239 0.594554 -0.047076 0.978 0.670 0.551
v -0.014075 0.597818 -0.048818 0.978 0.670 0.551
v -0.017223 0.601809 -0.050610 0.978 0.670 0.551
v -0.020690 0.605981 -0.052130 0.978 0.670 0.551
v -0.023825 0.605203 -0.051043 0.978 0.670 0.551
v -0.026247 0.600967 -0.048143 0.978 0.670 0.551
v -0.028299 0.597102 -0.045225 0.978 0.670 0.551
v -0.030111 0.593999 -0.042505 0.978 0.670 0.551
v -0.031787 0.591708 -0.040025 0.978 0.670 0.551
v -0.033410 0.590196 -0.037766 0.978 0.670 0.551
v -0.035049 0.589418 -0.035689 0.978 0.670 0.551
v -0.036764 0.589348 -0.033741 0.978 0.670 0.551
v -0.038607 0.589983 -0.031865 0.978 0.670 0.551
v -0.040623 0.591345 -0.029998 0.978 0.670 0.551
v -0.042849 0.593476 -0.028069 0.978 0.670 0.551
v -0.045298 0.596416 -0.025994 0.978 0.670 0.551
v -0.047934 0.600142 -0.023679 0.978 0.670 0.551
v -0.050584 0.604375 -0.021019 0.978 0.670 0.551
v -0.052061 0.606663 -0.017884 0.978 0.670 0.551
v -0.050299 0.602664 -0.014555 0.978 0.670 0.551
v -0.048163 0.598565 -0.011567 0.978 0.670 0.551
v -0.046077 0.595142 -0.008897 0.978 0.670 0.551
v -0.044158 0.592528 -0.006466 0.978 0.670 0.551
v -0.042435 0.590710 -0.004186 0.978 0.670 0.551
v -0.040898 0.589643 -0.001978 0.978 0.670 0.551
v -0.039520 0.589292 0.000234 0.978 0.670 0.551
v -0.038268 0.589643 0.002519 0.978 0.670 0.551
v -0.037097 0.590710 0.004941 0.978 0.670 0.551
v -0.035955 0.592528 0.007560 0.978 0.670 0.551
v -0.034777 0.595142 0.010425 0.978 0.670 0.551
v -0.033473 0.598565 0.013552 0.978 0.670 0.551
v -0.031915 0.602664 0.016879 0.978 0.670 0.551
v -0.029877 0.606663 0.020046 0.978 0.670 0.551
v -0.026421 0.604375 0.020296 0.978 0.670 0.551
v -0.022804 0.600142 0.019291 0.978 0.670 0.551
v -0.019493 0.596416 0.018128 0.978 0.670 0.551
v -0.016484 0.593476 0.017010 0.978 0.670 0.551
v -0.013712 0.591345 0.016017 0.978 0.670 0.551
v -0.011096 0.589983 0.015175 0.978 0.670 0.551
v -0.008558 0.589348 0.014488 0.978 0.670 0.551
v -0.006019 0.589418 0.013948 0.978 0.670 0.551
v -0.003405 0.590196 0.013538 0.978 0.670 0.551
v -0.000641 0.591708 0.013231 0.978 0.670 0.551
v 0.002343 0.593999 0.012986 0.978 0.670 0.551
v 0.005602 0.597102 0.012740 0.978 0.670 0.551
v 0.009151 0.600967 0.012382 0.978 0.670 0.551
v 0.012866 0.605203 0.011693 0.978 0.670 0.551
v 0.015351 0.605981 0.009494 0.978 0.670 0.551
v 0.015725 0.601809 0.005727 0.978 0.670 0.551
v 0.015707 0.597818 0.002104 0.978 0.670 0.551
v 0.015579 0.594554 -0.001221 0.978 0.670 0.551
v 0.015465 0.592102 -0.004263 0.978 0.670 0.551
v 0.015430 0.590438 -0.007081 0.978 0.670 0.551
v 0.015509 0.589517 -0.009746 0.978 0.670 0.551
v 0.015723 0.589306 -0.012336 0.978 0.670 0.551
v 0.016082 0.589799 -0.014927 0.978 0.670 0.551
v 0.016587 0.591012 -0.017598 0.978 0.670 0.551
v 0.017229 0.592986 -0.020426 0.978 0.670 0.551
v 0.017976 0.595763 -0.023488 0.978 0.670 0.551
v 0.018757 0.599341 -0.026848 0.978 0.670 0.551
v 0.019403 0.603523 -0.030509 0.978 0.670 0.551
v -0.013884 0.551914 -0.014759 0.978 0.670 0.551
f 304 232 233
f 304 233 232
f 304 233 234
f 304 234 233
f 304 234 235
f 304 235 234
f 304 235 236
f 304 236 235
f 304 236 237
f 304 237 236
f 304 237 238
f 304 238 237
f 304 238 239
f 304 239 238
f 304 239 240
f 304 240 239
f 304 240 241
f 304 241 240
f 304 241 242
f 304 242 241
f 304 242 243
f 304 243 242
f 304 243 244
f 304 244 243
f 304 244 245
f 304 245 244
f 304 245 246
f 304 246 245
f 304 246 247
f 304 247 246
f 304 247 248
f 304 248 247
f 304 248 249
f 304 249 248
f 304 249 250
f 304 250 249
f 304 250 251
f 304 251 250
f 304 251 252
f 304 252 251
f 304 252 253
f 304 253 252
f 304 253 254
f 304 254 253
f 304 254 255
f 304 255 254
f 304 255 256
f 304 256 255
f 304 256 257
f 304 257 256
f 304 257 258
f 304 258 257
f 304 258 259
f 304 259 258
f 304 259 260
f 304 260 259
f 304 260 261
f 304 261 260
f 304 261 262
f 304 262 261
f 304 262 263
f 304 263 262
f 304 263 264
f 304 264 263
f 304 264 265
f 304 265 264
f 304 265 266
f 304 266 265
f 304 266 267
f 304 267 266
f 304 267 268
f 304 268 267
f 304 268 269
f 304 269 268
f 304 269 270
f 304 270 269
f 304 270 271
f 304 271 270
f 304 271 272
f 304 272 271
f 304 272 273
f 304 273 272
f 304 273 274
f 304 274 273
f 304 274 275
f 304 275 274
f 304 275 276
f 304 276 275
f 304 276 277
f 304 277 276
f 304 277 278
f 304 278 277
f 304 278 279
f 304 279 278
f 304 279 280
f 304 280 279
f 304 280 281
f 304 281 280
f 304 281 282
f 304 282 281
f 304 282 283
f 304 283 282
f 304 283 284
f 304 284 283
f 304 284 285
f 304 285 284
f 304 285 286
f 304 286 285
f 304 286 287
f 304 287 286
f 304 287 288
f 304 288 287
f 304 288 289
f 304 289 288
f 304 289 290
f 304 290 289
f 304 290 291
f 304 291 290
f 304 291 292
f 304 292 291
f 304 292 293
f 304 293 292
f 304 293 294
f 304 294 293
f 304 294 295
f 304 295 294
f 304 295 296
f 304 296 295
f 304 296 297
f 304 297 296
f 304 297 298
f 304 298 297
f 304 298 299
f 304 299 298
f 304 299 300
f 304 300 299
f 304 300 301
f 304 301 300
f 304 301 302
f 304 302 301
f 304 302 303
f 304 303 302
f 304 303 232
f 304 232 303
v -0.003563 0.621514 -0.043791 0.982 0.732 0.635
v -0.006472 0.616987 -0.043272 0.982 0.732 0.635
v -0.009254 0.611713 -0.042218 0.982 0.732 0.635
v -0.011778 0.607201 -0.041103 0.982 0.732 0.635
v -0.014073 0.603700 -0.040059 0.982 0.732 0.635
v -0.016200 0.601212 -0.039132 0.982 0.732 0.635
v -0.018223 0.599681 -0.038337 0.982 0.732 0.635
v -0.020206 0.599060 -0.037668 0.982 0.732 0.635
v -0.022210 0.599326 -0.037113 0.982 0.732 0.635
v -0.024293 0.600488 -0.036653 0.982 0.732 0.635
v -0.026513 0.602586 -0.036261 0.982 0.732 0.635
v -0.028921 0.605677 -0.035896 0.982 0.732 0.635
v -0.031554 0.609793 -0.035501 0.982 0.732 0.635
v -0.034404 0.614825 -0.034975 0.982 0.732 0.635
v -0.037308 0.620085 -0.034118 0.982 0.732 0.635
v -0.038666 0.619104 -0.031837 0.982 0.732 0.635
v -0.038654 0.613763 -0.028814 0.982 0.732 0.635
v -0.038405 0.608890 -0.025972 0.982 0.732 0.635
v -0.038112 0.604977 -0.023373 0.982 0.732 0.635
v -0.037860 0.602089 -0.020992 0.982 0.732 0.635
v -0.037689 0.600182 -0.018774 0.982 0.732 0.635
v -0.037621 0.599202 -0.016658 0.982 0.732 0.635
v -0.037666 0.599113 -0.014582 0.982 0.732 0.635
v -0.037827 0.599913 -0.012484 0.982 0.732 0.635
v -0.038099 0.601631 -0.010303 0.982 0.732 0.635
v -0.038466 0.604318 -0.007976 0.982 0.732 0.635
v -0.038895 0.608025 -0.005444 0.982 0.732 0.635
v -0.039315 0.612723 -0.002668 0.982 0.732 0.635
v -0.039566 0.618061 0.000325 0.982 0.732 0.635
v -0.038854 0.620945 0.003004 0.982 0.732 0.635
v -0.036060 0.615903 0.004133 0.982 0.732 0.635
v -0.033213 0.610735 0.004861 0.982 0.732 0.635
v -0.030560 0.606419 0.005419 0.982 0.732 0.635
v -0.028133 0.603123 0.005918 0.982 0.732 0.635
v -0.025904 0.600831 0.006424 0.982 0.732 0.635
v -0.023826 0.599486 0.006983 0.982 0.732 0.635
v -0.021843 0.599043 0.007627 0.982 0.732 0.635
v -0.019899 0.599486 0.008379 0.982 0.732 0.635
v -0.017934 0.600831 0.009258 0.982 0.732 0.635
v -0.015886 0.603123 0.010272 0.982 0.732 0.635
v -0.013689 0.606419 0.011417 0.982 0.732 0.635
v -0.011279 0.610735 0.012659 0.982 0.732 0.635
v -0.008611 0.615903 0.013892 0.982 0.732 0.635
v -0.005732 0.620945 0.014780 0.982 0.732 0.635
v -0.003489 0.618061 0.013151 0.982 0.732 0.635
v -0.001793 0.612723 0.010672 0.982 0.732 0.635
v -0.000367 0.608025 0.008254 0.982 0.732 0.635
v 0.000898 0.604318 0.006020 0.982 0.732 0.635
v 0.002083 0.601631 0.003983 0.982 0.732 0.635
v 0.003249 0.599913 0.002119 0.982 0.732 0.635
v 0.004448 0.599113 0.000391 0.982 0.732 0.635
v 0.005723 0.599202 -0.001247 0.982 0.732 0.635
v 0.007112 0.600182 -0.002846 0.982 0.732 0.635
v 0.008645 0.602089 -0.004458 0.982 0.732 0.635
v 0.010344 0.604977 -0.006146 0.982 0.732 0.635
v 0.012211 0.608890 -0.007976 0.982 0.732 0.635
v 0.014199 0.613763 -0.010024 0.982 0.732 0.635
v 0.016116 0.619104 -0.012361 0.982 0.732 0.635
v 0.016503 0.620085 -0.014987 0.982 0.732 0.635
v 0.014791 0.614825 -0.017484 0.982 0.732 0.635
v 0.012913 0.609793 -0.019691 0.982 0.732 0.635
v 0.011121 0.605677 -0.021660 0.982 0.732 0.635
v 0.009483 0.602586 -0.023463 0.982 0.732 0.635
v 0.008010 0.600488 -0.025169 0.982 0.732 0.635
v 0.006684 0.599326 -0.026841 0.982 0.732 0.635
v 0.005481 0.599060 -0.028536 0.982 0.732 0.635
v 0.004365 0.599681 -0.030306 0.982 0.732 0.635
v 0.003298 0.601212 -0.032200 0.982 0.732 0.635
v 0.002233 0.603700 -0.034261 0.982 0.732 0.635
v 0.001112 0.607201 -0.036520 0.982 0.732 0.635
v -0.000142 0.611713 -0.038979 0.982 0.732 0.635
v -0.001633 0.616987 -0.041552 0.982 0.732 0.635
v -0.013884 0.551914 -0.014759 0.982 0.732 0.635
f 377 305 306
f 377 306 305
f 377 306 307
f 377 307 306
f 377 307 308
f 377 308 307
f 377 308 309
f 377 309 308
f 377 309 310
f 377 310 309
f 377 310 311
f 377 311 310
f 377 311 312
f 377 312 311
f 377 312 313
f 377 313 312
f 377 313 314
f 377 314 313
f 377 314 315
f 377 315 314
f 377 315 316
f 377 316 315
f 377 316 317
f 377 317 316
f 377 317 318
f 377 318 317
f 377 318 319
f 377 319 318
f 377 319 320
f 377 320 319
f 377 320 321
f 377 321 320
f 377 321 322
f 377 322 321
f 377 322 323
f 377 323 322
f 377 323 324
f 377 324 323
f 377 324 325
f 377 325 324
f 377 325 326
f 377 326 325
f 377 326 327
f 377 327 326
f 377 327 328
f 377 328 327
f 377 328 329
f 377 329 328
f 377 329 330
f 377 330 329
f 377 330 331
f 377 331 330
f 377 331 332
f 377 332 331
f 377 332 333
f 377 333 332
f 377 333 334
f 377 334 333
f 377 334 335
f 377 335 334
f 377 335 336
f 377 336 335
f 377 336 337
f 377 337 336
f 377 337 338
f 377 338 337
f 377 338 339
f 377 339 338
f 377 339 340
f 377 340 339
f 377 340 341
f 377 341 340
f 377 341 342
f 377 342 341
f 377 342 343
f 377 343 342
f 377 343 344
f 377 344 343
f 377 344 345
f 377 345 344
f 377 345 346
f 377 346 345
f 377 346 347
f 377 347 346
f 377 347 348
f 377 348 347
f 377 348 349
f 377 349 348
f 377 349 350
f 377 350 349
f 377 350 351
f 377 351 350
f 377 351 352
f 377 352 351
f 377 352 353
f 377 353 352
f 377 353 354
f 377 354 353
f 377 354 355
f 377 355 354
f 377 355 356
f 377 356 355
f 377 356 357
f 377 357 356
f 377 357 358
f 377 358 357
f 377 358 359
f 377 359 358
f 377 359 360
f 377 360 359
f 377 360 361
f 377 361 360
f 377 361 362
f 377 362 361
f 377 362 363
f 377 363 362
f 377 363 364
f 377 364 363
f 377 364 365
f 377 365 364
f 377 365 366
f 377 366 365
f 377 366 367
f 377 367 366
f 377 367 368
f 377 368 367
f 377 368 369
f 377 369 368
f 377 369 370
f 377 370 369
f 377 370 371
f 377 371 370
f 377 371 372
f 377 372 371
f 377 372 373
f 377 373 372
f 377 373 374
f 377 374 373
f 377 374 375
f 377 375 374
f 377 375 376
f 377 376 375
f 377 376 305
f 377 305 376
v -0.022531 0.635914 -0.037843 0.987 0.794 0.720
v -0.024044 0.630450 -0.036026 0.987 0.794 0.720
v -0.025202 0.624085 -0.033947 0.987 0.794 0.720
v -0.026172 0.618640 -0.031964 0.987 0.794 0.720
v -0.027038 0.614415 -0.030142 0.987 0.794 0.720
v -0.027862 0.611411 -0.028479 0.987 0.794 0.720
v -0.028690 0.609564 -0.026950 0.987 0.794 0.720
v -0.029559 0.608815 -0.025518 0.987 0.794 0.720
v -0.030499 0.609135 -0.024146 0.987 0.794 0.720
v -0.031537 0.610537 -0.022791 0.987 0.794 0.720
v -0.032693 0.613070 -0.021407 0.987 0.794 0.720
v -0.033978 0.616800 -0.019943 0.987 0.794 0.720
v -0.035385 0.621768 -0.018344 0.987 0.794 0.720
v -0.036858 0.627841 -0.016553 0.987 0.794 0.720
v -0.038194 0.634189 -0.014532 0.987 0.794 0.720
v -0.037849 0.633006 -0.012437 0.987 0.794 0.720
v -0.036283 0.626559 -0.010594 0.987 0.794 0.720
v -0.034666 0.620678 -0.008982 0.987 0.794 0.720
v -0.033148 0.615956 -0.007543 0.987 0.794 0.720
v -0.031766 0.612470 -0.006217 0.987 0.794 0.720
v -0.030518 0.610169 -0.004947 0.987 0.794 0.720
v -0.029386 0.608985 -0.003688 0.987 0.794 0.720
v -0.028344 0.608879 -0.002394 0.987 0.794 0.720
v -0.027362 0.609844 -0.001028 0.987 0.794 0.720
v -0.026404 0.611917 0.000447 0.987 0.794 0.720
v -0.025429 0.615160 0.002060 0.987 0.794 0.720
v -0.024387 0.619634 0.003830 0.987 0.794 0.720
v -0.023214 0.625305 0.005745 0.987 0.794 0.720
v -0.021824 0.631746 0.007706 0.987 0.794 0.720
v -0.020008 0.635227 0.008978 0.987 0.794 0.720
v -0.017717 0.629142 0.008229 0.987 0.794 0.720
v -0.015599 0.622905 0.007207 0.987 0.794 0.720
v -0.013689 0.617695 0.006182 0.987 0.794 0.720
v -0.011946 0.613718 0.005236 0.987 0.794 0.720
v -0.010321 0.610951 0.004397 0.987 0.794 0.720
v -0.008762 0.609328 0.003668 0.987 0.794 0.720
v -0.007217 0.608793 0.003040 0.987 0.794 0.720
v -0.005639 0.609328 0.002498 0.987 0.794 0.720
v -0.003984 0.610951 0.002023 0.987 0.794 0.720
v -0.002208 0.613718 0.001588 0.987 0.794 0.720
v -0.000274 0.617695 0.001157 0.987 0.794 0.720
v 0.001841 0.622905 0.000674 0.987 0.794 0.720
v 0.004109 0.629142 0.000054 0.987 0.794 0.720
v 0.006328 0.635227 -0.000887 0.987 0.794 0.720
v 0.006861 0.631746 -0.003039 0.987 0.794 0.720
v 0.006621 0.625305 -0.005430 0.987 0.794 0.720
v 0.006247 0.619634 -0.007645 0.987 0.794 0.720
v 0.005870 0.615160 -0.009664 0.987 0.794 0.720
v 0.005545 0.611917 -0.011520 0.987 0.794 0.720
v 0.005298 0.609844 -0.013262 0.987 0.794 0.720
v 0.005141 0.608879 -0.014937 0.987 0.794 0.720
v 0.005077 0.608985 -0.016597 0.987 0.794 0.720
v 0.005103 0.610169 -0.018291 0.987 0.794 0.720
v 0.005210 0.612470 -0.020067 0.987 0.794 0.720
v 0.005380 0.615956 -0.021976 0.987 0.794 0.720
v 0.005579 0.620678 -0.024058 0.987 0.794 0.720
v 0.005740 0.626559 -0.026335 0.987 0.794 0.720
v 0.005709 0.633006 -0.028753 0.987 0.794 0.720
v 0.004592 0.634189 -0.030559 0.987 0.794 0.720
v 0.002257 0.627841 -0.031205 0.987 0.794 0.720
v -0.000029 0.621768 -0.031588 0.987 0.794 0.720
v -0.002141 0.616800 -0.031869 0.987 0.794 0.720
v -0.004072 0.613070 -0.032128 0.987 0.794 0.720
v -0.005852 0.610537 -0.032412 0.987 0.794 0.720
v -0.007525 0.609135 -0.032752 0.987 0.794 0.720
v -0.009135 0.608815 -0.033169 0.987 0.794 0.720
v -0.010730 0.609564 -0.033677 0.987 0.794 0.720
v -0.012359 0.611411 -0.034286 0.987 0.794 0.720
v -0.014073 0.614415 -0.034998 0.987 0.794 0.720
v -0.015923 0.618640 -0.035803 0.987 0.794 0.720
v -0.017957 0.624085 -0.036661 0.987 0.794 0.720
v -0.020196 0.630450 -0.037467 0.987 0.794 0.720
v -0.013884 0.551914 -0.014759 0.987 0.794 0.720
f 450 378 379
f 450 379 378
f 450 379 380
f 450 380 379
f 450 380 381
f 450 381 380
f 450 381 382
f 450 382 381
f 450 382 383
f 450 383 382
f 450 383 384
f 450 384 383
f 450 384 385
f 450 385 384
f 450 385 386
f 450 386 385
f 450 386 387
f 450 387 386
f 450 387 388
f 450 388 387
f 450 388 389
f 450 389 388
f 450 389 390
f 450 390 389
f 450 390 391
f 450 391 390
f 450 391 392
f 450 392 391
f 450 392 393
f 450 393 392
f 450 393 394
f 450 394 393
f 450 394 395
f 450 395 394
f 450 395 396
f 450 396 395
f 450 396 397
f 450 397 396
f 450 397 398
f 450 398 397
f 450 398 399
f 450 399 398
f 450 399 400
f 450 400 399
f 450 400 401
f 450 401 400
f 450 401 402
f 450 402 401
f 450 402 403
f 450 403 402
f 450 403 404
f 450 404 403
f 450 404 405
f 450 405 404
f 450 405 406
f 450 406 405
f 450 406 407
f 450 407 406
f 450 407 408
f 450 408 407
f 450 408 409
f 450 409 408
f 450 409 410
f 450 410 409
f 450 410 411
f 450 411 410
f 450 411 412
f 450 412 411
f 450 412 413
f 450 413 412
f 450 413 414
f 450 414 413
f 450 414 415
f 450 415 414
f 450 415 416
f 450 416 415
f 450 416 417
f 450 417 416
f 450 417 418
f 450 418 417
f 450 418 419
f 450 419 418
f 450 419 420
f 450 420 419
f 450 420 421
f 450 421 420
f 450 421 422
f 450 422 421
f 450 422 423
f 450 423 422
f 450 423 424
f 450 424 423
f 450 424 425
f 450 425 424
f 450 425 426
f 450 426 425
f 450 426 427
f 450 427 426
f 450 427 428
f 450 428 427
f 450 428 429
f 450 429 428
f 450 429 430
f 450 430 429
f 450 430 431
f 450 431 430
f 450 431 432
f 450 432 431
f 450 432 433
f 450 433 432
f 450 433 434
f 450 434 433
f 450 434 435
f 450 435 434
f 450 435 436
f 450 436 435
f 450 436 437
f 450 437 436
f 450 437 438
f 450 438 437
f 450 438 439
f 450 439 438
f 450 439 440
f 450 440 439
f 450 440 441
f 450 441 440
f 450 441 442
f 450 442 441
f 450 442 443
f 450 443 442
f 450 443 444
f 450 444 443
f 450 444 445
f 450 445 444
f 450 445 446
f 450 446 445
f 450 446 447
f 450 447 446
f 450 447 448
f 450 448 447
f 450 448 449
f 450 449 448
f 450 449 378
f 450 378 449
v -0.003948 0.443817 0.004518 0.160 0.352 0.136
v -0.001241 0.449586 -0.001085 0.160 0.352 0.136
v 0.003948 0.443817 -0.004518 0.160 0.352 0.136
v 0.001241 0.438048 0.001085 0.160 0.352 0.136
v -0.027011 0.433817 -0.022280 0.160 0.352 0.136
v -0.026560 0.434778 -0.023213 0.160 0.352 0.136
v -0.025695 0.433817 -0.023786 0.160 0.352 0.136
v -0.026146 0.432855 -0.022852 0.160 0.352 0.136
f 451 452 456
f 451 456 455
f 452 453 457
f 452 457 456
f 453 454 458
f 453 458 457
f 454 451 455
f 454 455 458
v 0.004344 0.400997 -0.004139 0.160 0.352 0.136
v 0.001137 0.406767 0.001193 0.160 0.352 0.136
v -0.004344 0.400997 0.004139 0.160 0.352 0.136
v -0.001137 0.395228 -0.001193 0.160 0.352 0.136
v 0.024869 0.390997 0.024649 0.160 0.352 0.136
v 0.024334 0.391959 0.025537 0.160 0.352 0.136
v 0.023421 0.390997 0.026028 0.160 0.352 0.136
v 0.023955 0.390036 0.025140 0.160 0.352 0.136
f 459 460 464
f 459 464 463
f 460 461 465
f 460 465 464
f 461 462 466
f 461 466 465
f 462 459 463
f 462 463 466
v -0.001080 0.348664 0.005902 0.160 0.352 0.136
v -0.001621 0.354433 -0.000297 0.160 0.352 0.136
v 0.001080 0.348664 -0.005902 0.160 0.352 0.136
v 0.001621 0.342895 0.000297 0.160 0.352 0.136
v -0.034608 0.338664 -0.005316 0.160 0.352 0.136
v -0.034699 0.339626 -0.006350 0.160 0.352 0.136
v -0.034248 0.338664 -0.007284 0.160 0.352 0.136
v -0.034158 0.337703 -0.006251 0.160 0.352 0.136
f 467 468 472
f 467 472 471
f 468 469 473
f 468 473 472
f 469 470 474
f 469 474 473
f 470 467 471
f 470 471 474
v 0.002244 0.456215 -0.005565 0.160 0.352 0.136
v 0.001529 0.461984 0.000616 0.160 0.352 0.136
v -0.002244 0.456215 0.005565 0.160 0.352 0.136
v -0.001529 0.450446 -0.000616 0.160 0.352 0.136
v 0.032834 0.446215 0.012163 0.160 0.352 0.136
v 0.032715 0.447176 0.013193 0.160 0.352 0.136
v 0.032086 0.446215 0.014018 0.160 0.352 0.136
v 0.032205 0.445253 0.012987 0.160 0.352 0.136
f 475 476 480
f 475 480 479
f 476 477 481
f 476 481 480
f 477 478 482
f 477 482 481
f 478 475 479
f 478 479 482
v 0.005999 0.124778 -0.000128 0.160 0.352 0.136
v 0.000035 0.130547 0.001648 0.160 0.352 0.136
v -0.005999 0.124778 0.000128 0.160 0.352 0.136
v -0.000035 0.119009 -0.001648 0.160 0.352 0.136
v 0.001749 0.114778 0.034971 0.160 0.352 0.136
v 0.000755 0.115739 0.035267 0.160 0.352 0.136
v -0.000251 0.114778 0.035013 0.160 0.352 0.136
v 0.000743 0.113816 0.034717 0.160 0.352 0.136
f 483 484 488
f 483 488 487
f 484 485 489
f 484 489 488
f 485 486 490
f 485 490 489
f 486 483 487
f 486 487 490
v 0.005925 0.121434 -0.000948 0.160 0.352 0.136
v 0.000261 0.127204 0.001628 0.160 0.352 0.136
v -0.005925 0.121434 0.000948 0.160 0.352 0.136
v -0.000261 0.115665 -0.001628 0.160 0.352 0.136
v 0.006519 0.111434 0.034402 0.160 0.352 0.136
v 0.005575 0.112396 0.034831 0.160 0.352 0.136
v 0.004545 0.111434 0.034718 0.160 0.352 0.136
v 0.005489 0.110473 0.034289 0.160 0.352 0.136
f 491 492 496
f 491 496 495
f 492 493 497
f 492 497 496
f 493 494 498
f 493 498 497
f 494 491 495
f 494 495 498
v -0.005335 0.480572 0.002745 0.160 0.352 0.136
v -0.000754 0.486342 -0.001466 0.160 0.352 0.136
v 0.005335 0.480572 -0.002745 0.160 0.352 0.136
v 0.000754 0.474803 0.001466 0.160 0.352 0.136
v -0.016900 0.470572 -0.030666 0.160 0.352 0.136
v -0.016136 0.471534 -0.031368 0.160 0.352 0.136
v -0.015121 0.470572 -0.031581 0.160 0.352 0.136
v -0.015885 0.469611 -0.030879 0.160 0.352 0.136
f 499 500 504
f 499 504 503
f 500 501 505
f 500 505 504
f 501 502 506
f 501 506 505
f 502 499 503
f 502 503 506
v -0.005644 0.404477 0.002037 0.160 0.352 0.136
v -0.000560 0.410246 -0.001550 0.160 0.352 0.136
v 0.005644 0.404477 -0.002037 0.160 0.352 0.136
v 0.000560 0.398708 0.001550 0.160 0.352 0.136
v -0.012821 0.394477 -0.032582 0.160 0.352 0.136
v -0.011974 0.395438 -0.033180 0.160 0.352 0.136
v -0.010940 0.394477 -0.033261 0.160 0.352 0.136
v -0.011787 0.393515 -0.032664 0.160 0.352 0.136
f 507 508 512
f 507 512 511
f 508 509 513
f 508 513 512
f 509 510 514
f 509 514 513
f 510 507 511
f 510 511 514
v -0.005655 0.112024 0.002006 0.160 0.352 0.136
v -0.000551 0.117793 -0.001554 0.160 0.352 0.136
v 0.005655 0.112024 -0.002006 0.160 0.352 0.136
v 0.000551 0.106254 0.001554 0.160 0.352 0.136
v -0.012642 0.102024 -0.032652 0.160 0.352 0.136
v -0.011791 0.102985 -0.033246 0.160 0.352 0.136
v -0.010757 0.102024 -0.033321 0.160 0.352 0.136
v -0.011608 0.101062 -0.032728 0.160 0.352 0.136
f 515 516 520
f 515 520 519
f 516 517 521
f 516 521 520
f 517 518 522
f 517 522 521
f 518 515 519
f 518 519 522
v 0.003715 0.421475 -0.004711 0.160 0.352 0.136
v 0.001294 0.427244 0.001021 0.160 0.352 0.136
v -0.003715 0.421475 0.004711 0.160 0.352 0.136
v -0.001294 0.415706 -0.001021 0.160 0.352 0.136
v 0.028103 0.411475 0.020886 0.160 0.352 0.136
v 0.027699 0.412437 0.021842 0.160 0.352 0.136
v 0.026864 0.411475 0.022457 0.160 0.352 0.136
v 0.027268 0.410514 0.021501 0.160 0.352 0.136
f 523 524 528
f 523 528 527
f 524 525 529
f 524 529 528
f 525 526 530
f 525 530 529
f 526 523 527
f 526 527 530
v 0.000000 0.165574 -0.000000 0.180 0.500 0.200
v 0.002079 0.163933 -0.000880 0.180 0.500 0.200
v 0.004209 0.162292 -0.002734 0.180 0.500 0.200
v 0.006370 0.160650 -0.005180 0.180 0.500 0.200
v 0.008550 0.159009 -0.007985 0.180 0.500 0.200
v 0.010739 0.157368 -0.010948 0.180 0.500 0.200
v 0.012926 0.155726 -0.013879 0.180 0.500 0.200
v 0.015102 0.154085 -0.016606 0.180 0.500 0.200
v 0.017259 0.152443 -0.018971 0.180 0.500 0.200
v 0.019390 0.150802 -0.020843 0.180 0.500 0.200
v 0.021489 0.149161 -0.022115 0.180 0.500 0.200
v 0.023554 0.147519 -0.022716 0.180 0.500 0.200
v 0.025580 0.145878 -0.022610 0.180 0.500 0.200
v 0.027570 0.144237 -0.021795 0.180 0.500 0.200
v 0.029524 0.142595 -0.020309 0.180 0.500 0.200
v 0.031446 0.140954 -0.018224 0.180 0.500 0.200
v 0.033343 0.139313 -0.015645 0.180 0.500 0.200
v 0.035220 0.137671 -0.012704 0.180 0.500 0.200
v 0.037087 0.136030 -0.009559 0.180 0.500 0.200
v 0.038952 0.134388 -0.006383 0.180 0.500 0.200
v 0.040825 0.132747 -0.003364 0.180 0.500 0.200
v 0.042717 0.131106 -0.000705 0.180 0.500 0.200
v 0.044641 0.129464 0.001363 0.180 0.500 0.200
v 0.046616 0.127823 0.002457 0.180 0.500 0.200
v 0.044537 0.129464 0.003337 0.180 0.500 0.200
v 0.042407 0.131106 0.005191 0.180 0.500 0.200
v 0.040245 0.132747 0.007636 0.180 0.500 0.200
v 0.038065 0.134388 0.010442 0.180 0.500 0.200
v 0.035877 0.136030 0.013404 0.180 0.500 0.200
v 0.033690 0.137671 0.016336 0.180 0.500 0.200
v 0.031514 0.139313 0.019063 0.180 0.500 0.200
v 0.029357 0.140954 0.021428 0.180 0.500 0.200
v 0.027226 0.142595 0.023299 0.180 0.500 0.200
v 0.025126 0.144237 0.024572 0.180 0.500 0.200
v 0.023062 0.145878 0.025173 0.180 0.500 0.200
v 0.021035 0.147519 0.025066 0.180 0.500 0.200
v 0.019046 0.149161 0.024251 0.180 0.500 0.200
v 0.017092 0.150802 0.022765 0.180 0.500 0.200
v 0.015169 0.152443 0.020680 0.180 0.500 0.200
v 0.013273 0.154085 0.018101 0.180 0.500 0.200
v 0.011395 0.155726 0.015161 0.180 0.500 0.200
v 0.009529 0.157368 0.012016 0.180 0.500 0.200
v 0.007664 0.159009 0.008840 0.180 0.500 0.200
v 0.005790 0.160650 0.005821 0.180 0.500 0.200
v 0.003898 0.162292 0.003162 0.180 0.500 0.200
v 0.001975 0.163933 0.001094 0.180 0.500 0.200
f 531 532 533
f 531 533 532
f 531 533 534
f 531 534 533
f 531 534 535
f 531 535 534
f 531 535 536
f 531 536 535
f 531 536 537
f 531 537 536
f 531 537 538
f 531 538 537
f 531 538 539
f 531 539 538
f 531 539 540
f 531 540 539
f 531 540 541
f 531 541 540
f 531 541 542
f 531 542 541
f 531 542 543
f 531 543 542
f 531 543 544
f 531 544 543
f 531 544 545
f 531 545 544
f 531 545 546
f 531 546 545
f 531 546 547
f 531 547 546
f 531 547 548
f 531 548 547
f 531 548 549
f 531 549 548
f 531 549 550
f 531 550 549
f 531 550 551
f 531 551 550
f 531 551 552
f 531 552 551
f 531 552 553
f 531 553 552
f 531 553 554
f 531 554 553
f 531 554 555
f 531 555 554
f 531 555 556
f 531 556 555
f 531 556 557
f 531 557 556
f 531 557 558
f 531 558 557
f 531 558 559
f 531 559 558
f 531 559 560
f 531 560 559
f 531 560 561
f 531 561 560
f 531 561 562
f 531 562 561
f 531 562 563
f 531 563 562
f 531 563 564
f 531 564 563
f 531 564 565
f 531 565 564
f 531 565 566
f 531 566 565
f 531 566 567
f 531 567 566
f 531 567 568
f 531 568 567
f 531 568 569
f 531 569 568
f 531 569 570
f 531 570 569
f 531 570 571
f 531 571 570
f 531 571 572
f 531 572 571
f 531 572 573
f 531 573 572
f 531 573 574
f 531 574 573
f 531 574 575
f 531 575 574
f 531 575 576
f 531 576 575
v 0.000000 0.165574 -0.000000 0.180 0.500 0.200
v 0.002250 0.164410 -0.002469 0.180 0.500 0.200
v 0.003965 0.163245 -0.006052 0.180 0.500 0.200
v 0.005355 0.162080 -0.010311 0.180 0.500 0.200
v 0.006548 0.160916 -0.014983 0.180 0.500 0.200
v 0.007654 0.159751 -0.019834 0.180 0.500 0.200
v 0.008778 0.158587 -0.024650 0.180 0.500 0.200
v 0.010014 0.157422 -0.029231 0.180 0.500 0.200
v 0.011448 0.156257 -0.033400 0.180 0.500 0.200
v 0.013154 0.155093 -0.037002 0.180 0.500 0.200
v 0.015188 0.153928 -0.039920 0.180 0.500 0.200
v 0.017591 0.152764 -0.042069 0.180 0.500 0.200
v 0.020383 0.151599 -0.043409 0.180 0.500 0.200
v 0.023563 0.150434 -0.043938 0.180 0.500 0.200
v 0.027112 0.149270 -0.043699 0.180 0.500 0.200
v 0.030989 0.148105 -0.042775 0.180 0.500 0.200
v 0.035138 0.146940 -0.041286 0.180 0.500 0.200
v 0.039485 0.145776 -0.039383 0.180 0.500 0.200
v 0.043944 0.144611 -0.037245 0.180 0.500 0.200
v 0.048421 0.143447 -0.035073 0.180 0.500 0.200
v 0.052811 0.142282 -0.033080 0.180 0.500 0.200
v 0.057004 0.141117 -0.031499 0.180 0.500 0.200
v 0.060872 0.139953 -0.030595 0.180 0.500 0.200
v 0.064205 0.138788 -0.030805 0.180 0.500 0.200
v 0.061955 0.139953 -0.028336 0.180 0.500 0.200
v 0.060240 0.141117 -0.024753 0.180 0.500 0.200
v 0.058850 0.142282 -0.020494 0.180 0.500 0.200
v 0.057657 0.143447 -0.015822 0.180 0.500 0.200
v 0.056551 0.144611 -0.010971 0.180 0.500 0.200
v 0.055427 0.145776 -0.006155 0.180 0.500 0.200
v 0.054191 0.146940 -0.001573 0.180 0.500 0.200
v 0.052757 0.148105 0.002595 0.180 0.500 0.200
v 0.051051 0.149270 0.006197 0.180 0.500 0.200
v 0.049017 0.150434 0.009115 0.180 0.500 0.200
v 0.046614 0.151599 0.011264 0.180 0.500 0.200
v 0.043822 0.152764 0.012604 0.180 0.500 0.200
v 0.040642 0.153928 0.013133 0.180 0.500 0.200
v 0.037094 0.155093 0.012894 0.180 0.500 0.200
v 0.033216 0.156257 0.011970 0.180 0.500 0.200
v 0.029067 0.157422 0.010481 0.180 0.500 0.200
v 0.024720 0.158587 0.008578 0.180 0.500 0.200
v 0.020261 0.159751 0.006441 0.180 0.500 0.200
v 0.015784 0.160916 0.004268 0.180 0.500 0.200
v 0.011394 0.162080 0.002275 0.180 0.500 0.200
v 0.007201 0.163245 0.000694 0.180 0.500 0.200
v 0.003333 0.164410 -0.000210 0.180 0.500 0.200
f 577 578 579
f 577 579 578
f 577 579 580
f 577 580 579
f 577 580 581
f 577 581 580
f 577 581 582
f 577 582 581
f 577 582 583
f 577 583 582
f 577 583 584
f 577 584 583
f 577 584 585
f 577 585 584
f 577 585 586
f 577 586 585
f 577 586 587
f 577 587 586
f 577 587 588
f 577 588 587
f 577 588 589
f 577 589 588
f 577 589 590
f 577 590 589
f 577 590 591
f 577 591 590
f 577 591 592
f 577 592 591
f 577 592 593
f 577 593 592
f 577 593 594
f 577 594 593
f 577 594 595
f 577 595 594
f 577 595 596
f 577 596 595
f 577 596 597
f 577 597 596
f 577 597 598
f 577 598 597
f 577 598 599
f 577 599 598
f 577 599 600
f 577 600 599
f 577 600 601
f 577 601 600
f 577 601 602
f 577 602 601
f 577 602 603
f 577 603 602
f 577 603 604
f 577 604 603
f 577 604 605
f 577 605 604
f 577 605 606
f 577 606 605
f 577 606 607
f 577 607 606
f 577 607 608
f 577 608 607
f 577 608 609
f 577 609 608
f 577 609 610
f 577 610 609
f 577 610 611
f 577 611 610
f 577 611 612
f 577 612 611
f 577 612 613
f 577 613 612
f 577 613 614
f 577 614 613
f 577 614 615
f 577 615 614
f 577 615 616
f 577 616 615
f 577 616 617
f 577 617 616
f 577 617 618
f 577 618 617
f 577 618 619
f 577 619 618
f 577 619 620
f 577 620 619
f 577 620 621
f 577 621 620
f 577 621 622
f 577 622 621
v 0.000000 0.165574 -0.000000 0.180 0.500 0.200
v 0.000929 0.164252 -0.003791 0.180 0.500 0.200
v 0.000689 0.162931 -0.008423 0.180 0.500 0.200
v -0.000261 0.161609 -0.013565 0.180 0.500 0.200
v -0.001643 0.160287 -0.019018 0.180 0.500 0.200
v -0.003214 0.158965 -0.024607 0.180 0.500 0.200
v -0.004748 0.157643 -0.030169 0.180 0.500 0.200
v -0.006036 0.156321 -0.035554 0.180 0.500 0.200
v -0.006890 0.154999 -0.040627 0.180 0.500 0.200
v -0.007151 0.153678 -0.045273 0.180 0.500 0.200
v -0.006693 0.152356 -0.049403 0.180 0.500 0.200
v -0.005429 0.151034 -0.052953 0.180 0.500 0.200
v -0.003316 0.149712 -0.055892 0.180 0.500 0.200
v -0.000352 0.148390 -0.058220 0.180 0.500 0.200
v 0.003417 0.147068 -0.059969 0.180 0.500 0.200
v 0.007905 0.145746 -0.061200 0.180 0.500 0.200
v 0.012986 0.144425 -0.062005 0.180 0.500 0.200
v 0.018501 0.143103 -0.062498 0.180 0.500 0.200
v 0.024262 0.141781 -0.062815 0.180 0.500 0.200
v 0.030060 0.140459 -0.063104 0.180 0.500 0.200
v 0.035669 0.139137 -0.063529 0.180 0.500 0.200
v 0.040846 0.137815 -0.064265 0.180 0.500 0.200
v 0.045314 0.136493 -0.065512 0.180 0.500 0.200
v 0.048612 0.135172 -0.067599 0.180 0.500 0.200
v 0.047683 0.136493 -0.063808 0.180 0.500 0.200
v 0.047924 0.137815 -0.059176 0.180 0.500 0.200
v 0.048874 0.139137 -0.054034 0.180 0.500 0.200
v 0.050256 0.140459 -0.048581 0.180 0.500 0.200
v 0.051827 0.141781 -0.042992 0.180 0.500 0.200
v 0.053360 0.143103 -0.037430 0.180 0.500 0.200
v 0.054648 0.144425 -0.032045 0.180 0.500 0.200
v 0.055502 0.145746 -0.026972 0.180 0.500 0.200
v 0.055763 0.147068 -0.022325 0.180 0.500 0.200
v 0.055305 0.148390 -0.018196 0.180 0.500 0.200
v 0.054041 0.149712 -0.014645 0.180 0.500 0.200
v 0.051928 0.151034 -0.011706 0.180 0.500 0.200
v 0.048964 0.152356 -0.009379 0.180 0.500 0.200
v 0.045195 0.153678 -0.007630 0.180 0.500 0.200
v 0.040707 0.154999 -0.006399 0.180 0.500 0.200
v 0.035626 0.156321 -0.005594 0.180 0.500 0.200
v 0.030111 0.157643 -0.005100 0.180 0.500 0.200
v 0.024350 0.158965 -0.004784 0.180 0.500 0.200
v 0.018552 0.160287 -0.004495 0.180 0.500 0.200
v 0.012943 0.161609 -0.004069 0.180 0.500 0.200
v 0.007766 0.162931 -0.003333 0.180 0.500 0.200
v 0.003298 0.164252 -0.002087 0.180 0.500 0.200
f 623 624 625
f 623 625 624
f 623 625 626
f 623 626 625
f 623 626 627
f 623 627 626
f 623 627 628
f 623 628 627
f 623 628 629
f 623 629 628
f 623 629 630
f 623 630 629
f 623 630 631
f 623 631 630
f 623 631 632
f 623 632 631
f 623 632 633
f 623 633 632
f 623 633 634
f 623 634 633
f 623 634 635
f 623 635 634
f 623 635 636
f 623 636 635
f 623 636 637
f 623 637 636
f 623 637 638
f 623 638 637
f 623 638 639
f 623 639 638
f 623 639 640
f 623 640 639
f 623 640 641
f 623 641 640
f 623 641 642
f 623 642 641
f 623 642 643
f 623 643 642
f 623 643 644
f 623 644 643
f 623 644 645
f 623 645 644
f 623 645 646
f 623 646 645
f 623 646 647
f 623 647 646
f 623 647 648
f 623 648 647
f 623 648 649
f 623 649 648
f 623 649 650
f 623 650 649
f 623 650 651
f 623 651 650
f 623 651 652
f 623 652 651
f 623 652 653
f 623 653 652
f 623 653 654
f 623 654 653
f 623 654 655
f 623 655 654
f 623 655 656
f 623 656 655
f 623 656 657
f 623 657 656
f 623 657 658
f 623 658 657
f 623 658 659
f 623 659 658
f 623 659 660
f 623 660 659
f 623 660 661
f 623 661 660
f 623 661 662
f 623 662 661
f 623 662 663
f 623 663 662
f 623 663 664
f 623 664 663
f 623 664 665
f 623 665 664
f 623 665 666
f 623 666 665
f 623 666 667
f 623 667 666
f 623 667 668
f 623 668 667
v 0.000000 0.303553 -0.000000 0.180 0.500 0.200
v -0.002504 0.302292 0.002517 0.180 0.500 0.200
v -0.004493 0.301031 0.006245 0.180 0.500 0.200
v -0.006169 0.299769 0.010708 0.180 0.500 0.200
v -0.007654 0.298508 0.015620 0.180 0.500 0.200
v -0.009055 0.297247 0.020726 0.180 0.500 0.200
v -0.010473 0.295986 0.025795 0.180 0.500 0.200
v -0.012000 0.294725 0.030608 0.180 0.500 0.200
v -0.013718 0.293463 0.034972 0.180 0.500 0.200
v -0.015697 0.292202 0.038722 0.180 0.500 0.200
v -0.017994 0.290941 0.041726 0.180 0.500 0.200
v -0.020647 0.289680 0.043896 0.180 0.500 0.200
v -0.023674 0.288419 0.045185 0.180 0.500 0.200
v -0.027076 0.287157 0.045594 0.180 0.500 0.200
v -0.030834 0.285896 0.045167 0.180 0.500 0.200
v -0.034909 0.284635 0.043996 0.180 0.500 0.200
v -0.039246 0.283374 0.042210 0.180 0.500 0.200
v -0.043774 0.282113 0.039975 0.180 0.500 0.200
v -0.048410 0.280851 0.037485 0.180 0.500 0.200
v -0.053063 0.279590 0.034956 0.180 0.500 0.200
v -0.057633 0.278329 0.032623 0.180 0.500 0.200
v -0.062012 0.277068 0.030738 0.180 0.500 0.200
v -0.066078 0.275807 0.029588 0.180 0.500 0.200
v -0.069628 0.274545 0.029650 0.180 0.500 0.200
v -0.067124 0.275807 0.027133 0.180 0.500 0.200
v -0.065135 0.277068 0.023405 0.180 0.500 0.200
v -0.063459 0.278329 0.018941 0.180 0.500 0.200
v -0.061974 0.279590 0.014030 0.180 0.500 0.200
v -0.060573 0.280851 0.008923 0.180 0.500 0.200
v -0.059155 0.282113 0.003855 0.180 0.500 0.200
v -0.057628 0.283374 -0.000959 0.180 0.500 0.200
v -0.055910 0.284635 -0.005323 0.180 0.500 0.200
v -0.053931 0.285896 -0.009072 0.180 0.500 0.200
v -0.051634 0.287157 -0.012077 0.180 0.500 0.200
v -0.048982 0.288419 -0.014247 0.180 0.500 0.200
v -0.045954 0.289680 -0.015536 0.180 0.500 0.200
v -0.042552 0.290941 -0.015944 0.180 0.500 0.200
v -0.038794 0.292202 -0.015518 0.180 0.500 0.200
v -0.034719 0.293463 -0.014346 0.180 0.500 0.200
v -0.030382 0.294725 -0.012561 0.180 0.500 0.200
v -0.025854 0.295986 -0.010326 0.180 0.500 0.200
v -0.021218 0.297247 -0.007835 0.180 0.500 0.200
v -0.016565 0.298508 -0.005307 0.180 0.500 0.200
v -0.011995 0.299769 -0.002974 0.180 0.500 0.200
v -0.007616 0.301031 -0.001088 0.180 0.500 0.200
v -0.003550 0.302292 0.000061 0.180 0.500 0.200
f 669 670 671
f 669 671 670
f 669 671 672
f 669 672 671
f 669 672 673
f 669 673 672
f 669 673 674
f 669 674 673
f 669 674 675
f 669 675 674
f 669 675 676
f 669 676 675
f 669 676 677
f 669 677 676
f 669 677 678
f 669 678 677
f 669 678 679
f 669 679 678
f 669 679 680
f 669 680 679
f 669 680 681
f 669 681 680
f 669 681 682
f 669 682 681
f 669 682 683
f 669 683 682
f 669 683 684
f 669 684 683
f 669 684 685
f 669 685 684
f 669 685 686
f 669 686 685
f 669 686 687
f 669 687 686
f 669 687 688
f 669 688 687
f 669 688 689
f 669 689 688
f 669 689 690
f 669 690 689
f 669 690 691
f 669 691 690
f 669 691 692
f 669 692 691
f 669 692 693
f 669 693 692
f 669 693 694
f 669 694 693
f 669 694 695
f 669 695 694
f 669 695 696
f 669 696 695
f 669 696 697
f 669 697 696
f 669 697 698
f 669 698 697
f 669 698 699
f 669 699 698
f 669 699 700
f 669 700 699
f 669 700 701
f 669 701 700
f 669 701 702
f 669 702 701
f 669 702 703
f 669 703 702
f 669 703 704
f 669 704 703
f 669 704 705
f 669 705 704
f 669 705 706
f 669 706 705
f 669 706 707
f 669 707 706
f 669 707 708
f 669 708 707
f 669 708 709
f 669 709 708
f 669 709 710
f 669 710 709
f 669 710 711
f 669 711 710
f 669 711 712
f 669 712 711
f 669 712 713
f 669 713 712
f 669 713 714
f 669 714 713
v 0.000000 0.303553 -0.000000 0.180 0.500 0.200
v -0.000714 0.301350 0.003129 0.180 0.500 0.200
v -0.000360 0.299147 0.007101 0.180 0.500 0.200
v 0.000642 0.296943 0.011585 0.180 0.500 0.200
v 0.002039 0.294740 0.016380 0.180 0.500 0.200
v 0.003608 0.292537 0.021312 0.180 0.500 0.200
v 0.005144 0.290334 0.026216 0.180 0.500 0.200
v 0.006454 0.288131 0.030943 0.180 0.500 0.200
v 0.007369 0.285927 0.035358 0.180 0.500 0.200
v 0.007742 0.283724 0.039345 0.180 0.500 0.200
v 0.007458 0.281521 0.042813 0.180 0.500 0.200
v 0.006438 0.279318 0.045701 0.180 0.500 0.200
v 0.004643 0.277115 0.047976 0.180 0.500 0.200
v 0.002070 0.274912 0.049638 0.180 0.500 0.200
v -0.001238 0.272708 0.050720 0.180 0.500 0.200
v -0.005202 0.270505 0.051283 0.180 0.500 0.200
v -0.009708 0.268302 0.051419 0.180 0.500 0.200
v -0.014610 0.266099 0.051242 0.180 0.500 0.200
v -0.019738 0.263896 0.050887 0.180 0.500 0.200
v -0.024898 0.261692 0.050506 0.180 0.500 0.200
v -0.029887 0.259489 0.050261 0.180 0.500 0.200
v -0.034481 0.257286 0.050327 0.180 0.500 0.200
v -0.038426 0.255083 0.050905 0.180 0.500 0.200
v -0.041304 0.252880 0.052326 0.180 0.500 0.200
v -0.040591 0.255083 0.049197 0.180 0.500 0.200
v -0.040945 0.257286 0.045225 0.180 0.500 0.200
v -0.041947 0.259489 0.040741 0.180 0.500 0.200
v -0.043344 0.261692 0.035946 0.180 0.500 0.200
v -0.044913 0.263896 0.031014 0.180 0.500 0.200
v -0.046448 0.266099 0.026110 0.180 0.500 0.200
v -0.047759 0.268302 0.021383 0.180 0.500 0.200
v -0.048673 0.270505 0.016968 0.180 0.500 0.200
v -0.049046 0.272708 0.012981 0.180 0.500 0.200
v -0.048762 0.274912 0.009513 0.180 0.500 0.200
v -0.047743 0.277115 0.006625 0.180 0.500 0.200
v -0.045947 0.279318 0.004350 0.180 0.500 0.200
v -0.043375 0.281521 0.002687 0.180 0.500 0.200
v -0.040067 0.283724 0.001606 0.180 0.500 0.200
v -0.036102 0.285927 0.001043 0.180 0.500 0.200
v -0.031596 0.288131 0.000907 0.180 0.500 0.200
v -0.026694 0.290334 0.001084 0.180 0.500 0.200
v -0.021567 0.292537 0.001439 0.180 0.500 0.200
v -0.016406 0.294740 0.001820 0.180 0.500 0.200
v -0.011418 0.296943 0.002065 0.180 0.500 0.200
v -0.006824 0.299147 0.001999 0.180 0.500 0.200
v -0.002878 0.301350 0.001421 0.180 0.500 0.200
f 715 716 717
f 715 717 716
f 715 717 718
f 715 718 717
f 715 718 719
f 715 719 718
f 715 719 720
f 715 720 719
f 715 720 721
f 715 721 720
f 715 721 722
f 715 722 721
f 715 722 723
f 715 723 722
f 715 723 724
f 715 724 723
f 715 724 725
f 715 725 724
f 715 725 726
f 715 726 725
f 715 726 727
f 715 727 726
f 715 727 728
f 715 728 727
f 715 728 729
f 715 729 728
f 715 729 730
f 715 730 729
f 715 730 731
f 715 731 730
f 715 731 732
f 715 732 731
f 715 732 733
f 715 733 732
f 715 733 734
f 715 734 733
f 715 734 735
f 715 735 734
f 715 735 736
f 715 736 735
f 715 736 737
f 715 737 736
f 715 737 738
f 715 738 737
f 715 738 739
f 715 739 738
f 715 739 740
f 715 740 739
f 715 740 741
f 715 741 740
f 715 741 742
f 715 742 741
f 715 742 743
f 715 743 742
f 715 743 744
f 715 744 743
f 715 744 745
f 715 745 744
f 715 745 746
f 715 746 745
f 715 746 747
f 715 747 746
f 715 747 748
f 715 748 747
f 715 748 749
f 715 749 748
f 715 749 750
f 715 750 749
f 715 750 751
f 715 751 750
f 715 751 752
f 715 752 751
f 715 752 753
f 715 753 752
f 715 753 754
f 715 754 753
f 715 754 755
f 715 755 754
f 715 755 756
f 715 756 755
f 715 756 757
f 715 757 756
f 715 757 758
f 715 758 757
f 715 758 759
f 715 759 758
f 715 759 760
f 715 760 759
v 0.000000 0.303553 -0.000000 0.180 0.500 0.200
v 0.000676 0.302010 0.002633 0.180 0.500 0.200
v 0.002428 0.300466 0.005449 0.180 0.500 0.200
v 0.004834 0.298923 0.008375 0.180 0.500 0.200
v 0.007638 0.297380 0.011370 0.180 0.500 0.200
v 0.010616 0.295836 0.014394 0.180 0.500 0.200
v 0.013560 0.294293 0.017412 0.180 0.500 0.200
v 0.016277 0.292750 0.020391 0.180 0.500 0.200
v 0.018595 0.291207 0.023303 0.180 0.500 0.200
v 0.020366 0.289663 0.026122 0.180 0.500 0.200
v 0.021475 0.288120 0.028829 0.180 0.500 0.200
v 0.021843 0.286577 0.031409 0.180 0.500 0.200
v 0.021427 0.285033 0.033857 0.180 0.500 0.200
v 0.020228 0.283490 0.036172 0.180 0.500 0.200
v 0.018288 0.281947 0.038360 0.180 0.500 0.200
v 0.015685 0.280403 0.040436 0.180 0.500 0.200
v 0.012536 0.278860 0.042420 0.180 0.500 0.200
v 0.008988 0.277317 0.044335 0.180 0.500 0.200
v 0.005212 0.275773 0.046212 0.180 0.500 0.200
v 0.001403 0.274230 0.048083 0.180 0.500 0.200
v -0.002232 0.272687 0.049984 0.180 0.500 0.200
v -0.005470 0.271144 0.051953 0.180 0.500 0.200
v -0.008053 0.269600 0.054032 0.180 0.500 0.200
v -0.009560 0.268057 0.056294 0.180 0.500 0.200
v -0.010236 0.269600 0.053661 0.180 0.500 0.200
v -0.011988 0.271144 0.050845 0.180 0.500 0.200
v -0.014395 0.272687 0.047919 0.180 0.500 0.200
v -0.017199 0.274230 0.044924 0.180 0.500 0.200
v -0.020177 0.275773 0.041900 0.180 0.500 0.200
v -0.023120 0.277317 0.038882 0.180 0.500 0.200
v -0.025838 0.278860 0.035903 0.180 0.500 0.200
v -0.028155 0.280403 0.032991 0.180 0.500 0.200
v -0.029927 0.281947 0.030172 0.180 0.500 0.200
v -0.031036 0.283490 0.027465 0.180 0.500 0.200
v -0.031403 0.285033 0.024885 0.180 0.500 0.200
v -0.030987 0.286577 0.022437 0.180 0.500 0.200
v -0.029789 0.288120 0.020123 0.180 0.500 0.200
v -0.027848 0.289663 0.017934 0.180 0.500 0.200
v -0.025246 0.291207 0.015858 0.180 0.500 0.200
v -0.022097 0.292750 0.013874 0.180 0.500 0.200
v -0.018548 0.294293 0.011959 0.180 0.500 0.200
v -0.014773 0.295836 0.010082 0.180 0.500 0.200
v -0.010964 0.297380 0.008211 0.180 0.500 0.200
v -0.007328 0.298923 0.006310 0.180 0.500 0.200
v -0.004091 0.300466 0.004342 0.180 0.500 0.200
v -0.001507 0.302010 0.002262 0.180 0.500 0.200
f 761 762 763
f 761 763 762
f 761 763 764
f 761 764 763
f 761 764 765
f 761 765 764
f 761 765 766
f 761 766 765
f 761 766 767
f 761 767 766
f 761 767 768
f 761 768 767
f 761 768 769
f 761 769 768
f 761 769 770
f 761 770 769
f 761 770 771
f 761 771 770
f 761 771 772
f 761 772 771
f 761 772 773
f 761 773 772
f 761 773 774
f 761 774 773
f 761 774 775
f 761 775 774
f 761 775 776
f 761 776 775
f 761 776 777
f 761 777 776
f 761 777 778
f 761 778 777
f 761 778 779
f 761 779 778
f 761 779 780
f 761 780 779
f 761 780 781
f 761 781 780
f 761 781 782
f 761 782 781
f 761 782 783
f 761 783 782
f 761 783 784
f 761 784 783
f 761 784 785
f 761 785 784
f 761 785 786
f 761 786 785
f 761 786 787
f 761 787 786
f 761 787 788
f 761 788 787
f 761 788 789
f 761 789 788
f 761 789 790
f 761 790 789
f 761 790 791
f 761 791 790
f 761 791 792
f 761 792 791
f 761 792 793
f 761 793 792
f 761 793 794
f 761 794 793
f 761 794 795
f 761 795 794
f 761 795 796
f 761 796 795
f 761 796 797
f 761 797 796
f 761 797 798
f 761 798 797
f 761 798 799
f 761 799 798
f 761 799 800
f 761 800 799
f 761 800 801
f 761 801 800
f 761 801 802
f 761 802 801
f 761 802 803
f 761 803 802
f 761 803 804
f 761 804 803
f 761 804 805
f 761 805 804
f 761 805 806
f 761 806 805
v 0.000000 0.430493 -0.000000 0.180 0.500 0.200
v -0.002910 0.429164 0.000180 0.180 0.500 0.200
v -0.006192 0.427834 0.001415 0.180 0.500 0.200
v -0.009699 0.426504 0.003292 0.180 0.500 0.200
v -0.013343 0.425175 0.005559 0.180 0.500 0.200
v -0.017047 0.423845 0.007997 0.180 0.500 0.200
v -0.020740 0.422515 0.010402 0.180 0.500 0.200
v -0.024354 0.421186 0.012584 0.180 0.500 0.200
v -0.027831 0.419856 0.014374 0.180 0.500 0.200
v -0.031119 0.418526 0.015629 0.180 0.500 0.200
v -0.034179 0.417197 0.016233 0.180 0.500 0.200
v -0.036982 0.415867 0.016110 0.180 0.500 0.200
v -0.039516 0.414537 0.015219 0.180 0.500 0.200
v -0.041779 0.413208 0.013560 0.180 0.500 0.200
v -0.043787 0.411878 0.011173 0.180 0.500 0.200
v -0.045566 0.410549 0.008137 0.180 0.500 0.200
v -0.047156 0.409219 0.004564 0.180 0.500 0.200
v -0.048609 0.407889 0.000600 0.180 0.500 0.200
v -0.049984 0.406560 -0.003586 0.180 0.500 0.200
v -0.051346 0.405230 -0.007807 0.180 0.500 0.200
v -0.052769 0.403900 -0.011856 0.180 0.500 0.200
v -0.054329 0.402571 -0.015515 0.180 0.500 0.200
v -0.056115 0.401241 -0.018533 0.180 0.500 0.200
v -0.058272 0.399911 -0.020494 0.180 0.500 0.200
v -0.055362 0.401241 -0.020674 0.180 0.500 0.200
v -0.052080 0.402571 -0.021910 0.180 0.500 0.200
v -0.048573 0.403900 -0.023787 0.180 0.500 0.200
v -0.044929 0.405230 -0.026054 0.180 0.500 0.200
v -0.041224 0.406560 -0.028492 0.180 0.500 0.200
v -0.037532 0.407889 -0.030896 0.180 0.500 0.200
v -0.033917 0.409219 -0.033078 0.180 0.500 0.200
v -0.030441 0.410549 -0.034869 0.180 0.500 0.200
v -0.027153 0.411878 -0.036123 0.180 0.500 0.200
v -0.024093 0.413208 -0.036728 0.180 0.500 0.200
v -0.021289 0.414537 -0.036605 0.180 0.500 0.200
v -0.018756 0.415867 -0.035714 0.180 0.500 0.200
v -0.016492 0.417197 -0.034055 0.180 0.500 0.200
v -0.014485 0.418526 -0.031668 0.180 0.500 0.200
v -0.012706 0.419856 -0.028631 0.180 0.500 0.200
v -0.011115 0.421186 -0.025059 0.180 0.500 0.200
v -0.009663 0.422515 -0.021095 0.180 0.500 0.200
v -0.008288 0.423845 -0.016908 0.180 0.500 0.200
v -0.006925 0.425175 -0.012688 0.180 0.500 0.200
v -0.005503 0.426504 -0.008639 0.180 0.500 0.200
v -0.003943 0.427834 -0.004979 0.180 0.500 0.200
v -0.002157 0.429164 -0.001962 0.180 0.500 0.200
f 807 808 809
f 807 809 808
f 807 809 810
f 807 810 809
f 807 810 811
f 807 811 810
f 807 811 812
f 807 812 811
f 807 812 813
f 807 813 812
f 807 813 814
f 807 814 813
f 807 814 815
f 807 815 814
f 807 815 816
f 807 816 815
f 807 816 817
f 807 817 816
f 807 817 818
f 807 818 817
f 807 818 819
f 807 819 818
f 807 819 820
f 807 820 819
f 807 820 821
f 807 821 820
f 807 821 822
f 807 822 821
f 807 822 823
f 807 823 822
f 807 823 824
f 807 824 823
f 807 824 825
f 807 825 824
f 807 825 826
f 807 826 825
f 807 826 827
f 807 827 826
f 807 827 828
f 807 828 827
f 807 828 829
f 807 829 828
f 807 829 830
f 807 830 829
f 807 830 831
f 807 831 830
f 807 831 832
f 807 832 831
f 807 832 833
f 807 833 832
f 807 833 834
f 807 834 833
f 807 834 835
f 807 835 834
f 807 835 836
f 807 836 835
f 807 836 837
f 807 837 836
f 807 837 838
f 807 838 837
f 807 838 839
f 807 839 838
f 807 839 840
f 807 840 839
f 807 840 841
f 807 841 840
f 807 841 842
f 807 842 841
f 807 842 843
f 807 843 842
f 807 843 844
f 807 844 843
f 807 844 845
f 807 845 844
f 807 845 846
f 807 846 845
f 807 846 847
f 807 847 846
f 807 847 848
f 807 848 847
f 807 848 849
f 807 849 848
f 807 849 850
f 807 850 849
f 807 850 851
f 807 851 850
f 807 851 852
f 807 852 851
v 0.000000 0.430493 -0.000000 0.180 0.500 0.200
v -0.002284 0.428794 0.001533 0.180 0.500 0.200
v -0.004386 0.427095 0.004181 0.180 0.500 0.200
v -0.006378 0.425395 0.007506 0.180 0.500 0.200
v -0.008302 0.423696 0.011243 0.180 0.500 0.200
v -0.010197 0.421997 0.015161 0.180 0.500 0.200
v -0.012098 0.420297 0.019043 0.180 0.500 0.200
v -0.014037 0.418598 0.022690 0.180 0.500 0.200
v -0.016044 0.416899 0.025923 0.180 0.500 0.200
v -0.018143 0.415199 0.028591 0.180 0.500 0.200
v -0.020353 0.413500 0.030573 0.180 0.500 0.200
v -0.022690 0.411801 0.031787 0.180 0.500 0.200
v -0.025158 0.410101 0.032190 0.180 0.500 0.200
v -0.027759 0.408402 0.031782 0.180 0.500 0.200
v -0.030486 0.406703 0.030606 0.180 0.500 0.200
v -0.033324 0.405003 0.028744 0.180 0.500 0.200
v -0.036255 0.403304 0.026317 0.180 0.500 0.200
v -0.039253 0.401605 0.023475 0.180 0.500 0.200
v -0.042289 0.399905 0.020399 0.180 0.500 0.200
v -0.045332 0.398206 0.017288 0.180 0.500 0.200
v -0.048344 0.396507 0.014357 0.180 0.500 0.200
v -0.051290 0.394807 0.011837 0.180 0.500 0.200
v -0.054125 0.393108 0.009995 0.180 0.500 0.200
v -0.056778 0.391409 0.009268 0.180 0.500 0.200
v -0.054494 0.393108 0.007735 0.180 0.500 0.200
v -0.052392 0.394807 0.005087 0.180 0.500 0.200
v -0.050400 0.396507 0.001762 0.180 0.500 0.200
v -0.048476 0.398206 -0.001975 0.180 0.500 0.200
v -0.046581 0.399905 -0.005893 0.180 0.500 0.200
v -0.044680 0.401605 -0.009775 0.180 0.500 0.200
v -0.042741 0.403304 -0.013422 0.180 0.500 0.200
v -0.040735 0.405003 -0.016655 0.180 0.500 0.200
v -0.038636 0.406703 -0.019323 0.180 0.500 0.200
v -0.036425 0.408402 -0.021305 0.180 0.500 0.200
v -0.034089 0.410101 -0.022519 0.180 0.500 0.200
v -0.031620 0.411801 -0.022922 0.180 0.500 0.200
v -0.029019 0.413500 -0.022514 0.180 0.500 0.200
v -0.026293 0.415199 -0.021338 0.180 0.500 0.200
v -0.023454 0.416899 -0.019476 0.180 0.500 0.200
v -0.020524 0.418598 -0.017048 0.180 0.500 0.200
v -0.017525 0.420297 -0.014207 0.180 0.500 0.200
v -0.014489 0.421997 -0.011131 0.180 0.500 0.200
v -0.011447 0.423696 -0.008020 0.180 0.500 0.200
v -0.008434 0.425395 -0.005089 0.180 0.500 0.200
v -0.005488 0.427095 -0.002569 0.180 0.500 0.200
v -0.002653 0.428794 -0.000727 0.180 0.500 0.200
f 853 854 855
f 853 855 854
f 853 855 856
f 853 856 855
f 853 856 857
f 853 857 856
f 853 857 858
f 853 858 857
f 853 858 859
f 853 859 858
f 853 859 860
f 853 860 859
f 853 860 861
f 853 861 860
f 853 861 862
f 853 862 861
f 853 862 863
f 853 863 862
f 853 863 864
f 853 864 863
f 853 864 865
f 853 865 864
f 853 865 866
f 853 866 865
f 853 866 867
f 853 867 866
f 853 867 868
f 853 868 867
f 853 868 869
f 853 869 868
f 853 869 870
f 853 870 869
f 853 870 871
f 853 871 870
f 853 871 872
f 853 872 871
f 853 872 873
f 853 873 872
f 853 873 874
f 853 874 873
f 853 874 875
f 853 875 874
f 853 875 876
f 853 876 875
f 853 876 877
f 853 877 876
f 853 877 878
f 853 878 877
f 853 878 879
f 853 879 878
f 853 879 880
f 853 880 879
f 853 880 881
f 853 881 880
f 853 881 882
f 853 882 881
f 853 882 883
f 853 883 882
f 853 883 884
f 853 884 883
f 853 884 885
f 853 885 884
f 853 885 886
f 853 886 885
f 853 886 887
f 853 887 886
f 853 887 888
f 853 888 887
f 853 888 889
f 853 889 888
f 853 889 890
f 853 890 889
f 853 890 891
f 853 891 890
f 853 891 892
f 853 892 891
f 853 892 893
f 853 893 892
f 853 893 894
f 853 894 893
f 853 894 895
f 853 895 894
f 853 895 896
f 853 896 895
f 853 896 897
f 853 897 896
f 853 897 898
f 853 898 897
v 0.000000 0.430493 -0.000000 0.180 0.500 0.200
v -0.001114 0.428959 0.002158 0.180 0.500 0.200
v -0.001612 0.427425 0.005107 0.180 0.500 0.200
v -0.001735 0.425891 0.008537 0.180 0.500 0.200
v -0.001630 0.424356 0.012259 0.180 0.500 0.200
v -0.001426 0.422822 0.016110 0.180 0.500 0.200
v -0.001241 0.421288 0.019935 0.180 0.500 0.200
v -0.001186 0.419754 0.023594 0.180 0.500 0.200
v -0.001360 0.418219 0.026959 0.180 0.500 0.200
v -0.001847 0.416685 0.029922 0.180 0.500 0.200
v -0.002713 0.415151 0.032399 0.180 0.500 0.200
v -0.004004 0.413617 0.034330 0.180 0.500 0.200
v -0.005743 0.412082 0.035685 0.180 0.500 0.200
v -0.007931 0.410548 0.036464 0.180 0.500 0.200
v -0.010544 0.409014 0.036698 0.180 0.500 0.200
v -0.013536 0.407480 0.036445 0.180 0.500 0.200
v -0.016842 0.405945 0.035790 0.180 0.500 0.200
v -0.020376 0.404411 0.034841 0.180 0.500 0.200
v -0.024040 0.402877 0.033726 0.180 0.500 0.200
v -0.027723 0.401343 0.032586 0.180 0.500 0.200
v -0.031307 0.399808 0.031573 0.180 0.500 0.200
v -0.034663 0.398274 0.030853 0.180 0.500 0.200
v -0.037644 0.396740 0.030614 0.180 0.500 0.200
v -0.040009 0.395206 0.031167 0.180 0.500 0.200
v -0.038894 0.396740 0.029009 0.180 0.500 0.200
v -0.038397 0.398274 0.026060 0.180 0.500 0.200
v -0.038274 0.399808 0.022630 0.180 0.500 0.200
v -0.038378 0.401343 0.018908 0.180 0.500 0.200
v -0.038583 0.402877 0.015057 0.180 0.500 0.200
v -0.038768 0.404411 0.011232 0.180 0.500 0.200
v -0.038823 0.405945 0.007573 0.180 0.500 0.200
v -0.038649 0.407480 0.004208 0.180 0.500 0.200
v -0.038162 0.409014 0.001245 0.180 0.500 0.200
v -0.037296 0.410548 -0.001232 0.180 0.500 0.200
v -0.036005 0.412082 -0.003163 0.180 0.500 0.200
v -0.034266 0.413617 -0.004518 0.180 0.500 0.200
v -0.032078 0.415151 -0.005297 0.180 0.500 0.200
v -0.029465 0.416685 -0.005531 0.180 0.500 0.200
v -0.026472 0.418219 -0.005278 0.180 0.500 0.200
v -0.023167 0.419754 -0.004623 0.180 0.500 0.200
v -0.019633 0.421288 -0.003674 0.180 0.500 0.200
v -0.015969 0.422822 -0.002559 0.180 0.500 0.200
v -0.012286 0.424356 -0.001419 0.180 0.500 0.200
v -0.008702 0.425891 -0.000406 0.180 0.500 0.200
v -0.005346 0.427425 0.000313 0.180 0.500 0.200
v -0.002365 0.428959 0.000553 0.180 0.500 0.200
f 899 900 901
f 899 901 900
f 899 901 902
f 899 902 901
f 899 902 903
f 899 903 902
f 899 903 904
f 899 904 903
f 899 904 905
f 899 905 904
f 899 905 906
f 899 906 905
f 899 906 907
f 899 907 906
f 899 907 908
f 899 908 907
f 899 908 909
f 899 909 908
f 899 909 910
f 899 910 909
f 899 910 911
f 899 911 910
f 899 911 912
f 899 912 911
f 899 912 913
f 899 913 912
f 899 913 914
f 899 914 913
f 899 914 915
f 899 915 914
f 899 915 916
f 899 916 915
f 899 916 917
f 899 917 916
f 899 917 918
f 899 918 917
f 899 918 919
f 899 919 918
f 899 919 920
f 899 920 919
f 899 920 921
f 899 921 920
f 899 921 922
f 899 922 921
f 899 922 923
f 899 923 922
f 899 923 924
f 899 924 923
f 899 924 925
f 899 925 924
f 899 925 926
f 899 926 925
f 899 926 927
f 899 927 926
f 899 927 928
f 899 928 927
f 899 928 929
f 899 929 928
f 899 929 930
f 899 930 929
f 899 930 931
f 899 931 930
f 899 931 932
f 899 932 931
f 899 932 933
f 899 933 932
f 899 933 934
f 899 934 933
f 899 934 935
f 899 935 934
f 899 935 936
f 899 936 935
f 899 936 937
f 899 937 936
f 899 937 938
f 899 938 937
f 899 938 939
f 899 939 938
f 899 939 940
f 899 940 939
f 899 940 941
f 899 941 940
f 899 941 942
f 899 942 941
f 899 942 943
f 899 943 942
f 899 943 944
f 899 944 943
