o mesh
v 1.783101 0.315000 -1.505323
v 1.712564 0.315000 -1.675614
v 1.542274 0.315000 -1.746151
v 1.371983 0.315000 -1.675614
v 1.301446 0.315000 -1.505323
v 1.371983 0.315000 -1.335032
v 1.542274 0.315000 -1.264496
v 1.712564 0.315000 -1.335032
v 1.542274 0.315000 -1.505323
f 9 1 2
f 9 2 3
f 9 3 4
f 9 4 5
f 9 5 6
f 9 6 7
f 9 7 8
f 9 8 1
v -0.371201 0.315000 -2.015301
v -0.484663 0.315000 -2.289222
v -0.758583 0.315000 -2.402683
v -1.032503 0.315000 -2.289222
v -1.145964 0.315000 -2.015301
v -1.032503 0.315000 -1.741381
v -0.758583 0.315000 -1.627920
v -0.484663 0.315000 -1.741381
v -0.758583 0.315000 -2.015301
f 18 10 11
f 18 11 12
f 18 12 13
f 18 13 14
f 18 14 15
f 18 15 16
f 18 16 17
f 18 17 10
v -1.741558 0.315000 -0.666549
v -1.821003 0.315000 -0.858346
v -2.012800 0.315000 -0.937790
v -2.204596 0.315000 -0.858346
v -2.284041 0.315000 -0.666549
v -2.204596 0.315000 -0.474752
v -2.012800 0.315000 -0.395307
v -1.821003 0.315000 -0.474752
v -2.012800 0.315000 -0.666549
f 27 19 20
f 27 20 21
f 27 21 22
f 27 22 23
f 27 23 24
f 27 24 25
f 27 25 26
f 27 26 19
v -1.777368 0.315000 0.973488
v -1.853409 0.315000 0.789910
v -2.036987 0.315000 0.713869
v -2.220565 0.315000 0.789910
v -2.296605 0.315000 0.973488
v -2.220565 0.315000 1.157066
v -2.036987 0.315000 1.233107
v -1.853409 0.315000 1.157066
v -2.036987 0.315000 0.973488
f 36 28 29
f 36 29 30
f 36 30 31
f 36 31 32
f 36 32 33
f 36 33 34
f 36 34 35
f 36 35 28
v 1.620993 0.315000 1.773497
v 1.564681 0.315000 1.637548
v 1.428732 0.315000 1.581236
v 1.292783 0.315000 1.637548
v 1.236472 0.315000 1.773497
v 1.292783 0.315000 1.909446
v 1.428732 0.315000 1.965757
v 1.564681 0.315000 1.909446
v 1.428732 0.315000 1.773497
f 45 37 38
f 45 38 39
f 45 39 40
f 45 40 41
f 45 41 42
f 45 42 43
f 45 43 44
f 45 44 37
v 1.790184 0.315000 1.517840
v 1.732340 0.315000 1.378192
v 1.592692 0.315000 1.320348
v 1.453044 0.315000 1.378192
v 1.395200 0.315000 1.517840
v 1.453044 0.315000 1.657488
v 1.592692 0.315000 1.715332
v 1.732340 0.315000 1.657488
v 1.592692 0.315000 1.517840
f 54 46 47
f 54 47 48
f 54 48 49
f 54 49 50
f 54 50 51
f 54 51 52
f 54 52 53
f 54 53 46
v 2.349782 0.315000 -1.060748
v 2.232893 0.315000 -1.342942
v 1.950698 0.315000 -1.459831
v 1.668503 0.315000 -1.342942
v 1.551614 0.315000 -1.060748
v 1.668503 0.315000 -0.778553
v 1.950698 0.315000 -0.661664
v 2.232893 0.315000 -0.778553
v 1.950698 0.315000 -1.060748
f 63 55 56
f 63 56 57
f 63 57 58
f 63 58 59
f 63 59 60
f 63 60 61
f 63 61 62
f 63 62 55
