o mesh
v 0.000000 0.000000 0.015000
v 0.008817 0.000000 0.012135
v 0.014266 0.000000 0.004635
v 0.014266 0.000000 -0.004635
v 0.008817 0.000000 -0.012135
v 0.000000 0.000000 -0.015000
v -0.008817 0.000000 -0.012135
v -0.014266 0.000000 -0.004635
v -0.014266 0.000000 0.004635
v -0.008817 0.000000 0.012135
v 0.000000 0.400000 0.010200
v 0.005995 0.400000 0.008252
v 0.009701 0.400000 0.003152
v 0.009701 0.400000 -0.003152
v 0.005995 0.400000 -0.008252
v 0.000000 0.400000 -0.010200
v -0.005995 0.400000 -0.008252
v -0.009701 0.400000 -0.003152
v -0.009701 0.400000 0.003152
v -0.005995 0.400000 0.008252
f 1 2 12
f 1 12 11
f 2 3 13
f 2 13 12
f 3 4 14
f 3 14 13
f 4 5 15
f 4 15 14
f 5 6 16
f 5 16 15
f 6 7 17
f 6 17 16
f 7 8 18
f 7 18 17
f 8 9 19
f 8 19 18
f 9 10 20
f 9 20 19
f 10 1 11
f 10 11 20
v -0.001888 0.400000 0.010024
v 0.002939 0.403909 0.008951
v 0.006644 0.406325 0.004459
v 0.007811 0.406325 -0.001736
v 0.005995 0.403909 -0.007268
v 0.001888 0.400000 -0.010024
v -0.002939 0.396091 -0.008951
v -0.006644 0.393675 -0.004459
v -0.007811 0.393675 0.001736
v -0.005995 0.396091 0.007268
v -0.194695 0.628852 -0.029622
v -0.191413 0.631510 -0.030351
v -0.188893 0.633153 -0.033406
v -0.188100 0.633153 -0.037618
v -0.189335 0.631510 -0.041380
v -0.192127 0.628852 -0.043254
v -0.195410 0.626194 -0.042524
v -0.197929 0.624551 -0.039470
v -0.198723 0.624551 -0.035258
v -0.197488 0.626194 -0.031496
f 21 22 32
f 21 32 31
f 22 23 33
f 22 33 32
f 23 24 34
f 23 34 33
f 24 25 35
f 24 35 34
f 25 26 36
f 25 36 35
f 26 27 37
f 26 37 36
f 27 28 38
f 27 38 37
f 28 29 39
f 28 39 38
f 29 30 40
f 29 40 39
f 30 21 31
f 30 31 40
v -0.194437 0.628852 -0.029578
v -0.194507 0.632920 -0.030928
v -0.194158 0.635434 -0.034382
v -0.193524 0.635434 -0.038622
v -0.192847 0.632920 -0.042027
v -0.192386 0.628852 -0.043298
v -0.192316 0.624784 -0.041948
v -0.192664 0.622270 -0.038493
v -0.193298 0.622270 -0.034254
v -0.193976 0.624784 -0.030849
v -0.426425 0.613334 -0.066516
v -0.426472 0.616100 -0.067434
v -0.426235 0.617809 -0.069783
v -0.425804 0.617809 -0.072666
v -0.425344 0.616100 -0.074981
v -0.425030 0.613334 -0.075845
v -0.424982 0.610567 -0.074927
v -0.425219 0.608858 -0.072578
v -0.425650 0.608858 -0.069695
v -0.426111 0.610567 -0.067380
f 41 42 52
f 41 52 51
f 42 43 53
f 42 53 52
f 43 44 54
f 43 54 53
f 44 45 55
f 44 55 54
f 45 46 56
f 45 56 55
f 46 47 57
f 46 57 56
f 47 48 58
f 47 58 57
f 48 49 59
f 48 59 58
f 49 50 60
f 49 60 59
f 50 41 51
f 50 51 60
v -0.425727 0.612771 -0.075863
v -0.423199 0.611748 -0.074833
v -0.421637 0.611331 -0.072408
v -0.421637 0.611679 -0.069514
v -0.423199 0.612658 -0.067256
v -0.425727 0.613896 -0.066498
v -0.428255 0.614919 -0.067528
v -0.429817 0.615336 -0.069953
v -0.429817 0.614988 -0.072847
v -0.428255 0.614009 -0.075105
v -0.503573 0.441314 -0.053752
v -0.501854 0.440619 -0.053052
v -0.500792 0.440335 -0.051403
v -0.500792 0.440572 -0.049435
v -0.501854 0.441238 -0.047900
v -0.503573 0.442079 -0.047384
v -0.505292 0.442775 -0.048084
v -0.506354 0.443059 -0.049733
v -0.506354 0.442822 -0.051701
v -0.505292 0.442156 -0.053236
f 61 62 72
f 61 72 71
f 62 63 73
f 62 73 72
f 63 64 74
f 63 74 73
f 64 65 75
f 64 75 74
f 65 66 76
f 65 76 75
f 66 67 77
f 66 77 76
f 67 68 78
f 67 78 77
f 68 69 79
f 68 79 78
f 69 70 80
f 69 80 79
f 70 61 71
f 70 71 80
v -0.503573 0.441697 -0.050568
v -0.502525 0.441760 -0.052797
v -0.501191 0.441709 -0.054905
v -0.499377 0.441464 -0.056808
v -0.496990 0.440988 -0.058469
v -0.494045 0.440288 -0.059893
v -0.490662 0.439411 -0.061130
v -0.487049 0.438442 -0.062270
v -0.483473 0.437488 -0.063426
v -0.480220 0.436664 -0.064718
v -0.477552 0.436075 -0.066259
v -0.475668 0.435802 -0.068133
v -0.474676 0.435888 -0.070386
v -0.474577 0.436334 -0.073019
v -0.475263 0.437095 -0.075984
v -0.476533 0.438092 -0.079197
v -0.478126 0.439218 -0.082548
v -0.479756 0.440360 -0.085914
v -0.481156 0.441409 -0.089183
v -0.482118 0.442282 -0.092266
v -0.482522 0.442929 -0.095111
v -0.482353 0.443347 -0.097713
v -0.481705 0.443571 -0.100112
v -0.480770 0.443680 -0.102389
v -0.481817 0.443616 -0.100160
v -0.483152 0.443668 -0.098053
v -0.484966 0.443913 -0.096149
v -0.487352 0.444389 -0.094488
v -0.490297 0.445089 -0.093064
v -0.493681 0.445965 -0.091827
v -0.497293 0.446934 -0.090687
v -0.500869 0.447888 -0.089531
v -0.504122 0.448713 -0.088239
v -0.506791 0.449302 -0.086698
v -0.508675 0.449575 -0.084824
v -0.509666 0.449488 -0.082571
v -0.509765 0.449043 -0.079938
v -0.509080 0.448282 -0.076973
v -0.507809 0.447285 -0.073760
v -0.506217 0.446158 -0.070409
v -0.504587 0.445017 -0.067043
v -0.503186 0.443968 -0.063774
v -0.502224 0.443095 -0.060692
v -0.501820 0.442447 -0.057846
v -0.501990 0.442030 -0.055244
v -0.502638 0.441806 -0.052845
f 81 82 83
f 81 83 82
f 81 83 84
f 81 84 83
f 81 84 85
f 81 85 84
f 81 85 86
f 81 86 85
f 81 86 87
f 81 87 86
f 81 87 88
f 81 88 87
f 81 88 89
f 81 89 88
f 81 89 90
f 81 90 89
f 81 90 91
f 81 91 90
f 81 91 92
f 81 92 91
f 81 92 93
f 81 93 92
f 81 93 94
f 81 94 93
f 81 94 95
f 81 95 94
f 81 95 96
f 81 96 95
f 81 96 97
f 81 97 96
f 81 97 98
f 81 98 97
f 81 98 99
f 81 99 98
f 81 99 100
f 81 100 99
f 81 100 101
f 81 101 100
f 81 101 102
f 81 102 101
f 81 102 103
f 81 103 102
f 81 103 104
f 81 104 103
f 81 104 105
f 81 105 104
f 81 105 106
f 81 106 105
f 81 106 107
f 81 107 106
f 81 107 108
f 81 108 107
f 81 108 109
f 81 109 108
f 81 109 110
f 81 110 109
f 81 110 111
f 81 111 110
f 81 111 112
f 81 112 111
f 81 112 113
f 81 113 112
f 81 113 114
f 81 114 113
f 81 114 115
f 81 115 114
f 81 115 116
f 81 116 115
f 81 116 117
f 81 117 116
f 81 117 118
f 81 118 117
f 81 118 119
f 81 119 118
f 81 119 120
f 81 120 119
f 81 120 121
f 81 121 120
f 81 121 122
f 81 122 121
f 81 122 123
f 81 123 122
f 81 123 124
f 81 124 123
f 81 124 125
f 81 125 124
f 81 125 126
f 81 126 125
v -0.503573 0.441697 -0.050568
v -0.500124 0.442324 -0.049216
v -0.496834 0.443068 -0.047492
v -0.493839 0.444029 -0.045074
v -0.491224 0.445270 -0.041765
v -0.489002 0.446800 -0.037534
v -0.487107 0.448570 -0.032536
v -0.485402 0.450480 -0.027090
v -0.483703 0.452394 -0.021632
v -0.481801 0.454159 -0.016649
v -0.479503 0.455632 -0.012597
v -0.476657 0.456703 -0.009830
v -0.473182 0.457311 -0.008539
v -0.469077 0.457457 -0.008725
v -0.464425 0.457199 -0.010196
v -0.459376 0.456650 -0.012598
v -0.454125 0.455952 -0.015474
v -0.448879 0.455258 -0.018339
v -0.443823 0.454704 -0.020756
v -0.439095 0.454391 -0.022406
v -0.434759 0.454366 -0.023134
v -0.430804 0.454621 -0.022971
v -0.427144 0.455093 -0.022114
v -0.423642 0.455682 -0.020885
v -0.427091 0.455054 -0.022237
v -0.430382 0.454311 -0.023961
v -0.433377 0.453349 -0.026379
v -0.435991 0.452109 -0.029688
v -0.438213 0.450579 -0.033919
v -0.440109 0.448809 -0.038917
v -0.441813 0.446899 -0.044363
v -0.443512 0.444985 -0.049821
v -0.445414 0.443220 -0.054804
v -0.447712 0.441746 -0.058856
v -0.450558 0.440675 -0.061623
v -0.454033 0.440067 -0.062914
v -0.458138 0.439922 -0.062727
v -0.462790 0.440179 -0.061256
v -0.467839 0.440729 -0.058855
v -0.473090 0.441426 -0.055978
v -0.478336 0.442121 -0.053113
v -0.483392 0.442674 -0.050697
v -0.488120 0.442988 -0.049047
v -0.492456 0.443013 -0.048318
v -0.496412 0.442758 -0.048482
v -0.500071 0.442286 -0.049339
f 127 128 129
f 127 129 128
f 127 129 130
f 127 130 129
f 127 130 131
f 127 131 130
f 127 131 132
f 127 132 131
f 127 132 133
f 127 133 132
f 127 133 134
f 127 134 133
f 127 134 135
f 127 135 134
f 127 135 136
f 127 136 135
f 127 136 137
f 127 137 136
f 127 137 138
f 127 138 137
f 127 138 139
f 127 139 138
f 127 139 140
f 127 140 139
f 127 140 141
f 127 141 140
f 127 141 142
f 127 142 141
f 127 142 143
f 127 143 142
f 127 143 144
f 127 144 143
f 127 144 145
f 127 145 144
f 127 145 146
f 127 146 145
f 127 146 147
f 127 147 146
f 127 147 148
f 127 148 147
f 127 148 149
f 127 149 148
f 127 149 150
f 127 150 149
f 127 150 151
f 127 151 150
f 127 151 152
f 127 152 151
f 127 152 153
f 127 153 152
f 127 153 154
f 127 154 153
f 127 154 155
f 127 155 154
f 127 155 156
f 127 156 155
f 127 156 157
f 127 157 156
f 127 157 158
f 127 158 157
f 127 158 159
f 127 159 158
f 127 159 160
f 127 160 159
f 127 160 161
f 127 161 160
f 127 161 162
f 127 162 161
f 127 162 163
f 127 163 162
f 127 163 164
f 127 164 163
f 127 164 165
f 127 165 164
f 127 165 166
f 127 166 165
f 127 166 167
f 127 167 166
f 127 167 168
f 127 168 167
f 127 168 169
f 127 169 168
f 127 169 170
f 127 170 169
f 127 170 171
f 127 171 170
f 127 171 172
f 127 172 171
v -0.503573 0.441697 -0.050568
v -0.505221 0.443547 -0.050767
v -0.506997 0.445370 -0.051684
v -0.508880 0.447168 -0.053205
v -0.510846 0.448948 -0.055193
v -0.512865 0.450716 -0.057485
v -0.514907 0.452479 -0.059896
v -0.516936 0.454245 -0.062240
v -0.518920 0.456021 -0.064333
v -0.520831 0.457813 -0.066011
v -0.522645 0.459627 -0.067141
v -0.524344 0.461466 -0.067627
v -0.525920 0.463333 -0.067420
v -0.527372 0.465227 -0.066522
v -0.528711 0.467146 -0.064979
v -0.529952 0.469087 -0.062888
v -0.531119 0.471045 -0.060383
v -0.532242 0.473012 -0.057627
v -0.533353 0.474982 -0.054802
v -0.534485 0.476947 -0.052098
v -0.535671 0.478900 -0.049697
v -0.536940 0.480835 -0.047763
v -0.538316 0.482746 -0.046434
v -0.539820 0.484629 -0.045822
v -0.538172 0.482778 -0.045623
v -0.536397 0.480956 -0.044706
v -0.534514 0.479157 -0.043185
v -0.532548 0.477378 -0.041197
v -0.530528 0.475610 -0.038905
v -0.528487 0.473846 -0.036493
v -0.526457 0.472080 -0.034150
v -0.524473 0.470305 -0.032057
v -0.522562 0.468513 -0.030379
v -0.520749 0.466699 -0.029249
v -0.519050 0.464859 -0.028763
v -0.517474 0.462993 -0.028969
v -0.516021 0.461099 -0.029868
v -0.514682 0.459179 -0.031411
v -0.513441 0.457238 -0.033501
v -0.512274 0.455281 -0.036007
v -0.511151 0.453314 -0.038763
v -0.510040 0.451344 -0.041588
v -0.508908 0.449379 -0.044292
v -0.507722 0.447425 -0.046693
v -0.506453 0.445490 -0.048627
v -0.505077 0.443579 -0.049956
f 173 174 175
f 173 175 174
f 173 175 176
f 173 176 175
f 173 176 177
f 173 177 176
f 173 177 178
f 173 178 177
f 173 178 179
f 173 179 178
f 173 179 180
f 173 180 179
f 173 180 181
f 173 181 180
f 173 181 182
f 173 182 181
f 173 182 183
f 173 183 182
f 173 183 184
f 173 184 183
f 173 184 185
f 173 185 184
f 173 185 186
f 173 186 185
f 173 186 187
f 173 187 186
f 173 187 188
f 173 188 187
f 173 188 189
f 173 189 188
f 173 189 190
f 173 190 189
f 173 190 191
f 173 191 190
f 173 191 192
f 173 192 191
f 173 192 193
f 173 193 192
f 173 193 194
f 173 194 193
f 173 194 195
f 173 195 194
f 173 195 196
f 173 196 195
f 173 196 197
f 173 197 196
f 173 197 198
f 173 198 197
f 173 198 199
f 173 199 198
f 173 199 200
f 173 200 199
f 173 200 201
f 173 201 200
f 173 201 202
f 173 202 201
f 173 202 203
f 173 203 202
f 173 203 204
f 173 204 203
f 173 204 205
f 173 205 204
f 173 205 206
f 173 206 205
f 173 206 207
f 173 207 206
f 173 207 208
f 173 208 207
f 173 208 209
f 173 209 208
f 173 209 210
f 173 210 209
f 173 210 211
f 173 211 210
f 173 211 212
f 173 212 211
f 173 212 213
f 173 213 212
f 173 213 214
f 173 214 213
f 173 214 215
f 173 215 214
f 173 215 216
f 173 216 215
f 173 216 217
f 173 217 216
f 173 217 218
f 173 218 217
