o part_0
v 0.000000 0.000000 0.035000
v 0.016490 0.000000 0.022697
v 0.028878 0.000000 0.009383
v 0.028878 0.000000 -0.009383
v 0.016490 0.000000 -0.022697
v 0.000000 0.000000 -0.035000
v -0.016490 0.000000 -0.022697
v -0.028878 0.000000 -0.009383
v -0.028878 0.000000 0.009383
v -0.016490 0.000000 0.022697
v 0.000000 0.600000 0.031500
v 0.014841 0.600000 0.020427
v 0.025990 0.600000 0.008445
v 0.025990 0.600000 -0.008445
v 0.014841 0.600000 -0.020427
v 0.000000 0.600000 -0.031500
v -0.014841 0.600000 -0.020427
v -0.025990 0.600000 -0.008445
v -0.025990 0.600000 0.008445
v -0.014841 0.600000 0.020427
f 1 2 12
f 1 12 11
f 2 3 13
f 2 13 12
f 3 4 14
f 3 14 13
f 4 5 15
f 4 15 14
f 5 6 16
f 5 16 15
f 6 7 17
f 6 17 16
f 7 8 18
f 7 18 17
f 8 9 19
f 8 19 18
f 9 10 20
f 9 20 19
f 10 1 11
f 10 11 20
o part_1
v 0.000000 0.599530 0.031496
v 0.014788 0.600954 0.020444
v 0.025897 0.602078 0.008477
v 0.025897 0.602330 -0.008411
v 0.014788 0.601564 -0.020406
v 0.000000 0.600470 -0.031496
v -0.014788 0.599046 -0.020444
v -0.025897 0.597922 -0.008477
v -0.025897 0.597670 0.008411
v -0.014788 0.598436 0.020406
v -0.037460 1.039606 0.034916
v -0.024151 1.040887 0.024968
v -0.014153 1.041899 0.014198
v -0.014153 1.042126 -0.001001
v -0.024151 1.041436 -0.011797
v -0.037460 1.040452 -0.021778
v -0.050770 1.039171 -0.011831
v -0.060768 1.038159 -0.001060
v -0.060768 1.037932 0.014139
v -0.050770 1.038622 0.024935
f 21 22 32
f 21 32 31
f 22 23 33
f 22 33 32
f 23 24 34
f 23 34 33
f 24 25 35
f 24 35 34
f 25 26 36
f 25 36 35
f 26 27 37
f 26 37 36
f 27 28 38
f 27 38 37
f 28 29 39
f 28 39 38
f 29 30 40
f 29 40 39
f 30 21 31
f 30 31 40
o part_2
v -0.037460 1.040029 0.006569
v -0.036145 1.036744 0.012007
v -0.034287 1.033507 0.017350
v -0.031251 1.030373 0.022487
v -0.026545 1.027385 0.027332
v -0.019977 1.024561 0.031850
v -0.011739 1.021884 0.036077
v -0.002408 1.019302 0.040112
v 0.007138 1.016740 0.044110
v 0.015868 1.014105 0.048250
v 0.022776 1.011311 0.052709
v 0.027071 1.008287 0.057626
v 0.028313 1.004996 0.063077
v 0.026505 1.001437 0.069062
v 0.022082 0.997649 0.075504
v 0.015838 0.993700 0.082265
v 0.008778 0.989681 0.089169
v 0.001932 0.985680 0.096036
v -0.003820 0.981774 0.102711
v -0.007902 0.978016 0.109094
v -0.010123 0.974421 0.115151
v -0.010673 0.970972 0.120916
v -0.010045 0.967627 0.126474
v -0.008875 0.964329 0.131938
v -0.010190 0.967614 0.126500
v -0.012049 0.970851 0.121156
v -0.015084 0.973985 0.116019
v -0.019790 0.976973 0.111175
v -0.026359 0.979797 0.106656
v -0.034597 0.982474 0.102430
v -0.043928 0.985056 0.098394
v -0.053474 0.987619 0.094397
v -0.062203 0.990253 0.090256
v -0.069112 0.993047 0.085797
v -0.073406 0.996071 0.080881
v -0.074649 0.999362 0.075430
v -0.072840 1.002921 0.069445
v -0.068417 1.006710 0.063002
v -0.062174 1.010658 0.056241
v -0.055113 1.014678 0.049337
v -0.048268 1.018679 0.042471
v -0.042516 1.022584 0.035795
v -0.038433 1.026342 0.029413
v -0.036213 1.029938 0.023356
v -0.035663 1.033386 0.017591
v -0.036290 1.036731 0.012032
f 41 42 43
f 41 43 42
f 41 43 44
f 41 44 43
f 41 44 45
f 41 45 44
f 41 45 46
f 41 46 45
f 41 46 47
f 41 47 46
f 41 47 48
f 41 48 47
f 41 48 49
f 41 49 48
f 41 49 50
f 41 50 49
f 41 50 51
f 41 51 50
f 41 51 52
f 41 52 51
f 41 52 53
f 41 53 52
f 41 53 54
f 41 54 53
f 41 54 55
f 41 55 54
f 41 55 56
f 41 56 55
f 41 56 57
f 41 57 56
f 41 57 58
f 41 58 57
f 41 58 59
f 41 59 58
f 41 59 60
f 41 60 59
f 41 60 61
f 41 61 60
f 41 61 62
f 41 62 61
f 41 62 63
f 41 63 62
f 41 63 64
f 41 64 63
f 41 64 65
f 41 65 64
f 41 65 66
f 41 66 65
f 41 66 67
f 41 67 66
f 41 67 68
f 41 68 67
f 41 68 69
f 41 69 68
f 41 69 70
f 41 70 69
f 41 70 71
f 41 71 70
f 41 71 72
f 41 72 71
f 41 72 73
f 41 73 72
f 41 73 74
f 41 74 73
f 41 74 75
f 41 75 74
f 41 75 76
f 41 76 75
f 41 76 77
f 41 77 76
f 41 77 78
f 41 78 77
f 41 78 79
f 41 79 78
f 41 79 80
f 41 80 79
f 41 80 81
f 41 81 80
f 41 81 82
f 41 82 81
f 41 82 83
f 41 83 82
f 41 83 84
f 41 84 83
f 41 84 85
f 41 85 84
f 41 85 86
f 41 86 85
o part_3
v -0.037460 1.040029 0.006569
v -0.032611 1.038219 0.005580
v -0.027900 1.036409 0.003724
v -0.023390 1.034602 0.000608
v -0.019100 1.032796 -0.003889
v -0.015011 1.030992 -0.009637
v -0.011065 1.029189 -0.016293
v -0.007183 1.027387 -0.023346
v -0.003268 1.025584 -0.030188
v 0.000781 1.023780 -0.036197
v 0.005051 1.021975 -0.040815
v 0.009609 1.020166 -0.043627
v 0.014492 1.018356 -0.044408
v 0.019698 1.016542 -0.043159
v 0.025193 1.014726 -0.040104
v 0.030909 1.012908 -0.035658
v 0.036758 1.011089 -0.030379
v 0.042641 1.009270 -0.024889
v 0.048461 1.007451 -0.019795
v 0.054136 1.005634 -0.015610
v 0.059611 1.003818 -0.012676
v 0.064866 1.002004 -0.011122
v 0.069920 1.000192 -0.010830
v 0.074836 0.998381 -0.011403
v 0.069986 1.000192 -0.010414
v 0.065275 1.002001 -0.008558
v 0.060765 1.003808 -0.005442
v 0.056476 1.005614 -0.000946
v 0.052386 1.007418 0.004803
v 0.048440 1.009221 0.011459
v 0.044559 1.011024 0.018512
v 0.040643 1.012826 0.025354
v 0.036595 1.014630 0.031362
v 0.032324 1.016436 0.035981
v 0.027766 1.018244 0.038793
v 0.022883 1.020054 0.039574
v 0.017677 1.021868 0.038325
v 0.012182 1.023684 0.035269
v 0.006466 1.025502 0.030824
v 0.000617 1.027321 0.025544
v -0.005266 1.029140 0.020055
v -0.011086 1.030959 0.014961
v -0.016761 1.032776 0.010775
v -0.022236 1.034592 0.007842
v -0.027491 1.036406 0.006288
v -0.032545 1.038218 0.005995
f 87 88 89
f 87 89 88
f 87 89 90
f 87 90 89
f 87 90 91
f 87 91 90
f 87 91 92
f 87 92 91
f 87 92 93
f 87 93 92
f 87 93 94
f 87 94 93
f 87 94 95
f 87 95 94
f 87 95 96
f 87 96 95
f 87 96 97
f 87 97 96
f 87 97 98
f 87 98 97
f 87 98 99
f 87 99 98
f 87 99 100
f 87 100 99
f 87 100 101
f 87 101 100
f 87 101 102
f 87 102 101
f 87 102 103
f 87 103 102
f 87 103 104
f 87 104 103
f 87 104 105
f 87 105 104
f 87 105 106
f 87 106 105
f 87 106 107
f 87 107 106
f 87 107 108
f 87 108 107
f 87 108 109
f 87 109 108
f 87 109 110
f 87 110 109
f 87 110 111
f 87 111 110
f 87 111 112
f 87 112 111
f 87 112 113
f 87 113 112
f 87 113 114
f 87 114 113
f 87 114 115
f 87 115 114
f 87 115 116
f 87 116 115
f 87 116 117
f 87 117 116
f 87 117 118
f 87 118 117
f 87 118 119
f 87 119 118
f 87 119 120
f 87 120 119
f 87 120 121
f 87 121 120
f 87 121 122
f 87 122 121
f 87 122 123
f 87 123 122
f 87 123 124
f 87 124 123
f 87 124 125
f 87 125 124
f 87 125 126
f 87 126 125
f 87 126 127
f 87 127 126
f 87 127 128
f 87 128 127
f 87 128 129
f 87 129 128
f 87 129 130
f 87 130 129
f 87 130 131
f 87 131 130
f 87 131 132
f 87 132 131
o part_4
v -0.037460 1.040029 0.006569
v -0.038814 1.038963 0.001313
v -0.040760 1.037845 -0.003792
v -0.043815 1.036628 -0.008612
v -0.048304 1.035283 -0.013067
v -0.054278 1.033806 -0.017141
v -0.061491 1.032219 -0.020898
v -0.069432 1.030567 -0.024469
v -0.077398 1.028913 -0.028034
v -0.084603 1.027327 -0.031794
v -0.090311 1.025874 -0.035936
v -0.093949 1.024605 -0.040608
v -0.095205 1.023548 -0.045889
v -0.094080 1.022702 -0.051779
v -0.090886 1.022041 -0.058198
v -0.086194 1.021513 -0.065000
v -0.080741 1.021052 -0.071997
v -0.075313 1.020590 -0.078987
v -0.070613 1.020062 -0.085791
v -0.067153 1.019425 -0.092279
v -0.065177 1.018655 -0.098386
v -0.064635 1.017758 -0.104127
v -0.065203 1.016762 -0.109584
v -0.066362 1.015713 -0.114890
v -0.065008 1.016779 -0.109634
v -0.063063 1.017898 -0.104529
v -0.060007 1.019115 -0.099708
v -0.055518 1.020460 -0.095254
v -0.049545 1.021936 -0.091180
v -0.042331 1.023523 -0.087423
v -0.034390 1.025175 -0.083851
v -0.026425 1.026829 -0.080286
v -0.019219 1.028416 -0.076527
v -0.013512 1.029869 -0.072385
v -0.009874 1.031138 -0.067713
v -0.008617 1.032195 -0.062432
v -0.009742 1.033040 -0.056542
v -0.012936 1.033702 -0.050123
v -0.017629 1.034230 -0.043321
v -0.023081 1.034690 -0.036324
v -0.028509 1.035153 -0.029334
v -0.033209 1.035680 -0.022529
v -0.036670 1.036318 -0.016042
v -0.038645 1.037087 -0.009935
v -0.039188 1.037985 -0.004194
v -0.038620 1.038981 0.001263
f 133 134 135
f 133 135 134
f 133 135 136
f 133 136 135
f 133 136 137
f 133 137 136
f 133 137 138
f 133 138 137
f 133 138 139
f 133 139 138
f 133 139 140
f 133 140 139
f 133 140 141
f 133 141 140
f 133 141 142
f 133 142 141
f 133 142 143
f 133 143 142
f 133 143 144
f 133 144 143
f 133 144 145
f 133 145 144
f 133 145 146
f 133 146 145
f 133 146 147
f 133 147 146
f 133 147 148
f 133 148 147
f 133 148 149
f 133 149 148
f 133 149 150
f 133 150 149
f 133 150 151
f 133 151 150
f 133 151 152
f 133 152 151
f 133 152 153
f 133 153 152
f 133 153 154
f 133 154 153
f 133 154 155
f 133 155 154
f 133 155 156
f 133 156 155
f 133 156 157
f 133 157 156
f 133 157 158
f 133 158 157
f 133 158 159
f 133 159 158
f 133 159 160
f 133 160 159
f 133 160 161
f 133 161 160
f 133 161 162
f 133 162 161
f 133 162 163
f 133 163 162
f 133 163 164
f 133 164 163
f 133 164 165
f 133 165 164
f 133 165 166
f 133 166 165
f 133 166 167
f 133 167 166
f 133 167 168
f 133 168 167
f 133 168 169
f 133 169 168
f 133 169 170
f 133 170 169
f 133 170 171
f 133 171 170
f 133 171 172
f 133 172 171
f 133 172 173
f 133 173 172
f 133 173 174
f 133 174 173
f 133 174 175
f 133 175 174
f 133 175 176
f 133 176 175
f 133 176 177
f 133 177 176
f 133 177 178
f 133 178 177
o part_5
v -0.037460 1.040029 0.006569
v -0.042114 1.036672 0.004837
v -0.047043 1.033281 0.003844
v -0.052440 1.029831 0.004103
v -0.058402 1.026310 0.005874
v -0.064918 1.022720 0.009130
v -0.071872 1.019076 0.013561
v -0.079059 1.015402 0.018616
v -0.086216 1.011732 0.023588
v -0.093057 1.008101 0.027715
v -0.099320 1.004543 0.030295
v -0.104807 1.001082 0.030794
v -0.109407 0.997731 0.028919
v -0.113122 0.994492 0.024673
v -0.116059 0.991350 0.018344
v -0.118419 0.988280 0.010469
v -0.120463 0.985249 0.001749
v -0.122477 0.982223 -0.007055
v -0.124723 0.979167 -0.015233
v -0.127409 0.976056 -0.022237
v -0.130648 0.972876 -0.027756
v -0.134452 0.969626 -0.031764
v -0.138723 0.966317 -0.034520
v -0.143271 0.962973 -0.036536
v -0.138617 0.966330 -0.034803
v -0.133688 0.969721 -0.033810
v -0.128291 0.973171 -0.034070
v -0.122329 0.976692 -0.035841
v -0.115814 0.980282 -0.039097
v -0.108859 0.983927 -0.043527
v -0.101672 0.987601 -0.048582
v -0.094515 0.991271 -0.053554
v -0.087674 0.994901 -0.057681
v -0.081411 0.998460 -0.060262
v -0.075925 1.001921 -0.060760
v -0.071324 1.005271 -0.058886
v -0.067609 1.008510 -0.054640
v -0.064672 1.011652 -0.048311
v -0.062312 1.014722 -0.040436
v -0.060268 1.017753 -0.031715
v -0.058255 1.020779 -0.022912
v -0.056008 1.023835 -0.014734
v -0.053323 1.026946 -0.007730
v -0.050083 1.030126 -0.002210
v -0.046279 1.033376 0.001798
v -0.042008 1.036685 0.004553
f 179 180 181
f 179 181 180
f 179 181 182
f 179 182 181
f 179 182 183
f 179 183 182
f 179 183 184
f 179 184 183
f 179 184 185
f 179 185 184
f 179 185 186
f 179 186 185
f 179 186 187
f 179 187 186
f 179 187 188
f 179 188 187
f 179 188 189
f 179 189 188
f 179 189 190
f 179 190 189
f 179 190 191
f 179 191 190
f 179 191 192
f 179 192 191
f 179 192 193
f 179 193 192
f 179 193 194
f 179 194 193
f 179 194 195
f 179 195 194
f 179 195 196
f 179 196 195
f 179 196 197
f 179 197 196
f 179 197 198
f 179 198 197
f 179 198 199
f 179 199 198
f 179 199 200
f 179 200 199
f 179 200 201
f 179 201 200
f 179 201 202
f 179 202 201
f 179 202 203
f 179 203 202
f 179 203 204
f 179 204 203
f 179 204 205
f 179 205 204
f 179 205 206
f 179 206 205
f 179 206 207
f 179 207 206
f 179 207 208
f 179 208 207
f 179 208 209
f 179 209 208
f 179 209 210
f 179 210 209
f 179 210 211
f 179 211 210
f 179 211 212
f 179 212 211
f 179 212 213
f 179 213 212
f 179 213 214
f 179 214 213
f 179 214 215
f 179 215 214
f 179 215 216
f 179 216 215
f 179 216 217
f 179 217 216
f 179 217 218
f 179 218 217
f 179 218 219
f 179 219 218
f 179 219 220
f 179 220 219
f 179 220 221
f 179 221 220
f 179 221 222
f 179 222 221
f 179 222 223
f 179 223 222
f 179 223 224
f 179 224 223
o part_6
v -0.037460 1.039150 0.034905
v -0.024316 1.041833 0.025018
v -0.014442 1.043950 0.014295
v -0.014442 1.044422 -0.000899
v -0.024316 1.042973 -0.011733
v -0.037460 1.040908 -0.021767
v -0.050605 1.038226 -0.011881
v -0.060479 1.036108 -0.001157
v -0.060479 1.035636 0.014037
v -0.050605 1.037085 0.024871
v -0.104036 1.407533 0.043499
v -0.092206 1.409948 0.034601
v -0.083319 1.411854 0.024949
v -0.083319 1.412278 0.011275
v -0.092206 1.410974 0.001524
v -0.104036 1.409116 -0.007506
v -0.115866 1.406701 0.001392
v -0.124752 1.404795 0.011043
v -0.124752 1.404371 0.024717
v -0.115866 1.405675 0.034468
f 225 226 236
f 225 236 235
f 226 227 237
f 226 237 236
f 227 228 238
f 227 238 237
f 228 229 239
f 228 239 238
f 229 230 240
f 229 240 239
f 230 231 241
f 230 241 240
f 231 232 242
f 231 242 241
f 232 233 243
f 232 243 242
f 233 234 244
f 233 244 243
f 234 225 235
f 234 235 244
o part_7
v -0.104036 1.408325 0.017996
v -0.104916 1.405866 0.022467
v -0.104574 1.403613 0.027466
v -0.103015 1.401563 0.032991
v -0.100409 1.399688 0.038969
v -0.097041 1.397940 0.045275
v -0.093271 1.396260 0.051756
v -0.089506 1.394579 0.058234
v -0.086159 1.392829 0.064531
v -0.083614 1.390944 0.070482
v -0.082192 1.388871 0.075948
v -0.082125 1.386571 0.080828
v -0.083532 1.384024 0.085071
v -0.086414 1.381231 0.088677
v -0.090651 1.378211 0.091698
v -0.096010 1.375003 0.094234
v -0.102172 1.371661 0.096423
v -0.108751 1.368249 0.098431
v -0.115335 1.364836 0.100437
v -0.121519 1.361490 0.102617
v -0.126939 1.358272 0.105126
v -0.131312 1.355229 0.108088
v -0.134469 1.352390 0.111575
v -0.136403 1.349755 0.115591
v -0.135523 1.352214 0.111120
v -0.135865 1.354467 0.106120
v -0.137424 1.356517 0.100596
v -0.140030 1.358392 0.094618
v -0.143398 1.360140 0.088312
v -0.147168 1.361820 0.081831
v -0.150933 1.363500 0.075353
v -0.154280 1.365251 0.069056
v -0.156825 1.367136 0.063105
v -0.158247 1.369209 0.057639
v -0.158314 1.371509 0.052759
v -0.156907 1.374056 0.048515
v -0.154025 1.376849 0.044910
v -0.149788 1.379869 0.041889
v -0.144429 1.383077 0.039353
v -0.138267 1.386419 0.037164
v -0.131688 1.389831 0.035156
v -0.125104 1.393244 0.033150
v -0.118920 1.396590 0.030970
v -0.113500 1.399808 0.028461
v -0.109127 1.402851 0.025499
v -0.105970 1.405690 0.022012
f 245 246 247
f 245 247 246
f 245 247 248
f 245 248 247
f 245 248 249
f 245 249 248
f 245 249 250
f 245 250 249
f 245 250 251
f 245 251 250
f 245 251 252
f 245 252 251
f 245 252 253
f 245 253 252
f 245 253 254
f 245 254 253
f 245 254 255
f 245 255 254
f 245 255 256
f 245 256 255
f 245 256 257
f 245 257 256
f 245 257 258
f 245 258 257
f 245 258 259
f 245 259 258
f 245 259 260
f 245 260 259
f 245 260 261
f 245 261 260
f 245 261 262
f 245 262 261
f 245 262 263
f 245 263 262
f 245 263 264
f 245 264 263
f 245 264 265
f 245 265 264
f 245 265 266
f 245 266 265
f 245 266 267
f 245 267 266
f 245 267 268
f 245 268 267
f 245 268 269
f 245 269 268
f 245 269 270
f 245 270 269
f 245 270 271
f 245 271 270
f 245 271 272
f 245 272 271
f 245 272 273
f 245 273 272
f 245 273 274
f 245 274 273
f 245 274 275
f 245 275 274
f 245 275 276
f 245 276 275
f 245 276 277
f 245 277 276
f 245 277 278
f 245 278 277
f 245 278 279
f 245 279 278
f 245 279 280
f 245 280 279
f 245 280 281
f 245 281 280
f 245 281 282
f 245 282 281
f 245 282 283
f 245 283 282
f 245 283 284
f 245 284 283
f 245 284 285
f 245 285 284
f 245 285 286
f 245 286 285
f 245 286 287
f 245 287 286
f 245 287 288
f 245 288 287
f 245 288 289
f 245 289 288
f 245 289 290
f 245 290 289
o part_8
v -0.104036 1.408325 0.017996
v -0.098405 1.406319 0.016212
v -0.093092 1.404302 0.012934
v -0.088114 1.402274 0.008069
v -0.083439 1.400236 0.001780
v -0.078992 1.398189 -0.005591
v -0.074676 1.396138 -0.013575
v -0.070374 1.394087 -0.021625
v -0.065965 1.392039 -0.029174
v -0.061336 1.389999 -0.035684
v -0.056391 1.387970 -0.040702
v -0.051060 1.385954 -0.043899
v -0.045307 1.383952 -0.045104
v -0.039132 1.381965 -0.044316
v -0.032571 1.379992 -0.041707
v -0.025693 1.378029 -0.037607
v -0.018596 1.376073 -0.032467
v -0.011392 1.374122 -0.026826
v -0.004202 1.372170 -0.021251
v 0.002858 1.370213 -0.016290
v 0.009688 1.368248 -0.012410
v 0.016217 1.366274 -0.009954
v 0.022410 1.364287 -0.009086
v 0.028286 1.362290 -0.009711
v 0.022655 1.364296 -0.007926
v 0.017342 1.366312 -0.004648
v 0.012364 1.368340 0.000217
v 0.007689 1.370379 0.006506
v 0.003242 1.372425 0.013877
v -0.001074 1.374476 0.021861
v -0.005376 1.376527 0.029911
v -0.009785 1.378575 0.037460
v -0.014414 1.380615 0.043970
v -0.019359 1.382645 0.048988
v -0.024690 1.384661 0.052185
v -0.030443 1.386662 0.053390
v -0.036618 1.388649 0.052602
v -0.043179 1.390623 0.049993
v -0.050057 1.392586 0.045892
v -0.057154 1.394541 0.040753
v -0.064358 1.396493 0.035112
v -0.071548 1.398445 0.029537
v -0.078608 1.400402 0.024575
v -0.085438 1.402366 0.020696
v -0.091967 1.404341 0.018240
v -0.098160 1.406327 0.017371
f 291 292 293
f 291 293 292
f 291 293 294
f 291 294 293
f 291 294 295
f 291 295 294
f 291 295 296
f 291 296 295
f 291 296 297
f 291 297 296
f 291 297 298
f 291 298 297
f 291 298 299
f 291 299 298
f 291 299 300
f 291 300 299
f 291 300 301
f 291 301 300
f 291 301 302
f 291 302 301
f 291 302 303
f 291 303 302
f 291 303 304
f 291 304 303
f 291 304 305
f 291 305 304
f 291 305 306
f 291 306 305
f 291 306 307
f 291 307 306
f 291 307 308
f 291 308 307
f 291 308 309
f 291 309 308
f 291 309 310
f 291 310 309
f 291 310 311
f 291 311 310
f 291 311 312
f 291 312 311
f 291 312 313
f 291 313 312
f 291 313 314
f 291 314 313
f 291 314 315
f 291 315 314
f 291 315 316
f 291 316 315
f 291 316 317
f 291 317 316
f 291 317 318
f 291 318 317
f 291 318 319
f 291 319 318
f 291 319 320
f 291 320 319
f 291 320 321
f 291 321 320
f 291 321 322
f 291 322 321
f 291 322 323
f 291 323 322
f 291 323 324
f 291 324 323
f 291 324 325
f 291 325 324
f 291 325 326
f 291 326 325
f 291 326 327
f 291 327 326
f 291 327 328
f 291 328 327
f 291 328 329
f 291 329 328
f 291 329 330
f 291 330 329
f 291 330 331
f 291 331 330
f 291 331 332
f 291 332 331
f 291 332 333
f 291 333 332
f 291 333 334
f 291 334 333
f 291 334 335
f 291 335 334
f 291 335 336
f 291 336 335
o part_9
v -0.104036 1.408325 0.017996
v -0.109005 1.405397 0.016504
v -0.114622 1.402304 0.016547
v -0.120824 1.399062 0.017975
v -0.127499 1.395701 0.020523
v -0.134496 1.392257 0.023835
v -0.141641 1.388776 0.027497
v -0.148746 1.385305 0.031063
v -0.155626 1.381891 0.034098
v -0.162113 1.378577 0.036201
v -0.168069 1.375398 0.037045
v -0.173393 1.372380 0.036395
v -0.178036 1.369535 0.034129
v -0.181996 1.366863 0.030248
v -0.185326 1.364352 0.024874
v -0.188124 1.361976 0.018239
v -0.190529 1.359700 0.010674
v -0.192709 1.357481 0.002576
v -0.194850 1.355273 -0.005616
v -0.197137 1.353027 -0.013460
v -0.199748 1.350698 -0.020538
v -0.202831 1.348250 -0.026497
v -0.206499 1.345653 -0.031071
v -0.210815 1.342891 -0.034110
v -0.205846 1.345819 -0.032618
v -0.200229 1.348911 -0.032660
v -0.194027 1.352153 -0.034089
v -0.187352 1.355514 -0.036636
v -0.180354 1.358958 -0.039949
v -0.173209 1.362439 -0.043610
v -0.166105 1.365910 -0.047177
v -0.159224 1.369324 -0.050211
v -0.152737 1.372638 -0.052315
v -0.146782 1.375817 -0.053159
v -0.141457 1.378835 -0.052508
v -0.136815 1.381680 -0.050243
v -0.132854 1.384352 -0.046362
v -0.129524 1.386863 -0.040987
v -0.126726 1.389239 -0.034353
v -0.124321 1.391515 -0.026788
v -0.122141 1.393734 -0.018690
v -0.120001 1.395943 -0.010497
v -0.117713 1.398189 -0.002654
v -0.115103 1.400517 0.004425
v -0.112020 1.402965 0.010384
v -0.108352 1.405563 0.014957
f 337 338 339
f 337 339 338
f 337 339 340
f 337 340 339
f 337 340 341
f 337 341 340
f 337 341 342
f 337 342 341
f 337 342 343
f 337 343 342
f 337 343 344
f 337 344 343
f 337 344 345
f 337 345 344
f 337 345 346
f 337 346 345
f 337 346 347
f 337 347 346
f 337 347 348
f 337 348 347
f 337 348 349
f 337 349 348
f 337 349 350
f 337 350 349
f 337 350 351
f 337 351 350
f 337 351 352
f 337 352 351
f 337 352 353
f 337 353 352
f 337 353 354
f 337 354 353
f 337 354 355
f 337 355 354
f 337 355 356
f 337 356 355
f 337 356 357
f 337 357 356
f 337 357 358
f 337 358 357
f 337 358 359
f 337 359 358
f 337 359 360
f 337 360 359
f 337 360 361
f 337 361 360
f 337 361 362
f 337 362 361
f 337 362 363
f 337 363 362
f 337 363 364
f 337 364 363
f 337 364 365
f 337 365 364
f 337 365 366
f 337 366 365
f 337 366 367
f 337 367 366
f 337 367 368
f 337 368 367
f 337 368 369
f 337 369 368
f 337 369 370
f 337 370 369
f 337 370 371
f 337 371 370
f 337 371 372
f 337 372 371
f 337 372 373
f 337 373 372
f 337 373 374
f 337 374 373
f 337 374 375
f 337 375 374
f 337 375 376
f 337 376 375
f 337 376 377
f 337 377 376
f 337 377 378
f 337 378 377
f 337 378 379
f 337 379 378
f 337 379 380
f 337 380 379
f 337 380 381
f 337 381 380
f 337 381 382
f 337 382 381
