o mesh
v 0.000000 0.000000 0.015000
v 0.008817 0.000000 0.012135
v 0.014266 0.000000 0.004635
v 0.014266 0.000000 -0.004635
v 0.008817 0.000000 -0.012135
v 0.000000 0.000000 -0.015000
v -0.008817 0.000000 -0.012135
v -0.014266 0.000000 -0.004635
v -0.014266 0.000000 0.004635
v -0.008817 0.000000 0.012135
v 0.000000 0.400000 0.010200
v 0.005995 0.400000 0.008252
v 0.009701 0.400000 0.003152
v 0.009701 0.400000 -0.003152
v 0.005995 0.400000 -0.008252
v 0.000000 0.400000 -0.010200
v -0.005995 0.400000 -0.008252
v -0.009701 0.400000 -0.003152
v -0.009701 0.400000 0.003152
v -0.005995 0.400000 0.008252
f 1 2 12
f 1 12 11
f 2 3 13
f 2 13 12
f 3 4 14
f 3 14 13
f 4 5 15
f 4 15 14
f 5 6 16
f 5 16 15
f 6 7 17
f 6 17 16
f 7 8 18
f 7 18 17
f 8 9 19
f 8 19 18
f 9 10 20
f 9 20 19
f 10 1 11
f 10 11 20
v -0.000034 0.400000 0.010200
v 0.004157 0.404293 0.008266
v 0.006761 0.406946 0.003175
v 0.006782 0.406946 -0.003129
v 0.004213 0.404293 -0.008238
v 0.000034 0.400000 -0.010200
v -0.004157 0.395707 -0.008266
v -0.006761 0.393054 -0.003175
v -0.006782 0.393054 0.003129
v -0.004213 0.395707 0.008238
v -0.238911 0.632871 0.006130
v -0.236061 0.635790 0.004815
v -0.234291 0.637594 0.001353
v -0.234276 0.637594 -0.002934
v -0.236023 0.635790 -0.006408
v -0.238865 0.632871 -0.007742
v -0.241715 0.629952 -0.006427
v -0.243485 0.628147 -0.002965
v -0.243500 0.628147 0.001322
v -0.241753 0.629952 0.004796
f 21 22 32
f 21 32 31
f 22 23 33
f 22 33 32
f 23 24 34
f 23 34 33
f 24 25 35
f 24 35 34
f 25 26 36
f 25 36 35
f 26 27 37
f 26 37 36
f 27 28 38
f 27 38 37
f 28 29 39
f 28 39 38
f 29 30 40
f 29 40 39
f 30 21 31
f 30 31 40
v -0.240808 0.632871 0.005859
v -0.241536 0.636785 0.004271
v -0.241253 0.639205 0.000743
v -0.240066 0.639205 -0.003376
v -0.238430 0.636785 -0.006513
v -0.236968 0.632871 -0.007471
v -0.236240 0.628956 -0.005883
v -0.236523 0.626537 -0.002355
v -0.237710 0.626537 0.001764
v -0.239346 0.628956 0.004902
v -0.502878 0.553310 -0.071937
v -0.503373 0.555971 -0.073017
v -0.503181 0.557617 -0.075415
v -0.502374 0.557617 -0.078216
v -0.501261 0.555971 -0.080350
v -0.500267 0.553310 -0.081001
v -0.499772 0.550648 -0.079921
v -0.499965 0.549003 -0.077523
v -0.500771 0.549003 -0.074721
v -0.501884 0.550648 -0.072588
f 41 42 52
f 41 52 51
f 42 43 53
f 42 53 52
f 43 44 54
f 43 54 53
f 44 45 55
f 44 55 54
f 45 46 56
f 45 56 55
f 46 47 57
f 46 57 56
f 47 48 58
f 47 58 57
f 48 49 59
f 48 59 58
f 49 50 60
f 49 60 59
f 50 41 51
f 50 51 60
v -0.501573 0.554725 -0.080968
v -0.498935 0.553640 -0.080365
v -0.497305 0.552428 -0.078274
v -0.497305 0.551553 -0.075494
v -0.498935 0.551349 -0.073086
v -0.501573 0.551894 -0.071970
v -0.504210 0.552980 -0.072573
v -0.505840 0.554191 -0.074664
v -0.505840 0.555066 -0.077444
v -0.504210 0.555270 -0.079852
v -0.567616 0.359890 -0.140694
v -0.565823 0.359152 -0.140284
v -0.564715 0.358328 -0.138863
v -0.564715 0.357733 -0.136972
v -0.565823 0.357594 -0.135334
v -0.567616 0.357965 -0.134576
v -0.569410 0.358703 -0.134985
v -0.570518 0.359527 -0.136407
v -0.570518 0.360122 -0.138298
v -0.569410 0.360261 -0.139935
f 61 62 72
f 61 72 71
f 62 63 73
f 62 73 72
f 63 64 74
f 63 74 73
f 64 65 75
f 64 75 74
f 65 66 76
f 65 76 75
f 66 67 77
f 66 77 76
f 67 68 78
f 67 78 77
f 68 69 79
f 68 79 78
f 69 70 80
f 69 80 79
f 70 61 71
f 70 71 80
v -0.567616 0.358927 -0.137635
v -0.566158 0.360800 -0.139839
v -0.564460 0.362571 -0.141977
v -0.562236 0.364117 -0.143967
v -0.559258 0.365339 -0.145745
v -0.555433 0.366200 -0.147286
v -0.550843 0.366733 -0.148613
v -0.545748 0.367049 -0.149799
v -0.540546 0.367320 -0.150954
v -0.535709 0.367748 -0.152212
v -0.531698 0.368529 -0.153701
v -0.528878 0.369819 -0.155524
v -0.527451 0.371706 -0.157737
v -0.527416 0.374188 -0.160341
v -0.528572 0.377180 -0.163278
v -0.530554 0.380525 -0.166446
v -0.532902 0.384027 -0.169717
v -0.535143 0.387483 -0.172958
v -0.536878 0.390723 -0.176057
v -0.537848 0.393635 -0.178942
v -0.537972 0.396185 -0.181589
v -0.537341 0.398413 -0.184026
v -0.536184 0.400415 -0.186315
v -0.534788 0.402315 -0.188537
v -0.536246 0.400442 -0.186332
v -0.537944 0.398671 -0.184195
v -0.540168 0.397125 -0.182205
v -0.543146 0.395902 -0.180426
v -0.546971 0.395042 -0.178885
v -0.551561 0.394509 -0.177558
v -0.556656 0.394192 -0.176373
v -0.561859 0.393921 -0.175217
v -0.566695 0.393494 -0.173959
v -0.570706 0.392713 -0.172470
v -0.573526 0.391422 -0.170647
v -0.574953 0.389536 -0.168434
v -0.574988 0.387054 -0.165831
v -0.573832 0.384062 -0.162894
v -0.571850 0.380717 -0.159725
v -0.569502 0.377215 -0.156455
v -0.567262 0.373759 -0.153214
v -0.565527 0.370519 -0.150114
v -0.564556 0.367606 -0.147230
v -0.564433 0.365056 -0.144582
v -0.565063 0.362829 -0.142146
v -0.566220 0.360827 -0.139857
f 81 82 83
f 81 83 82
f 81 83 84
f 81 84 83
f 81 84 85
f 81 85 84
f 81 85 86
f 81 86 85
f 81 86 87
f 81 87 86
f 81 87 88
f 81 88 87
f 81 88 89
f 81 89 88
f 81 89 90
f 81 90 89
f 81 90 91
f 81 91 90
f 81 91 92
f 81 92 91
f 81 92 93
f 81 93 92
f 81 93 94
f 81 94 93
f 81 94 95
f 81 95 94
f 81 95 96
f 81 96 95
f 81 96 97
f 81 97 96
f 81 97 98
f 81 98 97
f 81 98 99
f 81 99 98
f 81 99 100
f 81 100 99
f 81 100 101
f 81 101 100
f 81 101 102
f 81 102 101
f 81 102 103
f 81 103 102
f 81 103 104
f 81 104 103
f 81 104 105
f 81 105 104
f 81 105 106
f 81 106 105
f 81 106 107
f 81 107 106
f 81 107 108
f 81 108 107
f 81 108 109
f 81 109 108
f 81 109 110
f 81 110 109
f 81 110 111
f 81 111 110
f 81 111 112
f 81 112 111
f 81 112 113
f 81 113 112
f 81 113 114
f 81 114 113
f 81 114 115
f 81 115 114
f 81 115 116
f 81 116 115
f 81 116 117
f 81 117 116
f 81 117 118
f 81 118 117
f 81 118 119
f 81 119 118
f 81 119 120
f 81 120 119
f 81 120 121
f 81 121 120
f 81 121 122
f 81 122 121
f 81 122 123
f 81 123 122
f 81 123 124
f 81 124 123
f 81 124 125
f 81 125 124
f 81 125 126
f 81 126 125
v -0.567616 0.358927 -0.137635
v -0.564950 0.359375 -0.136064
v -0.562423 0.359790 -0.134239
v -0.560184 0.360138 -0.131890
v -0.558342 0.360394 -0.128820
v -0.556932 0.360549 -0.124964
v -0.555900 0.360617 -0.120420
v -0.555108 0.360628 -0.115441
v -0.554351 0.360632 -0.110396
v -0.553395 0.360682 -0.105714
v -0.552013 0.360830 -0.101807
v -0.550028 0.361119 -0.098997
v -0.547342 0.361572 -0.097462
v -0.543954 0.362187 -0.097202
v -0.539963 0.362942 -0.098040
v -0.535547 0.363797 -0.099653
v -0.530931 0.364698 -0.101628
v -0.526350 0.365591 -0.103538
v -0.522010 0.366428 -0.105012
v -0.518047 0.367177 -0.105798
v -0.514517 0.367825 -0.105799
v -0.511382 0.368381 -0.105079
v -0.508537 0.368871 -0.103834
v -0.505831 0.369327 -0.102335
v -0.508497 0.368880 -0.103906
v -0.511024 0.368465 -0.105731
v -0.513263 0.368117 -0.108080
v -0.515105 0.367861 -0.111150
v -0.516515 0.367706 -0.115006
v -0.517547 0.367638 -0.119550
v -0.518339 0.367626 -0.124529
v -0.519096 0.367623 -0.129574
v -0.520052 0.367573 -0.134256
v -0.521434 0.367424 -0.138163
v -0.523419 0.367135 -0.140973
v -0.526105 0.366683 -0.142508
v -0.529493 0.366068 -0.142768
v -0.533484 0.365312 -0.141930
v -0.537900 0.364458 -0.140317
v -0.542516 0.363557 -0.138342
v -0.547097 0.362664 -0.136432
v -0.551437 0.361827 -0.134958
v -0.555400 0.361078 -0.134172
v -0.558930 0.360430 -0.134171
v -0.562065 0.359873 -0.134891
v -0.564910 0.359384 -0.136136
f 127 128 129
f 127 129 128
f 127 129 130
f 127 130 129
f 127 130 131
f 127 131 130
f 127 131 132
f 127 132 131
f 127 132 133
f 127 133 132
f 127 133 134
f 127 134 133
f 127 134 135
f 127 135 134
f 127 135 136
f 127 136 135
f 127 136 137
f 127 137 136
f 127 137 138
f 127 138 137
f 127 138 139
f 127 139 138
f 127 139 140
f 127 140 139
f 127 140 141
f 127 141 140
f 127 141 142
f 127 142 141
f 127 142 143
f 127 143 142
f 127 143 144
f 127 144 143
f 127 144 145
f 127 145 144
f 127 145 146
f 127 146 145
f 127 146 147
f 127 147 146
f 127 147 148
f 127 148 147
f 127 148 149
f 127 149 148
f 127 149 150
f 127 150 149
f 127 150 151
f 127 151 150
f 127 151 152
f 127 152 151
f 127 152 153
f 127 153 152
f 127 153 154
f 127 154 153
f 127 154 155
f 127 155 154
f 127 155 156
f 127 156 155
f 127 156 157
f 127 157 156
f 127 157 158
f 127 158 157
f 127 158 159
f 127 159 158
f 127 159 160
f 127 160 159
f 127 160 161
f 127 161 160
f 127 161 162
f 127 162 161
f 127 162 163
f 127 163 162
f 127 163 164
f 127 164 163
f 127 164 165
f 127 165 164
f 127 165 166
f 127 166 165
f 127 166 167
f 127 167 166
f 127 167 168
f 127 168 167
f 127 168 169
f 127 169 168
f 127 169 170
f 127 170 169
f 127 170 171
f 127 171 170
f 127 171 172
f 127 172 171
v -0.567616 0.358927 -0.137635
v -0.569696 0.360093 -0.136531
v -0.571918 0.361433 -0.135830
v -0.574338 0.363018 -0.135692
v -0.576970 0.364865 -0.136158
v -0.579791 0.366945 -0.137161
v -0.582746 0.369190 -0.138545
v -0.585755 0.371503 -0.140084
v -0.588727 0.373770 -0.141517
v -0.591569 0.375875 -0.142578
v -0.594197 0.377717 -0.143033
v -0.596550 0.379219 -0.142704
v -0.598594 0.380340 -0.141498
v -0.600329 0.381081 -0.139415
v -0.601789 0.381481 -0.136550
v -0.603036 0.381618 -0.133076
v -0.604152 0.381593 -0.129232
v -0.605230 0.381522 -0.125281
v -0.606364 0.381520 -0.121486
v -0.607631 0.381682 -0.118072
v -0.609087 0.382077 -0.115194
v -0.610755 0.382734 -0.112920
v -0.612622 0.383636 -0.111210
v -0.614630 0.384713 -0.109902
v -0.612550 0.383548 -0.111006
v -0.610328 0.382208 -0.111708
v -0.607908 0.380623 -0.111845
v -0.605276 0.378776 -0.111379
v -0.602455 0.376696 -0.110376
v -0.599501 0.374450 -0.108993
v -0.596491 0.372137 -0.107453
v -0.593519 0.369871 -0.106020
v -0.590677 0.367765 -0.104959
v -0.588049 0.365923 -0.104504
v -0.585697 0.364421 -0.104833
v -0.583653 0.363300 -0.106039
v -0.581917 0.362560 -0.108122
v -0.580457 0.362159 -0.110988
v -0.579210 0.362023 -0.114461
v -0.578095 0.362047 -0.118305
v -0.577016 0.362118 -0.122256
v -0.575883 0.362121 -0.126051
v -0.574616 0.361959 -0.129465
v -0.573160 0.361564 -0.132343
v -0.571491 0.360906 -0.134617
v -0.569625 0.360004 -0.136327
f 173 174 175
f 173 175 174
f 173 175 176
f 173 176 175
f 173 176 177
f 173 177 176
f 173 177 178
f 173 178 177
f 173 178 179
f 173 179 178
f 173 179 180
f 173 180 179
f 173 180 181
f 173 181 180
f 173 181 182
f 173 182 181
f 173 182 183
f 173 183 182
f 173 183 184
f 173 184 183
f 173 184 185
f 173 185 184
f 173 185 186
f 173 186 185
f 173 186 187
f 173 187 186
f 173 187 188
f 173 188 187
f 173 188 189
f 173 189 188
f 173 189 190
f 173 190 189
f 173 190 191
f 173 191 190
f 173 191 192
f 173 192 191
f 173 192 193
f 173 193 192
f 173 193 194
f 173 194 193
f 173 194 195
f 173 195 194
f 173 195 196
f 173 196 195
f 173 196 197
f 173 197 196
f 173 197 198
f 173 198 197
f 173 198 199
f 173 199 198
f 173 199 200
f 173 200 199
f 173 200 201
f 173 201 200
f 173 201 202
f 173 202 201
f 173 202 203
f 173 203 202
f 173 203 204
f 173 204 203
f 173 204 205
f 173 205 204
f 173 205 206
f 173 206 205
f 173 206 207
f 173 207 206
f 173 207 208
f 173 208 207
f 173 208 209
f 173 209 208
f 173 209 210
f 173 210 209
f 173 210 211
f 173 211 210
f 173 211 212
f 173 212 211
f 173 212 213
f 173 213 212
f 173 213 214
f 173 214 213
f 173 214 215
f 173 215 214
f 173 215 216
f 173 216 215
f 173 216 217
f 173 217 216
f 173 217 218
f 173 218 217
v -0.002768 0.400000 -0.009817
v -0.005577 0.404891 -0.007001
v -0.006256 0.407913 -0.001511
v -0.004546 0.407913 0.004556
v -0.001099 0.404891 0.008883
v 0.002768 0.400000 0.009817
v 0.005577 0.395109 0.007001
v 0.006256 0.392087 0.001511
v 0.004546 0.392087 -0.004556
v 0.001099 0.395109 -0.008883
v 0.227696 0.569150 -0.071396
v 0.225786 0.572475 -0.069481
v 0.225324 0.574531 -0.065748
v 0.226487 0.574531 -0.061622
v 0.228831 0.572475 -0.058680
v 0.231460 0.569150 -0.058045
v 0.233370 0.565824 -0.059960
v 0.233832 0.563769 -0.063693
v 0.232669 0.563769 -0.067819
v 0.230325 0.565824 -0.070761
f 219 220 230
f 219 230 229
f 220 221 231
f 220 231 230
f 221 222 232
f 221 232 231
f 222 223 233
f 222 233 232
f 223 224 234
f 223 234 233
f 224 225 235
f 224 235 234
f 225 226 236
f 225 236 235
f 226 227 237
f 226 237 236
f 227 228 238
f 227 238 237
f 228 219 229
f 228 229 238
v 0.228786 0.569150 -0.071611
v 0.230938 0.572695 -0.070525
v 0.232570 0.574886 -0.067222
v 0.233059 0.574886 -0.062963
v 0.232219 0.572695 -0.059376
v 0.230370 0.569150 -0.057830
v 0.228218 0.565605 -0.058916
v 0.226586 0.563414 -0.062219
v 0.226097 0.563414 -0.066478
v 0.226937 0.565605 -0.070065
v 0.431153 0.453615 -0.092628
v 0.432616 0.456025 -0.091890
v 0.433726 0.457515 -0.089643
v 0.434059 0.457515 -0.086748
v 0.433487 0.456025 -0.084308
v 0.432230 0.453615 -0.083257
v 0.430767 0.451204 -0.083996
v 0.429658 0.449714 -0.086242
v 0.429325 0.449714 -0.089138
v 0.429896 0.451204 -0.091577
f 239 240 250
f 239 250 249
f 240 241 251
f 240 251 250
f 241 242 252
f 241 252 251
f 242 243 253
f 242 253 252
f 243 244 254
f 243 254 253
f 244 245 255
f 244 255 254
f 245 246 256
f 245 256 255
f 246 247 257
f 246 257 256
f 247 248 258
f 247 258 257
f 248 239 249
f 248 249 258
v 0.431692 0.454366 -0.092599
v 0.434464 0.454186 -0.091716
v 0.436177 0.453788 -0.089391
v 0.436177 0.453324 -0.086513
v 0.434464 0.452971 -0.084182
v 0.431692 0.452863 -0.083286
v 0.428920 0.453043 -0.084170
v 0.427207 0.453441 -0.086494
v 0.427207 0.453906 -0.089372
v 0.428920 0.454259 -0.091704
v 0.428923 0.248475 -0.124290
v 0.430808 0.248353 -0.123689
v 0.431973 0.248082 -0.122109
v 0.431973 0.247766 -0.120152
v 0.430808 0.247526 -0.118566
v 0.428923 0.247453 -0.117957
v 0.427038 0.247576 -0.118558
v 0.425873 0.247847 -0.120139
v 0.425873 0.248162 -0.122096
v 0.427038 0.248402 -0.123681
f 259 260 270
f 259 270 269
f 260 261 271
f 260 271 270
f 261 262 272
f 261 272 271
f 262 263 273
f 262 273 272
f 263 264 274
f 263 274 273
f 264 265 275
f 264 275 274
f 265 266 276
f 265 276 275
f 266 267 277
f 266 277 276
f 267 268 278
f 267 278 277
f 268 259 269
f 268 269 278
v 0.428923 0.247964 -0.121124
v 0.429716 0.249371 -0.123963
v 0.431027 0.250753 -0.126693
v 0.433106 0.252099 -0.129260
v 0.436034 0.253404 -0.131649
v 0.439739 0.254672 -0.133873
v 0.444015 0.255913 -0.135978
v 0.448545 0.257142 -0.138028
v 0.452956 0.258377 -0.140104
v 0.456858 0.259636 -0.142287
v 0.459903 0.260936 -0.144650
v 0.461832 0.262288 -0.147250
v 0.462504 0.263701 -0.150115
v 0.461919 0.265173 -0.153245
v 0.460216 0.266698 -0.156611
v 0.457658 0.268264 -0.160157
v 0.454591 0.269854 -0.163811
v 0.451404 0.271450 -0.167490
v 0.448472 0.273034 -0.171116
v 0.446110 0.274590 -0.174621
v 0.444526 0.276110 -0.177962
v 0.443791 0.277589 -0.181123
v 0.443823 0.279032 -0.184123
v 0.444373 0.280450 -0.187013
v 0.443580 0.279043 -0.184174
v 0.442269 0.277661 -0.181444
v 0.440191 0.276316 -0.178877
v 0.437263 0.275011 -0.176488
v 0.433557 0.273742 -0.174264
v 0.429282 0.272501 -0.172159
v 0.424751 0.271272 -0.170109
v 0.420341 0.270037 -0.168033
v 0.416439 0.268778 -0.165850
v 0.413393 0.267479 -0.163487
v 0.411464 0.266126 -0.160887
v 0.410793 0.264714 -0.158022
v 0.411378 0.263241 -0.154892
v 0.413080 0.261716 -0.151526
v 0.415639 0.260150 -0.147980
v 0.418705 0.258560 -0.144326
v 0.421893 0.256964 -0.140647
v 0.424824 0.255381 -0.137022
v 0.427186 0.253824 -0.133516
v 0.428771 0.252305 -0.130175
v 0.429506 0.250825 -0.127014
v 0.429474 0.249383 -0.124014
f 279 280 281
f 279 281 280
f 279 281 282
f 279 282 281
f 279 282 283
f 279 283 282
f 279 283 284
f 279 284 283
f 279 284 285
f 279 285 284
f 279 285 286
f 279 286 285
f 279 286 287
f 279 287 286
f 279 287 288
f 279 288 287
f 279 288 289
f 279 289 288
f 279 289 290
f 279 290 289
f 279 290 291
f 279 291 290
f 279 291 292
f 279 292 291
f 279 292 293
f 279 293 292
f 279 293 294
f 279 294 293
f 279 294 295
f 279 295 294
f 279 295 296
f 279 296 295
f 279 296 297
f 279 297 296
f 279 297 298
f 279 298 297
f 279 298 299
f 279 299 298
f 279 299 300
f 279 300 299
f 279 300 301
f 279 301 300
f 279 301 302
f 279 302 301
f 279 302 303
f 279 303 302
f 279 303 304
f 279 304 303
f 279 304 305
f 279 305 304
f 279 305 306
f 279 306 305
f 279 306 307
f 279 307 306
f 279 307 308
f 279 308 307
f 279 308 309
f 279 309 308
f 279 309 310
f 279 310 309
f 279 310 311
f 279 311 310
f 279 311 312
f 279 312 311
f 279 312 313
f 279 313 312
f 279 313 314
f 279 314 313
f 279 314 315
f 279 315 314
f 279 315 316
f 279 316 315
f 279 316 317
f 279 317 316
f 279 317 318
f 279 318 317
f 279 318 319
f 279 319 318
f 279 319 320
f 279 320 319
f 279 320 321
f 279 321 320
f 279 321 322
f 279 322 321
f 279 322 323
f 279 323 322
f 279 323 324
f 279 324 323
v 0.428923 0.247964 -0.121124
v 0.431366 0.248630 -0.120323
v 0.433695 0.249201 -0.118921
v 0.435897 0.249665 -0.116850
v 0.437981 0.250031 -0.114160
v 0.439973 0.250320 -0.110985
v 0.441910 0.250564 -0.107524
v 0.443838 0.250800 -0.104012
v 0.445804 0.251067 -0.100698
v 0.447852 0.251403 -0.097822
v 0.450022 0.251841 -0.095585
v 0.452342 0.252404 -0.094136
v 0.454827 0.253105 -0.093553
v 0.457476 0.253943 -0.093835
v 0.460274 0.254906 -0.094904
v 0.463195 0.255970 -0.096614
v 0.466198 0.257104 -0.098760
v 0.469239 0.258270 -0.101106
v 0.472271 0.259427 -0.103400
v 0.475248 0.260539 -0.105407
v 0.478133 0.261574 -0.106931
v 0.480900 0.262511 -0.107835
v 0.483540 0.263342 -0.108070
v 0.486066 0.264077 -0.107703
v 0.483622 0.263411 -0.108504
v 0.481294 0.262840 -0.109906
v 0.479092 0.262376 -0.111977
v 0.477008 0.262010 -0.114668
v 0.475016 0.261721 -0.117842
v 0.473078 0.261477 -0.121303
v 0.471151 0.261242 -0.124815
v 0.469185 0.260975 -0.128129
v 0.467137 0.260638 -0.131006
v 0.464966 0.260200 -0.133242
v 0.462646 0.259637 -0.134691
v 0.460162 0.258936 -0.135274
v 0.457513 0.258098 -0.134993
v 0.454714 0.257135 -0.133923
v 0.451794 0.256071 -0.132213
v 0.448791 0.254937 -0.130067
v 0.445749 0.253771 -0.127721
v 0.442718 0.252614 -0.125427
v 0.439741 0.251502 -0.123420
v 0.436856 0.250467 -0.121896
v 0.434089 0.249530 -0.120992
v 0.431449 0.248699 -0.120757
f 325 326 327
f 325 327 326
f 325 327 328
f 325 328 327
f 325 328 329
f 325 329 328
f 325 329 330
f 325 330 329
f 325 330 331
f 325 331 330
f 325 331 332
f 325 332 331
f 325 332 333
f 325 333 332
f 325 333 334
f 325 334 333
f 325 334 335
f 325 335 334
f 325 335 336
f 325 336 335
f 325 336 337
f 325 337 336
f 325 337 338
f 325 338 337
f 325 338 339
f 325 339 338
f 325 339 340
f 325 340 339
f 325 340 341
f 325 341 340
f 325 341 342
f 325 342 341
f 325 342 343
f 325 343 342
f 325 343 344
f 325 344 343
f 325 344 345
f 325 345 344
f 325 345 346
f 325 346 345
f 325 346 347
f 325 347 346
f 325 347 348
f 325 348 347
f 325 348 349
f 325 349 348
f 325 349 350
f 325 350 349
f 325 350 351
f 325 351 350
f 325 351 352
f 325 352 351
f 325 352 353
f 325 353 352
f 325 353 354
f 325 354 353
f 325 354 355
f 325 355 354
f 325 355 356
f 325 356 355
f 325 356 357
f 325 357 356
f 325 357 358
f 325 358 357
f 325 358 359
f 325 359 358
f 325 359 360
f 325 360 359
f 325 360 361
f 325 361 360
f 325 361 362
f 325 362 361
f 325 362 363
f 325 363 362
f 325 363 364
f 325 364 363
f 325 364 365
f 325 365 364
f 325 365 366
f 325 366 365
f 325 366 367
f 325 367 366
f 325 367 368
f 325 368 367
f 325 368 369
f 325 369 368
f 325 369 370
f 325 370 369
v 0.428923 0.247964 -0.121124
v 0.426753 0.249040 -0.120176
v 0.424240 0.250221 -0.119859
v 0.421415 0.251500 -0.120117
v 0.418336 0.252857 -0.120845
v 0.415081 0.254270 -0.121894
v 0.411745 0.255707 -0.123094
v 0.408428 0.257138 -0.124260
v 0.405229 0.258533 -0.125207
v 0.402240 0.259863 -0.125768
v 0.399535 0.261104 -0.125805
v 0.397168 0.262241 -0.125220
v 0.395167 0.263263 -0.123961
v 0.393531 0.264172 -0.122029
v 0.392233 0.264977 -0.119474
v 0.391219 0.265692 -0.116395
v 0.390415 0.266343 -0.112930
v 0.389729 0.266957 -0.109247
v 0.389063 0.267565 -0.105530
v 0.388314 0.268198 -0.101962
v 0.387391 0.268886 -0.098717
v 0.386213 0.269653 -0.095941
v 0.384723 0.270517 -0.093741
v 0.382890 0.271487 -0.092171
v 0.385061 0.270412 -0.093118
v 0.387573 0.269230 -0.093435
v 0.390398 0.267952 -0.093177
v 0.393478 0.266594 -0.092450
v 0.396732 0.265182 -0.091400
v 0.400068 0.263744 -0.090200
v 0.403385 0.262313 -0.089035
v 0.406584 0.260918 -0.088088
v 0.409573 0.259589 -0.087526
v 0.412278 0.258347 -0.087489
v 0.414645 0.257211 -0.088074
v 0.416647 0.256188 -0.089333
v 0.418283 0.255279 -0.091266
v 0.419580 0.254475 -0.093821
v 0.420594 0.253759 -0.096899
v 0.421398 0.253108 -0.100364
v 0.422084 0.252494 -0.104047
v 0.422751 0.251886 -0.107765
v 0.423499 0.251253 -0.111332
v 0.424422 0.250565 -0.114577
v 0.425600 0.249798 -0.117353
v 0.427091 0.248935 -0.119553
f 371 372 373
f 371 373 372
f 371 373 374
f 371 374 373
f 371 374 375
f 371 375 374
f 371 375 376
f 371 376 375
f 371 376 377
f 371 377 376
f 371 377 378
f 371 378 377
f 371 378 379
f 371 379 378
f 371 379 380
f 371 380 379
f 371 380 381
f 371 381 380
f 371 381 382
f 371 382 381
f 371 382 383
f 371 383 382
f 371 383 384
f 371 384 383
f 371 384 385
f 371 385 384
f 371 385 386
f 371 386 385
f 371 386 387
f 371 387 386
f 371 387 388
f 371 388 387
f 371 388 389
f 371 389 388
f 371 389 390
f 371 390 389
f 371 390 391
f 371 391 390
f 371 391 392
f 371 392 391
f 371 392 393
f 371 393 392
f 371 393 394
f 371 394 393
f 371 394 395
f 371 395 394
f 371 395 396
f 371 396 395
f 371 396 397
f 371 397 396
f 371 397 398
f 371 398 397
f 371 398 399
f 371 399 398
f 371 399 400
f 371 400 399
f 371 400 401
f 371 401 400
f 371 401 402
f 371 402 401
f 371 402 403
f 371 403 402
f 371 403 404
f 371 404 403
f 371 404 405
f 371 405 404
f 371 405 406
f 371 406 405
f 371 406 407
f 371 407 406
f 371 407 408
f 371 408 407
f 371 408 409
f 371 409 408
f 371 409 410
f 371 410 409
f 371 410 411
f 371 411 410
f 371 411 412
f 371 412 411
f 371 412 413
f 371 413 412
f 371 413 414
f 371 414 413
f 371 414 415
f 371 415 414
f 371 415 416
f 371 416 415
